<svg height="468.01" width="1481.01" xmlns="http://www.w3.org/2000/svg" xmlns:xlink="http://www.w3.org/1999/xlink"><defs><filter id="a" height="1.16" width="1.16" x="-.08" y="-.05"><feOffset dy="4" in="SourceAlpha" result="offOut"/><feGaussianBlur in="offOut" result="blurOut" stdDeviation="5"/><feColorMatrix in="blurOut" result="colorOut" values="0 0 0 0 0.03114186851211073 0 0 0 0 0.018069973087274125 0 0 0 0 0.07727797001153403 0 0 0 0.09803921568627451 0"/><feBlend in="SourceGraphic" in2="colorOut"/></filter><path id="b" d="m1165-1446v221h-435v1225h-269v-1225h-437v-221z" fill="#697986"/><path id="c" d="m1284-209c-114 140-276 228-525 225-347-4-553-182-649-442-66-178-66-423 6-596 108-261 330-435 688-440 220-3 375 79 488 188l-90 125c-16 32-68 39-102 12-71-55-162-101-298-96-304 11-465 201-465 510 0 241 101 401 267 477 125 58 330 39 424-24 42-17 97-111 150-54" fill="#697986"/><path id="d" d="m1187-985c0 329-222 471-561 476h-202v509h-269v-1446h471c337 4 561 134 561 461zm-269 0c0-176-112-253-292-253h-202v519h202c184-1 292-85 292-266" fill="#697986"/><path id="e" d="m415-222h579v222h-848v-1446h269z" fill="#697986"/><path id="f" d="m1058-1446v214h-641v401h505v207h-505v409h641v215h-912v-1446z" fill="#697986"/><path id="g" d="m377-1009c4 38 6 82 6 121v888h-237v-1446c71 6 174-24 211 20 269 320 519 661 779 990-5-42-7-87-7-131v-879h237v1446c-64-4-144 10-192-10-14-6-28-19-41-36" fill="#697986"/><g id="h"><use transform="scale(.00888889)" xlink:href="#c"/><use transform="matrix(.00888889 0 0 .00888889 11.92 0)" xlink:href="#e"/><path d="m449 0h-270v-1446h270z" fill="#697986" transform="matrix(.00888889 0 0 .00888889 21.111111 0)"/><use transform="matrix(.00888889 0 0 .00888889 26.693333 0)" xlink:href="#f"/><use transform="matrix(.00888889 0 0 .00888889 36.871111 0)" xlink:href="#g"/><use transform="matrix(.00888889 0 0 .00888889 50.311111 0)" xlink:href="#b"/></g><path id="i" d="m572-1057c257 0 406 153 406 409v648c-68-4-160 9-208-12-30-14-45-72-60-107-87 72-171 137-328 135-193-3-312-93-312-286 0-183 145-251 311-298 78-21 176-33 295-36 8-132-26-216-144-216-125 0-159 78-268 78-94 0-104-95-146-151 112-100 257-164 454-164zm-206 772c-2 73 41 96 114 96 97 0 140-35 196-89v-144c-104 4-184 15-248 46-39 19-61 43-62 91" fill="#f50057"/><path id="j" d="m666 16c-111 3-175-34-236-85v398h-310v-1366h192c78-3 80 73 99 128 76-81 169-148 323-148 201 0 299 140 348 307 38 128 40 313-4 439-63 179-182 321-412 327zm124-543c0-153-21-288-164-293-99-3-151 43-196 98v440c40 45 88 70 162 70 160 0 198-144 198-315" fill="#f50057"/><path id="k" d="m440-1037v1037h-310v-1037zm-154-466c113 0 190 70 190 182 0 111-79 180-190 180-109 0-184-71-184-180 0-110 74-182 184-182" fill="#f50057"/><path id="l" d="m236 14c-107 0-176-65-176-171 0-105 70-171 176-171 105 0 176 66 176 171 0 106-70 171-176 171" fill="#f50057"/><path id="m" d="m958-162c-96 112-230 178-430 178-231 0-369-133-438-309-49-124-51-307-4-437 70-194 223-323 484-323 177 0 287 60 380 153-36 45-67 98-109 136-73 33-113-34-174-50-21-5-46-11-77-11-169 4-215 131-220 304-6 205 103 354 302 295 57-17 74-74 140-74 25 0 42 10 56 27" fill="#f50057"/><path id="n" d="m366-1016c125-49 306-50 431 0 190 75 313 236 313 495 0 261-123 423-313 499-125 50-306 50-431 0-191-76-316-237-316-499 0-260 126-421 316-495zm4 497c0 183 45 305 212 305 163 0 208-124 208-305 0-182-44-304-208-304-167 0-212 121-212 304" fill="#f50057"/><path id="o" d="m580-820c-67 0-112 34-150 70v750h-310v-1037h192c68-3 78 56 93 108 65-66 139-123 267-124 134-1 209 79 249 178 61-110 169-178 333-178 248 0 368 145 368 394v659h-310v-659c0-107-46-161-138-161-89 1-146 65-146 161v659h-310v-659c0-110-37-161-138-161" fill="#f50057"/><path id="p" d="m612-820c-81 1-134 39-182 81v739h-310v-1037h192c70-3 79 59 94 112 74-70 159-128 302-128 236 0 352 157 352 394v659h-310v-659c0-96-44-162-138-161" fill="#f50057"/><path id="q" d="m544 269c-20 41-37 60-98 60h-232l200-420-414-946h274c46-1 73 23 84 54 69 190 150 371 209 571 68-189 134-380 199-571 10-28 45-55 82-54h250" fill="#f50057"/><path id="r" d="m774-74c-71 55-172 90-290 90-196 0-304-108-304-303v-536c-70 1-146 12-146-61v-121l165-32 61-253c16-78 146-38 230-48v303h252v212h-252v515c0 45 23 83 68 83 48 0 88-50 122 4" fill="#f50057"/><path id="s" d="m1024-162c-98 114-243 178-446 178-253 0-409-127-484-315-49-123-59-309-6-439 74-183 225-315 476-315 298 0 466 176 466 475 0 66-3 115-70 115h-598c16 155 90 243 244 247 98 2 155-39 218-71 37-18 85-16 110 14zm-272-481c-3-120-60-196-182-196-129 0-185 80-205 196z" fill="#f50057"/><path id="t" d="m768-795c-14 65-88 29-146 29-81 0-145 43-192 130v636h-310v-1037c73 2 156-8 222 4 64 11 52 105 69 166 65-96 144-190 283-190 47 0 85 11 114 34" fill="#f50057"/><path id="u" d="m440-1497v1497h-310v-1497z" fill="#f50057"/><path id="v" d="m564-1101c10-146-196-154-298-95-28 16-47 35-82 35-29 0-49-13-64-37l-82-126c102-82 223-149 406-149 244 0 402 115 408 354 6 230-160 297-278 405-47 43-40 128-60 196h-212c-4-86-47-189-3-262 72-120 253-139 265-321zm-166 1115c-107 0-176-65-176-171 0-105 70-171 176-171 105 0 176 66 176 171 0 106-70 171-176 171" fill="#f50057"/><path id="w" d="m252-224h280c2-282-4-570 3-848l-165 137c-34 38-114 22-140-12l-98-130 454-381h256v1234h240v224h-830z" fill="#f50057"/><path id="x" d="m1079-1060c53 176 54 486 0 662-72 237-212 414-501 414-287 0-427-178-498-414-53-176-53-486 0-662 71-237 210-413 498-413s430 177 501 413zm-420 806c162-89 162-477 122-722-22-135-65-248-203-248-137 0-179 115-200 248-38 243-40 632 120 722 52 29 109 29 161 0" fill="#f50057"/><path id="y" d="m532-896c89-35 216-36 312-1 162 59 274 190 274 411 0 240-136 387-313 462-125 53-311 53-436 2-184-74-303-232-303-484 0-186 74-313 166-437l328-443c29-40 94-71 166-71h276c-157 187-313 374-470 561zm46 197c-139 0-214 93-214 235 0 148 69 235 218 235 140 0 226-93 226-234 0-150-82-236-230-236" fill="#f50057"/><path id="z" d="m1126-566c-12 87 37 230-60 231h-90v335h-270v-335h-586c-39 1-76-30-82-63l-32-153 674-906h296v891zm-420 0c3-181-8-372 10-539l-385 539z" fill="#f50057"/><filter id="A" height="1.25" width="1.25" x="-.13" y="-.07"><feOffset dy="4" in="SourceAlpha" result="offOut"/><feGaussianBlur in="offOut" result="blurOut" stdDeviation="5"/><feColorMatrix in="blurOut" result="colorOut" values="0 0 0 0 0 0 0 0 0 0.2996078431372549 0 0 0 0 0.25882352941176473 0 0 0 0.4 0"/><feBlend in="SourceGraphic" in2="colorOut"/></filter><path id="B" d="m1187-985c0 329-222 471-561 476h-202v509h-269v-1446h471c337 4 561 134 561 461zm-269 0c0-176-112-253-292-253h-202v519h202c184-1 292-85 292-266" fill="#00bfa5"/><path id="C" d="m1153-1030c0 232-137 352-319 413 34 19 63 47 88 83l362 534h-242c-51 0-80-22-101-54l-304-463c-24-34-42-48-98-48h-115v565h-269v-1446h441c324 4 557 105 557 416zm-263 20c0-163-114-229-294-228h-172v480h168c180-3 298-77 298-252" fill="#00bfa5"/><path id="D" d="m1480-1018c71 176 71 414 0 590-106 261-323 444-679 444s-576-184-681-444c-71-176-71-414 0-590 106-261 324-444 681-444 355 0 573 184 679 444zm-679 804c307 0 456-198 456-509s-149-510-456-510c-308 0-459 198-459 510s152 509 459 509" fill="#00bfa5"/><path id="E" d="m493-744-461-702h268c38 0 48 9 63 32l329 531c7-19 15-35 25-51l301-475c15-25 34-37 57-37h258l-466 691 479 755h-269c-37 1-57-23-71-46l-335-554c-5 15-12 29-19 42l-321 512c-14 20-33 47-67 46h-252" fill="#00bfa5"/><path id="F" d="m789-562v562h-269v-562l-527-884h237c50 0 72 27 90 60 102 188 210 370 305 564 12 25 22 51 31 76 20-56 40-105 69-157l263-483c15-28 44-60 89-60h238" fill="#00bfa5"/><path id="G" d="m565-850c-86 0-140 48-186 99v751h-247v-1026c80 9 198-29 214 45l16 76c67-72 141-136 276-137 139-1 214 86 253 192 57-117 162-192 328-192 240 0 354 147 354 389v653h-247v-653c1-123-52-197-169-197s-180 76-180 197v653h-248v-653c0-127-46-197-164-197" fill="#697986"/><path id="H" d="m519-204c146 0 246-70 241-211-6-175-195-185-333-232-183-63-339-153-333-400 5-199 120-319 272-380 126-51 311-44 437 5 72 27 133 64 184 112l-66 127c-15 40-64 51-105 25-64-41-136-87-246-85-132 3-224 54-224 182 0 167 202 176 334 227 173 67 333 144 333 381 0 227-120 364-289 433-138 56-353 39-478-16-80-35-154-80-210-138l78-129c23-34 74-43 115-13 73 54 157 112 290 112" fill="#697986"/><path id="I" d="m398-581c6 222 109 364 330 364 220 0 331-140 331-363v-866h269v866c-5 286-141 466-350 552-142 59-358 59-500 0-210-86-349-266-349-552v-866h269z" fill="#697986"/><path id="J" d="m252-224h280c2-282-4-570 3-848l-165 137c-34 38-114 22-140-12l-98-130 454-381h256v1234h240v224h-830z" fill="#00bfa5"/><path id="K" d="m1079-1060c53 176 54 486 0 662-72 237-212 414-501 414-287 0-427-178-498-414-53-176-53-486 0-662 71-237 210-413 498-413s430 177 501 413zm-420 806c162-89 162-477 122-722-22-135-65-248-203-248-137 0-179 115-200 248-38 243-40 632 120 722 52 29 109 29 161 0" fill="#00bfa5"/><path id="L" d="m236 14c-107 0-176-65-176-171 0-105 70-171 176-171 105 0 176 66 176 171 0 106-70 171-176 171" fill="#00bfa5"/><path id="M" d="m556-1045c246 0 380 151 380 397v648c-79-6-181 23-196-53l-22-73c-88 77-177 144-339 142-185-3-298-93-298-278 0-184 152-247 321-292 78-21 176-31 293-34 10-155-29-262-170-262-104 0-161 40-224 77-47 28-107 5-127-31l-45-79c118-108 260-162 427-162zm-239 770c-3 86 56 121 139 121 117 0 179-51 239-111v-173c-122 6-219 17-297 53-49 22-79 51-81 110" fill="#697986"/><path id="N" d="m635 15c-121 0-193-40-256-100v420h-247v-1361c64 5 145-11 192 11 33 24 28 86 42 129 78-86 174-159 331-159 277 0 379 232 379 524 0 241-96 412-258 495-54 27-116 41-183 41zm186-536c0-181-37-329-209-329-117 0-175 55-233 124v460c48 60 104 93 198 93 188 0 244-152 244-348" fill="#697986"/><path id="O" d="m395-1026v1026h-247v-1026zm-123-457c96 0 160 62 160 158 0 94-65 155-160 155-93 0-156-62-156-155 0-95 61-158 156-158" fill="#697986"/><path id="P" d="m225 14c-92 0-152-57-152-150 0-92 60-151 152-151 91 0 151 60 151 151 0 92-59 150-151 150" fill="#697986"/><path id="Q" d="m605-850c-102 1-168 52-226 108v742h-247v-1026c80 9 198-29 214 45l17 81c77-76 165-142 317-142 235 0 346 154 346 389v653h-247v-653c0-121-55-198-174-197" fill="#697986"/><path id="R" d="m1377-1015c71 172 71 412 0 584-106 257-325 431-679 431h-552v-1446h552c353 6 574 175 679 431zm-679 801c307-9 457-198 457-509s-150-500-457-509h-281v1018z" fill="#697986"/><path id="S" d="m1153-1030c0 232-137 352-319 413 34 19 63 47 88 83l362 534h-242c-51 0-80-22-101-54l-304-463c-24-34-42-48-98-48h-115v565h-269v-1446h441c324 4 557 105 557 416zm-263 20c0-163-114-229-294-228h-172v480h168c180-3 298-77 298-252" fill="#697986"/><path id="T" d="m1187-985c0 329-222 471-561 476h-202v509h-269v-1446h471c337 4 561 134 561 461zm-269 0c0-176-112-253-292-253h-202v519h202c184-1 292-85 292-266" fill="#512fc9"/><path id="U" d="m398-581c6 222 109 364 330 364 220 0 331-140 331-363v-866h269v866c-5 286-141 466-350 552-142 59-358 59-500 0-210-86-349-266-349-552v-866h269z" fill="#512fc9"/><path id="V" d="m415-222h579v222h-848v-1446h269z" fill="#512fc9"/><path id="W" d="m449 0h-270v-1446h270z" fill="#512fc9"/><path id="X" d="m377-1009c4 38 6 82 6 121v888h-237v-1446c71 6 174-24 211 20 269 320 519 661 779 990-5-42-7-87-7-131v-879h237v1446c-64-4-144 10-192-10-14-6-28-19-41-36" fill="#512fc9"/><path id="Y" d="m1058-1446v214h-641v401h505v207h-505v409h641v215h-912v-1446z" fill="#512fc9"/><path id="Z" d="m1165-1446v221h-435v1225h-269v-1225h-437v-221z" fill="#512fc9"/><path id="aa" d="m12-1446h226c47 0 80 25 90 61 87 312 181 618 262 935 6 25 10 51 15 79 10-53 22-104 38-149l284-865c11-30 46-61 89-61 78 0 148-4 169 61l282 865c15 43 27 90 38 142 9-49 18-98 30-142l246-865c9-33 45-61 89-61h211l-449 1446h-243c-113-359-232-713-341-1076-110 364-230 716-344 1076h-243" fill="#512fc9"/><path id="ab" d="m1480-1018c71 176 71 414 0 590-106 261-323 444-679 444s-576-184-681-444c-71-176-71-414 0-590 106-261 324-444 681-444 355 0 573 184 679 444zm-679 804c307 0 456-198 456-509s-149-510-456-510c-308 0-459 198-459 510s152 509 459 509" fill="#512fc9"/><path id="ac" d="m1153-1030c0 232-137 352-319 413 34 19 63 47 88 83l362 534h-242c-51 0-80-22-101-54l-304-463c-24-34-42-48-98-48h-115v565h-269v-1446h441c324 4 557 105 557 416zm-263 20c0-163-114-229-294-228h-172v480h168c180-3 298-77 298-252" fill="#512fc9"/><path id="ad" d="m424-840c74 2 135-1 169-44l399-505c32-39 58-57 122-57h232l-487 601c-28 33-52 59-89 78 50 19 80 49 111 90l502 677h-238c-63 0-84-18-111-53l-409-534c-28-35-53-49-116-49h-85v636h-269v-1447h269z" fill="#512fc9"/><path id="ae" d="m1417 0h-208c-47 1-77-28-90-61l-108-295h-599l-108 295c-11 30-46 61-89 61h-209l568-1446h275zm-936-546h461c-77-218-163-424-231-651-66 230-154 432-230 651" fill="#697986"/><g id="af"><use transform="scale(.00888889)" xlink:href="#H"/><use transform="matrix(.00888889 0 0 .00888889 9.537778 0)" xlink:href="#H"/><path d="m1366 0h-271v-632h-678v632h-271v-1446h271v622h678v-622h271z" fill="#697986" transform="matrix(.00888889 0 0 .00888889 19.075556 0)"/></g><path id="ag" d="m519-204c146 0 246-70 241-211-6-175-195-185-333-232-183-63-339-153-333-400 5-199 120-319 272-380 126-51 311-44 437 5 72 27 133 64 184 112l-66 127c-15 40-64 51-105 25-64-41-136-87-246-85-132 3-224 54-224 182 0 167 202 176 334 227 173 67 333 144 333 381 0 227-120 364-289 433-138 56-353 39-478-16-80-35-154-80-210-138l78-129c23-34 74-43 115-13 73 54 157 112 290 112" fill="#fc9432"/><path id="ah" d="m395-1486v1486h-247v-1486z" fill="#fc9432"/><path id="ai" d="m519-204c146 0 246-70 241-211-6-175-195-185-333-232-183-63-339-153-333-400 5-199 120-319 272-380 126-51 311-44 437 5 72 27 133 64 184 112l-66 127c-15 40-64 51-105 25-64-41-136-87-246-85-132 3-224 54-224 182 0 167 202 176 334 227 173 67 333 144 333 381 0 227-120 364-289 433-138 56-353 39-478-16-80-35-154-80-210-138l78-129c23-34 74-43 115-13 73 54 157 112 290 112" fill="#1071e5"/><path id="aj" d="m395-1026v1026h-247v-1026zm-123-457c96 0 160 62 160 158 0 94-65 155-160 155-93 0-156-62-156-155 0-95 61-158 156-158" fill="#1071e5"/><path id="ak" d="m738-75c-64 55-158 90-269 91-176 2-277-109-277-284v-573c-65-4-153 21-153-52v-98l165-27 52-280c10-66 115-35 183-42v323h270v176h-270v556c-1 59 32 101 88 102 48 1 68-25 104-34 19 1 25 9 33 22" fill="#1071e5"/><path id="al" d="m991-153c-92 106-231 168-423 168-331 0-505-212-505-550 0-237 116-392 287-467 61-27 129-40 206-40 287 0 444 174 444 465 0 54-3 95-57 95h-634c4 226 158 349 385 292 52-13 93-39 132-62 32-19 73-16 93 9zm-213-478c-4-143-73-234-217-234-154 0-226 95-247 234z" fill="#1071e5"/><path id="am" d="m604-806c-122 5-180 74-225 167v639h-247v-1026c83 11 206-35 218 62l15 124c63-106 147-205 295-205 51 0 93 12 126 35l-32 185c-4 23-15 33-40 33-33 0-65-16-110-14" fill="#1071e5"/><path id="an" d="m928-153c-89 104-216 168-404 168-227 0-358-131-424-305-47-123-49-306-4-434 67-190 213-318 465-318 165 0 270 58 357 143-29 37-52 81-86 112-71 26-104-41-170-55-24-5-52-12-86-12-192 5-260 143-260 339 0 194 67 336 254 342 98 3 148-38 200-79 26-20 67-17 87 9" fill="#1071e5"/><path id="ao" d="m56-725c5-259 241-361 518-318 104 16 188 63 250 124l-70 109c-15 22-27 35-60 35-81 0-126-60-222-60-69 0-122 24-122 85 0 75 88 87 152 109 156 54 328 97 328 304 0 247-181 353-436 353-158 0-284-54-372-128 35-48 58-109 103-146 116-42 152 74 285 65 73-5 130-23 130-90 0-78-87-92-154-113-167-53-334-109-330-329" fill="#f50057"/><path id="ap" d="m1079-1060c53 176 54 486 0 662-72 237-212 414-501 414-287 0-427-178-498-414-53-176-53-486 0-662 71-237 210-413 498-413s430 177 501 413zm-420 806c162-89 162-477 122-722-22-135-65-248-203-248-137 0-179 115-200 248-38 243-40 632 120 722 52 29 109 29 161 0" fill="#fc9432"/><path id="aq" d="m236 14c-107 0-176-65-176-171 0-105 70-171 176-171 105 0 176 66 176 171 0 106-70 171-176 171" fill="#fc9432"/><path id="ar" d="m1417 0h-208c-47 1-77-28-90-61l-108-295h-599l-108 295c-11 30-46 61-89 61h-209l568-1446h275zm-936-546h461c-77-218-163-424-231-651-66 230-154 432-230 651" fill="#512fc9"/><filter id="as" height="1.06" width="1.16" x="-.08" y="-.02"><feOffset dy="4" in="SourceAlpha" result="offOut"/><feGaussianBlur in="offOut" result="blurOut" stdDeviation="5"/><feColorMatrix in="blurOut" result="colorOut" values="0 0 0 0 0.03114186851211073 0 0 0 0 0.018069973087274125 0 0 0 0 0.07727797001153403 0 0 0 0.09803921568627451 0"/><feBlend in="SourceGraphic" in2="colorOut"/></filter></defs><g transform="translate(720.012358 -3173.355233)"><path d="m-281.16 3603a3 3 0 0 1 3-3h26a3 3 0 0 1 3 3v26a3 3 0 0 1 -3 3h-26a3 3 0 0 1 -3-3z" fill="none"/><path d="m-260.83 3600h8.67a3 3 0 0 1 3 3v8.67m0 8.66v8.67a3 3 0 0 1 -3 3h-8.67m-8.67 0h-8.66a3 3 0 0 1 -3-3v-8.67m0-8.66v-8.67a3 3 0 0 1 3-3h8.66" fill="none" stroke="#1071e5" stroke-width="2"/><path d="m-719 3208a8 8 0 0 1 8-8h581.87a8 8 0 0 1 8 8v364a8 8 0 0 1 -8 8h-581.87a8 8 0 0 1 -8-8z" fill="#fff" stroke="#512fc9" stroke-width="2"/><path d="m-719 3222.7h283.18v13.6h-283.2z" fill="none"/><path d="m-700 3226a6 6 0 0 1 6-6h116a6 6 0 0 1 6 6v116a6 6 0 0 1 -6 6h-116a6 6 0 0 1 -6-6z" fill="#fff" filter="url(#a)" stroke="#512fc9" stroke-opacity=".2" stroke-width="2"/><path d="m-700 3366a6 6 0 0 1 6-6h116a6 6 0 0 1 6 6v12a6 6 0 0 1 -6 6h-116a6 6 0 0 1 -6-6z" fill="none"/><g transform="translate(-684.617778 3378.88)"><use transform="scale(.00888889)" xlink:href="#b"/><use transform="matrix(.00888889 0 0 .00888889 9.884444 0)" xlink:href="#c"/><use transform="matrix(.00888889 0 0 .00888889 21.804444 0)" xlink:href="#d"/></g><use transform="translate(-648.271111 3378.88)" xlink:href="#h"/><path d="m-608.98 3266.34c0 8.2-6.7 14.88-14.87 14.88-8.26 0-14.87-6.67-14.87-14.88 0-8.2 6.6-14.87 14.87-14.87 8.18 0 14.87 6.67 14.87 14.88zm-34.72 9.92c0 5.47-4.46 9.92-9.9 9.92-5.5 0-9.95-4.44-9.95-9.92 0-5.47 4.46-9.92 9.96-9.92 5.44 0 9.9 4.45 9.9 9.92zm-29.74 28.74c0-7.65 6.24-13.86 13.9-13.86h11.9c7.65 0 13.82 6.2 13.82 13.85 0 1.93-1.56 3.47-3.42 3.47h-32.7c-1.94 0-3.5-1.54-3.5-3.48z" fill="#512fc9"/><path d="m-643.26 3289.2c6.92 1.88 11.97 8.15 11.97 15.68 0 1.3-.43 2.56-1.18 3.6h28.92c2.46 0 4.46-2 4.46-4.46 0-9.86-7.95-17.84-17.84-17.84h-16.35c-3.7 0-7.13 1.08-9.96 3.02z" fill="#512fc9"/><path d="m-510.82 3226a6 6 0 0 1 6-6h176.05a6 6 0 0 1 6 6v19.33a6 6 0 0 1 -6 6h-176.05a6 6 0 0 1 -6-6z" fill="none"/><g transform="translate(-505.456656 3242.546667)"><use transform="scale(.00888889)" xlink:href="#i"/><use transform="matrix(.00888889 0 0 .00888889 9.582222 0)" xlink:href="#j"/><use transform="matrix(.00888889 0 0 .00888889 19.857778 0)" xlink:href="#k"/><use transform="matrix(.00888889 0 0 .00888889 24.924444 0)" xlink:href="#l"/><use transform="matrix(.00888889 0 0 .00888889 29.12 0)" xlink:href="#m"/><use transform="matrix(.00888889 0 0 .00888889 37.76 0)" xlink:href="#n"/><use transform="matrix(.00888889 0 0 .00888889 48.071111 0)" xlink:href="#o"/><use transform="matrix(.00888889 0 0 .00888889 63.377778 0)" xlink:href="#j"/><use transform="matrix(.00888889 0 0 .00888889 73.653333 0)" xlink:href="#i"/><use transform="matrix(.00888889 0 0 .00888889 83.235556 0)" xlink:href="#p"/><use transform="matrix(.00888889 0 0 .00888889 93.191111 0)" xlink:href="#q"/><use transform="matrix(.00888889 0 0 .00888889 101.777778 0)" xlink:href="#l"/><use transform="matrix(.00888889 0 0 .00888889 105.973333 0)" xlink:href="#k"/><use transform="matrix(.00888889 0 0 .00888889 111.04 0)" xlink:href="#p"/><use transform="matrix(.00888889 0 0 .00888889 121.351111 0)" xlink:href="#r"/><use transform="matrix(.00888889 0 0 .00888889 128.462222 0)" xlink:href="#s"/><use transform="matrix(.00888889 0 0 .00888889 138.133333 0)" xlink:href="#t"/><use transform="matrix(.00888889 0 0 .00888889 145.475556 0)" xlink:href="#p"/><use transform="matrix(.00888889 0 0 .00888889 155.786667 0)" xlink:href="#i"/><use transform="matrix(.00888889 0 0 .00888889 165.368889 0)" xlink:href="#u"/><use transform="matrix(.00888889 0 0 .00888889 170.435556 0)" xlink:href="#v"/></g><path d="m-598.28 3604a3 3 0 0 1 3-3h26a3 3 0 0 1 3 3v26a3 3 0 0 1 -3 3h-26a3 3 0 0 1 -3-3z" fill="none"/><path d="m-577.95 3601h8.67a3 3 0 0 1 3 3v8.67m0 8.66v8.67a3 3 0 0 1 -3 3h-8.67m-8.66 0h-8.68a3 3 0 0 1 -3-3v-8.67m0-8.66v-8.67a3 3 0 0 1 3-3h8.66" fill="none" stroke="#00bfa5" stroke-width="2"/><path d="m-569 3237.67h18.73m18.72 0h18.73" fill="none" stroke="#f50057" stroke-width="4"/><path d="m-568.95 3239.64h-2.05v-3.95h2.05zm58.13 0h-2.05v-3.95h2.05z" fill="#f50057" stroke="#f50057" stroke-width=".05"/><path d="m-320.77 3237.67h39.47" fill="none" stroke="#f50057" stroke-width="4"/><path d="m-320.72 3239.64h-2.05v-3.95h2.05z" fill="#f50057" stroke="#f50057" stroke-width=".05"/><path d="m-266.3 3237.67-13 7.5v-15z" fill="#f50057" stroke="#f50057" stroke-width="4"/><path d="m-480.8 3253.25a6 6 0 0 1 6-6h116a6 6 0 0 1 6 6v19.33a6 6 0 0 1 -6 6h-116a6 6 0 0 1 -6-6z" fill="none"/><g transform="translate(-459.178878 3269.794659)"><use transform="scale(.00888889)" xlink:href="#w"/><use transform="matrix(.00888889 0 0 .00888889 10.311111 0)" xlink:href="#x"/><use transform="matrix(.00888889 0 0 .00888889 20.622222 0)" xlink:href="#x"/><use transform="matrix(.00888889 0 0 .00888889 30.933333 0)" xlink:href="#l"/><use transform="matrix(.00888889 0 0 .00888889 35.128889 0)" xlink:href="#y"/><use transform="matrix(.00888889 0 0 .00888889 45.44 0)" xlink:href="#z"/><use transform="matrix(.00888889 0 0 .00888889 55.751111 0)" xlink:href="#l"/><use transform="matrix(.00888889 0 0 .00888889 59.946667 0)" xlink:href="#x"/><use transform="matrix(.00888889 0 0 .00888889 70.257778 0)" xlink:href="#l"/><path d="m86-1041c45-269 211-432 516-432 221 0 368 97 436 253 40 91 43 220 10 318-51 154-158 259-262 365l-285 292c130-48 308-33 481-35 63-1 108 39 108 100v180h-1024c-2-94 2-169 54-222l420-423c101-110 202-200 212-395 7-138-99-209-232-170-58 17-99 60-118 117-22 66-66 96-152 81" fill="#f50057" transform="matrix(.00888889 0 0 .00888889 74.453333 0)"/></g><g stroke="#f50057"><path d="m-552 3264.9h23.06m23.07 0h23.07" fill="none" stroke-width="4"/><path d="m-567 3264.9 13-7.5v15z" fill="#f50057" stroke-width="4"/><path d="m-480.8 3266.9h-2.05v-3.96h2.05z" fill="#f50057" stroke-width=".05"/><path d="m-350.8 3264.9h28.83m28.84 0h28.82" fill="none" stroke-width="4"/><path d="m-350.75 3266.9h-2.05v-3.96h2.06z" fill="#f50057" stroke-width=".05"/><path d="m-264.36 3264.9h2.06" fill="none" stroke-width="4"/></g><path d="m139.8 3208a8 8 0 0 1 8-8h604.2a8 8 0 0 1 8 8v364a8 8 0 0 1 -8 8h-604.2a8 8 0 0 1 -8-8z" fill="#fff" stroke="#512fc9" stroke-width="2"/><path d="m139.8 3205.8h298.9v20.28h-298.9z" fill="none"/><path d="m-100.2 3208a8 8 0 0 1 8-8h204.2a8 8 0 0 1 8 8v364a8 8 0 0 1 -8 8h-204.2a8 8 0 0 1 -8-8z" fill="#fff" stroke="#512fc9" stroke-width="2"/><path d="m-132.74 3235.9a3 3 0 0 1 3-3h292.5a3 3 0 0 1 3 3v77.77a3 3 0 0 1 -3 3h-292.5a3 3 0 0 1 -3-3z" fill="#512fc9" fill-opacity=".07"/><path d="m-130.3 3274.88h18.4m18.4 0h36.82m18.4 0h36.8m18.42 0h36.8m18.42 0h36.8m18.4 0h18.42m-276.03 0h-2.06" fill="none" stroke="#00bfa5" stroke-width="4"/><path d="m160.77 3274.88-13 7.5v-15z" fill="#00bfa5" stroke="#00bfa5" stroke-width="4"/><path d="m50 3274.8c0 22.08-17.9 40-40 40s-40-17.92-40-40c0-22.1 17.9-40 40-40s40 17.9 40 40z" fill="#fff" filter="url(#A)" stroke="#00bfa5" stroke-width="4"/><path d="m29.8 3257.17h-39.6c-.85 0-1.4.55-1.4 1.4v5.66c0 .84.55 1.43 1.4 1.43h39.6c.85 0 1.4-.6 1.4-1.43v-5.66c0-.85-.55-1.4-1.4-1.4zm-8.48 5.66c-.85 0-1.44-.6-1.44-1.43 0-.85.6-1.4 1.44-1.4.85 0 1.4.55 1.4 1.4 0 .84-.55 1.43-1.4 1.43zm7.04 0h-2.8c-.85 0-1.44-.6-1.44-1.43 0-.85.6-1.4 1.44-1.4h2.8c.85 0 1.44.55 1.44 1.4 0 .84-.6 1.43-1.44 1.43zm1.44 8.49h-39.6c-.85 0-1.4.55-1.4 1.4v5.65c0 .85.55 1.4 1.4 1.4h18.4v5.95c-1.27.4-2.12 1.4-2.54 2.54h-11.62c-.85 0-1.4.6-1.4 1.43 0 .84.55 1.4 1.4 1.4h11.62c.55 1.68 2.12 2.82 3.94 2.82s3.4-1.14 3.94-2.83h11.62c.85 0 1.4-.56 1.4-1.4 0-.85-.55-1.44-1.4-1.44h-11.62c-.42-1.25-1.4-2.13-2.54-2.54v-5.93h18.4c.85 0 1.4-.55 1.4-1.4v-5.66c0-.83-.55-1.38-1.4-1.38zm-33.92 5.62c-.85 0-1.44-.55-1.44-1.4 0-.84.6-1.4 1.44-1.4.85 0 1.4.56 1.4 1.4 0 .85-.55 1.4-1.4 1.4zm4.24 0c-.85 0-1.44-.55-1.44-1.4 0-.84.6-1.4 1.44-1.4.85 0 1.4.56 1.4 1.4 0 .85-.55 1.4-1.4 1.4zm4.24 0c-.85 0-1.44-.55-1.44-1.4 0-.84.6-1.4 1.44-1.4.85 0 1.4.56 1.4 1.4 0 .85-.55 1.4-1.4 1.4zm2.8-1.4c0-.84.6-1.4 1.44-1.4.85 0 1.4.56 1.4 1.4 0 .85-.55 1.4-1.4 1.4s-1.44-.55-1.44-1.4zm14.16 1.4c-.85 0-1.44-.55-1.44-1.4 0-.84.6-1.4 1.44-1.4.85 0 1.4.56 1.4 1.4 0 .85-.55 1.4-1.4 1.4zm7.04 0h-2.8c-.85 0-1.44-.55-1.44-1.4 0-.84.6-1.4 1.44-1.4h2.8c.85 0 1.44.56 1.44 1.4 0 .85-.6 1.4-1.44 1.4z" fill="#00bfa5"/><path d="m-30 3329.92a6 6 0 0 1 6-6h68a6 6 0 0 1 6 6v12a6 6 0 0 1 -6 6h-68a6 6 0 0 1 -6-6z" fill="none"/><g transform="translate(-19.991111 3342.796756)"><use transform="scale(.00888889)" xlink:href="#B"/><use transform="matrix(.00888889 0 0 .00888889 11.111111 0)" xlink:href="#C"/><use transform="matrix(.00888889 0 0 .00888889 22.328889 0)" xlink:href="#D"/><use transform="matrix(.00888889 0 0 .00888889 36.275556 0)" xlink:href="#E"/><use transform="matrix(.00888889 0 0 .00888889 48.346667 0)" xlink:href="#F"/></g><path d="m-60 3217.84a6 6 0 0 1 6-6h128a6 6 0 0 1 6 6v12a6 6 0 0 1 -6 6h-128a6 6 0 0 1 -6-6z" fill="none"/><g transform="translate(-41.395556 3229.862902)"><use transform="scale(.00777778)" xlink:href="#G"/><use transform="matrix(.00777778 0 0 .00777778 13.097778 0)" xlink:href="#b"/><use transform="matrix(.00777778 0 0 .00777778 22.353333 0)" xlink:href="#e"/><use transform="matrix(.00777778 0 0 .00777778 30.395556 0)" xlink:href="#H"/></g><g transform="translate(.347778 3229.862902)"><use transform="scale(.00777778)" xlink:href="#b"/><use transform="matrix(.00777778 0 0 .00777778 9.255556 0)" xlink:href="#I"/><use transform="matrix(.00777778 0 0 .00777778 20.58 0)" xlink:href="#g"/><use transform="matrix(.00777778 0 0 .00777778 32.34 0)" xlink:href="#g"/><use transform="matrix(.00777778 0 0 .00777778 44.1 0)" xlink:href="#f"/><use transform="matrix(.00777778 0 0 .00777778 53.005556 0)" xlink:href="#e"/></g><path d="m-558.9 3607a6 6 0 0 1 6-6h38.6a6 6 0 0 1 6 6v19.5a6 6 0 0 1 -6 6h-38.6a6 6 0 0 1 -6-6z" fill="none"/><g transform="translate(-553.89681 3623.546667)"><path d="m1165-1446v221h-435v1225h-269v-1225h-437v-221z" fill="#00bfa5" transform="scale(.00888889)"/><path d="m1284-209c-114 140-276 228-525 225-347-4-553-182-649-442-66-178-66-423 6-596 108-261 330-435 688-440 220-3 375 79 488 188l-90 125c-16 32-68 39-102 12-71-55-162-101-298-96-304 11-465 201-465 510 0 241 101 401 267 477 125 58 330 39 424-24 42-17 97-111 150-54" fill="#00bfa5" transform="matrix(.00888889 0 0 .00888889 9.884444 0)"/><use transform="matrix(.00888889 0 0 .00888889 21.804444 0)" xlink:href="#B"/></g><path d="m-480.8 3308.37a6 6 0 0 1 6-6h116a6 6 0 0 1 6 6v19.34a6 6 0 0 1 -6 6h-116a6 6 0 0 1 -6-6z" fill="none"/><g transform="translate(-459.178878 3324.919646)"><use transform="scale(.00888889)" xlink:href="#J"/><use transform="matrix(.00888889 0 0 .00888889 10.311111 0)" xlink:href="#K"/><use transform="matrix(.00888889 0 0 .00888889 20.622222 0)" xlink:href="#K"/><use transform="matrix(.00888889 0 0 .00888889 30.933333 0)" xlink:href="#L"/><path d="m532-896c89-35 216-36 312-1 162 59 274 190 274 411 0 240-136 387-313 462-125 53-311 53-436 2-184-74-303-232-303-484 0-186 74-313 166-437l328-443c29-40 94-71 166-71h276c-157 187-313 374-470 561zm46 197c-139 0-214 93-214 235 0 148 69 235 218 235 140 0 226-93 226-234 0-150-82-236-230-236" fill="#00bfa5" transform="matrix(.00888889 0 0 .00888889 35.128889 0)"/><path d="m1126-566c-12 87 37 230-60 231h-90v335h-270v-335h-586c-39 1-76-30-82-63l-32-153 674-906h296v891zm-420 0c3-181-8-372 10-539l-385 539z" fill="#00bfa5" transform="matrix(.00888889 0 0 .00888889 45.44 0)"/><use transform="matrix(.00888889 0 0 .00888889 55.751111 0)" xlink:href="#L"/><use transform="matrix(.00888889 0 0 .00888889 59.946667 0)" xlink:href="#K"/><use transform="matrix(.00888889 0 0 .00888889 70.257778 0)" xlink:href="#L"/><path d="m86-1041c45-269 211-432 516-432 221 0 368 97 436 253 40 91 43 220 10 318-51 154-158 259-262 365l-285 292c130-48 308-33 481-35 63-1 108 39 108 100v180h-1024c-2-94 2-169 54-222l420-423c101-110 202-200 212-395 7-138-99-209-232-170-58 17-99 60-118 117-22 66-66 96-152 81" fill="#00bfa5" transform="matrix(.00888889 0 0 .00888889 74.453333 0)"/></g><path d="m-570 3320.04h14.53m14.54 0h29.06m14.54 0h14.53m-87.15 0h-2.05" fill="none" stroke="#00bfa5" stroke-width="4"/><path d="m-480.8 3322h-2.05v-3.93h2.05z" fill="#00bfa5" stroke="#00bfa5" stroke-width=".05"/><path d="m-350.8 3320.04h22.45m22.44 0h22.43" fill="none" stroke="#00bfa5" stroke-width="4"/><path d="m-350.75 3322h-2.05v-3.93h2.06z" fill="#00bfa5" stroke="#00bfa5" stroke-width=".05"/><path d="m-268.48 3320.04-13 7.5v-15z" fill="#00bfa5" stroke="#00bfa5" stroke-width="4"/><path d="m593.54 3406a6 6 0 0 1 6-6h116a6 6 0 0 1 6 6v116a6 6 0 0 1 -6 6h-116a6 6 0 0 1 -6-6z" fill="#fff" filter="url(#a)" stroke="#512fc9" stroke-opacity=".2" stroke-width="2"/><path d="m593.54 3546a6 6 0 0 1 6-6h116a6 6 0 0 1 6 6v12a6 6 0 0 1 -6 6h-116a6 6 0 0 1 -6-6z" fill="none"/><g transform="translate(574.560706 3558.88)"><use transform="scale(.00888889)" xlink:href="#M"/><use transform="matrix(.00888889 0 0 .00888889 9.306667 0)" xlink:href="#N"/><use transform="matrix(.00888889 0 0 .00888889 19.36 0)" xlink:href="#O"/><use transform="matrix(.00888889 0 0 .00888889 24.177778 0)" xlink:href="#P"/><path d="m928-153c-89 104-216 168-404 168-227 0-358-131-424-305-47-123-49-306-4-434 67-190 213-318 465-318 165 0 270 58 357 143-29 37-52 81-86 112-71 26-104-41-170-55-24-5-52-12-86-12-192 5-260 143-260 339 0 194 67 336 254 342 98 3 148-38 200-79 26-20 67-17 87 9" fill="#697986" transform="matrix(.00888889 0 0 .00888889 28.177778 0)"/><path d="m361-1005c121-49 297-49 417 0 184 74 298 236 298 490 0 330-178 530-506 530-329 0-509-200-509-530 0-254 115-416 300-490zm-45 492c0 201 65 338 254 338 188 0 251-137 251-338s-63-340-251-340c-189 0-254 139-254 340" fill="#697986" transform="matrix(.00888889 0 0 .00888889 36.657778 0)"/><use transform="matrix(.00888889 0 0 .00888889 46.764444 0)" xlink:href="#G"/><use transform="matrix(.00888889 0 0 .00888889 61.733333 0)" xlink:href="#N"/><use transform="matrix(.00888889 0 0 .00888889 71.786667 0)" xlink:href="#M"/><use transform="matrix(.00888889 0 0 .00888889 81.093333 0)" xlink:href="#Q"/><path d="m496 282c-21 85-170 43-266 53l192-411-415-950h216c39-1 60 21 70 46 80 195 164 386 238 586 7 18 10 37 14 56 74-221 164-427 244-642 9-24 36-46 68-46h198" fill="#697986" transform="matrix(.00888889 0 0 .00888889 90.88 0)"/><use transform="matrix(.00888889 0 0 .00888889 99.155556 0)" xlink:href="#P"/><use transform="matrix(.00888889 0 0 .00888889 103.155556 0)" xlink:href="#O"/><use transform="matrix(.00888889 0 0 .00888889 107.973333 0)" xlink:href="#Q"/><g fill="#697986"><path d="m738-75c-64 55-158 90-269 91-176 2-277-109-277-284v-573c-65-4-153 21-153-52v-98l165-27 52-280c10-66 115-35 183-42v323h270v176h-270v556c-1 59 32 101 88 102 48 1 68-25 104-34 19 1 25 9 33 22" transform="matrix(.00888889 0 0 .00888889 118.08 0)"/><path d="m991-153c-92 106-231 168-423 168-331 0-505-212-505-550 0-237 116-392 287-467 61-27 129-40 206-40 287 0 444 174 444 465 0 54-3 95-57 95h-634c4 226 158 349 385 292 52-13 93-39 132-62 32-19 73-16 93 9zm-213-478c-4-143-73-234-217-234-154 0-226 95-247 234z" transform="matrix(.00888889 0 0 .00888889 124.96 0)"/><path d="m604-806c-122 5-180 74-225 167v639h-247v-1026c83 11 206-35 218 62l15 124c63-106 147-205 295-205 51 0 93 12 126 35l-32 185c-4 23-15 33-40 33-33 0-65-16-110-14" transform="matrix(.00888889 0 0 .00888889 134.462222 0)"/></g><use transform="matrix(.00888889 0 0 .00888889 141.724444 0)" xlink:href="#Q"/><use transform="matrix(.00888889 0 0 .00888889 151.831111 0)" xlink:href="#M"/><path d="m395-1486v1486h-247v-1486z" fill="#697986" transform="matrix(.00888889 0 0 .00888889 161.137778 0)"/></g><path d="m629.64 3449.6h55.6c1.44 0 2.5-1.43 1.87-2.9l-6.44-14.46c-.18-.8-1-1.24-1.6-1.24h-43.07c-.62 0-1.42.43-1.86 1.24l-6.38 14.45c-.62 1.47.43 2.9 1.86 2.9zm56.86 2.05h-57.92c-1.24 0-2.04.86-2.04 2.1v8.25c0 1.24.8 2.05 2.04 2.05h57.9c1.25 0 2.06-.8 2.06-2.05v-8.25c0-1.24-.8-2.1-2.05-2.1zm-12.4 8.3c-1.25 0-2.12-.86-2.12-2.1s.87-2.05 2.1-2.05c1.25 0 2.06.8 2.06 2.05 0 1.24-.8 2.1-2.05 2.1zm10.28 0h-4.1c-1.23 0-2.1-.86-2.1-2.1s.87-2.05 2.1-2.05h4.1c1.24 0 2.1.8 2.1 2.05 0 1.24-.86 2.1-2.1 2.1zm2.12 20.65h-57.92c-1.24 0-2.04.8-2.04 2.05v8.3c0 1.24.8 2.05 2.04 2.05h57.9c1.25 0 2.06-.8 2.06-2.05v-8.3c0-1.24-.8-2.05-2.05-2.05zm-12.4 8.25c-1.25 0-2.12-.8-2.12-2.05 0-1.24.87-2.05 2.1-2.05 1.25 0 2.06.8 2.06 2.05 0 1.24-.8 2.05-2.05 2.05zm10.28 0h-4.1c-1.23 0-2.1-.8-2.1-2.05 0-1.24.87-2.05 2.1-2.05h4.1c1.24 0 2.1.8 2.1 2.05 0 1.24-.86 2.05-2.1 2.05zm2.12-22.7h-57.92c-1.24 0-2.04.8-2.04 2.05v8.25c0 1.24.8 2.1 2.04 2.1h57.9c1.25 0 2.06-.86 2.06-2.1v-8.25c0-1.24-.8-2.05-2.05-2.05zm-49.6 8.25c-1.25 0-2.12-.8-2.12-2.05 0-1.24.87-2.1 2.1-2.1 1.25 0 2.06.86 2.06 2.1s-.8 2.05-2.05 2.05zm6.2 0c-1.25 0-2.12-.8-2.12-2.05 0-1.24.87-2.1 2.1-2.1 1.25 0 2.06.86 2.06 2.1s-.8 2.05-2.05 2.05zm6.2 0c-1.25 0-2.12-.8-2.12-2.05 0-1.24.87-2.1 2.1-2.1 1.25 0 2.06.86 2.06 2.1s-.8 2.05-2.05 2.05zm6.2 0c-1.25 0-2.12-.8-2.12-2.05 0-1.24.87-2.1 2.1-2.1 1.25 0 2.06.86 2.06 2.1s-.8 2.05-2.05 2.05zm18.6 0c-1.25 0-2.12-.8-2.12-2.05 0-1.24.87-2.1 2.1-2.1 1.25 0 2.06.86 2.06 2.1s-.8 2.05-2.05 2.05zm10.28 0h-4.1c-1.23 0-2.1-.8-2.1-2.05 0-1.24.87-2.1 2.1-2.1h4.1c1.24 0 2.1.86 2.1 2.1s-.86 2.05-2.1 2.05z" fill="#512fc9"/><path d="m593.54 3224.3a6 6 0 0 1 6-6h116a6 6 0 0 1 6 6v116a6 6 0 0 1 -6 6h-116a6 6 0 0 1 -6-6z" fill="#fff" filter="url(#a)" stroke="#512fc9" stroke-opacity=".2" stroke-width="2"/><path d="m593.54 3364.3a6 6 0 0 1 6-6h116a6 6 0 0 1 6 6v12a6 6 0 0 1 -6 6h-116a6 6 0 0 1 -6-6z" fill="none"/><g transform="translate(604.787373 3377.168123)"><use transform="scale(.00888889)" xlink:href="#R"/><use transform="matrix(.00888889 0 0 .00888889 13.288889 0)" xlink:href="#g"/><use transform="matrix(.00888889 0 0 .00888889 26.728889 0)" xlink:href="#H"/></g><g transform="translate(644.485151 3377.168123)"><use transform="scale(.00888889)" xlink:href="#H"/><use transform="matrix(.00888889 0 0 .00888889 9.537778 0)" xlink:href="#f"/><use transform="matrix(.00888889 0 0 .00888889 19.715556 0)" xlink:href="#S"/><path d="m4-1446h217c48-1 77 26 90 61 125 326 256 646 373 977 12 34 20 70 29 108 15-77 34-144 57-203l339-882c12-30 45-61 89-61h217l-584 1446h-243" fill="#697986" transform="matrix(.00888889 0 0 .00888889 31.36 0)"/><use transform="matrix(.00888889 0 0 .00888889 43.982222 0)" xlink:href="#f"/><use transform="matrix(.00888889 0 0 .00888889 54.16 0)" xlink:href="#S"/></g><path d="m629.64 3267.9h55.6c1.44 0 2.5-1.44 1.87-2.93l-6.44-14.44c-.18-.8-1-1.24-1.6-1.24h-43.07c-.62 0-1.42.42-1.86 1.23l-6.38 14.44c-.62 1.5.43 2.92 1.86 2.92zm56.86 2.03h-57.92c-1.24 0-2.04.87-2.04 2.1v8.26c0 1.23.8 2.03 2.04 2.03h57.9c1.25 0 2.06-.8 2.06-2.04v-8.26c0-1.24-.8-2.1-2.05-2.1zm-12.4 8.3c-1.25 0-2.12-.86-2.12-2.1s.87-2.04 2.1-2.04c1.25 0 2.06.8 2.06 2.03 0 1.24-.8 2.1-2.05 2.1zm10.28 0h-4.1c-1.23 0-2.1-.86-2.1-2.1s.87-2.04 2.1-2.04h4.1c1.24 0 2.1.8 2.1 2.03 0 1.24-.86 2.1-2.1 2.1zm2.12 20.67h-57.92c-1.24 0-2.04.8-2.04 2.03v8.3c0 1.25.8 2.06 2.04 2.06h57.9c1.25 0 2.06-.82 2.06-2.06v-8.3c0-1.25-.8-2.05-2.05-2.05zm-12.4 8.23c-1.25 0-2.12-.8-2.12-2.04 0-1.25.87-2.06 2.1-2.06 1.25 0 2.06.8 2.06 2.05 0 1.23-.8 2.03-2.05 2.03zm10.28 0h-4.1c-1.23 0-2.1-.8-2.1-2.04 0-1.25.87-2.06 2.1-2.06h4.1c1.24 0 2.1.8 2.1 2.05 0 1.23-.86 2.03-2.1 2.03zm2.12-22.69h-57.92c-1.24 0-2.04.8-2.04 2.05v8.23c0 1.24.8 2.1 2.04 2.1h57.9c1.25 0 2.06-.86 2.06-2.1v-8.24c0-1.25-.8-2.06-2.05-2.06zm-49.6 8.25c-1.25 0-2.12-.82-2.12-2.06s.87-2.1 2.1-2.1c1.25 0 2.06.86 2.06 2.1s-.8 2.05-2.05 2.05zm6.2 0c-1.25 0-2.12-.82-2.12-2.06s.87-2.1 2.1-2.1c1.25 0 2.06.86 2.06 2.1s-.8 2.05-2.05 2.05zm6.2 0c-1.25 0-2.12-.82-2.12-2.06s.87-2.1 2.1-2.1c1.25 0 2.06.86 2.06 2.1s-.8 2.05-2.05 2.05zm6.2 0c-1.25 0-2.12-.82-2.12-2.06s.87-2.1 2.1-2.1c1.25 0 2.06.86 2.06 2.1s-.8 2.05-2.05 2.05zm18.6 0c-1.25 0-2.12-.82-2.12-2.06s.87-2.1 2.1-2.1c1.25 0 2.06.86 2.06 2.1s-.8 2.05-2.05 2.05zm10.28 0h-4.1c-1.23 0-2.1-.82-2.1-2.06s.87-2.1 2.1-2.1h4.1c1.24 0 2.1.86 2.1 2.1s-.86 2.05-2.1 2.05z" fill="#512fc9"/><path d="m345.5 3238.9a6 6 0 0 1 6-6h176.04a6 6 0 0 1 6 6v19.34a6 6 0 0 1 -6 6h-176.04a6 6 0 0 1 -6-6z" fill="none"/><g transform="translate(350.856262 3255.458786)"><use transform="scale(.00888889)" xlink:href="#i"/><use transform="matrix(.00888889 0 0 .00888889 9.582222 0)" xlink:href="#j"/><use transform="matrix(.00888889 0 0 .00888889 19.857778 0)" xlink:href="#k"/><use transform="matrix(.00888889 0 0 .00888889 24.924444 0)" xlink:href="#l"/><use transform="matrix(.00888889 0 0 .00888889 29.12 0)" xlink:href="#m"/><use transform="matrix(.00888889 0 0 .00888889 37.76 0)" xlink:href="#n"/><use transform="matrix(.00888889 0 0 .00888889 48.071111 0)" xlink:href="#o"/><use transform="matrix(.00888889 0 0 .00888889 63.377778 0)" xlink:href="#j"/><use transform="matrix(.00888889 0 0 .00888889 73.653333 0)" xlink:href="#i"/><use transform="matrix(.00888889 0 0 .00888889 83.235556 0)" xlink:href="#p"/><use transform="matrix(.00888889 0 0 .00888889 93.191111 0)" xlink:href="#q"/><use transform="matrix(.00888889 0 0 .00888889 101.777778 0)" xlink:href="#l"/><use transform="matrix(.00888889 0 0 .00888889 105.973333 0)" xlink:href="#k"/><use transform="matrix(.00888889 0 0 .00888889 111.04 0)" xlink:href="#p"/><use transform="matrix(.00888889 0 0 .00888889 121.351111 0)" xlink:href="#r"/><use transform="matrix(.00888889 0 0 .00888889 128.462222 0)" xlink:href="#s"/><use transform="matrix(.00888889 0 0 .00888889 138.133333 0)" xlink:href="#t"/><use transform="matrix(.00888889 0 0 .00888889 145.475556 0)" xlink:href="#p"/><use transform="matrix(.00888889 0 0 .00888889 155.786667 0)" xlink:href="#i"/><use transform="matrix(.00888889 0 0 .00888889 165.368889 0)" xlink:href="#u"/><use transform="matrix(.00888889 0 0 .00888889 170.435556 0)" xlink:href="#v"/></g><path d="m296.77 3250.58h15.57m15.58 0h15.57" fill="none" stroke="#f50057" stroke-width="4"/><path d="m296.82 3252.55h-2.05v-3.95h2.05zm48.68 0h-2.06v-3.95h2.05z" fill="#f50057" stroke="#f50057" stroke-width=".05"/><path d="m535.54 3250.58h38" fill="none" stroke="#f50057" stroke-width="4"/><path d="m535.6 3252.55h-2.06v-3.95h2.05z" fill="#f50057" stroke="#f50057" stroke-width=".05"/><path d="m588.54 3250.58-13 7.5v-15z" fill="#f50057" stroke="#f50057" stroke-width="4"/><path d="m380 3271.18a6 6 0 0 1 6-6h68a6 6 0 0 1 6 6v17.67a6 6 0 0 1 -6 6h-68a6 6 0 0 1 -6-6z" fill="none"/><g transform="translate(387.928889 3287.729223)"><use transform="scale(.00888889)" xlink:href="#w"/><use transform="matrix(.00888889 0 0 .00888889 10.311111 0)" xlink:href="#x"/><use transform="matrix(.00888889 0 0 .00888889 20.622222 0)" xlink:href="#l"/><use transform="matrix(.00888889 0 0 .00888889 24.817778 0)" xlink:href="#x"/><use transform="matrix(.00888889 0 0 .00888889 35.128889 0)" xlink:href="#l"/><use transform="matrix(.00888889 0 0 .00888889 39.324444 0)" xlink:href="#w"/><use transform="matrix(.00888889 0 0 .00888889 49.635556 0)" xlink:href="#l"/><use transform="matrix(.00888889 0 0 .00888889 53.831111 0)" xlink:href="#w"/></g><path d="m313.76 3281.9h21.4m21.43 0h21.41" fill="none" stroke="#f50057" stroke-width="4"/><path d="m298.77 3281.9 13-7.5v15z" fill="#f50057" stroke="#f50057" stroke-width="4"/><path d="m380 3283.9h-2.05v-3.96h2.05z" fill="#f50057" stroke="#f50057" stroke-width=".05"/><path d="m462 3281.9h21.42m21.43 0h42.84m21.4 0h21.44" fill="none" stroke="#f50057" stroke-width="4"/><path d="m462.05 3283.9h-2.05v-3.96h2.05zm130.49 0h-2.05v-3.96h2.04z" fill="#f50057" stroke="#f50057" stroke-width=".05"/><path d="m380 3310.78a6 6 0 0 1 6-6h68a6 6 0 0 1 6 6v17.67a6 6 0 0 1 -6 6h-68a6 6 0 0 1 -6-6z" fill="none"/><g transform="translate(387.928889 3327.329448)"><use transform="scale(.00888889)" xlink:href="#J"/><use transform="matrix(.00888889 0 0 .00888889 10.311111 0)" xlink:href="#K"/><use transform="matrix(.00888889 0 0 .00888889 20.622222 0)" xlink:href="#L"/><use transform="matrix(.00888889 0 0 .00888889 24.817778 0)" xlink:href="#K"/><use transform="matrix(.00888889 0 0 .00888889 35.128889 0)" xlink:href="#L"/><use transform="matrix(.00888889 0 0 .00888889 39.324444 0)" xlink:href="#J"/><use transform="matrix(.00888889 0 0 .00888889 49.635556 0)" xlink:href="#L"/><use transform="matrix(.00888889 0 0 .00888889 53.831111 0)" xlink:href="#J"/></g><path d="m296.77 3319.62h27.08m27.07 0h27.08" fill="none" stroke="#00bfa5" stroke-width="4"/><path d="m296.82 3321.6h-2.05v-3.96h2.05zm83.18 0h-2.05v-3.96h2.05z" fill="#00bfa5" stroke="#00bfa5" stroke-width=".05"/><path d="m462 3319.62h19.42m19.43 0h19.42a6 6 0 0 1 6 6v22.06m0 22.07v44.12m0 22.07v22.06a6 6 0 0 0 6 6h13.76m13.76 0h13.75" fill="none" stroke="#00bfa5" stroke-width="4"/><path d="m462.05 3321.6h-2.05v-3.96h2.05z" fill="#00bfa5" stroke="#00bfa5" stroke-width=".05"/><path d="m588.54 3464-13 7.5v-15z" fill="#00bfa5" stroke="#00bfa5" stroke-width="4"/><path d="m-100.66 3174.36h220.2v25.64h-220.2z" fill="none"/><g transform="translate(-64.000199 3195.877613)"><use transform="scale(.00837)" xlink:href="#T"/><use transform="matrix(.00837 0 0 .00837 10.4625 0)" xlink:href="#U"/><path d="m1177-1061c0 181-116 262-257 314 199 45 298 152 298 322 0 295-221 425-526 425h-546v-1446h499c307 3 532 89 532 385zm-225 630c0-152-108-202-265-203h-272v424h273c163-1 264-65 264-221zm-43-598c0-163-94-209-264-209h-230v418h215c168-1 279-50 279-209" fill="#512fc9" transform="matrix(.00837 0 0 .00837 22.64922 0)"/><use transform="matrix(.00837 0 0 .00837 33.55533 0)" xlink:href="#V"/><use transform="matrix(.00837 0 0 .00837 42.20991 0)" xlink:href="#W"/><path d="m1284-209c-114 140-276 228-525 225-347-4-553-182-649-442-66-178-66-423 6-596 108-261 330-435 688-440 220-3 375 79 488 188l-90 125c-16 32-68 39-102 12-71-55-162-101-298-96-304 11-465 201-465 510 0 241 101 401 267 477 125 58 330 39 424-24 42-17 97-111 150-54" fill="#512fc9" transform="matrix(.00837 0 0 .00837 47.46627 0)"/></g><g transform="translate(-2.078939 3195.877613)"><use transform="scale(.00837)" xlink:href="#X"/><use transform="matrix(.00837 0 0 .00837 12.65544 0)" xlink:href="#Y"/><use transform="matrix(.00837 0 0 .00837 22.23909 0)" xlink:href="#Z"/><use transform="matrix(.00837 0 0 .00837 32.19939 0)" xlink:href="#aa"/><use transform="matrix(.00837 0 0 .00837 49.7178 0)" xlink:href="#ab"/><use transform="matrix(.00837 0 0 .00837 63.10143 0)" xlink:href="#ac"/><use transform="matrix(.00837 0 0 .00837 74.06613 0)" xlink:href="#ad"/></g><path d="m165.77 3227.58a6 6 0 0 1 6-6h116a6 6 0 0 1 6 6v116a6 6 0 0 1 -6 6h-116a6 6 0 0 1 -6-6z" fill="#fff" filter="url(#a)" stroke="#512fc9" stroke-opacity=".2" stroke-width="2"/><path d="m165.77 3367.58a6 6 0 0 1 6-6h116a6 6 0 0 1 6 6v12a6 6 0 0 1 -6 6h-116a6 6 0 0 1 -6-6z" fill="none"/><g transform="translate(181.022575 3380.458786)"><use transform="scale(.00888889)" xlink:href="#ae"/><use transform="matrix(.00888889 0 0 .00888889 12.622222 0)" xlink:href="#d"/><use transform="matrix(.00888889 0 0 .00888889 23.733333 0)" xlink:href="#d"/></g><g transform="translate(219.298131 3380.458786)"><use transform="scale(.00888889)" xlink:href="#ae"/><path d="m1341-140c-137 102-313 160-552 156-350-5-566-186-673-442-73-175-71-420-1-596 107-266 333-435 699-440 235-2 404 78 526 189l-78 122c-45 78-131 10-176-17-110-67-334-90-474-29-171 74-275 233-275 474 0 251 105 414 283 489 144 62 360 37 477-26v-263h-181c-88 2-46-125-56-202h481z" fill="#697986" transform="matrix(.00888889 0 0 .00888889 12.168889 0)"/><use transform="matrix(.00888889 0 0 .00888889 25.022222 0)" xlink:href="#f"/><use transform="matrix(.00888889 0 0 .00888889 35.2 0)" xlink:href="#g"/><use transform="matrix(.00888889 0 0 .00888889 48.64 0)" xlink:href="#b"/></g><path d="m249.57 3267.2h-39.6c-.85 0-1.4.56-1.4 1.4v5.66c0 .85.55 1.43 1.4 1.43h39.6c.85 0 1.4-.6 1.4-1.44v-5.66c0-.84-.55-1.4-1.4-1.4zm-8.48 5.66c-.86 0-1.45-.58-1.45-1.43 0-.84.6-1.4 1.44-1.4s1.4.56 1.4 1.4c0 .85-.56 1.43-1.4 1.43zm7.03 0h-2.8c-.85 0-1.44-.58-1.44-1.43 0-.84.58-1.4 1.43-1.4h2.8c.85 0 1.44.56 1.44 1.4 0 .85-.6 1.43-1.44 1.43zm1.45 8.49h-39.6c-.85 0-1.4.55-1.4 1.4v5.66c0 .85.55 1.4 1.4 1.4h18.4v5.95c-1.27.4-2.12 1.4-2.54 2.53h-11.63c-.84 0-1.4.58-1.4 1.43 0 .84.56 1.4 1.4 1.4h11.63c.55 1.68 2.12 2.82 3.94 2.82s3.4-1.14 3.94-2.83h11.63c.85 0 1.4-.55 1.4-1.4 0-.84-.55-1.43-1.4-1.43h-11.64c-.4-1.26-1.4-2.14-2.53-2.54v-5.94h18.4c.85 0 1.4-.55 1.4-1.4v-5.65c0-.85-.55-1.4-1.4-1.4zm-33.92 5.63c-.85 0-1.44-.56-1.44-1.4 0-.85.6-1.4 1.45-1.4s1.4.55 1.4 1.4c0 .84-.55 1.4-1.4 1.4zm4.24 0c-.86 0-1.45-.56-1.45-1.4 0-.85.6-1.4 1.44-1.4s1.4.55 1.4 1.4c0 .84-.56 1.4-1.4 1.4zm4.23 0c-.85 0-1.44-.56-1.44-1.4 0-.85.58-1.4 1.43-1.4s1.4.55 1.4 1.4c0 .84-.55 1.4-1.4 1.4zm2.8-1.4c0-.85.6-1.4 1.44-1.4.85 0 1.4.55 1.4 1.4 0 .84-.55 1.4-1.4 1.4s-1.44-.56-1.44-1.4zm14.16 1.4c-.86 0-1.45-.56-1.45-1.4 0-.85.6-1.4 1.44-1.4s1.4.55 1.4 1.4c0 .84-.56 1.4-1.4 1.4zm7.03 0h-2.8c-.85 0-1.44-.56-1.44-1.4 0-.85.58-1.4 1.43-1.4h2.8c.85 0 1.44.55 1.44 1.4 0 .84-.6 1.4-1.44 1.4z" fill="#00bfa5"/><path d="m-700 3414.65a6 6 0 0 1 6-6h116a6 6 0 0 1 6 6v116a6 6 0 0 1 -6 6h-116a6 6 0 0 1 -6-6z" fill="#fff" filter="url(#a)" stroke="#512fc9" stroke-opacity=".2" stroke-width="2"/><path d="m-700 3554.65a6 6 0 0 1 6-6h116a6 6 0 0 1 6 6v12a6 6 0 0 1 -6 6h-116a6 6 0 0 1 -6-6z" fill="none"/><use transform="translate(-684.417778 3567.526327)" xlink:href="#af"/><use transform="translate(-648.471111 3567.526327)" xlink:href="#h"/><path d="m-608.98 3455c0 8.2-6.7 14.87-14.87 14.87-8.26 0-14.87-6.67-14.87-14.88 0-8.22 6.6-14.9 14.87-14.9 8.18 0 14.87 6.68 14.87 14.9zm-34.72 9.9c0 5.48-4.46 9.93-9.9 9.93-5.5 0-9.95-4.45-9.95-9.92 0-5.46 4.46-9.9 9.96-9.9 5.44 0 9.9 4.44 9.9 9.9zm-29.74 28.74c0-7.64 6.24-13.85 13.9-13.85h11.9c7.65 0 13.82 6.2 13.82 13.84 0 1.93-1.56 3.47-3.42 3.47h-32.7c-1.94 0-3.5-1.53-3.5-3.46z" fill="#512fc9"/><path d="m-643.26 3477.85c6.92 1.88 11.97 8.15 11.97 15.67 0 1.3-.43 2.57-1.18 3.6h28.92c2.46 0 4.46-2 4.46-4.45 0-9.86-7.95-17.84-17.84-17.84h-16.35c-3.7 0-7.13 1.08-9.96 3.02z" fill="#512fc9"/><path d="m-498.97 3604.5a3 3 0 0 1 3-3h26a3 3 0 0 1 3 3v26a3 3 0 0 1 -3 3h-26a3 3 0 0 1 -3-3z" fill="none"/><path d="m-478.63 3601.5h8.66a3 3 0 0 1 3 3v8.67m0 8.66v8.67a3 3 0 0 1 -3 3h-8.66m-8.67 0h-8.67a3 3 0 0 1 -3-3v-8.67m0-8.66v-8.67a3 3 0 0 1 3-3h8.67" fill="none" stroke="#fc9432" stroke-width="2"/><path d="m-700 3604.5a3 3 0 0 1 3-3h26a3 3 0 0 1 3 3v26a3 3 0 0 1 -3 3h-26a3 3 0 0 1 -3-3z" fill="none"/><path d="m-679.67 3601.5h8.67a3 3 0 0 1 3 3v8.67m0 8.66v8.67a3 3 0 0 1 -3 3h-8.67m-8.66 0h-8.67a3 3 0 0 1 -3-3v-8.67m0-8.66v-8.67a3 3 0 0 1 3-3h8.67" fill="none" stroke="#f50057" stroke-width="2"/><path d="m-569 3426.3h19.18m19.18 0h38.36m19.18 0h38.36m19.18 0h38.36m19.18 0h38.36m19.18 0h19.2" fill="none" stroke="#f50057" stroke-width="4"/><path d="m-568.95 3428.3h-2.05v-3.96h2.05z" fill="#f50057" stroke="#f50057" stroke-width=".05"/><path d="m-266.3 3426.3-13 7.5v-15z" fill="#f50057" stroke="#f50057" stroke-width="4"/><path d="m-133.3 3425.5a3 3 0 0 1 3-3h312.84a3 3 0 0 1 3 3v75.88a3 3 0 0 1 -3 3h-312.84a3 3 0 0 1 -3-3z" fill="#512fc9" fill-opacity=".07"/><path d="m-130.3 3463.52h18.4m18.4 0h36.82m18.4 0h36.8m18.42 0h36.8m18.42 0h36.8m18.4 0h18.42m-276.03 0h-2.06" fill="none" stroke="#1071e5" stroke-width="4"/><path d="m160.77 3463.52-13 7.5v-15z" fill="#1071e5" stroke="#1071e5" stroke-width="4"/><path d="m49.44 3463.44c0 22.1-17.9 40-40 40s-40-17.9-40-40 17.9-40 40-40 40 17.9 40 40z" fill="#fff" filter="url(#A)" stroke="#00bfa5" stroke-width="4"/><path d="m29.24 3445.82h-39.6c-.85 0-1.4.55-1.4 1.4v5.65c0 .85.55 1.43 1.4 1.43h39.6c.85 0 1.4-.58 1.4-1.43v-5.66c0-.83-.55-1.38-1.4-1.38zm-8.48 5.66c-.85 0-1.44-.6-1.44-1.44s.6-1.4 1.44-1.4c.85 0 1.4.56 1.4 1.4 0 .85-.55 1.44-1.4 1.44zm7.04 0h-2.8c-.85 0-1.44-.6-1.44-1.44s.6-1.4 1.44-1.4h2.8c.84 0 1.44.56 1.44 1.4 0 .85-.6 1.44-1.44 1.44zm1.44 8.48h-39.6c-.85 0-1.4.56-1.4 1.4v5.66c0 .84.55 1.4 1.4 1.4h18.4v5.95c-1.27.4-2.12 1.4-2.55 2.53h-11.62c-.85 0-1.4.6-1.4 1.44s.55 1.4 1.4 1.4h11.6c.56 1.68 2.13 2.82 3.96 2.82 1.82 0 3.4-1.14 3.94-2.83h11.63c.84 0 1.4-.55 1.4-1.4 0-.84-.55-1.43-1.4-1.43h-11.62c-.42-1.24-1.4-2.13-2.54-2.53v-5.95h18.4c.85 0 1.4-.56 1.4-1.4v-5.66c0-.84-.55-1.4-1.4-1.4zm-33.92 5.63c-.85 0-1.44-.57-1.44-1.4 0-.86.6-1.4 1.44-1.4.85 0 1.4.54 1.4 1.4 0 .84-.55 1.4-1.4 1.4zm4.24 0c-.85 0-1.44-.57-1.44-1.4 0-.86.6-1.4 1.44-1.4.85 0 1.4.54 1.4 1.4 0 .84-.55 1.4-1.4 1.4zm4.24 0c-.85 0-1.44-.57-1.44-1.4 0-.86.6-1.4 1.44-1.4.85 0 1.4.54 1.4 1.4 0 .84-.55 1.4-1.4 1.4zm2.8-1.4c0-.86.6-1.4 1.44-1.4.85 0 1.4.54 1.4 1.4 0 .84-.55 1.4-1.4 1.4s-1.44-.57-1.44-1.4zm14.16 1.4c-.85 0-1.44-.57-1.44-1.4 0-.86.6-1.4 1.44-1.4.85 0 1.4.54 1.4 1.4 0 .84-.55 1.4-1.4 1.4zm7.04 0h-2.8c-.85 0-1.44-.57-1.44-1.4 0-.86.6-1.4 1.44-1.4h2.8c.84 0 1.44.54 1.44 1.4 0 .84-.6 1.4-1.44 1.4z" fill="#00bfa5"/><path d="m-30.56 3518.56a6 6 0 0 1 6-6h68a6 6 0 0 1 6 6v12a6 6 0 0 1 -6 6h-68a6 6 0 0 1 -6-6z" fill="none"/><g transform="translate(-20.554162 3531.443083)"><use transform="scale(.00888889)" xlink:href="#B"/><use transform="matrix(.00888889 0 0 .00888889 11.111111 0)" xlink:href="#C"/><use transform="matrix(.00888889 0 0 .00888889 22.328889 0)" xlink:href="#D"/><use transform="matrix(.00888889 0 0 .00888889 36.275556 0)" xlink:href="#E"/><use transform="matrix(.00888889 0 0 .00888889 48.346667 0)" xlink:href="#F"/></g><path d="m-60.67 3406a6 6 0 0 1 6-6h128a6 6 0 0 1 6 6v12a6 6 0 0 1 -6 6h-128a6 6 0 0 1 -6-6z" fill="none"/><g transform="translate(-42.064264 3418.02)"><use transform="scale(.00777778)" xlink:href="#G"/><use transform="matrix(.00777778 0 0 .00777778 13.097778 0)" xlink:href="#b"/><use transform="matrix(.00777778 0 0 .00777778 22.353333 0)" xlink:href="#e"/><use transform="matrix(.00777778 0 0 .00777778 30.395556 0)" xlink:href="#H"/></g><g transform="translate(-.320931 3418.02)"><use transform="scale(.00777778)" xlink:href="#b"/><use transform="matrix(.00777778 0 0 .00777778 9.255556 0)" xlink:href="#I"/><use transform="matrix(.00777778 0 0 .00777778 20.58 0)" xlink:href="#g"/><use transform="matrix(.00777778 0 0 .00777778 32.34 0)" xlink:href="#g"/><use transform="matrix(.00777778 0 0 .00777778 44.1 0)" xlink:href="#f"/><use transform="matrix(.00777778 0 0 .00777778 53.005556 0)" xlink:href="#e"/></g><path d="m-459.58 3607.5a6 6 0 0 1 6-6h159.03a6 6 0 0 1 6 6v27.87a6 6 0 0 1 -6 6h-159.03a6 6 0 0 1 -6-6z" fill="none"/><g transform="translate(-454.581906 3624.046667)"><use transform="scale(.00888889)" xlink:href="#ag"/><use transform="matrix(.00888889 0 0 .00888889 9.537778 0)" xlink:href="#ag"/><path d="m1366 0h-271v-632h-678v632h-271v-1446h271v622h678v-622h271z" fill="#fc9432" transform="matrix(.00888889 0 0 .00888889 19.075556 0)"/></g><path d="m7-1026h196c35-1 64 19 71 46 60 241 137 465 181 722 68-246 151-481 220-724 17-60 103-44 175-46 35-1 61 20 69 46 70 242 148 477 212 725 47-256 125-482 189-723 21-78 165-35 255-46l-325 1026h-199c-21 0-37-15-46-44-67-218-136-432-201-652-5-20-10-39-13-58-8 41-17 80-29 119l-187 591c-9 29-27 44-54 44h-189" fill="#fc9432" transform="matrix(.00888889 0 0 .00888889 -418.63524 3624.046667)"/><path d="m395-1026v1026h-247v-1026zm-123-457c96 0 160 62 160 158 0 94-65 155-160 155-93 0-156-62-156-155 0-95 61-158 156-158" fill="#fc9432" transform="matrix(.00888889 0 0 .00888889 -404.573018 3624.046667)"/><path d="m738-75c-64 55-158 90-269 91-176 2-277-109-277-284v-573c-65-4-153 21-153-52v-98l165-27 52-280c10-66 115-35 183-42v323h270v176h-270v556c-1 59 32 101 88 102 48 1 68-25 104-34 19 1 25 9 33 22" fill="#fc9432" transform="matrix(.00888889 0 0 .00888889 -399.75524 3624.046667)"/><path d="m605-850c-102 1-168 52-226 108v742h-247v-1486h247v571c76-69 161-129 301-127 234 4 346 154 346 389v653h-247v-653c0-121-55-198-174-197" fill="#fc9432" transform="matrix(.00888889 0 0 .00888889 -392.87524 3624.046667)"/><g transform="translate(-379.337462 3624.046667)"><use transform="scale(.00888889)" xlink:href="#ah"/><g fill="#fc9432"><path d="m361-1005c121-49 297-49 417 0 184 74 298 236 298 490 0 330-178 530-506 530-329 0-509-200-509-530 0-254 115-416 300-490zm-45 492c0 201 65 338 254 338 188 0 251-137 251-338s-63-340-251-340c-189 0-254 139-254 340" transform="matrix(.00888889 0 0 .00888889 4.817778 0)"/><path d="m928-153c-89 104-216 168-404 168-227 0-358-131-424-305-47-123-49-306-4-434 67-190 213-318 465-318 165 0 270 58 357 143-29 37-52 81-86 112-71 26-104-41-170-55-24-5-52-12-86-12-192 5-260 143-260 339 0 194 67 336 254 342 98 3 148-38 200-79 26-20 67-17 87 9" transform="matrix(.00888889 0 0 .00888889 14.924444 0)"/><path d="m556-1045c246 0 380 151 380 397v648c-79-6-181 23-196-53l-22-73c-88 77-177 144-339 142-185-3-298-93-298-278 0-184 152-247 321-292 78-21 176-31 293-34 10-155-29-262-170-262-104 0-161 40-224 77-47 28-107 5-127-31l-45-79c118-108 260-162 427-162zm-239 770c-3 86 56 121 139 121 117 0 179-51 239-111v-173c-122 6-219 17-297 53-49 22-79 51-81 110" transform="matrix(.00888889 0 0 .00888889 23.404444 0)"/></g><use transform="matrix(.00888889 0 0 .00888889 32.711111 0)" xlink:href="#ah"/></g><path d="m382-1486v851c54 1 89-1 115-33l255-315c22-25 41-43 86-43h226c-118 139-232 284-354 420-11 12-25 21-39 30 29 21 48 49 69 78l342 498h-223c-44-1-65-15-85-44l-261-389c-20-29-30-36-75-37h-56v470h-247v-1486z" fill="#fc9432" transform="matrix(.00888889 0 0 .00888889 -338.377462 3624.046667)"/><path d="m991-153c-92 106-231 168-423 168-331 0-505-212-505-550 0-237 116-392 287-467 61-27 129-40 206-40 287 0 444 174 444 465 0 54-3 95-57 95h-634c4 226 158 349 385 292 52-13 93-39 132-62 32-19 73-16 93 9zm-213-478c-4-143-73-234-217-234-154 0-226 95-247 234z" fill="#fc9432" transform="matrix(.00888889 0 0 .00888889 -329.106351 3624.046667)"/><path d="m496 282c-21 85-170 43-266 53l192-411-415-950h216c39-1 60 21 70 46 80 195 164 386 238 586 7 18 10 37 14 56 74-221 164-427 244-642 9-24 36-46 68-46h198" fill="#fc9432" transform="matrix(.00888889 0 0 .00888889 -319.897462 3624.046667)"/><path d="m254-198c95 60 334 64 323-83-9-119-156-122-253-159-132-50-252-110-252-289 0-214 163-309 387-313 145-3 264 55 338 127-26 36-45 82-77 111-69 21-111-33-176-48-103-23-247 0-238 102 11 114 156 118 251 155 126 49 251 100 251 270 0 266-233 373-514 331-102-15-188-60-252-116 28-39 43-95 83-120 49-31 96 11 129 32" fill="#fc9432" transform="matrix(.00888889 0 0 .00888889 -310.413018 3624.046667)"/><path d="m-660.6 3608a6 6 0 0 1 6-6h41.22a6 6 0 0 1 6 6v19a6 6 0 0 1 -6 6h-41.24a6 6 0 0 1 -6-6z" fill="none"/><path d="m1377-1015c71 172 71 412 0 584-106 257-325 431-679 431h-552v-1446h552c353 6 574 175 679 431zm-679 801c307-9 457-198 457-509s-150-500-457-509h-281v1018z" fill="#f50057" transform="matrix(.00888889 0 0 .00888889 -655.615096 3624.546667)"/><path d="m377-1009c4 38 6 82 6 121v888h-237v-1446c71 6 174-24 211 20 269 320 519 661 779 990-5-42-7-87-7-131v-879h237v1446c-64-4-144 10-192-10-14-6-28-19-41-36" fill="#f50057" transform="matrix(.00888889 0 0 .00888889 -642.326207 3624.546667)"/><path d="m519-204c146 0 246-70 241-211-6-175-195-185-333-232-183-63-339-153-333-400 5-199 120-319 272-380 126-51 311-44 437 5 72 27 133 64 184 112l-66 127c-15 40-64 51-105 25-64-41-136-87-246-85-132 3-224 54-224 182 0 167 202 176 334 227 173 67 333 144 333 381 0 227-120 364-289 433-138 56-353 39-478-16-80-35-154-80-210-138l78-129c23-34 74-43 115-13 73 54 157 112 290 112" fill="#f50057" transform="matrix(.00888889 0 0 .00888889 -628.886207 3624.546667)"/><path d="m-241.78 3606a6 6 0 0 1 6-6h255.14a6 6 0 0 1 6 6v20.5a6 6 0 0 1 -6 6h-255.14a6 6 0 0 1 -6-6z" fill="none"/><g transform="translate(-236.77905 3622.546667)"><use transform="scale(.00888889)" xlink:href="#ai"/><use transform="matrix(.00888889 0 0 .00888889 9.537778 0)" xlink:href="#ai"/><path d="m1366 0h-271v-632h-678v632h-271v-1446h271v622h678v-622h271z" fill="#1071e5" transform="matrix(.00888889 0 0 .00888889 19.075556 0)"/></g><g transform="translate(-200.832383 3622.546667)"><path d="m7-1026h196c35-1 64 19 71 46 60 241 137 465 181 722 68-246 151-481 220-724 17-60 103-44 175-46 35-1 61 20 69 46 70 242 148 477 212 725 47-256 125-482 189-723 21-78 165-35 255-46l-325 1026h-199c-21 0-37-15-46-44-67-218-136-432-201-652-5-20-10-39-13-58-8 41-17 80-29 119l-187 591c-9 29-27 44-54 44h-189" fill="#1071e5" transform="scale(.00888889)"/><use transform="matrix(.00888889 0 0 .00888889 14.062222 0)" xlink:href="#aj"/><use transform="matrix(.00888889 0 0 .00888889 18.88 0)" xlink:href="#ak"/><path d="m605-850c-102 1-168 52-226 108v742h-247v-1486h247v571c76-69 161-129 301-127 234 4 346 154 346 389v653h-247v-653c0-121-55-198-174-197" fill="#1071e5" transform="matrix(.00888889 0 0 .00888889 25.76 0)"/></g><g transform="translate(-161.534605 3622.546667)"><path d="m1165-1446v221h-435v1225h-269v-1225h-437v-221z" fill="#1071e5" transform="scale(.00888889)"/><use transform="matrix(.00888889 0 0 .00888889 8.764444 0)" xlink:href="#al"/><path d="m395-1486v1486h-247v-1486z" fill="#1071e5" transform="matrix(.00888889 0 0 .00888889 18.266667 0)"/><use transform="matrix(.00888889 0 0 .00888889 23.084444 0)" xlink:href="#al"/><path d="m635 15c-121 0-193-40-256-100v420h-247v-1361c64 5 145-11 192 11 33 24 28 86 42 129 78-86 174-159 331-159 277 0 379 232 379 524 0 241-96 412-258 495-54 27-116 41-183 41zm186-536c0-181-37-329-209-329-117 0-175 55-233 124v460c48 60 104 93 198 93 188 0 244-152 244-348" fill="#1071e5" transform="matrix(.00888889 0 0 .00888889 32.586667 0)"/><path d="m361-1005c121-49 297-49 417 0 184 74 298 236 298 490 0 330-178 530-506 530-329 0-509-200-509-530 0-254 115-416 300-490zm-45 492c0 201 65 338 254 338 188 0 251-137 251-338s-63-340-251-340c-189 0-254 139-254 340" fill="#1071e5" transform="matrix(.00888889 0 0 .00888889 42.64 0)"/><use transform="matrix(.00888889 0 0 .00888889 52.746667 0)" xlink:href="#am"/><use transform="matrix(.00888889 0 0 .00888889 60.008889 0)" xlink:href="#ak"/></g><g transform="translate(-91.214605 3622.546667)"><use transform="scale(.00888889)" xlink:href="#an"/><use transform="matrix(.00888889 0 0 .00888889 8.48 0)" xlink:href="#al"/><use transform="matrix(.00888889 0 0 .00888889 17.982222 0)" xlink:href="#am"/><use transform="matrix(.00888889 0 0 .00888889 25.244444 0)" xlink:href="#ak"/><use transform="matrix(.00888889 0 0 .00888889 32.124444 0)" xlink:href="#aj"/><path d="m601-1285c-158 0-198 102-186 268h267v176h-259v841h-247v-840c-61-14-153-3-153-76v-101h153c-17-292 113-454 383-454 47 0 91 6 132 19l-5 124c-1 41-44 43-85 43" fill="#1071e5" transform="matrix(.00888889 0 0 .00888889 36.942222 0)"/><use transform="matrix(.00888889 0 0 .00888889 43.173333 0)" xlink:href="#aj"/><use transform="matrix(.00888889 0 0 .00888889 47.991111 0)" xlink:href="#an"/><path d="m556-1045c246 0 380 151 380 397v648c-79-6-181 23-196-53l-22-73c-88 77-177 144-339 142-185-3-298-93-298-278 0-184 152-247 321-292 78-21 176-31 293-34 10-155-29-262-170-262-104 0-161 40-224 77-47 28-107 5-127-31l-45-79c118-108 260-162 427-162zm-239 770c-3 86 56 121 139 121 117 0 179-51 239-111v-173c-122 6-219 17-297 53-49 22-79 51-81 110" fill="#1071e5" transform="matrix(.00888889 0 0 .00888889 56.471111 0)"/><use transform="matrix(.00888889 0 0 .00888889 65.777778 0)" xlink:href="#ak"/><use transform="matrix(.00888889 0 0 .00888889 72.657778 0)" xlink:href="#al"/><path d="m254-198c95 60 334 64 323-83-9-119-156-122-253-159-132-50-252-110-252-289 0-214 163-309 387-313 145-3 264 55 338 127-26 36-45 82-77 111-69 21-111-33-176-48-103-23-247 0-238 102 11 114 156 118 251 155 126 49 251 100 251 270 0 266-233 373-514 331-102-15-188-60-252-116 28-39 43-95 83-120 49-31 96 11 129 32" fill="#1071e5" transform="matrix(.00888889 0 0 .00888889 82.16 0)"/></g><path d="m165.77 3406a6 6 0 0 1 6-6h116a6 6 0 0 1 6 6v116a6 6 0 0 1 -6 6h-116a6 6 0 0 1 -6-6z" fill="#fff" filter="url(#a)" stroke="#512fc9" stroke-opacity=".2" stroke-width="2"/><path d="m165.77 3546a6 6 0 0 1 6-6h116a6 6 0 0 1 6 6v12a6 6 0 0 1 -6 6h-116a6 6 0 0 1 -6-6z" fill="none"/><use transform="translate(186.235909 3558.88)" xlink:href="#af"/><g transform="translate(222.182575 3558.88)"><use transform="scale(.00888889)" xlink:href="#g"/><path d="m1480-1018c71 176 71 414 0 590-106 261-323 444-679 444s-576-184-681-444c-71-176-71-414 0-590 106-261 324-444 681-444 355 0 573 184 679 444zm-679 804c307 0 456-198 456-509s-149-510-456-510c-308 0-459 198-459 510s152 509 459 509" fill="#697986" transform="matrix(.00888889 0 0 .00888889 13.44 0)"/><use transform="matrix(.00888889 0 0 .00888889 27.653333 0)" xlink:href="#R"/><use transform="matrix(.00888889 0 0 .00888889 40.942222 0)" xlink:href="#f"/></g><path d="m201.87 3449.6h55.6c1.44 0 2.5-1.43 1.87-2.9l-6.44-14.46c-.2-.8-1-1.24-1.62-1.24h-43.03c-.62 0-1.42.43-1.85 1.24l-6.4 14.45c-.6 1.47.44 2.9 1.87 2.9zm56.85 2.05h-57.9c-1.25 0-2.05.86-2.05 2.1v8.25c0 1.24.8 2.05 2.04 2.05h57.92c1.24 0 2.05-.8 2.05-2.05v-8.25c0-1.24-.8-2.1-2.05-2.1zm-12.4 8.3c-1.24 0-2.1-.86-2.1-2.1s.86-2.05 2.1-2.05 2.05.8 2.05 2.05c0 1.24-.8 2.1-2.05 2.1zm10.3 0h-4.1c-1.24 0-2.1-.86-2.1-2.1s.86-2.05 2.1-2.05h4.1c1.24 0 2.1.8 2.1 2.05 0 1.24-.87 2.1-2.1 2.1zm2.1 20.65h-57.9c-1.25 0-2.05.8-2.05 2.05v8.3c0 1.24.8 2.05 2.04 2.05h57.92c1.24 0 2.05-.8 2.05-2.05v-8.3c0-1.24-.8-2.05-2.05-2.05zm-12.4 8.25c-1.24 0-2.1-.8-2.1-2.05 0-1.24.86-2.05 2.1-2.05s2.05.8 2.05 2.05c0 1.24-.8 2.05-2.05 2.05zm10.3 0h-4.1c-1.24 0-2.1-.8-2.1-2.05 0-1.24.86-2.05 2.1-2.05h4.1c1.24 0 2.1.8 2.1 2.05 0 1.24-.87 2.05-2.1 2.05zm2.1-22.7h-57.9c-1.25 0-2.05.8-2.05 2.05v8.25c0 1.24.8 2.1 2.04 2.1h57.92c1.24 0 2.05-.86 2.05-2.1v-8.25c0-1.24-.8-2.05-2.05-2.05zm-49.6 8.25c-1.24 0-2.1-.8-2.1-2.05 0-1.24.86-2.1 2.1-2.1s2.05.86 2.05 2.1-.8 2.05-2.05 2.05zm6.2 0c-1.24 0-2.1-.8-2.1-2.05 0-1.24.86-2.1 2.1-2.1s2.05.86 2.05 2.1-.8 2.05-2.05 2.05zm6.2 0c-1.24 0-2.1-.8-2.1-2.05 0-1.24.86-2.1 2.1-2.1s2.05.86 2.05 2.1-.8 2.05-2.05 2.05zm6.2 0c-1.24 0-2.1-.8-2.1-2.05 0-1.24.86-2.1 2.1-2.1s2.05.86 2.05 2.1-.8 2.05-2.05 2.05zm18.6 0c-1.24 0-2.1-.8-2.1-2.05 0-1.24.86-2.1 2.1-2.1s2.05.86 2.05 2.1-.8 2.05-2.05 2.05zm10.3 0h-4.1c-1.24 0-2.1-.8-2.1-2.05 0-1.24.86-2.1 2.1-2.1h4.1c1.24 0 2.1.86 2.1 2.1s-.87 2.05-2.1 2.05z" fill="#512fc9"/><path d="m-537.78 3414.65a6 6 0 0 1 6-6h228a6 6 0 0 1 6 6v19.33a6 6 0 0 1 -6 6h-228a6 6 0 0 1 -6-6z" fill="#fff"/><g transform="translate(-529.997632 3431.192994)"><use transform="scale(.00888889)" xlink:href="#ao"/><use transform="matrix(.00888889 0 0 .00888889 7.822222 0)" xlink:href="#s"/><use transform="matrix(.00888889 0 0 .00888889 17.493333 0)" xlink:href="#t"/><path d="m694 0h-282l-402-1037h258c43-1 77 23 86 54 69 227 146 446 203 684 58-239 142-456 211-684 10-29 42-55 82-54h246" fill="#f50057" transform="matrix(.00888889 0 0 .00888889 24.835556 0)"/><use transform="matrix(.00888889 0 0 .00888889 34.311111 0)" xlink:href="#s"/><use transform="matrix(.00888889 0 0 .00888889 43.982222 0)" xlink:href="#t"/><use transform="matrix(.00888889 0 0 .00888889 50.08 0)" xlink:href="#l"/><use transform="matrix(.00888889 0 0 .00888889 54.275556 0)" xlink:href="#s"/><path d="m368-536-334-501h298c45 0 59 9 76 37l185 307c49-107 112-201 167-302 15-27 31-42 68-42h284l-334 487 348 550h-298c-46 1-70-26-86-54l-185-318c-6 22-16 42-27 60l-152 258c-16 26-40 55-82 54h-276" fill="#f50057" transform="matrix(.00888889 0 0 .00888889 63.413333 0)"/><use transform="matrix(.00888889 0 0 .00888889 73.6 0)" xlink:href="#i"/><use transform="matrix(.00888889 0 0 .00888889 83.182222 0)" xlink:href="#o"/><use transform="matrix(.00888889 0 0 .00888889 98.488889 0)" xlink:href="#j"/><use transform="matrix(.00888889 0 0 .00888889 108.764444 0)" xlink:href="#u"/><use transform="matrix(.00888889 0 0 .00888889 113.831111 0)" xlink:href="#s"/><use transform="matrix(.00888889 0 0 .00888889 123.502222 0)" xlink:href="#l"/><use transform="matrix(.00888889 0 0 .00888889 127.697778 0)" xlink:href="#r"/><use transform="matrix(.00888889 0 0 .00888889 134.808889 0)" xlink:href="#s"/><use transform="matrix(.00888889 0 0 .00888889 144.48 0)" xlink:href="#u"/><use transform="matrix(.00888889 0 0 .00888889 149.546667 0)" xlink:href="#s"/><use transform="matrix(.00888889 0 0 .00888889 159.217778 0)" xlink:href="#j"/><use transform="matrix(.00888889 0 0 .00888889 169.493333 0)" xlink:href="#n"/><use transform="matrix(.00888889 0 0 .00888889 179.804444 0)" xlink:href="#t"/><use transform="matrix(.00888889 0 0 .00888889 187.146667 0)" xlink:href="#r"/><use transform="matrix(.00888889 0 0 .00888889 194.257778 0)" xlink:href="#l"/><use transform="matrix(.00888889 0 0 .00888889 198.453333 0)" xlink:href="#ao"/><path d="m612-820c-81 1-134 39-182 81v739h-310v-1497h310v551c73-60 149-110 278-107 236 5 352 157 352 394v659h-310v-659c0-96-44-162-138-161" fill="#f50057" transform="matrix(.00888889 0 0 .00888889 206.275556 0)"/><use transform="matrix(.00888889 0 0 .00888889 216.586667 0)" xlink:href="#v"/></g><path d="m-479.8 3445.97a6 6 0 0 1 6-6h116a6 6 0 0 1 6 6v19.34a6 6 0 0 1 -6 6h-116a6 6 0 0 1 -6-6z" fill="none"/><g transform="translate(-458.178912 3462.518252)"><use transform="scale(.00888889)" xlink:href="#w"/><use transform="matrix(.00888889 0 0 .00888889 10.311111 0)" xlink:href="#x"/><use transform="matrix(.00888889 0 0 .00888889 20.622222 0)" xlink:href="#x"/><use transform="matrix(.00888889 0 0 .00888889 30.933333 0)" xlink:href="#l"/><use transform="matrix(.00888889 0 0 .00888889 35.128889 0)" xlink:href="#y"/><use transform="matrix(.00888889 0 0 .00888889 45.44 0)" xlink:href="#z"/><use transform="matrix(.00888889 0 0 .00888889 55.751111 0)" xlink:href="#l"/><use transform="matrix(.00888889 0 0 .00888889 59.946667 0)" xlink:href="#x"/><use transform="matrix(.00888889 0 0 .00888889 70.257778 0)" xlink:href="#l"/><path d="m114-1041c45-269 211-432 516-432 212 0 355 88 422 233 21 45 30 94 30 145 2 183-80 277-216 323 161 56 242 166 242 329 0 307-208 452-512 459-308 7-443-159-522-390 80-24 165-97 266-58 18 7 29 21 38 37 53 91 95 158 214 158 155 0 236-120 200-281-25-110-146-118-296-120v-214c165-2 284-26 284-189 0-138-100-208-232-169-58 17-99 60-118 117-22 66-66 96-152 81" fill="#f50057" transform="matrix(.00888889 0 0 .00888889 74.453333 0)"/></g><path d="m-552 3457.64h23.4m23.4 0h23.4" fill="none" stroke="#f50057" stroke-width="4"/><path d="m-567 3457.64 13-7.5v15z" fill="#f50057" stroke="#f50057" stroke-width="4"/><path d="m-479.8 3459.6h-2.05v-3.94h2.05z" fill="#f50057" stroke="#f50057" stroke-width=".05"/><path d="m-349.8 3457.64h28.83m28.84 0h28.82" fill="none" stroke="#f50057" stroke-width="4"/><path d="m-349.75 3459.6h-2.05v-3.94h2.06z" fill="#f50057" stroke="#f50057" stroke-width=".05"/><path d="m-263.36 3457.64h2.06" fill="none" stroke="#f50057" stroke-width="4"/><path d="m-479.8 3501.1a6 6 0 0 1 6-6h116a6 6 0 0 1 6 6v19.33a6 6 0 0 1 -6 6h-116a6 6 0 0 1 -6-6z" fill="none"/><g transform="translate(-458.178912 3517.64324)"><path d="m252-224h280c2-282-4-570 3-848l-165 137c-34 38-114 22-140-12l-98-130 454-381h256v1234h240v224h-830z" fill="#fc9432" transform="scale(.00888889)"/><use transform="matrix(.00888889 0 0 .00888889 10.311111 0)" xlink:href="#ap"/><use transform="matrix(.00888889 0 0 .00888889 20.622222 0)" xlink:href="#ap"/><use transform="matrix(.00888889 0 0 .00888889 30.933333 0)" xlink:href="#aq"/><path d="m532-896c89-35 216-36 312-1 162 59 274 190 274 411 0 240-136 387-313 462-125 53-311 53-436 2-184-74-303-232-303-484 0-186 74-313 166-437l328-443c29-40 94-71 166-71h276c-157 187-313 374-470 561zm46 197c-139 0-214 93-214 235 0 148 69 235 218 235 140 0 226-93 226-234 0-150-82-236-230-236" fill="#fc9432" transform="matrix(.00888889 0 0 .00888889 35.128889 0)"/><path d="m1126-566c-12 87 37 230-60 231h-90v335h-270v-335h-586c-39 1-76-30-82-63l-32-153 674-906h296v891zm-420 0c3-181-8-372 10-539l-385 539z" fill="#fc9432" transform="matrix(.00888889 0 0 .00888889 45.44 0)"/><use transform="matrix(.00888889 0 0 .00888889 55.751111 0)" xlink:href="#aq"/><use transform="matrix(.00888889 0 0 .00888889 59.946667 0)" xlink:href="#ap"/><use transform="matrix(.00888889 0 0 .00888889 70.257778 0)" xlink:href="#aq"/><path d="m114-1041c45-269 211-432 516-432 212 0 355 88 422 233 21 45 30 94 30 145 2 183-80 277-216 323 161 56 242 166 242 329 0 307-208 452-512 459-308 7-443-159-522-390 80-24 165-97 266-58 18 7 29 21 38 37 53 91 95 158 214 158 155 0 236-120 200-281-25-110-146-118-296-120v-214c165-2 284-26 284-189 0-138-100-208-232-169-58 17-99 60-118 117-22 66-66 96-152 81" fill="#fc9432" transform="matrix(.00888889 0 0 .00888889 74.453333 0)"/></g><path d="m-569 3512.76h14.53m14.54 0h29.06m14.54 0h14.53m-87.15 0h-2.05" fill="none" stroke="#fc9432" stroke-width="4"/><path d="m-479.8 3514.74h-2.05v-3.95h2.05z" fill="#fc9432" stroke="#fc9432" stroke-width=".05"/><path d="m-349.8 3512.76h22.45m22.44 0h22.43" fill="none" stroke="#fc9432" stroke-width="4"/><path d="m-349.75 3514.74h-2.05v-3.95h2.06z" fill="#fc9432" stroke="#fc9432" stroke-width=".05"/><path d="m-267.48 3512.76-13 7.5v-15z" fill="#fc9432" stroke="#fc9432" stroke-width="4"/><path d="m-537.78 3174.36h220.2v25.64h-220.2z" fill="none"/><g transform="translate(-481.835774 3195.877613)"><use transform="scale(.00837)" xlink:href="#U"/><path d="m519-204c146 0 246-70 241-211-6-175-195-185-333-232-183-63-339-153-333-400 5-199 120-319 272-380 126-51 311-44 437 5 72 27 133 64 184 112l-66 127c-15 40-64 51-105 25-64-41-136-87-246-85-132 3-224 54-224 182 0 167 202 176 334 227 173 67 333 144 333 381 0 227-120 364-289 433-138 56-353 39-478-16-80-35-154-80-210-138l78-129c23-34 74-43 115-13 73 54 157 112 290 112" fill="#512fc9" transform="matrix(.00837 0 0 .00837 12.18672 0)"/><use transform="matrix(.00837 0 0 .00837 21.16773 0)" xlink:href="#Y"/><use transform="matrix(.00837 0 0 .00837 30.75138 0)" xlink:href="#ac"/></g><g transform="translate(-436.888874 3195.877613)"><use transform="scale(.00837)" xlink:href="#V"/><use transform="matrix(.00837 0 0 .00837 8.65458 0)" xlink:href="#ar"/><use transform="matrix(.00837 0 0 .00837 20.53998 0)" xlink:href="#T"/><use transform="matrix(.00837 0 0 .00837 31.00248 0)" xlink:href="#Z"/><use transform="matrix(.00837 0 0 .00837 40.30992 0)" xlink:href="#ab"/><use transform="matrix(.00837 0 0 .00837 53.69355 0)" xlink:href="#T"/></g><path d="m329.25 3174.36h220.2v25.64h-220.2z" fill="none"/><g transform="translate(361.577384 3195.877613)"><use transform="scale(.00837)" xlink:href="#T"/><use transform="matrix(.00837 0 0 .00837 10.4625 0)" xlink:href="#ac"/><use transform="matrix(.00837 0 0 .00837 21.4272 0)" xlink:href="#W"/><path d="m4-1446h217c48-1 77 26 90 61 125 326 256 646 373 977 12 34 20 70 29 108 15-77 34-144 57-203l339-882c12-30 45-61 89-61h217l-584 1446h-243" fill="#512fc9" transform="matrix(.00837 0 0 .00837 26.68356 0)"/><use transform="matrix(.00837 0 0 .00837 37.15443 0)" xlink:href="#ar"/><use transform="matrix(.00837 0 0 .00837 47.80944 0)" xlink:href="#Z"/><use transform="matrix(.00837 0 0 .00837 57.76974 0)" xlink:href="#Y"/></g><g transform="translate(432.161594 3195.877613)"><use transform="scale(.00837)" xlink:href="#X"/><use transform="matrix(.00837 0 0 .00837 12.65544 0)" xlink:href="#Y"/><use transform="matrix(.00837 0 0 .00837 22.23909 0)" xlink:href="#Z"/><use transform="matrix(.00837 0 0 .00837 32.19939 0)" xlink:href="#aa"/><use transform="matrix(.00837 0 0 .00837 49.7178 0)" xlink:href="#ab"/><use transform="matrix(.00837 0 0 .00837 63.10143 0)" xlink:href="#ac"/><use transform="matrix(.00837 0 0 .00837 74.06613 0)" xlink:href="#ad"/></g><g filter="url(#as)"><path d="m-260 3228.7a6 6 0 0 1 6-6h116a6 6 0 0 1 6 6v299.58a6 6 0 0 1 -6 6h-116a6 6 0 0 1 -6-6z" fill="#fff" stroke="#00bfa5" stroke-width="2"/></g><path d="m-261.3 3391.63a6 6 0 0 1 6-6h116a6 6 0 0 1 6 6v15.77a6 6 0 0 1 -6 6h-116a6 6 0 0 1 -6-6z" fill="none"/><path d="m4-1446h217c48-1 77 26 90 61 125 326 256 646 373 977 12 34 20 70 29 108 15-77 34-144 57-203l339-882c12-30 45-61 89-61h217l-584 1446h-243" fill="#00bfa5" transform="matrix(.00888889 0 0 .00888889 -218.527099 3406.507284)"/><path d="m377-1009c4 38 6 82 6 121v888h-237v-1446c71 6 174-24 211 20 269 320 519 661 779 990-5-42-7-87-7-131v-879h237v1446c-64-4-144 10-192-10-14-6-28-19-41-36" fill="#00bfa5" transform="matrix(.00888889 0 0 .00888889 -205.904877 3406.507284)"/><path d="m991-153c-92 106-231 168-423 168-331 0-505-212-505-550 0-237 116-392 287-467 61-27 129-40 206-40 287 0 444 174 444 465 0 54-3 95-57 95h-634c4 226 158 349 385 292 52-13 93-39 132-62 32-19 73-16 93 9zm-213-478c-4-143-73-234-217-234-154 0-226 95-247 234z" fill="#00bfa5" transform="matrix(.00888889 0 0 .00888889 -192.464877 3406.507284)"/><path d="m738-75c-64 55-158 90-269 91-176 2-277-109-277-284v-573c-65-4-153 21-153-52v-98l165-27 52-280c10-66 115-35 183-42v323h270v176h-270v556c-1 59 32 101 88 102 48 1 68-25 104-34 19 1 25 9 33 22" fill="#00bfa5" transform="matrix(.00888889 0 0 .00888889 -182.962655 3406.507284)"/><path d="m-203.7 3359.1c.36 0 .7-.05 1.07-.1l1.33 3.1c-1.45 1.15-2.4 2.95-2.4 5 0 1.03.24 2.03.7 2.9l-5.12 4.57c-1.04-.68-2.25-1.08-3.58-1.08-3.53 0-6.4 2.87-6.4 6.4 0 3.5 2.87 6.4 6.4 6.4 3.54 0 6.4-2.9 6.4-6.4 0-1.05-.24-2.05-.7-2.93l5.12-4.56c1.04.7 2.24 1.1 3.57 1.1 1.45 0 2.82-.5 3.9-1.33l4.62 3.56c-.33.8-.54 1.64-.54 2.56 0 3.5 2.87 6.4 6.4 6.4 3.54 0 6.4-2.9 6.4-6.4.02-3.53-2.85-6.4-6.4-6.4-1.45 0-2.82.47-3.9 1.3l-4.62-3.55c.33-.8.54-1.64.54-2.56 0-.17 0-.3-.04-.45l2.66-.88c1.13 1.76 3.12 2.92 5.37 2.92 3.53 0 6.4-2.9 6.4-6.4 0-3.53-2.88-6.4-6.4-6.4-3.55 0-6.42 2.87-6.42 6.4 0 .15 0 .27.04.43l-2.66.88c-1.12-1.75-3.12-2.9-5.37-2.9-.38 0-.7.03-1.04.07l-1.38-3.08c1.46-1.17 2.4-2.97 2.4-5 0-3.53-2.86-6.4-6.4-6.4-3.53 0-6.4 2.87-6.4 6.4 0 3.5 2.87 6.4 6.4 6.4zm0-9.6c-1.76 0-3.2 1.43-3.2 3.2 0 1.75 1.44 3.2 3.2 3.2.45 0 .86-.1 1.24-.25l.04-.04h.04c1.12-.5 1.87-1.63 1.87-2.9 0-1.77-1.42-3.2-3.2-3.2zm17.6 28.8c0-.73.23-1.4.65-1.93v-.04c.04 0 .04-.04.04-.04.58-.73 1.5-1.2 2.5-1.2 1.78 0 3.2 1.43 3.2 3.2 0 1.75-1.42 3.2-3.2 3.2-1.76 0-3.2-1.45-3.2-3.2zm.15-14.97v-.09c-.12-.28-.16-.64-.16-.96 0-1.77 1.44-3.2 3.2-3.2 1.78 0 3.2 1.43 3.2 3.2 0 1.75-1.42 3.2-3.2 3.2-1.38 0-2.6-.9-3.05-2.17zm-12.7.84c-1.1.52-1.86 1.64-1.86 2.92 0 .8.28 1.5.78 2.07v.04l.04.05c.6.64 1.42 1.04 2.38 1.04 1 0 1.9-.5 2.5-1.2 0 0 0-.05.03-.05 0 0 0-.04.04-.04.38-.5.63-1.2.63-1.9 0-.37-.04-.7-.17-1v-.05c-.4-1.24-1.62-2.16-3.03-2.16-.46 0-.88.07-1.25.27h-.08zm-16.25 15.72c0-1.77 1.4-3.2 3.2-3.2 1.75 0 3.2 1.43 3.2 3.2 0 1.75-1.45 3.2-3.2 3.2-1.8 0-3.2-1.45-3.2-3.2z" fill="#00bfa5"/></g></svg>