<svg xmlns="http://www.w3.org/2000/svg" xmlns:xlink="http://www.w3.org/1999/xlink" xmlns:lucid="lucid" width="1487.82" height="471.28"><g transform="translate(721 -3130.173498858219)" lucid:page-tab-id="0_0"><path d="M-1000 3000h2000v1000h-2000z" fill="#fff"/><path d="M-719 3177.43a8 8 0 0 1 8-8h581.87a8 8 0 0 1 8 8v220.15a8 8 0 0 1-8 8H-711a8 8 0 0 1-8-8z" stroke="#512fc9" stroke-width="2" fill="#fff"/><path d="M-720 3138.97h600v25.64h-600z" stroke="#000" stroke-opacity="0" stroke-width="2" fill="#fff" fill-opacity="0"/><use xlink:href="#a" transform="matrix(1,0,0,1,-715,3143.9677536428208) translate(240.448525 16.522380000000002)"/><use xlink:href="#b" transform="matrix(1,0,0,1,-715,3143.9677536428208) translate(285.395425 16.522380000000002)"/><path d="M-719 3183.53h283.18v8.46h-283.2z" stroke="#000" stroke-opacity="0" stroke-width="2" fill="#fff" fill-opacity="0"/><path d="M-700 3226a6 6 0 0 1 6-6h116a6 6 0 0 1 6 6v116a6 6 0 0 1-6 6h-116a6 6 0 0 1-6-6z" stroke="#512fc9" stroke-opacity=".2" stroke-width="2" fill="#fff" filter="url(#c)"/><path d="M-700 3366a6 6 0 0 1 6-6h116a6 6 0 0 1 6 6v12a6 6 0 0 1-6 6h-116a6 6 0 0 1-6-6z" fill="none"/><use xlink:href="#d" transform="matrix(1,0,0,1,-700,3360) translate(41.848888888888894 18.879999999999995)"/><path d="M-608.98 3266.34c0 8.2-6.7 14.88-14.87 14.88-8.26 0-14.87-6.67-14.87-14.88 0-8.2 6.6-14.87 14.87-14.87 8.18 0 14.87 6.67 14.87 14.88zM-643.7 3276.26c0 5.47-4.46 9.92-9.9 9.92-5.5 0-9.95-4.44-9.95-9.92 0-5.47 4.46-9.92 9.96-9.92 5.44 0 9.9 4.45 9.9 9.92zM-673.44 3305c0-7.65 6.24-13.86 13.9-13.86h11.9c7.65 0 13.82 6.2 13.82 13.85 0 1.93-1.56 3.47-3.42 3.47h-32.7c-1.94 0-3.5-1.54-3.5-3.48z" stroke="#000" stroke-opacity="0" fill="#512fc9"/><path d="M-643.26 3289.2c6.92 1.88 11.97 8.15 11.97 15.68 0 1.3-.43 2.56-1.18 3.6h28.92c2.46 0 4.46-2 4.46-4.46 0-9.86-7.95-17.84-17.84-17.84h-16.35c-3.7 0-7.13 1.08-9.96 3.02z" stroke="#000" stroke-opacity="0" fill="#512fc9"/><path d="M-510.82 3226a6 6 0 0 1 6-6h176.05a6 6 0 0 1 6 6v19.33a6 6 0 0 1-6 6h-176.05a6 6 0 0 1-6-6z" fill="#fff" fill-opacity="0"/><use xlink:href="#e" transform="matrix(1,0,0,1,-505.8188784005588,3225) translate(0.3622222222222149 17.546666666666667)"/><path d="M-600.8 3440.08a3 3 0 0 1 3-3h26a3 3 0 0 1 3 3v26a3 3 0 0 1-3 3h-26a3 3 0 0 1-3-3z" fill-opacity="0"/><path d="M-580.48 3437.08h8.67l.46.04.46.1.43.2.4.23.36.3.32.37.25.4.17.43.12.46.03.48v8.66m0 8.67v8.68l-.05.47-.1.46-.18.44-.25.4-.3.36-.37.3-.4.25-.43.18-.46.1-.47.05h-8.68m-8.66 0h-8.67l-.48-.04-.46-.1-.43-.2-.4-.23-.36-.3-.3-.36-.25-.4-.18-.43-.1-.45-.05-.47v-8.67m0-8.66v-8.66l.03-.47.1-.45.2-.43.24-.4.3-.36.36-.3.4-.25.43-.17.46-.1.47-.05h8.66" stroke="#00bfa5" stroke-width="2" fill="none"/><path d="M-710.82 3439.58a3 3 0 0 1 3-3h26a3 3 0 0 1 3 3v26a3 3 0 0 1-3 3h-26a3 3 0 0 1-3-3z" fill-opacity="0"/><path d="M-690.5 3436.58h8.68l.47.04.46.1.44.2.4.23.36.3.3.37.25.4.18.43.1.46.05.48v8.66m0 8.67v8.68l-.04.47-.1.46-.2.44-.23.4-.3.36-.36.3-.4.25-.43.18-.45.1-.47.05h-8.67m-8.65 0h-8.67l-.47-.04-.45-.1-.43-.2-.4-.23-.36-.3-.3-.36-.25-.4-.17-.43-.1-.45-.05-.47v-8.67m0-8.66v-8.66l.04-.47.1-.45.2-.43.23-.4.3-.36.37-.3.4-.25.43-.17.46-.1.48-.05h8.67" stroke="#f50057" stroke-width="2" fill="none"/><path d="M-261.3 3226a6 6 0 0 1 6-6h116a6 6 0 0 1 6 6v116a6 6 0 0 1-6 6h-116a6 6 0 0 1-6-6z" stroke="#512fc9" stroke-opacity=".2" stroke-width="2" fill="#fff" filter="url(#c)"/><path d="M-261.3 3366a6 6 0 0 1 6-6h116a6 6 0 0 1 6 6v12a6 6 0 0 1-6 6h-116a6 6 0 0 1-6-6z" fill="none"/><use xlink:href="#f" transform="matrix(1,0,0,1,-261.3048767654043,3360) translate(42.777777777777786 18.879999999999995)"/><path d="M-177.5 3265.63h-39.6c-.85 0-1.4.55-1.4 1.4v5.65c0 .85.55 1.43 1.4 1.43h39.6c.84 0 1.4-.57 1.4-1.42v-5.66c0-.84-.56-1.4-1.4-1.4zm-8.48 5.66c-.85 0-1.45-.6-1.45-1.45 0-.84.6-1.4 1.45-1.4.84 0 1.4.56 1.4 1.4 0 .85-.56 1.44-1.4 1.44zm7.03 0h-2.8c-.84 0-1.44-.6-1.44-1.45 0-.84.6-1.4 1.46-1.4h2.8c.84 0 1.44.56 1.44 1.4 0 .85-.6 1.44-1.45 1.44zM-177.5 3279.77h-39.6c-.85 0-1.4.55-1.4 1.4v5.66c0 .85.55 1.4 1.4 1.4h18.4V3294.18c-1.28.4-2.12 1.4-2.55 2.53h-11.62c-.84 0-1.4.6-1.4 1.45 0 .84.56 1.4 1.4 1.4h11.62c.55 1.68 2.12 2.82 3.94 2.82 1.82 0 3.4-1.14 3.94-2.83H-181.74c.84 0 1.4-.55 1.4-1.4 0-.84-.56-1.43-1.4-1.43H-193.36c-.43-1.23-1.4-2.12-2.55-2.52V3288.23h18.4c.84 0 1.4-.55 1.4-1.4v-5.66c0-.85-.56-1.4-1.4-1.4zm-33.92 5.63c-.85 0-1.45-.56-1.45-1.4 0-.84.6-1.4 1.45-1.4.84 0 1.4.56 1.4 1.4 0 .84-.56 1.4-1.4 1.4zm4.24 0c-.85 0-1.44-.56-1.44-1.4 0-.84.6-1.4 1.44-1.4s1.4.56 1.4 1.4c0 .84-.56 1.4-1.4 1.4zm4.24 0c-.85 0-1.45-.56-1.45-1.4 0-.84.6-1.4 1.46-1.4.84 0 1.4.56 1.4 1.4 0 .84-.56 1.4-1.4 1.4zm2.8-1.4c0-.84.6-1.4 1.44-1.4s1.4.56 1.4 1.4c0 .84-.56 1.4-1.4 1.4-.85 0-1.45-.56-1.45-1.4zm14.16 1.4c-.85 0-1.45-.56-1.45-1.4 0-.84.6-1.4 1.45-1.4.84 0 1.4.56 1.4 1.4 0 .84-.56 1.4-1.4 1.4zm7.03 0h-2.8c-.84 0-1.44-.56-1.44-1.4 0-.84.6-1.4 1.46-1.4h2.8c.84 0 1.44.56 1.44 1.4 0 .84-.6 1.4-1.45 1.4z" stroke="#000" stroke-opacity="0" stroke-width="4.69" fill="#00bfa5"/><path d="M-569 3237.67h18.73m18.72 0h18.73" stroke="#f50057" stroke-width="4" fill="none"/><path d="M-568.95 3239.64H-571v-3.95h2.05zM-510.82 3239.64h-2.05v-3.95h2.05z" stroke="#f50057" stroke-width=".05" fill="#f50057"/><path d="M-320.77 3237.67h39.47" stroke="#f50057" stroke-width="4" fill="none"/><path d="M-320.72 3239.64h-2.05v-3.95h2.05z" stroke="#f50057" stroke-width=".05" fill="#f50057"/><path d="M-266.3 3237.67l-13 7.5v-15z" stroke="#f50057" stroke-width="4" fill="#f50057"/><path d="M-480.8 3253.25a6 6 0 0 1 6-6h116a6 6 0 0 1 6 6v19.33a6 6 0 0 1-6 6h-116a6 6 0 0 1-6-6z" fill="#fff" fill-opacity="0"/><use xlink:href="#g" transform="matrix(1,0,0,1,-475.79665617833655,3252.247992141838) translate(16.617777777777768 17.546666666666667)"/><path d="M-552 3264.9h23.06m23.07 0h23.07" stroke="#f50057" stroke-width="4" fill="none"/><path d="M-567 3264.9l13-7.5v15z" stroke="#f50057" stroke-width="4" fill="#f50057"/><path d="M-480.8 3266.9h-2.05v-3.96h2.05z" stroke="#f50057" stroke-width=".05" fill="#f50057"/><path d="M-350.8 3264.9h28.83m28.84 0h28.82" stroke="#f50057" stroke-width="4" fill="none"/><path d="M-350.75 3266.9h-2.05v-3.96h2.06zM-262.3 3266.9h-2.06v-3.96h2.06z" stroke="#f50057" stroke-width=".05" fill="#f50057"/><path d="M140 3179.17a8 8 0 0 1 8-8h599.04a8 8 0 0 1 8 8v413.28a8 8 0 0 1-8 8H148a8 8 0 0 1-8-8z" stroke="#512fc9" stroke-width="2" fill="#fff"/><path d="M140 3131.17h625.82v40H140z" stroke="#000" stroke-opacity="0" stroke-width="2" fill="#fff" fill-opacity="0"/><use xlink:href="#h" transform="matrix(1,0,0,1,145.000000000103,3136.173498858219) translate(229.83256999999998 22.147380000000002)"/><use xlink:href="#i" transform="matrix(1,0,0,1,145.000000000103,3136.173498858219) translate(300.41678 22.147380000000002)"/><path d="M140 3177.72h296.43v22.92H140z" stroke="#000" stroke-opacity="0" stroke-width="2" fill="#fff" fill-opacity="0"/><path d="M-100.2 3178.85a8 8 0 0 1 8-8H112a8 8 0 0 1 8 8v218.73a8 8 0 0 1-8 8H-92.2a8 8 0 0 1-8-8z" stroke="#512fc9" stroke-width="2" fill="#fff"/><path d="M8.37 3237.18a3 3 0 0 1 3-3h197.75a3 3 0 0 1 3 3v76.94a3 3 0 0 1-3 3H11.37a3 3 0 0 1-3-3zM-133.3 3237.8a3 3 0 0 1 3-3H5.36a3 3 0 0 1 3 3v74.07a3 3 0 0 1-3 3H-130.3a3 3 0 0 1-3-3z" stroke="#000" stroke-opacity="0" fill="#512fc9" fill-opacity=".07"/><path d="M50 3274.8c0 22.08-17.9 40-40 40s-40-17.92-40-40c0-22.1 17.9-40 40-40s40 17.9 40 40z" stroke="#00bfa5" stroke-width="4" fill="#fff" filter="url(#j)"/><path d="M29.8 3257.17H-9.8c-.85 0-1.4.55-1.4 1.4v5.66c0 .84.55 1.43 1.4 1.43h39.6c.85 0 1.4-.6 1.4-1.43v-5.66c0-.85-.55-1.4-1.4-1.4zm-8.48 5.66c-.85 0-1.44-.6-1.44-1.43 0-.85.6-1.4 1.44-1.4.85 0 1.4.55 1.4 1.4 0 .84-.55 1.43-1.4 1.43zm7.04 0h-2.8c-.85 0-1.44-.6-1.44-1.43 0-.85.6-1.4 1.44-1.4h2.8c.85 0 1.44.55 1.44 1.4 0 .84-.6 1.43-1.44 1.43zM29.8 3271.32H-9.8c-.85 0-1.4.55-1.4 1.4v5.65c0 .85.55 1.4 1.4 1.4H8.6V3285.72c-1.27.4-2.12 1.4-2.54 2.54H-5.56c-.85 0-1.4.6-1.4 1.43 0 .84.55 1.4 1.4 1.4H6.06c.55 1.68 2.12 2.82 3.94 2.82 1.82 0 3.4-1.14 3.94-2.83H25.56c.85 0 1.4-.56 1.4-1.4 0-.85-.55-1.44-1.4-1.44H13.94c-.42-1.25-1.4-2.13-2.54-2.54V3279.77h18.4c.85 0 1.4-.55 1.4-1.4v-5.66c0-.83-.55-1.38-1.4-1.38zm-33.92 5.62c-.85 0-1.44-.55-1.44-1.4 0-.84.6-1.4 1.44-1.4.85 0 1.4.56 1.4 1.4 0 .85-.55 1.4-1.4 1.4zm4.24 0c-.85 0-1.44-.55-1.44-1.4 0-.84.6-1.4 1.44-1.4.85 0 1.4.56 1.4 1.4 0 .85-.55 1.4-1.4 1.4zm4.24 0c-.85 0-1.44-.55-1.44-1.4 0-.84.6-1.4 1.44-1.4.85 0 1.4.56 1.4 1.4 0 .85-.55 1.4-1.4 1.4zm2.8-1.4c0-.84.6-1.4 1.44-1.4.85 0 1.4.56 1.4 1.4 0 .85-.55 1.4-1.4 1.4-.85 0-1.44-.55-1.44-1.4zm14.16 1.4c-.85 0-1.44-.55-1.44-1.4 0-.84.6-1.4 1.44-1.4.85 0 1.4.56 1.4 1.4 0 .85-.55 1.4-1.4 1.4zm7.04 0h-2.8c-.85 0-1.44-.55-1.44-1.4 0-.84.6-1.4 1.44-1.4h2.8c.85 0 1.44.56 1.44 1.4 0 .85-.6 1.4-1.44 1.4z" stroke="#000" stroke-opacity="0" stroke-width="4.69" fill="#00bfa5"/><path d="M-30 3329.92a6 6 0 0 1 6-6h68a6 6 0 0 1 6 6v12a6 6 0 0 1-6 6h-68a6 6 0 0 1-6-6z" fill="none"/><use xlink:href="#k" transform="matrix(1,0,0,1,-30,3323.9167555475055) translate(10.008888888888897 18.879999999999995)"/><path d="M-130.3 3274.88h16.03m16.04 0h16.06l.02-.02v-.04h.02v-.02h31.15" stroke="#00bfa5" stroke-width="4" fill="none"/><path d="M-130.25 3276.85h-2.06v-3.95h2.05z" stroke="#00bfa5" stroke-width=".05" fill="#00bfa5"/><path d="M-36 3274.8l-13 7.5v-15z" stroke="#00bfa5" stroke-width="4" fill="#00bfa5"/><path d="M-60 3217.84a6 6 0 0 1 6-6H74a6 6 0 0 1 6 6v12a6 6 0 0 1-6 6H-54a6 6 0 0 1-6-6z" fill="none"/><use xlink:href="#l" transform="matrix(1,0,0,1,-60,3211.8429024563884) translate(18.604444444444468 18.019999999999996)"/><use xlink:href="#m" transform="matrix(1,0,0,1,-60,3211.8429024563884) translate(60.347777777777786 18.019999999999996)"/><path d="M71 3274.8h28.63m28.64 0h28.63" stroke="#00bfa5" stroke-width="4" fill="none"/><path d="M56 3274.8l13-7.5v15z" stroke="#00bfa5" stroke-width="4" fill="#00bfa5"/><path d="M158.9 3276.77h-2.05v-3.95h2.06z" stroke="#00bfa5" stroke-width=".05" fill="#00bfa5"/><path d="M-561.42 3443.08a6 6 0 0 1 6-6h38.6a6 6 0 0 1 6 6v19.5a6 6 0 0 1-6 6h-38.6a6 6 0 0 1-6-6z" fill="#fff" fill-opacity="0"/><use xlink:href="#n" transform="matrix(1,0,0,1,-556.4233200180361,3442.078786016449) translate(0 17.546666666666667)"/><path d="M-671.43 3443.08a6 6 0 0 1 6-6h41.23a6 6 0 0 1 6 6v19a6 6 0 0 1-6 6h-41.23a6 6 0 0 1-6-6z" fill="#fff" fill-opacity="0"/><use xlink:href="#o" transform="matrix(1,0,0,1,-666.4339741663744,3442.078786016448) translate(0 17.546666666666667)"/><path d="M-480.8 3308.37a6 6 0 0 1 6-6h116a6 6 0 0 1 6 6v19.34a6 6 0 0 1-6 6h-116a6 6 0 0 1-6-6z" fill="#fff" fill-opacity="0"/><use xlink:href="#p" transform="matrix(1,0,0,1,-475.79665617833655,3307.3729796261614) translate(16.617777777777768 17.546666666666667)"/><path d="M-570 3320.04h14.53m14.54 0h29.06m14.54 0h14.53M-569.95 3320.04H-572" stroke="#00bfa5" stroke-width="4" fill="none"/><path d="M-480.8 3322h-2.05v-3.93h2.05z" stroke="#00bfa5" stroke-width=".05" fill="#00bfa5"/><path d="M-350.8 3320.04h22.45m22.44 0h22.43" stroke="#00bfa5" stroke-width="4" fill="none"/><path d="M-350.75 3322h-2.05v-3.93h2.06z" stroke="#00bfa5" stroke-width=".05" fill="#00bfa5"/><path d="M-268.48 3320.04l-13 7.5v-15z" stroke="#00bfa5" stroke-width="4" fill="#00bfa5"/><path d="M595.54 3411.58a6 6 0 0 1 6-6h116a6 6 0 0 1 6 6v116a6 6 0 0 1-6 6h-116a6 6 0 0 1-6-6z" stroke="#512fc9" stroke-opacity=".2" stroke-width="2" fill="#fff" filter="url(#c)"/><path d="M595.54 3551.58a6 6 0 0 1 6-6h116a6 6 0 0 1 6 6v12a6 6 0 0 1-6 6h-116a6 6 0 0 1-6-6z" fill="none"/><use xlink:href="#q" transform="matrix(1,0,0,1,595.5384840755543,3545.578786016564) translate(-18.977777777777746 18.879999999999995)"/><path d="M631.64 3455.18h55.6c1.44 0 2.5-1.43 1.87-2.9l-6.44-14.46c-.18-.8-1-1.24-1.6-1.24H638c-.62 0-1.42.43-1.86 1.24l-6.38 14.44c-.62 1.5.43 2.92 1.86 2.92zM688.5 3457.22h-57.92c-1.24 0-2.04.87-2.04 2.1v8.26c0 1.24.8 2.05 2.04 2.05h57.9c1.25 0 2.06-.8 2.06-2.05v-8.25c0-1.24-.8-2.1-2.05-2.1zm-12.4 8.3c-1.25 0-2.12-.86-2.12-2.1 0-1.24.87-2.04 2.1-2.04 1.25 0 2.06.8 2.06 2.05 0 1.24-.8 2.1-2.05 2.1zm10.28 0h-4.1c-1.23 0-2.1-.86-2.1-2.1 0-1.24.87-2.04 2.1-2.04h4.1c1.24 0 2.1.8 2.1 2.05 0 1.24-.86 2.1-2.1 2.1zM688.5 3486.18h-57.92c-1.24 0-2.04.8-2.04 2.05v8.3c0 1.24.8 2.05 2.04 2.05h57.9c1.25 0 2.06-.8 2.06-2.05v-8.3c0-1.24-.8-2.05-2.05-2.05zm-12.4 8.25c-1.25 0-2.12-.8-2.12-2.05 0-1.24.87-2.05 2.1-2.05 1.25 0 2.06.8 2.06 2.05 0 1.24-.8 2.05-2.05 2.05zm10.28 0h-4.1c-1.23 0-2.1-.8-2.1-2.05 0-1.24.87-2.05 2.1-2.05h4.1c1.24 0 2.1.8 2.1 2.05 0 1.24-.86 2.05-2.1 2.05zM688.5 3471.73h-57.92c-1.24 0-2.04.8-2.04 2.05v8.24c0 1.24.8 2.1 2.04 2.1h57.9c1.25 0 2.06-.86 2.06-2.1v-8.24c0-1.24-.8-2.05-2.05-2.05zm-49.6 8.25c-1.25 0-2.12-.8-2.12-2.05 0-1.24.87-2.1 2.1-2.1 1.25 0 2.06.86 2.06 2.1 0 1.24-.8 2.05-2.05 2.05zm6.2 0c-1.25 0-2.12-.8-2.12-2.05 0-1.24.87-2.1 2.1-2.1 1.25 0 2.06.86 2.06 2.1 0 1.24-.8 2.05-2.05 2.05zm6.2 0c-1.25 0-2.12-.8-2.12-2.05 0-1.24.87-2.1 2.1-2.1 1.25 0 2.06.86 2.06 2.1 0 1.24-.8 2.05-2.05 2.05zm6.2 0c-1.25 0-2.12-.8-2.12-2.05 0-1.24.87-2.1 2.1-2.1 1.25 0 2.06.86 2.06 2.1 0 1.24-.8 2.05-2.05 2.05zm18.6 0c-1.25 0-2.12-.8-2.12-2.05 0-1.24.87-2.1 2.1-2.1 1.25 0 2.06.86 2.06 2.1 0 1.24-.8 2.05-2.05 2.05zm10.28 0h-4.1c-1.23 0-2.1-.8-2.1-2.05 0-1.24.87-2.1 2.1-2.1h4.1c1.24 0 2.1.86 2.1 2.1 0 1.24-.86 2.05-2.1 2.05z" stroke="#000" stroke-opacity="0" stroke-width="4.69" fill="#512fc9"/><path d="M593.54 3224.3a6 6 0 0 1 6-6h116a6 6 0 0 1 6 6v116a6 6 0 0 1-6 6h-116a6 6 0 0 1-6-6z" stroke="#512fc9" stroke-opacity=".2" stroke-width="2" fill="#fff" filter="url(#c)"/><path d="M593.54 3364.3a6 6 0 0 1 6-6h116a6 6 0 0 1 6 6v12a6 6 0 0 1-6 6h-116a6 6 0 0 1-6-6z" fill="none"/><use xlink:href="#r" transform="matrix(1,0,0,1,593.5384840755843,3358.288123278978) translate(11.248888888888906 18.879999999999995)"/><use xlink:href="#s" transform="matrix(1,0,0,1,593.5384840755843,3358.288123278978) translate(50.946666666666665 18.879999999999995)"/><path d="M629.64 3267.9h55.6c1.44 0 2.5-1.44 1.87-2.93l-6.44-14.44c-.18-.8-1-1.24-1.6-1.24H636c-.62 0-1.42.42-1.86 1.23l-6.38 14.44c-.62 1.5.43 2.92 1.86 2.92zM686.5 3269.93h-57.92c-1.24 0-2.04.87-2.04 2.1v8.26c0 1.23.8 2.03 2.04 2.03h57.9c1.25 0 2.06-.8 2.06-2.04v-8.26c0-1.24-.8-2.1-2.05-2.1zm-12.4 8.3c-1.25 0-2.12-.86-2.12-2.1 0-1.24.87-2.04 2.1-2.04 1.25 0 2.06.8 2.06 2.03 0 1.24-.8 2.1-2.05 2.1zm10.28 0h-4.1c-1.23 0-2.1-.86-2.1-2.1 0-1.24.87-2.04 2.1-2.04h4.1c1.24 0 2.1.8 2.1 2.03 0 1.24-.86 2.1-2.1 2.1zM686.5 3298.9h-57.92c-1.24 0-2.04.8-2.04 2.03v8.3c0 1.25.8 2.06 2.04 2.06h57.9c1.25 0 2.06-.82 2.06-2.06v-8.3c0-1.25-.8-2.05-2.05-2.05zm-12.4 8.23c-1.25 0-2.12-.8-2.12-2.04 0-1.25.87-2.06 2.1-2.06 1.25 0 2.06.8 2.06 2.05 0 1.23-.8 2.03-2.05 2.03zm10.28 0h-4.1c-1.23 0-2.1-.8-2.1-2.04 0-1.25.87-2.06 2.1-2.06h4.1c1.24 0 2.1.8 2.1 2.05 0 1.23-.86 2.03-2.1 2.03zM686.5 3284.44h-57.92c-1.24 0-2.04.8-2.04 2.05v8.23c0 1.24.8 2.1 2.04 2.1h57.9c1.25 0 2.06-.86 2.06-2.1v-8.24c0-1.25-.8-2.06-2.05-2.06zm-49.6 8.25c-1.25 0-2.12-.82-2.12-2.06 0-1.24.87-2.1 2.1-2.1 1.25 0 2.06.86 2.06 2.1 0 1.24-.8 2.05-2.05 2.05zm6.2 0c-1.25 0-2.12-.82-2.12-2.06 0-1.24.87-2.1 2.1-2.1 1.25 0 2.06.86 2.06 2.1 0 1.24-.8 2.05-2.05 2.05zm6.2 0c-1.25 0-2.12-.82-2.12-2.06 0-1.24.87-2.1 2.1-2.1 1.25 0 2.06.86 2.06 2.1 0 1.24-.8 2.05-2.05 2.05zm6.2 0c-1.25 0-2.12-.82-2.12-2.06 0-1.24.87-2.1 2.1-2.1 1.25 0 2.06.86 2.06 2.1 0 1.24-.8 2.05-2.05 2.05zm18.6 0c-1.25 0-2.12-.82-2.12-2.06 0-1.24.87-2.1 2.1-2.1 1.25 0 2.06.86 2.06 2.1 0 1.24-.8 2.05-2.05 2.05zm10.28 0h-4.1c-1.23 0-2.1-.82-2.1-2.06 0-1.24.87-2.1 2.1-2.1h4.1c1.24 0 2.1.86 2.1 2.1 0 1.24-.86 2.05-2.1 2.05z" stroke="#000" stroke-opacity="0" stroke-width="4.69" fill="#512fc9"/><path d="M345.5 3238.9a6 6 0 0 1 6-6h176.04a6 6 0 0 1 6 6v19.34a6 6 0 0 1-6 6H351.5a6 6 0 0 1-6-6z" fill="#fff" fill-opacity="0"/><use xlink:href="#e" transform="matrix(1,0,0,1,350.4940396311397,3237.9121193498827) translate(0.3622222222222149 17.546666666666667)"/><path d="M290.9 3250.58h17.54m17.52 0h17.53" stroke="#f50057" stroke-width="4" fill="none"/><path d="M290.96 3252.55h-2.06v-3.95h2.06zM345.5 3252.55h-2.06v-3.95h2.05z" stroke="#f50057" stroke-width=".05" fill="#f50057"/><path d="M535.54 3250.58h38" stroke="#f50057" stroke-width="4" fill="none"/><path d="M535.6 3252.55h-2.06v-3.95h2.05z" stroke="#f50057" stroke-width=".05" fill="#f50057"/><path d="M588.54 3250.58l-13 7.5v-15z" stroke="#f50057" stroke-width="4" fill="#f50057"/><path d="M380 3271.18a6 6 0 0 1 6-6h68a6 6 0 0 1 6 6v17.67a6 6 0 0 1-6 6h-68a6 6 0 0 1-6-6z" fill="#fff" fill-opacity="0"/><use xlink:href="#t" transform="matrix(1,0,0,1,385,3270.1825560342236) translate(2.928888888888885 17.546666666666667)"/><path d="M307.9 3281.9h23.36m23.37 0H378" stroke="#f50057" stroke-width="4" fill="none"/><path d="M292.9 3281.9l13-7.5v15z" stroke="#f50057" stroke-width="4" fill="#f50057"/><path d="M380 3283.9h-2.05v-3.96H380z" stroke="#f50057" stroke-width=".05" fill="#f50057"/><path d="M462 3281.9h21.42m21.43 0h42.84m21.4 0h21.44" stroke="#f50057" stroke-width="4" fill="none"/><path d="M462.05 3283.9H460v-3.96h2.05zM592.54 3283.9h-2.05v-3.96h2.04z" stroke="#f50057" stroke-width=".05" fill="#f50057"/><path d="M380 3310.78a6 6 0 0 1 6-6h68a6 6 0 0 1 6 6v17.67a6 6 0 0 1-6 6h-68a6 6 0 0 1-6-6z" fill="#fff" fill-opacity="0"/><use xlink:href="#u" transform="matrix(1,0,0,1,385,3309.782780877255) translate(2.928888888888885 17.546666666666667)"/><path d="M290.9 3319.62h29.04m29.03 0H378" stroke="#00bfa5" stroke-width="4" fill="none"/><path d="M290.96 3321.6h-2.06v-3.96h2.06zM380 3321.6h-2.05v-3.96H380z" stroke="#00bfa5" stroke-width=".05" fill="#00bfa5"/><path d="M462 3319.62h19.76m19.75 0h19.77l.94.07.92.2.87.37.8.5.7.6.62.72.5.8.36.86.22.92.07.94v23m0 23v45.97m0 23v22.98l.07.94.22.9.36.88.5.8.6.72.72.6.8.5.88.36.9.22.95.08h14.1m14.1 0h14.08" stroke="#00bfa5" stroke-width="4" fill="none"/><path d="M462.05 3321.6H460v-3.96h2.05z" stroke="#00bfa5" stroke-width=".05" fill="#00bfa5"/><path d="M590.54 3469.58l-13 7.5v-15z" stroke="#00bfa5" stroke-width="4" fill="#00bfa5"/><path d="M-127.6 3140.65h275.2v23.96h-275.2z" stroke="#000" stroke-opacity="0" stroke-width="2" fill="#fff" fill-opacity="0"/><use xlink:href="#v" transform="matrix(1,0,0,1,-122.59745280929874,3145.6519732101297) translate(59.16404499999999 16.522380000000002)"/><use xlink:href="#i" transform="matrix(1,0,0,1,-122.59745280929874,3145.6519732101297) translate(121.08530499999999 16.522380000000002)"/><path d="M159.9 3227.58a6 6 0 0 1 6-6h116a6 6 0 0 1 6 6v116a6 6 0 0 1-6 6h-116a6 6 0 0 1-6-6z" stroke="#512fc9" stroke-opacity=".2" stroke-width="2" fill="#fff" filter="url(#c)"/><path d="M159.9 3367.58a6 6 0 0 1 6-6h116a6 6 0 0 1 6 6v12a6 6 0 0 1-6 6h-116a6 6 0 0 1-6-6z" fill="none"/><g><use xlink:href="#w" transform="matrix(1,0,0,1,159.9051989397222,3361.578786016564) translate(15.253333333333345 18.879999999999995)"/><use xlink:href="#x" transform="matrix(1,0,0,1,159.9051989397222,3361.578786016564) translate(53.528888888888886 18.879999999999995)"/></g><path d="M243.7 3267.2h-39.6c-.84 0-1.4.56-1.4 1.4v5.66c0 .85.56 1.43 1.4 1.43h39.6c.85 0 1.4-.6 1.4-1.44v-5.66c0-.84-.55-1.4-1.4-1.4zm-8.47 5.66c-.85 0-1.45-.58-1.45-1.43 0-.84.6-1.4 1.45-1.4.84 0 1.4.56 1.4 1.4 0 .85-.56 1.43-1.4 1.43zm7.03 0h-2.8c-.84 0-1.44-.58-1.44-1.43 0-.84.6-1.4 1.45-1.4h2.8c.84 0 1.44.56 1.44 1.4 0 .85-.6 1.43-1.44 1.43zM243.7 3281.35h-39.6c-.84 0-1.4.55-1.4 1.4v5.66c0 .85.56 1.4 1.4 1.4h18.4V3295.76c-1.27.4-2.1 1.4-2.54 2.53h-11.62c-.84 0-1.4.58-1.4 1.43 0 .84.56 1.4 1.4 1.4h11.62c.55 1.68 2.12 2.82 3.94 2.82 1.83 0 3.4-1.14 3.95-2.83H239.47c.84 0 1.4-.55 1.4-1.4 0-.84-.56-1.43-1.4-1.43H227.85c-.43-1.26-1.4-2.14-2.55-2.54V3289.8h18.4c.85 0 1.4-.55 1.4-1.4v-5.65c0-.85-.55-1.4-1.4-1.4zm-33.9 5.63c-.86 0-1.46-.56-1.46-1.4 0-.85.6-1.4 1.45-1.4.83 0 1.38.55 1.38 1.4 0 .84-.55 1.4-1.4 1.4zm4.23 0c-.85 0-1.44-.56-1.44-1.4 0-.85.58-1.4 1.43-1.4.84 0 1.4.55 1.4 1.4 0 .84-.56 1.4-1.4 1.4zm4.24 0c-.85 0-1.45-.56-1.45-1.4 0-.85.6-1.4 1.45-1.4.84 0 1.4.55 1.4 1.4 0 .84-.56 1.4-1.4 1.4zm2.8-1.4c0-.85.6-1.4 1.44-1.4.85 0 1.4.55 1.4 1.4 0 .84-.55 1.4-1.4 1.4-.84 0-1.44-.56-1.44-1.4zm14.16 1.4c-.85 0-1.45-.56-1.45-1.4 0-.85.6-1.4 1.45-1.4.84 0 1.4.55 1.4 1.4 0 .84-.56 1.4-1.4 1.4zm7.03 0h-2.8c-.84 0-1.44-.56-1.44-1.4 0-.85.6-1.4 1.45-1.4h2.8c.84 0 1.44.55 1.44 1.4 0 .84-.6 1.4-1.44 1.4z" stroke="#000" stroke-opacity="0" stroke-width="4.69" fill="#00bfa5"/><defs><path fill="#512fc9" d="M398-581c6 222 109 364 330 364 220 0 331-140 331-363v-866h269v866c-5 286-141 466-350 552-142 59-358 59-500 0-210-86-349-266-349-552v-866h269v865" id="y"/><path fill="#512fc9" d="M519-204c146 0 246-70 241-211-6-175-195-185-333-232-183-63-339-153-333-400 5-199 120-319 272-380 126-51 311-44 437 5 72 27 133 64 184 112l-66 127c-15 40-64 51-105 25-64-41-136-87-246-85-132 3-224 54-224 182 0 167 202 176 334 227 173 67 333 144 333 381 0 227-120 364-289 433-138 56-353 39-478-16-80-35-154-80-210-138l78-129c23-34 74-43 115-13 73 54 157 112 290 112" id="z"/><path fill="#512fc9" d="M1058-1446v214H417v401h505v207H417v409h641V0H146v-1446h912" id="A"/><path fill="#512fc9" d="M1153-1030c0 232-137 352-319 413 34 19 63 47 88 83L1284 0h-242c-51 0-80-22-101-54L637-517c-24-34-42-48-98-48H424V0H155v-1446h441c324 4 557 105 557 416zm-263 20c0-163-114-229-294-228H424v480h168c180-3 298-77 298-252" id="B"/><g id="a"><use transform="matrix(0.00837,0,0,0.00837,0,0)" xlink:href="#y"/><use transform="matrix(0.00837,0,0,0.00837,12.186720000000001,0)" xlink:href="#z"/><use transform="matrix(0.00837,0,0,0.00837,21.167730000000002,0)" xlink:href="#A"/><use transform="matrix(0.00837,0,0,0.00837,30.751380000000008,0)" xlink:href="#B"/></g><path fill="#512fc9" d="M415-222h579V0H146v-1446h269v1224" id="C"/><path fill="#512fc9" d="M1417 0h-208c-47 1-77-28-90-61l-108-295H412L304-61c-11 30-46 61-89 61H6l568-1446h275zM481-546h461c-77-218-163-424-231-651-66 230-154 432-230 651" id="D"/><path fill="#512fc9" d="M1187-985c0 329-222 471-561 476H424V0H155v-1446h471c337 4 561 134 561 461zm-269 0c0-176-112-253-292-253H424v519h202c184-1 292-85 292-266" id="E"/><path fill="#512fc9" d="M1165-1446v221H730V0H461v-1225H24v-221h1141" id="F"/><path fill="#512fc9" d="M1480-1018c71 176 71 414 0 590-106 261-323 444-679 444S225-168 120-428c-71-176-71-414 0-590 106-261 324-444 681-444 355 0 573 184 679 444zM801-214c307 0 456-198 456-509s-149-510-456-510c-308 0-459 198-459 510s152 509 459 509" id="G"/><g id="b"><use transform="matrix(0.00837,0,0,0.00837,0,0)" xlink:href="#C"/><use transform="matrix(0.00837,0,0,0.00837,8.654580000000001,0)" xlink:href="#D"/><use transform="matrix(0.00837,0,0,0.00837,20.539980000000003,0)" xlink:href="#E"/><use transform="matrix(0.00837,0,0,0.00837,31.00248,0)" xlink:href="#F"/><use transform="matrix(0.00837,0,0,0.00837,40.30992,0)" xlink:href="#G"/><use transform="matrix(0.00837,0,0,0.00837,53.69355,0)" xlink:href="#E"/></g><filter id="c" filterUnits="objectBoundingBox" x="-.08" y="-.05" width="1.16" height="1.16"><feOffset result="offOut" in="SourceAlpha" dy="4"/><feGaussianBlur result="blurOut" in="offOut" stdDeviation="5"/><feColorMatrix result="colorOut" in="blurOut" values="0 0 0 0 0.03114186851211073 0 0 0 0 0.018069973087274125 0 0 0 0 0.07727797001153403 0 0 0 0.09803921568627451 0"/><feBlend in="SourceGraphic" in2="colorOut"/></filter><path fill="#697986" d="M398-581c6 222 109 364 330 364 220 0 331-140 331-363v-866h269v866c-5 286-141 466-350 552-142 59-358 59-500 0-210-86-349-266-349-552v-866h269v865" id="H"/><path fill="#697986" d="M519-204c146 0 246-70 241-211-6-175-195-185-333-232-183-63-339-153-333-400 5-199 120-319 272-380 126-51 311-44 437 5 72 27 133 64 184 112l-66 127c-15 40-64 51-105 25-64-41-136-87-246-85-132 3-224 54-224 182 0 167 202 176 334 227 173 67 333 144 333 381 0 227-120 364-289 433-138 56-353 39-478-16-80-35-154-80-210-138l78-129c23-34 74-43 115-13 73 54 157 112 290 112" id="I"/><path fill="#697986" d="M1058-1446v214H417v401h505v207H417v409h641V0H146v-1446h912" id="J"/><path fill="#697986" d="M1153-1030c0 232-137 352-319 413 34 19 63 47 88 83L1284 0h-242c-51 0-80-22-101-54L637-517c-24-34-42-48-98-48H424V0H155v-1446h441c324 4 557 105 557 416zm-263 20c0-163-114-229-294-228H424v480h168c180-3 298-77 298-252" id="K"/><g id="d"><use transform="matrix(0.008888888888888885,0,0,0.008888888888888885,0,0)" xlink:href="#H"/><use transform="matrix(0.008888888888888885,0,0,0.008888888888888885,12.942222222222217,0)" xlink:href="#I"/><use transform="matrix(0.008888888888888885,0,0,0.008888888888888885,22.47999999999999,0)" xlink:href="#J"/><use transform="matrix(0.008888888888888885,0,0,0.008888888888888885,32.65777777777777,0)" xlink:href="#K"/></g><path fill="#f50057" d="M572-1057c257 0 406 153 406 409V0c-68-4-160 9-208-12-30-14-45-72-60-107C623-47 539 18 382 16 189 13 70-77 70-270c0-183 145-251 311-298 78-21 176-33 295-36 8-132-26-216-144-216-125 0-159 78-268 78-94 0-104-95-146-151 112-100 257-164 454-164zM366-285c-2 73 41 96 114 96 97 0 140-35 196-89v-144c-104 4-184 15-248 46-39 19-61 43-62 91" id="L"/><path fill="#f50057" d="M666 16c-111 3-175-34-236-85v398H120v-1366h192c78-3 80 73 99 128 76-81 169-148 323-148 201 0 299 140 348 307 38 128 40 313-4 439-63 179-182 321-412 327zm124-543c0-153-21-288-164-293-99-3-151 43-196 98v440c40 45 88 70 162 70 160 0 198-144 198-315" id="M"/><path fill="#f50057" d="M440-1037V0H130v-1037h310zm-154-466c113 0 190 70 190 182 0 111-79 180-190 180-109 0-184-71-184-180 0-110 74-182 184-182" id="N"/><path fill="#f50057" d="M236 14C129 14 60-51 60-157c0-105 70-171 176-171 105 0 176 66 176 171 0 106-70 171-176 171" id="O"/><path fill="#f50057" d="M958-162C862-50 728 16 528 16 297 16 159-117 90-293c-49-124-51-307-4-437 70-194 223-323 484-323 177 0 287 60 380 153-36 45-67 98-109 136-73 33-113-34-174-50-21-5-46-11-77-11-169 4-215 131-220 304-6 205 103 354 302 295 57-17 74-74 140-74 25 0 42 10 56 27" id="P"/><path fill="#f50057" d="M366-1016c125-49 306-50 431 0 190 75 313 236 313 495 0 261-123 423-313 499-125 50-306 50-431 0C175-98 50-259 50-521c0-260 126-421 316-495zm4 497c0 183 45 305 212 305 163 0 208-124 208-305 0-182-44-304-208-304-167 0-212 121-212 304" id="Q"/><path fill="#f50057" d="M580-820c-67 0-112 34-150 70V0H120v-1037h192c68-3 78 56 93 108 65-66 139-123 267-124 134-1 209 79 249 178 61-110 169-178 333-178 248 0 368 145 368 394V0h-310v-659c0-107-46-161-138-161-89 1-146 65-146 161V0H718v-659c0-110-37-161-138-161" id="R"/><path fill="#f50057" d="M612-820c-81 1-134 39-182 81V0H120v-1037h192c70-3 79 59 94 112 74-70 159-128 302-128 236 0 352 157 352 394V0H750v-659c0-96-44-162-138-161" id="S"/><path fill="#f50057" d="M544 269c-20 41-37 60-98 60H214L414-91 0-1037h274c46-1 73 23 84 54 69 190 150 371 209 571 68-189 134-380 199-571 10-28 45-55 82-54h250" id="T"/><path fill="#f50057" d="M774-74c-71 55-172 90-290 90-196 0-304-108-304-303v-536c-70 1-146 12-146-61v-121l165-32 61-253c16-78 146-38 230-48v303h252v212H490v515c0 45 23 83 68 83 48 0 88-50 122 4" id="U"/><path fill="#f50057" d="M1024-162C926-48 781 16 578 16 325 16 169-111 94-299c-49-123-59-309-6-439 74-183 225-315 476-315 298 0 466 176 466 475 0 66-3 115-70 115H362c16 155 90 243 244 247 98 2 155-39 218-71 37-18 85-16 110 14zM752-643c-3-120-60-196-182-196-129 0-185 80-205 196h387" id="V"/><path fill="#f50057" d="M768-795c-14 65-88 29-146 29-81 0-145 43-192 130V0H120v-1037c73 2 156-8 222 4 64 11 52 105 69 166 65-96 144-190 283-190 47 0 85 11 114 34" id="W"/><path fill="#f50057" d="M440-1497V0H130v-1497h310" id="X"/><path fill="#f50057" d="M564-1101c10-146-196-154-298-95-28 16-47 35-82 35-29 0-49-13-64-37l-82-126c102-82 223-149 406-149 244 0 402 115 408 354 6 230-160 297-278 405-47 43-40 128-60 196H302c-4-86-47-189-3-262 72-120 253-139 265-321zM398 14c-107 0-176-65-176-171 0-105 70-171 176-171 105 0 176 66 176 171 0 106-70 171-176 171" id="Y"/><g id="e"><use transform="matrix(0.008888888888888889,0,0,0.008888888888888889,0,0)" xlink:href="#L"/><use transform="matrix(0.008888888888888889,0,0,0.008888888888888889,9.582222222222223,0)" xlink:href="#M"/><use transform="matrix(0.008888888888888889,0,0,0.008888888888888889,19.857777777777777,0)" xlink:href="#N"/><use transform="matrix(0.008888888888888889,0,0,0.008888888888888889,24.924444444444443,0)" xlink:href="#O"/><use transform="matrix(0.008888888888888889,0,0,0.008888888888888889,29.119999999999997,0)" xlink:href="#P"/><use transform="matrix(0.008888888888888889,0,0,0.008888888888888889,37.76,0)" xlink:href="#Q"/><use transform="matrix(0.008888888888888889,0,0,0.008888888888888889,48.07111111111111,0)" xlink:href="#R"/><use transform="matrix(0.008888888888888889,0,0,0.008888888888888889,63.37777777777777,0)" xlink:href="#M"/><use transform="matrix(0.008888888888888889,0,0,0.008888888888888889,73.65333333333334,0)" xlink:href="#L"/><use transform="matrix(0.008888888888888889,0,0,0.008888888888888889,83.23555555555558,0)" xlink:href="#S"/><use transform="matrix(0.008888888888888889,0,0,0.008888888888888889,93.19111111111113,0)" xlink:href="#T"/><use transform="matrix(0.008888888888888889,0,0,0.008888888888888889,101.7777777777778,0)" xlink:href="#O"/><use transform="matrix(0.008888888888888889,0,0,0.008888888888888889,105.97333333333337,0)" xlink:href="#N"/><use transform="matrix(0.008888888888888889,0,0,0.008888888888888889,111.04000000000002,0)" xlink:href="#S"/><use transform="matrix(0.008888888888888889,0,0,0.008888888888888889,121.35111111111114,0)" xlink:href="#U"/><use transform="matrix(0.008888888888888889,0,0,0.008888888888888889,128.46222222222224,0)" xlink:href="#V"/><use transform="matrix(0.008888888888888889,0,0,0.008888888888888889,138.13333333333335,0)" xlink:href="#W"/><use transform="matrix(0.008888888888888889,0,0,0.008888888888888889,145.4755555555556,0)" xlink:href="#S"/><use transform="matrix(0.008888888888888889,0,0,0.008888888888888889,155.7866666666667,0)" xlink:href="#L"/><use transform="matrix(0.008888888888888889,0,0,0.008888888888888889,165.36888888888888,0)" xlink:href="#X"/><use transform="matrix(0.008888888888888889,0,0,0.008888888888888889,170.43555555555557,0)" xlink:href="#Y"/></g><path fill="#697986" d="M4-1446h217c48-1 77 26 90 61 125 326 256 646 373 977 12 34 20 70 29 108 15-77 34-144 57-203l339-882c12-30 45-61 89-61h217L831 0H588" id="Z"/><path fill="#697986" d="M377-1009c4 38 6 82 6 121V0H146v-1446c71 6 174-24 211 20 269 320 519 661 779 990-5-42-7-87-7-131v-879h237V0c-64-4-144 10-192-10-14-6-28-19-41-36" id="aa"/><path fill="#697986" d="M991-153C899-47 760 15 568 15 237 15 63-197 63-535c0-237 116-392 287-467 61-27 129-40 206-40 287 0 444 174 444 465 0 54-3 95-57 95H309c4 226 158 349 385 292 52-13 93-39 132-62 32-19 73-16 93 9zM778-631c-4-143-73-234-217-234-154 0-226 95-247 234h464" id="ab"/><path fill="#697986" d="M738-75c-64 55-158 90-269 91-176 2-277-109-277-284v-573c-65-4-153 21-153-52v-98l165-27 52-280c10-66 115-35 183-42v323h270v176H439v556c-1 59 32 101 88 102 48 1 68-25 104-34 19 1 25 9 33 22" id="ac"/><g id="f"><use transform="matrix(0.008888888888888885,0,0,0.008888888888888885,0,0)" xlink:href="#Z"/><use transform="matrix(0.008888888888888885,0,0,0.008888888888888885,12.622222222222216,0)" xlink:href="#aa"/><use transform="matrix(0.008888888888888885,0,0,0.008888888888888885,26.06222222222221,0)" xlink:href="#ab"/><use transform="matrix(0.008888888888888885,0,0,0.008888888888888885,35.56444444444443,0)" xlink:href="#ac"/></g><path fill="#f50057" d="M252-224h280c2-282-4-570 3-848L370-935c-34 38-114 22-140-12l-98-130 454-381h256v1234h240V0H252v-224" id="ad"/><path fill="#f50057" d="M1079-1060c53 176 54 486 0 662-72 237-212 414-501 414-287 0-427-178-498-414-53-176-53-486 0-662 71-237 210-413 498-413s430 177 501 413zM659-254c162-89 162-477 122-722-22-135-65-248-203-248-137 0-179 115-200 248-38 243-40 632 120 722 52 29 109 29 161 0" id="ae"/><path fill="#f50057" d="M532-896c89-35 216-36 312-1 162 59 274 190 274 411 0 240-136 387-313 462-125 53-311 53-436 2C185-96 66-254 66-506c0-186 74-313 166-437l328-443c29-40 94-71 166-71h276c-157 187-313 374-470 561zm46 197c-139 0-214 93-214 235 0 148 69 235 218 235 140 0 226-93 226-234 0-150-82-236-230-236" id="af"/><path fill="#f50057" d="M1126-566c-12 87 37 230-60 231h-90V0H706v-335H120c-39 1-76-30-82-63L6-551l674-906h296v891h150zm-420 0c3-181-8-372 10-539L331-566h375" id="ag"/><path fill="#f50057" d="M86-1041c45-269 211-432 516-432 221 0 368 97 436 253 40 91 43 220 10 318-51 154-158 259-262 365L501-245c130-48 308-33 481-35 63-1 108 39 108 100V0H66c-2-94 2-169 54-222l420-423c101-110 202-200 212-395 7-138-99-209-232-170-58 17-99 60-118 117-22 66-66 96-152 81" id="ah"/><g id="g"><use transform="matrix(0.008888888888888889,0,0,0.008888888888888889,0,0)" xlink:href="#ad"/><use transform="matrix(0.008888888888888889,0,0,0.008888888888888889,10.311111111111112,0)" xlink:href="#ae"/><use transform="matrix(0.008888888888888889,0,0,0.008888888888888889,20.622222222222224,0)" xlink:href="#ae"/><use transform="matrix(0.008888888888888889,0,0,0.008888888888888889,30.933333333333337,0)" xlink:href="#O"/><use transform="matrix(0.008888888888888889,0,0,0.008888888888888889,35.128888888888895,0)" xlink:href="#af"/><use transform="matrix(0.008888888888888889,0,0,0.008888888888888889,45.440000000000005,0)" xlink:href="#ag"/><use transform="matrix(0.008888888888888889,0,0,0.008888888888888889,55.75111111111111,0)" xlink:href="#O"/><use transform="matrix(0.008888888888888889,0,0,0.008888888888888889,59.94666666666667,0)" xlink:href="#ae"/><use transform="matrix(0.008888888888888889,0,0,0.008888888888888889,70.25777777777779,0)" xlink:href="#O"/><use transform="matrix(0.008888888888888889,0,0,0.008888888888888889,74.45333333333335,0)" xlink:href="#ah"/></g><path fill="#512fc9" d="M449 0H179v-1446h270V0" id="ai"/><path fill="#512fc9" d="M4-1446h217c48-1 77 26 90 61 125 326 256 646 373 977 12 34 20 70 29 108 15-77 34-144 57-203l339-882c12-30 45-61 89-61h217L831 0H588" id="aj"/><g id="h"><use transform="matrix(0.00837,0,0,0.00837,0,0)" xlink:href="#E"/><use transform="matrix(0.00837,0,0,0.00837,10.4625,0)" xlink:href="#B"/><use transform="matrix(0.00837,0,0,0.00837,21.4272,0)" xlink:href="#ai"/><use transform="matrix(0.00837,0,0,0.00837,26.68356,0)" xlink:href="#aj"/><use transform="matrix(0.00837,0,0,0.00837,37.154430000000005,0)" xlink:href="#D"/><use transform="matrix(0.00837,0,0,0.00837,47.80944000000001,0)" xlink:href="#F"/><use transform="matrix(0.00837,0,0,0.00837,57.76974000000001,0)" xlink:href="#A"/></g><path fill="#512fc9" d="M377-1009c4 38 6 82 6 121V0H146v-1446c71 6 174-24 211 20 269 320 519 661 779 990-5-42-7-87-7-131v-879h237V0c-64-4-144 10-192-10-14-6-28-19-41-36" id="ak"/><path fill="#512fc9" d="M12-1446h226c47 0 80 25 90 61 87 312 181 618 262 935 6 25 10 51 15 79 10-53 22-104 38-149l284-865c11-30 46-61 89-61 78 0 148-4 169 61l282 865c15 43 27 90 38 142 9-49 18-98 30-142l246-865c9-33 45-61 89-61h211L1632 0h-243c-113-359-232-713-341-1076C938-712 818-360 704 0H461" id="al"/><path fill="#512fc9" d="M424-840c74 2 135-1 169-44l399-505c32-39 58-57 122-57h232L859-845c-28 33-52 59-89 78 50 19 80 49 111 90L1383 0h-238c-63 0-84-18-111-53L625-587c-28-35-53-49-116-49h-85V0H155v-1447h269v607" id="am"/><g id="i"><use transform="matrix(0.00837,0,0,0.00837,0,0)" xlink:href="#ak"/><use transform="matrix(0.00837,0,0,0.00837,12.65544,0)" xlink:href="#A"/><use transform="matrix(0.00837,0,0,0.00837,22.23909,0)" xlink:href="#F"/><use transform="matrix(0.00837,0,0,0.00837,32.19939,0)" xlink:href="#al"/><use transform="matrix(0.00837,0,0,0.00837,49.717800000000004,0)" xlink:href="#G"/><use transform="matrix(0.00837,0,0,0.00837,63.10143000000001,0)" xlink:href="#B"/><use transform="matrix(0.00837,0,0,0.00837,74.06613000000002,0)" xlink:href="#am"/></g><filter id="j" filterUnits="objectBoundingBox" x="-.13" y="-.07" width="1.25" height="1.25"><feOffset result="offOut" in="SourceAlpha" dy="4"/><feGaussianBlur result="blurOut" in="offOut" stdDeviation="5"/><feColorMatrix result="colorOut" in="blurOut" values="0 0 0 0 0 0 0 0 0 0.2996078431372549 0 0 0 0 0.25882352941176473 0 0 0 0.4 0"/><feBlend in="SourceGraphic" in2="colorOut"/></filter><path fill="#00bfa5" d="M1187-985c0 329-222 471-561 476H424V0H155v-1446h471c337 4 561 134 561 461zm-269 0c0-176-112-253-292-253H424v519h202c184-1 292-85 292-266" id="an"/><path fill="#00bfa5" d="M1153-1030c0 232-137 352-319 413 34 19 63 47 88 83L1284 0h-242c-51 0-80-22-101-54L637-517c-24-34-42-48-98-48H424V0H155v-1446h441c324 4 557 105 557 416zm-263 20c0-163-114-229-294-228H424v480h168c180-3 298-77 298-252" id="ao"/><path fill="#00bfa5" d="M1480-1018c71 176 71 414 0 590-106 261-323 444-679 444S225-168 120-428c-71-176-71-414 0-590 106-261 324-444 681-444 355 0 573 184 679 444zM801-214c307 0 456-198 456-509s-149-510-456-510c-308 0-459 198-459 510s152 509 459 509" id="ap"/><path fill="#00bfa5" d="M493-744L32-1446h268c38 0 48 9 63 32l329 531c7-19 15-35 25-51l301-475c15-25 34-37 57-37h258L867-755 1346 0h-269c-37 1-57-23-71-46L671-600c-5 15-12 29-19 42L331-46c-14 20-33 47-67 46H12" id="aq"/><path fill="#00bfa5" d="M789-562V0H520v-562L-7-1446h237c50 0 72 27 90 60 102 188 210 370 305 564 12 25 22 51 31 76 20-56 40-105 69-157l263-483c15-28 44-60 89-60h238" id="ar"/><g id="k"><use transform="matrix(0.008888888888888885,0,0,0.008888888888888885,0,0)" xlink:href="#an"/><use transform="matrix(0.008888888888888885,0,0,0.008888888888888885,11.111111111111107,0)" xlink:href="#ao"/><use transform="matrix(0.008888888888888885,0,0,0.008888888888888885,22.328888888888883,0)" xlink:href="#ap"/><use transform="matrix(0.008888888888888885,0,0,0.008888888888888885,36.27555555555554,0)" xlink:href="#aq"/><use transform="matrix(0.008888888888888885,0,0,0.008888888888888885,48.34666666666665,0)" xlink:href="#ar"/></g><path fill="#697986" d="M565-850c-86 0-140 48-186 99V0H132v-1026c80 9 198-29 214 45l16 76c67-72 141-136 276-137 139-1 214 86 253 192 57-117 162-192 328-192 240 0 354 147 354 389V0h-247v-653c1-123-52-197-169-197s-180 76-180 197V0H729v-653c0-127-46-197-164-197" id="as"/><path fill="#697986" d="M1165-1446v221H730V0H461v-1225H24v-221h1141" id="at"/><path fill="#697986" d="M415-222h579V0H146v-1446h269v1224" id="au"/><g id="l"><use transform="matrix(0.007777777777777774,0,0,0.007777777777777774,0,0)" xlink:href="#as"/><use transform="matrix(0.007777777777777774,0,0,0.007777777777777774,13.097777777777772,0)" xlink:href="#at"/><use transform="matrix(0.007777777777777774,0,0,0.007777777777777774,22.353333333333325,0)" xlink:href="#au"/><use transform="matrix(0.007777777777777774,0,0,0.007777777777777774,30.395555555555543,0)" xlink:href="#I"/></g><g id="m"><use transform="matrix(0.007777777777777774,0,0,0.007777777777777774,0,0)" xlink:href="#at"/><use transform="matrix(0.007777777777777774,0,0,0.007777777777777774,9.255555555555551,0)" xlink:href="#H"/><use transform="matrix(0.007777777777777774,0,0,0.007777777777777774,20.57999999999999,0)" xlink:href="#aa"/><use transform="matrix(0.007777777777777774,0,0,0.007777777777777774,32.33999999999999,0)" xlink:href="#aa"/><use transform="matrix(0.007777777777777774,0,0,0.007777777777777774,44.09999999999998,0)" xlink:href="#J"/><use transform="matrix(0.007777777777777774,0,0,0.007777777777777774,53.00555555555553,0)" xlink:href="#au"/></g><path fill="#00bfa5" d="M1165-1446v221H730V0H461v-1225H24v-221h1141" id="av"/><path fill="#00bfa5" d="M1284-209C1170-69 1008 19 759 16c-347-4-553-182-649-442-66-178-66-423 6-596 108-261 330-435 688-440 220-3 375 79 488 188l-90 125c-16 32-68 39-102 12-71-55-162-101-298-96-304 11-465 201-465 510 0 241 101 401 267 477 125 58 330 39 424-24 42-17 97-111 150-54" id="aw"/><g id="n"><use transform="matrix(0.008888888888888889,0,0,0.008888888888888889,0,0)" xlink:href="#av"/><use transform="matrix(0.008888888888888889,0,0,0.008888888888888889,9.884444444444444,0)" xlink:href="#aw"/><use transform="matrix(0.008888888888888889,0,0,0.008888888888888889,21.80444444444444,0)" xlink:href="#an"/></g><path fill="#f50057" d="M1377-1015c71 172 71 412 0 584C1271-174 1052 0 698 0H146v-1446h552c353 6 574 175 679 431zM698-214c307-9 457-198 457-509s-150-500-457-509H417v1018h281" id="ax"/><path fill="#f50057" d="M377-1009c4 38 6 82 6 121V0H146v-1446c71 6 174-24 211 20 269 320 519 661 779 990-5-42-7-87-7-131v-879h237V0c-64-4-144 10-192-10-14-6-28-19-41-36" id="ay"/><path fill="#f50057" d="M519-204c146 0 246-70 241-211-6-175-195-185-333-232-183-63-339-153-333-400 5-199 120-319 272-380 126-51 311-44 437 5 72 27 133 64 184 112l-66 127c-15 40-64 51-105 25-64-41-136-87-246-85-132 3-224 54-224 182 0 167 202 176 334 227 173 67 333 144 333 381 0 227-120 364-289 433-138 56-353 39-478-16-80-35-154-80-210-138l78-129c23-34 74-43 115-13 73 54 157 112 290 112" id="az"/><g id="o"><use transform="matrix(0.008888888888888889,0,0,0.008888888888888889,0,0)" xlink:href="#ax"/><use transform="matrix(0.008888888888888889,0,0,0.008888888888888889,13.28888888888889,0)" xlink:href="#ay"/><use transform="matrix(0.008888888888888889,0,0,0.008888888888888889,26.72888888888889,0)" xlink:href="#az"/></g><path fill="#00bfa5" d="M252-224h280c2-282-4-570 3-848L370-935c-34 38-114 22-140-12l-98-130 454-381h256v1234h240V0H252v-224" id="aA"/><path fill="#00bfa5" d="M1079-1060c53 176 54 486 0 662-72 237-212 414-501 414-287 0-427-178-498-414-53-176-53-486 0-662 71-237 210-413 498-413s430 177 501 413zM659-254c162-89 162-477 122-722-22-135-65-248-203-248-137 0-179 115-200 248-38 243-40 632 120 722 52 29 109 29 161 0" id="aB"/><path fill="#00bfa5" d="M236 14C129 14 60-51 60-157c0-105 70-171 176-171 105 0 176 66 176 171 0 106-70 171-176 171" id="aC"/><path fill="#00bfa5" d="M532-896c89-35 216-36 312-1 162 59 274 190 274 411 0 240-136 387-313 462-125 53-311 53-436 2C185-96 66-254 66-506c0-186 74-313 166-437l328-443c29-40 94-71 166-71h276c-157 187-313 374-470 561zm46 197c-139 0-214 93-214 235 0 148 69 235 218 235 140 0 226-93 226-234 0-150-82-236-230-236" id="aD"/><path fill="#00bfa5" d="M1126-566c-12 87 37 230-60 231h-90V0H706v-335H120c-39 1-76-30-82-63L6-551l674-906h296v891h150zm-420 0c3-181-8-372 10-539L331-566h375" id="aE"/><path fill="#00bfa5" d="M86-1041c45-269 211-432 516-432 221 0 368 97 436 253 40 91 43 220 10 318-51 154-158 259-262 365L501-245c130-48 308-33 481-35 63-1 108 39 108 100V0H66c-2-94 2-169 54-222l420-423c101-110 202-200 212-395 7-138-99-209-232-170-58 17-99 60-118 117-22 66-66 96-152 81" id="aF"/><g id="p"><use transform="matrix(0.008888888888888889,0,0,0.008888888888888889,0,0)" xlink:href="#aA"/><use transform="matrix(0.008888888888888889,0,0,0.008888888888888889,10.311111111111112,0)" xlink:href="#aB"/><use transform="matrix(0.008888888888888889,0,0,0.008888888888888889,20.622222222222224,0)" xlink:href="#aB"/><use transform="matrix(0.008888888888888889,0,0,0.008888888888888889,30.933333333333337,0)" xlink:href="#aC"/><use transform="matrix(0.008888888888888889,0,0,0.008888888888888889,35.128888888888895,0)" xlink:href="#aD"/><use transform="matrix(0.008888888888888889,0,0,0.008888888888888889,45.440000000000005,0)" xlink:href="#aE"/><use transform="matrix(0.008888888888888889,0,0,0.008888888888888889,55.75111111111111,0)" xlink:href="#aC"/><use transform="matrix(0.008888888888888889,0,0,0.008888888888888889,59.94666666666667,0)" xlink:href="#aB"/><use transform="matrix(0.008888888888888889,0,0,0.008888888888888889,70.25777777777779,0)" xlink:href="#aC"/><use transform="matrix(0.008888888888888889,0,0,0.008888888888888889,74.45333333333335,0)" xlink:href="#aF"/></g><path fill="#697986" d="M556-1045c246 0 380 151 380 397V0c-79-6-181 23-196-53l-22-73C630-49 541 18 379 16 194 13 81-77 81-262c0-184 152-247 321-292 78-21 176-31 293-34 10-155-29-262-170-262-104 0-161 40-224 77-47 28-107 5-127-31l-45-79c118-108 260-162 427-162zM317-275c-3 86 56 121 139 121 117 0 179-51 239-111v-173c-122 6-219 17-297 53-49 22-79 51-81 110" id="aG"/><path fill="#697986" d="M635 15C514 15 442-25 379-85v420H132v-1361c64 5 145-11 192 11 33 24 28 86 42 129 78-86 174-159 331-159 277 0 379 232 379 524 0 241-96 412-258 495-54 27-116 41-183 41zm186-536c0-181-37-329-209-329-117 0-175 55-233 124v460c48 60 104 93 198 93 188 0 244-152 244-348" id="aH"/><path fill="#697986" d="M395-1026V0H148v-1026h247zm-123-457c96 0 160 62 160 158 0 94-65 155-160 155-93 0-156-62-156-155 0-95 61-158 156-158" id="aI"/><path fill="#697986" d="M225 14C133 14 73-43 73-136c0-92 60-151 152-151 91 0 151 60 151 151 0 92-59 150-151 150" id="aJ"/><path fill="#697986" d="M928-153C839-49 712 15 524 15c-227 0-358-131-424-305-47-123-49-306-4-434 67-190 213-318 465-318 165 0 270 58 357 143-29 37-52 81-86 112-71 26-104-41-170-55-24-5-52-12-86-12-192 5-260 143-260 339 0 194 67 336 254 342 98 3 148-38 200-79 26-20 67-17 87 9" id="aK"/><path fill="#697986" d="M361-1005c121-49 297-49 417 0 184 74 298 236 298 490 0 330-178 530-506 530C241 15 61-185 61-515c0-254 115-416 300-490zm-45 492c0 201 65 338 254 338 188 0 251-137 251-338s-63-340-251-340c-189 0-254 139-254 340" id="aL"/><path fill="#697986" d="M605-850c-102 1-168 52-226 108V0H132v-1026c80 9 198-29 214 45l17 81c77-76 165-142 317-142 235 0 346 154 346 389V0H779v-653c0-121-55-198-174-197" id="aM"/><path fill="#697986" d="M496 282c-21 85-170 43-266 53L422-76 7-1026h216c39-1 60 21 70 46 80 195 164 386 238 586 7 18 10 37 14 56 74-221 164-427 244-642 9-24 36-46 68-46h198" id="aN"/><path fill="#697986" d="M604-806c-122 5-180 74-225 167V0H132v-1026c83 11 206-35 218 62l15 124c63-106 147-205 295-205 51 0 93 12 126 35l-32 185c-4 23-15 33-40 33-33 0-65-16-110-14" id="aO"/><path fill="#697986" d="M395-1486V0H148v-1486h247" id="aP"/><g id="q"><use transform="matrix(0.008888888888888885,0,0,0.008888888888888885,0,0)" xlink:href="#aG"/><use transform="matrix(0.008888888888888885,0,0,0.008888888888888885,9.306666666666663,0)" xlink:href="#aH"/><use transform="matrix(0.008888888888888885,0,0,0.008888888888888885,19.359999999999992,0)" xlink:href="#aI"/><use transform="matrix(0.008888888888888885,0,0,0.008888888888888885,24.17777777777777,0)" xlink:href="#aJ"/><use transform="matrix(0.008888888888888885,0,0,0.008888888888888885,28.17777777777777,0)" xlink:href="#aK"/><use transform="matrix(0.008888888888888885,0,0,0.008888888888888885,36.65777777777777,0)" xlink:href="#aL"/><use transform="matrix(0.008888888888888885,0,0,0.008888888888888885,46.76444444444443,0)" xlink:href="#as"/><use transform="matrix(0.008888888888888885,0,0,0.008888888888888885,61.733333333333306,0)" xlink:href="#aH"/><use transform="matrix(0.008888888888888885,0,0,0.008888888888888885,71.78666666666665,0)" xlink:href="#aG"/><use transform="matrix(0.008888888888888885,0,0,0.008888888888888885,81.0933333333333,0)" xlink:href="#aM"/><use transform="matrix(0.008888888888888885,0,0,0.008888888888888885,90.87999999999997,0)" xlink:href="#aN"/><use transform="matrix(0.008888888888888885,0,0,0.008888888888888885,99.15555555555552,0)" xlink:href="#aJ"/><use transform="matrix(0.008888888888888885,0,0,0.008888888888888885,103.15555555555551,0)" xlink:href="#aI"/><use transform="matrix(0.008888888888888885,0,0,0.008888888888888885,107.97333333333329,0)" xlink:href="#aM"/><use transform="matrix(0.008888888888888885,0,0,0.008888888888888885,118.07999999999996,0)" xlink:href="#ac"/><use transform="matrix(0.008888888888888885,0,0,0.008888888888888885,124.95999999999995,0)" xlink:href="#ab"/><use transform="matrix(0.008888888888888885,0,0,0.008888888888888885,134.46222222222218,0)" xlink:href="#aO"/><use transform="matrix(0.008888888888888885,0,0,0.008888888888888885,141.7244444444444,0)" xlink:href="#aM"/><use transform="matrix(0.008888888888888885,0,0,0.008888888888888885,151.83111111111106,0)" xlink:href="#aG"/><use transform="matrix(0.008888888888888885,0,0,0.008888888888888885,161.13777777777773,0)" xlink:href="#aP"/></g><path fill="#697986" d="M1377-1015c71 172 71 412 0 584C1271-174 1052 0 698 0H146v-1446h552c353 6 574 175 679 431zM698-214c307-9 457-198 457-509s-150-500-457-509H417v1018h281" id="aQ"/><g id="r"><use transform="matrix(0.008888888888888885,0,0,0.008888888888888885,0,0)" xlink:href="#aQ"/><use transform="matrix(0.008888888888888885,0,0,0.008888888888888885,13.288888888888884,0)" xlink:href="#aa"/><use transform="matrix(0.008888888888888885,0,0,0.008888888888888885,26.72888888888888,0)" xlink:href="#I"/></g><g id="s"><use transform="matrix(0.008888888888888885,0,0,0.008888888888888885,0,0)" xlink:href="#I"/><use transform="matrix(0.008888888888888885,0,0,0.008888888888888885,9.537777777777775,0)" xlink:href="#J"/><use transform="matrix(0.008888888888888885,0,0,0.008888888888888885,19.715555555555547,0)" xlink:href="#K"/><use transform="matrix(0.008888888888888885,0,0,0.008888888888888885,31.359999999999985,0)" xlink:href="#Z"/><use transform="matrix(0.008888888888888885,0,0,0.008888888888888885,43.982222222222205,0)" xlink:href="#J"/><use transform="matrix(0.008888888888888885,0,0,0.008888888888888885,54.159999999999975,0)" xlink:href="#K"/></g><g id="t"><use transform="matrix(0.008888888888888889,0,0,0.008888888888888889,0,0)" xlink:href="#ad"/><use transform="matrix(0.008888888888888889,0,0,0.008888888888888889,10.311111111111112,0)" xlink:href="#ae"/><use transform="matrix(0.008888888888888889,0,0,0.008888888888888889,20.622222222222224,0)" xlink:href="#O"/><use transform="matrix(0.008888888888888889,0,0,0.008888888888888889,24.817777777777778,0)" xlink:href="#ae"/><use transform="matrix(0.008888888888888889,0,0,0.008888888888888889,35.12888888888889,0)" xlink:href="#O"/><use transform="matrix(0.008888888888888889,0,0,0.008888888888888889,39.324444444444445,0)" xlink:href="#ad"/><use transform="matrix(0.008888888888888889,0,0,0.008888888888888889,49.635555555555555,0)" xlink:href="#O"/><use transform="matrix(0.008888888888888889,0,0,0.008888888888888889,53.83111111111111,0)" xlink:href="#ad"/></g><g id="u"><use transform="matrix(0.008888888888888889,0,0,0.008888888888888889,0,0)" xlink:href="#aA"/><use transform="matrix(0.008888888888888889,0,0,0.008888888888888889,10.311111111111112,0)" xlink:href="#aB"/><use transform="matrix(0.008888888888888889,0,0,0.008888888888888889,20.622222222222224,0)" xlink:href="#aC"/><use transform="matrix(0.008888888888888889,0,0,0.008888888888888889,24.817777777777778,0)" xlink:href="#aB"/><use transform="matrix(0.008888888888888889,0,0,0.008888888888888889,35.12888888888889,0)" xlink:href="#aC"/><use transform="matrix(0.008888888888888889,0,0,0.008888888888888889,39.324444444444445,0)" xlink:href="#aA"/><use transform="matrix(0.008888888888888889,0,0,0.008888888888888889,49.635555555555555,0)" xlink:href="#aC"/><use transform="matrix(0.008888888888888889,0,0,0.008888888888888889,53.83111111111111,0)" xlink:href="#aA"/></g><path fill="#512fc9" d="M1177-1061c0 181-116 262-257 314 199 45 298 152 298 322C1218-130 997 0 692 0H146v-1446h499c307 3 532 89 532 385zM952-431c0-152-108-202-265-203H415v424h273c163-1 264-65 264-221zm-43-598c0-163-94-209-264-209H415v418h215c168-1 279-50 279-209" id="aR"/><path fill="#512fc9" d="M1284-209C1170-69 1008 19 759 16c-347-4-553-182-649-442-66-178-66-423 6-596 108-261 330-435 688-440 220-3 375 79 488 188l-90 125c-16 32-68 39-102 12-71-55-162-101-298-96-304 11-465 201-465 510 0 241 101 401 267 477 125 58 330 39 424-24 42-17 97-111 150-54" id="aS"/><g id="v"><use transform="matrix(0.00837,0,0,0.00837,0,0)" xlink:href="#E"/><use transform="matrix(0.00837,0,0,0.00837,10.4625,0)" xlink:href="#y"/><use transform="matrix(0.00837,0,0,0.00837,22.64922,0)" xlink:href="#aR"/><use transform="matrix(0.00837,0,0,0.00837,33.55533,0)" xlink:href="#C"/><use transform="matrix(0.00837,0,0,0.00837,42.20991,0)" xlink:href="#ai"/><use transform="matrix(0.00837,0,0,0.00837,47.46627,0)" xlink:href="#aS"/></g><path fill="#697986" d="M1417 0h-208c-47 1-77-28-90-61l-108-295H412L304-61c-11 30-46 61-89 61H6l568-1446h275zM481-546h461c-77-218-163-424-231-651-66 230-154 432-230 651" id="aT"/><path fill="#697986" d="M1187-985c0 329-222 471-561 476H424V0H155v-1446h471c337 4 561 134 561 461zm-269 0c0-176-112-253-292-253H424v519h202c184-1 292-85 292-266" id="aU"/><g id="w"><use transform="matrix(0.008888888888888885,0,0,0.008888888888888885,0,0)" xlink:href="#aT"/><use transform="matrix(0.008888888888888885,0,0,0.008888888888888885,12.622222222222216,0)" xlink:href="#aU"/><use transform="matrix(0.008888888888888885,0,0,0.008888888888888885,23.733333333333324,0)" xlink:href="#aU"/></g><path fill="#697986" d="M1341-140C1204-38 1028 20 789 16c-350-5-566-186-673-442-73-175-71-420-1-596 107-266 333-435 699-440 235-2 404 78 526 189l-78 122c-45 78-131 10-176-17-110-67-334-90-474-29-171 74-275 233-275 474 0 251 105 414 283 489 144 62 360 37 477-26v-263H916c-88 2-46-125-56-202h481v585" id="aV"/><g id="x"><use transform="matrix(0.008888888888888885,0,0,0.008888888888888885,0,0)" xlink:href="#aT"/><use transform="matrix(0.008888888888888885,0,0,0.008888888888888885,12.168888888888883,0)" xlink:href="#aV"/><use transform="matrix(0.008888888888888885,0,0,0.008888888888888885,25.02222222222221,0)" xlink:href="#J"/><use transform="matrix(0.008888888888888885,0,0,0.008888888888888885,35.19999999999999,0)" xlink:href="#aa"/><use transform="matrix(0.008888888888888885,0,0,0.008888888888888885,48.639999999999986,0)" xlink:href="#at"/></g></defs></g></svg>