<svg xmlns="http://www.w3.org/2000/svg" xmlns:xlink="http://www.w3.org/1999/xlink" xmlns:lucid="lucid" width="1481.01" height="468.01"><g transform="translate(720.0123575036405 -3173.3552331449023)" lucid:page-tab-id="0_0"><path d="M-281.16 3603a3 3 0 0 1 3-3h26a3 3 0 0 1 3 3v26a3 3 0 0 1-3 3h-26a3 3 0 0 1-3-3z" fill-opacity="0"/><path d="M-260.83 3600h8.67a3 3 0 0 1 3 3v8.67m0 8.66v8.67a3 3 0 0 1-3 3h-8.67m-8.67 0h-8.66a3 3 0 0 1-3-3v-8.67m0-8.66V3603a3 3 0 0 1 3-3h8.66" stroke="#1071e5" stroke-width="2" fill="none"/><path d="M-719 3208a8 8 0 0 1 8-8h581.87a8 8 0 0 1 8 8v364a8 8 0 0 1-8 8H-711a8 8 0 0 1-8-8z" stroke="#512fc9" stroke-width="2" fill="#fff"/><path d="M-719 3222.7h283.18v13.6h-283.2z" stroke="#000" stroke-opacity="0" stroke-width="2" fill="#fff" fill-opacity="0"/><path d="M-700 3226a6 6 0 0 1 6-6h116a6 6 0 0 1 6 6v116a6 6 0 0 1-6 6h-116a6 6 0 0 1-6-6z" stroke="#512fc9" stroke-opacity=".2" stroke-width="2" fill="#fff" filter="url(#a)"/><path d="M-700 3366a6 6 0 0 1 6-6h116a6 6 0 0 1 6 6v12a6 6 0 0 1-6 6h-116a6 6 0 0 1-6-6z" fill="none"/><use xlink:href="#b" transform="matrix(1,0,0,1,-700,3360) translate(15.38222222222224 18.879999999999995)"/><use xlink:href="#c" transform="matrix(1,0,0,1,-700,3360) translate(51.72888888888889 18.879999999999995)"/><path d="M-608.98 3266.34c0 8.2-6.7 14.88-14.87 14.88-8.26 0-14.87-6.67-14.87-14.88 0-8.2 6.6-14.87 14.87-14.87 8.18 0 14.87 6.67 14.87 14.88zM-643.7 3276.26c0 5.47-4.46 9.92-9.9 9.92-5.5 0-9.95-4.44-9.95-9.92 0-5.47 4.46-9.92 9.96-9.92 5.44 0 9.9 4.45 9.9 9.92zM-673.44 3305c0-7.65 6.24-13.86 13.9-13.86h11.9c7.65 0 13.82 6.2 13.82 13.85 0 1.93-1.56 3.47-3.42 3.47h-32.7c-1.94 0-3.5-1.54-3.5-3.48z" stroke="#000" stroke-opacity="0" fill="#512fc9"/><path d="M-643.26 3289.2c6.92 1.88 11.97 8.15 11.97 15.68 0 1.3-.43 2.56-1.18 3.6h28.92c2.46 0 4.46-2 4.46-4.46 0-9.86-7.95-17.84-17.84-17.84h-16.35c-3.7 0-7.13 1.08-9.96 3.02z" stroke="#000" stroke-opacity="0" fill="#512fc9"/><path d="M-510.82 3226a6 6 0 0 1 6-6h176.05a6 6 0 0 1 6 6v19.33a6 6 0 0 1-6 6h-176.05a6 6 0 0 1-6-6z" fill="#fff" fill-opacity="0"/><use xlink:href="#d" transform="matrix(1,0,0,1,-505.8188784005588,3225) translate(0.3622222222222149 17.546666666666667)"/><path d="M-598.28 3604a3 3 0 0 1 3-3h26a3 3 0 0 1 3 3v26a3 3 0 0 1-3 3h-26a3 3 0 0 1-3-3z" fill-opacity="0"/><path d="M-577.95 3601h8.67a3 3 0 0 1 3 3v8.67m0 8.66v8.67a3 3 0 0 1-3 3h-8.67m-8.66 0h-8.68a3 3 0 0 1-3-3v-8.67m0-8.66V3604a3 3 0 0 1 3-3h8.66" stroke="#00bfa5" stroke-width="2" fill="none"/><path d="M-569 3237.67h18.73m18.72 0h18.73" stroke="#f50057" stroke-width="4" fill="none"/><path d="M-568.95 3239.64H-571v-3.95h2.05zM-510.82 3239.64h-2.05v-3.95h2.05z" stroke="#f50057" stroke-width=".05" fill="#f50057"/><path d="M-320.77 3237.67h39.47" stroke="#f50057" stroke-width="4" fill="none"/><path d="M-320.72 3239.64h-2.05v-3.95h2.05z" stroke="#f50057" stroke-width=".05" fill="#f50057"/><path d="M-266.3 3237.67l-13 7.5v-15z" stroke="#f50057" stroke-width="4" fill="#f50057"/><path d="M-480.8 3253.25a6 6 0 0 1 6-6h116a6 6 0 0 1 6 6v19.33a6 6 0 0 1-6 6h-116a6 6 0 0 1-6-6z" fill="#fff" fill-opacity="0"/><use xlink:href="#e" transform="matrix(1,0,0,1,-475.79665617833655,3252.247992141838) translate(16.617777777777768 17.546666666666667)"/><path d="M-552 3264.9h23.06m23.07 0h23.07" stroke="#f50057" stroke-width="4" fill="none"/><path d="M-567 3264.9l13-7.5v15z" stroke="#f50057" stroke-width="4" fill="#f50057"/><path d="M-480.8 3266.9h-2.05v-3.96h2.05z" stroke="#f50057" stroke-width=".05" fill="#f50057"/><path d="M-350.8 3264.9h28.83m28.84 0h28.82" stroke="#f50057" stroke-width="4" fill="none"/><path d="M-350.75 3266.9h-2.05v-3.96h2.06z" stroke="#f50057" stroke-width=".05" fill="#f50057"/><path d="M-264.36 3264.9h2.06" stroke="#f50057" stroke-width="4" fill="none"/><path d="M139.8 3208a8 8 0 0 1 8-8H752a8 8 0 0 1 8 8v364a8 8 0 0 1-8 8H147.8a8 8 0 0 1-8-8z" stroke="#512fc9" stroke-width="2" fill="#fff"/><path d="M139.8 3205.8h298.9v20.28H139.8z" stroke="#000" stroke-opacity="0" stroke-width="2" fill="#fff" fill-opacity="0"/><path d="M-100.2 3208a8 8 0 0 1 8-8H112a8 8 0 0 1 8 8v364a8 8 0 0 1-8 8H-92.2a8 8 0 0 1-8-8z" stroke="#512fc9" stroke-width="2" fill="#fff"/><path d="M-132.74 3235.9a3 3 0 0 1 3-3h292.5a3 3 0 0 1 3 3v77.77a3 3 0 0 1-3 3h-292.5a3 3 0 0 1-3-3z" stroke="#000" stroke-opacity="0" fill="#512fc9" fill-opacity=".07"/><path d="M-130.3 3274.88h18.4m18.4 0h36.82m18.4 0h36.8m18.42 0h36.8m18.42 0h36.8m18.4 0h18.42M-130.25 3274.88h-2.06" stroke="#00bfa5" stroke-width="4" fill="none"/><path d="M160.77 3274.88l-13 7.5v-15z" stroke="#00bfa5" stroke-width="4" fill="#00bfa5"/><path d="M50 3274.8c0 22.08-17.9 40-40 40s-40-17.92-40-40c0-22.1 17.9-40 40-40s40 17.9 40 40z" stroke="#00bfa5" stroke-width="4" fill="#fff" filter="url(#f)"/><path d="M29.8 3257.17H-9.8c-.85 0-1.4.55-1.4 1.4v5.66c0 .84.55 1.43 1.4 1.43h39.6c.85 0 1.4-.6 1.4-1.43v-5.66c0-.85-.55-1.4-1.4-1.4zm-8.48 5.66c-.85 0-1.44-.6-1.44-1.43 0-.85.6-1.4 1.44-1.4.85 0 1.4.55 1.4 1.4 0 .84-.55 1.43-1.4 1.43zm7.04 0h-2.8c-.85 0-1.44-.6-1.44-1.43 0-.85.6-1.4 1.44-1.4h2.8c.85 0 1.44.55 1.44 1.4 0 .84-.6 1.43-1.44 1.43zM29.8 3271.32H-9.8c-.85 0-1.4.55-1.4 1.4v5.65c0 .85.55 1.4 1.4 1.4H8.6V3285.72c-1.27.4-2.12 1.4-2.54 2.54H-5.56c-.85 0-1.4.6-1.4 1.43 0 .84.55 1.4 1.4 1.4H6.06c.55 1.68 2.12 2.82 3.94 2.82 1.82 0 3.4-1.14 3.94-2.83H25.56c.85 0 1.4-.56 1.4-1.4 0-.85-.55-1.44-1.4-1.44H13.94c-.42-1.25-1.4-2.13-2.54-2.54V3279.77h18.4c.85 0 1.4-.55 1.4-1.4v-5.66c0-.83-.55-1.38-1.4-1.38zm-33.92 5.62c-.85 0-1.44-.55-1.44-1.4 0-.84.6-1.4 1.44-1.4.85 0 1.4.56 1.4 1.4 0 .85-.55 1.4-1.4 1.4zm4.24 0c-.85 0-1.44-.55-1.44-1.4 0-.84.6-1.4 1.44-1.4.85 0 1.4.56 1.4 1.4 0 .85-.55 1.4-1.4 1.4zm4.24 0c-.85 0-1.44-.55-1.44-1.4 0-.84.6-1.4 1.44-1.4.85 0 1.4.56 1.4 1.4 0 .85-.55 1.4-1.4 1.4zm2.8-1.4c0-.84.6-1.4 1.44-1.4.85 0 1.4.56 1.4 1.4 0 .85-.55 1.4-1.4 1.4-.85 0-1.44-.55-1.44-1.4zm14.16 1.4c-.85 0-1.44-.55-1.44-1.4 0-.84.6-1.4 1.44-1.4.85 0 1.4.56 1.4 1.4 0 .85-.55 1.4-1.4 1.4zm7.04 0h-2.8c-.85 0-1.44-.55-1.44-1.4 0-.84.6-1.4 1.44-1.4h2.8c.85 0 1.44.56 1.44 1.4 0 .85-.6 1.4-1.44 1.4z" stroke="#000" stroke-opacity="0" stroke-width="4.69" fill="#00bfa5"/><path d="M-30 3329.92a6 6 0 0 1 6-6h68a6 6 0 0 1 6 6v12a6 6 0 0 1-6 6h-68a6 6 0 0 1-6-6z" fill="none"/><use xlink:href="#g" transform="matrix(1,0,0,1,-30,3323.9167555475055) translate(10.008888888888897 18.879999999999995)"/><path d="M-60 3217.84a6 6 0 0 1 6-6H74a6 6 0 0 1 6 6v12a6 6 0 0 1-6 6H-54a6 6 0 0 1-6-6z" fill="none"/><use xlink:href="#h" transform="matrix(1,0,0,1,-60,3211.8429024563884) translate(18.604444444444468 18.019999999999996)"/><use xlink:href="#i" transform="matrix(1,0,0,1,-60,3211.8429024563884) translate(60.347777777777786 18.019999999999996)"/><path d="M-558.9 3607a6 6 0 0 1 6-6h38.6a6 6 0 0 1 6 6v19.5a6 6 0 0 1-6 6h-38.6a6 6 0 0 1-6-6z" fill="#fff" fill-opacity="0"/><use xlink:href="#j" transform="matrix(1,0,0,1,-553.8968097736749,3606.0000000000027) translate(0 17.546666666666667)"/><path d="M-480.8 3308.37a6 6 0 0 1 6-6h116a6 6 0 0 1 6 6v19.34a6 6 0 0 1-6 6h-116a6 6 0 0 1-6-6z" fill="#fff" fill-opacity="0"/><use xlink:href="#k" transform="matrix(1,0,0,1,-475.79665617833655,3307.3729796261614) translate(16.617777777777768 17.546666666666667)"/><path d="M-570 3320.04h14.53m14.54 0h29.06m14.54 0h14.53M-569.95 3320.04H-572" stroke="#00bfa5" stroke-width="4" fill="none"/><path d="M-480.8 3322h-2.05v-3.93h2.05z" stroke="#00bfa5" stroke-width=".05" fill="#00bfa5"/><path d="M-350.8 3320.04h22.45m22.44 0h22.43" stroke="#00bfa5" stroke-width="4" fill="none"/><path d="M-350.75 3322h-2.05v-3.93h2.06z" stroke="#00bfa5" stroke-width=".05" fill="#00bfa5"/><path d="M-268.48 3320.04l-13 7.5v-15z" stroke="#00bfa5" stroke-width="4" fill="#00bfa5"/><path d="M593.54 3406a6 6 0 0 1 6-6h116a6 6 0 0 1 6 6v116a6 6 0 0 1-6 6h-116a6 6 0 0 1-6-6z" stroke="#512fc9" stroke-opacity=".2" stroke-width="2" fill="#fff" filter="url(#a)"/><path d="M593.54 3546a6 6 0 0 1 6-6h116a6 6 0 0 1 6 6v12a6 6 0 0 1-6 6h-116a6 6 0 0 1-6-6z" fill="none"/><use xlink:href="#l" transform="matrix(1,0,0,1,593.5384840755843,3540) translate(-18.977777777777746 18.879999999999995)"/><path d="M629.64 3449.6h55.6c1.44 0 2.5-1.43 1.87-2.9l-6.44-14.46c-.18-.8-1-1.24-1.6-1.24H636c-.62 0-1.42.43-1.86 1.24l-6.38 14.45c-.62 1.47.43 2.9 1.86 2.9zM686.5 3451.65h-57.92c-1.24 0-2.04.86-2.04 2.1v8.25c0 1.24.8 2.05 2.04 2.05h57.9c1.25 0 2.06-.8 2.06-2.05v-8.25c0-1.24-.8-2.1-2.05-2.1zm-12.4 8.3c-1.25 0-2.12-.86-2.12-2.1 0-1.24.87-2.05 2.1-2.05 1.25 0 2.06.8 2.06 2.05 0 1.24-.8 2.1-2.05 2.1zm10.28 0h-4.1c-1.23 0-2.1-.86-2.1-2.1 0-1.24.87-2.05 2.1-2.05h4.1c1.24 0 2.1.8 2.1 2.05 0 1.24-.86 2.1-2.1 2.1zM686.5 3480.6h-57.92c-1.24 0-2.04.8-2.04 2.05v8.3c0 1.24.8 2.05 2.04 2.05h57.9c1.25 0 2.06-.8 2.06-2.05v-8.3c0-1.24-.8-2.05-2.05-2.05zm-12.4 8.25c-1.25 0-2.12-.8-2.12-2.05 0-1.24.87-2.05 2.1-2.05 1.25 0 2.06.8 2.06 2.05 0 1.24-.8 2.05-2.05 2.05zm10.28 0h-4.1c-1.23 0-2.1-.8-2.1-2.05 0-1.24.87-2.05 2.1-2.05h4.1c1.24 0 2.1.8 2.1 2.05 0 1.24-.86 2.05-2.1 2.05zM686.5 3466.15h-57.92c-1.24 0-2.04.8-2.04 2.05v8.25c0 1.24.8 2.1 2.04 2.1h57.9c1.25 0 2.06-.86 2.06-2.1v-8.25c0-1.24-.8-2.05-2.05-2.05zm-49.6 8.25c-1.25 0-2.12-.8-2.12-2.05 0-1.24.87-2.1 2.1-2.1 1.25 0 2.06.86 2.06 2.1 0 1.24-.8 2.05-2.05 2.05zm6.2 0c-1.25 0-2.12-.8-2.12-2.05 0-1.24.87-2.1 2.1-2.1 1.25 0 2.06.86 2.06 2.1 0 1.24-.8 2.05-2.05 2.05zm6.2 0c-1.25 0-2.12-.8-2.12-2.05 0-1.24.87-2.1 2.1-2.1 1.25 0 2.06.86 2.06 2.1 0 1.24-.8 2.05-2.05 2.05zm6.2 0c-1.25 0-2.12-.8-2.12-2.05 0-1.24.87-2.1 2.1-2.1 1.25 0 2.06.86 2.06 2.1 0 1.24-.8 2.05-2.05 2.05zm18.6 0c-1.25 0-2.12-.8-2.12-2.05 0-1.24.87-2.1 2.1-2.1 1.25 0 2.06.86 2.06 2.1 0 1.24-.8 2.05-2.05 2.05zm10.28 0h-4.1c-1.23 0-2.1-.8-2.1-2.05 0-1.24.87-2.1 2.1-2.1h4.1c1.24 0 2.1.86 2.1 2.1 0 1.24-.86 2.05-2.1 2.05z" stroke="#000" stroke-opacity="0" stroke-width="4.69" fill="#512fc9"/><path d="M593.54 3224.3a6 6 0 0 1 6-6h116a6 6 0 0 1 6 6v116a6 6 0 0 1-6 6h-116a6 6 0 0 1-6-6z" stroke="#512fc9" stroke-opacity=".2" stroke-width="2" fill="#fff" filter="url(#a)"/><path d="M593.54 3364.3a6 6 0 0 1 6-6h116a6 6 0 0 1 6 6v12a6 6 0 0 1-6 6h-116a6 6 0 0 1-6-6z" fill="none"/><use xlink:href="#m" transform="matrix(1,0,0,1,593.5384840755843,3358.288123278978) translate(11.248888888888906 18.879999999999995)"/><use xlink:href="#n" transform="matrix(1,0,0,1,593.5384840755843,3358.288123278978) translate(50.946666666666665 18.879999999999995)"/><path d="M629.64 3267.9h55.6c1.44 0 2.5-1.44 1.87-2.93l-6.44-14.44c-.18-.8-1-1.24-1.6-1.24H636c-.62 0-1.42.42-1.86 1.23l-6.38 14.44c-.62 1.5.43 2.92 1.86 2.92zM686.5 3269.93h-57.92c-1.24 0-2.04.87-2.04 2.1v8.26c0 1.23.8 2.03 2.04 2.03h57.9c1.25 0 2.06-.8 2.06-2.04v-8.26c0-1.24-.8-2.1-2.05-2.1zm-12.4 8.3c-1.25 0-2.12-.86-2.12-2.1 0-1.24.87-2.04 2.1-2.04 1.25 0 2.06.8 2.06 2.03 0 1.24-.8 2.1-2.05 2.1zm10.28 0h-4.1c-1.23 0-2.1-.86-2.1-2.1 0-1.24.87-2.04 2.1-2.04h4.1c1.24 0 2.1.8 2.1 2.03 0 1.24-.86 2.1-2.1 2.1zM686.5 3298.9h-57.92c-1.24 0-2.04.8-2.04 2.03v8.3c0 1.25.8 2.06 2.04 2.06h57.9c1.25 0 2.06-.82 2.06-2.06v-8.3c0-1.25-.8-2.05-2.05-2.05zm-12.4 8.23c-1.25 0-2.12-.8-2.12-2.04 0-1.25.87-2.06 2.1-2.06 1.25 0 2.06.8 2.06 2.05 0 1.23-.8 2.03-2.05 2.03zm10.28 0h-4.1c-1.23 0-2.1-.8-2.1-2.04 0-1.25.87-2.06 2.1-2.06h4.1c1.24 0 2.1.8 2.1 2.05 0 1.23-.86 2.03-2.1 2.03zM686.5 3284.44h-57.92c-1.24 0-2.04.8-2.04 2.05v8.23c0 1.24.8 2.1 2.04 2.1h57.9c1.25 0 2.06-.86 2.06-2.1v-8.24c0-1.25-.8-2.06-2.05-2.06zm-49.6 8.25c-1.25 0-2.12-.82-2.12-2.06 0-1.24.87-2.1 2.1-2.1 1.25 0 2.06.86 2.06 2.1 0 1.24-.8 2.05-2.05 2.05zm6.2 0c-1.25 0-2.12-.82-2.12-2.06 0-1.24.87-2.1 2.1-2.1 1.25 0 2.06.86 2.06 2.1 0 1.24-.8 2.05-2.05 2.05zm6.2 0c-1.25 0-2.12-.82-2.12-2.06 0-1.24.87-2.1 2.1-2.1 1.25 0 2.06.86 2.06 2.1 0 1.24-.8 2.05-2.05 2.05zm6.2 0c-1.25 0-2.12-.82-2.12-2.06 0-1.24.87-2.1 2.1-2.1 1.25 0 2.06.86 2.06 2.1 0 1.24-.8 2.05-2.05 2.05zm18.6 0c-1.25 0-2.12-.82-2.12-2.06 0-1.24.87-2.1 2.1-2.1 1.25 0 2.06.86 2.06 2.1 0 1.24-.8 2.05-2.05 2.05zm10.28 0h-4.1c-1.23 0-2.1-.82-2.1-2.06 0-1.24.87-2.1 2.1-2.1h4.1c1.24 0 2.1.86 2.1 2.1 0 1.24-.86 2.05-2.1 2.05z" stroke="#000" stroke-opacity="0" stroke-width="4.69" fill="#512fc9"/><path d="M345.5 3238.9a6 6 0 0 1 6-6h176.04a6 6 0 0 1 6 6v19.34a6 6 0 0 1-6 6H351.5a6 6 0 0 1-6-6z" fill="#fff" fill-opacity="0"/><use xlink:href="#o" transform="matrix(1,0,0,1,350.4940396311397,3237.9121193498827) translate(0.3622222222222149 17.546666666666667)"/><path d="M296.77 3250.58h15.57m15.58 0h15.57" stroke="#f50057" stroke-width="4" fill="none"/><path d="M296.82 3252.55h-2.05v-3.95h2.05zM345.5 3252.55h-2.06v-3.95h2.05z" stroke="#f50057" stroke-width=".05" fill="#f50057"/><path d="M535.54 3250.58h38" stroke="#f50057" stroke-width="4" fill="none"/><path d="M535.6 3252.55h-2.06v-3.95h2.05z" stroke="#f50057" stroke-width=".05" fill="#f50057"/><path d="M588.54 3250.58l-13 7.5v-15z" stroke="#f50057" stroke-width="4" fill="#f50057"/><path d="M380 3271.18a6 6 0 0 1 6-6h68a6 6 0 0 1 6 6v17.67a6 6 0 0 1-6 6h-68a6 6 0 0 1-6-6z" fill="#fff" fill-opacity="0"/><use xlink:href="#p" transform="matrix(1,0,0,1,385,3270.1825560342236) translate(2.928888888888885 17.546666666666667)"/><path d="M313.76 3281.9h21.4m21.43 0H378" stroke="#f50057" stroke-width="4" fill="none"/><path d="M298.77 3281.9l13-7.5v15z" stroke="#f50057" stroke-width="4" fill="#f50057"/><path d="M380 3283.9h-2.05v-3.96H380z" stroke="#f50057" stroke-width=".05" fill="#f50057"/><path d="M462 3281.9h21.42m21.43 0h42.84m21.4 0h21.44" stroke="#f50057" stroke-width="4" fill="none"/><path d="M462.05 3283.9H460v-3.96h2.05zM592.54 3283.9h-2.05v-3.96h2.04z" stroke="#f50057" stroke-width=".05" fill="#f50057"/><path d="M380 3310.78a6 6 0 0 1 6-6h68a6 6 0 0 1 6 6v17.67a6 6 0 0 1-6 6h-68a6 6 0 0 1-6-6z" fill="#fff" fill-opacity="0"/><use xlink:href="#q" transform="matrix(1,0,0,1,385,3309.782780877255) translate(2.928888888888885 17.546666666666667)"/><path d="M296.77 3319.62h27.08m27.07 0H378" stroke="#00bfa5" stroke-width="4" fill="none"/><path d="M296.82 3321.6h-2.05v-3.96h2.05zM380 3321.6h-2.05v-3.96H380z" stroke="#00bfa5" stroke-width=".05" fill="#00bfa5"/><path d="M462 3319.62h19.42m19.43 0h19.42a6 6 0 0 1 6 6v22.06m0 22.07v44.12m0 22.07V3458a6 6 0 0 0 6 6h13.76m13.76 0h13.75" stroke="#00bfa5" stroke-width="4" fill="none"/><path d="M462.05 3321.6H460v-3.96h2.05z" stroke="#00bfa5" stroke-width=".05" fill="#00bfa5"/><path d="M588.54 3464l-13 7.5v-15z" stroke="#00bfa5" stroke-width="4" fill="#00bfa5"/><path d="M-100.66 3174.36h220.2V3200h-220.2z" stroke="#000" stroke-opacity="0" stroke-width="2" fill="#fff" fill-opacity="0"/><use xlink:href="#r" transform="matrix(1,0,0,1,-95.66424361156498,3179.3552331449023) translate(31.664044999999987 16.522380000000002)"/><use xlink:href="#s" transform="matrix(1,0,0,1,-95.66424361156498,3179.3552331449023) translate(93.58530499999999 16.522380000000002)"/><path d="M165.77 3227.58a6 6 0 0 1 6-6h116a6 6 0 0 1 6 6v116a6 6 0 0 1-6 6h-116a6 6 0 0 1-6-6z" stroke="#512fc9" stroke-opacity=".2" stroke-width="2" fill="#fff" filter="url(#a)"/><path d="M165.77 3367.58a6 6 0 0 1 6-6h116a6 6 0 0 1 6 6v12a6 6 0 0 1-6 6h-116a6 6 0 0 1-6-6z" fill="none"/><use xlink:href="#t" transform="matrix(1,0,0,1,165.76924203777713,3361.578786016564) translate(15.253333333333345 18.879999999999995)"/><use xlink:href="#u" transform="matrix(1,0,0,1,165.76924203777713,3361.578786016564) translate(53.528888888888886 18.879999999999995)"/><path d="M249.57 3267.2h-39.6c-.85 0-1.4.56-1.4 1.4v5.66c0 .85.55 1.43 1.4 1.43h39.6c.85 0 1.4-.6 1.4-1.44v-5.66c0-.84-.55-1.4-1.4-1.4zm-8.48 5.66c-.86 0-1.45-.58-1.45-1.43 0-.84.6-1.4 1.44-1.4s1.4.56 1.4 1.4c0 .85-.56 1.43-1.4 1.43zm7.03 0h-2.8c-.85 0-1.44-.58-1.44-1.43 0-.84.58-1.4 1.43-1.4h2.8c.85 0 1.44.56 1.44 1.4 0 .85-.6 1.43-1.44 1.43zM249.57 3281.35h-39.6c-.85 0-1.4.55-1.4 1.4v5.66c0 .85.55 1.4 1.4 1.4h18.4V3295.76c-1.27.4-2.12 1.4-2.54 2.53H214.2c-.84 0-1.4.58-1.4 1.43 0 .84.56 1.4 1.4 1.4h11.63c.55 1.68 2.12 2.82 3.94 2.82 1.82 0 3.4-1.14 3.94-2.83h11.63c.85 0 1.4-.55 1.4-1.4 0-.84-.55-1.43-1.4-1.43H233.7c-.4-1.26-1.4-2.14-2.53-2.54V3289.8h18.4c.85 0 1.4-.55 1.4-1.4v-5.65c0-.85-.55-1.4-1.4-1.4zm-33.92 5.63c-.85 0-1.44-.56-1.44-1.4 0-.85.6-1.4 1.45-1.4s1.4.55 1.4 1.4c0 .84-.55 1.4-1.4 1.4zm4.24 0c-.86 0-1.45-.56-1.45-1.4 0-.85.6-1.4 1.44-1.4s1.4.55 1.4 1.4c0 .84-.56 1.4-1.4 1.4zm4.23 0c-.85 0-1.44-.56-1.44-1.4 0-.85.58-1.4 1.43-1.4s1.4.55 1.4 1.4c0 .84-.55 1.4-1.4 1.4zm2.8-1.4c0-.85.6-1.4 1.44-1.4.85 0 1.4.55 1.4 1.4 0 .84-.55 1.4-1.4 1.4-.85 0-1.44-.56-1.44-1.4zm14.16 1.4c-.86 0-1.45-.56-1.45-1.4 0-.85.6-1.4 1.44-1.4s1.4.55 1.4 1.4c0 .84-.56 1.4-1.4 1.4zm7.03 0h-2.8c-.85 0-1.44-.56-1.44-1.4 0-.85.58-1.4 1.43-1.4h2.8c.85 0 1.44.55 1.44 1.4 0 .84-.6 1.4-1.44 1.4z" stroke="#000" stroke-opacity="0" stroke-width="4.69" fill="#00bfa5"/><path d="M-700 3414.65a6 6 0 0 1 6-6h116a6 6 0 0 1 6 6v116a6 6 0 0 1-6 6h-116a6 6 0 0 1-6-6z" stroke="#512fc9" stroke-opacity=".2" stroke-width="2" fill="#fff" filter="url(#a)"/><path d="M-700 3554.65a6 6 0 0 1 6-6h116a6 6 0 0 1 6 6v12a6 6 0 0 1-6 6h-116a6 6 0 0 1-6-6z" fill="none"/><use xlink:href="#v" transform="matrix(1,0,0,1,-700,3548.646327091392) translate(15.582222222222242 18.879999999999995)"/><use xlink:href="#c" transform="matrix(1,0,0,1,-700,3548.646327091392) translate(51.52888888888889 18.879999999999995)"/><path d="M-608.98 3455c0 8.2-6.7 14.87-14.87 14.87-8.26 0-14.87-6.67-14.87-14.88 0-8.22 6.6-14.9 14.87-14.9 8.18 0 14.87 6.68 14.87 14.9zM-643.7 3464.9c0 5.48-4.46 9.93-9.9 9.93-5.5 0-9.95-4.45-9.95-9.92 0-5.46 4.46-9.9 9.96-9.9 5.44 0 9.9 4.44 9.9 9.9zM-673.44 3493.64c0-7.64 6.24-13.85 13.9-13.85h11.9c7.65 0 13.82 6.2 13.82 13.84 0 1.93-1.56 3.47-3.42 3.47h-32.7c-1.94 0-3.5-1.53-3.5-3.46z" stroke="#000" stroke-opacity="0" fill="#512fc9"/><path d="M-643.26 3477.85c6.92 1.88 11.97 8.15 11.97 15.67 0 1.3-.43 2.57-1.18 3.6h28.92c2.46 0 4.46-2 4.46-4.45 0-9.86-7.95-17.84-17.84-17.84h-16.35c-3.7 0-7.13 1.08-9.96 3.02z" stroke="#000" stroke-opacity="0" fill="#512fc9"/><path d="M-498.97 3604.5a3 3 0 0 1 3-3h26a3 3 0 0 1 3 3v26a3 3 0 0 1-3 3h-26a3 3 0 0 1-3-3z" fill-opacity="0"/><path d="M-478.63 3601.5h8.66a3 3 0 0 1 3 3v8.67m0 8.66v8.67a3 3 0 0 1-3 3h-8.66m-8.67 0h-8.67a3 3 0 0 1-3-3v-8.67m0-8.66v-8.67a3 3 0 0 1 3-3h8.67" stroke="#fc9432" stroke-width="2" fill="none"/><path d="M-700 3604.5a3 3 0 0 1 3-3h26a3 3 0 0 1 3 3v26a3 3 0 0 1-3 3h-26a3 3 0 0 1-3-3z" fill-opacity="0"/><path d="M-679.67 3601.5h8.67a3 3 0 0 1 3 3v8.67m0 8.66v8.67a3 3 0 0 1-3 3h-8.67m-8.66 0H-697a3 3 0 0 1-3-3v-8.67m0-8.66v-8.67a3 3 0 0 1 3-3h8.67" stroke="#f50057" stroke-width="2" fill="none"/><path d="M-569 3426.3h19.18m19.18 0h38.36m19.18 0h38.36m19.18 0h38.36m19.18 0h38.36m19.18 0h19.2" stroke="#f50057" stroke-width="4" fill="none"/><path d="M-568.95 3428.3H-571v-3.96h2.05z" stroke="#f50057" stroke-width=".05" fill="#f50057"/><path d="M-266.3 3426.3l-13 7.5v-15z" stroke="#f50057" stroke-width="4" fill="#f50057"/><path d="M-133.3 3425.5a3 3 0 0 1 3-3h312.84a3 3 0 0 1 3 3v75.88a3 3 0 0 1-3 3H-130.3a3 3 0 0 1-3-3z" stroke="#000" stroke-opacity="0" fill="#512fc9" fill-opacity=".07"/><path d="M-130.3 3463.52h18.4m18.4 0h36.82m18.4 0h36.8m18.42 0h36.8m18.42 0h36.8m18.4 0h18.42M-130.25 3463.52h-2.06" stroke="#1071e5" stroke-width="4" fill="none"/><path d="M160.77 3463.52l-13 7.5v-15z" stroke="#1071e5" stroke-width="4" fill="#1071e5"/><path d="M49.44 3463.44c0 22.1-17.9 40-40 40s-40-17.9-40-40 17.9-40 40-40 40 17.9 40 40z" stroke="#00bfa5" stroke-width="4" fill="#fff" filter="url(#f)"/><path d="M29.24 3445.82h-39.6c-.85 0-1.4.55-1.4 1.4v5.65c0 .85.55 1.43 1.4 1.43h39.6c.85 0 1.4-.58 1.4-1.43v-5.66c0-.83-.55-1.38-1.4-1.38zm-8.48 5.66c-.85 0-1.44-.6-1.44-1.44s.6-1.4 1.44-1.4c.85 0 1.4.56 1.4 1.4 0 .85-.55 1.44-1.4 1.44zm7.04 0H25c-.85 0-1.44-.6-1.44-1.44s.6-1.4 1.44-1.4h2.8c.84 0 1.44.56 1.44 1.4 0 .85-.6 1.44-1.44 1.44zM29.24 3459.96h-39.6c-.85 0-1.4.56-1.4 1.4v5.66c0 .84.55 1.4 1.4 1.4h18.4V3474.37c-1.27.4-2.12 1.4-2.55 2.53H-6.13c-.85 0-1.4.6-1.4 1.44s.55 1.4 1.4 1.4h11.6c.56 1.68 2.13 2.82 3.96 2.82 1.82 0 3.4-1.14 3.94-2.83H25c.84 0 1.4-.55 1.4-1.4 0-.84-.55-1.43-1.4-1.43H13.38c-.42-1.24-1.4-2.13-2.54-2.53V3468.42h18.4c.85 0 1.4-.56 1.4-1.4v-5.66c0-.84-.55-1.4-1.4-1.4zm-33.92 5.63c-.85 0-1.44-.57-1.44-1.4 0-.86.6-1.4 1.44-1.4.85 0 1.4.54 1.4 1.4 0 .84-.55 1.4-1.4 1.4zm4.24 0c-.85 0-1.44-.57-1.44-1.4 0-.86.6-1.4 1.44-1.4.85 0 1.4.54 1.4 1.4 0 .84-.55 1.4-1.4 1.4zm4.24 0c-.85 0-1.44-.57-1.44-1.4 0-.86.6-1.4 1.44-1.4.85 0 1.4.54 1.4 1.4 0 .84-.55 1.4-1.4 1.4zm2.8-1.4c0-.86.6-1.4 1.44-1.4.85 0 1.4.54 1.4 1.4 0 .84-.55 1.4-1.4 1.4-.85 0-1.44-.57-1.44-1.4zm14.16 1.4c-.85 0-1.44-.57-1.44-1.4 0-.86.6-1.4 1.44-1.4.85 0 1.4.54 1.4 1.4 0 .84-.55 1.4-1.4 1.4zm7.04 0H25c-.85 0-1.44-.57-1.44-1.4 0-.86.6-1.4 1.44-1.4h2.8c.84 0 1.44.54 1.44 1.4 0 .84-.6 1.4-1.44 1.4z" stroke="#000" stroke-opacity="0" stroke-width="4.69" fill="#00bfa5"/><path d="M-30.56 3518.56a6 6 0 0 1 6-6h68a6 6 0 0 1 6 6v12a6 6 0 0 1-6 6h-68a6 6 0 0 1-6-6z" fill="none"/><use xlink:href="#w" transform="matrix(1,0,0,1,-30.5630506242544,3512.5630826388974) translate(10.008888888888897 18.879999999999995)"/><path d="M-60.67 3406a6 6 0 0 1 6-6h128a6 6 0 0 1 6 6v12a6 6 0 0 1-6 6h-128a6 6 0 0 1-6-6z" fill="none"/><use xlink:href="#x" transform="matrix(1,0,0,1,-60.66870865415291,3400) translate(18.604444444444468 18.019999999999996)"/><use xlink:href="#y" transform="matrix(1,0,0,1,-60.66870865415291,3400) translate(60.347777777777786 18.019999999999996)"/><path d="M-459.58 3607.5a6 6 0 0 1 6-6h159.03a6 6 0 0 1 6 6v27.87a6 6 0 0 1-6 6h-159.03a6 6 0 0 1-6-6z" fill="#fff" fill-opacity="0"/><use xlink:href="#z" transform="matrix(1,0,0,1,-454.58190620938535,3606.500000000004) translate(0 17.546666666666667)"/><use xlink:href="#A" transform="matrix(1,0,0,1,-454.58190620938535,3606.500000000004) translate(35.94666666666667 17.546666666666667)"/><use xlink:href="#B" transform="matrix(1,0,0,1,-454.58190620938535,3606.500000000004) translate(75.24444444444445 17.546666666666667)"/><use xlink:href="#C" transform="matrix(1,0,0,1,-454.58190620938535,3606.500000000004) translate(116.20444444444445 17.546666666666667)"/><path d="M-660.6 3608a6 6 0 0 1 6-6h41.22a6 6 0 0 1 6 6v19a6 6 0 0 1-6 6h-41.24a6 6 0 0 1-6-6z" fill="#fff" fill-opacity="0"/><use xlink:href="#D" transform="matrix(1,0,0,1,-655.6150957658153,3607.000000000004) translate(0 17.546666666666667)"/><path d="M-241.78 3606a6 6 0 0 1 6-6H19.36a6 6 0 0 1 6 6v20.5a6 6 0 0 1-6 6h-255.14a6 6 0 0 1-6-6z" fill="#fff" fill-opacity="0"/><use xlink:href="#E" transform="matrix(1,0,0,1,-236.77904964489284,3605) translate(0 17.546666666666667)"/><use xlink:href="#F" transform="matrix(1,0,0,1,-236.77904964489284,3605) translate(35.94666666666667 17.546666666666667)"/><use xlink:href="#G" transform="matrix(1,0,0,1,-236.77904964489284,3605) translate(75.24444444444445 17.546666666666667)"/><use xlink:href="#H" transform="matrix(1,0,0,1,-236.77904964489284,3605) translate(145.56444444444446 17.546666666666667)"/><path d="M165.77 3406a6 6 0 0 1 6-6h116a6 6 0 0 1 6 6v116a6 6 0 0 1-6 6h-116a6 6 0 0 1-6-6z" stroke="#512fc9" stroke-opacity=".2" stroke-width="2" fill="#fff" filter="url(#a)"/><path d="M165.77 3546a6 6 0 0 1 6-6h116a6 6 0 0 1 6 6v12a6 6 0 0 1-6 6h-116a6 6 0 0 1-6-6z" fill="none"/><use xlink:href="#v" transform="matrix(1,0,0,1,165.76924203777713,3540) translate(20.466666666666683 18.879999999999995)"/><use xlink:href="#I" transform="matrix(1,0,0,1,165.76924203777713,3540) translate(56.413333333333334 18.879999999999995)"/><path d="M201.87 3449.6h55.6c1.44 0 2.5-1.43 1.87-2.9l-6.44-14.46c-.2-.8-1-1.24-1.62-1.24h-43.03c-.62 0-1.42.43-1.85 1.24l-6.4 14.45c-.6 1.47.44 2.9 1.87 2.9zM258.72 3451.65h-57.9c-1.25 0-2.05.86-2.05 2.1v8.25c0 1.24.8 2.05 2.04 2.05h57.92c1.24 0 2.05-.8 2.05-2.05v-8.25c0-1.24-.8-2.1-2.05-2.1zm-12.4 8.3c-1.24 0-2.1-.86-2.1-2.1 0-1.24.86-2.05 2.1-2.05 1.24 0 2.05.8 2.05 2.05 0 1.24-.8 2.1-2.05 2.1zm10.3 0h-4.1c-1.24 0-2.1-.86-2.1-2.1 0-1.24.86-2.05 2.1-2.05h4.1c1.24 0 2.1.8 2.1 2.05 0 1.24-.87 2.1-2.1 2.1zM258.72 3480.6h-57.9c-1.25 0-2.05.8-2.05 2.05v8.3c0 1.24.8 2.05 2.04 2.05h57.92c1.24 0 2.05-.8 2.05-2.05v-8.3c0-1.24-.8-2.05-2.05-2.05zm-12.4 8.25c-1.24 0-2.1-.8-2.1-2.05 0-1.24.86-2.05 2.1-2.05 1.24 0 2.05.8 2.05 2.05 0 1.24-.8 2.05-2.05 2.05zm10.3 0h-4.1c-1.24 0-2.1-.8-2.1-2.05 0-1.24.86-2.05 2.1-2.05h4.1c1.24 0 2.1.8 2.1 2.05 0 1.24-.87 2.05-2.1 2.05zM258.72 3466.15h-57.9c-1.25 0-2.05.8-2.05 2.05v8.25c0 1.24.8 2.1 2.04 2.1h57.92c1.24 0 2.05-.86 2.05-2.1v-8.25c0-1.24-.8-2.05-2.05-2.05zm-49.6 8.25c-1.24 0-2.1-.8-2.1-2.05 0-1.24.86-2.1 2.1-2.1 1.24 0 2.05.86 2.05 2.1 0 1.24-.8 2.05-2.05 2.05zm6.2 0c-1.24 0-2.1-.8-2.1-2.05 0-1.24.86-2.1 2.1-2.1 1.24 0 2.05.86 2.05 2.1 0 1.24-.8 2.05-2.05 2.05zm6.2 0c-1.24 0-2.1-.8-2.1-2.05 0-1.24.86-2.1 2.1-2.1 1.24 0 2.05.86 2.05 2.1 0 1.24-.8 2.05-2.05 2.05zm6.2 0c-1.24 0-2.1-.8-2.1-2.05 0-1.24.86-2.1 2.1-2.1 1.24 0 2.05.86 2.05 2.1 0 1.24-.8 2.05-2.05 2.05zm18.6 0c-1.24 0-2.1-.8-2.1-2.05 0-1.24.86-2.1 2.1-2.1 1.24 0 2.05.86 2.05 2.1 0 1.24-.8 2.05-2.05 2.05zm10.3 0h-4.1c-1.24 0-2.1-.8-2.1-2.05 0-1.24.86-2.1 2.1-2.1h4.1c1.24 0 2.1.86 2.1 2.1 0 1.24-.87 2.05-2.1 2.05z" stroke="#000" stroke-opacity="0" stroke-width="4.69" fill="#512fc9"/><path d="M-537.78 3414.65a6 6 0 0 1 6-6h228a6 6 0 0 1 6 6v19.33a6 6 0 0 1-6 6h-228a6 6 0 0 1-6-6z" fill="#fff"/><use xlink:href="#J" transform="matrix(1,0,0,1,-532.7842986746961,3413.646327091392) translate(2.7866666666666617 17.546666666666667)"/><path d="M-479.8 3445.97a6 6 0 0 1 6-6h116a6 6 0 0 1 6 6v19.34a6 6 0 0 1-6 6h-116a6 6 0 0 1-6-6z" fill="#fff" fill-opacity="0"/><use xlink:href="#K" transform="matrix(1,0,0,1,-474.79668972536456,3444.971585441785) translate(16.617777777777768 17.546666666666667)"/><path d="M-552 3457.64h23.4m23.4 0h23.4" stroke="#f50057" stroke-width="4" fill="none"/><path d="M-567 3457.64l13-7.5v15z" stroke="#f50057" stroke-width="4" fill="#f50057"/><path d="M-479.8 3459.6h-2.05v-3.94h2.05z" stroke="#f50057" stroke-width=".05" fill="#f50057"/><path d="M-349.8 3457.64h28.83m28.84 0h28.82" stroke="#f50057" stroke-width="4" fill="none"/><path d="M-349.75 3459.6h-2.05v-3.94h2.06z" stroke="#f50057" stroke-width=".05" fill="#f50057"/><path d="M-263.36 3457.64h2.06" stroke="#f50057" stroke-width="4" fill="none"/><path d="M-479.8 3501.1a6 6 0 0 1 6-6h116a6 6 0 0 1 6 6v19.33a6 6 0 0 1-6 6h-116a6 6 0 0 1-6-6z" fill="#fff" fill-opacity="0"/><use xlink:href="#L" transform="matrix(1,0,0,1,-474.79668972536456,3500.09657292609) translate(16.617777777777768 17.546666666666667)"/><path d="M-569 3512.76h14.53m14.54 0h29.06m14.54 0h14.53M-568.95 3512.76H-571" stroke="#fc9432" stroke-width="4" fill="none"/><path d="M-479.8 3514.74h-2.05v-3.95h2.05z" stroke="#fc9432" stroke-width=".05" fill="#fc9432"/><path d="M-349.8 3512.76h22.45m22.44 0h22.43" stroke="#fc9432" stroke-width="4" fill="none"/><path d="M-349.75 3514.74h-2.05v-3.95h2.06z" stroke="#fc9432" stroke-width=".05" fill="#fc9432"/><path d="M-267.48 3512.76l-13 7.5v-15z" stroke="#fc9432" stroke-width="4" fill="#fc9432"/><path d="M-537.78 3174.36h220.2V3200h-220.2z" stroke="#000" stroke-opacity="0" stroke-width="2" fill="#fff" fill-opacity="0"/><g><use xlink:href="#M" transform="matrix(1,0,0,1,-532.7842986746961,3179.3552331449023) translate(50.94852499999999 16.522380000000002)"/><use xlink:href="#N" transform="matrix(1,0,0,1,-532.7842986746961,3179.3552331449023) translate(95.89542499999999 16.522380000000002)"/></g><path d="M329.25 3174.36h220.2V3200h-220.2z" stroke="#000" stroke-opacity="0" stroke-width="2" fill="#fff" fill-opacity="0"/><g><use xlink:href="#O" transform="matrix(1,0,0,1,334.24481424945407,3179.3552331449464) translate(27.332569999999976 16.522380000000002)"/><use xlink:href="#P" transform="matrix(1,0,0,1,334.24481424945407,3179.3552331449464) translate(97.91677999999999 16.522380000000002)"/></g><g filter="url(#Q)"><path d="M-260 3228.7a6 6 0 0 1 6-6h116a6 6 0 0 1 6 6v299.58a6 6 0 0 1-6 6h-116a6 6 0 0 1-6-6z" stroke="#00bfa5" stroke-width="2" fill="#fff"/></g><path d="M-261.3 3391.63a6 6 0 0 1 6-6h116a6 6 0 0 1 6 6v15.77a6 6 0 0 1-6 6h-116a6 6 0 0 1-6-6z" fill="none"/><g><use xlink:href="#R" transform="matrix(1,0,0,1,-261.3048767654043,3385.627284004448) translate(42.777777777777786 20.879999999999995)"/></g><path d="M-203.7 3359.1c.36 0 .7-.05 1.07-.1l1.33 3.1c-1.45 1.15-2.4 2.95-2.4 5 0 1.03.24 2.03.7 2.9l-5.12 4.57c-1.04-.68-2.25-1.08-3.58-1.08-3.53 0-6.4 2.87-6.4 6.4 0 3.5 2.87 6.4 6.4 6.4 3.54 0 6.4-2.9 6.4-6.4 0-1.05-.24-2.05-.7-2.93l5.12-4.56c1.04.7 2.24 1.1 3.57 1.1 1.45 0 2.82-.5 3.9-1.33l4.62 3.56c-.33.8-.54 1.64-.54 2.56 0 3.5 2.87 6.4 6.4 6.4 3.54 0 6.4-2.9 6.4-6.4.02-3.53-2.85-6.4-6.4-6.4-1.45 0-2.82.47-3.9 1.3l-4.62-3.55c.33-.8.54-1.64.54-2.56 0-.17 0-.3-.04-.45l2.66-.88c1.13 1.76 3.12 2.92 5.37 2.92 3.53 0 6.4-2.9 6.4-6.4 0-3.53-2.88-6.4-6.4-6.4-3.55 0-6.42 2.87-6.42 6.4 0 .15 0 .27.04.43l-2.66.88c-1.12-1.75-3.12-2.9-5.37-2.9-.38 0-.7.03-1.04.07l-1.38-3.08c1.46-1.17 2.4-2.97 2.4-5 0-3.53-2.86-6.4-6.4-6.4-3.53 0-6.4 2.87-6.4 6.4 0 3.5 2.87 6.4 6.4 6.4zm0-9.6c-1.76 0-3.2 1.43-3.2 3.2 0 1.75 1.44 3.2 3.2 3.2.45 0 .86-.1 1.24-.25l.04-.04h.04c1.12-.5 1.87-1.63 1.87-2.9 0-1.77-1.42-3.2-3.2-3.2zm17.6 28.8c0-.73.23-1.4.65-1.93v-.04c.04 0 .04-.04.04-.04.58-.73 1.5-1.2 2.5-1.2 1.78 0 3.2 1.43 3.2 3.2 0 1.75-1.42 3.2-3.2 3.2-1.76 0-3.2-1.45-3.2-3.2zm.15-14.97v-.09c-.12-.28-.16-.64-.16-.96 0-1.77 1.44-3.2 3.2-3.2 1.78 0 3.2 1.43 3.2 3.2 0 1.75-1.42 3.2-3.2 3.2-1.38 0-2.6-.9-3.05-2.17zm-12.7.84c-1.1.52-1.86 1.64-1.86 2.92 0 .8.28 1.5.78 2.07v.04l.04.05c.6.64 1.42 1.04 2.38 1.04 1 0 1.9-.5 2.5-1.2 0 0 0-.05.03-.05 0 0 0-.04.04-.04.38-.5.63-1.2.63-1.9 0-.37-.04-.7-.17-1v-.05c-.4-1.24-1.62-2.16-3.03-2.16-.46 0-.88.07-1.25.27h-.08zm-16.25 15.72c0-1.77 1.4-3.2 3.2-3.2 1.75 0 3.2 1.43 3.2 3.2 0 1.75-1.45 3.2-3.2 3.2-1.8 0-3.2-1.45-3.2-3.2z" stroke="#000" stroke-opacity="0" fill="#00bfa5"/><defs><filter id="a" filterUnits="objectBoundingBox" x="-.08" y="-.05" width="1.16" height="1.16"><feOffset result="offOut" in="SourceAlpha" dy="4"/><feGaussianBlur result="blurOut" in="offOut" stdDeviation="5"/><feColorMatrix result="colorOut" in="blurOut" values="0 0 0 0 0.03114186851211073 0 0 0 0 0.018069973087274125 0 0 0 0 0.07727797001153403 0 0 0 0.09803921568627451 0"/><feBlend in="SourceGraphic" in2="colorOut"/></filter><path fill="#697986" d="M1165-1446v221H730V0H461v-1225H24v-221h1141" id="S"/><path fill="#697986" d="M1284-209C1170-69 1008 19 759 16c-347-4-553-182-649-442-66-178-66-423 6-596 108-261 330-435 688-440 220-3 375 79 488 188l-90 125c-16 32-68 39-102 12-71-55-162-101-298-96-304 11-465 201-465 510 0 241 101 401 267 477 125 58 330 39 424-24 42-17 97-111 150-54" id="T"/><path fill="#697986" d="M1187-985c0 329-222 471-561 476H424V0H155v-1446h471c337 4 561 134 561 461zm-269 0c0-176-112-253-292-253H424v519h202c184-1 292-85 292-266" id="U"/><g id="b"><use transform="matrix(0.008888888888888885,0,0,0.008888888888888885,0,0)" xlink:href="#S"/><use transform="matrix(0.008888888888888885,0,0,0.008888888888888885,9.88444444444444,0)" xlink:href="#T"/><use transform="matrix(0.008888888888888885,0,0,0.008888888888888885,21.804444444444435,0)" xlink:href="#U"/></g><path fill="#697986" d="M415-222h579V0H146v-1446h269v1224" id="V"/><path fill="#697986" d="M449 0H179v-1446h270V0" id="W"/><path fill="#697986" d="M1058-1446v214H417v401h505v207H417v409h641V0H146v-1446h912" id="X"/><path fill="#697986" d="M377-1009c4 38 6 82 6 121V0H146v-1446c71 6 174-24 211 20 269 320 519 661 779 990-5-42-7-87-7-131v-879h237V0c-64-4-144 10-192-10-14-6-28-19-41-36" id="Y"/><g id="c"><use transform="matrix(0.008888888888888885,0,0,0.008888888888888885,0,0)" xlink:href="#T"/><use transform="matrix(0.008888888888888885,0,0,0.008888888888888885,11.919999999999995,0)" xlink:href="#V"/><use transform="matrix(0.008888888888888885,0,0,0.008888888888888885,21.1111111111111,0)" xlink:href="#W"/><use transform="matrix(0.008888888888888885,0,0,0.008888888888888885,26.693333333333324,0)" xlink:href="#X"/><use transform="matrix(0.008888888888888885,0,0,0.008888888888888885,36.87111111111109,0)" xlink:href="#Y"/><use transform="matrix(0.008888888888888885,0,0,0.008888888888888885,50.31111111111109,0)" xlink:href="#S"/></g><path fill="#f50057" d="M572-1057c257 0 406 153 406 409V0c-68-4-160 9-208-12-30-14-45-72-60-107C623-47 539 18 382 16 189 13 70-77 70-270c0-183 145-251 311-298 78-21 176-33 295-36 8-132-26-216-144-216-125 0-159 78-268 78-94 0-104-95-146-151 112-100 257-164 454-164zM366-285c-2 73 41 96 114 96 97 0 140-35 196-89v-144c-104 4-184 15-248 46-39 19-61 43-62 91" id="Z"/><path fill="#f50057" d="M666 16c-111 3-175-34-236-85v398H120v-1366h192c78-3 80 73 99 128 76-81 169-148 323-148 201 0 299 140 348 307 38 128 40 313-4 439-63 179-182 321-412 327zm124-543c0-153-21-288-164-293-99-3-151 43-196 98v440c40 45 88 70 162 70 160 0 198-144 198-315" id="aa"/><path fill="#f50057" d="M440-1037V0H130v-1037h310zm-154-466c113 0 190 70 190 182 0 111-79 180-190 180-109 0-184-71-184-180 0-110 74-182 184-182" id="ab"/><path fill="#f50057" d="M236 14C129 14 60-51 60-157c0-105 70-171 176-171 105 0 176 66 176 171 0 106-70 171-176 171" id="ac"/><path fill="#f50057" d="M958-162C862-50 728 16 528 16 297 16 159-117 90-293c-49-124-51-307-4-437 70-194 223-323 484-323 177 0 287 60 380 153-36 45-67 98-109 136-73 33-113-34-174-50-21-5-46-11-77-11-169 4-215 131-220 304-6 205 103 354 302 295 57-17 74-74 140-74 25 0 42 10 56 27" id="ad"/><path fill="#f50057" d="M366-1016c125-49 306-50 431 0 190 75 313 236 313 495 0 261-123 423-313 499-125 50-306 50-431 0C175-98 50-259 50-521c0-260 126-421 316-495zm4 497c0 183 45 305 212 305 163 0 208-124 208-305 0-182-44-304-208-304-167 0-212 121-212 304" id="ae"/><path fill="#f50057" d="M580-820c-67 0-112 34-150 70V0H120v-1037h192c68-3 78 56 93 108 65-66 139-123 267-124 134-1 209 79 249 178 61-110 169-178 333-178 248 0 368 145 368 394V0h-310v-659c0-107-46-161-138-161-89 1-146 65-146 161V0H718v-659c0-110-37-161-138-161" id="af"/><path fill="#f50057" d="M612-820c-81 1-134 39-182 81V0H120v-1037h192c70-3 79 59 94 112 74-70 159-128 302-128 236 0 352 157 352 394V0H750v-659c0-96-44-162-138-161" id="ag"/><path fill="#f50057" d="M544 269c-20 41-37 60-98 60H214L414-91 0-1037h274c46-1 73 23 84 54 69 190 150 371 209 571 68-189 134-380 199-571 10-28 45-55 82-54h250" id="ah"/><path fill="#f50057" d="M774-74c-71 55-172 90-290 90-196 0-304-108-304-303v-536c-70 1-146 12-146-61v-121l165-32 61-253c16-78 146-38 230-48v303h252v212H490v515c0 45 23 83 68 83 48 0 88-50 122 4" id="ai"/><path fill="#f50057" d="M1024-162C926-48 781 16 578 16 325 16 169-111 94-299c-49-123-59-309-6-439 74-183 225-315 476-315 298 0 466 176 466 475 0 66-3 115-70 115H362c16 155 90 243 244 247 98 2 155-39 218-71 37-18 85-16 110 14zM752-643c-3-120-60-196-182-196-129 0-185 80-205 196h387" id="aj"/><path fill="#f50057" d="M768-795c-14 65-88 29-146 29-81 0-145 43-192 130V0H120v-1037c73 2 156-8 222 4 64 11 52 105 69 166 65-96 144-190 283-190 47 0 85 11 114 34" id="ak"/><path fill="#f50057" d="M440-1497V0H130v-1497h310" id="al"/><path fill="#f50057" d="M564-1101c10-146-196-154-298-95-28 16-47 35-82 35-29 0-49-13-64-37l-82-126c102-82 223-149 406-149 244 0 402 115 408 354 6 230-160 297-278 405-47 43-40 128-60 196H302c-4-86-47-189-3-262 72-120 253-139 265-321zM398 14c-107 0-176-65-176-171 0-105 70-171 176-171 105 0 176 66 176 171 0 106-70 171-176 171" id="am"/><g id="d"><use transform="matrix(0.008888888888888889,0,0,0.008888888888888889,0,0)" xlink:href="#Z"/><use transform="matrix(0.008888888888888889,0,0,0.008888888888888889,9.582222222222223,0)" xlink:href="#aa"/><use transform="matrix(0.008888888888888889,0,0,0.008888888888888889,19.857777777777777,0)" xlink:href="#ab"/><use transform="matrix(0.008888888888888889,0,0,0.008888888888888889,24.924444444444443,0)" xlink:href="#ac"/><use transform="matrix(0.008888888888888889,0,0,0.008888888888888889,29.119999999999997,0)" xlink:href="#ad"/><use transform="matrix(0.008888888888888889,0,0,0.008888888888888889,37.76,0)" xlink:href="#ae"/><use transform="matrix(0.008888888888888889,0,0,0.008888888888888889,48.07111111111111,0)" xlink:href="#af"/><use transform="matrix(0.008888888888888889,0,0,0.008888888888888889,63.37777777777777,0)" xlink:href="#aa"/><use transform="matrix(0.008888888888888889,0,0,0.008888888888888889,73.65333333333334,0)" xlink:href="#Z"/><use transform="matrix(0.008888888888888889,0,0,0.008888888888888889,83.23555555555558,0)" xlink:href="#ag"/><use transform="matrix(0.008888888888888889,0,0,0.008888888888888889,93.19111111111113,0)" xlink:href="#ah"/><use transform="matrix(0.008888888888888889,0,0,0.008888888888888889,101.7777777777778,0)" xlink:href="#ac"/><use transform="matrix(0.008888888888888889,0,0,0.008888888888888889,105.97333333333337,0)" xlink:href="#ab"/><use transform="matrix(0.008888888888888889,0,0,0.008888888888888889,111.04000000000002,0)" xlink:href="#ag"/><use transform="matrix(0.008888888888888889,0,0,0.008888888888888889,121.35111111111114,0)" xlink:href="#ai"/><use transform="matrix(0.008888888888888889,0,0,0.008888888888888889,128.46222222222224,0)" xlink:href="#aj"/><use transform="matrix(0.008888888888888889,0,0,0.008888888888888889,138.13333333333335,0)" xlink:href="#ak"/><use transform="matrix(0.008888888888888889,0,0,0.008888888888888889,145.4755555555556,0)" xlink:href="#ag"/><use transform="matrix(0.008888888888888889,0,0,0.008888888888888889,155.7866666666667,0)" xlink:href="#Z"/><use transform="matrix(0.008888888888888889,0,0,0.008888888888888889,165.36888888888888,0)" xlink:href="#al"/><use transform="matrix(0.008888888888888889,0,0,0.008888888888888889,170.43555555555557,0)" xlink:href="#am"/></g><path fill="#f50057" d="M252-224h280c2-282-4-570 3-848L370-935c-34 38-114 22-140-12l-98-130 454-381h256v1234h240V0H252v-224" id="an"/><path fill="#f50057" d="M1079-1060c53 176 54 486 0 662-72 237-212 414-501 414-287 0-427-178-498-414-53-176-53-486 0-662 71-237 210-413 498-413s430 177 501 413zM659-254c162-89 162-477 122-722-22-135-65-248-203-248-137 0-179 115-200 248-38 243-40 632 120 722 52 29 109 29 161 0" id="ao"/><path fill="#f50057" d="M532-896c89-35 216-36 312-1 162 59 274 190 274 411 0 240-136 387-313 462-125 53-311 53-436 2C185-96 66-254 66-506c0-186 74-313 166-437l328-443c29-40 94-71 166-71h276c-157 187-313 374-470 561zm46 197c-139 0-214 93-214 235 0 148 69 235 218 235 140 0 226-93 226-234 0-150-82-236-230-236" id="ap"/><path fill="#f50057" d="M1126-566c-12 87 37 230-60 231h-90V0H706v-335H120c-39 1-76-30-82-63L6-551l674-906h296v891h150zm-420 0c3-181-8-372 10-539L331-566h375" id="aq"/><path fill="#f50057" d="M86-1041c45-269 211-432 516-432 221 0 368 97 436 253 40 91 43 220 10 318-51 154-158 259-262 365L501-245c130-48 308-33 481-35 63-1 108 39 108 100V0H66c-2-94 2-169 54-222l420-423c101-110 202-200 212-395 7-138-99-209-232-170-58 17-99 60-118 117-22 66-66 96-152 81" id="ar"/><g id="e"><use transform="matrix(0.008888888888888889,0,0,0.008888888888888889,0,0)" xlink:href="#an"/><use transform="matrix(0.008888888888888889,0,0,0.008888888888888889,10.311111111111112,0)" xlink:href="#ao"/><use transform="matrix(0.008888888888888889,0,0,0.008888888888888889,20.622222222222224,0)" xlink:href="#ao"/><use transform="matrix(0.008888888888888889,0,0,0.008888888888888889,30.933333333333337,0)" xlink:href="#ac"/><use transform="matrix(0.008888888888888889,0,0,0.008888888888888889,35.128888888888895,0)" xlink:href="#ap"/><use transform="matrix(0.008888888888888889,0,0,0.008888888888888889,45.440000000000005,0)" xlink:href="#aq"/><use transform="matrix(0.008888888888888889,0,0,0.008888888888888889,55.75111111111111,0)" xlink:href="#ac"/><use transform="matrix(0.008888888888888889,0,0,0.008888888888888889,59.94666666666667,0)" xlink:href="#ao"/><use transform="matrix(0.008888888888888889,0,0,0.008888888888888889,70.25777777777779,0)" xlink:href="#ac"/><use transform="matrix(0.008888888888888889,0,0,0.008888888888888889,74.45333333333335,0)" xlink:href="#ar"/></g><filter id="f" filterUnits="objectBoundingBox" x="-.13" y="-.07" width="1.25" height="1.25"><feOffset result="offOut" in="SourceAlpha" dy="4"/><feGaussianBlur result="blurOut" in="offOut" stdDeviation="5"/><feColorMatrix result="colorOut" in="blurOut" values="0 0 0 0 0 0 0 0 0 0.2996078431372549 0 0 0 0 0.25882352941176473 0 0 0 0.4 0"/><feBlend in="SourceGraphic" in2="colorOut"/></filter><path fill="#00bfa5" d="M1187-985c0 329-222 471-561 476H424V0H155v-1446h471c337 4 561 134 561 461zm-269 0c0-176-112-253-292-253H424v519h202c184-1 292-85 292-266" id="as"/><path fill="#00bfa5" d="M1153-1030c0 232-137 352-319 413 34 19 63 47 88 83L1284 0h-242c-51 0-80-22-101-54L637-517c-24-34-42-48-98-48H424V0H155v-1446h441c324 4 557 105 557 416zm-263 20c0-163-114-229-294-228H424v480h168c180-3 298-77 298-252" id="at"/><path fill="#00bfa5" d="M1480-1018c71 176 71 414 0 590-106 261-323 444-679 444S225-168 120-428c-71-176-71-414 0-590 106-261 324-444 681-444 355 0 573 184 679 444zM801-214c307 0 456-198 456-509s-149-510-456-510c-308 0-459 198-459 510s152 509 459 509" id="au"/><path fill="#00bfa5" d="M493-744L32-1446h268c38 0 48 9 63 32l329 531c7-19 15-35 25-51l301-475c15-25 34-37 57-37h258L867-755 1346 0h-269c-37 1-57-23-71-46L671-600c-5 15-12 29-19 42L331-46c-14 20-33 47-67 46H12" id="av"/><path fill="#00bfa5" d="M789-562V0H520v-562L-7-1446h237c50 0 72 27 90 60 102 188 210 370 305 564 12 25 22 51 31 76 20-56 40-105 69-157l263-483c15-28 44-60 89-60h238" id="aw"/><g id="g"><use transform="matrix(0.008888888888888885,0,0,0.008888888888888885,0,0)" xlink:href="#as"/><use transform="matrix(0.008888888888888885,0,0,0.008888888888888885,11.111111111111107,0)" xlink:href="#at"/><use transform="matrix(0.008888888888888885,0,0,0.008888888888888885,22.328888888888883,0)" xlink:href="#au"/><use transform="matrix(0.008888888888888885,0,0,0.008888888888888885,36.27555555555554,0)" xlink:href="#av"/><use transform="matrix(0.008888888888888885,0,0,0.008888888888888885,48.34666666666665,0)" xlink:href="#aw"/></g><path fill="#697986" d="M565-850c-86 0-140 48-186 99V0H132v-1026c80 9 198-29 214 45l16 76c67-72 141-136 276-137 139-1 214 86 253 192 57-117 162-192 328-192 240 0 354 147 354 389V0h-247v-653c1-123-52-197-169-197s-180 76-180 197V0H729v-653c0-127-46-197-164-197" id="ax"/><path fill="#697986" d="M519-204c146 0 246-70 241-211-6-175-195-185-333-232-183-63-339-153-333-400 5-199 120-319 272-380 126-51 311-44 437 5 72 27 133 64 184 112l-66 127c-15 40-64 51-105 25-64-41-136-87-246-85-132 3-224 54-224 182 0 167 202 176 334 227 173 67 333 144 333 381 0 227-120 364-289 433-138 56-353 39-478-16-80-35-154-80-210-138l78-129c23-34 74-43 115-13 73 54 157 112 290 112" id="ay"/><g id="h"><use transform="matrix(0.007777777777777774,0,0,0.007777777777777774,0,0)" xlink:href="#ax"/><use transform="matrix(0.007777777777777774,0,0,0.007777777777777774,13.097777777777772,0)" xlink:href="#S"/><use transform="matrix(0.007777777777777774,0,0,0.007777777777777774,22.353333333333325,0)" xlink:href="#V"/><use transform="matrix(0.007777777777777774,0,0,0.007777777777777774,30.395555555555543,0)" xlink:href="#ay"/></g><path fill="#697986" d="M398-581c6 222 109 364 330 364 220 0 331-140 331-363v-866h269v866c-5 286-141 466-350 552-142 59-358 59-500 0-210-86-349-266-349-552v-866h269v865" id="az"/><g id="i"><use transform="matrix(0.007777777777777774,0,0,0.007777777777777774,0,0)" xlink:href="#S"/><use transform="matrix(0.007777777777777774,0,0,0.007777777777777774,9.255555555555551,0)" xlink:href="#az"/><use transform="matrix(0.007777777777777774,0,0,0.007777777777777774,20.57999999999999,0)" xlink:href="#Y"/><use transform="matrix(0.007777777777777774,0,0,0.007777777777777774,32.33999999999999,0)" xlink:href="#Y"/><use transform="matrix(0.007777777777777774,0,0,0.007777777777777774,44.09999999999998,0)" xlink:href="#X"/><use transform="matrix(0.007777777777777774,0,0,0.007777777777777774,53.00555555555553,0)" xlink:href="#V"/></g><path fill="#00bfa5" d="M1165-1446v221H730V0H461v-1225H24v-221h1141" id="aA"/><path fill="#00bfa5" d="M1284-209C1170-69 1008 19 759 16c-347-4-553-182-649-442-66-178-66-423 6-596 108-261 330-435 688-440 220-3 375 79 488 188l-90 125c-16 32-68 39-102 12-71-55-162-101-298-96-304 11-465 201-465 510 0 241 101 401 267 477 125 58 330 39 424-24 42-17 97-111 150-54" id="aB"/><g id="j"><use transform="matrix(0.008888888888888889,0,0,0.008888888888888889,0,0)" xlink:href="#aA"/><use transform="matrix(0.008888888888888889,0,0,0.008888888888888889,9.884444444444444,0)" xlink:href="#aB"/><use transform="matrix(0.008888888888888889,0,0,0.008888888888888889,21.80444444444444,0)" xlink:href="#as"/></g><path fill="#00bfa5" d="M252-224h280c2-282-4-570 3-848L370-935c-34 38-114 22-140-12l-98-130 454-381h256v1234h240V0H252v-224" id="aC"/><path fill="#00bfa5" d="M1079-1060c53 176 54 486 0 662-72 237-212 414-501 414-287 0-427-178-498-414-53-176-53-486 0-662 71-237 210-413 498-413s430 177 501 413zM659-254c162-89 162-477 122-722-22-135-65-248-203-248-137 0-179 115-200 248-38 243-40 632 120 722 52 29 109 29 161 0" id="aD"/><path fill="#00bfa5" d="M236 14C129 14 60-51 60-157c0-105 70-171 176-171 105 0 176 66 176 171 0 106-70 171-176 171" id="aE"/><path fill="#00bfa5" d="M532-896c89-35 216-36 312-1 162 59 274 190 274 411 0 240-136 387-313 462-125 53-311 53-436 2C185-96 66-254 66-506c0-186 74-313 166-437l328-443c29-40 94-71 166-71h276c-157 187-313 374-470 561zm46 197c-139 0-214 93-214 235 0 148 69 235 218 235 140 0 226-93 226-234 0-150-82-236-230-236" id="aF"/><path fill="#00bfa5" d="M1126-566c-12 87 37 230-60 231h-90V0H706v-335H120c-39 1-76-30-82-63L6-551l674-906h296v891h150zm-420 0c3-181-8-372 10-539L331-566h375" id="aG"/><path fill="#00bfa5" d="M86-1041c45-269 211-432 516-432 221 0 368 97 436 253 40 91 43 220 10 318-51 154-158 259-262 365L501-245c130-48 308-33 481-35 63-1 108 39 108 100V0H66c-2-94 2-169 54-222l420-423c101-110 202-200 212-395 7-138-99-209-232-170-58 17-99 60-118 117-22 66-66 96-152 81" id="aH"/><g id="k"><use transform="matrix(0.008888888888888889,0,0,0.008888888888888889,0,0)" xlink:href="#aC"/><use transform="matrix(0.008888888888888889,0,0,0.008888888888888889,10.311111111111112,0)" xlink:href="#aD"/><use transform="matrix(0.008888888888888889,0,0,0.008888888888888889,20.622222222222224,0)" xlink:href="#aD"/><use transform="matrix(0.008888888888888889,0,0,0.008888888888888889,30.933333333333337,0)" xlink:href="#aE"/><use transform="matrix(0.008888888888888889,0,0,0.008888888888888889,35.128888888888895,0)" xlink:href="#aF"/><use transform="matrix(0.008888888888888889,0,0,0.008888888888888889,45.440000000000005,0)" xlink:href="#aG"/><use transform="matrix(0.008888888888888889,0,0,0.008888888888888889,55.75111111111111,0)" xlink:href="#aE"/><use transform="matrix(0.008888888888888889,0,0,0.008888888888888889,59.94666666666667,0)" xlink:href="#aD"/><use transform="matrix(0.008888888888888889,0,0,0.008888888888888889,70.25777777777779,0)" xlink:href="#aE"/><use transform="matrix(0.008888888888888889,0,0,0.008888888888888889,74.45333333333335,0)" xlink:href="#aH"/></g><path fill="#697986" d="M556-1045c246 0 380 151 380 397V0c-79-6-181 23-196-53l-22-73C630-49 541 18 379 16 194 13 81-77 81-262c0-184 152-247 321-292 78-21 176-31 293-34 10-155-29-262-170-262-104 0-161 40-224 77-47 28-107 5-127-31l-45-79c118-108 260-162 427-162zM317-275c-3 86 56 121 139 121 117 0 179-51 239-111v-173c-122 6-219 17-297 53-49 22-79 51-81 110" id="aI"/><path fill="#697986" d="M635 15C514 15 442-25 379-85v420H132v-1361c64 5 145-11 192 11 33 24 28 86 42 129 78-86 174-159 331-159 277 0 379 232 379 524 0 241-96 412-258 495-54 27-116 41-183 41zm186-536c0-181-37-329-209-329-117 0-175 55-233 124v460c48 60 104 93 198 93 188 0 244-152 244-348" id="aJ"/><path fill="#697986" d="M395-1026V0H148v-1026h247zm-123-457c96 0 160 62 160 158 0 94-65 155-160 155-93 0-156-62-156-155 0-95 61-158 156-158" id="aK"/><path fill="#697986" d="M225 14C133 14 73-43 73-136c0-92 60-151 152-151 91 0 151 60 151 151 0 92-59 150-151 150" id="aL"/><path fill="#697986" d="M928-153C839-49 712 15 524 15c-227 0-358-131-424-305-47-123-49-306-4-434 67-190 213-318 465-318 165 0 270 58 357 143-29 37-52 81-86 112-71 26-104-41-170-55-24-5-52-12-86-12-192 5-260 143-260 339 0 194 67 336 254 342 98 3 148-38 200-79 26-20 67-17 87 9" id="aM"/><path fill="#697986" d="M361-1005c121-49 297-49 417 0 184 74 298 236 298 490 0 330-178 530-506 530C241 15 61-185 61-515c0-254 115-416 300-490zm-45 492c0 201 65 338 254 338 188 0 251-137 251-338s-63-340-251-340c-189 0-254 139-254 340" id="aN"/><path fill="#697986" d="M605-850c-102 1-168 52-226 108V0H132v-1026c80 9 198-29 214 45l17 81c77-76 165-142 317-142 235 0 346 154 346 389V0H779v-653c0-121-55-198-174-197" id="aO"/><path fill="#697986" d="M496 282c-21 85-170 43-266 53L422-76 7-1026h216c39-1 60 21 70 46 80 195 164 386 238 586 7 18 10 37 14 56 74-221 164-427 244-642 9-24 36-46 68-46h198" id="aP"/><path fill="#697986" d="M738-75c-64 55-158 90-269 91-176 2-277-109-277-284v-573c-65-4-153 21-153-52v-98l165-27 52-280c10-66 115-35 183-42v323h270v176H439v556c-1 59 32 101 88 102 48 1 68-25 104-34 19 1 25 9 33 22" id="aQ"/><path fill="#697986" d="M991-153C899-47 760 15 568 15 237 15 63-197 63-535c0-237 116-392 287-467 61-27 129-40 206-40 287 0 444 174 444 465 0 54-3 95-57 95H309c4 226 158 349 385 292 52-13 93-39 132-62 32-19 73-16 93 9zM778-631c-4-143-73-234-217-234-154 0-226 95-247 234h464" id="aR"/><path fill="#697986" d="M604-806c-122 5-180 74-225 167V0H132v-1026c83 11 206-35 218 62l15 124c63-106 147-205 295-205 51 0 93 12 126 35l-32 185c-4 23-15 33-40 33-33 0-65-16-110-14" id="aS"/><path fill="#697986" d="M395-1486V0H148v-1486h247" id="aT"/><g id="l"><use transform="matrix(0.008888888888888885,0,0,0.008888888888888885,0,0)" xlink:href="#aI"/><use transform="matrix(0.008888888888888885,0,0,0.008888888888888885,9.306666666666663,0)" xlink:href="#aJ"/><use transform="matrix(0.008888888888888885,0,0,0.008888888888888885,19.359999999999992,0)" xlink:href="#aK"/><use transform="matrix(0.008888888888888885,0,0,0.008888888888888885,24.17777777777777,0)" xlink:href="#aL"/><use transform="matrix(0.008888888888888885,0,0,0.008888888888888885,28.17777777777777,0)" xlink:href="#aM"/><use transform="matrix(0.008888888888888885,0,0,0.008888888888888885,36.65777777777777,0)" xlink:href="#aN"/><use transform="matrix(0.008888888888888885,0,0,0.008888888888888885,46.76444444444443,0)" xlink:href="#ax"/><use transform="matrix(0.008888888888888885,0,0,0.008888888888888885,61.733333333333306,0)" xlink:href="#aJ"/><use transform="matrix(0.008888888888888885,0,0,0.008888888888888885,71.78666666666665,0)" xlink:href="#aI"/><use transform="matrix(0.008888888888888885,0,0,0.008888888888888885,81.0933333333333,0)" xlink:href="#aO"/><use transform="matrix(0.008888888888888885,0,0,0.008888888888888885,90.87999999999997,0)" xlink:href="#aP"/><use transform="matrix(0.008888888888888885,0,0,0.008888888888888885,99.15555555555552,0)" xlink:href="#aL"/><use transform="matrix(0.008888888888888885,0,0,0.008888888888888885,103.15555555555551,0)" xlink:href="#aK"/><use transform="matrix(0.008888888888888885,0,0,0.008888888888888885,107.97333333333329,0)" xlink:href="#aO"/><use transform="matrix(0.008888888888888885,0,0,0.008888888888888885,118.07999999999996,0)" xlink:href="#aQ"/><use transform="matrix(0.008888888888888885,0,0,0.008888888888888885,124.95999999999995,0)" xlink:href="#aR"/><use transform="matrix(0.008888888888888885,0,0,0.008888888888888885,134.46222222222218,0)" xlink:href="#aS"/><use transform="matrix(0.008888888888888885,0,0,0.008888888888888885,141.7244444444444,0)" xlink:href="#aO"/><use transform="matrix(0.008888888888888885,0,0,0.008888888888888885,151.83111111111106,0)" xlink:href="#aI"/><use transform="matrix(0.008888888888888885,0,0,0.008888888888888885,161.13777777777773,0)" xlink:href="#aT"/></g><path fill="#697986" d="M1377-1015c71 172 71 412 0 584C1271-174 1052 0 698 0H146v-1446h552c353 6 574 175 679 431zM698-214c307-9 457-198 457-509s-150-500-457-509H417v1018h281" id="aU"/><g id="m"><use transform="matrix(0.008888888888888885,0,0,0.008888888888888885,0,0)" xlink:href="#aU"/><use transform="matrix(0.008888888888888885,0,0,0.008888888888888885,13.288888888888884,0)" xlink:href="#Y"/><use transform="matrix(0.008888888888888885,0,0,0.008888888888888885,26.72888888888888,0)" xlink:href="#ay"/></g><path fill="#697986" d="M1153-1030c0 232-137 352-319 413 34 19 63 47 88 83L1284 0h-242c-51 0-80-22-101-54L637-517c-24-34-42-48-98-48H424V0H155v-1446h441c324 4 557 105 557 416zm-263 20c0-163-114-229-294-228H424v480h168c180-3 298-77 298-252" id="aV"/><path fill="#697986" d="M4-1446h217c48-1 77 26 90 61 125 326 256 646 373 977 12 34 20 70 29 108 15-77 34-144 57-203l339-882c12-30 45-61 89-61h217L831 0H588" id="aW"/><g id="n"><use transform="matrix(0.008888888888888885,0,0,0.008888888888888885,0,0)" xlink:href="#ay"/><use transform="matrix(0.008888888888888885,0,0,0.008888888888888885,9.537777777777775,0)" xlink:href="#X"/><use transform="matrix(0.008888888888888885,0,0,0.008888888888888885,19.715555555555547,0)" xlink:href="#aV"/><use transform="matrix(0.008888888888888885,0,0,0.008888888888888885,31.359999999999985,0)" xlink:href="#aW"/><use transform="matrix(0.008888888888888885,0,0,0.008888888888888885,43.982222222222205,0)" xlink:href="#X"/><use transform="matrix(0.008888888888888885,0,0,0.008888888888888885,54.159999999999975,0)" xlink:href="#aV"/></g><g id="o"><use transform="matrix(0.008888888888888889,0,0,0.008888888888888889,0,0)" xlink:href="#Z"/><use transform="matrix(0.008888888888888889,0,0,0.008888888888888889,9.582222222222223,0)" xlink:href="#aa"/><use transform="matrix(0.008888888888888889,0,0,0.008888888888888889,19.857777777777777,0)" xlink:href="#ab"/><use transform="matrix(0.008888888888888889,0,0,0.008888888888888889,24.924444444444443,0)" xlink:href="#ac"/><use transform="matrix(0.008888888888888889,0,0,0.008888888888888889,29.119999999999997,0)" xlink:href="#ad"/><use transform="matrix(0.008888888888888889,0,0,0.008888888888888889,37.76,0)" xlink:href="#ae"/><use transform="matrix(0.008888888888888889,0,0,0.008888888888888889,48.07111111111111,0)" xlink:href="#af"/><use transform="matrix(0.008888888888888889,0,0,0.008888888888888889,63.37777777777777,0)" xlink:href="#aa"/><use transform="matrix(0.008888888888888889,0,0,0.008888888888888889,73.65333333333334,0)" xlink:href="#Z"/><use transform="matrix(0.008888888888888889,0,0,0.008888888888888889,83.23555555555558,0)" xlink:href="#ag"/><use transform="matrix(0.008888888888888889,0,0,0.008888888888888889,93.19111111111113,0)" xlink:href="#ah"/><use transform="matrix(0.008888888888888889,0,0,0.008888888888888889,101.7777777777778,0)" xlink:href="#ac"/><use transform="matrix(0.008888888888888889,0,0,0.008888888888888889,105.97333333333337,0)" xlink:href="#ab"/><use transform="matrix(0.008888888888888889,0,0,0.008888888888888889,111.04000000000002,0)" xlink:href="#ag"/><use transform="matrix(0.008888888888888889,0,0,0.008888888888888889,121.35111111111114,0)" xlink:href="#ai"/><use transform="matrix(0.008888888888888889,0,0,0.008888888888888889,128.46222222222224,0)" xlink:href="#aj"/><use transform="matrix(0.008888888888888889,0,0,0.008888888888888889,138.13333333333335,0)" xlink:href="#ak"/><use transform="matrix(0.008888888888888889,0,0,0.008888888888888889,145.4755555555556,0)" xlink:href="#ag"/><use transform="matrix(0.008888888888888889,0,0,0.008888888888888889,155.7866666666667,0)" xlink:href="#Z"/><use transform="matrix(0.008888888888888889,0,0,0.008888888888888889,165.36888888888888,0)" xlink:href="#al"/><use transform="matrix(0.008888888888888889,0,0,0.008888888888888889,170.43555555555557,0)" xlink:href="#am"/></g><g id="p"><use transform="matrix(0.008888888888888889,0,0,0.008888888888888889,0,0)" xlink:href="#an"/><use transform="matrix(0.008888888888888889,0,0,0.008888888888888889,10.311111111111112,0)" xlink:href="#ao"/><use transform="matrix(0.008888888888888889,0,0,0.008888888888888889,20.622222222222224,0)" xlink:href="#ac"/><use transform="matrix(0.008888888888888889,0,0,0.008888888888888889,24.817777777777778,0)" xlink:href="#ao"/><use transform="matrix(0.008888888888888889,0,0,0.008888888888888889,35.12888888888889,0)" xlink:href="#ac"/><use transform="matrix(0.008888888888888889,0,0,0.008888888888888889,39.324444444444445,0)" xlink:href="#an"/><use transform="matrix(0.008888888888888889,0,0,0.008888888888888889,49.635555555555555,0)" xlink:href="#ac"/><use transform="matrix(0.008888888888888889,0,0,0.008888888888888889,53.83111111111111,0)" xlink:href="#an"/></g><g id="q"><use transform="matrix(0.008888888888888889,0,0,0.008888888888888889,0,0)" xlink:href="#aC"/><use transform="matrix(0.008888888888888889,0,0,0.008888888888888889,10.311111111111112,0)" xlink:href="#aD"/><use transform="matrix(0.008888888888888889,0,0,0.008888888888888889,20.622222222222224,0)" xlink:href="#aE"/><use transform="matrix(0.008888888888888889,0,0,0.008888888888888889,24.817777777777778,0)" xlink:href="#aD"/><use transform="matrix(0.008888888888888889,0,0,0.008888888888888889,35.12888888888889,0)" xlink:href="#aE"/><use transform="matrix(0.008888888888888889,0,0,0.008888888888888889,39.324444444444445,0)" xlink:href="#aC"/><use transform="matrix(0.008888888888888889,0,0,0.008888888888888889,49.635555555555555,0)" xlink:href="#aE"/><use transform="matrix(0.008888888888888889,0,0,0.008888888888888889,53.83111111111111,0)" xlink:href="#aC"/></g><path fill="#512fc9" d="M1187-985c0 329-222 471-561 476H424V0H155v-1446h471c337 4 561 134 561 461zm-269 0c0-176-112-253-292-253H424v519h202c184-1 292-85 292-266" id="aX"/><path fill="#512fc9" d="M398-581c6 222 109 364 330 364 220 0 331-140 331-363v-866h269v866c-5 286-141 466-350 552-142 59-358 59-500 0-210-86-349-266-349-552v-866h269v865" id="aY"/><path fill="#512fc9" d="M1177-1061c0 181-116 262-257 314 199 45 298 152 298 322C1218-130 997 0 692 0H146v-1446h499c307 3 532 89 532 385zM952-431c0-152-108-202-265-203H415v424h273c163-1 264-65 264-221zm-43-598c0-163-94-209-264-209H415v418h215c168-1 279-50 279-209" id="aZ"/><path fill="#512fc9" d="M415-222h579V0H146v-1446h269v1224" id="ba"/><path fill="#512fc9" d="M449 0H179v-1446h270V0" id="bb"/><path fill="#512fc9" d="M1284-209C1170-69 1008 19 759 16c-347-4-553-182-649-442-66-178-66-423 6-596 108-261 330-435 688-440 220-3 375 79 488 188l-90 125c-16 32-68 39-102 12-71-55-162-101-298-96-304 11-465 201-465 510 0 241 101 401 267 477 125 58 330 39 424-24 42-17 97-111 150-54" id="bc"/><g id="r"><use transform="matrix(0.00837,0,0,0.00837,0,0)" xlink:href="#aX"/><use transform="matrix(0.00837,0,0,0.00837,10.4625,0)" xlink:href="#aY"/><use transform="matrix(0.00837,0,0,0.00837,22.64922,0)" xlink:href="#aZ"/><use transform="matrix(0.00837,0,0,0.00837,33.55533,0)" xlink:href="#ba"/><use transform="matrix(0.00837,0,0,0.00837,42.20991,0)" xlink:href="#bb"/><use transform="matrix(0.00837,0,0,0.00837,47.46627,0)" xlink:href="#bc"/></g><path fill="#512fc9" d="M377-1009c4 38 6 82 6 121V0H146v-1446c71 6 174-24 211 20 269 320 519 661 779 990-5-42-7-87-7-131v-879h237V0c-64-4-144 10-192-10-14-6-28-19-41-36" id="bd"/><path fill="#512fc9" d="M1058-1446v214H417v401h505v207H417v409h641V0H146v-1446h912" id="be"/><path fill="#512fc9" d="M1165-1446v221H730V0H461v-1225H24v-221h1141" id="bf"/><path fill="#512fc9" d="M12-1446h226c47 0 80 25 90 61 87 312 181 618 262 935 6 25 10 51 15 79 10-53 22-104 38-149l284-865c11-30 46-61 89-61 78 0 148-4 169 61l282 865c15 43 27 90 38 142 9-49 18-98 30-142l246-865c9-33 45-61 89-61h211L1632 0h-243c-113-359-232-713-341-1076C938-712 818-360 704 0H461" id="bg"/><path fill="#512fc9" d="M1480-1018c71 176 71 414 0 590-106 261-323 444-679 444S225-168 120-428c-71-176-71-414 0-590 106-261 324-444 681-444 355 0 573 184 679 444zM801-214c307 0 456-198 456-509s-149-510-456-510c-308 0-459 198-459 510s152 509 459 509" id="bh"/><path fill="#512fc9" d="M1153-1030c0 232-137 352-319 413 34 19 63 47 88 83L1284 0h-242c-51 0-80-22-101-54L637-517c-24-34-42-48-98-48H424V0H155v-1446h441c324 4 557 105 557 416zm-263 20c0-163-114-229-294-228H424v480h168c180-3 298-77 298-252" id="bi"/><path fill="#512fc9" d="M424-840c74 2 135-1 169-44l399-505c32-39 58-57 122-57h232L859-845c-28 33-52 59-89 78 50 19 80 49 111 90L1383 0h-238c-63 0-84-18-111-53L625-587c-28-35-53-49-116-49h-85V0H155v-1447h269v607" id="bj"/><g id="s"><use transform="matrix(0.00837,0,0,0.00837,0,0)" xlink:href="#bd"/><use transform="matrix(0.00837,0,0,0.00837,12.65544,0)" xlink:href="#be"/><use transform="matrix(0.00837,0,0,0.00837,22.23909,0)" xlink:href="#bf"/><use transform="matrix(0.00837,0,0,0.00837,32.19939,0)" xlink:href="#bg"/><use transform="matrix(0.00837,0,0,0.00837,49.717800000000004,0)" xlink:href="#bh"/><use transform="matrix(0.00837,0,0,0.00837,63.10143000000001,0)" xlink:href="#bi"/><use transform="matrix(0.00837,0,0,0.00837,74.06613000000002,0)" xlink:href="#bj"/></g><path fill="#697986" d="M1417 0h-208c-47 1-77-28-90-61l-108-295H412L304-61c-11 30-46 61-89 61H6l568-1446h275zM481-546h461c-77-218-163-424-231-651-66 230-154 432-230 651" id="bk"/><g id="t"><use transform="matrix(0.008888888888888885,0,0,0.008888888888888885,0,0)" xlink:href="#bk"/><use transform="matrix(0.008888888888888885,0,0,0.008888888888888885,12.622222222222216,0)" xlink:href="#U"/><use transform="matrix(0.008888888888888885,0,0,0.008888888888888885,23.733333333333324,0)" xlink:href="#U"/></g><path fill="#697986" d="M1341-140C1204-38 1028 20 789 16c-350-5-566-186-673-442-73-175-71-420-1-596 107-266 333-435 699-440 235-2 404 78 526 189l-78 122c-45 78-131 10-176-17-110-67-334-90-474-29-171 74-275 233-275 474 0 251 105 414 283 489 144 62 360 37 477-26v-263H916c-88 2-46-125-56-202h481v585" id="bl"/><g id="u"><use transform="matrix(0.008888888888888885,0,0,0.008888888888888885,0,0)" xlink:href="#bk"/><use transform="matrix(0.008888888888888885,0,0,0.008888888888888885,12.168888888888883,0)" xlink:href="#bl"/><use transform="matrix(0.008888888888888885,0,0,0.008888888888888885,25.02222222222221,0)" xlink:href="#X"/><use transform="matrix(0.008888888888888885,0,0,0.008888888888888885,35.19999999999999,0)" xlink:href="#Y"/><use transform="matrix(0.008888888888888885,0,0,0.008888888888888885,48.639999999999986,0)" xlink:href="#S"/></g><path fill="#697986" d="M1366 0h-271v-632H417V0H146v-1446h271v622h678v-622h271V0" id="bm"/><g id="v"><use transform="matrix(0.008888888888888885,0,0,0.008888888888888885,0,0)" xlink:href="#ay"/><use transform="matrix(0.008888888888888885,0,0,0.008888888888888885,9.537777777777775,0)" xlink:href="#ay"/><use transform="matrix(0.008888888888888885,0,0,0.008888888888888885,19.07555555555555,0)" xlink:href="#bm"/></g><g id="w"><use transform="matrix(0.008888888888888885,0,0,0.008888888888888885,0,0)" xlink:href="#as"/><use transform="matrix(0.008888888888888885,0,0,0.008888888888888885,11.111111111111107,0)" xlink:href="#at"/><use transform="matrix(0.008888888888888885,0,0,0.008888888888888885,22.328888888888883,0)" xlink:href="#au"/><use transform="matrix(0.008888888888888885,0,0,0.008888888888888885,36.27555555555554,0)" xlink:href="#av"/><use transform="matrix(0.008888888888888885,0,0,0.008888888888888885,48.34666666666665,0)" xlink:href="#aw"/></g><g id="x"><use transform="matrix(0.007777777777777774,0,0,0.007777777777777774,0,0)" xlink:href="#ax"/><use transform="matrix(0.007777777777777774,0,0,0.007777777777777774,13.097777777777772,0)" xlink:href="#S"/><use transform="matrix(0.007777777777777774,0,0,0.007777777777777774,22.353333333333325,0)" xlink:href="#V"/><use transform="matrix(0.007777777777777774,0,0,0.007777777777777774,30.395555555555543,0)" xlink:href="#ay"/></g><g id="y"><use transform="matrix(0.007777777777777774,0,0,0.007777777777777774,0,0)" xlink:href="#S"/><use transform="matrix(0.007777777777777774,0,0,0.007777777777777774,9.255555555555551,0)" xlink:href="#az"/><use transform="matrix(0.007777777777777774,0,0,0.007777777777777774,20.57999999999999,0)" xlink:href="#Y"/><use transform="matrix(0.007777777777777774,0,0,0.007777777777777774,32.33999999999999,0)" xlink:href="#Y"/><use transform="matrix(0.007777777777777774,0,0,0.007777777777777774,44.09999999999998,0)" xlink:href="#X"/><use transform="matrix(0.007777777777777774,0,0,0.007777777777777774,53.00555555555553,0)" xlink:href="#V"/></g><path fill="#fc9432" d="M519-204c146 0 246-70 241-211-6-175-195-185-333-232-183-63-339-153-333-400 5-199 120-319 272-380 126-51 311-44 437 5 72 27 133 64 184 112l-66 127c-15 40-64 51-105 25-64-41-136-87-246-85-132 3-224 54-224 182 0 167 202 176 334 227 173 67 333 144 333 381 0 227-120 364-289 433-138 56-353 39-478-16-80-35-154-80-210-138l78-129c23-34 74-43 115-13 73 54 157 112 290 112" id="bn"/><path fill="#fc9432" d="M1366 0h-271v-632H417V0H146v-1446h271v622h678v-622h271V0" id="bo"/><g id="z"><use transform="matrix(0.008888888888888889,0,0,0.008888888888888889,0,0)" xlink:href="#bn"/><use transform="matrix(0.008888888888888889,0,0,0.008888888888888889,9.537777777777778,0)" xlink:href="#bn"/><use transform="matrix(0.008888888888888889,0,0,0.008888888888888889,19.075555555555557,0)" xlink:href="#bo"/></g><path fill="#fc9432" d="M7-1026h196c35-1 64 19 71 46 60 241 137 465 181 722 68-246 151-481 220-724 17-60 103-44 175-46 35-1 61 20 69 46 70 242 148 477 212 725 47-256 125-482 189-723 21-78 165-35 255-46L1250 0h-199c-21 0-37-15-46-44-67-218-136-432-201-652-5-20-10-39-13-58-8 41-17 80-29 119L575-44c-9 29-27 44-54 44H332" id="bp"/><path fill="#fc9432" d="M395-1026V0H148v-1026h247zm-123-457c96 0 160 62 160 158 0 94-65 155-160 155-93 0-156-62-156-155 0-95 61-158 156-158" id="bq"/><path fill="#fc9432" d="M738-75c-64 55-158 90-269 91-176 2-277-109-277-284v-573c-65-4-153 21-153-52v-98l165-27 52-280c10-66 115-35 183-42v323h270v176H439v556c-1 59 32 101 88 102 48 1 68-25 104-34 19 1 25 9 33 22" id="br"/><path fill="#fc9432" d="M605-850c-102 1-168 52-226 108V0H132v-1486h247v571c76-69 161-129 301-127 234 4 346 154 346 389V0H779v-653c0-121-55-198-174-197" id="bs"/><g id="A"><use transform="matrix(0.008888888888888889,0,0,0.008888888888888889,0,0)" xlink:href="#bp"/><use transform="matrix(0.008888888888888889,0,0,0.008888888888888889,14.062222222222223,0)" xlink:href="#bq"/><use transform="matrix(0.008888888888888889,0,0,0.008888888888888889,18.880000000000003,0)" xlink:href="#br"/><use transform="matrix(0.008888888888888889,0,0,0.008888888888888889,25.76,0)" xlink:href="#bs"/></g><path fill="#fc9432" d="M395-1486V0H148v-1486h247" id="bt"/><path fill="#fc9432" d="M361-1005c121-49 297-49 417 0 184 74 298 236 298 490 0 330-178 530-506 530C241 15 61-185 61-515c0-254 115-416 300-490zm-45 492c0 201 65 338 254 338 188 0 251-137 251-338s-63-340-251-340c-189 0-254 139-254 340" id="bu"/><path fill="#fc9432" d="M928-153C839-49 712 15 524 15c-227 0-358-131-424-305-47-123-49-306-4-434 67-190 213-318 465-318 165 0 270 58 357 143-29 37-52 81-86 112-71 26-104-41-170-55-24-5-52-12-86-12-192 5-260 143-260 339 0 194 67 336 254 342 98 3 148-38 200-79 26-20 67-17 87 9" id="bv"/><path fill="#fc9432" d="M556-1045c246 0 380 151 380 397V0c-79-6-181 23-196-53l-22-73C630-49 541 18 379 16 194 13 81-77 81-262c0-184 152-247 321-292 78-21 176-31 293-34 10-155-29-262-170-262-104 0-161 40-224 77-47 28-107 5-127-31l-45-79c118-108 260-162 427-162zM317-275c-3 86 56 121 139 121 117 0 179-51 239-111v-173c-122 6-219 17-297 53-49 22-79 51-81 110" id="bw"/><g id="B"><use transform="matrix(0.008888888888888889,0,0,0.008888888888888889,0,0)" xlink:href="#bt"/><use transform="matrix(0.008888888888888889,0,0,0.008888888888888889,4.817777777777778,0)" xlink:href="#bu"/><use transform="matrix(0.008888888888888889,0,0,0.008888888888888889,14.924444444444445,0)" xlink:href="#bv"/><use transform="matrix(0.008888888888888889,0,0,0.008888888888888889,23.404444444444444,0)" xlink:href="#bw"/><use transform="matrix(0.008888888888888889,0,0,0.008888888888888889,32.71111111111111,0)" xlink:href="#bt"/></g><path fill="#fc9432" d="M382-1486v851c54 1 89-1 115-33l255-315c22-25 41-43 86-43h226C946-887 832-742 710-606c-11 12-25 21-39 30 29 21 48 49 69 78L1082 0H859c-44-1-65-15-85-44L513-433c-20-29-30-36-75-37h-56V0H135v-1486h247" id="bx"/><path fill="#fc9432" d="M991-153C899-47 760 15 568 15 237 15 63-197 63-535c0-237 116-392 287-467 61-27 129-40 206-40 287 0 444 174 444 465 0 54-3 95-57 95H309c4 226 158 349 385 292 52-13 93-39 132-62 32-19 73-16 93 9zM778-631c-4-143-73-234-217-234-154 0-226 95-247 234h464" id="by"/><path fill="#fc9432" d="M496 282c-21 85-170 43-266 53L422-76 7-1026h216c39-1 60 21 70 46 80 195 164 386 238 586 7 18 10 37 14 56 74-221 164-427 244-642 9-24 36-46 68-46h198" id="bz"/><path fill="#fc9432" d="M254-198c95 60 334 64 323-83-9-119-156-122-253-159C192-490 72-550 72-729c0-214 163-309 387-313 145-3 264 55 338 127-26 36-45 82-77 111-69 21-111-33-176-48-103-23-247 0-238 102 11 114 156 118 251 155 126 49 251 100 251 270C808-59 575 48 294 6 192-9 106-54 42-110c28-39 43-95 83-120 49-31 96 11 129 32" id="bA"/><g id="C"><use transform="matrix(0.008888888888888889,0,0,0.008888888888888889,0,0)" xlink:href="#bx"/><use transform="matrix(0.008888888888888889,0,0,0.008888888888888889,9.27111111111111,0)" xlink:href="#by"/><use transform="matrix(0.008888888888888889,0,0,0.008888888888888889,18.48,0)" xlink:href="#bz"/><use transform="matrix(0.008888888888888889,0,0,0.008888888888888889,27.964444444444446,0)" xlink:href="#bA"/></g><path fill="#f50057" d="M1377-1015c71 172 71 412 0 584C1271-174 1052 0 698 0H146v-1446h552c353 6 574 175 679 431zM698-214c307-9 457-198 457-509s-150-500-457-509H417v1018h281" id="bB"/><path fill="#f50057" d="M377-1009c4 38 6 82 6 121V0H146v-1446c71 6 174-24 211 20 269 320 519 661 779 990-5-42-7-87-7-131v-879h237V0c-64-4-144 10-192-10-14-6-28-19-41-36" id="bC"/><path fill="#f50057" d="M519-204c146 0 246-70 241-211-6-175-195-185-333-232-183-63-339-153-333-400 5-199 120-319 272-380 126-51 311-44 437 5 72 27 133 64 184 112l-66 127c-15 40-64 51-105 25-64-41-136-87-246-85-132 3-224 54-224 182 0 167 202 176 334 227 173 67 333 144 333 381 0 227-120 364-289 433-138 56-353 39-478-16-80-35-154-80-210-138l78-129c23-34 74-43 115-13 73 54 157 112 290 112" id="bD"/><g id="D"><use transform="matrix(0.008888888888888889,0,0,0.008888888888888889,0,0)" xlink:href="#bB"/><use transform="matrix(0.008888888888888889,0,0,0.008888888888888889,13.28888888888889,0)" xlink:href="#bC"/><use transform="matrix(0.008888888888888889,0,0,0.008888888888888889,26.72888888888889,0)" xlink:href="#bD"/></g><path fill="#1071e5" d="M519-204c146 0 246-70 241-211-6-175-195-185-333-232-183-63-339-153-333-400 5-199 120-319 272-380 126-51 311-44 437 5 72 27 133 64 184 112l-66 127c-15 40-64 51-105 25-64-41-136-87-246-85-132 3-224 54-224 182 0 167 202 176 334 227 173 67 333 144 333 381 0 227-120 364-289 433-138 56-353 39-478-16-80-35-154-80-210-138l78-129c23-34 74-43 115-13 73 54 157 112 290 112" id="bE"/><path fill="#1071e5" d="M1366 0h-271v-632H417V0H146v-1446h271v622h678v-622h271V0" id="bF"/><g id="E"><use transform="matrix(0.008888888888888889,0,0,0.008888888888888889,0,0)" xlink:href="#bE"/><use transform="matrix(0.008888888888888889,0,0,0.008888888888888889,9.537777777777778,0)" xlink:href="#bE"/><use transform="matrix(0.008888888888888889,0,0,0.008888888888888889,19.075555555555557,0)" xlink:href="#bF"/></g><path fill="#1071e5" d="M7-1026h196c35-1 64 19 71 46 60 241 137 465 181 722 68-246 151-481 220-724 17-60 103-44 175-46 35-1 61 20 69 46 70 242 148 477 212 725 47-256 125-482 189-723 21-78 165-35 255-46L1250 0h-199c-21 0-37-15-46-44-67-218-136-432-201-652-5-20-10-39-13-58-8 41-17 80-29 119L575-44c-9 29-27 44-54 44H332" id="bG"/><path fill="#1071e5" d="M395-1026V0H148v-1026h247zm-123-457c96 0 160 62 160 158 0 94-65 155-160 155-93 0-156-62-156-155 0-95 61-158 156-158" id="bH"/><path fill="#1071e5" d="M738-75c-64 55-158 90-269 91-176 2-277-109-277-284v-573c-65-4-153 21-153-52v-98l165-27 52-280c10-66 115-35 183-42v323h270v176H439v556c-1 59 32 101 88 102 48 1 68-25 104-34 19 1 25 9 33 22" id="bI"/><path fill="#1071e5" d="M605-850c-102 1-168 52-226 108V0H132v-1486h247v571c76-69 161-129 301-127 234 4 346 154 346 389V0H779v-653c0-121-55-198-174-197" id="bJ"/><g id="F"><use transform="matrix(0.008888888888888889,0,0,0.008888888888888889,0,0)" xlink:href="#bG"/><use transform="matrix(0.008888888888888889,0,0,0.008888888888888889,14.062222222222223,0)" xlink:href="#bH"/><use transform="matrix(0.008888888888888889,0,0,0.008888888888888889,18.880000000000003,0)" xlink:href="#bI"/><use transform="matrix(0.008888888888888889,0,0,0.008888888888888889,25.76,0)" xlink:href="#bJ"/></g><path fill="#1071e5" d="M1165-1446v221H730V0H461v-1225H24v-221h1141" id="bK"/><path fill="#1071e5" d="M991-153C899-47 760 15 568 15 237 15 63-197 63-535c0-237 116-392 287-467 61-27 129-40 206-40 287 0 444 174 444 465 0 54-3 95-57 95H309c4 226 158 349 385 292 52-13 93-39 132-62 32-19 73-16 93 9zM778-631c-4-143-73-234-217-234-154 0-226 95-247 234h464" id="bL"/><path fill="#1071e5" d="M395-1486V0H148v-1486h247" id="bM"/><path fill="#1071e5" d="M635 15C514 15 442-25 379-85v420H132v-1361c64 5 145-11 192 11 33 24 28 86 42 129 78-86 174-159 331-159 277 0 379 232 379 524 0 241-96 412-258 495-54 27-116 41-183 41zm186-536c0-181-37-329-209-329-117 0-175 55-233 124v460c48 60 104 93 198 93 188 0 244-152 244-348" id="bN"/><path fill="#1071e5" d="M361-1005c121-49 297-49 417 0 184 74 298 236 298 490 0 330-178 530-506 530C241 15 61-185 61-515c0-254 115-416 300-490zm-45 492c0 201 65 338 254 338 188 0 251-137 251-338s-63-340-251-340c-189 0-254 139-254 340" id="bO"/><path fill="#1071e5" d="M604-806c-122 5-180 74-225 167V0H132v-1026c83 11 206-35 218 62l15 124c63-106 147-205 295-205 51 0 93 12 126 35l-32 185c-4 23-15 33-40 33-33 0-65-16-110-14" id="bP"/><g id="G"><use transform="matrix(0.008888888888888889,0,0,0.008888888888888889,0,0)" xlink:href="#bK"/><use transform="matrix(0.008888888888888889,0,0,0.008888888888888889,8.764444444444445,0)" xlink:href="#bL"/><use transform="matrix(0.008888888888888889,0,0,0.008888888888888889,18.266666666666666,0)" xlink:href="#bM"/><use transform="matrix(0.008888888888888889,0,0,0.008888888888888889,23.084444444444443,0)" xlink:href="#bL"/><use transform="matrix(0.008888888888888889,0,0,0.008888888888888889,32.586666666666666,0)" xlink:href="#bN"/><use transform="matrix(0.008888888888888889,0,0,0.008888888888888889,42.64,0)" xlink:href="#bO"/><use transform="matrix(0.008888888888888889,0,0,0.008888888888888889,52.74666666666667,0)" xlink:href="#bP"/><use transform="matrix(0.008888888888888889,0,0,0.008888888888888889,60.00888888888889,0)" xlink:href="#bI"/></g><path fill="#1071e5" d="M928-153C839-49 712 15 524 15c-227 0-358-131-424-305-47-123-49-306-4-434 67-190 213-318 465-318 165 0 270 58 357 143-29 37-52 81-86 112-71 26-104-41-170-55-24-5-52-12-86-12-192 5-260 143-260 339 0 194 67 336 254 342 98 3 148-38 200-79 26-20 67-17 87 9" id="bQ"/><path fill="#1071e5" d="M601-1285c-158 0-198 102-186 268h267v176H423V0H176v-840c-61-14-153-3-153-76v-101h153c-17-292 113-454 383-454 47 0 91 6 132 19l-5 124c-1 41-44 43-85 43" id="bR"/><path fill="#1071e5" d="M556-1045c246 0 380 151 380 397V0c-79-6-181 23-196-53l-22-73C630-49 541 18 379 16 194 13 81-77 81-262c0-184 152-247 321-292 78-21 176-31 293-34 10-155-29-262-170-262-104 0-161 40-224 77-47 28-107 5-127-31l-45-79c118-108 260-162 427-162zM317-275c-3 86 56 121 139 121 117 0 179-51 239-111v-173c-122 6-219 17-297 53-49 22-79 51-81 110" id="bS"/><path fill="#1071e5" d="M254-198c95 60 334 64 323-83-9-119-156-122-253-159C192-490 72-550 72-729c0-214 163-309 387-313 145-3 264 55 338 127-26 36-45 82-77 111-69 21-111-33-176-48-103-23-247 0-238 102 11 114 156 118 251 155 126 49 251 100 251 270C808-59 575 48 294 6 192-9 106-54 42-110c28-39 43-95 83-120 49-31 96 11 129 32" id="bT"/><g id="H"><use transform="matrix(0.008888888888888889,0,0,0.008888888888888889,0,0)" xlink:href="#bQ"/><use transform="matrix(0.008888888888888889,0,0,0.008888888888888889,8.48,0)" xlink:href="#bL"/><use transform="matrix(0.008888888888888889,0,0,0.008888888888888889,17.982222222222223,0)" xlink:href="#bP"/><use transform="matrix(0.008888888888888889,0,0,0.008888888888888889,25.244444444444447,0)" xlink:href="#bI"/><use transform="matrix(0.008888888888888889,0,0,0.008888888888888889,32.12444444444445,0)" xlink:href="#bH"/><use transform="matrix(0.008888888888888889,0,0,0.008888888888888889,36.94222222222223,0)" xlink:href="#bR"/><use transform="matrix(0.008888888888888889,0,0,0.008888888888888889,43.17333333333334,0)" xlink:href="#bH"/><use transform="matrix(0.008888888888888889,0,0,0.008888888888888889,47.99111111111112,0)" xlink:href="#bQ"/><use transform="matrix(0.008888888888888889,0,0,0.008888888888888889,56.471111111111114,0)" xlink:href="#bS"/><use transform="matrix(0.008888888888888889,0,0,0.008888888888888889,65.77777777777779,0)" xlink:href="#bI"/><use transform="matrix(0.008888888888888889,0,0,0.008888888888888889,72.65777777777778,0)" xlink:href="#bL"/><use transform="matrix(0.008888888888888889,0,0,0.008888888888888889,82.16,0)" xlink:href="#bT"/></g><path fill="#697986" d="M1480-1018c71 176 71 414 0 590-106 261-323 444-679 444S225-168 120-428c-71-176-71-414 0-590 106-261 324-444 681-444 355 0 573 184 679 444zM801-214c307 0 456-198 456-509s-149-510-456-510c-308 0-459 198-459 510s152 509 459 509" id="bU"/><g id="I"><use transform="matrix(0.008888888888888885,0,0,0.008888888888888885,0,0)" xlink:href="#Y"/><use transform="matrix(0.008888888888888885,0,0,0.008888888888888885,13.439999999999994,0)" xlink:href="#bU"/><use transform="matrix(0.008888888888888885,0,0,0.008888888888888885,27.65333333333332,0)" xlink:href="#aU"/><use transform="matrix(0.008888888888888885,0,0,0.008888888888888885,40.942222222222206,0)" xlink:href="#X"/></g><path fill="#f50057" d="M56-725c5-259 241-361 518-318 104 16 188 63 250 124l-70 109c-15 22-27 35-60 35-81 0-126-60-222-60-69 0-122 24-122 85 0 75 88 87 152 109 156 54 328 97 328 304C830-90 649 16 394 16 236 16 110-38 22-112c35-48 58-109 103-146 116-42 152 74 285 65 73-5 130-23 130-90 0-78-87-92-154-113C219-449 52-505 56-725" id="bV"/><path fill="#f50057" d="M694 0H412L10-1037h258c43-1 77 23 86 54 69 227 146 446 203 684 58-239 142-456 211-684 10-29 42-55 82-54h246" id="bW"/><path fill="#f50057" d="M368-536L34-1037h298c45 0 59 9 76 37l185 307c49-107 112-201 167-302 15-27 31-42 68-42h284L778-550 1126 0H828c-46 1-70-26-86-54L557-372c-6 22-16 42-27 60L378-54c-16 26-40 55-82 54H20" id="bX"/><path fill="#f50057" d="M612-820c-81 1-134 39-182 81V0H120v-1497h310v551c73-60 149-110 278-107 236 5 352 157 352 394V0H750v-659c0-96-44-162-138-161" id="bY"/><g id="J"><use transform="matrix(0.008888888888888889,0,0,0.008888888888888889,0,0)" xlink:href="#bV"/><use transform="matrix(0.008888888888888889,0,0,0.008888888888888889,7.822222222222222,0)" xlink:href="#aj"/><use transform="matrix(0.008888888888888889,0,0,0.008888888888888889,17.493333333333332,0)" xlink:href="#ak"/><use transform="matrix(0.008888888888888889,0,0,0.008888888888888889,24.835555555555555,0)" xlink:href="#bW"/><use transform="matrix(0.008888888888888889,0,0,0.008888888888888889,34.31111111111111,0)" xlink:href="#aj"/><use transform="matrix(0.008888888888888889,0,0,0.008888888888888889,43.98222222222222,0)" xlink:href="#ak"/><use transform="matrix(0.008888888888888889,0,0,0.008888888888888889,50.08,0)" xlink:href="#ac"/><use transform="matrix(0.008888888888888889,0,0,0.008888888888888889,54.275555555555556,0)" xlink:href="#aj"/><use transform="matrix(0.008888888888888889,0,0,0.008888888888888889,63.413333333333334,0)" xlink:href="#bX"/><use transform="matrix(0.008888888888888889,0,0,0.008888888888888889,73.6,0)" xlink:href="#Z"/><use transform="matrix(0.008888888888888889,0,0,0.008888888888888889,83.18222222222222,0)" xlink:href="#af"/><use transform="matrix(0.008888888888888889,0,0,0.008888888888888889,98.4888888888889,0)" xlink:href="#aa"/><use transform="matrix(0.008888888888888889,0,0,0.008888888888888889,108.76444444444445,0)" xlink:href="#al"/><use transform="matrix(0.008888888888888889,0,0,0.008888888888888889,113.83111111111111,0)" xlink:href="#aj"/><use transform="matrix(0.008888888888888889,0,0,0.008888888888888889,123.50222222222222,0)" xlink:href="#ac"/><use transform="matrix(0.008888888888888889,0,0,0.008888888888888889,127.69777777777779,0)" xlink:href="#ai"/><use transform="matrix(0.008888888888888889,0,0,0.008888888888888889,134.8088888888889,0)" xlink:href="#aj"/><use transform="matrix(0.008888888888888889,0,0,0.008888888888888889,144.48000000000002,0)" xlink:href="#al"/><use transform="matrix(0.008888888888888889,0,0,0.008888888888888889,149.54666666666665,0)" xlink:href="#aj"/><use transform="matrix(0.008888888888888889,0,0,0.008888888888888889,159.2177777777778,0)" xlink:href="#aa"/><use transform="matrix(0.008888888888888889,0,0,0.008888888888888889,169.49333333333334,0)" xlink:href="#ae"/><use transform="matrix(0.008888888888888889,0,0,0.008888888888888889,179.80444444444444,0)" xlink:href="#ak"/><use transform="matrix(0.008888888888888889,0,0,0.008888888888888889,187.14666666666668,0)" xlink:href="#ai"/><use transform="matrix(0.008888888888888889,0,0,0.008888888888888889,194.2577777777778,0)" xlink:href="#ac"/><use transform="matrix(0.008888888888888889,0,0,0.008888888888888889,198.45333333333335,0)" xlink:href="#bV"/><use transform="matrix(0.008888888888888889,0,0,0.008888888888888889,206.27555555555554,0)" xlink:href="#bY"/><use transform="matrix(0.008888888888888889,0,0,0.008888888888888889,216.58666666666667,0)" xlink:href="#am"/></g><path fill="#f50057" d="M114-1041c45-269 211-432 516-432 212 0 355 88 422 233 21 45 30 94 30 145 2 183-80 277-216 323 161 56 242 166 242 329 0 307-208 452-512 459-308 7-443-159-522-390 80-24 165-97 266-58 18 7 29 21 38 37 53 91 95 158 214 158 155 0 236-120 200-281-25-110-146-118-296-120v-214c165-2 284-26 284-189 0-138-100-208-232-169-58 17-99 60-118 117-22 66-66 96-152 81" id="bZ"/><g id="K"><use transform="matrix(0.008888888888888889,0,0,0.008888888888888889,0,0)" xlink:href="#an"/><use transform="matrix(0.008888888888888889,0,0,0.008888888888888889,10.311111111111112,0)" xlink:href="#ao"/><use transform="matrix(0.008888888888888889,0,0,0.008888888888888889,20.622222222222224,0)" xlink:href="#ao"/><use transform="matrix(0.008888888888888889,0,0,0.008888888888888889,30.933333333333337,0)" xlink:href="#ac"/><use transform="matrix(0.008888888888888889,0,0,0.008888888888888889,35.128888888888895,0)" xlink:href="#ap"/><use transform="matrix(0.008888888888888889,0,0,0.008888888888888889,45.440000000000005,0)" xlink:href="#aq"/><use transform="matrix(0.008888888888888889,0,0,0.008888888888888889,55.75111111111111,0)" xlink:href="#ac"/><use transform="matrix(0.008888888888888889,0,0,0.008888888888888889,59.94666666666667,0)" xlink:href="#ao"/><use transform="matrix(0.008888888888888889,0,0,0.008888888888888889,70.25777777777779,0)" xlink:href="#ac"/><use transform="matrix(0.008888888888888889,0,0,0.008888888888888889,74.45333333333335,0)" xlink:href="#bZ"/></g><path fill="#fc9432" d="M252-224h280c2-282-4-570 3-848L370-935c-34 38-114 22-140-12l-98-130 454-381h256v1234h240V0H252v-224" id="ca"/><path fill="#fc9432" d="M1079-1060c53 176 54 486 0 662-72 237-212 414-501 414-287 0-427-178-498-414-53-176-53-486 0-662 71-237 210-413 498-413s430 177 501 413zM659-254c162-89 162-477 122-722-22-135-65-248-203-248-137 0-179 115-200 248-38 243-40 632 120 722 52 29 109 29 161 0" id="cb"/><path fill="#fc9432" d="M236 14C129 14 60-51 60-157c0-105 70-171 176-171 105 0 176 66 176 171 0 106-70 171-176 171" id="cc"/><path fill="#fc9432" d="M532-896c89-35 216-36 312-1 162 59 274 190 274 411 0 240-136 387-313 462-125 53-311 53-436 2C185-96 66-254 66-506c0-186 74-313 166-437l328-443c29-40 94-71 166-71h276c-157 187-313 374-470 561zm46 197c-139 0-214 93-214 235 0 148 69 235 218 235 140 0 226-93 226-234 0-150-82-236-230-236" id="cd"/><path fill="#fc9432" d="M1126-566c-12 87 37 230-60 231h-90V0H706v-335H120c-39 1-76-30-82-63L6-551l674-906h296v891h150zm-420 0c3-181-8-372 10-539L331-566h375" id="ce"/><path fill="#fc9432" d="M114-1041c45-269 211-432 516-432 212 0 355 88 422 233 21 45 30 94 30 145 2 183-80 277-216 323 161 56 242 166 242 329 0 307-208 452-512 459-308 7-443-159-522-390 80-24 165-97 266-58 18 7 29 21 38 37 53 91 95 158 214 158 155 0 236-120 200-281-25-110-146-118-296-120v-214c165-2 284-26 284-189 0-138-100-208-232-169-58 17-99 60-118 117-22 66-66 96-152 81" id="cf"/><g id="L"><use transform="matrix(0.008888888888888889,0,0,0.008888888888888889,0,0)" xlink:href="#ca"/><use transform="matrix(0.008888888888888889,0,0,0.008888888888888889,10.311111111111112,0)" xlink:href="#cb"/><use transform="matrix(0.008888888888888889,0,0,0.008888888888888889,20.622222222222224,0)" xlink:href="#cb"/><use transform="matrix(0.008888888888888889,0,0,0.008888888888888889,30.933333333333337,0)" xlink:href="#cc"/><use transform="matrix(0.008888888888888889,0,0,0.008888888888888889,35.128888888888895,0)" xlink:href="#cd"/><use transform="matrix(0.008888888888888889,0,0,0.008888888888888889,45.440000000000005,0)" xlink:href="#ce"/><use transform="matrix(0.008888888888888889,0,0,0.008888888888888889,55.75111111111111,0)" xlink:href="#cc"/><use transform="matrix(0.008888888888888889,0,0,0.008888888888888889,59.94666666666667,0)" xlink:href="#cb"/><use transform="matrix(0.008888888888888889,0,0,0.008888888888888889,70.25777777777779,0)" xlink:href="#cc"/><use transform="matrix(0.008888888888888889,0,0,0.008888888888888889,74.45333333333335,0)" xlink:href="#cf"/></g><path fill="#512fc9" d="M519-204c146 0 246-70 241-211-6-175-195-185-333-232-183-63-339-153-333-400 5-199 120-319 272-380 126-51 311-44 437 5 72 27 133 64 184 112l-66 127c-15 40-64 51-105 25-64-41-136-87-246-85-132 3-224 54-224 182 0 167 202 176 334 227 173 67 333 144 333 381 0 227-120 364-289 433-138 56-353 39-478-16-80-35-154-80-210-138l78-129c23-34 74-43 115-13 73 54 157 112 290 112" id="cg"/><g id="M"><use transform="matrix(0.00837,0,0,0.00837,0,0)" xlink:href="#aY"/><use transform="matrix(0.00837,0,0,0.00837,12.186720000000001,0)" xlink:href="#cg"/><use transform="matrix(0.00837,0,0,0.00837,21.167730000000002,0)" xlink:href="#be"/><use transform="matrix(0.00837,0,0,0.00837,30.751380000000008,0)" xlink:href="#bi"/></g><path fill="#512fc9" d="M1417 0h-208c-47 1-77-28-90-61l-108-295H412L304-61c-11 30-46 61-89 61H6l568-1446h275zM481-546h461c-77-218-163-424-231-651-66 230-154 432-230 651" id="ch"/><g id="N"><use transform="matrix(0.00837,0,0,0.00837,0,0)" xlink:href="#ba"/><use transform="matrix(0.00837,0,0,0.00837,8.654580000000001,0)" xlink:href="#ch"/><use transform="matrix(0.00837,0,0,0.00837,20.539980000000003,0)" xlink:href="#aX"/><use transform="matrix(0.00837,0,0,0.00837,31.00248,0)" xlink:href="#bf"/><use transform="matrix(0.00837,0,0,0.00837,40.30992,0)" xlink:href="#bh"/><use transform="matrix(0.00837,0,0,0.00837,53.69355,0)" xlink:href="#aX"/></g><path fill="#512fc9" d="M4-1446h217c48-1 77 26 90 61 125 326 256 646 373 977 12 34 20 70 29 108 15-77 34-144 57-203l339-882c12-30 45-61 89-61h217L831 0H588" id="ci"/><g id="O"><use transform="matrix(0.00837,0,0,0.00837,0,0)" xlink:href="#aX"/><use transform="matrix(0.00837,0,0,0.00837,10.4625,0)" xlink:href="#bi"/><use transform="matrix(0.00837,0,0,0.00837,21.4272,0)" xlink:href="#bb"/><use transform="matrix(0.00837,0,0,0.00837,26.68356,0)" xlink:href="#ci"/><use transform="matrix(0.00837,0,0,0.00837,37.154430000000005,0)" xlink:href="#ch"/><use transform="matrix(0.00837,0,0,0.00837,47.80944000000001,0)" xlink:href="#bf"/><use transform="matrix(0.00837,0,0,0.00837,57.76974000000001,0)" xlink:href="#be"/></g><g id="P"><use transform="matrix(0.00837,0,0,0.00837,0,0)" xlink:href="#bd"/><use transform="matrix(0.00837,0,0,0.00837,12.65544,0)" xlink:href="#be"/><use transform="matrix(0.00837,0,0,0.00837,22.23909,0)" xlink:href="#bf"/><use transform="matrix(0.00837,0,0,0.00837,32.19939,0)" xlink:href="#bg"/><use transform="matrix(0.00837,0,0,0.00837,49.717800000000004,0)" xlink:href="#bh"/><use transform="matrix(0.00837,0,0,0.00837,63.10143000000001,0)" xlink:href="#bi"/><use transform="matrix(0.00837,0,0,0.00837,74.06613000000002,0)" xlink:href="#bj"/></g><filter id="Q" filterUnits="objectBoundingBox" x="-.08" y="-.02" width="1.16" height="1.06"><feOffset result="offOut" in="SourceAlpha" dy="4"/><feGaussianBlur result="blurOut" in="offOut" stdDeviation="5"/><feColorMatrix result="colorOut" in="blurOut" values="0 0 0 0 0.03114186851211073 0 0 0 0 0.018069973087274125 0 0 0 0 0.07727797001153403 0 0 0 0.09803921568627451 0"/><feBlend in="SourceGraphic" in2="colorOut"/></filter><path fill="#00bfa5" d="M4-1446h217c48-1 77 26 90 61 125 326 256 646 373 977 12 34 20 70 29 108 15-77 34-144 57-203l339-882c12-30 45-61 89-61h217L831 0H588" id="cj"/><path fill="#00bfa5" d="M377-1009c4 38 6 82 6 121V0H146v-1446c71 6 174-24 211 20 269 320 519 661 779 990-5-42-7-87-7-131v-879h237V0c-64-4-144 10-192-10-14-6-28-19-41-36" id="ck"/><path fill="#00bfa5" d="M991-153C899-47 760 15 568 15 237 15 63-197 63-535c0-237 116-392 287-467 61-27 129-40 206-40 287 0 444 174 444 465 0 54-3 95-57 95H309c4 226 158 349 385 292 52-13 93-39 132-62 32-19 73-16 93 9zM778-631c-4-143-73-234-217-234-154 0-226 95-247 234h464" id="cl"/><path fill="#00bfa5" d="M738-75c-64 55-158 90-269 91-176 2-277-109-277-284v-573c-65-4-153 21-153-52v-98l165-27 52-280c10-66 115-35 183-42v323h270v176H439v556c-1 59 32 101 88 102 48 1 68-25 104-34 19 1 25 9 33 22" id="cm"/><g id="R"><use transform="matrix(0.008888888888888885,0,0,0.008888888888888885,0,0)" xlink:href="#cj"/><use transform="matrix(0.008888888888888885,0,0,0.008888888888888885,12.622222222222216,0)" xlink:href="#ck"/><use transform="matrix(0.008888888888888885,0,0,0.008888888888888885,26.06222222222221,0)" xlink:href="#cl"/><use transform="matrix(0.008888888888888885,0,0,0.008888888888888885,35.56444444444443,0)" xlink:href="#cm"/></g></defs></g></svg>