<?xml version="1.0" encoding="UTF-8"?>
<svg width="332px" height="214px" viewBox="0 0 332 214" version="1.1" xmlns="http://www.w3.org/2000/svg" xmlns:xlink="http://www.w3.org/1999/xlink">
    <!-- Generator: Sketch 59 (86127) - https://sketch.com -->
    <title>Node Identity</title>
    <desc>Created with Sketch.</desc>
    <defs>
        <rect id="path-1" x="0" y="0" width="324" height="206" rx="10"></rect>
        <filter x="-2.2%" y="-2.4%" width="104.3%" height="106.8%" filterUnits="objectBoundingBox" id="filter-2">
            <feOffset dx="0" dy="2" in="SourceAlpha" result="shadowOffsetOuter1"></feOffset>
            <feGaussianBlur stdDeviation="2" in="shadowOffsetOuter1" result="shadowBlurOuter1"></feGaussianBlur>
            <feColorMatrix values="0 0 0 0 0   0 0 0 0 0   0 0 0 0 0  0 0 0 0.5 0" type="matrix" in="shadowBlurOuter1"></feColorMatrix>
        </filter>
    </defs>
    <g id="Node-Identity" stroke="none" stroke-width="1" fill="none" fill-rule="evenodd">
        <g id="Shadow-Box" transform="translate(4.000000, 2.000000)">
            <g>
                <use fill="black" fill-opacity="1" filter="url(#filter-2)" xlink:href="#path-1"></use>
                <use fill="#FFFFFF" fill-rule="evenodd" xlink:href="#path-1"></use>
            </g>
        </g>
        <g id="teleport-node" transform="translate(32.000000, 22.000000)">
            <path d="M10,1.5 C5.30557963,1.5 1.5,5.30557963 1.5,10 L1.5,70 C1.5,74.6944204 5.30557963,78.5 10,78.5 L220,78.5 C224.69442,78.5 228.5,74.6944204 228.5,70 L228.5,10 C228.5,5.30557963 224.69442,1.5 220,1.5 L10,1.5 Z" id="Rectangle-17" stroke="#3662A2" stroke-width="3" fill="#FFFFFF"></path>
            <path d="M63,33 L72.2282475,33 L72.2282475,34.6707182 L68.604005,34.6707182 L68.604005,44.0453039 L66.6082767,44.0453039 L66.6082767,34.6707182 L63,34.6707182 L63,33 Z M77.1936194,39.3425414 C77.1723315,39.064087 77.1111298,38.7959497 77.0100124,38.5381215 C76.908895,38.2802934 76.7705259,38.0559862 76.5949009,37.8651934 C76.4192759,37.6744005 76.2064004,37.5197059 75.9562679,37.401105 C75.7061353,37.282504 75.4267362,37.2232044 75.118062,37.2232044 C74.7987439,37.2232044 74.5087009,37.2773475 74.2479245,37.3856354 C73.987148,37.4939232 73.7636287,37.6434613 73.5773598,37.8342541 C73.3910909,38.025047 73.242078,38.2493541 73.1303167,38.5071823 C73.0185553,38.7650105 72.9573536,39.0434608 72.9467097,39.3425414 L77.1936194,39.3425414 Z M72.9467097,40.5027624 C72.9467097,40.8121562 72.9919457,41.1112324 73.0824192,41.4 C73.1728926,41.6887676 73.3086008,41.9414354 73.4895477,42.158011 C73.6704947,42.3745867 73.8993359,42.547329 74.1760783,42.6762431 C74.4528206,42.8051572 74.7827777,42.8696133 75.1659595,42.8696133 C75.6981563,42.8696133 76.1265684,42.7587488 76.4512085,42.5370166 C76.7758486,42.3152843 77.0179945,41.982691 77.1776536,41.5392265 L78.9019628,41.5392265 C78.8061673,41.9723779 78.6411888,42.3591143 78.4070222,42.6994475 C78.1728556,43.0397807 77.8907954,43.3259657 77.5608334,43.558011 C77.2308713,43.7900564 76.8610001,43.9653769 76.4512085,44.0839779 C76.0414169,44.2025789 75.6130048,44.2618785 75.1659595,44.2618785 C74.5166793,44.2618785 73.9419153,44.1587487 73.4416503,43.9524862 C72.9413852,43.7462236 72.518295,43.4574604 72.1723671,43.0861878 C71.8264391,42.7149153 71.5656666,42.2714575 71.3900416,41.7558011 C71.2144166,41.2401448 71.1266055,40.6729313 71.1266055,40.0541436 C71.1266055,39.4869217 71.2197385,38.9480689 71.4060074,38.4375691 C71.5922763,37.9270693 71.8583708,37.478455 72.2042987,37.0917127 C72.5502267,36.7049704 72.967995,36.3981595 73.4576161,36.1712707 C73.9472372,35.9443819 74.5007136,35.8309392 75.118062,35.8309392 C75.7673422,35.8309392 76.350089,35.9624296 76.86632,36.2254144 C77.3825509,36.4883991 77.810963,36.8364619 78.151569,37.2696133 C78.4921749,37.7027646 78.7396428,38.2003655 78.8939799,38.7624309 C79.048317,39.3244964 79.0882311,39.9046011 79.0137236,40.5027624 L72.9467097,40.5027624 Z M80.4506479,33 L82.2707521,33 L82.2707521,44.0453039 L80.4506479,44.0453039 L80.4506479,33 Z M89.9183828,39.3425414 C89.8970949,39.064087 89.8358932,38.7959497 89.7347758,38.5381215 C89.6336584,38.2802934 89.4952893,38.0559862 89.3196643,37.8651934 C89.1440393,37.6744005 88.9311638,37.5197059 88.6810313,37.401105 C88.4308987,37.282504 88.1514996,37.2232044 87.8428254,37.2232044 C87.5235073,37.2232044 87.2334643,37.2773475 86.9726879,37.3856354 C86.7119114,37.4939232 86.4883921,37.6434613 86.3021232,37.8342541 C86.1158543,38.025047 85.9668414,38.2493541 85.85508,38.5071823 C85.7433187,38.7650105 85.682117,39.0434608 85.671473,39.3425414 L89.9183828,39.3425414 Z M85.671473,40.5027624 C85.671473,40.8121562 85.7167091,41.1112324 85.8071826,41.4 C85.897656,41.6887676 86.0333642,41.9414354 86.2143111,42.158011 C86.3952581,42.3745867 86.6240993,42.547329 86.9008417,42.6762431 C87.177584,42.8051572 87.5075411,42.8696133 87.8907229,42.8696133 C88.4229197,42.8696133 88.8513318,42.7587488 89.1759719,42.5370166 C89.500612,42.3152843 89.7427579,41.982691 89.902417,41.5392265 L91.6267262,41.5392265 C91.5309307,41.9723779 91.3659522,42.3591143 91.1317856,42.6994475 C90.8976189,43.0397807 90.6155588,43.3259657 90.2855968,43.558011 C89.9556347,43.7900564 89.5857635,43.9653769 89.1759719,44.0839779 C88.7661803,44.2025789 88.3377682,44.2618785 87.8907229,44.2618785 C87.2414427,44.2618785 86.6666787,44.1587487 86.1664137,43.9524862 C85.6661486,43.7462236 85.2430584,43.4574604 84.8971305,43.0861878 C84.5512025,42.7149153 84.29043,42.2714575 84.114805,41.7558011 C83.93918,41.2401448 83.8513689,40.6729313 83.8513689,40.0541436 C83.8513689,39.4869217 83.9445019,38.9480689 84.1307708,38.4375691 C84.3170397,37.9270693 84.5831342,37.478455 84.9290621,37.0917127 C85.2749901,36.7049704 85.6927584,36.3981595 86.1823795,36.1712707 C86.6720006,35.9443819 87.225477,35.8309392 87.8428254,35.8309392 C88.4921056,35.8309392 89.0748524,35.9624296 89.5910833,36.2254144 C90.1073143,36.4883991 90.5357264,36.8364619 90.8763323,37.2696133 C91.2169383,37.7027646 91.4644062,38.2003655 91.6187433,38.7624309 C91.7730804,39.3244964 91.8129945,39.9046011 91.738487,40.5027624 L85.671473,40.5027624 Z M93.1754113,36.0475138 L94.8997205,36.0475138 L94.8997205,37.1303867 L94.9316522,37.1303867 C95.1871067,36.666296 95.5436732,36.3337027 96.0013625,36.1325967 C96.4590518,35.9314907 96.9539875,35.8309392 97.4861843,35.8309392 C98.1354645,35.8309392 98.7022457,35.9418037 99.1865448,36.1635359 C99.670844,36.3852681 100.072647,36.6895008 100.391965,37.0762431 C100.711283,37.4629854 100.950768,37.9141779 101.110427,38.4298343 C101.270086,38.9454906 101.349914,39.4972346 101.349914,40.0850829 C101.349914,40.6213655 101.278069,41.1421706 101.134376,41.6475138 C100.990682,42.152857 100.772485,42.5988931 100.479777,42.9856354 C100.187068,43.3723776 99.8171972,43.6817668 99.3701518,43.9138122 C98.9231065,44.1458575 98.3962395,44.2618785 97.789535,44.2618785 C97.5234366,44.2618785 97.2573422,44.2386743 96.9912437,44.1922652 C96.7251453,44.1458561 96.4696946,44.0710871 96.2248841,43.9679558 C95.9800735,43.8648245 95.7538933,43.7333341 95.5463365,43.5734807 C95.3387797,43.4136272 95.1658183,43.2254154 95.0274471,43.0088398 L94.9955155,43.0088398 L94.9955155,47 L93.1754113,47 L93.1754113,36.0475138 Z M99.5298101,40.0541436 C99.5298101,39.6931842 99.4819131,39.3425431 99.3861177,39.0022099 C99.2903222,38.6618768 99.1466312,38.3602223 98.9550403,38.0972376 C98.7634495,37.8342528 98.5239645,37.6228369 98.2365782,37.4629834 C97.9491919,37.30313 97.6192348,37.2232044 97.246697,37.2232044 C96.4803335,37.2232044 95.9029085,37.4810287 95.5144048,37.9966851 C95.1259011,38.5123414 94.9316522,39.1981541 94.9316522,40.0541436 C94.9316522,40.4563556 94.9822101,40.8302009 95.0833275,41.1756906 C95.1844449,41.5211804 95.3361188,41.8176783 95.5383536,42.0651934 C95.7405884,42.3127084 95.9827343,42.5086549 96.2647987,42.6530387 C96.546863,42.7974225 96.8741592,42.8696133 97.246697,42.8696133 C97.6618105,42.8696133 98.0130552,42.7871095 98.3004415,42.6220994 C98.5878278,42.4570894 98.8246518,42.2430952 99.0109207,41.9801105 C99.1971896,41.7171258 99.3302369,41.4180496 99.4100664,41.0828729 C99.4898959,40.7476963 99.5298101,40.40479 99.5298101,40.0541436 Z M106.666534,44.2618785 C106.00661,44.2618785 105.418542,44.1561705 104.902311,43.9447514 C104.38608,43.7333323 103.949685,43.4419908 103.593113,43.0707182 C103.236541,42.6994457 102.965125,42.2559878 102.778856,41.7403315 C102.592587,41.2246751 102.499454,40.6574617 102.499454,40.038674 C102.499454,39.4301995 102.592587,38.8681425 102.778856,38.3524862 C102.965125,37.8368298 103.236541,37.393372 103.593113,37.0220994 C103.949685,36.6508269 104.38608,36.3594854 104.902311,36.1480663 C105.418542,35.9366472 106.00661,35.8309392 106.666534,35.8309392 C107.326458,35.8309392 107.914527,35.9366472 108.430758,36.1480663 C108.946989,36.3594854 109.383384,36.6508269 109.739956,37.0220994 C110.096528,37.393372 110.367944,37.8368298 110.554213,38.3524862 C110.740482,38.8681425 110.833615,39.4301995 110.833615,40.038674 C110.833615,40.6574617 110.740482,41.2246751 110.554213,41.7403315 C110.367944,42.2559878 110.096528,42.6994457 109.739956,43.0707182 C109.383384,43.4419908 108.946989,43.7333323 108.430758,43.9447514 C107.914527,44.1561705 107.326458,44.2618785 106.666534,44.2618785 Z M106.666534,42.8696133 C107.071004,42.8696133 107.422249,42.7871095 107.720279,42.6220994 C108.018309,42.4570894 108.263116,42.240517 108.454707,41.9723757 C108.646298,41.7042344 108.787328,41.4025799 108.877801,41.0674033 C108.968275,40.7322267 109.013511,40.3893204 109.013511,40.038674 C109.013511,39.6983408 108.968275,39.3580128 108.877801,39.0176796 C108.787328,38.6773464 108.646298,38.3756919 108.454707,38.1127072 C108.263116,37.8497224 108.018309,37.6357283 107.720279,37.4707182 C107.422249,37.3057082 107.071004,37.2232044 106.666534,37.2232044 C106.262065,37.2232044 105.91082,37.3057082 105.61279,37.4707182 C105.31476,37.6357283 105.069953,37.8497224 104.878362,38.1127072 C104.686771,38.3756919 104.545741,38.6773464 104.455267,39.0176796 C104.364794,39.3580128 104.319558,39.6983408 104.319558,40.038674 C104.319558,40.3893204 104.364794,40.7322267 104.455267,41.0674033 C104.545741,41.4025799 104.686771,41.7042344 104.878362,41.9723757 C105.069953,42.240517 105.31476,42.4570894 105.61279,42.6220994 C105.91082,42.7871095 106.262065,42.8696133 106.666534,42.8696133 Z M112.350368,36.0475138 L114.058712,36.0475138 L114.058712,37.5944751 L114.090643,37.5944751 C114.143863,37.3778995 114.24764,37.1664835 114.401977,36.960221 C114.556314,36.7539585 114.74258,36.5657467 114.960781,36.3955801 C115.178982,36.2254135 115.421128,36.0887666 115.687226,35.9856354 C115.953325,35.8825041 116.224741,35.8309392 116.501483,35.8309392 C116.714362,35.8309392 116.860714,35.8360957 116.940543,35.8464088 C117.020373,35.856722 117.102862,35.8670349 117.188014,35.8773481 L117.188014,37.5790055 C117.060286,37.5583793 116.9299,37.5403316 116.796851,37.5248619 C116.663802,37.5093922 116.533416,37.5016575 116.405688,37.5016575 C116.097014,37.5016575 115.806971,37.560957 115.535551,37.679558 C115.26413,37.798159 115.027306,37.9734795 114.825071,38.2055249 C114.622837,38.4375702 114.46318,38.7237552 114.346097,39.0640884 C114.229013,39.4044216 114.170473,39.7963145 114.170473,40.239779 L114.170473,44.0453039 L112.350368,44.0453039 L112.350368,36.0475138 Z M117.140116,36.0475138 L118.513177,36.0475138 L118.513177,33.6497238 L120.333281,33.6497238 L120.333281,36.0475138 L121.977762,36.0475138 L121.977762,37.3624309 L120.333281,37.3624309 L120.333281,41.6320442 C120.333281,41.8176805 120.341264,41.9775316 120.35723,42.1116022 C120.373196,42.2456729 120.410449,42.3591156 120.468991,42.4519337 C120.527533,42.5447518 120.615344,42.6143644 120.732427,42.6607735 C120.84951,42.7071826 121.009167,42.7303867 121.211402,42.7303867 C121.339129,42.7303867 121.466854,42.7278085 121.594582,42.7226519 C121.722309,42.7174954 121.850034,42.6994477 121.977762,42.6685083 L121.977762,44.0298343 C121.775527,44.0504605 121.578617,44.0710865 121.387026,44.0917127 C121.195435,44.112339 120.998525,44.1226519 120.79629,44.1226519 C120.317313,44.1226519 119.931476,44.0788218 119.638768,43.9911602 C119.34606,43.9034986 119.117219,43.7745865 118.952238,43.6044199 C118.787256,43.4342533 118.675497,43.2202591 118.616955,42.9624309 C118.558414,42.7046028 118.523821,42.410683 118.513177,42.080663 L118.513177,37.3624309 L117.140116,37.3624309 L117.140116,36.0475138 Z M127.901083,33 L130.008572,33 L135.213431,41.1370166 L135.245363,41.1370166 L135.245363,33 L137.145296,33 L137.145296,44.0453039 L135.037807,44.0453039 L129.848914,35.9237569 L129.801016,35.9237569 L129.801016,44.0453039 L127.901083,44.0453039 L127.901083,33 Z M143.036686,44.2618785 C142.376762,44.2618785 141.788693,44.1561705 141.272462,43.9447514 C140.756231,43.7333323 140.319837,43.4419908 139.963265,43.0707182 C139.606693,42.6994457 139.335276,42.2559878 139.149008,41.7403315 C138.962739,41.2246751 138.869606,40.6574617 138.869606,40.038674 C138.869606,39.4301995 138.962739,38.8681425 139.149008,38.3524862 C139.335276,37.8368298 139.606693,37.393372 139.963265,37.0220994 C140.319837,36.6508269 140.756231,36.3594854 141.272462,36.1480663 C141.788693,35.9366472 142.376762,35.8309392 143.036686,35.8309392 C143.69661,35.8309392 144.284679,35.9366472 144.80091,36.1480663 C145.317141,36.3594854 145.753536,36.6508269 146.110108,37.0220994 C146.46668,37.393372 146.738096,37.8368298 146.924365,38.3524862 C147.110634,38.8681425 147.203767,39.4301995 147.203767,40.038674 C147.203767,40.6574617 147.110634,41.2246751 146.924365,41.7403315 C146.738096,42.2559878 146.46668,42.6994457 146.110108,43.0707182 C145.753536,43.4419908 145.317141,43.7333323 144.80091,43.9447514 C144.284679,44.1561705 143.69661,44.2618785 143.036686,44.2618785 Z M143.036686,42.8696133 C143.441156,42.8696133 143.7924,42.7871095 144.090431,42.6220994 C144.388461,42.4570894 144.633268,42.240517 144.824859,41.9723757 C145.01645,41.7042344 145.15748,41.4025799 145.247953,41.0674033 C145.338427,40.7322267 145.383663,40.3893204 145.383663,40.038674 C145.383663,39.6983408 145.338427,39.3580128 145.247953,39.0176796 C145.15748,38.6773464 145.01645,38.3756919 144.824859,38.1127072 C144.633268,37.8497224 144.388461,37.6357283 144.090431,37.4707182 C143.7924,37.3057082 143.441156,37.2232044 143.036686,37.2232044 C142.632217,37.2232044 142.280972,37.3057082 141.982942,37.4707182 C141.684911,37.6357283 141.440105,37.8497224 141.248514,38.1127072 C141.056923,38.3756919 140.915893,38.6773464 140.825419,39.0176796 C140.734946,39.3580128 140.68971,39.6983408 140.68971,40.038674 C140.68971,40.3893204 140.734946,40.7322267 140.825419,41.0674033 C140.915893,41.4025799 141.056923,41.7042344 141.248514,41.9723757 C141.440105,42.240517 141.684911,42.4570894 141.982942,42.6220994 C142.280972,42.7871095 142.632217,42.8696133 143.036686,42.8696133 Z M156.495878,44.0453039 L154.771568,44.0453039 L154.771568,42.9624309 L154.739637,42.9624309 C154.494826,43.4265217 154.13826,43.759115 153.669926,43.960221 C153.201593,44.161327 152.706657,44.2618785 152.185105,44.2618785 C151.535824,44.2618785 150.969043,44.151014 150.484744,43.9292818 C150.000445,43.7075495 149.598642,43.4058951 149.279324,43.0243094 C148.960006,42.6427237 148.720521,42.1915311 148.560862,41.6707182 C148.401203,41.1499053 148.321375,40.5904266 148.321375,39.9922652 C148.321375,39.2703463 148.42249,38.6464115 148.624725,38.120442 C148.82696,37.5944725 149.095715,37.1613277 149.431,36.8209945 C149.766284,36.4806613 150.14946,36.2305717 150.580539,36.0707182 C151.011618,35.9108648 151.450674,35.8309392 151.89772,35.8309392 C152.153174,35.8309392 152.413947,35.8541434 152.680045,35.9005525 C152.946144,35.9469616 153.201594,36.0217306 153.446405,36.1248619 C153.691215,36.2279931 153.917396,36.3594835 154.124952,36.519337 C154.332509,36.6791905 154.505471,36.8674022 154.643842,37.0839779 L154.675773,37.0839779 L154.675773,33 L156.495878,33 L156.495878,44.0453039 Z M150.141479,40.1314917 C150.141479,40.4718249 150.186715,40.8069965 150.277188,41.1370166 C150.367662,41.4670366 150.506031,41.7609564 150.6923,42.0187845 C150.878569,42.2766127 151.115393,42.4828722 151.402779,42.6375691 C151.690165,42.792266 152.030766,42.8696133 152.424592,42.8696133 C152.829062,42.8696133 153.177645,42.7871095 153.470354,42.6220994 C153.763062,42.4570894 154.002547,42.240517 154.188816,41.9723757 C154.375085,41.7042344 154.513454,41.4025799 154.603927,41.0674033 C154.694401,40.7322267 154.739637,40.3893204 154.739637,40.038674 C154.739637,39.1517451 154.534744,38.460776 154.124952,37.9657459 C153.715161,37.4707158 153.159023,37.2232044 152.456524,37.2232044 C152.030766,37.2232044 151.671539,37.3082864 151.37883,37.478453 C151.086122,37.6486196 150.846637,37.8703485 150.660368,38.1436464 C150.474099,38.4169443 150.341052,38.7263334 150.261222,39.0718232 C150.181393,39.417313 150.141479,39.7705323 150.141479,40.1314917 Z M164.143508,39.3425414 C164.12222,39.064087 164.061019,38.7959497 163.959901,38.5381215 C163.858784,38.2802934 163.720415,38.0559862 163.54479,37.8651934 C163.369165,37.6744005 163.156289,37.5197059 162.906157,37.401105 C162.656024,37.282504 162.376625,37.2232044 162.067951,37.2232044 C161.748633,37.2232044 161.45859,37.2773475 161.197813,37.3856354 C160.937037,37.4939232 160.713518,37.6434613 160.527249,37.8342541 C160.34098,38.025047 160.191967,38.2493541 160.080206,38.5071823 C159.968444,38.7650105 159.907242,39.0434608 159.896599,39.3425414 L164.143508,39.3425414 Z M159.896599,40.5027624 C159.896599,40.8121562 159.941835,41.1112324 160.032308,41.4 C160.122782,41.6887676 160.25849,41.9414354 160.439437,42.158011 C160.620384,42.3745867 160.849225,42.547329 161.125967,42.6762431 C161.40271,42.8051572 161.732667,42.8696133 162.115848,42.8696133 C162.648045,42.8696133 163.076457,42.7587488 163.401097,42.5370166 C163.725737,42.3152843 163.967883,41.982691 164.127542,41.5392265 L165.851852,41.5392265 C165.756056,41.9723779 165.591078,42.3591143 165.356911,42.6994475 C165.122744,43.0397807 164.840684,43.3259657 164.510722,43.558011 C164.18076,43.7900564 163.810889,43.9653769 163.401097,44.0839779 C162.991306,44.2025789 162.562894,44.2618785 162.115848,44.2618785 C161.466568,44.2618785 160.891804,44.1587487 160.391539,43.9524862 C159.891274,43.7462236 159.468184,43.4574604 159.122256,43.0861878 C158.776328,42.7149153 158.515555,42.2714575 158.33993,41.7558011 C158.164306,41.2401448 158.076494,40.6729313 158.076494,40.0541436 C158.076494,39.4869217 158.169627,38.9480689 158.355896,38.4375691 C158.542165,37.9270693 158.80826,37.478455 159.154188,37.0917127 C159.500116,36.7049704 159.917884,36.3981595 160.407505,36.1712707 C160.897126,35.9443819 161.450603,35.8309392 162.067951,35.8309392 C162.717231,35.8309392 163.299978,35.9624296 163.816209,36.2254144 C164.33244,36.4883991 164.760852,36.8364619 165.101458,37.2696133 C165.442064,37.7027646 165.689532,38.2003655 165.843869,38.7624309 C165.998206,39.3244964 166.03812,39.9046011 165.963612,40.5027624 L159.896599,40.5027624 Z" id="Teleport-Node" fill="#4A4A4A"></path>
        </g>
        <g id="certificate" transform="translate(32.000000, 115.000000)">
            <g>
                <path d="M6.63,69.156 C6.56599968,68.9079988 6.47800056,68.680001 6.366,68.472 C6.25399944,68.263999 6.11000088,68.0840008 5.934,67.932 C5.75799912,67.7799992 5.55200118,67.6620004 5.316,67.578 C5.07999882,67.4939996 4.80600156,67.452 4.494,67.452 C4.03799772,67.452 3.64400166,67.5439991 3.312,67.728 C2.97999834,67.9120009 2.71000104,68.1579985 2.502,68.466 C2.29399896,68.7740015 2.1400005,69.123998 2.04,69.516 C1.9399995,69.908002 1.89,70.307998 1.89,70.716 C1.89,71.124002 1.9399995,71.523998 2.04,71.916 C2.1400005,72.308002 2.29399896,72.6579985 2.502,72.966 C2.71000104,73.2740015 2.97999834,73.5199991 3.312,73.704 C3.64400166,73.8880009 4.03799772,73.98 4.494,73.98 C4.83000168,73.98 5.12599872,73.9220006 5.382,73.806 C5.63800128,73.6899994 5.85799908,73.530001 6.042,73.326 C6.22600092,73.121999 6.36999948,72.8840014 6.474,72.612 C6.57800052,72.3399986 6.64599984,72.0480016 6.678,71.736 L8.142,71.736 C8.10999984,72.2480026 8.00000094,72.7159979 7.812,73.14 C7.62399906,73.5640021 7.3700016,73.9299985 7.05,74.238 C6.7299984,74.5460015 6.35400216,74.7839992 5.922,74.952 C5.48999784,75.1200008 5.0140026,75.204 4.494,75.204 C3.8539968,75.204 3.28000254,75.0860012 2.772,74.85 C2.26399746,74.6139988 1.83400176,74.292002 1.482,73.884 C1.12999824,73.475998 0.86000094,73.0000027 0.672,72.456 C0.48399906,71.9119973 0.39,71.3320031 0.39,70.716 C0.39,70.107997 0.48399906,69.5320027 0.672,68.988 C0.86000094,68.4439973 1.12999824,67.968002 1.482,67.56 C1.83400176,67.151998 2.26399746,66.8280012 2.772,66.588 C3.28000254,66.3479988 3.8539968,66.228 4.494,66.228 C4.9740024,66.228 5.42599788,66.2939993 5.85,66.426 C6.27400212,66.5580007 6.64799838,66.7499987 6.972,67.002 C7.29600162,67.2540013 7.557999,67.5599982 7.758,67.92 C7.958001,68.2800018 8.08199976,68.6919977 8.13,69.156 L6.63,69.156 Z M13.578,71.352 C13.5619999,71.1359989 13.5160004,70.928001 13.44,70.728 C13.3639996,70.527999 13.2600007,70.3540007 13.128,70.206 C12.9959993,70.0579993 12.8360009,69.9380005 12.648,69.846 C12.4599991,69.7539995 12.2500012,69.708 12.018,69.708 C11.7779988,69.708 11.560001,69.7499996 11.364,69.834 C11.167999,69.9180004 11.0000007,70.0339993 10.86,70.182 C10.7199993,70.3300007 10.6080004,70.503999 10.524,70.704 C10.4399996,70.904001 10.394,71.1199988 10.386,71.352 L13.578,71.352 Z M10.386,72.252 C10.386,72.4920012 10.4199997,72.7239989 10.488,72.948 C10.5560003,73.1720011 10.6579993,73.3679992 10.794,73.536 C10.9300007,73.7040008 11.101999,73.8379995 11.31,73.938 C11.518,74.0380005 11.7659986,74.088 12.054,74.088 C12.454002,74.088 12.7759988,74.0020009 13.02,73.83 C13.2640012,73.6579991 13.4459994,73.4000017 13.566,73.056 L14.862,73.056 C14.7899996,73.3920017 14.6660009,73.6919987 14.49,73.956 C14.3139991,74.2200013 14.1020012,74.4419991 13.854,74.622 C13.6059988,74.8020009 13.3280015,74.9379995 13.02,75.03 C12.7119985,75.1220005 12.3900017,75.168 12.054,75.168 C11.5659976,75.168 11.1340019,75.0880008 10.758,74.928 C10.3819981,74.7679992 10.0640013,74.5440014 9.804,74.256 C9.5439987,73.9679986 9.34800066,73.624002 9.216,73.224 C9.08399934,72.823998 9.018,72.3840024 9.018,71.904 C9.018,71.4639978 9.0879993,71.046002 9.228,70.65 C9.3680007,70.253998 9.5679987,69.9060015 9.828,69.606 C10.0880013,69.3059985 10.4019982,69.0680009 10.77,68.892 C11.1380018,68.7159991 11.5539977,68.628 12.018,68.628 C12.5060024,68.628 12.9439981,68.729999 13.332,68.934 C13.7200019,69.138001 14.0419987,69.4079983 14.298,69.744 C14.5540013,70.0800017 14.7399994,70.4659978 14.856,70.902 C14.9720006,71.3380022 15.0020003,71.7879977 14.946,72.252 L10.386,72.252 Z M15.99,68.796 L17.274,68.796 L17.274,69.996 L17.298,69.996 C17.3380002,69.8279992 17.4159994,69.6640008 17.532,69.504 C17.6480006,69.3439992 17.7879992,69.1980007 17.952,69.066 C18.1160008,68.9339993 18.297999,68.8280004 18.498,68.748 C18.698001,68.6679996 18.901999,68.628 19.11,68.628 C19.2700008,68.628 19.3799997,68.632 19.44,68.64 C19.5000003,68.648 19.5619997,68.656 19.626,68.664 L19.626,69.984 C19.5299995,69.9679999 19.4320005,69.9540001 19.332,69.942 C19.2319995,69.9299999 19.1340005,69.924 19.038,69.924 C18.8059988,69.924 18.588001,69.9699995 18.384,70.062 C18.179999,70.1540005 18.0020008,70.2899991 17.85,70.47 C17.6979992,70.6500009 17.5780004,70.8719987 17.49,71.136 C17.4019996,71.4000013 17.358,71.7039983 17.358,72.048 L17.358,75 L15.99,75 L15.99,68.796 Z M19.59,68.796 L20.622,68.796 L20.622,66.936 L21.99,66.936 L21.99,68.796 L23.226,68.796 L23.226,69.816 L21.99,69.816 L21.99,73.128 C21.99,73.2720007 21.9959999,73.3959995 22.008,73.5 C22.0200001,73.6040005 22.0479998,73.6919996 22.092,73.764 C22.1360002,73.8360004 22.2019996,73.8899998 22.29,73.926 C22.3780004,73.9620002 22.4979992,73.98 22.65,73.98 C22.7460005,73.98 22.8419995,73.978 22.938,73.974 C23.0340005,73.97 23.1299995,73.9560001 23.226,73.932 L23.226,74.988 C23.0739992,75.0040001 22.9260007,75.0199999 22.782,75.036 C22.6379993,75.0520001 22.4900008,75.06 22.338,75.06 C21.9779982,75.06 21.6880011,75.0260003 21.468,74.958 C21.2479989,74.8899997 21.0760006,74.7900007 20.952,74.658 C20.8279994,74.5259993 20.7440002,74.360001 20.7,74.16 C20.6559998,73.959999 20.63,73.7320013 20.622,73.476 L20.622,69.816 L19.59,69.816 L19.59,68.796 Z M24.246,66.432 L25.614,66.432 L25.614,67.728 L24.246,67.728 L24.246,66.432 Z M24.246,68.796 L25.614,68.796 L25.614,75 L24.246,75 L24.246,68.796 Z M30.918,66.432 L32.286,66.432 L32.286,67.728 L30.918,67.728 L30.918,66.432 Z M26.49,68.796 L27.51,68.796 L27.51,68.28 C27.51,67.887998 27.5579995,67.5700012 27.654,67.326 C27.7500005,67.0819988 27.8779992,66.8940007 28.038,66.762 C28.1980008,66.6299993 28.379999,66.5420002 28.584,66.498 C28.788001,66.4539998 29.0019989,66.432 29.226,66.432 C29.6660022,66.432 29.985999,66.4599997 30.186,66.516 L30.186,67.584 C30.0979996,67.5599999 30.0040005,67.5420001 29.904,67.53 C29.8039995,67.5179999 29.6860007,67.512 29.55,67.512 C29.3659991,67.512 29.2080007,67.5559996 29.076,67.644 C28.9439993,67.7320004 28.878,67.9039987 28.878,68.16 L28.878,68.796 L30.042,68.796 L30.042,69.816 L28.878,69.816 L28.878,75 L27.51,75 L27.51,69.816 L26.49,69.816 L26.49,68.796 Z M30.918,68.796 L32.286,68.796 L32.286,75 L30.918,75 L30.918,68.796 Z M37.962,70.872 C37.9059997,70.4879981 37.7520013,70.198001 37.5,70.002 C37.2479987,69.805999 36.9300019,69.708 36.546,69.708 C36.3699991,69.708 36.182001,69.7379997 35.982,69.798 C35.781999,69.8580003 35.5980008,69.9699992 35.43,70.134 C35.2619992,70.2980008 35.1220006,70.5259985 35.01,70.818 C34.8979994,71.1100015 34.842,71.4919976 34.842,71.964 C34.842,72.2200013 34.8719997,72.4759987 34.932,72.732 C34.9920003,72.9880013 35.0879993,73.215999 35.22,73.416 C35.3520007,73.616001 35.521999,73.7779994 35.73,73.902 C35.938001,74.0260006 36.1899985,74.088 36.486,74.088 C36.886002,74.088 37.2159987,73.9640012 37.476,73.716 C37.7360013,73.4679988 37.8979997,73.1200022 37.962,72.672 L39.33,72.672 C39.2019994,73.480004 38.8960024,74.0979979 38.412,74.526 C37.9279976,74.9540021 37.286004,75.168 36.486,75.168 C35.9979976,75.168 35.5680019,75.0860008 35.196,74.922 C34.8239981,74.7579992 34.5100013,74.5340014 34.254,74.25 C33.9979987,73.9659986 33.8040007,73.628 33.672,73.236 C33.5399993,72.843998 33.474,72.4200023 33.474,71.964 C33.474,71.4999977 33.5379994,71.064002 33.666,70.656 C33.7940006,70.247998 33.9859987,69.8940015 34.242,69.594 C34.4980013,69.2939985 34.8159981,69.0580009 35.196,68.886 C35.5760019,68.7139991 36.0219974,68.628 36.534,68.628 C36.8940018,68.628 37.2359984,68.6739995 37.56,68.766 C37.8840016,68.8580005 38.1719987,68.9959991 38.424,69.18 C38.6760013,69.3640009 38.8819992,69.5959986 39.042,69.876 C39.2020008,70.1560014 39.2979998,70.4879981 39.33,70.872 L37.962,70.872 Z M45.642,73.62 C45.642,73.7880008 45.6639998,73.9079996 45.708,73.98 C45.7520002,74.0520004 45.8379994,74.088 45.966,74.088 L46.11,74.088 C46.1660003,74.088 46.2299996,74.0800001 46.302,74.064 L46.302,75.012 C46.2539998,75.0280001 46.1920004,75.0459999 46.116,75.066 C46.0399996,75.0860001 45.9620004,75.1039999 45.882,75.12 C45.8019996,75.1360001 45.7220004,75.148 45.642,75.156 C45.5619996,75.164 45.4940003,75.168 45.438,75.168 C45.1579986,75.168 44.9260009,75.1120006 44.742,75 C44.5579991,74.8879994 44.4380003,74.6920014 44.382,74.412 C44.11,74.6760013 43.776002,74.8679994 43.38,74.988 C42.983998,75.1080006 42.6020018,75.168 42.234,75.168 C41.9539986,75.168 41.6860013,75.1300004 41.43,75.054 C41.1739987,74.9779996 40.948001,74.8660007 40.752,74.718 C40.555999,74.5699993 40.4000006,74.3820011 40.284,74.154 C40.1679994,73.9259989 40.11,73.6600015 40.11,73.356 C40.11,72.9719981 40.1799993,72.6600012 40.32,72.42 C40.4600007,72.1799988 40.6439989,71.9920007 40.872,71.856 C41.1000011,71.7199993 41.3559986,71.6220003 41.64,71.562 C41.9240014,71.5019997 42.2099986,71.4560002 42.498,71.424 C42.7460012,71.3759998 42.9819989,71.3420001 43.206,71.322 C43.4300011,71.3019999 43.6279991,71.2680002 43.8,71.22 C43.9720009,71.1719998 44.1079995,71.0980005 44.208,70.998 C44.3080005,70.8979995 44.358,70.748001 44.358,70.548 C44.358,70.3719991 44.3160004,70.2280006 44.232,70.116 C44.1479996,70.0039994 44.0440006,69.9180003 43.92,69.858 C43.7959994,69.7979997 43.6580008,69.7580001 43.506,69.738 C43.3539992,69.7179999 43.2100007,69.708 43.074,69.708 C42.6899981,69.708 42.3740012,69.7879992 42.126,69.948 C41.8779988,70.1080008 41.7380002,70.3559983 41.706,70.692 L40.338,70.692 C40.3620001,70.291998 40.4579992,69.9600013 40.626,69.696 C40.7940008,69.4319987 41.0079987,69.2200008 41.268,69.06 C41.5280013,68.8999992 41.8219984,68.7880003 42.15,68.724 C42.4780016,68.6599997 42.8139983,68.628 43.158,68.628 C43.4620015,68.628 43.7619985,68.6599997 44.058,68.724 C44.3540015,68.7880003 44.6199988,68.8919993 44.856,69.036 C45.0920012,69.1800007 45.2819993,69.3659989 45.426,69.594 C45.5700007,69.8220011 45.642,70.0999984 45.642,70.428 L45.642,73.62 Z M44.274,71.892 C44.065999,72.0280007 43.8100015,72.1099999 43.506,72.138 C43.2019985,72.1660001 42.8980015,72.2079997 42.594,72.264 C42.4499993,72.2880001 42.3100007,72.3219998 42.174,72.366 C42.0379993,72.4100002 41.9180005,72.4699996 41.814,72.546 C41.7099995,72.6220004 41.6280003,72.7219994 41.568,72.846 C41.5079997,72.9700006 41.478,73.1199991 41.478,73.296 C41.478,73.4480008 41.5219996,73.5759995 41.61,73.68 C41.6980004,73.7840005 41.8039994,73.8659997 41.928,73.926 C42.0520006,73.9860003 42.1879993,74.0279999 42.336,74.052 C42.4840007,74.0760001 42.6179994,74.088 42.738,74.088 C42.8900008,74.088 43.0539991,74.0680002 43.23,74.028 C43.4060009,73.9879998 43.5719992,73.9200005 43.728,73.824 C43.8840008,73.7279995 44.0139995,73.6060007 44.118,73.458 C44.2220005,73.3099993 44.274,73.1280011 44.274,72.912 L44.274,71.892 Z M46.494,68.796 L47.526,68.796 L47.526,66.936 L48.894,66.936 L48.894,68.796 L50.13,68.796 L50.13,69.816 L48.894,69.816 L48.894,73.128 C48.894,73.2720007 48.8999999,73.3959995 48.912,73.5 C48.9240001,73.6040005 48.9519998,73.6919996 48.996,73.764 C49.0400002,73.8360004 49.1059996,73.8899998 49.194,73.926 C49.2820004,73.9620002 49.4019992,73.98 49.554,73.98 C49.6500005,73.98 49.7459995,73.978 49.842,73.974 C49.9380005,73.97 50.0339995,73.9560001 50.13,73.932 L50.13,74.988 C49.9779992,75.0040001 49.8300007,75.0199999 49.686,75.036 C49.5419993,75.0520001 49.3940008,75.06 49.242,75.06 C48.8819982,75.06 48.5920011,75.0260003 48.372,74.958 C48.1519989,74.8899997 47.9800006,74.7900007 47.856,74.658 C47.7319994,74.5259993 47.6480002,74.360001 47.604,74.16 C47.5599998,73.959999 47.534,73.7320013 47.526,73.476 L47.526,69.816 L46.494,69.816 L46.494,68.796 Z M55.374,71.352 C55.3579999,71.1359989 55.3120004,70.928001 55.236,70.728 C55.1599996,70.527999 55.0560007,70.3540007 54.924,70.206 C54.7919993,70.0579993 54.6320009,69.9380005 54.444,69.846 C54.2559991,69.7539995 54.0460012,69.708 53.814,69.708 C53.5739988,69.708 53.356001,69.7499996 53.16,69.834 C52.963999,69.9180004 52.7960007,70.0339993 52.656,70.182 C52.5159993,70.3300007 52.4040004,70.503999 52.32,70.704 C52.2359996,70.904001 52.19,71.1199988 52.182,71.352 L55.374,71.352 Z M52.182,72.252 C52.182,72.4920012 52.2159997,72.7239989 52.284,72.948 C52.3520003,73.1720011 52.4539993,73.3679992 52.59,73.536 C52.7260007,73.7040008 52.897999,73.8379995 53.106,73.938 C53.314,74.0380005 53.5619986,74.088 53.85,74.088 C54.250002,74.088 54.5719988,74.0020009 54.816,73.83 C55.0600012,73.6579991 55.2419994,73.4000017 55.362,73.056 L56.658,73.056 C56.5859996,73.3920017 56.4620009,73.6919987 56.286,73.956 C56.1099991,74.2200013 55.8980012,74.4419991 55.65,74.622 C55.4019988,74.8020009 55.1240015,74.9379995 54.816,75.03 C54.5079985,75.1220005 54.1860017,75.168 53.85,75.168 C53.3619976,75.168 52.9300019,75.0880008 52.554,74.928 C52.1779981,74.7679992 51.8600013,74.5440014 51.6,74.256 C51.3399987,73.9679986 51.1440007,73.624002 51.012,73.224 C50.8799993,72.823998 50.814,72.3840024 50.814,71.904 C50.814,71.4639978 50.8839993,71.046002 51.024,70.65 C51.1640007,70.253998 51.3639987,69.9060015 51.624,69.606 C51.8840013,69.3059985 52.1979982,69.0680009 52.566,68.892 C52.9340018,68.7159991 53.3499977,68.628 53.814,68.628 C54.3020024,68.628 54.7399981,68.729999 55.128,68.934 C55.5160019,69.138001 55.8379987,69.4079983 56.094,69.744 C56.3500013,70.0800017 56.5359994,70.4659978 56.652,70.902 C56.7680006,71.3380022 56.7980003,71.7879977 56.742,72.252 L52.182,72.252 Z" id="Certificate-Copy-2" fill="#4A4A4A"></path>
                <g id="cert-copy-2" transform="translate(4.000000, 0.000000)">
                    <path d="M40.7631579,0.5 L0.5,0.5 L0.5,53.5 L48.5,53.5 L48.5,8.40243902 L40.7631579,8.40243902 L40.7631579,0.5 Z" id="Combined-Shape" stroke="#5C5C5C" fill="#FFFFFF"></path>
                    <line x1="7.7173913" y1="13.5" x2="39.3152006" y2="13.5" id="Line" stroke="#4A4A4A" stroke-linecap="square"></line>
                    <line x1="7.7173913" y1="16.5" x2="39.3152006" y2="16.5" id="Line-Copy" stroke="#4A4A4A" stroke-linecap="square"></line>
                    <line x1="7.7173913" y1="19.5" x2="39.3152006" y2="19.5" id="Line-Copy-9" stroke="#4A4A4A" stroke-linecap="square"></line>
                    <line x1="7.7173913" y1="22.5" x2="39.3152006" y2="22.5" id="Line-Copy-10" stroke="#4A4A4A" stroke-linecap="square"></line>
                    <line x1="7.7173913" y1="25.5" x2="39.3152006" y2="25.5" id="Line-Copy-11" stroke="#4A4A4A" stroke-linecap="square"></line>
                    <line x1="7.7173913" y1="28.5" x2="33.5" y2="28.5" id="Line-Copy-12" stroke="#4A4A4A" stroke-linecap="square"></line>
                    <circle id="Oval-7" fill="#4A4A4A" cx="39.5" cy="46.5" r="6.5"></circle>
                    <path d="M44,49 L44,61 L39.5,55.1714286 L35,61 L35,49 L44,49 Z" id="Combined-Shape" fill="#4A4A4A"></path>
                    <line x1="40.7519531" y1="0.306884766" x2="48.6711426" y2="8.33398437" id="Path-11" stroke="#4A4A4A"></line>
                </g>
            </g>
        </g>
        <g id="Group" transform="translate(96.000000, 111.000000)">
            <path d="M1,1 L1,84 L213,84 L213,1 L1,1 Z" id="Rectangle-Copy-5" stroke="#979797" stroke-width="2" fill="#FFFFFF"></path>
            <text id="Host:-grav-00.exampl" font-family="LucidaGrande, Lucida Grande" font-size="11" font-weight="normal" fill="#4A4A4A">
                <tspan x="10" y="20">Host: grav-00.example.com</tspan>
                <tspan x="10" y="33">nodename: grav-00</tspan>
                <tspan x="10" y="46">cluster_name: webcluster</tspan>
                <tspan x="10" y="59">role: </tspan>
                <tspan x="37.5268555" y="59" font-family="LucidaGrande-Bold, Lucida Grande" font-weight="bold">node</tspan>
                <tspan x="65.5102539" y="59"></tspan>
                <tspan x="10" y="72">TTL: Oct  8 11:32:17 2029 GMT</tspan>
            </text>
        </g>
    </g>
</svg>