<svg height="376.48099" width="756.90216" xmlns="http://www.w3.org/2000/svg" xmlns:xlink="http://www.w3.org/1999/xlink"><defs><filter id="a" height="1.13" width="1.05" x="-.02" y="-.03"><feOffset dx="4.28" dy="5.54" in="SourceAlpha" result="offOut"/><feGaussianBlur in="offOut" result="blurOut" stdDeviation="5"/><feColorMatrix in="blurOut" result="colorOut" values="0 0 0 0 0.14274509803921567 0 0 0 0 0.14274509803921567 0 0 0 0 0.14274509803921567 0 0 0 0.3568627450980392 0"/><feBlend in="SourceGraphic" in2="colorOut" mode="normal"/></filter><linearGradient id="b"><stop offset="0"/><stop offset=".8739" stop-color="#333"/><stop offset=".9874" stop-color="#333"/></linearGradient><linearGradient id="c" gradientUnits="userSpaceOnUse" x1="-2034.5601" x2="-2404.95" xlink:href="#b" y1="261.28" y2="261.28"/><filter id="d" height="1.38" width="1.25" x="-.11" y="-.12"><feOffset dx="2.05" dy="5.64" in="SourceAlpha" result="offOut"/><feGaussianBlur in="offOut" result="blurOut" stdDeviation="7.5"/><feColorMatrix in="blurOut" result="colorOut" values="0 0 0 0 0 0 0 0 0 0 0 0 0 0 0 0 0 0 0.14901960784313725 0"/><feBlend in="SourceGraphic" in2="colorOut" mode="normal"/></filter><linearGradient id="e" gradientUnits="userSpaceOnUse" x1="-1352.66" x2="-1572.66" y1="169.77" y2="123.01"><stop offset="0" stop-color="#354aaa"/><stop offset="0" stop-color="#8e24aa"/><stop offset="1" stop-color="#354aa4"/><stop offset="1" stop-color="#651f9b"/></linearGradient><linearGradient id="f" gradientUnits="userSpaceOnUse" x1="-1352.66" x2="-1747.63" xlink:href="#b" y1="261.28" y2="261.28"/><linearGradient id="g" gradientUnits="userSpaceOnUse" x1="-1780" x2="-1946.49" y1="20" y2="70.510002"><stop offset="0" stop-color="#354aaa"/><stop offset="0" stop-color="#651fff"/><stop offset="1" stop-color="#4c00f0"/></linearGradient><filter id="h" height="1.13" width="1.05" x="-.01" y="-.03"><feOffset dx="4.28" dy="5.54" in="SourceAlpha" result="offOut"/><feGaussianBlur in="offOut" result="blurOut" stdDeviation="5"/><feColorMatrix in="blurOut" result="colorOut" values="0 0 0 0 0.14274509803921567 0 0 0 0 0.14274509803921567 0 0 0 0 0.14274509803921567 0 0 0 0.3568627450980392 0"/><feBlend in="SourceGraphic" in2="colorOut" mode="normal"/></filter><path id="i" d="m991-153c-92 106-231 168-423 168-331 0-505-212-505-550 0-237 116-392 287-467 61-27 129-40 206-40 287 0 444 174 444 465 0 54-3 95-57 95h-634c4 226 158 349 385 292 52-13 93-39 132-62 32-19 73-16 93 9zm-213-478c-4-143-73-234-217-234-154 0-226 95-247 234z"/><path id="j" d="m738-75c-64 55-158 90-269 91-176 2-277-109-277-284v-573c-65-4-153 21-153-52v-98l165-27 52-280c10-66 115-35 183-42v323h270v176h-270v556c-1 59 32 101 88 102 48 1 68-25 104-34 19 1 25 9 33 22"/><g id="k"><path d="m382-1486v851c54 1 89-1 115-33l255-315c22-25 41-43 86-43h226c-118 139-232 284-354 420-11 12-25 21-39 30 29 21 48 49 69 78l342 498h-223c-44-1-65-15-85-44l-261-389c-20-29-30-36-75-37h-56v470h-247v-1486z" height="100%" transform="scale(.009)" width="100%"/><path d="m457 16c-234 0-346-155-346-390v-652h247v652c0 121 55 198 174 197 102-1 168-51 226-107v-742h247v1026c-80-9-199 29-214-45l-17-82c-77 77-166 143-317 143" height="100%" transform="matrix(.009 0 0 .009 9.927 0)" width="100%"/><path d="m638 15c-134 0-208-58-269-132-10 52-5 117-71 117h-163v-1486h247v586c77-79 169-142 318-142 277 0 379 230 379 521 0 241-97 412-259 495-54 27-115 41-182 41zm186-536c0-181-37-329-209-329-117 0-175 55-233 124v460c48 61 104 93 199 93 187 0 243-152 243-348" height="100%" transform="matrix(.009 0 0 .009 20.16 0)" width="100%"/><use height="100%" transform="matrix(.009 0 0 .009 30.42 0)" width="100%" xlink:href="#i"/><path d="m928-153c-89 104-216 168-404 168-227 0-358-131-424-305-47-123-49-306-4-434 67-190 213-318 465-318 165 0 270 58 357 143-29 37-52 81-86 112-71 26-104-41-170-55-24-5-52-12-86-12-192 5-260 143-260 339 0 194 67 336 254 342 98 3 148-38 200-79 26-20 67-17 87 9" height="100%" transform="matrix(.009 0 0 .009 40.041 0)" width="100%"/><use height="100%" transform="matrix(.009 0 0 .009 48.627 0)" width="100%" xlink:href="#j"/><path d="m395-1486v1486h-247v-1486z" height="100%" transform="matrix(.009 0 0 .009 55.593 0)" width="100%"/></g><g id="l"><path d="m247-436c-94-51-167-139-167-276 0-228 174-332 407-332 92 0 169 20 230 53h295c-4 63 19 133-53 146l-92 17c30 74 25 184-9 254-72 146-265 223-484 183-51 27-68 81-20 111 145 54 395 5 528 91 60 38 108 95 104 193-8 182-136 275-286 326-172 59-444 28-556-52-61-44-112-99-112-188 0-112 77-164 166-199-49-28-87-70-84-147 4-94 65-143 133-180zm247 621c132 0 252-20 264-139-10-98-129-93-228-102-63-6-132-5-191-13-47 27-93 62-93 127 0 112 123 127 248 127zm-189-891c0 111 68 168 182 168s182-56 182-168c0-107-68-165-182-165s-182 58-182 165" height="100%" transform="scale(.009)" width="100%"/><use height="100%" transform="matrix(.009 0 0 .009 9.315 0)" width="100%" xlink:href="#i"/><use height="100%" transform="matrix(.009 0 0 .009 18.936 0)" width="100%" xlink:href="#j"/></g><g id="m"><path d="m635 15c-121 0-193-40-256-100v420h-247v-1361c64 5 145-11 192 11 33 24 28 86 42 129 78-86 174-159 331-159 277 0 379 232 379 524 0 241-96 412-258 495-54 27-116 41-183 41zm186-536c0-181-37-329-209-329-117 0-175 55-233 124v460c48 60 104 93 198 93 188 0 244-152 244-348" height="100%" transform="scale(.009)" width="100%"/><path d="m361-1005c121-49 297-49 417 0 184 74 298 236 298 490 0 330-178 530-506 530-329 0-509-200-509-530 0-254 115-416 300-490zm-45 492c0 201 65 338 254 338 188 0 251-137 251-338s-63-340-251-340c-189 0-254 139-254 340" height="100%" transform="matrix(.009 0 0 .009 10.179 0)" width="100%"/><path d="m502-1045c120-1 193 43 256 101v-542h247v1486c-80-9-199 29-214-45l-20-99c-78 86-170 159-330 159-278 0-380-232-380-525 0-241 98-411 259-494 54-27 115-41 182-41zm-186 535c0 181 36 329 209 329 118 0 173-54 233-123v-460c-48-59-104-93-198-93-188 0-244 151-244 347" height="100%" transform="matrix(.009 0 0 .009 20.412 0)" width="100%"/><path d="m254-198c95 60 334 64 323-83-9-119-156-122-253-159-132-50-252-110-252-289 0-214 163-309 387-313 145-3 264 55 338 127-26 36-45 82-77 111-69 21-111-33-176-48-103-23-247 0-238 102 11 114 156 118 251 155 126 49 251 100 251 270 0 266-233 373-514 331-102-15-188-60-252-116 28-39 43-95 83-120 49-31 96 11 129 32" height="100%" transform="matrix(.009 0 0 .009 30.672 0)" width="100%"/></g><path id="n" d="m381 316c-196-290-321-699-259-1188 35-279 131-501 259-698 44 30 96 50 134 86 16 24 12 49-3 77-164 298-252 770-142 1185 35 132 78 259 143 374 20 35 10 87-22 97"/><path id="o" d="m1165-1446v221h-435v1225h-269v-1225h-437v-221z"/><path id="p" d="m415-222h579v222h-848v-1446h269z"/><path id="q" d="m519-204c146 0 246-70 241-211-6-175-195-185-333-232-183-63-339-153-333-400 5-199 120-319 272-380 126-51 311-44 437 5 72 27 133 64 184 112l-66 127c-15 40-64 51-105 25-64-41-136-87-246-85-132 3-224 54-224 182 0 167 202 176 334 227 173 67 333 144 333 381 0 227-120 364-289 433-138 56-353 39-478-16-80-35-154-80-210-138l78-129c23-34 74-43 115-13 73 54 157 112 290 112"/><path id="r" d="m219-1570c196 289 321 700 259 1188-35 279-131 501-259 698-44-30-97-51-134-88-18-18-10-55 2-76 168-296 252-768 143-1184-35-133-78-260-142-375-22-41-9-79 21-97"/><path id="s" d="m409-112c121-3 207-52 207-167 0-134-157-142-264-181-133-48-263-98-263-275 0-197 153-290 360-294 139-3 243 49 317 118-26 35-46 114-111 76-53-31-114-63-202-61-108 3-195 44-195 147 0 129 158 136 262 175 128 48 263 93 263 264 0 221-156 322-383 326-145 3-261-55-338-123 27-41 57-128 128-81 57 38 118 78 219 76"/><path id="t" d="m954-142c-104 134-382 203-590 120-184-74-290-246-290-505 0-234 108-389 275-463 59-26 125-39 198-39 273 0 420 174 420 453 0 48-2 70-43 70h-674c8 226 98 375 322 380 114 2 191-38 258-82 70-46 94 37 124 66zm-147-475c-5-171-86-278-256-281-181-3-273 116-295 281z"/><path id="u" d="m584-856c-148 6-210 94-260 211v645h-178v-1013c62 7 151-25 157 49l12 158c66-138 184-259 384-216 23 5 44 16 63 27l-23 133c-5 17-15 25-31 25-36 0-71-21-124-19"/><path id="v" d="m895-142c-96 134-356 204-551 121-171-73-270-241-270-486 0-317 160-522 477-522 151 0 254 54 333 132-21 26-39 58-63 81-42 20-68-19-100-34-42-20-91-42-160-40-219 6-304 160-304 383 0 220 82 376 295 383 106 4 169-38 223-84 22-19 53-21 70 1"/><path id="w" d="m344-1013v1013h-178v-1013zm-88-446c77 0 128 52 128 128 0 75-52 126-128 126-75 0-126-51-126-126 0-76 50-128 126-128"/><path id="x" d="m18-1013h146c28-1 47 18 55 37l257 652c18 45 27 93 37 143 12-50 22-98 40-143l260-652c17-60 123-30 192-37l-413 1013h-161"/><path id="y" d="m598-887c-125 2-207 68-274 141v746h-178v-1473h178v596c81-82 173-152 326-152 232 0 339 151 339 384v645h-178v-645c0-149-65-244-213-242"/><path id="z" d="m1038-507c0 321-164 521-482 521s-484-201-484-521c0-248 107-410 284-485 60-25 126-37 200-37 317 0 482 201 482 522zm-782 1c0 225 80 381 300 381 213 0 298-159 298-381 0-223-84-383-298-383-221 0-300 158-300 383"/><path id="A" d="m698-76c-54 52-145 92-245 92-162 1-249-96-249-260v-620c-58-9-160 26-160-39v-71l166-21 41-313c4-50 80-30 131-34v349h290v129h-290v608c-2 78 40 125 111 126 60 2 88-33 128-48 9 0 18 6 25 17"/><path id="B" d="m344-1473v1473h-178v-1473z"/><path id="C" d="m510-1031c133 0 210 49 277 120v-562h178v1473c-60-6-146 21-154-37l-16-123c-79 93-179 174-340 174-282 0-383-223-383-517 0-237 94-406 254-487 54-27 115-41 184-41zm-254 528c2 212 53 373 258 373 136 0 207-69 273-153v-490c-57-77-121-119-237-119-208 0-296 164-294 389"/><path id="D" d="m212 15c-76 0-124-49-124-125s48-126 124-126 125 50 125 126c0 77-49 125-125 125"/><path id="E" d="m594-1317c-165 0-237 72-235 231v93h293v129h-287v864h-179v-861c-49-9-113-4-146-29-24-17-10-67-14-103h160v-98c5-229 120-363 348-363 45 0 87 7 126 20l-4 89c-2 31-28 28-62 28"/><path id="F" d="m537-1031c235 0 353 147 353 383v648c-58-5-129 17-142-42l-20-94c-91 81-183 155-353 152-175-3-283-92-283-269 0-184 160-243 332-285 79-19 176-28 291-31 12-184-31-318-200-318-113 0-181 45-243 91-36 26-82 14-99-17l-32-57c101-96 215-161 396-161zm-274 770c0 103 62 152 165 152 140 0 216-64 287-136v-211c-141 4-258 19-349 60-60 27-103 62-103 135"/><path id="G" d="m598-887c-125 2-207 68-274 141v746h-178v-1013c60 6 147-22 154 37l14 110c82-87 177-163 336-163 232 0 339 151 339 384v645h-178v-645c0-149-65-244-213-242"/><path id="H" d="m443 299c-13 26-25 44-64 44h-132l185-402-418-954h154c30-1 46 18 55 37 95 228 197 450 287 682 6 14 8 30 11 45 10-32 18-60 30-90l263-637c18-60 124-30 194-37"/><path id="I" d="m103-704c0-220 160-326 384-326 92 0 169 21 228 57h275c-2 53 13 100-42 108l-115 16c43 79 45 196 5 279-58 120-176 191-351 193-47 0-92-6-134-17-50 22-100 108-36 142 165 88 511-13 621 164 40 65 36 170-4 240-77 134-229 213-441 213-193 0-343-50-415-167-19-32-28-66-28-101 3-117 84-175 178-211-54-27-98-64-94-143 4-90 64-137 129-173-91-51-160-139-160-274zm231 619c-80 32-172 123-110 223 97 157 586 133 579-83-4-118-144-113-260-123-70-6-146-6-209-17zm-67-614c0 134 84 204 220 204 137 0 221-69 221-204 0-129-85-203-221-203-135 0-220 74-220 203"/><path id="J" d="m1150-1433v163h-463v1270h-194v-1270h-465v-163z"/><path id="K" d="m602 14c-133 0-212-47-278-119v448h-178v-1356c60 6 147-22 154 37l15 120c80-93 179-175 341-175 282 0 383 224 383 518 0 237-92 406-253 487-54 27-116 40-184 40zm253-527c-3-212-53-374-258-374-136 0-207 69-273 153v490c57 77 121 120 238 120 207 0 295-164 293-389"/><path id="L" d="m461 16c-231 0-339-149-339-383v-646h178v646c0 148 67 243 213 241 125-2 207-66 274-140v-747h178v1013c-60-6-146 22-154-37l-14-109c-81 86-178 162-336 162"/><path id="M" d="m331-1473v867c49 0 82 0 108-28l320-343c20-19 33-36 70-36h162c-133 142-268 284-401 427-9 9-19 16-30 23 25 17 41 39 60 63l396 500c-81-8-184 18-227-35l-333-415c-21-27-31-33-75-34h-50v484h-179v-1473z"/><path id="N" d="m608 14c-142 0-221-61-286-144-9 50 6 130-55 130h-115v-1473h179v606c78-87 176-162 331-162 283 0 384 222 384 516 0 237-93 406-254 487-54 27-116 40-184 40zm254-527c-2-212-53-374-258-374-136 0-207 69-273 153v490c56 77 120 120 237 120 208 0 296-164 294-389"/><path id="O" d="m550-887c-107 0-172 65-226 132v755h-178v-1013c60 6 147-22 154 37l13 104c69-80 148-156 287-157 148-1 223 92 258 211 51-126 153-211 323-211 232 0 338 149 338 384v645h-178v-645c1-148-62-242-203-242-142 0-218 94-218 242v645h-178v-645c1-149-54-242-192-242"/><g id="P"><use height="100%" transform="scale(.01059118)" width="100%" xlink:href="#M"/><use height="100%" transform="matrix(.01059118 0 0 .01059118 11.099561 0)" width="100%" xlink:href="#L"/><use height="100%" transform="matrix(.01059118 0 0 .01059118 22.876957 0)" width="100%" xlink:href="#N"/><use height="100%" transform="matrix(.01059118 0 0 .01059118 34.717901 0)" width="100%" xlink:href="#t"/><use height="100%" transform="matrix(.01059118 0 0 .01059118 45.817461 0)" width="100%" xlink:href="#u"/><use height="100%" transform="matrix(.01059118 0 0 .01059118 54.353955 0)" width="100%" xlink:href="#G"/><use height="100%" transform="matrix(.01059118 0 0 .01059118 66.131352 0)" width="100%" xlink:href="#t"/><use height="100%" transform="matrix(.01059118 0 0 .01059118 77.230912 0)" width="100%" xlink:href="#A"/><use height="100%" transform="matrix(.01059118 0 0 .01059118 85.131935 0)" width="100%" xlink:href="#t"/><use height="100%" transform="matrix(.01059118 0 0 .01059118 96.231496 0)" width="100%" xlink:href="#s"/></g><path id="Q" d="m43-415v-127h161v-142h140v142h207v127h-207v230c-7 84 127 45 199 54l24 131h-181c-115 0-182-44-182-156v-259z" fill="#4cf66e"/><path id="R" d="m228-180c-1 44-3 64 58 64 53 0 145 14 135-44 2-45-6-61-69-62h-85c-136 1-172-49-172-172 0-149 137-152 288-148 135 4 173 52 171 138l-133 34c1-41 0-58-57-58s-136-21-136 53c0 31 15 43 70 43h77c136 0 179 58 179 184 0 149-136 153-287 148-142-4-176-54-172-150" fill="#4cf66e"/><path id="S" d="m78 0v-131h202v-424h-182v-129h322v553h172v131z" fill="#4cf66e"/><path id="T" d="m386 0h-122c-115 0-182-47-182-158v-226c0-111 67-158 182-158h122c115 0 182 47 182 158v226c0 111-67 158-182 158zm-164-185c-10 69 83 54 145 54 45 0 61-17 61-55v-173c10-69-83-54-145-54-45 0-61 17-61 54z" fill="#4cf66e"/><path id="U" d="m85 0v-131h202v-282h-182v-129h323v411h171v131zm343-633h-145v-129h145z" fill="#4cf66e"/><path id="V" d="m570 0h-141v-339c4-70-45-74-114-74-51 0-95 25-95 82v331h-140v-542h140v47h3c23-39 110-47 191-47 99 0 156 52 156 163z" fill="#4cf66e"/><path id="W" d="m493-246h-337v-129h337z" fill="#4cf66e"/><path id="X" d="m402 0h-155v-146h155z" fill="#4cf66e"/><path id="Y" d="m559-374v150h-336c-1 60-7 111 61 108 57-3 150 14 142-47v-25l133 25c16 162-125 163-287 163-115 0-182-47-182-158v-226c0-111 67-158 182-158h105c115 0 182 57 182 168zm-275-54c-72-1-60 40-61 97h203c0-57 9-97-61-97z" fill="#4cf66e"/><path id="Z" d="m325-361 89-82v-99h140v139l-136 118 155 136v149h-140v-106l-108-97-108 97v106h-140v-149l155-136-137-118v-139h141v99" fill="#4cf66e"/><path id="aa" d="m550 0h-133v-39h-3c-25 32-103 39-178 39-113 0-163-60-157-192 6-124 77-150 199-150 66 0 112 15 136 37h3c1-65 9-127-64-123-50 3-129-10-119 44v13l-133-32c-4-89 57-137 174-139h89c115 0 186 59 186 171zm-133-163c0-82-79-68-147-69-46-1-58 21-58 67 0 59 62 49 117 49 42 0 88-11 88-47" fill="#4cf66e"/><path id="ab" d="m32 0v-542h113c1 19-3 43 2 58 7-38 64-58 136-58 62 0 74 29 86 58 8-40 65-58 135-58 84 0 114 49 114 157v385h-124v-367c2-52-20-50-64-50-23 0-45 18-45 71v346h-121v-375c3-44-24-42-63-42-29 0-45 24-45 71v346z" fill="#4cf66e"/><path id="ac" d="m229-542v47h3c23-40 112-47 194-47 98 0 155 52 155 163v216c1 138-83 163-221 163-65 0-107-21-128-46h-3v257h-141v-753zm0 329c2 75 65 82 142 82 99 0 64-122 70-207 5-72-47-75-118-75-50 0-94 25-94 82z" fill="#4cf66e"/><path id="ad" d="m224-359v174c-10 67 79 53 140 54 60 2 64-32 61-87l140 40c7 125-60 178-182 178h-117c-115 0-182-47-182-158v-226c0-111 67-158 182-158h117c126 0 191 56 182 187l-140 36c2-57 2-96-61-94-61 2-140-14-140 54" fill="#4cf66e"/><path id="ae" d="m254-198c95 60 334 64 323-83-9-119-156-122-253-159-132-50-252-110-252-289 0-214 163-309 387-313 145-3 264 55 338 127-26 36-45 82-77 111-69 21-111-33-176-48-103-23-247 0-238 102 11 114 156 118 251 155 126 49 251 100 251 270 0 266-233 373-514 331-102-15-188-60-252-116 28-39 43-95 83-120 49-31 96 11 129 32" fill="#333"/><path id="af" d="m80 0v-693h468v131h-312v136h277v128h-277v167h335v131z" fill="#fff"/><path id="ag" d="m80-683c59-12 137-18 203-18 187 1 322 54 322 228 0 106-52 157-130 190 65 83 124 182 172 283h-175c-49-87-99-179-159-253h-77v253h-156zm364 209c1-96-110-98-208-91v188c111-1 207 3 208-97" fill="#fff"/><path id="ah" d="m594-693v133h-209v560h-156v-560h-209v-133z" fill="#fff"/><path id="ai" d="m75 0v-131h180v-424h-170v-129h479v129h-169v424h180v131z" fill="#4cf66e"/><path id="aj" d="m596-337-141 36c2-64 3-112-64-112-76 0-139 9-139 82v331h-140v-542h140v47h3c22-37 105-47 185-47 114 0 167 72 156 205" fill="#4cf66e"/><path id="ak" d="m402-360h-155v-146h155zm0 360h-155v-146h155z" fill="#4cf66e"/><use id="al" height="100%" transform="scale(.01059118)" width="100%" xlink:href="#F"/><path id="am" d="m991-153c-92 106-231 168-423 168-331 0-505-212-505-550 0-237 116-392 287-467 61-27 129-40 206-40 287 0 444 174 444 465 0 54-3 95-57 95h-634c4 226 158 349 385 292 52-13 93-39 132-62 32-19 73-16 93 9zm-213-478c-4-143-73-234-217-234-154 0-226 95-247 234z" fill="#651f9b"/><path id="an" d="m604-806c-122 5-180 74-225 167v639h-247v-1026c83 11 206-35 218 62l15 124c63-106 147-205 295-205 51 0 93 12 126 35l-32 185c-4 23-15 33-40 33-33 0-65-16-110-14" fill="#651f9b"/><path id="ao" d="m738-75c-64 55-158 90-269 91-176 2-277-109-277-284v-573c-65-4-153 21-153-52v-98l165-27 52-280c10-66 115-35 183-42v323h270v176h-270v556c-1 59 32 101 88 102 48 1 68-25 104-34 19 1 25 9 33 22" fill="#651f9b"/><path id="ap" d="m457 16c-234 0-346-155-346-390v-652h247v652c0 121 55 198 174 197 102-1 168-51 226-107v-742h247v1026c-80-9-199 29-214-45l-17-82c-77 77-166 143-317 143" fill="#651f9b"/><path id="aq" d="m254-198c95 60 334 64 323-83-9-119-156-122-253-159-132-50-252-110-252-289 0-214 163-309 387-313 145-3 264 55 338 127-26 36-45 82-77 111-69 21-111-33-176-48-103-23-247 0-238 102 11 114 156 118 251 155 126 49 251 100 251 270 0 266-233 373-514 331-102-15-188-60-252-116 28-39 43-95 83-120 49-31 96 11 129 32" fill="#651f9b"/><path id="ar" d="m1417 0h-208c-47 1-77-28-90-61l-108-295h-599l-108 295c-11 30-46 61-89 61h-209l568-1446h275zm-936-546h461c-77-218-163-424-231-651-66 230-154 432-230 651" fill="#651f9b"/><path id="as" d="m928-153c-89 104-216 168-404 168-227 0-358-131-424-305-47-123-49-306-4-434 67-190 213-318 465-318 165 0 270 58 357 143-29 37-52 81-86 112-71 26-104-41-170-55-24-5-52-12-86-12-192 5-260 143-260 339 0 194 67 336 254 342 98 3 148-38 200-79 26-20 67-17 87 9" fill="#651f9b"/></defs><g transform="matrix(.7 0 0 .7 1692.705 -13.3)"><g fill="#651fff"><path d="m-2140.98 140.96h-141.98v-2h139.98v-35.56h2zm122.48-94.7h-122.48v35.54h-2v-37.53h124.48z"/><path d="m-2282.94 140.96h-1.02v-2h1.02zm279.7-95.7-14.26 4.63v-9.29z"/><path d="m-2000 45.26-18.5 6v-12.01zm-16.5 3.25 10.03-3.24-10.03-3.26z"/></g><use height="100%" transform="translate(-2237.4566 99.572039)" width="100%" xlink:href="#k"/><use height="100%" transform="translate(-2173.5116 99.572039)" width="100%" xlink:href="#l"/><use height="100%" transform="translate(-2144.1356 99.572039)" width="100%" xlink:href="#m"/><g height="100%" transform="translate(-2098.6496 99.572039)" width="100%"><use height="100%" transform="scale(.009)" width="100%" xlink:href="#n"/><path d="m565-850c-86 0-140 48-186 99v751h-247v-1026c80 9 198-29 214 45l16 76c67-72 141-136 276-137 139-1 214 86 253 192 57-117 162-192 328-192 240 0 354 147 354 389v653h-247v-653c1-123-52-197-169-197s-180 76-180 197v653h-248v-653c0-127-46-197-164-197" height="100%" transform="matrix(.009 0 0 .009 5.4 0)" width="100%"/><use height="100%" transform="matrix(.009 0 0 .009 20.556 0)" width="100%" xlink:href="#o"/><use height="100%" transform="matrix(.009 0 0 .009 31.266 0)" width="100%" xlink:href="#p"/><use height="100%" transform="matrix(.009 0 0 .009 40.572 0)" width="100%" xlink:href="#q"/><use height="100%" transform="matrix(.009 0 0 .009 50.229 0)" width="100%" xlink:href="#r"/></g><g filter="url(#a)"><path d="m-2404.95 283.04c0-2.2 1.8-4 4-4h362.4c2.2 0 4 1.8 4 4v152c0 2.2-1.8 4-4 4h-362.4c-2.2 0-4-1.8-4-4z" fill="#fff" stroke="#651fff" stroke-width="2"/><g height="100%" transform="translate(-2399.9477 304.94946)" width="100%"><path d="m353-563c7 250 130 409 378 409s377-159 377-408v-871h193v871c-5 275-133 450-332 535-136 58-340 59-476 0-200-85-333-259-333-535v-871h193z" height="100%" transform="scale(.01059118)" width="100%"/><use height="100%" transform="matrix(.01059118 0 0 .01059118 15.463128 0)" width="100%" xlink:href="#s"/><use height="100%" transform="matrix(.01059118 0 0 .01059118 24.656276 0)" width="100%" xlink:href="#t"/><use height="100%" transform="matrix(.01059118 0 0 .01059118 35.755837 0)" width="100%" xlink:href="#u"/><use height="100%" transform="matrix(.01059118 0 0 .01059118 44.292331 0)" width="100%" xlink:href="#s"/></g><g height="100%" transform="translate(-2342.374 304.94946)" width="100%"><use height="100%" transform="scale(.01059118)" width="100%" xlink:href="#u"/><use height="100%" transform="matrix(.01059118 0 0 .01059118 8.536494 0)" width="100%" xlink:href="#t"/><use height="100%" transform="matrix(.01059118 0 0 .01059118 19.636055 0)" width="100%" xlink:href="#v"/><use height="100%" transform="matrix(.01059118 0 0 .01059118 29.52822 0)" width="100%" xlink:href="#t"/><use height="100%" transform="matrix(.01059118 0 0 .01059118 40.627781 0)" width="100%" xlink:href="#w"/><use height="100%" transform="matrix(.01059118 0 0 .01059118 46.050467 0)" width="100%" xlink:href="#x"/><use height="100%" transform="matrix(.01059118 0 0 .01059118 56.620469 0)" width="100%" xlink:href="#t"/></g><g height="100%" transform="translate(-2270.5658 304.94946)" width="100%"><use height="100%" transform="scale(.01059118)" width="100%" xlink:href="#s"/><use height="100%" transform="matrix(.01059118 0 0 .01059118 9.193148 0)" width="100%" xlink:href="#y"/><use height="100%" transform="matrix(.01059118 0 0 .01059118 20.970544 0)" width="100%" xlink:href="#z"/><use height="100%" transform="matrix(.01059118 0 0 .01059118 32.74794 0)" width="100%" xlink:href="#u"/><use height="100%" transform="matrix(.01059118 0 0 .01059118 41.284434 0)" width="100%" xlink:href="#A"/><path d="m100-675h494v151h-494z" height="100%" transform="matrix(.01059118 0 0 .01059118 49.185458 0)" width="100%"/><use height="100%" transform="matrix(.01059118 0 0 .01059118 56.535739 0)" width="100%" xlink:href="#B"/><use height="100%" transform="matrix(.01059118 0 0 .01059118 61.958425 0)" width="100%" xlink:href="#w"/><use height="100%" transform="matrix(.01059118 0 0 .01059118 67.381111 0)" width="100%" xlink:href="#x"/><use height="100%" transform="matrix(.01059118 0 0 .01059118 77.951113 0)" width="100%" xlink:href="#t"/><use height="100%" transform="matrix(.01059118 0 0 .01059118 89.050673 0)" width="100%" xlink:href="#C"/></g><g height="100%" transform="translate(-2165.586 304.94946)" width="100%"><path d="m507-736-473-697h193c29 0 37 10 49 27l374 574c5-14 10-30 21-46l353-524c11-16 21-30 45-31h185l-475 688 491 745h-192c-30 1-44-19-55-37l-384-601c-5 14-10 28-18 40l-374 561c-12 17-23 38-53 37h-180" height="100%" transform="scale(.01059118)" width="100%"/><use height="100%" transform="matrix(.01059118 0 0 .01059118 13.620262 0)" width="100%" xlink:href="#D"/><path d="m527-768c-86 0-160 15-232 38l-112-33 116-670h679c7 99-4 165-105 165h-450l-66 376c75-16 144-24 207-24 286 0 458 152 458 433 0 245-132 392-313 464-129 52-317 40-432-11-63-28-123-63-169-105 34-42 67-137 146-87 68 43 146 88 262 85 210-6 326-128 326-338 0-197-116-293-315-293" height="100%" transform="matrix(.01059118 0 0 .01059118 18.110924 0)" width="100%"/><path d="m1060-1042c53 174 53 479 0 652-70 230-203 405-481 405-277 0-410-176-479-405-52-173-53-479 0-652 70-230 201-407 479-407 277 0 412 178 481 407zm-172 601c36-137 36-414 0-551-45-170-118-306-309-306-190 0-263 137-307 306-36 138-36 414 0 551 45 170 116 306 307 306 190 0 265-138 309-306" height="100%" transform="matrix(.01059118 0 0 .01059118 30.396698 0)" width="100%"/><path d="m819-678c-91 81-278 120-423 63-147-58-248-182-248-384 0-217 123-348 283-415 110-46 267-45 378-1 189 74 308 278 257 547-25 130-89 225-155 322l-349 504c-36 63-162 36-256 42 170-227 347-447 513-678zm-211-47c183 0 299-105 299-282 0-183-105-293-287-293s-294 106-294 288c0 183 99 287 282 287" height="100%" transform="matrix(.01059118 0 0 .01059118 42.682471 0)" width="100%"/></g><g height="100%" transform="translate(-2399.9477 330.3683)" width="100%"><use height="100%" transform="scale(.01059118)" width="100%" xlink:href="#v"/><use height="100%" transform="matrix(.01059118 0 0 .01059118 9.892166 0)" width="100%" xlink:href="#t"/><use height="100%" transform="matrix(.01059118 0 0 .01059118 20.991726 0)" width="100%" xlink:href="#u"/><use height="100%" transform="matrix(.01059118 0 0 .01059118 29.52822 0)" width="100%" xlink:href="#A"/><use height="100%" transform="matrix(.01059118 0 0 .01059118 37.429244 0)" width="100%" xlink:href="#w"/><use height="100%" transform="matrix(.01059118 0 0 .01059118 42.85193 0)" width="100%" xlink:href="#E"/><use height="100%" transform="matrix(.01059118 0 0 .01059118 49.990388 0)" width="100%" xlink:href="#w"/><use height="100%" transform="matrix(.01059118 0 0 .01059118 55.413074 0)" width="100%" xlink:href="#v"/><use height="100%" transform="matrix(.01059118 0 0 .01059118 65.305239 0)" width="100%" xlink:href="#F"/><use height="100%" transform="matrix(.01059118 0 0 .01059118 76.0447 0)" width="100%" xlink:href="#A"/><use height="100%" transform="matrix(.01059118 0 0 .01059118 83.945723 0)" width="100%" xlink:href="#t"/><use height="100%" transform="matrix(.01059118 0 0 .01059118 95.045283 0)" width="100%" xlink:href="#s"/></g><g height="100%" transform="translate(-2291.6211 330.3683)" width="100%"><use height="100%" transform="scale(.01059118)" width="100%" xlink:href="#z"/><use height="100%" transform="matrix(.01059118 0 0 .01059118 11.777396 0)" width="100%" xlink:href="#G"/><use height="100%" transform="matrix(.01059118 0 0 .01059118 23.554793 0)" width="100%" xlink:href="#v"/><use height="100%" transform="matrix(.01059118 0 0 .01059118 33.446958 0)" width="100%" xlink:href="#t"/></g><g height="100%" transform="translate(-2242.9864 330.3683)" width="100%"><use height="100%" transform="scale(.01059118)" width="100%" xlink:href="#A"/><use height="100%" transform="matrix(.01059118 0 0 .01059118 7.901023 0)" width="100%" xlink:href="#y"/><use height="100%" transform="matrix(.01059118 0 0 .01059118 19.67842 0)" width="100%" xlink:href="#t"/><use height="100%" transform="matrix(.01059118 0 0 .01059118 30.502609 0)" width="100%" xlink:href="#H"/></g><g height="100%" transform="translate(-2197.5502 330.3683)" width="100%"><use height="100%" transform="scale(.01059118)" width="100%" xlink:href="#B"/><use height="100%" transform="matrix(.01059118 0 0 .01059118 5.422686 0)" width="100%" xlink:href="#z"/><use height="100%" transform="matrix(.01059118 0 0 .01059118 17.200083 0)" width="100%" xlink:href="#I"/></g><g height="100%" transform="translate(-2165.4377 330.3683)" width="100%"><use height="100%" transform="scale(.01059118)" width="100%" xlink:href="#w"/><use height="100%" transform="matrix(.01059118 0 0 .01059118 5.422686 0)" width="100%" xlink:href="#G"/><use height="100%" transform="matrix(.01059118 0 0 .01059118 17.200083 0)" width="100%" xlink:href="#D"/></g><g height="100%" transform="translate(-2139.6588 330.3683)" width="100%"><use height="100%" transform="scale(.01059118)" width="100%" xlink:href="#J"/><use height="100%" transform="matrix(.01059118 0 0 .01059118 10.273448 0)" width="100%" xlink:href="#t"/><use height="100%" transform="matrix(.01059118 0 0 .01059118 21.373009 0)" width="100%" xlink:href="#B"/><use height="100%" transform="matrix(.01059118 0 0 .01059118 26.795695 0)" width="100%" xlink:href="#t"/><use height="100%" transform="matrix(.01059118 0 0 .01059118 37.895256 0)" width="100%" xlink:href="#K"/><use height="100%" transform="matrix(.01059118 0 0 .01059118 49.587923 0)" width="100%" xlink:href="#z"/><use height="100%" transform="matrix(.01059118 0 0 .01059118 61.365319 0)" width="100%" xlink:href="#u"/><use height="100%" transform="matrix(.01059118 0 0 .01059118 69.901813 0)" width="100%" xlink:href="#A"/></g><g height="100%" transform="translate(-2399.9477 355.78714)" width="100%"><use height="100%" transform="scale(.01059118)" width="100%" xlink:href="#L"/><use height="100%" transform="matrix(.01059118 0 0 .01059118 11.777396 0)" width="100%" xlink:href="#K"/><use height="100%" transform="matrix(.01059118 0 0 .01059118 23.470063 0)" width="100%" xlink:href="#C"/><use height="100%" transform="matrix(.01059118 0 0 .01059118 35.311007 0)" width="100%" xlink:href="#F"/><use height="100%" transform="matrix(.01059118 0 0 .01059118 46.050467 0)" width="100%" xlink:href="#A"/><use height="100%" transform="matrix(.01059118 0 0 .01059118 53.95149 0)" width="100%" xlink:href="#t"/><use height="100%" transform="matrix(.01059118 0 0 .01059118 65.051051 0)" width="100%" xlink:href="#s"/></g><g height="100%" transform="translate(-2321.6153 355.78714)" width="100%"><use height="100%" transform="scale(.01059118)" width="100%" xlink:href="#M"/><use height="100%" transform="matrix(.01059118 0 0 .01059118 11.099561 0)" width="100%" xlink:href="#L"/><use height="100%" transform="matrix(.01059118 0 0 .01059118 22.876957 0)" width="100%" xlink:href="#N"/><use height="100%" transform="matrix(.01059118 0 0 .01059118 34.717901 0)" width="100%" xlink:href="#t"/><use height="100%" transform="matrix(.01059118 0 0 .01059118 45.817461 0)" width="100%" xlink:href="#v"/><use height="100%" transform="matrix(.01059118 0 0 .01059118 55.709627 0)" width="100%" xlink:href="#z"/><use height="100%" transform="matrix(.01059118 0 0 .01059118 67.487023 0)" width="100%" xlink:href="#G"/><use height="100%" transform="matrix(.01059118 0 0 .01059118 79.26442 0)" width="100%" xlink:href="#E"/><use height="100%" transform="matrix(.01059118 0 0 .01059118 86.402878 0)" width="100%" xlink:href="#w"/><use height="100%" transform="matrix(.01059118 0 0 .01059118 91.825564 0)" width="100%" xlink:href="#I"/></g><g height="100%" transform="translate(-2214.8774 355.78714)" width="100%"><use height="100%" transform="scale(.01059118)" width="100%" xlink:href="#A"/><use height="100%" transform="matrix(.01059118 0 0 .01059118 7.901023 0)" width="100%" xlink:href="#z"/></g><g height="100%" transform="translate(-2191.1107 355.78714)" width="100%"><use height="100%" transform="scale(.01059118)" width="100%" xlink:href="#s"/><use height="100%" transform="matrix(.01059118 0 0 .01059118 9.193148 0)" width="100%" xlink:href="#t"/><use height="100%" transform="matrix(.01059118 0 0 .01059118 20.292708 0)" width="100%" xlink:href="#A"/></g><g height="100%" transform="translate(-2158.8288 355.78714)" width="100%"><use height="100%" transform="scale(.01059118)" width="100%" xlink:href="#L"/><use height="100%" transform="matrix(.01059118 0 0 .01059118 11.777396 0)" width="100%" xlink:href="#K"/></g><g height="100%" transform="translate(-2131.2706 355.78714)" width="100%"><use height="100%" transform="scale(.01059118)" width="100%" xlink:href="#O"/><use height="100%" transform="matrix(.01059118 0 0 .01059118 17.390724 0)" width="100%" xlink:href="#J"/><path d="m368-163h620v163h-814v-1433h194z" height="100%" transform="matrix(.01059118 0 0 .01059118 29.888321 0)" width="100%"/><path d="m513-145c178-4 292-88 292-262 0-193-194-213-343-263-182-61-347-142-342-385 4-188 111-303 254-361 117-48 292-41 408 5 66 26 124 62 173 110-22 37-36 86-66 115-51 25-83-28-123-48-53-26-114-56-200-54-157 4-266 71-266 223 0 186 200 204 344 258 175 65 343 135 343 372 0 289-185 446-480 451-198 4-349-81-449-187 26-36 42-83 76-111 60-25 93 39 140 65 62 34 135 75 239 72" height="100%" transform="matrix(.01059118 0 0 .01059118 40.776058 0)" width="100%"/></g><g height="100%" transform="translate(-2075.1797 355.78714)" width="100%"><use height="100%" transform="scale(.01059118)" width="100%" xlink:href="#E"/><use height="100%" transform="matrix(.01059118 0 0 .01059118 7.138458 0)" width="100%" xlink:href="#z"/><use height="100%" transform="matrix(.01059118 0 0 .01059118 18.915854 0)" width="100%" xlink:href="#u"/></g><use height="100%" transform="translate(-2399.9477 381.20598)" width="100%" xlink:href="#P"/><g height="100%" transform="translate(-2290.4349 381.20598)" width="100%"><use height="100%" transform="scale(.01059118)" width="100%" xlink:href="#F"/><use height="100%" transform="matrix(.01059118 0 0 .01059118 10.73946 0)" width="100%" xlink:href="#v"/><use height="100%" transform="matrix(.01059118 0 0 .01059118 20.631626 0)" width="100%" xlink:href="#v"/><use height="100%" transform="matrix(.01059118 0 0 .01059118 30.523792 0)" width="100%" xlink:href="#t"/><use height="100%" transform="matrix(.01059118 0 0 .01059118 41.623352 0)" width="100%" xlink:href="#s"/><use height="100%" transform="matrix(.01059118 0 0 .01059118 50.8165 0)" width="100%" xlink:href="#s"/><use height="100%" transform="matrix(.01059118 0 0 .01059118 60.009647 0)" width="100%" xlink:href="#D"/></g></g><path d="m-2404.95 210.16c0-4.42 3.58-8 8-8h354.4c4.4 0 8 3.58 8 8v43.12c0 4.42-3.6 8-8 8h-354.4c-4.42 0-8-3.58-8-8z" fill="url(#c)"/><path d="m-2386.52 201.28h298.6v35.38h-298.6z" fill="none"/><g height="100%" transform="translate(-2381.5175 223.92341)" width="100%"><use height="100%" transform="scale(.01577778)" width="100%" xlink:href="#Q"/><use height="100%" transform="matrix(.01577778 0 0 .01577778 10.255556 0)" width="100%" xlink:href="#R"/><path d="m574 0h-141v-338c5-73-46-75-117-75-51 0-95 25-95 82v331h-140v-684h140v189h3c23-39 112-47 194-47 99 0 156 52 156 163z" fill="#4cf66e" height="100%" transform="matrix(.01577778 0 0 .01577778 20.511111 0)" width="100%"/></g><g height="100%" transform="translate(-2340.4952 223.92341)" width="100%"><use height="100%" transform="scale(.01577778)" width="100%" xlink:href="#S"/><use height="100%" transform="matrix(.01577778 0 0 .01577778 10.255556 0)" width="100%" xlink:href="#T"/><path d="m421-542h140v624c0 111-77 158-192 158h-119c-120 0-187-49-182-167l141-36c-3 51 6 80 61 78 63-2 151 17 151-54v-107h-3c-23 38-112 46-194 46-100 0-156-51-156-163v-216c-1-137 83-163 221-163 66 0 108 21 129 47h3zm-212 336c-5 73 46 75 117 75 51 0 95-25 95-82v-118c-2-75-66-82-143-82-99 0-63 123-69 207" fill="#4cf66e" height="100%" transform="matrix(.01577778 0 0 .01577778 20.511111 0)" width="100%"/><use height="100%" transform="matrix(.01577778 0 0 .01577778 30.766667 0)" width="100%" xlink:href="#U"/><use height="100%" transform="matrix(.01577778 0 0 .01577778 41.022222 0)" width="100%" xlink:href="#V"/></g><g height="100%" transform="translate(-2278.9619 223.92341)" width="100%"><use height="100%" transform="scale(.01577778)" width="100%" xlink:href="#W"/><use height="100%" transform="matrix(.01577778 0 0 .01577778 10.255556 0)" width="100%" xlink:href="#T"/></g><g height="100%" transform="translate(-2248.1952 223.92341)" width="100%"><use height="100%" transform="scale(.01577778)" width="100%" xlink:href="#R"/><use height="100%" transform="matrix(.01577778 0 0 .01577778 10.255556 0)" width="100%" xlink:href="#R"/><use height="100%" transform="matrix(.01577778 0 0 .01577778 20.511111 0)" width="100%" xlink:href="#T"/><use height="100%" transform="matrix(.01577778 0 0 .01577778 30.766667 0)" width="100%" xlink:href="#X"/><use height="100%" transform="matrix(.01577778 0 0 .01577778 41.022222 0)" width="100%" xlink:href="#Y"/><use height="100%" transform="matrix(.01577778 0 0 .01577778 51.277778 0)" width="100%" xlink:href="#Z"/><use height="100%" transform="matrix(.01577778 0 0 .01577778 61.533333 0)" width="100%" xlink:href="#aa"/><use height="100%" transform="matrix(.01577778 0 0 .01577778 71.788889 0)" width="100%" xlink:href="#ab"/><use height="100%" transform="matrix(.01577778 0 0 .01577778 82.044444 0)" width="100%" xlink:href="#ac"/><use height="100%" transform="matrix(.01577778 0 0 .01577778 92.3 0)" width="100%" xlink:href="#S"/><use height="100%" transform="matrix(.01577778 0 0 .01577778 102.55556 0)" width="100%" xlink:href="#Y"/><use height="100%" transform="matrix(.01577778 0 0 .01577778 112.81111 0)" width="100%" xlink:href="#X"/><use height="100%" transform="matrix(.01577778 0 0 .01577778 123.06667 0)" width="100%" xlink:href="#ad"/><use height="100%" transform="matrix(.01577778 0 0 .01577778 133.32222 0)" width="100%" xlink:href="#T"/><use height="100%" transform="matrix(.01577778 0 0 .01577778 143.57778 0)" width="100%" xlink:href="#ab"/></g><path d="m-2404.95 62.54h120v60h-120z" fill="none"/><g height="100%" transform="translate(-2367.5699 85.082367)" width="100%"><path d="m398-581c6 222 109 364 330 364 220 0 331-140 331-363v-866h269v866c-5 286-141 466-350 552-142 59-358 59-500 0-210-86-349-266-349-552v-866h269z" fill="#333" height="100%" transform="scale(.00888889)" width="100%"/><use height="100%" transform="matrix(.00888889 0 0 .00888889 12.942222 0)" width="100%" xlink:href="#ae"/><path d="m991-153c-92 106-231 168-423 168-331 0-505-212-505-550 0-237 116-392 287-467 61-27 129-40 206-40 287 0 444 174 444 465 0 54-3 95-57 95h-634c4 226 158 349 385 292 52-13 93-39 132-62 32-19 73-16 93 9zm-213-478c-4-143-73-234-217-234-154 0-226 95-247 234z" fill="#333" height="100%" transform="matrix(.00888889 0 0 .00888889 20.711111 0)" width="100%"/><path d="m604-806c-122 5-180 74-225 167v639h-247v-1026c83 11 206-35 218 62l15 124c63-106 147-205 295-205 51 0 93 12 126 35l-32 185c-4 23-15 33-40 33-33 0-65-16-110-14" fill="#333" height="100%" transform="matrix(.00888889 0 0 .00888889 30.213333 0)" width="100%"/><use height="100%" transform="matrix(.00888889 0 0 .00888889 37.475556 0)" width="100%" xlink:href="#ae"/></g><path d="m-2404.95 104.92c0-2.2 1.8-4 4-4h112c2.2 0 4 1.8 4 4v70.08c0 2.2-1.8 4-4 4h-112c-2.2 0-4-1.8-4-4z" fill="#fff" filter="url(#d)" stroke="#999" stroke-opacity=".4" stroke-width="2"/><path d="m-2337.4 143.75c3.7 0 6.84.5 9.4 1.5 2.14.84 3.84 2 5.1 3.45 2.18 2.58 2.18 5.16 2.18 5.26 0 1.88-1.6 3.42-3.58 3.42h-26.18c-1.94 0-3.54-1.54-3.54-3.42v-.07c0-.43.15-2.83 2.18-5.2 1.26-1.46 2.96-2.6 5.04-3.45 2.57-1 5.72-1.5 9.4-1.5zm-19.2 1.5c.5 0 .93.04 1.37.04.68.02 1.2.6 1.16 1.28 0 .66-.63 1.18-1.3 1.15-.4-.04-.78-.04-1.22-.04-9.78 0-10.07 5.74-10.07 6.05 0 .67.58 1.2 1.26 1.2h7.55c.73 0 1.26.55 1.26 1.2 0 .67-.52 1.23-1.25 1.23h-7.56c-2.1 0-3.8-1.64-3.8-3.63v-.07c0-.38.15-2.37 1.7-4.32.93-1.22 2.23-2.16 3.83-2.85 1.94-.83 4.32-1.25 7.08-1.25zm19.2.77c-5.86 0-10.17 1.4-12.5 4-1.7 1.92-1.74 3.87-1.74 3.94 0 .63.53 1.15 1.16 1.15h26.18c.67 0 1.2-.5 1.2-1.14 0-.07-.1-2.02-1.74-3.93-2.32-2.62-6.7-4-12.55-4zm-19.67-15.92c4.17 0 7.56 3.06 7.56 6.82 0 3.77-3.4 6.83-7.57 6.83s-7.56-3.06-7.56-6.83c0-3.76 3.4-6.82 7.56-6.82zm0 2.3c-2.77 0-5.04 2.02-5.04 4.52s2.26 4.53 5.03 4.53c2.76 0 5.04-2.02 5.04-4.53 0-2.5-2.28-4.52-5.04-4.52zm18.95-9.86c5.43 0 9.84 4.07 9.84 9.1 0 5-4.4 9.08-9.84 9.08-5.43 0-9.84-4.07-9.84-9.1 0-5 4.4-9.08 9.84-9.08zm0 2.26c-4.07 0-7.42 3.07-7.42 6.83s3.35 6.83 7.42 6.83 7.37-3.07 7.37-6.83-3.3-6.83-7.37-6.83z" fill="#651fff"/><path d="m-1497.9 149.02c.2.16.3.45.18.7-.6 1.93-1.68 3.75-3 5.3-.18.2-.45.28-.7.18l-3.8-1.34c-.96.76-2 1.37-3.15 1.85l-.75 4c-.06.24-.27.5-.54.52-1 .2-1.98.3-3 .3s-2-.1-3-.3c-.27-.03-.48-.28-.54-.5l-.75-4c-1.14-.5-2.22-1.1-3.15-1.86l-3.8 1.34c-.25.1-.52.03-.7-.2-1.32-1.53-2.4-3.35-3-5.27-.12-.26-.03-.55.18-.7l3.03-2.66c-.1-.58-.14-1.22-.14-1.86 0-.6.03-1.24.15-1.84l-3.02-2.66c-.2-.16-.3-.45-.18-.7.6-1.92 1.68-3.75 3-5.25.18-.23.45-.32.7-.2l3.8 1.35c.93-.8 2-1.4 3.15-1.86l.75-4c.06-.25.27-.5.54-.5 1.98-.42 4.02-.42 6 0 .27 0 .48.25.54.5l.75 4c1.14.45 2.2 1.06 3.15 1.86l3.8-1.34c.25-.13.52-.04.7.2 1.32 1.5 2.4 3.32 3 5.24.12.25.03.54-.18.7l-3.03 2.66c.12.6.15 1.24.15 1.85 0 .65-.03 1.3-.15 1.87l3.03 2.65zm-14.73 5.8c5.64 0 10.23-4.6 10.23-10.3s-4.6-10.3-10.23-10.3c-5.67 0-10.23 4.6-10.23 10.3s4.56 10.3 10.23 10.3zm0-1.28c-4.95 0-8.94-4.04-8.94-9.03 0-4.98 4-9 8.94-9 4.92 0 8.94 4.02 8.94 9 0 5-4 9.04-8.93 9.04zm-5-13.25v2.52h3.74v6.33h2.92v-6.33h3.75v-2.53h-10.4z" fill="#fff"/><path d="m-1509.9 281.5c1.22 0 2.24 1 2.24 2.24v19.5c0 1.24-1.02 2.25-2.25 2.25h-25.5c-1.24 0-2.26-1.02-2.26-2.27v-19.5c0-1.23 1.02-2.24 2.25-2.24h25.5zm0 1.5h-25.5c-.43 0-.76.34-.76.74v19.5c0 .42.33.76.75.76h25.5c.4 0 .74-.34.74-.77v-19.5c0-.4-.33-.73-.75-.73zm-22.1 3.12 4.5 3c.22.14.34.36.34.62 0 .24-.12.48-.33.63l-4.5 3c-.08.05-.2.1-.3.12h-.1c-.25 0-.5-.13-.64-.35-.2-.33-.12-.8.2-1.03l3.58-2.38-3.57-2.37c-.33-.24-.42-.7-.2-1.06.23-.32.68-.42 1.04-.18zm11.6 5.88c.4 0 .74.34.74.74s-.33.75-.75.75h-4.5c-.43 0-.76-.35-.76-.76 0-.4.33-.74.75-.74h4.5z" fill="#fff" fill-opacity=".3"/><path d="m-1572.66 122.5c0-2.22 1.8-4 4-4h212c2.2 0 4 1.78 4 4v43.27c0 2.2-1.8 4-4 4h-212c-2.2 0-4-1.8-4-4z" fill="url(#e)"/><path d="m-1572.66 122.5c0-2.22 1.8-4 4-4h212c2.2 0 4 1.78 4 4v42c0 2.2-1.8 4-4 4h-212c-2.2 0-4-1.8-4-4z" fill="none" stroke="#fff" stroke-opacity=".3" stroke-width="1.5"/><path d="m-1521.27 123c0-2.2 1.8-4 4-4h160.6c2.22 0 4 1.8 4 4v42c0 2.2-1.78 4-4 4h-160.6c-2.2 0-4-1.8-4-4z" fill="none"/><g height="100%" transform="translate(-1495.2745 150.776)" width="100%"><g fill="#fff"><path d="m658-693c-96 114-188 214-293 319 120 100 221 232 309 374h-185c-68-108-155-214-253-293v293h-156v-693h156v262c77-80 164-181 237-262z" height="100%" transform="scale(.018)" width="100%"/><path d="m637-262c-3 182-101 276-286 276-183 0-281-96-281-276v-431h156v418c1 94 35 154 127 154 87 0 128-54 128-154v-418h156z" height="100%" transform="matrix(.018 0 0 .018 12.312 0)" width="100%"/><path d="m627-210c0 166-132 219-316 219-85-1-156-3-231-20v-672c205-29 514-53 513 177 0 55-27 99-80 131 77 27 114 76 114 165zm-158-3c0-105-130-88-237-89v179c101 7 237 15 237-90zm-27-286c0-91-122-76-210-73v151c97-2 210 14 210-78" height="100%" transform="matrix(.018 0 0 .018 25.038 0)" width="100%"/></g><use height="100%" transform="matrix(.018 0 0 .018 37.134 0)" width="100%" xlink:href="#af"/><use height="100%" transform="matrix(.018 0 0 .018 48.042 0)" width="100%" xlink:href="#ag"/><path d="m545 0c-90-159-195-319-311-454v454h-154v-693h127c114 118 220 269 314 409v-409h155v693z" fill="#fff" height="100%" transform="matrix(.018 0 0 .018 60.048 0)" width="100%"/><use height="100%" transform="matrix(.018 0 0 .018 73.656 0)" width="100%" xlink:href="#af"/><use height="100%" transform="matrix(.018 0 0 .018 84.564 0)" width="100%" xlink:href="#ah"/><use height="100%" transform="matrix(.018 0 0 .018 95.616 0)" width="100%" xlink:href="#af"/><path d="m81-163c48 25 108 46 188 44 62-1 111-12 112-72 0-23-11-42-32-57-53-39-186-63-239-114-33-32-63-73-61-139 5-145 106-205 255-208 84-2 154 22 205 48l-45 123c-41-20-85-38-150-38-76 0-124 32-96 95 68 68 209 75 272 145 33 36 48 78 52 146 12 232-336 242-505 151" fill="#fff" height="100%" transform="matrix(.018 0 0 .018 106.524 0)" width="100%"/></g><path d="m-1521.4 129.28c.25 0 .53.03.77.16l9.57 4.62c.47.24.85.64 1.02 1.15l2.36 10.34c.08.54-.06 1.07-.36 1.52l-6.64 8.26c-.33.48-.87.72-1.42.66h-10.53c-.55-.05-1.07-.3-1.45-.66l-6.6-8.26c-.34-.45-.45-.98-.37-1.52l2.36-10.4c.12-.52.48-.92.94-1.16l9.57-4.65c.26-.05.53-.05.8-.05zm-.46 3.66c-.1.13-.2.3-.2.43v.16c0 .13.04.24.1.37.02.05.02.1.02.2.05.33.05.68.05 1.05 0 .08-.04.2-.15.25v.05l-.03.24-1.04.15c-1.45.32-2.8 1.07-3.8 2.14l-.2-.12h-.03c-.03 0-.06.03-.1.03-.1 0-.15-.02-.2-.05-.28-.2-.58-.45-.77-.72l-.14-.1-.24-.3c-.03-.03-.06-.03-.1-.05v-.03c-.15-.08-.32-.16-.45-.16-.2 0-.36.07-.44.2-.18.3-.13.64.12.86.05 0 .05.05.05.05s.06.06.08.06c.1.06.22.1.33.2.1.02.14.05.2.07.3.2.63.38.87.62.06.05.1.13.1.2v.04l.18.17-.08.16c-.96 1.5-1.38 3.3-1.1 5.02l-.25.06c0 .03-.03.03-.03.03-.02.1-.13.16-.22.22-.32.1-.68.16-1.04.18-.07 0-.12 0-.18.03-.14 0-.25.03-.38.03-.03 0-.06.04-.1.04s-.04 0-.1.03c-.3.05-.52.32-.5.6v.1c.1.26.37.45.64.42.06 0 .08 0 .17-.04.02 0 .02 0 .02-.02 0-.03.1 0 .1 0 .15-.03.26-.1.37-.14.06-.02.1-.05.16-.05h.06c.33-.13.63-.2 1-.27h.04c.08 0 .2.03.25.08.03 0 .03.03.03.03l.27-.04c.47 1.42 1.34 2.67 2.55 3.58.27.2.52.4.82.56l-.13.22v.02c.07.1.07.22.04.32-.14.3-.3.6-.5.88v.03c-.02.05-.05.08-.13.16-.05.05-.1.2-.2.3-.04.02-.04.05-.06.1 0 0 0 .03-.03.03-.16.3-.02.67.25.83.06 0 .17.04.22.04.25 0 .47-.16.58-.37 0 0 0-.03.05-.03 0-.03.03-.05.06-.08.03-.14.08-.22.1-.35l.1-.18c.07-.32.24-.64.38-.93.08-.12.16-.17.24-.2.03 0 .03 0 .03-.02l.15-.27c.87.36 1.75.52 2.68.52.58 0 1.13-.08 1.68-.22.36-.08.7-.18 1-.3l.13.22c.03 0 .03 0 .03.06.08.02.2.08.24.16.17.32.3.6.42.96v.02l.05.2.1.34c.07.03.07.05.1.08 0 0 0 .03.02.03.1.2.32.37.57.37.1 0 .16-.03.24-.05.15-.1.26-.2.3-.36s.04-.3-.04-.46c0-.02-.03-.02-.03-.02 0-.03-.03-.08-.05-.1-.06-.12-.14-.22-.22-.3l-.1-.16v-.06c-.23-.3-.4-.58-.53-.88-.03-.1-.03-.2.05-.32 0-.02.03-.02.03-.02l-.1-.24c1.6-.97 2.8-2.44 3.34-4.17l.25.04c.02 0 .02-.03.02-.03.08-.04.16-.1.25-.1h.05c.33.08.66.16 1 .3h.02c.05.02.1.05.2.05.1.05.18.13.32.16.02 0 .05.04.13.04l.05.02c.05.03.08.03.14.03.3 0 .53-.2.62-.44-.03-.32-.28-.58-.55-.64-.03 0-.08 0-.08-.03s-.07-.03-.12-.03c-.1-.03-.17-.03-.25-.03h-.14c-.06 0-.12 0-.17-.05h-.06c-.33-.04-.7-.1-1.04-.17-.08-.03-.14-.1-.2-.16l-.02-.06-.24-.07c.14-.88.06-1.8-.1-2.7-.22-.87-.6-1.73-1.1-2.5l.2-.16v-.06c0-.07.02-.2.07-.25.28-.24.58-.43.88-.62l.2-.08c.1-.08.22-.13.33-.2.03 0 .06 0 .08-.04.07-.04 0-.04 0-.07.3-.2.37-.6.15-.85-.08-.1-.27-.22-.44-.22-.13 0-.3.06-.43.16l-.03.03c-.02.03-.05.05-.08.05-.1.1-.2.2-.24.3-.03.05-.1.08-.14.1-.22.24-.5.5-.77.67-.04.06-.1.08-.18.08-.03 0-.08 0-.1-.02h-.04l-.24.13c-.25-.24-.55-.48-.8-.72-1.12-.88-2.55-1.44-4-1.6l-.03-.24v.02c-.1-.05-.13-.16-.16-.24 0-.35 0-.67.06-1.04v-.03l.03-.17c.02-.14.02-.24.08-.38v-.18c.04-.3-.2-.62-.54-.65-.16-.02-.36.08-.52.22zm.63 13.1c.08.06.14.14.25.22l1.48 2.67-.6.1c-.42.12-.86.17-1.32.17-.66 0-1.34-.13-1.95-.3l1.5-2.72c.17-.18.42-.26.64-.13zm-2.82-1.3c.24 0 .5.14.52.4.02.08.02.22-.03.3l-1.18 2.8c-1.07-.7-1.95-1.76-2.38-3zm5.23-.05 3.1.52c-.16.43-.35.83-.6 1.18-.47.72-1.1 1.36-1.87 1.8l-1.2-2.84c-.05-.27.1-.5.3-.6.1-.02.17-.07.28-.07zm-2.14-2.44.58.72-.22.9-.82.38-.85-.37-.2-.92.58-.72h.94zm4.67-2.2c.36.57.6 1.18.75 1.82.16.65.2 1.3.13 1.93l-2.93-.82c-.27-.05-.44-.32-.38-.62.02-.08.05-.13.13-.2l2.3-2.1zm-10.3 0 2.3 2.04c.22.18.25.48.05.7-.05.1-.1.13-.24.15l-2.98.86c-.1-1.27.22-2.58.88-3.73zm4.4-2.8-.15 3.08c0 .26-.25.48-.52.48-.1 0-.17-.03-.25-.06l-2.58-1.8c.8-.8 1.8-1.32 2.88-1.56l.63-.14zm1.5.03c1.36.15 2.57.74 3.47 1.65l-2.52 1.76c-.22.14-.52.12-.68-.1-.06-.05-.1-.13-.1-.2l-.18-3.1z" fill="#fff"/><g fill="#651fff"><path d="m-1674.95 143.13h83.8v2h-85.8v-39.77h2zm0-59.37h-2v-37.76h-101.3v-2h103.3z"/><path d="m-1778.22 46h-1.03v-2h1.03zm202.32 98.13-14.26 4.63v-9.27z"/><path d="m-1572.66 144.13-18.5 6v-12zm-16.5 3.26 10.03-3.27-10.03-3.26z"/></g><use height="100%" transform="translate(-1763.8514 101.52999)" width="100%" xlink:href="#k"/><use height="100%" transform="translate(-1699.9064 101.52999)" width="100%" xlink:href="#l"/><use height="100%" transform="translate(-1670.5304 101.52999)" width="100%" xlink:href="#m"/><g height="100%" transform="translate(-1625.0444 101.52999)" width="100%"><use height="100%" transform="scale(.009)" width="100%" xlink:href="#n"/><use height="100%" transform="matrix(.009 0 0 .009 5.4 0)" width="100%" xlink:href="#o"/><use height="100%" transform="matrix(.009 0 0 .009 16.11 0)" width="100%" xlink:href="#p"/><use height="100%" transform="matrix(.009 0 0 .009 25.416 0)" width="100%" xlink:href="#q"/><use height="100%" transform="matrix(.009 0 0 .009 35.073 0)" width="100%" xlink:href="#r"/></g><path d="m-1747.63 210.16c0-4.42 3.58-8 8-8h378.97c4.42 0 8 3.58 8 8v43.12c0 4.42-3.58 8-8 8h-378.97c-4.42 0-8-3.58-8-8z" fill="url(#f)"/><path d="m-1734.87 202.16h368.48v47.87h-368.47z" fill="none"/><g height="100%" transform="translate(-1729.8681 221.55027)" width="100%"><use height="100%" transform="scale(.01577778)" width="100%" xlink:href="#ai"/><use height="100%" transform="matrix(.01577778 0 0 .01577778 10.255556 0)" width="100%" xlink:href="#ab"/><use height="100%" transform="matrix(.01577778 0 0 .01577778 20.511111 0)" width="100%" xlink:href="#ac"/><use height="100%" transform="matrix(.01577778 0 0 .01577778 30.766667 0)" width="100%" xlink:href="#Y"/><use height="100%" transform="matrix(.01577778 0 0 .01577778 41.022222 0)" width="100%" xlink:href="#aj"/><use height="100%" transform="matrix(.01577778 0 0 .01577778 51.277778 0)" width="100%" xlink:href="#R"/><use height="100%" transform="matrix(.01577778 0 0 .01577778 61.533333 0)" width="100%" xlink:href="#T"/><use height="100%" transform="matrix(.01577778 0 0 .01577778 71.788889 0)" width="100%" xlink:href="#V"/><use height="100%" transform="matrix(.01577778 0 0 .01577778 82.044444 0)" width="100%" xlink:href="#aa"/><use height="100%" transform="matrix(.01577778 0 0 .01577778 92.3 0)" width="100%" xlink:href="#Q"/><use height="100%" transform="matrix(.01577778 0 0 .01577778 102.55556 0)" width="100%" xlink:href="#Y"/><use height="100%" transform="matrix(.01577778 0 0 .01577778 112.81111 0)" width="100%" xlink:href="#W"/><path d="m581-684v526c0 111-67 158-182 158h-149c-115 0-182-47-182-158v-526h141v499c-9 77 104 54 171 54 45 0 61-17 61-54v-499z" fill="#4cf66e" height="100%" transform="matrix(.01577778 0 0 .01577778 123.06667 0)" width="100%"/><use height="100%" transform="matrix(.01577778 0 0 .01577778 133.32222 0)" width="100%" xlink:href="#R"/><use height="100%" transform="matrix(.01577778 0 0 .01577778 143.57778 0)" width="100%" xlink:href="#Y"/><use height="100%" transform="matrix(.01577778 0 0 .01577778 153.83333 0)" width="100%" xlink:href="#aj"/><use height="100%" transform="matrix(.01577778 0 0 .01577778 164.08889 0)" width="100%" xlink:href="#ak"/></g><g height="100%" transform="translate(-1545.2681 221.55027)" width="100%"><path d="m532-542v624c3 143-126 158-280 158-114 0-181-46-181-154v-65l140-40c3 66-19 134 61 134 58 0 120 7 120-54v-474h-233v-129zm0-91h-145v-129h145z" fill="#4cf66e" height="100%" transform="scale(.01577778)" width="100%"/><use height="100%" transform="matrix(.01577778 0 0 .01577778 10.255556 0)" width="100%" xlink:href="#aa"/><use height="100%" transform="matrix(.01577778 0 0 .01577778 20.511111 0)" width="100%" xlink:href="#V"/><use height="100%" transform="matrix(.01577778 0 0 .01577778 30.766667 0)" width="100%" xlink:href="#Y"/><path d="m632 71-34 99h-422c-101 0-167-48-167-146v-420c0-98 66-146 167-146h304c101 0 160 41 160 139v248c3 100-29 155-148 155-57 0-85-16-99-46h-3c-16 32-62 46-121 46-135 0-92-151-98-268-4-77 38-107 127-107 46 0 71 20 84 43h3l9-40h81v247c0 30 8 38 31 38 22 0 31-8 31-40v-254c0-43-19-62-70-62h-275c-51 0-80 27-80 69v376c0 43 29 69 80 69zm-305-347c-80 0-48 77-53 131-3 38 17 45 53 43 48-2 45-61 45-114 0-31-16-60-45-60" fill="#4cf66e" height="100%" transform="matrix(.01577778 0 0 .01577778 41.022222 0)" width="100%"/><use height="100%" transform="matrix(.01577778 0 0 .01577778 51.277778 0)" width="100%" xlink:href="#Y"/><use height="100%" transform="matrix(.01577778 0 0 .01577778 61.533333 0)" width="100%" xlink:href="#Z"/><use height="100%" transform="matrix(.01577778 0 0 .01577778 71.788889 0)" width="100%" xlink:href="#aa"/><use height="100%" transform="matrix(.01577778 0 0 .01577778 82.044444 0)" width="100%" xlink:href="#ab"/><use height="100%" transform="matrix(.01577778 0 0 .01577778 92.3 0)" width="100%" xlink:href="#ac"/><use height="100%" transform="matrix(.01577778 0 0 .01577778 102.55556 0)" width="100%" xlink:href="#S"/><use height="100%" transform="matrix(.01577778 0 0 .01577778 112.81111 0)" width="100%" xlink:href="#Y"/><use height="100%" transform="matrix(.01577778 0 0 .01577778 123.06667 0)" width="100%" xlink:href="#X"/><use height="100%" transform="matrix(.01577778 0 0 .01577778 133.32222 0)" width="100%" xlink:href="#ad"/><use height="100%" transform="matrix(.01577778 0 0 .01577778 143.57778 0)" width="100%" xlink:href="#T"/><use height="100%" transform="matrix(.01577778 0 0 .01577778 153.83333 0)" width="100%" xlink:href="#ab"/></g><g height="100%" transform="translate(-1729.8681 240.48361)" width="100%"><use height="100%" transform="scale(.01577778)" width="100%" xlink:href="#ai"/><use height="100%" transform="matrix(.01577778 0 0 .01577778 10.255556 0)" width="100%" xlink:href="#ab"/><use height="100%" transform="matrix(.01577778 0 0 .01577778 20.511111 0)" width="100%" xlink:href="#ac"/><use height="100%" transform="matrix(.01577778 0 0 .01577778 30.766667 0)" width="100%" xlink:href="#Y"/><use height="100%" transform="matrix(.01577778 0 0 .01577778 41.022222 0)" width="100%" xlink:href="#aj"/><use height="100%" transform="matrix(.01577778 0 0 .01577778 51.277778 0)" width="100%" xlink:href="#R"/><use height="100%" transform="matrix(.01577778 0 0 .01577778 61.533333 0)" width="100%" xlink:href="#T"/><use height="100%" transform="matrix(.01577778 0 0 .01577778 71.788889 0)" width="100%" xlink:href="#V"/><use height="100%" transform="matrix(.01577778 0 0 .01577778 82.044444 0)" width="100%" xlink:href="#aa"/><use height="100%" transform="matrix(.01577778 0 0 .01577778 92.3 0)" width="100%" xlink:href="#Q"/><use height="100%" transform="matrix(.01577778 0 0 .01577778 102.55556 0)" width="100%" xlink:href="#Y"/><use height="100%" transform="matrix(.01577778 0 0 .01577778 112.81111 0)" width="100%" xlink:href="#W"/><path d="m580-382v224c0 111-67 158-182 158h-146c-116 0-182-47-182-158v-368c0-111 67-158 182-158h153c126-1 183 57 175 187l-141 36c2-57 2-98-61-94-66 4-168-23-168 54v316c-9 79 110 46 177 54 81 9 50-78 56-141h-104v-110z" fill="#4cf66e" height="100%" transform="matrix(.01577778 0 0 .01577778 123.06667 0)" width="100%"/><use height="100%" transform="matrix(.01577778 0 0 .01577778 133.32222 0)" width="100%" xlink:href="#aj"/><use height="100%" transform="matrix(.01577778 0 0 .01577778 143.57778 0)" width="100%" xlink:href="#T"/><path d="m78-542h141v336c-5 73 46 75 117 75 51 0 95-25 95-82v-329h140v542h-140v-46h-3c-23 38-112 46-194 46-100 0-156-51-156-163z" fill="#4cf66e" height="100%" transform="matrix(.01577778 0 0 .01577778 153.83333 0)" width="100%"/><use height="100%" transform="matrix(.01577778 0 0 .01577778 164.08889 0)" width="100%" xlink:href="#ac"/><use height="100%" transform="matrix(.01577778 0 0 .01577778 174.34444 0)" width="100%" xlink:href="#ak"/></g><g height="100%" transform="translate(-1535.0126 240.48361)" width="100%"><use height="100%" transform="scale(.01577778)" width="100%" xlink:href="#aa"/><path d="m411-331c-2-75-66-82-143-82-99 0-63 123-69 207-5 73 46 75 117 75 51 0 95-25 95-82zm0 331v-46h-3c-23 38-112 46-194 46-100 0-156-51-156-163v-216c-1-137 83-163 221-163 66 0 108 21 129 47h3v-189h140v684z" fill="#4cf66e" height="100%" transform="matrix(.01577778 0 0 .01577778 10.255556 0)" width="100%"/><use height="100%" transform="matrix(.01577778 0 0 .01577778 20.511111 0)" width="100%" xlink:href="#ab"/><use height="100%" transform="matrix(.01577778 0 0 .01577778 30.766667 0)" width="100%" xlink:href="#U"/><use height="100%" transform="matrix(.01577778 0 0 .01577778 41.022222 0)" width="100%" xlink:href="#V"/><use height="100%" transform="matrix(.01577778 0 0 .01577778 51.277778 0)" width="100%" xlink:href="#R"/></g><path d="m-2000 24c0-2.2 1.8-4 4-4h212c2.2 0 4 1.8 4 4v42.5c0 2.22-1.8 4-4 4h-212c-2.2 0-4-1.78-4-4z" fill="url(#g)"/><path d="m-1950.65 24.5c0-2.2 1.8-4 4-4h162.65c2.2 0 4 1.8 4 4v42c0 2.22-1.8 4-4 4h-162.65c-2.2 0-4-1.78-4-4z" fill="none"/><g height="100%" transform="translate(-1910.9932 52.2879)" width="100%"><use height="100%" transform="scale(.018)" width="100%" xlink:href="#ah"/><use height="100%" transform="matrix(.018 0 0 .018 11.052 0)" width="100%" xlink:href="#af"/><path d="m543-134v134h-463v-693h156v559z" fill="#fff" height="100%" transform="matrix(.018 0 0 .018 21.96 0)" width="100%"/><use height="100%" transform="matrix(.018 0 0 .018 32.094 0)" width="100%" xlink:href="#af"/><path d="m80-683c58-12 143-18 208-18 190 0 321 53 321 233 0 198-160 242-373 236v232h-156zm368 214c0-104-112-104-212-96v200c112 0 212 3 212-104" fill="#fff" height="100%" transform="matrix(.018 0 0 .018 43.002 0)" width="100%"/><path d="m395-572c-128 0-184 94-184 225s55 224 184 224c128 0 184-93 184-224s-55-225-184-225zm0-137c221 0 345 136 345 362 0 227-122 361-345 361-221 0-345-135-345-361 0-224 126-362 345-362" fill="#fff" height="100%" transform="matrix(.018 0 0 .018 54.594 0)" width="100%"/><use height="100%" transform="matrix(.018 0 0 .018 68.814 0)" width="100%" xlink:href="#ag"/><use height="100%" transform="matrix(.018 0 0 .018 80.64 0)" width="100%" xlink:href="#ah"/></g><path d="m-2000 24c0-2.2 1.8-4 4-4h212c2.2 0 4 1.8 4 4v42c0 2.2-1.8 4-4 4h-212c-2.2 0-4-1.8-4-4z" fill="none" stroke="#fff" stroke-opacity=".3" stroke-width="1.5"/><path d="m-1925.24 50.54c.2.16.3.44.18.7-.6 1.92-1.68 3.74-3 5.28-.18.22-.45.3-.7.2l-3.8-1.35c-.96.77-2 1.37-3.15 1.85l-.76 4c-.06.23-.27.48-.54.52-1 .2-1.98.28-3 .28s-2-.1-3-.28c-.27-.04-.48-.3-.54-.52l-.75-4c-1.13-.48-2.2-1.08-3.14-1.85l-3.8 1.34c-.25.1-.52.04-.7-.18-1.32-1.54-2.4-3.36-3-5.28-.12-.26-.03-.54.18-.7l3.03-2.66c-.12-.58-.15-1.22-.15-1.86 0-.6.03-1.24.15-1.85l-3.03-2.66c-.2-.15-.3-.44-.18-.7.6-1.9 1.68-3.74 3-5.24.18-.22.45-.32.7-.2l3.8 1.35c.93-.8 2-1.4 3.15-1.84l.76-4c.06-.26.27-.52.54-.52 1.98-.4 4.02-.4 6 0 .27 0 .48.26.54.52l.75 4c1.13.44 2.18 1.05 3.14 1.85l3.8-1.33c.25-.13.52-.03.7.2 1.32 1.5 2.4 3.32 3 5.24.12.26.03.55-.18.7l-3.03 2.67c.12.6.15 1.25.15 1.85 0 .64-.03 1.28-.15 1.86l3.03 2.66zm-14.73 5.8c5.64 0 10.23-4.62 10.23-10.32s-4.6-10.3-10.23-10.3c-5.67 0-10.23 4.6-10.23 10.3s4.56 10.3 10.23 10.3zm0-1.3c-4.95 0-8.94-4.02-8.94-9.02s3.98-9.02 8.93-9.02c4.92 0 8.94 4.03 8.94 9.02 0 5-4.02 9.03-8.94 9.03zm-5-13.24v2.53h3.74v6.33h2.9v-6.33h3.76v-2.53z" fill="#fff"/><g filter="url(#h)"><path d="m-1747.63 283.04c0-2.2 1.8-4 4-4h386.97c2.2 0 4 1.8 4 4v152c0 2.2-1.8 4-4 4h-386.97c-2.2 0-4-1.8-4-4z" fill="#fff" stroke="#651fff" stroke-width="2"/><g height="100%" transform="translate(-1742.6328 304.94946)" width="100%"><use height="100%" transform="scale(.01059118)" width="100%" xlink:href="#J"/><use height="100%" transform="matrix(.01059118 0 0 .01059118 10.273448 0)" width="100%" xlink:href="#t"/><use height="100%" transform="matrix(.01059118 0 0 .01059118 21.373009 0)" width="100%" xlink:href="#B"/><use height="100%" transform="matrix(.01059118 0 0 .01059118 26.795695 0)" width="100%" xlink:href="#t"/><use height="100%" transform="matrix(.01059118 0 0 .01059118 37.895256 0)" width="100%" xlink:href="#K"/><use height="100%" transform="matrix(.01059118 0 0 .01059118 49.587923 0)" width="100%" xlink:href="#z"/><use height="100%" transform="matrix(.01059118 0 0 .01059118 61.365319 0)" width="100%" xlink:href="#u"/><use height="100%" transform="matrix(.01059118 0 0 .01059118 69.901813 0)" width="100%" xlink:href="#A"/></g><g height="100%" transform="translate(-1660.7418 304.94946)" width="100%"><use height="100%" transform="scale(.01059118)" width="100%" xlink:href="#u"/><use height="100%" transform="matrix(.01059118 0 0 .01059118 8.536494 0)" width="100%" xlink:href="#t"/><use height="100%" transform="matrix(.01059118 0 0 .01059118 19.636055 0)" width="100%" xlink:href="#v"/><use height="100%" transform="matrix(.01059118 0 0 .01059118 29.52822 0)" width="100%" xlink:href="#z"/><use height="100%" transform="matrix(.01059118 0 0 .01059118 41.305617 0)" width="100%" xlink:href="#u"/><use height="100%" transform="matrix(.01059118 0 0 .01059118 49.842111 0)" width="100%" xlink:href="#C"/><use height="100%" transform="matrix(.01059118 0 0 .01059118 61.683055 0)" width="100%" xlink:href="#s"/></g><g height="100%" transform="translate(-1585.7774 304.94946)" width="100%"><use height="100%" transform="scale(.01059118)" width="100%" xlink:href="#F"/><use height="100%" transform="matrix(.01059118 0 0 .01059118 10.73946 0)" width="100%" xlink:href="#G"/><use height="100%" transform="matrix(.01059118 0 0 .01059118 22.516857 0)" width="100%" xlink:href="#C"/></g><g height="100%" transform="translate(-1547.3314 304.94946)" width="100%"><use height="100%" transform="scale(.01059118)" width="100%" xlink:href="#E"/><use height="100%" transform="matrix(.01059118 0 0 .01059118 7.138458 0)" width="100%" xlink:href="#z"/><use height="100%" transform="matrix(.01059118 0 0 .01059118 18.915854 0)" width="100%" xlink:href="#u"/><path d="m14-1013c70 8 177-25 195 37l194 652c10 46 20 89 27 137 77-272 174-527 253-793 13-44 73-34 126-35 27-1 44 16 51 35 81 265 173 518 245 792 7-44 18-96 30-136l198-652c15-59 118-30 186-37l-328 1013h-141c-17 0-29-11-36-34-79-245-162-486-237-734-5-15-7-31-10-46-7 32-12 65-23 94l-227 686c-16 60-112 24-175 34" height="100%" transform="matrix(.01059118 0 0 .01059118 27.452348 0)" width="100%"/><use height="100%" transform="matrix(.01059118 0 0 .01059118 43.678042 0)" width="100%" xlink:href="#F"/><use height="100%" transform="matrix(.01059118 0 0 .01059118 54.417502 0)" width="100%" xlink:href="#u"/><use height="100%" transform="matrix(.01059118 0 0 .01059118 62.953997 0)" width="100%" xlink:href="#C"/><use height="100%" transform="matrix(.01059118 0 0 .01059118 74.79494 0)" width="100%" xlink:href="#s"/></g><g height="100%" transform="translate(-1459.2551 304.94946)" width="100%"><use height="100%" transform="scale(.01059118)" width="100%" xlink:href="#t"/><use height="100%" transform="matrix(.01059118 0 0 .01059118 10.82419 0)" width="100%" xlink:href="#x"/><use height="100%" transform="matrix(.01059118 0 0 .01059118 21.394191 0)" width="100%" xlink:href="#t"/><use height="100%" transform="matrix(.01059118 0 0 .01059118 32.493752 0)" width="100%" xlink:href="#u"/><use height="100%" transform="matrix(.01059118 0 0 .01059118 41.030246 0)" width="100%" xlink:href="#H"/></g><g height="100%" transform="translate(-1742.6328 330.3683)" width="100%"><use height="100%" transform="scale(.01059118)" width="100%" xlink:href="#u"/><use height="100%" transform="matrix(.01059118 0 0 .01059118 8.536494 0)" width="100%" xlink:href="#t"/><path d="m510-1031c142 0 220 55 289 134 10-46 3-116 60-116h106v1356h-178v-493c-79 88-176 164-332 164-282 0-383-223-383-517 0-237 94-406 254-487 54-27 115-41 184-41zm-254 528c2 212 53 373 258 373 136 0 207-69 273-153v-490c-56-74-122-119-237-119-208 0-296 164-294 389" height="100%" transform="matrix(.01059118 0 0 .01059118 19.636055 0)" width="100%"/><use height="100%" transform="matrix(.01059118 0 0 .01059118 31.476998 0)" width="100%" xlink:href="#L"/><use height="100%" transform="matrix(.01059118 0 0 .01059118 43.254395 0)" width="100%" xlink:href="#t"/><use height="100%" transform="matrix(.01059118 0 0 .01059118 54.353955 0)" width="100%" xlink:href="#s"/><use height="100%" transform="matrix(.01059118 0 0 .01059118 63.547103 0)" width="100%" xlink:href="#A"/><path d="m223 0c-84 2-129-45-129-123 0-70 47-112 118-113 165-3 132 231 74 332-37 65-83 128-140 175-20-19-63-49-29-84 46-47 91-108 106-187" height="100%" transform="matrix(.01059118 0 0 .01059118 71.448126 0)" width="100%"/></g><g height="100%" transform="translate(-1658.5176 330.3683)" width="100%"><use height="100%" transform="scale(.01059118)" width="100%" xlink:href="#w"/><use height="100%" transform="matrix(.01059118 0 0 .01059118 5.422686 0)" width="100%" xlink:href="#O"/><use height="100%" transform="matrix(.01059118 0 0 .01059118 22.81341 0)" width="100%" xlink:href="#K"/><use height="100%" transform="matrix(.01059118 0 0 .01059118 34.506077 0)" width="100%" xlink:href="#t"/><use height="100%" transform="matrix(.01059118 0 0 .01059118 45.605637 0)" width="100%" xlink:href="#u"/><use height="100%" transform="matrix(.01059118 0 0 .01059118 54.142132 0)" width="100%" xlink:href="#s"/><use height="100%" transform="matrix(.01059118 0 0 .01059118 63.335279 0)" width="100%" xlink:href="#z"/><use height="100%" transform="matrix(.01059118 0 0 .01059118 75.112676 0)" width="100%" xlink:href="#G"/><use height="100%" transform="matrix(.01059118 0 0 .01059118 86.890072 0)" width="100%" xlink:href="#F"/><use height="100%" transform="matrix(.01059118 0 0 .01059118 97.629532 0)" width="100%" xlink:href="#A"/><use height="100%" transform="matrix(.01059118 0 0 .01059118 105.53056 0)" width="100%" xlink:href="#t"/><use height="100%" transform="matrix(.01059118 0 0 .01059118 116.63012 0)" width="100%" xlink:href="#s"/></g><use height="100%" transform="translate(-1528.6062 330.3683)" width="100%" xlink:href="#al"/><g height="100%" transform="translate(-1513.7785 330.3683)" width="100%"><use height="100%" transform="scale(.01059118)" width="100%" xlink:href="#L"/><use height="100%" transform="matrix(.01059118 0 0 .01059118 11.777396 0)" width="100%" xlink:href="#s"/><use height="100%" transform="matrix(.01059118 0 0 .01059118 20.970544 0)" width="100%" xlink:href="#t"/><use height="100%" transform="matrix(.01059118 0 0 .01059118 32.070105 0)" width="100%" xlink:href="#u"/></g><g height="100%" transform="translate(-1469.0837 330.3683)" width="100%"><use height="100%" transform="scale(.01059118)" width="100%" xlink:href="#F"/><use height="100%" transform="matrix(.01059118 0 0 .01059118 10.73946 0)" width="100%" xlink:href="#G"/><use height="100%" transform="matrix(.01059118 0 0 .01059118 22.516857 0)" width="100%" xlink:href="#C"/></g><use height="100%" transform="translate(-1742.6328 355.78714)" width="100%" xlink:href="#P"/><g height="100%" transform="translate(-1633.12 355.78714)" width="100%"><use height="100%" transform="scale(.01059118)" width="100%" xlink:href="#I"/><use height="100%" transform="matrix(.01059118 0 0 .01059118 10.82419 0)" width="100%" xlink:href="#u"/><use height="100%" transform="matrix(.01059118 0 0 .01059118 19.360684 0)" width="100%" xlink:href="#z"/><use height="100%" transform="matrix(.01059118 0 0 .01059118 31.13808 0)" width="100%" xlink:href="#L"/><use height="100%" transform="matrix(.01059118 0 0 .01059118 42.915477 0)" width="100%" xlink:href="#K"/><use height="100%" transform="matrix(.01059118 0 0 .01059118 54.608144 0)" width="100%" xlink:href="#s"/></g></g><path d="m-2196.56 456.8h675.3v99.03h-675.3z" fill="none"/><g height="100%" transform="translate(-2134.7074 520.91283)" width="100%"><path d="m1165-1446v221h-435v1225h-269v-1225h-437v-221z" fill="#651f9b" height="100%" transform="scale(.0185471)" width="100%"/><use height="100%" transform="matrix(.0185471 0 0 .0185471 18.287443 0)" width="100%" xlink:href="#am"/><path d="m395-1486v1486h-247v-1486z" fill="#651f9b" height="100%" transform="matrix(.0185471 0 0 .0185471 38.114296 0)" width="100%"/><use height="100%" transform="matrix(.0185471 0 0 .0185471 48.166826 0)" width="100%" xlink:href="#am"/><path d="m635 15c-121 0-193-40-256-100v420h-247v-1361c64 5 145-11 192 11 33 24 28 86 42 129 78-86 174-159 331-159 277 0 379 232 379 524 0 241-96 412-258 495-54 27-116 41-183 41zm186-536c0-181-37-329-209-329-117 0-175 55-233 124v460c48 60 104 93 198 93 188 0 244-152 244-348" fill="#651f9b" height="100%" transform="matrix(.0185471 0 0 .0185471 67.993679 0)" width="100%"/><path d="m361-1005c121-49 297-49 417 0 184 74 298 236 298 490 0 330-178 530-506 530-329 0-509-200-509-530 0-254 115-416 300-490zm-45 492c0 201 65 338 254 338 188 0 251-137 251-338s-63-340-251-340c-189 0-254 139-254 340" fill="#651f9b" height="100%" transform="matrix(.0185471 0 0 .0185471 88.970452 0)" width="100%"/><use height="100%" transform="matrix(.0185471 0 0 .0185471 110.05851 0)" width="100%" xlink:href="#an"/><use height="100%" transform="matrix(.0185471 0 0 .0185471 125.21149 0)" width="100%" xlink:href="#ao"/></g><g height="100%" transform="translate(-1987.9813 520.91283)" width="100%"><path d="m424-840c74 2 135-1 169-44l399-505c32-39 58-57 122-57h232l-487 601c-28 33-52 59-89 78 50 19 80 49 111 90l502 677h-238c-63 0-84-18-111-53l-409-534c-28-35-53-49-116-49h-85v636h-269v-1447h269z" fill="#651f9b" height="100%" transform="scale(.0185471)" width="100%"/><use height="100%" transform="matrix(.0185471 0 0 .0185471 25.891756 0)" width="100%" xlink:href="#ap"/><path d="m638 15c-134 0-208-58-269-132-10 52-5 117-71 117h-163v-1486h247v586c77-79 169-142 318-142 277 0 379 230 379 521 0 241-97 412-259 495-54 27-115 41-182 41zm186-536c0-181-37-329-209-329-117 0-175 55-233 124v460c48 61 104 93 199 93 187 0 243-152 243-348" fill="#651f9b" height="100%" transform="matrix(.0185471 0 0 .0185471 46.979812 0)" width="100%"/><use height="100%" transform="matrix(.0185471 0 0 .0185471 68.123509 0)" width="100%" xlink:href="#am"/><use height="100%" transform="matrix(.0185471 0 0 .0185471 87.950362 0)" width="100%" xlink:href="#an"/><path d="m605-850c-102 1-168 52-226 108v742h-247v-1026c80 9 198-29 214 45l17 81c77-76 165-142 317-142 235 0 346 154 346 389v653h-247v-653c0-121-55-198-174-197" fill="#651f9b" height="100%" transform="matrix(.0185471 0 0 .0185471 103.10334 0)" width="100%"/><use height="100%" transform="matrix(.0185471 0 0 .0185471 124.1914 0)" width="100%" xlink:href="#am"/><use height="100%" transform="matrix(.0185471 0 0 .0185471 144.01825 0)" width="100%" xlink:href="#ao"/><use height="100%" transform="matrix(.0185471 0 0 .0185471 158.37371 0)" width="100%" xlink:href="#am"/><use height="100%" transform="matrix(.0185471 0 0 .0185471 178.20056 0)" width="100%" xlink:href="#aq"/></g><g height="100%" transform="translate(-1786.4114 520.91283)" width="100%"><use height="100%" transform="scale(.0185471)" width="100%" xlink:href="#ar"/><use height="100%" transform="matrix(.0185471 0 0 .0185471 26.336886 0)" width="100%" xlink:href="#as"/><use height="100%" transform="matrix(.0185471 0 0 .0185471 44.030822 0)" width="100%" xlink:href="#as"/><use height="100%" transform="matrix(.0185471 0 0 .0185471 61.724758 0)" width="100%" xlink:href="#am"/><use height="100%" transform="matrix(.0185471 0 0 .0185471 81.551611 0)" width="100%" xlink:href="#aq"/><use height="100%" transform="matrix(.0185471 0 0 .0185471 97.761779 0)" width="100%" xlink:href="#aq"/></g><g height="100%" transform="translate(-1665.2802 520.91283)" width="100%"><use height="100%" transform="scale(.0185471)" width="100%" xlink:href="#ar"/><use height="100%" transform="matrix(.0185471 0 0 .0185471 26.336886 0)" width="100%" xlink:href="#ap"/><use height="100%" transform="matrix(.0185471 0 0 .0185471 47.424942 0)" width="100%" xlink:href="#ao"/><path d="m605-850c-102 1-168 52-226 108v742h-247v-1486h247v571c76-69 161-129 301-127 234 4 346 154 346 389v653h-247v-653c0-121-55-198-174-197" fill="#651f9b" height="100%" transform="matrix(.0185471 0 0 .0185471 61.7804 0)" width="100%"/></g></g></svg>