<?xml version="1.0" encoding="utf-8"?>
<svg version="1.1" id="Layer_1" xmlns="http://www.w3.org/2000/svg" xmlns:xlink="http://www.w3.org/1999/xlink" x="0px" y="0px"
	  viewBox="0 0 350 114" enable-background="new 0 0 350 114" xml:space="preserve">
<g id="Layer_2">
	<g>
		<g>
			<path d="M57.671,28.444c-7.396,0-14.102,3.008-18.96,7.866c-4.857,4.857-7.866,11.563-7.866,18.96
				c0,7.396,3.008,14.101,7.866,18.958s11.564,7.865,18.96,7.865s14.102-3.008,18.959-7.865s7.865-11.562,7.865-18.958
				s-3.008-14.104-7.865-18.96C71.772,31.452,65.067,28.444,57.671,28.444z M69.058,47.954h-8.214v23.18H54.5v-23.18h-8.215v-5.612
				h22.773V47.954L69.058,47.954z"/>
		</g>
		<g>
			<path d="M102.783,70.357c-0.099-0.371-0.321-0.709-0.647-0.942l-4.562-3.958L93.012,61.5
				c0.163-0.887,0.268-1.805,0.331-2.736c0.064-0.931,0.087-1.874,0.087-2.805c0-0.933-0.022-1.875-0.087-2.807
				c-0.063-0.932-0.168-1.851-0.331-2.736l4.562-3.957l4.562-3.958c0.326-0.233,0.549-0.57,0.647-0.942
				c0.099-0.373,0.075-0.779-0.088-1.153c-0.932-2.862-2.2-5.656-3.731-8.299c-1.531-2.642-3.322-5.133-5.302-7.391
				c-0.279-0.326-0.617-0.548-0.978-0.646c-0.36-0.099-0.745-0.075-1.117,0.087l-5.751,2.002l-5.749,2.001
				c-1.42-1.164-2.934-2.211-4.522-3.137c-1.59-0.925-3.254-1.728-4.978-2.404l-1.14-5.959l-1.141-5.959
				c-0.069-0.373-0.268-0.733-0.547-1.013c-0.279-0.28-0.641-0.478-1.037-0.524c-2.98-0.605-6.007-0.908-9.033-0.908
				s-6.053,0.302-9.033,0.908C48.24,9.21,47.88,9.409,47.6,9.688c-0.279,0.279-0.478,0.64-0.547,1.013l-1.141,5.959l-1.141,5.96
				c-1.723,0.676-3.411,1.479-5.012,2.404c-1.6,0.925-3.113,1.973-4.487,3.137l-5.75-2.001l-5.75-2.002
				c-0.372-0.164-0.756-0.187-1.117-0.088c-0.361,0.1-0.699,0.32-0.978,0.646c-1.979,2.259-3.771,4.75-5.302,7.392
				c-1.53,2.642-2.799,5.437-3.73,8.299c-0.163,0.373-0.187,0.781-0.087,1.152c0.099,0.372,0.32,0.71,0.646,0.943l4.563,3.957
				l4.562,3.958c-0.163,0.885-0.268,1.804-0.331,2.735c-0.064,0.932-0.088,1.875-0.088,2.806s0.023,1.875,0.087,2.806
				c0.064,0.932,0.168,1.851,0.332,2.735l-4.562,3.957l-4.562,3.959c-0.325,0.231-0.547,0.569-0.646,0.942
				c-0.099,0.371-0.076,0.779,0.087,1.15c0.931,2.865,2.2,5.658,3.73,8.301c1.531,2.643,3.323,5.133,5.302,7.392
				c0.28,0.325,0.618,0.548,0.978,0.646c0.361,0.1,0.745,0.075,1.118-0.088l5.75-2.003l5.75-2.001
				c1.373,1.164,2.886,2.213,4.487,3.139c1.601,0.924,3.289,1.728,5.011,2.401l1.141,5.962l1.141,5.959
				c0.07,0.372,0.268,0.733,0.547,1.014c0.279,0.279,0.641,0.479,1.036,0.522c1.49,0.278,2.979,0.501,4.481,0.651
				c1.501,0.152,3.015,0.232,4.552,0.232s3.049-0.08,4.551-0.232c1.502-0.15,2.991-0.373,4.48-0.651
				c0.396-0.045,0.757-0.244,1.037-0.522c0.28-0.279,0.477-0.642,0.547-1.014l1.141-5.959l1.141-5.962
				c1.723-0.675,3.387-1.478,4.977-2.401c1.588-0.926,3.103-1.975,4.522-3.139l5.75,2.001l5.75,2.003
				c0.373,0.163,0.757,0.186,1.118,0.088c0.36-0.099,0.698-0.32,0.978-0.646c1.979-2.259,3.771-4.749,5.302-7.392
				c1.531-2.643,2.8-5.437,3.731-8.301C102.859,71.139,102.883,70.729,102.783,70.357z M78.545,76.145
				c-5.348,5.349-12.732,8.66-20.875,8.66c-8.144,0-15.527-3.312-20.875-8.66s-8.66-12.731-8.66-20.875
				c0-8.144,3.312-15.527,8.661-20.876c5.348-5.348,12.732-8.661,20.876-8.661c8.143,0,15.526,3.312,20.875,8.661
				c5.348,5.349,8.661,12.732,8.661,20.876C87.207,63.412,83.894,70.796,78.545,76.145z"/>
		</g>
	</g>
</g>
<g enable-background="new    ">
	<path d="M122.773,27.361h-13.02v-6.841h33.6v6.841h-13.02v35.64h-7.56V27.361z"/>
	<path d="M146.953,51.121c0.24,2.16,1.08,3.84,2.52,5.04s3.18,1.8,5.22,1.8c1.8,0,3.309-0.369,4.53-1.11
		c1.22-0.739,2.29-1.669,3.21-2.79l5.16,3.9c-1.68,2.08-3.561,3.561-5.64,4.44c-2.08,0.879-4.26,1.319-6.54,1.319
		c-2.16,0-4.2-0.359-6.12-1.08c-1.92-0.72-3.581-1.739-4.98-3.06c-1.401-1.32-2.511-2.91-3.33-4.771
		c-0.82-1.859-1.23-3.93-1.23-6.21c0-2.279,0.41-4.35,1.23-6.21c0.819-1.859,1.929-3.449,3.33-4.77c1.399-1.32,3.06-2.34,4.98-3.061
		c1.92-0.72,3.96-1.079,6.12-1.079c2,0,3.83,0.351,5.49,1.05c1.659,0.7,3.08,1.71,4.26,3.029c1.18,1.32,2.1,2.951,2.76,4.891
		c0.66,1.94,0.99,4.17,0.99,6.689v1.98H146.953z M161.713,45.721c-0.041-2.119-0.7-3.789-1.98-5.01c-1.281-1.22-3.06-1.83-5.34-1.83
		c-2.16,0-3.87,0.621-5.13,1.86c-1.26,1.24-2.031,2.9-2.31,4.979H161.713z"/>
	<path d="M175.753,17.641h7.2v45.36h-7.2V17.641z"/>
	<path d="M196.992,51.121c0.24,2.16,1.08,3.84,2.52,5.04c1.44,1.2,3.181,1.8,5.221,1.8c1.8,0,3.309-0.369,4.529-1.11
		c1.221-0.739,2.29-1.669,3.211-2.79l5.16,3.9c-1.681,2.08-3.561,3.561-5.641,4.44c-2.08,0.879-4.26,1.319-6.54,1.319
		c-2.159,0-4.2-0.359-6.12-1.08c-1.92-0.72-3.58-1.739-4.979-3.06c-1.401-1.32-2.511-2.91-3.33-4.771
		c-0.82-1.859-1.229-3.93-1.229-6.21c0-2.279,0.409-4.35,1.229-6.21c0.819-1.859,1.929-3.449,3.33-4.77
		c1.399-1.32,3.06-2.34,4.979-3.061c1.92-0.72,3.961-1.079,6.12-1.079c2,0,3.83,0.351,5.49,1.05c1.659,0.7,3.079,1.71,4.26,3.029
		c1.18,1.32,2.101,2.951,2.761,4.891c0.66,1.94,0.989,4.17,0.989,6.689v1.98H196.992z M211.752,45.721
		c-0.04-2.119-0.699-3.789-1.979-5.01c-1.28-1.22-3.06-1.83-5.341-1.83c-2.159,0-3.869,0.621-5.129,1.86
		c-1.26,1.24-2.031,2.9-2.311,4.979H211.752z"/>
	<path d="M225.672,34.201h6.84v4.319h0.12c1.04-1.759,2.439-3.039,4.2-3.84c1.76-0.8,3.66-1.199,5.699-1.199
		c2.199,0,4.18,0.39,5.94,1.17c1.76,0.779,3.26,1.851,4.5,3.21c1.239,1.36,2.18,2.96,2.82,4.8c0.64,1.84,0.96,3.82,0.96,5.939
		c0,2.121-0.34,4.101-1.02,5.94c-0.682,1.84-1.631,3.44-2.851,4.8c-1.221,1.36-2.69,2.43-4.41,3.21s-3.601,1.17-5.64,1.17
		c-1.36,0-2.561-0.141-3.6-0.42c-1.041-0.28-1.961-0.64-2.761-1.08c-0.8-0.439-1.479-0.909-2.04-1.41
		c-0.561-0.499-1.02-0.989-1.38-1.47h-0.181v17.34h-7.199V34.201z M249.552,48.601c0-1.119-0.19-2.199-0.569-3.239
		c-0.381-1.04-0.941-1.96-1.681-2.761c-0.741-0.799-1.63-1.439-2.67-1.92c-1.04-0.479-2.22-0.72-3.54-0.72s-2.5,0.24-3.54,0.72
		c-1.04,0.48-1.931,1.121-2.67,1.92c-0.741,0.801-1.3,1.721-1.681,2.761c-0.38,1.04-0.569,2.12-0.569,3.239
		c0,1.121,0.189,2.201,0.569,3.24c0.381,1.041,0.939,1.961,1.681,2.76c0.739,0.801,1.63,1.44,2.67,1.92
		c1.04,0.48,2.22,0.721,3.54,0.721s2.5-0.24,3.54-0.721c1.04-0.479,1.929-1.119,2.67-1.92c0.739-0.799,1.3-1.719,1.681-2.76
		C249.361,50.802,249.552,49.722,249.552,48.601z"/>
	<path d="M262.031,48.601c0-2.279,0.41-4.35,1.23-6.21c0.818-1.859,1.929-3.449,3.33-4.77
		c1.398-1.32,3.059-2.34,4.979-3.061c1.92-0.72,3.96-1.079,6.12-1.079s4.199,0.359,6.119,1.079c1.92,0.721,3.58,1.74,4.98,3.061
		s2.51,2.91,3.33,4.77c0.82,1.86,1.23,3.931,1.23,6.21c0,2.28-0.41,4.351-1.23,6.21c-0.82,1.86-1.93,3.45-3.33,4.771
		s-3.061,2.34-4.98,3.06c-1.92,0.721-3.959,1.08-6.119,1.08s-4.2-0.359-6.12-1.08c-1.921-0.72-3.581-1.739-4.979-3.06
		c-1.401-1.32-2.512-2.91-3.33-4.771C262.441,52.951,262.031,50.881,262.031,48.601z M269.23,48.601c0,1.121,0.189,2.201,0.57,3.24
		c0.38,1.041,0.939,1.961,1.68,2.76c0.74,0.801,1.63,1.44,2.67,1.92c1.041,0.48,2.221,0.721,3.541,0.721s2.499-0.24,3.539-0.721
		c1.041-0.479,1.93-1.119,2.67-1.92c0.74-0.799,1.301-1.719,1.682-2.76c0.379-1.039,0.568-2.119,0.568-3.24
		c0-1.119-0.189-2.199-0.568-3.239c-0.381-1.04-0.941-1.96-1.682-2.761c-0.74-0.799-1.629-1.439-2.67-1.92
		c-1.04-0.479-2.219-0.72-3.539-0.72s-2.5,0.24-3.541,0.72c-1.04,0.48-1.93,1.121-2.67,1.92c-0.74,0.801-1.3,1.721-1.68,2.761
		C269.42,46.401,269.23,47.481,269.23,48.601z"/>
	<path d="M300.07,34.201h7.201v4.56h0.119c0.799-1.68,1.939-2.979,3.42-3.899s3.18-1.38,5.1-1.38
		c0.439,0,0.871,0.04,1.291,0.119c0.42,0.081,0.85,0.181,1.289,0.301v6.96c-0.6-0.16-1.189-0.29-1.77-0.391
		c-0.58-0.099-1.15-0.149-1.711-0.149c-1.68,0-3.029,0.31-4.049,0.93c-1.02,0.621-1.801,1.33-2.34,2.13
		c-0.541,0.801-0.9,1.601-1.08,2.4c-0.18,0.801-0.27,1.4-0.27,1.8v15.42h-7.201V34.201z"/>
	<path d="M320.049,40.321v-6.12h5.941v-8.34h7.199v8.34h7.92v6.12h-7.92v12.6c0,1.44,0.27,2.58,0.811,3.42
		c0.539,0.84,1.609,1.26,3.209,1.26c0.641,0,1.34-0.069,2.102-0.21c0.758-0.14,1.359-0.369,1.799-0.689v6.06
		c-0.76,0.36-1.689,0.609-2.789,0.75c-1.102,0.14-2.07,0.21-2.91,0.21c-1.92,0-3.49-0.21-4.711-0.63s-2.18-1.06-2.879-1.92
		c-0.701-0.859-1.182-1.93-1.441-3.21c-0.26-1.279-0.389-2.76-0.389-4.44V40.321H320.049z"/>
</g>
<g enable-background="new    ">
	<path d="M117.694,83.796h3.588c0.346,0,0.689,0.041,1.027,0.124c0.338,0.082,0.639,0.217,0.903,0.402
		c0.264,0.187,0.479,0.427,0.644,0.722s0.247,0.65,0.247,1.066c0,0.52-0.147,0.948-0.442,1.287c-0.295,0.338-0.681,0.58-1.157,0.728
		v0.026c0.286,0.034,0.553,0.114,0.8,0.24c0.247,0.126,0.457,0.286,0.63,0.48c0.173,0.195,0.31,0.421,0.409,0.677
		s0.15,0.53,0.15,0.825c0,0.503-0.1,0.921-0.299,1.255c-0.199,0.333-0.461,0.603-0.786,0.806c-0.325,0.204-0.698,0.349-1.118,0.436
		S121.442,93,121.009,93h-3.315V83.796z M119.332,87.54h1.495c0.546,0,0.956-0.106,1.229-0.318c0.273-0.213,0.409-0.492,0.409-0.839
		c0-0.398-0.141-0.695-0.422-0.891c-0.282-0.194-0.734-0.292-1.358-0.292h-1.352V87.54z M119.332,91.596h1.508
		c0.208,0,0.431-0.013,0.669-0.039c0.238-0.025,0.457-0.086,0.657-0.182c0.199-0.096,0.364-0.231,0.494-0.409
		c0.13-0.178,0.195-0.418,0.195-0.722c0-0.485-0.158-0.823-0.475-1.014c-0.316-0.191-0.808-0.286-1.476-0.286h-1.573V91.596z"/>
	<path d="M129.355,89.061l-3.458-5.265h2.054l2.262,3.666l2.288-3.666h1.95l-3.458,5.265V93h-1.638V89.061z"/>
	<path d="M149.297,92.324c-1.136,0.606-2.405,0.91-3.809,0.91c-0.711,0-1.363-0.115-1.957-0.345
		s-1.105-0.555-1.534-0.976c-0.429-0.42-0.765-0.925-1.007-1.514c-0.243-0.59-0.364-1.244-0.364-1.964
		c0-0.736,0.121-1.405,0.364-2.008s0.579-1.116,1.007-1.541c0.429-0.424,0.94-0.751,1.534-0.981
		c0.594-0.229,1.246-0.345,1.957-0.345c0.702,0,1.36,0.085,1.976,0.254c0.615,0.169,1.166,0.471,1.651,0.903l-1.209,1.223
		c-0.295-0.286-0.652-0.508-1.072-0.663c-0.421-0.156-0.865-0.234-1.333-0.234c-0.477,0-0.908,0.085-1.294,0.254
		c-0.385,0.169-0.717,0.402-0.994,0.701c-0.277,0.3-0.492,0.648-0.644,1.047c-0.152,0.398-0.228,0.828-0.228,1.287
		c0,0.494,0.076,0.949,0.228,1.365c0.151,0.416,0.366,0.775,0.644,1.079c0.277,0.303,0.609,0.541,0.994,0.715
		c0.386,0.173,0.817,0.26,1.294,0.26c0.416,0,0.808-0.039,1.176-0.117c0.368-0.078,0.695-0.199,0.981-0.363V89.1h-1.885v-1.481
		h3.523V92.324z"/>
	<path d="M152.222,83.796h3.198c0.442,0,0.869,0.041,1.28,0.124c0.412,0.082,0.778,0.223,1.099,0.422
		c0.32,0.199,0.576,0.468,0.767,0.807c0.19,0.338,0.286,0.767,0.286,1.286c0,0.668-0.185,1.227-0.553,1.678
		c-0.369,0.45-0.895,0.724-1.58,0.818L159.164,93h-1.976l-2.132-3.9h-1.196V93h-1.638V83.796z M155.134,87.696
		c0.234,0,0.468-0.011,0.702-0.033c0.234-0.021,0.448-0.073,0.644-0.155c0.195-0.083,0.353-0.208,0.474-0.377
		c0.122-0.169,0.182-0.405,0.182-0.709c0-0.269-0.056-0.485-0.169-0.649c-0.113-0.165-0.26-0.288-0.442-0.371
		c-0.182-0.082-0.384-0.137-0.604-0.162c-0.221-0.026-0.436-0.039-0.644-0.039h-1.417v2.496H155.134z"/>
	<path d="M164.376,83.796h1.417L169.759,93h-1.872l-0.858-2.106h-3.991L162.206,93h-1.833L164.376,83.796z
		 M166.457,89.49l-1.417-3.744l-1.443,3.744H166.457z"/>
	<path d="M169.901,83.796h1.885l2.509,6.955l2.587-6.955h1.768L174.933,93h-1.417L169.901,83.796z"/>
	<path d="M180.587,83.796h1.638V93h-1.638V83.796z"/>
	<path d="M187.113,85.278h-2.821v-1.482h7.28v1.482h-2.821V93h-1.638V85.278z"/>
	<path d="M195.459,83.796h1.417L200.842,93h-1.873l-0.857-2.106h-3.991L193.288,93h-1.833L195.459,83.796z
		 M197.539,89.49l-1.417-3.744l-1.442,3.744H197.539z"/>
	<path d="M203.545,85.278h-2.82v-1.482h7.279v1.482h-2.82V93h-1.639V85.278z"/>
	<path d="M210.07,83.796h1.639V93h-1.639V83.796z"/>
	<path d="M214.219,88.437c0-0.736,0.121-1.405,0.363-2.008s0.578-1.116,1.008-1.541
		c0.429-0.424,0.939-0.751,1.533-0.981c0.594-0.229,1.246-0.345,1.957-0.345c0.719-0.008,1.378,0.098,1.977,0.319
		c0.598,0.221,1.113,0.544,1.547,0.968c0.433,0.425,0.771,0.937,1.014,1.534c0.242,0.599,0.363,1.266,0.363,2.002
		c0,0.72-0.121,1.374-0.363,1.963c-0.242,0.59-0.581,1.097-1.014,1.521c-0.434,0.425-0.949,0.756-1.547,0.994
		c-0.599,0.238-1.258,0.362-1.977,0.371c-0.711,0-1.363-0.115-1.957-0.345s-1.104-0.555-1.533-0.976
		c-0.43-0.42-0.766-0.925-1.008-1.514C214.34,89.811,214.219,89.156,214.219,88.437z M215.934,88.333
		c0,0.494,0.076,0.949,0.229,1.365c0.15,0.416,0.365,0.775,0.643,1.079c0.277,0.303,0.609,0.541,0.994,0.715
		c0.387,0.173,0.817,0.26,1.295,0.26c0.477,0,0.909-0.087,1.299-0.26c0.391-0.174,0.725-0.412,1.002-0.715
		c0.277-0.304,0.491-0.663,0.643-1.079c0.152-0.416,0.229-0.871,0.229-1.365c0-0.459-0.076-0.889-0.229-1.287
		c-0.151-0.398-0.365-0.747-0.643-1.047c-0.277-0.299-0.611-0.532-1.002-0.701c-0.39-0.169-0.822-0.254-1.299-0.254
		c-0.478,0-0.908,0.085-1.295,0.254c-0.385,0.169-0.717,0.402-0.994,0.701c-0.277,0.3-0.492,0.648-0.643,1.047
		C216.01,87.444,215.934,87.874,215.934,88.333z"/>
	<path d="M226.529,83.796h2.171l4.459,6.838h0.026v-6.838h1.637V93h-2.079l-4.55-7.059h-0.026V93h-1.638V83.796z"/>
	<path d="M240.842,83.796h1.417L246.225,93h-1.873l-0.857-2.106h-3.991L238.671,93h-1.833L240.842,83.796z
		 M242.922,89.49l-1.417-3.744l-1.442,3.744H242.922z"/>
	<path d="M248.238,83.796h1.639v7.722h3.912V93h-5.551V83.796z"/>
</g>
</svg>
