<svg width="194" height="24" viewBox="0 0 194 24" fill="none" xmlns="http://www.w3.org/2000/svg">
<path d="M51.9321 17.1442V6.74219H53.6611V10.7392C53.9411 10.4732 54.2491 10.2585 54.5851 10.0952C54.9211 9.93185 55.3155 9.85019 55.7681 9.85019C56.1601 9.85019 56.5078 9.91785 56.8111 10.0532C57.1145 10.1839 57.3665 10.3705 57.5671 10.6132C57.7725 10.8512 57.9265 11.1382 58.0291 11.4742C58.1365 11.8055 58.1901 12.1719 58.1901 12.5732V17.1442H56.4611V12.5732C56.4611 12.1345 56.3585 11.7962 56.1531 11.5582C55.9525 11.3155 55.6491 11.1942 55.2431 11.1942C54.9445 11.1942 54.6645 11.2619 54.4031 11.3972C54.1418 11.5325 53.8945 11.7169 53.6611 11.9502V17.1442H51.9321Z" fill="black"/>
<path d="M48.8771 17.2566C48.2564 17.2566 47.7781 17.0816 47.4421 16.7316C47.1061 16.377 46.9381 15.8893 46.9381 15.2686V11.2576H46.2101C46.1167 11.2576 46.0351 11.2273 45.9651 11.1666C45.8997 11.106 45.8671 11.015 45.8671 10.8936V10.2076L47.0221 10.0186L47.3861 8.05865C47.4047 7.96531 47.4467 7.89298 47.5121 7.84165C47.5821 7.79031 47.6684 7.76465 47.7711 7.76465H48.6671V10.0256H50.5571V11.2576H48.6671V15.1496C48.6671 15.3736 48.7231 15.5486 48.8351 15.6746C48.9471 15.8006 49.0964 15.8636 49.2831 15.8636C49.3904 15.8636 49.4791 15.852 49.5491 15.8286C49.6237 15.8006 49.6867 15.7726 49.7381 15.7446C49.7941 15.7166 49.8431 15.691 49.8851 15.6676C49.9271 15.6396 49.9691 15.6256 50.0111 15.6256C50.0624 15.6256 50.1044 15.6396 50.1371 15.6676C50.1697 15.691 50.2047 15.7283 50.2421 15.7796L50.7601 16.6196C50.5081 16.8296 50.2187 16.9883 49.8921 17.0956C49.5654 17.203 49.2271 17.2566 48.8771 17.2566Z" fill="black"/>
<path d="M44.5583 9.96267V17.1447H42.8293V9.96267H44.5583ZM44.8173 7.86967C44.8173 8.019 44.787 8.15901 44.7263 8.28967C44.6657 8.42034 44.584 8.53467 44.4813 8.63267C44.3833 8.73067 44.2667 8.81001 44.1313 8.87067C43.996 8.92667 43.8513 8.95467 43.6973 8.95467C43.548 8.95467 43.4057 8.92667 43.2703 8.87067C43.1397 8.81001 43.0253 8.73067 42.9273 8.63267C42.8293 8.53467 42.75 8.42034 42.6893 8.28967C42.6333 8.15901 42.6053 8.019 42.6053 7.86967C42.6053 7.71567 42.6333 7.57101 42.6893 7.43567C42.75 7.30034 42.8293 7.18367 42.9273 7.08567C43.0253 6.98767 43.1397 6.91067 43.2703 6.85467C43.4057 6.79401 43.548 6.76367 43.6973 6.76367C43.8513 6.76367 43.996 6.79401 44.1313 6.85467C44.2667 6.91067 44.3833 6.98767 44.4813 7.08567C44.584 7.18367 44.6657 7.30034 44.7263 7.43567C44.787 7.57101 44.8173 7.71567 44.8173 7.86967Z" fill="black"/>
<path d="M30.7681 9.96224H32.1401C32.2707 9.96224 32.3804 9.99258 32.4691 10.0532C32.5577 10.1139 32.6137 10.1909 32.6371 10.2842L33.6661 14.1202C33.7221 14.3302 33.7664 14.5356 33.7991 14.7362C33.8364 14.9369 33.8714 15.1376 33.9041 15.3382C33.9554 15.1376 34.0091 14.9369 34.0651 14.7362C34.1257 14.5356 34.1887 14.3302 34.2541 14.1202L35.4441 10.2702C35.4721 10.1769 35.5281 10.0999 35.6121 10.0392C35.6961 9.97858 35.7941 9.94824 35.9061 9.94824H36.6691C36.7951 9.94824 36.9001 9.97858 36.9841 10.0392C37.0681 10.0999 37.1241 10.1769 37.1521 10.2702L38.3281 14.1902C38.3887 14.3909 38.4424 14.5869 38.4891 14.7782C38.5404 14.9649 38.5894 15.1539 38.6361 15.3452C38.6687 15.1446 38.7037 14.9439 38.7411 14.7432C38.7831 14.5426 38.8344 14.3349 38.8951 14.1202L39.9591 10.2842C39.9824 10.1909 40.0384 10.1139 40.1271 10.0532C40.2157 9.99258 40.3184 9.96224 40.4351 9.96224H41.7441L39.4691 17.1442H38.0761C37.9267 17.1442 37.8194 17.0416 37.7541 16.8362L36.4591 12.6852C36.4171 12.5499 36.3774 12.4146 36.3401 12.2792C36.3074 12.1392 36.2794 12.0016 36.2561 11.8662C36.2281 12.0062 36.1977 12.1462 36.1651 12.2862C36.1324 12.4216 36.0951 12.5592 36.0531 12.6992L34.7441 16.8362C34.6787 17.0416 34.5527 17.1442 34.3661 17.1442H33.0431L30.7681 9.96224Z" fill="black"/>
<path d="M25.881 17.2566C25.2603 17.2566 24.782 17.0816 24.446 16.7316C24.11 16.377 23.942 15.8893 23.942 15.2686V11.2576H23.214C23.1206 11.2576 23.039 11.2273 22.969 11.1666C22.9036 11.106 22.871 11.015 22.871 10.8936V10.2076L24.026 10.0186L24.39 8.05865C24.4086 7.96531 24.4506 7.89298 24.516 7.84165C24.586 7.79031 24.6723 7.76465 24.775 7.76465H25.671V10.0256H27.561V11.2576H25.671V15.1496C25.671 15.3736 25.727 15.5486 25.839 15.6746C25.951 15.8006 26.1003 15.8636 26.287 15.8636C26.3943 15.8636 26.483 15.852 26.553 15.8286C26.6276 15.8006 26.6906 15.7726 26.742 15.7446C26.798 15.7166 26.847 15.691 26.889 15.6676C26.931 15.6396 26.973 15.6256 27.015 15.6256C27.0663 15.6256 27.1083 15.6396 27.141 15.6676C27.1736 15.691 27.2086 15.7283 27.246 15.7796L27.764 16.6196C27.512 16.8296 27.2226 16.9883 26.896 17.0956C26.5693 17.203 26.231 17.2566 25.881 17.2566Z" fill="black"/>
<path d="M21.5623 6.74219V17.1442H19.8333V6.74219H21.5623Z" fill="black"/>
<path d="M17.7615 9.96267V17.1447H16.0325V9.96267H17.7615ZM18.0205 7.86967C18.0205 8.019 17.9901 8.15901 17.9295 8.28967C17.8688 8.42034 17.7871 8.53467 17.6845 8.63267C17.5865 8.73067 17.4698 8.81001 17.3345 8.87067C17.1991 8.92667 17.0545 8.95467 16.9005 8.95467C16.7511 8.95467 16.6088 8.92667 16.4735 8.87067C16.3428 8.81001 16.2285 8.73067 16.1305 8.63267C16.0325 8.53467 15.9531 8.42034 15.8925 8.28967C15.8365 8.15901 15.8085 8.019 15.8085 7.86967C15.8085 7.71567 15.8365 7.57101 15.8925 7.43567C15.9531 7.30034 16.0325 7.18367 16.1305 7.08567C16.2285 6.98767 16.3428 6.91067 16.4735 6.85467C16.6088 6.79401 16.7511 6.76367 16.9005 6.76367C17.0545 6.76367 17.1991 6.79401 17.3345 6.85467C17.4698 6.91067 17.5865 6.98767 17.6845 7.08567C17.7871 7.18367 17.8688 7.30034 17.9295 7.43567C17.9901 7.57101 18.0205 7.71567 18.0205 7.86967Z" fill="black"/>
<path d="M9.54541 9.96289V14.5269C9.54541 14.9656 9.64574 15.3062 9.84641 15.5489C10.0517 15.7869 10.3574 15.9059 10.7634 15.9059C11.0621 15.9059 11.3421 15.8406 11.6034 15.7099C11.8647 15.5746 12.1121 15.3902 12.3454 15.1569V9.96289H14.0744V17.1449H13.0174C12.7934 17.1449 12.6464 17.0399 12.5764 16.8299L12.4574 16.2559C12.3081 16.4052 12.1541 16.5429 11.9954 16.6689C11.8367 16.7902 11.6664 16.8952 11.4844 16.9839C11.3071 17.0679 11.1134 17.1332 10.9034 17.1799C10.6981 17.2312 10.4764 17.2569 10.2384 17.2569C9.84641 17.2569 9.49874 17.1916 9.19541 17.0609C8.89674 16.9256 8.64474 16.7366 8.43941 16.4939C8.23407 16.2512 8.07774 15.9642 7.97041 15.6329C7.86774 15.2969 7.81641 14.9282 7.81641 14.5269V9.96289H9.54541Z" fill="black"/>
<path d="M0 17.1442V6.74219H1.729V10.8442C2.01367 10.5409 2.33567 10.3005 2.695 10.1232C3.05433 9.94119 3.47433 9.85019 3.955 9.85019C4.347 9.85019 4.704 9.93185 5.026 10.0952C5.35267 10.2539 5.63267 10.4872 5.866 10.7952C6.104 11.1032 6.286 11.4835 6.412 11.9362C6.54267 12.3889 6.608 12.9092 6.608 13.4972C6.608 14.0339 6.53567 14.5309 6.391 14.9882C6.24633 15.4455 6.03867 15.8422 5.768 16.1782C5.502 16.5142 5.17767 16.7779 4.795 16.9692C4.417 17.1559 3.99233 17.2492 3.521 17.2492C3.30167 17.2492 3.101 17.2259 2.919 17.1792C2.737 17.1372 2.57133 17.0765 2.422 16.9972C2.27267 16.9179 2.13267 16.8222 2.002 16.7102C1.876 16.5935 1.75467 16.4652 1.638 16.3252L1.561 16.8082C1.533 16.9295 1.484 17.0159 1.414 17.0672C1.34867 17.1185 1.25767 17.1442 1.141 17.1442H0ZM3.36 11.1942C3.00067 11.1942 2.69267 11.2712 2.436 11.4252C2.184 11.5745 1.94833 11.7869 1.729 12.0622V15.2822C1.925 15.5249 2.13733 15.6952 2.366 15.7932C2.59933 15.8865 2.85133 15.9332 3.122 15.9332C3.38333 15.9332 3.619 15.8842 3.829 15.7862C4.039 15.6882 4.21633 15.5389 4.361 15.3382C4.51033 15.1375 4.62467 14.8855 4.704 14.5822C4.78333 14.2742 4.823 13.9125 4.823 13.4972C4.823 13.0772 4.788 12.7225 4.718 12.4332C4.65267 12.1392 4.557 11.9012 4.431 11.7192C4.305 11.5372 4.151 11.4042 3.969 11.3202C3.79167 11.2362 3.58867 11.1942 3.36 11.1942Z" fill="black"/>
<path fill-rule="evenodd" clip-rule="evenodd" d="M76.9574 12.0007C76.9574 9.35414 79.1127 7.20084 81.7617 7.20065C84.4108 7.20084 86.5663 9.35414 86.5663 12.0007C86.5663 14.6472 84.411 16.8003 81.7618 16.8003C79.1127 16.8003 76.9574 14.6472 76.9574 12.0007ZM78.9353 12.0007C78.9353 13.556 80.2032 14.8212 81.7618 14.8212C83.3204 14.8212 84.5883 13.556 84.5883 12.0007C84.5883 10.4452 83.32 9.17982 81.7612 9.17982C80.2031 9.17982 78.9353 10.4452 78.9353 12.0007Z" fill="black"/>
<path fill-rule="evenodd" clip-rule="evenodd" d="M93.1531 15.3898L90.8142 13.3972L90.8575 13.1268C90.9065 12.7612 90.9225 12.3797 90.9225 12.0028C90.9225 11.5345 90.898 11.0531 90.8142 10.6084L93.1531 8.61866L93.2049 8.57531C93.267 8.51409 93.3094 8.43402 93.3254 8.34826C93.3423 8.26157 93.331 8.17208 93.2953 8.09198C92.8179 6.65052 91.994 5.27878 90.9809 4.14158C90.8378 3.97865 90.6353 3.91926 90.4451 4.00219L87.4982 5.00835L87.2534 4.81898C86.5824 4.31967 85.8464 3.91461 85.0658 3.61494L84.4821 0.617104L84.4652 0.554912C84.4361 0.470115 84.3845 0.395671 84.316 0.338214C84.2474 0.280714 84.1646 0.243069 84.0764 0.229883L84.0753 0.228913C82.548 -0.0763044 80.9755 -0.0763044 79.4483 0.228913C79.3491 0.243996 79.2571 0.289244 79.1845 0.358025C79.1119 0.427704 79.0624 0.51723 79.0424 0.616134L78.4589 3.61404L78.194 3.71954C77.4116 4.03987 76.6808 4.47324 76.0254 5.00741L73.0792 4.0003L73.0143 3.97959C72.9282 3.95884 72.8381 3.9635 72.7544 3.99184C72.6705 4.02103 72.5968 4.07283 72.5416 4.14158C71.5271 5.27878 70.7047 6.65052 70.228 8.09197C70.1871 8.18242 70.179 8.2842 70.2051 8.38032C70.2311 8.4764 70.2897 8.56116 70.3709 8.61866L72.7095 10.6094L72.6655 10.8798C72.6165 11.2453 72.6014 11.6288 72.6014 12.0028C72.595 12.4701 72.631 12.9365 72.7095 13.3972L70.3719 15.3899L70.32 15.4322C70.2574 15.4944 70.2152 15.5736 70.199 15.6602C70.1828 15.7469 70.1932 15.8364 70.229 15.9164C70.7057 17.3589 71.5281 18.7288 72.5425 19.864C72.6865 20.028 72.8893 20.0873 73.0792 20.0054L76.0254 18.9972L76.2402 19.1706C76.9175 19.6813 77.6648 20.093 78.4589 20.3916L79.0424 23.3914L79.0585 23.4535C79.0878 23.5374 79.1395 23.6128 79.2083 23.6703C79.2769 23.7277 79.3599 23.7645 79.4483 23.7786C80.2118 23.9181 80.9753 24 81.7628 24C82.5493 24 83.3129 23.9181 84.0764 23.7786C84.1753 23.7626 84.2672 23.7174 84.3397 23.6486C84.4122 23.5789 84.462 23.4894 84.4821 23.3914L85.0667 20.3916L85.3585 20.2738C86.13 19.9479 86.8526 19.5183 87.4993 18.9972L90.4452 20.0054L90.5092 20.027C90.6806 20.0732 90.8538 20.0101 90.9819 19.864C91.9969 18.7288 92.8188 17.3589 93.2953 15.9164C93.3367 15.826 93.3443 15.7233 93.3188 15.6272C93.2925 15.5312 93.2341 15.4473 93.1531 15.3898ZM81.7618 19.0227C77.8782 19.0227 74.7301 15.8788 74.7301 12.0009C74.7301 8.12329 77.876 4.97855 81.7613 4.97825C85.6457 4.97855 88.7936 8.12329 88.7936 12.0009C88.7936 15.8788 85.6454 19.0227 81.7618 19.0227Z" fill="black"/>
<path d="M125.701 3.55664H122.324V19.5881H125.701V3.55664Z" fill="black"/>
<path d="M111.294 3.98424H98.6735V6.85494H103.141V19.588H106.826V6.85494H111.294V3.98424Z" fill="black"/>
<path fill-rule="evenodd" clip-rule="evenodd" d="M148.611 8.65351C149.124 8.92015 149.568 9.30168 149.909 9.76807C150.272 10.2533 150.557 10.8477 150.764 11.5506C150.971 12.2544 151.074 13.0514 151.074 13.9446C151.074 14.7793 150.957 15.5509 150.72 16.2575C150.504 16.9264 150.169 17.5511 149.729 18.0994C149.314 18.6119 148.793 19.0284 148.203 19.3194C147.59 19.6172 146.917 19.7679 146.236 19.7594C145.646 19.7594 145.152 19.6774 144.754 19.5135C144.357 19.3515 143.989 19.1273 143.663 18.8494V23.1116H140.285V8.48202H142.377L142.48 8.48675C142.632 8.49427 142.777 8.54138 142.905 8.62149C143.052 8.72036 143.159 8.86925 143.206 9.03977L143.455 9.85377L143.622 9.68045C143.792 9.51183 143.972 9.35538 144.159 9.21033C144.964 8.58686 145.958 8.25426 146.977 8.26826C147.567 8.26842 148.111 8.39644 148.611 8.65351ZM146.971 16.5524C147.164 16.2848 147.314 15.9362 147.424 15.5076C147.532 15.0798 147.587 14.5588 147.587 13.9446C147.587 13.3585 147.543 12.8667 147.456 12.4663C147.37 12.0669 147.247 11.7437 147.092 11.4969C146.935 11.251 146.747 11.0748 146.53 10.9665C146.312 10.86 146.069 10.8063 145.799 10.8063C145.552 10.8063 145.329 10.8299 145.129 10.8769C144.93 10.9222 144.743 10.9881 144.574 11.0748C144.402 11.1614 144.242 11.2708 144.099 11.4008C143.944 11.5431 143.799 11.6948 143.663 11.8558V16.5684L143.774 16.6814C143.977 16.8869 144.222 17.047 144.492 17.1516C144.79 17.2628 145.102 17.3174 145.429 17.3174C145.726 17.3202 146.02 17.259 146.289 17.1356C146.551 17.0141 146.778 16.819 146.971 16.5524Z" fill="black"/>
<path fill-rule="evenodd" clip-rule="evenodd" d="M118.852 9.65026C118.395 9.2084 117.849 8.86832 117.25 8.65349C116.591 8.41887 115.896 8.30298 115.196 8.31151C114.331 8.31151 113.555 8.45753 112.869 8.75057C112.209 9.02469 111.612 9.42793 111.113 9.93856C110.63 10.4398 110.252 11.0333 110.002 11.6843C109.743 12.357 109.612 13.073 109.615 13.7947C109.615 14.7793 109.765 15.6432 110.068 16.3856C110.37 17.128 110.78 17.7498 111.3 18.2491C111.82 18.7494 112.426 19.1253 113.12 19.3797C113.813 19.6322 114.557 19.7594 115.348 19.7594C115.734 19.7594 116.138 19.7321 116.563 19.6793C116.988 19.6256 117.413 19.5295 117.838 19.3892C118.264 19.2506 118.678 19.0585 119.081 18.8116C119.427 18.6015 119.752 18.3358 120.058 18.0174L120.209 17.8535L119.229 16.6645C119.089 16.4713 118.887 16.3743 118.618 16.3743C118.414 16.3743 118.22 16.4214 118.036 16.5147C117.849 16.607 117.646 16.7106 117.425 16.8246C117.181 16.9481 116.928 17.0517 116.667 17.1355C116.383 17.2288 116.045 17.275 115.654 17.275C114.919 17.275 114.319 17.0658 113.855 16.6485C113.421 16.2584 113.143 15.646 113.018 14.8113L112.995 14.6295H119.511C119.665 14.6295 119.789 14.6115 119.887 14.5767C119.985 14.5409 120.069 14.4731 120.122 14.3836C120.187 14.2687 120.229 14.1405 120.242 14.0086C120.264 13.8513 120.275 13.6487 120.275 13.3981C120.275 12.5983 120.149 11.8822 119.898 11.251C119.667 10.6489 119.311 10.1034 118.852 9.65026ZM113.027 12.7019C113.143 12.0235 113.384 11.5035 113.746 11.1436C114.11 10.7827 114.614 10.6028 115.261 10.6028C115.624 10.6028 115.932 10.664 116.188 10.7855C116.427 10.8949 116.637 11.0578 116.803 11.2613C116.961 11.4592 117.075 11.6872 117.141 11.9312C117.21 12.1828 117.245 12.4418 117.244 12.7019H113.027Z" fill="black"/>
<path fill-rule="evenodd" clip-rule="evenodd" d="M135.32 8.6535C135.919 8.86833 136.465 9.20748 136.923 9.64937C137.369 10.0856 137.718 10.6197 137.969 11.251C138.218 11.8822 138.345 12.5983 138.345 13.3981C138.345 13.6487 138.335 13.8513 138.312 14.0086C138.298 14.1405 138.257 14.2687 138.192 14.3836C138.138 14.4731 138.056 14.5409 137.958 14.5767C137.837 14.6153 137.71 14.6332 137.582 14.6295H131.064L131.088 14.8113C131.212 15.646 131.491 16.2584 131.926 16.6485C132.39 17.0668 132.99 17.2741 133.724 17.2741C134.116 17.2741 134.454 17.2288 134.737 17.1356C134.997 17.0526 135.251 16.949 135.495 16.8256C135.717 16.7106 135.92 16.607 136.106 16.5157C136.29 16.4214 136.485 16.3752 136.687 16.3752C136.958 16.3752 137.16 16.4713 137.299 16.6645L138.28 17.8535L138.128 18.0174C137.838 18.3236 137.509 18.5902 137.152 18.8116C136.748 19.0585 136.334 19.2516 135.91 19.3901C135.495 19.5276 135.067 19.6237 134.634 19.6793C134.208 19.7321 133.804 19.7594 133.419 19.7594C132.659 19.7651 131.905 19.636 131.191 19.3797C130.511 19.1348 129.89 18.7504 129.37 18.2492C128.85 17.7498 128.44 17.1299 128.138 16.3866C127.837 15.6432 127.685 14.7793 127.685 13.7948C127.685 13.0514 127.815 12.3485 128.073 11.6843C128.323 11.0334 128.7 10.4398 129.184 9.93857C129.683 9.42887 130.28 9.0247 130.938 8.75058C131.625 8.45754 132.4 8.31055 133.265 8.31055L133.266 8.31152C133.965 8.30299 134.661 8.41888 135.32 8.6535ZM131.817 11.1436C131.453 11.5044 131.213 12.0235 131.097 12.7019L135.315 12.7019C135.315 12.4371 135.281 12.1818 135.212 11.9312C135.142 11.6815 135.03 11.4573 134.874 11.2613C134.717 11.0645 134.512 10.9061 134.257 10.7846C134.003 10.664 133.695 10.6037 133.331 10.6037C132.684 10.6037 132.179 10.7837 131.817 11.1436Z" fill="black"/>
<path fill-rule="evenodd" clip-rule="evenodd" d="M162.077 9.84257C161.558 9.34132 160.939 8.95506 160.262 8.7073C159.557 8.44346 158.777 8.31159 157.92 8.31159C157.054 8.31159 156.267 8.44346 155.559 8.7073C154.877 8.95506 154.253 9.34228 153.728 9.84257C153.208 10.3475 152.802 10.9599 152.541 11.6364C152.261 12.3392 152.122 13.1306 152.122 14.0087C152.122 14.8933 152.261 15.6914 152.541 16.4026C152.82 17.1121 153.217 17.715 153.728 18.2125C154.253 18.7166 154.877 19.1066 155.559 19.3572C156.268 19.6257 157.054 19.7595 157.92 19.7595C158.777 19.7595 159.558 19.6257 160.262 19.3572C160.94 19.1066 161.559 18.7166 162.077 18.2125C162.581 17.715 162.974 17.1121 163.254 16.4026C163.534 15.6923 163.674 14.8933 163.674 14.0087C163.674 13.1306 163.534 12.3392 163.254 11.6364C162.993 10.9618 162.592 10.3504 162.077 9.84257ZM159.635 16.4874C159.269 17.0264 158.696 17.2967 157.92 17.2967C157.12 17.2967 156.535 17.0273 156.165 16.4874C155.794 15.9485 155.609 15.1299 155.609 14.0304C155.609 12.9309 155.794 12.1122 156.165 11.578C156.536 11.0428 157.12 10.7743 157.92 10.7743C158.696 10.7743 159.269 11.0419 159.635 11.578C160.002 12.1122 160.185 12.9309 160.185 14.0304C160.185 15.1299 160.002 15.9485 159.635 16.4874Z" fill="black"/>
<path d="M180.441 17.0028C180.503 17.0489 180.566 17.1214 180.632 17.2213L181.657 18.7957L181.491 18.9125C181.089 19.18 180.649 19.3845 180.186 19.5183C179.64 19.6784 179.078 19.7595 178.496 19.7595C177.958 19.7595 177.485 19.6822 177.073 19.5296C176.685 19.3892 176.331 19.1669 176.038 18.8757C175.754 18.5855 175.536 18.2369 175.401 17.8535C175.25 17.4229 175.177 16.9698 175.183 16.5147V10.7743H174.223L174.138 10.7696C174.004 10.7555 173.878 10.6999 173.777 10.6084C173.653 10.4983 173.592 10.3352 173.592 10.1205V8.82595L175.39 8.48301L176.055 5.77252L176.08 5.69048C176.184 5.40314 176.423 5.25898 176.795 5.25898H178.562V8.50375H181.308V10.7734H178.562V16.2895L178.566 16.398C178.581 16.6061 178.644 16.7833 178.753 16.9274C178.879 17.0942 179.063 17.179 179.302 17.179C179.486 17.1827 179.668 17.1403 179.831 17.0555C179.893 17.0235 179.951 16.9952 180.006 16.9698C180.066 16.9434 180.131 16.9312 180.196 16.9321C180.284 16.9283 180.37 16.9528 180.441 17.0028Z" fill="black"/>
<path d="M148.42 8.26823L148.421 8.26826L148.422 8.26823H148.42Z" fill="black"/>
<path d="M168.836 10.0988C169.179 9.60228 169.604 9.16889 170.092 8.81469C170.607 8.45097 171.171 8.26823 171.782 8.26823C172.298 8.26823 172.711 8.38978 173.024 8.63285L172.589 11.0749L172.569 11.1587C172.545 11.2511 172.491 11.333 172.414 11.3905C172.328 11.4517 172.211 11.4819 172.066 11.4819C171.942 11.4819 171.797 11.4649 171.63 11.4329C171.463 11.4009 171.252 11.3848 170.997 11.3848C170.111 11.3848 169.414 11.8483 168.905 12.7763V19.588H165.527V8.48303H167.53L167.651 8.48586C167.752 8.48869 167.852 8.50187 167.95 8.52545C168.053 8.54991 168.15 8.59513 168.234 8.65918C168.312 8.72323 168.372 8.80617 168.408 8.90042C168.453 9.0191 168.488 9.14069 168.512 9.265L168.697 10.3023L168.836 10.0988Z" fill="black"/>
</svg>
