<svg xmlns="http://www.w3.org/2000/svg" width="72" height="72" fill="none" viewBox="0 0 72 72"><g clip-path="url(#a)"><path fill="#003dff" d="M35.999 0C16.326 0 .288 15.852.004 35.446-.284 55.345 15.872 71.834 35.787 71.95c6.15.036 12.074-1.468 17.335-4.325a.842.842 0 0 0 .156-1.37l-3.37-2.983a2.38 2.38 0 0 0-2.5-.42 29.1 29.1 0 0 1-11.775 2.308C19.54 64.963 6.539 51.582 6.795 35.502 7.049 19.624 20.052 6.787 35.999 6.787h29.207v51.88L48.635 43.953a1.22 1.22 0 0 0-1.79.189c-2.66 3.52-6.993 5.708-11.806 5.377-6.676-.461-12.085-5.832-12.585-12.5-.598-7.955 5.71-14.62 13.545-14.62 7.087 0 12.923 5.45 13.532 12.377a2.42 2.42 0 0 0 .796 1.601l4.315 3.823a.843.843 0 0 0 1.388-.475c.311-1.663.42-3.395.298-5.172-.694-10.13-8.905-18.278-19.045-18.902-11.626-.715-21.345 8.372-21.653 19.764-.302 11.103 8.801 20.673 19.912 20.918a20.27 20.27 0 0 0 12.413-3.881l21.652 19.18c.927.823 2.393.165 2.393-1.075V1.365C72 .611 71.389 0 70.634 0z"/></g><defs><clipPath id="a"><path fill="#fff" d="M0 0h72v72H0z"/></clipPath></defs></svg>