<svg xmlns="http://www.w3.org/2000/svg" width="72" height="72" fill="none" viewBox="0 0 72 72"><path fill="#00d7b8" d="m69.865 17.027-21.892 5.947c.885 4.107 1.352 8.462 1.352 13.03 0 4.57-.47 8.921-1.352 13.032l21.892 5.947C71.265 49.05 72 42.55 72 36.009s-.735-13.05-2.135-18.982"/><path fill="#5f3ad7" d="M14.432 10.881 0 36.001l22.84-17.138a26 26 0 0 0-8.408-7.982m0 50.245L0 36.002l22.84 17.139a26 26 0 0 1-8.408 7.985"/><path fill="#0280ff" d="M40.76 5.42 0 36.004l47.975-13.031C46.57 16.453 44.112 10.55 40.76 5.42"/><path fill="#0280ff" d="M40.76 66.585 0 36.002l47.975 13.03c-1.404 6.524-3.863 12.426-7.214 17.553"/><path fill="#fff" d="M49.33 36.002c0-4.57-.47-8.92-1.352-13.032L0 36.002l47.975 13.031c.89-4.115 1.356-8.455 1.356-13.031"/></svg>