<svg xmlns="http://www.w3.org/2000/svg" width="72" height="72" fill="none" viewBox="0 0 72 72"><path fill="#fe552e" d="M58.533 7.388 47.547 1.046 36 7.712 24.453 1.045 11.547 8.497V21.83L0 28.497v12.685c0 9.592 5.16 18.53 13.468 23.326l10.985 6.343L36 64.183l11.547 6.666 12.906-7.45V50.066L72 43.4V30.714c0-9.592-5.16-18.53-13.467-23.326M46.189 30.066V41.83L36 47.713 25.812 41.83V30.066L36 24.183zM23.094 42.015l-8.99 5.19V36.641l8.99-5.19zm-7.79 7.267 8.99-5.19 9.148 5.282-8.989 5.19-8.377-4.836zm23.254.092 9.15-5.282 8.988 5.19-9.149 5.282zm-3.757-27.636-9.15 5.282V16.64l9.15-5.282zM22.055 29.28l-9.15 5.282-8.988-5.19 9.149-5.282 4.97 2.87zm2.398-14.717-8.99-5.191 8.99-5.19 8.99 5.19zm22.453-.37-8.348-4.821 8.99-5.19 9.626 5.558c7.47 4.312 12.109 12.349 12.109 20.973V41.83l-8.99 5.19v-9.64c0-9.534-5.13-18.42-13.387-23.187M25.652 56.64l9.15-5.283v10.38l-9.15 5.283zm23.094 0 8.99-5.19v10.38l-8.99 5.19z"/></svg>