<svg xmlns="http://www.w3.org/2000/svg" width="72" height="72" fill="none" viewBox="0 0 72 72"><g clip-path="url(#a)"><path fill="#4c7f8e" d="m66.53 29.653-.1 34.877c0 .511-.361.718-.808.46L48.063 54.854 37.001 48.45 18.42 37.74c-.445-.257-.803-.878-.803-1.39l.1-34.876c0-.511.361-.716.806-.46l47.201 27.248c.445.257.805.878.803 1.39z" opacity=".2"/><g filter="url(#b)"><path fill="#c7d5db" d="M27.84 56.16v-3.6L39 58.95v3.69z"/><path fill="url(#c)" d="m27.84 56.16-2.25 1.26 15.84 9.18L39 62.64z"/><path fill="#5e2ad8" d="m41.43 66.6 3.33-1.98s.99.99.63 1.53-3.06 2.25-3.69 2.25-16.02-9.18-16.02-9.18c-.45-.27-.63-.81-.63-.81s-.45-.72.27-1.08l2.79-1.62-.27.45-2.25 1.26z"/><path fill="#eff1f3" d="m42.33 60.66 2.43 3.96-3.33 1.98L39 62.64z"/><path fill="#83a2ac" d="M42.33 60.66v-2.07H39v4.05z"/><path fill="#eff1f3" d="m60.572 31.774-.1 34.876c0 .254-.091.434-.235.517L56.96 69.07c.145-.082.234-.263.236-.516l.098-34.877c.002-.511-.358-1.134-.802-1.39L9.293 5.036c-.223-.13-.426-.142-.572-.055l3.276-1.905c.146-.086.349-.074.572.056l47.2 27.252c.444.257.804.878.803 1.39"/><path fill="#fff" d="M29.597 47.898a.23.23 0 0 1 .104.18v.887c-.003.067-.05.094-.108.06l-.977-.566a.23.23 0 0 1-.104-.18v-.887c.003-.065.05-.092.108-.06z"/><path fill="#f4f6f7" d="M31.523 49.01a.23.23 0 0 1 .104.18v.888c-.003.066-.05.093-.106.059l-.98-.565a.23.23 0 0 1-.104-.18v-.888c.004-.064.05-.091.107-.06z"/><path fill="#98b3bc" d="m13.942 37.879-.009 3.035-3.342-1.93c-.339-.196-.612-.67-.61-1.058l.005-2.331z"/><path fill="#c8d6dc" d="m27.471 45.69 28.341 16.363-.007 2.266c0 .427-.304.6-.675.385L10.654 39.022c-.409-.236-.675-.697-.674-1.075 0 .366.272.84.61 1.034l3.343 1.93.01-3.035-.004 3.038 13.525 7.808.009-3.035zm2.229 3.277v-.887a.22.22 0 0 0-.101-.18l-.978-.566c-.057-.032-.104-.007-.104.06v.887a.22.22 0 0 0 .1.18l.978.566c.058.032.105.007.105-.06m1.924 1.113v-.888a.22.22 0 0 0-.101-.18l-.98-.565c-.057-.033-.104-.006-.104.06v.887a.22.22 0 0 0 .101.18l.98.565c.057.032.104.005.104-.06"/><path fill="#fff" d="M48.094 58.557a.25.25 0 0 1 .104.191v.932c0 .067-.048.1-.104.067l-.98-.6a.22.22 0 0 1-.104-.183v-.923c0-.075.048-.1.103-.067z"/><path fill="#5e2ad8" d="M53.867 61.859a.24.24 0 0 1 .109.191v.931c0 .067-.05.091-.11.058l-1.041-.59a.24.24 0 0 1-.11-.191v-.931c0-.067.051-.092.11-.058z"/><path fill="#f4f6f7" d="M50.022 59.677a.2.2 0 0 1 .076.076q.027.05.026.106v.927c0 .075-.047.1-.102.066l-.975-.587a.26.26 0 0 1-.11-.19v-.928c0-.074.047-.099.102-.066z"/><path fill="#e4eaed" d="M51.94 60.763a.22.22 0 0 1 .11.19v.93c0 .066-.05.091-.11.058l-1.032-.589a.24.24 0 0 1-.118-.19v-.93c0-.066.05-.1.11-.058z"/><path fill="#d3dee3" d="m13.946 37.88 13.525 7.81-.01 3.034-13.524-7.808zm2.284 3.51.003-1.284a.3.3 0 0 0-.133-.23l-1.116-.645c-.074-.043-.133-.01-.133.075l-.004 1.284c0 .084.06.187.133.23l1.116.645c.074.041.134.007.134-.076"/><path fill="#fff" d="M16.1 39.875a.3.3 0 0 1 .134.23l-.004 1.284c0 .084-.061.119-.133.075l-1.116-.644a.3.3 0 0 1-.133-.23l.003-1.284c0-.084.061-.119.133-.075zm39.792-5.725-.08 27.901-28.34-16.362-13.526-7.808-3.96-2.286.08-27.904c.001-.427.305-.6.678-.385L55.22 32.985c.371.214.675.738.672 1.164"/><path fill="url(#d)" d="m55.892 34.15-.08 27.901-28.34-16.362-13.526-7.808-3.96-2.286.08-27.904c.001-.427.305-.6.678-.385L55.22 32.985c.371.214.675.738.672 1.164" opacity=".8"/><path fill="#fff" d="m10.744 7.306 3.276-1.904L58.496 31.08l-3.276 1.904zM37.191 55.53a1.23 1.23 0 0 1 .55.96c0 .354-.25.49-.55.312l-8.081-4.694a1.22 1.22 0 0 1-.55-.96c0-.344.25-.49.56-.312z"/><path fill="#eff1f3" d="m56.584 32.333-47.2-27.25c-.444-.258-.806-.05-.807.46l-.1 34.877c0 .512.359 1.134.803 1.392l18.578 10.712 11.063 6.402L56.48 69.064c.445.257.806.05.808-.46l.1-34.878c0-.511-.36-1.134-.804-1.39zM36.614 56.28l-6.175-3.564a.94.94 0 0 1-.42-.729c0-.266.19-.376.422-.241l6.174 3.566a.93.93 0 0 1 .421.729c0 .266-.19.376-.423.241zm19.198 5.775-.007 2.266c0 .426-.304.6-.677.383L10.573 38.977c-.33-.191-.594-.65-.594-1.12l.086-30.166c0-.427.306-.6.677-.385l44.476 25.679c.37.214.675.738.673 1.164l-.079 27.902"/><path fill="url(#e)" d="m56.584 32.333-47.2-27.25c-.444-.258-.806-.05-.807.46l-.1 34.877c0 .512.359 1.134.803 1.392l18.578 10.712 11.063 6.402L56.48 69.064c.445.257.806.05.808-.46l.1-34.878c0-.511-.36-1.134-.804-1.39zm-.772 29.722-.007 2.266c0 .426-.304.6-.677.383L10.573 38.977c-.33-.191-.594-.65-.594-1.12l.086-30.166c0-.427.306-.6.677-.385l44.476 25.679c.37.214.675.738.673 1.164l-.079 27.902"/><path fill="#eff1f3" d="m10.653 39.024-.073-.049-.006.004L28.711 49.45 10.653 39.026zm19.016 10.01s-.018.005-.027.005q.015.001.027-.006m-.035.007a.1.1 0 0 1-.041-.015.1.1 0 0 0 .041.015M11.771 38.28l-.635.368.633.468v-.837zm42.172 24.773s-.01 0-.014.003q.008 0 .014-.003m-1.924-1.11s-.012.003-.02.003q.012.001.02-.004m-.034.006a.1.1 0 0 1-.041-.014.1.1 0 0 0 .041.014m.065-.075-.105.06zm-1.99-1.037a.1.1 0 0 1-.04-.014.1.1 0 0 0 .04.014m.033-.007s-.016.005-.025.005q.014.001.025-.005m-1.924-1.11a.1.1 0 0 1-.032.006q.018.002.032-.007m-16.574-9.577a.1.1 0 0 1-.033.007q.02.002.033-.007m22.064 11.651-.274.159zm-5.774-3.333-.195.113zm-.84-.448c-.017.01-.03.034-.03.066q0-.049.03-.066"/><path fill="#c8d6dc" d="m10.593 38.982.018.011-.016-.01zm1.179-.686-.625.364.623.459v-.823z"/><path fill="#98b3bc" d="m11.771 38.21-.147-.084-.672.39.817.601z"/><path fill="#eff1f3" d="m9.385 5.083 3.278-1.904 47.2 27.25-3.279 1.904z"/><path fill="#5e2ad8" d="m60.572 31.774-.1 34.876c0 .254-.091.434-.235.517L56.96 69.07c.145-.082.234-.263.236-.516l.098-34.877c.002-.511-.358-1.134-.802-1.39L9.293 5.036c-.223-.13-.426-.142-.572-.055l3.276-1.905c.146-.086.349-.074.572.056l47.2 27.252c.444.257.804.878.803 1.39"/><path fill="url(#f)" d="m60.572 31.703-.1 34.877c0 .254-.091.434-.235.517L56.96 69c.145-.083.234-.263.236-.517l.098-34.876c.002-.512-.358-1.134-.802-1.39L9.293 4.966c-.223-.13-.426-.142-.572-.056l3.276-1.904c.146-.087.349-.074.572.056l47.2 27.25c.444.257.804.878.803 1.39z"/><path fill="#e6eaec" d="m13.01 20.5.983 1.45-.011 3.565v.837l-.428-.612.003-1.039a.27.27 0 0 0-.119-.207l-.437-.252.01-3.744z"/><path fill="#5e2ad8" d="M13.437 24.498c.067.038.12.131.119.207l-.004 1.039v.462c0 .076-.056.106-.122.069l-1.305-.755a.26.26 0 0 1-.12-.207l.004-1.5c0-.076.054-.107.121-.07l.868.501.437.252z"/><path fill="#b0c4c9" d="m15.736 22.073-.01 3.34q.096.216.188.433l-.01.789-1.923-1.118.01-3.564-.982-1.451 2.725 1.573z"/><path fill="#5e2ad8" d="M13.507 32.733c.067.038.12.131.119.207l-.004 1.039v.462c0 .076-.055.106-.122.069l-1.305-.755a.26.26 0 0 1-.119-.207l.004-1.499c0-.076.054-.106.12-.068l.868.5.437.252z"/><path fill="#b0c4c9" d="M16.596 34.747v.283l-2.02-1.167v-.282z"/><path fill="#e6eaec" d="m13.08 28.737.983 1.45-.01 3.57v.832l-.43-.612.005-1.04a.27.27 0 0 0-.12-.206l-.437-.252.011-3.744z"/><path fill="#b0c4c9" d="m16.598 34.294-.002.282-2.018-1.166v-.281zm-.55-2.139v.14l-1.465-.846v-.14z"/><path fill="#e6eaec" d="m16.16 32.45.625.36-.007 2.855-2.347-1.355v-.332l.01-3.283 1.363.787.36.209v.76zm.436 1.674v-.754l-2.016-1.166v.754zm-.002.906v-.283l-2.018-1.166v.282zm0-.454v-.282l-2.018-1.167v.283zm.004-1.384v-.283l-2.018-1.166v.283zm-2.018-1.883v.14l1.465.846v-.14z"/><path fill="#b0c4c9" d="m16.6 33.37-.002.752-2.02-1.164.004-.754zm.002-.46-.002.282-2.018-1.167v-.28zm-.44-1.22.623 1.12-.625-.36z"/><path fill="#b0c4c9" d="m15.805 30.31-.003 1.172-1.363-.787-.009 3.285-.378-.223.01-3.57-.982-1.45z"/><path fill="#5e2ad8" d="m12.886 11.905 3.483 3.276-.009 2.964-3.481-3.272z"/><path fill="#e6eaec" d="m12.463 15.532 2.99 2.892-.135-.007-1.197-.066-2.92-2.86-.143-.14z"/><path fill="#b0c4c9" d="m11.058 15.35.143.14 2.92 2.86 1.197.067.135.007v.123l-1.332-.074-3.065-3z"/><path fill="#e6eaec" d="m14.522 16.493.934.879v.045c0 .088-.062.124-.14.079l-.657-.38a.3.3 0 0 1-.139-.24v-.383z"/><path fill="#b0c4c9" d="M14.521 16.74v.136a.3.3 0 0 0 .139.24l.657.38c.077.045.138.009.14-.08v-.045l.637.6c-.05.131-.56-.034-1.179-.393-.653-.376-1.182-.824-1.18-.997 0-.137.329-.063.788.159z"/><path fill="#e6eaec" d="m12.798 11.747 3.66 3.441-.01 3.116-.356-.335-.637-.6-.934-.878-1.732-1.627zm3.562 6.399.01-2.967-3.484-3.274-.009 2.966z"/><path fill="#b0c4c9" d="m13.086 11.831 3.568 3.366-.01 3.114-.196-.007.01-3.116-3.66-3.441z"/><path fill="#5e2ad8" d="M22.133 21.323a.26.26 0 0 1 .119.205l-.004 1.037v.462c0 .076-.055.106-.12.069l-1.307-.755a.26.26 0 0 1-.119-.205l.004-1.501c0-.076.054-.106.12-.069l.868.5.437.253z"/><path fill="#e6eaec" d="m21.706 17.325.162.24.82 1.21-.012 3.734v.668l-.428-.613.003-1.036a.26.26 0 0 0-.118-.205l-.438-.253.011-3.744z"/><path fill="#b0c4c9" d="m24.431 18.898-.002.572-2.224-1.73-.002.152-.335-.344v.016l-.162-.24z"/><path fill="#b0c4c9" d="m21.868 17.548.335.344 1.661 1.71-.009 3.443-.001.684-1.178-1.22.011-3.733-.819-1.212z"/><path fill="#e6eaec" d="m22.205 17.74 2.225 1.73.358.278-.01 4.145-.922-.848.008-3.443-1.66-1.71zm.041 9.29-.004 1.043.907.523c0 .578-.408.81-.91.52-.503-.29-.906-.99-.906-1.567 0-.576.409-.808.91-.518z"/><path fill="#5e2ad8" d="m23.308 30.224 1.61.93-.001.193-1.61-.929zm-1.062-3.194c.502.29.905.99.905 1.566l-.907-.523.004-1.043zm2.677 2.285-.002.698-1.055-.608.002-.7z"/><path fill="#e6eaec" d="m24.925 28.726-.002.589-1.055-.61-.002.7 1.055.608-.002.65-1.055-.608.002-.422v-.093l.004-1.422z"/><path fill="#b0c4c9" d="M25.374 28.357a.2.2 0 0 1 .092.16l-.01 3.616c0 .06-.042.083-.094.053l-4.44-2.564a.2.2 0 0 1-.09-.16l.01-3.616c0-.06.041-.083.094-.054l4.438 2.563zm-.451.956v-.589l-1.053-.608-.004 1.422-.342-.198v-.576l-.373-.216v.047c0-.576-.403-1.276-.905-1.566s-.91-.058-.91.518c0 .578.402 1.278.905 1.568.502.29.909.058.91-.52v.048l.292.17v.576l.423.244v.422l1.055.608v-.65zm-.004 2.032v-.192l-1.61-.93v-.21l-.51-.295v.21l-1.376-.793v.192l1.374.794v.184l.51.295v-.184z"/><path fill="#5e2ad8" d="m23.526 28.765-.002.576.342.198v.094l-.425-.245.002-.574-.292-.17v-.095zm-2.104.564v-.193l1.375.792v.195z"/><path fill="#e6eaec" d="M23.308 30.013v.405l-.002.184-.511-.296.002-.183v-.405z"/><path fill="#b0c4c9" d="M24.295 36.398v.156l-1.255-.725v-.157z"/><path fill="#e6eaec" d="M22.464 35.024c.068.04.122.133.122.21l-.005 1.651c0 .078-.056.11-.123.07l-1.413-.815a.27.27 0 0 1-.122-.21l.005-1.651c0-.077.056-.11.123-.07z"/><path fill="#b0c4c9" d="M22.716 34.824a.37.37 0 0 1 .165.288l-.007 2.241c0 .106-.076.15-.168.096l-1.503-.868-.415-.24a.37.37 0 0 1-.166-.287l.007-2.241c0-.107.076-.148.168-.096l.415.24zm-.137 2.061.005-1.65a.27.27 0 0 0-.122-.21l-1.413-.816c-.069-.04-.123-.008-.123.07l-.005 1.65c0 .078.054.173.122.211l1.413.816c.069.04.123.007.123-.07m1.714.284v.157l-1.255-.724v-.157zm.002-.41-.002.156-1.255-.724.002-.156zm-.702-2.7 1.03 1.751-1.034-.598z"/><path fill="#e6eaec" d="m23.59 35.213 1.036.598-.01 3.994-3.412-1.97.004-1.256 1.503.868c.091.052.167.01.167-.095l.007-2.241a.37.37 0 0 0-.165-.288l-1.503-.868.003-1.269 2.375 1.372-.004 1.153zm.701 2.495v-.157l-1.255-.723v.156zm.002-.792v-.157l-1.255-.723v.156zm0 .41v-.156l-1.255-.724v.157zm.002-.774v-.156l-1.255-.724v.157z"/><path fill="#b0c4c9" d="M24.29 37.551v.157l-1.254-.724v-.158z"/><path fill="#c8d6dc" d="m41.158 31.505-.023 8.2-7.139-4.12.023-8.2zm7.598 4.389-.023 8.199-7.137-4.12.023-8.2zm-7.622 4.343-.023 8.2-7.14-4.121.024-8.2zm7.596 4.387-.023 8.2-7.137-4.12.024-8.2z"/><path fill="#fff" d="m11.844 37.207-.002.956-.831-.48.002-.955zm.886.512-.002.955-.832-.48.002-.954zm-.888.507-.004.954-.831-.479.003-.955zm.886.511-.004.956-.831-.48.003-.956z"/></g></g><defs><radialGradient id="e" cx="0" cy="0" r="1" gradientTransform="translate(32.932 37.07)scale(28.5336)" gradientUnits="userSpaceOnUse"><stop offset=".57" stop-color="#fff" stop-opacity="0"/><stop offset=".79" stop-color="#fff" stop-opacity=".3"/><stop offset=".87" stop-color="#fff" stop-opacity=".42"/><stop offset="1" stop-color="#fff" stop-opacity=".6"/></radialGradient><radialGradient id="f" cx="0" cy="0" r="1" gradientTransform="translate(81.938 7.511)scale(86.6808)" gradientUnits="userSpaceOnUse"><stop stop-color="#fff" stop-opacity=".6"/><stop offset=".13" stop-color="#fff" stop-opacity=".42"/><stop offset=".21" stop-color="#fff" stop-opacity=".3"/><stop offset=".54" stop-color="#fff" stop-opacity="0"/></radialGradient><linearGradient id="c" x1="36.48" x2="25.68" y1="61.02" y2="57.42" gradientUnits="userSpaceOnUse"><stop offset=".107" stop-color="#8cacb7"/><stop offset="1" stop-color="#c9d7dd"/></linearGradient><linearGradient id="d" x1="146.23" x2="-5.625" y1="-10.961" y2="50.236" gradientUnits="userSpaceOnUse"><stop offset=".35" stop-color="#4c7f8e" stop-opacity=".5"/><stop offset=".44" stop-color="#4c7f8e" stop-opacity=".47"/><stop offset=".54" stop-color="#4c7f8e" stop-opacity=".37"/><stop offset=".65" stop-color="#4c7f8e" stop-opacity=".21"/><stop offset=".75" stop-color="#4c7f8e" stop-opacity="0"/><stop offset="1" stop-color="#4c7f8e" stop-opacity="0"/></linearGradient><clipPath id="a"><path fill="#fff" d="M0 0h72v72H0z"/></clipPath><filter id="b" width="80.094" height="94.224" x="-5.522" y="-10.049" color-interpolation-filters="sRGB" filterUnits="userSpaceOnUse"><feFlood flood-opacity="0" result="BackgroundImageFix"/><feColorMatrix in="SourceAlpha" result="hardAlpha" values="0 0 0 0 0 0 0 0 0 0 0 0 0 0 0 0 0 0 127 0"/><feOffset dy="1"/><feGaussianBlur stdDeviation="7"/><feComposite in2="hardAlpha" operator="out"/><feColorMatrix values="0 0 0 0 0 0 0 0 0 0 0 0 0 0 0 0 0 0 0.12 0"/><feBlend in2="BackgroundImageFix" result="effect1_dropShadow_7996_40513"/><feColorMatrix in="SourceAlpha" result="hardAlpha" values="0 0 0 0 0 0 0 0 0 0 0 0 0 0 0 0 0 0 127 0"/><feOffset dy="5"/><feGaussianBlur stdDeviation="4"/><feComposite in2="hardAlpha" operator="out"/><feColorMatrix values="0 0 0 0 0 0 0 0 0 0 0 0 0 0 0 0 0 0 0.14 0"/><feBlend in2="effect1_dropShadow_7996_40513" result="effect2_dropShadow_7996_40513"/><feColorMatrix in="SourceAlpha" result="hardAlpha" values="0 0 0 0 0 0 0 0 0 0 0 0 0 0 0 0 0 0 127 0"/><feMorphology in="SourceAlpha" radius="1" result="effect3_dropShadow_7996_40513"/><feOffset dy="3"/><feGaussianBlur stdDeviation="2.5"/><feComposite in2="hardAlpha" operator="out"/><feColorMatrix values="0 0 0 0 0 0 0 0 0 0 0 0 0 0 0 0 0 0 0.2 0"/><feBlend in2="effect2_dropShadow_7996_40513" result="effect3_dropShadow_7996_40513"/><feBlend in="SourceGraphic" in2="effect3_dropShadow_7996_40513" result="shape"/></filter></defs></svg>