<svg xmlns="http://www.w3.org/2000/svg" width="72" height="72" fill="none" viewBox="0 0 72 72"><g clip-path="url(#a)"><path fill="#ea4335" d="m45.844 22.781 2.262.092 6.154-6.104.303-2.706c-3.526-3.087-7.786-5.115-12.38-6.114a27.9 27.9 0 0 0-13.87.52 27.7 27.7 0 0 0-11.87 7.137 27.4 27.4 0 0 0-6.88 11.957 3.37 3.37 0 0 1 2.159-.129l12.308-2.013s.396-.735.72-.671c2.637-2.872 6.512-4.93 10.418-5.224s7.63.811 10.676 3.255"/><path fill="#4285f4" d="M63.058 27.696a28.03 28.03 0 0 0-8.499-13.634l-8.715 8.72c1.83 1.488 3.23 3.39 4.222 5.526a15.5 15.5 0 0 1 1.441 6.817v1.551a7.85 7.85 0 0 1 5.528 2.279 7.746 7.746 0 0 1 0 11 7.85 7.85 0 0 1-5.528 2.278l-15.788.08-1.407 1.493v9.33l1.407 1.55h15.788a20.4 20.4 0 0 0 12.153-3.893 20.24 20.24 0 0 0 7.424-10.335 20.14 20.14 0 0 0-.23-12.701 20.25 20.25 0 0 0-7.796-10.06"/><path fill="#34a853" d="M20.215 64.687h15.504V52.314l-15.504-.142c-1.114 0-2.046-.24-3.059-.702l-2.365.68-6.303 6.258-.613 2.343c3.534 2.669 7.911 3.956 12.34 3.937"/><path fill="#fbbc05" d="M20.213 24.103a20.34 20.34 0 0 0-19.15 13.844A20.33 20.33 0 0 0 .88 50.35c1.233 4.053 3.638 7.817 6.996 10.4l9.281-9.282c-1.152-.52-2.31-1.298-3.09-2.294a7.816 7.816 0 0 1 10.975-10.973 7.8 7.8 0 0 1 2.31 2.94l9.069-9.068a20.31 20.31 0 0 0-16.207-7.97"/></g><defs><clipPath id="a"><path fill="#fff" d="M0 0h72v72H0z"/></clipPath></defs></svg>