<svg xmlns="http://www.w3.org/2000/svg" width="72" height="72" fill="none" viewBox="0 0 72 72"><g clip-path="url(#a)"><path fill="#ff8000" d="M61.846 21.604c-.136-.17-.24-.38-.26-.602-.656-7.352-1.703-12.228-1.703-12.228-.165-.842-.891-1.461-1.725-1.56l-5.87-.71a1.24 1.24 0 0 0-1.395 1.23v2.04a.075.075 0 0 1-.125.055c-3.516-3.167-7.475-6.24-11.86-8.948A5.2 5.2 0 0 0 36.002 0H36a5.2 5.2 0 0 0-2.905.88C12.827 13.393 1.672 33.733 1.24 34.85a2.01 2.01 0 0 0 1.323 2.803l5.838 1.123a2 2 0 0 1 1.46 1.705c.047 1.031 1.15 24.052 2.536 30.024A2.01 2.01 0 0 0 14.341 72h.044a810 810 0 0 1 9.895-.187h-.01l.031-.001.259-.004c.36 0 .652-.295.652-.655v-.016a656 656 0 0 1-.67-11.446l-.022-.397a1.24 1.24 0 0 0-.593-.994 6.3 6.3 0 0 1-3.064-5.085c-.306-8.074-.462-17.404-.02-24.705a1.175 1.175 0 1 1 2.346.14c-.288 4.868-.314 10.621-.209 16.298a1.39 1.39 0 0 0 2.78-.048c-.106-5.716-.078-11.507.218-16.39a1.175 1.175 0 1 1 2.345.14c-.287 4.842-.314 10.56-.21 16.209v.003a1.388 1.388 0 0 0 2.776-.043c-.104-5.69-.074-11.449.22-16.309a1.175 1.175 0 1 1 2.345.14c-.42 7.098-.282 16.082.007 23.963l.002.074.003.12v.078a6.3 6.3 0 0 1-2.731 5.195 1.2 1.2 0 0 0-.52.914s-.144 1.21.391 7.075c.25 2.56.44 4.334.528 5.136a.61.61 0 0 0 .606.54l.552-.002h-.008a973 973 0 0 1 3.49-.007h.451c1.524 0 2.975.004 4.374.01l3.312.03h.004a.63.63 0 0 0 .618-.546c.767-7.028.947-10.975.947-10.975 0-.355-.27-.621-.627-.676l-4.023-.555c-.636-.112-1.014-.504-1.15-.986-.083-.292-.05-.621-.05-.621 1.63-23.425 9.354-31.319 9.354-31.319.228-.232.375-.324.375-.324a1.24 1.24 0 0 1 1.879.55c0 .001.063.164.099.564.666 7.363.341 19.893-.072 29.668-.35 8.297-.773 14.81-.773 14.81v.012c0 .267.216.483.483.483 2.192.037 4.351.082 6.64.139h.043a2.01 2.01 0 0 0 1.944-1.495c1.386-5.972 2.49-28.993 2.537-30.024a2 2 0 0 1 1.46-1.705l5.837-1.123a2.01 2.01 0 0 0 1.323-2.804c-.22-.573-3.264-6.206-8.914-13.246"/></g><defs><clipPath id="a"><path fill="#fff" d="M0 0h72v72H0z"/></clipPath></defs></svg>