<svg xmlns="http://www.w3.org/2000/svg" width="72" height="72" fill="none" viewBox="0 0 72 72"><g fill="#788eb1" clip-path="url(#a)"><path d="M1.211 1.69A4.07 4.07 0 0 1 3.971.5v.12h30.771a4.02 4.02 0 0 1 3.952 4.789l-3.712 17.72C32.468 34.144 23.967 35.581 17.74 35.581H4.21c-2.154 0-3.95-1.916-3.95-3.951L.02 4.451a4.07 4.07 0 0 1 1.191-2.76"/><path d="M39.532 25.164c2.275-8.261 7.783-12.212 17.002-12.212 0 0 11.734-.48 11.734-.599 1.915 0 3.472 1.676 3.472 3.472l.24 51.604c0 2.155-1.677 3.712-3.712 3.712L3.733 71.5C1.817 71.5.26 69.824.26 68.028V57.85c0-2.155 1.676-3.712 3.711-3.712h15.925c6.944 0 10.895-2.754 13.17-9.22z"/></g><defs><clipPath id="a"><path fill="#fff" d="M0 0h72v72H0z"/></clipPath></defs></svg>