<svg xmlns="http://www.w3.org/2000/svg" width="72" height="72" fill="none" viewBox="0 0 72 72"><g clip-path="url(#a)"><g filter="url(#b)"><path fill="#121929" d="M68.023 56.875s-.042.042-.075.058c-.017.017-.042.025-.058.042L42.253 71.844c-.283.166-.716.2-1.066.091a1 1 0 0 1-.15-.058l-.075-.042L2.178 49.5c-.066-.033-.116-.083-.158-.125-.017-.017-.025-.033-.033-.042a.2.2 0 0 1-.034-.05.3.3 0 0 1-.033-.141v-1.873c0-.133.092-.267.267-.375l24.178-14.011s.067.05.1.066l41.558 23.935c.083-.083.133-.175.133-.266" opacity=".7"/></g><path fill="#cad5db" d="M68.173 54.744v1.873c0 .133-.092.267-.267.367L42.27 71.844c-.35.208-.933.208-1.283 0L2.203 49.508c-.175-.1-.266-.234-.266-.367v-1.873c0 .133.1.267.274.366l38.784 22.337c.358.2.933.2 1.283 0l25.636-14.86c.175-.1.259-.234.267-.367z"/><path fill="#cad5db" d="M68.173 54.744v1.873c0 .133-.092.267-.267.367L42.27 71.844c-.35.208-.933.208-1.283 0L2.203 49.508c-.175-.1-.266-.234-.266-.367v-1.873c0 .133.1.267.274.366l38.784 22.337c.358.2.933.2 1.283 0l25.636-14.86c.175-.1.259-.234.267-.367z"/><path fill="#f3f4f5" d="M67.906 54.361c.358.208.358.533 0 .741L42.27 69.962c-.35.209-.925.209-1.283 0L2.203 47.627c-.358-.208-.358-.533 0-.74L27.84 32.024c.35-.208.924-.208 1.283 0z"/><path fill="#587e8b" d="m69.847 23.541-.083 29.58c0 .2-.075.34-.192.407l-1.308.758c.084-.075.134-.2.134-.366l.083-29.58c0-.407-.283-.907-.641-1.107L29.056.897c-.183-.109-.342-.117-.458-.042l1.424-.824q.165-.05.392.075l38.784 22.336c.358.208.641.7.641 1.107z"/><path fill="#cad5db" d="m69.847 23.541-.083 29.58c0 .2-.075.34-.192.407l-1.308.758c.084-.075.134-.2.134-.366l.083-29.58c0-.407-.283-.907-.641-1.107L29.056.897c-.183-.109-.342-.117-.458-.042l1.424-.824q.165-.05.392.075l38.784 22.336c.358.208.641.7.641 1.107z"/><path fill="#e2e6e7" d="M67.848 23.233c.359.208.642.7.642 1.107l-.084 29.58c0 .408-.291.574-.641.366L28.98 31.95c-.358-.209-.641-.7-.641-1.108l.083-29.579c0-.408.292-.566.642-.366z"/><path fill="#fff" d="M66.073 23.566c.325.192.592.65.592 1.024l-.075 27.315c0 .375-.267.524-.6.341l-35.817-20.63c-.325-.19-.592-.649-.592-1.023l.075-27.315c0-.375.267-.525.6-.333l35.817 20.63z"/><path fill="#587e8b" d="M32.339 6.183a.25.25 0 0 1 .108.192v1.398c0 .067-.059.1-.117.067l-1.225-.708a.25.25 0 0 1-.108-.191V5.542c0-.067.058-.1.117-.067zm2.399 1.482a.25.25 0 0 1 .108.192v1.398c0 .067-.058.1-.116.067l-1.225-.708a.25.25 0 0 1-.108-.191V7.024c0-.067.058-.1.116-.067zm30.518 40.909a.25.25 0 0 1 .108.192v1.398c0 .067-.059.1-.117.067l-1.225-.708a.25.25 0 0 1-.108-.191v-1.399c0-.066.058-.1.117-.066zM32.339 8.764a.25.25 0 0 1 .108.191v1.399c0 .066-.059.1-.117.066l-1.225-.707a.25.25 0 0 1-.108-.192V8.123c0-.067.058-.1.117-.067zm0 2.398a.25.25 0 0 1 .108.191v1.399c0 .066-.059.1-.117.066l-1.225-.707a.25.25 0 0 1-.108-.192v-1.398c0-.067.058-.1.117-.067z" opacity=".8"/><path fill="#617d8a" d="M33.938 56.259c.184.1.184.275 0 .374l-5.649 3.272c-.175.1-.466.1-.65 0L17.418 54.02c-.184-.108-.184-.274 0-.374l5.649-3.272a.72.72 0 0 1 .65 0z"/><path fill="#cad5db" d="M26.599 36.42c.083.05.091.125 0 .175l-1.409.816a.34.34 0 0 1-.308 0l-1.416-.816c-.084-.05-.084-.125 0-.175l1.408-.816a.34.34 0 0 1 .308 0zm2.408 1.482c.083.05.091.125 0 .175l-1.408.816a.34.34 0 0 1-.309 0l-1.416-.816c-.083-.05-.083-.125 0-.175l1.408-.816a.34.34 0 0 1 .308 0zm2.466 1.482c.083.05.091.125 0 .175l-1.408.816a.34.34 0 0 1-.309 0l-1.416-.816c-.084-.05-.084-.125 0-.175l1.408-.816a.34.34 0 0 1 .308 0zm2.499 1.482c.083.05.091.125 0 .175l-1.409.816a.34.34 0 0 1-.308 0l-1.416-.816c-.083-.05-.083-.125 0-.175l1.408-.816a.34.34 0 0 1 .308 0zm2.542 1.49c.083.05.091.125 0 .175l-1.409.816a.34.34 0 0 1-.308 0l-1.416-.816c-.084-.05-.084-.125 0-.175l1.408-.816a.34.34 0 0 1 .308 0zm2.606 1.482c.084.05.093.125 0 .175l-1.407.815a.34.34 0 0 1-.308 0l-1.417-.816c-.083-.05-.083-.124 0-.174l1.408-.816a.34.34 0 0 1 .309 0zm2.667 1.482c.083.05.092.125 0 .175l-1.408.816a.34.34 0 0 1-.308 0l-1.417-.816c-.083-.05-.083-.125 0-.175l1.408-.816a.34.34 0 0 1 .309 0zm2.574 1.49c.084.05.092.125 0 .175l-1.408.816a.34.34 0 0 1-.308 0l-1.417-.816c-.083-.05-.083-.125 0-.175l1.408-.816a.34.34 0 0 1 .309 0zm2.574 1.482c.084.05.092.125 0 .175l-1.408.816a.34.34 0 0 1-.308 0l-1.416-.816c-.084-.05-.084-.125 0-.175l1.408-.816a.34.34 0 0 1 .308 0zm2.534 1.482c.083.05.091.125 0 .175l-1.408.815a.34.34 0 0 1-.309 0l-1.416-.815c-.083-.05-.083-.125 0-.175l1.408-.816a.34.34 0 0 1 .308 0zm2.658 1.49c.083.05.091.125 0 .175l-1.408.816a.34.34 0 0 1-.309 0l-1.416-.816c-.083-.05-.083-.125 0-.175l1.408-.816a.34.34 0 0 1 .308 0zm2.574 1.482c.083.05.092.125 0 .175l-1.408.816a.34.34 0 0 1-.308 0l-1.417-.816c-.083-.05-.083-.125 0-.175l1.408-.816a.34.34 0 0 1 .309 0zm2.583 1.482c.083.05.092.125 0 .175l-1.408.816a.34.34 0 0 1-.308 0l-1.417-.816c-.083-.05-.083-.125 0-.175l1.408-.816a.34.34 0 0 1 .309 0z"/><path fill="#587e8b" d="m61.366 56.617-1.408.816a.34.34 0 0 1-.308 0l-1.258-.724-.159-.092-1.266-.732c-.084-.05-.084-.125 0-.175l1.416-.816a.34.34 0 0 1 .308 0l1.267.733.158.091 1.258.724c.084.05.092.125 0 .175z"/><path fill="#cad5db" d="M21.39 39.184c.084.05.092.125 0 .175l-1.408.816a.34.34 0 0 1-.308 0l-1.416-.816c-.084-.05-.084-.125 0-.175l1.408-.816a.34.34 0 0 1 .308 0zm2.409 1.491c.083.05.091.125 0 .174l-1.408.816a.34.34 0 0 1-.309 0l-1.416-.816c-.083-.05-.083-.124 0-.174l1.408-.816a.34.34 0 0 1 .308 0zm2.466 1.482c.083.05.091.124 0 .174l-1.408.816a.34.34 0 0 1-.309 0l-1.416-.816c-.084-.05-.084-.125 0-.174l1.408-.816a.34.34 0 0 1 .308 0zm2.499 1.482c.083.05.091.124 0 .174l-1.408.816a.34.34 0 0 1-.309 0l-1.416-.816c-.084-.05-.084-.125 0-.175l1.408-.815a.34.34 0 0 1 .308 0zm2.533 1.49c.083.05.091.125 0 .175l-1.408.815a.34.34 0 0 1-.309 0l-1.416-.815c-.083-.05-.083-.125 0-.175l1.408-.816a.34.34 0 0 1 .308 0zm2.616 1.481c.083.05.092.125 0 .175l-1.408.816a.34.34 0 0 1-.308 0l-1.417-.816c-.083-.05-.083-.125 0-.175l1.408-.816a.34.34 0 0 1 .309 0zm2.658 1.483c.084.05.092.124 0 .174l-1.408.816a.34.34 0 0 1-.308 0l-1.416-.816c-.084-.05-.084-.125 0-.174l1.407-.816a.34.34 0 0 1 .309 0zm2.574 1.489c.084.05.092.125 0 .175l-1.408.816a.34.34 0 0 1-.308 0l-1.416-.816c-.084-.05-.084-.125 0-.175l1.408-.816a.34.34 0 0 1 .308 0zm2.582 1.482c.084.05.092.125 0 .175l-1.408.816a.34.34 0 0 1-.308 0l-1.416-.816c-.084-.05-.084-.125 0-.175l1.408-.816a.34.34 0 0 1 .308 0zm2.526 1.482c.083.05.091.125 0 .175l-1.408.816a.34.34 0 0 1-.309 0l-1.416-.816c-.083-.05-.083-.125 0-.175l1.408-.816a.34.34 0 0 1 .308 0zm2.666 1.482c.083.05.092.125 0 .175l-1.408.816a.34.34 0 0 1-.309 0l-1.416-.816c-.083-.05-.083-.125 0-.175l1.408-.816a.34.34 0 0 1 .308 0zm2.565 1.49c.084.05.092.125 0 .175l-1.408.816a.34.34 0 0 1-.308 0l-1.416-.816c-.084-.05-.084-.125 0-.175l1.408-.816a.34.34 0 0 1 .308 0zM52.067 57c.084.05.092.125 0 .175l-1.408.816a.34.34 0 0 1-.308 0l-1.416-.816c-.084-.05-.084-.125 0-.175l1.408-.816a.34.34 0 0 1 .308 0zm4.091 2.39-1.408.816a.34.34 0 0 1-.309 0l-1.258-.725-.158-.091-1.266-.733c-.084-.05-.084-.125 0-.175l1.416-.816a.34.34 0 0 1 .308 0l1.267.733.158.092 1.258.724c.084.05.092.125 0 .175zM23.974 37.744c.083.05.091.125 0 .175l-1.409.816a.34.34 0 0 1-.308 0l-1.416-.816c-.084-.05-.084-.125 0-.175l1.408-.816a.34.34 0 0 1 .308 0zm2.674 1.582c.084.05.092.124 0 .174l-1.408.816a.34.34 0 0 1-.308 0l-1.416-.816c-.084-.05-.084-.125 0-.175l1.408-.815a.34.34 0 0 1 .308 0zm2.666 1.481c.084.05.092.125 0 .175l-1.408.816a.34.34 0 0 1-.308 0l-1.416-.816c-.084-.05-.084-.125 0-.175l1.408-.815a.34.34 0 0 1 .308 0zm2.674 1.583c.084.05.092.124 0 .174l-1.408.816a.34.34 0 0 1-.308 0l-1.416-.816c-.084-.05-.084-.125 0-.175l1.407-.815a.34.34 0 0 1 .309 0zm2.675 1.548c.083.05.092.125 0 .175l-1.408.816a.34.34 0 0 1-.308 0l-1.417-.816c-.083-.05-.083-.125 0-.175l1.408-.816a.34.34 0 0 1 .309 0zm2.666 1.432c.083.05.092.125 0 .175l-1.408.816a.34.34 0 0 1-.308 0l-1.417-.816c-.083-.05-.083-.125 0-.175l1.408-.816a.34.34 0 0 1 .309 0zm2.675 1.565c.083.05.091.125 0 .175l-1.408.816a.34.34 0 0 1-.308 0l-1.417-.816c-.083-.05-.083-.125 0-.175l1.408-.816a.34.34 0 0 1 .308 0zm2.666 1.515c.083.05.091.125 0 .175l-1.408.816a.34.34 0 0 1-.309 0l-1.416-.816c-.083-.05-.083-.125 0-.175l1.408-.816a.34.34 0 0 1 .308 0zm2.674 1.573c.083.05.091.125 0 .175l-1.408.816a.34.34 0 0 1-.309 0l-1.416-.816c-.083-.05-.083-.125 0-.175l1.408-.816a.34.34 0 0 1 .308 0zm2.674 1.582c.084.05.092.125 0 .175l-1.408.816a.34.34 0 0 1-.308 0l-1.416-.816c-.084-.05-.084-.125 0-.175l1.408-.816a.34.34 0 0 1 .308 0zm2.666 1.557c.084.05.092.125 0 .175l-1.408.816a.34.34 0 0 1-.308 0l-1.416-.816c-.084-.05-.084-.125 0-.175l1.408-.816a.34.34 0 0 1 .308 0zm2.676 1.624c.083.05.09.124 0 .174l-1.409.816a.34.34 0 0 1-.308 0l-1.416-.816c-.084-.05-.084-.125 0-.175l1.408-.815a.34.34 0 0 1 .308 0zm2.665 1.598c.084.05.092.125 0 .175l-1.408.816a.34.34 0 0 1-.308 0l-1.416-.816c-.084-.05-.084-.125 0-.175l1.408-.816a.34.34 0 0 1 .308 0zM58.7 57.89c.083.05.092.126 0 .176l-1.408.816a.34.34 0 0 1-.308 0l-1.417-.816c-.083-.05-.083-.125 0-.175l1.408-.816a.34.34 0 0 1 .309 0zM18.634 40.516c.083.05.091.125 0 .175l-1.408.816a.34.34 0 0 1-.309 0l-1.416-.816c-.083-.05-.083-.125 0-.175l1.408-.816a.34.34 0 0 1 .308 0zm2.666 1.583c.083.05.091.124 0 .174l-1.408.816a.34.34 0 0 1-.309 0l-1.416-.816c-.083-.05-.083-.125 0-.175l1.408-.815a.34.34 0 0 1 .308 0zm2.675 1.481c.083.05.091.125 0 .175l-1.409.816a.34.34 0 0 1-.308 0l-1.416-.816c-.083-.05-.083-.125 0-.175l1.408-.816a.34.34 0 0 1 .308 0zm2.673 1.582c.084.05.092.125 0 .175l-1.408.816a.34.34 0 0 1-.308 0l-1.416-.816c-.084-.05-.084-.125 0-.175l1.408-.816a.34.34 0 0 1 .308 0zm2.667 1.548c.084.05.092.125 0 .175l-1.408.816a.34.34 0 0 1-.308 0l-1.416-.816c-.084-.05-.084-.125 0-.175l1.408-.816a.34.34 0 0 1 .308 0zm2.675 1.432c.082.05.09.125 0 .175l-1.409.816a.34.34 0 0 1-.308 0l-1.417-.816c-.083-.05-.083-.125 0-.175l1.409-.816a.34.34 0 0 1 .308 0zm2.674 1.565c.083.05.092.125 0 .175l-1.408.816a.34.34 0 0 1-.308 0l-1.417-.816c-.083-.05-.083-.125 0-.175l1.408-.816a.34.34 0 0 1 .309 0zm2.666 1.516c.083.05.092.124 0 .174l-1.408.816a.34.34 0 0 1-.308 0l-1.417-.816c-.083-.05-.083-.125 0-.175l1.408-.815a.34.34 0 0 1 .309 0zm2.674 1.573c.083.05.091.125 0 .175l-1.408.816a.34.34 0 0 1-.308 0l-1.417-.816c-.083-.05-.083-.125 0-.175l1.408-.816a.34.34 0 0 1 .308 0zm2.666 1.582c.083.05.091.125 0 .175l-1.408.815a.34.34 0 0 1-.309 0l-1.416-.815c-.083-.05-.083-.125 0-.175l1.408-.816a.34.34 0 0 1 .308 0zm2.675 1.557c.083.05.091.125 0 .175l-1.408.816a.34.34 0 0 1-.309 0l-1.416-.816c-.083-.05-.083-.125 0-.175l1.408-.816a.34.34 0 0 1 .308 0zm2.675 1.623c.083.05.091.125 0 .175l-1.409.816a.34.34 0 0 1-.308 0l-1.416-.816c-.084-.05-.084-.125 0-.175l1.408-.816a.34.34 0 0 1 .308 0zm2.665 1.599c.084.05.092.124 0 .174l-1.408.816a.34.34 0 0 1-.308 0l-1.416-.816c-.084-.05-.084-.125 0-.175l1.408-.815a.34.34 0 0 1 .308 0zm2.675 1.506c.084.05.092.125 0 .175l-1.408.816a.34.34 0 0 1-.308 0l-1.416-.816c-.084-.05-.084-.125 0-.175l1.408-.816a.34.34 0 0 1 .308 0z"/><path fill="#5e2ad6" d="M30.155 34.23c.083.05.092.126 0 .176l-1.408.816a.34.34 0 0 1-.308 0l-1.417-.816c-.083-.05-.083-.125 0-.175l1.409-.816a.34.34 0 0 1 .308 0z"/><path fill="url(#c)" d="M30.155 34.23c.083.05.092.126 0 .176l-1.408.816a.34.34 0 0 1-.308 0l-1.417-.816c-.083-.05-.083-.125 0-.175l1.409-.816a.34.34 0 0 1 .308 0z"/><path fill="#5e2ad6" d="M65.314 54.303c.084.05.092.124 0 .174l-1.408.816a.34.34 0 0 1-.308 0l-1.416-.816c-.084-.05-.084-.124 0-.174l1.408-.816a.34.34 0 0 1 .308 0z"/><path fill="url(#d)" d="M65.314 54.303c.084.05.092.125 0 .175l-1.408.816a.34.34 0 0 1-.308 0l-1.416-.816c-.084-.05-.084-.125 0-.175l1.408-.816a.34.34 0 0 1 .308 0z"/><path fill="url(#e)" d="m69.839 23.541-.083 29.58c0 .2-.075.34-.184.416l-1.308.757c-.1.092-.25.109-.416.042l.058.033c.183.109.267.242.267.375v.033-.016 1.848c0 .133-.092.266-.267.366L42.27 71.835c-.35.209-.933.209-1.283 0L2.203 49.5c-.175-.1-.266-.233-.266-.366V47.26c0-.134.091-.275.266-.375l25.636-14.86c.325-.184.825-.2 1.184-.05l-.05-.025c-.35-.209-.642-.7-.642-1.108l.083-29.579c0-.216.084-.366.209-.425.016-.008.041-.016.066-.025a.2.2 0 0 0-.058.017l1.391-.807q.165-.05.392.074l38.784 22.337c.358.208.641.7.641 1.107" opacity=".7"/><path fill="url(#f)" d="m69.839 23.533-.083 29.58c0 .2-.075.34-.184.416l-1.308.757c-.1.092-.25.108-.416.042l.058.033c.183.108.267.242.267.375v.033-.017V56.6c0 .134-.092.267-.267.367L42.27 71.827c-.35.208-.933.208-1.283 0L2.203 49.491c-.175-.1-.266-.233-.266-.367v-1.873c0-.133.091-.274.266-.374l25.636-14.86c.325-.184.825-.2 1.184-.05l-.05-.026c-.35-.208-.642-.699-.642-1.107l.083-29.58c0-.216.084-.366.209-.424l.066-.025a.2.2 0 0 0-.058.017l1.391-.808q.165-.05.392.075l38.784 22.337c.358.208.641.699.641 1.107"/><path fill="#6e17ff" fill-opacity=".2" d="M39.2 13.788c0-1.538 1.663-2.5 2.996-1.734L63.573 24.35a2 2 0 0 1 1.003 1.734v17.618c0 1.538-1.664 2.5-2.997 1.734L40.201 33.139a2 2 0 0 1-1.003-1.733z"/><path fill="#6e17ff" fill-opacity=".8" d="M38.076 14.462c0-1.539 1.664-2.501 2.997-1.734L62.45 25.024a2 2 0 0 1 1.003 1.734v17.618c0 1.538-1.664 2.5-2.998 1.733L39.08 33.814a2 2 0 0 1-1.003-1.733z"/><g filter="url(#g)"><g filter="url(#h)"><path fill="#fff" fill-rule="evenodd" d="M39.902 16.844a.225.225 0 0 1 .307-.084l.224.128a.225.225 0 0 1-.222.39l-.225-.128a.224.224 0 0 1-.084-.306m4.716 2.694a.225.225 0 0 1 .307-.084l2.246 1.283a.224.224 0 1 1-.223.39l-2.246-1.283a.225.225 0 0 1-.084-.306m3.144 1.795a.225.225 0 0 1 .307-.083l.673.385a.225.225 0 0 1-.222.39l-.674-.385a.225.225 0 0 1-.084-.307m1.576.9a.225.225 0 0 1 .307-.083l1.792 1.024a.225.225 0 0 1-.222.39l-1.793-1.024a.224.224 0 0 1-.084-.306m2.691 1.538a.224.224 0 0 1 .307-.084l.224.128a.224.224 0 1 1-.223.39l-.224-.128a.225.225 0 0 1-.084-.306m1.123.641a.225.225 0 0 1 .306-.084l2.47 1.411a.225.225 0 0 1-.222.39l-2.47-1.41a.225.225 0 0 1-.084-.307m3.369 1.924a.225.225 0 0 1 .306-.083l1.572.897a.225.225 0 0 1-.223.39l-1.572-.898a.225.225 0 0 1-.083-.306m2.47 1.411a.225.225 0 0 1 .306-.084l1.648.942a.225.225 0 1 1-.223.39l-1.647-.942a.225.225 0 0 1-.084-.306" clip-rule="evenodd"/></g><g filter="url(#i)"><path fill="#fff" fill-rule="evenodd" d="M39.902 19.539a.225.225 0 0 1 .307-.084l1.123.641a.225.225 0 0 1-.223.39l-1.123-.641a.225.225 0 0 1-.084-.306m2.022 1.154a.225.225 0 0 1 .306-.084l2.92 1.668a.225.225 0 0 1-.223.39l-2.92-1.668a.225.225 0 0 1-.083-.306m3.817 2.18a.225.225 0 0 1 .307-.083l3.597 2.055a.225.225 0 0 1-.223.39l-3.597-2.055a.225.225 0 0 1-.084-.306m4.492 2.566a.225.225 0 0 1 .306-.083l1.347.77a.224.224 0 1 1-.222.39l-1.348-.77a.225.225 0 0 1-.083-.307m2.25 1.286a.225.225 0 0 1 .307-.084l3.588 2.05a.225.225 0 0 1-.223.39l-3.588-2.05a.224.224 0 0 1-.084-.306m4.487 2.563a.225.225 0 0 1 .306-.084l3.669 2.095a.225.225 0 1 1-.223.39l-3.669-2.095a.225.225 0 0 1-.083-.306" clip-rule="evenodd"/></g><g filter="url(#j)"><path fill="#fff" fill-rule="evenodd" d="M39.902 27.623a.225.225 0 0 1 .307-.084l1.123.642a.225.225 0 0 1-.223.39l-1.123-.642a.225.225 0 0 1-.084-.306m5.84 3.335a.225.225 0 0 1 .306-.083l3.597 2.054a.225.225 0 0 1-.223.39l-3.597-2.054a.225.225 0 0 1-.084-.307m4.49 2.566a.225.225 0 0 1 .307-.084l1.347.77a.225.225 0 0 1-.222.39l-1.348-.77a.225.225 0 0 1-.083-.306m2.252 1.285a.224.224 0 0 1 .306-.083l2.69 1.536a.225.225 0 1 1-.223.39l-2.69-1.536a.225.225 0 0 1-.084-.307m3.587 2.05a.225.225 0 0 1 .307-.084l.898.513a.225.225 0 0 1-.223.39l-.898-.513a.225.225 0 0 1-.084-.306m1.797 1.026a.225.225 0 0 1 .306-.084l2.77 1.583a.225.225 0 1 1-.222.39l-2.77-1.583a.225.225 0 0 1-.084-.306" clip-rule="evenodd"/></g><g filter="url(#k)"><path fill="#fff" fill-rule="evenodd" d="M39.902 22.233a.225.225 0 0 1 .307-.083l.224.128a.224.224 0 1 1-.222.39l-.225-.128a.225.225 0 0 1-.084-.307m1.123.642a.225.225 0 0 1 .307-.084l2.47 1.411a.225.225 0 1 1-.223.39l-2.47-1.41a.225.225 0 0 1-.084-.307m3.369 1.924a.225.225 0 0 1 .306-.084l3.144 1.796a.225.225 0 1 1-.223.39l-3.144-1.796a.225.225 0 0 1-.083-.306m10.33 5.9a.225.225 0 0 1 .307-.083l2.477 1.415a.225.225 0 1 1-.223.39l-2.477-1.415a.225.225 0 0 1-.084-.306m3.369 1.925a.225.225 0 0 1 .306-.084l2.546 1.454a.225.225 0 0 1-.223.39l-2.546-1.454a.224.224 0 0 1-.083-.306" clip-rule="evenodd"/></g><g filter="url(#l)"><path fill="#fff" fill-rule="evenodd" d="M39.902 24.928a.225.225 0 0 1 .307-.083l.673.384a.225.225 0 0 1-.222.39l-.674-.384a.225.225 0 0 1-.084-.307m6.064 3.464a.225.225 0 0 1 .306-.084l1.8 1.028a.225.225 0 0 1-.223.39l-1.8-1.028a.225.225 0 0 1-.083-.306m2.695 1.539a.225.225 0 0 1 .306-.084l4.042 2.31a.225.225 0 0 1-.222.39l-4.043-2.31a.225.225 0 0 1-.083-.306m6.512 3.72a.224.224 0 0 1 .307-.084l3.817 2.181a.225.225 0 0 1-.222.39l-3.818-2.18a.225.225 0 0 1-.084-.307m4.716 2.694a.224.224 0 0 1 .307-.084l.749.428a.225.225 0 1 1-.223.39l-.75-.428a.225.225 0 0 1-.083-.306" clip-rule="evenodd"/></g><path fill="#fff" fill-rule="evenodd" d="M39.902 30.318a.225.225 0 0 1 .307-.084l.673.385a.225.225 0 0 1-.222.39l-.674-.385a.225.225 0 0 1-.084-.306m3.146 1.796a.225.225 0 0 1 .306-.083l.672.384a.225.225 0 0 1-.222.39l-.673-.384a.225.225 0 0 1-.083-.307m4.265 2.437a.225.225 0 0 1 .307-.084l2.47 1.411a.225.225 0 0 1-.223.39l-2.47-1.41a.225.225 0 0 1-.084-.307m3.369 1.924a.225.225 0 0 1 .306-.084l2.246 1.283a.225.225 0 1 1-.223.39l-2.246-1.282a.225.225 0 0 1-.083-.307m3.144 1.796a.225.225 0 0 1 .306-.084l.674.385a.225.225 0 1 1-.223.39l-.674-.385a.225.225 0 0 1-.083-.306m1.572.898a.225.225 0 0 1 .306-.084l.674.385a.225.225 0 1 1-.223.39l-.674-.385a.225.225 0 0 1-.083-.306m1.572.898a.225.225 0 0 1 .306-.084l3.669 2.096a.225.225 0 1 1-.223.39l-3.669-2.096a.224.224 0 0 1-.083-.306" clip-rule="evenodd"/></g><g filter="url(#m)"><g filter="url(#n)"><path fill="#ffc1ff" fill-rule="evenodd" d="M41.475 25.827a.225.225 0 0 1 .306-.084l1.377.786a.225.225 0 0 1-.223.39l-1.377-.786a.224.224 0 0 1-.083-.306" clip-rule="evenodd"/></g><g filter="url(#o)"><path fill="#ffc1ff" fill-rule="evenodd" d="M41.475 31.216a.225.225 0 0 1 .306-.083l.674.384a.225.225 0 0 1-.223.39l-.674-.384a.225.225 0 0 1-.083-.307m3.146 1.797a.225.225 0 0 1 .306-.083l1.795 1.025a.225.225 0 0 1-.223.39l-1.795-1.025a.225.225 0 0 1-.083-.307" clip-rule="evenodd"/></g><g filter="url(#p)"><path fill="#ffc1ff" fill-rule="evenodd" d="M50.457 28.263a.225.225 0 0 1 .306-.084l3.37 1.924a.225.225 0 0 1-.224.39l-3.368-1.924a.225.225 0 0 1-.084-.306" clip-rule="evenodd"/></g><g filter="url(#q)"><path fill="#ffc1ff" fill-rule="evenodd" d="M53.6 32.753a.224.224 0 0 1 .307-.083l.674.385a.225.225 0 0 1-.223.39l-.674-.385a.225.225 0 0 1-.083-.307" clip-rule="evenodd"/></g><g filter="url(#r)"><path fill="#ffc1ff" fill-rule="evenodd" d="M41.026 17.485a.225.225 0 0 1 .306-.083l2.695 1.539a.225.225 0 0 1-.223.39l-2.695-1.54a.224.224 0 0 1-.084-.306" clip-rule="evenodd"/></g><g filter="url(#s)"><path fill="#ffc1ff" fill-rule="evenodd" d="M41.923 28.778a.225.225 0 0 1 .306-.084l2.92 1.668a.225.225 0 1 1-.223.39l-2.92-1.668a.225.225 0 0 1-.083-.306" clip-rule="evenodd"/></g></g><path fill="#00fdfe" fill-opacity=".8" d="M36.729 11.55c0-1.54 1.667-2.502 3-1.732l2.737 1.582a2 2 0 0 1 1 1.731v.47c0 1.54-1.668 2.503-3 1.733l-2.738-1.582a2 2 0 0 1-1-1.732z"/><path fill="#fff" d="m39.783 12.542-1.258-.137-.042-.492.913.139-.78-.985.17-.351 1.07 1.396zm.399.371 1.572.905v.422l-1.572-.908z"/></g><defs><filter id="b" width="68.716" height="41.596" x=".81" y="31.772" color-interpolation-filters="sRGB" filterUnits="userSpaceOnUse"><feFlood flood-opacity="0" result="BackgroundImageFix"/><feColorMatrix in="SourceAlpha" result="hardAlpha" values="0 0 0 0 0 0 0 0 0 0 0 0 0 0 0 0 0 0 127 0"/><feOffset dx=".13" dy=".13"/><feGaussianBlur stdDeviation=".62"/><feColorMatrix values="0 0 0 0 0 0 0 0 0 0 0 0 0 0 0 0 0 0 0.2 0"/><feBlend in2="BackgroundImageFix" result="effect1_dropShadow_11114_7617"/><feBlend in="SourceGraphic" in2="effect1_dropShadow_11114_7617" result="shape"/></filter><filter id="g" width="29.186" height="33.768" x="35.873" y="12.73" color-interpolation-filters="sRGB" filterUnits="userSpaceOnUse"><feFlood flood-opacity="0" result="BackgroundImageFix"/><feColorMatrix in="SourceAlpha" result="hardAlpha" values="0 0 0 0 0 0 0 0 0 0 0 0 0 0 0 0 0 0 127 0"/><feOffset/><feGaussianBlur stdDeviation="2"/><feComposite in2="hardAlpha" operator="out"/><feColorMatrix values="0 0 0 0 1 0 0 0 0 1 0 0 0 0 1 0 0 0 0.6 0"/><feBlend in2="BackgroundImageFix" result="effect1_dropShadow_11114_7617"/><feBlend in="SourceGraphic" in2="effect1_dropShadow_11114_7617" result="shape"/></filter><filter id="h" width="41.185" height="32.294" x="34.873" y="6.73" color-interpolation-filters="sRGB" filterUnits="userSpaceOnUse"><feFlood flood-opacity="0" result="BackgroundImageFix"/><feColorMatrix in="SourceAlpha" result="hardAlpha" values="0 0 0 0 0 0 0 0 0 0 0 0 0 0 0 0 0 0 127 0"/><feOffset dx="5"/><feGaussianBlur stdDeviation="5"/><feComposite in2="hardAlpha" operator="out"/><feColorMatrix values="0 0 0 0 1 0 0 0 0 1 0 0 0 0 1 0 0 0 0.25 0"/><feBlend in2="BackgroundImageFix" result="effect1_dropShadow_11114_7617"/><feBlend in="SourceGraphic" in2="effect1_dropShadow_11114_7617" result="shape"/></filter><filter id="i" width="41.185" height="32.294" x="34.873" y="9.425" color-interpolation-filters="sRGB" filterUnits="userSpaceOnUse"><feFlood flood-opacity="0" result="BackgroundImageFix"/><feColorMatrix in="SourceAlpha" result="hardAlpha" values="0 0 0 0 0 0 0 0 0 0 0 0 0 0 0 0 0 0 127 0"/><feOffset dx="5"/><feGaussianBlur stdDeviation="5"/><feComposite in2="hardAlpha" operator="out"/><feColorMatrix values="0 0 0 0 1 0 0 0 0 1 0 0 0 0 1 0 0 0 0.25 0"/><feBlend in2="BackgroundImageFix" result="effect1_dropShadow_11114_7617"/><feBlend in="SourceGraphic" in2="effect1_dropShadow_11114_7617" result="shape"/></filter><filter id="j" width="41.185" height="32.294" x="34.873" y="17.51" color-interpolation-filters="sRGB" filterUnits="userSpaceOnUse"><feFlood flood-opacity="0" result="BackgroundImageFix"/><feColorMatrix in="SourceAlpha" result="hardAlpha" values="0 0 0 0 0 0 0 0 0 0 0 0 0 0 0 0 0 0 127 0"/><feOffset dx="5"/><feGaussianBlur stdDeviation="5"/><feComposite in2="hardAlpha" operator="out"/><feColorMatrix values="0 0 0 0 1 0 0 0 0 1 0 0 0 0 1 0 0 0 0.25 0"/><feBlend in2="BackgroundImageFix" result="effect1_dropShadow_11114_7617"/><feBlend in="SourceGraphic" in2="effect1_dropShadow_11114_7617" result="shape"/></filter><filter id="k" width="41.185" height="32.294" x="34.873" y="12.12" color-interpolation-filters="sRGB" filterUnits="userSpaceOnUse"><feFlood flood-opacity="0" result="BackgroundImageFix"/><feColorMatrix in="SourceAlpha" result="hardAlpha" values="0 0 0 0 0 0 0 0 0 0 0 0 0 0 0 0 0 0 127 0"/><feOffset dx="5"/><feGaussianBlur stdDeviation="5"/><feComposite in2="hardAlpha" operator="out"/><feColorMatrix values="0 0 0 0 1 0 0 0 0 1 0 0 0 0 1 0 0 0 0.25 0"/><feBlend in2="BackgroundImageFix" result="effect1_dropShadow_11114_7617"/><feBlend in="SourceGraphic" in2="effect1_dropShadow_11114_7617" result="shape"/></filter><filter id="l" width="41.185" height="32.294" x="34.873" y="14.815" color-interpolation-filters="sRGB" filterUnits="userSpaceOnUse"><feFlood flood-opacity="0" result="BackgroundImageFix"/><feColorMatrix in="SourceAlpha" result="hardAlpha" values="0 0 0 0 0 0 0 0 0 0 0 0 0 0 0 0 0 0 127 0"/><feOffset dx="5"/><feGaussianBlur stdDeviation="5"/><feComposite in2="hardAlpha" operator="out"/><feColorMatrix values="0 0 0 0 1 0 0 0 0 1 0 0 0 0 1 0 0 0 0.25 0"/><feBlend in2="BackgroundImageFix" result="effect1_dropShadow_11114_7617"/><feBlend in="SourceGraphic" in2="effect1_dropShadow_11114_7617" result="shape"/></filter><filter id="m" width="21.698" height="25.002" x="36.996" y="13.372" color-interpolation-filters="sRGB" filterUnits="userSpaceOnUse"><feFlood flood-opacity="0" result="BackgroundImageFix"/><feColorMatrix in="SourceAlpha" result="hardAlpha" values="0 0 0 0 0 0 0 0 0 0 0 0 0 0 0 0 0 0 127 0"/><feOffset/><feGaussianBlur stdDeviation="2"/><feComposite in2="hardAlpha" operator="out"/><feColorMatrix values="0 0 0 0 1 0 0 0 0 0.756863 0 0 0 0 1 0 0 0 0.6 0"/><feBlend in2="BackgroundImageFix" result="effect1_dropShadow_11114_7617"/><feBlend in="SourceGraphic" in2="effect1_dropShadow_11114_7617" result="shape"/></filter><filter id="n" width="21.825" height="21.236" x="36.445" y="15.713" color-interpolation-filters="sRGB" filterUnits="userSpaceOnUse"><feFlood flood-opacity="0" result="BackgroundImageFix"/><feColorMatrix in="SourceAlpha" result="hardAlpha" values="0 0 0 0 0 0 0 0 0 0 0 0 0 0 0 0 0 0 127 0"/><feOffset dx="5"/><feGaussianBlur stdDeviation="5"/><feComposite in2="hardAlpha" operator="out"/><feColorMatrix values="0 0 0 0 1 0 0 0 0 1 0 0 0 0 1 0 0 0 0.25 0"/><feBlend in2="BackgroundImageFix" result="effect1_dropShadow_11114_7617"/><feBlend in="SourceGraphic" in2="effect1_dropShadow_11114_7617" result="shape"/></filter><filter id="o" width="25.39" height="23.271" x="36.445" y="21.103" color-interpolation-filters="sRGB" filterUnits="userSpaceOnUse"><feFlood flood-opacity="0" result="BackgroundImageFix"/><feColorMatrix in="SourceAlpha" result="hardAlpha" values="0 0 0 0 0 0 0 0 0 0 0 0 0 0 0 0 0 0 127 0"/><feOffset dx="5"/><feGaussianBlur stdDeviation="5"/><feComposite in2="hardAlpha" operator="out"/><feColorMatrix values="0 0 0 0 1 0 0 0 0 1 0 0 0 0 1 0 0 0 0.25 0"/><feBlend in2="BackgroundImageFix" result="effect1_dropShadow_11114_7617"/><feBlend in="SourceGraphic" in2="effect1_dropShadow_11114_7617" result="shape"/></filter><filter id="p" width="23.817" height="22.373" x="45.428" y="18.149" color-interpolation-filters="sRGB" filterUnits="userSpaceOnUse"><feFlood flood-opacity="0" result="BackgroundImageFix"/><feColorMatrix in="SourceAlpha" result="hardAlpha" values="0 0 0 0 0 0 0 0 0 0 0 0 0 0 0 0 0 0 127 0"/><feOffset dx="5"/><feGaussianBlur stdDeviation="5"/><feComposite in2="hardAlpha" operator="out"/><feColorMatrix values="0 0 0 0 1 0 0 0 0 1 0 0 0 0 1 0 0 0 0.25 0"/><feBlend in2="BackgroundImageFix" result="effect1_dropShadow_11114_7617"/><feBlend in="SourceGraphic" in2="effect1_dropShadow_11114_7617" result="shape"/></filter><filter id="q" width="21.123" height="20.834" x="48.571" y="22.64" color-interpolation-filters="sRGB" filterUnits="userSpaceOnUse"><feFlood flood-opacity="0" result="BackgroundImageFix"/><feColorMatrix in="SourceAlpha" result="hardAlpha" values="0 0 0 0 0 0 0 0 0 0 0 0 0 0 0 0 0 0 127 0"/><feOffset dx="5"/><feGaussianBlur stdDeviation="5"/><feComposite in2="hardAlpha" operator="out"/><feColorMatrix values="0 0 0 0 1 0 0 0 0 1 0 0 0 0 1 0 0 0 0.25 0"/><feBlend in2="BackgroundImageFix" result="effect1_dropShadow_11114_7617"/><feBlend in="SourceGraphic" in2="effect1_dropShadow_11114_7617" result="shape"/></filter><filter id="r" width="23.144" height="21.989" x="35.996" y="7.372" color-interpolation-filters="sRGB" filterUnits="userSpaceOnUse"><feFlood flood-opacity="0" result="BackgroundImageFix"/><feColorMatrix in="SourceAlpha" result="hardAlpha" values="0 0 0 0 0 0 0 0 0 0 0 0 0 0 0 0 0 0 127 0"/><feOffset dx="5"/><feGaussianBlur stdDeviation="5"/><feComposite in2="hardAlpha" operator="out"/><feColorMatrix values="0 0 0 0 1 0 0 0 0 1 0 0 0 0 1 0 0 0 0.25 0"/><feBlend in2="BackgroundImageFix" result="effect1_dropShadow_11114_7617"/><feBlend in="SourceGraphic" in2="effect1_dropShadow_11114_7617" result="shape"/></filter><filter id="s" width="23.368" height="22.117" x="36.894" y="18.665" color-interpolation-filters="sRGB" filterUnits="userSpaceOnUse"><feFlood flood-opacity="0" result="BackgroundImageFix"/><feColorMatrix in="SourceAlpha" result="hardAlpha" values="0 0 0 0 0 0 0 0 0 0 0 0 0 0 0 0 0 0 127 0"/><feOffset dx="5"/><feGaussianBlur stdDeviation="5"/><feComposite in2="hardAlpha" operator="out"/><feColorMatrix values="0 0 0 0 1 0 0 0 0 1 0 0 0 0 1 0 0 0 0.25 0"/><feBlend in2="BackgroundImageFix" result="effect1_dropShadow_11114_7617"/><feBlend in="SourceGraphic" in2="effect1_dropShadow_11114_7617" result="shape"/></filter><linearGradient id="c" x1="34.204" x2="25.948" y1="34.006" y2="34.465" gradientUnits="userSpaceOnUse"><stop offset=".4" stop-color="#fff" stop-opacity="0"/><stop offset=".76" stop-color="#fff" stop-opacity=".05"/><stop offset=".85" stop-color="#fff" stop-opacity=".26"/><stop offset=".95" stop-color="#fff" stop-opacity=".5"/><stop offset="1" stop-color="#fff" stop-opacity=".6"/></linearGradient><linearGradient id="d" x1="70.563" x2="60.675" y1="56.151" y2="53.592" gradientUnits="userSpaceOnUse"><stop offset=".4" stop-color="#fff" stop-opacity="0"/><stop offset=".76" stop-color="#fff" stop-opacity=".05"/><stop offset=".85" stop-color="#fff" stop-opacity=".26"/><stop offset=".95" stop-color="#fff" stop-opacity=".5"/><stop offset="1" stop-color="#fff" stop-opacity=".6"/></linearGradient><linearGradient id="e" x1="-5.287" x2="65.187" y1="-18.418" y2="75.21" gradientUnits="userSpaceOnUse"><stop offset=".25" stop-color="#387e8d" stop-opacity="0"/><stop offset=".75" stop-color="#387e8d" stop-opacity=".04"/><stop offset=".91" stop-color="#387e8d" stop-opacity=".43"/><stop offset="1" stop-color="#387e8d" stop-opacity=".6"/></linearGradient><linearGradient id="f" x1="58.708" x2="31.832" y1="15.1" y2="50.676" gradientUnits="userSpaceOnUse"><stop offset=".51" stop-color="#fff" stop-opacity="0"/><stop offset=".82" stop-color="#fff" stop-opacity=".1"/><stop offset=".87" stop-color="#fff" stop-opacity=".26"/><stop offset=".96" stop-color="#fff" stop-opacity=".5"/><stop offset="1" stop-color="#fff" stop-opacity=".6"/></linearGradient><clipPath id="a"><path fill="#fff" d="M0 0h72v72H0z"/></clipPath></defs></svg>