<svg xmlns="http://www.w3.org/2000/svg" width="72" height="72" fill="none" viewBox="0 0 72 72"><g clip-path="url(#a)"><path fill="#020204" d="M35.705 0c-1.687 0-3.38.332-4.91 1.159a9.04 9.04 0 0 0-3.778 3.929c-.821 1.654-1.142 3.42-1.192 5.366-.093 3.696.084 7.571.363 11.084.073 1.069.208 1.693.07 2.793-.456 2.334-2.498 3.904-3.589 5.954-1.2 2.261-1.707 4.818-2.613 7.214-.83 2.191-1.994 4.247-2.779 6.455-1.1 3.085-1.428 6.477-.703 9.672.554 2.436 1.71 4.72 3.268 6.674-.224.405-.444.818-.674 1.22-.723 1.247-1.606 2.43-2.017 3.812-.205.689-.287 1.425-.155 2.134s.492 1.387 1.055 1.837c.368.292.816.484 1.274.59s.934.13 1.406.121c1.792-.039 3.53-.582 5.262-1.037q1.545-.403 3.103-.726c3.695-.757 7.818-.453 11.247.042q1.742.266 3.456.684c1.79.433 3.57.984 5.409 1.037.484.014.973-.008 1.445-.112.473-.107.931-.298 1.308-.6.566-.45.926-1.13 1.058-1.839.132-.708.05-1.448-.158-2.14-.416-1.384-1.308-2.562-2.044-3.802-.293-.493-.563-.993-.853-1.485 2.222-2.495 4.011-5.38 5.046-8.55 1.128-3.46 1.336-7.186.86-10.795-.475-3.608-1.62-7.107-3.124-10.42-1.89-4.151-3.48-5.653-4.632-9.301-1.243-3.943-.217-8.61-1.142-12.184a12.5 12.5 0 0 0-1.533-3.44c-.793-1.245-1.8-2.36-2.995-3.225C40.537.737 38.14 0 35.705 0"/><path fill="#fdfdfb" d="M29.006 20.812c-.253.318-.416.7-.518 1.094a6 6 0 0 0-.151 1.21c-.031.813.02 1.64-.197 2.424-.231.838-.746 1.567-1.25 2.273-.874 1.226-1.757 2.486-2.187 3.929a7 7 0 0 0-.256 2.705 29 29 0 0 0-2.526 4.551c-1.063 2.41-1.791 4.975-2.047 7.597-.315 3.209.095 6.51 1.364 9.475.914 2.146 2.28 4.106 4.044 5.636a13.8 13.8 0 0 0 2.953 1.96c3.688 1.815 8.244 1.817 11.869-.115 1.896-1.01 3.496-2.486 5.037-3.98.928-.9 1.854-1.822 2.562-2.902 1.364-2.084 1.84-4.615 2.135-7.088.515-4.32.532-8.887-1.364-12.805a14.1 14.1 0 0 0-2.565-3.67 20 20 0 0 0-1.62-5.462c-.577-1.252-1.277-2.441-1.811-3.707-.22-.52-.41-1.055-.653-1.564s-.543-.998-.953-1.39a3.9 3.9 0 0 0-1.485-.863 6.4 6.4 0 0 0-1.705-.292c-1.156-.06-2.311.093-3.467.045-.92-.037-1.837-.197-2.757-.143-.458.028-.916.11-1.344.284a2.7 2.7 0 0 0-1.108.798"/><mask id="c" width="41" height="71" x="16" y="0" maskUnits="userSpaceOnUse" style="mask-type:luminance"><path fill="#fff" d="M35.705 0c-1.687 0-3.38.332-4.91 1.159a9.04 9.04 0 0 0-3.778 3.929c-.821 1.654-1.142 3.42-1.192 5.366-.093 3.696.084 7.571.363 11.084.073 1.069.208 1.693.07 2.793-.456 2.334-2.498 3.904-3.589 5.954-1.2 2.261-1.707 4.818-2.613 7.214-.83 2.191-1.994 4.247-2.779 6.455-1.1 3.085-1.428 6.477-.703 9.672.554 2.436 1.71 4.72 3.268 6.674-.224.405-.444.818-.674 1.22-.723 1.247-1.606 2.43-2.017 3.812-.205.689-.287 1.425-.155 2.134s.492 1.387 1.055 1.837c.368.292.816.484 1.274.59s.934.13 1.406.121c1.792-.039 3.53-.582 5.262-1.037q1.545-.403 3.103-.726c3.695-.757 7.818-.453 11.247.042q1.742.266 3.456.684c1.79.433 3.57.984 5.409 1.037.484.014.973-.008 1.445-.112.473-.107.931-.298 1.308-.6.566-.45.926-1.13 1.058-1.839.132-.708.05-1.448-.158-2.14-.416-1.384-1.308-2.562-2.044-3.802-.293-.493-.563-.993-.853-1.485 2.222-2.495 4.011-5.38 5.046-8.55 1.128-3.46 1.336-7.186.86-10.795-.475-3.608-1.62-7.107-3.124-10.42-1.89-4.151-3.48-5.653-4.632-9.301-1.243-3.943-.217-8.61-1.142-12.184a12.5 12.5 0 0 0-1.533-3.44c-.793-1.245-1.8-2.36-2.995-3.225C40.537.737 38.14 0 35.705 0"/></mask><g filter="url(#b)" mask="url(#c)" opacity=".25"><path fill="url(#e)" d="M24.939 32.394c.244.369-.155 1.643 5.585.827 0 0-1.01.11-2.002.34-1.544.518-2.889 1.095-3.93 1.86-1.026.759-1.78 1.746-2.722 2.593 0 0 1.527-2.79 1.907-3.631.383-.841-.062-.802.24-2.04.3-1.237 1.037-2.427 1.037-2.427s-.602 1.75-.115 2.478"/></g><mask id="g" width="41" height="71" x="16" y="0" maskUnits="userSpaceOnUse" style="mask-type:luminance"><path fill="#fff" d="M35.705 0c-1.687 0-3.38.332-4.91 1.159a9.04 9.04 0 0 0-3.778 3.929c-.821 1.654-1.142 3.42-1.192 5.366-.093 3.696.084 7.571.363 11.084.073 1.069.208 1.693.07 2.793-.456 2.334-2.498 3.904-3.589 5.954-1.2 2.261-1.707 4.818-2.613 7.214-.83 2.191-1.994 4.247-2.779 6.455-1.1 3.085-1.428 6.477-.703 9.672.554 2.436 1.71 4.72 3.268 6.674-.224.405-.444.818-.674 1.22-.723 1.247-1.606 2.43-2.017 3.812-.205.689-.287 1.425-.155 2.134s.492 1.387 1.055 1.837c.368.292.816.484 1.274.59s.934.13 1.406.121c1.792-.039 3.53-.582 5.262-1.037q1.545-.403 3.103-.726c3.695-.757 7.818-.453 11.247.042q1.742.266 3.456.684c1.79.433 3.57.984 5.409 1.037.484.014.973-.008 1.445-.112.473-.107.931-.298 1.308-.6.566-.45.926-1.13 1.058-1.839.132-.708.05-1.448-.158-2.14-.416-1.384-1.308-2.562-2.044-3.802-.293-.493-.563-.993-.853-1.485 2.222-2.495 4.011-5.38 5.046-8.55 1.128-3.46 1.336-7.186.86-10.795-.475-3.608-1.62-7.107-3.124-10.42-1.89-4.151-3.48-5.653-4.632-9.301-1.243-3.943-.217-8.61-1.142-12.184a12.5 12.5 0 0 0-1.533-3.44c-.793-1.245-1.8-2.36-2.995-3.225C40.537.737 38.14 0 35.705 0"/></mask><g filter="url(#f)" mask="url(#g)" opacity=".42"><path fill="url(#h)" d="M43.392 32.06c-1.17.815-1.857.72-3.274.877-1.42.16-5.26.101-5.26.101s.555-.008 1.79.22c1.231.23 3.743.45 5.157.987 1.418.54 1.932.695 2.793 1.237 1.224.774 2.124 1.986 3.294 2.835 0 0 .056-1.125-.417-1.966-.472-.84-1.744-2.165-2.117-3.403-.372-1.237-.552-3.667-.552-3.667s-.247 1.966-1.414 2.779"/></g><mask id="j" width="41" height="71" x="16" y="0" maskUnits="userSpaceOnUse" style="mask-type:luminance"><path fill="#fff" d="M35.705 0c-1.687 0-3.38.332-4.91 1.159a9.04 9.04 0 0 0-3.778 3.929c-.821 1.654-1.142 3.42-1.192 5.366-.093 3.696.084 7.571.363 11.084.073 1.069.208 1.693.07 2.793-.456 2.334-2.498 3.904-3.589 5.954-1.2 2.261-1.707 4.818-2.613 7.214-.83 2.191-1.994 4.247-2.779 6.455-1.1 3.085-1.428 6.477-.703 9.672.554 2.436 1.71 4.72 3.268 6.674-.224.405-.444.818-.674 1.22-.723 1.247-1.606 2.43-2.017 3.812-.205.689-.287 1.425-.155 2.134s.492 1.387 1.055 1.837c.368.292.816.484 1.274.59s.934.13 1.406.121c1.792-.039 3.53-.582 5.262-1.037q1.545-.403 3.103-.726c3.695-.757 7.818-.453 11.247.042q1.742.266 3.456.684c1.79.433 3.57.984 5.409 1.037.484.014.973-.008 1.445-.112.473-.107.931-.298 1.308-.6.566-.45.926-1.13 1.058-1.839.132-.708.05-1.448-.158-2.14-.416-1.384-1.308-2.562-2.044-3.802-.293-.493-.563-.993-.853-1.485 2.222-2.495 4.011-5.38 5.046-8.55 1.128-3.46 1.336-7.186.86-10.795-.475-3.608-1.62-7.107-3.124-10.42-1.89-4.151-3.48-5.653-4.632-9.301-1.243-3.943-.217-8.61-1.142-12.184a12.5 12.5 0 0 0-1.533-3.44c-.793-1.245-1.8-2.36-2.995-3.225C40.537.737 38.14 0 35.705 0"/></mask><g filter="url(#i)" mask="url(#j)" opacity=".2"><path fill="url(#k)" d="M32.392 30.322q-.067.527-.169 1.052a3 3 0 0 1-.135.506c-.064.163-.157.32-.287.436a1.5 1.5 0 0 1-.393.239 6 6 0 0 1-1.722.49q.355.025.712.064c.15.017.298.034.442.07.146.04.29.096.41.183.133.099.236.23.315.377.155.287.206.619.234.948.036.416.04.838.008 1.254.028-.278.087-.557.175-.821a3.6 3.6 0 0 1 .756-1.308c.138-.146.287-.284.45-.4a2.5 2.5 0 0 1 1.755-.424 2.73 2.73 0 0 1-1.744-.543 2.3 2.3 0 0 1-.624-.703 1.97 1.97 0 0 1-.183-1.42"/></g><mask id="m" width="41" height="71" x="16" y="0" maskUnits="userSpaceOnUse" style="mask-type:luminance"><path fill="#fff" d="M35.705 0c-1.687 0-3.38.332-4.91 1.159a9.04 9.04 0 0 0-3.778 3.929c-.821 1.654-1.142 3.42-1.192 5.366-.093 3.696.084 7.571.363 11.084.073 1.069.208 1.693.07 2.793-.456 2.334-2.498 3.904-3.589 5.954-1.2 2.261-1.707 4.818-2.613 7.214-.83 2.191-1.994 4.247-2.779 6.455-1.1 3.085-1.428 6.477-.703 9.672.554 2.436 1.71 4.72 3.268 6.674-.224.405-.444.818-.674 1.22-.723 1.247-1.606 2.43-2.017 3.812-.205.689-.287 1.425-.155 2.134s.492 1.387 1.055 1.837c.368.292.816.484 1.274.59s.934.13 1.406.121c1.792-.039 3.53-.582 5.262-1.037q1.545-.403 3.103-.726c3.695-.757 7.818-.453 11.247.042q1.742.266 3.456.684c1.79.433 3.57.984 5.409 1.037.484.014.973-.008 1.445-.112.473-.107.931-.298 1.308-.6.566-.45.926-1.13 1.058-1.839.132-.708.05-1.448-.158-2.14-.416-1.384-1.308-2.562-2.044-3.802-.293-.493-.563-.993-.853-1.485 2.222-2.495 4.011-5.38 5.046-8.55 1.128-3.46 1.336-7.186.86-10.795-.475-3.608-1.62-7.107-3.124-10.42-1.89-4.151-3.48-5.653-4.632-9.301-1.243-3.943-.217-8.61-1.142-12.184a12.5 12.5 0 0 0-1.533-3.44c-.793-1.245-1.8-2.36-2.995-3.225C40.537.737 38.14 0 35.705 0"/></mask><g filter="url(#l)" mask="url(#m)" opacity=".11"><path fill="#000" d="M30.896 38.57a21 21 0 0 0-.61 3.463c-.155 1.65-.119 3.313-.209 4.97-.073 1.403-.239 2.823.006 4.21.115.66.323 1.305.619 1.907q.07-.345.1-.695c.105-1.125-.084-2.253-.148-3.378-.113-1.974.16-3.948.273-5.923a36 36 0 0 0-.031-4.553"/></g><mask id="o" width="41" height="71" x="16" y="0" maskUnits="userSpaceOnUse" style="mask-type:luminance"><path fill="#fff" d="M35.705 0c-1.687 0-3.38.332-4.91 1.159a9.04 9.04 0 0 0-3.778 3.929c-.821 1.654-1.142 3.42-1.192 5.366-.093 3.696.084 7.571.363 11.084.073 1.069.208 1.693.07 2.793-.456 2.334-2.498 3.904-3.589 5.954-1.2 2.261-1.707 4.818-2.613 7.214-.83 2.191-1.994 4.247-2.779 6.455-1.1 3.085-1.428 6.477-.703 9.672.554 2.436 1.71 4.72 3.268 6.674-.224.405-.444.818-.674 1.22-.723 1.247-1.606 2.43-2.017 3.812-.205.689-.287 1.425-.155 2.134s.492 1.387 1.055 1.837c.368.292.816.484 1.274.59s.934.13 1.406.121c1.792-.039 3.53-.582 5.262-1.037q1.545-.403 3.103-.726c3.695-.757 7.818-.453 11.247.042q1.742.266 3.456.684c1.79.433 3.57.984 5.409 1.037.484.014.973-.008 1.445-.112.473-.107.931-.298 1.308-.6.566-.45.926-1.13 1.058-1.839.132-.708.05-1.448-.158-2.14-.416-1.384-1.308-2.562-2.044-3.802-.293-.493-.563-.993-.853-1.485 2.222-2.495 4.011-5.38 5.046-8.55 1.128-3.46 1.336-7.186.86-10.795-.475-3.608-1.62-7.107-3.124-10.42-1.89-4.151-3.48-5.653-4.632-9.301-1.243-3.943-.217-8.61-1.142-12.184a12.5 12.5 0 0 0-1.533-3.44c-.793-1.245-1.8-2.36-2.995-3.225C40.537.737 38.14 0 35.705 0"/></mask><g filter="url(#n)" mask="url(#o)" opacity=".75"><path fill="#7c7c7c" d="M50.648 36.908c.29-.045 2.064 1.465 1.822 2.028-.242.56-.7.222-1.026.225-.326.006-1.218.41-1.367.155-.152-.256.394-.852.678-1.353.23-.402-.394-1.01-.107-1.055"/></g><mask id="q" width="41" height="71" x="16" y="0" maskUnits="userSpaceOnUse" style="mask-type:luminance"><path fill="#fff" d="M35.705 0c-1.687 0-3.38.332-4.91 1.159a9.04 9.04 0 0 0-3.778 3.929c-.821 1.654-1.142 3.42-1.192 5.366-.093 3.696.084 7.571.363 11.084.073 1.069.208 1.693.07 2.793-.456 2.334-2.498 3.904-3.589 5.954-1.2 2.261-1.707 4.818-2.613 7.214-.83 2.191-1.994 4.247-2.779 6.455-1.1 3.085-1.428 6.477-.703 9.672.554 2.436 1.71 4.72 3.268 6.674-.224.405-.444.818-.674 1.22-.723 1.247-1.606 2.43-2.017 3.812-.205.689-.287 1.425-.155 2.134s.492 1.387 1.055 1.837c.368.292.816.484 1.274.59s.934.13 1.406.121c1.792-.039 3.53-.582 5.262-1.037q1.545-.403 3.103-.726c3.695-.757 7.818-.453 11.247.042q1.742.266 3.456.684c1.79.433 3.57.984 5.409 1.037.484.014.973-.008 1.445-.112.473-.107.931-.298 1.308-.6.566-.45.926-1.13 1.058-1.839.132-.708.05-1.448-.158-2.14-.416-1.384-1.308-2.562-2.044-3.802-.293-.493-.563-.993-.853-1.485 2.222-2.495 4.011-5.38 5.046-8.55 1.128-3.46 1.336-7.186.86-10.795-.475-3.608-1.62-7.107-3.124-10.42-1.89-4.151-3.48-5.653-4.632-9.301-1.243-3.943-.217-8.61-1.142-12.184a12.5 12.5 0 0 0-1.533-3.44c-.793-1.245-1.8-2.36-2.995-3.225C40.537.737 38.14 0 35.705 0"/></mask><g filter="url(#p)" mask="url(#q)"><path fill="#7c7c7c" d="M39.803 3.128c-.622.438-.352.987-.085 1.535.267.551-.588 2.135-.596 2.202s1.682-.801 2.143-1.37c.546-.666 1.921.906 1.845.667.003-.427-2.686-3.47-3.307-3.034"/></g><mask id="s" width="41" height="71" x="16" y="0" maskUnits="userSpaceOnUse" style="mask-type:luminance"><path fill="#fff" d="M35.705 0c-1.687 0-3.38.332-4.91 1.159a9.04 9.04 0 0 0-3.778 3.929c-.821 1.654-1.142 3.42-1.192 5.366-.093 3.696.084 7.571.363 11.084.073 1.069.208 1.693.07 2.793-.456 2.334-2.498 3.904-3.589 5.954-1.2 2.261-1.707 4.818-2.613 7.214-.83 2.191-1.994 4.247-2.779 6.455-1.1 3.085-1.428 6.477-.703 9.672.554 2.436 1.71 4.72 3.268 6.674-.224.405-.444.818-.674 1.22-.723 1.247-1.606 2.43-2.017 3.812-.205.689-.287 1.425-.155 2.134s.492 1.387 1.055 1.837c.368.292.816.484 1.274.59s.934.13 1.406.121c1.792-.039 3.53-.582 5.262-1.037q1.545-.403 3.103-.726c3.695-.757 7.818-.453 11.247.042q1.742.266 3.456.684c1.79.433 3.57.984 5.409 1.037.484.014.973-.008 1.445-.112.473-.107.931-.298 1.308-.6.566-.45.926-1.13 1.058-1.839.132-.708.05-1.448-.158-2.14-.416-1.384-1.308-2.562-2.044-3.802-.293-.493-.563-.993-.853-1.485 2.222-2.495 4.011-5.38 5.046-8.55 1.128-3.46 1.336-7.186.86-10.795-.475-3.608-1.62-7.107-3.124-10.42-1.89-4.151-3.48-5.653-4.632-9.301-1.243-3.943-.217-8.61-1.142-12.184a12.5 12.5 0 0 0-1.533-3.44c-.793-1.245-1.8-2.36-2.995-3.225C40.537.737 38.14 0 35.705 0"/></mask><g filter="url(#r)" mask="url(#s)"><path fill="#838384" d="M44.514 21.552c-.524.478.247 1.195.61 2.036.228.523.855 1.263 1.462 1.145.459-.09.74-.748.698-1.21-.084-.894-.838-1.105-1.387-1.411-.433-.242-1.015-.895-1.383-.56"/></g><path fill="#020204" d="M23.62 28.381c-1.716 1.946-3.48 3.834-4.447 5.94-.481 1.069-.706 2.23-1.035 3.355-.371 1.277-.878 2.515-1.446 3.718-.526 1.111-1.105 2.197-1.682 3.28-.421.79-.849 1.595-.995 2.478-.116.697-.05 1.417.13 2.1.176.684.46 1.337.784 1.964 1.372 2.686 3.434 4.998 5.875 6.77a21 21 0 0 0 3.538 2.067c.675.306 1.384.582 2.127.593.37.008.745-.053 1.085-.203.338-.148.641-.388.844-.7.247-.382.332-.858.281-1.31s-.228-.886-.464-1.275c-.58-.95-1.493-1.64-2.374-2.32a80 80 0 0 1-5.498-4.663c-.495-.464-.993-.94-1.339-1.524-.337-.568-.52-1.215-.644-1.865-.34-1.78-.253-3.653.352-5.363.239-.67.55-1.308.855-1.95.523-1.11 1.018-2.244 1.707-3.262.858-1.268 2.005-2.343 2.703-3.704.59-1.15.83-2.441 1.057-3.712.18-.996.52-1.97.695-2.965-.34.647-1.437 1.707-2.11 2.551"/><mask id="u" width="16" height="36" x="13" y="25" maskUnits="userSpaceOnUse" style="mask-type:luminance"><path fill="#fff" d="M23.62 28.381c-1.716 1.946-3.48 3.834-4.447 5.94-.481 1.069-.706 2.23-1.035 3.355-.371 1.277-.878 2.515-1.446 3.718-.526 1.111-1.105 2.197-1.682 3.28-.421.79-.849 1.595-.995 2.478-.116.697-.05 1.417.13 2.1.176.684.46 1.337.784 1.964 1.372 2.686 3.434 4.998 5.875 6.77a21 21 0 0 0 3.538 2.067c.675.306 1.384.582 2.127.593.37.008.745-.053 1.085-.203.338-.148.641-.388.844-.7.247-.382.332-.858.281-1.31s-.228-.886-.464-1.275c-.58-.95-1.493-1.64-2.374-2.32a80 80 0 0 1-5.498-4.663c-.495-.464-.993-.94-1.339-1.524-.337-.568-.52-1.215-.644-1.865-.34-1.78-.253-3.653.352-5.363.239-.67.55-1.308.855-1.95.523-1.11 1.018-2.244 1.707-3.262.858-1.268 2.005-2.343 2.703-3.704.59-1.15.83-2.441 1.057-3.712.18-.996.52-1.97.695-2.965-.34.647-1.437 1.707-2.11 2.551"/></mask><g filter="url(#t)" mask="url(#u)" opacity=".95"><path fill="#7c7c7c" d="M21.645 35.466a8 8 0 0 0-1.442 1.774c-.647 1.08-1.027 2.295-1.5 3.462-.348.87-.756 1.744-.804 2.68-.025.482.045.963.062 1.444.017.48-.028.981-.264 1.4a1.7 1.7 0 0 1-.906.762c.515.172.97.504 1.294.937.27.366.444.79.678 1.175.19.316.424.608.714.836.287.23.633.394.996.439a1.75 1.75 0 0 0 1.397-.445 32.8 32.8 0 0 1 1.25-13.041c.08-.265.165-.532.188-.808.02-.278-.034-.57-.203-.79a.84.84 0 0 0-.779-.329.86.86 0 0 0-.408.16.9.9 0 0 0-.273.343"/></g><path fill="#020204" d="M51.401 35.752c1.474 1.187 2.41 2.979 2.7 4.85.225 1.456.079 2.955-.25 4.392-.33 1.44-.835 2.83-1.342 4.219-.2.551-.402 1.11-.48 1.693-.082.585-.032 1.201.25 1.719.323.593.925 1 1.572 1.192a3.76 3.76 0 0 0 1.974.025c.647-.16 1.735-.368 2.261-.779 1.336-1.038 1.654-2.84 1.972-4.42.33-1.652.169-3.382-.12-5.05-.398-2.275-1.064-4.497-1.91-6.643a23 23 0 0 0-2.374-4.488c-.934-1.376-2.256-2.447-3.235-3.792-.34-.466-.748-.95-1.08-1.423-.72-1.018-.557-.826-1.004-1.487-.323-.479-.835-.642-1.372-.85-.54-.208-1.142-.27-1.699-.115-.731.205-1.33.785-1.648 1.474-.318.692-.374 1.485-.25 2.236.16.967.601 1.867 1.102 2.71.563.954 1.215 1.874 2.067 2.583.889.74 1.963 1.229 2.866 1.954"/><mask id="w" width="16" height="30" x="45" y="24" maskUnits="userSpaceOnUse" style="mask-type:luminance"><path fill="#fff" d="M51.401 35.752c1.474 1.187 2.41 2.979 2.7 4.85.225 1.456.079 2.955-.25 4.392-.33 1.44-.835 2.83-1.342 4.219-.2.551-.402 1.11-.48 1.693-.082.585-.032 1.201.25 1.719.323.593.925 1 1.572 1.192a3.76 3.76 0 0 0 1.974.025c.647-.16 1.735-.368 2.261-.779 1.336-1.038 1.654-2.84 1.972-4.42.33-1.652.169-3.382-.12-5.05-.398-2.275-1.064-4.497-1.91-6.643a23 23 0 0 0-2.374-4.488c-.934-1.376-2.256-2.447-3.235-3.792-.34-.466-.748-.95-1.08-1.423-.72-1.018-.557-.826-1.004-1.487-.323-.479-.835-.642-1.372-.85-.54-.208-1.142-.27-1.699-.115-.731.205-1.33.785-1.648 1.474-.318.692-.374 1.485-.25 2.236.16.967.601 1.867 1.102 2.71.563.954 1.215 1.874 2.067 2.583.889.74 1.963 1.229 2.866 1.954"/></mask><g filter="url(#v)" mask="url(#w)"><path fill="#838384" d="M47.93 33.466c.119.112.242.228.37.334.905.74 1.386 1.57 2.305 2.296 1.502 1.186 3.024 3.234 3.32 5.104.23 1.46-.074 2.253-.445 3.971-.371 1.722-1.423 4.157-1.994 5.817-.225.66.46.388.37 1.085a4 4 0 0 0-.008 1.032c.006-.064.009-.134.017-.2.11-.95.4-1.864.718-2.761.61-1.724 1.31-3.417 1.794-5.19.484-1.768.43-3.042.177-4.564-.318-1.915-1.431-3.681-3.007-4.849-1.116-.824-2.43-1.352-3.616-2.075"/></g><path fill="url(#x)" d="M15.463 49.312c.388-.16.824-.192 1.235-.116.413.076.804.256 1.15.49.695.472 1.21 1.158 1.702 1.839 1.133 1.558 2.222 3.15 3.212 4.804.801 1.344 1.535 2.73 2.463 3.988.605.824 1.286 1.586 1.893 2.405.608.82 1.145 1.71 1.415 2.694a5.4 5.4 0 0 1-.394 3.867 5.1 5.1 0 0 1-1.884 2.022c-.8.481-1.64.695-2.574.695-1.482 0-2.93-.796-4.309-1.344-2.806-1.12-5.855-1.469-8.75-2.34-.888-.268-1.763-.585-2.657-.83-.4-.11-.802-.205-1.178-.377-.377-.169-.729-.425-.937-.779a1.83 1.83 0 0 1-.225-.917c0-.32.079-.635.188-.934.217-.599.569-1.142.805-1.735.385-.967.455-2.033.402-3.074-.05-1.038-.22-2.07-.29-3.108-.033-.464-.045-.934.045-1.392.087-.456.284-.903.62-1.223.308-.299.716-.476 1.138-.563.42-.087.852-.09 1.28-.081.427.008.858.033 1.285-.003.428-.034.858-.13 1.23-.343.354-.203.643-.504.882-.833.24-.329.433-.689.633-1.046.197-.355.402-.709.664-1.024.259-.315.58-.588.956-.742"/><mask id="z" width="24" height="23" x="5" y="49" maskUnits="userSpaceOnUse" style="mask-type:luminance"><path fill="#fff" d="M15.463 49.312c.388-.16.824-.192 1.235-.116.413.076.804.256 1.15.49.695.472 1.21 1.158 1.702 1.839 1.133 1.558 2.222 3.15 3.212 4.804.801 1.344 1.535 2.73 2.463 3.988.605.824 1.286 1.586 1.893 2.405.608.82 1.145 1.71 1.415 2.694a5.4 5.4 0 0 1-.394 3.867 5.1 5.1 0 0 1-1.884 2.022c-.8.481-1.64.695-2.574.695-1.482 0-2.93-.796-4.309-1.344-2.806-1.12-5.855-1.469-8.75-2.34-.888-.268-1.763-.585-2.657-.83-.4-.11-.802-.205-1.178-.377-.377-.169-.729-.425-.937-.779a1.83 1.83 0 0 1-.225-.917c0-.32.079-.635.188-.934.217-.599.569-1.142.805-1.735.385-.967.455-2.033.402-3.074-.05-1.038-.22-2.07-.29-3.108-.033-.464-.045-.934.045-1.392.087-.456.284-.903.62-1.223.308-.299.716-.476 1.138-.563.42-.087.852-.09 1.28-.081.427.008.858.033 1.285-.003.428-.034.858-.13 1.23-.343.354-.203.643-.504.882-.833.24-.329.433-.689.633-1.046.197-.355.402-.709.664-1.024.259-.315.58-.588.956-.742"/></mask><g filter="url(#y)" mask="url(#z)"><path fill="#d99a03" d="M16.076 49.978c.352-.14.751-.157 1.12-.073a2.6 2.6 0 0 1 1.015.498c.602.464 1.018 1.117 1.42 1.76a116 116 0 0 1 2.79 4.743c.675 1.212 1.317 2.446 2.143 3.557.549.737 1.176 1.415 1.736 2.143.56.729 1.057 1.522 1.305 2.408a4.73 4.73 0 0 1-.36 3.448 4.6 4.6 0 0 1-1.744 1.823 4.5 4.5 0 0 1-2.444.602c-1.356-.062-2.596-.74-3.873-1.199-2.45-.888-5.102-1.01-7.616-1.701-.9-.245-1.778-.571-2.68-.799-.403-.101-.81-.186-1.19-.346s-.737-.408-.945-.765a1.7 1.7 0 0 1-.205-.886 2.8 2.8 0 0 1 .197-.897c.219-.574.562-1.091.781-1.665.335-.866.377-1.82.315-2.745-.061-.925-.225-1.845-.28-2.77-.023-.417-.029-.836.055-1.24.085-.409.262-.802.557-1.095.32-.318.76-.49 1.207-.56.444-.067.897-.036 1.344.003.45.04.9.09 1.35.065.45-.028.906-.138 1.277-.39.338-.229.59-.563.785-.92.194-.358.332-.743.48-1.12.147-.38.307-.757.538-1.094.23-.335.543-.63.922-.785"/></g><mask id="B" width="24" height="23" x="5" y="49" maskUnits="userSpaceOnUse" style="mask-type:luminance"><path fill="#fff" d="M15.463 49.312c.388-.16.824-.192 1.235-.116.413.076.804.256 1.15.49.695.472 1.21 1.158 1.702 1.839 1.133 1.558 2.222 3.15 3.212 4.804.801 1.344 1.535 2.73 2.463 3.988.605.824 1.286 1.586 1.893 2.405.608.82 1.145 1.71 1.415 2.694a5.4 5.4 0 0 1-.394 3.867 5.1 5.1 0 0 1-1.884 2.022c-.8.481-1.64.695-2.574.695-1.482 0-2.93-.796-4.309-1.344-2.806-1.12-5.855-1.469-8.75-2.34-.888-.268-1.763-.585-2.657-.83-.4-.11-.802-.205-1.178-.377-.377-.169-.729-.425-.937-.779a1.83 1.83 0 0 1-.225-.917c0-.32.079-.635.188-.934.217-.599.569-1.142.805-1.735.385-.967.455-2.033.402-3.074-.05-1.038-.22-2.07-.29-3.108-.033-.464-.045-.934.045-1.392.087-.456.284-.903.62-1.223.308-.299.716-.476 1.138-.563.42-.087.852-.09 1.28-.081.427.008.858.033 1.285-.003.428-.034.858-.13 1.23-.343.354-.203.643-.504.882-.833.24-.329.433-.689.633-1.046.197-.355.402-.709.664-1.024.259-.315.58-.588.956-.742"/></mask><g filter="url(#A)" mask="url(#B)"><path fill="#f5bd0c" d="M15.748 49.098a1.76 1.76 0 0 1 1.119-.127c.374.076.723.259 1.018.498.588.478.965 1.161 1.313 1.83.8 1.536 1.547 3.106 2.504 4.554.697 1.05 1.499 2.025 2.202 3.072.953 1.414 1.73 2.972 2.05 4.64.214 1.125.208 2.337-.332 3.347a3.7 3.7 0 0 1-1.617 1.552 4.16 4.16 0 0 1-2.227.414c-1.201-.104-2.29-.695-3.42-1.108-2.006-.729-4.174-.906-6.239-1.457-.869-.23-1.724-.532-2.604-.714-.39-.082-.788-.141-1.159-.282s-.723-.374-.914-.717a1.45 1.45 0 0 1-.157-.799c.02-.272.1-.54.208-.796.216-.506.534-.973.7-1.496.248-.773.146-1.609-.04-2.399-.182-.787-.45-1.56-.53-2.365a3.2 3.2 0 0 1 .047-1.075c.082-.351.248-.689.51-.939.337-.323.81-.486 1.282-.532.47-.044.942.017 1.409.085.466.067.939.14 1.409.118.472-.02.953-.143 1.322-.433.365-.287.596-.712.728-1.15.132-.442.174-.9.228-1.356.053-.456.12-.917.298-1.342.177-.424.475-.815.892-1.023"/></g><mask id="D" width="24" height="23" x="5" y="49" maskUnits="userSpaceOnUse" style="mask-type:luminance"><path fill="#fff" d="M15.463 49.312c.388-.16.824-.192 1.235-.116.413.076.804.256 1.15.49.695.472 1.21 1.158 1.702 1.839 1.133 1.558 2.222 3.15 3.212 4.804.801 1.344 1.535 2.73 2.463 3.988.605.824 1.286 1.586 1.893 2.405.608.82 1.145 1.71 1.415 2.694a5.4 5.4 0 0 1-.394 3.867 5.1 5.1 0 0 1-1.884 2.022c-.8.481-1.64.695-2.574.695-1.482 0-2.93-.796-4.309-1.344-2.806-1.12-5.855-1.469-8.75-2.34-.888-.268-1.763-.585-2.657-.83-.4-.11-.802-.205-1.178-.377-.377-.169-.729-.425-.937-.779a1.83 1.83 0 0 1-.225-.917c0-.32.079-.635.188-.934.217-.599.569-1.142.805-1.735.385-.967.455-2.033.402-3.074-.05-1.038-.22-2.07-.29-3.108-.033-.464-.045-.934.045-1.392.087-.456.284-.903.62-1.223.308-.299.716-.476 1.138-.563.42-.087.852-.09 1.28-.081.427.008.858.033 1.285-.003.428-.034.858-.13 1.23-.343.354-.203.643-.504.882-.833.24-.329.433-.689.633-1.046.197-.355.402-.709.664-1.024.259-.315.58-.588.956-.742"/></mask><g filter="url(#C)" mask="url(#D)"><path fill="url(#E)" d="M20.025 52.934c.633 1.142 1.019 2.453 1.646 3.606.576 1.06 1.232 2.151 1.817 3.127.261.436.869 1.105 1.482 2.143.557.94 1.12 2.253 1.434 2.695-.18-.518-.551-1.904-.995-2.891-.414-.923-.898-1.449-1.193-1.947-.585-.976-1.218-1.856-1.82-2.787-.83-1.285-1.462-2.723-2.37-3.946"/></g><mask id="G" width="41" height="71" x="16" y="0" maskUnits="userSpaceOnUse" style="mask-type:luminance"><path fill="#fff" d="M35.705 0c-1.687 0-3.38.332-4.91 1.159a9.04 9.04 0 0 0-3.778 3.929c-.821 1.654-1.142 3.42-1.192 5.366-.093 3.696.084 7.571.363 11.084.073 1.069.208 1.693.07 2.793-.456 2.334-2.498 3.904-3.589 5.954-1.2 2.261-1.707 4.818-2.613 7.214-.83 2.191-1.994 4.247-2.779 6.455-1.1 3.085-1.428 6.477-.703 9.672.554 2.436 1.71 4.72 3.268 6.674-.224.405-.444.818-.674 1.22-.723 1.247-1.606 2.43-2.017 3.812-.205.689-.287 1.425-.155 2.134s.492 1.387 1.055 1.837c.368.292.816.484 1.274.59s.934.13 1.406.121c1.792-.039 3.53-.582 5.262-1.037q1.545-.403 3.103-.726c3.695-.757 7.818-.453 11.247.042q1.742.266 3.456.684c1.79.433 3.57.984 5.409 1.037.484.014.973-.008 1.445-.112.473-.107.931-.298 1.308-.6.566-.45.926-1.13 1.058-1.839.132-.708.05-1.448-.158-2.14-.416-1.384-1.308-2.562-2.044-3.802-.293-.493-.563-.993-.853-1.485 2.222-2.495 4.011-5.38 5.046-8.55 1.128-3.46 1.336-7.186.86-10.795-.475-3.608-1.62-7.107-3.124-10.42-1.89-4.151-3.48-5.653-4.632-9.301-1.243-3.943-.217-8.61-1.142-12.184a12.5 12.5 0 0 0-1.533-3.44c-.793-1.245-1.8-2.36-2.995-3.225C40.537.737 38.14 0 35.705 0"/></mask><g filter="url(#F)" mask="url(#G)" opacity=".2"><path fill="url(#H)" d="M61.51 60.64a4 4 0 0 1-.51 1.07c-.492.728-1.21 1.279-1.923 1.785-1.218.864-2.49 1.657-3.626 2.638a18 18 0 0 0-2.095 2.174c-.549.664-1.066 1.361-1.693 1.952-.633.596-1.376 1.08-2.177 1.342-.976.317-2.005.303-2.945.062-.658-.17-1.302-.462-1.71-.993-.408-.532-.54-1.249-.588-1.952-.084-1.243.065-2.512.2-3.775.113-1.048.217-2.098.259-3.144.076-1.904-.05-3.788-.307-5.639-.045-.312-.09-.624-.065-.942.026-.32.133-.653.358-.9.208-.228.497-.363.784-.428.287-.067.58-.07.87-.078.683-.017 1.366-.06 2.038.003.425.036.841.115 1.263.154.706.068 1.44.034 2.15-.174.761-.225 1.487-.644 2.263-.76.318-.047.636-.042.945.003.315.042.63.13.872.324.186.146.32.346.425.56.157.32.253.672.31 1.034.047.321.067.65.148.96.135.509.444.942.813 1.293.371.352.801.63 1.235.906.43.273.863.543 1.322.768.216.106.438.202.644.323a1.7 1.7 0 0 1 .537.47c.185.267.258.618.202.964"/></g><path fill="url(#I)" d="M65.664 62.696c-.636.754-1.52 1.252-2.4 1.702-1.498.762-3.054 1.434-4.463 2.354a18.3 18.3 0 0 0-2.632 2.118c-.698.666-1.359 1.378-2.14 1.943-.79.571-1.702.985-2.667 1.128q-.4.06-.804.06c-.911 0-1.823-.22-2.66-.586-.76-.329-1.492-.804-1.93-1.507-.439-.71-.54-1.573-.54-2.408-.003-1.47.27-2.928.526-4.379.213-1.207.416-2.413.548-3.63.24-2.212.236-4.447.079-6.67-.028-.37-.06-.745-.003-1.113s.208-.737.49-.979c.261-.225.61-.326.956-.343.343-.02.686.034 1.026.084.802.119 1.612.209 2.397.417.494.129.978.303 1.47.438.827.223 1.69.33 2.537.231.914-.107 1.803-.45 2.723-.427.377.008.75.078 1.11.194.366.115.73.28 1 .556.205.209.348.47.455.743.16.405.247.838.284 1.271.03.386.025.776.098 1.156.121.622.45 1.193.855 1.68.408.489.895.902 1.381 1.31.487.408.973.813 1.496 1.17.245.169.498.326.732.509.233.185.447.4.593.658a1.53 1.53 0 0 1 .13 1.184c-.127.402-.36.793-.647 1.136"/><mask id="K" width="22" height="22" x="45" y="50" maskUnits="userSpaceOnUse" style="mask-type:luminance"><path fill="#fff" d="M65.664 62.696c-.636.754-1.52 1.252-2.4 1.702-1.498.762-3.054 1.434-4.463 2.354a18.3 18.3 0 0 0-2.632 2.118c-.698.666-1.359 1.378-2.14 1.943-.79.571-1.702.985-2.667 1.128q-.4.06-.804.06c-.911 0-1.823-.22-2.66-.586-.76-.329-1.492-.804-1.93-1.507-.439-.71-.54-1.573-.54-2.408-.003-1.47.27-2.928.526-4.379.213-1.207.416-2.413.548-3.63.24-2.212.236-4.447.079-6.67-.028-.37-.06-.745-.003-1.113s.208-.737.49-.979c.261-.225.61-.326.956-.343.343-.02.686.034 1.026.084.802.119 1.612.209 2.397.417.494.129.978.303 1.47.438.827.223 1.69.33 2.537.231.914-.107 1.803-.45 2.723-.427.377.008.75.078 1.11.194.366.115.73.28 1 .556.205.209.348.47.455.743.16.405.247.838.284 1.271.03.386.025.776.098 1.156.121.622.45 1.193.855 1.68.408.489.895.902 1.381 1.31.487.408.973.813 1.496 1.17.245.169.498.326.732.509.233.185.447.4.593.658a1.53 1.53 0 0 1 .13 1.184c-.127.402-.36.793-.647 1.136"/></mask><g filter="url(#J)" mask="url(#K)"><path fill="#cd8907" d="M65.59 60.784c-.148.374-.36.725-.624 1.032-.582.68-1.386 1.128-2.188 1.53-1.372.686-2.79 1.288-4.078 2.115-.86.554-1.66 1.204-2.404 1.907-.636.599-1.24 1.24-1.955 1.746-.723.515-1.555.884-2.433 1.013-1.069.157-2.171-.045-3.164-.47-.692-.298-1.361-.72-1.763-1.358-.4-.636-.493-1.412-.493-2.163-.005-1.325.245-2.635.481-3.937.197-1.083.383-2.169.5-3.263.215-1.991.206-4 .071-5.996-.022-.335-.048-.672.003-1.004.05-.332.188-.661.442-.88.239-.206.56-.296.874-.31.313-.017.625.034.937.079.734.107 1.47.188 2.188.374.453.118.894.275 1.344.394.754.202 1.544.298 2.318.208.835-.096 1.645-.405 2.483-.386.346.009.687.074 1.016.175.334.104.666.253.914.5.185.189.312.425.416.67.149.363.25.75.256 1.144.008.411-.079.822-.025 1.23.045.329.185.64.365.922.177.281.394.537.61.79.417.493.833.993 1.356 1.37.594.43 1.3.683 1.913 1.083.182.12.36.256.489.433.22.298.276.703.152 1.052"/></g><mask id="M" width="22" height="22" x="45" y="50" maskUnits="userSpaceOnUse" style="mask-type:luminance"><path fill="#fff" d="M65.664 62.696c-.636.754-1.52 1.252-2.4 1.702-1.498.762-3.054 1.434-4.463 2.354a18.3 18.3 0 0 0-2.632 2.118c-.698.666-1.359 1.378-2.14 1.943-.79.571-1.702.985-2.667 1.128q-.4.06-.804.06c-.911 0-1.823-.22-2.66-.586-.76-.329-1.492-.804-1.93-1.507-.439-.71-.54-1.573-.54-2.408-.003-1.47.27-2.928.526-4.379.213-1.207.416-2.413.548-3.63.24-2.212.236-4.447.079-6.67-.028-.37-.06-.745-.003-1.113s.208-.737.49-.979c.261-.225.61-.326.956-.343.343-.02.686.034 1.026.084.802.119 1.612.209 2.397.417.494.129.978.303 1.47.438.827.223 1.69.33 2.537.231.914-.107 1.803-.45 2.723-.427.377.008.75.078 1.11.194.366.115.73.28 1 .556.205.209.348.47.455.743.16.405.247.838.284 1.271.03.386.025.776.098 1.156.121.622.45 1.193.855 1.68.408.489.895.902 1.381 1.31.487.408.973.813 1.496 1.17.245.169.498.326.732.509.233.185.447.4.593.658a1.53 1.53 0 0 1 .13 1.184c-.127.402-.36.793-.647 1.136"/></mask><g filter="url(#L)" mask="url(#M)"><path fill="#f5c021" d="M65.506 60.36c-.169.379-.385.73-.641 1.043-.597.725-1.404 1.223-2.25 1.544-1.398.528-2.923.599-4.292 1.2-.836.366-1.59.917-2.352 1.44-.613.42-1.243.828-1.918 1.12-.765.335-1.575.52-2.39.653-.518.081-1.044.143-1.567.115s-1.046-.152-1.51-.42c-.349-.202-.664-.491-.852-.871-.206-.42-.242-.911-.24-1.39.015-1.265.288-2.52.279-3.788-.008-1.105-.228-2.194-.29-3.296-.12-2.12.335-4.275-.067-6.354-.062-.334-.15-.666-.146-1.007.002-.168.028-.34.087-.497a1 1 0 0 1 .284-.4.9.9 0 0 1 .368-.157 1.3 1.3 0 0 1 .397.003c.261.042.512.143.768.219.73.22 1.504.214 2.25.38.467.101.916.273 1.38.396.774.214 1.584.304 2.38.211.855-.101 1.69-.41 2.55-.388.355.008.704.073 1.044.175.34.1.681.244.94.506.182.188.317.427.424.675.16.362.27.756.268 1.156-.003.208-.034.413-.054.621a2 2 0 0 0 .026.619c.05.203.154.385.272.551s.253.315.377.478c.343.453.59.982.858 1.491.267.509.568 1.013.993 1.38.576.499 1.322.698 1.966 1.095.188.115.368.25.5.436.107.146.177.323.206.509a1.3 1.3 0 0 1-.048.551"/></g><mask id="O" width="22" height="22" x="45" y="50" maskUnits="userSpaceOnUse" style="mask-type:luminance"><path fill="#fff" d="M65.664 62.696c-.636.754-1.52 1.252-2.4 1.702-1.498.762-3.054 1.434-4.463 2.354a18.3 18.3 0 0 0-2.632 2.118c-.698.666-1.359 1.378-2.14 1.943-.79.571-1.702.985-2.667 1.128q-.4.06-.804.06c-.911 0-1.823-.22-2.66-.586-.76-.329-1.492-.804-1.93-1.507-.439-.71-.54-1.573-.54-2.408-.003-1.47.27-2.928.526-4.379.213-1.207.416-2.413.548-3.63.24-2.212.236-4.447.079-6.67-.028-.37-.06-.745-.003-1.113s.208-.737.49-.979c.261-.225.61-.326.956-.343.343-.02.686.034 1.026.084.802.119 1.612.209 2.397.417.494.129.978.303 1.47.438.827.223 1.69.33 2.537.231.914-.107 1.803-.45 2.723-.427.377.008.75.078 1.11.194.366.115.73.28 1 .556.205.209.348.47.455.743.16.405.247.838.284 1.271.03.386.025.776.098 1.156.121.622.45 1.193.855 1.68.408.489.895.902 1.381 1.31.487.408.973.813 1.496 1.17.245.169.498.326.732.509.233.185.447.4.593.658a1.53 1.53 0 0 1 .13 1.184c-.127.402-.36.793-.647 1.136"/></mask><g filter="url(#N)" mask="url(#O)"><path fill="url(#P)" d="M47.273 51.07c.793-.214 1.468.388 2.045.84.371.318.911.24 1.367.254.756-.026 1.507.126 2.264.033 1.49-.126 2.95-.492 4.446-.554.715-.045 1.52-.087 2.135.33.25.174.619.908.864.632-.102-.77-.673-1.516-1.438-1.721-.602-.096-1.209.07-1.817.017-1.797-.043-3.586-.377-5.388-.282-1.255.012-2.506-.047-3.76-.095-.493-.101-.667.334-.934.503.07.054.095.07.216.042"/></g><mask id="R" width="22" height="22" x="45" y="50" maskUnits="userSpaceOnUse" style="mask-type:luminance"><path fill="#fff" d="M65.664 62.696c-.636.754-1.52 1.252-2.4 1.702-1.498.762-3.054 1.434-4.463 2.354a18.3 18.3 0 0 0-2.632 2.118c-.698.666-1.359 1.378-2.14 1.943-.79.571-1.702.985-2.667 1.128q-.4.06-.804.06c-.911 0-1.823-.22-2.66-.586-.76-.329-1.492-.804-1.93-1.507-.439-.71-.54-1.573-.54-2.408-.003-1.47.27-2.928.526-4.379.213-1.207.416-2.413.548-3.63.24-2.212.236-4.447.079-6.67-.028-.37-.06-.745-.003-1.113s.208-.737.49-.979c.261-.225.61-.326.956-.343.343-.02.686.034 1.026.084.802.119 1.612.209 2.397.417.494.129.978.303 1.47.438.827.223 1.69.33 2.537.231.914-.107 1.803-.45 2.723-.427.377.008.75.078 1.11.194.366.115.73.28 1 .556.205.209.348.47.455.743.16.405.247.838.284 1.271.03.386.025.776.098 1.156.121.622.45 1.193.855 1.68.408.489.895.902 1.381 1.31.487.408.973.813 1.496 1.17.245.169.498.326.732.509.233.185.447.4.593.658a1.53 1.53 0 0 1 .13 1.184c-.127.402-.36.793-.647 1.136"/></mask><g filter="url(#Q)" mask="url(#R)" opacity=".35"><path fill="url(#S)" d="M57.794 52.766a1.28 1.28 0 0 0-.66-.583 2.2 2.2 0 0 0-.881-.152c-.6.006-1.196.16-1.794.11-.504-.045-.982-.233-1.474-.354-.51-.124-1.05-.172-1.553-.034a2.28 2.28 0 0 0-1.313.981c-.265.417-.388.909-.428 1.401s.003.985.054 1.477c.034.354.076.709.16 1.054.087.346.22.684.428.974.3.416.748.714 1.229.891.787.29 1.681.276 2.455-.042a6.77 6.77 0 0 0 3.24-2.981c.256-.473.453-.976.58-1.494.05-.208.09-.419.09-.633a1.3 1.3 0 0 0-.133-.615"/></g><mask id="U" width="22" height="22" x="45" y="50" maskUnits="userSpaceOnUse" style="mask-type:luminance"><path fill="#fff" d="M65.664 62.696c-.636.754-1.52 1.252-2.4 1.702-1.498.762-3.054 1.434-4.463 2.354a18.3 18.3 0 0 0-2.632 2.118c-.698.666-1.359 1.378-2.14 1.943-.79.571-1.702.985-2.667 1.128q-.4.06-.804.06c-.911 0-1.823-.22-2.66-.586-.76-.329-1.492-.804-1.93-1.507-.439-.71-.54-1.573-.54-2.408-.003-1.47.27-2.928.526-4.379.213-1.207.416-2.413.548-3.63.24-2.212.236-4.447.079-6.67-.028-.37-.06-.745-.003-1.113s.208-.737.49-.979c.261-.225.61-.326.956-.343.343-.02.686.034 1.026.084.802.119 1.612.209 2.397.417.494.129.978.303 1.47.438.827.223 1.69.33 2.537.231.914-.107 1.803-.45 2.723-.427.377.008.75.078 1.11.194.366.115.73.28 1 .556.205.209.348.47.455.743.16.405.247.838.284 1.271.03.386.025.776.098 1.156.121.622.45 1.193.855 1.68.408.489.895.902 1.381 1.31.487.408.973.813 1.496 1.17.245.169.498.326.732.509.233.185.447.4.593.658a1.53 1.53 0 0 1 .13 1.184c-.127.402-.36.793-.647 1.136"/></mask><g filter="url(#T)" mask="url(#U)" opacity=".35"><path fill="url(#V)" d="M57.794 52c-.135-.194-.382-.337-.66-.422a3 3 0 0 0-.881-.11c-.6.006-1.196.119-1.794.08-.504-.032-.982-.17-1.474-.254-.51-.09-1.05-.126-1.553-.025-.54.104-1.015.366-1.313.709-.265.3-.388.658-.428 1.012s.003.712.054 1.066c.034.256.076.515.16.765.087.25.22.495.428.703.3.301.748.515 1.229.644.787.211 1.681.2 2.455-.03 1.372-.431 2.534-1.204 3.24-2.155.256-.343.453-.706.58-1.08.05-.152.09-.304.09-.456a.73.73 0 0 0-.133-.447"/></g><path fill="#020204" d="M58.936 50.265a1.8 1.8 0 0 0-.483-.694 2.6 2.6 0 0 0-.723-.45c-.523-.223-1.094-.307-1.657-.411-.526-.099-1.052-.22-1.58-.31-.552-.092-1.12-.154-1.666-.03a2.84 2.84 0 0 0-1.276.683c-.36.33-.642.74-.844 1.184-.357.785-.47 1.665-.402 2.523.05.638.214 1.297.633 1.777.34.391.82.636 1.316.782a4.47 4.47 0 0 0 2.632-.036 6.95 6.95 0 0 0 3.474-2.613c.275-.402.512-.838.618-1.31.082-.36.085-.749-.042-1.095"/><mask id="X" width="10" height="8" x="50" y="48" maskUnits="userSpaceOnUse" style="mask-type:luminance"><path fill="#fff" d="M58.936 50.265a1.8 1.8 0 0 0-.483-.694 2.6 2.6 0 0 0-.723-.45c-.523-.223-1.094-.307-1.657-.411-.526-.099-1.052-.22-1.58-.31-.552-.092-1.12-.154-1.666-.03a2.84 2.84 0 0 0-1.276.683c-.36.33-.642.74-.844 1.184-.357.785-.47 1.665-.402 2.523.05.638.214 1.297.633 1.777.34.391.82.636 1.316.782a4.47 4.47 0 0 0 2.632-.036 6.95 6.95 0 0 0 3.474-2.613c.275-.402.512-.838.618-1.31.082-.36.085-.749-.042-1.095"/></mask><g filter="url(#W)" mask="url(#X)"><path fill="url(#Y)" d="M53.125 48.114a3.02 3.02 0 0 0-2.438 1.462 3 3 0 0 0-.402 1.735c.02-.421.13-.835.335-1.203a2.47 2.47 0 0 1 1.681-1.23c.433-.078.88-.03 1.317.023.421.054.843.11 1.257.197.641.14 1.274.354 1.811.728.124.088.242.186.34.304.099.115.175.25.206.4.042.219-.02.45-.13.644-.11.197-.258.365-.416.523-.13.13-.264.25-.402.371.621-.12 1.249-.29 1.766-.65.217-.154.416-.337.546-.568.13-.233.183-.514.12-.773a1.2 1.2 0 0 0-.258-.47 2.3 2.3 0 0 0-.408-.349 4.86 4.86 0 0 0-2.197-.84 26 26 0 0 0-1.524-.234c-.396-.05-.804-.093-1.204-.07"/></g><mask id="aa" width="10" height="8" x="50" y="48" maskUnits="userSpaceOnUse" style="mask-type:luminance"><path fill="#fff" d="M58.936 50.265a1.8 1.8 0 0 0-.483-.694 2.6 2.6 0 0 0-.723-.45c-.523-.223-1.094-.307-1.657-.411-.526-.099-1.052-.22-1.58-.31-.552-.092-1.12-.154-1.666-.03a2.84 2.84 0 0 0-1.276.683c-.36.33-.642.74-.844 1.184-.357.785-.47 1.665-.402 2.523.05.638.214 1.297.633 1.777.34.391.82.636 1.316.782a4.47 4.47 0 0 0 2.632-.036 6.95 6.95 0 0 0 3.474-2.613c.275-.402.512-.838.618-1.31.082-.36.085-.749-.042-1.095"/></mask><g filter="url(#Z)" mask="url(#aa)"><path fill="url(#ab)" d="M53.125 48.114a3.02 3.02 0 0 0-2.438 1.462 3 3 0 0 0-.402 1.735c.02-.421.13-.835.335-1.203a2.47 2.47 0 0 1 1.681-1.23c.433-.078.88-.03 1.317.023.421.054.843.11 1.257.197.641.14 1.274.354 1.811.728.124.088.242.186.34.304.099.115.175.25.206.4.042.219-.02.45-.13.644-.11.197-.258.365-.416.523-.13.13-.264.25-.402.371.621-.12 1.249-.29 1.766-.65.217-.154.416-.337.546-.568.13-.233.183-.514.12-.773a1.2 1.2 0 0 0-.258-.47 2.3 2.3 0 0 0-.408-.349 4.86 4.86 0 0 0-2.197-.84 26 26 0 0 0-1.524-.234c-.396-.05-.804-.093-1.204-.07"/></g><path fill="url(#ac)" d="M29.377 10.766c-.43.023-.844.223-1.159.518-.318.295-.54.683-.678 1.091-.273.821-.21 1.71-.149 2.573.056.78.115 1.575.408 2.301.146.366.352.706.624.987.273.279.619.495.999.588.354.09.737.073 1.085-.036.352-.113.67-.313.934-.569.383-.374.639-.863.788-1.378s.19-1.054.182-1.592a6.7 6.7 0 0 0-.306-1.977c-.211-.635-.546-1.237-1.013-1.718a2.8 2.8 0 0 0-.773-.58 1.9 1.9 0 0 0-.942-.208"/><path fill="#020204" d="M28.336 14.34c-.09.547-.093 1.117.093 1.635.124.343.329.655.577.923a1.9 1.9 0 0 0 .56.435c.216.105.463.147.697.09.213-.053.4-.19.537-.362.138-.172.23-.377.295-.588.194-.622.163-1.3-.03-1.921-.139-.453-.372-.889-.732-1.193a1.45 1.45 0 0 0-.596-.312 1.03 1.03 0 0 0-.664.054 1.14 1.14 0 0 0-.52.523 2.4 2.4 0 0 0-.217.717"/><mask id="ae" width="4" height="5" x="28" y="13" maskUnits="userSpaceOnUse" style="mask-type:luminance"><path fill="#fff" d="M28.336 14.34c-.09.547-.093 1.117.093 1.635.124.343.329.655.577.923a1.9 1.9 0 0 0 .56.435c.216.105.463.147.697.09.213-.053.4-.19.537-.362.138-.172.23-.377.295-.588.194-.622.163-1.3-.03-1.921-.139-.453-.372-.889-.732-1.193a1.45 1.45 0 0 0-.596-.312 1.03 1.03 0 0 0-.664.054 1.14 1.14 0 0 0-.52.523 2.4 2.4 0 0 0-.217.717"/></mask><g filter="url(#ad)" mask="url(#ae)"><path fill="url(#af)" d="M29.486 13.947c.06.155.256.211.366.335.104.118.213.245.273.393.11.285-.11.707.12.909.07.062.217.065.287 0 .279-.253.217-.762.107-1.122a1.37 1.37 0 0 0-.65-.788c-.14-.073-.351-.132-.472-.03-.076.067-.067.207-.03.303"/></g><mask id="ag" width="6" height="9" x="27" y="10" maskUnits="userSpaceOnUse" style="mask-type:luminance"><path fill="#fff" d="M29.377 10.766c-.43.023-.844.223-1.159.518-.318.295-.54.683-.678 1.091-.273.821-.21 1.71-.149 2.573.056.78.115 1.575.408 2.301.146.366.352.706.624.987.273.279.619.495.999.588.354.09.737.073 1.085-.036.352-.113.67-.313.934-.569.383-.374.639-.863.788-1.378s.19-1.054.182-1.592a6.7 6.7 0 0 0-.306-1.977c-.211-.635-.546-1.237-1.013-1.718a2.8 2.8 0 0 0-.773-.58 1.9 1.9 0 0 0-.942-.208"/></mask><g mask="url(#ag)"><path fill="url(#ah)" d="M28.445 12.505c.653-.389 1.443-.479 2.2-.408.753.073 1.482.292 2.213.492.537.146 1.08.281 1.584.518.5.236.967.585 1.245 1.068.046.076.082.158.13.234a.7.7 0 0 0 .174.2c.07.053.16.09.248.084a.3.3 0 0 0 .126-.037.23.23 0 0 0 .093-.096.3.3 0 0 0 .028-.149.7.7 0 0 0-.028-.151c-.183-.667-.616-1.232-.942-1.843-.197-.365-.36-.748-.557-1.113-.683-1.252-1.806-2.233-3.08-2.872s-2.697-.945-4.12-1.026c-1.648-.099-3.299.098-4.925.385-.706.124-1.423.27-2.044.621-.312.175-.6.4-.822.681a2.04 2.04 0 0 0-.436.967c-.047.344.003.695.124 1.019.118.323.304.618.523.886.434.537.993.953 1.508 1.414.515.459.99.968 1.566 1.348.287.19.6.348.931.441s.687.118 1.024.048c.349-.07.675-.242.96-.461.283-.217.528-.479.761-.748.467-.543.903-1.137 1.516-1.502"/></g><g filter="url(#ai)"><path fill="url(#aj)" d="M31.155 10.285a5.75 5.75 0 0 1 1.364 2.014c-.136-.818-.346-1.48-.88-2.014a4.1 4.1 0 0 0-1.12-.765c-.371-.166-.78-.27-1.015-.272-.234-.006-.29 0-.338.002-.05.003-.087.003.065.023.152.017.492.11.857.273.366.163.737.433 1.066.74"/></g><path fill="url(#ak)" d="M37.015 10.767c-.672.464-1.237 1.108-1.513 1.878-.349.97-.216 2.056.121 3.03.343.998.92 1.948 1.789 2.548.433.3.937.506 1.46.568a2.7 2.7 0 0 0 1.538-.268c.568-.298 1.004-.818 1.274-1.4.27-.585.386-1.23.422-1.873.045-.816-.034-1.648-.304-2.422-.292-.84-.821-1.617-1.57-2.1a3.1 3.1 0 0 0-1.237-.47 2.65 2.65 0 0 0-1.313.146c-.236.093-.456.22-.667.363"/><path fill="#020204" d="M38.57 12.803a1.56 1.56 0 0 0-.717.239 1.9 1.9 0 0 0-.54.528c-.29.42-.416.931-.435 1.44-.014.38.028.765.154 1.125.127.36.338.695.633.937.301.25.68.4 1.072.419.39.017.784-.096 1.105-.318.256-.177.461-.422.608-.697.146-.273.236-.577.275-.886a2.74 2.74 0 0 0-.261-1.6 2.23 2.23 0 0 0-1.193-1.08 1.7 1.7 0 0 0-.7-.107"/><mask id="am" width="5" height="6" x="36" y="12" maskUnits="userSpaceOnUse" style="mask-type:luminance"><path fill="#fff" d="M38.57 12.803a1.56 1.56 0 0 0-.717.239 1.9 1.9 0 0 0-.54.528c-.29.42-.416.931-.435 1.44-.014.38.028.765.154 1.125.127.36.338.695.633.937.301.25.68.4 1.072.419.39.017.784-.096 1.105-.318.256-.177.461-.422.608-.697.146-.273.236-.577.275-.886a2.74 2.74 0 0 0-.261-1.6 2.23 2.23 0 0 0-1.193-1.08 1.7 1.7 0 0 0-.7-.107"/></mask><g filter="url(#al)" mask="url(#am)"><path fill="url(#an)" d="M40.137 15.008c.282-.282-.2-1.027-.576-1.334-.273-.219-1.063-.452-1.03-.21.034.239.391.548.627.784.296.29.844.895.98.76"/></g><mask id="ao" width="8" height="9" x="35" y="10" maskUnits="userSpaceOnUse" style="mask-type:luminance"><path fill="#fff" d="M37.015 10.767c-.672.464-1.237 1.108-1.513 1.878-.349.97-.216 2.056.121 3.03.343.998.92 1.948 1.789 2.548.433.3.937.506 1.46.568a2.7 2.7 0 0 0 1.538-.268c.568-.298 1.004-.818 1.274-1.4.27-.585.386-1.23.422-1.873.045-.816-.034-1.648-.304-2.422-.292-.84-.821-1.617-1.57-2.1a3.1 3.1 0 0 0-1.237-.47 2.65 2.65 0 0 0-1.313.146c-.236.093-.456.22-.667.363"/></mask><g mask="url(#ao)"><path fill="url(#ap)" d="M34.47 13.222a5.8 5.8 0 0 1 1.969-1.069c1.477-.456 3.15-.276 4.455.554.45.284.852.638 1.271.97.416.33.86.639 1.364.816.273.096.563.152.85.121.258-.025.509-.124.723-.27.213-.15.393-.346.528-.568.27-.444.357-.985.31-1.502-.093-1.038-.678-1.952-1.168-2.872-.154-.286-.3-.579-.486-.846-.565-.824-1.471-1.367-2.419-1.685s-1.949-.433-2.942-.557c-.444-.056-.891-.115-1.333-.062-.509.062-.987.268-1.485.394-.236.062-.475.104-.709.172s-.464.16-.655.312c-.276.222-.45.557-.526.903-.076.348-.059.708-.003 1.06.11.703.374 1.387.35 2.098-.018.487-.172.968-.153 1.454.006.144.034.436.06.577"/></g><g filter="url(#aq)"><path fill="url(#ar)" d="M39.356 8.77c-.116.146-.22.303-.301.478a4.3 4.3 0 0 1 1.46.621c.86.571 1.513 1.404 1.97 2.332q.161-.176.288-.386c-.461-.967-1.125-1.842-2.014-2.432a4.4 4.4 0 0 0-1.403-.613"/></g><mask id="at" width="41" height="71" x="16" y="0" maskUnits="userSpaceOnUse" style="mask-type:luminance"><path fill="#fff" d="M35.705 0c-1.687 0-3.38.332-4.91 1.159a9.04 9.04 0 0 0-3.778 3.929c-.821 1.654-1.142 3.42-1.192 5.366-.093 3.696.084 7.571.363 11.084.073 1.069.208 1.693.07 2.793-.456 2.334-2.498 3.904-3.589 5.954-1.2 2.261-1.707 4.818-2.613 7.214-.83 2.191-1.994 4.247-2.779 6.455-1.1 3.085-1.428 6.477-.703 9.672.554 2.436 1.71 4.72 3.268 6.674-.224.405-.444.818-.674 1.22-.723 1.247-1.606 2.43-2.017 3.812-.205.689-.287 1.425-.155 2.134s.492 1.387 1.055 1.837c.368.292.816.484 1.274.59s.934.13 1.406.121c1.792-.039 3.53-.582 5.262-1.037q1.545-.403 3.103-.726c3.695-.757 7.818-.453 11.247.042q1.742.266 3.456.684c1.79.433 3.57.984 5.409 1.037.484.014.973-.008 1.445-.112.473-.107.931-.298 1.308-.6.566-.45.926-1.13 1.058-1.839.132-.708.05-1.448-.158-2.14-.416-1.384-1.308-2.562-2.044-3.802-.293-.493-.563-.993-.853-1.485 2.222-2.495 4.011-5.38 5.046-8.55 1.128-3.46 1.336-7.186.86-10.795-.475-3.608-1.62-7.107-3.124-10.42-1.89-4.151-3.48-5.653-4.632-9.301-1.243-3.943-.217-8.61-1.142-12.184a12.5 12.5 0 0 0-1.533-3.44c-.793-1.245-1.8-2.36-2.995-3.225C40.537.737 38.14 0 35.705 0"/></mask><g filter="url(#as)" mask="url(#at)"><path fill="#000" fill-opacity=".259" d="M28.44 25.124c.413 1.198 1.243 2.219 2.227 3.015.327.267.672.512 1.058.683.382.175.807.273 1.226.236.41-.033.802-.196 1.162-.399.36-.202.691-.447 1.04-.666.596-.38 1.235-.687 1.857-1.024.745-.408 1.47-.872 2.098-1.446.29-.261.556-.548.874-.773.318-.228.7-.391 1.089-.363.292.02.565.143.852.205.143.031.29.045.436.023a.67.67 0 0 0 .385-.189.67.67 0 0 0 .172-.495 1.2 1.2 0 0 0-.152-.509c-.166-.318-.42-.59-.532-.93-.1-.304-.081-.63-.073-.948.009-.321.003-.653-.143-.937a1.2 1.2 0 0 0-.515-.498 1.8 1.8 0 0 0-.697-.197c-.484-.045-.968.05-1.455.076-.64.037-1.288-.042-1.932-.005-.801.05-1.589.28-2.393.284-.917.002-1.834-.299-2.74-.155-.39.062-.762.202-1.133.326-.374.127-.76.236-1.153.23-.447-.008-.88-.162-1.328-.193-.222-.017-.45 0-.66.078a.93.93 0 0 0-.501.422.9.9 0 0 0-.093.369c-.006.13.011.256.042.382.062.248.178.481.27.718.338.863.41 1.805.712 2.68"/></g><mask id="av" width="41" height="71" x="16" y="0" maskUnits="userSpaceOnUse" style="mask-type:luminance"><path fill="#fff" d="M35.705 0c-1.687 0-3.38.332-4.91 1.159a9.04 9.04 0 0 0-3.778 3.929c-.821 1.654-1.142 3.42-1.192 5.366-.093 3.696.084 7.571.363 11.084.073 1.069.208 1.693.07 2.793-.456 2.334-2.498 3.904-3.589 5.954-1.2 2.261-1.707 4.818-2.613 7.214-.83 2.191-1.994 4.247-2.779 6.455-1.1 3.085-1.428 6.477-.703 9.672.554 2.436 1.71 4.72 3.268 6.674-.224.405-.444.818-.674 1.22-.723 1.247-1.606 2.43-2.017 3.812-.205.689-.287 1.425-.155 2.134s.492 1.387 1.055 1.837c.368.292.816.484 1.274.59s.934.13 1.406.121c1.792-.039 3.53-.582 5.262-1.037q1.545-.403 3.103-.726c3.695-.757 7.818-.453 11.247.042q1.742.266 3.456.684c1.79.433 3.57.984 5.409 1.037.484.014.973-.008 1.445-.112.473-.107.931-.298 1.308-.6.566-.45.926-1.13 1.058-1.839.132-.708.05-1.448-.158-2.14-.416-1.384-1.308-2.562-2.044-3.802-.293-.493-.563-.993-.853-1.485 2.222-2.495 4.011-5.38 5.046-8.55 1.128-3.46 1.336-7.186.86-10.795-.475-3.608-1.62-7.107-3.124-10.42-1.89-4.151-3.48-5.653-4.632-9.301-1.243-3.943-.217-8.61-1.142-12.184a12.5 12.5 0 0 0-1.533-3.44c-.793-1.245-1.8-2.36-2.995-3.225C40.537.737 38.14 0 35.705 0"/></mask><g filter="url(#au)" mask="url(#av)" opacity=".3"><path fill="#000" d="M27.29 21.712a9.4 9.4 0 0 1 2.126 1.797c.56.645 1.035 1.376 1.77 1.851.514.338 1.136.526 1.766.585.74.068 1.487-.042 2.202-.236.66-.177 1.3-.43 1.884-.762 1.117-.633 2.048-1.561 3.277-1.977.267-.093.545-.158.804-.27.259-.11.504-.279.627-.515.118-.23.113-.492.152-.743.042-.27.135-.529.186-.796s.056-.55-.068-.796a1.1 1.1 0 0 0-.509-.466 1.9 1.9 0 0 0-.706-.158c-.483-.023-.964.093-1.451.132-.641.054-1.288-.022-1.932-.003-.802.023-1.592.189-2.394.225-.914.04-1.825-.095-2.739-.123a6 6 0 0 0-1.184.056 3 3 0 0 0-1.102.385c-.321.194-.583.462-.875.69a2.6 2.6 0 0 1-.473.3 1.5 1.5 0 0 1-.551.144c-.098.003-.2-.003-.295.01a.64.64 0 0 0-.414.234.55.55 0 0 0-.101.436"/></g><path fill="url(#aw)" d="M31.404 16.461c.43-.48.723-1.068 1.134-1.563.205-.248.444-.476.723-.636s.604-.25.925-.222c.357.03.692.208.953.453.262.244.456.554.61.877.15.312.268.641.481.911.228.287.546.481.836.71.143.112.284.233.396.376.116.143.203.31.242.49a1.04 1.04 0 0 1-.045.548 1.24 1.24 0 0 1-.306.461c-.267.259-.633.4-1.002.45-.736.104-1.482-.115-2.227-.096-.751.023-1.488.287-2.242.262-.374-.014-.756-.107-1.066-.32a1.4 1.4 0 0 1-.388-.409 1.15 1.15 0 0 1-.163-.534c-.006-.18.037-.36.11-.523.07-.166.171-.315.284-.456.228-.278.506-.509.745-.779"/><path fill="url(#ax)" d="M27.321 21.108a.8.8 0 0 0 .079.205c.065.107.16.194.262.268.1.076.21.137.317.202.566.357 1.027.855 1.438 1.384.548.708 1.035 1.493 1.769 2.008.517.366 1.136.57 1.766.636.74.073 1.488-.046 2.202-.256a7.7 7.7 0 0 0 1.884-.83c1.117-.686 2.048-1.693 3.277-2.146.267-.099.546-.169.804-.29.26-.123.504-.304.628-.562.118-.248.112-.535.151-.807.043-.29.135-.571.186-.861s.056-.6-.067-.866a1.12 1.12 0 0 0-.51-.504 1.7 1.7 0 0 0-.705-.174c-.484-.023-.965.101-1.452.146-.64.06-1.288-.025-1.932-.006-.801.026-1.592.206-2.393.245-.914.042-1.826-.098-2.74-.135a5.6 5.6 0 0 0-1.186.056c-.392.065-.774.2-1.1.425-.318.22-.571.518-.864.77a2.2 2.2 0 0 1-.478.327 1.2 1.2 0 0 1-.557.132c-.098-.003-.202-.017-.295.011a.4.4 0 0 0-.157.099 1 1 0 0 0-.116.146 2.4 2.4 0 0 0-.21.377"/><mask id="az" width="16" height="8" x="27" y="18" maskUnits="userSpaceOnUse" style="mask-type:luminance"><path fill="#fff" d="M27.321 21.108a.8.8 0 0 0 .079.205c.065.107.16.194.262.268.1.076.21.137.317.202.566.357 1.027.855 1.438 1.384.548.708 1.035 1.493 1.769 2.008.517.366 1.136.57 1.766.636.74.073 1.488-.046 2.202-.256a7.7 7.7 0 0 0 1.884-.83c1.117-.686 2.048-1.693 3.277-2.146.267-.099.546-.169.804-.29.26-.123.504-.304.628-.562.118-.248.112-.535.151-.807.043-.29.135-.571.186-.861s.056-.6-.067-.866a1.12 1.12 0 0 0-.51-.504 1.7 1.7 0 0 0-.705-.174c-.484-.023-.965.101-1.452.146-.64.06-1.288-.025-1.932-.006-.801.026-1.592.206-2.393.245-.914.042-1.826-.098-2.74-.135a5.6 5.6 0 0 0-1.186.056c-.392.065-.774.2-1.1.425-.318.22-.571.518-.864.77a2.2 2.2 0 0 1-.478.327 1.2 1.2 0 0 1-.557.132c-.098-.003-.202-.017-.295.011a.4.4 0 0 0-.157.099 1 1 0 0 0-.116.146 2.4 2.4 0 0 0-.21.377"/></mask><g filter="url(#ay)" mask="url(#az)"><path fill="#d9b30d" d="M30.91 22.095a1.61 1.61 0 0 0 1.055 1.901c.478.16 1.018.082 1.465-.152.261-.135.498-.326.647-.579a1.05 1.05 0 0 0 .149-.41.94.94 0 0 0-.045-.434 1 1 0 0 0-.279-.385 1.3 1.3 0 0 0-.422-.23 4.3 4.3 0 0 0-1.1-.192c-.567-.011-1.377.096-1.47.481"/></g><mask id="aB" width="16" height="8" x="27" y="18" maskUnits="userSpaceOnUse" style="mask-type:luminance"><path fill="#fff" d="M27.32 21.108q.025.108.08.205c.064.107.16.194.26.268.102.076.212.137.318.202.566.357 1.027.855 1.438 1.384.548.708 1.035 1.493 1.769 2.008.517.366 1.136.57 1.766.636.74.073 1.488-.046 2.202-.256a7.7 7.7 0 0 0 1.885-.83c1.116-.686 2.047-1.693 3.276-2.146.267-.099.546-.169.804-.29.26-.123.504-.304.628-.562.118-.248.112-.535.151-.807.043-.29.136-.571.186-.861s.056-.6-.067-.866a1.1 1.1 0 0 0-.51-.504 1.7 1.7 0 0 0-.705-.174c-.484-.023-.965.101-1.452.146-.64.06-1.288-.025-1.932-.006-.801.026-1.592.206-2.393.245-.914.042-1.826-.098-2.74-.135a5.6 5.6 0 0 0-1.186.056c-.391.065-.774.2-1.1.425-.318.22-.571.518-.864.77a2.2 2.2 0 0 1-.478.327 1.2 1.2 0 0 1-.557.132c-.098-.003-.202-.017-.295.011a.4.4 0 0 0-.157.099 1 1 0 0 0-.116.146 2.4 2.4 0 0 0-.21.377"/></mask><g filter="url(#aA)" mask="url(#aB)"><path fill="#604405" d="M29.337 19.086c-.326.191-.639.402-.945.619-.16.115-.324.236-.408.413a1 1 0 0 0-.076.402c0 .14.008.279-.011.416-.011.093-.037.186-.04.279a.5.5 0 0 0 .012.14c.014.046.036.09.067.124a.34.34 0 0 0 .158.09c.059.017.118.026.18.04.284.067.531.241.748.438.216.194.413.417.641.6.613.5 1.426.708 2.22.72.792.014 1.577-.152 2.35-.327.608-.138 1.215-.278 1.798-.495a7.9 7.9 0 0 0 2.452-1.46c.33-.284.636-.596 1.004-.826.324-.206.686-.34 1.018-.535a1 1 0 0 0 .085-.056.3.3 0 0 0 .067-.079.25.25 0 0 0 .009-.174.5.5 0 0 0-.088-.155 1.3 1.3 0 0 0-.137-.14c-.346-.296-.813-.403-1.269-.44-.453-.033-.911-.008-1.358-.084-.422-.07-.822-.227-1.23-.357a9 9 0 0 0-1.304-.317 8.6 8.6 0 0 0-3.148.075 9.2 9.2 0 0 0-2.795 1.089"/></g><path fill="url(#aC)" d="M29.233 17.986c-.467.315-.889.7-1.246 1.136-.202.25-.388.523-.49.827-.08.242-.109.495-.16.745-.02.093-.042.186-.039.282q0 .069.02.14a.3.3 0 0 0 .07.121.4.4 0 0 0 .208.104c.079.014.158.017.236.026.352.042.675.21.968.413.293.2.563.436.863.624.661.42 1.452.605 2.236.636.782.031 1.564-.087 2.335-.242.61-.12 1.218-.267 1.797-.495.889-.351 1.69-.889 2.452-1.46a10 10 0 0 0 1.005-.826c.104-.104.208-.209.32-.304.113-.093.24-.175.38-.22.213-.067.444-.047.666-.01.166.027.332.064.501.058a.8.8 0 0 0 .248-.05.5.5 0 0 0 .205-.146.5.5 0 0 0 .107-.307.63.63 0 0 0-.09-.318c-.113-.191-.307-.32-.51-.41-.278-.124-.579-.183-.874-.256a12.5 12.5 0 0 1-2.627-.96c-.416-.205-.821-.433-1.229-.652-.422-.225-.85-.442-1.305-.582-1.024-.31-2.138-.208-3.147.143a6.7 6.7 0 0 0-2.9 1.983"/><mask id="aE" width="15" height="9" x="27" y="15" maskUnits="userSpaceOnUse" style="mask-type:luminance"><path fill="#fff" d="M29.233 17.986c-.467.315-.889.7-1.246 1.136-.202.25-.388.523-.49.827-.08.242-.109.495-.16.745-.02.093-.042.186-.039.282q0 .069.02.14a.3.3 0 0 0 .07.121.4.4 0 0 0 .208.104c.079.014.158.017.236.026.352.042.675.21.968.413.293.2.563.436.863.624.661.42 1.452.605 2.236.636.782.031 1.564-.087 2.335-.242.61-.12 1.218-.267 1.797-.495.889-.351 1.69-.889 2.452-1.46a10 10 0 0 0 1.005-.826c.104-.104.208-.209.32-.304.113-.093.24-.175.38-.22.213-.067.444-.047.666-.01.166.027.332.064.501.058a.8.8 0 0 0 .248-.05.5.5 0 0 0 .205-.146.5.5 0 0 0 .107-.307.63.63 0 0 0-.09-.318c-.113-.191-.307-.32-.51-.41-.278-.124-.579-.183-.874-.256a12.5 12.5 0 0 1-2.627-.96c-.416-.205-.821-.433-1.229-.652-.422-.225-.85-.442-1.305-.582-1.024-.31-2.138-.208-3.147.143a6.7 6.7 0 0 0-2.9 1.983"/></mask><g filter="url(#aD)" mask="url(#aE)"><path fill="#f6da4a" d="M36.408 18.211a.46.46 0 0 0-.22-.143.6.6 0 0 0-.26-.012c-.175.031-.333.124-.479.225a5.4 5.4 0 0 0-1.1 1.024c-.421.515-.77 1.108-.888 1.764-.02.11-.031.225-.02.334a.5.5 0 0 0 .138.301c.067.07.163.113.259.127.098.014.2 0 .292-.031.186-.062.34-.194.49-.324.807-.725 1.538-1.592 1.83-2.638.028-.104.054-.21.054-.32s-.028-.22-.096-.307"/></g><g filter="url(#aF)" opacity=".8"><path fill="url(#aG)" d="M31.703 16.61c-.217-.07-.571.31-.456.504.031.053.13.121.197.084.098-.053.18-.25.287-.326.07-.05.056-.236-.028-.261"/></g><g filter="url(#aH)" opacity=".8"><path fill="url(#aI)" d="M34.47 16.712c.056.18.346.15.514.236.147.076.265.242.43.248.158.003.406-.056.425-.214.026-.205-.275-.337-.47-.413-.25-.096-.57-.146-.804-.017-.053.03-.112.101-.095.16"/></g><mask id="aK" width="16" height="11" x="27" y="15" maskUnits="userSpaceOnUse" style="mask-type:luminance"><path fill="#fff" d="M27.32 21.108q.025.108.08.205c.064.107.16.194.26.268.102.076.212.137.318.202.566.357 1.027.855 1.438 1.384.548.708 1.035 1.493 1.769 2.008.517.366 1.136.57 1.766.636.74.073 1.488-.046 2.202-.256a7.7 7.7 0 0 0 1.885-.83c1.116-.686 2.047-1.693 3.276-2.146.267-.099.546-.169.804-.29.26-.123.504-.304.628-.562.118-.248.112-.535.151-.807.043-.29.136-.571.186-.861s.056-.6-.067-.866a1.1 1.1 0 0 0-.51-.504 1.7 1.7 0 0 0-.705-.174c-.484-.023-.965.101-1.452.146-.64.06-1.288-.025-1.932-.006-.801.026-1.592.206-2.393.245-.914.042-1.826-.098-2.74-.135a5.6 5.6 0 0 0-1.186.056c-.391.065-.774.2-1.1.425-.318.22-.571.518-.864.77a2.2 2.2 0 0 1-.478.327 1.2 1.2 0 0 1-.557.132c-.098-.003-.202-.017-.295.011a.4.4 0 0 0-.157.099 1 1 0 0 0-.116.146 2.4 2.4 0 0 0-.21.377"/><path fill="#fff" d="M29.233 17.986c-.467.315-.889.7-1.246 1.136-.202.25-.388.523-.49.827-.08.242-.109.495-.16.745-.02.093-.042.186-.039.282q0 .069.02.14a.3.3 0 0 0 .07.121.4.4 0 0 0 .208.104c.079.014.158.017.236.026.352.042.675.21.968.413.293.2.563.436.863.624.661.42 1.452.605 2.236.636.782.031 1.564-.087 2.335-.242.61-.12 1.218-.267 1.797-.495.889-.351 1.69-.889 2.452-1.46a10 10 0 0 0 1.005-.826c.104-.104.208-.209.32-.304.113-.093.24-.175.38-.22.213-.067.444-.047.666-.01.166.027.332.064.501.058a.8.8 0 0 0 .248-.05.5.5 0 0 0 .205-.146.5.5 0 0 0 .107-.307.63.63 0 0 0-.09-.318c-.113-.191-.307-.32-.51-.41-.278-.124-.579-.183-.874-.256a12.5 12.5 0 0 1-2.627-.96c-.416-.205-.821-.433-1.229-.652-.422-.225-.85-.442-1.305-.582-1.024-.31-2.138-.208-3.147.143a6.7 6.7 0 0 0-2.9 1.983"/></mask><g filter="url(#aJ)" mask="url(#aK)"><path fill="url(#aL)" d="M41.982 19.449a1.1 1.1 0 0 1-.272.605.72.72 0 0 1-.518.25.56.56 0 0 1-.461-.25.9.9 0 0 1-.136-.605q.02-.171.09-.329t.182-.279a.8.8 0 0 1 .246-.185.6.6 0 0 1 .273-.065q.136 0 .258.065.12.065.203.186t.12.278.015.329"/></g></g><defs><filter id="b" width="11.214" height="10.657" x="20.59" y="28.637" color-interpolation-filters="sRGB" filterUnits="userSpaceOnUse"><feFlood flood-opacity="0" result="BackgroundImageFix"/><feBlend in="SourceGraphic" in2="BackgroundImageFix" result="shape"/><feGaussianBlur result="effect1_foregroundBlur_6709_29666" stdDeviation=".64"/></filter><filter id="f" width="16.955" height="12.957" x="32.898" y="27.321" color-interpolation-filters="sRGB" filterUnits="userSpaceOnUse"><feFlood flood-opacity="0" result="BackgroundImageFix"/><feBlend in="SourceGraphic" in2="BackgroundImageFix" result="shape"/><feGaussianBlur result="effect1_foregroundBlur_6709_29666" stdDeviation=".98"/></filter><filter id="i" width="7.977" height="8.339" x="28.326" y="28.962" color-interpolation-filters="sRGB" filterUnits="userSpaceOnUse"><feFlood flood-opacity="0" result="BackgroundImageFix"/><feBlend in="SourceGraphic" in2="BackgroundImageFix" result="shape"/><feGaussianBlur result="effect1_foregroundBlur_6709_29666" stdDeviation=".68"/></filter><filter id="l" width="6.029" height="19.549" x="27.454" y="36.071" color-interpolation-filters="sRGB" filterUnits="userSpaceOnUse"><feFlood flood-opacity="0" result="BackgroundImageFix"/><feBlend in="SourceGraphic" in2="BackgroundImageFix" result="shape"/><feGaussianBlur result="effect1_foregroundBlur_6709_29666" stdDeviation="1.25"/></filter><filter id="n" width="9.562" height="9.613" x="46.491" y="33.347" color-interpolation-filters="sRGB" filterUnits="userSpaceOnUse"><feFlood flood-opacity="0" result="BackgroundImageFix"/><feBlend in="SourceGraphic" in2="BackgroundImageFix" result="shape"/><feGaussianBlur result="effect1_foregroundBlur_6709_29666" stdDeviation="1.78"/></filter><filter id="p" width="10.911" height="10.704" x="35.662" y="-.375" color-interpolation-filters="sRGB" filterUnits="userSpaceOnUse"><feFlood flood-opacity="0" result="BackgroundImageFix"/><feBlend in="SourceGraphic" in2="BackgroundImageFix" result="shape"/><feGaussianBlur result="effect1_foregroundBlur_6709_29666" stdDeviation="1.73"/></filter><filter id="r" width="6.071" height="6.407" x="42.777" y="19.898" color-interpolation-filters="sRGB" filterUnits="userSpaceOnUse"><feFlood flood-opacity="0" result="BackgroundImageFix"/><feBlend in="SourceGraphic" in2="BackgroundImageFix" result="shape"/><feGaussianBlur result="effect1_foregroundBlur_6709_29666" stdDeviation=".78"/></filter><filter id="t" width="10.441" height="19.353" x="14.831" y="32.995" color-interpolation-filters="sRGB" filterUnits="userSpaceOnUse"><feFlood flood-opacity="0" result="BackgroundImageFix"/><feBlend in="SourceGraphic" in2="BackgroundImageFix" result="shape"/><feGaussianBlur result="effect1_foregroundBlur_6709_29666" stdDeviation=".98"/></filter><filter id="v" width="11.573" height="24.4" x="45.551" y="31.086" color-interpolation-filters="sRGB" filterUnits="userSpaceOnUse"><feFlood flood-opacity="0" result="BackgroundImageFix"/><feBlend in="SourceGraphic" in2="BackgroundImageFix" result="shape"/><feGaussianBlur result="effect1_foregroundBlur_6709_29666" stdDeviation="1.19"/></filter><filter id="y" width="34.751" height="34.557" x="-.213" y="43.094" color-interpolation-filters="sRGB" filterUnits="userSpaceOnUse"><feFlood flood-opacity="0" result="BackgroundImageFix"/><feBlend in="SourceGraphic" in2="BackgroundImageFix" result="shape"/><feGaussianBlur result="effect1_foregroundBlur_6709_29666" stdDeviation="3.38"/></filter><filter id="A" width="27.205" height="28.362" x="3.08" y="44.733" color-interpolation-filters="sRGB" filterUnits="userSpaceOnUse"><feFlood flood-opacity="0" result="BackgroundImageFix"/><feBlend in="SourceGraphic" in2="BackgroundImageFix" result="shape"/><feGaussianBlur result="effect1_foregroundBlur_6709_29666" stdDeviation="2.1"/></filter><filter id="C" width="7.659" height="12.851" x="19.385" y="52.294" color-interpolation-filters="sRGB" filterUnits="userSpaceOnUse"><feFlood flood-opacity="0" result="BackgroundImageFix"/><feBlend in="SourceGraphic" in2="BackgroundImageFix" result="shape"/><feGaussianBlur result="effect1_foregroundBlur_6709_29666" stdDeviation=".32"/></filter><filter id="F" width="25.109" height="26.64" x="40.319" y="49.102" color-interpolation-filters="sRGB" filterUnits="userSpaceOnUse"><feFlood flood-opacity="0" result="BackgroundImageFix"/><feBlend in="SourceGraphic" in2="BackgroundImageFix" result="shape"/><feGaussianBlur result="effect1_foregroundBlur_6709_29666" stdDeviation="1.95"/></filter><filter id="J" width="35.647" height="35.917" x="38.248" y="42.503" color-interpolation-filters="sRGB" filterUnits="userSpaceOnUse"><feFlood flood-opacity="0" result="BackgroundImageFix"/><feBlend in="SourceGraphic" in2="BackgroundImageFix" result="shape"/><feGaussianBlur result="effect1_foregroundBlur_6709_29666" stdDeviation="4.12"/></filter><filter id="L" width="30.776" height="30.682" x="41.029" y="43.04" color-interpolation-filters="sRGB" filterUnits="userSpaceOnUse"><feFlood flood-opacity="0" result="BackgroundImageFix"/><feBlend in="SourceGraphic" in2="BackgroundImageFix" result="shape"/><feGaussianBlur result="effect1_foregroundBlur_6709_29666" stdDeviation="3.12"/></filter><filter id="N" width="14.977" height="3.798" x="46.237" y="49.689" color-interpolation-filters="sRGB" filterUnits="userSpaceOnUse"><feFlood flood-opacity="0" result="BackgroundImageFix"/><feBlend in="SourceGraphic" in2="BackgroundImageFix" result="shape"/><feGaussianBlur result="effect1_foregroundBlur_6709_29666" stdDeviation=".41"/></filter><filter id="Q" width="18.051" height="16.869" x="44.776" y="46.769" color-interpolation-filters="sRGB" filterUnits="userSpaceOnUse"><feFlood flood-opacity="0" result="BackgroundImageFix"/><feBlend in="SourceGraphic" in2="BackgroundImageFix" result="shape"/><feGaussianBlur result="effect1_foregroundBlur_6709_29666" stdDeviation="2.45"/></filter><filter id="T" width="12.731" height="9.591" x="47.436" y="48.968" color-interpolation-filters="sRGB" filterUnits="userSpaceOnUse"><feFlood flood-opacity="0" result="BackgroundImageFix"/><feBlend in="SourceGraphic" in2="BackgroundImageFix" result="shape"/><feGaussianBlur result="effect1_foregroundBlur_6709_29666" stdDeviation="1.12"/></filter><filter id="W" width="11.985" height="7.48" x="48.517" y="46.347" color-interpolation-filters="sRGB" filterUnits="userSpaceOnUse"><feFlood flood-opacity="0" result="BackgroundImageFix"/><feBlend in="SourceGraphic" in2="BackgroundImageFix" result="shape"/><feGaussianBlur result="effect1_foregroundBlur_6709_29666" stdDeviation=".88"/></filter><filter id="Z" width="11.985" height="7.48" x="48.517" y="46.347" color-interpolation-filters="sRGB" filterUnits="userSpaceOnUse"><feFlood flood-opacity="0" result="BackgroundImageFix"/><feBlend in="SourceGraphic" in2="BackgroundImageFix" result="shape"/><feGaussianBlur result="effect1_foregroundBlur_6709_29666" stdDeviation=".88"/></filter><filter id="ad" width="3.032" height="3.802" x="28.579" y="12.709" color-interpolation-filters="sRGB" filterUnits="userSpaceOnUse"><feFlood flood-opacity="0" result="BackgroundImageFix"/><feBlend in="SourceGraphic" in2="BackgroundImageFix" result="shape"/><feGaussianBlur result="effect1_foregroundBlur_6709_29666" stdDeviation=".44"/></filter><filter id="ai" width="3.876" height="3.534" x="28.882" y="9.005" color-interpolation-filters="sRGB" filterUnits="userSpaceOnUse"><feFlood flood-opacity="0" result="BackgroundImageFix"/><feBlend in="SourceGraphic" in2="BackgroundImageFix" result="shape"/><feGaussianBlur result="effect1_foregroundBlur_6709_29666" stdDeviation=".12"/></filter><filter id="al" width="3.491" height="3.466" x="37.63" y="12.461" color-interpolation-filters="sRGB" filterUnits="userSpaceOnUse"><feFlood flood-opacity="0" result="BackgroundImageFix"/><feBlend in="SourceGraphic" in2="BackgroundImageFix" result="shape"/><feGaussianBlur result="effect1_foregroundBlur_6709_29666" stdDeviation=".45"/></filter><filter id="aq" width="4.238" height="3.951" x="38.795" y="8.51" color-interpolation-filters="sRGB" filterUnits="userSpaceOnUse"><feFlood flood-opacity="0" result="BackgroundImageFix"/><feBlend in="SourceGraphic" in2="BackgroundImageFix" result="shape"/><feGaussianBlur result="effect1_foregroundBlur_6709_29666" stdDeviation=".13"/></filter><filter id="as" width="22.502" height="16.166" x="23.915" y="16.4" color-interpolation-filters="sRGB" filterUnits="userSpaceOnUse"><feFlood flood-opacity="0" result="BackgroundImageFix"/><feBlend in="SourceGraphic" in2="BackgroundImageFix" result="shape"/><feGaussianBlur result="effect1_foregroundBlur_6709_29666" stdDeviation="1.75"/></filter><filter id="au" width="18.038" height="9.942" x="25.679" y="17.623" color-interpolation-filters="sRGB" filterUnits="userSpaceOnUse"><feFlood flood-opacity="0" result="BackgroundImageFix"/><feBlend in="SourceGraphic" in2="BackgroundImageFix" result="shape"/><feGaussianBlur result="effect1_foregroundBlur_6709_29666" stdDeviation=".8"/></filter><filter id="ay" width="6.447" height="5.547" x="29.326" y="20.073" color-interpolation-filters="sRGB" filterUnits="userSpaceOnUse"><feFlood flood-opacity="0" result="BackgroundImageFix"/><feBlend in="SourceGraphic" in2="BackgroundImageFix" result="shape"/><feGaussianBlur result="effect1_foregroundBlur_6709_29666" stdDeviation=".77"/></filter><filter id="aA" width="15.421" height="8.155" x="26.556" y="16.512" color-interpolation-filters="sRGB" filterUnits="userSpaceOnUse"><feFlood flood-opacity="0" result="BackgroundImageFix"/><feBlend in="SourceGraphic" in2="BackgroundImageFix" result="shape"/><feGaussianBlur result="effect1_foregroundBlur_6709_29666" stdDeviation=".65"/></filter><filter id="aD" width="5.987" height="6.709" x="31.977" y="16.587" color-interpolation-filters="sRGB" filterUnits="userSpaceOnUse"><feFlood flood-opacity="0" result="BackgroundImageFix"/><feBlend in="SourceGraphic" in2="BackgroundImageFix" result="shape"/><feGaussianBlur result="effect1_foregroundBlur_6709_29666" stdDeviation=".73"/></filter><filter id="aF" width=".952" height="1.007" x="31.025" y="16.402" color-interpolation-filters="sRGB" filterUnits="userSpaceOnUse"><feFlood flood-opacity="0" result="BackgroundImageFix"/><feBlend in="SourceGraphic" in2="BackgroundImageFix" result="shape"/><feGaussianBlur result="effect1_foregroundBlur_6709_29666" stdDeviation=".1"/></filter><filter id="aH" width="1.774" height="1.122" x="34.267" y="16.274" color-interpolation-filters="sRGB" filterUnits="userSpaceOnUse"><feFlood flood-opacity="0" result="BackgroundImageFix"/><feBlend in="SourceGraphic" in2="BackgroundImageFix" result="shape"/><feGaussianBlur result="effect1_foregroundBlur_6709_29666" stdDeviation=".1"/></filter><filter id="aJ" width="2.319" height="2.633" x="40.129" y="18.131" color-interpolation-filters="sRGB" filterUnits="userSpaceOnUse"><feFlood flood-opacity="0" result="BackgroundImageFix"/><feBlend in="SourceGraphic" in2="BackgroundImageFix" result="shape"/><feGaussianBlur result="effect1_foregroundBlur_6709_29666" stdDeviation=".23"/></filter><radialGradient id="e" cx="0" cy="0" r="1" gradientTransform="matrix(5.34375 0 0 5.0625 22.832 34.085)" gradientUnits="userSpaceOnUse"><stop/><stop offset="1" stop-opacity=".25"/></radialGradient><radialGradient id="h" cx="0" cy="0" r="1" gradientTransform="matrix(6.6375 0 0 5.0625 40.99 37.012)" gradientUnits="userSpaceOnUse"><stop/><stop offset="1" stop-opacity=".25"/></radialGradient><radialGradient id="k" cx="0" cy="0" r="1" gradientTransform="matrix(2.62969 0 0 2.8125 32.122 35.851)" gradientUnits="userSpaceOnUse"><stop/><stop offset="1" stop-opacity=".25"/></radialGradient><radialGradient id="S" cx="0" cy="0" r="1" gradientTransform="rotate(15 -181.11 229.995)scale(5.52938 5.805)" gradientUnits="userSpaceOnUse"><stop stop-color="#110800"/><stop offset=".59" stop-color="#a65a00" stop-opacity=".8"/><stop offset="1" stop-color="#ff921e" stop-opacity="0"/></radialGradient><radialGradient id="V" cx="0" cy="0" r="1" gradientTransform="matrix(5.54693 -.23442 .17647 4.17565 53.356 53.406)" gradientUnits="userSpaceOnUse"><stop stop-color="#110800"/><stop offset=".59" stop-color="#a65a00" stop-opacity=".8"/><stop offset="1" stop-color="#ff921e" stop-opacity="0"/></radialGradient><radialGradient id="Y" cx="0" cy="0" r="1" gradientTransform="rotate(23.5 -90.63 163.196)scale(1.9547 .90281)" gradientUnits="userSpaceOnUse"><stop stop-color="#7c7c7c"/><stop offset="1" stop-color="#7c7c7c" stop-opacity=".33"/></radialGradient><radialGradient id="ac" cx="0" cy="0" r="1" gradientTransform="rotate(-.6 1395.715 -2852.806)scale(2.88 4.41)" gradientUnits="userSpaceOnUse"><stop stop-color="#fefefc"/><stop offset=".75" stop-color="#fefefc"/><stop offset="1" stop-color="#d4d4d4"/></radialGradient><radialGradient id="ah" cx="0" cy="0" r="1" gradientTransform="rotate(-9.35 89.969 -174.22)scale(1.75781 1.62281)" gradientUnits="userSpaceOnUse"><stop stop-color="#c8c8c8"/><stop offset="1" stop-color="#797978"/></radialGradient><radialGradient id="ak" cx="0" cy="0" r="1" gradientTransform="rotate(-1.8 479.634 -1228.65)scale(3.83625 4.41)" gradientUnits="userSpaceOnUse"><stop stop-color="#fefefc"/><stop offset=".75" stop-color="#fefefc"/><stop offset="1" stop-color="#d4d4d4"/></radialGradient><radialGradient id="aw" cx="0" cy="0" r="1" gradientTransform="rotate(-36 42.563 -42.46)scale(3.2175 2.91937)" gradientUnits="userSpaceOnUse"><stop stop-color="#020204"/><stop offset=".73" stop-color="#020204"/><stop offset="1" stop-color="#5c5c5c"/></radialGradient><radialGradient id="ax" cx="0" cy="0" r="1" gradientTransform="rotate(-22.4 68.398 -82.236)scale(7.63594 5.36344)" gradientUnits="userSpaceOnUse"><stop stop-color="#d2940a"/><stop offset=".75" stop-color="#d89c08"/><stop offset=".87" stop-color="#b67e07"/><stop offset="1" stop-color="#946106"/></radialGradient><radialGradient id="aG" cx="0" cy="0" r="1" gradientTransform="matrix(.37125 0 0 .39937 31.531 16.841)" gradientUnits="userSpaceOnUse"><stop stop-color="#3a2903"/><stop offset=".55" stop-color="#735208"/><stop offset="1" stop-color="#ac8c04"/></radialGradient><radialGradient id="aI" cx="0" cy="0" r="1" gradientTransform="matrix(.78187 0 0 .45563 35.057 16.791)" gradientUnits="userSpaceOnUse"><stop stop-color="#3a2903"/><stop offset=".55" stop-color="#735208"/><stop offset="1" stop-color="#ac8c04"/></radialGradient><linearGradient id="x" x1="12.144" x2="23.712" y1="54.284" y2="73.693" gradientUnits="userSpaceOnUse"><stop stop-color="#b98309"/><stop offset="1" stop-color="#382605"/></linearGradient><linearGradient id="E" x1="23.758" x2="27.397" y1="59.296" y2="66.153" gradientUnits="userSpaceOnUse"><stop stop-color="#ebc40c"/><stop offset="1" stop-color="#ebc40c" stop-opacity="0"/></linearGradient><linearGradient id="H" x1="46.949" x2="47.869" y1="59.614" y2="66.299" gradientUnits="userSpaceOnUse"><stop/><stop offset="1" stop-opacity="0"/></linearGradient><linearGradient id="I" x1="48.235" x2="59.89" y1="71.162" y2="52.268" gradientUnits="userSpaceOnUse"><stop stop-color="#3e2a06"/><stop offset="1" stop-color="#ad780a"/></linearGradient><linearGradient id="P" x1="51.416" x2="51.073" y1="50.813" y2="53.899" gradientUnits="userSpaceOnUse"><stop stop-color="#f3cd0c"/><stop offset="1" stop-color="#f3cd0c" stop-opacity="0"/></linearGradient><linearGradient id="ab" x1="52.225" x2="52.951" y1="48.82" y2="48.789" gradientUnits="userSpaceOnUse"><stop stop-color="#7c7c7c"/><stop offset="1" stop-color="#7c7c7c" stop-opacity=".33"/></linearGradient><linearGradient id="af" x1="29.331" x2="30.746" y1="13.117" y2="15.646" gradientUnits="userSpaceOnUse"><stop stop-color="#757574" stop-opacity="0"/><stop offset=".25" stop-color="#757574"/><stop offset=".5" stop-color="#757574"/><stop offset="1" stop-color="#757574" stop-opacity="0"/></linearGradient><linearGradient id="aj" x1="29.135" x2="32.198" y1="9.143" y2="12.271" gradientUnits="userSpaceOnUse"><stop stop-color="#646464" stop-opacity="0"/><stop offset=".31" stop-color="#646464" stop-opacity=".58"/><stop offset=".47" stop-color="#646464"/><stop offset=".73" stop-color="#646464" stop-opacity=".26"/><stop offset="1" stop-color="#646464" stop-opacity="0"/></linearGradient><linearGradient id="an" x1="38.776" x2="40.404" y1="13.289" y2="15.218" gradientUnits="userSpaceOnUse"><stop stop-color="#949494" stop-opacity=".39"/><stop offset=".5" stop-color="#949494"/><stop offset="1" stop-color="#949494" stop-opacity=".39"/></linearGradient><linearGradient id="ap" x1="37.378" x2="42.559" y1="10.19" y2="13.222" gradientUnits="userSpaceOnUse"><stop stop-color="#747474"/><stop offset=".13" stop-color="#8c8c8c"/><stop offset=".25" stop-color="#a4a4a4"/><stop offset=".5" stop-color="#d4d4d4"/><stop offset=".62" stop-color="#d4d4d4"/><stop offset="1" stop-color="#7c7c7c"/></linearGradient><linearGradient id="ar" x1="39.139" x2="42.587" y1="8.876" y2="12.133" gradientUnits="userSpaceOnUse"><stop stop-color="#646464" stop-opacity="0"/><stop offset=".31" stop-color="#646464" stop-opacity=".58"/><stop offset=".47" stop-color="#646464"/><stop offset=".73" stop-color="#646464" stop-opacity=".26"/><stop offset="1" stop-color="#646464" stop-opacity="0"/></linearGradient><linearGradient id="aC" x1="27.588" x2="41.279" y1="19.48" y2="19.373" gradientUnits="userSpaceOnUse"><stop stop-color="#ad780a"/><stop offset=".12" stop-color="#d89e08"/><stop offset=".25" stop-color="#edb80b"/><stop offset=".39" stop-color="#ebc80d"/><stop offset=".53" stop-color="#f5d838"/><stop offset=".77" stop-color="#f6d811"/><stop offset="1" stop-color="#f5cd31"/></linearGradient><linearGradient id="aL" x1="41.27" x2="41.27" y1="18.982" y2="19.994" gradientUnits="userSpaceOnUse"><stop stop-color="#f5ce2d"/><stop offset="1" stop-color="#d79b08"/></linearGradient><clipPath id="a"><path fill="#fff" d="M0 0h72v72H0z"/></clipPath></defs></svg>