<svg xmlns="http://www.w3.org/2000/svg" width="72" height="72" fill="none" viewBox="0 0 72 72"><g clip-path="url(#a)"><path fill="#a7abbd" d="M18.498 34.427c.933-2.03 2.55-3.853 4.068-5.564s1.26-1.445 1.358-1.554l.283-.317c.414-.466.68-.795.78-.986l1.87.638a19 19 0 0 1-.358 1.543l-.002.005c-.129.491-.246.936-.326 1.38-.22 1.232-.476 2.652-1.137 3.94-.393.767-.903 1.434-1.385 2.032l-.317.39c-.375.46-.718.88-1.025 1.334-.54.798-.948 1.673-1.394 2.628q-.104.225-.213.455v.002l-.09.188c-.273.576-.521 1.098-.715 1.641-.53 1.5-.613 3.165-.307 4.767.113.592.266 1.1.512 1.515l.001.002c.258.436.643.813 1.142 1.281.5.469 5.31 4.506 5.352 4.539l.126.097c.809.624 1.805 1.392 2.457 2.462.286.47.527 1.035.597 1.665.07.633-.04 1.342-.431 1.947h-.001a2.9 2.9 0 0 1-1.267 1.062l-.003.001a3.5 3.5 0 0 1-1.49.284c-.954-.016-1.814-.367-2.492-.675l-.003-.001a21.6 21.6 0 0 1-3.658-2.138h-.002c-2.522-1.831-4.664-4.228-6.096-7.029-.337-.653-.651-1.368-.851-2.14-.205-.78-.288-1.633-.147-2.487.172-1.04.664-1.96 1.062-2.706l.052-.097c.56-1.054 1.11-2.086 1.609-3.139.546-1.156 1.022-2.325 1.37-3.518v-.002c.077-.265.154-.554.233-.857.217-.824.461-1.75.835-2.58zm39.897 19.688c-.42.327-.977.522-1.403.647-.425.126-10.492-30.762-6.027-28.92.19.282.273.41.344.522.112.176.196.308.634.927l.002.003c.147.21.315.428.5.663l.057.075c.163.208.337.431.498.652.416.572.906 1.094 1.447 1.671l.085.091c.558.596 1.166 1.252 1.676 2.003a23.8 23.8 0 0 1 2.444 4.621c.855 2.168 1.533 4.426 1.938 6.747.292 1.684.475 3.535.115 5.345v.002l-.037.181c-.143.716-.311 1.56-.601 2.347-.32.87-.816 1.757-1.672 2.423"/><path fill="#a7abbd" d="M24.967 11.284c.052-2.014.386-3.911 1.28-5.711a9.9 9.9 0 0 1 4.145-4.31C32.076.352 33.917 0 35.71 0c2.598 0 5.17.785 7.232 2.281 1.292.937 2.369 2.132 3.21 3.454a13.3 13.3 0 0 1 1.634 3.668l.003.01c.455 1.759.465 3.744.475 5.627l.002.488c.014 2.09.073 4.068.635 5.85.536 1.698 1.172 2.895 1.924 4.201l.349.602c.976 1.977 1.438 2.47 2.251 4.256 1.513 3.332 2.678 6.879 3.162 10.558.485 3.68.277 7.51-.89 11.086-1.165 3.576-5.025 18.825-5.025 18.825l-.006.002a6.8 6.8 0 0 1-1.67.133c-1.59-.046-3.156-.446-4.59-.812q-.485-.126-.949-.239h-.002a39 39 0 0 0-3.318-.656c-3.345-.483-7.271-.762-10.743-.052-3.47.71-2.248.497-3.71.892-1.46.396-3.07.831-4.718.868h-.004a6.8 6.8 0 0 1-1.625-.144l-.006-.001a4.2 4.2 0 0 1-1.651-.773l-.003-.003c-.772-.617-1.232-1.514-1.399-2.408-.166-.895.964-4.4 1.15-4.72s.38-.633.566-.932l.004-.008c.19-.305.37-.595.538-.886.118-.206.229-.407.341-.613-1.416-1.913-2.474-4.11-3.007-6.451-.763-3.361-.412-6.9.727-10.095.404-1.138.903-2.227 1.388-3.274l.087-.188c.46-.991.901-1.944 1.272-2.922.313-.828.572-1.664.84-2.533q.156-.504.321-1.024c.39-1.218.832-2.476 1.468-3.672.45-.848 1.067-1.641 1.617-2.349q.248-.318.47-.611c.667-.892 1.162-1.695 1.346-2.601.083-.683.044-1.106-.013-1.733-.058-.628-.103-.915-.26-3.601-.156-2.686-.234-5.497-.165-8.216"/><path fill="#020204" d="M35.71 1c-1.665 0-3.334.327-4.843 1.143a8.9 8.9 0 0 0-3.725 3.874c-.81 1.63-1.126 3.373-1.176 5.292-.091 3.644.083 7.466.358 10.93.072 1.054.205 1.67.07 2.754-.45 2.302-2.463 3.85-3.54 5.871-1.184 2.23-1.683 4.751-2.576 7.114-.818 2.16-1.966 4.188-2.74 6.365-1.085 3.043-1.41 6.387-.694 9.538.547 2.402 1.687 4.654 3.223 6.581-.222.4-.438.808-.666 1.204-.712 1.229-1.583 2.396-1.988 3.758-.203.68-.283 1.406-.153 2.105s.486 1.368 1.04 1.811a3.2 3.2 0 0 0 1.257.583c.452.102.92.127 1.387.119 1.766-.039 3.48-.574 5.189-1.023a62 62 0 0 1 3.059-.716c3.644-.746 7.71-.447 11.09.042q1.72.261 3.41.674c1.763.427 3.519.97 5.333 1.023a6 6 0 0 0 1.425-.111c.466-.105.918-.294 1.29-.59.557-.444.912-1.116 1.043-1.815s.05-1.428-.156-2.11c-.41-1.365-1.29-2.527-2.016-3.75-.288-.485-.555-.979-.84-1.464 2.19-2.46 3.955-5.306 4.975-8.431 1.112-3.412 1.318-7.087.849-10.645s-1.598-7.008-3.081-10.275c-1.864-4.094-3.431-5.575-4.568-9.172-1.226-3.889-.214-8.49-1.126-12.015a12.3 12.3 0 0 0-1.512-3.392c-.782-1.228-1.775-2.327-2.953-3.18C40.475 1.726 38.11 1 35.709 1"/><path fill="#fdfdfb" d="M29.103 21.523c-.25.314-.41.69-.51 1.08-.097.387-.133.79-.15 1.192-.03.801.02 1.617-.194 2.39-.227.827-.735 1.545-1.231 2.241-.863 1.21-1.734 2.452-2.158 3.875a6.9 6.9 0 0 0-.252 2.668 28.5 28.5 0 0 0-2.491 4.487c-1.048 2.377-1.767 4.906-2.02 7.491-.31 3.165.095 6.42 1.346 9.344.901 2.116 2.25 4.05 3.988 5.558a13.6 13.6 0 0 0 2.912 1.933c3.636 1.789 8.13 1.792 11.704-.114 1.87-.995 3.448-2.451 4.967-3.924.916-.888 1.828-1.797 2.527-2.862 1.345-2.055 1.814-4.551 2.105-6.99.508-4.26.524-8.763-1.345-12.627a13.9 13.9 0 0 0-2.53-3.62 19.8 19.8 0 0 0-1.597-5.385c-.569-1.234-1.259-2.407-1.786-3.655-.216-.514-.405-1.04-.643-1.543-.242-.502-.536-.984-.94-1.37a3.8 3.8 0 0 0-1.465-.851c-.54-.18-1.112-.26-1.68-.289-1.14-.058-2.28.092-3.42.045-.907-.036-1.811-.194-2.718-.142a4.2 4.2 0 0 0-1.326.28 2.66 2.66 0 0 0-1.093.788"/><mask id="c" width="40" height="70" x="16" y="1" maskUnits="userSpaceOnUse" style="mask-type:luminance"><path fill="#fff" d="M35.71 1c-1.665 0-3.334.327-4.843 1.143a8.9 8.9 0 0 0-3.725 3.874c-.81 1.63-1.126 3.373-1.176 5.292-.091 3.644.083 7.466.358 10.93.072 1.054.205 1.67.07 2.754-.45 2.302-2.463 3.85-3.54 5.871-1.184 2.23-1.683 4.751-2.576 7.114-.818 2.16-1.966 4.188-2.74 6.365-1.085 3.043-1.41 6.387-.694 9.538.547 2.402 1.687 4.654 3.223 6.581-.222.4-.438.808-.666 1.204-.712 1.229-1.583 2.396-1.988 3.758-.203.68-.283 1.406-.153 2.105s.486 1.368 1.04 1.811a3.2 3.2 0 0 0 1.257.583c.452.102.92.127 1.387.119 1.766-.039 3.48-.574 5.189-1.023a62 62 0 0 1 3.059-.716c3.644-.746 7.71-.447 11.09.042q1.72.261 3.41.674c1.763.427 3.519.97 5.333 1.023a6 6 0 0 0 1.425-.111c.466-.105.918-.294 1.29-.59.557-.444.912-1.116 1.043-1.815s.05-1.428-.156-2.11c-.41-1.365-1.29-2.527-2.016-3.75-.288-.485-.555-.979-.84-1.464 2.19-2.46 3.955-5.306 4.975-8.431 1.112-3.412 1.318-7.087.849-10.645s-1.598-7.008-3.081-10.275c-1.864-4.094-3.431-5.575-4.568-9.172-1.226-3.889-.214-8.49-1.126-12.015a12.3 12.3 0 0 0-1.512-3.392c-.782-1.228-1.775-2.327-2.953-3.18C40.475 1.726 38.11 1 35.709 1"/></mask><g filter="url(#b)" mask="url(#c)" opacity=".25"><path fill="url(#d)" d="M25.092 32.944c.242.364-.152 1.62 5.508.816 0 0-.995.108-1.974.335-1.523.51-2.849 1.08-3.875 1.834-1.012.748-1.756 1.722-2.685 2.557 0 0 1.506-2.751 1.88-3.58.378-.83-.06-.791.236-2.011.297-1.22 1.024-2.394 1.024-2.394s-.594 1.725-.114 2.443"/></g><mask id="g" width="40" height="70" x="16" y="1" maskUnits="userSpaceOnUse" style="mask-type:luminance"><path fill="#fff" d="M35.71 1c-1.665 0-3.334.327-4.843 1.143a8.9 8.9 0 0 0-3.725 3.874c-.81 1.63-1.126 3.373-1.176 5.292-.091 3.644.083 7.466.358 10.93.072 1.054.205 1.67.07 2.754-.45 2.302-2.463 3.85-3.54 5.871-1.184 2.23-1.683 4.751-2.576 7.114-.818 2.16-1.966 4.188-2.74 6.365-1.085 3.043-1.41 6.387-.694 9.538.547 2.402 1.687 4.654 3.223 6.581-.222.4-.438.808-.666 1.204-.712 1.229-1.583 2.396-1.988 3.758-.203.68-.283 1.406-.153 2.105s.486 1.368 1.04 1.811a3.2 3.2 0 0 0 1.257.583c.452.102.92.127 1.387.119 1.766-.039 3.48-.574 5.189-1.023a62 62 0 0 1 3.059-.716c3.644-.746 7.71-.447 11.09.042q1.72.261 3.41.674c1.763.427 3.519.97 5.333 1.023a6 6 0 0 0 1.425-.111c.466-.105.918-.294 1.29-.59.557-.444.912-1.116 1.043-1.815s.05-1.428-.156-2.11c-.41-1.365-1.29-2.527-2.016-3.75-.288-.485-.555-.979-.84-1.464 2.19-2.46 3.955-5.306 4.975-8.431 1.112-3.412 1.318-7.087.849-10.645s-1.598-7.008-3.081-10.275c-1.864-4.094-3.431-5.575-4.568-9.172-1.226-3.889-.214-8.49-1.126-12.015a12.3 12.3 0 0 0-1.512-3.392c-.782-1.228-1.775-2.327-2.953-3.18C40.475 1.726 38.11 1 35.709 1"/></mask><g filter="url(#f)" mask="url(#g)" opacity=".42"><path fill="url(#h)" d="M43.289 32.614c-1.154.805-1.83.71-3.229.866-1.4.158-5.186.1-5.186.1s.546-.009 1.764.216c1.215.227 3.691.443 5.086.973 1.398.533 1.906.685 2.754 1.22 1.207.763 2.094 1.959 3.248 2.796 0 0 .056-1.11-.41-1.939s-1.72-2.135-2.089-3.355c-.366-1.22-.543-3.617-.543-3.617s-.244 1.939-1.395 2.74"/></g><mask id="j" width="40" height="70" x="16" y="1" maskUnits="userSpaceOnUse" style="mask-type:luminance"><path fill="#fff" d="M35.71 1c-1.665 0-3.334.327-4.843 1.143a8.9 8.9 0 0 0-3.725 3.874c-.81 1.63-1.126 3.373-1.176 5.292-.091 3.644.083 7.466.358 10.93.072 1.054.205 1.67.07 2.754-.45 2.302-2.463 3.85-3.54 5.871-1.184 2.23-1.683 4.751-2.576 7.114-.818 2.16-1.966 4.188-2.74 6.365-1.085 3.043-1.41 6.387-.694 9.538.547 2.402 1.687 4.654 3.223 6.581-.222.4-.438.808-.666 1.204-.712 1.229-1.583 2.396-1.988 3.758-.203.68-.283 1.406-.153 2.105s.486 1.368 1.04 1.811a3.2 3.2 0 0 0 1.257.583c.452.102.92.127 1.387.119 1.766-.039 3.48-.574 5.189-1.023a62 62 0 0 1 3.059-.716c3.644-.746 7.71-.447 11.09.042q1.72.261 3.41.674c1.763.427 3.519.97 5.333 1.023a6 6 0 0 0 1.425-.111c.466-.105.918-.294 1.29-.59.557-.444.912-1.116 1.043-1.815s.05-1.428-.156-2.11c-.41-1.365-1.29-2.527-2.016-3.75-.288-.485-.555-.979-.84-1.464 2.19-2.46 3.955-5.306 4.975-8.431 1.112-3.412 1.318-7.087.849-10.645s-1.598-7.008-3.081-10.275c-1.864-4.094-3.431-5.575-4.568-9.172-1.226-3.889-.214-8.49-1.126-12.015a12.3 12.3 0 0 0-1.512-3.392c-.782-1.228-1.775-2.327-2.953-3.18C40.475 1.726 38.11 1 35.709 1"/></mask><g filter="url(#i)" mask="url(#j)" opacity=".2"><path fill="url(#k)" d="M32.443 30.9q-.067.522-.167 1.038a3 3 0 0 1-.133.5 1.1 1.1 0 0 1-.283.43c-.114.102-.25.171-.388.235a6 6 0 0 1-1.698.483q.349.025.702.063c.147.017.294.034.436.07.144.038.285.094.404.18.13.097.233.227.311.372.153.282.203.61.23.934.036.41.04.827.009 1.237a4 4 0 0 1 .172-.81 3.6 3.6 0 0 1 .746-1.29 2.46 2.46 0 0 1 2.174-.813 2.7 2.7 0 0 1-1.72-.534 2.2 2.2 0 0 1-.615-.694 1.94 1.94 0 0 1-.18-1.4"/></g><mask id="m" width="40" height="70" x="16" y="1" maskUnits="userSpaceOnUse" style="mask-type:luminance"><path fill="#fff" d="M35.71 1c-1.665 0-3.334.327-4.843 1.143a8.9 8.9 0 0 0-3.725 3.874c-.81 1.63-1.126 3.373-1.176 5.292-.091 3.644.083 7.466.358 10.93.072 1.054.205 1.67.07 2.754-.45 2.302-2.463 3.85-3.54 5.871-1.184 2.23-1.683 4.751-2.576 7.114-.818 2.16-1.966 4.188-2.74 6.365-1.085 3.043-1.41 6.387-.694 9.538.547 2.402 1.687 4.654 3.223 6.581-.222.4-.438.808-.666 1.204-.712 1.229-1.583 2.396-1.988 3.758-.203.68-.283 1.406-.153 2.105s.486 1.368 1.04 1.811a3.2 3.2 0 0 0 1.257.583c.452.102.92.127 1.387.119 1.766-.039 3.48-.574 5.189-1.023a62 62 0 0 1 3.059-.716c3.644-.746 7.71-.447 11.09.042q1.72.261 3.41.674c1.763.427 3.519.97 5.333 1.023a6 6 0 0 0 1.425-.111c.466-.105.918-.294 1.29-.59.557-.444.912-1.116 1.043-1.815s.05-1.428-.156-2.11c-.41-1.365-1.29-2.527-2.016-3.75-.288-.485-.555-.979-.84-1.464 2.19-2.46 3.955-5.306 4.975-8.431 1.112-3.412 1.318-7.087.849-10.645s-1.598-7.008-3.081-10.275c-1.864-4.094-3.431-5.575-4.568-9.172-1.226-3.889-.214-8.49-1.126-12.015a12.3 12.3 0 0 0-1.512-3.392c-.782-1.228-1.775-2.327-2.953-3.18C40.475 1.726 38.11 1 35.709 1"/></mask><g filter="url(#l)" mask="url(#m)" opacity=".11"><path fill="#000" d="M30.967 39.035a21 21 0 0 0-.602 3.414c-.153 1.628-.117 3.267-.205 4.9-.073 1.385-.236 2.786.005 4.153.114.651.319 1.287.61 1.88q.069-.34.1-.685c.103-1.11-.083-2.221-.147-3.33-.11-1.948.158-3.895.27-5.842a36 36 0 0 0-.031-4.49"/></g><mask id="o" width="40" height="70" x="16" y="1" maskUnits="userSpaceOnUse" style="mask-type:luminance"><path fill="#fff" d="M35.71 1c-1.665 0-3.334.327-4.843 1.143a8.9 8.9 0 0 0-3.725 3.874c-.81 1.63-1.126 3.373-1.176 5.292-.091 3.644.083 7.466.358 10.93.072 1.054.205 1.67.07 2.754-.45 2.302-2.463 3.85-3.54 5.871-1.184 2.23-1.683 4.751-2.576 7.114-.818 2.16-1.966 4.188-2.74 6.365-1.085 3.043-1.41 6.387-.694 9.538.547 2.402 1.687 4.654 3.223 6.581-.222.4-.438.808-.666 1.204-.712 1.229-1.583 2.396-1.988 3.758-.203.68-.283 1.406-.153 2.105s.486 1.368 1.04 1.811a3.2 3.2 0 0 0 1.257.583c.452.102.92.127 1.387.119 1.766-.039 3.48-.574 5.189-1.023a62 62 0 0 1 3.059-.716c3.644-.746 7.71-.447 11.09.042q1.72.261 3.41.674c1.763.427 3.519.97 5.333 1.023a6 6 0 0 0 1.425-.111c.466-.105.918-.294 1.29-.59.557-.444.912-1.116 1.043-1.815s.05-1.428-.156-2.11c-.41-1.365-1.29-2.527-2.016-3.75-.288-.485-.555-.979-.84-1.464 2.19-2.46 3.955-5.306 4.975-8.431 1.112-3.412 1.318-7.087.849-10.645s-1.598-7.008-3.081-10.275c-1.864-4.094-3.431-5.575-4.568-9.172-1.226-3.889-.214-8.49-1.126-12.015a12.3 12.3 0 0 0-1.512-3.392c-.782-1.228-1.775-2.327-2.953-3.18C40.475 1.726 38.11 1 35.709 1"/></mask><g filter="url(#n)" mask="url(#o)" opacity=".75"><path fill="#7c7c7c" d="M50.444 37.396c.286-.045 2.036 1.444 1.797 2-.238.551-.69.218-1.012.221-.322.006-1.2.405-1.348.153-.15-.253.389-.84.669-1.335.227-.396-.389-.995-.106-1.04"/></g><mask id="q" width="40" height="70" x="16" y="1" maskUnits="userSpaceOnUse" style="mask-type:luminance"><path fill="#fff" d="M35.71 1c-1.665 0-3.334.327-4.843 1.143a8.9 8.9 0 0 0-3.725 3.874c-.81 1.63-1.126 3.373-1.176 5.292-.091 3.644.083 7.466.358 10.93.072 1.054.205 1.67.07 2.754-.45 2.302-2.463 3.85-3.54 5.871-1.184 2.23-1.683 4.751-2.576 7.114-.818 2.16-1.966 4.188-2.74 6.365-1.085 3.043-1.41 6.387-.694 9.538.547 2.402 1.687 4.654 3.223 6.581-.222.4-.438.808-.666 1.204-.712 1.229-1.583 2.396-1.988 3.758-.203.68-.283 1.406-.153 2.105s.486 1.368 1.04 1.811a3.2 3.2 0 0 0 1.257.583c.452.102.92.127 1.387.119 1.766-.039 3.48-.574 5.189-1.023a62 62 0 0 1 3.059-.716c3.644-.746 7.71-.447 11.09.042q1.72.261 3.41.674c1.763.427 3.519.97 5.333 1.023a6 6 0 0 0 1.425-.111c.466-.105.918-.294 1.29-.59.557-.444.912-1.116 1.043-1.815s.05-1.428-.156-2.11c-.41-1.365-1.29-2.527-2.016-3.75-.288-.485-.555-.979-.84-1.464 2.19-2.46 3.955-5.306 4.975-8.431 1.112-3.412 1.318-7.087.849-10.645s-1.598-7.008-3.081-10.275c-1.864-4.094-3.431-5.575-4.568-9.172-1.226-3.889-.214-8.49-1.126-12.015a12.3 12.3 0 0 0-1.512-3.392c-.782-1.228-1.775-2.327-2.953-3.18C40.475 1.726 38.11 1 35.709 1"/></mask><g filter="url(#p)" mask="url(#q)"><path fill="#7c7c7c" d="M39.75 4.084c-.613.433-.346.973-.083 1.514.264.544-.58 2.105-.588 2.172-.008.066 1.659-.79 2.114-1.35.538-.658 1.894.892 1.819.657.003-.422-2.649-3.423-3.262-2.993"/></g><mask id="s" width="40" height="70" x="16" y="1" maskUnits="userSpaceOnUse" style="mask-type:luminance"><path fill="#fff" d="M35.71 1c-1.665 0-3.334.327-4.843 1.143a8.9 8.9 0 0 0-3.725 3.874c-.81 1.63-1.126 3.373-1.176 5.292-.091 3.644.083 7.466.358 10.93.072 1.054.205 1.67.07 2.754-.45 2.302-2.463 3.85-3.54 5.871-1.184 2.23-1.683 4.751-2.576 7.114-.818 2.16-1.966 4.188-2.74 6.365-1.085 3.043-1.41 6.387-.694 9.538.547 2.402 1.687 4.654 3.223 6.581-.222.4-.438.808-.666 1.204-.712 1.229-1.583 2.396-1.988 3.758-.203.68-.283 1.406-.153 2.105s.486 1.368 1.04 1.811a3.2 3.2 0 0 0 1.257.583c.452.102.92.127 1.387.119 1.766-.039 3.48-.574 5.189-1.023a62 62 0 0 1 3.059-.716c3.644-.746 7.71-.447 11.09.042q1.72.261 3.41.674c1.763.427 3.519.97 5.333 1.023a6 6 0 0 0 1.425-.111c.466-.105.918-.294 1.29-.59.557-.444.912-1.116 1.043-1.815s.05-1.428-.156-2.11c-.41-1.365-1.29-2.527-2.016-3.75-.288-.485-.555-.979-.84-1.464 2.19-2.46 3.955-5.306 4.975-8.431 1.112-3.412 1.318-7.087.849-10.645s-1.598-7.008-3.081-10.275c-1.864-4.094-3.431-5.575-4.568-9.172-1.226-3.889-.214-8.49-1.126-12.015a12.3 12.3 0 0 0-1.512-3.392c-.782-1.228-1.775-2.327-2.953-3.18C40.475 1.726 38.11 1 35.709 1"/></mask><g filter="url(#r)" mask="url(#s)"><path fill="#838384" d="M44.395 22.253c-.516.471.244 1.179.602 2.008.224.516.843 1.245 1.442 1.129.452-.09.73-.738.688-1.193-.084-.882-.827-1.09-1.368-1.392-.427-.239-1-.882-1.364-.552"/></g><path fill="#020204" d="M23.79 28.987c-1.69 1.92-3.43 3.78-4.384 5.858-.474 1.054-.696 2.199-1.02 3.308-.367 1.26-.866 2.48-1.426 3.667-.519 1.095-1.09 2.166-1.659 3.234-.416.779-.837 1.572-.981 2.443-.114.688-.05 1.398.127 2.072.175.674.455 1.317.774 1.936 1.353 2.648 3.386 4.928 5.794 6.675 1.092.79 2.26 1.476 3.489 2.039.665.302 1.364.574 2.096.585.366.008.735-.053 1.071-.2.333-.147.632-.382.832-.69.244-.377.327-.846.277-1.293s-.224-.873-.457-1.256c-.572-.937-1.473-1.617-2.341-2.288a79 79 0 0 1-5.422-4.598c-.488-.458-.98-.927-1.32-1.504-.333-.56-.513-1.198-.635-1.838-.336-1.756-.25-3.603.346-5.29.236-.66.544-1.289.843-1.921.516-1.096 1.004-2.214 1.684-3.218.846-1.25 1.977-2.31 2.665-3.652.583-1.134.818-2.407 1.043-3.661.177-.982.513-1.942.685-2.923-.336.638-1.417 1.683-2.08 2.515"/><mask id="u" width="15" height="35" x="14" y="26" maskUnits="userSpaceOnUse" style="mask-type:luminance"><path fill="#fff" d="M23.79 28.988c-1.692 1.919-3.43 3.78-4.385 5.857-.474 1.054-.696 2.2-1.02 3.309-.367 1.259-.866 2.48-1.426 3.666-.519 1.096-1.09 2.166-1.658 3.234-.417.78-.838 1.573-.982 2.444-.114.687-.05 1.397.127 2.071.175.674.455 1.318.774 1.936 1.353 2.649 3.386 4.929 5.794 6.676 1.093.79 2.26 1.475 3.489 2.038.665.303 1.364.575 2.096.586.366.008.735-.053 1.071-.2a1.9 1.9 0 0 0 .832-.69c.244-.378.327-.847.277-1.293-.05-.447-.224-.874-.457-1.257-.572-.937-1.473-1.616-2.341-2.288a79 79 0 0 1-5.422-4.598c-.488-.458-.98-.926-1.32-1.503-.333-.56-.513-1.198-.635-1.839-.336-1.755-.25-3.603.346-5.289.236-.66.544-1.29.843-1.922.516-1.095 1.004-2.213 1.684-3.217.846-1.25 1.977-2.31 2.665-3.653.583-1.134.818-2.407 1.043-3.66.178-.982.513-1.942.685-2.924-.336.638-1.417 1.684-2.08 2.516"/></mask><g filter="url(#t)" mask="url(#u)" opacity=".95"><path fill="#7c7c7c" d="M21.844 35.974a7.9 7.9 0 0 0-1.423 1.75c-.638 1.065-1.012 2.263-1.478 3.414-.344.857-.747 1.72-.794 2.643-.025.474.045.948.061 1.423.017.474-.027.968-.26 1.38a1.68 1.68 0 0 1-.893.752c.507.17.957.497 1.275.924.267.36.439.78.669 1.16.188.31.419.598.704.823.283.227.624.388.982.433a1.73 1.73 0 0 0 1.378-.439 32.3 32.3 0 0 1 1.232-12.86c.08-.26.163-.524.186-.796.02-.275-.034-.563-.2-.78a.83.83 0 0 0-.768-.324.85.85 0 0 0-.402.158.86.86 0 0 0-.27.339"/></g><path fill="#020204" d="M51.188 36.256c1.453 1.17 2.376 2.937 2.662 4.782.222 1.436.078 2.915-.247 4.332-.324 1.42-.824 2.79-1.323 4.16-.197.544-.396 1.095-.474 1.67-.08.576-.03 1.184.247 1.694.319.585.912.987 1.55 1.176a3.7 3.7 0 0 0 1.947.025c.638-.158 1.711-.363 2.23-.768 1.317-1.024 1.63-2.801 1.944-4.36.325-1.628.167-3.334-.12-4.978-.39-2.244-1.047-4.435-1.882-6.551a22.8 22.8 0 0 0-2.341-4.427c-.92-1.356-2.224-2.413-3.19-3.738-.335-.46-.737-.938-1.065-1.404-.71-1.004-.549-.815-.99-1.467-.319-.471-.823-.632-1.353-.837-.532-.206-1.126-.267-1.675-.114-.721.202-1.312.774-1.625 1.453-.314.683-.37 1.465-.247 2.205.158.954.593 1.842 1.087 2.674.555.94 1.198 1.847 2.038 2.546.877.73 1.936 1.212 2.827 1.927"/><mask id="w" width="15" height="30" x="45" y="25" maskUnits="userSpaceOnUse" style="mask-type:luminance"><path fill="#fff" d="M51.187 36.256c1.453 1.17 2.376 2.937 2.662 4.782.222 1.436.078 2.915-.247 4.332-.324 1.42-.823 2.79-1.323 4.16-.197.544-.396 1.095-.474 1.67-.08.576-.03 1.184.247 1.694.319.585.912.987 1.55 1.176a3.7 3.7 0 0 0 1.947.025c.638-.158 1.711-.363 2.23-.768 1.317-1.024 1.63-2.801 1.944-4.36.325-1.628.167-3.334-.119-4.978-.391-2.244-1.048-4.435-1.883-6.551a22.8 22.8 0 0 0-2.341-4.427c-.92-1.356-2.224-2.413-3.19-3.738-.335-.46-.737-.938-1.064-1.404-.71-1.004-.55-.815-.99-1.467-.32-.471-.824-.632-1.354-.837-.532-.206-1.126-.267-1.675-.114-.721.202-1.312.774-1.625 1.453-.314.683-.37 1.465-.247 2.205.158.954.593 1.842 1.087 2.674.555.94 1.198 1.847 2.038 2.546.877.73 1.936 1.212 2.827 1.927"/></mask><g filter="url(#v)" mask="url(#w)"><path fill="#838384" d="M47.765 34.002c.116.11.238.224.363.33.893.729 1.367 1.547 2.274 2.263 1.481 1.17 2.982 3.19 3.273 5.033.227 1.44-.072 2.222-.438 3.916-.367 1.698-1.404 4.1-1.967 5.736-.222.652.455.383.366 1.07-.044.339-.05.68-.008 1.018.006-.063.008-.133.017-.197.108-.937.393-1.838.707-2.723.602-1.7 1.292-3.37 1.77-5.117.476-1.745.424-3 .174-4.501-.313-1.889-1.412-3.63-2.965-4.782-1.1-.812-2.396-1.334-3.566-2.047"/></g><path fill="url(#x)" d="M15.748 49.627a2.17 2.17 0 0 1 1.218-.114 3 3 0 0 1 1.134.483c.685.466 1.193 1.142 1.678 1.813 1.118 1.537 2.191 3.107 3.167 4.738.79 1.325 1.515 2.693 2.43 3.932.596.813 1.267 1.565 1.866 2.371.6.81 1.13 1.687 1.396 2.657a5.33 5.33 0 0 1-.389 3.814 5 5 0 0 1-1.858 1.994c-.788.474-1.617.685-2.538.685-1.461 0-2.89-.785-4.249-1.326-2.768-1.103-5.774-1.447-8.628-2.307-.876-.264-1.739-.577-2.62-.818-.394-.108-.791-.203-1.163-.372-.371-.166-.718-.419-.923-.768a1.8 1.8 0 0 1-.222-.904c0-.316.078-.627.186-.921.213-.59.56-1.126.793-1.711.38-.954.45-2.005.397-3.032-.05-1.023-.217-2.04-.286-3.064-.033-.458-.045-.921.044-1.373.086-.45.28-.89.61-1.207.305-.294.708-.468 1.124-.554.413-.086.84-.089 1.262-.08.421.008.845.033 1.267-.004.422-.033.846-.127 1.212-.338.35-.2.635-.496.87-.82.237-.325.428-.68.625-1.033.194-.349.396-.698.654-1.009.255-.31.572-.58.943-.732"/><mask id="z" width="23" height="23" x="6" y="49" maskUnits="userSpaceOnUse" style="mask-type:luminance"><path fill="#fff" d="M15.748 49.627a2.17 2.17 0 0 1 1.218-.114 3 3 0 0 1 1.134.483c.685.466 1.193 1.142 1.678 1.813 1.118 1.537 2.191 3.107 3.167 4.738.79 1.325 1.515 2.693 2.43 3.932.596.813 1.267 1.565 1.866 2.371.6.81 1.13 1.687 1.396 2.657a5.33 5.33 0 0 1-.389 3.814 5 5 0 0 1-1.858 1.994c-.788.474-1.617.685-2.538.685-1.461 0-2.89-.785-4.249-1.326-2.768-1.103-5.774-1.447-8.628-2.307-.876-.264-1.739-.577-2.62-.818-.394-.108-.791-.203-1.163-.372-.371-.166-.718-.419-.923-.768a1.8 1.8 0 0 1-.222-.904c0-.316.078-.627.186-.921.213-.59.56-1.126.793-1.711.38-.954.45-2.005.397-3.032-.05-1.023-.217-2.04-.286-3.064-.033-.458-.045-.921.044-1.373.086-.45.28-.89.61-1.207.305-.294.708-.468 1.124-.554.413-.086.84-.089 1.262-.08.421.008.845.033 1.267-.004.422-.033.846-.127 1.212-.338.35-.2.635-.496.87-.82.237-.325.428-.68.625-1.033.194-.349.396-.698.654-1.009.255-.31.572-.58.943-.732"/></mask><g filter="url(#y)" mask="url(#z)"><path fill="#d99a03" d="M16.353 50.284c.347-.138.74-.155 1.104-.072.366.083.707.26 1.001.491.594.458 1.004 1.101 1.4 1.736a114 114 0 0 1 2.752 4.676c.666 1.196 1.298 2.413 2.113 3.509.541.726 1.16 1.395 1.712 2.113s1.043 1.5 1.287 2.374a4.67 4.67 0 0 1-.356 3.4 4.54 4.54 0 0 1-1.719 1.797 4.4 4.4 0 0 1-2.41.594c-1.337-.061-2.56-.73-3.82-1.181-2.415-.877-5.03-.996-7.51-1.678-.887-.242-1.752-.564-2.643-.788-.396-.1-.798-.183-1.173-.341-.374-.158-.727-.402-.932-.755a1.7 1.7 0 0 1-.202-.873c.01-.303.086-.602.194-.885.216-.566.555-1.076.771-1.642.33-.854.372-1.794.31-2.707-.06-.912-.221-1.82-.277-2.732-.022-.41-.027-.823.056-1.223.083-.402.258-.79.549-1.078.316-.314.749-.483 1.19-.552.438-.067.884-.036 1.325.002.444.04.888.09 1.332.064.443-.028.893-.136 1.259-.385.333-.225.582-.555.774-.907.19-.352.327-.733.474-1.104.144-.374.302-.746.53-1.079.227-.33.535-.621.91-.774"/></g><mask id="B" width="23" height="23" x="6" y="49" maskUnits="userSpaceOnUse" style="mask-type:luminance"><path fill="#fff" d="M15.748 49.627a2.17 2.17 0 0 1 1.218-.114 3 3 0 0 1 1.134.483c.685.466 1.193 1.142 1.678 1.813 1.118 1.537 2.191 3.107 3.167 4.738.79 1.325 1.515 2.693 2.43 3.932.596.813 1.267 1.565 1.866 2.371.6.81 1.13 1.687 1.396 2.657a5.33 5.33 0 0 1-.389 3.814 5 5 0 0 1-1.858 1.994c-.788.474-1.617.685-2.538.685-1.461 0-2.89-.785-4.249-1.326-2.768-1.103-5.774-1.447-8.628-2.307-.876-.264-1.739-.577-2.62-.818-.394-.108-.791-.203-1.163-.372-.371-.166-.718-.419-.923-.768a1.8 1.8 0 0 1-.222-.904c0-.316.078-.627.186-.921.213-.59.56-1.126.793-1.711.38-.954.45-2.005.397-3.032-.05-1.023-.217-2.04-.286-3.064-.033-.458-.045-.921.044-1.373.086-.45.28-.89.61-1.207.305-.294.708-.468 1.124-.554.413-.086.84-.089 1.262-.08.421.008.845.033 1.267-.004.422-.033.846-.127 1.212-.338.35-.2.635-.496.87-.82.237-.325.428-.68.625-1.033.194-.349.396-.698.654-1.009.255-.31.572-.58.943-.732"/></mask><g filter="url(#A)" mask="url(#B)"><path fill="#f5bd0c" d="M16.028 49.416c.339-.167.735-.2 1.104-.125s.713.255 1.004.49c.58.472.951 1.146 1.295 1.806.788 1.514 1.526 3.062 2.469 4.49.688 1.035 1.478 1.997 2.171 3.029.94 1.395 1.706 2.932 2.022 4.576.21 1.11.205 2.305-.327 3.3a3.67 3.67 0 0 1-1.595 1.531 4.1 4.1 0 0 1-2.196.408c-1.185-.102-2.258-.685-3.373-1.093-1.977-.718-4.116-.893-6.151-1.436-.857-.228-1.7-.524-2.569-.705-.385-.08-.776-.138-1.142-.277s-.713-.369-.902-.707a1.43 1.43 0 0 1-.155-.788c.02-.269.1-.532.205-.785.214-.499.527-.96.69-1.475.245-.763.145-1.587-.038-2.366-.18-.776-.444-1.54-.524-2.332a3.2 3.2 0 0 1 .047-1.06c.08-.346.244-.68.502-.926.333-.32.799-.48 1.265-.524.463-.045.929.016 1.39.083.46.066.925.139 1.389.116.466-.02.94-.141 1.303-.427.36-.283.588-.701.718-1.134.13-.435.172-.888.225-1.337.053-.45.12-.904.294-1.323.175-.419.469-.804.88-1.01"/></g><mask id="D" width="23" height="23" x="6" y="49" maskUnits="userSpaceOnUse" style="mask-type:luminance"><path fill="#fff" d="M15.748 49.627a2.17 2.17 0 0 1 1.218-.114 3 3 0 0 1 1.134.483c.685.466 1.193 1.142 1.678 1.813 1.118 1.537 2.191 3.107 3.167 4.738.79 1.325 1.515 2.693 2.43 3.932.596.813 1.267 1.565 1.866 2.371.6.81 1.13 1.687 1.396 2.657a5.33 5.33 0 0 1-.389 3.814 5 5 0 0 1-1.858 1.994c-.788.474-1.617.685-2.538.685-1.461 0-2.89-.785-4.249-1.326-2.768-1.103-5.774-1.447-8.628-2.307-.876-.264-1.739-.577-2.62-.818-.394-.108-.791-.203-1.163-.372-.371-.166-.718-.419-.923-.768a1.8 1.8 0 0 1-.222-.904c0-.316.078-.627.186-.921.213-.59.56-1.126.793-1.711.38-.954.45-2.005.397-3.032-.05-1.023-.217-2.04-.286-3.064-.033-.458-.045-.921.044-1.373.086-.45.28-.89.61-1.207.305-.294.708-.468 1.124-.554.413-.086.84-.089 1.262-.08.421.008.845.033 1.267-.004.422-.033.846-.127 1.212-.338.35-.2.635-.496.87-.82.237-.325.428-.68.625-1.033.194-.349.396-.698.654-1.009.255-.31.572-.58.943-.732"/></mask><g filter="url(#C)" mask="url(#D)"><path fill="url(#E)" d="M20.247 53.199c.624 1.126 1.004 2.418 1.622 3.555a88 88 0 0 0 1.792 3.084c.258.43.857 1.09 1.462 2.114.549.926 1.104 2.221 1.414 2.657-.177-.51-.543-1.878-.982-2.851-.407-.91-.884-1.429-1.175-1.92-.577-.962-1.201-1.83-1.795-2.748-.818-1.268-1.442-2.685-2.338-3.891"/></g><mask id="G" width="40" height="70" x="16" y="1" maskUnits="userSpaceOnUse" style="mask-type:luminance"><path fill="#fff" d="M35.71 1c-1.665 0-3.334.327-4.843 1.143a8.9 8.9 0 0 0-3.725 3.874c-.81 1.63-1.126 3.373-1.176 5.292-.091 3.644.083 7.466.358 10.93.072 1.054.205 1.67.07 2.754-.45 2.302-2.463 3.85-3.54 5.871-1.184 2.23-1.683 4.751-2.576 7.114-.818 2.16-1.966 4.188-2.74 6.365-1.085 3.043-1.41 6.387-.694 9.538.547 2.402 1.687 4.654 3.223 6.581-.222.4-.438.808-.666 1.204-.712 1.229-1.583 2.396-1.988 3.758-.203.68-.283 1.406-.153 2.105s.486 1.368 1.04 1.811a3.2 3.2 0 0 0 1.257.583c.452.102.92.127 1.387.119 1.766-.039 3.48-.574 5.189-1.023a62 62 0 0 1 3.059-.716c3.644-.746 7.71-.447 11.09.042q1.72.261 3.41.674c1.763.427 3.519.97 5.333 1.023a6 6 0 0 0 1.425-.111c.466-.105.918-.294 1.29-.59.557-.444.912-1.116 1.043-1.815s.05-1.428-.156-2.11c-.41-1.365-1.29-2.527-2.016-3.75-.288-.485-.555-.979-.84-1.464 2.19-2.46 3.955-5.306 4.975-8.431 1.112-3.412 1.318-7.087.849-10.645s-1.598-7.008-3.081-10.275c-1.864-4.094-3.431-5.575-4.568-9.172-1.226-3.889-.214-8.49-1.126-12.015a12.3 12.3 0 0 0-1.512-3.392c-.782-1.228-1.775-2.327-2.953-3.18C40.475 1.726 38.11 1 35.709 1"/></mask><g filter="url(#F)" mask="url(#G)" opacity=".2"><path fill="url(#H)" d="M61.155 60.798a4 4 0 0 1-.502 1.054c-.486.718-1.193 1.262-1.897 1.761-1.201.852-2.455 1.634-3.575 2.602a18 18 0 0 0-2.066 2.143c-.541.655-1.051 1.343-1.67 1.925-.624.588-1.356 1.065-2.147 1.323-.962.314-1.977.3-2.903.061-.65-.166-1.285-.455-1.687-.979s-.532-1.231-.58-1.925c-.083-1.226.065-2.476.198-3.722.11-1.034.213-2.069.255-3.1.075-1.878-.05-3.736-.303-5.561-.044-.308-.088-.616-.063-.93s.13-.643.352-.887c.205-.224.49-.358.774-.421.283-.067.571-.07.857-.078.674-.017 1.348-.058 2.01.003.42.036.83.114 1.246.152.696.067 1.42.034 2.119-.172.751-.221 1.467-.635 2.232-.748a3.2 3.2 0 0 1 .932.002c.31.042.621.128.86.32.183.144.316.34.419.551.155.316.25.663.305 1.02.047.317.066.642.147.947.133.502.438.929.801 1.275.366.347.79.622 1.218.893.424.27.851.536 1.303.758.214.105.433.2.636.319.205.122.393.269.53.463.182.263.254.61.199.951"/></g><path fill="url(#I)" d="M65.252 62.826c-.627.743-1.498 1.234-2.366 1.678-1.478.751-3.012 1.414-4.401 2.32a18 18 0 0 0-2.596 2.09c-.688.657-1.34 1.358-2.11 1.916-.78.563-1.679.97-2.63 1.112a5.4 5.4 0 0 1-.793.058c-.899 0-1.797-.216-2.624-.577-.749-.324-1.47-.793-1.903-1.486-.432-.7-.532-1.55-.532-2.374-.003-1.45.266-2.888.519-4.319.21-1.19.41-2.38.54-3.58.236-2.18.233-4.385.078-6.576-.028-.366-.058-.735-.003-1.098.056-.364.206-.727.483-.965.258-.222.602-.322.943-.339.338-.02.676.033 1.012.084.79.116 1.59.205 2.363.41.488.127.965.3 1.45.433.816.219 1.667.324 2.502.227.902-.105 1.778-.444 2.685-.422a3.9 3.9 0 0 1 1.095.192c.36.114.719.277.985.549.202.205.344.463.45.732.157.4.243.827.28 1.254.03.38.024.765.096 1.14.12.613.444 1.176.844 1.655.402.483.882.89 1.361 1.293.48.402.96.801 1.476 1.154.241.166.49.321.72.502.231.183.442.393.586.648a1.5 1.5 0 0 1 .128 1.168 3.4 3.4 0 0 1-.638 1.12"/><mask id="K" width="21" height="22" x="45" y="50" maskUnits="userSpaceOnUse" style="mask-type:luminance"><path fill="#fff" d="M65.252 62.826c-.627.743-1.498 1.234-2.366 1.678-1.478.751-3.012 1.414-4.401 2.32a18 18 0 0 0-2.596 2.09c-.688.657-1.34 1.358-2.11 1.916-.78.563-1.679.97-2.63 1.112a5.4 5.4 0 0 1-.793.058c-.899 0-1.797-.216-2.624-.577-.749-.324-1.47-.793-1.903-1.486-.432-.7-.532-1.55-.532-2.374-.003-1.45.266-2.888.519-4.319.21-1.19.41-2.38.54-3.58.236-2.18.233-4.385.078-6.576-.028-.366-.058-.735-.003-1.098.056-.364.206-.727.483-.965.258-.222.602-.322.943-.339.338-.02.676.033 1.012.084.79.116 1.59.205 2.363.41.488.127.965.3 1.45.433.816.219 1.667.324 2.502.227.902-.105 1.778-.444 2.685-.422a3.9 3.9 0 0 1 1.095.192c.36.114.719.277.985.549.202.205.344.463.45.732.157.4.243.827.28 1.254.03.38.024.765.096 1.14.12.613.444 1.176.844 1.655.402.483.882.89 1.361 1.293.48.402.96.801 1.476 1.154.241.166.49.321.72.502.231.183.442.393.586.648a1.5 1.5 0 0 1 .128 1.168 3.4 3.4 0 0 1-.638 1.12"/></mask><g filter="url(#J)" mask="url(#K)"><path fill="#cd8907" d="M65.18 60.94a3.6 3.6 0 0 1-.616 1.018c-.574.67-1.367 1.112-2.157 1.508-1.354.677-2.752 1.27-4.022 2.086a16.5 16.5 0 0 0-2.371 1.88c-.627.591-1.223 1.224-1.928 1.723-.712.507-1.533.87-2.399.998-1.054.155-2.14-.044-3.12-.463-.682-.294-1.342-.71-1.739-1.34-.394-.626-.485-1.392-.485-2.132-.006-1.307.241-2.6.474-3.883.194-1.068.377-2.139.494-3.217.21-1.964.202-3.944.07-5.913-.023-.33-.048-.663.002-.99.05-.328.186-.652.435-.869.236-.202.552-.29.863-.305.308-.016.616.034.923.078.724.105 1.45.186 2.158.369.447.116.882.272 1.326.388.743.2 1.523.294 2.285.205.824-.094 1.623-.399 2.45-.38a3.7 3.7 0 0 1 1 .172c.33.103.658.25.902.494.183.186.308.419.41.66.147.358.247.74.253 1.129.008.405-.078.81-.025 1.212.044.324.183.632.36.91.175.277.388.53.602.779.41.485.82.979 1.337 1.35.585.425 1.281.675 1.886 1.068.18.12.355.253.482.428.217.294.272.693.15 1.037"/></g><mask id="M" width="21" height="22" x="45" y="50" maskUnits="userSpaceOnUse" style="mask-type:luminance"><path fill="#fff" d="M65.252 62.826c-.627.743-1.498 1.234-2.366 1.678-1.478.751-3.012 1.414-4.401 2.32a18 18 0 0 0-2.596 2.09c-.688.657-1.34 1.358-2.11 1.916-.78.563-1.679.97-2.63 1.112a5.4 5.4 0 0 1-.793.058c-.899 0-1.797-.216-2.624-.577-.749-.324-1.47-.793-1.903-1.486-.432-.7-.532-1.55-.532-2.374-.003-1.45.266-2.888.519-4.319.21-1.19.41-2.38.54-3.58.236-2.18.233-4.385.078-6.576-.028-.366-.058-.735-.003-1.098.056-.364.206-.727.483-.965.258-.222.602-.322.943-.339.338-.02.676.033 1.012.084.79.116 1.59.205 2.363.41.488.127.965.3 1.45.433.816.219 1.667.324 2.502.227.902-.105 1.778-.444 2.685-.422a3.9 3.9 0 0 1 1.095.192c.36.114.719.277.985.549.202.205.344.463.45.732.157.4.243.827.28 1.254.03.38.024.765.096 1.14.12.613.444 1.176.844 1.655.402.483.882.89 1.361 1.293.48.402.96.801 1.476 1.154.241.166.49.321.72.502.231.183.442.393.586.648a1.5 1.5 0 0 1 .128 1.168 3.4 3.4 0 0 1-.638 1.12"/></mask><g filter="url(#L)" mask="url(#M)"><path fill="#f5c021" d="M65.096 60.52c-.166.375-.38.722-.632 1.03-.588.715-1.384 1.206-2.219 1.522-1.378.522-2.881.591-4.232 1.185-.824.36-1.567.904-2.319 1.42-.604.413-1.226.815-1.891 1.103-.755.33-1.553.513-2.357.644-.51.08-1.03.141-1.545.114-.516-.028-1.032-.15-1.49-.414-.344-.2-.654-.485-.84-.86-.203-.413-.239-.898-.236-1.37.014-1.248.283-2.485.275-3.735-.008-1.09-.225-2.164-.286-3.25-.12-2.092.33-4.216-.066-6.266-.062-.33-.147-.657-.145-.993.003-.166.028-.335.086-.49a.96.96 0 0 1 .28-.395.9.9 0 0 1 .364-.155c.127-.022.26-.017.39.003.259.041.506.141.758.216.721.216 1.484.211 2.219.375.46.1.904.269 1.361.39.763.211 1.562.3 2.347.209.843-.1 1.667-.405 2.515-.383.35.008.694.072 1.03.172.335.1.67.241.926.5a2.2 2.2 0 0 1 .418.665c.158.358.267.746.264 1.14-.003.205-.033.407-.053.613-.017.205-.022.413.025.61.05.2.153.38.27.543.116.164.249.31.37.472.34.446.583.968.847 1.47.263.502.56.998.979 1.361.568.491 1.303.688 1.938 1.08a1.6 1.6 0 0 1 .494.43c.105.143.175.318.203.501.024.18.008.372-.048.544"/></g><mask id="O" width="21" height="22" x="45" y="50" maskUnits="userSpaceOnUse" style="mask-type:luminance"><path fill="#fff" d="M65.252 62.826c-.627.743-1.498 1.234-2.366 1.678-1.478.751-3.012 1.414-4.401 2.32a18 18 0 0 0-2.596 2.09c-.688.657-1.34 1.358-2.11 1.916-.78.563-1.679.97-2.63 1.112a5.4 5.4 0 0 1-.793.058c-.899 0-1.797-.216-2.624-.577-.749-.324-1.47-.793-1.903-1.486-.432-.7-.532-1.55-.532-2.374-.003-1.45.266-2.888.519-4.319.21-1.19.41-2.38.54-3.58.236-2.18.233-4.385.078-6.576-.028-.366-.058-.735-.003-1.098.056-.364.206-.727.483-.965.258-.222.602-.322.943-.339.338-.02.676.033 1.012.084.79.116 1.59.205 2.363.41.488.127.965.3 1.45.433.816.219 1.667.324 2.502.227.902-.105 1.778-.444 2.685-.422a3.9 3.9 0 0 1 1.095.192c.36.114.719.277.985.549.202.205.344.463.45.732.157.4.243.827.28 1.254.03.38.024.765.096 1.14.12.613.444 1.176.844 1.655.402.483.882.89 1.361 1.293.48.402.96.801 1.476 1.154.241.166.49.321.72.502.231.183.442.393.586.648a1.5 1.5 0 0 1 .128 1.168 3.4 3.4 0 0 1-.638 1.12"/></mask><g filter="url(#N)" mask="url(#O)"><path fill="url(#P)" d="M47.117 51.36c.782-.21 1.448.383 2.016.83.366.313.899.235 1.348.249.746-.025 1.487.125 2.233.033 1.47-.125 2.909-.485 4.385-.546.704-.045 1.497-.086 2.105.324.246.172.61.896.851.624-.1-.76-.663-1.495-1.417-1.697-.594-.094-1.193.07-1.792.017-1.772-.042-3.536-.372-5.314-.278-1.237.011-2.47-.047-3.708-.094-.485-.1-.657.33-.92.496.069.053.094.07.213.042"/></g><mask id="R" width="21" height="22" x="45" y="50" maskUnits="userSpaceOnUse" style="mask-type:luminance"><path fill="#fff" d="M65.252 62.826c-.627.743-1.498 1.234-2.366 1.678-1.478.751-3.012 1.414-4.401 2.32a18 18 0 0 0-2.596 2.09c-.688.657-1.34 1.358-2.11 1.916-.78.563-1.679.97-2.63 1.112a5.4 5.4 0 0 1-.793.058c-.899 0-1.797-.216-2.624-.577-.749-.324-1.47-.793-1.903-1.486-.432-.7-.532-1.55-.532-2.374-.003-1.45.266-2.888.519-4.319.21-1.19.41-2.38.54-3.58.236-2.18.233-4.385.078-6.576-.028-.366-.058-.735-.003-1.098.056-.364.206-.727.483-.965.258-.222.602-.322.943-.339.338-.02.676.033 1.012.084.79.116 1.59.205 2.363.41.488.127.965.3 1.45.433.816.219 1.667.324 2.502.227.902-.105 1.778-.444 2.685-.422a3.9 3.9 0 0 1 1.095.192c.36.114.719.277.985.549.202.205.344.463.45.732.157.4.243.827.28 1.254.03.38.024.765.096 1.14.12.613.444 1.176.844 1.655.402.483.882.89 1.361 1.293.48.402.96.801 1.476 1.154.241.166.49.321.72.502.231.183.442.393.586.648a1.5 1.5 0 0 1 .128 1.168 3.4 3.4 0 0 1-.638 1.12"/></mask><g filter="url(#Q)" mask="url(#R)" opacity=".35"><path fill="url(#S)" d="M57.492 53.033a1.26 1.26 0 0 0-.652-.575 2.2 2.2 0 0 0-.868-.15c-.59.006-1.179.159-1.77.109-.496-.045-.967-.23-1.453-.35-.502-.122-1.034-.169-1.53-.033a2.25 2.25 0 0 0-1.296.968c-.26.41-.383.896-.421 1.381-.04.485.002.97.052 1.456a7 7 0 0 0 .158 1.04c.086.341.217.674.422.96.297.41.738.704 1.212.879a3.37 3.37 0 0 0 2.421-.042 6.68 6.68 0 0 0 3.195-2.94c.252-.465.447-.962.571-1.472.05-.205.09-.413.09-.624a1.3 1.3 0 0 0-.131-.608"/></g><mask id="U" width="21" height="22" x="45" y="50" maskUnits="userSpaceOnUse" style="mask-type:luminance"><path fill="#fff" d="M65.252 62.826c-.627.743-1.498 1.234-2.366 1.678-1.478.751-3.012 1.414-4.401 2.32a18 18 0 0 0-2.596 2.09c-.688.657-1.34 1.358-2.11 1.916-.78.563-1.679.97-2.63 1.112a5.4 5.4 0 0 1-.793.058c-.899 0-1.797-.216-2.624-.577-.749-.324-1.47-.793-1.903-1.486-.432-.7-.532-1.55-.532-2.374-.003-1.45.266-2.888.519-4.319.21-1.19.41-2.38.54-3.58.236-2.18.233-4.385.078-6.576-.028-.366-.058-.735-.003-1.098.056-.364.206-.727.483-.965.258-.222.602-.322.943-.339.338-.02.676.033 1.012.084.79.116 1.59.205 2.363.41.488.127.965.3 1.45.433.816.219 1.667.324 2.502.227.902-.105 1.778-.444 2.685-.422a3.9 3.9 0 0 1 1.095.192c.36.114.719.277.985.549.202.205.344.463.45.732.157.4.243.827.28 1.254.03.38.024.765.096 1.14.12.613.444 1.176.844 1.655.402.483.882.89 1.361 1.293.48.402.96.801 1.476 1.154.241.166.49.321.72.502.231.183.442.393.586.648a1.5 1.5 0 0 1 .128 1.168 3.4 3.4 0 0 1-.638 1.12"/></mask><g filter="url(#T)" mask="url(#U)" opacity=".35"><path fill="url(#V)" d="M57.492 52.278c-.133-.192-.377-.333-.652-.416a3 3 0 0 0-.868-.108c-.59.005-1.179.116-1.77.077-.496-.03-.967-.166-1.453-.25-.502-.088-1.034-.124-1.53-.024-.533.102-1.002.36-1.296.698-.26.297-.383.65-.421.999-.04.35.002.702.052 1.051.034.252.075.508.158.755.086.246.217.488.422.693.297.297.738.507 1.212.635a4.57 4.57 0 0 0 2.421-.03c1.354-.425 2.499-1.188 3.195-2.125.252-.338.447-.696.571-1.065.05-.15.09-.3.09-.45a.7.7 0 0 0-.131-.44"/></g><path fill="#020204" d="M58.618 50.567a1.76 1.76 0 0 0-.477-.685 2.6 2.6 0 0 0-.713-.444c-.516-.219-1.079-.302-1.633-.405-.52-.097-1.038-.216-1.56-.305-.543-.091-1.103-.152-1.641-.03-.469.105-.904.35-1.26.674-.354.324-.632.73-.831 1.167-.352.774-.463 1.642-.397 2.488.05.63.211 1.279.624 1.753.336.385.81.627 1.298.77.843.25 1.761.237 2.596-.035a6.85 6.85 0 0 0 3.425-2.577c.272-.396.505-.826.61-1.292.08-.355.084-.738-.041-1.079"/><mask id="X" width="9" height="8" x="50" y="48" maskUnits="userSpaceOnUse" style="mask-type:luminance"><path fill="#fff" d="M58.618 50.567a1.76 1.76 0 0 0-.477-.685 2.6 2.6 0 0 0-.713-.444c-.516-.219-1.079-.302-1.633-.405-.52-.097-1.038-.216-1.56-.305-.543-.091-1.103-.152-1.641-.03-.469.105-.904.35-1.26.674-.354.324-.632.73-.831 1.167-.352.774-.463 1.642-.397 2.488.05.63.211 1.279.624 1.753.336.385.81.627 1.298.77.843.25 1.761.237 2.596-.035a6.85 6.85 0 0 0 3.425-2.577c.272-.396.505-.826.61-1.292.08-.355.084-.738-.041-1.079"/></mask><g filter="url(#W)" mask="url(#X)"><path fill="url(#Y)" d="M52.888 48.446a2.98 2.98 0 0 0-2.405 1.442 3 3 0 0 0-.397 1.711c.02-.416.128-.824.33-1.187a2.44 2.44 0 0 1 1.659-1.212c.427-.078.868-.03 1.298.022.416.053.832.108 1.24.194.632.139 1.256.35 1.786.719.122.086.238.183.335.3a.9.9 0 0 1 .203.393.95.95 0 0 1-.128.635c-.108.194-.255.36-.41.516a8 8 0 0 1-.397.366c.613-.12 1.232-.286 1.742-.64.213-.153.41-.334.538-.56.128-.231.18-.508.12-.764a1.15 1.15 0 0 0-.256-.463 2.3 2.3 0 0 0-.402-.344 4.8 4.8 0 0 0-2.166-.829 25 25 0 0 0-1.503-.23c-.391-.05-.794-.092-1.187-.07"/></g><mask id="aa" width="9" height="8" x="50" y="48" maskUnits="userSpaceOnUse" style="mask-type:luminance"><path fill="#fff" d="M58.618 50.567a1.76 1.76 0 0 0-.477-.685 2.6 2.6 0 0 0-.713-.444c-.516-.219-1.079-.302-1.633-.405-.52-.097-1.038-.216-1.56-.305-.543-.091-1.103-.152-1.641-.03-.469.105-.904.35-1.26.674-.354.324-.632.73-.831 1.167-.352.774-.463 1.642-.397 2.488.05.63.211 1.279.624 1.753.336.385.81.627 1.298.77.843.25 1.761.237 2.596-.035a6.85 6.85 0 0 0 3.425-2.577c.272-.396.505-.826.61-1.292.08-.355.084-.738-.041-1.079"/></mask><g filter="url(#Z)" mask="url(#aa)"><path fill="url(#ab)" d="M52.888 48.446a2.98 2.98 0 0 0-2.405 1.442 3 3 0 0 0-.397 1.711c.02-.416.128-.824.33-1.187a2.44 2.44 0 0 1 1.659-1.212c.427-.078.868-.03 1.298.022.416.053.832.108 1.24.194.632.139 1.256.35 1.786.719.122.086.238.183.335.3a.9.9 0 0 1 .203.393.95.95 0 0 1-.128.635c-.108.194-.255.36-.41.516a8 8 0 0 1-.397.366c.613-.12 1.232-.286 1.742-.64.213-.153.41-.334.538-.56.128-.231.18-.508.12-.764a1.15 1.15 0 0 0-.256-.463 2.3 2.3 0 0 0-.402-.344 4.8 4.8 0 0 0-2.166-.829 25 25 0 0 0-1.503-.23c-.391-.05-.794-.092-1.187-.07"/></g><path fill="url(#ac)" d="M29.469 11.617a1.84 1.84 0 0 0-1.143.51 2.6 2.6 0 0 0-.669 1.076c-.269.81-.207 1.687-.146 2.538.055.768.113 1.553.402 2.269.144.36.346.696.615.973.27.275.61.488.985.58.35.089.726.072 1.07-.036.347-.111.66-.308.921-.56.377-.37.63-.852.777-1.36.147-.507.188-1.04.18-1.57a6.6 6.6 0 0 0-.302-1.949c-.208-.627-.538-1.22-.999-1.694a2.8 2.8 0 0 0-.762-.572 1.9 1.9 0 0 0-.93-.205"/><path fill="#020204" d="M28.443 15.142c-.089.538-.092 1.1.091 1.611.122.339.325.646.569.91.158.172.34.327.552.43s.457.144.688.088a1 1 0 0 0 .53-.357 1.7 1.7 0 0 0 .29-.58c.192-.613.161-1.281-.03-1.894-.136-.447-.366-.876-.721-1.176a1.4 1.4 0 0 0-.588-.308 1.02 1.02 0 0 0-.655.053 1.13 1.13 0 0 0-.513.516 2.4 2.4 0 0 0-.213.707"/><mask id="ae" width="4" height="6" x="28" y="13" maskUnits="userSpaceOnUse" style="mask-type:luminance"><path fill="#fff" d="M28.443 15.142c-.089.538-.092 1.1.091 1.611.122.339.325.646.569.91.158.172.34.327.552.43s.457.144.688.088a1 1 0 0 0 .53-.357 1.7 1.7 0 0 0 .29-.58c.192-.613.161-1.281-.03-1.894-.136-.447-.366-.876-.721-1.176a1.4 1.4 0 0 0-.588-.308 1.02 1.02 0 0 0-.655.053 1.13 1.13 0 0 0-.513.516 2.4 2.4 0 0 0-.213.707"/></mask><g filter="url(#ad)" mask="url(#ae)"><path fill="url(#af)" d="M29.577 14.753c.058.153.252.208.36.33.103.117.21.242.27.389.107.28-.109.696.118.895.07.061.214.064.283 0 .275-.25.214-.751.106-1.106a1.35 1.35 0 0 0-.641-.777c-.139-.072-.347-.13-.466-.03-.075.066-.066.205-.03.3"/></g><mask id="ag" width="6" height="9" x="27" y="11" maskUnits="userSpaceOnUse" style="mask-type:luminance"><path fill="#fff" d="M29.469 11.617a1.84 1.84 0 0 0-1.143.51 2.6 2.6 0 0 0-.669 1.076c-.269.81-.207 1.687-.146 2.538.055.768.113 1.553.402 2.269.144.36.346.696.615.973.27.275.61.488.985.58.35.089.726.072 1.07-.036.347-.111.66-.308.921-.56.377-.37.63-.852.777-1.36.147-.507.188-1.04.18-1.57a6.6 6.6 0 0 0-.302-1.949c-.208-.627-.538-1.22-.999-1.694a2.8 2.8 0 0 0-.762-.572 1.9 1.9 0 0 0-.93-.205"/></mask><g mask="url(#ag)"><path fill="url(#ah)" d="M28.55 13.33c.643-.382 1.423-.47 2.169-.401.743.072 1.461.288 2.182.485.53.144 1.065.277 1.562.51.493.233.954.577 1.228 1.054.045.075.08.156.128.23a.7.7 0 0 0 .172.197c.07.053.158.09.244.084a.3.3 0 0 0 .125-.036.23.23 0 0 0 .091-.095.3.3 0 0 0 .028-.147.7.7 0 0 0-.028-.15c-.18-.657-.607-1.214-.929-1.816-.194-.36-.355-.738-.549-1.098-.674-1.235-1.78-2.202-3.037-2.832s-2.66-.932-4.063-1.012c-1.625-.097-3.253.097-4.856.38-.696.122-1.404.266-2.017.613-.307.171-.59.393-.81.67a2 2 0 0 0-.43.955c-.046.338.003.685.123 1.004.116.319.3.61.516.873.427.53.979.94 1.486 1.395.508.453.976.955 1.545 1.329.283.188.59.344.918.435.327.092.677.117 1.01.047.343-.069.665-.238.945-.454.28-.214.522-.472.752-.738.46-.535.89-1.12 1.495-1.481"/></g><g filter="url(#ai)"><path fill="url(#aj)" d="M31.222 11.143a5.7 5.7 0 0 1 1.345 1.985c-.133-.807-.341-1.459-.868-1.985a4 4 0 0 0-1.104-.755c-.366-.163-.768-.266-1.001-.269-.23-.005-.286 0-.333.003-.05.003-.086.003.064.022.15.017.485.108.846.27.36.16.727.426 1.051.729"/></g><path fill="url(#ak)" d="M37.001 11.617c-.662.458-1.22 1.093-1.492 1.853-.344.957-.213 2.027.12 2.987.338.984.906 1.922 1.763 2.512.427.297.924.5 1.44.56a2.65 2.65 0 0 0 1.517-.263c.56-.294.99-.807 1.256-1.38.267-.578.38-1.213.416-1.848.045-.804-.033-1.625-.3-2.388-.288-.83-.81-1.595-1.547-2.072a3 3 0 0 0-1.22-.463 2.6 2.6 0 0 0-1.295.144c-.233.092-.45.217-.658.358"/><path fill="#020204" d="M38.535 13.625c-.25.016-.494.102-.708.236-.21.133-.39.313-.532.52-.286.414-.41.919-.43 1.42a3 3 0 0 0 .152 1.11c.125.355.333.685.624.924.297.247.672.394 1.057.413a1.8 1.8 0 0 0 1.09-.313 1.95 1.95 0 0 0 .6-.688c.143-.27.232-.569.27-.874a2.7 2.7 0 0 0-.257-1.578 2.2 2.2 0 0 0-1.176-1.065 1.7 1.7 0 0 0-.69-.105"/><mask id="am" width="5" height="6" x="36" y="13" maskUnits="userSpaceOnUse" style="mask-type:luminance"><path fill="#fff" d="M38.534 13.625c-.25.016-.494.102-.708.236-.21.133-.39.313-.532.52-.286.414-.41.919-.43 1.42a3 3 0 0 0 .152 1.11c.125.355.333.685.624.924.297.247.672.394 1.057.413a1.8 1.8 0 0 0 1.09-.313 1.95 1.95 0 0 0 .6-.688c.143-.27.232-.569.27-.874a2.7 2.7 0 0 0-.257-1.578 2.2 2.2 0 0 0-1.176-1.065 1.7 1.7 0 0 0-.69-.105"/></mask><g filter="url(#al)" mask="url(#am)"><path fill="url(#an)" d="M40.079 15.8c.277-.278-.197-1.013-.569-1.316-.269-.216-1.048-.446-1.015-.208.034.236.386.541.619.774.29.286.832.882.965.75"/></g><mask id="ao" width="8" height="9" x="35" y="11" maskUnits="userSpaceOnUse" style="mask-type:luminance"><path fill="#fff" d="M37.001 11.617c-.662.458-1.22 1.093-1.492 1.853-.344.957-.213 2.027.12 2.987.338.984.906 1.922 1.763 2.512.427.297.924.5 1.44.56a2.65 2.65 0 0 0 1.517-.263c.56-.294.99-.807 1.256-1.38.267-.578.38-1.213.416-1.848.045-.804-.033-1.625-.3-2.388-.288-.83-.81-1.595-1.547-2.072a3 3 0 0 0-1.22-.463 2.6 2.6 0 0 0-1.295.144c-.233.092-.45.217-.658.358"/></mask><g mask="url(#ao)"><path fill="url(#ap)" d="M34.491 14.038a5.7 5.7 0 0 1 1.942-1.054c1.456-.449 3.106-.271 4.393.547.444.28.84.63 1.254.957.41.324.848.63 1.345.804.269.094.554.15.837.12a1.54 1.54 0 0 0 .713-.267 1.9 1.9 0 0 0 .521-.56c.267-.439.353-.971.305-1.481-.091-1.024-.668-1.925-1.15-2.832-.153-.283-.297-.571-.48-.835-.558-.812-1.45-1.348-2.385-1.661-.935-.314-1.922-.427-2.901-.55-.439-.055-.88-.113-1.315-.06-.502.06-.974.263-1.464.388-.233.061-.47.103-.7.17-.23.066-.457.157-.646.307-.271.22-.443.55-.518.89-.075.344-.058.7-.003 1.046.108.693.369 1.367.344 2.069-.017.48-.17.954-.15 1.434.006.141.034.43.058.568"/></g><g filter="url(#aq)"><path fill="url(#ar)" d="M39.31 9.648c-.114.144-.217.3-.297.471a4.2 4.2 0 0 1 1.44.613c.848.563 1.491 1.384 1.943 2.3q.159-.174.283-.38c-.455-.954-1.11-1.817-1.986-2.4a4.3 4.3 0 0 0-1.383-.604"/></g><mask id="at" width="40" height="70" x="16" y="1" maskUnits="userSpaceOnUse" style="mask-type:luminance"><path fill="#fff" d="M35.71 1c-1.665 0-3.334.327-4.843 1.143a8.9 8.9 0 0 0-3.725 3.874c-.81 1.63-1.126 3.373-1.176 5.292-.091 3.644.083 7.466.358 10.93.072 1.054.205 1.67.07 2.754-.45 2.302-2.463 3.85-3.54 5.871-1.184 2.23-1.683 4.751-2.576 7.114-.818 2.16-1.966 4.188-2.74 6.365-1.085 3.043-1.41 6.387-.694 9.538.547 2.402 1.687 4.654 3.223 6.581-.222.4-.438.808-.666 1.204-.712 1.229-1.583 2.396-1.988 3.758-.203.68-.283 1.406-.153 2.105s.486 1.368 1.04 1.811a3.2 3.2 0 0 0 1.257.583c.452.102.92.127 1.387.119 1.766-.039 3.48-.574 5.189-1.023a62 62 0 0 1 3.059-.716c3.644-.746 7.71-.447 11.09.042q1.72.261 3.41.674c1.763.427 3.519.97 5.333 1.023a6 6 0 0 0 1.425-.111c.466-.105.918-.294 1.29-.59.557-.444.912-1.116 1.043-1.815s.05-1.428-.156-2.11c-.41-1.365-1.29-2.527-2.016-3.75-.288-.485-.555-.979-.84-1.464 2.19-2.46 3.955-5.306 4.975-8.431 1.112-3.412 1.318-7.087.849-10.645s-1.598-7.008-3.081-10.275c-1.864-4.094-3.431-5.575-4.568-9.172-1.226-3.889-.214-8.49-1.126-12.015a12.3 12.3 0 0 0-1.512-3.392c-.782-1.228-1.775-2.327-2.953-3.18C40.475 1.726 38.11 1 35.709 1"/></mask><g filter="url(#as)" mask="url(#at)"><path fill="#000" fill-opacity=".259" d="M28.545 25.775c.407 1.181 1.226 2.188 2.196 2.973a4.7 4.7 0 0 0 1.043.674c.377.172.796.269 1.21.233.404-.033.79-.194 1.145-.394s.682-.44 1.026-.657c.588-.375 1.218-.677 1.83-1.01.735-.402 1.45-.86 2.07-1.425.285-.258.549-.541.862-.763.313-.225.69-.386 1.073-.358.289.02.558.142.84.203.142.03.286.044.43.022a.66.66 0 0 0 .38-.186.66.66 0 0 0 .17-.488 1.16 1.16 0 0 0-.15-.502c-.164-.313-.413-.582-.524-.918-.1-.3-.08-.621-.072-.935.008-.316.002-.643-.142-.923a1.2 1.2 0 0 0-.507-.491 1.8 1.8 0 0 0-.688-.194c-.477-.045-.954.05-1.434.075-.632.036-1.27-.042-1.905-.006-.79.05-1.567.277-2.36.28-.905.003-1.809-.294-2.702-.152-.385.06-.751.2-1.118.321-.369.125-.748.233-1.137.228-.44-.009-.868-.161-1.309-.192a1.5 1.5 0 0 0-.652.078.9.9 0 0 0-.493.416.9.9 0 0 0-.092.363q-.006.191.042.378c.06.244.175.474.266.707.333.851.405 1.78.702 2.643"/></g><mask id="av" width="40" height="70" x="16" y="1" maskUnits="userSpaceOnUse" style="mask-type:luminance"><path fill="#fff" d="M35.71 1c-1.665 0-3.334.327-4.843 1.143a8.9 8.9 0 0 0-3.725 3.874c-.81 1.63-1.126 3.373-1.176 5.292-.091 3.644.083 7.466.358 10.93.072 1.054.205 1.67.07 2.754-.45 2.302-2.463 3.85-3.54 5.871-1.184 2.23-1.683 4.751-2.576 7.114-.818 2.16-1.966 4.188-2.74 6.365-1.085 3.043-1.41 6.387-.694 9.538.547 2.402 1.687 4.654 3.223 6.581-.222.4-.438.808-.666 1.204-.712 1.229-1.583 2.396-1.988 3.758-.203.68-.283 1.406-.153 2.105s.486 1.368 1.04 1.811a3.2 3.2 0 0 0 1.257.583c.452.102.92.127 1.387.119 1.766-.039 3.48-.574 5.189-1.023a62 62 0 0 1 3.059-.716c3.644-.746 7.71-.447 11.09.042q1.72.261 3.41.674c1.763.427 3.519.97 5.333 1.023a6 6 0 0 0 1.425-.111c.466-.105.918-.294 1.29-.59.557-.444.912-1.116 1.043-1.815s.05-1.428-.156-2.11c-.41-1.365-1.29-2.527-2.016-3.75-.288-.485-.555-.979-.84-1.464 2.19-2.46 3.955-5.306 4.975-8.431 1.112-3.412 1.318-7.087.849-10.645s-1.598-7.008-3.081-10.275c-1.864-4.094-3.431-5.575-4.568-9.172-1.226-3.889-.214-8.49-1.126-12.015a12.3 12.3 0 0 0-1.512-3.392c-.782-1.228-1.775-2.327-2.953-3.18C40.475 1.726 38.11 1 35.709 1"/></mask><g filter="url(#au)" mask="url(#av)" opacity=".3"><path fill="#000" d="M27.411 22.41c.79.489 1.5 1.09 2.097 1.773.552.635 1.02 1.356 1.744 1.825.508.333 1.12.518 1.742.577.73.066 1.467-.042 2.172-.233a8 8 0 0 0 1.858-.752c1.1-.624 2.019-1.54 3.23-1.95.264-.091.539-.155.794-.266.255-.108.496-.274.618-.507.117-.228.111-.486.15-.733.042-.266.133-.521.183-.784.05-.264.056-.544-.066-.785a1.1 1.1 0 0 0-.502-.46 1.9 1.9 0 0 0-.696-.156c-.477-.022-.952.091-1.431.13-.633.053-1.27-.022-1.906-.002-.79.022-1.57.185-2.36.221-.901.04-1.8-.094-2.701-.122a6 6 0 0 0-1.168.056c-.386.06-.763.18-1.087.38-.316.191-.574.455-.863.68a2.6 2.6 0 0 1-.466.296 1.5 1.5 0 0 1-.543.141c-.097.003-.197-.002-.291.011a.63.63 0 0 0-.408.23.54.54 0 0 0-.1.43"/></g><path fill="url(#aw)" d="M31.469 17.233c.424-.474.712-1.054 1.117-1.542.203-.244.438-.469.713-.627s.596-.247.912-.22c.353.031.683.206.94.447.258.242.45.547.602.866.147.308.264.632.475.898.224.283.538.475.823.7.142.11.28.23.391.37.114.142.2.306.239.483.036.18.017.37-.044.541-.064.172-.17.328-.303.455-.263.255-.624.394-.987.444-.727.103-1.462-.114-2.197-.095-.74.023-1.467.283-2.21.259-.369-.014-.746-.106-1.051-.317a1.4 1.4 0 0 1-.383-.402 1.14 1.14 0 0 1-.16-.527 1.2 1.2 0 0 1 .107-.516c.07-.163.17-.31.28-.449.225-.274.5-.502.735-.768"/><path fill="url(#ax)" d="M27.442 21.815a.8.8 0 0 0 .078.203.9.9 0 0 0 .258.263c.1.075.208.136.313.2.558.352 1.013.843 1.418 1.364.54.7 1.02 1.473 1.744 1.98.51.361 1.12.564 1.742.627.73.072 1.467-.044 2.171-.252a7.6 7.6 0 0 0 1.859-.818c1.1-.677 2.019-1.67 3.23-2.116.264-.097.539-.167.794-.286.255-.122.496-.3.618-.555.117-.244.111-.527.15-.796.042-.285.133-.563.183-.848s.056-.591-.066-.855a1.1 1.1 0 0 0-.502-.496 1.7 1.7 0 0 0-.697-.172c-.477-.022-.95.1-1.43.144-.633.058-1.27-.025-1.906-.005-.79.025-1.57.202-2.36.241-.901.042-1.8-.097-2.702-.133a5.5 5.5 0 0 0-1.17.055 2.7 2.7 0 0 0-1.084.42c-.314.215-.563.51-.852.76-.144.124-.3.238-.471.32-.17.084-.358.137-.55.131-.096-.003-.2-.017-.29.011a.4.4 0 0 0-.156.097 1 1 0 0 0-.114.145q-.12.174-.208.371"/><mask id="az" width="16" height="8" x="27" y="19" maskUnits="userSpaceOnUse" style="mask-type:luminance"><path fill="#fff" d="M27.443 21.816a.8.8 0 0 0 .078.202.9.9 0 0 0 .258.264c.1.075.208.136.313.2.558.352 1.013.842 1.418 1.364.54.699 1.02 1.473 1.744 1.98.51.36 1.12.563 1.742.627.73.072 1.467-.044 2.171-.253a7.6 7.6 0 0 0 1.859-.818c1.1-.676 2.019-1.67 3.23-2.116.264-.097.539-.166.794-.285.255-.123.496-.3.618-.555.117-.244.111-.527.15-.796.042-.286.133-.563.183-.849.05-.285.056-.59-.066-.854a1.1 1.1 0 0 0-.502-.497 1.7 1.7 0 0 0-.697-.171c-.477-.023-.95.1-1.43.144-.633.058-1.27-.025-1.906-.006-.79.025-1.57.203-2.36.242-.902.041-1.8-.098-2.701-.134a5.5 5.5 0 0 0-1.17.056 2.7 2.7 0 0 0-1.085.419c-.314.216-.563.51-.852.76a2.2 2.2 0 0 1-.471.321c-.17.084-.358.136-.55.13-.096-.002-.2-.016-.29.012a.4.4 0 0 0-.156.097 1 1 0 0 0-.114.144q-.12.175-.208.372"/></mask><g filter="url(#ay)" mask="url(#az)"><path fill="#d9b30d" d="M30.982 22.789a1.59 1.59 0 0 0 1.04 1.875c.471.157 1.004.08 1.445-.15a1.55 1.55 0 0 0 .637-.572c.075-.122.128-.26.147-.405a.9.9 0 0 0-.044-.427.96.96 0 0 0-.275-.38 1.2 1.2 0 0 0-.416-.227 4.3 4.3 0 0 0-1.084-.189c-.56-.01-1.359.095-1.45.474"/></g><mask id="aB" width="16" height="8" x="27" y="19" maskUnits="userSpaceOnUse" style="mask-type:luminance"><path fill="#fff" d="M27.441 21.815a.7.7 0 0 0 .078.203.9.9 0 0 0 .258.263c.1.075.208.136.313.2.558.352 1.013.843 1.418 1.364.54.7 1.02 1.473 1.744 1.98.51.361 1.12.564 1.742.627.73.072 1.467-.044 2.171-.252a7.6 7.6 0 0 0 1.859-.818c1.1-.677 2.019-1.67 3.23-2.116.264-.097.539-.167.794-.286.255-.122.496-.3.618-.555.117-.244.111-.527.15-.796.042-.285.133-.563.183-.848s.056-.591-.066-.855a1.1 1.1 0 0 0-.502-.496 1.7 1.7 0 0 0-.697-.172c-.477-.022-.95.1-1.43.144-.633.058-1.27-.025-1.906-.005-.79.025-1.57.202-2.36.241-.901.042-1.8-.097-2.701-.133a5.5 5.5 0 0 0-1.17.055 2.7 2.7 0 0 0-1.085.42c-.314.215-.563.51-.852.76-.144.124-.3.238-.471.32-.17.084-.358.137-.55.131-.096-.003-.199-.017-.29.011a.4.4 0 0 0-.156.097 1 1 0 0 0-.114.145q-.12.174-.208.371"/></mask><g filter="url(#aA)" mask="url(#aB)"><path fill="#604405" d="M29.43 19.82c-.322.19-.63.397-.932.61-.158.114-.32.234-.402.408a1 1 0 0 0-.075.397c0 .139.008.275-.011.41-.012.092-.037.183-.04.275a.5.5 0 0 0 .012.139.3.3 0 0 0 .066.122.34.34 0 0 0 .156.088c.058.017.116.026.177.04.28.066.524.238.738.432.213.191.408.41.632.59.605.494 1.406.7 2.188.71.783.015 1.556-.149 2.32-.321.598-.136 1.197-.274 1.771-.488a7.8 7.8 0 0 0 2.419-1.44c.324-.28.627-.588.99-.815.319-.202.677-.335 1.004-.527a1 1 0 0 0 .083-.055.3.3 0 0 0 .067-.078.25.25 0 0 0 .008-.172.5.5 0 0 0-.086-.152 1.3 1.3 0 0 0-.136-.14c-.341-.29-.801-.396-1.25-.432-.447-.033-.9-.008-1.34-.083-.416-.07-.81-.225-1.212-.352a9 9 0 0 0-1.287-.314 8.5 8.5 0 0 0-3.104.075 9 9 0 0 0-2.756 1.074"/></g><path fill="url(#aC)" d="M29.327 18.736c-.46.31-.876.69-1.228 1.12-.2.247-.383.516-.483.816-.08.239-.108.488-.158.735-.02.091-.042.183-.039.277a.5.5 0 0 0 .02.139.3.3 0 0 0 .069.12c.055.055.13.085.205.102.078.014.155.016.233.025.347.041.666.208.954.407.289.197.555.43.852.616.651.413 1.43.596 2.204.627.771.03 1.543-.086 2.302-.238.602-.12 1.201-.264 1.773-.489.876-.346 1.666-.876 2.418-1.439.344-.255.682-.519.99-.815a6 6 0 0 1 .316-.3 1.2 1.2 0 0 1 .375-.216c.21-.067.438-.047.657-.011.164.027.327.063.494.058a.8.8 0 0 0 .244-.05.5.5 0 0 0 .202-.144.48.48 0 0 0 .106-.303.6.6 0 0 0-.089-.313c-.11-.189-.302-.316-.502-.405-.275-.122-.571-.18-.862-.252a12.3 12.3 0 0 1-2.59-.946c-.411-.203-.81-.427-1.213-.643-.416-.222-.837-.436-1.287-.574-1.01-.306-2.108-.206-3.103.14a6.6 6.6 0 0 0-2.86 1.956"/><mask id="aE" width="15" height="8" x="27" y="16" maskUnits="userSpaceOnUse" style="mask-type:luminance"><path fill="#fff" d="M29.327 18.736c-.46.31-.876.69-1.228 1.12-.2.247-.383.516-.483.816-.08.239-.108.488-.158.735-.02.091-.042.183-.039.277a.5.5 0 0 0 .02.139.3.3 0 0 0 .069.12c.055.055.13.085.205.102.078.014.155.016.233.025.347.041.666.208.954.407.289.197.555.43.852.616.651.413 1.43.596 2.204.627.771.03 1.543-.086 2.302-.238.602-.12 1.201-.264 1.773-.489.876-.346 1.666-.876 2.418-1.439.344-.255.682-.519.99-.815a6 6 0 0 1 .316-.3 1.2 1.2 0 0 1 .375-.216c.21-.067.438-.047.657-.011.164.027.327.063.494.058a.8.8 0 0 0 .244-.05.5.5 0 0 0 .202-.144.48.48 0 0 0 .106-.303.6.6 0 0 0-.089-.313c-.11-.189-.302-.316-.502-.405-.275-.122-.571-.18-.862-.252a12.3 12.3 0 0 1-2.59-.946c-.411-.203-.81-.427-1.213-.643-.416-.222-.837-.436-1.287-.574-1.01-.306-2.108-.206-3.103.14a6.6 6.6 0 0 0-2.86 1.956"/></mask><g filter="url(#aD)" mask="url(#aE)"><path fill="#f6da4a" d="M36.402 18.958a.46.46 0 0 0-.216-.141.6.6 0 0 0-.258-.011c-.172.03-.328.122-.472.222a5.4 5.4 0 0 0-1.084 1.01c-.416.507-.76 1.092-.876 1.738-.02.108-.031.222-.02.33.014.111.056.22.136.297.066.07.16.11.255.125.097.014.197 0 .289-.03.183-.062.335-.192.482-.32.796-.715 1.517-1.57 1.806-2.601a1.3 1.3 0 0 0 .052-.317.5.5 0 0 0-.094-.302"/></g><g filter="url(#aF)" opacity=".8"><path fill="url(#aG)" d="M31.763 17.38c-.214-.07-.564.305-.45.497.03.052.128.119.194.083.097-.053.178-.247.283-.322.07-.05.056-.233-.027-.258"/></g><g filter="url(#aH)" opacity=".8"><path fill="url(#aI)" d="M34.491 17.48c.056.177.341.147.508.233.144.075.26.238.424.244.155.003.4-.056.419-.21.025-.203-.272-.334-.463-.409-.247-.094-.563-.144-.793-.016-.053.03-.111.1-.095.158"/></g><mask id="aK" width="16" height="11" x="27" y="16" maskUnits="userSpaceOnUse" style="mask-type:luminance"><path fill="#fff" d="M27.44 21.815a.8.8 0 0 0 .078.202.9.9 0 0 0 .258.264c.1.075.208.136.313.2.558.351 1.013.842 1.418 1.364.54.699 1.02 1.473 1.744 1.98.51.36 1.12.563 1.742.627.73.072 1.467-.045 2.171-.253a7.6 7.6 0 0 0 1.859-.818c1.1-.676 2.019-1.67 3.23-2.116.264-.097.539-.166.794-.285.255-.122.496-.3.618-.555.117-.244.111-.527.15-.796.042-.286.133-.563.183-.849s.056-.59-.066-.854a1.1 1.1 0 0 0-.502-.496 1.7 1.7 0 0 0-.697-.172c-.476-.023-.95.1-1.43.144-.633.058-1.27-.025-1.906-.006-.79.025-1.57.203-2.36.241-.901.042-1.8-.097-2.701-.133a5.5 5.5 0 0 0-1.17.056 2.7 2.7 0 0 0-1.085.419c-.314.216-.563.51-.852.76a2.2 2.2 0 0 1-.471.321c-.17.084-.358.136-.55.13-.096-.002-.199-.016-.29.012a.4.4 0 0 0-.156.097 1 1 0 0 0-.114.144q-.12.175-.208.372"/><path fill="#fff" d="M29.327 18.736c-.46.31-.876.69-1.228 1.12-.2.247-.383.516-.483.816-.08.239-.108.488-.158.735-.02.091-.042.183-.039.277a.5.5 0 0 0 .02.139.3.3 0 0 0 .069.12c.055.055.13.085.205.102.078.014.155.016.233.025.347.041.666.208.954.407.289.197.555.43.852.616.651.413 1.43.596 2.204.627.771.03 1.543-.086 2.302-.238.602-.12 1.201-.264 1.773-.489.876-.346 1.666-.876 2.418-1.439.344-.255.682-.519.99-.815a6 6 0 0 1 .316-.3 1.2 1.2 0 0 1 .375-.216c.21-.067.438-.047.657-.011.164.027.327.063.494.058a.8.8 0 0 0 .244-.05.5.5 0 0 0 .202-.144.48.48 0 0 0 .106-.303.6.6 0 0 0-.089-.313c-.11-.189-.302-.316-.502-.405-.275-.122-.571-.18-.862-.252a12.3 12.3 0 0 1-2.59-.946c-.411-.203-.81-.427-1.213-.643-.416-.222-.837-.436-1.287-.574-1.01-.306-2.108-.206-3.103.14a6.6 6.6 0 0 0-2.86 1.956"/></mask><g filter="url(#aJ)" mask="url(#aK)"><path fill="url(#aL)" d="M41.9 20.178a1.07 1.07 0 0 1-.27.598.7.7 0 0 1-.51.245.55.55 0 0 1-.455-.246.88.88 0 0 1-.133-.597 1.1 1.1 0 0 1 .088-.324q.07-.155.18-.274a.8.8 0 0 1 .242-.184.6.6 0 0 1 .27-.064q.135 0 .253.065a.6.6 0 0 1 .201.183.8.8 0 0 1 .118.275 1 1 0 0 1 .015.323"/></g></g><defs><filter id="b" width="11.094" height="10.545" x="20.786" y="29.221" color-interpolation-filters="sRGB" filterUnits="userSpaceOnUse"><feFlood flood-opacity="0" result="BackgroundImageFix"/><feBlend in="SourceGraphic" in2="BackgroundImageFix" result="shape"/><feGaussianBlur result="effect1_foregroundBlur_6709_29667" stdDeviation=".64"/></filter><filter id="f" width="16.774" height="12.831" x="32.914" y="27.914" color-interpolation-filters="sRGB" filterUnits="userSpaceOnUse"><feFlood flood-opacity="0" result="BackgroundImageFix"/><feBlend in="SourceGraphic" in2="BackgroundImageFix" result="shape"/><feGaussianBlur result="effect1_foregroundBlur_6709_29667" stdDeviation=".98"/></filter><filter id="i" width="7.904" height="8.261" x="28.414" y="29.541" color-interpolation-filters="sRGB" filterUnits="userSpaceOnUse"><feFlood flood-opacity="0" result="BackgroundImageFix"/><feBlend in="SourceGraphic" in2="BackgroundImageFix" result="shape"/><feGaussianBlur result="effect1_foregroundBlur_6709_29667" stdDeviation=".68"/></filter><filter id="l" width="6.016" height="19.347" x="27.538" y="36.535" color-interpolation-filters="sRGB" filterUnits="userSpaceOnUse"><feFlood flood-opacity="0" result="BackgroundImageFix"/><feBlend in="SourceGraphic" in2="BackgroundImageFix" result="shape"/><feGaussianBlur result="effect1_foregroundBlur_6709_29667" stdDeviation="1.25"/></filter><filter id="n" width="9.528" height="9.579" x="46.295" y="33.834" color-interpolation-filters="sRGB" filterUnits="userSpaceOnUse"><feFlood flood-opacity="0" result="BackgroundImageFix"/><feBlend in="SourceGraphic" in2="BackgroundImageFix" result="shape"/><feGaussianBlur result="effect1_foregroundBlur_6709_29667" stdDeviation="1.78"/></filter><filter id="p" width="10.855" height="10.651" x="35.619" y=".582" color-interpolation-filters="sRGB" filterUnits="userSpaceOnUse"><feFlood flood-opacity="0" result="BackgroundImageFix"/><feBlend in="SourceGraphic" in2="BackgroundImageFix" result="shape"/><feGaussianBlur result="effect1_foregroundBlur_6709_29667" stdDeviation="1.73"/></filter><filter id="r" width="6.03" height="6.361" x="42.661" y="20.601" color-interpolation-filters="sRGB" filterUnits="userSpaceOnUse"><feFlood flood-opacity="0" result="BackgroundImageFix"/><feBlend in="SourceGraphic" in2="BackgroundImageFix" result="shape"/><feGaussianBlur result="effect1_foregroundBlur_6709_29667" stdDeviation=".78"/></filter><filter id="t" width="10.35" height="19.139" x="15.097" y="33.51" color-interpolation-filters="sRGB" filterUnits="userSpaceOnUse"><feFlood flood-opacity="0" result="BackgroundImageFix"/><feBlend in="SourceGraphic" in2="BackgroundImageFix" result="shape"/><feGaussianBlur result="effect1_foregroundBlur_6709_29667" stdDeviation=".98"/></filter><filter id="v" width="11.479" height="24.127" x="45.385" y="31.622" color-interpolation-filters="sRGB" filterUnits="userSpaceOnUse"><feFlood flood-opacity="0" result="BackgroundImageFix"/><feBlend in="SourceGraphic" in2="BackgroundImageFix" result="shape"/><feGaussianBlur result="effect1_foregroundBlur_6709_29667" stdDeviation="1.19"/></filter><filter id="y" width="34.456" height="34.265" x=".196" y="43.402" color-interpolation-filters="sRGB" filterUnits="userSpaceOnUse"><feFlood flood-opacity="0" result="BackgroundImageFix"/><feBlend in="SourceGraphic" in2="BackgroundImageFix" result="shape"/><feGaussianBlur result="effect1_foregroundBlur_6709_29667" stdDeviation="3.38"/></filter><filter id="A" width="26.944" height="28.085" x="3.479" y="45.053" color-interpolation-filters="sRGB" filterUnits="userSpaceOnUse"><feFlood flood-opacity="0" result="BackgroundImageFix"/><feBlend in="SourceGraphic" in2="BackgroundImageFix" result="shape"/><feGaussianBlur result="effect1_foregroundBlur_6709_29667" stdDeviation="2.1"/></filter><filter id="C" width="7.57" height="12.69" x="19.607" y="52.559" color-interpolation-filters="sRGB" filterUnits="userSpaceOnUse"><feFlood flood-opacity="0" result="BackgroundImageFix"/><feBlend in="SourceGraphic" in2="BackgroundImageFix" result="shape"/><feGaussianBlur result="effect1_foregroundBlur_6709_29667" stdDeviation=".32"/></filter><filter id="F" width="24.868" height="26.378" x="40.205" y="49.366" color-interpolation-filters="sRGB" filterUnits="userSpaceOnUse"><feFlood flood-opacity="0" result="BackgroundImageFix"/><feBlend in="SourceGraphic" in2="BackgroundImageFix" result="shape"/><feGaussianBlur result="effect1_foregroundBlur_6709_29667" stdDeviation="1.95"/></filter><filter id="J" width="35.381" height="35.648" x="38.103" y="42.798" color-interpolation-filters="sRGB" filterUnits="userSpaceOnUse"><feFlood flood-opacity="0" result="BackgroundImageFix"/><feBlend in="SourceGraphic" in2="BackgroundImageFix" result="shape"/><feGaussianBlur result="effect1_foregroundBlur_6709_29667" stdDeviation="4.12"/></filter><filter id="L" width="30.521" height="30.429" x="40.873" y="43.356" color-interpolation-filters="sRGB" filterUnits="userSpaceOnUse"><feFlood flood-opacity="0" result="BackgroundImageFix"/><feBlend in="SourceGraphic" in2="BackgroundImageFix" result="shape"/><feGaussianBlur result="effect1_foregroundBlur_6709_29667" stdDeviation="3.12"/></filter><filter id="N" width="14.791" height="3.767" x="46.083" y="49.987" color-interpolation-filters="sRGB" filterUnits="userSpaceOnUse"><feFlood flood-opacity="0" result="BackgroundImageFix"/><feBlend in="SourceGraphic" in2="BackgroundImageFix" result="shape"/><feGaussianBlur result="effect1_foregroundBlur_6709_29667" stdDeviation=".41"/></filter><filter id="Q" width="17.936" height="16.771" x="44.586" y="47.052" color-interpolation-filters="sRGB" filterUnits="userSpaceOnUse"><feFlood flood-opacity="0" result="BackgroundImageFix"/><feBlend in="SourceGraphic" in2="BackgroundImageFix" result="shape"/><feGaussianBlur result="effect1_foregroundBlur_6709_29667" stdDeviation="2.45"/></filter><filter id="T" width="12.616" height="9.52" x="47.246" y="49.257" color-interpolation-filters="sRGB" filterUnits="userSpaceOnUse"><feFlood flood-opacity="0" result="BackgroundImageFix"/><feBlend in="SourceGraphic" in2="BackgroundImageFix" result="shape"/><feGaussianBlur result="effect1_foregroundBlur_6709_29667" stdDeviation="1.12"/></filter><filter id="W" width="11.868" height="7.426" x="48.319" y="46.679" color-interpolation-filters="sRGB" filterUnits="userSpaceOnUse"><feFlood flood-opacity="0" result="BackgroundImageFix"/><feBlend in="SourceGraphic" in2="BackgroundImageFix" result="shape"/><feGaussianBlur result="effect1_foregroundBlur_6709_29667" stdDeviation=".88"/></filter><filter id="Z" width="11.868" height="7.426" x="48.319" y="46.679" color-interpolation-filters="sRGB" filterUnits="userSpaceOnUse"><feFlood flood-opacity="0" result="BackgroundImageFix"/><feBlend in="SourceGraphic" in2="BackgroundImageFix" result="shape"/><feGaussianBlur result="effect1_foregroundBlur_6709_29667" stdDeviation=".88"/></filter><filter id="ad" width="3.015" height="3.774" x="28.67" y="13.52" color-interpolation-filters="sRGB" filterUnits="userSpaceOnUse"><feFlood flood-opacity="0" result="BackgroundImageFix"/><feBlend in="SourceGraphic" in2="BackgroundImageFix" result="shape"/><feGaussianBlur result="effect1_foregroundBlur_6709_29667" stdDeviation=".44"/></filter><filter id="ai" width="3.83" height="3.492" x="28.978" y="9.877" color-interpolation-filters="sRGB" filterUnits="userSpaceOnUse"><feFlood flood-opacity="0" result="BackgroundImageFix"/><feBlend in="SourceGraphic" in2="BackgroundImageFix" result="shape"/><feGaussianBlur result="effect1_foregroundBlur_6709_29667" stdDeviation=".12"/></filter><filter id="al" width="3.468" height="3.443" x="37.594" y="13.275" color-interpolation-filters="sRGB" filterUnits="userSpaceOnUse"><feFlood flood-opacity="0" result="BackgroundImageFix"/><feBlend in="SourceGraphic" in2="BackgroundImageFix" result="shape"/><feGaussianBlur result="effect1_foregroundBlur_6709_29667" stdDeviation=".45"/></filter><filter id="aq" width="4.186" height="3.904" x="38.753" y="9.388" color-interpolation-filters="sRGB" filterUnits="userSpaceOnUse"><feFlood flood-opacity="0" result="BackgroundImageFix"/><feBlend in="SourceGraphic" in2="BackgroundImageFix" result="shape"/><feGaussianBlur result="effect1_foregroundBlur_6709_29667" stdDeviation=".13"/></filter><filter id="as" width="22.286" height="16.039" x="24.034" y="17.124" color-interpolation-filters="sRGB" filterUnits="userSpaceOnUse"><feFlood flood-opacity="0" result="BackgroundImageFix"/><feBlend in="SourceGraphic" in2="BackgroundImageFix" result="shape"/><feGaussianBlur result="effect1_foregroundBlur_6709_29667" stdDeviation="1.75"/></filter><filter id="au" width="17.832" height="9.848" x="25.8" y="18.356" color-interpolation-filters="sRGB" filterUnits="userSpaceOnUse"><feFlood flood-opacity="0" result="BackgroundImageFix"/><feBlend in="SourceGraphic" in2="BackgroundImageFix" result="shape"/><feGaussianBlur result="effect1_foregroundBlur_6709_29667" stdDeviation=".8"/></filter><filter id="ay" width="6.4" height="5.513" x="29.398" y="20.773" color-interpolation-filters="sRGB" filterUnits="userSpaceOnUse"><feFlood flood-opacity="0" result="BackgroundImageFix"/><feBlend in="SourceGraphic" in2="BackgroundImageFix" result="shape"/><feGaussianBlur result="effect1_foregroundBlur_6709_29667" stdDeviation=".77"/></filter><filter id="aA" width="15.243" height="8.078" x="26.67" y="17.265" color-interpolation-filters="sRGB" filterUnits="userSpaceOnUse"><feFlood flood-opacity="0" result="BackgroundImageFix"/><feBlend in="SourceGraphic" in2="BackgroundImageFix" result="shape"/><feGaussianBlur result="effect1_foregroundBlur_6709_29667" stdDeviation=".65"/></filter><filter id="aD" width="5.944" height="6.657" x="32.012" y="17.336" color-interpolation-filters="sRGB" filterUnits="userSpaceOnUse"><feFlood flood-opacity="0" result="BackgroundImageFix"/><feBlend in="SourceGraphic" in2="BackgroundImageFix" result="shape"/><feGaussianBlur result="effect1_foregroundBlur_6709_29667" stdDeviation=".73"/></filter><filter id="aF" width=".944" height=".998" x="31.091" y="17.172" color-interpolation-filters="sRGB" filterUnits="userSpaceOnUse"><feFlood flood-opacity="0" result="BackgroundImageFix"/><feBlend in="SourceGraphic" in2="BackgroundImageFix" result="shape"/><feGaussianBlur result="effect1_foregroundBlur_6709_29667" stdDeviation=".1"/></filter><filter id="aH" width="1.755" height="1.112" x="34.288" y="17.045" color-interpolation-filters="sRGB" filterUnits="userSpaceOnUse"><feFlood flood-opacity="0" result="BackgroundImageFix"/><feBlend in="SourceGraphic" in2="BackgroundImageFix" result="shape"/><feGaussianBlur result="effect1_foregroundBlur_6709_29667" stdDeviation=".1"/></filter><filter id="aJ" width="2.3" height="2.609" x="40.065" y="18.872" color-interpolation-filters="sRGB" filterUnits="userSpaceOnUse"><feFlood flood-opacity="0" result="BackgroundImageFix"/><feBlend in="SourceGraphic" in2="BackgroundImageFix" result="shape"/><feGaussianBlur result="effect1_foregroundBlur_6709_29667" stdDeviation=".23"/></filter><radialGradient id="d" cx="0" cy="0" r="1" gradientTransform="matrix(5.26953 0 0 4.99219 23.015 34.611)" gradientUnits="userSpaceOnUse"><stop/><stop offset="1" stop-opacity=".25"/></radialGradient><radialGradient id="h" cx="0" cy="0" r="1" gradientTransform="matrix(6.54531 0 0 4.99219 40.92 37.498)" gradientUnits="userSpaceOnUse"><stop/><stop offset="1" stop-opacity=".25"/></radialGradient><radialGradient id="k" cx="0" cy="0" r="1" gradientTransform="matrix(2.59316 0 0 2.77344 32.176 36.353)" gradientUnits="userSpaceOnUse"><stop/><stop offset="1" stop-opacity=".25"/></radialGradient><radialGradient id="S" cx="0" cy="0" r="1" gradientTransform="rotate(15 -182.142 229.202)scale(5.45258 5.72438)" gradientUnits="userSpaceOnUse"><stop stop-color="#110800"/><stop offset=".59" stop-color="#a65a00" stop-opacity=".8"/><stop offset="1" stop-color="#ff921e" stop-opacity="0"/></radialGradient><radialGradient id="V" cx="0" cy="0" r="1" gradientTransform="matrix(5.46989 -.23117 .17402 4.11765 53.115 53.664)" gradientUnits="userSpaceOnUse"><stop stop-color="#110800"/><stop offset=".59" stop-color="#a65a00" stop-opacity=".8"/><stop offset="1" stop-color="#ff921e" stop-opacity="0"/></radialGradient><radialGradient id="Y" cx="0" cy="0" r="1" gradientTransform="matrix(1.76767 .7686 -.355 .81643 57.258 49.985)" gradientUnits="userSpaceOnUse"><stop stop-color="#7c7c7c"/><stop offset="1" stop-color="#7c7c7c" stop-opacity=".33"/></radialGradient><radialGradient id="ac" cx="0" cy="0" r="1" gradientTransform="rotate(-.6 1472.074 -2860.409)scale(2.84 4.34875)" gradientUnits="userSpaceOnUse"><stop stop-color="#fefefc"/><stop offset=".75" stop-color="#fefefc"/><stop offset="1" stop-color="#d4d4d4"/></radialGradient><radialGradient id="ah" cx="0" cy="0" r="1" gradientTransform="matrix(1.71037 -.28162 .25999 1.579 29.59 13.13)" gradientUnits="userSpaceOnUse"><stop stop-color="#c8c8c8"/><stop offset="1" stop-color="#797978"/></radialGradient><radialGradient id="ak" cx="0" cy="0" r="1" gradientTransform="rotate(-1.8 505.051 -1227)scale(3.78297 4.34875)" gradientUnits="userSpaceOnUse"><stop stop-color="#fefefc"/><stop offset=".75" stop-color="#fefefc"/><stop offset="1" stop-color="#d4d4d4"/></radialGradient><radialGradient id="aw" cx="0" cy="0" r="1" gradientTransform="rotate(-36 43.76 -42.14)scale(3.17281 2.87883)" gradientUnits="userSpaceOnUse"><stop stop-color="#020204"/><stop offset=".73" stop-color="#020204"/><stop offset="1" stop-color="#5c5c5c"/></radialGradient><radialGradient id="ax" cx="0" cy="0" r="1" gradientTransform="rotate(-22.4 70.224 -81.857)scale(7.52988 5.28894)" gradientUnits="userSpaceOnUse"><stop stop-color="#d2940a"/><stop offset=".75" stop-color="#d89c08"/><stop offset=".87" stop-color="#b67e07"/><stop offset="1" stop-color="#946106"/></radialGradient><radialGradient id="aG" cx="0" cy="0" r="1" gradientTransform="matrix(.3661 0 0 .39383 31.593 17.608)" gradientUnits="userSpaceOnUse"><stop stop-color="#3a2903"/><stop offset=".55" stop-color="#735208"/><stop offset="1" stop-color="#ac8c04"/></radialGradient><radialGradient id="aI" cx="0" cy="0" r="1" gradientTransform="matrix(.77102 0 0 .4493 35.07 17.558)" gradientUnits="userSpaceOnUse"><stop stop-color="#3a2903"/><stop offset=".55" stop-color="#735208"/><stop offset="1" stop-color="#ac8c04"/></radialGradient><linearGradient id="x" x1="12.476" x2="23.883" y1="54.53" y2="73.67" gradientUnits="userSpaceOnUse"><stop stop-color="#b98309"/><stop offset="1" stop-color="#382605"/></linearGradient><linearGradient id="E" x1="23.927" x2="27.516" y1="59.472" y2="66.234" gradientUnits="userSpaceOnUse"><stop stop-color="#ebc40c"/><stop offset="1" stop-color="#ebc40c" stop-opacity="0"/></linearGradient><linearGradient id="H" x1="46.797" x2="47.704" y1="59.786" y2="66.378" gradientUnits="userSpaceOnUse"><stop/><stop offset="1" stop-opacity="0"/></linearGradient><linearGradient id="I" x1="48.065" x2="59.558" y1="71.174" y2="52.542" gradientUnits="userSpaceOnUse"><stop stop-color="#3e2a06"/><stop offset="1" stop-color="#ad780a"/></linearGradient><linearGradient id="P" x1="51.202" x2="50.864" y1="51.108" y2="54.15" gradientUnits="userSpaceOnUse"><stop stop-color="#f3cd0c"/><stop offset="1" stop-color="#f3cd0c" stop-opacity="0"/></linearGradient><linearGradient id="ab" x1="52" x2="52.716" y1="49.142" y2="49.111" gradientUnits="userSpaceOnUse"><stop stop-color="#7c7c7c"/><stop offset="1" stop-color="#7c7c7c" stop-opacity=".33"/></linearGradient><linearGradient id="af" x1="29.424" x2="30.819" y1="13.935" y2="16.428" gradientUnits="userSpaceOnUse"><stop stop-color="#757574" stop-opacity="0"/><stop offset=".25" stop-color="#757574"/><stop offset=".5" stop-color="#757574"/><stop offset="1" stop-color="#757574" stop-opacity="0"/></linearGradient><linearGradient id="aj" x1="29.231" x2="32.251" y1="10.017" y2="13.101" gradientUnits="userSpaceOnUse"><stop stop-color="#646464" stop-opacity="0"/><stop offset=".31" stop-color="#646464" stop-opacity=".58"/><stop offset=".47" stop-color="#646464"/><stop offset=".73" stop-color="#646464" stop-opacity=".26"/><stop offset="1" stop-color="#646464" stop-opacity="0"/></linearGradient><linearGradient id="an" x1="38.736" x2="40.342" y1="14.104" y2="16.007" gradientUnits="userSpaceOnUse"><stop stop-color="#949494" stop-opacity=".39"/><stop offset=".5" stop-color="#949494"/><stop offset="1" stop-color="#949494" stop-opacity=".39"/></linearGradient><linearGradient id="ap" x1="37.359" x2="42.468" y1="11.049" y2="14.038" gradientUnits="userSpaceOnUse"><stop stop-color="#747474"/><stop offset=".13" stop-color="#8c8c8c"/><stop offset=".25" stop-color="#a4a4a4"/><stop offset=".5" stop-color="#d4d4d4"/><stop offset=".62" stop-color="#d4d4d4"/><stop offset="1" stop-color="#7c7c7c"/></linearGradient><linearGradient id="ar" x1="39.096" x2="42.496" y1="9.753" y2="12.965" gradientUnits="userSpaceOnUse"><stop stop-color="#646464" stop-opacity="0"/><stop offset=".31" stop-color="#646464" stop-opacity=".58"/><stop offset=".47" stop-color="#646464"/><stop offset=".73" stop-color="#646464" stop-opacity=".26"/><stop offset="1" stop-color="#646464" stop-opacity="0"/></linearGradient><linearGradient id="aC" x1="27.705" x2="41.206" y1="20.209" y2="20.104" gradientUnits="userSpaceOnUse"><stop stop-color="#ad780a"/><stop offset=".12" stop-color="#d89e08"/><stop offset=".25" stop-color="#edb80b"/><stop offset=".39" stop-color="#ebc80d"/><stop offset=".53" stop-color="#f5d838"/><stop offset=".77" stop-color="#f6d811"/><stop offset="1" stop-color="#f5cd31"/></linearGradient><linearGradient id="aL" x1="41.197" x2="41.197" y1="19.718" y2="20.716" gradientUnits="userSpaceOnUse"><stop stop-color="#f5ce2d"/><stop offset="1" stop-color="#d79b08"/></linearGradient><clipPath id="a"><path fill="#fff" d="M0 0h72v72H0z"/></clipPath></defs></svg>