<svg xmlns="http://www.w3.org/2000/svg" width="72" height="72" fill="none" viewBox="0 0 72 72"><g clip-path="url(#a)"><path fill="#625df5" d="M72 32.232H50.066l18.995-10.968-3.767-6.528-18.997 10.968L57.262 6.708 50.736 2.94 39.769 21.931V0h-7.538v21.934L21.264 2.94l-6.528 3.768L25.7 25.699 6.708 14.736 2.94 21.264l18.995 10.968H0v7.538h21.931L2.94 50.738l3.767 6.528 18.997-10.968-10.967 18.996 6.526 3.768L32.23 50.07V72h7.538V49.598l11.168 19.344 6.12-3.532-11.17-19.35L65.29 57.265l3.77-6.528-18.992-10.968h21.93zM36 46.248a10.24 10.24 0 0 1-9.468-6.327 10.255 10.255 0 0 1 5.544-13.393 10.245 10.245 0 0 1 14.17 9.468A10.253 10.253 0 0 1 36 46.248"/></g><defs><clipPath id="a"><path fill="#fff" d="M0 0h72v72H0z"/></clipPath></defs></svg>