<svg xmlns="http://www.w3.org/2000/svg" width="72" height="72" fill="none" viewBox="0 0 72 72"><path fill="#1f305f" fill-rule="evenodd" d="M70.424 11.865c-1.105.037-.785.534-3.178 1.126-2.417.595-5.34.23-7.94 1.323-6.8 2.85-7.902 13.87-16.003 18.134-5.312 3-10.729 3.688-15.57 5.206-3.887 1.559-6.304 2.591-9.154 5.049-2.21 1.906-2.75 3.757-5.061 6.15-2.344 3.185-11.23.356-13.518 4.352 1.206.78 1.903.995 4.02.716-.437.83-3.222 1.923-2.716 3.146 0 0 6.732 1.227 12.408-2.199 2.648-1.077 5.13-3.356 9.243-3.902 5.328-.709 11.332 1.117 17.773 1.631-1.332 2.632-2.704 4.186-4.174 6.356-.453.49.389.923 1.951.628 2.81-.696 4.847-1.45 6.867-2.846 2.635-1.818 3.769-3.482 5.992-6.117 1.93 3.097 8.74 3.777 10.137 1.1-2.599-1.1-3.154-6.83-2.263-9.303 1.053-2.356 1.81-5.688 2.66-8.785.765-2.79 1.239-7.045 2.154-9.223 1.093-2.708 3.218-3.554 4.813-4.991 1.596-1.438 3.183-2.636 3.134-5.924-.016-1.068-.567-1.66-1.575-1.627" clip-rule="evenodd"/><path fill="#c0765a" d="M2.032 56.5c4.174.125 5.308.016 8.607-1.417 2.806-1.219 6.559-4.502 9.875-5.563 4.866-1.563 10.084-1.328 15.263-.717 1.732.207 3.473.495 4.716.36 1.94-1.19 2.032-4.42 3.235-4.68-.328 6.252-3.008 10.252-5.688 13.88 5.647-.997 9.42-4.523 11.704-8.887.692-1.324 1.842-3.49 2.368-4.98.417.988-.542 1.615-.093 2.692 3.636-3 5.352-6.417 6.826-11.42 1.708-5.79 3.461-10.766 4.563-12.478 1.073-1.672 2.745-2.705 4.27-3.773 1.734-1.22 3.284-2.486 3.551-4.806-1.83-.17-2.25-.591-2.522-1.514-.915.514-1.757.627-2.708.656-.826.024-1.733-.012-2.842.1-9.162.94-9.587 9.895-16.247 16.47a20 20 0 0 1-1.648 1.397c-2.056 1.534-4.259 2.377-6.579 3.263-3.757 1.433-7.32 1.85-10.842 3.09-2.587.906-4.992 1.947-7.117 3.4-.53.364-1.25 1.012-1.712 1.389-1.247 1.02-2.065 2.15-2.859 3.315-.817 1.199-1.603 2.433-2.805 3.611-1.948 1.911-9.219.56-11.782 2.333a2.1 2.1 0 0 0-.668.716c1.397.636 2.332.247 3.94.421.198 1.535-3.328 2.441-2.806 3.142"/><path fill="#1f305f" fill-rule="evenodd" d="M60.105 17.743c1.295 1.126 4.016.223 3.53-2.016-2.016-.17-3.182.514-3.53 2.016" clip-rule="evenodd"/><path fill="#1f305f" d="M69.144 15.124c-.344.725-1.004 1.656-1.004 3.498-.004.316-.239.534-.243.044.017-1.801.494-2.579 1-3.599.231-.417.373-.247.247.057"/><path fill="#1f305f" d="M68.797 14.853c-.41.688-1.389 1.947-1.547 3.785-.028.316-.287.51-.247.024.178-1.79.96-2.91 1.555-3.886.267-.397.393-.215.239.077m-.316-.361c-.466.652-1.972 2.166-2.287 3.98-.057.311-.328.482-.247.004.328-1.77 1.627-3.162 2.3-4.081.299-.377.412-.182.234.097m-.284-.404c-.55.583-2.348 2.51-2.915 4.263-.101.3-.393.433-.247-.032.571-1.709 2.146-3.547 2.943-4.36.353-.329.434-.118.219.129"/></svg>