<svg xmlns="http://www.w3.org/2000/svg" width="72" height="72" fill="none" viewBox="0 0 72 72"><path fill="#c0765a" d="M1.16 56.744c4.272.128 5.432.017 8.808-1.45 2.872-1.247 6.712-4.607 10.106-5.693 4.98-1.6 10.32-1.359 15.62-.733 1.772.211 3.554.505 4.826.368 1.984-1.217 2.08-4.524 3.31-4.789-.335 6.397-3.078 10.49-5.82 14.203 5.779-1.02 9.64-4.628 11.977-9.094.709-1.355 1.885-3.572 2.424-5.096.426 1.01-.555 1.653-.096 2.755 3.721-3.07 5.478-6.567 6.986-11.688 1.748-5.925 3.542-11.017 4.67-12.77 1.097-1.71 2.808-2.767 4.37-3.86 1.773-1.248 3.36-2.544 3.634-4.919.207-1.798-.872-2.51-2.582-1.55-.936.527-1.798.643-2.771.672-.846.025-1.774-.012-2.909.104-9.376.96-9.81 10.125-16.626 16.854-.44.427-1.19 1.056-1.687 1.43-2.104 1.57-4.358 2.431-6.732 3.339-3.845 1.466-7.49 1.893-11.095 3.16-2.648.929-5.109 1.994-7.284 3.481-.543.373-1.28 1.036-1.753 1.421-1.276 1.044-2.113 2.2-2.925 3.393-.837 1.227-1.64 2.49-2.87 3.696-1.994 1.956-9.435.572-12.057 2.387-.29.203-.527.443-.684.733 1.43.65 2.386.253 4.031.43.203 1.571-3.405 2.5-2.87 3.216"/><path fill="#1f305f" fill-rule="evenodd" d="M60.59 17.082c1.326 1.151 4.11.227 3.613-2.064-2.064-.174-3.257.526-3.613 2.063" clip-rule="evenodd"/></svg>