<svg xmlns="http://www.w3.org/2000/svg" width="72" height="72" fill="none" viewBox="0 0 72 72"><path fill="url(#a)" d="M12 .24q0-.12.003-.24h11.985q-.006.12-.005.24a11.96 11.96 0 0 0 2.634 7.497 11.96 11.96 0 0 0 9.35 4.503 24 24 0 0 1 5.991.758c10.325 2.671 17.976 12.08 17.976 23.242a23.9 23.9 0 0 1-4.166 13.504 29.9 29.9 0 0 0-10.453-6.007 11.96 11.96 0 0 0 2.635-7.498 12.01 12.01 0 0 0-5.992-10.388 11.9 11.9 0 0 0-5.991-1.611 23.85 23.85 0 0 1-15.835-6 24 24 0 0 1-3.966-4.496A23.9 23.9 0 0 1 12 .24"/><path fill="url(#b)" d="M29.974 59.481C19.65 56.811 12 47.403 12 36.241a23.9 23.9 0 0 1 4.163-13.506 29.9 29.9 0 0 0 10.453 6.007 11.96 11.96 0 0 0-2.633 7.498 12.01 12.01 0 0 0 5.991 10.389 11.9 11.9 0 0 0 5.992 1.611 23.85 23.85 0 0 1 15.837 6 24 24 0 0 1 3.967 4.495A23.9 23.9 0 0 1 59.93 72H47.95a11.97 11.97 0 0 0-2.634-7.258 11.96 11.96 0 0 0-9.35-4.502c-2.067 0-4.075-.264-5.99-.759"/><defs><linearGradient id="a" x1="60" x2="12" y1="36" y2="36" gradientUnits="userSpaceOnUse"><stop stop-color="#2148e4"/><stop offset="1" stop-color="#80e8ff"/></linearGradient><linearGradient id="b" x1="60" x2="12" y1="36" y2="36" gradientUnits="userSpaceOnUse"><stop stop-color="#2148e4"/><stop offset="1" stop-color="#80e8ff"/></linearGradient></defs></svg>