<svg xmlns="http://www.w3.org/2000/svg" width="72" height="72" fill="none" viewBox="0 0 72 72"><path fill="url(#a)" d="M35.95 35.854c9.971 0 18.054-8.026 18.054-17.927S45.921 0 35.951 0 17.898 8.026 17.898 17.927 25.98 35.854 35.95 35.854"/><path fill="url(#b)" d="M34.432 71.608C22.667 64.054 12.83 53.882 5.831 41.796c-.507-1.007-.203-2.216.811-2.72h.102l13.692-6.646c.913-.504 2.13-.1 2.637.805 6.896 11.482 17.14 20.748 29.412 26.388-4.563 4.532-9.533 8.56-14.909 11.985-1.014.503-2.231.503-3.144 0"/><path fill="#2684ff" d="M37.471 71.609c11.867-7.453 21.604-17.726 28.703-29.71.507-1.008.203-2.217-.811-2.72h-.102L51.57 32.53c-.913-.503-2.13-.1-2.637.806-6.897 11.482-17.14 20.747-29.412 26.387 4.462 4.532 9.533 8.561 14.909 11.985.913.403 2.13.403 3.042-.1"/><defs><linearGradient id="a" x1="35.974" x2="35.974" y1="5.973" y2="42.864" gradientUnits="userSpaceOnUse"><stop stop-color="#2684ff"/><stop offset=".82" stop-color="#0052cc"/></linearGradient><linearGradient id="b" x1="24.829" x2="37.132" y1="41.832" y2="67.762" gradientUnits="userSpaceOnUse"><stop stop-color="#2684ff"/><stop offset=".62" stop-color="#0052cc"/></linearGradient></defs></svg>