<svg xmlns="http://www.w3.org/2000/svg" width="72" height="72" fill="none" viewBox="0 0 72 72"><g clip-path="url(#a)"><path fill="#101921" d="M36.001.552c-4.235 0-8.168.605-12.1 2.117 5.747 4.538 10.588 10.588 13.31 17.849 8.168.302 14.218 6.655 14.218 15.428 0 9.076-6.05 15.126-13.915 15.731-2.723 7.26-7.26 13.31-13.311 17.848Q29.648 71.34 36 71.341c19.966 0 36-15.429 36-35.395C71.697 15.98 55.664.552 36 .552"/><path fill="#0080ff" d="M7.26 14.468c-1.21 1.512-2.42 3.328-3.328 5.142 5.142 3.933 8.168 9.682 8.168 16.64 0 6.655-3.026 12.706-7.866 16.336.908 1.815 2.118 3.63 3.328 5.143C14.52 53.19 19.36 45.324 19.36 36.248c-.303-9.377-5.143-17.242-12.1-21.78m20.872 35.393q-4.083 9.53-12.705 15.429c1.815 1.21 3.933 2.42 6.05 3.025 5.748-4.235 10.588-9.983 13.31-16.639-2.42 0-4.537-.605-6.655-1.815M21.176 3.577c-2.117.908-4.235 2.118-6.05 3.328 5.748 3.63 9.983 9.075 12.706 15.126 2.117-1.21 4.235-1.815 6.655-1.815-2.723-6.656-7.563-12.404-13.31-16.639"/><path fill="#0080ff" d="M13.01 8.417a28 28 0 0 0-4.236 4.236c6.353 3.932 10.891 10.588 12.101 18.453.908-3.025 2.723-5.748 4.84-7.563-2.42-6.353-6.958-11.495-12.705-15.126m8.166 32.671c-1.513 7.866-6.05 14.521-12.1 18.454 1.21 1.512 2.722 3.025 4.537 4.235 5.748-3.63 10.285-8.773 12.706-15.126-2.723-1.815-4.236-4.538-5.143-7.563M2.723 22.03C.908 26.267 0 31.107 0 35.948c0 5.142 1.21 9.982 3.025 14.218 4.235-3.328 6.656-8.47 6.656-14.218S6.958 25.056 2.723 22.03"/></g><defs><clipPath id="a"><path fill="#fff" d="M0 .002h72v72H0z"/></clipPath></defs></svg>