<svg xmlns="http://www.w3.org/2000/svg" width="72" height="72" fill="none" viewBox="0 0 72 72"><g clip-path="url(#a)"><path fill="#e01e5a" d="M15 45.2c0 4.2-3.4 7.5-7.5 7.5S0 49.3 0 45.2s3.4-7.5 7.5-7.5H15zm3.8 0c0-4.2 3.4-7.5 7.5-7.5s7.5 3.4 7.5 7.5v18.9c0 4.2-3.4 7.5-7.5 7.5s-7.5-3.4-7.5-7.5z"/><path fill="#36c5f0" d="M26.4 15c-4.2 0-7.5-3.4-7.5-7.5S22.3 0 26.4 0s7.5 3.4 7.5 7.5V15zm0 3.8c4.2 0 7.5 3.4 7.5 7.5s-3.4 7.5-7.5 7.5H7.5c-4.2 0-7.5-3.4-7.5-7.5s3.4-7.5 7.5-7.5z"/><path fill="#2eb67d" d="M56.5 26.4c0-4.2 3.4-7.5 7.5-7.5 4.2 0 7.5 3.4 7.5 7.5s-3.4 7.5-7.5 7.5h-7.5zm-3.7 0c0 4.2-3.4 7.5-7.5 7.5s-7.5-3.4-7.5-7.5V7.5c0-4.2 3.4-7.5 7.5-7.5s7.5 3.4 7.5 7.5z"/><path fill="#ecb22e" d="M45.2 56.5c4.2 0 7.5 3.4 7.5 7.5 0 4.2-3.4 7.5-7.5 7.5s-7.5-3.4-7.5-7.5v-7.5zm0-3.7c-4.2 0-7.5-3.4-7.5-7.5s3.4-7.5 7.5-7.5h18.9c4.2 0 7.5 3.4 7.5 7.5s-3.4 7.5-7.5 7.5z"/></g><defs><clipPath id="a"><path fill="#fff" d="M0 0h72v72H0z"/></clipPath></defs></svg>