<svg xmlns="http://www.w3.org/2000/svg" width="72" height="72" fill="none" viewBox="0 0 72 72"><path fill="#4c7f8e" d="m66.53 29.653-.1 34.877c0 .511-.362.718-.808.46L48.063 54.854 37 48.45 18.42 37.74c-.444-.257-.802-.878-.802-1.39l.099-34.876c0-.511.362-.716.806-.46l47.202 27.248c.444.257.804.878.802 1.39z" opacity=".2"/><path fill="#74929f" d="M27.84 56.16v-3.6L39 58.95v3.69z"/><path fill="url(#a)" d="m27.84 56.16-2.25 1.26 15.84 9.18L39 62.64z"/><path fill="#5e2ad8" d="m41.43 66.6 3.33-1.98s.99.99.63 1.53-3.06 2.25-3.69 2.25-16.02-9.18-16.02-9.18c-.45-.27-.63-.81-.63-.81s-.45-.72.27-1.08l2.79-1.62-.27.45-2.25 1.26z"/><path fill="#eff1f3" d="m42.33 60.66 2.43 3.96-3.33 1.98L39 62.64z"/><path fill="#83a2ac" d="M42.33 60.66v-2.07H39v4.05z"/><path fill="#eff1f3" d="m60.571 31.773-.099 34.877c0 .254-.092.434-.236.516l-3.276 1.905c.146-.083.234-.263.236-.517l.1-34.877c.001-.51-.359-1.134-.804-1.39l-47.2-27.25c-.222-.13-.426-.142-.572-.056l3.276-1.904c.146-.087.35-.074.573.055l47.2 27.252c.444.258.804.879.802 1.39"/><path fill="#fff" d="M29.597 47.897a.23.23 0 0 1 .104.18v.888c-.003.066-.05.093-.108.06l-.977-.566a.23.23 0 0 1-.105-.18v-.888c.004-.064.05-.091.108-.059z"/><path fill="#f4f6f7" d="M31.523 49.01a.23.23 0 0 1 .104.18v.887c-.003.067-.05.094-.106.06l-.98-.566a.23.23 0 0 1-.104-.18v-.887c.004-.065.05-.092.107-.06z"/><path fill="#98b3bc" d="m13.942 37.879-.009 3.035-3.342-1.93c-.339-.196-.612-.67-.61-1.058l.005-2.331z"/><path fill="#7c939d" d="m27.471 45.689 28.341 16.364-.007 2.266c0 .426-.304.6-.675.385L10.654 39.022c-.409-.236-.675-.697-.674-1.075 0 .365.272.839.61 1.033l3.343 1.93.01-3.035-.004 3.038 13.525 7.809.009-3.035zm2.228 3.278v-.888a.22.22 0 0 0-.1-.18l-.978-.565c-.057-.032-.104-.007-.104.06v.887a.22.22 0 0 0 .1.18l.978.565c.058.032.104.007.104-.06m1.925 1.112v-.887a.22.22 0 0 0-.101-.18l-.98-.566c-.057-.032-.104-.005-.104.06v.887a.22.22 0 0 0 .101.18l.98.565c.057.033.104.006.104-.059"/><path fill="#fff" d="M48.094 58.556a.25.25 0 0 1 .104.191v.932c0 .067-.048.1-.104.067l-.98-.6a.2.2 0 0 1-.076-.077.2.2 0 0 1-.028-.105v-.924c0-.075.047-.1.103-.066z"/><path fill="#5e2ad8" d="M53.867 61.859a.24.24 0 0 1 .109.191v.931c0 .067-.05.091-.11.058l-1.041-.59a.24.24 0 0 1-.11-.191v-.931c0-.067.051-.092.11-.058z"/><path fill="#f4f6f7" d="M50.021 59.677a.2.2 0 0 1 .077.075q.027.05.026.107v.927c0 .074-.047.1-.103.066l-.974-.588a.26.26 0 0 1-.11-.19v-.927c0-.075.047-.1.102-.066z"/><path fill="#e4eaed" d="M51.94 60.763a.22.22 0 0 1 .11.19v.93c0 .066-.05.09-.11.058l-1.032-.59a.24.24 0 0 1-.118-.19v-.93c0-.066.05-.099.11-.057z"/><path fill="#7c939d" d="m13.945 37.88 13.526 7.81-.01 3.034-13.525-7.808zm2.285 3.51.003-1.284a.3.3 0 0 0-.133-.23l-1.116-.645c-.074-.043-.133-.01-.133.075l-.004 1.284c0 .084.06.187.133.23l1.116.645c.074.041.134.007.134-.076"/><path fill="#fff" d="M16.1 39.875a.3.3 0 0 1 .134.23l-.004 1.284c0 .084-.061.119-.133.075l-1.116-.644a.3.3 0 0 1-.133-.23l.003-1.284c0-.084.061-.119.133-.075zm39.792-5.727-.08 27.902-28.34-16.362-13.526-7.808-3.96-2.286.08-27.904c.001-.427.305-.6.678-.385L55.22 32.984c.371.214.675.738.672 1.164"/><path fill="url(#b)" d="m55.892 34.148-.08 27.902-28.34-16.362-13.526-7.808-3.96-2.286.08-27.904c.001-.427.305-.6.678-.385L55.22 32.984c.371.214.675.738.672 1.164" opacity=".8"/><path fill="#fff" d="M10.744 7.306 14.02 5.4l44.476 25.68-3.276 1.904z"/><path fill="silver" d="M37.191 55.53a1.23 1.23 0 0 1 .55.96c0 .354-.25.49-.55.312l-8.081-4.694a1.22 1.22 0 0 1-.55-.96c0-.344.25-.49.56-.312z"/><path fill="#eff1f3" d="m56.584 32.333-47.2-27.25c-.444-.258-.806-.051-.808.46L8.477 40.42c0 .511.359 1.134.803 1.391l18.578 10.712 11.063 6.403L56.48 69.063c.444.258.806.05.808-.46l.099-34.877c0-.511-.358-1.134-.803-1.39zM36.614 56.28l-6.175-3.564a.94.94 0 0 1-.421-.73c0-.266.19-.375.423-.24l6.174 3.565a.93.93 0 0 1 .421.73c0 .266-.19.376-.423.24zm19.198 5.774-.007 2.266c0 .427-.304.6-.677.384L10.573 38.976c-.33-.19-.594-.65-.594-1.12l.086-30.165c0-.427.306-.6.677-.386l44.476 25.68c.37.213.675.737.673 1.164l-.079 27.902"/><path fill="url(#c)" d="m56.584 32.333-47.2-27.25c-.444-.258-.806-.051-.808.46L8.477 40.42c0 .511.359 1.134.803 1.391l18.578 10.712 11.063 6.403L56.48 69.063c.444.258.806.05.808-.46l.099-34.877c0-.511-.358-1.134-.803-1.39zm-.772 29.721-.007 2.266c0 .427-.304.6-.677.384L10.573 38.976c-.33-.19-.594-.65-.594-1.12l.086-30.165c0-.427.306-.6.677-.386l44.476 25.68c.37.213.675.737.673 1.164l-.079 27.902"/><path fill="#eff1f3" d="m10.653 39.023-.074-.049-.005.004L28.711 49.45 10.653 39.025zm19.016 10.01s-.018.005-.027.005q.015.001.027-.005m-.035.007a.1.1 0 0 1-.041-.015.1.1 0 0 0 .041.015M11.771 38.28l-.635.368.633.468v-.837zm42.172 24.773s-.01 0-.014.003q.008 0 .014-.003m-1.924-1.11s-.012.003-.02.003q.012.001.02-.004m-.034.006a.1.1 0 0 1-.041-.014.1.1 0 0 0 .04.014m.065-.075-.105.06zm-1.99-1.037a.1.1 0 0 1-.04-.015.1.1 0 0 0 .04.015m.033-.007s-.016.005-.025.005q.014.001.025-.005m-1.924-1.11a.1.1 0 0 1-.032.006q.018.002.032-.007m-16.574-9.577a.1.1 0 0 1-.033.007q.019.002.032-.007m22.064 11.651-.274.159zm-5.774-3.333-.195.113zm-.84-.448c-.017.01-.03.034-.03.066q0-.05.03-.066"/><path fill="#c8d6dc" d="m10.592 38.982.018.01-.016-.01zm1.18-.686-.625.364.623.459v-.823z"/><path fill="#98b3bc" d="m11.771 38.21-.148-.085-.671.39.817.602z"/><path fill="#eff1f3" d="m9.385 5.082 3.277-1.904 47.2 27.25-3.278 1.904z"/><path fill="#5e2ad8" d="m60.571 31.773-.099 34.877c0 .254-.092.434-.236.516l-3.276 1.905c.146-.083.234-.263.236-.517l.1-34.877c.001-.51-.359-1.134-.804-1.39l-47.2-27.25c-.222-.13-.426-.142-.572-.056l3.276-1.904c.146-.087.35-.074.573.055l47.2 27.252c.444.258.804.879.802 1.39"/><path fill="url(#d)" d="m60.571 31.703-.099 34.876c0 .254-.092.434-.236.517L56.96 69c.146-.082.234-.262.236-.516l.1-34.877c.001-.511-.359-1.134-.804-1.39l-47.2-27.25c-.222-.13-.426-.143-.572-.056l3.276-1.905c.146-.086.35-.073.573.056l47.2 27.25c.444.258.804.879.802 1.39z"/><path fill="#e6eaec" d="m13.01 20.5.983 1.45-.011 3.565v.837l-.428-.612.003-1.039a.27.27 0 0 0-.119-.207l-.437-.252.01-3.744z"/><path fill="#5e2ad8" d="M13.437 24.497c.066.038.12.131.119.207l-.004 1.039v.462c0 .076-.056.106-.122.069l-1.306-.755a.26.26 0 0 1-.118-.207l.003-1.5c0-.076.054-.107.12-.07l.869.501.437.252z"/><path fill="#b0c4c9" d="m15.736 22.073-.01 3.34q.096.216.188.433l-.01.789-1.923-1.118.01-3.564-.982-1.451 2.725 1.573z"/><path fill="#5e2ad8" d="M13.507 32.733c.067.037.12.13.119.207l-.004 1.038v.463c0 .075-.056.106-.122.068l-1.305-.754a.26.26 0 0 1-.119-.207l.004-1.5c0-.075.054-.106.12-.068l.868.5.437.253z"/><path fill="#b0c4c9" d="M16.596 34.747v.282l-2.02-1.166v-.283z"/><path fill="#e6eaec" d="m13.08 28.736.983 1.451-.01 3.57v.831l-.43-.612.005-1.039a.27.27 0 0 0-.12-.207l-.437-.252.011-3.744z"/><path fill="#b0c4c9" d="m16.598 34.293-.002.282-2.018-1.166v-.281zm-.55-2.138v.14l-1.465-.846v-.14z"/><path fill="#e6eaec" d="m16.16 32.45.625.36-.007 2.854-2.348-1.355v-.331l.011-3.284 1.363.787.36.209v.76zm.436 1.673v-.754l-2.016-1.166v.754zm-.002.906v-.283l-2.018-1.166v.282zm0-.454v-.283l-2.018-1.166v.283zm.004-1.384v-.283l-2.018-1.166v.283zm-2.018-1.883v.14l1.465.846v-.14z"/><path fill="#b0c4c9" d="m16.6 33.37-.003.752-2.02-1.165.005-.754zm.002-.461-.002.282-2.018-1.166v-.28zm-.44-1.219.623 1.12-.625-.36z"/><path fill="#b0c4c9" d="m15.805 30.31-.003 1.171-1.363-.786-.009 3.285-.378-.223.009-3.57-.981-1.45z"/><path fill="#5e2ad8" d="m12.886 11.904 3.483 3.276-.009 2.965-3.481-3.272z"/><path fill="#e6eaec" d="m12.463 15.531 2.99 2.893-.135-.007-1.197-.067-2.92-2.86-.144-.14z"/><path fill="#b0c4c9" d="m11.057 15.35.144.14 2.92 2.86 1.197.067.135.007v.122l-1.332-.073-3.066-3.001z"/><path fill="#e6eaec" d="m14.522 16.492.934.879v.045c0 .088-.063.124-.14.079l-.657-.38a.3.3 0 0 1-.139-.24v-.383z"/><path fill="#b0c4c9" d="M14.52 16.74v.136c0 .088.062.196.14.24l.656.38c.078.044.14.008.14-.08v-.045l.638.6c-.05.13-.56-.035-1.179-.393-.653-.376-1.182-.825-1.18-.997 0-.137.329-.063.788.158z"/><path fill="#e6eaec" d="m12.798 11.746 3.66 3.442-.01 3.115-.356-.334-.637-.6-.935-.878-1.731-1.627zm3.562 6.4.009-2.967-3.483-3.274-.009 2.966z"/><path fill="#b0c4c9" d="m13.086 11.83 3.567 3.367-.009 3.114-.196-.008.01-3.115-3.66-3.442z"/><path fill="#5e2ad8" d="M22.133 21.322a.26.26 0 0 1 .119.205l-.004 1.037v.463c0 .075-.056.106-.12.068l-1.307-.754a.26.26 0 0 1-.119-.205l.004-1.502c0-.075.054-.106.12-.068l.868.5.437.252z"/><path fill="#e6eaec" d="m21.706 17.324.162.24.819 1.211-.01 3.733v.668l-.43-.612.004-1.037a.26.26 0 0 0-.119-.205l-.437-.252.01-3.744z"/><path fill="#b0c4c9" d="m24.431 18.897-.002.573-2.224-1.73-.002.151-.335-.344v.017l-.162-.24z"/><path fill="#b0c4c9" d="m21.868 17.548.335.344 1.661 1.71-.009 3.443-.002.684-1.177-1.22.01-3.733-.818-1.212z"/><path fill="#e6eaec" d="m22.205 17.74 2.225 1.73.358.277-.011 4.146-.922-.848.01-3.444-1.662-1.71zm.041 9.29-.004 1.042.907.524c0 .578-.409.81-.91.52-.503-.29-.906-.99-.906-1.567 0-.576.409-.809.91-.519z"/><path fill="#5e2ad8" d="m23.308 30.223 1.61.93-.001.193-1.61-.929zm-1.062-3.193c.502.29.906.99.906 1.566l-.908-.523.004-1.043zm2.677 2.284-.002.699-1.055-.609.002-.7z"/><path fill="#e6eaec" d="m24.925 28.726-.002.588-1.055-.61-.002.7 1.055.609-.002.65-1.055-.609.002-.421v-.094l.004-1.422z"/><path fill="#b0c4c9" d="M25.374 28.357a.2.2 0 0 1 .092.16l-.01 3.616c0 .06-.042.083-.094.052l-4.439-2.563a.2.2 0 0 1-.092-.16l.011-3.616c0-.06.041-.083.094-.054l4.438 2.563zm-.451.955v-.588l-1.053-.609-.004 1.422-.342-.198v-.576l-.373-.216v.047c0-.576-.403-1.276-.905-1.566s-.909-.057-.91.519c0 .577.402 1.278.905 1.567.502.29.909.058.91-.52v.049l.292.169v.576l.423.245v.421l1.055.608v-.65zm-.004 2.033v-.193l-1.61-.929v-.21l-.51-.296v.211l-1.376-.794v.193l1.374.794v.183l.511.295v-.183z"/><path fill="#5e2ad8" d="m23.526 28.765-.002.576.342.198v.093l-.425-.244.002-.575-.292-.169v-.095zm-2.104.563v-.192l1.375.792v.194z"/><path fill="#e6eaec" d="M23.308 30.012v.405l-.002.184-.511-.296.002-.183v-.405z"/><path fill="#b0c4c9" d="M24.294 36.397v.157l-1.254-.726v-.156z"/><path fill="#e6eaec" d="M22.464 35.024c.068.04.122.133.122.21l-.005 1.651c0 .077-.056.11-.123.07l-1.413-.815a.27.27 0 0 1-.122-.21l.005-1.651c0-.078.056-.11.123-.07z"/><path fill="#b0c4c9" d="M22.715 34.824a.37.37 0 0 1 .166.288l-.007 2.24c0 .107-.076.15-.168.096l-1.503-.867-.415-.24a.37.37 0 0 1-.166-.288l.007-2.24c0-.107.076-.148.168-.096l.415.24zm-.137 2.06.006-1.65a.27.27 0 0 0-.122-.21l-1.413-.816c-.069-.04-.123-.007-.123.07l-.005 1.651c0 .077.054.173.122.21l1.413.816c.069.04.122.007.122-.07m1.715.284v.157l-1.255-.724v-.157zm.001-.41-.002.156-1.254-.723.002-.157zm-.702-2.7 1.032 1.751-1.035-.598z"/><path fill="#e6eaec" d="m23.589 35.213 1.037.597-.011 3.995-3.411-1.97.003-1.256 1.503.867c.092.053.168.011.168-.095l.007-2.24a.37.37 0 0 0-.166-.289l-1.503-.867.004-1.27 2.374 1.372-.003 1.154zm.702 2.495v-.157l-1.255-.724v.157zm.002-.792v-.157l-1.255-.724v.157zm0 .41v-.157l-1.255-.723v.156zm.001-.774v-.157l-1.254-.723v.156z"/><path fill="#b0c4c9" d="M24.29 37.55v.157l-1.254-.723v-.159z"/><path fill="#c8d6dc" d="m41.158 31.505-.023 8.2-7.139-4.12.023-8.2zm7.598 4.389-.023 8.199-7.137-4.12.023-8.2zm-7.622 4.342-.024 8.201-7.138-4.122.023-8.199zm7.596 4.387-.023 8.2-7.137-4.12.024-8.2z"/><path fill="#fff" d="m11.844 37.207-.002.956-.832-.48.002-.955zm.886.511-.002.956-.832-.48.002-.955zm-.888.508-.004.954-.831-.48.003-.955zm.886.511-.004.956-.832-.48.004-.956z"/><defs><radialGradient id="c" cx="0" cy="0" r="1" gradientTransform="translate(32.932 37.07)scale(28.5336)" gradientUnits="userSpaceOnUse"><stop offset=".41" stop-color="#88959b" stop-opacity=".28"/><stop offset=".615" stop-color="#88959b" stop-opacity=".3"/><stop offset=".87" stop-color="#88959b" stop-opacity=".62"/><stop offset="1" stop-color="#88959b" stop-opacity=".6"/></radialGradient><radialGradient id="d" cx="0" cy="0" r="1" gradientTransform="translate(81.937 7.51)scale(86.6808)" gradientUnits="userSpaceOnUse"><stop stop-color="#fff" stop-opacity=".6"/><stop offset=".13" stop-color="#fff" stop-opacity=".42"/><stop offset=".21" stop-color="#fff" stop-opacity=".3"/><stop offset=".54" stop-color="#fff" stop-opacity="0"/></radialGradient><linearGradient id="a" x1="36.48" x2="25.68" y1="61.019" y2="57.419" gradientUnits="userSpaceOnUse"><stop offset=".107" stop-color="#8cacb7"/><stop offset="1" stop-color="#c9d7dd"/></linearGradient><linearGradient id="b" x1="146.23" x2="-5.625" y1="-10.961" y2="50.235" gradientUnits="userSpaceOnUse"><stop offset=".35" stop-color="#4c7f8e" stop-opacity=".5"/><stop offset=".44" stop-color="#4c7f8e" stop-opacity=".47"/><stop offset=".54" stop-color="#4c7f8e" stop-opacity=".37"/><stop offset=".65" stop-color="#4c7f8e" stop-opacity=".21"/><stop offset=".75" stop-color="#4c7f8e" stop-opacity="0"/><stop offset="1" stop-color="#4c7f8e" stop-opacity="0"/></linearGradient></defs></svg>