<svg xmlns="http://www.w3.org/2000/svg" width="72" height="72" fill="none" viewBox="0 0 72 72"><g clip-path="url(#a)"><path fill="#ff1b15" d="M0 9.002a9 9 0 0 1 9-9h54a9 9 0 0 1 9 9v54a9 9 0 0 1-9 9H9a9 9 0 0 1-9-9z"/><path fill="#fff" d="M49.501 18.002h3.867c.35 0 .633.282.633.633v9.972a.64.64 0 0 1-.622.645h-3.244a.63.63 0 0 1-.634-.634v-2.917L24.487 49.5h6.38c.351 0 .634.283.634.634v3.233c0 .35-.283.634-.633.634H18.634a.63.63 0 0 1-.633-.634v-3.866l28.354-27h-2.97a.633.633 0 0 1-.634-.634v-3.222c0-.35.283-.633.634-.633zm-22.5 4.5 10.617-.012c.35 0 .633-.283.633-.633v-3.222a.63.63 0 0 0-.622-.634H18.657a.63.63 0 0 0-.633.634v9.983c0 .35.282.634.633.634h3.222c.35 0 .622-.283.622-.634v-6.116zm22.5 27H36.634a.63.63 0 0 0-.633.633v3.233c0 .35.283.634.633.634h16.734c.35 0 .633-.283.633-.634V43.332a.63.63 0 0 0-.633-.633h-3.233a.63.63 0 0 0-.634.633z"/></g><defs><clipPath id="a"><path fill="#fff" d="M0 .002h72v72H0z"/></clipPath></defs></svg>