<svg width="610" height="206" fill="none" xmlns="http://www.w3.org/2000/svg"><g filter="url(#a)"><path d="M11.08 65.464a3.246 3.246 0 0 1 3.245-3.246h62.76a3.246 3.246 0 0 1 3.246 3.246v62.759a3.248 3.248 0 0 1-3.246 3.247h-62.76a3.245 3.245 0 0 1-3.246-3.247V65.464Z" fill="#fff"/></g><g filter="url(#b)"><path fill-rule="evenodd" clip-rule="evenodd" d="M14.325 62.76a2.705 2.705 0 0 0-2.705 2.704v62.759a2.704 2.704 0 0 0 2.705 2.706h62.76a2.703 2.703 0 0 0 2.705-2.706V65.464a2.705 2.705 0 0 0-2.706-2.705H14.326Zm-2.678.026a3.788 3.788 0 0 1 2.678-1.109h62.76a3.787 3.787 0 0 1 3.787 3.787v62.759a3.786 3.786 0 0 1-3.787 3.788h-62.76a3.785 3.785 0 0 1-3.787-3.788V65.464c0-1.004.4-1.968 1.11-2.678Z" fill="#BECACF"/></g><path d="M33.057 145.383c.03 1.067.524 1.75 1.587 1.75 1.058 0 1.592-.673 1.592-1.746v-4.164h1.294v4.164c-.024 1.376-.678 2.241-1.683 2.655-.683.284-1.722.284-2.405 0-1.01-.414-1.678-1.279-1.678-2.655v-4.164h1.293v4.16ZM40.641 147.196c.702 0 1.183-.337 1.16-1.015-.03-.842-.939-.89-1.602-1.116-.88-.303-1.63-.736-1.602-1.924.024-.957.577-1.534 1.308-1.827.606-.245 1.496-.212 2.102.024.346.13.64.308.885.539l-.318.61c-.072.193-.307.246-.505.121-.307-.198-.654-.419-1.183-.409-.634.014-1.077.26-1.077.875 0 .803.972.847 1.606 1.092.832.322 1.602.692 1.602 1.832 0 1.092-.577 1.751-1.39 2.082-.664.27-1.698.188-2.299-.077-.385-.168-.74-.384-1.01-.663l.376-.621c.11-.163.355-.206.552-.062.352.26.756.539 1.395.539ZM48.394 141.223v1.029H45.31v1.928h2.429v.996H45.31v1.967h3.083v1.034h-4.386v-6.954h4.386ZM54.357 143.223c0 1.116-.659 1.693-1.534 1.986.163.092.303.226.423.4l1.741 2.568h-1.164a.532.532 0 0 1-.485-.26l-1.462-2.227c-.116-.163-.202-.23-.472-.23h-.553v2.717h-1.293v-6.954h2.12c1.559.019 2.68.505 2.68 2Zm-1.265.096c0-.783-.548-1.101-1.414-1.096h-.827v2.308h.808c.866-.014 1.433-.37 1.433-1.212ZM57.608 147.196c.702 0 1.183-.337 1.159-1.015-.029-.842-.938-.89-1.602-1.116-.88-.303-1.63-.736-1.6-1.924.023-.957.576-1.534 1.307-1.827.606-.245 1.496-.212 2.102.024.346.13.64.308.885.539l-.318.61c-.072.193-.307.246-.505.121-.308-.198-.654-.419-1.183-.409-.635.014-1.077.26-1.077.875 0 .803.971.847 1.606 1.092.832.322 1.602.692 1.602 1.832 0 1.092-.577 1.751-1.39 2.082-.664.27-1.698.188-2.299-.077-.385-.168-.74-.384-1.01-.663l.375-.621c.11-.163.356-.206.553-.062.351.26.755.539 1.395.539ZM60.324 87.295c0 4.436-3.625 8.045-8.045 8.045a8.038 8.038 0 0 1-8.045-8.05 8.036 8.036 0 0 1 8.045-8.046c4.425 0 8.045 3.609 8.045 8.05Zm-18.785 5.361c0 2.965-2.413 5.367-5.356 5.367-2.975 0-5.383-2.402-5.383-5.367 0-2.959 2.413-5.356 5.394-5.356 2.932 0 5.345 2.397 5.345 5.356Zm-16.09 15.55c0-4.139 3.382-7.499 7.52-7.499h6.439a7.48 7.48 0 0 1 7.482 7.493c0 1.044-.85 1.878-1.856 1.878H27.343a1.88 1.88 0 0 1-1.894-1.883v.011Z" fill="#697986"/><path d="M41.782 99.657a8.777 8.777 0 0 1 6.476 8.484 3.35 3.35 0 0 1-.649 1.947h15.652a2.419 2.419 0 0 0 2.413-2.413 9.632 9.632 0 0 0-9.647-9.652h-8.861c-2.002 0-3.858.585-5.384 1.634Z" fill="#697986"/><path d="M294.253 23.627a4.327 4.327 0 0 1 4.328-4.329h306.222a4.33 4.33 0 0 1 4.328 4.329V200.72a4.332 4.332 0 0 1-1.267 3.061 4.332 4.332 0 0 1-3.061 1.267H298.581a4.328 4.328 0 0 1-4.328-4.328V23.627Z" fill="#fff"/><path fill-rule="evenodd" clip-rule="evenodd" d="M298.581 19.84a3.788 3.788 0 0 0-3.787 3.787V200.72a3.787 3.787 0 0 0 3.787 3.787h306.222a3.788 3.788 0 0 0 3.787-3.787V23.627a3.788 3.788 0 0 0-3.787-3.788H298.581Zm-3.443.343a4.87 4.87 0 0 1 3.443-1.426h306.222a4.87 4.87 0 0 1 4.869 4.87V200.72a4.868 4.868 0 0 1-4.869 4.87H298.581a4.871 4.871 0 0 1-4.869-4.87V23.627a4.87 4.87 0 0 1 1.426-3.444Z" fill="#BECACF"/><path d="M411.998 2.516c0 1.602-1.081 2.294-2.732 2.318h-.984v2.479h-1.309V.272h2.293c1.641.02 2.732.652 2.732 2.244Zm-1.31 0c0-.857-.545-1.231-1.422-1.231h-.984v2.527h.984c.896-.005 1.422-.414 1.422-1.296ZM417.919 2.297c0 1.13-.667 1.714-1.553 2.011.165.093.307.23.428.404l1.763 2.6h-1.178a.538.538 0 0 1-.492-.262l-1.48-2.255c-.117-.165-.205-.233-.478-.233h-.56v2.75h-1.309V.273h2.147c1.578.02 2.712.511 2.712 2.025Zm-1.281.098c0-.794-.555-1.115-1.431-1.11h-.838v2.337h.818c.877-.015 1.451-.375 1.451-1.227ZM420.869 7.313h-1.314V.272h1.314v7.04ZM421.761.272h1.056a.433.433 0 0 1 .439.297c.608 1.587 1.246 3.145 1.816 4.757.058.165.097.34.141.526a5.73 5.73 0 0 1 .278-.989l1.65-4.294a.48.48 0 0 1 .434-.297h1.056l-2.843 7.04h-1.184M434.732 7.313h-1.013a.447.447 0 0 1-.438-.297l-.526-1.437h-2.917l-.526 1.437a.478.478 0 0 1-.433.297h-1.018l2.766-7.041h1.339l2.766 7.04Zm-4.558-2.659h2.245c-.375-1.061-.794-2.065-1.125-3.17-.321 1.12-.75 2.104-1.12 3.17ZM439.704.272v1.076h-2.118v5.965h-1.31V1.348h-2.128V.272h5.556ZM444.977.272v1.042h-3.121v1.952h2.459v1.008h-2.459v1.992h3.121v1.047h-4.441V.272h4.441ZM449.116 2.4c.019.184.029.399.029.589v4.323h-1.154V.272c.346.029.847-.117 1.028.097 1.309 1.558 2.527 3.218 3.793 4.82a5.342 5.342 0 0 1-.034-.637V.272h1.154v7.04c-.312-.019-.701.05-.935-.048a.545.545 0 0 1-.2-.176M459.794.271v1.042h-3.121v1.953h2.459v1.008h-2.459v1.992h3.121v1.046h-4.44V.272h4.44ZM465.891.271v1.077h-2.118v5.964h-1.31V1.348h-2.128V.27h5.556ZM466.07.271h1.101c.229 0 .389.122.438.297.424 1.52.881 3.01 1.276 4.553.029.122.048.249.073.385.048-.258.107-.506.185-.726l1.383-4.212a.478.478 0 0 1 .433-.297c.38 0 .721-.019.823.297l1.373 4.212c.073.21.132.439.185.692.044-.239.088-.477.146-.692l1.198-4.212c.044-.16.219-.297.433-.297h1.028l-2.186 7.041h-1.184c-.55-1.748-1.129-3.471-1.66-5.239-.536 1.773-1.12 3.486-1.675 5.24h-1.183M483.41 2.356c.346.857.346 2.015 0 2.872-.516 1.271-1.573 2.162-3.306 2.162-1.734 0-2.805-.896-3.316-2.162-.346-.857-.346-2.015 0-2.872.516-1.271 1.577-2.162 3.316-2.162 1.728 0 2.79.896 3.306 2.162Zm-3.306 3.914c1.494 0 2.22-.964 2.22-2.478 0-1.514-.726-2.483-2.22-2.483-1.5 0-2.235.964-2.235 2.483 0 1.52.74 2.478 2.235 2.478ZM489.604 2.297c0 1.13-.667 1.714-1.554 2.011.166.093.307.229.429.404l1.763 2.6h-1.179a.54.54 0 0 1-.492-.263l-1.48-2.254c-.117-.166-.204-.234-.477-.234h-.56v2.751h-1.31V.272h2.147c1.578.019 2.713.51 2.713 2.025Zm-1.281.097c0-.793-.555-1.115-1.432-1.11h-.837v2.338h.818c.876-.015 1.451-.375 1.451-1.228ZM492.433 3.222c.36.01.657-.005.823-.214l1.943-2.459c.155-.19.282-.278.594-.278h1.129l-2.371 2.927c-.136.16-.253.287-.433.38.243.092.389.238.54.438l2.444 3.296h-1.158c-.307 0-.409-.087-.541-.258l-1.991-2.6c-.137-.17-.258-.238-.565-.238h-.414v3.096h-1.31V.267h1.31v2.955Z" fill="#324148"/><g filter="url(#c)"><path d="M165.488 65.464a3.245 3.245 0 0 1 3.246-3.246h62.76a3.245 3.245 0 0 1 3.246 3.246v62.759a3.247 3.247 0 0 1-3.246 3.247h-62.76a3.247 3.247 0 0 1-3.246-3.247V65.464Z" fill="#fff"/></g><g filter="url(#d)"><path fill-rule="evenodd" clip-rule="evenodd" d="M168.734 62.76a2.704 2.704 0 0 0-2.705 2.704v62.759c0 .718.285 1.406.793 1.913a2.701 2.701 0 0 0 1.912.793h62.76a2.705 2.705 0 0 0 2.705-2.706V65.464a2.706 2.706 0 0 0-2.705-2.705h-62.76Zm-2.677.026a3.785 3.785 0 0 1 2.677-1.109h62.76a3.79 3.79 0 0 1 3.787 3.787v62.759a3.787 3.787 0 0 1-3.787 3.788h-62.76a3.783 3.783 0 0 1-2.677-1.11 3.783 3.783 0 0 1-1.11-2.678V65.464c0-1.004.399-1.968 1.11-2.678Z" fill="#512FC9" fill-opacity=".2"/></g><path d="M182.136 140.501v1.063h-2.092v5.891h-1.294v-5.891h-2.102v-1.063h5.488ZM187.344 140.501v1.029h-3.083v1.929h2.429v.995h-2.429v1.967h3.083v1.034h-4.386v-6.954h4.386ZM189.759 146.388h2.784v1.067h-4.078v-6.954h1.294v5.887ZM197.823 140.501v1.029h-3.082v1.929h2.428v.995h-2.428v1.967h3.082v1.034h-4.385v-6.954h4.385ZM203.95 142.718c0 1.582-1.067 2.265-2.698 2.289h-.971v2.448h-1.294v-6.954h2.265c1.621.019 2.698.645 2.698 2.217Zm-1.293 0c0-.846-.539-1.216-1.405-1.216h-.971v2.495h.971c.885-.004 1.405-.408 1.405-1.279ZM211.371 142.56c.341.846.341 1.991 0 2.837-.51 1.255-1.554 2.135-3.266 2.135s-2.77-.885-3.275-2.135c-.341-.846-.341-1.991 0-2.837.51-1.256 1.558-2.136 3.275-2.136 1.708 0 2.756.885 3.266 2.136Zm-3.266 3.866c1.477 0 2.193-.952 2.193-2.448 0-1.495-.716-2.452-2.193-2.452-1.481 0-2.207.952-2.207 2.452 0 1.501.731 2.448 2.207 2.448ZM217.488 142.502c0 1.116-.659 1.693-1.534 1.986.163.091.303.226.423.399l1.741 2.568h-1.164a.534.534 0 0 1-.486-.259l-1.462-2.227c-.115-.164-.202-.231-.471-.231h-.553v2.717h-1.294v-6.954h2.121c1.558.019 2.679.505 2.679 2.001Zm-1.265.096c0-.784-.548-1.101-1.414-1.096h-.827v2.308h.808c.866-.015 1.433-.37 1.433-1.212ZM223.576 140.501v1.063h-2.092v5.891h-1.294v-5.891h-2.101v-1.063h5.487ZM171.832 157.992c-.549.674-1.328 1.097-2.525 1.082-1.669-.019-2.66-.875-3.121-2.125-.318-.856-.318-2.035.029-2.867.519-1.255 1.587-2.092 3.308-2.116 1.058-.014 1.804.38 2.347.905l-.433.601c-.077.154-.327.187-.49.057a2.092 2.092 0 0 0-1.433-.461c-1.462.053-2.237.966-2.237 2.452 0 1.159.486 1.929 1.284 2.294.602.279 1.587.188 2.04-.115.202-.082.466-.534.721-.26M174.101 157.93h2.785v1.067h-4.078v-6.954h1.293v5.887ZM178.993 156.203c.029 1.068.524 1.751 1.587 1.751 1.058 0 1.592-.674 1.592-1.746v-4.165h1.293v4.165c-.024 1.375-.678 2.241-1.683 2.655-.683.283-1.721.283-2.404 0-1.01-.414-1.679-1.28-1.679-2.655v-4.165h1.294v4.16ZM186.577 158.016c.702 0 1.183-.337 1.159-1.015-.029-.841-.938-.889-1.602-1.115-.88-.303-1.63-.736-1.601-1.924.024-.957.577-1.534 1.308-1.827.606-.246 1.496-.212 2.102.024.346.129.639.307.884.538l-.317.611c-.072.192-.308.245-.505.12-.308-.197-.654-.418-1.183-.409-.635.015-1.077.26-1.077.876 0 .803.971.846 1.606 1.091.832.323 1.601.693 1.601 1.833 0 1.091-.577 1.75-1.389 2.082-.664.269-1.698.188-2.299-.077-.385-.168-.741-.385-1.01-.664l.375-.62c.111-.163.356-.207.553-.063.351.26.755.539 1.395.539ZM194.844 152.043v1.063h-2.092v5.891h-1.294v-5.891h-2.102v-1.063h5.488ZM200.052 152.043v1.029h-3.083v1.929h2.429v.995h-2.429v1.967h3.083v1.034h-4.386v-6.954h4.386ZM206.015 154.044c0 1.116-.659 1.693-1.534 1.986.164.091.303.226.423.399l1.741 2.568h-1.163a.533.533 0 0 1-.486-.259l-1.462-2.227c-.116-.164-.202-.231-.471-.231h-.554v2.717h-1.293v-6.954h2.121c1.558.019 2.678.505 2.678 2.001Zm-1.264.096c0-.784-.549-1.101-1.414-1.096h-.828v2.308h.808c.866-.015 1.434-.37 1.434-1.212ZM214.801 157.992c-.548.673-1.327 1.097-2.524 1.082-1.669-.019-2.66-.875-3.122-2.126-.317-.856-.317-2.034.029-2.866.52-1.255 1.587-2.092 3.309-2.116 1.058-.014 1.803.38 2.347.904l-.433.601c-.077.154-.327.188-.49.058a2.095 2.095 0 0 0-1.434-.462c-1.462.053-2.236.967-2.236 2.453 0 1.159.486 1.929 1.284 2.294.601.279 1.587.188 2.039-.115.202-.082.467-.534.722-.26M222.193 154.102c.341.846.341 1.991 0 2.837-.51 1.255-1.553 2.135-3.265 2.135-1.712 0-2.77-.885-3.275-2.135-.342-.846-.342-1.991 0-2.837.509-1.256 1.558-2.136 3.275-2.136 1.707 0 2.755.885 3.265 2.136Zm-3.265 3.866c1.476 0 2.193-.952 2.193-2.448 0-1.495-.717-2.452-2.193-2.452-1.482 0-2.208.952-2.208 2.452 0 1.501.731 2.448 2.208 2.448ZM228.31 154.044c0 1.116-.659 1.693-1.534 1.986.164.091.303.226.423.399l1.741 2.568h-1.164a.533.533 0 0 1-.485-.259l-1.462-2.227c-.116-.164-.202-.231-.472-.231h-.553v2.717h-1.293v-6.954h2.121c1.558.019 2.678.505 2.678 2.001Zm-1.265.096c0-.784-.548-1.101-1.413-1.096h-.828v2.308h.808c.866-.015 1.433-.37 1.433-1.212ZM234.154 152.043v1.029h-3.083v1.929h2.428v.995h-2.428v1.967h3.083v1.034h-4.386v-6.954h4.386Z" fill="#697986"/><path d="M185.02 87.955h30.081c.779 0 1.353-.774 1.012-1.58l-3.484-7.812c-.109-.433-.541-.666-.877-.666h-23.264c-.341 0-.779.233-1.012.671l-3.462 7.818c-.325.812.238 1.58 1.011 1.58l-.005-.011Zm30.757 1.098h-31.325c-.671 0-1.109.476-1.109 1.147v4.464c0 .67.433 1.103 1.109 1.103h31.325c.671 0 1.11-.432 1.11-1.098v-4.463c0-.671-.433-1.137-1.11-1.137v-.016Zm-6.708 4.502c-.671 0-1.137-.471-1.137-1.137 0-.676.466-1.109 1.137-1.109s1.109.433 1.109 1.104c0 .676-.433 1.147-1.109 1.147v-.005Zm5.572 0h-2.218c-.671 0-1.136-.471-1.136-1.137 0-.676.465-1.109 1.136-1.109h2.218c.671 0 1.136.433 1.136 1.104 0 .676-.465 1.147-1.136 1.147v-.005Zm1.136 11.172h-31.325c-.671 0-1.109.433-1.109 1.103v4.502c0 .671.433 1.109 1.109 1.109h31.325c.671 0 1.11-.433 1.11-1.109v-4.491c0-.676-.433-1.109-1.11-1.109v-.005Zm-6.708 4.458c-.671 0-1.137-.433-1.137-1.098 0-.671.466-1.11 1.137-1.11s1.109.433 1.109 1.11c0 .67-.433 1.103-1.109 1.103v-.005Zm5.572 0h-2.218c-.671 0-1.136-.433-1.136-1.098 0-.671.465-1.11 1.136-1.11h2.218c.671 0 1.136.433 1.136 1.11 0 .67-.465 1.103-1.136 1.103v-.005Zm1.136-12.276h-31.325c-.671 0-1.109.433-1.109 1.109v4.458c0 .676.433 1.147 1.109 1.147h31.325c.671 0 1.11-.471 1.11-1.136v-4.464c0-.67-.433-1.109-1.11-1.109v-.005Zm-26.835 4.463c-.67 0-1.136-.432-1.136-1.109 0-.67.466-1.136 1.136-1.136.671 0 1.11.465 1.11 1.136 0 .671-.433 1.109-1.11 1.109Zm3.355 0c-.671 0-1.136-.432-1.136-1.109 0-.67.465-1.136 1.136-1.136.671 0 1.109.465 1.109 1.136 0 .671-.433 1.109-1.109 1.109Zm3.354 0c-.671 0-1.136-.432-1.136-1.109 0-.67.465-1.136 1.136-1.136.671 0 1.109.465 1.109 1.136 0 .671-.433 1.109-1.109 1.109Zm3.355 0c-.671 0-1.137-.432-1.137-1.109 0-.67.466-1.136 1.137-1.136.67 0 1.109.465 1.109 1.136 0 .671-.433 1.109-1.109 1.109Zm10.063 0c-.671 0-1.137-.432-1.137-1.109 0-.67.466-1.136 1.137-1.136s1.109.465 1.109 1.136c0 .671-.433 1.109-1.109 1.109Zm5.572 0h-2.218c-.671 0-1.136-.432-1.136-1.109 0-.67.465-1.136 1.136-1.136h2.218c.671 0 1.136.465 1.136 1.136 0 .671-.465 1.109-1.136 1.109Z" fill="#512FC9"/><g filter="url(#e)"><path d="M351.294 65.464a3.245 3.245 0 0 1 3.246-3.246h62.759a3.248 3.248 0 0 1 3.247 3.246v62.759a3.247 3.247 0 0 1-3.247 3.247H354.54a3.245 3.245 0 0 1-3.246-3.247V65.464Z" fill="#fff"/></g><g filter="url(#f)"><path fill-rule="evenodd" clip-rule="evenodd" d="M354.54 62.76a2.708 2.708 0 0 0-2.705 2.704v62.759a2.705 2.705 0 0 0 2.705 2.706h62.759c.718 0 1.406-.285 1.913-.793a2.702 2.702 0 0 0 .793-1.913V65.464a2.703 2.703 0 0 0-2.706-2.705H354.54Zm-2.678.026a3.788 3.788 0 0 1 2.678-1.109h62.759a3.786 3.786 0 0 1 3.788 3.787v62.759a3.783 3.783 0 0 1-1.11 2.678 3.783 3.783 0 0 1-2.678 1.11H354.54a3.785 3.785 0 0 1-3.787-3.788V65.464c0-1.004.399-1.968 1.109-2.678Z" fill="#512FC9" fill-opacity=".2"/></g><path d="M357.587 140.501v1.063h-2.092v5.891h-1.294v-5.891H352.1v-1.063h5.487ZM362.795 140.501v1.029h-3.083v1.929h2.429v.995h-2.429v1.967h3.083v1.034h-4.386v-6.954h4.386ZM365.21 146.388h2.784v1.067h-4.078v-6.954h1.294v5.887ZM373.275 140.501v1.029h-3.083v1.929h2.429v.995h-2.429v1.967h3.083v1.034h-4.386v-6.954h4.386ZM379.402 142.718c0 1.582-1.068 2.265-2.698 2.289h-.972v2.448h-1.294v-6.954h2.266c1.62.019 2.698.645 2.698 2.217Zm-1.294 0c0-.846-.539-1.216-1.404-1.216h-.972v2.495h.972c.884-.004 1.404-.408 1.404-1.279ZM386.822 142.56c.341.846.341 1.991 0 2.837-.51 1.255-1.553 2.135-3.266 2.135-1.712 0-2.77-.885-3.275-2.135-.341-.846-.341-1.991 0-2.837.51-1.256 1.559-2.136 3.275-2.136 1.708 0 2.756.885 3.266 2.136Zm-3.266 3.866c1.477 0 2.193-.952 2.193-2.448 0-1.495-.716-2.452-2.193-2.452-1.481 0-2.207.952-2.207 2.452 0 1.501.731 2.448 2.207 2.448ZM392.939 142.502c0 1.116-.659 1.693-1.534 1.986.164.091.303.226.423.399l1.741 2.568h-1.164a.533.533 0 0 1-.485-.259l-1.462-2.227c-.116-.164-.202-.231-.472-.231h-.553v2.717h-1.293v-6.954h2.12c1.559.019 2.679.505 2.679 2.001Zm-1.265.096c0-.784-.548-1.101-1.414-1.096h-.827v2.308h.808c.866-.015 1.433-.37 1.433-1.212ZM399.027 140.501v1.063h-2.092v5.891h-1.293v-5.891h-2.102v-1.063h5.487ZM407.819 147.455h-1a.442.442 0 0 1-.433-.293l-.52-1.419h-2.88l-.52 1.419a.473.473 0 0 1-.428.293h-1.005l2.732-6.954h1.322l2.732 6.954Zm-4.501-2.626h2.217c-.371-1.048-.784-2.039-1.111-3.13-.318 1.106-.741 2.077-1.106 3.13ZM413.542 142.718c0 1.582-1.067 2.265-2.698 2.289h-.971v2.448h-1.294v-6.954h2.265c1.621.019 2.698.645 2.698 2.217Zm-1.294 0c0-.846-.538-1.216-1.404-1.216h-.971v2.495h.971c.885-.004 1.404-.408 1.404-1.279ZM419.553 142.718c0 1.582-1.068 2.265-2.698 2.289h-.971v2.448h-1.294v-6.954h2.265c1.621.019 2.698.645 2.698 2.217Zm-1.294 0c0-.846-.538-1.216-1.404-1.216h-.971v2.495h.971c.885-.004 1.404-.408 1.404-1.279ZM369.03 158.016c.702 0 1.183-.337 1.159-1.015-.029-.841-.938-.889-1.602-1.115-.88-.303-1.63-.736-1.601-1.924.024-.957.577-1.534 1.308-1.827.606-.246 1.496-.212 2.102.024.346.129.639.307.885.538l-.318.611c-.072.192-.308.245-.505.12-.308-.197-.654-.418-1.183-.409-.635.015-1.077.26-1.077.876 0 .803.971.846 1.606 1.091.832.323 1.602.693 1.602 1.833 0 1.091-.578 1.75-1.39 2.082-.664.269-1.698.188-2.299-.077-.385-.168-.741-.385-1.01-.664l.375-.62c.111-.163.356-.207.553-.063.351.26.755.539 1.395.539ZM376.782 152.043v1.029H373.7v1.929h2.428v.995H373.7v1.967h3.082v1.034h-4.386v-6.954h4.386ZM382.746 154.044c0 1.116-.659 1.693-1.534 1.986.163.091.303.226.423.399l1.741 2.568h-1.164a.534.534 0 0 1-.486-.259l-1.462-2.227c-.115-.164-.202-.231-.471-.231h-.553v2.717h-1.294v-6.954h2.121c1.558.019 2.679.505 2.679 2.001Zm-1.265.096c0-.784-.548-1.101-1.414-1.096h-.827v2.308h.808c.866-.015 1.433-.37 1.433-1.212ZM383.52 152.043h1.043a.427.427 0 0 1 .433.293c.601 1.568 1.231 3.107 1.794 4.699.057.163.096.337.139.519a5.72 5.72 0 0 1 .274-.976l1.631-4.242a.472.472 0 0 1 .428-.293h1.043l-2.808 6.954h-1.169M392.489 158.997h-1.299v-6.954h1.299v6.954ZM399.525 157.992c-.548.673-1.327 1.097-2.525 1.082-1.669-.019-2.659-.875-3.121-2.126-.317-.856-.317-2.034.029-2.866.519-1.255 1.587-2.092 3.309-2.116 1.058-.014 1.803.38 2.346.904l-.432.601c-.077.154-.327.188-.491.058a2.09 2.09 0 0 0-1.433-.462c-1.462.053-2.236.967-2.236 2.453 0 1.159.485 1.929 1.284 2.294.601.279 1.587.188 2.039-.115.202-.082.466-.534.721-.26M404.887 152.043v1.029h-3.083v1.929h2.429v.995h-2.429v1.967h3.083v1.034h-4.386v-6.954h4.386ZM376.715 170.539h-1a.442.442 0 0 1-.433-.293l-.519-1.419h-2.881l-.519 1.419a.473.473 0 0 1-.428.293h-1.005l2.731-6.954h1.323l2.731 6.954Zm-4.501-2.626h2.217c-.37-1.048-.784-2.039-1.111-3.13-.317 1.106-.74 2.077-1.106 3.13ZM382.934 169.866c-.659.49-1.506.769-2.655.75-1.683-.024-2.722-.894-3.236-2.126-.352-.841-.342-2.019-.005-2.866.514-1.279 1.601-2.092 3.361-2.116 1.13-.009 1.943.375 2.53.909l-.375.587c-.217.375-.63.048-.847-.082-.529-.322-1.606-.433-2.279-.139-.823.356-1.323 1.12-1.323 2.279 0 1.207.505 1.991 1.361 2.352.693.298 1.732.178 2.294-.125v-1.265h-.87c-.423.01-.221-.601-.269-.971h2.313v2.813ZM388.527 163.585v1.029h-3.083v1.929h2.429v.995h-2.429v1.967h3.083v1.034h-4.386v-6.954h4.386ZM390.758 165.687a5.6 5.6 0 0 1 .029.582v4.27h-1.14v-6.954c.342.029.837-.115 1.015.096 1.294 1.539 2.496 3.179 3.747 4.761a5.207 5.207 0 0 1-.034-.63v-4.227h1.14v6.954c-.308-.019-.693.048-.924-.048a.543.543 0 0 1-.197-.173M401.819 163.585v1.063h-2.092v5.891h-1.293v-5.891h-2.102v-1.063h5.487Z" fill="#697986"/><path d="M381.586 106.442h8.667v3.69h-8.667v-3.69Zm10.485 4.939h-12.308c-.395 0-.649.228-.649.612 0 .351.254.611.649.611h12.314c.4 0 .649-.26.649-.611 0-.379-.249-.612-.649-.612h-.006Zm-24.049-8.662c0 1.38 1.11 2.473 2.468 2.473h30.865a2.467 2.467 0 0 0 2.467-2.473v-1.222h-35.789v1.222h-.011Zm17.898 0c.357 0 .611.255.611.639a.588.588 0 0 1-.611.611c-.357 0-.606-.254-.606-.611 0-.379.254-.639.611-.639h-.005Zm15.43-22.214h-30.866c-1.352 0-2.462 1.125-2.462 2.478v17.259h35.795v-17.26a2.477 2.477 0 0 0-2.462-2.472l-.005-.005Zm-18.649 12.103c-.109.13-.255.26-.466.26-.146 0-.395-.13-.503-.26-.254-.255-.254-.736 0-1.12l1.715-1.84-1.72-1.731c0-.124-.152-.249-.152-.509 0-.351.254-.735.649-.735.109 0 .358.13.466.254l2.359 2.472a.587.587 0 0 1 0 .866l-2.359 2.343h.011Zm8.018 1.477h-4.799c-.357 0-.758-.255-.758-.612 0-.378.26-.606.758-.606h4.799c.395 0 .757.217.757.606 0 .357-.26.612-.757.612Z" fill="#512FC9"/><g filter="url(#g)"><path d="M479.95 65.464a3.245 3.245 0 0 1 3.246-3.246h62.76a3.245 3.245 0 0 1 3.246 3.246v62.759a3.247 3.247 0 0 1-3.246 3.247h-62.76a3.245 3.245 0 0 1-3.246-3.247V65.464Z" fill="#fff"/></g><g filter="url(#h)"><path fill-rule="evenodd" clip-rule="evenodd" d="M483.196 62.76a2.704 2.704 0 0 0-2.705 2.704v62.759c0 .718.285 1.406.793 1.913a2.701 2.701 0 0 0 1.912.793h62.76c.717 0 1.405-.285 1.912-.793a2.702 2.702 0 0 0 .793-1.913V65.464a2.703 2.703 0 0 0-2.705-2.705h-62.76Zm-2.678.026a3.79 3.79 0 0 1 2.678-1.109h62.76a3.79 3.79 0 0 1 3.787 3.787v62.759a3.787 3.787 0 0 1-3.787 3.788h-62.76a3.787 3.787 0 0 1-3.787-3.788V65.464c0-1.004.399-1.968 1.109-2.678Z" fill="#BECACF"/></g><path d="M498.169 147.503c-.659.491-1.505.77-2.655.751-1.683-.024-2.722-.895-3.236-2.126-.351-.842-.342-2.02-.005-2.866.515-1.28 1.602-2.092 3.362-2.116 1.13-.01 1.943.375 2.529.909l-.375.586c-.216.375-.63.048-.846-.081-.529-.323-1.607-.433-2.28-.14-.822.356-1.322 1.121-1.322 2.28 0 1.207.505 1.991 1.361 2.351.692.298 1.731.178 2.294-.125v-1.265h-.871c-.423.01-.221-.601-.269-.971h2.313v2.813ZM504.219 143.223c0 1.116-.658 1.693-1.534 1.986.164.092.303.226.424.4l1.74 2.568h-1.163a.532.532 0 0 1-.486-.26l-1.462-2.227c-.115-.163-.202-.23-.471-.23h-.553v2.717h-1.294v-6.954h2.121c1.558.019 2.678.505 2.678 2Zm-1.264.096c0-.783-.549-1.101-1.414-1.096h-.827v2.308h.808c.865-.014 1.433-.37 1.433-1.212ZM511.789 148.177h-1.001a.444.444 0 0 1-.433-.294l-.519-1.418h-2.881l-.519 1.418a.472.472 0 0 1-.428.294h-1.005l2.732-6.954h1.322l2.732 6.954Zm-4.502-2.626h2.217c-.37-1.049-.784-2.039-1.111-3.131-.317 1.106-.74 2.078-1.106 3.131ZM516.891 141.223v1.029h-3.083v2.058h2.602v1.034h-2.602v2.833h-1.303v-6.954h4.386ZM523.311 148.177h-1a.444.444 0 0 1-.433-.294l-.519-1.418h-2.881l-.519 1.418a.473.473 0 0 1-.428.294h-1.006l2.732-6.954h1.322l2.732 6.954Zm-4.501-2.626h2.217c-.371-1.049-.784-2.039-1.111-3.131-.318 1.106-.741 2.078-1.106 3.131ZM525.138 143.324c.019.183.029.395.029.582v4.271h-1.14v-6.954c.342.029.837-.116 1.015.096 1.294 1.539 2.496 3.179 3.746 4.761a5.421 5.421 0 0 1-.033-.63v-4.227h1.139v6.954c-.307-.02-.692.048-.923-.048a.539.539 0 0 1-.197-.174M537.412 148.177h-1.001a.442.442 0 0 1-.432-.294l-.52-1.418h-2.881l-.519 1.418a.472.472 0 0 1-.428.294h-1.005l2.732-6.954h1.322l2.732 6.954Zm-4.502-2.626h2.217c-.37-1.049-.784-2.039-1.111-3.131-.317 1.106-.74 2.078-1.106 3.131Z" fill="#697986"/><path d="M534.496 92.462c-.081-.72-.162-1.586-.498-2.581-.216-.952-.627-2.002-1.168-3.138a20.115 20.115 0 0 0-2.164-3.354c-.341-.406-.758-.91-1.218-1.315.628-2.586-.79-4.761-.79-4.761-2.423-.14-4.003.725-4.598 1.223-.076 0-.163-.092-.282-.184-.422-.136-.838-.314-1.298-.455-.498-.178-.877-.27-1.374-.406-.46-.092-.958-.184-1.375-.227h-.216c-1.039-3.397-4.085-4.853-4.085-4.853-3.37 2.18-4.003 5.178-4.003 5.178v.135c-.163.092-.411.092-.579.179-.249.091-.46.135-.79.227a8.013 8.013 0 0 0-.795.324c-.498.27-1.045.487-1.542.72-.46.27-.963.595-1.418.909-.086 0-.086-.087-.086-.087-4.761-1.769-8.884.412-8.884.412-.417 4.988 1.839 8.212 2.294 8.753-.092.368-.217.682-.298 1.001-.335 1.136-.665 2.316-.833 3.539 0 .135-.081.324-.081.497-4.296 2.175-5.589 6.574-5.589 6.574 3.587 4.22 7.845 4.452 7.845 4.452.584.953 1.125 1.856 1.84 2.722.324.324.66.73.919 1.049-1.298 3.809.119 6.942.119 6.942 4.004.178 6.671-1.769 7.218-2.272.416.183.833.27 1.206.411 1.217.324 2.511.497 3.76.595h1.537c1.92 2.716 5.215 3.127 5.215 3.127 2.381-2.489 2.462-4.988 2.462-5.573v-.14c.498-.325.958-.725 1.461-1.136a17.499 17.499 0 0 0 2.456-2.906c.087-.086.162-.135.162-.314 2.76.174 4.599-1.688 4.599-1.688-.503-2.813-2.088-4.22-2.424-4.447h-.081v-3.408c-.081-.325-.081-.639-.162-.866-.292-1.223-.704-2.359-1.337-3.408a13.852 13.852 0 0 0-2.25-2.716c-.877-.812-1.84-1.364-2.878-1.861-1.045-.498-2.089-.725-3.214-.91-.541-.043-1.039-.043-1.58-.043h-.828c-.216 0-.541.044-.795.044a8.595 8.595 0 0 0-2.96 1.136c-.876.595-1.677 1.222-2.337 1.947a7.323 7.323 0 0 0-1.417 2.5c-.336.909-.503 1.77-.585 2.678v1.272c.082.41.163.908.249 1.27a8.564 8.564 0 0 0 1.045 2.181c.497.682 1.038 1.136 1.585 1.542a6.03 6.03 0 0 0 1.877.909c.622.135 1.169.227 1.84.227h1.017c.075 0 .162 0 .243-.092.125 0 .217-.086.379-.086.249-.044.498-.135.703-.314.255-.054.422-.227.671-.363.076 0 .076-.097.162-.189.206-.184.206-.498.082-.638-.163-.179-.417-.271-.585-.087-.081 0-.081.092-.162.092a3.502 3.502 0 0 1-.541.227c-.173.087-.422.087-.595.179h-1.239c-.509-.092-.882-.184-1.385-.406-.498-.184-.877-.503-1.299-.811-.368-.325-.703-.823-.952-1.234a4.145 4.145 0 0 1-.541-1.499c-.086-.27-.086-.595-.086-.811v-.411c0-.184 0-.325.086-.498a6.646 6.646 0 0 1 1.753-3.317c.249-.227.498-.362.703-.633l.839-.454c.292-.179.628-.27.876-.357.293-.054.628-.135.958-.135h.963c.287 0 .703.08 1.039.13.703.178 1.336.405 2.002.811 1.298.73 2.299 1.867 3.046 3.181.292.633.541 1.364.703 2.089 0 .135.092.405.092.54v1.315c0 .228 0 .363-.087.633 0 .13-.081.406-.081.541 0 .179-.081.406-.162.596-.087.4-.216.757-.379 1.136a26.59 26.59 0 0 1-1.212 2.126c-.963 1.315-2.256 2.451-3.76 3.084-.757.324-1.542.541-2.337.725-.417.092-.79.092-1.207.135h-1.217c-.876-.043-1.753-.227-2.543-.449a15.11 15.11 0 0 1-2.424-.963 13.705 13.705 0 0 1-4.003-3.311c-.541-.682-1.044-1.353-1.374-2.181a19.117 19.117 0 0 1-.958-2.445c-.216-.774-.379-1.677-.379-2.5V95.958c0-.411.081-.91.081-1.32.087-.406.163-.866.217-1.272.076-.406.162-.903.325-1.314.254-.769.595-1.586.881-2.403.747-1.536 1.623-2.9 2.76-3.95.2-.216.541-.54.865-.81.298-.228.628-.455.963-.634.292-.227.622-.41.958-.54.162-.098.335-.19.46-.271.081 0 .162-.054.249-.054.092 0 .173-.092.259-.092.325-.179.704-.27 1.039-.406.087 0 .162-.087.254-.087.082 0 .125-.092.206-.092.162-.043.417-.043.584-.135.081 0 .163-.092.336-.092.038 0 .124 0 .292-.087.076 0 .162 0 .325-.097h.335c.043 0 .124 0 .292-.043.087 0 .249 0 .336-.092h2.791c.704 0 1.461.092 2.164.227 1.385.27 2.635.72 3.842 1.31a11.55 11.55 0 0 1 3.138 2.088c.081.092.081.092.162.135l.162.178c.087.093.255.184.341.325.038.179.206.179.287.314.086.178.254.227.335.325.417.4.704.811 1.044 1.309.628.768 1.212 1.677 1.586 2.489 0 .097.081.097.081.14 0 .092.086.092.086.184.076.092.076.136.163.314.081.092.081.184.162.325.087.086.087.178.162.313.173.406.298.725.379 1.045.173.595.335 1.044.422 1.45.081.183.249.324.379.27.162 0 .324-.178.324-.362.341-.953.341-1.494.255-2.083h.032Z" fill="url(#i)"/><path fill-rule="evenodd" clip-rule="evenodd" d="M154.939 97.385H81.413v-1.082h73.526v1.082Z" fill="#697986"/><path d="M81.429 97.385h-.552v-1.082h.557l-.005 1.082Z" fill="#697986"/><path fill-rule="evenodd" clip-rule="evenodd" d="M80.863 96.29h.585l-.006 1.108h-.579V96.29Zm.027.026v1.055h.525l.005-1.055h-.53Z" fill="#697986"/><path d="m163.195 96.844-7.716 2.505v-5.01l7.716 2.505Z" fill="#697986"/><path fill-rule="evenodd" clip-rule="evenodd" d="m154.938 93.594 10.009 3.25-10.009 3.249v-6.499Zm1.083 1.49v3.52l5.422-1.76-5.422-1.76ZM245.29 96.303h104.922v1.082H245.29v-1.082Z" fill="#697986"/><path d="M350.753 97.385h-.552v-1.082h.557l-.005 1.082Z" fill="#697986"/><path fill-rule="evenodd" clip-rule="evenodd" d="M350.188 96.29h.584l-.006 1.108h-.578V96.29Zm.027.026v1.055h.524l.006-1.055h-.53Z" fill="#697986"/><path d="m237.034 96.844 7.715-2.505v5.01l-7.715-2.505Z" fill="#697986"/><path fill-rule="evenodd" clip-rule="evenodd" d="M245.29 93.594v6.499l-10.008-3.25 10.008-3.249Zm-6.504 3.25 5.422 1.76v-3.52l-5.422 1.76ZM469.4 97.385h-47.773v-1.082H469.4v1.082Z" fill="#697986"/><path d="M421.643 97.385h-.557v-1.082h.557v1.082Z" fill="#697986"/><path fill-rule="evenodd" clip-rule="evenodd" d="M421.073 96.29h.585v1.108h-.585V96.29Zm.027.026v1.055h.531v-1.055h-.531Z" fill="#697986"/><path d="m477.661 96.844-7.725 2.505v-5.01l7.725 2.505Z" fill="#697986"/><path fill-rule="evenodd" clip-rule="evenodd" d="m469.395 93.595 10.021 3.249-10.021 3.249v-6.498Zm1.082 1.488v3.522l5.43-1.761-5.43-1.76Z" fill="#697986"/><defs><filter id="a" x="1.079" y="56.218" width="89.252" height="89.251" filterUnits="userSpaceOnUse" color-interpolation-filters="sRGB"><feFlood flood-opacity="0" result="BackgroundImageFix"/><feColorMatrix in="SourceAlpha" values="0 0 0 0 0 0 0 0 0 0 0 0 0 0 0 0 0 0 127 0" result="hardAlpha"/><feOffset dy="4"/><feGaussianBlur stdDeviation="5"/><feColorMatrix values="0 0 0 0 0 0 0 0 0 0 0 0 0 0 0 0 0 0 0.0980392 0"/><feBlend in2="BackgroundImageFix" result="effect1_dropShadow_11948_6216"/><feBlend in="SourceGraphic" in2="effect1_dropShadow_11948_6216" result="shape"/></filter><filter id="b" x=".538" y="55.677" width="90.334" height="90.334" filterUnits="userSpaceOnUse" color-interpolation-filters="sRGB"><feFlood flood-opacity="0" result="BackgroundImageFix"/><feColorMatrix in="SourceAlpha" values="0 0 0 0 0 0 0 0 0 0 0 0 0 0 0 0 0 0 127 0" result="hardAlpha"/><feOffset dy="4"/><feGaussianBlur stdDeviation="5"/><feColorMatrix values="0 0 0 0 0 0 0 0 0 0 0 0 0 0 0 0 0 0 0.0980392 0"/><feBlend in2="BackgroundImageFix" result="effect1_dropShadow_11948_6216"/><feBlend in="SourceGraphic" in2="effect1_dropShadow_11948_6216" result="shape"/></filter><filter id="c" x="155.488" y="56.218" width="89.252" height="89.251" filterUnits="userSpaceOnUse" color-interpolation-filters="sRGB"><feFlood flood-opacity="0" result="BackgroundImageFix"/><feColorMatrix in="SourceAlpha" values="0 0 0 0 0 0 0 0 0 0 0 0 0 0 0 0 0 0 127 0" result="hardAlpha"/><feOffset dy="4"/><feGaussianBlur stdDeviation="5"/><feColorMatrix values="0 0 0 0 0.0311419 0 0 0 0 0.01807 0 0 0 0 0.077278 0 0 0 0.0980392 0"/><feBlend in2="BackgroundImageFix" result="effect1_dropShadow_11948_6216"/><feBlend in="SourceGraphic" in2="effect1_dropShadow_11948_6216" result="shape"/></filter><filter id="d" x="154.947" y="55.677" width="90.334" height="90.334" filterUnits="userSpaceOnUse" color-interpolation-filters="sRGB"><feFlood flood-opacity="0" result="BackgroundImageFix"/><feColorMatrix in="SourceAlpha" values="0 0 0 0 0 0 0 0 0 0 0 0 0 0 0 0 0 0 127 0" result="hardAlpha"/><feOffset dy="4"/><feGaussianBlur stdDeviation="5"/><feColorMatrix values="0 0 0 0 0.0311419 0 0 0 0 0.01807 0 0 0 0 0.077278 0 0 0 0.0980392 0"/><feBlend in2="BackgroundImageFix" result="effect1_dropShadow_11948_6216"/><feBlend in="SourceGraphic" in2="effect1_dropShadow_11948_6216" result="shape"/></filter><filter id="e" x="341.294" y="56.218" width="89.252" height="89.251" filterUnits="userSpaceOnUse" color-interpolation-filters="sRGB"><feFlood flood-opacity="0" result="BackgroundImageFix"/><feColorMatrix in="SourceAlpha" values="0 0 0 0 0 0 0 0 0 0 0 0 0 0 0 0 0 0 127 0" result="hardAlpha"/><feOffset dy="4"/><feGaussianBlur stdDeviation="5"/><feColorMatrix values="0 0 0 0 0.0311419 0 0 0 0 0.01807 0 0 0 0 0.077278 0 0 0 0.0980392 0"/><feBlend in2="BackgroundImageFix" result="effect1_dropShadow_11948_6216"/><feBlend in="SourceGraphic" in2="effect1_dropShadow_11948_6216" result="shape"/></filter><filter id="f" x="340.753" y="55.677" width="90.334" height="90.334" filterUnits="userSpaceOnUse" color-interpolation-filters="sRGB"><feFlood flood-opacity="0" result="BackgroundImageFix"/><feColorMatrix in="SourceAlpha" values="0 0 0 0 0 0 0 0 0 0 0 0 0 0 0 0 0 0 127 0" result="hardAlpha"/><feOffset dy="4"/><feGaussianBlur stdDeviation="5"/><feColorMatrix values="0 0 0 0 0.0311419 0 0 0 0 0.01807 0 0 0 0 0.077278 0 0 0 0.0980392 0"/><feBlend in2="BackgroundImageFix" result="effect1_dropShadow_11948_6216"/><feBlend in="SourceGraphic" in2="effect1_dropShadow_11948_6216" result="shape"/></filter><filter id="g" x="469.95" y="56.218" width="89.252" height="89.251" filterUnits="userSpaceOnUse" color-interpolation-filters="sRGB"><feFlood flood-opacity="0" result="BackgroundImageFix"/><feColorMatrix in="SourceAlpha" values="0 0 0 0 0 0 0 0 0 0 0 0 0 0 0 0 0 0 127 0" result="hardAlpha"/><feOffset dy="4"/><feGaussianBlur stdDeviation="5"/><feColorMatrix values="0 0 0 0 0 0 0 0 0 0 0 0 0 0 0 0 0 0 0.0980392 0"/><feBlend in2="BackgroundImageFix" result="effect1_dropShadow_11948_6216"/><feBlend in="SourceGraphic" in2="effect1_dropShadow_11948_6216" result="shape"/></filter><filter id="h" x="469.409" y="55.677" width="90.334" height="90.334" filterUnits="userSpaceOnUse" color-interpolation-filters="sRGB"><feFlood flood-opacity="0" result="BackgroundImageFix"/><feColorMatrix in="SourceAlpha" values="0 0 0 0 0 0 0 0 0 0 0 0 0 0 0 0 0 0 127 0" result="hardAlpha"/><feOffset dy="4"/><feGaussianBlur stdDeviation="5"/><feColorMatrix values="0 0 0 0 0 0 0 0 0 0 0 0 0 0 0 0 0 0 0.0980392 0"/><feBlend in2="BackgroundImageFix" result="effect1_dropShadow_11948_6216"/><feBlend in="SourceGraphic" in2="effect1_dropShadow_11948_6216" result="shape"/></filter><linearGradient id="i" x1="513.813" y1="130.463" x2="513.813" y2="77.345" gradientUnits="userSpaceOnUse"><stop stop-color="#FFF100"/><stop offset="1" stop-color="#F05A28"/></linearGradient></defs></svg>