<svg xmlns="http://www.w3.org/2000/svg" width="72" height="72" fill="none" viewBox="0 0 72 72"><path fill="#fff" d="M18.112 35.962 11.36 24.103l7.169-12.25 13.53.079L39.04 0l14.194.083 7.025 12.335-6.807 11.632 6.816 11.969-6.913 11.813 6.788 11.917L52.974 72l-14.194-.083-6.728-11.814-13.777-.081-7.025-12.334z"/><path fill="#c12766" d="m52.303 46.7-12.4-.038-6.167-10.758 6.234-10.72 12.4.039 6.167 10.758z"/><path fill="#3e489f" d="m31.616 58.393-12.4-.038-6.167-10.758 6.233-10.72 12.4.038 6.167 10.759z"/><path fill="#714099" d="m52.303 70.535-12.4-.038-6.167-10.758 6.234-10.72 12.4.038 6.167 10.759z"/><path fill="#78932c" d="m31.616 35.008-12.4-.039-6.167-10.758 6.233-10.72 12.4.04 6.167 10.757z"/><path fill="#cf242a" d="m52.303 23.315-12.4-.038-6.167-10.759 6.234-10.72 12.4.04 6.167 10.758z"/><path fill="#fff" fill-rule="evenodd" d="M46.778 15.3a2.72 2.72 0 1 0-2.995-1.786l-16.025 9.058a2.72 2.72 0 1 0-2.566 4.414v18.026a2.72 2.72 0 1 0 2.562 4.42l16.057 9.424a2.72 2.72 0 1 0 2.967-1.709V38.686a2.72 2.72 0 0 0 0-5.373zm-.899 41.855V38.678a2.72 2.72 0 0 1-1.661-.991L28.21 46.735a2.7 2.7 0 0 1-.002 1.92l16.061 9.427a2.72 2.72 0 0 1 1.61-.927m0-41.862a2.72 2.72 0 0 1-1.661-.991L28.21 23.349a2.7 2.7 0 0 1 .013 1.878l16.019 9.054a2.7 2.7 0 0 1 1.637-.961zm-19.788 11.7a2.72 2.72 0 0 0 1.691-.982l16.014 9.051a2.7 2.7 0 0 0-.013 1.838L27.76 45.957c-.413-.498-1-.847-1.668-.952z" clip-rule="evenodd"/></svg>