<svg xmlns="http://www.w3.org/2000/svg" width="72" height="72" fill="none" viewBox="0 0 72 72"><path fill="#000" d="M0 41.769h2.67l1.053-2.813h4.866l1.06 2.813h2.83L7.862 30H4.616zm4.465-4.958 1.67-4.449h.016l1.686 4.449zm12.758 4.958h4.357q.96 0 1.82-.142a7.4 7.4 0 0 0 1.602-.443q.742-.308 1.336-.776a4.5 4.5 0 0 0 1.01-1.118q.417-.651.642-1.494t.226-1.887v-.016a7.5 7.5 0 0 0-.226-1.92 5.3 5.3 0 0 0-.642-1.502 4.5 4.5 0 0 0-1.01-1.127 5.4 5.4 0 0 0-1.336-.768 7 7 0 0 0-1.602-.434A11 11 0 0 0 21.58 30h-4.357zm2.63-2.137v-7.495h1.685q.626 0 1.16.083.535.084.969.267.434.184.768.484.342.293.567.71.226.416.343.968.116.55.116 1.244v.016q0 .693-.116 1.244a3.6 3.6 0 0 1-.343.96q-.226.409-.567.701a2.8 2.8 0 0 1-.768.476q-.434.175-.969.259a7.5 7.5 0 0 1-1.16.083zm13.717 2.137h8.656V39.59H36.2v-2.67h5.4v-2.17h-5.4v-2.572h5.984V30h-8.613zm14.115 0h2.63v-4.065h2.253q1.202 0 2.12-.225.927-.226 1.552-.693.627-.476.952-1.202t.325-1.72v-.016q0-.993-.333-1.72a2.96 2.96 0 0 0-.96-1.193q-.634-.476-1.561-.701Q53.736 30 52.535 30h-4.85zm2.63-6.202v-3.43h2.178q.585 0 1.01.1t.7.317q.275.21.41.534.142.318.142.76v.017q0 .441-.142.767-.134.318-.41.526-.275.21-.7.309-.426.1-1.01.1zm15.066 6.202h2.63v-9.59H72V30H61.392v2.178h3.99z"/></svg>