<svg xmlns="http://www.w3.org/2000/svg" width="72" height="72" fill="none" viewBox="0 0 72 72"><g clip-path="url(#a)"><path fill="#eb1000" d="M12.75.902h46.5C66.3.902 72 6.602 72 13.652v44.7c0 7.05-5.7 12.75-12.75 12.75h-46.5C5.7 71.102 0 65.402 0 58.352v-44.7C0 6.602 5.7.902 12.75.902"/><path fill="#fff" d="M55.98 53.702h-8.55c-.75 0-1.44-.42-1.74-1.14l-9.27-21.72c-.06-.21-.3-.33-.51-.27-.12.03-.24.15-.27.27l-5.79 13.77c-.12.24 0 .54.27.63.06.03.12.03.18.03h6.36c.39 0 .75.24.9.6l2.79 6.21c.24.57-.03 1.26-.6 1.5q-.225.09-.45.09H16.11c-.57 0-1.05-.48-1.05-1.05 0-.15.03-.27.09-.42l14.73-35.07c.3-.75 1.05-1.26 1.86-1.23h8.49c.81 0 1.56.48 1.86 1.23l14.85 35.07c.24.54-.03 1.17-.54 1.38-.15.06-.27.09-.42.12"/></g><defs><clipPath id="a"><path fill="#fff" d="M0 .002h72v72H0z"/></clipPath></defs></svg>