<svg xmlns="http://www.w3.org/2000/svg" width="72" height="72" fill="none" viewBox="0 0 72 72"><path fill="#fff" d="M64.589 16.487A26.56 26.56 0 0 0 44.985 8c-7.252 0-14.623 3.108-19.365 8.129-.876-.08-1.753-.16-2.59-.16C8.806 15.97 0 27.923 0 39c.04 5.978 2.35 11.715 6.455 16.098A22.7 22.7 0 0 0 23.03 62.27h21.955C59.887 62.27 72 50.037 72 35.055a27.73 27.73 0 0 0-7.411-18.568M22.592 58.365c-10.559 0-19.086-8.567-19.086-19.126 0-10.48 8.487-19.006 19.006-19.086 4.662 0 9.205 1.713 12.671 4.821l.08.08 7.929 8.128a3.403 3.403 0 0 1-.08 4.822 3.403 3.403 0 0 1-4.82-.08l-7.81-8.049c-5.1-4.383-12.79-3.825-17.174 1.275-1.912 2.192-2.948 5.02-2.948 7.93 0 6.694 5.698 12.352 12.431 12.352h1.554v.04c2.232 3.107 8.487 6.892 8.487 6.892zM61.72 51.51c-4.264 4.463-10.16 6.973-16.336 7.013-5.858 0-11.834-2.63-16.417-7.172l-10.44-10.52a3.44 3.44 0 0 1 .04-4.82c.638-.638 1.475-.957 2.392-.957s1.793.359 2.43 1.036l10.4 10.4c3.307 3.307 7.53 5.18 11.594 5.18a15.7 15.7 0 0 0 11.477-4.98 16.85 16.85 0 0 0 4.781-11.754c0-9.005-7.331-16.297-16.336-16.337-3.427 0-6.256.677-9.045 2.63-.04-.04-.797-.518-1.634-1.036a21 21 0 0 0-1.554-.877c-.478-.278-1.912-.956-2.749-1.314-.2-.08-.478-.2-.598-.24h.04c4.304-4.024 9.643-5.976 15.54-5.976 12.79 0 23.11 10.36 23.15 23.15 0 6.176-2.39 12.152-6.734 16.575"/></svg>