<svg xmlns="http://www.w3.org/2000/svg" width="72" height="72" fill="none" viewBox="0 0 72 72"><path fill="#fcb400" d="M32.15 6.645 5.308 17.753c-1.493.617-1.477 2.738.025 3.333l26.955 10.69c2.369.94 5.006.94 7.374 0l26.956-10.69c1.502-.595 1.518-2.715.025-3.333L39.799 6.645a10 10 0 0 0-7.649 0"/><path fill="#18bfff" d="M38.366 37.612v26.704c0 1.27 1.28 2.14 2.462 1.672l30.036-11.659A1.8 1.8 0 0 0 72 52.657V25.955c0-1.27-1.28-2.14-2.46-1.672L39.501 35.941a1.8 1.8 0 0 0-1.136 1.671"/><path fill="#f82b60" d="m31.352 38.99-8.914 4.304-.905.438-18.818 9.016C1.523 53.324 0 52.454 0 51.129V26.066c0-.48.246-.894.575-1.205q.206-.203.456-.342c.45-.27 1.09-.342 1.636-.126L31.202 35.7c1.45.576 1.564 2.608.15 3.291"/><path fill="#000" fill-opacity=".25" d="m31.353 38.99-8.915 4.304L.576 24.861q.204-.203.456-.342c.45-.27 1.09-.342 1.636-.126L31.203 35.7c1.45.576 1.564 2.608.15 3.291"/></svg>