<svg xmlns="http://www.w3.org/2000/svg" width="72" height="72" fill="none" viewBox="0 0 72 72"><g clip-path="url(#a)"><path fill="#fff" d="M35.999 0C16.326 0 .288 15.852.004 35.446c-.288 19.9 15.868 36.389 35.783 36.504 6.15.036 12.074-1.467 17.335-4.324a.842.842 0 0 0 .156-1.37l-3.37-2.983a2.38 2.38 0 0 0-2.5-.42 29.1 29.1 0 0 1-11.775 2.307C19.54 64.963 6.539 51.584 6.795 35.503 7.049 19.625 20.052 6.787 35.999 6.787h29.207v51.88L48.635 43.954a1.22 1.22 0 0 0-1.79.188c-2.66 3.52-6.993 5.708-11.806 5.377-6.676-.46-12.085-5.832-12.585-12.5-.598-7.955 5.71-14.62 13.545-14.62 7.087 0 12.923 5.451 13.532 12.377a2.42 2.42 0 0 0 .796 1.602l4.315 3.823a.843.843 0 0 0 1.388-.475c.311-1.663.42-3.396.298-5.173-.694-10.129-8.905-18.278-19.045-18.901-11.626-.716-21.345 8.372-21.653 19.764-.302 11.102 8.801 20.673 19.912 20.917a20.27 20.27 0 0 0 12.413-3.88l21.652 19.18c.927.823 2.393.164 2.393-1.075V1.366C72 .61 71.389 0 70.634 0z"/></g><defs><clipPath id="a"><path fill="#fff" d="M0 0h72v72H0z"/></clipPath></defs></svg>