<svg width="72" height="72" viewBox="0 0 72 72" fill="none" xmlns="http://www.w3.org/2000/svg">
<g clip-path="url(#clip0_15935_6723)">
<path d="M35.999 0C16.3256 0 0.287666 15.8515 0.0037966 35.4456C-0.284396 55.345 15.8717 71.8344 35.7872 71.9496C41.9372 71.9856 47.861 70.4822 53.122 67.6253C53.6349 67.3474 53.7142 66.6418 53.2776 66.2558L49.9086 63.2722C49.2242 62.6659 48.2501 62.4946 47.4071 62.8517C43.7355 64.4126 39.7455 65.2104 35.633 65.16C19.5404 64.9627 6.53856 51.5822 6.79505 35.5018C7.04866 19.6243 20.0519 6.78672 35.999 6.78672H65.2059V58.667L48.6348 43.9531C48.0988 43.4765 47.2774 43.5701 46.8451 44.1418C44.1851 47.6611 39.8522 49.8499 35.0393 49.5187C28.3634 49.0579 22.954 43.6867 22.454 37.0181C21.856 29.0635 28.1645 22.3992 35.999 22.3992C43.0857 22.3992 48.9216 27.8496 49.5311 34.776C49.5858 35.3923 49.864 35.9669 50.3265 36.3773L54.6422 40.2005C55.1321 40.6339 55.9088 40.369 56.0298 39.7253C56.3411 38.0621 56.4506 36.3298 56.3281 34.5528C55.6336 24.4238 47.423 16.2749 37.2829 15.6514C25.6572 14.9357 15.938 24.0235 15.6296 35.4154C15.3284 46.5178 24.431 56.088 35.5422 56.3328C40.1807 56.435 44.4805 54.9778 47.9547 52.452L69.6066 71.6328C70.5345 72.455 72 71.797 72 70.5571V1.36512C72 0.61056 71.389 0 70.634 0H35.999Z" fill="#003DFF"/>
</g>
<defs>
<clipPath id="clip0_15935_6723">
<rect width="72" height="72" fill="white"/>
</clipPath>
</defs>
</svg>
