<svg xmlns="http://www.w3.org/2000/svg" width="72" height="72" fill="none" viewBox="0 0 72 72"><g clip-path="url(#a)"><path fill="#fff" d="m31.851 34.419 14.058 11.085-9.306-22.986zM36 0C16.113 0 0 16.113 0 36s16.113 36 36 36 36-16.113 36-36S55.887 0 36 0m17.391 51.915a2.554 2.554 0 0 1-2.625 2.49c-.708 0-1.248-.27-1.992-.879l-18.57-15-6.237 15.609h-5.394L34.314 16.32a2.37 2.37 0 0 1 2.292-1.518 2.27 2.27 0 0 1 2.226 1.518l14.322 34.482c.135.333.24.702.24 1.044z"/></g><defs><clipPath id="a"><path fill="#fff" d="M0 0h72v72H0z"/></clipPath></defs></svg>