<svg xmlns="http://www.w3.org/2000/svg" width="72" height="72" fill="none" viewBox="0 0 72 72"><g clip-path="url(#a)"><path fill="#009de1" d="M72 51.97H51.956L51.96 72H20.054V51.97H0V20.03h20.053V0h31.903v20.03H72z"/><path fill="#fff" fill-rule="evenodd" d="M31.43 27.634H18.154a19.9 19.9 0 0 1 3.967-5.681 19.7 19.7 0 0 1 13.976-5.792c4.27 0 10.355 2.605 13.621 5.429 2.465 2.124 2.912 2.95 4.347 6.053H40.452c-1.317 0-2.38-.388-2.988-1.02-.793-.81-.852-2.007.236-3.33 1.908-2.344.245-4.426-1.764-4.51-2.017-.076-3.67 2.166-1.755 4.51 1.08 1.323 1.021 2.529.236 3.33-.616.64-1.67 1.02-2.987 1.011m-1.848 12.758a6970 6970 0 0 0-5.85 10.913c-4.515-3.624-7.4-9.18-7.4-15.401 0-2.352.413-4.637 1.164-6.727 3.063.07 5.916.381 8.266.638 1.346.147 2.528.276 3.49.331 2.827.169 4.92 1.67 3.005 5.26zm8.11-1.732c.49.835 9.376 13.674 9.376 13.674-3.13 2.09-6.819 3.313-10.971 3.313s-8.001-1.265-11.183-3.457c1.663-2.41 8.82-12.796 9.258-13.53.498-.834.92-1.34 1.756-1.34.835 0 1.257.514 1.764 1.34m16.989-9.517a19.7 19.7 0 0 1 1.181 6.76v.01c0 6.339-2.996 11.978-7.654 15.595-.254-.506-6.676-12.519-8.609-16.102-1.907-3.582.177-5.091 3.022-5.26.955-.056 2.129-.189 3.466-.34 2.431-.274 5.404-.608 8.594-.663m-31.785-4.09h9.106c0-.575-.274-.976-.575-1.419-.534-.78-1.155-1.691-.514-3.925-3.089.666-6.009 2.672-8.017 5.345m18.052-5.344c3.097.666 5.73 3.052 8.026 5.345H39.86c0-.572.273-.97.574-1.41.533-.781 1.157-1.693.515-3.935m-12.11 31.646s6.514-10.276 7.097-10.276c.582 0 7.106 10.276 7.106 10.276-1.924 1.003-4.355 1.5-7.106 1.5s-5.182-.505-7.098-1.5M42.87 32.818v-.009c.591 0 9.782-.75 9.782-.75 1.164 6.508-.76 11.186-3.764 14.938 0 0-6.102-11.516-6.76-12.763-.675-1.256-.001-1.332.741-1.416m-23.647-.75s9.191.75 9.773.75v.008c.76.076 1.418.16.76 1.416-.675 1.248-6.777 12.763-6.777 12.763-3.004-3.751-4.929-8.43-3.756-14.938" clip-rule="evenodd"/></g><defs><clipPath id="a"><path fill="#fff" d="M0 0h72v72H0z"/></clipPath></defs></svg>