<svg xmlns="http://www.w3.org/2000/svg" width="72" height="72" fill="none" viewBox="0 0 72 72"><path fill="#000" d="M0 65.62 35.927 6.25 72 65.75H60.974L35.927 23.64l-19.52 32.95q.243 0 .484.003c.403.003.805.006 1.208-.01.425-.014.85-.058 1.26-.138 2.738-.544 4.597-2.666 6.018-4.903 1.745-2.759 3.398-5.58 5.05-8.402a463 463 0 0 1 3.091-5.226l2.394-3.82 5.404 8.978-4.188 6.974q-.674 1.124-1.345 2.25a573 573 0 0 1-3.568 5.922c-1.42 2.317-3.243 4.227-5.652 5.542a15.3 15.3 0 0 1-7.322 1.86zm47.7-50.413h10.154l-4.883 8.949z"/></svg>