<svg width="72" height="72" viewBox="0 0 72 72" fill="none" xmlns="http://www.w3.org/2000/svg">
<g clip-path="url(#clip0_6722_31908)">
<g filter="url(#filter0_d_6722_31908)">
<path opacity="0.9" d="M66.4629 30.4887L66.4593 31.3626V31.3714L66.4537 33.4844L37.2133 16.9235L27.8193 11.6002L25.6777 10.388L25.6868 7.39062L27.8356 8.60642L31.9655 10.9467L33.3498 9.89381L33.3754 9.90813L36.9488 11.9243L37.0584 11.987L41.0475 14.2359L41.0622 14.2681L42.2224 16.7552L42.8297 17.1008V17.0972L41.7499 14.7265C41.7335 14.6889 41.739 14.6603 41.7589 14.6531C41.7646 14.6495 41.7717 14.6495 41.781 14.6531C41.7845 14.6531 41.79 14.6567 41.7938 14.6585L44.8763 16.4061L46.1679 18.9916L66.4665 30.4887H66.4629Z" fill="#C9D7DD"/>
<path opacity="0.9" d="M37.2073 16.9237L37.1361 41.8231L25.9052 35.4577C25.7374 35.3629 25.6006 35.1301 25.6006 34.9403L25.6717 10.3882L37.2092 16.9237H37.2073Z" fill="#EDF1F3"/>
<path opacity="0.9" d="M66.4444 33.4845L66.3787 56.271L66.3732 58.0491C66.3732 58.1117 66.3587 58.1637 66.3312 58.1994C66.3184 58.2175 66.302 58.2318 66.2838 58.2425C66.2292 58.2746 66.1526 58.2693 66.0686 58.2211L37.1328 41.8212V41.816L37.1383 39.6923L37.204 16.9219H37.2075L66.4444 33.4827V33.4845Z" fill="white"/>
<path opacity="0.9" d="M66.4718 28.0501V28.3652L66.4663 30.4889L46.1678 18.9918L44.8762 16.408L41.7953 14.6604C41.7953 14.6604 41.7862 14.655 41.7808 14.655C41.7716 14.6515 41.7661 14.6515 41.7587 14.655C41.7407 14.6622 41.735 14.6927 41.7516 14.7267L42.8314 17.0992H42.8278L42.2222 16.7536L41.0912 14.2844L41.062 14.2683L37.0582 11.9871L36.9486 11.9245L33.3916 9.89756L33.3753 9.9101L31.967 10.9486L27.8355 8.60837L25.6885 7.39257L25.6958 4.94131C25.6958 4.83029 25.7433 4.75867 25.8161 4.73719C25.8673 4.72107 25.9328 4.73181 26.0023 4.7712L27.8445 5.8151L47.855 17.1564H47.8586L66.1691 27.5363C66.3387 27.633 66.4755 27.8639 66.4736 28.0537L66.4718 28.0501Z" fill="#6E17FF"/>
<g opacity="0.7">
<path opacity="0.7" d="M66.4718 28.0501V28.3652L66.4663 30.4889L46.1678 18.9918L44.8762 16.408L41.7953 14.6604C41.7953 14.6604 41.7862 14.655 41.7808 14.655C41.7716 14.6515 41.7661 14.6515 41.7587 14.655C41.7407 14.6622 41.735 14.6927 41.7516 14.7267L42.8314 17.0992H42.8278L42.2222 16.7536L41.0912 14.2844L41.062 14.2683L37.0582 11.9871L36.9486 11.9245L33.3916 9.89756L33.3753 9.9101L31.967 10.9486L27.8355 8.60837L25.6885 7.39257L25.6958 4.94131C25.6958 4.83029 25.7433 4.75867 25.8161 4.73719C25.8673 4.72107 25.9328 4.73181 26.0023 4.7712L27.8445 5.8151L47.855 17.1564H47.8586L66.1691 27.5363C66.3387 27.633 66.4755 27.8639 66.4736 28.0537L66.4718 28.0501Z" fill="url(#paint0_linear_6722_31908)"/>
</g>
<path opacity="0.9" d="M33.6308 22.9492L33.5723 22.9186V22.915L33.6308 22.9492Z" fill="#7808FF"/>
<g opacity="0.9">
<path opacity="0.9" d="M27.0076 6.45451C27.2246 6.57806 27.3997 6.87529 27.3997 7.1206C27.3997 7.36591 27.2227 7.4626 27.0057 7.34084C26.7886 7.21908 26.6136 6.92006 26.6152 6.67654C26.6171 6.43303 26.7922 6.33276 27.0093 6.4563L27.0076 6.45451Z" fill="white"/>
<path opacity="0.9" d="M28.1109 7.07414C28.3279 7.19769 28.503 7.49492 28.503 7.74022C28.503 7.98553 28.326 8.08223 28.109 7.96046C27.8919 7.83871 27.7169 7.53969 27.7188 7.29617C27.7204 7.05266 27.8957 6.95238 28.1128 7.07593L28.1109 7.07414Z" fill="white"/>
<path opacity="0.9" d="M29.2496 7.76165C29.4668 7.88521 29.6419 8.18242 29.6419 8.42772C29.6419 8.67303 29.4649 8.76974 29.2479 8.64796C29.0308 8.52622 28.8555 8.2272 28.8574 7.98368C28.8593 7.74016 29.0344 7.63988 29.2514 7.76344L29.2496 7.76165Z" fill="white"/>
</g>
<path opacity="0.9" d="M43.758 16.3418C44.0462 16.5047 44.2779 16.9004 44.276 17.2245C44.276 17.5486 44.0407 17.6793 43.7544 17.5164C43.4681 17.3534 43.2347 16.9595 43.2363 16.6354C43.2363 16.3113 43.4698 16.1806 43.758 16.3436V16.3418Z" fill="#7808FF"/>
<path opacity="0.9" d="M62.9642 29.1945C63.112 29.2786 63.2306 29.481 63.2306 29.6474L63.2268 30.8257C63.2268 30.9922 63.1065 31.0602 62.9588 30.976L30.9549 12.8377C30.8071 12.7536 30.6885 12.5512 30.6885 12.3847L30.692 11.2065C30.692 11.04 30.8125 10.972 30.9603 11.0561L62.9642 29.1945Z" fill="white"/>
<path opacity="0.9" d="M62.2366 29.1802C62.2366 29.1802 62.242 29.1855 62.2437 29.1891L62.3514 29.6261L62.3587 29.6349L62.7089 29.8337C62.7089 29.8337 62.7181 29.848 62.7126 29.8499L62.4299 29.9214V29.9286L62.5338 30.3637C62.5338 30.3637 62.5319 30.3728 62.5265 30.3709C62.5265 30.3709 62.5248 30.3692 62.5229 30.3673L62.242 29.9752L62.2328 29.9697L61.95 30.0415C61.95 30.0415 61.9484 30.0415 61.9465 30.0415C61.9427 30.0396 61.9391 30.0325 61.941 30.027L62.0504 29.7138V29.7029L61.7659 29.3108C61.7659 29.3108 61.7641 29.2949 61.7695 29.2984L62.1196 29.497H62.127L62.2366 29.1819C62.2366 29.1819 62.2401 29.1783 62.242 29.1802H62.2366Z" fill="#6E17FF"/>
<g opacity="0.9">
<path opacity="0.9" d="M65.5124 30.9009V30.9851L64.29 30.2922V30.208L65.5124 30.9009Z" fill="#7808FF"/>
<path opacity="0.9" d="M65.5124 31.2842V31.3703L64.29 30.6774V30.5913L65.5124 31.2842Z" fill="#7808FF"/>
<path opacity="0.9" d="M65.5124 31.669V31.7532L64.29 31.0621V30.9761L65.5124 31.669Z" fill="#7808FF"/>
<path opacity="0.9" d="M65.5124 32.0538V32.1379L64.29 31.445V31.3608L65.5124 32.0538Z" fill="#7808FF"/>
</g>
<g opacity="0.9">
<path opacity="0.9" d="M26.6721 8.90565C26.6885 8.91461 26.7049 8.93073 26.7177 8.95042C26.7488 8.99518 26.7523 9.0507 26.7267 9.0686L26.4276 9.296L27.3854 9.83854C27.4255 9.86002 27.4564 9.91554 27.4564 9.96029C27.4564 10.0051 27.4236 10.023 27.3854 9.99969L26.4385 9.46253L26.7231 9.97282C26.7488 10.0194 26.7469 10.0695 26.7177 10.0838C26.7032 10.0892 26.6866 10.0874 26.6702 10.0785C26.652 10.0677 26.632 10.0462 26.6173 10.0212L26.2269 9.32285L26.2215 9.3121C26.2124 9.2942 26.207 9.2781 26.2051 9.26376C26.2051 9.25303 26.2051 9.24229 26.2051 9.23332L26.2089 9.22079L26.216 9.21004L26.2198 9.20647L26.6173 8.90208C26.632 8.89133 26.652 8.89312 26.6721 8.90565Z" fill="white"/>
<path opacity="0.9" d="M26.2031 9.26758C26.2031 9.26758 26.2048 9.28194 26.2086 9.28914C26.2122 9.2981 26.2159 9.30708 26.2214 9.31607C26.2121 9.2981 26.2067 9.28194 26.2048 9.26758H26.2031Z" fill="white"/>
</g>
<g opacity="0.9">
<path opacity="0.9" d="M28.8974 10.1391C28.9176 10.1498 28.9375 10.1713 28.9522 10.1982L29.3481 10.952L29.3517 10.9609L29.359 10.9806L29.3626 10.9985C29.3645 11.0111 29.3645 11.0218 29.3626 11.029L29.359 11.0415L29.3536 11.0523L29.3462 11.0594L28.9468 11.3208C28.9321 11.3298 28.914 11.328 28.8939 11.3173C28.8756 11.3065 28.8592 11.2904 28.8464 11.2689C28.8173 11.2224 28.8154 11.1704 28.8429 11.1525L29.1292 10.9663L28.1825 10.4292C28.1424 10.4059 28.1113 10.3522 28.1113 10.3074C28.1113 10.2626 28.1424 10.2447 28.1825 10.268L29.1382 10.8105L28.8429 10.2465C28.8173 10.1982 28.8227 10.1498 28.8519 10.1373C28.8647 10.1319 28.8811 10.1355 28.8974 10.1445V10.1391Z" fill="white"/>
<path opacity="0.9" d="M29.357 11.0396L29.3551 11.0431L29.3516 11.0501L29.357 11.0396Z" fill="white"/>
</g>
<path opacity="0.9" d="M26.1596 19.2407L26.207 19.3141L26.1705 19.341L26.123 19.2694L26.1596 19.2407Z" fill="#7808FF"/>
<path opacity="0.9" d="M37.073 12.7838C37.3484 12.9395 37.5711 13.3174 37.5692 13.6271C37.5674 13.9369 37.3448 14.0622 37.0694 13.9064L34.1271 12.2394C33.8517 12.0837 33.6292 11.7059 33.6309 11.3961C33.6309 11.0863 33.8553 10.961 34.1307 11.1168L37.073 12.7838Z" fill="#6E17FF"/>
<path opacity="0.9" d="M47.8532 17.1529L27.8428 5.81335L26.0004 4.76946C25.9293 4.73007 25.8655 4.71932 25.8145 4.73544L27.9467 3.83658C28.0015 3.81151 28.0744 3.81689 28.1529 3.86344L68.3196 26.6268C68.4876 26.7233 68.6242 26.9544 68.6242 27.1442L68.6171 29.583H68.6152L66.4646 30.4889L66.4701 28.3671V28.0502C66.4718 27.8604 66.3351 27.6295 66.1653 27.5327L47.8551 17.1547" fill="#562ED0"/>
<path d="M68.5135 32.6045L68.4423 57.1691C68.4423 57.2659 68.4058 57.332 68.3493 57.3624H68.3474L68.3292 57.3696L66.2315 58.2542C66.2315 58.2542 66.2424 58.2435 66.246 58.238C66.2716 58.2023 66.288 58.1502 66.288 58.0877V58.0751C66.288 58.1395 66.2716 58.1897 66.246 58.2256C66.2332 58.2435 66.2152 58.2596 66.1986 58.2684L66.2315 58.2542C66.2206 58.2649 66.2114 58.2739 66.1986 58.2793C66.144 58.3115 66.0674 58.306 65.9834 58.2577L37.0476 41.86L25.8202 35.4963C25.6525 35.3995 25.5156 35.1686 25.5156 34.9788L25.5868 10.4268L37.1242 16.9623L66.361 33.5231V33.5105L66.372 33.5053L68.5152 32.6026L68.5135 32.6045Z" fill="#FDFEFE"/>
<path opacity="0.9" d="M68.5991 32.5837L68.5279 57.1483C68.5279 57.2451 68.4914 57.3112 68.4349 57.3416H68.4331L68.4167 57.3488L66.2842 58.2478C66.3024 58.2388 66.319 58.2226 66.3316 58.2048C66.3591 58.1689 66.3736 58.1171 66.3736 58.0543L66.3791 56.2763L66.4448 33.4897L66.454 33.4844L68.5991 32.582V32.5837Z" fill="#EDF1F3"/>
<path opacity="0.8" d="M68.5984 32.5767L68.5273 57.1413C68.5273 57.2381 68.4908 57.3042 68.4343 57.3346H68.4324L68.4141 57.3418L66.3165 58.2263C66.3165 58.2263 66.3274 58.2156 66.331 58.2102C66.3566 58.1745 66.373 58.1224 66.373 58.0599V58.0473C66.373 58.1117 66.3566 58.1619 66.331 58.1978C66.3182 58.2156 66.3001 58.2318 66.2835 58.2406L66.3165 58.2263C66.3056 58.237 66.2963 58.2461 66.2835 58.2515C66.229 58.2836 66.1523 58.2782 66.0684 58.2299L37.1326 41.8322L25.9052 35.4684C25.7374 35.3717 25.6006 35.1408 25.6006 34.951L25.6717 10.3989L37.2092 16.9344L66.446 33.4953V33.4827L66.4569 33.4774L68.6001 32.5748L68.5984 32.5767Z" fill="url(#paint1_linear_6722_31908)"/>
<path opacity="0.9" d="M66.4645 30.489L66.4443 33.4899L68.5987 32.5839L68.6186 29.583L66.4645 30.489Z" fill="#ABC1C6"/>
<g opacity="0.9">
<path opacity="0.9" d="M44.8489 29.1421C44.9656 29.2084 45.0624 29.3713 45.0605 29.504C45.0586 29.6364 44.9637 29.6901 44.847 29.6238L39.0026 26.3113C38.8859 26.2451 38.7892 26.0821 38.791 25.9496C38.7929 25.8171 38.8878 25.7634 39.0045 25.8296L44.8489 29.1421Z" fill="#EDF1F3"/>
<path opacity="0.9" d="M51.5762 27.8083C51.6929 27.8745 51.7897 28.0376 51.7878 28.17C51.7859 28.3025 51.6912 28.3562 51.5743 28.2899L39.0026 21.1653C38.8859 21.0991 38.7892 20.9361 38.791 20.8036C38.7929 20.6711 38.8878 20.6174 39.0045 20.6836L51.5762 27.8083Z" fill="#EDF1F3"/>
<path opacity="0.9" d="M51.5762 29.5094C51.6929 29.5757 51.7897 29.7386 51.7878 29.8711C51.7859 30.0035 51.6912 30.0573 51.5743 29.9911L39.0026 22.8665C38.8859 22.8002 38.7892 22.6373 38.791 22.5048C38.7929 22.3723 38.8878 22.3186 39.0045 22.3848L51.5762 29.5094Z" fill="#EDF1F3"/>
<path opacity="0.9" d="M51.5762 31.0474C51.6929 31.1138 51.7897 31.2766 51.7878 31.4091C51.7859 31.5418 51.6912 31.5955 51.5743 31.5292L39.0026 24.4046C38.8859 24.3383 38.7892 24.1754 38.791 24.0429C38.7929 23.9104 38.8878 23.8567 39.0045 23.9229L51.5762 31.0474Z" fill="#EDF1F3"/>
</g>
<g opacity="0.9">
<path opacity="0.9" d="M33.8382 18.1451C33.9549 18.2113 34.0516 18.3743 34.0498 18.5068C34.0481 18.6393 33.9532 18.693 33.8365 18.6268L27.9919 15.3142C27.8752 15.248 27.7786 15.0851 27.7803 14.9525C27.7822 14.82 27.8771 14.7663 27.9938 14.8326L33.8382 18.1451Z" fill="white"/>
<path opacity="0.9" d="M33.8382 19.857C33.9549 19.9233 34.0516 20.0862 34.0498 20.2187C34.0481 20.3512 33.9532 20.4049 33.8365 20.3387L27.9919 17.0262C27.8752 16.9599 27.7786 16.7969 27.7803 16.6645C27.7822 16.532 27.8771 16.4782 27.9938 16.5445L33.8382 19.857Z" fill="white"/>
</g>
</g>
<g filter="url(#filter1_d_6722_31908)">
<path opacity="0.9" d="M55.3369 35.3169L55.3334 36.1907V36.1995L55.3277 38.3125L26.0873 21.7516L16.6933 16.4283L14.5518 15.2161L14.5608 12.2188L16.7097 13.4345L20.8395 15.7748L22.2239 14.7219L22.2495 14.7363L25.8228 16.7524L25.9324 16.8151L29.9216 19.064L29.9362 19.0963L31.0964 21.5833L31.7037 21.9289V21.9253L30.6239 19.5546C30.6075 19.517 30.613 19.4884 30.6329 19.4812C30.6386 19.4777 30.6458 19.4777 30.655 19.4812C30.6586 19.4812 30.664 19.4848 30.6678 19.4866L33.7504 21.2342L35.0419 23.8197L55.3405 35.3169H55.3369Z" fill="#C9D7DD"/>
<path opacity="0.9" d="M26.0823 21.7518L26.0111 46.6513L14.7802 40.2859C14.6124 40.191 14.4756 39.9582 14.4756 39.7684L14.5467 15.2163L26.0842 21.7518H26.0823Z" fill="#EDF1F3"/>
<path opacity="0.9" d="M55.3194 38.3127L55.2537 61.0991L55.2482 62.8773C55.2482 62.9398 55.2337 62.9919 55.2062 63.0276C55.1934 63.0456 55.177 63.0599 55.1588 63.0706C55.1042 63.1027 55.0276 63.0975 54.9436 63.0492L26.0078 46.6493V46.6441L26.0133 44.5204L26.079 21.75H26.0825L55.3194 38.3108V38.3127Z" fill="white"/>
<path opacity="0.9" d="M55.3468 32.8783V33.1933L55.3413 35.317L35.0428 23.8199L33.7512 21.2361L30.6703 19.4885C30.6703 19.4885 30.6612 19.4832 30.6558 19.4832C30.6466 19.4796 30.6411 19.4796 30.6337 19.4832C30.6157 19.4903 30.61 19.5208 30.6266 19.5548L31.7064 21.9273H31.7028L31.0972 21.5817L29.9662 19.1125L29.937 19.0964L25.9332 16.8153L25.8236 16.7526L22.2666 14.7257L22.2503 14.7382L20.842 15.7767L16.7105 13.4365L14.5635 12.2207L14.5708 9.76943C14.5708 9.65842 14.6183 9.5868 14.6911 9.56531C14.7423 9.5492 14.8078 9.55994 14.8773 9.59933L16.7195 10.6432L36.73 21.9846H36.7336L55.0441 32.3644C55.2137 32.4612 55.3505 32.6921 55.3486 32.8818L55.3468 32.8783Z" fill="#6E17FF"/>
<g opacity="0.7">
<path opacity="0.7" d="M55.3468 32.8783V33.1933L55.3413 35.317L35.0428 23.8199L33.7512 21.2361L30.6703 19.4885C30.6703 19.4885 30.6612 19.4832 30.6558 19.4832C30.6466 19.4796 30.6411 19.4796 30.6337 19.4832C30.6157 19.4903 30.61 19.5208 30.6266 19.5548L31.7064 21.9273H31.7028L31.0972 21.5817L29.9662 19.1125L29.937 19.0964L25.9332 16.8153L25.8236 16.7526L22.2666 14.7257L22.2503 14.7382L20.842 15.7767L16.7105 13.4365L14.5635 12.2207L14.5708 9.76943C14.5708 9.65842 14.6183 9.5868 14.6911 9.56531C14.7423 9.5492 14.8078 9.55994 14.8773 9.59933L16.7195 10.6432L36.73 21.9846H36.7336L55.0441 32.3644C55.2137 32.4612 55.3505 32.6921 55.3486 32.8818L55.3468 32.8783Z" fill="url(#paint2_linear_6722_31908)"/>
</g>
<path opacity="0.9" d="M22.5058 27.7773L22.4473 27.7468V27.7432L22.5058 27.7773Z" fill="#7808FF"/>
<g opacity="0.9">
<path opacity="0.9" d="M15.8816 11.2826C16.0986 11.4062 16.2737 11.7034 16.2737 11.9487C16.2737 12.194 16.0968 12.2907 15.8797 12.169C15.6627 12.0472 15.4876 11.7482 15.4893 11.5047C15.4912 11.2612 15.6662 11.1609 15.8833 11.2844L15.8816 11.2826Z" fill="white"/>
<path opacity="0.9" d="M16.9849 11.9023C17.202 12.0258 17.377 12.323 17.377 12.5683C17.377 12.8137 17.2001 12.9104 16.983 12.7886C16.766 12.6668 16.5909 12.3678 16.5928 12.1243C16.5945 11.8808 16.7697 11.7805 16.9868 11.9041L16.9849 11.9023Z" fill="white"/>
<path opacity="0.9" d="M18.1236 12.5898C18.3408 12.7133 18.5159 13.0105 18.5159 13.2558C18.5159 13.5012 18.3389 13.5979 18.1219 13.4761C17.9048 13.3543 17.7296 13.0553 17.7315 12.8118C17.7333 12.5683 17.9084 12.468 18.1255 12.5916L18.1236 12.5898Z" fill="white"/>
</g>
<path opacity="0.9" d="M32.633 21.1699C32.9212 21.3328 33.1529 21.7285 33.151 22.0526C33.151 22.3767 32.9157 22.5074 32.6294 22.3445C32.3431 22.1815 32.1097 21.7876 32.1113 21.4635C32.1113 21.1395 32.3448 21.0087 32.633 21.1717V21.1699Z" fill="#7808FF"/>
<path opacity="0.9" d="M51.8392 34.0226C51.987 34.1068 52.1056 34.3091 52.1056 34.4756L52.1018 35.6538C52.1018 35.8203 51.9815 35.8883 51.8338 35.8041L19.8299 17.6659C19.6821 17.5817 19.5635 17.3794 19.5635 17.2129L19.567 16.0347C19.567 15.8682 19.6875 15.8001 19.8353 15.8843L51.8392 34.0226Z" fill="white"/>
<path opacity="0.9" d="M51.1106 34.0084C51.1106 34.0084 51.116 34.0136 51.1177 34.0172L51.2254 34.4542L51.2328 34.463L51.5829 34.6618C51.5829 34.6618 51.5921 34.6761 51.5867 34.678L51.3039 34.7496V34.7567L51.4078 35.1919C51.4078 35.1919 51.4059 35.2009 51.4005 35.199C51.4005 35.199 51.3988 35.1973 51.3969 35.1954L51.116 34.8033L51.1068 34.7978L50.8241 34.8696C50.8241 34.8696 50.8224 34.8696 50.8205 34.8696C50.8167 34.8677 50.8131 34.8606 50.815 34.8552L50.9244 34.542V34.531L50.64 34.1389C50.64 34.1389 50.6381 34.123 50.6435 34.1265L50.9937 34.3251H51.001L51.1106 34.01C51.1106 34.01 51.1142 34.0065 51.116 34.0084H51.1106Z" fill="#6E17FF"/>
<g opacity="0.9">
<path opacity="0.9" d="M54.3874 35.7291V35.8132L53.165 35.1203V35.0361L54.3874 35.7291Z" fill="#7808FF"/>
<path opacity="0.9" d="M54.3874 36.1124V36.1984L53.165 35.5055V35.4194L54.3874 36.1124Z" fill="#7808FF"/>
<path opacity="0.9" d="M54.3874 36.4971V36.5813L53.165 35.8903V35.8042L54.3874 36.4971Z" fill="#7808FF"/>
<path opacity="0.9" d="M54.3874 36.8819V36.9661L53.165 36.2731V36.189L54.3874 36.8819Z" fill="#7808FF"/>
</g>
<g opacity="0.9">
<path opacity="0.9" d="M15.5462 13.7338C15.5625 13.7427 15.5789 13.7589 15.5917 13.7785C15.6228 13.8233 15.6263 13.8788 15.6007 13.8967L15.3016 14.1241L16.2594 14.6667C16.2995 14.6881 16.3304 14.7437 16.3304 14.7884C16.3304 14.8332 16.2976 14.8511 16.2594 14.8278L15.3125 14.2907L15.5972 14.8009C15.6228 14.8475 15.6209 14.8976 15.5917 14.912C15.5772 14.9173 15.5606 14.9155 15.5443 14.9066C15.526 14.8958 15.5061 14.8744 15.4914 14.8493L15.1009 14.151L15.0955 14.1402C15.0864 14.1223 15.081 14.1062 15.0791 14.0919C15.0791 14.0812 15.0791 14.0704 15.0791 14.0614L15.0829 14.0489L15.09 14.0382L15.0938 14.0346L15.4914 13.7302C15.5061 13.7195 15.526 13.7212 15.5462 13.7338Z" fill="white"/>
<path opacity="0.9" d="M15.0771 14.0957C15.0771 14.0957 15.0788 14.1101 15.0826 14.1173C15.0862 14.1262 15.09 14.1352 15.0954 14.1442C15.0862 14.1262 15.0807 14.1101 15.0788 14.0957H15.0771Z" fill="white"/>
</g>
<g opacity="0.9">
<path opacity="0.9" d="M17.7715 14.9672C17.7916 14.978 17.8116 14.9994 17.8263 15.0263L18.2222 15.7801L18.2257 15.7891L18.2331 15.8088L18.2366 15.8267C18.2385 15.8392 18.2385 15.8499 18.2366 15.8571L18.2331 15.8696L18.2276 15.8804L18.2203 15.8875L17.8208 16.149C17.8061 16.1579 17.7881 16.1561 17.7679 16.1454C17.7496 16.1347 17.7333 16.1185 17.7205 16.097C17.6913 16.0505 17.6894 15.9986 17.7169 15.9807L18.0032 15.7944L17.0565 15.2573C17.0164 15.234 16.9854 15.1803 16.9854 15.1355C16.9854 15.0908 17.0164 15.0729 17.0565 15.0961L18.0122 15.6387L17.7169 15.0746C17.6913 15.0263 17.6967 14.978 17.7259 14.9654C17.7387 14.96 17.7551 14.9636 17.7715 14.9726V14.9672Z" fill="white"/>
<path opacity="0.9" d="M18.231 15.8677L18.2292 15.8712L18.2256 15.8783L18.231 15.8677Z" fill="white"/>
</g>
<path opacity="0.9" d="M15.0336 24.0688L15.081 24.1423L15.0445 24.1691L14.9971 24.0975L15.0336 24.0688Z" fill="#7808FF"/>
<path opacity="0.9" d="M25.947 17.6119C26.2224 17.7677 26.4452 18.1455 26.4433 18.4552C26.4414 18.765 26.2189 18.8903 25.9435 18.7346L23.0011 17.0676C22.7257 16.9118 22.5032 16.534 22.5049 16.2242C22.5049 15.9145 22.7293 15.7891 23.0047 15.9449L25.947 17.6119Z" fill="#6E17FF"/>
<path opacity="0.9" d="M36.7282 21.981L16.7178 10.6415L14.8754 9.59759C14.8043 9.55819 14.7405 9.54745 14.6895 9.56356L16.8217 8.66471C16.8765 8.63964 16.9494 8.64501 17.0279 8.69157L57.1946 31.4549C57.3626 31.5514 57.4992 31.7826 57.4992 31.9723L57.4921 34.4111H57.4902L55.3396 35.3171L55.3451 33.1953V32.8783C55.3468 32.6885 55.2101 32.4576 55.0403 32.3609L36.7301 21.9828" fill="#562ED0"/>
<path d="M57.4734 37.4048L57.4023 61.9694C57.4023 62.0662 57.3658 62.1323 57.3093 62.1627H57.3074L57.2891 62.1699L55.1915 63.0545C55.1915 63.0545 55.2024 63.0437 55.206 63.0383C55.2316 63.0026 55.2479 62.9505 55.2479 62.888V62.8754C55.2479 62.9398 55.2316 62.99 55.206 63.0259C55.1932 63.0437 55.1751 63.0599 55.1585 63.0687L55.1915 63.0545C55.1806 63.0652 55.1713 63.0742 55.1585 63.0796C55.1039 63.1118 55.0273 63.1063 54.9434 63.058L26.0075 46.6603L14.7802 40.2966C14.6124 40.1998 14.4756 39.9689 14.4756 39.7791L14.5467 15.2271L26.0842 21.7626L55.321 38.3234V38.3108L55.3319 38.3056L57.4751 37.4029L57.4734 37.4048Z" fill="#FDFEFE"/>
<path opacity="0.9" d="M57.4731 37.4118L57.402 61.9764C57.402 62.0732 57.3654 62.1393 57.309 62.1698H57.3071L57.2907 62.1769L55.1582 63.076C55.1765 63.0669 55.193 63.0508 55.2056 63.0329C55.2331 62.997 55.2476 62.9452 55.2476 62.8824L55.2531 61.1045L55.3188 38.3178L55.328 38.3126L57.4731 37.4102V37.4118Z" fill="#EDF1F3"/>
<path opacity="0.8" d="M57.4734 37.4048L57.4023 61.9694C57.4023 62.0662 57.3658 62.1323 57.3093 62.1627H57.3074L57.2891 62.1699L55.1915 63.0545C55.1915 63.0545 55.2024 63.0437 55.206 63.0383C55.2316 63.0026 55.2479 62.9505 55.2479 62.888V62.8754C55.2479 62.9398 55.2316 62.99 55.206 63.0259C55.1932 63.0437 55.1751 63.0599 55.1585 63.0687L55.1915 63.0545C55.1806 63.0652 55.1713 63.0742 55.1585 63.0796C55.1039 63.1118 55.0273 63.1063 54.9434 63.058L26.0075 46.6603L14.7802 40.2966C14.6124 40.1998 14.4756 39.9689 14.4756 39.7791L14.5467 15.2271L26.0842 21.7626L55.321 38.3234V38.3108L55.3319 38.3056L57.4751 37.4029L57.4734 37.4048Z" fill="url(#paint3_linear_6722_31908)"/>
<path opacity="0.9" d="M55.3395 35.3171L55.3193 38.318L57.4737 37.412L57.4936 34.4111L55.3395 35.3171Z" fill="#ABC1C6"/>
<g opacity="0.9">
<path opacity="0.9" d="M33.7239 33.9702C33.8406 34.0365 33.9374 34.1994 33.9355 34.3321C33.9336 34.4645 33.8387 34.5183 33.722 34.4519L27.8776 31.1394C27.7609 31.0732 27.6642 30.9102 27.666 30.7777C27.6679 30.6452 27.7628 30.5915 27.8795 30.6578L33.7239 33.9702Z" fill="#EDF1F3"/>
<path opacity="0.9" d="M40.4512 32.6365C40.5679 32.7026 40.6647 32.8657 40.6628 32.9981C40.6609 33.1306 40.5662 33.1843 40.4493 33.118L27.8776 25.9934C27.7609 25.9272 27.6642 25.7643 27.666 25.6317C27.6679 25.4992 27.7628 25.4455 27.8795 25.5118L40.4512 32.6365Z" fill="#EDF1F3"/>
<path opacity="0.9" d="M40.4512 34.3375C40.5679 34.4039 40.6647 34.5667 40.6628 34.6992C40.6609 34.8317 40.5662 34.8854 40.4493 34.8193L27.8776 27.6946C27.7609 27.6284 27.6642 27.4654 27.666 27.3329C27.6679 27.2004 27.7628 27.1467 27.8795 27.2129L40.4512 34.3375Z" fill="#EDF1F3"/>
<path opacity="0.9" d="M40.4512 35.8755C40.5679 35.9419 40.6647 36.1048 40.6628 36.2372C40.6609 36.3699 40.5662 36.4236 40.4493 36.3573L27.8776 29.2327C27.7609 29.1664 27.6642 29.0035 27.666 28.871C27.6679 28.7385 27.7628 28.6848 27.8795 28.751L40.4512 35.8755Z" fill="#EDF1F3"/>
</g>
<g opacity="0.9">
<path opacity="0.9" d="M22.7132 22.9732C22.8299 23.0395 22.9266 23.2024 22.9248 23.3349C22.9231 23.4674 22.8282 23.5211 22.7115 23.4549L16.8669 20.1424C16.7502 20.0761 16.6536 19.9132 16.6553 19.7807C16.6572 19.6482 16.7521 19.5944 16.8688 19.6607L22.7132 22.9732Z" fill="white"/>
<path opacity="0.9" d="M22.7132 24.6851C22.8299 24.7514 22.9266 24.9143 22.9248 25.0468C22.9231 25.1793 22.8282 25.2331 22.7115 25.1668L16.8669 21.8543C16.7502 21.788 16.6536 21.6251 16.6553 21.4926C16.6572 21.3601 16.7521 21.3064 16.8688 21.3726L22.7132 24.6851Z" fill="white"/>
</g>
</g>
<g filter="url(#filter2_d_6722_31908)">
<path d="M44.2744 40.5038L44.2708 41.3776V41.3867L44.2653 43.4994L15.023 26.9387L5.62883 21.6153L3.4873 20.4031L3.49654 17.4058L5.64521 18.6215L9.77502 20.9618L11.1596 19.9089L11.185 19.9233L14.7586 21.9394L14.8679 22.0021L18.8573 24.251L18.8718 24.2833L20.032 26.7703L20.6395 27.1159V27.1123L19.5595 24.7417C19.5431 24.704 19.5486 24.6754 19.5687 24.6682C19.5742 24.6647 19.5815 24.6647 19.5905 24.6682C19.5943 24.6682 19.5998 24.6718 19.6033 24.6736L22.6861 26.4212L23.9775 29.0067L44.2762 40.5038H44.2744Z" fill="#C9D7DD"/>
<path d="M15.0188 26.9388L14.9479 51.8382L3.71669 45.4728C3.54897 45.3779 3.41211 45.1451 3.41211 44.9554L3.48327 20.4033L15.0207 26.9388H15.0188Z" fill="#EDF1F3"/>
<path d="M44.2559 43.4996L44.1902 66.2862L44.1847 68.0642C44.1847 68.127 44.1702 68.1788 44.1427 68.2147C44.1302 68.2325 44.1136 68.2468 44.0955 68.2575C44.0407 68.2898 43.9641 68.2844 43.8802 68.2361L14.9443 51.8365V51.831L14.9498 49.7076L15.0155 26.937H15.0193L44.2559 43.4979V43.4996Z" fill="white"/>
<path d="M44.2815 38.0654V38.3805L44.2761 40.5039L23.9773 29.0069L22.6859 26.4231L19.6051 24.6756C19.6051 24.6756 19.5958 24.6702 19.5904 24.6702C19.5813 24.6666 19.5759 24.6666 19.5685 24.6702C19.5503 24.6773 19.5448 24.7078 19.5612 24.7418L20.6412 27.1143H20.6374L20.0318 26.7687L18.9008 24.2995L18.8716 24.2834L14.8678 22.0023L14.7584 21.9396L11.2014 19.9127L11.1848 19.9252L9.77674 20.9637L5.64503 18.6235L3.49805 17.4077L3.50539 14.9564C3.50539 14.8454 3.55283 14.7738 3.62588 14.7523C3.67689 14.7362 3.74259 14.7469 3.81187 14.7863L5.65427 15.8302L25.6646 27.1716H25.6684L43.9786 37.5513C44.1484 37.6481 44.2851 37.879 44.2834 38.069L44.2815 38.0654Z" fill="#6E17FF"/>
<g opacity="0.7">
<path opacity="0.7" d="M44.2815 38.0654V38.3805L44.2761 40.5039L23.9773 29.0069L22.6859 26.4231L19.6051 24.6756C19.6051 24.6756 19.5958 24.6702 19.5904 24.6702C19.5813 24.6666 19.5759 24.6666 19.5685 24.6702C19.5503 24.6773 19.5448 24.7078 19.5612 24.7418L20.6412 27.1143H20.6374L20.0318 26.7687L18.9008 24.2995L18.8716 24.2834L14.8678 22.0023L14.7584 21.9396L11.2014 19.9127L11.1848 19.9252L9.77674 20.9637L5.64503 18.6235L3.49805 17.4077L3.50539 14.9564C3.50539 14.8454 3.55283 14.7738 3.62588 14.7523C3.67689 14.7362 3.74259 14.7469 3.81187 14.7863L5.65427 15.8302L25.6646 27.1716H25.6684L43.9786 37.5513C44.1484 37.6481 44.2851 37.879 44.2834 38.069L44.2815 38.0654Z" fill="url(#paint4_linear_6722_31908)"/>
</g>
<path d="M11.4423 32.9642L11.3818 32.9337V32.9302L11.4423 32.9642Z" fill="#7808FF"/>
<path d="M4.81694 16.4697C5.03399 16.5932 5.20926 16.8904 5.20926 17.1357C5.20926 17.381 5.03231 17.4777 4.81526 17.356C4.598 17.2342 4.42293 16.9352 4.42482 16.6917C4.42671 16.4482 4.60178 16.3479 4.81883 16.4714L4.81694 16.4697Z" fill="white"/>
<path d="M5.92066 17.0873C6.13771 17.2109 6.31278 17.5081 6.31278 17.7534C6.31278 17.9987 6.13582 18.0954 5.91877 17.9736C5.70172 17.8519 5.52665 17.5529 5.52833 17.3093C5.53022 17.0658 5.70529 16.9656 5.92234 17.0891L5.92066 17.0873Z" fill="white"/>
<path d="M7.06031 17.7748C7.27736 17.8984 7.45242 18.1956 7.45242 18.4409C7.45242 18.6862 7.27547 18.7829 7.05842 18.6611C6.84137 18.5394 6.6663 18.2404 6.66798 17.9968C6.66987 17.7533 6.84494 17.6531 7.06199 17.7766L7.06031 17.7748Z" fill="white"/>
<path d="M21.5697 26.3569C21.8579 26.5198 22.0894 26.9155 22.0878 27.2397C22.0859 27.5637 21.8525 27.6944 21.5659 27.5315C21.2796 27.3686 21.0462 26.9746 21.0479 26.6506C21.0479 26.3265 21.2815 26.1958 21.5697 26.3587V26.3569Z" fill="#7808FF"/>
<path d="M40.7738 39.2095C40.9216 39.2937 41.0402 39.4961 41.0402 39.6625L41.0366 40.8408C41.0366 41.0072 40.9161 41.0754 40.7683 40.9913L8.76443 22.8529C8.61665 22.7687 8.49805 22.5664 8.49805 22.3999L8.50183 21.2217C8.50183 21.0552 8.6221 20.9871 8.76988 21.0713L40.7738 39.2095Z" fill="white"/>
<path d="M40.0451 39.1954C40.0451 39.1954 40.0506 39.2008 40.0525 39.2044L40.1602 39.6412L40.1673 39.6502L40.5177 39.8488C40.5177 39.8488 40.5267 39.8633 40.5212 39.865L40.2385 39.9366V39.9439L40.3426 40.3788C40.3426 40.3788 40.3407 40.3879 40.3352 40.386C40.3352 40.386 40.3334 40.3843 40.3315 40.3824L40.0506 39.9903L40.0416 39.985L39.7588 40.0566C39.7588 40.0566 39.7569 40.0566 39.755 40.0566C39.7515 40.0547 39.7479 40.0476 39.7496 40.0423L39.8592 39.7289V39.7182L39.5745 39.3261C39.5745 39.3261 39.5726 39.31 39.5783 39.3135L39.9284 39.5123H39.9358L40.0451 39.1972C40.0451 39.1972 40.0489 39.1935 40.0506 39.1954H40.0451Z" fill="#6E17FF"/>
<path d="M43.3237 40.9161V41.0002L42.1016 40.3073V40.2231L43.3237 40.9161Z" fill="#7808FF"/>
<path d="M43.3237 41.2994V41.3835L42.1016 40.6923V40.6064L43.3237 41.2994Z" fill="#7808FF"/>
<path d="M43.3237 41.6841V41.7683L42.1016 41.0754V40.9912L43.3237 41.6841Z" fill="#7808FF"/>
<path d="M43.3237 42.067V42.1531L42.1016 41.4599V41.376L43.3237 42.067Z" fill="#7808FF"/>
<path d="M4.48052 18.9208C4.49689 18.9297 4.51347 18.9459 4.52628 18.9656C4.55714 19.0103 4.56091 19.0658 4.5353 19.0837L4.23618 19.3111L5.1938 19.8537C5.2339 19.8752 5.26496 19.9307 5.26496 19.9754C5.26496 20.0202 5.23201 20.0381 5.1938 20.0148L4.24709 19.4777L4.53174 19.988C4.55714 20.0345 4.55546 20.0847 4.52628 20.099C4.51158 20.1044 4.49521 20.1026 4.47884 20.0936C4.46058 20.0829 4.44043 20.0614 4.42594 20.0363L4.0355 19.338L4.03005 19.3273C4.02081 19.3094 4.01535 19.2932 4.01367 19.2789C4.01367 19.2682 4.01367 19.2574 4.01367 19.2485L4.01724 19.2359L4.02459 19.2252L4.02816 19.2216L4.42594 18.9172C4.44043 18.9065 4.46058 18.9083 4.48052 18.9208Z" fill="white"/>
<path d="M4.0127 19.2808C4.0127 19.2808 4.01458 19.2951 4.01815 19.3023C4.02193 19.3113 4.0255 19.3203 4.03096 19.3293C4.02193 19.3113 4.01626 19.2951 4.01458 19.2808H4.0127Z" fill="white"/>
<path d="M6.70604 20.1547C6.72598 20.1655 6.74614 20.1869 6.76083 20.2138L7.15651 20.9676L7.16029 20.9766L7.16743 20.9963L7.17121 21.0142C7.1731 21.0267 7.1731 21.0374 7.17121 21.0446L7.16743 21.0571L7.16197 21.0679L7.15484 21.075L6.75537 21.3365C6.74068 21.3454 6.72242 21.3436 6.70248 21.3329C6.68421 21.3222 6.66763 21.306 6.65504 21.2845C6.62586 21.238 6.62397 21.1861 6.65126 21.1682L6.93779 20.9819L5.99087 20.4448C5.95078 20.4215 5.91992 20.3678 5.91992 20.323C5.91992 20.2783 5.95078 20.2604 5.99087 20.2836L6.94681 20.8262L6.65126 20.2621C6.62586 20.2138 6.63132 20.1655 6.66049 20.1529C6.67309 20.1475 6.68967 20.1511 6.70604 20.1601V20.1547Z" fill="white"/>
<path d="M7.16757 21.0552L7.16589 21.0587L7.16211 21.0658L7.16757 21.0552Z" fill="white"/>
<path d="M3.96796 29.2559L4.0154 29.3293L3.97908 29.3561L3.93164 29.2827L3.96796 29.2559Z" fill="#7808FF"/>
<path d="M14.8834 22.7989C15.159 22.9547 15.3815 23.3325 15.3796 23.6422C15.3777 23.952 15.1552 24.0774 14.8798 23.9216L11.9374 22.2546C11.662 22.0988 11.4395 21.721 11.4414 21.4112C11.4414 21.1015 11.6658 20.9761 11.9412 21.1319L14.8834 22.7989Z" fill="#6E17FF"/>
<path d="M25.6629 27.1681L5.65241 15.8285L3.81 14.7846C3.73884 14.7452 3.67503 14.7345 3.62402 14.7506L5.75631 13.8517C5.8111 13.8267 5.88415 13.832 5.96245 13.8786L46.1294 36.6418C46.2971 36.7386 46.434 36.9695 46.434 37.1592L46.4267 39.598H46.4248L44.2742 40.504L44.2797 38.3822V38.0654C44.2816 37.8755 44.1447 37.6446 43.9751 37.5478L25.6646 27.1698" fill="#562ED0"/>
<path d="M46.4104 42.5991L46.3392 67.1634C46.3392 67.2602 46.3027 67.3265 46.2463 67.357H46.2444L46.228 67.3641L44.0957 68.263C44.1138 68.2539 44.1303 68.2378 44.1429 68.2199C44.1704 68.1842 44.1849 68.1322 44.1849 68.0696L44.1904 66.2915L44.2561 43.505L44.2653 43.4996L46.4104 42.5972V42.5991Z" fill="#8BABB5"/>
<path opacity="0.8" d="M44.2812 68.1769L44.128 68.2416C44.128 68.2416 44.1389 68.2307 44.1425 68.2254C44.1681 68.1895 44.1845 68.1377 44.1845 68.0749V68.0625C44.1845 68.127 44.1681 68.1769 44.1425 68.2128C44.1299 68.2307 44.1116 68.2468 44.0953 68.2559L44.128 68.2416C44.1171 68.2523 44.1079 68.2611 44.0953 68.2666C44.0405 68.2987 43.9639 68.2934 43.8799 68.2452L14.9441 51.8472L3.71669 45.4835C3.54897 45.3869 3.41211 45.1558 3.41211 44.9661L3.48327 20.4141L15.0207 26.9496L44.2575 43.5103V43.4979L44.2684 43.4925L44.2758 43.4889L44.2848 68.1769H44.2812Z" fill="url(#paint5_linear_6722_31908)"/>
<path d="M44.276 40.5039L44.2559 43.505L46.4102 42.599L46.4285 39.5962L44.276 40.5039Z" fill="#95B7BF"/>
<path d="M22.6604 39.1558C22.7771 39.2221 22.8739 39.385 22.872 39.5175C22.8703 39.6501 22.7755 39.7039 22.6587 39.6375L16.8142 36.3249C16.6974 36.2588 16.6009 36.0959 16.6026 35.9632C16.6044 35.8308 16.6993 35.777 16.816 35.8434L22.6604 39.1558Z" fill="#EDF1F3"/>
<path d="M29.3877 37.8239C29.5046 37.8902 29.6012 38.0531 29.5993 38.1855C29.5993 38.318 29.5027 38.3717 29.386 38.3056L16.8142 31.1809C16.6974 31.1147 16.6009 30.9517 16.6026 30.8192C16.6044 30.6867 16.6993 30.633 16.816 30.6993L29.3877 37.8239Z" fill="#EDF1F3"/>
<path d="M29.3877 39.5246C29.5046 39.5908 29.6012 39.7537 29.5993 39.8863C29.5993 40.0188 29.5027 40.0725 29.386 40.0062L16.8142 32.8815C16.6974 32.8154 16.6009 32.6523 16.6026 32.5199C16.6044 32.3874 16.6993 32.3337 16.816 32.4L29.3877 39.5246Z" fill="#EDF1F3"/>
<path d="M29.3877 41.0627C29.5046 41.1288 29.6012 41.292 29.5993 41.4244C29.5993 41.5569 29.5027 41.6106 29.386 41.5443L16.8142 34.4198C16.6974 34.3535 16.6009 34.1906 16.6026 34.0582C16.6044 33.9255 16.6993 33.8718 16.816 33.9381L29.3877 41.0627Z" fill="#EDF1F3"/>
<path d="M11.6497 28.1602C11.7664 28.2265 11.8632 28.3894 11.8613 28.5219C11.8596 28.6544 11.7647 28.7081 11.648 28.6419L5.80341 25.3294C5.6867 25.2631 5.59014 25.1002 5.59182 24.9677C5.59371 24.8352 5.68859 24.7815 5.8053 24.8477L11.6497 28.1602Z" fill="white"/>
<path d="M11.6497 29.8717C11.7664 29.9379 11.8632 30.1008 11.8613 30.2333C11.8596 30.3658 11.7647 30.4196 11.648 30.3533L5.80341 27.0408C5.6867 26.9745 5.59014 26.8116 5.59182 26.6791C5.59371 26.5466 5.68859 26.4929 5.8053 26.5591L11.6497 29.8717Z" fill="white"/>
</g>
</g>
<defs>
<filter id="filter0_d_6722_31908" x="10.0156" y="-11.6782" width="74.1084" height="85.4775" filterUnits="userSpaceOnUse" color-interpolation-filters="sRGB">
<feFlood flood-opacity="0" result="BackgroundImageFix"/>
<feColorMatrix in="SourceAlpha" type="matrix" values="0 0 0 0 0 0 0 0 0 0 0 0 0 0 0 0 0 0 127 0" result="hardAlpha"/>
<feOffset/>
<feGaussianBlur stdDeviation="7.75"/>
<feColorMatrix type="matrix" values="0 0 0 0 0 0 0 0 0 0 0 0 0 0 0 0 0 0 0.15 0"/>
<feBlend mode="normal" in2="BackgroundImageFix" result="effect1_dropShadow_6722_31908"/>
<feBlend mode="normal" in="SourceGraphic" in2="effect1_dropShadow_6722_31908" result="shape"/>
</filter>
<filter id="filter1_d_6722_31908" x="-1.02441" y="-6.8501" width="74.0234" height="85.4497" filterUnits="userSpaceOnUse" color-interpolation-filters="sRGB">
<feFlood flood-opacity="0" result="BackgroundImageFix"/>
<feColorMatrix in="SourceAlpha" type="matrix" values="0 0 0 0 0 0 0 0 0 0 0 0 0 0 0 0 0 0 127 0" result="hardAlpha"/>
<feOffset/>
<feGaussianBlur stdDeviation="7.75"/>
<feColorMatrix type="matrix" values="0 0 0 0 0 0 0 0 0 0 0 0 0 0 0 0 0 0 0.15 0"/>
<feBlend mode="normal" in2="BackgroundImageFix" result="effect1_dropShadow_6722_31908"/>
<feBlend mode="normal" in="SourceGraphic" in2="effect1_dropShadow_6722_31908" result="shape"/>
</filter>
<filter id="filter2_d_6722_31908" x="-12.0879" y="-1.66309" width="74.0215" height="85.4497" filterUnits="userSpaceOnUse" color-interpolation-filters="sRGB">
<feFlood flood-opacity="0" result="BackgroundImageFix"/>
<feColorMatrix in="SourceAlpha" type="matrix" values="0 0 0 0 0 0 0 0 0 0 0 0 0 0 0 0 0 0 127 0" result="hardAlpha"/>
<feOffset/>
<feGaussianBlur stdDeviation="7.75"/>
<feColorMatrix type="matrix" values="0 0 0 0 0 0 0 0 0 0 0 0 0 0 0 0 0 0 0.15 0"/>
<feBlend mode="normal" in2="BackgroundImageFix" result="effect1_dropShadow_6722_31908"/>
<feBlend mode="normal" in="SourceGraphic" in2="effect1_dropShadow_6722_31908" result="shape"/>
</filter>
<linearGradient id="paint0_linear_6722_31908" x1="81.5135" y1="31.7637" x2="16.0079" y2="4.52349" gradientUnits="userSpaceOnUse">
<stop offset="0.57" stop-color="white" stop-opacity="0"/>
<stop offset="0.79" stop-color="white" stop-opacity="0.3"/>
<stop offset="0.87" stop-color="white" stop-opacity="0.42"/>
<stop offset="1" stop-color="white" stop-opacity="0.6"/>
</linearGradient>
<linearGradient id="paint1_linear_6722_31908" x1="74.078" y1="36.1076" x2="57.2331" y2="35.0077" gradientUnits="userSpaceOnUse">
<stop stop-color="#4C7F8E" stop-opacity="0.5"/>
<stop offset="0.12" stop-color="#4C7F8E" stop-opacity="0.45"/>
<stop offset="0.3" stop-color="#4C7F8E" stop-opacity="0.33"/>
<stop offset="0.5" stop-color="#4C7F8E" stop-opacity="0.12"/>
<stop offset="0.6" stop-color="#4C7F8E" stop-opacity="0"/>
<stop offset="1" stop-color="#4C7F8E" stop-opacity="0"/>
</linearGradient>
<linearGradient id="paint2_linear_6722_31908" x1="70.3885" y1="36.5918" x2="4.88294" y2="9.35161" gradientUnits="userSpaceOnUse">
<stop offset="0.57" stop-color="white" stop-opacity="0"/>
<stop offset="0.79" stop-color="white" stop-opacity="0.3"/>
<stop offset="0.87" stop-color="white" stop-opacity="0.42"/>
<stop offset="1" stop-color="white" stop-opacity="0.6"/>
</linearGradient>
<linearGradient id="paint3_linear_6722_31908" x1="62.953" y1="40.9358" x2="46.1081" y2="39.8358" gradientUnits="userSpaceOnUse">
<stop stop-color="#4C7F8E" stop-opacity="0.5"/>
<stop offset="0.12" stop-color="#4C7F8E" stop-opacity="0.45"/>
<stop offset="0.3" stop-color="#4C7F8E" stop-opacity="0.33"/>
<stop offset="0.5" stop-color="#4C7F8E" stop-opacity="0.12"/>
<stop offset="0.6" stop-color="#4C7F8E" stop-opacity="0"/>
<stop offset="1" stop-color="#4C7F8E" stop-opacity="0"/>
</linearGradient>
<linearGradient id="paint4_linear_6722_31908" x1="59.323" y1="41.779" x2="-6.18232" y2="14.5386" gradientUnits="userSpaceOnUse">
<stop offset="0.57" stop-color="white" stop-opacity="0"/>
<stop offset="0.79" stop-color="white" stop-opacity="0.3"/>
<stop offset="0.87" stop-color="white" stop-opacity="0.42"/>
<stop offset="1" stop-color="white" stop-opacity="0.6"/>
</linearGradient>
<linearGradient id="paint5_linear_6722_31908" x1="55.9209" y1="66.485" x2="2.46708" y2="28.2651" gradientUnits="userSpaceOnUse">
<stop offset="0.13" stop-color="#4C7F8E" stop-opacity="0.5"/>
<stop offset="0.29" stop-color="#4C7F8E" stop-opacity="0.3"/>
<stop offset="0.46" stop-color="#4C7F8E" stop-opacity="0.13"/>
<stop offset="0.62" stop-color="#4C7F8E" stop-opacity="0.03"/>
<stop offset="0.75" stop-color="#4C7F8E" stop-opacity="0"/>
<stop offset="1" stop-color="#4C7F8E" stop-opacity="0"/>
</linearGradient>
<clipPath id="clip0_6722_31908">
<rect width="72" height="72" fill="white"/>
</clipPath>
</defs>
</svg>
