<svg xmlns="http://www.w3.org/2000/svg" width="72" height="72" fill="none" viewBox="0 0 72 72"><g clip-path="url(#a)"><path fill="#000" d="M63.097 24.542a16.31 16.31 0 0 0-7.793 13.72 15.87 15.87 0 0 0 9.66 14.559 38 38 0 0 1-4.947 10.22c-3.08 4.433-6.3 8.865-11.2 8.865s-6.16-2.846-11.806-2.846c-5.506 0-7.466 2.94-11.946 2.94s-7.606-4.107-11.2-9.146a44.2 44.2 0 0 1-7.512-23.846c0-14 9.1-21.418 18.059-21.418 4.76 0 8.726 3.126 11.713 3.126 2.846 0 7.28-3.314 12.692-3.314a16.98 16.98 0 0 1 14.28 7.14M46.25 11.476a16.1 16.1 0 0 0 3.826-10.03A7 7 0 0 0 49.937 0a16.12 16.12 0 0 0-10.593 5.46 15.65 15.65 0 0 0-3.966 9.753q.003.66.14 1.306.486.092.98.094a13.98 13.98 0 0 0 9.753-5.137"/></g><defs><clipPath id="a"><path fill="#fff" d="M0 0h72v72H0z"/></clipPath></defs></svg>