<svg width="72" height="72" viewBox="0 0 72 72" fill="none" xmlns="http://www.w3.org/2000/svg">
<g clip-path="url(#clip0_6722_31908)">
<path opacity="0.9" d="M66.4625 30.4897L66.459 31.3636V31.3724L66.4533 33.4854L37.2129 16.9245L27.8189 11.6012L25.6774 10.389L25.6864 7.3916L27.8353 8.6074L31.9651 10.9476L33.3495 9.89479L33.3751 9.90911L36.9484 11.9253L37.058 11.988L41.0472 14.2369L41.0619 14.2691L42.222 16.7562L42.8293 17.1018V17.0982L41.7495 14.7275C41.7332 14.6899 41.7386 14.6612 41.7586 14.6541C41.7642 14.6505 41.7714 14.6505 41.7806 14.6541C41.7842 14.6541 41.7896 14.6577 41.7934 14.6594L44.876 16.407L46.1676 18.9926L66.4661 30.4897H66.4625Z" fill="#C9D7DD"/>
<path opacity="0.9" d="M37.2075 16.9242L37.1363 41.8236L25.9053 35.4582C25.7376 35.3634 25.6008 35.1306 25.6008 34.9408L25.6719 10.3887L37.2093 16.9242H37.2075Z" fill="#EDF1F3"/>
<path opacity="0.9" d="M66.4442 33.4855L66.3785 56.2719L66.3731 58.0501C66.3731 58.1127 66.3586 58.1647 66.3311 58.2004C66.3183 58.2185 66.3019 58.2327 66.2837 58.2434C66.2291 58.2756 66.1525 58.2703 66.0685 58.222L37.1327 41.8222V41.8169L37.1381 39.6933L37.2038 16.9229H37.2074L66.4442 33.4836V33.4855Z" fill="white"/>
<path opacity="0.9" d="M66.4716 28.0506V28.3657L66.4661 30.4894L46.1676 18.9923L44.876 16.4085L41.7951 14.6609C41.7951 14.6609 41.7861 14.6555 41.7806 14.6555C41.7714 14.652 41.7659 14.652 41.7586 14.6555C41.7405 14.6627 41.7348 14.6931 41.7514 14.7272L42.8312 17.0996H42.8277L42.2221 16.7541L41.091 14.2849L41.0619 14.2688L37.058 11.9876L36.9484 11.9249L33.3915 9.89805L33.3751 9.91058L31.9668 10.9491L27.8353 8.60885L25.6883 7.39306L25.6956 4.94179C25.6956 4.83078 25.7431 4.75916 25.8159 4.73767C25.8671 4.72156 25.9326 4.7323 26.0021 4.77169L27.8443 5.81558L47.8549 17.1569H47.8584L66.1689 27.5368C66.3385 27.6335 66.4754 27.8644 66.4735 28.0542L66.4716 28.0506Z" fill="#6E17FF"/>
<g opacity="0.7">
<path opacity="0.7" d="M66.4716 28.0506V28.3657L66.4661 30.4894L46.1676 18.9923L44.876 16.4085L41.7951 14.6609C41.7951 14.6609 41.7861 14.6555 41.7806 14.6555C41.7714 14.652 41.7659 14.652 41.7586 14.6555C41.7405 14.6627 41.7348 14.6931 41.7514 14.7272L42.8312 17.0996H42.8277L42.2221 16.7541L41.091 14.2849L41.0619 14.2688L37.058 11.9876L36.9484 11.9249L33.3915 9.89805L33.3751 9.91058L31.9668 10.9491L27.8353 8.60885L25.6883 7.39306L25.6956 4.94179C25.6956 4.83078 25.7431 4.75916 25.8159 4.73767C25.8671 4.72156 25.9326 4.7323 26.0021 4.77169L27.8443 5.81558L47.8549 17.1569H47.8584L66.1689 27.5368C66.3385 27.6335 66.4754 27.8644 66.4735 28.0542L66.4716 28.0506Z" fill="url(#paint0_linear_6722_31908)"/>
</g>
<path opacity="0.9" d="M33.6305 22.9492L33.572 22.9186V22.915L33.6305 22.9492Z" fill="#7808FF"/>
<g opacity="0.9">
<path opacity="0.9" d="M27.0071 6.45451C27.2242 6.57806 27.3993 6.87529 27.3993 7.1206C27.3993 7.36591 27.2223 7.4626 27.0053 7.34084C26.7882 7.21908 26.6131 6.92006 26.6148 6.67654C26.6167 6.43303 26.7918 6.33276 27.0088 6.4563L27.0071 6.45451Z" fill="white"/>
<path opacity="0.9" d="M28.1106 7.07366C28.3277 7.1972 28.5028 7.49443 28.5028 7.73973C28.5028 7.98504 28.3258 8.08174 28.1088 7.95997C27.8917 7.83822 27.7166 7.5392 27.7185 7.29568C27.7202 7.05217 27.8955 6.9519 28.1125 7.07544L28.1106 7.07366Z" fill="white"/>
<path opacity="0.9" d="M29.2488 7.76116C29.4661 7.88472 29.6411 8.18193 29.6411 8.42724C29.6411 8.67254 29.4642 8.76925 29.2471 8.64748C29.0301 8.52573 28.8548 8.22671 28.8567 7.98319C28.8586 7.73967 29.0337 7.63939 29.2507 7.76295L29.2488 7.76116Z" fill="white"/>
</g>
<path opacity="0.9" d="M43.7578 16.3427C44.046 16.5057 44.2777 16.9014 44.2759 17.2255C44.2759 17.5496 44.0405 17.6803 43.7542 17.5174C43.4679 17.3544 43.2345 16.9605 43.2362 16.6364C43.2362 16.3123 43.4696 16.1816 43.7578 16.3445V16.3427Z" fill="#7808FF"/>
<path opacity="0.9" d="M62.9639 29.1949C63.1117 29.2791 63.2303 29.4815 63.2303 29.6479L63.2265 30.8262C63.2265 30.9926 63.1062 31.0606 62.9584 30.9765L30.9545 12.8382C30.8068 12.7541 30.6882 12.5517 30.6882 12.3852L30.6917 11.207C30.6917 11.0405 30.8122 10.9725 30.96 11.0566L62.9639 29.1949Z" fill="white"/>
<path opacity="0.9" d="M62.2361 29.1802C62.2361 29.1802 62.2416 29.1855 62.2433 29.1891L62.351 29.6261L62.3583 29.6349L62.7084 29.8337C62.7084 29.8337 62.7177 29.848 62.7122 29.8499L62.4295 29.9214V29.9286L62.5334 30.3637C62.5334 30.3637 62.5315 30.3728 62.526 30.3709C62.526 30.3709 62.5244 30.3692 62.5225 30.3673L62.2416 29.9752L62.2324 29.9697L61.9496 30.0415C61.9496 30.0415 61.9479 30.0415 61.946 30.0415C61.9423 30.0396 61.9387 30.0325 61.9406 30.027L62.0499 29.7138V29.7029L61.7655 29.3108C61.7655 29.3108 61.7636 29.2949 61.7691 29.2984L62.1192 29.497H62.1266L62.2361 29.1819C62.2361 29.1819 62.2397 29.1783 62.2416 29.1802H62.2361Z" fill="#6E17FF"/>
<g opacity="0.9">
<path opacity="0.9" d="M65.5122 30.9009V30.9851L64.2899 30.2922V30.208L65.5122 30.9009Z" fill="#7808FF"/>
<path opacity="0.9" d="M65.5122 31.2837V31.3698L64.2899 30.6769V30.5908L65.5122 31.2837Z" fill="#7808FF"/>
<path opacity="0.9" d="M65.5122 31.6695V31.7537L64.2899 31.0626V30.9766L65.5122 31.6695Z" fill="#7808FF"/>
<path opacity="0.9" d="M65.5122 32.0542V32.1384L64.2899 31.4455V31.3613L65.5122 32.0542Z" fill="#7808FF"/>
</g>
<g opacity="0.9">
<path opacity="0.9" d="M26.6715 8.90614C26.6879 8.9151 26.7043 8.93122 26.7171 8.95091C26.7481 8.99566 26.7517 9.05119 26.7261 9.06909L26.427 9.29649L27.3848 9.83903C27.4249 9.8605 27.4558 9.91603 27.4558 9.96078C27.4558 10.0056 27.423 10.0235 27.3848 10.0002L26.4379 9.46301L26.7225 9.97331C26.7481 10.0199 26.7463 10.07 26.7171 10.0843C26.7026 10.0897 26.686 10.0879 26.6696 10.079C26.6514 10.0682 26.6314 10.0467 26.6167 10.0217L26.2263 9.32334L26.2208 9.31259C26.2118 9.29468 26.2064 9.27858 26.2045 9.26425C26.2045 9.25352 26.2045 9.24277 26.2045 9.23381L26.2082 9.22128L26.2154 9.21053L26.2192 9.20696L26.6167 8.90257C26.6314 8.89182 26.6514 8.89361 26.6715 8.90614Z" fill="white"/>
<path opacity="0.9" d="M26.2028 9.26758C26.2028 9.26758 26.2044 9.28194 26.2082 9.28914C26.2118 9.2981 26.2156 9.30708 26.221 9.31607C26.2118 9.2981 26.2063 9.28194 26.2044 9.26758H26.2028Z" fill="white"/>
</g>
<g opacity="0.9">
<path opacity="0.9" d="M28.8968 10.1401C28.9169 10.1508 28.9369 10.1723 28.9516 10.1991L29.3475 10.953L29.351 10.9619L29.3584 10.9816L29.3619 10.9995C29.3638 11.0121 29.3638 11.0228 29.3619 11.03L29.3584 11.0425L29.3529 11.0532L29.3456 11.0604L28.9461 11.3218C28.9314 11.3308 28.9134 11.329 28.8932 11.3182C28.8749 11.3075 28.8586 11.2914 28.8458 11.2699C28.8166 11.2234 28.8147 11.1714 28.8422 11.1535L29.1285 10.9673L28.1818 10.4301C28.1417 10.4069 28.1107 10.3531 28.1107 10.3084C28.1107 10.2636 28.1417 10.2457 28.1818 10.269L29.1375 10.8115L28.8422 10.2475C28.8166 10.1991 28.822 10.1508 28.8512 10.1383C28.864 10.1329 28.8804 10.1365 28.8968 10.1454V10.1401Z" fill="white"/>
<path opacity="0.9" d="M29.3565 11.041L29.3546 11.0445L29.351 11.0516L29.3565 11.041Z" fill="white"/>
</g>
<path opacity="0.9" d="M26.1589 19.2412L26.2063 19.3146L26.1698 19.3415L26.1224 19.2698L26.1589 19.2412Z" fill="#7808FF"/>
<path opacity="0.9" d="M37.0725 12.7847C37.3479 12.9405 37.5706 13.3183 37.5687 13.6281C37.5668 13.9379 37.3443 14.0632 37.0689 13.9074L34.1266 12.2404C33.8511 12.0846 33.6286 11.7068 33.6303 11.3971C33.6303 11.0873 33.8547 10.962 34.1301 11.1177L37.0725 12.7847Z" fill="#6E17FF"/>
<path opacity="0.9" d="M47.8529 17.1534L27.8426 5.81384L26.0002 4.76995C25.929 4.73056 25.8652 4.71981 25.8142 4.73593L27.9465 3.83707C28.0013 3.812 28.0741 3.81737 28.1526 3.86393L68.3194 26.6272C68.4873 26.7238 68.624 26.9549 68.624 27.1447L68.6168 29.5834H68.615L66.4644 30.4894L66.4699 28.3676V28.0507C66.4715 27.8609 66.3349 27.63 66.1651 27.5332L47.8548 17.1552" fill="#562ED0"/>
<path d="M68.5133 32.6055L68.4421 57.1701C68.4421 57.2669 68.4056 57.333 68.3491 57.3634H68.3473L68.329 57.3706L66.2313 58.2551C66.2313 58.2551 66.2423 58.2444 66.2458 58.239C66.2714 58.2033 66.2878 58.1512 66.2878 58.0887V58.0761C66.2878 58.1405 66.2714 58.1907 66.2458 58.2266C66.233 58.2444 66.215 58.2606 66.1984 58.2694L66.2313 58.2551C66.2204 58.2658 66.2112 58.2749 66.1984 58.2803C66.1438 58.3124 66.0672 58.307 65.9832 58.2587L37.0474 41.861L25.82 35.4973C25.6523 35.4005 25.5154 35.1696 25.5154 34.9798L25.5866 10.4277L37.124 16.9632L66.3609 33.5241V33.5115L66.3718 33.5062L68.515 32.6036L68.5133 32.6055Z" fill="#FDFEFE"/>
<path opacity="0.9" d="M68.5986 32.5847L68.5274 57.1493C68.5274 57.2461 68.4909 57.3122 68.4345 57.3426H68.4326L68.4162 57.3497L66.2837 58.2488C66.302 58.2398 66.3185 58.2236 66.3311 58.2058C66.3586 58.1699 66.3731 58.118 66.3731 58.0553L66.3786 56.2773L66.4443 33.4907L66.4535 33.4854L68.5986 32.583V32.5847Z" fill="#EDF1F3"/>
<path opacity="0.8" d="M68.5986 32.5772L68.5275 57.1418C68.5275 57.2385 68.4909 57.3047 68.4345 57.3351H68.4326L68.4143 57.3422L66.3167 58.2268C66.3167 58.2268 66.3276 58.2161 66.3311 58.2106C66.3568 58.175 66.3731 58.1229 66.3731 58.0603V58.0478C66.3731 58.1122 66.3568 58.1624 66.3311 58.1983C66.3183 58.2161 66.3003 58.2323 66.2837 58.2411L66.3167 58.2268C66.3057 58.2375 66.2965 58.2465 66.2837 58.252C66.2291 58.2841 66.1525 58.2787 66.0685 58.2304L37.1327 41.8326L25.9053 35.4689C25.7376 35.3722 25.6008 35.1413 25.6008 34.9515L25.6719 10.3994L37.2094 16.9349L66.4462 33.4958V33.4832L66.4571 33.4779L68.6003 32.5753L68.5986 32.5772Z" fill="url(#paint1_linear_6722_31908)"/>
<path opacity="0.9" d="M66.4644 30.489L66.4443 33.4899L68.5986 32.5839L68.6186 29.583L66.4644 30.489Z" fill="#ABC1C6"/>
<g opacity="0.9">
<path opacity="0.9" d="M44.8487 29.1435C44.9654 29.2099 45.0621 29.3728 45.0603 29.5054C45.0584 29.6379 44.9635 29.6916 44.8468 29.6253L39.0024 26.3128C38.8857 26.2465 38.7889 26.0836 38.7908 25.9511C38.7927 25.8186 38.8876 25.7649 39.0043 25.8311L44.8487 29.1435Z" fill="#EDF1F3"/>
<path opacity="0.9" d="M51.5759 27.8093C51.6927 27.8754 51.7894 28.0385 51.7875 28.171C51.7856 28.3034 51.691 28.3572 51.5741 28.2908L39.0024 21.1663C38.8857 21.1 38.7889 20.9371 38.7908 20.8046C38.7927 20.6721 38.8876 20.6184 39.0043 20.6846L51.5759 27.8093Z" fill="#EDF1F3"/>
<path opacity="0.9" d="M51.5759 29.5104C51.6927 29.5767 51.7894 29.7396 51.7875 29.8721C51.7856 30.0045 51.691 30.0582 51.5741 29.9921L39.0024 22.8675C38.8857 22.8012 38.7889 22.6383 38.7908 22.5058C38.7927 22.3733 38.8876 22.3195 39.0043 22.3858L51.5759 29.5104Z" fill="#EDF1F3"/>
<path opacity="0.9" d="M51.5759 31.0484C51.6927 31.1147 51.7894 31.2776 51.7875 31.4101C51.7856 31.5427 51.691 31.5965 51.5741 31.5301L39.0024 24.4055C38.8857 24.3393 38.7889 24.1763 38.7908 24.0438C38.7927 23.9113 38.8876 23.8576 39.0043 23.9239L51.5759 31.0484Z" fill="#EDF1F3"/>
</g>
<g opacity="0.9">
<path opacity="0.9" d="M33.8383 18.1456C33.9551 18.2118 34.0518 18.3748 34.0499 18.5073C34.0483 18.6398 33.9534 18.6935 33.8367 18.6273L27.9921 15.3147C27.8754 15.2485 27.7788 15.0855 27.7805 14.953C27.7824 14.8205 27.8772 14.7668 27.994 14.8331L33.8383 18.1456Z" fill="white"/>
<path opacity="0.9" d="M33.8383 19.8575C33.9551 19.9237 34.0518 20.0867 34.0499 20.2192C34.0483 20.3517 33.9534 20.4054 33.8367 20.3392L27.9921 17.0266C27.8754 16.9604 27.7788 16.7974 27.7805 16.6649C27.7824 16.5324 27.8772 16.4787 27.994 16.545L33.8383 19.8575Z" fill="white"/>
</g>
<path opacity="0.9" d="M55.3374 35.3178L55.3338 36.1917V36.2005L55.3281 38.3135L26.0877 21.7526L16.6937 16.4293L14.5522 15.2171L14.5612 12.2197L16.7101 13.4355L20.8399 15.7758L22.2243 14.7229L22.2499 14.7372L25.8232 16.7534L25.9328 16.8161L29.922 19.065L29.9367 19.0972L31.0969 21.5843L31.7041 21.9299V21.9263L30.6243 19.5556C30.608 19.518 30.6134 19.4894 30.6334 19.4822C30.639 19.4786 30.6462 19.4786 30.6554 19.4822C30.659 19.4822 30.6644 19.4858 30.6682 19.4876L33.7508 21.2352L35.0424 23.8207L55.3409 35.3178H55.3374Z" fill="#C9D7DD"/>
<path opacity="0.9" d="M26.0823 21.7523L26.0111 46.6517L14.7802 40.2864C14.6124 40.1915 14.4756 39.9587 14.4756 39.7689L14.5467 15.2168L26.0842 21.7523H26.0823Z" fill="#EDF1F3"/>
<path opacity="0.9" d="M55.3191 38.3136L55.2534 61.1001L55.248 62.8782C55.248 62.9408 55.2335 62.9929 55.206 63.0285C55.1932 63.0466 55.1768 63.0609 55.1585 63.0716C55.104 63.1037 55.0273 63.0984 54.9434 63.0502L26.0076 46.6503V46.6451L26.013 44.5214L26.0787 21.751H26.0823L55.3191 38.3118V38.3136Z" fill="white"/>
<path opacity="0.9" d="M55.3464 32.8787V33.1938L55.3409 35.3175L35.0424 23.8204L33.7508 21.2366L30.6699 19.489C30.6699 19.489 30.6609 19.4837 30.6554 19.4837C30.6462 19.4801 30.6407 19.4801 30.6334 19.4837C30.6153 19.4908 30.6097 19.5213 30.6262 19.5553L31.706 21.9278H31.7025L31.0969 21.5822L29.9659 19.113L29.9367 19.0969L25.9328 16.8158L25.8232 16.7531L22.2663 14.7262L22.2499 14.7387L20.8416 15.7772L16.7101 13.437L14.5631 12.2212L14.5705 9.76992C14.5705 9.65891 14.6179 9.58728 14.6907 9.5658C14.742 9.54968 14.8074 9.56042 14.8769 9.59982L16.7191 10.6437L36.7297 21.9851H36.7332L55.0437 32.3649C55.2133 32.4616 55.3502 32.6925 55.3483 32.8823L55.3464 32.8787Z" fill="#6E17FF"/>
<g opacity="0.7">
<path opacity="0.7" d="M55.3464 32.8787V33.1938L55.3409 35.3175L35.0424 23.8204L33.7508 21.2366L30.6699 19.489C30.6699 19.489 30.6609 19.4837 30.6554 19.4837C30.6462 19.4801 30.6407 19.4801 30.6334 19.4837C30.6153 19.4908 30.6097 19.5213 30.6262 19.5553L31.706 21.9278H31.7025L31.0969 21.5822L29.9659 19.113L29.9367 19.0969L25.9328 16.8158L25.8232 16.7531L22.2663 14.7262L22.2499 14.7387L20.8416 15.7772L16.7101 13.437L14.5631 12.2212L14.5705 9.76992C14.5705 9.65891 14.6179 9.58728 14.6907 9.5658C14.742 9.54968 14.8074 9.56042 14.8769 9.59982L16.7191 10.6437L36.7297 21.9851H36.7332L55.0437 32.3649C55.2133 32.4616 55.3502 32.6925 55.3483 32.8823L55.3464 32.8787Z" fill="url(#paint2_linear_6722_31908)"/>
</g>
<path opacity="0.9" d="M22.5053 27.7773L22.4468 27.7468V27.7432L22.5053 27.7773Z" fill="#7808FF"/>
<g opacity="0.9">
<path opacity="0.9" d="M15.882 11.2826C16.0991 11.4062 16.2741 11.7034 16.2741 11.9487C16.2741 12.194 16.0972 12.2907 15.8801 12.169C15.6631 12.0472 15.488 11.7482 15.4897 11.5047C15.4916 11.2612 15.6667 11.1609 15.8837 11.2844L15.882 11.2826Z" fill="white"/>
<path opacity="0.9" d="M16.9855 11.9018C17.2026 12.0253 17.3776 12.3226 17.3776 12.5679C17.3776 12.8132 17.2007 12.9099 16.9836 12.7881C16.7666 12.6663 16.5915 12.3673 16.5934 12.1238C16.5951 11.8803 16.7704 11.78 16.9874 11.9036L16.9855 11.9018Z" fill="white"/>
<path opacity="0.9" d="M18.1237 12.5893C18.341 12.7128 18.516 13.0101 18.516 13.2554C18.516 13.5007 18.3391 13.5974 18.122 13.4756C17.905 13.3539 17.7297 13.0548 17.7316 12.8113C17.7335 12.5678 17.9085 12.4675 18.1256 12.5911L18.1237 12.5893Z" fill="white"/>
</g>
<path opacity="0.9" d="M32.6326 21.1709C32.9208 21.3338 33.1526 21.7295 33.1507 22.0536C33.1507 22.3777 32.9154 22.5084 32.629 22.3455C32.3427 22.1825 32.1093 21.7886 32.111 21.4645C32.111 21.1404 32.3444 21.0097 32.6326 21.1727V21.1709Z" fill="#7808FF"/>
<path opacity="0.9" d="M51.8388 34.0231C51.9866 34.1072 52.1052 34.3096 52.1052 34.4761L52.1014 35.6543C52.1014 35.8208 51.9811 35.8888 51.8333 35.8046L19.8294 17.6664C19.6816 17.5822 19.563 17.3799 19.563 17.2133L19.5666 16.0352C19.5666 15.8686 19.6871 15.8006 19.8349 15.8848L51.8388 34.0231Z" fill="white"/>
<path opacity="0.9" d="M51.111 34.0084C51.111 34.0084 51.1165 34.0136 51.1182 34.0172L51.2258 34.4542L51.2332 34.463L51.5833 34.6618C51.5833 34.6618 51.5926 34.6761 51.5871 34.678L51.3043 34.7496V34.7567L51.4083 35.1919C51.4083 35.1919 51.4064 35.2009 51.4009 35.199C51.4009 35.199 51.3992 35.1973 51.3973 35.1954L51.1165 34.8033L51.1072 34.7978L50.8245 34.8696C50.8245 34.8696 50.8228 34.8696 50.8209 34.8696C50.8171 34.8677 50.8136 34.8606 50.8155 34.8552L50.9248 34.542V34.531L50.6404 34.1389C50.6404 34.1389 50.6385 34.123 50.644 34.1265L50.9941 34.3251H51.0014L51.111 34.01C51.111 34.01 51.1146 34.0065 51.1165 34.0084H51.111Z" fill="#6E17FF"/>
<g opacity="0.9">
<path opacity="0.9" d="M54.3871 35.7291V35.8132L53.1648 35.1203V35.0361L54.3871 35.7291Z" fill="#7808FF"/>
<path opacity="0.9" d="M54.3871 36.1119V36.1979L53.1648 35.505V35.4189L54.3871 36.1119Z" fill="#7808FF"/>
<path opacity="0.9" d="M54.3871 36.4976V36.5818L53.1648 35.8908V35.8047L54.3871 36.4976Z" fill="#7808FF"/>
<path opacity="0.9" d="M54.3871 36.8824V36.9666L53.1648 36.2736V36.1895L54.3871 36.8824Z" fill="#7808FF"/>
</g>
<g opacity="0.9">
<path opacity="0.9" d="M15.5464 13.7343C15.5628 13.7432 15.5791 13.7593 15.592 13.779C15.623 13.8238 15.6266 13.8793 15.601 13.8972L15.3019 14.1246L16.2597 14.6672C16.2998 14.6886 16.3306 14.7442 16.3306 14.7889C16.3306 14.8337 16.2979 14.8516 16.2597 14.8283L15.3128 14.2911L15.5974 14.8014C15.623 14.848 15.6211 14.8981 15.592 14.9125C15.5775 14.9178 15.5609 14.916 15.5445 14.9071C15.5262 14.8963 15.5063 14.8748 15.4916 14.8498L15.1012 14.1515L15.0957 14.1407C15.0867 14.1228 15.0812 14.1067 15.0793 14.0924C15.0793 14.0816 15.0793 14.0709 15.0793 14.0619L15.0831 14.0494L15.0903 14.0387L15.094 14.0351L15.4916 13.7307C15.5063 13.7199 15.5263 13.7217 15.5464 13.7343Z" fill="white"/>
<path opacity="0.9" d="M15.0776 14.0957C15.0776 14.0957 15.0793 14.1101 15.0831 14.1173C15.0867 14.1262 15.0904 14.1352 15.0959 14.1442C15.0867 14.1262 15.0812 14.1101 15.0793 14.0957H15.0776Z" fill="white"/>
</g>
<g opacity="0.9">
<path opacity="0.9" d="M17.7717 14.9682C17.7918 14.9789 17.8117 15.0004 17.8264 15.0273L18.2223 15.7811L18.2259 15.7901L18.2333 15.8097L18.2368 15.8276C18.2387 15.8402 18.2387 15.8509 18.2368 15.8581L18.2333 15.8706L18.2278 15.8814L18.2204 15.8885L17.821 16.1499C17.8063 16.1589 17.7882 16.1571 17.7681 16.1464C17.7498 16.1356 17.7335 16.1195 17.7206 16.098C17.6915 16.0515 17.6896 15.9995 17.7171 15.9816L18.0034 15.7954L17.0567 15.2583C17.0166 15.235 16.9855 15.1813 16.9855 15.1365C16.9855 15.0917 17.0166 15.0738 17.0567 15.0971L18.0124 15.6396L17.7171 15.0756C17.6915 15.0273 17.6969 14.9789 17.7261 14.9664C17.7389 14.961 17.7553 14.9646 17.7717 14.9736V14.9682Z" fill="white"/>
<path opacity="0.9" d="M18.2313 15.8691L18.2295 15.8727L18.2259 15.8797L18.2313 15.8691Z" fill="white"/>
</g>
<path opacity="0.9" d="M15.0337 24.0693L15.0812 24.1427L15.0446 24.1696L14.9972 24.098L15.0337 24.0693Z" fill="#7808FF"/>
<path opacity="0.9" d="M25.9473 17.6129C26.2227 17.7686 26.4454 18.1465 26.4435 18.4562C26.4416 18.766 26.2191 18.8913 25.9437 18.7355L23.0014 17.0685C22.726 16.9128 22.5035 16.535 22.5051 16.2252C22.5051 15.9154 22.7295 15.7901 23.0049 15.9459L25.9473 17.6129Z" fill="#6E17FF"/>
<path opacity="0.9" d="M36.7278 21.9815L16.7175 10.642L14.8751 9.59807C14.8039 9.55868 14.7401 9.54794 14.6891 9.56405L16.8214 8.6652C16.8762 8.64013 16.949 8.6455 17.0275 8.69205L57.1943 31.4554C57.3622 31.5519 57.4989 31.783 57.4989 31.9728L57.4917 34.4116H57.4898L55.3393 35.3175L55.3447 33.1958V32.8788C55.3464 32.689 55.2098 32.4581 55.0399 32.3614L36.7297 21.9833" fill="#562ED0"/>
<path d="M57.4734 37.4053L57.4023 61.9699C57.4023 62.0667 57.3658 62.1328 57.3093 62.1632H57.3074L57.2891 62.1704L55.1915 63.0549C55.1915 63.0549 55.2024 63.0442 55.206 63.0388C55.2316 63.0031 55.2479 62.951 55.2479 62.8885V62.8759C55.2479 62.9403 55.2316 62.9905 55.206 63.0264C55.1932 63.0442 55.1751 63.0604 55.1585 63.0692L55.1915 63.0549C55.1806 63.0656 55.1713 63.0747 55.1585 63.0801C55.1039 63.1122 55.0273 63.1068 54.9434 63.0585L26.0075 46.6608L14.7802 40.2971C14.6124 40.2003 14.4756 39.9694 14.4756 39.7796L14.5467 15.2275L26.0842 21.763L55.321 38.3239V38.3113L55.3319 38.306L57.4751 37.4034L57.4734 37.4053Z" fill="#FDFEFE"/>
<path opacity="0.9" d="M57.4734 37.4128L57.4023 61.9774C57.4023 62.0742 57.3657 62.1403 57.3093 62.1707H57.3074L57.291 62.1779L55.1585 63.0769C55.1768 63.0679 55.1934 63.0517 55.2059 63.0339C55.2334 62.998 55.2479 62.9462 55.2479 62.8834L55.2534 61.1054L55.3191 38.3188L55.3283 38.3135L57.4734 37.4111V37.4128Z" fill="#EDF1F3"/>
<path opacity="0.8" d="M57.4734 37.4053L57.4023 61.9699C57.4023 62.0667 57.3658 62.1328 57.3093 62.1632H57.3074L57.2891 62.1704L55.1915 63.0549C55.1915 63.0549 55.2024 63.0442 55.206 63.0388C55.2316 63.0031 55.2479 62.951 55.2479 62.8885V62.8759C55.2479 62.9403 55.2316 62.9905 55.206 63.0264C55.1932 63.0442 55.1751 63.0604 55.1585 63.0692L55.1915 63.0549C55.1806 63.0656 55.1713 63.0747 55.1585 63.0801C55.1039 63.1122 55.0273 63.1068 54.9434 63.0585L26.0075 46.6608L14.7802 40.2971C14.6124 40.2003 14.4756 39.9694 14.4756 39.7796L14.5467 15.2275L26.0842 21.763L55.321 38.3239V38.3113L55.3319 38.306L57.4751 37.4034L57.4734 37.4053Z" fill="url(#paint3_linear_6722_31908)"/>
<path opacity="0.9" d="M55.3392 35.3171L55.3191 38.318L57.4734 37.412L57.4934 34.4111L55.3392 35.3171Z" fill="#ABC1C6"/>
<g opacity="0.9">
<path opacity="0.9" d="M33.7235 33.9717C33.8403 34.038 33.937 34.2009 33.9351 34.3335C33.9332 34.466 33.8384 34.5197 33.7217 34.4534L27.8773 31.1409C27.7606 31.0747 27.6638 30.9117 27.6657 30.7792C27.6676 30.6467 27.7624 30.593 27.8792 30.6592L33.7235 33.9717Z" fill="#EDF1F3"/>
<path opacity="0.9" d="M40.4508 32.6374C40.5675 32.7036 40.6643 32.8667 40.6624 32.9991C40.6605 33.1316 40.5659 33.1853 40.4489 33.119L27.8773 25.9944C27.7606 25.9282 27.6638 25.7652 27.6657 25.6327C27.6676 25.5002 27.7624 25.4465 27.8792 25.5127L40.4508 32.6374Z" fill="#EDF1F3"/>
<path opacity="0.9" d="M40.4508 34.3385C40.5675 34.4048 40.6643 34.5677 40.6624 34.7002C40.6605 34.8326 40.5659 34.8864 40.4489 34.8202L27.8773 27.6956C27.7606 27.6293 27.6638 27.4664 27.6657 27.3339C27.6676 27.2014 27.7624 27.1477 27.8792 27.2139L40.4508 34.3385Z" fill="#EDF1F3"/>
<path opacity="0.9" d="M40.4508 35.8765C40.5675 35.9429 40.6643 36.1057 40.6624 36.2382C40.6605 36.3709 40.5659 36.4246 40.4489 36.3583L27.8773 29.2337C27.7606 29.1674 27.6638 29.0045 27.6657 28.872C27.6676 28.7395 27.7624 28.6858 27.8792 28.752L40.4508 35.8765Z" fill="#EDF1F3"/>
</g>
<g opacity="0.9">
<path opacity="0.9" d="M22.7132 22.9737C22.8299 23.04 22.9266 23.2029 22.9248 23.3354C22.9231 23.4679 22.8282 23.5216 22.7115 23.4554L16.8669 20.1429C16.7502 20.0766 16.6536 19.9137 16.6553 19.7812C16.6572 19.6487 16.7521 19.5949 16.8688 19.6612L22.7132 22.9737Z" fill="white"/>
<path opacity="0.9" d="M22.7132 24.6856C22.8299 24.7519 22.9266 24.9148 22.9248 25.0473C22.9231 25.1798 22.8282 25.2335 22.7115 25.1673L16.8669 21.8548C16.7502 21.7885 16.6536 21.6256 16.6553 21.4931C16.6572 21.3606 16.7521 21.3069 16.8688 21.3731L22.7132 24.6856Z" fill="white"/>
</g>
<path d="M44.2741 40.5052L44.2705 41.3791V41.3881L44.2651 43.5009L15.0228 26.9401L5.62859 21.6168L3.48706 20.4046L3.4963 17.4072L5.64496 18.623L9.77478 20.9632L11.1594 19.9104L11.1848 19.9247L14.7583 21.9409L14.8677 22.0036L18.8571 24.2525L18.8715 24.2847L20.0317 26.7718L20.6392 27.1174V27.1138L19.5592 24.7431C19.5428 24.7055 19.5483 24.6769 19.5685 24.6697C19.5739 24.6661 19.5813 24.6661 19.5903 24.6697C19.5941 24.6697 19.5995 24.6733 19.6031 24.6751L22.6859 26.4227L23.9773 29.0082L44.276 40.5052H44.2741Z" fill="#C9D7DD"/>
<path d="M15.019 26.9398L14.9481 51.8392L3.71694 45.4738C3.54922 45.3789 3.41235 45.1461 3.41235 44.9563L3.48351 20.4043L15.0209 26.9398H15.019Z" fill="url(#paint4_linear_6722_31908)"/>
<path d="M44.2559 43.5011L44.1902 66.2877L44.1847 68.0657C44.1847 68.1284 44.1702 68.1803 44.1427 68.2162C44.1302 68.234 44.1136 68.2483 44.0955 68.259C44.0407 68.2913 43.9641 68.2859 43.8802 68.2376L14.9443 51.8379V51.8325L14.9498 49.709L15.0155 26.9385H15.0193L44.2559 43.4994V43.5011Z" fill="white"/>
<path d="M44.2815 38.0664V38.3814L44.276 40.5049L23.9773 29.0079L22.6859 26.4241L19.605 24.6765C19.605 24.6765 19.5958 24.6712 19.5903 24.6712C19.5813 24.6676 19.5758 24.6676 19.5685 24.6712C19.5502 24.6783 19.5447 24.7088 19.5611 24.7428L20.6411 27.1153H20.6373L20.0317 26.7697L18.9007 24.3005L18.8716 24.2844L14.8677 22.0032L14.7583 21.9406L11.2014 19.9137L11.1848 19.9262L9.77668 20.9647L5.64497 18.6245L3.49799 17.4087L3.50533 14.9574C3.50533 14.8464 3.55277 14.7748 3.62582 14.7533C3.67683 14.7372 3.74253 14.7479 3.8118 14.7873L5.65421 15.8312L25.6645 27.1726H25.6683L43.9786 37.5523C44.1484 37.6491 44.285 37.88 44.2834 38.0699L44.2815 38.0664Z" fill="#6E17FF"/>
<g opacity="0.7">
<path opacity="0.7" d="M44.2815 38.0664V38.3814L44.276 40.5049L23.9773 29.0079L22.6859 26.4241L19.605 24.6765C19.605 24.6765 19.5958 24.6712 19.5903 24.6712C19.5813 24.6676 19.5758 24.6676 19.5685 24.6712C19.5502 24.6783 19.5447 24.7088 19.5611 24.7428L20.6411 27.1153H20.6373L20.0317 26.7697L18.9007 24.3005L18.8716 24.2844L14.8677 22.0032L14.7583 21.9406L11.2014 19.9137L11.1848 19.9262L9.77668 20.9647L5.64497 18.6245L3.49799 17.4087L3.50533 14.9574C3.50533 14.8464 3.55277 14.7748 3.62582 14.7533C3.67683 14.7372 3.74253 14.7479 3.8118 14.7873L5.65421 15.8312L25.6645 27.1726H25.6683L43.9786 37.5523C44.1484 37.6491 44.285 37.88 44.2834 38.0699L44.2815 38.0664Z" fill="url(#paint5_linear_6722_31908)"/>
</g>
<path d="M11.4424 32.9647L11.3819 32.9342V32.9307L11.4424 32.9647Z" fill="#7808FF"/>
<path d="M4.81688 16.4701C5.03393 16.5937 5.2092 16.8909 5.2092 17.1362C5.2092 17.3815 5.03225 17.4782 4.8152 17.3565C4.59794 17.2347 4.42287 16.9357 4.42476 16.6922C4.42665 16.4487 4.60171 16.3484 4.81876 16.4719L4.81688 16.4701Z" fill="white"/>
<path d="M5.9206 17.0883C6.13765 17.2118 6.31271 17.5091 6.31271 17.7544C6.31271 17.9997 6.13576 18.0964 5.91871 17.9746C5.70166 17.8529 5.52659 17.5538 5.52827 17.3103C5.53016 17.0668 5.70523 16.9665 5.92228 17.0901L5.9206 17.0883Z" fill="white"/>
<path d="M7.06061 17.7758C7.27766 17.8993 7.45273 18.1966 7.45273 18.4419C7.45273 18.6872 7.27577 18.7839 7.05872 18.6621C6.84167 18.5404 6.66661 18.2413 6.66829 17.9978C6.67018 17.7543 6.84524 17.654 7.06229 17.7776L7.06061 17.7758Z" fill="white"/>
<path d="M21.5696 26.3584C21.8578 26.5213 22.0893 26.917 22.0876 27.2411C22.0858 27.5652 21.8523 27.6959 21.5658 27.533C21.2795 27.37 21.0461 26.9761 21.0477 26.652C21.0477 26.3279 21.2814 26.1972 21.5696 26.3602V26.3584Z" fill="#7808FF"/>
<path d="M40.7737 39.2105C40.9214 39.2947 41.04 39.497 41.04 39.6635L41.0365 40.8417C41.0365 41.0082 40.916 41.0764 40.7682 40.9922L8.7643 22.8539C8.61652 22.7697 8.49792 22.5674 8.49792 22.4009L8.5017 21.2227C8.5017 21.0562 8.62198 20.9881 8.76976 21.0723L40.7737 39.2105Z" fill="white"/>
<path d="M40.0459 39.1958C40.0459 39.1958 40.0513 39.2013 40.0532 39.2049L40.1609 39.6417L40.168 39.6507L40.5184 39.8493C40.5184 39.8493 40.5274 39.8638 40.522 39.8655L40.2392 39.937V39.9444L40.3433 40.3793C40.3433 40.3793 40.3414 40.3884 40.336 40.3865C40.336 40.3865 40.3341 40.3848 40.3322 40.3829L40.0513 39.9908L40.0423 39.9855L39.7596 40.0571C39.7596 40.0571 39.7577 40.0571 39.7558 40.0571C39.7522 40.0552 39.7486 40.0481 39.7503 40.0428L39.8599 39.7294V39.7187L39.5753 39.3266C39.5753 39.3266 39.5734 39.3105 39.579 39.314L39.9292 39.5128H39.9365L40.0459 39.1977C40.0459 39.1977 40.0497 39.194 40.0513 39.1958H40.0459Z" fill="#6E17FF"/>
<path d="M43.3239 40.9166V41.0007L42.1017 40.3078V40.2236L43.3239 40.9166Z" fill="#7808FF"/>
<path d="M43.3239 41.3003V41.3845L42.1017 40.6933V40.6074L43.3239 41.3003Z" fill="#7808FF"/>
<path d="M43.3239 41.6851V41.7693L42.1017 41.0764V40.9922L43.3239 41.6851Z" fill="#7808FF"/>
<path d="M43.3239 42.068V42.154L42.1017 41.4609V41.377L43.3239 42.068Z" fill="#7808FF"/>
<path d="M4.48125 18.9218C4.49763 18.9307 4.51421 18.9468 4.52701 18.9665C4.55787 19.0113 4.56165 19.0668 4.53604 19.0847L4.23691 19.3121L5.19453 19.8547C5.23463 19.8761 5.2657 19.9316 5.2657 19.9764C5.2657 20.0212 5.23274 20.0391 5.19453 20.0158L4.24783 19.4786L4.53247 19.9889C4.55787 20.0355 4.55619 20.0856 4.52701 20.1C4.51232 20.1053 4.49594 20.1035 4.47957 20.0946C4.46131 20.0838 4.44116 20.0624 4.42667 20.0373L4.03624 19.339L4.03078 19.3282C4.02154 19.3103 4.01608 19.2942 4.0144 19.2799C4.0144 19.2691 4.0144 19.2584 4.0144 19.2494L4.01798 19.2369L4.02532 19.2262L4.02889 19.2226L4.42667 18.9182C4.44116 18.9074 4.46131 18.9092 4.48125 18.9218Z" fill="white"/>
<path d="M4.01251 19.2812C4.01251 19.2812 4.0144 19.2956 4.01797 19.3028C4.02175 19.3118 4.02531 19.3208 4.03077 19.3297C4.02175 19.3118 4.01608 19.2956 4.0144 19.2812H4.01251Z" fill="white"/>
<path d="M6.70671 20.1557C6.72666 20.1664 6.74681 20.1879 6.7615 20.2148L7.15719 20.9686L7.16097 20.9775L7.1681 20.9972L7.17188 21.0151C7.17377 21.0277 7.17377 21.0384 7.17188 21.0456L7.1681 21.0581L7.16264 21.0689L7.15551 21.076L6.75604 21.3374C6.74135 21.3464 6.72309 21.3446 6.70315 21.3339C6.68488 21.3231 6.6683 21.307 6.65571 21.2855C6.62653 21.239 6.62464 21.187 6.65193 21.1691L6.93846 20.9829L5.99154 20.4458C5.95145 20.4225 5.92059 20.3688 5.92059 20.324C5.92059 20.2792 5.95145 20.2613 5.99154 20.2846L6.94748 20.8271L6.65193 20.2631C6.62653 20.2148 6.63199 20.1664 6.66116 20.1539C6.67376 20.1485 6.69034 20.1521 6.70671 20.1611V20.1557Z" fill="white"/>
<path d="M7.16812 21.0557L7.16644 21.0592L7.16266 21.0662L7.16812 21.0557Z" fill="white"/>
<path d="M3.96863 29.2568L4.01607 29.3303L3.97975 29.3571L3.93231 29.2837L3.96863 29.2568Z" fill="#7808FF"/>
<path d="M14.8841 22.8004C15.1597 22.9561 15.3822 23.334 15.3803 23.6437C15.3784 23.9535 15.1559 24.0788 14.8805 23.923L11.9382 22.256C11.6628 22.1003 11.4403 21.7225 11.4422 21.4127C11.4422 21.1029 11.6665 20.9776 11.942 21.1334L14.8841 22.8004Z" fill="#6E17FF"/>
<path d="M25.6629 27.169L5.65235 15.8295L3.80994 14.7856C3.73878 14.7462 3.67497 14.7354 3.62396 14.7516L5.75625 13.8527C5.81104 13.8276 5.88409 13.833 5.96239 13.8796L46.1294 36.6428C46.2971 36.7396 46.4339 36.9705 46.4339 37.1602L46.4266 39.599H46.4247L44.2741 40.505L44.2796 38.3832V38.0664C44.2815 37.8764 44.1446 37.6455 43.975 37.5488L25.6646 27.1708" fill="#562ED0"/>
<path d="M46.4102 42.6005L46.3391 67.1649C46.3391 67.2617 46.3025 67.328 46.2461 67.3584H46.2442L46.2278 67.3656L44.0955 68.2644C44.1136 68.2554 44.1302 68.2392 44.1427 68.2214C44.1702 68.1857 44.1847 68.1337 44.1847 68.0711L44.1902 66.2929L44.2559 43.5065L44.2651 43.501L46.4102 42.5986V42.6005Z" fill="#8BABB5"/>
<path opacity="0.8" d="M44.2815 68.1779L44.1282 68.2426C44.1282 68.2426 44.1392 68.2316 44.1427 68.2264C44.1683 68.1905 44.1847 68.1387 44.1847 68.0759V68.0635C44.1847 68.1279 44.1683 68.1779 44.1427 68.2138C44.1301 68.2316 44.1119 68.2478 44.0955 68.2568L44.1282 68.2426C44.1173 68.2533 44.1081 68.2621 44.0955 68.2675C44.0407 68.2997 43.9641 68.2944 43.8801 68.2461L14.9443 51.8482L3.71694 45.4845C3.54922 45.3879 3.41235 45.1568 3.41235 44.967L3.48351 20.415L15.0209 26.9505L44.2578 43.5113V43.4989L44.2687 43.4935L44.276 43.4899L44.2851 68.1779H44.2815Z" fill="url(#paint6_linear_6722_31908)"/>
<path d="M44.276 40.5053L44.2559 43.5064L46.4102 42.6005L46.4285 39.5977L44.276 40.5053Z" fill="#95B7BF"/>
<path d="M22.6603 39.1563C22.777 39.2226 22.8738 39.3855 22.8719 39.518C22.8702 39.6506 22.7753 39.7044 22.6586 39.638L16.814 36.3254C16.6973 36.2593 16.6008 36.0964 16.6024 35.9637C16.6043 35.8313 16.6992 35.7775 16.8159 35.8439L22.6603 39.1563Z" fill="#EDF1F3"/>
<path d="M29.3876 37.8248C29.5045 37.8912 29.6011 38.0541 29.5992 38.1865C29.5992 38.319 29.5026 38.3727 29.3859 38.3066L16.814 31.1819C16.6973 31.1157 16.6008 30.9527 16.6024 30.8202C16.6043 30.6877 16.6992 30.634 16.8159 30.7003L29.3876 37.8248Z" fill="#EDF1F3"/>
<path d="M29.3876 39.5261C29.5045 39.5922 29.6011 39.7551 29.5992 39.8878C29.5992 40.0202 29.5026 40.074 29.3859 40.0077L16.814 32.883C16.6973 32.8169 16.6008 32.6538 16.6024 32.5213C16.6043 32.3889 16.6992 32.3351 16.8159 32.4015L29.3876 39.5261Z" fill="#EDF1F3"/>
<path d="M29.3876 41.0642C29.5045 41.1303 29.6011 41.2934 29.5992 41.4259C29.5992 41.5583 29.5026 41.6121 29.3859 41.5457L16.814 34.4213C16.6973 34.355 16.6008 34.1921 16.6024 34.0596C16.6043 33.927 16.6992 33.8732 16.8159 33.9396L29.3876 41.0642Z" fill="#EDF1F3"/>
<path d="M11.6499 28.1612C11.7666 28.2275 11.8634 28.3904 11.8615 28.5229C11.8598 28.6554 11.765 28.7091 11.6482 28.6429L5.80365 25.3304C5.68694 25.2641 5.59038 25.1011 5.59206 24.9687C5.59395 24.8362 5.68883 24.7824 5.80554 24.8487L11.6499 28.1612Z" fill="white"/>
<path d="M11.6499 29.8731C11.7666 29.9394 11.8634 30.1023 11.8615 30.2348C11.8598 30.3673 11.765 30.421 11.6482 30.3548L5.80365 27.0422C5.68694 26.976 5.59038 26.8131 5.59206 26.6806C5.59395 26.5481 5.68883 26.4944 5.80554 26.5606L11.6499 29.8731Z" fill="white"/>
</g>
<defs>
<linearGradient id="paint0_linear_6722_31908" x1="81.5133" y1="31.7642" x2="16.0078" y2="4.52398" gradientUnits="userSpaceOnUse">
<stop offset="0.57" stop-color="white" stop-opacity="0"/>
<stop offset="0.79" stop-color="white" stop-opacity="0.3"/>
<stop offset="0.87" stop-color="white" stop-opacity="0.42"/>
<stop offset="1" stop-color="white" stop-opacity="0.6"/>
</linearGradient>
<linearGradient id="paint1_linear_6722_31908" x1="74.0782" y1="36.1081" x2="57.2333" y2="35.0082" gradientUnits="userSpaceOnUse">
<stop stop-color="#4C7F8E" stop-opacity="0.5"/>
<stop offset="0.12" stop-color="#4C7F8E" stop-opacity="0.45"/>
<stop offset="0.3" stop-color="#4C7F8E" stop-opacity="0.33"/>
<stop offset="0.5" stop-color="#4C7F8E" stop-opacity="0.12"/>
<stop offset="0.6" stop-color="#4C7F8E" stop-opacity="0"/>
<stop offset="1" stop-color="#4C7F8E" stop-opacity="0"/>
</linearGradient>
<linearGradient id="paint2_linear_6722_31908" x1="70.3881" y1="36.5923" x2="4.88257" y2="9.3521" gradientUnits="userSpaceOnUse">
<stop offset="0.57" stop-color="white" stop-opacity="0"/>
<stop offset="0.79" stop-color="white" stop-opacity="0.3"/>
<stop offset="0.87" stop-color="white" stop-opacity="0.42"/>
<stop offset="1" stop-color="white" stop-opacity="0.6"/>
</linearGradient>
<linearGradient id="paint3_linear_6722_31908" x1="62.953" y1="40.9362" x2="46.1081" y2="39.8363" gradientUnits="userSpaceOnUse">
<stop stop-color="#4C7F8E" stop-opacity="0.5"/>
<stop offset="0.12" stop-color="#4C7F8E" stop-opacity="0.45"/>
<stop offset="0.3" stop-color="#4C7F8E" stop-opacity="0.33"/>
<stop offset="0.5" stop-color="#4C7F8E" stop-opacity="0.12"/>
<stop offset="0.6" stop-color="#4C7F8E" stop-opacity="0"/>
<stop offset="1" stop-color="#4C7F8E" stop-opacity="0"/>
</linearGradient>
<linearGradient id="paint4_linear_6722_31908" x1="-5" y1="23" x2="57.5" y2="72" gradientUnits="userSpaceOnUse">
<stop stop-color="#EDF1F3"/>
<stop offset="1" stop-color="#8DA5B1"/>
</linearGradient>
<linearGradient id="paint5_linear_6722_31908" x1="59.323" y1="41.7799" x2="-6.18238" y2="14.5396" gradientUnits="userSpaceOnUse">
<stop offset="0.57" stop-color="white" stop-opacity="0"/>
<stop offset="0.79" stop-color="white" stop-opacity="0.3"/>
<stop offset="0.87" stop-color="white" stop-opacity="0.42"/>
<stop offset="1" stop-color="white" stop-opacity="0.6"/>
</linearGradient>
<linearGradient id="paint6_linear_6722_31908" x1="55.9211" y1="66.486" x2="2.46733" y2="28.2661" gradientUnits="userSpaceOnUse">
<stop offset="0.13" stop-color="#4C7F8E" stop-opacity="0.5"/>
<stop offset="0.29" stop-color="#4C7F8E" stop-opacity="0.3"/>
<stop offset="0.46" stop-color="#4C7F8E" stop-opacity="0.13"/>
<stop offset="0.62" stop-color="#4C7F8E" stop-opacity="0.03"/>
<stop offset="0.75" stop-color="#4C7F8E" stop-opacity="0"/>
<stop offset="1" stop-color="#4C7F8E" stop-opacity="0"/>
</linearGradient>
<clipPath id="clip0_6722_31908">
<rect width="72" height="72" fill="white"/>
</clipPath>
</defs>
</svg>
