<svg xmlns="http://www.w3.org/2000/svg" width="72" height="72" fill="none" viewBox="0 0 72 72"><g clip-path="url(#a)"><path fill="#c9d7dd" d="m66.463 30.49-.004.874v.008l-.006 2.113-29.24-16.56-9.394-5.324-2.142-1.212.01-2.997 2.148 1.215 4.13 2.34 1.384-1.052.026.014 3.573 2.016.11.063 3.99 2.249.014.032 1.16 2.487.607.346v-.004l-1.08-2.37c-.016-.038-.01-.067.01-.074q.007-.006.022 0l.012.005 3.083 1.748 1.292 2.586L66.466 30.49z" opacity=".9"/><path fill="#edf1f3" d="m37.208 16.924-.072 24.9-11.23-6.366a.66.66 0 0 1-.305-.517l.07-24.552z" opacity=".9"/><path fill="#fff" d="m66.444 33.486-.066 22.786-.005 1.778a.25.25 0 0 1-.042.15.2.2 0 0 1-.047.043c-.055.033-.132.027-.216-.021l-28.935-16.4v-.005l.005-2.124.066-22.77h.003l29.237 16.56z" opacity=".9"/><path fill="#6e17ff" d="M66.472 28.05v.316l-.006 2.123-20.298-11.497-1.292-2.584-3.08-1.747s-.01-.005-.015-.005q-.013-.006-.022 0c-.019.007-.024.037-.008.071l1.08 2.373h-.003l-.606-.346-1.131-2.47-.03-.015-4.003-2.281-.11-.063-3.556-2.027-.017.013-1.408 1.038-4.132-2.34-2.147-1.216.008-2.451c0-.111.047-.183.12-.204.051-.016.117-.006.186.034l1.842 1.044 20.01 11.34h.004l18.31 10.38c.17.098.307.328.305.518z" opacity=".9"/><path fill="url(#b)" d="M66.472 28.05v.316l-.006 2.123-20.298-11.497-1.292-2.584-3.08-1.747s-.01-.005-.015-.005q-.013-.006-.022 0c-.019.007-.024.037-.008.071l1.08 2.373h-.003l-.606-.346-1.131-2.47-.03-.015-4.003-2.281-.11-.063-3.556-2.027-.017.013-1.408 1.038-4.132-2.34-2.147-1.216.008-2.451c0-.111.047-.183.12-.204.051-.016.117-.006.186.034l1.842 1.044 20.01 11.34h.004l18.31 10.38c.17.098.307.328.305.518z" opacity=".7"/><path fill="#7808ff" d="m33.63 22.95-.058-.031v-.004z" opacity=".9"/><path fill="#fff" d="M27.007 6.455c.217.123.392.42.392.666 0 .245-.177.342-.394.22a.84.84 0 0 1-.39-.664c.002-.244.177-.344.394-.22zm1.103.619c.218.123.393.42.393.666 0 .245-.177.342-.394.22a.84.84 0 0 1-.39-.664c.001-.244.176-.344.393-.22zm1.139.687c.217.124.392.42.392.666s-.177.342-.394.22a.84.84 0 0 1-.39-.664c.002-.243.177-.344.394-.22z" opacity=".9"/><path fill="#7808ff" d="M43.758 16.343c.288.163.52.558.518.883 0 .324-.236.454-.522.291s-.52-.556-.518-.88c0-.325.234-.455.522-.293z" opacity=".9"/><path fill="#fff" d="M62.964 29.195a.58.58 0 0 1 .266.453l-.003 1.178c0 .167-.12.235-.269.15L30.954 12.839a.58.58 0 0 1-.266-.453l.004-1.178c0-.167.12-.235.268-.15z" opacity=".9"/><path fill="#6e17ff" d="M62.236 29.18s.006.006.007.01l.108.436.007.009.35.199s.01.014.004.016l-.283.071v.008l.104.435s-.002.009-.007.007l-.004-.004-.28-.392-.01-.005-.282.072h-.004c-.004-.002-.007-.01-.005-.015l.109-.313v-.011l-.284-.392s-.002-.016.003-.013l.35.199h.008l.11-.315s.003-.004.005-.002z" opacity=".9"/><path fill="#7808ff" d="M65.512 30.9v.085l-1.222-.693v-.084zm0 .384v.086l-1.222-.693v-.086zm0 .386v.084l-1.222-.691v-.086zm0 .384v.084l-1.222-.692v-.085z" opacity=".9"/><g fill="#fff" opacity=".9"><path d="M26.672 8.906a.14.14 0 0 1 .045.045c.031.045.035.1.01.118l-.3.227.958.543c.04.021.07.077.07.122s-.032.063-.07.04l-.947-.538.285.51c.025.047.023.097-.006.111a.06.06 0 0 1-.047-.005.2.2 0 0 1-.053-.057l-.39-.699-.006-.01a.2.2 0 0 1-.017-.049v-.03l.004-.013.007-.01.004-.004.398-.304q.022-.016.055.003" opacity=".9"/><path d="M26.203 9.268s.001.014.005.021l.013.027a.2.2 0 0 1-.017-.048z" opacity=".9"/></g><g fill="#fff" opacity=".9"><path d="M28.897 10.14q.031.017.055.06l.395.753.004.009.007.02.004.018a.1.1 0 0 1 0 .03l-.004.013-.005.01-.007.007-.4.262q-.023.013-.053-.004a.14.14 0 0 1-.047-.048c-.03-.047-.031-.099-.004-.117l.287-.186-.947-.537a.15.15 0 0 1-.071-.122c0-.044.03-.062.07-.039l.956.543-.295-.564c-.025-.049-.02-.097.01-.11q.019-.007.045.007z" opacity=".9"/><path d="m29.357 11.041-.002.003-.004.008z" opacity=".9"/></g><path fill="#7808ff" d="m26.159 19.241.047.074-.036.026-.048-.071z" opacity=".9"/><path fill="#6e17ff" d="M37.073 12.785c.275.155.498.533.496.843s-.225.435-.5.28l-2.942-1.668c-.276-.155-.498-.533-.497-.843 0-.31.225-.435.5-.28z" opacity=".9"/><path fill="#562ed0" d="m47.853 17.153-20.01-11.34L26 4.77q-.108-.059-.186-.034l2.133-.899c.054-.025.127-.02.206.027l40.166 22.763a.66.66 0 0 1 .305.518l-.007 2.438h-.002l-2.15.906.005-2.121v-.317a.65.65 0 0 0-.305-.518l-18.31-10.378" opacity=".9"/><path fill="#fdfefe" d="m68.513 32.606-.07 24.564c0 .097-.037.163-.094.193h-.002l-.018.008-2.098.884s.011-.01.015-.016a.26.26 0 0 0 .042-.15v-.013a.26.26 0 0 1-.042.15.2.2 0 0 1-.048.043l.033-.014q-.014.016-.033.025c-.054.032-.13.027-.215-.021L37.047 41.86 25.82 35.497a.66.66 0 0 1-.305-.517l.072-24.552 11.537 6.535 29.237 16.561v-.013l.01-.005 2.144-.902z"/><path fill="#edf1f3" d="m68.599 32.585-.072 24.564c0 .097-.036.163-.093.194h-.001l-.017.007-2.132.899a.13.13 0 0 0 .047-.043.25.25 0 0 0 .042-.15l.006-1.779.065-22.786.01-.006 2.145-.902z" opacity=".9"/><path fill="url(#c)" d="m68.599 32.577-.072 24.565c0 .096-.036.163-.093.193h-.001l-.019.007-2.097.885.014-.016a.26.26 0 0 0 .042-.15v-.013a.26.26 0 0 1-.042.15.2.2 0 0 1-.047.043l.033-.014q-.015.016-.033.025c-.055.032-.132.027-.216-.022L37.134 41.833l-11.228-6.364a.66.66 0 0 1-.304-.517l.07-24.553 11.538 6.536 29.237 16.56v-.012l.011-.005 2.143-.903z" opacity=".8"/><path fill="#abc1c6" d="m66.464 30.489-.02 3 2.155-.905.02-3.001z" opacity=".9"/><path fill="#edf1f3" d="M44.849 29.144a.46.46 0 0 1 .211.361c-.002.133-.096.187-.213.12l-5.845-3.312a.46.46 0 0 1-.211-.362c.002-.132.097-.186.213-.12zm6.727-1.334c.117.065.213.229.212.361s-.097.186-.214.12l-12.572-7.125a.46.46 0 0 1-.211-.361c.002-.133.097-.187.213-.12zm0 1.7a.46.46 0 0 1 .212.362c-.002.133-.097.186-.214.12l-12.572-7.125a.46.46 0 0 1-.211-.361c.002-.133.097-.186.213-.12zm0 1.538a.46.46 0 0 1 .212.362c-.002.133-.097.186-.214.12l-12.572-7.125a.46.46 0 0 1-.211-.361c.002-.133.097-.186.213-.12z" opacity=".9"/><path fill="#fff" d="M33.838 18.146a.46.46 0 0 1 .212.361c-.002.133-.097.186-.213.12l-5.845-3.312a.46.46 0 0 1-.212-.362c.002-.133.097-.186.214-.12zm0 1.712a.46.46 0 0 1 .212.361c-.002.133-.097.186-.213.12l-5.845-3.312a.46.46 0 0 1-.212-.362c.002-.133.097-.186.214-.12z" opacity=".9"/><path fill="#c9d7dd" d="m55.337 35.318-.003.874v.008l-.006 2.113-29.24-16.56-9.394-5.324-2.142-1.212.01-2.997 2.148 1.215 4.13 2.34 1.384-1.052.026.014 3.573 2.016.11.063 3.989 2.249.015.032 1.16 2.487.607.346v-.004l-1.08-2.37c-.016-.038-.01-.067.01-.074q.008-.005.021 0 .007.002.013.006l3.083 1.747 1.291 2.586 20.299 11.497z" opacity=".9"/><path fill="#edf1f3" d="m26.082 21.752-.07 24.9-11.232-6.366a.66.66 0 0 1-.304-.517l.07-24.552 11.538 6.535z" opacity=".9"/><path fill="#fff" d="M55.32 38.314 55.252 61.1l-.005 1.778a.25.25 0 0 1-.042.15.2.2 0 0 1-.048.044c-.054.032-.13.026-.215-.022l-28.935-16.4v-.005l.005-2.124.066-22.77h.003l29.237 16.56z" opacity=".9"/><path fill="#6e17ff" d="M55.346 32.879v.315l-.005 2.124L35.042 23.82l-1.291-2.583-3.081-1.748s-.01-.005-.015-.005q-.012-.006-.022 0c-.018.007-.023.037-.007.071l1.08 2.373h-.003l-.606-.346-1.131-2.469-.03-.016-4.003-2.281-.11-.063-3.557-2.027-.016.013-1.408 1.038-4.132-2.34-2.147-1.216.007-2.451c0-.111.048-.183.12-.204q.08-.025.187.034l1.842 1.044 20.01 11.341h.004l18.31 10.38c.17.097.307.328.305.517z" opacity=".9"/><path fill="url(#d)" d="M55.346 32.879v.315l-.005 2.124L35.042 23.82l-1.291-2.583-3.081-1.748s-.01-.005-.015-.005q-.012-.006-.022 0c-.018.007-.023.037-.007.071l1.08 2.373h-.003l-.606-.346-1.131-2.469-.03-.016-4.003-2.281-.11-.063-3.557-2.027-.016.013-1.408 1.038-4.132-2.34-2.147-1.216.007-2.451c0-.111.048-.183.12-.204q.08-.025.187.034l1.842 1.044 20.01 11.341h.004l18.31 10.38c.17.097.307.328.305.517z" opacity=".7"/><path fill="#7808ff" d="m22.505 27.777-.058-.03v-.004z" opacity=".9"/><path fill="#fff" d="M15.882 11.283c.217.123.392.42.392.666 0 .245-.177.342-.394.22a.84.84 0 0 1-.39-.664c.002-.244.177-.344.394-.22zm1.104.619c.217.123.392.42.392.666 0 .245-.177.342-.394.22a.84.84 0 0 1-.39-.664c.001-.244.176-.344.393-.22zm1.138.688c.217.123.392.42.392.665s-.177.342-.394.22a.84.84 0 0 1-.39-.664c.002-.243.177-.344.394-.22z" opacity=".9"/><path fill="#7808ff" d="M32.633 21.17c.288.164.52.56.518.884 0 .324-.236.454-.522.292s-.52-.557-.518-.881c0-.325.233-.455.522-.292z" opacity=".9"/><path fill="#fff" d="M51.839 34.023a.58.58 0 0 1 .266.453l-.004 1.178c0 .167-.12.235-.268.15L19.83 17.667a.58.58 0 0 1-.266-.453l.004-1.178c0-.166.12-.234.268-.15z" opacity=".9"/><path fill="#6e17ff" d="M51.111 34.008s.006.006.007.01l.108.436.007.009.35.199s.01.014.004.016l-.283.072v.007l.104.435s-.002.009-.007.007l-.004-.004-.28-.392-.01-.005-.282.072h-.004c-.004-.002-.007-.01-.005-.015l.109-.313v-.011l-.285-.392s-.002-.016.004-.013l.35.2h.007l.11-.316q.002-.002.006-.002z" opacity=".9"/><path fill="#7808ff" d="M54.387 35.73v.083l-1.222-.693v-.084zm0 .382v.086l-1.222-.693v-.086zm0 .386v.084l-1.222-.691v-.086zm0 .384v.085l-1.222-.693v-.084z" opacity=".9"/><g fill="#fff" opacity=".9"><path d="M15.546 13.734a.14.14 0 0 1 .046.045c.031.045.035.1.009.118l-.3.228.959.542c.04.022.07.077.07.122s-.032.063-.07.04l-.947-.538.284.51c.026.047.024.097-.005.111a.06.06 0 0 1-.048-.005.2.2 0 0 1-.052-.057l-.39-.698-.006-.011a.2.2 0 0 1-.017-.049v-.03l.004-.013.007-.01.004-.004.398-.304q.023-.016.054.003" opacity=".9"/><path d="M15.078 14.096s.001.014.005.021l.013.027a.2.2 0 0 1-.017-.048z" opacity=".9"/></g><g fill="#fff" opacity=".9"><path d="M17.772 14.968q.031.017.054.06l.396.753.004.01.007.019.004.018a.1.1 0 0 1 0 .03l-.004.013-.005.01-.008.008-.399.26q-.023.014-.053-.003a.14.14 0 0 1-.047-.048c-.03-.046-.031-.098-.004-.116l.286-.187-.946-.537a.15.15 0 0 1-.072-.121c0-.045.032-.063.072-.04l.955.543-.295-.564c-.025-.049-.02-.097.01-.11q.019-.006.045.008z" opacity=".9"/><path d="m18.231 15.87-.002.003-.003.007z" opacity=".9"/></g><path fill="#7808ff" d="m15.034 24.07.047.073-.036.027-.048-.072z" opacity=".9"/><path fill="#6e17ff" d="M25.947 17.613c.276.156.498.534.497.843-.002.31-.225.435-.5.28L23 17.068c-.275-.155-.498-.533-.496-.843 0-.31.225-.435.5-.28z" opacity=".9"/><path fill="#562ed0" d="m36.728 21.982-20.01-11.34-1.843-1.044q-.108-.059-.186-.034l2.132-.899c.055-.025.128-.02.206.027l40.167 22.763a.66.66 0 0 1 .305.518l-.007 2.439h-.002l-2.15.906.005-2.122v-.317a.65.65 0 0 0-.305-.518L36.73 21.983" opacity=".9"/><path fill="#fdfefe" d="m57.473 37.405-.07 24.565c0 .097-.037.163-.094.193h-.002l-.018.007-2.098.885s.011-.01.015-.016a.26.26 0 0 0 .042-.15v-.013a.26.26 0 0 1-.042.15.2.2 0 0 1-.048.043l.033-.014q-.014.016-.033.025c-.054.032-.13.027-.215-.021L26.008 46.66 14.78 40.297a.66.66 0 0 1-.304-.517l.07-24.553 11.538 6.536 29.237 16.56v-.012l.01-.005 2.144-.903z"/><path fill="#edf1f3" d="m57.473 37.413-.07 24.564c0 .097-.037.163-.094.194h-.002l-.016.007-2.133.899a.13.13 0 0 0 .048-.043.25.25 0 0 0 .042-.15l.005-1.779.066-22.786.01-.006 2.144-.902z" opacity=".9"/><path fill="url(#e)" d="m57.473 37.405-.07 24.565c0 .097-.037.163-.094.193h-.002l-.018.007-2.098.885s.011-.01.015-.016a.26.26 0 0 0 .042-.15v-.013a.26.26 0 0 1-.042.15.2.2 0 0 1-.048.043l.033-.014q-.014.016-.033.025c-.054.032-.13.027-.215-.021L26.008 46.66 14.78 40.297a.66.66 0 0 1-.304-.517l.07-24.553 11.538 6.536 29.237 16.56v-.012l.01-.005 2.144-.903z" opacity=".8"/><path fill="#abc1c6" d="m55.34 35.317-.02 3.001 2.153-.906.02-3z" opacity=".9"/><path fill="#edf1f3" d="M33.724 33.972a.46.46 0 0 1 .211.361c-.002.133-.097.187-.213.12l-5.845-3.312a.46.46 0 0 1-.211-.362c.002-.132.096-.186.213-.12zm6.726-1.335c.117.067.214.23.212.362-.002.133-.096.186-.213.12l-12.572-7.125a.46.46 0 0 1-.211-.361c.002-.133.096-.186.213-.12zm0 1.702a.46.46 0 0 1 .212.361c-.002.133-.096.186-.213.12l-12.572-7.124a.46.46 0 0 1-.211-.362c.002-.133.096-.186.213-.12zm0 1.538a.46.46 0 0 1 .212.361c-.002.133-.096.187-.213.12l-12.572-7.124a.46.46 0 0 1-.211-.362c.002-.133.096-.186.213-.12z" opacity=".9"/><path fill="#fff" d="M22.713 22.974a.46.46 0 0 1 .212.361c-.002.133-.097.187-.213.12l-5.845-3.312a.46.46 0 0 1-.212-.362c.002-.132.097-.186.214-.12zm0 1.712a.46.46 0 0 1 .212.361c-.002.133-.097.186-.213.12l-5.845-3.312a.46.46 0 0 1-.212-.362c.002-.132.097-.186.214-.12z" opacity=".9"/><path fill="#c9d7dd" d="m44.274 40.505-.004.874v.01l-.005 2.112-29.242-16.56-9.394-5.324-2.142-1.212.01-2.998 2.148 1.216 4.13 2.34 1.384-1.053.026.015 3.573 2.016.11.063 3.99 2.249.014.032 1.16 2.487.607.345v-.003l-1.08-2.37c-.016-.038-.01-.067.01-.074q.008-.006.021 0 .007.001.013.005l3.083 1.748 1.291 2.585 20.299 11.497z"/><path fill="url(#f)" d="m15.019 26.94-.07 24.9-11.232-6.366a.66.66 0 0 1-.305-.518l.072-24.552z"/><path fill="#fff" d="m44.256 43.501-.066 22.787-.005 1.778a.25.25 0 0 1-.042.15.2.2 0 0 1-.047.043c-.055.032-.132.027-.216-.021l-28.936-16.4v-.005l.006-2.124.066-22.77h.003l29.237 16.56z"/><path fill="#6e17ff" d="M44.282 38.066v.315l-.006 2.124-20.299-11.497-1.291-2.584-3.081-1.747s-.01-.006-.015-.006q-.012-.005-.021 0c-.019.007-.024.038-.008.072l1.08 2.372h-.004l-.605-.345L18.9 24.3l-.03-.016-4.003-2.28-.11-.063-3.557-2.027-.016.012-1.408 1.039-4.132-2.34-2.147-1.216.007-2.452c0-.11.048-.182.12-.204.052-.016.118-.005.187.034l1.842 1.044 20.01 11.342h.004l18.31 10.38a.65.65 0 0 1 .305.517z"/><path fill="url(#g)" d="M44.282 38.066v.315l-.006 2.124-20.299-11.497-1.291-2.584-3.081-1.747s-.01-.006-.015-.006q-.012-.005-.021 0c-.019.007-.024.038-.008.072l1.08 2.372h-.004l-.605-.345L18.9 24.3l-.03-.016-4.003-2.28-.11-.063-3.557-2.027-.016.012-1.408 1.039-4.132-2.34-2.147-1.216.007-2.452c0-.11.048-.182.12-.204.052-.016.118-.005.187.034l1.842 1.044 20.01 11.342h.004l18.31 10.38a.65.65 0 0 1 .305.517z" opacity=".7"/><path fill="#7808ff" d="m11.442 32.965-.06-.03v-.004z"/><path fill="#fff" d="M4.817 16.47c.217.124.392.42.392.666 0 .245-.177.342-.394.22a.84.84 0 0 1-.39-.664c.002-.243.177-.344.394-.22zm1.103.618c.218.124.393.421.393.666s-.177.342-.394.22a.84.84 0 0 1-.39-.664c.001-.243.176-.343.393-.22zm1.14.688c.218.123.393.42.393.666 0 .245-.177.342-.394.22a.84.84 0 0 1-.39-.664c.001-.244.176-.344.393-.22z"/><path fill="#7808ff" d="M21.57 26.358c.288.163.52.559.518.883s-.236.455-.522.292-.52-.557-.518-.881c0-.324.233-.455.522-.292z"/><path fill="#fff" d="M40.774 39.21a.58.58 0 0 1 .266.453l-.004 1.179c0 .166-.12.234-.268.15L8.764 22.854a.58.58 0 0 1-.266-.453l.004-1.178c0-.167.12-.235.268-.15z"/><path fill="#6e17ff" d="m40.046 39.196.007.009.108.437.007.009.35.198s.01.015.004.017l-.283.071v.007l.104.435s-.002.01-.007.008l-.004-.004-.28-.392-.01-.005-.282.071h-.004q-.007-.005-.006-.014l.11-.314v-.01l-.285-.392s-.002-.017.004-.013l.35.199h.008l.109-.315s.004-.004.005-.002z"/><path fill="#7808ff" d="M43.324 40.917V41l-1.222-.693v-.084zm0 .383v.085l-1.222-.692v-.086zm0 .385v.084l-1.222-.693v-.084zm0 .383v.086l-1.222-.693v-.084z"/><path fill="#fff" d="M4.481 18.922a.14.14 0 0 1 .046.044c.03.045.035.1.009.119l-.3.227.959.543a.15.15 0 0 1 .07.121c0 .045-.032.063-.07.04l-.947-.537.284.51c.026.046.024.097-.005.111a.06.06 0 0 1-.047-.005.2.2 0 0 1-.053-.058l-.39-.698-.006-.01a.14.14 0 0 1-.017-.05v-.03l.004-.012.007-.01.004-.004.398-.305q.022-.015.054.004"/><path fill="#fff" d="M4.013 19.281s.001.015.005.022q.005.013.013.027a.2.2 0 0 1-.017-.049zm2.694.875q.031.017.054.059l.396.754.004.008.007.02.004.018a.1.1 0 0 1 0 .03l-.004.013-.005.01-.007.008-.4.261q-.023.014-.053-.003a.14.14 0 0 1-.047-.049c-.03-.046-.031-.098-.004-.116l.286-.186-.946-.537a.15.15 0 0 1-.071-.122c0-.045.03-.063.07-.04l.956.543-.295-.564c-.025-.048-.02-.097.01-.11q.019-.006.045.008z"/><path fill="#fff" d="m7.168 21.056-.002.003-.003.007z"/><path fill="#7808ff" d="m3.969 29.257.047.073-.036.027-.048-.073z"/><path fill="#6e17ff" d="M14.884 22.8c.276.156.498.534.496.844s-.224.435-.5.279l-2.942-1.667c-.275-.156-.498-.534-.496-.843 0-.31.224-.435.5-.28z"/><path fill="#562ed0" d="m25.663 27.169-20.01-11.34-1.843-1.043q-.108-.059-.186-.034l2.132-.9c.055-.024.128-.019.206.028L46.13 36.643a.66.66 0 0 1 .305.517l-.007 2.439h-.002l-2.15.906.005-2.122v-.317a.65.65 0 0 0-.305-.517L25.665 27.17"/><path fill="#8babb5" d="m46.41 42.6-.07 24.565c0 .097-.038.163-.094.193h-.002l-.016.008-2.133.898a.13.13 0 0 0 .048-.043.25.25 0 0 0 .042-.15l.005-1.778.066-22.787.01-.005 2.144-.902z"/><path fill="url(#h)" d="m44.282 68.178-.154.065.015-.017a.26.26 0 0 0 .042-.15v-.012a.26.26 0 0 1-.042.15.2.2 0 0 1-.047.043l.032-.014q-.015.016-.032.025c-.055.032-.132.026-.216-.022L14.944 51.848 3.717 45.484a.66.66 0 0 1-.305-.517l.072-24.552 11.537 6.536 29.237 16.56V43.5l.01-.006.008-.003.01 24.688z" opacity=".8"/><path fill="#95b7bf" d="m44.276 40.505-.02 3.001 2.154-.906.019-3.002z"/><path fill="#edf1f3" d="M22.66 39.156c.117.067.214.23.212.362-.002.133-.097.186-.213.12l-5.845-3.313a.46.46 0 0 1-.212-.361c.002-.133.097-.186.214-.12zm6.728-1.331c.116.066.213.23.211.361 0 .133-.096.187-.213.12l-12.572-7.124a.46.46 0 0 1-.212-.362c.002-.132.097-.186.214-.12zm0 1.701a.46.46 0 0 1 .211.362c0 .132-.096.186-.213.12l-12.572-7.125a.46.46 0 0 1-.212-.362c.002-.132.097-.186.214-.12zm0 1.538c.116.066.213.23.211.362 0 .132-.096.186-.213.12L16.814 34.42a.46.46 0 0 1-.212-.361c.002-.133.097-.187.214-.12z"/><path fill="#fff" d="M11.65 28.161c.117.066.213.23.211.362-.001.132-.096.186-.213.12L5.804 25.33a.46.46 0 0 1-.212-.361c.002-.133.097-.187.214-.12zm0 1.712c.117.066.213.23.211.362-.001.132-.096.186-.213.12l-5.844-3.313a.46.46 0 0 1-.212-.361c.002-.133.097-.187.214-.12z"/></g><defs><linearGradient id="b" x1="81.513" x2="16.008" y1="31.764" y2="4.524" gradientUnits="userSpaceOnUse"><stop offset=".57" stop-color="#fff" stop-opacity="0"/><stop offset=".79" stop-color="#fff" stop-opacity=".3"/><stop offset=".87" stop-color="#fff" stop-opacity=".42"/><stop offset="1" stop-color="#fff" stop-opacity=".6"/></linearGradient><linearGradient id="c" x1="74.078" x2="57.233" y1="36.108" y2="35.008" gradientUnits="userSpaceOnUse"><stop stop-color="#4c7f8e" stop-opacity=".5"/><stop offset=".12" stop-color="#4c7f8e" stop-opacity=".45"/><stop offset=".3" stop-color="#4c7f8e" stop-opacity=".33"/><stop offset=".5" stop-color="#4c7f8e" stop-opacity=".12"/><stop offset=".6" stop-color="#4c7f8e" stop-opacity="0"/><stop offset="1" stop-color="#4c7f8e" stop-opacity="0"/></linearGradient><linearGradient id="d" x1="70.388" x2="4.883" y1="36.592" y2="9.352" gradientUnits="userSpaceOnUse"><stop offset=".57" stop-color="#fff" stop-opacity="0"/><stop offset=".79" stop-color="#fff" stop-opacity=".3"/><stop offset=".87" stop-color="#fff" stop-opacity=".42"/><stop offset="1" stop-color="#fff" stop-opacity=".6"/></linearGradient><linearGradient id="e" x1="62.953" x2="46.108" y1="40.936" y2="39.836" gradientUnits="userSpaceOnUse"><stop stop-color="#4c7f8e" stop-opacity=".5"/><stop offset=".12" stop-color="#4c7f8e" stop-opacity=".45"/><stop offset=".3" stop-color="#4c7f8e" stop-opacity=".33"/><stop offset=".5" stop-color="#4c7f8e" stop-opacity=".12"/><stop offset=".6" stop-color="#4c7f8e" stop-opacity="0"/><stop offset="1" stop-color="#4c7f8e" stop-opacity="0"/></linearGradient><linearGradient id="f" x1="-5" x2="57.5" y1="23" y2="72" gradientUnits="userSpaceOnUse"><stop stop-color="#edf1f3"/><stop offset="1" stop-color="#8da5b1"/></linearGradient><linearGradient id="g" x1="59.323" x2="-6.182" y1="41.78" y2="14.54" gradientUnits="userSpaceOnUse"><stop offset=".57" stop-color="#fff" stop-opacity="0"/><stop offset=".79" stop-color="#fff" stop-opacity=".3"/><stop offset=".87" stop-color="#fff" stop-opacity=".42"/><stop offset="1" stop-color="#fff" stop-opacity=".6"/></linearGradient><linearGradient id="h" x1="55.921" x2="2.467" y1="66.486" y2="28.266" gradientUnits="userSpaceOnUse"><stop offset=".13" stop-color="#4c7f8e" stop-opacity=".5"/><stop offset=".29" stop-color="#4c7f8e" stop-opacity=".3"/><stop offset=".46" stop-color="#4c7f8e" stop-opacity=".13"/><stop offset=".62" stop-color="#4c7f8e" stop-opacity=".03"/><stop offset=".75" stop-color="#4c7f8e" stop-opacity="0"/><stop offset="1" stop-color="#4c7f8e" stop-opacity="0"/></linearGradient><clipPath id="a"><path fill="#fff" d="M0 0h72v72H0z"/></clipPath></defs></svg>