<svg xmlns="http://www.w3.org/2000/svg" width="72" height="72" fill="none" viewBox="0 0 72 72"><path fill="#b3d1f3" fill-rule="evenodd" d="M68.993 44.209C65.32 59.013 51.941 69.986 36 69.986c-15.974 0-29.375-11.02-33.016-25.87A1.618 1.618 0 0 1 0 43.244v-12.82a1.619 1.619 0 0 1 2.685-1.219C5.83 13.685 19.55 2 36 2c16.489 0 30.236 11.74 33.338 27.318A1.619 1.619 0 0 1 72 30.555v12.82a1.619 1.619 0 0 1-3.007.834M36 68.69c18.059 0 32.698-14.64 32.698-32.698 0-18.059-14.64-32.698-32.698-32.698S3.302 17.935 3.302 35.993 17.942 68.69 36 68.69" clip-rule="evenodd"/><circle cx="36" cy="35.993" r="32.698" fill="#e3f6fd"/><circle cx="36" cy="35.992" r="27.194" fill="#cdedf7"/><path fill="#fff" fill-rule="evenodd" d="M22.715 12.269c.33.531.166 1.23-.366 1.56-7.413 4.597-12.345 12.805-12.345 22.164 0 5.912 1.967 11.36 5.282 15.733a1.133 1.133 0 0 1-1.805 1.37 28.2 28.2 0 0 1-5.744-17.103c0-10.176 5.366-19.097 13.417-24.09a1.133 1.133 0 0 1 1.56.365" clip-rule="evenodd"/><circle cx="25.647" cy="10.851" r="1.619" fill="#fff"/><path fill="#ff733e" d="M50.859 66.575A33.86 33.86 0 0 1 36 69.985a33.9 33.9 0 0 1-14.371-3.178C20.935 55.114 20.45 43.401 20.45 31.7c0-8.646 7.26-15.844 15.796-15.844 8.58 0 15.796 7.318 15.796 15.844 0 11.636-.425 23.267-1.184 34.875"/><path fill="#ff6b3c" d="M35.102 15.9c4.192 2.895 6.998 7.742 6.998 13.059q0 1.835-.014 3.67-.01 1.303-.037 2.571h9.98q.013-1.75.013-3.5c0-8.526-7.215-15.844-15.796-15.844q-.576 0-1.145.044"/><path fill="#fff" d="M30.367 55.224c0 6.86 2.85 9.182 5.762 9.194 3.086.012 5.763-2.333 5.763-9.075-4.197 3.336-7.002 3.336-11.525-.12"/><path fill="#000" d="M30.367 55.224c0 6.86 2.85 9.182 5.762 9.194 3.086.012 5.763-2.333 5.763-9.075 0 2.864-2.396 5.626-5.763 5.626s-5.762-2.762-5.762-5.745"/><path stroke="#ff6042" stroke-width="1.5" d="M24.896 49.305a8.358 8.358 0 1 0 0-16.716 8.358 8.358 0 0 0 0 16.716Zm22.532 0a8.358 8.358 0 1 0 0-16.716 8.358 8.358 0 0 0 0 16.716Z"/><circle cx="24.896" cy="40.947" r="7.608" fill="#fff"/><circle cx="47.428" cy="40.947" r="7.608" fill="#fff"/><circle cx="24.896" cy="39.652" r="2.428" fill="#000"/><circle cx="29.719" cy="23.562" r="2.266" fill="#ffa978"/><circle cx="47.428" cy="39.652" r="2.428" fill="#d9d9d9"/><circle cx="47.428" cy="39.652" r="2.428" fill="#000"/></svg>