<svg width="72" height="72" viewBox="0 0 72 72" fill="none" xmlns="http://www.w3.org/2000/svg">
<path d="M56.3874 37.9485C52.2467 37.9485 48.2756 39.5934 45.3477 42.5213C42.4198 45.4493 40.7749 49.4204 40.7749 53.5611C40.7749 57.7018 42.4198 61.6729 45.3477 64.6008C48.2756 67.5287 52.2467 69.1736 56.3874 69.1736C60.5281 69.1736 64.4993 67.5287 67.4272 64.6008C70.3551 61.6729 72 57.7018 72 53.5611C72 49.4204 70.3551 45.4493 67.4272 42.5213C64.4993 39.5934 60.5281 37.9485 56.3874 37.9485ZM15.8284 37.9515C13.7602 37.9227 11.707 38.3052 9.78789 39.0768C7.86881 39.8483 6.12219 40.9935 4.64949 42.4458C3.17679 43.8982 2.00738 45.6287 1.2092 47.5368C0.411028 49.445 0 51.4927 0 53.5611C0 55.6294 0.411028 57.6772 1.2092 59.5853C2.00738 61.4935 3.17679 63.224 4.64949 64.6763C6.12219 66.1287 7.86881 67.2739 9.78789 68.0454C11.707 68.8169 13.7602 69.1994 15.8284 69.1706C19.9307 69.1135 23.8455 67.4438 26.7263 64.5226C29.607 61.6015 31.2221 57.6637 31.2221 53.5611C31.2221 49.4584 29.607 45.5207 26.7263 42.5995C23.8455 39.6784 19.9307 38.0087 15.8284 37.9515ZM51.7175 18.4362C51.7175 22.5765 50.0727 26.5473 47.1451 29.4749C44.2174 32.4025 40.2467 34.0473 36.1064 34.0473C31.9661 34.0473 27.9954 32.4025 25.0677 29.4749C22.1401 26.5473 20.4954 22.5765 20.4954 18.4362C20.4954 14.2959 22.1401 10.3252 25.0677 7.39756C27.9954 4.46993 31.9661 2.8252 36.1064 2.8252C40.2467 2.8252 44.2174 4.46993 47.1451 7.39756C50.0727 10.3252 51.7175 14.2959 51.7175 18.4362Z" fill="#F06A6A"/>
</svg>
