<svg xmlns="http://www.w3.org/2000/svg" width="72" height="72" fill="none" viewBox="0 0 72 72"><path fill="#2684ff" d="M2.336 4A2.306 2.306 0 0 0 .03 6.677l9.79 59.43a3.14 3.14 0 0 0 3.067 2.617H59.85a2.306 2.306 0 0 0 2.307-1.937L71.97 6.699a2.308 2.308 0 0 0-2.306-2.675zm41.222 42.953h-14.99L24.51 25.759h22.68z"/><path fill="url(#a)" d="M68.833 25.76H47.19l-3.632 21.193h-14.99l-17.7 21.02a3.13 3.13 0 0 0 2.018.762h46.976a2.306 2.306 0 0 0 2.307-1.937z"/><defs><linearGradient id="a" x1="73.838" x2="38.069" y1="31.687" y2="59.614" gradientUnits="userSpaceOnUse"><stop offset=".18" stop-color="#0052cc"/><stop offset="1" stop-color="#2684ff"/></linearGradient></defs></svg>