<svg xmlns="http://www.w3.org/2000/svg" width="72" height="72" fill="none" viewBox="0 0 72 72"><path fill="url(#a)" d="M35.998 62.034c9.337 0 16.905-7.421 16.905-16.576S45.335 28.88 35.998 28.88c-9.336 0-16.904 7.422-16.904 16.577s7.568 16.576 16.904 16.576"/><path fill="#2684ff" d="m.452 26.324 9.08 10.514c.677.853 1.932.948 2.705.19 14.683-12.883 32.843-12.883 47.526 0 .773.663 2.028.568 2.705-.19l9.08-10.514c.676-.758.58-1.99-.194-2.652C50.105 5.39 21.898 5.39.645 23.672c-.772.663-.869 1.894-.193 2.652"/><defs><linearGradient id="a" x1="36.005" x2="36.005" y1="56.321" y2="27.002" gradientUnits="userSpaceOnUse"><stop stop-color="#2684ff"/><stop offset=".824" stop-color="#0052cc"/></linearGradient></defs></svg>