<svg width="72" height="72" viewBox="0 0 72 72" fill="none" xmlns="http://www.w3.org/2000/svg">
<g clip-path="url(#clip0_15936_6887)">
<path d="M21.4346 33.1156C20.395 31.868 18.7315 32.0759 17.8997 33.5315L0.224727 68.8815C-0.399096 70.3371 0.640609 72.0006 2.0962 72.0006H26.6331C27.4649 72.0006 28.0887 71.5847 28.5046 70.7529C33.9111 59.7321 30.584 43.0968 21.4346 33.1156Z" fill="url(#paint0_linear_15936_6887)"/>
<path d="M34.3262 1.09218C24.553 16.6878 25.1768 33.9469 31.623 47.0472C38.0692 60.1474 43.0598 69.9207 43.4756 70.7524C43.8915 71.5842 44.5153 72.0001 45.3471 72.0001H69.8841C71.5477 72.0001 72.3794 70.3366 71.7556 68.881C71.7556 68.881 38.693 2.75571 37.8612 1.09218C37.2374 -0.363409 35.158 -0.363409 34.3262 1.09218Z" fill="#0082FF"/>
</g>
<defs>
<linearGradient id="paint0_linear_15936_6887" x1="31.0334" y1="38.6373" x2="12.4124" y2="70.8889" gradientUnits="userSpaceOnUse">
<stop stop-color="#0050D3"/>
<stop offset="0.923" stop-color="#0082FF"/>
</linearGradient>
<clipPath id="clip0_15936_6887">
<rect width="72" height="72" fill="white" transform="translate(0 0.000488281)"/>
</clipPath>
</defs>
</svg>
