<svg xmlns="http://www.w3.org/2000/svg" width="72" height="72" fill="none" viewBox="0 0 72 72"><g clip-path="url(#a)"><path fill="url(#b)" d="M21.435 33.116c-1.04-1.248-2.703-1.04-3.535.416L.225 68.882C-.4 70.337.64 72 2.096 72h24.537q1.248 0 1.872-1.248c5.406-11.02 2.079-27.656-7.07-37.637"/><path fill="#0082ff" d="M34.326 1.092c-9.773 15.596-9.15 32.855-2.703 45.955 6.446 13.1 11.437 22.874 11.853 23.705Q44.1 72 45.347 72h24.537c1.664 0 2.495-1.663 1.872-3.119L37.86 1.092c-.624-1.455-2.703-1.455-3.535 0"/></g><defs><linearGradient id="b" x1="31.033" x2="12.412" y1="38.637" y2="70.889" gradientUnits="userSpaceOnUse"><stop stop-color="#0050d3"/><stop offset=".923" stop-color="#0082ff"/></linearGradient><clipPath id="a"><path fill="#fff" d="M0 0h72v72H0z"/></clipPath></defs></svg>