<svg width="72" height="72" viewBox="0 0 72 72" fill="none" xmlns="http://www.w3.org/2000/svg">
<path d="M35.9984 62.0344C45.3345 62.0344 52.903 54.6128 52.903 45.4579C52.903 36.3026 45.3345 28.8813 35.9984 28.8813C26.6622 28.8813 19.0938 36.3026 19.0938 45.4579C19.0938 54.6128 26.6622 62.0344 35.9984 62.0344Z" fill="url(#paint0_linear_15936_6932)"/>
<path d="M0.452185 26.3239L9.53233 36.8382C10.2085 37.6909 11.4643 37.7856 12.2371 37.0276C26.9199 24.1453 45.0802 24.1453 59.763 37.0276C60.5356 37.6909 61.7914 37.5962 62.4676 36.8382L71.5478 26.3239C72.224 25.5661 72.1275 24.3347 71.3545 23.6717C50.1031 5.39004 21.8968 5.39004 0.645379 23.6717C-0.1274 24.3347 -0.223997 25.5661 0.452185 26.3239Z" fill="#2684FF"/>
<defs>
<linearGradient id="paint0_linear_15936_6932" x1="36.0055" y1="56.3207" x2="36.0055" y2="27.0019" gradientUnits="userSpaceOnUse">
<stop stop-color="#2684FF"/>
<stop offset="0.824" stop-color="#0052CC"/>
</linearGradient>
</defs>
</svg>
