<svg width="72" height="72" viewBox="0 0 72 72" fill="none" xmlns="http://www.w3.org/2000/svg">
<path d="M10.1525 31.2569C21.9575 29.3124 31.2036 19.5532 33.148 7.75537L33.7988 2.08057C33.9578 1.17694 33.3505 -0.0736913 32.2082 0.0130697C23.2877 0.707045 14.8803 3.64927 10.1886 5.56497C7.86811 6.51198 6.35001 8.77467 6.35001 11.2831V29.7894C6.35001 30.8884 7.33316 31.7197 8.41751 31.546L10.1525 31.2641V31.2569Z" fill="white"/>
<path d="M38.8398 7.75377C40.7845 19.5588 50.0305 29.3109 61.8355 31.2553L63.5705 31.5373C64.6548 31.7179 65.6378 30.8794 65.6378 29.7807V11.2743C65.6378 8.76583 64.1197 6.51036 61.7993 5.55615C57.1149 3.64045 48.7003 0.698231 39.7796 0.00423303C38.6375 -0.0825055 38.0446 1.18257 38.1821 2.07174L38.8326 7.74653L38.8398 7.75377Z" fill="white"/>
<path d="M61.8281 36.4334C45.7001 39.6142 38.2109 50.3349 38.2109 70.634C38.2109 71.6533 39.2229 72.3546 40.0687 71.7907C47.4857 66.7883 63.8087 53.7325 65.4931 37.3948C65.5584 35.3347 62.9848 36.3033 61.8281 36.4334Z" fill="white"/>
<path d="M10.157 36.4422C26.285 39.623 33.7742 50.3437 33.7742 70.6428C33.7742 71.6621 32.7622 72.3634 31.9164 71.7995C24.4994 66.797 8.17621 53.7413 6.49184 37.4036C6.42678 35.3435 9.00031 36.3121 10.157 36.4422Z" fill="white"/>
</svg>
