<svg xmlns="http://www.w3.org/2000/svg" width="72" height="72" fill="none" viewBox="0 0 72 72"><path fill="#000" d="M10.153 31.257c11.805-1.945 21.05-11.704 22.995-23.502l.65-5.674c.16-.904-.448-2.155-1.59-2.068-8.92.694-17.328 3.636-22.02 5.552a6.18 6.18 0 0 0-3.838 5.718V29.79a1.78 1.78 0 0 0 2.068 1.757l1.735-.282zM38.84 7.754c1.944 11.805 11.19 21.557 22.996 23.501l1.735.282a1.777 1.777 0 0 0 2.067-1.756V11.274a6.185 6.185 0 0 0-3.839-5.718C57.115 3.64 48.7.698 39.78.004c-1.142-.087-1.734 1.179-1.597 2.068l.65 5.675zm22.988 28.679C45.7 39.614 38.211 50.335 38.211 70.634c0 1.02 1.012 1.72 1.858 1.157 7.417-5.003 23.74-18.058 25.424-34.396.065-2.06-2.508-1.092-3.665-.962m-51.671.009c16.128 3.181 23.617 13.902 23.617 34.2 0 1.02-1.012 1.721-1.858 1.157C24.5 66.798 8.176 53.741 6.492 37.404c-.065-2.06 2.508-1.092 3.665-.962"/></svg>