<svg width="72" height="72" viewBox="0 0 72 72" fill="none" xmlns="http://www.w3.org/2000/svg">
<g clip-path="url(#clip0_15936_6938)">
<path fill-rule="evenodd" clip-rule="evenodd" d="M59.0799 72.0004H71.6292L60.5595 45.5112C57.5588 48.7035 54.7374 52.0599 52.1084 55.5646L59.0799 72.0004Z" fill="#FF6600"/>
<path fill-rule="evenodd" clip-rule="evenodd" d="M30.1318 47.6379L27.0586 54.8905C31.4787 61.4729 34.4002 67.14 36.0074 69.8535C39.1382 64.5468 46.782 48.7863 62.6226 34.0422L60.8757 29.9229C50.591 37.5179 41.8341 47.2326 36.0242 54.6409C36.0185 54.6519 32.3079 50.095 30.1318 47.6379Z" fill="#059BD2"/>
<path fill-rule="evenodd" clip-rule="evenodd" d="M41.5398 0.000488281H30.4612L0.370117 72H12.918L34.6744 20.6874L35.7081 17.9024H36.2915L37.3223 20.6874L43.7685 35.896C46.7173 32.9567 49.8155 30.171 53.0504 27.5502L41.5398 0.000488281Z" fill="#FF6600"/>
</g>
<defs>
<clipPath id="clip0_15936_6938">
<rect width="72" height="72" fill="white" transform="translate(0 0.000488281)"/>
</clipPath>
</defs>
</svg>
