<svg xmlns="http://www.w3.org/2000/svg" width="72" height="72" fill="none" viewBox="0 0 72 72"><g fill-rule="evenodd" clip-path="url(#a)" clip-rule="evenodd"><path fill="#f60" d="M59.08 72h12.55L60.56 45.511a118 118 0 0 0-8.452 10.054z"/><path fill="#059bd2" d="m30.132 47.638-3.073 7.253c4.42 6.582 7.341 12.249 8.948 14.962 3.131-5.306 10.775-21.067 26.616-35.81l-1.747-4.12C50.59 37.518 41.834 47.233 36.024 54.64c-.005.01-3.716-4.546-5.892-7.003"/><path fill="#f60" d="M41.54 0H30.46L.371 72h12.547l21.756-51.313 1.034-2.785h.584l1.03 2.785 6.447 15.209a121 121 0 0 1 9.281-8.346z"/></g><defs><clipPath id="a"><path fill="#fff" d="M0 0h72v72H0z"/></clipPath></defs></svg>