<svg width="2048px" height="2048px" viewBox="0 0 2048 2048" fill="none" xmlns="http://www.w3.org/2000/svg">
  <path fill="#F7A80D" d="M957.8 1775L294.42 1537L283.79 1533.2L283.79 1522L283.79 549.69L283.79 527.37L304.92 534.57L968.3 760.61L979.17 764.31L979.17 775.73L979.17 1760L979.17 1782.7z" />
  <path fill="#F7A80D" d="M1753.6 1537L1090.2 1775L1068.8 1782.7L1068.8 1760L1068.8 775.73L1068.8 764.31L1079.7 760.61L1743.1 534.57L1764.2 527.37L1764.2 549.69L1764.2 1522L1764.2 1533.2z" />
  <path fill="#F7A80D" d="M363.66 461.6L1035 272.63L1044.2 272.81L1666.8 473.53L1667 503.84L1044.5 715.19L1034.4 715.19L362.97 492.1z" />
  <path fill="none" d="M0 0h2048v2048H0Z" />
</svg>