<svg xmlns="http://www.w3.org/2000/svg" width="72" height="72" fill="none" viewBox="0 0 72 72"><path fill="#252f3e" d="M20.29 30.037c0 .886.096 1.604.263 2.131.192.527.431 1.102.767 1.724.12.192.167.383.167.551 0 .24-.143.479-.455.718l-1.508 1.006c-.216.144-.431.216-.623.216-.24 0-.479-.12-.718-.336a7.4 7.4 0 0 1-.863-1.125 19 19 0 0 1-.742-1.413q-2.802 3.305-7.04 3.305c-2.012 0-3.616-.575-4.79-1.724s-1.771-2.682-1.771-4.598c0-2.036.718-3.688 2.179-4.933s3.4-1.868 5.867-1.868c.814 0 1.652.072 2.538.192s1.796.311 2.754.527v-1.75c0-1.82-.383-3.089-1.126-3.831-.766-.742-2.06-1.101-3.903-1.101-.838 0-1.7.095-2.586.31a19 19 0 0 0-2.586.815c-.384.168-.67.263-.839.311a1.5 1.5 0 0 1-.383.072c-.335 0-.503-.24-.503-.742V17.32c0-.383.048-.67.168-.838s.335-.335.67-.503q1.258-.646 3.018-1.077c1.173-.312 2.418-.455 3.735-.455 2.85 0 4.933.646 6.274 1.94 1.317 1.293 1.988 3.256 1.988 5.89v7.759zm-9.722 3.64c.79 0 1.604-.144 2.466-.431s1.628-.814 2.275-1.533c.383-.455.67-.958.814-1.532s.24-1.27.24-2.084v-1.006a20 20 0 0 0-2.203-.407 18 18 0 0 0-2.251-.143c-1.605 0-2.778.311-3.568.958-.79.646-1.174 1.556-1.174 2.754 0 1.125.288 1.963.886 2.538.575.599 1.413.886 2.515.886m19.229 2.586c-.431 0-.719-.072-.91-.24-.192-.143-.36-.478-.503-.933l-5.628-18.511c-.143-.479-.215-.79-.215-.958 0-.383.191-.598.575-.598h2.346c.455 0 .767.071.934.239.192.144.335.479.48.934l4.022 15.852 3.736-15.852c.12-.479.263-.79.455-.934.191-.144.527-.24.958-.24h1.915c.455 0 .767.072.958.24.192.144.36.479.455.934L43.16 32.24l4.14-16.044c.144-.479.312-.79.48-.934.191-.144.502-.24.933-.24h2.227c.383 0 .599.192.599.6 0 .119-.024.239-.048.382a3.4 3.4 0 0 1-.167.599l-5.772 18.51q-.214.719-.502.934c-.192.144-.503.24-.91.24h-2.06c-.455 0-.766-.072-.958-.24s-.359-.478-.455-.957l-3.711-15.446-3.688 15.422c-.12.479-.264.79-.455.958-.192.167-.527.239-.958.239zm30.77.647c-1.244 0-2.49-.144-3.687-.431s-2.131-.6-2.754-.958c-.383-.216-.646-.455-.742-.67a1.7 1.7 0 0 1-.144-.671v-1.222c0-.502.192-.742.551-.742q.215 0 .431.072c.144.048.36.144.599.24.814.359 1.7.646 2.634.837.958.192 1.892.288 2.85.288 1.508 0 2.681-.264 3.496-.79.814-.527 1.245-1.293 1.245-2.275 0-.67-.216-1.222-.647-1.677-.43-.455-1.245-.862-2.418-1.245l-3.473-1.077c-1.748-.551-3.04-1.365-3.831-2.443-.79-1.053-1.197-2.227-1.197-3.472q0-1.509.646-2.658a6.2 6.2 0 0 1 1.724-1.964c.719-.55 1.533-.958 2.49-1.245.959-.287 1.964-.407 3.018-.407.527 0 1.078.024 1.605.096.55.072 1.053.167 1.556.263.479.12.934.24 1.365.383q.646.216 1.006.431c.335.192.574.383.718.599q.216.287.216.79v1.126c0 .502-.192.766-.551.766-.192 0-.503-.096-.91-.287q-2.048-.934-4.598-.934c-1.365 0-2.442.215-3.185.67s-1.125 1.15-1.125 2.131c0 .67.24 1.246.718 1.7.48.456 1.365.91 2.634 1.318l3.4 1.077c1.725.551 2.97 1.317 3.712 2.3.743.98 1.102 2.106 1.102 3.352 0 1.03-.216 1.963-.623 2.777a6.4 6.4 0 0 1-1.748 2.108c-.742.598-1.628 1.03-2.658 1.34a11.4 11.4 0 0 1-3.424.504"/><path fill="#f90" fill-rule="evenodd" d="M65.094 48.548c-7.878 5.819-19.325 8.908-29.167 8.908-13.793 0-26.221-5.101-35.608-13.578-.742-.67-.072-1.58.814-1.054 10.154 5.891 22.678 9.46 35.633 9.46 8.74 0 18.343-1.82 27.179-5.556 1.317-.6 2.442.862 1.15 1.82" clip-rule="evenodd"/><path fill="#f90" fill-rule="evenodd" d="M68.375 44.812c-1.006-1.293-6.657-.622-9.22-.311-.766.096-.885-.575-.191-1.078 4.502-3.16 11.901-2.25 12.764-1.197.862 1.077-.24 8.477-4.454 12.021-.647.55-1.27.263-.982-.455.957-2.37 3.089-7.71 2.083-8.98" clip-rule="evenodd"/></svg>