<svg xmlns="http://www.w3.org/2000/svg" width="72" height="72" fill="none" viewBox="0 0 72 72"><linearGradient id="a" x1="-14.909" x2="86.918" y1="86.909" y2="-14.918" gradientUnits="userSpaceOnUse"><stop offset="0" stop-color="#2e27ad"/><stop offset="1" stop-color="#527fff"/></linearGradient><clipPath id="b"><path d="M0 0h72v72H0z"/></clipPath><g clip-path="url(#b)"><path fill="url(#a)" d="M72 0H0v72h72z"/><g fill="#fff"><path d="M24.365 28.348c-7.44 0-15.36-2.256-15.36-6.432s7.9-6.432 15.36-6.432 15.36 2.256 15.36 6.432-7.93 6.432-15.36 6.432m0-10.944c-7.68 0-13.44 2.381-13.44 4.512s5.76 4.512 13.44 4.512 13.44-2.38 13.44-4.512-5.77-4.512-13.44-4.512"/><path d="M39.754 22.204h-1.92v16.32h1.92zM24.355 59.52c-7.43 0-15.36-2.228-15.36-6.366v-30.95h1.92v30.97c0 2.112 5.76 4.464 13.44 4.464s13.44-2.352 13.44-4.464v-3.13h1.92v3.13c.039 4.137-7.92 6.345-15.36 6.345"/><path d="M24.365 39.197c-7.43 0-15.36-2.256-15.36-6.432h1.92c0 2.13 5.76 4.512 13.44 4.512s13.44-2.381 13.44-4.512h1.92c-.02 4.176-7.92 6.432-15.36 6.432m-.005 10.559C16.93 49.756 9 47.5 9 43.324h1.92c0 2.131 5.76 4.512 13.44 4.512a29.9 29.9 0 0 0 9.274-1.344l.614 1.815a31.7 31.7 0 0 1-9.888 1.45"/><path d="M46.896 60.355a.96.96 0 0 1-.96-.96c0-6.596-7.536-14.15-14.16-14.15a.96.96 0 1 1 0-1.92c6.614 0 14.16-7.547 14.16-14.16a.96.96 0 1 1 1.92 0c0 6.614 7.536 14.16 14.16 14.16a.96.96 0 1 1 0 1.92c-6.624 0-14.16 7.535-14.16 14.15a.96.96 0 0 1-.96.96M36.48 44.285a19.7 19.7 0 0 1 10.416 10.434 19.66 19.66 0 0 1 10.445-10.435A19.68 19.68 0 0 1 46.896 33.84 19.72 19.72 0 0 1 36.48 44.284m16.714-23.04h-1.92v5.76h1.92z"/><path d="M55.114 23.164h-5.76v1.92h5.76zm-12.48-11.519h-1.92v5.76h1.92z"/><path d="M44.554 13.565h-5.76v1.92h5.76z"/></g></g></svg>