<svg xmlns="http://www.w3.org/2000/svg" width="72" height="72" fill="none" viewBox="0 0 72 72"><g clip-path="url(#clip0_23016_5948)"><path fill="url(#paint0_linear_23016_5948)" d="M72 0H0v72h72z"/><path fill="#fff" fill-rule="evenodd" d="M34.466 24.504c4.043 0 6.257.906 6.66 1.36-.403.454-2.617 1.36-6.66 1.36s-6.258-.906-6.662-1.36c.404-.454 2.619-1.36 6.662-1.36m-.46 7.25a.458.458 0 0 1 .2-.865q.107.002.2.053zm5.205 7.478c-.067.054-.22.16-.537.286a7 7 0 0 1-.993.303c-1.004.236-2.238.365-3.476.365-2.708 0-4.594-.584-5.001-.947l-1.2-11.203c1.84.752 4.549 1.001 6.461 1.001 1.88 0 4.531-.242 6.37-.965l-.718 4.927c-1.351-.51-3.038-1.25-4.636-2.028a1.336 1.336 0 0 0-1.275-.979c-.737 0-1.335.609-1.335 1.355 0 .748.598 1.355 1.335 1.355a1.3 1.3 0 0 0 .492-.098c2.233 1.103 3.897 1.81 5.15 2.246zm-13.226-13.27 1.446 13.503C27.533 41.97 33.93 42 34.205 42c1.37 0 2.747-.147 3.878-.412a9 9 0 0 0 1.247-.383c1.056-.425 1.61-1.003 1.648-1.719l.603-4.138c.41.084.745.122 1.012.122.84 0 1.062-.345 1.215-.582.16-.25.207-.558.132-.867-.172-.711-1.175-1.647-1.845-2.203l.847-5.822h-.008c.004-.045.018-.087.018-.132 0-2.505-5.335-3.174-8.486-3.174s-8.487.669-8.487 3.174c0 .034.012.063.014.097zm8.067-7.908c7.786 0 14.12 6.429 14.12 14.332s-6.334 14.332-14.12 14.332c-7.787 0-14.121-6.43-14.121-14.332s6.334-14.333 14.12-14.333M11.687 37.65v1.814h8.04v-.107c2.57 5.416 8.017 9.174 14.325 9.174 8.77 0 15.907-7.243 15.907-16.146S42.822 16.24 34.052 16.24c-6.824 0-12.64 4.392-14.895 10.53h-7.47v1.814h6.922a16.3 16.3 0 0 0-.456 3.627H9.9v1.813h8.326c.126 1.26.41 2.47.804 3.627zm48.685 21.78c-1.081 1.1-2.955 1.106-4.035.01l-9.598-9.74a21.6 21.6 0 0 0 4.105-4.09l9.539 9.728a2.9 2.9 0 0 1 .83 2.046c0 .775-.299 1.502-.841 2.048m1.276-5.375-9.753-9.947a21.7 21.7 0 0 0 3.424-11.723c0-11.903-9.54-21.586-21.267-21.586-8.426 0-16.068 5.057-19.468 12.885l1.634.73c3.115-7.168 10.115-11.802 17.834-11.802 10.742 0 19.48 8.87 19.48 19.773 0 10.902-8.738 19.773-19.48 19.773-7.176 0-13.75-3.987-17.16-10.405l-1.572.861c3.72 7.006 10.899 11.357 18.732 11.357 4.1 0 7.932-1.187 11.182-3.236l9.84 9.988a4.586 4.586 0 0 0 6.559-.008A4.7 4.7 0 0 0 63 57.386a4.7 4.7 0 0 0-1.352-3.33" clip-rule="evenodd"/></g><defs><linearGradient id="paint0_linear_23016_5948" x1="0" x2="7200" y1="7200" y2="0" gradientUnits="userSpaceOnUse"><stop stop-color="#4d27a8"/><stop offset="1" stop-color="#a166ff"/></linearGradient><clipPath id="clip0_23016_5948"><path fill="#fff" d="M0 0h72v72H0z"/></clipPath></defs></svg>