<svg xmlns="http://www.w3.org/2000/svg" width="72" height="72" fill="none" viewBox="0 0 72 72"><linearGradient id="a" x1="-14.909" x2="86.909" y1="86.909" y2="-14.909" gradientUnits="userSpaceOnUse"><stop offset="0" stop-color="#b0084d"/><stop offset="1" stop-color="#ff4f8b"/></linearGradient><clipPath id="b"><path d="M0 0h72v72H0z"/></clipPath><g clip-path="url(#b)"><path fill="url(#a)" d="M72 0H0v72h72z"/><g fill="#fff"><path d="M59.04 59.04h-6.72v-1.92h5.76V14.88H13.92v42.24H40.8v1.92H12.96a.96.96 0 0 1-.96-.96V13.92a.96.96 0 0 1 .96-.96h46.08a.96.96 0 0 1 .96.96v44.16a.96.96 0 0 1-.96.96"/><path d="M59.04 20.64H12.96v1.92h46.08zM17.76 16.8h-1.92v1.92h1.92zm3.84 0h-1.92v1.92h1.92zm3.84 0h-1.92v1.92h1.92zm-2.4 31.978-1.354-1.363 8.535-8.525-8.535-8.535 1.354-1.363 9.216 9.216a.96.96 0 0 1 0 1.354zm25.44-5.098h-14.4v1.92h14.4z"/></g></g></svg>