<svg xmlns="http://www.w3.org/2000/svg" width="72" height="72" fill="none" viewBox="0 0 72 72"><linearGradient id="a" x1="-14.909" x2="86.918" y1="86.909" y2="-14.918" gradientUnits="userSpaceOnUse"><stop offset="0" stop-color="#2e27ad"/><stop offset="1" stop-color="#527fff"/></linearGradient><clipPath id="b"><path d="M0 0h72v72H0z"/></clipPath><g clip-path="url(#b)"><path fill="#3b48cc" d="M72 0H0v72h72z"/><path fill="url(#a)" d="M72 0H0v72h72z"/><g fill="#fff"><path d="m48.24 38.861-6.346 6.336a15.6 15.6 0 0 0 3.284-1.334 2.48 2.48 0 0 1 1.142 1.728c0 1.756-3.725 3.667-9.254 4.444a40.5 40.5 0 0 1-5.146.365h-.96c-7.757-.182-13.44-2.63-13.44-4.8a2.48 2.48 0 0 1 1.142-1.728c3.015 1.68 7.901 2.679 13.258 2.679h.106l.537-1.92h-.643c-5.28 0-10.176-1.047-12.778-2.698-1.036-.682-1.612-1.42-1.622-2.064v-4.445c2.938 2.247 8.794 3.418 14.4 3.418.758 0 1.517 0 2.256-.067l.547-1.92a39 39 0 0 1-2.803.096c-8.237 0-14.4-2.525-14.4-4.8a2.48 2.48 0 0 1 1.142-1.728c2.65 1.488 6.72 2.419 11.338 2.63l.048-1.92c-4.54-.22-8.64-1.2-10.906-2.65-1.027-.662-1.603-1.41-1.622-2.064v-4.435c2.938 2.247 8.794 3.418 14.4 3.418h.211l1.018-1.92H31.92c-8.237 0-14.4-2.525-14.4-4.8s6.163-4.8 14.4-4.8a34.5 34.5 0 0 1 8.237.96h5.27c-2.88-1.757-7.853-2.88-13.507-2.88-7.91 0-16.32 2.342-16.32 6.72v7.728a3.9 3.9 0 0 0 1.45 2.832 3.9 3.9 0 0 0-1.45 2.88v7.68a3.9 3.9 0 0 0 1.45 2.88 3.9 3.9 0 0 0-1.45 2.88v7.68a1 1 0 0 0 0 .201c.26 4.215 8.515 6.48 16.32 6.48s16.06-2.265 16.32-6.499a.7.7 0 0 0 0-.201v-7.68a3.84 3.84 0 0 0-1.45-2.88 3.9 3.9 0 0 0 1.45-2.88zm-1.92 14.4c0 2.266-6.163 4.8-14.4 4.8s-14.4-2.506-14.4-4.8v-4.416c2.938 2.227 8.794 3.399 14.4 3.399s11.462-1.172 14.4-3.399z"/><path d="M20.4 27.62a1.2 1.2 0 1 0 0-2.4 1.2 1.2 0 0 0 0 2.4m0 13.44a1.2 1.2 0 1 0 0-2.4 1.2 1.2 0 0 0 0 2.4m0 13.44a1.2 1.2 0 1 0 0-2.4 1.2 1.2 0 0 0 0 2.4m13.92-5.079a.96.96 0 0 1-.48-.134.96.96 0 0 1-.442-1.104l5.396-17.962H33.36a.96.96 0 0 1-.854-1.42l5.76-11.52a.96.96 0 0 1 .854-.529H51.6a.96.96 0 0 1 .96 1.258l-2.458 7.382h5.386a.96.96 0 0 1 .691 1.623l-21.12 22.08a.96.96 0 0 1-.739.326m.595-21.12h5.165a.96.96 0 0 1 .922 1.229l-4.618 15.36 16.81-17.568H48.72a.96.96 0 0 1-.96-1.267l2.458-7.373h-10.56z"/></g></g></svg>