<svg xmlns="http://www.w3.org/2000/svg" width="72" height="72" fill="none" viewBox="0 0 72 72"><linearGradient id="a" x1="-14.912" x2="86.912" y1="86.909" y2="-14.915" gradientUnits="userSpaceOnUse"><stop offset="0" stop-color="#c8511b"/><stop offset="1" stop-color="#f90"/></linearGradient><clipPath id="b"><path d="M0 0h72v72H0z"/></clipPath><g clip-path="url(#b)"><path fill="url(#a)" d="M72 0H0v72h72z"/><g fill="#fff"><path d="M58.07 38.88h-4.8v-1.92h4.8V13.92H35.03v4.8h-1.92v-4.8A1.92 1.92 0 0 1 35.03 12h23.04a1.92 1.92 0 0 1 1.92 1.92v23.04a1.92 1.92 0 0 1-1.92 1.92M36.95 60H13.91a1.92 1.92 0 0 1-1.92-1.92V35.04a1.92 1.92 0 0 1 1.92-1.92h4.8v1.92h-4.8v23.04h23.04v-4.8h1.92v4.8A1.92 1.92 0 0 1 36.95 60"/><path d="M51.36 27.36v-1.92h-2.88a2.09 2.09 0 0 0-1.92-1.92v-2.88h-1.92v2.88h-2.88v-2.88h-1.92v2.88h-2.88v-2.88h-1.92v2.88h-2.88v-2.88h-1.92v2.88h-2.88v-2.88h-1.92v2.88a2.09 2.09 0 0 0-1.92 1.92h-2.88v1.92h2.88v2.88h-2.88v1.92h2.88v2.88h-2.88v1.92h2.88v2.88h-2.88v1.92h2.88v2.88h-2.88v1.92h2.88a2.09 2.09 0 0 0 1.92 1.92v2.88h1.92v-2.88h2.88v2.88h1.92v-2.88h2.88v2.88h1.92v-2.88h2.88v2.88h1.92v-2.88h2.88v2.88h1.92v-2.88a2.09 2.09 0 0 0 1.92-1.92h2.88v-1.92h-2.88v-2.88h2.88v-1.92h-2.88v-2.88h2.88v-1.92h-2.88v-2.88h2.88v-1.92h-2.88v-2.88zm-4.8 19.027a.173.173 0 0 1-.173.173H25.613a.173.173 0 0 1-.173-.173V25.612a.173.173 0 0 1 .173-.172h20.774a.173.173 0 0 1 .173.172z"/></g></g></svg>