<svg xmlns="http://www.w3.org/2000/svg" width="72" height="72" fill="none" viewBox="0 0 72 72"><g clip-path="url(#clip0_19422_11318)"><path fill="url(#paint0_linear_19422_11318)" d="M72 0H0v72h72z"/><path fill="#fff" d="M36 61.93a.96.96 0 0 1-.48-.125l-22.08-12.75a.96.96 0 0 1-.48-.834V22.723a.96.96 0 0 1 .48-.835L33.6 10.195a.96.96 0 0 1 1.44.835v11.05a.96.96 0 0 1-.48.835L24.48 28.8v13.315L36 48.768l10.051-5.76a.96.96 0 0 1 .96 0l9.6 5.539a.96.96 0 0 1 0 1.67L36.48 61.805a.96.96 0 0 1-.48.124M14.88 47.663 36 59.865l18.24-10.56-7.68-4.435-10.08 5.847a.96.96 0 0 1-.96 0l-12.48-7.21a.96.96 0 0 1-.48-.835v-14.4a.96.96 0 0 1 .48-.835l10.08-5.866v-8.88l-18.24 10.56z"/><path fill="#fff" d="M58.08 46.973a.96.96 0 0 1-.48-.125l-9.6-5.52a.84.84 0 0 1-.432-.835V28.8L37.44 23.04a.96.96 0 0 1-.48-.835V11.136a.96.96 0 0 1 .48-.835 1.02 1.02 0 0 1 .96 0l20.16 11.587a.96.96 0 0 1 .48.835v23.29a.96.96 0 0 1-.96.96m-8.64-7.027 7.68 4.397V23.28L38.88 12.797v8.86l10.08 5.76a.96.96 0 0 1 .48.826z"/><path fill="#fff" d="M31.2 42.71v-14.4h1.92v6.557l6.24-6.556h2.534l-6.508 7.008 7.075 7.392H39.84l-6.72-6.72v6.72z"/></g><defs><linearGradient id="paint0_linear_19422_11318" x1="-14.912" x2="86.912" y1="86.909" y2="-14.915" gradientUnits="userSpaceOnUse"><stop stop-color="#c8511b"/><stop offset="1" stop-color="#f90"/></linearGradient><clipPath id="clip0_19422_11318"><path fill="#fff" d="M0 0h72v72H0z"/></clipPath></defs></svg>