<svg xmlns="http://www.w3.org/2000/svg" width="72" height="72" fill="none" viewBox="0 0 72 72"><linearGradient id="a" x1="-14.909" x2="86.909" y1="86.909" y2="-14.909" gradientUnits="userSpaceOnUse"><stop offset="0" stop-color="#1b660f"/><stop offset="1" stop-color="#6cae3e"/></linearGradient><clipPath id="b"><path d="M0 0h72v72H0z"/></clipPath><g clip-path="url(#b)"><path fill="url(#a)" d="M72 0H0v72h72z"/><g fill="#fff"><path d="M47.491 24.855a3 3 0 0 0-.086-.375c-.855-2.61-6.163-3.964-11.405-3.964s-10.56 1.353-11.405 3.964a3 3 0 0 0-.086.375q-.015.182 0 .365v21.436c0 3.092 5.76 4.704 11.52 4.704s11.52-1.612 11.52-4.704V25.22a2.3 2.3 0 0 0-.058-.365m-11.52-2.42c5.491 0 8.775 1.44 9.466 2.42-.71.96-3.994 2.41-9.466 2.41s-8.755-1.421-9.465-2.41c.72-.98 4.003-2.42 9.494-2.42zm9.6 24.221c0 .96-3.389 2.784-9.6 2.784s-9.6-1.843-9.6-2.784v-19.45c2.18 1.306 5.904 1.978 9.6 1.978s7.421-.672 9.6-1.977z"/><path d="M24.595 24.48a3 3 0 0 0-.086.375q-.015-.188 0-.374zm22.925 0q.015.187 0 .375a3 3 0 0 0-.086-.374zm-25.238-3.562-1.364 1.364-6.998-6.999v5.357H12v-7.68a.96.96 0 0 1 .96-.96h7.68v1.92h-5.357zM60 12.96v7.68h-1.92v-5.357l-6.998 6.999-1.364-1.364 6.999-6.998H51.36V12h7.68a.96.96 0 0 1 .96.96M15.283 58.08h5.357V60h-7.68a.96.96 0 0 1-.96-.96v-7.68h1.92v5.357l6.998-6.998 1.364 1.363zM60 51.36v7.68a.96.96 0 0 1-.96.96h-7.68v-1.92h5.357l-6.999-6.998 1.364-1.363 6.998 6.998V51.36z"/></g></g></svg>