<svg xmlns="http://www.w3.org/2000/svg" width="72" height="72" fill="none" viewBox="0 0 72 72"><linearGradient id="a" x1="-14.909" x2="86.918" y1="86.909" y2="-14.918" gradientUnits="userSpaceOnUse"><stop offset="0" stop-color="#4d27a8"/><stop offset="1" stop-color="#a166ff"/></linearGradient><clipPath id="b"><path d="M0 0h72v72H0z"/></clipPath><g clip-path="url(#b)"><path fill="url(#a)" d="M72 0H0v72h72z"/><g fill="#fff"><path d="M21.6 26.16h-8.64a.96.96 0 0 0-.96.96v30.72a.96.96 0 0 0 .96.96h8.64a.96.96 0 0 0 .96-.96V27.12a.96.96 0 0 0-.96-.96m-.96 30.72h-6.72v-28.8h6.72zm14.4-4.397v5.356a.96.96 0 0 1-.96.96h-8.64a.96.96 0 0 1-.96-.96V41.28a14.2 14.2 0 0 0 1.92 5.03v10.56h6.72v-5.03q.934.397 1.92.644m0-31.124v3.398q-.987.265-1.92.681v-3.12H26.4v8.64a14.2 14.2 0 0 0-1.92 5.03V21.36a.96.96 0 0 1 .96-.96h8.64a.96.96 0 0 1 .96.96M45.6 53.25v3.63h-6.72v-3.84q-.965.003-1.92-.125v4.925a.96.96 0 0 0 .96.96h8.64a.96.96 0 0 0 .96-.96v-2.67zm.96-40.53h-8.64a.96.96 0 0 0-.96.96v10.685a14 14 0 0 1 1.92-.125v-9.6h6.72v11.28q1.011.535 1.92 1.229v-13.44a.96.96 0 0 0-.96-.99m12.48 4.801H50.4a.96.96 0 0 0-.96.96v10.406c.74.799 1.385 1.682 1.92 2.63V19.44h6.72v29.52L60 50.88v-32.4a.96.96 0 0 0-.96-.96"/><path d="m58.838 52.464-8.64-8.64a12.48 12.48 0 1 0-5.51 5.827l8.496 8.487a3.995 3.995 0 1 0 5.654-5.645zM28.32 38.621a10.56 10.56 0 1 1 21.119 0 10.56 10.56 0 0 1-21.119 0m29.155 18.134a2.083 2.083 0 0 1-2.937 0l-8.18-8.179a12.7 12.7 0 0 0 2.88-3.043l8.256 8.294a2.074 2.074 0 0 1-.019 2.928"/><path d="M34.627 43.2a6.202 6.202 0 1 1 7.383-9.966l-1.143 1.546a4.283 4.283 0 0 0-5.097 6.883z"/></g></g></svg>