<svg xmlns="http://www.w3.org/2000/svg" width="72" height="72" fill="none" viewBox="0 0 72 72"><linearGradient id="a" x1="-14.912" x2="86.912" y1="86.909" y2="-14.915" gradientUnits="userSpaceOnUse"><stop offset="0" stop-color="#c8511b"/><stop offset="1" stop-color="#f90"/></linearGradient><clipPath id="b"><path d="M0 0h72v72H0z"/></clipPath><g clip-path="url(#b)"><path fill="url(#a)" d="M72 0H0v72h72z"/><g fill="#fff"><path d="M35.798 61.862a.96.96 0 0 1-.508-.134L13.44 49.133a1.02 1.02 0 0 1-.509-.883V22.733a1.02 1.02 0 0 1 .509-.883l20.093-11.578a.96.96 0 0 1 1.507.864v11.05a1.01 1.01 0 0 1-.48.854L24.509 28.8v13.382l11.318 6.538 9.898-5.76a.96.96 0 0 1 .96 0l9.523 5.472a1.02 1.02 0 0 1 .509.883.96.96 0 0 1-.509.874l-19.92 11.52a.96.96 0 0 1-.49.153M14.88 47.558l21.437 12.375L54.72 49.296l-7.68-4.426-10.205 5.895a1.07 1.07 0 0 1-1.046 0L23.04 43.41a1.01 1.01 0 0 1-.509-.873V28.282a.96.96 0 0 1 .509-.874l10.051-5.76v-8.813l-18.24 10.56z"/><path d="M58.022 47.04a1.1 1.1 0 0 1-.508-.134L48 41.405a.96.96 0 0 1-.509-.874V28.906L37.44 23.107a1.01 1.01 0 0 1-.509-.873v-11.05a.96.96 0 0 1 .5-.864.96.96 0 0 1 .96 0L58.56 21.907a1.01 1.01 0 0 1 .509.874v23.203a1.02 1.02 0 0 1-.509.883c-.16.106-.346.165-.538.173m-8.582-7.152 7.68 4.416v-20.88l-18.24-10.56v8.765l10.08 5.837a.96.96 0 0 1 .509.873z"/></g></g></svg>