<svg xmlns="http://www.w3.org/2000/svg" width="72" height="72" fill="none" viewBox="0 0 72 72"><linearGradient id="a" x1="-14.909" x2="86.918" y1="86.909" y2="-14.918" gradientUnits="userSpaceOnUse"><stop offset="0" stop-color="#2e27ad"/><stop offset="1" stop-color="#527fff"/></linearGradient><clipPath id="b"><path d="M0 0h72v72H0z"/></clipPath><g clip-path="url(#b)"><path fill="#3b48cc" d="M72 0H0v72h72z"/><path fill="url(#a)" d="M72 0H0v72h72z"/><g fill="#fff"><path d="M36.02 25.92c-6.442 0-12.98 1.68-12.98 4.896v21.888c0 3.216 6.509 4.896 12.95 4.896s12.97-1.68 12.97-4.896V30.816c0-3.216-6.518-4.896-12.94-4.896m0 29.76c-7.143 0-11.06-1.92-11.06-2.976v-4.618c2.4 1.46 6.72 2.218 11.03 2.218s8.64-.759 11.021-2.208v4.608c.029 1.056-3.869 2.976-10.992 2.976m0-7.296c-7.143 0-11.031-1.92-11.031-2.976V40.8c2.4 1.45 6.72 2.208 11.03 2.208s8.64-.758 11.021-2.208v4.608c0 1.008-3.898 2.976-11.02 2.976m0-7.296c-7.143 0-11.031-1.92-11.031-2.976v-4.618c2.4 1.46 6.72 2.218 11.03 2.218s8.64-.759 11.021-2.218v4.618c0 1.008-3.898 2.976-11.02 2.976m0-7.296c-7.143 0-11.06-1.968-11.06-2.976s3.84-2.976 11.03-2.976 11.05 1.968 11.05 2.976-3.898 2.976-11.02 2.976"/><path d="M59.52 18.423a.96.96 0 0 0 .96-.96V15.36a.96.96 0 0 0-.96-.96H12.48a.96.96 0 0 0-.96.96v2.093a.96.96 0 0 0 .96.96 2.132 2.132 0 0 1 0 4.243.96.96 0 0 0-.96.96V40.32a.96.96 0 0 0 .96.96h8.64v-1.92h-3.84v-.96h3.84v-1.92h-4.8a.96.96 0 0 0-.96.96v1.92h-1.92V24.452a4.09 4.09 0 0 0 0-7.824v-.308h45.12v.317a4.1 4.1 0 0 0 0 7.805V39.36h-.96v-1.92a.96.96 0 0 0-.96-.96h-5.76v1.92h4.8v.96h-4.8v1.92h8.64a.96.96 0 0 0 .96-.96V23.616a.96.96 0 0 0-.96-.96 2.13 2.13 0 0 1 0-4.233"/><path d="M35.52 24v-4.8a.96.96 0 0 0-.96-.96h-6.72a.96.96 0 0 0-.96.96v5.76h1.92v-4.8h4.8V24zm9.6.96V19.2a.96.96 0 0 0-.96-.96h-6.72a.96.96 0 0 0-.96.96V24h1.92v-3.84h4.8v4.8zm5.76 7.68v1.92h2.88a.96.96 0 0 0 .96-.96V19.2a.96.96 0 0 0-.96-.96h-6.72a.96.96 0 0 0-.96.96v6.72H48v-5.76h4.8v12.48zM19.2 20.16H24v5.76h1.92V19.2a.96.96 0 0 0-.96-.96h-6.72a.96.96 0 0 0-.96.96v14.4a.96.96 0 0 0 .96.96h2.88v-1.92H19.2z"/></g></g></svg>