<svg xmlns="http://www.w3.org/2000/svg" width="72" height="72" fill="none" viewBox="0 0 72 72"><linearGradient id="a" x1="-14.912" x2="86.912" y1="86.909" y2="-14.915" gradientUnits="userSpaceOnUse"><stop offset="0" stop-color="#c8511b"/><stop offset="1" stop-color="#f90"/></linearGradient><clipPath id="b"><path d="M0 0h72v72H0z"/></clipPath><g clip-path="url(#b)"><path fill="#d86613" d="M72 0H0v72h72z"/><path fill="url(#a)" d="M72 0H0v72h72z"/><g fill="#fff"><path d="M23.798 34.954q.105.122.23.22.217.187.452.346l.106.058q.232.144.48.26l.297.124h.202l.24.105c.451.164.96.356 1.517.528l.873.26.47.124c2.4.589 4.864.876 7.335.855a26.6 26.6 0 0 0 10.944-2.093 4.26 4.26 0 0 0 2.496-3.84V18.125a1.52 1.52 0 0 0-.864-1.363l-11.923-5.568a1.46 1.46 0 0 0-1.277 0l-11.952 5.568a1.52 1.52 0 0 0-.864 1.363V31.95a4.26 4.26 0 0 0 1.046 2.803q.09.109.192.202m4.896.134-.806-.24c-.518-.163-.96-.336-1.354-.47l-.345-.144-.327-.154a3 3 0 0 1-.316-.163l-.24-.182-.125-.135a.3.3 0 0 0-.077-.077l-.077-.086a2.32 2.32 0 0 1-.566-1.526V19.277l10.56 4.944v11.75a26.7 26.7 0 0 1-5.904-.767zm17.472-1.017a23.9 23.9 0 0 1-9.216 1.92V24.403l10.56-4.8v12.288a2.32 2.32 0 0 1-1.344 2.18M36 13.008l10.618 4.954-10.445 4.685-.077-.048-10.32-4.8z"/><path d="m52.589 26.573-.538 1.843c4.31 1.268 6.989 3.072 6.989 4.704 0 3.178-9.466 6.72-23.04 6.72s-23.04-3.542-23.04-6.72c0-1.632 2.678-3.436 6.989-4.704l-.538-1.843c-5.395 1.584-8.371 3.917-8.371 6.547 0 5.607 12.864 8.64 24.96 8.64s24.96-3.033 24.96-8.64c0-2.63-2.976-4.953-8.371-6.547m-.058 18.202-4.464-1.92a1.25 1.25 0 0 0-1.094 0l-4.56 1.968a1.17 1.17 0 0 0-.653 1.056v4.944l-4.253-1.862a1.29 1.29 0 0 0-1.094 0l-4.282 1.852V45.86a1.2 1.2 0 0 0-.71-1.085l-4.474-1.92a1.23 1.23 0 0 0-1.085 0l-4.57 1.968a1.17 1.17 0 0 0-.652 1.056v5.837a1.2 1.2 0 0 0 .71 1.084l4.464 1.92h.106c.152.066.315.102.48.106a.96.96 0 0 0 .48-.105l4.31-1.853v4.944a1.2 1.2 0 0 0 .71 1.075l4.455 1.92h.067c.163.075.34.115.519.115.17.002.338-.038.49-.115l4.579-1.968a1.19 1.19 0 0 0 .652-1.056v-4.915l4.263 1.852h.115c.164.072.34.11.518.116.154-.006.305-.045.442-.115l4.589-1.92a1.17 1.17 0 0 0 .653-1.056V45.86a1.2 1.2 0 0 0-.71-1.085m-5.03-.077 2.62 1.114-2.457 1.008-2.544-1.095zm-10.56 6.125 2.62 1.114-2.457.96-2.544-1.056zm-10.56-6.125 2.611 1.123-2.458.96L24 45.725zm-3.84 2.496 2.88 1.229v4.032l-2.88-1.238zm4.8 5.251v-3.84l2.88-1.18v3.84zm5.76.864 2.88 1.239v4.012l-2.88-1.238zm4.8 5.261v-3.85l2.88-1.19v3.84zm5.76-11.376 2.88 1.229v4.032l-2.88-1.239zm4.8 5.26v-3.84l2.88-1.19v3.84z"/></g></g></svg>