<svg xmlns="http://www.w3.org/2000/svg" width="72" height="72" fill="none" viewBox="0 0 72 72"><linearGradient id="a" x1="-14.909" x2="86.918" y1="86.909" y2="-14.918" gradientUnits="userSpaceOnUse"><stop offset="0" stop-color="#bd0816"/><stop offset="1" stop-color="#ff5252"/></linearGradient><clipPath id="b"><path d="M0 0h72v72H0z"/></clipPath><g clip-path="url(#b)"><path fill="url(#a)" d="M72 0H0v72h72z"/><g fill="#fff"><path d="M57.312 18.24H14.688A2.7 2.7 0 0 0 12 20.928v30.144a2.697 2.697 0 0 0 2.688 2.688h42.624A2.697 2.697 0 0 0 60 51.072V20.928a2.697 2.697 0 0 0-2.688-2.688m.768 32.832a.77.77 0 0 1-.768.768H14.688a.77.77 0 0 1-.768-.768V20.928a.77.77 0 0 1 .768-.768h42.624a.77.77 0 0 1 .768.768z"/><path d="M48.48 30.72h-9.6v1.92h9.6zm5.76 0h-1.92v1.92h1.92zm-19.478 3.168a.96.96 0 0 0-.682-.288H20.64v-4.8a3.49 3.49 0 0 1 1.44-2.736 5.5 5.5 0 0 1 3.36-1.104 5.33 5.33 0 0 1 3.456 1.21 3.5 3.5 0 0 1 1.344 2.63v4.8h1.92v-5.184a4.87 4.87 0 0 0-2.026-3.84 7.6 7.6 0 0 0-4.694-1.536c-3.706 0-6.72 2.41-6.72 5.366V33.6H16.8a.96.96 0 0 0-.96.96V48a.96.96 0 0 0 .96.96h17.28a.96.96 0 0 0 .96-.96V34.56a.96.96 0 0 0-.278-.672M33.12 38.4h-2.88v1.92h2.88v1.92h-2.88v1.92h2.88v2.88H17.76V35.52h15.36z"/><path d="M25.44 37.027a2.813 2.813 0 0 0-.96 5.453v2.64h1.92v-2.64a2.812 2.812 0 0 0-.96-5.453m0 4.032a1.22 1.22 0 1 1 0-2.44 1.22 1.22 0 0 1 0 2.44M45.6 35.52h-6.72v1.92h6.72zm8.64 0h-4.8v1.92h4.8zm-2.88 4.8H38.88v1.92h12.48z"/></g></g></svg>