<svg xmlns="http://www.w3.org/2000/svg" width="72" height="72" fill="none" viewBox="0 0 72 72"><linearGradient id="a" x1="-14.915" x2="86.909" y1="86.912" y2="-14.912" gradientUnits="userSpaceOnUse"><stop offset="0" stop-color="#bd0816"/><stop offset="1" stop-color="#ff5252"/></linearGradient><clipPath id="b"><path d="M0 0h72v72H0z"/></clipPath><g clip-path="url(#b)"><path fill="url(#a)" d="M72 0H0v72h72z"/><g fill="#fff"><path d="M24 45.168h-2.559c-5.03 0-9.167-3.667-9.436-8.322v-.614a8.44 8.44 0 0 1 6.22-8.447v-.672a12.48 12.48 0 0 1 7.526-11.077 12.98 12.98 0 0 1 14.168 2.678 13.4 13.4 0 0 1 2.88 4.031 5.85 5.85 0 0 1 3.561-1.21c2.688 0 5.51 1.872 6.047 6.029 4.896 1.17 7.574 4.252 7.574 8.764 0 4.799-2.62 7.976-7.2 8.725l-.306-1.92c2.543-.413 5.586-1.92 5.586-6.825 0-3.772-2.256-6.124-6.72-6.988a.96.96 0 0 1-.777-.883c-.22-3.666-2.4-4.962-4.194-4.962a3.95 3.95 0 0 0-3.13 1.555.96.96 0 0 1-1.66-.25 12.1 12.1 0 0 0-2.995-4.655A11.13 11.13 0 0 0 26.46 17.83a10.67 10.67 0 0 0-6.316 9.282q.002.625.077 1.248a.5.5 0 0 1 0 .115.96.96 0 0 1-.816.96c-2.102.528-5.52 2.12-5.52 6.776v.51c.212 3.637 3.514 6.507 7.517 6.517H24z"/><path fill-rule="evenodd" d="M37 47a6 6 0 1 0 0-12 6 6 0 0 0 0 12m0 2c1.955 0 3.745-.7 5.135-1.865l6.95 6.951-3.5 3.5L47 59l3.5-3.5L54 59l1.414-1.414-11.917-11.917A8 8 0 1 0 37 49" clip-rule="evenodd"/></g></g></svg>