<svg xmlns="http://www.w3.org/2000/svg" xmlns:xlink="http://www.w3.org/1999/xlink" width="72" height="72" fill="none" viewBox="0 0 72 72"><linearGradient id="a"><stop offset="0" stop-color="#2e27ad"/><stop offset="1" stop-color="#527fff"/></linearGradient><linearGradient xlink:href="#a" id="b" x1="0" x2="7200" y1="7200" y2="0" gradientUnits="userSpaceOnUse"/><linearGradient xlink:href="#a" id="c" x1="-14.909" x2="86.918" y1="86.909" y2="-14.918" gradientUnits="userSpaceOnUse"/><clipPath id="d"><path d="M0 0h72v72H0z"/></clipPath><g clip-path="url(#d)"><path fill="url(#b)" d="M72 0H0v72h72z"/><path fill="url(#c)" d="M72 0H0v72h72z"/><g fill="#fff"><path fill-rule="evenodd" d="m55.29 29.76 2.7 3.03a2.6 2.6 0 0 1-.81.972q-.51.378-1.14.468l-2.1-3.63-2.103 3.63a2.5 2.5 0 0 1-1.137-.468 2.7 2.7 0 0 1-.81-.972l2.697-3.03-3.447-.81a2.7 2.7 0 0 1-.063-.48c0-.68.264-1.28.783-1.8l3.24 1.59-.42-3.873a3.1 3.1 0 0 1 1.26-.267q.688 0 1.26.267l-.42 3.873 3.24-1.59q.782.78.78 1.8.002.181-.06.48zm-7.44 17.46v2.98q-2.438 1.261-5.628 1.26-4.954-.001-7.581-2.833-2.626-2.835-2.625-8.21 0-5.338 2.709-8.254 2.71-2.92 7.665-2.919 2.817 0 5.292 1.176v2.98c-1.599-.505-3.162-.757-4.704-.757-2.352 0-4.05.597-5.082 1.788-1.035 1.191-1.557 3.084-1.557 5.691v.546q.002 3.821 1.578 5.604c1.047 1.191 2.709 1.788 4.977 1.788q2.266-.001 4.956-.84m-6.476-26.61c.535-.531.626-.904.626-1.11s-.09-.579-.626-1.11c-.543-.538-1.43-1.115-2.687-1.642C36.18 15.698 32.58 15 28.5 15s-7.681.697-10.187 1.748c-1.257.527-2.144 1.104-2.687 1.642-.535.531-.626.904-.626 1.11s.09.579.626 1.11c.543.538 1.43 1.115 2.687 1.642C20.82 23.302 24.42 24 28.5 24s7.681-.697 10.187-1.748c1.257-.527 2.144-1.104 2.687-1.642M28.5 26c8.56 0 15.5-2.91 15.5-6.5S37.06 13 28.5 13 13 15.91 13 19.5 19.94 26 28.5 26" clip-rule="evenodd"/><path d="M44 19.43h-2v7h2zM28.355 57.035c-7.43 0-15.36-2.228-15.36-6.365V19.43h1.92v31.259c0 2.112 5.76 4.464 13.44 4.464 2.827 0 5.394-.319 7.51-.827l.573 1.805c-2.473.598-5.314.904-8.083.904"/><path d="M28.365 36.712c-7.43 0-15.36-2.256-15.36-6.432h1.92c0 2.131 5.76 4.512 13.44 4.512q.832 0 1.635-.036v1.92q-.818.036-1.635.036m-.005 10.56c-7.43 0-15.36-2.256-15.36-6.432h1.92c0 2.131 5.76 4.512 13.44 4.512q.82.011 1.64-.023v1.921q-.82.032-1.64.022"/></g></g></svg>