<svg xmlns="http://www.w3.org/2000/svg" width="72" height="72" fill="none" viewBox="0 0 72 72"><linearGradient id="a" x1="-14.909" x2="86.909" y1="86.909" y2="-14.909" gradientUnits="userSpaceOnUse"><stop offset="0" stop-color="#b0084d"/><stop offset="1" stop-color="#ff4f8b"/></linearGradient><clipPath id="b"><path d="M0 0h72v72H0z"/></clipPath><g clip-path="url(#b)"><path fill="url(#a)" d="M72 0H0v72h72z"/><path fill="#fff" d="M59.04 59.04h-6.72v-1.92h5.76V22.56H13.92v34.56H40.8v1.92H12.96a.96.96 0 0 1-.96-.96V13.92a.96.96 0 0 1 .96-.96h46.08a.96.96 0 0 1 .96.96v44.16a.96.96 0 0 1-.96.96m-45.12-38.4h44.16v-5.76H13.92zm24.653 33.523h-5.146a.96.96 0 0 1-.96-.96v-.854a13.3 13.3 0 0 1-2.505-1.037l-.605.605a.96.96 0 0 1-1.354 0l-3.638-3.629a.96.96 0 0 1-.279-.682.96.96 0 0 1 .279-.681l.614-.605a12.5 12.5 0 0 1-1.046-2.506h-.893a.96.96 0 0 1-.96-.96v-5.136a.96.96 0 0 1 .96-.96h.864c.263-.87.617-1.71 1.056-2.505l-.595-.653a.96.96 0 0 1 0-1.354l3.638-3.638a.96.96 0 0 1 1.354 0l.614.614c.794-.43 1.63-.777 2.496-1.036v-.864a.96.96 0 0 1 .96-.96h5.146a.96.96 0 0 1 .96.96v.873c.868.25 1.705.599 2.496 1.037l.614-.624a.96.96 0 0 1 1.354 0l3.638 3.638a.96.96 0 0 1 0 1.354l-.614.614a12 12 0 0 1 1.037 2.506h.902a.96.96 0 0 1 .96.96v5.136a.96.96 0 0 1-.96.96h-.864a12 12 0 0 1-1.056 2.544l.614.605a.96.96 0 0 1 0 1.363l-3.638 3.629a.96.96 0 0 1-1.354 0l-.604-.605c-.796.434-1.636.782-2.506 1.037v.854a.96.96 0 0 1-.98.96m-4.186-1.92h3.226v-.633a.96.96 0 0 1 .739-.96 10.8 10.8 0 0 0 3.331-1.373.96.96 0 0 1 1.19.134l.452.451 2.275-2.275-.48-.441a.96.96 0 0 1-.134-1.19 10.2 10.2 0 0 0 1.372-3.313.96.96 0 0 1 .96-.749H48v-3.216h-.643a.96.96 0 0 1-.96-.748 10.5 10.5 0 0 0-1.373-3.322.96.96 0 0 1 .096-1.19l.46-.461-2.255-2.237-.461.47a.96.96 0 0 1-1.2.125 10.3 10.3 0 0 0-3.264-1.401.96.96 0 0 1-.74-.96v-.634h-3.273v.653a.96.96 0 0 1-.749.96 10.8 10.8 0 0 0-3.312 1.373.96.96 0 0 1-1.19-.135l-.46-.451-2.276 2.237.46.46a.96.96 0 0 1 .135 1.2 10.6 10.6 0 0 0-1.373 3.313.96.96 0 0 1-.96.748H24v3.216h.643a.96.96 0 0 1 .96.75 10.7 10.7 0 0 0 1.373 3.32.96.96 0 0 1-.096 1.191l-.46.451 2.255 2.314.461-.46a.96.96 0 0 1 1.19-.126A10.7 10.7 0 0 0 33.6 50.67a.96.96 0 0 1 .749.96zM36 45.446a5.166 5.166 0 1 1 5.165-5.126A5.175 5.175 0 0 1 36 45.446m0-8.4a3.245 3.245 0 1 0 0 6.49 3.245 3.245 0 0 0 0-6.49M25.44 18.72h-1.92V16.8h1.92zm-3.84 0h-1.92V16.8h1.92zm-3.84 0h-1.92V16.8h1.92z"/></g></svg>