<svg xmlns="http://www.w3.org/2000/svg" width="72" height="72" fill="none" viewBox="0 0 72 72"><linearGradient id="a" x1="0" x2="7200" y1="7200" y2="0" gradientUnits="userSpaceOnUse"><stop offset="0" stop-color="#2e27ad"/><stop offset="1" stop-color="#527fff"/></linearGradient><clipPath id="b"><path d="M0 0h72v72H0z"/></clipPath><g clip-path="url(#b)"><path fill="url(#a)" d="M72 0H0v72h72z"/><g fill="#fff"><path fill-rule="evenodd" d="M41.374 20.61c.535-.531.626-.904.626-1.11s-.09-.579-.626-1.11c-.543-.538-1.43-1.115-2.687-1.642C36.18 15.698 32.58 15 28.5 15s-7.681.697-10.187 1.748c-1.257.527-2.144 1.104-2.687 1.642-.535.531-.626.904-.626 1.11s.09.579.626 1.11c.543.538 1.43 1.115 2.687 1.642C20.82 23.302 24.42 24 28.5 24s7.681-.697 10.187-1.748c1.257-.527 2.144-1.104 2.687-1.642M28.5 26c8.56 0 15.5-2.91 15.5-6.5S37.06 13 28.5 13 13 15.91 13 19.5 19.94 26 28.5 26" clip-rule="evenodd"/><path d="M44 19.43h-2v14h2z"/><path fill-rule="evenodd" d="M19.103 55.807q.09-.958.258-1.89c-2.761-.874-4.446-2.086-4.446-3.228v-31.26h-1.92v31.24c0 2.346 2.548 4.078 6.108 5.138" clip-rule="evenodd"/><path d="M20.882 46.472C24.842 39.068 32.803 34 41.993 34c1.702 0 3.362.174 4.961.504l.404-1.959A26.5 26.5 0 0 0 41.993 32c-9.937 0-18.571 5.482-22.875 13.528zm28.055-11.471a24 24 0 0 1 4.588 1.895l.95-1.76a26 26 0 0 0-4.97-2.052z"/><path fill-rule="evenodd" d="M55.89 43.61A19.94 19.94 0 0 1 62 58H22q0-1.013.099-2C23.102 45.893 31.629 38 42 38c4.675 0 8.975 1.604 12.38 4.291l5.206-5.205L61 38.5zM24.11 56c.995-9 8.625-16 17.89-16 4.122 0 7.92 1.386 10.955 3.717l-8.039 8.038A6.002 6.002 0 0 0 36.084 56zm22.375-2.985A6 6 0 0 1 47.917 56H59.89a17.95 17.95 0 0 0-5.414-10.975zM42 53a4 4 0 0 1 3.874 3h-7.748c.444-1.725 2.01-3 3.874-3" clip-rule="evenodd"/><path d="M24.84 34.62a29 29 0 0 0-2.063 1.666c-5.341-.835-9.772-2.884-9.772-6.006h1.92c0 1.79 4.063 3.756 9.914 4.34m-7.763 8.547a29 29 0 0 0-.928 1.679C14.218 43.819 13 42.476 13 40.84h1.92c0 .785.783 1.605 2.156 2.327"/></g></g></svg>