<svg xmlns="http://www.w3.org/2000/svg" width="72" height="72" fill="none" viewBox="0 0 72 72"><linearGradient id="a" x1="-14.918" x2="86.909" y1="86.918" y2="-14.909" gradientUnits="userSpaceOnUse"><stop offset="0" stop-color="#4d27a8"/><stop offset="1" stop-color="#a166ff"/></linearGradient><clipPath id="b"><path d="M0 0h72v72H0z"/></clipPath><g clip-path="url(#b)"><path fill="url(#a)" d="M72 0H0v72h72z"/><g fill="#fff"><path d="M36 60c-7.91 0-16.32-2.295-16.32-6.548V18.548h1.92v34.906c0 1.92 5.482 4.627 14.4 4.627s14.4-2.688 14.4-4.627V18.547h1.92v34.906C52.32 57.705 43.91 60 36 60"/><path d="M36 60c-7.91 0-16.32-2.295-16.32-6.548V18.548h1.92v34.906c0 1.92 5.482 4.627 14.4 4.627s14.4-2.688 14.4-4.627V18.547h1.92v34.906C52.32 57.705 43.91 60 36 60"/><path d="M36 25.085c-7.91 0-16.32-2.295-16.32-6.538S28.09 12 36 12s16.32 2.294 16.32 6.547-8.41 6.538-16.32 6.538m0-11.165c-8.918 0-14.4 2.688-14.4 4.627s5.482 4.618 14.4 4.618 14.4-2.688 14.4-4.618S44.918 13.92 36 13.92m-2.721 23.959-.426 1.872 5.823 1.324.425-1.872zm10.327-5.735-2.22 5.626 1.785.704 2.22-5.625zm-14.703 7.989-1.96 4.592 1.767.753 1.96-4.591z"/><path d="M26.88 50.66a3.36 3.36 0 1 1 0-6.721 3.36 3.36 0 0 1 0 6.72m0-4.8a1.44 1.44 0 1 0 0 2.88 1.44 1.44 0 0 0 0-2.88m3.84-4.204a3.36 3.36 0 1 1 0-6.72 3.36 3.36 0 0 1 0 6.72m0-4.8a1.44 1.44 0 1 0 0 2.878 1.44 1.44 0 0 0 0-2.878m10.56 6.825a3.36 3.36 0 1 1 0-6.72 3.36 3.36 0 0 1 0 6.72m0-4.8a1.44 1.44 0 1 0 0 2.88 1.44 1.44 0 0 0 0-2.88m3.84-5.28a3.36 3.36 0 1 1 3.36-3.36v.048a3.37 3.37 0 0 1-3.36 3.312m0-4.8a1.44 1.44 0 1 0 .001 2.88 1.44 1.44 0 0 0-.001-2.88"/></g></g></svg>