<svg xmlns="http://www.w3.org/2000/svg" width="72" height="72" fill="none" viewBox="0 0 72 72"><linearGradient id="a" x1="-14.909" x2="86.918" y1="86.909" y2="-14.918" gradientUnits="userSpaceOnUse"><stop offset="0" stop-color="#2e27ad"/><stop offset="1" stop-color="#527fff"/></linearGradient><clipPath id="b"><path d="M0 0h72v72H0z"/></clipPath><g clip-path="url(#b)"><path fill="url(#a)" d="M72 0H0v72h72z"/><path fill="#fff" d="M46.512 27.1c0-2.783-5.462-4.07-10.56-4.07s-10.56 1.287-10.56 4.07q-.006.211.048.413v17.329c-.048 2.88 5.424 4.108 10.56 4.108s10.56-1.267 10.56-4.05V27.1zm-10.54-2.14c5.596 0 8.64 1.526 8.64 2.15s-3.025 2.15-8.64 2.15-8.64-1.516-8.64-2.15 3.042-2.15 8.64-2.15m8.64 19.949c0 .614-3.034 2.13-8.64 2.13s-8.64-1.516-8.64-2.13v-3.034c2.025 1.104 5.423 1.632 8.64 1.632s6.585-.518 8.64-1.603zm0-5.463c0 .615-3.025 2.15-8.64 2.15s-8.64-1.535-8.64-2.15h.028V35.78c2.026 1.094 5.424 1.622 8.64 1.622s6.586-.518 8.64-1.603zm0-6.115c0 .624-3.025 2.16-8.64 2.16s-8.64-1.536-8.64-2.16h.028v-3.744c2.045 1.085 5.405 1.584 8.64 1.584s6.634-.518 8.64-1.622zM15.274 58.09H21.6v1.92h-8.64a.96.96 0 0 1-.96-.96v-8.64h1.92v6.307l7.2-7.19 1.344 1.353zM60 50.41v8.64a.96.96 0 0 1-.96.96H50.4v-1.92h6.326l-7.094-7.114 1.354-1.344 7.094 7.085v-6.308zm0-37.44v8.64h-1.92v-6.336l-7.094 7.094-1.354-1.353 7.085-7.085H50.4v-1.92h8.64a.96.96 0 0 1 .96.96m-37.536 8.15-1.344 1.344-7.2-7.19v6.316H12v-8.64a.96.96 0 0 1 .96-.96h8.64v1.92h-6.326zm-1.19 23.481c-5.866-2.112-9.226-5.337-9.226-8.841s3.36-6.72 9.226-8.842l.652 1.805c-4.982 1.795-7.958 4.425-7.958 7.037s2.976 5.241 7.958 7.036zm28.915.212-.615-1.824c5.328-1.796 8.506-4.503 8.506-7.23s-3.178-5.433-8.506-7.238l.615-1.814C56.419 28.8 60 32.121 60 35.76s-3.58 6.94-9.811 9.053"/></g></svg>