<svg xmlns="http://www.w3.org/2000/svg" width="72" height="72" fill="none" viewBox="0 0 72 72"><linearGradient id="a" x1="-14.909" x2="86.909" y1="86.909" y2="-14.909" gradientUnits="userSpaceOnUse"><stop offset="0" stop-color="#1b660f"/><stop offset="1" stop-color="#6cae3e"/></linearGradient><clipPath id="b"><path d="M0 0h72v72H0z"/></clipPath><g clip-path="url(#b)"><path fill="url(#a)" d="M72 0H0v72h72z"/><path fill="#fff" d="M58.973 38.458c-.279-1.507-1.987-2.573-3.159-3.331-.374-.24-1.401-.625-1.488-.96-.006-.24.027-.48.096-.71l.96-6.903c.279-2.026.548-4.051.826-6.077.25-1.862-.643-3.11-2.16-4.157-3.091-2.14-7.123-3.005-10.762-3.6a53.6 53.6 0 0 0-13.804-.451 38.4 38.4 0 0 0-12.03 2.88c-2.054.96-4.742 2.458-4.406 5.078.96 7.796 2.093 15.571 3.14 23.357l1.44 10.685a3.97 3.97 0 0 0 2.361 3.197c2.976 1.613 6.663 2.073 9.984 2.38 4.416.4 8.866.203 13.229-.585 2.765-.509 7.91-1.344 8.352-4.8.547-4.282 1.152-8.563 1.728-12.835l.211-1.306c1.565.375 6.029 1.171 5.482-1.862M34.608 13.92c5.76 0 12.355.653 17.52 3.495.797.441 2.65 1.43 2.093 2.601s-2.285 1.757-3.341 2.18a30 30 0 0 1-4.637 1.295 59.8 59.8 0 0 1-20.793.432 25.7 25.7 0 0 1-8.948-2.62c-.69-.394-1.833-1.104-1.516-2.045a2.9 2.9 0 0 1 1.132-1.21 20 20 0 0 1 6.912-2.793 48.3 48.3 0 0 1 11.578-1.335m15.053 40.464c-.144 1.123-1.997 1.68-2.88 1.997a28.4 28.4 0 0 1-5.645 1.267c-4.26.567-8.576.567-12.835 0a21.4 21.4 0 0 1-7.68-2.083 1.92 1.92 0 0 1-1.152-1.66c-.96-7.614-2.055-15.226-3.082-22.84l-1.113-8.255a22.3 22.3 0 0 0 7.008 2.457c2.631.536 5.297.886 7.977 1.047 5.26.377 10.548.083 15.735-.874a23.3 23.3 0 0 0 7.881-2.63L51.84 37.882a116 116 0 0 1-14.227-5.76 4 4 0 0 1-.586-.279c-.259-.192-.192-.096-.317-.393-.24-.547-.297-.96-.806-1.411a2.16 2.16 0 1 0-1.19 3.84c.33-.055.653-.152.96-.288.374-.116.374-.096.768.086a122 122 0 0 0 14.4 5.914c.739.24.73 0 .73.614q-.048.701-.183 1.392l-.615 4.58zM34.848 31.68c0 .26-.365.23-.46.067s.46-.432.46-.067M53.76 38.4l.288-2.121c.96.547 2.592 1.372 3.024 2.467-.94.384-2.429-.125-3.312-.346"/></g></svg>