<svg xmlns="http://www.w3.org/2000/svg" width="72" height="72" fill="none" viewBox="0 0 72 72"><linearGradient id="a" x1="-14.909" x2="86.909" y1="86.909" y2="-14.909" gradientUnits="userSpaceOnUse"><stop offset="0" stop-color="#bd0816"/><stop offset="1" stop-color="#ff5252"/></linearGradient><clipPath id="b"><path d="M0 0h72v72H0z"/></clipPath><g clip-path="url(#b)"><path fill="url(#a)" d="M72 0H0v72h72z"/><g fill="#fff"><path d="M28.306 43.402h-6.864c-5.03 0-9.168-3.667-9.436-8.323v-.615a8.44 8.44 0 0 1 6.22-8.448v-.672a12.48 12.48 0 0 1 7.527-11.078 12.98 12.98 0 0 1 14.17 2.678 13.4 13.4 0 0 1 2.88 4.032 5.85 5.85 0 0 1 3.56-1.21c2.689 0 5.511 1.873 6.049 6.03 4.896 1.17 7.574 4.252 7.574 8.764 0 4.8-2.62 7.978-7.2 8.727l-.307-1.92c2.544-.413 5.587-1.92 5.587-6.826 0-3.773-2.256-6.125-6.72-6.989a.96.96 0 0 1-.777-.883c-.221-3.667-2.4-4.963-4.196-4.963a3.95 3.95 0 0 0-3.13 1.555.96.96 0 0 1-1.66-.25 12.1 12.1 0 0 0-2.995-4.655 11.125 11.125 0 0 0-12.125-2.295 10.68 10.68 0 0 0-6.317 9.283q.002.627.077 1.248a.5.5 0 0 1 0 .116.96.96 0 0 1-.816.96c-2.102.528-5.52 2.121-5.52 6.777v.51c.211 3.637 3.514 6.508 7.517 6.517h6.902z"/><path d="M59.026 58.762h-2.822a.96.96 0 0 1-.672-.269l-1.7-1.65h-4.406a.96.96 0 0 1-.96-.96v-2.487l-1.353-1.354h-2.487a.96.96 0 0 1-.96-.96V48.48l-.364-.585a9.9 9.9 0 0 1-3.313.576 9.753 9.753 0 0 1-5.25-17.98c.249-.164.527-.318.796-.462s.605-.288.902-.413q.723-.269 1.479-.422a5.5 5.5 0 0 1 .777-.125h.692q.3-.051.604-.057a9.783 9.783 0 0 1 9.764 9.696 8.7 8.7 0 0 1-.586 3.379l10.56 10.56c.175.184.275.427.278.681v4.503a.96.96 0 0 1-.979.931m-2.429-1.92h1.47v-3.14L47.342 42.98a.96.96 0 0 1-.211-1.037c.49-1 .727-2.104.691-3.216a7.853 7.853 0 0 0-7.843-7.843q-.172-.015-.346 0h-.69a4 4 0 0 0-.586.086 8.5 8.5 0 0 0-1.2.336c-.192.086-.461.202-.72.336s-.432.24-.644.374a7.834 7.834 0 0 0 7.508 13.719.96.96 0 0 1 1.219.355l.96 1.507a.96.96 0 0 1 .144.51v1.92h1.92a.96.96 0 0 1 .681.277l1.92 1.92a.96.96 0 0 1 .279.682v1.92h3.84a.96.96 0 0 1 .672.269zm-18.24-16.32a3.47 3.47 0 0 1-2.505-1.056 3.55 3.55 0 0 1 .005-5.016 3.547 3.547 0 0 1 5.016.005 3.47 3.47 0 0 1 1.056 2.505 3.59 3.59 0 0 1-3.543 3.562zm0-5.05a1.6 1.6 0 0 0-1.142.47 1.63 1.63 0 0 0-.356 1.777c.083.198.204.377.356.528a1.603 1.603 0 0 0 2.304 0c.306-.305.479-.72.48-1.152a1.6 1.6 0 0 0-.48-1.143 1.68 1.68 0 0 0-1.19-.432z"/></g></g></svg>