<svg xmlns="http://www.w3.org/2000/svg" width="72" height="72" fill="none" viewBox="0 0 72 72"><path fill="url(#a)" d="M24.003 2.058h21.305l-22.117 65.53a3.4 3.4 0 0 1-3.218 2.312H3.392a3.392 3.392 0 0 1-3.214-4.476L20.784 4.369a3.4 3.4 0 0 1 3.219-2.311"/><path fill="#0078d4" d="M54.962 46.012H21.177a1.564 1.564 0 0 0-1.068 2.707l21.71 20.263c.632.59 1.464.918 2.328.918h19.13z"/><path fill="url(#b)" d="M24.002 2.058a3.37 3.37 0 0 0-3.226 2.356L.203 65.368A3.388 3.388 0 0 0 3.4 69.9h17.01a3.64 3.64 0 0 0 2.79-2.373l4.102-12.091 14.655 13.668a3.47 3.47 0 0 0 2.182.796h19.059l-8.36-23.888-24.367.006 14.914-43.96z"/><path fill="url(#c)" d="M51.216 4.366A3.39 3.39 0 0 0 48 2.058H24.258a3.39 3.39 0 0 1 3.214 2.308l20.607 61.057a3.392 3.392 0 0 1-3.215 4.477H68.61a3.392 3.392 0 0 0 3.213-4.477z"/><defs><linearGradient id="a" x1="31.768" x2="9.642" y1="7.085" y2="72.452" gradientUnits="userSpaceOnUse"><stop stop-color="#114a8b"/><stop offset="1" stop-color="#0669bc"/></linearGradient><linearGradient id="b" x1="38.679" x2="33.561" y1="37.548" y2="39.279" gradientUnits="userSpaceOnUse"><stop stop-opacity=".3"/><stop offset=".071" stop-opacity=".2"/><stop offset=".321" stop-opacity=".1"/><stop offset=".623" stop-opacity=".05"/><stop offset="1" stop-opacity="0"/></linearGradient><linearGradient id="c" x1="35.865" x2="60.153" y1="5.179" y2="69.887" gradientUnits="userSpaceOnUse"><stop stop-color="#3ccbf4"/><stop offset="1" stop-color="#2892df"/></linearGradient></defs></svg>