<svg width="72" height="72" viewBox="0 0 72 72" fill="none" xmlns="http://www.w3.org/2000/svg">
<path d="M10.875 25.7309V13.9639L22.3701 22.8593C26.351 25.9804 27.106 30.5233 27.0128 30.4096C24.4211 27.1896 20.9598 25.7766 18.577 25.7387L10.875 25.7309Z" fill="#FF9C6C"/>
<path d="M41.8463 28.2695H33.2451V59.392H41.8463V28.2695Z" fill="#FF5A0A"/>
<path d="M56.9264 13.5771H48.3252V59.3927H56.9264V13.5771Z" fill="#FF5A0A"/>
<path d="M71.9996 13.5771H63.3984V59.3927H71.9996V13.5771Z" fill="#FF5A0A"/>
<path d="M18.4039 48.6413C18.4039 50.0275 17.2014 51.1654 15.842 51.1654H8.50048V36.352H15.842C17.2099 36.352 18.4039 37.4767 18.4039 38.8762V48.6413ZM8.55774 28.2805V13.5962H0V59.3884H17.9087C22.9468 59.3884 27.0285 55.1027 27.0285 49.8126V37.8563C27.0285 32.5662 22.9468 28.2805 17.9087 28.2805H8.55774Z" fill="#FF5A0A"/>
<path d="M37.4939 23.8434C40.5972 23.8434 43.1129 21.3277 43.1129 18.2244C43.1129 15.1212 40.5972 12.6055 37.4939 12.6055C34.3907 12.6055 31.875 15.1212 31.875 18.2244C31.875 21.3277 34.3907 23.8434 37.4939 23.8434Z" fill="#FF5A0A"/>
</svg>
