<svg xmlns="http://www.w3.org/2000/svg" width="72" height="72" fill="none" viewBox="0 0 72 72"><path fill="#ff9c6c" d="M10.875 25.73V13.965L22.37 22.86c3.981 3.121 4.736 7.664 4.643 7.55-2.592-3.22-6.053-4.632-8.436-4.67z"/><path fill="#ff5a0a" d="M41.846 28.27h-8.6v31.122h8.6zm15.08-14.693h-8.6v45.816h8.6zm15.074 0h-8.602v45.816H72zM18.404 48.641c0 1.387-1.203 2.524-2.562 2.524H8.5V36.352h7.342c1.368 0 2.562 1.125 2.562 2.524zm-9.846-20.36V13.596H0v45.792h17.909c5.038 0 9.12-4.285 9.12-9.575V37.856c0-5.29-4.082-9.576-9.12-9.576zm28.936-4.438a5.619 5.619 0 1 0 0-11.238 5.619 5.619 0 0 0 0 11.238"/></svg>