<svg xmlns="http://www.w3.org/2000/svg" width="72" height="72" fill="none" viewBox="0 0 72 72"><path fill="#fff" d="M34.024 47.789c-6.636 0-9.883-3.812-9.883-8.612s4.518-10.87 11.153-10.87 9.883 3.811 9.883 8.611-4.518 10.87-11.154 10.87m.282-6.071c2.259 0 3.812-2.118 3.812-4.376 0-2.26-1.13-2.824-3.106-2.824-1.977 0-3.812 2.118-3.812 4.376 0 2.26 1.13 2.824 3.106 2.824m17.93 5.647h-6.918l5.647-25.694h6.917l-5.647 25.553z"/><path fill="#fff" fill-rule="evenodd" d="M13.553 47.789c-2.118 0-4.235-.706-5.365-2.4l-.423 1.976L0 51.459l.847-4.094 5.647-25.694h6.918l-1.977 9.035c1.553-1.694 3.106-2.4 5.083-2.4 4.235 0 6.917 2.682 6.917 7.765 0 5.082-3.247 11.718-9.882 11.718m2.682-10.306c0 2.4-1.694 4.235-3.953 4.235s-2.4-.424-3.106-1.27l1.13-4.66c.847-.846 1.694-1.27 2.823-1.27 1.694 0 3.106 1.27 3.106 3.106z" clip-rule="evenodd"/><path fill="#fff" d="M65.082 47.788c-3.953 0-6.917-1.412-6.917-4.659s0-.988.14-1.411L59.86 34.8h-3.106l1.412-5.93h3.106l1.129-5.082 7.765-3.247-.847 3.247-1.13 5.082H72l-1.412 5.93h-3.811l-.989 4.518v.846c0 .848.565 1.553 1.694 1.553s.847 0 .989-.14v5.505c-.706.565-1.977.706-3.248.706z"/></svg>