<svg xmlns="http://www.w3.org/2000/svg" width="72" height="72" fill="none" viewBox="0 0 72 72"><path fill="#22ba50" d="M71.284 21.973a19.13 19.13 0 0 0-7.46-10.16 38.5 38.5 0 0 0-11.867-5.487A93.6 93.6 0 0 0 30.011 3.04h-4.514a5.7 5.7 0 0 0-4.04 1.684 5.77 5.77 0 0 0-1.673 4.066v11.499c0 4.665 0 8.928.277 13.585.253 3.442 1.633 7.516 4.66 9.545a11.09 11.09 0 0 0 9.525 1.643 10.9 10.9 0 0 0 4.608-2.97 11 11 0 0 0 2.591-4.85 11 11 0 0 0-.067-5.507 10.96 10.96 0 0 0-2.724-4.777c-3.265-3.392-7.264-3.392-12.406-3.285v-7.77a3.3 3.3 0 0 1 1.192-2.341 2.8 2.8 0 0 1 1.632-.526A24.2 24.2 0 0 1 39.38 14.86a23.2 23.2 0 0 1 10.039 8.616 21.91 21.91 0 0 1 1.762 18.173 21.8 21.8 0 0 1-4.867 7.961 21.6 21.6 0 0 1-7.734 5.176 21.2 21.2 0 0 1-18.837-1.758C9.133 46.294 9.272 33.07 9.304 21.752l.115-8.633v-.049c0-1.314-1.143-.978-1.633-.74a10.6 10.6 0 0 0-3.779 2.999C1.02 19.13.318 24.149 0 28.839v5.413a60.7 60.7 0 0 0 3.46 18.785 26.94 26.94 0 0 0 7.558 11.096 21.64 21.64 0 0 0 12.161 4.83h4.293a39 39 0 0 0 8.105-1.643 57.6 57.6 0 0 0 20.126-11.417 52.5 52.5 0 0 0 14.283-18.76 23.2 23.2 0 0 0 1.298-15.17"/></svg>