<svg xmlns="http://www.w3.org/2000/svg" width="72" height="72" fill="none" viewBox="0 0 72 72"><path fill="#0061d5" d="M71.365 51.084c.899 1.258.72 2.876-.36 3.775-1.258.899-3.055.719-3.954-.36l-6.292-8.089-6.112 7.91c-.898 1.258-2.696 1.258-3.954.36-1.259-.9-1.438-2.517-.54-3.776l7.19-9.347-7.19-9.348c-.898-1.258-.539-3.056.54-3.955 1.258-.899 3.056-.539 3.954.54l6.112 8.089 6.292-7.73c.899-1.258 2.517-1.438 3.955-.54 1.258.9 1.258 2.697.36 3.956l-7.011 9.167zM38.65 50.005c-4.674 0-8.45-3.595-8.45-8.269 0-4.494 3.776-8.269 8.45-8.269s8.448 3.775 8.448 8.27c-.18 4.673-3.954 8.268-8.448 8.268m-24.807 0c-4.674 0-8.45-3.595-8.45-8.269 0-4.494 3.776-8.269 8.45-8.269s8.448 3.775 8.448 8.27c0 4.673-3.775 8.268-8.448 8.268m24.807-21.93c-5.213 0-9.887 2.876-12.224 7.19-2.337-4.314-7.01-7.19-12.404-7.19-3.235 0-6.112 1.078-8.448 2.696V19.266c0-1.438-1.259-2.696-2.697-2.696C1.258 16.57 0 17.828 0 19.266v22.65c.18 7.55 6.292 13.482 13.842 13.482 5.392 0 10.066-3.056 12.403-7.37 2.337 4.314 7.01 7.37 12.224 7.37 7.73 0 14.021-6.112 14.021-13.841.18-7.37-6.112-13.483-13.841-13.483"/></svg>