<svg xmlns="http://www.w3.org/2000/svg" width="72" height="72" fill="none" viewBox="0 0 72 72"><g fill-rule="evenodd" clip-path="url(#a)" clip-rule="evenodd"><path fill="#ecb360" d="M72 36c0 19.883-16.117 36-36 36S0 55.884 0 36 16.118 0 36 0s36 16.118 36 36"/><path fill="#d76835" d="M62.4 32.4c0 17.894-13.97 32.4-31.2 32.4C13.969 64.8 0 50.295 0 32.4S13.969 0 31.2 0c17.23 0 31.2 14.507 31.2 32.4"/><path fill="#d33a41" d="M64.8 28.8c0 15.906-12.357 28.8-27.601 28.8-15.242 0-27.6-12.894-27.6-28.8C9.6 12.895 21.958 0 37.2 0c15.244 0 27.6 12.895 27.6 28.8"/><path fill="#b6cb46" d="M62.401 31.2c0 14.58-11.283 26.4-25.2 26.4S12 45.78 12 31.2 23.282 4.8 37.2 4.8s25.2 11.82 25.2 26.4"/><path fill="#66ad4a" d="M60.001 33.6c0 13.255-10.745 24-24 24s-24-10.745-24-24 10.745-24 24-24 24 10.745 24 24"/><path fill="#aed7dc" d="M50.401 28.8c0 10.604-8.596 19.2-19.2 19.2-10.605 0-19.2-8.596-19.2-19.2s8.596-19.2 19.2-19.2 19.2 8.596 19.2 19.2"/><path fill="#5bb1cf" d="M52.8 26.4c0 9.278-7.522 16.8-16.801 16.8-9.28 0-16.8-7.522-16.8-16.8S26.72 9.6 36 9.6s16.8 7.521 16.8 16.8"/><path fill="#25a8c3" d="M52.8 27.6c0 8.616-6.447 15.6-14.4 15.6S24 36.217 24 27.6 30.447 12 38.4 12s14.4 6.985 14.4 15.6"/><path fill="#1b1a18" d="M36 43.2c-6.627 0-12-5.91-12-13.2s5.373-13.2 12-13.2S48 22.71 48 30s-5.373 13.2-12 13.2"/><path fill="#fffffe" d="M42.549 26.195c-1.142 1.91-3.386 3.014-5.014 2.465s-2.022-2.542-.882-4.452c1.142-1.91 3.386-3.015 5.014-2.466s2.023 2.542.882 4.453"/></g><defs><clipPath id="a"><path fill="#fff" d="M0 0h72v72H0z"/></clipPath></defs></svg>