<svg width="72" height="72" viewBox="0 0 72 72" fill="none" xmlns="http://www.w3.org/2000/svg">
<g clip-path="url(#clip0_15936_6825)">
<path fill-rule="evenodd" clip-rule="evenodd" d="M72 36.0005C72 55.8833 55.8828 72.0005 36 72.0005C16.1178 72.0005 0 55.8833 0 36.0005C0 16.1183 16.1178 0.000488281 36 0.000488281C55.8828 0.000488281 72 16.1183 72 36.0005Z" fill="#ECB360"/>
<path fill-rule="evenodd" clip-rule="evenodd" d="M62.4 32.4005C62.4 50.2944 48.4305 64.8005 31.2 64.8005C13.9688 64.8005 0 50.2944 0 32.4005C0 14.5066 13.9688 0.000488281 31.2 0.000488281C48.4305 0.000488281 62.4 14.5066 62.4 32.4005Z" fill="#D76835"/>
<path fill-rule="evenodd" clip-rule="evenodd" d="M64.7996 28.8001C64.7996 44.7062 52.4426 57.6005 37.1986 57.6005C21.9566 57.6005 9.59961 44.7062 9.59961 28.8001C9.59961 12.8948 21.9566 0.000488281 37.1986 0.000488281C52.4426 0.000488281 64.7996 12.8948 64.7996 28.8001Z" fill="#D33A41"/>
<path fill-rule="evenodd" clip-rule="evenodd" d="M62.401 31.2006C62.401 45.7802 51.1182 57.6003 37.2006 57.6003C23.2831 57.6003 12.001 45.7802 12.001 31.2006C12.001 16.6197 23.2831 4.80029 37.2006 4.80029C51.1182 4.80029 62.401 16.6197 62.401 31.2006Z" fill="#B6CB46"/>
<path fill-rule="evenodd" clip-rule="evenodd" d="M60.001 33.5998C60.001 46.8546 49.2555 57.6001 36.0006 57.6001C22.7464 57.6001 12.001 46.8546 12.001 33.5998C12.001 20.3449 22.7464 9.6001 36.0006 9.6001C49.2555 9.6001 60.001 20.3449 60.001 33.5998Z" fill="#66AD4A"/>
<path fill-rule="evenodd" clip-rule="evenodd" d="M50.401 28.8001C50.401 39.4039 41.8048 48.0001 31.201 48.0001C20.5965 48.0001 12.001 39.4039 12.001 28.8001C12.001 18.1962 20.5965 9.6001 31.201 9.6001C41.8048 9.6001 50.401 18.1962 50.401 28.8001Z" fill="#AED7DC"/>
<path fill-rule="evenodd" clip-rule="evenodd" d="M52.7992 26.4001C52.7992 35.6782 45.2778 43.2001 35.9989 43.2001C26.7199 43.2001 19.1992 35.6782 19.1992 26.4001C19.1992 17.1213 26.7199 9.6001 35.9989 9.6001C45.2778 9.6001 52.7992 17.1213 52.7992 26.4001Z" fill="#5BB1CF"/>
<path fill-rule="evenodd" clip-rule="evenodd" d="M52.8 27.6001C52.8 36.2158 46.3531 43.2005 38.4 43.2005C30.4469 43.2005 24 36.2158 24 27.6001C24 18.9852 30.4469 12.0005 38.4 12.0005C46.3531 12.0005 52.8 18.9852 52.8 27.6001Z" fill="#25A8C3"/>
<path fill-rule="evenodd" clip-rule="evenodd" d="M35.9997 43.2003C29.3728 43.2003 24 37.2902 24 29.9999C24 22.7097 29.3728 16.8003 35.9997 16.8003C42.6272 16.8003 48 22.7097 48 29.9999C48 37.2902 42.6272 43.2003 35.9997 43.2003Z" fill="#1B1A18"/>
<path fill-rule="evenodd" clip-rule="evenodd" d="M42.5487 26.1948C41.4071 28.1047 39.1625 29.2092 37.5345 28.6602C35.9065 28.1119 35.5125 26.1182 36.6532 24.2077C37.7949 22.2973 40.0394 21.1934 41.6674 21.7417C43.2954 22.29 43.6895 24.2837 42.5487 26.1948Z" fill="#FFFFFE"/>
</g>
<defs>
<clipPath id="clip0_15936_6825">
<rect width="72" height="72" fill="white" transform="translate(0 0.000488281)"/>
</clipPath>
</defs>
</svg>
