<svg xmlns="http://www.w3.org/2000/svg" width="72" height="72" fill="none" viewBox="0 0 72 72"><g clip-path="url(#a)"><path fill="#006bff" d="M62.522 39.256a17.5 17.5 0 0 1 7.205 3.097c2.054 1.52 1.656 3.238 1.345 4.254a36 36 0 1 1 0-21.213c.311 1.016.709 2.733-1.345 4.254a17.5 17.5 0 0 1-7.205 3.095v-.059a19 19 0 0 0-1.046-3.653 13.7 13.7 0 0 0 5.957-2.451l-.005-.011a.1.1 0 0 1-.012-.046 32.118 32.118 0 1 0 .006 18.939q.009-.022.01-.04a13.7 13.7 0 0 0-5.956-2.454c.471-1.178.822-2.4 1.046-3.65z"/><path fill="#006bff" d="M49.095 46.689c-2.286 2.029-5.14 4.553-10.317 4.553h-3.095c-3.746 0-7.153-1.362-9.592-3.83-2.382-2.411-3.693-5.711-3.693-9.294v-4.235c0-3.583 1.311-6.883 3.693-9.294 2.439-2.468 5.846-3.828 9.592-3.828h3.095c5.183 0 8.031 2.523 10.317 4.551l.035.031c2.36 2.079 4.413 3.889 9.847 3.889q1.251 0 2.487-.2l-.02-.047q-.49-1.219-1.147-2.36l-3.65-6.322A18.75 18.75 0 0 0 40.41 10.93h-7.3a18.75 18.75 0 0 0-16.239 9.374l-3.65 6.323a18.75 18.75 0 0 0 0 18.75l3.65 6.322a18.75 18.75 0 0 0 16.238 9.374h7.301a18.75 18.75 0 0 0 16.238-9.374l3.65-6.312a19 19 0 0 0 1.148-2.36l.019-.045a15.5 15.5 0 0 0-2.487-.21c-5.456 0-7.504 1.815-9.875 3.914l-.007.006z"/><path fill="#006bff" d="M38.778 24.599h-3.096c-5.7 0-9.447 4.072-9.447 9.284v4.235c0 5.212 3.746 9.284 9.447 9.284h3.096c3.727 0 5.65-1.705 7.772-3.585 2.606-2.31 5.51-4.885 12.427-4.885a19 19 0 0 1 3.543.326c.38-2.155.38-4.36 0-6.515a19.3 19.3 0 0 1-3.543.326c-6.92 0-9.823-2.575-12.43-4.885-2.12-1.88-4.042-3.585-7.77-3.585"/><path fill="#0ae8f0" d="M58.977 29.24a15.5 15.5 0 0 0 2.486-.21c.471 1.18.821 2.405 1.046 3.655v.058a19 19 0 0 1-3.543.324c-6.916 0-9.82-2.574-12.427-4.884-2.121-1.88-4.045-3.584-7.772-3.584h-3.095c-5.701 0-9.447 4.072-9.447 9.284v4.243c0 5.212 3.746 9.287 9.447 9.287h3.095c3.727 0 5.65-1.706 7.77-3.586 2.606-2.311 5.51-4.887 12.43-4.887a19.3 19.3 0 0 1 3.542.324v.063a18.6 18.6 0 0 1-1.046 3.65 16 16 0 0 0-2.486-.2c-5.436 0-7.49 1.812-9.847 3.891l-.033.03c-2.288 2.028-5.137 4.55-10.32 4.55h-3.095c-3.748 0-7.152-1.36-9.591-3.827-2.382-2.412-3.693-5.712-3.693-9.294V33.89c0-3.582 1.31-6.883 3.693-9.294 2.439-2.468 5.843-3.83 9.591-3.83h3.096c5.182 0 8.03 2.525 10.319 4.554l.004.003c2.37 2.1 4.418 3.916 9.876 3.916"/></g><defs><clipPath id="a"><path fill="#fff" d="M0 0h72v72H0z"/></clipPath></defs></svg>