<svg xmlns="http://www.w3.org/2000/svg" width="72" height="72" fill="none" viewBox="0 0 72 72"><g fill-rule="evenodd" clip-path="url(#a)" clip-rule="evenodd"><path fill="url(#b)" d="M55.969 0H16.03C7.178 0 0 7.178 0 16.032v39.937c0 8.854 7.178 16.032 16.031 16.032H55.97C64.823 72 72 64.823 72 55.969V16.032C72 7.178 64.823 0 55.969 0"/><path fill="#fff" d="M8.306 27.434a19.2 19.2 0 0 0-2.465 4.02 18.6 18.6 0 0 0-1.431 4.68c-1.272 8.98 4.185 10.41 5.115 10.584 4.784.558 8.307-2.049 9.972-3.648.6 2.998 3.593 3.034 4.905 1.68a4.5 4.5 0 0 0 .811-1.211c.778 2.833 3.27 1.868 3.564 1.742 1.39-.52 2.842-2.459 3.87-4.084.653 2.23 1.913 4.617 4.333 4.361 1.459-.035 5.116-3.928 5.454-3.42.337.42.427 1.191.405 2.343-.023 1.151.89 1.21 1.305 1.095.638-.177 1.04-1.438 1.71-2.535.524-.86.915-1.346 1.435-1.918.262-.283 1.45-1.514 2.287-1.095.837.417.923 1.276.981 1.75.064.477.065.982.085 1.535-.024 1.906.87 2.176 1.123 2.246 2.07.56 2.197-3.337 3.715-4.783.143-.148 1.47-1.52 2.227.718 1.094 4.045 4.461 5.557 8.994 3.308.84-.417 1.006-.58 1.465-.922a.45.45 0 0 0 .178-.353v-.005a.44.44 0 0 0-.655-.384l-.003.001c-.464.258-2.007.774-2.495.95-1.83.299-4.07.232-5.173-2.445-.333-.806-.662-1.533-1.23-2.296-.643-.863-2.748-1.89-4.714-.038-.511.469-.888.987-1.215 1.504q-.199.319-.373.637l-.022-.084c-.174-.6-.73-2.815-3.04-3.175-.318-.026-1.604-.172-3.382 1.783-.622.678-1.14 1.4-1.621 2.129l-.002.002c-.085-.396-.188-.757-.29-.915-1.511-2.33-3.8-.47-4.787.224-2.209 1.556-3.233 3.647-4.58-1.103a20 20 0 0 1-.417-2.042c1.342-2.284 4.074-9.233 2.505-13.891-.101-.295-.648-1.798-1.96-1.701-.189.018-1.684-.14-2.501 4.046-.765 4.045-.597 9.26-.41 10.988.02.18.06.533.13.996-1.295 2.217-2.993 4.738-4.028 4.855-1.345.153-.97-1.088-1.791-3.846-.142-.358-.595-2.063-2.636-1.978-.998.041-2.055.302-3.497 1.882-2.343 2.566-7.685 6.426-11.506 4-.415-.322-2.48-2.013-1.72-7.078.226-1.389.652-2.76 1.226-4.04a18 18 0 0 1 2.098-3.54c3.927-4.829 7.326-5.393 7.998-5.364 1.72 0 2.168 2.231 2.166 2.21a.712.712 0 1 0 1.417-.138c-.004-.02.003-.729-.292-1.402-.27-.878-1.045-1.694-1.497-1.995-.556-.388-1.294-.595-2.163-.595-2.497 0-6.08 1.71-9.578 5.755m25.721 7.048c-.018-7.865.98-9.65 1.053-9.513.381.707 1.201 5.135-1.037 9.976zM21.08 42.209c.03-2.081 2.617-3.39 3.312-1.94.056.117.095.251.132.383-.12.382-.169 1-.576 1.837-.429.885-1.103 1.325-1.69 1.325-.65 0-1.193-.538-1.178-1.605"/></g><defs><linearGradient id="b" x1="0" x2="0" y1="0" y2="72.001" gradientUnits="userSpaceOnUse"><stop stop-color="#60b4e7"/><stop offset="1" stop-color="#6461e0"/></linearGradient><clipPath id="a"><path fill="#fff" d="M0 0h72v72H0z"/></clipPath></defs></svg>