<svg xmlns="http://www.w3.org/2000/svg" width="72" height="72" fill="none" viewBox="0 0 72 72"><path fill="#fff" d="M71.5 39.782c-.123 0-.234.08-.292.245-.738 2.106-1.735 3.359-2.556 3.359-.472 0-.662-.526-.662-1.35 0-2.063 1.234-6.437 1.857-8.431.072-.241.119-.457.119-.641 0-.58-.317-.864-1.102-.864-.846 0-1.756.331-2.642 1.883-.306-1.368-1.231-1.966-2.524-1.966-1.494 0-2.937.961-4.125 2.52s-2.585 2.07-3.636 1.818c.756-1.85 1.037-3.233 1.037-4.259 0-1.609-.796-2.58-2.081-2.58-1.955 0-3.082 1.864-3.082 3.826 0 1.516.688 3.074 2.2 3.83-1.267 2.866-3.118 5.458-3.82 5.458-.907 0-1.173-4.439-1.123-7.614.032-1.822.184-1.915.184-2.466 0-.317-.206-.533-1.03-.533-1.922 0-2.516 1.627-2.606 3.496-.03.71-.14 1.414-.332 2.099-.802 2.865-2.458 5.04-3.538 5.04-.5 0-.638-.5-.638-1.156 0-2.063 1.156-4.64 1.156-6.84 0-1.616-.71-2.639-2.045-2.639-1.573 0-3.654 1.872-5.623 5.379.648-2.686.914-5.285-1.004-5.285a2.6 2.6 0 0 0-1.192.31.68.68 0 0 0-.389.655c.184 2.858-2.304 10.18-4.662 10.18-.428 0-.637-.464-.637-1.213 0-2.066 1.231-6.43 1.85-8.427q.121-.388.123-.677c0-.547-.339-.828-1.105-.828-.843 0-1.757.32-2.64 1.872-.309-1.368-1.234-1.966-2.526-1.966-2.12 0-4.49 2.243-5.53 5.166-1.393 3.903-4.201 7.672-7.981 7.672-3.431 0-5.242-2.855-5.242-7.366 0-6.512 4.781-11.833 8.327-11.833 1.696 0 2.506 1.08 2.506 2.736 0 2.005-1.12 2.938-1.12 3.7 0 .235.194.465.58.465 1.54 0 3.355-1.81 3.355-4.28S15.304 24 11.758 24C5.897 24 0 29.897 0 37.453c0 6.012 2.966 9.637 8.096 9.637 3.5 0 6.556-2.721 8.205-5.896.187 2.631 1.382 4.006 3.204 4.006 1.62 0 2.93-.964 3.931-2.66.385 1.775 1.408 2.642 2.736 2.642 1.523 0 2.797-.964 4.01-2.757-.018 1.407.303 2.732 1.523 2.732.576 0 1.264-.133 1.386-.637 1.285-5.314 4.46-9.652 5.433-9.652.288 0 .367.278.367.605 0 1.444-1.019 4.403-1.019 6.293 0 2.041.868 3.391 2.66 3.391 1.988 0 4.007-2.433 5.354-5.99.42 3.323 1.332 6.005 2.757 6.005 1.75 0 4.857-3.683 6.74-7.582.737.094 1.846.068 2.912-.684a10 10 0 0 0-.72 3.661c0 3.618 1.728 4.633 3.215 4.633 1.616 0 2.926-.964 3.93-2.66.332 1.53 1.178 2.639 2.733 2.639 2.434 0 4.547-2.488 4.547-4.529 0-.54-.23-.868-.5-.868m-50.512 3.413c-.983 0-1.368-.99-1.368-2.466 0-2.563 1.753-6.843 3.607-6.843.81 0 1.116.954 1.116 2.12 0 2.603-1.667 7.19-3.355 7.19m33.664-7.65c-.587-.698-.8-1.649-.8-2.495 0-1.044.382-1.926.84-1.926.456 0 .597.45.597 1.077 0 1.047-.375 2.577-.637 3.344m7.62 7.65c-.982 0-1.367-1.137-1.367-2.466 0-2.473 1.753-6.843 3.621-6.843.81 0 1.098.946 1.098 2.12 0 2.603-1.638 7.19-3.351 7.19"/></svg>