<svg xmlns="http://www.w3.org/2000/svg" width="72" height="72" fill="none" viewBox="0 0 72 72"><path fill="#fff" fill-rule="evenodd" d="M48.312 12.3A23.62 23.62 0 0 1 72 35.989c0 8.443-4.222 15.948-11.023 19.935l4.221 11.492h-9.38l-3.05-8.209c-1.407.235-3.049.47-4.456.47a23.62 23.62 0 0 1-23.687-23.688 23.62 23.62 0 0 1 23.687-23.687m0 8.444c-7.505 0-13.602 6.801-13.602 15.244s6.097 15.244 13.602 15.244 13.603-6.8 13.603-15.244-6.098-15.244-13.603-15.244" clip-rule="evenodd"/><path fill="#fff" d="M6.332 20.509H0v-7.505h21.577v7.505h-6.098v30.957h6.098v7.74H0v-7.74h6.332z"/></svg>