<svg xmlns="http://www.w3.org/2000/svg" width="72" height="72" fill="none" viewBox="0 0 72 72"><path fill="#fff" d="M13.907 41.762c.675.28 1.4.423 2.13.42 2.141 0 3.983-.996 5.01-2.861l-1.823-.851a3.31 3.31 0 0 1-2.905 1.787c-1.792 0-3.574-1.307-3.574-3.696 0-2.443 1.866-3.676 3.434-3.676a3.35 3.35 0 0 1 2.823 1.507l1.783-1.042c-.954-1.673-2.736-2.39-4.642-2.39-2.664 0-5.638 2.085-5.638 5.632a5.53 5.53 0 0 0 3.401 5.17"/><path fill="#fff" fill-rule="evenodd" d="M21.91 36.57c0 3.168 2.292 5.613 5.51 5.613 1.485 0 2.884-.66 3.606-1.618v1.32h2.201V31.237h-2.201v1.316c-.686-.965-2.119-1.593-3.605-1.593-3.24 0-5.511 2.38-5.511 5.61m9.156.008c0 2.055-1.398 3.583-3.43 3.583-2.079 0-3.48-1.55-3.48-3.617 0-2.04 1.447-3.55 3.48-3.55s3.43 1.529 3.43 3.584" clip-rule="evenodd"/><path fill="#fff" d="M44.35 33.295v8.583h2.29v-8.583h2.351v-2.127H46.64v-3.146h-2.269v3.146h-1.716v2.127z"/><path fill="#fff" fill-rule="evenodd" d="M49.76 36.57c0 3.168 2.287 5.613 5.508 5.613 1.485 0 2.884-.66 3.606-1.618v1.32h2.203V31.237h-2.203v1.316c-.687-.965-2.119-1.593-3.606-1.593-3.24 0-5.509 2.38-5.509 5.61m9.156.008c0 2.055-1.4 3.583-3.433 3.583-2.077 0-3.476-1.55-3.476-3.617 0-2.04 1.444-3.55 3.475-3.55 2.033 0 3.434 1.529 3.434 3.584" clip-rule="evenodd"/><path fill="#fff" d="M35.495 31.221v10.646h2.29v-4.929c0-2.74 1.447-3.94 3.158-3.741v-2.059a3 3 0 0 0-.784-.086c-1.216 0-2.133.824-2.566 2.019v-1.85z"/><path fill="#fff" fill-rule="evenodd" d="M0 20v31.616h72V20.001zm2.163 29.453v-27.29h67.674v27.29z" clip-rule="evenodd"/></svg>