<svg xmlns="http://www.w3.org/2000/svg" width="72" height="72" fill="none" viewBox="0 0 72 72"><g clip-path="url(#a)"><path fill="#0075ff" d="M70.574 44.923V15.105C70.574 6.763 63.811 0 55.471 0H16.528C8.187 0 1.424 6.763 1.424 15.104v29.82C.698 67.321 16.16 66.322 18.457 66.322l17.514 1.159v.004h.058v-.004l17.514-1.159c2.299 0 17.759 1.001 17.033-21.398z"/><path fill="#fff" d="M46.137 35.049c16.992-11.69 18.286-2.023 11.46 12.648l.002.002c-2.12 3.759 2.525 5.289 6.453 5.814.001.003-2.372 7.284-7.48 11.435l-8.77 2.074-2.829.885c-.023.002-3.966 1.188-4.56 1.355l-8.82-.002c-.594-.167-4.537-1.355-4.56-1.355l-2.828-.886-8.77-2.074c-5.108-4.15-7.482-11.432-7.48-11.434 3.925-.525 8.573-2.056 6.452-5.814C7.58 33.024 8.874 23.36 25.867 35.05c3.182-1.324 6.148-1.592 10.082-1.675l.027.002h.079c3.934.084 6.898.35 10.082 1.673"/><path fill="#002f66" d="M14.84 33.19c-.264.056-.53.134-.758.28-.734.476-.563 1.565-.502 2.306.117 1.418.429 2.84.8 4.225.254.968.583 1.916.983 2.834q.672-1.04 1.495-1.963.628-.71 1.325-1.354c2.433-2.25 4.854-3.368 4.854-3.368-2.336-1.68-5.186-3.609-8.194-2.962zm42.32 0c.264.056.53.134.758.28.734.476.563 1.565.503 2.306-.118 1.418-.429 2.84-.8 4.225a19.4 19.4 0 0 1-.984 2.834 16 16 0 0 0-1.494-1.963 19 19 0 0 0-1.326-1.354c-2.433-2.25-4.853-3.368-4.853-3.368 2.335-1.68 5.185-3.609 8.194-2.962zM40.402 69.245l-.035-.077c-.463-1.044-1.41-1.794-2.468-2.182a5.6 5.6 0 0 0-3.861.022c-1.038.394-1.946 1.136-2.408 2.16l-.034.077-.006.015c.93 1.522 2.554 2.721 4.382 2.742h.054c1.831-.018 3.451-1.216 4.384-2.739l-.006-.016zM33.749 54.05a7 7 0 0 0-1.418-1.176 8.7 8.7 0 0 0-1.794-.854 9.8 9.8 0 0 0-2.063-.465 10 10 0 0 0-2.227-.004 10 10 0 0 0-2.283.52 10.3 10.3 0 0 0-2.235 1.116 11.3 11.3 0 0 0-2.076 1.781 13.7 13.7 0 0 0-1.815 2.512 18 18 0 0 0-1.445 3.311 25.5 25.5 0 0 0-.965 4.155c-.03.21-.062.417-.092.63v-.008c-.02.133-.074.437-.092.629 3.94.458 7.879.996 11.783 1.708-.068-.01.441-2.213.506-2.437a9 9 0 0 1 .643-1.692 4.7 4.7 0 0 1 1.667-1.84c.672-.422 1.417-.708 2.121-1.071.807-.417 1.582-.92 2.231-1.558.639-.624.846-1.322.837-2.209a4.3 4.3 0 0 0-.347-1.618 5.2 5.2 0 0 0-.936-1.431zm23.005 12.147c-.02-.195-.072-.496-.092-.63v.01c-.027-.215-.06-.421-.093-.631a25.5 25.5 0 0 0-.964-4.155 18.3 18.3 0 0 0-1.445-3.312 13.8 13.8 0 0 0-1.815-2.511 11.4 11.4 0 0 0-2.077-1.78 10.2 10.2 0 0 0-2.233-1.117 10 10 0 0 0-2.284-.52c-.74-.08-1.487-.08-2.227.004a9.7 9.7 0 0 0-2.063.465c-.626.216-1.233.5-1.794.854a7 7 0 0 0-1.418 1.176c-.39.422-.706.906-.936 1.432a4.2 4.2 0 0 0-.347 1.619c-.008.885.198 1.582.836 2.209.65.638 1.425 1.14 2.232 1.557.703.364 1.45.647 2.122 1.072.721.452 1.273 1.084 1.666 1.84.277.536.48 1.11.644 1.692.063.223.573 2.426.505 2.437 3.905-.712 7.843-1.252 11.783-1.71z"/><path fill="#fff" d="M28.451 59.212a1.752 1.752 0 1 0 0-3.505 1.752 1.752 0 0 0 0 3.505m15.097 0a1.752 1.752 0 1 0 0-3.505 1.752 1.752 0 0 0 0 3.505"/></g><defs><clipPath id="a"><path fill="#fff" d="M0 0h72v72H0z"/></clipPath></defs></svg>