<svg xmlns="http://www.w3.org/2000/svg" width="72" height="72" fill="none" viewBox="0 0 72 72"><path fill="#009bb5" d="M0 8a8 8 0 0 1 8-8h56a8 8 0 0 1 8 8v56a8 8 0 0 1-8 8H8a8 8 0 0 1-8-8z"/><path fill="#fff" d="M37.148 47.958c-6.319 0-11.16-5.255-11.16-11.987S30.77 24.1 37.147 24.1c4.428 0 8.385 2.304 10.333 6.496l10.747-3.72C54.862 18.373 46.949 13 37.265 13 23.98 13 14 22.803 14 35.853S24.039 59 37.089 59c9.86 0 18.01-5.61 21.257-14.409l-10.924-3.78c-1.653 4.43-5.728 7.146-10.274 7.146"/></svg>