<svg xmlns="http://www.w3.org/2000/svg" width="72" height="72" fill="none" viewBox="0 0 72 72"><g fill="#ff5721" clip-path="url(#a)"><path d="M64.577 19.76c-.397.687-1.271.887-1.982.533a43.9 43.9 0 0 0-13.6-4.186c-.682-.093-1.093-.82-.852-1.465.143-.384.493-.66.903-.675a27.5 27.5 0 0 1 4.379.191c.646.08 1.29-.215 1.596-.79a27 27 0 0 0 3.115-11.212 1.57 1.57 0 0 1 .309-.865q.295-.39.604-.767a1.349 1.349 0 0 1 2.398.608 27.44 27.44 0 0 1-.78 13.31 1.72 1.72 0 0 0 .907 2.071q1.287.605 2.497 1.336a1.41 1.41 0 0 1 .506 1.91M47.512 40.188c-1.003-.295-1.396-1.486-.824-2.361a61 61 0 0 0 5.884-11.425c.203-.522.01-1.12-.487-1.38-1.687-.884-3.082-.976-4.87-1.078l-.272-.014a.896.896 0 0 0-.91.699 64.6 64.6 0 0 1-4.017 11.952 1.51 1.51 0 0 1-2.021.752 53 53 0 0 1-3.453-1.785c-.675-.381-.947-1.207-.668-1.93a70.5 70.5 0 0 0 2.998-9.862l.008-.04.01-.038q0-.011.004-.022l.004-.019q.163-.726.31-1.457c.372-1.837 1.92-3.25 3.794-3.191a43.75 43.75 0 0 1 23.042 7.392c1.427.956 1.95 2.786 1.291 4.372a71 71 0 0 1-4.697 9.311 4.32 4.32 0 0 1-3.98 2.1 51.7 51.7 0 0 1-11.146-1.977m-9.839 1.326c.838.418 1.164 1.462.66 2.252a72 72 0 0 1-5.191 7.132c-.525.635.3 1.544.922 1.003a76 76 0 0 0 7.518-7.504 1.62 1.62 0 0 1 1.771-.46 51.7 51.7 0 0 0 11.953 2.735c1.035.11 1.563 1.328.877 2.112a71.7 71.7 0 0 1-9.989 9.422c-1.494 1.16-3.393 1.678-5.26 1.375a45 45 0 0 1-15.226-5.413c-.833-.481-.994-1.6-.38-2.34q.469-.57.927-1.146a71.4 71.4 0 0 0 6.597-9.915 1.64 1.64 0 0 1 2.244-.627q1.269.722 2.577 1.374m-17.285 16.16a1.635 1.635 0 0 1 2.004-.16 44.8 44.8 0 0 0 12.681 5.728c.794.218.93 1.31.19 1.67a71 71 0 0 1-7.355 3.073A71.4 71.4 0 0 1 6.266 72c-2.076.06-2.596-2.775-.763-3.75a71 71 0 0 0 5.58-3.308 71.7 71.7 0 0 0 9.305-7.27"/></g><defs><clipPath id="a"><path fill="#fff" d="M0 0h72v72H0z"/></clipPath></defs></svg>