<svg xmlns="http://www.w3.org/2000/svg" width="72" height="72" fill="none" viewBox="0 0 72 72"><path fill="#8061a9" fill-rule="evenodd" d="M62.968 39.6H52.231L46.8 49.114l5.43 9.386h10.737l5.431-9.386z" clip-rule="evenodd"/><path fill="#f17323" fill-rule="evenodd" d="M62.968 14.4H52.231L46.8 23.913l5.431 9.385h10.737l5.431-9.385z" clip-rule="evenodd"/><path fill="#f8c517" fill-rule="evenodd" d="M41.368 2.4H30.631L25.2 11.913l5.431 9.385h10.737l5.432-9.385z" clip-rule="evenodd"/><path fill="#cadd72" fill-rule="evenodd" d="M19.768 14.4H9.032L3.6 23.913l5.432 9.385h10.736l5.432-9.385z" clip-rule="evenodd"/><path fill="#e82629" fill-rule="evenodd" d="M41.368 27H30.631L25.2 36.514l5.43 9.386h10.737l5.432-9.386z" clip-rule="evenodd"/><path fill="#98c93e" fill-rule="evenodd" d="M19.768 39.6H9.032L3.6 49.114 9.032 58.5h10.736l5.432-9.386z" clip-rule="evenodd"/><path fill="#628ac6" fill-rule="evenodd" d="M41.368 51.6H30.631L25.2 61.114l5.43 9.386h10.737l5.432-9.386z" clip-rule="evenodd"/><path fill="#363736" fill-rule="evenodd" d="M40.822 44.35h-9.644l-4.879-8.293 4.879-8.406h9.644l4.879 8.406zm1.74-19.75H29.4l-6.6 11.44 6.6 11.36h13.161L49.2 36.04zM29.4 49.2l-6.6 11.44L29.4 72h13.16l6.64-11.36-6.64-11.44zm-3.101 11.457 4.879-8.406h9.644l4.879 8.406-4.88 8.293h-9.643zM29.4 0l-6.6 11.439 6.6 11.36h13.16L49.2 11.44 42.56 0zm-3.101 11.457 4.879-8.407h9.644l4.879 8.407-4.88 8.293h-9.643zM51 37.2l-6.6 11.44L51 60h13.16l6.64-11.36-6.64-11.44zm-3.101 11.457 4.879-8.407h9.644l4.878 8.407-4.878 8.293h-9.644zM51 12l-6.6 11.439 6.6 11.36h13.16l6.64-11.36L64.16 12zm-3.101 11.457 4.879-8.407h9.644l4.878 8.407-4.878 8.293h-9.644zM7.8 37.2 1.2 48.64 7.8 60h13.16l6.64-11.36-6.64-11.44zM4.699 48.657l4.879-8.407h9.644l4.879 8.407-4.88 8.293H9.579zM7.8 12 1.2 23.439l6.6 11.36h13.16L27.6 23.44 20.96 12zM4.699 23.457l4.879-8.407h9.644l4.879 8.407-4.88 8.293H9.579z" clip-rule="evenodd"/></svg>