<svg width="72" height="72" viewBox="0 0 72 72" fill="none" xmlns="http://www.w3.org/2000/svg">
<path fill-rule="evenodd" clip-rule="evenodd" d="M62.968 39.5996H52.2313L46.7997 49.1139L52.2313 58.4995H62.968L68.3994 49.1139L62.968 39.5996Z" fill="#8061A9"/>
<path fill-rule="evenodd" clip-rule="evenodd" d="M62.968 14.3994H52.2313L46.7997 23.9136L52.2313 33.2992H62.968L68.3994 23.9136L62.968 14.3994Z" fill="#F17323"/>
<path fill-rule="evenodd" clip-rule="evenodd" d="M41.368 2.39941H30.6313L25.1997 11.9136L30.6313 21.2992H41.368L46.7997 11.9136L41.368 2.39941Z" fill="#F8C517"/>
<path fill-rule="evenodd" clip-rule="evenodd" d="M19.7684 14.3994H9.03171L3.60007 23.9136L9.03171 33.2992H19.7684L25.1999 23.9136L19.7684 14.3994Z" fill="#CADD72"/>
<path fill-rule="evenodd" clip-rule="evenodd" d="M41.368 27H30.6313L25.1997 36.5143L30.6313 45.8999H41.368L46.7997 36.5143L41.368 27Z" fill="#E82629"/>
<path fill-rule="evenodd" clip-rule="evenodd" d="M19.7684 39.5996H9.03171L3.60007 49.1139L9.03171 58.4995H19.7684L25.1999 49.1139L19.7684 39.5996Z" fill="#98C93E"/>
<path fill-rule="evenodd" clip-rule="evenodd" d="M41.368 51.5996H30.6313L25.1997 61.1139L30.6313 70.4995H41.368L46.7997 61.1139L41.368 51.5996Z" fill="#628AC6"/>
</svg>
