<svg xmlns="http://www.w3.org/2000/svg" width="72" height="72" fill="none" viewBox="0 0 72 72"><path fill="#8061a9" fill-rule="evenodd" d="M62.968 39.6H52.231L46.8 49.114l5.43 9.386h10.737l5.431-9.386z" clip-rule="evenodd"/><path fill="#f17323" fill-rule="evenodd" d="M62.968 14.4H52.231L46.8 23.913l5.431 9.385h10.737l5.431-9.385z" clip-rule="evenodd"/><path fill="#f8c517" fill-rule="evenodd" d="M41.368 2.4H30.631L25.2 11.913l5.431 9.385h10.737l5.432-9.385z" clip-rule="evenodd"/><path fill="#cadd72" fill-rule="evenodd" d="M19.768 14.4H9.032L3.6 23.913l5.432 9.385h10.736l5.432-9.385z" clip-rule="evenodd"/><path fill="#e82629" fill-rule="evenodd" d="M41.368 27H30.631L25.2 36.514l5.43 9.386h10.737l5.432-9.386z" clip-rule="evenodd"/><path fill="#98c93e" fill-rule="evenodd" d="M19.768 39.6H9.032L3.6 49.114 9.032 58.5h10.736l5.432-9.386z" clip-rule="evenodd"/><path fill="#628ac6" fill-rule="evenodd" d="M41.368 51.6H30.631L25.2 61.114l5.43 9.386h10.737l5.432-9.386z" clip-rule="evenodd"/></svg>