<svg xmlns="http://www.w3.org/2000/svg" width="72" height="72" fill="none" viewBox="0 0 72 72"><path fill="#fff" fill-rule="evenodd" d="M36.062 0C19.291 0 5.216 11.514 1.255 27.08a1.5 1.5 0 0 0-.045.35c0 .946.766 1.713 1.711 1.713h14.481c.69 0 1.28-.412 1.552-1 2.976-6.49 9.513-11.001 17.108-11.001 10.392 0 18.82 8.445 18.82 18.858 0 10.415-8.428 18.86-18.82 18.86-7.595 0-14.13-4.512-17.105-11.004l-.003.004a1.71 1.71 0 0 0-1.552-1.002H2.922c-.946 0-1.712.766-1.712 1.715 0 .117.018.229.043.341C5.213 60.481 19.288 72 36.063 72c19.84 0 35.928-16.12 35.928-36 0-19.882-16.087-36-35.929-36m-8.555 36c0-4.732 3.831-8.57 8.555-8.57s8.554 3.838 8.554 8.57-3.83 8.573-8.554 8.573c-4.723 0-8.555-3.84-8.555-8.573" clip-rule="evenodd"/></svg>