<svg xmlns="http://www.w3.org/2000/svg" width="72" height="72" fill="none" viewBox="0 0 72 72"><g clip-path="url(#a)"><path fill="url(#b)" d="M66 0H6a6 6 0 0 0-6 6v60a6 6 0 0 0 6 6h60a6 6 0 0 0 6-6V6a6 6 0 0 0-6-6"/><path fill="#fff" d="M49.755 43.894c2.293 1.322 3.114 4.303 1.303 6.233a20.783 20.783 0 1 1-2.275-30.53c2.076 1.64 1.707 4.71-.365 6.357s-5.074 1.175-7.432-.027a11.2 11.2 0 1 0 1.423 19.096c2.154-1.538 5.054-2.45 7.346-1.129"/></g><defs><linearGradient id="b" x1="0" x2="72" y1="1.26" y2="72.001" gradientUnits="userSpaceOnUse"><stop stop-color="#c784da"/><stop offset="1" stop-color="#6d55ff"/></linearGradient><clipPath id="a"><path fill="#fff" d="M0 0h72v72H0z"/></clipPath></defs></svg>