<svg xmlns="http://www.w3.org/2000/svg" width="72" height="72" fill="none" viewBox="0 0 72 72"><g fill="#fcff74" clip-path="url(#a)"><path d="M7.158 0H.841A.84.84 0 0 0 0 .842v70.317c0 .464.377.841.841.841h6.317A.84.84 0 0 0 8 71.159V.84A.84.84 0 0 0 7.158 0M23.16 0h-6.317A.84.84 0 0 0 16 .842v70.317c0 .464.377.841.841.841h6.317a.84.84 0 0 0 .842-.841V.84a.84.84 0 0 0-.841-.84m9.683 0h6.316c.465 0 .842.377.842.842v70.317a.84.84 0 0 1-.842.841h-6.316a.84.84 0 0 1-.842-.841V.84c0-.464.377-.841.842-.841M55.156 0H48.84a.84.84 0 0 0-.842.842v70.317c0 .464.377.841.842.841h6.316a.84.84 0 0 0 .842-.841V.84a.84.84 0 0 0-.842-.84m9.686 28h6.316c.465 0 .842.377.842.842v14.317a.84.84 0 0 1-.842.842h-6.317a.84.84 0 0 1-.841-.842V28.842c0-.465.377-.841.841-.841"/></g><defs><clipPath id="a"><path fill="#fff" d="M0 0h72v72H0z"/></clipPath></defs></svg>