<svg xmlns="http://www.w3.org/2000/svg" width="72" height="72" fill="none" viewBox="0 0 72 72"><path fill="#fbad41" d="M57.803 33.383c-.242 0-.48.01-.718.017a.3.3 0 0 0-.112.026.4.4 0 0 0-.259.28l-1.02 3.564c-.44 1.533-.277 2.948.463 3.987.678.961 1.806 1.525 3.175 1.59l5.535.337a.496.496 0 0 1 .477.45.54.54 0 0 1-.027.244.7.7 0 0 1-.6.467l-5.751.336c-3.125.145-6.486 2.695-7.666 5.804l-.414 1.097a.306.306 0 0 0 .272.419h19.806a.53.53 0 0 0 .51-.384c.351-1.264.528-2.571.526-3.884 0-7.92-6.351-14.34-14.189-14.34"/><path fill="#f6821f" d="m49.158 51.54.366-1.289c.441-1.533.278-2.948-.46-3.987-.68-.96-1.807-1.525-3.178-1.59l-25.962-.336a.51.51 0 0 1-.41-.219.54.54 0 0 1-.057-.476.7.7 0 0 1 .605-.467l26.205-.336c3.111-.144 6.473-2.694 7.652-5.803l1.495-3.95c.06-.167.075-.348.043-.523-1.702-7.704-8.513-13.474-16.656-13.474-7.506 0-13.874 4.896-16.16 11.7a7.6 7.6 0 0 0-5.387-1.507c-3.599.362-6.495 3.294-6.853 6.932a7.8 7.8 0 0 0 .198 2.712C4.719 39.102 0 43.97 0 49.955q0 .812.116 1.594a.505.505 0 0 0 .502.44h47.947a.625.625 0 0 0 .592-.458"/></svg>