<svg xmlns="http://www.w3.org/2000/svg" width="72" height="72" fill="none" viewBox="0 0 72 72"><g fill="#fff" clip-path="url(#a)"><path d="m61.813 14.08.003.003q.398.345.814.701v-.004q.52-.526 1.025-1.05c.769-.796 1.524-1.577 2.325-2.307.665-.603.536-.98-.07-1.462a52 52 0 0 1-1.39-1.16c-.842-.719-1.684-1.438-2.597-2.05C50.05-1.206 37.545-2.19 24.777 4.13 10.553 11.174 2.987 26.929 5.834 42.546c3.034 16.63 17.345 28.972 34.153 29.44 8.158.225 15.58-2.04 22.216-6.781 1.064-.761 2.062-1.617 3.094-2.503l.002-.002c.476-.408.958-.823 1.459-1.237-1.237-1.21-2.31-2.26-3.384-3.314l-.007-.006c-.806-.792-.812-.797-1.658-.01-4.275 3.991-9.301 6.562-15.035 7.597-5.78 1.043-11.456.521-16.92-1.758C22.47 60.93 17.141 55.807 13.792 48.7c-2.754-5.839-3.466-12.004-2.213-18.337 1.808-9.137 6.88-16.01 14.913-20.632 5.734-3.294 11.974-4.38 18.532-3.563 5.68.708 10.732 2.89 15.155 6.523.546.45 1.08.91 1.633 1.39"/><path d="M58.785 27.115c.303.51.61 1.03.937 1.553l.007-.004 1.424-.582c1.077-.442 2.17-.89 3.264-1.331.49-.198.36-.494.225-.805l-.042-.098c-3.758-9.024-13.436-15.536-23.208-15.431-10.253.109-18.119 4.578-23.008 13.626-4.482 8.294-4.225 16.77.38 24.973 3.327 5.917 8.419 9.776 14.915 11.752 5.473 1.665 10.891 1.439 16.263-.49.607-.218.813-.444.514-1.105-.564-1.245-1.054-2.525-1.529-3.804-.225-.607-.49-.728-1.136-.502-5.586 1.953-11.024 1.614-16.256-1.218-5.348-2.894-8.655-7.379-10-13.26-1.891-8.25 1.84-16.809 9.156-21.302 8.62-5.294 20.138-3.12 26.152 4.991.705.95 1.312 1.974 1.942 3.037"/><path d="M48.145 29.348c-1.409-1.272-2.836-2.167-4.524-2.622-5.92-1.61-11.95 2.898-12.051 9.052-.066 4.104 1.785 7.177 5.43 8.943 3.719 1.8 7.305 1.272 10.514-1.397l.09-.076c.258-.223.476-.411.832-.048a300 300 0 0 0 2.583 2.584l1.105 1.1q-.134.144-.254.28c-.159.18-.305.345-.473.482-4.571 3.781-9.729 4.929-15.334 2.949-5.563-1.965-9.002-5.987-10.036-11.833-1.56-8.823 4.388-16.851 13.218-17.976 4.613-.587 8.655.747 12.194 3.727.592.498.666.817.059 1.392-.834.784-1.622 1.619-2.422 2.466q-.46.49-.931.98z"/><path d="M46.311 36.27a5.03 5.03 0 1 1-10.06 0 5.03 5.03 0 0 1 10.06 0"/></g><defs><clipPath id="a"><path fill="#fff" d="M0 0h72v72H0z"/></clipPath></defs></svg>