<svg xmlns="http://www.w3.org/2000/svg" width="72" height="72" fill="none" viewBox="0 0 72 72"><g fill="#33c69f" clip-path="url(#a)"><path d="M34.237.019Q34.82 0 35.407 0c3.528 0 6.939.49 10.166 1.405L34.71 16.113c-2.784 3.769-7.124 5.952-11.861 5.958s-9.08-2.151-11.879-5.965L8.01 12.11a36.7 36.7 0 0 1 7.65-6.434l3.599 5.003c1.756 2.442 5.438 2.452 7.208.02zm20.038 28.815L72 34.51a35.3 35.3 0 0 0-2.244-11.028l-12.778-4.016c-2.912-.915-4.018-4.385-2.175-6.783a347 347 0 0 0 3.576-4.723 36.7 36.7 0 0 0-8.66-5.108l-2.788 3.774c-2.783 3.77-3.553 8.504-2.094 12.938 1.457 4.433 4.885 7.83 9.438 9.269m-6.321 41 .009-18.77c-.008-4.66 2.183-8.93 6.06-11.681 3.786-2.737 8.59-3.484 13.142-2.045l4.751 1.518a35.3 35.3 0 0 1-2.167 9.68q-1.288-.412-2.576-.827h-.002q-1.73-.557-3.462-1.11c-2.829-.901-5.703 1.182-5.703 4.105v13.628a36.8 36.8 0 0 1-10.052 5.502m-4.174 1.222a37.3 37.3 0 0 1-10.02.91V65.55c0-2.965-2.955-5.062-5.824-4.147-3.2 1.02-6.404 2.028-9.61 3.035l-3.747 1.178a36.6 36.6 0 0 1-8.272-7.755l18.255-5.854c4.508-1.432 9.322-.674 13.155 2.066s6.054 7.008 6.062 11.667zM5.31 15.484a35.6 35.6 0 0 0-4.977 10.13c2.64 3.609 5.284 7.218 7.97 10.794 1.794 2.389.722 5.82-2.139 6.771L0 45.23a35.5 35.5 0 0 0 3.882 9.103l5.182-1.65c4.507-1.433 7.959-4.803 9.42-9.28 1.476-4.387.714-9.112-2.084-12.926z"/></g><defs><clipPath id="a"><path fill="#fff" d="M0 0h72v72H0z"/></clipPath></defs></svg>