<svg xmlns="http://www.w3.org/2000/svg" width="72" height="72" fill="none" viewBox="0 0 72 72"><path fill="#2741e7" fill-rule="evenodd" d="M28.419 46.376H18.05c-.632 0-1.265-.396-1.646-1.054L11.6 36.374c-.251-.658-.251-1.315 0-1.842l4.803-8.949c.381-.657 1.014-1.054 1.646-1.054h5.942c.633 0 1.265-.396 1.646-1.053l4.302-8.03c.381-.658-.126-1.446-.758-1.446H13.247c-1.39 0-2.53.788-3.287 1.972L.474 33.608a4.07 4.07 0 0 0 0 3.815L9.96 54.928a3.75 3.75 0 0 0 3.287 1.973h20.361c.758 0 1.14-.788.758-1.446l-4.426-8.16c-.126-.658-.758-.924-1.516-.924z" clip-rule="evenodd"/><path fill="#000" d="m56.494 21.764-4.045-7.107a.933.933 0 0 0-1.646 0L33.729 46.24c-.251.658-.251 1.315 0 1.842l4.426 8.291c.382.658 1.265.658 1.646 0l16.693-30.795a4.07 4.07 0 0 0 0-3.814"/><path fill="#000" fill-rule="evenodd" d="m35.882 36.243 5.059-9.345c.25-.527.25-1.315 0-1.973l-5.817-10.399a.933.933 0 0 0-1.646 0l-4.934 9.08c-.25.526-.25 1.314 0 1.841l5.692 10.66c.381.788 1.39.788 1.646.13z" clip-rule="evenodd"/><path fill="#000" d="m71.415 21.764-4.045-7.107a.935.935 0 0 0-1.647 0L48.65 46.24c-.251.658-.251 1.315 0 1.842l4.552 8.291a.933.933 0 0 0 1.646 0L71.54 25.578c.633-1.184.633-2.63-.125-3.814"/></svg>