<svg xmlns="http://www.w3.org/2000/svg" width="72" height="72" fill="none" viewBox="0 0 72 72"><path fill="#0b1643" d="M0 10C0 4.479 4.477 0 10 0h52c5.523 0 10 4.478 10 10v52c0 5.523-4.477 10-10 10H10C4.477 72 0 67.524 0 62z"/><path fill="#fff" fill-rule="evenodd" d="M38 20.626c-8.491 0-15.375 6.883-15.375 15.375 0 8.49 6.884 15.375 15.375 15.375 4.399 0 8.358-1.84 11.168-4.809l8.988 8.508A27.7 27.7 0 0 1 38 63.75c-15.326 0-27.75-12.425-27.75-27.75S22.674 8.25 38 8.25c6.864 0 13.16 2.5 18.002 6.63l-8.031 9.415A15.3 15.3 0 0 0 38 20.626" clip-rule="evenodd"/><circle cx="38" cy="36" r="8" fill="#50cc84"/></svg>