<svg xmlns="http://www.w3.org/2000/svg" width="72" height="72" fill="none" viewBox="0 0 72 72"><g clip-path="url(#a)"><path fill="#fff" d="M57.635 45.362c.215.358.29.784.208 1.195a16.5 16.5 0 0 1-5.278 8.9c-.147.11-.27.249-.362.407a.55.55 0 0 0 0 .461.52.52 0 0 0 .434.182q.581-.156 1.114-.435a14.3 14.3 0 0 0 4.074-3.468 75 75 0 0 0 1.991-2.498 17.1 17.1 0 0 0 2.644-5.568c.489-1.62.905-3.26 1.413-4.88q.311-.892.751-1.73.178-.257.407-.47h.127c.127.425.28.833.371 1.267.237 1.367.27 2.761.1 4.138a27 27 0 0 1-1.096 5.278 13.3 13.3 0 0 1-1.52 2.988 41 41 0 0 1-5.587 7.243 38 38 0 0 1-5.06 4.11 1.3 1.3 0 0 0-.353.263.67.67 0 0 0-.154.452.5.5 0 0 0 .389.272 4.7 4.7 0 0 0 1.122-.145 13.6 13.6 0 0 0 4.609-2.354 30.3 30.3 0 0 0 9.09-10.774 27.4 27.4 0 0 0 2.616-8.836c.22-1.94.241-3.896.063-5.84a8.2 8.2 0 0 1 .09-2.996q.087-.34.245-.652c.245-.471.598-.498.833 0 .248.471.43.974.543 1.494.497 2.49.653 5.036.462 7.569a37.2 37.2 0 0 1-3.06 11.914 28.3 28.3 0 0 1-7.451 10.113c-1.041.905-2.037 1.81-3.114 2.662a23.6 23.6 0 0 1-4.138 2.408 38.7 38.7 0 0 1-10.167 3.395 31 31 0 0 1-6.555.434c-1.077 0-2.164-.072-3.24-.126a25.2 25.2 0 0 1-7.135-1.45 51 51 0 0 1-9.533-4.471 28.1 28.1 0 0 1-8.782-8.502 33.6 33.6 0 0 1-2.916-5.124.7.7 0 0 0-.497-.425 4.05 4.05 0 0 1-2.717-2.273 29.3 29.3 0 0 1-1.557-5.07A39.4 39.4 0 0 1 0 35.883a36 36 0 0 1 .498-5.433c.344-2.439.95-4.834 1.81-7.143a21 21 0 0 1 3.17-5.604c.778-.978 1.42-2.073 2.181-3.069A34.2 34.2 0 0 1 27.188 1.959c1.503-.362 3.006-.742 4.527-1.023a44 44 0 0 1 4.11-.543c1.611-.145 3.223-.272 4.843-.29a31.35 31.35 0 0 1 18.225 5.532c.61.369 1.16.83 1.63 1.367.347.422.577.928.67 1.467.035.126.108.24.208.326 1.276 1.23 2.635 2.399 3.812 3.72a17.34 17.34 0 0 1 3.947 7.18 8.6 8.6 0 0 1-.625 6.555 10.4 10.4 0 0 1-3.621 3.621 8.95 8.95 0 0 1-5.65 1.53 7.72 7.72 0 0 1-4.997-2.146 48 48 0 0 0-4.527-4.137 56 56 0 0 0-3.232-2.263 11.8 11.8 0 0 0-4.319-1.558 22 22 0 0 0-5.269-.316 18 18 0 0 0-10.638 3.73 19.7 19.7 0 0 0-5.522 6.473 14.4 14.4 0 0 0-1.422 4.907 27 27 0 0 0-.253 3.178c.085 3.03.876 6 2.308 8.673a20.2 20.2 0 0 0 4.165 5.54 25.6 25.6 0 0 0 5.206 3.622 17.05 17.05 0 0 0 6.926 2.019c3.186.333 6.404-.15 9.352-1.403a15 15 0 0 0 3.857-2.608 21.9 21.9 0 0 0 4.889-6.011c.47-.824.797-1.73 1.195-2.599.117-.262.253-.525.389-.778q.125-.185.29-.335"/></g><defs><clipPath id="a"><path fill="#fff" d="M0 0h72v72H0z"/></clipPath></defs></svg>