<svg width="72" height="72" viewBox="0 0 72 72" fill="none" xmlns="http://www.w3.org/2000/svg">
<path d="M58.9418 45.7831L58.9067 56.5104C58.9007 58.5824 57.8535 60.6524 55.7611 62.4924C54.7981 63.3393 53.6159 64.1391 52.2105 64.867C52.0776 64.9371 51.9423 65.0054 51.8055 65.0719C42.8076 69.5126 28.519 69.4443 19.625 64.867C15.082 62.5295 12.8136 59.4584 12.8233 56.3931L12.8565 45.6836C18.7862 46.9199 50.7118 45.7831 58.9418 45.7831Z" fill="#C9D7DD"/>
<path d="M58.9418 45.7831L58.9067 56.5104C58.9007 58.5824 57.8535 60.6524 55.7611 62.4924C54.7981 63.3393 53.6159 64.1391 52.2105 64.867C52.0776 64.9371 51.9423 65.0054 51.8055 65.0719C42.8076 69.5126 28.519 69.4443 19.625 64.867C15.082 62.5295 12.8136 59.4584 12.8233 56.3931L12.8565 45.6836C18.7862 46.9199 50.7118 45.7831 58.9418 45.7831Z" fill="url(#paint0_linear_6722_31909)" fill-opacity="0.8"/>
<path d="M58.9418 45.7831L58.9067 56.5104C58.9007 58.5824 57.8535 60.6524 55.7611 62.4924C54.7981 63.3393 53.6159 64.1391 52.2105 64.867C52.0776 64.9371 51.9423 65.0054 51.8055 65.0719C42.8076 69.5126 28.519 69.4443 19.625 64.867C15.082 62.5295 12.8136 59.4584 12.8233 56.3931L12.8565 45.6836C18.7862 46.9199 50.7118 45.7831 58.9418 45.7831Z" fill="url(#paint1_linear_6722_31909)"/>
<path d="M52.1395 37.3094C61.1665 41.9571 61.2156 49.4921 52.247 54.1398C43.2786 58.7873 28.6887 58.7873 19.6615 54.1398C10.6342 49.4921 10.5853 41.9571 19.5558 37.3094C28.5242 32.6618 43.1141 32.6618 52.1413 37.3094H52.1395Z" fill="white"/>
<path d="M52.1395 37.3094C61.1665 41.9571 61.2156 49.4921 52.247 54.1398C43.2786 58.7873 28.6887 58.7873 19.6615 54.1398C10.6342 49.4921 10.5853 41.9571 19.5558 37.3094C28.5242 32.6618 43.1141 32.6618 52.1413 37.3094H52.1395Z" fill="url(#paint2_linear_6722_31909)" fill-opacity="0.6"/>
<path d="M55.7353 51.7711V62.3911C54.7723 63.2378 53.59 64.0377 52.1847 64.7655C52.0515 64.8359 51.9165 64.904 51.7794 64.9705L51.748 54.2918C51.8127 54.2607 51.8754 54.2295 51.938 54.1963C52.0084 54.1612 52.079 54.1241 52.1494 54.089C52.9284 53.687 53.6408 53.2656 54.2867 52.8246C54.4024 52.7448 54.5177 52.6647 54.6313 52.5828C54.8563 52.4208 55.0737 52.2548 55.2811 52.0891C55.3771 52.013 55.4711 51.935 55.565 51.857C55.6118 51.8159 55.6589 51.7769 55.7057 51.7358L55.7353 51.7711Z" fill="#9693D3"/>
<path d="M23.6718 55.7946V66.5335C22.1961 66.0613 20.7808 65.4625 19.4988 64.8029C18.0914 64.079 16.923 63.2478 15.9521 62.405V51.7206C15.9639 51.707 15.9736 51.6953 15.9854 51.6816C15.9893 51.6856 15.9951 51.6895 15.999 51.6934L16.0147 51.7049C16.044 51.7324 16.0814 51.7636 16.1243 51.8007C16.1596 51.8298 16.2632 51.9196 16.4063 52.0368C16.6548 52.2396 16.8563 52.3977 17.0444 52.5323C17.1579 52.6142 17.2772 52.704 17.3947 52.784C17.4162 52.7976 17.4376 52.8133 17.4593 52.8269C17.4729 52.8366 17.4808 52.8424 17.4808 52.8424C17.6864 52.9869 17.9114 53.1332 18.1403 53.2737C18.1638 53.2894 18.1874 53.303 18.2109 53.3166C18.618 53.5703 19.0486 53.8181 19.5085 54.056C19.5789 54.0932 19.6535 54.1343 19.7259 54.1693C19.7903 54.2023 19.8413 54.2316 19.9059 54.263C20.0566 54.3371 20.2172 54.419 20.3718 54.4892C20.4305 54.5166 20.4969 54.5439 20.5576 54.5711C20.5655 54.575 20.5715 54.5771 20.5772 54.581C20.589 54.5868 20.5948 54.5889 20.5987 54.5907C20.6183 54.6004 20.64 54.6103 20.6615 54.62C20.7261 54.6493 20.7907 54.6823 20.8532 54.7098C20.9178 54.7391 20.9765 54.7643 21.0411 54.7936C21.1057 54.821 21.1685 54.8503 21.2331 54.8755C21.2428 54.8815 21.2545 54.8854 21.2642 54.8893C21.2781 54.8951 21.2917 54.9009 21.3074 54.9069C21.3309 54.9184 21.3563 54.9283 21.3817 54.9399C21.4209 54.9556 21.4599 54.9731 21.5012 54.9888C22.0805 55.2327 22.7478 55.4882 23.4995 55.7342C23.5583 55.7536 23.6169 55.7732 23.6758 55.7907L23.6718 55.7946Z" fill="white" fill-opacity="0.5"/>
<path d="M25.0538 54.0912C24.8442 54.3506 24.5939 54.6589 24.3843 54.9182C24.1554 55.2012 23.9029 55.5115 23.6738 55.7945C23.6152 55.7749 23.5563 55.7555 23.4977 55.7377C22.7479 55.4919 22.0787 55.2365 21.4992 54.9926C21.4582 54.9769 21.4189 54.9593 21.3799 54.9436C21.3564 54.9321 21.331 54.9222 21.3054 54.9106C21.28 54.9007 21.2565 54.8892 21.2311 54.8792C21.1665 54.8539 21.1039 54.8248 21.0393 54.7973C20.9726 54.7701 20.9161 54.7426 20.8515 54.7136C20.7887 54.6861 20.7241 54.6549 20.6595 54.6238C20.638 54.6139 20.6166 54.6042 20.5969 54.5945C20.593 54.5924 20.5852 54.5887 20.5755 54.5848C20.5695 54.5809 20.5637 54.5788 20.5559 54.5749C20.4952 54.5476 20.4306 54.5204 20.3699 54.4929C20.2152 54.4207 20.0549 54.3409 19.9039 54.2666C19.8396 54.2354 19.7886 54.2061 19.7239 54.1731C19.6536 54.1378 19.579 54.0969 19.5068 54.0598C19.0466 53.8237 18.616 53.5759 18.2089 53.3204C18.1854 53.3068 18.1621 53.2932 18.1385 53.2775C17.9075 53.1369 17.6844 52.9906 17.479 52.8462C17.479 52.8462 17.4691 52.8404 17.4573 52.8307C17.4359 52.8171 17.4144 52.8014 17.3927 52.7878C17.2752 52.7077 17.1559 52.6179 17.0424 52.536C16.8545 52.4015 16.6529 52.2434 16.4043 52.0403C16.2615 51.9233 16.1558 51.8336 16.1226 51.8042C16.0794 51.7673 16.0441 51.7362 16.0129 51.7087L15.9972 51.6969C15.9972 51.6969 15.9873 51.6893 15.9834 51.6854C16.4475 51.1136 16.9113 50.5419 17.3752 49.9722C17.6336 50.2103 18.0035 50.5341 18.4692 50.8913C19.8511 51.9508 21.0707 52.5242 21.9202 52.9205C22.7168 53.2911 23.7698 53.7224 25.0517 54.0969L25.0538 54.0912Z" fill="white" fill-opacity="0.48"/>
<path d="M55.7273 51.8317C55.7273 51.8317 55.7174 51.8414 55.7116 51.8453C55.6549 51.894 55.5981 51.9429 55.5413 51.9898C55.3103 52.1848 55.0657 52.3761 54.8112 52.5653C54.7016 52.6454 54.588 52.7273 54.4726 52.8072C54.3219 52.9126 54.1673 53.0179 54.0088 53.1212C53.9245 53.1759 53.8403 53.2306 53.7542 53.2853C53.631 53.3633 53.5036 53.4413 53.3765 53.5175C53.2472 53.5936 53.1182 53.6716 52.9851 53.7457C52.7855 53.8588 52.5819 53.9721 52.3724 54.0833C52.302 54.1202 52.2314 54.1574 52.161 54.1925C52.0318 54.2589 51.9007 54.3252 51.7696 54.3896L50.4482 52.7077C50.5814 52.6433 50.7125 52.5771 50.8417 52.5106C52.2492 51.7867 53.4176 50.9848 54.3494 50.1323L55.7273 51.8296V51.8317Z" fill="#AF9FE7"/>
<path d="M50.7951 37.0207C59.0746 41.2839 59.1196 48.1947 50.8929 52.458C42.6662 56.7212 29.286 56.7212 21.0065 52.458C12.7269 48.1947 12.6819 41.2839 20.9086 37.0207C29.1351 32.7574 42.5155 32.7574 50.7951 37.0207Z" fill="#7220FF"/>
<path d="M50.7951 37.0207C59.0746 41.2839 59.1196 48.1947 50.8929 52.458C42.6662 56.7212 29.286 56.7212 21.0065 52.458C12.7269 48.1947 12.6819 41.2839 20.9086 37.0207C29.1351 32.7574 42.5155 32.7574 50.7951 37.0207Z" fill="url(#paint3_radial_6722_31909)" fill-opacity="0.64"/>
<path d="M58.9154 30.6629L58.8804 41.3902C58.8744 43.4623 57.8271 45.5323 55.7348 47.3722C54.7718 48.2192 53.5895 49.019 52.1841 49.7469C52.0512 49.817 51.916 49.8853 51.7791 49.9518C42.7812 54.3925 28.4927 54.3242 19.5986 49.7469C15.0557 47.4094 12.7872 44.3383 12.7969 41.273L12.8301 30.5635C18.7598 31.7998 50.6854 30.6629 58.9154 30.6629Z" fill="#C9D7DD"/>
<path d="M58.9154 30.6629L58.8804 41.3902C58.8744 43.4623 57.8271 45.5323 55.7348 47.3722C54.7718 48.2192 53.5895 49.019 52.1841 49.7469C52.0512 49.817 51.916 49.8853 51.7791 49.9518C42.7812 54.3925 28.4927 54.3242 19.5986 49.7469C15.0557 47.4094 12.7872 44.3383 12.7969 41.273L12.8301 30.5635C18.7598 31.7998 50.6854 30.6629 58.9154 30.6629Z" fill="url(#paint4_linear_6722_31909)" fill-opacity="0.8"/>
<path d="M58.9154 30.6629L58.8804 41.3902C58.8744 43.4623 57.8271 45.5323 55.7348 47.3722C54.7718 48.2192 53.5895 49.019 52.1841 49.7469C52.0512 49.817 51.916 49.8853 51.7791 49.9518C42.7812 54.3925 28.4927 54.3242 19.5986 49.7469C15.0557 47.4094 12.7872 44.3383 12.7969 41.273L12.8301 30.5635C18.7598 31.7998 50.6854 30.6629 58.9154 30.6629Z" fill="url(#paint5_linear_6722_31909)" fill-opacity="0.8"/>
<path d="M52.1121 22.2054C61.1394 26.853 61.1883 34.3882 52.2197 39.0359C43.2513 43.6833 28.6614 43.6833 19.6341 39.0359C10.6069 34.3882 10.558 26.853 19.5284 22.2054C28.4968 17.5578 43.0868 17.5578 52.114 22.2054H52.1121Z" fill="white"/>
<path d="M52.1121 22.2054C61.1394 26.853 61.1883 34.3882 52.2197 39.0359C43.2513 43.6833 28.6614 43.6833 19.6341 39.0359C10.6069 34.3882 10.558 26.853 19.5284 22.2054C28.4968 17.5578 43.0868 17.5578 52.114 22.2054H52.1121Z" fill="url(#paint6_linear_6722_31909)" fill-opacity="0.6"/>
<path d="M50.7677 21.9166C59.0473 26.1799 59.0923 33.0907 50.8656 37.354C42.6389 41.6173 29.2586 41.6173 20.9791 37.354C12.6996 33.0907 12.6546 26.1799 20.8813 21.9166C29.108 17.6534 42.4882 17.6534 50.7677 21.9166Z" fill="#7220FF"/>
<path d="M50.7677 21.9166C59.0473 26.1799 59.0923 33.0907 50.8656 37.354C42.6389 41.6173 29.2586 41.6173 20.9791 37.354C12.6996 33.0907 12.6546 26.1799 20.8813 21.9166C29.108 17.6534 42.4882 17.6534 50.7677 21.9166Z" fill="url(#paint7_radial_6722_31909)" fill-opacity="0.64"/>
<path d="M23.6445 40.6882V51.4273C22.1687 50.9551 20.7537 50.356 19.4715 49.6965C18.0643 48.9726 16.8957 48.1416 15.9248 47.2986V36.6142C15.9366 36.6006 15.9463 36.5888 15.958 36.5752C15.962 36.5791 15.968 36.583 15.9719 36.587L15.9876 36.5987C16.0169 36.626 16.054 36.6571 16.097 36.6943C16.1323 36.7236 16.2361 36.8133 16.379 36.9303C16.6275 37.1332 16.8292 37.2913 17.017 37.426C17.1306 37.508 17.2499 37.5977 17.3673 37.6776C17.3888 37.6912 17.4105 37.7069 17.432 37.7205C17.4456 37.7302 17.4534 37.7362 17.4534 37.7362C17.659 37.8807 17.884 38.027 18.1132 38.1673C18.1365 38.183 18.16 38.1966 18.1836 38.2102C18.5907 38.464 19.0213 38.7117 19.4812 38.9498C19.5518 38.9867 19.6261 39.0278 19.6986 39.0629C19.7632 39.0961 19.814 39.1254 19.8786 39.1566C20.0293 39.2307 20.1899 39.3126 20.3445 39.383C20.4031 39.4102 20.4698 39.4374 20.5305 39.4649C20.5383 39.4688 20.5441 39.4707 20.5499 39.4746C20.5617 39.4806 20.5677 39.4824 20.5716 39.4843C20.5912 39.4942 20.6127 39.5039 20.6341 39.5136C20.6987 39.5429 20.7633 39.5761 20.8259 39.6033C20.8905 39.6327 20.9493 39.658 21.014 39.6873C21.0786 39.7146 21.1411 39.7439 21.2057 39.7693C21.2154 39.775 21.2272 39.779 21.2371 39.7829C21.2507 39.7887 21.2643 39.7947 21.28 39.8004C21.3036 39.8122 21.329 39.8219 21.3546 39.8337C21.3936 39.8491 21.4328 39.8669 21.4739 39.8823C22.0531 40.1263 22.7207 40.382 23.4723 40.6277C23.531 40.6473 23.5898 40.6667 23.6484 40.6843L23.6445 40.6882Z" fill="white" fill-opacity="0.5"/>
<path d="M25.0262 38.9869C24.8169 39.2465 24.5663 39.5549 24.357 39.8142C24.1278 40.0972 23.8754 40.4075 23.6464 40.6905C23.5876 40.6709 23.529 40.6512 23.4701 40.6337C22.7206 40.3879 22.0511 40.1322 21.4717 39.8885C21.4306 39.8729 21.3916 39.8553 21.3524 39.8396C21.3288 39.8279 21.3034 39.8182 21.2781 39.8064C21.2524 39.7967 21.2291 39.7849 21.2035 39.7752C21.1391 39.7499 21.0764 39.7205 21.0117 39.6933C20.9453 39.6661 20.8885 39.6386 20.8239 39.6095C20.7614 39.5821 20.6967 39.5509 20.6321 39.5198C20.6104 39.5099 20.589 39.5002 20.5694 39.4905C20.5654 39.4884 20.5576 39.4845 20.5479 39.4805C20.5421 39.4769 20.5361 39.4748 20.5283 39.4709C20.4676 39.4436 20.403 39.4162 20.3423 39.3889C20.1877 39.3167 20.0273 39.2369 19.8766 39.1625C19.812 39.1314 19.761 39.1021 19.6964 39.0691C19.626 39.0338 19.5517 38.9929 19.4792 38.9558C19.0193 38.7197 18.5887 38.4719 18.1816 38.2164C18.1581 38.2028 18.1345 38.1889 18.111 38.1735C17.88 38.0329 17.6568 37.8866 17.4514 37.7422C17.4514 37.7422 17.4415 37.7364 17.43 37.7267C17.4083 37.7129 17.3868 37.6974 17.3654 37.6838C17.2479 37.6037 17.1284 37.5139 17.0148 37.432C16.827 37.2972 16.6255 37.1394 16.3768 36.9363C16.2339 36.8193 16.1282 36.7295 16.095 36.7002C16.0518 36.6633 16.0167 36.6319 15.9854 36.6047L15.9697 36.5929C15.9697 36.5929 15.96 36.5851 15.9561 36.5814C16.4199 36.0095 16.8837 35.4379 17.3476 34.8682C17.6061 35.1063 17.976 35.4301 18.4419 35.7871C19.8237 36.8465 21.0431 37.4202 21.8926 37.8162C22.6892 38.1871 23.7422 38.6182 25.0244 38.9929L25.0262 38.9869Z" fill="white" fill-opacity="0.48"/>
<path d="M55.7353 36.7707V47.3907C54.7723 48.2374 53.59 49.0372 52.1847 49.765C52.0515 49.8354 51.9165 49.9035 51.7794 49.97L51.748 39.2914C51.8127 39.2602 51.8754 39.229 51.938 39.1958C52.0084 39.1607 52.079 39.1236 52.1494 39.0885C52.9284 38.6865 53.6408 38.2651 54.2867 37.8241C54.4024 37.7443 54.5177 37.6642 54.6313 37.5823C54.8563 37.4203 55.0737 37.2544 55.2811 37.0887C55.3771 37.0125 55.471 36.9345 55.565 36.8565C55.6118 36.8154 55.6589 36.7764 55.7057 36.7354L55.7353 36.7707Z" fill="#9693D3"/>
<path d="M55.6997 36.7279C55.6997 36.7279 55.6901 36.7376 55.6841 36.7416C55.6273 36.7902 55.5705 36.8392 55.5137 36.8858C55.2827 37.081 55.0381 37.2723 54.7838 37.4616C54.6742 37.5414 54.5607 37.6233 54.4451 37.7034C54.2944 37.8089 54.1397 37.9141 53.9812 38.0175C53.897 38.0722 53.813 38.1269 53.7267 38.1816C53.6034 38.2596 53.4763 38.3376 53.3489 38.4137C53.2199 38.4896 53.0907 38.5679 52.9575 38.6419C52.7579 38.755 52.5544 38.8683 52.3448 38.9796C52.2744 39.0165 52.2041 39.0536 52.1334 39.0887C52.0042 39.1552 51.8731 39.2214 51.7421 39.2858L50.4209 37.6039C50.5541 37.5396 50.6851 37.4731 50.8144 37.4069C52.2216 36.6829 53.3902 35.881 54.3218 35.0283L55.6997 36.7259V36.7279Z" fill="#B1A1E7"/>
<path d="M58.8883 15.5775L58.853 26.3048C58.8473 28.3769 57.8 30.447 55.7076 32.287C54.7446 33.1337 53.5624 33.9337 52.157 34.6615C52.0239 34.7316 51.8889 34.7999 51.7518 34.8664C42.7541 39.3071 28.4656 39.2388 19.5713 34.6615C15.0283 32.324 12.7599 29.253 12.7696 26.1877L12.803 15.478C17.5203 15.478 50.654 15.5775 58.8883 15.5775Z" fill="#C9D7DD"/>
<path d="M58.8883 15.5775L58.853 26.3048C58.8473 28.3769 57.8 30.447 55.7076 32.287C54.7446 33.1337 53.5624 33.9337 52.157 34.6615C52.0239 34.7316 51.8889 34.7999 51.7518 34.8664C42.7541 39.3071 28.4656 39.2388 19.5713 34.6615C15.0283 32.324 12.7599 29.253 12.7696 26.1877L12.803 15.478C17.5203 15.478 50.654 15.5775 58.8883 15.5775Z" fill="url(#paint8_linear_6722_31909)" fill-opacity="0.8"/>
<path d="M58.8883 15.5775L58.853 26.3048C58.8473 28.3769 57.8 30.447 55.7076 32.287C54.7446 33.1337 53.5624 33.9337 52.157 34.6615C52.0239 34.7316 51.8889 34.7999 51.7518 34.8664C42.7541 39.3071 28.4656 39.2388 19.5713 34.6615C15.0283 32.324 12.7599 29.253 12.7696 26.1877L12.803 15.478C17.5203 15.478 50.654 15.5775 58.8883 15.5775Z" fill="url(#paint9_linear_6722_31909)" fill-opacity="0.8"/>
<path d="M52.0848 7.09994C61.112 11.7475 61.1609 19.2828 52.1926 23.9304C43.2239 28.5779 28.634 28.5779 19.6068 23.9304C10.5796 19.2828 10.5306 11.7475 19.5011 7.09994C28.4697 2.45236 43.0596 2.45236 52.0869 7.09994H52.0848Z" fill="white"/>
<path d="M52.0848 7.09994C61.112 11.7475 61.1609 19.2828 52.1926 23.9304C43.2239 28.5779 28.634 28.5779 19.6068 23.9304C10.5796 19.2828 10.5306 11.7475 19.5011 7.09994C28.4697 2.45236 43.0596 2.45236 52.0869 7.09994H52.0848Z" fill="url(#paint10_linear_6722_31909)" fill-opacity="0.6"/>
<path d="M50.7394 6.81118C59.0189 11.0744 59.0639 17.9853 50.8372 22.2485C42.6106 26.5117 29.2303 26.5117 20.9508 22.2485C12.6713 17.9853 12.6263 11.0744 20.8529 6.81118C29.0796 2.54797 42.4599 2.54797 50.7394 6.81118Z" fill="#7220FF"/>
<path d="M50.7394 6.81118C59.0189 11.0744 59.0639 17.9853 50.8372 22.2485C42.6106 26.5117 29.2303 26.5117 20.9508 22.2485C12.6713 17.9853 12.6263 11.0744 20.8529 6.81118C29.0796 2.54797 42.4599 2.54797 50.7394 6.81118Z" fill="url(#paint11_radial_6722_31909)" fill-opacity="0.64"/>
<path d="M23.6191 25.5847V36.3235C22.1433 35.8514 20.728 35.2525 19.4461 34.593C18.0386 33.8691 16.8703 33.0379 15.8994 32.1951V21.5107C15.9112 21.497 15.9209 21.4853 15.9326 21.4717C15.9366 21.4756 15.9423 21.4795 15.9463 21.4834L15.962 21.4951C15.9913 21.5224 16.0286 21.5536 16.0716 21.5907C16.1069 21.62 16.2105 21.7097 16.3536 21.8268C16.6021 22.0297 16.8036 22.1878 16.9916 22.3224C17.1049 22.4043 17.2245 22.4941 17.342 22.5741C17.3634 22.5877 17.3849 22.6033 17.4066 22.617C17.4202 22.6267 17.428 22.6326 17.428 22.6326C17.6336 22.777 17.8586 22.9233 18.0876 23.0638C18.1111 23.0794 18.1346 23.0931 18.1582 23.1067C18.5653 23.3604 18.9959 23.6082 19.4558 23.8462C19.5262 23.8833 19.6007 23.9242 19.6732 23.9594C19.7376 23.9925 19.7886 24.0218 19.8532 24.053C20.0039 24.1272 20.1643 24.2091 20.3191 24.2794C20.3777 24.3067 20.4442 24.334 20.5049 24.3613C20.5127 24.3652 20.5187 24.3671 20.5245 24.3711C20.5363 24.3769 20.542 24.3789 20.546 24.3808C20.5656 24.3906 20.5873 24.4003 20.6087 24.4101C20.6733 24.4393 20.738 24.4725 20.8005 24.4998C20.8651 24.5291 20.9237 24.5545 20.9883 24.5837C21.0529 24.611 21.1157 24.6403 21.1803 24.6657C21.19 24.6715 21.2018 24.6754 21.2115 24.6793C21.2253 24.6852 21.239 24.691 21.2546 24.6969C21.2782 24.7086 21.3036 24.7183 21.329 24.73C21.3682 24.7457 21.4072 24.7632 21.4485 24.7788C22.0277 25.0227 22.6951 25.2783 23.4467 25.5242C23.5056 25.5437 23.5642 25.5632 23.623 25.5808L23.6191 25.5847Z" fill="white" fill-opacity="0.5"/>
<path d="M24.9989 23.8835C24.7896 24.143 24.5389 24.4512 24.3296 24.7107C24.1005 24.9937 23.848 25.3039 23.6191 25.5868C23.5602 25.5673 23.5016 25.5478 23.4428 25.5302C22.6932 25.2844 22.0238 25.0288 21.4446 24.7849C21.4032 24.7693 21.3642 24.7517 21.325 24.7361C21.3015 24.7244 21.2761 24.7146 21.2507 24.7029C21.2253 24.6932 21.2018 24.6815 21.1764 24.6717C21.1118 24.6464 21.049 24.6171 20.9844 24.5898C20.9179 24.5625 20.8612 24.5352 20.7966 24.5059C20.734 24.4786 20.6694 24.4473 20.6048 24.4161C20.5833 24.4064 20.5616 24.3966 20.542 24.3869C20.5381 24.3849 20.5305 24.381 20.5206 24.3771C20.5148 24.3732 20.5088 24.3713 20.5009 24.3673C20.4402 24.34 20.3759 24.3127 20.3152 24.2854C20.1606 24.2132 19.9999 24.1332 19.8492 24.0591C19.7846 24.0279 19.7336 23.9986 19.6692 23.9654C19.5986 23.9303 19.5243 23.8893 19.4519 23.8523C18.9919 23.6162 18.5613 23.3684 18.1542 23.1128C18.1307 23.0991 18.1072 23.0855 18.0836 23.0699C17.8529 22.9294 17.6297 22.783 17.4241 22.6386C17.4241 22.6386 17.4144 22.6328 17.4026 22.623C17.3809 22.6094 17.3595 22.5938 17.338 22.5801C17.2206 22.5001 17.1012 22.4104 16.9877 22.3284C16.7996 22.1938 16.5982 22.0358 16.3496 21.8328C16.2066 21.7158 16.1009 21.626 16.0676 21.5967C16.0247 21.5597 15.9894 21.5285 15.958 21.5011L15.9423 21.4894C15.9423 21.4894 15.9326 21.4816 15.9287 21.4777C16.3926 20.9061 16.8564 20.3344 17.3202 19.7646C17.5787 20.0027 17.9486 20.3266 18.4146 20.6836C19.7964 21.7431 21.0158 22.3167 21.8652 22.7128C22.6619 23.0835 23.7149 23.5147 24.997 23.8893L24.9989 23.8835Z" fill="white" fill-opacity="0.48"/>
<path d="M55.7079 21.667V32.2869C54.7449 33.1337 53.5627 33.9337 52.1573 34.6615C52.0242 34.7316 51.8892 34.7999 51.7521 34.8664L51.7207 24.1878C51.7853 24.1566 51.8481 24.1254 51.9106 24.0922C51.9812 24.0571 52.0516 24.02 52.122 23.9849C52.9011 23.583 53.6135 23.1615 54.2594 22.7206C54.375 22.6406 54.4904 22.5606 54.6039 22.4786C54.8289 22.3167 55.0463 22.1508 55.2538 21.985C55.3498 21.9089 55.4437 21.8309 55.5376 21.7528C55.5845 21.7118 55.6316 21.6728 55.6786 21.6318L55.7079 21.667Z" fill="#9693D3"/>
<path d="M55.6724 21.6242C55.6724 21.6242 55.6627 21.634 55.6567 21.6379C55.5999 21.6867 55.5432 21.7355 55.4864 21.7823C55.2556 21.9774 55.0108 22.1686 54.7565 22.3579C54.6469 22.4379 54.5333 22.5198 54.4177 22.5998C54.267 22.7052 54.1124 22.8105 53.9539 22.9139C53.8696 22.9686 53.7856 23.0232 53.6996 23.0778C53.5761 23.1559 53.4489 23.2339 53.3218 23.31C53.1926 23.3861 53.0633 23.4642 52.9302 23.5383C52.7306 23.6514 52.527 23.7646 52.3175 23.8758C52.2471 23.9129 52.1767 23.95 52.1061 23.9851C51.9771 24.0514 51.8458 24.1178 51.7147 24.1822L50.3936 22.5003C50.5267 22.4359 50.6578 22.3696 50.787 22.3032C52.1942 21.5794 53.3629 20.7775 54.2945 19.9248L55.6724 21.6223V21.6242Z" fill="#B1A1E9"/>
<defs>
<linearGradient id="paint0_linear_6722_31909" x1="67.9084" y1="57.6303" x2="5.61081" y2="55.9318" gradientUnits="userSpaceOnUse">
<stop stop-color="#4C7F8E" stop-opacity="0.5"/>
<stop offset="0.12" stop-color="#4C7F8E" stop-opacity="0.45"/>
<stop offset="0.3" stop-color="#4C7F8E" stop-opacity="0.33"/>
<stop offset="0.5" stop-color="#4C7F8E" stop-opacity="0.12"/>
<stop offset="0.6" stop-color="#4C7F8E" stop-opacity="0"/>
<stop offset="1" stop-color="#4C7F8E" stop-opacity="0"/>
</linearGradient>
<linearGradient id="paint1_linear_6722_31909" x1="67.9065" y1="57.6322" x2="5.60897" y2="55.9318" gradientUnits="userSpaceOnUse">
<stop offset="0.57" stop-color="white" stop-opacity="0"/>
<stop offset="0.79" stop-color="white" stop-opacity="0.3"/>
<stop offset="0.87" stop-color="white" stop-opacity="0.42"/>
<stop offset="1" stop-color="white" stop-opacity="0.6"/>
</linearGradient>
<linearGradient id="paint2_linear_6722_31909" x1="12.8577" y1="45.7246" x2="58.9412" y2="45.7246" gradientUnits="userSpaceOnUse">
<stop stop-color="#4C7F8E" stop-opacity="0"/>
<stop offset="0.4" stop-color="#4C7F8E" stop-opacity="0"/>
<stop offset="0.5" stop-color="#4C7F8E" stop-opacity="0.12"/>
<stop offset="0.7" stop-color="#4C7F8E" stop-opacity="0.33"/>
<stop offset="0.88" stop-color="#4C7F8E" stop-opacity="0.45"/>
<stop offset="1" stop-color="#4C7F8E" stop-opacity="0.5"/>
</linearGradient>
<radialGradient id="paint3_radial_6722_31909" cx="0" cy="0" r="1" gradientUnits="userSpaceOnUse" gradientTransform="translate(64.9544 28.4942) scale(66.2693 66.0593)">
<stop offset="0.57" stop-color="white" stop-opacity="0"/>
<stop offset="0.79" stop-color="white" stop-opacity="0.3"/>
<stop offset="0.87" stop-color="white" stop-opacity="0.42"/>
<stop offset="1" stop-color="white" stop-opacity="0.6"/>
</radialGradient>
<linearGradient id="paint4_linear_6722_31909" x1="67.882" y1="42.5102" x2="5.58445" y2="40.8117" gradientUnits="userSpaceOnUse">
<stop stop-color="#4C7F8E" stop-opacity="0.5"/>
<stop offset="0.12" stop-color="#4C7F8E" stop-opacity="0.45"/>
<stop offset="0.3" stop-color="#4C7F8E" stop-opacity="0.33"/>
<stop offset="0.5" stop-color="#4C7F8E" stop-opacity="0.12"/>
<stop offset="0.6" stop-color="#4C7F8E" stop-opacity="0"/>
<stop offset="1" stop-color="#4C7F8E" stop-opacity="0"/>
</linearGradient>
<linearGradient id="paint5_linear_6722_31909" x1="67.8801" y1="42.512" x2="5.5826" y2="40.8117" gradientUnits="userSpaceOnUse">
<stop offset="0.57" stop-color="white" stop-opacity="0"/>
<stop offset="0.79" stop-color="white" stop-opacity="0.3"/>
<stop offset="0.87" stop-color="white" stop-opacity="0.42"/>
<stop offset="1" stop-color="white" stop-opacity="0.6"/>
</linearGradient>
<linearGradient id="paint6_linear_6722_31909" x1="12.8304" y1="30.6206" x2="58.9138" y2="30.6206" gradientUnits="userSpaceOnUse">
<stop stop-color="#4C7F8E" stop-opacity="0"/>
<stop offset="0.4" stop-color="#4C7F8E" stop-opacity="0"/>
<stop offset="0.5" stop-color="#4C7F8E" stop-opacity="0.12"/>
<stop offset="0.7" stop-color="#4C7F8E" stop-opacity="0.33"/>
<stop offset="0.88" stop-color="#4C7F8E" stop-opacity="0.45"/>
<stop offset="1" stop-color="#4C7F8E" stop-opacity="0.5"/>
</linearGradient>
<radialGradient id="paint7_radial_6722_31909" cx="0" cy="0" r="1" gradientUnits="userSpaceOnUse" gradientTransform="translate(64.927 13.3903) scale(66.2693 66.0593)">
<stop offset="0.57" stop-color="white" stop-opacity="0"/>
<stop offset="0.79" stop-color="white" stop-opacity="0.3"/>
<stop offset="0.87" stop-color="white" stop-opacity="0.42"/>
<stop offset="1" stop-color="white" stop-opacity="0.6"/>
</radialGradient>
<linearGradient id="paint8_linear_6722_31909" x1="67.8549" y1="27.4248" x2="5.5571" y2="25.7264" gradientUnits="userSpaceOnUse">
<stop stop-color="#4C7F8E" stop-opacity="0.5"/>
<stop offset="0.12" stop-color="#4C7F8E" stop-opacity="0.45"/>
<stop offset="0.3" stop-color="#4C7F8E" stop-opacity="0.33"/>
<stop offset="0.5" stop-color="#4C7F8E" stop-opacity="0.12"/>
<stop offset="0.6" stop-color="#4C7F8E" stop-opacity="0"/>
<stop offset="1" stop-color="#4C7F8E" stop-opacity="0"/>
</linearGradient>
<linearGradient id="paint9_linear_6722_31909" x1="67.8531" y1="27.4266" x2="5.55522" y2="25.7263" gradientUnits="userSpaceOnUse">
<stop offset="0.57" stop-color="white" stop-opacity="0"/>
<stop offset="0.79" stop-color="white" stop-opacity="0.3"/>
<stop offset="0.87" stop-color="white" stop-opacity="0.42"/>
<stop offset="1" stop-color="white" stop-opacity="0.6"/>
</linearGradient>
<linearGradient id="paint10_linear_6722_31909" x1="12.8033" y1="15.5151" x2="58.8865" y2="15.5151" gradientUnits="userSpaceOnUse">
<stop stop-color="#4C7F8E" stop-opacity="0"/>
<stop offset="0.4" stop-color="#4C7F8E" stop-opacity="0"/>
<stop offset="0.5" stop-color="#4C7F8E" stop-opacity="0.12"/>
<stop offset="0.7" stop-color="#4C7F8E" stop-opacity="0.33"/>
<stop offset="0.88" stop-color="#4C7F8E" stop-opacity="0.45"/>
<stop offset="1" stop-color="#4C7F8E" stop-opacity="0.5"/>
</linearGradient>
<radialGradient id="paint11_radial_6722_31909" cx="0" cy="0" r="1" gradientUnits="userSpaceOnUse" gradientTransform="translate(64.8987 -1.71328) scale(66.2693 66.0593)">
<stop offset="0.57" stop-color="white" stop-opacity="0"/>
<stop offset="0.79" stop-color="white" stop-opacity="0.3"/>
<stop offset="0.87" stop-color="white" stop-opacity="0.42"/>
<stop offset="1" stop-color="white" stop-opacity="0.6"/>
</radialGradient>
</defs>
</svg>
