<svg xmlns="http://www.w3.org/2000/svg" width="72" height="72" fill="none" viewBox="0 0 72 72"><path fill="#c9d7dd" d="m58.942 45.783-.035 10.727c-.006 2.072-1.053 4.142-3.146 5.982-.963.847-2.145 1.647-3.55 2.375q-.2.105-.405.205c-8.998 4.44-23.287 4.372-32.181-.205-4.543-2.338-6.811-5.409-6.802-8.474l.034-10.71c5.93 1.237 37.855.1 46.085.1"/><path fill="url(#a)" fill-opacity=".8" d="m58.942 45.783-.035 10.727c-.006 2.072-1.053 4.142-3.146 5.982-.963.847-2.145 1.647-3.55 2.375q-.2.105-.405.205c-8.998 4.44-23.287 4.372-32.181-.205-4.543-2.338-6.811-5.409-6.802-8.474l.034-10.71c5.93 1.237 37.855.1 46.085.1"/><path fill="url(#b)" d="m58.942 45.783-.035 10.727c-.006 2.072-1.053 4.142-3.146 5.982-.963.847-2.145 1.647-3.55 2.375q-.2.105-.405.205c-8.998 4.44-23.287 4.372-32.181-.205-4.543-2.338-6.811-5.409-6.802-8.474l.034-10.71c5.93 1.237 37.855.1 46.085.1"/><path fill="#fff" d="M52.14 37.31c9.026 4.647 9.076 12.182.107 16.83-8.968 4.647-23.558 4.647-32.585 0s-9.077-12.183-.106-16.83c8.968-4.648 23.558-4.648 32.585 0z"/><path fill="url(#c)" fill-opacity=".6" d="M52.14 37.31c9.026 4.647 9.076 12.182.107 16.83-8.968 4.647-23.558 4.647-32.585 0s-9.077-12.183-.106-16.83c8.968-4.648 23.558-4.648 32.585 0z"/><path fill="#9693d3" d="M55.735 51.771v10.62c-.963.847-2.145 1.647-3.55 2.375q-.2.105-.406.204l-.031-10.678q.097-.046.19-.096l.211-.107a20 20 0 0 0 2.138-1.264q.173-.12.344-.242a16 16 0 0 0 .934-.726l.14-.121z"/><path fill="#fff" fill-opacity=".5" d="M23.672 55.795v10.739a27.6 27.6 0 0 1-4.173-1.731 17.8 17.8 0 0 1-3.547-2.398V51.721l.033-.04q.007.008.014.012l.016.012q.044.04.11.096c.035.029.138.119.281.236.249.203.45.36.638.495.114.082.233.172.35.252l.065.043.022.015c.205.145.43.291.66.432l.07.043q.61.38 1.298.739c.07.037.145.078.217.113.064.033.115.063.18.094.15.074.311.156.466.226.058.028.125.055.186.082l.02.01.02.01.064.029.191.09.188.084.192.082q.016.009.031.013l.043.018.075.033q.058.025.12.049a25 25 0 0 0 1.998.745q.087.03.176.057z"/><path fill="#fff" fill-opacity=".48" d="m25.054 54.091-.67.827-.71.877-.176-.057a26 26 0 0 1-1.999-.745l-.12-.05-.074-.032-.074-.032q-.096-.039-.192-.082c-.066-.027-.123-.054-.187-.083q-.095-.043-.192-.09l-.063-.03-.021-.01-.02-.01-.186-.081c-.155-.072-.315-.152-.466-.226-.064-.032-.115-.06-.18-.094-.07-.035-.145-.076-.217-.113a17 17 0 0 1-1.369-.782c-.23-.141-.454-.287-.659-.432l-.022-.015-.064-.043c-.118-.08-.237-.17-.35-.252a13 13 0 0 1-.639-.496 13 13 0 0 1-.391-.331l-.016-.012-.014-.012 1.392-1.713c.259.238.628.562 1.094.92 1.382 1.059 2.602 1.632 3.451 2.028.797.371 1.85.802 3.132 1.177z"/><path fill="#af9fe7" d="M55.727 51.832s-.01.01-.015.013l-.17.145a15 15 0 0 1-1.533 1.131q-.126.083-.255.164-.185.117-.377.233-.194.115-.392.228-.299.17-.613.337l-.211.11-.391.197-1.322-1.682q.2-.097.394-.197c1.407-.724 2.576-1.526 3.507-2.379l1.378 1.698z"/><path fill="#7220ff" d="M50.795 37.02c8.28 4.264 8.325 11.175.098 15.438s-21.607 4.263-29.886 0-8.325-11.174-.098-15.437c8.226-4.264 21.607-4.264 29.886 0"/><path fill="url(#d)" fill-opacity=".64" d="M50.795 37.02c8.28 4.264 8.325 11.175.098 15.438s-21.607 4.263-29.886 0-8.325-11.174-.098-15.437c8.226-4.264 21.607-4.264 29.886 0"/><path fill="#c9d7dd" d="M58.915 30.663 58.88 41.39c-.006 2.072-1.053 4.142-3.145 5.982-.963.847-2.145 1.647-3.55 2.375q-.2.105-.406.205c-8.998 4.44-23.286 4.372-32.18-.205-4.543-2.338-6.812-5.409-6.802-8.474l.033-10.71c5.93 1.237 37.855.1 46.085.1"/><path fill="url(#e)" fill-opacity=".8" d="M58.915 30.663 58.88 41.39c-.006 2.072-1.053 4.142-3.145 5.982-.963.847-2.145 1.647-3.55 2.375q-.2.105-.406.205c-8.998 4.44-23.286 4.372-32.18-.205-4.543-2.338-6.812-5.409-6.802-8.474l.033-10.71c5.93 1.237 37.855.1 46.085.1"/><path fill="url(#f)" fill-opacity=".8" d="M58.915 30.663 58.88 41.39c-.006 2.072-1.053 4.142-3.145 5.982-.963.847-2.145 1.647-3.55 2.375q-.2.105-.406.205c-8.998 4.44-23.286 4.372-32.18-.205-4.543-2.338-6.812-5.409-6.802-8.474l.033-10.71c5.93 1.237 37.855.1 46.085.1"/><path fill="#fff" d="M52.112 22.205c9.027 4.648 9.076 12.183.108 16.83-8.969 4.648-23.559 4.648-32.586 0s-9.076-12.182-.106-16.83c8.969-4.647 23.559-4.647 32.586 0z"/><path fill="url(#g)" fill-opacity=".6" d="M52.112 22.205c9.027 4.648 9.076 12.183.108 16.83-8.969 4.648-23.559 4.648-32.586 0s-9.076-12.182-.106-16.83c8.969-4.647 23.559-4.647 32.586 0z"/><path fill="#7220ff" d="M50.768 21.917c8.28 4.263 8.324 11.174.098 15.437-8.227 4.263-21.607 4.263-29.887 0s-8.324-11.174-.098-15.437c8.227-4.264 21.607-4.264 29.887 0"/><path fill="url(#h)" fill-opacity=".64" d="M50.768 21.917c8.28 4.263 8.324 11.174.098 15.437-8.227 4.263-21.607 4.263-29.887 0s-8.324-11.174-.098-15.437c8.227-4.264 21.607-4.264 29.887 0"/><path fill="#fff" fill-opacity=".5" d="M23.645 40.688v10.74a27.6 27.6 0 0 1-4.174-1.731 17.8 17.8 0 0 1-3.546-2.398V36.614l.033-.039.014.012.016.012q.044.04.109.095c.035.03.14.12.282.236.248.203.45.361.638.496.114.082.233.172.35.252l.065.043.021.015a13 13 0 0 0 .73.474c.408.254.838.502 1.298.74.07.037.145.078.218.113.064.033.115.062.18.094.15.074.31.156.465.226.06.027.126.054.186.082l.02.01.022.01.062.029c.065.029.13.062.192.09l.188.083q.096.043.192.082l.031.014q.02.01.043.017l.075.034.119.048a26 26 0 0 0 2.174.802z"/><path fill="#fff" fill-opacity=".48" d="m25.026 38.987-.669.827c-.23.283-.482.593-.71.877l-.177-.057a26 26 0 0 1-1.998-.745l-.12-.05-.074-.033q-.037-.016-.075-.03-.096-.04-.191-.083c-.067-.027-.123-.054-.188-.084q-.095-.041-.192-.09l-.063-.029-.021-.01-.02-.01-.186-.081a20 20 0 0 1-.465-.227c-.065-.03-.116-.06-.18-.093-.071-.035-.145-.076-.218-.113a17 17 0 0 1-1.368-.783c-.231-.14-.454-.286-.66-.43l-.021-.016-.065-.043c-.117-.08-.237-.17-.35-.252-.188-.135-.39-.293-.638-.496a13 13 0 0 1-.282-.236l-.11-.095-.015-.012-.014-.012 1.392-1.713c.258.238.628.562 1.094.92 1.382 1.059 2.601 1.632 3.45 2.028.797.371 1.85.802 3.132 1.177z"/><path fill="#9693d3" d="M55.735 36.77v10.62c-.963.847-2.145 1.647-3.55 2.375q-.2.106-.406.205l-.031-10.679q.097-.045.19-.095l.211-.107a20 20 0 0 0 2.138-1.265q.173-.12.344-.242.339-.244.65-.493.143-.114.284-.233l.14-.12z"/><path fill="#b1a1e7" d="m55.7 36.728-.016.014-.17.144a15 15 0 0 1-1.533 1.131l-.254.165q-.186.117-.378.232-.193.116-.391.228-.3.17-.613.338-.105.056-.212.109l-.39.197-1.322-1.682q.2-.096.393-.197c1.408-.724 2.576-1.526 3.508-2.379l1.378 1.698z"/><path fill="#c9d7dd" d="m58.888 15.578-.035 10.727c-.006 2.072-1.053 4.142-3.145 5.982-.963.847-2.146 1.647-3.551 2.374q-.2.105-.405.205c-8.998 4.441-23.286 4.373-32.18-.205-4.544-2.337-6.812-5.408-6.802-8.473l.033-10.71c4.717 0 37.851.1 46.085.1"/><path fill="url(#i)" fill-opacity=".8" d="m58.888 15.578-.035 10.727c-.006 2.072-1.053 4.142-3.145 5.982-.963.847-2.146 1.647-3.551 2.374q-.2.105-.405.205c-8.998 4.441-23.286 4.373-32.18-.205-4.544-2.337-6.812-5.408-6.802-8.473l.033-10.71c4.717 0 37.851.1 46.085.1"/><path fill="url(#j)" fill-opacity=".8" d="m58.888 15.578-.035 10.727c-.006 2.072-1.053 4.142-3.145 5.982-.963.847-2.146 1.647-3.551 2.374q-.2.105-.405.205c-8.998 4.441-23.286 4.373-32.18-.205-4.544-2.337-6.812-5.408-6.802-8.473l.033-10.71c4.717 0 37.851.1 46.085.1"/><path fill="#fff" d="M52.085 7.1c9.027 4.648 9.076 12.183.108 16.83-8.97 4.648-23.559 4.648-32.586 0S10.53 11.748 19.5 7.1c8.969-4.648 23.559-4.648 32.586 0z"/><path fill="url(#k)" fill-opacity=".6" d="M52.085 7.1c9.027 4.648 9.076 12.183.108 16.83-8.97 4.648-23.559 4.648-32.586 0S10.53 11.748 19.5 7.1c8.969-4.648 23.559-4.648 32.586 0z"/><path fill="#7220ff" d="M50.74 6.811c8.279 4.263 8.324 11.174.097 15.438-8.226 4.263-21.607 4.263-29.886 0-8.28-4.264-8.325-11.175-.098-15.438s21.607-4.263 29.886 0"/><path fill="url(#l)" fill-opacity=".64" d="M50.74 6.811c8.279 4.263 8.324 11.174.097 15.438-8.226 4.263-21.607 4.263-29.886 0-8.28-4.264-8.325-11.175-.098-15.438s21.607-4.263 29.886 0"/><path fill="#fff" fill-opacity=".5" d="M23.62 25.585v10.739a27.5 27.5 0 0 1-4.174-1.731 17.8 17.8 0 0 1-3.547-2.398V21.511l.034-.04.013.012.016.012.11.096c.035.029.139.119.282.236.248.203.45.36.638.495.113.082.232.172.35.252l.065.043.021.016a13 13 0 0 0 .73.474q.61.38 1.298.74c.07.036.145.077.217.112.065.034.116.063.18.094.15.074.311.156.466.226.059.028.125.055.186.082l.02.01.021.01.063.03c.064.028.129.061.191.089l.188.084.192.082q.016.009.032.013l.043.018q.035.017.074.033l.12.049a25 25 0 0 0 1.998.745q.088.03.176.057z"/><path fill="#fff" fill-opacity=".48" d="m24.999 23.884-.67.827-.71.876q-.088-.03-.176-.057a26 26 0 0 1-1.998-.745l-.12-.049q-.035-.017-.074-.033l-.075-.031-.192-.082c-.066-.027-.123-.055-.187-.084q-.095-.042-.192-.09l-.063-.03-.021-.009-.02-.01c-.06-.027-.125-.054-.186-.082-.154-.072-.315-.152-.466-.226-.064-.031-.115-.06-.18-.094-.07-.035-.145-.076-.217-.113q-.688-.355-1.298-.74-.035-.019-.07-.042a12 12 0 0 1-.66-.431s-.01-.006-.021-.016l-.065-.043c-.117-.08-.237-.17-.35-.252-.188-.134-.39-.292-.638-.495a13 13 0 0 1-.282-.236l-.11-.096-.016-.012s-.01-.007-.013-.011q.695-.859 1.391-1.713c.259.238.629.562 1.095.919 1.381 1.06 2.6 1.633 3.45 2.029.797.37 1.85.802 3.132 1.176z"/><path fill="#9693d3" d="M55.708 21.667v10.62c-.963.847-2.145 1.647-3.55 2.374q-.2.105-.406.205l-.031-10.678q.096-.046.19-.096l.211-.107q1.17-.603 2.137-1.264.174-.12.345-.242a16 16 0 0 0 .934-.726l.14-.121z"/><path fill="#b1a1e9" d="m55.672 21.624-.015.014-.17.144a15 15 0 0 1-1.533 1.132q-.126.083-.254.164-.187.117-.378.232-.194.116-.392.228a25 25 0 0 1-.824.447q-.194.1-.391.197L50.394 22.5q.2-.096.393-.197c1.407-.724 2.576-1.526 3.508-2.378l1.377 1.697z"/><defs><linearGradient id="a" x1="67.908" x2="5.611" y1="57.63" y2="55.932" gradientUnits="userSpaceOnUse"><stop stop-color="#4c7f8e" stop-opacity=".5"/><stop offset=".12" stop-color="#4c7f8e" stop-opacity=".45"/><stop offset=".3" stop-color="#4c7f8e" stop-opacity=".33"/><stop offset=".5" stop-color="#4c7f8e" stop-opacity=".12"/><stop offset=".6" stop-color="#4c7f8e" stop-opacity="0"/><stop offset="1" stop-color="#4c7f8e" stop-opacity="0"/></linearGradient><linearGradient id="b" x1="67.906" x2="5.609" y1="57.632" y2="55.932" gradientUnits="userSpaceOnUse"><stop offset=".57" stop-color="#fff" stop-opacity="0"/><stop offset=".79" stop-color="#fff" stop-opacity=".3"/><stop offset=".87" stop-color="#fff" stop-opacity=".42"/><stop offset="1" stop-color="#fff" stop-opacity=".6"/></linearGradient><linearGradient id="c" x1="12.858" x2="58.941" y1="45.725" y2="45.725" gradientUnits="userSpaceOnUse"><stop stop-color="#4c7f8e" stop-opacity="0"/><stop offset=".4" stop-color="#4c7f8e" stop-opacity="0"/><stop offset=".5" stop-color="#4c7f8e" stop-opacity=".12"/><stop offset=".7" stop-color="#4c7f8e" stop-opacity=".33"/><stop offset=".88" stop-color="#4c7f8e" stop-opacity=".45"/><stop offset="1" stop-color="#4c7f8e" stop-opacity=".5"/></linearGradient><linearGradient id="e" x1="67.882" x2="5.584" y1="42.51" y2="40.812" gradientUnits="userSpaceOnUse"><stop stop-color="#4c7f8e" stop-opacity=".5"/><stop offset=".12" stop-color="#4c7f8e" stop-opacity=".45"/><stop offset=".3" stop-color="#4c7f8e" stop-opacity=".33"/><stop offset=".5" stop-color="#4c7f8e" stop-opacity=".12"/><stop offset=".6" stop-color="#4c7f8e" stop-opacity="0"/><stop offset="1" stop-color="#4c7f8e" stop-opacity="0"/></linearGradient><linearGradient id="f" x1="67.88" x2="5.583" y1="42.512" y2="40.812" gradientUnits="userSpaceOnUse"><stop offset=".57" stop-color="#fff" stop-opacity="0"/><stop offset=".79" stop-color="#fff" stop-opacity=".3"/><stop offset=".87" stop-color="#fff" stop-opacity=".42"/><stop offset="1" stop-color="#fff" stop-opacity=".6"/></linearGradient><linearGradient id="g" x1="12.83" x2="58.914" y1="30.621" y2="30.621" gradientUnits="userSpaceOnUse"><stop stop-color="#4c7f8e" stop-opacity="0"/><stop offset=".4" stop-color="#4c7f8e" stop-opacity="0"/><stop offset=".5" stop-color="#4c7f8e" stop-opacity=".12"/><stop offset=".7" stop-color="#4c7f8e" stop-opacity=".33"/><stop offset=".88" stop-color="#4c7f8e" stop-opacity=".45"/><stop offset="1" stop-color="#4c7f8e" stop-opacity=".5"/></linearGradient><linearGradient id="i" x1="67.855" x2="5.557" y1="27.425" y2="25.726" gradientUnits="userSpaceOnUse"><stop stop-color="#4c7f8e" stop-opacity=".5"/><stop offset=".12" stop-color="#4c7f8e" stop-opacity=".45"/><stop offset=".3" stop-color="#4c7f8e" stop-opacity=".33"/><stop offset=".5" stop-color="#4c7f8e" stop-opacity=".12"/><stop offset=".6" stop-color="#4c7f8e" stop-opacity="0"/><stop offset="1" stop-color="#4c7f8e" stop-opacity="0"/></linearGradient><linearGradient id="j" x1="67.853" x2="5.555" y1="27.427" y2="25.726" gradientUnits="userSpaceOnUse"><stop offset=".57" stop-color="#fff" stop-opacity="0"/><stop offset=".79" stop-color="#fff" stop-opacity=".3"/><stop offset=".87" stop-color="#fff" stop-opacity=".42"/><stop offset="1" stop-color="#fff" stop-opacity=".6"/></linearGradient><linearGradient id="k" x1="12.803" x2="58.886" y1="15.515" y2="15.515" gradientUnits="userSpaceOnUse"><stop stop-color="#4c7f8e" stop-opacity="0"/><stop offset=".4" stop-color="#4c7f8e" stop-opacity="0"/><stop offset=".5" stop-color="#4c7f8e" stop-opacity=".12"/><stop offset=".7" stop-color="#4c7f8e" stop-opacity=".33"/><stop offset=".88" stop-color="#4c7f8e" stop-opacity=".45"/><stop offset="1" stop-color="#4c7f8e" stop-opacity=".5"/></linearGradient><radialGradient id="d" cx="0" cy="0" r="1" gradientTransform="matrix(66.2693 0 0 66.0593 64.954 28.494)" gradientUnits="userSpaceOnUse"><stop offset=".57" stop-color="#fff" stop-opacity="0"/><stop offset=".79" stop-color="#fff" stop-opacity=".3"/><stop offset=".87" stop-color="#fff" stop-opacity=".42"/><stop offset="1" stop-color="#fff" stop-opacity=".6"/></radialGradient><radialGradient id="h" cx="0" cy="0" r="1" gradientTransform="matrix(66.2693 0 0 66.0593 64.927 13.39)" gradientUnits="userSpaceOnUse"><stop offset=".57" stop-color="#fff" stop-opacity="0"/><stop offset=".79" stop-color="#fff" stop-opacity=".3"/><stop offset=".87" stop-color="#fff" stop-opacity=".42"/><stop offset="1" stop-color="#fff" stop-opacity=".6"/></radialGradient><radialGradient id="l" cx="0" cy="0" r="1" gradientTransform="matrix(66.2693 0 0 66.0593 64.899 -1.713)" gradientUnits="userSpaceOnUse"><stop offset=".57" stop-color="#fff" stop-opacity="0"/><stop offset=".79" stop-color="#fff" stop-opacity=".3"/><stop offset=".87" stop-color="#fff" stop-opacity=".42"/><stop offset="1" stop-color="#fff" stop-opacity=".6"/></radialGradient></defs></svg>