<svg xmlns="http://www.w3.org/2000/svg" width="72" height="72" fill="none" viewBox="0 0 72 72"><g clip-path="url(#a)"><path fill="#632ca6" fill-rule="evenodd" d="m58.705 51.122-5.99-3.95-4.997 8.346-5.812-1.7-5.117 7.811.262 2.459 27.823-5.127-1.616-17.384zm-25.947-7.495 4.464-.614c.722.325 1.225.449 2.09.669 1.35.351 2.91.688 5.223-.477.538-.266 1.66-1.291 2.112-1.876l18.29-3.318 1.866 22.582-31.334 5.647zm33.974-8.137-1.805.344L61.458 0 2.36 6.853l7.28 59.083 6.918-1.004c-.552-.789-1.412-1.743-2.881-2.965-2.038-1.692-1.317-4.567-.115-6.382 1.59-3.068 9.782-6.966 9.318-11.869-.167-1.782-.45-4.103-2.105-5.693-.062.66.05 1.296.05 1.296s-.68-.867-1.019-2.05c-.336-.453-.6-.597-.957-1.203-.255.7-.221 1.513-.221 1.513s-.556-1.313-.646-2.421c-.33.496-.413 1.438-.413 1.438s-.722-2.07-.558-3.185c-.33-.97-1.306-2.896-1.03-7.272 1.804 1.264 5.774.963 7.321-1.317.514-.755.866-2.817-.256-6.879-.72-2.605-2.505-6.483-3.2-7.955l-.083.06c.366 1.185 1.122 3.671 1.412 4.876.878 3.655 1.113 4.927.701 6.612-.35 1.465-1.191 2.423-3.323 3.495-2.131 1.074-4.96-1.54-5.139-1.685-2.07-1.65-3.672-4.342-3.851-5.65-.186-1.43.824-2.29 1.334-3.46-.73.209-1.542.579-1.542.579s.97-1.004 2.167-1.873a13 13 0 0 0 1.308-.97c-.756-.013-1.37.009-1.37.009s1.26-.681 2.567-1.177c-.956-.042-1.87-.007-1.87-.007s2.812-1.258 5.034-2.181c1.527-.626 3.02-.441 3.858.771 1.1 1.588 2.257 2.451 4.707 2.986 1.504-.667 1.962-1.01 3.852-1.525 1.664-1.83 2.97-2.066 2.97-2.066s-.648.594-.821 1.528c.943-.743 1.978-1.364 1.978-1.364s-.4.495-.774 1.28l.087.129c1.1-.66 2.394-1.18 2.394-1.18s-.37.467-.803 1.072c.83-.006 2.513.036 3.166.11 3.857.084 4.657-4.12 6.137-4.647 1.853-.662 2.682-1.062 5.84 2.04 2.71 2.663 4.827 7.43 3.776 8.497-.881.887-2.62-.345-4.547-2.748a10.4 10.4 0 0 1-2.15-4.686c-.304-1.613-1.488-2.549-1.488-2.549s.687 1.529.687 2.88c0 .737.093 3.494 1.275 5.04-.117.227-.172 1.12-.301 1.29-1.376-1.662-4.33-2.851-4.811-3.202 1.63 1.336 5.378 4.405 6.817 7.346 1.362 2.782.56 5.331 1.248 5.991.196.19 2.928 3.593 3.453 5.303.917 2.981.055 6.113-1.145 8.056l-3.35.522c-.49-.136-.821-.204-1.261-.459.242-.429.724-1.498.729-1.718l-.19-.333c-1.042 1.478-2.789 2.912-4.24 3.736-1.9 1.076-4.09.91-5.514.47-4.046-1.248-7.87-3.982-8.793-4.7 0 0-.029.574.145.702 1.02 1.15 3.357 3.231 5.615 4.682l-4.814.53 2.276 17.723c-1.009.144-1.166.215-2.271.372-.974-3.44-2.836-5.686-4.872-6.994-1.795-1.154-4.271-1.413-6.642-.944l-.152.176c1.648-.171 3.594.068 5.593 1.333 1.961 1.24 3.542 4.444 4.124 6.373.745 2.465 1.26 5.102-.745 7.897-1.427 1.987-5.592 3.085-8.957.71.898 1.445 2.113 2.627 3.749 2.85 2.428.33 4.733-.092 6.32-1.72 1.354-1.393 2.072-4.305 1.883-7.371l2.143-.311.774 5.504 35.481-4.273zM45.146 20.543c-.1.226-.255.374-.022 1.11l.015.042.037.095.097.22c.422.861.884 1.674 1.657 2.088q.3-.05.621-.067c.726-.032 1.184.083 1.475.24.026-.145.032-.357.016-.669-.056-1.09.216-2.945-1.88-3.922-.791-.367-1.901-.253-2.271.205a1 1 0 0 1 .175.038c.559.196.18.389.08.62M51.02 30.72c-.275-.152-1.56-.092-2.462.016-1.72.202-3.578.8-3.985 1.117-.74.572-.404 1.57.143 1.979 1.533 1.145 2.876 1.913 4.295 1.726.87-.114 1.639-1.493 2.183-2.745.372-.861.372-1.791-.174-2.093m-15.23-8.826c.485-.46-2.417-1.066-4.669.47-1.66 1.132-1.713 3.56-.123 4.937.159.136.29.233.413.312.464-.219.993-.44 1.601-.637a14.3 14.3 0 0 1 2.587-.598c.336-.376.727-1.038.63-2.236-.133-1.625-1.365-1.367-.44-2.247" clip-rule="evenodd"/></g><defs><clipPath id="a"><path fill="#fff" d="M0 0h72v72H0z"/></clipPath></defs></svg>