<svg xmlns="http://www.w3.org/2000/svg" width="72" height="72" fill="none" viewBox="0 0 72 72"><g clip-path="url(#a)"><path fill="#fff" d="M28.315 18.916c2.488-1.696 5.694-1.03 5.158-.518-1.023.974.338.686.485 2.485.108 1.324-.325 2.053-.697 2.469-.777.101-1.721.29-2.859.66a15 15 0 0 0-1.77.707 4 4 0 0 1-.456-.346c-1.755-1.522-1.696-4.206.139-5.457M43.18 29.4c.452-.35 2.504-1.01 4.404-1.234.997-.117 2.42-.185 2.722-.016.603.333.603 1.362.19 2.313-.6 1.38-1.45 2.907-2.412 3.032-1.569.207-3.052-.642-4.745-1.907-.605-.454-.976-1.556-.159-2.188m2.863-13.447c2.316 1.078 2.013 3.128 2.077 4.333.018.346.012.58-.017.74-.32-.174-.828-.302-1.632-.266-.235.01-.463.037-.685.072-.855-.458-1.366-1.354-1.833-2.306a4 4 0 0 1-.108-.243l-.041-.104-.016-.047c-.256-.813-.084-.976.024-1.227.112-.256.53-.467-.088-.68-.053-.02-.12-.032-.194-.046.41-.508 1.636-.63 2.513-.226M33.414 40.47c-2.496-1.602-5.078-3.9-6.207-5.173-.19-.143-.159-.777-.159-.777 1.019.792 5.246 3.813 9.717 5.192 1.577.487 3.996.671 6.095-.518 1.604-.91 3.535-2.495 4.687-4.128l.211.366c-.008.243-.538 1.426-.808 1.902.488.28.851.356 1.393.504l3.701-.577c1.329-2.145 2.281-5.606 1.266-8.9-.58-1.89-3.6-5.652-3.816-5.86-.759-.729.127-3.546-1.377-6.62-1.59-3.251-5.731-6.641-7.53-8.117.53.388 3.795 1.704 5.317 3.541.142-.19.201-1.176.332-1.426-1.307-1.711-1.408-4.757-1.408-5.571 0-1.493-.76-3.185-.76-3.185s1.308 1.035 1.646 2.817c.4 2.111 1.25 3.774 2.375 5.18 2.13 2.654 4.054 4.015 5.026 3.035 1.163-1.178-1.18-6.446-4.174-9.386C45.448-.662 44.534-.22 42.485.512c-1.636.583-2.52 5.227-6.783 5.135-.722-.084-2.582-.129-3.502-.121.48-.67.89-1.186.89-1.186s-1.43.576-2.648 1.305l-.094-.14c.411-.867.853-1.415.853-1.415s-1.143.687-2.185 1.509c.19-1.033.907-1.688.907-1.688s-1.443.26-3.282 2.283c-2.09.572-2.592.947-4.257 1.684-2.707-.59-3.984-1.543-5.202-3.298-.927-1.34-2.577-1.544-4.262-.85-2.458 1.015-5.566 2.406-5.566 2.406s1.013-.041 2.07.004c-1.447.548-2.835 1.3-2.835 1.3s.677-.023 1.512-.009c-.577.48-.896.708-1.446 1.072-1.322.96-2.394 2.07-2.394 2.07s.898-.409 1.704-.638c-.564 1.291-1.681 2.242-1.475 3.823.197 1.443 1.97 4.417 4.256 6.242.198.159 3.322 3.05 5.68 1.863 2.355-1.186 3.284-2.242 3.671-3.862.456-1.86.196-3.267-.777-7.305-.32-1.332-1.156-4.077-1.56-5.39l.09-.063c.771 1.626 2.743 5.912 3.538 8.791 1.24 4.49.853 6.767.285 7.602-1.711 2.518-6.098 2.85-8.093 1.455-.305 4.834.775 6.962 1.14 8.035-.181 1.232.617 3.52.617 3.52s.09-1.04.456-1.588c.097 1.223.714 2.676.714 2.676s-.037-.898.243-1.673c.395.67.685.828 1.058 1.33a7.3 7.3 0 0 0 1.123 2.262s-.12-.7-.054-1.43c1.829 1.757 2.144 4.32 2.326 6.291.512 5.417-8.542 9.725-10.296 13.114-1.33 2.007-2.127 5.182.125 7.054 5.444 4.521 3.353 5.765 6.078 7.752 3.739 2.726 8.416 1.505 10.008-.711 2.217-3.089 1.648-6.002.824-8.727-.644-2.131-2.393-5.672-4.556-7.041-2.211-1.4-4.36-1.663-6.182-1.475l.168-.194c2.62-.52 5.358-.235 7.34 1.043 2.25 1.446 4.308 3.925 5.384 7.727 1.22-.174 1.393-.252 2.51-.411L28.09 41.062zm1.454 24.546-.29-2.716 5.658-8.63 6.422 1.877 5.523-9.224 6.62 4.367 5.03-10.549 1.788 19.21zm30.818-28.808L45.47 39.872c-.5.646-1.739 1.779-2.334 2.074-2.553 1.286-4.278.914-5.77.526-.958-.242-1.513-.379-2.31-.737l-4.933.677L33.119 67.4l34.628-6.243z"/></g><defs><clipPath id="a"><path fill="#fff" d="M0 0h72v72H0z"/></clipPath></defs></svg>