<svg xmlns="http://www.w3.org/2000/svg" width="72" height="72" fill="none" viewBox="0 0 72 72"><g fill="#f24d4a" clip-path="url(#a)"><path d="M55.882 56.06a28.4 28.4 0 0 0 8.52-19.7H72a36.002 36.002 0 0 1-72 0v-.331A36.01 36.01 0 0 1 41.715.475v7.723a28.43 28.43 0 0 0-34.102 27.83v.332a28.4 28.4 0 0 0 48.269 19.7"/><path d="M27.328 44.936a12.43 12.43 0 0 0 8.666 3.546 12.435 12.435 0 0 0 12.358-11.295h.053V2.646a33.7 33.7 0 0 1 7.065 3.823v29.858a19.485 19.485 0 0 1-18.367 19.176h-.075q-.517.03-1.036.029h-.165a19.5 19.5 0 0 1-19.312-19.205v-.274a19.506 19.506 0 0 1 19.438-19.475H36c1.811.001 3.614.256 5.355.757v7.538A12.3 12.3 0 0 0 36 23.656h-.447q-.108-.004-.203 0l-.178.013-.118.01-.086.005c-.091.007-.186.013-.249.02l-.087.014a1 1 0 0 1-.162.02l-.114.014q-.13.015-.26.034l-.202.034-.13.024a9 9 0 0 0-.276.051l-.158.037q-.223.047-.442.103l-.136.039-.12.033q-.166.046-.33.097l-.14.046-.08.027q-.179.058-.355.121l-.174.07-.103.04q-.144.054-.283.112l-.251.113-.138.062q-.078.034-.154.07-.17.084-.338.173l-.058.03-.122.073a12.43 12.43 0 0 0-6.511 10.922v.274a12.43 12.43 0 0 0 3.733 8.599"/></g><defs><clipPath id="a"><path fill="#fff" d="M0 0h72v72H0z"/></clipPath></defs></svg>