<svg xmlns="http://www.w3.org/2000/svg" width="72" height="72" fill="none" viewBox="0 0 72 72"><g clip-path="url(#a)"><path fill="#000" fill-rule="evenodd" d="M24.926 16.771C11.89 16.771 0 25.048 0 43.673c0 19.682 12.348 26.902 24.93 26.902 11.803 0 16.916-7.492 16.916-7.492v6.177H55.2q-.471-5.453-.47-12.228V2H41.841v22.33s-5.017-7.559-16.916-7.559m18.32 26.902c0 10.067-5.901 17.014-15.028 17.014-8.884 0-14.81-6.27-14.81-17.014s5.687-17.014 14.81-17.014 15.028 6.595 15.028 17.014M72 57.18H59.586v12.038H72z" clip-rule="evenodd"/></g><defs><clipPath id="a"><path fill="#fff" d="M0 0h72v72H0z"/></clipPath></defs></svg>