<svg width="72" height="72" viewBox="0 0 72 72" fill="none" xmlns="http://www.w3.org/2000/svg">
<g clip-path="url(#clip0_7996_40513)">
<g opacity="0.2">
<path opacity="0.2" d="M66.5296 29.653L66.4306 64.5298C66.4306 65.041 66.0688 65.248 65.6224 64.9906L48.0634 54.853L37.0006 48.4504L18.421 37.7404C17.9764 37.483 17.6182 36.862 17.6182 36.3508L17.7172 1.47401C17.7172 0.962812 18.079 0.757611 18.5236 1.01321L65.725 28.2616C66.1696 28.519 66.5296 29.14 66.5278 29.6512L66.5296 29.653Z" fill="#4C7F8E"/>
</g>
<g filter="url(#filter0_ddd_7996_40513)">
<path d="M27.8398 56.1601V52.5601L38.9998 58.9501V62.6401L27.8398 56.1601Z" fill="#C7D5DB"/>
<path d="M27.8398 56.1602L25.5898 57.4202L41.4298 66.6002L38.9998 62.6402L27.8398 56.1602Z" fill="url(#paint0_linear_7996_40513)"/>
<path d="M41.43 66.6L44.76 64.62C44.76 64.62 45.75 65.61 45.39 66.15C45.03 66.69 42.33 68.4 41.7 68.4C41.07 68.4 25.68 59.22 25.68 59.22C25.23 58.95 25.05 58.41 25.05 58.41C25.05 58.41 24.6 57.69 25.32 57.33L28.11 55.71L27.84 56.16L25.59 57.42L41.43 66.6Z" fill="#5E2AD8"/>
<path d="M42.33 60.6602L44.76 64.6202L41.43 66.6002L39 62.6402L42.33 60.6602Z" fill="#EFF1F3"/>
<path d="M42.33 60.6598V58.5898H39V62.6398L42.33 60.6598Z" fill="#83A2AC"/>
<path d="M60.5715 31.7735L60.4725 66.6503C60.4725 66.9041 60.3807 67.0841 60.2367 67.1669L56.9607 69.0713C57.1065 68.9885 57.1947 68.8085 57.1965 68.5547L57.2955 33.6779C57.2973 33.1667 56.9373 32.5439 56.4927 32.2883L9.2931 5.03634C9.0699 4.90674 8.8665 4.89414 8.7207 4.98054L11.9967 3.07614C12.1425 2.98974 12.3459 3.00234 12.5691 3.13194L59.7687 30.3839C60.2133 30.6413 60.5733 31.2623 60.5715 31.7735Z" fill="#EFF1F3"/>
<path d="M29.5971 47.8978C29.6547 47.9302 29.7015 48.0112 29.7015 48.0778V48.9652C29.6979 49.0318 29.6511 49.0588 29.5935 49.0246L28.6161 48.4594C28.5585 48.427 28.5117 48.346 28.5117 48.2794V47.392C28.5153 47.3272 28.5621 47.3002 28.6197 47.3326L29.5971 47.8978Z" fill="white"/>
<path d="M31.5229 49.0101C31.5805 49.0425 31.6273 49.1235 31.6273 49.1901V50.0775C31.6237 50.1441 31.5769 50.1711 31.5211 50.1369L30.5419 49.5717C30.4843 49.5393 30.4375 49.4583 30.4375 49.3917V48.5043C30.4411 48.4395 30.4879 48.4125 30.5437 48.4449L31.5229 49.0101Z" fill="#F4F6F7"/>
<path d="M13.9423 37.8789L13.9333 40.9137L10.5907 38.9841C10.2523 38.7879 9.97868 38.3145 9.98048 37.9257L9.98588 35.5947L13.9423 37.8789Z" fill="#98B3BC"/>
<path d="M27.4711 45.6893L55.8121 62.0531L55.8049 64.3193C55.8049 64.7459 55.5007 64.9187 55.1299 64.7045L10.6537 39.0221C10.2451 38.7863 9.97868 38.3255 9.98048 37.9475C9.98048 38.3129 10.2523 38.7863 10.5907 38.9807L13.9333 40.9103L13.9423 37.8755L13.9387 40.9139L27.4639 48.7223L27.4729 45.6875L27.4711 45.6893ZM29.6995 48.9671V48.0797C29.7031 48.0149 29.6563 47.9339 29.5987 47.8997L28.6213 47.3345C28.5637 47.3021 28.5169 47.3273 28.5169 47.3939V48.2813C28.5133 48.3479 28.5601 48.4289 28.6177 48.4613L29.5951 49.0265C29.6527 49.0589 29.6995 49.0337 29.6995 48.9671ZM31.6237 50.0795V49.1921C31.6273 49.1273 31.5805 49.0463 31.5229 49.0121L30.5437 48.4469C30.4861 48.4145 30.4393 48.4415 30.4393 48.5063V49.3937C30.4357 49.4603 30.4825 49.5413 30.5401 49.5737L31.5193 50.1389C31.5769 50.1713 31.6237 50.1443 31.6237 50.0795Z" fill="#C8D6DC"/>
<path d="M48.0941 58.5569C48.1242 58.5785 48.1492 58.6069 48.1672 58.6401C48.1852 58.6733 48.1956 58.7103 48.1978 58.7483V59.6803C48.1978 59.7469 48.1499 59.7802 48.0941 59.7469L47.1134 59.1478C47.0825 59.1291 47.0567 59.1025 47.0386 59.0704C47.0204 59.0384 47.0105 59.0019 47.0098 58.9647V58.041C47.0098 57.9661 47.0576 57.9411 47.1134 57.9744L48.0941 58.5569Z" fill="white"/>
<path d="M53.8666 61.8588C53.8988 61.8798 53.9255 61.9081 53.9445 61.9414C53.9635 61.9746 53.9742 62.0118 53.9758 62.05V62.9811C53.9758 63.0476 53.9254 63.0725 53.8666 63.0392L52.825 62.449C52.7928 62.428 52.7661 62.3997 52.7471 62.3664C52.7282 62.3332 52.7174 62.296 52.7158 62.2578V61.3268C52.7158 61.2603 52.7662 61.2353 52.825 61.2686L53.8666 61.8588Z" fill="#5E2AD8"/>
<path d="M50.0215 59.6772C50.0533 59.6943 50.0799 59.7205 50.0981 59.7527C50.1163 59.785 50.1254 59.8219 50.1245 59.8593V60.7863C50.1245 60.8608 50.0769 60.8856 50.0215 60.8525L49.0474 60.2649C49.016 60.2443 48.9896 60.2165 48.9704 60.1834C48.9511 60.1504 48.9395 60.1131 48.9365 60.0745V59.1475C48.9365 59.073 48.984 59.0482 49.0395 59.0813L50.0215 59.6772Z" fill="#F4F6F7"/>
<path d="M51.9408 60.7631C51.9746 60.7823 52.0026 60.8102 52.0218 60.8438C52.041 60.8773 52.0507 60.9154 52.05 60.9539V61.8831C52.05 61.9494 51.9996 61.9743 51.9408 61.9411L50.9076 61.3521C50.8739 61.3321 50.8455 61.3042 50.8251 61.271C50.8046 61.2378 50.7926 61.2001 50.79 61.1613V60.2321C50.79 60.1658 50.8404 60.1326 50.8992 60.1741L51.9408 60.7631Z" fill="#E4EAED"/>
<path d="M13.9455 37.8809L27.4707 45.6893L27.4617 48.7241L13.9365 40.9157L13.9455 37.8809ZM16.2297 41.3891L16.2333 40.1057C16.2333 40.0211 16.1739 39.9167 16.1001 39.8753L14.9841 39.2309C14.9103 39.1877 14.8509 39.2219 14.8509 39.3065L14.8473 40.5899C14.8473 40.6745 14.9067 40.7771 14.9805 40.8203L16.0965 41.4647C16.1703 41.5061 16.2297 41.4719 16.2297 41.3891Z" fill="#D3DEE3"/>
<path d="M16.1005 39.875C16.1743 39.9164 16.2337 40.0208 16.2337 40.1054L16.2301 41.3888C16.2301 41.4734 16.1689 41.5076 16.0969 41.4644L14.9809 40.82C14.9071 40.7768 14.8477 40.6742 14.8477 40.5896L14.8513 39.3062C14.8513 39.2216 14.9125 39.1874 14.9845 39.2306L16.1005 39.875Z" fill="white"/>
<path d="M55.8917 34.1492L55.8125 62.051L27.4715 45.689L13.9463 37.8806L9.98633 35.5946L10.0655 7.69103C10.0673 7.26443 10.3715 7.09163 10.7441 7.30583L55.2203 32.9846C55.5911 33.1988 55.8953 33.7226 55.8917 34.1492Z" fill="white"/>
<g opacity="0.8">
<path opacity="0.8" d="M55.8917 34.1492L55.8125 62.051L27.4715 45.689L13.9463 37.8806L9.98633 35.5946L10.0655 7.69103C10.0673 7.26443 10.3715 7.09163 10.7441 7.30583L55.2203 32.9846C55.5911 33.1988 55.8953 33.7226 55.8917 34.1492Z" fill="url(#paint1_linear_7996_40513)"/>
</g>
<path d="M10.7441 7.30626L14.0201 5.40186L58.4963 31.0807L55.2203 32.9851L10.7441 7.30626Z" fill="white"/>
<path d="M37.1914 55.5295C37.351 55.6352 37.4839 55.777 37.5792 55.9437C37.6746 56.1103 37.7299 56.2972 37.7405 56.4892C37.7405 56.8438 37.4919 56.9794 37.1914 56.8021L29.1097 52.1081C28.9495 52.0031 28.8162 51.8614 28.7208 51.6946C28.6253 51.5278 28.5704 51.3407 28.5605 51.1484C28.5605 50.8042 28.8092 50.6582 29.12 50.8355L37.1914 55.5295Z" fill="white"/>
<path d="M56.5843 32.333L9.38474 5.08285C8.94014 4.82545 8.57834 5.03245 8.57654 5.54365L8.47754 40.4204C8.47754 40.9316 8.83574 41.5544 9.28034 41.8118L27.8581 52.5236L38.9209 58.9262L56.4799 69.0639C56.9245 69.3213 57.2863 69.1143 57.2881 68.6031L57.3871 33.7262C57.3871 33.215 57.0289 32.5922 56.5843 32.3366V32.333ZM36.6133 56.2802L30.4393 52.7162C30.2071 52.5812 30.0181 52.2537 30.0181 51.9873C30.0181 51.7209 30.2089 51.611 30.4411 51.746L36.6151 55.3118C36.8473 55.445 37.0363 55.7744 37.0363 56.0408C37.0363 56.3072 36.8455 56.417 36.6133 56.282V56.2802ZM55.8121 62.0546L55.8049 64.3208C55.8049 64.7474 55.5007 64.9202 55.1281 64.7043L10.5727 38.9768C10.2433 38.786 9.97874 38.327 9.97874 37.8573L10.0651 7.69105C10.0651 7.26445 10.3711 7.09165 10.7419 7.30585L55.2181 32.9846C55.5889 33.1988 55.8931 33.7226 55.8913 34.1492L55.8121 62.051" fill="#EFF1F3"/>
<path d="M56.5843 32.333L9.38474 5.08285C8.94014 4.82545 8.57834 5.03245 8.57654 5.54365L8.47754 40.4204C8.47754 40.9316 8.83574 41.5544 9.28034 41.8118L27.8581 52.5236L38.9209 58.9262L56.4799 69.0639C56.9245 69.3213 57.2863 69.1143 57.2881 68.6031L57.3871 33.7262C57.3871 33.215 57.0289 32.5922 56.5843 32.3366V32.333ZM55.8121 62.0546L55.8049 64.3208C55.8049 64.7474 55.5007 64.9202 55.1281 64.7043L10.5727 38.9768C10.2433 38.786 9.97874 38.327 9.97874 37.8573L10.0651 7.69105C10.0651 7.26445 10.3711 7.09165 10.7419 7.30585L55.2181 32.9846C55.5889 33.1988 55.8931 33.7226 55.8913 34.1492L55.8121 62.051" fill="url(#paint2_radial_7996_40513)"/>
<path d="M10.6534 39.0237C10.6282 39.0093 10.6048 38.9913 10.5796 38.9751L10.5742 38.9787L28.711 49.4511L10.6534 39.0255V39.0237ZM29.6686 49.0335C29.6686 49.0335 29.6506 49.0389 29.6416 49.0389C29.6506 49.0389 29.6614 49.0389 29.6686 49.0335ZM29.6344 49.0407C29.6218 49.0407 29.6074 49.0353 29.593 49.0263C29.6074 49.0353 29.6218 49.0389 29.6344 49.0407ZM11.7712 38.2803L11.1358 38.6493L11.7694 39.1173V38.2803H11.7712ZM53.9434 63.0537C53.9434 63.0537 53.9326 63.0537 53.929 63.0573C53.9344 63.0573 53.9398 63.0573 53.9434 63.0537ZM52.0192 61.9431C52.0192 61.9431 52.0066 61.9467 51.9994 61.9467C52.0066 61.9467 52.0138 61.9467 52.0192 61.9431ZM51.985 61.9503C51.9724 61.9503 51.958 61.9449 51.9436 61.9359C51.958 61.9449 51.9724 61.9485 51.985 61.9503ZM52.0498 61.8747L51.9454 61.9359C51.9796 61.9161 52.0156 61.8945 52.0498 61.8747ZM50.0608 60.8379C50.0482 60.8379 50.0338 60.8325 50.0194 60.8235C50.0338 60.8325 50.0482 60.8361 50.0608 60.8379ZM50.0932 60.8307C50.0932 60.8307 50.077 60.8361 50.068 60.8361C50.077 60.8361 50.086 60.8361 50.0932 60.8307ZM48.169 59.7201C48.16 59.7255 48.1474 59.7273 48.1366 59.7273C48.1492 59.7273 48.16 59.7273 48.169 59.7201ZM31.5946 50.1441C31.5856 50.1495 31.573 50.1513 31.5622 50.1513C31.5748 50.1513 31.5856 50.1513 31.5946 50.1441ZM53.659 61.7955L53.3854 61.9539C53.4754 61.9017 53.5672 61.8495 53.659 61.7955ZM47.8846 58.4619L47.6902 58.5753C47.755 58.5375 47.818 58.5015 47.8846 58.4619ZM47.0458 58.0137C47.0278 58.0245 47.0152 58.0479 47.0152 58.0803C47.0152 58.0479 47.026 58.0245 47.0458 58.0137Z" fill="#EFF1F3"/>
<path d="M10.5928 38.9822L10.6108 38.993C10.6108 38.993 10.6 38.9858 10.5946 38.9822H10.5928ZM11.7718 38.2964L11.1472 38.66L11.77 39.119V38.2964H11.7718Z" fill="#C8D6DC"/>
<path d="M11.7711 38.2101L11.6236 38.1255L10.9521 38.5161L11.7694 39.1173L11.7711 38.2101Z" fill="#98B3BC"/>
<path d="M9.38477 5.08311L12.6626 3.17871L59.8622 30.4289L56.5844 32.3333L9.38477 5.08311Z" fill="#EFF1F3"/>
<path d="M60.5715 31.7735L60.4725 66.6503C60.4725 66.9041 60.3807 67.0841 60.2367 67.1669L56.9607 69.0713C57.1065 68.9885 57.1947 68.8085 57.1965 68.5547L57.2955 33.6779C57.2973 33.1667 56.9373 32.5439 56.4927 32.2883L9.2931 5.03634C9.0699 4.90674 8.8665 4.89414 8.7207 4.98054L11.9967 3.07614C12.1425 2.98974 12.3459 3.00234 12.5691 3.13194L59.7687 30.3839C60.2133 30.6413 60.5733 31.2623 60.5715 31.7735Z" fill="#5E2AD8"/>
<path d="M60.5715 31.7032L60.4725 66.58C60.4725 66.8338 60.3807 67.0138 60.2367 67.0966L56.9607 69.001C57.1065 68.9182 57.1947 68.7382 57.1965 68.4844L57.2955 33.6076C57.2973 33.0964 56.9373 32.4736 56.4927 32.218L9.2931 4.96602C9.0699 4.83642 8.8665 4.82382 8.7207 4.91022L11.9967 3.00582C12.1425 2.91942 12.3459 2.93202 12.5691 3.06162L59.7687 30.3118C60.2133 30.5692 60.5733 31.1902 60.5715 31.7014V31.7032Z" fill="url(#paint3_radial_7996_40513)"/>
<path d="M13.01 20.4998L13.9928 21.9506L13.982 25.5146V26.3516L13.5536 25.7396L13.5572 24.701C13.5572 24.6254 13.505 24.5336 13.4384 24.494L13.001 24.242L13.0118 20.498L13.01 20.4998Z" fill="#E6EAEC"/>
<path d="M13.4369 24.4979C13.5035 24.5357 13.5575 24.6293 13.5557 24.7049L13.5521 25.7435V26.2061C13.5521 26.2817 13.4963 26.3123 13.4297 26.2745L12.1247 25.5203C12.0581 25.4825 12.0041 25.3889 12.0059 25.3133L12.0095 23.8121C12.0095 23.7365 12.0635 23.7059 12.1301 23.7437L12.9977 24.2441L13.4351 24.4961L13.4369 24.4979Z" fill="#5E2AD8"/>
<path d="M15.7358 22.0734L15.7268 25.4124C15.7898 25.5564 15.8528 25.7022 15.914 25.8462C15.9104 26.109 15.9068 26.3718 15.9032 26.6346C15.2624 26.262 14.6216 25.8894 13.9808 25.5168L13.9916 21.9528L13.0088 20.502L15.734 22.0752L15.7358 22.0734Z" fill="#B0C4C9"/>
<path d="M13.5072 32.733C13.5738 32.7708 13.6278 32.8644 13.626 32.94L13.6224 33.9786V34.4412C13.6224 34.5168 13.5666 34.5474 13.5 34.5096L12.195 33.7554C12.1284 33.7176 12.0744 33.624 12.0762 33.5484L12.0798 32.049C12.0798 31.9734 12.1338 31.9428 12.2004 31.9806L13.068 32.481L13.5054 32.733H13.5072Z" fill="#5E2AD8"/>
<path d="M16.5958 34.747V35.0296L14.5762 33.8632V33.5806L16.5958 34.747Z" fill="#B0C4C9"/>
<path d="M13.0803 28.7367L14.0631 30.1875L14.0523 33.7569V34.5885L13.6239 33.9765L13.6275 32.9379C13.6275 32.8623 13.5735 32.7687 13.5087 32.7309L13.0713 32.4789L13.0821 28.7349L13.0803 28.7367Z" fill="#E6EAEC"/>
<path d="M16.5977 34.2935L16.5959 34.5761L14.5781 33.4097V33.1289L16.5977 34.2935Z" fill="#B0C4C9"/>
<path d="M16.0482 32.1551V32.2955L14.583 31.4495V31.3091L16.0482 32.1551Z" fill="#B0C4C9"/>
<path d="M16.1605 32.4503L16.7851 32.8103L16.7779 35.6651L14.4307 34.3097V33.9785L14.4415 30.6953L15.8041 31.4819L16.1641 31.6907V32.4503H16.1605ZM16.5961 34.1243V33.3701L14.5801 32.2037V32.9579L16.5961 34.1243ZM16.5943 35.0297V34.7471L14.5765 33.5807V33.8633L16.5943 35.0297ZM16.5943 34.5761V34.2935L14.5765 33.1271V33.4097L16.5943 34.5761ZM16.5979 33.1919V32.9093L14.5801 31.7429V32.0255L16.5979 33.1919ZM14.5801 31.3091V31.4495L16.0453 32.2955V32.1551L14.5801 31.3091Z" fill="#E6EAEC"/>
<path d="M16.5995 33.37L16.5977 34.1224L14.5781 32.9578L14.5817 32.2036L16.5995 33.37Z" fill="#B0C4C9"/>
<path d="M16.6016 32.9092L16.5998 33.1918L14.582 32.0254V31.7446L16.6016 32.9092Z" fill="#B0C4C9"/>
<path d="M16.162 31.6904L16.7848 32.81L16.1602 32.45L16.162 31.6904Z" fill="#B0C4C9"/>
<path d="M15.8053 30.31L15.8017 31.4818L14.4391 30.6952L14.4301 33.9802L14.0521 33.757L14.0611 30.1876L13.0801 28.7368L15.8053 30.31Z" fill="#B0C4C9"/>
<path d="M12.8861 11.9048L16.3691 15.1808L16.3601 18.1454L12.8789 14.873L12.8861 11.9048Z" fill="#5E2AD8"/>
<path d="M12.4634 15.5319L15.4532 18.4245L15.3182 18.4173L14.1212 18.3507L11.2016 15.4905L11.0576 15.3501L12.4634 15.5319Z" fill="#E6EAEC"/>
<path d="M11.0575 15.3501L11.2015 15.4905L14.1211 18.3507L15.3181 18.4173L15.4531 18.4245V18.5469L14.1211 18.4731L11.0557 15.4725L11.0575 15.3501Z" fill="#B0C4C9"/>
<path d="M14.5223 16.4932L15.4565 17.3716V17.4166C15.4565 17.5048 15.3935 17.5408 15.3161 17.4958L14.6591 17.116C14.5817 17.071 14.5205 16.963 14.5205 16.8766V16.4932H14.5223Z" fill="#E6EAEC"/>
<path d="M14.521 16.7396V16.8764C14.521 16.9646 14.5822 17.0726 14.6596 17.1158L15.3166 17.4956C15.394 17.5406 15.4552 17.5046 15.457 17.4164V17.3714L16.0942 17.9708C16.0438 18.1022 15.5344 17.9366 14.9152 17.5784C14.2618 17.2022 13.7326 16.754 13.7344 16.5812C13.7344 16.4444 14.0638 16.5182 14.5228 16.7396H14.521Z" fill="#B0C4C9"/>
<path d="M12.7981 11.7466L16.4575 15.1882L16.4485 18.304L16.0921 17.9692L15.4549 17.3698L14.5207 16.4914L12.7891 14.8642L12.7981 11.7466ZM16.3603 18.1456L16.3693 15.1792L12.8863 11.905L12.8773 14.8714L16.3603 18.1456Z" fill="#E6EAEC"/>
<path d="M13.0859 11.8312L16.6535 15.1972L16.6445 18.3112L16.4483 18.304L16.4573 15.1882L12.7979 11.7466L13.0859 11.8312Z" fill="#B0C4C9"/>
<path d="M22.1332 21.3225C22.1998 21.3603 22.252 21.4521 22.252 21.5277L22.2483 22.5645V23.0271C22.2483 23.1027 22.1926 23.1333 22.1278 23.0955L20.8209 22.3413C20.7543 22.3035 20.7021 22.2117 20.7021 22.1361L20.7057 20.6349C20.7057 20.5593 20.7597 20.5287 20.8263 20.5665L21.694 21.0669L22.1313 21.3189L22.1332 21.3225Z" fill="#5E2AD8"/>
<path d="M21.7061 17.3247L21.8681 17.5641L22.6871 18.7755L22.6763 22.5087V23.1765L22.2479 22.5645L22.2515 21.5277C22.2515 21.4521 22.1993 21.3603 22.1327 21.3225L21.6953 21.0705L21.7061 17.3265V17.3247Z" fill="#E6EAEC"/>
<path d="M24.4313 18.8979L24.4294 19.4703L22.2047 17.7405L22.2029 17.8917L21.8681 17.5479V17.5641L21.7061 17.3247L24.4313 18.8979Z" fill="#B0C4C9"/>
<path d="M21.8682 17.5479L22.203 17.8917L23.8644 19.6017L23.8554 23.0451L23.8536 23.7291L22.6764 22.5087L22.6872 18.7755L21.8682 17.5641V17.5479Z" fill="#B0C4C9"/>
<path d="M22.2049 17.7407L24.4297 19.4705L24.7879 19.7477L24.7771 23.8931L23.8555 23.0453L23.8645 19.6019L22.2031 17.8919L22.2049 17.7407Z" fill="#E6EAEC"/>
<path d="M22.2456 27.0305L22.242 28.0727L23.1492 28.5965C23.1492 29.1743 22.7406 29.4065 22.2384 29.1167C21.7362 28.8269 21.333 28.1267 21.333 27.5489C21.333 26.9729 21.7416 26.7407 22.2438 27.0305H22.2456Z" fill="#E6EAEC"/>
<path d="M23.3076 30.2236L24.9186 31.1542L24.9168 31.3468L23.3076 30.418V30.2236Z" fill="#5E2AD8"/>
<path d="M22.2459 27.0303C22.7481 27.3201 23.1513 28.0203 23.1513 28.5963L22.2441 28.0725L22.2477 27.0303H22.2459Z" fill="#5E2AD8"/>
<path d="M24.9228 29.3148L24.921 30.0132L23.8662 29.4048L23.868 28.7046L24.9228 29.3148Z" fill="#5E2AD8"/>
<path d="M24.9245 28.7261L24.9227 29.3147L23.8679 28.7045L23.8661 29.4047L24.9209 30.0131L24.9191 30.6629L23.8643 30.0545L23.8661 29.6333V29.5397L23.8697 28.1177L24.9245 28.7261Z" fill="#E6EAEC"/>
<path d="M25.3743 28.3571C25.4247 28.3859 25.4679 28.4579 25.4661 28.5173L25.4553 32.1335C25.4553 32.1929 25.4139 32.2163 25.3617 32.1857L20.9229 29.6225C20.8725 29.5937 20.8293 29.5217 20.8311 29.4623L20.8419 25.8461C20.8419 25.7867 20.8833 25.7633 20.9355 25.7921L25.3743 28.3553V28.3571ZM24.9225 29.3129V28.7243L23.8695 28.1159L23.8659 29.5379L23.5239 29.3399V28.7639L23.1513 28.5479V28.5947C23.1513 28.0187 22.7481 27.3185 22.2459 27.0287C21.7437 26.7389 21.3369 26.9711 21.3351 27.5471C21.3351 28.1249 21.7383 28.8251 22.2405 29.1149C22.7427 29.4047 23.1495 29.1725 23.1513 28.5947V28.6433L23.4429 28.8125V29.3885L23.8659 29.6333V30.0545L24.9207 30.6629V30.0131L24.9243 29.3129H24.9225ZM24.9189 31.3451V31.1525L23.3097 30.2237V30.0131L22.7985 29.7179V29.9285L21.4233 29.1347V29.3273L22.7967 30.1211V30.3047L23.3079 30.5999V30.4163L24.9189 31.3451Z" fill="#B0C4C9"/>
<path d="M23.5258 28.7653L23.524 29.3413L23.866 29.5393V29.6329L23.4412 29.3881L23.443 28.8139L23.1514 28.6447V28.5493L23.5258 28.7653Z" fill="#5E2AD8"/>
<path d="M21.4219 29.3288V29.1362L22.7971 29.9282V30.1226L21.4219 29.3288Z" fill="#5E2AD8"/>
<path d="M23.3079 30.013V30.2236V30.418L23.3061 30.6016L22.7949 30.3064L22.7967 30.1228V29.9284V29.7178L23.3079 30.013Z" fill="#E6EAEC"/>
<path d="M24.2946 36.3978V36.5544L23.04 35.829V35.6724L24.2946 36.3978Z" fill="#B0C4C9"/>
<path d="M22.4637 35.0242C22.5321 35.0638 22.5861 35.1574 22.5861 35.2348L22.5807 36.8854C22.5807 36.9628 22.5249 36.9952 22.4583 36.9556L21.0453 36.1402C20.9769 36.1006 20.9229 36.007 20.9229 35.9296L20.9283 34.279C20.9283 34.2016 20.9841 34.1692 21.0507 34.2088L22.4637 35.0242Z" fill="#E6EAEC"/>
<path d="M22.7155 34.8243C22.8073 34.8765 22.8811 35.0061 22.8811 35.1123L22.8739 37.3533C22.8739 37.4595 22.7983 37.5027 22.7065 37.4487L21.2035 36.5811L20.7877 36.3417C20.6959 36.2895 20.6221 36.1599 20.6221 36.0537L20.6293 33.8127C20.6293 33.7065 20.7049 33.6651 20.7967 33.7173L21.2125 33.9567L22.7155 34.8243ZM22.5787 36.8853L22.5841 35.2347C22.5841 35.1573 22.5301 35.0619 22.4617 35.0241L21.0487 34.2087C20.9803 34.1691 20.9263 34.2015 20.9263 34.2789L20.9209 35.9295C20.9209 36.0069 20.9749 36.1023 21.0433 36.1401L22.4563 36.9555C22.5247 36.9951 22.5787 36.9627 22.5787 36.8853Z" fill="#B0C4C9"/>
<path d="M24.2927 37.1699V37.3265L23.0381 36.6029V36.4463L24.2927 37.1699Z" fill="#B0C4C9"/>
<path d="M24.2945 36.7592L24.2927 36.9158L23.0381 36.1922L23.0399 36.0356L24.2945 36.7592Z" fill="#B0C4C9"/>
<path d="M23.5925 34.0596L24.6239 35.811L23.5889 35.2134L23.5925 34.0596Z" fill="#B0C4C9"/>
<path d="M23.5891 35.2132L24.6259 35.8108L24.6151 39.805L21.2041 37.8358L21.2077 36.5794L22.7107 37.447C22.8025 37.4992 22.8781 37.4578 22.8781 37.3516L22.8853 35.1106C22.8853 35.0044 22.8115 34.8766 22.7197 34.8226L21.2167 33.955L21.2203 32.686L23.5945 34.0576L23.5909 35.2114L23.5891 35.2132ZM24.2911 37.708V37.5514L23.0365 36.8278V36.9844L24.2911 37.708ZM24.2929 36.916V36.7594L23.0383 36.0358V36.1924L24.2929 36.916ZM24.2929 37.3264V37.1698L23.0383 36.4462V36.6028L24.2929 37.3264ZM24.2947 36.5524V36.3958L23.0401 35.6722V35.8288L24.2947 36.5524Z" fill="#E6EAEC"/>
<path d="M24.2907 37.5511V37.7077L23.0361 36.9841V36.8257L24.2907 37.5511Z" fill="#B0C4C9"/>
<path d="M41.1583 31.505L41.1349 39.7058L33.9961 35.5856L34.0195 27.3848L41.1583 31.505Z" fill="#C8D6DC"/>
<path d="M48.7561 35.8936L48.7327 44.0926L41.5957 39.9724L41.6191 31.7734L48.7561 35.8936Z" fill="#C8D6DC"/>
<path d="M41.1339 40.2369L41.1105 48.4377L33.9717 44.3157L33.9951 36.1167L41.1339 40.2369Z" fill="#C8D6DC"/>
<path d="M48.7307 44.6236L48.7073 52.8244L41.5703 48.7042L41.5937 40.5034L48.7307 44.6236Z" fill="#C8D6DC"/>
<path d="M11.8441 37.2073L11.8423 38.1631L11.0107 37.6825L11.0125 36.7285L11.8441 37.2073Z" fill="white"/>
<path d="M12.7299 37.7185L12.7281 38.6743L11.8965 38.1937L11.8983 37.2397L12.7299 37.7185Z" fill="white"/>
<path d="M11.842 38.2262L11.8384 39.1802L11.0068 38.7014L11.0104 37.7456L11.842 38.2262Z" fill="white"/>
<path d="M12.7278 38.7374L12.7242 39.6932L11.8926 39.2126L11.8962 38.2568L12.7278 38.7374Z" fill="white"/>
</g>
</g>
<defs>
<filter id="filter0_ddd_7996_40513" x="-5.52246" y="-10.0493" width="80.0938" height="94.2236" filterUnits="userSpaceOnUse" color-interpolation-filters="sRGB">
<feFlood flood-opacity="0" result="BackgroundImageFix"/>
<feColorMatrix in="SourceAlpha" type="matrix" values="0 0 0 0 0 0 0 0 0 0 0 0 0 0 0 0 0 0 127 0" result="hardAlpha"/>
<feOffset dy="1"/>
<feGaussianBlur stdDeviation="7"/>
<feComposite in2="hardAlpha" operator="out"/>
<feColorMatrix type="matrix" values="0 0 0 0 0 0 0 0 0 0 0 0 0 0 0 0 0 0 0.12 0"/>
<feBlend mode="normal" in2="BackgroundImageFix" result="effect1_dropShadow_7996_40513"/>
<feColorMatrix in="SourceAlpha" type="matrix" values="0 0 0 0 0 0 0 0 0 0 0 0 0 0 0 0 0 0 127 0" result="hardAlpha"/>
<feOffset dy="5"/>
<feGaussianBlur stdDeviation="4"/>
<feComposite in2="hardAlpha" operator="out"/>
<feColorMatrix type="matrix" values="0 0 0 0 0 0 0 0 0 0 0 0 0 0 0 0 0 0 0.14 0"/>
<feBlend mode="normal" in2="effect1_dropShadow_7996_40513" result="effect2_dropShadow_7996_40513"/>
<feColorMatrix in="SourceAlpha" type="matrix" values="0 0 0 0 0 0 0 0 0 0 0 0 0 0 0 0 0 0 127 0" result="hardAlpha"/>
<feMorphology radius="1" operator="erode" in="SourceAlpha" result="effect3_dropShadow_7996_40513"/>
<feOffset dy="3"/>
<feGaussianBlur stdDeviation="2.5"/>
<feComposite in2="hardAlpha" operator="out"/>
<feColorMatrix type="matrix" values="0 0 0 0 0 0 0 0 0 0 0 0 0 0 0 0 0 0 0.2 0"/>
<feBlend mode="normal" in2="effect2_dropShadow_7996_40513" result="effect3_dropShadow_7996_40513"/>
<feBlend mode="normal" in="SourceGraphic" in2="effect3_dropShadow_7996_40513" result="shape"/>
</filter>
<linearGradient id="paint0_linear_7996_40513" x1="36.4798" y1="61.0202" x2="25.6798" y2="57.4202" gradientUnits="userSpaceOnUse">
<stop offset="0.107383" stop-color="#8CACB7"/>
<stop offset="1" stop-color="#C9D7DD"/>
</linearGradient>
<linearGradient id="paint1_linear_7996_40513" x1="146.23" y1="-10.9606" x2="-5.62507" y2="50.2358" gradientUnits="userSpaceOnUse">
<stop offset="0.35" stop-color="#4C7F8E" stop-opacity="0.5"/>
<stop offset="0.44" stop-color="#4C7F8E" stop-opacity="0.47"/>
<stop offset="0.54" stop-color="#4C7F8E" stop-opacity="0.37"/>
<stop offset="0.65" stop-color="#4C7F8E" stop-opacity="0.21"/>
<stop offset="0.75" stop-color="#4C7F8E" stop-opacity="0"/>
<stop offset="1" stop-color="#4C7F8E" stop-opacity="0"/>
</linearGradient>
<radialGradient id="paint2_radial_7996_40513" cx="0" cy="0" r="1" gradientUnits="userSpaceOnUse" gradientTransform="translate(32.9323 37.0706) scale(28.5336 28.5336)">
<stop offset="0.57" stop-color="white" stop-opacity="0"/>
<stop offset="0.79" stop-color="white" stop-opacity="0.3"/>
<stop offset="0.87" stop-color="white" stop-opacity="0.42"/>
<stop offset="1" stop-color="white" stop-opacity="0.6"/>
</radialGradient>
<radialGradient id="paint3_radial_7996_40513" cx="0" cy="0" r="1" gradientUnits="userSpaceOnUse" gradientTransform="translate(81.9375 7.51122) scale(86.6808 86.6808)">
<stop stop-color="white" stop-opacity="0.6"/>
<stop offset="0.13" stop-color="white" stop-opacity="0.42"/>
<stop offset="0.21" stop-color="white" stop-opacity="0.3"/>
<stop offset="0.54" stop-color="white" stop-opacity="0"/>
</radialGradient>
<clipPath id="clip0_7996_40513">
<rect width="72" height="72" fill="white"/>
</clipPath>
</defs>
</svg>
