<svg xmlns="http://www.w3.org/2000/svg" width="72" height="72" fill="none" viewBox="0 0 72 72"><g fill="#0069ff" clip-path="url(#a)"><path d="M36.05 58.059V72c23.546 0 41.87-22.751 34.164-47.47C66.789 13.753 58.227 5.114 47.438 1.778 22.777-5.92 0 12.47 0 35.991h13.957c0-14.711 14.642-26.173 30.227-20.527 5.737 2.052 10.36 6.671 12.416 12.402 5.651 15.567-5.737 30.193-20.55 30.193"/><path d="M22.175 58.145h13.871V44.289H22.175zm-.002 10.695H11.47V58.15l10.703-.001zM2.487 58.15h8.906v-8.896H2.486z"/></g><defs><clipPath id="a"><path fill="#fff" d="M0 0h72v72H0z"/></clipPath></defs></svg>