<svg xmlns="http://www.w3.org/2000/svg" width="72" height="72" fill="none" viewBox="0 0 72 72"><g clip-path="url(#a)"><path fill="#0174c3" d="M10.49 45.373c0-8.072 2.167-14.438 6.366-19.26 4.334-4.821 9.752-7.232 16.496-7.232 2.168 0 4.226.244 6.15.84 1.923.487 3.358 1.192 4.442 2.058 1.084.867 2.059 1.571 2.898 2.411.84.84 1.436 1.436 1.815 2.059l.352.84h.244c-.108-.976-.244-2.167-.244-3.36V0h9.752v70.782h-9.264V65.96l.108-3.36h-.243c-.109.245-.353.597-.596.976-.244.38-.84 1.192-1.68 2.276s-1.923 2.058-3.142 2.898c-1.192.84-2.763 1.571-4.822 2.275-2.058.732-4.225.975-6.5.975-6.854 0-12.272-2.41-16.254-7.34-3.82-4.957-5.878-11.323-5.878-19.287m9.996 0c0 5.526 1.327 9.86 3.982 13.246 2.654 3.25 6.122 4.93 10.347 4.93 4.09 0 7.585-1.571 10.483-4.578 2.763-3.007 4.226-7.584 4.226-13.733 0-4.93-1.192-9.156-3.738-12.65-2.52-3.603-6.014-5.418-10.592-5.418-4.09 0-7.584 1.57-10.483 4.821-2.898 3.414-4.225 7.748-4.225 13.382"/></g><defs><clipPath id="a"><path fill="#fff" d="M0 0h72v72H0z"/></clipPath></defs></svg>