<svg width="72" height="72" viewBox="0 0 72 72" fill="none" xmlns="http://www.w3.org/2000/svg">
<g clip-path="url(#clip0_15937_7226)">
<path d="M36.0492 58.0586V72.0005C59.5966 72.0005 77.921 49.2487 70.2146 24.53C66.7894 13.7528 58.2266 5.11402 47.4376 1.77824C22.777 -5.91969 0 12.4698 0 35.9913H13.9573C13.9573 21.2797 28.5995 9.81829 44.1837 15.4635C49.9207 17.5162 54.5447 22.135 56.5998 27.8656C62.2511 43.4327 50.8628 58.0586 36.0492 58.0586Z" fill="#0069FF"/>
<path d="M22.1748 58.1448H36.0463V44.2886H22.1748V58.1448Z" fill="#0069FF"/>
<path d="M22.1731 68.8405H11.4697V58.1498L22.1731 58.1489V68.8405Z" fill="#0069FF"/>
<path d="M2.4873 58.1498H11.3925V49.2544H2.4873V58.1498Z" fill="#0069FF"/>
</g>
<defs>
<clipPath id="clip0_15937_7226">
<rect width="72" height="72" fill="white" transform="translate(0 0.000488281)"/>
</clipPath>
</defs>
</svg>
