<svg xmlns="http://www.w3.org/2000/svg" width="72" height="72" fill="none" viewBox="0 0 72 72"><g clip-path="url(#a)"><path fill="#5865f2" d="M60.991 13.57A59.5 59.5 0 0 0 46.137 9a41 41 0 0 0-1.903 3.868 55.3 55.3 0 0 0-16.485 0A41 41 0 0 0 25.846 9a60 60 0 0 0-14.865 4.581C1.58 27.49-.97 41.053.306 54.423a59.9 59.9 0 0 0 18.218 9.146 44 44 0 0 0 3.902-6.291 39 39 0 0 1-6.145-2.934 68 68 0 0 0 1.507-1.133 42.8 42.8 0 0 0 36.424 0c.493.403.997.788 1.507 1.133a39 39 0 0 1-6.156 2.94 43.6 43.6 0 0 0 3.902 6.285 59.6 59.6 0 0 0 18.23-9.14C73.188 38.923 69.14 25.485 60.99 13.57M24.04 46.2c-3.551 0-6.485-3.222-6.485-7.186s2.832-7.215 6.473-7.215 6.552 3.251 6.49 7.215-2.86 7.187-6.478 7.187m23.92 0c-3.556 0-6.478-3.222-6.478-7.186S44.313 31.8 47.96 31.8s6.535 3.251 6.473 7.215-2.854 7.187-6.473 7.187"/></g><defs><clipPath id="a"><path fill="#fff" d="M0 0h72v72H0z"/></clipPath></defs></svg>