<svg xmlns="http://www.w3.org/2000/svg" width="72" height="72" fill="none" viewBox="0 0 72 72"><path fill="#39b34a" d="m49.454 5.611.505 23.272a11 11 0 0 0-6.366-2.052H25.4c-9.916.244-11.165 8.934-11.165 10.03v9.715c0 5.21 3.871 8.2 6.95 9.553 1.303.572 2.8.476 3.345.476h21.198c9.09-1.564 12.635-7.362 12.635-11.913V5.611zM27.69 32.91h16c2.224 0 6.114 1.71 6.265 7.06v4.44c0 4.865-4.94 6.047-5.639 6.156-.43.072-16.494.11-16.494.11-4.461-.17-4.977-3.985-4.977-4.739V37.8c.184-4.157 3.785-4.926 4.845-4.89"/><path fill="#fff" fill-opacity=".18" d="M47.706 17.279c-4.314-.854-8.303-1.104-11.03-1.057C16.217 16.124.135 26.116.443 41.683.687 54.02 8.494 65.3 30.628 66.35c5.637.268 10.915-.843 16.03-2.362l-1.573-5.229c-4.435 1.496-7.446 2.16-13.183 2.007C8.85 60.149 7.76 46.725 7.4 42.294l-.03-.367c.031-17.463 18.967-19.078 25.794-19.14 5.88-.027 10.725.546 14.695 1.54zm.564 40.817c1.334.537 3.177 1.002 5.93 1.342 3.496.432 16.414-2.185 17.316-17.633.583-10.003-4.503-16.23-11.155-20.032v9.266c3.148 3.42 4.135 7.358 3.972 10.683-.363 7.397-3.818 8.884-5.092 9.192a2 2 0 0 1-.674.019c-1.866 3.094-5.233 5.812-10.297 7.163"/></svg>