<svg xmlns="http://www.w3.org/2000/svg" width="72" height="72" fill="none" viewBox="0 0 72 72"><path fill="#1d63ed" d="M70.829 30.876c-1.766-1.191-6.403-1.7-9.775-.79-.182-3.365-1.914-6.202-5.083-8.676l-1.172-.789-.782 1.183c-1.536 2.337-2.184 5.452-1.956 8.284.182 1.744.787 3.705 1.956 5.127-4.39 2.552-8.434 1.973-26.35 1.973H.006c-.082 4.054.569 11.852 5.517 18.2q.82 1.053 1.796 2.034c4.024 4.037 10.103 6.998 19.193 7.006 13.867.012 25.75-7.5 32.977-25.663 2.379.04 8.656.427 11.728-5.522.075-.1.782-1.578.782-1.578zm-52.771-4.184H10.28v7.794h7.778zm10.049 0h-7.778v7.794h7.778zm10.05 0h-7.779v7.794h7.778zm10.049 0h-7.779v7.794h7.779zm-40.195 0H.23v7.794h7.778v-7.794zm10.049-9.846h-7.778v7.794h7.778zm10.05 0h-7.78v7.794h7.78zm10.048 0H30.38v7.794h7.778zM38.155 7h-7.778v7.795h7.778z"/></svg>