<svg xmlns="http://www.w3.org/2000/svg" width="72" height="72" fill="none" viewBox="0 0 72 72"><g clip-path="url(#a)"><path fill="#4c00ff" d="M51.853 51.85v18.402c0 .967-.78 1.748-1.747 1.748H1.747A1.746 1.746 0 0 1 0 70.252V21.896c0-.967.78-1.748 1.747-1.748H20.15z"/><path fill="#ff5252" d="M72 25.872c0 15.464-9.033 25.941-20.147 25.978l-31.707-31.7V1.748c0-.966.781-1.747 1.747-1.747H49.14C62.075-.037 72 10.371 72 25.872"/><path fill="#000" d="M51.221 30.816c.41.409.629.93.629 1.487V51.85H21.9a1.75 1.75 0 0 1-1.75-1.75l-.003-29.95h19.477c.558 0 1.115.183 1.487.592z"/></g><defs><clipPath id="a"><path fill="#fff" d="M0 0h72v72H0z"/></clipPath></defs></svg>