<svg xmlns="http://www.w3.org/2000/svg" width="72" height="72" fill="none" viewBox="0 0 72 72"><g clip-path="url(#a)"><path fill="#380089" d="M36 72c19.882 0 36-16.117 36-36S55.882 0 36 0 0 16.118 0 36s16.118 36 36 36"/><path fill="#ff90ff" d="M36 65.049c15.914 0 28.814-12.9 28.814-28.813S51.914 7.423 36 7.423 7.188 20.323 7.188 36.236 20.088 65.049 36 65.049"/><path fill="#380089" d="M54.563 39.588a3.64 3.64 0 0 1-3.64-3.64V25.646a3.646 3.646 0 0 1 7.292 0v10.302a3.64 3.64 0 0 1-3.652 3.64m-37.126 0a3.64 3.64 0 0 1-3.64-3.64V25.646a3.646 3.646 0 0 1 7.293 0v10.302a3.64 3.64 0 0 1-3.653 3.64m30.843-3.784a12.28 12.28 0 0 1-24.56 0V31.51h24.56z"/><path fill="#fff" d="M43.567 36.066a7.566 7.566 0 0 1-15.12 0c.105-.026 15.173-.026 15.12 0"/></g><defs><clipPath id="a"><path fill="#fff" d="M0 0h72v72H0z"/></clipPath></defs></svg>