<svg width="72" height="72" viewBox="0 0 72 72" fill="none" xmlns="http://www.w3.org/2000/svg">
<g clip-path="url(#clip0_15937_7289)">
<path d="M36 72.0005C55.8822 72.0005 72 55.8827 72 36.0005C72 16.1182 55.8822 0.000488281 36 0.000488281C16.1177 0.000488281 0 16.1182 0 36.0005C0 55.8827 16.1177 72.0005 36 72.0005Z" fill="#380089"/>
<path d="M36.0006 65.049C51.9136 65.049 64.8137 52.149 64.8137 36.2359C64.8137 20.3229 51.9136 7.42285 36.0006 7.42285C20.0876 7.42285 7.1875 20.3229 7.1875 36.2359C7.1875 52.149 20.0876 65.049 36.0006 65.049Z" fill="#FF90FF"/>
<path d="M54.5631 39.5876C53.5979 39.5876 52.6722 39.2042 51.9897 38.5217C51.3073 37.8392 50.9238 36.9136 50.9238 35.9484V25.6458C50.9238 24.6789 51.3079 23.7516 51.9917 23.0678C52.6754 22.3841 53.6027 22 54.5696 22C55.5366 22 56.4639 22.3841 57.1476 23.0678C57.8314 23.7516 58.2155 24.6789 58.2155 25.6458V35.9484C58.2155 36.4274 58.1209 36.9017 57.9372 37.3441C57.7535 37.7865 57.4842 38.1882 57.1449 38.5264C56.8056 38.8645 56.4029 39.1323 55.9598 39.3144C55.5168 39.4965 55.0421 39.5894 54.5631 39.5876Z" fill="#380089"/>
<path d="M17.4371 39.5876C16.4719 39.5876 15.5463 39.2042 14.8638 38.5217C14.1813 37.8392 13.7979 36.9136 13.7979 35.9484V25.6458C13.7979 24.6789 14.182 23.7516 14.8657 23.0678C15.5494 22.3841 16.4767 22 17.4437 22C18.4106 22 19.3379 22.3841 20.0217 23.0678C20.7054 23.7516 21.0895 24.6789 21.0895 25.6458V35.9484C21.0895 36.4274 20.9949 36.9017 20.8112 37.3441C20.6275 37.7865 20.3583 38.1882 20.0189 38.5264C19.6796 38.8645 19.2769 39.1323 18.8338 39.3144C18.3908 39.4965 17.9161 39.5894 17.4371 39.5876Z" fill="#380089"/>
<path d="M48.2793 35.8041C48.2793 39.0607 46.9855 42.184 44.6827 44.4868C42.3799 46.7896 39.2566 48.0833 36 48.0833C32.7433 48.0833 29.62 46.7896 27.3172 44.4868C25.0144 42.184 23.7207 39.0607 23.7207 35.8041V31.5103H48.2793V35.8041Z" fill="#380089"/>
<path d="M43.5673 36.066C43.4861 38.0166 42.6541 39.8604 41.2452 41.2118C39.8363 42.5633 37.9596 43.3179 36.0073 43.3179C34.055 43.3179 32.1782 42.5633 30.7693 41.2118C29.3604 39.8604 28.5285 38.0166 28.4473 36.066C28.552 36.0398 43.6196 36.0398 43.5673 36.066Z" fill="white"/>
</g>
<defs>
<clipPath id="clip0_15937_7289">
<rect width="72" height="72" fill="white" transform="translate(0 0.000488281)"/>
</clipPath>
</defs>
</svg>
