<svg xmlns="http://www.w3.org/2000/svg" width="72" height="72" fill="none" viewBox="0 0 72 72"><g clip-path="url(#a)"><path fill="#fff" d="M58.704.388h.775c.968.194 1.549 1.162.968 1.937-.194.193-.194.387-.387.387L42.24 23.048s-.387.388-.387.581c-.581.969 0 1.937 1.356 2.13h7.36c1.161.194 1.743 1.163 1.161 2.131l-.58.581-13.17 14.913c-.194.194-.388.388-.388.582-.58.968 0 1.936 1.356 1.936h4.842c.58 0 1.162.388 1.549.775.194.58 0 1.162-.387 1.55l-.387.387L13.77 71.468s-.387.387-.58.387c-.388.194-.581.194-.969 0-.194-.193-.387-.387-.194-.775 0-.193.194-.58.194-.58l8.328-17.238.194-.581c.581-1.162 0-2.13-1.162-2.324h-6.972c-.969-.194-1.55-.969-1.162-1.937 0-.194.387-.58.387-.58l10.458-17.432s.194-.194.194-.387c.581-.969-.194-1.937-1.355-2.13h-6.779c-.969 0-1.55-.388-1.55-1.163 0-.387 0-.775.194-.968l3.099-5.617 10.458-18.4.194-.387C27.328.388 28.103 0 29.46 0z"/></g><defs><clipPath id="a"><path fill="#fff" d="M0 0h72v72H0z"/></clipPath></defs></svg>