<svg width="50" height="18" viewBox="0 0 50 18" fill="none" xmlns="http://www.w3.org/2000/svg"><g clip-path="url(#clip0_26441_7682)"><path fill-rule="evenodd" clip-rule="evenodd" d="M34 8.1H50C50 4.05 46.5 0 42 0C37.5 0 34 4.05 34 8.1Z" fill="white"/><path fill-rule="evenodd" clip-rule="evenodd" d="M34 9.18018H50C50 13.2302 46.5 17.2802 42 17.2802C37.5 17.2802 34 13.2302 34 9.18018Z" fill="white" fill-opacity="0.85"/><path fill-rule="evenodd" clip-rule="evenodd" d="M17 8.64C17 13.5 20.75 17.28 24.5 17.28V0H17V8.64Z" fill="white"/><path fill-rule="evenodd" clip-rule="evenodd" d="M25.5 17.28V0H33V17.28H25.5Z" fill="white" fill-opacity="0.85"/><path fill-rule="evenodd" clip-rule="evenodd" d="M0 0V8.1H16C16 4.05 11.75 0 8 0H0Z" fill="white"/><path fill-rule="evenodd" clip-rule="evenodd" d="M0 17.2802V9.18018H16C16 13.2302 12.25 17.2802 8 17.2802H0Z" fill="white" fill-opacity="0.85"/></g><defs><clipPath id="clip0_26441_7682"><rect width="50" height="18" fill="white"/></clipPath></defs></svg>
