<svg xmlns="http://www.w3.org/2000/svg" width="72" height="72" fill="none" viewBox="0 0 72 72"><path fill="#5294cf" d="M45.085 71.876h.874l14.263-7.134.238-.336V7.466l-.238-.338L45.96 0h-.885z"/><path fill="#1f5b98" d="M26.523 71.876h-.886l-14.252-7.134-.29-.498-.146-56.489.436-.627L25.637 0h.897z"/><path fill="#2d72b8" d="M25.662 0h20.283v71.876H25.662z"/><path fill="#1a476f" d="m67.69 34.323-.483-.107-6.882-.641-.102.05-14.276-.57H25.663l-14.277.57V22.737l-.015.008.015-.032 14.277-3.308h20.284l14.276 3.308 5.248 2.79V23.71l2.218-.243-.23-.448-7.022-5.022-.214.07-14.276-4.425H25.663l-14.277 4.424V7.128L3.92 15.876v7.64l.058-.042 2.16.236v1.83L3.92 26.727v7.602l.058-.006 2.16.032v3.19l-1.864.029-.354-.034v7.605l2.218 1.192v1.852l-2.125.235-.093-.07v7.639l7.466 8.75V53.804l14.277 4.424h20.284l14.318-4.437.19.083 6.93-4.948.304-.493-2.218-.245v-1.814l-.29-.116-4.744 2.557-.172.359-14.318 3.289v.004H25.663v-.004L11.386 49.16V38.233l14.277.569v.014h20.284l14.276-.583.325.15 6.67-.575.471-.23-2.218-.032v-3.19z"/><path fill="#2d72b8" d="M60.223 53.805v10.937l7.466-8.749v-7.589l-7.423 5.388zm0-4.62.043-.01 7.423-3.993v-7.636l-7.466.687zm.043-26.462-.043-.01v10.912l7.466.698v-7.632zm0-4.614 7.423 5.358v-7.59l-7.466-8.75v10.94l.043.014z"/></svg>