<svg width="72" height="72" viewBox="0 0 72 72" fill="none" xmlns="http://www.w3.org/2000/svg">
<path fill-rule="evenodd" clip-rule="evenodd" d="M7.6599 13.4082L4.5 14.904V57.096L7.6599 58.5918L20.448 37.0935L7.6599 13.4082Z" fill="#9D5025"/>
<path fill-rule="evenodd" clip-rule="evenodd" d="M15.0249 56.9565L7.66016 58.5918V13.4082L15.0249 15.0003V56.9565Z" fill="#F58536"/>
<path fill-rule="evenodd" clip-rule="evenodd" d="M11.1436 11.7547L15.0244 9.92676L33.4591 37.8979L15.0244 62.0728L11.1436 60.2449V11.7547Z" fill="#9D5025"/>
<path fill-rule="evenodd" clip-rule="evenodd" d="M24.2089 59.6149L15.0244 62.0728V9.92676L24.2089 12.3928V59.6149Z" fill="#F58536"/>
<path fill-rule="evenodd" clip-rule="evenodd" d="M19.3486 7.8712L24.2086 5.5708L51.403 40.9588L24.2086 66.4279L19.3486 64.1275V7.8712Z" fill="#9D5025"/>
<path fill-rule="evenodd" clip-rule="evenodd" d="M35.99 62.3527L24.209 66.4288V5.5708L35.99 9.655V62.3527Z" fill="#F58536"/>
<path fill-rule="evenodd" clip-rule="evenodd" d="M29.707 2.9736L35.9908 0L65.4118 38.0376L35.9908 72L29.707 69.0264V2.9736Z" fill="#9D5025"/>
<path fill-rule="evenodd" clip-rule="evenodd" d="M67.4992 57.0879L35.9902 72V0L67.4992 14.913V57.0879Z" fill="#F58536"/>
</svg>
