<svg width="72" height="72" viewBox="0 0 72 72" fill="none" xmlns="http://www.w3.org/2000/svg">
<g clip-path="url(#clip0_19422_11319)">
<path d="M72 0H0V72H72V0Z" fill="url(#paint0_linear_19422_11319)"/>
<path d="M35.7984 61.8624C35.6196 61.8659 35.4434 61.8194 35.2896 61.728L13.44 49.1328C13.285 49.0434 13.1564 48.9146 13.067 48.7595C12.9777 48.6045 12.9309 48.4286 12.9312 48.2496V22.7328C12.9309 22.5539 12.9777 22.378 13.067 22.2229C13.1564 22.0679 13.285 21.9391 13.44 21.8496L33.5328 10.272C33.6821 10.1676 33.858 10.1078 34.04 10.0996C34.222 10.0914 34.4025 10.1352 34.5606 10.2258C34.7186 10.3164 34.8476 10.4501 34.9325 10.6113C35.0174 10.7724 35.0547 10.9545 35.04 11.136V22.1856C35.0393 22.3571 34.9948 22.5256 34.9108 22.6751C34.8268 22.8246 34.7061 22.9502 34.56 23.04L24.5088 28.8V42.1824L35.8272 48.72L45.7248 42.96C45.8707 42.8758 46.0363 42.8314 46.2048 42.8314C46.3733 42.8314 46.5389 42.8758 46.6848 42.96L56.208 48.432C56.363 48.5215 56.4916 48.6503 56.581 48.8053C56.6703 48.9604 56.7171 49.1363 56.7168 49.3152C56.7216 49.4938 56.6766 49.6701 56.5867 49.8244C56.4968 49.9788 56.3657 50.105 56.208 50.1888L36.288 61.7088C36.1418 61.8035 35.9725 61.8566 35.7984 61.8624ZM14.88 47.5584L36.3168 59.9328L54.72 49.296L47.04 44.8704L36.8352 50.7648C36.6755 50.8548 36.4953 50.9021 36.312 50.9021C36.1287 50.9021 35.9485 50.8548 35.7888 50.7648L23.04 43.4112C22.8858 43.3233 22.7575 43.1962 22.6682 43.0428C22.5788 42.8894 22.5316 42.7152 22.5312 42.5376V28.2816C22.5264 28.1031 22.5714 27.9268 22.6613 27.7724C22.7512 27.6181 22.8823 27.4919 23.04 27.408L33.0912 21.648V12.8352L14.8512 23.3952L14.88 47.5584Z" fill="white"/>
<path d="M58.0224 47.04C57.8443 47.0377 57.6696 46.9915 57.5136 46.9056L48 41.4048C47.8423 41.321 47.7112 41.1948 47.6213 41.0404C47.5314 40.8861 47.4864 40.7098 47.4912 40.5312V28.9056L37.44 23.1072C37.2858 23.0193 37.1575 22.8922 37.0682 22.7388C36.9788 22.5854 36.9316 22.4111 36.9312 22.2336V11.184C36.9272 11.0081 36.9717 10.8344 37.0597 10.6821C37.1478 10.5297 37.276 10.4044 37.4304 10.32C37.5763 10.2358 37.7419 10.1914 37.9104 10.1914C38.0789 10.1914 38.2445 10.2358 38.3904 10.32L58.56 21.9072C58.7142 21.9951 58.8425 22.1222 58.9318 22.2756C59.0212 22.429 59.0684 22.6033 59.0688 22.7808V45.984C59.0691 46.163 59.0223 46.3389 58.933 46.4939C58.8436 46.649 58.715 46.7777 58.56 46.8672C58.3998 46.9726 58.214 47.0323 58.0224 47.04ZM49.44 39.888L57.12 44.304V23.424L38.88 12.864V21.6288L48.96 27.4656C49.1177 27.5495 49.2488 27.6757 49.3387 27.83C49.4286 27.9844 49.4736 28.1607 49.4688 28.3392L49.44 39.888Z" fill="white"/>
</g>
<defs>
<linearGradient id="paint0_linear_19422_11319" x1="-14.9117" y1="86.9088" x2="86.9117" y2="-14.9146" gradientUnits="userSpaceOnUse">
<stop stop-color="#C8511B"/>
<stop offset="1" stop-color="#FF9900"/>
</linearGradient>
<clipPath id="clip0_19422_11319">
<rect width="72" height="72" fill="white"/>
</clipPath>
</defs>
</svg>
