<svg xmlns="http://www.w3.org/2000/svg" width="72" height="72" fill="none" viewBox="0 0 72 72"><g clip-path="url(#a)"><mask id="b" width="17" height="22" x="29" y="24" maskUnits="userSpaceOnUse" style="mask-type:luminance"><path fill="#fff" d="M29.172 24.715h2.956v8.72l8.513-8.72h3.902l-9.34 9.607 9.93 11.085h-3.782L32.128 35.06v10.346h-2.956z"/></mask><g mask="url(#b)"><path fill="url(#c)" d="M29.172 24.715h2.956v8.72l8.513-8.72h3.902l-9.34 9.607 9.93 11.085h-3.782L32.128 35.06v10.346h-2.956z"/></g><mask id="d" width="30" height="51" x="38" y="0" maskUnits="userSpaceOnUse" style="mask-type:luminance"><path fill="#fff" d="m38.433 16.503 14.559 8.406a.8.8 0 0 1 .4.695v16.812c0 .286.155.551.403.695l12.992 7.501a.803.803 0 0 0 1.205-.695V17.175a.8.8 0 0 0-.4-.695L39.236.109a.804.804 0 0 0-1.206.696v15.003c0 .287.154.552.402.695"/></mask><g mask="url(#d)"><path fill="url(#e)" d="m38.433 16.503 14.559 8.406a.8.8 0 0 1 .4.695v16.812c0 .286.155.551.403.695l12.992 7.501a.803.803 0 0 0 1.205-.695V17.175a.8.8 0 0 0-.4-.695L39.236.109a.804.804 0 0 0-1.206.696v15.003c0 .287.154.552.402.695"/></g><mask id="f" width="62" height="73" x="4" y="-1" maskUnits="userSpaceOnUse" style="mask-type:luminance"><path fill="#fff" d="M50.96 46.629 36.4 55.035a.8.8 0 0 1-.802 0l-16.59-9.579a.8.8 0 0 1-.403-.696V25.602a.8.8 0 0 1 .402-.695l14.56-8.405a.8.8 0 0 0 .401-.695V.804a.804.804 0 0 0-1.205-.696L4.408 16.479a.8.8 0 0 0-.4.696V53.19c0 .287.153.551.4.696l31.19 18.006a.8.8 0 0 0 .803 0l28.354-16.37a.803.803 0 0 0 0-1.391l-12.992-7.502a.8.8 0 0 0-.803 0"/></mask><g mask="url(#f)"><path fill="url(#g)" d="M50.96 46.629 36.4 55.035a.8.8 0 0 1-.802 0l-16.59-9.579a.8.8 0 0 1-.403-.696V25.602a.8.8 0 0 1 .402-.695l14.56-8.405a.8.8 0 0 0 .401-.695V.804a.804.804 0 0 0-1.205-.696L4.408 16.479a.8.8 0 0 0-.4.696V53.19c0 .287.153.551.4.696l31.19 18.006a.8.8 0 0 0 .803 0l28.354-16.37a.803.803 0 0 0 0-1.391l-12.992-7.502a.8.8 0 0 0-.803 0"/></g></g><defs><linearGradient id="c" x1="42.814" x2="30.114" y1="44.875" y2="23.949" gradientUnits="userSpaceOnUse"><stop stop-color="#4f66b9"/><stop offset="1" stop-color="#484fab"/></linearGradient><linearGradient id="e" x1="71.16" x2="42.373" y1="47.82" y2="-1.747" gradientUnits="userSpaceOnUse"><stop stop-color="#4f66b9"/><stop offset="1" stop-color="#484fab"/></linearGradient><linearGradient id="g" x1="42.547" x2="11.158" y1="68.068" y2="12.651" gradientUnits="userSpaceOnUse"><stop stop-color="#4c68bb"/><stop offset="1" stop-color="#5180c9"/></linearGradient><clipPath id="a"><path fill="#fff" d="M0 0h72v72H0z"/></clipPath></defs></svg>