<svg xmlns="http://www.w3.org/2000/svg" width="72" height="72" fill="none" viewBox="0 0 72 72"><g clip-path="url(#a)"><path fill="#fff" d="M72 37.72a14.16 14.16 0 0 0-9.37-13.361c.25-1.276.376-2.572.377-3.871A20.334 20.334 0 0 0 26.18 8.582 10.8 10.8 0 0 0 9.441 20.885 14.36 14.36 0 0 0 0 34.302a14.18 14.18 0 0 0 9.416 13.391 21 21 0 0 0-.373 3.867 20.28 20.28 0 0 0 26.642 19.275 20.28 20.28 0 0 0 10.126-7.449 10.785 10.785 0 0 0 16.74-12.257 14.35 14.35 0 0 0 9.445-13.417"/><path fill="#fec514" d="m28.306 31.033 15.756 7.194L59.965 24.3a17.6 17.6 0 0 0 .338-3.49A17.767 17.767 0 0 0 27.88 10.766l-2.65 13.701z"/><path fill="#00bfb3" d="M11.998 47.718a18 18 0 0 0-.348 3.545A17.814 17.814 0 0 0 44.196 61.28l2.624-13.67-3.503-6.695-15.814-7.206z"/><path fill="#f04e98" d="m11.901 20.454 10.797 2.549 2.365-12.278a8.529 8.529 0 0 0-13.162 9.73"/><path fill="#1ba9f5" d="M10.965 23.023a12.03 12.03 0 0 0-8.182 11.3 11.9 11.9 0 0 0 7.68 11.135l15.149-13.692-2.783-5.943z"/><path fill="#93c90e" d="M46.967 61.281a8.518 8.518 0 0 0 13.289-4.339 8.5 8.5 0 0 0-.153-5.37l-10.788-2.51z"/><path fill="#07c" d="m49.159 46.22 11.877 2.774a12.01 12.01 0 0 0 8.18-11.299 11.89 11.89 0 0 0-7.674-11.106l-15.534 13.6z"/></g><defs><clipPath id="a"><path fill="#fff" d="M0 0h72v72H0z"/></clipPath></defs></svg>