<svg xmlns="http://www.w3.org/2000/svg" width="18" height="18" data-name="Layer 1" viewBox="0 0 18 18"><path fill="#225086" d="M3.802 14.032c.388.242 1.033.511 1.715.511.621 0 1.198-.18 1.676-.487l.002-.001L9 12.927V17a1.56 1.56 0 0 1-.824-.234z"/><path fill="#6df" d="m7.853 1.507-7.5 8.46c-.579.654-.428 1.642.323 2.111l3.126 1.954c.388.242 1.033.511 1.715.511.621 0 1.198-.18 1.676-.487l.002-.001L9 12.927l-4.364-2.728 4.365-4.924V1c-.424 0-.847.169-1.147.507Z"/><path fill="#cbf8ff" d="m4.636 10.199.052.032L9 12.927h.001V5.276L9 5.275z"/><path fill="#074793" d="M17.324 12.078c.751-.469.902-1.457.323-2.111l-4.921-5.551a3.1 3.1 0 0 0-1.313-.291c-.925 0-1.752.399-2.302 1.026l-.109.123 4.364 4.924-4.365 2.728v4.073c.287 0 .573-.078.823-.234l7.5-4.688Z"/><path fill="#0294e4" d="M9.001 1v4.275l.109-.123a3.05 3.05 0 0 1 2.302-1.026c.472 0 .916.107 1.313.291l-2.579-2.909A1.52 1.52 0 0 0 9 1.001Z"/><path fill="#96bcc2" d="M13.365 10.199 9.001 5.276v7.65z"/></svg>