<svg xmlns="http://www.w3.org/2000/svg" width="72" height="72" fill="none" viewBox="0 0 72 72"><g clip-path="url(#a)"><path fill="#f05537" fill-rule="evenodd" d="M31.629 17.394c7.96-1.803 15.902 1.462 20.323 7.635l-35.174 7.96c1.211-7.446 6.89-13.793 14.85-15.595m20.52 29.282a19.4 19.4 0 0 1-11.76 7.919c-8.007 1.811-16.003-1.507-20.408-7.76l35.286-7.983 5.747-1.3L72 35.063a35 35 0 0 0-.916-7.005C66.614 9.07 47.283-2.77 27.914 1.612 8.537 5.997-3.543 24.946.931 43.934 5.405 62.92 24.732 74.758 44.104 70.376 55.52 67.794 64.4 60.153 68.854 50.431L52.146 46.68z" clip-rule="evenodd"/></g><defs><clipPath id="a"><path fill="#fff" d="M0 0h72v72H0z"/></clipPath></defs></svg>