<svg xmlns="http://www.w3.org/2000/svg" width="72" height="72" fill="none" viewBox="0 0 72 72"><g clip-path="url(#a)"><path fill="#6965db" d="M71.84 59.346a.49.49 0 0 0-.477-.108c-3.763-5.56-8.55-10.832-13.186-15.925l-.763-.836a.44.44 0 0 0-.108-.27.5.5 0 0 0-.305-.179l-.153-.161-.108-.081c-.135-.288-.476-.503-.853-.315-1.42.728-2.695 1.77-3.952 2.73-1.68 1.285-3.324 2.624-4.869 4.06-.629.585-1.248 1.195-1.77 1.878-.25.332-.062.647.243.781a147 147 0 0 0-3.305 3.36.54.54 0 0 0-.144.395c.01.144.081.279.198.368l1.94 1.482s.009.027.027.036c2.775 2.74 7.644 6.54 12.8 10.563q1.146.903 2.308 1.806c.35.422.682.844 1.006 1.257.17.225.494.27.718.1.117.089.234.188.35.277a.51.51 0 0 0 .72-.09.5.5 0 0 0 .098-.278c.036 0 .063.027.09.027a.52.52 0 0 0 .377-.162l9.144-9.988a.504.504 0 0 0-.036-.718zm-26.256-3.458q.095.118.189.224c1.042.88 2.156 1.833 3.287 2.803l-4.599-3.512-.467-.324q-.145-.108-.278-.215l-.341-.288s.063-.063.09-.099l.314-.314c1.545-1.563 4.194-4.168 5.56-5.443-1.446 1.455-4.374 5.721-3.746 7.168zM61.33 68.292 57.54 65.4a94 94 0 0 0-4.707-4.518c2.048 1.58 3.8 2.919 4.06 3.152 1.985 1.77 1.895 1.447 3.26 2.614l1.644 1.195c-.162.144-.323.296-.476.44zm.952.728-.072-.054c.144-.117.297-.225.44-.342l-.359.396zM2.164 10.366c.126.647.243 1.284.36 1.895.62 3.324 1.194 6.315 2.29 8.587l.431 1.725c.17.655.413 1.473.638 1.643 2.56 2.264 6.485 5.641 10.68 8.821a.51.51 0 0 0 .629-.009c.009.018.026.027.035.036q.152.135.342.135a.48.48 0 0 0 .377-.171c5.371-5.973 9.368-10.886 12.216-15 .18-.225.27-.485.26-.755.18-.215.369-.43.54-.61a.503.503 0 0 0-.09-.773.52.52 0 0 0-.153-.323 244 244 0 0 0-3.108-2.947c-1.653-1.544-3.36-3.143-6.98-6.745-.017-.018-.044-.036-.062-.054a.5.5 0 0 0-.198-.126c-.997-.35-3.045-.7-5.623-1.15-3.79-.646-8.982-1.544-13.652-2.937H1.06V1.6s-.018 0-.027.018h-.01L1.06 1.6s-.279.01-.333.036a.5.5 0 0 0-.17.135c-.045.054-.081.108-.423.18-.34.072.072 0 .1 0h-.1v.027c.063.305.045.52.144.87-.018.09.189.917.216.998l1.643 6.521zm27.8 5.874s-.027.036-.036.045l-.575-.637c.198.188.396.377.611.592m-6.368 8.435s-.063.071-.09.107l-.018-.018c.036-.026.072-.062.117-.09zM19.958 6.62c.315.315 1.563 1.482 1.85 1.77-1.302-.593-4.545-2.102-6.054-2.587 1.483.26 3.53.593 4.204.817M2.73 4.132c.755 1.294 1.348 5.83 1.94 10.24-.332-1.42-.62-2.802-.889-4.132-.467-2.3-.898-4.356-1.5-6.18.126.01.279.027.44.045 0 .01 0 .018.018.027zm-.26-1.087c-.207-.017-.395-.035-.557-.044a.5.5 0 0 1-.036-.108l.593.161zm68.552-.655c.036-.207-.988-1.114-.665-1.132.764-.036.773-1.213 0-1.177-1.015.054-2.039.288-3.027.476-1.778.333-3.548.701-5.317 1.087-3.943.845-7.878 1.734-11.767 2.794-1.222.332-2.569.628-3.692 1.221-.377.198-.359.602-.152.854a.6.6 0 0 1-.252.08c-.332.063-.665.117-.997.171a.508.508 0 0 0-.35.773c-2.084 2.784-4.455 5.784-7.024 8.937a903 903 0 0 0-7.833 9.108C21.494 35.516 11.91 46.78 1.293 56.696a.51.51 0 0 0-.027.719c.045.053.108.09.17.116-.143.135-.287.27-.43.396a.47.47 0 0 0-.144.287 5 5 0 0 0-.207.225.51.51 0 0 0 .027.718.51.51 0 0 0 .719-.027c.036-.036.072-.08.108-.117a.755.755 0 0 1 1.096 0c.62.665 1.203 1.294 1.751 1.878l-1.24-1.033a.51.51 0 0 0-.718.063.51.51 0 0 0 .063.718l13.311 11.165c.1.08.216.117.333.117.134 0 .26-.054.359-.153l.323-.323a.5.5 0 0 0 .566-.108C35.398 53.211 49.932 39.513 66.576 27.27a.5.5 0 0 0 .206-.458.51.51 0 0 0 .431-.35c3.072-9.395 3.665-17.713 3.845-21.8a.13.13 0 0 1 .018-.063c.018-.045.027-.09.036-.125l.044-.171c.234-.7.153-1.374-.134-1.931zM38.758 17.094a268 268 0 0 1 2.398-2.713c-5.174 6.808-13.743 17.3-25.878 29.767 8.264-9.144 16.59-18.62 23.48-27.054M9.52 64.529l-.027-.027c.099.017.17.035.18.035a.4.4 0 0 0-.153 0zm6.198 5.766-.045-.036.027-.027c.018 0 .026.018.035.018 0 .018-.018.027-.027.045zm7.509-6.476 1.24-1.294a.2.2 0 0 1 .026.045c-.422.414-.844.836-1.275 1.249zm2.012-1.985c.233-.27.503-.584.781-.916.009-.01.018-.027.036-.036 2.955-3.045 6-6.126 9.144-9.207.018-.018.045-.036.063-.054.772-.593 1.634-1.248 2.443-1.868a1326 1326 0 0 0-12.467 12.09zM44.686 11.64c-1.67 2.174-3.503 4.995-5.057 7.25-4.904 7.104-20.695 24.502-21.045 24.835A2064 2064 0 0 1 4.13 57.53a3 3 0 0 0-.305.315.713.713 0 0 1 .027-1.015C26.146 35.811 39.673 18.305 45.17 10.68c-.117.296-.215.62-.494.978zm14.83 6.378-.01.018c0-.018-.017-.063.01-.018m-6.108 3.88c-2.03-1.177-2.982-2.937-2.434-4.716l.17-.592c.072-.171.153-.342.252-.512.53-.88 1.338-1.662 2.263-2.12a1 1 0 0 1 .135-.036.7.7 0 0 1-.036-.386c.045-.279.225-.521.593-.521.602 0 2.47.557 3.18 1.167.215.171.422.36.61.566.27.315.665.827.863 1.195.116.054.206.557.34.817.127.413.18.836.163 1.258 0 .018 0 .018.009.027-.027.063 0 .332-.036.359a4.7 4.7 0 0 1-.674 1.841c-.036.045-.063.1-.099.144 0 .01-.018.018-.027.036-.27.386-.584.746-.97 1.015-1.132.8-2.452 1.042-3.772.71a6 6 0 0 1-.512-.225zm14.614-1.464a76 76 0 0 1-1.617 5.73c-.027.073-.027.144-.027.207a.5.5 0 0 0-.243.099 272 272 0 0 0-11.658 9.081 640 640 0 0 1 10.087-8.937 5.76 5.76 0 0 0 1.895-3.36l.503-3.027.027-.09c.224-.637 1.203-.359 1.05.297z"/></g><defs><clipPath id="a"><path fill="#fff" d="M0 0h72v72H0z"/></clipPath></defs></svg>