<svg width="72" height="72" viewBox="0 0 72 72" fill="none" xmlns="http://www.w3.org/2000/svg">
<path d="M36 36C36 32.8174 37.2643 29.7652 39.5147 27.5147C41.7652 25.2643 44.8174 24 48 24C51.1826 24 54.2348 25.2643 56.4853 27.5147C58.7357 29.7652 60 32.8174 60 36C60 39.1826 58.7357 42.2348 56.4853 44.4853C54.2348 46.7357 51.1826 48 48 48C44.8174 48 41.7652 46.7357 39.5147 44.4853C37.2643 42.2348 36 39.1826 36 36Z" fill="#1ABCFE"/>
<path d="M12 60C12 56.8174 13.2643 53.7652 15.5147 51.5147C17.7652 49.2643 20.8174 48 24 48H36V60C36 63.1826 34.7357 66.2348 32.4853 68.4853C30.2348 70.7357 27.1826 72 24 72C20.8174 72 17.7652 70.7357 15.5147 68.4853C13.2643 66.2348 12 63.1826 12 60Z" fill="#0ACF83"/>
<path d="M36 0V24H48C51.1826 24 54.2348 22.7357 56.4853 20.4853C58.7357 18.2348 60 15.1826 60 12C60 8.8174 58.7357 5.76515 56.4853 3.51472C54.2348 1.26428 51.1826 0 48 0L36 0Z" fill="#FF7262"/>
<path d="M12 12C12 15.1826 13.2643 18.2348 15.5147 20.4853C17.7652 22.7357 20.8174 24 24 24H36V0H24C20.8174 0 17.7652 1.26428 15.5147 3.51472C13.2643 5.76515 12 8.8174 12 12Z" fill="#F24E1E"/>
<path d="M12 36C12 39.1826 13.2643 42.2348 15.5147 44.4853C17.7652 46.7357 20.8174 48 24 48H36V24H24C20.8174 24 17.7652 25.2643 15.5147 27.5147C13.2643 29.7652 12 32.8174 12 36Z" fill="#A259FF"/>
</svg>
