<svg width="72" height="72" viewBox="0 0 72 72" fill="none" xmlns="http://www.w3.org/2000/svg">
<g clip-path="url(#clip0_15940_7353)">
<path d="M12.8989 13.5005C14.9501 12.2053 16.3125 9.91822 16.3125 7.31299C16.3125 3.27442 13.0386 0.000488281 9 0.000488281C4.96143 0.000488281 1.6875 3.27442 1.6875 7.31299C1.6875 9.65447 2.78802 11.7389 4.5 13.0773V72.0005H13.5V63.0005H66.038C68.0882 63.0005 69.75 61.3386 69.75 59.2884C69.75 58.7687 69.6411 58.2552 69.43 57.7805L60.75 38.2505L69.43 18.7204C69.6411 18.2457 69.75 17.7321 69.75 17.2127C69.75 15.1625 68.0882 13.5005 66.038 13.5005H12.8989Z" fill="#538DD7"/>
</g>
<defs>
<clipPath id="clip0_15940_7353">
<rect width="72" height="72" fill="white" transform="translate(0 0.000488281)"/>
</clipPath>
</defs>
</svg>
