<svg xmlns="http://www.w3.org/2000/svg" width="72" height="72" fill="none" viewBox="0 0 72 72"><g clip-path="url(#a)"><path fill="#4a89af" d="M70.11 15.15c-.196-.148-.443-.246-.64-.197-4.185.64-9.996 3.496-9.996 3.496.099-.049.148-.049.197-.098 0 0-.59.345-.936.542-2.954 1.772-4.825 3.25-6.795 5.022-5.121 4.679-9.8 9.8-14.38 15.02a2.18 2.18 0 0 1-1.624.738 2.18 2.18 0 0 1-1.625-.738c-4.58-5.22-9.258-10.39-14.38-15.02-1.97-1.822-3.89-3.299-6.795-5.022-.345-.197-.936-.542-.936-.542.099.05.148.05.197.098 0 0-5.81-2.856-9.996-3.496-.246-.05-.443.05-.64.197.295-.345.59-.59.985-.739 4.284-1.674 6.5-2.412 10.98-3.594 3.448-.887 7.043-.985 10.44-.099 1.773.443 3.447 1.133 4.53 2.068 1.97 1.675 4.137 3.694 5.96 5.614.393.394.837.542 1.329.542a1.56 1.56 0 0 0 1.33-.542c1.822-1.871 3.988-3.94 5.958-5.614 1.083-.935 2.807-1.625 4.53-2.068 3.398-.886 6.993-.788 10.44.099 4.53 1.132 6.697 1.87 10.981 3.594.394.148.739.444.887.74"/><path fill="#4a89af" d="M71.932 29.43v.1c-.099 4.48-.936 8.321-3.447 10.833-6.648 6.648-13.197 13.443-19.697 20.239-2.709 2.807-7.83.345-7.88-4.087 0-1.527-.049-2.955-.049-4.186-.049-2.56.837-5.023 2.364-6.796 4.53-5.22 9.258-10.291 14.38-14.97.738-.64 1.082-.935 1.821-1.575.443-.444.837-.739 1.084-.936.098-.05.147-.099.197-.148.049 0 .049-.049.098-.049.788-.69.985-1.724.985-2.364.05-.59 0-1.822-.788-3.053-.099-.147-.148-.295-.246-.394-.099-.098-.148-.246-.246-.344-.05-.148-.148-.247-.198-.345-.246-.394-.443-.739-.689-1.084-.05-.098-.148-.196-.197-.295-.197-.345-.394-.69-.64-1.083.295-.148.542-.296.788-.444 3.496-1.97 5.81-2.856 9.996-3.496.246-.049.444.05.64.197q.296.345.444.887v.049c.394 1.379.64 2.807.837 4.235.049.246.049.443.098.69.05.295.05.54.099.787.295 2.56.394 5.17.246 7.633M28.746 45.632c1.526 1.724 2.413 4.186 2.364 6.796 0 1.181-.05 2.659-.05 4.185-.049 4.432-5.17 6.894-7.879 4.087-6.5-6.795-13.05-13.59-19.697-20.239C1.022 37.95.184 34.11.037 29.628v-.099c-.099-2.511 0-5.12.295-7.682.05-.295.05-.541.099-.788.05-.246.05-.443.098-.689.197-1.428.444-2.856.838-4.235v-.05a2.25 2.25 0 0 1 .443-.886c.197-.147.443-.246.64-.196 4.186.64 6.5 1.526 9.996 3.496.296.148.542.295.788.443-.246.443-.443.739-.64 1.083-.05.099-.148.197-.197.296-.246.345-.443.69-.69 1.083-.049.099-.147.246-.196.345-.099.098-.148.197-.247.345-.098.147-.147.246-.246.394-.788 1.23-.788 2.462-.788 3.053.05.64.197 1.674.985 2.363.05 0 .05.05.099.05.098.049.147.098.197.147.246.197.59.542 1.083.936.739.59 1.083.936 1.822 1.576 5.121 4.678 9.849 9.75 14.33 15.019"/><path fill="url(#b)" d="M71.49 20.32c-3.744 2.169-7.29 4.68-10.737 7.536.788-.69.985-1.724.985-2.364.05-.59 0-1.822-.788-3.053-.098-.147-.147-.295-.246-.394-.098-.098-.148-.246-.246-.344-.05-.148-.148-.247-.197-.345-.246-.394-.443-.739-.69-1.084-.049-.098-.147-.196-.197-.295-.197-.345-.393-.69-.64-1.083a11 11 0 0 0 .788-.444c3.496-1.97 5.811-2.856 9.997-3.496.246-.049.443.05.64.197.246.296.394.591.492.936a25 25 0 0 1 .837 4.235" opacity=".3"/><path fill="url(#c)" d="M1.366 16.086c.099-.345.247-.64.493-.936.197-.148.394-.246.64-.197 4.186.64 6.5 1.527 9.996 3.497.247.147.493.295.788.443-.246.394-.443.738-.64 1.083-.05.099-.148.197-.197.296-.246.344-.443.689-.69 1.083-.048.098-.147.197-.196.345a1.5 1.5 0 0 1-.246.344c-.099.099-.148.247-.247.394a5.03 5.03 0 0 0-.787 3.053c0 .64.197 1.675.984 2.364C7.817 24.999 4.272 22.488.53 20.321c.197-1.428.443-2.856.837-4.235" opacity=".3"/></g><defs><linearGradient id="b" x1="66.811" x2="63.266" y1="23.423" y2="18.203" gradientUnits="userSpaceOnUse"><stop stop-opacity="0"/><stop offset="1"/></linearGradient><linearGradient id="c" x1="5.601" x2="8.999" y1="23.078" y2="17.514" gradientUnits="userSpaceOnUse"><stop stop-opacity="0"/><stop offset="1"/></linearGradient><clipPath id="a"><path fill="#fff" d="M0 0h72v72H0z"/></clipPath></defs></svg>