<svg xmlns="http://www.w3.org/2000/svg" width="72" height="72" fill="none" viewBox="0 0 72 72"><g clip-path="url(#a)"><path fill="#06132d" d="M.52 27.764a5.865 5.865 0 0 1 2.936-7.757L42.221 2.53a5.865 5.865 0 0 1 7.757 2.936l17.477 38.765a5.865 5.865 0 0 1-2.937 7.758L25.754 69.465a5.865 5.865 0 0 1-7.758-2.936z"/><path fill="#53b18a" d="M.52 27.766a5.84 5.84 0 0 1-.489-3.011l8.012-1.644c-.36-1.18-.608-2.406-.608-3.465q0-.746.082-1.469C8.21 12.05 13.181 7.295 19.211 7.295c2.635 0 5.068.908 7.03 2.441q.667.521 1.256 1.134c1.552 1.561 4.354 1.561 12.503 1.561 5.684 0 10.884 1.96 15.166 5.199q.258.198.488.428c.25.247.481.516.712.784q.135.158.271.313c2.321 2.636 8.124 5.167 13.948 5.736v7.331c-.887 4.036-2.562 6.595-4.594 8.764-1.023 1.093-2.225 2.087-3.638 3.12-.871.553-1.924.73-2.944.576-3.808-.57-6.816-.73-8.771-.73-16.92 0-29.28 9.37-30.199 25.265a5.84 5.84 0 0 1-2.443-2.686z"/><mask id="b" width="68" height="68" x="0" y="2" maskUnits="userSpaceOnUse" style="mask-type:alpha"><path fill="#031e3d" d="M.52 27.765a5.865 5.865 0 0 1 2.936-7.757L42.221 2.53a5.865 5.865 0 0 1 7.757 2.937l17.477 38.765a5.865 5.865 0 0 1-2.936 7.757L25.754 69.466a5.865 5.865 0 0 1-7.758-2.936z"/></mask><g mask="url(#b)"><path fill="#66c0ee" d="m10.74 50.43 9.645 21.39v-.68c0-16.822 12.312-26.905 29.524-27.181-14.784.133-28.363 2.53-39.17 6.471"/><path fill="#1f60e0" d="M49.155 43.978c-14.639.346-27.677 4.39-36.545 10.601l7.776 17.242-.002-.68c0-16.576 11.955-26.608 28.77-27.164"/><path fill="#4321b1" d="M43.854 44.49c-12.54 1.857-22.938 8.377-28.065 17.138l4.596 10.192v-.68c0-14.774 9.496-24.35 23.469-26.65"/></g><path fill="#4321b1" d="M7.604 23.206c5.491-.843 12.794-1.43 20.995-1.631-2.508-1.628-3.314-4.41-4.096-7.112-.914-3.158-1.796-6.206-5.33-7.168-6.901-.137-11.821 5.43-11.821 13.2 0 .896.088 1.813.252 2.711m63.011 9.016s1.876-.363 1.262-5.946c-.092-.834-.613-1.49-1.262-1.588a5.5 5.5 0 0 0-.798-.073c-1.337 0-1.9.123-2.659.865l-2.05 1.997a.46.46 0 0 0 .018.674c2.537 2.226 4.765 4.07 5.489 4.07"/><path fill="#fff" fill-rule="evenodd" d="M51.472 25.022c1.136-.056 2.027-.873 2.067-1.858l-.002.001c.046-1.14-1.048-2.022-2.34-1.96-1.073.053-1.196.072-4.59.884-.207.05-.263.285-.096.4 3.765 2.59 3.824 2.588 4.96 2.533" clip-rule="evenodd"/></g><defs><clipPath id="a"><path fill="#fff" d="M0 0h72v72H0z"/></clipPath></defs></svg>