<svg xmlns="http://www.w3.org/2000/svg" width="72" height="72" fill="none" viewBox="0 0 72 72"><g clip-path="url(#a)"><path fill="#000" d="M8.116 72c-2.939 0-4.885-3.066-3.822-5.798a83.2 83.2 0 0 0 5.641-30.201c0-10.652-1.999-20.836-5.641-30.202C3.23 3.067 5.177 0 8.116 0c1.6 0 3.05.95 3.638 2.432A91.3 91.3 0 0 1 18.112 36a91.3 91.3 0 0 1-6.358 33.568A3.9 3.9 0 0 1 8.116 72m19.601-8.153c-2.69 0-4.629-2.572-4.021-5.188a100 100 0 0 0 2.59-22.658 100 100 0 0 0-2.59-22.66c-.608-2.615 1.332-5.188 4.023-5.188 1.832 0 3.441 1.224 3.863 3.003a108 108 0 0 1 2.88 24.845c0 8.55-.998 16.867-2.88 24.844a3.94 3.94 0 0 1-3.863 3.005m18.528-12.228c-2.465 0-4.358-2.164-4.128-4.608.691-7.326.691-14.701 0-22.027-.23-2.444 1.663-4.608 4.126-4.608 2.054 0 3.79 1.522 3.987 3.557.775 8.024.775 16.105 0 24.129-.197 2.037-1.935 3.557-3.987 3.557m16.712-20.83 2.336 2.328a4.065 4.065 0 0 1 0 5.76l-2.336 2.33c-1.715 1.713-4.653.5-4.653-1.92v-6.58c0-2.419 2.935-3.632 4.653-1.921"/></g><defs><clipPath id="a"><path fill="#fff" d="M0 0h72v72H0z"/></clipPath></defs></svg>