<svg xmlns="http://www.w3.org/2000/svg" width="72" height="72" fill="none" viewBox="0 0 72 72"><path fill="#ff5b3a" d="M59.447 0c.916 0 1.658.742 1.658 1.658v12.079c0 .915-.742 1.658-1.658 1.658H26.29v13.381h26.526c.915 0 1.658.743 1.658 1.658v12.08c0 .915-.743 1.657-1.658 1.657H26.289v26.171c0 .916-.742 1.658-1.657 1.658h-12.08a1.66 1.66 0 0 1-1.657-1.658V15.395L26.29 0z"/><path fill="#dc4e33" d="M26.29 0h5.921v15.395H26.29z"/><path fill="#f1492d" d="M32.21 7.105h28.895v1.422H32.211z"/><path fill="#d94027" d="M26.29 7.105h5.92v1.422h-5.92z"/></svg>