<svg xmlns="http://www.w3.org/2000/svg" width="72" height="72" fill="none" viewBox="0 0 72 72"><g clip-path="url(#a)"><path fill="#ff492c" d="M36 72c19.882 0 36-16.117 36-36S55.882 0 36 0 0 16.118 0 36s16.118 36 36 36"/><path fill="#fff" d="M24.61 36c0 6.48 5.277 11.758 11.757 11.758a11.72 11.72 0 0 0 7.661-2.851l4.45 7.718a20.44 20.44 0 0 1-12.11 3.946c-11.362 0-20.571-9.209-20.571-20.57s9.209-20.57 20.57-20.57c1.352-.001 2.7.132 4.025.395l-4.025 8.417c-6.48 0-11.757 5.278-11.757 11.758"/><path fill="#fff" d="M45.433 27.576h6.148v2.55H42.28v-.433c0-1.577.31-2.88.943-3.917.634-1.036 1.728-1.95 3.305-2.75l.727-.353c1.282-.648 1.613-1.202 1.613-1.872 0-.799-.684-1.375-1.8-1.375-1.318 0-2.318.684-3.01 2.08l-1.778-1.785c.389-.835 1.015-1.505 1.857-2.023a5.1 5.1 0 0 1 2.801-.8c1.282 0 2.376.34 3.305 1.023.929.684 1.397 1.635 1.397 2.837 0 1.915-1.08 3.089-3.103 4.126l-1.13.576c-1.21.612-1.808 1.152-1.974 2.116m-4.853 5.487h10.18l5.09 8.813-5.09 8.82-5.09-8.82H35.49z"/></g><defs><clipPath id="a"><path fill="#fff" d="M0 0h72v72H0z"/></clipPath></defs></svg>