<svg xmlns="http://www.w3.org/2000/svg" width="72" height="72" fill="none" viewBox="0 0 72 72"><path fill="#8d2df2" d="M36.222 3.13c3.406 0 6.558 1.806 8.202 4.696l16.541 28.142.191.345c2.323 4.43.617 9.898-3.86 12.296a9.54 9.54 0 0 1-7.109.773 9.3 9.3 0 0 1-5.597-4.326l-8.3-13.868L17.587 64.13a9.44 9.44 0 0 1-7.877 4.73l-.353.01a9.52 9.52 0 0 1-5.748-1.92c-3.678-2.76-4.68-7.892-2.379-11.946L27.992 7.866a9.45 9.45 0 0 1 8.23-4.736m26.812 47.808A8.97 8.97 0 0 1 72 59.903a8.97 8.97 0 0 1-8.966 8.966 8.97 8.97 0 0 1-8.965-8.965 8.97 8.97 0 0 1 8.965-8.966M36.222 8.765c-1.396 0-2.67.73-3.328 1.881L6.13 57.787c-.914 1.613-.523 3.616.861 4.655a3.9 3.9 0 0 0 2.367.792c1.399 0 2.673-.732 3.327-1.884l21.093-37.146a2.818 2.818 0 0 1 4.868-.056l10.81 18.072a3.72 3.72 0 0 0 2.257 1.737c.989.282 2.022.17 2.923-.313 1.797-.964 2.439-3.121 1.494-4.79L39.547 10.65a3.81 3.81 0 0 0-3.325-1.884m26.812 47.808a3.337 3.337 0 0 0-3.33 3.33 3.337 3.337 0 0 0 3.33 3.331 3.337 3.337 0 0 0 3.331-3.33 3.337 3.337 0 0 0-3.33-3.331"/></svg>