<svg xmlns="http://www.w3.org/2000/svg" width="72" height="71" fill="none" viewBox="0 0 72 71"><g clip-path="url(#a)"><path fill="#fff" d="M36 0c19.89 0 36 16.11 36 36a36.06 36.06 0 0 1-24.525 34.155c-1.8.36-2.475-.765-2.475-1.71 0-1.215.045-5.085.045-9.9 0-3.375-1.125-5.535-2.43-6.66 8.01-.9 16.425-3.96 16.425-17.775 0-3.96-1.395-7.155-3.69-9.675.36-.9 1.62-4.59-.36-9.54 0 0-3.015-.99-9.9 3.69-2.88-.81-5.94-1.215-9-1.215s-6.12.405-9 1.215c-6.885-4.635-9.9-3.69-9.9-3.69-1.98 4.95-.72 8.64-.36 9.54-2.295 2.52-3.69 5.76-3.69 9.675 0 13.77 8.37 16.875 16.38 17.775-1.035.9-1.98 2.475-2.295 4.815-2.07.945-7.245 2.475-10.485-2.97-.675-1.08-2.7-3.735-5.535-3.69-3.015.045-1.215 1.71.045 2.385 1.53.855 3.285 4.05 3.69 5.085.72 2.025 3.06 5.895 12.105 4.23 0 3.015.045 5.85.045 6.705 0 .945-.675 2.025-2.475 1.71A35.98 35.98 0 0 1 0 36C0 16.11 16.11 0 36 0"/></g><defs><clipPath id="a"><path fill="#fff" d="M0 0h72v70.224H0z"/></clipPath></defs></svg>