<svg xmlns="http://www.w3.org/2000/svg" width="72" height="72" fill="none" viewBox="0 0 72 72"><path fill="#e24329" d="m70.802 28.572-.102-.259-9.8-25.575a2.55 2.55 0 0 0-1.008-1.215 2.62 2.62 0 0 0-3 .162c-.418.34-.721.8-.869 1.32l-6.617 20.244H22.613L15.996 3.004a2.57 2.57 0 0 0-.87-1.323 2.62 2.62 0 0 0-3-.161 2.6 2.6 0 0 0-1.008 1.214L1.3 28.3l-.098.258A18.2 18.2 0 0 0 7.238 49.59l.034.026.09.064L22.29 60.86l7.386 5.589 4.498 3.396a3.025 3.025 0 0 0 3.66 0l4.498-3.396 7.385-5.59 15.019-11.247.037-.03a18.205 18.205 0 0 0 6.029-21.009"/><path fill="#fc6d26" d="m70.802 28.572-.102-.258a33.1 33.1 0 0 0-13.177 5.923L36 50.51c7.33 5.545 13.71 10.362 13.71 10.362l15.018-11.247.038-.03A18.205 18.205 0 0 0 70.8 28.572"/><path fill="#fca326" d="m22.29 60.873 7.386 5.59 4.498 3.397a3.026 3.026 0 0 0 3.66 0l4.498-3.397 7.385-5.59S43.33 56.041 36 50.511c-7.33 5.53-13.71 10.362-13.71 10.362"/><path fill="#fc6d26" d="M14.474 34.237A33.1 33.1 0 0 0 1.3 28.298l-.098.259a18.2 18.2 0 0 0 6.036 21.032l.034.026.09.064L22.29 60.858 36 50.496z"/></svg>