<svg xmlns="http://www.w3.org/2000/svg" width="72" height="72" fill="none" viewBox="0 0 72 72"><g clip-path="url(#a)"><path fill="#4285f4" d="M4.91 63h11.454V35.189L0 22.919v35.173C0 60.808 2.2 63 4.91 63"/><path fill="#34a853" d="M55.637 63H67.09c2.717 0 4.91-2.2 4.91-4.908V22.92L55.636 35.19"/><path fill="#fbbc04" d="M55.637 13.922v21.267L72 22.919v-6.543c0-6.07-6.93-9.53-11.782-5.89"/><path fill="#ea4335" d="M16.363 35.189V13.92L36 28.645 55.636 13.92v21.27L36 49.912"/><path fill="#c5221f" d="M0 16.376v6.543l16.364 12.27V13.922l-4.582-3.436C6.922 6.846 0 10.306 0 16.376"/></g><defs><clipPath id="a"><path fill="#fff" d="M0 0h72v72H0z"/></clipPath></defs></svg>