<svg xmlns="http://www.w3.org/2000/svg" width="72" height="72" fill="none" viewBox="0 0 72 72"><g clip-path="url(#a)"><path fill="#114954" d="M52.357 42.895H72v-4.257h-7.39V22.469c0-2.682-1.754-4.469-4.44-4.469v4.212h-7.732v4.258h3.632c2.047 0 3.546-1.026 4.1-2.642v14.805h-7.813zm-11.362-3.997H35.91a4.44 4.44 0 0 1-4.482-4.423V30.65c0-2.425 1.966-4.423 4.486-4.423H41a4.45 4.45 0 0 1 4.523 4.418v3.83a4.456 4.456 0 0 1-4.527 4.423M26.82 32.55c0 6.43 4.698 10.769 11.191 10.769h.9c6.49 0 11.228-4.338 11.228-10.769 0-6.43-4.748-10.76-11.241-10.76h-.896c-6.484 0-11.182 4.339-11.182 10.76M15.97 55.32H8.158c-2.097 0-3.59-1.278-3.59-3.029v-.341c0-1.787 1.493-3.105 3.59-3.105h7.817c2.092 0 3.627 1.318 3.627 3.105v.342c0 1.75-1.53 3.024-3.627 3.024zm-1.453-17.955H9.522c-2.43 0-4.401-1.831-4.401-4.212V30.51a4.32 4.32 0 0 1 4.4-4.302h4.996c2.434 0 4.4 1.873 4.4 4.303v2.592c0 2.43-1.966 4.256-4.396 4.256zm9.688 14.634c0-4.64-3.204-7.362-9.86-7.362h-8.37c-1.03 0-1.664-.644-1.664-1.449 0-.855.643-1.485 1.665-1.485h6.322c6.534 0 11.232-4.131 11.232-10.17v-9.405c-1.836 0-3.42 1.148-4.104 2.727-1.705-1.921-4.315-3.064-7.64-3.064h-.69c-5.89 0-10.588 3.996-10.588 9.913 0 3.024 1.242 5.314 3.285 6.854-2.173.63-3.717 2.38-3.717 4.634 0 2.084 1.283 3.744 3.209 4.469-2.048 1.143-3.29 2.934-3.29 5.364 0 4.086 4.014 6.718 11.871 6.718h.473c7.857 0 11.866-2.767 11.866-7.744"/></g><defs><clipPath id="a"><path fill="#fff" d="M0 0h72v72H0z"/></clipPath></defs></svg>