<svg xmlns="http://www.w3.org/2000/svg" width="72" height="72" fill="none" viewBox="0 0 72 72"><g fill="#ff4c00" fill-rule="evenodd" clip-path="url(#a)" clip-rule="evenodd"><path d="M51.503 36C51.503 18.6 37.4 4.498 20 4.498V0c19.883 0 36 16.117 36 36 0 19.884-16.117 36-36 36v-4.496C37.4 67.504 51.503 53.4 51.503 36"/><path d="M38.001 36c0-9.941-8.06-18-18.001-18v-4.498c12.425 0 22.498 10.073 22.498 22.498S32.426 58.502 20 58.502v-4.497c9.941 0 18.001-8.062 18.001-18.005"/></g><defs><clipPath id="a"><path fill="#fff" d="M0 0h72v72H0z"/></clipPath></defs></svg>