<svg width="72" height="72" viewBox="0 0 72 72" fill="none" xmlns="http://www.w3.org/2000/svg">
<g clip-path="url(#clip0_15941_7453)">
<path fill-rule="evenodd" clip-rule="evenodd" d="M51.5031 36.0005C51.5031 18.6008 37.3997 4.4974 20 4.4974V0.000488281C39.8833 0.000488281 56 16.1172 56 36.0005C56 55.8838 39.8833 72.0005 20 72.0005V67.5036C37.3997 67.5036 51.5031 53.4001 51.5031 36.0005Z" fill="#FF4C00"/>
<path fill-rule="evenodd" clip-rule="evenodd" d="M38.001 36.0003C38.001 26.0588 29.9416 17.9994 20 17.9994V13.5024C32.4252 13.5024 42.4979 23.5752 42.4979 36.0003C42.4979 48.4248 32.4257 58.502 20 58.502V54.005C29.941 54.005 38.001 45.9425 38.001 36.0003Z" fill="#FF4C00"/>
</g>
<defs>
<clipPath id="clip0_15941_7453">
<rect width="72" height="72" fill="white" transform="translate(0 0.000488281)"/>
</clipPath>
</defs>
</svg>
