<svg xmlns="http://www.w3.org/2000/svg" width="72" height="72" fill="none" viewBox="0 0 72 72"><g clip-path="url(#a)"><path fill="#00832d" d="M37.924 14.398v17.277a1.93 1.93 0 0 0 1.93 1.93H57.13c0-5.299-1.18-11.058-4.665-14.542-3.484-3.484-9.243-4.665-14.541-4.665m18.832 57.245c-8.063 1.325-17.824-1.065-27.183-6.652l3.139-6.997 7.112-3.283 11.144 6.364zM.835 15.723c-1.324 8.062 1.037 17.824 6.652 27.182l7.199-3.369 3.08-6.91-6.046-9.877z"/><path fill="#34a853" d="M40.803 0a2.89 2.89 0 0 0-2.88 2.88v11.518c10.597 0 19.207 8.61 19.207 19.207h11.518a2.89 2.89 0 0 0 2.88-2.88C71.528 13.765 57.764 0 40.803 0m27.989 65.02a3.817 3.817 0 0 0 .144-5.384l-13.88-14.801a3.833 3.833 0 0 0-5.355.058l-9.849 9.819 16.903 16.903c4.579-.663 8.005-2.62 11.115-5.73z"/><path fill="#34a853" d="M7.516 42.905c2.534 4.204 5.903 8.437 9.732 12.267 3.83 3.83 8.15 7.257 12.354 9.79l10.28-10.25-22.115-22.086m7.4-7.171 1.584-1.526c1.871-1.871 1.871-4.952 0-6.824L13.706 4.06c-1.871-1.872-4.952-1.872-6.824 0l-.46.316C3.397 7.401 1.583 11.317.834 15.723l16.932 16.903z"/></g><defs><clipPath id="a"><path fill="#fff" d="M0 0h72v72H0z"/></clipPath></defs></svg>