<svg xmlns="http://www.w3.org/2000/svg" width="72" height="72" fill="none" viewBox="0 0 72 72"><g clip-path="url(#a)"><path fill="#f9ab00" d="M49.91 8.591v54c0 6.043 4.169 9.41 8.591 9.41 4.091 0 8.591-2.864 8.591-9.41V9.001c0-5.54-4.09-9-8.59-9S49.91 3.816 49.91 8.59"/><path fill="#e37400" d="M27.41 36v26.592c0 6.042 4.169 9.409 8.591 9.409 4.091 0 8.591-2.864 8.591-9.41V36.41c0-5.54-4.09-9-8.59-9S27.41 31.227 27.41 36M13.501 72a8.59 8.59 0 1 0 0-17.181 8.59 8.59 0 0 0 0 17.182"/></g><defs><clipPath id="a"><path fill="#fff" d="M0 0h72v72H0z"/></clipPath></defs></svg>