<svg xmlns="http://www.w3.org/2000/svg" width="72" height="72" fill="none" viewBox="0 0 72 72"><g clip-path="url(#a)"><path fill="#fff" d="m54.948 17.052-17.053-1.894-20.842 1.894L15.158 36l1.895 18.947L36 57.316l18.948-2.369 1.895-19.42z"/><path fill="#1a73e8" d="M24.826 46.45c-1.416-.958-2.397-2.355-2.932-4.202l3.287-1.355q.448 1.705 1.563 2.643c.74.626 1.64.933 2.69.933q1.614 0 2.772-.98 1.159-.982 1.16-2.496 0-1.55-1.222-2.53c-.814-.653-1.838-.98-3.06-.98h-1.9v-3.254h1.706q1.577 0 2.657-.853 1.08-.852 1.08-2.335 0-1.32-.966-2.108-.965-.79-2.449-.791-1.45-.001-2.302.772a4.5 4.5 0 0 0-1.241 1.9l-3.254-1.355q.644-1.834 2.382-3.235 1.742-1.402 4.443-1.403 1.998-.001 3.591.772 1.593.776 2.496 2.141.901 1.37.9 3.074 0 1.74-.838 2.947a5.8 5.8 0 0 1-2.06 1.852v.194a6.26 6.26 0 0 1 2.642 2.06q1.032 1.385 1.033 3.317t-.98 3.448c-.655 1.009-1.56 1.805-2.706 2.383-1.15.577-2.443.871-3.879.871q-2.491.006-4.613-1.43M45 30.136l-3.59 2.61-1.805-2.738 6.475-4.67h2.482v22.03H45z"/><path fill="#ea4335" d="M54.948 72 72 54.948l-8.526-3.79-8.526 3.79-3.79 8.526z"/><path fill="#34a853" d="M13.263 63.474 17.053 72h37.894V54.948H17.052z"/><path fill="#4285f4" d="M5.684 0A5.683 5.683 0 0 0 0 5.684v49.263l8.526 3.79 8.526-3.79V17.053h37.895l3.79-8.527L54.947 0z"/><path fill="#188038" d="M0 54.948v11.368A5.68 5.68 0 0 0 5.684 72h11.369V54.948z"/><path fill="#fbbc04" d="M54.947 17.053v37.894H72V17.052l-8.526-3.789z"/><path fill="#1967d2" d="M72 17.053V5.683A5.68 5.68 0 0 0 66.316 0H54.947v17.053z"/></g><defs><clipPath id="a"><path fill="#fff" d="M0 0h72v72H0z"/></clipPath></defs></svg>