<svg width="72" height="72" viewBox="0 0 72 72" fill="none" xmlns="http://www.w3.org/2000/svg">
<path d="M71.5598 36.8182C71.5598 34.2655 71.3308 31.8109 70.9053 29.4546H37V43.3963H56.3745C55.5236 47.88 52.9708 51.6763 49.1418 54.229V63.2944H60.8254C67.6326 57.0108 71.5598 47.7818 71.5598 36.8182Z" fill="#4285F4"/>
<path d="M36.9984 72.0002C46.7183 72.0002 54.8674 68.7929 60.8237 63.2948L49.1402 54.2294C45.9329 56.3893 41.842 57.6984 36.9984 57.6984C27.6384 57.6984 19.6857 51.3821 16.8385 42.873H4.86035V52.1676C10.784 63.9166 22.9257 72.0002 36.9984 72.0002Z" fill="#34A853"/>
<path d="M16.8399 42.8392C16.1199 40.6792 15.6945 38.3883 15.6945 35.9992C15.6945 33.6101 16.1199 31.3192 16.8399 29.1592V19.8647H4.8618C2.40727 24.7084 1 30.1738 1 35.9992C1 41.8246 2.40727 47.2901 4.8618 52.1337L14.189 44.8683L16.8399 42.8392Z" fill="#FBBC05"/>
<path d="M36.9984 14.3345C42.3002 14.3345 47.0129 16.1672 50.7765 19.7017L61.0856 9.39269C54.8347 3.56726 46.7183 0 36.9984 0C22.9257 0 10.784 8.0836 4.86035 19.8654L16.8385 29.1599C19.6857 20.6508 27.6384 14.3345 36.9984 14.3345Z" fill="#EA4335"/>
</svg>
