<svg xmlns="http://www.w3.org/2000/svg" width="72" height="72" fill="none" viewBox="0 0 72 72"><path fill="#0066da" d="M5.443 58.964 8.62 64.45c.66 1.154 1.608 2.062 2.721 2.721l11.34-19.629H0c0 1.279.33 2.557.99 3.712z"/><path fill="#00ac47" d="M36 24.449 24.66 4.819c-1.114.66-2.062 1.568-2.722 2.722L.99 43.831A7.5 7.5 0 0 0 0 47.54h22.68z"/><path fill="#ea4335" d="M60.66 67.17c1.113-.66 2.061-1.567 2.72-2.721l1.32-2.268 6.31-10.928c.66-1.155.99-2.433.99-3.712H49.316l4.827 9.485z"/><path fill="#00832d" d="m36 24.449 11.34-19.63c-1.113-.659-2.391-.989-3.71-.989H28.37c-1.32 0-2.597.371-3.71.99z"/><path fill="#2684fc" d="M49.32 47.542H22.68L11.34 67.17c1.113.66 2.392.99 3.711.99h41.897c1.32 0 2.598-.371 3.711-.99z"/><path fill="#ffba00" d="M60.536 25.686 50.062 7.54c-.66-1.154-1.608-2.061-2.722-2.721L36 24.449 49.32 47.54h22.639c0-1.278-.33-2.556-.99-3.71z"/></svg>