<svg xmlns="http://www.w3.org/2000/svg" width="72" height="72" fill="none" viewBox="0 0 72 72"><g clip-path="url(#a)"><path fill="#8ab4f8" d="M42.262 69.05 29.764 56.865l26.84-27.408 12.94 12.681z"/><path fill="#4285f4" d="M42.315 15.17 29.862 2.456 2.632 29.427c-3.51 3.51-3.51 9.2 0 12.714l26.821 26.996 12.682-11.864-20.434-21.489z"/><path fill="#8ab4f8" d="m69.364 29.636-27-27a9 9 0 0 0-12.727 12.727l27 27a9 9 0 0 0 12.727-12.727"/><path fill="#246fdb" d="M35.794 72a8.795 8.795 0 1 0 0-17.59 8.796 8.796 0 1 0 0 17.59"/></g><defs><clipPath id="a"><path fill="#fff" d="M0 0h72v72H0z"/></clipPath></defs></svg>