<svg xmlns="http://www.w3.org/2000/svg" width="72" height="72" fill="none" viewBox="0 0 72 72"><path fill="#4285f4" d="M71.56 36.818a41.4 41.4 0 0 0-.655-7.363H37v13.941h19.374c-.85 4.484-3.403 8.28-7.232 10.833v9.065h11.683c6.808-6.283 10.735-15.512 10.735-26.476"/><path fill="#34a853" d="M36.998 72c9.72 0 17.87-3.207 23.826-8.705L49.14 54.229c-3.207 2.16-7.298 3.47-12.142 3.47-9.36 0-17.312-6.317-20.16-14.826H4.86v9.295C10.784 63.917 22.926 72 36.998 72"/><path fill="#fbbc05" d="M16.84 42.84c-.72-2.16-1.146-4.452-1.146-6.84 0-2.39.426-4.68 1.146-6.84v-9.295H4.862A35.56 35.56 0 0 0 1 35.999a35.55 35.55 0 0 0 3.862 16.135l9.327-7.266z"/><path fill="#ea4335" d="M36.998 14.335c5.302 0 10.015 1.832 13.779 5.367l10.309-10.31C54.835 3.568 46.718 0 36.998 0 22.926 0 10.784 8.084 4.86 19.865l11.98 9.295c2.847-8.51 10.8-14.825 20.16-14.825"/></svg>