<svg xmlns="http://www.w3.org/2000/svg" width="72" height="72" fill="none" viewBox="0 0 72 72"><g clip-path="url(#a)"><path fill="url(#b)" d="M68.658 31.862c-.128-1.213-.32-2.618-.703-4.15s-1.021-3.193-1.851-4.98c-.894-1.725-1.98-3.576-3.448-5.3-.575-.703-1.213-1.341-1.852-2.044 1.022-4.022-1.213-7.534-1.213-7.534-3.895-.256-6.321 1.213-7.215 1.851-.128-.063-.32-.127-.447-.191-.639-.255-1.341-.51-2.044-.766-.702-.192-1.404-.447-2.107-.575-.702-.192-1.468-.32-2.234-.447-.128 0-.256-.064-.384-.064C43.5 2.3 38.648 0 38.648 0c-5.556 3.576-6.641 8.365-6.641 8.365s0 .127-.064.255c-.32.064-.575.192-.894.255-.383.128-.83.256-1.213.447-.383.192-.83.32-1.213.511a43 43 0 0 0-2.427 1.213c-.766.447-1.532.894-2.234 1.405a.8.8 0 0 1-.192-.128c-7.47-2.873-14.111.575-14.111.575-.575 7.982 3 12.962 3.703 13.856-.191.51-.319.958-.51 1.468-.575 1.788-.958 3.64-1.214 5.556-.064.255-.064.574-.127.83-6.896 3.384-8.94 10.408-8.94 10.408 5.747 6.64 12.515 7.023 12.515 7.023.83 1.533 1.852 3.001 2.937 4.342.447.575.958 1.086 1.469 1.66-2.107 6.002.32 11.047.32 11.047 6.448.255 10.662-2.81 11.556-3.512l1.916.574c1.98.511 4.023.83 6.002.894h2.618c3.001 4.342 8.365 4.917 8.365 4.917 3.767-4.023 4.022-7.918 4.022-8.812v-.383a55 55 0 0 0 2.299-1.788c1.532-1.34 2.81-2.937 3.959-4.597.127-.128.191-.32.319-.447 4.278.256 7.28-2.682 7.28-2.682-.703-4.47-3.257-6.64-3.768-7.023l-.064-.064-.064-.064-.064-.064c0-.255.064-.51.064-.83.064-.51.064-.958.064-1.468v-1.852c0-.128 0-.256-.064-.383l-.064-.383-.064-.384c-.063-.51-.191-.957-.255-1.468a19 19 0 0 0-2.171-5.364c-1.022-1.66-2.235-3.065-3.64-4.342-1.404-1.213-2.937-2.234-4.597-2.937a16.1 16.1 0 0 0-5.044-1.405c-.83-.127-1.724-.127-2.554-.127h-1.278c-.446.064-.893.127-1.276.191-1.724.32-3.32.958-4.725 1.788s-2.618 1.916-3.64 3.129-1.788 2.49-2.299 3.895c-.51 1.34-.83 2.81-.894 4.15v1.533c0 .191 0 .319.064.51a10 10 0 0 0 .384 1.98 10.9 10.9 0 0 0 1.724 3.448 10.2 10.2 0 0 0 2.554 2.426 11.3 11.3 0 0 0 2.937 1.405q1.532.48 2.873.383h1.341c.128 0 .255-.064.32-.064.127 0 .19-.064.319-.064.191-.064.447-.127.638-.191.383-.128.766-.32 1.15-.447q.575-.288.957-.575c.064-.064.192-.127.255-.191a.72.72 0 0 0 .128-1.022.89.89 0 0 0-.958-.191c-.063.063-.127.063-.255.127a4.4 4.4 0 0 1-.83.32c-.32.063-.638.191-.958.255-.191 0-.32.064-.51.064h-1.342c-.063 0-.191 0-.255-.064-.702-.128-1.468-.32-2.17-.639-.703-.319-1.406-.766-1.98-1.34a8 8 0 0 1-1.597-1.98c-.447-.766-.702-1.596-.83-2.426-.063-.447-.127-.894-.063-1.341v-.703c0-.255.063-.447.127-.702a9.34 9.34 0 0 1 2.746-5.172c.383-.383.766-.702 1.213-.958q.67-.478 1.34-.766a10 10 0 0 1 1.47-.51c.51-.128 1.021-.256 1.532-.256.255 0 .51-.064.766-.064h.766c.575.064 1.15.128 1.66.255 1.086.256 2.171.639 3.193 1.214 2.043 1.149 3.767 2.873 4.789 4.98a11.7 11.7 0 0 1 1.085 3.384c.064.32.064.575.128.894v1.66c0 .32-.064.639-.064.958-.064.32-.064.639-.127.958l-.192.957c-.128.64-.383 1.214-.575 1.852a13.4 13.4 0 0 1-1.851 3.384 15.5 15.5 0 0 1-6.002 4.917c-1.214.51-2.427.958-3.704 1.15a9.7 9.7 0 0 1-1.915.19H41.01c-.32 0-.702 0-1.022-.063a22 22 0 0 1-4.086-.766 20 20 0 0 1-3.831-1.533c-2.427-1.277-4.597-3.128-6.321-5.236-.83-1.085-1.597-2.234-2.235-3.447-.639-1.214-1.086-2.49-1.469-3.768s-.575-2.618-.638-3.959v-1.979c0-.639.063-1.34.191-2.043.064-.703.192-1.341.32-2.044.127-.702.319-1.34.51-2.043.383-1.34.83-2.618 1.405-3.83 1.15-2.427 2.618-4.598 4.342-6.322.447-.447.894-.83 1.405-1.213a7.2 7.2 0 0 1 1.149-.894c.51-.32 1.021-.639 1.596-.894.256-.128.511-.256.83-.383a3 3 0 0 1 .447-.192c.128-.064.256-.128.447-.191.575-.256 1.15-.447 1.724-.639.128-.064.32-.064.447-.128.128-.064.32-.064.447-.127a4.7 4.7 0 0 0 .894-.256c.128-.064.32-.064.447-.128.128 0 .32-.063.447-.063.128 0 .32-.064.447-.064l.255-.064.256-.064c.127 0 .319-.064.447-.064.191 0 .319-.064.51-.064.128 0 .384-.063.511-.063.128 0 .192 0 .32-.064h.447c.191 0 .319 0 .51-.064h2.618a29 29 0 0 1 3.384.383c2.171.383 4.279 1.086 6.13 2.043a23.2 23.2 0 0 1 4.98 3.257c.065.064.192.127.256.255.064.064.192.128.255.255.192.128.32.32.511.447.192.128.32.32.511.447.128.192.32.32.447.511.639.639 1.213 1.341 1.724 1.98a25 25 0 0 1 2.49 3.958c.064.064.064.128.128.256.064.064.064.128.128.255.063.128.127.32.255.447.064.128.128.32.192.447.063.128.127.32.191.447.256.575.447 1.15.639 1.724.319.894.51 1.66.702 2.299.064.255.32.447.575.447.319 0 .51-.256.51-.575-.063-.766-.063-1.596-.127-2.554"/></g><defs><linearGradient id="b" x1="35.678" x2="35.678" y1="88.186" y2="22.513" gradientUnits="userSpaceOnUse"><stop stop-color="#fcee1f"/><stop offset="1" stop-color="#f15b2a"/></linearGradient><clipPath id="a"><path fill="#fff" d="M0 0h72v72H0z"/></clipPath></defs></svg>