<svg xmlns="http://www.w3.org/2000/svg" width="72" height="72" fill="none" viewBox="0 0 72 72"><g clip-path="url(#a)"><path fill="#027e6f" d="M0 36.004C0 16.31 16.116.35 36.002.35S72 16.31 72 36.004c0 17.229-12.334 31.6-28.738 34.927a36.4 36.4 0 0 1-7.25.723H0z"/><path fill="#fff" d="M60.912 32.627H44.689l-3.82 6.553h13.377C52.15 50.578 39.35 58.338 26.559 51.775c-2.75-1.41-4.99-3.59-6.437-6.314-7.359-13.874 2.694-27.832 15.959-27.832a18.5 18.5 0 0 1 13.777 6.132l3.428-5.88a25.07 25.07 0 0 0-18.974-6.733c-12.514.855-22.66 11.127-23.27 23.531-.694 14.243 10.802 26.042 25.03 26.042s25.065-11.138 25.065-24.823c0-1.113-.083-2.204-.225-3.271"/></g><defs><clipPath id="a"><path fill="#fff" d="M0 0h72v72.001H0z"/></clipPath></defs></svg>