<svg xmlns="http://www.w3.org/2000/svg" width="72" height="72" fill="none" viewBox="0 0 72 72"><path fill="#000" d="m27.807 45.369 23.937-17.691c1.173-.867 2.85-.53 3.41.818 2.942 7.105 1.628 15.643-4.228 21.505s-14.001 7.147-21.448 4.22l-8.134 3.77c11.667 7.984 25.835 6.01 34.688-2.86 7.023-7.031 9.198-16.615 7.164-25.257l.018.018c-2.949-12.696.725-17.77 8.252-28.148Q71.733 1.377 72 1l-9.904 9.916v-.031l-34.295 34.49m-4.933 4.293c-8.375-8.009-6.93-20.403.215-27.551 5.283-5.29 13.94-7.45 21.497-4.275l8.116-3.752c-1.462-1.058-3.336-2.196-5.486-2.996-9.72-4.004-21.357-2.011-29.258 5.893-7.6 7.609-9.99 19.309-5.885 29.292 3.065 7.461-1.96 12.739-7.023 18.066C3.25 66.233 1.45 68.122 0 70.121l22.861-20.447"/></svg>