<svg xmlns="http://www.w3.org/2000/svg" width="72" height="72" fill="none" viewBox="0 0 72 72"><path fill="#fff" d="m45.853.848-.58 5.376C44.112 3.111 40.636 0 34.26 0c-3.767 0-6.375.848-8.982 2.264-5.506 3.393-8.404 9.616-8.404 17.253 0 8.203 3.188 14.143 8.404 17.255 2.608 1.413 5.506 2.261 8.692 2.261 6.086 0 8.694-2.828 9.562-5.092V39.6c0 3.96-3.186 7.07-7.533 7.353s-7.533-1.413-8.113-5.092l-8.695 4.244c2.03 5.94 8.114 9.333 17.098 9.333 11.012.002 18.835-5.938 18.835-16.4V.846h-9.272zm-4.635 27.153a7.99 7.99 0 0 1-9.855 0c-2.027-1.696-3.186-4.241-3.186-8.482 0-4.246 1.159-6.79 3.186-8.487a7.99 7.99 0 0 1 9.855 0c2.025 1.696 3.186 4.241 3.186 8.485-.29 4.243-1.45 6.506-3.189 8.484zm13.907 31.203V72h-38.25v-7.312h30.877v-5.484z"/></svg>