<svg xmlns="http://www.w3.org/2000/svg" width="72" height="72" fill="none" viewBox="0 0 72 72"><g clip-path="url(#a)"><path fill="#000" d="M25.43.894C24.438.297 23.347 0 21.96 0q-2.23 0-3.572.894C17.497 1.488 17 2.282 17 3.276v65.353c0 .794.497 1.587 1.387 2.281.994.694 2.085 1.09 3.472 1.09a6 6 0 0 0 3.471-1.09c.99-.694 1.488-1.487 1.488-2.281V3.276c.1-.994-.397-1.788-1.387-2.382m8.231 34.313c-.593.597-.894 1.39-.694 2.578.1 1.19.594 2.28 1.588 3.275.89.99 1.98 1.683 3.171 1.984 1.19.297 2.085.096 2.678-.397l5.256-3.275v29.257c0 .794.497 1.587 1.39 2.281.89.694 2.082 1.09 3.469 1.09 1.39 0 2.581-.396 3.571-1.09s1.488-1.487 1.488-2.281V29.157c0-.99-.497-1.684-1.488-2.28-.99-.594-2.18-.89-3.668-.89s-2.578.296-3.471.89z"/></g><defs><clipPath id="a"><path fill="#fff" d="M0 0h72v72H0z"/></clipPath></defs></svg>