<svg xmlns="http://www.w3.org/2000/svg" width="72" height="72" fill="none" viewBox="0 0 72 72"><g clip-path="url(#a)"><path fill="url(#b)" d="M36 2.812c4.481 0 8.828.877 12.916 2.608a33.2 33.2 0 0 1 10.55 7.112 33.4 33.4 0 0 1 4.053 4.914 33 33 0 0 1 3.06 5.636 33 33 0 0 1 2.607 12.916c0 4.482-.877 8.828-2.607 12.917a33.2 33.2 0 0 1-7.113 10.55 33.4 33.4 0 0 1-4.913 4.053 33 33 0 0 1-5.637 3.059A33 33 0 0 1 36 69.185c-4.481 0-8.828-.878-12.916-2.608a33.2 33.2 0 0 1-10.55-7.113 33.4 33.4 0 0 1-4.053-4.913 33 33 0 0 1-3.06-5.637 33 33 0 0 1-2.607-12.916c0-4.48.877-8.828 2.607-12.916a33.2 33.2 0 0 1 7.113-10.55 33.4 33.4 0 0 1 4.914-4.053 33 33 0 0 1 5.636-3.06A33 33 0 0 1 36 2.813M36 0C16.117 0 0 16.117 0 36s16.116 36 36 36c19.883 0 36-16.116 36-36-.002-19.883-16.119-36-36-36m14.377 54.944c-4.177 3.096-9.112 4.73-14.045 4.73-2.596 0-5.191-.38-7.68-1.16a23.7 23.7 0 0 1-7.034-3.572 1.405 1.405 0 1 0-1.674 2.26 26.6 26.6 0 0 0 7.866 3.995 28.5 28.5 0 0 0 8.522 1.29c5.554 0 11.071-1.84 15.72-5.285a1.406 1.406 0 1 0-1.674-2.258m-10.93-15.491v5.021a5.883 5.883 0 0 0 5.885 5.884 5.883 5.883 0 0 0 5.883-5.883V23.217a5.883 5.883 0 0 0-5.883-5.884 5.883 5.883 0 0 0-5.884 5.884V35.99h-6.9V23.217a5.883 5.883 0 0 0-5.884-5.884 5.883 5.883 0 0 0-5.884 5.884v21.258a5.883 5.883 0 0 0 5.884 5.883 5.883 5.883 0 0 0 5.884-5.883v-5.022z"/></g><defs><linearGradient id="b" x1="0" x2="323.527" y1="34.363" y2="103.372" gradientUnits="userSpaceOnUse"><stop stop-color="#5dbefc"/><stop offset="1" stop-color="#dd92fe"/></linearGradient><clipPath id="a"><path fill="#fff" d="M0 0h72v72H0z"/></clipPath></defs></svg>