<svg xmlns="http://www.w3.org/2000/svg" width="72" height="72" fill="none" viewBox="0 0 72 72"><g clip-path="url(#clip0_25934_40629)"><path fill="#fbfcfd" d="M35.999 0C16.119 0 0 16.118 0 35.999c0 19.88 16.118 35.999 35.999 35.999 19.883 0 36.001-16.119 36.001-36C72 16.119 55.882 0 36.001 0z"/><path fill="#006dc7" fill-rule="evenodd" d="M0 35.999C0 16.119 16.118 0 35.999 0 55.882 0 72 16.118 72 35.999c0 19.88-16.118 35.999-35.999 35.999C16.118 71.998 0 55.879 0 35.998m14.732 21.267a29.88 29.88 0 0 0 21.27 8.81c16.582 0 30.076-13.494 30.076-30.077S52.584 5.922 36 5.922 5.922 19.416 5.922 36a3.03 3.03 0 0 0 3.029 3.028A3.03 3.03 0 0 0 11.979 36c0-13.245 10.777-24.022 24.022-24.022S60.021 22.754 60.021 36 49.244 60.02 36 60.02a24.04 24.04 0 0 1-14.727-5.058l6.64-6.64A14.66 14.66 0 0 0 36 50.747a14.76 14.76 0 0 0 14.748-14.748c0-8.129-6.615-14.746-14.748-14.746-8.129 0-14.746 6.615-14.746 14.748a14.66 14.66 0 0 0 2.423 8.083l-8.942 8.944a3 3 0 0 0-.002 4.238m21.27-12.57A8.71 8.71 0 0 0 44.698 36 8.71 8.71 0 0 0 36 27.3a8.71 8.71 0 0 0-8.7 8.698 8.71 8.71 0 0 0 8.7 8.698" clip-rule="evenodd"/></g><defs><clipPath id="clip0_25934_40629"><path fill="#fff" d="M0 0h72v72H0z"/></clipPath></defs></svg>