<svg xmlns="http://www.w3.org/2000/svg" width="72" height="72" fill="none" viewBox="0 0 72 72"><g clip-path="url(#a)"><path fill="#ff4c46" d="M35.834 8.943c-7.618-.054-16.087 4.637-22.285 11.605C9.059 25.603 3.403 39.573.629 46.866a9.36 9.36 0 0 0 1.46 9.184C6.974 62.07 17.142 71.863 36.827 72c18.031.127 27.222-7.903 31.531-13.8a13.06 13.06 0 0 0 1.99-11.354c-1.916-6.583-5.931-17.97-12.53-25.839-7.53-8.964-14.374-12.01-21.984-12.064"/><path fill="#fff" d="M42.257 27.232c11.16-7.764 17.209-1.025 20.603 6.451 2.452 5.388 3.32 15.475-4.64 17.021-6.097 1.19-11.732-4.988-15.899-10.756a1.32 1.32 0 0 0-2.134-.006c-2.746 3.786-9.62 15.165-19.89 12.357-9.714-2.66-11.848-13.585-7.809-21.138 5.978-11.39 14.71-15.1 29.77-3.93"/><path fill="#fff" d="M36.286 51.717c1.277 1.406 3.942 4.271 5.538 5.642a.75.75 0 0 0 1.044-.06l4.292-4.727a.15.15 0 0 0-.161-.25 12.37 12.37 0 0 1-10.528-.845.158.158 0 0 0-.185.24m4.325-8.804-4.382 5.083a.54.54 0 0 0 .086.795c.993.723 3.42 2.297 5.79 2.317a12 12 0 0 0 5.176-1.307.54.54 0 0 0 .157-.834l-5.335-6.08a1.013 1.013 0 0 0-1.485.028z"/><path fill="#ff4c46" d="M55.27 34.045a4.314 4.314 0 1 1-6.013-1.258 4.17 4.17 0 0 1 6.013 1.258M40.2 27.23a3.81 3.81 0 0 0 4.286.31l27.122-15.798a.75.75 0 0 0-.422-1.391l-29.359 2.43L8.342.052a.893.893 0 0 0-.867 1.53zm-11.967 4.417c-2.245.766-3.362 3.15-2.693 5.372.766 2.245 3.15 3.361 5.372 2.693 2.245-.766 3.343-3.181 2.692-5.372.007-.014-.008-.056-.035-.105-.692-2.162-2.898-3.304-4.998-2.707-.096-.025-.217.047-.338.12"/></g><defs><clipPath id="a"><path fill="#fff" d="M0 0h72v72H0z"/></clipPath></defs></svg>