<svg xmlns="http://www.w3.org/2000/svg" width="72" height="72" fill="none" viewBox="0 0 72 72"><path fill="#fff" fill-rule="evenodd" d="M72 47.65v1.903h-9.474V47.65zm-22.737 0v1.903H39.79V47.65zm7.392 0-.762 1.903-.752-1.903zm-21.223 0a7.8 7.8 0 0 1-5.154 1.903h-15.12V47.65zm-22.169 0v1.903H0V47.65zm36-3.807v1.903H39.79v-1.903zm8.873 0-.737 1.903h-3l-.743-1.903zm-20.81 0a7.1 7.1 0 0 1-.795 1.903H15.158v-1.903zm-24.063 0v1.903H0v-1.903zm58.737 0v1.903h-9.474v-1.903zm-3.79-3.807v1.903h-5.684v-1.903zm-18.947 0v1.903H43.58v-1.903zm10.36 0-.745 1.903h-5.966l-.75-1.903zm-22.562 0c.17.607.265 1.244.265 1.903h-7.01v-1.903zm-12.43 0v1.903h-5.684v-1.903zm-15.157 0v1.903H3.789v-1.903zm58.736-3.807v1.904h-5.684v-1.904zm-18.947 0v1.904H43.58v-1.904zm11.844 0-.74 1.904h-8.963l-.735-1.904zm-26.376 0a7.4 7.4 0 0 1 1.648 1.904H18.947v-1.904zm-25.257 0v1.904H3.789v-1.904zm45.89-3.807.53 1.539.531-1.539H68.21v1.904h-5.684v-1.75l-.644 1.75H49.888l-.625-1.75v1.75H43.58v-1.904zm-45.89 0v1.904H3.789v-1.904zm26.905 0a7.4 7.4 0 0 1-1.648 1.904H18.947v-1.904zm31.832-3.807v1.904H57.082l.67-1.904zm-14.168 0 .67 1.904H43.58v-1.904zm-16.717 0c0 .66-.095 1.297-.265 1.904h-6.745v-1.904zm-12.694 0v1.904h-5.685v-1.904zm-15.158 0v1.904H3.789v-1.904zm43.257-3.807.658 1.904h-13.6v-1.904zm19.269 0v1.904H58.393l.685-1.904zm-35.47 0c.352.588.625 1.227.796 1.904H15.158v-1.904zm-23.267 0v1.904H0v-1.904zM51.4 21.002l.671 1.903H39.79V21zm20.6 0v1.903H59.734L60.389 21zm-41.722 0a7.83 7.83 0 0 1 5.154 1.903H15.158V21zm-17.015 0v1.903H0V21z" clip-rule="evenodd"/></svg>