<svg xmlns="http://www.w3.org/2000/svg" width="72" height="72" fill="none" viewBox="0 0 72 72"><path fill="#f25533" fill-rule="evenodd" d="M29.272 61.683V72C16.935 69.051 7.78 58.18 7.78 45.22c0-7.473 3.157-13.4 7.985-19.216 4.003-4.822 13.888-17.593 17-24.639C33.52-.346 35.446-.28 36.277.64c2.657 2.941 5.932 9.363 7.003 16.648.218 1.484.308 2.696.38 3.659.153 2.066.22 2.984 1.29 2.984 1.68 0 2.78-2.552 3.021-5.186.155-1.687 1.827-2.253 2.98-1.687 5.544 2.716 11.201 15.649 12.57 21.996.428 1.99.708 4.046.708 6.166 0 12.932-9.114 23.783-21.41 26.761V61.683zm6.732-4.113c4.336 0 7.851-3.332 7.851-7.443 0-6.556-4.826-11.24-7.231-12.665-.162-.096-.244-.144-.465-.138a.9.9 0 0 0-.516.219c-.158.155-.2.331-.283.684-.426 1.795-1.768 3.076-3.18 4.423-1.947 1.857-4.026 3.842-4.026 7.477 0 4.111 3.515 7.443 7.85 7.443" clip-rule="evenodd"/></svg>