<svg xmlns="http://www.w3.org/2000/svg" width="72" height="72" fill="none" viewBox="0 0 72 72"><path fill="url(#a)" d="M72 9.556v47.26c0 2.632-2.26 4.715-4.88 4.496l-28.998-2.248a17.24 17.24 0 0 0-9.813 2.165l-10.006 5.62c-.882.493-1.847-.52-1.295-1.37l5.017-7.649 4.658-7.127a2.07 2.07 0 0 1 2.343-.85c7.305 2.358 15.574-.356 19.957-7.045 5.238-8.032 2.95-18.778-5.1-23.986-8.076-5.236-18.882-2.934-24.119 5.07-4.383 6.717-3.5 15.325 1.599 21 .606.685.69 1.699.165 2.466l-5.899 9.047c-.358.52-.964.822-1.598.795l-10.806-.823C1.378 56.24 0 54.76 0 52.951V13.394a3.446 3.446 0 0 1 3.198-3.427L67.12 5.033C69.74 4.84 72 6.924 72 9.556M34.319 21.508c-6.589 0-11.936 5.318-11.936 11.87 0 3.18 1.268 6.086 3.335 8.224a12.25 12.25 0 0 0 4.549 2.933 11.7 11.7 0 0 0 4.052.713c6.588 0 11.935-5.318 11.935-11.87 0-6.58-5.347-11.87-11.935-11.87"/><defs><linearGradient id="a" x1="3.575" x2="54.002" y1="57.148" y2="22.939" gradientUnits="userSpaceOnUse"><stop stop-color="#00bfea"/><stop offset="1" stop-color="#26d6ff"/></linearGradient></defs></svg>