<svg xmlns="http://www.w3.org/2000/svg" width="72" height="72" fill="none" viewBox="0 0 72 72"><g clip-path="url(#a)"><path fill="#be78ff" d="M40.382 9.591c-.055.055-.11.138-.165.193a6.4 6.4 0 0 1-1.923 1.236c-.742.302-1.51.44-2.307.44a6.2 6.2 0 0 1-2.335-.44c-.77-.303-1.456-.797-2.033-1.374v4.56h8.763z"/><path fill="#fff" d="M33.625 11.02c.741.302 1.538.44 2.335.44s1.565-.138 2.307-.44a6.8 6.8 0 0 0 1.923-1.236c.055-.055.11-.138.165-.193a6 6 0 0 0 1.098-1.648q.495-1.071.495-2.225c0-.77-.165-1.51-.495-2.197A6.1 6.1 0 0 0 40.19 1.68 5.7 5.7 0 0 0 38.295.471a5.1 5.1 0 0 0-2.308-.467c-1.593.028-3.104.632-4.23 1.704a5.7 5.7 0 0 0-1.264 1.84 5.1 5.1 0 0 0-.44 2.198c0 .769.138 1.538.44 2.225.275.631.66 1.18 1.126 1.675a6.1 6.1 0 0 0 2.006 1.374m-3.49 17.772a4.3 4.3 0 0 0-2.225-1.18 4.4 4.4 0 0 0-2.528.246 4.27 4.27 0 0 0-1.95 1.594 4.47 4.47 0 0 0-.742 2.417 4.44 4.44 0 0 0 1.264 3.077 4.32 4.32 0 0 0 3.077 1.263c.851 0 1.703-.247 2.417-.742a4.27 4.27 0 0 0 1.593-1.95 4.4 4.4 0 0 0 .247-2.527 4.1 4.1 0 0 0-1.153-2.198m18.815 4.753a4.4 4.4 0 0 0 .248-2.528 4.29 4.29 0 0 0-3.407-3.406 4.4 4.4 0 0 0-2.527.247 4.27 4.27 0 0 0-1.95 1.594 4.47 4.47 0 0 0-.742 2.417 4.44 4.44 0 0 0 1.264 3.077 4.32 4.32 0 0 0 3.077 1.263 4.25 4.25 0 0 0 2.417-.742c.742-.44 1.29-1.126 1.62-1.922"/><path fill="#ff50a4" d="M20.797 53.13h-9.092v8.653h9.092z"/><path fill="#fff" d="M62.604 31.869c0-9.752-7.912-17.663-17.663-17.663H27.058c-9.751 0-17.662 7.911-17.662 17.663s7.91 17.663 17.635 17.663h.082a6 6 0 0 1-1.318 1.703c-1.319 1.208-3.132 1.895-5 1.923v8.652c3.983 0 7.829-1.346 10.823-3.735v4.78h8.708v-4.808c2.994 2.39 6.84 3.736 10.823 3.736V53.13c-1.868 0-3.681-.687-5-1.923a6 6 0 0 1-1.318-1.703h.082c9.752.028 17.69-7.883 17.69-17.635M27.03 40.824a8.957 8.957 0 0 1-8.955-8.955 8.957 8.957 0 0 1 8.955-8.955h17.882a8.957 8.957 0 0 1 8.955 8.955 8.957 8.957 0 0 1-8.955 8.955z"/><path fill="#0598ff" d="M51.176 53.158v8.625h9.092V53.13h-9.092z"/><path fill="#ff8f28" d="M31.62 66.975v5.027h8.734v-9.175H31.62z"/></g><defs><clipPath id="a"><path fill="#fff" d="M0 .001h72v72H0z"/></clipPath></defs></svg>