<svg xmlns="http://www.w3.org/2000/svg" width="72" height="72" fill="none" viewBox="0 0 72 72"><g clip-path="url(#clip0_26258_44691)"><path fill="#fff" fill-rule="evenodd" d="M72 36c0 19.882-16.119 36-36.001 36C16.119 72 0 55.882 0 36S16.119 0 35.999 0 72 16.118 72 36m-55.635 5.202h9.56c.284 0 .493.267.424.543L21.41 61.786c-.106.427.412.725.727.422l33.307-32.055a.438.438 0 0 0-.303-.754H43.45a.436.436 0 0 1-.344-.704l10.946-14.2a.438.438 0 0 0-.347-.704H31.299l-15.31 26.758c-.167.29.04.653.376.653" clip-rule="evenodd"/></g><defs><clipPath id="clip0_26258_44691"><path fill="#fff" d="M0 0h72v72H0z"/></clipPath></defs></svg>