<svg xmlns="http://www.w3.org/2000/svg" width="72" height="72" fill="none" viewBox="0 0 72 72"><path fill="url(#paint0_linear_22352_5880)" d="M0 11.726c0-9.196 12.024-14.23 19.968-8.36l17.268 12.752L51.809 7.86C59.512 3.66 71.854 6.672 72 18.153v42.312c0 9.195-11.671 13.99-19.615 8.12L34.802 55.553l-14.59 8.26c-7.775 4.24-20.2.987-20.2-10.187 0-13.411-.012-8.261-.012-41.9"/><path fill="url(#paint1_radial_22352_5880)" d="M0 11.726c0-9.196 12.024-14.23 19.968-8.36l17.268 12.752L51.809 7.86C59.512 3.66 71.854 6.672 72 18.153v42.312c0 9.195-11.671 13.99-19.615 8.12L34.802 55.553l-14.59 8.26c-7.775 4.24-20.2.987-20.2-10.187 0-13.411-.012-8.261-.012-41.9"/><path fill="url(#paint2_radial_22352_5880)" d="M0 11.726c0-9.196 12.024-14.23 19.968-8.36l17.268 12.752L51.809 7.86C59.512 3.66 71.854 6.672 72 18.153v42.312c0 9.195-11.671 13.99-19.615 8.12L34.802 55.553l-14.59 8.26c-7.775 4.24-20.2.987-20.2-10.187 0-13.411-.012-8.261-.012-41.9"/><path fill="url(#paint3_radial_22352_5880)" d="M19.968 3.366C12.024-2.504 0 2.53 0 11.726v41.38c0-1.006.513-3.009.513-3.009 2.369-7.744 12.44-10.648 19.409-5.544l32.463 24.031C60.33 74.454 72 69.66 72 60.464v-42.31c0 7.855-10.268 15.74-19.967 8.908z"/><path fill="url(#paint4_radial_22352_5880)" fill-opacity=".25" d="M19.968 3.366C12.024-2.504 0 2.53 0 11.726v41.38c0-1.006.513-3.009.513-3.009 2.369-7.744 12.44-10.648 19.409-5.544l32.463 24.031C60.33 74.454 72 69.66 72 60.464v-42.31c0 7.855-10.268 15.74-19.967 8.908z"/><path fill="url(#paint5_radial_22352_5880)" fill-opacity=".55" d="M19.968 3.366C12.024-2.504 0 2.53 0 11.726v41.38c0-1.006.513-3.009.513-3.009 2.369-7.744 12.44-10.648 19.409-5.544l32.463 24.031C60.33 74.454 72 69.66 72 60.464v-42.31c0 7.855-10.268 15.74-19.967 8.908z"/><path fill="url(#paint6_linear_22352_5880)" d="M19.968 26.817C12.024 20.947 0 25.98 0 35.177V11.726c0-9.196 12.024-14.23 19.968-8.36l32.065 23.696C61.733 33.895 72 26.009 72 18.153v24c0 9.196-12.024 14.23-19.967 8.36z"/><path fill="url(#paint7_radial_22352_5880)" fill-opacity=".35" d="M19.968 26.817C12.024 20.947 0 25.98 0 35.177V11.726c0-9.196 12.024-14.23 19.968-8.36l32.065 23.696C61.733 33.895 72 26.009 72 18.153v24c0 9.196-12.024 14.23-19.967 8.36z"/><defs><radialGradient id="paint1_radial_22352_5880" cx="0" cy="0" r="1" gradientTransform="rotate(110.224 35.318 18.018)scale(52.6046 39.4051)" gradientUnits="userSpaceOnUse"><stop offset=".423" stop-color="#004aff" stop-opacity=".1"/><stop offset=".729" stop-color="#014db9"/><stop offset=".836" stop-color="#014db9" stop-opacity=".9"/><stop offset=".955" stop-color="#014db9" stop-opacity="0"/></radialGradient><radialGradient id="paint2_radial_22352_5880" cx="0" cy="0" r="1" gradientTransform="rotate(-73.643 50.892 28.085)scale(41.8802 51.0154)" gradientUnits="userSpaceOnUse"><stop offset=".091" stop-color="#004aff" stop-opacity=".1"/><stop offset=".56" stop-color="#014db9"/><stop offset=".749" stop-color="#014db9" stop-opacity=".99"/><stop offset="1" stop-color="#014db9" stop-opacity="0"/></radialGradient><radialGradient id="paint3_radial_22352_5880" cx="0" cy="0" r="1" gradientTransform="rotate(134.068 39.31 17.156)scale(101.512 78.1873)" gradientUnits="userSpaceOnUse"><stop offset=".249" stop-color="#23c0fe"/><stop offset=".717" stop-color="#23c0fe"/><stop offset=".995" stop-color="#1c91ff"/></radialGradient><radialGradient id="paint4_radial_22352_5880" cx="0" cy="0" r="1" gradientTransform="rotate(45.91 3 28.622)scale(72.6223 17.2762)" gradientUnits="userSpaceOnUse"><stop offset=".165" stop-color="#096dd6" stop-opacity="0"/><stop offset=".484" stop-color="#096dd6"/><stop offset=".901" stop-color="#0876de" stop-opacity=".814"/><stop offset="1" stop-color="#029aff" stop-opacity="0"/></radialGradient><radialGradient id="paint5_radial_22352_5880" cx="0" cy="0" r="1" gradientTransform="rotate(91.61 13.28 55.686)scale(11.6638 10.504)" gradientUnits="userSpaceOnUse"><stop stop-color="#0068b3"/><stop offset=".93" stop-color="#006cb8" stop-opacity="0"/></radialGradient><radialGradient id="paint7_radial_22352_5880" cx="0" cy="0" r="1" gradientTransform="rotate(69.461 5.43 9.133)scale(17.9395 14.4898)" gradientUnits="userSpaceOnUse"><stop stop-color="#ccf9ff" stop-opacity=".93"/><stop offset="1" stop-color="#35ddff"/></radialGradient><linearGradient id="paint0_linear_22352_5880" x1="30.747" x2="56.443" y1="71.157" y2="16.174" gradientUnits="userSpaceOnUse"><stop offset=".02" stop-color="#1169da"/><stop offset=".435" stop-color="#0151bd"/><stop offset=".614" stop-color="#014db7"/><stop offset="1" stop-color="#126ad9"/></linearGradient><linearGradient id="paint6_linear_22352_5880" x1="20.526" x2="32.649" y1="17.427" y2="68.938" gradientUnits="userSpaceOnUse"><stop stop-color="#92eefe"/><stop offset=".565" stop-color="#35ddff"/><stop offset="1" stop-color="#08b1f9"/></linearGradient></defs></svg>