<svg xmlns="http://www.w3.org/2000/svg" width="72" height="72" fill="none" viewBox="0 0 72 72"><g clip-path="url(#a)"><path fill="#e97c2a" d="M16.024 17.546 2.603 22.534A36.18 36.18 0 0 1 22.37 2.627l-1.189 8.386c-2.95.417-5.158 2.935-5.158 5.915-.016.201-.047.417 0 .618m8.479 23.737L.225 39.91a36.23 36.23 0 0 0 9.359 20.479 5.97 5.97 0 0 1 5.467-3.568c.602 0 1.189.093 1.76.263l8.789-14.04a5.4 5.4 0 0 1-1.096-1.76m1.853-7.011-4.108-11.336h-.17a6.03 6.03 0 0 1-4.278-1.807L1.074 27.353a36 36 0 0 0-1.02 8.525l24.31 1.374a5.73 5.73 0 0 1 1.976-2.965zm3.614 10.687c-.263 0-.525-.046-.788-.046l-9.22 14.733a6.03 6.03 0 0 1 1.02 3.352 5.92 5.92 0 0 1-2.21 4.587A35.9 35.9 0 0 0 35.948 72c.787 0 1.636-.046 2.424-.092l-8.386-26.965zM47.977 6.967a5.82 5.82 0 0 1 1.761-4.232A35.4 35.4 0 0 0 35.962.002c-3.166 0-6.332.417-9.406 1.235l-1.498 10.641a6 6 0 0 1 1.946 1.9l20.958-6.533v-.263zM63.993 43.94a5.99 5.99 0 0 1-5.081 5.915l-4.417 16.942c10.131-6.085 16.617-16.757 17.39-28.556l-7.939 4.896c0 .309.047.525.047.787zM59.668 8.867a5.9 5.9 0 0 1-2.826 3.35l2.826 25.947a6.1 6.1 0 0 1 2.518 1.405l9.76-6.054A36.33 36.33 0 0 0 59.684 8.851zM55.653 38.38l-2.78-25.544a6.07 6.07 0 0 1-3.351-1.9L27.9 17.685a5.86 5.86 0 0 1-1.992 3.753l4.185 11.521a6 6 0 0 1 5.869 5.344l16.633 2.95a6.06 6.06 0 0 1 3.043-2.873zm-3.49 6.888-17.128-3.043a6.5 6.5 0 0 1-1.282 1.406l8.695 27.706a34.4 34.4 0 0 0 7.29-2.162l5.25-20.123a5.77 5.77 0 0 1-2.825-3.8zM12.008 62.78a33 33 0 0 0 3.877 2.997A3.05 3.05 0 0 0 18 62.905a2.99 2.99 0 0 0-2.95-2.996h-.046a3.07 3.07 0 0 0-2.997 2.872m20.958-23.83a3 3 0 0 0-2.996-2.996 3 3 0 0 0-2.996 2.996 3 3 0 0 0 2.996 2.996 2.99 2.99 0 0 0 2.996-2.95zM21.986 13.98a3 3 0 0 0-2.997 2.996 3 3 0 0 0 2.996 2.996 3 3 0 0 0 2.996-2.996 2.99 2.99 0 0 0-2.95-2.997zM58 46.936a3 3 0 0 0 2.996-2.996A3 3 0 0 0 58 40.944a3 3 0 0 0-2.997 2.996 2.99 2.99 0 0 0 2.95 2.996zM56.98 6.689a35.5 35.5 0 0 0-4.062-2.517 3 3 0 0 0-1.683 3.891 3 3 0 0 0 3.892 1.684 2.99 2.99 0 0 0 1.884-2.796.7.7 0 0 1-.046-.262z"/></g><defs><clipPath id="a"><path fill="#fff" d="M0 .001h72v72H0z"/></clipPath></defs></svg>