<svg xmlns="http://www.w3.org/2000/svg" width="72" height="72" fill="none" viewBox="0 0 72 72"><g clip-path="url(#a)"><path fill="#d33833" fill-rule="evenodd" d="M61.128 34.695c0 14.265-11.306 25.829-25.252 25.829S10.624 48.96 10.624 34.694c0-14.264 11.306-25.829 25.252-25.829s25.252 11.565 25.252 25.83" clip-rule="evenodd"/><path fill="#ef3d3a" d="M11.654 41.092s-1.828-26.936 22.99-27.705l-1.73-2.886-13.468 4.521-3.848 4.425-3.367 6.446-1.924 7.503.577 5.002"/><path fill="#231f20" d="M18.58 17.075c-4.43 4.533-7.171 10.792-7.171 17.716 0 6.923 2.741 13.183 7.172 17.715 4.433 4.533 10.541 7.33 17.295 7.33s12.863-2.797 17.295-7.33c4.43-4.532 7.173-10.792 7.173-17.715 0-6.924-2.742-13.183-7.173-17.716-4.432-4.532-10.541-7.329-17.295-7.33-6.754.001-12.862 2.798-17.295 7.33m-1.12 36.528c-4.71-4.816-7.62-11.47-7.62-18.812s2.91-13.996 7.62-18.812c4.707-4.817 11.223-7.802 18.416-7.801 7.193-.001 13.71 2.984 18.417 7.8 4.709 4.817 7.62 11.472 7.62 18.813s-2.911 13.996-7.62 18.812c-4.707 4.816-11.224 7.801-18.417 7.801s-13.71-2.985-18.417-7.801"/><path fill="#f0d6b7" fill-rule="evenodd" d="m46.506 34.838-3.848.577-5.195.577-3.367.096-3.27-.096-2.502-.77-2.212-2.404-1.732-4.906-.384-1.059-2.31-.77-1.346-2.212-.962-3.174 1.058-2.79 2.501-.866 2.02.962.963 2.116 1.154-.192.385-.48-.385-2.213-.096-2.79.577-3.848-.023-2.198 1.754-2.804 3.079-2.213 5.387-2.309 5.964.866 5.195 3.752 2.405 3.848 1.54 2.79.384 6.926-1.155 5.964-2.116 5.291-2.02 2.79" clip-rule="evenodd"/><path fill="#335061" fill-rule="evenodd" d="m43.235 51.48-13.756.578v2.308l1.154 8.081-.577.674-9.62-3.271-.673-1.155-.962-10.87-2.212-6.542-.482-1.539 7.696-5.29 2.405-.963 2.117 2.598 1.827 1.635 2.117.674.962.288 1.154 5.002.866 1.058 2.213-.77-1.54 2.983 8.37 3.944z" clip-rule="evenodd"/><path fill="#6d6b6d" fill-rule="evenodd" d="m20.436 17.907 2.5-.866 2.02.962.963 2.117 1.154-.193.29-1.154-.578-2.213.577-5.29-.481-2.887 1.732-2.02 3.751-2.982-1.058-1.443-5.29 2.597-2.213 1.732-1.251 2.694-1.924 2.597-.577 3.078z" clip-rule="evenodd"/><path fill="#dcd9d8" fill-rule="evenodd" d="M24.38 8.865s1.443-3.56 7.215-5.291.289-1.251.289-1.251L25.63 4.728l-2.405 2.405-1.058 1.924zm-2.886 8.369s-2.02-6.734 5.676-7.696l-.29-1.154-5.29 1.25-1.54 5.003.386 3.27z" clip-rule="evenodd"/><path fill="#f7e4cd" fill-rule="evenodd" d="m24.572 26.18 1.26-1.22s.568.066.664.74.385 6.734 4.522 10.004c.377.299-3.079-.481-3.079-.481l-3.078-4.81m17.412-6.06s.225-2.916 1.01-2.692.785 1.01.785 1.01-1.907 1.233-1.795 1.681" clip-rule="evenodd"/><path fill="#f7e4cd" d="M50.257 13.675s-1.585.334-1.731 1.731 1.731.289 2.02.193M38.618 13.77s-2.117.29-2.117 1.636c0 1.347 2.405 1.25 3.079.673"/><path fill="#f7e4cd" fill-rule="evenodd" d="M25.535 20.024s-3.656-2.213-4.04-.097c-.385 2.117-1.251 3.656.577 5.868l-1.25-.384-1.155-2.982-.385-2.886 2.213-2.31 2.5.193 1.444 1.155zm1.731-6.061s1.635-8.465 9.908-10.1c6.812-1.347 10.39.288 11.736 1.827 0 0-6.06-7.214-11.832-5.002s-10.005 6.253-9.908 8.85c.163 4.424.096 4.425.096 4.425m22.318-7.311s-2.79-.096-2.886 2.405c0 0 0 .385.192.77 0 0 2.213-2.502 3.56-1.155" clip-rule="evenodd"/><path fill="#f7e4cd" fill-rule="evenodd" d="M37.37 10.087s-.481-3.84-3.754-1.607c-2.117 1.443-1.924 3.463-1.54 3.848.385.385.28 1.16.574.628.292-.532.196-2.264 1.254-2.745 1.058-.48 2.793-1.018 3.465-.124" clip-rule="evenodd"/><path fill="#49728b" fill-rule="evenodd" d="m28.325 36.089-9.043 4.04s3.752 14.91 1.828 19.528l-1.347-.48-.096-5.676-2.501-10.774-1.059-2.983 9.428-6.349zm.929 8.247 1.283 1.565v5.772h-1.54s-.191-4.04-.191-4.522c0-.48.192-2.212.192-2.212m.288 7.601-4.329.191 1.25.866 3.079.481" clip-rule="evenodd"/><path fill="#335061" fill-rule="evenodd" d="m44.1 51.577 3.56-.097.866 8.85-3.656.482z" clip-rule="evenodd"/><path fill="#335061" fill-rule="evenodd" d="m45.063 51.577 5.387-.289s2.212-5.58 2.212-5.868 1.924-8.08 1.924-8.08l-4.329-4.522-.866-.77-2.308 2.31v8.946z" clip-rule="evenodd"/><path fill="#49728b" fill-rule="evenodd" d="m47.467 50.903-3.366.674.48 2.693c1.25.578 3.367-.962 3.367-.962m-.383-19.239 6.733 5.002.193-2.309-5.099-4.714z" clip-rule="evenodd"/><path fill="#fff" fill-rule="evenodd" d="m32.625 70.529-1.992-8.082-.99-5.963-.165-4.427 9.015-.48H44.1l-.51 10.102.866 7.792-.096 1.442-7.311.578z" clip-rule="evenodd"/><path fill="#dcd9d8" fill-rule="evenodd" d="M42.85 51.48s-.48 10.005.962 17.124c0 0-2.886 1.828-7.119 2.309l8.081-.289.962-.577-1.154-15.776-.289-3.368" clip-rule="evenodd"/><path fill="#fff" fill-rule="evenodd" d="m48.69 59.562 3.752-1.058 7.118-.385 1.058-3.27-1.924-5.676-2.212-.289-3.078.962-2.954 1.442L48.882 51l-1.222.48" clip-rule="evenodd"/><path fill="#dcd9d8" fill-rule="evenodd" d="M48.622 57.637s2.501-1.154 2.886-1.058l-1.058-5.291 1.25-.48s.866 5.001.866 5.578c0 0 5.387.29 5.868.29 0 0 1.155-2.214.866-4.522l1.058 3.078.097 1.732-1.54 2.309-1.731.384-2.886-.096-.962-1.25-3.367.48-1.058.385" clip-rule="evenodd"/><path fill="#fff" d="m44.842 50.808-2.117-5.387-2.212-3.175s.48-1.347 1.154-1.347h2.213l2.116.77-.192 3.56z"/><path fill="#dcd9d8" fill-rule="evenodd" d="M45.256 48.98s-2.694-5.195-2.694-5.965c0 0 .48-1.154 1.154-.866.674.289 2.117 1.058 2.117 1.058V41.38l-3.271-.674-2.212.289 3.751 8.85.77.096" clip-rule="evenodd"/><path fill="#fff" d="m33.49 36.282-2.665-.29-2.5-.77v.867l1.221 1.347 3.848 1.732"/><path fill="#dcd9d8" fill-rule="evenodd" d="M29.19 36.57s2.982 1.251 3.944.963l.096 1.153-2.693-.576-1.636-1.154z" clip-rule="evenodd"/><path fill="#d33833" fill-rule="evenodd" d="M48.68 41.227c-1.633-.048-3.107-.242-4.398-.606.087-.53-.077-1.049.055-1.43.36-.26.963-.255 1.507-.316-.47-.231-1.131-.323-1.674-.189-.013-.367-.178-.595-.277-.883.917-.327 3.084-2.475 4.303-1.764.58.339.827 2.27.872 3.21.038.78-.07 1.565-.388 1.978" clip-rule="evenodd"/><path stroke="#d33833" stroke-width="2.5" d="M48.68 41.227c-1.633-.048-3.107-.242-4.398-.606.087-.53-.077-1.049.055-1.43.36-.26.963-.255 1.507-.316-.47-.231-1.131-.323-1.674-.189-.013-.367-.178-.595-.277-.883.917-.327 3.084-2.475 4.303-1.764.58.339.827 2.27.872 3.21.038.78-.07 1.565-.388 1.978Z"/><path fill="#d33833" fill-rule="evenodd" d="m40.874 38.559-.015.372c-.51.335-1.332.33-1.891.612a4.9 4.9 0 0 1 2.035.515l-.037.933c-.934.64-1.787 1.592-2.887 2.191-.52.284-2.345 1.014-2.899.885-.313-.073-.34-.461-.466-.827-.267-.785-.88-2.033-.934-3.213-.068-1.491-.219-3.99 1.388-3.683 1.296.248 2.804.845 3.807 1.393.614.335.968.75 1.899.822" clip-rule="evenodd"/><path stroke="#d33833" stroke-width="2.5" d="m40.874 38.559-.015.372c-.51.335-1.332.33-1.891.612a4.9 4.9 0 0 1 2.035.515l-.037.933c-.934.64-1.787 1.592-2.887 2.191-.52.284-2.345 1.014-2.899.885-.313-.073-.34-.461-.466-.827-.267-.785-.88-2.033-.934-3.213-.068-1.491-.219-3.99 1.388-3.683 1.296.248 2.804.845 3.807 1.393.614.335.968.75 1.899.822Z"/><path fill="#d33833" fill-rule="evenodd" d="M41.802 40.338c-.143-.812-.308-1.044-.244-1.753 2.166-1.444 2.573 2.48.244 1.753" clip-rule="evenodd"/><path stroke="#d33833" stroke-width="2.5" d="M41.802 40.338c-.143-.812-.308-1.044-.244-1.753 2.166-1.444 2.573 2.48.244 1.753Z"/><path fill="#ef3d3a" fill-rule="evenodd" d="M44.938 40.996s-.674-.962-.193-1.25c.481-.29.962 0 1.251-.482.289-.48 0-.77.096-1.346.096-.578.578-.674 1.058-.77s1.828-.289 2.02.192l-.577-1.731-1.154-.385-3.656 2.117-.192 1.058v2.116m-8.754 3.655q-.172-2.25-.374-4.5c-.204-2.24.538-1.849 2.48-1.849.296 0 1.825.354 1.934.578.525 1.071-.877.833.604 1.641 1.251.682 3.46-.414 2.955-1.93-.282-.337-1.473-.105-1.9-.327l-2.255-1.168c-.956-.496-3.166-1.22-4.185-.526-2.583 1.756.163 6.145 1.084 7.978" clip-rule="evenodd"/><path fill="#231f20" fill-rule="evenodd" d="M37.368 10.087c-2.622-.61-3.924 1.097-4.72 2.869-.709-.172-.426-1.137-.247-1.63.47-1.29 2.36-3.008 3.906-2.775.665.1 1.565.708 1.061 1.536m12.776 2.986.125.005c.592 1.23 1.105 2.535 1.852 3.621-.5 1.166-3.791 2.198-3.74.104.711-.31 1.94-.063 2.57-.46-.364-1.002-.89-1.854-.807-3.27m-11.433.032c.563 1.03.745 2.113 1.545 2.892.36.351 1.06.778.712 1.754-.08.23-.673.742-1.015.843-1.25.369-4.16.076-3.175-1.481 1.034.048 2.422.67 3.194-.08-.593-.947-1.65-2.823-1.26-3.928M49.674 23.58c-1.88 1.208-3.978 2.522-7.06 2.217-.659-.573-.91-1.847-.27-2.689.333.573.124 1.626 1.052 1.784 1.749.3 3.784-1.07 5.042-1.548.78-1.315-.067-1.799-.77-2.645-1.439-1.734-3.368-3.884-3.298-6.48.581-.421.631.644.715.838.751 1.758 2.642 4.006 4.021 5.51.34.372.897.727.96.972.178.713-.466 1.566-.392 2.04m-24.798-1.272c-.59-.336-.73-1.819-1.422-1.86-.989-.06-.809 1.922-.805 3.082-.68-.618-.8-2.522-.3-3.5-.57-.28-.825.31-1.141.517.406-2.952 4.319-1.37 3.668 1.761m25.996 2.502c-.876 1.666-2.114 3.502-4.684 3.555-.052-.538-.092-1.357.003-1.681 1.965-.189 3.177-1.189 4.681-1.874M38.563 25.89c1.638.86 4.65.953 6.877.888.12.488.117 1.091.122 1.686-2.863.143-6.249-.565-7-2.575m-.31 1.607c1.133 2.845 5.028 2.518 8.312 2.439-.145.37-.458.806-.847.964-1.053.428-3.956.753-5.417-.023-.927-.493-1.522-1.606-2.03-2.259-.245-.315-1.466-1.12-.019-1.121" clip-rule="evenodd"/><path fill="#81b0c4" fill-rule="evenodd" d="M49.537 43.19c-1.33 2.278-2.602 4.617-4.18 6.626.662-1.945.945-5.2 1.045-7.681 1.384-.648 2.569.146 3.135 1.055" clip-rule="evenodd"/><path fill="#231f20" fill-rule="evenodd" d="M56.694 51.377c-1.49.298-2.535 1.745-3.988 1.652.798-1.125 2.197-1.6 3.988-1.652m.656 2.33c-1.213.128-2.639.324-3.87.223.583-.89 2.828-.583 3.87-.223m.422 2.009c-1.364.03-3.06.002-4.356-.107.767-.823 3.471-.305 4.356.107" clip-rule="evenodd"/><path fill="#dcd9d8" fill-rule="evenodd" d="M46.972 61.213c.195 1.713.874 3.448.79 5.324-.755.255-1.188.477-2.198.476-.072-1.595-.285-4.032-.221-5.552.497.033 1.23-.355 1.629-.248" clip-rule="evenodd"/><path fill="#f0d6b7" fill-rule="evenodd" d="M44.772 35.969c-.684.447-1.268 1.005-1.925 1.483-1.459.072-2.255-.102-3.327-.939.018-.067.126-.037.13-.12 1.561.696 3.546-.283 5.122-.424" clip-rule="evenodd"/><path fill="#81b0c4" fill-rule="evenodd" d="M36.576 46.612c.43-1.859 2.11-2.822 3.636-3.845 1.576 2 2.534 4.57 3.589 7.052-2.493-.752-5.04-1.97-7.225-3.207" clip-rule="evenodd"/><path fill="#231f20" fill-rule="evenodd" d="M45.343 61.462c-.064 1.52.15 3.956.22 5.55 1.011.002 1.444-.22 2.199-.475.085-1.876-.594-3.611-.79-5.324-.4-.106-1.132.282-1.629.249m-15.732-8.644c.666 6.125 1.63 11.274 3.4 16.698 3.929 1.192 8.664 1.296 12.136.22-.637-3.061-.358-6.788-.731-10.055-.28-2.455-.138-4.925-.523-7.43-4.207-.875-10.154-.205-14.282.568m15.277-.529c-.035 2.63.118 5.225.319 7.86 1.01-.152 1.695-.254 2.634-.46-.305-2.535-.268-5.388-.888-7.631-.718.007-1.35-.008-2.065.231m5.124-.424c-.48-.11-1.037-.004-1.495.005.215 2.144.737 4.51.921 6.761.72.023 1.106-.317 1.698-.432.032-1.975-.172-4.697-1.124-6.334m7.759 7.089c1.502-.365 2.446-2.205 2.026-4.094-.282-1.27-.784-3.66-1.321-4.473-.397-.601-1.474-1.388-2.334-.837-1.398.895-3.862 1.155-4.882 2.24.511 1.702.67 4.04.881 6.198 1.747.11 3.897-.48 5.35.145-1.014.329-2.33.331-3.207.81.716.346 2.393.276 3.487.011M43.8 49.819c-1.054-2.482-2.013-5.053-3.588-7.052-1.526 1.023-3.207 1.986-3.636 3.845 2.185 1.236 4.732 2.455 7.225 3.207m2.602-7.684c-.1 2.482-.383 5.737-1.045 7.682 1.578-2.01 2.85-4.349 4.18-6.626-.567-.91-1.752-1.704-3.135-1.056m-2.949-1.048c-.597-.064-1.105.688-1.882.362-.178.197-.34.41-.521.603 1.716 2.069 2.496 5.004 3.822 7.435.711-2.336.63-4.894.786-7.443-.977.062-1.52-.884-2.205-.957m-1.895-2.502c-.064.709.1.94.243 1.753 2.33.728 1.922-3.197-.243-1.753m-2.583-.848c-1.004-.548-2.511-1.145-3.807-1.392-1.607-.308-1.457 2.191-1.388 3.682.053 1.18.667 2.429.934 3.213.125.366.153.754.466.827.553.129 2.378-.6 2.899-.884 1.1-.6 1.953-1.553 2.887-2.192l.036-.933a4.9 4.9 0 0 0-2.035-.515c.56-.281 1.382-.277 1.892-.612l.014-.372c-.93-.072-1.285-.486-1.898-.822m-9.585-1.74c-.833.845 2.336 1.998 3.345 2.06-.006-.535.305-1.04.242-1.424-1.198-.21-2.773-.071-3.587-.637m10.26.396c-.004.083-.112.053-.13.12 1.072.838 1.868 1.01 3.326.939.658-.478 1.241-1.036 1.926-1.483-1.576.141-3.561 1.12-5.122.424m9.417 2.856c-.045-.94-.292-2.871-.872-3.21-1.22-.71-3.386 1.437-4.303 1.764.1.288.264.516.277.883.543-.134 1.204-.042 1.674.189-.544.06-1.147.057-1.507.316-.132.381.032.9-.055 1.43 1.29.364 2.766.558 4.398.606.317-.413.426-1.199.388-1.978m-21.08-2.435c-.261-.186-2.03-2.488-2.273-2.393-3.201 1.263-6.195 3.446-8.87 5.51 2.55 5.474 3.58 12.179 3.762 18.642 2.922 1.366 5.488 3.336 9.453 3.542-.459-3.246-.878-6.142-1.138-9.198-.996-.42-2.426.019-3.358-.13-.008-1.124 1.424-.493 1.543-1.248.09-.572-.788-.615-.502-1.515.729.265 1.112.85 1.889 1.07.71-1.554-.01-4.303.093-5.602.019-.243.121-1.35.667-1.156.484.172-.027 2.944.026 4.173.048 1.133-.137 2.228.322 2.94 3.83-.522 7.724-.86 11.87-.973-.913-.391-1.996-.762-3.184-1.431-.644-.363-2.673-1.119-2.86-1.73-.296-.975.779-1.494.962-2.33-1.934 1.056-2.31-1.01-2.768-2.474-.415-1.325-.65-2.315-.752-3.08-1.666-.794-3.448-1.598-4.882-2.617M47.376 34.7c2.668-1.294 3.148 4.834 2.103 6.808.161.589.717.814.944 1.343-1.489 2.667-3.142 5.156-4.66 7.791 1.13-.703 2.743-.126 4.072-.652.486-.192.838-1.305 1.206-2.195 1.012-2.449 2.075-5.536 2.548-7.872.106-.533.397-1.693.332-2.167-.116-.848-1.267-1.477-1.853-2.002-1.079-.97-1.758-1.822-2.883-2.728-.457.673-1.436 1.126-1.809 1.674M21.888 11.044c-1.271 1.399-1.005 4.019-.851 5.883 2.297-1.445 5.347.115 5.318 2.573 1.097-.03.41-1.37.211-2.234-.648-2.821 1.093-5.886.08-8.466-1.969.149-3.585.953-4.758 2.244m9.095-8.117c-2.878.816-6.566 2.906-7.748 5.491.915-.133 1.551-.594 2.454-.652.342-.022.789.144 1.181.046.782-.194 1.442-1.947 2.031-2.6.576-.636 1.267-.908 1.74-1.489.303-.146.753-.136.77-.593-.132-.14-.27-.248-.428-.203m14.979.767C42.975 2.009 37.92.741 34.742 2.325c-2.563 1.278-6.028 3.393-7.21 6.073 1.104 2.586-.326 4.956-.418 7.582-.048 1.397.658 2.616.712 4.137-.378.623-1.531.7-2.33.657-.269-1.345-.74-2.857-2.125-3.01-1.96-.214-3.394 1.409-3.483 3.104-.105 1.994 1.531 5.299 3.851 5.07.897-.09 1.117-.987 2.093-.978.53 1.056-.816 1.387-.954 2.143-.037.195.111.957.197 1.315.422 1.74 1.36 3.994 2.285 5.32 1.174 1.681 3.48 1.934 5.96 2.1.443-.955 2.075-.877 3.139-.627-1.275-.505-2.46-1.728-3.442-2.811-1.128-1.243-2.27-2.576-2.328-4.2 2.132 2.957 3.893 5.539 7.768 6.84 2.933.983 6.358-.451 8.611-2.034.935-.657 1.494-1.7 2.158-2.656 2.487-3.577 3.648-8.683 3.392-13.632-.105-2.04-.1-4.075-.785-5.448-.716-1.436-3.136-2.72-4.553-1.422-.263-1.396 1.178-2.26 2.87-1.757-1.206-1.557-2.473-3.429-4.188-4.397m5.564 46.05c2.334-1.16 6.695-3.123 8.158.005.54 1.152 1.173 3.1 1.453 4.29.395 1.68-.428 5.208-2.154 5.771-1.524.498-3.302.468-5.138.099-.216-.18-.457-.493-.625-.82-1.311-.051-2.538.07-3.574.609.098.97-.557 1.125-1.172 1.325-.456 1.806.912 4.166.584 5.814-.233 1.173-1.677 1.355-2.739 1.575-.034.652.047 1.196.12 1.748-.244.895-1.332 1.404-2.364 1.528-3.393.408-8.546.592-11.81-.582-.91-2.234-1.628-4.952-2.387-7.503-3.184.34-5.759-1.374-8.186-2.496-.84-.39-2.003-.605-2.317-1.274-.304-.647-.18-1.889-.255-3.061-.193-2.995-.357-5.883-1.148-8.95-.355-1.376-.974-2.59-1.406-3.916-.399-1.228-1.096-2.747-1.278-3.972-.27-1.817 1.44-1.918 2.534-2.705 1.69-1.217 3.018-1.89 4.848-2.988.542-.325 2.178-1.149 2.364-1.528.37-.752-.635-1.812-.903-2.4-.425-.933-.647-1.724-.708-2.644-1.535-.243-2.7-1.157-3.403-2.187-1.163-1.706-1.97-4.861-.963-7.261.079-.19.472-.561.53-.852.115-.571-.215-1.331-.236-1.94-.106-3.12.528-5.807 2.628-6.748.853-3.396 3.904-4.526 6.78-6.214 1.074-.63 2.259-1.034 3.482-1.484 4.39-1.615 11.123-1.311 14.766 1.444 1.544 1.168 4.013 3.635 4.897 5.42 2.332 4.715 2.166 12.595.535 18.33-.22.77-.538 1.902-.982 2.827-.31.646-1.272 1.938-1.155 2.508.12.59 2.195 2.165 2.64 2.594.8.772 2.322 1.798 2.445 2.773.132 1.037-.457 2.456-.756 3.457-.998 3.342-1.973 6.43-3.105 9.408" clip-rule="evenodd"/><path fill="#f7e4cd" fill-rule="evenodd" d="M35.955 26.617c.127-.168.823-.424 1.797.045 0 0-1.155.192-1.059 2.117l-.48-.097s-.498-1.745-.258-2.065" clip-rule="evenodd"/><path fill="#1d1919" fill-rule="evenodd" d="M44.39 43.16a.53.53 0 1 1-1.059 0 .53.53 0 0 1 1.058 0m.53 2.453a.53.53 0 1 1-1.059 0 .53.53 0 0 1 1.059 0" clip-rule="evenodd"/></g><defs><clipPath id="a"><path fill="#fff" d="M0 0h72v72H0z"/></clipPath></defs></svg>