<svg width="72" height="72" viewBox="0 0 72 72" fill="none" xmlns="http://www.w3.org/2000/svg">
<g clip-path="url(#clip0_6709_29904)">
<path fill-rule="evenodd" clip-rule="evenodd" d="M61.128 34.6949C61.128 48.9598 49.8223 60.5239 35.8759 60.5239C21.9298 60.5239 10.624 48.9598 10.624 34.6949C10.624 20.4296 21.9298 8.86531 35.8759 8.86531C49.8223 8.86531 61.128 20.4296 61.128 34.6949Z" fill="#D33833"/>
<path d="M11.6536 41.0918C11.6536 41.0918 9.8255 14.1563 34.6448 13.3866L32.9134 10.5007L19.4457 15.0221L15.5976 19.4471L12.2308 25.8926L10.3066 33.3961L10.8838 38.3983" fill="#EF3D3A"/>
<path d="M18.5809 17.0746C14.1504 21.6079 11.4087 27.867 11.4087 34.7912C11.4087 41.714 14.1504 47.9739 18.5809 52.5063C23.0136 57.0387 29.1224 59.8355 35.876 59.8355C42.6298 59.8355 48.739 57.0387 53.1713 52.5063C57.6015 47.9739 60.3437 41.714 60.3437 34.7912C60.3437 27.867 57.6015 21.6079 53.1713 17.0746C48.739 12.5431 42.6298 9.74634 35.876 9.74576C29.1224 9.74634 23.0136 12.5431 18.5809 17.0746ZM17.4594 53.6028C12.7508 48.7873 9.83984 42.1322 9.83984 34.7912C9.83984 27.4491 12.7508 20.7946 17.4594 15.9788C22.1669 11.1622 28.6833 8.17667 35.876 8.17754C43.0687 8.17667 49.5858 11.1622 54.2925 15.9788C59.0015 20.7946 61.9128 27.4496 61.9123 34.7912C61.9128 42.1322 59.0015 48.7873 54.2925 53.6028C49.5858 58.4192 43.0687 61.4043 35.876 61.4043C28.6833 61.4043 22.1669 58.4192 17.4594 53.6028Z" fill="#231F20"/>
<path fill-rule="evenodd" clip-rule="evenodd" d="M46.5063 34.8379L42.6582 35.4151L37.4634 35.9923L34.0963 36.0884L30.8257 35.9923L28.3244 35.2226L26.1118 32.8177L24.3802 27.9116L23.9955 26.8533L21.6867 26.0839L20.3399 23.8713L19.3779 20.6967L20.4363 17.9069L22.9372 17.0411L24.9574 18.0033L25.9196 20.1195L27.074 19.927L27.4586 19.4462L27.074 17.2336L26.9776 14.4437L27.5548 10.5959L27.5322 8.39795L29.2863 5.59367L32.3647 3.38101L37.752 1.07224L43.7162 1.93803L48.9109 5.68977L51.316 9.53761L52.8551 12.3275L53.2398 19.2537L52.0854 25.2181L49.9692 30.509L47.949 33.2988" fill="#F0D6B7"/>
<path fill-rule="evenodd" clip-rule="evenodd" d="M43.2354 51.4804L29.4789 52.0576V54.3664L30.6332 62.447L30.056 63.1206L20.4364 59.8497L19.7628 58.6953L18.8008 47.8251L16.5886 41.2835L16.1074 39.7444L23.8031 34.4536L26.2083 33.4914L28.3245 36.0887L30.1522 37.7242L32.2688 38.3975L33.2306 38.6861L34.385 43.6883L35.2508 44.7465L37.4635 43.9769L35.9241 46.9593L44.2934 50.9032L43.2354 51.4804Z" fill="#335061"/>
<path fill-rule="evenodd" clip-rule="evenodd" d="M20.4358 17.907L22.9367 17.0412L24.9569 18.0034L25.9191 20.1196L27.0735 19.9271L27.3621 18.7728L26.7849 16.5604L27.3621 11.2693L26.8809 8.38333L28.6125 6.36316L32.3642 3.3811L31.306 1.93812L26.0151 4.53548L23.8025 6.26705L22.552 8.96052L20.628 11.5579L20.0508 14.6363L20.4358 17.907Z" fill="#6D6B6D"/>
<path fill-rule="evenodd" clip-rule="evenodd" d="M24.3803 8.86463C24.3803 8.86463 25.8233 5.30539 31.5952 3.57382C37.3671 1.84225 31.8838 2.32305 31.8838 2.32305L25.6311 4.7282L23.226 7.13306L22.168 9.05713L24.3803 8.86463Z" fill="#DCD9D8"/>
<path fill-rule="evenodd" clip-rule="evenodd" d="M21.4938 17.2339C21.4938 17.2339 19.4736 10.4999 27.1695 9.53796L26.8809 8.38358L21.5901 9.63435L20.0508 14.6366L20.4358 17.9072L21.4938 17.2339Z" fill="#DCD9D8"/>
<path fill-rule="evenodd" clip-rule="evenodd" d="M24.5723 26.1805L25.8318 24.96C25.8318 24.96 26.4003 25.0261 26.4964 25.6994C26.5924 26.373 26.881 32.4335 31.0175 35.7044C31.3948 36.0028 27.9394 35.223 27.9394 35.223L24.8609 30.4133" fill="#F7E4CD"/>
<path fill-rule="evenodd" clip-rule="evenodd" d="M42.2733 24.3525C42.2733 24.3525 42.4976 21.4366 43.2828 21.6608C44.0681 21.8851 44.0681 22.6703 44.0681 22.6703C44.0681 22.6703 42.1611 23.9041 42.2733 24.3525Z" fill="#F7E4CD"/>
<path d="M50.2572 13.6746C50.2572 13.6746 48.6717 14.0093 48.5257 15.4061C48.3796 16.8032 50.2572 15.6947 50.5458 15.5986" fill="#F7E4CD"/>
<path d="M38.6175 13.7708C38.6175 13.7708 36.501 14.0594 36.501 15.406C36.501 16.7528 38.9062 16.6567 39.5795 16.0795" fill="#F7E4CD"/>
<path fill-rule="evenodd" clip-rule="evenodd" d="M25.5349 20.0235C25.5349 20.0235 21.8792 17.8108 21.4946 19.9274C21.1098 22.0437 20.2438 23.583 22.0718 25.7954L20.8212 25.4107L19.6669 22.4287L19.2822 19.5427L21.4946 17.2337L23.9958 17.4261L25.4388 18.5805L25.5349 20.0235Z" fill="#F7E4CD"/>
<path fill-rule="evenodd" clip-rule="evenodd" d="M27.2657 13.9634C27.2657 13.9634 28.9011 5.49801 37.1744 3.86254C43.9856 2.51625 47.5636 4.15114 48.9104 5.69022C48.9104 5.69022 42.8499 -1.52438 37.078 0.687994C31.3061 2.90065 27.0735 6.94099 27.1696 9.53806C27.3334 13.9616 27.2657 13.9634 27.2657 13.9634Z" fill="#F7E4CD"/>
<path fill-rule="evenodd" clip-rule="evenodd" d="M49.5842 6.65211C49.5842 6.65211 46.7946 6.55601 46.6982 9.05726C46.6982 9.05726 46.698 9.44196 46.8904 9.82666C46.8904 9.82666 49.1034 7.3254 50.45 8.67228" fill="#F7E4CD"/>
<path fill-rule="evenodd" clip-rule="evenodd" d="M37.3692 10.087C37.3692 10.087 36.8889 6.2478 33.6157 8.4798C31.4994 9.92278 31.6919 11.9429 32.0766 12.3276C32.4613 12.7126 32.3567 13.4875 32.6496 12.9556C32.9424 12.4237 32.846 10.6922 33.9043 10.2114C34.9625 9.73028 36.6972 9.19292 37.3692 10.087Z" fill="#F7E4CD"/>
<path fill-rule="evenodd" clip-rule="evenodd" d="M28.3245 36.0885L19.282 40.1288C19.282 40.1288 23.0337 55.0397 21.1096 59.6572L19.7628 59.1764L19.6666 53.5006L17.1658 42.7265L16.1074 39.7442L25.5347 33.3953L28.3245 36.0885Z" fill="#49728B"/>
<path fill-rule="evenodd" clip-rule="evenodd" d="M29.2543 44.3357L30.5372 45.9009V51.6729H28.9979C28.9979 51.6729 28.8057 47.6325 28.8057 47.1514C28.8057 46.6703 28.9979 44.9388 28.9979 44.9388" fill="#49728B"/>
<path fill-rule="evenodd" clip-rule="evenodd" d="M29.286 52.5391L24.957 52.7313L26.2078 53.5971L29.286 54.0781" fill="#49728B"/>
<path fill-rule="evenodd" clip-rule="evenodd" d="M44.1006 51.5765L47.6598 51.4803L48.5256 60.3307L44.87 60.8115L44.1006 51.5765Z" fill="#335061"/>
<path fill-rule="evenodd" clip-rule="evenodd" d="M45.0625 51.5767L50.4497 51.2881C50.4497 51.2881 52.6621 45.7086 52.6621 45.42C52.6621 45.1314 54.5861 37.3394 54.5861 37.3394L50.2572 32.8183L49.3914 32.0486L47.0827 34.3573V43.3038L45.0625 51.5767Z" fill="#335061"/>
<path fill-rule="evenodd" clip-rule="evenodd" d="M47.4673 50.9033L44.1006 51.5767L44.5814 54.2704C45.8319 54.8476 47.9484 53.3082 47.9484 53.3082" fill="#49728B"/>
<path fill-rule="evenodd" clip-rule="evenodd" d="M47.5645 34.0686L54.2982 39.0708L54.4907 36.762L49.3921 32.0484L47.5645 34.0686Z" fill="#49728B"/>
<path fill-rule="evenodd" clip-rule="evenodd" d="M32.6246 70.5288L30.6329 62.447L29.6423 56.4838L29.4785 52.0575L38.4927 51.5777L44.1009 51.5767L43.5909 61.6785L44.4567 69.4706L44.3606 70.9135L37.0498 71.4907L32.6246 70.5288Z" fill="white"/>
<path fill-rule="evenodd" clip-rule="evenodd" d="M42.8501 51.4805C42.8501 51.4805 42.3693 61.4853 43.8123 68.6038C43.8123 68.6038 40.9263 70.4318 36.6934 70.9126L44.7741 70.624L45.736 70.0468L44.5817 54.2705L44.2931 50.9031" fill="#DCD9D8"/>
<path fill-rule="evenodd" clip-rule="evenodd" d="M48.6899 59.562L52.4416 58.5038L59.5601 58.119L60.6184 54.8484L58.6943 49.1726L56.4819 48.884L53.4035 49.8459L50.45 51.288L48.8821 51.0003L47.6602 51.4804" fill="white"/>
<path fill-rule="evenodd" clip-rule="evenodd" d="M48.6221 57.6371C48.6221 57.6371 51.123 56.4829 51.508 56.5791L50.45 51.288L51.7005 50.8072C51.7005 50.8072 52.5663 55.8093 52.5663 56.3865C52.5663 56.3865 57.9532 56.6751 58.4343 56.6751C58.4343 56.6751 59.5887 54.4625 59.3001 52.1537L60.3584 55.2321L60.4545 56.9637L58.9154 59.2725L57.1838 59.6572L54.2979 59.5611L53.336 58.3106L49.9689 58.7914L48.9107 59.1764" fill="#DCD9D8"/>
<path d="M44.8416 50.8081L42.7254 45.4209L40.5127 42.2463C40.5127 42.2463 40.9935 40.8994 41.6671 40.8994C42.3407 40.8994 43.8797 40.8994 43.8797 40.8994L45.996 41.6691L45.8038 45.2284L44.8416 50.8081Z" fill="white"/>
<path fill-rule="evenodd" clip-rule="evenodd" d="M45.2557 48.9792C45.2557 48.9792 42.562 43.7847 42.562 43.0151C42.562 43.0151 43.0428 41.8607 43.7164 42.1493C44.3899 42.4379 45.8329 43.2073 45.8329 43.2073V41.3796L42.562 40.7061L40.3496 40.9947L44.1013 49.845L44.8707 49.9414" fill="#DCD9D8"/>
<path d="M33.4905 36.2823L30.8255 35.9926L28.3242 35.2229V36.0887L29.5464 37.4364L33.3943 39.168" fill="white"/>
<path fill-rule="evenodd" clip-rule="evenodd" d="M29.19 36.5706C29.19 36.5706 32.1723 37.8214 33.1343 37.5328L33.23 38.686L30.5369 38.11L28.9014 36.9556L29.19 36.5706Z" fill="#DCD9D8"/>
<path fill-rule="evenodd" clip-rule="evenodd" d="M48.6798 41.2271C47.0475 41.1791 45.5728 40.9852 44.2816 40.621C44.3693 40.0917 44.2051 39.5722 44.337 39.191C44.6969 38.9319 45.3001 38.9359 45.8441 38.875C45.3736 38.6438 44.7128 38.5523 44.1699 38.686C44.1572 38.3186 43.9924 38.0909 43.8926 37.8034C44.8103 37.4759 46.9768 35.3284 48.1955 36.0395C48.7762 36.3778 49.0229 38.3096 49.068 39.249C49.1055 40.0282 48.9973 40.8144 48.6798 41.2271Z" fill="#D33833"/>
<path d="M48.6798 41.2271C47.0475 41.1791 45.5728 40.9852 44.2816 40.621C44.3693 40.0917 44.2051 39.5722 44.337 39.191C44.6969 38.9319 45.3001 38.9359 45.8441 38.875C45.3736 38.6438 44.7128 38.5523 44.1699 38.686C44.1572 38.3186 43.9924 38.0909 43.8926 37.8034C44.8103 37.4759 46.9768 35.3284 48.1955 36.0395C48.7762 36.3778 49.0229 38.3096 49.068 39.249C49.1055 40.0282 48.9973 40.8144 48.6798 41.2271Z" stroke="#D33833" stroke-width="2.5"/>
<path fill-rule="evenodd" clip-rule="evenodd" d="M40.8737 38.5585C40.8694 38.682 40.8642 38.8064 40.8593 38.9311C40.3496 39.2659 39.5269 39.2618 38.9676 39.5432C39.7921 39.5793 40.4411 39.7778 41.0027 40.0578C40.9903 40.3689 40.9785 40.6797 40.9664 40.9908C40.0322 41.6303 39.1788 42.5827 38.0789 43.1824C37.5589 43.466 35.7337 44.1959 35.1804 44.0669C34.8674 43.9942 34.8392 43.6057 34.7141 43.2396C34.4475 42.4554 33.8336 41.2072 33.7801 40.0269C33.7119 38.536 33.5614 36.0373 35.1681 36.3444C36.4643 36.5917 37.9718 37.1888 38.9754 37.7372C39.5886 38.0725 39.9433 38.4869 40.8737 38.5585Z" fill="#D33833"/>
<path d="M40.8737 38.5585C40.8694 38.682 40.8642 38.8064 40.8593 38.9311C40.3496 39.2659 39.5269 39.2618 38.9676 39.5432C39.7921 39.5793 40.4411 39.7778 41.0027 40.0578C40.9903 40.3689 40.9785 40.6797 40.9664 40.9908C40.0322 41.6303 39.1788 42.5827 38.0789 43.1824C37.5589 43.466 35.7337 44.1959 35.1804 44.0669C34.8674 43.9942 34.8392 43.6057 34.7141 43.2396C34.4475 42.4554 33.8336 41.2072 33.7801 40.0269C33.7119 38.536 33.5614 36.0373 35.1681 36.3444C36.4643 36.5917 37.9718 37.1888 38.9754 37.7372C39.5886 38.0725 39.9433 38.4869 40.8737 38.5585Z" stroke="#D33833" stroke-width="2.5"/>
<path fill-rule="evenodd" clip-rule="evenodd" d="M41.8016 40.3377C41.6591 39.5256 41.4943 39.2939 41.5581 38.5854C43.724 37.1412 44.1306 41.0658 41.8016 40.3377Z" fill="#D33833"/>
<path d="M41.8016 40.3377C41.6591 39.5256 41.4943 39.2939 41.5581 38.5854C43.724 37.1412 44.1306 41.0658 41.8016 40.3377Z" stroke="#D33833" stroke-width="2.5"/>
<path fill-rule="evenodd" clip-rule="evenodd" d="M44.9377 40.9961C44.9377 40.9961 44.2641 40.0339 44.7452 39.7453C45.2263 39.4567 45.7074 39.7456 45.996 39.2645C46.2846 38.7834 45.996 38.4948 46.0921 37.9176C46.1882 37.3405 46.6696 37.2441 47.1504 37.148C47.6312 37.0519 48.9783 36.8594 49.1705 37.3405L48.5933 35.6089L47.4389 35.2242L43.7833 37.3405L43.5908 38.3987V40.515" fill="#EF3D3A"/>
<path fill-rule="evenodd" clip-rule="evenodd" d="M34.8368 44.1704C34.7213 42.6691 34.599 41.1699 34.4629 39.67C34.2593 37.4305 35.0008 37.8213 36.9421 37.8213C37.2386 37.8213 38.7677 38.1748 38.8771 38.3985C39.4018 39.47 37.9998 39.2319 39.4814 40.04C40.7322 40.722 42.9417 39.6259 42.4364 38.1099C42.1535 37.7728 40.9628 38.0048 40.536 37.7835C39.7845 37.3939 39.0329 37.0043 38.2814 36.6147C37.3252 36.1186 35.1153 35.3954 34.0958 36.0886C31.5128 37.8452 34.2589 42.2345 35.1803 44.067" fill="#EF3D3A"/>
<path fill-rule="evenodd" clip-rule="evenodd" d="M37.3684 10.0869C34.7465 9.47626 33.4436 11.1842 32.6489 12.9556C31.9392 12.7836 32.2216 11.8185 32.4009 11.3267C32.8702 10.0361 34.7615 8.31813 36.3068 8.55102C36.9718 8.65116 37.8718 9.25924 37.3684 10.0869Z" fill="#231F20"/>
<path fill-rule="evenodd" clip-rule="evenodd" d="M50.1441 13.073C50.1853 13.0748 50.2272 13.0762 50.2685 13.0779C50.8609 14.3088 51.3738 15.6127 52.1212 16.6992C51.6205 17.8655 48.3297 18.8975 48.3805 16.8034C49.0921 16.4923 50.3207 16.7399 50.9516 16.3425C50.5868 15.3414 50.0604 14.4892 50.1441 13.073Z" fill="#231F20"/>
<path fill-rule="evenodd" clip-rule="evenodd" d="M38.7114 13.1051C39.2735 14.1356 39.4565 15.2184 40.2556 15.9974C40.6155 16.348 41.3154 16.7754 40.9685 17.7506C40.8874 17.9806 40.2949 18.4934 39.9529 18.5941C38.7036 18.963 35.7925 18.6703 36.7783 17.1128C37.8115 17.161 39.2002 17.7838 39.9725 17.0337C39.3795 16.0857 38.3222 14.2101 38.7114 13.1051Z" fill="#231F20"/>
<path fill-rule="evenodd" clip-rule="evenodd" d="M49.6744 23.5791C47.7933 24.7875 45.6958 26.1015 42.6136 25.7967C41.955 25.2241 41.7039 23.95 42.3438 23.1085C42.6768 23.681 42.4676 24.7341 43.3957 24.8925C45.1446 25.1918 47.18 23.8227 48.438 23.3442C49.2181 22.0291 48.3708 21.5454 47.6681 20.699C46.2294 18.9648 44.2996 16.8153 44.3697 14.2191C44.9512 13.7975 45.0014 14.8627 45.0848 15.0566C45.8361 16.8148 47.7266 19.0632 49.1064 20.5679C49.4452 20.9385 50.0031 21.2941 50.0651 21.5391C50.2441 22.2516 49.5996 23.1053 49.6744 23.5791Z" fill="#231F20"/>
<path fill-rule="evenodd" clip-rule="evenodd" d="M24.8763 22.3072C24.2867 21.9707 24.1464 20.4885 23.4542 20.4463C22.465 20.3863 22.6454 22.3692 22.6493 23.5288C21.9684 22.9106 21.8487 21.0073 22.3489 20.0299C21.7788 19.7499 21.5242 20.3387 21.208 20.5462C21.6144 17.5938 25.5268 19.1768 24.8763 22.3072Z" fill="#231F20"/>
<path fill-rule="evenodd" clip-rule="evenodd" d="M50.8721 24.8088C49.9965 26.4754 48.7579 28.3109 46.1885 28.3643C46.1363 27.826 46.0962 27.007 46.1914 26.6829C48.1556 26.4942 49.3682 25.4945 50.8721 24.8088Z" fill="#231F20"/>
<path fill-rule="evenodd" clip-rule="evenodd" d="M38.5625 25.8891C40.2013 26.7508 43.213 26.8435 45.4404 26.7782C45.5599 27.2663 45.557 27.8691 45.5616 28.4642C42.6985 28.6071 39.3133 27.8986 38.5625 25.8891Z" fill="#231F20"/>
<path fill-rule="evenodd" clip-rule="evenodd" d="M38.2515 27.4958C39.3847 30.341 43.2796 30.0135 46.5641 29.935C46.4195 30.3044 46.1061 30.7407 45.7165 30.8986C44.664 31.3269 41.761 31.6518 40.2999 30.8758C39.3732 30.3832 38.7778 29.2701 38.2701 28.6175C38.0249 28.3024 36.804 27.4975 38.2515 27.4958Z" fill="#231F20"/>
<path fill-rule="evenodd" clip-rule="evenodd" d="M49.5374 43.1904C48.2076 45.4681 46.9352 47.8074 45.3574 49.8164C46.0189 47.8715 46.302 44.6164 46.4018 42.1348C47.7857 41.4872 48.9706 42.2805 49.5374 43.1904Z" fill="#81B0C4"/>
<path fill-rule="evenodd" clip-rule="evenodd" d="M56.6936 51.3767C55.2047 51.6748 54.1586 53.1218 52.7061 53.0289C53.5043 51.9036 54.9031 51.4292 56.6936 51.3767Z" fill="#231F20"/>
<path fill-rule="evenodd" clip-rule="evenodd" d="M57.3502 53.7066C56.1367 53.8348 54.7113 54.0313 53.4805 53.93C54.0631 53.04 56.3081 53.3471 57.3502 53.7066Z" fill="#231F20"/>
<path fill-rule="evenodd" clip-rule="evenodd" d="M57.7715 55.7159C56.4076 55.7455 54.7124 55.7183 53.416 55.6095C54.1828 54.7859 56.887 55.3039 57.7715 55.7159Z" fill="#231F20"/>
<path fill-rule="evenodd" clip-rule="evenodd" d="M46.9716 61.213C47.1673 62.9259 47.8464 64.6614 47.7612 66.5373C47.0071 66.7916 46.574 67.014 45.5636 67.0127C45.4923 65.4184 45.279 62.9813 45.3428 61.4615C45.8398 61.4944 46.5725 61.1065 46.9716 61.213Z" fill="#DCD9D8"/>
<path fill-rule="evenodd" clip-rule="evenodd" d="M44.7724 35.969C44.0875 36.416 43.5043 36.9742 42.8466 37.4515C41.388 37.5237 40.5921 37.3505 39.5205 36.513C39.5381 36.4458 39.6458 36.4758 39.6498 36.3932C41.2111 37.089 43.1958 36.1098 44.7724 35.969Z" fill="#F0D6B7"/>
<path fill-rule="evenodd" clip-rule="evenodd" d="M36.5762 46.6119C37.0051 44.7531 38.686 43.7904 40.2123 42.7667C41.7878 44.7662 42.7459 47.3375 43.801 49.8188C41.3081 49.0674 38.761 47.8481 36.5762 46.6119Z" fill="#81B0C4"/>
<path fill-rule="evenodd" clip-rule="evenodd" d="M45.3432 61.4616C45.2794 62.9813 45.4927 65.4185 45.5639 67.0128C46.5743 67.0141 47.0075 66.7917 47.7616 66.5374C47.8467 64.6615 47.1677 62.926 46.972 61.2131C46.5729 61.1066 45.8401 61.4945 45.3432 61.4616ZM29.6107 52.8185C30.2769 58.9434 31.2419 64.0921 33.0118 69.5158C36.9399 70.7085 41.6754 70.8124 45.1475 69.7362C44.51 66.675 44.7885 62.9482 44.4159 59.6815C44.1351 57.2262 44.2783 54.7558 43.8933 52.2508C39.6861 51.3755 33.7395 52.0462 29.6107 52.8185ZM44.8881 52.2892C44.8526 54.9197 45.0058 57.5145 45.2067 60.1483C46.2167 59.9966 46.9022 59.8954 47.8407 59.6897C47.5359 57.1541 47.5734 54.3009 46.9527 52.058C46.2352 52.0649 45.6035 52.0497 44.8881 52.2892ZM50.0121 51.8652C49.5327 51.7553 48.9746 51.861 48.5166 51.8699C48.7319 54.0141 49.2542 56.3803 49.438 58.6311C50.1587 58.6535 50.5437 58.3137 51.1364 58.1994C51.1682 56.2236 50.9639 53.5016 50.0121 51.8652ZM57.7707 58.954C59.2728 58.5892 60.2174 56.7494 59.7972 54.86C59.5152 53.5902 59.0131 51.1991 58.4757 50.3868C58.0786 49.7859 57.0018 48.9993 56.1421 49.5498C54.7436 50.4454 52.2798 50.7053 51.26 51.7894C51.7713 53.4921 51.9301 55.8308 52.141 57.9883C53.8882 58.0972 56.0379 57.5075 57.491 58.1333C56.4766 58.4619 55.1603 58.4645 54.2838 58.9434C55.0001 59.2893 56.6772 59.2194 57.7707 58.954ZM43.8018 49.8188C42.7467 47.3375 41.7885 44.7661 40.2131 42.7667C38.6867 43.7903 37.0059 44.7531 36.5769 46.6119C38.7618 47.848 41.3089 49.0673 43.8018 49.8188ZM46.4026 42.135C46.3027 44.6165 46.0196 47.8717 45.3582 49.8166C46.9359 47.8076 48.2083 45.4682 49.5382 43.1906C48.9714 42.2807 47.7864 41.4873 46.4026 42.135ZM43.4543 41.0874C42.8566 41.023 42.3493 41.7745 41.5721 41.4495C41.394 41.6464 41.2321 41.8596 41.0506 42.0518C42.7672 44.1205 43.5472 47.0555 44.873 49.4866C45.5844 47.1513 45.5025 44.5929 45.6592 42.044C44.6817 42.1061 44.1394 41.1601 43.4543 41.0874ZM41.5585 38.5852C41.4947 39.2937 41.6595 39.5255 41.8021 40.3376C44.1311 41.0657 43.7244 37.1411 41.5585 38.5852ZM38.9759 37.7373C37.9724 37.189 36.4648 36.5919 35.1686 36.3446C33.5619 36.0372 33.7124 38.5362 33.7806 40.0271C33.8342 41.2074 34.448 42.4556 34.7146 43.2397C34.8397 43.6059 34.8679 43.9944 35.181 44.0671C35.7343 44.196 37.5594 43.4662 38.0795 43.1826C39.1793 42.5829 40.0327 41.6305 40.9669 40.991C40.979 40.6799 40.9909 40.369 41.0033 40.0579C40.4417 39.778 39.7926 39.5794 38.9681 39.5434C39.5274 39.262 40.3502 39.266 40.8598 38.9313C40.8647 38.8066 40.8699 38.6822 40.8743 38.5587C39.9438 38.4871 39.5892 38.0727 38.9759 37.7373ZM29.3906 35.9962C28.5577 36.8418 31.7266 37.9945 32.7356 38.0565C32.73 37.5215 33.0405 37.017 32.978 36.6332C31.7796 36.4228 30.2048 36.5616 29.3906 35.9962ZM39.6506 36.3933C39.6466 36.4759 39.5389 36.4459 39.5213 36.5131C40.5929 37.3506 41.3888 37.5238 42.8474 37.4516C43.5051 36.9743 44.0884 36.4161 44.7732 35.9691C43.1966 36.11 41.2119 37.0892 39.6506 36.3933ZM49.0681 39.249C49.023 38.3096 48.7763 36.3778 48.1956 36.0395C46.9769 35.3281 44.8104 37.4759 43.8927 37.8034C43.9925 38.0909 44.1573 38.3186 44.17 38.686C44.7129 38.5523 45.3738 38.6438 45.8442 38.875C45.3002 38.9359 44.697 38.9318 44.3371 39.191C44.2052 39.5722 44.3694 40.0917 44.2817 40.621C45.5729 40.9852 47.0476 41.1791 48.6799 41.227C48.9974 40.8143 49.1056 40.0282 49.0681 39.249ZM27.9884 36.8141C27.7269 36.6277 25.9576 34.3256 25.7152 34.4211C22.5136 35.6837 19.5199 37.8669 16.8448 39.9318C19.3954 45.4048 20.425 52.11 20.6069 58.5727C23.5287 59.9393 26.0951 61.9093 30.0599 62.115C29.6011 58.8689 29.1823 55.9728 28.9218 52.9166C27.9256 52.4967 26.4964 52.9356 25.5641 52.7864C25.5562 51.6629 26.9879 52.2944 27.1072 51.5389C27.197 50.9674 26.3194 50.9242 26.6052 50.0243C27.334 50.2892 27.7167 50.8744 28.494 51.0942C29.2043 49.5404 28.4841 46.7912 28.5865 45.4925C28.6059 45.2486 28.7082 44.1416 29.2544 44.3358C29.7378 44.5078 29.2268 47.2801 29.2798 48.5092C29.328 49.6416 29.143 50.7373 29.6016 51.4482C33.4328 50.9268 37.326 50.5897 41.4714 50.4759C40.5594 50.0846 39.476 49.7143 38.2882 49.0448C37.6443 48.6818 35.6146 47.9265 35.4288 47.3149C35.1323 46.3403 36.2066 45.8212 36.3904 44.9857C34.4565 46.0405 34.0791 43.9747 33.6217 42.5113C33.2072 41.1858 32.9712 40.1956 32.8695 39.4311C31.2036 38.6369 29.4224 37.8326 27.9884 36.8141ZM47.376 34.6996C50.0435 33.4061 50.5243 39.5338 49.4787 41.5078C49.6404 42.0966 50.1962 42.322 50.423 42.8512C48.9344 45.5178 47.2811 48.007 45.7622 50.6422C46.8921 49.9389 48.5059 50.5164 49.8354 49.9899C50.3214 49.7977 50.6732 48.6852 51.0412 47.7951C52.0533 45.3465 53.1159 42.2593 53.5886 39.9226C53.6954 39.3901 53.9863 38.23 53.9211 37.7561C53.8048 36.9076 52.6536 36.2785 52.068 35.7538C50.9893 34.7847 50.3099 33.9319 49.1847 33.0257C48.7284 33.6993 47.7492 34.1518 47.376 34.6996ZM21.8879 11.044C20.6168 12.4425 20.8829 15.063 21.0368 16.9273C23.3343 15.482 26.3837 17.0416 26.3549 19.4998C27.4518 19.4707 26.7647 18.1299 26.5663 17.2661C25.9179 14.4448 27.6587 11.3796 26.6452 8.7996C24.6775 8.9488 23.0609 9.75254 21.8879 11.044ZM30.9826 2.92697C28.1051 3.74255 24.4173 5.83341 23.2348 8.41837C24.1504 8.28532 24.786 7.82357 25.6892 7.76643C26.0306 7.7442 26.4778 7.90957 26.8701 7.81203C27.6519 7.61809 28.3117 5.86516 28.9015 5.21294C29.4765 4.576 30.1675 4.30386 30.6404 3.72321C30.9443 3.5766 31.3935 3.5867 31.4108 3.13043C31.2791 2.9896 31.1404 2.88224 30.9826 2.92697ZM45.9616 3.69405C42.975 2.00895 37.9196 0.74144 34.7426 2.32525C32.179 3.60344 28.7138 5.71826 27.5324 8.39816C28.6361 10.9843 27.2055 13.3539 27.1142 15.9796C27.0657 17.3767 27.772 18.5963 27.8261 20.1172C27.4484 20.7402 26.2946 20.817 25.4959 20.7743C25.227 19.4289 24.7564 17.9166 23.3709 17.7648C21.4105 17.5504 19.9771 19.1729 19.888 20.8684C19.7826 22.8623 21.4195 26.167 23.7395 25.9375C24.6358 25.8489 24.8559 24.9505 25.8324 24.9598C26.3617 26.0158 25.016 26.3473 24.8776 27.1026C24.8415 27.2977 24.9892 28.0602 25.0751 28.4177C25.4965 30.1588 26.4359 32.4122 27.3605 33.7377C28.534 35.4191 30.8397 35.6724 33.3201 35.8372C33.7631 34.8828 35.3952 34.9613 36.4586 35.211C35.1842 34.7062 33.9993 33.4826 33.0174 32.3995C31.8895 31.1568 30.747 29.8238 30.6893 28.1996C32.8207 31.1565 34.5816 33.7388 38.4573 35.0395C41.39 36.0231 44.815 34.5888 47.0684 33.0064C48.0034 32.3487 48.5616 31.3051 49.2262 30.3499C51.713 26.7727 52.8735 21.6669 52.6184 16.7181C52.5133 14.6771 52.5179 12.6431 51.8331 11.27C51.1174 9.83421 48.6966 8.54967 47.2796 9.84835C47.017 8.45213 48.458 7.58865 50.1506 8.09109C48.9437 6.53355 47.677 4.662 45.9616 3.69405ZM51.526 49.7444C53.8599 48.5842 58.2206 46.6215 59.6838 49.7487C60.2237 50.9014 60.8572 52.8499 61.1368 54.0399C61.5319 55.7186 60.7086 59.247 58.983 59.8103C57.459 60.3078 55.6807 60.2775 53.8449 59.9087C53.6287 59.7289 53.3881 59.4155 53.2198 59.0888C51.909 59.038 50.6816 59.1592 49.6461 59.698C49.7442 60.6674 49.0886 60.823 48.4739 61.0226C48.0182 62.8295 49.3855 65.1891 49.0583 66.8367C48.8248 68.0105 47.3807 68.192 46.3192 68.4116C46.2846 69.0638 46.3657 69.6083 46.4381 70.1602C46.1954 71.0545 45.1068 71.5636 44.0754 71.6882C40.6818 72.0963 35.5291 72.2796 32.2649 71.1059C31.3541 68.8716 30.6365 66.1542 29.8778 63.603C26.6943 63.9429 24.1194 62.2293 21.6921 61.1066C20.8517 60.717 19.6891 60.5024 19.3751 59.8334C19.0707 59.1857 19.1953 57.9445 19.1198 56.7719C18.9275 53.7772 18.763 50.8886 17.9721 47.8223C17.617 46.4463 16.9981 45.2322 16.5663 43.9063C16.1673 42.6775 15.47 41.1589 15.2882 39.9335C15.0186 38.1174 16.7287 38.0164 17.8222 37.2294C19.5126 36.0124 20.8395 35.3394 22.6703 34.241C23.2125 33.9158 24.8477 33.0924 25.0337 32.7132C25.4035 31.9614 24.399 30.9014 24.1305 30.3121C23.7057 29.3802 23.4842 28.5886 23.4233 27.6691C21.8876 27.4264 20.7234 26.5124 20.0201 25.4818C18.8569 23.7762 18.0501 20.6208 19.0566 18.2205C19.1355 18.0315 19.5292 17.6598 19.5872 17.3694C19.7018 16.7977 19.3717 16.0376 19.3512 15.4295C19.2454 12.3098 19.879 9.6218 21.9792 8.68098C22.8318 5.2845 25.8834 4.15524 28.7584 2.46724C29.8331 1.83637 31.0178 1.4332 32.2413 0.982994C36.6303 -0.632278 43.3643 -0.328094 47.0069 2.42683C48.5515 3.59507 51.0204 6.06169 51.9035 7.84752C54.2359 12.5623 54.0703 20.4418 52.4389 26.1771C52.2195 26.947 51.9015 28.0789 51.4573 29.0039C51.1477 29.6497 50.1852 30.9421 50.3021 31.5123C50.4224 32.1019 52.4966 33.6768 52.9413 34.1057C53.7422 34.8782 55.2636 35.9036 55.3869 36.8785C55.5193 37.916 54.9297 39.3353 54.631 40.3364C53.6325 43.6775 52.6582 46.7658 51.526 49.7444Z" fill="#231F20"/>
<path fill-rule="evenodd" clip-rule="evenodd" d="M35.955 26.6172C36.0816 26.4487 36.7777 26.1927 37.7517 26.6617C37.7517 26.6617 36.5974 26.8542 36.6934 28.7788L36.2124 28.6824C36.2124 28.6824 35.7152 26.9373 35.955 26.6172Z" fill="#F7E4CD"/>
<path fill-rule="evenodd" clip-rule="evenodd" d="M44.3893 43.1595C44.3893 43.4516 44.1524 43.6885 43.8601 43.6885C43.568 43.6885 43.3311 43.4516 43.3311 43.1595C43.3311 42.8675 43.568 42.6303 43.8601 42.6303C44.1524 42.6303 44.3893 42.8675 44.3893 43.1595Z" fill="#1D1919"/>
<path fill-rule="evenodd" clip-rule="evenodd" d="M44.9186 45.6127C44.9186 45.9048 44.6817 46.1416 44.3893 46.1416C44.0973 46.1416 43.8604 45.9048 43.8604 45.6127C43.8604 45.3206 44.0973 45.0834 44.3893 45.0834C44.6817 45.0834 44.9186 45.3206 44.9186 45.6127Z" fill="#1D1919"/>
</g>
<defs>
<clipPath id="clip0_6709_29904">
<rect width="72" height="72" fill="white"/>
</clipPath>
</defs>
</svg>
