<svg xmlns="http://www.w3.org/2000/svg" width="72" height="72" fill="none" viewBox="0 0 72 72"><g clip-path="url(#a)"><path fill="url(#b)" d="M22.883 4.119 4.118 22.884A14.07 14.07 0 0 0 0 32.829v33.547a5.627 5.627 0 0 0 5.625 5.625h33.548c3.734 0 7.3-1.485 9.944-4.117l18.765-18.765A14.07 14.07 0 0 0 72 39.174V5.626A5.627 5.627 0 0 0 66.375.001H32.828a14.1 14.1 0 0 0-9.946 4.118"/><path fill="#000" d="M54 18.002H9v45h45z"/><path fill="#fff" d="M33.75 52.877H14.625v4.5H33.75z"/></g><defs><linearGradient id="b" x1=".956" x2="70.448" y1="70.561" y2="2.038" gradientUnits="userSpaceOnUse"><stop stop-color="#ff9419"/><stop offset=".43" stop-color="#ff021d"/><stop offset=".99" stop-color="#e600ff"/></linearGradient><clipPath id="a"><path fill="#fff" d="M0 .001h72v72H0z"/></clipPath></defs></svg>