<svg xmlns="http://www.w3.org/2000/svg" width="76" height="80" fill="none" viewBox="0 0 76 80"><g filter="url(#a)"><path fill="#2684ff" d="M71.165 34.05 40.922 3.044 37.954 0 15.225 23.303 4.835 34.05c-1.113 1.142-1.113 2.949 0 3.995l20.78 21.305L37.954 72l22.728-23.303.371-.38 10.112-10.272c1.113-1.142 1.113-2.948 0-3.995M37.954 46.7l-10.39-10.652 10.39-10.653 10.39 10.653z"/><path fill="url(#b)" d="M37.96 25.4c-6.782-6.934-6.792-18.371-.01-25.4L15.17 23.367 27.535 36z"/><path fill="url(#c)" d="M48.419 35.905 37.96 46.7c6.856 7.03 6.846 18.271-.01 25.3l22.79-23.367z"/></g><defs><linearGradient id="b" x1="36.118" x2="21.264" y1="14.576" y2="29.104" gradientUnits="userSpaceOnUse"><stop offset=".176" stop-color="#0052cc"/><stop offset="1" stop-color="#2684ff"/></linearGradient><linearGradient id="c" x1="39.969" x2="54.793" y1="57.258" y2="42.8" gradientUnits="userSpaceOnUse"><stop offset=".176" stop-color="#0052cc"/><stop offset="1" stop-color="#2684ff"/></linearGradient><filter id="a" width="80" height="80" x="-2" y="0" color-interpolation-filters="sRGB" filterUnits="userSpaceOnUse"><feFlood flood-opacity="0" result="BackgroundImageFix"/><feColorMatrix in="SourceAlpha" result="hardAlpha" values="0 0 0 0 0 0 0 0 0 0 0 0 0 0 0 0 0 0 127 0"/><feOffset dy="4"/><feGaussianBlur stdDeviation="2"/><feComposite in2="hardAlpha" operator="out"/><feColorMatrix values="0 0 0 0 0 0 0 0 0 0 0 0 0 0 0 0 0 0 0.25 0"/><feBlend in2="BackgroundImageFix" result="effect1_dropShadow_6218_26586"/><feBlend in="SourceGraphic" in2="effect1_dropShadow_6218_26586" result="shape"/></filter></defs></svg>