<svg xmlns="http://www.w3.org/2000/svg" width="72" height="72" fill="none" viewBox="0 0 72 72"><g fill="#fff" clip-path="url(#a)"><path d="M45.283 22.74a8.9 8.9 0 0 0-2.792-1.649l-1.568 32.02 7.955-22.126a8.46 8.46 0 0 0-.61-4.643 8.43 8.43 0 0 0-2.985-3.602M32.16 20.823l4.666 31.982 4.55-31.982a13.28 13.28 0 0 0-9.216 0m-3.855 1.88a8.47 8.47 0 0 0-2.98 3.604 8.5 8.5 0 0 0-.615 4.64l7.954 22.127-1.568-32.02a8.9 8.9 0 0 0-2.791 1.649m-15.992 3.029C17.59 35.05 23.02 44.905 28.298 53.993c-1.874-7.669-3.824-20.822-6.501-24.465a11.5 11.5 0 0 0-4.298-3.015 11.44 11.44 0 0 0-5.186-.782M2.91 30.41l21.684 25.232-13.423-29.757a10.34 10.34 0 0 0-4.672 1.267A10.4 10.4 0 0 0 2.91 30.41m45.398 6.826-3.595 17.295c4.627-8.092 9.217-16.03 13.691-24.12a10.23 10.23 0 0 0-6.169 1.746 10.27 10.27 0 0 0-3.927 5.08m11.39-6.827L48.225 56.026l20.116-22.05a11.75 11.75 0 0 0-8.643-3.566M.078 41.838C7.153 47.32 14.15 52.92 21.264 58.365L2.143 31.292A19.2 19.2 0 0 0 .078 41.837m70.747-4.677a7.7 7.7 0 0 0-1.683-2.34L51.819 58.672c6.884-5.138 13.538-10.392 20.155-15.645a11.53 11.53 0 0 0-1.148-5.867M.082 52.843l18.472 8.552C12.434 55.259 6.239 49.315.082 43.256zm71.889.652v-8.743L54.532 61.74c5.928-2.723 11.397-5.407 17.44-8.245M.082 61.357c5.545 1.227 11.473 2.799 16.636 3.834L.082 54.185zm71.888.498v-6.711c-5.24 3.336-10.632 6.788-15.489 10.277zM.12 69.716h16.254L.12 62.736zm71.859 0V63.35c-5.354 2.3-9.982 4.218-15.03 6.366z"/><path d="M66.353 21.936a7 7 0 0 0-1.84-5.266 6.96 6.96 0 0 0-5.101-2.23 6.94 6.94 0 0 0-5.101 2.23 6.98 6.98 0 0 0-1.84 5.266c-.115 8.935 14.226 9.433 13.882 0M19.93 16.873c.458-9.817-14.686-9.433-14.112 0-.536 9.74 15.03 9.894 14.112 0m16.906 1.88a7.63 7.63 0 0 0 5.742-2.185 7.67 7.67 0 0 0 2.289-5.715 7.69 7.69 0 0 0-2.016-6.137 7.65 7.65 0 0 0-5.977-2.414 7.63 7.63 0 0 0-5.941 2.457 7.67 7.67 0 0 0-1.976 6.133 7.46 7.46 0 0 0 2.174 5.71 7.42 7.42 0 0 0 5.705 2.15"/></g><defs><clipPath id="a"><path fill="#fff" d="M0 .001h72v72H0z"/></clipPath></defs></svg>