<svg width="72" height="72" viewBox="0 0 72 72" fill="none" xmlns="http://www.w3.org/2000/svg">
<g clip-path="url(#clip0_15940_7400)">
<path fill-rule="evenodd" clip-rule="evenodd" d="M34.0834 1.30861C35.2121 0.181082 36.8585 -0.260357 38.3979 0.152716L56.6929 5.05522C58.2329 5.46889 59.4379 6.67206 59.8509 8.21325L71.8477 52.9847C72.2608 54.5271 71.8199 56.1705 70.6918 57.301L57.2992 70.6919C56.1711 71.8212 54.5253 72.2608 52.9836 71.8484L8.21244 59.8509C6.67185 59.4384 5.46691 58.2335 5.05562 56.6935L0.15196 38.3983C-0.260519 36.8565 0.180326 35.2125 1.30903 34.085L34.0834 1.30861ZM35.9981 24.0005H19.4981V27.0005L25.4981 30.0005V58.5005H35.9981V46.5005L31.4981 43.5005H37.4981L46.4981 58.5005H58.4981L47.2481 40.5005L58.4981 24.0005H46.4981L38.9981 36.0005H35.9981V24.0005Z" fill="#7450F6"/>
</g>
<defs>
<clipPath id="clip0_15940_7400">
<rect width="72" height="72" fill="white" transform="translate(0 0.000488281)"/>
</clipPath>
</defs>
</svg>
