<svg xmlns="http://www.w3.org/2000/svg" width="72" height="72" fill="none" viewBox="0 0 72 72"><g clip-path="url(#a)"><path fill="#7450f6" fill-rule="evenodd" d="M34.083 1.309A4.47 4.47 0 0 1 38.398.153l18.295 4.902a4.47 4.47 0 0 1 3.158 3.158l11.997 44.772a4.47 4.47 0 0 1-1.156 4.316l-13.393 13.39a4.47 4.47 0 0 1-4.315 1.157L8.212 59.851a4.46 4.46 0 0 1-3.156-3.157L.152 38.398a4.47 4.47 0 0 1 1.157-4.313zM35.998 24h-16.5v3l6 3v28.5h10.5v-12l-4.5-3h6l9 15h12l-11.25-18L58.498 24h-12l-7.5 12h-3z" clip-rule="evenodd"/></g><defs><clipPath id="a"><path fill="#fff" d="M0 0h72v72H0z"/></clipPath></defs></svg>