<svg xmlns="http://www.w3.org/2000/svg" width="72" height="72" fill="none" viewBox="0 0 72 72"><path fill="#c9d7dd" d="M36.125 59.744v8.504c-.597.002-1.194-.121-1.65-.372L8.971 53.906c-.456-.251-.684-.58-.684-.906l.025-8.501c0 .245.129.49.385.703q.063.054.139.102.075.052.16.097l25.502 13.97c.45.248 1.038.371 1.625.373z"/><path fill="#fff" d="M63.78 44.559q-.001.027-.006.053a.8.8 0 0 1-.091.262l-.03.051-.031.046-.027.036-.007.01-.033.037a2 2 0 0 1-.152.148q-.026.02-.05.042l-.04.03-.014.01-.03.021q-.037.026-.077.05l-.081.047-25.338 13.97c-.454.25-1.052.374-1.649.373-.587-.002-1.174-.126-1.624-.373L8.995 45.402a2 2 0 0 1-.298-.2c-.256-.212-.386-.457-.386-.702 0-.325.225-.648.673-.897l25.337-13.97c.903-.498 2.368-.498 3.274 0l25.503 13.97c.478.263.706.612.68.958z"/><path fill="url(#a)" d="M63.78 44.565q-.001.028-.006.054a.8.8 0 0 1-.091.262l-.03.051-.031.045q-.013.02-.027.037-.005.005-.007.01l-.033.037a2 2 0 0 1-.152.148q-.026.02-.05.042l-.04.03-.014.01-.03.02q-.037.027-.077.05-.039.025-.081.048l-25.338 13.97c-.454.25-1.052.374-1.649.372-.587-.002-1.174-.125-1.624-.372L8.995 45.407a2 2 0 0 1-.298-.2c-.256-.212-.386-.457-.386-.702 0-.325.225-.648.673-.897l25.337-13.97c.903-.498 2.368-.498 3.274 0l25.503 13.97c.478.262.706.612.68.957z" opacity=".6"/><path fill="#6e17ff" d="M59.357 44.556a.7.7 0 0 1-.082.264q-.013.02-.024.044-.015.017-.025.038l-.023.03-.008.01-.026.032-.032.036q-.046.046-.098.091l-.007.008a2 2 0 0 0-.247-.166L37.337 33.195c-.762-.418-1.995-.418-2.753 0L13.278 44.943q-.136.075-.24.16l-.003-.004c-.217-.18-.323-.385-.323-.59 0-.274.188-.545.566-.755l21.306-11.748c.758-.42 1.99-.42 2.753 0l21.448 11.749c.403.22.595.514.572.805z"/><path fill="#c9d7dd" d="m59.032 45.105-.036.028-.034.025-.012.008-.024.017-.065.041-.068.04-21.306 11.749c-.382.21-.885.315-1.387.313-.494-.002-.988-.106-1.366-.313L13.288 45.264a2 2 0 0 1-.247-.165q.102-.085.24-.16l21.305-11.748c.758-.418 1.991-.418 2.753 0L58.787 44.94q.14.076.247.165z"/><path fill="url(#b)" d="m59.032 45.107-.036.028-.034.025-.012.008q-.014.008-.024.017l-.065.041-.068.04-21.306 11.749c-.382.21-.885.315-1.387.313-.494-.002-.988-.106-1.366-.313L13.288 45.266a2 2 0 0 1-.247-.165q.102-.085.24-.16l21.305-11.748c.758-.417 1.991-.417 2.753 0l21.448 11.749q.14.076.247.165z"/><path fill="#c9d7dd" d="m63.784 44.509-.025 8.504c0 .323-.226.648-.673.895L37.75 67.878c-.448.247-1.035.37-1.624.372v-8.504c.596.002 1.195-.122 1.649-.372l25.337-13.97.082-.048.076-.05.03-.02.014-.01.04-.03q.026-.02.05-.042.063-.051.115-.107.02-.019.038-.041l.032-.038.008-.01.026-.036.03-.046.031-.05a.8.8 0 0 0 .1-.367"/><path fill="url(#c)" d="m63.784 44.516-.025 8.505c0 .323-.226.648-.673.894L37.75 67.885c-.448.248-1.035.371-1.624.373-.597.002-1.194-.121-1.65-.372L8.971 53.916c-.456-.251-.684-.58-.684-.907l.025-8.5c0 .245.129.49.385.703q.063.053.139.102.075.05.16.097l25.502 13.97c.45.247 1.038.37 1.625.372.596.002 1.195-.121 1.649-.372l25.337-13.97q.043-.023.082-.048.039-.023.076-.05l.03-.02.014-.01.04-.03q.026-.019.05-.041a1.3 1.3 0 0 0 .153-.149l.032-.038.008-.01.026-.035q.017-.022.03-.046.018-.026.031-.051a.8.8 0 0 0 .097-.315q.004-.026.004-.052z" opacity=".8"/><path fill="url(#d)" d="m63.784 44.52-.025 8.505c0 .323-.226.647-.673.894L37.75 67.89c-.448.248-1.035.371-1.624.373-.597.002-1.194-.122-1.65-.372L8.971 53.917c-.456-.25-.684-.579-.684-.906l.025-8.5c0 .245.129.49.385.702q.063.054.139.103.075.05.16.097l25.502 13.97c.45.247 1.038.37 1.625.372.596.002 1.195-.121 1.649-.372l25.337-13.97q.043-.023.082-.048.039-.023.076-.05l.03-.02.014-.01q.02-.013.04-.03.026-.019.05-.042a1.3 1.3 0 0 0 .153-.148l.032-.038q.006-.004.008-.01l.026-.035q.017-.022.03-.046.018-.025.031-.051a.8.8 0 0 0 .097-.315q.004-.026.004-.052z"/><path fill="#c9d7dd" d="M36.125 46.993v8.504c-.597.002-1.194-.121-1.65-.372L8.971 41.157c-.456-.251-.684-.58-.684-.906l.025-8.501c0 .245.129.49.385.703q.063.054.139.102.075.052.16.097l25.502 13.97c.45.247 1.038.37 1.625.373z"/><path fill="#fff" d="M63.78 31.809q-.001.027-.006.053a.8.8 0 0 1-.091.262l-.03.051-.031.046q-.013.02-.027.036l-.007.01-.033.037q-.016.023-.038.042a1.5 1.5 0 0 1-.218.188l-.03.021-.076.05-.082.047-25.338 13.97c-.454.251-1.052.375-1.649.373-.587-.002-1.174-.126-1.624-.373L8.995 32.652a2 2 0 0 1-.298-.2c-.256-.212-.386-.457-.386-.702 0-.325.225-.648.673-.897l25.34-13.97c.902-.498 2.366-.498 3.273 0l25.502 13.97c.48.262.707.612.68.958z"/><path fill="url(#e)" d="M63.78 31.814q-.001.028-.006.054a.8.8 0 0 1-.091.262l-.03.051-.031.046-.027.036-.007.01-.033.037a1.5 1.5 0 0 1-.256.23l-.03.021-.076.05-.082.047-25.338 13.97c-.454.25-1.052.374-1.649.372-.587-.001-1.174-.125-1.624-.372L8.995 32.658a2 2 0 0 1-.298-.2c-.256-.212-.386-.457-.386-.702 0-.325.225-.648.673-.897l25.34-13.97c.902-.498 2.366-.498 3.273 0l25.502 13.97c.48.262.707.612.68.957z" opacity=".6"/><path fill="#6e17ff" d="M59.357 31.805a.7.7 0 0 1-.082.264q-.013.02-.024.044-.015.017-.025.038l-.03.04-.027.032-.032.036q-.046.046-.098.091l-.007.008a2 2 0 0 0-.247-.166L37.337 20.444c-.762-.418-1.995-.418-2.753 0L13.278 32.192q-.136.075-.24.16l-.003-.004c-.217-.18-.323-.385-.323-.59 0-.274.188-.545.566-.755l21.306-11.748c.758-.42 1.99-.42 2.753 0l21.448 11.749c.403.22.595.514.572.805z"/><path fill="#c9d7dd" d="m59.032 32.354-.036.028-.034.025-.012.008-.024.017-.065.041-.068.04-21.306 11.749c-.382.21-.885.315-1.387.313-.494-.002-.988-.106-1.366-.313L13.288 32.513a2 2 0 0 1-.247-.165q.102-.085.24-.16L34.585 20.44c.758-.418 1.991-.418 2.753 0l21.449 11.75q.14.076.247.165z"/><path fill="url(#f)" d="m59.032 32.356-.036.028-.034.025-.012.008q-.014.008-.024.017l-.065.041-.068.04-21.306 11.749c-.382.21-.885.315-1.387.313-.494-.002-.988-.106-1.366-.313L13.288 32.515a2 2 0 0 1-.247-.165q.102-.085.24-.16l21.305-11.748c.758-.418 1.991-.418 2.753 0l21.448 11.749q.14.076.247.165z"/><path fill="#c9d7dd" d="m63.784 31.758-.025 8.504c0 .323-.226.648-.673.895L37.75 55.127c-.448.247-1.035.37-1.624.372v-8.504c.596.002 1.195-.122 1.649-.372l25.337-13.97.082-.048q.039-.023.076-.05l.03-.02.014-.01.04-.03q.026-.02.05-.042.063-.051.115-.107.02-.019.038-.041l.032-.038.008-.01.026-.036.03-.045.031-.052a.8.8 0 0 0 .1-.366"/><path fill="url(#g)" d="m63.784 31.767-.025 8.505c0 .323-.226.647-.673.894L37.75 55.136c-.448.247-1.035.371-1.624.373-.597.002-1.194-.122-1.65-.372L8.971 41.164c-.456-.25-.684-.579-.684-.906l.025-8.5c0 .245.129.49.385.703q.063.053.139.102.075.05.16.097l25.502 13.97c.45.247 1.038.37 1.625.372.596.002 1.195-.121 1.649-.372l25.337-13.97q.043-.023.082-.048.039-.023.076-.049l.03-.021.014-.01.04-.03q.026-.02.05-.041a1.3 1.3 0 0 0 .153-.149l.032-.038.008-.01.026-.035q.017-.022.03-.046.018-.026.031-.051a.8.8 0 0 0 .097-.315q.004-.026.004-.052z" opacity=".8"/><path fill="url(#h)" d="m63.784 31.77-.025 8.504c0 .323-.226.647-.673.894L37.75 55.138c-.448.248-1.035.371-1.624.373-.597.002-1.194-.122-1.65-.372L8.971 41.169c-.456-.251-.684-.58-.684-.906l.025-8.501c0 .245.129.49.385.702q.063.054.139.103.075.051.16.097l25.502 13.97c.45.247 1.038.37 1.625.373.596.001 1.195-.122 1.649-.373l25.337-13.97q.043-.023.082-.048a1 1 0 0 0 .076-.05l.03-.02.014-.01.04-.03q.026-.019.05-.042a1 1 0 0 0 .153-.148l.032-.038q.006-.004.008-.01l.026-.035q.017-.022.03-.046.018-.026.031-.051a.8.8 0 0 0 .097-.315q.004-.027.004-.052z"/><path fill="#fff" d="M60.726 36.822c.715-.4 1.302-.076 1.304.722.002.8-.58 1.78-1.294 2.18l-21.553 12.1c-.714.4-1.301.076-1.303-.722s.58-1.78 1.295-2.18l21.553-12.1z" opacity=".4"/><path fill="#fff" d="M42.364 47.798c.441-.241.798-.047.8.431 0 .479-.355 1.062-.794 1.303s-.8.048-.802-.431c0-.479.356-1.063.796-1.303" opacity=".5"/><path fill="#fff" d="M50.637 43.17c.44-.241.798-.047.8.431 0 .479-.356 1.062-.795 1.303s-.8.048-.801-.431c0-.479.355-1.064.796-1.303" opacity=".9"/><path fill="#fff" d="M58.68 38.577c.441-.24.798-.047.8.431.002.48-.355 1.062-.794 1.303-.439.242-.8.048-.801-.43 0-.48.355-1.064.796-1.304" opacity=".5"/><path fill="#fff" d="M60.726 49.326c.715-.4 1.302-.076 1.304.722.002.8-.58 1.78-1.294 2.18l-21.553 12.1c-.714.4-1.301.076-1.303-.722s.58-1.78 1.296-2.18l21.552-12.1z" opacity=".4"/><path fill="#fff" d="M42.364 60.301c.441-.241.798-.047.8.431 0 .479-.355 1.062-.794 1.303s-.8.047-.802-.431c0-.479.356-1.064.796-1.303" opacity=".5"/><path fill="#fff" d="M50.637 55.673c.44-.241.798-.047.8.431 0 .479-.356 1.062-.795 1.303s-.8.048-.801-.431c0-.479.355-1.064.796-1.303" opacity=".9"/><path fill="#fff" d="M58.68 51.081c.441-.24.799-.047.8.431.002.479-.355 1.062-.794 1.303-.438.242-.8.048-.801-.431 0-.478.355-1.063.796-1.303" opacity=".5"/><path fill="#c9d7dd" d="M36.125 34.244v8.505c-.597.001-1.194-.122-1.65-.373L8.971 28.406c-.456-.251-.684-.58-.684-.906l.025-8.501c0 .245.129.49.385.703q.063.054.139.102.075.052.16.097l25.502 13.97c.45.247 1.038.37 1.625.373z"/><path fill="#fff" d="M63.78 19.058q-.001.027-.006.053a.8.8 0 0 1-.091.262l-.03.051-.031.046-.027.036-.007.01q-.015.019-.033.037a2 2 0 0 1-.152.148q-.026.02-.05.042l-.054.04-.03.021-.076.05-.082.047-25.338 13.97c-.454.251-1.052.375-1.649.372-.587-.001-1.174-.125-1.624-.372L8.995 19.901a2 2 0 0 1-.298-.2c-.256-.212-.386-.457-.386-.702 0-.325.225-.648.673-.897l25.34-13.97c.902-.498 2.366-.498 3.273 0l25.502 13.97c.48.262.707.612.68.958z"/><path fill="url(#i)" d="M63.78 19.064q-.001.026-.006.053a.8.8 0 0 1-.091.262l-.03.051-.031.046-.027.036-.007.01q-.015.019-.033.037a2 2 0 0 1-.152.148q-.026.02-.05.042l-.054.04-.03.02q-.037.027-.076.05l-.082.048-25.338 13.97c-.454.25-1.052.374-1.649.372-.587-.001-1.174-.125-1.624-.372L8.995 19.907a2 2 0 0 1-.298-.2c-.256-.212-.386-.457-.386-.702 0-.325.225-.648.673-.897l25.34-13.97c.902-.498 2.366-.498 3.273 0l25.502 13.97c.48.262.707.612.68.957z" opacity=".6"/><path fill="#6e17ff" d="M59.357 19.056a.7.7 0 0 1-.082.264q-.013.02-.024.044-.015.017-.025.038l-.03.04-.027.032-.032.036q-.046.046-.098.091l-.007.008a2 2 0 0 0-.247-.166L37.337 7.695c-.762-.418-1.995-.418-2.753 0L13.278 19.44q-.136.073-.24.16l-.003-.005c-.217-.18-.323-.385-.323-.59 0-.274.188-.545.566-.754L34.584 6.502c.758-.42 1.99-.42 2.753 0l21.448 11.749c.403.22.595.514.572.805"/><path fill="#c9d7dd" d="m59.032 19.603-.036.028-.034.025-.012.008q-.014.008-.025.017l-.064.042-.068.04L37.487 31.51c-.382.21-.886.315-1.387.313-.494-.002-.988-.106-1.366-.313L13.286 19.764a2 2 0 0 1-.247-.165q.102-.085.239-.16L34.584 7.692c.758-.418 1.99-.418 2.753 0L58.785 19.44q.14.076.247.165z"/><path fill="url(#j)" d="m59.032 19.607-.036.028-.034.025-.012.008q-.014.008-.025.017l-.064.042-.068.04-21.306 11.748c-.382.21-.886.315-1.387.313-.494-.002-.988-.106-1.366-.313L13.286 19.766a2 2 0 0 1-.247-.165q.102-.085.239-.16L34.584 7.694c.758-.418 1.99-.418 2.753 0l21.448 11.749q.14.076.247.165"/><path fill="#c9d7dd" d="m63.784 19.007-.025 8.504c0 .323-.226.648-.673.895L37.75 42.376c-.448.247-1.035.37-1.624.373v-8.505c.596.002 1.195-.121 1.649-.372l25.337-13.97.082-.048q.039-.023.076-.05l.03-.02.014-.01.04-.03q.026-.02.05-.042.063-.052.115-.106.02-.02.038-.042l.032-.038.008-.01.026-.036.03-.045q.017-.026.031-.052a.8.8 0 0 0 .1-.366"/><path fill="url(#k)" d="m63.784 19.016-.025 8.505c0 .323-.226.648-.673.895L37.75 42.386c-.448.247-1.035.37-1.624.372-.597.002-1.194-.121-1.65-.372L8.971 28.416c-.456-.251-.684-.58-.684-.907l.025-8.5c0 .245.129.49.385.703q.063.054.139.102.075.051.16.097l25.502 13.97c.45.247 1.038.37 1.625.373.596.002 1.195-.122 1.649-.373l25.337-13.97q.043-.023.082-.048.039-.023.076-.049l.03-.02q.008-.008.014-.01l.04-.03q.026-.02.05-.043a1.3 1.3 0 0 0 .153-.148l.032-.038q.006-.003.008-.01l.026-.035q.017-.022.03-.046.018-.025.031-.051a.8.8 0 0 0 .097-.315q.004-.026.004-.052z" opacity=".8"/><path fill="url(#l)" d="m63.784 19.017-.025 8.505c0 .323-.226.648-.673.894L37.75 42.386c-.448.248-1.035.371-1.624.373-.597.002-1.194-.121-1.65-.372L8.971 28.417c-.456-.251-.684-.58-.684-.907l.025-8.5c0 .245.129.49.385.702q.063.054.139.103.075.05.16.097l25.502 13.97c.45.247 1.038.37 1.625.373.596.001 1.195-.122 1.649-.373l25.337-13.97q.043-.023.082-.048.039-.023.076-.049l.03-.02q.008-.008.014-.01l.04-.03q.026-.02.05-.043a1.3 1.3 0 0 0 .153-.148l.032-.038q.006-.003.008-.01l.026-.035q.017-.022.03-.046.018-.025.031-.051a.8.8 0 0 0 .097-.315q.004-.025.004-.052z"/><path fill="#fff" d="M60.726 24.072c.715-.4 1.302-.076 1.304.722.002.8-.58 1.78-1.294 2.18l-21.553 12.1c-.714.4-1.301.076-1.303-.722s.58-1.78 1.295-2.18l21.553-12.1z" opacity=".8"/><path fill="#6e17ff" d="M42.364 35.05c.441-.242.798-.048.8.43 0 .479-.355 1.062-.794 1.303s-.8.047-.802-.431c0-.479.356-1.064.796-1.303" opacity=".5"/><path fill="#6e17ff" d="M50.637 30.418c.44-.241.798-.047.8.431 0 .479-.356 1.062-.795 1.303-.44.242-.8.048-.801-.431 0-.479.355-1.064.796-1.303" opacity=".9"/><path fill="#6e17ff" d="M58.68 25.826c.441-.24.798-.047.8.432.002.478-.355 1.061-.794 1.302s-.8.048-.801-.43c0-.48.355-1.064.796-1.304" opacity=".5"/><path fill="#6e17ff" d="M46.086 14.094c.18.1.365.23.454.381l3.629 5.745a.72.72 0 0 1-.108.88l-5.645 5.133c-.338.243-.811.409-1.355.458l-10.666.638c-.528.046-1.04-.042-1.4-.245a1 1 0 0 1-.116-.074l-7.62-4.279c-.363-.23-.57-.549-.57-.855l1.096-6.012c.089-.306.38-.572.832-.752l9.116-3.235a2.9 2.9 0 0 1 1.514-.089l10.23 2.013c.227.076.43.19.613.293z"/><path fill="url(#m)" d="M46.09 14.094c.18.1.364.23.454.381l3.629 5.745a.72.72 0 0 1-.109.88l-5.644 5.133c-.339.243-.812.409-1.355.458l-10.666.638c-.528.046-1.04-.042-1.4-.245a1 1 0 0 1-.116-.074l-7.621-4.279c-.363-.23-.57-.549-.57-.855l1.096-6.012c.09-.306.38-.572.832-.752l9.116-3.235a2.9 2.9 0 0 1 1.515-.089l10.23 2.013c.227.076.43.19.612.293z"/><path fill="#fff" d="M42.083 24.655c.16.14.16.344-.066.498-.247.062-.565.038-.77-.076-.046-.025-.068-.038-.09-.076a.04.04 0 0 0-.022-.038c-.045-.025-.044-.052-.068-.065-.069-.062-.092-.127-.137-.203a.24.24 0 0 1-.09-.1q-.24-.287-.545-.536a.55.55 0 0 0-.271-.076l-.204-.114c-1.693.495-3.657.611-5.513.357l-.112.14c-.158.014-.247.063-.293.114a1.5 1.5 0 0 0-.289.574c-.045.076-.045.103-.068.14a.4.4 0 0 1-.067.217c0 .025 0 .051-.02.063-.067.116-.18.178-.316.23a.9.9 0 0 1-.45.024c-.091-.025-.158-.038-.226-.076-.183-.102-.228-.254-.162-.395 0-.051.021-.062.023-.09.02-.062.09-.126.158-.19l.089-.102c.203-.191.315-.381.428-.573.022-.063 0-.127-.046-.179l.068-.165c-.294-.09-.634-.178-.929-.292a7.4 7.4 0 0 1-1.383-.599c-.68-.381-1.225-.814-1.613-1.312l-.272.051a1.2 1.2 0 0 0-.36-.024 8 8 0 0 0-.994.23l-.18.05c-.113.039-.227.052-.34.09-.044 0-.088 0-.111.013-.295.038-.564.012-.747-.089a.34.34 0 0 1-.114-.114c-.093-.178.088-.382.426-.446.09 0 .112-.013.157-.013.16-.014.295-.038.384-.038.092 0 .137 0 .203-.014a11 11 0 0 0 1.04-.178c.091-.025.182-.076.203-.14l.27-.052a1.9 1.9 0 0 1-.207-.574c-.21-.879.08-1.758.775-2.535l-.226-.103c0-.076-.046-.127-.114-.165-.34-.14-.635-.23-.975-.319a.6.6 0 0 0-.203-.063c-.091-.024-.226-.05-.34-.089-.015-.008-.04-.034-.063-.046-.142-.017-.165-.03-.209-.055-.236-.129-.285-.302-.139-.433.204-.165.587-.205.882-.089q.044 0 .069.014c.045.024.09.024.112.037.09.052.203.09.294.141.068.013.112.038.158.063.296.14.59.254.908.357a.9.9 0 0 0 .315 0l.272.076c1.08-.842 2.68-1.415 4.49-1.643.066-.011.112-.013.18-.025v-.148c.072-.03.11-.099.11-.144 0-.205-.093-.409-.184-.612l-.068-.114a1.4 1.4 0 0 1-.114-.216c-.023-.014-.023-.061-.023-.065-.025-.216.201-.395.54-.433.18-.025.34.013.474.09a.4.4 0 0 1 .205.24c0 .052.023.065.023.09 0 .076-.02.14-.02.216 0 .025.022.063 0 .103-.022.19.001.408.049.611.023.038.045.076.09.101.043.025.09.025.113.038l.068.14c1.538-.024 3.076.204 4.368.677.318.127.612.24.884.37l.203-.09a1.6 1.6 0 0 0 .338-.062c.272-.154.519-.292.722-.46.067-.037.112-.062.135-.102.067-.063.135-.127.226-.178l.112-.063a.94.94 0 0 1 .45-.103c.198 0 .379.029.496.095q.028.015.048.032c.203.141.16.37-.09.485l-.134.076c-.112.038-.203.089-.316.129-.045.025-.114.038-.157.063-.338.14-.587.28-.834.42-.044.05-.09.102-.069.165l-.135.102c.954.663 1.59 1.478 1.777 2.319 0 .203.025.42.026.625l.295.038a.24.24 0 0 0 .09.076.7.7 0 0 0 .182.051c.34.038.724.051 1.062.038.045 0 .114.013.18 0 .112-.013.247-.013.384-.013.023.013.068.013.112.013q.304.019.475.116c.114.064.183.178.16.268-.044.203-.36.33-.722.305-.092.027-.114.014-.158.014-.137-.025-.25-.038-.386-.063l-.203-.038a10 10 0 0 0-1.085-.1.6.6 0 0 0-.27.075l-.294.014c-.201.522-.56 1.03-1.055 1.49a7.3 7.3 0 0 1-1.892 1.172l.137.128a.135.135 0 0 0 0 .178c.182.179.408.357.636.51.044.05.09.075.135.102.092.05.183.102.25.165.045.025.09.051.067.064s0 .025.023.038zm-4.575-1.274c.43-.038.859-.128 1.286-.243l-1.884-1.491c-.069-.038-.16-.063-.25-.09-.225-.05-.497 0-.632.128l-1.235 1.694c.884.114 1.832.114 2.713 0zm-4.611-3.377a.4.4 0 0 0 .247-.114c.158-.114.09-.281-.091-.382l-2.628-1.044c-.585.687-.739 1.49-.462 2.23l2.936-.688zm1.723-3.476c-1.334.192-2.529.612-3.408 1.186l2.83.879a.6.6 0 0 0 .295.038c.295-.013.496-.154.473-.32zm-1.839 6.408c.203.063.363.128.52.19l.873-1.719c0-.076 0-.127-.025-.191a.3.3 0 0 0-.125-.124.8.8 0 0 0-.418-.08l-3.116.51c.317.33.727.662 1.202.93.34.192.703.344 1.09.484m6.589-5.974c-.975-.344-2.105-.523-3.258-.534l.552 1.808c.046.051.069.09.137.127.204.114.544.127.745.013l2.367-1.21-.543-.203zm.69 5.722c.518-.243.969-.523 1.33-.855.359-.33.629-.687.784-1.058l-3.233-.089a1 1 0 0 0-.25.038c-.248.09-.338.268-.178.408l1.547 1.554zm2.266-2.765c-.004-.764-.461-1.505-1.345-2.128l-2.141 1.362c-.067.038-.09.076-.09.127-.026.093.04.183.153.247.07.04.16.07.254.084l3.167.306zm-5.86-.55-.974.063-.494.458.32.51.906.178.813-.28.11-.548-.68-.382"/><path fill="#fff" d="m34.614 15.483.023-.013v.005z"/><defs><linearGradient id="a" x1="3.868" x2="31.155" y1="26.065" y2="37.818" gradientUnits="userSpaceOnUse"><stop stop-color="#4c7f8e" stop-opacity=".52"/><stop offset=".4" stop-color="#4c7f8e" stop-opacity=".52"/><stop offset=".5" stop-color="#4c7f8e" stop-opacity=".52"/><stop offset=".7" stop-color="#4c7f8e" stop-opacity=".63"/><stop offset=".88" stop-color="#4c7f8e" stop-opacity=".65"/><stop offset="1" stop-color="#4c7f8e" stop-opacity=".7"/></linearGradient><linearGradient id="b" x1="33.681" x2="34.259" y1="28.631" y2="32.675" gradientUnits="userSpaceOnUse"><stop offset=".57" stop-color="#fff" stop-opacity="0"/><stop offset=".79" stop-color="#fff" stop-opacity=".3"/><stop offset=".87" stop-color="#fff" stop-opacity=".42"/><stop offset="1" stop-color="#fff" stop-opacity=".6"/></linearGradient><linearGradient id="c" x1="66.712" x2="1.905" y1="57.437" y2="53.392" gradientUnits="userSpaceOnUse"><stop stop-color="#4c7f8e" stop-opacity=".6"/><stop offset=".11" stop-color="#4c7f8e" stop-opacity=".55"/><stop offset=".27" stop-color="#4c7f8e" stop-opacity=".43"/><stop offset=".45" stop-color="#4c7f8e" stop-opacity=".22"/><stop offset=".6" stop-color="#4c7f8e" stop-opacity="0"/><stop offset="1" stop-color="#4c7f8e" stop-opacity="0"/></linearGradient><linearGradient id="d" x1="65.503" x2="8" y1="59.647" y2="47" gradientUnits="userSpaceOnUse"><stop offset=".37" stop-color="#fff" stop-opacity="0"/><stop offset=".59" stop-color="#fff" stop-opacity=".3"/><stop offset=".67" stop-color="#fff" stop-opacity=".42"/><stop offset=".8" stop-color="#fff" stop-opacity=".6"/><stop offset=".948" stop-color="#fff" stop-opacity=".6"/><stop offset="1" stop-color="#ddd" stop-opacity=".6"/></linearGradient><linearGradient id="e" x1="3.867" x2="31.155" y1="13.316" y2="25.071" gradientUnits="userSpaceOnUse"><stop stop-color="#4c7f8e" stop-opacity=".52"/><stop offset=".4" stop-color="#4c7f8e" stop-opacity=".52"/><stop offset=".5" stop-color="#4c7f8e" stop-opacity=".52"/><stop offset=".7" stop-color="#4c7f8e" stop-opacity=".63"/><stop offset=".88" stop-color="#4c7f8e" stop-opacity=".65"/><stop offset="1" stop-color="#4c7f8e" stop-opacity=".7"/></linearGradient><linearGradient id="f" x1="3.868" x2="4.058" y1="15.88" y2="19.926" gradientUnits="userSpaceOnUse"><stop offset=".57" stop-color="#fff" stop-opacity="0"/><stop offset=".79" stop-color="#fff" stop-opacity=".3"/><stop offset=".87" stop-color="#fff" stop-opacity=".42"/><stop offset="1" stop-color="#fff" stop-opacity=".6"/></linearGradient><linearGradient id="g" x1="66.712" x2="1.905" y1="44.685" y2="40.641" gradientUnits="userSpaceOnUse"><stop stop-color="#4c7f8e" stop-opacity=".6"/><stop offset=".11" stop-color="#4c7f8e" stop-opacity=".55"/><stop offset=".27" stop-color="#4c7f8e" stop-opacity=".43"/><stop offset=".45" stop-color="#4c7f8e" stop-opacity=".22"/><stop offset=".6" stop-color="#4c7f8e" stop-opacity="0"/><stop offset="1" stop-color="#4c7f8e" stop-opacity="0"/></linearGradient><linearGradient id="h" x1="65.503" x2="8" y1="46.897" y2="34.249" gradientUnits="userSpaceOnUse"><stop offset=".37" stop-color="#fff" stop-opacity="0"/><stop offset=".59" stop-color="#fff" stop-opacity=".3"/><stop offset=".67" stop-color="#fff" stop-opacity=".42"/><stop offset=".8" stop-color="#fff" stop-opacity=".6"/><stop offset=".948" stop-color="#fff" stop-opacity=".6"/><stop offset="1" stop-color="#ddd" stop-opacity=".6"/></linearGradient><linearGradient id="i" x1="3.867" x2="31.155" y1=".567" y2="12.322" gradientUnits="userSpaceOnUse"><stop stop-color="#4c7f8e" stop-opacity="0"/><stop offset=".4" stop-color="#4c7f8e" stop-opacity="0"/><stop offset=".5" stop-color="#4c7f8e" stop-opacity=".12"/><stop offset=".7" stop-color="#4c7f8e" stop-opacity=".33"/><stop offset=".88" stop-color="#4c7f8e" stop-opacity=".45"/><stop offset="1" stop-color="#4c7f8e" stop-opacity=".5"/></linearGradient><linearGradient id="j" x1="33.681" x2="34.258" y1="3.13" y2="7.175" gradientUnits="userSpaceOnUse"><stop offset=".57" stop-color="#fff" stop-opacity="0"/><stop offset=".79" stop-color="#fff" stop-opacity=".3"/><stop offset=".87" stop-color="#fff" stop-opacity=".42"/><stop offset="1" stop-color="#fff" stop-opacity=".6"/></linearGradient><linearGradient id="k" x1="66.712" x2="1.905" y1="31.936" y2="27.892" gradientUnits="userSpaceOnUse"><stop stop-color="#4c7f8e" stop-opacity=".6"/><stop offset=".11" stop-color="#4c7f8e" stop-opacity=".55"/><stop offset=".27" stop-color="#4c7f8e" stop-opacity=".43"/><stop offset=".45" stop-color="#4c7f8e" stop-opacity=".22"/><stop offset=".6" stop-color="#4c7f8e" stop-opacity="0"/><stop offset="1" stop-color="#4c7f8e" stop-opacity="0"/></linearGradient><linearGradient id="l" x1="65.503" x2="8" y1="34.145" y2="21.497" gradientUnits="userSpaceOnUse"><stop offset=".37" stop-color="#fff" stop-opacity="0"/><stop offset=".59" stop-color="#fff" stop-opacity=".3"/><stop offset=".67" stop-color="#fff" stop-opacity=".42"/><stop offset=".8" stop-color="#fff" stop-opacity=".6"/><stop offset=".948" stop-color="#fff" stop-opacity=".6"/><stop offset="1" stop-color="#ddd" stop-opacity=".6"/></linearGradient><linearGradient id="m" x1="52.631" x2="22.517" y1="24.414" y2="16.152" gradientUnits="userSpaceOnUse"><stop offset=".57" stop-color="#fff" stop-opacity="0"/><stop offset=".79" stop-color="#fff" stop-opacity=".3"/><stop offset=".87" stop-color="#fff" stop-opacity=".42"/><stop offset="1" stop-color="#fff" stop-opacity=".6"/></linearGradient></defs></svg>