<svg xmlns="http://www.w3.org/2000/svg" width="72" height="72" fill="none" viewBox="0 0 72 72"><g clip-path="url(#a)"><path fill="#fff" fill-rule="evenodd" d="M35.829 1.136h.073c.75 0 1.793.088 2.8.587l23.78 11.383.037.02c1.543.822 2.868 2.207 3.434 4.018l.022.07 5.96 25.644.013.107c.209 1.776-.208 3.59-1.284 5.098l-.034.047-16.443 20.34c-1.216 1.63-3.136 2.58-5.22 2.39H22.838l-.057-.003c-1.825-.107-3.592-.949-4.845-2.202l-.073-.073L1.33 48.11l-.034-.047a6.86 6.86 0 0 1-1.19-5.209l.009-.047L5.967 17.13l.002-.006a6.13 6.13 0 0 1 3.396-4.195L33.29 1.399l.193-.049c.86-.215 1.769-.214 2.347-.214" clip-rule="evenodd"/><path fill="#326de6" d="m35.826 40.778 2.103-1.013.545-2.258-1.48-1.87h-2.336l-1.48 1.87.545 2.258zm15.109-1.168c.156-1.636.078-3.271-.311-4.907a15.8 15.8 0 0 0-1.87-4.595l-5.84 5.296c-.157.156-.234.311-.312.545-.156.701.233 1.402.934 1.558zm-10.903-7.866 6.386-4.518c-2.337-2.336-5.374-3.816-8.8-4.205l.467 7.866c0 .233.078.39.233.545.39.545 1.169.623 1.714.312m-6.153-8.801-1.558.311c-2.725.623-5.218 2.025-7.243 3.972l6.465 4.595.137.048c.165.06.3.108.486.108.7 0 1.324-.545 1.324-1.246zm-5.296 12.305-5.763-5.14a16.4 16.4 0 0 0-2.259 9.502l7.555-2.181c.311-.078.467-.156.623-.39.467-.545.39-1.324-.156-1.79m.623 6.697-7.71 1.324c1.09 3.115 3.27 5.841 5.997 7.633l2.96-7.166c.155-.233.155-.545.077-.779-.078-.622-.7-1.012-1.324-1.012m6.62 11.371c1.168 0 2.259-.156 3.349-.39a13 13 0 0 1 1.48-.311l-3.739-6.776c-.233-.234-.389-.39-.623-.545-.545-.312-1.168-.156-1.557.311l-3.816 6.932c1.557.467 3.27.779 4.906.779m8.178-2.492a14.9 14.9 0 0 0 4.673-4.673c.623-.857 1.09-1.87 1.48-2.96l-7.789-1.324c-.233 0-.467.078-.7.156-.546.234-.858.857-.702 1.48z"/><path fill="#326de6" fill-rule="evenodd" d="M61.605 14.843c1.168.623 2.103 1.636 2.492 2.882l5.92 25.467c.155 1.324-.157 2.648-.935 3.739L52.648 67.258c-.856 1.168-2.18 1.791-3.582 1.635H22.898c-1.325-.078-2.648-.7-3.583-1.635L2.882 46.93a4.9 4.9 0 0 1-.857-3.739L7.866 17.57a4.18 4.18 0 0 1 2.337-2.882L33.957 3.24c.623-.156 1.324-.156 1.947-.156s1.324.078 1.947.39zM60.28 42.102c0 .078.078.078.156.078.7.156 1.324.779 1.402 1.635a1.69 1.69 0 0 1-1.558 1.09c-.156 0-.234 0-.39-.077-.044-.045-.063-.064-.086-.072-.017-.006-.036-.006-.07-.006-.09 0-.155-.027-.208-.049a.3.3 0 0 0-.103-.029c-.23-.058-.419-.158-.628-.27q-.109-.06-.228-.12c-.156 0-.312-.077-.468-.155h-.078a13 13 0 0 0-2.492-.701h-.078a.88.88 0 0 0-.623.233s0 .078-.078.078l-.623-.078c-1.402 4.44-4.439 8.178-8.41 10.592l.233.624s-.078 0-.078.077c-.156.234-.156.546-.078.78.311.778.7 1.557 1.246 2.258v.155c.156.156.234.234.312.39.233.234.389.467.545.779.078.078.155.156.155.233 0 0 .078 0 .078.078.156.39.156.78.078 1.169s-.39.7-.7.856l-.138.048c-.165.06-.3.108-.486.108-.623 0-1.168-.39-1.48-.935-.077 0-.077-.078-.077-.078a.4.4 0 0 1-.078-.116.4.4 0 0 0-.078-.117c-.156-.234-.234-.545-.312-.857l-.155-.467v-.078c-.234-.857-.623-1.636-1.013-2.414a1.2 1.2 0 0 0-.623-.468c0-.078 0-.078-.078-.078l-.311-.545q-.299.09-.609.19c-.606.192-1.245.395-1.884.511-1.401.39-2.803.545-4.205.545-2.337 0-4.595-.389-6.776-1.246l-.311.623c0 .04 0 .059-.01.068s-.03.01-.068.01a1.2 1.2 0 0 0-.623.468c-.39.778-.78 1.557-1.013 2.414l-.156.467a3 3 0 0 1-.155.428 3 3 0 0 0-.156.429c-.078.078-.156.156-.156.233-.078 0-.078.078-.078.078-.311.546-.857.935-1.48.935-.155 0-.389-.078-.545-.156-.7-.39-1.012-1.324-.623-2.103.078 0 .078-.077.078-.077a.4.4 0 0 0 .078-.117.4.4 0 0 1 .078-.117c.102-.137.19-.273.269-.397.101-.158.188-.294.276-.382.156-.156.234-.234.311-.39v-.077c.468-.701.935-1.48 1.247-2.259.078-.233.078-.545-.078-.779 0 0-.078 0-.078-.078l.39-.545c-.78-.39-1.403-.856-2.104-1.401-3.037-2.337-5.218-5.53-6.386-9.113l-.7.078s0-.078-.079-.078a.88.88 0 0 0-.623-.233h-.078c-.934.155-1.713.389-2.57.7h-.078c-.155 0-.311.078-.467.156-.087.03-.185.07-.29.112a4 4 0 0 1-.567.2 1 1 0 0 1-.102-.015c-.095-.018-.21-.04-.21.015 0 .039 0 .058-.009.068-.01.01-.03.01-.068.01-.156.078-.234.078-.39.078-.7.078-1.401-.39-1.557-1.09a1.52 1.52 0 0 1 1.246-1.792c.078-.078.078-.078.156-.078a.5.5 0 0 0 .209-.049c.038-.015.07-.029.102-.029.156 0 .312-.02.468-.039.155-.02.311-.039.467-.039.156-.078.312-.078.467-.078a14.5 14.5 0 0 0 2.648-.467c.234-.156.467-.311.545-.545 0 0 .078 0 .078-.078l.623-.156c-.7-4.439.312-8.956 2.726-12.772.04-.078.078-.137.117-.195a2 2 0 0 0 .117-.195l-.452-.452c.035-.224-.107-.496-.25-.638-.622-.623-1.401-1.09-2.18-1.558l-.467-.233a9 9 0 0 1-.857-.468c-.078 0-.233-.155-.233-.155s0-.078-.078-.078c-.623-.546-.78-1.48-.312-2.181.234-.39.623-.545 1.09-.545.39 0 .78.156 1.09.39l.079.077a.4.4 0 0 0 .117.078c.039.02.078.039.116.078.117.117.215.233.312.35s.195.234.312.35q.036.035.087.074c.078.059.17.13.224.238.545.623 1.246 1.246 1.947 1.792.156.078.312.155.467.155a.5.5 0 0 0 .21-.049.3.3 0 0 1 .102-.029h.078l.467.312c2.57-2.726 5.92-4.673 9.58-5.452l.4-.067c.781-.132 1.515-.255 2.247-.322l.078-.623v-.156c.234-.156.312-.39.39-.623 0-.935 0-1.791-.156-2.648v-.078c0-.156 0-.311-.078-.467-.078-.312-.156-.623-.156-.935v-.39c0-.389.156-.778.468-1.09.39-.389.856-.623 1.324-.545.779.078 1.402.857 1.324 1.636v.467c-.04.156-.059.312-.078.467s-.04.312-.078.468c0 .078-.02.155-.039.233a1 1 0 0 0-.039.234v.078c-.156.934-.156 1.791-.156 2.648.078.234.156.467.39.623v-.078l.078.623c3.66.39 7.243 1.791 10.124 4.05.312.312.643.623.974.934s.662.624.973.935l.623-.39h.078c.078.079.234.079.312.079.156 0 .311-.078.467-.156a10.2 10.2 0 0 0 1.947-1.714q.037-.034.088-.073c.077-.059.17-.13.224-.238.155-.234.389-.467.623-.701.077 0 .155-.078.233-.156l.078-.078c.312-.233.701-.39 1.09-.39s.857.235 1.09.546c.546.701.39 1.636-.31 2.18 0 .03.01.049.02.065.016.025.028.043-.02.091a.4.4 0 0 1-.117.078.4.4 0 0 0-.117.078c-.156.078-.292.156-.429.234-.136.078-.272.156-.428.234l-.467.233c-.78.468-1.48.935-2.181 1.558-.156.156-.234.467-.234.7v.079l-.467.467a21.1 21.1 0 0 1 2.726 6.386c.467 2.259.623 4.595.311 6.854l.624.156a.94.94 0 0 0 .545.545c.856.233 1.791.39 2.648.467h.078c.155.078.311.078.467.078.311 0 .623 0 .934.078.156 0 .312 0 .312.078m-40.64-15.25-.014-.015v.078a.4.4 0 0 0 .015-.063" clip-rule="evenodd"/></g><defs><clipPath id="a"><path fill="#fff" d="M0 0h72v72H0z"/></clipPath></defs></svg>