<svg width="72" height="72" viewBox="0 0 72 72" fill="none" xmlns="http://www.w3.org/2000/svg">
<g clip-path="url(#clip0_7996_40426)">
<g filter="url(#filter0_d_7996_40426)">
<path d="M36.1248 59.7434V68.2479C35.5283 68.2498 34.9317 68.1265 34.4757 67.8757L8.97111 53.9054C8.51511 53.6545 8.28711 53.3261 8.28711 52.9994L8.3118 44.4985C8.3118 44.7436 8.44103 44.9887 8.69742 45.2012C8.73919 45.2375 8.78488 45.2716 8.83611 45.3039C8.8855 45.3381 8.9388 45.3704 8.9958 45.4008L34.4983 59.3711C34.9488 59.6181 35.5359 59.7415 36.123 59.7434H36.1248Z" fill="#C9D7DD"/>
<path d="M63.7799 44.5578C63.7799 44.5749 63.776 44.5938 63.7741 44.6109C63.7608 44.6983 63.7303 44.7874 63.683 44.873C63.6733 44.8901 63.6638 44.9072 63.6525 44.9243C63.6431 44.9395 63.6336 44.9547 63.6221 44.9697C63.6126 44.9831 63.605 44.9944 63.5955 45.006C63.5916 45.0097 63.5898 45.0136 63.5879 45.0154C63.5784 45.0288 63.5669 45.0401 63.5556 45.0535C63.5443 45.0685 63.5309 45.0819 63.5175 45.0953C63.4815 45.1331 63.4435 45.1673 63.4035 45.2014C63.3864 45.2148 63.3694 45.2282 63.3523 45.2432C63.3389 45.2529 63.3258 45.2623 63.3124 45.2737C63.3087 45.2776 63.3029 45.2813 63.2992 45.2831C63.2895 45.2907 63.2801 45.2965 63.2688 45.3041C63.2441 45.3212 63.2194 45.3383 63.1926 45.3535C63.1661 45.3687 63.1395 45.3858 63.1109 45.401L37.7736 59.3713C37.3194 59.622 36.7211 59.7454 36.1245 59.7436C35.5374 59.7417 34.9504 59.6183 34.5001 59.3713L8.99552 45.401C8.93852 45.3687 8.88522 45.3364 8.83583 45.3041C8.78645 45.27 8.73891 45.2358 8.69714 45.2014C8.44075 44.9889 8.31152 44.7438 8.31152 44.4987C8.31152 44.174 8.53583 43.8512 8.98421 43.6024L34.3215 29.632C35.2238 29.1344 36.6888 29.1344 37.595 29.632L63.0978 43.6024C63.5766 43.8646 63.8046 44.214 63.7778 44.5597L63.7799 44.5578Z" fill="white"/>
<g opacity="0.6">
<path d="M63.7799 44.5649C63.7799 44.5822 63.776 44.6011 63.7741 44.6182C63.7608 44.7054 63.7303 44.7947 63.683 44.8803C63.6733 44.8974 63.6638 44.9145 63.6525 44.9316C63.6431 44.9468 63.6336 44.9618 63.6221 44.977C63.6126 44.9904 63.605 45.0017 63.5955 45.0132C63.5916 45.0169 63.5898 45.0209 63.5879 45.0227C63.5784 45.0359 63.5669 45.0474 63.5556 45.0606C63.5443 45.0758 63.5309 45.0892 63.5175 45.1023C63.4815 45.1404 63.4435 45.1746 63.4035 45.2087C63.3864 45.2221 63.3694 45.2355 63.3523 45.2505C63.3389 45.2602 63.3258 45.2696 63.3124 45.2809C63.3087 45.2849 63.3029 45.2886 63.2992 45.2904C63.2895 45.298 63.2801 45.3038 63.2688 45.3114C63.2441 45.3285 63.2194 45.3456 63.1926 45.3608C63.1661 45.376 63.1395 45.3931 63.1109 45.4081L37.7736 59.3786C37.3194 59.6292 36.7211 59.7527 36.1245 59.7509C35.5374 59.749 34.9504 59.6256 34.5001 59.3786L8.99552 45.4062C8.93852 45.3739 8.88522 45.3416 8.83583 45.3096C8.78645 45.2752 8.73891 45.241 8.69714 45.2069C8.44075 44.9941 8.31152 44.7492 8.31152 44.5042C8.31152 44.1795 8.53583 43.8566 8.98421 43.6079L34.3215 29.6373C35.2238 29.1398 36.6888 29.1398 37.595 29.6373L63.0978 43.6079C63.5766 43.8698 63.8046 44.2194 63.7778 44.5649H63.7799Z" fill="url(#paint0_linear_7996_40426)"/>
</g>
<path d="M59.3568 44.5554C59.3568 44.5707 59.355 44.5841 59.3511 44.5993C59.3398 44.6734 59.3132 44.7493 59.2751 44.8194C59.2675 44.8328 59.2581 44.8481 59.2505 44.8633C59.241 44.8746 59.2334 44.888 59.2258 44.9011C59.2181 44.9127 59.2105 44.9221 59.2029 44.9316C59.2011 44.9353 59.1992 44.9374 59.1953 44.9411C59.1877 44.9524 59.1782 44.9618 59.1688 44.9734C59.1593 44.9847 59.1478 44.9962 59.1365 45.0094C59.106 45.0417 59.0737 45.0703 59.0395 45.1005C59.0395 45.1005 59.034 45.1044 59.0319 45.1081C58.9618 45.0511 58.878 44.9941 58.785 44.9429L37.3368 33.1947C36.5748 32.7767 35.3418 32.7767 34.5838 33.1947L13.278 44.9429C13.1868 44.9923 13.1088 45.0456 13.0387 45.1026C13.0387 45.1026 13.0348 45.1005 13.0348 45.0987C12.8183 44.9182 12.7119 44.713 12.7119 44.5081C12.7119 44.2344 12.9 43.9631 13.278 43.754L34.5838 32.0057C35.3418 31.586 36.5748 31.586 37.3368 32.0057L58.785 43.754C59.1877 43.9744 59.3797 44.2688 59.3568 44.5594V44.5554Z" fill="#6E17FF"/>
<path d="M59.0324 45.1044C59.0211 45.1139 59.0096 45.1233 58.9964 45.1328C58.9849 45.1404 58.9736 45.1499 58.9622 45.1575C58.9583 45.1593 58.9546 45.1632 58.9507 45.1651C58.9412 45.1709 58.9336 45.1764 58.926 45.1822C58.9053 45.1956 58.8842 45.2087 58.8614 45.2239C58.8388 45.2373 58.8159 45.2505 58.7931 45.2639L37.4873 57.0123C37.1054 57.223 36.6019 57.3276 36.1004 57.3257C35.6063 57.3236 35.1125 57.2193 34.7342 57.0123L13.2879 45.2639C13.2404 45.2373 13.1949 45.2108 13.1532 45.1822C13.1132 45.1556 13.0752 45.127 13.041 45.0986C13.1093 45.0416 13.1892 44.9886 13.2803 44.9392L34.5861 33.1907C35.3442 32.773 36.5772 32.773 37.3392 33.1907L58.7873 44.9392C58.8806 44.9904 58.9622 45.0456 59.0342 45.1044H59.0324Z" fill="#C9D7DD"/>
<path d="M59.0324 45.1064C59.0211 45.1158 59.0096 45.1253 58.9964 45.1347C58.9849 45.1424 58.9736 45.1518 58.9622 45.1594C58.9583 45.1615 58.9546 45.1652 58.9507 45.167C58.9412 45.1728 58.9336 45.1786 58.926 45.1841C58.9053 45.1975 58.8842 45.2109 58.8614 45.2259C58.8388 45.2393 58.8159 45.2527 58.7931 45.2658L37.4873 57.0143C37.1054 57.225 36.6019 57.3295 36.1004 57.3277C35.6063 57.3258 35.1125 57.2213 34.7342 57.0143L13.2879 45.2658C13.2404 45.2393 13.1949 45.2127 13.1532 45.1841C13.1132 45.1576 13.0752 45.1292 13.041 45.1006C13.1093 45.0436 13.1892 44.9905 13.2803 44.9411L34.5861 33.1927C35.3442 32.775 36.5772 32.775 37.3392 33.1927L58.7873 44.9411C58.8806 44.9924 58.9622 45.0475 59.0342 45.1064H59.0324Z" fill="url(#paint1_linear_7996_40426)"/>
<path d="M63.7841 44.5083L63.7594 53.0128C63.7594 53.3357 63.5332 53.6604 63.0867 53.9073L37.7494 67.8776C37.301 68.1245 36.7139 68.248 36.125 68.2498V59.7453C36.7215 59.7474 37.3199 59.6239 37.7741 59.3731L63.1114 45.4028C63.14 45.3875 63.1665 45.3705 63.1933 45.3552C63.2198 45.34 63.2445 45.3229 63.2692 45.3058C63.2805 45.2982 63.29 45.2925 63.2997 45.2851C63.3052 45.2811 63.3092 45.2775 63.3128 45.2754C63.3262 45.2659 63.3394 45.2565 63.3528 45.2451C63.3698 45.2318 63.3888 45.2184 63.404 45.2034C63.4458 45.1692 63.4838 45.133 63.518 45.097C63.5314 45.0836 63.5448 45.0705 63.5561 45.0552C63.5674 45.0418 63.5771 45.0305 63.5884 45.0171C63.5921 45.0135 63.5942 45.0114 63.596 45.0077C63.6055 44.9964 63.6149 44.983 63.6225 44.9717C63.6341 44.9565 63.6435 44.9412 63.653 44.926C63.6643 44.9089 63.6738 44.8918 63.6835 44.8748C63.7308 44.7894 63.7612 44.7019 63.7746 44.6126C63.7783 44.5955 63.7802 44.5766 63.7802 44.5595C63.7822 44.5425 63.7841 44.5254 63.7841 44.5083Z" fill="#C9D7DD"/>
<g opacity="0.8">
<path opacity="0.8" d="M63.7839 44.5157L63.7592 53.0205C63.7592 53.3433 63.533 53.668 63.0865 53.9149L37.7492 67.8852C37.3008 68.1321 36.7137 68.2556 36.1248 68.2575C35.5283 68.2595 34.9317 68.1361 34.4757 67.8852L8.97111 53.9149C8.51511 53.6641 8.28711 53.3357 8.28711 53.0089L8.3118 44.5083C8.3118 44.7531 8.44103 44.9982 8.69742 45.211C8.73919 45.247 8.78488 45.2811 8.83611 45.3135C8.8855 45.3476 8.9388 45.3799 8.9958 45.4104L34.4983 59.3807C34.9488 59.6276 35.5359 59.7511 36.123 59.7529C36.7195 59.7548 37.3179 59.6315 37.772 59.3807L63.1093 45.4104C63.138 45.3951 63.1645 45.3781 63.191 45.3628C63.2176 45.3476 63.2425 45.3305 63.2672 45.3135C63.2785 45.3058 63.288 45.3001 63.2974 45.2925C63.3032 45.2888 63.3069 45.2851 63.3108 45.283C63.3242 45.2735 63.3373 45.2641 63.3507 45.2528C63.3678 45.2394 63.3867 45.226 63.402 45.211C63.4437 45.1766 63.4818 45.1406 63.516 45.1046C63.5293 45.0912 63.5425 45.0778 63.554 45.0628C63.5653 45.0495 63.5748 45.0381 63.5863 45.0248C63.59 45.0211 63.5919 45.019 63.594 45.0153C63.6034 45.004 63.6129 44.9906 63.6205 44.9793C63.6318 44.9641 63.6413 44.9488 63.651 44.9336C63.6623 44.9165 63.6717 44.8995 63.6812 44.8824C63.7287 44.7968 63.7592 44.7095 63.7726 44.6202C63.7763 44.6031 63.7781 44.5842 63.7781 44.5671C63.78 44.5501 63.782 44.533 63.782 44.5157H63.7839Z" fill="url(#paint2_linear_7996_40426)"/>
</g>
<path d="M63.7839 44.5197L63.7592 53.0243C63.7592 53.3471 63.533 53.6718 63.0865 53.9187L37.7492 67.8893C37.3008 68.1362 36.7137 68.2596 36.1248 68.2615C35.5283 68.2633 34.9317 68.1399 34.4757 67.8893L8.97111 53.9169C8.51511 53.6663 8.28711 53.3376 8.28711 53.0109L8.3118 44.5103C8.3118 44.7551 8.44103 45.0002 8.69742 45.2129C8.73919 45.2489 8.78488 45.2831 8.83611 45.3154C8.8855 45.3496 8.9388 45.3819 8.9958 45.4123L34.4983 59.3826C34.9488 59.6296 35.5359 59.753 36.123 59.7549C36.7195 59.7569 37.3179 59.6335 37.772 59.3826L63.1093 45.4123C63.138 45.3971 63.1645 45.38 63.191 45.3648C63.2176 45.3496 63.2425 45.3325 63.2672 45.3154C63.2785 45.3078 63.288 45.3023 63.2974 45.2946C63.3032 45.2907 63.3069 45.287 63.3108 45.2852C63.3242 45.2755 63.3373 45.266 63.3507 45.2547C63.3678 45.2413 63.3867 45.2282 63.402 45.2129C63.4437 45.1788 63.4818 45.1426 63.516 45.1066C63.5293 45.0932 63.5425 45.08 63.554 45.0648C63.5653 45.0514 63.5748 45.0401 63.5863 45.0267C63.59 45.023 63.5919 45.0212 63.594 45.0173C63.6034 45.0059 63.6129 44.9926 63.6205 44.9813C63.6318 44.966 63.6413 44.9508 63.651 44.9356C63.6623 44.9185 63.6717 44.9014 63.6812 44.8843C63.7287 44.7989 63.7592 44.7115 63.7726 44.6222C63.7763 44.6051 63.7781 44.5862 63.7781 44.5691C63.78 44.552 63.782 44.5349 63.782 44.5179L63.7839 44.5197Z" fill="url(#paint3_linear_7996_40426)"/>
<path d="M36.1248 46.9923V55.4968C35.5283 55.4987 34.9317 55.3754 34.4757 55.1246L8.97111 41.1561C8.51511 40.9055 8.28711 40.5769 8.28711 40.2501L8.3118 31.7495C8.3118 31.9944 8.44103 32.2394 8.69742 32.4522C8.73919 32.4882 8.78488 32.5224 8.83611 32.5547C8.8855 32.5888 8.9388 32.6211 8.9958 32.6516L34.4983 46.6219C34.9488 46.8688 35.5359 46.9923 36.123 46.9941L36.1248 46.9923Z" fill="#C9D7DD"/>
<path d="M63.7799 31.8082C63.7799 31.8253 63.776 31.8442 63.7741 31.8613C63.7608 31.9488 63.7303 32.0381 63.683 32.1235C63.6733 32.1405 63.6638 32.1576 63.6525 32.1747C63.6431 32.1899 63.6336 32.2052 63.6221 32.2204C63.6126 32.2335 63.605 32.2451 63.5955 32.2564C63.5916 32.2601 63.5898 32.264 63.5879 32.2658C63.5784 32.2792 63.5669 32.2905 63.5556 32.3039C63.5443 32.3192 63.5309 32.3323 63.5175 32.3457C63.4815 32.3835 63.4435 32.4179 63.4035 32.4521C63.3865 32.4652 63.3694 32.4786 63.3523 32.4938C63.3389 32.5033 63.3258 32.5128 63.3124 32.5241C63.3087 32.528 63.3029 32.5317 63.2992 32.5338C63.2895 32.5414 63.2801 32.5469 63.2688 32.5545C63.2441 32.5716 63.2194 32.5887 63.1928 32.6039C63.1661 32.6192 63.1395 32.6362 63.1111 32.6515L37.7736 46.6218C37.3197 46.8726 36.7211 46.9961 36.1245 46.994C35.5374 46.9921 34.9504 46.8687 34.5001 46.6218L8.99552 32.6515C8.93852 32.6192 8.88522 32.5868 8.83583 32.5545C8.78645 32.5204 8.73891 32.4862 8.69714 32.4521C8.44075 32.2393 8.31152 31.9942 8.31152 31.7494C8.31152 31.4245 8.53583 31.1016 8.98421 30.8529L34.3234 16.8825C35.2259 16.3849 36.6906 16.3849 37.5971 16.8825L63.0996 30.8529C63.5784 31.115 63.8064 31.4644 63.7799 31.8101V31.8082Z" fill="white"/>
<g opacity="0.6">
<path d="M63.7799 31.8139C63.7799 31.8312 63.776 31.8502 63.7741 31.8672C63.7608 31.9545 63.7303 32.0438 63.683 32.1294C63.6733 32.1465 63.6638 32.1635 63.6525 32.1806C63.6431 32.1958 63.6336 32.2111 63.6221 32.2261C63.6126 32.2395 63.605 32.2508 63.5955 32.2623C63.5916 32.266 63.5898 32.2699 63.5879 32.2718C63.5784 32.2849 63.5669 32.2965 63.5556 32.3096C63.5443 32.3249 63.5309 32.3382 63.5175 32.3516C63.4815 32.3895 63.4435 32.4236 63.4035 32.4578C63.3865 32.4712 63.3694 32.4845 63.3523 32.4995C63.3389 32.5092 63.3258 32.5187 63.3124 32.53C63.3087 32.5339 63.3029 32.5376 63.2992 32.5395C63.2895 32.5471 63.2801 32.5528 63.2688 32.5605C63.2441 32.5775 63.2194 32.5946 63.1928 32.6098C63.1661 32.6251 63.1395 32.6422 63.1111 32.6574L37.7736 46.6277C37.3197 46.8783 36.7211 47.0018 36.1245 46.9999C35.5374 46.9981 34.9504 46.8746 34.5001 46.6277L8.99552 32.6574C8.93852 32.6251 8.88522 32.5928 8.83583 32.5605C8.78645 32.5263 8.73891 32.4922 8.69714 32.4578C8.44075 32.2452 8.31152 32.0002 8.31152 31.7551C8.31152 31.4304 8.53583 31.1075 8.98421 30.8587L34.3234 16.8883C35.2259 16.3907 36.6906 16.3907 37.5971 16.8883L63.0996 30.8587C63.5784 31.1209 63.8064 31.4703 63.7799 31.816V31.8139Z" fill="url(#paint4_linear_7996_40426)"/>
</g>
<path d="M59.3568 31.8045C59.3568 31.8197 59.355 31.8331 59.3511 31.8483C59.3398 31.9224 59.3132 31.9983 59.2751 32.0685C59.2675 32.0819 59.2581 32.0971 59.2505 32.1123C59.241 32.1236 59.2334 32.137 59.2258 32.1502C59.2181 32.1617 59.2105 32.1712 59.2029 32.1806C59.2011 32.1843 59.1992 32.1864 59.1953 32.1901C59.1877 32.2014 59.1782 32.2111 59.1688 32.2224C59.1593 32.2337 59.1478 32.2453 59.1365 32.2584C59.106 32.2907 59.0737 32.3193 59.0395 32.3496C59.0395 32.3496 59.034 32.3535 59.0319 32.3572C58.9618 32.3002 58.878 32.2432 58.785 32.192L37.3368 20.4436C36.5748 20.0258 35.3418 20.0258 34.5838 20.4436L13.278 32.192C13.1868 32.2413 13.1088 32.2947 13.0387 32.3517C13.0387 32.3517 13.0348 32.3496 13.0348 32.3477C12.8183 32.1673 12.7119 31.9621 12.7119 31.7572C12.7119 31.4835 12.9 31.2121 13.278 31.003L34.5838 19.2547C35.3418 18.835 36.5748 18.835 37.3368 19.2547L58.785 31.003C59.1877 31.2234 59.3797 31.5179 59.3568 31.8084V31.8045Z" fill="#6E17FF"/>
<path d="M59.0324 32.3535C59.0211 32.363 59.0096 32.3724 58.9964 32.3819C58.9849 32.3895 58.9736 32.399 58.9622 32.4066C58.9583 32.4084 58.9546 32.4123 58.9507 32.4142C58.9412 32.42 58.9336 32.4255 58.926 32.4313C58.9053 32.4446 58.8842 32.4578 58.8614 32.473C58.8388 32.4864 58.8159 32.4996 58.7931 32.513L37.4873 44.2614C37.1054 44.4721 36.6019 44.5766 36.1004 44.5748C35.6063 44.5727 35.1125 44.4684 34.7342 44.2614L13.2879 32.513C13.2404 32.4864 13.1949 32.4599 13.1532 32.4313C13.1132 32.4047 13.0752 32.3763 13.041 32.3477C13.1093 32.2907 13.1892 32.2376 13.2803 32.1883L34.5861 20.4398C35.3442 20.022 36.5772 20.022 37.3392 20.4398L58.7873 32.1883C58.8806 32.2395 58.9622 32.2946 59.0342 32.3535H59.0324Z" fill="#C9D7DD"/>
<path d="M59.0324 32.3554C59.0211 32.3649 59.0096 32.3743 58.9964 32.3838C58.9849 32.3914 58.9736 32.4011 58.9622 32.4085C58.9583 32.4105 58.9546 32.4142 58.9507 32.4161C58.9412 32.4219 58.9336 32.4276 58.926 32.4332C58.9053 32.4465 58.8842 32.4599 58.8614 32.4749C58.8388 32.4883 58.8159 32.5017 58.7931 32.5149L37.4873 44.2633C37.1054 44.474 36.6019 44.5785 36.1004 44.5767C35.6063 44.5749 35.1125 44.4703 34.7342 44.2633L13.2879 32.5149C13.2404 32.4883 13.1949 32.4618 13.1532 32.4332C13.1132 32.4066 13.0752 32.3782 13.041 32.3496C13.1093 32.2926 13.1892 32.2395 13.2803 32.1902L34.5861 20.4418C35.3442 20.024 36.5772 20.024 37.3392 20.4418L58.7873 32.1902C58.8806 32.2414 58.9622 32.2965 59.0342 32.3554H59.0324Z" fill="url(#paint5_linear_7996_40426)"/>
<path d="M63.7841 31.7573L63.7594 40.2619C63.7594 40.5847 63.5332 40.9094 63.0867 41.1563L37.7494 55.1266C37.301 55.3736 36.7139 55.497 36.125 55.4989V46.9943C36.7215 46.9964 37.3199 46.8729 37.7741 46.6221L63.1114 32.6518C63.14 32.6366 63.1665 32.6195 63.1933 32.6042C63.2198 32.589 63.2445 32.5719 63.2692 32.5549C63.2805 32.5472 63.29 32.5415 63.2997 32.5341C63.3052 32.5302 63.3092 32.5265 63.3128 32.5244C63.3262 32.5149 63.3394 32.5055 63.3528 32.4942C63.3698 32.4808 63.3888 32.4676 63.404 32.4524C63.4458 32.4182 63.4838 32.382 63.518 32.346C63.5314 32.3326 63.5448 32.3195 63.5561 32.3042C63.5674 32.2909 63.5771 32.2796 63.5884 32.2662C63.5921 32.2625 63.5942 32.2604 63.596 32.2567C63.6055 32.2454 63.6149 32.232 63.6225 32.2207C63.6341 32.2055 63.6435 32.1902 63.653 32.175C63.6643 32.1579 63.6738 32.1409 63.6835 32.1238C63.7308 32.0384 63.7612 31.9509 63.7746 31.8616C63.7783 31.8446 63.7802 31.8256 63.7802 31.8086C63.7822 31.7915 63.7841 31.7744 63.7841 31.7573Z" fill="#C9D7DD"/>
<g opacity="0.8">
<path opacity="0.8" d="M63.7839 31.7668L63.7592 40.2713C63.7592 40.5942 63.533 40.9189 63.0865 41.1658L37.7492 55.1363C37.3008 55.383 36.7137 55.5065 36.1248 55.5086C35.5283 55.5104 34.9317 55.3869 34.4757 55.1363L8.97111 41.1639C8.51511 40.9131 8.28711 40.5847 8.28711 40.2579L8.3118 31.7573C8.3118 32.0022 8.44103 32.2472 8.69742 32.46C8.73919 32.496 8.78488 32.5302 8.83611 32.5625C8.8855 32.5966 8.9388 32.6289 8.9958 32.6594L34.4983 46.6297C34.9488 46.8766 35.5359 47.0001 36.123 47.0019C36.7195 47.004 37.3179 46.8806 37.772 46.6297L63.1093 32.6594C63.138 32.6442 63.1645 32.6271 63.191 32.6119C63.2176 32.5966 63.2425 32.5796 63.2672 32.5625C63.2785 32.5549 63.288 32.5491 63.2974 32.5415C63.3032 32.5378 63.3069 32.5341 63.3108 32.532C63.3242 32.5226 63.3373 32.5131 63.3507 32.5018C63.3678 32.4884 63.3867 32.475 63.402 32.46C63.4437 32.4256 63.4818 32.3896 63.516 32.3536C63.5293 32.3402 63.5425 32.3271 63.554 32.3119C63.5653 32.2985 63.5748 32.2872 63.5863 32.2738C63.59 32.2701 63.5919 32.268 63.594 32.2643C63.6034 32.253 63.6129 32.2396 63.6205 32.2283C63.6318 32.2131 63.6413 32.1979 63.651 32.1826C63.6623 32.1656 63.6717 32.1485 63.6812 32.1314C63.7287 32.0458 63.7592 31.9586 63.7726 31.8692C63.7763 31.8522 63.7781 31.8332 63.7781 31.8162C63.78 31.7991 63.782 31.782 63.782 31.7647L63.7839 31.7668Z" fill="url(#paint6_linear_7996_40426)"/>
</g>
<path d="M63.7839 31.7684L63.7592 40.2729C63.7592 40.5957 63.533 40.9204 63.0865 41.1674L37.7492 55.1379C37.3008 55.3848 36.7137 55.5083 36.1248 55.5101C35.5283 55.512 34.9317 55.3885 34.4757 55.1379L8.97111 41.1674C8.51511 40.9167 8.28711 40.5881 8.28711 40.2616L8.3118 31.7607C8.3118 32.0058 8.44103 32.2507 8.69742 32.4634C8.73919 32.4994 8.78488 32.5338 8.83611 32.5659C8.8855 32.6003 8.9388 32.6326 8.9958 32.6628L34.4983 46.6334C34.9488 46.8803 35.5359 47.0037 36.123 47.0056C36.7195 47.0074 37.3179 46.884 37.772 46.6334L63.1093 32.6628C63.138 32.6476 63.1645 32.6305 63.191 32.6153C63.2176 32.6003 63.2425 32.5832 63.2672 32.5659C63.2785 32.5585 63.288 32.5527 63.2974 32.5451C63.3032 32.5412 63.3069 32.5375 63.3108 32.5357C63.3242 32.5262 63.3373 32.5167 63.3507 32.5052C63.3678 32.4921 63.3867 32.4787 63.402 32.4634C63.4437 32.4293 63.4818 32.3933 63.516 32.357C63.5293 32.3439 63.5425 32.3305 63.554 32.3153C63.5653 32.3021 63.5748 32.2906 63.5863 32.2774C63.59 32.2735 63.5919 32.2717 63.594 32.2677C63.6034 32.2564 63.6129 32.243 63.6205 32.2317C63.6318 32.2165 63.6413 32.2013 63.651 32.1863C63.6623 32.169 63.6717 32.1519 63.6812 32.1348C63.7287 32.0494 63.7592 31.962 63.7726 31.8729C63.7763 31.8558 63.7781 31.8367 63.7781 31.8196C63.78 31.8025 63.782 31.7854 63.782 31.7684H63.7839Z" fill="url(#paint7_linear_7996_40426)"/>
<g opacity="0.4">
<path opacity="0.4" d="M60.7265 36.8221C61.441 36.4215 62.028 36.7462 62.0299 37.5439C62.0317 38.3435 61.4504 39.3234 60.736 39.7242L39.1833 51.8239C38.4688 52.2245 37.8817 51.8999 37.8799 51.1021C37.878 50.3045 38.4594 49.3226 39.1757 48.922L60.7284 36.8221H60.7265Z" fill="white"/>
</g>
<g opacity="0.5">
<path opacity="0.5" d="M42.3645 47.7977C42.8053 47.5563 43.1625 47.7502 43.1644 48.2288C43.1644 48.7074 42.8092 49.2903 42.3703 49.5315C41.9314 49.7729 41.5704 49.579 41.5684 49.1004C41.5684 48.6218 41.9237 48.037 42.3645 47.7977Z" fill="white"/>
</g>
<g opacity="0.9">
<path opacity="0.9" d="M50.637 43.1693C51.0777 42.9279 51.4347 43.1218 51.4368 43.6004C51.4368 44.079 51.0814 44.6619 50.6425 44.9031C50.2036 45.1445 49.8427 44.9506 49.8408 44.472C49.8408 43.9934 50.1962 43.4084 50.637 43.1693Z" fill="white"/>
</g>
<g opacity="0.5">
<path opacity="0.5" d="M58.6807 38.5769C59.1215 38.3358 59.4787 38.5294 59.4805 39.008C59.4824 39.4866 59.1254 40.0695 58.6865 40.3109C58.2475 40.5521 57.8866 40.3582 57.8848 39.8796C57.8848 39.4012 58.2399 38.8162 58.6807 38.5769Z" fill="white"/>
</g>
<g opacity="0.4">
<path opacity="0.4" d="M60.7265 49.3255C61.441 48.9249 62.028 49.2496 62.0299 50.0473C62.0317 50.847 61.4504 51.8268 60.736 52.2277L39.1833 64.3273C38.4688 64.728 37.8817 64.4033 37.8799 63.6055C37.878 62.808 38.4594 61.826 39.1757 61.4254L60.7284 49.3255H60.7265Z" fill="white"/>
</g>
<g opacity="0.5">
<path opacity="0.5" d="M42.3645 60.3011C42.8053 60.0598 43.1625 60.2536 43.1644 60.7322C43.1644 61.2108 42.8092 61.7938 42.3703 62.0349C41.9314 62.2763 41.5704 62.0824 41.5684 61.6038C41.5684 61.1252 41.9237 60.5404 42.3645 60.3011Z" fill="white"/>
</g>
<g opacity="0.9">
<path opacity="0.9" d="M50.637 55.6727C51.0777 55.4313 51.4347 55.6252 51.4368 56.1038C51.4368 56.5824 51.0814 57.1653 50.6425 57.4065C50.2036 57.6479 49.8427 57.454 49.8408 56.9754C49.8408 56.4968 50.1962 55.9118 50.637 55.6727Z" fill="white"/>
</g>
<g opacity="0.5">
<path opacity="0.5" d="M58.6807 51.0803C59.1215 50.8392 59.4787 51.0328 59.4805 51.5114C59.4824 51.99 59.1254 52.573 58.6865 52.8143C58.2475 53.0555 57.8866 52.8616 57.8848 52.383C57.8848 51.9046 58.2399 51.3196 58.6807 51.0803Z" fill="white"/>
</g>
<path d="M36.1248 34.2432V42.748C35.5283 42.7498 34.9317 42.6264 34.4757 42.3755L8.97111 28.4052C8.51511 28.1545 8.28711 27.826 8.28711 27.4993L8.3118 18.9985C8.3118 19.2435 8.44103 19.4885 8.69742 19.7012C8.73919 19.7373 8.78488 19.7715 8.83611 19.8038C8.8855 19.838 8.9388 19.8703 8.9958 19.9007L34.4983 33.871C34.9488 34.1179 35.5359 34.2414 36.123 34.2432H36.1248Z" fill="#C9D7DD"/>
<path d="M63.7799 19.0572C63.7799 19.0743 63.776 19.0933 63.7741 19.1104C63.7608 19.1977 63.7303 19.287 63.683 19.3725C63.6733 19.3896 63.6638 19.4067 63.6525 19.4238C63.6431 19.4389 63.6336 19.4542 63.6221 19.4693C63.6126 19.4826 63.605 19.494 63.5955 19.5054C63.5916 19.5092 63.5898 19.513 63.5879 19.5149C63.5784 19.5282 63.5669 19.5396 63.5556 19.5529C63.5443 19.5681 63.5309 19.5814 63.5175 19.5947C63.4815 19.6327 63.4435 19.6669 63.4035 19.701C63.3865 19.7143 63.3694 19.7276 63.3523 19.7428C63.3389 19.7523 63.3258 19.7618 63.3124 19.7732C63.3087 19.777 63.3029 19.7808 63.2992 19.7827C63.2895 19.7903 63.2801 19.796 63.2688 19.8036C63.2441 19.8207 63.2194 19.8378 63.1928 19.853C63.1661 19.8682 63.1395 19.8853 63.1111 19.9005L37.7736 33.8708C37.3197 34.1216 36.7211 34.2451 36.1245 34.243C35.5374 34.2412 34.9504 34.1177 34.5001 33.8708L8.99552 19.9005C8.93852 19.8682 8.88522 19.8359 8.83583 19.8036C8.78645 19.7694 8.73891 19.7352 8.69714 19.701C8.44075 19.4883 8.31152 19.2433 8.31152 18.9983C8.31152 18.6736 8.53583 18.3507 8.98421 18.1019L34.3234 4.13149C35.2259 3.6339 36.6906 3.6339 37.5971 4.13149L63.0996 18.1019C63.5784 18.364 63.8064 18.7135 63.7799 19.0591V19.0572Z" fill="white"/>
<g opacity="0.6">
<path d="M63.7799 19.0631C63.7799 19.0802 63.776 19.0992 63.7741 19.1162C63.7608 19.2036 63.7303 19.2929 63.683 19.3783C63.6733 19.3954 63.6638 19.4125 63.6525 19.4296C63.6431 19.4448 63.6336 19.46 63.6221 19.4752C63.6126 19.4885 63.605 19.4999 63.5955 19.5113C63.5916 19.5151 63.5898 19.5189 63.5879 19.5208C63.5784 19.5341 63.5669 19.5455 63.5556 19.5588C63.5443 19.5739 63.5309 19.5872 63.5175 19.6005C63.4815 19.6385 63.4435 19.6727 63.4035 19.7069C63.3865 19.7202 63.3694 19.7335 63.3523 19.7487C63.3389 19.7582 63.3258 19.7677 63.3124 19.779C63.3087 19.7829 63.3029 19.7867 63.2992 19.7886C63.2895 19.7961 63.2801 19.8018 63.2688 19.8094C63.2441 19.8265 63.2194 19.8436 63.1928 19.8588C63.1661 19.874 63.1395 19.8911 63.1111 19.9063L37.7736 33.8767C37.3197 34.1273 36.7211 34.2508 36.1245 34.2489C35.5374 34.2471 34.9504 34.1236 34.5001 33.8767L8.99552 19.9063C8.93852 19.874 8.88522 19.8417 8.83583 19.8094C8.78645 19.7753 8.73891 19.7411 8.69714 19.7069C8.44075 19.4942 8.31152 19.2492 8.31152 19.0042C8.31152 18.6794 8.53583 18.3566 8.98421 18.1078L34.3234 4.13735C35.2259 3.63976 36.6906 3.63976 37.5971 4.13735L63.0996 18.1078C63.5784 18.3699 63.8064 18.7193 63.7799 19.065V19.0631Z" fill="url(#paint8_linear_7996_40426)"/>
</g>
<path d="M59.3568 19.0554C59.3568 19.0706 59.355 19.0839 59.3511 19.0991C59.3398 19.1732 59.3132 19.2491 59.2751 19.3194C59.2675 19.3327 59.2581 19.3479 59.2505 19.3631C59.241 19.3745 59.2334 19.3878 59.2258 19.4011C59.2181 19.4125 59.2105 19.422 59.2029 19.4315C59.2011 19.4353 59.1992 19.4372 59.1953 19.441C59.1877 19.4524 59.1782 19.4619 59.1688 19.4732C59.1593 19.4846 59.1478 19.496 59.1365 19.5093C59.106 19.5416 59.0737 19.5701 59.0395 19.6005C59.0395 19.6005 59.034 19.6043 59.0319 19.6081C58.9618 19.5511 58.878 19.4942 58.785 19.4429L37.3368 7.69449C36.5748 7.27667 35.3418 7.27667 34.5838 7.69449L13.278 19.4391C13.1868 19.4885 13.1088 19.5416 13.0387 19.5986C13.0387 19.5986 13.0348 19.5967 13.0348 19.5948C12.8183 19.4144 12.7119 19.2093 12.7119 19.0042C12.7119 18.7307 12.9 18.4591 13.278 18.2502L34.5838 6.5018C35.3418 6.08208 36.5748 6.08208 37.3368 6.5018L58.785 18.2502C59.1877 18.4705 59.3797 18.7649 59.3568 19.0554Z" fill="#6E17FF"/>
<path d="M59.0323 19.6025C59.021 19.612 59.0094 19.6215 58.9963 19.631C58.9848 19.6386 58.9734 19.6481 58.9621 19.6557C58.9582 19.6576 58.9545 19.6614 58.9506 19.6633C58.9411 19.669 58.9335 19.6747 58.9259 19.6804C58.9051 19.6937 58.8841 19.707 58.8613 19.7222C58.8384 19.7355 58.8158 19.7488 58.793 19.762L37.4872 31.5105C37.1053 31.7212 36.6018 31.8257 36.1003 31.8239C35.6062 31.8218 35.1124 31.7175 34.7341 31.5105L13.286 19.7639C13.2384 19.7374 13.193 19.7108 13.151 19.6823C13.1113 19.6557 13.0732 19.6272 13.0391 19.5987C13.1074 19.5417 13.1872 19.4886 13.2784 19.4392L34.5841 7.69081C35.3422 7.27299 36.5752 7.27299 37.3372 7.69081L58.7854 19.4392C58.8784 19.4905 58.9601 19.5455 59.0323 19.6044V19.6025Z" fill="#C9D7DD"/>
<path d="M59.0323 19.6059C59.021 19.6154 59.0094 19.6249 58.9963 19.6344C58.9848 19.642 58.9734 19.6515 58.9621 19.6591C58.9582 19.6609 58.9545 19.6648 58.9506 19.6666C58.9411 19.6723 58.9335 19.678 58.9259 19.6837C58.9051 19.697 58.8841 19.7103 58.8613 19.7255C58.8384 19.7388 58.8158 19.7521 58.793 19.7654L37.4872 31.5137C37.1053 31.7247 36.6018 31.829 36.1003 31.8271C35.6062 31.8253 35.1124 31.7207 34.7341 31.5137L13.286 19.7654C13.2384 19.7388 13.193 19.7122 13.151 19.6837C13.1113 19.6572 13.0732 19.6287 13.0391 19.6002C13.1074 19.5432 13.1872 19.49 13.2784 19.4407L34.5841 7.69227C35.3422 7.27445 36.5752 7.27445 37.3372 7.69227L58.7854 19.4407C58.8784 19.4919 58.9601 19.547 59.0323 19.6059Z" fill="url(#paint9_linear_7996_40426)"/>
<path d="M63.7841 19.0059L63.7594 27.5104C63.7594 27.8333 63.5332 28.1581 63.0867 28.405L37.7494 42.3753C37.301 42.6222 36.7139 42.7456 36.125 42.7477V34.243C36.7215 34.245 37.3199 34.1216 37.7741 33.8707L63.1114 19.9004C63.14 19.8852 63.1665 19.8681 63.1933 19.8529C63.2198 19.8377 63.2445 19.8206 63.2692 19.8035C63.2805 19.7959 63.29 19.7902 63.2997 19.7826C63.3052 19.7788 63.3092 19.775 63.3128 19.7731C63.3262 19.7636 63.3394 19.7542 63.3528 19.7428C63.3698 19.7295 63.3888 19.7162 63.404 19.701C63.4458 19.6668 63.4838 19.6307 63.518 19.5946C63.5314 19.5813 63.5448 19.568 63.5561 19.5528C63.5674 19.5395 63.5771 19.5281 63.5884 19.5148C63.5921 19.511 63.5942 19.5091 63.596 19.5054C63.6055 19.494 63.6149 19.4807 63.6225 19.4693C63.6341 19.4541 63.6435 19.4389 63.653 19.4237C63.6643 19.4066 63.6738 19.3895 63.6835 19.3724C63.7308 19.2869 63.7612 19.1996 63.7746 19.1103C63.7783 19.0932 63.7802 19.0742 63.7802 19.0571C63.7822 19.0401 63.7841 19.023 63.7841 19.0059Z" fill="#C9D7DD"/>
<g opacity="0.8">
<path opacity="0.8" d="M63.7839 19.0154L63.7592 27.52C63.7592 27.8428 63.533 28.1676 63.0865 28.4145L37.7492 42.385C37.3008 42.6319 36.7137 42.7551 36.1248 42.7572C35.5283 42.7591 34.9317 42.6356 34.4757 42.385L8.97111 28.4145C8.51511 28.1638 8.28711 27.8352 8.28711 27.5086L8.3118 19.0078C8.3118 19.2528 8.44103 19.4978 8.69742 19.7105C8.73919 19.7466 8.78488 19.7808 8.83611 19.8131C8.8855 19.8472 8.9388 19.8795 8.9958 19.9099L34.4983 33.8805C34.9488 34.1271 35.5359 34.2506 36.123 34.2527C36.7195 34.2545 37.3179 34.1311 37.772 33.8805L63.1093 19.9099C63.138 19.8947 63.1645 19.8776 63.191 19.8624C63.2176 19.8472 63.2425 19.8302 63.2672 19.8131C63.2785 19.8055 63.288 19.7998 63.2974 19.7922C63.3032 19.7884 63.3069 19.7846 63.3108 19.7827C63.3242 19.7732 63.3373 19.7637 63.3507 19.7523C63.3678 19.739 63.3867 19.7257 63.402 19.7105C63.4437 19.6763 63.4818 19.6402 63.516 19.6041C63.5293 19.5909 63.5425 19.5776 63.554 19.5624C63.5653 19.5491 63.5748 19.5377 63.5863 19.5244C63.59 19.5206 63.5919 19.5187 63.594 19.5149C63.6034 19.5035 63.6129 19.4902 63.6205 19.4788C63.6318 19.4636 63.6413 19.4484 63.651 19.4332C63.6623 19.4161 63.6717 19.399 63.6812 19.3819C63.7287 19.2965 63.7592 19.2091 63.7726 19.1199C63.7763 19.1028 63.7781 19.0838 63.7781 19.0667C63.78 19.0496 63.782 19.0325 63.782 19.0154H63.7839Z" fill="url(#paint10_linear_7996_40426)"/>
</g>
<path d="M63.7839 19.0174L63.7592 27.5219C63.7592 27.8448 63.533 28.1695 63.0865 28.4164L37.7492 42.3869C37.3008 42.6338 36.7137 42.7573 36.1248 42.7591C35.5283 42.761 34.9317 42.6375 34.4757 42.3869L8.97111 28.4164C8.51511 28.1657 8.28711 27.8372 8.28711 27.5105L8.3118 19.0098C8.3118 19.2548 8.44103 19.4998 8.69742 19.7125C8.73919 19.7486 8.78488 19.7827 8.83611 19.815C8.8855 19.8492 8.9388 19.8815 8.9958 19.9119L34.4983 33.8824C34.9488 34.1293 35.5359 34.2527 36.123 34.2546C36.7195 34.2564 37.3179 34.133 37.772 33.8824L63.1093 19.9119C63.138 19.8967 63.1645 19.8796 63.191 19.8644C63.2176 19.8492 63.2425 19.8321 63.2672 19.815C63.2785 19.8074 63.288 19.8017 63.2974 19.7941C63.3032 19.7903 63.3069 19.7865 63.3108 19.7846C63.3242 19.7751 63.3373 19.7656 63.3507 19.7543C63.3678 19.741 63.3867 19.7276 63.402 19.7125C63.4437 19.6783 63.4818 19.6422 63.516 19.6061C63.5293 19.5928 63.5425 19.5795 63.554 19.5643C63.5653 19.551 63.5748 19.5396 63.5863 19.5263C63.59 19.5225 63.5919 19.5206 63.594 19.5168C63.6034 19.5055 63.6129 19.4921 63.6205 19.4808C63.6318 19.4656 63.6413 19.4504 63.651 19.4352C63.6623 19.4181 63.6717 19.401 63.6812 19.3839C63.7287 19.2984 63.7592 19.2111 63.7726 19.1218C63.7763 19.1047 63.7781 19.0857 63.7781 19.0686C63.78 19.0515 63.782 19.0345 63.782 19.0174H63.7839Z" fill="url(#paint11_linear_7996_40426)"/>
<g opacity="0.8">
<path opacity="0.8" d="M60.7265 24.0712C61.441 23.6704 62.028 23.9952 62.0299 24.7929C62.0317 25.5924 61.4504 26.5724 60.736 26.9731L39.1833 39.0729C38.4688 39.4735 37.8817 39.1488 37.8799 38.3513C37.878 37.5535 38.4594 36.5716 39.1757 36.171L60.7284 24.0712H60.7265Z" fill="white"/>
</g>
<g opacity="0.5">
<path opacity="0.5" d="M42.3645 35.0486C42.8053 34.8074 43.1625 35.0011 43.1644 35.4797C43.1644 35.9583 42.8092 36.5414 42.3703 36.7826C41.9314 37.0237 41.5704 36.8299 41.5684 36.3515C41.5684 35.8729 41.9237 35.2879 42.3645 35.0486Z" fill="#6E17FF"/>
</g>
<g opacity="0.9">
<path opacity="0.9" d="M50.637 30.4182C51.0777 30.177 51.4347 30.3707 51.4368 30.8494C51.4368 31.328 51.0814 31.9109 50.6425 32.1521C50.2017 32.3935 49.8427 32.1996 49.8408 31.721C49.8408 31.2424 50.1962 30.6575 50.637 30.4182Z" fill="#6E17FF"/>
</g>
<g opacity="0.5">
<path opacity="0.5" d="M58.6807 25.8259C59.1215 25.5847 59.4787 25.7785 59.4805 26.2571C59.4824 26.7357 59.1254 27.3187 58.6865 27.5599C58.2475 27.8011 57.8866 27.6074 57.8848 27.1288C57.8848 26.6502 58.2399 26.0653 58.6807 25.8259Z" fill="#6E17FF"/>
</g>
<path d="M46.0862 14.0927C46.2666 14.1933 46.4508 14.3225 46.5401 14.4744L50.1689 20.2195C50.3286 20.5119 50.3076 20.831 50.0607 21.0988L44.4161 26.2323C44.0778 26.4754 43.6047 26.6406 43.0615 26.69L32.3953 27.3281C31.8671 27.3737 31.3559 27.2863 30.995 27.0831C30.9532 27.0603 30.9152 27.0356 30.8792 27.0091L23.2585 22.7302C22.8957 22.5004 22.6885 22.1813 22.6885 21.8756L23.7849 15.8627C23.8742 15.557 24.1647 15.2911 24.617 15.1106L33.7329 11.8763C34.2078 11.7111 34.7492 11.6845 35.2469 11.7871L45.4781 13.8002C45.7043 13.8762 45.9076 13.9901 46.0899 14.0927H46.0862Z" fill="#6E17FF"/>
<path d="M46.0898 14.0927C46.2703 14.1933 46.4547 14.3225 46.544 14.4744L50.1728 20.2195C50.3323 20.5119 50.3115 20.831 50.0644 21.0988L44.4198 26.2323C44.0817 26.4754 43.6086 26.6406 43.0652 26.69L32.399 27.3281C31.8708 27.3737 31.3598 27.2863 30.9987 27.0831C30.9569 27.0603 30.9188 27.0356 30.8828 27.0091L23.2622 22.7302C22.8994 22.5004 22.6924 22.1813 22.6924 21.8756L23.7885 15.8627C23.8778 15.557 24.1686 15.2911 24.6207 15.1106L33.7365 11.8763C34.2115 11.7111 34.7531 11.6845 35.2508 11.7871L45.4818 13.8002C45.7079 13.8762 45.9112 13.9901 46.0935 14.0927H46.0898Z" fill="url(#paint12_linear_7996_40426)"/>
<path d="M42.0834 24.6542C42.2428 24.7947 42.2428 24.9979 42.0167 25.1517C41.7697 25.2144 41.4524 25.1897 41.2473 25.0758C41.2016 25.0511 41.179 25.0378 41.158 24.9998C41.158 24.9833 41.1504 24.9707 41.1351 24.9618C41.0897 24.9371 41.0915 24.9105 41.0668 24.8972C40.9985 24.8346 40.9757 24.77 40.93 24.694C40.8864 24.6693 40.8617 24.6314 40.8407 24.5934C40.6812 24.4034 40.4987 24.223 40.2954 24.0578C40.2042 24.0065 40.1131 23.9818 40.0237 23.9818L39.8204 23.8679C38.1275 24.3636 36.1632 24.4794 34.3069 24.2249L34.1947 24.3655C34.0371 24.3788 33.9478 24.4281 33.9021 24.4794C33.7674 24.6579 33.6571 24.8479 33.6134 25.053C33.5677 25.1289 33.5677 25.1555 33.5449 25.1935C33.5449 25.2695 33.5241 25.3341 33.4784 25.41C33.4784 25.4347 33.4784 25.4613 33.4577 25.4727C33.3912 25.5886 33.2791 25.6512 33.1422 25.7025C33.0074 25.7538 32.8267 25.7538 32.692 25.7272C32.6008 25.7025 32.5344 25.6892 32.4658 25.6512C32.2835 25.5487 32.2378 25.3967 32.3043 25.2562C32.3043 25.2049 32.3253 25.1935 32.3271 25.1669C32.3481 25.1042 32.4164 25.0397 32.4847 24.9751L32.5741 24.8744C32.7774 24.6826 32.8895 24.4927 33.0017 24.3009C33.0245 24.2382 33.0017 24.1736 32.956 24.1224L33.0245 23.9571C32.7301 23.8679 32.3899 23.7786 32.0954 23.6647C31.5748 23.4995 31.1207 23.2943 30.7122 23.0664C30.0321 22.6847 29.4868 22.2517 29.0991 21.7541L28.8275 21.8054C28.6907 21.7807 28.5785 21.7674 28.4666 21.7807C28.1283 21.8434 27.7881 21.9079 27.4729 22.0105L27.2924 22.0618C27.1803 22.0997 27.0663 22.113 26.9541 22.151C26.9087 22.151 26.8648 22.151 26.842 22.1643C26.5475 22.2023 26.2777 22.1757 26.0954 22.0751C26.0497 22.0504 26.0043 21.9991 25.9814 21.9611C25.8882 21.7826 26.0689 21.5794 26.407 21.5148C26.4981 21.5148 26.5191 21.5015 26.5646 21.5015C26.7243 21.4882 26.8593 21.4635 26.9484 21.4635C27.0397 21.4635 27.0852 21.4635 27.1517 21.4502C27.5147 21.3989 27.8737 21.3477 28.1911 21.2717C28.2822 21.247 28.3734 21.1957 28.3944 21.1312L28.6641 21.0799C28.5501 20.8881 28.5044 20.7095 28.4569 20.5063C28.2481 19.627 28.5367 18.7477 29.2323 17.9709L29.0061 17.8684C29.0061 17.7924 28.9604 17.7411 28.8921 17.7031C28.552 17.5626 28.2575 17.4733 27.9174 17.3841C27.8491 17.3461 27.7807 17.3328 27.7141 17.3214C27.6229 17.2967 27.4881 17.2701 27.3741 17.2321C27.3589 17.2245 27.3342 17.1979 27.3114 17.1866C27.169 17.1695 27.1461 17.1562 27.1023 17.1315C26.8667 17.0023 26.8173 16.8295 26.9636 16.6985C27.1669 16.5332 27.5507 16.4933 27.8451 16.6092C27.8744 16.6092 27.8973 16.6136 27.9137 16.6225C27.9591 16.6472 28.0048 16.6472 28.0258 16.6605C28.117 16.7117 28.2291 16.7497 28.3203 16.801C28.3886 16.8143 28.4322 16.839 28.4779 16.8637C28.7742 17.0042 29.0689 17.1182 29.386 17.2207C29.4981 17.234 29.6121 17.2454 29.7014 17.2207L29.9731 17.2967C31.0524 16.4554 32.6539 15.8818 34.4627 15.6539C34.5291 15.6425 34.5748 15.6406 34.6431 15.6292V15.4811C34.7154 15.4507 34.7534 15.3823 34.7534 15.3367C34.7534 15.1316 34.6602 14.9284 34.569 14.7252C34.5462 14.6872 34.5234 14.6492 34.5007 14.6112C34.4551 14.5353 34.4094 14.4574 34.3867 14.3947C34.3639 14.3814 34.3639 14.334 34.3639 14.3302C34.3392 14.1137 34.5654 13.9351 34.9034 13.8971C35.0839 13.8725 35.2436 13.9104 35.3784 13.9864C35.4924 14.051 35.5609 14.1402 35.5835 14.2276C35.5835 14.2789 35.6064 14.2922 35.6064 14.3169C35.6064 14.3928 35.5856 14.4574 35.5856 14.5334C35.5856 14.5581 35.6084 14.5961 35.5856 14.6359C35.5646 14.8259 35.5874 15.0443 35.635 15.2475C35.6578 15.2855 35.6804 15.3234 35.7243 15.3481C35.7679 15.3728 35.8154 15.3728 35.8383 15.3861L35.9066 15.5267C37.4437 15.502 38.9825 15.7299 40.2746 16.2028C40.5919 16.33 40.8864 16.444 41.158 16.5731L41.3613 16.4838C41.5189 16.4705 41.6082 16.4459 41.6996 16.4212C41.9712 16.2673 42.2181 16.1287 42.4214 15.9616C42.4879 15.9236 42.5336 15.8989 42.5564 15.859C42.6229 15.7963 42.6912 15.7318 42.7824 15.6805L42.8945 15.6178C43.0067 15.5551 43.1643 15.5153 43.3447 15.5153C43.5425 15.5153 43.723 15.5438 43.8407 15.6102C43.8577 15.6197 43.8748 15.6311 43.8882 15.6425C44.0915 15.783 44.0479 16.0128 43.7989 16.1268L43.6639 16.2028C43.552 16.2407 43.4608 16.292 43.3487 16.3319C43.303 16.3566 43.2347 16.3699 43.1908 16.3946C42.8527 16.5351 42.6037 16.6757 42.3568 16.8143C42.3132 16.8656 42.2675 16.9169 42.2885 16.9795L42.1535 17.0821C43.1073 17.7449 43.7437 18.5597 43.93 19.401C43.93 19.6042 43.9547 19.8207 43.9565 20.0258L44.251 20.0638C44.2738 20.1018 44.3195 20.1284 44.3403 20.1398C44.386 20.1645 44.4543 20.1778 44.5228 20.1911C44.8627 20.229 45.2467 20.2423 45.5848 20.229C45.6305 20.229 45.6988 20.2423 45.7653 20.229C45.8774 20.2157 46.0122 20.2157 46.1491 20.2157C46.1719 20.229 46.2176 20.229 46.2612 20.229C46.4645 20.2423 46.6221 20.2803 46.7361 20.3449C46.8501 20.4095 46.9187 20.5234 46.8958 20.6127C46.852 20.8159 46.5367 20.9431 46.1737 20.9184C46.0826 20.945 46.0597 20.9317 46.0161 20.9317C45.8793 20.9071 45.7671 20.8937 45.6305 20.8691C45.562 20.8558 45.4937 20.8444 45.4272 20.8311C45.066 20.7798 44.7261 20.7418 44.3424 20.7304C44.251 20.7304 44.1391 20.7684 44.0726 20.8064L43.7779 20.8197C43.5767 21.342 43.2176 21.851 42.7235 22.3106C42.2068 22.7569 41.5759 23.1633 40.8312 23.4824L40.9681 23.6096C40.9224 23.6609 40.9242 23.7368 40.9681 23.7881C41.1504 23.9666 41.3765 24.1452 41.6045 24.2971C41.6481 24.3484 41.6938 24.3731 41.7393 24.3997C41.8307 24.4509 41.9218 24.5022 41.9883 24.5649C42.034 24.5896 42.0794 24.6162 42.0566 24.6295C42.034 24.6428 42.0566 24.6542 42.0794 24.6674L42.0834 24.6542ZM37.5084 23.3798C37.9376 23.3418 38.367 23.2526 38.7944 23.1367L36.9097 21.6458C36.8414 21.6079 36.7503 21.5832 36.661 21.5566C36.4348 21.5053 36.1632 21.5566 36.0282 21.6838L34.7934 23.3779C35.6767 23.4918 36.6247 23.4918 37.5063 23.3779L37.5084 23.3798ZM32.8971 20.003C33.0093 19.9898 33.1004 19.9404 33.1441 19.8891C33.3019 19.7751 33.2334 19.608 33.0529 19.5074L30.4254 18.4628C29.8401 19.1503 29.6862 19.9537 29.9636 20.6924L32.899 20.0049L32.8971 20.003ZM34.6203 16.5275C33.2867 16.7193 32.0915 17.1391 31.2118 17.7126L34.0429 18.5919C34.1569 18.6299 34.2252 18.6432 34.3374 18.6299C34.6318 18.6166 34.8331 18.4761 34.8104 18.3109L34.6203 16.5275ZM32.7813 22.9354C32.9846 22.9981 33.1441 23.0626 33.3019 23.1253L34.174 21.4065C34.174 21.3306 34.174 21.2793 34.1493 21.2147C34.1246 21.1653 34.0807 21.1236 34.0237 21.0913C33.9174 21.0324 33.7674 21.0039 33.6058 21.0115L30.49 21.5205C30.8073 21.851 31.2176 22.1833 31.6925 22.4511C32.0327 22.6429 32.3957 22.7948 32.7813 22.9354ZM39.3702 16.9605C38.3954 16.6168 37.2651 16.4383 36.1117 16.4269L36.6647 18.2349C36.7104 18.2862 36.733 18.3242 36.8015 18.3621C37.0048 18.4761 37.3447 18.4894 37.5462 18.3754L39.9137 17.1656L39.3702 16.9624V16.9605ZM40.0597 22.6828C40.5785 22.4397 41.0287 22.1605 41.3899 21.8282C41.749 21.4977 42.0187 21.1406 42.1745 20.7703L38.9407 20.681C38.8496 20.681 38.7831 20.6943 38.692 20.719C38.443 20.8083 38.3537 20.9868 38.5134 21.1274L40.0597 22.6809V22.6828ZM42.3264 19.9176C42.3227 19.1541 41.8648 18.4134 40.9812 17.7905L38.8401 19.1522C38.7737 19.1902 38.7508 19.2282 38.7508 19.2794C38.7243 19.3725 38.7907 19.4618 38.9029 19.5263C38.9731 19.5662 39.0624 19.5966 39.1574 19.6099L42.3245 19.9157L42.3264 19.9176ZM36.4653 19.3687L35.4924 19.4314L34.9985 19.8891L35.3177 20.3981L36.2239 20.5766L37.0371 20.2974L37.1472 19.7486L36.4671 19.3668" fill="white"/>
<path d="M34.6143 15.483L34.6369 15.4697V15.4754C34.6369 15.4754 34.6219 15.4811 34.6143 15.483Z" fill="white"/>
</g>
</g>
<defs>
<filter id="filter0_d_7996_40426" x="-7.21289" y="-11.7417" width="86.4971" height="95.5034" filterUnits="userSpaceOnUse" color-interpolation-filters="sRGB">
<feFlood flood-opacity="0" result="BackgroundImageFix"/>
<feColorMatrix in="SourceAlpha" type="matrix" values="0 0 0 0 0 0 0 0 0 0 0 0 0 0 0 0 0 0 127 0" result="hardAlpha"/>
<feOffset/>
<feGaussianBlur stdDeviation="7.75"/>
<feColorMatrix type="matrix" values="0 0 0 0 0 0 0 0 0 0 0 0 0 0 0 0 0 0 0.15 0"/>
<feBlend mode="normal" in2="BackgroundImageFix" result="effect1_dropShadow_7996_40426"/>
<feBlend mode="normal" in="SourceGraphic" in2="effect1_dropShadow_7996_40426" result="shape"/>
</filter>
<linearGradient id="paint0_linear_7996_40426" x1="22.5761" y1="26.0669" x2="31.1538" y2="37.8165" gradientUnits="userSpaceOnUse">
<stop stop-color="#4C7F8E" stop-opacity="0"/>
<stop offset="0.4" stop-color="#4C7F8E" stop-opacity="0"/>
<stop offset="0.5" stop-color="#4C7F8E" stop-opacity="0.12"/>
<stop offset="0.7" stop-color="#4C7F8E" stop-opacity="0.33"/>
<stop offset="0.88" stop-color="#4C7F8E" stop-opacity="0.45"/>
<stop offset="1" stop-color="#4C7F8E" stop-opacity="0.5"/>
</linearGradient>
<linearGradient id="paint1_linear_7996_40426" x1="33.6817" y1="28.6309" x2="34.2589" y2="32.6744" gradientUnits="userSpaceOnUse">
<stop offset="0.57" stop-color="white" stop-opacity="0"/>
<stop offset="0.79" stop-color="white" stop-opacity="0.3"/>
<stop offset="0.87" stop-color="white" stop-opacity="0.42"/>
<stop offset="1" stop-color="white" stop-opacity="0.6"/>
</linearGradient>
<linearGradient id="paint2_linear_7996_40426" x1="66.7116" y1="57.436" x2="1.90542" y2="53.3913" gradientUnits="userSpaceOnUse">
<stop stop-color="#4C7F8E" stop-opacity="0.6"/>
<stop offset="0.11" stop-color="#4C7F8E" stop-opacity="0.55"/>
<stop offset="0.27" stop-color="#4C7F8E" stop-opacity="0.43"/>
<stop offset="0.45" stop-color="#4C7F8E" stop-opacity="0.22"/>
<stop offset="0.6" stop-color="#4C7F8E" stop-opacity="0"/>
<stop offset="1" stop-color="#4C7F8E" stop-opacity="0"/>
</linearGradient>
<linearGradient id="paint3_linear_7996_40426" x1="65.5033" y1="59.6466" x2="13.6806" y2="48.9329" gradientUnits="userSpaceOnUse">
<stop offset="0.57" stop-color="white" stop-opacity="0"/>
<stop offset="0.79" stop-color="white" stop-opacity="0.3"/>
<stop offset="0.87" stop-color="white" stop-opacity="0.42"/>
<stop offset="1" stop-color="white" stop-opacity="0.6"/>
</linearGradient>
<linearGradient id="paint4_linear_7996_40426" x1="3.8676" y1="13.3159" x2="31.1549" y2="25.0701" gradientUnits="userSpaceOnUse">
<stop stop-color="#4C7F8E" stop-opacity="0"/>
<stop offset="0.4" stop-color="#4C7F8E" stop-opacity="0"/>
<stop offset="0.5" stop-color="#4C7F8E" stop-opacity="0.12"/>
<stop offset="0.7" stop-color="#4C7F8E" stop-opacity="0.33"/>
<stop offset="0.88" stop-color="#4C7F8E" stop-opacity="0.45"/>
<stop offset="1" stop-color="#4C7F8E" stop-opacity="0.5"/>
</linearGradient>
<linearGradient id="paint5_linear_7996_40426" x1="3.86817" y1="15.8799" x2="4.05809" y2="19.9252" gradientUnits="userSpaceOnUse">
<stop offset="0.57" stop-color="white" stop-opacity="0"/>
<stop offset="0.79" stop-color="white" stop-opacity="0.3"/>
<stop offset="0.87" stop-color="white" stop-opacity="0.42"/>
<stop offset="1" stop-color="white" stop-opacity="0.6"/>
</linearGradient>
<linearGradient id="paint6_linear_7996_40426" x1="66.7116" y1="44.685" x2="1.90542" y2="40.6403" gradientUnits="userSpaceOnUse">
<stop stop-color="#4C7F8E" stop-opacity="0.6"/>
<stop offset="0.11" stop-color="#4C7F8E" stop-opacity="0.55"/>
<stop offset="0.27" stop-color="#4C7F8E" stop-opacity="0.43"/>
<stop offset="0.45" stop-color="#4C7F8E" stop-opacity="0.22"/>
<stop offset="0.6" stop-color="#4C7F8E" stop-opacity="0"/>
<stop offset="1" stop-color="#4C7F8E" stop-opacity="0"/>
</linearGradient>
<linearGradient id="paint7_linear_7996_40426" x1="65.5033" y1="46.8953" x2="13.6806" y2="36.1816" gradientUnits="userSpaceOnUse">
<stop offset="0.57" stop-color="white" stop-opacity="0"/>
<stop offset="0.79" stop-color="white" stop-opacity="0.3"/>
<stop offset="0.87" stop-color="white" stop-opacity="0.42"/>
<stop offset="1" stop-color="white" stop-opacity="0.6"/>
</linearGradient>
<linearGradient id="paint8_linear_7996_40426" x1="3.8676" y1="0.566887" x2="31.1549" y2="12.321" gradientUnits="userSpaceOnUse">
<stop stop-color="#4C7F8E" stop-opacity="0"/>
<stop offset="0.4" stop-color="#4C7F8E" stop-opacity="0"/>
<stop offset="0.5" stop-color="#4C7F8E" stop-opacity="0.12"/>
<stop offset="0.7" stop-color="#4C7F8E" stop-opacity="0.33"/>
<stop offset="0.88" stop-color="#4C7F8E" stop-opacity="0.45"/>
<stop offset="1" stop-color="#4C7F8E" stop-opacity="0.5"/>
</linearGradient>
<linearGradient id="paint9_linear_7996_40426" x1="33.6816" y1="3.12853" x2="34.2588" y2="7.17386" gradientUnits="userSpaceOnUse">
<stop offset="0.57" stop-color="white" stop-opacity="0"/>
<stop offset="0.79" stop-color="white" stop-opacity="0.3"/>
<stop offset="0.87" stop-color="white" stop-opacity="0.42"/>
<stop offset="1" stop-color="white" stop-opacity="0.6"/>
</linearGradient>
<linearGradient id="paint10_linear_7996_40426" x1="66.7116" y1="31.9355" x2="1.90542" y2="27.891" gradientUnits="userSpaceOnUse">
<stop stop-color="#4C7F8E" stop-opacity="0.6"/>
<stop offset="0.11" stop-color="#4C7F8E" stop-opacity="0.55"/>
<stop offset="0.27" stop-color="#4C7F8E" stop-opacity="0.43"/>
<stop offset="0.45" stop-color="#4C7F8E" stop-opacity="0.22"/>
<stop offset="0.6" stop-color="#4C7F8E" stop-opacity="0"/>
<stop offset="1" stop-color="#4C7F8E" stop-opacity="0"/>
</linearGradient>
<linearGradient id="paint11_linear_7996_40426" x1="65.5033" y1="34.1443" x2="13.6806" y2="23.4326" gradientUnits="userSpaceOnUse">
<stop offset="0.57" stop-color="white" stop-opacity="0"/>
<stop offset="0.79" stop-color="white" stop-opacity="0.3"/>
<stop offset="0.87" stop-color="white" stop-opacity="0.42"/>
<stop offset="1" stop-color="white" stop-opacity="0.6"/>
</linearGradient>
<linearGradient id="paint12_linear_7996_40426" x1="52.6312" y1="24.4129" x2="22.5172" y2="16.1511" gradientUnits="userSpaceOnUse">
<stop offset="0.57" stop-color="white" stop-opacity="0"/>
<stop offset="0.79" stop-color="white" stop-opacity="0.3"/>
<stop offset="0.87" stop-color="white" stop-opacity="0.42"/>
<stop offset="1" stop-color="white" stop-opacity="0.6"/>
</linearGradient>
<clipPath id="clip0_7996_40426">
<rect width="72" height="72" fill="white"/>
</clipPath>
</defs>
</svg>
