<svg width="72" height="72" viewBox="0 0 72 72" fill="none" xmlns="http://www.w3.org/2000/svg">
<path d="M36.1246 59.7439V68.2484C35.5281 68.2503 34.9315 68.127 34.4755 67.8762L8.97093 53.9059C8.51493 53.655 8.28693 53.3266 8.28693 52.9999L8.31162 44.499C8.31162 44.7441 8.44085 44.9892 8.69723 45.2017C8.739 45.2379 8.7847 45.2721 8.83593 45.3044C8.88531 45.3386 8.93862 45.3709 8.99562 45.4013L34.4982 59.3716C34.9486 59.6186 35.5357 59.742 36.1228 59.7439H36.1246Z" fill="#C9D7DD"/>
<path d="M63.7797 44.5588C63.7797 44.5759 63.7758 44.5948 63.774 44.6119C63.7606 44.6993 63.7301 44.7884 63.6828 44.874C63.6731 44.8911 63.6636 44.9082 63.6523 44.9252C63.6429 44.9405 63.6334 44.9557 63.6219 44.9707C63.6124 44.9841 63.6048 44.9954 63.5953 45.0069C63.5914 45.0106 63.5896 45.0146 63.5877 45.0164C63.5783 45.0298 63.5667 45.0411 63.5554 45.0545C63.5441 45.0695 63.5307 45.0829 63.5173 45.0962C63.4813 45.1341 63.4433 45.1682 63.4033 45.2024C63.3863 45.2158 63.3692 45.2292 63.3521 45.2442C63.3387 45.2539 63.3256 45.2633 63.3122 45.2746C63.3085 45.2786 63.3027 45.2822 63.299 45.2841C63.2893 45.2917 63.2799 45.2975 63.2686 45.3051C63.2439 45.3222 63.2192 45.3392 63.1924 45.3545C63.1659 45.3697 63.1393 45.3868 63.1107 45.402L37.7734 59.3723C37.3193 59.6229 36.7209 59.7464 36.1243 59.7446C35.5373 59.7427 34.9502 59.6192 34.5 59.3723L8.99534 45.402C8.93834 45.3697 8.88503 45.3374 8.83565 45.3051C8.78626 45.2709 8.73872 45.2368 8.69695 45.2024C8.44057 44.9899 8.31134 44.7448 8.31134 44.4997C8.31134 44.175 8.53565 43.8522 8.98403 43.6034L34.3213 29.633C35.2236 29.1354 36.6886 29.1354 37.5948 29.633L63.0976 43.6034C63.5764 43.8656 63.8044 44.2149 63.7776 44.5606L63.7797 44.5588Z" fill="white"/>
<g opacity="0.6">
<path d="M63.7797 44.5654C63.7797 44.5827 63.7758 44.6016 63.774 44.6187C63.7606 44.7059 63.7301 44.7952 63.6828 44.8808C63.6731 44.8979 63.6636 44.915 63.6523 44.932C63.6429 44.9473 63.6334 44.9623 63.6219 44.9775C63.6124 44.9909 63.6048 45.0022 63.5953 45.0137C63.5914 45.0174 63.5896 45.0214 63.5877 45.0232C63.5783 45.0364 63.5667 45.0479 63.5554 45.061C63.5441 45.0763 63.5307 45.0897 63.5173 45.1028C63.4813 45.1409 63.4433 45.175 63.4033 45.2092C63.3863 45.2226 63.3692 45.236 63.3521 45.251C63.3387 45.2607 63.3256 45.2701 63.3122 45.2814C63.3085 45.2854 63.3027 45.289 63.299 45.2909C63.2893 45.2985 63.2799 45.3043 63.2686 45.3119C63.2439 45.329 63.2192 45.346 63.1924 45.3613C63.1659 45.3765 63.1393 45.3936 63.1107 45.4086L37.7734 59.3791C37.3193 59.6297 36.7209 59.7532 36.1243 59.7514C35.5373 59.7495 34.9502 59.626 34.5 59.3791L8.99534 45.4067C8.93834 45.3744 8.88503 45.3421 8.83565 45.31C8.78626 45.2757 8.73872 45.2415 8.69695 45.2073C8.44057 44.9946 8.31134 44.7497 8.31134 44.5047C8.31134 44.18 8.53565 43.8571 8.98403 43.6083L34.3213 29.6378C35.2236 29.1403 36.6886 29.1403 37.5948 29.6378L63.0976 43.6083C63.5764 43.8703 63.8044 44.2199 63.7776 44.5654H63.7797Z" fill="url(#paint0_linear_7996_40426)"/>
</g>
<path d="M59.3568 44.5559C59.3568 44.5712 59.355 44.5845 59.3511 44.5998C59.3398 44.6738 59.3132 44.7498 59.2751 44.8199C59.2675 44.8333 59.2581 44.8485 59.2505 44.8638C59.241 44.8751 59.2334 44.8885 59.2258 44.9016C59.2181 44.9132 59.2105 44.9226 59.2029 44.9321C59.2011 44.9358 59.1992 44.9378 59.1953 44.9415C59.1877 44.9528 59.1782 44.9623 59.1688 44.9738C59.1593 44.9852 59.1478 44.9967 59.1365 45.0098C59.106 45.0422 59.0737 45.0708 59.0395 45.101C59.0395 45.101 59.034 45.1049 59.0319 45.1086C58.9618 45.0516 58.878 44.9946 58.785 44.9434L37.3368 33.1952C36.5748 32.7772 35.3418 32.7772 34.5838 33.1952L13.278 44.9434C13.1868 44.9928 13.1088 45.0461 13.0387 45.1031C13.0387 45.1031 13.0348 45.101 13.0348 45.0992C12.8183 44.9187 12.7119 44.7135 12.7119 44.5086C12.7119 44.2349 12.9 43.9635 13.278 43.7545L34.5838 32.0062C35.3418 31.5865 36.5748 31.5865 37.3368 32.0062L58.785 43.7545C59.1877 43.9748 59.3797 44.2693 59.3568 44.5598V44.5559Z" fill="#6E17FF"/>
<path d="M59.0322 45.1049C59.0209 45.1144 59.0094 45.1238 58.9962 45.1333C58.9847 45.1409 58.9734 45.1504 58.9621 45.158C58.9581 45.1598 58.9544 45.1637 58.9505 45.1656C58.9411 45.1714 58.9334 45.1769 58.9258 45.1827C58.9051 45.196 58.8841 45.2092 58.8612 45.2244C58.8386 45.2378 58.8158 45.251 58.7929 45.2644L37.4871 57.0128C37.1052 57.2235 36.6017 57.328 36.1002 57.3262C35.6061 57.3241 35.1123 57.2198 34.7341 57.0128L13.2878 45.2644C13.2402 45.2378 13.1948 45.2113 13.153 45.1827C13.1131 45.1561 13.075 45.1275 13.0408 45.0991C13.1091 45.0421 13.189 44.989 13.2801 44.9397L34.5859 33.1912C35.344 32.7735 36.577 32.7735 37.339 33.1912L58.7871 44.9397C58.8804 44.9909 58.9621 45.046 59.0341 45.1049H59.0322Z" fill="#C9D7DD"/>
<path d="M59.0322 45.1068C59.0209 45.1163 59.0094 45.1258 58.9962 45.1352C58.9847 45.1428 58.9734 45.1523 58.9621 45.1599C58.9581 45.162 58.9544 45.1657 58.9505 45.1675C58.9411 45.1733 58.9334 45.1791 58.9258 45.1846C58.9051 45.198 58.8841 45.2114 58.8612 45.2264C58.8386 45.2398 58.8158 45.2532 58.7929 45.2663L37.4871 57.0148C37.1052 57.2255 36.6017 57.33 36.1002 57.3282C35.6061 57.3263 35.1123 57.2218 34.7341 57.0148L13.2878 45.2663C13.2402 45.2398 13.1948 45.2132 13.153 45.1846C13.1131 45.1581 13.075 45.1297 13.0408 45.1011C13.1091 45.0441 13.189 44.991 13.2801 44.9416L34.5859 33.1932C35.344 32.7755 36.577 32.7755 37.339 33.1932L58.7871 44.9416C58.8804 44.9928 58.9621 45.048 59.0341 45.1068H59.0322Z" fill="url(#paint1_linear_7996_40426)"/>
<path d="M63.7837 44.5088L63.759 53.0133C63.759 53.3362 63.5329 53.6609 63.0863 53.9078L37.749 67.8781C37.3006 68.125 36.7136 68.2485 36.1246 68.2503V59.7458C36.7212 59.7479 37.3196 59.6244 37.7737 59.3736L63.111 45.4033C63.1396 45.388 63.1662 45.3709 63.1929 45.3557C63.2195 45.3405 63.2442 45.3234 63.2689 45.3063C63.2802 45.2987 63.2896 45.2929 63.2993 45.2856C63.3049 45.2816 63.3088 45.2779 63.3125 45.2759C63.3259 45.2664 63.339 45.2569 63.3524 45.2456C63.3695 45.2323 63.3884 45.2189 63.4036 45.2039C63.4454 45.1697 63.4835 45.1335 63.5176 45.0975C63.531 45.0841 63.5444 45.0709 63.5557 45.0557C63.567 45.0423 63.5767 45.031 63.588 45.0176C63.5917 45.0139 63.5938 45.0119 63.5956 45.0082C63.6051 44.9969 63.6146 44.9835 63.6222 44.9722C63.6337 44.9569 63.6432 44.9417 63.6526 44.9265C63.6639 44.9094 63.6734 44.8923 63.6831 44.8753C63.7304 44.7899 63.7609 44.7024 63.7743 44.6131C63.7779 44.596 63.7798 44.5771 63.7798 44.56C63.7819 44.5429 63.7837 44.5259 63.7837 44.5088Z" fill="#C9D7DD"/>
<g opacity="0.8">
<path opacity="0.8" d="M63.7837 44.5162L63.759 53.0209C63.759 53.3438 63.5329 53.6685 63.0863 53.9154L37.749 67.8857C37.3006 68.1326 36.7135 68.2561 36.1246 68.2579C35.5281 68.26 34.9315 68.1366 34.4755 67.8857L8.97093 53.9154C8.51493 53.6646 8.28693 53.3362 8.28693 53.0094L8.31162 44.5088C8.31162 44.7536 8.44085 44.9987 8.69723 45.2115C8.739 45.2475 8.7847 45.2816 8.83593 45.3139C8.88531 45.3481 8.93862 45.3804 8.99562 45.4109L34.4982 59.3812C34.9486 59.6281 35.5357 59.7516 36.1228 59.7534C36.7193 59.7552 37.3177 59.632 37.7718 59.3812L63.1092 45.4109C63.1378 45.3956 63.1643 45.3786 63.1908 45.3633C63.2174 45.3481 63.2423 45.331 63.267 45.3139C63.2783 45.3063 63.2878 45.3006 63.2972 45.2929C63.303 45.2893 63.3067 45.2856 63.3106 45.2835C63.324 45.274 63.3372 45.2646 63.3505 45.2533C63.3676 45.2399 63.3865 45.2265 63.4018 45.2115C63.4435 45.1771 63.4816 45.1411 63.5158 45.1051C63.5292 45.0917 63.5423 45.0783 63.5539 45.0633C63.5652 45.0499 63.5746 45.0386 63.5862 45.0253C63.5898 45.0216 63.5917 45.0195 63.5938 45.0158C63.6032 45.0045 63.6127 44.9911 63.6203 44.9798C63.6316 44.9646 63.6411 44.9493 63.6508 44.9341C63.6621 44.917 63.6715 44.8999 63.681 44.8829C63.7285 44.7973 63.759 44.71 63.7724 44.6207C63.7761 44.6036 63.7779 44.5847 63.7779 44.5676C63.7798 44.5506 63.7818 44.5335 63.7818 44.5162H63.7837Z" fill="url(#paint2_linear_7996_40426)"/>
</g>
<path d="M63.7837 44.5202L63.759 53.0247C63.759 53.3476 63.5329 53.6723 63.0863 53.9192L37.749 67.8897C37.3006 68.1367 36.7135 68.2601 36.1246 68.262C35.5281 68.2638 34.9315 68.1404 34.4755 67.8897L8.97093 53.9174C8.51493 53.6667 8.28693 53.3381 8.28693 53.0114L8.31162 44.5107C8.31162 44.7556 8.44085 45.0007 8.69723 45.2134C8.739 45.2494 8.7847 45.2836 8.83593 45.3159C8.88531 45.35 8.93862 45.3824 8.99562 45.4128L34.4982 59.3831C34.9486 59.63 35.5357 59.7535 36.1228 59.7554C36.7193 59.7574 37.3177 59.634 37.7718 59.3831L63.1092 45.4128C63.1378 45.3976 63.1643 45.3805 63.1908 45.3653C63.2174 45.35 63.2423 45.333 63.267 45.3159C63.2783 45.3083 63.2878 45.3027 63.2972 45.2951C63.303 45.2912 63.3067 45.2875 63.3106 45.2857C63.324 45.276 63.3372 45.2665 63.3505 45.2552C63.3676 45.2418 63.3865 45.2287 63.4018 45.2134C63.4435 45.1793 63.4816 45.143 63.5158 45.107C63.5292 45.0937 63.5423 45.0805 63.5539 45.0653C63.5652 45.0519 63.5746 45.0406 63.5862 45.0272C63.5898 45.0235 63.5917 45.0217 63.5938 45.0177C63.6032 45.0064 63.6127 44.993 63.6203 44.9817C63.6316 44.9665 63.6411 44.9513 63.6508 44.936C63.6621 44.919 63.6715 44.9019 63.681 44.8848C63.7285 44.7994 63.759 44.712 63.7724 44.6227C63.7761 44.6056 63.7779 44.5867 63.7779 44.5696C63.7798 44.5525 63.7818 44.5354 63.7818 44.5184L63.7837 44.5202Z" fill="url(#paint3_linear_7996_40426)"/>
<path d="M36.1246 46.9928V55.4973C35.5281 55.4992 34.9315 55.3759 34.4755 55.1251L8.97093 41.1566C8.51493 40.906 8.28693 40.5774 8.28693 40.2506L8.31162 31.75C8.31162 31.9948 8.44085 32.2399 8.69723 32.4527C8.739 32.4887 8.7847 32.5228 8.83593 32.5552C8.88531 32.5893 8.93862 32.6216 8.99562 32.6521L34.4982 46.6224C34.9486 46.8693 35.5357 46.9928 36.1228 46.9946L36.1246 46.9928Z" fill="#C9D7DD"/>
<path d="M63.7797 31.8087C63.7797 31.8258 63.7758 31.8447 63.774 31.8618C63.7606 31.9493 63.7301 32.0386 63.6828 32.1239C63.6731 32.141 63.6637 32.1581 63.6523 32.1752C63.6429 32.1904 63.6334 32.2056 63.6219 32.2209C63.6124 32.234 63.6048 32.2456 63.5953 32.2569C63.5914 32.2606 63.5896 32.2645 63.5877 32.2663C63.5783 32.2797 63.5667 32.291 63.5554 32.3044C63.5441 32.3196 63.5307 32.3328 63.5173 32.3462C63.4813 32.384 63.4433 32.4184 63.4033 32.4526C63.3863 32.4657 63.3692 32.4791 63.3521 32.4943C63.3387 32.5038 63.3256 32.5133 63.3122 32.5246C63.3085 32.5285 63.3027 32.5322 63.299 32.5343C63.2893 32.5419 63.2799 32.5474 63.2686 32.555C63.2439 32.5721 63.2192 32.5892 63.1926 32.6044C63.1659 32.6196 63.1393 32.6367 63.111 32.6519L37.7734 46.6223C37.3195 46.8731 36.7209 46.9966 36.1243 46.9945C35.5373 46.9926 34.9502 46.8692 34.5 46.6223L8.99534 32.6519C8.93834 32.6196 8.88503 32.5873 8.83565 32.555C8.78626 32.5209 8.73872 32.4867 8.69695 32.4526C8.44057 32.2398 8.31134 31.9947 8.31134 31.7499C8.31134 31.4249 8.53565 31.1021 8.98403 30.8534L34.3232 16.883C35.2257 16.3854 36.6904 16.3854 37.5969 16.883L63.0994 30.8534C63.5783 31.1155 63.8063 31.4649 63.7797 31.8106V31.8087Z" fill="white"/>
<g opacity="0.6">
<path d="M63.7797 31.8144C63.7797 31.8317 63.7758 31.8506 63.774 31.8677C63.7606 31.955 63.7301 32.0443 63.6828 32.1299C63.6731 32.147 63.6637 32.164 63.6523 32.1811C63.6429 32.1963 63.6334 32.2116 63.6219 32.2266C63.6124 32.24 63.6048 32.2513 63.5953 32.2628C63.5914 32.2665 63.5896 32.2704 63.5877 32.2723C63.5783 32.2854 63.5667 32.297 63.5554 32.3101C63.5441 32.3253 63.5307 32.3387 63.5173 32.3521C63.4813 32.39 63.4433 32.4241 63.4033 32.4583C63.3863 32.4716 63.3692 32.485 63.3521 32.5C63.3387 32.5097 63.3256 32.5192 63.3122 32.5305C63.3085 32.5344 63.3027 32.5381 63.299 32.54C63.2893 32.5476 63.2799 32.5533 63.2686 32.561C63.2439 32.578 63.2192 32.5951 63.1926 32.6103C63.1659 32.6256 63.1393 32.6426 63.111 32.6579L37.7734 46.6282C37.3195 46.8788 36.7209 47.0023 36.1243 47.0004C35.5373 46.9986 34.9502 46.8751 34.5 46.6282L8.99534 32.6579C8.93834 32.6256 8.88503 32.5933 8.83565 32.561C8.78626 32.5268 8.73872 32.4926 8.69695 32.4583C8.44057 32.2457 8.31134 32.0006 8.31134 31.7556C8.31134 31.4309 8.53565 31.108 8.98403 30.8592L34.3232 16.8888C35.2257 16.3912 36.6904 16.3912 37.5969 16.8888L63.0994 30.8592C63.5783 31.1214 63.8063 31.4708 63.7797 31.8165V31.8144Z" fill="url(#paint4_linear_7996_40426)"/>
</g>
<path d="M59.3568 31.805C59.3568 31.8202 59.355 31.8336 59.3511 31.8488C59.3398 31.9229 59.3132 31.9988 59.2751 32.069C59.2675 32.0824 59.2581 32.0976 59.2505 32.1128C59.241 32.1241 59.2334 32.1375 59.2258 32.1507C59.2181 32.1622 59.2105 32.1717 59.2029 32.1811C59.2011 32.1848 59.1992 32.1869 59.1953 32.1906C59.1877 32.2019 59.1782 32.2116 59.1688 32.2229C59.1593 32.2342 59.1478 32.2458 59.1365 32.2589C59.106 32.2912 59.0737 32.3198 59.0395 32.3501C59.0395 32.3501 59.034 32.354 59.0319 32.3577C58.9618 32.3007 58.878 32.2437 58.785 32.1924L37.3368 20.4441C36.5748 20.0263 35.3418 20.0263 34.5838 20.4441L13.278 32.1924C13.1868 32.2418 13.1088 32.2951 13.0387 32.3521C13.0387 32.3521 13.0348 32.3501 13.0348 32.3482C12.8183 32.1678 12.7119 31.9626 12.7119 31.7577C12.7119 31.484 12.9 31.2126 13.278 31.0035L34.5838 19.2552C35.3418 18.8355 36.5748 18.8355 37.3368 19.2552L58.785 31.0035C59.1877 31.2239 59.3797 31.5184 59.3568 31.8089V31.805Z" fill="#6E17FF"/>
<path d="M59.0322 32.354C59.0209 32.3634 59.0094 32.3729 58.9962 32.3824C58.9847 32.39 58.9734 32.3994 58.9621 32.4071C58.9581 32.4089 58.9544 32.4128 58.9505 32.4147C58.9411 32.4204 58.9334 32.426 58.9258 32.4317C58.9051 32.4451 58.8841 32.4583 58.8612 32.4735C58.8386 32.4869 58.8158 32.5001 58.7929 32.5134L37.4871 44.2619C37.1052 44.4726 36.6017 44.5771 36.1002 44.5753C35.6061 44.5732 35.1123 44.4689 34.7341 44.2619L13.2878 32.5134C13.2402 32.4869 13.1948 32.4604 13.153 32.4317C13.1131 32.4052 13.075 32.3768 13.0408 32.3482C13.1091 32.2912 13.189 32.2381 13.2801 32.1887L34.5859 20.4403C35.344 20.0225 36.577 20.0225 37.339 20.4403L58.7871 32.1887C58.8804 32.24 58.9621 32.2951 59.0341 32.354H59.0322Z" fill="#C9D7DD"/>
<path d="M59.0322 32.3559C59.0209 32.3653 59.0094 32.3748 58.9962 32.3843C58.9847 32.3919 58.9734 32.4016 58.9621 32.409C58.9581 32.411 58.9544 32.4147 58.9505 32.4166C58.9411 32.4223 58.9334 32.4281 58.9258 32.4336C58.9051 32.447 58.8841 32.4604 58.8612 32.4754C58.8386 32.4888 58.8158 32.5022 58.7929 32.5153L37.4871 44.2638C37.1052 44.4745 36.6017 44.579 36.1002 44.5772C35.6061 44.5753 35.1123 44.4708 34.7341 44.2638L13.2878 32.5153C13.2402 32.4888 13.1948 32.4623 13.153 32.4336C13.1131 32.4071 13.075 32.3787 13.0408 32.3501C13.1091 32.2931 13.189 32.24 13.2801 32.1906L34.5859 20.4423C35.344 20.0244 36.577 20.0244 37.339 20.4423L58.7871 32.1906C58.8804 32.2419 58.9621 32.297 59.0341 32.3559H59.0322Z" fill="url(#paint5_linear_7996_40426)"/>
<path d="M63.7837 31.7578L63.759 40.2624C63.759 40.5852 63.5329 40.9099 63.0863 41.1568L37.749 55.1271C37.3006 55.374 36.7136 55.4975 36.1246 55.4993V46.9948C36.7212 46.9969 37.3196 46.8734 37.7737 46.6226L63.111 32.6523C63.1396 32.637 63.1662 32.62 63.1929 32.6047C63.2195 32.5895 63.2442 32.5724 63.2689 32.5554C63.2802 32.5477 63.2896 32.542 63.2993 32.5346C63.3049 32.5307 63.3088 32.527 63.3125 32.5249C63.3259 32.5154 63.339 32.506 63.3524 32.4947C63.3695 32.4813 63.3884 32.4681 63.4036 32.4529C63.4454 32.4187 63.4835 32.3825 63.5176 32.3465C63.531 32.3331 63.5444 32.32 63.5557 32.3047C63.567 32.2914 63.5767 32.28 63.588 32.2667C63.5917 32.263 63.5938 32.2609 63.5956 32.2572C63.6051 32.2459 63.6146 32.2325 63.6222 32.2212C63.6337 32.206 63.6432 32.1907 63.6526 32.1755C63.6639 32.1584 63.6734 32.1414 63.6831 32.1243C63.7304 32.0389 63.7609 31.9514 63.7743 31.8621C63.7779 31.845 63.7798 31.8261 63.7798 31.809C63.7819 31.792 63.7837 31.7749 63.7837 31.7578Z" fill="#C9D7DD"/>
<g opacity="0.8">
<path opacity="0.8" d="M63.7837 31.7673L63.759 40.2718C63.759 40.5947 63.5329 40.9194 63.0863 41.1663L37.749 55.1368C37.3006 55.3835 36.7135 55.507 36.1246 55.509C35.5281 55.5109 34.9315 55.3874 34.4755 55.1368L8.97093 41.1644C8.51493 40.9136 8.28693 40.5852 8.28693 40.2584L8.31162 31.7578C8.31162 32.0027 8.44085 32.2477 8.69723 32.4605C8.739 32.4965 8.7847 32.5307 8.83593 32.563C8.88531 32.5971 8.93862 32.6294 8.99562 32.6599L34.4982 46.6302C34.9486 46.8771 35.5357 47.0006 36.1228 47.0024C36.7193 47.0045 37.3177 46.881 37.7718 46.6302L63.1092 32.6599C63.1378 32.6447 63.1643 32.6276 63.1908 32.6124C63.2174 32.5971 63.2423 32.58 63.267 32.563C63.2783 32.5554 63.2878 32.5496 63.2972 32.542C63.303 32.5383 63.3067 32.5346 63.3106 32.5325C63.324 32.523 63.3372 32.5136 63.3505 32.5023C63.3676 32.4889 63.3865 32.4755 63.4018 32.4605C63.4435 32.4261 63.4816 32.3901 63.5158 32.3541C63.5292 32.3407 63.5423 32.3276 63.5539 32.3124C63.5652 32.299 63.5746 32.2877 63.5862 32.2743C63.5898 32.2706 63.5917 32.2685 63.5938 32.2648C63.6032 32.2535 63.6127 32.2401 63.6203 32.2288C63.6316 32.2136 63.6411 32.1984 63.6508 32.1831C63.6621 32.166 63.6715 32.149 63.681 32.1319C63.7285 32.0463 63.759 31.959 63.7724 31.8697C63.7761 31.8527 63.7779 31.8337 63.7779 31.8167C63.7798 31.7996 63.7818 31.7825 63.7818 31.7652L63.7837 31.7673Z" fill="url(#paint6_linear_7996_40426)"/>
</g>
<path d="M63.7837 31.7693L63.759 40.2739C63.759 40.5967 63.5329 40.9214 63.0863 41.1683L37.749 55.1389C37.3006 55.3858 36.7135 55.5093 36.1246 55.5111C35.5281 55.513 34.9315 55.3895 34.4755 55.1389L8.97093 41.1683C8.51493 40.9177 8.28693 40.5891 8.28693 40.2626L8.31162 31.7617C8.31162 32.0068 8.44085 32.2516 8.69723 32.4644C8.739 32.5004 8.7847 32.5348 8.83593 32.5669C8.88531 32.6013 8.93862 32.6336 8.99562 32.6638L34.4982 46.6343C34.9486 46.8813 35.5357 47.0047 36.1228 47.0066C36.7193 47.0084 37.3177 46.8849 37.7718 46.6343L63.1092 32.6638C63.1378 32.6486 63.1643 32.6315 63.1908 32.6163C63.2174 32.6013 63.2423 32.5842 63.267 32.5669C63.2783 32.5595 63.2878 32.5537 63.2972 32.5461C63.303 32.5422 63.3067 32.5385 63.3106 32.5366C63.324 32.5272 63.3372 32.5177 63.3505 32.5062C63.3676 32.493 63.3865 32.4796 63.4018 32.4644C63.4435 32.4303 63.4816 32.3943 63.5158 32.358C63.5292 32.3449 63.5423 32.3315 63.5539 32.3163C63.5652 32.3031 63.5746 32.2916 63.5862 32.2784C63.5898 32.2745 63.5917 32.2726 63.5938 32.2687C63.6032 32.2574 63.6127 32.244 63.6203 32.2327C63.6316 32.2175 63.6411 32.2023 63.6508 32.1873C63.6621 32.1699 63.6715 32.1529 63.681 32.1358C63.7285 32.0504 63.759 31.9629 63.7724 31.8739C63.7761 31.8568 63.7779 31.8376 63.7779 31.8206C63.7798 31.8035 63.7818 31.7864 63.7818 31.7693H63.7837Z" fill="url(#paint7_linear_7996_40426)"/>
<g opacity="0.4">
<path opacity="0.4" d="M60.7263 36.8221C61.4408 36.4215 62.0279 36.7462 62.0297 37.5439C62.0315 38.3435 61.4502 39.3234 60.7358 39.7242L39.1831 51.8239C38.4686 52.2245 37.8816 51.8999 37.8797 51.1021C37.8779 50.3045 38.4592 49.3226 39.1755 48.922L60.7282 36.8221H60.7263Z" fill="white"/>
</g>
<g opacity="0.5">
<path opacity="0.5" d="M42.3643 47.7982C42.8051 47.5568 43.1623 47.7507 43.1642 48.2293C43.1642 48.7079 42.809 49.2908 42.3701 49.532C41.9312 49.7734 41.5703 49.5795 41.5682 49.1009C41.5682 48.6223 41.9236 48.0375 42.3643 47.7982Z" fill="white"/>
</g>
<g opacity="0.9">
<path opacity="0.9" d="M50.6368 43.1703C51.0776 42.9289 51.4346 43.1227 51.4366 43.6014C51.4366 44.08 51.0813 44.6629 50.6423 44.904C50.2034 45.1454 49.8425 44.9516 49.8406 44.473C49.8406 43.9944 50.196 43.4094 50.6368 43.1703Z" fill="white"/>
</g>
<g opacity="0.5">
<path opacity="0.5" d="M58.6805 38.5774C59.1212 38.3362 59.4785 38.5299 59.4803 39.0085C59.4822 39.4871 59.1252 40.07 58.6862 40.3114C58.2473 40.5526 57.8864 40.3587 57.8846 39.8801C57.8846 39.4017 58.2397 38.8167 58.6805 38.5774Z" fill="white"/>
</g>
<g opacity="0.4">
<path opacity="0.4" d="M60.7264 49.326C61.4409 48.9254 62.028 49.2501 62.0298 50.0478C62.0317 50.8475 61.4504 51.8273 60.7359 52.2281L39.1832 64.3278C38.4688 64.7284 37.8817 64.4038 37.8798 63.606C37.878 62.8084 38.4593 61.8265 39.1756 61.4259L60.7283 49.326H60.7264Z" fill="white"/>
</g>
<g opacity="0.5">
<path opacity="0.5" d="M42.3643 60.3011C42.8051 60.0598 43.1623 60.2536 43.1642 60.7322C43.1642 61.2108 42.809 61.7938 42.3701 62.0349C41.9312 62.2763 41.5703 62.0824 41.5682 61.6038C41.5682 61.1252 41.9236 60.5404 42.3643 60.3011Z" fill="white"/>
</g>
<g opacity="0.9">
<path opacity="0.9" d="M50.6368 55.6732C51.0776 55.4318 51.4346 55.6257 51.4366 56.1043C51.4366 56.5829 51.0813 57.1658 50.6423 57.407C50.2034 57.6484 49.8425 57.4545 49.8406 56.9759C49.8406 56.4973 50.196 55.9123 50.6368 55.6732Z" fill="white"/>
</g>
<g opacity="0.5">
<path opacity="0.5" d="M58.6807 51.0813C59.1214 50.8402 59.4787 51.0338 59.4805 51.5124C59.4824 51.991 59.1254 52.5739 58.6864 52.8153C58.2475 53.0565 57.8866 52.8626 57.8847 52.384C57.8847 51.9056 58.2399 51.3206 58.6807 51.0813Z" fill="white"/>
</g>
<path d="M36.1246 34.2437V42.7485C35.5281 42.7503 34.9315 42.6269 34.4755 42.376L8.97093 28.4057C8.51493 28.155 8.28693 27.8265 8.28693 27.4998L8.31162 18.999C8.31162 19.244 8.44085 19.489 8.69723 19.7017C8.739 19.7378 8.7847 19.772 8.83593 19.8043C8.88531 19.8385 8.93862 19.8708 8.99562 19.9011L34.4982 33.8715C34.9486 34.1184 35.5357 34.2419 36.1228 34.2437H36.1246Z" fill="#C9D7DD"/>
<path d="M63.7797 19.0577C63.7797 19.0748 63.7758 19.0938 63.774 19.1109C63.7606 19.1982 63.7301 19.2875 63.6828 19.373C63.6731 19.39 63.6637 19.4071 63.6523 19.4242C63.6429 19.4394 63.6334 19.4546 63.6219 19.4698C63.6124 19.4831 63.6048 19.4945 63.5953 19.5059C63.5914 19.5097 63.5896 19.5135 63.5877 19.5154C63.5783 19.5287 63.5667 19.5401 63.5554 19.5534C63.5441 19.5686 63.5307 19.5819 63.5173 19.5952C63.4813 19.6332 63.4433 19.6673 63.4033 19.7015C63.3863 19.7148 63.3692 19.7281 63.3521 19.7433C63.3387 19.7528 63.3256 19.7623 63.3122 19.7737C63.3085 19.7775 63.3027 19.7813 63.299 19.7832C63.2893 19.7908 63.2799 19.7965 63.2686 19.8041C63.2439 19.8212 63.2192 19.8383 63.1926 19.8535C63.1659 19.8687 63.1393 19.8857 63.111 19.9009L37.7734 33.8713C37.3195 34.1221 36.7209 34.2456 36.1243 34.2435C35.5373 34.2417 34.9502 34.1182 34.5 33.8713L8.99534 19.9009C8.93834 19.8687 8.88503 19.8364 8.83565 19.8041C8.78626 19.7699 8.73872 19.7357 8.69695 19.7015C8.44057 19.4888 8.31134 19.2438 8.31134 18.9988C8.31134 18.6741 8.53565 18.3512 8.98403 18.1024L34.3232 4.13198C35.2257 3.63439 36.6904 3.63439 37.5969 4.13198L63.0994 18.1024C63.5783 18.3645 63.8063 18.7139 63.7797 19.0596V19.0577Z" fill="white"/>
<g opacity="0.6">
<path d="M63.7797 19.0636C63.7797 19.0807 63.7758 19.0996 63.774 19.1167C63.7606 19.2041 63.7301 19.2934 63.6828 19.3788C63.6731 19.3959 63.6637 19.413 63.6523 19.4301C63.6429 19.4453 63.6334 19.4605 63.6219 19.4757C63.6124 19.489 63.6048 19.5004 63.5953 19.5118C63.5914 19.5156 63.5896 19.5194 63.5877 19.5213C63.5783 19.5346 63.5667 19.546 63.5554 19.5592C63.5441 19.5744 63.5307 19.5877 63.5173 19.601C63.4813 19.639 63.4433 19.6732 63.4033 19.7074C63.3863 19.7207 63.3692 19.734 63.3521 19.7492C63.3387 19.7587 63.3256 19.7682 63.3122 19.7795C63.3085 19.7833 63.3027 19.7872 63.299 19.789C63.2893 19.7966 63.2799 19.8023 63.2686 19.8099C63.2439 19.827 63.2192 19.8441 63.1926 19.8593C63.1659 19.8745 63.1393 19.8916 63.111 19.9068L37.7734 33.8772C37.3195 34.1278 36.7209 34.2513 36.1243 34.2494C35.5373 34.2476 34.9502 34.1241 34.5 33.8772L8.99534 19.9068C8.93834 19.8745 8.88503 19.8422 8.83565 19.8099C8.78626 19.7758 8.73872 19.7416 8.69695 19.7074C8.44057 19.4947 8.31134 19.2497 8.31134 19.0047C8.31134 18.6799 8.53565 18.3571 8.98403 18.1083L34.3232 4.13784C35.2257 3.64025 36.6904 3.64025 37.5969 4.13784L63.0994 18.1083C63.5783 18.3703 63.8063 18.7198 63.7797 19.0654V19.0636Z" fill="url(#paint8_linear_7996_40426)"/>
</g>
<path d="M59.3568 19.0559C59.3568 19.0711 59.355 19.0844 59.3511 19.0996C59.3398 19.1737 59.3132 19.2496 59.2751 19.3199C59.2675 19.3332 59.2581 19.3484 59.2505 19.3636C59.241 19.375 59.2334 19.3883 59.2258 19.4016C59.2181 19.413 59.2105 19.4225 59.2029 19.432C59.2011 19.4357 59.1992 19.4377 59.1953 19.4414C59.1877 19.4528 59.1782 19.4624 59.1688 19.4737C59.1593 19.4851 59.1478 19.4965 59.1365 19.5098C59.106 19.5421 59.0737 19.5706 59.0395 19.601C59.0395 19.601 59.034 19.6048 59.0319 19.6086C58.9618 19.5516 58.878 19.4946 58.785 19.4434L37.3368 7.69498C36.5748 7.27716 35.3418 7.27716 34.5838 7.69498L13.278 19.4396C13.1868 19.4889 13.1088 19.5421 13.0387 19.5991C13.0387 19.5991 13.0348 19.5972 13.0348 19.5953C12.8183 19.4149 12.7119 19.2098 12.7119 19.0046C12.7119 18.7312 12.9 18.4596 13.278 18.2507L34.5838 6.50229C35.3418 6.08257 36.5748 6.08257 37.3368 6.50229L58.785 18.2507C59.1877 18.471 59.3797 18.7653 59.3568 19.0559Z" fill="#6E17FF"/>
<path d="M59.0319 19.603C59.0206 19.6125 59.0091 19.622 58.9959 19.6315C58.9844 19.6391 58.9731 19.6486 58.9618 19.6562C58.9578 19.6581 58.9542 19.6619 58.9502 19.6638C58.9408 19.6695 58.9332 19.6752 58.9255 19.6809C58.9048 19.6942 58.8838 19.7075 58.8609 19.7227C58.8381 19.736 58.8155 19.7492 58.7926 19.7625L37.4869 31.511C37.1049 31.7217 36.6014 31.8262 36.0999 31.8244C35.6059 31.8223 35.112 31.718 34.7338 31.511L13.2856 19.7644C13.2381 19.7378 13.1926 19.7113 13.1506 19.6828C13.1109 19.6562 13.0729 19.6277 13.0387 19.5992C13.107 19.5422 13.1869 19.4891 13.278 19.4397L34.5838 7.69129C35.3418 7.27347 36.5748 7.27347 37.3368 7.69129L58.785 19.4397C58.878 19.4909 58.9597 19.546 59.0319 19.6049V19.603Z" fill="#C9D7DD"/>
<path d="M59.0319 19.6068C59.0206 19.6163 59.0091 19.6258 58.9959 19.6353C58.9844 19.6429 58.9731 19.6524 58.9618 19.66C58.9578 19.6619 58.9542 19.6657 58.9502 19.6676C58.9408 19.6733 58.9332 19.679 58.9255 19.6847C58.9048 19.698 58.8838 19.7113 58.8609 19.7265C58.8381 19.7398 58.8155 19.7531 58.7926 19.7664L37.4869 31.5147C37.1049 31.7256 36.6014 31.8299 36.0999 31.8281C35.6059 31.8263 35.112 31.7217 34.7338 31.5147L13.2856 19.7664C13.2381 19.7398 13.1926 19.7132 13.1506 19.6847C13.1109 19.6581 13.0729 19.6296 13.0387 19.6012C13.107 19.5442 13.1869 19.491 13.278 19.4416L34.5838 7.69325C35.3418 7.27543 36.5748 7.27543 37.3368 7.69325L58.785 19.4416C58.878 19.4929 58.9597 19.548 59.0319 19.6068Z" fill="url(#paint9_linear_7996_40426)"/>
<path d="M63.7837 19.0068L63.759 27.5114C63.759 27.8343 63.5329 28.159 63.0863 28.4059L37.749 42.3762C37.3006 42.6232 36.7136 42.7466 36.1246 42.7487V34.2439C36.7212 34.246 37.3196 34.1225 37.7737 33.8717L63.111 19.9014C63.1396 19.8862 63.1662 19.8691 63.1929 19.8539C63.2195 19.8387 63.2442 19.8216 63.2689 19.8045C63.2802 19.7969 63.2896 19.7912 63.2993 19.7836C63.3049 19.7798 63.3088 19.776 63.3125 19.7741C63.3259 19.7646 63.339 19.7551 63.3524 19.7437C63.3695 19.7304 63.3884 19.7171 63.4036 19.7019C63.4454 19.6678 63.4835 19.6317 63.5176 19.5956C63.531 19.5823 63.5444 19.569 63.5557 19.5538C63.567 19.5405 63.5767 19.5291 63.588 19.5158C63.5917 19.512 63.5938 19.5101 63.5956 19.5063C63.6051 19.4949 63.6146 19.4816 63.6222 19.4702C63.6337 19.4551 63.6432 19.4399 63.6526 19.4247C63.6639 19.4076 63.6734 19.3905 63.6831 19.3734C63.7304 19.2879 63.7609 19.2006 63.7743 19.1113C63.7779 19.0942 63.7798 19.0752 63.7798 19.0581C63.7819 19.041 63.7837 19.0239 63.7837 19.0068Z" fill="#C9D7DD"/>
<g opacity="0.8">
<path opacity="0.8" d="M63.7837 19.0164L63.759 27.5209C63.759 27.8438 63.5329 28.1685 63.0863 28.4155L37.749 42.386C37.3006 42.6329 36.7135 42.7561 36.1246 42.7582C35.5281 42.76 34.9315 42.6366 34.4755 42.386L8.97093 28.4155C8.51493 28.1648 8.28693 27.8362 8.28693 27.5095L8.31162 19.0088C8.31162 19.2538 8.44085 19.4988 8.69723 19.7115C8.739 19.7476 8.7847 19.7818 8.83593 19.814C8.88531 19.8482 8.93862 19.8805 8.99562 19.9109L34.4982 33.8814C34.9486 34.1281 35.5357 34.2516 36.1228 34.2537C36.7193 34.2555 37.3177 34.132 37.7718 33.8814L63.1092 19.9109C63.1378 19.8957 63.1643 19.8786 63.1908 19.8634C63.2174 19.8482 63.2423 19.8311 63.267 19.814C63.2783 19.8064 63.2878 19.8007 63.2972 19.7932C63.303 19.7893 63.3067 19.7855 63.3106 19.7836C63.324 19.7742 63.3372 19.7647 63.3505 19.7533C63.3676 19.74 63.3865 19.7267 63.4018 19.7115C63.4435 19.6773 63.4816 19.6412 63.5158 19.6051C63.5292 19.5918 63.5423 19.5785 63.5539 19.5634C63.5652 19.5501 63.5746 19.5387 63.5862 19.5254C63.5898 19.5216 63.5917 19.5197 63.5938 19.5159C63.6032 19.5045 63.6127 19.4912 63.6203 19.4798C63.6316 19.4646 63.6411 19.4494 63.6508 19.4342C63.6621 19.4171 63.6715 19.4 63.681 19.3829C63.7285 19.2975 63.759 19.2101 63.7724 19.1208C63.7761 19.1037 63.7779 19.0847 63.7779 19.0677C63.7798 19.0506 63.7818 19.0335 63.7818 19.0164H63.7837Z" fill="url(#paint10_linear_7996_40426)"/>
</g>
<path d="M63.7837 19.0174L63.759 27.5219C63.759 27.8448 63.5329 28.1695 63.0863 28.4164L37.749 42.3869C37.3006 42.6338 36.7135 42.7573 36.1246 42.7591C35.5281 42.761 34.9315 42.6375 34.4755 42.3869L8.97093 28.4164C8.51493 28.1657 8.28693 27.8372 8.28693 27.5105L8.31162 19.0098C8.31162 19.2548 8.44085 19.4998 8.69723 19.7125C8.739 19.7486 8.7847 19.7827 8.83593 19.815C8.88531 19.8492 8.93862 19.8815 8.99562 19.9119L34.4982 33.8824C34.9486 34.1293 35.5357 34.2527 36.1228 34.2546C36.7193 34.2564 37.3177 34.133 37.7718 33.8824L63.1092 19.9119C63.1378 19.8967 63.1643 19.8796 63.1908 19.8644C63.2174 19.8492 63.2423 19.8321 63.267 19.815C63.2783 19.8074 63.2878 19.8017 63.2972 19.7941C63.303 19.7903 63.3067 19.7865 63.3106 19.7846C63.324 19.7751 63.3372 19.7656 63.3505 19.7543C63.3676 19.741 63.3865 19.7276 63.4018 19.7125C63.4435 19.6783 63.4816 19.6422 63.5158 19.6061C63.5292 19.5928 63.5423 19.5795 63.5539 19.5643C63.5652 19.551 63.5746 19.5396 63.5862 19.5263C63.5898 19.5225 63.5917 19.5206 63.5938 19.5168C63.6032 19.5055 63.6127 19.4921 63.6203 19.4808C63.6316 19.4656 63.6411 19.4504 63.6508 19.4352C63.6621 19.4181 63.6715 19.401 63.681 19.3839C63.7285 19.2984 63.759 19.2111 63.7724 19.1218C63.7761 19.1047 63.7779 19.0857 63.7779 19.0686C63.7798 19.0515 63.7818 19.0345 63.7818 19.0174H63.7837Z" fill="url(#paint11_linear_7996_40426)"/>
<g opacity="0.8">
<path opacity="0.8" d="M60.7263 24.0721C61.4408 23.6714 62.0279 23.9962 62.0297 24.7938C62.0315 25.5934 61.4502 26.5734 60.7358 26.9741L39.1831 39.0739C38.4686 39.4745 37.8816 39.1498 37.8797 38.3522C37.8779 37.5545 38.4592 36.5726 39.1755 36.1719L60.7282 24.0721H60.7263Z" fill="white"/>
</g>
<g opacity="0.5">
<path opacity="0.5" d="M42.3643 35.0491C42.8051 34.8079 43.1623 35.0015 43.1642 35.4802C43.1642 35.9588 42.809 36.5419 42.3701 36.7831C41.9312 37.0242 41.5703 36.8304 41.5682 36.352C41.5682 35.8734 41.9236 35.2884 42.3643 35.0491Z" fill="#6E17FF"/>
</g>
<g opacity="0.9">
<path opacity="0.9" d="M50.6368 30.4182C51.0776 30.177 51.4346 30.3707 51.4366 30.8494C51.4366 31.328 51.0813 31.9109 50.6423 32.1521C50.2016 32.3935 49.8425 32.1996 49.8406 31.721C49.8406 31.2424 50.196 30.6575 50.6368 30.4182Z" fill="#6E17FF"/>
</g>
<g opacity="0.5">
<path opacity="0.5" d="M58.6805 25.8264C59.1212 25.5852 59.4785 25.7789 59.4803 26.2576C59.4822 26.7362 59.1252 27.3192 58.6862 27.5604C58.2473 27.8016 57.8864 27.6079 57.8846 27.1293C57.8846 26.6507 58.2397 26.0657 58.6805 25.8264Z" fill="#6E17FF"/>
</g>
<path d="M46.086 14.0937C46.2665 14.1943 46.4506 14.3235 46.5399 14.4754L50.1688 20.2204C50.3285 20.5129 50.3075 20.832 50.0606 21.0998L44.4159 26.2333C44.0776 26.4764 43.6046 26.6416 43.0613 26.691L32.3952 27.3291C31.8669 27.3747 31.3558 27.2873 30.9949 27.0841C30.9531 27.0613 30.915 27.0366 30.879 27.01L23.2583 22.7312C22.8956 22.5014 22.6883 22.1823 22.6883 21.8765L23.7847 15.8637C23.874 15.5579 24.1646 15.292 24.6169 15.1116L33.7327 11.8773C34.2076 11.7121 34.749 11.6855 35.2468 11.788L45.4779 13.8012C45.7041 13.8771 45.9074 13.9911 46.0897 14.0937H46.086Z" fill="#6E17FF"/>
<path d="M46.0897 14.0937C46.2702 14.1943 46.4545 14.3235 46.5438 14.4754L50.1727 20.2204C50.3321 20.5129 50.3114 20.832 50.0642 21.0998L44.4196 26.2333C44.0815 26.4764 43.6085 26.6416 43.065 26.691L32.3988 27.3291C31.8706 27.3747 31.3597 27.2873 30.9985 27.0841C30.9568 27.0613 30.9187 27.0366 30.8827 27.01L23.262 22.7312C22.8992 22.5014 22.6922 22.1823 22.6922 21.8765L23.7884 15.8637C23.8777 15.5579 24.1685 15.292 24.6205 15.1116L33.7364 11.8773C34.2113 11.7121 34.7529 11.6855 35.2507 11.788L45.4816 13.8012C45.7078 13.8771 45.9111 13.9911 46.0934 14.0937H46.0897Z" fill="url(#paint12_linear_7996_40426)"/>
<path d="M42.0832 24.6551C42.2426 24.7957 42.2426 24.9989 42.0165 25.1527C41.7696 25.2154 41.4523 25.1907 41.2471 25.0767C41.2014 25.0521 41.1788 25.0388 41.1578 25.0008C41.1578 24.9843 41.1502 24.9717 41.1349 24.9628C41.0895 24.9381 41.0913 24.9115 41.0666 24.8982C40.9983 24.8355 40.9755 24.771 40.9298 24.695C40.8862 24.6703 40.8615 24.6323 40.8405 24.5943C40.681 24.4044 40.4985 24.224 40.2952 24.0588C40.204 24.0075 40.1129 23.9828 40.0236 23.9828L39.8203 23.8689C38.1273 24.3645 36.163 24.4804 34.3067 24.2259L34.1946 24.3664C34.0369 24.3798 33.9476 24.4291 33.9019 24.4804C33.7672 24.6589 33.6569 24.8488 33.6133 25.0539C33.5676 25.1299 33.5676 25.1565 33.5447 25.1945C33.5447 25.2705 33.5239 25.335 33.4783 25.411C33.4783 25.4357 33.4783 25.4623 33.4575 25.4737C33.391 25.5895 33.2789 25.6522 33.142 25.7035C33.0073 25.7547 32.8266 25.7547 32.6918 25.7282C32.6006 25.7035 32.5342 25.6902 32.4656 25.6522C32.2833 25.5496 32.2376 25.3977 32.3041 25.2572C32.3041 25.2059 32.3251 25.1945 32.3269 25.1679C32.3479 25.1052 32.4163 25.0407 32.4846 24.9761L32.5739 24.8754C32.7772 24.6836 32.8893 24.4937 33.0015 24.3019C33.0243 24.2392 33.0015 24.1746 32.9558 24.1233L33.0243 23.9581C32.7299 23.8689 32.3897 23.7796 32.0953 23.6656C31.5746 23.5004 31.1205 23.2953 30.712 23.0674C30.0319 22.6857 29.4866 22.2527 29.0989 21.7551L28.8273 21.8064C28.6905 21.7817 28.5783 21.7684 28.4664 21.7817C28.1281 21.8443 27.7879 21.9089 27.4727 22.0115L27.2923 22.0627C27.1801 22.1007 27.0661 22.114 26.9539 22.152C26.9085 22.152 26.8646 22.152 26.8418 22.1653C26.5473 22.2033 26.2776 22.1767 26.0953 22.076C26.0496 22.0513 26.0041 22.0001 25.9813 21.9621C25.888 21.7836 26.0687 21.5803 26.4068 21.5158C26.4979 21.5158 26.5189 21.5025 26.5644 21.5025C26.7241 21.4892 26.8591 21.4645 26.9482 21.4645C27.0396 21.4645 27.085 21.4645 27.1515 21.4512C27.5145 21.3999 27.8736 21.3486 28.1909 21.2727C28.282 21.248 28.3732 21.1967 28.3942 21.1321L28.6639 21.0809C28.5499 20.889 28.5043 20.7105 28.4567 20.5073C28.2479 19.628 28.5366 18.7487 29.2321 17.9719L29.0059 17.8693C29.0059 17.7934 28.9603 17.7421 28.8919 17.7041C28.5518 17.5636 28.2573 17.4743 27.9172 17.385C27.8489 17.3471 27.7806 17.3337 27.7139 17.3224C27.6227 17.2977 27.4879 17.2711 27.3739 17.2331C27.3587 17.2255 27.334 17.1989 27.3112 17.1875C27.1688 17.1704 27.1459 17.1571 27.1021 17.1324C26.8665 17.0033 26.8171 16.8305 26.9634 16.6994C27.1667 16.5342 27.5505 16.4943 27.8449 16.6102C27.8743 16.6102 27.8971 16.6146 27.9135 16.6235C27.9589 16.6482 28.0046 16.6482 28.0256 16.6614C28.1168 16.7127 28.2289 16.7507 28.3201 16.802C28.3884 16.8153 28.432 16.84 28.4777 16.8647C28.774 17.0052 29.0687 17.1192 29.3858 17.2217C29.4979 17.235 29.6119 17.2464 29.7013 17.2217L29.9729 17.2977C31.0522 16.4563 32.6537 15.8828 34.4625 15.6549C34.5289 15.6435 34.5746 15.6416 34.6429 15.6302V15.4821C34.7152 15.4517 34.7533 15.3833 34.7533 15.3377C34.7533 15.1326 34.66 14.9294 34.5689 14.7262C34.546 14.6882 34.5232 14.6502 34.5006 14.6122C34.4549 14.5362 34.4092 14.4584 34.3866 14.3957C34.3637 14.3824 34.3637 14.3349 34.3637 14.3311C34.339 14.1146 34.5652 13.9361 34.9033 13.8981C35.0837 13.8734 35.2434 13.9114 35.3782 13.9874C35.4922 14.052 35.5607 14.1412 35.5833 14.2286C35.5833 14.2799 35.6062 14.2932 35.6062 14.3178C35.6062 14.3938 35.5854 14.4584 35.5854 14.5344C35.5854 14.559 35.6083 14.597 35.5854 14.6369C35.5644 14.8268 35.5873 15.0452 35.6348 15.2484C35.6576 15.2864 35.6803 15.3244 35.7241 15.3491C35.7677 15.3738 35.8153 15.3738 35.8381 15.3871L35.9064 15.5276C37.4436 15.5029 38.9823 15.7308 40.2744 16.2037C40.5917 16.331 40.8862 16.4449 41.1578 16.5741L41.3611 16.4848C41.5187 16.4715 41.608 16.4468 41.6994 16.4221C41.971 16.2683 42.2179 16.1297 42.4213 15.9625C42.4877 15.9246 42.5334 15.8999 42.5563 15.86C42.6227 15.7973 42.691 15.7327 42.7822 15.6815L42.8943 15.6188C43.0065 15.5561 43.1641 15.5162 43.3446 15.5162C43.5423 15.5162 43.7228 15.5447 43.8405 15.6112C43.8576 15.6207 43.8746 15.6321 43.888 15.6435C44.0913 15.784 44.0477 16.0138 43.7987 16.1278L43.6637 16.2037C43.5518 16.2417 43.4606 16.293 43.3485 16.3329C43.3028 16.3576 43.2345 16.3709 43.1906 16.3956C42.8526 16.5361 42.6036 16.6766 42.3566 16.8153C42.313 16.8666 42.2673 16.9178 42.2883 16.9805L42.1533 17.0831C43.1071 17.7459 43.7436 18.5606 43.9298 19.402C43.9298 19.6052 43.9545 19.8217 43.9563 20.0268L44.2508 20.0648C44.2736 20.1028 44.3193 20.1294 44.3401 20.1408C44.3858 20.1654 44.4541 20.1787 44.5226 20.192C44.8626 20.23 45.2466 20.2433 45.5846 20.23C45.6303 20.23 45.6986 20.2433 45.7651 20.23C45.8773 20.2167 46.012 20.2167 46.1489 20.2167C46.1717 20.23 46.2174 20.23 46.261 20.23C46.4643 20.2433 46.6219 20.2813 46.7359 20.3459C46.8499 20.4104 46.9185 20.5244 46.8956 20.6136C46.8518 20.8169 46.5366 20.9441 46.1736 20.9194C46.0824 20.946 46.0596 20.9327 46.0159 20.9327C45.8791 20.908 45.7669 20.8947 45.6303 20.8701C45.5618 20.8568 45.4935 20.8454 45.427 20.8321C45.0659 20.7808 44.7259 20.7428 44.3422 20.7314C44.2508 20.7314 44.1389 20.7694 44.0724 20.8074L43.7777 20.8207C43.5765 21.3429 43.2174 21.8519 42.7233 22.3115C42.2066 22.7578 41.5757 23.1643 40.831 23.4833L40.9679 23.6106C40.9222 23.6619 40.924 23.7378 40.9679 23.7891C41.1502 23.9676 41.3763 24.1461 41.6043 24.2981C41.6479 24.3494 41.6936 24.3741 41.7391 24.4006C41.8305 24.4519 41.9216 24.5032 41.9881 24.5659C42.0338 24.5906 42.0793 24.6171 42.0564 24.6304C42.0338 24.6437 42.0564 24.6551 42.0793 24.6684L42.0832 24.6551ZM37.5082 23.3808C37.9374 23.3428 38.3669 23.2535 38.7943 23.1377L36.9096 21.6468C36.8413 21.6088 36.7501 21.5841 36.6608 21.5576C36.4346 21.5063 36.163 21.5576 36.028 21.6848L34.7932 23.3789C35.6766 23.4928 36.6246 23.4928 37.5061 23.3789L37.5082 23.3808ZM32.8969 20.004C33.0091 19.9907 33.1003 19.9413 33.1439 19.8901C33.3017 19.7761 33.2332 19.609 33.0527 19.5083L30.4252 18.4638C29.8399 19.1513 29.686 19.9546 29.9634 20.6934L32.8988 20.0059L32.8969 20.004ZM34.6201 16.5285C33.2865 16.7203 32.0913 17.14 31.2116 17.7136L34.0427 18.5929C34.1567 18.6309 34.225 18.6442 34.3372 18.6309C34.6316 18.6176 34.8329 18.4771 34.8103 18.3118L34.6201 16.5285ZM32.7811 22.9364C32.9844 22.999 33.1439 23.0636 33.3017 23.1263L34.1738 21.4075C34.1738 21.3315 34.1738 21.2803 34.1491 21.2157C34.1244 21.1663 34.0806 21.1245 34.0236 21.0922C33.9172 21.0334 33.7672 21.0049 33.6056 21.0125L30.4898 21.5215C30.8071 21.8519 31.2174 22.1843 31.6923 22.4521C32.0325 22.6439 32.3955 22.7958 32.7811 22.9364ZM39.37 16.9615C38.3953 16.6178 37.2649 16.4392 36.1116 16.4278L36.6645 18.2359C36.7102 18.2871 36.7328 18.3251 36.8013 18.3631C37.0046 18.4771 37.3446 18.4904 37.546 18.3764L39.9135 17.1666L39.37 16.9634V16.9615ZM40.0596 22.6838C40.5783 22.4407 41.0286 22.1615 41.3897 21.8291C41.7488 21.4987 42.0186 21.1416 42.1743 20.7713L38.9406 20.682C38.8494 20.682 38.783 20.6953 38.6918 20.72C38.4428 20.8093 38.3535 20.9878 38.5132 21.1283L40.0596 22.6819V22.6838ZM42.3262 19.9185C42.3225 19.1551 41.8646 18.4144 40.981 17.7915L38.8399 19.1532C38.7735 19.1912 38.7506 19.2291 38.7506 19.2804C38.7241 19.3735 38.7906 19.4628 38.9027 19.5273C38.9729 19.5672 39.0622 19.5976 39.1573 19.6109L42.3243 19.9167L42.3262 19.9185ZM36.4651 19.3697L35.4922 19.4324L34.9983 19.8901L35.3175 20.3991L36.2237 20.5776L37.0369 20.2984L37.147 19.7495L36.4669 19.3678" fill="white"/>
<path d="M34.6142 15.483L34.6368 15.4697V15.4754C34.6368 15.4754 34.6218 15.4811 34.6142 15.483Z" fill="white"/>
<defs>
<linearGradient id="paint0_linear_7996_40426" x1="3.86758" y1="26.0653" x2="31.1547" y2="37.8182" gradientUnits="userSpaceOnUse">
<stop stop-color="#4C7F8E" stop-opacity="0.52"/>
<stop offset="0.4" stop-color="#4C7F8E" stop-opacity="0.52"/>
<stop offset="0.5" stop-color="#4C7F8E" stop-opacity="0.52"/>
<stop offset="0.7" stop-color="#4C7F8E" stop-opacity="0.63"/>
<stop offset="0.88" stop-color="#4C7F8E" stop-opacity="0.65"/>
<stop offset="1" stop-color="#4C7F8E" stop-opacity="0.7"/>
</linearGradient>
<linearGradient id="paint1_linear_7996_40426" x1="33.6815" y1="28.6314" x2="34.2587" y2="32.6748" gradientUnits="userSpaceOnUse">
<stop offset="0.57" stop-color="white" stop-opacity="0"/>
<stop offset="0.79" stop-color="white" stop-opacity="0.3"/>
<stop offset="0.87" stop-color="white" stop-opacity="0.42"/>
<stop offset="1" stop-color="white" stop-opacity="0.6"/>
</linearGradient>
<linearGradient id="paint2_linear_7996_40426" x1="66.7115" y1="57.4365" x2="1.90524" y2="53.3918" gradientUnits="userSpaceOnUse">
<stop stop-color="#4C7F8E" stop-opacity="0.6"/>
<stop offset="0.11" stop-color="#4C7F8E" stop-opacity="0.55"/>
<stop offset="0.27" stop-color="#4C7F8E" stop-opacity="0.43"/>
<stop offset="0.45" stop-color="#4C7F8E" stop-opacity="0.22"/>
<stop offset="0.6" stop-color="#4C7F8E" stop-opacity="0"/>
<stop offset="1" stop-color="#4C7F8E" stop-opacity="0"/>
</linearGradient>
<linearGradient id="paint3_linear_7996_40426" x1="65.5032" y1="59.6471" x2="8" y2="47" gradientUnits="userSpaceOnUse">
<stop offset="0.37" stop-color="white" stop-opacity="0"/>
<stop offset="0.59" stop-color="white" stop-opacity="0.3"/>
<stop offset="0.67" stop-color="white" stop-opacity="0.42"/>
<stop offset="0.8" stop-color="white" stop-opacity="0.6"/>
<stop offset="0.948142" stop-color="white" stop-opacity="0.6"/>
<stop offset="1" stop-color="#DDDDDD" stop-opacity="0.6"/>
</linearGradient>
<linearGradient id="paint4_linear_7996_40426" x1="3.86742" y1="13.3164" x2="31.1547" y2="25.0706" gradientUnits="userSpaceOnUse">
<stop stop-color="#4C7F8E" stop-opacity="0.52"/>
<stop offset="0.4" stop-color="#4C7F8E" stop-opacity="0.52"/>
<stop offset="0.5" stop-color="#4C7F8E" stop-opacity="0.52"/>
<stop offset="0.7" stop-color="#4C7F8E" stop-opacity="0.63"/>
<stop offset="0.88" stop-color="#4C7F8E" stop-opacity="0.65"/>
<stop offset="1" stop-color="#4C7F8E" stop-opacity="0.7"/>
</linearGradient>
<linearGradient id="paint5_linear_7996_40426" x1="3.86799" y1="15.8804" x2="4.05791" y2="19.9257" gradientUnits="userSpaceOnUse">
<stop offset="0.57" stop-color="white" stop-opacity="0"/>
<stop offset="0.79" stop-color="white" stop-opacity="0.3"/>
<stop offset="0.87" stop-color="white" stop-opacity="0.42"/>
<stop offset="1" stop-color="white" stop-opacity="0.6"/>
</linearGradient>
<linearGradient id="paint6_linear_7996_40426" x1="66.7115" y1="44.6855" x2="1.90524" y2="40.6408" gradientUnits="userSpaceOnUse">
<stop stop-color="#4C7F8E" stop-opacity="0.6"/>
<stop offset="0.11" stop-color="#4C7F8E" stop-opacity="0.55"/>
<stop offset="0.27" stop-color="#4C7F8E" stop-opacity="0.43"/>
<stop offset="0.45" stop-color="#4C7F8E" stop-opacity="0.22"/>
<stop offset="0.6" stop-color="#4C7F8E" stop-opacity="0"/>
<stop offset="1" stop-color="#4C7F8E" stop-opacity="0"/>
</linearGradient>
<linearGradient id="paint7_linear_7996_40426" x1="65.5032" y1="46.8969" x2="8.00041" y2="34.2489" gradientUnits="userSpaceOnUse">
<stop offset="0.37" stop-color="white" stop-opacity="0"/>
<stop offset="0.59" stop-color="white" stop-opacity="0.3"/>
<stop offset="0.67" stop-color="white" stop-opacity="0.42"/>
<stop offset="0.8" stop-color="white" stop-opacity="0.6"/>
<stop offset="0.948142" stop-color="white" stop-opacity="0.6"/>
<stop offset="1" stop-color="#DDDDDD" stop-opacity="0.6"/>
</linearGradient>
<linearGradient id="paint8_linear_7996_40426" x1="3.86742" y1="0.567375" x2="31.1547" y2="12.3215" gradientUnits="userSpaceOnUse">
<stop stop-color="#4C7F8E" stop-opacity="0"/>
<stop offset="0.4" stop-color="#4C7F8E" stop-opacity="0"/>
<stop offset="0.5" stop-color="#4C7F8E" stop-opacity="0.12"/>
<stop offset="0.7" stop-color="#4C7F8E" stop-opacity="0.33"/>
<stop offset="0.88" stop-color="#4C7F8E" stop-opacity="0.45"/>
<stop offset="1" stop-color="#4C7F8E" stop-opacity="0.5"/>
</linearGradient>
<linearGradient id="paint9_linear_7996_40426" x1="33.6812" y1="3.1295" x2="34.2584" y2="7.17483" gradientUnits="userSpaceOnUse">
<stop offset="0.57" stop-color="white" stop-opacity="0"/>
<stop offset="0.79" stop-color="white" stop-opacity="0.3"/>
<stop offset="0.87" stop-color="white" stop-opacity="0.42"/>
<stop offset="1" stop-color="white" stop-opacity="0.6"/>
</linearGradient>
<linearGradient id="paint10_linear_7996_40426" x1="66.7115" y1="31.9365" x2="1.90524" y2="27.892" gradientUnits="userSpaceOnUse">
<stop stop-color="#4C7F8E" stop-opacity="0.6"/>
<stop offset="0.11" stop-color="#4C7F8E" stop-opacity="0.55"/>
<stop offset="0.27" stop-color="#4C7F8E" stop-opacity="0.43"/>
<stop offset="0.45" stop-color="#4C7F8E" stop-opacity="0.22"/>
<stop offset="0.6" stop-color="#4C7F8E" stop-opacity="0"/>
<stop offset="1" stop-color="#4C7F8E" stop-opacity="0"/>
</linearGradient>
<linearGradient id="paint11_linear_7996_40426" x1="65.5032" y1="34.145" x2="8.00041" y2="21.4969" gradientUnits="userSpaceOnUse">
<stop offset="0.37" stop-color="white" stop-opacity="0"/>
<stop offset="0.59" stop-color="white" stop-opacity="0.3"/>
<stop offset="0.67" stop-color="white" stop-opacity="0.42"/>
<stop offset="0.8" stop-color="white" stop-opacity="0.6"/>
<stop offset="0.948142" stop-color="white" stop-opacity="0.6"/>
<stop offset="1" stop-color="#DDDDDD" stop-opacity="0.6"/>
</linearGradient>
<linearGradient id="paint12_linear_7996_40426" x1="52.6311" y1="24.4138" x2="22.5171" y2="16.1521" gradientUnits="userSpaceOnUse">
<stop offset="0.57" stop-color="white" stop-opacity="0"/>
<stop offset="0.79" stop-color="white" stop-opacity="0.3"/>
<stop offset="0.87" stop-color="white" stop-opacity="0.42"/>
<stop offset="1" stop-color="white" stop-opacity="0.6"/>
</linearGradient>
</defs>
</svg>
