<svg width="72" height="72" viewBox="0 0 72 72" fill="none" xmlns="http://www.w3.org/2000/svg">
<g clip-path="url(#clip0_11114_7617)">
<g filter="url(#filter0_d_11114_7617)">
<g opacity="0.7">
<path d="M68.0228 56.875C68.0228 56.875 67.9811 56.9166 67.9478 56.9333C67.9311 56.9499 67.9061 56.9583 67.8895 56.9749L42.2532 71.8437C41.9699 72.0102 41.5366 72.0435 41.1867 71.9352C41.1367 71.9186 41.0867 71.9019 41.0368 71.877L40.9618 71.8353L2.1782 49.4989C2.11155 49.4656 2.06156 49.4156 2.0199 49.374C2.00324 49.3574 1.99491 49.3407 1.98657 49.3324C1.96991 49.3157 1.96158 49.2991 1.95325 49.2824C1.92825 49.2325 1.91992 49.1825 1.91992 49.1409V47.2677C1.91992 47.1345 2.01157 47.0013 2.18653 46.8931L26.3648 32.8818C26.3648 32.8818 26.4315 32.9318 26.4648 32.9484L68.0228 56.8833C68.1061 56.8001 68.1561 56.7085 68.1561 56.6169" fill="#121929"/>
</g>
</g>
<path d="M68.1727 54.7441V56.6172C68.1727 56.7504 68.081 56.8836 67.9061 56.9835L42.2698 71.844C41.9198 72.0521 41.3366 72.0521 40.9867 71.844L2.20313 49.5075C2.02817 49.4076 1.93652 49.2744 1.93652 49.1412V47.2681C1.93652 47.4013 2.0365 47.5345 2.21147 47.6344L40.995 69.9708C41.3533 70.1706 41.9282 70.1706 42.2781 69.9708L67.9144 55.1104C68.0894 55.0105 68.1727 54.8773 68.181 54.7441H68.1727Z" fill="#CAD5DB"/>
<path d="M68.1727 54.7441V56.6172C68.1727 56.7504 68.081 56.8836 67.9061 56.9835L42.2698 71.844C41.9198 72.0521 41.3366 72.0521 40.9867 71.844L2.20313 49.5075C2.02817 49.4076 1.93652 49.2744 1.93652 49.1412V47.2681C1.93652 47.4013 2.0365 47.5345 2.21147 47.6344L40.995 69.9708C41.3533 70.1706 41.9282 70.1706 42.2781 69.9708L67.9144 55.1104C68.0894 55.0105 68.1727 54.8773 68.181 54.7441H68.1727Z" fill="#CAD5DB"/>
<path d="M67.9062 54.3612C68.2645 54.5693 68.2645 54.894 67.9062 55.1021L42.2699 69.9626C41.92 70.1707 41.3451 70.1707 40.9868 69.9626L2.20326 47.6261C1.84501 47.418 1.84501 47.0933 2.20326 46.8852L27.8396 32.0247C28.1895 31.8166 28.7644 31.8166 29.1226 32.0247L67.9062 54.3612Z" fill="#F3F4F5"/>
<path d="M69.8474 23.5412L69.764 53.1205C69.764 53.3203 69.6891 53.4619 69.5724 53.5285L68.2644 54.2861C68.3477 54.2111 68.3977 54.0862 68.3977 53.9197L68.481 24.3404C68.481 23.9325 68.1977 23.4329 67.8395 23.2331L29.0559 0.89669C28.8726 0.788463 28.7143 0.780138 28.5977 0.855065L30.0224 0.0308739C30.1307 -0.00242681 30.264 0.0225457 30.4139 0.105797L69.1975 22.4422C69.5558 22.6504 69.839 23.1416 69.839 23.5495L69.8474 23.5412Z" fill="#587E8B"/>
<path d="M69.8474 23.5412L69.764 53.1205C69.764 53.3203 69.6891 53.4619 69.5724 53.5285L68.2644 54.2861C68.3477 54.2111 68.3977 54.0862 68.3977 53.9197L68.481 24.3404C68.481 23.9325 68.1977 23.4329 67.8395 23.2331L29.0559 0.89669C28.8726 0.788463 28.7143 0.780138 28.5977 0.855065L30.0224 0.0308739C30.1307 -0.00242681 30.264 0.0225457 30.4139 0.105797L69.1975 22.4422C69.5558 22.6504 69.839 23.1416 69.839 23.5495L69.8474 23.5412Z" fill="#CAD5DB"/>
<path d="M67.8483 23.2331C68.2065 23.4413 68.4898 23.9325 68.4898 24.3404L68.4065 53.9197C68.4065 54.3277 68.1149 54.4942 67.7649 54.2861L28.9814 31.9496C28.6231 31.7415 28.3398 31.2503 28.3398 30.8424L28.4232 1.26301C28.4232 0.855077 28.7148 0.696896 29.0647 0.8967L67.8483 23.2331Z" fill="#E2E6E7"/>
<path d="M66.0734 23.5661C66.3984 23.7576 66.665 24.2155 66.665 24.5901L66.59 51.905C66.59 52.2797 66.3234 52.4295 65.9901 52.2464L30.1726 31.6166C29.8477 31.4251 29.5811 30.9672 29.5811 30.5926L29.656 3.27767C29.656 2.90304 29.9226 2.75319 30.2559 2.94467L66.0734 23.5745V23.5661Z" fill="white"/>
<g opacity="0.8">
<path d="M32.3385 6.18311C32.3968 6.21641 32.4468 6.30799 32.4468 6.37459V7.77322C32.4468 7.83982 32.3884 7.87312 32.3301 7.83982L31.1054 7.13218C31.0471 7.09888 30.9971 7.0073 30.9971 6.9407V5.54207C30.9971 5.47547 31.0554 5.44217 31.1137 5.47547L32.3385 6.18311Z" fill="#587E8B"/>
</g>
<g opacity="0.8">
<path d="M34.7379 7.66504C34.7962 7.69834 34.8462 7.78992 34.8462 7.85652V9.25515C34.8462 9.32175 34.7879 9.35505 34.7295 9.32175L33.5048 8.61411C33.4465 8.58081 33.3965 8.48923 33.3965 8.42263V7.024C33.3965 6.9574 33.4548 6.9241 33.5131 6.9574L34.7379 7.66504Z" fill="#587E8B"/>
</g>
<g opacity="0.8">
<path d="M65.2555 48.5742C65.3138 48.6075 65.3638 48.6991 65.3638 48.7657V50.1643C65.3638 50.2309 65.3054 50.2642 65.2471 50.2309L64.0224 49.5233C63.9641 49.49 63.9141 49.3984 63.9141 49.3318V47.9332C63.9141 47.8666 63.9724 47.8333 64.0307 47.8666L65.2555 48.5742Z" fill="#587E8B"/>
</g>
<g opacity="0.8">
<path d="M32.3385 8.76367C32.3968 8.79697 32.4468 8.88855 32.4468 8.95515V10.3538C32.4468 10.4204 32.3884 10.4537 32.3301 10.4204L31.1054 9.71274C31.0471 9.67944 30.9971 9.58786 30.9971 9.52126V8.12263C30.9971 8.05603 31.0554 8.02273 31.1137 8.05603L32.3385 8.76367Z" fill="#587E8B"/>
</g>
<g opacity="0.8">
<path d="M32.3385 11.1616C32.3968 11.1949 32.4468 11.2865 32.4468 11.3531V12.7517C32.4468 12.8183 32.3884 12.8516 32.3301 12.8183L31.1054 12.1107C31.0471 12.0774 30.9971 11.9858 30.9971 11.9192V10.5206C30.9971 10.454 31.0554 10.4207 31.1137 10.454L32.3385 11.1616Z" fill="#587E8B"/>
</g>
<path d="M33.9383 56.2589C34.1216 56.3588 34.1216 56.5336 33.9383 56.6335L28.2895 59.9053C28.1145 60.0052 27.8229 60.0052 27.6396 59.9053L17.4168 54.0194C17.2335 53.9112 17.2335 53.7447 17.4168 53.6448L23.0656 50.373C23.2406 50.2731 23.5322 50.2648 23.7155 50.373L33.9383 56.2589Z" fill="#617D8A"/>
<path d="M26.5985 36.4202C26.6818 36.4702 26.6901 36.5451 26.5985 36.5951L25.1904 37.4109C25.1071 37.4609 24.9655 37.4609 24.8822 37.4109L23.4658 36.5951C23.3825 36.5451 23.3825 36.4702 23.4658 36.4202L24.8738 35.6044C24.9572 35.5544 25.0905 35.5544 25.1821 35.6044L26.5985 36.4202Z" fill="#CAD5DB"/>
<path d="M29.0067 37.9022C29.09 37.9521 29.0983 38.027 29.0067 38.077L27.5986 38.8929C27.5153 38.9428 27.3737 38.9428 27.2904 38.8929L25.874 38.077C25.7907 38.027 25.7907 37.9521 25.874 37.9022L27.282 37.0863C27.3654 37.0363 27.4987 37.0363 27.5903 37.0863L29.0067 37.9022Z" fill="#CAD5DB"/>
<path d="M31.4725 39.3841C31.5558 39.434 31.5642 39.509 31.4725 39.5589L30.0645 40.3748C29.9812 40.4247 29.8395 40.4247 29.7562 40.3748L28.3398 39.5589C28.2565 39.509 28.2565 39.434 28.3398 39.3841L29.7479 38.5682C29.8312 38.5183 29.9645 38.5183 30.0561 38.5682L31.4725 39.3841Z" fill="#CAD5DB"/>
<path d="M33.9715 40.866C34.0548 40.916 34.0632 40.9909 33.9715 41.0409L32.5635 41.8567C32.4802 41.9067 32.3385 41.9067 32.2552 41.8567L30.8389 41.0409C30.7555 40.9909 30.7555 40.916 30.8389 40.866L32.2469 40.0502C32.3302 40.0002 32.4635 40.0002 32.5552 40.0502L33.9715 40.866Z" fill="#CAD5DB"/>
<path d="M36.5135 42.3563C36.5968 42.4062 36.6052 42.4811 36.5135 42.5311L35.1055 43.347C35.0222 43.3969 34.8805 43.3969 34.7972 43.347L33.3808 42.5311C33.2975 42.4811 33.2975 42.4062 33.3808 42.3563L34.7889 41.5404C34.8722 41.4904 35.0055 41.4904 35.0972 41.5404L36.5135 42.3563Z" fill="#CAD5DB"/>
<path d="M39.1209 43.8377C39.2043 43.8877 39.2126 43.9626 39.1209 44.0125L37.7129 44.8284C37.6296 44.8784 37.488 44.8784 37.4046 44.8284L35.9883 44.0125C35.905 43.9626 35.905 43.8877 35.9883 43.8377L37.3963 43.0218C37.4796 42.9719 37.6129 42.9719 37.7046 43.0218L39.1209 43.8377Z" fill="#CAD5DB"/>
<path d="M41.787 45.3201C41.8703 45.3701 41.8786 45.445 41.787 45.495L40.3789 46.3108C40.2956 46.3608 40.154 46.3608 40.0707 46.3108L38.6543 45.495C38.571 45.445 38.571 45.3701 38.6543 45.3201L40.0623 44.5043C40.1456 44.4543 40.2789 44.4543 40.3706 44.5043L41.787 45.3201Z" fill="#CAD5DB"/>
<path d="M44.3612 46.8099C44.4445 46.8598 44.4528 46.9348 44.3612 46.9847L42.9531 47.8006C42.8698 47.8505 42.7282 47.8505 42.6449 47.8006L41.2285 46.9847C41.1452 46.9348 41.1452 46.8598 41.2285 46.8099L42.6365 45.994C42.7199 45.9441 42.8532 45.9441 42.9448 45.994L44.3612 46.8099Z" fill="#CAD5DB"/>
<path d="M46.9354 48.2918C47.0187 48.3418 47.027 48.4167 46.9354 48.4666L45.5274 49.2825C45.444 49.3325 45.3024 49.3325 45.2191 49.2825L43.8027 48.4666C43.7194 48.4167 43.7194 48.3418 43.8027 48.2918L45.2108 47.4759C45.2941 47.426 45.4274 47.426 45.519 47.4759L46.9354 48.2918Z" fill="#CAD5DB"/>
<path d="M49.4686 49.7737C49.5519 49.8237 49.5603 49.8986 49.4686 49.9486L48.0606 50.7644C47.9772 50.8144 47.8356 50.8144 47.7523 50.7644L46.3359 49.9486C46.2526 49.8986 46.2526 49.8237 46.3359 49.7737L47.744 48.9579C47.8273 48.9079 47.9606 48.9079 48.0522 48.9579L49.4686 49.7737Z" fill="#CAD5DB"/>
<path d="M52.1268 51.264C52.2101 51.3139 52.2185 51.3889 52.1268 51.4388L50.7188 52.2547C50.6355 52.3046 50.4938 52.3046 50.4105 52.2547L48.9941 51.4388C48.9108 51.3889 48.9108 51.3139 48.9941 51.264L50.4022 50.4481C50.4855 50.3982 50.6188 50.3982 50.7104 50.4481L52.1268 51.264Z" fill="#CAD5DB"/>
<path d="M54.701 52.7459C54.7843 52.7959 54.7927 52.8708 54.701 52.9207L53.293 53.7366C53.2097 53.7866 53.068 53.7866 52.9847 53.7366L51.5683 52.9207C51.485 52.8708 51.485 52.7959 51.5683 52.7459L52.9764 51.93C53.0597 51.8801 53.193 51.8801 53.2847 51.93L54.701 52.7459Z" fill="#CAD5DB"/>
<path d="M57.284 54.2278C57.3674 54.2778 57.3757 54.3527 57.284 54.4027L55.876 55.2185C55.7927 55.2685 55.651 55.2685 55.5677 55.2185L54.1514 54.4027C54.068 54.3527 54.068 54.2778 54.1514 54.2278L55.5594 53.412C55.6427 53.362 55.776 53.362 55.8677 53.412L57.284 54.2278Z" fill="#CAD5DB"/>
<path d="M61.3659 56.6172L59.9578 57.4331C59.8745 57.483 59.7329 57.483 59.6496 57.4331L58.3915 56.7088L58.2332 56.6172L56.9668 55.8846C56.8835 55.8346 56.8835 55.7597 56.9668 55.7098L58.3832 54.8939C58.4665 54.844 58.5998 54.844 58.6914 54.8939L59.9578 55.6265L60.1161 55.7181L61.3742 56.4424C61.4575 56.4923 61.4658 56.5673 61.3742 56.6172H61.3659Z" fill="#587E8B"/>
<path d="M21.3905 39.1844C21.4738 39.2343 21.4821 39.3093 21.3905 39.3592L19.9824 40.1751C19.8991 40.225 19.7575 40.225 19.6742 40.1751L18.2578 39.3592C18.1745 39.3093 18.1745 39.2343 18.2578 39.1844L19.6658 38.3685C19.7492 38.3186 19.8825 38.3186 19.9741 38.3685L21.3905 39.1844Z" fill="#CAD5DB"/>
<path d="M23.7987 40.6746C23.882 40.7246 23.8903 40.7995 23.7987 40.8494L22.3906 41.6653C22.3073 41.7153 22.1657 41.7153 22.0824 41.6653L20.666 40.8494C20.5827 40.7995 20.5827 40.7246 20.666 40.6746L22.074 39.8588C22.1574 39.8088 22.2907 39.8088 22.3823 39.8588L23.7987 40.6746Z" fill="#CAD5DB"/>
<path d="M26.2645 42.1566C26.3478 42.2065 26.3562 42.2814 26.2645 42.3314L24.8565 43.1473C24.7731 43.1972 24.6315 43.1972 24.5482 43.1473L23.1318 42.3314C23.0485 42.2814 23.0485 42.2065 23.1318 42.1566L24.5399 41.3407C24.6232 41.2907 24.7565 41.2907 24.8481 41.3407L26.2645 42.1566Z" fill="#CAD5DB"/>
<path d="M28.7635 43.6385C28.8468 43.6884 28.8552 43.7634 28.7635 43.8133L27.3555 44.6292C27.2722 44.6791 27.1305 44.6791 27.0472 44.6292L25.6308 43.8133C25.5475 43.7634 25.5475 43.6884 25.6308 43.6385L27.0389 42.8226C27.1222 42.7727 27.2555 42.7727 27.3472 42.8226L28.7635 43.6385Z" fill="#CAD5DB"/>
<path d="M31.2967 45.1287C31.38 45.1787 31.3884 45.2536 31.2967 45.3036L29.8887 46.1194C29.8054 46.1694 29.6637 46.1694 29.5804 46.1194L28.164 45.3036C28.0807 45.2536 28.0807 45.1787 28.164 45.1287L29.5721 44.3129C29.6554 44.2629 29.7887 44.2629 29.8804 44.3129L31.2967 45.1287Z" fill="#CAD5DB"/>
<path d="M33.9129 46.6102C33.9963 46.6601 34.0046 46.735 33.9129 46.785L32.5049 47.6009C32.4216 47.6508 32.2799 47.6508 32.1966 47.6009L30.7803 46.785C30.6969 46.735 30.6969 46.6601 30.7803 46.6102L32.1883 45.7943C32.2716 45.7443 32.4049 45.7443 32.4966 45.7943L33.9129 46.6102Z" fill="#CAD5DB"/>
<path d="M36.5711 48.0926C36.6545 48.1425 36.6628 48.2175 36.5711 48.2674L35.1631 49.0833C35.0798 49.1332 34.9382 49.1332 34.8548 49.0833L33.4385 48.2674C33.3551 48.2175 33.3551 48.1425 33.4385 48.0926L34.8465 47.2767C34.9298 47.2268 35.0631 47.2268 35.1548 47.2767L36.5711 48.0926Z" fill="#CAD5DB"/>
<path d="M39.1454 49.5823C39.2287 49.6323 39.237 49.7072 39.1454 49.7572L37.7373 50.573C37.654 50.623 37.5124 50.623 37.4291 50.573L36.0127 49.7572C35.9294 49.7072 35.9294 49.6323 36.0127 49.5823L37.4207 48.7665C37.504 48.7165 37.6373 48.7165 37.729 48.7665L39.1454 49.5823Z" fill="#CAD5DB"/>
<path d="M41.7274 51.0643C41.8107 51.1142 41.819 51.1891 41.7274 51.2391L40.3194 52.055C40.236 52.1049 40.0944 52.1049 40.0111 52.055L38.5947 51.2391C38.5114 51.1891 38.5114 51.1142 38.5947 51.0643L40.0028 50.2484C40.0861 50.1984 40.2194 50.1984 40.311 50.2484L41.7274 51.0643Z" fill="#CAD5DB"/>
<path d="M44.2528 52.5462C44.3361 52.5962 44.3444 52.6711 44.2528 52.721L42.8447 53.5369C42.7614 53.5868 42.6198 53.5868 42.5365 53.5369L41.1201 52.721C41.0368 52.6711 41.0368 52.5962 41.1201 52.5462L42.5281 51.7303C42.6115 51.6804 42.7448 51.6804 42.8364 51.7303L44.2528 52.5462Z" fill="#CAD5DB"/>
<path d="M46.9188 54.0281C47.0021 54.0781 47.0105 54.153 46.9188 54.203L45.5108 55.0188C45.4275 55.0688 45.2858 55.0688 45.2025 55.0188L43.7861 54.203C43.7028 54.153 43.7028 54.0781 43.7861 54.0281L45.1942 53.2123C45.2775 53.1623 45.4108 53.1623 45.5024 53.2123L46.9188 54.0281Z" fill="#CAD5DB"/>
<path d="M49.4842 55.5184C49.5675 55.5683 49.5759 55.6432 49.4842 55.6932L48.0762 56.5091C47.9929 56.559 47.8512 56.559 47.7679 56.5091L46.3515 55.6932C46.2682 55.6432 46.2682 55.5683 46.3515 55.5184L47.7596 54.7025C47.8429 54.6526 47.9762 54.6526 48.0679 54.7025L49.4842 55.5184Z" fill="#CAD5DB"/>
<path d="M52.0672 57.0003C52.1506 57.0503 52.1589 57.1252 52.0672 57.1751L50.6592 57.991C50.5759 58.0409 50.4342 58.0409 50.3509 57.991L48.9346 57.1751C48.8512 57.1252 48.8512 57.0503 48.9346 57.0003L50.3426 56.1844C50.4259 56.1345 50.5592 56.1345 50.6509 56.1844L52.0672 57.0003Z" fill="#CAD5DB"/>
<path d="M56.1579 59.3897L54.7498 60.2056C54.6665 60.2555 54.5249 60.2555 54.4415 60.2056L53.1835 59.4813L53.0252 59.3897L51.7588 58.6571C51.6755 58.6071 51.6755 58.5322 51.7588 58.4822L53.1751 57.6664C53.2585 57.6164 53.3918 57.6164 53.4834 57.6664L54.7498 58.399L54.9081 58.4906L56.1662 59.2149C56.2495 59.2648 56.2578 59.3397 56.1662 59.3897H56.1579Z" fill="#CAD5DB"/>
<path d="M23.9735 37.744C24.0568 37.7939 24.0651 37.8688 23.9735 37.9188L22.5654 38.7347C22.4821 38.7846 22.3405 38.7846 22.2572 38.7347L20.8408 37.9188C20.7575 37.8688 20.7575 37.7939 20.8408 37.744L22.2488 36.9281C22.3322 36.8781 22.4655 36.8781 22.5571 36.9281L23.9735 37.744Z" fill="#CAD5DB"/>
<path d="M26.6483 39.3255C26.7316 39.3754 26.7399 39.4504 26.6483 39.5003L25.2403 40.3162C25.1569 40.3661 25.0153 40.3661 24.932 40.3162L23.5156 39.5003C23.4323 39.4504 23.4323 39.3754 23.5156 39.3255L24.9237 38.5096C25.007 38.4597 25.1403 38.4597 25.2319 38.5096L26.6483 39.3255Z" fill="#CAD5DB"/>
<path d="M29.3143 40.8074C29.3976 40.8574 29.406 40.9323 29.3143 40.9823L27.9063 41.7981C27.823 41.8481 27.6813 41.8481 27.598 41.7981L26.1816 40.9823C26.0983 40.9323 26.0983 40.8574 26.1816 40.8074L27.5897 39.9916C27.673 39.9416 27.8063 39.9416 27.8979 39.9916L29.3143 40.8074Z" fill="#CAD5DB"/>
<path d="M31.9881 42.3895C32.0715 42.4394 32.0798 42.5143 31.9881 42.5643L30.5801 43.3802C30.4968 43.4301 30.3551 43.4301 30.2718 43.3802L28.8555 42.5643C28.7721 42.5143 28.7721 42.4394 28.8555 42.3895L30.2635 41.5736C30.3468 41.5236 30.4801 41.5236 30.5718 41.5736L31.9881 42.3895Z" fill="#CAD5DB"/>
<path d="M34.6629 43.9378C34.7463 43.9878 34.7546 44.0627 34.6629 44.1126L33.2549 44.9285C33.1716 44.9785 33.0299 44.9785 32.9466 44.9285L31.5303 44.1126C31.4469 44.0627 31.4469 43.9878 31.5303 43.9378L32.9383 43.1219C33.0216 43.072 33.1549 43.072 33.2466 43.1219L34.6629 43.9378Z" fill="#CAD5DB"/>
<path d="M37.329 45.3699C37.4123 45.4199 37.4206 45.4948 37.329 45.5448L35.9209 46.3606C35.8376 46.4106 35.696 46.4106 35.6126 46.3606L34.1963 45.5448C34.113 45.4948 34.113 45.4199 34.1963 45.3699L35.6043 44.5541C35.6876 44.5041 35.8209 44.5041 35.9126 44.5541L37.329 45.3699Z" fill="#CAD5DB"/>
<path d="M40.0038 46.9349C40.0871 46.9848 40.0954 47.0597 40.0038 47.1097L38.5957 47.9256C38.5124 47.9755 38.3708 47.9755 38.2875 47.9256L36.8711 47.1097C36.7878 47.0597 36.7878 46.9848 36.8711 46.9349L38.2791 46.119C38.3624 46.0691 38.4957 46.0691 38.5874 46.119L40.0038 46.9349Z" fill="#CAD5DB"/>
<path d="M42.6698 48.45C42.7531 48.5 42.7614 48.5749 42.6698 48.6248L41.2617 49.4407C41.1784 49.4907 41.0368 49.4907 40.9535 49.4407L39.5371 48.6248C39.4538 48.5749 39.4538 48.5 39.5371 48.45L40.9451 47.6341C41.0285 47.5842 41.1618 47.5842 41.2534 47.6341L42.6698 48.45Z" fill="#CAD5DB"/>
<path d="M45.3436 50.0232C45.4269 50.0732 45.4353 50.1481 45.3436 50.1981L43.9356 51.0139C43.8522 51.0639 43.7106 51.0639 43.6273 51.0139L42.2109 50.1981C42.1276 50.1481 42.1276 50.0732 42.2109 50.0232L43.619 49.2074C43.7023 49.1574 43.8356 49.1574 43.9272 49.2074L45.3436 50.0232Z" fill="#CAD5DB"/>
<path d="M48.0184 51.6053C48.1017 51.6552 48.1101 51.7302 48.0184 51.7801L46.6104 52.596C46.5271 52.6459 46.3854 52.6459 46.3021 52.596L44.8857 51.7801C44.8024 51.7302 44.8024 51.6552 44.8857 51.6053L46.2938 50.7894C46.3771 50.7395 46.5104 50.7395 46.602 50.7894L48.0184 51.6053Z" fill="#CAD5DB"/>
<path d="M50.6844 53.1624C50.7677 53.2124 50.7761 53.2873 50.6844 53.3372L49.2764 54.1531C49.1931 54.2031 49.0514 54.2031 48.9681 54.1531L47.5517 53.3372C47.4684 53.2873 47.4684 53.2124 47.5517 53.1624L48.9598 52.3465C49.0431 52.2966 49.1764 52.2966 49.2681 52.3465L50.6844 53.1624Z" fill="#CAD5DB"/>
<path d="M53.3592 54.7855C53.4425 54.8354 53.4509 54.9103 53.3592 54.9603L51.9512 55.7762C51.8679 55.8261 51.7262 55.8261 51.6429 55.7762L50.2265 54.9603C50.1432 54.9103 50.1432 54.8354 50.2265 54.7855L51.6346 53.9696C51.7179 53.9196 51.8512 53.9196 51.9429 53.9696L53.3592 54.7855Z" fill="#CAD5DB"/>
<path d="M56.0252 56.3841C56.1086 56.434 56.1169 56.509 56.0252 56.5589L54.6172 57.3748C54.5339 57.4247 54.3923 57.4247 54.3089 57.3748L52.8926 56.5589C52.8092 56.509 52.8092 56.434 52.8926 56.3841L54.3006 55.5682C54.3839 55.5183 54.5172 55.5183 54.6089 55.5682L56.0252 56.3841Z" fill="#CAD5DB"/>
<path d="M58.7 57.8909C58.7834 57.9409 58.7917 58.0158 58.7 58.0658L57.292 58.8816C57.2087 58.9316 57.0671 58.9316 56.9837 58.8816L55.5674 58.0658C55.4841 58.0158 55.4841 57.9409 55.5674 57.8909L56.9754 57.0751C57.0587 57.0251 57.192 57.0251 57.2837 57.0751L58.7 57.8909Z" fill="#CAD5DB"/>
<path d="M18.6336 40.5164C18.717 40.5664 18.7253 40.6413 18.6336 40.6912L17.2256 41.5071C17.1423 41.5571 17.0007 41.5571 16.9173 41.5071L15.501 40.6912C15.4176 40.6413 15.4176 40.5664 15.501 40.5164L16.909 39.7005C16.9923 39.6506 17.1256 39.6506 17.2173 39.7005L18.6336 40.5164Z" fill="#CAD5DB"/>
<path d="M21.2997 42.0985C21.383 42.1484 21.3913 42.2233 21.2997 42.2733L19.8916 43.0892C19.8083 43.1391 19.6667 43.1391 19.5834 43.0892L18.167 42.2733C18.0837 42.2233 18.0837 42.1484 18.167 42.0985L19.575 41.2826C19.6583 41.2326 19.7916 41.2326 19.8833 41.2826L21.2997 42.0985Z" fill="#CAD5DB"/>
<path d="M23.9745 43.5799C24.0578 43.6298 24.0661 43.7048 23.9745 43.7547L22.5664 44.5706C22.4831 44.6205 22.3415 44.6205 22.2582 44.5706L20.8418 43.7547C20.7585 43.7048 20.7585 43.6298 20.8418 43.5799L22.2498 42.764C22.3331 42.7141 22.4664 42.7141 22.5581 42.764L23.9745 43.5799Z" fill="#CAD5DB"/>
<path d="M26.6483 45.1619C26.7316 45.2119 26.7399 45.2868 26.6483 45.3368L25.2403 46.1526C25.1569 46.2026 25.0153 46.2026 24.932 46.1526L23.5156 45.3368C23.4323 45.2868 23.4323 45.2119 23.5156 45.1619L24.9237 44.3461C25.007 44.2961 25.1403 44.2961 25.2319 44.3461L26.6483 45.1619Z" fill="#CAD5DB"/>
<path d="M29.3153 46.7103C29.3986 46.7602 29.4069 46.8351 29.3153 46.8851L27.9072 47.701C27.8239 47.7509 27.6823 47.7509 27.599 47.701L26.1826 46.8851C26.0993 46.8351 26.0993 46.7602 26.1826 46.7103L27.5906 45.8944C27.674 45.8444 27.8073 45.8444 27.8989 45.8944L29.3153 46.7103Z" fill="#CAD5DB"/>
<path d="M31.9891 48.1424C32.0724 48.1923 32.0808 48.2673 31.9891 48.3172L30.5811 49.1331C30.4978 49.183 30.3561 49.183 30.2728 49.1331L28.8564 48.3172C28.7731 48.2673 28.7731 48.1923 28.8564 48.1424L30.2645 47.3265C30.3478 47.2766 30.4811 47.2766 30.5727 47.3265L31.9891 48.1424Z" fill="#CAD5DB"/>
<path d="M34.6639 49.7073C34.7472 49.7573 34.7556 49.8322 34.6639 49.8822L33.2559 50.698C33.1726 50.748 33.0309 50.748 32.9476 50.698L31.5312 49.8822C31.4479 49.8322 31.4479 49.7573 31.5312 49.7073L32.9393 48.8915C33.0226 48.8415 33.1559 48.8415 33.2475 48.8915L34.6639 49.7073Z" fill="#CAD5DB"/>
<path d="M37.3299 51.2225C37.4132 51.2724 37.4216 51.3473 37.3299 51.3973L35.9219 52.2132C35.8386 52.2631 35.6969 52.2631 35.6136 52.2132L34.1973 51.3973C34.1139 51.3473 34.1139 51.2724 34.1973 51.2225L35.6053 50.4066C35.6886 50.3567 35.8219 50.3567 35.9136 50.4066L37.3299 51.2225Z" fill="#CAD5DB"/>
<path d="M40.0038 52.7962C40.0871 52.8461 40.0954 52.9211 40.0038 52.971L38.5957 53.7869C38.5124 53.8368 38.3708 53.8368 38.2875 53.7869L36.8711 52.971C36.7878 52.9211 36.7878 52.8461 36.8711 52.7962L38.2791 51.9803C38.3624 51.9304 38.4957 51.9304 38.5874 51.9803L40.0038 52.7962Z" fill="#CAD5DB"/>
<path d="M42.6698 54.3777C42.7531 54.4277 42.7614 54.5026 42.6698 54.5526L41.2617 55.3684C41.1784 55.4184 41.0368 55.4184 40.9535 55.3684L39.5371 54.5526C39.4538 54.5026 39.4538 54.4277 39.5371 54.3777L40.9451 53.5619C41.0285 53.5119 41.1618 53.5119 41.2534 53.5619L42.6698 54.3777Z" fill="#CAD5DB"/>
<path d="M45.3446 55.9349C45.4279 55.9848 45.4362 56.0598 45.3446 56.1097L43.9365 56.9256C43.8532 56.9755 43.7116 56.9755 43.6283 56.9256L42.2119 56.1097C42.1286 56.0598 42.1286 55.9848 42.2119 55.9349L43.6199 55.119C43.7033 55.0691 43.8366 55.0691 43.9282 55.119L45.3446 55.9349Z" fill="#CAD5DB"/>
<path d="M48.0194 57.5579C48.1027 57.6079 48.111 57.6828 48.0194 57.7328L46.6113 58.5486C46.528 58.5986 46.3864 58.5986 46.3031 58.5486L44.8867 57.7328C44.8034 57.6828 44.8034 57.6079 44.8867 57.5579L46.2947 56.7421C46.3781 56.6921 46.5114 56.6921 46.603 56.7421L48.0194 57.5579Z" fill="#CAD5DB"/>
<path d="M50.6854 59.1565C50.7687 59.2065 50.777 59.2814 50.6854 59.3314L49.2774 60.1472C49.194 60.1972 49.0524 60.1972 48.9691 60.1472L47.5527 59.3314C47.4694 59.2814 47.4694 59.2065 47.5527 59.1565L48.9608 58.3407C49.0441 58.2907 49.1774 58.2907 49.269 58.3407L50.6854 59.1565Z" fill="#CAD5DB"/>
<path d="M53.3602 60.6634C53.4435 60.7133 53.4519 60.7883 53.3602 60.8382L51.9522 61.6541C51.8688 61.704 51.7272 61.704 51.6439 61.6541L50.2275 60.8382C50.1442 60.7883 50.1442 60.7133 50.2275 60.6634L51.6356 59.8475C51.7189 59.7976 51.8522 59.7976 51.9438 59.8475L53.3602 60.6634Z" fill="#CAD5DB"/>
<path d="M30.1551 34.2308C30.2384 34.2807 30.2468 34.3557 30.1551 34.4056L28.7471 35.2215C28.6638 35.2714 28.5221 35.2714 28.4388 35.2215L27.0224 34.4056C26.9391 34.3557 26.9391 34.2807 27.0224 34.2308L28.4305 33.4149C28.5138 33.365 28.6471 33.365 28.7388 33.4149L30.1551 34.2308Z" fill="#5E2AD6"/>
<path d="M30.1551 34.2308C30.2384 34.2807 30.2468 34.3557 30.1551 34.4056L28.7471 35.2215C28.6638 35.2714 28.5221 35.2714 28.4388 35.2215L27.0224 34.4056C26.9391 34.3557 26.9391 34.2807 27.0224 34.2308L28.4305 33.4149C28.5138 33.365 28.6471 33.365 28.7388 33.4149L30.1551 34.2308Z" fill="url(#paint0_linear_11114_7617)"/>
<path d="M65.3143 54.3025C65.3976 54.3525 65.406 54.4274 65.3143 54.4774L63.9063 55.2932C63.823 55.3432 63.6813 55.3432 63.598 55.2932L62.1816 54.4774C62.0983 54.4274 62.0983 54.3525 62.1816 54.3025L63.5897 53.4867C63.673 53.4367 63.8063 53.4367 63.8979 53.4867L65.3143 54.3025Z" fill="#5E2AD6"/>
<path d="M65.3143 54.303C65.3976 54.353 65.406 54.4279 65.3143 54.4779L63.9063 55.2937C63.823 55.3437 63.6813 55.3437 63.598 55.2937L62.1816 54.4779C62.0983 54.4279 62.0983 54.353 62.1816 54.303L63.5897 53.4872C63.673 53.4372 63.8063 53.4372 63.8979 53.4872L65.3143 54.303Z" fill="url(#paint1_linear_11114_7617)"/>
<g opacity="0.7">
<path d="M69.839 23.5412L69.7557 53.1206C69.7557 53.3204 69.6807 53.4619 69.5724 53.5368L68.2643 54.2944C68.1644 54.386 68.0144 54.4026 67.8478 54.336L67.9061 54.3693C68.0894 54.4776 68.1727 54.6108 68.1727 54.744C68.1727 54.744 68.1727 54.7689 68.1727 54.7773C68.1727 54.7773 68.1727 54.7689 68.1727 54.7606V56.6088C68.1727 56.742 68.081 56.8752 67.9061 56.9751L42.2698 71.8356C41.9198 72.0437 41.3366 72.0437 40.9867 71.8356L2.20313 49.4991C2.02817 49.3992 1.93652 49.266 1.93652 49.1328V47.2596C1.93652 47.1264 2.02817 46.9849 2.20313 46.885L27.8394 32.0246C28.1644 31.8414 28.6643 31.8248 29.0225 31.9746L28.9725 31.9496C28.6226 31.7415 28.331 31.2503 28.331 30.8424L28.4143 1.26303C28.4143 1.04657 28.4976 0.896716 28.6226 0.83844C28.6393 0.830114 28.6643 0.82179 28.6893 0.813465C28.6726 0.813465 28.6476 0.821791 28.6309 0.830116L30.0223 0.0225725C30.1306 -0.0107282 30.2639 0.0142474 30.4139 0.0974992L69.1975 22.434C69.5557 22.6421 69.839 23.1333 69.839 23.5412Z" fill="url(#paint2_linear_11114_7617)"/>
</g>
<path d="M69.839 23.5329L69.7557 53.1123C69.7557 53.3121 69.6807 53.4536 69.5724 53.5285L68.2643 54.2861C68.1644 54.3777 68.0144 54.3943 67.8477 54.3277L67.9061 54.361C68.0894 54.4693 68.1727 54.6025 68.1727 54.7357C68.1727 54.7357 68.1727 54.7606 68.1727 54.769C68.1727 54.769 68.1727 54.7606 68.1727 54.7523V56.6005C68.1727 56.7337 68.081 56.8669 67.9061 56.9668L42.2698 71.8273C41.9198 72.0354 41.3366 72.0354 40.9867 71.8273L2.20313 49.4908C2.02817 49.3909 1.93652 49.2577 1.93652 49.1245V47.2513C1.93652 47.1181 2.02817 46.9766 2.20313 46.8767L27.8394 32.0163C28.1644 31.8331 28.6643 31.8165 29.0225 31.9663L28.9725 31.9413C28.6226 31.7332 28.331 31.242 28.331 30.8341L28.4143 1.25472C28.4143 1.03827 28.4976 0.888415 28.6226 0.830139C28.6393 0.821814 28.6643 0.813486 28.6893 0.805161C28.6726 0.805161 28.6476 0.813487 28.6309 0.821812L30.0223 0.0142717C30.1306 -0.019029 30.2639 0.00594666 30.4139 0.0891984L69.1975 22.4257C69.5557 22.6338 69.839 23.125 69.839 23.5329Z" fill="url(#paint3_linear_11114_7617)"/>
<path d="M39.1992 13.7878C39.1992 12.2496 40.8631 11.2872 42.1964 12.0541L63.573 24.3504C64.1934 24.7072 64.5758 25.3684 64.5758 26.084V43.702C64.5758 45.2402 62.9119 46.2027 61.5785 45.4357L40.202 33.1394C39.5816 32.7826 39.1992 32.1215 39.1992 31.4058V13.7878Z" fill="#6E17FF" fill-opacity="0.2"/>
<path d="M38.0762 14.4616C38.0762 12.9234 39.7401 11.961 41.0734 12.728L62.45 25.0242C63.0703 25.3811 63.4527 26.0422 63.4527 26.7579V44.3759C63.4527 45.9141 61.7888 46.8765 60.4555 46.1095L39.0789 33.8133C38.4586 33.4564 38.0762 32.7953 38.0762 32.0796V14.4616Z" fill="#6E17FF" fill-opacity="0.8"/>
<g filter="url(#filter1_d_11114_7617)">
<g filter="url(#filter2_d_11114_7617)">
<path fill-rule="evenodd" clip-rule="evenodd" d="M39.9024 16.8438C39.9639 16.7361 40.1011 16.6986 40.2088 16.7601L40.4334 16.8884C40.5411 16.9499 40.5785 17.0871 40.517 17.1948C40.4555 17.3025 40.3183 17.3399 40.2106 17.2784L39.986 17.1501C39.8783 17.0886 39.8409 16.9514 39.9024 16.8438ZM44.6184 19.5375C44.6799 19.4298 44.8171 19.3924 44.9248 19.4539L47.1705 20.7367C47.2782 20.7982 47.3156 20.9353 47.2541 21.043C47.1926 21.1507 47.0554 21.1882 46.9477 21.1267L44.702 19.8439C44.5943 19.7824 44.5569 19.6452 44.6184 19.5375ZM47.7624 21.3334C47.8239 21.2257 47.9611 21.1882 48.0688 21.2498L48.7425 21.6346C48.8502 21.6961 48.8876 21.8333 48.8261 21.941C48.7646 22.0487 48.6274 22.0861 48.5197 22.0246L47.846 21.6398C47.7383 21.5782 47.7009 21.4411 47.7624 21.3334ZM49.3382 22.2335C49.3997 22.1258 49.5369 22.0883 49.6446 22.1498L51.4374 23.1739C51.5451 23.2354 51.5825 23.3726 51.521 23.4803C51.4595 23.588 51.3223 23.6254 51.2146 23.5639L49.4218 22.5398C49.3141 22.4783 49.2767 22.3412 49.3382 22.2335ZM52.0293 23.7706C52.0908 23.6629 52.2279 23.6255 52.3356 23.687L52.5602 23.8153C52.6679 23.8768 52.7053 24.0139 52.6438 24.1216C52.5823 24.2293 52.4451 24.2668 52.3374 24.2053L52.1129 24.077C52.0052 24.0155 51.9677 23.8783 52.0293 23.7706ZM53.1521 24.412C53.2136 24.3043 53.3508 24.2668 53.4585 24.3284L55.9288 25.7394C56.0365 25.8009 56.0739 25.9381 56.0124 26.0458C55.9509 26.1535 55.8137 26.1909 55.706 26.1294L53.2357 24.7184C53.128 24.6568 53.0906 24.5197 53.1521 24.412ZM56.5207 26.3361C56.5822 26.2284 56.7194 26.191 56.8271 26.2525L58.3991 27.1504C58.5068 27.2119 58.5442 27.3491 58.4827 27.4568C58.4212 27.5645 58.284 27.6019 58.1763 27.5404L56.6043 26.6425C56.4966 26.581 56.4592 26.4438 56.5207 26.3361ZM58.991 27.7471C59.0525 27.6394 59.1897 27.602 59.2974 27.6635L60.9449 28.6046C61.0526 28.6661 61.0901 28.8033 61.0286 28.911C60.967 29.0187 60.8299 29.0561 60.7222 28.9946L59.0746 28.0535C58.9669 27.992 58.9295 27.8548 58.991 27.7471Z" fill="white"/>
</g>
<g filter="url(#filter3_d_11114_7617)">
<path fill-rule="evenodd" clip-rule="evenodd" d="M39.9024 19.5386C39.9639 19.4309 40.1011 19.3934 40.2088 19.455L41.3317 20.0963C41.4394 20.1578 41.4768 20.295 41.4153 20.4027C41.3538 20.5104 41.2166 20.5479 41.1089 20.4863L39.986 19.845C39.8783 19.7834 39.8409 19.6463 39.9024 19.5386ZM41.9236 20.693C41.9851 20.5854 42.1222 20.5479 42.2299 20.6094L45.1494 22.277C45.2571 22.3385 45.2945 22.4757 45.233 22.5834C45.1715 22.6911 45.0343 22.7285 44.9266 22.667L42.0072 20.9994C41.8995 20.9379 41.862 20.8007 41.9236 20.693ZM45.7413 22.8737C45.8028 22.766 45.94 22.7286 46.0477 22.7901L49.6446 24.8447C49.7523 24.9062 49.7897 25.0434 49.7282 25.1511C49.6667 25.2588 49.5295 25.2962 49.4218 25.2347L45.8249 23.1801C45.7172 23.1186 45.6797 22.9814 45.7413 22.8737ZM50.2327 25.4392C50.2942 25.3315 50.4314 25.2941 50.5391 25.3556L51.8865 26.1253C51.9942 26.1868 52.0316 26.3239 51.9701 26.4316C51.9086 26.5393 51.7714 26.5768 51.6637 26.5153L50.3163 25.7456C50.2086 25.6841 50.1712 25.5469 50.2327 25.4392ZM52.4835 26.7249C52.545 26.6172 52.6821 26.5797 52.7898 26.6412L56.3779 28.6907C56.4856 28.7523 56.5231 28.8894 56.4615 28.9971C56.4 29.1048 56.2629 29.1423 56.1552 29.0808L52.5671 27.0312C52.4594 26.9697 52.4219 26.8326 52.4835 26.7249ZM56.9698 29.2875C57.0313 29.1798 57.1685 29.1423 57.2762 29.2038L60.9449 31.2994C61.0526 31.3609 61.0901 31.4981 61.0286 31.6058C60.967 31.7135 60.8299 31.7509 60.7222 31.6894L57.0534 29.5939C56.9457 29.5323 56.9083 29.3952 56.9698 29.2875Z" fill="white"/>
</g>
<g filter="url(#filter4_d_11114_7617)">
<path fill-rule="evenodd" clip-rule="evenodd" d="M39.9024 27.623C39.9639 27.5154 40.1011 27.4779 40.2088 27.5394L41.3317 28.1808C41.4394 28.2423 41.4768 28.3795 41.4153 28.4872C41.3538 28.5949 41.2166 28.6323 41.1089 28.5708L39.986 27.9294C39.8783 27.8679 39.8409 27.7307 39.9024 27.623ZM45.7413 30.9582C45.8028 30.8505 45.94 30.8131 46.0477 30.8746L49.6446 32.9291C49.7523 32.9907 49.7897 33.1278 49.7282 33.2355C49.6667 33.3432 49.5295 33.3807 49.4218 33.3191L45.8249 31.2646C45.7172 31.2031 45.6798 31.0659 45.7413 30.9582ZM50.2327 33.5237C50.2942 33.416 50.4314 33.3786 50.5391 33.4401L51.8865 34.2097C51.9942 34.2712 52.0316 34.4084 51.9701 34.5161C51.9086 34.6238 51.7714 34.6612 51.6637 34.5997L50.3163 33.8301C50.2086 33.7686 50.1712 33.6314 50.2327 33.5237ZM52.4835 34.8093C52.545 34.7016 52.6822 34.6642 52.7898 34.7257L55.4796 36.2621C55.5873 36.3236 55.6248 36.4608 55.5633 36.5685C55.5017 36.6762 55.3646 36.7136 55.2569 36.6521L52.5671 35.1157C52.4594 35.0542 52.4219 34.917 52.4835 34.8093ZM56.0715 36.8588C56.1331 36.7511 56.2702 36.7137 56.3779 36.7752L57.2762 37.2883C57.3839 37.3498 57.4213 37.487 57.3598 37.5947C57.2983 37.7024 57.1611 37.7398 57.0534 37.6783L56.1552 37.1652C56.0475 37.1037 56.01 36.9665 56.0715 36.8588ZM57.8681 37.885C57.9296 37.7773 58.0668 37.7399 58.1745 37.8014L60.9449 39.3839C61.0526 39.4454 61.0901 39.5826 61.0286 39.6903C60.9671 39.798 60.8299 39.8354 60.7222 39.7739L57.9517 38.1914C57.844 38.1299 57.8066 37.9927 57.8681 37.885Z" fill="white"/>
</g>
<g filter="url(#filter5_d_11114_7617)">
<path fill-rule="evenodd" clip-rule="evenodd" d="M39.9024 22.2334C39.9639 22.1257 40.1011 22.0883 40.2088 22.1498L40.4334 22.2781C40.5411 22.3396 40.5785 22.4767 40.517 22.5844C40.4555 22.6921 40.3183 22.7296 40.2106 22.6681L39.986 22.5398C39.8783 22.4783 39.8409 22.3411 39.9024 22.2334ZM41.0253 22.8748C41.0868 22.7671 41.224 22.7296 41.3317 22.7912L43.8019 24.2022C43.9096 24.2637 43.9471 24.4009 43.8856 24.5086C43.824 24.6163 43.6869 24.6537 43.5792 24.5922L41.1089 23.1812C41.0012 23.1196 40.9638 22.9825 41.0253 22.8748ZM44.3938 24.7989C44.4554 24.6912 44.5925 24.6538 44.7002 24.7153L47.8442 26.5111C47.9519 26.5726 47.9894 26.7098 47.9278 26.8175C47.8663 26.9252 47.7291 26.9626 47.6215 26.9011L44.4775 25.1053C44.3698 25.0438 44.3323 24.9066 44.3938 24.7989ZM54.7241 30.6995C54.7856 30.5918 54.9228 30.5544 55.0305 30.6159L57.5077 32.0309C57.6154 32.0924 57.6529 32.2296 57.5914 32.3373C57.5298 32.445 57.3927 32.4824 57.285 32.4209L54.8077 31.0059C54.7 30.9444 54.6626 30.8072 54.7241 30.6995ZM58.0927 32.6237C58.1542 32.516 58.2914 32.4785 58.3991 32.54L60.9449 33.9942C61.0526 34.0558 61.0901 34.1929 61.0286 34.3006C60.967 34.4083 60.8299 34.4458 60.7222 34.3843L58.1763 32.93C58.0686 32.8685 58.0312 32.7314 58.0927 32.6237Z" fill="white"/>
</g>
<g filter="url(#filter6_d_11114_7617)">
<path fill-rule="evenodd" clip-rule="evenodd" d="M39.9024 24.9282C39.9639 24.8205 40.1011 24.7831 40.2088 24.8446L40.8825 25.2294C40.9902 25.2909 41.0276 25.4281 40.9661 25.5358C40.9046 25.6435 40.7674 25.681 40.6597 25.6194L39.986 25.2346C39.8783 25.1731 39.8409 25.0359 39.9024 24.9282ZM45.9658 28.3916C46.0274 28.2839 46.1645 28.2465 46.2722 28.308L48.072 29.336C48.1797 29.3975 48.2171 29.5347 48.1556 29.6424C48.0941 29.7501 47.9569 29.7876 47.8492 29.726L46.0495 28.698C45.9418 28.6365 45.9043 28.4993 45.9658 28.3916ZM48.6607 29.9309C48.7222 29.8232 48.8594 29.7858 48.9671 29.8473L53.0094 32.1563C53.1171 32.2178 53.1545 32.355 53.093 32.4627C53.0315 32.5704 52.8943 32.6078 52.7866 32.5463L48.7443 30.2373C48.6366 30.1758 48.5992 30.0386 48.6607 29.9309ZM55.1733 33.6509C55.2348 33.5432 55.3719 33.5058 55.4796 33.5673L59.2974 35.748C59.4051 35.8095 59.4425 35.9467 59.381 36.0544C59.3195 36.1621 59.1823 36.1995 59.0746 36.138L55.2569 33.9573C55.1492 33.8958 55.1117 33.7586 55.1733 33.6509ZM59.8893 36.3447C59.9508 36.237 60.0879 36.1996 60.1956 36.2611L60.9449 36.6891C61.0526 36.7506 61.0901 36.8878 61.0286 36.9955C60.9671 37.1032 60.8299 37.1406 60.7222 37.0791L59.9729 36.6511C59.8652 36.5896 59.8277 36.4524 59.8893 36.3447Z" fill="white"/>
</g>
<path fill-rule="evenodd" clip-rule="evenodd" d="M39.9024 30.3179C39.9639 30.2102 40.1011 30.1727 40.2088 30.2343L40.8825 30.6191C40.9902 30.6806 41.0276 30.8178 40.9661 30.9255C40.9046 31.0332 40.7674 31.0706 40.6597 31.0091L39.986 30.6243C39.8783 30.5627 39.8409 30.4256 39.9024 30.3179ZM43.0477 32.1144C43.1092 32.0067 43.2464 31.9693 43.3541 32.0308L44.0265 32.4149C44.1342 32.4764 44.1716 32.6136 44.1101 32.7213C44.0486 32.829 43.9114 32.8664 43.8037 32.8049L43.1313 32.4208C43.0236 32.3593 42.9862 32.2221 43.0477 32.1144ZM47.3133 34.5509C47.3748 34.4432 47.512 34.4058 47.6197 34.4673L50.0899 35.8783C50.1976 35.9399 50.2351 36.077 50.1736 36.1847C50.112 36.2924 49.9749 36.3299 49.8672 36.2684L47.3969 34.8573C47.2892 34.7958 47.2517 34.6586 47.3133 34.5509ZM50.6818 36.4751C50.7433 36.3674 50.8805 36.3299 50.9882 36.3914L53.2339 37.6742C53.3416 37.7357 53.3791 37.8729 53.3175 37.9806C53.256 38.0883 53.1189 38.1257 53.0112 38.0642L50.7654 36.7815C50.6578 36.7199 50.6203 36.5828 50.6818 36.4751ZM53.8258 38.2709C53.8873 38.1632 54.0245 38.1258 54.1322 38.1873L54.8059 38.5721C54.9136 38.6336 54.9511 38.7708 54.8895 38.8785C54.828 38.9862 54.6909 39.0236 54.5832 38.9621L53.9094 38.5773C53.8018 38.5158 53.7643 38.3786 53.8258 38.2709ZM55.3978 39.1688C55.4593 39.0611 55.5965 39.0237 55.7042 39.0852L56.3779 39.47C56.4856 39.5316 56.5231 39.6687 56.4615 39.7764C56.4 39.8841 56.2629 39.9216 56.1552 39.86L55.4814 39.4752C55.3737 39.4137 55.3363 39.2765 55.3978 39.1688ZM56.9698 40.0668C57.0313 39.9591 57.1685 39.9216 57.2762 39.9831L60.9449 42.0787C61.0526 42.1402 61.0901 42.2774 61.0286 42.3851C60.9671 42.4928 60.8299 42.5302 60.7222 42.4687L57.0534 40.3731C56.9457 40.3116 56.9083 40.1745 56.9698 40.0668Z" fill="white"/>
</g>
<g filter="url(#filter7_d_11114_7617)">
<g filter="url(#filter8_d_11114_7617)">
<path fill-rule="evenodd" clip-rule="evenodd" d="M41.4747 25.8267C41.5362 25.719 41.6734 25.6815 41.7811 25.743L43.1578 26.5294C43.2654 26.5909 43.3029 26.7281 43.2414 26.8358C43.1799 26.9435 43.0427 26.9809 42.935 26.9194L41.5583 26.133C41.4506 26.0715 41.4132 25.9344 41.4747 25.8267Z" fill="#FFC1FF"/>
</g>
<g filter="url(#filter9_d_11114_7617)">
<path fill-rule="evenodd" clip-rule="evenodd" d="M41.4747 31.2163C41.5362 31.1086 41.6734 31.0712 41.7811 31.1327L42.4548 31.5175C42.5625 31.579 42.5999 31.7162 42.5384 31.8239C42.4769 31.9316 42.3397 31.969 42.232 31.9075L41.5583 31.5227C41.4506 31.4612 41.4132 31.324 41.4747 31.2163ZM44.6206 33.0132C44.6821 32.9055 44.8193 32.8681 44.927 32.9296L46.7216 33.9547C46.8293 34.0163 46.8668 34.1534 46.8053 34.2611C46.7437 34.3688 46.6066 34.4063 46.4989 34.3447L44.7042 33.3196C44.5965 33.2581 44.5591 33.1209 44.6206 33.0132Z" fill="#FFC1FF"/>
</g>
<g filter="url(#filter10_d_11114_7617)">
<path fill-rule="evenodd" clip-rule="evenodd" d="M50.4571 28.2627C50.5186 28.155 50.6558 28.1176 50.7635 28.1791L54.1321 30.1032C54.2398 30.1647 54.2772 30.3019 54.2157 30.4096C54.1542 30.5173 54.017 30.5547 53.9093 30.4932L50.5407 28.5691C50.433 28.5076 50.3956 28.3704 50.4571 28.2627Z" fill="#FFC1FF"/>
</g>
<g filter="url(#filter11_d_11114_7617)">
<path fill-rule="evenodd" clip-rule="evenodd" d="M53.6007 32.7534C53.6622 32.6457 53.7993 32.6083 53.907 32.6698L54.5808 33.0546C54.6885 33.1161 54.7259 33.2533 54.6644 33.361C54.6029 33.4687 54.4657 33.5061 54.358 33.4446L53.6843 33.0598C53.5766 32.9983 53.5391 32.8611 53.6007 32.7534Z" fill="#FFC1FF"/>
</g>
<g filter="url(#filter12_d_11114_7617)">
<path fill-rule="evenodd" clip-rule="evenodd" d="M41.0255 17.4854C41.087 17.3777 41.2242 17.3402 41.3318 17.4017L44.0267 18.941C44.1344 19.0026 44.1718 19.1397 44.1103 19.2474C44.0488 19.3551 43.9116 19.3926 43.8039 19.331L41.1091 17.7917C41.0014 17.7302 40.9639 17.5931 41.0255 17.4854Z" fill="#FFC1FF"/>
</g>
<g filter="url(#filter13_d_11114_7617)">
<path fill-rule="evenodd" clip-rule="evenodd" d="M41.9229 28.7778C41.9844 28.6701 42.1216 28.6327 42.2293 28.6942L45.1487 30.3618C45.2564 30.4233 45.2939 30.5605 45.2324 30.6682C45.1708 30.7759 45.0337 30.8133 44.926 30.7518L42.0065 29.0842C41.8988 29.0227 41.8614 28.8855 41.9229 28.7778Z" fill="#FFC1FF"/>
</g>
</g>
<path d="M36.7285 11.5499C36.7285 10.01 38.3957 9.04776 39.7291 9.81813L42.4662 11.3996C43.0847 11.7569 43.4657 12.417 43.4657 13.1313V13.6019C43.4657 15.1418 41.7984 16.104 40.4651 15.3337L37.728 13.7522C37.1095 13.3949 36.7285 12.7348 36.7285 12.0205V11.5499Z" fill="#00FDFE" fill-opacity="0.8"/>
<path d="M39.7827 12.5417L38.5255 12.4051L38.4832 11.9127L39.3958 12.0519L38.616 11.0671L38.7863 10.7156L39.8568 12.112L39.7827 12.5417Z" fill="white"/>
<path d="M40.1816 12.9126L41.7536 13.8176V14.2398L40.1816 13.3325V12.9126Z" fill="white"/>
</g>
<defs>
<filter id="filter0_d_11114_7617" x="0.809922" y="31.7718" width="68.7163" height="41.5957" filterUnits="userSpaceOnUse" color-interpolation-filters="sRGB">
<feFlood flood-opacity="0" result="BackgroundImageFix"/>
<feColorMatrix in="SourceAlpha" type="matrix" values="0 0 0 0 0 0 0 0 0 0 0 0 0 0 0 0 0 0 127 0" result="hardAlpha"/>
<feOffset dx="0.13" dy="0.13"/>
<feGaussianBlur stdDeviation="0.62"/>
<feColorMatrix type="matrix" values="0 0 0 0 0 0 0 0 0 0 0 0 0 0 0 0 0 0 0.2 0"/>
<feBlend mode="normal" in2="BackgroundImageFix" result="effect1_dropShadow_11114_7617"/>
<feBlend mode="normal" in="SourceGraphic" in2="effect1_dropShadow_11114_7617" result="shape"/>
</filter>
<filter id="filter1_d_11114_7617" x="35.873" y="12.7305" width="29.1855" height="33.7681" filterUnits="userSpaceOnUse" color-interpolation-filters="sRGB">
<feFlood flood-opacity="0" result="BackgroundImageFix"/>
<feColorMatrix in="SourceAlpha" type="matrix" values="0 0 0 0 0 0 0 0 0 0 0 0 0 0 0 0 0 0 127 0" result="hardAlpha"/>
<feOffset/>
<feGaussianBlur stdDeviation="2"/>
<feComposite in2="hardAlpha" operator="out"/>
<feColorMatrix type="matrix" values="0 0 0 0 1 0 0 0 0 1 0 0 0 0 1 0 0 0 0.6 0"/>
<feBlend mode="normal" in2="BackgroundImageFix" result="effect1_dropShadow_11114_7617"/>
<feBlend mode="normal" in="SourceGraphic" in2="effect1_dropShadow_11114_7617" result="shape"/>
</filter>
<filter id="filter2_d_11114_7617" x="34.873" y="6.73047" width="41.1855" height="32.2939" filterUnits="userSpaceOnUse" color-interpolation-filters="sRGB">
<feFlood flood-opacity="0" result="BackgroundImageFix"/>
<feColorMatrix in="SourceAlpha" type="matrix" values="0 0 0 0 0 0 0 0 0 0 0 0 0 0 0 0 0 0 127 0" result="hardAlpha"/>
<feOffset dx="5"/>
<feGaussianBlur stdDeviation="5"/>
<feComposite in2="hardAlpha" operator="out"/>
<feColorMatrix type="matrix" values="0 0 0 0 1 0 0 0 0 1 0 0 0 0 1 0 0 0 0.25 0"/>
<feBlend mode="normal" in2="BackgroundImageFix" result="effect1_dropShadow_11114_7617"/>
<feBlend mode="normal" in="SourceGraphic" in2="effect1_dropShadow_11114_7617" result="shape"/>
</filter>
<filter id="filter3_d_11114_7617" x="34.873" y="9.42529" width="41.1855" height="32.2939" filterUnits="userSpaceOnUse" color-interpolation-filters="sRGB">
<feFlood flood-opacity="0" result="BackgroundImageFix"/>
<feColorMatrix in="SourceAlpha" type="matrix" values="0 0 0 0 0 0 0 0 0 0 0 0 0 0 0 0 0 0 127 0" result="hardAlpha"/>
<feOffset dx="5"/>
<feGaussianBlur stdDeviation="5"/>
<feComposite in2="hardAlpha" operator="out"/>
<feColorMatrix type="matrix" values="0 0 0 0 1 0 0 0 0 1 0 0 0 0 1 0 0 0 0.25 0"/>
<feBlend mode="normal" in2="BackgroundImageFix" result="effect1_dropShadow_11114_7617"/>
<feBlend mode="normal" in="SourceGraphic" in2="effect1_dropShadow_11114_7617" result="shape"/>
</filter>
<filter id="filter4_d_11114_7617" x="34.873" y="17.5098" width="41.1855" height="32.2939" filterUnits="userSpaceOnUse" color-interpolation-filters="sRGB">
<feFlood flood-opacity="0" result="BackgroundImageFix"/>
<feColorMatrix in="SourceAlpha" type="matrix" values="0 0 0 0 0 0 0 0 0 0 0 0 0 0 0 0 0 0 127 0" result="hardAlpha"/>
<feOffset dx="5"/>
<feGaussianBlur stdDeviation="5"/>
<feComposite in2="hardAlpha" operator="out"/>
<feColorMatrix type="matrix" values="0 0 0 0 1 0 0 0 0 1 0 0 0 0 1 0 0 0 0.25 0"/>
<feBlend mode="normal" in2="BackgroundImageFix" result="effect1_dropShadow_11114_7617"/>
<feBlend mode="normal" in="SourceGraphic" in2="effect1_dropShadow_11114_7617" result="shape"/>
</filter>
<filter id="filter5_d_11114_7617" x="34.873" y="12.1201" width="41.1855" height="32.2939" filterUnits="userSpaceOnUse" color-interpolation-filters="sRGB">
<feFlood flood-opacity="0" result="BackgroundImageFix"/>
<feColorMatrix in="SourceAlpha" type="matrix" values="0 0 0 0 0 0 0 0 0 0 0 0 0 0 0 0 0 0 127 0" result="hardAlpha"/>
<feOffset dx="5"/>
<feGaussianBlur stdDeviation="5"/>
<feComposite in2="hardAlpha" operator="out"/>
<feColorMatrix type="matrix" values="0 0 0 0 1 0 0 0 0 1 0 0 0 0 1 0 0 0 0.25 0"/>
<feBlend mode="normal" in2="BackgroundImageFix" result="effect1_dropShadow_11114_7617"/>
<feBlend mode="normal" in="SourceGraphic" in2="effect1_dropShadow_11114_7617" result="shape"/>
</filter>
<filter id="filter6_d_11114_7617" x="34.873" y="14.8149" width="41.1855" height="32.2939" filterUnits="userSpaceOnUse" color-interpolation-filters="sRGB">
<feFlood flood-opacity="0" result="BackgroundImageFix"/>
<feColorMatrix in="SourceAlpha" type="matrix" values="0 0 0 0 0 0 0 0 0 0 0 0 0 0 0 0 0 0 127 0" result="hardAlpha"/>
<feOffset dx="5"/>
<feGaussianBlur stdDeviation="5"/>
<feComposite in2="hardAlpha" operator="out"/>
<feColorMatrix type="matrix" values="0 0 0 0 1 0 0 0 0 1 0 0 0 0 1 0 0 0 0.25 0"/>
<feBlend mode="normal" in2="BackgroundImageFix" result="effect1_dropShadow_11114_7617"/>
<feBlend mode="normal" in="SourceGraphic" in2="effect1_dropShadow_11114_7617" result="shape"/>
</filter>
<filter id="filter7_d_11114_7617" x="36.9961" y="13.3721" width="21.6982" height="25.0024" filterUnits="userSpaceOnUse" color-interpolation-filters="sRGB">
<feFlood flood-opacity="0" result="BackgroundImageFix"/>
<feColorMatrix in="SourceAlpha" type="matrix" values="0 0 0 0 0 0 0 0 0 0 0 0 0 0 0 0 0 0 127 0" result="hardAlpha"/>
<feOffset/>
<feGaussianBlur stdDeviation="2"/>
<feComposite in2="hardAlpha" operator="out"/>
<feColorMatrix type="matrix" values="0 0 0 0 1 0 0 0 0 0.756863 0 0 0 0 1 0 0 0 0.6 0"/>
<feBlend mode="normal" in2="BackgroundImageFix" result="effect1_dropShadow_11114_7617"/>
<feBlend mode="normal" in="SourceGraphic" in2="effect1_dropShadow_11114_7617" result="shape"/>
</filter>
<filter id="filter8_d_11114_7617" x="36.4453" y="15.7134" width="21.8252" height="21.2358" filterUnits="userSpaceOnUse" color-interpolation-filters="sRGB">
<feFlood flood-opacity="0" result="BackgroundImageFix"/>
<feColorMatrix in="SourceAlpha" type="matrix" values="0 0 0 0 0 0 0 0 0 0 0 0 0 0 0 0 0 0 127 0" result="hardAlpha"/>
<feOffset dx="5"/>
<feGaussianBlur stdDeviation="5"/>
<feComposite in2="hardAlpha" operator="out"/>
<feColorMatrix type="matrix" values="0 0 0 0 1 0 0 0 0 1 0 0 0 0 1 0 0 0 0.25 0"/>
<feBlend mode="normal" in2="BackgroundImageFix" result="effect1_dropShadow_11114_7617"/>
<feBlend mode="normal" in="SourceGraphic" in2="effect1_dropShadow_11114_7617" result="shape"/>
</filter>
<filter id="filter9_d_11114_7617" x="36.4453" y="21.103" width="25.3896" height="23.2715" filterUnits="userSpaceOnUse" color-interpolation-filters="sRGB">
<feFlood flood-opacity="0" result="BackgroundImageFix"/>
<feColorMatrix in="SourceAlpha" type="matrix" values="0 0 0 0 0 0 0 0 0 0 0 0 0 0 0 0 0 0 127 0" result="hardAlpha"/>
<feOffset dx="5"/>
<feGaussianBlur stdDeviation="5"/>
<feComposite in2="hardAlpha" operator="out"/>
<feColorMatrix type="matrix" values="0 0 0 0 1 0 0 0 0 1 0 0 0 0 1 0 0 0 0.25 0"/>
<feBlend mode="normal" in2="BackgroundImageFix" result="effect1_dropShadow_11114_7617"/>
<feBlend mode="normal" in="SourceGraphic" in2="effect1_dropShadow_11114_7617" result="shape"/>
</filter>
<filter id="filter10_d_11114_7617" x="45.4277" y="18.1494" width="23.8174" height="22.3735" filterUnits="userSpaceOnUse" color-interpolation-filters="sRGB">
<feFlood flood-opacity="0" result="BackgroundImageFix"/>
<feColorMatrix in="SourceAlpha" type="matrix" values="0 0 0 0 0 0 0 0 0 0 0 0 0 0 0 0 0 0 127 0" result="hardAlpha"/>
<feOffset dx="5"/>
<feGaussianBlur stdDeviation="5"/>
<feComposite in2="hardAlpha" operator="out"/>
<feColorMatrix type="matrix" values="0 0 0 0 1 0 0 0 0 1 0 0 0 0 1 0 0 0 0.25 0"/>
<feBlend mode="normal" in2="BackgroundImageFix" result="effect1_dropShadow_11114_7617"/>
<feBlend mode="normal" in="SourceGraphic" in2="effect1_dropShadow_11114_7617" result="shape"/>
</filter>
<filter id="filter11_d_11114_7617" x="48.5713" y="22.6401" width="21.123" height="20.834" filterUnits="userSpaceOnUse" color-interpolation-filters="sRGB">
<feFlood flood-opacity="0" result="BackgroundImageFix"/>
<feColorMatrix in="SourceAlpha" type="matrix" values="0 0 0 0 0 0 0 0 0 0 0 0 0 0 0 0 0 0 127 0" result="hardAlpha"/>
<feOffset dx="5"/>
<feGaussianBlur stdDeviation="5"/>
<feComposite in2="hardAlpha" operator="out"/>
<feColorMatrix type="matrix" values="0 0 0 0 1 0 0 0 0 1 0 0 0 0 1 0 0 0 0.25 0"/>
<feBlend mode="normal" in2="BackgroundImageFix" result="effect1_dropShadow_11114_7617"/>
<feBlend mode="normal" in="SourceGraphic" in2="effect1_dropShadow_11114_7617" result="shape"/>
</filter>
<filter id="filter12_d_11114_7617" x="35.9961" y="7.37207" width="23.1436" height="21.9888" filterUnits="userSpaceOnUse" color-interpolation-filters="sRGB">
<feFlood flood-opacity="0" result="BackgroundImageFix"/>
<feColorMatrix in="SourceAlpha" type="matrix" values="0 0 0 0 0 0 0 0 0 0 0 0 0 0 0 0 0 0 127 0" result="hardAlpha"/>
<feOffset dx="5"/>
<feGaussianBlur stdDeviation="5"/>
<feComposite in2="hardAlpha" operator="out"/>
<feColorMatrix type="matrix" values="0 0 0 0 1 0 0 0 0 1 0 0 0 0 1 0 0 0 0.25 0"/>
<feBlend mode="normal" in2="BackgroundImageFix" result="effect1_dropShadow_11114_7617"/>
<feBlend mode="normal" in="SourceGraphic" in2="effect1_dropShadow_11114_7617" result="shape"/>
</filter>
<filter id="filter13_d_11114_7617" x="36.8936" y="18.6646" width="23.3682" height="22.1167" filterUnits="userSpaceOnUse" color-interpolation-filters="sRGB">
<feFlood flood-opacity="0" result="BackgroundImageFix"/>
<feColorMatrix in="SourceAlpha" type="matrix" values="0 0 0 0 0 0 0 0 0 0 0 0 0 0 0 0 0 0 127 0" result="hardAlpha"/>
<feOffset dx="5"/>
<feGaussianBlur stdDeviation="5"/>
<feComposite in2="hardAlpha" operator="out"/>
<feColorMatrix type="matrix" values="0 0 0 0 1 0 0 0 0 1 0 0 0 0 1 0 0 0 0.25 0"/>
<feBlend mode="normal" in2="BackgroundImageFix" result="effect1_dropShadow_11114_7617"/>
<feBlend mode="normal" in="SourceGraphic" in2="effect1_dropShadow_11114_7617" result="shape"/>
</filter>
<linearGradient id="paint0_linear_11114_7617" x1="34.2043" y1="34.006" x2="25.9477" y2="34.4646" gradientUnits="userSpaceOnUse">
<stop offset="0.4" stop-color="white" stop-opacity="0"/>
<stop offset="0.76" stop-color="white" stop-opacity="0.05"/>
<stop offset="0.85" stop-color="white" stop-opacity="0.26"/>
<stop offset="0.95" stop-color="white" stop-opacity="0.5"/>
<stop offset="1" stop-color="white" stop-opacity="0.6"/>
</linearGradient>
<linearGradient id="paint1_linear_11114_7617" x1="70.5632" y1="56.1512" x2="60.6746" y2="53.5917" gradientUnits="userSpaceOnUse">
<stop offset="0.4" stop-color="white" stop-opacity="0"/>
<stop offset="0.76" stop-color="white" stop-opacity="0.05"/>
<stop offset="0.85" stop-color="white" stop-opacity="0.26"/>
<stop offset="0.95" stop-color="white" stop-opacity="0.5"/>
<stop offset="1" stop-color="white" stop-opacity="0.6"/>
</linearGradient>
<linearGradient id="paint2_linear_11114_7617" x1="-5.28697" y1="-18.4177" x2="65.1873" y2="75.2095" gradientUnits="userSpaceOnUse">
<stop offset="0.25" stop-color="#387E8D" stop-opacity="0"/>
<stop offset="0.75" stop-color="#387E8D" stop-opacity="0.04"/>
<stop offset="0.91" stop-color="#387E8D" stop-opacity="0.43"/>
<stop offset="1" stop-color="#387E8D" stop-opacity="0.6"/>
</linearGradient>
<linearGradient id="paint3_linear_11114_7617" x1="58.708" y1="15.0995" x2="31.8316" y2="50.6762" gradientUnits="userSpaceOnUse">
<stop offset="0.51" stop-color="white" stop-opacity="0"/>
<stop offset="0.82" stop-color="white" stop-opacity="0.1"/>
<stop offset="0.87" stop-color="white" stop-opacity="0.26"/>
<stop offset="0.96" stop-color="white" stop-opacity="0.5"/>
<stop offset="1" stop-color="white" stop-opacity="0.6"/>
</linearGradient>
<clipPath id="clip0_11114_7617">
<rect width="72" height="72" fill="white"/>
</clipPath>
</defs>
</svg>
