<svg xmlns="http://www.w3.org/2000/svg" width="72" height="72" fill="none" viewBox="0 0 72 72"><path fill="#00d586" d="M10.417 18.192A5.21 5.21 0 0 1 0 18.118c0-2.767 2.331-5.024 5.319-5.024a5.16 5.16 0 0 1 5.098 5.098M9.313 61.47H1.009V29.19h8.304zm39.095-8.201a18.725 18.725 0 0 1-23.006-7.795 18.723 18.723 0 1 1 31.985.273l5.506 5.507A26.307 26.307 0 0 0 41.58 9.652 26.306 26.306 0 1 0 54.145 59.02z"/><path fill="#00d586" d="M63.094 50.918a26.4 26.4 0 0 1-8.888 8.054l9.39 9.39L72 59.824z"/></svg>