<svg width="72" height="72" viewBox="0 0 72 72" fill="none" xmlns="http://www.w3.org/2000/svg">
<path d="M10.4169 18.1919C10.407 19.5732 9.84907 20.8941 8.86537 21.864C7.88183 22.8338 6.55312 23.3732 5.1718 23.3635C3.79049 23.3538 2.46956 22.7957 1.49968 21.812C0.529808 20.8284 -0.00956555 19.4998 0.000128445 18.1184C0.000128445 15.3514 2.3313 13.0938 5.31864 13.0938C6.66563 13.1103 7.95286 13.6527 8.90542 14.6052C9.85797 15.5577 10.4004 16.8449 10.4169 18.1919ZM9.31257 61.4698H1.0091V29.1913H9.31257V61.4698Z" fill="#00D586"/>
<path d="M48.4078 53.269C44.2712 54.9166 39.6848 55.0371 35.4687 53.6086C31.2527 52.1801 27.6837 49.2962 25.4018 45.474C23.1199 41.6521 22.2743 37.142 23.0169 32.7528C23.7595 28.3638 26.0416 24.3829 29.4537 21.5243C32.8657 18.6657 37.1851 17.1164 41.6363 17.1543C46.0876 17.1922 50.38 18.8149 53.7427 21.7313C57.1054 24.6476 59.3207 28.6669 59.9882 33.0679C60.6556 37.469 59.7339 41.964 57.3867 45.7466L62.8932 51.2537C66.6548 45.9923 68.3441 39.5299 67.6417 33.101C66.9393 26.672 63.8944 20.7271 59.0871 16.4015C54.2783 12.076 48.0455 9.67298 41.5791 9.65151C35.1112 9.63004 28.8641 11.9916 24.0273 16.2851C19.1909 20.5786 16.1057 26.5032 15.3607 32.9275C14.6158 39.3516 16.2633 45.8249 19.9888 51.1113C23.7142 56.3976 29.2566 60.1264 35.5562 61.5855C41.8573 63.0445 48.4746 62.1315 54.1448 59.021L48.4078 53.269Z" fill="#00D586"/>
<path d="M63.0943 50.918C60.7884 54.2479 57.7467 57.0033 54.2061 58.9716L63.5965 68.3624L72.0001 59.8239L63.0943 50.918Z" fill="#00D586"/>
</svg>
