<svg xmlns="http://www.w3.org/2000/svg" width="72" height="72" fill="none" viewBox="0 0 72 72"><g clip-path="url(#a)"><path fill="#2db66f" d="M72 36.004c0 19.38-16.068 35.203-35.939 35.203S0 55.384 0 36.004 16.19.801 36.061.801 72 16.624 72 36.004"/><path fill="#58595b" d="M51.761 22.512H33.117v25.145h18.644z"/><path fill="#fff" d="M40.11 46.92h-4.661V24.597h4.66c4.784 0 6.992 1.962 8.219 3.68 1.349 2.207 2.085 4.906 2.085 7.481 0 5.765-2.33 11.04-10.303 11.162m17.172-23.918c-5.52-7.482-13.86-7.482-18.644-7.482h-13.86v39.618c3.188.614 6.378.123 9.69.123.245 0 .367.123.49.245.245 0 .613.246.613.491h3.925c15.946 0 21.71-9.322 21.71-20.361.123-4.539-1.226-8.954-3.924-12.634"/><path fill="#58595b" d="M14.474 15.52H24.9v31.278l10.548.122v8.954H14.474z"/></g><defs><clipPath id="a"><path fill="#fff" d="M0 .001h72v72H0z"/></clipPath></defs></svg>