<svg xmlns="http://www.w3.org/2000/svg" width="72" height="72" fill="none" viewBox="0 0 72 72"><g clip-path="url(#a)"><path fill="#c3c6cc" d="M71.32 68.21 57.768 54.652a2.29 2.29 0 0 0-3.206 0L41.007 68.21A2.2 2.2 0 0 0 42.609 72h27.11a2.21 2.21 0 0 0 1.602-3.79"/><path fill="#e1e3e6" d="M71.772 19.52 67.526 6.918a4.4 4.4 0 0 0-.897-1.544L.516 71.483c.388.348.894.532 1.415.516h18.778a4 4 0 0 0 2.83-1.16l47.333-47.331a3.8 3.8 0 0 0 .9-3.987"/><path fill="#c3c6cc" d="M65.084 4.47 52.479.228a3.8 3.8 0 0 0-3.987.9L1.158 48.46A4 4 0 0 0 0 51.29v18.779c-.017.52.168 1.027.515 1.415L66.63 5.373a4.5 4.5 0 0 0-1.545-.902"/></g><defs><clipPath id="a"><path fill="#fff" d="M0 0h72v72H0z"/></clipPath></defs></svg>