<svg xmlns="http://www.w3.org/2000/svg" width="72" height="72" fill="none" viewBox="0 0 72 72"><g clip-path="url(#a)"><path fill="#fff" d="M66.6.001H5.4a5.4 5.4 0 0 0-5.4 5.4v61.2a5.4 5.4 0 0 0 5.4 5.4h61.2a5.4 5.4 0 0 0 5.4-5.4v-61.2a5.4 5.4 0 0 0-5.4-5.4m-45 61.2H10.8v-32.4h10.8zm-5.4-38.7a6.3 6.3 0 1 1 6.48-6.3 6.41 6.41 0 0 1-6.48 6.3m45 38.7H50.4V44.139c0-5.112-2.16-6.948-4.968-6.948a6.263 6.263 0 0 0-5.832 6.696 2.4 2.4 0 0 0 0 .503v16.813H28.8v-32.4h10.44v4.68a11.2 11.2 0 0 1 9.72-5.04c5.58 0 12.096 3.096 12.096 13.176z"/></g><defs><clipPath id="a"><path fill="#fff" d="M0 .001h72v72H0z"/></clipPath></defs></svg>