<svg xmlns="http://www.w3.org/2000/svg" width="72" height="72" fill="none" viewBox="0 0 72 72"><mask id="mask0_25888_40695" width="71" height="72" x="0" y="0" maskUnits="userSpaceOnUse" style="mask-type:alpha"><path fill="url(#paint0_linear_25888_40695)" fill-rule="evenodd" d="M21.245 0C32.98 0 42.491 9.537 42.491 21.302v8.095h7.07c11.734 0 21.246 9.537 21.246 21.302S61.295 72 49.562 72H0V21.302C0 9.537 9.511 0 21.245 0" clip-rule="evenodd"/></mask><g mask="url(#mask0_25888_40695)"><g filter="url(#filter0_f_25888_40695)"><path fill="#4b73ff" d="M31.06 86.362c26.472 0 47.931-21.459 47.931-47.93 0-26.472-21.46-47.931-47.93-47.931-26.472 0-47.931 21.46-47.931 47.93 0 26.472 21.459 47.931 47.93 47.931"/></g><g filter="url(#filter1_f_25888_40695)"><path fill="#ff66f4" d="M36.326 60.06c33.902 0 61.386-21.459 61.386-47.93S70.228-35.8 36.326-35.8-25.06-14.343-25.06 12.13c0 26.471 27.483 47.93 61.386 47.93"/></g><g filter="url(#filter2_f_25888_40695)"><path fill="#ff0105" d="M46.34 45.203c26.471 0 47.93-18.846 47.93-42.094 0-23.247-21.459-42.093-47.93-42.093-26.472 0-47.93 18.846-47.93 42.093s21.458 42.094 47.93 42.094"/></g><g filter="url(#filter3_f_25888_40695)"><path fill="#fe7b02" d="M37.18 40.944c15.92 0 28.825-12.906 28.825-28.826S53.099-16.707 37.179-16.707 8.354-3.801 8.354 12.118c0 15.92 12.906 28.826 28.825 28.826"/></g></g><defs><filter id="filter0_f_25888_40695" width="170.661" height="170.661" x="-54.27" y="-46.899" color-interpolation-filters="sRGB" filterUnits="userSpaceOnUse"><feFlood flood-opacity="0" result="BackgroundImageFix"/><feBlend in="SourceGraphic" in2="BackgroundImageFix" result="shape"/><feGaussianBlur result="effect1_foregroundBlur_25888_40695" stdDeviation="18.7"/></filter><filter id="filter1_f_25888_40695" width="197.572" height="170.661" x="-62.46" y="-73.201" color-interpolation-filters="sRGB" filterUnits="userSpaceOnUse"><feFlood flood-opacity="0" result="BackgroundImageFix"/><feBlend in="SourceGraphic" in2="BackgroundImageFix" result="shape"/><feGaussianBlur result="effect1_foregroundBlur_25888_40695" stdDeviation="18.7"/></filter><filter id="filter2_f_25888_40695" width="170.661" height="158.988" x="-38.991" y="-76.384" color-interpolation-filters="sRGB" filterUnits="userSpaceOnUse"><feFlood flood-opacity="0" result="BackgroundImageFix"/><feBlend in="SourceGraphic" in2="BackgroundImageFix" result="shape"/><feGaussianBlur result="effect1_foregroundBlur_25888_40695" stdDeviation="18.7"/></filter><filter id="filter3_f_25888_40695" width="132.451" height="132.451" x="-29.046" y="-54.107" color-interpolation-filters="sRGB" filterUnits="userSpaceOnUse"><feFlood flood-opacity="0" result="BackgroundImageFix"/><feBlend in="SourceGraphic" in2="BackgroundImageFix" result="shape"/><feGaussianBlur result="effect1_foregroundBlur_25888_40695" stdDeviation="18.7"/></filter><linearGradient id="paint0_linear_25888_40695" x1="23.828" x2="45.4" y1="12.652" y2="71.973" gradientUnits="userSpaceOnUse"><stop offset=".025" stop-color="#ff8e63"/><stop offset=".56" stop-color="#ff7eb0"/><stop offset=".95" stop-color="#4b73ff"/></linearGradient></defs></svg>