<svg xmlns="http://www.w3.org/2000/svg" width="72" height="72" fill="none" viewBox="0 0 72 72"><g clip-path="url(#a)"><path fill="#fff" fill-rule="evenodd" d="M57.593 17.475c0 1.373-.18 2.624-.514 3.76 14.13 8.304 6.857 35.32 4.727 42.201-.058.19-.385.117-.379-.081.07-2.285-.286-5.49-1.853-8.575q.07.61.07 1.237c0 5.873-4.758 10.634-10.63 10.634-5.87 0-10.63-4.76-10.63-10.634 0-1.09.164-2.141.468-3.131l-.267-.068c-.616-.151-1.263-.27-1.694-.27-.429 0-1.05.116-1.636.264l-.306.08c.304.989.467 2.038.467 3.126 0 5.873-4.76 10.634-10.63 10.634-5.429 0-9.907-4.07-10.551-9.327-1.095 4.366-1.121 9.1-.932 14.502.006.169-.212.243-.296.096-4.73-8.213-9.088-25.224-5.937-37.766C9.89 22.934 17.79 17.525 22.75 15.67 23.653 6.868 31.087.001 40.126.001c9.647 0 17.467 7.824 17.467 17.474m-37.36 28.93a10.6 10.6 0 0 1 4.553-1.021c3.81 0 7.152 2.005 9.029 5.018.201-.06.475-.139.787-.218.623-.156 1.512-.344 2.29-.344.774 0 1.688.19 2.33.347.299.073.565.146.77.205a10.62 10.62 0 0 1 10.249-4.94c-3.66-4.332-5.086-10.381-5.602-14.185C32.417 36.557 24.86 41.4 20.234 46.405m36.132 9.612a7.35 7.35 0 0 1-7.35 7.354 7.35 7.35 0 0 1-7.35-7.354 7.35 7.35 0 0 1 7.35-7.354 7.35 7.35 0 0 1 7.35 7.354m-24.23.001a7.35 7.35 0 0 1-7.35 7.354 7.35 7.35 0 0 1-7.35-7.354 7.35 7.35 0 0 1 7.35-7.354 7.35 7.35 0 0 1 7.35 7.354" clip-rule="evenodd"/></g><defs><clipPath id="a"><path fill="#fff" d="M0 .001h72v72H0z"/></clipPath></defs></svg>