<svg xmlns="http://www.w3.org/2000/svg" width="72" height="72" fill="none" viewBox="0 0 72 72"><g fill="#eb5454" clip-path="url(#a)"><path d="M35.997 41.146a5.14 5.14 0 1 0 0-10.28 5.14 5.14 0 0 0 0 10.28"/><path d="M60.422 39.863a3.86 3.86 0 0 1-3.857-3.857c0-11.364-9.213-20.569-20.569-20.569S15.428 24.65 15.428 36.006s9.212 20.568 20.568 20.568c7.848 0 14.672-4.391 18.136-10.86 4.48 2.909 10.54 2.397 14.47-1.534a11.53 11.53 0 0 0 3.39-8.182C71.993 16.12 55.876.002 35.997.002S0 16.127 0 36.006s16.118 35.996 35.996 35.996c9.94 0 18.944-4.028 25.457-10.547L56 56.003c-5.118 5.118-12.187 8.285-19.997 8.285-15.621 0-28.283-12.661-28.283-28.282S20.375 7.723 35.996 7.723 64.28 20.385 64.28 36.006a3.86 3.86 0 0 1-3.857 3.857M35.996 48.86c-7.098 0-12.854-5.756-12.854-12.854 0-7.099 5.756-12.855 12.854-12.855 7.099 0 12.854 5.756 12.854 12.855 0 7.098-5.755 12.854-12.854 12.854"/></g><defs><clipPath id="a"><path fill="#fff" d="M0 .002h72v72H0z"/></clipPath></defs></svg>