<svg xmlns="http://www.w3.org/2000/svg" width="72" height="72" fill="none" viewBox="0 0 72 72"><path fill="#000" d="m24.23 32.884 6.924-8.654h6.923v23.54h-6.923v-13.5l-6.923 8.654-6.923-8.654v13.5h-6.923V24.23h6.923zm32.885 3.462h6.923L53.655 47.769 43.269 36.346h6.923V24.23h6.923z"/><path fill="#000" fill-rule="evenodd" d="M66.808 13.846A5.19 5.19 0 0 1 72 19.038v33.923a5.19 5.19 0 0 1-5.192 5.192H5.192A5.19 5.19 0 0 1 0 52.961V19.038a5.19 5.19 0 0 1 5.192-5.192zM5.192 17.307a1.73 1.73 0 0 0-1.73 1.731v33.923c0 .956.774 1.73 1.73 1.73h61.616a1.73 1.73 0 0 0 1.73-1.73V19.038a1.73 1.73 0 0 0-1.73-1.73z" clip-rule="evenodd"/></svg>