<svg xmlns="http://www.w3.org/2000/svg" width="72" height="72" fill="none" viewBox="0 0 72 72"><g fill="#fff" fill-rule="evenodd" clip-path="url(#a)" clip-rule="evenodd"><path d="m56.993 7.243.39 7.547c6.116 6.767 8.545 16.352 5.509 25.374C58.337 53.609 43.33 60.679 29.32 55.952s-21.6-19.475-17.045-32.92c3.08-9.066 10.843-15.225 19.865-16.83L36.998.434C21.774.044 7.46 9.455 2.298 24.636c-6.288 18.65 3.688 38.863 22.338 45.152S63.5 66.1 69.788 47.45c5.118-15.094-.52-31.315-12.795-40.207"/><path d="m48.275 29.538-.26-10.584-.217-6.072-.13-5.291s.043-2.56-.044-3.123a.6.6 0 0 0-.086-.304v-.087c-.087-.173-.26-.303-.434-.39a.73.73 0 0 0-.607.043s-.044 0-.044.044c-.086.043-.173.086-.26.173-.433.434-1.952 2.472-1.952 2.472l-3.296 4.12-3.86 4.729-6.636 8.24s-3.036 3.774-2.386 8.458 4.164 6.94 6.853 7.851 6.853 1.215 10.193-2.082c3.253-3.34 3.166-8.197 3.166-8.197"/></g><defs><clipPath id="a"><path fill="#fff" d="M0 0h72v72H0z"/></clipPath></defs></svg>