<svg xmlns="http://www.w3.org/2000/svg" width="72" height="72" fill="none" viewBox="0 0 72 72"><g clip-path="url(#a)"><path fill="#fff" d="m21.215.004-3.389 3.388L28.67 14.14v9.101l-1.113 1.016L12.208 9.009l-3.29 3.29 15.25 15.346-.92 1.017h-9.005L3.4 17.817l-3.34 3.34 12.246 12.249h21.11V12.108L21.216.002zm29.567 0 3.39 3.388L43.33 14.14v9.101l1.113 1.016L59.788 9.009l3.291 3.29-15.248 15.346.92 1.017h9.003l10.843-10.845 3.34 3.34-12.246 12.249H38.583V12.108L50.782.002zM21.215 72l-3.389-3.388L28.67 57.864v-9.101l-1.113-1.016-15.348 15.248-3.29-3.29 15.25-15.346-.92-1.017h-9.005L3.4 54.187l-3.34-3.34 12.246-12.249h21.11v21.298l-12.2 12.106zm29.567 0 3.39-3.388L43.33 57.864v-9.101l1.113-1.016 15.345 15.248 3.291-3.29-15.248-15.346.92-1.017h9.003l10.843 10.845 3.34-3.34-12.246-12.249H38.583v21.298l12.2 12.106z"/></g><defs><clipPath id="a"><path fill="#fff" d="M0 .002h72v72H0z"/></clipPath></defs></svg>