<svg xmlns="http://www.w3.org/2000/svg" width="1em" height="1em" fill="currentColor" fill-rule="evenodd" style="flex:none;line-height:1;fill:#fff" viewBox="0 0 24 24"><title>ModelContextProtocol</title><path d="M15.688 2.343a2.59 2.59 0 0 0-3.61 0l-9.626 9.44a.863.863 0 0 1-1.203 0 .823.823 0 0 1 0-1.18l9.626-9.44a4.313 4.313 0 0 1 6.016 0 4.12 4.12 0 0 1 1.204 3.54 4.3 4.3 0 0 1 3.609 1.18l.05.05a4.115 4.115 0 0 1 0 5.9l-8.706 8.537a.274.274 0 0 0 0 .393l1.788 1.754a.823.823 0 0 1 0 1.18.863.863 0 0 1-1.203 0l-1.788-1.753a1.92 1.92 0 0 1 0-2.754l8.706-8.538a2.47 2.47 0 0 0 0-3.54l-.05-.049a2.59 2.59 0 0 0-3.607-.003l-7.172 7.034-.002.002-.098.097a.863.863 0 0 1-1.204 0 .823.823 0 0 1 0-1.18l7.273-7.133a2.47 2.47 0 0 0-.003-3.537"/><path d="M14.485 4.703a.823.823 0 0 0 0-1.18.863.863 0 0 0-1.204 0l-7.119 6.982a4.115 4.115 0 0 0 0 5.9 4.314 4.314 0 0 0 6.016 0l7.12-6.982a.823.823 0 0 0 0-1.18.863.863 0 0 0-1.204 0l-7.119 6.982a2.59 2.59 0 0 1-3.61 0 2.47 2.47 0 0 1 0-3.54z"/></svg>