<svg xmlns="http://www.w3.org/2000/svg" width="72" height="72" fill="none" viewBox="0 0 72 72"><path fill="#000" d="M.312 48.615c-.172-.172-.258-.259-.29-.358a.44.44 0 0 1 0-.27c.032-.099.118-.185.29-.357l10.562-10.562c.172-.172.258-.258.358-.29a.44.44 0 0 1 .27 0c.098.032.185.118.357.29L22.421 47.63c.172.172.259.258.29.358a.44.44 0 0 1 0 .269c-.031.1-.118.186-.29.358l-1.201 1.2c-3.45 3.45-5.174 5.175-7.162 5.82a8.7 8.7 0 0 1-5.383 0c-1.988-.645-3.713-2.37-7.162-5.82zm12.317-12.317c-.172-.173-.259-.259-.291-.358a.44.44 0 0 1 0-.27c.032-.099.119-.185.291-.358l10.562-10.561c.172-.173.258-.259.358-.291a.44.44 0 0 1 .269 0c.1.032.185.118.358.29l10.561 10.562c.173.173.26.259.291.358a.44.44 0 0 1 0 .27c-.032.099-.118.185-.29.358L24.176 46.859c-.172.173-.259.259-.358.291a.44.44 0 0 1-.27 0c-.099-.032-.185-.118-.357-.29zm12.315 12.316c-.17-.172-.256-.257-.289-.356a.44.44 0 0 1 0-.271c.033-.1.118-.185.29-.356l10.562-10.563c.173-.172.259-.258.358-.29a.44.44 0 0 1 .27 0c.1.032.185.118.358.29l10.563 10.563c.17.171.256.257.289.356a.44.44 0 0 1 0 .271c-.033.099-.118.184-.29.356-3.852 3.852-5.778 5.778-7.996 6.507a9.8 9.8 0 0 1-6.118 0c-2.218-.729-4.144-2.655-7.997-6.507m12.319-12.316c-.173-.173-.26-.259-.291-.358a.44.44 0 0 1 0-.27c.032-.099.118-.185.29-.358l10.562-10.561c.172-.173.259-.259.358-.291a.44.44 0 0 1 .27 0c.099.032.185.118.357.29l10.562 10.562c.172.173.259.259.291.358a.44.44 0 0 1 0 .27c-.032.099-.118.185-.291.358L48.809 46.859c-.172.173-.258.259-.358.291a.44.44 0 0 1-.269 0c-.1-.032-.186-.118-.358-.29zM49.58 48.615c-.173-.172-.26-.259-.292-.358a.44.44 0 0 1 0-.27c.032-.099.119-.185.291-.357l10.562-10.562c.172-.172.258-.258.358-.29a.44.44 0 0 1 .269 0c.1.032.186.118.358.29L71.688 47.63c.172.172.258.258.29.358a.43.43 0 0 1 0 .269c-.032.1-.118.186-.29.358l-1.201 1.2c-3.45 3.45-5.174 5.175-7.162 5.82a8.7 8.7 0 0 1-5.383 0c-1.989-.645-3.713-2.37-7.162-5.82zM24.92 23.98c-.171-.171-.257-.257-.29-.356a.43.43 0 0 1 0-.271c.033-.099.119-.185.29-.356 3.852-3.852 5.778-5.778 7.997-6.507a9.8 9.8 0 0 1 6.118 0c2.218.729 4.144 2.655 7.996 6.507.171.171.257.257.29.355a.44.44 0 0 1 0 .272c-.033.099-.119.185-.29.356L36.468 34.543c-.172.172-.258.258-.358.29a.44.44 0 0 1-.269 0c-.1-.032-.186-.118-.358-.29z"/></svg>