<svg xmlns="http://www.w3.org/2000/svg" width="72" height="72" fill="none" viewBox="0 0 72 72"><g fill="#509ee3" clip-path="url(#a)"><path d="M11.841 22.791c2.383 0 4.314-1.962 4.314-4.383 0-2.42-1.931-4.383-4.314-4.383s-4.314 1.963-4.314 4.383 1.932 4.383 4.314 4.383m0 12.273c2.383 0 4.314-1.962 4.314-4.383 0-2.42-1.931-4.383-4.314-4.383S7.527 28.26 7.527 30.68s1.932 4.383 4.314 4.383"/><path d="M23.92 22.791c2.383 0 4.314-1.962 4.314-4.383 0-2.42-1.93-4.383-4.314-4.383-2.382 0-4.314 1.963-4.314 4.383s1.932 4.383 4.314 4.383" opacity=".2"/><path d="M23.92 35.183c2.383 0 4.314-1.962 4.314-4.383 0-2.42-1.93-4.383-4.314-4.383-2.382 0-4.314 1.962-4.314 4.383 0 2.42 1.932 4.383 4.314 4.383"/><path d="M36 22.791c2.382 0 4.314-1.962 4.314-4.383 0-2.42-1.932-4.383-4.314-4.383s-4.314 1.963-4.314 4.383 1.931 4.383 4.314 4.383m0-14.025c2.382 0 4.314-1.962 4.314-4.383C40.314 1.963 38.382 0 36 0s-4.314 1.962-4.314 4.383c0 2.42 1.931 4.383 4.314 4.383m0 26.417c2.382 0 4.314-1.962 4.314-4.383 0-2.42-1.932-4.383-4.314-4.383s-4.314 1.962-4.314 4.383c0 2.42 1.931 4.383 4.314 4.383m12.079-12.392c2.382 0 4.314-1.962 4.314-4.383 0-2.42-1.932-4.383-4.314-4.383s-4.314 1.963-4.314 4.383 1.931 4.383 4.314 4.383" opacity=".2"/><path d="M60.159 22.791c2.382 0 4.314-1.962 4.314-4.383 0-2.42-1.932-4.383-4.314-4.383s-4.314 1.963-4.314 4.383 1.931 4.383 4.314 4.383m-12.08 12.392c2.382 0 4.314-1.962 4.314-4.383 0-2.42-1.932-4.383-4.314-4.383s-4.314 1.962-4.314 4.383c0 2.42 1.931 4.383 4.314 4.383m12.08 0c2.382 0 4.314-1.962 4.314-4.383 0-2.42-1.932-4.383-4.314-4.383s-4.314 1.962-4.314 4.383c0 2.42 1.931 4.383 4.314 4.383M11.841 47.336c2.383 0 4.314-1.962 4.314-4.383 0-2.42-1.931-4.383-4.314-4.383s-4.314 1.963-4.314 4.383 1.932 4.383 4.314 4.383"/><path d="M23.92 47.455c2.383 0 4.314-1.962 4.314-4.383 0-2.42-1.93-4.382-4.314-4.382-2.382 0-4.314 1.962-4.314 4.382s1.932 4.383 4.314 4.383" opacity=".2"/><path d="M36 47.455c2.382 0 4.314-1.962 4.314-4.383 0-2.42-1.932-4.382-4.314-4.382s-4.314 1.962-4.314 4.382 1.931 4.383 4.314 4.383"/><path d="M48.079 47.455c2.382 0 4.314-1.962 4.314-4.383 0-2.42-1.932-4.382-4.314-4.382s-4.314 1.962-4.314 4.382 1.931 4.383 4.314 4.383" opacity=".2"/><path d="M60.159 47.455c2.382 0 4.314-1.962 4.314-4.383 0-2.42-1.932-4.382-4.314-4.382s-4.314 1.962-4.314 4.382 1.931 4.383 4.314 4.383M11.841 59.609c2.383 0 4.314-1.963 4.314-4.383s-1.931-4.383-4.314-4.383-4.314 1.962-4.314 4.383c0 2.42 1.932 4.383 4.314 4.383"/><path d="M23.92 59.728c2.383 0 4.314-1.962 4.314-4.383 0-2.42-1.93-4.383-4.314-4.383-2.382 0-4.314 1.962-4.314 4.383 0 2.42 1.932 4.383 4.314 4.383m12.08 0c2.382 0 4.314-1.962 4.314-4.383 0-2.42-1.932-4.383-4.314-4.383s-4.314 1.962-4.314 4.383c0 2.42 1.931 4.383 4.314 4.383M36 72c2.382 0 4.314-1.962 4.314-4.383 0-2.42-1.932-4.383-4.314-4.383s-4.314 1.963-4.314 4.383S33.617 72 36 72m12.079-12.272c2.382 0 4.314-1.962 4.314-4.383 0-2.42-1.932-4.383-4.314-4.383s-4.314 1.962-4.314 4.383c0 2.42 1.931 4.383 4.314 4.383" opacity=".2"/><path d="M60.159 59.728c2.382 0 4.314-1.962 4.314-4.383 0-2.42-1.932-4.383-4.314-4.383s-4.314 1.962-4.314 4.383c0 2.42 1.931 4.383 4.314 4.383"/></g><defs><clipPath id="a"><path fill="#fff" d="M0 0h72v72H0z"/></clipPath></defs></svg>