<svg xmlns="http://www.w3.org/2000/svg" width="72" height="72" fill="none" viewBox="0 0 72 72"><g clip-path="url(#clip0_22878_23592)"><mask id="mask0_22878_23592" width="72" height="72" x="0" y="0" maskUnits="userSpaceOnUse" style="mask-type:alpha"><path fill="#fff" fill-rule="evenodd" d="M51.057 71.508a4.48 4.48 0 0 0 3.571-.137l14.824-7.133A4.5 4.5 0 0 0 72 60.183V11.818a4.5 4.5 0 0 0-2.548-4.056L54.628.63a4.48 4.48 0 0 0-5.114.87L21.136 27.39 8.775 18.008a3 3 0 0 0-3.83.17L.982 21.783a3 3 0 0 0-.003 4.437L11.698 36 .978 45.78a3 3 0 0 0 .003 4.437l3.965 3.606a3 3 0 0 0 3.829.17l12.36-9.383 28.38 25.89c.449.45.976.787 1.543 1.008m2.954-51.853L32.479 36 54.01 52.345z" clip-rule="evenodd"/></mask><g mask="url(#mask0_22878_23592)"><path fill="#0065a9" d="M69.452 7.774 54.617.63a4.485 4.485 0 0 0-5.117.87L.935 45.78a3 3 0 0 0 .003 4.436l3.967 3.606a3 3 0 0 0 3.831.17L67.22 9.627C69.182 8.138 72 9.537 72 12v-.172a4.5 4.5 0 0 0-2.548-4.054"/><g filter="url(#filter0_d_22878_23592)"><path fill="#007acc" d="M69.452 64.226 54.617 71.37a4.485 4.485 0 0 1-5.117-.87L.935 26.22a3 3 0 0 1 .003-4.436l3.967-3.606a3 3 0 0 1 3.831-.17L67.22 62.372C69.182 63.862 72 62.463 72 60v.172a4.5 4.5 0 0 1-2.548 4.054"/></g><g filter="url(#filter1_d_22878_23592)"><path fill="#1f9cf0" d="M54.618 71.37a4.49 4.49 0 0 1-5.118-.87c1.66 1.66 4.5.484 4.5-1.864V3.364c0-2.349-2.84-3.525-4.5-1.864a4.49 4.49 0 0 1 5.118-.871L69.45 7.762A4.5 4.5 0 0 1 72 11.818v48.365a4.5 4.5 0 0 1-2.55 4.055z"/></g><path fill="url(#paint0_linear_22878_23592)" fill-rule="evenodd" d="M51.013 71.508a4.48 4.48 0 0 0 3.571-.137l14.824-7.133a4.5 4.5 0 0 0 2.548-4.055V11.818a4.5 4.5 0 0 0-2.548-4.056L54.584.629a4.48 4.48 0 0 0-5.114.87L21.092 27.39 8.73 18.008a3 3 0 0 0-3.829.17L.938 21.783a3 3 0 0 0-.004 4.437L11.654 36 .934 45.78a3 3 0 0 0 .004 4.437l3.964 3.606a3 3 0 0 0 3.829.17l12.36-9.383L49.47 70.5c.449.45.976.787 1.543 1.008m2.954-51.853L32.435 36l21.532 16.345z" clip-rule="evenodd" opacity=".25" style="mix-blend-mode:overlay"/></g></g><defs><filter id="filter0_d_22878_23592" width="88.71" height="71.084" x="-8.377" y="9.063" color-interpolation-filters="sRGB" filterUnits="userSpaceOnUse"><feFlood flood-opacity="0" result="BackgroundImageFix"/><feColorMatrix in="SourceAlpha" result="hardAlpha" values="0 0 0 0 0 0 0 0 0 0 0 0 0 0 0 0 0 0 127 0"/><feOffset/><feGaussianBlur stdDeviation="4.167"/><feColorMatrix values="0 0 0 0 0 0 0 0 0 0 0 0 0 0 0 0 0 0 0.25 0"/><feBlend in2="BackgroundImageFix" mode="overlay" result="effect1_dropShadow_22878_23592"/><feBlend in="SourceGraphic" in2="effect1_dropShadow_22878_23592" result="shape"/></filter><filter id="filter1_d_22878_23592" width="39.167" height="88.296" x="41.167" y="-8.148" color-interpolation-filters="sRGB" filterUnits="userSpaceOnUse"><feFlood flood-opacity="0" result="BackgroundImageFix"/><feColorMatrix in="SourceAlpha" result="hardAlpha" values="0 0 0 0 0 0 0 0 0 0 0 0 0 0 0 0 0 0 127 0"/><feOffset/><feGaussianBlur stdDeviation="4.167"/><feColorMatrix values="0 0 0 0 0 0 0 0 0 0 0 0 0 0 0 0 0 0 0.25 0"/><feBlend in2="BackgroundImageFix" mode="overlay" result="effect1_dropShadow_22878_23592"/><feBlend in="SourceGraphic" in2="effect1_dropShadow_22878_23592" result="shape"/></filter><linearGradient id="paint0_linear_22878_23592" x1="35.956" x2="35.956" y1=".186" y2="71.814" gradientUnits="userSpaceOnUse"><stop stop-color="#fff"/><stop offset="1" stop-color="#fff" stop-opacity="0"/></linearGradient><clipPath id="clip0_22878_23592"><path fill="#fff" d="M0 0h72v72H0z"/></clipPath></defs></svg>