<svg xmlns="http://www.w3.org/2000/svg" width="72" height="72" fill="none" viewBox="0 0 72 72"><g clip-path="url(#a)"><path fill="#ed6c47" d="M43.535 39.347 38.512 2.51h-.375C19.87 2.563 5.077 17.357 5.023 35.623v.375z"/><path fill="#ff8f6b" d="M38.887 2.51h-.375v33.488l16.744 6.698L72 35.998v-.375C71.947 17.357 57.153 2.563 38.887 2.51"/><path fill="#d35230" d="M72 35.998v.368c-.052 18.27-14.85 33.068-33.12 33.12h-.737c-18.27-.052-33.067-14.85-33.12-33.12v-.368z"/><path fill="#000" d="M40.186 18.97v35.732a3.08 3.08 0 0 1-1.909 2.83 3 3 0 0 1-1.155.234H12.927a26 26 0 0 1-1.34-1.675 32.84 32.84 0 0 1-6.564-19.724v-.737a32.74 32.74 0 0 1 5.392-18.05 23 23 0 0 1 1.172-1.675h25.535a3.09 3.09 0 0 1 3.064 3.065" opacity=".1"/><path fill="#000" d="M38.512 20.644v35.732c0 .397-.08.79-.234 1.155a3.08 3.08 0 0 1-2.83 1.91H14.45a29 29 0 0 1-1.523-1.675 26 26 0 0 1-1.34-1.675 32.84 32.84 0 0 1-6.564-19.724v-.737a32.74 32.74 0 0 1 5.392-18.05h25.033a3.09 3.09 0 0 1 3.064 3.064" opacity=".2"/><path fill="#000" d="M38.512 20.644v32.383a3.09 3.09 0 0 1-3.064 3.064h-23.86a32.84 32.84 0 0 1-6.565-19.724v-.737a32.74 32.74 0 0 1 5.392-18.05h25.033a3.087 3.087 0 0 1 3.064 3.064" opacity=".2"/><path fill="#000" d="M36.837 20.644v32.383a3.09 3.09 0 0 1-3.064 3.064H11.587a32.84 32.84 0 0 1-6.564-19.724v-.737a32.74 32.74 0 0 1 5.392-18.05h23.358a3.087 3.087 0 0 1 3.064 3.064" opacity=".2"/><path fill="url(#b)" d="M3.07 17.58h30.698a3.07 3.07 0 0 1 3.07 3.069v30.699a3.07 3.07 0 0 1-3.07 3.069H3.069A3.07 3.07 0 0 1 0 51.347V20.65a3.07 3.07 0 0 1 3.07-3.07"/><path fill="#fff" d="M18.753 25.766a8.44 8.44 0 0 1 5.59 1.637 5.86 5.86 0 0 1 1.945 4.744 6.6 6.6 0 0 1-.96 3.545 6.4 6.4 0 0 1-2.723 2.407 9.25 9.25 0 0 1-4.098.861h-3.883v7.217h-3.976V25.766zm-4.132 10.076h3.422a4.44 4.44 0 0 0 3.026-.902 3.35 3.35 0 0 0 1.023-2.64q0-3.375-3.921-3.375h-3.55z"/></g><defs><linearGradient id="b" x1="6.399" x2="30.438" y1="15.181" y2="56.815" gradientUnits="userSpaceOnUse"><stop stop-color="#ca4c28"/><stop offset=".5" stop-color="#c5401e"/><stop offset="1" stop-color="#b62f14"/></linearGradient><clipPath id="a"><path fill="#fff" d="M0 0h72v72H0z"/></clipPath></defs></svg>