<svg xmlns="http://www.w3.org/2000/svg" width="72" height="72" fill="none" viewBox="0 0 72 72"><path fill="#5059c9" d="M50.221 27.147H68.82a3.183 3.183 0 0 1 3.182 3.185v16.961C72 53.76 66.766 59 60.308 59h-.055c-6.458 0-11.693-5.24-11.694-11.705V28.812c0-.92.744-1.665 1.662-1.665m12.569-3.353c4.162 0 7.536-3.377 7.536-7.544s-3.374-7.544-7.535-7.544c-4.162 0-7.535 3.378-7.535 7.544 0 4.167 3.373 7.544 7.535 7.544"/><path fill="#7b83eb" d="M39.349 23.794c6.01 0 10.883-4.879 10.883-10.897S45.36 2 39.35 2c-6.011 0-10.884 4.879-10.884 10.897s4.873 10.897 10.884 10.897m14.511 3.353H23.162a3.15 3.15 0 0 0-3.069 3.224v19.345c-.242 10.431 8 19.088 18.419 19.343 10.418-.255 18.66-8.912 18.418-19.343V30.37a3.15 3.15 0 0 0-3.069-3.224"/><path fill="#000" d="M40.186 27.147v27.109a3.09 3.09 0 0 1-1.91 2.833 3 3 0 0 1-1.155.234H21.566a20 20 0 0 1-.586-1.676 20.4 20.4 0 0 1-.887-5.935V30.366a3.145 3.145 0 0 1 3.064-3.219z" opacity=".1"/><path fill="#000" d="M38.511 27.147v28.785c0 .397-.08.79-.234 1.157a3.08 3.08 0 0 1-2.83 1.91H22.353a22 22 0 0 1-.787-1.676 17 17 0 0 1-.586-1.676 20.4 20.4 0 0 1-.887-5.935V30.366a3.145 3.145 0 0 1 3.064-3.219z" opacity=".2"/><path fill="#000" d="M38.511 27.147v25.432a3.09 3.09 0 0 1-3.064 3.068H20.98a20.4 20.4 0 0 1-.887-5.935V30.366a3.145 3.145 0 0 1 3.064-3.219z" opacity=".2"/><path fill="#000" d="M36.837 27.147v25.432a3.09 3.09 0 0 1-3.064 3.068H20.98a20.4 20.4 0 0 1-.887-5.935V30.366a3.145 3.145 0 0 1 3.064-3.219z" opacity=".2"/><path fill="#000" d="M40.186 18.48v5.28c-.285.018-.552.034-.837.034s-.553-.016-.837-.033a9 9 0 0 1-1.675-.268 10.89 10.89 0 0 1-7.535-6.404 9.3 9.3 0 0 1-.535-1.677h8.355a3.08 3.08 0 0 1 3.064 3.068" opacity=".1"/><path fill="#000" d="M38.512 20.156v3.605a9 9 0 0 1-1.674-.268 10.89 10.89 0 0 1-7.535-6.405h6.145a3.08 3.08 0 0 1 3.064 3.068" opacity=".2"/><path fill="#000" d="M38.512 20.156v3.605a9 9 0 0 1-1.674-.268 10.89 10.89 0 0 1-7.535-6.405h6.145a3.08 3.08 0 0 1 3.064 3.068" opacity=".2"/><path fill="#000" d="M36.838 20.156v3.336a10.89 10.89 0 0 1-7.535-6.404h4.47a3.08 3.08 0 0 1 3.065 3.068" opacity=".2"/><path fill="url(#a)" d="M3.07 17.088h30.698a3.07 3.07 0 0 1 3.07 3.073v30.736a3.07 3.07 0 0 1-3.07 3.073H3.069A3.07 3.07 0 0 1 0 50.897V20.161a3.07 3.07 0 0 1 3.07-3.073"/><path fill="#fff" d="M26.497 28.787H20.36v16.73h-3.91v-16.73h-6.108V25.54h16.155z"/><defs><linearGradient id="a" x1="6.399" x2="30.482" y1="14.687" y2="56.346" gradientUnits="userSpaceOnUse"><stop stop-color="#5a62c3"/><stop offset=".5" stop-color="#4d55bd"/><stop offset="1" stop-color="#3940ab"/></linearGradient></defs></svg>