<svg xmlns="http://www.w3.org/2000/svg" width="72" height="72" fill="none" viewBox="0 0 72 72"><path fill="#359ae1" d="M64.372 4.723c.624-.304.985-.609 1.732-.365.981.321 1.755 1.74 2.153 2.627 1.256 2.806 1.868 5.98 2.356 8.995q.445 2.71.73 5.44c.114 1.187.19 2.483.277 3.683.51 6.97.506 13.968-.01 20.937-.376 5.478-1.005 11.308-2.827 16.528-.44 1.264-1.284 3.283-2.564 3.903-.416.202-.91.11-1.328-.059l-16.882-6.833-5.873-2.347c-.508-.209-1.811-.691-2.193-.912-.074.153-.034 1-.035 1.228l.005 4.927c-.001.747.054 1.766-.077 2.47-.222 1.185-1.301 1.946-2.476 1.91-1.33-.04-2.63-.032-3.943-.023l-15.738.001-7.937.006-2.121.001c-.469.003-1.061.041-1.52-.022-2.375-.323-2.118-2.507-2.117-4.22l.005-3.456.006-11.627C1.37 47.62 1.28 46.127.889 44.012a49 49 0 0 1-.855-7.346 36 36 0 0 1-.003-3.057 52 52 0 0 1 .874-7.115c.158-.84.303-2.084.901-2.709.314-.321.718-.54 1.159-.625.498-.095 1.39-.077 1.918-.077h2.483l10.62-.004.314-.055c.245-.075.774-.309 1.037-.415l2.238-.898 8.005-3.184L54.77 8.489c2.44-.966 4.877-1.979 7.328-2.914.674-.256 1.61-.736 2.274-.852"/><path fill="#005389" d="M3.995 47.516c-2.624.103-2.714-1.388-3.106-3.504a49 49 0 0 1-.855-7.346c-.04-.897-.05-2.156-.003-3.056.126-2.39.418-4.767.874-7.115.158-.84.303-2.084.901-2.71a2.2 2.2 0 0 1 1.159-.624c.498-.095 1.39-.078 1.918-.078l2.483.001 10.62-.005c-.066.346.003 1.769.004 2.215l-.017 5.711L31.753 31l3.91-.002c.355 0 .93.036 1.277.001 1.414-.14 2.746.607 2.903 2.13.112 1.089.035 2.465.035 3.614l.01 7.04c.002 1.1-.05 2.681.021 3.738v6.232c0 .374-.024 2.304.035 2.569-.075.152-.035.999-.036 1.228l.005 4.927c-.001.746.054 1.765-.077 2.47-.222 1.185-1.301 1.946-2.476 1.91-1.33-.04-2.63-.032-3.943-.023H17.679l-7.937.006-2.121.002c-.469.002-1.061.04-1.52-.022-2.375-.323-2.118-2.507-2.117-4.22l.005-3.457z"/><path fill="#1482cd" d="M3.995 47.516c-2.624.103-2.714-1.388-3.106-3.504a49 49 0 0 1-.855-7.346c-.04-.897-.05-2.156-.003-3.056.126-2.39.418-4.767.874-7.115.158-.84.303-2.084.901-2.71a2.2 2.2 0 0 1 1.159-.624c.498-.095 1.39-.078 1.918-.078l2.483.001 10.62-.005c-.066.346.003 1.769.004 2.215l-.017 5.711-8.016-.002c-1.114 0-2.206.005-3.343.011-1.195.007-2.25.51-2.529 1.796-.13.604-.086 1.372-.086 2v2.536c.002 3.357.045 6.82-.004 10.17"/><path fill="#fefefe" d="m19.667 38.158 3.876.014c.23.764.71 1.922 1.003 2.7l1.91 5.134 2.76 7.437c.593 1.619 1.267 3.59 1.91 5.173l-3.72.011c-.554-1.728-1.244-3.476-1.826-5.23l-2.078.009q-3.004.017-6.01-.011c-.047.215-.117.413-.184.622-.495 1.536-1.087 3.05-1.519 4.606l-3.762-.01c.422-.955.906-2.375 1.28-3.377l2.559-6.853 2.514-6.716c.352-.94 1.037-2.62 1.287-3.509"/><path fill="#00538b" d="M21.475 41.245c.184.198.398 1.355.513 1.7.853 2.573 1.782 5.132 2.693 7.685-.967.045-2.142.018-3.127.017l-3.148-.011c.407-1.014.887-2.579 1.26-3.645q.48-1.368.932-2.744c.37-1.091.669-1.858.877-3.002"/><path fill="#008bdf" d="M64.372 4.723c.624-.304.985-.609 1.732-.365.981.321 1.755 1.74 2.153 2.627 1.256 2.806 1.868 5.98 2.356 8.995q.445 2.71.73 5.44c.114 1.187.19 2.483.277 3.683.51 6.97.506 13.968-.01 20.937-.376 5.478-1.005 11.308-2.827 16.528-.44 1.264-1.284 3.283-2.564 3.903-.416.202-.91.11-1.328-.059l-16.882-6.833-5.873-2.347c-.508-.209-1.811-.691-2.193-.912-.058-.264-.033-2.194-.033-2.569l-.001-6.231 11.994.01q3.942.01 7.883-.02c-.198-1.959-.221-3.929-.35-5.876-.315-4.709-.19-9.328.053-14.03.075-1.446.244-2.948.29-4.394l.017-.052c.101-.87.139-1.758.242-2.635.564-4.8 1.234-9.862 3.32-14.27.142-.3.995-1.405 1.014-1.53"/><path fill="#1481cc" d="M59.797 23.158c3.438-.41 3.375.913 3.732 3.807q.213 1.658.362 3.324c.46 5.306.098 10.728-.836 15.966-.28 1.575-2.098 1.254-3.269 1.256-.197-1.96-.22-3.93-.35-5.877-.314-4.709-.19-9.328.054-14.03.075-1.446.244-2.947.29-4.394z"/><path fill="#83bfeb" d="M64.372 4.723c-.019.124-.871 1.229-1.014 1.53-2.086 4.407-2.756 9.469-3.32 14.27-.103.877-.14 1.765-.241 2.634l-.018.053-27.756-.004-8.444-.002c-1.514-.001-3.043.01-4.556-.024-.268-.005-.498-.006-.722-.156.244-.075.773-.31 1.037-.416l2.237-.898 8.005-3.183L54.77 8.489c2.439-.966 4.876-1.979 7.328-2.914.673-.257 1.609-.737 2.273-.852"/><path fill="#006aae" d="M39.871 47.46c.285.143 2.771.103 3.244.103l5.55.002c3.616 0 7.59.08 11.184-.046l-.01.093-.013.043c.076.25.1.99.127 1.29q.113 1.248.258 2.492c.535 4.292 1.282 8.884 3.048 12.86.211.475 1.008 1.44 1.018 1.875-1.737-.734-3.548-1.436-5.302-2.142l-9.88-3.977-6.024-2.425c-.932-.375-2.174-.925-3.088-1.231l-.067.027c-.108-.205-.064-8.15-.045-8.964"/></svg>