<svg xmlns="http://www.w3.org/2000/svg" width="72" height="72" fill="none" viewBox="0 0 72 72"><path fill="#0364b8" d="M27.455 25.68v-.003l15.116 9.054 9.007-3.79a14.6 14.6 0 0 1 6.784-1.159 22.503 22.503 0 0 0-40.592-6.78c.076-.002.152-.007.23-.007 3.34-.004 6.615.925 9.455 2.684"/><path fill="#0078d4" d="m27.457 25.677-.001.002A17.9 17.9 0 0 0 18 22.995c-.077 0-.153.005-.23.006A17.993 17.993 0 0 0 3.234 51.284l13.33-5.609 5.924-2.493 13.194-5.552 6.89-2.9z"/><path fill="#1490df" d="M58.362 29.783a14.6 14.6 0 0 0-6.785 1.16L42.57 34.73l2.612 1.564 8.561 5.128 3.736 2.238 12.772 7.65a14.626 14.626 0 0 0-11.89-21.528"/><path fill="#28a8ea" d="m57.48 43.66-3.735-2.237-8.561-5.128-2.612-1.564-6.89 2.9-13.193 5.551-5.925 2.494-13.33 5.609a17.98 17.98 0 0 0 14.767 7.711h39.375a14.62 14.62 0 0 0 12.876-7.685z"/></svg>