<svg xmlns="http://www.w3.org/2000/svg" width="72" height="72" fill="none" viewBox="0 0 72 72"><g clip-path="url(#a)"><path fill="#185c37" d="M45.21 34.324 16.743 29.3v37.117a3.07 3.07 0 0 0 3.07 3.07H68.93A3.07 3.07 0 0 0 72 66.416V52.742z"/><path fill="#21a366" d="M45.21 2.51H19.812a3.07 3.07 0 0 0-3.069 3.069v13.675L45.21 35.998l15.07 5.023L72 35.998V19.254z"/><path fill="#107c41" d="M16.744 19.254H45.21v16.744H16.744z"/><path fill="#000" d="M37.117 15.905H16.744v41.86h20.373a3.08 3.08 0 0 0 3.069-3.068V18.974a3.08 3.08 0 0 0-3.07-3.069" opacity=".1"/><path fill="#000" d="M35.442 17.58H16.744v41.86h18.698a3.08 3.08 0 0 0 3.07-3.07V20.65a3.08 3.08 0 0 0-3.07-3.07" opacity=".2"/><path fill="#000" d="M35.442 17.58H16.744v38.51h18.698a3.08 3.08 0 0 0 3.07-3.069V20.649a3.08 3.08 0 0 0-3.07-3.07" opacity=".2"/><path fill="#000" d="M33.768 17.58H16.744v38.51h17.024a3.08 3.08 0 0 0 3.07-3.069V20.649a3.08 3.08 0 0 0-3.07-3.07" opacity=".2"/><path fill="url(#b)" d="M3.07 17.58h30.698a3.07 3.07 0 0 1 3.07 3.069v30.699a3.07 3.07 0 0 1-3.07 3.069H3.069A3.07 3.07 0 0 1 0 51.347V20.65a3.07 3.07 0 0 1 3.07-3.07"/><path fill="#fff" d="m9.506 45.975 6.456-10.005-5.915-9.95h4.758l3.229 6.363q.447.906.613 1.35h.041q.32-.723.67-1.405l3.451-6.304h4.369l-6.067 9.89 6.22 10.06h-4.648l-3.728-6.983a6 6 0 0 1-.446-.933h-.055q-.165.477-.432.904l-3.84 7.013z"/><path fill="#33c481" d="M68.93 2.51H45.21v16.744H72V5.579a3.07 3.07 0 0 0-3.068-3.07"/><path fill="#107c41" d="M45.209 35.998h26.79v16.744H45.21z"/></g><defs><linearGradient id="b" x1="6.399" x2="30.438" y1="15.181" y2="56.815" gradientUnits="userSpaceOnUse"><stop stop-color="#18884f"/><stop offset=".5" stop-color="#117e43"/><stop offset="1" stop-color="#0b6631"/></linearGradient><clipPath id="a"><path fill="#fff" d="M0 0h72v72H0z"/></clipPath></defs></svg>