<svg xmlns="http://www.w3.org/2000/svg" width="72" height="72" fill="none" viewBox="0 0 72 72"><path fill="#fff" d="M50.942 52.092H40.713V32.437q0-4.345-4.278-4.345-3.477 0-5.817 3.142v20.858H20.323V32.437q0-4.345-4.278-4.345-3.21 0-5.75 3.142v20.858H0v-32.29h10.295v3.945q1.27-1.672 4.212-3.21Q17.448 19 20.925 19q7.153 0 9.159 5.75 1.537-2.34 4.546-4.012A13.23 13.23 0 0 1 41.248 19q4.613 0 7.153 2.474 2.54 2.406 2.54 7.22zm19.186-1.07q-1.872 1.871-4.412 1.871t-4.412-1.871-1.872-4.413 1.871-4.412q1.873-1.872 4.413-1.872t4.412 1.872T72 46.609t-1.872 4.413"/></svg>