<svg xmlns="http://www.w3.org/2000/svg" width="72" height="72" fill="none" viewBox="0 0 72 72"><g clip-path="url(#clip0_22942_32429)"><path fill="#00bef2" d="M35.962.133c.076 0 .152.095.266.266.095.152 8.099 9.753 17.794 21.33 9.696 11.578 17.605 21.103 17.567 21.16-.02.057-7.738 6.387-17.148 14.049-9.41 7.661-17.415 14.182-17.776 14.486-.627.514-.665.533-.893.304-.133-.133-8.156-6.691-17.833-14.58S.373 42.755.411 42.66s7.985-9.581 17.7-21.102C27.824 10.038 35.77.513 35.81.361c.038-.152.095-.228.152-.228"/><path fill="#fff" d="M34.65 60.454c-1.102-.399-2.433-1.54-2.985-2.604-.684-1.312-.627-3.365.134-5 .589-1.217.589-1.255.208-1.54-.208-.152-2.737-1.559-5.589-3.099a2017 2017 0 0 1-5.513-2.984c-.228-.134-.608 0-1.293.437-2.224 1.407-4.543 1.255-6.368-.437-1.312-1.217-1.692-2.073-1.692-3.822 0-1.692.342-2.566 1.425-3.65 1.464-1.464 3.422-1.958 5.305-1.33 1.026.341 1.045.341 1.692-.153.76-.57 6.863-6.14 9.81-8.935l2.033-1.94-.608-1.273c-1.236-2.566-.608-5.418 1.559-7.129 1.179-.931 2.053-1.217 3.745-1.217 3.955 0 6.711 4.145 5.228 7.852-.4 1.027-.4 1.046-.019 1.673.323.551 5.817 7.186 8.726 10.57.514.59 1.084 1.065 1.274 1.065s.837-.19 1.445-.419c2.833-1.121 5.817.134 6.996 2.947.76 1.806.095 4.24-1.521 5.703-1.14 1.027-1.977 1.35-3.498 1.35-1.064 0-1.464-.114-2.585-.722-.837-.457-1.483-.685-1.75-.609-.456.114-7.47 4.924-9.03 6.179-.95.78-1.026 1.065-.532 2.224.475 1.141.418 2.928-.114 4.05-.59 1.235-2.053 2.471-3.327 2.851-1.293.362-2.072.362-3.156-.038m.323-20.95V28.668l-.608-.837c-.342-.456-.665-.836-.723-.836-.247 0-12.528 11.16-12.528 11.388 0 .056.19.627.418 1.235.229.628.4 1.521.38 2.034-.018.514-.018 1.084-.018 1.274.019.438 4.125 3.061 10.285 6.616 1.692.989 2.281 1.236 2.49 1.064.247-.209.304-2.319.304-11.102m5.21 9.582c8.136-5.114 9.657-6.14 9.752-6.521.057-.228.133-1.122.152-2.015l.057-1.597L46 34.029c-4.449-5.266-6.084-7.053-6.464-7.053-.133 0-.799.38-1.483.836l-1.255.837.057 10.817c.058 9.696.134 11.33.495 11.33.038.02 1.33-.76 2.832-1.71"/><path fill="#fff" d="m36.228.398.1-.062-.001-.001-.001-.002zm35.36 42.49-.097-.065-.009.013-.005.015zM36.666 71.424l.075.09h.001zm-2.015-10.97.04-.11zm-2.985-2.604.105-.054zm.134-5-.106-.051v.001zm.209-1.54.07-.094-.001-.001zm-11.103-6.084-.059.102.002.001zm-1.293.438.063.099zm-6.368-.438-.08.087zm6.73-8.954-.07-.094h-.002zm9.81-8.935.08.085zm2.034-1.94.08.086a.12.12 0 0 0 .025-.136zm-.609-1.273.106-.05zm1.559-7.13.073.093zm8.973 6.636-.109-.044v.001zm-.019 1.673.102-.06-.001-.001zm8.726 10.57-.089.077zm2.719.646.041.11h.002zm6.996 2.947-.108.045zm-1.521 5.703.079.088zm-6.083.628-.057.103zm-1.75-.609.029.114h.004zm-9.03 6.179-.073-.092-.001.001zm-.532 2.224.108-.045zm-3.441 6.901.032.114.002-.001zm-2.833-31.824h.118a.12.12 0 0 0-.023-.07zm-.608-.837.095-.069v-.001zM21.533 39.618l.11-.04v-.001zm.36 3.308h-.117v.005zm10.286 6.616.059-.102zm2.49 1.064.074.091h.002zm5.513-1.52-.062-.1zm9.905-8.536-.117-.005v.002zm.057-1.597.117.004a.12.12 0 0 0-.027-.08zM36.798 28.649l-.065-.098a.12.12 0 0 0-.052.098zm.552 22.148.052-.105a.1.1 0 0 0-.052-.013zM35.962.132V.25c-.013 0-.004-.008.033.032.036.037.078.096.135.181l.098-.065.098-.065a2 2 0 0 0-.16-.213c-.048-.05-.115-.105-.204-.105zm.266.266-.1.063.04.052.078.097.285.348a2921 2921 0 0 0 4.903 5.896c3.226 3.867 7.65 9.161 12.498 14.95l.09-.075.09-.076a10381 10381 0 0 1-12.497-14.95A2972 2972 0 0 1 36.713.81l-.361-.442-.024-.031zm17.795 21.33-.09.076a4879 4879 0 0 1 12.432 14.9 1106 1106 0 0 1 3.768 4.557c.443.54.787.962 1.018 1.25a24 24 0 0 1 .322.412l.01.015-.003-.008-.007-.022c0-.005-.009-.045.018-.085l.098.065.097.065a.12.12 0 0 0 .018-.087l-.007-.027-.011-.02-.02-.032-.069-.09q-.089-.116-.263-.333a155 155 0 0 0-1.02-1.252c-.887-1.083-2.176-2.64-3.768-4.558a4862 4862 0 0 0-12.433-14.9zm17.566 21.16-.112-.037a.1.1 0 0 1 .017-.032l.005-.007h.001l-.014.012-.066.058-.263.222c-.231.193-.57.475-1.007.835-.873.721-2.134 1.758-3.688 3.031-3.108 2.547-7.39 6.046-12.096 9.876l.075.091.074.091c4.705-3.83 8.987-7.329 12.096-9.876a1324 1324 0 0 0 3.688-3.032 226 226 0 0 0 1.274-1.06l.091-.08.01-.01.008-.01c.001-.002.012-.015.018-.035zM54.44 56.938l-.075-.092a9959 9959 0 0 0-17.776 14.488l.075.09.076.09c.36-.304 8.362-6.823 17.774-14.486zM36.665 71.423l-.074-.091a10 10 0 0 1-.368.292.8.8 0 0 1-.192.118c-.032.01-.046.007-.06 0a.5.5 0 0 1-.116-.098l-.083.083-.083.083a.7.7 0 0 0 .179.143q.113.056.24.01c.076-.026.159-.079.255-.15.098-.072.22-.172.377-.3zm-.893.304.083-.083-.123-.106-.293-.243c-.251-.208-.613-.505-1.074-.884-.922-.757-2.24-1.836-3.856-3.157a12296 12296 0 0 0-12.495-10.2l-.075.091-.074.091c4.839 3.945 9.263 7.557 12.495 10.2a2667 2667 0 0 1 4.93 4.04l.37.31.022.018.007.006zM17.939 57.146l.075-.09A2770 2770 0 0 1 5.607 46.89a534 534 0 0 1-3.758-3.126 78 78 0 0 1-1.015-.866 10 10 0 0 1-.317-.29L.511 42.6l.008.015.008.026a.1.1 0 0 1-.007.061l-.109-.043-.109-.044a.12.12 0 0 0 .002.095l.015.026.025.03.07.07q.091.085.265.237c.232.203.576.497 1.019.87.885.746 2.17 1.815 3.76 3.127a2755 2755 0 0 0 12.407 10.166zM.411 42.66l.11.043-.008.015-.002.003.002-.003.017-.022.07-.088.275-.335c.24-.29.59-.714 1.042-1.255a1939 1939 0 0 1 3.805-4.55c3.206-3.823 7.621-9.074 12.478-14.835l-.09-.075-.09-.076A7266 7266 0 0 0 5.543 36.318a2162 2162 0 0 0-3.806 4.55A340 340 0 0 0 .418 42.46l-.094.12-.008.01c0 .001-.008.012-.014.026zm17.7-21.102.09.075A4123 4123 0 0 0 30.678 6.771a978 978 0 0 0 3.806-4.58c.451-.547.803-.977 1.043-1.275a24 24 0 0 0 .35-.446L35.9.438l.01-.017q.005-.006.013-.032L35.81.36l-.114-.028.006-.017.002-.005q0-.002 0 0l-.016.023-.07.092q-.092.12-.273.343c-.24.297-.59.727-1.041 1.274a1042 1042 0 0 1-3.805 4.578c-3.206 3.84-7.621 9.102-12.478 14.862zM35.81.36l.114.029a.4.4 0 0 1 .052-.133c.016-.025.014-.006-.014-.006V.015c-.085 0-.144.056-.18.108a.7.7 0 0 0-.086.209zm-1.16 60.094.04-.11c-.534-.194-1.13-.57-1.662-1.031-.532-.462-.992-1.002-1.258-1.517l-.105.054-.104.054c.285.549.766 1.111 1.313 1.586s1.168.869 1.736 1.075zm-2.985-2.604.105-.054c-.664-1.273-.614-3.286.135-4.897l-.106-.049-.107-.05c-.772 1.66-.836 3.753-.13 5.104zm.134-5 .105.051c.147-.304.259-.537.337-.719.078-.18.127-.32.142-.436a.42.42 0 0 0-.069-.314 1 1 0 0 0-.236-.216l-.07.094-.07.094a1 1 0 0 1 .184.163c.025.035.038.074.028.148-.01.081-.048.197-.125.375-.075.176-.184.404-.332.709zm.209-1.54.069-.095a10 10 0 0 0-.572-.339c-.311-.177-.737-.416-1.244-.698-1.015-.563-2.36-1.3-3.787-2.07l-.056.103-.055.104c1.425.77 2.77 1.506 3.784 2.069.507.281.932.52 1.242.696.314.18.504.292.55.325zm-5.59-3.099.056-.103c-2.852-1.54-5.341-2.89-5.512-2.984l-.057.102-.057.103c.172.096 2.663 1.446 5.515 2.986zm-5.513-2.985.06-.101c-.158-.092-.351-.08-.573-.005-.223.076-.499.225-.843.445l.063.099.064.099c.34-.218.597-.354.792-.42.196-.068.307-.056.378-.015zm-1.293.438-.062-.1c-1.095.693-2.207.998-3.264.926s-2.068-.52-2.962-1.35l-.08.086-.08.087c.93.862 1.99 1.336 3.106 1.411 1.115.076 2.276-.247 3.405-.961zm-6.368-.438.08-.086c-.651-.603-1.061-1.108-1.31-1.672s-.345-1.196-.345-2.063h-.235c0 .883.096 1.552.364 2.158.269.605.705 1.136 1.366 1.75zm-1.692-3.82h.117c0-.84.085-1.465.299-2.011s.558-1.022 1.093-1.557l-.083-.083-.083-.083c-.55.549-.917 1.051-1.146 1.637-.229.585-.315 1.243-.315 2.096zm1.426-3.651.083.083c1.434-1.434 3.346-1.915 5.183-1.302l.038-.112.037-.111c-1.927-.642-3.931-.134-5.424 1.359zm5.304-1.33-.038.11c.256.086.454.152.615.193s.295.062.422.051c.255-.023.45-.173.764-.414l-.071-.093-.072-.093c-.332.254-.47.35-.642.366a1 1 0 0 1-.342-.044 10 10 0 0 1-.6-.188zm1.692-.153.07.094c.386-.29 2.108-1.83 4.094-3.64a448 448 0 0 0 5.726-5.304l-.08-.085-.081-.085a447 447 0 0 1-5.723 5.3c-1.993 1.816-3.702 3.345-4.077 3.626zm9.81-8.935.08.085 2.034-1.94-.08-.084-.081-.085-2.035 1.939zm2.034-1.94.105-.05-.608-1.274-.106.051-.106.05.609 1.274zm-.609-1.273.106-.05c-1.213-2.52-.597-5.311 1.526-6.987l-.073-.092-.073-.092c-2.212 1.746-2.85 4.658-1.592 7.272zm1.559-7.13.073.093c.582-.46 1.083-.756 1.644-.938s1.188-.253 2.028-.253v-.235c-.852 0-1.507.072-2.101.265s-1.12.506-1.717.977zm3.745-1.216v.118c3.87 0 6.572 4.058 5.12 7.69l.108.044.11.043c1.512-3.782-1.298-8.012-5.338-8.012zm5.228 7.852-.11-.043a13 13 0 0 0-.227.613c-.05.16-.08.291-.082.415-.003.251.115.443.3.749l.1-.061.1-.061c-.194-.322-.267-.453-.265-.625a1.2 1.2 0 0 1 .071-.345c.05-.152.123-.342.223-.6zm-.019 1.673-.101.06c.045.076.172.247.357.486.188.241.44.56.744.936.606.753 1.414 1.74 2.303 2.816a498 498 0 0 0 5.334 6.349l.09-.077.089-.077a477 477 0 0 1-7.633-9.159 70 70 0 0 1-.741-.933 7 7 0 0 1-.34-.46zm8.726 10.57-.088.077c.26.299.535.57.771.766q.179.15.323.238a1 1 0 0 0 .136.07.4.4 0 0 0 .132.031v-.235h-.003l-.009-.002-.032-.01a1 1 0 0 1-.102-.054 3 3 0 0 1-.294-.218 7 7 0 0 1-.745-.74zm1.274 1.065v.117c.061 0 .148-.015.246-.036q.152-.034.352-.092c.265-.077.582-.183.888-.298l-.041-.11-.041-.11a13 13 0 0 1-.871.292q-.196.057-.338.089-.144.03-.195.03zm1.445-.419.043.11c2.773-1.099 5.69.128 6.845 2.883l.108-.046.109-.045c-1.204-2.873-4.256-4.156-7.148-3.01zm6.996 2.947-.108.046c.738 1.752.094 4.134-1.492 5.57l.079.087.079.088c1.646-1.492 2.333-3.977 1.55-5.837zm-1.521 5.703-.078-.087c-.565.508-1.047.835-1.57 1.038-.524.202-1.098.282-1.85.282v.235c.769 0 1.374-.082 1.934-.298s1.066-.564 1.643-1.082zm-3.498 1.35v-.117c-.528 0-.882-.029-1.24-.129-.36-.1-.73-.276-1.29-.58l-.055.104-.056.103c.561.305.951.49 1.338.6.388.108.767.137 1.303.137zm-2.585-.722.056-.103a8 8 0 0 0-1.106-.512 2.5 2.5 0 0 0-.413-.11.8.8 0 0 0-.319.003l.033.113.032.113a.5.5 0 0 1 .217.002q.154.024.372.1c.292.103.656.27 1.071.497zm-1.75-.609-.028-.114a1 1 0 0 0-.187.086q-.12.065-.3.175c-.24.146-.56.349-.933.592-.747.487-1.716 1.139-2.72 1.826-2.004 1.373-4.152 2.892-4.935 3.522l.073.092.074.092c.775-.624 2.915-2.138 4.921-3.512a155 155 0 0 1 2.715-1.823c.373-.243.69-.445.927-.589q.178-.108.29-.17a2 2 0 0 1 .13-.062h.002zm-9.03 6.179-.074-.09c-.472.386-.761.675-.848 1.032-.086.356.037.753.282 1.328l.108-.046.108-.046c-.249-.584-.335-.91-.27-1.18.066-.271.29-.515.769-.907zm-.532 2.224-.108.045c.23.551.332 1.265.311 1.984-.02.718-.166 1.428-.423 1.97l.106.05.106.051c.275-.58.425-1.323.446-2.064s-.084-1.491-.33-2.08zm-.114 4.05-.106-.05c-.286.598-.787 1.204-1.377 1.707s-1.26.898-1.878 1.082l.034.112.034.113c.656-.196 1.355-.61 1.962-1.128.608-.519 1.133-1.15 1.437-1.786zm-3.327 2.851-.032-.113c-.64.18-1.147.267-1.623.262s-.928-.1-1.46-.297l-.04.11-.041.11c.55.203 1.03.307 1.538.312s1.038-.088 1.69-.27zm-2.833-20.988h.118V28.668h-.235v10.836zm0-10.836.095-.07-.608-.836-.095.07-.095.068.608.837zm-.608-.837.094-.07c-.172-.23-.34-.441-.473-.596a3 3 0 0 0-.172-.188l-.067-.059-.037-.023a.15.15 0 0 0-.067-.018v.235a.1.1 0 0 1-.04-.009q-.005 0 .002.003.014.01.044.04.06.058.159.172c.128.15.293.357.463.584zm-.722-.836v-.118c-.025 0-.045.008-.052.01l-.026.013-.047.03a3 3 0 0 0-.13.098 17 17 0 0 0-.43.357c-.361.307-.862.744-1.455 1.269a473 473 0 0 0-4.296 3.862 460 460 0 0 0-4.25 3.905c-.578.54-1.06.995-1.396 1.322q-.255.248-.394.393a3 3 0 0 0-.141.162l-.015.026a.13.13 0 0 0-.014.059h.235c0 .025-.01.042-.01.043l-.001.003.019-.024q.03-.037.097-.107.135-.14.387-.386c.336-.326.816-.78 1.393-1.32a463 463 0 0 1 4.248-3.902c1.55-1.409 3.108-2.81 4.294-3.86.592-.525 1.092-.961 1.45-1.266q.271-.23.425-.352a3 3 0 0 1 .145-.107q.004 0 0 0a.1.1 0 0 1-.036.007zM21.114 38.383h-.117a.3.3 0 0 0 .012.073l.026.092q.033.111.092.283c.076.227.181.523.296.828l.11-.04.11-.042a27 27 0 0 1-.294-.82 10 10 0 0 1-.112-.359c-.007-.026-.005-.026-.005-.016zm.419 1.235-.11.04c.224.618.39 1.496.372 1.99l.118.004.117.005c.02-.533-.155-1.442-.387-2.079zm.38 2.034-.118-.004c-.019.516-.019 1.088-.019 1.278h.235c0-.19 0-.758.02-1.27zm-.02 1.274-.117.005c.003.065.04.125.074.172q.059.078.157.172.198.188.565.463c.487.366 1.198.848 2.098 1.426 1.801 1.156 4.37 2.702 7.45 4.48l.059-.102.058-.102c-3.079-1.777-5.643-3.32-7.44-4.474a37 37 0 0 1-2.084-1.416 6 6 0 0 1-.543-.445 1 1 0 0 1-.13-.142c-.031-.04-.03-.052-.029-.042zm10.286 6.616-.06.101c.846.494 1.422.807 1.815.974q.292.126.48.15c.128.018.242.002.33-.07l-.075-.09-.074-.091c-.017.014-.055.031-.15.019a1.7 1.7 0 0 1-.419-.134c-.377-.16-.942-.466-1.788-.96zm2.49 1.064.076.09a.47.47 0 0 0 .122-.236c.027-.104.05-.244.07-.429.041-.369.072-.931.094-1.757.046-1.654.06-4.379.06-8.77h-.235c0 4.392-.014 7.114-.06 8.763-.022.826-.052 1.38-.092 1.739-.02.18-.041.307-.064.394a.5.5 0 0 1-.033.093c-.01.02-.016.025-.014.024zm5.513-1.52.063.1c4.068-2.558 6.484-4.094 7.895-5.038.705-.472 1.162-.799 1.45-1.032a3 3 0 0 0 .32-.293.6.6 0 0 0 .14-.23l-.115-.028-.114-.029a.4.4 0 0 1-.086.13c-.06.068-.154.155-.294.268-.278.226-.728.547-1.432 1.019-1.407.942-3.82 2.476-7.89 5.033zm9.753-6.521.114.028c.031-.125.065-.415.093-.777.03-.366.053-.815.063-1.264l-.118-.002-.117-.003c-.01.445-.033.89-.062 1.25a6 6 0 0 1-.087.74zm.152-2.015.118.004.056-1.597-.117-.004-.117-.005-.057 1.597zm.057-1.597.09-.076-4.145-4.924-.09.076-.09.075 4.145 4.925zM46 34.029l.09-.076c-2.225-2.633-3.747-4.398-4.761-5.505a19 19 0 0 0-1.17-1.198 3 3 0 0 0-.354-.285.53.53 0 0 0-.269-.107v.235c.01 0 .052.01.14.068q.122.08.326.263c.272.246.648.631 1.154 1.183 1.01 1.103 2.53 2.864 4.754 5.498zm-6.464-7.053v-.118a.4.4 0 0 0-.113.024q-.056.02-.128.054a5 5 0 0 0-.352.185c-.271.154-.611.364-.955.594l.065.097.066.098c.34-.227.675-.434.94-.585q.201-.114.335-.176.066-.03.107-.045c.03-.01.04-.01.035-.01zm-1.483.836-.065-.098-1.255.837.065.098.066.098 1.255-.837zm-1.255.837h-.117l.057 10.818h.117l.118-.002-.057-10.817zm.057 10.817h-.117c.029 4.848.062 7.683.133 9.307.036.81.081 1.325.142 1.639q.044.233.113.354c.049.085.122.148.224.148v-.235h.002q.002.002 0 0a.1.1 0 0 1-.023-.03 1 1 0 0 1-.086-.282c-.057-.295-.101-.794-.137-1.605-.071-1.618-.104-4.448-.133-9.297zm.495 11.33-.053.106a.12.12 0 0 0 .09.008l.029-.01.058-.028.181-.099c.151-.086.365-.212.623-.368.516-.312 1.216-.744 1.967-1.22l-.063-.1-.062-.099c-.75.476-1.449.907-1.964 1.218-.257.156-.468.28-.617.365a5 5 0 0 1-.212.113q-.006.002 0 0l.017-.002c.005 0 .03-.003.058.012z"/></g><defs><clipPath id="clip0_22942_32429"><path fill="#fff" d="M0 0h72v72H0z"/></clipPath></defs></svg>