<svg xmlns="http://www.w3.org/2000/svg" width="72" height="72" fill="none" viewBox="0 0 72 72"><g clip-path="url(#a)"><path fill="#41a5ee" d="M68.93 2.51H19.814a3.07 3.07 0 0 0-3.069 3.069v13.675l28.465 8.372L72 19.254V5.579a3.07 3.07 0 0 0-3.07-3.07"/><path fill="#2b7cd3" d="M72 19.254H16.744v16.744l28.465 5.023L72 35.998z"/><path fill="#185abd" d="M16.744 35.998v16.744l26.79 3.35L72 52.741V35.998z"/><path fill="#103f91" d="M19.813 69.486h49.118A3.07 3.07 0 0 0 72 66.417V52.742H16.744v13.675a3.07 3.07 0 0 0 3.07 3.07"/><path fill="#000" d="M37.117 15.905H16.744v41.86h20.373a3.08 3.08 0 0 0 3.069-3.068V18.974a3.08 3.08 0 0 0-3.07-3.069" opacity=".1"/><path fill="#000" d="M35.442 17.58H16.744v41.86h18.698a3.08 3.08 0 0 0 3.07-3.07V20.65a3.08 3.08 0 0 0-3.07-3.07" opacity=".2"/><path fill="#000" d="M35.442 17.58H16.744v38.51h18.698a3.08 3.08 0 0 0 3.07-3.069V20.649a3.08 3.08 0 0 0-3.07-3.07" opacity=".2"/><path fill="#000" d="M33.768 17.58H16.744v38.51h17.024a3.08 3.08 0 0 0 3.07-3.069V20.649a3.08 3.08 0 0 0-3.07-3.07" opacity=".2"/><path fill="url(#b)" d="M3.07 17.58h30.698a3.07 3.07 0 0 1 3.07 3.069v30.699a3.07 3.07 0 0 1-3.07 3.069H3.069A3.07 3.07 0 0 1 0 51.347V20.65a3.07 3.07 0 0 1 3.07-3.07"/><path fill="#fff" d="M12.595 41.118q.09.71.119 1.24h.07q.04-.503.167-1.211.128-.708.23-1.197l3.228-13.928h4.174l3.35 13.718q.291 1.281.416 2.589h.055a20 20 0 0 1 .349-2.512l2.67-13.802h3.8l-4.692 19.96h-4.439l-3.181-13.219q-.14-.57-.313-1.488a18 18 0 0 1-.216-1.34h-.056q-.055.487-.216 1.447-.16.96-.258 1.42l-2.99 13.176h-4.514L5.63 26.02h3.868l2.908 13.957q.098.43.188 1.14"/></g><defs><linearGradient id="b" x1="6.399" x2="30.438" y1="15.181" y2="56.815" gradientUnits="userSpaceOnUse"><stop stop-color="#2368c4"/><stop offset=".5" stop-color="#1a5dbe"/><stop offset="1" stop-color="#1146ac"/></linearGradient><clipPath id="a"><path fill="#fff" d="M0 0h72v72H0z"/></clipPath></defs></svg>