<svg xmlns="http://www.w3.org/2000/svg" width="72" height="72" fill="none" viewBox="0 0 72 72"><g clip-path="url(#a)"><path fill="#0a2767" d="M72 37.673a1.61 1.61 0 0 0-.767-1.382h-.008l-.03-.017-24.95-14.768a3.35 3.35 0 0 0-3.74 0L17.556 36.274l-.03.017a1.626 1.626 0 0 0 .039 2.785l24.949 14.768q.162.108.334.2a3.35 3.35 0 0 0 3.406-.2l24.95-14.768c.498-.29.802-.827.796-1.404"/><path fill="#0364b8" d="M20.464 27.812h16.373V42.82H20.464zm48.187-15.256V5.691a3.11 3.11 0 0 0-3.036-3.181H23.128a3.11 3.11 0 0 0-3.035 3.181v6.865l25.116 6.698z"/><path fill="#0078d4" d="M20.093 12.556h16.744v15.07H20.093z"/><path fill="#28a8ea" d="M53.581 12.556H36.837v15.07l16.744 15.07h15.07v-15.07z"/><path fill="#0078d4" d="M36.837 27.626H53.58v15.07H36.837z"/><path fill="#0364b8" d="M36.837 42.696H53.58v15.07H36.837z"/><path fill="#14447d" d="M20.465 42.82h16.372v13.643H20.465z"/><path fill="#0078d4" d="M53.581 42.696h15.07v15.07H53.58z"/><path fill="url(#b)" d="m71.233 38.983-.032.017-24.949 14.032q-.161.101-.335.187a3.5 3.5 0 0 1-1.352.335l-1.363-.797a3 3 0 0 1-.335-.192l-25.284-14.43h-.012l-.827-.463v28.405a3.433 3.433 0 0 0 3.454 3.41H68.6c.029 0 .054-.014.084-.014.4-.026.795-.108 1.172-.245q.245-.103.47-.244c.113-.064.305-.203.305-.203A3.38 3.38 0 0 0 72 66.077V37.672c0 .544-.294 1.045-.767 1.311"/><path fill="#0a2767" d="M70.66 37.56v1.742L44.573 57.263 17.564 38.146a.02.02 0 0 0-.017-.017l-2.478-1.49v-1.256l1.022-.016 2.16 1.239.05.017.184.117S43.87 51.224 43.936 51.257l.971.57c.084-.034.168-.068.268-.101.05-.034 25.2-14.183 25.2-14.183z" opacity=".5"/><path fill="#1490df" d="m71.233 38.983-.032.019-24.949 14.031q-.161.102-.335.188a3.5 3.5 0 0 1-3.405-.188l-24.95-14.031-.03-.019a1.51 1.51 0 0 1-.788-1.31v28.404a3.43 3.43 0 0 0 3.453 3.41h48.35A3.43 3.43 0 0 0 72 66.076V37.672c0 .544-.294 1.045-.767 1.311"/><path fill="#000" d="m46.616 52.826-.373.209q-.162.103-.335.19a3.5 3.5 0 0 1-1.316.347l9.492 11.226 16.558 3.99a3.4 3.4 0 0 0 1.05-1.311z" opacity=".1"/><path fill="#000" d="m48.307 51.875-2.064 1.16a3.5 3.5 0 0 1-1.651.537l4.447 12.263 21.608 2.948A3.39 3.39 0 0 0 72 66.077v-.366z" opacity=".05"/><path fill="#28a8ea" d="M20.244 69.486h48.298a3.47 3.47 0 0 0 2.068-.67L43.2 52.762a3 3 0 0 1-.335-.193l-25.284-14.43h-.011l-.826-.466V65.98a3.503 3.503 0 0 0 3.5 3.506"/><path fill="#000" d="M40.186 18.975V54.69a3.08 3.08 0 0 1-1.926 2.846c-.36.155-.747.235-1.138.235H16.744V17.58h3.349v-1.675h17.029a3.076 3.076 0 0 1 3.064 3.07" opacity=".1"/><path fill="#000" d="M38.512 20.649v35.715c.004.405-.082.805-.252 1.172a3.05 3.05 0 0 1-2.813 1.904H16.744V17.58h18.703c.486-.005.965.116 1.39.351a3.04 3.04 0 0 1 1.675 2.718" opacity=".2"/><path fill="#000" d="M38.512 20.649v32.366a3.09 3.09 0 0 1-3.065 3.076H16.744V17.58h18.703c.486-.005.965.116 1.39.351a3.04 3.04 0 0 1 1.675 2.718" opacity=".2"/><path fill="#000" d="M36.837 20.649v32.366a3.08 3.08 0 0 1-3.064 3.076H16.744V17.58h17.029a3.066 3.066 0 0 1 3.064 3.067z" opacity=".2"/><path fill="url(#c)" d="M3.07 17.58h30.698a3.07 3.07 0 0 1 3.07 3.069v30.699a3.07 3.07 0 0 1-3.07 3.069H3.069A3.07 3.07 0 0 1 0 51.347V20.65a3.07 3.07 0 0 1 3.07-3.07"/><path fill="#fff" d="M9.593 30.453a8.93 8.93 0 0 1 3.506-3.873 10.6 10.6 0 0 1 5.57-1.397 9.87 9.87 0 0 1 5.157 1.325 8.85 8.85 0 0 1 3.41 3.7 11.94 11.94 0 0 1 1.196 5.442 12.6 12.6 0 0 1-1.23 5.693 9.06 9.06 0 0 1-3.517 3.83 10.26 10.26 0 0 1-5.348 1.359 10.1 10.1 0 0 1-5.27-1.34 9 9 0 0 1-3.456-3.707 11.66 11.66 0 0 1-1.209-5.376 12.95 12.95 0 0 1 1.19-5.657m3.737 9.092a5.8 5.8 0 0 0 1.973 2.548c.901.63 1.98.955 3.08.928a5.4 5.4 0 0 0 3.29-.958 5.55 5.55 0 0 0 1.915-2.549 9.9 9.9 0 0 0 .61-3.554 10.8 10.8 0 0 0-.575-3.6 5.7 5.7 0 0 0-1.855-2.656 5.1 5.1 0 0 0-3.26-1.005 5.3 5.3 0 0 0-3.153.936 5.84 5.84 0 0 0-2.01 2.57 10.2 10.2 0 0 0-.013 7.343z"/><path fill="#50d9ff" d="M53.581 12.556h15.07v15.07H53.58z"/></g><defs><linearGradient id="b" x1="44.372" x2="44.372" y1="37.672" y2="69.486" gradientUnits="userSpaceOnUse"><stop stop-color="#35b8f1"/><stop offset="1" stop-color="#28a8ea"/></linearGradient><linearGradient id="c" x1="6.399" x2="30.438" y1="15.181" y2="56.815" gradientUnits="userSpaceOnUse"><stop stop-color="#1784d9"/><stop offset=".5" stop-color="#107ad5"/><stop offset="1" stop-color="#0a63c9"/></linearGradient><clipPath id="a"><path fill="#fff" d="M0 0h72v72H0z"/></clipPath></defs></svg>