<svg xmlns="http://www.w3.org/2000/svg" width="72" height="72" fill="none" viewBox="0 0 72 72"><path fill="#ca64ea" d="M55.256 69.487H19.81a3.066 3.066 0 0 1-3.066-3.066V5.576A3.066 3.066 0 0 1 19.81 2.51h49.124A3.066 3.066 0 0 1 72 5.576v13.678z"/><path fill="#ae4bd5" d="m72 35.998-8.372 5.023-8.372-5.023V19.254H72z"/><path fill="#9332bf" d="m72 52.742-8.372 5.024-8.372-5.024V35.998H72z"/><path fill="#7719aa" d="M55.256 52.742H72v13.605a3.14 3.14 0 0 1-3.14 3.14H55.257z"/><path fill="#000" d="M37.117 15.905H16.744v41.86h20.373a3.08 3.08 0 0 0 3.069-3.068V18.974a3.08 3.08 0 0 0-3.07-3.069" opacity=".2"/><path fill="#000" d="M35.442 17.58H16.744v41.86h18.698a3.08 3.08 0 0 0 3.07-3.07V20.65a3.08 3.08 0 0 0-3.07-3.07" opacity=".2"/><path fill="#000" d="M35.442 17.58H16.744v38.51h18.698a3.08 3.08 0 0 0 3.07-3.069V20.649a3.08 3.08 0 0 0-3.07-3.07" opacity=".5"/><path fill="#000" d="M33.768 17.58H16.744v38.51h17.024a3.08 3.08 0 0 0 3.07-3.069V20.649a3.08 3.08 0 0 0-3.07-3.07" opacity=".5"/><path fill="url(#a)" d="M3.07 17.58h30.698a3.07 3.07 0 0 1 3.07 3.069v30.699a3.07 3.07 0 0 1-3.07 3.069H3.069A3.07 3.07 0 0 1 0 51.347V20.65a3.07 3.07 0 0 1 3.07-3.07"/><path fill="#fff" d="M10.09 26.022h4.16l8.177 13.228q.557.89.837 1.431h.054q-.152-1.351-.12-2.712V26.022h3.549v19.952h-3.895L14.37 32.38q-.432-.674-.757-1.405h-.067q.128 1.486.105 2.977v12.022H10.09z"/><defs><linearGradient id="a" x1="6.399" x2="30.438" y1="15.181" y2="56.815" gradientUnits="userSpaceOnUse"><stop stop-color="#8324b3"/><stop offset=".5" stop-color="#7a1bac"/><stop offset="1" stop-color="#621197"/></linearGradient></defs></svg>