<svg xmlns="http://www.w3.org/2000/svg" width="72" height="72" fill="none" viewBox="0 0 72 72"><g fill="#00758f" fill-rule="evenodd" clip-path="url(#a)" clip-rule="evenodd"><path d="M66.319 55.31c-3.92-.099-6.955.292-9.5 1.37-.735.293-1.909.293-2.01 1.222.395.391.443 1.027.788 1.567.586.979 1.612 2.298 2.544 2.985 1.029.783 2.057 1.563 3.136 2.248 1.908 1.179 4.064 1.861 5.922 3.036 1.08.684 2.154 1.564 3.235 2.3.537.39.877 1.028 1.565 1.27v-.148c-.345-.44-.441-1.075-.782-1.567-.489-.486-.98-.929-1.47-1.416-1.421-1.908-3.186-3.57-5.092-4.94-1.568-1.08-4.998-2.547-5.632-4.352l-.1-.1c1.079-.1 2.354-.492 3.381-.789 1.663-.439 3.181-.34 4.895-.778.785-.198 1.568-.444 2.355-.685v-.443c-.886-.879-1.52-2.055-2.45-2.886-2.496-2.152-5.241-4.254-8.08-6.018-1.521-.98-3.48-1.612-5.096-2.446-.585-.294-1.563-.439-1.907-.931-.883-1.076-1.374-2.493-2.01-3.767-1.418-2.688-2.792-5.672-4.014-8.514-.88-1.907-1.42-3.814-2.497-5.576-5.047-8.32-10.53-13.357-18.952-18.3-1.812-1.028-3.966-1.468-6.266-2.007-1.226-.05-2.45-.146-3.673-.194-.785-.344-1.57-1.274-2.254-1.714C9.562 1.977 2.367-1.84.309 3.199c-1.322 3.182 1.959 6.312 3.086 7.928.831 1.123 1.91 2.398 2.495 3.668.343.832.441 1.714.786 2.594.782 2.152 1.516 4.55 2.546 6.557.537 1.028 1.124 2.106 1.81 3.031.395.541 1.078.783 1.226 1.666-.684.978-.737 2.446-1.128 3.67-1.762 5.529-1.078 12.378 1.42 16.439.782 1.223 2.645 3.915 5.143 2.885 2.203-.88 1.714-3.668 2.35-6.113.146-.592.048-.98.341-1.37v.098c.685 1.368 1.373 2.686 2.009 4.06 1.52 2.396 4.162 4.892 6.368 6.554 1.171.884 2.103 2.398 3.572 2.938v-.148h-.097c-.295-.439-.734-.636-1.126-.977-.881-.881-1.859-1.958-2.547-2.936-2.056-2.739-3.87-5.774-5.483-8.905-.785-1.52-1.47-3.183-2.107-4.699-.293-.584-.293-1.467-.784-1.76-.736 1.075-1.81 2.006-2.349 3.323-.93 2.107-1.028 4.7-1.373 7.392-.195.05-.096 0-.195.097-1.565-.391-2.104-2.006-2.693-3.371-1.469-3.479-1.716-9.056-.44-13.069.34-1.025 1.814-4.255 1.224-5.233-.296-.934-1.275-1.467-1.812-2.204-.636-.93-1.325-2.101-1.761-3.13-1.176-2.74-1.768-5.775-3.037-8.514-.588-1.274-1.618-2.595-2.448-3.767-.932-1.322-1.96-2.251-2.695-3.815-.243-.54-.586-1.42-.196-2.006.096-.392.295-.54.688-.638.633-.538 2.447.145 3.082.44 1.813.731 3.331 1.42 4.847 2.445.687.49 1.421 1.42 2.301 1.667h1.03c1.567.34 3.331.095 4.801.537 2.594.831 4.944 2.054 7.05 3.376 6.414 4.061 11.703 9.836 15.276 16.734.589 1.124.836 2.152 1.373 3.324 1.029 2.402 2.303 4.849 3.33 7.195 1.027 2.3 2.008 4.646 3.48 6.557.732 1.026 3.671 1.564 4.994 2.103.977.439 2.497.831 3.379 1.368 1.665 1.026 3.326 2.202 4.896 3.33.781.587 3.23 1.808 3.378 2.788"/><path d="M16.37 12.786c-.83 0-1.417.1-2.008.245v.099h.095c.396.78 1.082 1.323 1.568 2.007.394.783.738 1.563 1.129 2.347.048-.048.095-.1.095-.1.69-.487 1.033-1.269 1.033-2.445-.296-.345-.342-.684-.59-1.028-.292-.489-.93-.733-1.322-1.125"/></g><defs><clipPath id="a"><path fill="#fff" d="M0 0h72v72H0z"/></clipPath></defs></svg>