<svg xmlns="http://www.w3.org/2000/svg" width="72" height="72" fill="none" viewBox="0 0 72 72"><g clip-path="url(#a)"><path fill="#00758f" d="M17.31 56.08h-2.78q-.146-7.027-.81-13.217h-.025L9.466 56.08H7.351L3.147 42.863h-.025q-.467 5.944-.59 13.217H-.001q.245-8.845 1.229-16.584h3.443L8.68 51.68h.025l4.032-12.185h3.295q1.081 9.065 1.278 16.584m12.05-12.235q-1.697 9.2-4.476 13.37-2.164 3.214-4.745 3.214-.69 0-1.697-.412v-1.479q.492.073 1.156.074 1.204 0 1.943-.665.885-.809.885-1.817 0-.688-.689-2.825l-3.049-9.46h2.73l2.188 7.075q.737 2.41.614 3.367 1.795-4.79 2.509-10.442z"/><path fill="#f29111" d="M41.53 51.483q-.001 2.11-1.549 3.465-1.548 1.35-4.153 1.35c-1.624 0-3.197-.52-4.722-1.549l.713-1.424q1.967.982 3.565.982 1.5-.001 2.348-.662c.565-.442.903-1.059.903-1.841 0-.985-.687-1.827-1.948-2.533a305 305 0 0 1-3.491-1.97c-1.26-.92-1.893-1.906-1.893-3.53q0-2.016 1.413-3.255 1.414-1.242 3.651-1.242 2.312 0 4.205 1.23l-.642 1.423q-1.62-.687-3.194-.687-1.279 0-1.966.615c-.46.408-.745.932-.745 1.571 0 .982.703 1.834 2 2.554 1.178.639 3.562 1.997 3.562 1.997 1.296.918 1.943 1.895 1.943 3.506"/><path fill="#f29111" fill-rule="evenodd" d="M46.496 52.762q-1.01-1.62-1.01-5.208 0-6.264 3.812-6.265 1.992 0 2.926 1.498 1.008 1.622 1.009 5.16 0 6.315-3.812 6.315-1.992 0-2.925-1.5m9.884 3.718-3.05-1.503a5.7 5.7 0 0 0 .762-.741q1.944-2.283 1.944-6.755 0-8.231-6.467-8.232-3.172 0-4.943 2.09-1.942 2.285-1.942 6.731 0 4.374 1.72 6.412 1.569 1.843 4.744 1.843 1.185 0 2.173-.291l3.973 2.31 1.083-1.864" clip-rule="evenodd"/><path fill="#f29111" d="M66.339 56.08h-7.893V39.496h2.656V54.04h5.237zm1.894-.002h.44v-1.687h.576v-.345h-1.614v.345h.598zm3.349 0h.415v-2.032h-.624l-.508 1.385-.553-1.385h-.601v2.032h.392v-1.546h.023l.579 1.546h.299l.578-1.546z"/><path fill="#00758f" fill-rule="evenodd" d="M69.673 33.94c-1.605-.04-2.848.12-3.89.562-.302.12-.782.12-.823.5.161.16.18.42.322.642.24.4.66.941 1.042 1.222.421.321.842.64 1.284.921.782.483 1.664.762 2.425 1.244.443.28.883.64 1.325.941.22.16.36.422.641.52v-.06c-.141-.18-.18-.44-.32-.642-.2-.199-.401-.38-.602-.58a9.6 9.6 0 0 0-2.085-2.023c-.643-.442-2.047-1.043-2.307-1.782 0 0-.02-.022-.04-.041.44-.04.963-.201 1.384-.323.68-.18 1.303-.14 2.004-.319.322-.08.643-.182.965-.28v-.182c-.363-.36-.623-.841-1.004-1.182-1.022-.88-2.146-1.742-3.309-2.464-.623-.401-1.425-.66-2.087-1.002-.24-.12-.64-.18-.78-.381-.362-.441-.563-1.021-.823-1.543A50 50 0 0 1 61.35 24.2c-.36-.78-.581-1.562-1.023-2.284-2.066-3.407-4.311-5.47-7.76-7.494-.743-.421-1.625-.601-2.567-.822-.502-.02-1.003-.06-1.505-.08-.32-.14-.642-.521-.922-.702-1.144-.72-4.09-2.283-4.934-.22-.541 1.304.802 2.585 1.264 3.247.34.46.782.982 1.022 1.502.14.341.18.702.322 1.062.32.882.62 1.864 1.043 2.686.22.421.46.862.74 1.241.162.222.442.321.503.683-.28.4-.302 1.001-.462 1.503-.722 2.264-.442 5.07.582 6.732.32.5 1.083 1.603 2.106 1.182.902-.36.702-1.503.962-2.504.06-.242.02-.401.14-.561v.04c.28.56.562 1.1.823 1.663.622.981 1.704 2.003 2.607 2.684.48.362.862.982 1.463 1.203v-.06h-.04c-.12-.18-.3-.26-.46-.4a10 10 0 0 1-1.044-1.203c-.842-1.122-1.585-2.365-2.245-3.647-.322-.623-.602-1.303-.863-1.924-.12-.24-.12-.601-.32-.721-.303.44-.743.821-.963 1.36-.381.863-.421 1.925-.562 3.028-.08.02-.04 0-.08.04-.641-.16-.862-.822-1.103-1.38-.602-1.425-.703-3.71-.18-5.353.14-.42.742-1.743.5-2.143-.12-.383-.521-.6-.741-.903a8 8 0 0 1-.721-1.282c-.482-1.122-.724-2.365-1.244-3.486-.24-.522-.663-1.063-1.003-1.543-.382-.542-.802-.922-1.104-1.563-.099-.22-.24-.581-.08-.821.04-.16.121-.221.282-.261.26-.22 1.002.06 1.262.18.743.3 1.365.581 1.986 1.001.28.201.581.582.942.683h.422c.641.139 1.364.039 1.966.22 1.062.34 2.024.841 2.887 1.382a17.8 17.8 0 0 1 6.256 6.854c.241.46.342.881.563 1.36.42.985.943 1.987 1.363 2.948.42.941.823 1.902 1.425 2.685.3.42 1.504.64 2.045.861.4.18 1.023.34 1.384.56.682.42 1.363.902 2.005 1.364.32.24 1.324.74 1.384 1.142" clip-rule="evenodd"/><path fill="#00758f" fill-rule="evenodd" d="M49.217 16.525c-.34 0-.58.041-.822.1v.041h.038c.163.32.444.542.642.822.162.32.302.64.463.961l.039-.04c.283-.2.423-.52.423-1.002-.122-.141-.14-.28-.242-.421-.12-.2-.38-.3-.541-.46" clip-rule="evenodd"/></g><defs><clipPath id="a"><path fill="#fff" d="M0 0h72v72H0z"/></clipPath></defs></svg>