<svg xmlns="http://www.w3.org/2000/svg" width="72" height="72" fill="none" viewBox="0 0 72 72"><path fill="#ea4b71" fill-rule="evenodd" d="M72 24.385a7.385 7.385 0 0 1-14.536 1.846h-10.31a3.69 3.69 0 0 0-3.643 3.085l-.303 1.821a7.37 7.37 0 0 1-2.4 4.325 7.37 7.37 0 0 1 2.4 4.324l.303 1.821a3.69 3.69 0 0 0 3.642 3.085h2.926a7.385 7.385 0 1 1 0 3.692h-2.926c-3.61 0-6.69-2.61-7.284-6.17l-.303-1.821a3.69 3.69 0 0 0-3.642-3.085h-3.012a7.388 7.388 0 0 1-14.131 0h-4.33a7.385 7.385 0 1 1 .159-3.692h4.012a7.387 7.387 0 0 1 14.448 0h2.854a3.69 3.69 0 0 0 3.642-3.086l.303-1.82a7.385 7.385 0 0 1 7.284-6.172h10.31A7.385 7.385 0 0 1 72 24.385m-3.692 0a3.692 3.692 0 1 1-7.385 0 3.692 3.692 0 0 1 7.385 0M7.385 38.846a3.692 3.692 0 1 0 0-7.384 3.692 3.692 0 0 0 0 7.384m18.461 0a3.692 3.692 0 1 0 0-7.384 3.692 3.692 0 0 0 0 7.384m31.385 11.385a3.692 3.692 0 1 0 0-7.385 3.692 3.692 0 0 0 0 7.385" clip-rule="evenodd"/></svg>