<svg xmlns="http://www.w3.org/2000/svg" width="72" height="72" fill="none" viewBox="0 0 72 72"><path fill="#ff5100" d="M65.271 16.042a6.74 6.74 0 0 0-5.893 3.47l-.137.282-5.252 10.417-6.681 13.167 4.377 8.626.24.471a6.85 6.85 0 0 0 2.921 2.767 6.9 6.9 0 0 0 2.921-2.767l.24-.471 13.115-25.88.317-.625a6.732 6.732 0 0 0-6.159-9.423zM24.735 28.575l-4.369-8.567-.24-.47a6.76 6.76 0 0 0-2.912-2.76 6.8 6.8 0 0 0-2.913 2.75l-.248.48L.921 45.862l-.317.617a6.733 6.733 0 0 0 12.044 5.996l.146-.274 5.285-10.417 6.673-13.158z"/><path fill="url(#a)" d="M65.254 16.042a6.73 6.73 0 0 0-5.885 3.47l-.146.282-5.286 10.417-6.69 13.167 4.386 8.626.24.471a6.8 6.8 0 0 0 2.921 2.767 6.8 6.8 0 0 0 2.921-2.767l.249-.471 13.158-25.88.308-.625a6.734 6.734 0 0 0-6.16-9.423z"/><path fill="url(#b)" d="M6.754 55.944a6.73 6.73 0 0 0 5.885-3.427l.146-.282 5.294-10.417 6.682-13.166-4.378-8.67-.24-.47a6.85 6.85 0 0 0-2.93-2.768 6.85 6.85 0 0 0-2.92 2.767l-.24.471L.878 45.862l-.317.625A6.733 6.733 0 0 0 6.72 55.91z"/><path fill="#ff8c44" d="m24.735 28.575-4.369-8.567-.24-.471a6.8 6.8 0 0 0-2.92-2.767q.614-.3 1.276-.48a7 7 0 0 1 1.713-.214h9.149a6.79 6.79 0 0 1 5.876 3.427l.24.47 11.83 23.439 4.36 8.566.24.471a6.85 6.85 0 0 0 2.956 2.793 6.9 6.9 0 0 1-2.973.694h-9.2a6.78 6.78 0 0 1-5.868-3.427l-.248-.471z"/><defs><linearGradient id="a" x1="50.554" x2="67.704" y1="53.263" y2="16.487" gradientUnits="userSpaceOnUse"><stop stop-color="#d4202c"/><stop offset=".1" stop-color="#dc3d29" stop-opacity=".79"/><stop offset=".2" stop-color="#e45926" stop-opacity=".58"/><stop offset=".32" stop-color="#ea7123" stop-opacity=".4"/><stop offset=".43" stop-color="#f08521" stop-opacity=".25"/><stop offset=".55" stop-color="#f4941f" stop-opacity=".14"/><stop offset=".68" stop-color="#f79f1e" stop-opacity=".06"/><stop offset=".82" stop-color="#f8a51d" stop-opacity=".02"/><stop offset="1" stop-color="#f9a71d" stop-opacity="0"/></linearGradient><linearGradient id="b" x1="21.454" x2="4.304" y1="18.723" y2="55.499" gradientUnits="userSpaceOnUse"><stop stop-color="#d4202c"/><stop offset=".1" stop-color="#dc3d29" stop-opacity=".79"/><stop offset=".2" stop-color="#e45926" stop-opacity=".58"/><stop offset=".32" stop-color="#ea7123" stop-opacity=".4"/><stop offset=".43" stop-color="#f08521" stop-opacity=".25"/><stop offset=".55" stop-color="#f4941f" stop-opacity=".14"/><stop offset=".68" stop-color="#f79f1e" stop-opacity=".06"/><stop offset=".82" stop-color="#f8a51d" stop-opacity=".02"/><stop offset="1" stop-color="#f9a71d" stop-opacity="0"/></linearGradient></defs></svg>