<svg xmlns="http://www.w3.org/2000/svg" width="72" height="72" fill="none" viewBox="0 0 72 72"><g fill-rule="evenodd" clip-path="url(#a)" clip-rule="evenodd"><path fill="#fff" d="M6.931 2.942 44.558.162c2.296-.196 4.03-.263 5.604.095 1.641.373 2.93 1.164 4.435 2.256l12.015 8.465.016.011.31.227c.773.564 1.553 1.133 2.084 1.75.793.92 1.062 1.915 1.062 3.072v46.404c0 1.64-.286 3.39-1.487 4.758-1.22 1.387-3.021 1.98-5.124 2.129h-.01l-43.718 2.647h-.013c-1.455.07-2.807.022-4.052-.434-1.314-.48-2.29-1.33-3.165-2.445l-.006-.008L3.65 57.57l-.007-.01C1.917 55.256 1 53.256 1 50.808V9.559c0-1.454.32-3.037 1.33-4.334 1.05-1.349 2.633-2.113 4.589-2.282z"/><path fill="#000" d="M44.718 2.157 7.09 4.935C4.056 5.198 3 7.182 3 9.56v41.249c0 1.852.657 3.436 2.244 5.553l8.844 11.5c1.453 1.853 2.775 2.25 5.55 2.118l43.693-2.645c3.695-.263 4.753-1.984 4.753-4.892V16.037c0-1.502-.594-1.935-2.341-3.218l-.302-.218L53.433 4.14c-2.906-2.113-4.094-2.38-8.715-1.983M20.625 15.278c-3.567.24-4.376.295-6.403-1.353L9.07 9.827c-.524-.53-.26-1.192 1.059-1.324l36.17-2.643c3.038-.265 4.62.794 5.808 1.718l6.204 4.495c.265.134.924.925.131.925l-37.354 2.248zm-4.159 46.768V22.652c0-1.72.528-2.514 2.11-2.648l42.903-2.511c1.456-.132 2.113.793 2.113 2.511v39.131c0 1.72-.265 3.176-2.64 3.307l-41.056 2.38c-2.376.132-3.43-.66-3.43-2.776m40.528-37.282c.263 1.19 0 2.38-1.19 2.516l-1.98.392v29.086c-1.717.924-3.3 1.453-4.62 1.453-2.113 0-2.641-.662-4.224-2.643l-12.94-20.36v19.698l4.094.927s0 2.38-3.303 2.38l-9.105.528c-.265-.53 0-1.852.923-2.115l2.377-.66V29.924l-3.3-.268c-.265-1.19.395-2.908 2.244-3.041l9.77-.658 13.463 20.622V28.334l-3.431-.394c-.266-1.458.79-2.516 2.11-2.646z"/></g><defs><clipPath id="a"><path fill="#fff" d="M0 .002h72v72H0z"/></clipPath></defs></svg>