<svg xmlns="http://www.w3.org/2000/svg" width="72" height="72" fill="none" viewBox="0 0 72 72"><g clip-path="url(#a)"><path fill="#fff" fill-rule="evenodd" d="m39.605.5-1.48 18.24c-.7-.08-1.4-.12-2.12-.12-.9 0-1.78.06-2.64.2l-.84-8.84c-.02-.28.2-.52.48-.52h1.5l-.72-8.94c-.02-.28.2-.52.46-.52h4.9c.28 0 .5.24.46.52zm-12.36.9c-.08-.26-.36-.42-.62-.32l-4.6 1.68c-.26.1-.38.4-.26.64l3.74 8.16-1.42.52c-.26.1-.38.4-.26.64l3.82 8.02c1.38-.76 2.88-1.34 4.46-1.7L27.265 1.4zm-11.28 5.08 10.58 14.92c-1.34.88-2.56 1.92-3.6 3.12l-6.34-6.24c-.2-.2-.18-.52.02-.7l1.16-.96-6.3-6.38c-.2-.2-.18-.52.04-.7l3.74-3.14c.22-.18.52-.14.68.08zm-8.88 8.64c-.22-.16-.54-.08-.68.16l-2.44 4.24c-.14.24-.04.54.2.66l8.12 3.84-.76 1.3a.46.46 0 0 0 .22.66l8.08 3.7c.58-1.5 1.36-2.9 2.32-4.16zm-5.98 11.52c.04-.28.32-.44.58-.38l17.7 4.62c-.46 1.5-.72 3.08-.76 4.72l-8.86-.72a.462.462 0 0 1-.42-.56l.26-1.48L.665 32c-.28-.02-.46-.28-.42-.56l.84-4.82zM.445 38.6c-.28.02-.46.28-.42.56l.86 4.82c.04.28.32.44.58.38l8.68-2.26.26 1.48c.04.28.32.44.58.38l8.56-2.36c-.5-1.48-.82-3.06-.9-4.68L.425 38.6zm2.84 12.68a.473.473 0 0 1 .2-.66l16.52-7.84c.62 1.48 1.46 2.86 2.46 4.1l-7.24 5.16a.47.47 0 0 1-.68-.14l-.76-1.32-7.38 5.1c-.22.16-.54.08-.68-.16l-2.46-4.24zm20.02-3.44-12.86 13.02c-.2.2-.18.52.04.7l3.76 3.14c.22.18.52.14.68-.08l5.2-7.32 1.16.98c.22.18.54.14.7-.1l5.04-7.32c-1.36-.84-2.62-1.86-3.7-3.02zm-2.54 20.9c-.26-.1-.38-.4-.26-.64l7.62-16.64c1.4.72 2.92 1.26 4.5 1.56l-2.24 8.6c-.06.26-.36.42-.62.32l-1.42-.52-2.38 8.66c-.08.26-.36.42-.62.32l-4.6-1.68zm13.12-15.5-1.48 18.24c-.02.28.2.52.46.52h4.9c.28 0 .5-.24.46-.52l-.72-8.94h1.5c.28 0 .5-.24.48-.52l-.84-8.84c-.86.14-1.74.2-2.64.2-.72 0-1.42-.04-2.12-.14m17.64-49.38c.12-.26 0-.54-.26-.64l-4.6-1.68c-.26-.1-.54.06-.62.32l-2.38 8.66-1.42-.52c-.26-.1-.54.06-.62.32l-2.24 8.6c1.6.32 3.1.86 4.5 1.56zm10.04 7.26-12.86 13.02a17.5 17.5 0 0 0-3.7-3.02l5.04-7.32c.16-.22.48-.28.7-.1l1.16.98 5.2-7.32c.16-.22.48-.26.68-.08l3.76 3.14c.22.18.22.5.04.7zm6.96 10.24c.26-.12.34-.42.2-.66l-2.46-4.24a.49.49 0 0 0-.68-.16l-7.38 5.1-.76-1.3c-.14-.24-.46-.32-.68-.14l-7.24 5.16c1 1.24 1.82 2.62 2.46 4.1l16.52-7.84zm2.6 6.64.84 4.82c.04.28-.14.52-.42.56l-18.22 1.7c-.08-1.64-.4-3.2-.9-4.68l8.56-2.36c.26-.08.54.1.58.38l.26 1.48 8.68-2.26c.26-.06.54.1.58.38zm-.82 17.7c.26.06.54-.1.58-.38l.84-4.82a.483.483 0 0 0-.42-.56l-8.94-.84.26-1.48a.483.483 0 0 0-.42-.56l-8.86-.72c-.04 1.64-.3 3.22-.76 4.72l17.7 4.62zm-4.72 11c-.14.24-.46.3-.68.16l-15.06-10.4c.96-1.26 1.74-2.66 2.32-4.16l8.08 3.7c.26.12.36.42.22.66l-.76 1.3 8.12 3.84c.24.12.34.42.2.66zm-20.14-6.14 10.58 14.92c.16.22.48.26.68.08l3.74-3.14c.22-.18.22-.5.04-.7l-6.3-6.38 1.16-.96c.22-.18.22-.5.02-.7l-6.34-6.24c-1.06 1.2-2.26 2.26-3.6 3.12zm-.1 20.32c-.26.1-.54-.06-.62-.32l-4.84-17.64c1.58-.36 3.08-.94 4.46-1.7l3.82 8.02c.12.26 0 .56-.26.64l-1.42.52 3.74 8.16c.12.26 0 .54-.26.64l-4.6 1.68z" clip-rule="evenodd"/></g><defs><clipPath id="a"><path fill="#fff" d="M0 0h72v72H0z"/></clipPath></defs></svg>