<svg xmlns="http://www.w3.org/2000/svg" width="72" height="72" fill="none" viewBox="0 0 72 72"><path fill="#92864f" d="M68.524 10.787H56.21l-.421 1.263-.316.842c-.631 2-.631 2-4.21 2.737L50 15.945l-.316 1.684c-1.158-3.158-7.789-6.526-7.789-6.526l.105.105c-1.895-.947-4-1.368-6.104-1.368-2.737 0-5.474.737-7.895 2.105-1.474.842-2.631 2-3.684 3.263l-3.368-4.42v-.106l-12.21.106-.421 1.158-.316.947c-.632 2-.632 2-4.21 2.737l-1.264.315-1.79 10.737 3.369 3.368-3.79 26-.315 2 3.684 4.105h13.157l1.58-10.316c.315.737.63 1.58 1.052 2.211.21.316.42.632.631.842 0 .106.106.21.106.21 1.473 1.685 3.052 3.264 4.631 4.737 1.053.632 2.106 1.158 3.264 1.474 1.158.421 2.315.632 3.579.737 2.42.106 4.736-.105 7.157-.737 3.684-.947 6.632-3.579 8-7.157.842-1.895 1.79-8.316 1.79-8.316l1.894-12.631.421-3.158.737.737-4 27.052 4.211 4.21h13.263L72 15.63z"/><path fill="#fecd27" d="m10.632 13.419-.21.316c-.948 2.842-1.369 3.368-5.58 4.42l-.946 6H7.79L3.054 55.419h8.42l6.421-42.104z"/><path fill="#fff" d="M12.843 56.892H1.369l4.632-31.368H2.106l1.474-8.737.526-.105c4.105-.947 4.21-1.053 5.052-3.474l.316-.947.21-.526h10.21zm-9.79-1.474h8.421l6.42-42.104-7.367.105-.106.316c-.947 2.842-1.368 3.368-5.579 4.42l-.947 6H7.79zM30 57.628c-2 .105-4-.21-5.895-.947-1.58-.632-2.843-1.684-3.58-3.158-.736-1.369-1.262-2.737-1.473-4.316-.106-2.315 0-4.631.42-6.947l2.211-15.157c.422-3.158 1.159-6.21 2.316-9.158.947-2.105 2.631-4 4.632-5.158 2.21-1.263 4.736-2 7.263-1.894 2 0 4 .42 5.894 1.368a8.5 8.5 0 0 1 3.58 3.368c.736 1.369 1.157 2.843 1.157 4.421 0 2.421-.21 4.948-.631 7.369l-2.105 14.526a44 44 0 0 1-1.58 7.368 13.6 13.6 0 0 1-2.736 4.421c-1.158 1.368-2.631 2.316-4.315 3.053a11.85 11.85 0 0 1-5.159.841m6-45.157c-2.316 0-4.527.526-6.527 1.684-1.79 1.053-3.158 2.631-4.105 4.421a32.3 32.3 0 0 0-2.21 8.737l-2.211 15.263c-.421 2.105-.526 4.315-.421 6.526q.314 2.052 1.262 3.79c.632 1.157 1.685 2 2.843 2.526 1.684.631 3.579.947 5.368.842 1.578 0 3.157-.316 4.631-.842 1.474-.527 2.737-1.474 3.79-2.632a12 12 0 0 0 2.42-4c.737-2.315 1.263-4.631 1.474-7.052l2.106-14.526c.42-2.316.631-4.632.736-7.053 0-1.263-.42-2.631-.947-3.684a8.15 8.15 0 0 0-2.947-2.736A11.7 11.7 0 0 0 36 12.47"/><path fill="#fecd27" d="M45.157 20.156c0-1.264-.422-2.632-.948-3.684a8.15 8.15 0 0 0-2.947-2.737c-1.578-.843-3.368-1.158-5.157-1.158-2.316 0-4.527.526-6.526 1.684-1.79 1.052-3.158 2.631-4.105 4.42a32.3 32.3 0 0 0-2.211 8.738l-2.316 15.157c-.42 2.105-.526 4.316-.42 6.526q.315 2.053 1.262 3.79c.631 1.158 1.684 2 2.842 2.526 1.684.632 3.58.947 5.368.842 1.579 0 3.158-.315 4.632-.842s2.737-1.474 3.79-2.631a12 12 0 0 0 2.42-4c.737-2.316 1.263-4.632 1.474-7.053l2.105-14.526c.526-2.316.737-4.737.737-7.052m-7.58-.737a31 31 0 0 1-.63 4.526l-3.474 21.578c-.21 1.474-.526 2.947-.843 4.316-.631 1.895-1.789 2.21-2.42 2.21q-.948 0-1.58-.631c-.525-.526-.736-1.263-.736-2 .105-1.579.316-3.263.631-4.842L32 23.418c.21-1.473.526-3.052.842-4.526.632-2 1.79-2.21 2.421-2.21q.948 0 1.579.63c.631.528.842 1.265.737 2.107"/><path fill="#fff" d="M36.947 17.209q-.631-.632-1.579-.632c-.631 0-1.894.316-2.42 2.21-.422 1.475-.632 3.053-.843 4.527l-3.473 21.263A38 38 0 0 0 28 49.419c0 .737.21 1.474.737 2q.631.63 1.579.631c.631 0 1.895-.316 2.42-2.21.422-1.369.632-2.843.843-4.316l3.474-21.578c.315-1.474.526-3.053.63-4.527 0-.842-.21-1.579-.736-2.21m-1.474 6.526L32 45.313c-.316 2.105-.632 3.474-.843 4.105-.105.316-.315 1.158-1.052 1.158-.21 0-.316-.105-.526-.21a2.5 2.5 0 0 1-.21-.947c.105-1.579.315-3.053.63-4.632l3.474-21.262c.21-1.474.526-2.948.843-4.316.105-.316.316-1.158 1.052-1.158.21 0 .316.105.526.21.21.316.316.632.21 1.053q0 .947-.63 4.42"/><path fill="#fecd27" d="m58.103 13.419-.105.421c-.947 2.842-1.474 3.368-5.58 4.421l-.946 6h3.894L50.63 55.523h8.42l6.422-42.104z"/><path fill="#fff" d="M60.314 56.892H48.841l4.736-31.368h-4l1.474-8.737.526-.105c4.106-.947 4.211-1.053 5.053-3.474l.316-.947.21-.526h10.21zm-9.684-1.474h8.421l6.421-42.104-7.368.105-.106.421c-.947 2.842-1.368 3.368-5.579 4.421l-.947 6h3.895z"/></svg>