<svg xmlns="http://www.w3.org/2000/svg" width="72" height="72" fill="none" viewBox="0 0 72 72"><g clip-path="url(#a)"><path fill="#fff" fill-rule="evenodd" d="M72 36C72 16.118 55.882 0 36 0S0 16.118 0 36s16.118 36 36 36 36-16.117 36-36M29.448 16c-.284.555-.284 1.283-.284 2.737v8.242c0 .364 0 .545.046.713q.062.225.198.415c.101.141.242.256.524.485l2.085 1.693c.34.276.51.415.571.58a.65.65 0 0 1 0 .453c-.061.166-.231.304-.571.58l-2.085 1.694c-.282.229-.423.343-.524.485q-.136.189-.198.414c-.046.168-.046.35-.046.713v18.059c0 1.454 0 2.181.284 2.737.248.489.646.886 1.134 1.134.556.284 1.283.284 2.737.284h5.362c1.454 0 2.181 0 2.736-.284A2.6 2.6 0 0 0 42.552 56c.284-.556.284-1.283.284-2.737V45.02c0-.363 0-.545-.047-.712a1.3 1.3 0 0 0-.197-.415c-.101-.141-.242-.256-.524-.485l-2.085-1.694c-.34-.276-.51-.414-.572-.58a.65.65 0 0 1 0-.452c.062-.166.232-.304.572-.58l2.085-1.694c.282-.229.423-.343.524-.485.09-.125.157-.266.197-.414.047-.168.047-.35.047-.713v-18.06c0-1.453 0-2.18-.284-2.736a2.6 2.6 0 0 0-1.135-1.135c-.555-.283-1.282-.283-2.736-.283h-5.362c-1.454 0-2.181 0-2.737.283A2.6 2.6 0 0 0 29.448 16" clip-rule="evenodd"/></g><defs><clipPath id="a"><path fill="#fff" d="M0 0h72v72H0z"/></clipPath></defs></svg>