<svg width="72" height="72" viewBox="0 0 72 72" fill="none" xmlns="http://www.w3.org/2000/svg">
<g clip-path="url(#clip0_6971_33938)">
<path d="M32.7217 7.48858V62.0031V68.8408L43.6287 63.7073V2.16014L32.7217 7.48858Z" fill="#F8931E"/>
<path fill-rule="evenodd" clip-rule="evenodd" d="M30.8067 29.2666C19.3283 31.2533 10.9071 37.7618 10.9071 45.4901C10.9071 53.6428 20.2749 60.4427 32.7212 62.0031V68.8408C14.2218 67.2051 0 57.3751 0 45.4901C0 34.0186 13.2497 24.461 30.8067 22.3389V29.2666ZM45.5428 29.2666V22.3416C52.9981 23.2427 59.6784 25.4811 64.8953 28.6416L70.4945 25.4847L72 41.1172L50.9074 36.5281L56.8201 33.1945C53.6706 31.3702 49.8177 30.0064 45.5428 29.2666Z" fill="#B3B3B3"/>
</g>
<defs>
<clipPath id="clip0_6971_33938">
<rect width="72" height="72" fill="white"/>
</clipPath>
</defs>
</svg>
