<svg xmlns="http://www.w3.org/2000/svg" width="72" height="72" fill="none" viewBox="0 0 72 72"><path fill="#b3ebdf" d="M36.004 12.852C16.149 12.852 0 28.892 0 48.612c0 3.375.477 6.734 1.424 9.973l.162.554h8.649l-.38-1.029c-.122-.329-.235-.65-.34-.988a27.5 27.5 0 0 1-1.343-8.51c0-15.244 12.484-27.644 27.832-27.644s27.832 12.4 27.832 27.644c0 2.805-.42 5.569-1.254 8.22q-.206.643-.437 1.27l-.38 1.03h8.65l.161-.555A35.6 35.6 0 0 0 72 48.604c.008-19.712-16.141-35.752-35.996-35.752"/><path fill="#42ccb0" d="M67.591 19.53a4.07 4.07 0 0 0-2.84-1.301 4.04 4.04 0 0 0-2.937 1.076L32.582 46.138a4 4 0 0 0-1.31 2.82 4.02 4.02 0 0 0 1.084 2.917 4.1 4.1 0 0 0 3.001 1.302 4.13 4.13 0 0 0 2.775-1.077l29.233-26.84a4 4 0 0 0 1.31-2.82 4.02 4.02 0 0 0-1.084-2.918z"/></svg>