<svg xmlns="http://www.w3.org/2000/svg" width="72" height="72" fill="none" viewBox="0 0 72 72"><path fill="#fff" d="M66.827 29.466c.81-2.43 1.08-4.993.832-7.535-.247-2.542-1.08-4.993-2.361-7.198a18.2 18.2 0 0 0-8.345-7.535 18 18 0 0 0-11.179-1.17 17.7 17.7 0 0 0-6.118-4.475A17.9 17.9 0 0 0 32.234 0a18.16 18.16 0 0 0-10.707 3.464 18.23 18.23 0 0 0-6.613 9.087 17.9 17.9 0 0 0-6.927 3.059 17.9 17.9 0 0 0-5.061 5.645 18.08 18.08 0 0 0-2.34 10.999 18.15 18.15 0 0 0 4.59 10.279 18.2 18.2 0 0 0-.833 7.535 18.1 18.1 0 0 0 2.362 7.198 18.2 18.2 0 0 0 8.344 7.535 18 18 0 0 0 11.18 1.17 17.7 17.7 0 0 0 6.117 4.475A17.9 17.9 0 0 0 39.77 72c3.846 0 7.602-1.192 10.706-3.463a18.2 18.2 0 0 0 6.613-9.11 17.9 17.9 0 0 0 6.928-3.06 18.2 18.2 0 0 0 5.06-5.645 18.08 18.08 0 0 0 2.34-10.999 18 18 0 0 0-4.589-10.256m-26.9 37.81c-3.577 0-6.366-1.102-8.773-3.127.113-.067.292-.157.427-.247l14.328-8.277a2.23 2.23 0 0 0 .855-.855c.202-.36.315-.765.315-1.17V33.402l6.05 3.509s.068.045.09.067a.17.17 0 0 0 .045.09v16.735c0 7.58-6.32 13.495-13.338 13.495zM10.797 54.905A13.35 13.35 0 0 1 9.2 45.863c.113.067.293.18.428.247l14.327 8.278c.36.202.765.315 1.17.315s.81-.113 1.17-.316l17.499-10.099v7.108c0 .023-.045.068-.068.09l-14.485 8.367a13.55 13.55 0 0 1-10.234 1.35 13.46 13.46 0 0 1-8.187-6.276zM7.02 23.618a13.42 13.42 0 0 1 7.017-5.916v17.05c0 .405.113.81.315 1.17.203.36.495.652.855.854l17.499 10.1-6.05 3.508s-.068.023-.09.045h-.113l-14.485-8.367a13.5 13.5 0 0 1-6.276-8.188A13.55 13.55 0 0 1 7.02 23.64zM56.795 35.2 39.296 25.102l6.05-3.486s.068-.023.09-.045h.113l14.486 8.367a13.5 13.5 0 0 1 5.218 5.443 13.55 13.55 0 0 1 1.484 7.378 13.45 13.45 0 0 1-2.721 7.017 13.3 13.3 0 0 1-6.05 4.477v-17.05c0-.405-.113-.81-.316-1.17a2.23 2.23 0 0 0-.855-.854zm6.029-9.086s-.293-.18-.428-.248L48.07 17.59a2.4 2.4 0 0 0-1.17-.315 2.33 2.33 0 0 0-1.17.315l-17.5 10.099v-7.108c0-.022.045-.067.067-.09l14.486-8.367a13.44 13.44 0 0 1 7.31-1.8 13.47 13.47 0 0 1 7.13 2.408 13.57 13.57 0 0 1 4.723 5.87c.99 2.362 1.282 4.97.855 7.49zm-37.9 12.483-6.05-3.509s-.068-.045-.09-.068a.17.17 0 0 0-.046-.09V18.197c0-2.564.742-5.06 2.114-7.242a13.34 13.34 0 0 1 5.669-4.971 13.67 13.67 0 0 1 7.445-1.17c2.541.337 4.948 1.372 6.905 3.014-.113.068-.293.158-.428.247l-14.327 8.278a2.23 2.23 0 0 0-.855.854 2.4 2.4 0 0 0-.315 1.17v20.198zm3.284-7.085 7.782-4.499 7.782 4.499v8.997l-7.782 4.498-7.783-4.498z"/></svg>