<svg xmlns="http://www.w3.org/2000/svg" fill="none" viewBox="0 0 1124.22 302.32"><path fill="#fff" d="M119.6 0C53.82 0 0 53.82 0 119.6s53.82 119.6 119.6 119.6 119.6-53.49 119.6-119.6S185.71 0 119.6 0m0 196.34c-40.86 0-73.75-33.55-73.75-76.74s32.89-76.74 73.75-76.74 73.75 33.55 73.75 76.74-32.89 76.74-73.75 76.74m240.53-129.9c-21.59 0-42.52 8.64-53.49 23.26V69.77h-43.19v232.56h43.19v-84.05c10.96 13.62 31.23 20.93 53.49 20.93 46.51 0 83.06-36.54 83.06-86.38s-36.55-86.38-83.06-86.38Zm-7.31 135.22c-24.58 0-46.51-19.27-46.51-48.84s21.93-48.84 46.51-48.84 46.51 19.27 46.51 48.84-21.93 48.84-46.51 48.84M544.85 66.44c-47.18 0-84.38 36.88-84.38 86.38s32.56 86.38 85.71 86.38c43.52 0 71.43-26.25 80.07-55.81h-42.19c-5.32 12.29-20.27 20.93-38.21 20.93-22.26 0-39.2-15.61-43.19-37.87h125.58v-16.94c0-45.18-31.56-83.06-83.39-83.06Zm-41.86 69.44c4.65-20.93 21.93-34.55 42.86-34.55 22.26 0 39.2 14.62 41.2 34.55H503Zm240.19-69.44c-19.27 0-39.54 8.64-48.84 22.92v-19.6h-43.19v166.11h43.19V146.5c0-25.91 13.95-42.86 36.54-42.86 20.93 0 32.22 15.95 32.22 38.21v94.02h43.19v-101c0-41.2-25.25-68.44-63.12-68.44ZM916.92 3.33 822.9 235.89h46.18l19.93-50.83h106.98l19.93 50.83h46.84L969.41 3.33zm-12.96 143.19 38.54-97.34 38.2 97.34zM1124.22 3.33h-43.85v232.56h43.85z"/></svg>