<svg xmlns="http://www.w3.org/2000/svg" width="72" height="72" fill="none" viewBox="0 0 72 72"><g clip-path="url(#a)"><path fill="#f8931e" d="M32.722 7.489V68.84l10.907-5.134V2.16z"/><path fill="#b3b3b3" fill-rule="evenodd" d="M30.807 29.267c-11.479 1.986-19.9 8.495-19.9 16.223 0 8.153 9.368 14.953 21.814 16.513v6.838C14.221 67.205 0 57.375 0 45.49c0-11.472 13.25-21.03 30.807-23.152zm14.736 0v-6.925c7.455.9 14.135 3.14 19.352 6.3l5.6-3.157L72 41.117l-21.093-4.589 5.913-3.334c-3.15-1.824-7.002-3.188-11.277-3.927" clip-rule="evenodd"/></g><defs><clipPath id="a"><path fill="#fff" d="M0 0h72v72H0z"/></clipPath></defs></svg>