<svg xmlns="http://www.w3.org/2000/svg" width="72" height="72" fill="none" viewBox="0 0 72 72"><g clip-path="url(#a)"><path fill="url(#b)" fill-rule="evenodd" d="M57.614 32.78a24.5 24.5 0 0 0-4.383-11.047 24.65 24.65 0 0 0-9.085-7.707 24.8 24.8 0 0 0-23.166.618 24.6 24.6 0 0 0-8.657 8.18 24.42 24.42 0 0 0-1.803 22.977 24.56 24.56 0 0 0 7.277 9.417 191 191 0 0 0 7.884-3.73 17.25 17.25 0 0 1-6.99-6.085 17.1 17.1 0 0 1-.625-17.787 17.2 17.2 0 0 1 6.546-6.557 17.35 17.35 0 0 1 17.89.497 17.2 17.2 0 0 1 6.168 6.91 17.1 17.1 0 0 1 1.677 9.087 222 222 0 0 0 7.267-4.773m.208 2.782a164 164 0 0 1-8.226 5.65 17.2 17.2 0 0 1-7.989 9.754 17.36 17.36 0 0 1-12.53 1.725 144 144 0 0 1-9.175 4.02 24.79 24.79 0 0 0 25.316.697 24.6 24.6 0 0 0 9.335-9.192 24.44 24.44 0 0 0 3.27-12.654" clip-rule="evenodd"/><path fill="#00ccf5" fill-rule="evenodd" d="M62.128 54.857c.56 0 1.108-.164 1.574-.473a2.8 2.8 0 0 0 1.043-1.264 2.8 2.8 0 0 0-.612-3.069 2.84 2.84 0 0 0-3.086-.611 2.83 2.83 0 0 0-1.271 1.037 2.806 2.806 0 0 0 .351 3.555 2.84 2.84 0 0 0 2 .825M59.075 15.6a1.7 1.7 0 0 0 1.56-1.037 1.67 1.67 0 0 0-.366-1.83 1.692 1.692 0 0 0-2.883 1.187 1.67 1.67 0 0 0 .494 1.188 1.7 1.7 0 0 0 1.195.491M2.25 44.135c.446 0 .882-.131 1.252-.377a2.227 2.227 0 0 0 .338-3.446 2.25 2.25 0 0 0-2.455-.481c-.411.17-.762.458-1.009.827a2.23 2.23 0 0 0 .286 2.824c.422.418.993.653 1.589.653M40.265 30.95a277 277 0 0 1 7.084-3.775q.128.205.272.48a339 339 0 0 0-7.064 3.788zm31.582-11.925c-1.086-1.87-7.667.116-16.982 4.445q.132.215.256.441c8.924-4.225 15.151-6.259 15.942-4.623 1.243 2.141-13.026 12.645-31.856 23.461S4.092 60.596 2.849 58.455c-.708-1.272 2.795-4.74 5.942-7.5-4.532 3.637-6.908 6.44-6.127 7.785 1.774 3.056 18.938-2.955 38.044-13.918 19.107-10.964 32.92-22.74 31.139-25.797" clip-rule="evenodd"/><path fill="#fa00e9" d="M38.028 32.726a3.42 3.42 0 0 1 .698-4.306 3.466 3.466 0 0 1 4.383-.157 3.43 3.43 0 0 1 1.267 1.943 3.42 3.42 0 0 1-.26 2.302 3.45 3.45 0 0 1-1.67 1.615 3.47 3.47 0 0 1-2.32.194 3.34 3.34 0 0 1-2.098-1.591"/></g><defs><linearGradient id="b" x1="6.986" x2="57.55" y1="10.227" y2="60.821" gradientUnits="userSpaceOnUse"><stop offset=".094" stop-color="#fa00e9"/><stop offset="1" stop-color="#3860ff"/></linearGradient><clipPath id="a"><path fill="#fff" d="M0 0h72v72H0z"/></clipPath></defs></svg>