<svg xmlns="http://www.w3.org/2000/svg" width="72" height="72" fill="none" viewBox="0 0 72 72"><path fill="#5951ff" fill-rule="evenodd" d="M32.02 3.002c11.026 0 27.688 3.3 35.444 10.87C69.43 15.792 72 19.55 72 25.055c0 9.788-8.08 24.805-17.003 33.515-4.613 4.502-11.95 10.386-21.82 10.386-9.65 0-17.018-6.396-19.151-8.479C5.854 52.501 0 40.395 0 29.107c0-7.123 2.08-13.353 7.388-18.531 4.916-4.797 13.386-7.574 24.632-7.574m14.05 39.433c3.722-3.635 4.725-8.111 4.725-10.575 0-1.786-.481-4.407-2.77-6.64-3.512-3.426-7.4-4.394-11.631-4.394-5.358 0-8.959 1.653-11.356 3.995-1.881 1.835-3.507 4.656-3.507 8.666 0 4.006 2.189 7.877 4.575 10.203 2.202 2.15 5.666 3.743 9.153 3.743s7.087-1.363 10.81-4.998" clip-rule="evenodd"/></svg>