<svg xmlns="http://www.w3.org/2000/svg" width="72" height="72" fill="none" viewBox="0 0 72 72"><path fill="#000" d="M71.717 13.797 65.884 24.59a1.16 1.16 0 0 0-.133.74l2.124 15.88a2.01 2.01 0 0 1-.848 1.921L54.94 51.578a1.23 1.23 0 0 0-.42.513l-5.934 13.743a2.44 2.44 0 0 1-1.874 1.438l-10.235 1.494a3.1 3.1 0 0 1-.933 0L25.31 67.272a2.44 2.44 0 0 1-1.874-1.438L17.502 52.09a1.2 1.2 0 0 0-.42-.513L4.996 43.14a2.01 2.01 0 0 1-.847-1.921l2.123-15.881a1.27 1.27 0 0 0-.133-.739L.291 13.797a2.5 2.5 0 0 1-.288-1.3l.28-4.728A2.42 2.42 0 0 1 1.63 5.74l3.328-1.648a3.03 3.03 0 0 1 2.956.147l7.474 4.675c.295.186.66.233.995.132l18.68-5.693a3.23 3.23 0 0 1 1.883 0l18.68 5.693c.335.1.7.054.996-.132l7.474-4.674a3.03 3.03 0 0 1 2.955-.148l3.321 1.648a2.44 2.44 0 0 1 1.346 2.03l.28 4.729c.023.45-.07.902-.288 1.299z"/></svg>