<svg xmlns="http://www.w3.org/2000/svg" width="72" height="72" fill="none" viewBox="0 0 72 72"><path fill="#fff" d="M36.165 0c1.096 0 1.984.89 1.984 1.985v17.884L57.438.581a1.986 1.986 0 0 1 3.388 1.404v20.637h6.52l.203.011c1 .102 1.78.946 1.78 1.973V53.01a1.986 1.986 0 0 1-1.984 1.984h-6.52v15.021a1.985 1.985 0 0 1-3.387 1.404L38.149 52.131v17.884a1.984 1.984 0 1 1-3.968 0V52.13L14.892 71.42a1.986 1.986 0 0 1-3.388-1.405V54.994h-6.52A1.986 1.986 0 0 1 3 53.01V24.606c0-1.096.888-1.984 1.984-1.984h6.52V1.985A1.986 1.986 0 0 1 14.892.58l19.289 19.288V1.985A1.984 1.984 0 0 1 36.165 0M15.472 45.403v19.82l18.709-18.709v-17.48zm22.677 1.111 18.708 18.709v-19.82L38.15 29.033zm-31.18 4.511h4.535v-6.521l.01-.213c.054-.492.29-.95.668-1.28l18.765-16.42H13.95a2 2 0 0 1-.922 0h-6.06zm53.18-8.014c.43.377.677.921.677 1.493v6.522h4.535V26.59h-6.059a2 2 0 0 1-.92 0h-17zm-44.677-20.39h15.845L15.472 6.778zm25.54 0h15.845V6.778z"/></svg>