<svg xmlns="http://www.w3.org/2000/svg" width="72" height="72" fill="none" viewBox="0 0 72 72"><g clip-path="url(#clip0_26590_7374)"><path fill="#fff" fill-rule="evenodd" d="M1.096 8.89C0 11.535 0 14.89 0 21.6v28.8c0 6.71 0 10.065 1.096 12.71a14.4 14.4 0 0 0 7.793 7.794C11.536 72 14.891 72 21.6 72h28.8c6.71 0 10.065 0 12.71-1.096a14.4 14.4 0 0 0 7.794-7.793C72 60.465 72 57.11 72 50.4V21.6c0-6.71 0-10.065-1.096-12.712a14.4 14.4 0 0 0-7.793-7.793C60.465 0 57.11 0 50.4 0H21.6C14.89 0 11.535 0 8.888 1.096A14.4 14.4 0 0 0 1.096 8.89m15.032 11.378a4.97 4.97 0 0 0 4.968 4.968h22.356a4.14 4.14 0 0 1 0 8.28H21.096a4.97 4.97 0 0 0-4.968 4.968v13.248a4.968 4.968 0 0 0 9.936 0v-8.28h17.388c7.774 0 14.076-6.302 14.076-14.076S51.226 15.3 43.452 15.3H21.096a4.97 4.97 0 0 0-4.968 4.968m25.266 27.324h2.058c3.435 0 6.648-.951 9.39-2.604l3.231 3.231a4.968 4.968 0 1 1-7.026 7.026z" clip-rule="evenodd"/></g><defs><clipPath id="clip0_26590_7374"><path fill="#fff" d="M0 0h72v72H0z"/></clipPath></defs></svg>