<svg xmlns="http://www.w3.org/2000/svg" width="72" height="72" fill="none" viewBox="0 0 72 72"><path fill="#ff6200" d="M34.27 34.197c.211-.057.416-.113.626-.173 4.615-1.302 9.105-3.104 13.566-4.972 4.368-1.827 8.687-4.022 12.482-7.11 3.895-3.169 7.028-7.273 8.757-12.363.243-.708.741-1.73.79-2.507-6.065 8.293-30.123 9.148-30.123 9.148l5.677-5.208C23.223 11.055 7.297 20.742 0 25.923c9.338 1.002 17.791 4.957 24.41 10.913 3.255-1.008 6.58-1.737 9.86-2.64M72 33.383s-22.198-1.698-45.256 5.727a43.6 43.6 0 0 1 7.614 10.86C46.482 43.22 63.293 34.6 72 33.383M35.877 53.435a43.3 43.3 0 0 1 2.744 11.482l21.13-21.733z"/><path fill="#ff6200" d="M35.877 53.435a43.3 43.3 0 0 1 2.744 11.482l21.13-21.733z"/></svg>