<svg xmlns="http://www.w3.org/2000/svg" width="72" height="72" fill="none" viewBox="0 0 72 72"><g clip-path="url(#a)"><path fill="#ff5630" d="M36 72.002c19.882 0 36-16.117 36-36s-16.118-36-36-36-36 16.118-36 36 16.118 36 36 36"/><path fill="#fff" d="M18.874 28.64h-2.25q-1.178 0-1.178 1.179v11.46q0 1.178 1.179 1.178h2.25q1.177 0 1.177-1.178V29.82q0-1.178-1.178-1.178m9.186-9.261h-2.249q-1.178.001-1.178 1.178v14.09q0 1.18 1.178 1.18h2.25q1.178 0 1.178-1.18V20.56q0-1.177-1.178-1.178M35 10.989q-1.178 0-1.178 1.178v33.577q0 1.178 1.178 1.178h2.25q1.178 0 1.178-1.178V12.167q0-1.178-1.178-1.178zm11.435 25.058h-2.25q-1.178 0-1.178 1.178v21.937q0 1.179 1.178 1.179h2.25q1.178 0 1.178-1.179V37.225q0-1.178-1.178-1.178m9.185 0h-2.249q-1.179 0-1.179 1.178v11.46q0 1.179 1.18 1.178h2.248q1.178 0 1.178-1.178v-11.46q0-1.178-1.178-1.178m9.189 0h-2.25q-1.178 0-1.178 1.178v4.054q0 1.178 1.179 1.178h2.249q1.178 0 1.178-1.178v-4.054q0-1.178-1.178-1.178m-55.121 0h-2.25q-1.178 0-1.178 1.178v4.054q0 1.178 1.178 1.178h2.25q1.177 0 1.178-1.178v-4.054q0-1.178-1.178-1.178"/></g><defs><clipPath id="a"><path fill="#fff" d="M0 .002h72v72H0z"/></clipPath></defs></svg>