<svg xmlns="http://www.w3.org/2000/svg" width="72" height="72" fill="none" viewBox="0 0 72 72"><g clip-path="url(#a)"><path fill="#007acc" d="M36 .002a36 36 0 1 0 36 36 35.984 35.984 0 0 0-36-36m-10.689 54.56H13.448v-8.95l11.914-3.118V54.56zm16.618 0H30.015V14.37l11.914-3.58zm16.619 0H46.633v-26.85l11.915-3.58z"/><path fill="#fff" d="M13.447 54.562h11.864l.05-12.068-11.914 3.118zm16.568 0h11.914v-43.77L30.015 14.37zm16.618 0h11.915v-30.43l-11.915 3.58z"/></g><defs><clipPath id="a"><path fill="#fff" d="M0 .002h72v72H0z"/></clipPath></defs></svg>