<svg xmlns="http://www.w3.org/2000/svg" width="72" height="72" fill="none" viewBox="0 0 72 72"><path fill="#000" d="M56.7 51.092s1.145.12 3.581 0 5.113-1.274 6.981-2.127c5.068-2.711 4.647-8.675 0-7.9-4.006.669-5.281.304-5.281.304 6.92-10.088 11.049-27.59 7.163-33.303C59.9-3.753 43.733 1.173 43.464 1.321l-.085.015c-1.754-.37-2.65-.473-4.896-.504-4.025-.061-6.66.311-8.981 2.069 0 0-29.728-12.401-28.23 17.502C1.654 28 8.692 61.92 21.5 52.5c0 0 2.287 1.657 4 2 2.5.5 5 .5 7.5-.5 0 0 .081 2.099.217 5.35.138 3.33.603 5.319 1.283 7.15 1.336 3.16 5.388 6.517 11.697 5.194 5.271-1.13 8.56-4.497 8.924-9.48"/><path fill="#336791" d="M66.526 43.871c-8.143 1.68-8.703-1.077-8.703-1.077 8.598-12.758 12.192-28.953 9.09-32.916C58.452-.934 43.803 4.179 43.56 4.312l-.079.014c-1.608-.334-3.41-.533-5.433-.566-3.684-.06-6.48.966-8.6 2.574 0 0-26.13-10.764-24.916 13.54.259 5.17 7.411 39.12 15.942 28.866 3.118-3.75 6.13-6.92 6.13-6.92 1.497.993 3.288 1.5 5.166 1.318.265-.225.154 1.013.204 1.337-2.197 2.455-1.552 2.886-5.945 3.79-4.445.916-1.834 2.547-.129 2.974 2.067.517 6.85 1.249 10.08-3.274C36 52.5 36 60.5 37 64c.678 1.846 2.079 6.056 7.854 4.819 4.826-1.034 7.327-3.714 7.675-8.185.174-2.244 1.017-4.634 1.289-6.894.516-4.308.082-5.698 3.055-5.052 2.464.217 5.191-.017 7.455-1.07 3.62-1.68 5.767-4.484 2.198-3.747"/><path fill="#fff" d="M55.253 22.222a.5.5 0 0 0-.224-.33 1.2 1.2 0 0 0-.413-.17c-.318-.075-.733-.088-1.172-.026-.44.06-.836.186-1.12.346a1.2 1.2 0 0 0-.352.276.5.5 0 0 0-.126.379c.018.126.094.26.19.379.099.123.233.247.392.355.318.215.753.376 1.228.31.474-.066.88-.342 1.16-.636.142-.148.255-.305.331-.452.072-.14.124-.295.105-.43m-24.692 2.39c-1.034-.163-1.916-1.347-1.77-1.84.144-.493 1.193-.654 1.973-.53 1.035.164 1.828.667 1.771 1.124-.056.456-.94 1.41-1.973 1.246"/><path fill="#fff" fill-rule="evenodd" d="M67.496 23.206c-1.556 6.025-4.492 13.077-8.62 19.386.102.096.279.223.575.346.885.366 2.824.676 6.816-.148.49-.1.932-.153 1.317-.14.362.013.804.087 1.168.364.436.331.594.822.55 1.28-.038.395-.218.743-.394 1.01-.364.547-.963 1.114-1.66 1.634a14.7 14.7 0 0 1-2.55 1.504c-1.656.769-4.217 1.215-6.356 1.239-1.071.011-2.126-.081-2.956-.34l-.186-.062c-.367 3.38-1.157 9.741-1.611 12.377-.397 2.3-1.078 4.134-2.415 5.525-1.336 1.388-3.206 2.208-5.711 2.745-3.148.674-5.342-.012-6.853-1.285-1.45-1.222-2.142-2.883-2.535-3.867-.252-.63-.427-1.624-.56-2.78-.137-1.19-.24-2.66-.31-4.306a151 151 0 0 1-.113-7.394c-1.1.945-2.594 1.801-4.3 2.16-1.363.287-3.535.102-5.206-.32-.833-.21-1.674-.51-2.262-.928-.293-.208-.625-.515-.794-.952-.195-.502-.117-1.021.161-1.456.414-.645 1.057-.998 1.646-1.217.589-.218 1.26-.351 1.86-.467l.128-.024c.58-.112 1.108-.213 1.592-.36.516-.158.891-.343 1.146-.57.6-.534 1.015-1.093 1.433-1.656l.262-.35.003-.004-.004-.057a8.9 8.9 0 0 1-4.12-1.135 125 125 0 0 0-1.485 1.608 144 144 0 0 0-4.108 4.718c-1.165 1.4-2.45 2.22-3.857 2.28-1.4.059-2.636-.647-3.676-1.658-2.052-1.995-3.817-5.634-5.263-9.567-1.463-3.981-2.66-8.435-3.506-12.212-.841-3.756-1.354-6.92-1.423-8.305C3.006 13.577 4.444 9.38 6.976 6.7c2.522-2.672 5.967-3.665 9.303-3.856 3.338-.192 6.681.41 9.164 1.045 1.246.32 2.29.65 3.023.902.34.116.613.216.81.29 2.24-1.54 5.104-2.482 8.731-2.422 1.784.03 3.438.25 4.966.62l.034-.012a9 9 0 0 1 .419-.144 23 23 0 0 1 1.724-.47 29 29 0 0 1 6.223-.754C56.4 1.85 62.819 3.226 67.472 9.172c1 1.279 1.347 3.339 1.311 5.658-.037 2.378-.48 5.256-1.287 8.376M55.012 11.237c-2.003-2.56-4.818-5.143-8.59-6.797a27 27 0 0 1 4.97-.525c4.665-.043 10.363 1.226 14.49 6.5.55.703.918 2.153.883 4.384-.033 2.172-.443 4.884-1.223 7.902-1.437 5.567-4.104 12.066-7.829 17.968l-.162-.203-.002-.002-.114-.144c.569-.855.905-1.877 1.105-2.918.246-1.287.3-2.693.268-4.037-.031-1.348-.148-2.67-.255-3.793l-.036-.376c-.092-.971-.164-1.722-.164-2.22 0-.952.154-1.795.326-2.734v-.001l.099-.542c.17-.964.32-2.01.242-3.208.106-.161.145-.313.157-.36.042-.174.039-.337.033-.434a4 4 0 0 0-.118-.709 14 14 0 0 0-.679-1.985c-.66-1.586-1.765-3.674-3.4-5.766m2.005 9.575c-3.47-.409-5.131.255-5.887 1.12-.84.96-.953 2.6-.405 4.795.532 2.131 1.605 4.454 2.635 6.43.491.944.965 1.793 1.357 2.497l.06.108c.378.678.715 1.28.864 1.643.158.383.328.73.505 1.05a7.4 7.4 0 0 0 .412-1.433c.209-1.09.262-2.336.233-3.61-.03-1.27-.14-2.531-.247-3.65l-.036-.385c-.09-.938-.173-1.799-.173-2.4 0-1.152.193-2.197.366-3.136l.09-.493c.15-.852.262-1.66.226-2.536M36.653 44.243c-.748-1.164-2.098-1.9-3.723-1.667q.039-.162.087-.336c.195-.7.475-1.451.794-2.308l.004-.01.149-.398c.17-.46.365-.892.586-1.382.13-.287.267-.593.414-.936.382-.888.77-1.908 1.053-3.153.567-2.5.683-5.797-.375-10.69-.45-2.081-1.596-3.36-3.13-3.952-1.456-.562-3.125-.453-4.603-.112a15.8 15.8 0 0 0-4.073 1.596q.03-.375.075-.798c.192-1.785.607-4.143 1.487-6.477.882-2.336 2.212-4.598 4.205-6.257 1.973-1.644 4.659-2.748 8.371-2.687 7.5.123 12.434 3.95 15.449 7.804 1.51 1.932 2.528 3.859 3.127 5.298.155.371.247.614.377.995-3.516-.104-5.937.252-7.317 1.831-1.54 1.762-1.418 4.307-.843 6.611.591 2.37 1.755 4.864 2.803 6.875.505.97.991 1.84 1.382 2.542l.051.092c.419.75.68 1.225.773 1.45.612 1.486 1.382 2.522 1.998 3.3l.233.293.002.002c.204.255.368.46.507.659l.012.016-.018.006c-.22.063-.492.149-.776.277a3.44 3.44 0 0 0-1.659 1.517c-.386.708-.581 1.613-.562 2.764-.145.288-.246.702-.24 1.296.024 1.983-1.189 10.202-1.673 13.009-.365 2.119-.944 3.495-1.88 4.468-.94.976-2.36 1.674-4.68 2.172-2.627.563-4.162-.04-5.13-.856-1.03-.867-1.57-2.095-1.962-3.072-.39-.978-.561-3.421-.428-2.262-.13-1.125-.23-2.542-.3-4.161-.126-2.957-.117-7.85-.067-10.188q.003-.102.002-.199c.231-1.097.006-2.18-.502-2.972m-14.922-21.41c0-.152.003-.374.011-.653.018-.558.06-1.35.163-2.299.203-1.89.645-4.428 1.605-6.973.839-2.222 2.087-4.488 3.953-6.327a38 38 0 0 0-2.52-.738c-2.383-.61-5.5-1.16-8.548-.986-3.05.175-5.913 1.068-7.952 3.227-2.03 2.15-3.404 5.73-3.109 11.638.06 1.2.538 4.22 1.377 7.963.834 3.723 2.008 8.086 3.431 11.957 1.44 3.919 3.08 7.168 4.776 8.817.834.81 1.559 1.115 2.184 1.088.619-.026 1.422-.389 2.39-1.553a146 146 0 0 1 5.484-6.215c-2.465-2.173-3.904-5.642-3.38-9.382.488-3.492.311-6.505.212-8.213-.026-.449-.077-.901-.077-1.35m13.477 23.215a1.8 1.8 0 0 0-.252-.713c-.345-.536-.938-.876-1.74-.761-.146.02-.345.132-.85.798l-.22.295c-.418.566-.971 1.316-1.742 2-.565.502-1.252.795-1.899.992-.591.18-1.223.302-1.78.409l-.147.028c-.623.12-1.132.226-1.539.377a2.3 2.3 0 0 0-.393.184c.306.173.795.36 1.434.52 1.516.383 3.351.501 4.296.303 2.033-.429 3.703-1.785 4.42-2.81.169-.24.282-.489.35-.732l.016-.617a1 1 0 0 1 .046-.273m21.995-1.697-.131.037a4 4 0 0 0-.509.179 1.43 1.43 0 0 0-.716.643c-.188.344-.359.945-.308 2.005.05.04.172.115.446.2.542.168 1.357.258 2.335.248 1.96-.022 4.214-.441 5.528-1.051a12.6 12.6 0 0 0 2.194-1.292q.4-.302.678-.563l-.045.01c-4.152.857-6.565.628-7.996.035a4 4 0 0 1-1.015-.59c-.142.05-.317.098-.46.139m-1.694 2.834q.001-.001.01.013zm-23.585-7.967.148-.397c.192-.516.437-1.061.678-1.599q.188-.412.36-.812c.354-.824.693-1.721.938-2.803.49-2.153.632-5.146-.379-9.818-.32-1.483-1.045-2.172-1.884-2.496-.916-.354-2.122-.328-3.423-.028-1.281.296-2.534.83-3.46 1.346a7.6 7.6 0 0 0-1.049.683l-.068.057q.01.215.03.525c.097 1.6.305 5.038-.221 8.8-.721 5.155 3.044 9.387 7.38 9.4q.046-.188.099-.377c.22-.79.535-1.633.851-2.481" clip-rule="evenodd"/></svg>