<svg xmlns="http://www.w3.org/2000/svg" width="72" height="72" fill="none" viewBox="0 0 72 72"><path fill="#1d4aff" d="M15.714 38.089a.798.798 0 0 1-1.427 0l-2.106-4.183a.8.8 0 0 1 0-.719l2.107-4.182a.798.798 0 0 1 1.425 0l2.107 4.182a.8.8 0 0 1 0 .719zm0 14.893a.797.797 0 0 1-1.427 0L12.181 48.8a.8.8 0 0 1 0-.718l2.107-4.182a.798.798 0 0 1 1.425 0l2.107 4.182a.8.8 0 0 1 0 .718z"/><path fill="#f9bd2b" d="M0 44.187a.798.798 0 0 1 1.36-.567l9.266 9.2a.798.798 0 0 1-.563 1.365H.798A.8.8 0 0 1 0 53.387zm0-5.227a.8.8 0 0 0 .235.565l14.532 14.428c.15.148.351.231.562.231h9.734a.798.798 0 0 0 .563-1.364L1.36 28.727a.798.798 0 0 0-1.36.567zm0-14.895a.8.8 0 0 0 .235.567l29.531 29.32c.15.15.352.232.563.232h9.735a.798.798 0 0 0 .561-1.364L1.361 13.834A.798.798 0 0 0 0 14.401zm15 0a.8.8 0 0 0 .236.567L43.64 52.834c.503.5 1.36.143 1.36-.567v-9.665a.8.8 0 0 0-.236-.567l-28.404-28.2A.798.798 0 0 0 15 14.4zm16.36-10.232A.798.798 0 0 0 30 14.4v9.665a.8.8 0 0 0 .235.567L43.639 37.94a.798.798 0 0 0 1.36-.566v-9.666a.8.8 0 0 0-.235-.566z"/><path fill="#fff" d="M63.806 46.049 48.483 30.834a.799.799 0 0 0-1.362.566v21.987a.8.8 0 0 0 .798.798h23.283a.8.8 0 0 0 .798-.798v-3.17c0-.44-.358-.795-.798-.826a11.63 11.63 0 0 1-7.396-3.342m-9.484 3.37a2.39 2.39 0 0 1-2.4-2.384 2.39 2.39 0 0 1 2.4-2.382c1.325 0 2.4 1.067 2.4 2.382a2.39 2.39 0 0 1-2.4 2.384"/><path fill="#1d4aff" d="M0 53.387a.8.8 0 0 0 .798.798h9.266c.712 0 1.067-.863.562-1.365l-9.266-9.2a.798.798 0 0 0-1.36.567zm15-26.01L1.36 13.832c-.502-.5-1.36-.143-1.36.568v9.665a.8.8 0 0 0 .235.566l14.766 14.66zm-13.64 1.35a.798.798 0 0 0-1.36.566v9.666a.8.8 0 0 0 .235.566l14.766 14.66V42.269z"/><path fill="#f54e00" d="M30 27.708a.8.8 0 0 0-.236-.567L16.362 13.833A.798.798 0 0 0 15 14.4v9.665a.8.8 0 0 0 .236.567L30 39.292zM15 54.184h10.064a.798.798 0 0 0 .562-1.364L15 42.268zm0-26.808v11.582a.8.8 0 0 0 .236.567L30 54.185V42.6a.8.8 0 0 0-.236-.566z"/></svg>