<svg xmlns="http://www.w3.org/2000/svg" width="72" height="72" fill="none" viewBox="0 0 72 72"><g clip-path="url(#a)"><path fill="#e6522c" d="M36 0C16.12 0 0 16.117 0 36s16.119 36 36 36c19.882 0 36-16.118 36-36S55.881 0 36 0m0 67.378c-5.656 0-10.243-3.78-10.243-8.44h20.486c0 4.66-4.586 8.44-10.243 8.44m16.918-11.234H19.081v-6.136h33.838zm-.121-9.294h-33.62q-.17-.192-.334-.387c-3.464-4.206-4.28-6.401-5.072-8.639-.013-.073 4.2.861 7.188 1.533 0 0 1.538.356 3.785.766-2.158-2.53-3.44-5.746-3.44-9.033 0-7.216 5.535-13.522 3.539-18.62 1.943.159 4.022 4.102 4.162 10.268 2.066-2.855 2.93-8.07 2.93-11.266 0-3.31 2.182-7.155 4.363-7.287-1.944 3.206.504 5.953 2.68 12.77.817 2.56.713 6.868 1.343 9.6.209-5.674 1.185-13.955 4.785-16.814-1.588 3.6.235 8.105 1.482 10.271 2.012 3.494 3.232 6.142 3.232 11.148 0 3.357-1.24 6.518-3.33 8.989a83 83 0 0 0 4.019-.848l7.72-1.507s-1.122 4.613-5.432 9.056"/></g><defs><clipPath id="a"><path fill="#fff" d="M0 0h72v72H0z"/></clipPath></defs></svg>