<svg xmlns="http://www.w3.org/2000/svg" width="72" height="72" fill="none" viewBox="0 0 72 72"><path fill="#000" fill-rule="evenodd" d="m34.638 5.3.088 17.353h-1.321l-4.83 5.157v8.168h38.082l4.609-4.61v-8.715h-4.79L66.439.819 39.143.736z" clip-rule="evenodd"/><path fill="#000" d="m67.17.087.04 21.83H72v9.755l-4.823 4.825-.215.216H27.84V27.52l.198-.213 5.049-5.39h.9l-.084-16.614L33.902 5 38.62.22l.216-.22zM35.374 5.6l.091 17.788h-1.74L29.308 28.1v7.144h37.044l4.178-4.18v-7.676h-4.787l-.04-21.836-26.255-.08z"/><path fill="#bfbfbf" fill-rule="evenodd" d="m33.491 23.285-4.29 4.525h34.845l4.384-4.525zm6.063-22.099-4.211 4.202h26.032l4.451-4.151z" clip-rule="evenodd"/><path fill="gray" fill-rule="evenodd" d="M60.47 5.388v21.15H35.344z" clip-rule="evenodd"/><path fill="#fff" fill-rule="evenodd" d="M59.929 6.384v16.812H36.427z" clip-rule="evenodd"/><path fill="#fff" fill-rule="evenodd" d="M35.343 26.631V5.3h26.032z" clip-rule="evenodd"/><path fill="gray" fill-rule="evenodd" d="M36.427 23.285V6.473H59.93z" clip-rule="evenodd"/><path fill="#007" d="M58.663 7.468H37.512v14.824h21.151z"/><path fill="#0000db" d="M58.663 8.734H38.778v13.558h19.885z"/><path fill="#bfbfbf" d="M59.929 23.196H36.427v2.35H59.93zm4.157 7.05h-32.72v3.435h32.72z"/><path fill="#000" d="M61.917 31.873H50.528v1.808h11.39z"/><path fill="#bfbfbf" d="M31.366 33.68h-2.17v1.808h2.17z"/><path fill="gray" fill-rule="evenodd" d="m59.86 6.455 5.966-5.218v21.959l-3.909 3.348H59.86z" clip-rule="evenodd"/><path fill="#fff" fill-rule="evenodd" d="m70.672 23.285-6.586 7H31.44v3.36h-2.332V27.81h34.978l4.344-4.525z" clip-rule="evenodd"/><path fill="gray" fill-rule="evenodd" d="m70.672 23.285-6.586 7v3.396h-32.72v1.807h34.962l4.344-4.163z" clip-rule="evenodd"/><path fill="#000" d="m66.994 23.174-4.56 4.524-.215.212H33.991v-5.258h1.47v3.789h26.154l4.345-4.31z"/><path fill="#000" fill-rule="evenodd" d="m6.798 40.55.088 17.354h-1.32L.734 63.06v8.168h38.083l4.608-4.61v-8.715h-4.79l-.038-21.834-27.295-.083z" clip-rule="evenodd"/><path fill="#000" d="m39.331 35.338.04 21.83h4.79v9.755l-4.824 4.825-.214.216H0V62.77l.198-.213 5.05-5.39h.9l-.085-16.614v-.304l4.717-4.78.216-.22zM7.534 40.85l.09 17.788h-1.74L1.468 63.35v7.144h37.044l4.178-4.18v-7.676h-4.787l-.04-21.836-26.255-.08z"/><path fill="#bfbfbf" fill-rule="evenodd" d="m5.651 58.535-4.29 4.525h34.845l4.384-4.525zm6.063-22.099-4.211 4.202h26.032l4.451-4.151z" clip-rule="evenodd"/><path fill="gray" fill-rule="evenodd" d="M32.631 40.639v21.15H7.503z" clip-rule="evenodd"/><path fill="#fff" fill-rule="evenodd" d="M32.089 41.634v16.812H8.588z" clip-rule="evenodd"/><path fill="#fff" fill-rule="evenodd" d="M7.503 61.88V40.55h26.032z" clip-rule="evenodd"/><path fill="gray" fill-rule="evenodd" d="M8.588 58.535V41.723h23.5z" clip-rule="evenodd"/><path fill="#007" d="M30.823 42.72H9.673v14.822h21.15z"/><path fill="#0000db" d="M30.823 43.985H10.938v13.558h19.885z"/><path fill="#bfbfbf" d="M32.089 58.446H8.588v2.35h23.5zm4.158 7.051H3.526v3.435h32.72z"/><path fill="#000" d="M34.077 67.123H22.688v1.808h11.39z"/><path fill="#bfbfbf" d="M3.526 68.932h-2.17v1.807h2.17z"/><path fill="gray" fill-rule="evenodd" d="m32.02 41.706 5.966-5.22v21.96l-3.909 3.349h-2.056z" clip-rule="evenodd"/><path fill="#fff" fill-rule="evenodd" d="m42.833 58.535-6.586 7H3.6v3.36H1.268V63.06h34.979l4.343-4.525z" clip-rule="evenodd"/><path fill="gray" fill-rule="evenodd" d="m42.833 58.535-6.586 7v3.397H3.526v1.807h34.962l4.345-4.164z" clip-rule="evenodd"/><path fill="#000" d="m39.154 58.425-4.56 4.524-.215.212H6.151v-5.258h1.47v3.788h26.154l4.345-4.309z"/><path fill="#ff0" fill-rule="evenodd" d="M52.178 12.76 36.996 29.122h10.538l-27.872 21.33 15.556-16.634H24.064z" clip-rule="evenodd"/><path fill="#000" d="M51.738 12.172a.736.736 0 0 1 .98 1.088L38.68 28.389h8.854a.734.734 0 0 1 .447 1.317l-27.873 21.33a.735.735 0 0 1-.983-1.086l14.4-15.397h-9.46a.736.736 0 0 1-.44-1.323zM26.27 33.084h8.949a.734.734 0 0 1 .536 1.235l-9.512 10.17 19.122-14.631h-8.37a.735.735 0 0 1-.538-1.235L46.1 18.23z"/></svg>