<svg xmlns="http://www.w3.org/2000/svg" width="72" height="72" fill="none" viewBox="0 0 72 72"><g clip-path="url(#a)"><path fill="#67b8c7" d="m63.002 27.002-27-27-27 27a12.73 12.73 0 0 0 0 18l7.5 7.5 12 12 4.5 4.5 3 3 3-3 4.5-4.5 12-12 7.5-7.5a12.73 12.73 0 0 0 0-18m-13.4 26.899a10.56 10.56 0 0 0-3.088-7.403L36.406 36.39a.525.525 0 0 0-.752 0L25.49 46.498a10.56 10.56 0 0 0-3.101 7.399l-3.64-3.639a7.42 7.42 0 0 1 0-10.512l17.253-17.244L53.25 39.754a7.42 7.42 0 0 1 0 10.512zM60.75 42.75l-2.147 2.15a10.56 10.56 0 0 0-3.101-7.398L36.378 18.378a.524.524 0 0 0-.752 0L16.502 37.502a10.56 10.56 0 0 0-3.101 7.399l-2.147-2.151a9.54 9.54 0 0 1 0-13.5L36.002 4.502 60.75 29.25a9.54 9.54 0 0 1 0 13.5"/></g><defs><clipPath id="a"><path fill="#fff" d="M0 .002h72v72H0z"/></clipPath></defs></svg>