<svg xmlns="http://www.w3.org/2000/svg" width="72" height="72" fill="none" viewBox="0 0 72 72"><g clip-path="url(#a)"><path fill="#2ca01c" d="M36 72.002c19.882 0 36-16.118 36-36s-16.118-36-36-36-36 16.118-36 36 16.118 36 36 36"/><path fill="#fff" d="M24 21.931c-7.736 0-14 6.252-14 13.956 0 7.711 6.264 13.956 14 13.956h2v-5.184h-2c-4.856 0-8.8-3.931-8.8-8.772 0-4.84 3.944-8.772 8.8-8.772h4.808v27.114c0 2.863 2.328 5.183 5.2 5.183v-37.48zm24.007 27.912c7.736 0 14-6.252 14-13.955 0-7.712-6.264-13.956-14-13.956h-2v5.183h2c4.856 0 8.8 3.932 8.8 8.773s-3.944 8.771-8.8 8.771H43.2V17.546c0-2.863-2.328-5.184-5.2-5.184v37.481z"/></g><defs><clipPath id="a"><path fill="#fff" d="M0 .002h72v72H0z"/></clipPath></defs></svg>