<svg xmlns="http://www.w3.org/2000/svg" width="72" height="72" fill="none" viewBox="0 0 72 72"><g clip-path="url(#a)"><path fill="#f60" d="M69.113 28.804H46.075a2.87 2.87 0 0 1-2.886-2.886V2.886A2.865 2.865 0 0 0 40.302.018H31.68a2.87 2.87 0 0 0-2.886 2.868v23.032a2.87 2.87 0 0 1-2.887 2.886h-8.623a2.87 2.87 0 0 1-2.887-2.886V2.886A2.867 2.867 0 0 0 11.51 0H2.868A2.87 2.87 0 0 0 0 2.886v66.228A2.867 2.867 0 0 0 2.887 72h66.226a2.87 2.87 0 0 0 2.886-2.886v-37.37a2.867 2.867 0 0 0-2.886-2.94M57.53 53.26a4.31 4.31 0 0 1-4.312 4.328h-5.773a4.31 4.31 0 0 1-4.311-4.328v-5.754a4.31 4.31 0 0 1 4.311-4.329h5.773a4.31 4.31 0 0 1 4.312 4.329z"/></g><defs><clipPath id="a"><path fill="#fff" d="M0 0h72v72H0z"/></clipPath></defs></svg>