<svg xmlns="http://www.w3.org/2000/svg" width="72" height="72" fill="none" viewBox="0 0 72 72"><path fill="#000" d="M70.045 29.56c0-11.402-7.131-17.673-20.473-17.787H29.674L.46 10.86c-.23 0-.46.228-.46.456l.46 2.509a8.474 8.474 0 0 0 8.281 6.727l20.933.912v3.99l-19.438-.911c-.23 0-.46.228-.46.456l.575 2.85a8.474 8.474 0 0 0 8.282 6.728l11.041.456v3.42l-8.281-.228c-.23 0-.46.228-.46.456l.46 1.597c.805 3.99 4.14 7.069 8.281 7.297v12.314h11.502V47.347h7.476l8.74 12.656H72l-11.041-15.05c5.75-2.623 9.086-7.754 9.086-15.393m-21.968 7.867H41.06V22.034h7.36c6.441 0 8.972 2.737 8.972 8.096 0 3.99-2.645 7.297-9.316 7.297"/></svg>