<svg xmlns="http://www.w3.org/2000/svg" width="72" height="72" fill="none" viewBox="0 0 72 72"><path fill="#e00" d="M48.052 40.143c4.715 0 11.538-.973 11.538-6.582a5.3 5.3 0 0 0-.117-1.29l-2.808-12.198c-.648-2.684-1.218-3.901-5.93-6.257-3.656-1.87-11.621-4.958-13.977-4.958-2.194 0-2.831 2.828-5.447 2.828-2.518 0-4.388-2.111-6.744-2.111-2.262 0-3.736 1.541-4.874 4.712 0 0-3.17 8.941-3.578 10.238a2.4 2.4 0 0 0-.083.731c0 3.476 13.684 14.871 32.02 14.871m12.262-4.29c.652 3.088.652 3.412.652 3.82 0 5.277-5.933 8.206-13.733 8.206-17.626.011-33.067-10.318-33.067-17.144 0-.95.193-1.891.57-2.764C8.395 28.272.188 29.403.188 36.648c0 11.867 28.118 26.493 50.382 26.493 17.068 0 21.374-7.72 21.374-13.816 0-4.795-4.147-10.238-11.622-13.487"/></svg>