<svg xmlns="http://www.w3.org/2000/svg" width="72" height="72" fill="none" viewBox="0 0 72 72"><path fill="#ff4438" d="M68.132 39.392c-4.98 6.276-10.36 13.448-21.117 13.448-9.609 0-13.189-8.476-13.44-15.36 2.105 4.45 6.221 8.056 12.643 7.89 12.352-.4 20.818-11.556 20.818-21.716 0-12.152-9.064-20.918-24.802-20.918-11.256 0-25.2 4.283-34.365 11.057-.1 6.972 3.785 16.037 5.18 15.041 7.944-5.712 14.244-9.39 20.354-11.233C24.358 27.688 2.657 51.108 0 55.23c.299 3.785 4.98 13.945 7.271 13.945.698 0 1.295-.399 1.993-1.096 6.542-7.35 11.876-13.942 16.619-20.295.666 9.311 5.245 20.694 18.044 20.694 11.455 0 22.81-8.268 27.99-26.895.598-2.291-2.191-4.084-3.785-2.192m-13.049-15.04c0 5.876-5.776 8.765-11.056 8.765-2.822 0-4.99-.74-6.704-1.704 3.154-4.776 6.277-9.674 9.632-14.917 5.915 1.001 8.129 4.29 8.129 7.856"/></svg>