<svg width="72" height="72" viewBox="0 0 72 72" fill="none" xmlns="http://www.w3.org/2000/svg">
<path d="M63.1671 10.1543L68.618 12.7887V59.0772L63.1671 61.7114L54.5264 36L63.1671 10.1543Z" fill="#5294CF"/>
<path d="M8.61192 10.1543L3.16113 12.7887V59.0772L8.61192 61.7114L22.2532 36L8.61192 10.1543Z" fill="#205B99"/>
<path d="M35.8848 55.0536L63.1675 61.6924V10.1543L35.8848 16.8025V55.0536Z" fill="#205B99"/>
<path d="M35.8843 55.0536L8.61133 61.6924V10.1543L35.8843 16.8025V55.0536Z" fill="#5294CF"/>
<path d="M42.4363 72L52.8591 66.7984V5.2017L42.4363 0L32.0713 34.2372L42.4363 72Z" fill="#5294CF"/>
<path d="M29.3405 72L18.918 66.7984V5.2017L29.3405 0L38.6136 36L29.3405 72Z" fill="#205B99"/>
<path d="M42.437 0H29.3418V72H42.437V0Z" fill="#2E73B8"/>
</svg>
