<svg xmlns="http://www.w3.org/2000/svg" width="72" height="72" fill="none" viewBox="0 0 72 72"><g clip-path="url(#clip0_25886_7160)"><path fill="#4461ff" fill-rule="evenodd" d="M16.825.42A17 17 0 0 0 .419 16.824C.194 23.128 0 30.245 0 36s.194 12.872.42 19.175A17 17 0 0 0 16.824 71.58c6.304.226 13.421.42 19.176.42s12.872-.194 19.175-.419A17 17 0 0 0 71.58 55.175c.226-6.303.42-13.42.42-19.175s-.194-12.872-.419-19.175A17 17 0 0 0 55.175.419C48.872.194 41.755 0 36 0S23.128.194 16.825.42M28.94 21.022a6 6 0 0 1-.085.233c.293.137.649.273 1.08.398 1.818.528 4.297.64 6.645.552a46 46 0 0 0 4.77-.431c2.185-.324 3.922 1.904 3.03 4l-7.835 18.39c-1.343 5.01 1.367 7.952 3.637 8.612 2.072.601 5.557-.328 7.07-5.678l.673-2.372-2.04 1.102a2.177 2.177 0 0 1-2.964-.914 2.233 2.233 0 0 1 .903-3.002l7.295-3.941c1.11-.6 2.49-.185 3.098.931l4.01 7.374a2.234 2.234 0 0 1-.861 3.014 2.177 2.177 0 0 1-2.977-.872l-1.19-2.191-.68 2.4c-2.189 7.73-8.339 11.081-13.846 9.482-5.284-1.535-9.606-7.665-7.349-15.637l.049-.171 6.215-14.588a52 52 0 0 1-.807.036c-2.503.093-5.685.013-8.355-.762a12 12 0 0 1-2.66-1.11l-3.17 11.197a5.15 5.15 0 0 1 .786 4.433c-.767 2.71-3.557 4.276-6.231 3.499s-4.221-3.603-3.454-6.312a5.06 5.06 0 0 1 3.754-3.577l3.166-11.183a5.68 5.68 0 0 1-2.472-3.733 5.73 5.73 0 0 1 .728-3.988 5.6 5.6 0 0 1 3.171-2.476 5.53 5.53 0 0 1 3.993.304 5.64 5.64 0 0 1 2.771 2.928 5.74 5.74 0 0 1 .132 4.053" clip-rule="evenodd"/></g><defs><clipPath id="clip0_25886_7160"><path fill="#fff" d="M0 0h72v72H0z"/></clipPath></defs></svg>