<svg xmlns="http://www.w3.org/2000/svg" width="72" height="72" fill="none" viewBox="0 0 72 72"><path fill="#ff3c00" d="M36.414 18.907c0 .327 0 .49.011.655A4.95 4.95 0 0 0 37.6 22.4c.109.125.208.224.406.422a4.7 4.7 0 0 0 3.333 1.36h13.514c2.7 0 4.051 0 5.083.526a4.82 4.82 0 0 1 2.108 2.107c.525 1.032.525 2.382.525 5.083v8.16c0 2.701 0 4.052-.525 5.083a4.82 4.82 0 0 1-2.108 2.108c-1.032.526-2.382.526-5.083.526H41.307a4.66 4.66 0 0 0-3.299 1.346c-.2.2-.3.3-.41.425a4.95 4.95 0 0 0-1.173 2.834c-.011.166-.011.33-.011.656v11.249c0 2.7 0 4.051-.526 5.083a4.82 4.82 0 0 1-2.108 2.107C32.75 72 31.398 72 28.697 72h-10.98c-2.702 0-4.052 0-5.084-.526a4.82 4.82 0 0 1-2.107-2.107C10 68.335 10 66.985 10 64.283v-8.719c0-2.7 0-4.051.526-5.083a4.82 4.82 0 0 1 2.107-2.108c1.032-.525 2.382-.525 5.083-.525h13.726a4.92 4.92 0 0 0 3.341-1.423c.234-.233.35-.35.473-.492a4.93 4.93 0 0 0 1.143-2.761c.015-.187.015-.373.015-.744V29.514c0-.371 0-.557-.015-.745a4.94 4.94 0 0 0-1.142-2.758 9 9 0 0 0-.476-.496 4.7 4.7 0 0 0-3.335-1.363h-13.73c-2.7 0-4.051 0-5.083-.525a4.82 4.82 0 0 1-2.107-2.108C10 20.487 10 19.137 10 16.436v-8.72c0-2.7 0-4.051.526-5.083A4.82 4.82 0 0 1 12.633.526C13.665 0 15.015 0 17.716 0h10.981c2.701 0 4.052 0 5.083.526a4.82 4.82 0 0 1 2.108 2.107c.526 1.032.526 2.382.526 5.083z"/></svg>