<svg xmlns="http://www.w3.org/2000/svg" width="72" height="72" fill="none" viewBox="0 0 72 72"><path fill="#fff" d="M26.657 58.543c3.611 0 6.538 3.013 6.538 6.729 0 3.715-2.927 6.728-6.538 6.728-3.61 0-6.541-3.013-6.541-6.728 0-3.716 2.927-6.729 6.541-6.729m18.691 0c3.615 0 6.545 3.01 6.545 6.729 0 3.715-2.93 6.728-6.545 6.728-3.61 0-6.537-3.013-6.537-6.728 0-3.716 2.927-6.729 6.537-6.729M7.541 38.894c3.615 0 6.541 3.014 6.541 6.729s-2.926 6.728-6.54 6.728C3.93 52.351 1 49.338 1 45.623s2.93-6.729 6.541-6.729m56.909 0c3.61 0 6.541 3.014 6.541 6.729s-2.93 6.728-6.541 6.728c-3.61 0-6.538-3.013-6.538-6.728s2.927-6.729 6.538-6.729M7.541 19.645c3.615 0 6.541 3.013 6.541 6.729 0 3.715-2.926 6.728-6.54 6.728C3.93 33.102 1 30.089 1 26.374c0-3.716 2.93-6.729 6.541-6.729m56.909 0c3.61 0 6.541 3.013 6.541 6.729 0 3.715-2.93 6.728-6.541 6.728-3.61 0-6.538-3.013-6.538-6.728 0-3.716 2.927-6.729 6.538-6.729M26.657 0c3.611 0 6.538 3.013 6.538 6.728 0 3.716-2.927 6.729-6.538 6.729-3.614 0-6.541-3.013-6.541-6.729C20.116 3.013 23.043 0 26.657 0m18.691 0c3.615 0 6.545 3.013 6.545 6.728 0 3.716-2.93 6.729-6.545 6.729-3.61 0-6.537-3.013-6.537-6.729C38.81 3.013 41.738 0 45.348 0"/></svg>