<svg xmlns="http://www.w3.org/2000/svg" width="72" height="72" fill="none" viewBox="0 0 72 72"><g clip-path="url(#a)"><path fill="#00c5ef" fill-rule="evenodd" d="m53.897 30.638 1.865 10.195-16.121-.836S12.514 25.122 31.33 2.51c-1.95 13.383 13.234 20.316 22.568 28.128" clip-rule="evenodd"/><path fill="#740092" fill-rule="evenodd" d="M27.706 44.993c-4.145 1.727-12.989 12.847-9.02 25.51C10.289 58.905 1.28 45.47 6.166 22.482c.342 9.902 8 18.918 21.54 22.51" clip-rule="evenodd"/><mask id="b" width="16" height="49" x="4" y="22" maskUnits="userSpaceOnUse" style="mask-type:luminance"><path fill="#fff" d="M19.702 22.483H4.785v48.04h14.917z"/></mask><g mask="url(#b)"><path fill="#b31696" fill-rule="evenodd" d="M19.706 54.62a22.55 22.55 0 0 0-1.02 15.89C10.289 58.907 1.28 45.47 6.166 22.484c-1.66 9.819 3.637 24.33 13.54 32.137" clip-rule="evenodd"/></g><path fill="#0072bf" fill-rule="evenodd" d="M61.98 38.056c8.497 11.203 7.109 29.227-7.548 33.37l-.485.13c-11.37 2.823-14.745-9.011-10.743-14.372 2.07-2.777 8.225-4.341 12.039-.222 2.09-4.102-1.326-7.565-6.992-10.455-1.296-3.8-3.973-6.648-13.382-6.996C25.46 39.164 1.98 31.336 9.407.002 20.873 22.801 49.326 21.388 61.98 38.056" clip-rule="evenodd"/><mask id="c" width="52" height="57" x="7" y="0" maskUnits="userSpaceOnUse" style="mask-type:luminance"><path fill="#fff" d="M58.308.002H7.975v56.973h50.332z"/></mask><g mask="url(#c)"><path fill="#2d1463" fill-rule="evenodd" d="M20.258 23.566c10.923 9.108 25.396 7.318 34.29 17.204 3.999 4.437 5.65 11.324.695 16.204 2.09-4.102-1.326-7.564-6.992-10.454-1.296-3.801-3.973-6.649-13.382-6.996S1.98 31.336 9.407.002c.815 11.345 4.679 18.42 10.851 23.564" clip-rule="evenodd"/></g><mask id="d" width="30" height="19" x="24" y="12" maskUnits="userSpaceOnUse" style="mask-type:luminance"><path fill="#fff" d="M53.896 12.932H24.833v17.706h29.063z"/></mask><g mask="url(#d)"><path fill="#00a9e5" fill-rule="evenodd" d="M44.458 23.587c3.258 2.405 6.616 4.688 9.438 7.05-8.547-5.753-19.595-8.89-29.063-14.635q.198-1.56.64-3.07c6.076 4.086 12.767 7.218 18.985 10.655" clip-rule="evenodd"/></g><path fill="#00c5ef" fill-rule="evenodd" d="M53.896 30.642a33.2 33.2 0 0 1 8.084 7.414c6.887 9.083 7.276 22.657-.64 29.69a17.5 17.5 0 0 1-6.909 3.698l-.485.13C42.576 74.395 39.201 62.56 43.203 57.2c2.07-2.776 8.226-4.34 12.04-.221 2.09-4.103-1.326-7.565-6.992-10.455-1.046-3.06-2.982-5.503-8.61-6.52 0 0-16.67-9.153-14.804-24.01 9.463 5.753 20.512 8.894 29.06 14.648" clip-rule="evenodd" opacity=".36" style="mix-blend-mode:lighten"/><path fill="#f10091" fill-rule="evenodd" d="M18.217 59.747a21.85 21.85 0 0 0 .582 10.776C13.655 63.416 8.28 55.604 6.01 45.342c4.784 12.788 12.185 14.402 12.206 14.406" clip-rule="evenodd"/></g><defs><clipPath id="a"><path fill="#fff" d="M0 .002h72v72H0z"/></clipPath></defs></svg>