<svg xmlns="http://www.w3.org/2000/svg" width="72" height="72" fill="none" viewBox="0 0 72 72"><g clip-path="url(#a)"><path fill="#000" d="M8.659 24.015c0-5.957-3.018-10.88-8.659-15.013h13.112a18.83 18.83 0 0 1 7.422 15.013 18.84 18.84 0 0 1-7.422 15.013c4.257 1.775 6.679 6.108 6.679 12.309v11.815H7.919V51.337c0-5.906-2.82-10.04-7.916-12.306 5.641-4.137 8.659-9.056 8.659-15.013zm25.73 0c0-5.957-3.018-10.88-8.659-15.013h13.115a18.83 18.83 0 0 1 7.419 15.013 18.83 18.83 0 0 1-7.42 15.013c4.255 1.775 6.68 6.108 6.68 12.309v11.815H33.649V51.337c0-5.906-2.822-10.04-7.919-12.306 5.641-4.137 8.659-9.056 8.659-15.013zm25.736 0c0-5.957-3.018-10.88-8.659-15.013h13.112A18.84 18.84 0 0 1 72 24.015a18.84 18.84 0 0 1-7.422 15.013c4.257 1.775 6.679 6.108 6.679 12.309v11.815H59.382V51.337c0-5.906-2.82-10.04-7.916-12.306 5.641-4.137 8.659-9.056 8.659-15.013z"/></g><defs><clipPath id="a"><path fill="#fff" d="M0 .002h72v72H0z"/></clipPath></defs></svg>