<svg xmlns="http://www.w3.org/2000/svg" width="72" height="72" fill="none" viewBox="0 0 72 72"><path fill="#00a1e0" fill-rule="evenodd" d="M29.962 16.296c2.322-2.418 5.556-3.92 9.13-3.92 4.753 0 8.9 2.65 11.108 6.586a15.35 15.35 0 0 1 6.28-1.335c8.572 0 15.52 7.01 15.52 15.658s-6.948 15.659-15.52 15.659c-1.049 0-2.07-.105-3.059-.304a11.35 11.35 0 0 1-9.904 5.81c-1.78 0-3.465-.41-4.964-1.142-1.971 4.638-6.565 7.888-11.917 7.888-5.573 0-10.325-3.527-12.148-8.473a12 12 0 0 1-2.47.257C5.381 52.98 0 47.544 0 40.838A12.16 12.16 0 0 1 6.009 30.32a13.9 13.9 0 0 1-1.15-5.554c0-7.714 6.261-13.966 13.985-13.966a13.96 13.96 0 0 1 11.118 5.496" clip-rule="evenodd"/><path fill="#fff" fill-rule="evenodd" d="m10.429 36.935.291-.809c.047-.138.151-.093.194-.067.081.048.14.092.244.153a3.5 3.5 0 0 0 1.902.548c.642 0 1.04-.34 1.04-.799v-.024c0-.499-.613-.688-1.323-.905l-.157-.05c-.974-.278-2.016-.679-2.016-1.912v-.025c0-1.17.944-1.987 2.295-1.987l.148-.001c.794 0 1.56.23 2.117.568.05.031.099.09.07.166l-.299.81c-.052.137-.196.046-.196.046a4.26 4.26 0 0 0-1.876-.481c-.573 0-.942.303-.942.716v.026c0 .481.632.687 1.364.925l.126.04c.97.307 2.007.732 2.007 1.901v.025c0 1.264-.918 2.049-2.394 2.049-.726 0-1.42-.112-2.153-.502-.139-.08-.276-.15-.411-.248-.015-.02-.077-.045-.032-.163m21.62 0 .293-.809c.042-.132.166-.083.193-.067.08.05.14.092.244.153.86.543 1.654.548 1.904.548.64 0 1.04-.34 1.04-.799v-.024c0-.499-.614-.688-1.323-.905l-.158-.05c-.976-.278-2.017-.679-2.017-1.912v-.025c0-1.17.944-1.987 2.296-1.987l.147-.001c.794 0 1.562.23 2.118.568.05.031.099.09.071.166a89 89 0 0 0-.3.81c-.053.137-.196.046-.196.046a4.26 4.26 0 0 0-1.876-.481c-.574 0-.942.303-.942.716v.026c0 .481.63.687 1.364.925l.126.04c.97.307 2.006.732 2.006 1.901v.025c0 1.264-.917 2.049-2.394 2.049-.726 0-1.42-.112-2.153-.502-.138-.08-.275-.15-.411-.248-.015-.02-.077-.045-.031-.163m15.994-3.803c.121.407.18.853.18 1.325s-.059.917-.18 1.324a3 3 0 0 1-.56 1.071 2.7 2.7 0 0 1-.947.714c-.378.173-.822.26-1.322.26-.499 0-.945-.087-1.321-.26a2.7 2.7 0 0 1-.948-.714 3 3 0 0 1-.56-1.07 4.7 4.7 0 0 1-.181-1.325c0-.473.06-.918.181-1.325.121-.409.31-.77.56-1.07.258-.308.582-.554.948-.72q.568-.265 1.321-.265t1.322.265c.376.175.696.417.948.72.25.3.44.661.559 1.07m-1.232 1.325c0-.714-.132-1.276-.395-1.67-.26-.39-.654-.579-1.202-.579s-.938.189-1.195.58c-.258.393-.39.955-.39 1.669 0 .713.132 1.279.392 1.676.255.395.645.586 1.193.586s.942-.192 1.202-.586c.261-.397.395-.963.395-1.676m11.357 2.07.302.837c.04.103-.05.148-.05.148a5.1 5.1 0 0 1-1.745.31c-1.07 0-1.889-.308-2.435-.916-.543-.606-.82-1.43-.82-2.454 0-.473.068-.921.202-1.327a3 3 0 0 1 .6-1.07c.274-.31.613-.555.992-.72.394-.176.857-.264 1.373-.264q.526 0 .926.06c.284.045.663.147.822.21.03.01.11.05.078.145-.117.328-.196.543-.304.842-.048.127-.144.085-.144.085a4.1 4.1 0 0 0-1.302-.186c-.61 0-1.069.203-1.368.6-.302.401-.472.927-.474 1.625-.002.766.19 1.334.53 1.685.34.35.813.528 1.41.528q.365 0 .676-.048c.203-.032.394-.095.573-.165 0 0 .116-.044.158.076m6.307-3.627c.269.94.129 1.752.124 1.797-.01.107-.12.109-.12.109l-4.173-.003c.026.634.178 1.082.485 1.387.301.299.78.49 1.428.49.99.003 1.414-.196 1.714-.307 0 0 .114-.041.157.072l.272.765c.055.128.01.173-.036.2-.261.143-.895.413-2.101.416-.585.002-1.095-.081-1.515-.245a2.76 2.76 0 0 1-1.05-.695 2.75 2.75 0 0 1-.605-1.06 4.5 4.5 0 0 1-.188-1.333c0-.472.06-.921.183-1.331a3 3 0 0 1 .564-1.085 2.74 2.74 0 0 1 .962-.732c.382-.18.856-.268 1.378-.268.446 0 .854.095 1.194.242q.39.168.793.604c.17.183.43.583.534.977m-4.15.872h2.977c-.03-.383-.106-.726-.277-.984-.262-.391-.622-.606-1.17-.606s-.937.215-1.194.606c-.169.258-.277.587-.336.984M31.052 32.9c.268.94.13 1.752.125 1.797-.01.107-.121.109-.121.109l-4.173-.003c.026.634.178 1.082.485 1.387.302.299.78.49 1.428.49.99.003 1.415-.196 1.714-.307 0 0 .114-.041.157.072l.272.765c.056.128.012.173-.034.2-.263.143-.898.413-2.103.416-.585.002-1.095-.081-1.514-.245a2.8 2.8 0 0 1-1.05-.695 2.8 2.8 0 0 1-.604-1.06 4.5 4.5 0 0 1-.19-1.333c0-.472.061-.921.183-1.331.113-.396.305-.765.565-1.085.262-.312.59-.562.96-.732.385-.18.859-.268 1.379-.268a3 3 0 0 1 1.195.242q.391.168.793.604c.17.183.43.583.533.977m-4.15.872h2.978c-.032-.383-.107-.726-.278-.984-.26-.391-.622-.606-1.169-.606-.548 0-.938.215-1.194.606-.17.258-.277.587-.338.984m-7.36-.2s.33.03.688.082v-.177c0-.556-.116-.819-.343-.994-.233-.178-.581-.27-1.032-.27 0 0-1.015-.013-1.819.423-.037.022-.067.035-.067.035s-.101.035-.137-.068l-.296-.793c-.045-.115.037-.167.037-.167.376-.293 1.286-.47 1.286-.47q.555-.098 1.12-.103c.832 0 1.477.194 1.916.577.44.385.663 1.006.663 1.842l.002 3.818s.009.11-.096.135c0 0-.153.043-.291.075-.14.032-.642.135-1.052.204q-.63.105-1.268.105c-.405 0-.777-.037-1.105-.112a2.3 2.3 0 0 1-.85-.369 1.7 1.7 0 0 1-.543-.652q-.192-.396-.193-.953c0-.363.077-.687.224-.963q.223-.413.606-.688a2.7 2.7 0 0 1 .87-.404q.49-.13 1.029-.131.394-.001.651.019m-1.66 2.933c-.003 0 .373.295 1.223.243a8.5 8.5 0 0 0 1.126-.15v-1.897s-.534-.087-1.133-.096c-.85-.01-1.212.302-1.21.302-.25.178-.372.441-.372.807q0 .352.126.544c.053.084.076.116.24.247m35.32-5.083c-.04.114-.242.686-.315.876-.027.072-.07.122-.152.113 0 0-.24-.055-.458-.055-.15 0-.366.019-.56.079s-.37.166-.514.31a1.54 1.54 0 0 0-.366.614c-.092.26-.139.677-.139 1.094v3.109a.126.126 0 0 1-.126.127h-1.095a.13.13 0 0 1-.13-.126v-6.225c0-.07.052-.126.122-.126h1.068c.071 0 .122.056.122.126v.509c.16-.215.446-.404.705-.52.26-.118.55-.205 1.076-.173.273.016.628.091.7.119a.113.113 0 0 1 .062.15M42.91 28.538c.03.011.109.05.077.145l-.32.876c-.027.066-.044.106-.18.065a1.9 1.9 0 0 0-.557-.087q-.249 0-.447.065a.85.85 0 0 0-.35.216 1.2 1.2 0 0 0-.293.446c-.154.44-.213.91-.22.94h1.334c.112 0 .148.053.136.136l-.155.867c-.026.126-.14.121-.14.121H40.42l-.94 5.32q-.12.718-.366 1.402c-.147.385-.3.666-.543.935-.209.24-.474.425-.771.537-.29.106-.64.16-1.024.16-.183 0-.38-.003-.612-.059a3 3 0 0 1-.382-.111c-.05-.019-.093-.084-.063-.167l.309-.848c.043-.108.151-.066.151-.066a1 1 0 0 0 .225.071c.1.02.233.037.335.037q.274.001.491-.07c.174-.057.276-.158.382-.294.11-.142.2-.335.292-.594.092-.262.176-.609.248-1.029l.936-5.223h-.921c-.11 0-.148-.052-.136-.135l.154-.868c.025-.126.142-.121.142-.121h.946l.051-.282c.142-.838.423-1.475.839-1.893.418-.421 1.013-.634 1.767-.634a3.3 3.3 0 0 1 .98.142m-18.643 9.024c0 .07-.05.127-.12.127h-1.106c-.071 0-.12-.057-.12-.126v-8.909c0-.068.05-.125.119-.125h1.107c.07 0 .12.057.12.126z" clip-rule="evenodd"/></svg>