<svg xmlns="http://www.w3.org/2000/svg" width="72" height="72" fill="none" viewBox="0 0 72 72"><g clip-path="url(#a)"><path fill="#f03e2f" d="M64.286.002H7.714A7.714 7.714 0 0 0 0 7.716v56.572a7.714 7.714 0 0 0 7.714 7.714h56.572A7.714 7.714 0 0 0 72 64.288V7.716A7.714 7.714 0 0 0 64.286.002"/><path fill="#fff" d="M22.166 18.645c0 6.197 3.908 9.874 11.674 11.829l8.254 1.877c7.38 1.645 11.855 5.785 11.855 12.523a12.63 12.63 0 0 1-2.752 8.1c0-6.712-3.523-10.338-12.06-12.523l-8.1-1.8c-6.48-1.466-11.494-4.86-11.494-12.163-.035-2.835.89-5.6 2.623-7.843"/><path fill="#fff" fill-opacity=".702" d="M46.132 43.202c3.523 2.237 5.066 5.323 5.066 9.771-2.906 3.651-8.023 5.709-14.04 5.709-10.131 0-17.228-4.886-18.771-13.397h9.72c1.234 3.908 4.551 5.708 9 5.708 5.4 0 8.974-2.829 9.051-7.791M27.232 27.825a10.26 10.26 0 0 1-5.066-9.18c2.829-3.6 7.715-5.837 13.68-5.837 10.286 0 16.278 5.348 17.743 12.857h-9.36c-1.028-2.957-3.6-5.272-8.305-5.272-5.04 0-8.486 2.88-8.666 7.458"/></g><defs><clipPath id="a"><path fill="#fff" d="M0 .002h72v72H0z"/></clipPath></defs></svg>