<svg xmlns="http://www.w3.org/2000/svg" width="72" height="72" fill="none" viewBox="0 0 72 72"><path fill="#000" fill-rule="evenodd" d="M6.832 24.133c-2.996.492-5.232 2.424-5.85 5.054-.188.799-.194 2.895-.012 3.757.265 1.25 1.055 2.45 2.106 3.2 1.133.809 2.17 1.214 5.911 2.307 1.995.583 3.052 1.168 3.335 1.845.17.404.169 1.296 0 1.692-.517 1.206-2.445 1.668-4.815 1.153-1.246-.271-2.483-.897-3.936-1.993l-.799-.602-1.36 1.726c-.75.95-1.384 1.782-1.41 1.85-.064.167 1.322 1.278 2.35 1.885 2.346 1.386 5.204 2.04 7.896 1.807 4.59-.398 7.186-3.22 6.977-7.582-.103-2.136-.823-3.528-2.407-4.651-1.146-.812-2.168-1.23-5.196-2.13-2.372-.703-3.163-1.04-3.59-1.526-.798-.91-.543-2.402.511-2.994.91-.51 2.441-.522 3.915-.03.99.331 1.645.655 2.79 1.377l.842.531.225-.355c.123-.195.685-1.06 1.249-1.924l1.025-1.568-.258-.208c-1.07-.862-2.794-1.796-3.993-2.163-1.642-.503-4.03-.701-5.506-.459m22.285-.03c-4.05.551-7.32 3.12-8.917 7.005-1.248 3.037-1.252 6.797-.009 9.88 1.505 3.731 4.702 6.29 8.61 6.89 1.383.214 3.439.13 4.686-.188.997-.256 1.723-.551 2.42-.985l.452-.282-1.26-1.937-1.261-1.936-.348.177c-.966.493-2.832.701-4.019.448-1.21-.258-2.062-.738-3.01-1.693-.69-.696-.906-.99-1.27-1.74-.627-1.293-.861-2.341-.854-3.832.006-1.456.21-2.336.838-3.61.771-1.568 2.122-2.779 3.634-3.26 1.394-.442 2.711-.407 4.147.11.371.134.74.263.819.287.1.03.513-.523 1.373-1.845l1.23-1.888-.221-.241c-.342-.374-1.728-.981-2.705-1.185-1.034-.217-3.348-.31-4.335-.176m10.42 11.903V48.01h1.315c2.123 0 2.872-.334 3.481-1.554.252-.504.295-.696.295-1.326 0-.406-.05-.989-.112-1.297-.11-.549-.108-.563.144-.78.237-.204.448-.588.448-.816 0-.052-.11-.205-.246-.34-.135-.135-.232-.254-.216-.264 1.01-.603 1.076-.763.702-1.69-.424-1.054-.251-1.454.892-2.063.907-.483 1.22-1.321.767-2.056-.118-.191-.708-1.017-1.311-1.836-1.592-2.162-1.682-2.432-1.144-3.42.484-.888.446-1.418-.248-3.447-.547-1.6-.812-2.182-1.279-2.81L42.793 24h-3.255zm10.47 0V48.01h4.8l.025-7.87.024-7.871 3.02 4.847c1.66 2.666 3.065 4.833 3.12 4.815.057-.018 1.465-2.218 3.128-4.888l3.026-4.854.024 7.91.025 7.911H72V24l-2.617.001h-2.617l-2.875 4.895c-2.421 4.125-2.891 4.87-2.982 4.73-.06-.09-1.358-2.294-2.884-4.895L55.249 24h-5.243z" clip-rule="evenodd"/></svg>