<svg xmlns="http://www.w3.org/2000/svg" width="72" height="72" fill="none" viewBox="0 0 72 72"><g clip-path="url(#a)"><path fill="#fff" d="M9 36.172v-21.37s3.496-4.657 8.924-8.236C26.86.676 35.941.002 36 .002c.079 0 9.162.703 18.079 6.59 5.372 3.546 8.893 8.212 8.893 8.212v9.273h-8.193v-6.191C47.713 10.283 38.056 8.584 36 8.296c-2.028.288-11.769 2.044-18.807 9.59v7.345l-3.52 2.706H63V41.59c-.01 6.872-3.776 13.17-9.045 18.41-8.101 8.055-17.942 12.002-17.983 12.002-6.024-2.773-12.748-6.739-17.975-11.662C12.742 55.388 9 49.47 9 42.825V40.03h10.136l-1.942 2.794c0 5.246 4.773 10.143 9.831 14.105 2.79 2.185 8.96 6.342 8.948 6.342.068 0 7.52-5.097 9.066-6.336 4.448-3.572 9.77-9.13 9.77-15.35v-2.188l3.913-3.226z"/></g><defs><clipPath id="a"><path fill="#fff" d="M0 .002h72v72H0z"/></clipPath></defs></svg>