<svg xmlns="http://www.w3.org/2000/svg" width="72" height="72" fill="none" viewBox="0 0 72 72"><path fill="#ff642d" d="M62.09 35.719c0 1.34-.672 1.547-2.375 1.547-1.807 0-2.117-.31-2.323-1.65-.362-3.458-2.686-6.402-6.606-6.71-1.237-.102-1.547-.568-1.547-2.116 0-1.444.206-2.116 1.34-2.116 6.813 0 11.51 5.47 11.51 11.045m9.91 0c0-10.373-7.019-21.317-23.226-21.317H16.555c-.65 0-1.053.34-1.053.933 0 .324.242.615.463.786 1.18.928 2.9 1.948 5.207 3.101 2.236 1.118 3.963 1.845 5.718 2.557.724.294 1.012.615 1.012 1.045 0 .56-.395.917-1.21.917H1.12c-.756 0-1.121.487-1.121.98 0 .418.147.753.503 1.123 2.076 2.165 5.376 4.777 10.199 7.794 4.227 2.644 9.45 5.497 13.594 7.483.696.335.938.721.922 1.121-.02.463-.384.854-1.189.854H12.307c-.667 0-1.037.351-1.037.89 0 .299.243.68.558.968 2.666 2.419 6.929 5.063 12.61 7.481 7.575 3.227 15.288 5.166 23.95 5.166C64.801 57.601 72 45.32 72 35.72M50.58 50.428c-8.052 0-14.76-6.556-14.76-14.71 0-8.052 6.708-14.502 14.76-14.502 8.259 0 14.709 6.453 14.709 14.503 0 8.153-6.45 14.709-14.71 14.709"/></svg>