<svg xmlns="http://www.w3.org/2000/svg" width="72" height="72" fill="none" viewBox="0 0 72 72"><g fill="#51a9e3" clip-path="url(#a)"><path d="M44.817 48.34a3.73 3.73 0 0 1 3.737 3.737v16.186a3.73 3.73 0 0 1-3.737 3.738H3.737A3.73 3.73 0 0 1 0 68.263V27.176a3.73 3.73 0 0 1 3.737-3.737h16.185a3.73 3.73 0 0 1 3.737 3.737v18.677a2.5 2.5 0 0 0 2.491 2.492h18.677zM27.174 23.662H45.85a2.5 2.5 0 0 1 2.491 2.491v18.678a3.73 3.73 0 0 0 3.737 3.737h16.185A3.73 3.73 0 0 0 72 44.831V3.738A3.73 3.73 0 0 0 68.263.001h-41.09a3.73 3.73 0 0 0-3.737 3.737v16.186a3.73 3.73 0 0 0 3.738 3.738"/></g><defs><clipPath id="a"><path fill="#fff" d="M0 .001h72v72H0z"/></clipPath></defs></svg>