<svg xmlns="http://www.w3.org/2000/svg" width="72" height="72" fill="none" viewBox="0 0 72 72"><path fill="#000" d="M41.728 6.78a6.73 6.73 0 0 0-11.532 0l-9.485 16.245a46.43 46.43 0 0 1 25.587 38.43h-6.66a39.9 39.9 0 0 0-22.285-32.75l-8.78 15.179A22.95 22.95 0 0 1 21.88 61.427H6.585a1.095 1.095 0 0 1-.894-1.6l4.238-7.208a15.5 15.5 0 0 0-4.844-2.739L.891 57.088a6.545 6.545 0 0 0 2.436 8.995c.995.56 2.116.858 3.258.865H27.53a27.97 27.97 0 0 0-11.532-24.953l3.33-5.766a34.41 34.41 0 0 1 14.847 30.719H51.92a51.72 51.72 0 0 0-23.655-45.84l6.732-11.532a1.11 1.11 0 0 1 1.513-.39c.764.419 29.248 50.122 29.782 50.698a1.096 1.096 0 0 1-.98 1.63H58.45a58 58 0 0 1 0 5.491h6.89A6.616 6.616 0 0 0 72 60.36c0-1.156-.308-2.29-.894-3.286z"/></svg>