<svg width="72" height="72" viewBox="0 0 72 72" fill="none" xmlns="http://www.w3.org/2000/svg">
<path d="M41.7284 6.77953C41.1296 5.78565 40.284 4.96343 39.2737 4.39267C38.2634 3.82191 37.1228 3.52197 35.9624 3.52197C34.802 3.52197 33.6614 3.82191 32.6511 4.39267C31.6408 4.96343 30.7953 5.78565 30.1964 6.77953L20.7113 23.0252C27.9575 26.643 34.1314 32.0932 38.6199 38.8348C43.1084 45.5764 45.7553 53.3748 46.298 61.4557H39.6382C39.0966 54.5288 36.7556 47.8635 32.8469 42.1192C28.9382 36.375 23.5972 31.751 17.3526 28.7048L8.57388 43.8838C12.0844 45.4582 15.1428 47.89 17.4677 50.9554C19.7926 54.0209 21.3096 57.6218 21.8789 61.4268H6.58461C6.40322 61.414 6.22788 61.3562 6.0744 61.2587C5.92092 61.1612 5.79413 61.027 5.70546 60.8683C5.61678 60.7095 5.56902 60.5312 5.56648 60.3494C5.56393 60.1675 5.60668 59.9879 5.69088 59.8268L9.92889 52.6193C8.49307 51.4213 6.85209 50.4934 5.08545 49.8804L0.890681 57.0879C0.453984 57.837 0.170484 58.6653 0.0566491 59.5249C-0.0571858 60.3844 0.000913954 61.258 0.227573 62.0949C0.454233 62.9318 0.844933 63.7153 1.37698 64.3999C1.90902 65.0845 2.5718 65.6566 3.32682 66.0829C4.32159 66.6434 5.44282 66.941 6.58461 66.9478H27.5296C27.9186 62.1477 27.0614 57.3284 25.0411 52.9569C23.0207 48.5853 19.9056 44.8096 15.9976 41.9954L19.3275 36.2294C24.2595 39.6168 28.2229 44.2318 30.8267 49.6187C33.4304 55.0057 34.5845 60.9786 34.1749 66.9478H51.9198C52.3331 57.9052 50.3658 48.9126 46.2148 40.8685C42.0637 32.8244 35.8742 26.0106 28.2648 21.108L34.9966 9.57604C35.1466 9.32471 35.3898 9.1428 35.6733 9.06991C35.9567 8.99701 36.2575 9.03904 36.5102 9.18683C37.2742 9.60487 65.7582 59.3078 66.2916 59.8844C66.3855 60.0529 66.4334 60.2432 66.4302 60.4361C66.427 60.629 66.3729 60.8176 66.2735 60.9829C66.174 61.1482 66.0326 61.2843 65.8637 61.3774C65.6948 61.4706 65.5042 61.5174 65.3114 61.5133H58.4498C58.5363 63.3488 58.5363 65.1795 58.4498 67.0054H65.3402C66.2152 67.0112 67.0825 66.8433 67.8922 66.5116C68.7018 66.1798 69.4376 65.6908 70.057 65.0727C70.6764 64.4547 71.167 63.72 71.5005 62.911C71.834 62.1021 72.0038 61.2351 71.9999 60.3601C72.0008 59.2044 71.6922 58.0696 71.1062 57.0735L41.7284 6.77953Z" fill="white"/>
</svg>
