<svg width="72" height="72" viewBox="0 0 72 72" fill="none" xmlns="http://www.w3.org/2000/svg">
<g clip-path="url(#clip0_6722_31907)">
<g filter="url(#filter0_d_6722_31907)">
<path d="M64.0609 46.2066L64.0412 52.2628C64.0412 52.4276 63.9332 52.5923 63.717 52.7178L36.8119 68.3038C36.5761 68.441 36.2558 68.5039 35.9453 68.4901L35.9492 62.4024C36.2676 62.4181 36.5937 62.3553 36.8335 62.2161L63.7386 46.6281C63.8076 46.589 63.8645 46.5458 63.9097 46.4987C63.9293 46.481 63.945 46.4614 63.9607 46.4437C63.998 46.3968 64.0255 46.3458 64.0432 46.2967C64.0471 46.2868 64.0511 46.277 64.053 46.2672C64.053 46.2652 64.053 46.2633 64.053 46.2613C64.053 46.2613 64.053 46.2594 64.053 46.2574C64.053 46.2537 64.055 46.2517 64.055 46.2478C64.055 46.2439 64.055 46.2399 64.0569 46.234C64.0609 46.2242 64.0609 46.2144 64.0628 46.2046L64.0609 46.2066Z" fill="#C9D7DD"/>
<path d="M64.0601 46.1752V46.2047C64.0601 46.2164 64.0581 46.2263 64.0542 46.2361C64.0542 46.242 64.0542 46.2459 64.0522 46.2498C64.0522 46.2535 64.0503 46.2555 64.0503 46.2594C64.0503 46.2594 64.0503 46.2614 64.0503 46.2634C64.0503 46.2653 64.0503 46.2673 64.0503 46.2692C64.0483 46.2791 64.0444 46.2889 64.0405 46.2987C64.0228 46.3498 63.9953 46.3988 63.958 46.4458C63.9423 46.4654 63.9266 46.4831 63.9069 46.5007C63.8598 46.5479 63.8029 46.5891 63.7361 46.6301L36.8308 62.2181C36.591 62.3573 36.2648 62.4202 35.9465 62.4044C35.689 62.3927 35.4397 62.3298 35.245 62.2181L8.17872 46.6009C8.16476 46.593 8.15101 46.5852 8.13923 46.5773C8.1196 46.5636 8.09996 46.5518 8.08229 46.538C8.07247 46.5302 8.06265 46.5223 8.05283 46.5145C8.03712 46.5007 8.01945 46.487 8.00571 46.4732C7.98803 46.4536 7.97036 46.4359 7.95465 46.4165C7.93698 46.393 7.9193 46.3694 7.90752 46.3458C7.8977 46.3301 7.88985 46.3124 7.88396 46.2967C7.87807 46.2869 7.87611 46.2771 7.87218 46.2653C7.8604 46.2341 7.8545 46.2027 7.85254 46.1713V46.1418C7.85254 46.1418 7.85254 46.1438 7.85254 46.1458C7.85254 45.9771 7.95858 45.8104 8.17676 45.683L35.0838 30.097C35.5202 29.844 36.2334 29.844 36.6715 30.097L63.7361 45.7124C63.956 45.8399 64.064 46.0066 64.064 46.1752H64.0601Z" fill="white"/>
<path d="M64.0601 46.1752V46.2047C64.0601 46.2164 64.0581 46.2263 64.0542 46.2361C64.0542 46.242 64.0542 46.2459 64.0522 46.2498C64.0522 46.2535 64.0503 46.2555 64.0503 46.2594C64.0503 46.2594 64.0503 46.2614 64.0503 46.2634C64.0503 46.2653 64.0503 46.2673 64.0503 46.2692C64.0483 46.2791 64.0444 46.2889 64.0405 46.2987C64.0228 46.3498 63.9953 46.3988 63.958 46.4458C63.9423 46.4654 63.9266 46.4831 63.9069 46.5007C63.8598 46.5479 63.8029 46.5891 63.7361 46.6301L36.8308 62.2181C36.591 62.3573 36.2648 62.4202 35.9465 62.4044C35.689 62.3927 35.4397 62.3298 35.245 62.2181L8.17872 46.6009C8.16476 46.593 8.15101 46.5852 8.13923 46.5773C8.1196 46.5636 8.09996 46.5518 8.08229 46.538C8.07247 46.5302 8.06265 46.5223 8.05283 46.5145C8.03712 46.5007 8.01945 46.487 8.00571 46.4732C7.98803 46.4536 7.97036 46.4359 7.95465 46.4165C7.93698 46.393 7.9193 46.3694 7.90752 46.3458C7.8977 46.3301 7.88985 46.3124 7.88396 46.2967C7.87807 46.2869 7.87611 46.2771 7.87218 46.2653C7.8604 46.2341 7.8545 46.2027 7.85254 46.1713V46.1418C7.85254 46.1418 7.85254 46.1438 7.85254 46.1458C7.85254 45.9771 7.95858 45.8104 8.17676 45.683L35.0838 30.097C35.5202 29.844 36.2334 29.844 36.6715 30.097L63.7361 45.7124C63.956 45.8399 64.064 46.0066 64.064 46.1752H64.0601Z" fill="url(#paint0_linear_6722_31907)"/>
<path d="M35.9469 62.4041L35.9429 68.4918C35.6815 68.482 35.4241 68.4191 35.2238 68.3035L8.15726 52.688C7.93733 52.5606 7.82715 52.3939 7.82715 52.2252L7.847 46.1689C7.85093 46.2004 7.85682 46.2318 7.86664 46.263C7.87057 46.2728 7.87449 46.2826 7.87842 46.2944C7.88431 46.3121 7.89217 46.3278 7.90199 46.3435C7.91573 46.3671 7.93144 46.3906 7.94911 46.4142C7.96482 46.4336 7.98249 46.4513 8.00017 46.4689C8.01391 46.4847 8.02962 46.4984 8.04729 46.5121C8.05711 46.52 8.06693 46.5279 8.07675 46.5357C8.09442 46.5495 8.11406 46.5612 8.13369 46.575C8.14548 46.5828 8.15922 46.5907 8.17318 46.5985L35.2375 62.2158C35.4319 62.3275 35.6835 62.3903 35.939 62.4021L35.9469 62.4041Z" fill="#C9D7DD"/>
<g opacity="0.9">
<path opacity="0.9" d="M64.072 46.2243L64.0523 52.2806C64.0523 52.4453 63.9443 52.6101 63.7281 52.7355L36.823 68.3216C36.5872 68.4588 36.2669 68.5216 35.9564 68.5099C35.695 68.5 35.4376 68.4352 35.2373 68.3216L8.16876 52.7061C7.94883 52.5786 7.83887 52.412 7.83887 52.2433L7.8585 46.187C7.86243 46.2184 7.86832 46.2498 7.87814 46.281C7.88207 46.2909 7.88599 46.3007 7.88992 46.3105C7.89581 46.3282 7.90367 46.3439 7.91348 46.3596C7.92723 46.3832 7.94294 46.4067 7.96061 46.4303C7.97632 46.4497 7.99399 46.4674 8.01167 46.485C8.02541 46.5008 8.04112 46.5145 8.05879 46.5283C8.06861 46.5361 8.07843 46.544 8.08825 46.5518C8.10592 46.5656 8.12556 46.5773 8.14519 46.5911C8.15697 46.5989 8.17072 46.6068 8.18468 46.6144L35.251 62.2319C35.4454 62.3436 35.697 62.4084 35.9525 62.4202C36.2708 62.4359 36.597 62.373 36.8368 62.2338L63.7418 46.6459C63.8108 46.6068 63.8677 46.5636 63.9129 46.5165C63.9325 46.4988 63.9482 46.4792 63.964 46.4615C64.0013 46.4146 64.0288 46.3635 64.0464 46.3144L64.0562 46.285C64.0562 46.285 64.0562 46.2791 64.0562 46.2771C64.0562 46.2771 64.0562 46.2771 64.0562 46.2752C64.0562 46.2712 64.0582 46.2693 64.0582 46.2653C64.0582 46.2614 64.0602 46.2575 64.0602 46.2518C64.0641 46.242 64.0641 46.2322 64.0661 46.2224L64.072 46.2243Z" fill="url(#paint1_linear_6722_31907)"/>
<path opacity="0.8" d="M29.7687 60.4584C29.8571 60.5094 29.9278 60.6329 29.9278 60.7331L29.918 64.0337C29.918 64.1339 29.8453 64.1749 29.7569 64.124C29.6686 64.073 29.5977 63.9495 29.5977 63.8494L29.6075 60.5487C29.6075 60.4486 29.6803 60.4075 29.7687 60.4584Z" fill="white"/>
<g opacity="0.8">
<path opacity="0.8" d="M13.83 51.2212C13.9184 51.272 13.9893 51.3957 13.9893 51.4956L13.9795 54.7965C13.9795 54.8964 13.9066 54.9377 13.8182 54.8866C13.7299 54.8356 13.6592 54.7121 13.6592 54.6122L13.669 51.3113C13.669 51.2114 13.7417 51.1701 13.83 51.2212Z" fill="white"/>
<path opacity="0.8" d="M14.9384 51.8427C15.027 51.8938 15.0977 52.0173 15.0977 52.1174L15.0879 55.4181C15.0879 55.518 15.0152 55.5593 14.9266 55.5082C14.8383 55.4574 14.7676 55.3337 14.7676 55.2337L14.7774 51.9331C14.7774 51.8329 14.85 51.7917 14.9384 51.8427Z" fill="white"/>
<path opacity="0.8" d="M16.0441 52.4842C16.1325 52.5353 16.2032 52.659 16.2032 52.7589L16.1933 56.0596C16.1933 56.1597 16.1207 56.2009 16.0323 56.1499C15.9437 56.0988 15.873 55.9753 15.873 55.8752L15.8829 52.5745C15.8829 52.4746 15.9555 52.4334 16.0441 52.4842Z" fill="white"/>
<path opacity="0.8" d="M17.1525 53.1235C17.2409 53.1746 17.3116 53.2981 17.3116 53.398L17.3017 56.6989C17.3017 56.7988 17.2291 56.84 17.1407 56.789C17.0524 56.7381 16.9814 56.6144 16.9814 56.5145L16.9913 53.2136C16.9913 53.1137 17.0641 53.0725 17.1525 53.1235Z" fill="white"/>
<path opacity="0.8" d="M18.2587 53.7606C18.3471 53.8117 18.418 53.9352 18.418 54.0353L18.4082 57.336C18.4082 57.4361 18.3353 57.4771 18.2469 57.4263C18.1586 57.3752 18.0879 57.2517 18.0879 57.1516L18.0977 53.8509C18.0977 53.7508 18.1704 53.7098 18.2587 53.7606Z" fill="white"/>
<path opacity="0.8" d="M21.5793 55.6733C21.6676 55.7242 21.7383 55.8479 21.7383 55.9478L21.7285 59.2487C21.7285 59.3486 21.6558 59.3898 21.5675 59.3388C21.4791 59.2877 21.4082 59.1642 21.4082 59.0643L21.418 55.7634C21.418 55.6635 21.4909 55.6223 21.5793 55.6733Z" fill="white"/>
<path opacity="0.8" d="M22.6855 56.3086C22.7738 56.3596 22.8448 56.4831 22.8448 56.583L22.8349 59.8839C22.8349 59.9838 22.7621 60.0251 22.6737 59.974C22.5853 59.9232 22.5146 59.7995 22.5146 59.6996L22.5245 56.3989C22.5245 56.2988 22.5971 56.2575 22.6855 56.3086Z" fill="white"/>
<path opacity="0.8" d="M23.7939 56.9535C23.8825 57.0045 23.9532 57.128 23.9532 57.2282L23.9433 60.5288C23.9433 60.629 23.8707 60.6702 23.7821 60.6192C23.6937 60.5681 23.623 60.4446 23.623 60.3445L23.6329 57.0438C23.6329 56.9437 23.7055 56.9027 23.7939 56.9535Z" fill="white"/>
<path opacity="0.8" d="M24.9005 57.5952C24.9889 57.6462 25.0596 57.7697 25.0596 57.8697L25.0498 61.1705C25.0498 61.2705 24.9771 61.3117 24.8888 61.2607C24.8002 61.2098 24.7295 61.0861 24.7295 60.9862L24.7393 57.6853C24.7393 57.5854 24.812 57.5441 24.9005 57.5952Z" fill="white"/>
<path opacity="0.8" d="M30.8759 61.0604C30.9643 61.1115 31.0352 61.235 31.0352 61.3351L31.0254 64.6358C31.0254 64.7359 30.9525 64.7772 30.8641 64.7261C30.7758 64.675 30.7051 64.5516 30.7051 64.4514L30.7149 61.1508C30.7149 61.0506 30.7875 61.0096 30.8759 61.0604Z" fill="white"/>
</g>
<path d="M11.0655 51.9566C11.4007 51.7624 11.3998 51.1373 11.064 50.5602C10.7282 49.9833 10.1843 49.6733 9.84938 49.8675C9.51447 50.0619 9.51512 50.687 9.85091 51.2638C10.1869 51.8407 10.7306 52.151 11.0655 51.9566Z" fill="white"/>
</g>
<path d="M64.0609 37.4063L64.0412 43.4626C64.0412 43.6273 63.9332 43.792 63.717 43.9177L36.8119 59.5035C36.5761 59.6407 36.2558 59.7036 35.9453 59.6898L35.9492 53.6021C36.2676 53.6178 36.5937 53.5552 36.8335 53.4158L63.7386 37.828C63.8076 37.7887 63.8645 37.7455 63.9097 37.6986C63.9293 37.681 63.945 37.6613 63.9607 37.6436C63.998 37.5965 64.0255 37.5455 64.0432 37.4966C64.0471 37.4868 64.0511 37.477 64.053 37.4671C64.053 37.4652 64.053 37.4632 64.053 37.4612C64.053 37.4612 64.053 37.4593 64.053 37.4573C64.053 37.4534 64.055 37.4514 64.055 37.4475C64.055 37.4436 64.055 37.4396 64.0569 37.4338C64.0609 37.4239 64.0609 37.4141 64.0628 37.4043L64.0609 37.4063Z" fill="#C9D7DD"/>
<path d="M64.0601 37.3748V37.4043C64.0601 37.4161 64.0581 37.4259 64.0542 37.4357C64.0542 37.4416 64.0542 37.4455 64.0522 37.4495C64.0522 37.4534 64.0503 37.4553 64.0503 37.4593C64.0503 37.4593 64.0503 37.4612 64.0503 37.4632C64.0503 37.4652 64.0503 37.4671 64.0503 37.4691C64.0483 37.4789 64.0444 37.4887 64.0405 37.4985C64.0228 37.5494 63.9953 37.5985 63.958 37.6456C63.9423 37.6652 63.9266 37.6829 63.9069 37.7004C63.8598 37.7475 63.8029 37.7887 63.7361 37.83L36.8308 53.4177C36.591 53.5572 36.2648 53.6198 35.9465 53.6041C35.689 53.5923 35.4397 53.5297 35.245 53.4177L8.17872 37.8005C8.16476 37.7927 8.15101 37.7848 8.13923 37.7769C8.1196 37.7632 8.09996 37.7514 8.08229 37.7377C8.07247 37.7298 8.06265 37.722 8.05283 37.7141C8.03712 37.7004 8.01945 37.6868 8.00571 37.6731C7.98803 37.6535 7.97036 37.6358 7.95465 37.6161C7.93698 37.5926 7.9193 37.569 7.90752 37.5454C7.8977 37.5297 7.88985 37.5123 7.88396 37.4966C7.87807 37.4868 7.87611 37.4769 7.87218 37.4652C7.8604 37.4337 7.8545 37.4023 7.85254 37.3709V37.3417C7.85254 37.3417 7.85254 37.3434 7.85254 37.3454C7.85254 37.1767 7.95858 37.01 8.17676 36.8826L35.0799 21.2967C35.5162 21.0437 36.2295 21.0437 36.6676 21.2967L63.7322 36.9121C63.9521 37.0395 64.0601 37.2062 64.0601 37.3748Z" fill="white"/>
<path d="M64.0601 37.3748V37.4043C64.0601 37.4161 64.0581 37.4259 64.0542 37.4357C64.0542 37.4416 64.0542 37.4455 64.0522 37.4495C64.0522 37.4534 64.0503 37.4553 64.0503 37.4593C64.0503 37.4593 64.0503 37.4612 64.0503 37.4632C64.0503 37.4652 64.0503 37.4671 64.0503 37.4691C64.0483 37.4789 64.0444 37.4887 64.0405 37.4985C64.0228 37.5494 63.9953 37.5985 63.958 37.6456C63.9423 37.6652 63.9266 37.6829 63.9069 37.7004C63.8598 37.7475 63.8029 37.7887 63.7361 37.83L36.8308 53.4177C36.591 53.5572 36.2648 53.6198 35.9465 53.6041C35.689 53.5923 35.4397 53.5297 35.245 53.4177L8.17872 37.8005C8.16476 37.7927 8.15101 37.7848 8.13923 37.7769C8.1196 37.7632 8.09996 37.7514 8.08229 37.7377C8.07247 37.7298 8.06265 37.722 8.05283 37.7141C8.03712 37.7004 8.01945 37.6868 8.00571 37.6731C7.98803 37.6535 7.97036 37.6358 7.95465 37.6161C7.93698 37.5926 7.9193 37.569 7.90752 37.5454C7.8977 37.5297 7.88985 37.5123 7.88396 37.4966C7.87807 37.4868 7.87611 37.4769 7.87218 37.4652C7.8604 37.4337 7.8545 37.4023 7.85254 37.3709V37.3417C7.85254 37.3417 7.85254 37.3434 7.85254 37.3454C7.85254 37.1767 7.95858 37.01 8.17676 36.8826L35.0799 21.2967C35.5162 21.0437 36.2295 21.0437 36.6676 21.2967L63.7322 36.9121C63.9521 37.0395 64.0601 37.2062 64.0601 37.3748Z" fill="url(#paint2_linear_6722_31907)"/>
<path d="M35.9469 53.6043L35.9429 59.692C35.6815 59.6822 35.4241 59.6195 35.2238 59.5037L8.15726 43.8884C7.93733 43.761 7.82715 43.5941 7.82715 43.4254L7.847 37.3691C7.85093 37.4006 7.85682 37.432 7.86664 37.4634C7.87057 37.4732 7.87449 37.483 7.87842 37.4948C7.88431 37.5125 7.89217 37.528 7.90199 37.5437C7.91573 37.5673 7.93144 37.5908 7.94911 37.6144C7.96482 37.634 7.98249 37.6517 8.00017 37.6694C8.01391 37.6851 8.02962 37.6988 8.04729 37.7123C8.05711 37.7202 8.06693 37.728 8.07675 37.7359C8.09442 37.7496 8.11406 37.7614 8.13369 37.7752C8.14548 37.783 8.15922 37.7909 8.17318 37.7987L35.2375 53.416C35.4319 53.5279 35.6835 53.5905 35.939 53.6023L35.9469 53.6043Z" fill="#C9D7DD"/>
<g opacity="0.9">
<path opacity="0.9" d="M64.072 37.3512L64.0523 43.4074C64.0523 43.5722 63.9443 43.7371 63.7281 43.8626L36.823 59.4484C36.5872 59.5858 36.2669 59.6485 35.9564 59.6367C35.695 59.6269 35.4376 59.5623 35.2373 59.4484L8.16876 43.8331C7.94883 43.7057 7.83887 43.539 7.83887 43.3703L7.8585 37.314C7.86243 37.3453 7.86832 37.3767 7.87814 37.4081C7.88207 37.4179 7.88599 37.4277 7.88992 37.4375C7.89581 37.4552 7.90367 37.4709 7.91348 37.4865C7.92723 37.5101 7.94294 37.5336 7.96061 37.5572C7.97632 37.5768 7.99399 37.5944 8.01167 37.6121C8.02541 37.6278 8.04112 37.6415 8.05879 37.6552C8.06861 37.6631 8.07843 37.6709 8.08825 37.6787C8.10592 37.6925 8.12556 37.7042 8.14519 37.718C8.15697 37.7258 8.17072 37.7337 8.18468 37.7415L35.251 53.3589C35.4454 53.4706 35.697 53.5354 35.9525 53.5472C36.2708 53.5627 36.597 53.5001 36.8368 53.3609L63.7418 37.7729C63.8108 37.7337 63.8677 37.6905 63.9129 37.6435C63.9325 37.6258 63.9482 37.6062 63.964 37.5885C64.0013 37.5415 64.0288 37.4905 64.0464 37.4414L64.0562 37.412C64.0562 37.412 64.0562 37.4061 64.0562 37.4042C64.0562 37.4042 64.0562 37.4042 64.0562 37.4022C64.0562 37.3983 64.0582 37.3963 64.0582 37.3924C64.0582 37.3885 64.0602 37.3846 64.0602 37.3787C64.0641 37.3689 64.0641 37.3591 64.0661 37.3493L64.072 37.3512Z" fill="url(#paint3_linear_6722_31907)"/>
<path opacity="0.8" d="M29.7687 51.5131C29.8571 51.5641 29.9278 51.6876 29.9278 51.7878L29.918 55.0884C29.918 55.1886 29.8453 55.2296 29.7569 55.1787C29.6686 55.1277 29.5977 55.0042 29.5977 54.904L29.6075 51.6034C29.6075 51.5032 29.6803 51.4622 29.7687 51.5131Z" fill="white"/>
<g opacity="0.8">
<path opacity="0.8" d="M13.83 42.4936C13.9184 42.5445 13.9893 42.6682 13.9893 42.7681L13.9795 46.069C13.9795 46.1689 13.9066 46.2101 13.8182 46.1591C13.7299 46.108 13.6592 45.9845 13.6592 45.8846L13.669 42.5837C13.669 42.4838 13.7417 42.4426 13.83 42.4936Z" fill="white"/>
<path opacity="0.8" d="M14.9384 43.1152C15.027 43.1663 15.0977 43.2898 15.0977 43.3899L15.0879 46.6906C15.0879 46.7905 15.0152 46.8317 14.9266 46.7807C14.8383 46.7298 14.7676 46.6061 14.7676 46.5062L14.7774 43.2055C14.7774 43.1054 14.85 43.0642 14.9384 43.1152Z" fill="white"/>
<path opacity="0.8" d="M16.0441 43.7567C16.1325 43.8077 16.2032 43.9314 16.2032 44.0314L16.1933 47.332C16.1933 47.4322 16.1207 47.4734 16.0323 47.4223C15.9437 47.3713 15.873 47.2478 15.873 47.1477L15.8829 43.847C15.8829 43.7471 15.9555 43.7058 16.0441 43.7567Z" fill="white"/>
<path opacity="0.8" d="M17.1525 44.396C17.2409 44.447 17.3116 44.5705 17.3116 44.6704L17.3017 47.9713C17.3017 48.0712 17.2291 48.1125 17.1407 48.0614C17.0524 48.0106 16.9814 47.8869 16.9814 47.787L16.9913 44.4861C16.9913 44.3862 17.0641 44.3449 17.1525 44.396Z" fill="white"/>
<path opacity="0.8" d="M18.2587 45.0331C18.3471 45.0841 18.418 45.2076 18.418 45.3078L18.4082 48.6084C18.4082 48.7086 18.3353 48.7496 18.2469 48.6988C18.1586 48.6477 18.0879 48.5242 18.0879 48.4241L18.0977 45.1234C18.0977 45.0233 18.1704 44.9822 18.2587 45.0331Z" fill="white"/>
<path opacity="0.8" d="M21.5793 46.9458C21.6676 46.9966 21.7383 47.1203 21.7383 47.2203L21.7285 50.5211C21.7285 50.6211 21.6558 50.6623 21.5675 50.6112C21.4791 50.5602 21.4082 50.4367 21.4082 50.3368L21.418 47.0359C21.418 46.936 21.4909 46.8947 21.5793 46.9458Z" fill="white"/>
<path opacity="0.8" d="M22.6855 47.581C22.7738 47.6321 22.8448 47.7556 22.8448 47.8555L22.8349 51.1564C22.8349 51.2563 22.7621 51.2975 22.6737 51.2465C22.5853 51.1956 22.5146 51.0719 22.5146 50.972L22.5245 47.6714C22.5245 47.5712 22.5971 47.53 22.6855 47.581Z" fill="white"/>
<path opacity="0.8" d="M23.7939 48.226C23.8825 48.277 23.9532 48.4005 23.9532 48.5006L23.9433 51.8013C23.9433 51.9014 23.8707 51.9427 23.7821 51.8916C23.6937 51.8406 23.623 51.7171 23.623 51.6169L23.6329 48.3163C23.6329 48.2161 23.7055 48.1751 23.7939 48.226Z" fill="white"/>
<path opacity="0.8" d="M24.9005 48.8677C24.9889 48.9187 25.0596 49.0422 25.0596 49.1421L25.0498 52.443C25.0498 52.5429 24.9771 52.5842 24.8888 52.5331C24.8002 52.4823 24.7295 52.3586 24.7295 52.2586L24.7393 48.9578C24.7393 48.8578 24.812 48.8166 24.9005 48.8677Z" fill="white"/>
<path opacity="0.8" d="M30.8759 52.3329C30.9643 52.3839 31.0352 52.5074 31.0352 52.6076L31.0254 55.9082C31.0254 56.0084 30.9525 56.0496 30.8641 55.9986C30.7758 55.9475 30.7051 55.824 30.7051 55.7239L30.7149 52.4232C30.7149 52.3231 30.7875 52.2821 30.8759 52.3329Z" fill="white"/>
</g>
<path d="M11.0655 43.229C11.4007 43.0349 11.3998 42.4098 11.064 41.8327C10.7282 41.2558 10.1843 40.9458 9.84938 41.1399C9.51447 41.3343 9.51512 41.9594 9.85091 42.5363C10.1869 43.1132 10.7306 43.4234 11.0655 43.229Z" fill="white"/>
</g>
<path d="M64.0609 28.6065L64.0412 34.6629C64.0412 34.8276 63.9332 34.9923 63.717 35.1178L36.8119 50.7038C36.5761 50.841 36.2558 50.9037 35.9453 50.8901L35.9492 44.8024C36.2676 44.8181 36.5937 44.7553 36.8335 44.6161L63.7386 29.0281C63.8076 28.9889 63.8645 28.9457 63.9097 28.8987C63.9293 28.881 63.945 28.8614 63.9607 28.8438C63.998 28.7967 64.0255 28.7457 64.0432 28.6967C64.0471 28.6869 64.0511 28.6771 64.053 28.6672C64.053 28.6653 64.053 28.6633 64.053 28.6614C64.053 28.6614 64.053 28.6594 64.053 28.6574C64.053 28.6535 64.055 28.6516 64.055 28.6476C64.055 28.6437 64.055 28.6398 64.0569 28.6339C64.0609 28.6241 64.0609 28.6143 64.0628 28.6045L64.0609 28.6065Z" fill="#C9D7DD"/>
<path d="M64.0601 28.5751V28.6045C64.0601 28.6163 64.0581 28.6261 64.0542 28.6359C64.0542 28.6418 64.0542 28.6457 64.0522 28.6496C64.0522 28.6536 64.0503 28.6555 64.0503 28.6594C64.0503 28.6594 64.0503 28.6614 64.0503 28.6634C64.0503 28.6653 64.0503 28.6673 64.0503 28.6692C64.0483 28.6791 64.0444 28.6889 64.0405 28.6987C64.0228 28.7497 63.9953 28.7987 63.958 28.8457C63.9423 28.8654 63.9266 28.883 63.9069 28.9007C63.8598 28.9477 63.8029 28.9889 63.7361 29.0301L36.8308 44.6181C36.591 44.7573 36.2648 44.8201 35.9465 44.8044C35.689 44.7926 35.4397 44.7298 35.245 44.6181L8.17872 29.0007C8.16476 28.9928 8.15101 28.985 8.13923 28.9772C8.1196 28.9634 8.09996 28.9517 8.08229 28.9379C8.07247 28.9301 8.06265 28.9222 8.05283 28.9144C8.03712 28.9007 8.01945 28.8869 8.00571 28.8732C7.98803 28.8536 7.97036 28.836 7.95465 28.8163C7.93698 28.7928 7.9193 28.7693 7.90752 28.7457C7.8977 28.73 7.88985 28.7124 7.88396 28.6967C7.87807 28.6869 7.87611 28.6771 7.87218 28.6653C7.8604 28.6339 7.8545 28.6026 7.85254 28.5712V28.5418C7.85254 28.5418 7.85254 28.5437 7.85254 28.5457C7.85254 28.377 7.95858 28.2103 8.17676 28.0828L35.0799 12.4969C35.5162 12.2439 36.2295 12.2439 36.6676 12.4969L63.7322 28.1122C63.9521 28.2397 64.0601 28.4064 64.0601 28.5751Z" fill="white"/>
<path d="M64.0601 28.5751V28.6045C64.0601 28.6163 64.0581 28.6261 64.0542 28.6359C64.0542 28.6418 64.0542 28.6457 64.0522 28.6496C64.0522 28.6536 64.0503 28.6555 64.0503 28.6594C64.0503 28.6594 64.0503 28.6614 64.0503 28.6634C64.0503 28.6653 64.0503 28.6673 64.0503 28.6692C64.0483 28.6791 64.0444 28.6889 64.0405 28.6987C64.0228 28.7497 63.9953 28.7987 63.958 28.8457C63.9423 28.8654 63.9266 28.883 63.9069 28.9007C63.8598 28.9477 63.8029 28.9889 63.7361 29.0301L36.8308 44.6181C36.591 44.7573 36.2648 44.8201 35.9465 44.8044C35.689 44.7926 35.4397 44.7298 35.245 44.6181L8.17872 29.0007C8.16476 28.9928 8.15101 28.985 8.13923 28.9772C8.1196 28.9634 8.09996 28.9517 8.08229 28.9379C8.07247 28.9301 8.06265 28.9222 8.05283 28.9144C8.03712 28.9007 8.01945 28.8869 8.00571 28.8732C7.98803 28.8536 7.97036 28.836 7.95465 28.8163C7.93698 28.7928 7.9193 28.7693 7.90752 28.7457C7.8977 28.73 7.88985 28.7124 7.88396 28.6967C7.87807 28.6869 7.87611 28.6771 7.87218 28.6653C7.8604 28.6339 7.8545 28.6026 7.85254 28.5712V28.5418C7.85254 28.5418 7.85254 28.5437 7.85254 28.5457C7.85254 28.377 7.95858 28.2103 8.17676 28.0828L35.0799 12.4969C35.5162 12.2439 36.2295 12.2439 36.6676 12.4969L63.7322 28.1122C63.9521 28.2397 64.0601 28.4064 64.0601 28.5751Z" fill="url(#paint4_linear_6722_31907)"/>
<path d="M35.9469 44.804L35.9429 50.8915C35.6815 50.8819 35.4241 50.8191 35.2238 50.7035L8.15726 35.088C7.93733 34.9606 7.82715 34.7939 7.82715 34.6252L7.847 28.5688C7.85093 28.6002 7.85682 28.6316 7.86664 28.663C7.87057 28.6728 7.87449 28.6826 7.87842 28.6944C7.88431 28.712 7.89217 28.7277 7.90199 28.7434C7.91573 28.7669 7.93144 28.7905 7.94911 28.814C7.96482 28.8336 7.98249 28.8513 8.00017 28.8689C8.01391 28.8846 8.02962 28.8983 8.04729 28.9121C8.05711 28.9199 8.06693 28.9278 8.07675 28.9356C8.09442 28.9493 8.11406 28.9611 8.13369 28.9748C8.14548 28.9827 8.15922 28.9905 8.17318 28.9984L35.2375 44.6157C35.4319 44.7275 35.6835 44.7903 35.939 44.8021L35.9469 44.804Z" fill="#C9D7DD"/>
<g opacity="0.9">
<path opacity="0.9" d="M64.072 28.6237L64.0523 34.6799C64.0523 34.8446 63.9443 35.0096 63.7281 35.135L36.823 50.7208C36.5872 50.8583 36.2669 50.9209 35.9564 50.9091C35.695 50.8993 35.4376 50.8347 35.2373 50.7208L8.16876 35.1056C7.94883 34.9781 7.83887 34.8115 7.83887 34.6428L7.8585 28.5864C7.86243 28.6178 7.86832 28.6492 7.87814 28.6806C7.88207 28.6904 7.88599 28.7002 7.88992 28.71C7.89581 28.7276 7.90367 28.7433 7.91348 28.759C7.92723 28.7825 7.94294 28.8061 7.96061 28.8296C7.97632 28.8492 7.99399 28.8669 8.01167 28.8845C8.02541 28.9002 8.04112 28.914 8.05879 28.9277C8.06861 28.9355 8.07843 28.9434 8.08825 28.9512C8.10592 28.9649 8.12556 28.9767 8.14519 28.9904C8.15697 28.9983 8.17072 29.0061 8.18468 29.014L35.251 44.6314C35.4454 44.7431 35.697 44.8079 35.9525 44.8197C36.2708 44.8352 36.597 44.7726 36.8368 44.6334L63.7418 29.0453C63.8108 29.0061 63.8677 28.963 63.9129 28.9159C63.9325 28.8983 63.9482 28.8787 63.964 28.861C64.0013 28.8139 64.0288 28.7629 64.0464 28.7139L64.0562 28.6845C64.0562 28.6845 64.0562 28.6786 64.0562 28.6766C64.0562 28.6766 64.0562 28.6766 64.0562 28.6747C64.0562 28.6708 64.0582 28.6688 64.0582 28.6649C64.0582 28.661 64.0602 28.657 64.0602 28.6511C64.0641 28.6413 64.0641 28.6315 64.0661 28.6217L64.072 28.6237Z" fill="url(#paint5_linear_6722_31907)"/>
</g>
<g opacity="0.8">
<path opacity="0.8" d="M13.83 33.7666C13.9184 33.8174 13.9893 33.9411 13.9893 34.0411L13.9795 37.3419C13.9795 37.4419 13.9066 37.4831 13.8182 37.432C13.7299 37.381 13.6592 37.2575 13.6592 37.1576L13.669 33.8567C13.669 33.7568 13.7417 33.7155 13.83 33.7666Z" fill="white"/>
<path opacity="0.8" d="M14.9384 34.3882C15.027 34.4392 15.0977 34.5627 15.0977 34.6628L15.0879 37.9635C15.0879 38.0634 15.0152 38.1047 14.9266 38.0536C14.8383 38.0028 14.7676 37.8791 14.7676 37.7791L14.7774 34.4785C14.7774 34.3783 14.85 34.3371 14.9384 34.3882Z" fill="white"/>
<path opacity="0.8" d="M16.0441 35.0296C16.1325 35.0807 16.2032 35.2044 16.2032 35.3043L16.1933 38.605C16.1933 38.7051 16.1207 38.7464 16.0323 38.6953C15.9437 38.6442 15.873 38.5207 15.873 38.4206L15.8829 35.12C15.8829 35.02 15.9555 34.9788 16.0441 35.0296Z" fill="white"/>
<path opacity="0.8" d="M17.1525 35.6689C17.2409 35.72 17.3116 35.8435 17.3116 35.9434L17.3017 39.2443C17.3017 39.3442 17.2291 39.3854 17.1407 39.3344C17.0524 39.2835 16.9814 39.1598 16.9814 39.0599L16.9913 35.759C16.9913 35.6591 17.0641 35.6179 17.1525 35.6689Z" fill="white"/>
<path opacity="0.8" d="M18.2587 36.306C18.3471 36.3571 18.418 36.4806 18.418 36.5807L18.4082 39.8814C18.4082 39.9815 18.3353 40.0225 18.2469 39.9717C18.1586 39.9207 18.0879 39.7972 18.0879 39.697L18.0977 36.3964C18.0977 36.2962 18.1704 36.2552 18.2587 36.306Z" fill="white"/>
<path opacity="0.8" d="M21.5793 38.2187C21.6676 38.2696 21.7383 38.3933 21.7383 38.4932L21.7285 41.7941C21.7285 41.894 21.6558 41.9352 21.5675 41.8842C21.4791 41.8331 21.4082 41.7096 21.4082 41.6097L21.418 38.3088C21.418 38.2089 21.4909 38.1677 21.5793 38.2187Z" fill="white"/>
<path opacity="0.8" d="M22.6855 38.854C22.7738 38.905 22.8448 39.0285 22.8448 39.1285L22.8349 42.4293C22.8349 42.5293 22.7621 42.5705 22.6737 42.5194C22.5853 42.4686 22.5146 42.3449 22.5146 42.245L22.5245 38.9443C22.5245 38.8442 22.5971 38.8029 22.6855 38.854Z" fill="white"/>
<path opacity="0.8" d="M23.7939 39.4989C23.8825 39.55 23.9532 39.6734 23.9532 39.7736L23.9433 43.0742C23.9433 43.1744 23.8707 43.2156 23.7821 43.1646C23.6937 43.1135 23.623 42.99 23.623 42.8899L23.6329 39.5892C23.6329 39.4891 23.7055 39.4481 23.7939 39.4989Z" fill="white"/>
<path opacity="0.8" d="M24.9005 40.1406C24.9889 40.1917 25.0596 40.3151 25.0596 40.4151L25.0498 43.716C25.0498 43.8159 24.9771 43.8571 24.8888 43.8061C24.8002 43.7552 24.7295 43.6315 24.7295 43.5316L24.7393 40.2307C24.7393 40.1308 24.812 40.0896 24.9005 40.1406Z" fill="white"/>
<path opacity="0.8" d="M30.8759 43.6058C30.9643 43.6569 31.0352 43.7804 31.0352 43.8805L31.0254 47.1812C31.0254 47.2813 30.9525 47.3226 30.8641 47.2715C30.7758 47.2205 30.7051 47.097 30.7051 46.9968L30.7149 43.6962C30.7149 43.596 30.7875 43.555 30.8759 43.6058Z" fill="white"/>
</g>
<path d="M11.0665 34.502C11.4016 34.3078 11.4008 33.6827 11.065 33.1056C10.7292 32.5287 10.1853 32.2187 9.85036 32.4129C9.51545 32.6073 9.5161 33.2324 9.85188 33.8093C10.1879 34.3861 10.7316 34.6964 11.0665 34.502Z" fill="white"/>
<path d="M64.0609 19.8062L64.0412 25.8625C64.0412 26.0272 63.9332 26.192 63.717 26.3175L36.8119 41.9034C36.5761 42.0407 36.2558 42.1035 35.9453 42.0898L35.9492 36.0021C36.2676 36.0178 36.5937 35.9549 36.8335 35.8157L63.7386 20.2278C63.8076 20.1886 63.8645 20.1455 63.9097 20.0984C63.9293 20.0807 63.945 20.0611 63.9607 20.0435C63.998 19.9964 64.0255 19.9454 64.0432 19.8964C64.0471 19.8866 64.0511 19.8768 64.053 19.867C64.053 19.865 64.053 19.863 64.053 19.8611C64.053 19.8611 64.053 19.8591 64.053 19.8572C64.053 19.8532 64.055 19.8513 64.055 19.8474C64.055 19.8434 64.055 19.8395 64.0569 19.8336C64.0609 19.8238 64.0609 19.814 64.0628 19.8042L64.0609 19.8062Z" fill="#C9D7DD"/>
<path d="M64.0601 19.7748V19.8042C64.0601 19.816 64.0581 19.8258 64.0542 19.8356C64.0542 19.8415 64.0542 19.8454 64.0522 19.8493C64.0522 19.8533 64.0503 19.8552 64.0503 19.8591C64.0503 19.8591 64.0503 19.8611 64.0503 19.8631C64.0503 19.865 64.0503 19.867 64.0503 19.8689C64.0483 19.8787 64.0444 19.8886 64.0405 19.8984C64.0228 19.9493 63.9953 19.9984 63.958 20.0455C63.9423 20.0651 63.9266 20.0827 63.9069 20.1004C63.8598 20.1474 63.8029 20.1886 63.7361 20.2298L36.8308 35.8177C36.591 35.9569 36.2648 36.0197 35.9465 36.004C35.689 35.9923 35.4397 35.9294 35.245 35.8177L8.17872 20.2004C8.16476 20.1926 8.15101 20.1847 8.13923 20.1769C8.1196 20.1631 8.09996 20.1514 8.08229 20.1376C8.07247 20.1298 8.06265 20.1219 8.05283 20.1141C8.03712 20.1004 8.01945 20.0866 8.00571 20.0729C7.98803 20.0533 7.97036 20.0357 7.95465 20.016C7.93698 19.9925 7.9193 19.969 7.90752 19.9454C7.8977 19.9297 7.88985 19.9121 7.88396 19.8964C7.87807 19.8866 7.87611 19.8768 7.87218 19.865C7.8604 19.8336 7.8545 19.8023 7.85254 19.7709V19.7415C7.85254 19.7415 7.85254 19.7434 7.85254 19.7454C7.85254 19.5767 7.95858 19.41 8.17676 19.2825L35.0799 3.69659C35.5162 3.44359 36.2295 3.44359 36.6676 3.69659L63.7322 19.3119C63.9521 19.4394 64.0601 19.6061 64.0601 19.7748Z" fill="white"/>
<path d="M64.0601 19.7748V19.8042C64.0601 19.816 64.0581 19.8258 64.0542 19.8356C64.0542 19.8415 64.0542 19.8454 64.0522 19.8493C64.0522 19.8533 64.0503 19.8552 64.0503 19.8591C64.0503 19.8591 64.0503 19.8611 64.0503 19.8631C64.0503 19.865 64.0503 19.867 64.0503 19.8689C64.0483 19.8787 64.0444 19.8886 64.0405 19.8984C64.0228 19.9493 63.9953 19.9984 63.958 20.0455C63.9423 20.0651 63.9266 20.0827 63.9069 20.1004C63.8598 20.1474 63.8029 20.1886 63.7361 20.2298L36.8308 35.8177C36.591 35.9569 36.2648 36.0197 35.9465 36.004C35.689 35.9923 35.4397 35.9294 35.245 35.8177L8.17872 20.2004C8.16476 20.1926 8.15101 20.1847 8.13923 20.1769C8.1196 20.1631 8.09996 20.1514 8.08229 20.1376C8.07247 20.1298 8.06265 20.1219 8.05283 20.1141C8.03712 20.1004 8.01945 20.0866 8.00571 20.0729C7.98803 20.0533 7.97036 20.0357 7.95465 20.016C7.93698 19.9925 7.9193 19.969 7.90752 19.9454C7.8977 19.9297 7.88985 19.9121 7.88396 19.8964C7.87807 19.8866 7.87611 19.8768 7.87218 19.865C7.8604 19.8336 7.8545 19.8023 7.85254 19.7709V19.7415C7.85254 19.7415 7.85254 19.7434 7.85254 19.7454C7.85254 19.5767 7.95858 19.41 8.17676 19.2825L35.0799 3.69659C35.5162 3.44359 36.2295 3.44359 36.6676 3.69659L63.7322 19.3119C63.9521 19.4394 64.0601 19.6061 64.0601 19.7748Z" fill="url(#paint6_linear_6722_31907)"/>
<path d="M35.9469 36.0042L35.9429 42.0919C35.6815 42.0821 35.4241 42.0192 35.2238 41.9036L8.15726 26.2882C7.93733 26.1607 7.82715 25.994 7.82715 25.8254L7.847 19.769C7.85093 19.8004 7.85682 19.8318 7.86664 19.8632C7.87057 19.873 7.87449 19.8828 7.87842 19.8946C7.88431 19.9122 7.89217 19.9279 7.90199 19.9436C7.91573 19.9671 7.93144 19.9907 7.94911 20.0142C7.96482 20.0338 7.98249 20.0515 8.00017 20.0691C8.01391 20.0848 8.02962 20.0985 8.04729 20.1123C8.05711 20.1201 8.06693 20.128 8.07675 20.1358C8.09442 20.1495 8.11406 20.1613 8.13369 20.175C8.14548 20.1829 8.15922 20.1907 8.17318 20.1986L35.2375 35.8159C35.4319 35.9276 35.6835 35.9904 35.939 36.0022L35.9469 36.0042Z" fill="#C9D7DD"/>
<g opacity="0.9">
<path opacity="0.9" d="M64.072 19.8966L64.0523 25.9528C64.0523 26.1176 63.9443 26.2825 63.7281 26.408L36.823 41.9938C36.5872 42.1312 36.2669 42.1939 35.9564 42.1821C35.695 42.1723 35.4376 42.1077 35.2373 41.9938L8.16876 26.3785C7.94883 26.2511 7.83887 26.0844 7.83887 25.9158L7.8585 19.8594C7.86243 19.8907 7.86832 19.9221 7.87814 19.9535C7.88207 19.9633 7.88599 19.9731 7.88992 19.9829C7.89581 20.0006 7.90367 20.0163 7.91348 20.032C7.92723 20.0555 7.94294 20.079 7.96061 20.1026C7.97632 20.1222 7.99399 20.1398 8.01167 20.1575C8.02541 20.1732 8.04112 20.1869 8.05879 20.2006C8.06861 20.2085 8.07843 20.2163 8.08825 20.2242C8.10592 20.2379 8.12556 20.2497 8.14519 20.2634C8.15697 20.2712 8.17072 20.2791 8.18468 20.2869L35.251 35.9043C35.4454 36.016 35.697 36.0808 35.9525 36.0926C36.2708 36.1081 36.597 36.0455 36.8368 35.9063L63.7418 20.3183C63.8108 20.2791 63.8677 20.2359 63.9129 20.1889C63.9325 20.1712 63.9482 20.1516 63.964 20.134C64.0013 20.0869 64.0288 20.0359 64.0464 19.9869L64.0562 19.9574C64.0562 19.9574 64.0562 19.9516 64.0562 19.9496C64.0562 19.9496 64.0562 19.9496 64.0562 19.9476C64.0562 19.9437 64.0582 19.9417 64.0582 19.9378C64.0582 19.9339 64.0602 19.93 64.0602 19.9241C64.0641 19.9143 64.0641 19.9045 64.0661 19.8947L64.072 19.8966Z" fill="url(#paint7_linear_6722_31907)"/>
</g>
<path d="M13.83 24.9663C13.9184 25.0172 13.9893 25.1408 13.9893 25.2408L13.9795 28.5416C13.9795 28.6416 13.9066 28.6828 13.8182 28.6318C13.7299 28.5808 13.6592 28.4572 13.6592 28.3572L13.669 25.0565C13.669 24.9565 13.7417 24.9153 13.83 24.9663Z" fill="#6E17FF"/>
<path d="M14.9384 25.5898C15.027 25.6408 15.0977 25.7643 15.0977 25.8644L15.0879 29.1651C15.0879 29.2652 15.0152 29.3063 14.9266 29.2553C14.8383 29.2043 14.7676 29.0808 14.7676 28.9808L14.7774 25.68C14.7774 25.58 14.85 25.5388 14.9384 25.5898Z" fill="#6E17FF"/>
<path d="M17.1525 26.8686C17.2409 26.9196 17.3116 27.0432 17.3116 27.1432L17.3017 30.4439C17.3017 30.544 17.2291 30.5851 17.1407 30.5342C17.0524 30.4831 16.9814 30.3596 16.9814 30.2596L16.9913 26.9588C16.9913 26.8588 17.0641 26.8176 17.1525 26.8686Z" fill="#6E17FF"/>
<path d="M20.4738 28.7807C20.5622 28.8317 20.6328 28.9553 20.6328 29.0553L20.623 32.3559C20.623 32.4561 20.5504 32.4973 20.462 32.4463C20.3734 32.3952 20.3027 32.2717 20.3027 32.1716L20.3126 28.8709C20.3126 28.7709 20.3852 28.7297 20.4738 28.7807Z" fill="#6E17FF"/>
<path d="M21.5793 29.4184C21.6676 29.4694 21.7383 29.593 21.7383 29.693L21.7285 32.9938C21.7285 33.0937 21.6558 33.1349 21.5675 33.0839C21.4791 33.033 21.4082 32.9093 21.4082 32.8094L21.418 29.5086C21.418 29.4086 21.4909 29.3674 21.5793 29.4184Z" fill="#6E17FF"/>
<path d="M23.7939 30.7006C23.8825 30.7516 23.9532 30.8752 23.9532 30.9752L23.9433 34.276C23.9433 34.376 23.8707 34.4172 23.7821 34.3661C23.6937 34.3151 23.623 34.1916 23.623 34.0917L23.6329 30.7908C23.6329 30.6908 23.7055 30.6496 23.7939 30.7006Z" fill="#6E17FF"/>
<path d="M24.9005 31.3403C24.9889 31.3914 25.0596 31.5149 25.0596 31.615L25.0498 34.9157C25.0498 35.0158 24.9771 35.0568 24.8888 35.006C24.8002 34.9549 24.7295 34.8314 24.7295 34.7313L24.7393 31.4306C24.7393 31.3305 24.812 31.2893 24.9005 31.3403Z" fill="#6E17FF"/>
<path d="M29.7697 34.1664C29.8581 34.2174 29.9287 34.3409 29.9287 34.4411L29.9189 37.7417C29.9189 37.8419 29.8463 37.8829 29.7579 37.8321C29.6695 37.781 29.5986 37.6575 29.5986 37.5574L29.6085 34.2567C29.6085 34.1566 29.6813 34.1155 29.7697 34.1664Z" fill="#6E17FF"/>
<path d="M30.8759 34.8056C30.9643 34.8565 31.0352 34.9802 31.0352 35.0801L31.0254 38.381C31.0254 38.4809 30.9525 38.5222 30.8641 38.4711C30.7758 38.42 30.7051 38.2966 30.7051 38.1966L30.7149 34.8958C30.7149 34.7958 30.7875 34.7546 30.8759 34.8056Z" fill="#6E17FF"/>
<path d="M11.0686 25.7042C11.4035 25.5099 11.4028 24.8848 11.0668 24.3079C10.731 23.731 10.1873 23.4208 9.8522 23.6151C9.51729 23.8093 9.51816 24.4345 9.85394 25.0114C10.1897 25.5883 10.7337 25.8985 11.0686 25.7042Z" fill="#6E17FF"/>
</g>
</g>
<defs>
<filter id="filter0_d_6722_31907" x="-7.67285" y="-11.9932" width="87.2451" height="96.0044" filterUnits="userSpaceOnUse" color-interpolation-filters="sRGB">
<feFlood flood-opacity="0" result="BackgroundImageFix"/>
<feColorMatrix in="SourceAlpha" type="matrix" values="0 0 0 0 0 0 0 0 0 0 0 0 0 0 0 0 0 0 127 0" result="hardAlpha"/>
<feOffset/>
<feGaussianBlur stdDeviation="7.75"/>
<feColorMatrix type="matrix" values="0 0 0 0 0 0 0 0 0 0 0 0 0 0 0 0 0 0 0.15 0"/>
<feBlend mode="normal" in2="BackgroundImageFix" result="effect1_dropShadow_6722_31907"/>
<feBlend mode="normal" in="SourceGraphic" in2="effect1_dropShadow_6722_31907" result="shape"/>
</filter>
<linearGradient id="paint0_linear_6722_31907" x1="1.18556" y1="66.3701" x2="71.7645" y2="25.1854" gradientUnits="userSpaceOnUse">
<stop stop-color="#4C7F8E" stop-opacity="0"/>
<stop offset="0.4" stop-color="#4C7F8E" stop-opacity="0"/>
<stop offset="0.5" stop-color="#4C7F8E" stop-opacity="0.12"/>
<stop offset="0.7" stop-color="#4C7F8E" stop-opacity="0.33"/>
<stop offset="0.88" stop-color="#4C7F8E" stop-opacity="0.45"/>
<stop offset="1" stop-color="#4C7F8E" stop-opacity="0.5"/>
</linearGradient>
<linearGradient id="paint1_linear_6722_31907" x1="65.0839" y1="52.1726" x2="7.10905" y2="59.1666" gradientUnits="userSpaceOnUse">
<stop stop-color="#4C7F8E" stop-opacity="0.6"/>
<stop offset="0.11" stop-color="#4C7F8E" stop-opacity="0.55"/>
<stop offset="0.27" stop-color="#4C7F8E" stop-opacity="0.43"/>
<stop offset="0.45" stop-color="#4C7F8E" stop-opacity="0.22"/>
<stop offset="0.6" stop-color="#4C7F8E" stop-opacity="0"/>
<stop offset="1" stop-color="#4C7F8E" stop-opacity="0"/>
</linearGradient>
<linearGradient id="paint2_linear_6722_31907" x1="3.22905" y1="57.5697" x2="71.7637" y2="16.3869" gradientUnits="userSpaceOnUse">
<stop stop-color="#4C7F8E" stop-opacity="0"/>
<stop offset="0.4" stop-color="#4C7F8E" stop-opacity="0"/>
<stop offset="0.5" stop-color="#4C7F8E" stop-opacity="0.12"/>
<stop offset="0.7" stop-color="#4C7F8E" stop-opacity="0.33"/>
<stop offset="0.88" stop-color="#4C7F8E" stop-opacity="0.45"/>
<stop offset="1" stop-color="#4C7F8E" stop-opacity="0.5"/>
</linearGradient>
<linearGradient id="paint3_linear_6722_31907" x1="65.0839" y1="43.2997" x2="7.10905" y2="50.2935" gradientUnits="userSpaceOnUse">
<stop stop-color="#4C7F8E" stop-opacity="0.6"/>
<stop offset="0.11" stop-color="#4C7F8E" stop-opacity="0.55"/>
<stop offset="0.27" stop-color="#4C7F8E" stop-opacity="0.43"/>
<stop offset="0.45" stop-color="#4C7F8E" stop-opacity="0.22"/>
<stop offset="0.6" stop-color="#4C7F8E" stop-opacity="0"/>
<stop offset="1" stop-color="#4C7F8E" stop-opacity="0"/>
</linearGradient>
<linearGradient id="paint4_linear_6722_31907" x1="3.22905" y1="48.7699" x2="71.7637" y2="7.58706" gradientUnits="userSpaceOnUse">
<stop stop-color="#4C7F8E" stop-opacity="0"/>
<stop offset="0.4" stop-color="#4C7F8E" stop-opacity="0"/>
<stop offset="0.5" stop-color="#4C7F8E" stop-opacity="0.12"/>
<stop offset="0.7" stop-color="#4C7F8E" stop-opacity="0.33"/>
<stop offset="0.88" stop-color="#4C7F8E" stop-opacity="0.45"/>
<stop offset="1" stop-color="#4C7F8E" stop-opacity="0.5"/>
</linearGradient>
<linearGradient id="paint5_linear_6722_31907" x1="65.0839" y1="34.5721" x2="7.10905" y2="41.5659" gradientUnits="userSpaceOnUse">
<stop stop-color="#4C7F8E" stop-opacity="0.6"/>
<stop offset="0.11" stop-color="#4C7F8E" stop-opacity="0.55"/>
<stop offset="0.27" stop-color="#4C7F8E" stop-opacity="0.43"/>
<stop offset="0.45" stop-color="#4C7F8E" stop-opacity="0.22"/>
<stop offset="0.6" stop-color="#4C7F8E" stop-opacity="0"/>
<stop offset="1" stop-color="#4C7F8E" stop-opacity="0"/>
</linearGradient>
<linearGradient id="paint6_linear_6722_31907" x1="1.18556" y1="39.9717" x2="71.7645" y2="-1.21498" gradientUnits="userSpaceOnUse">
<stop stop-color="#4C7F8E" stop-opacity="0"/>
<stop offset="0.4" stop-color="#4C7F8E" stop-opacity="0"/>
<stop offset="0.5" stop-color="#4C7F8E" stop-opacity="0.12"/>
<stop offset="0.7" stop-color="#4C7F8E" stop-opacity="0.33"/>
<stop offset="0.88" stop-color="#4C7F8E" stop-opacity="0.45"/>
<stop offset="1" stop-color="#4C7F8E" stop-opacity="0.5"/>
</linearGradient>
<linearGradient id="paint7_linear_6722_31907" x1="65.0839" y1="25.8451" x2="7.10905" y2="32.8389" gradientUnits="userSpaceOnUse">
<stop stop-color="#4C7F8E" stop-opacity="0.6"/>
<stop offset="0.11" stop-color="#4C7F8E" stop-opacity="0.55"/>
<stop offset="0.27" stop-color="#4C7F8E" stop-opacity="0.43"/>
<stop offset="0.45" stop-color="#4C7F8E" stop-opacity="0.22"/>
<stop offset="0.6" stop-color="#4C7F8E" stop-opacity="0"/>
<stop offset="1" stop-color="#4C7F8E" stop-opacity="0"/>
</linearGradient>
<clipPath id="clip0_6722_31907">
<rect width="72" height="72" fill="white"/>
</clipPath>
</defs>
</svg>
