<svg xmlns="http://www.w3.org/2000/svg" width="72" height="72" fill="none" viewBox="0 0 72 72"><g clip-path="url(#a)"><path fill="#c9d7dd" d="m64.06 46.206-.02 6.056c0 .165-.108.33-.324.455L36.811 68.303c-.236.138-.556.2-.866.187l.004-6.088c.318.016.644-.047.884-.186l26.905-15.588a.7.7 0 0 0 .17-.13q.029-.027.052-.055a.5.5 0 0 0 .092-.176v-.01l.002-.01.002-.013q.005-.015.006-.03z"/><path fill="#fff" d="M64.06 46.175v.03a.1.1 0 0 1-.006.031q0 .008-.002.014l-.002.01v.009l-.01.03a.5.5 0 0 1-.133.202 1 1 0 0 1-.17.13L36.83 62.217c-.24.14-.566.202-.884.186a1.6 1.6 0 0 1-.702-.186L8.18 46.601l-.04-.024q-.03-.019-.057-.039l-.03-.023-.046-.042q-.028-.029-.051-.056a.5.5 0 0 1-.071-.12q-.008-.014-.012-.032a.3.3 0 0 1-.02-.094v-.03.005c0-.169.107-.336.325-.463l26.907-15.586c.436-.253 1.15-.253 1.588 0l27.064 15.615c.22.128.328.295.328.463z"/><path fill="url(#b)" d="M64.06 46.175v.03a.1.1 0 0 1-.006.031q0 .008-.002.014l-.002.01v.009l-.01.03a.5.5 0 0 1-.133.202 1 1 0 0 1-.17.13L36.83 62.217c-.24.14-.566.202-.884.186a1.6 1.6 0 0 1-.702-.186L8.18 46.601l-.04-.024q-.03-.019-.057-.039l-.03-.023-.046-.042q-.028-.029-.051-.056a.5.5 0 0 1-.071-.12q-.008-.014-.012-.032a.3.3 0 0 1-.02-.094v-.03.005c0-.169.107-.336.325-.463l26.907-15.586c.436-.253 1.15-.253 1.588 0l27.064 15.615c.22.128.328.295.328.463z"/><path fill="#c9d7dd" d="m35.947 62.404-.004 6.088a1.6 1.6 0 0 1-.72-.189L8.158 52.689c-.22-.127-.33-.294-.33-.463l.02-6.056a.5.5 0 0 0 .031.125.2.2 0 0 0 .024.05q.02.035.047.07a.7.7 0 0 0 .098.098l.03.024.056.039.04.023 27.064 15.618c.195.111.446.174.702.186z"/><g opacity=".9"><path fill="url(#c)" d="m64.072 46.224-.02 6.056c0 .165-.108.33-.324.455L36.823 68.321c-.236.137-.556.2-.867.188a1.6 1.6 0 0 1-.719-.188L8.17 52.706c-.22-.128-.33-.295-.33-.463l.02-6.056q.005.045.02.094l.01.029a.2.2 0 0 0 .024.05q.021.034.048.07a1 1 0 0 0 .098.098l.03.023.056.04.04.023L35.25 62.23c.194.112.446.177.701.189.319.015.645-.047.885-.187l26.905-15.588a.7.7 0 0 0 .17-.129q.029-.027.052-.055a.5.5 0 0 0 .082-.147l.01-.03v-.009l.002-.01.002-.014q.005-.015.006-.03z" opacity=".9"/><path fill="#fff" d="M29.769 60.458a.35.35 0 0 1 .159.275l-.01 3.3c0 .1-.073.142-.16.091a.35.35 0 0 1-.16-.275l.01-3.3c0-.1.072-.142.16-.09M13.83 51.22a.35.35 0 0 1 .16.275l-.01 3.3c0 .1-.074.142-.162.09a.35.35 0 0 1-.159-.274l.01-3.3c0-.1.072-.142.16-.09m1.109.621a.35.35 0 0 1 .16.275l-.01 3.3c0 .1-.073.142-.162.09a.35.35 0 0 1-.159-.274l.01-3.3c0-.1.073-.142.161-.09m1.106.64a.35.35 0 0 1 .16.274l-.01 3.301c0 .1-.073.142-.161.09a.35.35 0 0 1-.16-.274l.01-3.3c0-.1.073-.142.161-.091m1.109.64a.35.35 0 0 1 .159.274l-.01 3.3c0 .1-.073.142-.161.091a.35.35 0 0 1-.16-.274l.01-3.301c0-.1.073-.142.162-.09m1.106.637a.35.35 0 0 1 .159.275l-.01 3.3c0 .1-.073.142-.161.09a.35.35 0 0 1-.16-.274l.01-3.3c0-.1.073-.142.162-.09m3.321 1.911a.35.35 0 0 1 .159.275l-.01 3.3c0 .1-.073.142-.161.09a.35.35 0 0 1-.16-.274l.01-3.3c0-.1.073-.142.161-.09m1.107.634a.35.35 0 0 1 .159.275l-.01 3.3c0 .1-.073.142-.161.09a.35.35 0 0 1-.16-.274l.01-3.3c0-.1.073-.142.162-.09m1.108.645a.35.35 0 0 1 .159.274l-.01 3.3c0 .101-.072.142-.161.091a.35.35 0 0 1-.16-.275l.01-3.3c0-.1.073-.141.162-.09m1.106.641c.088.051.16.175.16.275l-.01 3.3c0 .1-.073.142-.162.09a.35.35 0 0 1-.159-.274l.01-3.3c0-.1.073-.142.161-.09m5.975 3.465a.35.35 0 0 1 .16.275l-.01 3.3c0 .1-.073.142-.162.09a.35.35 0 0 1-.159-.274l.01-3.3c0-.1.073-.142.161-.091" opacity=".8"/><path fill="#fff" d="M11.066 51.957c.335-.195.334-.82-.002-1.397s-.88-.887-1.214-.693c-.335.195-.335.82.001 1.397s.88.887 1.215.693"/></g><path fill="#c9d7dd" d="m64.06 37.406-.02 6.057c0 .164-.108.329-.324.455L36.811 59.504c-.236.137-.556.2-.866.186l.004-6.088c.318.016.644-.047.884-.186l26.905-15.588a.8.8 0 0 0 .17-.13q.029-.027.052-.054a.5.5 0 0 0 .092-.177v-.01l.002-.01.002-.013q.005-.015.006-.03z"/><path fill="#fff" d="M64.06 37.375v.03a.1.1 0 0 1-.006.031q0 .008-.002.014l-.002.01v.01l-.01.029a.5.5 0 0 1-.133.202 1 1 0 0 1-.17.13L36.83 53.417c-.24.14-.566.202-.884.187a1.6 1.6 0 0 1-.702-.187L8.18 37.801l-.04-.024q-.03-.019-.057-.039l-.03-.023-.046-.041-.051-.057a.5.5 0 0 1-.071-.12q-.008-.015-.012-.031a.3.3 0 0 1-.02-.095v-.029.004c0-.169.107-.335.325-.463L35.08 21.297c.436-.253 1.15-.253 1.588 0l27.064 15.616c.22.127.328.294.328.462"/><path fill="url(#d)" d="M64.06 37.375v.03a.1.1 0 0 1-.006.031q0 .008-.002.014l-.002.01v.01l-.01.029a.5.5 0 0 1-.133.202 1 1 0 0 1-.17.13L36.83 53.417c-.24.14-.566.202-.884.187a1.6 1.6 0 0 1-.702-.187L8.18 37.801l-.04-.024q-.03-.019-.057-.039l-.03-.023-.046-.041-.051-.057a.5.5 0 0 1-.071-.12q-.008-.015-.012-.031a.3.3 0 0 1-.02-.095v-.029.004c0-.169.107-.335.325-.463L35.08 21.297c.436-.253 1.15-.253 1.588 0l27.064 15.616c.22.127.328.294.328.462"/><path fill="#c9d7dd" d="m35.947 53.604-.004 6.088a1.6 1.6 0 0 1-.72-.188L8.158 43.888c-.22-.127-.33-.294-.33-.463l.02-6.056a.5.5 0 0 0 .031.126 1 1 0 0 0 .07.12q.025.029.052.054.021.024.047.043l.03.024.056.04.04.023 27.064 15.617c.195.112.446.175.702.186z"/><g opacity=".9"><path fill="url(#e)" d="m64.072 37.35-.02 6.057c0 .165-.108.33-.324.455L36.823 59.448c-.236.137-.556.2-.867.188a1.6 1.6 0 0 1-.719-.188L8.17 43.833c-.22-.128-.33-.294-.33-.463l.02-6.056q.005.045.02.094l.01.029a.2.2 0 0 0 .024.05l.048.07q.023.029.05.055a.3.3 0 0 0 .048.043l.03.023.056.04.04.023L35.25 53.358c.194.112.446.177.701.189.319.015.645-.047.885-.187l26.905-15.588a.8.8 0 0 0 .17-.129q.029-.027.052-.055a.5.5 0 0 0 .082-.147l.01-.03v-.009l.002-.01.002-.014q.005-.015.006-.03z" opacity=".9"/><path fill="#fff" d="M29.769 51.512a.35.35 0 0 1 .159.275l-.01 3.3c0 .1-.073.142-.16.09a.35.35 0 0 1-.16-.274l.01-3.3c0-.1.072-.142.16-.09M13.83 42.494a.35.35 0 0 1 .16.274l-.01 3.301c0 .1-.074.141-.162.09a.35.35 0 0 1-.159-.274l.01-3.301c0-.1.072-.141.16-.09m1.109.622a.35.35 0 0 1 .16.274l-.01 3.301c0 .1-.073.141-.162.09a.35.35 0 0 1-.159-.274l.01-3.301c0-.1.073-.141.161-.09m1.106.64a.35.35 0 0 1 .16.275l-.01 3.3c0 .1-.073.142-.161.09a.35.35 0 0 1-.16-.274l.01-3.3c0-.1.073-.142.161-.09m1.109.639a.35.35 0 0 1 .159.274l-.01 3.301c0 .1-.073.142-.161.09a.35.35 0 0 1-.16-.274l.01-3.3c0-.1.073-.142.162-.091m1.106.638a.35.35 0 0 1 .159.274l-.01 3.3c0 .101-.073.142-.161.091a.35.35 0 0 1-.16-.274l.01-3.301c0-.1.073-.141.162-.09m3.321 1.912a.35.35 0 0 1 .159.274l-.01 3.301c0 .1-.073.141-.161.09a.35.35 0 0 1-.16-.274l.01-3.301c0-.1.073-.141.161-.09m1.107.634a.35.35 0 0 1 .159.275l-.01 3.3c0 .1-.073.142-.161.091a.35.35 0 0 1-.16-.275l.01-3.3c0-.1.073-.142.162-.09m1.108.645a.35.35 0 0 1 .159.275l-.01 3.3c0 .1-.072.142-.161.09a.35.35 0 0 1-.16-.274l.01-3.3c0-.1.073-.142.162-.091m1.106.642a.35.35 0 0 1 .16.274l-.01 3.301c0 .1-.073.141-.162.09a.35.35 0 0 1-.159-.274l.01-3.301c0-.1.073-.141.161-.09m5.975 3.465c.089.051.16.175.16.275l-.01 3.3c0 .1-.073.142-.162.091a.35.35 0 0 1-.159-.275l.01-3.3c0-.1.073-.142.161-.09" opacity=".8"/><path fill="#fff" d="M11.066 43.229c.335-.194.334-.82-.002-1.396-.336-.577-.88-.887-1.214-.693-.335.194-.335.82.001 1.396.336.577.88.887 1.215.693"/></g><path fill="#c9d7dd" d="m64.06 28.607-.02 6.056c0 .165-.108.33-.324.455L36.811 50.704c-.236.137-.556.2-.866.186l.004-6.088c.318.016.644-.047.884-.186l26.905-15.588a.8.8 0 0 0 .17-.13q.029-.027.052-.054a.5.5 0 0 0 .092-.177v-.01l.002-.01.002-.013q.005-.015.006-.03z"/><path fill="#fff" d="M64.06 28.575v.029a.1.1 0 0 1-.006.031q0 .009-.002.014l-.002.01v.01l-.01.03a.5.5 0 0 1-.133.201 1 1 0 0 1-.17.13L36.83 44.618c-.24.139-.566.202-.884.186a1.6 1.6 0 0 1-.702-.186L8.18 29l-.04-.023-.057-.04-.03-.023q-.024-.02-.046-.041l-.051-.057q-.029-.036-.047-.07a.3.3 0 0 1-.024-.05q-.008-.015-.012-.031a.3.3 0 0 1-.02-.094v-.03.004c0-.169.107-.335.325-.463L35.08 12.496c.436-.253 1.15-.253 1.588 0l27.064 15.616c.22.127.328.294.328.463"/><path fill="url(#f)" d="M64.06 28.575v.029a.1.1 0 0 1-.006.031q0 .009-.002.014l-.002.01v.01l-.01.03a.5.5 0 0 1-.133.201 1 1 0 0 1-.17.13L36.83 44.618c-.24.139-.566.202-.884.186a1.6 1.6 0 0 1-.702-.186L8.18 29l-.04-.023-.057-.04-.03-.023q-.024-.02-.046-.041l-.051-.057q-.029-.036-.047-.07a.3.3 0 0 1-.024-.05q-.008-.015-.012-.031a.3.3 0 0 1-.02-.094v-.03.004c0-.169.107-.335.325-.463L35.08 12.496c.436-.253 1.15-.253 1.588 0l27.064 15.616c.22.127.328.294.328.463"/><path fill="#c9d7dd" d="m35.947 44.805-.004 6.087a1.6 1.6 0 0 1-.72-.188L8.158 35.089c-.22-.128-.33-.295-.33-.463l.02-6.057q.005.047.02.095l.011.03a1 1 0 0 0 .07.12.7.7 0 0 0 .099.099l.03.023.056.04.04.023 27.064 15.617c.195.112.446.175.702.187z"/><path fill="url(#g)" d="m64.072 28.624-.02 6.056c0 .165-.108.33-.324.456L36.823 50.72c-.236.138-.556.2-.867.189a1.6 1.6 0 0 1-.719-.189L8.17 35.106c-.22-.127-.33-.294-.33-.463l.02-6.056q.005.047.02.094l.01.03a1 1 0 0 0 .07.12.7.7 0 0 0 .1.097l.03.024.056.039.04.024L35.25 44.632c.194.112.446.176.701.188.319.016.645-.047.885-.186l26.905-15.588a.8.8 0 0 0 .17-.13q.029-.027.052-.055a.5.5 0 0 0 .082-.147l.01-.029v-.01l.002-.01.002-.013q.005-.015.006-.03z" opacity=".9"/><path fill="#fff" d="M13.83 33.766c.088.05.159.175.159.275l-.01 3.3c0 .1-.073.142-.161.09a.35.35 0 0 1-.16-.274l.01-3.3c0-.1.073-.142.162-.09m1.108.621a.35.35 0 0 1 .16.275l-.01 3.3c0 .1-.073.142-.162.09a.35.35 0 0 1-.159-.274l.01-3.3c0-.1.073-.142.16-.09m1.107.64c.089.05.16.174.16.274l-.01 3.301c0 .1-.073.141-.162.09a.35.35 0 0 1-.159-.274l.01-3.301c0-.1.073-.141.161-.09m1.108.639a.35.35 0 0 1 .16.275l-.01 3.3c0 .1-.073.142-.161.09a.35.35 0 0 1-.16-.274l.01-3.3c0-.1.073-.142.161-.09m1.107.637a.35.35 0 0 1 .159.275l-.01 3.3c0 .1-.073.142-.161.09a.35.35 0 0 1-.16-.274l.01-3.3c0-.1.073-.142.162-.091m3.321 1.912a.35.35 0 0 1 .158.275l-.01 3.3c0 .1-.072.142-.16.09a.35.35 0 0 1-.16-.274l.01-3.3c0-.1.073-.142.161-.09m1.107.634a.35.35 0 0 1 .159.274l-.01 3.301c0 .1-.073.142-.161.09a.35.35 0 0 1-.16-.274l.01-3.3c0-.1.073-.142.162-.091m1.108.645a.35.35 0 0 1 .159.275l-.01 3.3c0 .1-.073.142-.161.091a.35.35 0 0 1-.16-.275l.01-3.3c0-.1.073-.141.162-.09m1.106.641c.088.051.16.175.16.275l-.01 3.3c0 .1-.073.142-.162.09a.35.35 0 0 1-.16-.274l.01-3.3c0-.1.073-.142.162-.09m5.975 3.465a.35.35 0 0 1 .16.274l-.01 3.301c0 .1-.073.142-.162.09a.35.35 0 0 1-.159-.274l.01-3.3c0-.101.073-.142.161-.091" opacity=".8"/><path fill="#fff" d="M11.066 34.502c.335-.195.334-.82-.002-1.397s-.88-.887-1.214-.693c-.335.195-.335.82.001 1.397s.88.887 1.215.693"/><path fill="#c9d7dd" d="m64.06 19.807-.02 6.056c0 .165-.108.33-.324.455L36.811 41.904c-.236.137-.556.2-.866.186l.004-6.087c.318.015.644-.048.884-.187l26.905-15.588a.8.8 0 0 0 .17-.13q.029-.026.052-.054a.5.5 0 0 0 .092-.177v-.009l.002-.01.002-.014q.005-.015.006-.03z"/><path fill="#fff" d="M64.06 19.775v.03a.1.1 0 0 1-.006.03q0 .009-.002.014l-.002.01v.01l-.01.03a.5.5 0 0 1-.133.201 1 1 0 0 1-.17.13L36.83 35.818c-.24.139-.566.202-.884.186a1.6 1.6 0 0 1-.702-.186L8.18 20.2l-.04-.023-.057-.04-.03-.023q-.024-.02-.046-.041-.028-.028-.051-.057-.029-.035-.047-.07a.3.3 0 0 1-.024-.05q-.008-.015-.012-.031a.3.3 0 0 1-.02-.094v-.03.004c0-.168.107-.335.325-.463L35.08 3.697c.436-.253 1.15-.253 1.588 0l27.064 15.615c.22.127.328.294.328.463"/><path fill="url(#h)" d="M64.06 19.775v.03a.1.1 0 0 1-.006.03q0 .009-.002.014l-.002.01v.01l-.01.03a.5.5 0 0 1-.133.201 1 1 0 0 1-.17.13L36.83 35.818c-.24.139-.566.202-.884.186a1.6 1.6 0 0 1-.702-.186L8.18 20.2l-.04-.023-.057-.04-.03-.023q-.024-.02-.046-.041-.028-.028-.051-.057-.029-.035-.047-.07a.3.3 0 0 1-.024-.05q-.008-.015-.012-.031a.3.3 0 0 1-.02-.094v-.03.004c0-.168.107-.335.325-.463L35.08 3.697c.436-.253 1.15-.253 1.588 0l27.064 15.615c.22.127.328.294.328.463"/><path fill="#c9d7dd" d="m35.947 36.004-.004 6.087a1.6 1.6 0 0 1-.72-.188L8.158 26.288c-.22-.128-.33-.294-.33-.463l.02-6.056a.5.5 0 0 0 .031.125 1 1 0 0 0 .07.12.7.7 0 0 0 .099.098l.03.023.056.04.04.023 27.064 15.617c.195.112.446.175.702.187z"/><path fill="url(#i)" d="m64.072 19.897-.02 6.056c0 .165-.108.33-.324.455L36.823 41.994c-.236.137-.556.2-.867.188a1.6 1.6 0 0 1-.719-.188L8.17 26.379c-.22-.128-.33-.295-.33-.463l.02-6.057q.005.048.02.094l.01.03a.2.2 0 0 0 .024.049l.048.07q.023.03.05.055a.3.3 0 0 0 .048.044l.03.023.056.04.04.023L35.25 35.904c.194.112.446.177.701.189.319.015.645-.048.885-.187l26.905-15.588a.8.8 0 0 0 .17-.13q.029-.026.052-.054a.5.5 0 0 0 .082-.147l.01-.03v-.009l.002-.01.002-.014q.005-.015.006-.03z" opacity=".9"/><path fill="#6e17ff" d="M13.83 24.966a.35.35 0 0 1 .159.275l-.01 3.3c0 .1-.073.142-.161.09a.35.35 0 0 1-.16-.274l.01-3.3c0-.1.073-.142.162-.09m1.108.623a.35.35 0 0 1 .16.275l-.01 3.3c0 .1-.073.142-.162.09a.35.35 0 0 1-.159-.274l.01-3.3c0-.1.073-.142.16-.09m2.215 1.278a.35.35 0 0 1 .16.274l-.01 3.3c0 .101-.073.142-.161.091a.35.35 0 0 1-.16-.274l.01-3.301c0-.1.073-.141.161-.09m3.321 1.911a.35.35 0 0 1 .16.275l-.01 3.3c0 .101-.073.142-.162.091a.35.35 0 0 1-.159-.274l.01-3.301c0-.1.072-.141.161-.09m1.107.637a.35.35 0 0 1 .158.275l-.01 3.3c0 .1-.072.142-.16.09a.35.35 0 0 1-.16-.274l.01-3.3c0-.1.073-.142.161-.09m2.215 1.281a.35.35 0 0 1 .159.275l-.01 3.301c0 .1-.073.141-.161.09a.35.35 0 0 1-.16-.274l.01-3.301c0-.1.073-.141.162-.09m1.106.639c.088.051.16.175.16.275l-.01 3.3c0 .1-.073.142-.162.091a.35.35 0 0 1-.16-.275l.01-3.3c0-.1.073-.142.162-.09m4.869 2.825a.35.35 0 0 1 .159.275l-.01 3.3c0 .1-.072.142-.16.091a.35.35 0 0 1-.16-.275l.01-3.3c0-.1.073-.142.161-.09m1.106.639c.088.051.16.175.16.275l-.01 3.3c0 .1-.073.142-.162.09a.35.35 0 0 1-.159-.274l.01-3.3c0-.1.073-.142.161-.09m-19.807-9.102c.335-.195.334-.82-.002-1.397-.335-.576-.88-.887-1.214-.692-.335.194-.334.819.002 1.396.335.577.88.887 1.214.693"/></g><defs><linearGradient id="b" x1="9" x2="64.502" y1="58.6" y2="25.597" gradientUnits="userSpaceOnUse"><stop stop-color="#49879a" stop-opacity=".38"/><stop offset=".4" stop-color="#154655" stop-opacity=".553"/><stop offset=".7" stop-color="#154655" stop-opacity=".73"/><stop offset=".969" stop-color="#154655" stop-opacity=".85"/></linearGradient><linearGradient id="c" x1="65.084" x2="7.109" y1="52.172" y2="59.166" gradientUnits="userSpaceOnUse"><stop stop-color="#4c7f8e" stop-opacity=".6"/><stop offset=".11" stop-color="#4c7f8e" stop-opacity=".55"/><stop offset=".27" stop-color="#4c7f8e" stop-opacity=".43"/><stop offset=".45" stop-color="#4c7f8e" stop-opacity=".22"/><stop offset=".6" stop-color="#4c7f8e" stop-opacity="0"/><stop offset="1" stop-color="#4c7f8e" stop-opacity="0"/></linearGradient><linearGradient id="d" x1="9" x2="64.5" y1="49.801" y2="16.801" gradientUnits="userSpaceOnUse"><stop stop-color="#49879a" stop-opacity=".38"/><stop offset=".4" stop-color="#154655" stop-opacity=".553"/><stop offset=".7" stop-color="#154655" stop-opacity=".73"/><stop offset=".969" stop-color="#154655" stop-opacity=".85"/></linearGradient><linearGradient id="e" x1="65.084" x2="7.109" y1="43.299" y2="50.293" gradientUnits="userSpaceOnUse"><stop stop-color="#4c7f8e" stop-opacity=".6"/><stop offset=".11" stop-color="#4c7f8e" stop-opacity=".55"/><stop offset=".27" stop-color="#4c7f8e" stop-opacity=".43"/><stop offset=".45" stop-color="#4c7f8e" stop-opacity=".22"/><stop offset=".6" stop-color="#4c7f8e" stop-opacity="0"/><stop offset="1" stop-color="#4c7f8e" stop-opacity="0"/></linearGradient><linearGradient id="f" x1="9" x2="64.5" y1="41" y2="8" gradientUnits="userSpaceOnUse"><stop stop-color="#49879a" stop-opacity=".38"/><stop offset=".4" stop-color="#154655" stop-opacity=".553"/><stop offset=".7" stop-color="#154655" stop-opacity=".73"/><stop offset=".969" stop-color="#154655" stop-opacity=".85"/></linearGradient><linearGradient id="g" x1="65.084" x2="7.109" y1="34.573" y2="41.566" gradientUnits="userSpaceOnUse"><stop stop-color="#4c7f8e" stop-opacity=".6"/><stop offset=".11" stop-color="#4c7f8e" stop-opacity=".55"/><stop offset=".27" stop-color="#4c7f8e" stop-opacity=".43"/><stop offset=".45" stop-color="#4c7f8e" stop-opacity=".22"/><stop offset=".6" stop-color="#4c7f8e" stop-opacity="0"/><stop offset="1" stop-color="#4c7f8e" stop-opacity="0"/></linearGradient><linearGradient id="h" x1="1.186" x2="71.765" y1="39.972" y2="-1.215" gradientUnits="userSpaceOnUse"><stop stop-color="#4c7f8e" stop-opacity="0"/><stop offset=".4" stop-color="#4c7f8e" stop-opacity="0"/><stop offset=".5" stop-color="#4c7f8e" stop-opacity=".12"/><stop offset=".7" stop-color="#4c7f8e" stop-opacity=".33"/><stop offset=".88" stop-color="#4c7f8e" stop-opacity=".45"/><stop offset="1" stop-color="#4c7f8e" stop-opacity=".5"/></linearGradient><linearGradient id="i" x1="65.084" x2="7.109" y1="25.845" y2="32.839" gradientUnits="userSpaceOnUse"><stop stop-color="#4c7f8e" stop-opacity=".6"/><stop offset=".11" stop-color="#4c7f8e" stop-opacity=".55"/><stop offset=".27" stop-color="#4c7f8e" stop-opacity=".43"/><stop offset=".45" stop-color="#4c7f8e" stop-opacity=".22"/><stop offset=".6" stop-color="#4c7f8e" stop-opacity="0"/><stop offset="1" stop-color="#4c7f8e" stop-opacity="0"/></linearGradient><clipPath id="a"><path fill="#fff" d="M0 0h72v72H0z"/></clipPath></defs></svg>