<svg width="72" height="72" viewBox="0 0 72 72" fill="none" xmlns="http://www.w3.org/2000/svg">
<g clip-path="url(#clip0_6722_31907)">
<path d="M64.0601 46.2061L64.0405 52.2624C64.0405 52.4271 63.9325 52.5918 63.7163 52.7173L36.8112 68.3033C36.5753 68.4405 36.2551 68.5034 35.9446 68.4896L35.9485 62.4019C36.2668 62.4176 36.593 62.3548 36.8328 62.2156L63.7379 46.6276C63.8068 46.5885 63.8638 46.5453 63.9089 46.4982C63.9286 46.4805 63.9443 46.4609 63.96 46.4432C63.9973 46.3963 64.0248 46.3453 64.0425 46.2962C64.0464 46.2864 64.0503 46.2765 64.0523 46.2667C64.0523 46.2648 64.0523 46.2628 64.0523 46.2608C64.0523 46.2608 64.0523 46.2589 64.0523 46.2569C64.0523 46.2532 64.0542 46.2512 64.0542 46.2473C64.0542 46.2434 64.0542 46.2394 64.0562 46.2336C64.0601 46.2237 64.0601 46.2139 64.0621 46.2041L64.0601 46.2061Z" fill="#C9D7DD"/>
<path d="M64.0602 46.1752V46.2047C64.0602 46.2164 64.0582 46.2263 64.0543 46.2361C64.0543 46.242 64.0543 46.2459 64.0523 46.2498C64.0523 46.2535 64.0503 46.2555 64.0503 46.2594C64.0503 46.2594 64.0503 46.2614 64.0503 46.2634C64.0503 46.2653 64.0503 46.2673 64.0503 46.2692C64.0484 46.2791 64.0445 46.2889 64.0405 46.2987C64.0229 46.3498 63.9954 46.3988 63.9581 46.4458C63.9423 46.4654 63.9266 46.4831 63.907 46.5007C63.8599 46.5479 63.8029 46.5891 63.7362 46.6301L36.8309 62.2181C36.5911 62.3573 36.2649 62.4202 35.9466 62.4044C35.6891 62.3927 35.4397 62.3298 35.2451 62.2181L8.17878 46.6009C8.16482 46.593 8.15108 46.5852 8.13929 46.5773C8.11966 46.5636 8.10002 46.5518 8.08235 46.538C8.07253 46.5302 8.06271 46.5223 8.05289 46.5145C8.03718 46.5007 8.01951 46.487 8.00577 46.4732C7.98809 46.4536 7.97042 46.4359 7.95471 46.4165C7.93704 46.393 7.91936 46.3694 7.90758 46.3458C7.89776 46.3301 7.88991 46.3124 7.88402 46.2967C7.87813 46.2869 7.87617 46.2771 7.87224 46.2653C7.86046 46.2341 7.85456 46.2027 7.8526 46.1713V46.1418C7.8526 46.1418 7.8526 46.1438 7.8526 46.1458C7.8526 45.9771 7.95864 45.8104 8.17682 45.683L35.0839 30.097C35.5202 29.844 36.2335 29.844 36.6716 30.097L63.7362 45.7124C63.9561 45.8399 64.0641 46.0066 64.0641 46.1752H64.0602Z" fill="white"/>
<path d="M64.0602 46.1752V46.2047C64.0602 46.2164 64.0582 46.2263 64.0543 46.2361C64.0543 46.242 64.0543 46.2459 64.0523 46.2498C64.0523 46.2535 64.0503 46.2555 64.0503 46.2594C64.0503 46.2594 64.0503 46.2614 64.0503 46.2634C64.0503 46.2653 64.0503 46.2673 64.0503 46.2692C64.0484 46.2791 64.0445 46.2889 64.0405 46.2987C64.0229 46.3498 63.9954 46.3988 63.9581 46.4458C63.9423 46.4654 63.9266 46.4831 63.907 46.5007C63.8599 46.5479 63.8029 46.5891 63.7362 46.6301L36.8309 62.2181C36.5911 62.3573 36.2649 62.4202 35.9466 62.4044C35.6891 62.3927 35.4397 62.3298 35.2451 62.2181L8.17878 46.6009C8.16482 46.593 8.15108 46.5852 8.13929 46.5773C8.11966 46.5636 8.10002 46.5518 8.08235 46.538C8.07253 46.5302 8.06271 46.5223 8.05289 46.5145C8.03718 46.5007 8.01951 46.487 8.00577 46.4732C7.98809 46.4536 7.97042 46.4359 7.95471 46.4165C7.93704 46.393 7.91936 46.3694 7.90758 46.3458C7.89776 46.3301 7.88991 46.3124 7.88402 46.2967C7.87813 46.2869 7.87617 46.2771 7.87224 46.2653C7.86046 46.2341 7.85456 46.2027 7.8526 46.1713V46.1418C7.8526 46.1418 7.8526 46.1438 7.8526 46.1458C7.8526 45.9771 7.95864 45.8104 8.17682 45.683L35.0839 30.097C35.5202 29.844 36.2335 29.844 36.6716 30.097L63.7362 45.7124C63.9561 45.8399 64.0641 46.0066 64.0641 46.1752H64.0602Z" fill="url(#paint0_linear_6722_31907)"/>
<path d="M35.9465 62.4041L35.9426 68.4918C35.6812 68.482 35.4238 68.4191 35.2235 68.3035L8.15695 52.688C7.93703 52.5606 7.82684 52.3939 7.82684 52.2252L7.8467 46.1689C7.85063 46.2004 7.85652 46.2318 7.86633 46.263C7.87026 46.2728 7.87419 46.2826 7.87812 46.2944C7.88401 46.3121 7.89186 46.3278 7.90168 46.3435C7.91543 46.3671 7.93114 46.3906 7.94881 46.4142C7.96452 46.4336 7.98219 46.4513 7.99986 46.4689C8.01361 46.4847 8.02932 46.4984 8.04699 46.5121C8.05681 46.52 8.06662 46.5279 8.07644 46.5357C8.09412 46.5495 8.11375 46.5612 8.13339 46.575C8.14517 46.5828 8.15892 46.5907 8.17288 46.5985L35.2372 62.2158C35.4316 62.3275 35.6832 62.3903 35.9387 62.4021L35.9465 62.4041Z" fill="#C9D7DD"/>
<g opacity="0.9">
<path opacity="0.9" d="M64.0719 46.2238L64.0523 52.2801C64.0523 52.4449 63.9443 52.6096 63.7281 52.735L36.823 68.3211C36.5871 68.4583 36.2668 68.5211 35.9564 68.5094C35.695 68.4995 35.4375 68.4347 35.2372 68.3211L8.16873 52.7056C7.9488 52.5782 7.83884 52.4115 7.83884 52.2428L7.85847 46.1865C7.8624 46.2179 7.86829 46.2494 7.87811 46.2806C7.88204 46.2904 7.88596 46.3002 7.88989 46.31C7.89578 46.3277 7.90364 46.3434 7.91345 46.3591C7.9272 46.3827 7.94291 46.4062 7.96058 46.4298C7.97629 46.4492 7.99396 46.4669 8.01163 46.4846C8.02538 46.5003 8.04109 46.514 8.05876 46.5278C8.06858 46.5356 8.0784 46.5435 8.08822 46.5513C8.10589 46.5651 8.12553 46.5769 8.14516 46.5906C8.15694 46.5985 8.17069 46.6063 8.18465 46.6139L35.251 62.2314C35.4454 62.3431 35.6969 62.4079 35.9524 62.4197C36.2708 62.4354 36.5969 62.3726 36.8367 62.2334L63.7418 46.6454C63.8108 46.6063 63.8677 46.5631 63.9129 46.516C63.9325 46.4983 63.9482 46.4787 63.9639 46.461C64.0012 46.4141 64.0287 46.363 64.0464 46.3139L64.0562 46.2845C64.0562 46.2845 64.0562 46.2786 64.0562 46.2766C64.0562 46.2766 64.0562 46.2766 64.0562 46.2747C64.0562 46.2707 64.0582 46.2688 64.0582 46.2649C64.0582 46.2609 64.0601 46.257 64.0601 46.2513C64.0641 46.2415 64.0641 46.2317 64.066 46.2219L64.0719 46.2238Z" fill="url(#paint1_linear_6722_31907)"/>
<path opacity="0.8" d="M29.7688 60.4584C29.8572 60.5094 29.9279 60.6329 29.9279 60.7331L29.9181 64.0337C29.9181 64.1339 29.8454 64.1749 29.7571 64.124C29.6687 64.073 29.5978 63.9495 29.5978 63.8494L29.6076 60.5487C29.6076 60.4486 29.6805 60.4075 29.7688 60.4584Z" fill="white"/>
<g opacity="0.8">
<path opacity="0.8" d="M13.8298 51.2202C13.9182 51.271 13.9891 51.3947 13.9891 51.4947L13.9793 54.7955C13.9793 54.8955 13.9064 54.9367 13.8181 54.8857C13.7297 54.8346 13.659 54.7111 13.659 54.6112L13.6688 51.3103C13.6688 51.2104 13.7415 51.1691 13.8298 51.2202Z" fill="white"/>
<path opacity="0.8" d="M14.938 51.8423C15.0266 51.8933 15.0973 52.0168 15.0973 52.117L15.0874 55.4176C15.0874 55.5175 15.0148 55.5588 14.9262 55.5077C14.8378 55.4569 14.7672 55.3332 14.7672 55.2332L14.777 51.9326C14.777 51.8324 14.8496 51.7912 14.938 51.8423Z" fill="white"/>
<path opacity="0.8" d="M16.0444 52.4828C16.1327 52.5338 16.2034 52.6575 16.2034 52.7574L16.1936 56.0581C16.1936 56.1582 16.121 56.1995 16.0326 56.1484C15.944 56.0974 15.8733 55.9739 15.8733 55.8737L15.8831 52.5731C15.8831 52.4731 15.9558 52.4319 16.0444 52.4828Z" fill="white"/>
<path opacity="0.8" d="M17.1525 53.1225C17.2409 53.1736 17.3116 53.2971 17.3116 53.397L17.3018 56.6979C17.3018 56.7978 17.2291 56.839 17.1407 56.788C17.0524 56.7372 16.9815 56.6134 16.9815 56.5135L16.9913 53.2126C16.9913 53.1127 17.0642 53.0715 17.1525 53.1225Z" fill="white"/>
<path opacity="0.8" d="M18.2587 53.7601C18.3471 53.8112 18.418 53.9347 18.418 54.0348L18.4082 57.3355C18.4082 57.4356 18.3353 57.4766 18.2469 57.4258C18.1585 57.3748 18.0879 57.2513 18.0879 57.1511L18.0977 53.8505C18.0977 53.7503 18.1703 53.7093 18.2587 53.7601Z" fill="white"/>
<path opacity="0.8" d="M21.5794 55.6723C21.6678 55.7232 21.7385 55.8469 21.7385 55.9468L21.7287 59.2477C21.7287 59.3476 21.656 59.3888 21.5677 59.3378C21.4793 59.2867 21.4084 59.1633 21.4084 59.0633L21.4182 55.7625C21.4182 55.6625 21.4911 55.6213 21.5794 55.6723Z" fill="white"/>
<path opacity="0.8" d="M22.6856 56.3071C22.774 56.3582 22.8449 56.4817 22.8449 56.5816L22.8351 59.8824C22.8351 59.9824 22.7622 60.0236 22.6738 59.9726C22.5855 59.9217 22.5148 59.798 22.5148 59.6981L22.5246 56.3974C22.5246 56.2973 22.5972 56.256 22.6856 56.3071Z" fill="white"/>
<path opacity="0.8" d="M23.7938 56.9525C23.8823 57.0036 23.953 57.1271 23.953 57.2272L23.9432 60.5279C23.9432 60.628 23.8706 60.6692 23.782 60.6182C23.6936 60.5671 23.6229 60.4436 23.6229 60.3435L23.6327 57.0428C23.6327 56.9427 23.7054 56.9017 23.7938 56.9525Z" fill="white"/>
<path opacity="0.8" d="M24.9001 57.5942C24.9885 57.6453 25.0592 57.7688 25.0592 57.8687L25.0494 61.1696C25.0494 61.2695 24.9767 61.3107 24.8884 61.2597C24.7998 61.2088 24.7291 61.0851 24.7291 60.9852L24.7389 57.6843C24.7389 57.5844 24.8116 57.5432 24.9001 57.5942Z" fill="white"/>
<path opacity="0.8" d="M30.8753 61.0599C30.9637 61.111 31.0346 61.2345 31.0346 61.3346L31.0248 64.6353C31.0248 64.7354 30.9519 64.7767 30.8635 64.7256C30.7752 64.6746 30.7045 64.5511 30.7045 64.4509L30.7143 61.1503C30.7143 61.0501 30.7869 61.0091 30.8753 61.0599Z" fill="white"/>
</g>
<path d="M11.0657 51.9566C11.4008 51.7624 11.3999 51.1373 11.0641 50.5602C10.7284 49.9833 10.1844 49.6733 9.84953 49.8675C9.51462 50.0619 9.51528 50.687 9.85106 51.2638C10.1871 51.8407 10.7308 52.151 11.0657 51.9566Z" fill="white"/>
</g>
<path d="M64.0601 37.4063L64.0405 43.4626C64.0405 43.6273 63.9325 43.792 63.7163 43.9177L36.8112 59.5035C36.5753 59.6407 36.2551 59.7036 35.9446 59.6898L35.9485 53.6021C36.2668 53.6178 36.593 53.5552 36.8328 53.4158L63.7379 37.828C63.8068 37.7887 63.8638 37.7455 63.9089 37.6986C63.9286 37.681 63.9443 37.6613 63.96 37.6436C63.9973 37.5965 64.0248 37.5455 64.0425 37.4966C64.0464 37.4868 64.0503 37.477 64.0523 37.4671C64.0523 37.4652 64.0523 37.4632 64.0523 37.4612C64.0523 37.4612 64.0523 37.4593 64.0523 37.4573C64.0523 37.4534 64.0542 37.4514 64.0542 37.4475C64.0542 37.4436 64.0542 37.4396 64.0562 37.4338C64.0601 37.4239 64.0601 37.4141 64.0621 37.4043L64.0601 37.4063Z" fill="#C9D7DD"/>
<path d="M64.0602 37.3753V37.4048C64.0602 37.4166 64.0582 37.4264 64.0543 37.4362C64.0543 37.4421 64.0543 37.446 64.0523 37.4499C64.0523 37.4539 64.0503 37.4558 64.0503 37.4598C64.0503 37.4598 64.0503 37.4617 64.0503 37.4637C64.0503 37.4656 64.0503 37.4676 64.0503 37.4696C64.0484 37.4794 64.0445 37.4892 64.0405 37.499C64.0229 37.5499 63.9954 37.599 63.9581 37.6461C63.9423 37.6657 63.9266 37.6834 63.907 37.7008C63.8599 37.748 63.8029 37.7892 63.7362 37.8304L36.8309 53.4182C36.5911 53.5576 36.2649 53.6203 35.9466 53.6046C35.6891 53.5928 35.4397 53.5302 35.2451 53.4182L8.17878 37.801C8.16482 37.7931 8.15108 37.7853 8.13929 37.7774C8.11966 37.7637 8.10002 37.7519 8.08235 37.7382C8.07253 37.7303 8.06271 37.7224 8.05289 37.7146C8.03718 37.7008 8.01951 37.6873 8.00577 37.6736C7.98809 37.6539 7.97042 37.6363 7.95471 37.6166C7.93704 37.5931 7.91936 37.5695 7.90758 37.5459C7.89776 37.5302 7.88991 37.5128 7.88402 37.4971C7.87813 37.4872 7.87617 37.4774 7.87224 37.4656C7.86046 37.4342 7.85456 37.4028 7.8526 37.3714V37.3422C7.8526 37.3422 7.8526 37.3439 7.8526 37.3459C7.8526 37.1772 7.95864 37.0105 8.17682 36.8831L35.0799 21.2972C35.5163 21.0442 36.2295 21.0442 36.6677 21.2972L63.7322 36.9126C63.9522 37.04 64.0602 37.2067 64.0602 37.3753Z" fill="white"/>
<path d="M64.0602 37.3753V37.4048C64.0602 37.4166 64.0582 37.4264 64.0543 37.4362C64.0543 37.4421 64.0543 37.446 64.0523 37.4499C64.0523 37.4539 64.0503 37.4558 64.0503 37.4598C64.0503 37.4598 64.0503 37.4617 64.0503 37.4637C64.0503 37.4656 64.0503 37.4676 64.0503 37.4696C64.0484 37.4794 64.0445 37.4892 64.0405 37.499C64.0229 37.5499 63.9954 37.599 63.9581 37.6461C63.9423 37.6657 63.9266 37.6834 63.907 37.7008C63.8599 37.748 63.8029 37.7892 63.7362 37.8304L36.8309 53.4182C36.5911 53.5576 36.2649 53.6203 35.9466 53.6046C35.6891 53.5928 35.4397 53.5302 35.2451 53.4182L8.17878 37.801C8.16482 37.7931 8.15108 37.7853 8.13929 37.7774C8.11966 37.7637 8.10002 37.7519 8.08235 37.7382C8.07253 37.7303 8.06271 37.7224 8.05289 37.7146C8.03718 37.7008 8.01951 37.6873 8.00577 37.6736C7.98809 37.6539 7.97042 37.6363 7.95471 37.6166C7.93704 37.5931 7.91936 37.5695 7.90758 37.5459C7.89776 37.5302 7.88991 37.5128 7.88402 37.4971C7.87813 37.4872 7.87617 37.4774 7.87224 37.4656C7.86046 37.4342 7.85456 37.4028 7.8526 37.3714V37.3422C7.8526 37.3422 7.8526 37.3439 7.8526 37.3459C7.8526 37.1772 7.95864 37.0105 8.17682 36.8831L35.0799 21.2972C35.5163 21.0442 36.2295 21.0442 36.6677 21.2972L63.7322 36.9126C63.9522 37.04 64.0602 37.2067 64.0602 37.3753Z" fill="url(#paint2_linear_6722_31907)"/>
<path d="M35.9465 53.6043L35.9426 59.692C35.6812 59.6822 35.4238 59.6195 35.2235 59.5037L8.15695 43.8884C7.93703 43.761 7.82684 43.5941 7.82684 43.4254L7.8467 37.3691C7.85063 37.4006 7.85652 37.432 7.86633 37.4634C7.87026 37.4732 7.87419 37.483 7.87812 37.4948C7.88401 37.5125 7.89186 37.528 7.90168 37.5437C7.91543 37.5673 7.93114 37.5908 7.94881 37.6144C7.96452 37.634 7.98219 37.6517 7.99986 37.6694C8.01361 37.6851 8.02932 37.6988 8.04699 37.7123C8.05681 37.7202 8.06662 37.728 8.07644 37.7359C8.09412 37.7496 8.11375 37.7614 8.13339 37.7752C8.14517 37.783 8.15892 37.7909 8.17288 37.7987L35.2372 53.416C35.4316 53.5279 35.6832 53.5905 35.9387 53.6023L35.9465 53.6043Z" fill="#C9D7DD"/>
<g opacity="0.9">
<path opacity="0.9" d="M64.0719 37.3507L64.0523 43.4069C64.0523 43.5717 63.9443 43.7366 63.7281 43.8621L36.823 59.4479C36.5871 59.5853 36.2668 59.648 35.9564 59.6362C35.695 59.6264 35.4375 59.5618 35.2372 59.4479L8.16873 43.8326C7.9488 43.7052 7.83884 43.5385 7.83884 43.3699L7.85847 37.3135C7.8624 37.3449 7.86829 37.3762 7.87811 37.4076C7.88204 37.4174 7.88596 37.4272 7.88989 37.437C7.89578 37.4547 7.90364 37.4704 7.91345 37.4861C7.9272 37.5096 7.94291 37.5331 7.96058 37.5567C7.97629 37.5763 7.99396 37.5939 8.01163 37.6116C8.02538 37.6273 8.04109 37.641 8.05876 37.6547C8.06858 37.6626 8.0784 37.6704 8.08822 37.6783C8.10589 37.692 8.12553 37.7038 8.14516 37.7175C8.15694 37.7253 8.17069 37.7332 8.18465 37.741L35.251 53.3584C35.4454 53.4701 35.6969 53.5349 35.9524 53.5467C36.2708 53.5622 36.5969 53.4996 36.8367 53.3604L63.7418 37.7724C63.8108 37.7332 63.8677 37.69 63.9129 37.643C63.9325 37.6253 63.9482 37.6057 63.9639 37.5881C64.0012 37.541 64.0287 37.49 64.0464 37.441L64.0562 37.4115C64.0562 37.4115 64.0562 37.4057 64.0562 37.4037C64.0562 37.4037 64.0562 37.4037 64.0562 37.4017C64.0562 37.3978 64.0582 37.3958 64.0582 37.3919C64.0582 37.388 64.0601 37.3841 64.0601 37.3782C64.0641 37.3684 64.0641 37.3586 64.066 37.3488L64.0719 37.3507Z" fill="url(#paint3_linear_6722_31907)"/>
<path opacity="0.8" d="M29.7688 51.5121C29.8572 51.5631 29.9279 51.6866 29.9279 51.7868L29.9181 55.0874C29.9181 55.1876 29.8454 55.2286 29.7571 55.1778C29.6687 55.1267 29.5978 55.0032 29.5978 54.9031L29.6076 51.6024C29.6076 51.5023 29.6805 51.4612 29.7688 51.5121Z" fill="white"/>
<g opacity="0.8">
<path opacity="0.8" d="M13.8298 42.4936C13.9182 42.5445 13.9891 42.6682 13.9891 42.7681L13.9793 46.069C13.9793 46.1689 13.9064 46.2101 13.8181 46.1591C13.7297 46.108 13.659 45.9845 13.659 45.8846L13.6688 42.5837C13.6688 42.4838 13.7415 42.4426 13.8298 42.4936Z" fill="white"/>
<path opacity="0.8" d="M14.938 43.1157C15.0266 43.1668 15.0973 43.2902 15.0973 43.3904L15.0874 46.691C15.0874 46.791 15.0148 46.8322 14.9262 46.7812C14.8378 46.7303 14.7672 46.6066 14.7672 46.5067L14.777 43.206C14.777 43.1059 14.8496 43.0646 14.938 43.1157Z" fill="white"/>
<path opacity="0.8" d="M16.0444 43.7562C16.1327 43.8072 16.2034 43.931 16.2034 44.0309L16.1936 47.3315C16.1936 47.4317 16.121 47.4729 16.0326 47.4219C15.944 47.3708 15.8733 47.2473 15.8733 47.1472L15.8831 43.8465C15.8831 43.7466 15.9558 43.7054 16.0444 43.7562Z" fill="white"/>
<path opacity="0.8" d="M17.1525 44.396C17.2409 44.447 17.3116 44.5705 17.3116 44.6704L17.3018 47.9713C17.3018 48.0712 17.2291 48.1125 17.1407 48.0614C17.0524 48.0106 16.9815 47.8869 16.9815 47.787L16.9913 44.4861C16.9913 44.3862 17.0642 44.3449 17.1525 44.396Z" fill="white"/>
<path opacity="0.8" d="M18.2587 45.0336C18.3471 45.0846 18.418 45.2081 18.418 45.3083L18.4082 48.6089C18.4082 48.7091 18.3353 48.7501 18.2469 48.6992C18.1585 48.6482 18.0879 48.5247 18.0879 48.4246L18.0977 45.1239C18.0977 45.0238 18.1703 44.9827 18.2587 45.0336Z" fill="white"/>
<path opacity="0.8" d="M21.5794 46.9458C21.6678 46.9966 21.7385 47.1203 21.7385 47.2203L21.7287 50.5211C21.7287 50.6211 21.656 50.6623 21.5677 50.6112C21.4793 50.5602 21.4084 50.4367 21.4084 50.3368L21.4182 47.0359C21.4182 46.936 21.4911 46.8947 21.5794 46.9458Z" fill="white"/>
<path opacity="0.8" d="M22.6856 47.5805C22.774 47.6316 22.8449 47.7551 22.8449 47.855L22.8351 51.1559C22.8351 51.2558 22.7622 51.297 22.6738 51.246C22.5855 51.1952 22.5148 51.0715 22.5148 50.9715L22.5246 47.6709C22.5246 47.5707 22.5972 47.5295 22.6856 47.5805Z" fill="white"/>
<path opacity="0.8" d="M23.7938 48.226C23.8823 48.277 23.953 48.4005 23.953 48.5006L23.9432 51.8013C23.9432 51.9014 23.8706 51.9427 23.782 51.8916C23.6936 51.8406 23.6229 51.7171 23.6229 51.6169L23.6327 48.3163C23.6327 48.2161 23.7054 48.1751 23.7938 48.226Z" fill="white"/>
<path opacity="0.8" d="M24.9001 48.8677C24.9885 48.9187 25.0592 49.0422 25.0592 49.1421L25.0494 52.443C25.0494 52.5429 24.9767 52.5842 24.8884 52.5331C24.7998 52.4823 24.7291 52.3586 24.7291 52.2586L24.7389 48.9578C24.7389 48.8578 24.8116 48.8166 24.9001 48.8677Z" fill="white"/>
<path opacity="0.8" d="M30.8753 52.3334C30.9637 52.3844 31.0346 52.5079 31.0346 52.6081L31.0248 55.9087C31.0248 56.0089 30.9519 56.0501 30.8635 55.999C30.7752 55.948 30.7045 55.8245 30.7045 55.7244L30.7143 52.4237C30.7143 52.3236 30.7869 52.2825 30.8753 52.3334Z" fill="white"/>
</g>
<path d="M11.0657 43.229C11.4008 43.0349 11.3999 42.4098 11.0641 41.8327C10.7284 41.2558 10.1844 40.9458 9.84953 41.1399C9.51462 41.3343 9.51528 41.9594 9.85106 42.5363C10.1871 43.1132 10.7308 43.4234 11.0657 43.229Z" fill="white"/>
</g>
<path d="M64.0601 28.6065L64.0405 34.6629C64.0405 34.8276 63.9325 34.9923 63.7163 35.1178L36.8112 50.7038C36.5753 50.841 36.2551 50.9037 35.9446 50.8901L35.9485 44.8024C36.2668 44.8181 36.593 44.7553 36.8328 44.6161L63.7379 29.0281C63.8068 28.9889 63.8638 28.9457 63.9089 28.8987C63.9286 28.881 63.9443 28.8614 63.96 28.8438C63.9973 28.7967 64.0248 28.7457 64.0425 28.6967C64.0464 28.6869 64.0503 28.6771 64.0523 28.6672C64.0523 28.6653 64.0523 28.6633 64.0523 28.6614C64.0523 28.6614 64.0523 28.6594 64.0523 28.6574C64.0523 28.6535 64.0542 28.6516 64.0542 28.6476C64.0542 28.6437 64.0542 28.6398 64.0562 28.6339C64.0601 28.6241 64.0601 28.6143 64.0621 28.6045L64.0601 28.6065Z" fill="#C9D7DD"/>
<path d="M64.0602 28.5746V28.604C64.0602 28.6158 64.0582 28.6256 64.0543 28.6354C64.0543 28.6413 64.0543 28.6452 64.0523 28.6491C64.0523 28.6531 64.0503 28.655 64.0503 28.659C64.0503 28.659 64.0503 28.6609 64.0503 28.6629C64.0503 28.6648 64.0503 28.6668 64.0503 28.6688C64.0484 28.6786 64.0445 28.6884 64.0405 28.6982C64.0229 28.7492 63.9954 28.7982 63.9581 28.8453C63.9423 28.8649 63.9266 28.8825 63.907 28.9002C63.8599 28.9473 63.8029 28.9884 63.7362 29.0296L36.8309 44.6176C36.5911 44.7568 36.2649 44.8196 35.9466 44.8039C35.6891 44.7921 35.4397 44.7293 35.2451 44.6176L8.17878 29.0002C8.16482 28.9924 8.15108 28.9845 8.13929 28.9767C8.11966 28.9629 8.10002 28.9512 8.08235 28.9374C8.07253 28.9296 8.06271 28.9218 8.05289 28.9139C8.03718 28.9002 8.01951 28.8865 8.00577 28.8727C7.98809 28.8531 7.97042 28.8355 7.95471 28.8158C7.93704 28.7923 7.91936 28.7688 7.90758 28.7452C7.89776 28.7296 7.88991 28.7119 7.88402 28.6962C7.87813 28.6864 7.87617 28.6766 7.87224 28.6648C7.86046 28.6334 7.85456 28.6021 7.8526 28.5707V28.5413C7.8526 28.5413 7.8526 28.5432 7.8526 28.5452C7.8526 28.3765 7.95864 28.2098 8.17682 28.0823L35.0799 12.4964C35.5163 12.2434 36.2295 12.2434 36.6677 12.4964L63.7322 28.1118C63.9522 28.2392 64.0602 28.4059 64.0602 28.5746Z" fill="white"/>
<path d="M64.0602 28.5746V28.604C64.0602 28.6158 64.0582 28.6256 64.0543 28.6354C64.0543 28.6413 64.0543 28.6452 64.0523 28.6491C64.0523 28.6531 64.0503 28.655 64.0503 28.659C64.0503 28.659 64.0503 28.6609 64.0503 28.6629C64.0503 28.6648 64.0503 28.6668 64.0503 28.6688C64.0484 28.6786 64.0445 28.6884 64.0405 28.6982C64.0229 28.7492 63.9954 28.7982 63.9581 28.8453C63.9423 28.8649 63.9266 28.8825 63.907 28.9002C63.8599 28.9473 63.8029 28.9884 63.7362 29.0296L36.8309 44.6176C36.5911 44.7568 36.2649 44.8196 35.9466 44.8039C35.6891 44.7921 35.4397 44.7293 35.2451 44.6176L8.17878 29.0002C8.16482 28.9924 8.15108 28.9845 8.13929 28.9767C8.11966 28.9629 8.10002 28.9512 8.08235 28.9374C8.07253 28.9296 8.06271 28.9218 8.05289 28.9139C8.03718 28.9002 8.01951 28.8865 8.00577 28.8727C7.98809 28.8531 7.97042 28.8355 7.95471 28.8158C7.93704 28.7923 7.91936 28.7688 7.90758 28.7452C7.89776 28.7296 7.88991 28.7119 7.88402 28.6962C7.87813 28.6864 7.87617 28.6766 7.87224 28.6648C7.86046 28.6334 7.85456 28.6021 7.8526 28.5707V28.5413C7.8526 28.5413 7.8526 28.5432 7.8526 28.5452C7.8526 28.3765 7.95864 28.2098 8.17682 28.0823L35.0799 12.4964C35.5163 12.2434 36.2295 12.2434 36.6677 12.4964L63.7322 28.1118C63.9522 28.2392 64.0602 28.4059 64.0602 28.5746Z" fill="url(#paint4_linear_6722_31907)"/>
<path d="M35.9465 44.8045L35.9426 50.892C35.6812 50.8824 35.4238 50.8196 35.2235 50.7039L8.15695 35.0885C7.93703 34.961 7.82684 34.7943 7.82684 34.6257L7.8467 28.5693C7.85063 28.6007 7.85652 28.6321 7.86633 28.6635C7.87026 28.6733 7.87419 28.6831 7.87812 28.6949C7.88401 28.7125 7.89186 28.7282 7.90168 28.7439C7.91543 28.7674 7.93114 28.791 7.94881 28.8145C7.96452 28.8341 7.98219 28.8518 7.99986 28.8694C8.01361 28.8851 8.02932 28.8988 8.04699 28.9126C8.05681 28.9204 8.06662 28.9282 8.07644 28.9361C8.09412 28.9498 8.11375 28.9616 8.13339 28.9753C8.14517 28.9832 8.15892 28.991 8.17288 28.9988L35.2372 44.6162C35.4316 44.7279 35.6832 44.7908 35.9387 44.8026L35.9465 44.8045Z" fill="#C9D7DD"/>
<g opacity="0.9">
<path opacity="0.9" d="M64.0719 28.6242L64.0523 34.6804C64.0523 34.8451 63.9443 35.0101 63.7281 35.1355L36.823 50.7213C36.5871 50.8588 36.2668 50.9214 35.9564 50.9096C35.695 50.8998 35.4375 50.8352 35.2372 50.7213L8.16873 35.1061C7.9488 34.9786 7.83884 34.8119 7.83884 34.6433L7.85847 28.5869C7.8624 28.6183 7.86829 28.6497 7.87811 28.6811C7.88204 28.6909 7.88596 28.7007 7.88989 28.7105C7.89578 28.7281 7.90364 28.7438 7.91345 28.7595C7.9272 28.783 7.94291 28.8066 7.96058 28.8301C7.97629 28.8497 7.99396 28.8674 8.01163 28.885C8.02538 28.9007 8.04109 28.9144 8.05876 28.9282C8.06858 28.936 8.0784 28.9439 8.08822 28.9517C8.10589 28.9654 8.12553 28.9772 8.14516 28.9909C8.15694 28.9988 8.17069 29.0066 8.18465 29.0145L35.251 44.6319C35.4454 44.7436 35.6969 44.8084 35.9524 44.8202C36.2708 44.8357 36.5969 44.773 36.8367 44.6338L63.7418 29.0458C63.8108 29.0066 63.8677 28.9635 63.9129 28.9164C63.9325 28.8988 63.9482 28.8791 63.9639 28.8615C64.0012 28.8144 64.0287 28.7634 64.0464 28.7144L64.0562 28.685C64.0562 28.685 64.0562 28.6791 64.0562 28.6771C64.0562 28.6771 64.0562 28.6771 64.0562 28.6752C64.0562 28.6712 64.0582 28.6693 64.0582 28.6654C64.0582 28.6614 64.0601 28.6575 64.0601 28.6516C64.0641 28.6418 64.0641 28.632 64.066 28.6222L64.0719 28.6242Z" fill="url(#paint5_linear_6722_31907)"/>
</g>
<g opacity="0.8">
<path opacity="0.8" d="M13.8297 33.7661C13.918 33.8169 13.989 33.9406 13.989 34.0406L13.9791 37.3414C13.9791 37.4414 13.9063 37.4826 13.8179 37.4315C13.7295 37.3805 13.6588 37.257 13.6588 37.1571L13.6687 33.8562C13.6687 33.7563 13.7413 33.715 13.8297 33.7661Z" fill="white"/>
<path opacity="0.8" d="M14.9378 34.3882C15.0264 34.4392 15.0971 34.5627 15.0971 34.6628L15.0873 37.9635C15.0873 38.0634 15.0146 38.1047 14.9261 38.0536C14.8377 38.0028 14.767 37.8791 14.767 37.7791L14.7768 34.4785C14.7768 34.3783 14.8495 34.3371 14.9378 34.3882Z" fill="white"/>
<path opacity="0.8" d="M16.0442 35.0286C16.1326 35.0797 16.2033 35.2034 16.2033 35.3033L16.1935 38.604C16.1935 38.7041 16.1208 38.7454 16.0324 38.6943C15.9439 38.6433 15.8732 38.5198 15.8732 38.4196L15.883 35.119C15.883 35.019 15.9556 34.9778 16.0442 35.0286Z" fill="white"/>
<path opacity="0.8" d="M17.1524 35.6684C17.2407 35.7195 17.3114 35.843 17.3114 35.9429L17.3016 39.2438C17.3016 39.3437 17.229 39.3849 17.1406 39.3339C17.0522 39.2831 16.9813 39.1593 16.9813 39.0594L16.9911 35.7585C16.9911 35.6586 17.064 35.6174 17.1524 35.6684Z" fill="white"/>
<path opacity="0.8" d="M18.2585 36.306C18.3469 36.3571 18.4178 36.4806 18.4178 36.5807L18.408 39.8814C18.408 39.9815 18.3351 40.0225 18.2468 39.9717C18.1584 39.9207 18.0877 39.7972 18.0877 39.697L18.0975 36.3964C18.0975 36.2962 18.1702 36.2552 18.2585 36.306Z" fill="white"/>
<path opacity="0.8" d="M21.5793 38.2182C21.6677 38.2691 21.7383 38.3928 21.7383 38.4927L21.7285 41.7936C21.7285 41.8935 21.6559 41.9347 21.5675 41.8837C21.4791 41.8326 21.4082 41.7091 21.4082 41.6092L21.4181 38.3084C21.4181 38.2084 21.4909 38.1672 21.5793 38.2182Z" fill="white"/>
<path opacity="0.8" d="M22.6855 38.853C22.7738 38.9041 22.8447 39.0275 22.8447 39.1275L22.8349 42.4283C22.8349 42.5283 22.762 42.5695 22.6737 42.5185C22.5853 42.4676 22.5146 42.3439 22.5146 42.244L22.5244 38.9433C22.5244 38.8432 22.5971 38.8019 22.6855 38.853Z" fill="white"/>
<path opacity="0.8" d="M23.7936 39.4984C23.8822 39.5495 23.9529 39.673 23.9529 39.7731L23.9431 43.0738C23.9431 43.1739 23.8704 43.2151 23.7818 43.1641C23.6935 43.113 23.6228 42.9895 23.6228 42.8894L23.6326 39.5887C23.6326 39.4886 23.7052 39.4476 23.7936 39.4984Z" fill="white"/>
<path opacity="0.8" d="M24.9 40.1401C24.9884 40.1912 25.0591 40.3147 25.0591 40.4146L25.0492 43.7155C25.0492 43.8154 24.9766 43.8566 24.8882 43.8056C24.7996 43.7547 24.7289 43.631 24.7289 43.5311L24.7388 40.2302C24.7388 40.1303 24.8114 40.0891 24.9 40.1401Z" fill="white"/>
<path opacity="0.8" d="M30.8751 43.6058C30.9635 43.6569 31.0344 43.7804 31.0344 43.8805L31.0246 47.1812C31.0246 47.2813 30.9517 47.3226 30.8634 47.2715C30.775 47.2205 30.7043 47.097 30.7043 46.9968L30.7141 43.6962C30.7141 43.596 30.7868 43.555 30.8751 43.6058Z" fill="white"/>
</g>
<path d="M11.0657 34.5015C11.4009 34.3073 11.4 33.6822 11.0642 33.1051C10.7284 32.5283 10.1845 32.2182 9.84959 32.4124C9.51468 32.6068 9.51534 33.2319 9.85112 33.8088C10.1871 34.3856 10.7308 34.6959 11.0657 34.5015Z" fill="white"/>
<path d="M64.0601 19.8067L64.0405 25.8629C64.0405 26.0277 63.9325 26.1924 63.7163 26.318L36.8112 41.9039C36.5753 42.0412 36.2551 42.104 35.9446 42.0903L35.9485 36.0026C36.2668 36.0183 36.593 35.9554 36.8328 35.8162L63.7379 20.2283C63.8068 20.1891 63.8638 20.1459 63.9089 20.0989C63.9286 20.0812 63.9443 20.0616 63.96 20.044C63.9973 19.9969 64.0248 19.9459 64.0425 19.8969C64.0464 19.8871 64.0503 19.8773 64.0523 19.8675C64.0523 19.8655 64.0523 19.8635 64.0523 19.8616C64.0523 19.8616 64.0523 19.8596 64.0523 19.8576C64.0523 19.8537 64.0542 19.8518 64.0542 19.8478C64.0542 19.8439 64.0542 19.84 64.0562 19.8341C64.0601 19.8243 64.0601 19.8145 64.0621 19.8047L64.0601 19.8067Z" fill="#C9D7DD"/>
<path d="M64.0602 19.7748V19.8042C64.0602 19.816 64.0582 19.8258 64.0543 19.8356C64.0543 19.8415 64.0543 19.8454 64.0523 19.8493C64.0523 19.8533 64.0503 19.8552 64.0503 19.8591C64.0503 19.8591 64.0503 19.8611 64.0503 19.8631C64.0503 19.865 64.0503 19.867 64.0503 19.8689C64.0484 19.8787 64.0445 19.8886 64.0405 19.8984C64.0229 19.9493 63.9954 19.9984 63.9581 20.0455C63.9423 20.0651 63.9266 20.0827 63.907 20.1004C63.8599 20.1474 63.8029 20.1886 63.7362 20.2298L36.8309 35.8177C36.5911 35.9569 36.2649 36.0197 35.9466 36.004C35.6891 35.9923 35.4397 35.9294 35.2451 35.8177L8.17878 20.2004C8.16482 20.1926 8.15108 20.1847 8.13929 20.1769C8.11966 20.1631 8.10002 20.1514 8.08235 20.1376C8.07253 20.1298 8.06271 20.1219 8.05289 20.1141C8.03718 20.1004 8.01951 20.0866 8.00577 20.0729C7.98809 20.0533 7.97042 20.0357 7.95471 20.016C7.93704 19.9925 7.91936 19.969 7.90758 19.9454C7.89776 19.9297 7.88991 19.9121 7.88402 19.8964C7.87813 19.8866 7.87617 19.8768 7.87224 19.865C7.86046 19.8336 7.85456 19.8023 7.8526 19.7709V19.7415C7.8526 19.7415 7.8526 19.7434 7.8526 19.7454C7.8526 19.5767 7.95864 19.41 8.17682 19.2825L35.0799 3.69659C35.5163 3.44359 36.2295 3.44359 36.6677 3.69659L63.7322 19.3119C63.9522 19.4394 64.0602 19.6061 64.0602 19.7748Z" fill="white"/>
<path d="M64.0602 19.7748V19.8042C64.0602 19.816 64.0582 19.8258 64.0543 19.8356C64.0543 19.8415 64.0543 19.8454 64.0523 19.8493C64.0523 19.8533 64.0503 19.8552 64.0503 19.8591C64.0503 19.8591 64.0503 19.8611 64.0503 19.8631C64.0503 19.865 64.0503 19.867 64.0503 19.8689C64.0484 19.8787 64.0445 19.8886 64.0405 19.8984C64.0229 19.9493 63.9954 19.9984 63.9581 20.0455C63.9423 20.0651 63.9266 20.0827 63.907 20.1004C63.8599 20.1474 63.8029 20.1886 63.7362 20.2298L36.8309 35.8177C36.5911 35.9569 36.2649 36.0197 35.9466 36.004C35.6891 35.9923 35.4397 35.9294 35.2451 35.8177L8.17878 20.2004C8.16482 20.1926 8.15108 20.1847 8.13929 20.1769C8.11966 20.1631 8.10002 20.1514 8.08235 20.1376C8.07253 20.1298 8.06271 20.1219 8.05289 20.1141C8.03718 20.1004 8.01951 20.0866 8.00577 20.0729C7.98809 20.0533 7.97042 20.0357 7.95471 20.016C7.93704 19.9925 7.91936 19.969 7.90758 19.9454C7.89776 19.9297 7.88991 19.9121 7.88402 19.8964C7.87813 19.8866 7.87617 19.8768 7.87224 19.865C7.86046 19.8336 7.85456 19.8023 7.8526 19.7709V19.7415C7.8526 19.7415 7.8526 19.7434 7.8526 19.7454C7.8526 19.5767 7.95864 19.41 8.17682 19.2825L35.0799 3.69659C35.5163 3.44359 36.2295 3.44359 36.6677 3.69659L63.7322 19.3119C63.9522 19.4394 64.0602 19.6061 64.0602 19.7748Z" fill="url(#paint6_linear_6722_31907)"/>
<path d="M35.9465 36.0037L35.9426 42.0914C35.6812 42.0816 35.4238 42.0187 35.2235 41.9031L8.15695 26.2877C7.93703 26.1602 7.82684 25.9935 7.82684 25.8249L7.8467 19.7686C7.85063 19.7999 7.85652 19.8313 7.86633 19.8627C7.87026 19.8725 7.87419 19.8823 7.87812 19.8941C7.88401 19.9117 7.89186 19.9274 7.90168 19.9431C7.91543 19.9666 7.93114 19.9902 7.94881 20.0137C7.96452 20.0333 7.98219 20.051 7.99986 20.0686C8.01361 20.0843 8.02932 20.0981 8.04699 20.1118C8.05681 20.1196 8.06662 20.1275 8.07644 20.1353C8.09412 20.149 8.11375 20.1608 8.13339 20.1745C8.14517 20.1824 8.15892 20.1902 8.17288 20.1981L35.2372 35.8154C35.4316 35.9271 35.6832 35.9899 35.9387 36.0017L35.9465 36.0037Z" fill="#C9D7DD"/>
<g opacity="0.9">
<path opacity="0.9" d="M64.0719 19.8966L64.0523 25.9528C64.0523 26.1176 63.9443 26.2825 63.7281 26.408L36.823 41.9938C36.5871 42.1312 36.2668 42.1939 35.9564 42.1821C35.695 42.1723 35.4375 42.1077 35.2372 41.9938L8.16873 26.3785C7.9488 26.2511 7.83884 26.0844 7.83884 25.9158L7.85847 19.8594C7.8624 19.8907 7.86829 19.9221 7.87811 19.9535C7.88204 19.9633 7.88596 19.9731 7.88989 19.9829C7.89578 20.0006 7.90364 20.0163 7.91345 20.032C7.9272 20.0555 7.94291 20.079 7.96058 20.1026C7.97629 20.1222 7.99396 20.1398 8.01163 20.1575C8.02538 20.1732 8.04109 20.1869 8.05876 20.2006C8.06858 20.2085 8.0784 20.2163 8.08822 20.2242C8.10589 20.2379 8.12553 20.2497 8.14516 20.2634C8.15694 20.2712 8.17069 20.2791 8.18465 20.2869L35.251 35.9043C35.4454 36.016 35.6969 36.0808 35.9524 36.0926C36.2708 36.1081 36.5969 36.0455 36.8367 35.9063L63.7418 20.3183C63.8108 20.2791 63.8677 20.2359 63.9129 20.1889C63.9325 20.1712 63.9482 20.1516 63.9639 20.134C64.0012 20.0869 64.0287 20.0359 64.0464 19.9869L64.0562 19.9574C64.0562 19.9574 64.0562 19.9516 64.0562 19.9496C64.0562 19.9496 64.0562 19.9496 64.0562 19.9476C64.0562 19.9437 64.0582 19.9417 64.0582 19.9378C64.0582 19.9339 64.0601 19.93 64.0601 19.9241C64.0641 19.9143 64.0641 19.9045 64.066 19.8947L64.0719 19.8966Z" fill="url(#paint7_linear_6722_31907)"/>
</g>
<path d="M13.8297 24.9663C13.918 25.0172 13.989 25.1408 13.989 25.2408L13.9791 28.5416C13.9791 28.6416 13.9063 28.6828 13.8179 28.6318C13.7295 28.5808 13.6588 28.4572 13.6588 28.3572L13.6687 25.0565C13.6687 24.9565 13.7413 24.9153 13.8297 24.9663Z" fill="#6E17FF"/>
<path d="M14.9378 25.5903C15.0264 25.6413 15.0971 25.7648 15.0971 25.8649L15.0873 29.1656C15.0873 29.2656 15.0146 29.3068 14.9261 29.2558C14.8377 29.2048 14.767 29.0813 14.767 28.9813L14.7768 25.6805C14.7768 25.5805 14.8495 25.5393 14.9378 25.5903Z" fill="#6E17FF"/>
<path d="M17.1524 26.8686C17.2407 26.9196 17.3114 27.0432 17.3114 27.1432L17.3016 30.4439C17.3016 30.544 17.229 30.5851 17.1406 30.5342C17.0522 30.4831 16.9813 30.3596 16.9813 30.2596L16.9911 26.9588C16.9911 26.8588 17.064 26.8176 17.1524 26.8686Z" fill="#6E17FF"/>
<path d="M20.4731 28.7807C20.5614 28.8317 20.6321 28.9553 20.6321 29.0553L20.6223 32.3559C20.6223 32.4561 20.5497 32.4973 20.4613 32.4463C20.3727 32.3952 20.302 32.2717 20.302 32.1716L20.3119 28.8709C20.3119 28.7709 20.3845 28.7297 20.4731 28.7807Z" fill="#6E17FF"/>
<path d="M21.5793 29.4184C21.6677 29.4694 21.7383 29.593 21.7383 29.693L21.7285 32.9938C21.7285 33.0937 21.6559 33.1349 21.5675 33.0839C21.4791 33.033 21.4082 32.9093 21.4082 32.8094L21.4181 29.5086C21.4181 29.4086 21.4909 29.3674 21.5793 29.4184Z" fill="#6E17FF"/>
<path d="M23.7936 30.7006C23.8822 30.7516 23.9529 30.8752 23.9529 30.9752L23.9431 34.276C23.9431 34.376 23.8704 34.4172 23.7818 34.3661C23.6935 34.3151 23.6228 34.1916 23.6228 34.0917L23.6326 30.7908C23.6326 30.6908 23.7052 30.6496 23.7936 30.7006Z" fill="#6E17FF"/>
<path d="M24.9 31.3403C24.9884 31.3914 25.0591 31.5149 25.0591 31.615L25.0492 34.9157C25.0492 35.0158 24.9766 35.0568 24.8882 35.006C24.7996 34.9549 24.7289 34.8314 24.7289 34.7313L24.7388 31.4306C24.7388 31.3305 24.8114 31.2893 24.9 31.3403Z" fill="#6E17FF"/>
<path d="M29.769 34.1664C29.8573 34.2174 29.928 34.3409 29.928 34.4411L29.9182 37.7417C29.9182 37.8419 29.8455 37.8829 29.7572 37.8321C29.6688 37.781 29.5979 37.6575 29.5979 37.5574L29.6077 34.2567C29.6077 34.1566 29.6806 34.1155 29.769 34.1664Z" fill="#6E17FF"/>
<path d="M30.8751 34.8061C30.9635 34.857 31.0344 34.9807 31.0344 35.0806L31.0246 38.3815C31.0246 38.4814 30.9517 38.5226 30.8633 38.4716C30.775 38.4205 30.7043 38.297 30.7043 38.1971L30.7141 34.8962C30.7141 34.7963 30.7868 34.7551 30.8751 34.8061Z" fill="#6E17FF"/>
<path d="M11.0682 25.7047C11.4031 25.5104 11.4024 24.8853 11.0664 24.3084C10.7306 23.7315 10.1869 23.4213 9.8518 23.6156C9.51689 23.8098 9.51777 24.435 9.85355 25.0119C10.1893 25.5888 10.7333 25.899 11.0682 25.7047Z" fill="#6E17FF"/>
</g>
<defs>
<linearGradient id="paint0_linear_6722_31907" x1="9.0001" y1="58.6005" x2="64.5019" y2="25.5971" gradientUnits="userSpaceOnUse">
<stop stop-color="#49879A" stop-opacity="0.38"/>
<stop offset="0.4" stop-color="#154655" stop-opacity="0.552941"/>
<stop offset="0.7" stop-color="#154655" stop-opacity="0.73"/>
<stop offset="0.968638" stop-color="#154655" stop-opacity="0.85"/>
</linearGradient>
<linearGradient id="paint1_linear_6722_31907" x1="65.0838" y1="52.1721" x2="7.10902" y2="59.1662" gradientUnits="userSpaceOnUse">
<stop stop-color="#4C7F8E" stop-opacity="0.6"/>
<stop offset="0.11" stop-color="#4C7F8E" stop-opacity="0.55"/>
<stop offset="0.27" stop-color="#4C7F8E" stop-opacity="0.43"/>
<stop offset="0.45" stop-color="#4C7F8E" stop-opacity="0.22"/>
<stop offset="0.6" stop-color="#4C7F8E" stop-opacity="0"/>
<stop offset="1" stop-color="#4C7F8E" stop-opacity="0"/>
</linearGradient>
<linearGradient id="paint2_linear_6722_31907" x1="9.00002" y1="49.8007" x2="64.4999" y2="16.8006" gradientUnits="userSpaceOnUse">
<stop stop-color="#49879A" stop-opacity="0.38"/>
<stop offset="0.4" stop-color="#154655" stop-opacity="0.552941"/>
<stop offset="0.7" stop-color="#154655" stop-opacity="0.73"/>
<stop offset="0.968638" stop-color="#154655" stop-opacity="0.85"/>
</linearGradient>
<linearGradient id="paint3_linear_6722_31907" x1="65.0838" y1="43.2992" x2="7.10902" y2="50.293" gradientUnits="userSpaceOnUse">
<stop stop-color="#4C7F8E" stop-opacity="0.6"/>
<stop offset="0.11" stop-color="#4C7F8E" stop-opacity="0.55"/>
<stop offset="0.27" stop-color="#4C7F8E" stop-opacity="0.43"/>
<stop offset="0.45" stop-color="#4C7F8E" stop-opacity="0.22"/>
<stop offset="0.6" stop-color="#4C7F8E" stop-opacity="0"/>
<stop offset="1" stop-color="#4C7F8E" stop-opacity="0"/>
</linearGradient>
<linearGradient id="paint4_linear_6722_31907" x1="9.00002" y1="41" x2="64.5" y2="8.00001" gradientUnits="userSpaceOnUse">
<stop stop-color="#49879A" stop-opacity="0.38"/>
<stop offset="0.4" stop-color="#154655" stop-opacity="0.552941"/>
<stop offset="0.7" stop-color="#154655" stop-opacity="0.73"/>
<stop offset="0.968638" stop-color="#154655" stop-opacity="0.85"/>
</linearGradient>
<linearGradient id="paint5_linear_6722_31907" x1="65.0838" y1="34.5726" x2="7.10902" y2="41.5664" gradientUnits="userSpaceOnUse">
<stop stop-color="#4C7F8E" stop-opacity="0.6"/>
<stop offset="0.11" stop-color="#4C7F8E" stop-opacity="0.55"/>
<stop offset="0.27" stop-color="#4C7F8E" stop-opacity="0.43"/>
<stop offset="0.45" stop-color="#4C7F8E" stop-opacity="0.22"/>
<stop offset="0.6" stop-color="#4C7F8E" stop-opacity="0"/>
<stop offset="1" stop-color="#4C7F8E" stop-opacity="0"/>
</linearGradient>
<linearGradient id="paint6_linear_6722_31907" x1="1.18562" y1="39.9717" x2="71.7646" y2="-1.21498" gradientUnits="userSpaceOnUse">
<stop stop-color="#4C7F8E" stop-opacity="0"/>
<stop offset="0.4" stop-color="#4C7F8E" stop-opacity="0"/>
<stop offset="0.5" stop-color="#4C7F8E" stop-opacity="0.12"/>
<stop offset="0.7" stop-color="#4C7F8E" stop-opacity="0.33"/>
<stop offset="0.88" stop-color="#4C7F8E" stop-opacity="0.45"/>
<stop offset="1" stop-color="#4C7F8E" stop-opacity="0.5"/>
</linearGradient>
<linearGradient id="paint7_linear_6722_31907" x1="65.0838" y1="25.8451" x2="7.10902" y2="32.8389" gradientUnits="userSpaceOnUse">
<stop stop-color="#4C7F8E" stop-opacity="0.6"/>
<stop offset="0.11" stop-color="#4C7F8E" stop-opacity="0.55"/>
<stop offset="0.27" stop-color="#4C7F8E" stop-opacity="0.43"/>
<stop offset="0.45" stop-color="#4C7F8E" stop-opacity="0.22"/>
<stop offset="0.6" stop-color="#4C7F8E" stop-opacity="0"/>
<stop offset="1" stop-color="#4C7F8E" stop-opacity="0"/>
</linearGradient>
<clipPath id="clip0_6722_31907">
<rect width="72" height="72" fill="white"/>
</clipPath>
</defs>
</svg>
