<svg xmlns="http://www.w3.org/2000/svg" width="72" height="72" fill="none" viewBox="0 0 72 72"><g clip-path="url(#a)"><path fill="#95bf47" d="M59.878 13.884c-.043-.383-.383-.553-.639-.596-.255-.042-5.365-.085-5.365-.085s-4.3-4.173-4.726-4.598c-.425-.426-1.234-.298-1.575-.213 0 0-.809.255-2.172.681a14 14 0 0 0-1.021-2.512c-1.533-2.938-3.747-4.47-6.472-4.47-.17 0-.383 0-.553.042a2 2 0 0 1-.256-.298C35.907.558 34.417-.038 32.629.005c-3.492.084-6.94 2.596-9.793 7.11-2.001 3.15-3.492 7.11-3.917 10.175-4.003 1.235-6.813 2.087-6.855 2.13-2.001.638-2.087.68-2.342 2.596-.213 1.406-5.493 42.322-5.493 42.322l44.323 7.664 19.202-4.769s-7.834-53.008-7.876-53.349m-16.69-4.13c-1.022.298-2.172.681-3.45 1.065-.042-1.746-.255-4.215-1.064-6.344 2.683.51 3.96 3.491 4.514 5.28m-5.748 1.789c-2.342.723-4.854 1.49-7.409 2.299.724-2.725 2.087-5.45 3.747-7.238.639-.682 1.49-1.406 2.512-1.831.98 2 1.15 4.854 1.15 6.77m-4.77-9.198c.809 0 1.49.17 2.086.553-.936.469-1.873 1.192-2.725 2.13-2.214 2.383-3.917 6.045-4.598 9.622-2.129.638-4.172 1.277-6.088 1.873 1.277-5.62 5.96-14.008 11.325-14.178"/><path fill="#5e8e3e" d="M59.239 13.288c-.256-.043-5.365-.085-5.365-.085s-4.3-4.173-4.726-4.598a.84.84 0 0 0-.596-.256v63.653l19.202-4.769s-7.834-52.966-7.877-53.349a.76.76 0 0 0-.638-.596"/><path fill="#fff" d="m37.908 23.166-2.214 8.345s-2.47-1.15-5.45-.936c-4.343.255-4.385 2.98-4.343 3.704.256 3.747 10.049 4.556 10.602 13.284.426 6.897-3.662 11.58-9.537 11.964-7.068.426-10.943-3.704-10.943-3.704l1.49-6.344s3.918 2.938 7.026 2.767c2.044-.127 2.767-1.788 2.682-2.98-.298-4.854-8.302-4.598-8.813-12.56-.426-6.728 4.002-13.54 13.752-14.179 3.832-.34 5.748.64 5.748.64"/></g><defs><clipPath id="a"><path fill="#fff" d="M0 .002h72v72H0z"/></clipPath></defs></svg>