<svg xmlns="http://www.w3.org/2000/svg" width="72" height="72" fill="none" viewBox="0 0 72 72"><path fill="#13bbb2" d="M40.816 24.947a23.7 23.7 0 0 1 7.992 3.282l-8.264 9.82h-.003a11.24 11.24 0 0 0-13.269 2.978 11.15 11.15 0 0 0-.639 13.54l-8.267 9.82a23.73 23.73 0 0 1-.782-31.465L45.305 0l9.688 8.105z"/><path fill="#fff" d="M54.143 63.503c-7.826 9.293-21.264 11.125-31.223 4.696l8.267-9.82A11.24 11.24 0 0 0 44.455 55.4a11.15 11.15 0 0 0 .636-13.54l8.27-9.82a23.724 23.724 0 0 1 .782 31.462"/></svg>