<svg xmlns="http://www.w3.org/2000/svg" width="72" height="72" fill="none" viewBox="0 0 72 72"><g clip-path="url(#a)"><path fill="url(#b)" d="M42.373 20.952a20.92 20.92 0 0 1-6.157 14.815 21.06 21.06 0 0 1-14.864 6.137 21.06 21.06 0 0 1-14.865-6.137A20.92 20.92 0 0 1 .33 20.952 20.92 20.92 0 0 1 6.487 6.137 21.06 21.06 0 0 1 21.352 0a21.06 21.06 0 0 1 14.864 6.137 20.92 20.92 0 0 1 6.157 14.815"/><path fill="url(#c)" d="M71.67 51.04a20.9 20.9 0 0 1-1.6 8.022 21 21 0 0 1-4.56 6.8 21 21 0 0 1-6.822 4.543A21.1 21.1 0 0 1 50.641 72a21.06 21.06 0 0 1-14.87-6.139 20.92 20.92 0 0 1-6.159-14.82c0-5.559 2.216-10.89 6.16-14.82a21.06 21.06 0 0 1 14.87-6.14c2.76 0 5.495.543 8.046 1.596a21 21 0 0 1 6.823 4.543 21 21 0 0 1 4.558 6.8 20.9 20.9 0 0 1 1.6 8.02"/><path fill="#000" fill-rule="evenodd" d="M.407 22.745A21.02 21.02 0 1 0 23.968.16 38.2 38.2 0 0 0 .408 22.745" clip-rule="evenodd" opacity=".05"/><path fill="#000" fill-rule="evenodd" d="M71.615 49.536a21.026 21.026 0 1 0-22.88 22.377 38.2 38.2 0 0 0 22.88-22.377" clip-rule="evenodd" opacity=".05"/><path fill="#000" fill-rule="evenodd" d="M1.39 27.535a21.013 21.013 0 1 0 27.356-26.2 35.74 35.74 0 0 0-27.355 26.2" clip-rule="evenodd" opacity=".1"/><path fill="#000" fill-rule="evenodd" d="M70.66 44.611a21.019 21.019 0 1 0-26.861 26.254 35.74 35.74 0 0 0 26.86-26.254" clip-rule="evenodd" opacity=".1"/><path fill="#000" fill-rule="evenodd" d="M2.164 29.523A21.007 21.007 0 1 0 30.71 2.187 34.53 34.53 0 0 0 2.164 29.523" clip-rule="evenodd" opacity=".1"/><path fill="#000" fill-rule="evenodd" d="M69.885 42.583a21.013 21.013 0 0 0-39.249 1.92A21.015 21.015 0 0 0 41.773 70.05a34.53 34.53 0 0 0 28.112-27.466" clip-rule="evenodd" opacity=".1"/><path fill="url(#d)" d="M69.298 36.156a33.1 33.1 0 0 1-2.534 12.7 33.2 33.2 0 0 1-7.217 10.765 33.3 33.3 0 0 1-10.802 7.194 33.4 33.4 0 0 1-25.483 0A33.3 33.3 0 0 1 12.46 59.62a33.2 33.2 0 0 1-7.218-10.766 33.1 33.1 0 0 1 0-25.398A33.2 33.2 0 0 1 12.46 12.69a33.3 33.3 0 0 1 10.802-7.194 33.4 33.4 0 0 1 25.483 0 33.3 33.3 0 0 1 10.802 7.194 33.2 33.2 0 0 1 7.217 10.766 33.1 33.1 0 0 1 2.534 12.699"/><path fill="#fff" fill-rule="evenodd" d="M26.641 35.004a10.46 10.46 0 0 1-3.28-3.461 9.57 9.57 0 0 1-1.124-4.783 8.6 8.6 0 0 1 2.026-5.789 12.2 12.2 0 0 1 5.28-3.528 20.4 20.4 0 0 1 6.912-1.164c1.54-.014 3.079.104 4.598.353 1.088.168 2.157.444 3.19.823a6.2 6.2 0 0 1 2.496 1.594 3.22 3.22 0 0 1 .77 2.143 3.1 3.1 0 0 1-.81 2.234 2.7 2.7 0 0 1-2.038.85 3.7 3.7 0 0 1-1.515-.341 27.4 27.4 0 0 0-3.607-1.32 13 13 0 0 0-3.475-.432 7.93 7.93 0 0 0-4.354 1.114 3.62 3.62 0 0 0-1.737 3.252c-.008.85.315 1.67.902 2.287a8.2 8.2 0 0 0 2.431 1.74q1.53.758 4.56 2.011.336.105.653.262a32.4 32.4 0 0 1 5.645 2.901 11.4 11.4 0 0 1 3.475 3.567 9.4 9.4 0 0 1 1.255 4.953 9.96 9.96 0 0 1-1.737 5.971 10.33 10.33 0 0 1-4.86 3.608 20.5 20.5 0 0 1-7.306 1.19c-3.418.12-6.82-.524-9.958-1.884a5.4 5.4 0 0 1-2.05-1.594 3.6 3.6 0 0 1-.666-2.17 2.83 2.83 0 0 1 .876-2.207 3.23 3.23 0 0 1 2.258-.797 5.8 5.8 0 0 1 2.64.68 51 51 0 0 0 2.393 1.137 11.9 11.9 0 0 0 4.716.926 7.08 7.08 0 0 0 4.457-1.188 3.92 3.92 0 0 0 1.502-3.254 3.46 3.46 0 0 0-.94-2.376 10 10 0 0 0-2.77-2.016q-1.832-.965-5.15-2.352a32 32 0 0 1-5.658-2.94" clip-rule="evenodd"/></g><defs><linearGradient id="b" x1="18.073" x2="24.63" y1=".254" y2="41.65" gradientUnits="userSpaceOnUse"><stop offset=".012" stop-color="#00b7f0"/><stop offset=".339" stop-color="#009de5"/><stop offset=".755" stop-color="#0082d9"/><stop offset="1" stop-color="#0078d4"/></linearGradient><linearGradient id="c" x1="32.44" x2="68.84" y1="61.548" y2="40.533" gradientUnits="userSpaceOnUse"><stop stop-color="#0078d4"/><stop offset=".37" stop-color="#007ad5"/><stop offset=".573" stop-color="#0082d9"/><stop offset=".735" stop-color="#0090df"/><stop offset=".875" stop-color="#00a3e7"/><stop offset="1" stop-color="#00bcf2"/></linearGradient><linearGradient id="d" x1="23.01" x2="56.228" y1="13.654" y2="71.189" gradientUnits="userSpaceOnUse"><stop stop-color="#00b7f0"/><stop offset="1" stop-color="#007cc1"/></linearGradient><clipPath id="a"><path fill="#fff" d="M0 0h72v72H0z"/></clipPath></defs></svg>