<svg xmlns="http://www.w3.org/2000/svg" width="72" height="72" fill="none" viewBox="0 0 72 72"><g clip-path="url(#a)"><path fill="#ff4143" fill-rule="evenodd" d="M63.86 32.414c-5.933-.225-7.836 5.56-7.836 5.56-.112-2.415.056-3.988.056-3.988.336-.224 5.372-2.19 5.652-8.985.112-3.707-2.966-5.841-6.548-4.661-1.342 6.177-2.63 14.602-1.511 23.418-.223.675-2.238 5.616-4.42 5.616-2.967 0-3.47-6.121-3.358-10.108.67-1.46 2.07-4.942.895-6.347-.56-.73-1.68-.843-3.358-.505 0 .393-.112 3.032-.112 3.032s-1.455-2.751-5.037-2.751c-5.148 0-8.506 4.998-8.506 10.221 0 .843.056 1.572.111 2.303l.057.056-.056.056c-1.4 2.584-2.687 3.875-4.366 3.875-3.637 0-4.085-5.616-4.085-5.616 3.414-4.044 5.261-9.716 5.261-15.893 0-5.111-2.238-8.874-6.828-7.357-1.063 5.391-2.407 17.465-1.399 23.081-2.015 2.696-4.421 4.325-4.421 4.325s.392-.617.392-2.022c0-6.178-10.689-4.436-10.689-8.03 0-.956.783-2.585 3.917-2.585 2.854 0 4.365 1.517 5.093 1.517 1.735 0 1.51-2.134 1.51-2.134-.838-.618-3.637-2.19-6.659-2.134-4.812 0-6.883 2.92-6.883 5.504 0 6.74 10.968 4.38 10.968 8.424 0 2.078-1.23 3.257-4.253 3.257-2.63 0-4.532-2.134-5.652-2.134-1.96 0-1.791 2.021-1.791 2.021.504.394 3.638 2.977 7.779 2.92 3.47-.111 7.61-1.515 11.249-5.896v-.112c.727 2.64 2.35 6.009 6.156 6.009 3.581 0 5.652-4.044 5.652-4.044s1.792 4.044 5.876 4.044c2.854 0 5.093-1.404 6.996-4.773.896 3.2 2.686 4.773 5.428 4.773 3.358 0 5.261-4.044 5.597-4.83.616 1.236 2.798 4.661 7.275 4.83 7.555.28 9.625-6.514 9.738-10.053.111-3.426-1.847-9.66-7.89-9.884m-6.55-9.154s1.79-.393 1.734 1.685c-.167 4.829-2.91 6.009-2.91 6.009a59 59 0 0 1 1.176-7.694M20.879 40.108c-.224-8.986 1.231-16.68 1.231-16.68s1.79.057 1.79 4.774c0 6.963-3.021 11.906-3.021 11.906m22.273-.618c0 5.785-2.127 9.716-6.044 9.716-4.085 0-4.59-4.886-4.59-6.402 0-1.966.896-7.301 5.71-7.301 3.357 0 4.925 3.987 4.925 3.931zm25.52 3.033c-.112 2.584-1.567 7.02-6.1 6.851-4.702-.224-5.877-4.773-5.765-6.739.224-3.594 2.631-7.47 6.772-7.3 4.03.168 5.148 4.605 5.092 7.188" clip-rule="evenodd"/></g><defs><clipPath id="a"><path fill="#fff" d="M0 0h72v72H0z"/></clipPath></defs></svg>