<svg xmlns="http://www.w3.org/2000/svg" width="72" height="72" fill="none" viewBox="0 0 72 72"><g fill="#29b5e8" clip-path="url(#a)"><path d="m61.722 54.873-15.199-8.78a4.473 4.473 0 0 0-6.1 1.637 4.46 4.46 0 0 0-.577 2.666v17.159a4.448 4.448 0 0 0 8.896 0v-9.867l8.515 4.917a4.465 4.465 0 0 0 6.102-1.637 4.45 4.45 0 0 0-1.637-6.095M23.924 36.058a4.38 4.38 0 0 0-2.181-3.856L6.545 23.428a4.36 4.36 0 0 0-2.174-.582c-1.56 0-3.009.834-3.785 2.18a4.367 4.367 0 0 0 1.598 5.96l8.76 5.052-8.76 5.06a4.3 4.3 0 0 0-2.032 2.646 4.33 4.33 0 0 0 .434 3.313 4.367 4.367 0 0 0 5.959 1.598l15.198-8.773a4.39 4.39 0 0 0 2.18-3.824M9.993 17.21l15.199 8.774a4.466 4.466 0 0 0 5.357-.673 4.43 4.43 0 0 0 1.436-3.274V4.451A4.45 4.45 0 0 0 27.54 0a4.45 4.45 0 0 0-4.451 4.451v10.01l-8.631-4.982a4.465 4.465 0 1 0-4.465 7.732M44.169 36.77c0 .336-.194.802-.434 1.048l-6.023 6.024c-.24.24-.712.433-1.049.433H35.13c-.337 0-.809-.194-1.048-.433l-6.03-6.024c-.24-.246-.434-.712-.434-1.048v-1.534c0-.342.194-.808.434-1.048l6.03-6.03c.24-.24.712-.433 1.048-.433h1.533c.337 0 .81.194 1.049.433l6.023 6.03c.24.24.434.706.434 1.048zm-5.377-.738v-.064c0-.246-.142-.59-.317-.77l-1.78-1.773a1.22 1.22 0 0 0-.77-.324h-.064c-.246 0-.589.143-.77.324l-1.773 1.773a1.25 1.25 0 0 0-.317.77v.064c0 .253.143.596.317.77l1.773 1.78c.181.174.524.316.77.316h.065c.252 0 .595-.142.77-.317l1.78-1.779c.174-.175.316-.517.316-.77m7.733-10.048 15.198-8.773a4.465 4.465 0 1 0-4.464-7.732l-8.515 4.917V4.451A4.45 4.45 0 0 0 44.299 0a4.45 4.45 0 0 0-4.452 4.451v17.237a4.5 4.5 0 0 0 .576 2.666 4.465 4.465 0 0 0 6.102 1.63M28.239 45.576a4.43 4.43 0 0 0-3.047.518l-15.199 8.78a4.46 4.46 0 0 0-1.637 6.095 4.46 4.46 0 0 0 6.102 1.637l8.63-4.982v9.931a4.448 4.448 0 0 0 8.896 0V49.97a4.45 4.45 0 0 0-3.745-4.393M71.22 24.975a4.46 4.46 0 0 0-6.101-1.637L49.92 32.11a4.47 4.47 0 0 0-2.232 3.947 4.46 4.46 0 0 0 2.232 3.908l15.199 8.78a4.467 4.467 0 1 0 4.464-7.738l-8.605-4.97 8.605-4.968a4.45 4.45 0 0 0 1.637-6.095"/></g><defs><clipPath id="a"><path fill="#fff" d="M0 0h72v72H0z"/></clipPath></defs></svg>