<svg xmlns="http://www.w3.org/2000/svg" width="72" height="72" fill="none" viewBox="0 0 72 72"><path fill="#000" d="M60.27 38.676h-.459v7.915h-5.683V26.884L59.812 18v18.388c1.13-1.387 4.942-6.65 4.942-6.65h7.017l-6.653 7.04L72 46.605h-7.178zm-15.84-1.292 2.33-7.592h5.63l-6.6 16.745c-1.966 5.035-4.78 8.44-8.983 8.44-1.616 0-2.976-.417-3.69-.82l2.262-3.5c.337.04.687.053 1.037.053 1.94 0 3.395-1.884 4.337-4.119l-6.922-16.8h6.37l2.492 7.499c.484 1.427.835 4.146.835 4.146s.444-2.625.902-4.052m-17.172-.39c0-2.195-.97-3.231-2.815-3.231-.902 0-1.845.256-2.491.646V46.59h-5.684V29.953l5.563-.457-.135 2.719h.189a7.06 7.06 0 0 1 5.656-2.84c2.91 0 5.428 1.803 5.428 6.07v11.146h-5.71zM0 45.73l.512-3.877c1.778.875 3.784 1.292 5.468 1.292 1.225 0 2.033-.417 2.033-1.158 0-2.126-7.663-1.615-7.663-7.174 0-3.554 3.26-5.425 7.34-5.425 2.034 0 4.135.552 5.495 1.036l-.552 3.81c-1.428-.552-3.367-1.064-4.983-1.064-.997 0-1.805.35-1.805.997 0 2.1 7.825 1.682 7.825 7.107 0 3.608-3.205 5.68-7.596 5.68-2.424 0-4.39-.417-6.074-1.224"/></svg>