<svg xmlns="http://www.w3.org/2000/svg" width="72" height="72" fill="none" viewBox="0 0 72 72"><g fill="#fff" clip-path="url(#clip0_26628_13455)"><path d="M70.13 36C70.13 17.15 54.85 1.87 36 1.87S1.87 17.15 1.87 36 17.15 70.13 36 70.13 70.13 54.85 70.13 36M72 36c0 19.882-16.118 36-36 36S0 55.882 0 36 16.118 0 36 0s36 16.118 36 36"/><path d="M39.343 54.283v-2.495c0-2.081 1.115-3.919 2.27-5.347 1.17-1.449 2.629-2.768 3.642-3.736l.48-.485c2.337-2.474 3.587-5.71 3.587-9.556 0-7.41-5.892-13.327-13.327-13.327h-.006a13.285 13.285 0 0 0-13.322 13.322v.005c0 3.951 1.494 7.612 4.059 10.034 1.011.955 2.47 2.264 3.644 3.718 1.158 1.433 2.274 3.277 2.274 5.372v2.495a1.64 1.64 0 1 1-3.278 0v-2.495c0-.95-.53-2.056-1.544-3.312-1-1.236-2.244-2.352-3.347-3.394-3.09-2.916-4.858-7.108-5.066-11.53l-.022-.888a16.566 16.566 0 0 1 16.611-16.607l-.002.002c9.25 0 16.605 7.388 16.605 16.605 0 4.917-1.732 9.21-5.08 12.41-1.114 1.066-2.358 2.189-3.358 3.427-1.017 1.259-1.541 2.354-1.541 3.287v2.495a1.64 1.64 0 1 1-3.279 0"/></g><defs><clipPath id="clip0_26628_13455"><path fill="#fff" d="M0 0h72v72H0z"/></clipPath></defs></svg>