<svg xmlns="http://www.w3.org/2000/svg" width="72" height="72" fill="none" viewBox="0 0 72 72"><g clip-path="url(#a)"><path fill="#fff" d="M60.757 37.745c-.775 5.313-3.136 8.483-6.477 8.695-2.114.137-4.322-.918-5.864-2.59 2.47-1.572 4.55-3.592 6.11-5.93 1.56-2.34 2.567-4.947 2.955-7.656a164 164 0 0 1-20.347 4.211 165 165 0 0 1-20.777 1.806c1.617 3.034 4.07 5.641 7.12 7.573-3.94 4.056-8.079 10.588-8.079 20.146h5.633c0-7.33 2.873-12.499 5.858-15.896A135 135 0 0 0 25.303 64h10.001s-1.835-6.864 1.152-6.87c2.986.005 1.152 6.87 1.152 6.87h10a132 132 0 0 0-1.454-15.022 13.8 13.8 0 0 0 3.701 1.91 12.7 12.7 0 0 0 4.82.64 11.7 11.7 0 0 0 4.225-1.101 10.6 10.6 0 0 0 3.388-2.535c2.104-2.275 3.467-5.464 4.053-9.48z"/><path fill="url(#b)" d="M37.426 36.138c19.867-2.925 35.332-8.85 34.545-13.233-.788-4.383-17.531-5.565-37.397-2.64C14.707 23.191-.758 29.118.03 33.5c.788 4.384 17.531 5.565 37.397 2.64"/><path fill="#fff" d="M55.515 19.25c-2.266-4.256-6.148-7.632-10.937-9.51-4.79-1.877-10.164-2.132-15.143-.718s-9.23 4.405-11.975 8.422-3.801 8.797-2.975 13.46c1.048 5.868 44-.132 42.902-6.278a18.3 18.3 0 0 0-1.872-5.376"/></g><defs><linearGradient id="b" x1=".001" x2="71.999" y1="28.202" y2="28.202" gradientUnits="userSpaceOnUse"><stop offset=".082" stop-color="#82ffe8"/><stop offset=".951" stop-color="#7c47fc"/></linearGradient><clipPath id="a"><path fill="#fff" d="M0 0h72v72H0z"/></clipPath></defs></svg>