<svg xmlns="http://www.w3.org/2000/svg" width="72" height="72" fill="none" viewBox="0 0 72 72"><path fill="#3ed0da" fill-rule="evenodd" d="M47.368 18.043c.688-1.499 1.668-3.26 2.943-4.837 1.617-1.999 3.875-3.744 7.033-4.11 7.097-.822 10.438 3.937 11.653 5.852.938 1.354 1.6 2.21 2.454 2.451.324.075.524.372.549.693v1.955c0 .396-.3.693-.674.742-1.572.149-5.166.916-5.166 4.726 0 1.633.5 2.945 1.098 4.454l.034.09c.766 2.007 1.638 4.294 1.638 7.878 0 10.713-9.928 15.986-30.335 16.13a123 123 0 0 0-1.959 5.273c6.739-2.227 11.356 1.113 11.58 1.287L46.67 62.68c-.2-.148-4.842-3.414-11.555.1-.2.123-.4.172-.624.172-.3 0-.599-.099-.824-.296a1.285 1.285 0 0 1-.41-1.406l.029-.087c.205-.645 1.09-3.423 2.509-7.07-10.814.251-19.393 2.565-24.813 4.504-5.656 2.008-8.965 4.04-9.541 4.395l-.017.01L0 60.849c1.255-.805 14.771-9.144 36.835-9.349a104 104 0 0 1 2.347-5.25c.075-.148.143-.29.212-.432s.137-.285.212-.433h-.25c-7.099.324-15.71.744-25.06 3.947q-1.715.72-3.465 1.372l-.035-.052-.539.225-1.023-2.375a63 63 0 0 1 4.414-1.688c20.43-8.665 30.938-22.375 33.72-28.771m10.28-6.368c5.495-.637 7.952 2.876 9.186 4.66.599.866 1.198 1.708 1.947 2.4-.275.1-.55.199-.849.322-2.795 1.188-4.342 3.49-4.342 6.483 0 2.118.617 3.696 1.263 5.345l.01.024c.748 1.906 1.497 3.86 1.497 7.028 0 3.289 0 13.1-26.7 13.544a95 95 0 0 1 1.893-4.166c.35-.718.699-1.436 1.048-2.104 7.537-.42 13.402-1.36 16.122-6.804.874-1.757.799-3.91-.2-5.493-.923-1.46-2.47-2.252-4.392-2.252-4.318 0-8.735 4.058-13.152 12.075-.574.025-1.148.05-1.747.074-4.319.193-9.173.418-14.425 1.262 4.694-2.762 9.018-5.92 12.828-9.403 5.128-4.672 9.4-10.022 11.63-14.52.812-1.637 1.732-3.643 3.089-5.32 1.338-1.655 3.028-2.893 5.294-3.155m-3.492 21.56c-3.02 0-6.514 3.267-10.058 9.304 6.49-.495 10.432-1.51 12.304-5.27.474-.94.45-2.178-.075-2.994-.424-.669-1.148-1.04-2.171-1.04" clip-rule="evenodd"/></svg>