<svg width="600" height="600" viewBox="0 0 600 600" fill="none" xmlns="http://www.w3.org/2000/svg">
<path d="M0 208C0 109.948 0 60.9218 30.4609 30.4609C60.9218 0 109.948 0 208 0H392C490.052 0 539.078 0 569.539 30.4609C600 60.9218 600 109.948 600 208V392C600 490.052 600 539.078 569.539 569.539C539.078 600 490.052 600 392 600H208C109.948 600 60.9218 600 30.4609 569.539C0 539.078 0 490.052 0 392V208Z" fill="#4945FF"/>
<path fill-rule="evenodd" clip-rule="evenodd" d="M414 182H212V285H315V388H418V186C418 183.791 416.209 182 414 182Z" fill="white"/>
<rect x="311" y="285" width="4" height="4" fill="white"/>
<path d="M212 285H311C313.209 285 315 286.791 315 289V388H216C213.791 388 212 386.209 212 384V285Z" fill="#9593FF"/>
<path d="M315 388H418L318.414 487.586C317.154 488.846 315 487.953 315 486.172V388Z" fill="#9593FF"/>
<path d="M212 285H113.828C112.046 285 111.154 282.846 112.414 281.586L212 182V285Z" fill="#9593FF"/>
</svg>
