<svg width="72" height="72" viewBox="0 0 72 72" fill="none" xmlns="http://www.w3.org/2000/svg">
<g clip-path="url(#clip0_16966_12053)">
<path d="M34.0303 48.4819H37.9706V37.7356H47.881V33.9147H37.9706V23.1685H34.0303V33.9147H24.2393V37.7356H34.0303V48.4819Z" fill="#E8762D"/>
<path d="M15.7616 64.0044H19.1049V54.4521H27.9407V51.4671H19.1049V41.7954H15.7616V51.4671H6.92578V54.4521H15.7616V64.0044Z" fill="#C72037"/>
<path d="M52.8954 29.4968H56.2387V19.9445H65.1939V17.0789H56.2387V7.40723H52.8954V17.0789H44.0596V19.9445H52.8954V29.4968Z" fill="#5B879B"/>
<path d="M34.6264 71.5266H37.4921V64.7207H43.5816V62.2132H37.4921V55.4072H34.6264V62.2132H28.6562V64.7207H34.6264V71.5266Z" fill="#5C6692"/>
<path d="M15.881 29.4968H18.9855V19.8251H27.9407V17.0789H18.9855V7.40723H15.881V17.0789H6.92578V19.8251H15.881V29.4968Z" fill="#EB9129"/>
<path d="M63.0444 43.8252H65.91V37.1386H71.9996V34.5118H65.91V27.8252H63.0444V34.5118H57.0742V37.1386H63.0444V43.8252Z" fill="#5C6692"/>
<path fill-rule="evenodd" clip-rule="evenodd" d="M52.8954 64.0044H56.2387V54.4521H65.1939V51.4671H56.2387V41.7954H52.8954V51.4671H44.0596V54.4521H52.8954V64.0044Z" fill="#1F457E"/>
<path d="M43.1045 9.07895V7.0491H37.1343V0.481934H34.9851V7.0491H29.0149V9.07895H34.9851V15.6461H37.1343V9.07895H43.1045ZM5.97015 43.3476H8.1194V36.7804H14.0896V34.7506H8.1194V28.3028H5.97015V34.7506H0V36.8998L5.97015 36.7804V43.3476Z" fill="#7199A6"/>
</g>
<defs>
<clipPath id="clip0_16966_12053">
<rect width="72" height="72" fill="white" transform="translate(0 0.00195312)"/>
</clipPath>
</defs>
</svg>
