<svg xmlns="http://www.w3.org/2000/svg" width="72" height="72" fill="none" viewBox="0 0 72 72"><g clip-path="url(#a)"><path fill="#e8762d" d="M34.03 48.482h3.94V37.736h9.911v-3.821h-9.91V23.169h-3.94v10.746h-9.792v3.82h9.791z"/><path fill="#c72037" d="M15.762 64.004h3.343v-9.552h8.836v-2.985h-8.836v-9.672h-3.343v9.672H6.926v2.985h8.836z"/><path fill="#5b879b" d="M52.895 29.497h3.344v-9.552h8.955v-2.866h-8.955V7.407h-3.344v9.672H44.06v2.866h8.835z"/><path fill="#5c6692" d="M34.626 71.527h2.866V64.72h6.09v-2.508h-6.09v-6.806h-2.866v6.806h-5.97v2.508h5.97z"/><path fill="#eb9129" d="M15.881 29.497h3.104v-9.672h8.956V17.08h-8.955V7.407H15.88v9.672H6.926v2.746h8.955z"/><path fill="#5c6692" d="M63.044 43.825h2.866V37.14H72v-2.627h-6.09v-6.687h-2.866v6.687h-5.97v2.627h5.97z"/><path fill="#1f457e" fill-rule="evenodd" d="M52.895 64.004h3.344v-9.552h8.955v-2.985h-8.955v-9.672h-3.344v9.672H44.06v2.985h8.835z" clip-rule="evenodd"/><path fill="#7199a6" d="M43.105 9.079v-2.03h-5.97V.482h-2.15v6.567h-5.97v2.03h5.97v6.567h2.15V9.08zM5.97 43.348h2.15V36.78h5.97v-2.03H8.12v-6.447H5.97v6.448H0V36.9l5.97-.12z"/></g><defs><clipPath id="a"><path fill="#fff" d="M0 .002h72v72H0z"/></clipPath></defs></svg>