<svg xmlns="http://www.w3.org/2000/svg" width="72" height="72" fill="none" viewBox="0 0 72 72"><path fill="#ff2210" d="M35.203.617a2.19 2.19 0 0 1 1.884.122l29.79 16.673A2.19 2.19 0 0 1 68 19.324v33.338c0 .793-.43 1.525-1.123 1.912l-29.79 16.668a2.19 2.19 0 0 1-2.138.003l-14.612-8.167a2 2 0 0 1-.304-.136l-14.91-8.335A2.19 2.19 0 0 1 4 52.695V19.321c0-.792.429-1.524 1.12-1.912l14.742-8.266.26-.124q.064-.024.13-.044L34.945.739zM25.62 61.008l10.397 5.811 27.599-15.443V39.73zm-2.34-3.71 38.03-21.3-38.176-21.235zM8.382 20.6v30.81L18.9 57.29l-.146-42.505zm17.112-9.54 38.123 21.203V20.607L36.019 5.16z"/></svg>