<svg xmlns="http://www.w3.org/2000/svg" xml:space="preserve" viewBox="0 0 1200 1200"><path d="M651.14 517.35C642.02 449.03 618.94 392 583.49 392s-58.53 57.03-67.65 125.35c-68.32 9.12-125.35 32.2-125.35 67.65s57.04 58.53 125.35 67.65c9.12 68.31 32.2 125.35 67.65 125.35s58.53-57.04 67.65-125.35c68.32-9.12 125.35-32.2 125.35-67.65s-57.04-58.53-125.35-67.65m-137.53 115.4c-65.43-9.45-103.59-31.08-103.59-47.75s38.16-38.3 103.59-47.75a527 527 0 0 0-2.19 47.75c0 15.92.75 32.01 2.19 47.75m69.88-221.22c16.67 0 38.3 38.16 47.75 103.59-15.74-1.44-31.83-2.19-47.75-2.19s-32.01.75-47.75 2.19c9.45-65.43 31.08-103.59 47.75-103.59m69.88 221.22c-3.22.47-16.43 2.02-19.77 2.35-.33 3.35-1.89 16.55-2.35 19.77-9.45 65.43-31.08 103.59-47.75 103.59s-38.3-38.16-47.75-103.59c-.46-3.22-2.02-16.43-2.35-19.77-1.52-15.51-2.44-32.17-2.44-50.1s.92-34.59 2.44-50.11c15.51-1.52 32.17-2.44 50.1-2.44s34.59.92 50.1 2.44c3.35.33 16.55 1.89 19.77 2.35 65.43 9.45 103.6 31.09 103.6 47.75s-38.17 38.31-103.6 47.76" style="fill:#f2f2f2"/></svg>