<svg xmlns="http://www.w3.org/2000/svg" width="72" height="72" fill="none" viewBox="0 0 72 72"><path fill="#4b0079" d="m41.376 23.788-10.754 20.69h-6.835l.73-15.494H0v4.282h6.015L5.286 48.85h6.288l.64-15.493h6.015L17.134 48.76H36.82l3.283-7.017h4.921l-.457 7.11h6.652l.134-7.292h7.798v7.199h5.103v-7.2H72v-5.193h-7.747v-7.474H59.15v7.474h-7.703l.228-12.578zm4.102 5.65v7.018l-3.373-.09z"/><path fill="#94008a" stroke="#000" stroke-width=".5" d="m5.658 25.835-2.481 2.48-2.481-2.48 2.48-2.481zm17.007 0-2.481 2.48-2.482-2.48 2.482-2.481zm5.669 0-2.482 2.48-2.48-2.48 2.48-2.481zm5.669 0-2.482 2.48-2.48-2.48 2.48-2.481zm5.668 0-2.48 2.48-2.482-2.48 2.481-2.481zm-22.675 0-2.481 2.48-2.481-2.48 2.48-2.481zm-5.669 0-2.481 2.48-2.481-2.48 2.48-2.481z"/></svg>