<svg xmlns="http://www.w3.org/2000/svg" width="72" height="72" fill="none" viewBox="0 0 72 72"><path fill="#fff" d="m41.376 23.788-10.754 20.69h-6.835l.73-15.494H0v4.282h6.015L5.286 48.85h6.288l.64-15.493h6.015L17.134 48.76H36.82l3.283-7.017h4.921l-.457 7.11h6.652l.134-7.292h7.798v7.199h5.103v-7.2H72v-5.193h-7.747v-7.474H59.15v7.474h-7.703l.228-12.578zm4.102 5.65v7.018l-3.373-.09z"/><path fill="#fff" d="M6.011 25.834 3.177 23 .342 25.834l2.835 2.835zm17.007 0L20.184 23l-2.835 2.834 2.835 2.835zm5.669 0L25.852 23l-2.834 2.834 2.834 2.835z"/><path fill="#fff" d="M34.356 25.834 31.52 23l-2.834 2.834 2.834 2.835z"/><path fill="#fff" d="M40.025 25.834 37.19 23l-2.834 2.834 2.834 2.835zm-22.675 0L14.514 23l-2.835 2.834 2.835 2.835z"/><path fill="#fff" d="M11.68 25.834 8.846 23 6.01 25.834l2.835 2.835z"/></svg>