<svg xmlns="http://www.w3.org/2000/svg" width="72" height="72" fill="none" viewBox="0 0 72 72"><g clip-path="url(#a)"><path fill="#f22f46" d="M27 51.925a6.923 6.923 0 1 0 0-13.846 6.923 6.923 0 0 0 0 13.846m0-18a6.923 6.923 0 1 0 0-13.846 6.923 6.923 0 0 0 0 13.846m18 18a6.923 6.923 0 1 0 0-13.846 6.923 6.923 0 0 0 0 13.846m0-18a6.923 6.923 0 1 0 0-13.846 6.923 6.923 0 0 0 0 13.846M36 .002c19.5 0 36 16.5 36 36s-16.5 36-36 36-36-16.5-36-36 16.5-36 36-36m0 9.692c-14.488 0-26.308 11.41-26.308 25.825S21.512 62.309 36 62.309s26.308-12.376 26.308-26.79S50.488 9.694 36 9.694"/></g><defs><clipPath id="a"><path fill="#fff" d="M0 .002h72v72H0z"/></clipPath></defs></svg>