<svg width="72" height="72" viewBox="0 0 72 72" fill="none" xmlns="http://www.w3.org/2000/svg">
<path d="M61.3317 4.00098L43.7013 34.5469C40.8402 39.5027 40.8402 45.6084 43.7013 50.5642L48.3006 58.5327L70.557 19.9826C74.657 12.8786 69.5319 4.00098 61.3317 4.00098Z" fill="#1996FF"/>
<path d="M50.5827 11.9784L55.182 4.00098H10.6692C2.46904 4.00098 -2.65608 12.8786 1.44401 19.9826H36.7137C42.436 19.9826 47.7216 16.9253 50.5827 11.9695V11.9784Z" fill="#43C462"/>
<path d="M45.2262 63.854L27.5958 33.308C24.7346 28.3522 19.4491 25.2949 13.7268 25.2949H4.51941L26.7758 63.845C30.8759 70.949 41.1261 70.949 45.2262 63.845V63.854Z" fill="#1951C4"/>
</svg>
