<svg xmlns="http://www.w3.org/2000/svg" width="72" height="72" fill="none" viewBox="0 0 72 72"><g clip-path="url(#a)"><path fill="#008ffb" fill-rule="evenodd" d="M2.536 15.002c2.522.025 10.472.648 17.228 7.183 4.53 4.368 7.601 8.013 9.837 10.677 3.242 3.858 4.638 5.436 6.378 5.436s3.115-1.578 6.38-5.436c2.234-2.664 5.306-6.285 9.837-10.677 6.895-6.672 15.014-7.183 17.357-7.183h2.448v4.647h-2.583c-2.03.02-8.39.528-13.807 5.817-4.36 4.221-7.216 7.61-9.514 10.337-3.76 4.454-6.015 7.14-10.097 7.14-4.08 0-6.335-2.686-10.095-7.14-2.298-2.727-5.155-6.116-9.514-10.337-4.168-4.029-8.916-5.263-11.6-5.647v37.083H0v-41.9zm69.465 25.98v15.921H55.526v-4.158H67.21V40.981z" clip-rule="evenodd"/></g><defs><clipPath id="a"><path fill="#fff" d="M.001.002h72v72h-72z"/></clipPath></defs></svg>