<svg xmlns="http://www.w3.org/2000/svg" width="72" height="72" fill="none" viewBox="0 0 72 72"><path fill="#1996ff" d="m61.332 4.001-17.63 30.546a16.02 16.02 0 0 0 0 16.017l4.599 7.969 22.256-38.55C74.657 12.879 69.532 4 61.332 4"/><path fill="#43c462" d="m50.583 11.978 4.599-7.977H10.669c-8.2 0-13.325 8.878-9.225 15.982h35.27a16.02 16.02 0 0 0 13.869-8.014z"/><path fill="#1951c4" d="m45.226 63.854-17.63-30.546a16.02 16.02 0 0 0-13.87-8.013H4.52l22.257 38.55c4.1 7.104 14.35 7.104 18.45 0z"/></svg>