<svg xmlns="http://www.w3.org/2000/svg" width="72" height="72" fill="none" viewBox="0 0 72 72"><g fill="#fff" fill-rule="evenodd" clip-path="url(#a)" clip-rule="evenodd"><path d="M15.673 27.09a7.5 7.5 0 0 1-1.31 4.254 7.8 7.8 0 0 1-3.508 2.827 8 8 0 0 1-4.527.447 7.9 7.9 0 0 1-4.018-2.084 7.6 7.6 0 0 1-2.155-3.912A7.5 7.5 0 0 1 .59 24.2a7.7 7.7 0 0 1 2.879-3.44 7.97 7.97 0 0 1 4.35-1.3 8 8 0 0 1 3.007.566c.955.38 1.822.942 2.553 1.651s1.31 1.554 1.704 2.484c.395.93.597 1.927.594 2.933M29.538 16.79a6.65 6.65 0 0 1-1.168 3.758 6.9 6.9 0 0 1-3.11 2.493 7.1 7.1 0 0 1-4.004.385 7 7 0 0 1-3.549-1.85 6.7 6.7 0 0 1-1.898-3.464 6.6 6.6 0 0 1 .393-3.91 6.8 6.8 0 0 1 2.55-3.037 7.05 7.05 0 0 1 3.85-1.142 7.1 7.1 0 0 1 2.657.51 6.9 6.9 0 0 1 2.252 1.465 6.8 6.8 0 0 1 1.503 2.198c.348.822.526 1.704.524 2.593m-.312 20.644a6.95 6.95 0 0 1-1.22 3.927 7.2 7.2 0 0 1-3.25 2.603 7.4 7.4 0 0 1-4.182.402 7.3 7.3 0 0 1-3.707-1.934 7 7 0 0 1-1.98-3.619 6.9 6.9 0 0 1 .411-4.084 7.1 7.1 0 0 1 2.666-3.172 7.39 7.39 0 0 1 6.792-.653 7.3 7.3 0 0 1 2.35 1.532 7.1 7.1 0 0 1 1.569 2.293 6.9 6.9 0 0 1 .55 2.705m11.873-10.56a6.06 6.06 0 0 1-1.064 3.424 6.3 6.3 0 0 1-2.833 2.27 6.45 6.45 0 0 1-3.647.35 6.36 6.36 0 0 1-3.232-1.686 6.1 6.1 0 0 1-1.728-3.155 6.03 6.03 0 0 1 .36-3.561 6.2 6.2 0 0 1 2.324-2.766 6.45 6.45 0 0 1 5.923-.57 6.3 6.3 0 0 1 2.049 1.336 6.2 6.2 0 0 1 1.368 2c.317.747.48 1.549.48 2.358m.662 20.216a6.36 6.36 0 0 1-1.116 3.592 6.6 6.6 0 0 1-2.971 2.381 6.77 6.77 0 0 1-3.827.368 6.67 6.67 0 0 1-3.39-1.77 6.4 6.4 0 0 1-1.813-3.31 6.3 6.3 0 0 1 .377-3.736 6.5 6.5 0 0 1 2.439-2.901 6.74 6.74 0 0 1 3.68-1.09 6.8 6.8 0 0 1 2.535.49 6.6 6.6 0 0 1 2.15 1.401 6.5 6.5 0 0 1 1.435 2.1c.332.784.503 1.625.502 2.475M51.69 36.14a5.5 5.5 0 0 1-.966 3.113 5.7 5.7 0 0 1-2.575 2.064 5.87 5.87 0 0 1-3.317.32 5.8 5.8 0 0 1-2.939-1.533 5.57 5.57 0 0 1-1.57-2.87 5.5 5.5 0 0 1 .326-3.237 5.63 5.63 0 0 1 2.114-2.515 5.84 5.84 0 0 1 3.188-.944c3.178.042 5.74 2.544 5.74 5.601m1.593 19.871a5.8 5.8 0 0 1-.432 2.278 5.9 5.9 0 0 1-1.3 1.94 6 6 0 0 1-1.966 1.299 6.15 6.15 0 0 1-4.655 0 6 6 0 0 1-1.966-1.299 5.9 5.9 0 0 1-1.3-1.94 5.8 5.8 0 0 1-.432-2.279c0-3.233 2.693-5.904 6.003-5.904a6.2 6.2 0 0 1 2.317.444c.735.296 1.403.73 1.965 1.28a5.9 5.9 0 0 1 1.31 1.918c.304.717.458 1.486.456 2.262m7.237-10.601a4.9 4.9 0 0 1-.86 2.78 5.1 5.1 0 0 1-2.296 1.844c-.936.38-1.966.48-2.96.287a5.16 5.16 0 0 1-2.624-1.367 4.96 4.96 0 0 1-1.403-2.56 4.9 4.9 0 0 1 .29-2.89 5.03 5.03 0 0 1 1.888-2.244 5.2 5.2 0 0 1 2.846-.843 5.2 5.2 0 0 1 3.617 1.463 4.94 4.94 0 0 1 1.502 3.53m-1.147-17.8c0 .819-.248 1.619-.714 2.299a4.2 4.2 0 0 1-1.902 1.524 4.33 4.33 0 0 1-2.449.235 4.27 4.27 0 0 1-2.17-1.132 4.1 4.1 0 0 1-1.16-2.119 4.05 4.05 0 0 1 .242-2.39 4.16 4.16 0 0 1 1.56-1.857 4.3 4.3 0 0 1 2.355-.697c2.34.042 4.238 1.853 4.238 4.137m7.239 8.617a4.07 4.07 0 0 1-.715 2.3 4.2 4.2 0 0 1-1.901 1.523 4.33 4.33 0 0 1-2.45.235 4.27 4.27 0 0 1-2.169-1.132 4.1 4.1 0 0 1-1.16-2.118 4.04 4.04 0 0 1 .241-2.391 4.16 4.16 0 0 1 1.561-1.857 4.3 4.3 0 0 1 2.355-.697 4.3 4.3 0 0 1 2.996 1.212 4.1 4.1 0 0 1 1.242 2.925m-.394-15.643c0 .699-.213 1.382-.61 1.963a3.6 3.6 0 0 1-1.625 1.302 3.7 3.7 0 0 1-2.091.2 3.65 3.65 0 0 1-1.853-.966 3.5 3.5 0 0 1-.99-1.81 3.46 3.46 0 0 1 .205-2.042 3.56 3.56 0 0 1 1.333-1.586 3.7 3.7 0 0 1 2.011-.595 3.68 3.68 0 0 1 2.555 1.04 3.5 3.5 0 0 1 1.065 2.494m5.782 7.93c0 .698-.212 1.382-.61 1.963a3.6 3.6 0 0 1-1.624 1.301 3.7 3.7 0 0 1-2.092.201 3.65 3.65 0 0 1-1.853-.967 3.5 3.5 0 0 1-.99-1.81 3.46 3.46 0 0 1 .205-2.04 3.55 3.55 0 0 1 1.333-1.587 3.7 3.7 0 0 1 2.011-.596 3.68 3.68 0 0 1 2.555 1.04 3.5 3.5 0 0 1 1.065 2.495"/></g><defs><clipPath id="a"><path fill="#fff" d="M.001.002h72v72h-72z"/></clipPath></defs></svg>