<svg xmlns="http://www.w3.org/2000/svg" width="72" height="72" fill="none" viewBox="0 0 72 72"><path fill="#5e2df5" fill-rule="evenodd" d="m26.302 3.436 22.721 41.355c1.916 3.488 2.183 7.752.72 11.486l-5.857 14.944c-.254.65-.947.952-1.548.678a1.2 1.2 0 0 1-.56-.531L4.203 1.92c-.33-.609-.14-1.39.423-1.746C4.806.06 5.012 0 5.222 0h15.493c2.293 0 4.417 1.306 5.587 3.436M61.561.023c6.987 0 6.987 6.918 5.822 10.692l-.405 1.21q-1.51 4.26-6.515 16.073c-.1.236-.264.434-.47.566-.5.32-1.128.198-1.495-.258l-.125-.187L43.99 1.95a1.36 1.36 0 0 1-.165-.652c0-.705.528-1.276 1.18-1.276z" clip-rule="evenodd"/></svg>