<svg xmlns="http://www.w3.org/2000/svg" width="72" height="72" fill="none" viewBox="0 0 72 72"><path fill="#ff4b19" d="m69.362 22.448-50.72 45.1a36.1 36.1 0 0 1-8.67-6.676L63.743 13.06a36 36 0 0 1 5.619 9.39"/><path fill="#00d2ff" d="M70.584 46.03A36 36 0 0 0 72 36c0-1.79-.13-3.551-.383-5.273L30.978 66.864l4.566 5.135a36.4 36.4 0 0 0 6.38-.482z"/><path fill="#00d2ff" d="M29.75 71.46V.542A36.4 36.4 0 0 1 40.5.28v71.443a36.4 36.4 0 0 1-10.75-.263"/><path fill="#32324b" d="M.881 43.953 48.005 2.051a36 36 0 0 1 10.022 5.473L5.141 54.551A35.8 35.8 0 0 1 .88 43.953"/><path fill="#ff4b19" d="M10 60.9V11.1a36.1 36.1 0 0 1 10.75-7.72V65h-6.085A36 36 0 0 1 10 60.9"/></svg>