<svg width="72" height="72" viewBox="0 0 72 72" fill="none" xmlns="http://www.w3.org/2000/svg">
<path d="M69.3616 22.4482L18.6423 67.548C15.4185 65.7704 12.4964 63.5131 9.9722 60.8722L63.7435 13.0586C66.0647 15.8624 67.9691 19.0239 69.3616 22.4482Z" fill="#FF4B19"/>
<path d="M70.5842 46.0307C71.506 42.847 72 39.4815 72 36.0007C72 34.2094 71.8692 32.4487 71.6165 30.7275L30.9784 66.8631L35.5441 71.9978C35.6959 71.9997 35.8478 72.0007 36 72.0007C38.0177 72.0007 39.9966 71.8347 41.9239 71.5156L70.5842 46.0307Z" fill="#00D2FF"/>
<path d="M29.75 71.4604V0.541578C31.7799 0.186252 33.8683 0.000976562 36 0.000976562C37.524 0.000976562 39.0258 0.0956716 40.5 0.279499V71.7225C39.0258 71.9063 37.524 72.001 36 72.001C33.8683 72.001 31.7799 71.8157 29.75 71.4604Z" fill="#00D2FF"/>
<path d="M0.881287 43.9532L48.0048 2.05078C51.6512 3.34017 55.0278 5.20036 58.0273 7.52398L5.14092 54.5508C3.19161 51.315 1.73686 47.7476 0.881287 43.9532Z" fill="#32324B"/>
<path d="M10 60.9006V11.1008C13.058 7.90852 16.6982 5.27835 20.75 3.38086V65.0003H14.6647C12.9937 63.7688 11.4329 62.3964 10 60.9006Z" fill="#FF4B19"/>
</svg>
