<svg xmlns="http://www.w3.org/2000/svg" width="72" height="72" fill="none" viewBox="0 0 72 72"><g clip-path="url(#clip0_25886_40639)"><path fill="#000" fill-rule="evenodd" d="M71.342 15.011h-.686a6.53 6.53 0 0 0-6.541 6.53v14.605c0 2.917-2.41 5.28-5.28 5.28a5.47 5.47 0 0 1-4.415-2.299L39.503 17.824A6.6 6.6 0 0 0 34.073 15c-3.4 0-6.46 2.891-6.46 6.46v14.69c0 2.916-2.391 5.278-5.28 5.278a5.47 5.47 0 0 1-4.418-2.298L1.224 15.292C.847 14.756 0 15.02 0 15.679v12.737c0 .644.197 1.268.566 1.797L16.99 53.67c.97 1.387 2.402 2.416 4.053 2.79 4.131.94 7.934-2.241 7.934-6.294v-14.68a5.28 5.28 0 0 1 5.278-5.28h.009c1.758 0 3.406.858 4.415 2.298l14.917 21.301c1.24 1.772 3.15 2.824 5.428 2.824 3.476 0 6.454-2.894 6.454-6.46V35.483a5.28 5.28 0 0 1 5.28-5.28h.582a.66.66 0 0 0 .66-.66V15.669a.66.66 0 0 0-.66-.66z" clip-rule="evenodd"/></g><defs><clipPath id="clip0_25886_40639"><path fill="#fff" d="M0 0h72v72H0z"/></clipPath></defs></svg>