<svg width="72" height="72" viewBox="0 0 72 72" fill="none" xmlns="http://www.w3.org/2000/svg">
<g opacity="0.2">
<path opacity="0.2" d="M66.5292 29.653L66.4302 64.5298C66.4302 65.041 66.0684 65.248 65.622 64.9906L48.063 54.853L37.0002 48.4504L18.4206 37.7404C17.976 37.483 17.6178 36.862 17.6178 36.3508L17.7168 1.47401C17.7168 0.962812 18.0786 0.757611 18.5232 1.01321L65.7246 28.2616C66.1692 28.519 66.5292 29.14 66.5274 29.6512L66.5292 29.653Z" fill="#4C7F8E"/>
</g>
<path d="M27.8401 56.1596V52.5596L39.0001 58.9496V62.6396L27.8401 56.1596Z" fill="#74929F"/>
<path d="M27.8401 56.1592L25.5901 57.4192L41.4301 66.5992L39.0001 62.6392L27.8401 56.1592Z" fill="url(#paint0_linear_7996_40513)"/>
<path d="M41.4301 66.6L44.7601 64.62C44.7601 64.62 45.7501 65.61 45.3901 66.15C45.0301 66.69 42.33 68.4 41.7001 68.4C41.0701 68.4 25.6801 59.22 25.6801 59.22C25.2301 58.95 25.0501 58.41 25.0501 58.41C25.0501 58.41 24.6001 57.69 25.3201 57.33L28.1101 55.71L27.8401 56.16L25.5901 57.42L41.4301 66.6Z" fill="#5E2AD8"/>
<path d="M42.3301 60.6592L44.7601 64.6192L41.4301 66.5992L39.0001 62.6392L42.3301 60.6592Z" fill="#EFF1F3"/>
<path d="M42.3301 60.6598V58.5898H39.0001V62.6398L42.3301 60.6598Z" fill="#83A2AC"/>
<path d="M60.5712 31.773L60.4722 66.6499C60.4722 66.9037 60.3804 67.0836 60.2364 67.1665L56.9604 69.0709C57.1062 68.9881 57.1944 68.8081 57.1962 68.5543L57.2952 33.6774C57.297 33.1662 56.937 32.5434 56.4924 32.2878L9.2928 5.03585C9.0696 4.90625 8.8662 4.89365 8.7204 4.98005L11.9964 3.07565C12.1422 2.98925 12.3456 3.00185 12.5688 3.13145L59.7684 30.3834C60.213 30.6409 60.573 31.2618 60.5712 31.773Z" fill="#EFF1F3"/>
<path d="M29.5968 47.8973C29.6544 47.9297 29.7012 48.0107 29.7012 48.0773V48.9647C29.6976 49.0313 29.6508 49.0583 29.5932 49.0241L28.6158 48.4589C28.5582 48.4265 28.5114 48.3455 28.5114 48.2789V47.3915C28.515 47.3267 28.5618 47.2997 28.6194 47.3321L29.5968 47.8973Z" fill="white"/>
<path d="M31.5228 49.0096C31.5804 49.042 31.6272 49.123 31.6272 49.1896V50.077C31.6236 50.1436 31.5768 50.1706 31.521 50.1364L30.5418 49.5712C30.4842 49.5388 30.4374 49.4578 30.4374 49.3912V48.5038C30.441 48.439 30.4878 48.412 30.5436 48.4444L31.5228 49.0096Z" fill="#F4F6F7"/>
<path d="M13.9422 37.8789L13.9332 40.9137L10.5906 38.9841C10.2522 38.7879 9.97862 38.3145 9.98042 37.9257L9.98582 35.5947L13.9422 37.8789Z" fill="#98B3BC"/>
<path d="M27.471 45.6888L55.812 62.0526L55.8048 64.3188C55.8048 64.7454 55.5006 64.9182 55.1298 64.704L10.6536 39.0216C10.245 38.7858 9.97862 38.325 9.98042 37.947C9.98042 38.3124 10.2522 38.7858 10.5906 38.9802L13.9332 40.9098L13.9422 37.875L13.9386 40.9134L27.4638 48.7218L27.4728 45.687L27.471 45.6888ZM29.6994 48.9666V48.0792C29.703 48.0144 29.6562 47.9334 29.5986 47.8992L28.6212 47.334C28.5636 47.3016 28.5168 47.3268 28.5168 47.3934V48.2808C28.5132 48.3474 28.56 48.4284 28.6176 48.4608L29.595 49.026C29.6526 49.0584 29.6994 49.0332 29.6994 48.9666ZM31.6236 50.079V49.1916C31.6272 49.1268 31.5804 49.0458 31.5228 49.0116L30.5436 48.4464C30.486 48.414 30.4392 48.441 30.4392 48.5058V49.3932C30.4356 49.4598 30.4824 49.5408 30.54 49.5732L31.5192 50.1384C31.5768 50.1708 31.6236 50.1438 31.6236 50.079Z" fill="#7C939D"/>
<path d="M48.094 58.556C48.1241 58.5775 48.1491 58.6059 48.1671 58.6391C48.1851 58.6723 48.1955 58.7093 48.1976 58.7473V59.6794C48.1976 59.7459 48.1498 59.7792 48.094 59.7459L47.1133 59.1468C47.0824 59.1282 47.0566 59.1015 47.0384 59.0694C47.0203 59.0374 47.0104 59.001 47.0096 58.9637V58.04C47.0096 57.9651 47.0575 57.9402 47.1133 57.9735L48.094 58.556Z" fill="white"/>
<path d="M53.8665 61.8588C53.8987 61.8798 53.9254 61.9081 53.9444 61.9414C53.9634 61.9746 53.9741 62.0118 53.9757 62.05V62.9811C53.9757 63.0476 53.9253 63.0725 53.8665 63.0392L52.8249 62.449C52.7927 62.428 52.766 62.3997 52.747 62.3664C52.728 62.3332 52.7173 62.296 52.7157 62.2578V61.3268C52.7157 61.2603 52.7661 61.2353 52.8249 61.2686L53.8665 61.8588Z" fill="#5E2AD8"/>
<path d="M50.0214 59.6767C50.0532 59.6939 50.0798 59.72 50.098 59.7523C50.1162 59.7845 50.1253 59.8214 50.1243 59.8588V60.7858C50.1243 60.8603 50.0768 60.8851 50.0214 60.852L49.0473 60.2644C49.0159 60.2439 48.9895 60.216 48.9703 60.1829C48.951 60.1499 48.9394 60.1126 48.9364 60.074V59.147C48.9364 59.0725 48.9839 59.0477 49.0394 59.0808L50.0214 59.6767Z" fill="#F4F6F7"/>
<path d="M51.9409 60.7626C51.9747 60.7819 52.0026 60.8097 52.0218 60.8433C52.041 60.8768 52.0508 60.9149 52.0501 60.9534V61.8826C52.0501 61.9489 51.9997 61.9738 51.9409 61.9406L50.9077 61.3516C50.8739 61.3316 50.8456 61.3037 50.8251 61.2705C50.8046 61.2373 50.7926 61.1996 50.7901 61.1608V60.2316C50.7901 60.1653 50.8405 60.1321 50.8993 60.1736L51.9409 60.7626Z" fill="#E4EAED"/>
<path d="M13.9454 37.8809L27.4706 45.6893L27.4616 48.7241L13.9364 40.9157L13.9454 37.8809ZM16.2296 41.3891L16.2332 40.1057C16.2332 40.0211 16.1738 39.9167 16.1 39.8753L14.984 39.2309C14.9102 39.1877 14.8508 39.2219 14.8508 39.3065L14.8472 40.5899C14.8472 40.6745 14.9066 40.7771 14.9804 40.8203L16.0964 41.4647C16.1702 41.5061 16.2296 41.4719 16.2296 41.3891Z" fill="#7C939D"/>
<path d="M16.1004 39.875C16.1742 39.9164 16.2336 40.0208 16.2336 40.1054L16.23 41.3888C16.23 41.4734 16.1688 41.5076 16.0968 41.4644L14.9808 40.82C14.907 40.7768 14.8476 40.6742 14.8476 40.5896L14.8512 39.3062C14.8512 39.2216 14.9124 39.1874 14.9844 39.2306L16.1004 39.875Z" fill="white"/>
<path d="M55.8916 34.1483L55.8124 62.0501L27.4714 45.6881L13.9462 37.8797L9.98621 35.5937L10.0654 7.69005C10.0672 7.26345 10.3714 7.09066 10.744 7.30486L55.2202 32.9837C55.591 33.1979 55.8952 33.7217 55.8916 34.1483Z" fill="white"/>
<g opacity="0.8">
<path opacity="0.8" d="M55.8916 34.1483L55.8124 62.0501L27.4714 45.6881L13.9462 37.8797L9.98621 35.5937L10.0654 7.69005C10.0672 7.26345 10.3714 7.09066 10.744 7.30486L55.2202 32.9837C55.591 33.1979 55.8952 33.7217 55.8916 34.1483Z" fill="url(#paint1_linear_7996_40513)"/>
</g>
<path d="M10.744 7.30577L14.02 5.40137L58.4962 31.0802L55.2202 32.9846L10.744 7.30577Z" fill="white"/>
<path d="M37.1913 55.5295C37.3509 55.6352 37.4838 55.777 37.5791 55.9437C37.6745 56.1103 37.7297 56.2972 37.7404 56.4892C37.7404 56.8438 37.4918 56.9794 37.1913 56.8021L29.1096 52.1081C28.9494 52.0031 28.8161 51.8614 28.7206 51.6946C28.6252 51.5278 28.5703 51.3407 28.5604 51.1484C28.5604 50.8042 28.8091 50.6582 29.1199 50.8355L37.1913 55.5295Z" fill="#C0C0C0"/>
<path d="M56.5842 32.3326L9.38462 5.08236C8.94002 4.82496 8.57822 5.03196 8.57642 5.54316L8.47742 40.42C8.47742 40.9312 8.83562 41.554 9.28022 41.8114L27.858 52.5232L38.9208 58.9258L56.4798 69.0634C56.9244 69.3208 57.2862 69.1138 57.288 68.6026L57.387 33.7258C57.387 33.2146 57.0288 32.5918 56.5842 32.3362V32.3326ZM36.6132 56.2798L30.4392 52.7158C30.207 52.5808 30.018 52.2532 30.018 51.9868C30.018 51.7204 30.2088 51.6106 30.441 51.7456L36.615 55.3114C36.8472 55.4446 37.0362 55.774 37.0362 56.0404C37.0362 56.3068 36.8454 56.4166 36.6132 56.2816V56.2798ZM55.812 62.0542L55.8048 64.3204C55.8048 64.747 55.5006 64.9198 55.128 64.7038L10.5726 38.9764C10.2432 38.7856 9.97862 38.3266 9.97862 37.8568L10.065 7.69056C10.065 7.26396 10.371 7.09116 10.7418 7.30536L55.218 32.9842C55.5888 33.1984 55.893 33.7222 55.8912 34.1488L55.812 62.0506" fill="#EFF1F3"/>
<path d="M56.5842 32.3326L9.38462 5.08236C8.94002 4.82496 8.57822 5.03196 8.57642 5.54316L8.47742 40.42C8.47742 40.9312 8.83562 41.554 9.28022 41.8114L27.858 52.5232L38.9208 58.9258L56.4798 69.0634C56.9244 69.3208 57.2862 69.1138 57.288 68.6026L57.387 33.7258C57.387 33.2146 57.0288 32.5918 56.5842 32.3362V32.3326ZM55.812 62.0542L55.8048 64.3204C55.8048 64.747 55.5006 64.9198 55.128 64.7038L10.5726 38.9764C10.2432 38.7856 9.97862 38.3266 9.97862 37.8568L10.065 7.69056C10.065 7.26396 10.371 7.09116 10.7418 7.30536L55.218 32.9842C55.5888 33.1984 55.893 33.7222 55.8912 34.1488L55.812 62.0506" fill="url(#paint2_radial_7996_40513)"/>
<path d="M10.6533 39.0227C10.6281 39.0083 10.6047 38.9903 10.5795 38.9741L10.5741 38.9777L28.7109 49.4501L10.6533 39.0245V39.0227ZM29.6685 49.0325C29.6685 49.0325 29.6505 49.0379 29.6415 49.0379C29.6505 49.0379 29.6613 49.0379 29.6685 49.0325ZM29.6343 49.0397C29.6217 49.0397 29.6073 49.0343 29.5929 49.0253C29.6073 49.0343 29.6217 49.0379 29.6343 49.0397ZM11.7711 38.2793L11.1357 38.6483L11.7693 39.1163V38.2793H11.7711ZM53.9433 63.0527C53.9433 63.0527 53.9325 63.0527 53.9289 63.0563C53.9343 63.0563 53.9397 63.0563 53.9433 63.0527ZM52.0191 61.9421C52.0191 61.9421 52.0065 61.9457 51.9993 61.9457C52.0065 61.9457 52.0137 61.9457 52.0191 61.9421ZM51.9849 61.9493C51.9723 61.9493 51.9579 61.9439 51.9435 61.9349C51.9579 61.9439 51.9723 61.9475 51.9849 61.9493ZM52.0497 61.8737L51.9453 61.9349C51.9795 61.9151 52.0155 61.8935 52.0497 61.8737ZM50.0607 60.8369C50.0481 60.8369 50.0337 60.8315 50.0193 60.8225C50.0337 60.8315 50.0481 60.8351 50.0607 60.8369ZM50.0931 60.8297C50.0931 60.8297 50.0769 60.8351 50.0679 60.8351C50.0769 60.8351 50.0859 60.8351 50.0931 60.8297ZM48.1689 59.7191C48.1599 59.7245 48.1473 59.7263 48.1365 59.7263C48.1491 59.7263 48.1599 59.7263 48.1689 59.7191ZM31.5945 50.1431C31.5855 50.1485 31.5729 50.1503 31.5621 50.1503C31.5747 50.1503 31.5855 50.1503 31.5945 50.1431ZM53.6589 61.7945L53.3853 61.9529C53.4753 61.9007 53.5671 61.8485 53.6589 61.7945ZM47.8845 58.4609L47.6901 58.5743C47.7549 58.5365 47.8179 58.5005 47.8845 58.4609ZM47.0457 58.0127C47.0277 58.0235 47.0151 58.0469 47.0151 58.0793C47.0151 58.0469 47.0259 58.0235 47.0457 58.0127Z" fill="#EFF1F3"/>
<path d="M10.5924 38.9817L10.6104 38.9925C10.6104 38.9925 10.5996 38.9853 10.5942 38.9817H10.5924ZM11.7714 38.2959L11.1468 38.6595L11.7696 39.1185V38.2959H11.7714Z" fill="#C8D6DC"/>
<path d="M11.771 38.2096L11.6234 38.125L10.952 38.5156L11.7692 39.1168L11.771 38.2096Z" fill="#98B3BC"/>
<path d="M9.38464 5.08213L12.6624 3.17773L59.862 30.4279L56.5842 32.3323L9.38464 5.08213Z" fill="#EFF1F3"/>
<path d="M60.5712 31.773L60.4722 66.6499C60.4722 66.9037 60.3804 67.0836 60.2364 67.1665L56.9604 69.0709C57.1062 68.9881 57.1944 68.8081 57.1962 68.5543L57.2952 33.6774C57.297 33.1662 56.937 32.5434 56.4924 32.2878L9.2928 5.03585C9.0696 4.90625 8.8662 4.89365 8.7204 4.98005L11.9964 3.07565C12.1422 2.98925 12.3456 3.00185 12.5688 3.13145L59.7684 30.3834C60.213 30.6409 60.573 31.2618 60.5712 31.773Z" fill="#5E2AD8"/>
<path d="M60.5712 31.7027L60.4722 66.5795C60.4722 66.8333 60.3804 67.0133 60.2364 67.0961L56.9604 69.0005C57.1062 68.9177 57.1944 68.7377 57.1962 68.4839L57.2952 33.6071C57.297 33.0959 56.937 32.4731 56.4924 32.2175L9.2928 4.96553C9.0696 4.83593 8.8662 4.82334 8.7204 4.90974L11.9964 3.00533C12.1422 2.91893 12.3456 2.93154 12.5688 3.06114L59.7684 30.3113C60.213 30.5687 60.573 31.1897 60.5712 31.7009V31.7027Z" fill="url(#paint3_radial_7996_40513)"/>
<path d="M13.0099 20.4998L13.9927 21.9506L13.9819 25.5146V26.3516L13.5535 25.7396L13.5571 24.701C13.5571 24.6254 13.5049 24.5336 13.4383 24.494L13.0009 24.242L13.0117 20.498L13.0099 20.4998Z" fill="#E6EAEC"/>
<path d="M13.4367 24.497C13.5033 24.5348 13.5573 24.6284 13.5555 24.704L13.5519 25.7426V26.2052C13.5519 26.2808 13.4961 26.3114 13.4295 26.2736L12.1245 25.5194C12.0579 25.4816 12.0039 25.388 12.0057 25.3124L12.0093 23.8112C12.0093 23.7356 12.0633 23.705 12.1299 23.7428L12.9975 24.2432L13.4349 24.4952L13.4367 24.497Z" fill="#5E2AD8"/>
<path d="M15.7357 22.0734L15.7267 25.4124C15.7897 25.5564 15.8527 25.7022 15.9139 25.8462C15.9103 26.109 15.9067 26.3718 15.9031 26.6346C15.2623 26.262 14.6215 25.8894 13.9807 25.5168L13.9915 21.9528L13.0087 20.502L15.7339 22.0752L15.7357 22.0734Z" fill="#B0C4C9"/>
<path d="M13.507 32.7325C13.5736 32.7703 13.6276 32.8639 13.6258 32.9395L13.6222 33.9781V34.4407C13.6222 34.5163 13.5664 34.5469 13.4998 34.5091L12.1948 33.7549C12.1282 33.7171 12.0742 33.6235 12.076 33.5479L12.0796 32.0485C12.0796 31.9729 12.1336 31.9423 12.2002 31.9801L13.0678 32.4805L13.5052 32.7325H13.507Z" fill="#5E2AD8"/>
<path d="M16.5957 34.7465V35.0291L14.5761 33.8627V33.5801L16.5957 34.7465Z" fill="#B0C4C9"/>
<path d="M13.0803 28.7362L14.0631 30.187L14.0523 33.7564V34.588L13.6239 33.976L13.6275 32.9374C13.6275 32.8618 13.5735 32.7682 13.5087 32.7304L13.0713 32.4784L13.0821 28.7344L13.0803 28.7362Z" fill="#E6EAEC"/>
<path d="M16.5975 34.2925L16.5957 34.5751L14.5779 33.4087V33.1279L16.5975 34.2925Z" fill="#B0C4C9"/>
<path d="M16.0481 32.1546V32.295L14.5829 31.449V31.3086L16.0481 32.1546Z" fill="#B0C4C9"/>
<path d="M16.1602 32.4493L16.7848 32.8093L16.7776 35.6641L14.4304 34.3087V33.9775L14.4412 30.6943L15.8038 31.4809L16.1638 31.6897V32.4493H16.1602ZM16.5958 34.1233V33.3691L14.5798 32.2027V32.9569L16.5958 34.1233ZM16.594 35.0287V34.7461L14.5762 33.5797V33.8623L16.594 35.0287ZM16.594 34.5751V34.2925L14.5762 33.1261V33.4087L16.594 34.5751ZM16.5976 33.1909V32.9083L14.5798 31.7419V32.0245L16.5976 33.1909ZM14.5798 31.3081V31.4485L16.045 32.2945V32.1541L14.5798 31.3081Z" fill="#E6EAEC"/>
<path d="M16.5993 33.3695L16.5975 34.1219L14.5779 32.9573L14.5815 32.2031L16.5993 33.3695Z" fill="#B0C4C9"/>
<path d="M16.6015 32.9087L16.5997 33.1913L14.5819 32.0249V31.7441L16.6015 32.9087Z" fill="#B0C4C9"/>
<path d="M16.1619 31.6904L16.7847 32.81L16.1601 32.45L16.1619 31.6904Z" fill="#B0C4C9"/>
<path d="M15.8052 30.3095L15.8016 31.4813L14.439 30.6947L14.43 33.9797L14.052 33.7565L14.061 30.1871L13.08 28.7363L15.8052 30.3095Z" fill="#B0C4C9"/>
<path d="M12.886 11.9043L16.369 15.1803L16.36 18.1449L12.8788 14.8725L12.886 11.9043Z" fill="#5E2AD8"/>
<path d="M12.4633 15.5314L15.4531 18.424L15.3181 18.4168L14.1211 18.3502L11.2015 15.49L11.0575 15.3496L12.4633 15.5314Z" fill="#E6EAEC"/>
<path d="M11.0572 15.3496L11.2012 15.49L14.1208 18.3502L15.3178 18.4168L15.4528 18.424V18.5464L14.1208 18.4726L11.0554 15.472L11.0572 15.3496Z" fill="#B0C4C9"/>
<path d="M14.5222 16.4922L15.4564 17.3706V17.4156C15.4564 17.5038 15.3934 17.5398 15.316 17.4948L14.659 17.115C14.5816 17.07 14.5204 16.962 14.5204 16.8756V16.4922H14.5222Z" fill="#E6EAEC"/>
<path d="M14.5209 16.7391V16.8759C14.5209 16.9641 14.5821 17.0721 14.6595 17.1153L15.3165 17.4951C15.3939 17.5401 15.4551 17.5041 15.4569 17.4159V17.3709L16.0941 17.9703C16.0437 18.1017 15.5343 17.9361 14.9151 17.5779C14.2617 17.2017 13.7325 16.7535 13.7343 16.5807C13.7343 16.4439 14.0637 16.5177 14.5227 16.7391H14.5209Z" fill="#B0C4C9"/>
<path d="M12.7978 11.7461L16.4572 15.1877L16.4482 18.3035L16.0918 17.9687L15.4546 17.3693L14.5204 16.4909L12.7888 14.8637L12.7978 11.7461ZM16.36 18.1451L16.369 15.1787L12.886 11.9045L12.877 14.8709L16.36 18.1451Z" fill="#E6EAEC"/>
<path d="M13.0857 11.8307L16.6533 15.1967L16.6443 18.3107L16.4481 18.3035L16.4571 15.1877L12.7977 11.7461L13.0857 11.8307Z" fill="#B0C4C9"/>
<path d="M22.133 21.322C22.1996 21.3598 22.2518 21.4516 22.2518 21.5272L22.2482 22.564V23.0266C22.2482 23.1022 22.1924 23.1328 22.1276 23.095L20.8208 22.3408C20.7542 22.303 20.702 22.2112 20.702 22.1356L20.7056 20.6344C20.7056 20.5588 20.7596 20.5282 20.8262 20.566L21.6938 21.0664L22.1312 21.3184L22.133 21.322Z" fill="#5E2AD8"/>
<path d="M21.7059 17.3242L21.8679 17.5636L22.6869 18.775L22.6761 22.5082V23.176L22.2477 22.564L22.2513 21.5272C22.2513 21.4516 22.1991 21.3598 22.1325 21.322L21.6951 21.07L21.7059 17.326V17.3242Z" fill="#E6EAEC"/>
<path d="M24.4312 18.8974L24.4294 19.4698L22.2046 17.74L22.2028 17.8912L21.868 17.5474V17.5636L21.706 17.3242L24.4312 18.8974Z" fill="#B0C4C9"/>
<path d="M21.8679 17.5479L22.2027 17.8917L23.8641 19.6017L23.8551 23.0451L23.8533 23.7291L22.6761 22.5087L22.6869 18.7755L21.8679 17.5641V17.5479Z" fill="#B0C4C9"/>
<path d="M22.2048 17.7402L24.4296 19.47L24.7878 19.7472L24.777 23.8926L23.8554 23.0448L23.8644 19.6014L22.203 17.8914L22.2048 17.7402Z" fill="#E6EAEC"/>
<path d="M22.2455 27.0301L22.2419 28.0723L23.1491 28.5961C23.1491 29.1739 22.7405 29.4061 22.2383 29.1163C21.7361 28.8265 21.3329 28.1263 21.3329 27.5485C21.3329 26.9725 21.7415 26.7403 22.2437 27.0301H22.2455Z" fill="#E6EAEC"/>
<path d="M23.3075 30.2227L24.9185 31.1533L24.9167 31.3459L23.3075 30.4171V30.2227Z" fill="#5E2AD8"/>
<path d="M22.2461 27.0303C22.7483 27.3201 23.1515 28.0203 23.1515 28.5963L22.2443 28.0725L22.2479 27.0303H22.2461Z" fill="#5E2AD8"/>
<path d="M24.9226 29.3143L24.9208 30.0127L23.866 29.4043L23.8678 28.7041L24.9226 29.3143Z" fill="#5E2AD8"/>
<path d="M24.9245 28.7256L24.9227 29.3142L23.8679 28.704L23.8661 29.4042L24.9209 30.0126L24.9191 30.6624L23.8643 30.054L23.8661 29.6328V29.5392L23.8697 28.1172L24.9245 28.7256Z" fill="#E6EAEC"/>
<path d="M25.3744 28.3566C25.4248 28.3854 25.468 28.4574 25.4662 28.5168L25.4554 32.133C25.4554 32.1924 25.414 32.2158 25.3618 32.1852L20.923 29.622C20.8726 29.5932 20.8294 29.5212 20.8312 29.4618L20.842 25.8456C20.842 25.7862 20.8834 25.7628 20.9356 25.7916L25.3744 28.3548V28.3566ZM24.9226 29.3124V28.7238L23.8696 28.1154L23.866 29.5374L23.524 29.3394V28.7634L23.1514 28.5474V28.5942C23.1514 28.0182 22.7482 27.318 22.246 27.0282C21.7438 26.7384 21.337 26.9706 21.3352 27.5466C21.3352 28.1244 21.7384 28.8246 22.2406 29.1144C22.7428 29.4042 23.1496 29.172 23.1514 28.5942V28.6428L23.443 28.812V29.388L23.866 29.6328V30.054L24.9208 30.6624V30.0126L24.9244 29.3124H24.9226ZM24.919 31.3446V31.152L23.3098 30.2232V30.0126L22.7986 29.7174V29.928L21.4234 29.1342V29.3268L22.7968 30.1206V30.3042L23.308 30.5994V30.4158L24.919 31.3446Z" fill="#B0C4C9"/>
<path d="M23.5256 28.7648L23.5238 29.3408L23.8658 29.5388V29.6324L23.441 29.3876L23.4428 28.8134L23.1512 28.6442V28.5488L23.5256 28.7648Z" fill="#5E2AD8"/>
<path d="M21.4216 29.3283V29.1357L22.7968 29.9277V30.1221L21.4216 29.3283Z" fill="#5E2AD8"/>
<path d="M23.308 30.012V30.2226V30.417L23.3062 30.6006L22.795 30.3054L22.7968 30.1218V29.9274V29.7168L23.308 30.012Z" fill="#E6EAEC"/>
<path d="M24.2944 36.3973V36.5539L23.0398 35.8285V35.6719L24.2944 36.3973Z" fill="#B0C4C9"/>
<path d="M22.4637 35.0238C22.5321 35.0634 22.5861 35.157 22.5861 35.2344L22.5807 36.885C22.5807 36.9624 22.5249 36.9948 22.4583 36.9552L21.0453 36.1398C20.9769 36.1002 20.9229 36.0066 20.9229 35.9292L20.9283 34.2786C20.9283 34.2012 20.9841 34.1688 21.0507 34.2084L22.4637 35.0238Z" fill="#E6EAEC"/>
<path d="M22.7153 34.8238C22.8071 34.876 22.881 35.0056 22.881 35.1118L22.8737 37.3528C22.8737 37.459 22.7982 37.5022 22.7064 37.4482L21.2034 36.5806L20.7876 36.3412C20.6958 36.289 20.6219 36.1594 20.6219 36.0532L20.6291 33.8122C20.6291 33.706 20.7047 33.6646 20.7965 33.7168L21.2123 33.9562L22.7153 34.8238ZM22.5785 36.8848L22.5839 35.2342C22.5839 35.1568 22.5299 35.0614 22.4615 35.0236L21.0485 34.2082C20.9801 34.1686 20.9261 34.201 20.9261 34.2784L20.9207 35.929C20.9207 36.0064 20.9747 36.1018 21.0431 36.1396L22.4561 36.955C22.5245 36.9946 22.5785 36.9622 22.5785 36.8848Z" fill="#B0C4C9"/>
<path d="M24.2925 37.1689V37.3255L23.0379 36.6019V36.4453L24.2925 37.1689Z" fill="#B0C4C9"/>
<path d="M24.2943 36.7588L24.2925 36.9154L23.0379 36.1918L23.0397 36.0352L24.2943 36.7588Z" fill="#B0C4C9"/>
<path d="M23.5924 34.0586L24.6238 35.81L23.5888 35.2124L23.5924 34.0586Z" fill="#B0C4C9"/>
<path d="M23.5888 35.2127L24.6256 35.8103L24.6148 39.8046L21.2038 37.8353L21.2074 36.5789L22.7104 37.4465C22.8022 37.4987 22.8778 37.4573 22.8778 37.3511L22.885 35.1101C22.885 35.0039 22.8112 34.8761 22.7194 34.8221L21.2164 33.9545L21.22 32.6855L23.5942 34.0571L23.5906 35.2109L23.5888 35.2127ZM24.2908 37.7075V37.551L23.0362 36.8273V36.9839L24.2908 37.7075ZM24.2926 36.9155V36.7589L23.038 36.0353V36.1919L24.2926 36.9155ZM24.2926 37.3259V37.1693L23.038 36.4457V36.6023L24.2926 37.3259ZM24.2944 36.5519V36.3953L23.0398 35.6717V35.8283L24.2944 36.5519Z" fill="#E6EAEC"/>
<path d="M24.2907 37.5506V37.7072L23.0361 36.9836V36.8252L24.2907 37.5506Z" fill="#B0C4C9"/>
<path d="M41.1582 31.505L41.1348 39.7058L33.996 35.5856L34.0194 27.3848L41.1582 31.505Z" fill="#C8D6DC"/>
<path d="M48.756 35.8936L48.7326 44.0926L41.5956 39.9724L41.619 31.7734L48.756 35.8936Z" fill="#C8D6DC"/>
<path d="M41.1338 40.2364L41.1104 48.4372L33.9716 44.3152L33.995 36.1162L41.1338 40.2364Z" fill="#C8D6DC"/>
<path d="M48.7306 44.6231L48.7072 52.8239L41.5702 48.7037L41.5936 40.5029L48.7306 44.6231Z" fill="#C8D6DC"/>
<path d="M11.8438 37.2073L11.842 38.1631L11.0104 37.6825L11.0122 36.7285L11.8438 37.2073Z" fill="white"/>
<path d="M12.7298 37.7181L12.728 38.6739L11.8964 38.1933L11.8982 37.2393L12.7298 37.7181Z" fill="white"/>
<path d="M11.8419 38.2257L11.8383 39.1797L11.0067 38.7009L11.0103 37.7451L11.8419 38.2257Z" fill="white"/>
<path d="M12.7275 38.7374L12.7239 39.6932L11.8923 39.2126L11.8959 38.2568L12.7275 38.7374Z" fill="white"/>
<defs>
<linearGradient id="paint0_linear_7996_40513" x1="36.4801" y1="61.0192" x2="25.6801" y2="57.4192" gradientUnits="userSpaceOnUse">
<stop offset="0.107383" stop-color="#8CACB7"/>
<stop offset="1" stop-color="#C9D7DD"/>
</linearGradient>
<linearGradient id="paint1_linear_7996_40513" x1="146.23" y1="-10.9615" x2="-5.62519" y2="50.2349" gradientUnits="userSpaceOnUse">
<stop offset="0.35" stop-color="#4C7F8E" stop-opacity="0.5"/>
<stop offset="0.44" stop-color="#4C7F8E" stop-opacity="0.47"/>
<stop offset="0.54" stop-color="#4C7F8E" stop-opacity="0.37"/>
<stop offset="0.65" stop-color="#4C7F8E" stop-opacity="0.21"/>
<stop offset="0.75" stop-color="#4C7F8E" stop-opacity="0"/>
<stop offset="1" stop-color="#4C7F8E" stop-opacity="0"/>
</linearGradient>
<radialGradient id="paint2_radial_7996_40513" cx="0" cy="0" r="1" gradientUnits="userSpaceOnUse" gradientTransform="translate(32.9322 37.0702) scale(28.5336 28.5336)">
<stop offset="0.41" stop-color="#88959B" stop-opacity="0.28"/>
<stop offset="0.615" stop-color="#88959B" stop-opacity="0.3"/>
<stop offset="0.87" stop-color="#88959B" stop-opacity="0.619608"/>
<stop offset="1" stop-color="#88959B" stop-opacity="0.6"/>
</radialGradient>
<radialGradient id="paint3_radial_7996_40513" cx="0" cy="0" r="1" gradientUnits="userSpaceOnUse" gradientTransform="translate(81.9372 7.51073) scale(86.6808 86.6808)">
<stop stop-color="white" stop-opacity="0.6"/>
<stop offset="0.13" stop-color="white" stop-opacity="0.42"/>
<stop offset="0.21" stop-color="white" stop-opacity="0.3"/>
<stop offset="0.54" stop-color="white" stop-opacity="0"/>
</radialGradient>
</defs>
</svg>
