<svg xmlns="http://www.w3.org/2000/svg" width="72" height="72" fill="none" viewBox="0 0 72 72"><g clip-path="url(#a)"><path fill="#0156d7" d="M.637 11.009c-.4 0-.705.368-.622.761l4.208 20.165a.644.644 0 0 0 .622.508h9.203a.49.49 0 0 1 .368.812l-2.869 3.25a.63.63 0 0 0-.146.545l4.792 23.77a.63.63 0 0 0 .622.508h14.154a.64.64 0 0 0 .622-.496c2.99-12.586 5.166-22.887 6.899-32.597h.38c1.803 10.523 4.202 21.122 6.9 32.597.07.286.323.495.622.495h15.093a.63.63 0 0 0 .622-.507l9.882-49.056a.638.638 0 0 0-.622-.762H59.62a2.54 2.54 0 0 0-2.488 2.025c-2.368 11.456-4.303 22.348-5.528 32.287-1.619-11.272-4.678-22.474-7.274-33.188a1.47 1.47 0 0 0-1.428-1.124h-8.435c-.68 0-1.27.464-1.435 1.124-2.938 11.932-5.566 23.135-7.045 33.188L20.585 15.3l-.457-2.26a2.54 2.54 0 0 0-2.488-2.037H.65z"/></g><defs><clipPath id="a"><path fill="#fff" d="M.001.002h72v72h-72z"/></clipPath></defs></svg>