<svg width="72" height="72" viewBox="0 0 72 72" fill="none" xmlns="http://www.w3.org/2000/svg">
<g clip-path="url(#clip0_16976_12172)">
<path d="M70.4955 18.6732C69.6658 15.5734 67.2296 13.1374 64.1299 12.3077C58.5173 10.8022 36.0008 10.8022 36.0008 10.8022C36.0008 10.8022 13.4847 10.8022 7.87188 12.3077C4.77214 13.1374 2.33617 15.5734 1.50641 18.6732C0.000977013 24.2859 0.000976562 36.0034 0.000976562 36.0034C0.000976562 36.0034 0.000977013 47.721 1.50641 53.3338C2.33617 56.4335 4.77214 58.8694 7.87188 59.6991C13.4847 61.2046 36.0008 61.2046 36.0008 61.2046C36.0008 61.2046 58.5173 61.2046 64.1299 59.6991C67.2296 58.8694 69.6658 56.4335 70.4955 53.3338C72.001 47.721 72.001 36.0034 72.001 36.0034C72.001 36.0034 71.9949 24.2859 70.4955 18.6732Z" fill="#FF0000"/>
<path d="M28.7949 46.8031L47.5002 36.0044L28.7949 25.2056V46.8031Z" fill="white"/>
</g>
<defs>
<clipPath id="clip0_16976_12172">
<rect width="72" height="72" fill="white" transform="translate(0.000976562 0.00244141)"/>
</clipPath>
</defs>
</svg>
