<svg xmlns="http://www.w3.org/2000/svg" width="72" height="72" fill="none" viewBox="0 0 72 72"><g clip-path="url(#a)"><path fill="red" d="M70.496 18.673a9.02 9.02 0 0 0-6.366-6.365C58.517 10.802 36 10.802 36 10.802s-22.515 0-28.128 1.506a9.02 9.02 0 0 0-6.366 6.365C.001 24.286.001 36.003.001 36.003s0 11.718 1.505 17.33A9.02 9.02 0 0 0 7.872 59.7C13.485 61.205 36 61.205 36 61.205s22.516 0 28.129-1.506a9.02 9.02 0 0 0 6.366-6.365C72 47.72 72 36.004 72 36.004s-.006-11.718-1.505-17.33"/><path fill="#fff" d="M28.795 46.803 47.5 36.004 28.795 25.206z"/></g><defs><clipPath id="a"><path fill="#fff" d="M.001.002h72v72h-72z"/></clipPath></defs></svg>