<svg xmlns="http://www.w3.org/2000/svg" width="72" height="72" fill="none" viewBox="0 0 72 72"><g clip-path="url(#a)"><path fill="#ff4a00" d="M45.002 36.018c0 2.595-.469 5.17-1.384 7.599A21.6 21.6 0 0 1 36.016 45h-.031a21.6 21.6 0 0 1-7.602-1.383 21.5 21.5 0 0 1-1.386-7.602v-.034c0-2.675.491-5.237 1.38-7.601a21.5 21.5 0 0 1 7.604-1.384h.03c2.676 0 5.237.491 7.601 1.384a21.5 21.5 0 0 1 1.384 7.601v.034h.003zM71.502 30H50.487l14.858-14.86a36.2 36.2 0 0 0-8.486-8.483l-14.86 14.858V.502A36 36 0 0 0 36.02 0h-.038a36 36 0 0 0-5.98.502v21.014L15.138 6.656a36 36 0 0 0-4.593 3.887l-.007.007a36 36 0 0 0-3.883 4.592L21.518 30H.5S0 33.947 0 35.988v.025c0 2.04.173 4.04.501 5.987H21.52L6.654 56.856a36.3 36.3 0 0 0 8.487 8.486l14.86-14.857v21.016c1.944.325 3.937.497 5.974.5h.05c2.002-.002 4-.17 5.973-.5V50.485l14.862 14.86a36.3 36.3 0 0 0 4.596-3.886h.003a36.4 36.4 0 0 0 3.883-4.596L50.484 42.001h21.018c.326-1.945.498-3.938.498-5.974v-.053a36 36 0 0 0-.498-5.972z"/></g><defs><clipPath id="a"><path fill="#fff" d="M0 0h72v72H0z"/></clipPath></defs></svg>