<svg xmlns="http://www.w3.org/2000/svg" width="72" height="72" fill="none" viewBox="0 0 72 72"><path fill="#0b5cff" d="M15.101 43.938H2.291c-.847 0-1.65-.445-2.041-1.204a2.22 2.22 0 0 1 .4-2.594l8.914-8.905H3.18A3.177 3.177 0 0 1 0 28.058h11.801c.847 0 1.65.445 2.041 1.204a2.22 2.22 0 0 1-.402 2.593L4.527 40.76h7.393a3.177 3.177 0 0 1 3.181 3.178m50.7-16.118a6.16 6.16 0 0 0-4.614 2.06 6.2 6.2 0 0 0-4.614-2.06c-3.409 0-6.188 2.907-6.188 6.301v9.816c1.759 0 3.18-1.42 3.18-3.177v-6.671c0-1.638 1.271-3.026 2.9-3.091a3.024 3.024 0 0 1 3.137 3.015v6.747a3.177 3.177 0 0 0 3.181 3.178v-9.849c0-1.638 1.27-3.026 2.899-3.091a3.024 3.024 0 0 1 3.138 3.015v6.747A3.177 3.177 0 0 0 72 43.938V34.12c-.01-3.394-2.79-6.301-6.199-6.301m-34.654 8.178c0 4.512-3.67 8.178-8.185 8.178-4.517 0-8.186-3.666-8.186-8.178s3.68-8.178 8.186-8.178c4.505 0 8.185 3.666 8.185 8.178m-3.18 0c0-2.755-2.248-5-5.005-5a5.01 5.01 0 0 0-5.005 5c0 2.755 2.247 5 5.005 5a5.01 5.01 0 0 0 5.004-5m20.822 0c0 4.512-3.67 8.178-8.186 8.178s-8.186-3.666-8.186-8.178 3.681-8.178 8.186-8.178c4.506 0 8.186 3.666 8.186 8.178m-3.18 0c0-2.755-2.248-5-5.006-5a5.01 5.01 0 0 0-5.004 5c0 2.755 2.247 5 5.005 5a5.01 5.01 0 0 0 5.004-5"/></svg>