<?xml version="1.0" encoding="UTF-8"?>
<svg width="70px" height="76px" viewBox="0 0 70 76" version="1.1" xmlns="http://www.w3.org/2000/svg" xmlns:xlink="http://www.w3.org/1999/xlink">
    <!-- Generator: Sketch 52.1 (67048) - http://www.bohemiancoding.com/sketch -->
    <title>logo-gravity</title>
    <desc>Created with Sketch.</desc>
    <g id="Illustrations" stroke="none" stroke-width="1" fill="none" fill-rule="evenodd">
        <g id="Mobile" transform="translate(-73.000000, -505.000000)" fill="#1A237E" fill-rule="nonzero">
            <g id="logo-gravity" transform="translate(73.000000, 505.000000)">
                <path d="M69.2251282,48.7311731 L62.1775014,42.4243255 C62.429277,41.0142227 62.500989,39.4928673 62.500989,38.008776 C62.500989,36.5252248 62.429277,35.003869 62.1775014,33.5937664 L69.2251282,27.2863786 C69.7286795,26.9153558 69.9092669,26.2111146 69.6569678,25.617046 C68.218025,21.0540595 65.7374322,16.7130386 62.6805295,13.1146033 C62.2497365,12.5950634 61.6383557,12.4092819 61.0625693,12.669592 L52.1808013,15.8597401 C49.9875779,14.004626 47.5059381,12.5210748 44.8452813,11.4447307 L43.0838984,1.94773475 C42.9760689,1.35420626 42.4725176,0.797402013 41.8606134,0.723413475 C37.2579856,-0.241137825 32.5119348,-0.241137825 27.9093069,0.723413475 C27.2979263,0.797402013 26.7943749,1.35420626 26.6865458,1.94773475 L24.9246391,11.4452707 C22.2639821,12.5216149 19.7106308,14.0051661 17.5891193,15.8602801 L8.70735099,12.670132 C8.13208797,12.410362 7.5207074,12.5956034 7.08886752,13.1151434 C4.03248816,16.7135786 1.55137185,21.0545996 0.112952515,25.6175861 C-0.138823213,26.2116546 0.0412409252,26.9158959 0.544268936,27.2869187 L7.59189556,33.5943065 C7.34064325,35.003869 7.26840824,36.5257646 7.26840824,38.0093158 C7.26840824,39.4934072 7.34011982,41.0142227 7.59189556,42.4248653 L0.544792382,48.7311731 C0.0417643677,49.1021961 -0.13829977,49.8069774 0.113475957,50.4005057 C1.55189529,54.9640324 4.03301159,59.3050535 7.08939098,62.9034883 C7.52123083,63.4230287 8.1326114,63.6082696 8.70787445,63.3484999 L17.5896427,60.1578116 C19.7111542,62.0134658 22.2645056,63.497017 24.9251626,64.5728213 L26.6870692,74.0708974 C26.7948983,74.6644257 27.2979263,75.2212301 27.9098303,75.2952187 C30.2108825,75.7402296 32.5119348,76 34.8857454,76 C37.258509,76 39.5606083,75.7407698 41.8611368,75.2952187 C42.4730408,75.2212301 42.9765923,74.6644257 43.0844215,74.0708974 L44.8463282,64.5728213 C47.506985,63.497017 49.9881017,62.0134658 52.1818482,60.1578116 L61.0636162,63.3484999 C61.6394026,63.6077301 62.2507834,63.4230287 62.6815764,62.9034883 C65.7384791,59.3050535 68.219072,54.9640324 69.6580148,50.4005057 C69.9092669,49.8069774 69.7286795,49.1021961 69.2251282,48.7311731 L69.2251282,48.7311731 L69.2251282,48.7311731 L69.2251282,48.7311731 Z M34.9261861,62.509742 C21.78848,62.509742 11.1384115,51.5362734 11.1384115,38 C11.1384115,24.4637266 21.78848,13.490258 34.9261861,13.490258 C48.0638922,13.490258 58.7139608,24.4637266 58.7139608,38 C58.7139608,51.5362734 48.0638922,62.509742 34.9261861,62.509742 Z M47.6108515,37.6115914 C47.8258213,37.6115914 47.9997022,37.7854745 48,38.0001488 C48,45.1680657 42.1684301,51 35.0005955,51 C27.8318675,51 22,45.1683634 22,38.0001488 C22,30.8319343 27.8318675,25 35.0005955,25 C37.6466263,25 40.1944026,25.7920021 42.3679171,27.289958 C42.5441805,27.4120335 42.5888417,27.6535048 42.467363,27.8303654 L38.2075717,34.0228691 C38.089666,34.1946681 37.8571298,34.242605 37.6802711,34.1315461 C36.939192,33.6652772 36.0855664,33.4190419 35.2119921,33.4190419 C32.6460538,33.4190419 30.5582887,35.5068309 30.5582887,38.0733941 C30.5582887,40.6396596 32.645756,42.7274486 35.2119921,42.7274486 C36.494068,42.7274486 37.7186799,42.1900188 38.592552,41.267902 C38.5964226,41.2640314 38.6002932,41.2601604 38.6041638,41.2556945 C38.6071411,41.2527169 38.6104164,41.2497393 38.6133937,41.2464643 L38.6127982,41.2452734 C38.6672852,41.18364 38.7012277,41.1038443 38.7012277,41.0151162 C38.7012277,40.9269838 38.6672852,40.8465924 38.6127982,40.7849592 L38.6136917,40.7837683 L36.6444276,38.2380473 C36.5536164,38.1207356 36.5372407,37.9617398 36.6024462,37.8289454 C36.6679494,37.6958534 36.8034217,37.6115914 36.9516972,37.6115914 L47.6108515,37.6115914 Z M34.9261861,59.4174103 C46.4058157,59.4174103 55.7120406,49.8285924 55.7120406,38 C55.7120406,26.1714076 46.4058157,16.5825897 34.9261861,16.5825897 C23.4465566,16.5825897 14.1403316,26.1714076 14.1403316,38 C14.1403316,49.8285924 23.4465566,59.4174103 34.9261861,59.4174103 Z" id="Combined-Shape"></path>
            </g>
        </g>
    </g>
</svg>