<?xml version="1.0" encoding="UTF-8"?>
<svg width="269px" height="59px" viewBox="0 0 269 59" version="1.1" xmlns="http://www.w3.org/2000/svg" xmlns:xlink="http://www.w3.org/1999/xlink">
    <g id="Website" stroke="none" stroke-width="1" fill="none" fill-rule="evenodd">
        <g id="Homepage-Copy" transform="translate(-1036.000000, -699.000000)" fill="#000" fill-rule="nonzero">
            <g id="teleport-logo" transform="translate(1036.000000, 699.000000)">
                <path d="M53.577907,37.8307791 C53.9676387,38.1188101 54.1074073,38.6659429 53.9129466,39.1267083 C52.7992535,42.6694462 50.8793586,46.0394494 48.5134193,48.8329712 C48.1800001,49.2362986 47.7068121,49.3796852 47.2611729,49.1784407 L40.386985,46.701459 C38.6890994,48.1420327 36.768799,49.2937369 34.7095407,50.1289007 L33.3458845,57.5024072 C33.2624284,57.9631726 32.8726965,58.3954286 32.3991035,58.4528672 C30.6185723,58.7987555 28.8368254,59 27.0003866,59 C25.1631375,59 23.3822009,58.7983362 21.6012644,58.4528672 C21.1276714,58.3954286 20.7383447,57.9631726 20.6548886,57.5024072 L19.2912325,50.1289007 C17.231974,49.2937369 15.2557664,48.1420327 13.6137883,46.701459 L6.7396002,49.1784407 C6.29436606,49.3801041 5.82117819,49.2362986 5.48694875,48.8329712 C3.12141451,46.0394494 1.20111445,42.6694462 0.0878265515,39.1267083 C-0.107039343,38.6659429 0.0323242075,38.1188101 0.421650871,37.8307791 L5.87587029,32.9350928 C5.68100439,31.8399887 5.62550205,30.6593556 5.62550205,29.507232 C5.62550205,28.3555278 5.68140951,27.1740562 5.87587029,26.0797906 L0.421245742,21.1832658 C0.0319190808,20.895235 -0.10744447,20.3485213 0.0874214249,19.8873366 C1.20070932,16.3450181 3.1210094,12.975015 5.48654361,10.1814929 C5.82077307,9.7781658 6.29396095,9.63436 6.73919506,9.83602354 L13.6133832,12.3125859 C15.2553613,10.8724316 17.2315689,9.72072734 19.2908274,8.88514434 L20.6544835,1.51205724 C20.7379396,1.0512917 21.1276714,0.619035773 21.6008592,0.561597303 C25.1631375,-0.187199101 28.8364202,-0.187199101 32.3986984,0.561597303 C32.8722916,0.619035773 33.2620232,1.0512917 33.3454796,1.51205724 L34.7087304,8.88472511 C36.7679887,9.72030807 38.688694,10.8720123 40.3861747,12.3121666 L47.2603626,9.83560429 C47.7060018,9.6335215 48.1791898,9.77774658 48.5126091,10.1810736 C50.8785483,12.9745957 52.7984432,16.3445988 53.9121363,19.8869173 C54.1074073,20.3481021 53.9676387,20.8948157 53.577907,21.1828465 L48.1232823,26.0793713 C48.3181481,27.1740562 48.3736508,28.3551087 48.3736508,29.5068129 C48.3736508,30.6589365 48.3181481,31.8399887 48.1232823,32.9346737 L53.577907,37.8307791 Z M27.0316864,48.5272997 C37.1998263,48.5272997 45.4426191,40.0084228 45.4426191,29.5 C45.4426191,18.9915772 37.1998263,10.4727003 27.0316864,10.4727003 C16.8635464,10.4727003 8.62075363,18.9915772 8.62075363,29.5 C8.62075363,40.0084228 16.8635464,48.5272997 27.0316864,48.5272997 Z M27.0316864,46.1266738 C18.1468415,46.1266738 10.9441382,38.6827231 10.9441382,29.5 C10.9441382,20.3172769 18.1468415,12.8733262 27.0316864,12.8733262 C35.9165312,12.8733262 43.1192345,20.3172769 43.1192345,29.5 C43.1192345,38.6827231 35.9165312,46.1266738 27.0316864,46.1266738 Z M18.0255927,21.7368421 L18.0255927,26.3964071 L24.78128,26.3964071 L24.78128,38.0458111 L30.0352071,38.0458111 L30.0352071,26.3964071 L36.7960618,26.3964071 L36.7960618,21.7368421 L18.0255927,21.7368421 Z M96.1030806,16.6196404 L96.1030806,21.7704011 L88.0550948,21.7704011 L88.0550948,43.4578147 L82.0479858,43.4578147 L82.0479858,21.7704011 L74,21.7704011 L74,16.6196404 L96.1030806,16.6196404 Z M99.9537915,43.4578147 L99.9537915,16.6196404 L117.975118,16.6196404 L117.975118,21.6929461 L105.9609,21.6929461 L105.9609,26.9598893 L116.62737,26.9598893 L116.62737,31.9170124 L105.9609,31.9170124 L105.9609,38.384509 L118.860782,38.384509 L118.860782,43.4578147 L99.9537915,43.4578147 Z M141.117891,38.2683264 L141.117891,43.4578147 L123.2891,43.4578147 L123.2891,16.6196404 L129.296209,16.6196404 L129.296209,38.2683264 L141.117891,38.2683264 Z M144.968602,43.4578147 L144.968602,16.6196404 L162.989929,16.6196404 L162.989929,21.6929461 L150.975711,21.6929461 L150.975711,26.9598893 L161.64218,26.9598893 L161.64218,31.9170124 L150.975711,31.9170124 L150.975711,38.384509 L163.875592,38.384509 L163.875592,43.4578147 L144.968602,43.4578147 Z M176.313389,16.3098202 C180.292476,16.3098202 183.347343,17.0133632 185.478081,18.4204703 C187.608818,19.8275773 188.674171,22.131842 188.674171,25.3333333 C188.674171,28.5606432 187.595982,30.8907259 185.439573,32.3236515 C183.283165,33.756577 180.202627,34.473029 176.197867,34.473029 L174.311019,34.473029 L174.311019,43.4578147 L168.30391,43.4578147 L168.30391,17.0069156 C169.613158,16.7487308 170.9994,16.5680042 172.462678,16.4647303 C173.925955,16.3614564 175.209513,16.3098202 176.313389,16.3098202 Z M176.69846,21.4605809 C176.262044,21.4605809 175.832052,21.47349 175.408472,21.4993084 C174.984891,21.5251269 174.619077,21.550945 174.311019,21.5767635 L174.311019,29.3222683 L176.197867,29.3222683 C178.277262,29.3222683 179.843202,29.0382693 180.895735,28.4702628 C181.948268,27.9022563 182.474526,26.8437145 182.474526,25.2946058 C182.474526,24.5458699 182.339753,23.9262357 182.070201,23.4356846 C181.80065,22.9451336 181.415583,22.5514077 180.914988,22.2544952 C180.414393,21.9575827 179.804703,21.7510379 179.0859,21.6348548 C178.367098,21.5186716 177.571292,21.4605809 176.69846,21.4605809 Z M198.146919,30.0193638 C198.146919,31.3361062 198.307364,32.5237384 198.628258,33.582296 C198.949152,34.6408536 199.411233,35.5509413 200.014514,36.3125864 C200.617795,37.0742316 201.355841,37.6615931 202.228673,38.0746888 C203.101505,38.4877845 204.10268,38.6943292 205.232227,38.6943292 C206.336103,38.6943292 207.330861,38.4877845 208.216528,38.0746888 C209.102196,37.6615931 209.84666,37.0742316 210.449941,36.3125864 C211.053222,35.5509413 211.515303,34.6408536 211.836197,33.582296 C212.157091,32.5237384 212.317536,31.3361062 212.317536,30.0193638 C212.317536,28.7026214 212.157091,27.5085346 211.836197,26.4370678 C211.515303,25.3656009 211.053222,24.4490587 210.449941,23.6874136 C209.84666,22.9257684 209.102196,22.3384069 208.216528,21.9253112 C207.330861,21.5122155 206.336103,21.3056708 205.232227,21.3056708 C204.10268,21.3056708 203.101505,21.5186701 202.228673,21.944675 C201.355841,22.3706799 200.617795,22.964496 200.014514,23.7261411 C199.411233,24.4877862 198.949152,25.4043284 198.628258,26.4757953 C198.307364,27.5472622 198.146919,28.7284398 198.146919,30.0193638 Z M218.51718,30.0193638 C218.51718,32.3172084 218.177037,34.337474 217.496742,36.0802213 C216.816446,37.8229686 215.885867,39.2816908 214.704976,40.4564315 C213.524086,41.6311723 212.11859,42.5154419 210.488448,43.1092669 C208.858305,43.703092 207.106249,44 205.232227,44 C203.409549,44 201.689582,43.703092 200.072275,43.1092669 C198.454968,42.5154419 197.043055,41.6311723 195.836493,40.4564315 C194.629931,39.2816908 193.680098,37.8229686 192.986967,36.0802213 C192.293835,34.337474 191.947275,32.3172084 191.947275,30.0193638 C191.947275,27.7215192 192.306671,25.7012535 193.025474,23.9585062 C193.744277,22.2157589 194.713363,20.7505822 195.932761,19.5629322 C197.152159,18.3752822 198.564072,17.4845581 200.168543,16.8907331 C201.773014,16.296908 203.460892,16 205.232227,16 C207.054906,16 208.774873,16.296908 210.39218,16.8907331 C212.009487,17.4845581 213.4214,18.3752822 214.627962,19.5629322 C215.834524,20.7505822 216.784357,22.2157589 217.477488,23.9585062 C218.17062,25.7012535 218.51718,27.7215192 218.51718,30.0193638 Z M231.340047,16.3098202 C235.344807,16.3098202 238.412509,17.0262722 240.543246,18.4591978 C242.673984,19.8921233 243.739336,22.1189337 243.739336,25.1396957 C243.739336,27.0244446 243.309345,28.5541666 242.449348,29.7289073 C241.589352,30.9036481 240.350719,31.8266449 238.733412,32.4979253 C239.272515,33.1692058 239.83728,33.937294 240.427725,34.802213 C241.01817,35.667132 241.602189,36.5707652 242.179799,37.5131397 C242.757408,38.4555142 243.315756,39.4366016 243.854858,40.4564315 C244.39396,41.4762614 244.894547,42.4767125 245.356635,43.4578147 L238.617891,43.4578147 C238.130132,42.5799864 237.635962,41.6892622 237.135367,40.7856155 C236.634772,39.8819687 236.121349,39.0041536 235.595083,38.1521438 C235.068816,37.3001341 234.548976,36.4933187 234.035545,35.7316736 C233.522114,34.9700285 233.008691,34.2793945 232.495261,33.659751 L229.530213,33.659751 L229.530213,43.4578147 L223.523104,43.4578147 L223.523104,17.0069156 C224.832353,16.7487308 226.186506,16.5680042 227.585604,16.4647303 C228.984703,16.3614564 230.236171,16.3098202 231.340047,16.3098202 Z M231.686611,21.4605809 C231.250195,21.4605809 230.85871,21.47349 230.512145,21.4993084 C230.165579,21.5251269 229.838272,21.550945 229.530213,21.5767635 L229.530213,28.857538 L231.224526,28.857538 C233.483621,28.857538 235.100903,28.573539 236.076422,28.0055325 C237.05194,27.437526 237.539692,26.4693476 237.539692,25.1009682 C237.539692,23.7842258 237.045522,22.84832 236.057168,22.2932227 C235.068814,21.7381254 233.611976,21.4605809 231.686611,21.4605809 Z M269,16.6196404 L269,21.7704011 L260.952014,21.7704011 L260.952014,43.4578147 L254.944905,43.4578147 L254.944905,21.7704011 L246.896919,21.7704011 L246.896919,16.6196404 L269,16.6196404 Z" id="Combined-Shape"></path>
            </g>
        </g>
    </g>
</svg>