<?xml version="1.0" encoding="UTF-8"?>
<svg width="24px" height="19px" viewBox="0 0 24 19" version="1.1" xmlns="http://www.w3.org/2000/svg" xmlns:xlink="http://www.w3.org/1999/xlink">
    <!-- Generator: Sketch 43.2 (39069) - http://www.bohemiancoding.com/sketch -->
    <title>twitter</title>
    <desc>Created with Sketch.</desc>
    <defs>
        <rect id="path-1" x="0" y="0" width="24" height="24"></rect>
    </defs>
    <g id="Website" stroke="none" stroke-width="1" fill="none" fill-rule="evenodd">
        <g id="Demo-Signup-Form" transform="translate(-392.000000, -835.000000)">
            <g id="twitter" transform="translate(392.000000, 832.000000)">
                <mask id="mask-2" fill="white">
                    <use xlink:href="#path-1"></use>
                </mask>
                <g id="Rectangle-2"></g>
                <path d="M24,5.26084739 C23.1166667,5.64164859 22.1688627,5.89990361 21.1730196,6.0152008 C22.1898431,5.42280522 22.9681961,4.48318273 23.337098,3.36698996 C22.3832941,3.91558635 21.3304706,4.31393775 20.2086667,4.52988153 C19.3103529,3.59754618 18.0325882,3.0168253 16.6153333,3.0168253 C13.8963529,3.0168253 11.6917647,5.1616506 11.6917647,7.8054739 C11.6917647,8.18043775 11.7352549,8.54666466 11.8192549,8.89686747 C7.72803922,8.69694779 4.10023529,6.78996586 1.67219608,3.89223695 C1.24776471,4.59844177 1.00631373,5.42131727 1.00631373,6.29970482 C1.00631373,7.96159438 1.87615686,9.42795181 3.19592157,10.2858514 C2.38905882,10.2596024 1.63019608,10.0436586 0.965843137,9.68471888 L0.965843137,9.74454217 C0.965843137,12.0644498 2.66352941,14.0006185 4.91458824,14.4412811 C4.50215686,14.549253 4.0672549,14.6090763 3.61733333,14.6090763 C3.29941176,14.6090763 2.99196078,14.5784398 2.6905098,14.5200663 C3.31737255,16.4241486 5.13505882,17.8087831 7.28866667,17.846745 C5.60447059,19.1307329 3.48086275,19.8938233 1.17431373,19.8938233 C0.776901961,19.8938233 0.38545098,19.8704739 3.92156863e-05,19.8281627 C2.17913725,21.1894859 4.76615686,21.9832129 7.54662745,21.9832129 C16.6034118,21.9832129 21.554,14.6849618 21.554,8.35555823 L21.5374902,7.73546386 C22.5047843,7.06424498 23.3416078,6.22091968 24,5.26084739 Z" id="Shape" fill="#FFFFFF" fill-rule="nonzero" mask="url(#mask-2)"></path>
            </g>
        </g>
    </g>
</svg>