<svg width="72" height="72" viewBox="0 0 72 72" fill="none" xmlns="http://www.w3.org/2000/svg">
<path fill-rule="evenodd" clip-rule="evenodd" d="M36.2126 3.00964C28.972 2.99453 21.8937 5.15489 15.8955 9.21064C9.89736 13.2664 5.25583 19.0305 2.5727 25.7557C-0.110419 32.4809 -0.711398 39.857 0.847671 46.9279C2.40674 53.9987 6.05395 60.4382 11.3165 65.4114C12.5509 66.5868 14.1652 67.2815 15.8674 67.3699C17.5695 67.4583 19.2471 66.9345 20.5965 65.8932C25.0488 62.5799 30.4508 60.7904 36.0006 60.7904C41.5505 60.7904 46.9524 62.5799 51.4047 65.8932C52.7671 66.9368 54.4592 67.456 56.1725 67.356C57.8857 67.2561 59.506 66.5437 60.7378 65.3488C65.9591 60.394 69.5818 53.9928 71.1415 46.9657C72.7011 39.9386 72.1267 32.6059 69.4919 25.9074C66.857 19.2089 62.2817 13.4499 56.3525 9.36862C50.4233 5.28732 43.4104 3.06969 36.2126 3M36.0006 57.1721C33.6208 57.2365 31.2529 56.8152 29.0413 55.9342C26.8297 55.0531 24.8208 53.7306 23.1372 52.0475C21.4536 50.3643 20.1306 48.3558 19.2489 46.1444C18.3673 43.933 17.9454 41.5652 18.0091 39.1854C18.0091 34.4138 19.9046 29.8376 23.2787 26.4635C26.6528 23.0894 31.229 21.1939 36.0006 21.1939C40.7723 21.1939 45.3485 23.0894 48.7226 26.4635C52.0966 29.8376 53.9922 34.4138 53.9922 39.1854C54.0559 41.5652 53.634 43.933 52.7523 46.1444C51.8707 48.3558 50.5477 50.3643 48.8641 52.0475C47.1805 53.7306 45.1716 55.0531 42.9599 55.9342C40.7483 56.8152 38.3804 57.2365 36.0006 57.1721Z" fill="#62D84E"/>
</svg>
