<svg width="72" height="72" viewBox="0 0 72 72" fill="none" xmlns="http://www.w3.org/2000/svg">
<g clip-path="url(#clip0_6211_26692)">
<path d="M15 45.2002C15 49.4002 11.6 52.7002 7.5 52.7002C3.4 52.7002 0 49.3002 0 45.2002C0 41.1002 3.4 37.7002 7.5 37.7002H15V45.2002Z" fill="#E01E5A"/>
<path d="M18.7998 45.2002C18.7998 41.0002 22.1998 37.7002 26.2998 37.7002C30.3998 37.7002 33.7998 41.1002 33.7998 45.2002V64.1002C33.7998 68.3002 30.3998 71.6002 26.2998 71.6002C22.1998 71.6002 18.7998 68.2002 18.7998 64.1002V45.2002Z" fill="#E01E5A"/>
<path d="M26.4004 15C22.2004 15 18.9004 11.6 18.9004 7.5C18.9004 3.4 22.3004 0 26.4004 0C30.5004 0 33.9004 3.4 33.9004 7.5V15H26.4004Z" fill="#36C5F0"/>
<path d="M26.4 18.7998C30.6 18.7998 33.9 22.1998 33.9 26.2998C33.9 30.3998 30.5 33.7998 26.4 33.7998H7.5C3.3 33.7998 0 30.3998 0 26.2998C0 22.1998 3.4 18.7998 7.5 18.7998H26.4Z" fill="#36C5F0"/>
<path d="M56.5 26.3999C56.5 22.1999 59.9 18.8999 64 18.8999C68.2 18.8999 71.5 22.2999 71.5 26.3999C71.5 30.4999 68.1 33.8999 64 33.8999H56.5V26.3999Z" fill="#2EB67D"/>
<path d="M52.7998 26.4C52.7998 30.6 49.3998 33.9 45.2998 33.9C41.1998 33.9 37.7998 30.5 37.7998 26.4V7.5C37.7998 3.3 41.1998 0 45.2998 0C49.3998 0 52.7998 3.4 52.7998 7.5V26.4Z" fill="#2EB67D"/>
<path d="M45.2002 56.5C49.4002 56.5 52.7002 59.9 52.7002 64C52.7002 68.2 49.3002 71.5 45.2002 71.5C41.1002 71.5 37.7002 68.1 37.7002 64V56.5H45.2002Z" fill="#ECB22E"/>
<path d="M45.2002 52.7998C41.0002 52.7998 37.7002 49.3998 37.7002 45.2998C37.7002 41.1998 41.1002 37.7998 45.2002 37.7998H64.1002C68.3002 37.7998 71.6002 41.1998 71.6002 45.2998C71.6002 49.3998 68.2002 52.7998 64.1002 52.7998H45.2002Z" fill="#ECB22E"/>
</g>
<defs>
<clipPath id="clip0_6211_26692">
<rect width="72" height="72" fill="white"/>
</clipPath>
</defs>
</svg>
