<?xml version="1.0" encoding="UTF-8"?>
<svg width="92px" height="26px" viewBox="0 0 92 26" version="1.1" xmlns="http://www.w3.org/2000/svg" xmlns:xlink="http://www.w3.org/1999/xlink">
    <g id="Gravity-Cluster---Dev-Experience" stroke="none" stroke-width="1" fill="none" fill-rule="evenodd">
        <g id="Cluster---Auth-Connectors" transform="translate(-835.000000, -404.000000)" fill="#FFFFFF" fill-rule="nonzero">
            <g id="blankstate" transform="translate(352.000000, 191.000000)">
                <g id="gravity/hints/card-copy-2" transform="translate(448.000000, 145.000000)">
                    <path d="M43.05,89.71 C44.6366746,89.71 45.7916631,89.4416693 46.515,88.905 C47.238337,88.3683306 47.6,87.6100049 47.6,86.63 C47.6,86.0466637 47.4775012,85.5450021 47.2325,85.125 C46.9874988,84.7049979 46.6375023,84.325835 46.1825,83.9875 C45.7274977,83.649165 45.1733366,83.3341681 44.52,83.0425 C43.8666634,82.7508319 43.1200042,82.4650014 42.28,82.185 C41.4399958,81.8816652 40.6291706,81.5491685 39.8475,81.1875 C39.0658294,80.8258315 38.377503,80.3766694 37.7825,79.84 C37.187497,79.3033306 36.7091685,78.6616704 36.3475,77.915 C35.9858315,77.1683296 35.805,76.2700052 35.805,75.22 C35.805,73.0266557 36.5633258,71.3058396 38.08,70.0575 C39.5966742,68.8091604 41.6616536,68.185 44.275,68.185 C45.7916742,68.185 47.1391608,68.354165 48.3175,68.6925 C49.4958392,69.030835 50.42333,69.3983314 51.1,69.795 L49.735,73.365 C48.9416627,72.9216644 48.0725047,72.5833345 47.1275,72.35 C46.1824953,72.1166655 45.2083384,72 44.205,72 C43.014994,72 42.0875033,72.2449975 41.4225,72.735 C40.7574967,73.2250025 40.425,73.9133289 40.425,74.8 C40.425,75.3366693 40.5358322,75.7974981 40.7575,76.1825 C40.9791678,76.5675019 41.2941646,76.9116652 41.7025,77.215 C42.1108354,77.5183349 42.5891639,77.798332 43.1375,78.055 C43.6858361,78.311668 44.2866634,78.5566655 44.94,78.79 C46.083339,79.2100021 47.1041622,79.6358312 48.0025,80.0675 C48.9008378,80.4991688 49.6591636,81.012497 50.2775,81.6075 C50.8958364,82.202503 51.3683317,82.902496 51.695,83.7075 C52.0216683,84.512504 52.185,85.486661 52.185,86.63 C52.185,88.8233443 51.4091744,90.5208273 49.8575,91.7225 C48.3058256,92.9241727 46.0366816,93.525 43.05,93.525 C42.0466617,93.525 41.1308375,93.460834 40.3025,93.3325 C39.4741625,93.204166 38.7391699,93.0466676 38.0975,92.86 C37.4558301,92.6733324 36.901669,92.4808343 36.435,92.2825 C35.968331,92.0841657 35.5950014,91.9033342 35.315,91.74 L36.61,88.135 C37.2400031,88.4850018 38.0916613,88.8349982 39.165,89.185 C40.2383387,89.5350017 41.5333258,89.71 43.05,89.71 Z M72.17,93 C71.8433317,92.0433285 71.5050018,91.098338 71.155,90.165 C70.8049983,89.231662 70.4666683,88.2750049 70.14,87.295 L59.92,87.295 C59.5933317,88.2750049 59.260835,89.2374953 58.9225,90.1825 C58.584165,91.1275047 58.2516683,92.066662 57.925,93 L53.34,93 C54.2500045,90.409987 55.1133293,88.0183443 55.93,85.825 C56.7466708,83.6316557 57.5458294,81.5550098 58.3275,79.595 C59.1091706,77.6349902 59.8849962,75.7683422 60.655,73.995 C61.4250039,72.2216578 62.2183293,70.4716753 63.035,68.745 L67.2,68.745 C68.0166708,70.4716753 68.8099962,72.2216578 69.58,73.995 C70.3500039,75.7683422 71.1258294,77.6349902 71.9075,79.595 C72.6891706,81.5550098 73.4941625,83.6316557 74.3225,85.825 C75.1508375,88.0183443 76.0199955,90.409987 76.93,93 L72.17,93 Z M65.03,73.435 C64.4933307,74.6716728 63.8808368,76.1766578 63.1925,77.95 C62.5041632,79.7233422 61.7866704,81.6483229 61.04,83.725 L69.02,83.725 C68.2733296,81.6483229 67.5500035,79.7116757 66.85,77.915 C66.1499965,76.1183243 65.5433359,74.625006 65.03,73.435 Z M85.295,68.745 C85.8083359,69.6316711 86.3799968,70.7166602 87.01,72 C87.6400031,73.2833397 88.2816634,74.6308263 88.935,76.0425 C89.5883366,77.4541737 90.2358301,78.8891594 90.8775,80.3475 C91.5191699,81.8058406 92.1083306,83.1533271 92.645,84.39 C93.1816694,83.1533271 93.7649969,81.8058406 94.395,80.3475 C95.0250032,78.8891594 95.6666634,77.4541737 96.32,76.0425 C96.9733366,74.6308263 97.6149969,73.2833397 98.245,72 C98.8750031,70.7166602 99.4466641,69.6316711 99.96,68.745 L103.95,68.745 C104.160001,70.5183422 104.358332,72.40249 104.545,74.3975 C104.731668,76.39251 104.900833,78.4341562 105.0525,80.5225 C105.204167,82.6108438 105.344166,84.7108228 105.4725,86.8225 C105.600834,88.9341772 105.711666,90.9933233 105.805,93 L101.465,93 C101.371666,90.1766526 101.260834,87.2716816 101.1325,84.285 C101.004166,81.2983184 100.811668,78.405014 100.555,75.605 C100.298332,76.1416694 99.9950018,76.7833296 99.645,77.53 C99.2949983,78.2766704 98.9216687,79.0874956 98.525,79.9625 C98.1283313,80.8375044 97.7258354,81.741662 97.3175,82.675 C96.9091646,83.608338 96.5125019,84.5124956 96.1275,85.3875 C95.7424981,86.2625044 95.3866683,87.0791629 95.06,87.8375 C94.7333317,88.5958371 94.4533345,89.2433306 94.22,89.78 L90.93,89.78 C90.6966655,89.2433306 90.4166683,88.5900039 90.09,87.82 C89.7633317,87.0499961 89.4075019,86.2275044 89.0225,85.3525 C88.6374981,84.4774956 88.2408354,83.573338 87.8325,82.64 C87.4241646,81.706662 87.0216687,80.8083376 86.625,79.945 C86.2283314,79.0816624 85.8550017,78.2708371 85.505,77.5125 C85.1549983,76.7541629 84.851668,76.1183359 84.595,75.605 C84.3383321,78.405014 84.145834,81.2983184 84.0175,84.285 C83.889166,87.2716816 83.7783338,90.1766526 83.685,93 L79.345,93 C79.4383338,90.9933233 79.549166,88.9166774 79.6775,86.77 C79.805834,84.6233226 79.9458326,82.4941772 80.0975,80.3825 C80.2491674,78.2708228 80.4183324,76.2233432 80.605,74.24 C80.7916676,72.2566567 80.989999,70.4250084 81.2,68.745 L85.295,68.745 Z M126.28,89.185 L126.28,93 L110.95,93 L110.95,68.745 L115.36,68.745 L115.36,89.185 L126.28,89.185 Z" id="SAML"></path>
                </g>
            </g>
        </g>
    </g>
</svg>