<?xml version="1.0" encoding="UTF-8"?>
<svg width="738px" height="304px" viewBox="0 0 738 304" version="1.1" xmlns="http://www.w3.org/2000/svg" xmlns:xlink="http://www.w3.org/1999/xlink">
    <!-- Generator: Sketch 59 (86127) - https://sketch.com -->
    <title>Node Auth</title>
    <desc>Created with Sketch.</desc>
    <defs>
        <filter x="-8.2%" y="-12.0%" width="116.3%" height="140.0%" filterUnits="objectBoundingBox" id="filter-1">
            <feOffset dx="0" dy="1" in="SourceAlpha" result="shadowOffsetOuter1"></feOffset>
            <feGaussianBlur stdDeviation="0.5" in="shadowOffsetOuter1" result="shadowBlurOuter1"></feGaussianBlur>
            <feColorMatrix values="0 0 0 0 0   0 0 0 0 0   0 0 0 0 0  0 0 0 0.5 0" type="matrix" in="shadowBlurOuter1" result="shadowMatrixOuter1"></feColorMatrix>
            <feMerge>
                <feMergeNode in="shadowMatrixOuter1"></feMergeNode>
                <feMergeNode in="SourceGraphic"></feMergeNode>
            </feMerge>
        </filter>
        <path d="M12.819426,-5.17920154e-16 L232.180574,5.17920154e-16 C236.638168,-3.00926524e-16 238.254599,0.464128056 239.884229,1.33566352 C241.513858,2.20719898 242.792801,3.48614185 243.664336,5.11577148 C244.535872,6.74540111 245,8.3618323 245,12.819426 L245,87.180574 C245,91.6381677 244.535872,93.2545989 243.664336,94.8842285 C242.792801,96.5138581 241.513858,97.792801 239.884229,98.6643365 C238.254599,99.5358719 236.638168,100 232.180574,100 L12.819426,100 C8.3618323,100 6.74540111,99.5358719 5.11577148,98.6643365 C3.48614185,97.792801 2.20719898,96.5138581 1.33566352,94.8842285 C0.464128056,93.2545989 2.00617683e-16,91.6381677 -3.45280103e-16,87.180574 L3.45280103e-16,12.819426 C-2.00617683e-16,8.3618323 0.464128056,6.74540111 1.33566352,5.11577148 C2.20719898,3.48614185 3.48614185,2.20719898 5.11577148,1.33566352 C6.74540111,0.464128056 8.3618323,3.00926524e-16 12.819426,-5.17920154e-16 Z" id="path-2"></path>
        <filter x="-11.4%" y="-20.0%" width="122.9%" height="156.0%" filterUnits="objectBoundingBox" id="filter-3">
            <feOffset dx="0" dy="8" in="SourceAlpha" result="shadowOffsetOuter1"></feOffset>
            <feGaussianBlur stdDeviation="8" in="shadowOffsetOuter1" result="shadowBlurOuter1"></feGaussianBlur>
            <feColorMatrix values="0 0 0 0 0   0 0 0 0 0   0 0 0 0 0  0 0 0 0.103742074 0" type="matrix" in="shadowBlurOuter1"></feColorMatrix>
        </filter>
        <rect id="path-4" x="0" y="0" width="121" height="107" rx="10"></rect>
        <filter x="-5.8%" y="-4.7%" width="111.6%" height="113.1%" filterUnits="objectBoundingBox" id="filter-5">
            <feOffset dx="0" dy="2" in="SourceAlpha" result="shadowOffsetOuter1"></feOffset>
            <feGaussianBlur stdDeviation="2" in="shadowOffsetOuter1" result="shadowBlurOuter1"></feGaussianBlur>
            <feColorMatrix values="0 0 0 0 0   0 0 0 0 0   0 0 0 0 0  0 0 0 0.5 0" type="matrix" in="shadowBlurOuter1"></feColorMatrix>
        </filter>
        <rect id="path-6" x="482" y="11" width="252" height="224" rx="10"></rect>
        <filter x="-2.8%" y="-2.2%" width="105.6%" height="106.2%" filterUnits="objectBoundingBox" id="filter-7">
            <feOffset dx="0" dy="2" in="SourceAlpha" result="shadowOffsetOuter1"></feOffset>
            <feGaussianBlur stdDeviation="2" in="shadowOffsetOuter1" result="shadowBlurOuter1"></feGaussianBlur>
            <feColorMatrix values="0 0 0 0 0   0 0 0 0 0   0 0 0 0 0  0 0 0 0.5 0" type="matrix" in="shadowBlurOuter1"></feColorMatrix>
        </filter>
        <filter x="-3.0%" y="-3.4%" width="106.0%" height="106.9%" filterUnits="objectBoundingBox" id="filter-8">
            <feOffset dx="0" dy="1" in="SourceAlpha" result="shadowOffsetOuter1"></feOffset>
            <feGaussianBlur stdDeviation="1" in="shadowOffsetOuter1" result="shadowBlurOuter1"></feGaussianBlur>
            <feColorMatrix values="0 0 0 0 0   0 0 0 0 0   0 0 0 0 0  0 0 0 0.5 0" type="matrix" in="shadowBlurOuter1" result="shadowMatrixOuter1"></feColorMatrix>
            <feMerge>
                <feMergeNode in="shadowMatrixOuter1"></feMergeNode>
                <feMergeNode in="SourceGraphic"></feMergeNode>
            </feMerge>
        </filter>
    </defs>
    <g id="Node-Auth" stroke="none" stroke-width="1" fill="none" fill-rule="evenodd">
        <g id="teleport-proxy-4" transform="translate(16.000000, 38.000000)">
            <g id="teleport-proxy-3">
                <g id="teleport-proxy-2">
                    <g id="teleport-proxy" filter="url(#filter-1)">
                        <g id="Rectangle-Copy-6">
                            <use fill="black" fill-opacity="1" filter="url(#filter-3)" xlink:href="#path-2"></use>
                            <use fill="#FFFFFF" fill-rule="evenodd" xlink:href="#path-2"></use>
                        </g>
                        <g transform="translate(13.000000, 10.000000)">
                            <path d="M10,1.5 C5.30557963,1.5 1.5,5.30557963 1.5,10 L1.5,70 C1.5,74.6944204 5.30557963,78.5 10,78.5 L210,78.5 C214.69442,78.5 218.5,74.6944204 218.5,70 L218.5,10 C218.5,5.30557963 214.69442,1.5 210,1.5 L10,1.5 Z" id="Rectangle-17" stroke="#40B6C6" stroke-width="3" fill="#FFFFFF"></path>
                            <path d="M57,33 L66.248,33 L66.248,34.728 L62.616,34.728 L62.616,44.424 L60.616,44.424 L60.616,34.728 L57,34.728 L57,33 Z M71.224,39.56 C71.2026666,39.2719986 71.1413338,38.994668 71.04,38.728 C70.9386662,38.461332 70.8000009,38.2293343 70.624,38.032 C70.4479991,37.8346657 70.2346679,37.6746673 69.984,37.552 C69.7333321,37.4293327 69.4533349,37.368 69.144,37.368 C68.8239984,37.368 68.5333346,37.4239994 68.272,37.536 C68.0106654,37.6480006 67.7866676,37.8026657 67.6,38 C67.4133324,38.1973343 67.2640006,38.429332 67.152,38.696 C67.0399994,38.962668 66.9786667,39.2506651 66.968,39.56 L71.224,39.56 Z M66.968,40.76 C66.968,41.0800016 67.0133329,41.3893318 67.104,41.688 C67.1946671,41.9866682 67.3306658,42.2479989 67.512,42.472 C67.6933342,42.6960011 67.9226653,42.874666 68.2,43.008 C68.4773347,43.141334 68.8079981,43.208 69.192,43.208 C69.725336,43.208 70.154665,43.0933345 70.48,42.864 C70.805335,42.6346655 71.0479992,42.290669 71.208,41.832 L72.936,41.832 C72.8399995,42.2800022 72.6746678,42.6799982 72.44,43.032 C72.2053322,43.3840018 71.9226683,43.6799988 71.592,43.92 C71.2613317,44.1600012 70.8906687,44.3413327 70.48,44.464 C70.0693313,44.5866673 69.6400022,44.648 69.192,44.648 C68.5413301,44.648 67.9653358,44.5413344 67.464,44.328 C66.9626642,44.1146656 66.5386684,43.8160019 66.192,43.432 C65.8453316,43.0479981 65.5840009,42.589336 65.408,42.056 C65.2319991,41.522664 65.144,40.9360032 65.144,40.296 C65.144,39.7093304 65.2373324,39.1520026 65.424,38.624 C65.6106676,38.0959974 65.8773316,37.632002 66.224,37.232 C66.5706684,36.831998 66.9893309,36.5146678 67.48,36.28 C67.9706691,36.0453322 68.5253302,35.928 69.144,35.928 C69.7946699,35.928 70.3786641,36.0639986 70.896,36.336 C71.4133359,36.6080014 71.842665,36.9679978 72.184,37.416 C72.525335,37.8640022 72.7733326,38.3786638 72.928,38.96 C73.0826674,39.5413362 73.122667,40.1413302 73.048,40.76 L66.968,40.76 Z M74.488,33 L76.312,33 L76.312,44.424 L74.488,44.424 L74.488,33 Z M83.976,39.56 C83.9546666,39.2719986 83.8933338,38.994668 83.792,38.728 C83.6906662,38.461332 83.5520009,38.2293343 83.376,38.032 C83.1999991,37.8346657 82.9866679,37.6746673 82.736,37.552 C82.4853321,37.4293327 82.2053349,37.368 81.896,37.368 C81.5759984,37.368 81.2853346,37.4239994 81.024,37.536 C80.7626654,37.6480006 80.5386676,37.8026657 80.352,38 C80.1653324,38.1973343 80.0160006,38.429332 79.904,38.696 C79.7919994,38.962668 79.7306667,39.2506651 79.72,39.56 L83.976,39.56 Z M79.72,40.76 C79.72,41.0800016 79.7653329,41.3893318 79.856,41.688 C79.9466671,41.9866682 80.0826658,42.2479989 80.264,42.472 C80.4453342,42.6960011 80.6746653,42.874666 80.952,43.008 C81.2293347,43.141334 81.5599981,43.208 81.944,43.208 C82.477336,43.208 82.906665,43.0933345 83.232,42.864 C83.557335,42.6346655 83.7999992,42.290669 83.96,41.832 L85.688,41.832 C85.5919995,42.2800022 85.4266678,42.6799982 85.192,43.032 C84.9573322,43.3840018 84.6746683,43.6799988 84.344,43.92 C84.0133317,44.1600012 83.6426687,44.3413327 83.232,44.464 C82.8213313,44.5866673 82.3920022,44.648 81.944,44.648 C81.2933301,44.648 80.7173358,44.5413344 80.216,44.328 C79.7146642,44.1146656 79.2906684,43.8160019 78.944,43.432 C78.5973316,43.0479981 78.3360009,42.589336 78.16,42.056 C77.9839991,41.522664 77.896,40.9360032 77.896,40.296 C77.896,39.7093304 77.9893324,39.1520026 78.176,38.624 C78.3626676,38.0959974 78.6293316,37.632002 78.976,37.232 C79.3226684,36.831998 79.7413309,36.5146678 80.232,36.28 C80.7226691,36.0453322 81.2773302,35.928 81.896,35.928 C82.5466699,35.928 83.1306641,36.0639986 83.648,36.336 C84.1653359,36.6080014 84.594665,36.9679978 84.936,37.416 C85.277335,37.8640022 85.5253326,38.3786638 85.68,38.96 C85.8346674,39.5413362 85.874667,40.1413302 85.8,40.76 L79.72,40.76 Z M87.24,36.152 L88.968,36.152 L88.968,37.272 L89,37.272 C89.2560013,36.7919976 89.613331,36.448001 90.072,36.24 C90.530669,36.031999 91.026664,35.928 91.56,35.928 C92.2106699,35.928 92.7786642,36.0426655 93.264,36.272 C93.7493358,36.5013345 94.1519984,36.815998 94.472,37.216 C94.7920016,37.616002 95.0319992,38.082664 95.192,38.616 C95.3520008,39.149336 95.432,39.719997 95.432,40.328 C95.432,40.8826694 95.3600007,41.4213307 95.216,41.944 C95.0719993,42.4666693 94.8533348,42.928 94.56,43.328 C94.2666652,43.728002 93.8960022,44.0479988 93.448,44.288 C92.9999978,44.5280012 92.472003,44.648 91.864,44.648 C91.597332,44.648 91.330668,44.6240002 91.064,44.576 C90.797332,44.5279998 90.5413346,44.4506672 90.296,44.344 C90.0506654,44.2373328 89.824001,44.1013342 89.616,43.936 C89.407999,43.7706658 89.2346674,43.5760011 89.096,43.352 L89.064,43.352 L89.064,47.48 L87.24,47.48 L87.24,36.152 Z M93.608,40.296 C93.608,39.9226648 93.5600005,39.5600018 93.464,39.208 C93.3679995,38.8559982 93.224001,38.5440014 93.032,38.272 C92.839999,37.9999986 92.6000014,37.7813342 92.312,37.616 C92.0239986,37.4506658 91.6933352,37.368 91.32,37.368 C90.5519962,37.368 89.9733353,37.634664 89.584,38.168 C89.1946647,38.701336 89,39.4106622 89,40.296 C89,40.7120021 89.0506662,41.0986649 89.152,41.456 C89.2533338,41.8133351 89.4053323,42.1199987 89.608,42.376 C89.8106677,42.6320013 90.0533319,42.8346659 90.336,42.984 C90.6186681,43.1333341 90.9466648,43.208 91.32,43.208 C91.7360021,43.208 92.0879986,43.1226675 92.376,42.952 C92.6640014,42.7813325 92.9013324,42.5600014 93.088,42.288 C93.2746676,42.0159986 93.4079996,41.7066684 93.488,41.36 C93.5680004,41.0133316 93.608,40.6586685 93.608,40.296 Z M100.76,44.648 C100.098663,44.648 99.5093359,44.5386678 98.992,44.32 C98.4746641,44.1013322 98.0373351,43.8000019 97.68,43.416 C97.3226649,43.0319981 97.0506676,42.573336 96.864,42.04 C96.6773324,41.506664 96.584,40.9200032 96.584,40.28 C96.584,39.6506635 96.6773324,39.069336 96.864,38.536 C97.0506676,38.002664 97.3226649,37.5440019 97.68,37.16 C98.0373351,36.7759981 98.4746641,36.4746678 98.992,36.256 C99.5093359,36.0373322 100.098663,35.928 100.76,35.928 C101.421337,35.928 102.010664,36.0373322 102.528,36.256 C103.045336,36.4746678 103.482665,36.7759981 103.84,37.16 C104.197335,37.5440019 104.469332,38.002664 104.656,38.536 C104.842668,39.069336 104.936,39.6506635 104.936,40.28 C104.936,40.9200032 104.842668,41.506664 104.656,42.04 C104.469332,42.573336 104.197335,43.0319981 103.84,43.416 C103.482665,43.8000019 103.045336,44.1013322 102.528,44.32 C102.010664,44.5386678 101.421337,44.648 100.76,44.648 Z M100.76,43.208 C101.165335,43.208 101.517332,43.1226675 101.816,42.952 C102.114668,42.7813325 102.359999,42.5573347 102.552,42.28 C102.744001,42.0026653 102.885333,41.6906684 102.976,41.344 C103.066667,40.9973316 103.112,40.6426685 103.112,40.28 C103.112,39.9279982 103.066667,39.5760018 102.976,39.224 C102.885333,38.8719982 102.744001,38.5600014 102.552,38.288 C102.359999,38.0159986 102.114668,37.7946675 101.816,37.624 C101.517332,37.4533325 101.165335,37.368 100.76,37.368 C100.354665,37.368 100.002668,37.4533325 99.704,37.624 C99.4053318,37.7946675 99.160001,38.0159986 98.968,38.288 C98.775999,38.5600014 98.6346671,38.8719982 98.544,39.224 C98.4533329,39.5760018 98.408,39.9279982 98.408,40.28 C98.408,40.6426685 98.4533329,40.9973316 98.544,41.344 C98.6346671,41.6906684 98.775999,42.0026653 98.968,42.28 C99.160001,42.5573347 99.4053318,42.7813325 99.704,42.952 C100.002668,43.1226675 100.354665,43.208 100.76,43.208 Z M106.456,36.152 L108.168,36.152 L108.168,37.752 L108.2,37.752 C108.253334,37.5279989 108.357333,37.3093344 108.512,37.096 C108.666667,36.8826656 108.853332,36.6880009 109.072,36.512 C109.290668,36.3359991 109.533332,36.1946672 109.8,36.088 C110.066668,35.9813328 110.338665,35.928 110.616,35.928 C110.829334,35.928 110.976,35.9333333 111.056,35.944 C111.136,35.9546667 111.218666,35.9653333 111.304,35.976 L111.304,37.736 C111.175999,37.7146666 111.045334,37.6960001 110.912,37.68 C110.778666,37.6639999 110.648001,37.656 110.52,37.656 C110.210665,37.656 109.920001,37.7173327 109.648,37.84 C109.375999,37.9626673 109.138668,38.1439988 108.936,38.384 C108.733332,38.6240012 108.573334,38.9199982 108.456,39.272 C108.338666,39.6240018 108.28,40.029331 108.28,40.488 L108.28,44.424 L106.456,44.424 L106.456,36.152 Z M111.256,36.152 L112.632,36.152 L112.632,33.672 L114.456,33.672 L114.456,36.152 L116.104,36.152 L116.104,37.512 L114.456,37.512 L114.456,41.928 C114.456,42.120001 114.464,42.2853326 114.48,42.424 C114.496,42.5626674 114.533333,42.6799995 114.592,42.776 C114.650667,42.8720005 114.738666,42.9439998 114.856,42.992 C114.973334,43.0400002 115.133332,43.064 115.336,43.064 C115.464001,43.064 115.591999,43.0613334 115.72,43.056 C115.848001,43.0506666 115.975999,43.0320002 116.104,43 L116.104,44.408 C115.901332,44.4293334 115.704001,44.4506666 115.512,44.472 C115.319999,44.4933334 115.122668,44.504 114.92,44.504 C114.439998,44.504 114.053335,44.4586671 113.76,44.368 C113.466665,44.2773329 113.237334,44.1440009 113.072,43.968 C112.906666,43.7919991 112.794667,43.570668 112.736,43.304 C112.677333,43.037332 112.642667,42.733335 112.632,42.392 L112.632,37.512 L111.256,37.512 L111.256,36.152 Z M122.12,33 L127.16,33 C127.970671,33 128.631997,33.1173322 129.144,33.352 C129.656003,33.5866678 130.050665,33.8799982 130.328,34.232 C130.605335,34.5840018 130.794666,34.9679979 130.896,35.384 C130.997334,35.8000021 131.048,36.1839982 131.048,36.536 C131.048,36.8880018 130.997334,37.2693313 130.896,37.68 C130.794666,38.0906687 130.605335,38.4719982 130.328,38.824 C130.050665,39.1760018 129.656003,39.4666655 129.144,39.696 C128.631997,39.9253345 127.970671,40.04 127.16,40.04 L124.12,40.04 L124.12,44.424 L122.12,44.424 L122.12,33 Z M124.12,38.408 L127.048,38.408 C127.272001,38.408 127.501332,38.3760003 127.736,38.312 C127.970668,38.2479997 128.186666,38.1440007 128.384,38 C128.581334,37.8559993 128.741333,37.6640012 128.864,37.424 C128.986667,37.1839988 129.048,36.8826685 129.048,36.52 C129.048,36.1466648 128.994667,35.8373346 128.888,35.592 C128.781333,35.3466654 128.637334,35.1520007 128.456,35.008 C128.274666,34.8639993 128.066668,34.7653336 127.832,34.712 C127.597332,34.6586664 127.346668,34.632 127.08,34.632 L124.12,34.632 L124.12,38.408 Z M132.536,36.152 L134.248,36.152 L134.248,37.752 L134.28,37.752 C134.333334,37.5279989 134.437333,37.3093344 134.592,37.096 C134.746667,36.8826656 134.933332,36.6880009 135.152,36.512 C135.370668,36.3359991 135.613332,36.1946672 135.88,36.088 C136.146668,35.9813328 136.418665,35.928 136.696,35.928 C136.909334,35.928 137.056,35.9333333 137.136,35.944 C137.216,35.9546667 137.298666,35.9653333 137.384,35.976 L137.384,37.736 C137.255999,37.7146666 137.125334,37.6960001 136.992,37.68 C136.858666,37.6639999 136.728001,37.656 136.6,37.656 C136.290665,37.656 136.000001,37.7173327 135.728,37.84 C135.455999,37.9626673 135.218668,38.1439988 135.016,38.384 C134.813332,38.6240012 134.653334,38.9199982 134.536,39.272 C134.418666,39.6240018 134.36,40.029331 134.36,40.488 L134.36,44.424 L132.536,44.424 L132.536,36.152 Z M141.672,44.648 C141.010663,44.648 140.421336,44.5386678 139.904,44.32 C139.386664,44.1013322 138.949335,43.8000019 138.592,43.416 C138.234665,43.0319981 137.962668,42.573336 137.776,42.04 C137.589332,41.506664 137.496,40.9200032 137.496,40.28 C137.496,39.6506635 137.589332,39.069336 137.776,38.536 C137.962668,38.002664 138.234665,37.5440019 138.592,37.16 C138.949335,36.7759981 139.386664,36.4746678 139.904,36.256 C140.421336,36.0373322 141.010663,35.928 141.672,35.928 C142.333337,35.928 142.922664,36.0373322 143.44,36.256 C143.957336,36.4746678 144.394665,36.7759981 144.752,37.16 C145.109335,37.5440019 145.381332,38.002664 145.568,38.536 C145.754668,39.069336 145.848,39.6506635 145.848,40.28 C145.848,40.9200032 145.754668,41.506664 145.568,42.04 C145.381332,42.573336 145.109335,43.0319981 144.752,43.416 C144.394665,43.8000019 143.957336,44.1013322 143.44,44.32 C142.922664,44.5386678 142.333337,44.648 141.672,44.648 Z M141.672,43.208 C142.077335,43.208 142.429332,43.1226675 142.728,42.952 C143.026668,42.7813325 143.271999,42.5573347 143.464,42.28 C143.656001,42.0026653 143.797333,41.6906684 143.888,41.344 C143.978667,40.9973316 144.024,40.6426685 144.024,40.28 C144.024,39.9279982 143.978667,39.5760018 143.888,39.224 C143.797333,38.8719982 143.656001,38.5600014 143.464,38.288 C143.271999,38.0159986 143.026668,37.7946675 142.728,37.624 C142.429332,37.4533325 142.077335,37.368 141.672,37.368 C141.266665,37.368 140.914668,37.4533325 140.616,37.624 C140.317332,37.7946675 140.072001,38.0159986 139.88,38.288 C139.687999,38.5600014 139.546667,38.8719982 139.456,39.224 C139.365333,39.5760018 139.32,39.9279982 139.32,40.28 C139.32,40.6426685 139.365333,40.9973316 139.456,41.344 C139.546667,41.6906684 139.687999,42.0026653 139.88,42.28 C140.072001,42.5573347 140.317332,42.7813325 140.616,42.952 C140.914668,43.1226675 141.266665,43.208 141.672,43.208 Z M149.592,40.072 L146.728,36.152 L148.936,36.152 L150.664,38.696 L152.472,36.152 L154.584,36.152 L151.768,39.976 L154.936,44.424 L152.744,44.424 L150.648,41.368 L148.616,44.424 L146.472,44.424 L149.592,40.072 Z M155.048,36.152 L157.048,36.152 L159.208,42.328 L159.24,42.328 L161.336,36.152 L163.24,36.152 L160.024,44.872 C159.874666,45.2453352 159.728001,45.602665 159.584,45.944 C159.439999,46.285335 159.264001,46.5866654 159.056,46.848 C158.847999,47.1093346 158.589335,47.3173326 158.28,47.472 C157.970665,47.6266674 157.576002,47.704 157.096,47.704 C156.669331,47.704 156.248002,47.6720003 155.832,47.608 L155.832,46.072 C155.981334,46.0933334 156.125333,46.1173332 156.264,46.144 C156.402667,46.1706668 156.546666,46.184 156.696,46.184 C156.909334,46.184 157.085333,46.1573336 157.224,46.104 C157.362667,46.0506664 157.477333,45.9733338 157.568,45.872 C157.658667,45.7706662 157.736,45.6506674 157.8,45.512 C157.864,45.3733326 157.922666,45.2133342 157.976,45.032 L158.184,44.392 L155.048,36.152 Z" id="Teleport-Proxy" fill="#4A4A4A"></path>
                        </g>
                    </g>
                </g>
            </g>
        </g>
        <g id="Group-7" transform="translate(267.000000, 0.000000)">
            <g id="Group-6">
                <g id="Group-5">
                    <rect id="Rectangle-16" stroke="#D1EAFF" stroke-width="3" fill="#EEF4F9" x="1.5" y="1.5" width="161" height="56"></rect>
                    <text id="Please-prove-that-yo" font-family="LucidaGrande, Lucida Grande" font-size="13" font-weight="normal" fill="#4A4A4A">
                        <tspan x="15.0240318" y="18.2278481">Please prove that you </tspan>
                        <tspan x="18.1629478" y="34.2278481">are a member of the </tspan>
                        <tspan x="61.1810142" y="50.2278481">cluster</tspan>
                    </text>
                </g>
            </g>
        </g>
        <g id="Shadow-Box" transform="translate(235.000000, 175.000000)">
            <g>
                <use fill="black" fill-opacity="1" filter="url(#filter-5)" xlink:href="#path-4"></use>
                <use fill="#FFFFFF" fill-rule="evenodd" xlink:href="#path-4"></use>
            </g>
        </g>
        <g id="Group-2" transform="translate(365.000000, 189.000000)">
            <g id="circleNumber" transform="translate(2.000000, 0.000000)">
                <g id="1-copy-2" transform="translate(5.000000, 5.000000)">
                    <circle id="Oval-4" fill="#F26738" cx="13.5" cy="13.5" r="13.5"></circle>
                    <text id="2" font-family="HelveticaNeue-Medium, Helvetica Neue" font-size="16" font-weight="400" fill="#FFFFFF">
                        <tspan x="9.052" y="20">2</tspan>
                    </text>
                </g>
            </g>
            <g id="Group-7-Copy" transform="translate(0.000000, 52.000000)">
                <g id="Group-6">
                    <g id="Group-5">
                        <rect id="Rectangle-16" stroke="#D1EAFF" stroke-width="3" fill="#EEF4F9" x="1.5" y="1.5" width="160" height="59.4125874"></rect>
                        <text id="Node-sends-certifica" font-family="LucidaGrande, Lucida Grande" font-size="13" font-weight="normal" fill="#4A4A4A">
                            <tspan x="9.601158" y="21.0513411">Node sends certificate </tspan>
                            <tspan x="21.0808943" y="37.0513411">to Auth Service for </tspan>
                            <tspan x="48.9471053" y="53.0513411">validation</tspan>
                        </text>
                    </g>
                </g>
            </g>
            <polygon id="Triangle-2-Copy-5" stroke="#D1EAFF" fill="#D1EAFF" transform="translate(20.500000, 45.500000) scale(1, -1) rotate(-360.000000) translate(-20.500000, -45.500000) " points="20.5 52 14 39 27 39"></polygon>
        </g>
        <path id="Line-3" d="M459,74 L468,78.5 L459,83 L459,79 L264,79 L264,78 L459,78 L459,74 Z" fill="#979797" fill-rule="nonzero"></path>
        <g id="circleNumber" transform="translate(331.000000, 70.000000)">
            <g id="1-copy-2" transform="translate(5.000000, 5.000000)">
                <circle id="Oval-4" fill="#F26738" cx="13.5" cy="13.5" r="13.5"></circle>
                <text id="2" font-family="HelveticaNeue-Medium, Helvetica Neue" font-size="16" font-weight="400" fill="#FFFFFF">
                    <tspan x="9.052" y="20">1</tspan>
                </text>
            </g>
        </g>
        <polygon id="Triangle-2-Copy-4" stroke="#D1EAFF" fill="#D1EAFF" transform="translate(348.500000, 65.500000) scale(1, -1) rotate(-178.000000) translate(-348.500000, -65.500000) " points="348.5 72 342 59 355 59"></polygon>
        <path id="Line-3-Copy" d="M467.667905,106.813117 L468.186883,107.667905 L363.025,171.516 L365.101095,174.93523 L355.072606,175.759489 L360.430292,167.242142 L362.506,170.661 L467.667905,106.813117 Z" fill="#979797" fill-rule="nonzero"></path>
        <g id="Group-3" transform="translate(397.000000, 108.000000)">
            <g id="certificate" transform="translate(8.000000, 0.000000)">
                <g>
                    <path d="M5.46684211,57.3266842 C5.41406991,57.1211042 5.34150923,56.9321061 5.24915789,56.7596842 C5.15680656,56.5872623 5.0380709,56.4380533 4.89294737,56.3120526 C4.74782384,56.186052 4.57796589,56.0882372 4.38336842,56.0186053 C4.18877096,55.9489733 3.96284339,55.9141579 3.70557895,55.9141579 C3.32957707,55.9141579 3.00470312,55.9904203 2.73094737,56.1429474 C2.45719161,56.2954744 2.23456226,56.4993935 2.06305263,56.7547105 C1.891543,57.0100276 1.76456182,57.3001563 1.68210526,57.6251053 C1.59964871,57.9500543 1.55842105,58.2816299 1.55842105,58.6198421 C1.55842105,58.9580543 1.59964871,59.28963 1.68210526,59.6145789 C1.76456182,59.9395279 1.891543,60.2296566 2.06305263,60.4849737 C2.23456226,60.7402908 2.45719161,60.9442098 2.73094737,61.0967368 C3.00470312,61.2492639 3.32957707,61.3255263 3.70557895,61.3255263 C3.98263296,61.3255263 4.2267007,61.2774478 4.43778947,61.1812895 C4.64887825,61.0851311 4.83027994,60.9525008 4.982,60.7833947 C5.13372006,60.6142886 5.25245571,60.4170011 5.33821053,60.1915263 C5.42396534,59.9660515 5.48003496,59.7240013 5.50642105,59.4653684 L6.71357895,59.4653684 C6.68719285,59.8897916 6.596492,60.2777351 6.44147368,60.6292105 C6.28645537,60.980686 6.07701886,61.2840777 5.81315789,61.5393947 C5.54929693,61.7947118 5.23926494,61.9919993 4.88305263,62.1312632 C4.52684032,62.270527 4.13435302,62.3401579 3.70557895,62.3401579 C3.17785701,62.3401579 2.7045635,62.2423431 2.28568421,62.0467105 C1.86680492,61.851078 1.51224707,61.5841596 1.222,61.2459474 C0.931752935,60.9077352 0.709123582,60.5131601 0.554105263,60.0622105 C0.399086944,59.6112609 0.321578947,59.1304762 0.321578947,58.6198421 C0.321578947,58.1158396 0.399086944,57.6383707 0.554105263,57.1874211 C0.709123582,56.7364714 0.931752935,56.3418964 1.222,56.0036842 C1.51224707,55.665472 1.86680492,55.3968957 2.28568421,55.1979474 C2.7045635,54.998999 3.17785701,54.8995263 3.70557895,54.8995263 C4.1013704,54.8995263 4.47406843,54.9542363 4.82368421,55.0636579 C5.17329999,55.1730795 5.48168287,55.3322358 5.74884211,55.5411316 C6.01600134,55.7500274 6.23203426,56.0036827 6.39694737,56.3021053 C6.56186047,56.6005278 6.66410507,56.9420507 6.70368421,57.3266842 L5.46684211,57.3266842 Z M11.1958947,59.1470526 C11.1827017,58.9679991 11.1447722,58.7955798 11.0821053,58.6297895 C11.0194383,58.4639992 10.9336848,58.3197638 10.8248421,58.1970789 C10.7159995,58.0743941 10.584071,57.9749214 10.4290526,57.8986579 C10.2740343,57.8223944 10.1008781,57.7842632 9.90957895,57.7842632 C9.71168322,57.7842632 9.53193063,57.8190786 9.37031579,57.8887105 C9.20870095,57.9583425 9.07017602,58.0544994 8.95473684,58.1771842 C8.83929767,58.299869 8.74694771,58.4441044 8.67768421,58.6098947 C8.60842071,58.775685 8.57049126,58.9547359 8.56389474,59.1470526 L11.1958947,59.1470526 Z M8.56389474,59.8931053 C8.56389474,60.0920536 8.59192954,60.2843675 8.648,60.4700526 C8.70407046,60.6557378 8.78817488,60.8182098 8.90031579,60.9574737 C9.0124567,61.0967375 9.15427984,61.2078154 9.32578947,61.2907105 C9.4972991,61.3736057 9.70178829,61.4150526 9.93926316,61.4150526 C10.2690894,61.4150526 10.5345955,61.3437639 10.7357895,61.2011842 C10.9369835,61.0586046 11.0870521,60.8447383 11.186,60.5595789 L12.2546316,60.5595789 C12.1952629,60.8381067 12.0930183,61.0867884 11.9478947,61.3056316 C11.8027712,61.5244748 11.6279659,61.7084993 11.4234737,61.8577105 C11.2189814,62.0069218 10.9897557,62.1196575 10.7357895,62.1959211 C10.4818233,62.2721846 10.2163172,62.3103158 9.93926316,62.3103158 C9.53687518,62.3103158 9.18066822,62.2440007 8.87063158,62.1113684 C8.56059494,61.9787362 8.29838704,61.7930538 8.084,61.5543158 C7.86961296,61.3155778 7.70800054,61.0304227 7.59915789,60.6988421 C7.49031525,60.3672615 7.43589474,60.0025283 7.43589474,59.6046316 C7.43589474,59.2398929 7.49361346,58.8933964 7.60905263,58.5651316 C7.72449181,58.2368668 7.88940244,57.948396 8.10378947,57.6997105 C8.31817651,57.4510251 8.5770862,57.2537376 8.88052632,57.1078421 C9.18396643,56.9619466 9.52698054,56.889 9.90957895,56.889 C10.3119669,56.889 10.6731212,56.9735518 10.9930526,57.1426579 C11.3129841,57.311764 11.5784902,57.5355776 11.7895789,57.8141053 C12.0006677,58.092633 12.1540346,58.4126035 12.2496842,58.7740263 C12.3453338,59.1354492 12.3700704,59.5084718 12.3238947,59.8931053 L8.56389474,59.8931053 Z M13.1847368,57.0282632 L14.2434737,57.0282632 L14.2434737,58.023 L14.2632632,58.023 C14.2962458,57.8837361 14.3605609,57.7477901 14.4562105,57.6151579 C14.5518601,57.4825257 14.6672976,57.3615005 14.8025263,57.2520789 C14.9377551,57.1426573 15.0878237,57.0547898 15.2527368,56.9884737 C15.4176499,56.9221576 15.5858588,56.889 15.7573684,56.889 C15.8892989,56.889 15.9799998,56.8923158 16.0294737,56.8989474 C16.0789476,56.905579 16.1300699,56.9122105 16.1828421,56.9188421 L16.1828421,58.0130526 C16.1036838,57.9997894 16.0228776,57.9881843 15.9404211,57.9782368 C15.8579645,57.9682894 15.7771583,57.9633158 15.698,57.9633158 C15.5067008,57.9633158 15.3269482,58.001447 15.1587368,58.0777105 C14.9905255,58.1539741 14.843755,58.2667098 14.7184211,58.4159211 C14.5930871,58.5651323 14.4941407,58.7491568 14.4215789,58.968 C14.3490172,59.1868432 14.3127368,59.4388407 14.3127368,59.724 L14.3127368,62.1710526 L13.1847368,62.1710526 L13.1847368,57.0282632 Z M16.1531579,57.0282632 L17.0041053,57.0282632 L17.0041053,55.4864211 L18.1321053,55.4864211 L18.1321053,57.0282632 L19.1512632,57.0282632 L19.1512632,57.8737895 L18.1321053,57.8737895 L18.1321053,60.6192632 C18.1321053,60.7386322 18.1370526,60.8414206 18.1469474,60.9276316 C18.1568422,61.0138425 18.1799296,61.0867892 18.2162105,61.1464737 C18.2524914,61.2061582 18.3069119,61.2509209 18.3794737,61.2807632 C18.4520355,61.3106054 18.5509818,61.3255263 18.6763158,61.3255263 C18.7554741,61.3255263 18.8346312,61.3238684 18.9137895,61.3205526 C18.9929478,61.3172368 19.0721049,61.3056317 19.1512632,61.2857368 L19.1512632,62.1611053 C19.0259292,62.1743685 18.9038953,62.1876315 18.7851579,62.2008947 C18.6664205,62.214158 18.5443866,62.2207895 18.4190526,62.2207895 C18.122209,62.2207895 17.8830886,62.1926055 17.7016842,62.1362368 C17.5202798,62.0798681 17.3784567,61.9969742 17.2762105,61.8875526 C17.1739644,61.778131 17.1047019,61.6405271 17.0684211,61.4747368 C17.0321402,61.3089465 17.0107018,61.1199484 17.0041053,60.9077368 L17.0041053,57.8737895 L16.1531579,57.8737895 L16.1531579,57.0282632 Z M19.9923158,55.0686316 L21.1203158,55.0686316 L21.1203158,56.1429474 L19.9923158,56.1429474 L19.9923158,55.0686316 Z M19.9923158,57.0282632 L21.1203158,57.0282632 L21.1203158,62.1710526 L19.9923158,62.1710526 L19.9923158,57.0282632 Z M25.4937895,55.0686316 L26.6217895,55.0686316 L26.6217895,56.1429474 L25.4937895,56.1429474 L25.4937895,55.0686316 Z M21.8426316,57.0282632 L22.6836842,57.0282632 L22.6836842,56.6005263 C22.6836842,56.2755773 22.7232628,56.0119747 22.8024211,55.8097105 C22.8815793,55.6074464 22.9871221,55.4516058 23.1190526,55.3421842 C23.2509831,55.2327626 23.4010518,55.159816 23.5692632,55.1233421 C23.7374745,55.0868682 23.9139289,55.0686316 24.0986316,55.0686316 C24.4614404,55.0686316 24.7252974,55.0918419 24.8902105,55.1382632 L24.8902105,56.0235789 C24.8176488,56.0036841 24.7401408,55.9887632 24.6576842,55.9788158 C24.5752277,55.9688684 24.4779304,55.9638947 24.3657895,55.9638947 C24.2140694,55.9638947 24.08379,56.0003681 23.9749474,56.0733158 C23.8661047,56.1462635 23.8116842,56.288841 23.8116842,56.5010526 L23.8116842,57.0282632 L24.7714737,57.0282632 L24.7714737,57.8737895 L23.8116842,57.8737895 L23.8116842,62.1710526 L22.6836842,62.1710526 L22.6836842,57.8737895 L21.8426316,57.8737895 L21.8426316,57.0282632 Z M25.4937895,57.0282632 L26.6217895,57.0282632 L26.6217895,62.1710526 L25.4937895,62.1710526 L25.4937895,57.0282632 Z M31.302,58.7491579 C31.2558243,58.4308405 31.1288431,58.1904482 30.9210526,58.0279737 C30.7132621,57.8654992 30.4510542,57.7842632 30.1344211,57.7842632 C29.9892975,57.7842632 29.8342815,57.8091313 29.6693684,57.8588684 C29.5044553,57.9086055 29.3527375,58.0014467 29.2142105,58.1373947 C29.0756835,58.2733428 28.9602461,58.4623409 28.8678947,58.7043947 C28.7755434,58.9464486 28.7293684,59.2631033 28.7293684,59.6543684 C28.7293684,59.86658 28.754105,60.0787884 28.8035789,60.291 C28.8530529,60.5032116 28.93221,60.6922097 29.0410526,60.858 C29.1498953,61.0237903 29.2900693,61.1580784 29.4615789,61.2608684 C29.6330886,61.3636584 29.840876,61.4150526 30.0849474,61.4150526 C30.4147736,61.4150526 30.6868761,61.3122642 30.9012632,61.1066842 C31.1156502,60.9011042 31.2492278,60.6126334 31.302,60.2412632 L32.43,60.2412632 C32.3244556,60.911056 32.0721423,61.4233403 31.6730526,61.7781316 C31.2739629,62.1329228 30.7445998,62.3103158 30.0849474,62.3103158 C29.6825594,62.3103158 29.3280015,62.2423428 29.0212632,62.1063947 C28.7145248,61.9704467 28.4556151,61.7847643 28.2445263,61.5493421 C28.0334375,61.3139199 27.8734742,61.0337385 27.7646316,60.7087895 C27.6557889,60.3838405 27.6013684,60.0323703 27.6013684,59.6543684 C27.6013684,59.2697349 27.6541398,58.9083175 27.7596842,58.5701053 C27.8652286,58.231893 28.0235428,57.9384486 28.2346316,57.6897632 C28.4457204,57.4410777 28.7079283,57.2454481 29.0212632,57.1028684 C29.3345981,56.9602888 29.7023488,56.889 30.1245263,56.889 C30.4213699,56.889 30.7033671,56.9271312 30.9705263,57.0033947 C31.2376855,57.0796583 31.4751569,57.1940519 31.6829474,57.3465789 C31.8907379,57.499106 32.0605958,57.6914199 32.1925263,57.9235263 C32.3244568,58.1556327 32.4036139,58.4308405 32.43,58.7491579 L31.302,58.7491579 Z M37.6346316,61.0271053 C37.6346316,61.1663691 37.6527717,61.2658418 37.6890526,61.3255263 C37.7253335,61.3852108 37.7962451,61.4150526 37.9017895,61.4150526 L38.0205263,61.4150526 C38.066702,61.4150526 38.1194734,61.4084211 38.1788421,61.3951579 L38.1788421,62.181 C38.139263,62.1942632 38.0881407,62.2091841 38.0254737,62.2257632 C37.9628067,62.2423422 37.8984916,62.2572631 37.8325263,62.2705263 C37.7665611,62.2837895 37.7005968,62.2937368 37.6346316,62.3003684 C37.5686663,62.307 37.5125967,62.3103158 37.4664211,62.3103158 C37.2355427,62.3103158 37.0442464,62.2638952 36.8925263,62.1710526 C36.7408063,62.0782101 36.6418599,61.915738 36.5956842,61.6836316 C36.3714024,61.9024748 36.0960016,62.0616311 35.7694737,62.1611053 C35.4429457,62.2605794 35.1279664,62.3103158 34.8245263,62.3103158 C34.593648,62.3103158 34.3726677,62.2788161 34.1615789,62.2158158 C33.9504902,62.1528155 33.7641412,62.0599743 33.6025263,61.9372895 C33.4409115,61.8146046 33.3122812,61.6587641 33.2166316,61.4697632 C33.120982,61.2807622 33.0731579,61.0602644 33.0731579,60.8082632 C33.0731579,60.4899458 33.1308766,60.2313168 33.2463158,60.0323684 C33.361755,59.8334201 33.5134727,59.6775795 33.7014737,59.5648421 C33.8894746,59.4521047 34.1005602,59.3708687 34.3347368,59.3211316 C34.5689135,59.2713945 34.8047357,59.2332633 35.0422105,59.2067368 C35.2467028,59.1669472 35.4412973,59.1387632 35.626,59.1221842 C35.8107027,59.1056052 35.9739642,59.0774213 36.1157895,59.0376316 C36.2576147,58.9978419 36.369754,58.9365004 36.4522105,58.8536053 C36.5346671,58.7707101 36.5758947,58.6463692 36.5758947,58.4805789 C36.5758947,58.3346835 36.5412635,58.2153163 36.472,58.1224737 C36.4027365,58.0296311 36.316983,57.9583424 36.2147368,57.9086053 C36.1124907,57.8588682 35.9987024,57.8257106 35.8733684,57.8091316 C35.7480345,57.7925525 35.6292988,57.7842632 35.5171579,57.7842632 C35.2005247,57.7842632 34.9399659,57.8505783 34.7354737,57.9832105 C34.5309814,58.1158428 34.415544,58.3214197 34.3891579,58.5999474 L33.2611579,58.5999474 C33.2809475,58.2683668 33.3601046,57.993159 33.4986316,57.7743158 C33.6371586,57.5554726 33.813613,57.3797375 34.028,57.2471053 C34.242387,57.114473 34.4848057,57.0216318 34.7552632,56.9685789 C35.0257207,56.9155261 35.3027705,56.889 35.5864211,56.889 C35.837089,56.889 36.0844549,56.9155261 36.3285263,56.9685789 C36.5725977,57.0216318 36.7919289,57.1078415 36.9865263,57.2272105 C37.1811238,57.3465795 37.3377889,57.5007622 37.4565263,57.6897632 C37.5752638,57.8787641 37.6346316,58.1092092 37.6346316,58.3811053 L37.6346316,61.0271053 Z M36.5066316,59.5946842 C36.3351219,59.7074216 36.1240363,59.7753946 35.8733684,59.7986053 C35.6227005,59.8218159 35.3720363,59.8566313 35.1213684,59.9030526 C35.002631,59.9229475 34.8871935,59.9511314 34.7750526,59.9876053 C34.6629117,60.0240791 34.5639653,60.0738155 34.4782105,60.1368158 C34.3924557,60.1998161 34.3248424,60.28271 34.2753684,60.3855 C34.2258945,60.48829 34.2011579,60.6126308 34.2011579,60.7585263 C34.2011579,60.8845269 34.2374382,60.9906311 34.31,61.0768421 C34.3825618,61.1630531 34.4699644,61.2310261 34.5722105,61.2807632 C34.6744567,61.3305002 34.7865959,61.3653157 34.9086316,61.3852105 C35.0306673,61.4051054 35.1411574,61.4150526 35.2401053,61.4150526 C35.3654392,61.4150526 35.5006659,61.3984738 35.6457895,61.3653158 C35.790913,61.3321577 35.9277888,61.2757899 36.0564211,61.1962105 C36.1850533,61.1166312 36.2922452,61.0155006 36.378,60.8928158 C36.4637548,60.770131 36.5066316,60.6192641 36.5066316,60.4402105 L36.5066316,59.5946842 Z M38.3371579,57.0282632 L39.1881053,57.0282632 L39.1881053,55.4864211 L40.3161053,55.4864211 L40.3161053,57.0282632 L41.3352632,57.0282632 L41.3352632,57.8737895 L40.3161053,57.8737895 L40.3161053,60.6192632 C40.3161053,60.7386322 40.3210526,60.8414206 40.3309474,60.9276316 C40.3408422,61.0138425 40.3639296,61.0867892 40.4002105,61.1464737 C40.4364914,61.2061582 40.4909119,61.2509209 40.5634737,61.2807632 C40.6360355,61.3106054 40.7349818,61.3255263 40.8603158,61.3255263 C40.9394741,61.3255263 41.0186312,61.3238684 41.0977895,61.3205526 C41.1769478,61.3172368 41.2561049,61.3056317 41.3352632,61.2857368 L41.3352632,62.1611053 C41.2099292,62.1743685 41.0878953,62.1876315 40.9691579,62.2008947 C40.8504205,62.214158 40.7283866,62.2207895 40.6030526,62.2207895 C40.306209,62.2207895 40.0670886,62.1926055 39.8856842,62.1362368 C39.7042798,62.0798681 39.5624567,61.9969742 39.4602105,61.8875526 C39.3579644,61.778131 39.2887019,61.6405271 39.2524211,61.4747368 C39.2161402,61.3089465 39.1947018,61.1199484 39.1881053,60.9077368 L39.1881053,57.8737895 L38.3371579,57.8737895 L38.3371579,57.0282632 Z M45.6592632,59.1470526 C45.6460701,58.9679991 45.6081407,58.7955798 45.5454737,58.6297895 C45.4828067,58.4639992 45.3970532,58.3197638 45.2882105,58.1970789 C45.1793679,58.0743941 45.0474394,57.9749214 44.8924211,57.8986579 C44.7374027,57.8223944 44.5642466,57.7842632 44.3729474,57.7842632 C44.1750516,57.7842632 43.9952991,57.8190786 43.8336842,57.8887105 C43.6720694,57.9583425 43.5335444,58.0544994 43.4181053,58.1771842 C43.3026661,58.299869 43.2103161,58.4441044 43.1410526,58.6098947 C43.0717891,58.775685 43.0338597,58.9547359 43.0272632,59.1470526 L45.6592632,59.1470526 Z M43.0272632,59.8931053 C43.0272632,60.0920536 43.055298,60.2843675 43.1113684,60.4700526 C43.1674389,60.6557378 43.2515433,60.8182098 43.3636842,60.9574737 C43.4758251,61.0967375 43.6176483,61.2078154 43.7891579,61.2907105 C43.9606675,61.3736057 44.1651567,61.4150526 44.4026316,61.4150526 C44.7324578,61.4150526 44.9979639,61.3437639 45.1991579,61.2011842 C45.4003519,61.0586046 45.5504206,60.8447383 45.6493684,60.5595789 L46.718,60.5595789 C46.6586313,60.8381067 46.5563867,61.0867884 46.4112632,61.3056316 C46.2661396,61.5244748 46.0913344,61.7084993 45.8868421,61.8577105 C45.6823499,62.0069218 45.4531241,62.1196575 45.1991579,62.1959211 C44.9451917,62.2721846 44.6796856,62.3103158 44.4026316,62.3103158 C44.0002436,62.3103158 43.6440366,62.2440007 43.334,62.1113684 C43.0239634,61.9787362 42.7617555,61.7930538 42.5473684,61.5543158 C42.3329814,61.3155778 42.171369,61.0304227 42.0625263,60.6988421 C41.9536837,60.3672615 41.8992632,60.0025283 41.8992632,59.6046316 C41.8992632,59.2398929 41.9569819,58.8933964 42.0724211,58.5651316 C42.1878602,58.2368668 42.3527709,57.948396 42.5671579,57.6997105 C42.7815449,57.4510251 43.0404546,57.2537376 43.3438947,57.1078421 C43.6473349,56.9619466 43.990349,56.889 44.3729474,56.889 C44.7753353,56.889 45.1364896,56.9735518 45.4564211,57.1426579 C45.7763525,57.311764 46.0418586,57.5355776 46.2529474,57.8141053 C46.4640361,58.092633 46.617403,58.4126035 46.7130526,58.7740263 C46.8087022,59.1354492 46.8334388,59.5084718 46.7872632,59.8931053 L43.0272632,59.8931053 Z" id="Certificate-Copy-2" fill="#4A4A4A"></path>
                    <g id="cert-copy-2" transform="translate(3.298246, 0.000000)">
                        <path d="M33.5240074,0.5 L0.5,0.5 L0.5,44.2631579 L39.9035088,44.2631579 L39.9035088,7.05070603 L33.5240074,7.05070603 L33.5240074,0.5 Z" id="Combined-Shape" stroke="#5C5C5C" fill="#FFFFFF"></path>
                        <line x1="6.36346301" y1="11.1907895" x2="32.417797" y2="11.1907895" id="Line" stroke="#4A4A4A" stroke-linecap="square"></line>
                        <line x1="6.36346301" y1="13.6776316" x2="32.417797" y2="13.6776316" id="Line-Copy" stroke="#4A4A4A" stroke-linecap="square"></line>
                        <line x1="6.36346301" y1="16.1644737" x2="32.417797" y2="16.1644737" id="Line-Copy-9" stroke="#4A4A4A" stroke-linecap="square"></line>
                        <line x1="6.36346301" y1="18.6513158" x2="32.417797" y2="18.6513158" id="Line-Copy-10" stroke="#4A4A4A" stroke-linecap="square"></line>
                        <line x1="6.36346301" y1="21.1381579" x2="32.417797" y2="21.1381579" id="Line-Copy-11" stroke="#4A4A4A" stroke-linecap="square"></line>
                        <line x1="6.36346301" y1="23.625" x2="27.622807" y2="23.625" id="Line-Copy-12" stroke="#4A4A4A" stroke-linecap="square"></line>
                        <ellipse id="Oval-7" fill="#4A4A4A" cx="32.5701754" cy="38.5460526" rx="5.35964912" ry="5.38815789"></ellipse>
                        <path d="M36.2807018,40.6184211 L36.2807018,50.5657895 L32.5701754,45.7342105 L28.8596491,50.5657895 L28.8596491,40.6184211 L36.2807018,40.6184211 Z" id="Combined-Shape" fill="#4A4A4A"></path>
                        <line x1="33.6024877" y1="0.254391319" x2="40.1323456" y2="6.90843442" id="Path-11" stroke="#4A4A4A"></line>
                    </g>
                </g>
            </g>
            <text id="✓" font-family="LucidaGrande, Lucida Grande" font-size="36" font-weight="normal" fill="#09C62E">
                <tspan x="0.245117188" y="53">✓</tspan>
            </text>
        </g>
        <g id="✓-2" transform="translate(351.000000, 182.000000)"></g>
        <g id="Group" transform="translate(252.000000, 189.000000)">
            <rect id="Rectangle" stroke="#CD3918" stroke-width="3" x="1.5" y="1.5" width="87" height="73" rx="9"></rect>
            <text id="Teleport-Auth-API" font-family="LucidaGrande, Lucida Grande" font-size="13" font-weight="normal" fill="#4A4A4A">
                <tspan x="18.59375" y="36">Teleport </tspan>
                <tspan x="18.0097656" y="52">Auth API</tspan>
            </text>
        </g>
        <g id="Rectangle">
            <use fill="black" fill-opacity="1" filter="url(#filter-7)" xlink:href="#path-6"></use>
            <use fill="#FFFFFF" fill-rule="evenodd" xlink:href="#path-6"></use>
        </g>
        <g id="auth-service-copy" filter="url(#filter-8)" transform="translate(493.000000, 26.000000)">
            <g id="node-service-with-note-copy">
                <path d="M10,1.5 C5.30557963,1.5 1.5,5.30557963 1.5,10 L1.5,73 C1.5,77.6944204 5.30557963,81.5 10,81.5 L176,81.5 C180.69442,81.5 184.5,77.6944204 184.5,73 L184.5,10 C184.5,5.30557963 180.69442,1.5 176,1.5 L10,1.5 Z" id="Rectangle-17" stroke="#3662A2" stroke-width="3" fill="#FFFFFF"></path>
                <path d="M54.1826087,35.8409091 L55.8822254,35.8409091 L60.0797635,44.1789534 L60.1055153,44.1789534 L60.1055153,35.8409091 L61.6377455,35.8409091 L61.6377455,47.1590909 L59.9381288,47.1590909 L55.7534665,38.8368984 L55.7148389,38.8368984 L55.7148389,47.1590909 L54.1826087,47.1590909 L54.1826087,35.8409091 Z M66.3889466,47.381016 C65.8567408,47.381016 65.3824838,47.2726965 64.9661615,47.0560542 C64.5498391,46.839412 64.1979018,46.5408728 63.910339,46.1604278 C63.6227761,45.7799828 63.4038883,45.3255692 63.2536689,44.7971734 C63.1034495,44.2687776 63.0283409,43.6875509 63.0283409,43.0534759 C63.0283409,42.4299689 63.1034495,41.8540261 63.2536689,41.3256303 C63.4038883,40.7972344 63.6227761,40.3428208 63.910339,39.9623759 C64.1979018,39.5819309 64.5498391,39.2833917 64.9661615,39.0667494 C65.3824838,38.8501071 65.8567408,38.7417876 66.3889466,38.7417876 C66.9211525,38.7417876 67.3954095,38.8501071 67.8117318,39.0667494 C68.2280541,39.2833917 68.5799914,39.5819309 68.8675543,39.9623759 C69.1551171,40.3428208 69.374005,40.7972344 69.5242244,41.3256303 C69.6744438,41.8540261 69.7495523,42.4299689 69.7495523,43.0534759 C69.7495523,43.6875509 69.6744438,44.2687776 69.5242244,44.7971734 C69.374005,45.3255692 69.1551171,45.7799828 68.8675543,46.1604278 C68.5799914,46.5408728 68.2280541,46.839412 67.8117318,47.0560542 C67.3954095,47.2726965 66.9211525,47.381016 66.3889466,47.381016 Z M66.3889466,45.9543545 C66.7151373,45.9543545 66.9984039,45.8698124 67.238755,45.7007257 C67.479106,45.5316391 67.6765343,45.3097162 67.8310456,45.0349503 C67.985557,44.7601845 68.0992928,44.4510776 68.1722566,44.1076203 C68.2452203,43.764163 68.2817016,43.4127851 68.2817016,43.0534759 C68.2817016,42.7047347 68.2452203,42.3559987 68.1722566,42.0072574 C68.0992928,41.6585162 67.985557,41.3494093 67.8310456,41.0799274 C67.6765343,40.8104456 67.479106,40.5911646 67.238755,40.4220779 C66.9984039,40.2529913 66.7151373,40.1684492 66.3889466,40.1684492 C66.0627559,40.1684492 65.7794893,40.2529913 65.5391383,40.4220779 C65.2987873,40.5911646 65.101359,40.8104456 64.9468476,41.0799274 C64.7923363,41.3494093 64.6786004,41.6585162 64.6056367,42.0072574 C64.532673,42.3559987 64.4961917,42.7047347 64.4961917,43.0534759 C64.4961917,43.4127851 64.532673,43.764163 64.6056367,44.1076203 C64.6786004,44.4510776 64.7923363,44.7601845 64.9468476,45.0349503 C65.101359,45.3097162 65.2987873,45.5316391 65.5391383,45.7007257 C65.7794893,45.8698124 66.0627559,45.9543545 66.3889466,45.9543545 Z M77.2433168,47.1590909 L75.8527213,47.1590909 L75.8527213,46.0494652 L75.8269695,46.0494652 C75.6295383,46.5250215 75.3419798,46.8658317 74.9642853,47.071906 C74.5865908,47.2779804 74.1874424,47.381016 73.7668281,47.381016 C73.2432062,47.381016 72.7861169,47.2674126 72.3955465,47.0402024 C72.004976,46.8129922 71.6809362,46.5038853 71.4234172,46.1128724 C71.1658983,45.7218595 70.9727619,45.2595201 70.8440025,44.7258403 C70.715243,44.1921606 70.6508642,43.6188597 70.6508642,43.0059206 C70.6508642,42.2661664 70.7324107,41.6268171 70.895506,41.0878533 C71.0586013,40.5488896 71.2753432,40.1050438 71.5457381,39.7563025 C71.816133,39.4075613 72.1251512,39.1512932 72.4728018,38.9874905 C72.8204524,38.8236877 73.1745356,38.7417876 73.5350622,38.7417876 C73.7410774,38.7417876 73.9513814,38.7655651 74.1659805,38.8131207 C74.3805796,38.8606763 74.5865917,38.9372926 74.7840229,39.0429717 C74.9814541,39.1486509 75.1638607,39.2833898 75.331248,39.4471925 C75.4986353,39.6109952 75.6381227,39.8038568 75.7497142,40.025783 L75.775466,40.025783 L75.775466,35.8409091 L77.2433168,35.8409091 L77.2433168,47.1590909 Z M72.118715,43.1485867 C72.118715,43.4973279 72.1551963,43.8407801 72.22816,44.1789534 C72.3011237,44.5171267 72.4127136,44.8183078 72.562933,45.0825057 C72.7131524,45.3467036 72.9041427,45.5580588 73.1359098,45.7165775 C73.3676769,45.8750963 73.6423596,45.9543545 73.9599664,45.9543545 C74.2861571,45.9543545 74.5672777,45.8698124 74.8033368,45.7007257 C75.0393958,45.5316391 75.2325321,45.3097162 75.3827515,45.0349503 C75.5329709,44.7601845 75.6445608,44.4510776 75.7175245,44.1076203 C75.7904882,43.764163 75.8269695,43.4127851 75.8269695,43.0534759 C75.8269695,42.1446351 75.6617307,41.4365954 75.331248,40.9293354 C75.0007653,40.4220754 74.5522599,40.1684492 73.9857181,40.1684492 C73.6423595,40.1684492 73.352655,40.2556332 73.116596,40.4300038 C72.8805369,40.6043744 72.6874006,40.8315812 72.5371812,41.111631 C72.3869618,41.3916808 72.2796638,41.7087135 72.2152841,42.0627387 C72.1509044,42.4167639 72.118715,42.7787096 72.118715,43.1485867 Z M83.4108652,42.3401451 C83.3936972,42.0548114 83.3443402,41.7800497 83.2627925,41.5158518 C83.1812448,41.2516539 83.0696549,41.0218052 82.9280195,40.8262987 C82.7863841,40.6307922 82.6147073,40.4722759 82.4129841,40.3507448 C82.211261,40.2292138 81.9859352,40.1684492 81.7370002,40.1684492 C81.4794813,40.1684492 81.2455717,40.2239299 81.0352646,40.334893 C80.8249574,40.4458562 80.6446968,40.5990887 80.4944774,40.7945951 C80.3442581,40.9901016 80.2240843,41.2199503 80.1339527,41.4841482 C80.0438211,41.7483461 79.994464,42.0336756 79.98588,42.3401451 L83.4108652,42.3401451 Z M79.98588,43.5290298 C79.98588,43.8460673 80.0223613,44.1525323 80.095325,44.4484339 C80.1682888,44.7443356 80.2777327,45.0032456 80.4236601,45.2251719 C80.5695875,45.4470981 80.75414,45.6241081 80.9773231,45.756207 C81.2005062,45.888306 81.4666051,45.9543545 81.7756279,45.9543545 C82.2048262,45.9543545 82.5503256,45.8407511 82.8121365,45.6135409 C83.0739475,45.3863307 83.2692298,45.0455205 83.3979893,44.5911001 L84.7885847,44.5911001 C84.711329,45.0349526 84.5782796,45.4312435 84.3894323,45.7799847 C84.2005851,46.128726 83.9731134,46.4219812 83.7070105,46.6597594 C83.4409075,46.8975375 83.1426192,47.0771894 82.8121365,47.1987204 C82.4816539,47.3202514 82.1361544,47.381016 81.7756279,47.381016 C81.252006,47.381016 80.7884788,47.2753385 80.3850324,47.0639801 C79.9815861,46.8526218 79.6403785,46.5567246 79.3613997,46.1762796 C79.0824208,45.7958346 78.8721168,45.341421 78.7304814,44.8130252 C78.5888459,44.2846294 78.5180293,43.7034027 78.5180293,43.0693277 C78.5180293,42.4880923 78.5931378,41.935927 78.7433572,41.4128151 C78.8935766,40.8897033 79.1081726,40.4300058 79.3871514,40.0337089 C79.6661303,39.6374121 80.0030459,39.3230213 80.3979083,39.0905271 C80.7927707,38.858033 81.2391302,38.7417876 81.7370002,38.7417876 C82.2606221,38.7417876 82.7305872,38.8765265 83.1469095,39.1460084 C83.5632319,39.4154903 83.9087313,39.7721521 84.1834182,40.2160046 C84.4581051,40.6598571 84.6576793,41.1697514 84.7821468,41.7457028 C84.9066143,42.3216543 84.9388037,42.9160906 84.8787159,43.5290298 L79.98588,43.5290298 Z M90.8402502,43.3863636 C90.8402502,43.8196482 90.900337,44.1895197 91.0205125,44.4959893 C91.1406881,44.8024589 91.3080729,45.0534431 91.522672,45.2489496 C91.7372711,45.444456 91.9840565,45.5871208 92.2630353,45.6769481 C92.5420142,45.7667753 92.8445945,45.8116883 93.1707851,45.8116883 C93.5227277,45.8116883 93.823162,45.7614915 94.072097,45.6610963 C94.321032,45.5607011 94.5227522,45.431246 94.6772636,45.2727273 C94.8317749,45.1142085 94.9433648,44.9319147 95.0120365,44.7258403 C95.0807083,44.519766 95.1150436,44.3110528 95.1150436,44.0996944 C95.1150436,43.6664099 95.0356431,43.3467352 94.8768398,43.1406608 C94.7180364,42.9345864 94.5442137,42.7892798 94.3553665,42.7047364 C94.0291758,42.5567856 93.649341,42.4167628 93.2158507,42.2846639 C92.7823605,42.1525649 92.2480166,41.9808388 91.6128032,41.7694805 C91.2179408,41.6426655 90.889609,41.4762233 90.6277981,41.270149 C90.3659871,41.0640746 90.1578291,40.8342259 90.0033177,40.5805959 C89.8488063,40.3269659 89.7393624,40.0574881 89.6749827,39.7721543 C89.6106029,39.4868206 89.5784135,39.1962072 89.5784135,38.9003056 C89.5784135,38.3296381 89.6749817,37.8355954 89.8681209,37.4181627 C90.0612602,37.00073 90.3166293,36.654636 90.634236,36.3798701 C90.9518427,36.1051043 91.3123639,35.901675 91.7158103,35.769576 C92.1192566,35.6374771 92.5269889,35.5714286 92.9390192,35.5714286 C93.4197213,35.5714286 93.8725187,35.6480448 94.297425,35.8012796 C94.7223313,35.9545144 95.0957282,36.1843631 95.4176269,36.4908327 C95.7395256,36.7973023 95.9948947,37.1750996 96.183742,37.6242361 C96.3725892,38.0733725 96.4670114,38.5938346 96.4670114,39.1856379 L94.8575259,39.1856379 C94.8146061,38.4564517 94.6128859,37.9412735 94.2523594,37.6400879 C93.8918328,37.3389022 93.4325976,37.1883117 92.8746398,37.1883117 C92.6857926,37.1883117 92.4926562,37.2120891 92.295225,37.2596448 C92.0977938,37.3072004 91.9175333,37.3864586 91.7544379,37.4974217 C91.5913426,37.6083848 91.4561471,37.7589754 91.3488476,37.9491979 C91.241548,38.1394204 91.187899,38.3771949 91.187899,38.6625286 C91.187899,39.0641095 91.2887591,39.3785003 91.4904823,39.6057105 C91.6922055,39.8329207 91.9561585,40.0046467 92.2823492,40.1208938 C92.316685,40.1314617 92.4518804,40.1763747 92.6879395,40.2556341 C92.9239986,40.3348934 93.1879515,40.4220774 93.4798064,40.5171887 C93.7716612,40.6122999 94.0570738,40.7047678 94.3360526,40.7945951 C94.6150315,40.8844224 94.8146057,40.9504709 94.9347812,40.9927426 C95.23522,41.1089896 95.4970271,41.267506 95.7202102,41.4682964 C95.9433933,41.6690868 96.1300917,41.8989356 96.2803111,42.1578495 C96.4305305,42.4167635 96.5421204,42.6941671 96.6150841,42.9900688 C96.6880478,43.2859704 96.7245291,43.5818676 96.7245291,43.8777693 C96.7245291,44.5118443 96.6193771,45.0534419 96.4090699,45.5025783 C96.1987628,45.9517147 95.9219341,46.3189443 95.5785754,46.6042781 C95.2352168,46.8896118 94.8446522,47.098325 94.40687,47.230424 C93.9690878,47.3625229 93.5227282,47.4285714 93.0677781,47.4285714 C92.5441562,47.4285714 92.0505856,47.3493132 91.5870514,47.1907945 C91.1235173,47.0322758 90.720077,46.7892173 90.3767183,46.4616119 C90.0333597,46.1340065 89.7586769,45.7139381 89.5526618,45.2013942 C89.3466466,44.6888503 89.2393486,44.0838461 89.2307647,43.3863636 L90.8402502,43.3863636 Z M102.492925,42.3401451 C102.475757,42.0548114 102.4264,41.7800497 102.344852,41.5158518 C102.263305,41.2516539 102.151715,41.0218052 102.010079,40.8262987 C101.868444,40.6307922 101.696767,40.4722759 101.495044,40.3507448 C101.293321,40.2292138 101.067995,40.1684492 100.81906,40.1684492 C100.561541,40.1684492 100.327632,40.2239299 100.117325,40.334893 C99.9070174,40.4458562 99.7267568,40.5990887 99.5765374,40.7945951 C99.426318,40.9901016 99.3061443,41.2199503 99.2160126,41.4841482 C99.125881,41.7483461 99.0765239,42.0336756 99.06794,42.3401451 L102.492925,42.3401451 Z M99.06794,43.5290298 C99.06794,43.8460673 99.1044213,44.1525323 99.177385,44.4484339 C99.2503487,44.7443356 99.3597926,45.0032456 99.50572,45.2251719 C99.6516474,45.4470981 99.8361999,45.6241081 100.059383,45.756207 C100.282566,45.888306 100.548665,45.9543545 100.857688,45.9543545 C101.286886,45.9543545 101.632386,45.8407511 101.894196,45.6135409 C102.156007,45.3863307 102.35129,45.0455205 102.480049,44.5911001 L103.870645,44.5911001 C103.793389,45.0349526 103.66034,45.4312435 103.471492,45.7799847 C103.282645,46.128726 103.055173,46.4219812 102.78907,46.6597594 C102.522967,46.8975375 102.224679,47.0771894 101.894196,47.1987204 C101.563714,47.3202514 101.218214,47.381016 100.857688,47.381016 C100.334066,47.381016 99.8705388,47.2753385 99.4670924,47.0639801 C99.063646,46.8526218 98.7224385,46.5567246 98.4434596,46.1762796 C98.1644807,45.7958346 97.9541767,45.341421 97.8125413,44.8130252 C97.6709059,44.2846294 97.6000892,43.7034027 97.6000892,43.0693277 C97.6000892,42.4880923 97.6751978,41.935927 97.8254172,41.4128151 C97.9756366,40.8897033 98.1902325,40.4300058 98.4692114,40.0337089 C98.7481903,39.6374121 99.0851058,39.3230213 99.4799683,39.0905271 C99.8748307,38.858033 100.32119,38.7417876 100.81906,38.7417876 C101.342682,38.7417876 101.812647,38.8765265 102.228969,39.1460084 C102.645292,39.4154903 102.990791,39.7721521 103.265478,40.2160046 C103.540165,40.6598571 103.739739,41.1697514 103.864207,41.7457028 C103.988674,42.3216543 104.020864,42.9160906 103.960776,43.5290298 L99.06794,43.5290298 Z M105.080978,38.9637128 L106.458697,38.9637128 L106.458697,40.5488923 L106.484449,40.5488923 C106.527369,40.326966 106.611061,40.110327 106.735529,39.8989687 C106.859996,39.6876104 107.010213,39.4947488 107.186185,39.3203782 C107.362156,39.1460075 107.557438,39.0059847 107.772037,38.9003056 C107.986637,38.7946264 108.205524,38.7417876 108.428708,38.7417876 C108.600387,38.7417876 108.718415,38.7470715 108.782794,38.7576394 C108.847174,38.7682073 108.913699,38.7787751 108.982371,38.789343 L108.982371,40.5330405 C108.879363,40.5119047 108.774211,40.4934111 108.666911,40.4775592 C108.559612,40.4617073 108.45446,40.4537815 108.351452,40.4537815 C108.102517,40.4537815 107.868608,40.5145461 107.649717,40.6360772 C107.430825,40.7576082 107.239835,40.9372601 107.07674,41.1750382 C106.913644,41.4128163 106.784887,41.7060716 106.690463,42.0548128 C106.59604,42.4035541 106.548829,42.8051289 106.548829,43.2595493 L106.548829,47.1590909 L105.080978,47.1590909 L105.080978,38.9637128 Z M108.956619,38.9637128 L110.553228,38.9637128 L112.239969,45.2568755 L112.265721,45.2568755 L113.888082,38.9637128 L115.407437,38.9637128 L113.025398,47.1590909 L111.377285,47.1590909 L108.956619,38.9637128 Z M116.3345,35.8409091 L117.802351,35.8409091 L117.802351,37.552903 L116.3345,37.552903 L116.3345,35.8409091 Z M116.3345,38.9637128 L117.802351,38.9637128 L117.802351,47.1590909 L116.3345,47.1590909 L116.3345,38.9637128 Z M123.892644,41.7060733 C123.832556,41.1988134 123.667318,40.8157321 123.396923,40.5568182 C123.126528,40.2979042 122.78532,40.1684492 122.37329,40.1684492 C122.184443,40.1684492 121.982722,40.2080783 121.768123,40.2873377 C121.553524,40.366597 121.356096,40.5145456 121.175833,40.7311879 C120.995569,40.9478302 120.845352,41.2490113 120.725177,41.6347403 C120.605001,42.0204692 120.544914,42.5250796 120.544914,43.1485867 C120.544914,43.48676 120.577104,43.8249283 120.641483,44.1631016 C120.705863,44.5012749 120.808869,44.802456 120.950505,45.0666539 C121.09214,45.3308518 121.274547,45.5448489 121.49773,45.7086516 C121.720913,45.8724543 121.991304,45.9543545 122.30891,45.9543545 C122.738109,45.9543545 123.092192,45.7905542 123.371171,45.4629488 C123.65015,45.1353434 123.823972,44.6756459 123.892644,44.0838426 L125.360495,44.0838426 C125.223151,45.1512022 124.89482,45.9675615 124.37549,46.532945 C123.85616,47.0983285 123.167307,47.381016 122.30891,47.381016 C121.785289,47.381016 121.323907,47.2726965 120.924753,47.0560542 C120.525598,46.839412 120.188683,46.5435147 119.913996,46.1683537 C119.639309,45.7931927 119.431151,45.3467049 119.289516,44.828877 C119.14788,44.3110491 119.077064,43.7509579 119.077064,43.1485867 C119.077064,42.5356476 119.145734,41.9597048 119.283078,41.420741 C119.420421,40.8817773 119.626433,40.414154 119.90112,40.0178571 C120.175807,39.6215603 120.517015,39.3098114 120.924753,39.0826012 C121.332491,38.855391 121.81104,38.7417876 122.360414,38.7417876 C122.746692,38.7417876 123.113651,38.8025522 123.461302,38.9240833 C123.808953,39.0456143 124.117971,39.2279081 124.388366,39.4709702 C124.658761,39.7140323 124.879794,40.0204973 125.051474,40.3903743 C125.223153,40.7602514 125.326159,41.1988134 125.360495,41.7060733 L123.892644,41.7060733 Z M131.128891,42.3401451 C131.111723,42.0548114 131.062366,41.7800497 130.980818,41.5158518 C130.899271,41.2516539 130.787681,41.0218052 130.646045,40.8262987 C130.50441,40.6307922 130.332733,40.4722759 130.13101,40.3507448 C129.929287,40.2292138 129.703961,40.1684492 129.455026,40.1684492 C129.197507,40.1684492 128.963597,40.2239299 128.75329,40.334893 C128.542983,40.4458562 128.362723,40.5990887 128.212503,40.7945951 C128.062284,40.9901016 127.94211,41.2199503 127.851978,41.4841482 C127.761847,41.7483461 127.71249,42.0336756 127.703906,42.3401451 L131.128891,42.3401451 Z M127.703906,43.5290298 C127.703906,43.8460673 127.740387,44.1525323 127.813351,44.4484339 C127.886314,44.7443356 127.995758,45.0032456 128.141686,45.2251719 C128.287613,45.4470981 128.472166,45.6241081 128.695349,45.756207 C128.918532,45.888306 129.184631,45.9543545 129.493654,45.9543545 C129.922852,45.9543545 130.268351,45.8407511 130.530162,45.6135409 C130.791973,45.3863307 130.987256,45.0455205 131.116015,44.5911001 L132.50661,44.5911001 C132.429355,45.0349526 132.296305,45.4312435 132.107458,45.7799847 C131.918611,46.128726 131.691139,46.4219812 131.425036,46.6597594 C131.158933,46.8975375 130.860645,47.0771894 130.530162,47.1987204 C130.19968,47.3202514 129.85418,47.381016 129.493654,47.381016 C128.970032,47.381016 128.506505,47.2753385 128.103058,47.0639801 C127.699612,46.8526218 127.358404,46.5567246 127.079425,46.1762796 C126.800447,45.7958346 126.590143,45.341421 126.448507,44.8130252 C126.306872,44.2846294 126.236055,43.7034027 126.236055,43.0693277 C126.236055,42.4880923 126.311164,41.935927 126.461383,41.4128151 C126.611602,40.8897033 126.826198,40.4300058 127.105177,40.0337089 C127.384156,39.6374121 127.721072,39.3230213 128.115934,39.0905271 C128.510796,38.858033 128.957156,38.7417876 129.455026,38.7417876 C129.978648,38.7417876 130.448613,38.8765265 130.864935,39.1460084 C131.281258,39.4154903 131.626757,39.7721521 131.901444,40.2160046 C132.176131,40.6598571 132.375705,41.1697514 132.500173,41.7457028 C132.62464,42.3216543 132.656829,42.9160906 132.596742,43.5290298 L127.703906,43.5290298 Z" id="Node-Service" fill="#4A4A4A"></path>
            </g>
            <g id="node-service-with-note-copy" transform="translate(15.000000, 55.000000)">
                <path d="M10,1.5 C5.30557963,1.5 1.5,5.30557963 1.5,10 L1.5,73 C1.5,77.6944204 5.30557963,81.5 10,81.5 L176,81.5 C180.69442,81.5 184.5,77.6944204 184.5,73 L184.5,10 C184.5,5.30557963 180.69442,1.5 176,1.5 L10,1.5 Z" id="Rectangle-17" stroke="#3662A2" stroke-width="3" fill="#FFFFFF"></path>
                <path d="M54.1826087,35.8409091 L55.8822254,35.8409091 L60.0797635,44.1789534 L60.1055153,44.1789534 L60.1055153,35.8409091 L61.6377455,35.8409091 L61.6377455,47.1590909 L59.9381288,47.1590909 L55.7534665,38.8368984 L55.7148389,38.8368984 L55.7148389,47.1590909 L54.1826087,47.1590909 L54.1826087,35.8409091 Z M66.3889466,47.381016 C65.8567408,47.381016 65.3824838,47.2726965 64.9661615,47.0560542 C64.5498391,46.839412 64.1979018,46.5408728 63.910339,46.1604278 C63.6227761,45.7799828 63.4038883,45.3255692 63.2536689,44.7971734 C63.1034495,44.2687776 63.0283409,43.6875509 63.0283409,43.0534759 C63.0283409,42.4299689 63.1034495,41.8540261 63.2536689,41.3256303 C63.4038883,40.7972344 63.6227761,40.3428208 63.910339,39.9623759 C64.1979018,39.5819309 64.5498391,39.2833917 64.9661615,39.0667494 C65.3824838,38.8501071 65.8567408,38.7417876 66.3889466,38.7417876 C66.9211525,38.7417876 67.3954095,38.8501071 67.8117318,39.0667494 C68.2280541,39.2833917 68.5799914,39.5819309 68.8675543,39.9623759 C69.1551171,40.3428208 69.374005,40.7972344 69.5242244,41.3256303 C69.6744438,41.8540261 69.7495523,42.4299689 69.7495523,43.0534759 C69.7495523,43.6875509 69.6744438,44.2687776 69.5242244,44.7971734 C69.374005,45.3255692 69.1551171,45.7799828 68.8675543,46.1604278 C68.5799914,46.5408728 68.2280541,46.839412 67.8117318,47.0560542 C67.3954095,47.2726965 66.9211525,47.381016 66.3889466,47.381016 Z M66.3889466,45.9543545 C66.7151373,45.9543545 66.9984039,45.8698124 67.238755,45.7007257 C67.479106,45.5316391 67.6765343,45.3097162 67.8310456,45.0349503 C67.985557,44.7601845 68.0992928,44.4510776 68.1722566,44.1076203 C68.2452203,43.764163 68.2817016,43.4127851 68.2817016,43.0534759 C68.2817016,42.7047347 68.2452203,42.3559987 68.1722566,42.0072574 C68.0992928,41.6585162 67.985557,41.3494093 67.8310456,41.0799274 C67.6765343,40.8104456 67.479106,40.5911646 67.238755,40.4220779 C66.9984039,40.2529913 66.7151373,40.1684492 66.3889466,40.1684492 C66.0627559,40.1684492 65.7794893,40.2529913 65.5391383,40.4220779 C65.2987873,40.5911646 65.101359,40.8104456 64.9468476,41.0799274 C64.7923363,41.3494093 64.6786004,41.6585162 64.6056367,42.0072574 C64.532673,42.3559987 64.4961917,42.7047347 64.4961917,43.0534759 C64.4961917,43.4127851 64.532673,43.764163 64.6056367,44.1076203 C64.6786004,44.4510776 64.7923363,44.7601845 64.9468476,45.0349503 C65.101359,45.3097162 65.2987873,45.5316391 65.5391383,45.7007257 C65.7794893,45.8698124 66.0627559,45.9543545 66.3889466,45.9543545 Z M77.2433168,47.1590909 L75.8527213,47.1590909 L75.8527213,46.0494652 L75.8269695,46.0494652 C75.6295383,46.5250215 75.3419798,46.8658317 74.9642853,47.071906 C74.5865908,47.2779804 74.1874424,47.381016 73.7668281,47.381016 C73.2432062,47.381016 72.7861169,47.2674126 72.3955465,47.0402024 C72.004976,46.8129922 71.6809362,46.5038853 71.4234172,46.1128724 C71.1658983,45.7218595 70.9727619,45.2595201 70.8440025,44.7258403 C70.715243,44.1921606 70.6508642,43.6188597 70.6508642,43.0059206 C70.6508642,42.2661664 70.7324107,41.6268171 70.895506,41.0878533 C71.0586013,40.5488896 71.2753432,40.1050438 71.5457381,39.7563025 C71.816133,39.4075613 72.1251512,39.1512932 72.4728018,38.9874905 C72.8204524,38.8236877 73.1745356,38.7417876 73.5350622,38.7417876 C73.7410774,38.7417876 73.9513814,38.7655651 74.1659805,38.8131207 C74.3805796,38.8606763 74.5865917,38.9372926 74.7840229,39.0429717 C74.9814541,39.1486509 75.1638607,39.2833898 75.331248,39.4471925 C75.4986353,39.6109952 75.6381227,39.8038568 75.7497142,40.025783 L75.775466,40.025783 L75.775466,35.8409091 L77.2433168,35.8409091 L77.2433168,47.1590909 Z M72.118715,43.1485867 C72.118715,43.4973279 72.1551963,43.8407801 72.22816,44.1789534 C72.3011237,44.5171267 72.4127136,44.8183078 72.562933,45.0825057 C72.7131524,45.3467036 72.9041427,45.5580588 73.1359098,45.7165775 C73.3676769,45.8750963 73.6423596,45.9543545 73.9599664,45.9543545 C74.2861571,45.9543545 74.5672777,45.8698124 74.8033368,45.7007257 C75.0393958,45.5316391 75.2325321,45.3097162 75.3827515,45.0349503 C75.5329709,44.7601845 75.6445608,44.4510776 75.7175245,44.1076203 C75.7904882,43.764163 75.8269695,43.4127851 75.8269695,43.0534759 C75.8269695,42.1446351 75.6617307,41.4365954 75.331248,40.9293354 C75.0007653,40.4220754 74.5522599,40.1684492 73.9857181,40.1684492 C73.6423595,40.1684492 73.352655,40.2556332 73.116596,40.4300038 C72.8805369,40.6043744 72.6874006,40.8315812 72.5371812,41.111631 C72.3869618,41.3916808 72.2796638,41.7087135 72.2152841,42.0627387 C72.1509044,42.4167639 72.118715,42.7787096 72.118715,43.1485867 Z M83.4108652,42.3401451 C83.3936972,42.0548114 83.3443402,41.7800497 83.2627925,41.5158518 C83.1812448,41.2516539 83.0696549,41.0218052 82.9280195,40.8262987 C82.7863841,40.6307922 82.6147073,40.4722759 82.4129841,40.3507448 C82.211261,40.2292138 81.9859352,40.1684492 81.7370002,40.1684492 C81.4794813,40.1684492 81.2455717,40.2239299 81.0352646,40.334893 C80.8249574,40.4458562 80.6446968,40.5990887 80.4944774,40.7945951 C80.3442581,40.9901016 80.2240843,41.2199503 80.1339527,41.4841482 C80.0438211,41.7483461 79.994464,42.0336756 79.98588,42.3401451 L83.4108652,42.3401451 Z M79.98588,43.5290298 C79.98588,43.8460673 80.0223613,44.1525323 80.095325,44.4484339 C80.1682888,44.7443356 80.2777327,45.0032456 80.4236601,45.2251719 C80.5695875,45.4470981 80.75414,45.6241081 80.9773231,45.756207 C81.2005062,45.888306 81.4666051,45.9543545 81.7756279,45.9543545 C82.2048262,45.9543545 82.5503256,45.8407511 82.8121365,45.6135409 C83.0739475,45.3863307 83.2692298,45.0455205 83.3979893,44.5911001 L84.7885847,44.5911001 C84.711329,45.0349526 84.5782796,45.4312435 84.3894323,45.7799847 C84.2005851,46.128726 83.9731134,46.4219812 83.7070105,46.6597594 C83.4409075,46.8975375 83.1426192,47.0771894 82.8121365,47.1987204 C82.4816539,47.3202514 82.1361544,47.381016 81.7756279,47.381016 C81.252006,47.381016 80.7884788,47.2753385 80.3850324,47.0639801 C79.9815861,46.8526218 79.6403785,46.5567246 79.3613997,46.1762796 C79.0824208,45.7958346 78.8721168,45.341421 78.7304814,44.8130252 C78.5888459,44.2846294 78.5180293,43.7034027 78.5180293,43.0693277 C78.5180293,42.4880923 78.5931378,41.935927 78.7433572,41.4128151 C78.8935766,40.8897033 79.1081726,40.4300058 79.3871514,40.0337089 C79.6661303,39.6374121 80.0030459,39.3230213 80.3979083,39.0905271 C80.7927707,38.858033 81.2391302,38.7417876 81.7370002,38.7417876 C82.2606221,38.7417876 82.7305872,38.8765265 83.1469095,39.1460084 C83.5632319,39.4154903 83.9087313,39.7721521 84.1834182,40.2160046 C84.4581051,40.6598571 84.6576793,41.1697514 84.7821468,41.7457028 C84.9066143,42.3216543 84.9388037,42.9160906 84.8787159,43.5290298 L79.98588,43.5290298 Z M90.8402502,43.3863636 C90.8402502,43.8196482 90.900337,44.1895197 91.0205125,44.4959893 C91.1406881,44.8024589 91.3080729,45.0534431 91.522672,45.2489496 C91.7372711,45.444456 91.9840565,45.5871208 92.2630353,45.6769481 C92.5420142,45.7667753 92.8445945,45.8116883 93.1707851,45.8116883 C93.5227277,45.8116883 93.823162,45.7614915 94.072097,45.6610963 C94.321032,45.5607011 94.5227522,45.431246 94.6772636,45.2727273 C94.8317749,45.1142085 94.9433648,44.9319147 95.0120365,44.7258403 C95.0807083,44.519766 95.1150436,44.3110528 95.1150436,44.0996944 C95.1150436,43.6664099 95.0356431,43.3467352 94.8768398,43.1406608 C94.7180364,42.9345864 94.5442137,42.7892798 94.3553665,42.7047364 C94.0291758,42.5567856 93.649341,42.4167628 93.2158507,42.2846639 C92.7823605,42.1525649 92.2480166,41.9808388 91.6128032,41.7694805 C91.2179408,41.6426655 90.889609,41.4762233 90.6277981,41.270149 C90.3659871,41.0640746 90.1578291,40.8342259 90.0033177,40.5805959 C89.8488063,40.3269659 89.7393624,40.0574881 89.6749827,39.7721543 C89.6106029,39.4868206 89.5784135,39.1962072 89.5784135,38.9003056 C89.5784135,38.3296381 89.6749817,37.8355954 89.8681209,37.4181627 C90.0612602,37.00073 90.3166293,36.654636 90.634236,36.3798701 C90.9518427,36.1051043 91.3123639,35.901675 91.7158103,35.769576 C92.1192566,35.6374771 92.5269889,35.5714286 92.9390192,35.5714286 C93.4197213,35.5714286 93.8725187,35.6480448 94.297425,35.8012796 C94.7223313,35.9545144 95.0957282,36.1843631 95.4176269,36.4908327 C95.7395256,36.7973023 95.9948947,37.1750996 96.183742,37.6242361 C96.3725892,38.0733725 96.4670114,38.5938346 96.4670114,39.1856379 L94.8575259,39.1856379 C94.8146061,38.4564517 94.6128859,37.9412735 94.2523594,37.6400879 C93.8918328,37.3389022 93.4325976,37.1883117 92.8746398,37.1883117 C92.6857926,37.1883117 92.4926562,37.2120891 92.295225,37.2596448 C92.0977938,37.3072004 91.9175333,37.3864586 91.7544379,37.4974217 C91.5913426,37.6083848 91.4561471,37.7589754 91.3488476,37.9491979 C91.241548,38.1394204 91.187899,38.3771949 91.187899,38.6625286 C91.187899,39.0641095 91.2887591,39.3785003 91.4904823,39.6057105 C91.6922055,39.8329207 91.9561585,40.0046467 92.2823492,40.1208938 C92.316685,40.1314617 92.4518804,40.1763747 92.6879395,40.2556341 C92.9239986,40.3348934 93.1879515,40.4220774 93.4798064,40.5171887 C93.7716612,40.6122999 94.0570738,40.7047678 94.3360526,40.7945951 C94.6150315,40.8844224 94.8146057,40.9504709 94.9347812,40.9927426 C95.23522,41.1089896 95.4970271,41.267506 95.7202102,41.4682964 C95.9433933,41.6690868 96.1300917,41.8989356 96.2803111,42.1578495 C96.4305305,42.4167635 96.5421204,42.6941671 96.6150841,42.9900688 C96.6880478,43.2859704 96.7245291,43.5818676 96.7245291,43.8777693 C96.7245291,44.5118443 96.6193771,45.0534419 96.4090699,45.5025783 C96.1987628,45.9517147 95.9219341,46.3189443 95.5785754,46.6042781 C95.2352168,46.8896118 94.8446522,47.098325 94.40687,47.230424 C93.9690878,47.3625229 93.5227282,47.4285714 93.0677781,47.4285714 C92.5441562,47.4285714 92.0505856,47.3493132 91.5870514,47.1907945 C91.1235173,47.0322758 90.720077,46.7892173 90.3767183,46.4616119 C90.0333597,46.1340065 89.7586769,45.7139381 89.5526618,45.2013942 C89.3466466,44.6888503 89.2393486,44.0838461 89.2307647,43.3863636 L90.8402502,43.3863636 Z M102.492925,42.3401451 C102.475757,42.0548114 102.4264,41.7800497 102.344852,41.5158518 C102.263305,41.2516539 102.151715,41.0218052 102.010079,40.8262987 C101.868444,40.6307922 101.696767,40.4722759 101.495044,40.3507448 C101.293321,40.2292138 101.067995,40.1684492 100.81906,40.1684492 C100.561541,40.1684492 100.327632,40.2239299 100.117325,40.334893 C99.9070174,40.4458562 99.7267568,40.5990887 99.5765374,40.7945951 C99.426318,40.9901016 99.3061443,41.2199503 99.2160126,41.4841482 C99.125881,41.7483461 99.0765239,42.0336756 99.06794,42.3401451 L102.492925,42.3401451 Z M99.06794,43.5290298 C99.06794,43.8460673 99.1044213,44.1525323 99.177385,44.4484339 C99.2503487,44.7443356 99.3597926,45.0032456 99.50572,45.2251719 C99.6516474,45.4470981 99.8361999,45.6241081 100.059383,45.756207 C100.282566,45.888306 100.548665,45.9543545 100.857688,45.9543545 C101.286886,45.9543545 101.632386,45.8407511 101.894196,45.6135409 C102.156007,45.3863307 102.35129,45.0455205 102.480049,44.5911001 L103.870645,44.5911001 C103.793389,45.0349526 103.66034,45.4312435 103.471492,45.7799847 C103.282645,46.128726 103.055173,46.4219812 102.78907,46.6597594 C102.522967,46.8975375 102.224679,47.0771894 101.894196,47.1987204 C101.563714,47.3202514 101.218214,47.381016 100.857688,47.381016 C100.334066,47.381016 99.8705388,47.2753385 99.4670924,47.0639801 C99.063646,46.8526218 98.7224385,46.5567246 98.4434596,46.1762796 C98.1644807,45.7958346 97.9541767,45.341421 97.8125413,44.8130252 C97.6709059,44.2846294 97.6000892,43.7034027 97.6000892,43.0693277 C97.6000892,42.4880923 97.6751978,41.935927 97.8254172,41.4128151 C97.9756366,40.8897033 98.1902325,40.4300058 98.4692114,40.0337089 C98.7481903,39.6374121 99.0851058,39.3230213 99.4799683,39.0905271 C99.8748307,38.858033 100.32119,38.7417876 100.81906,38.7417876 C101.342682,38.7417876 101.812647,38.8765265 102.228969,39.1460084 C102.645292,39.4154903 102.990791,39.7721521 103.265478,40.2160046 C103.540165,40.6598571 103.739739,41.1697514 103.864207,41.7457028 C103.988674,42.3216543 104.020864,42.9160906 103.960776,43.5290298 L99.06794,43.5290298 Z M105.080978,38.9637128 L106.458697,38.9637128 L106.458697,40.5488923 L106.484449,40.5488923 C106.527369,40.326966 106.611061,40.110327 106.735529,39.8989687 C106.859996,39.6876104 107.010213,39.4947488 107.186185,39.3203782 C107.362156,39.1460075 107.557438,39.0059847 107.772037,38.9003056 C107.986637,38.7946264 108.205524,38.7417876 108.428708,38.7417876 C108.600387,38.7417876 108.718415,38.7470715 108.782794,38.7576394 C108.847174,38.7682073 108.913699,38.7787751 108.982371,38.789343 L108.982371,40.5330405 C108.879363,40.5119047 108.774211,40.4934111 108.666911,40.4775592 C108.559612,40.4617073 108.45446,40.4537815 108.351452,40.4537815 C108.102517,40.4537815 107.868608,40.5145461 107.649717,40.6360772 C107.430825,40.7576082 107.239835,40.9372601 107.07674,41.1750382 C106.913644,41.4128163 106.784887,41.7060716 106.690463,42.0548128 C106.59604,42.4035541 106.548829,42.8051289 106.548829,43.2595493 L106.548829,47.1590909 L105.080978,47.1590909 L105.080978,38.9637128 Z M108.956619,38.9637128 L110.553228,38.9637128 L112.239969,45.2568755 L112.265721,45.2568755 L113.888082,38.9637128 L115.407437,38.9637128 L113.025398,47.1590909 L111.377285,47.1590909 L108.956619,38.9637128 Z M116.3345,35.8409091 L117.802351,35.8409091 L117.802351,37.552903 L116.3345,37.552903 L116.3345,35.8409091 Z M116.3345,38.9637128 L117.802351,38.9637128 L117.802351,47.1590909 L116.3345,47.1590909 L116.3345,38.9637128 Z M123.892644,41.7060733 C123.832556,41.1988134 123.667318,40.8157321 123.396923,40.5568182 C123.126528,40.2979042 122.78532,40.1684492 122.37329,40.1684492 C122.184443,40.1684492 121.982722,40.2080783 121.768123,40.2873377 C121.553524,40.366597 121.356096,40.5145456 121.175833,40.7311879 C120.995569,40.9478302 120.845352,41.2490113 120.725177,41.6347403 C120.605001,42.0204692 120.544914,42.5250796 120.544914,43.1485867 C120.544914,43.48676 120.577104,43.8249283 120.641483,44.1631016 C120.705863,44.5012749 120.808869,44.802456 120.950505,45.0666539 C121.09214,45.3308518 121.274547,45.5448489 121.49773,45.7086516 C121.720913,45.8724543 121.991304,45.9543545 122.30891,45.9543545 C122.738109,45.9543545 123.092192,45.7905542 123.371171,45.4629488 C123.65015,45.1353434 123.823972,44.6756459 123.892644,44.0838426 L125.360495,44.0838426 C125.223151,45.1512022 124.89482,45.9675615 124.37549,46.532945 C123.85616,47.0983285 123.167307,47.381016 122.30891,47.381016 C121.785289,47.381016 121.323907,47.2726965 120.924753,47.0560542 C120.525598,46.839412 120.188683,46.5435147 119.913996,46.1683537 C119.639309,45.7931927 119.431151,45.3467049 119.289516,44.828877 C119.14788,44.3110491 119.077064,43.7509579 119.077064,43.1485867 C119.077064,42.5356476 119.145734,41.9597048 119.283078,41.420741 C119.420421,40.8817773 119.626433,40.414154 119.90112,40.0178571 C120.175807,39.6215603 120.517015,39.3098114 120.924753,39.0826012 C121.332491,38.855391 121.81104,38.7417876 122.360414,38.7417876 C122.746692,38.7417876 123.113651,38.8025522 123.461302,38.9240833 C123.808953,39.0456143 124.117971,39.2279081 124.388366,39.4709702 C124.658761,39.7140323 124.879794,40.0204973 125.051474,40.3903743 C125.223153,40.7602514 125.326159,41.1988134 125.360495,41.7060733 L123.892644,41.7060733 Z M131.128891,42.3401451 C131.111723,42.0548114 131.062366,41.7800497 130.980818,41.5158518 C130.899271,41.2516539 130.787681,41.0218052 130.646045,40.8262987 C130.50441,40.6307922 130.332733,40.4722759 130.13101,40.3507448 C129.929287,40.2292138 129.703961,40.1684492 129.455026,40.1684492 C129.197507,40.1684492 128.963597,40.2239299 128.75329,40.334893 C128.542983,40.4458562 128.362723,40.5990887 128.212503,40.7945951 C128.062284,40.9901016 127.94211,41.2199503 127.851978,41.4841482 C127.761847,41.7483461 127.71249,42.0336756 127.703906,42.3401451 L131.128891,42.3401451 Z M127.703906,43.5290298 C127.703906,43.8460673 127.740387,44.1525323 127.813351,44.4484339 C127.886314,44.7443356 127.995758,45.0032456 128.141686,45.2251719 C128.287613,45.4470981 128.472166,45.6241081 128.695349,45.756207 C128.918532,45.888306 129.184631,45.9543545 129.493654,45.9543545 C129.922852,45.9543545 130.268351,45.8407511 130.530162,45.6135409 C130.791973,45.3863307 130.987256,45.0455205 131.116015,44.5911001 L132.50661,44.5911001 C132.429355,45.0349526 132.296305,45.4312435 132.107458,45.7799847 C131.918611,46.128726 131.691139,46.4219812 131.425036,46.6597594 C131.158933,46.8975375 130.860645,47.0771894 130.530162,47.1987204 C130.19968,47.3202514 129.85418,47.381016 129.493654,47.381016 C128.970032,47.381016 128.506505,47.2753385 128.103058,47.0639801 C127.699612,46.8526218 127.358404,46.5567246 127.079425,46.1762796 C126.800447,45.7958346 126.590143,45.341421 126.448507,44.8130252 C126.306872,44.2846294 126.236055,43.7034027 126.236055,43.0693277 C126.236055,42.4880923 126.311164,41.935927 126.461383,41.4128151 C126.611602,40.8897033 126.826198,40.4300058 127.105177,40.0337089 C127.384156,39.6374121 127.721072,39.3230213 128.115934,39.0905271 C128.510796,38.858033 128.957156,38.7417876 129.455026,38.7417876 C129.978648,38.7417876 130.448613,38.8765265 130.864935,39.1460084 C131.281258,39.4154903 131.626757,39.7721521 131.901444,40.2160046 C132.176131,40.6598571 132.375705,41.1697514 132.500173,41.7457028 C132.62464,42.3216543 132.656829,42.9160906 132.596742,43.5290298 L127.703906,43.5290298 Z" id="Node-Service" fill="#4A4A4A"></path>
            </g>
            <g id="node-service-with-note-copy" transform="translate(32.000000, 106.000000)">
                <path d="M10,1.5 C5.30557963,1.5 1.5,5.30557963 1.5,10 L1.5,73 C1.5,77.6944204 5.30557963,81.5 10,81.5 L176,81.5 C180.69442,81.5 184.5,77.6944204 184.5,73 L184.5,10 C184.5,5.30557963 180.69442,1.5 176,1.5 L10,1.5 Z" id="Rectangle-17" stroke="#3662A2" stroke-width="3" fill="#FFFFFF"></path>
                <path d="M54.1826087,35.8409091 L55.8822254,35.8409091 L60.0797635,44.1789534 L60.1055153,44.1789534 L60.1055153,35.8409091 L61.6377455,35.8409091 L61.6377455,47.1590909 L59.9381288,47.1590909 L55.7534665,38.8368984 L55.7148389,38.8368984 L55.7148389,47.1590909 L54.1826087,47.1590909 L54.1826087,35.8409091 Z M66.3889466,47.381016 C65.8567408,47.381016 65.3824838,47.2726965 64.9661615,47.0560542 C64.5498391,46.839412 64.1979018,46.5408728 63.910339,46.1604278 C63.6227761,45.7799828 63.4038883,45.3255692 63.2536689,44.7971734 C63.1034495,44.2687776 63.0283409,43.6875509 63.0283409,43.0534759 C63.0283409,42.4299689 63.1034495,41.8540261 63.2536689,41.3256303 C63.4038883,40.7972344 63.6227761,40.3428208 63.910339,39.9623759 C64.1979018,39.5819309 64.5498391,39.2833917 64.9661615,39.0667494 C65.3824838,38.8501071 65.8567408,38.7417876 66.3889466,38.7417876 C66.9211525,38.7417876 67.3954095,38.8501071 67.8117318,39.0667494 C68.2280541,39.2833917 68.5799914,39.5819309 68.8675543,39.9623759 C69.1551171,40.3428208 69.374005,40.7972344 69.5242244,41.3256303 C69.6744438,41.8540261 69.7495523,42.4299689 69.7495523,43.0534759 C69.7495523,43.6875509 69.6744438,44.2687776 69.5242244,44.7971734 C69.374005,45.3255692 69.1551171,45.7799828 68.8675543,46.1604278 C68.5799914,46.5408728 68.2280541,46.839412 67.8117318,47.0560542 C67.3954095,47.2726965 66.9211525,47.381016 66.3889466,47.381016 Z M66.3889466,45.9543545 C66.7151373,45.9543545 66.9984039,45.8698124 67.238755,45.7007257 C67.479106,45.5316391 67.6765343,45.3097162 67.8310456,45.0349503 C67.985557,44.7601845 68.0992928,44.4510776 68.1722566,44.1076203 C68.2452203,43.764163 68.2817016,43.4127851 68.2817016,43.0534759 C68.2817016,42.7047347 68.2452203,42.3559987 68.1722566,42.0072574 C68.0992928,41.6585162 67.985557,41.3494093 67.8310456,41.0799274 C67.6765343,40.8104456 67.479106,40.5911646 67.238755,40.4220779 C66.9984039,40.2529913 66.7151373,40.1684492 66.3889466,40.1684492 C66.0627559,40.1684492 65.7794893,40.2529913 65.5391383,40.4220779 C65.2987873,40.5911646 65.101359,40.8104456 64.9468476,41.0799274 C64.7923363,41.3494093 64.6786004,41.6585162 64.6056367,42.0072574 C64.532673,42.3559987 64.4961917,42.7047347 64.4961917,43.0534759 C64.4961917,43.4127851 64.532673,43.764163 64.6056367,44.1076203 C64.6786004,44.4510776 64.7923363,44.7601845 64.9468476,45.0349503 C65.101359,45.3097162 65.2987873,45.5316391 65.5391383,45.7007257 C65.7794893,45.8698124 66.0627559,45.9543545 66.3889466,45.9543545 Z M77.2433168,47.1590909 L75.8527213,47.1590909 L75.8527213,46.0494652 L75.8269695,46.0494652 C75.6295383,46.5250215 75.3419798,46.8658317 74.9642853,47.071906 C74.5865908,47.2779804 74.1874424,47.381016 73.7668281,47.381016 C73.2432062,47.381016 72.7861169,47.2674126 72.3955465,47.0402024 C72.004976,46.8129922 71.6809362,46.5038853 71.4234172,46.1128724 C71.1658983,45.7218595 70.9727619,45.2595201 70.8440025,44.7258403 C70.715243,44.1921606 70.6508642,43.6188597 70.6508642,43.0059206 C70.6508642,42.2661664 70.7324107,41.6268171 70.895506,41.0878533 C71.0586013,40.5488896 71.2753432,40.1050438 71.5457381,39.7563025 C71.816133,39.4075613 72.1251512,39.1512932 72.4728018,38.9874905 C72.8204524,38.8236877 73.1745356,38.7417876 73.5350622,38.7417876 C73.7410774,38.7417876 73.9513814,38.7655651 74.1659805,38.8131207 C74.3805796,38.8606763 74.5865917,38.9372926 74.7840229,39.0429717 C74.9814541,39.1486509 75.1638607,39.2833898 75.331248,39.4471925 C75.4986353,39.6109952 75.6381227,39.8038568 75.7497142,40.025783 L75.775466,40.025783 L75.775466,35.8409091 L77.2433168,35.8409091 L77.2433168,47.1590909 Z M72.118715,43.1485867 C72.118715,43.4973279 72.1551963,43.8407801 72.22816,44.1789534 C72.3011237,44.5171267 72.4127136,44.8183078 72.562933,45.0825057 C72.7131524,45.3467036 72.9041427,45.5580588 73.1359098,45.7165775 C73.3676769,45.8750963 73.6423596,45.9543545 73.9599664,45.9543545 C74.2861571,45.9543545 74.5672777,45.8698124 74.8033368,45.7007257 C75.0393958,45.5316391 75.2325321,45.3097162 75.3827515,45.0349503 C75.5329709,44.7601845 75.6445608,44.4510776 75.7175245,44.1076203 C75.7904882,43.764163 75.8269695,43.4127851 75.8269695,43.0534759 C75.8269695,42.1446351 75.6617307,41.4365954 75.331248,40.9293354 C75.0007653,40.4220754 74.5522599,40.1684492 73.9857181,40.1684492 C73.6423595,40.1684492 73.352655,40.2556332 73.116596,40.4300038 C72.8805369,40.6043744 72.6874006,40.8315812 72.5371812,41.111631 C72.3869618,41.3916808 72.2796638,41.7087135 72.2152841,42.0627387 C72.1509044,42.4167639 72.118715,42.7787096 72.118715,43.1485867 Z M83.4108652,42.3401451 C83.3936972,42.0548114 83.3443402,41.7800497 83.2627925,41.5158518 C83.1812448,41.2516539 83.0696549,41.0218052 82.9280195,40.8262987 C82.7863841,40.6307922 82.6147073,40.4722759 82.4129841,40.3507448 C82.211261,40.2292138 81.9859352,40.1684492 81.7370002,40.1684492 C81.4794813,40.1684492 81.2455717,40.2239299 81.0352646,40.334893 C80.8249574,40.4458562 80.6446968,40.5990887 80.4944774,40.7945951 C80.3442581,40.9901016 80.2240843,41.2199503 80.1339527,41.4841482 C80.0438211,41.7483461 79.994464,42.0336756 79.98588,42.3401451 L83.4108652,42.3401451 Z M79.98588,43.5290298 C79.98588,43.8460673 80.0223613,44.1525323 80.095325,44.4484339 C80.1682888,44.7443356 80.2777327,45.0032456 80.4236601,45.2251719 C80.5695875,45.4470981 80.75414,45.6241081 80.9773231,45.756207 C81.2005062,45.888306 81.4666051,45.9543545 81.7756279,45.9543545 C82.2048262,45.9543545 82.5503256,45.8407511 82.8121365,45.6135409 C83.0739475,45.3863307 83.2692298,45.0455205 83.3979893,44.5911001 L84.7885847,44.5911001 C84.711329,45.0349526 84.5782796,45.4312435 84.3894323,45.7799847 C84.2005851,46.128726 83.9731134,46.4219812 83.7070105,46.6597594 C83.4409075,46.8975375 83.1426192,47.0771894 82.8121365,47.1987204 C82.4816539,47.3202514 82.1361544,47.381016 81.7756279,47.381016 C81.252006,47.381016 80.7884788,47.2753385 80.3850324,47.0639801 C79.9815861,46.8526218 79.6403785,46.5567246 79.3613997,46.1762796 C79.0824208,45.7958346 78.8721168,45.341421 78.7304814,44.8130252 C78.5888459,44.2846294 78.5180293,43.7034027 78.5180293,43.0693277 C78.5180293,42.4880923 78.5931378,41.935927 78.7433572,41.4128151 C78.8935766,40.8897033 79.1081726,40.4300058 79.3871514,40.0337089 C79.6661303,39.6374121 80.0030459,39.3230213 80.3979083,39.0905271 C80.7927707,38.858033 81.2391302,38.7417876 81.7370002,38.7417876 C82.2606221,38.7417876 82.7305872,38.8765265 83.1469095,39.1460084 C83.5632319,39.4154903 83.9087313,39.7721521 84.1834182,40.2160046 C84.4581051,40.6598571 84.6576793,41.1697514 84.7821468,41.7457028 C84.9066143,42.3216543 84.9388037,42.9160906 84.8787159,43.5290298 L79.98588,43.5290298 Z M90.8402502,43.3863636 C90.8402502,43.8196482 90.900337,44.1895197 91.0205125,44.4959893 C91.1406881,44.8024589 91.3080729,45.0534431 91.522672,45.2489496 C91.7372711,45.444456 91.9840565,45.5871208 92.2630353,45.6769481 C92.5420142,45.7667753 92.8445945,45.8116883 93.1707851,45.8116883 C93.5227277,45.8116883 93.823162,45.7614915 94.072097,45.6610963 C94.321032,45.5607011 94.5227522,45.431246 94.6772636,45.2727273 C94.8317749,45.1142085 94.9433648,44.9319147 95.0120365,44.7258403 C95.0807083,44.519766 95.1150436,44.3110528 95.1150436,44.0996944 C95.1150436,43.6664099 95.0356431,43.3467352 94.8768398,43.1406608 C94.7180364,42.9345864 94.5442137,42.7892798 94.3553665,42.7047364 C94.0291758,42.5567856 93.649341,42.4167628 93.2158507,42.2846639 C92.7823605,42.1525649 92.2480166,41.9808388 91.6128032,41.7694805 C91.2179408,41.6426655 90.889609,41.4762233 90.6277981,41.270149 C90.3659871,41.0640746 90.1578291,40.8342259 90.0033177,40.5805959 C89.8488063,40.3269659 89.7393624,40.0574881 89.6749827,39.7721543 C89.6106029,39.4868206 89.5784135,39.1962072 89.5784135,38.9003056 C89.5784135,38.3296381 89.6749817,37.8355954 89.8681209,37.4181627 C90.0612602,37.00073 90.3166293,36.654636 90.634236,36.3798701 C90.9518427,36.1051043 91.3123639,35.901675 91.7158103,35.769576 C92.1192566,35.6374771 92.5269889,35.5714286 92.9390192,35.5714286 C93.4197213,35.5714286 93.8725187,35.6480448 94.297425,35.8012796 C94.7223313,35.9545144 95.0957282,36.1843631 95.4176269,36.4908327 C95.7395256,36.7973023 95.9948947,37.1750996 96.183742,37.6242361 C96.3725892,38.0733725 96.4670114,38.5938346 96.4670114,39.1856379 L94.8575259,39.1856379 C94.8146061,38.4564517 94.6128859,37.9412735 94.2523594,37.6400879 C93.8918328,37.3389022 93.4325976,37.1883117 92.8746398,37.1883117 C92.6857926,37.1883117 92.4926562,37.2120891 92.295225,37.2596448 C92.0977938,37.3072004 91.9175333,37.3864586 91.7544379,37.4974217 C91.5913426,37.6083848 91.4561471,37.7589754 91.3488476,37.9491979 C91.241548,38.1394204 91.187899,38.3771949 91.187899,38.6625286 C91.187899,39.0641095 91.2887591,39.3785003 91.4904823,39.6057105 C91.6922055,39.8329207 91.9561585,40.0046467 92.2823492,40.1208938 C92.316685,40.1314617 92.4518804,40.1763747 92.6879395,40.2556341 C92.9239986,40.3348934 93.1879515,40.4220774 93.4798064,40.5171887 C93.7716612,40.6122999 94.0570738,40.7047678 94.3360526,40.7945951 C94.6150315,40.8844224 94.8146057,40.9504709 94.9347812,40.9927426 C95.23522,41.1089896 95.4970271,41.267506 95.7202102,41.4682964 C95.9433933,41.6690868 96.1300917,41.8989356 96.2803111,42.1578495 C96.4305305,42.4167635 96.5421204,42.6941671 96.6150841,42.9900688 C96.6880478,43.2859704 96.7245291,43.5818676 96.7245291,43.8777693 C96.7245291,44.5118443 96.6193771,45.0534419 96.4090699,45.5025783 C96.1987628,45.9517147 95.9219341,46.3189443 95.5785754,46.6042781 C95.2352168,46.8896118 94.8446522,47.098325 94.40687,47.230424 C93.9690878,47.3625229 93.5227282,47.4285714 93.0677781,47.4285714 C92.5441562,47.4285714 92.0505856,47.3493132 91.5870514,47.1907945 C91.1235173,47.0322758 90.720077,46.7892173 90.3767183,46.4616119 C90.0333597,46.1340065 89.7586769,45.7139381 89.5526618,45.2013942 C89.3466466,44.6888503 89.2393486,44.0838461 89.2307647,43.3863636 L90.8402502,43.3863636 Z M102.492925,42.3401451 C102.475757,42.0548114 102.4264,41.7800497 102.344852,41.5158518 C102.263305,41.2516539 102.151715,41.0218052 102.010079,40.8262987 C101.868444,40.6307922 101.696767,40.4722759 101.495044,40.3507448 C101.293321,40.2292138 101.067995,40.1684492 100.81906,40.1684492 C100.561541,40.1684492 100.327632,40.2239299 100.117325,40.334893 C99.9070174,40.4458562 99.7267568,40.5990887 99.5765374,40.7945951 C99.426318,40.9901016 99.3061443,41.2199503 99.2160126,41.4841482 C99.125881,41.7483461 99.0765239,42.0336756 99.06794,42.3401451 L102.492925,42.3401451 Z M99.06794,43.5290298 C99.06794,43.8460673 99.1044213,44.1525323 99.177385,44.4484339 C99.2503487,44.7443356 99.3597926,45.0032456 99.50572,45.2251719 C99.6516474,45.4470981 99.8361999,45.6241081 100.059383,45.756207 C100.282566,45.888306 100.548665,45.9543545 100.857688,45.9543545 C101.286886,45.9543545 101.632386,45.8407511 101.894196,45.6135409 C102.156007,45.3863307 102.35129,45.0455205 102.480049,44.5911001 L103.870645,44.5911001 C103.793389,45.0349526 103.66034,45.4312435 103.471492,45.7799847 C103.282645,46.128726 103.055173,46.4219812 102.78907,46.6597594 C102.522967,46.8975375 102.224679,47.0771894 101.894196,47.1987204 C101.563714,47.3202514 101.218214,47.381016 100.857688,47.381016 C100.334066,47.381016 99.8705388,47.2753385 99.4670924,47.0639801 C99.063646,46.8526218 98.7224385,46.5567246 98.4434596,46.1762796 C98.1644807,45.7958346 97.9541767,45.341421 97.8125413,44.8130252 C97.6709059,44.2846294 97.6000892,43.7034027 97.6000892,43.0693277 C97.6000892,42.4880923 97.6751978,41.935927 97.8254172,41.4128151 C97.9756366,40.8897033 98.1902325,40.4300058 98.4692114,40.0337089 C98.7481903,39.6374121 99.0851058,39.3230213 99.4799683,39.0905271 C99.8748307,38.858033 100.32119,38.7417876 100.81906,38.7417876 C101.342682,38.7417876 101.812647,38.8765265 102.228969,39.1460084 C102.645292,39.4154903 102.990791,39.7721521 103.265478,40.2160046 C103.540165,40.6598571 103.739739,41.1697514 103.864207,41.7457028 C103.988674,42.3216543 104.020864,42.9160906 103.960776,43.5290298 L99.06794,43.5290298 Z M105.080978,38.9637128 L106.458697,38.9637128 L106.458697,40.5488923 L106.484449,40.5488923 C106.527369,40.326966 106.611061,40.110327 106.735529,39.8989687 C106.859996,39.6876104 107.010213,39.4947488 107.186185,39.3203782 C107.362156,39.1460075 107.557438,39.0059847 107.772037,38.9003056 C107.986637,38.7946264 108.205524,38.7417876 108.428708,38.7417876 C108.600387,38.7417876 108.718415,38.7470715 108.782794,38.7576394 C108.847174,38.7682073 108.913699,38.7787751 108.982371,38.789343 L108.982371,40.5330405 C108.879363,40.5119047 108.774211,40.4934111 108.666911,40.4775592 C108.559612,40.4617073 108.45446,40.4537815 108.351452,40.4537815 C108.102517,40.4537815 107.868608,40.5145461 107.649717,40.6360772 C107.430825,40.7576082 107.239835,40.9372601 107.07674,41.1750382 C106.913644,41.4128163 106.784887,41.7060716 106.690463,42.0548128 C106.59604,42.4035541 106.548829,42.8051289 106.548829,43.2595493 L106.548829,47.1590909 L105.080978,47.1590909 L105.080978,38.9637128 Z M108.956619,38.9637128 L110.553228,38.9637128 L112.239969,45.2568755 L112.265721,45.2568755 L113.888082,38.9637128 L115.407437,38.9637128 L113.025398,47.1590909 L111.377285,47.1590909 L108.956619,38.9637128 Z M116.3345,35.8409091 L117.802351,35.8409091 L117.802351,37.552903 L116.3345,37.552903 L116.3345,35.8409091 Z M116.3345,38.9637128 L117.802351,38.9637128 L117.802351,47.1590909 L116.3345,47.1590909 L116.3345,38.9637128 Z M123.892644,41.7060733 C123.832556,41.1988134 123.667318,40.8157321 123.396923,40.5568182 C123.126528,40.2979042 122.78532,40.1684492 122.37329,40.1684492 C122.184443,40.1684492 121.982722,40.2080783 121.768123,40.2873377 C121.553524,40.366597 121.356096,40.5145456 121.175833,40.7311879 C120.995569,40.9478302 120.845352,41.2490113 120.725177,41.6347403 C120.605001,42.0204692 120.544914,42.5250796 120.544914,43.1485867 C120.544914,43.48676 120.577104,43.8249283 120.641483,44.1631016 C120.705863,44.5012749 120.808869,44.802456 120.950505,45.0666539 C121.09214,45.3308518 121.274547,45.5448489 121.49773,45.7086516 C121.720913,45.8724543 121.991304,45.9543545 122.30891,45.9543545 C122.738109,45.9543545 123.092192,45.7905542 123.371171,45.4629488 C123.65015,45.1353434 123.823972,44.6756459 123.892644,44.0838426 L125.360495,44.0838426 C125.223151,45.1512022 124.89482,45.9675615 124.37549,46.532945 C123.85616,47.0983285 123.167307,47.381016 122.30891,47.381016 C121.785289,47.381016 121.323907,47.2726965 120.924753,47.0560542 C120.525598,46.839412 120.188683,46.5435147 119.913996,46.1683537 C119.639309,45.7931927 119.431151,45.3467049 119.289516,44.828877 C119.14788,44.3110491 119.077064,43.7509579 119.077064,43.1485867 C119.077064,42.5356476 119.145734,41.9597048 119.283078,41.420741 C119.420421,40.8817773 119.626433,40.414154 119.90112,40.0178571 C120.175807,39.6215603 120.517015,39.3098114 120.924753,39.0826012 C121.332491,38.855391 121.81104,38.7417876 122.360414,38.7417876 C122.746692,38.7417876 123.113651,38.8025522 123.461302,38.9240833 C123.808953,39.0456143 124.117971,39.2279081 124.388366,39.4709702 C124.658761,39.7140323 124.879794,40.0204973 125.051474,40.3903743 C125.223153,40.7602514 125.326159,41.1988134 125.360495,41.7060733 L123.892644,41.7060733 Z M131.128891,42.3401451 C131.111723,42.0548114 131.062366,41.7800497 130.980818,41.5158518 C130.899271,41.2516539 130.787681,41.0218052 130.646045,40.8262987 C130.50441,40.6307922 130.332733,40.4722759 130.13101,40.3507448 C129.929287,40.2292138 129.703961,40.1684492 129.455026,40.1684492 C129.197507,40.1684492 128.963597,40.2239299 128.75329,40.334893 C128.542983,40.4458562 128.362723,40.5990887 128.212503,40.7945951 C128.062284,40.9901016 127.94211,41.2199503 127.851978,41.4841482 C127.761847,41.7483461 127.71249,42.0336756 127.703906,42.3401451 L131.128891,42.3401451 Z M127.703906,43.5290298 C127.703906,43.8460673 127.740387,44.1525323 127.813351,44.4484339 C127.886314,44.7443356 127.995758,45.0032456 128.141686,45.2251719 C128.287613,45.4470981 128.472166,45.6241081 128.695349,45.756207 C128.918532,45.888306 129.184631,45.9543545 129.493654,45.9543545 C129.922852,45.9543545 130.268351,45.8407511 130.530162,45.6135409 C130.791973,45.3863307 130.987256,45.0455205 131.116015,44.5911001 L132.50661,44.5911001 C132.429355,45.0349526 132.296305,45.4312435 132.107458,45.7799847 C131.918611,46.128726 131.691139,46.4219812 131.425036,46.6597594 C131.158933,46.8975375 130.860645,47.0771894 130.530162,47.1987204 C130.19968,47.3202514 129.85418,47.381016 129.493654,47.381016 C128.970032,47.381016 128.506505,47.2753385 128.103058,47.0639801 C127.699612,46.8526218 127.358404,46.5567246 127.079425,46.1762796 C126.800447,45.7958346 126.590143,45.341421 126.448507,44.8130252 C126.306872,44.2846294 126.236055,43.7034027 126.236055,43.0693277 C126.236055,42.4880923 126.311164,41.935927 126.461383,41.4128151 C126.611602,40.8897033 126.826198,40.4300058 127.105177,40.0337089 C127.384156,39.6374121 127.721072,39.3230213 128.115934,39.0905271 C128.510796,38.858033 128.957156,38.7417876 129.455026,38.7417876 C129.978648,38.7417876 130.448613,38.8765265 130.864935,39.1460084 C131.281258,39.4154903 131.626757,39.7721521 131.901444,40.2160046 C132.176131,40.6598571 132.375705,41.1697514 132.500173,41.7457028 C132.62464,42.3216543 132.656829,42.9160906 132.596742,43.5290298 L127.703906,43.5290298 Z" id="Node-Service" fill="#4A4A4A"></path>
            </g>
        </g>
        <text id="grav-00-10.X.X.1-arc" font-family="LucidaGrande-Bold, Lucida Grande" font-size="11" font-weight="bold" fill="#4A4A4A">
            <tspan x="502.389648" y="47">grav-00 10.X.X.1 arch=debian</tspan>
        </text>
    </g>
</svg>