<svg width="121" height="24" viewBox="0 0 121 24" fill="none" xmlns="http://www.w3.org/2000/svg">
  <path fill-rule="evenodd" clip-rule="evenodd" d="M13.8936 0.228852C14.0734 0.249366 14.2263 0.390427 14.283 0.553886L14.2995 0.616042L14.8839 3.61356C15.6686 3.9167 16.4073 4.32013 17.0726 4.81754L17.3185 5.00847L20.2667 4.00075C20.4577 3.91869 20.66 3.97767 20.803 4.14178C21.8173 5.2777 22.6407 6.64954 23.1187 8.0906C23.1929 8.25699 23.1542 8.45072 23.0275 8.57456L22.9758 8.61754L20.636 10.6086C20.7195 11.0535 20.7435 11.5343 20.7435 12.0022C20.7435 12.3787 20.7281 12.7608 20.6793 13.1264L20.636 13.3972L22.9758 15.3895C23.1428 15.5062 23.2022 15.7293 23.1187 15.9165C22.6419 17.3575 21.8186 18.7281 20.8042 19.864C20.6761 20.0099 20.5019 20.0727 20.3307 20.0272L20.2667 20.005L17.3185 18.9973C16.6721 19.5181 15.9497 19.9467 15.1771 20.2733L14.8851 20.3909L14.2995 23.391C14.2641 23.5795 14.0959 23.7538 13.8936 23.7782C13.1296 23.9179 12.3657 24 11.579 24C10.7911 24 10.0272 23.9179 9.26325 23.7782C9.08337 23.7565 8.93048 23.6164 8.87385 23.4531L8.85726 23.391L8.27294 20.3909C7.47842 20.0863 6.71155 19.6758 6.05348 19.1696L5.83827 18.9973L2.8901 20.005C2.69912 20.0871 2.49676 20.0281 2.35258 19.864C1.33824 18.7281 0.514875 17.3575 0.0380586 15.9165C-0.036141 15.7501 0.00258273 15.5553 0.129358 15.4321L0.180977 15.3895L2.51953 13.3972C2.43605 12.9523 2.41202 12.4728 2.41202 12.0022C2.41202 11.6279 2.4274 11.2453 2.47629 10.8795L2.51953 10.6086L0.180977 8.61754C0.0140281 8.49959 -0.0466807 8.27779 0.0380586 8.0906C0.514875 6.64954 1.33824 5.2777 2.35258 4.14178C2.48074 3.9959 2.65487 3.93411 2.82612 3.97891L2.8901 4.00075L5.83827 5.00847C6.47116 4.48115 7.22083 4.04936 8.00893 3.71967L8.27294 3.61356L8.85726 0.616042C8.89268 0.427576 9.06089 0.25193 9.26325 0.228852C10.7911 -0.0762841 12.3657 -0.0762841 13.8936 0.228852ZM79.2983 8.26774C79.8872 8.26774 80.4325 8.39625 80.9342 8.65328C81.4358 8.91031 81.8684 9.28157 82.2319 9.76707C82.5955 10.2526 82.8808 10.8469 83.088 11.5502C83.2952 12.2535 83.3988 13.0513 83.3988 13.9438C83.3988 14.7791 83.2807 15.5502 83.0444 16.257C82.8081 16.9639 82.4773 17.5779 82.052 18.0991C81.6267 18.6203 81.1178 19.0272 80.5252 19.3199C79.9327 19.6127 79.2765 19.759 78.5568 19.759C77.9679 19.759 77.4735 19.6769 77.0736 19.5127C76.6737 19.3485 76.3102 19.1272 75.983 18.8487V23.1111H72.6023V8.48193H74.6962L74.7987 8.4858C74.9648 8.49869 75.1069 8.5438 75.2251 8.62115C75.3669 8.71397 75.4668 8.85319 75.525 9.03882L75.7758 9.85274L75.9425 9.68005C76.1122 9.51138 76.2911 9.35475 76.4792 9.21017C76.7301 9.0174 76.9991 8.85141 77.2863 8.71218C77.5734 8.57296 77.8824 8.46408 78.2132 8.38554C78.544 8.30701 78.9057 8.26774 79.2983 8.26774ZM49.5533 8.65328C48.9317 8.42481 48.2464 8.31058 47.4976 8.31058C46.6324 8.31058 45.8563 8.45694 45.1692 8.74967C44.4822 9.04239 43.8969 9.43864 43.4134 9.93842C42.9299 10.4382 42.5592 11.0201 42.3011 11.6841C42.043 12.3481 41.9139 13.0513 41.9139 13.7938C41.9139 14.7791 42.0648 15.643 42.3665 16.3855C42.6682 17.1281 43.079 17.7492 43.5988 18.249C44.1187 18.7488 44.7257 19.1254 45.4201 19.3788C46.1144 19.6323 46.8578 19.759 47.6503 19.759C48.0356 19.759 48.4409 19.7323 48.8662 19.6787C49.2915 19.6252 49.7169 19.5288 50.1422 19.3896C50.5675 19.2503 50.9819 19.0576 51.3854 18.8112C51.7313 18.6001 52.0571 18.3352 52.3629 18.0166L52.5142 17.8527L51.5327 16.664C51.3945 16.4712 51.1909 16.3748 50.9219 16.3748C50.7184 16.3748 50.5239 16.4212 50.3385 16.5141C50.1531 16.6069 49.9495 16.7104 49.7278 16.8246C49.506 16.9389 49.2534 17.0424 48.9698 17.1352C48.6863 17.228 48.3482 17.2744 47.9556 17.2744C47.2213 17.2744 46.6215 17.0656 46.1562 16.6479C45.7219 16.2581 45.4428 15.6459 45.3188 14.8114L45.2946 14.6292H51.8162C51.9689 14.6292 52.0943 14.6113 52.1924 14.5756C52.2906 14.5399 52.3687 14.4757 52.4269 14.3829C52.4851 14.29 52.5251 14.1651 52.5469 14.008C52.5687 13.851 52.5796 13.6475 52.5796 13.3976C52.5796 12.5979 52.4542 11.8822 52.2033 11.2503C51.9525 10.6185 51.6035 10.0848 51.1564 9.64926C50.7093 9.21374 50.1749 8.88175 49.5533 8.65328ZM65.5791 8.31058C66.3279 8.31058 67.0132 8.42481 67.6348 8.65328C68.2564 8.88175 68.7908 9.21374 69.2379 9.64926C69.685 10.0848 70.034 10.6185 70.2849 11.2503C70.5357 11.8822 70.6611 12.5979 70.6611 13.3976C70.6611 13.6475 70.6502 13.851 70.6284 14.008C70.6066 14.1651 70.5666 14.29 70.5084 14.3829C70.4503 14.4757 70.3721 14.5399 70.2739 14.5756C70.1758 14.6113 70.0504 14.6292 69.8977 14.6292H63.3761L63.4003 14.8114C63.5243 15.6459 63.8034 16.2581 64.2377 16.6479C64.703 17.0656 65.3028 17.2744 66.0371 17.2744C66.4297 17.2744 66.7678 17.228 67.0513 17.1352C67.3349 17.0424 67.5875 16.9389 67.8093 16.8246C68.031 16.7104 68.2346 16.6069 68.42 16.5141C68.6054 16.4212 68.7999 16.3748 69.0034 16.3748C69.2724 16.3748 69.476 16.4712 69.6142 16.664L70.5957 17.8527L70.4444 18.0166C70.1386 18.3352 69.8128 18.6001 69.4669 18.8112C69.0634 19.0576 68.649 19.2503 68.2237 19.3896C67.7984 19.5288 67.3731 19.6252 66.9477 19.6787C66.5224 19.7323 66.1171 19.759 65.7318 19.759C64.9393 19.759 64.1959 19.6323 63.5016 19.3788C62.8072 19.1254 62.2002 18.7488 61.6803 18.249C61.1605 17.7492 60.7497 17.1281 60.448 16.3855C60.1463 15.643 59.9954 14.7791 59.9954 13.7938C59.9954 13.0513 60.1245 12.3481 60.3826 11.6841C60.6407 11.0201 61.0114 10.4382 61.4949 9.93842C61.9784 9.43864 62.5637 9.04239 63.2507 8.74967C63.9378 8.45694 64.7139 8.31058 65.5791 8.31058ZM92.5923 8.70683C91.8871 8.44266 91.1055 8.31058 90.2476 8.31058C89.3824 8.31058 88.5954 8.44266 87.8865 8.70683C87.1777 8.97099 86.5669 9.3494 86.0544 9.84203C85.5418 10.3347 85.1456 10.9326 84.8657 11.6359C84.5857 12.3391 84.4458 13.1299 84.4458 14.008C84.4458 14.8934 84.5857 15.6912 84.8657 16.4016C85.1456 17.112 85.5418 17.7153 86.0544 18.2115C86.5669 18.7077 87.1777 19.0897 87.8865 19.3574C88.5954 19.6252 89.3824 19.759 90.2476 19.759C91.1055 19.759 91.8871 19.6252 92.5923 19.3574C93.2975 19.0897 93.9028 18.7077 94.4081 18.2115C94.9134 17.7153 95.306 17.112 95.5859 16.4016C95.8658 15.6912 96.0057 14.8934 96.0057 14.008C96.0057 13.1299 95.8658 12.3391 95.5859 11.6359C95.306 10.9326 94.9134 10.3347 94.4081 9.84203C93.9028 9.3494 93.2975 8.97099 92.5923 8.70683ZM110.903 5.25837V8.50335H113.651V10.7738H110.903V16.2892L110.907 16.3966C110.922 16.606 110.985 16.7826 111.094 16.9264C111.221 17.0942 111.404 17.178 111.644 17.178C111.768 17.178 111.872 17.1656 111.955 17.1406C112.039 17.1156 112.112 17.087 112.173 17.0549C112.235 17.0228 112.293 16.9942 112.348 16.9692C112.402 16.9442 112.466 16.9317 112.539 16.9317C112.64 16.9317 112.722 16.9549 112.784 17.0013C112.846 17.0477 112.909 17.1209 112.975 17.2209L114 18.7952L113.834 18.9119C113.44 19.1755 113.005 19.3775 112.528 19.5181C111.982 19.6787 111.419 19.759 110.837 19.759C110.299 19.759 109.825 19.6823 109.414 19.5288C109.003 19.3753 108.658 19.1575 108.378 18.8755C108.098 18.5935 107.886 18.2526 107.74 17.8527C107.595 17.4529 107.522 17.0067 107.522 16.5141V10.7738H106.562L106.477 10.7691C106.339 10.7538 106.218 10.7 106.115 10.6078C105.992 10.4971 105.93 10.3347 105.93 10.1205V8.82463L107.729 8.48193L108.395 5.77242L108.42 5.69032C108.524 5.40235 108.763 5.25837 109.136 5.25837H110.903ZM41.1287 6.85408V3.98394H28.5V6.85408H32.9713V19.5877H36.6574V6.85408H41.1287ZM58.0106 3.55556V19.5877H54.6298V3.55556H58.0106ZM105.363 8.63186C105.05 8.38911 104.636 8.26774 104.12 8.26774C103.509 8.26774 102.945 8.4498 102.429 8.81392C101.97 9.13759 101.552 9.56561 101.173 10.098L101.033 10.3025L100.848 9.26372C100.819 9.12093 100.784 8.99955 100.744 8.8996C100.704 8.79964 100.646 8.71932 100.57 8.65863C100.493 8.59795 100.399 8.55332 100.286 8.52477C100.202 8.50335 100.102 8.48996 99.9866 8.4846L99.8663 8.48193H97.8597V19.5877H101.24V12.7764C101.749 11.8483 102.447 11.3842 103.334 11.3842C103.589 11.3842 103.8 11.4003 103.967 11.4324C104.134 11.4645 104.279 11.4806 104.403 11.4806C104.548 11.4806 104.665 11.4502 104.752 11.3896C104.822 11.341 104.873 11.2639 104.906 11.1582L104.927 11.0736L105.363 8.63186ZM11.5775 4.97778C7.69119 4.97778 4.54219 8.12219 4.54219 12C4.54219 15.8778 7.69119 19.0222 11.5775 19.0222C15.4638 19.0222 18.6141 15.8778 18.6141 12C18.6141 8.12219 15.4638 4.97778 11.5775 4.97778ZM77.4498 10.8755C77.6498 10.8291 77.8733 10.8059 78.1205 10.8059C78.3895 10.8059 78.6331 10.8594 78.8512 10.9665C79.0693 11.0736 79.2565 11.2503 79.4128 11.4967C79.5692 11.743 79.6909 12.066 79.7782 12.4659C79.8654 12.8657 79.909 13.3583 79.909 13.9438C79.909 14.5578 79.8545 15.079 79.7455 15.5074C79.6364 15.9357 79.4855 16.2838 79.2929 16.5515C79.1002 16.8193 78.873 17.0138 78.6113 17.1352C78.3495 17.2566 78.0624 17.3173 77.7497 17.3173C77.4226 17.3173 77.1099 17.2619 76.8119 17.1513C76.5564 17.0564 76.3169 16.8999 76.0934 16.6818L75.983 16.5676V11.8554C76.1284 11.6841 76.2738 11.5324 76.4193 11.4003C76.5647 11.2682 76.7228 11.1593 76.8937 11.0736C77.0645 10.988 77.2499 10.9219 77.4498 10.8755ZM90.2476 10.7738C89.4478 10.7738 88.8626 11.0415 88.4918 11.577C88.121 12.1124 87.9356 12.9299 87.9356 14.0295C87.9356 15.129 88.121 15.9482 88.4918 16.4873C88.8626 17.0263 89.4478 17.2959 90.2476 17.2959C91.0255 17.2959 91.5981 17.0263 91.9652 16.4873C92.3324 15.9482 92.5159 15.129 92.5159 14.0295C92.5159 12.9299 92.3324 12.1124 91.9652 11.577C91.5981 11.0415 91.0255 10.7738 90.2476 10.7738ZM16.0313 11.0248V8.93333H7.125V11.0248L10.5178 11.0245L10.5179 16.0444H12.6384L12.6382 11.0245L16.0313 11.0248ZM47.563 10.6024C46.9159 10.6024 46.4106 10.7827 46.0471 11.1432C45.6836 11.5038 45.4437 12.0232 45.3274 12.7015H49.5478C49.5478 12.4373 49.5133 12.1803 49.4442 11.9304C49.3752 11.6805 49.2625 11.4574 49.1062 11.261C48.9498 11.0647 48.7444 10.9058 48.49 10.7845C48.2355 10.6631 47.9265 10.6024 47.563 10.6024ZM64.1286 11.1432C64.4922 10.7827 64.9974 10.6024 65.6445 10.6024C66.008 10.6024 66.317 10.6631 66.5715 10.7845C66.826 10.9058 67.0313 11.0647 67.1877 11.261C67.344 11.4574 67.4567 11.6805 67.5257 11.9304C67.5948 12.1803 67.6293 12.4373 67.6293 12.7015H63.4089C63.5252 12.0232 63.7651 11.5038 64.1286 11.1432Z" fill="currentColor"/>
</svg>
