<svg width="217" height="27" viewBox="0 0 217 27" fill="none" xmlns="http://www.w3.org/2000/svg">
  <path
    d="M2.78644 14.3033V18.5093H1.27197V7.26456H4.59125C5.30271 7.26456 5.92001 7.34826 6.44314 7.51567C6.9715 7.67784 7.40832 7.91063 7.75359 8.21405C8.09885 8.51747 8.35519 8.88366 8.52259 9.31263C8.69522 9.7416 8.78154 10.2203 8.78154 10.7486C8.78154 11.2718 8.68999 11.7504 8.5069 12.1846C8.3238 12.6188 8.05439 12.9929 7.69866 13.3067C7.34816 13.6206 6.91134 13.8665 6.38821 14.0444C5.86508 14.217 5.26609 14.3033 4.59125 14.3033H2.78644ZM2.78644 13.0949H4.59125C5.02545 13.0949 5.40734 13.0373 5.73691 12.9222C6.07171 12.8072 6.35159 12.6476 6.57654 12.4436C6.80148 12.2343 6.9715 11.9858 7.08659 11.6981C7.20168 11.4104 7.25923 11.0939 7.25923 10.7486C7.25923 10.0319 7.03689 9.47218 6.59223 9.06937C6.1528 8.66656 5.48581 8.46515 4.59125 8.46515H2.78644V13.0949Z"
    fill="black" fill-opacity="0.72" />
  <path
    d="M13.5161 10.4347C14.0968 10.4347 14.6199 10.5315 15.0855 10.7251C15.5563 10.9186 15.9539 11.1933 16.2782 11.549C16.6078 11.9047 16.8589 12.3363 17.0315 12.8438C17.2094 13.346 17.2983 13.9083 17.2983 14.5309C17.2983 15.1586 17.2094 15.7236 17.0315 16.2258C16.8589 16.728 16.6078 17.157 16.2782 17.5127C15.9539 17.8685 15.5563 18.1431 15.0855 18.3367C14.6199 18.525 14.0968 18.6192 13.5161 18.6192C12.9354 18.6192 12.4097 18.525 11.9389 18.3367C11.4733 18.1431 11.0757 17.8685 10.7461 17.5127C10.4165 17.157 10.1628 16.728 9.98495 16.2258C9.80709 15.7236 9.71815 15.1586 9.71815 14.5309C9.71815 13.9083 9.80709 13.346 9.98495 12.8438C10.1628 12.3363 10.4165 11.9047 10.7461 11.549C11.0757 11.1933 11.4733 10.9186 11.9389 10.7251C12.4097 10.5315 12.9354 10.4347 13.5161 10.4347ZM13.5161 17.5284C14.3008 17.5284 14.8867 17.2669 15.2738 16.7437C15.6609 16.2154 15.8545 15.4804 15.8545 14.5387C15.8545 13.5919 15.6609 12.8542 15.2738 12.3259C14.8867 11.7975 14.3008 11.5333 13.5161 11.5333C13.1185 11.5333 12.7732 11.6013 12.4803 11.7373C12.1873 11.8734 11.9415 12.0695 11.7427 12.3259C11.5491 12.5822 11.4026 12.8987 11.3032 13.2754C11.2091 13.6468 11.162 14.0679 11.162 14.5387C11.162 15.0095 11.2091 15.4307 11.3032 15.8021C11.4026 16.1735 11.5491 16.4874 11.7427 16.7437C11.9415 16.9948 12.1873 17.1884 12.4803 17.3244C12.7732 17.4604 13.1185 17.5284 13.5161 17.5284Z"
    fill="black" fill-opacity="0.72" />
  <path
    d="M18.0228 10.5603H19.1214C19.2365 10.5603 19.3307 10.5891 19.4039 10.6466C19.4772 10.7042 19.5269 10.7722 19.553 10.8506L21.0753 15.9669C21.1172 16.1552 21.1564 16.3383 21.193 16.5162C21.2296 16.6888 21.261 16.864 21.2872 17.0419C21.329 16.864 21.3761 16.6888 21.4284 16.5162C21.4808 16.3383 21.5357 16.1552 21.5932 15.9669L23.2725 10.8192C23.2986 10.7408 23.3431 10.6754 23.4059 10.6231C23.4739 10.5708 23.5576 10.5446 23.657 10.5446H24.2612C24.3658 10.5446 24.4521 10.5708 24.5202 10.6231C24.5882 10.6754 24.6352 10.7408 24.6614 10.8192L26.3014 15.9669C26.359 16.15 26.4087 16.3305 26.4505 16.5083C26.4976 16.6862 26.5421 16.8614 26.5839 17.0341C26.6101 16.8614 26.6441 16.681 26.6859 16.4926C26.7278 16.3043 26.7722 16.129 26.8193 15.9669L28.373 10.8506C28.3992 10.7669 28.4489 10.6989 28.5221 10.6466C28.5954 10.5891 28.6817 10.5603 28.7811 10.5603H29.8326L27.2588 18.5093H26.1523C26.0163 18.5093 25.9221 18.4204 25.8698 18.2425L24.1121 12.8516C24.0703 12.7313 24.0363 12.611 24.0101 12.4907C23.9839 12.3651 23.9578 12.2422 23.9316 12.1218C23.9055 12.2422 23.8793 12.3651 23.8532 12.4907C23.827 12.6162 23.793 12.7391 23.7511 12.8595L21.9699 18.2425C21.9123 18.4204 21.8051 18.5093 21.6482 18.5093H20.5967L18.0228 10.5603Z"
    fill="black" fill-opacity="0.72" />
  <path
    d="M34.2602 10.4347C34.7363 10.4347 35.1757 10.5158 35.5785 10.678C35.9813 10.8349 36.3292 11.0651 36.6222 11.3685C36.9151 11.6667 37.1427 12.0381 37.3049 12.4828C37.4723 12.9222 37.556 13.4244 37.556 13.9894C37.556 14.2091 37.5324 14.3556 37.4853 14.4289C37.4383 14.5021 37.3493 14.5387 37.2185 14.5387H31.9297C31.9401 15.0409 32.0081 15.4777 32.1337 15.8492C32.2592 16.2206 32.4319 16.5319 32.6516 16.783C32.8713 17.0288 33.1329 17.2145 33.4363 17.3401C33.7397 17.4604 34.0797 17.5206 34.4564 17.5206C34.8069 17.5206 35.1077 17.4813 35.3588 17.4029C35.6151 17.3192 35.8349 17.2302 36.018 17.1361C36.201 17.0419 36.3528 16.9556 36.4731 16.8771C36.5986 16.7934 36.7059 16.7516 36.7948 16.7516C36.9099 16.7516 36.9988 16.796 37.0616 16.885L37.454 17.395C37.2813 17.6043 37.0747 17.7874 36.834 17.9443C36.5934 18.096 36.3344 18.2216 36.0572 18.321C35.7852 18.4204 35.5027 18.4936 35.2097 18.5407C34.9168 18.593 34.6264 18.6192 34.3387 18.6192C33.7894 18.6192 33.282 18.5276 32.8164 18.3445C32.356 18.1562 31.9558 17.8842 31.6158 17.5284C31.281 17.1675 31.0194 16.7228 30.8311 16.1944C30.6428 15.6661 30.5486 15.0592 30.5486 14.3739C30.5486 13.8194 30.6323 13.3015 30.7997 12.8202C30.9723 12.3389 31.2182 11.9231 31.5373 11.5726C31.8564 11.2168 32.2462 10.9396 32.7065 10.7408C33.1669 10.5368 33.6848 10.4347 34.2602 10.4347ZM34.2916 11.4627C33.6168 11.4627 33.0858 11.6589 32.6987 12.0512C32.3116 12.4383 32.0709 12.9772 31.9768 13.6677H36.3004C36.3004 13.3434 36.256 13.0478 36.167 12.781C36.0781 12.509 35.9473 12.2762 35.7747 12.0826C35.6021 11.8838 35.3902 11.7321 35.1391 11.6275C34.8932 11.5176 34.6107 11.4627 34.2916 11.4627Z"
    fill="black" fill-opacity="0.72" />
  <path
    d="M39.383 18.5093V10.5603H40.1834C40.3351 10.5603 40.4397 10.5891 40.4972 10.6466C40.5548 10.7042 40.594 10.8036 40.6149 10.9448L40.7091 12.1846C40.9811 11.6301 41.3159 11.1985 41.7135 10.8899C42.1163 10.576 42.5871 10.4191 43.126 10.4191C43.3457 10.4191 43.5445 10.4452 43.7223 10.4975C43.9002 10.5446 44.065 10.6126 44.2167 10.7015L44.0362 11.7452C43.9996 11.876 43.9185 11.9414 43.793 11.9414C43.7197 11.9414 43.6073 11.9178 43.4555 11.8707C43.3038 11.8184 43.092 11.7923 42.8199 11.7923C42.3334 11.7923 41.9254 11.9335 41.5958 12.216C41.2715 12.4985 40.9994 12.9092 40.7797 13.448V18.5093H39.383Z"
    fill="black" fill-opacity="0.72" />
  <path
    d="M48.8985 10.4347C49.3746 10.4347 49.814 10.5158 50.2168 10.678C50.6196 10.8349 50.9675 11.0651 51.2605 11.3685C51.5534 11.6667 51.781 12.0381 51.9432 12.4828C52.1106 12.9222 52.1943 13.4244 52.1943 13.9894C52.1943 14.2091 52.1707 14.3556 52.1236 14.4289C52.0766 14.5021 51.9876 14.5387 51.8568 14.5387H46.568C46.5784 15.0409 46.6465 15.4777 46.772 15.8492C46.8976 16.2206 47.0702 16.5319 47.2899 16.783C47.5096 17.0288 47.7712 17.2145 48.0746 17.3401C48.378 17.4604 48.7181 17.5206 49.0947 17.5206C49.4452 17.5206 49.746 17.4813 49.9971 17.4029C50.2534 17.3192 50.4732 17.2302 50.6563 17.1361C50.8394 17.0419 50.9911 16.9556 51.1114 16.8771C51.2369 16.7934 51.3442 16.7516 51.4331 16.7516C51.5482 16.7516 51.6371 16.796 51.6999 16.885L52.0923 17.395C51.9196 17.6043 51.713 17.7874 51.4723 17.9443C51.2317 18.096 50.9728 18.2216 50.6955 18.321C50.4235 18.4204 50.141 18.4936 49.848 18.5407C49.5551 18.593 49.2647 18.6192 48.977 18.6192C48.4277 18.6192 47.9203 18.5276 47.4547 18.3445C46.9943 18.1562 46.5941 17.8842 46.2541 17.5284C45.9193 17.1675 45.6577 16.7228 45.4694 16.1944C45.2811 15.6661 45.1869 15.0592 45.1869 14.3739C45.1869 13.8194 45.2706 13.3015 45.438 12.8202C45.6106 12.3389 45.8565 11.9231 46.1756 11.5726C46.4947 11.2168 46.8845 10.9396 47.3448 10.7408C47.8052 10.5368 48.3231 10.4347 48.8985 10.4347ZM48.9299 11.4627C48.2551 11.4627 47.7241 11.6589 47.337 12.0512C46.9499 12.4383 46.7092 12.9772 46.6151 13.6677H50.9388C50.9388 13.3434 50.8943 13.0478 50.8054 12.781C50.7164 12.509 50.5856 12.2762 50.413 12.0826C50.2404 11.8838 50.0285 11.7321 49.7774 11.6275C49.5315 11.5176 49.249 11.4627 48.9299 11.4627Z"
    fill="black" fill-opacity="0.72" />
  <path
    d="M59.6162 18.5093C59.4174 18.5093 59.2918 18.4125 59.2395 18.219L59.114 17.2538C58.7739 17.6671 58.3842 17.9992 57.9448 18.2503C57.5106 18.4962 57.011 18.6192 56.446 18.6192C55.9909 18.6192 55.5776 18.5328 55.2062 18.3602C54.8347 18.1823 54.5182 17.9234 54.2567 17.5834C53.9951 17.2433 53.7937 16.8196 53.6525 16.3121C53.5112 15.8047 53.4406 15.2214 53.4406 14.5623C53.4406 13.9764 53.5191 13.4323 53.676 12.9301C53.8329 12.4227 54.0579 11.9832 54.3508 11.6118C54.649 11.2404 55.01 10.95 55.4337 10.7408C55.8575 10.5263 56.3388 10.4191 56.8776 10.4191C57.3641 10.4191 57.78 10.5028 58.1252 10.6702C58.4705 10.8323 58.7792 11.0625 59.0512 11.3607V6.95068H60.448V18.5093H59.6162ZM56.909 17.4892C57.3641 17.4892 57.7617 17.3846 58.1017 17.1753C58.447 16.9661 58.7635 16.6705 59.0512 16.2886V12.4436C58.7949 12.0983 58.5124 11.8577 58.2037 11.7217C57.9003 11.5804 57.5629 11.5098 57.1915 11.5098C56.4486 11.5098 55.8784 11.774 55.4808 12.3023C55.0832 12.8307 54.8844 13.584 54.8844 14.5623C54.8844 15.0802 54.9289 15.5248 55.0178 15.8963C55.1068 16.2624 55.2376 16.5659 55.4102 16.8065C55.5828 17.0419 55.7947 17.2145 56.0458 17.3244C56.2969 17.4343 56.5846 17.4892 56.909 17.4892Z"
    fill="black" fill-opacity="0.72" />
  <path
    d="M65.948 18.5093V6.95068H67.3526V11.706C67.6822 11.3241 68.0588 11.018 68.4825 10.7879C68.9115 10.5525 69.4006 10.4347 69.9499 10.4347C70.4103 10.4347 70.8262 10.5211 71.1976 10.6937C71.569 10.8663 71.8855 11.1253 72.1471 11.4705C72.4087 11.8106 72.6101 12.2343 72.7513 12.7418C72.8925 13.244 72.9632 13.8246 72.9632 14.4838C72.9632 15.0697 72.8847 15.6164 72.7278 16.1238C72.5708 16.626 72.3433 17.0628 72.0451 17.4343C71.7521 17.8005 71.3912 18.0908 70.9622 18.3053C70.5385 18.5145 70.0598 18.6192 69.5262 18.6192C69.0135 18.6192 68.5767 18.5198 68.2157 18.321C67.86 18.1222 67.5488 17.8449 67.282 17.4892L67.2113 18.2111C67.1695 18.4099 67.0492 18.5093 66.8504 18.5093H65.948ZM69.4948 11.549C69.0397 11.549 68.6395 11.6536 68.2942 11.8629C67.9542 12.0722 67.6403 12.3677 67.3526 12.7496V16.5946C67.6037 16.9399 67.8809 17.1832 68.1844 17.3244C68.493 17.4656 68.8357 17.5363 69.2123 17.5363C69.9552 17.5363 70.5254 17.2721 70.923 16.7437C71.3205 16.2154 71.5193 15.4621 71.5193 14.4838C71.5193 13.9659 71.4722 13.5212 71.3781 13.1498C71.2891 12.7784 71.1584 12.475 70.9857 12.2396C70.8131 11.9989 70.6012 11.8237 70.3501 11.7138C70.099 11.6039 69.8139 11.549 69.4948 11.549Z"
    fill="black" fill-opacity="0.72" />
  <path
    d="M76.838 20.8555C76.7909 20.9602 76.7307 21.0439 76.6575 21.1067C76.5895 21.1694 76.4823 21.2008 76.3358 21.2008H75.3L76.7517 18.0463L73.4716 10.5603H74.6801C74.8004 10.5603 74.8945 10.5917 74.9626 10.6545C75.0306 10.712 75.0803 10.7774 75.1116 10.8506L77.2382 15.857C77.2853 15.9721 77.3245 16.0872 77.3559 16.2023C77.3925 16.3174 77.4239 16.4351 77.4501 16.5554C77.4867 16.4351 77.5233 16.3174 77.5599 16.2023C77.5965 16.0872 77.6384 15.9695 77.6855 15.8492L79.7492 10.8506C79.7806 10.7669 79.8329 10.6989 79.9062 10.6466C79.9846 10.5891 80.0683 10.5603 80.1573 10.5603H81.2715L76.838 20.8555Z"
    fill="black" fill-opacity="0.72" />
  <path fill-rule="evenodd" clip-rule="evenodd"
    d="M100.345 13.2765C100.345 10.3599 102.72 7.98689 105.639 7.98668C108.559 7.98689 110.934 10.3599 110.934 13.2765C110.934 16.1931 108.559 18.5659 105.64 18.5659C102.72 18.5659 100.345 16.1931 100.345 13.2765ZM102.525 13.2765C102.525 14.9905 103.922 16.3848 105.64 16.3848C107.357 16.3848 108.755 14.9905 108.755 13.2765C108.755 11.5623 107.357 10.1678 105.639 10.1678C103.922 10.1678 102.525 11.5623 102.525 13.2765Z"
    fill="black" />
  <path fill-rule="evenodd" clip-rule="evenodd"
    d="M118.193 17.0115L115.616 14.8155L115.664 14.5175C115.718 14.1146 115.735 13.6942 115.735 13.2789C115.735 12.7628 115.708 12.2323 115.616 11.7422L118.193 9.54938L118.25 9.50162C118.319 9.43415 118.366 9.34591 118.383 9.25139C118.402 9.15585 118.389 9.05723 118.35 8.96896C117.824 7.38042 116.916 5.8687 115.799 4.61546C115.642 4.43591 115.419 4.37045 115.209 4.46185L111.961 5.57067L111.692 5.36199C110.952 4.81172 110.141 4.36533 109.281 4.03508L108.638 0.731343L108.619 0.662806C108.587 0.569355 108.53 0.487315 108.454 0.423995C108.379 0.360628 108.288 0.319141 108.19 0.30461L108.189 0.303541C106.506 -0.032821 104.773 -0.032821 103.09 0.303541C102.981 0.320163 102.879 0.370028 102.799 0.445828C102.719 0.522617 102.665 0.621278 102.643 0.730274L102 4.03409L101.708 4.15035C100.846 4.50338 100.04 4.98096 99.3179 5.56964L96.0711 4.45976L95.9995 4.43694C95.9046 4.41407 95.8054 4.41921 95.7131 4.45044C95.6207 4.48261 95.5395 4.5397 95.4785 4.61546C94.3606 5.8687 93.4542 7.38041 92.9289 8.96895C92.8838 9.06864 92.8749 9.1808 92.9037 9.28673C92.9324 9.39261 92.9969 9.48602 93.0864 9.54938L95.6636 11.7432L95.6151 12.0412C95.5612 12.4441 95.5445 12.8667 95.5445 13.2789C95.5374 13.7938 95.5772 14.3078 95.6636 14.8155L93.0875 17.0115L93.0303 17.0582C92.9614 17.1267 92.9148 17.214 92.8969 17.3094C92.8791 17.405 92.8906 17.5036 92.93 17.5918C93.4554 19.1814 94.3617 20.6911 95.4796 21.9422C95.6383 22.1229 95.8618 22.1883 96.0711 22.098L99.3179 20.987L99.5547 21.1781C100.301 21.7408 101.125 22.1946 102 22.5237L102.643 25.8295L102.66 25.898C102.693 25.9904 102.75 26.0736 102.826 26.1369C102.901 26.2002 102.993 26.2407 103.09 26.2563C103.932 26.41 104.773 26.5003 105.641 26.5003C106.508 26.5003 107.349 26.41 108.19 26.2563C108.299 26.2386 108.401 26.1888 108.481 26.113C108.561 26.0361 108.615 25.9376 108.638 25.8295L109.282 22.5237L109.603 22.3939C110.454 22.0346 111.25 21.5612 111.963 20.987L115.209 22.098L115.28 22.1219C115.468 22.1728 115.659 22.1032 115.801 21.9422C116.919 20.6911 117.825 19.1814 118.35 17.5918C118.396 17.4922 118.404 17.379 118.376 17.2731C118.347 17.1672 118.283 17.0748 118.193 17.0115ZM105.64 21.015C101.36 21.015 97.8905 17.5503 97.8905 13.2768C97.8905 9.00347 101.357 5.53783 105.639 5.5375C109.92 5.53783 113.389 9.00347 113.389 13.2768C113.389 17.5503 109.92 21.015 105.64 21.015Z"
    fill="black" />
  <path d="M154.063 3.97083H150.341V21.6381H154.063V3.97083Z" fill="black" />
  <path d="M138.186 4.44207H124.277V7.60569H129.201V21.638H133.261V7.60569H138.186V4.44207Z"
    fill="black" />
  <path fill-rule="evenodd" clip-rule="evenodd"
    d="M179.311 9.5878C179.875 9.88164 180.365 10.3021 180.74 10.8161C181.141 11.3508 181.454 12.0059 181.683 12.7805C181.911 13.5561 182.024 14.4345 182.024 15.4188C182.024 16.3387 181.895 17.189 181.634 17.9677C181.396 18.7049 181.027 19.3933 180.542 19.9975C180.085 20.5623 179.511 21.0213 178.86 21.3421C178.185 21.6702 177.443 21.8363 176.693 21.827C176.043 21.827 175.498 21.7366 175.059 21.556C174.623 21.3774 174.217 21.1303 173.858 20.824V25.5212H170.135V9.3988H172.44L172.553 9.40401C172.721 9.4123 172.881 9.46422 173.022 9.5525C173.184 9.66146 173.302 9.82554 173.353 10.0135L173.628 10.9105L173.812 10.7195C174 10.5337 174.198 10.3613 174.404 10.2014C175.292 9.51433 176.386 9.1478 177.509 9.16323C178.16 9.1634 178.759 9.30449 179.311 9.5878ZM177.503 18.2927C177.716 17.9978 177.881 17.6136 178.002 17.1413C178.121 16.6698 178.182 16.0957 178.182 15.4188C178.182 14.7729 178.133 14.2309 178.037 13.7897C177.942 13.3494 177.807 12.9933 177.636 12.7213C177.464 12.4503 177.256 12.2562 177.016 12.1368C176.777 12.0194 176.509 11.9602 176.211 11.9602C175.939 11.9602 175.693 11.9862 175.473 12.0381C175.253 12.088 175.048 12.1606 174.861 12.2562C174.671 12.3516 174.495 12.4721 174.338 12.6154C174.167 12.7722 174.007 12.9394 173.858 13.1169V18.3103L173.979 18.4349C174.203 18.6613 174.473 18.8377 174.771 18.9531C175.099 19.0755 175.443 19.1357 175.803 19.1357C176.131 19.1389 176.455 19.0714 176.752 18.9354C177.04 18.8015 177.29 18.5865 177.503 18.2927Z"
    fill="black" />
  <path fill-rule="evenodd" clip-rule="evenodd"
    d="M146.515 10.6862C146.01 10.1993 145.409 9.82452 144.749 9.58776C144.022 9.32921 143.257 9.2015 142.486 9.21089C141.532 9.21089 140.677 9.37181 139.921 9.69475C139.194 9.99685 138.536 10.4412 137.986 11.004C137.453 11.5563 137.037 12.2105 136.762 12.9279C136.476 13.6692 136.331 14.4583 136.335 15.2536C136.335 16.3387 136.5 17.2907 136.835 18.1089C137.167 18.927 137.619 19.6123 138.192 20.1626C138.765 20.7139 139.433 21.1282 140.198 21.4085C140.961 21.6868 141.781 21.827 142.653 21.827C143.078 21.827 143.523 21.7968 143.992 21.7387C144.46 21.6795 144.928 21.5736 145.397 21.4189C145.866 21.2662 146.323 21.0545 146.767 20.7824C147.148 20.5509 147.507 20.2581 147.844 19.9072L148.01 19.7265L146.93 18.4162C146.776 18.2034 146.553 18.0964 146.256 18.0964C146.032 18.0964 145.819 18.1483 145.615 18.2511C145.41 18.3529 145.186 18.4671 144.942 18.5927C144.673 18.7287 144.394 18.8429 144.106 18.9353C143.794 19.0381 143.422 19.089 142.99 19.089C142.181 19.089 141.52 18.8585 141.008 18.3986C140.53 17.9687 140.223 17.2938 140.086 16.3739L140.06 16.1735H147.241C147.41 16.1735 147.547 16.1538 147.655 16.1154C147.763 16.076 147.855 16.0012 147.915 15.9026C147.986 15.7759 148.032 15.6346 148.046 15.4893C148.07 15.3159 148.083 15.0927 148.083 14.8165C148.083 13.9351 147.944 13.1459 147.668 12.4503C147.412 11.7868 147.02 11.1857 146.515 10.6862ZM140.095 14.0492C140.224 13.3017 140.488 12.7286 140.888 12.3319C141.288 11.9343 141.844 11.736 142.557 11.736C142.957 11.736 143.297 11.8034 143.578 11.9374C143.842 12.0578 144.073 12.2374 144.257 12.4617C144.43 12.6798 144.557 12.9311 144.629 13.1999C144.705 13.4772 144.744 13.7627 144.742 14.0492H140.095Z"
    fill="black" />
  <path fill-rule="evenodd" clip-rule="evenodd"
    d="M164.663 9.58778C165.323 9.82454 165.925 10.1983 166.429 10.6853C166.921 11.166 167.306 11.7546 167.582 12.4503C167.857 13.1459 167.996 13.9351 167.996 14.8165C167.996 15.0927 167.986 15.3159 167.96 15.4893C167.945 15.6347 167.9 15.7759 167.828 15.9026C167.769 16.0012 167.678 16.076 167.57 16.1154C167.437 16.158 167.297 16.1777 167.156 16.1736H159.973L159.999 16.3739C160.136 17.2938 160.443 17.9687 160.923 18.3986C161.434 18.8596 162.095 19.088 162.904 19.088C163.336 19.088 163.709 19.0382 164.021 18.9354C164.307 18.844 164.587 18.7297 164.855 18.5938C165.1 18.4671 165.324 18.3529 165.529 18.2522C165.732 18.1483 165.947 18.0974 166.17 18.0974C166.468 18.0974 166.691 18.2034 166.843 18.4162L167.925 19.7265L167.758 19.9072C167.438 20.2446 167.076 20.5385 166.682 20.7824C166.236 21.0545 165.781 21.2673 165.313 21.4199C164.855 21.5715 164.384 21.6774 163.907 21.7387C163.438 21.7968 162.993 21.827 162.568 21.827C161.731 21.8332 160.9 21.6909 160.112 21.4085C159.363 21.1386 158.679 20.7149 158.105 20.1626C157.533 19.6123 157.081 18.9291 156.748 18.1099C156.416 17.2908 156.249 16.3387 156.249 15.2536C156.249 14.4344 156.392 13.6599 156.677 12.9279C156.951 12.2105 157.368 11.5563 157.901 11.004C158.451 10.4423 159.109 9.99686 159.834 9.69476C160.591 9.37182 161.446 9.20983 162.398 9.20983L162.399 9.2109C163.17 9.20151 163.937 9.32922 164.663 9.58778ZM160.802 12.332C160.402 12.7296 160.137 13.3017 160.009 14.0493L164.657 14.0492C164.657 13.7574 164.62 13.4761 164.544 13.1999C164.467 12.9248 164.344 12.6777 164.171 12.4617C163.998 12.2448 163.773 12.0703 163.492 11.9363C163.212 11.8034 162.872 11.737 162.471 11.737C161.758 11.737 161.202 11.9353 160.802 12.332Z"
    fill="black" />
  <path fill-rule="evenodd" clip-rule="evenodd"
    d="M194.15 10.8982C193.578 10.3458 192.896 9.92012 192.15 9.64707C191.373 9.35631 190.513 9.21098 189.569 9.21098C188.615 9.21098 187.748 9.35631 186.967 9.64707C186.215 9.92012 185.528 10.3468 184.949 10.8982C184.376 11.4546 183.929 12.1296 183.641 12.875C183.333 13.6496 183.179 14.5217 183.179 15.4894C183.179 16.4643 183.333 17.3438 183.641 18.1276C183.949 18.9095 184.386 19.5739 184.949 20.1222C185.528 20.6777 186.215 21.1076 186.967 21.3837C187.749 21.6796 188.615 21.827 189.569 21.827C190.513 21.827 191.374 21.6796 192.15 21.3837C192.898 21.1076 193.579 20.6777 194.15 20.1222C194.706 19.5739 195.139 18.9095 195.447 18.1276C195.756 17.3448 195.91 16.4643 195.91 15.4894C195.91 14.5217 195.756 13.6496 195.447 12.875C195.16 12.1316 194.718 11.4578 194.15 10.8982ZM191.459 18.2211C191.056 18.815 190.424 19.113 189.569 19.113C188.688 19.113 188.042 18.8161 187.635 18.2211C187.226 17.6272 187.022 16.725 187.022 15.5134C187.022 14.3016 187.226 13.3994 187.635 12.8107C188.043 12.2209 188.688 11.925 189.569 11.925C190.424 11.925 191.056 12.2198 191.459 12.8107C191.864 13.3994 192.065 14.3016 192.065 15.5134C192.065 16.725 191.864 17.6272 191.459 18.2211Z"
    fill="black" />
  <path
    d="M214.388 18.789C214.457 18.8399 214.526 18.9198 214.599 19.0299L215.728 20.7648L215.545 20.8936C215.102 21.1884 214.618 21.4138 214.107 21.5612C213.505 21.7377 212.886 21.827 212.245 21.827C211.652 21.827 211.13 21.7418 210.677 21.5737C210.249 21.419 209.859 21.1739 209.536 20.853C209.223 20.5333 208.982 20.1491 208.834 19.7266C208.668 19.252 208.587 18.7527 208.593 18.2512V11.925H207.536L207.442 11.9198C207.294 11.9042 207.155 11.843 207.044 11.7422C206.908 11.6208 206.841 11.4411 206.841 11.2044V9.77783L208.821 9.39989L209.555 6.41283L209.582 6.32241C209.697 6.00575 209.96 5.84689 210.371 5.84689H212.317V9.42275H215.344V11.9239H212.317V18.003L212.321 18.1225C212.338 18.3519 212.408 18.5471 212.528 18.7059C212.667 18.8897 212.869 18.9832 213.133 18.9832C213.335 18.9873 213.536 18.9406 213.716 18.8472C213.784 18.8118 213.848 18.7807 213.909 18.7527C213.974 18.7236 214.047 18.7101 214.119 18.7111C214.215 18.707 214.31 18.734 214.388 18.789Z"
    fill="black" />
  <path d="M179.1 9.1632L179.101 9.16323L179.101 9.1632H179.1Z" fill="black" />
  <path
    d="M201.599 11.1805C201.977 10.6334 202.445 10.1558 202.984 9.76542C203.551 9.36458 204.173 9.1632 204.845 9.1632C205.414 9.1632 205.869 9.29715 206.215 9.56502L205.735 12.2562L205.713 12.3486C205.687 12.4504 205.626 12.5407 205.542 12.6041C205.447 12.6716 205.318 12.7048 205.158 12.7048C205.022 12.7048 204.862 12.6861 204.678 12.6508C204.494 12.6155 204.262 12.5978 203.981 12.5978C203.004 12.5978 202.235 13.1086 201.675 14.1313V21.6381H197.952V9.39992H200.16L200.293 9.40304C200.404 9.40616 200.515 9.42068 200.623 9.44666C200.736 9.47363 200.843 9.52345 200.935 9.59404C201.021 9.66463 201.088 9.75603 201.127 9.8599C201.177 9.99069 201.215 10.1247 201.241 10.2617L201.446 11.4048L201.599 11.1805Z"
    fill="black" />
</svg>