<svg width="112" height="39" viewBox="0 0 112 39" fill="none" xmlns="http://www.w3.org/2000/svg">
<path fill-rule="evenodd" clip-rule="evenodd" d="M13.9641 15.8417C14.144 15.8618 14.2978 15.9979 14.3551 16.1591L14.3708 16.2196L14.9573 19.1401C15.7446 19.4349 16.4875 19.828 17.1575 20.3118L17.4051 20.4982L20.3665 19.5155C20.5594 19.4349 20.7627 19.4928 20.9061 19.6541C21.925 20.7603 22.752 22.0958 23.234 23.4993C23.31 23.6606 23.27 23.8496 23.143 23.9705L20.7393 25.9536C20.8227 26.387 20.8461 26.8557 20.8461 27.3118C20.8461 27.6797 20.8305 28.0501 20.781 28.4079L20.7366 28.6725L23.088 30.6127C23.255 30.7261 23.315 30.9428 23.231 31.1268C22.752 32.5303 21.925 33.8658 20.9061 34.972C20.7784 35.1131 20.6011 35.1761 20.429 35.1308L20.3639 35.1081L17.4025 34.1253C16.7534 34.6318 16.0261 35.0501 15.2519 35.3676L14.9573 35.481L14.3681 38.404C14.3316 38.5879 14.1648 38.7567 13.9589 38.7819C13.1925 38.918 12.4234 38.9987 11.6336 38.9987C10.8437 38.9987 10.0747 38.918 9.3057 38.7819C9.1258 38.7618 8.97199 38.6232 8.91459 38.4645L8.899 38.404L8.31249 35.481C7.51479 35.1837 6.7431 34.7855 6.081 34.2917L5.86459 34.1228L2.90329 35.1056C2.71039 35.1862 2.50699 35.1282 2.36369 34.967C1.34439 33.8608 0.517993 32.5253 0.0383926 31.1217C-0.0372074 30.9605 0.00189443 30.769 0.129594 30.6505L0.181696 30.6102L2.5305 28.67C2.4471 28.2366 2.42359 27.7704 2.42359 27.3118C2.42359 26.9464 2.43929 26.5735 2.48879 26.2182L2.53309 25.9536L0.184297 24.0134C0.0174972 23.8975 -0.0451057 23.6833 0.0409943 23.4993C0.520594 22.0958 1.347 20.7603 2.3663 19.6541C2.494 19.513 2.67129 19.4525 2.84329 19.4954L2.90849 19.5155L5.8699 20.4982C6.5059 19.9842 7.2593 19.5634 8.0518 19.2434L8.3177 19.1401L8.90419 16.2196C8.94069 16.0357 9.10749 15.8643 9.31349 15.8417C10.8489 15.5443 12.4313 15.5443 13.9667 15.8417H13.9641ZM77.018 23.6707C77.61 23.6707 78.157 23.7967 78.663 24.0461C79.166 24.2956 79.602 24.6585 79.967 25.1322C80.332 25.6059 80.618 26.1829 80.827 26.8683C81.035 27.5537 81.14 28.3298 81.14 29.1991C81.14 30.013 81.02 30.7639 80.783 31.4518C80.545 32.1397 80.212 32.7395 79.784 33.2459C79.357 33.7524 78.846 34.1505 78.249 34.4353C77.654 34.72 76.995 34.8637 76.27 34.8637C75.678 34.8637 75.18 34.783 74.779 34.6243C74.378 34.4655 74.013 34.2488 73.684 33.9767V38.1293H70.287V23.8823H72.495C72.662 23.8975 72.806 23.9428 72.923 24.0184C73.066 24.1091 73.165 24.2452 73.225 24.4241L73.478 25.2178L73.645 25.049C73.814 24.8852 73.994 24.7315 74.185 24.5904C74.438 24.4014 74.706 24.2402 74.995 24.1066C75.285 23.9705 75.595 23.8647 75.926 23.7891C76.26 23.7135 76.622 23.6732 77.016 23.6732L77.018 23.6707ZM45.061 23.7135C45.814 23.7135 46.503 23.8244 47.126 24.0461C47.751 24.2679 48.288 24.5929 48.737 25.0163C49.185 25.4396 49.537 25.9612 49.79 26.576C50.043 27.1909 50.168 27.8888 50.168 28.6675C50.168 28.9119 50.157 29.1084 50.134 29.2621C50.113 29.4158 50.071 29.5368 50.014 29.6275C49.957 29.7182 49.876 29.7812 49.779 29.8165C49.683 29.8518 49.555 29.8694 49.401 29.8694H42.848L42.871 30.0458C42.996 30.8597 43.275 31.4544 43.713 31.8348C44.18 32.2405 44.785 32.4446 45.522 32.4446C45.916 32.4446 46.258 32.3993 46.542 32.3086C46.826 32.2179 47.081 32.1171 47.303 32.0062C47.525 31.8953 47.73 31.7945 47.916 31.7038C48.101 31.6131 48.296 31.5678 48.502 31.5678C48.773 31.5678 48.977 31.661 49.115 31.85L50.1 33.0091L49.949 33.1678C49.641 33.4778 49.315 33.7373 48.966 33.9414C48.559 34.1808 48.145 34.3698 47.717 34.5058C47.29 34.6419 46.862 34.7351 46.435 34.7881C46.007 34.841 45.601 34.8662 45.212 34.8662C44.417 34.8662 43.669 34.7427 42.97 34.4958C42.272 34.2488 41.662 33.8809 41.14 33.3946C40.619 32.9083 40.205 32.3035 39.902 31.5803C39.6 30.8572 39.449 30.0156 39.449 29.0555C39.449 28.3323 39.579 27.6469 39.837 26.9993C40.095 26.3518 40.468 25.7848 40.955 25.2985C41.44 24.8122 42.029 24.4266 42.72 24.1394C43.411 23.8546 44.19 23.711 45.061 23.711V23.7135ZM63.231 23.7135C63.984 23.7135 64.672 23.8244 65.295 24.0461C65.921 24.2679 66.458 24.5929 66.906 25.0163C67.355 25.4396 67.707 25.9612 67.96 26.576C68.212 27.1909 68.338 27.8888 68.338 28.6675C68.338 28.9119 68.327 29.1084 68.304 29.2621C68.283 29.4158 68.241 29.5368 68.184 29.6275C68.126 29.7182 68.046 29.7812 67.949 29.8165C67.85 29.8518 67.725 29.8694 67.571 29.8694H61.017L61.041 30.0458C61.166 30.8597 61.445 31.4544 61.883 31.8348C62.35 32.2405 62.954 32.4446 63.692 32.4446C64.086 32.4446 64.427 32.3993 64.711 32.3086C64.996 32.2179 65.251 32.1171 65.473 32.0062C65.694 31.8953 65.9 31.7945 66.085 31.7038C66.27 31.6131 66.466 31.5678 66.672 31.5678C66.943 31.5678 67.146 31.661 67.284 31.85L68.27 33.0091L68.119 33.1678C67.811 33.4778 67.485 33.7373 67.136 33.9414C66.729 34.1808 66.315 34.3698 65.887 34.5058C65.46 34.6419 65.032 34.7351 64.605 34.7881C64.177 34.841 63.77 34.8662 63.382 34.8662C62.587 34.8662 61.839 34.7427 61.14 34.4958C60.441 34.2488 59.831 33.8809 59.31 33.3946C58.789 32.9083 58.374 32.3035 58.072 31.5803C57.769 30.8572 57.618 30.0156 57.618 29.0555C57.618 28.3323 57.749 27.6469 58.007 26.9993C58.265 26.3518 58.637 25.7848 59.125 25.2985C59.61 24.8122 60.199 24.4266 60.89 24.1394C61.581 23.8546 62.36 23.711 63.231 23.711V23.7135ZM88.019 23.7135C88.882 23.7135 89.667 23.842 90.376 24.099C91.085 24.3561 91.692 24.724 92.2 25.2052C92.709 25.684 93.102 26.2686 93.384 26.9515C93.666 27.6369 93.806 28.4054 93.806 29.2621C93.806 30.1189 93.666 30.9025 93.384 31.5929C93.102 32.2859 92.709 32.873 92.2 33.3568C91.692 33.8406 91.085 34.211 90.376 34.4731C89.667 34.7326 88.882 34.8637 88.019 34.8637C87.156 34.8637 86.359 34.7326 85.647 34.4731C84.935 34.2135 84.32 33.8406 83.806 33.3568C83.29 32.873 82.894 32.2859 82.613 31.5929C82.331 30.9 82.19 30.1239 82.19 29.2621C82.19 28.4004 82.331 27.6369 82.613 26.9515C82.894 26.2661 83.293 25.684 83.806 25.2052C84.32 24.7265 84.935 24.3561 85.647 24.099C86.359 23.842 87.151 23.7135 88.019 23.7135ZM108.775 20.7402V23.9H111.535V26.1124H108.775V31.4846L108.78 31.5904C108.796 31.7945 108.858 31.9659 108.968 32.107C109.095 32.2708 109.28 32.3514 109.52 32.3514C109.645 32.3514 109.75 32.3388 109.833 32.3161C109.917 32.2935 109.99 32.2632 110.052 32.233C110.115 32.2027 110.172 32.175 110.227 32.1498C110.282 32.1246 110.347 32.1145 110.42 32.1145C110.521 32.1145 110.605 32.1372 110.667 32.1826C110.73 32.2279 110.792 32.2985 110.86 32.3968L111.89 33.9313L111.723 34.0447C111.327 34.3017 110.889 34.4983 110.412 34.6343C109.864 34.7906 109.299 34.8687 108.712 34.8687C108.173 34.8687 107.696 34.7931 107.281 34.6444C106.869 34.4958 106.522 34.2816 106.241 34.0069C105.959 33.7323 105.746 33.3996 105.6 33.0116C105.454 32.621 105.381 32.1876 105.381 31.7089V26.1174H104.416L104.33 26.1124C104.192 26.0973 104.069 26.0443 103.965 25.9561C103.84 25.8478 103.78 25.689 103.78 25.4824V24.22L105.589 23.8874L106.257 21.2491L106.283 21.1685C106.387 20.8888 106.627 20.7477 107.002 20.7477H108.777L108.775 20.7402ZM41.331 19.5004V22.2949H36.836V34.6973H33.132V22.2949H28.638V19.5004H41.331ZM55.627 19.0821V34.6973H52.23V19.0821H55.627ZM101.96 23.6732C102.479 23.6732 102.896 23.7916 103.209 24.0285L102.771 26.4072L102.75 26.4903C102.716 26.5937 102.667 26.6693 102.597 26.7146C102.508 26.7726 102.393 26.8028 102.245 26.8028C102.12 26.8028 101.974 26.7877 101.807 26.7549C101.64 26.7247 101.426 26.707 101.171 26.707C100.279 26.707 99.578 27.1581 99.067 28.0627V34.6973H95.67V23.8823H97.808C97.922 23.8899 98.024 23.9025 98.108 23.9252C98.22 23.9529 98.316 23.9957 98.392 24.0562C98.467 24.1142 98.527 24.1948 98.566 24.2906C98.605 24.3888 98.642 24.5073 98.671 24.6458L98.856 25.6588L98.997 25.4597C99.377 24.9407 99.797 24.5249 100.258 24.2099C100.777 23.8546 101.343 23.6782 101.958 23.6782L101.96 23.6732ZM11.6362 20.468C7.73109 20.468 4.56639 23.5296 4.56639 27.3068C4.56639 31.0839 7.73109 34.1455 11.6362 34.1455C15.5412 34.1455 18.7059 31.0839 18.7059 27.3068C18.7059 23.5296 15.5412 20.468 11.6362 20.468ZM75.835 26.1451C75.587 26.1451 75.363 26.1678 75.16 26.2132C74.959 26.2585 74.771 26.3215 74.602 26.4072C74.43 26.4903 74.271 26.5962 74.125 26.7247C73.979 26.8532 73.833 27.0019 73.687 27.1682V31.7593L73.799 31.8701C74.023 32.0818 74.263 32.2355 74.521 32.3262C74.821 32.4346 75.134 32.4875 75.465 32.4875C75.796 32.4875 76.067 32.4295 76.33 32.3111C76.593 32.1927 76.82 32.0037 77.016 31.7416C77.209 31.4821 77.36 31.1419 77.469 30.7236C77.579 30.3053 77.633 29.7988 77.633 29.2017C77.633 28.6045 77.589 28.1509 77.503 27.7628C77.415 27.3723 77.292 27.0598 77.136 26.8179C76.979 26.5785 76.791 26.4047 76.57 26.3014C76.351 26.198 76.106 26.1451 75.835 26.1451ZM88.022 26.1149C87.219 26.1149 86.63 26.3744 86.257 26.896C85.884 27.4176 85.699 28.2139 85.699 29.2848C85.699 30.3557 85.884 31.1545 86.257 31.6786C86.63 32.2027 87.219 32.4673 88.022 32.4673C88.825 32.4673 89.38 32.2053 89.747 31.6786C90.118 31.1545 90.3 30.3557 90.3 29.2848C90.3 28.2139 90.115 27.4176 89.747 26.896C89.377 26.3744 88.804 26.1149 88.022 26.1149ZM16.1121 24.3208V26.3568H12.7024V31.2452H10.5726V26.3568H7.1628V24.3208H16.1121ZM45.129 25.9461C44.48 25.9461 43.971 26.1225 43.606 26.4727C43.241 26.823 42.999 27.3294 42.884 27.9896H47.126C47.126 27.7326 47.092 27.4831 47.021 27.2387C46.951 26.9943 46.839 26.7776 46.683 26.5861C46.526 26.3946 46.32 26.2409 46.062 26.1225C45.807 26.004 45.496 25.9461 45.131 25.9461H45.129ZM63.298 25.9461C62.649 25.9461 62.141 26.1225 61.776 26.4727C61.411 26.823 61.169 27.3294 61.054 27.9896H65.295C65.295 27.7326 65.261 27.4831 65.191 27.2387C65.121 26.9943 65.009 26.7776 64.852 26.5861C64.696 26.3946 64.49 26.2409 64.232 26.1225C63.976 26.004 63.666 25.9461 63.301 25.9461H63.298Z" fill="white"/>
<path d="M3.16904 5.67564V8.92234H1.99999V0.242284H4.56221C5.1114 0.242284 5.58791 0.306897 5.99172 0.436113C6.39958 0.561298 6.73677 0.741001 7.00328 0.975215C7.26981 1.20943 7.46768 1.4921 7.5969 1.82323C7.73015 2.15436 7.79679 2.52385 7.79679 2.93174C7.79679 3.33549 7.72612 3.70505 7.58478 4.04016C7.44345 4.37536 7.23548 4.6641 6.96089 4.90638C6.69032 5.14867 6.35314 5.33846 5.94932 5.47575C5.54551 5.60898 5.08314 5.67564 4.56221 5.67564H3.16904ZM3.16904 4.74285H4.56221C4.89738 4.74285 5.19217 4.69837 5.44657 4.60952C5.70501 4.52076 5.92106 4.39755 6.0947 4.24005C6.26834 4.07859 6.39958 3.88672 6.48842 3.66464C6.57726 3.44256 6.62168 3.1982 6.62168 2.93174C6.62168 2.37848 6.45006 1.94639 6.10682 1.63545C5.7676 1.32451 5.25274 1.16904 4.56221 1.16904H3.16904V4.74285Z" fill="white" fill-opacity="0.54"/>
<path d="M11.4515 2.68946C11.8997 2.68946 12.3036 2.76415 12.663 2.91352C13.0264 3.06299 13.3333 3.27497 13.5837 3.54955C13.838 3.82413 14.0319 4.15734 14.1651 4.54901C14.3024 4.9367 14.371 5.37076 14.371 5.85127C14.371 6.33585 14.3024 6.77198 14.1651 7.15967C14.0319 7.54737 13.838 7.87851 13.5837 8.15309C13.3333 8.42767 13.0264 8.63964 12.663 8.78911C12.3036 8.93443 11.8997 9.00713 11.4515 9.00713C11.0033 9.00713 10.5974 8.93443 10.234 8.78911C9.87458 8.63964 9.56768 8.42767 9.31328 8.15309C9.05887 7.87851 8.86302 7.54737 8.72572 7.15967C8.58842 6.77198 8.51978 6.33585 8.51978 5.85127C8.51978 5.37076 8.58842 4.9367 8.72572 4.54901C8.86302 4.15734 9.05887 3.82413 9.31328 3.54955C9.56768 3.27497 9.87458 3.06299 10.234 2.91352C10.5974 2.76415 11.0033 2.68946 11.4515 2.68946ZM11.4515 8.16517C12.0572 8.16517 12.5095 7.9633 12.8083 7.55946C13.1071 7.15156 13.2566 6.58427 13.2566 5.85741C13.2566 5.12649 13.1071 4.55703 12.8083 4.14922C12.5095 3.74132 12.0572 3.53746 11.4515 3.53746C11.1446 3.53746 10.8781 3.58996 10.6519 3.69496C10.4258 3.79995 10.236 3.95132 10.0825 4.14922C9.93313 4.34713 9.82007 4.5914 9.74334 4.88213C9.67066 5.16888 9.63431 5.49398 9.63431 5.85741C9.63431 6.22084 9.67066 6.54584 9.74334 6.8326C9.82007 7.11926 9.93313 7.36155 10.0825 7.55946C10.236 7.7533 10.4258 7.90268 10.6519 8.00768C10.8781 8.11268 11.1446 8.16517 11.4515 8.16517Z" fill="white" fill-opacity="0.54"/>
<path d="M14.9303 2.78633H15.7783C15.8672 2.78633 15.9399 2.80852 15.9964 2.85299C16.053 2.89737 16.0913 2.94987 16.1115 3.01048L17.2866 6.95977C17.3189 7.10518 17.3492 7.24653 17.3774 7.38382C17.4058 7.51705 17.4299 7.65236 17.4501 7.78965C17.4824 7.65236 17.5188 7.51705 17.5592 7.38382C17.5996 7.24653 17.642 7.10518 17.6864 6.95977L18.9826 2.98622C19.0028 2.9256 19.0372 2.87518 19.0856 2.83477C19.1381 2.79445 19.2027 2.77424 19.2795 2.77424H19.7458C19.8266 2.77424 19.8932 2.79445 19.9457 2.83477C19.9982 2.87518 20.0346 2.9256 20.0548 2.98622L21.3208 6.95977C21.3652 7.10112 21.4035 7.2404 21.4359 7.37769C21.4721 7.51507 21.5065 7.65028 21.5388 7.7836C21.559 7.65028 21.5852 7.51101 21.6175 7.3656C21.6498 7.22028 21.6842 7.08498 21.7206 6.95977L22.9199 3.01048C22.94 2.94581 22.9784 2.89331 23.0349 2.85299C23.0915 2.80852 23.1581 2.78633 23.2348 2.78633H24.0465L22.0597 8.92233H21.2057C21.1007 8.92233 21.028 8.85369 20.9876 8.7164L19.6308 4.55504C19.5984 4.46213 19.5722 4.36931 19.5521 4.2764C19.5319 4.17952 19.5116 4.08463 19.4914 3.99172C19.4712 4.08463 19.451 4.17952 19.4309 4.2764C19.4107 4.37337 19.3845 4.46826 19.3522 4.56108L17.9771 8.7164C17.9327 8.85369 17.8499 8.92233 17.7288 8.92233H16.9171L14.9303 2.78633Z" fill="white" fill-opacity="0.54"/>
<path d="M27.4644 2.68946C27.8318 2.68946 28.171 2.75197 28.482 2.87717C28.7929 2.99832 29.0614 3.17602 29.2876 3.41027C29.5137 3.64038 29.6893 3.92714 29.8145 4.27037C29.9438 4.60953 30.0084 4.99723 30.0084 5.43336C30.0084 5.60294 29.9902 5.71606 29.9539 5.77253C29.9175 5.82908 29.8489 5.85741 29.7479 5.85741H25.6654C25.6734 6.24501 25.7259 6.58219 25.8228 6.86895C25.9197 7.15562 26.053 7.39592 26.2226 7.58977C26.3922 7.77955 26.5941 7.92289 26.8283 8.01977C27.0625 8.11268 27.325 8.15913 27.6157 8.15913C27.8863 8.15913 28.1185 8.12882 28.3124 8.0683C28.5102 8.00362 28.6798 7.93497 28.8211 7.86236C28.9625 7.78966 29.0796 7.723 29.1725 7.66247C29.2693 7.59779 29.3522 7.5655 29.4208 7.5655C29.5096 7.5655 29.5783 7.59987 29.6267 7.66851L29.9296 8.06225C29.7964 8.22372 29.6368 8.36506 29.4511 8.48621C29.2654 8.60329 29.0655 8.70026 28.8514 8.77693C28.6414 8.8537 28.4234 8.91026 28.1973 8.94661C27.9711 8.98693 27.747 9.00713 27.5249 9.00713C27.1009 9.00713 26.7092 8.9365 26.3498 8.79516C25.9944 8.64975 25.6856 8.43975 25.4231 8.16517C25.1646 7.88653 24.9627 7.54331 24.8174 7.13541C24.6719 6.7276 24.5992 6.25917 24.5992 5.73013C24.5992 5.30211 24.6638 4.90233 24.7931 4.53087C24.9263 4.15932 25.1161 3.83829 25.3624 3.56768C25.6088 3.2931 25.9096 3.07914 26.265 2.92561C26.6203 2.76821 27.0201 2.68946 27.4644 2.68946ZM27.4885 3.48289C26.9676 3.48289 26.5577 3.63434 26.2589 3.93724C25.9601 4.236 25.7743 4.65202 25.7017 5.18503H29.0392C29.0392 4.93462 29.0049 4.7065 28.9362 4.50057C28.8676 4.29057 28.7666 4.11089 28.6334 3.96142C28.5001 3.80798 28.3365 3.6909 28.1427 3.61017C27.9529 3.52529 27.7349 3.48289 27.4885 3.48289Z" fill="white" fill-opacity="0.54"/>
<path d="M31.4187 8.92234V2.78633H32.0365C32.1536 2.78633 32.2344 2.80853 32.2788 2.853C32.3232 2.89738 32.3535 2.97414 32.3696 3.08311L32.4423 4.04016C32.6523 3.61215 32.9108 3.27903 33.2176 3.04071C33.5286 2.79842 33.8921 2.67728 34.308 2.67728C34.4776 2.67728 34.631 2.69749 34.7683 2.7379C34.9056 2.77425 35.0328 2.82675 35.15 2.89539L35.0106 3.701C34.9824 3.80194 34.9198 3.85245 34.8228 3.85245C34.7663 3.85245 34.6795 3.83423 34.5624 3.79788C34.4453 3.75756 34.2818 3.73735 34.0718 3.73735C33.6962 3.73735 33.3812 3.84632 33.1268 4.06443C32.8765 4.28245 32.6665 4.59952 32.4968 5.01544V8.92234H31.4187Z" fill="white" fill-opacity="0.54"/>
<path d="M38.764 2.68946C39.1314 2.68946 39.4706 2.75197 39.7816 2.87717C40.0925 2.99832 40.361 3.17602 40.5872 3.41027C40.8133 3.64038 40.9889 3.92714 41.1141 4.27037C41.2434 4.60953 41.308 4.99723 41.308 5.43336C41.308 5.60294 41.2899 5.71606 41.2535 5.77253C41.2171 5.82908 41.1485 5.85741 41.0475 5.85741H36.965C36.973 6.24501 37.0255 6.58219 37.1225 6.86895C37.2193 7.15562 37.3526 7.39592 37.5222 7.58977C37.6918 7.77955 37.8937 7.92289 38.1279 8.01977C38.3621 8.11268 38.6246 8.15913 38.9153 8.15913C39.1859 8.15913 39.4181 8.12882 39.612 8.0683C39.8098 8.00362 39.9795 7.93497 40.1207 7.86236C40.2621 7.78966 40.3792 7.723 40.4721 7.66247C40.569 7.59779 40.6518 7.5655 40.7204 7.5655C40.8092 7.5655 40.8779 7.59987 40.9263 7.66851L41.2292 8.06225C41.096 8.22372 40.9364 8.36506 40.7507 8.48621C40.565 8.60329 40.3651 8.70026 40.151 8.77693C39.941 8.8537 39.723 8.91026 39.4969 8.94661C39.2707 8.98693 39.0466 9.00713 38.8245 9.00713C38.4005 9.00713 38.0088 8.9365 37.6494 8.79516C37.294 8.64975 36.9852 8.43975 36.7227 8.16517C36.4642 7.88653 36.2623 7.54331 36.117 7.13541C35.9715 6.7276 35.8988 6.25917 35.8988 5.73013C35.8988 5.30211 35.9634 4.90233 36.0927 4.53087C36.2259 4.15932 36.4157 3.83829 36.662 3.56768C36.9084 3.2931 37.2092 3.07914 37.5646 2.92561C37.9199 2.76821 38.3197 2.68946 38.764 2.68946ZM38.7882 3.48289C38.2672 3.48289 37.8573 3.63434 37.5585 3.93724C37.2597 4.236 37.0739 4.65202 37.0013 5.18503H40.3388C40.3388 4.93462 40.3045 4.7065 40.2358 4.50057C40.1672 4.29057 40.0662 4.11089 39.933 3.96142C39.7997 3.80798 39.6362 3.6909 39.4423 3.61017C39.2525 3.52529 39.0345 3.48289 38.7882 3.48289Z" fill="white" fill-opacity="0.54"/>
<path d="M47.0371 8.92234C46.8837 8.92234 46.7868 8.84765 46.7464 8.69818L46.6495 7.95319C46.387 8.27215 46.0862 8.5286 45.7469 8.72245C45.4117 8.91224 45.0261 9.00713 44.59 9.00713C44.2386 9.00713 43.9197 8.94047 43.6329 8.80724C43.3462 8.66995 43.102 8.47006 42.9 8.20757C42.6981 7.94507 42.5426 7.61799 42.4337 7.22633C42.3246 6.83458 42.27 6.38437 42.27 5.87553C42.27 5.42325 42.3306 5.00327 42.4518 4.61566C42.5729 4.22391 42.7466 3.88474 42.9727 3.59798C43.2029 3.31132 43.4815 3.08716 43.8086 2.92561C44.1357 2.76008 44.5073 2.67728 44.9232 2.67728C45.2987 2.67728 45.6197 2.74195 45.8863 2.87112C46.1527 2.99633 46.391 3.17403 46.601 3.40414V0H47.6792V8.92234H47.0371ZM44.9474 8.13486C45.2987 8.13486 45.6056 8.05413 45.8681 7.89257C46.1346 7.73111 46.3789 7.5029 46.601 7.20811V4.24005C46.4032 3.97359 46.185 3.78777 45.9468 3.68278C45.7126 3.57381 45.4521 3.51924 45.1655 3.51924C44.592 3.51924 44.1518 3.72319 43.845 4.13109C43.538 4.5389 43.3846 5.12044 43.3846 5.87553C43.3846 6.27532 43.4189 6.61854 43.4876 6.9053C43.5562 7.1879 43.6572 7.42216 43.7904 7.60789C43.9237 7.78965 44.0873 7.92288 44.2811 8.00768C44.4749 8.09247 44.697 8.13486 44.9474 8.13486Z" fill="white" fill-opacity="0.54"/>
<path d="M51.9248 8.92234V0H53.009V3.67069C53.2634 3.3759 53.5541 3.13966 53.8813 2.96196C54.2124 2.78029 54.5899 2.68945 55.014 2.68945C55.3693 2.68945 55.6903 2.75602 55.9771 2.88935C56.2637 3.02258 56.5081 3.22247 56.71 3.48902C56.9119 3.75142 57.0674 4.07859 57.1764 4.47025C57.2854 4.85795 57.34 5.30617 57.34 5.81501C57.34 6.2672 57.2793 6.68926 57.1582 7.08092C57.0371 7.46862 56.8614 7.8058 56.6312 8.09247C56.4051 8.37516 56.1265 8.59932 55.7953 8.76484C55.4682 8.9264 55.0988 9.00713 54.6869 9.00713C54.2911 9.00713 53.9539 8.93037 53.6753 8.77693C53.4007 8.62349 53.1605 8.40953 52.9544 8.13486L52.9 8.69214C52.8677 8.84557 52.7748 8.92234 52.6213 8.92234H51.9248ZM54.6626 3.54955C54.3113 3.54955 54.0024 3.63028 53.7359 3.79183C53.4734 3.95339 53.2311 4.18151 53.009 4.4763V7.44435C53.2029 7.71091 53.4168 7.89862 53.6511 8.00768C53.8893 8.11673 54.1538 8.17121 54.4446 8.17121C55.018 8.17121 55.4581 7.96726 55.7651 7.55945C56.072 7.15155 56.2254 6.5701 56.2254 5.81501C56.2254 5.41522 56.1891 5.07191 56.1163 4.78524C56.0477 4.49849 55.9468 4.26432 55.8135 4.08256C55.6802 3.89683 55.5167 3.76152 55.3229 3.67673C55.1291 3.59194 54.909 3.54955 54.6626 3.54955Z" fill="white" fill-opacity="0.54"/>
<path d="M60.331 10.7334C60.2947 10.8142 60.2482 10.8788 60.1916 10.9273C60.1391 10.9757 60.0563 11 59.9433 11H59.1438L60.2644 8.56495L57.7324 2.78633H58.6652C58.7581 2.78633 58.8308 2.81059 58.8833 2.85903C58.9358 2.90341 58.9742 2.95392 58.9983 3.01048L60.6399 6.87498C60.6762 6.96383 60.7065 7.05268 60.7308 7.14153C60.759 7.23029 60.7833 7.32122 60.8034 7.41404C60.8317 7.32122 60.86 7.23029 60.8883 7.14153C60.9165 7.05268 60.9488 6.96176 60.9852 6.86894L62.5783 3.01048C62.6024 2.94581 62.6428 2.89331 62.6994 2.85299C62.7599 2.80852 62.8246 2.78633 62.8932 2.78633H63.7533L60.331 10.7334Z" fill="white" fill-opacity="0.54"/>
</svg>
