<?xml version="1.0" encoding="UTF-8"?>
<svg width="581px" height="265px" viewBox="0 0 581 265" version="1.1" xmlns="http://www.w3.org/2000/svg" xmlns:xlink="http://www.w3.org/1999/xlink">
    <!-- Generator: Sketch 59 (86127) - https://sketch.com -->
    <title>Client Connect</title>
    <desc>Created with Sketch.</desc>
    <defs>
        <path d="M12.819426,-5.17920154e-16 L133.180574,5.17920154e-16 C137.638168,-3.00926524e-16 139.254599,0.464128056 140.884229,1.33566352 C142.513858,2.20719898 143.792801,3.48614185 144.664336,5.11577148 C145.535872,6.74540111 146,8.3618323 146,12.819426 L146,220.180574 C146,224.638168 145.535872,226.254599 144.664336,227.884229 C143.792801,229.513858 142.513858,230.792801 140.884229,231.664336 C139.254599,232.535872 137.638168,233 133.180574,233 L12.819426,233 C8.3618323,233 6.74540111,232.535872 5.11577148,231.664336 C3.48614185,230.792801 2.20719898,229.513858 1.33566352,227.884229 C0.464128056,226.254599 2.00617683e-16,224.638168 -3.45280103e-16,220.180574 L3.45280103e-16,12.819426 C-2.00617683e-16,8.3618323 0.464128056,6.74540111 1.33566352,5.11577148 C2.20719898,3.48614185 3.48614185,2.20719898 5.11577148,1.33566352 C6.74540111,0.464128056 8.3618323,3.00926524e-16 12.819426,-5.17920154e-16 Z" id="path-1"></path>
        <filter x="-19.2%" y="-8.6%" width="138.4%" height="124.0%" filterUnits="objectBoundingBox" id="filter-2">
            <feOffset dx="0" dy="8" in="SourceAlpha" result="shadowOffsetOuter1"></feOffset>
            <feGaussianBlur stdDeviation="8" in="shadowOffsetOuter1" result="shadowBlurOuter1"></feGaussianBlur>
            <feColorMatrix values="0 0 0 0 0   0 0 0 0 0   0 0 0 0 0  0 0 0 0.103742074 0" type="matrix" in="shadowBlurOuter1"></feColorMatrix>
        </filter>
        <filter x="-8.2%" y="-11.0%" width="116.3%" height="136.7%" filterUnits="objectBoundingBox" id="filter-3">
            <feOffset dx="0" dy="1" in="SourceAlpha" result="shadowOffsetOuter1"></feOffset>
            <feGaussianBlur stdDeviation="0.5" in="shadowOffsetOuter1" result="shadowBlurOuter1"></feGaussianBlur>
            <feColorMatrix values="0 0 0 0 0   0 0 0 0 0   0 0 0 0 0  0 0 0 0.5 0" type="matrix" in="shadowBlurOuter1" result="shadowMatrixOuter1"></feColorMatrix>
            <feMerge>
                <feMergeNode in="shadowMatrixOuter1"></feMergeNode>
                <feMergeNode in="SourceGraphic"></feMergeNode>
            </feMerge>
        </filter>
        <path d="M12.819426,-5.17920154e-16 L232.180574,5.17920154e-16 C236.638168,-3.00926524e-16 238.254599,0.464128056 239.884229,1.33566352 C241.513858,2.20719898 242.792801,3.48614185 243.664336,5.11577148 C244.535872,6.74540111 245,8.3618323 245,12.819426 L245,96.180574 C245,100.638168 244.535872,102.254599 243.664336,103.884229 C242.792801,105.513858 241.513858,106.792801 239.884229,107.664336 C238.254599,108.535872 236.638168,109 232.180574,109 L12.819426,109 C8.3618323,109 6.74540111,108.535872 5.11577148,107.664336 C3.48614185,106.792801 2.20719898,105.513858 1.33566352,103.884229 C0.464128056,102.254599 2.00617683e-16,100.638168 -3.45280103e-16,96.180574 L3.45280103e-16,12.819426 C-2.00617683e-16,8.3618323 0.464128056,6.74540111 1.33566352,5.11577148 C2.20719898,3.48614185 3.48614185,2.20719898 5.11577148,1.33566352 C6.74540111,0.464128056 8.3618323,3.00926524e-16 12.819426,-5.17920154e-16 Z" id="path-4"></path>
        <filter x="-11.4%" y="-18.3%" width="122.9%" height="151.4%" filterUnits="objectBoundingBox" id="filter-5">
            <feOffset dx="0" dy="8" in="SourceAlpha" result="shadowOffsetOuter1"></feOffset>
            <feGaussianBlur stdDeviation="8" in="shadowOffsetOuter1" result="shadowBlurOuter1"></feGaussianBlur>
            <feColorMatrix values="0 0 0 0 0   0 0 0 0 0   0 0 0 0 0  0 0 0 0.103742074 0" type="matrix" in="shadowBlurOuter1"></feColorMatrix>
        </filter>
    </defs>
    <g id="Client-Connect" stroke="none" stroke-width="1" fill="none" fill-rule="evenodd">
        <g id="Group" transform="translate(16.000000, 8.000000)">
            <g id="Rectangle-Copy-5">
                <use fill="black" fill-opacity="1" filter="url(#filter-2)" xlink:href="#path-1"></use>
                <use fill="#FFFFFF" fill-rule="evenodd" xlink:href="#path-1"></use>
            </g>
            <g id="web" transform="translate(38.000000, 134.000000)">
                <g id="web--client">
                    <text id="Web-client" font-family="HelveticaNeue-Medium, Helvetica Neue" font-size="16" font-weight="400" fill="#4A4A4A">
                        <tspan x="0.280756757" y="69.0847458">Web client</tspan>
                    </text>
                    <g id="Group-Copy" stroke-width="1" fill-rule="evenodd">
                        <g id="web-browser">
                            <path d="M0.25,0.25 L0.25,46.1991525 L79.0112613,46.1991525 L79.0112613,0.25 L0.25,0.25 Z" id="Rectangle-4-Copy-2" stroke="#4A4A4A" stroke-width="0.5"></path>
                            <rect id="Rectangle-18" fill="#4A4A4A" x="0" y="0" width="79.2612613" height="6.05858511"></rect>
                            <ellipse id="Oval" fill="#E6E3E7" cx="17.4992395" cy="3.02929256" rx="2.05873406" ry="2.01952837"></ellipse>
                            <ellipse id="Oval-Copy" fill="#E6E3E7" cx="11.3230373" cy="3.02929256" rx="2.05873406" ry="2.01952837"></ellipse>
                            <ellipse id="Oval-Copy-2" fill="#E6E3E7" cx="5.14683515" cy="3.02929256" rx="2.05873406" ry="2.01952837"></ellipse>
                            <path d="M18.9925422,20.1180929 L20.3011008,20.1180929 L20.3011008,23.0495505 L23.703353,23.0495505 L23.703353,20.1180929 L25.0119116,20.1180929 L25.0119116,27.4880251 L23.703353,27.4880251 L23.703353,24.1643301 L20.3011008,24.1643301 L20.3011008,27.4880251 L18.9925422,27.4880251 L18.9925422,20.1180929 Z M25.870326,20.1180929 L31.9211008,20.1180929 L31.9211008,21.2328725 L29.5447584,21.2328725 L29.5447584,27.4880251 L28.2361999,27.4880251 L28.2361999,21.2328725 L25.870326,21.2328725 L25.870326,20.1180929 Z M32.0781278,20.1180929 L38.1289026,20.1180929 L38.1289026,21.2328725 L35.7525602,21.2328725 L35.7525602,27.4880251 L34.4440017,27.4880251 L34.4440017,21.2328725 L32.0781278,21.2328725 L32.0781278,20.1180929 Z M38.9977854,20.1180929 L42.295353,20.1180929 C42.8257581,20.1180929 43.2584504,20.193787 43.5934431,20.3451776 C43.9284358,20.4965682 44.1866554,20.6858036 44.3681098,20.9128895 C44.5495641,21.1399753 44.6734398,21.3877017 44.7397404,21.6560759 C44.806041,21.9244501 44.8391909,22.1721765 44.8391909,22.3992623 C44.8391909,22.6263482 44.806041,22.8723542 44.7397404,23.1372878 C44.6734398,23.4022213 44.5495641,23.6482273 44.3681098,23.8753132 C44.1866554,24.1023991 43.9284358,24.2899141 43.5934431,24.437864 C43.2584504,24.5858139 42.8257581,24.6597878 42.295353,24.6597878 L40.306344,24.6597878 L40.306344,27.4880251 L38.9977854,27.4880251 L38.9977854,20.1180929 Z M40.306344,23.6069403 L42.2220737,23.6069403 C42.368633,23.6069403 42.5186796,23.5862964 42.6722179,23.5450081 C42.8257562,23.5037198 42.9670791,23.4366272 43.0961909,23.3437284 C43.2253026,23.2508297 43.3299862,23.1269665 43.4102449,22.9721352 C43.4905036,22.8173039 43.5306323,22.6229076 43.5306323,22.3889403 C43.5306323,22.1480916 43.4957377,21.9485343 43.4259476,21.7902623 C43.3561575,21.6319904 43.2619422,21.5064069 43.143299,21.4135081 C43.0246557,21.3206093 42.888567,21.2569574 42.7350287,21.2225505 C42.5814904,21.1881435 42.417486,21.1709403 42.2430107,21.1709403 L40.306344,21.1709403 L40.306344,23.6069403 Z M46.8386683,25.031381 C46.8386683,25.313518 46.8875207,25.554363 46.9852269,25.7539234 C47.0829331,25.9534837 47.2190218,26.1169142 47.3934972,26.24422 C47.5679725,26.3715257 47.7686161,26.4644231 47.9954341,26.5229149 C48.222252,26.5814067 48.4682586,26.6106522 48.7334611,26.6106522 C49.0196007,26.6106522 49.2638625,26.5779661 49.4662539,26.5125929 C49.6686453,26.4472196 49.8326497,26.3629239 49.9582719,26.259703 C50.0838942,26.1564822 50.17462,26.03778 50.2304521,25.9035929 C50.2862842,25.7694057 50.3141999,25.6335003 50.3141999,25.4958725 C50.3141999,25.2137355 50.249645,25.0055766 50.1205332,24.8713895 C49.9914214,24.7372024 49.8500985,24.6425847 49.6965602,24.5875335 C49.4313577,24.4911941 49.122541,24.400017 48.7701008,24.3139996 C48.4176606,24.2279823 47.9832235,24.1161613 47.4667764,23.9785335 C47.1457418,23.8959568 46.8787985,23.7875766 46.6659386,23.6533895 C46.4530787,23.5192024 46.2838401,23.3695344 46.1582179,23.204381 C46.0325956,23.0392276 45.9436145,22.8637548 45.8912719,22.6779573 C45.8389293,22.4921597 45.8127584,22.3029243 45.8127584,22.1102454 C45.8127584,21.7386503 45.8912711,21.4169501 46.048299,21.1451352 C46.2053268,20.8733203 46.4129493,20.6479582 46.6711728,20.469042 C46.9293963,20.2901259 47.2225105,20.1576611 47.5505242,20.0716437 C47.8785378,19.9856263 48.210036,19.9426183 48.5450287,19.9426183 C48.9358535,19.9426183 49.3039909,19.9925076 49.6494521,20.0922878 C49.9949133,20.1920679 50.2984958,20.3417359 50.5602089,20.5412962 C50.8219219,20.7408566 51.0295444,20.9868626 51.1830827,21.2793217 C51.336621,21.5717808 51.4133891,21.9106841 51.4133891,22.296042 L50.1048305,22.296042 C50.0699354,21.8212261 49.9059311,21.4857633 49.6128125,21.2896437 C49.3196939,21.0935241 48.9463222,20.9954657 48.4926863,20.9954657 C48.339148,20.9954657 48.1821226,21.0109486 48.0216053,21.0419149 C47.8610879,21.0728811 47.7145309,21.1244908 47.5819296,21.1967454 C47.4493283,21.269 47.3394105,21.3670583 47.2521728,21.4909234 C47.1649352,21.6147884 47.121317,21.7696173 47.121317,21.9554149 C47.121317,22.2169077 47.2033192,22.421626 47.367326,22.5695759 C47.5313328,22.7175258 47.7459343,22.8293467 48.0111368,22.905042 C48.0390529,22.9119234 48.1489707,22.9411689 48.3408936,22.9927793 C48.5328164,23.0443897 48.7474179,23.1011603 48.9847044,23.1630929 C49.2219908,23.2250254 49.4540396,23.2852366 49.6808575,23.3437284 C49.9076755,23.4022203 50.0699351,23.4452283 50.1676413,23.4727539 C50.4119068,23.5484492 50.6247635,23.6516685 50.8062179,23.7824149 C50.9876722,23.9131613 51.1394635,24.0628293 51.2615963,24.2314234 C51.383729,24.4000174 51.4744548,24.5806512 51.5337764,24.7733301 C51.5930981,24.9660091 51.6227584,25.1586851 51.6227584,25.351364 C51.6227584,25.7642475 51.5372668,26.1169134 51.3662809,26.4093725 C51.1952951,26.7018316 50.9702253,26.9409563 50.6910647,27.1267539 C50.4119042,27.3125514 50.0943638,27.4484568 49.7384341,27.5344742 C49.3825044,27.6204916 49.0196011,27.6634996 48.6497134,27.6634996 C48.2239935,27.6634996 47.8227062,27.61189 47.4458395,27.5086691 C47.0689728,27.4054483 46.740964,27.2471787 46.4618035,27.0338556 C46.1826429,26.8205325 45.9593178,26.5470013 45.7918215,26.2132539 C45.6243251,25.8795064 45.5370888,25.4855527 45.5301098,25.031381 L46.8386683,25.031381 Z M52.6905422,26.0945505 L54.1456593,26.0945505 L54.1456593,27.4880251 L52.6905422,27.4880251 L52.6905422,26.0945505 Z M52.6905422,22.2650759 L54.1456593,22.2650759 L54.1456593,23.6585505 L52.6905422,23.6585505 L52.6905422,22.2650759 Z M57.6525963,19.9426183 L58.7936593,19.9426183 L55.7892089,27.6634996 L54.6481458,27.6634996 L57.6525963,19.9426183 Z M61.3374972,19.9426183 L62.4785602,19.9426183 L59.4741098,27.6634996 L58.3330467,27.6634996 L61.3374972,19.9426183 Z" id="HTTPS://" fill="#4A4A4A"></path>
                        </g>
                    </g>
                </g>
            </g>
            <g id="tsh" transform="translate(37.000000, 26.000000)">
                <g id="SSH-client">
                    <g id="monitor-with-terminal">
                        <g id="tctl" stroke-width="1" fill-rule="evenodd">
                            <path d="M0.25,0.25 L0.25,45.65 L78.7681818,45.65 L78.7681818,0.25 L0.25,0.25 Z" id="Rectangle-4-Copy-3" stroke="#4A4A4A" stroke-width="0.5" fill="#4A4A4A"></path>
                            <rect id="Rectangle-18-Copy" fill="#D8D8D8" x="0" y="0" width="79.0181818" height="5.82857143"></rect>
                            <ellipse id="Oval-Copy-3" fill="#4A4A4A" cx="17.8909091" cy="2.91428571" rx="2.23636364" ry="2.18571429"></ellipse>
                            <ellipse id="Oval-Copy-4" fill="#4A4A4A" cx="11.1818182" cy="2.91428571" rx="2.23636364" ry="2.18571429"></ellipse>
                            <ellipse id="Oval-Copy-5" fill="#4A4A4A" cx="5.21818182" cy="2.91428571" rx="2.23636364" ry="2.18571429"></ellipse>
                        </g>
                        <text id="&gt;-ssh" font-family="Helvetica" font-size="18" font-weight="normal" fill="#FFFFFF">
                            <tspan x="5.96363636" y="37.6714286">&gt; ssh</tspan>
                        </text>
                    </g>
                    <text id="OpenSSH-client" font-family="HelveticaNeue-Medium, Helvetica Neue" font-size="16" font-weight="400" fill="#4A4A4A">
                        <tspan x="3.47863063" y="68.4745763">OpenSSH </tspan>
                        <tspan x="19.6226306" y="87.4745763">client</tspan>
                    </text>
                </g>
            </g>
        </g>
        <path id="Line-6" d="M311,125 L320,129.5 L311,134 L311,130 L162,130 L162,129 L311,129 L311,125 Z" fill="#979797" fill-rule="nonzero"></path>
        <g id="certificate" transform="translate(201.000000, 70.000000)">
            <g>
                <path d="M6.63,69.156 C6.56599968,68.9079988 6.47800056,68.680001 6.366,68.472 C6.25399944,68.263999 6.11000088,68.0840008 5.934,67.932 C5.75799912,67.7799992 5.55200118,67.6620004 5.316,67.578 C5.07999882,67.4939996 4.80600156,67.452 4.494,67.452 C4.03799772,67.452 3.64400166,67.5439991 3.312,67.728 C2.97999834,67.9120009 2.71000104,68.1579985 2.502,68.466 C2.29399896,68.7740015 2.1400005,69.123998 2.04,69.516 C1.9399995,69.908002 1.89,70.307998 1.89,70.716 C1.89,71.124002 1.9399995,71.523998 2.04,71.916 C2.1400005,72.308002 2.29399896,72.6579985 2.502,72.966 C2.71000104,73.2740015 2.97999834,73.5199991 3.312,73.704 C3.64400166,73.8880009 4.03799772,73.98 4.494,73.98 C4.83000168,73.98 5.12599872,73.9220006 5.382,73.806 C5.63800128,73.6899994 5.85799908,73.530001 6.042,73.326 C6.22600092,73.121999 6.36999948,72.8840014 6.474,72.612 C6.57800052,72.3399986 6.64599984,72.0480016 6.678,71.736 L8.142,71.736 C8.10999984,72.2480026 8.00000094,72.7159979 7.812,73.14 C7.62399906,73.5640021 7.3700016,73.9299985 7.05,74.238 C6.7299984,74.5460015 6.35400216,74.7839992 5.922,74.952 C5.48999784,75.1200008 5.0140026,75.204 4.494,75.204 C3.8539968,75.204 3.28000254,75.0860012 2.772,74.85 C2.26399746,74.6139988 1.83400176,74.292002 1.482,73.884 C1.12999824,73.475998 0.86000094,73.0000027 0.672,72.456 C0.48399906,71.9119973 0.39,71.3320031 0.39,70.716 C0.39,70.107997 0.48399906,69.5320027 0.672,68.988 C0.86000094,68.4439973 1.12999824,67.968002 1.482,67.56 C1.83400176,67.151998 2.26399746,66.8280012 2.772,66.588 C3.28000254,66.3479988 3.8539968,66.228 4.494,66.228 C4.9740024,66.228 5.42599788,66.2939993 5.85,66.426 C6.27400212,66.5580007 6.64799838,66.7499987 6.972,67.002 C7.29600162,67.2540013 7.557999,67.5599982 7.758,67.92 C7.958001,68.2800018 8.08199976,68.6919977 8.13,69.156 L6.63,69.156 Z M13.578,71.352 C13.5619999,71.1359989 13.5160004,70.928001 13.44,70.728 C13.3639996,70.527999 13.2600007,70.3540007 13.128,70.206 C12.9959993,70.0579993 12.8360009,69.9380005 12.648,69.846 C12.4599991,69.7539995 12.2500012,69.708 12.018,69.708 C11.7779988,69.708 11.560001,69.7499996 11.364,69.834 C11.167999,69.9180004 11.0000007,70.0339993 10.86,70.182 C10.7199993,70.3300007 10.6080004,70.503999 10.524,70.704 C10.4399996,70.904001 10.394,71.1199988 10.386,71.352 L13.578,71.352 Z M10.386,72.252 C10.386,72.4920012 10.4199997,72.7239989 10.488,72.948 C10.5560003,73.1720011 10.6579993,73.3679992 10.794,73.536 C10.9300007,73.7040008 11.101999,73.8379995 11.31,73.938 C11.518,74.0380005 11.7659986,74.088 12.054,74.088 C12.454002,74.088 12.7759988,74.0020009 13.02,73.83 C13.2640012,73.6579991 13.4459994,73.4000017 13.566,73.056 L14.862,73.056 C14.7899996,73.3920017 14.6660009,73.6919987 14.49,73.956 C14.3139991,74.2200013 14.1020012,74.4419991 13.854,74.622 C13.6059988,74.8020009 13.3280015,74.9379995 13.02,75.03 C12.7119985,75.1220005 12.3900017,75.168 12.054,75.168 C11.5659976,75.168 11.1340019,75.0880008 10.758,74.928 C10.3819981,74.7679992 10.0640013,74.5440014 9.804,74.256 C9.5439987,73.9679986 9.34800066,73.624002 9.216,73.224 C9.08399934,72.823998 9.018,72.3840024 9.018,71.904 C9.018,71.4639978 9.0879993,71.046002 9.228,70.65 C9.3680007,70.253998 9.5679987,69.9060015 9.828,69.606 C10.0880013,69.3059985 10.4019982,69.0680009 10.77,68.892 C11.1380018,68.7159991 11.5539977,68.628 12.018,68.628 C12.5060024,68.628 12.9439981,68.729999 13.332,68.934 C13.7200019,69.138001 14.0419987,69.4079983 14.298,69.744 C14.5540013,70.0800017 14.7399994,70.4659978 14.856,70.902 C14.9720006,71.3380022 15.0020003,71.7879977 14.946,72.252 L10.386,72.252 Z M15.99,68.796 L17.274,68.796 L17.274,69.996 L17.298,69.996 C17.3380002,69.8279992 17.4159994,69.6640008 17.532,69.504 C17.6480006,69.3439992 17.7879992,69.1980007 17.952,69.066 C18.1160008,68.9339993 18.297999,68.8280004 18.498,68.748 C18.698001,68.6679996 18.901999,68.628 19.11,68.628 C19.2700008,68.628 19.3799997,68.632 19.44,68.64 C19.5000003,68.648 19.5619997,68.656 19.626,68.664 L19.626,69.984 C19.5299995,69.9679999 19.4320005,69.9540001 19.332,69.942 C19.2319995,69.9299999 19.1340005,69.924 19.038,69.924 C18.8059988,69.924 18.588001,69.9699995 18.384,70.062 C18.179999,70.1540005 18.0020008,70.2899991 17.85,70.47 C17.6979992,70.6500009 17.5780004,70.8719987 17.49,71.136 C17.4019996,71.4000013 17.358,71.7039983 17.358,72.048 L17.358,75 L15.99,75 L15.99,68.796 Z M19.59,68.796 L20.622,68.796 L20.622,66.936 L21.99,66.936 L21.99,68.796 L23.226,68.796 L23.226,69.816 L21.99,69.816 L21.99,73.128 C21.99,73.2720007 21.9959999,73.3959995 22.008,73.5 C22.0200001,73.6040005 22.0479998,73.6919996 22.092,73.764 C22.1360002,73.8360004 22.2019996,73.8899998 22.29,73.926 C22.3780004,73.9620002 22.4979992,73.98 22.65,73.98 C22.7460005,73.98 22.8419995,73.978 22.938,73.974 C23.0340005,73.97 23.1299995,73.9560001 23.226,73.932 L23.226,74.988 C23.0739992,75.0040001 22.9260007,75.0199999 22.782,75.036 C22.6379993,75.0520001 22.4900008,75.06 22.338,75.06 C21.9779982,75.06 21.6880011,75.0260003 21.468,74.958 C21.2479989,74.8899997 21.0760006,74.7900007 20.952,74.658 C20.8279994,74.5259993 20.7440002,74.360001 20.7,74.16 C20.6559998,73.959999 20.63,73.7320013 20.622,73.476 L20.622,69.816 L19.59,69.816 L19.59,68.796 Z M24.246,66.432 L25.614,66.432 L25.614,67.728 L24.246,67.728 L24.246,66.432 Z M24.246,68.796 L25.614,68.796 L25.614,75 L24.246,75 L24.246,68.796 Z M30.918,66.432 L32.286,66.432 L32.286,67.728 L30.918,67.728 L30.918,66.432 Z M26.49,68.796 L27.51,68.796 L27.51,68.28 C27.51,67.887998 27.5579995,67.5700012 27.654,67.326 C27.7500005,67.0819988 27.8779992,66.8940007 28.038,66.762 C28.1980008,66.6299993 28.379999,66.5420002 28.584,66.498 C28.788001,66.4539998 29.0019989,66.432 29.226,66.432 C29.6660022,66.432 29.985999,66.4599997 30.186,66.516 L30.186,67.584 C30.0979996,67.5599999 30.0040005,67.5420001 29.904,67.53 C29.8039995,67.5179999 29.6860007,67.512 29.55,67.512 C29.3659991,67.512 29.2080007,67.5559996 29.076,67.644 C28.9439993,67.7320004 28.878,67.9039987 28.878,68.16 L28.878,68.796 L30.042,68.796 L30.042,69.816 L28.878,69.816 L28.878,75 L27.51,75 L27.51,69.816 L26.49,69.816 L26.49,68.796 Z M30.918,68.796 L32.286,68.796 L32.286,75 L30.918,75 L30.918,68.796 Z M37.962,70.872 C37.9059997,70.4879981 37.7520013,70.198001 37.5,70.002 C37.2479987,69.805999 36.9300019,69.708 36.546,69.708 C36.3699991,69.708 36.182001,69.7379997 35.982,69.798 C35.781999,69.8580003 35.5980008,69.9699992 35.43,70.134 C35.2619992,70.2980008 35.1220006,70.5259985 35.01,70.818 C34.8979994,71.1100015 34.842,71.4919976 34.842,71.964 C34.842,72.2200013 34.8719997,72.4759987 34.932,72.732 C34.9920003,72.9880013 35.0879993,73.215999 35.22,73.416 C35.3520007,73.616001 35.521999,73.7779994 35.73,73.902 C35.938001,74.0260006 36.1899985,74.088 36.486,74.088 C36.886002,74.088 37.2159987,73.9640012 37.476,73.716 C37.7360013,73.4679988 37.8979997,73.1200022 37.962,72.672 L39.33,72.672 C39.2019994,73.480004 38.8960024,74.0979979 38.412,74.526 C37.9279976,74.9540021 37.286004,75.168 36.486,75.168 C35.9979976,75.168 35.5680019,75.0860008 35.196,74.922 C34.8239981,74.7579992 34.5100013,74.5340014 34.254,74.25 C33.9979987,73.9659986 33.8040007,73.628 33.672,73.236 C33.5399993,72.843998 33.474,72.4200023 33.474,71.964 C33.474,71.4999977 33.5379994,71.064002 33.666,70.656 C33.7940006,70.247998 33.9859987,69.8940015 34.242,69.594 C34.4980013,69.2939985 34.8159981,69.0580009 35.196,68.886 C35.5760019,68.7139991 36.0219974,68.628 36.534,68.628 C36.8940018,68.628 37.2359984,68.6739995 37.56,68.766 C37.8840016,68.8580005 38.1719987,68.9959991 38.424,69.18 C38.6760013,69.3640009 38.8819992,69.5959986 39.042,69.876 C39.2020008,70.1560014 39.2979998,70.4879981 39.33,70.872 L37.962,70.872 Z M45.642,73.62 C45.642,73.7880008 45.6639998,73.9079996 45.708,73.98 C45.7520002,74.0520004 45.8379994,74.088 45.966,74.088 L46.11,74.088 C46.1660003,74.088 46.2299996,74.0800001 46.302,74.064 L46.302,75.012 C46.2539998,75.0280001 46.1920004,75.0459999 46.116,75.066 C46.0399996,75.0860001 45.9620004,75.1039999 45.882,75.12 C45.8019996,75.1360001 45.7220004,75.148 45.642,75.156 C45.5619996,75.164 45.4940003,75.168 45.438,75.168 C45.1579986,75.168 44.9260009,75.1120006 44.742,75 C44.5579991,74.8879994 44.4380003,74.6920014 44.382,74.412 C44.11,74.6760013 43.776002,74.8679994 43.38,74.988 C42.983998,75.1080006 42.6020018,75.168 42.234,75.168 C41.9539986,75.168 41.6860013,75.1300004 41.43,75.054 C41.1739987,74.9779996 40.948001,74.8660007 40.752,74.718 C40.555999,74.5699993 40.4000006,74.3820011 40.284,74.154 C40.1679994,73.9259989 40.11,73.6600015 40.11,73.356 C40.11,72.9719981 40.1799993,72.6600012 40.32,72.42 C40.4600007,72.1799988 40.6439989,71.9920007 40.872,71.856 C41.1000011,71.7199993 41.3559986,71.6220003 41.64,71.562 C41.9240014,71.5019997 42.2099986,71.4560002 42.498,71.424 C42.7460012,71.3759998 42.9819989,71.3420001 43.206,71.322 C43.4300011,71.3019999 43.6279991,71.2680002 43.8,71.22 C43.9720009,71.1719998 44.1079995,71.0980005 44.208,70.998 C44.3080005,70.8979995 44.358,70.748001 44.358,70.548 C44.358,70.3719991 44.3160004,70.2280006 44.232,70.116 C44.1479996,70.0039994 44.0440006,69.9180003 43.92,69.858 C43.7959994,69.7979997 43.6580008,69.7580001 43.506,69.738 C43.3539992,69.7179999 43.2100007,69.708 43.074,69.708 C42.6899981,69.708 42.3740012,69.7879992 42.126,69.948 C41.8779988,70.1080008 41.7380002,70.3559983 41.706,70.692 L40.338,70.692 C40.3620001,70.291998 40.4579992,69.9600013 40.626,69.696 C40.7940008,69.4319987 41.0079987,69.2200008 41.268,69.06 C41.5280013,68.8999992 41.8219984,68.7880003 42.15,68.724 C42.4780016,68.6599997 42.8139983,68.628 43.158,68.628 C43.4620015,68.628 43.7619985,68.6599997 44.058,68.724 C44.3540015,68.7880003 44.6199988,68.8919993 44.856,69.036 C45.0920012,69.1800007 45.2819993,69.3659989 45.426,69.594 C45.5700007,69.8220011 45.642,70.0999984 45.642,70.428 L45.642,73.62 Z M44.274,71.892 C44.065999,72.0280007 43.8100015,72.1099999 43.506,72.138 C43.2019985,72.1660001 42.8980015,72.2079997 42.594,72.264 C42.4499993,72.2880001 42.3100007,72.3219998 42.174,72.366 C42.0379993,72.4100002 41.9180005,72.4699996 41.814,72.546 C41.7099995,72.6220004 41.6280003,72.7219994 41.568,72.846 C41.5079997,72.9700006 41.478,73.1199991 41.478,73.296 C41.478,73.4480008 41.5219996,73.5759995 41.61,73.68 C41.6980004,73.7840005 41.8039994,73.8659997 41.928,73.926 C42.0520006,73.9860003 42.1879993,74.0279999 42.336,74.052 C42.4840007,74.0760001 42.6179994,74.088 42.738,74.088 C42.8900008,74.088 43.0539991,74.0680002 43.23,74.028 C43.4060009,73.9879998 43.5719992,73.9200005 43.728,73.824 C43.8840008,73.7279995 44.0139995,73.6060007 44.118,73.458 C44.2220005,73.3099993 44.274,73.1280011 44.274,72.912 L44.274,71.892 Z M46.494,68.796 L47.526,68.796 L47.526,66.936 L48.894,66.936 L48.894,68.796 L50.13,68.796 L50.13,69.816 L48.894,69.816 L48.894,73.128 C48.894,73.2720007 48.8999999,73.3959995 48.912,73.5 C48.9240001,73.6040005 48.9519998,73.6919996 48.996,73.764 C49.0400002,73.8360004 49.1059996,73.8899998 49.194,73.926 C49.2820004,73.9620002 49.4019992,73.98 49.554,73.98 C49.6500005,73.98 49.7459995,73.978 49.842,73.974 C49.9380005,73.97 50.0339995,73.9560001 50.13,73.932 L50.13,74.988 C49.9779992,75.0040001 49.8300007,75.0199999 49.686,75.036 C49.5419993,75.0520001 49.3940008,75.06 49.242,75.06 C48.8819982,75.06 48.5920011,75.0260003 48.372,74.958 C48.1519989,74.8899997 47.9800006,74.7900007 47.856,74.658 C47.7319994,74.5259993 47.6480002,74.360001 47.604,74.16 C47.5599998,73.959999 47.534,73.7320013 47.526,73.476 L47.526,69.816 L46.494,69.816 L46.494,68.796 Z M55.374,71.352 C55.3579999,71.1359989 55.3120004,70.928001 55.236,70.728 C55.1599996,70.527999 55.0560007,70.3540007 54.924,70.206 C54.7919993,70.0579993 54.6320009,69.9380005 54.444,69.846 C54.2559991,69.7539995 54.0460012,69.708 53.814,69.708 C53.5739988,69.708 53.356001,69.7499996 53.16,69.834 C52.963999,69.9180004 52.7960007,70.0339993 52.656,70.182 C52.5159993,70.3300007 52.4040004,70.503999 52.32,70.704 C52.2359996,70.904001 52.19,71.1199988 52.182,71.352 L55.374,71.352 Z M52.182,72.252 C52.182,72.4920012 52.2159997,72.7239989 52.284,72.948 C52.3520003,73.1720011 52.4539993,73.3679992 52.59,73.536 C52.7260007,73.7040008 52.897999,73.8379995 53.106,73.938 C53.314,74.0380005 53.5619986,74.088 53.85,74.088 C54.250002,74.088 54.5719988,74.0020009 54.816,73.83 C55.0600012,73.6579991 55.2419994,73.4000017 55.362,73.056 L56.658,73.056 C56.5859996,73.3920017 56.4620009,73.6919987 56.286,73.956 C56.1099991,74.2200013 55.8980012,74.4419991 55.65,74.622 C55.4019988,74.8020009 55.1240015,74.9379995 54.816,75.03 C54.5079985,75.1220005 54.1860017,75.168 53.85,75.168 C53.3619976,75.168 52.9300019,75.0880008 52.554,74.928 C52.1779981,74.7679992 51.8600013,74.5440014 51.6,74.256 C51.3399987,73.9679986 51.1440007,73.624002 51.012,73.224 C50.8799993,72.823998 50.814,72.3840024 50.814,71.904 C50.814,71.4639978 50.8839993,71.046002 51.024,70.65 C51.1640007,70.253998 51.3639987,69.9060015 51.624,69.606 C51.8840013,69.3059985 52.1979982,69.0680009 52.566,68.892 C52.9340018,68.7159991 53.3499977,68.628 53.814,68.628 C54.3020024,68.628 54.7399981,68.729999 55.128,68.934 C55.5160019,69.138001 55.8379987,69.4079983 56.094,69.744 C56.3500013,70.0800017 56.5359994,70.4659978 56.652,70.902 C56.7680006,71.3380022 56.7980003,71.7879977 56.742,72.252 L52.182,72.252 Z" id="Certificate-Copy-2" fill="#4A4A4A"></path>
                <g id="cert-copy-2" transform="translate(4.000000, 0.000000)">
                    <path d="M40.7631579,0.5 L0.5,0.5 L0.5,53.5 L48.5,53.5 L48.5,8.40243902 L40.7631579,8.40243902 L40.7631579,0.5 Z" id="Combined-Shape" stroke="#5C5C5C" fill="#FFFFFF"></path>
                    <line x1="7.7173913" y1="13.5" x2="39.3152006" y2="13.5" id="Line" stroke="#4A4A4A" stroke-linecap="square"></line>
                    <line x1="7.7173913" y1="16.5" x2="39.3152006" y2="16.5" id="Line-Copy" stroke="#4A4A4A" stroke-linecap="square"></line>
                    <line x1="7.7173913" y1="19.5" x2="39.3152006" y2="19.5" id="Line-Copy-9" stroke="#4A4A4A" stroke-linecap="square"></line>
                    <line x1="7.7173913" y1="22.5" x2="39.3152006" y2="22.5" id="Line-Copy-10" stroke="#4A4A4A" stroke-linecap="square"></line>
                    <line x1="7.7173913" y1="25.5" x2="39.3152006" y2="25.5" id="Line-Copy-11" stroke="#4A4A4A" stroke-linecap="square"></line>
                    <line x1="7.7173913" y1="28.5" x2="33.5" y2="28.5" id="Line-Copy-12" stroke="#4A4A4A" stroke-linecap="square"></line>
                    <circle id="Oval-7" fill="#4A4A4A" cx="39.5" cy="46.5" r="6.5"></circle>
                    <path d="M44,49 L44,61 L39.5,55.1714286 L35,61 L35,49 L44,49 Z" id="Combined-Shape" fill="#4A4A4A"></path>
                    <line x1="40.7519531" y1="0.306884766" x2="48.6711426" y2="8.33398437" id="Path-11" stroke="#4A4A4A"></line>
                </g>
            </g>
        </g>
        <g id="teleport-proxy" filter="url(#filter-3)" transform="translate(320.000000, 70.000000)">
            <g id="Rectangle-Copy-6">
                <use fill="black" fill-opacity="1" filter="url(#filter-5)" xlink:href="#path-4"></use>
                <use fill="#FFFFFF" fill-rule="evenodd" xlink:href="#path-4"></use>
            </g>
            <g transform="translate(13.000000, 15.000000)">
                <path d="M10,1.5 C5.30557963,1.5 1.5,5.30557963 1.5,10 L1.5,70 C1.5,74.6944204 5.30557963,78.5 10,78.5 L210,78.5 C214.69442,78.5 218.5,74.6944204 218.5,70 L218.5,10 C218.5,5.30557963 214.69442,1.5 210,1.5 L10,1.5 Z" id="Rectangle-17" stroke="#40B6C6" stroke-width="3" fill="#FFFFFF"></path>
                <path d="M57,33 L66.248,33 L66.248,34.728 L62.616,34.728 L62.616,44.424 L60.616,44.424 L60.616,34.728 L57,34.728 L57,33 Z M71.224,39.56 C71.2026666,39.2719986 71.1413338,38.994668 71.04,38.728 C70.9386662,38.461332 70.8000009,38.2293343 70.624,38.032 C70.4479991,37.8346657 70.2346679,37.6746673 69.984,37.552 C69.7333321,37.4293327 69.4533349,37.368 69.144,37.368 C68.8239984,37.368 68.5333346,37.4239994 68.272,37.536 C68.0106654,37.6480006 67.7866676,37.8026657 67.6,38 C67.4133324,38.1973343 67.2640006,38.429332 67.152,38.696 C67.0399994,38.962668 66.9786667,39.2506651 66.968,39.56 L71.224,39.56 Z M66.968,40.76 C66.968,41.0800016 67.0133329,41.3893318 67.104,41.688 C67.1946671,41.9866682 67.3306658,42.2479989 67.512,42.472 C67.6933342,42.6960011 67.9226653,42.874666 68.2,43.008 C68.4773347,43.141334 68.8079981,43.208 69.192,43.208 C69.725336,43.208 70.154665,43.0933345 70.48,42.864 C70.805335,42.6346655 71.0479992,42.290669 71.208,41.832 L72.936,41.832 C72.8399995,42.2800022 72.6746678,42.6799982 72.44,43.032 C72.2053322,43.3840018 71.9226683,43.6799988 71.592,43.92 C71.2613317,44.1600012 70.8906687,44.3413327 70.48,44.464 C70.0693313,44.5866673 69.6400022,44.648 69.192,44.648 C68.5413301,44.648 67.9653358,44.5413344 67.464,44.328 C66.9626642,44.1146656 66.5386684,43.8160019 66.192,43.432 C65.8453316,43.0479981 65.5840009,42.589336 65.408,42.056 C65.2319991,41.522664 65.144,40.9360032 65.144,40.296 C65.144,39.7093304 65.2373324,39.1520026 65.424,38.624 C65.6106676,38.0959974 65.8773316,37.632002 66.224,37.232 C66.5706684,36.831998 66.9893309,36.5146678 67.48,36.28 C67.9706691,36.0453322 68.5253302,35.928 69.144,35.928 C69.7946699,35.928 70.3786641,36.0639986 70.896,36.336 C71.4133359,36.6080014 71.842665,36.9679978 72.184,37.416 C72.525335,37.8640022 72.7733326,38.3786638 72.928,38.96 C73.0826674,39.5413362 73.122667,40.1413302 73.048,40.76 L66.968,40.76 Z M74.488,33 L76.312,33 L76.312,44.424 L74.488,44.424 L74.488,33 Z M83.976,39.56 C83.9546666,39.2719986 83.8933338,38.994668 83.792,38.728 C83.6906662,38.461332 83.5520009,38.2293343 83.376,38.032 C83.1999991,37.8346657 82.9866679,37.6746673 82.736,37.552 C82.4853321,37.4293327 82.2053349,37.368 81.896,37.368 C81.5759984,37.368 81.2853346,37.4239994 81.024,37.536 C80.7626654,37.6480006 80.5386676,37.8026657 80.352,38 C80.1653324,38.1973343 80.0160006,38.429332 79.904,38.696 C79.7919994,38.962668 79.7306667,39.2506651 79.72,39.56 L83.976,39.56 Z M79.72,40.76 C79.72,41.0800016 79.7653329,41.3893318 79.856,41.688 C79.9466671,41.9866682 80.0826658,42.2479989 80.264,42.472 C80.4453342,42.6960011 80.6746653,42.874666 80.952,43.008 C81.2293347,43.141334 81.5599981,43.208 81.944,43.208 C82.477336,43.208 82.906665,43.0933345 83.232,42.864 C83.557335,42.6346655 83.7999992,42.290669 83.96,41.832 L85.688,41.832 C85.5919995,42.2800022 85.4266678,42.6799982 85.192,43.032 C84.9573322,43.3840018 84.6746683,43.6799988 84.344,43.92 C84.0133317,44.1600012 83.6426687,44.3413327 83.232,44.464 C82.8213313,44.5866673 82.3920022,44.648 81.944,44.648 C81.2933301,44.648 80.7173358,44.5413344 80.216,44.328 C79.7146642,44.1146656 79.2906684,43.8160019 78.944,43.432 C78.5973316,43.0479981 78.3360009,42.589336 78.16,42.056 C77.9839991,41.522664 77.896,40.9360032 77.896,40.296 C77.896,39.7093304 77.9893324,39.1520026 78.176,38.624 C78.3626676,38.0959974 78.6293316,37.632002 78.976,37.232 C79.3226684,36.831998 79.7413309,36.5146678 80.232,36.28 C80.7226691,36.0453322 81.2773302,35.928 81.896,35.928 C82.5466699,35.928 83.1306641,36.0639986 83.648,36.336 C84.1653359,36.6080014 84.594665,36.9679978 84.936,37.416 C85.277335,37.8640022 85.5253326,38.3786638 85.68,38.96 C85.8346674,39.5413362 85.874667,40.1413302 85.8,40.76 L79.72,40.76 Z M87.24,36.152 L88.968,36.152 L88.968,37.272 L89,37.272 C89.2560013,36.7919976 89.613331,36.448001 90.072,36.24 C90.530669,36.031999 91.026664,35.928 91.56,35.928 C92.2106699,35.928 92.7786642,36.0426655 93.264,36.272 C93.7493358,36.5013345 94.1519984,36.815998 94.472,37.216 C94.7920016,37.616002 95.0319992,38.082664 95.192,38.616 C95.3520008,39.149336 95.432,39.719997 95.432,40.328 C95.432,40.8826694 95.3600007,41.4213307 95.216,41.944 C95.0719993,42.4666693 94.8533348,42.928 94.56,43.328 C94.2666652,43.728002 93.8960022,44.0479988 93.448,44.288 C92.9999978,44.5280012 92.472003,44.648 91.864,44.648 C91.597332,44.648 91.330668,44.6240002 91.064,44.576 C90.797332,44.5279998 90.5413346,44.4506672 90.296,44.344 C90.0506654,44.2373328 89.824001,44.1013342 89.616,43.936 C89.407999,43.7706658 89.2346674,43.5760011 89.096,43.352 L89.064,43.352 L89.064,47.48 L87.24,47.48 L87.24,36.152 Z M93.608,40.296 C93.608,39.9226648 93.5600005,39.5600018 93.464,39.208 C93.3679995,38.8559982 93.224001,38.5440014 93.032,38.272 C92.839999,37.9999986 92.6000014,37.7813342 92.312,37.616 C92.0239986,37.4506658 91.6933352,37.368 91.32,37.368 C90.5519962,37.368 89.9733353,37.634664 89.584,38.168 C89.1946647,38.701336 89,39.4106622 89,40.296 C89,40.7120021 89.0506662,41.0986649 89.152,41.456 C89.2533338,41.8133351 89.4053323,42.1199987 89.608,42.376 C89.8106677,42.6320013 90.0533319,42.8346659 90.336,42.984 C90.6186681,43.1333341 90.9466648,43.208 91.32,43.208 C91.7360021,43.208 92.0879986,43.1226675 92.376,42.952 C92.6640014,42.7813325 92.9013324,42.5600014 93.088,42.288 C93.2746676,42.0159986 93.4079996,41.7066684 93.488,41.36 C93.5680004,41.0133316 93.608,40.6586685 93.608,40.296 Z M100.76,44.648 C100.098663,44.648 99.5093359,44.5386678 98.992,44.32 C98.4746641,44.1013322 98.0373351,43.8000019 97.68,43.416 C97.3226649,43.0319981 97.0506676,42.573336 96.864,42.04 C96.6773324,41.506664 96.584,40.9200032 96.584,40.28 C96.584,39.6506635 96.6773324,39.069336 96.864,38.536 C97.0506676,38.002664 97.3226649,37.5440019 97.68,37.16 C98.0373351,36.7759981 98.4746641,36.4746678 98.992,36.256 C99.5093359,36.0373322 100.098663,35.928 100.76,35.928 C101.421337,35.928 102.010664,36.0373322 102.528,36.256 C103.045336,36.4746678 103.482665,36.7759981 103.84,37.16 C104.197335,37.5440019 104.469332,38.002664 104.656,38.536 C104.842668,39.069336 104.936,39.6506635 104.936,40.28 C104.936,40.9200032 104.842668,41.506664 104.656,42.04 C104.469332,42.573336 104.197335,43.0319981 103.84,43.416 C103.482665,43.8000019 103.045336,44.1013322 102.528,44.32 C102.010664,44.5386678 101.421337,44.648 100.76,44.648 Z M100.76,43.208 C101.165335,43.208 101.517332,43.1226675 101.816,42.952 C102.114668,42.7813325 102.359999,42.5573347 102.552,42.28 C102.744001,42.0026653 102.885333,41.6906684 102.976,41.344 C103.066667,40.9973316 103.112,40.6426685 103.112,40.28 C103.112,39.9279982 103.066667,39.5760018 102.976,39.224 C102.885333,38.8719982 102.744001,38.5600014 102.552,38.288 C102.359999,38.0159986 102.114668,37.7946675 101.816,37.624 C101.517332,37.4533325 101.165335,37.368 100.76,37.368 C100.354665,37.368 100.002668,37.4533325 99.704,37.624 C99.4053318,37.7946675 99.160001,38.0159986 98.968,38.288 C98.775999,38.5600014 98.6346671,38.8719982 98.544,39.224 C98.4533329,39.5760018 98.408,39.9279982 98.408,40.28 C98.408,40.6426685 98.4533329,40.9973316 98.544,41.344 C98.6346671,41.6906684 98.775999,42.0026653 98.968,42.28 C99.160001,42.5573347 99.4053318,42.7813325 99.704,42.952 C100.002668,43.1226675 100.354665,43.208 100.76,43.208 Z M106.456,36.152 L108.168,36.152 L108.168,37.752 L108.2,37.752 C108.253334,37.5279989 108.357333,37.3093344 108.512,37.096 C108.666667,36.8826656 108.853332,36.6880009 109.072,36.512 C109.290668,36.3359991 109.533332,36.1946672 109.8,36.088 C110.066668,35.9813328 110.338665,35.928 110.616,35.928 C110.829334,35.928 110.976,35.9333333 111.056,35.944 C111.136,35.9546667 111.218666,35.9653333 111.304,35.976 L111.304,37.736 C111.175999,37.7146666 111.045334,37.6960001 110.912,37.68 C110.778666,37.6639999 110.648001,37.656 110.52,37.656 C110.210665,37.656 109.920001,37.7173327 109.648,37.84 C109.375999,37.9626673 109.138668,38.1439988 108.936,38.384 C108.733332,38.6240012 108.573334,38.9199982 108.456,39.272 C108.338666,39.6240018 108.28,40.029331 108.28,40.488 L108.28,44.424 L106.456,44.424 L106.456,36.152 Z M111.256,36.152 L112.632,36.152 L112.632,33.672 L114.456,33.672 L114.456,36.152 L116.104,36.152 L116.104,37.512 L114.456,37.512 L114.456,41.928 C114.456,42.120001 114.464,42.2853326 114.48,42.424 C114.496,42.5626674 114.533333,42.6799995 114.592,42.776 C114.650667,42.8720005 114.738666,42.9439998 114.856,42.992 C114.973334,43.0400002 115.133332,43.064 115.336,43.064 C115.464001,43.064 115.591999,43.0613334 115.72,43.056 C115.848001,43.0506666 115.975999,43.0320002 116.104,43 L116.104,44.408 C115.901332,44.4293334 115.704001,44.4506666 115.512,44.472 C115.319999,44.4933334 115.122668,44.504 114.92,44.504 C114.439998,44.504 114.053335,44.4586671 113.76,44.368 C113.466665,44.2773329 113.237334,44.1440009 113.072,43.968 C112.906666,43.7919991 112.794667,43.570668 112.736,43.304 C112.677333,43.037332 112.642667,42.733335 112.632,42.392 L112.632,37.512 L111.256,37.512 L111.256,36.152 Z M122.12,33 L127.16,33 C127.970671,33 128.631997,33.1173322 129.144,33.352 C129.656003,33.5866678 130.050665,33.8799982 130.328,34.232 C130.605335,34.5840018 130.794666,34.9679979 130.896,35.384 C130.997334,35.8000021 131.048,36.1839982 131.048,36.536 C131.048,36.8880018 130.997334,37.2693313 130.896,37.68 C130.794666,38.0906687 130.605335,38.4719982 130.328,38.824 C130.050665,39.1760018 129.656003,39.4666655 129.144,39.696 C128.631997,39.9253345 127.970671,40.04 127.16,40.04 L124.12,40.04 L124.12,44.424 L122.12,44.424 L122.12,33 Z M124.12,38.408 L127.048,38.408 C127.272001,38.408 127.501332,38.3760003 127.736,38.312 C127.970668,38.2479997 128.186666,38.1440007 128.384,38 C128.581334,37.8559993 128.741333,37.6640012 128.864,37.424 C128.986667,37.1839988 129.048,36.8826685 129.048,36.52 C129.048,36.1466648 128.994667,35.8373346 128.888,35.592 C128.781333,35.3466654 128.637334,35.1520007 128.456,35.008 C128.274666,34.8639993 128.066668,34.7653336 127.832,34.712 C127.597332,34.6586664 127.346668,34.632 127.08,34.632 L124.12,34.632 L124.12,38.408 Z M132.536,36.152 L134.248,36.152 L134.248,37.752 L134.28,37.752 C134.333334,37.5279989 134.437333,37.3093344 134.592,37.096 C134.746667,36.8826656 134.933332,36.6880009 135.152,36.512 C135.370668,36.3359991 135.613332,36.1946672 135.88,36.088 C136.146668,35.9813328 136.418665,35.928 136.696,35.928 C136.909334,35.928 137.056,35.9333333 137.136,35.944 C137.216,35.9546667 137.298666,35.9653333 137.384,35.976 L137.384,37.736 C137.255999,37.7146666 137.125334,37.6960001 136.992,37.68 C136.858666,37.6639999 136.728001,37.656 136.6,37.656 C136.290665,37.656 136.000001,37.7173327 135.728,37.84 C135.455999,37.9626673 135.218668,38.1439988 135.016,38.384 C134.813332,38.6240012 134.653334,38.9199982 134.536,39.272 C134.418666,39.6240018 134.36,40.029331 134.36,40.488 L134.36,44.424 L132.536,44.424 L132.536,36.152 Z M141.672,44.648 C141.010663,44.648 140.421336,44.5386678 139.904,44.32 C139.386664,44.1013322 138.949335,43.8000019 138.592,43.416 C138.234665,43.0319981 137.962668,42.573336 137.776,42.04 C137.589332,41.506664 137.496,40.9200032 137.496,40.28 C137.496,39.6506635 137.589332,39.069336 137.776,38.536 C137.962668,38.002664 138.234665,37.5440019 138.592,37.16 C138.949335,36.7759981 139.386664,36.4746678 139.904,36.256 C140.421336,36.0373322 141.010663,35.928 141.672,35.928 C142.333337,35.928 142.922664,36.0373322 143.44,36.256 C143.957336,36.4746678 144.394665,36.7759981 144.752,37.16 C145.109335,37.5440019 145.381332,38.002664 145.568,38.536 C145.754668,39.069336 145.848,39.6506635 145.848,40.28 C145.848,40.9200032 145.754668,41.506664 145.568,42.04 C145.381332,42.573336 145.109335,43.0319981 144.752,43.416 C144.394665,43.8000019 143.957336,44.1013322 143.44,44.32 C142.922664,44.5386678 142.333337,44.648 141.672,44.648 Z M141.672,43.208 C142.077335,43.208 142.429332,43.1226675 142.728,42.952 C143.026668,42.7813325 143.271999,42.5573347 143.464,42.28 C143.656001,42.0026653 143.797333,41.6906684 143.888,41.344 C143.978667,40.9973316 144.024,40.6426685 144.024,40.28 C144.024,39.9279982 143.978667,39.5760018 143.888,39.224 C143.797333,38.8719982 143.656001,38.5600014 143.464,38.288 C143.271999,38.0159986 143.026668,37.7946675 142.728,37.624 C142.429332,37.4533325 142.077335,37.368 141.672,37.368 C141.266665,37.368 140.914668,37.4533325 140.616,37.624 C140.317332,37.7946675 140.072001,38.0159986 139.88,38.288 C139.687999,38.5600014 139.546667,38.8719982 139.456,39.224 C139.365333,39.5760018 139.32,39.9279982 139.32,40.28 C139.32,40.6426685 139.365333,40.9973316 139.456,41.344 C139.546667,41.6906684 139.687999,42.0026653 139.88,42.28 C140.072001,42.5573347 140.317332,42.7813325 140.616,42.952 C140.914668,43.1226675 141.266665,43.208 141.672,43.208 Z M149.592,40.072 L146.728,36.152 L148.936,36.152 L150.664,38.696 L152.472,36.152 L154.584,36.152 L151.768,39.976 L154.936,44.424 L152.744,44.424 L150.648,41.368 L148.616,44.424 L146.472,44.424 L149.592,40.072 Z M155.048,36.152 L157.048,36.152 L159.208,42.328 L159.24,42.328 L161.336,36.152 L163.24,36.152 L160.024,44.872 C159.874666,45.2453352 159.728001,45.602665 159.584,45.944 C159.439999,46.285335 159.264001,46.5866654 159.056,46.848 C158.847999,47.1093346 158.589335,47.3173326 158.28,47.472 C157.970665,47.6266674 157.576002,47.704 157.096,47.704 C156.669331,47.704 156.248002,47.6720003 155.832,47.608 L155.832,46.072 C155.981334,46.0933334 156.125333,46.1173332 156.264,46.144 C156.402667,46.1706668 156.546666,46.184 156.696,46.184 C156.909334,46.184 157.085333,46.1573336 157.224,46.104 C157.362667,46.0506664 157.477333,45.9733338 157.568,45.872 C157.658667,45.7706662 157.736,45.6506674 157.8,45.512 C157.864,45.3733326 157.922666,45.2133342 157.976,45.032 L158.184,44.392 L155.048,36.152 Z" id="Teleport-Proxy" fill="#4A4A4A"></path>
            </g>
        </g>
    </g>
</svg>