<svg xmlns="http://www.w3.org/2000/svg" xmlns:xlink="http://www.w3.org/1999/xlink" xmlns:lucid="lucid" width="920" height="483"><g transform="translate(-1309 -320)" lucid:page-tab-id="0_0"><path d="M940 575c0-4.4 3.58-8 8-8h334.97c4.42 0 8 3.6 8 8v184c0 4.43-3.58 8-8 8H948c-4.42 0-8-3.57-8-8z" stroke="#000" stroke-opacity=".12" stroke-width="2" fill="#fff"/><path d="M940 353.8c0-4.43 3.58-8 8-8h334.97c4.42 0 8 3.57 8 8v184c0 4.4-3.58 8-8 8H948c-4.42 0-8-3.6-8-8z" stroke="#000" stroke-opacity=".12" stroke-width="2" fill="#2c62e2"/><path d="M1559.85 460c0-2.22 1.8-4 4-4h212c2.2 0 4 1.78 4 4V681.2c0 2.2-1.8 4-4 4h-212c-2.2 0-4-1.8-4-4z" stroke="#000" stroke-opacity="0" stroke-width="2" fill="url(#a)"/><path d="M1559.85 516h100v20h-100z" stroke="#000" stroke-opacity="0" stroke-width="2" fill="#fff" fill-opacity="0"/><use xlink:href="#b" transform="matrix(1,0,0,1,1564.8526420547764,520.9895067448847) translate(14.634944444444443 8.992666666666667)"/><path d="M1559.85 460c0-2.22 1.8-4 4-4h212c2.2 0 4 1.78 4 4v42c0 2.2-1.8 4-4 4h-212c-2.2 0-4-1.8-4-4z" stroke="#fff" stroke-opacity=".3" stroke-width="1.5" fill="#fff" fill-opacity="0"/><path d="M1609.2 460.5c0-2.2 1.8-4 4-4h162.65c2.2 0 4 1.8 4 4v42c0 2.2-1.8 4-4 4H1613.2c-2.2 0-4-1.8-4-4z" stroke="#000" stroke-opacity="0" stroke-width="2" fill="#fff" fill-opacity="0"/><use xlink:href="#c" transform="matrix(1,0,0,1,1614.2054087956399,461.5014068633204) translate(34.65400000000001 26.776)"/><path d="M1579.85 610c0-2.22 1.8-4 4-4h174.12c2.2 0 4 1.78 4 4v42c0 2.2-1.8 4-4 4h-174.12c-2.2 0-4-1.8-4-4z" stroke="#fff" stroke-opacity=".3" stroke-width="1.5" fill="#fff" fill-opacity="0"/><path d="M1619.85 606h152.65v50h-152.65z" stroke="#000" stroke-opacity="0" stroke-width="2" fill-opacity="0"/><use xlink:href="#d" transform="matrix(1,0,0,1,1624.8526420547842,610.9895067448847) translate(29.996555555555553 25.572666666666667)"/><use xlink:href="#e" transform="matrix(1,0,0,1,1624.8526420547842,610.9895067448847) translate(81.45577777777777 25.572666666666667)"/><path d="M1634.6 486.53c.22.16.3.44.2.7-.6 1.92-1.7 3.74-3 5.28-.2.23-.46.3-.7.2l-3.8-1.34c-.97.77-2.02 1.37-3.16 1.85l-.75 4c-.07.24-.28.5-.55.53-1 .2-1.98.28-3 .28s-2-.08-3-.27c-.27-.04-.48-.3-.54-.52l-.74-4c-1.14-.47-2.22-1.07-3.15-1.84l-3.8 1.34c-.24.1-.5.03-.7-.2-1.3-1.53-2.4-3.35-3-5.27-.1-.26-.02-.54.2-.7l3.02-2.66c-.12-.58-.15-1.22-.15-1.86 0-.6.03-1.23.15-1.84l-3.03-2.66c-.22-.16-.3-.45-.2-.7.6-1.92 1.7-3.75 3-5.25.2-.22.46-.32.7-.2l3.8 1.35c.94-.8 2.02-1.4 3.16-1.85l.75-4c.07-.26.28-.52.55-.52 1.98-.4 4.02-.4 6 0 .27 0 .48.26.54.52l.74 4c1.14.44 2.2 1.05 3.15 1.85l3.8-1.34c.24-.13.5-.03.7.2 1.3 1.5 2.4 3.32 3 5.24.1.25.02.54-.2.7l-3.02 2.66c.12.6.15 1.25.15 1.85 0 .65-.03 1.3-.15 1.87l3.03 2.66zm-14.72 5.8c5.64 0 10.23-4.62 10.23-10.32 0-5.68-4.58-10.3-10.22-10.3-5.67 0-10.23 4.62-10.23 10.3 0 5.7 4.56 10.32 10.23 10.32zm0-1.3c-4.95 0-8.94-4.02-8.94-9.02 0-4.98 4-9 8.94-9 4.92 0 8.94 4.02 8.94 9 0 5-4.02 9.04-8.94 9.04zm-5-13.24v2.52h3.74v6.33h2.9v-6.33h3.76v-2.53h-10.4z" stroke="#000" stroke-opacity="0" fill="#fff"/><path d="M1622.6 619c1.23 0 2.25 1 2.25 2.25v19.48c0 1.25-1.02 2.26-2.25 2.26h-25.5c-1.23 0-2.25-1.02-2.25-2.27v-19.48c0-1.25 1.02-2.26 2.25-2.26h25.5zm0 1.5h-25.5c-.42 0-.75.34-.75.75v19.48c0 .44.33.77.75.77h25.5c.42 0 .75-.33.75-.77v-19.48c0-.4-.33-.75-.75-.75zm-22.08 3.12l4.5 3c.2.15.33.36.33.63 0 .24-.12.48-.33.62l-4.5 3c-.1.05-.2.1-.3.12h-.12c-.24 0-.48-.13-.63-.35-.2-.33-.12-.8.2-1.03l3.58-2.37-3.57-2.38c-.33-.24-.42-.7-.2-1.06.23-.32.68-.42 1.04-.18zm11.58 5.88c.42 0 .75.34.75.75 0 .4-.33.74-.75.74h-4.5c-.42 0-.75-.35-.75-.75s.33-.75.75-.75h4.5z" stroke="#000" stroke-opacity="0" fill="#fff" fill-opacity=".3"/><path d="M1739.85 526c0 1.58-1.38 2.88-3.1 2.88-1.7 0-3.07-1.3-3.07-2.9 0-1.58 1.38-2.88 3.08-2.88 1.7 0 3.1 1.3 3.1 2.9zM1751.56 526c0 1.58-1.38 2.88-3.1 2.88-1.7 0-3.08-1.3-3.08-2.9 0-1.58 1.38-2.88 3.1-2.88 1.7 0 3.08 1.3 3.08 2.9z" stroke="#fff" stroke-opacity="0" stroke-width="2" fill="#fff" fill-opacity=".3"/><path d="M1763.26 526c0 1.58-1.38 2.88-3.08 2.88-1.7 0-3.1-1.3-3.1-2.9 0-1.58 1.4-2.88 3.1-2.88 1.7 0 3.08 1.3 3.08 2.9z" stroke="#fff" stroke-opacity="0" stroke-width="2" fill="#fff"/><path d="M1579.85 543.1c0-2.22 1.8-4 4-4h72c2.2 0 4 1.78 4 4v37.5c0 2.2-1.8 4-4 4h-72c-2.2 0-4-1.8-4-4z" stroke="#fff" stroke-opacity=".3" stroke-width="1.5" fill-opacity="0"/><path d="M1592.62 554.27c0-1.1.9-2 2-2h20.47c1.1 0 2 .9 2 2v6.7c0 1.1-.9 2-2 2h-20.48c-1.1 0-2-.9-2-2z" stroke="#fff" stroke-opacity="0" stroke-width="1.5" fill="#fff" fill-opacity=".3"/><path d="M1622.62 561.93c0-.66.53-1.2 1.2-1.2h22.07c.65 0 1.2.54 1.2 1.2 0 .67-.55 1.2-1.2 1.2h-22.08c-.67 0-1.2-.53-1.2-1.2zM1622.62 570.22c0-.66.53-1.2 1.2-1.2h16.95c.66 0 1.2.54 1.2 1.2 0 .66-.54 1.2-1.2 1.2h-16.95c-.67 0-1.2-.54-1.2-1.2zM1592.62 570.22c0-.66.53-1.2 1.2-1.2h22.07c.65 0 1.2.54 1.2 1.2 0 .66-.55 1.2-1.2 1.2h-22.08c-.67 0-1.2-.54-1.2-1.2zM1622.62 553.65c0-.67.53-1.2 1.2-1.2h22.07c.65 0 1.2.53 1.2 1.2 0 .66-.55 1.2-1.2 1.2h-22.08c-.67 0-1.2-.54-1.2-1.2z" stroke="#fff" stroke-opacity="0" stroke-width="2" fill="#fff" fill-opacity=".3"/><path d="M1681.97 543.1c0-2.22 1.8-4 4-4h72c2.2 0 4 1.78 4 4v37.5c0 2.2-1.8 4-4 4h-72c-2.2 0-4-1.8-4-4z" stroke="#fff" stroke-opacity=".3" stroke-width="1.5" fill-opacity="0"/><path d="M1694.73 554.27c0-1.1.9-2 2-2h21.53c1.1 0 2 .9 2 2v6.7c0 1.1-.9 2-2 2h-21.53c-1.1 0-2-.9-2-2z" stroke="#fff" stroke-opacity="0" stroke-width="1.5" fill="#fff" fill-opacity=".3"/><path d="M1724.73 561.93c0-.66.54-1.2 1.2-1.2H1748c.67 0 1.2.54 1.2 1.2 0 .67-.53 1.2-1.2 1.2h-22.06c-.67 0-1.2-.53-1.2-1.2zM1724.73 570.22c0-.66.54-1.2 1.2-1.2h16.96c.65 0 1.2.54 1.2 1.2 0 .66-.55 1.2-1.2 1.2h-16.96c-.67 0-1.2-.54-1.2-1.2zM1694.73 570.22c0-.66.54-1.2 1.2-1.2H1718c.67 0 1.2.54 1.2 1.2 0 .66-.53 1.2-1.2 1.2h-22.06c-.67 0-1.2-.54-1.2-1.2zM1724.73 553.65c0-.67.54-1.2 1.2-1.2H1748c.67 0 1.2.53 1.2 1.2 0 .66-.53 1.2-1.2 1.2h-22.06c-.67 0-1.2-.54-1.2-1.2z" stroke="#fff" stroke-opacity="0" stroke-width="2" fill="#fff" fill-opacity=".3"/><path d="M1360 493h120v60h-120z" stroke="#000" stroke-opacity="0" stroke-width="2" fill="#fff" fill-opacity="0"/><use xlink:href="#f" transform="matrix(1,0,0,1,1365,498.01361586559085) translate(36.26222222222222 17.546666666666667)"/><path d="M1360 535.4c0-2.2 1.8-4 4-4h112c2.2 0 4 1.8 4 4v70.07c0 2.2-1.8 4-4 4h-112c-2.2 0-4-1.8-4-4z" stroke="#999" stroke-opacity=".4" stroke-width="2" fill="#fff" filter="url(#g)"/><path d="M1427.56 574.23c3.68 0 6.83.5 9.4 1.5 2.13.84 3.83 2 5.1 3.45 2.17 2.58 2.17 5.16 2.17 5.26 0 1.88-1.6 3.4-3.6 3.4h-26.16c-1.94 0-3.54-1.52-3.54-3.4v-.07c0-.42.14-2.82 2.18-5.2 1.27-1.45 2.97-2.6 5.05-3.44 2.57-1 5.72-1.5 9.4-1.5zm-19.2 1.5c.48 0 .92.03 1.36.03.68.04 1.2.63 1.16 1.3 0 .66-.63 1.18-1.3 1.14-.4-.03-.78-.03-1.22-.03-9.8 0-10.08 5.75-10.08 6.06 0 .66.58 1.2 1.26 1.2h7.56c.73 0 1.26.54 1.26 1.2 0 .67-.53 1.22-1.26 1.22h-7.56c-2.1 0-3.78-1.63-3.78-3.62v-.07c0-.38.14-2.37 1.7-4.32.9-1.22 2.22-2.16 3.82-2.86 1.94-.83 4.32-1.25 7.08-1.25zm19.2.77c-5.87 0-10.18 1.4-12.5 4-1.7 1.92-1.76 3.87-1.76 3.94 0 .63.54 1.15 1.17 1.15h26.17c.68 0 1.22-.53 1.22-1.16 0-.07-.1-2.02-1.75-3.94-2.32-2.6-6.68-4-12.54-4zm-19.7-15.93c4.18 0 7.58 3.07 7.58 6.83 0 3.77-3.4 6.83-7.57 6.83-4.16 0-7.56-3.06-7.56-6.83 0-3.76 3.4-6.83 7.57-6.83zm0 2.3c-2.75 0-5.03 2.02-5.03 4.53 0 2.5 2.28 4.53 5.04 4.53 2.77 0 5.05-2.02 5.05-4.53 0-2.5-2.28-4.53-5.05-4.53zm18.97-9.86c5.43 0 9.84 4.1 9.84 9.1 0 5.02-4.4 9.1-9.84 9.1-5.43 0-9.84-4.08-9.84-9.1 0-5 4.4-9.1 9.83-9.1zm0 2.28c-4.07 0-7.42 3.06-7.42 6.83s3.36 6.84 7.43 6.84 7.37-3.07 7.37-6.83c0-3.76-3.3-6.82-7.37-6.82z" stroke="#000" stroke-opacity="0" fill="#8e24aa"/><path d="M1505.1 575.95h34.13" stroke="#7f34aa" stroke-width="2" fill="none"/><path d="M1489.84 575.95l14.27-4.63v9.27zM1554.5 575.95l-14.27 4.64v-9.28z" stroke="#7f34aa" stroke-width="2" fill="#7f34aa"/><path d="M1841.96 368c0-4.42 3.58-8 8-8h334.97c4.4 0 8 3.58 8 8v184c0 4.42-3.6 8-8 8h-334.97c-4.42 0-8-3.58-8-8z" stroke="#000" stroke-opacity=".12" stroke-width="2" fill="#2c62e2"/><path d="M1899.5 365h240v42.1h-240z" stroke="#000" stroke-opacity="0" stroke-width="2" fill="#2c62e2"/><use xlink:href="#h" transform="matrix(1,0,0,1,1904.5145750527445,369.9999999999999) translate(16.69750000000002 23.9535)"/><use xlink:href="#i" transform="matrix(1,0,0,1,1904.5145750527445,369.9999999999999) translate(56.504500000000014 23.9535)"/><use xlink:href="#j" transform="matrix(1,0,0,1,1904.5145750527445,369.9999999999999) translate(154.3165 23.9535)"/><path d="M1858.5 414.3c0-2.2 1.8-4 4-4H2176c2.2 0 4 1.8 4 4v128.23c0 2.2-1.8 4-4 4h-313.5c-2.2 0-4-1.8-4-4z" stroke="#fff" stroke-opacity=".3" stroke-width="1.5" fill-opacity="0"/><path d="M1875.12 463.18c0-2.2 1.8-4 4-4h72.26c2.2 0 4 1.8 4 4v70.07c0 2.2-1.8 4-4 4h-72.26c-2.2 0-4-1.8-4-4z" stroke="#fff" stroke-opacity=".3" stroke-width="1.5" fill="#fff"/><use xlink:href="#k" transform="matrix(1,0,0,1,1880.117341792826,464.1806258091782) translate(35.5 38.62916666666667)"/><path d="M1981.46 463.18c0-2.2 1.8-4 4-4h72.26c2.2 0 4 1.8 4 4v70.07c0 2.2-1.8 4-4 4h-72.26c-2.2 0-4-1.8-4-4z" stroke="#fff" stroke-opacity=".3" stroke-width="1.5" fill-opacity="0"/><use xlink:href="#k" transform="matrix(1,0,0,1,1986.455745293268,464.1806258090618) translate(35.5 38.62916666666667)"/><path d="M2087.8 462.67c0-2.2 1.8-4 4-4h72.26c2.2 0 4 1.8 4 4v70.06c0 2.2-1.8 4-4 4h-72.27c-2.2 0-4-1.8-4-4z" stroke="#fff" stroke-opacity=".3" stroke-width="1.5" fill-opacity="0"/><use xlink:href="#k" transform="matrix(1,0,0,1,2092.7941487937105,463.66872569074246) translate(35.5 38.62916666666667)"/><path d="M1975.18 420c.2 0 .46.02.67.14l8.45 4.06c.42.2.75.56.9 1l2.08 9.08c.08.47-.05.94-.3 1.34l-5.87 7.25c-.28.42-.77.63-1.25.6h-9.3c-.48-.06-.94-.27-1.28-.6l-5.84-7.25c-.3-.4-.38-.87-.3-1.34l2.07-9.12c.1-.47.4-.82.82-1.03l8.45-4.08c.22-.05.46-.05.7-.05zm-.42 3.2c-.1.13-.17.27-.17.4v.13c0 .12.02.2.07.33.02.04.02.1.02.16v.03c.04.28.04.58.04.9-.02.08-.05.17-.15.22v.05l-.03.2c-.3.06-.6.1-.92.15-1.28.28-2.47.94-3.36 1.88l-.18-.1h-.03c-.03 0-.06.03-.1.03-.08 0-.13-.03-.18-.05-.24-.2-.5-.4-.67-.63-.05-.05-.1-.07-.12-.1-.08-.1-.15-.16-.22-.26l-.06-.04-.03-.03c-.1-.07-.26-.14-.38-.14-.17 0-.3.07-.38.2-.17.25-.12.55.1.74.04 0 .04.05.04.05s.05.05.07.05l.3.16.16.07c.28.16.57.33.8.54.04.05.06.12.06.2l.17.17-.07.16c-.85 1.3-1.2 2.88-.97 4.4l-.23.05c0 .04-.02.04-.02.04-.03.1-.12.14-.2.18-.3.1-.6.14-.92.17h-.17c-.12 0-.2.03-.33.03-.03 0-.05.05-.1.05l-.07.02c-.27.05-.46.3-.44.54v.07c.07.25.32.4.56.4.05 0 .07 0 .14-.03.03 0 .03 0 .03-.03 0-.02.07 0 .1 0 .1-.02.2-.1.3-.1.06-.04.1-.06.15-.06h.05c.3-.12.56-.2.9-.24h.02c.07 0 .17.03.22.07v.04l.26-.03c.4 1.26 1.18 2.36 2.25 3.16.25.2.47.35.73.5l-.12.18c0 .02.04.02.04.02.05.1.05.2.02.28-.12.26-.26.52-.43.78v.02l-.12.14c-.04.05-.1.17-.2.26 0 .02 0 .05-.04.1 0 0 0 .02-.02.02-.15.25-.03.58.22.72.05.03.14.05.2.05.2 0 .4-.14.5-.33 0 0 0-.02.05-.02 0-.02.03-.05.06-.07.02-.1.07-.18.1-.3l.07-.16c.07-.28.2-.56.33-.82.08-.1.15-.14.22-.17.03 0 .03 0 .03-.02l.13-.23c.77.3 1.55.44 2.37.44.5 0 1-.07 1.48-.2.3-.06.6-.15.87-.24l.12.18c.02 0 .02 0 .02.05.07.02.16.07.2.14.16.28.28.54.38.85v.02l.04.16c.03.12.05.2.1.3.05.03.05.06.07.08 0 0 0 .02.02.02.1.2.3.33.5.33.1 0 .15-.02.22-.05.12-.07.22-.16.25-.3.03-.14.03-.26-.04-.4 0-.02-.02-.02-.02-.02 0-.03-.03-.07-.05-.1-.06-.1-.13-.2-.2-.26-.03-.04-.05-.1-.1-.14v-.04c-.2-.26-.34-.52-.46-.78-.03-.1-.03-.18.05-.28v-.02l-.1-.2c1.42-.86 2.48-2.15 2.97-3.67l.22.02v-.03c.08-.05.16-.1.23-.1h.05c.3.07.58.14.87.26h.02c.05.03.1.05.17.05.1.05.17.12.3.14.02 0 .04.02.1.02.04 0 .04 0 .06.03.05.02.07.02.12.02.27 0 .5-.17.56-.4-.02-.27-.24-.5-.48-.55-.03 0-.08 0-.08-.02 0-.03-.05-.03-.1-.03-.07-.02-.14-.02-.2-.02h-.13c-.06 0-.1 0-.16-.05h-.05c-.3-.02-.64-.07-.93-.14-.07-.03-.12-.1-.17-.15l-.02-.04-.22-.06c.12-.78.05-1.58-.1-2.37-.2-.78-.53-1.53-.96-2.2l.17-.15v-.05c0-.07.02-.18.07-.23.24-.2.5-.38.77-.54.06-.02.1-.05.18-.07.1-.07.2-.12.3-.16.02-.03.04-.03.07-.05.04-.05 0-.05 0-.07.26-.2.3-.52.12-.75-.08-.1-.24-.2-.4-.2-.1 0-.26.06-.38.15l-.03.02c-.03.03-.05.05-.07.05-.1.1-.17.17-.22.26-.03.05-.1.07-.12.1-.2.2-.44.44-.68.58-.05.05-.1.07-.17.07-.02 0-.06 0-.1-.02l-.23.12-.7-.63c-1-.78-2.25-1.28-3.54-1.42l-.02-.2c-.1-.03-.1-.13-.14-.2 0-.3 0-.58.05-.9v-.03c0-.05.04-.12.04-.17.02-.12.02-.2.07-.33v-.16c.03-.27-.2-.55-.48-.57-.14-.03-.3.07-.46.18zm.56 11.53c.07.05.12.12.22.2l1.3 2.33c-.16.03-.33.05-.53.1-.35.1-.74.14-1.15.14-.58 0-1.18-.12-1.72-.26l1.33-2.4c.15-.16.37-.23.56-.1zm-2.5-1.15c.23 0 .44.12.47.35 0 .07 0 .2-.04.26l-1.04 2.45c-.94-.6-1.72-1.54-2.1-2.62l2.7-.45zm4.63-.05l2.74.47c-.16.38-.33.73-.54 1.04-.42.63-.97 1.2-1.65 1.6l-1.06-2.52c-.04-.23.08-.45.27-.52.08-.02.16-.07.25-.07zm-1.9-2.13l.52.63-.2.8-.72.33-.75-.33-.17-.8.5-.63h.83zm4.13-1.92c.3.5.53 1.03.65 1.6.15.55.17 1.12.12 1.68l-2.6-.73c-.23-.04-.37-.28-.33-.54.03-.08.05-.12.13-.2l2.03-1.82zm-9.1 0l2.03 1.78c.2.16.23.42.06.6-.05.1-.1.13-.22.15l-2.64.76c-.1-1.13.2-2.28.78-3.28zm3.9-2.47l-.15 2.7c0 .25-.22.43-.46.43-.1 0-.15-.02-.22-.04l-2.28-1.6c.7-.7 1.6-1.16 2.55-1.37l.55-.12zm1.3.04c1.2.14 2.28.65 3.08 1.45l-2.23 1.54c-.2.12-.46.1-.6-.1-.05-.04-.08-.1-.08-.18l-.17-2.72z" stroke="#000" stroke-opacity="0" fill="#fff" fill-opacity=".3"/><path d="M1980.08 421.02h100v20h-100z" stroke="#000" stroke-opacity="0" stroke-width="2" fill="#fff" fill-opacity="0"/><use xlink:href="#l" transform="matrix(1,0,0,1,1985.0823512102943,426.02380023687147) translate(9.087499999999999 11.186)"/><path d="M1875.12 491.06h80.26v21.44h-80.26z" stroke="#000" stroke-opacity="0" stroke-width="2" fill="#fff" fill-opacity="0"/><use xlink:href="#m" transform="matrix(1,0,0,1,1880.117341792826,496.05907066484497) translate(14.179166666666667 11.186)"/><use xlink:href="#n" transform="matrix(1,0,0,1,1880.117341792826,496.05907066484497) translate(5.571499999999997 24.786)"/><use xlink:href="#o" transform="matrix(1,0,0,1,1880.117341792826,496.05907066484497) translate(34.63016666666667 24.786)"/><path d="M1997 488.2h49.16v20H1997z" stroke="#000" stroke-opacity="0" stroke-width="2" fill="#fff" fill-opacity="0"/><use xlink:href="#p" transform="matrix(1,0,0,1,2002.0145750527736,493.2133710842818) translate(10.091833333333332 11.186)"/><path d="M2103.35 487.7h49.15v20h-49.15z" stroke="#000" stroke-opacity="0" stroke-width="2" fill="#fff" fill-opacity="0"/><use xlink:href="#p" transform="matrix(1,0,0,1,2108.3529785532155,492.70147096584606) translate(10.091833333333332 11.186)"/><path d="M1926.4 481.76c.17.12.23.33.14.52-.44 1.42-1.24 2.78-2.22 3.92-.13.16-.33.2-.5.14l-2.84-1c-.7.57-1.48 1.02-2.33 1.38l-.56 2.96c-.05.17-.2.36-.4.38-.74.14-1.47.2-2.23.2s-1.5-.06-2.22-.2c-.2-.02-.36-.2-.4-.38l-.56-2.96c-.85-.36-1.65-.8-2.34-1.38l-2.83 1c-.18.07-.38.02-.5-.14-1-1.14-1.8-2.5-2.23-3.92-.1-.2-.02-.4.13-.52l2.25-1.97c-.1-.44-.1-.9-.1-1.38 0-.45 0-.93.1-1.38l-2.25-1.97c-.15-.12-.22-.33-.13-.52.44-1.42 1.24-2.78 2.22-3.9.13-.16.33-.23.5-.13l2.84 1c.7-.6 1.5-1.05 2.33-1.38l.55-2.97c.04-.2.2-.38.4-.38 1.46-.3 2.98-.3 4.44 0 .2 0 .35.18.4.37l.55 2.97c.85.33 1.62.78 2.33 1.37l2.83-.98c.2-.1.4-.03.52.14.98 1.1 1.78 2.47 2.22 3.9.1.18.03.4-.13.5l-2.24 1.98c.1.45.12.93.12 1.38 0 .47-.03.94-.12 1.37l2.25 1.96zm-10.9 4.3c4.17 0 7.57-3.42 7.57-7.64 0-4.23-3.4-7.64-7.58-7.64-4.2 0-7.6 3.4-7.6 7.64 0 4.22 3.4 7.63 7.6 7.63zm0-.96c-3.68 0-6.63-2.98-6.63-6.68 0-3.7 2.95-6.7 6.62-6.7 3.64 0 6.62 3 6.62 6.7s-2.98 6.68-6.63 6.68zm-3.72-9.8v1.86h2.78v4.7h2.16v-4.7h2.78v-1.87h-7.72z" stroke="#000" stroke-opacity="0" fill="#2c62e2"/><path d="M1798.35 513.77h11.58V460h11.57" stroke="#7f34aa" stroke-width="2" fill="none"/><path d="M1783.1 513.77l14.25-4.63v9.27zM1836.76 460l-14.26 4.64v-9.28z" stroke="#7f34aa" stroke-width="2" fill="#7f34aa"/><path d="M1841.96 580.84c0-4.42 3.58-8 8-8h334.97c4.4 0 8 3.58 8 8v184c0 4.42-3.6 8-8 8h-334.97c-4.42 0-8-3.58-8-8z" stroke="#000" stroke-opacity=".12" stroke-width="2" fill="#2c62e2"/><path d="M1899.5 577.84h240v42.1h-240z" stroke="#000" stroke-opacity="0" stroke-width="2" fill="#2c62e2"/><use xlink:href="#q" transform="matrix(1,0,0,1,1904.5145750527445,582.840540677134) translate(18.601000000000013 23.9535)"/><use xlink:href="#i" transform="matrix(1,0,0,1,1904.5145750527445,582.840540677134) translate(54.601000000000006 23.9535)"/><use xlink:href="#j" transform="matrix(1,0,0,1,1904.5145750527445,582.840540677134) translate(152.413 23.9535)"/><path d="M1858.5 627.14c0-2.2 1.8-4 4-4H2176c2.2 0 4 1.8 4 4v128.23c0 2.2-1.8 4-4 4h-313.5c-2.2 0-4-1.8-4-4z" stroke="#fff" stroke-opacity=".3" stroke-width="1.5" fill-opacity="0"/><path d="M1875.12 676.02c0-2.2 1.8-4 4-4h72.26c2.2 0 4 1.8 4 4v70.07c0 2.2-1.8 4-4 4h-72.26c-2.2 0-4-1.8-4-4z" stroke="#fff" stroke-opacity=".3" stroke-width="1.5" fill="#fff"/><use xlink:href="#k" transform="matrix(1,0,0,1,1880.117341792826,677.0211664863123) translate(35.5 38.62916666666667)"/><path d="M1981.46 676.02c0-2.2 1.8-4 4-4h72.26c2.2 0 4 1.8 4 4v70.07c0 2.2-1.8 4-4 4h-72.26c-2.2 0-4-1.8-4-4z" stroke="#fff" stroke-opacity=".3" stroke-width="1.5" fill-opacity="0"/><use xlink:href="#k" transform="matrix(1,0,0,1,1986.455745293268,677.0211664861959) translate(35.5 38.62916666666667)"/><path d="M2087.8 675.5c0-2.2 1.8-4 4-4h72.26c2.2 0 4 1.8 4 4v70.07c0 2.2-1.8 4-4 4h-72.27c-2.2 0-4-1.8-4-4z" stroke="#fff" stroke-opacity=".3" stroke-width="1.5" fill-opacity="0"/><use xlink:href="#k" transform="matrix(1,0,0,1,2092.7941487937105,676.5092663678765) translate(35.5 38.62916666666667)"/><path d="M1975.18 632.84c.2 0 .46.02.67.14l8.45 4.06c.42.2.75.56.9 1l2.08 9.1c.08.45-.05.92-.3 1.32l-5.87 7.25c-.28.43-.77.64-1.25.6h-9.3c-.48-.05-.94-.26-1.28-.6l-5.84-7.24c-.3-.4-.38-.87-.3-1.33l2.07-9.13c.1-.47.4-.82.82-1.03l8.45-4.08c.22-.06.46-.06.7-.06zm-.42 3.2c-.1.13-.17.27-.17.4v.13c0 .12.02.2.07.33.02.05.02.1.02.16v.03c.04.27.04.57.04.9-.02.07-.05.17-.15.2v.06l-.03.2c-.3.06-.6.1-.92.15-1.28.3-2.47.95-3.36 1.9l-.18-.1h-.03l-.1.02c-.08 0-.13-.03-.18-.05-.24-.2-.5-.4-.67-.63-.05-.05-.1-.07-.12-.1-.08-.1-.15-.16-.22-.26l-.06-.04-.03-.03c-.1-.06-.26-.13-.38-.13-.17 0-.3.07-.38.2-.17.25-.12.55.1.74.04 0 .04.06.04.06s.05.05.07.05c.08.05.2.1.3.17l.16.07c.28.16.57.33.8.54.04.05.06.12.06.2l.17.18-.07.14c-.85 1.3-1.2 2.88-.97 4.4l-.23.05c0 .03-.02.03-.02.03-.03.1-.12.14-.2.18-.3.1-.6.14-.92.17-.07 0-.12 0-.17.02l-.33.02c-.03 0-.05.05-.1.05-.03 0-.03 0-.07.03-.27.04-.46.28-.44.53v.07c.07.24.32.4.56.38l.14-.02c.03 0 .03 0 .03-.02s.07 0 .1 0c.1-.02.2-.1.3-.1.06-.04.1-.06.15-.06h.05c.3-.12.56-.2.9-.24h.02c.07 0 .17.03.22.07v.03l.26-.03c.4 1.25 1.18 2.35 2.25 3.15.25.2.47.35.73.5l-.12.18c0 .02.04.02.04.02.05.1.05.2.02.28-.12.26-.26.52-.43.78v.02l-.12.14c-.04.05-.1.17-.2.26 0 .02 0 .05-.04.1 0 0 0 .02-.02.02-.15.25-.03.58.22.72.05.03.14.05.2.05.2 0 .4-.14.5-.33 0 0 0-.02.05-.02 0-.02.03-.05.06-.07.02-.12.07-.2.1-.3l.07-.17c.07-.28.2-.56.33-.82.08-.1.15-.14.22-.17.03 0 .03 0 .03-.03l.13-.23c.77.3 1.55.44 2.37.44.5 0 1-.07 1.48-.2.3-.06.6-.15.87-.24l.12.18c.02 0 .02 0 .02.05.07.02.16.07.2.14.16.3.28.55.38.86v.02l.04.16c.03.12.05.2.1.3.05.03.05.06.07.08 0 0 0 .02.02.02.1.2.3.33.5.33.1 0 .15-.02.22-.05.12-.07.22-.16.25-.3.03-.14.03-.26-.04-.4 0-.02-.02-.02-.02-.02 0-.03-.03-.07-.05-.1-.06-.1-.13-.18-.2-.26-.03-.04-.05-.1-.1-.14v-.04c-.2-.26-.34-.52-.46-.78-.03-.1-.03-.18.05-.28v-.02l-.1-.2c1.42-.86 2.48-2.15 2.97-3.67l.22.03V647c.08-.04.16-.1.23-.1h.05c.3.08.58.15.87.27h.02c.05.03.1.05.17.05.1.05.17.12.3.14.02 0 .04.02.1.02.04 0 .04 0 .06.03.05.03.07.03.12.03.27 0 .5-.16.56-.38-.02-.28-.24-.5-.48-.56-.03 0-.08 0-.08-.03 0-.02-.05-.02-.1-.02-.07-.03-.14-.03-.2-.03h-.13c-.06 0-.1 0-.16-.05h-.05c-.3-.02-.64-.07-.93-.14-.07-.02-.12-.1-.17-.14l-.02-.05-.22-.07c.12-.78.05-1.58-.1-2.37-.2-.77-.53-1.52-.96-2.2l.17-.14v-.05c0-.06.02-.17.07-.22.24-.2.5-.38.77-.54.06-.02.1-.05.18-.07.1-.07.2-.12.3-.16l.07-.04c.04-.05 0-.05 0-.07.26-.2.3-.53.12-.76-.08-.1-.24-.2-.4-.2-.1 0-.26.06-.38.15h-.03c-.03.04-.05.06-.07.06-.1.1-.17.17-.22.26-.03.05-.1.07-.12.1-.2.2-.44.44-.68.58-.05.05-.1.07-.17.07-.02 0-.06 0-.1-.02l-.23.1c-.22-.2-.48-.4-.7-.62-1-.77-2.25-1.27-3.54-1.4l-.02-.22v.04c-.1-.05-.1-.15-.14-.22 0-.3 0-.58.05-.9v-.03c0-.06.04-.13.04-.18.02-.12.02-.2.07-.33v-.17c.03-.26-.2-.54-.48-.56-.14-.03-.3.07-.46.18zm.56 11.53c.07.05.12.12.22.2l1.3 2.33c-.16.03-.33.05-.53.1-.35.1-.74.14-1.15.14-.58 0-1.18-.12-1.72-.26l1.33-2.4c.15-.16.37-.23.56-.1zm-2.5-1.15c.23 0 .44.12.47.35 0 .07 0 .2-.04.26l-1.04 2.46c-.94-.62-1.72-1.55-2.1-2.63l2.7-.45zm4.63-.05l2.74.47c-.16.38-.33.73-.54 1.04-.42.63-.97 1.2-1.65 1.6l-1.06-2.52c-.04-.23.08-.44.27-.5.08-.04.16-.1.25-.1zm-1.9-2.13l.52.63-.2.8-.72.33-.75-.33-.17-.8.5-.63h.83zm4.13-1.92c.3.5.53 1.03.65 1.6.15.55.17 1.12.12 1.68l-2.6-.73c-.23-.04-.37-.28-.33-.54.03-.07.05-.1.13-.18l2.03-1.83zm-9.1 0l2.03 1.78c.2.16.23.42.06.6-.05.1-.1.13-.22.15l-2.64.75c-.1-1.13.2-2.27.78-3.28zm3.9-2.47l-.15 2.7c0 .24-.22.42-.46.42-.1 0-.15-.02-.22-.04l-2.28-1.6c.7-.68 1.6-1.15 2.55-1.36l.55-.12zm1.3.03c1.2.14 2.28.65 3.08 1.45l-2.23 1.55c-.2.12-.46.1-.6-.1-.05-.04-.08-.1-.08-.18l-.17-2.72z" stroke="#000" stroke-opacity="0" fill="#fff" fill-opacity=".3"/><path d="M1980.08 633.86h100v20h-100z" stroke="#000" stroke-opacity="0" stroke-width="2" fill="#fff" fill-opacity="0"/><use xlink:href="#l" transform="matrix(1,0,0,1,1985.0823512102943,638.8643409140055) translate(9.087499999999999 11.186)"/><path d="M1875.12 709.76h80.26v33.8h-80.26z" stroke="#000" stroke-opacity="0" stroke-width="2" fill="#fff" fill-opacity="0"/><use xlink:href="#m" transform="matrix(1,0,0,1,1880.117341792826,714.7558021932718) translate(14.179166666666667 11.186)"/><use xlink:href="#r" transform="matrix(1,0,0,1,1880.117341792826,714.7558021932718) translate(5.571499999999997 24.786)"/><use xlink:href="#s" transform="matrix(1,0,0,1,1880.117341792826,714.7558021932718) translate(34.63016666666667 24.786)"/><path d="M1997 701.05h49.16v20H1997z" stroke="#000" stroke-opacity="0" stroke-width="2" fill="#fff" fill-opacity="0"/><g><use xlink:href="#p" transform="matrix(1,0,0,1,2002.0145750527736,706.0539117614159) translate(10.091833333333332 11.186)"/></g><path d="M2103.35 700.54h49.15v20h-49.15z" stroke="#000" stroke-opacity="0" stroke-width="2" fill="#fff" fill-opacity="0"/><g><use xlink:href="#p" transform="matrix(1,0,0,1,2108.3529785532155,705.5420116429801) translate(10.091833333333332 11.186)"/></g><path d="M1926.4 694.6c.17.12.23.33.14.52-.44 1.43-1.24 2.78-2.22 3.92-.13.16-.33.2-.5.14l-2.84-1c-.7.57-1.48 1.02-2.33 1.38l-.56 2.96c-.05.17-.2.36-.4.38-.74.14-1.47.22-2.23.22s-1.5-.08-2.22-.22c-.2-.02-.36-.2-.4-.38l-.56-2.96c-.85-.36-1.65-.8-2.34-1.38l-2.83 1c-.18.07-.38.02-.5-.14-1-1.14-1.8-2.5-2.23-3.92-.1-.2-.02-.4.13-.52l2.25-1.97c-.1-.42-.1-.9-.1-1.37 0-.45 0-.93.1-1.38l-2.25-1.97c-.15-.1-.22-.32-.13-.5.44-1.43 1.24-2.78 2.22-3.9.13-.17.33-.24.5-.14l2.84 1c.7-.6 1.5-1.05 2.33-1.38l.55-2.97c.04-.18.2-.37.4-.37 1.46-.3 2.98-.3 4.44 0 .2 0 .35.2.4.38l.55 2.98c.85.33 1.62.78 2.33 1.37l2.83-1c.2-.1.4-.02.52.15.98 1.12 1.78 2.47 2.22 3.9.1.18.03.4-.13.5l-2.24 1.98c.1.45.12.93.12 1.38 0 .47-.03.95-.12 1.37l2.25 1.97zm-10.9 4.3c4.17 0 7.57-3.42 7.57-7.64 0-4.23-3.4-7.64-7.58-7.64-4.2 0-7.6 3.4-7.6 7.64 0 4.22 3.4 7.63 7.6 7.63zm0-.96c-3.68 0-6.63-2.98-6.63-6.68 0-3.7 2.95-6.7 6.62-6.7 3.64 0 6.62 3 6.62 6.7s-2.98 6.68-6.63 6.68zm-3.72-9.8V690h2.78v4.7h2.16V690h2.78v-1.87h-7.72z" stroke="#000" stroke-opacity="0" fill="#2c62e2"/><path d="M1805.87 591.36h7.8V640h7.83" stroke="#7f34aa" stroke-width="2" fill="none"/><path d="M1790.6 591.36l14.27-4.64V596zM1836.76 640l-14.26 4.64v-9.28z" stroke="#7f34aa" stroke-width="2" fill="#7f34aa"/><defs><linearGradient gradientUnits="userSpaceOnUse" id="a" x1="1779.85" y1="455.99" x2="1613.37" y2="685.22"><stop offset="0%" stop-color="#354aaa"/><stop offset="0%" stop-color="#651fff"/><stop offset="100%" stop-color="#4c00f0"/></linearGradient><path fill="#fff" fill-opacity=".6" d="M1284-209C1170-69 1008 19 759 16c-347-4-553-182-649-442-66-178-66-423 6-596 108-261 330-435 688-440 220-3 375 79 488 188l-90 125c-16 32-68 39-102 12-71-55-162-101-298-96-304 11-465 201-465 510 0 241 101 401 267 477 125 58 330 39 424-24 42-17 97-111 150-54" id="t"/><path fill="#fff" fill-opacity=".6" d="M1058-1446v214H417v401h505v207H417v409h641V0H146v-1446h912" id="u"/><path fill="#fff" fill-opacity=".6" d="M1153-1030c0 232-137 352-319 413 34 19 63 47 88 83L1284 0h-242c-51 0-80-22-101-54L637-517c-24-34-42-48-98-48H424V0H155v-1446h441c324 4 557 105 557 416zm-263 20c0-163-114-229-294-228H424v480h168c180-3 298-77 298-252" id="v"/><path fill="#fff" fill-opacity=".6" d="M1165-1446v221H730V0H461v-1225H24v-221h1141" id="w"/><path fill="#fff" fill-opacity=".6" d="M449 0H179v-1446h270V0" id="x"/><path fill="#fff" fill-opacity=".6" d="M1058-1446v214H417v428h541v215H417V0H146v-1446h912" id="y"/><path fill="#fff" fill-opacity=".6" d="M1417 0h-208c-47 1-77-28-90-61l-108-295H412L304-61c-11 30-46 61-89 61H6l568-1446h275zM481-546h461c-77-218-163-424-231-651-66 230-154 432-230 651" id="z"/><path fill="#fff" fill-opacity=".6" d="M519-204c146 0 246-70 241-211-6-175-195-185-333-232-183-63-339-153-333-400 5-199 120-319 272-380 126-51 311-44 437 5 72 27 133 64 184 112l-66 127c-15 40-64 51-105 25-64-41-136-87-246-85-132 3-224 54-224 182 0 167 202 176 334 227 173 67 333 144 333 381 0 227-120 364-289 433-138 56-353 39-478-16-80-35-154-80-210-138l78-129c23-34 74-43 115-13 73 54 157 112 290 112" id="A"/><g id="b"><use transform="matrix(0.004555555555555556,0,0,0.004555555555555556,0,0)" xlink:href="#t"/><use transform="matrix(0.004555555555555556,0,0,0.004555555555555556,6.109,0)" xlink:href="#u"/><use transform="matrix(0.004555555555555556,0,0,0.004555555555555556,11.325111111111111,0)" xlink:href="#v"/><use transform="matrix(0.004555555555555556,0,0,0.004555555555555556,17.037777777777777,0)" xlink:href="#w"/><use transform="matrix(0.004555555555555556,0,0,0.004555555555555556,22.458888888888886,0)" xlink:href="#x"/><use transform="matrix(0.004555555555555556,0,0,0.004555555555555556,25.319777777777773,0)" xlink:href="#y"/><use transform="matrix(0.004555555555555556,0,0,0.004555555555555556,30.435666666666663,0)" xlink:href="#x"/><use transform="matrix(0.004555555555555556,0,0,0.004555555555555556,33.29655555555555,0)" xlink:href="#t"/><use transform="matrix(0.004555555555555556,0,0,0.004555555555555556,39.40555555555555,0)" xlink:href="#z"/><use transform="matrix(0.004555555555555556,0,0,0.004555555555555556,45.20477777777778,0)" xlink:href="#w"/><use transform="matrix(0.004555555555555556,0,0,0.004555555555555556,50.62588888888889,0)" xlink:href="#u"/><use transform="matrix(0.004555555555555556,0,0,0.004555555555555556,55.842000000000006,0)" xlink:href="#A"/></g><path fill="#fff" d="M594-693v133H385V0H229v-560H20v-133h574" id="B"/><path fill="#fff" d="M80 0v-693h468v131H236v136h277v128H236v167h335V0H80" id="C"/><path fill="#fff" d="M543-134V0H80v-693h156v559h307" id="D"/><path fill="#fff" d="M80-683c58-12 143-18 208-18 190 0 321 53 321 233 0 198-160 242-373 236V0H80v-683zm368 214c0-104-112-104-212-96v200c112 0 212 3 212-104" id="E"/><path fill="#fff" d="M395-572c-128 0-184 94-184 225s55 224 184 224c128 0 184-93 184-224s-55-225-184-225zm0-137c221 0 345 136 345 362 0 227-122 361-345 361C174 14 50-121 50-347c0-224 126-362 345-362" id="F"/><path fill="#fff" d="M80-683c59-12 137-18 203-18 187 1 322 54 322 228 0 106-52 157-130 190 65 83 124 182 172 283H472c-49-87-99-179-159-253h-77V0H80v-683zm364 209c1-96-110-98-208-91v188c111-1 207 3 208-97" id="G"/><g id="c"><use transform="matrix(0.018,0,0,0.018,0,0)" xlink:href="#B"/><use transform="matrix(0.018,0,0,0.018,11.052,0)" xlink:href="#C"/><use transform="matrix(0.018,0,0,0.018,21.96,0)" xlink:href="#D"/><use transform="matrix(0.018,0,0,0.018,32.094,0)" xlink:href="#C"/><use transform="matrix(0.018,0,0,0.018,43.002,0)" xlink:href="#E"/><use transform="matrix(0.018,0,0,0.018,54.594,0)" xlink:href="#F"/><use transform="matrix(0.018,0,0,0.018,68.814,0)" xlink:href="#G"/><use transform="matrix(0.018,0,0,0.018,80.64,0)" xlink:href="#B"/></g><path fill="#fff" fill-opacity=".6" d="M398-581c6 222 109 364 330 364 220 0 331-140 331-363v-866h269v866c-5 286-141 466-350 552-142 59-358 59-500 0-210-86-349-266-349-552v-866h269v865" id="H"/><path fill="#fff" fill-opacity=".6" d="M1377-1015c71 172 71 412 0 584C1271-174 1052 0 698 0H146v-1446h552c353 6 574 175 679 431zM698-214c307-9 457-198 457-509s-150-500-457-509H417v1018h281" id="I"/><g id="d"><use transform="matrix(0.00788888888888889,0,0,0.00788888888888889,0,0)" xlink:href="#z"/><use transform="matrix(0.00788888888888889,0,0,0.00788888888888889,10.792000000000002,0)" xlink:href="#H"/><use transform="matrix(0.00788888888888889,0,0,0.00788888888888889,22.278222222222226,0)" xlink:href="#I"/><use transform="matrix(0.00788888888888889,0,0,0.00788888888888889,34.07211111111111,0)" xlink:href="#x"/><use transform="matrix(0.00788888888888889,0,0,0.00788888888888889,39.02633333333333,0)" xlink:href="#w"/></g><path fill="#fff" fill-opacity=".6" d="M415-222h579V0H146v-1446h269v1224" id="J"/><path fill="#fff" fill-opacity=".6" d="M1480-1018c71 176 71 414 0 590-106 261-323 444-679 444S225-168 120-428c-71-176-71-414 0-590 106-261 324-444 681-444 355 0 573 184 679 444zM801-214c307 0 456-198 456-509s-149-510-456-510c-308 0-459 198-459 510s152 509 459 509" id="K"/><path fill="#fff" fill-opacity=".6" d="M1341-140C1204-38 1028 20 789 16c-350-5-566-186-673-442-73-175-71-420-1-596 107-266 333-435 699-440 235-2 404 78 526 189l-78 122c-45 78-131 10-176-17-110-67-334-90-474-29-171 74-275 233-275 474 0 251 105 414 283 489 144 62 360 37 477-26v-263H916c-88 2-46-125-56-202h481v585" id="L"/><g id="e"><use transform="matrix(0.00788888888888889,0,0,0.00788888888888889,0,0)" xlink:href="#J"/><use transform="matrix(0.00788888888888889,0,0,0.00788888888888889,7.526000000000001,0)" xlink:href="#K"/><use transform="matrix(0.00788888888888889,0,0,0.00788888888888889,20.140333333333334,0)" xlink:href="#L"/></g><path fill="#333" d="M398-581c6 222 109 364 330 364 220 0 331-140 331-363v-866h269v866c-5 286-141 466-350 552-142 59-358 59-500 0-210-86-349-266-349-552v-866h269v865" id="M"/><path fill="#333" d="M254-198c95 60 334 64 323-83-9-119-156-122-253-159C192-490 72-550 72-729c0-214 163-309 387-313 145-3 264 55 338 127-26 36-45 82-77 111-69 21-111-33-176-48-103-23-247 0-238 102 11 114 156 118 251 155 126 49 251 100 251 270C808-59 575 48 294 6 192-9 106-54 42-110c28-39 43-95 83-120 49-31 96 11 129 32" id="N"/><path fill="#333" d="M991-153C899-47 760 15 568 15 237 15 63-197 63-535c0-237 116-392 287-467 61-27 129-40 206-40 287 0 444 174 444 465 0 54-3 95-57 95H309c4 226 158 349 385 292 52-13 93-39 132-62 32-19 73-16 93 9zM778-631c-4-143-73-234-217-234-154 0-226 95-247 234h464" id="O"/><path fill="#333" d="M604-806c-122 5-180 74-225 167V0H132v-1026c83 11 206-35 218 62l15 124c63-106 147-205 295-205 51 0 93 12 126 35l-32 185c-4 23-15 33-40 33-33 0-65-16-110-14" id="P"/><g id="f"><use transform="matrix(0.008888888888888889,0,0,0.008888888888888889,0,0)" xlink:href="#M"/><use transform="matrix(0.008888888888888889,0,0,0.008888888888888889,12.942222222222222,0)" xlink:href="#N"/><use transform="matrix(0.008888888888888889,0,0,0.008888888888888889,20.711111111111112,0)" xlink:href="#O"/><use transform="matrix(0.008888888888888889,0,0,0.008888888888888889,30.213333333333335,0)" xlink:href="#P"/></g><filter id="g" filterUnits="objectBoundingBox" x="-.11" y="-.12" width="1.25" height="1.38"><feOffset result="offOut" in="SourceAlpha" dx="2.05" dy="5.64"/><feGaussianBlur result="blurOut" in="offOut" stdDeviation="7.5"/><feColorMatrix result="colorOut" in="blurOut" values="0 0 0 0 0 0 0 0 0 0 0 0 0 0 0 0 0 0 0.14901960784313725 0"/><feBlend in="SourceGraphic" in2="colorOut"/></filter><path fill="#fff" d="M1341-140C1204-38 1028 20 789 16c-350-5-566-186-673-442-73-175-71-420-1-596 107-266 333-435 699-440 235-2 404 78 526 189l-78 122c-45 78-131 10-176-17-110-67-334-90-474-29-171 74-275 233-275 474 0 251 105 414 283 489 144 62 360 37 477-26v-263H916c-88 2-46-125-56-202h481v585" id="Q"/><path fill="#fff" d="M1284-209C1170-69 1008 19 759 16c-347-4-553-182-649-442-66-178-66-423 6-596 108-261 330-435 688-440 220-3 375 79 488 188l-90 125c-16 32-68 39-102 12-71-55-162-101-298-96-304 11-465 201-465 510 0 241 101 401 267 477 125 58 330 39 424-24 42-17 97-111 150-54" id="R"/><path fill="#fff" d="M1187-985c0 329-222 471-561 476H424V0H155v-1446h471c337 4 561 134 561 461zm-269 0c0-176-112-253-292-253H424v519h202c184-1 292-85 292-266" id="S"/><g id="h"><use transform="matrix(0.009,0,0,0.009,0,0)" xlink:href="#Q"/><use transform="matrix(0.009,0,0,0.009,13.014,0)" xlink:href="#R"/><use transform="matrix(0.009,0,0,0.009,25.083,0)" xlink:href="#S"/></g><path fill="#fff" d="M424-840c74 2 135-1 169-44l399-505c32-39 58-57 122-57h232L859-845c-28 33-52 59-89 78 50 19 80 49 111 90L1383 0h-238c-63 0-84-18-111-53L625-587c-28-35-53-49-116-49h-85V0H155v-1447h269v607" id="T"/><path fill="#fff" d="M457 16c-234 0-346-155-346-390v-652h247v652c0 121 55 198 174 197 102-1 168-51 226-107v-742h247V0c-80-9-199 29-214-45l-17-82C697-50 608 16 457 16" id="U"/><path fill="#fff" d="M638 15c-134 0-208-58-269-132-10 52-5 117-71 117H135v-1486h247v586c77-79 169-142 318-142 277 0 379 230 379 521 0 241-97 412-259 495-54 27-115 41-182 41zm186-536c0-181-37-329-209-329-117 0-175 55-233 124v460c48 61 104 93 199 93 187 0 243-152 243-348" id="V"/><path fill="#fff" d="M991-153C899-47 760 15 568 15 237 15 63-197 63-535c0-237 116-392 287-467 61-27 129-40 206-40 287 0 444 174 444 465 0 54-3 95-57 95H309c4 226 158 349 385 292 52-13 93-39 132-62 32-19 73-16 93 9zM778-631c-4-143-73-234-217-234-154 0-226 95-247 234h464" id="W"/><path fill="#fff" d="M604-806c-122 5-180 74-225 167V0H132v-1026c83 11 206-35 218 62l15 124c63-106 147-205 295-205 51 0 93 12 126 35l-32 185c-4 23-15 33-40 33-33 0-65-16-110-14" id="X"/><path fill="#fff" d="M605-850c-102 1-168 52-226 108V0H132v-1026c80 9 198-29 214 45l17 81c77-76 165-142 317-142 235 0 346 154 346 389V0H779v-653c0-121-55-198-174-197" id="Y"/><path fill="#fff" d="M738-75c-64 55-158 90-269 91-176 2-277-109-277-284v-573c-65-4-153 21-153-52v-98l165-27 52-280c10-66 115-35 183-42v323h270v176H439v556c-1 59 32 101 88 102 48 1 68-25 104-34 19 1 25 9 33 22" id="Z"/><path fill="#fff" d="M254-198c95 60 334 64 323-83-9-119-156-122-253-159C192-490 72-550 72-729c0-214 163-309 387-313 145-3 264 55 338 127-26 36-45 82-77 111-69 21-111-33-176-48-103-23-247 0-238 102 11 114 156 118 251 155 126 49 251 100 251 270C808-59 575 48 294 6 192-9 106-54 42-110c28-39 43-95 83-120 49-31 96 11 129 32" id="aa"/><g id="i"><use transform="matrix(0.009,0,0,0.009,0,0)" xlink:href="#T"/><use transform="matrix(0.009,0,0,0.009,12.563999999999998,0)" xlink:href="#U"/><use transform="matrix(0.009,0,0,0.009,22.796999999999997,0)" xlink:href="#V"/><use transform="matrix(0.009,0,0,0.009,33.056999999999995,0)" xlink:href="#W"/><use transform="matrix(0.009,0,0,0.009,42.678,0)" xlink:href="#X"/><use transform="matrix(0.009,0,0,0.009,50.031,0)" xlink:href="#Y"/><use transform="matrix(0.009,0,0,0.009,60.263999999999996,0)" xlink:href="#W"/><use transform="matrix(0.009,0,0,0.009,69.88499999999999,0)" xlink:href="#Z"/><use transform="matrix(0.009,0,0,0.009,76.85099999999998,0)" xlink:href="#W"/><use transform="matrix(0.009,0,0,0.009,86.47199999999998,0)" xlink:href="#aa"/></g><path fill="#fff" d="M395-1486V0H148v-1486h247" id="ab"/><g id="j"><use transform="matrix(0.009,0,0,0.009,0,0)" xlink:href="#R"/><use transform="matrix(0.009,0,0,0.009,12.068999999999999,0)" xlink:href="#ab"/><use transform="matrix(0.009,0,0,0.009,16.947,0)" xlink:href="#U"/><use transform="matrix(0.009,0,0,0.009,27.18,0)" xlink:href="#aa"/><use transform="matrix(0.009,0,0,0.009,35.046,0)" xlink:href="#Z"/><use transform="matrix(0.009,0,0,0.009,42.01199999999999,0)" xlink:href="#W"/><use transform="matrix(0.009,0,0,0.009,51.632999999999996,0)" xlink:href="#X"/></g><path fill="#fff" fill-opacity=".6" d="M424-840c74 2 135-1 169-44l399-505c32-39 58-57 122-57h232L859-845c-28 33-52 59-89 78 50 19 80 49 111 90L1383 0h-238c-63 0-84-18-111-53L625-587c-28-35-53-49-116-49h-85V0H155v-1447h269v607" id="ac"/><path fill="#fff" fill-opacity=".6" d="M1177-1061c0 181-116 262-257 314 199 45 298 152 298 322C1218-130 997 0 692 0H146v-1446h499c307 3 532 89 532 385zM952-431c0-152-108-202-265-203H415v424h273c163-1 264-65 264-221zm-43-598c0-163-94-209-264-209H415v418h215c168-1 279-50 279-209" id="ad"/><path fill="#fff" fill-opacity=".6" d="M377-1009c4 38 6 82 6 121V0H146v-1446c71 6 174-24 211 20 269 320 519 661 779 990-5-42-7-87-7-131v-879h237V0c-64-4-144 10-192-10-14-6-28-19-41-36" id="ae"/><g id="l"><use transform="matrix(0.005666666666666667,0,0,0.005666666666666667,0,0)" xlink:href="#ac"/><use transform="matrix(0.005666666666666667,0,0,0.005666666666666667,7.910666666666668,0)" xlink:href="#H"/><use transform="matrix(0.005666666666666667,0,0,0.005666666666666667,16.161333333333335,0)" xlink:href="#ad"/><use transform="matrix(0.005666666666666667,0,0,0.005666666666666667,23.545,0)" xlink:href="#u"/><use transform="matrix(0.005666666666666667,0,0,0.005666666666666667,30.033333333333335,0)" xlink:href="#v"/><use transform="matrix(0.005666666666666667,0,0,0.005666666666666667,37.45666666666667,0)" xlink:href="#ae"/><use transform="matrix(0.005666666666666667,0,0,0.005666666666666667,46.024666666666675,0)" xlink:href="#u"/><use transform="matrix(0.005666666666666667,0,0,0.005666666666666667,52.51300000000001,0)" xlink:href="#w"/><use transform="matrix(0.005666666666666667,0,0,0.005666666666666667,59.256333333333345,0)" xlink:href="#u"/><use transform="matrix(0.005666666666666667,0,0,0.005666666666666667,65.74466666666667,0)" xlink:href="#A"/></g><path fill="#2c62e2" d="M1165-1446v221H730V0H461v-1225H24v-221h1141" id="af"/><path fill="#2c62e2" d="M991-153C899-47 760 15 568 15 237 15 63-197 63-535c0-237 116-392 287-467 61-27 129-40 206-40 287 0 444 174 444 465 0 54-3 95-57 95H309c4 226 158 349 385 292 52-13 93-39 132-62 32-19 73-16 93 9zM778-631c-4-143-73-234-217-234-154 0-226 95-247 234h464" id="ag"/><path fill="#2c62e2" d="M395-1486V0H148v-1486h247" id="ah"/><path fill="#2c62e2" d="M635 15C514 15 442-25 379-85v420H132v-1361c64 5 145-11 192 11 33 24 28 86 42 129 78-86 174-159 331-159 277 0 379 232 379 524 0 241-96 412-258 495-54 27-116 41-183 41zm186-536c0-181-37-329-209-329-117 0-175 55-233 124v460c48 60 104 93 198 93 188 0 244-152 244-348" id="ai"/><path fill="#2c62e2" d="M361-1005c121-49 297-49 417 0 184 74 298 236 298 490 0 330-178 530-506 530C241 15 61-185 61-515c0-254 115-416 300-490zm-45 492c0 201 65 338 254 338 188 0 251-137 251-338s-63-340-251-340c-189 0-254 139-254 340" id="aj"/><path fill="#2c62e2" d="M604-806c-122 5-180 74-225 167V0H132v-1026c83 11 206-35 218 62l15 124c63-106 147-205 295-205 51 0 93 12 126 35l-32 185c-4 23-15 33-40 33-33 0-65-16-110-14" id="ak"/><path fill="#2c62e2" d="M738-75c-64 55-158 90-269 91-176 2-277-109-277-284v-573c-65-4-153 21-153-52v-98l165-27 52-280c10-66 115-35 183-42v323h270v176H439v556c-1 59 32 101 88 102 48 1 68-25 104-34 19 1 25 9 33 22" id="al"/><g id="m"><use transform="matrix(0.005666666666666667,0,0,0.005666666666666667,0,0)" xlink:href="#af"/><use transform="matrix(0.005666666666666667,0,0,0.005666666666666667,5.5873333333333335,0)" xlink:href="#ag"/><use transform="matrix(0.005666666666666667,0,0,0.005666666666666667,11.645000000000001,0)" xlink:href="#ah"/><use transform="matrix(0.005666666666666667,0,0,0.005666666666666667,14.716333333333331,0)" xlink:href="#ag"/><use transform="matrix(0.005666666666666667,0,0,0.005666666666666667,20.774,0)" xlink:href="#ai"/><use transform="matrix(0.005666666666666667,0,0,0.005666666666666667,27.183000000000003,0)" xlink:href="#aj"/><use transform="matrix(0.005666666666666667,0,0,0.005666666666666667,33.626,0)" xlink:href="#ak"/><use transform="matrix(0.005666666666666667,0,0,0.005666666666666667,38.25566666666666,0)" xlink:href="#al"/></g><path fill="#2c62e2" d="M424-840c74 2 135-1 169-44l399-505c32-39 58-57 122-57h232L859-845c-28 33-52 59-89 78 50 19 80 49 111 90L1383 0h-238c-63 0-84-18-111-53L625-587c-28-35-53-49-116-49h-85V0H155v-1447h269v607" id="am"/><path fill="#2c62e2" d="M457 16c-234 0-346-155-346-390v-652h247v652c0 121 55 198 174 197 102-1 168-51 226-107v-742h247V0c-80-9-199 29-214-45l-17-82C697-50 608 16 457 16" id="an"/><path fill="#2c62e2" d="M638 15c-134 0-208-58-269-132-10 52-5 117-71 117H135v-1486h247v586c77-79 169-142 318-142 277 0 379 230 379 521 0 241-97 412-259 495-54 27-115 41-182 41zm186-536c0-181-37-329-209-329-117 0-175 55-233 124v460c48 61 104 93 199 93 187 0 243-152 243-348" id="ao"/><g id="n"><use transform="matrix(0.005666666666666667,0,0,0.005666666666666667,0,0)" xlink:href="#am"/><use transform="matrix(0.005666666666666667,0,0,0.005666666666666667,7.910666666666668,0)" xlink:href="#an"/><use transform="matrix(0.005666666666666667,0,0,0.005666666666666667,14.35366666666667,0)" xlink:href="#ao"/><use transform="matrix(0.005666666666666667,0,0,0.005666666666666667,20.81366666666667,0)" xlink:href="#ag"/></g><path fill="#2c62e2" d="M1417 0h-208c-47 1-77-28-90-61l-108-295H412L304-61c-11 30-46 61-89 61H6l568-1446h275zM481-546h461c-77-218-163-424-231-651-66 230-154 432-230 651" id="ap"/><path fill="#2c62e2" d="M247-436C153-487 80-575 80-712c0-228 174-332 407-332 92 0 169 20 230 53h295c-4 63 19 133-53 146l-92 17c30 74 25 184-9 254-72 146-265 223-484 183-51 27-68 81-20 111 145 54 395 5 528 91 60 38 108 95 104 193-8 182-136 275-286 326-172 59-444 28-556-52C83 234 32 179 32 90c0-112 77-164 166-199-49-28-87-70-84-147 4-94 65-143 133-180zm247 621c132 0 252-20 264-139-10-98-129-93-228-102-63-6-132-5-191-13-47 27-93 62-93 127 0 112 123 127 248 127zM305-706c0 111 68 168 182 168s182-56 182-168c0-107-68-165-182-165s-182 58-182 165" id="aq"/><path fill="#2c62e2" d="M605-850c-102 1-168 52-226 108V0H132v-1026c80 9 198-29 214 45l17 81c77-76 165-142 317-142 235 0 346 154 346 389V0H779v-653c0-121-55-198-174-197" id="ar"/><g id="o"><use transform="matrix(0.005666666666666667,0,0,0.005666666666666667,0,0)" xlink:href="#ap"/><use transform="matrix(0.005666666666666667,0,0,0.005666666666666667,8.046666666666667,0)" xlink:href="#aq"/><use transform="matrix(0.005666666666666667,0,0,0.005666666666666667,13.911666666666667,0)" xlink:href="#ag"/><use transform="matrix(0.005666666666666667,0,0,0.005666666666666667,19.969333333333335,0)" xlink:href="#ar"/><use transform="matrix(0.005666666666666667,0,0,0.005666666666666667,26.412333333333336,0)" xlink:href="#al"/></g><path fill="#fff" fill-opacity=".6" d="M1187-985c0 329-222 471-561 476H424V0H155v-1446h471c337 4 561 134 561 461zm-269 0c0-176-112-253-292-253H424v519h202c184-1 292-85 292-266" id="as"/><path fill="#fff" fill-opacity=".6" d="M361-1005c121-49 297-49 417 0 184 74 298 236 298 490 0 330-178 530-506 530C241 15 61-185 61-515c0-254 115-416 300-490zm-45 492c0 201 65 338 254 338 188 0 251-137 251-338s-63-340-251-340c-189 0-254 139-254 340" id="at"/><path fill="#fff" fill-opacity=".6" d="M502-1045c120-1 193 43 256 101v-542h247V0c-80-9-199 29-214-45l-20-99C693-58 601 15 441 15 163 15 61-217 61-510c0-241 98-411 259-494 54-27 115-41 182-41zM316-510c0 181 36 329 209 329 118 0 173-54 233-123v-460c-48-59-104-93-198-93-188 0-244 151-244 347" id="au"/><g id="p"><use transform="matrix(0.005666666666666667,0,0,0.005666666666666667,0,0)" xlink:href="#as"/><use transform="matrix(0.005666666666666667,0,0,0.005666666666666667,6.913333333333334,0)" xlink:href="#at"/><use transform="matrix(0.005666666666666667,0,0,0.005666666666666667,13.356333333333334,0)" xlink:href="#au"/></g><path fill="#fff" d="M1058-1446v214H417v401h505v207H417v409h641V0H146v-1446h912" id="av"/><path fill="#fff" d="M519-204c146 0 246-70 241-211-6-175-195-185-333-232-183-63-339-153-333-400 5-199 120-319 272-380 126-51 311-44 437 5 72 27 133 64 184 112l-66 127c-15 40-64 51-105 25-64-41-136-87-246-85-132 3-224 54-224 182 0 167 202 176 334 227 173 67 333 144 333 381 0 227-120 364-289 433-138 56-353 39-478-16-80-35-154-80-210-138l78-129c23-34 74-43 115-13 73 54 157 112 290 112" id="aw"/><g id="q"><use transform="matrix(0.009,0,0,0.009,0,0)" xlink:href="#av"/><use transform="matrix(0.009,0,0,0.009,10.305,0)" xlink:href="#T"/><use transform="matrix(0.009,0,0,0.009,22.869,0)" xlink:href="#aw"/></g><g id="r"><use transform="matrix(0.005666666666666667,0,0,0.005666666666666667,0,0)" xlink:href="#am"/><use transform="matrix(0.005666666666666667,0,0,0.005666666666666667,7.910666666666668,0)" xlink:href="#an"/><use transform="matrix(0.005666666666666667,0,0,0.005666666666666667,14.35366666666667,0)" xlink:href="#ao"/><use transform="matrix(0.005666666666666667,0,0,0.005666666666666667,20.81366666666667,0)" xlink:href="#ag"/></g><g id="s"><use transform="matrix(0.005666666666666667,0,0,0.005666666666666667,0,0)" xlink:href="#ap"/><use transform="matrix(0.005666666666666667,0,0,0.005666666666666667,8.046666666666667,0)" xlink:href="#aq"/><use transform="matrix(0.005666666666666667,0,0,0.005666666666666667,13.911666666666667,0)" xlink:href="#ag"/><use transform="matrix(0.005666666666666667,0,0,0.005666666666666667,19.969333333333335,0)" xlink:href="#ar"/><use transform="matrix(0.005666666666666667,0,0,0.005666666666666667,26.412333333333336,0)" xlink:href="#al"/></g></defs></g></svg>