<?xml version="1.0" encoding="UTF-8"?>
<svg width="509px" height="384px" viewBox="0 0 509 384" version="1.1" xmlns="http://www.w3.org/2000/svg" xmlns:xlink="http://www.w3.org/1999/xlink">
    <!-- Generator: Sketch 59 (86127) - https://sketch.com -->
    <title>Node Lookup</title>
    <desc>Created with Sketch.</desc>
    <defs>
        <rect id="path-1" x="192" y="2" width="254" height="127" rx="10"></rect>
        <filter x="-2.8%" y="-3.9%" width="105.5%" height="111.0%" filterUnits="objectBoundingBox" id="filter-2">
            <feOffset dx="0" dy="2" in="SourceAlpha" result="shadowOffsetOuter1"></feOffset>
            <feGaussianBlur stdDeviation="2" in="shadowOffsetOuter1" result="shadowBlurOuter1"></feGaussianBlur>
            <feColorMatrix values="0 0 0 0 0   0 0 0 0 0   0 0 0 0 0  0 0 0 0.5 0" type="matrix" in="shadowBlurOuter1"></feColorMatrix>
        </filter>
        <filter x="-8.2%" y="-12.0%" width="116.3%" height="140.0%" filterUnits="objectBoundingBox" id="filter-3">
            <feOffset dx="0" dy="1" in="SourceAlpha" result="shadowOffsetOuter1"></feOffset>
            <feGaussianBlur stdDeviation="0.5" in="shadowOffsetOuter1" result="shadowBlurOuter1"></feGaussianBlur>
            <feColorMatrix values="0 0 0 0 0   0 0 0 0 0   0 0 0 0 0  0 0 0 0.5 0" type="matrix" in="shadowBlurOuter1" result="shadowMatrixOuter1"></feColorMatrix>
            <feMerge>
                <feMergeNode in="shadowMatrixOuter1"></feMergeNode>
                <feMergeNode in="SourceGraphic"></feMergeNode>
            </feMerge>
        </filter>
        <path d="M12.819426,-5.17920154e-16 L232.180574,5.17920154e-16 C236.638168,-3.00926524e-16 238.254599,0.464128056 239.884229,1.33566352 C241.513858,2.20719898 242.792801,3.48614185 243.664336,5.11577148 C244.535872,6.74540111 245,8.3618323 245,12.819426 L245,87.180574 C245,91.6381677 244.535872,93.2545989 243.664336,94.8842285 C242.792801,96.5138581 241.513858,97.792801 239.884229,98.6643365 C238.254599,99.5358719 236.638168,100 232.180574,100 L12.819426,100 C8.3618323,100 6.74540111,99.5358719 5.11577148,98.6643365 C3.48614185,97.792801 2.20719898,96.5138581 1.33566352,94.8842285 C0.464128056,93.2545989 2.00617683e-16,91.6381677 -3.45280103e-16,87.180574 L3.45280103e-16,12.819426 C-2.00617683e-16,8.3618323 0.464128056,6.74540111 1.33566352,5.11577148 C2.20719898,3.48614185 3.48614185,2.20719898 5.11577148,1.33566352 C6.74540111,0.464128056 8.3618323,3.00926524e-16 12.819426,-5.17920154e-16 Z" id="path-4"></path>
        <filter x="-11.4%" y="-20.0%" width="122.9%" height="156.0%" filterUnits="objectBoundingBox" id="filter-5">
            <feOffset dx="0" dy="8" in="SourceAlpha" result="shadowOffsetOuter1"></feOffset>
            <feGaussianBlur stdDeviation="8" in="shadowOffsetOuter1" result="shadowBlurOuter1"></feGaussianBlur>
            <feColorMatrix values="0 0 0 0 0   0 0 0 0 0   0 0 0 0 0  0 0 0 0.103742074 0" type="matrix" in="shadowBlurOuter1"></feColorMatrix>
        </filter>
    </defs>
    <g id="Node-Lookup" stroke="none" stroke-width="1" fill="none" fill-rule="evenodd">
        <g id="Rectangle">
            <use fill="black" fill-opacity="1" filter="url(#filter-2)" xlink:href="#path-1"></use>
            <use fill="#FFFFFF" fill-rule="evenodd" xlink:href="#path-1"></use>
        </g>
        <g id="teleport-proxy-3" transform="translate(178.000000, 259.000000)">
            <g id="teleport-proxy-2">
                <g id="teleport-proxy" filter="url(#filter-3)">
                    <g id="Rectangle-Copy-6">
                        <use fill="black" fill-opacity="1" filter="url(#filter-5)" xlink:href="#path-4"></use>
                        <use fill="#FFFFFF" fill-rule="evenodd" xlink:href="#path-4"></use>
                    </g>
                    <g transform="translate(14.000000, 11.000000)">
                        <path d="M10,1.5 C5.30557963,1.5 1.5,5.30557963 1.5,10 L1.5,70 C1.5,74.6944204 5.30557963,78.5 10,78.5 L210,78.5 C214.69442,78.5 218.5,74.6944204 218.5,70 L218.5,10 C218.5,5.30557963 214.69442,1.5 210,1.5 L10,1.5 Z" id="Rectangle-17" stroke="#40B6C6" stroke-width="3" fill="#FFFFFF"></path>
                        <path d="M57,33 L66.248,33 L66.248,34.728 L62.616,34.728 L62.616,44.424 L60.616,44.424 L60.616,34.728 L57,34.728 L57,33 Z M71.224,39.56 C71.2026666,39.2719986 71.1413338,38.994668 71.04,38.728 C70.9386662,38.461332 70.8000009,38.2293343 70.624,38.032 C70.4479991,37.8346657 70.2346679,37.6746673 69.984,37.552 C69.7333321,37.4293327 69.4533349,37.368 69.144,37.368 C68.8239984,37.368 68.5333346,37.4239994 68.272,37.536 C68.0106654,37.6480006 67.7866676,37.8026657 67.6,38 C67.4133324,38.1973343 67.2640006,38.429332 67.152,38.696 C67.0399994,38.962668 66.9786667,39.2506651 66.968,39.56 L71.224,39.56 Z M66.968,40.76 C66.968,41.0800016 67.0133329,41.3893318 67.104,41.688 C67.1946671,41.9866682 67.3306658,42.2479989 67.512,42.472 C67.6933342,42.6960011 67.9226653,42.874666 68.2,43.008 C68.4773347,43.141334 68.8079981,43.208 69.192,43.208 C69.725336,43.208 70.154665,43.0933345 70.48,42.864 C70.805335,42.6346655 71.0479992,42.290669 71.208,41.832 L72.936,41.832 C72.8399995,42.2800022 72.6746678,42.6799982 72.44,43.032 C72.2053322,43.3840018 71.9226683,43.6799988 71.592,43.92 C71.2613317,44.1600012 70.8906687,44.3413327 70.48,44.464 C70.0693313,44.5866673 69.6400022,44.648 69.192,44.648 C68.5413301,44.648 67.9653358,44.5413344 67.464,44.328 C66.9626642,44.1146656 66.5386684,43.8160019 66.192,43.432 C65.8453316,43.0479981 65.5840009,42.589336 65.408,42.056 C65.2319991,41.522664 65.144,40.9360032 65.144,40.296 C65.144,39.7093304 65.2373324,39.1520026 65.424,38.624 C65.6106676,38.0959974 65.8773316,37.632002 66.224,37.232 C66.5706684,36.831998 66.9893309,36.5146678 67.48,36.28 C67.9706691,36.0453322 68.5253302,35.928 69.144,35.928 C69.7946699,35.928 70.3786641,36.0639986 70.896,36.336 C71.4133359,36.6080014 71.842665,36.9679978 72.184,37.416 C72.525335,37.8640022 72.7733326,38.3786638 72.928,38.96 C73.0826674,39.5413362 73.122667,40.1413302 73.048,40.76 L66.968,40.76 Z M74.488,33 L76.312,33 L76.312,44.424 L74.488,44.424 L74.488,33 Z M83.976,39.56 C83.9546666,39.2719986 83.8933338,38.994668 83.792,38.728 C83.6906662,38.461332 83.5520009,38.2293343 83.376,38.032 C83.1999991,37.8346657 82.9866679,37.6746673 82.736,37.552 C82.4853321,37.4293327 82.2053349,37.368 81.896,37.368 C81.5759984,37.368 81.2853346,37.4239994 81.024,37.536 C80.7626654,37.6480006 80.5386676,37.8026657 80.352,38 C80.1653324,38.1973343 80.0160006,38.429332 79.904,38.696 C79.7919994,38.962668 79.7306667,39.2506651 79.72,39.56 L83.976,39.56 Z M79.72,40.76 C79.72,41.0800016 79.7653329,41.3893318 79.856,41.688 C79.9466671,41.9866682 80.0826658,42.2479989 80.264,42.472 C80.4453342,42.6960011 80.6746653,42.874666 80.952,43.008 C81.2293347,43.141334 81.5599981,43.208 81.944,43.208 C82.477336,43.208 82.906665,43.0933345 83.232,42.864 C83.557335,42.6346655 83.7999992,42.290669 83.96,41.832 L85.688,41.832 C85.5919995,42.2800022 85.4266678,42.6799982 85.192,43.032 C84.9573322,43.3840018 84.6746683,43.6799988 84.344,43.92 C84.0133317,44.1600012 83.6426687,44.3413327 83.232,44.464 C82.8213313,44.5866673 82.3920022,44.648 81.944,44.648 C81.2933301,44.648 80.7173358,44.5413344 80.216,44.328 C79.7146642,44.1146656 79.2906684,43.8160019 78.944,43.432 C78.5973316,43.0479981 78.3360009,42.589336 78.16,42.056 C77.9839991,41.522664 77.896,40.9360032 77.896,40.296 C77.896,39.7093304 77.9893324,39.1520026 78.176,38.624 C78.3626676,38.0959974 78.6293316,37.632002 78.976,37.232 C79.3226684,36.831998 79.7413309,36.5146678 80.232,36.28 C80.7226691,36.0453322 81.2773302,35.928 81.896,35.928 C82.5466699,35.928 83.1306641,36.0639986 83.648,36.336 C84.1653359,36.6080014 84.594665,36.9679978 84.936,37.416 C85.277335,37.8640022 85.5253326,38.3786638 85.68,38.96 C85.8346674,39.5413362 85.874667,40.1413302 85.8,40.76 L79.72,40.76 Z M87.24,36.152 L88.968,36.152 L88.968,37.272 L89,37.272 C89.2560013,36.7919976 89.613331,36.448001 90.072,36.24 C90.530669,36.031999 91.026664,35.928 91.56,35.928 C92.2106699,35.928 92.7786642,36.0426655 93.264,36.272 C93.7493358,36.5013345 94.1519984,36.815998 94.472,37.216 C94.7920016,37.616002 95.0319992,38.082664 95.192,38.616 C95.3520008,39.149336 95.432,39.719997 95.432,40.328 C95.432,40.8826694 95.3600007,41.4213307 95.216,41.944 C95.0719993,42.4666693 94.8533348,42.928 94.56,43.328 C94.2666652,43.728002 93.8960022,44.0479988 93.448,44.288 C92.9999978,44.5280012 92.472003,44.648 91.864,44.648 C91.597332,44.648 91.330668,44.6240002 91.064,44.576 C90.797332,44.5279998 90.5413346,44.4506672 90.296,44.344 C90.0506654,44.2373328 89.824001,44.1013342 89.616,43.936 C89.407999,43.7706658 89.2346674,43.5760011 89.096,43.352 L89.064,43.352 L89.064,47.48 L87.24,47.48 L87.24,36.152 Z M93.608,40.296 C93.608,39.9226648 93.5600005,39.5600018 93.464,39.208 C93.3679995,38.8559982 93.224001,38.5440014 93.032,38.272 C92.839999,37.9999986 92.6000014,37.7813342 92.312,37.616 C92.0239986,37.4506658 91.6933352,37.368 91.32,37.368 C90.5519962,37.368 89.9733353,37.634664 89.584,38.168 C89.1946647,38.701336 89,39.4106622 89,40.296 C89,40.7120021 89.0506662,41.0986649 89.152,41.456 C89.2533338,41.8133351 89.4053323,42.1199987 89.608,42.376 C89.8106677,42.6320013 90.0533319,42.8346659 90.336,42.984 C90.6186681,43.1333341 90.9466648,43.208 91.32,43.208 C91.7360021,43.208 92.0879986,43.1226675 92.376,42.952 C92.6640014,42.7813325 92.9013324,42.5600014 93.088,42.288 C93.2746676,42.0159986 93.4079996,41.7066684 93.488,41.36 C93.5680004,41.0133316 93.608,40.6586685 93.608,40.296 Z M100.76,44.648 C100.098663,44.648 99.5093359,44.5386678 98.992,44.32 C98.4746641,44.1013322 98.0373351,43.8000019 97.68,43.416 C97.3226649,43.0319981 97.0506676,42.573336 96.864,42.04 C96.6773324,41.506664 96.584,40.9200032 96.584,40.28 C96.584,39.6506635 96.6773324,39.069336 96.864,38.536 C97.0506676,38.002664 97.3226649,37.5440019 97.68,37.16 C98.0373351,36.7759981 98.4746641,36.4746678 98.992,36.256 C99.5093359,36.0373322 100.098663,35.928 100.76,35.928 C101.421337,35.928 102.010664,36.0373322 102.528,36.256 C103.045336,36.4746678 103.482665,36.7759981 103.84,37.16 C104.197335,37.5440019 104.469332,38.002664 104.656,38.536 C104.842668,39.069336 104.936,39.6506635 104.936,40.28 C104.936,40.9200032 104.842668,41.506664 104.656,42.04 C104.469332,42.573336 104.197335,43.0319981 103.84,43.416 C103.482665,43.8000019 103.045336,44.1013322 102.528,44.32 C102.010664,44.5386678 101.421337,44.648 100.76,44.648 Z M100.76,43.208 C101.165335,43.208 101.517332,43.1226675 101.816,42.952 C102.114668,42.7813325 102.359999,42.5573347 102.552,42.28 C102.744001,42.0026653 102.885333,41.6906684 102.976,41.344 C103.066667,40.9973316 103.112,40.6426685 103.112,40.28 C103.112,39.9279982 103.066667,39.5760018 102.976,39.224 C102.885333,38.8719982 102.744001,38.5600014 102.552,38.288 C102.359999,38.0159986 102.114668,37.7946675 101.816,37.624 C101.517332,37.4533325 101.165335,37.368 100.76,37.368 C100.354665,37.368 100.002668,37.4533325 99.704,37.624 C99.4053318,37.7946675 99.160001,38.0159986 98.968,38.288 C98.775999,38.5600014 98.6346671,38.8719982 98.544,39.224 C98.4533329,39.5760018 98.408,39.9279982 98.408,40.28 C98.408,40.6426685 98.4533329,40.9973316 98.544,41.344 C98.6346671,41.6906684 98.775999,42.0026653 98.968,42.28 C99.160001,42.5573347 99.4053318,42.7813325 99.704,42.952 C100.002668,43.1226675 100.354665,43.208 100.76,43.208 Z M106.456,36.152 L108.168,36.152 L108.168,37.752 L108.2,37.752 C108.253334,37.5279989 108.357333,37.3093344 108.512,37.096 C108.666667,36.8826656 108.853332,36.6880009 109.072,36.512 C109.290668,36.3359991 109.533332,36.1946672 109.8,36.088 C110.066668,35.9813328 110.338665,35.928 110.616,35.928 C110.829334,35.928 110.976,35.9333333 111.056,35.944 C111.136,35.9546667 111.218666,35.9653333 111.304,35.976 L111.304,37.736 C111.175999,37.7146666 111.045334,37.6960001 110.912,37.68 C110.778666,37.6639999 110.648001,37.656 110.52,37.656 C110.210665,37.656 109.920001,37.7173327 109.648,37.84 C109.375999,37.9626673 109.138668,38.1439988 108.936,38.384 C108.733332,38.6240012 108.573334,38.9199982 108.456,39.272 C108.338666,39.6240018 108.28,40.029331 108.28,40.488 L108.28,44.424 L106.456,44.424 L106.456,36.152 Z M111.256,36.152 L112.632,36.152 L112.632,33.672 L114.456,33.672 L114.456,36.152 L116.104,36.152 L116.104,37.512 L114.456,37.512 L114.456,41.928 C114.456,42.120001 114.464,42.2853326 114.48,42.424 C114.496,42.5626674 114.533333,42.6799995 114.592,42.776 C114.650667,42.8720005 114.738666,42.9439998 114.856,42.992 C114.973334,43.0400002 115.133332,43.064 115.336,43.064 C115.464001,43.064 115.591999,43.0613334 115.72,43.056 C115.848001,43.0506666 115.975999,43.0320002 116.104,43 L116.104,44.408 C115.901332,44.4293334 115.704001,44.4506666 115.512,44.472 C115.319999,44.4933334 115.122668,44.504 114.92,44.504 C114.439998,44.504 114.053335,44.4586671 113.76,44.368 C113.466665,44.2773329 113.237334,44.1440009 113.072,43.968 C112.906666,43.7919991 112.794667,43.570668 112.736,43.304 C112.677333,43.037332 112.642667,42.733335 112.632,42.392 L112.632,37.512 L111.256,37.512 L111.256,36.152 Z M122.12,33 L127.16,33 C127.970671,33 128.631997,33.1173322 129.144,33.352 C129.656003,33.5866678 130.050665,33.8799982 130.328,34.232 C130.605335,34.5840018 130.794666,34.9679979 130.896,35.384 C130.997334,35.8000021 131.048,36.1839982 131.048,36.536 C131.048,36.8880018 130.997334,37.2693313 130.896,37.68 C130.794666,38.0906687 130.605335,38.4719982 130.328,38.824 C130.050665,39.1760018 129.656003,39.4666655 129.144,39.696 C128.631997,39.9253345 127.970671,40.04 127.16,40.04 L124.12,40.04 L124.12,44.424 L122.12,44.424 L122.12,33 Z M124.12,38.408 L127.048,38.408 C127.272001,38.408 127.501332,38.3760003 127.736,38.312 C127.970668,38.2479997 128.186666,38.1440007 128.384,38 C128.581334,37.8559993 128.741333,37.6640012 128.864,37.424 C128.986667,37.1839988 129.048,36.8826685 129.048,36.52 C129.048,36.1466648 128.994667,35.8373346 128.888,35.592 C128.781333,35.3466654 128.637334,35.1520007 128.456,35.008 C128.274666,34.8639993 128.066668,34.7653336 127.832,34.712 C127.597332,34.6586664 127.346668,34.632 127.08,34.632 L124.12,34.632 L124.12,38.408 Z M132.536,36.152 L134.248,36.152 L134.248,37.752 L134.28,37.752 C134.333334,37.5279989 134.437333,37.3093344 134.592,37.096 C134.746667,36.8826656 134.933332,36.6880009 135.152,36.512 C135.370668,36.3359991 135.613332,36.1946672 135.88,36.088 C136.146668,35.9813328 136.418665,35.928 136.696,35.928 C136.909334,35.928 137.056,35.9333333 137.136,35.944 C137.216,35.9546667 137.298666,35.9653333 137.384,35.976 L137.384,37.736 C137.255999,37.7146666 137.125334,37.6960001 136.992,37.68 C136.858666,37.6639999 136.728001,37.656 136.6,37.656 C136.290665,37.656 136.000001,37.7173327 135.728,37.84 C135.455999,37.9626673 135.218668,38.1439988 135.016,38.384 C134.813332,38.6240012 134.653334,38.9199982 134.536,39.272 C134.418666,39.6240018 134.36,40.029331 134.36,40.488 L134.36,44.424 L132.536,44.424 L132.536,36.152 Z M141.672,44.648 C141.010663,44.648 140.421336,44.5386678 139.904,44.32 C139.386664,44.1013322 138.949335,43.8000019 138.592,43.416 C138.234665,43.0319981 137.962668,42.573336 137.776,42.04 C137.589332,41.506664 137.496,40.9200032 137.496,40.28 C137.496,39.6506635 137.589332,39.069336 137.776,38.536 C137.962668,38.002664 138.234665,37.5440019 138.592,37.16 C138.949335,36.7759981 139.386664,36.4746678 139.904,36.256 C140.421336,36.0373322 141.010663,35.928 141.672,35.928 C142.333337,35.928 142.922664,36.0373322 143.44,36.256 C143.957336,36.4746678 144.394665,36.7759981 144.752,37.16 C145.109335,37.5440019 145.381332,38.002664 145.568,38.536 C145.754668,39.069336 145.848,39.6506635 145.848,40.28 C145.848,40.9200032 145.754668,41.506664 145.568,42.04 C145.381332,42.573336 145.109335,43.0319981 144.752,43.416 C144.394665,43.8000019 143.957336,44.1013322 143.44,44.32 C142.922664,44.5386678 142.333337,44.648 141.672,44.648 Z M141.672,43.208 C142.077335,43.208 142.429332,43.1226675 142.728,42.952 C143.026668,42.7813325 143.271999,42.5573347 143.464,42.28 C143.656001,42.0026653 143.797333,41.6906684 143.888,41.344 C143.978667,40.9973316 144.024,40.6426685 144.024,40.28 C144.024,39.9279982 143.978667,39.5760018 143.888,39.224 C143.797333,38.8719982 143.656001,38.5600014 143.464,38.288 C143.271999,38.0159986 143.026668,37.7946675 142.728,37.624 C142.429332,37.4533325 142.077335,37.368 141.672,37.368 C141.266665,37.368 140.914668,37.4533325 140.616,37.624 C140.317332,37.7946675 140.072001,38.0159986 139.88,38.288 C139.687999,38.5600014 139.546667,38.8719982 139.456,39.224 C139.365333,39.5760018 139.32,39.9279982 139.32,40.28 C139.32,40.6426685 139.365333,40.9973316 139.456,41.344 C139.546667,41.6906684 139.687999,42.0026653 139.88,42.28 C140.072001,42.5573347 140.317332,42.7813325 140.616,42.952 C140.914668,43.1226675 141.266665,43.208 141.672,43.208 Z M149.592,40.072 L146.728,36.152 L148.936,36.152 L150.664,38.696 L152.472,36.152 L154.584,36.152 L151.768,39.976 L154.936,44.424 L152.744,44.424 L150.648,41.368 L148.616,44.424 L146.472,44.424 L149.592,40.072 Z M155.048,36.152 L157.048,36.152 L159.208,42.328 L159.24,42.328 L161.336,36.152 L163.24,36.152 L160.024,44.872 C159.874666,45.2453352 159.728001,45.602665 159.584,45.944 C159.439999,46.285335 159.264001,46.5866654 159.056,46.848 C158.847999,47.1093346 158.589335,47.3173326 158.28,47.472 C157.970665,47.6266674 157.576002,47.704 157.096,47.704 C156.669331,47.704 156.248002,47.6720003 155.832,47.608 L155.832,46.072 C155.981334,46.0933334 156.125333,46.1173332 156.264,46.144 C156.402667,46.1706668 156.546666,46.184 156.696,46.184 C156.909334,46.184 157.085333,46.1573336 157.224,46.104 C157.362667,46.0506664 157.477333,45.9733338 157.568,45.872 C157.658667,45.7706662 157.736,45.6506674 157.8,45.512 C157.864,45.3733326 157.922666,45.2133342 157.976,45.032 L158.184,44.392 L155.048,36.152 Z" id="Teleport-Proxy" fill="#4A4A4A"></path>
                    </g>
                </g>
            </g>
        </g>
        <g id="DNS-Resolver" transform="translate(29.000000, 89.000000)">
            <g>
                <path d="M10,1.5 C5.30557963,1.5 1.5,5.30557963 1.5,10 L1.5,55 C1.5,59.6944204 5.30557963,63.5 10,63.5 L113,63.5 C117.69442,63.5 121.5,59.6944204 121.5,55 L121.5,10 C121.5,5.30557963 117.69442,1.5 113,1.5 L10,1.5 Z" id="Rectangle-17" stroke="#D8BB47" stroke-width="3" fill="#FFFFFF" fill-rule="evenodd"></path>
                <text stroke="#979797" stroke-width="1" font-family="LucidaGrande, Lucida Grande" font-size="15" font-weight="normal" fill="#4A4A4A">
                    <tspan x="13.5605513" y="38.5">DNS Resolver</tspan>
                </text>
            </g>
        </g>
        <path id="Line-9" d="M115.205194,153.096157 L124.146289,157.712088 L120.915,160.071 L189.198649,253.609038 L188.390962,254.198649 L120.107,160.66 L116.877106,163.018591 L115.205194,153.096157 Z" fill="#979797" fill-rule="nonzero"></path>
        <path id="Line-9" d="M310.001976,129.500004 L314.466368,138.51772 L310.466,138.501 L309.99802,257.001972 L308.998028,256.99802 L309.466,138.498 L305.466439,138.482147 L310.001976,129.500004 Z" fill="#979797" fill-rule="nonzero"></path>
        <path id="Line-9-Copy" d="M341.001976,129.500004 L345.466368,138.51772 L341.466,138.501 L340.99802,257.001972 L339.998028,256.99802 L340.466,138.498 L336.466439,138.482147 L341.001976,129.500004 Z" fill="#979797" fill-rule="nonzero"></path>
        <g id="Group" transform="translate(213.000000, 7.000000)">
            <rect id="Rectangle" x="0" y="0" width="217" height="50"></rect>
            <text id="Nodename-|-IP-|-Labe" font-family="LucidaGrande, Lucida Grande" font-size="11" font-weight="normal" fill="#4A4A4A">
                <tspan x="11" y="17">Nodename | IP          | Labels</tspan>
                <tspan x="11" y="30" font-family="LucidaGrande-Bold, Lucida Grande" font-weight="bold">grav-00     10.X.X.0   arch=ubuntu</tspan>
                <tspan x="11" y="43" font-family="LucidaGrande-Bold, Lucida Grande" font-weight="bold">grav-01     10.X.X.1   arch=debian</tspan>
            </text>
            <text id="Nodename-|-IP-|-Labe" font-family="LucidaGrande, Lucida Grande" font-size="11" font-weight="normal" fill="#4A4A4A">
                <tspan x="11" y="17">Nodename | IP          | Labels</tspan>
                <tspan x="11" y="30" font-family="LucidaGrande-Bold, Lucida Grande" font-weight="bold">grav-00     10.X.X.0   arch=ubuntu</tspan>
                <tspan x="11" y="43" font-family="LucidaGrande-Bold, Lucida Grande" font-weight="bold">grav-01     10.X.X.1   arch=debian</tspan>
            </text>
        </g>
        <g id="circleNumber" transform="translate(92.000000, 175.000000)">
            <g id="1-copy-2" transform="translate(5.000000, 5.000000)">
                <circle id="Oval-4" fill="#F26738" cx="13.5" cy="13.5" r="13.5"></circle>
                <text id="2" font-family="HelveticaNeue-Medium, Helvetica Neue" font-size="16" font-weight="400" fill="#FFFFFF">
                    <tspan x="9.052" y="20">1</tspan>
                </text>
            </g>
        </g>
        <g id="Group-2-Copy" transform="translate(0.000000, 240.000000)">
            <rect id="Rectangle-16" stroke="#D1EAFF" stroke-width="3" fill="#EEF4F9" x="1.5" y="1.5" width="168" height="53"></rect>
            <text id="Please-resolve-“grav" font-family="LucidaGrande, Lucida Grande" font-size="13" font-weight="normal" fill="#4A4A4A">
                <tspan x="8.00292969" y="24">Please resolve “grav-00” </tspan>
                <tspan x="47.6123047" y="40">to a node IP</tspan>
            </text>
        </g>
        <polygon id="Triangle-2-Copy" stroke="#D1EAFF" fill="#D1EAFF" transform="translate(110.500000, 228.500000) scale(1, -1) translate(-110.500000, -228.500000) " points="110.5 240 99 217 122 217"></polygon>
        <g id="circleNumber" transform="translate(275.000000, 162.000000)">
            <g id="1-copy-2" transform="translate(5.000000, 5.000000)">
                <circle id="Oval-4" fill="#F26738" cx="13.5" cy="13.5" r="13.5"></circle>
                <text id="2" font-family="HelveticaNeue-Medium, Helvetica Neue" font-size="16" font-weight="400" fill="#FFFFFF">
                    <tspan x="9.052" y="20">2</tspan>
                </text>
            </g>
        </g>
        <g id="circleNumber" transform="translate(341.000000, 162.000000)">
            <g id="1-copy-2" transform="translate(5.000000, 5.000000)">
                <circle id="Oval-4" fill="#F26738" cx="13.5" cy="13.5" r="13.5"></circle>
                <text id="2" font-family="HelveticaNeue-Medium, Helvetica Neue" font-size="16" font-weight="400" fill="#FFFFFF">
                    <tspan x="9.052" y="20">3</tspan>
                </text>
            </g>
        </g>
        <g id="Group-2" transform="translate(169.000000, 143.000000)">
            <rect id="Rectangle-16" stroke="#D1EAFF" stroke-width="3" fill="#EEF4F9" x="1.5" y="1.5" width="94" height="71"></rect>
            <text id="Please-look-for-“gra" font-family="LucidaGrande, Lucida Grande" font-size="13" font-weight="normal" fill="#4A4A4A">
                <tspan x="13.6625977" y="19">Please look </tspan>
                <tspan x="7.08642578" y="35">for “grav-00” </tspan>
                <tspan x="6.94995117" y="51">in your list of </tspan>
                <tspan x="29.9475098" y="67">nodes</tspan>
            </text>
        </g>
        <g id="Group-2-Copy-2" transform="translate(383.000000, 143.000000)">
            <rect id="Rectangle-16" stroke="#D1EAFF" stroke-width="3" fill="#EEF4F9" x="1.5" y="1.5" width="123" height="59"></rect>
            <text id="Please-look-for-“arc" font-family="LucidaGrande, Lucida Grande" font-size="13" font-weight="normal" fill="#4A4A4A">
                <tspan x="15.5637207" y="19">Please look for </tspan>
                <tspan x="8.77807617" y="35">“arch=debian” in </tspan>
                <tspan x="6.81030273" y="51">your list of nodes</tspan>
            </text>
        </g>
        <polygon id="Triangle-2-Copy-2" stroke="#D1EAFF" fill="#D1EAFF" transform="translate(272.500000, 182.500000) scale(1, -1) rotate(-90.000000) translate(-272.500000, -182.500000) " points="272.5 189 266 176 279 176"></polygon>
        <polygon id="Triangle-2-Copy-3" stroke="#D1EAFF" fill="#D1EAFF" transform="translate(378.500000, 180.500000) scale(1, -1) rotate(-270.000000) translate(-378.500000, -180.500000) " points="378.5 187 372 174 385 174"></polygon>
        <g id="teleport-auth" transform="translate(205.000000, 62.000000)">
            <path d="M10,1.5 C5.30557963,1.5 1.5,5.30557963 1.5,10 L1.5,50 C1.5,54.6944204 5.30557963,58.5 10,58.5 L146,58.5 C150.69442,58.5 154.5,54.6944204 154.5,50 L154.5,10 C154.5,5.30557963 150.69442,1.5 146,1.5 L10,1.5 Z" id="Rectangle-17" stroke="#E1584E" stroke-width="3" fill="#FFFFFF"></path>
            <path d="M39.78,24 L46.99344,24 L46.99344,25.4811429 L44.16048,25.4811429 L44.16048,33.792 L42.60048,33.792 L42.60048,25.4811429 L39.78,25.4811429 L39.78,24 Z M50.87472,29.6228571 C50.8580799,29.3759988 50.8102404,29.1382869 50.7312,28.9097143 C50.6521596,28.6811417 50.5440007,28.4822866 50.40672,28.3131429 C50.2694393,28.1439992 50.103041,28.0068577 49.90752,27.9017143 C49.711999,27.7965709 49.4936012,27.744 49.25232,27.744 C49.0027188,27.744 48.776001,27.7919995 48.57216,27.888 C48.368319,27.9840005 48.1936007,28.1165706 48.048,28.2857143 C47.9023993,28.454858 47.7859204,28.6537131 47.69856,28.8822857 C47.6111996,29.1108583 47.56336,29.357713 47.55504,29.6228571 L50.87472,29.6228571 Z M47.55504,30.6514286 C47.55504,30.9257157 47.5903996,31.1908559 47.66112,31.4468571 C47.7318404,31.7028584 47.8379193,31.9268562 47.97936,32.1188571 C48.1208007,32.3108581 48.2996789,32.4639994 48.516,32.5782857 C48.7323211,32.692572 48.9902385,32.7497143 49.28976,32.7497143 C49.7057621,32.7497143 50.0406387,32.6514296 50.2944,32.4548571 C50.5481613,32.2582847 50.7374394,31.9634305 50.86224,31.5702857 L52.21008,31.5702857 C52.1351996,31.9542876 52.0062409,32.2971413 51.8232,32.5988571 C51.6401591,32.9005729 51.4196813,33.1542847 51.16176,33.36 C50.9038387,33.5657153 50.6147216,33.7211423 50.2944,33.8262857 C49.9740784,33.9314291 49.6392017,33.984 49.28976,33.984 C48.7822375,33.984 48.332962,33.8925723 47.94192,33.7097143 C47.550878,33.5268562 47.2201614,33.2708588 46.94976,32.9417143 C46.6793586,32.6125698 46.4755207,32.2194309 46.33824,31.7622857 C46.2009593,31.3051406 46.13232,30.8022885 46.13232,30.2537143 C46.13232,29.7508546 46.2051193,29.2731451 46.35072,28.8205714 C46.4963207,28.3679977 46.7043186,27.9702874 46.97472,27.6274286 C47.2451214,27.2845697 47.5716781,27.0125724 47.9544,26.8114286 C48.3371219,26.6102847 48.7697576,26.5097143 49.25232,26.5097143 C49.7598425,26.5097143 50.215358,26.6262845 50.61888,26.8594286 C51.022402,27.0925726 51.3572787,27.4011409 51.62352,27.7851429 C51.8897613,28.1691448 52.0831994,28.6102832 52.20384,29.1085714 C52.3244806,29.6068596 52.3556803,30.1211402 52.29744,30.6514286 L47.55504,30.6514286 Z M53.42064,24 L54.84336,24 L54.84336,33.792 L53.42064,33.792 L53.42064,24 Z M60.82128,29.6228571 C60.8046399,29.3759988 60.7568004,29.1382869 60.67776,28.9097143 C60.5987196,28.6811417 60.4905607,28.4822866 60.35328,28.3131429 C60.2159993,28.1439992 60.049601,28.0068577 59.85408,27.9017143 C59.658559,27.7965709 59.4401612,27.744 59.19888,27.744 C58.9492788,27.744 58.722561,27.7919995 58.51872,27.888 C58.314879,27.9840005 58.1401607,28.1165706 57.99456,28.2857143 C57.8489593,28.454858 57.7324804,28.6537131 57.64512,28.8822857 C57.5577596,29.1108583 57.50992,29.357713 57.5016,29.6228571 L60.82128,29.6228571 Z M57.5016,30.6514286 C57.5016,30.9257157 57.5369596,31.1908559 57.60768,31.4468571 C57.6784004,31.7028584 57.7844793,31.9268562 57.92592,32.1188571 C58.0673607,32.3108581 58.2462389,32.4639994 58.46256,32.5782857 C58.6788811,32.692572 58.9367985,32.7497143 59.23632,32.7497143 C59.6523221,32.7497143 59.9871987,32.6514296 60.24096,32.4548571 C60.4947213,32.2582847 60.6839994,31.9634305 60.8088,31.5702857 L62.15664,31.5702857 C62.0817596,31.9542876 61.9528009,32.2971413 61.76976,32.5988571 C61.5867191,32.9005729 61.3662413,33.1542847 61.10832,33.36 C60.8503987,33.5657153 60.5612816,33.7211423 60.24096,33.8262857 C59.9206384,33.9314291 59.5857617,33.984 59.23632,33.984 C58.7287975,33.984 58.279522,33.8925723 57.88848,33.7097143 C57.497438,33.5268562 57.1667214,33.2708588 56.89632,32.9417143 C56.6259186,32.6125698 56.4220807,32.2194309 56.2848,31.7622857 C56.1475193,31.3051406 56.07888,30.8022885 56.07888,30.2537143 C56.07888,29.7508546 56.1516793,29.2731451 56.29728,28.8205714 C56.4428807,28.3679977 56.6508786,27.9702874 56.92128,27.6274286 C57.1916814,27.2845697 57.5182381,27.0125724 57.90096,26.8114286 C58.2836819,26.6102847 58.7163176,26.5097143 59.19888,26.5097143 C59.7064025,26.5097143 60.161918,26.6262845 60.56544,26.8594286 C60.968962,27.0925726 61.3038387,27.4011409 61.57008,27.7851429 C61.8363213,28.1691448 62.0297594,28.6102832 62.1504,29.1085714 C62.2710406,29.6068596 62.3022403,30.1211402 62.244,30.6514286 L57.5016,30.6514286 Z M63.3672,26.7017143 L64.71504,26.7017143 L64.71504,27.6617143 L64.74,27.6617143 C64.939681,27.2502837 65.2183982,26.9554295 65.57616,26.7771429 C65.9339218,26.5988563 66.3207979,26.5097143 66.7368,26.5097143 C67.2443225,26.5097143 67.6873581,26.607999 68.06592,26.8045714 C68.4444819,27.0011438 68.7585588,27.2708554 69.00816,27.6137143 C69.2577612,27.9565731 69.4449594,28.3565691 69.56976,28.8137143 C69.6945606,29.2708594 69.75696,29.7599974 69.75696,30.2811429 C69.75696,30.7565738 69.7008006,31.2182835 69.58848,31.6662857 C69.4761594,32.114288 69.3056011,32.5097143 69.0768,32.8525714 C68.8479989,33.1954303 68.5588817,33.4697133 68.20944,33.6754286 C67.8599983,33.8811439 67.4481624,33.984 66.97392,33.984 C66.765919,33.984 66.557921,33.9634288 66.34992,33.9222857 C66.141919,33.8811427 65.942241,33.8148576 65.75088,33.7234286 C65.559519,33.6319995 65.3827208,33.5154293 65.22048,33.3737143 C65.0582392,33.2319993 64.9230405,33.0651438 64.81488,32.8731429 L64.78992,32.8731429 L64.78992,36.4114286 L63.3672,36.4114286 L63.3672,26.7017143 Z M68.33424,30.2537143 C68.33424,29.9337127 68.2968004,29.6228587 68.22192,29.3211429 C68.1470396,29.0194271 68.0347207,28.7520012 67.88496,28.5188571 C67.7351993,28.2857131 67.5480011,28.0982864 67.32336,27.9565714 C67.0987189,27.8148564 66.8408015,27.744 66.5496,27.744 C65.950557,27.744 65.4992015,27.9725691 65.19552,28.4297143 C64.8918385,28.8868594 64.74,29.4948533 64.74,30.2537143 C64.74,30.6102875 64.7795196,30.9417128 64.85856,31.248 C64.9376004,31.5542872 65.0561592,31.8171418 65.21424,32.0365714 C65.3723208,32.2560011 65.5615989,32.4297136 65.78208,32.5577143 C66.0025611,32.6857149 66.2583985,32.7497143 66.5496,32.7497143 C66.8740816,32.7497143 67.1486389,32.6765722 67.37328,32.5302857 C67.5979211,32.3839993 67.7830393,32.1942869 67.92864,31.9611429 C68.0742407,31.7279988 68.1782397,31.4628586 68.24064,31.1657143 C68.3030403,30.8685699 68.33424,30.564573 68.33424,30.2537143 Z M73.9128,33.984 C73.3969574,33.984 72.937282,33.8902867 72.53376,33.7028571 C72.130238,33.5154276 71.7891214,33.2571445 71.5104,32.928 C71.2316786,32.5988555 71.0195207,32.2057166 70.87392,31.7485714 C70.7283193,31.2914263 70.65552,30.7885742 70.65552,30.24 C70.65552,29.7005687 70.7283193,29.202288 70.87392,28.7451429 C71.0195207,28.2879977 71.2316786,27.8948588 71.5104,27.5657143 C71.7891214,27.2365698 72.130238,26.9782867 72.53376,26.7908571 C72.937282,26.6034276 73.3969574,26.5097143 73.9128,26.5097143 C74.4286426,26.5097143 74.888318,26.6034276 75.29184,26.7908571 C75.695362,26.9782867 76.0364786,27.2365698 76.3152,27.5657143 C76.5939214,27.8948588 76.8060793,28.2879977 76.95168,28.7451429 C77.0972807,29.202288 77.17008,29.7005687 77.17008,30.24 C77.17008,30.7885742 77.0972807,31.2914263 76.95168,31.7485714 C76.8060793,32.2057166 76.5939214,32.5988555 76.3152,32.928 C76.0364786,33.2571445 75.695362,33.5154276 75.29184,33.7028571 C74.888318,33.8902867 74.4286426,33.984 73.9128,33.984 Z M73.9128,32.7497143 C74.2289616,32.7497143 74.5035188,32.6765722 74.73648,32.5302857 C74.9694412,32.3839993 75.1607993,32.1920012 75.31056,31.9542857 C75.4603207,31.7165702 75.5705596,31.4491443 75.64128,31.152 C75.7120004,30.8548557 75.74736,30.5508587 75.74736,30.24 C75.74736,29.9382842 75.7120004,29.6365729 75.64128,29.3348571 C75.5705596,29.0331413 75.4603207,28.7657155 75.31056,28.5325714 C75.1607993,28.2994274 74.9694412,28.109715 74.73648,27.9634286 C74.5035188,27.8171421 74.2289616,27.744 73.9128,27.744 C73.5966384,27.744 73.3220812,27.8171421 73.08912,27.9634286 C72.8561588,28.109715 72.6648007,28.2994274 72.51504,28.5325714 C72.3652793,28.7657155 72.2550404,29.0331413 72.18432,29.3348571 C72.1135996,29.6365729 72.07824,29.9382842 72.07824,30.24 C72.07824,30.5508587 72.1135996,30.8548557 72.18432,31.152 C72.2550404,31.4491443 72.3652793,31.7165702 72.51504,31.9542857 C72.6648007,32.1920012 72.8561588,32.3839993 73.08912,32.5302857 C73.3220812,32.6765722 73.5966384,32.7497143 73.9128,32.7497143 Z M78.35568,26.7017143 L79.69104,26.7017143 L79.69104,28.0731429 L79.716,28.0731429 C79.7576002,27.8811419 79.8387194,27.6937152 79.95936,27.5108571 C80.0800006,27.3279991 80.2255991,27.1611436 80.39616,27.0102857 C80.5667209,26.8594278 80.755999,26.7382862 80.964,26.6468571 C81.172001,26.5554281 81.3841589,26.5097143 81.60048,26.5097143 C81.7668808,26.5097143 81.8812797,26.5142857 81.94368,26.5234286 C82.0060803,26.5325715 82.0705597,26.5417142 82.13712,26.5508571 L82.13712,28.0594286 C82.0372795,28.0411428 81.9353605,28.0251429 81.83136,28.0114286 C81.7273595,27.9977142 81.6254405,27.9908571 81.5256,27.9908571 C81.2843188,27.9908571 81.0576011,28.043428 80.84544,28.1485714 C80.6332789,28.2537148 80.4481608,28.4091418 80.29008,28.6148571 C80.1319992,28.8205725 80.0072005,29.0742842 79.91568,29.376 C79.8241595,29.6777158 79.7784,30.0251409 79.7784,30.4182857 L79.7784,33.792 L78.35568,33.792 L78.35568,26.7017143 Z M82.09968,26.7017143 L83.17296,26.7017143 L83.17296,24.576 L84.59568,24.576 L84.59568,26.7017143 L85.88112,26.7017143 L85.88112,27.8674286 L84.59568,27.8674286 L84.59568,31.6525714 C84.59568,31.8171437 84.6019199,31.9588565 84.6144,32.0777143 C84.6268801,32.196572 84.6559998,32.2971424 84.70176,32.3794286 C84.7475202,32.4617147 84.8161595,32.5234284 84.90768,32.5645714 C84.9992005,32.6057145 85.1239992,32.6262857 85.28208,32.6262857 C85.3819205,32.6262857 85.4817595,32.624 85.5816,32.6194286 C85.6814405,32.6148571 85.7812795,32.5988573 85.88112,32.5714286 L85.88112,33.7782857 C85.7230392,33.7965715 85.5691207,33.8148571 85.41936,33.8331429 C85.2695993,33.8514287 85.1156808,33.8605714 84.9576,33.8605714 C84.5831981,33.8605714 84.2816011,33.8217147 84.0528,33.744 C83.8239989,33.6662853 83.6451206,33.5520008 83.51616,33.4011429 C83.3871994,33.250285 83.2998402,33.0605726 83.25408,32.832 C83.2083198,32.6034274 83.18128,32.3428586 83.17296,32.0502857 L83.17296,27.8674286 L82.09968,27.8674286 L82.09968,26.7017143 Z M92.95728,24 L94.61712,24 L98.04912,33.792 L96.3768,33.792 L95.54064,31.2 L91.98384,31.2 L91.14768,33.792 L89.53776,33.792 L92.95728,24 Z M92.40816,29.8971429 L95.1288,29.8971429 L93.79344,25.6868571 L93.756,25.6868571 L92.40816,29.8971429 Z M104.364,33.792 L102.96624,33.792 L102.96624,32.8045714 L102.94128,32.8045714 C102.766559,33.1611446 102.506562,33.4468561 102.16128,33.6617143 C101.815998,33.8765725 101.464482,33.984 101.10672,33.984 C100.258076,33.984 99.6444819,33.7531452 99.26592,33.2914286 C98.8873581,32.829712 98.69808,32.1325761 98.69808,31.2 L98.69808,26.7017143 L100.1208,26.7017143 L100.1208,31.0491429 C100.1208,31.6708603 100.228959,32.109713 100.44528,32.3657143 C100.661601,32.6217156 100.965278,32.7497143 101.35632,32.7497143 C101.655841,32.7497143 101.905439,32.6994291 102.10512,32.5988571 C102.304801,32.4982852 102.467039,32.3634294 102.59184,32.1942857 C102.716641,32.025142 102.80608,31.8217155 102.86016,31.584 C102.91424,31.3462845 102.94128,31.0902871 102.94128,30.816 L102.94128,26.7017143 L104.364,26.7017143 L104.364,33.792 Z M105.21264,26.7017143 L106.28592,26.7017143 L106.28592,24.576 L107.70864,24.576 L107.70864,26.7017143 L108.99408,26.7017143 L108.99408,27.8674286 L107.70864,27.8674286 L107.70864,31.6525714 C107.70864,31.8171437 107.71488,31.9588565 107.72736,32.0777143 C107.73984,32.196572 107.76896,32.2971424 107.81472,32.3794286 C107.86048,32.4617147 107.92912,32.5234284 108.02064,32.5645714 C108.11216,32.6057145 108.236959,32.6262857 108.39504,32.6262857 C108.49488,32.6262857 108.59472,32.624 108.69456,32.6194286 C108.7944,32.6148571 108.89424,32.5988573 108.99408,32.5714286 L108.99408,33.7782857 C108.835999,33.7965715 108.682081,33.8148571 108.53232,33.8331429 C108.382559,33.8514287 108.228641,33.8605714 108.07056,33.8605714 C107.696158,33.8605714 107.394561,33.8217147 107.16576,33.744 C106.936959,33.6662853 106.758081,33.5520008 106.62912,33.4011429 C106.500159,33.250285 106.4128,33.0605726 106.36704,32.832 C106.32128,32.6034274 106.29424,32.3428586 106.28592,32.0502857 L106.28592,27.8674286 L105.21264,27.8674286 L105.21264,26.7017143 Z M110.01744,24 L111.44016,24 L111.44016,27.6342857 L111.46512,27.6342857 C111.639841,27.3142841 111.899838,27.0468582 112.24512,26.832 C112.590402,26.6171418 112.975198,26.5097143 113.39952,26.5097143 C114.106724,26.5097143 114.664158,26.7108551 115.07184,27.1131429 C115.479522,27.5154306 115.68336,28.1188531 115.68336,28.9234286 L115.68336,33.792 L114.26064,33.792 L114.26064,29.3348571 C114.244,28.7771401 114.135841,28.3725727 113.93616,28.1211429 C113.736479,27.869713 113.424482,27.744 113.00016,27.744 C112.758879,27.744 112.542561,27.7919995 112.3512,27.888 C112.159839,27.9840005 111.997601,28.1165706 111.86448,28.2857143 C111.731359,28.454858 111.62736,28.6537131 111.55248,28.8822857 C111.4776,29.1108583 111.44016,29.3531416 111.44016,29.6091429 L111.44016,33.792 L110.01744,33.792 L110.01744,24 Z" id="Teleport-Auth" fill="#4A4A4A"></path>
        </g>
    </g>
</svg>