<?xml version="1.0" encoding="UTF-8"?>
<svg width="962px" height="308px" viewBox="0 0 962 308" version="1.1" xmlns="http://www.w3.org/2000/svg" xmlns:xlink="http://www.w3.org/1999/xlink">
    <!-- Generator: Sketch 59 (86127) - https://sketch.com -->
    <title>Proxy Connection</title>
    <desc>Created with Sketch.</desc>
    <defs>
        <rect id="path-1" x="706" y="58" width="252" height="224" rx="10"></rect>
        <filter x="-2.8%" y="-2.2%" width="105.6%" height="106.2%" filterUnits="objectBoundingBox" id="filter-2">
            <feOffset dx="0" dy="2" in="SourceAlpha" result="shadowOffsetOuter1"></feOffset>
            <feGaussianBlur stdDeviation="2" in="shadowOffsetOuter1" result="shadowBlurOuter1"></feGaussianBlur>
            <feColorMatrix values="0 0 0 0 0   0 0 0 0 0   0 0 0 0 0  0 0 0 0.5 0" type="matrix" in="shadowBlurOuter1"></feColorMatrix>
        </filter>
        <filter x="-3.0%" y="-3.4%" width="106.0%" height="106.9%" filterUnits="objectBoundingBox" id="filter-3">
            <feOffset dx="0" dy="1" in="SourceAlpha" result="shadowOffsetOuter1"></feOffset>
            <feGaussianBlur stdDeviation="1" in="shadowOffsetOuter1" result="shadowBlurOuter1"></feGaussianBlur>
            <feColorMatrix values="0 0 0 0 0   0 0 0 0 0   0 0 0 0 0  0 0 0 0.5 0" type="matrix" in="shadowBlurOuter1" result="shadowMatrixOuter1"></feColorMatrix>
            <feMerge>
                <feMergeNode in="shadowMatrixOuter1"></feMergeNode>
                <feMergeNode in="SourceGraphic"></feMergeNode>
            </feMerge>
        </filter>
        <filter x="-12.7%" y="-23.0%" width="125.3%" height="162.0%" filterUnits="objectBoundingBox" id="filter-4">
            <feOffset dx="0" dy="2" in="SourceAlpha" result="shadowOffsetOuter1"></feOffset>
            <feGaussianBlur stdDeviation="2" in="shadowOffsetOuter1" result="shadowBlurOuter1"></feGaussianBlur>
            <feColorMatrix values="0 0 0 0 0   0 0 0 0 0   0 0 0 0 0  0 0 0 0.5 0" type="matrix" in="shadowBlurOuter1" result="shadowMatrixOuter1"></feColorMatrix>
            <feMerge>
                <feMergeNode in="shadowMatrixOuter1"></feMergeNode>
                <feMergeNode in="SourceGraphic"></feMergeNode>
            </feMerge>
        </filter>
        <filter x="-8.2%" y="-12.0%" width="116.3%" height="140.0%" filterUnits="objectBoundingBox" id="filter-5">
            <feOffset dx="0" dy="1" in="SourceAlpha" result="shadowOffsetOuter1"></feOffset>
            <feGaussianBlur stdDeviation="0.5" in="shadowOffsetOuter1" result="shadowBlurOuter1"></feGaussianBlur>
            <feColorMatrix values="0 0 0 0 0   0 0 0 0 0   0 0 0 0 0  0 0 0 0.5 0" type="matrix" in="shadowBlurOuter1" result="shadowMatrixOuter1"></feColorMatrix>
            <feMerge>
                <feMergeNode in="shadowMatrixOuter1"></feMergeNode>
                <feMergeNode in="SourceGraphic"></feMergeNode>
            </feMerge>
        </filter>
        <path d="M12.819426,-5.17920154e-16 L232.180574,5.17920154e-16 C236.638168,-3.00926524e-16 238.254599,0.464128056 239.884229,1.33566352 C241.513858,2.20719898 242.792801,3.48614185 243.664336,5.11577148 C244.535872,6.74540111 245,8.3618323 245,12.819426 L245,87.180574 C245,91.6381677 244.535872,93.2545989 243.664336,94.8842285 C242.792801,96.5138581 241.513858,97.792801 239.884229,98.6643365 C238.254599,99.5358719 236.638168,100 232.180574,100 L12.819426,100 C8.3618323,100 6.74540111,99.5358719 5.11577148,98.6643365 C3.48614185,97.792801 2.20719898,96.5138581 1.33566352,94.8842285 C0.464128056,93.2545989 2.00617683e-16,91.6381677 -3.45280103e-16,87.180574 L3.45280103e-16,12.819426 C-2.00617683e-16,8.3618323 0.464128056,6.74540111 1.33566352,5.11577148 C2.20719898,3.48614185 3.48614185,2.20719898 5.11577148,1.33566352 C6.74540111,0.464128056 8.3618323,3.00926524e-16 12.819426,-5.17920154e-16 Z" id="path-6"></path>
        <filter x="-11.4%" y="-20.0%" width="122.9%" height="156.0%" filterUnits="objectBoundingBox" id="filter-7">
            <feOffset dx="0" dy="8" in="SourceAlpha" result="shadowOffsetOuter1"></feOffset>
            <feGaussianBlur stdDeviation="8" in="shadowOffsetOuter1" result="shadowBlurOuter1"></feGaussianBlur>
            <feColorMatrix values="0 0 0 0 0   0 0 0 0 0   0 0 0 0 0  0 0 0 0.103742074 0" type="matrix" in="shadowBlurOuter1"></feColorMatrix>
        </filter>
        <filter x="-9.4%" y="-24.0%" width="118.8%" height="148.0%" filterUnits="objectBoundingBox" id="filter-8">
            <feOffset dx="0" dy="2" in="SourceAlpha" result="shadowOffsetOuter1"></feOffset>
            <feGaussianBlur stdDeviation="2" in="shadowOffsetOuter1" result="shadowBlurOuter1"></feGaussianBlur>
            <feColorMatrix values="0 0 0 0 0   0 0 0 0 0   0 0 0 0 0  0 0 0 0.5 0" type="matrix" in="shadowBlurOuter1" result="shadowMatrixOuter1"></feColorMatrix>
            <feMerge>
                <feMergeNode in="shadowMatrixOuter1"></feMergeNode>
                <feMergeNode in="SourceGraphic"></feMergeNode>
            </feMerge>
        </filter>
        <path d="M28.819426,49 L149.180574,49 C153.638168,49 155.254599,49.4641281 156.884229,50.3356635 C158.513858,51.207199 159.792801,52.4861419 160.664336,54.1157715 C161.535872,55.7454011 162,57.3618323 162,61.819426 L162,269.180574 C162,273.638168 161.535872,275.254599 160.664336,276.884229 C159.792801,278.513858 158.513858,279.792801 156.884229,280.664336 C155.254599,281.535872 153.638168,282 149.180574,282 L28.819426,282 C24.3618323,282 22.7454011,281.535872 21.1157715,280.664336 C19.4861419,279.792801 18.207199,278.513858 17.3356635,276.884229 C16.4641281,275.254599 16,273.638168 16,269.180574 L16,61.819426 C16,57.3618323 16.4641281,55.7454011 17.3356635,54.1157715 C18.207199,52.4861419 19.4861419,51.207199 21.1157715,50.3356635 C22.7454011,49.4641281 24.3618323,49 28.819426,49 Z" id="path-9"></path>
        <filter x="-19.2%" y="-8.6%" width="138.4%" height="124.0%" filterUnits="objectBoundingBox" id="filter-10">
            <feOffset dx="0" dy="8" in="SourceAlpha" result="shadowOffsetOuter1"></feOffset>
            <feGaussianBlur stdDeviation="8" in="shadowOffsetOuter1" result="shadowBlurOuter1"></feGaussianBlur>
            <feColorMatrix values="0 0 0 0 0   0 0 0 0 0   0 0 0 0 0  0 0 0 0.103742074 0" type="matrix" in="shadowBlurOuter1"></feColorMatrix>
        </filter>
    </defs>
    <g id="Proxy-Connection" stroke="none" stroke-width="1" fill="none" fill-rule="evenodd">
        <g id="Rectangle">
            <use fill="black" fill-opacity="1" filter="url(#filter-2)" xlink:href="#path-1"></use>
            <use fill="#FFFFFF" fill-rule="evenodd" xlink:href="#path-1"></use>
        </g>
        <g id="auth-service-copy" filter="url(#filter-3)" transform="translate(717.000000, 73.000000)">
            <g id="node-service-with-note-copy">
                <path d="M10,1.5 C5.30557963,1.5 1.5,5.30557963 1.5,10 L1.5,73 C1.5,77.6944204 5.30557963,81.5 10,81.5 L176,81.5 C180.69442,81.5 184.5,77.6944204 184.5,73 L184.5,10 C184.5,5.30557963 180.69442,1.5 176,1.5 L10,1.5 Z" id="Rectangle-17" stroke="#3662A2" stroke-width="3" fill="#FFFFFF"></path>
                <path d="M54.1826087,35.8409091 L55.8822254,35.8409091 L60.0797635,44.1789534 L60.1055153,44.1789534 L60.1055153,35.8409091 L61.6377455,35.8409091 L61.6377455,47.1590909 L59.9381288,47.1590909 L55.7534665,38.8368984 L55.7148389,38.8368984 L55.7148389,47.1590909 L54.1826087,47.1590909 L54.1826087,35.8409091 Z M66.3889466,47.381016 C65.8567408,47.381016 65.3824838,47.2726965 64.9661615,47.0560542 C64.5498391,46.839412 64.1979018,46.5408728 63.910339,46.1604278 C63.6227761,45.7799828 63.4038883,45.3255692 63.2536689,44.7971734 C63.1034495,44.2687776 63.0283409,43.6875509 63.0283409,43.0534759 C63.0283409,42.4299689 63.1034495,41.8540261 63.2536689,41.3256303 C63.4038883,40.7972344 63.6227761,40.3428208 63.910339,39.9623759 C64.1979018,39.5819309 64.5498391,39.2833917 64.9661615,39.0667494 C65.3824838,38.8501071 65.8567408,38.7417876 66.3889466,38.7417876 C66.9211525,38.7417876 67.3954095,38.8501071 67.8117318,39.0667494 C68.2280541,39.2833917 68.5799914,39.5819309 68.8675543,39.9623759 C69.1551171,40.3428208 69.374005,40.7972344 69.5242244,41.3256303 C69.6744438,41.8540261 69.7495523,42.4299689 69.7495523,43.0534759 C69.7495523,43.6875509 69.6744438,44.2687776 69.5242244,44.7971734 C69.374005,45.3255692 69.1551171,45.7799828 68.8675543,46.1604278 C68.5799914,46.5408728 68.2280541,46.839412 67.8117318,47.0560542 C67.3954095,47.2726965 66.9211525,47.381016 66.3889466,47.381016 Z M66.3889466,45.9543545 C66.7151373,45.9543545 66.9984039,45.8698124 67.238755,45.7007257 C67.479106,45.5316391 67.6765343,45.3097162 67.8310456,45.0349503 C67.985557,44.7601845 68.0992928,44.4510776 68.1722566,44.1076203 C68.2452203,43.764163 68.2817016,43.4127851 68.2817016,43.0534759 C68.2817016,42.7047347 68.2452203,42.3559987 68.1722566,42.0072574 C68.0992928,41.6585162 67.985557,41.3494093 67.8310456,41.0799274 C67.6765343,40.8104456 67.479106,40.5911646 67.238755,40.4220779 C66.9984039,40.2529913 66.7151373,40.1684492 66.3889466,40.1684492 C66.0627559,40.1684492 65.7794893,40.2529913 65.5391383,40.4220779 C65.2987873,40.5911646 65.101359,40.8104456 64.9468476,41.0799274 C64.7923363,41.3494093 64.6786004,41.6585162 64.6056367,42.0072574 C64.532673,42.3559987 64.4961917,42.7047347 64.4961917,43.0534759 C64.4961917,43.4127851 64.532673,43.764163 64.6056367,44.1076203 C64.6786004,44.4510776 64.7923363,44.7601845 64.9468476,45.0349503 C65.101359,45.3097162 65.2987873,45.5316391 65.5391383,45.7007257 C65.7794893,45.8698124 66.0627559,45.9543545 66.3889466,45.9543545 Z M77.2433168,47.1590909 L75.8527213,47.1590909 L75.8527213,46.0494652 L75.8269695,46.0494652 C75.6295383,46.5250215 75.3419798,46.8658317 74.9642853,47.071906 C74.5865908,47.2779804 74.1874424,47.381016 73.7668281,47.381016 C73.2432062,47.381016 72.7861169,47.2674126 72.3955465,47.0402024 C72.004976,46.8129922 71.6809362,46.5038853 71.4234172,46.1128724 C71.1658983,45.7218595 70.9727619,45.2595201 70.8440025,44.7258403 C70.715243,44.1921606 70.6508642,43.6188597 70.6508642,43.0059206 C70.6508642,42.2661664 70.7324107,41.6268171 70.895506,41.0878533 C71.0586013,40.5488896 71.2753432,40.1050438 71.5457381,39.7563025 C71.816133,39.4075613 72.1251512,39.1512932 72.4728018,38.9874905 C72.8204524,38.8236877 73.1745356,38.7417876 73.5350622,38.7417876 C73.7410774,38.7417876 73.9513814,38.7655651 74.1659805,38.8131207 C74.3805796,38.8606763 74.5865917,38.9372926 74.7840229,39.0429717 C74.9814541,39.1486509 75.1638607,39.2833898 75.331248,39.4471925 C75.4986353,39.6109952 75.6381227,39.8038568 75.7497142,40.025783 L75.775466,40.025783 L75.775466,35.8409091 L77.2433168,35.8409091 L77.2433168,47.1590909 Z M72.118715,43.1485867 C72.118715,43.4973279 72.1551963,43.8407801 72.22816,44.1789534 C72.3011237,44.5171267 72.4127136,44.8183078 72.562933,45.0825057 C72.7131524,45.3467036 72.9041427,45.5580588 73.1359098,45.7165775 C73.3676769,45.8750963 73.6423596,45.9543545 73.9599664,45.9543545 C74.2861571,45.9543545 74.5672777,45.8698124 74.8033368,45.7007257 C75.0393958,45.5316391 75.2325321,45.3097162 75.3827515,45.0349503 C75.5329709,44.7601845 75.6445608,44.4510776 75.7175245,44.1076203 C75.7904882,43.764163 75.8269695,43.4127851 75.8269695,43.0534759 C75.8269695,42.1446351 75.6617307,41.4365954 75.331248,40.9293354 C75.0007653,40.4220754 74.5522599,40.1684492 73.9857181,40.1684492 C73.6423595,40.1684492 73.352655,40.2556332 73.116596,40.4300038 C72.8805369,40.6043744 72.6874006,40.8315812 72.5371812,41.111631 C72.3869618,41.3916808 72.2796638,41.7087135 72.2152841,42.0627387 C72.1509044,42.4167639 72.118715,42.7787096 72.118715,43.1485867 Z M83.4108652,42.3401451 C83.3936972,42.0548114 83.3443402,41.7800497 83.2627925,41.5158518 C83.1812448,41.2516539 83.0696549,41.0218052 82.9280195,40.8262987 C82.7863841,40.6307922 82.6147073,40.4722759 82.4129841,40.3507448 C82.211261,40.2292138 81.9859352,40.1684492 81.7370002,40.1684492 C81.4794813,40.1684492 81.2455717,40.2239299 81.0352646,40.334893 C80.8249574,40.4458562 80.6446968,40.5990887 80.4944774,40.7945951 C80.3442581,40.9901016 80.2240843,41.2199503 80.1339527,41.4841482 C80.0438211,41.7483461 79.994464,42.0336756 79.98588,42.3401451 L83.4108652,42.3401451 Z M79.98588,43.5290298 C79.98588,43.8460673 80.0223613,44.1525323 80.095325,44.4484339 C80.1682888,44.7443356 80.2777327,45.0032456 80.4236601,45.2251719 C80.5695875,45.4470981 80.75414,45.6241081 80.9773231,45.756207 C81.2005062,45.888306 81.4666051,45.9543545 81.7756279,45.9543545 C82.2048262,45.9543545 82.5503256,45.8407511 82.8121365,45.6135409 C83.0739475,45.3863307 83.2692298,45.0455205 83.3979893,44.5911001 L84.7885847,44.5911001 C84.711329,45.0349526 84.5782796,45.4312435 84.3894323,45.7799847 C84.2005851,46.128726 83.9731134,46.4219812 83.7070105,46.6597594 C83.4409075,46.8975375 83.1426192,47.0771894 82.8121365,47.1987204 C82.4816539,47.3202514 82.1361544,47.381016 81.7756279,47.381016 C81.252006,47.381016 80.7884788,47.2753385 80.3850324,47.0639801 C79.9815861,46.8526218 79.6403785,46.5567246 79.3613997,46.1762796 C79.0824208,45.7958346 78.8721168,45.341421 78.7304814,44.8130252 C78.5888459,44.2846294 78.5180293,43.7034027 78.5180293,43.0693277 C78.5180293,42.4880923 78.5931378,41.935927 78.7433572,41.4128151 C78.8935766,40.8897033 79.1081726,40.4300058 79.3871514,40.0337089 C79.6661303,39.6374121 80.0030459,39.3230213 80.3979083,39.0905271 C80.7927707,38.858033 81.2391302,38.7417876 81.7370002,38.7417876 C82.2606221,38.7417876 82.7305872,38.8765265 83.1469095,39.1460084 C83.5632319,39.4154903 83.9087313,39.7721521 84.1834182,40.2160046 C84.4581051,40.6598571 84.6576793,41.1697514 84.7821468,41.7457028 C84.9066143,42.3216543 84.9388037,42.9160906 84.8787159,43.5290298 L79.98588,43.5290298 Z M90.8402502,43.3863636 C90.8402502,43.8196482 90.900337,44.1895197 91.0205125,44.4959893 C91.1406881,44.8024589 91.3080729,45.0534431 91.522672,45.2489496 C91.7372711,45.444456 91.9840565,45.5871208 92.2630353,45.6769481 C92.5420142,45.7667753 92.8445945,45.8116883 93.1707851,45.8116883 C93.5227277,45.8116883 93.823162,45.7614915 94.072097,45.6610963 C94.321032,45.5607011 94.5227522,45.431246 94.6772636,45.2727273 C94.8317749,45.1142085 94.9433648,44.9319147 95.0120365,44.7258403 C95.0807083,44.519766 95.1150436,44.3110528 95.1150436,44.0996944 C95.1150436,43.6664099 95.0356431,43.3467352 94.8768398,43.1406608 C94.7180364,42.9345864 94.5442137,42.7892798 94.3553665,42.7047364 C94.0291758,42.5567856 93.649341,42.4167628 93.2158507,42.2846639 C92.7823605,42.1525649 92.2480166,41.9808388 91.6128032,41.7694805 C91.2179408,41.6426655 90.889609,41.4762233 90.6277981,41.270149 C90.3659871,41.0640746 90.1578291,40.8342259 90.0033177,40.5805959 C89.8488063,40.3269659 89.7393624,40.0574881 89.6749827,39.7721543 C89.6106029,39.4868206 89.5784135,39.1962072 89.5784135,38.9003056 C89.5784135,38.3296381 89.6749817,37.8355954 89.8681209,37.4181627 C90.0612602,37.00073 90.3166293,36.654636 90.634236,36.3798701 C90.9518427,36.1051043 91.3123639,35.901675 91.7158103,35.769576 C92.1192566,35.6374771 92.5269889,35.5714286 92.9390192,35.5714286 C93.4197213,35.5714286 93.8725187,35.6480448 94.297425,35.8012796 C94.7223313,35.9545144 95.0957282,36.1843631 95.4176269,36.4908327 C95.7395256,36.7973023 95.9948947,37.1750996 96.183742,37.6242361 C96.3725892,38.0733725 96.4670114,38.5938346 96.4670114,39.1856379 L94.8575259,39.1856379 C94.8146061,38.4564517 94.6128859,37.9412735 94.2523594,37.6400879 C93.8918328,37.3389022 93.4325976,37.1883117 92.8746398,37.1883117 C92.6857926,37.1883117 92.4926562,37.2120891 92.295225,37.2596448 C92.0977938,37.3072004 91.9175333,37.3864586 91.7544379,37.4974217 C91.5913426,37.6083848 91.4561471,37.7589754 91.3488476,37.9491979 C91.241548,38.1394204 91.187899,38.3771949 91.187899,38.6625286 C91.187899,39.0641095 91.2887591,39.3785003 91.4904823,39.6057105 C91.6922055,39.8329207 91.9561585,40.0046467 92.2823492,40.1208938 C92.316685,40.1314617 92.4518804,40.1763747 92.6879395,40.2556341 C92.9239986,40.3348934 93.1879515,40.4220774 93.4798064,40.5171887 C93.7716612,40.6122999 94.0570738,40.7047678 94.3360526,40.7945951 C94.6150315,40.8844224 94.8146057,40.9504709 94.9347812,40.9927426 C95.23522,41.1089896 95.4970271,41.267506 95.7202102,41.4682964 C95.9433933,41.6690868 96.1300917,41.8989356 96.2803111,42.1578495 C96.4305305,42.4167635 96.5421204,42.6941671 96.6150841,42.9900688 C96.6880478,43.2859704 96.7245291,43.5818676 96.7245291,43.8777693 C96.7245291,44.5118443 96.6193771,45.0534419 96.4090699,45.5025783 C96.1987628,45.9517147 95.9219341,46.3189443 95.5785754,46.6042781 C95.2352168,46.8896118 94.8446522,47.098325 94.40687,47.230424 C93.9690878,47.3625229 93.5227282,47.4285714 93.0677781,47.4285714 C92.5441562,47.4285714 92.0505856,47.3493132 91.5870514,47.1907945 C91.1235173,47.0322758 90.720077,46.7892173 90.3767183,46.4616119 C90.0333597,46.1340065 89.7586769,45.7139381 89.5526618,45.2013942 C89.3466466,44.6888503 89.2393486,44.0838461 89.2307647,43.3863636 L90.8402502,43.3863636 Z M102.492925,42.3401451 C102.475757,42.0548114 102.4264,41.7800497 102.344852,41.5158518 C102.263305,41.2516539 102.151715,41.0218052 102.010079,40.8262987 C101.868444,40.6307922 101.696767,40.4722759 101.495044,40.3507448 C101.293321,40.2292138 101.067995,40.1684492 100.81906,40.1684492 C100.561541,40.1684492 100.327632,40.2239299 100.117325,40.334893 C99.9070174,40.4458562 99.7267568,40.5990887 99.5765374,40.7945951 C99.426318,40.9901016 99.3061443,41.2199503 99.2160126,41.4841482 C99.125881,41.7483461 99.0765239,42.0336756 99.06794,42.3401451 L102.492925,42.3401451 Z M99.06794,43.5290298 C99.06794,43.8460673 99.1044213,44.1525323 99.177385,44.4484339 C99.2503487,44.7443356 99.3597926,45.0032456 99.50572,45.2251719 C99.6516474,45.4470981 99.8361999,45.6241081 100.059383,45.756207 C100.282566,45.888306 100.548665,45.9543545 100.857688,45.9543545 C101.286886,45.9543545 101.632386,45.8407511 101.894196,45.6135409 C102.156007,45.3863307 102.35129,45.0455205 102.480049,44.5911001 L103.870645,44.5911001 C103.793389,45.0349526 103.66034,45.4312435 103.471492,45.7799847 C103.282645,46.128726 103.055173,46.4219812 102.78907,46.6597594 C102.522967,46.8975375 102.224679,47.0771894 101.894196,47.1987204 C101.563714,47.3202514 101.218214,47.381016 100.857688,47.381016 C100.334066,47.381016 99.8705388,47.2753385 99.4670924,47.0639801 C99.063646,46.8526218 98.7224385,46.5567246 98.4434596,46.1762796 C98.1644807,45.7958346 97.9541767,45.341421 97.8125413,44.8130252 C97.6709059,44.2846294 97.6000892,43.7034027 97.6000892,43.0693277 C97.6000892,42.4880923 97.6751978,41.935927 97.8254172,41.4128151 C97.9756366,40.8897033 98.1902325,40.4300058 98.4692114,40.0337089 C98.7481903,39.6374121 99.0851058,39.3230213 99.4799683,39.0905271 C99.8748307,38.858033 100.32119,38.7417876 100.81906,38.7417876 C101.342682,38.7417876 101.812647,38.8765265 102.228969,39.1460084 C102.645292,39.4154903 102.990791,39.7721521 103.265478,40.2160046 C103.540165,40.6598571 103.739739,41.1697514 103.864207,41.7457028 C103.988674,42.3216543 104.020864,42.9160906 103.960776,43.5290298 L99.06794,43.5290298 Z M105.080978,38.9637128 L106.458697,38.9637128 L106.458697,40.5488923 L106.484449,40.5488923 C106.527369,40.326966 106.611061,40.110327 106.735529,39.8989687 C106.859996,39.6876104 107.010213,39.4947488 107.186185,39.3203782 C107.362156,39.1460075 107.557438,39.0059847 107.772037,38.9003056 C107.986637,38.7946264 108.205524,38.7417876 108.428708,38.7417876 C108.600387,38.7417876 108.718415,38.7470715 108.782794,38.7576394 C108.847174,38.7682073 108.913699,38.7787751 108.982371,38.789343 L108.982371,40.5330405 C108.879363,40.5119047 108.774211,40.4934111 108.666911,40.4775592 C108.559612,40.4617073 108.45446,40.4537815 108.351452,40.4537815 C108.102517,40.4537815 107.868608,40.5145461 107.649717,40.6360772 C107.430825,40.7576082 107.239835,40.9372601 107.07674,41.1750382 C106.913644,41.4128163 106.784887,41.7060716 106.690463,42.0548128 C106.59604,42.4035541 106.548829,42.8051289 106.548829,43.2595493 L106.548829,47.1590909 L105.080978,47.1590909 L105.080978,38.9637128 Z M108.956619,38.9637128 L110.553228,38.9637128 L112.239969,45.2568755 L112.265721,45.2568755 L113.888082,38.9637128 L115.407437,38.9637128 L113.025398,47.1590909 L111.377285,47.1590909 L108.956619,38.9637128 Z M116.3345,35.8409091 L117.802351,35.8409091 L117.802351,37.552903 L116.3345,37.552903 L116.3345,35.8409091 Z M116.3345,38.9637128 L117.802351,38.9637128 L117.802351,47.1590909 L116.3345,47.1590909 L116.3345,38.9637128 Z M123.892644,41.7060733 C123.832556,41.1988134 123.667318,40.8157321 123.396923,40.5568182 C123.126528,40.2979042 122.78532,40.1684492 122.37329,40.1684492 C122.184443,40.1684492 121.982722,40.2080783 121.768123,40.2873377 C121.553524,40.366597 121.356096,40.5145456 121.175833,40.7311879 C120.995569,40.9478302 120.845352,41.2490113 120.725177,41.6347403 C120.605001,42.0204692 120.544914,42.5250796 120.544914,43.1485867 C120.544914,43.48676 120.577104,43.8249283 120.641483,44.1631016 C120.705863,44.5012749 120.808869,44.802456 120.950505,45.0666539 C121.09214,45.3308518 121.274547,45.5448489 121.49773,45.7086516 C121.720913,45.8724543 121.991304,45.9543545 122.30891,45.9543545 C122.738109,45.9543545 123.092192,45.7905542 123.371171,45.4629488 C123.65015,45.1353434 123.823972,44.6756459 123.892644,44.0838426 L125.360495,44.0838426 C125.223151,45.1512022 124.89482,45.9675615 124.37549,46.532945 C123.85616,47.0983285 123.167307,47.381016 122.30891,47.381016 C121.785289,47.381016 121.323907,47.2726965 120.924753,47.0560542 C120.525598,46.839412 120.188683,46.5435147 119.913996,46.1683537 C119.639309,45.7931927 119.431151,45.3467049 119.289516,44.828877 C119.14788,44.3110491 119.077064,43.7509579 119.077064,43.1485867 C119.077064,42.5356476 119.145734,41.9597048 119.283078,41.420741 C119.420421,40.8817773 119.626433,40.414154 119.90112,40.0178571 C120.175807,39.6215603 120.517015,39.3098114 120.924753,39.0826012 C121.332491,38.855391 121.81104,38.7417876 122.360414,38.7417876 C122.746692,38.7417876 123.113651,38.8025522 123.461302,38.9240833 C123.808953,39.0456143 124.117971,39.2279081 124.388366,39.4709702 C124.658761,39.7140323 124.879794,40.0204973 125.051474,40.3903743 C125.223153,40.7602514 125.326159,41.1988134 125.360495,41.7060733 L123.892644,41.7060733 Z M131.128891,42.3401451 C131.111723,42.0548114 131.062366,41.7800497 130.980818,41.5158518 C130.899271,41.2516539 130.787681,41.0218052 130.646045,40.8262987 C130.50441,40.6307922 130.332733,40.4722759 130.13101,40.3507448 C129.929287,40.2292138 129.703961,40.1684492 129.455026,40.1684492 C129.197507,40.1684492 128.963597,40.2239299 128.75329,40.334893 C128.542983,40.4458562 128.362723,40.5990887 128.212503,40.7945951 C128.062284,40.9901016 127.94211,41.2199503 127.851978,41.4841482 C127.761847,41.7483461 127.71249,42.0336756 127.703906,42.3401451 L131.128891,42.3401451 Z M127.703906,43.5290298 C127.703906,43.8460673 127.740387,44.1525323 127.813351,44.4484339 C127.886314,44.7443356 127.995758,45.0032456 128.141686,45.2251719 C128.287613,45.4470981 128.472166,45.6241081 128.695349,45.756207 C128.918532,45.888306 129.184631,45.9543545 129.493654,45.9543545 C129.922852,45.9543545 130.268351,45.8407511 130.530162,45.6135409 C130.791973,45.3863307 130.987256,45.0455205 131.116015,44.5911001 L132.50661,44.5911001 C132.429355,45.0349526 132.296305,45.4312435 132.107458,45.7799847 C131.918611,46.128726 131.691139,46.4219812 131.425036,46.6597594 C131.158933,46.8975375 130.860645,47.0771894 130.530162,47.1987204 C130.19968,47.3202514 129.85418,47.381016 129.493654,47.381016 C128.970032,47.381016 128.506505,47.2753385 128.103058,47.0639801 C127.699612,46.8526218 127.358404,46.5567246 127.079425,46.1762796 C126.800447,45.7958346 126.590143,45.341421 126.448507,44.8130252 C126.306872,44.2846294 126.236055,43.7034027 126.236055,43.0693277 C126.236055,42.4880923 126.311164,41.935927 126.461383,41.4128151 C126.611602,40.8897033 126.826198,40.4300058 127.105177,40.0337089 C127.384156,39.6374121 127.721072,39.3230213 128.115934,39.0905271 C128.510796,38.858033 128.957156,38.7417876 129.455026,38.7417876 C129.978648,38.7417876 130.448613,38.8765265 130.864935,39.1460084 C131.281258,39.4154903 131.626757,39.7721521 131.901444,40.2160046 C132.176131,40.6598571 132.375705,41.1697514 132.500173,41.7457028 C132.62464,42.3216543 132.656829,42.9160906 132.596742,43.5290298 L127.703906,43.5290298 Z" id="Node-Service" fill="#4A4A4A"></path>
            </g>
            <g id="node-service-with-note-copy" transform="translate(15.000000, 55.000000)">
                <path d="M10,1.5 C5.30557963,1.5 1.5,5.30557963 1.5,10 L1.5,73 C1.5,77.6944204 5.30557963,81.5 10,81.5 L176,81.5 C180.69442,81.5 184.5,77.6944204 184.5,73 L184.5,10 C184.5,5.30557963 180.69442,1.5 176,1.5 L10,1.5 Z" id="Rectangle-17" stroke="#3662A2" stroke-width="3" fill="#FFFFFF"></path>
                <path d="M54.1826087,35.8409091 L55.8822254,35.8409091 L60.0797635,44.1789534 L60.1055153,44.1789534 L60.1055153,35.8409091 L61.6377455,35.8409091 L61.6377455,47.1590909 L59.9381288,47.1590909 L55.7534665,38.8368984 L55.7148389,38.8368984 L55.7148389,47.1590909 L54.1826087,47.1590909 L54.1826087,35.8409091 Z M66.3889466,47.381016 C65.8567408,47.381016 65.3824838,47.2726965 64.9661615,47.0560542 C64.5498391,46.839412 64.1979018,46.5408728 63.910339,46.1604278 C63.6227761,45.7799828 63.4038883,45.3255692 63.2536689,44.7971734 C63.1034495,44.2687776 63.0283409,43.6875509 63.0283409,43.0534759 C63.0283409,42.4299689 63.1034495,41.8540261 63.2536689,41.3256303 C63.4038883,40.7972344 63.6227761,40.3428208 63.910339,39.9623759 C64.1979018,39.5819309 64.5498391,39.2833917 64.9661615,39.0667494 C65.3824838,38.8501071 65.8567408,38.7417876 66.3889466,38.7417876 C66.9211525,38.7417876 67.3954095,38.8501071 67.8117318,39.0667494 C68.2280541,39.2833917 68.5799914,39.5819309 68.8675543,39.9623759 C69.1551171,40.3428208 69.374005,40.7972344 69.5242244,41.3256303 C69.6744438,41.8540261 69.7495523,42.4299689 69.7495523,43.0534759 C69.7495523,43.6875509 69.6744438,44.2687776 69.5242244,44.7971734 C69.374005,45.3255692 69.1551171,45.7799828 68.8675543,46.1604278 C68.5799914,46.5408728 68.2280541,46.839412 67.8117318,47.0560542 C67.3954095,47.2726965 66.9211525,47.381016 66.3889466,47.381016 Z M66.3889466,45.9543545 C66.7151373,45.9543545 66.9984039,45.8698124 67.238755,45.7007257 C67.479106,45.5316391 67.6765343,45.3097162 67.8310456,45.0349503 C67.985557,44.7601845 68.0992928,44.4510776 68.1722566,44.1076203 C68.2452203,43.764163 68.2817016,43.4127851 68.2817016,43.0534759 C68.2817016,42.7047347 68.2452203,42.3559987 68.1722566,42.0072574 C68.0992928,41.6585162 67.985557,41.3494093 67.8310456,41.0799274 C67.6765343,40.8104456 67.479106,40.5911646 67.238755,40.4220779 C66.9984039,40.2529913 66.7151373,40.1684492 66.3889466,40.1684492 C66.0627559,40.1684492 65.7794893,40.2529913 65.5391383,40.4220779 C65.2987873,40.5911646 65.101359,40.8104456 64.9468476,41.0799274 C64.7923363,41.3494093 64.6786004,41.6585162 64.6056367,42.0072574 C64.532673,42.3559987 64.4961917,42.7047347 64.4961917,43.0534759 C64.4961917,43.4127851 64.532673,43.764163 64.6056367,44.1076203 C64.6786004,44.4510776 64.7923363,44.7601845 64.9468476,45.0349503 C65.101359,45.3097162 65.2987873,45.5316391 65.5391383,45.7007257 C65.7794893,45.8698124 66.0627559,45.9543545 66.3889466,45.9543545 Z M77.2433168,47.1590909 L75.8527213,47.1590909 L75.8527213,46.0494652 L75.8269695,46.0494652 C75.6295383,46.5250215 75.3419798,46.8658317 74.9642853,47.071906 C74.5865908,47.2779804 74.1874424,47.381016 73.7668281,47.381016 C73.2432062,47.381016 72.7861169,47.2674126 72.3955465,47.0402024 C72.004976,46.8129922 71.6809362,46.5038853 71.4234172,46.1128724 C71.1658983,45.7218595 70.9727619,45.2595201 70.8440025,44.7258403 C70.715243,44.1921606 70.6508642,43.6188597 70.6508642,43.0059206 C70.6508642,42.2661664 70.7324107,41.6268171 70.895506,41.0878533 C71.0586013,40.5488896 71.2753432,40.1050438 71.5457381,39.7563025 C71.816133,39.4075613 72.1251512,39.1512932 72.4728018,38.9874905 C72.8204524,38.8236877 73.1745356,38.7417876 73.5350622,38.7417876 C73.7410774,38.7417876 73.9513814,38.7655651 74.1659805,38.8131207 C74.3805796,38.8606763 74.5865917,38.9372926 74.7840229,39.0429717 C74.9814541,39.1486509 75.1638607,39.2833898 75.331248,39.4471925 C75.4986353,39.6109952 75.6381227,39.8038568 75.7497142,40.025783 L75.775466,40.025783 L75.775466,35.8409091 L77.2433168,35.8409091 L77.2433168,47.1590909 Z M72.118715,43.1485867 C72.118715,43.4973279 72.1551963,43.8407801 72.22816,44.1789534 C72.3011237,44.5171267 72.4127136,44.8183078 72.562933,45.0825057 C72.7131524,45.3467036 72.9041427,45.5580588 73.1359098,45.7165775 C73.3676769,45.8750963 73.6423596,45.9543545 73.9599664,45.9543545 C74.2861571,45.9543545 74.5672777,45.8698124 74.8033368,45.7007257 C75.0393958,45.5316391 75.2325321,45.3097162 75.3827515,45.0349503 C75.5329709,44.7601845 75.6445608,44.4510776 75.7175245,44.1076203 C75.7904882,43.764163 75.8269695,43.4127851 75.8269695,43.0534759 C75.8269695,42.1446351 75.6617307,41.4365954 75.331248,40.9293354 C75.0007653,40.4220754 74.5522599,40.1684492 73.9857181,40.1684492 C73.6423595,40.1684492 73.352655,40.2556332 73.116596,40.4300038 C72.8805369,40.6043744 72.6874006,40.8315812 72.5371812,41.111631 C72.3869618,41.3916808 72.2796638,41.7087135 72.2152841,42.0627387 C72.1509044,42.4167639 72.118715,42.7787096 72.118715,43.1485867 Z M83.4108652,42.3401451 C83.3936972,42.0548114 83.3443402,41.7800497 83.2627925,41.5158518 C83.1812448,41.2516539 83.0696549,41.0218052 82.9280195,40.8262987 C82.7863841,40.6307922 82.6147073,40.4722759 82.4129841,40.3507448 C82.211261,40.2292138 81.9859352,40.1684492 81.7370002,40.1684492 C81.4794813,40.1684492 81.2455717,40.2239299 81.0352646,40.334893 C80.8249574,40.4458562 80.6446968,40.5990887 80.4944774,40.7945951 C80.3442581,40.9901016 80.2240843,41.2199503 80.1339527,41.4841482 C80.0438211,41.7483461 79.994464,42.0336756 79.98588,42.3401451 L83.4108652,42.3401451 Z M79.98588,43.5290298 C79.98588,43.8460673 80.0223613,44.1525323 80.095325,44.4484339 C80.1682888,44.7443356 80.2777327,45.0032456 80.4236601,45.2251719 C80.5695875,45.4470981 80.75414,45.6241081 80.9773231,45.756207 C81.2005062,45.888306 81.4666051,45.9543545 81.7756279,45.9543545 C82.2048262,45.9543545 82.5503256,45.8407511 82.8121365,45.6135409 C83.0739475,45.3863307 83.2692298,45.0455205 83.3979893,44.5911001 L84.7885847,44.5911001 C84.711329,45.0349526 84.5782796,45.4312435 84.3894323,45.7799847 C84.2005851,46.128726 83.9731134,46.4219812 83.7070105,46.6597594 C83.4409075,46.8975375 83.1426192,47.0771894 82.8121365,47.1987204 C82.4816539,47.3202514 82.1361544,47.381016 81.7756279,47.381016 C81.252006,47.381016 80.7884788,47.2753385 80.3850324,47.0639801 C79.9815861,46.8526218 79.6403785,46.5567246 79.3613997,46.1762796 C79.0824208,45.7958346 78.8721168,45.341421 78.7304814,44.8130252 C78.5888459,44.2846294 78.5180293,43.7034027 78.5180293,43.0693277 C78.5180293,42.4880923 78.5931378,41.935927 78.7433572,41.4128151 C78.8935766,40.8897033 79.1081726,40.4300058 79.3871514,40.0337089 C79.6661303,39.6374121 80.0030459,39.3230213 80.3979083,39.0905271 C80.7927707,38.858033 81.2391302,38.7417876 81.7370002,38.7417876 C82.2606221,38.7417876 82.7305872,38.8765265 83.1469095,39.1460084 C83.5632319,39.4154903 83.9087313,39.7721521 84.1834182,40.2160046 C84.4581051,40.6598571 84.6576793,41.1697514 84.7821468,41.7457028 C84.9066143,42.3216543 84.9388037,42.9160906 84.8787159,43.5290298 L79.98588,43.5290298 Z M90.8402502,43.3863636 C90.8402502,43.8196482 90.900337,44.1895197 91.0205125,44.4959893 C91.1406881,44.8024589 91.3080729,45.0534431 91.522672,45.2489496 C91.7372711,45.444456 91.9840565,45.5871208 92.2630353,45.6769481 C92.5420142,45.7667753 92.8445945,45.8116883 93.1707851,45.8116883 C93.5227277,45.8116883 93.823162,45.7614915 94.072097,45.6610963 C94.321032,45.5607011 94.5227522,45.431246 94.6772636,45.2727273 C94.8317749,45.1142085 94.9433648,44.9319147 95.0120365,44.7258403 C95.0807083,44.519766 95.1150436,44.3110528 95.1150436,44.0996944 C95.1150436,43.6664099 95.0356431,43.3467352 94.8768398,43.1406608 C94.7180364,42.9345864 94.5442137,42.7892798 94.3553665,42.7047364 C94.0291758,42.5567856 93.649341,42.4167628 93.2158507,42.2846639 C92.7823605,42.1525649 92.2480166,41.9808388 91.6128032,41.7694805 C91.2179408,41.6426655 90.889609,41.4762233 90.6277981,41.270149 C90.3659871,41.0640746 90.1578291,40.8342259 90.0033177,40.5805959 C89.8488063,40.3269659 89.7393624,40.0574881 89.6749827,39.7721543 C89.6106029,39.4868206 89.5784135,39.1962072 89.5784135,38.9003056 C89.5784135,38.3296381 89.6749817,37.8355954 89.8681209,37.4181627 C90.0612602,37.00073 90.3166293,36.654636 90.634236,36.3798701 C90.9518427,36.1051043 91.3123639,35.901675 91.7158103,35.769576 C92.1192566,35.6374771 92.5269889,35.5714286 92.9390192,35.5714286 C93.4197213,35.5714286 93.8725187,35.6480448 94.297425,35.8012796 C94.7223313,35.9545144 95.0957282,36.1843631 95.4176269,36.4908327 C95.7395256,36.7973023 95.9948947,37.1750996 96.183742,37.6242361 C96.3725892,38.0733725 96.4670114,38.5938346 96.4670114,39.1856379 L94.8575259,39.1856379 C94.8146061,38.4564517 94.6128859,37.9412735 94.2523594,37.6400879 C93.8918328,37.3389022 93.4325976,37.1883117 92.8746398,37.1883117 C92.6857926,37.1883117 92.4926562,37.2120891 92.295225,37.2596448 C92.0977938,37.3072004 91.9175333,37.3864586 91.7544379,37.4974217 C91.5913426,37.6083848 91.4561471,37.7589754 91.3488476,37.9491979 C91.241548,38.1394204 91.187899,38.3771949 91.187899,38.6625286 C91.187899,39.0641095 91.2887591,39.3785003 91.4904823,39.6057105 C91.6922055,39.8329207 91.9561585,40.0046467 92.2823492,40.1208938 C92.316685,40.1314617 92.4518804,40.1763747 92.6879395,40.2556341 C92.9239986,40.3348934 93.1879515,40.4220774 93.4798064,40.5171887 C93.7716612,40.6122999 94.0570738,40.7047678 94.3360526,40.7945951 C94.6150315,40.8844224 94.8146057,40.9504709 94.9347812,40.9927426 C95.23522,41.1089896 95.4970271,41.267506 95.7202102,41.4682964 C95.9433933,41.6690868 96.1300917,41.8989356 96.2803111,42.1578495 C96.4305305,42.4167635 96.5421204,42.6941671 96.6150841,42.9900688 C96.6880478,43.2859704 96.7245291,43.5818676 96.7245291,43.8777693 C96.7245291,44.5118443 96.6193771,45.0534419 96.4090699,45.5025783 C96.1987628,45.9517147 95.9219341,46.3189443 95.5785754,46.6042781 C95.2352168,46.8896118 94.8446522,47.098325 94.40687,47.230424 C93.9690878,47.3625229 93.5227282,47.4285714 93.0677781,47.4285714 C92.5441562,47.4285714 92.0505856,47.3493132 91.5870514,47.1907945 C91.1235173,47.0322758 90.720077,46.7892173 90.3767183,46.4616119 C90.0333597,46.1340065 89.7586769,45.7139381 89.5526618,45.2013942 C89.3466466,44.6888503 89.2393486,44.0838461 89.2307647,43.3863636 L90.8402502,43.3863636 Z M102.492925,42.3401451 C102.475757,42.0548114 102.4264,41.7800497 102.344852,41.5158518 C102.263305,41.2516539 102.151715,41.0218052 102.010079,40.8262987 C101.868444,40.6307922 101.696767,40.4722759 101.495044,40.3507448 C101.293321,40.2292138 101.067995,40.1684492 100.81906,40.1684492 C100.561541,40.1684492 100.327632,40.2239299 100.117325,40.334893 C99.9070174,40.4458562 99.7267568,40.5990887 99.5765374,40.7945951 C99.426318,40.9901016 99.3061443,41.2199503 99.2160126,41.4841482 C99.125881,41.7483461 99.0765239,42.0336756 99.06794,42.3401451 L102.492925,42.3401451 Z M99.06794,43.5290298 C99.06794,43.8460673 99.1044213,44.1525323 99.177385,44.4484339 C99.2503487,44.7443356 99.3597926,45.0032456 99.50572,45.2251719 C99.6516474,45.4470981 99.8361999,45.6241081 100.059383,45.756207 C100.282566,45.888306 100.548665,45.9543545 100.857688,45.9543545 C101.286886,45.9543545 101.632386,45.8407511 101.894196,45.6135409 C102.156007,45.3863307 102.35129,45.0455205 102.480049,44.5911001 L103.870645,44.5911001 C103.793389,45.0349526 103.66034,45.4312435 103.471492,45.7799847 C103.282645,46.128726 103.055173,46.4219812 102.78907,46.6597594 C102.522967,46.8975375 102.224679,47.0771894 101.894196,47.1987204 C101.563714,47.3202514 101.218214,47.381016 100.857688,47.381016 C100.334066,47.381016 99.8705388,47.2753385 99.4670924,47.0639801 C99.063646,46.8526218 98.7224385,46.5567246 98.4434596,46.1762796 C98.1644807,45.7958346 97.9541767,45.341421 97.8125413,44.8130252 C97.6709059,44.2846294 97.6000892,43.7034027 97.6000892,43.0693277 C97.6000892,42.4880923 97.6751978,41.935927 97.8254172,41.4128151 C97.9756366,40.8897033 98.1902325,40.4300058 98.4692114,40.0337089 C98.7481903,39.6374121 99.0851058,39.3230213 99.4799683,39.0905271 C99.8748307,38.858033 100.32119,38.7417876 100.81906,38.7417876 C101.342682,38.7417876 101.812647,38.8765265 102.228969,39.1460084 C102.645292,39.4154903 102.990791,39.7721521 103.265478,40.2160046 C103.540165,40.6598571 103.739739,41.1697514 103.864207,41.7457028 C103.988674,42.3216543 104.020864,42.9160906 103.960776,43.5290298 L99.06794,43.5290298 Z M105.080978,38.9637128 L106.458697,38.9637128 L106.458697,40.5488923 L106.484449,40.5488923 C106.527369,40.326966 106.611061,40.110327 106.735529,39.8989687 C106.859996,39.6876104 107.010213,39.4947488 107.186185,39.3203782 C107.362156,39.1460075 107.557438,39.0059847 107.772037,38.9003056 C107.986637,38.7946264 108.205524,38.7417876 108.428708,38.7417876 C108.600387,38.7417876 108.718415,38.7470715 108.782794,38.7576394 C108.847174,38.7682073 108.913699,38.7787751 108.982371,38.789343 L108.982371,40.5330405 C108.879363,40.5119047 108.774211,40.4934111 108.666911,40.4775592 C108.559612,40.4617073 108.45446,40.4537815 108.351452,40.4537815 C108.102517,40.4537815 107.868608,40.5145461 107.649717,40.6360772 C107.430825,40.7576082 107.239835,40.9372601 107.07674,41.1750382 C106.913644,41.4128163 106.784887,41.7060716 106.690463,42.0548128 C106.59604,42.4035541 106.548829,42.8051289 106.548829,43.2595493 L106.548829,47.1590909 L105.080978,47.1590909 L105.080978,38.9637128 Z M108.956619,38.9637128 L110.553228,38.9637128 L112.239969,45.2568755 L112.265721,45.2568755 L113.888082,38.9637128 L115.407437,38.9637128 L113.025398,47.1590909 L111.377285,47.1590909 L108.956619,38.9637128 Z M116.3345,35.8409091 L117.802351,35.8409091 L117.802351,37.552903 L116.3345,37.552903 L116.3345,35.8409091 Z M116.3345,38.9637128 L117.802351,38.9637128 L117.802351,47.1590909 L116.3345,47.1590909 L116.3345,38.9637128 Z M123.892644,41.7060733 C123.832556,41.1988134 123.667318,40.8157321 123.396923,40.5568182 C123.126528,40.2979042 122.78532,40.1684492 122.37329,40.1684492 C122.184443,40.1684492 121.982722,40.2080783 121.768123,40.2873377 C121.553524,40.366597 121.356096,40.5145456 121.175833,40.7311879 C120.995569,40.9478302 120.845352,41.2490113 120.725177,41.6347403 C120.605001,42.0204692 120.544914,42.5250796 120.544914,43.1485867 C120.544914,43.48676 120.577104,43.8249283 120.641483,44.1631016 C120.705863,44.5012749 120.808869,44.802456 120.950505,45.0666539 C121.09214,45.3308518 121.274547,45.5448489 121.49773,45.7086516 C121.720913,45.8724543 121.991304,45.9543545 122.30891,45.9543545 C122.738109,45.9543545 123.092192,45.7905542 123.371171,45.4629488 C123.65015,45.1353434 123.823972,44.6756459 123.892644,44.0838426 L125.360495,44.0838426 C125.223151,45.1512022 124.89482,45.9675615 124.37549,46.532945 C123.85616,47.0983285 123.167307,47.381016 122.30891,47.381016 C121.785289,47.381016 121.323907,47.2726965 120.924753,47.0560542 C120.525598,46.839412 120.188683,46.5435147 119.913996,46.1683537 C119.639309,45.7931927 119.431151,45.3467049 119.289516,44.828877 C119.14788,44.3110491 119.077064,43.7509579 119.077064,43.1485867 C119.077064,42.5356476 119.145734,41.9597048 119.283078,41.420741 C119.420421,40.8817773 119.626433,40.414154 119.90112,40.0178571 C120.175807,39.6215603 120.517015,39.3098114 120.924753,39.0826012 C121.332491,38.855391 121.81104,38.7417876 122.360414,38.7417876 C122.746692,38.7417876 123.113651,38.8025522 123.461302,38.9240833 C123.808953,39.0456143 124.117971,39.2279081 124.388366,39.4709702 C124.658761,39.7140323 124.879794,40.0204973 125.051474,40.3903743 C125.223153,40.7602514 125.326159,41.1988134 125.360495,41.7060733 L123.892644,41.7060733 Z M131.128891,42.3401451 C131.111723,42.0548114 131.062366,41.7800497 130.980818,41.5158518 C130.899271,41.2516539 130.787681,41.0218052 130.646045,40.8262987 C130.50441,40.6307922 130.332733,40.4722759 130.13101,40.3507448 C129.929287,40.2292138 129.703961,40.1684492 129.455026,40.1684492 C129.197507,40.1684492 128.963597,40.2239299 128.75329,40.334893 C128.542983,40.4458562 128.362723,40.5990887 128.212503,40.7945951 C128.062284,40.9901016 127.94211,41.2199503 127.851978,41.4841482 C127.761847,41.7483461 127.71249,42.0336756 127.703906,42.3401451 L131.128891,42.3401451 Z M127.703906,43.5290298 C127.703906,43.8460673 127.740387,44.1525323 127.813351,44.4484339 C127.886314,44.7443356 127.995758,45.0032456 128.141686,45.2251719 C128.287613,45.4470981 128.472166,45.6241081 128.695349,45.756207 C128.918532,45.888306 129.184631,45.9543545 129.493654,45.9543545 C129.922852,45.9543545 130.268351,45.8407511 130.530162,45.6135409 C130.791973,45.3863307 130.987256,45.0455205 131.116015,44.5911001 L132.50661,44.5911001 C132.429355,45.0349526 132.296305,45.4312435 132.107458,45.7799847 C131.918611,46.128726 131.691139,46.4219812 131.425036,46.6597594 C131.158933,46.8975375 130.860645,47.0771894 130.530162,47.1987204 C130.19968,47.3202514 129.85418,47.381016 129.493654,47.381016 C128.970032,47.381016 128.506505,47.2753385 128.103058,47.0639801 C127.699612,46.8526218 127.358404,46.5567246 127.079425,46.1762796 C126.800447,45.7958346 126.590143,45.341421 126.448507,44.8130252 C126.306872,44.2846294 126.236055,43.7034027 126.236055,43.0693277 C126.236055,42.4880923 126.311164,41.935927 126.461383,41.4128151 C126.611602,40.8897033 126.826198,40.4300058 127.105177,40.0337089 C127.384156,39.6374121 127.721072,39.3230213 128.115934,39.0905271 C128.510796,38.858033 128.957156,38.7417876 129.455026,38.7417876 C129.978648,38.7417876 130.448613,38.8765265 130.864935,39.1460084 C131.281258,39.4154903 131.626757,39.7721521 131.901444,40.2160046 C132.176131,40.6598571 132.375705,41.1697514 132.500173,41.7457028 C132.62464,42.3216543 132.656829,42.9160906 132.596742,43.5290298 L127.703906,43.5290298 Z" id="Node-Service" fill="#4A4A4A"></path>
            </g>
            <g id="node-service-with-note-copy" transform="translate(32.000000, 106.000000)">
                <path d="M10,1.5 C5.30557963,1.5 1.5,5.30557963 1.5,10 L1.5,73 C1.5,77.6944204 5.30557963,81.5 10,81.5 L176,81.5 C180.69442,81.5 184.5,77.6944204 184.5,73 L184.5,10 C184.5,5.30557963 180.69442,1.5 176,1.5 L10,1.5 Z" id="Rectangle-17" stroke="#3662A2" stroke-width="3" fill="#FFFFFF"></path>
                <path d="M54.1826087,35.8409091 L55.8822254,35.8409091 L60.0797635,44.1789534 L60.1055153,44.1789534 L60.1055153,35.8409091 L61.6377455,35.8409091 L61.6377455,47.1590909 L59.9381288,47.1590909 L55.7534665,38.8368984 L55.7148389,38.8368984 L55.7148389,47.1590909 L54.1826087,47.1590909 L54.1826087,35.8409091 Z M66.3889466,47.381016 C65.8567408,47.381016 65.3824838,47.2726965 64.9661615,47.0560542 C64.5498391,46.839412 64.1979018,46.5408728 63.910339,46.1604278 C63.6227761,45.7799828 63.4038883,45.3255692 63.2536689,44.7971734 C63.1034495,44.2687776 63.0283409,43.6875509 63.0283409,43.0534759 C63.0283409,42.4299689 63.1034495,41.8540261 63.2536689,41.3256303 C63.4038883,40.7972344 63.6227761,40.3428208 63.910339,39.9623759 C64.1979018,39.5819309 64.5498391,39.2833917 64.9661615,39.0667494 C65.3824838,38.8501071 65.8567408,38.7417876 66.3889466,38.7417876 C66.9211525,38.7417876 67.3954095,38.8501071 67.8117318,39.0667494 C68.2280541,39.2833917 68.5799914,39.5819309 68.8675543,39.9623759 C69.1551171,40.3428208 69.374005,40.7972344 69.5242244,41.3256303 C69.6744438,41.8540261 69.7495523,42.4299689 69.7495523,43.0534759 C69.7495523,43.6875509 69.6744438,44.2687776 69.5242244,44.7971734 C69.374005,45.3255692 69.1551171,45.7799828 68.8675543,46.1604278 C68.5799914,46.5408728 68.2280541,46.839412 67.8117318,47.0560542 C67.3954095,47.2726965 66.9211525,47.381016 66.3889466,47.381016 Z M66.3889466,45.9543545 C66.7151373,45.9543545 66.9984039,45.8698124 67.238755,45.7007257 C67.479106,45.5316391 67.6765343,45.3097162 67.8310456,45.0349503 C67.985557,44.7601845 68.0992928,44.4510776 68.1722566,44.1076203 C68.2452203,43.764163 68.2817016,43.4127851 68.2817016,43.0534759 C68.2817016,42.7047347 68.2452203,42.3559987 68.1722566,42.0072574 C68.0992928,41.6585162 67.985557,41.3494093 67.8310456,41.0799274 C67.6765343,40.8104456 67.479106,40.5911646 67.238755,40.4220779 C66.9984039,40.2529913 66.7151373,40.1684492 66.3889466,40.1684492 C66.0627559,40.1684492 65.7794893,40.2529913 65.5391383,40.4220779 C65.2987873,40.5911646 65.101359,40.8104456 64.9468476,41.0799274 C64.7923363,41.3494093 64.6786004,41.6585162 64.6056367,42.0072574 C64.532673,42.3559987 64.4961917,42.7047347 64.4961917,43.0534759 C64.4961917,43.4127851 64.532673,43.764163 64.6056367,44.1076203 C64.6786004,44.4510776 64.7923363,44.7601845 64.9468476,45.0349503 C65.101359,45.3097162 65.2987873,45.5316391 65.5391383,45.7007257 C65.7794893,45.8698124 66.0627559,45.9543545 66.3889466,45.9543545 Z M77.2433168,47.1590909 L75.8527213,47.1590909 L75.8527213,46.0494652 L75.8269695,46.0494652 C75.6295383,46.5250215 75.3419798,46.8658317 74.9642853,47.071906 C74.5865908,47.2779804 74.1874424,47.381016 73.7668281,47.381016 C73.2432062,47.381016 72.7861169,47.2674126 72.3955465,47.0402024 C72.004976,46.8129922 71.6809362,46.5038853 71.4234172,46.1128724 C71.1658983,45.7218595 70.9727619,45.2595201 70.8440025,44.7258403 C70.715243,44.1921606 70.6508642,43.6188597 70.6508642,43.0059206 C70.6508642,42.2661664 70.7324107,41.6268171 70.895506,41.0878533 C71.0586013,40.5488896 71.2753432,40.1050438 71.5457381,39.7563025 C71.816133,39.4075613 72.1251512,39.1512932 72.4728018,38.9874905 C72.8204524,38.8236877 73.1745356,38.7417876 73.5350622,38.7417876 C73.7410774,38.7417876 73.9513814,38.7655651 74.1659805,38.8131207 C74.3805796,38.8606763 74.5865917,38.9372926 74.7840229,39.0429717 C74.9814541,39.1486509 75.1638607,39.2833898 75.331248,39.4471925 C75.4986353,39.6109952 75.6381227,39.8038568 75.7497142,40.025783 L75.775466,40.025783 L75.775466,35.8409091 L77.2433168,35.8409091 L77.2433168,47.1590909 Z M72.118715,43.1485867 C72.118715,43.4973279 72.1551963,43.8407801 72.22816,44.1789534 C72.3011237,44.5171267 72.4127136,44.8183078 72.562933,45.0825057 C72.7131524,45.3467036 72.9041427,45.5580588 73.1359098,45.7165775 C73.3676769,45.8750963 73.6423596,45.9543545 73.9599664,45.9543545 C74.2861571,45.9543545 74.5672777,45.8698124 74.8033368,45.7007257 C75.0393958,45.5316391 75.2325321,45.3097162 75.3827515,45.0349503 C75.5329709,44.7601845 75.6445608,44.4510776 75.7175245,44.1076203 C75.7904882,43.764163 75.8269695,43.4127851 75.8269695,43.0534759 C75.8269695,42.1446351 75.6617307,41.4365954 75.331248,40.9293354 C75.0007653,40.4220754 74.5522599,40.1684492 73.9857181,40.1684492 C73.6423595,40.1684492 73.352655,40.2556332 73.116596,40.4300038 C72.8805369,40.6043744 72.6874006,40.8315812 72.5371812,41.111631 C72.3869618,41.3916808 72.2796638,41.7087135 72.2152841,42.0627387 C72.1509044,42.4167639 72.118715,42.7787096 72.118715,43.1485867 Z M83.4108652,42.3401451 C83.3936972,42.0548114 83.3443402,41.7800497 83.2627925,41.5158518 C83.1812448,41.2516539 83.0696549,41.0218052 82.9280195,40.8262987 C82.7863841,40.6307922 82.6147073,40.4722759 82.4129841,40.3507448 C82.211261,40.2292138 81.9859352,40.1684492 81.7370002,40.1684492 C81.4794813,40.1684492 81.2455717,40.2239299 81.0352646,40.334893 C80.8249574,40.4458562 80.6446968,40.5990887 80.4944774,40.7945951 C80.3442581,40.9901016 80.2240843,41.2199503 80.1339527,41.4841482 C80.0438211,41.7483461 79.994464,42.0336756 79.98588,42.3401451 L83.4108652,42.3401451 Z M79.98588,43.5290298 C79.98588,43.8460673 80.0223613,44.1525323 80.095325,44.4484339 C80.1682888,44.7443356 80.2777327,45.0032456 80.4236601,45.2251719 C80.5695875,45.4470981 80.75414,45.6241081 80.9773231,45.756207 C81.2005062,45.888306 81.4666051,45.9543545 81.7756279,45.9543545 C82.2048262,45.9543545 82.5503256,45.8407511 82.8121365,45.6135409 C83.0739475,45.3863307 83.2692298,45.0455205 83.3979893,44.5911001 L84.7885847,44.5911001 C84.711329,45.0349526 84.5782796,45.4312435 84.3894323,45.7799847 C84.2005851,46.128726 83.9731134,46.4219812 83.7070105,46.6597594 C83.4409075,46.8975375 83.1426192,47.0771894 82.8121365,47.1987204 C82.4816539,47.3202514 82.1361544,47.381016 81.7756279,47.381016 C81.252006,47.381016 80.7884788,47.2753385 80.3850324,47.0639801 C79.9815861,46.8526218 79.6403785,46.5567246 79.3613997,46.1762796 C79.0824208,45.7958346 78.8721168,45.341421 78.7304814,44.8130252 C78.5888459,44.2846294 78.5180293,43.7034027 78.5180293,43.0693277 C78.5180293,42.4880923 78.5931378,41.935927 78.7433572,41.4128151 C78.8935766,40.8897033 79.1081726,40.4300058 79.3871514,40.0337089 C79.6661303,39.6374121 80.0030459,39.3230213 80.3979083,39.0905271 C80.7927707,38.858033 81.2391302,38.7417876 81.7370002,38.7417876 C82.2606221,38.7417876 82.7305872,38.8765265 83.1469095,39.1460084 C83.5632319,39.4154903 83.9087313,39.7721521 84.1834182,40.2160046 C84.4581051,40.6598571 84.6576793,41.1697514 84.7821468,41.7457028 C84.9066143,42.3216543 84.9388037,42.9160906 84.8787159,43.5290298 L79.98588,43.5290298 Z M90.8402502,43.3863636 C90.8402502,43.8196482 90.900337,44.1895197 91.0205125,44.4959893 C91.1406881,44.8024589 91.3080729,45.0534431 91.522672,45.2489496 C91.7372711,45.444456 91.9840565,45.5871208 92.2630353,45.6769481 C92.5420142,45.7667753 92.8445945,45.8116883 93.1707851,45.8116883 C93.5227277,45.8116883 93.823162,45.7614915 94.072097,45.6610963 C94.321032,45.5607011 94.5227522,45.431246 94.6772636,45.2727273 C94.8317749,45.1142085 94.9433648,44.9319147 95.0120365,44.7258403 C95.0807083,44.519766 95.1150436,44.3110528 95.1150436,44.0996944 C95.1150436,43.6664099 95.0356431,43.3467352 94.8768398,43.1406608 C94.7180364,42.9345864 94.5442137,42.7892798 94.3553665,42.7047364 C94.0291758,42.5567856 93.649341,42.4167628 93.2158507,42.2846639 C92.7823605,42.1525649 92.2480166,41.9808388 91.6128032,41.7694805 C91.2179408,41.6426655 90.889609,41.4762233 90.6277981,41.270149 C90.3659871,41.0640746 90.1578291,40.8342259 90.0033177,40.5805959 C89.8488063,40.3269659 89.7393624,40.0574881 89.6749827,39.7721543 C89.6106029,39.4868206 89.5784135,39.1962072 89.5784135,38.9003056 C89.5784135,38.3296381 89.6749817,37.8355954 89.8681209,37.4181627 C90.0612602,37.00073 90.3166293,36.654636 90.634236,36.3798701 C90.9518427,36.1051043 91.3123639,35.901675 91.7158103,35.769576 C92.1192566,35.6374771 92.5269889,35.5714286 92.9390192,35.5714286 C93.4197213,35.5714286 93.8725187,35.6480448 94.297425,35.8012796 C94.7223313,35.9545144 95.0957282,36.1843631 95.4176269,36.4908327 C95.7395256,36.7973023 95.9948947,37.1750996 96.183742,37.6242361 C96.3725892,38.0733725 96.4670114,38.5938346 96.4670114,39.1856379 L94.8575259,39.1856379 C94.8146061,38.4564517 94.6128859,37.9412735 94.2523594,37.6400879 C93.8918328,37.3389022 93.4325976,37.1883117 92.8746398,37.1883117 C92.6857926,37.1883117 92.4926562,37.2120891 92.295225,37.2596448 C92.0977938,37.3072004 91.9175333,37.3864586 91.7544379,37.4974217 C91.5913426,37.6083848 91.4561471,37.7589754 91.3488476,37.9491979 C91.241548,38.1394204 91.187899,38.3771949 91.187899,38.6625286 C91.187899,39.0641095 91.2887591,39.3785003 91.4904823,39.6057105 C91.6922055,39.8329207 91.9561585,40.0046467 92.2823492,40.1208938 C92.316685,40.1314617 92.4518804,40.1763747 92.6879395,40.2556341 C92.9239986,40.3348934 93.1879515,40.4220774 93.4798064,40.5171887 C93.7716612,40.6122999 94.0570738,40.7047678 94.3360526,40.7945951 C94.6150315,40.8844224 94.8146057,40.9504709 94.9347812,40.9927426 C95.23522,41.1089896 95.4970271,41.267506 95.7202102,41.4682964 C95.9433933,41.6690868 96.1300917,41.8989356 96.2803111,42.1578495 C96.4305305,42.4167635 96.5421204,42.6941671 96.6150841,42.9900688 C96.6880478,43.2859704 96.7245291,43.5818676 96.7245291,43.8777693 C96.7245291,44.5118443 96.6193771,45.0534419 96.4090699,45.5025783 C96.1987628,45.9517147 95.9219341,46.3189443 95.5785754,46.6042781 C95.2352168,46.8896118 94.8446522,47.098325 94.40687,47.230424 C93.9690878,47.3625229 93.5227282,47.4285714 93.0677781,47.4285714 C92.5441562,47.4285714 92.0505856,47.3493132 91.5870514,47.1907945 C91.1235173,47.0322758 90.720077,46.7892173 90.3767183,46.4616119 C90.0333597,46.1340065 89.7586769,45.7139381 89.5526618,45.2013942 C89.3466466,44.6888503 89.2393486,44.0838461 89.2307647,43.3863636 L90.8402502,43.3863636 Z M102.492925,42.3401451 C102.475757,42.0548114 102.4264,41.7800497 102.344852,41.5158518 C102.263305,41.2516539 102.151715,41.0218052 102.010079,40.8262987 C101.868444,40.6307922 101.696767,40.4722759 101.495044,40.3507448 C101.293321,40.2292138 101.067995,40.1684492 100.81906,40.1684492 C100.561541,40.1684492 100.327632,40.2239299 100.117325,40.334893 C99.9070174,40.4458562 99.7267568,40.5990887 99.5765374,40.7945951 C99.426318,40.9901016 99.3061443,41.2199503 99.2160126,41.4841482 C99.125881,41.7483461 99.0765239,42.0336756 99.06794,42.3401451 L102.492925,42.3401451 Z M99.06794,43.5290298 C99.06794,43.8460673 99.1044213,44.1525323 99.177385,44.4484339 C99.2503487,44.7443356 99.3597926,45.0032456 99.50572,45.2251719 C99.6516474,45.4470981 99.8361999,45.6241081 100.059383,45.756207 C100.282566,45.888306 100.548665,45.9543545 100.857688,45.9543545 C101.286886,45.9543545 101.632386,45.8407511 101.894196,45.6135409 C102.156007,45.3863307 102.35129,45.0455205 102.480049,44.5911001 L103.870645,44.5911001 C103.793389,45.0349526 103.66034,45.4312435 103.471492,45.7799847 C103.282645,46.128726 103.055173,46.4219812 102.78907,46.6597594 C102.522967,46.8975375 102.224679,47.0771894 101.894196,47.1987204 C101.563714,47.3202514 101.218214,47.381016 100.857688,47.381016 C100.334066,47.381016 99.8705388,47.2753385 99.4670924,47.0639801 C99.063646,46.8526218 98.7224385,46.5567246 98.4434596,46.1762796 C98.1644807,45.7958346 97.9541767,45.341421 97.8125413,44.8130252 C97.6709059,44.2846294 97.6000892,43.7034027 97.6000892,43.0693277 C97.6000892,42.4880923 97.6751978,41.935927 97.8254172,41.4128151 C97.9756366,40.8897033 98.1902325,40.4300058 98.4692114,40.0337089 C98.7481903,39.6374121 99.0851058,39.3230213 99.4799683,39.0905271 C99.8748307,38.858033 100.32119,38.7417876 100.81906,38.7417876 C101.342682,38.7417876 101.812647,38.8765265 102.228969,39.1460084 C102.645292,39.4154903 102.990791,39.7721521 103.265478,40.2160046 C103.540165,40.6598571 103.739739,41.1697514 103.864207,41.7457028 C103.988674,42.3216543 104.020864,42.9160906 103.960776,43.5290298 L99.06794,43.5290298 Z M105.080978,38.9637128 L106.458697,38.9637128 L106.458697,40.5488923 L106.484449,40.5488923 C106.527369,40.326966 106.611061,40.110327 106.735529,39.8989687 C106.859996,39.6876104 107.010213,39.4947488 107.186185,39.3203782 C107.362156,39.1460075 107.557438,39.0059847 107.772037,38.9003056 C107.986637,38.7946264 108.205524,38.7417876 108.428708,38.7417876 C108.600387,38.7417876 108.718415,38.7470715 108.782794,38.7576394 C108.847174,38.7682073 108.913699,38.7787751 108.982371,38.789343 L108.982371,40.5330405 C108.879363,40.5119047 108.774211,40.4934111 108.666911,40.4775592 C108.559612,40.4617073 108.45446,40.4537815 108.351452,40.4537815 C108.102517,40.4537815 107.868608,40.5145461 107.649717,40.6360772 C107.430825,40.7576082 107.239835,40.9372601 107.07674,41.1750382 C106.913644,41.4128163 106.784887,41.7060716 106.690463,42.0548128 C106.59604,42.4035541 106.548829,42.8051289 106.548829,43.2595493 L106.548829,47.1590909 L105.080978,47.1590909 L105.080978,38.9637128 Z M108.956619,38.9637128 L110.553228,38.9637128 L112.239969,45.2568755 L112.265721,45.2568755 L113.888082,38.9637128 L115.407437,38.9637128 L113.025398,47.1590909 L111.377285,47.1590909 L108.956619,38.9637128 Z M116.3345,35.8409091 L117.802351,35.8409091 L117.802351,37.552903 L116.3345,37.552903 L116.3345,35.8409091 Z M116.3345,38.9637128 L117.802351,38.9637128 L117.802351,47.1590909 L116.3345,47.1590909 L116.3345,38.9637128 Z M123.892644,41.7060733 C123.832556,41.1988134 123.667318,40.8157321 123.396923,40.5568182 C123.126528,40.2979042 122.78532,40.1684492 122.37329,40.1684492 C122.184443,40.1684492 121.982722,40.2080783 121.768123,40.2873377 C121.553524,40.366597 121.356096,40.5145456 121.175833,40.7311879 C120.995569,40.9478302 120.845352,41.2490113 120.725177,41.6347403 C120.605001,42.0204692 120.544914,42.5250796 120.544914,43.1485867 C120.544914,43.48676 120.577104,43.8249283 120.641483,44.1631016 C120.705863,44.5012749 120.808869,44.802456 120.950505,45.0666539 C121.09214,45.3308518 121.274547,45.5448489 121.49773,45.7086516 C121.720913,45.8724543 121.991304,45.9543545 122.30891,45.9543545 C122.738109,45.9543545 123.092192,45.7905542 123.371171,45.4629488 C123.65015,45.1353434 123.823972,44.6756459 123.892644,44.0838426 L125.360495,44.0838426 C125.223151,45.1512022 124.89482,45.9675615 124.37549,46.532945 C123.85616,47.0983285 123.167307,47.381016 122.30891,47.381016 C121.785289,47.381016 121.323907,47.2726965 120.924753,47.0560542 C120.525598,46.839412 120.188683,46.5435147 119.913996,46.1683537 C119.639309,45.7931927 119.431151,45.3467049 119.289516,44.828877 C119.14788,44.3110491 119.077064,43.7509579 119.077064,43.1485867 C119.077064,42.5356476 119.145734,41.9597048 119.283078,41.420741 C119.420421,40.8817773 119.626433,40.414154 119.90112,40.0178571 C120.175807,39.6215603 120.517015,39.3098114 120.924753,39.0826012 C121.332491,38.855391 121.81104,38.7417876 122.360414,38.7417876 C122.746692,38.7417876 123.113651,38.8025522 123.461302,38.9240833 C123.808953,39.0456143 124.117971,39.2279081 124.388366,39.4709702 C124.658761,39.7140323 124.879794,40.0204973 125.051474,40.3903743 C125.223153,40.7602514 125.326159,41.1988134 125.360495,41.7060733 L123.892644,41.7060733 Z M131.128891,42.3401451 C131.111723,42.0548114 131.062366,41.7800497 130.980818,41.5158518 C130.899271,41.2516539 130.787681,41.0218052 130.646045,40.8262987 C130.50441,40.6307922 130.332733,40.4722759 130.13101,40.3507448 C129.929287,40.2292138 129.703961,40.1684492 129.455026,40.1684492 C129.197507,40.1684492 128.963597,40.2239299 128.75329,40.334893 C128.542983,40.4458562 128.362723,40.5990887 128.212503,40.7945951 C128.062284,40.9901016 127.94211,41.2199503 127.851978,41.4841482 C127.761847,41.7483461 127.71249,42.0336756 127.703906,42.3401451 L131.128891,42.3401451 Z M127.703906,43.5290298 C127.703906,43.8460673 127.740387,44.1525323 127.813351,44.4484339 C127.886314,44.7443356 127.995758,45.0032456 128.141686,45.2251719 C128.287613,45.4470981 128.472166,45.6241081 128.695349,45.756207 C128.918532,45.888306 129.184631,45.9543545 129.493654,45.9543545 C129.922852,45.9543545 130.268351,45.8407511 130.530162,45.6135409 C130.791973,45.3863307 130.987256,45.0455205 131.116015,44.5911001 L132.50661,44.5911001 C132.429355,45.0349526 132.296305,45.4312435 132.107458,45.7799847 C131.918611,46.128726 131.691139,46.4219812 131.425036,46.6597594 C131.158933,46.8975375 130.860645,47.0771894 130.530162,47.1987204 C130.19968,47.3202514 129.85418,47.381016 129.493654,47.381016 C128.970032,47.381016 128.506505,47.2753385 128.103058,47.0639801 C127.699612,46.8526218 127.358404,46.5567246 127.079425,46.1762796 C126.800447,45.7958346 126.590143,45.341421 126.448507,44.8130252 C126.306872,44.2846294 126.236055,43.7034027 126.236055,43.0693277 C126.236055,42.4880923 126.311164,41.935927 126.461383,41.4128151 C126.611602,40.8897033 126.826198,40.4300058 127.105177,40.0337089 C127.384156,39.6374121 127.721072,39.3230213 128.115934,39.0905271 C128.510796,38.858033 128.957156,38.7417876 129.455026,38.7417876 C129.978648,38.7417876 130.448613,38.8765265 130.864935,39.1460084 C131.281258,39.4154903 131.626757,39.7721521 131.901444,40.2160046 C132.176131,40.6598571 132.375705,41.1697514 132.500173,41.7457028 C132.62464,42.3216543 132.656829,42.9160906 132.596742,43.5290298 L127.703906,43.5290298 Z" id="Node-Service" fill="#4A4A4A"></path>
            </g>
        </g>
        <g id="teleport-proxy-4" filter="url(#filter-4)" transform="translate(280.000000, 61.000000)">
            <g id="teleport-proxy-3">
                <g id="teleport-proxy-2">
                    <g id="teleport-proxy" filter="url(#filter-5)">
                        <g id="Rectangle-Copy-6">
                            <use fill="black" fill-opacity="1" filter="url(#filter-7)" xlink:href="#path-6"></use>
                            <use fill="#FFFFFF" fill-rule="evenodd" xlink:href="#path-6"></use>
                        </g>
                        <g transform="translate(13.000000, 10.000000)">
                            <path d="M10,1.5 C5.30557963,1.5 1.5,5.30557963 1.5,10 L1.5,70 C1.5,74.6944204 5.30557963,78.5 10,78.5 L210,78.5 C214.69442,78.5 218.5,74.6944204 218.5,70 L218.5,10 C218.5,5.30557963 214.69442,1.5 210,1.5 L10,1.5 Z" id="Rectangle-17" stroke="#40B6C6" stroke-width="3" fill="#FFFFFF"></path>
                            <path d="M57,33 L66.248,33 L66.248,34.728 L62.616,34.728 L62.616,44.424 L60.616,44.424 L60.616,34.728 L57,34.728 L57,33 Z M71.224,39.56 C71.2026666,39.2719986 71.1413338,38.994668 71.04,38.728 C70.9386662,38.461332 70.8000009,38.2293343 70.624,38.032 C70.4479991,37.8346657 70.2346679,37.6746673 69.984,37.552 C69.7333321,37.4293327 69.4533349,37.368 69.144,37.368 C68.8239984,37.368 68.5333346,37.4239994 68.272,37.536 C68.0106654,37.6480006 67.7866676,37.8026657 67.6,38 C67.4133324,38.1973343 67.2640006,38.429332 67.152,38.696 C67.0399994,38.962668 66.9786667,39.2506651 66.968,39.56 L71.224,39.56 Z M66.968,40.76 C66.968,41.0800016 67.0133329,41.3893318 67.104,41.688 C67.1946671,41.9866682 67.3306658,42.2479989 67.512,42.472 C67.6933342,42.6960011 67.9226653,42.874666 68.2,43.008 C68.4773347,43.141334 68.8079981,43.208 69.192,43.208 C69.725336,43.208 70.154665,43.0933345 70.48,42.864 C70.805335,42.6346655 71.0479992,42.290669 71.208,41.832 L72.936,41.832 C72.8399995,42.2800022 72.6746678,42.6799982 72.44,43.032 C72.2053322,43.3840018 71.9226683,43.6799988 71.592,43.92 C71.2613317,44.1600012 70.8906687,44.3413327 70.48,44.464 C70.0693313,44.5866673 69.6400022,44.648 69.192,44.648 C68.5413301,44.648 67.9653358,44.5413344 67.464,44.328 C66.9626642,44.1146656 66.5386684,43.8160019 66.192,43.432 C65.8453316,43.0479981 65.5840009,42.589336 65.408,42.056 C65.2319991,41.522664 65.144,40.9360032 65.144,40.296 C65.144,39.7093304 65.2373324,39.1520026 65.424,38.624 C65.6106676,38.0959974 65.8773316,37.632002 66.224,37.232 C66.5706684,36.831998 66.9893309,36.5146678 67.48,36.28 C67.9706691,36.0453322 68.5253302,35.928 69.144,35.928 C69.7946699,35.928 70.3786641,36.0639986 70.896,36.336 C71.4133359,36.6080014 71.842665,36.9679978 72.184,37.416 C72.525335,37.8640022 72.7733326,38.3786638 72.928,38.96 C73.0826674,39.5413362 73.122667,40.1413302 73.048,40.76 L66.968,40.76 Z M74.488,33 L76.312,33 L76.312,44.424 L74.488,44.424 L74.488,33 Z M83.976,39.56 C83.9546666,39.2719986 83.8933338,38.994668 83.792,38.728 C83.6906662,38.461332 83.5520009,38.2293343 83.376,38.032 C83.1999991,37.8346657 82.9866679,37.6746673 82.736,37.552 C82.4853321,37.4293327 82.2053349,37.368 81.896,37.368 C81.5759984,37.368 81.2853346,37.4239994 81.024,37.536 C80.7626654,37.6480006 80.5386676,37.8026657 80.352,38 C80.1653324,38.1973343 80.0160006,38.429332 79.904,38.696 C79.7919994,38.962668 79.7306667,39.2506651 79.72,39.56 L83.976,39.56 Z M79.72,40.76 C79.72,41.0800016 79.7653329,41.3893318 79.856,41.688 C79.9466671,41.9866682 80.0826658,42.2479989 80.264,42.472 C80.4453342,42.6960011 80.6746653,42.874666 80.952,43.008 C81.2293347,43.141334 81.5599981,43.208 81.944,43.208 C82.477336,43.208 82.906665,43.0933345 83.232,42.864 C83.557335,42.6346655 83.7999992,42.290669 83.96,41.832 L85.688,41.832 C85.5919995,42.2800022 85.4266678,42.6799982 85.192,43.032 C84.9573322,43.3840018 84.6746683,43.6799988 84.344,43.92 C84.0133317,44.1600012 83.6426687,44.3413327 83.232,44.464 C82.8213313,44.5866673 82.3920022,44.648 81.944,44.648 C81.2933301,44.648 80.7173358,44.5413344 80.216,44.328 C79.7146642,44.1146656 79.2906684,43.8160019 78.944,43.432 C78.5973316,43.0479981 78.3360009,42.589336 78.16,42.056 C77.9839991,41.522664 77.896,40.9360032 77.896,40.296 C77.896,39.7093304 77.9893324,39.1520026 78.176,38.624 C78.3626676,38.0959974 78.6293316,37.632002 78.976,37.232 C79.3226684,36.831998 79.7413309,36.5146678 80.232,36.28 C80.7226691,36.0453322 81.2773302,35.928 81.896,35.928 C82.5466699,35.928 83.1306641,36.0639986 83.648,36.336 C84.1653359,36.6080014 84.594665,36.9679978 84.936,37.416 C85.277335,37.8640022 85.5253326,38.3786638 85.68,38.96 C85.8346674,39.5413362 85.874667,40.1413302 85.8,40.76 L79.72,40.76 Z M87.24,36.152 L88.968,36.152 L88.968,37.272 L89,37.272 C89.2560013,36.7919976 89.613331,36.448001 90.072,36.24 C90.530669,36.031999 91.026664,35.928 91.56,35.928 C92.2106699,35.928 92.7786642,36.0426655 93.264,36.272 C93.7493358,36.5013345 94.1519984,36.815998 94.472,37.216 C94.7920016,37.616002 95.0319992,38.082664 95.192,38.616 C95.3520008,39.149336 95.432,39.719997 95.432,40.328 C95.432,40.8826694 95.3600007,41.4213307 95.216,41.944 C95.0719993,42.4666693 94.8533348,42.928 94.56,43.328 C94.2666652,43.728002 93.8960022,44.0479988 93.448,44.288 C92.9999978,44.5280012 92.472003,44.648 91.864,44.648 C91.597332,44.648 91.330668,44.6240002 91.064,44.576 C90.797332,44.5279998 90.5413346,44.4506672 90.296,44.344 C90.0506654,44.2373328 89.824001,44.1013342 89.616,43.936 C89.407999,43.7706658 89.2346674,43.5760011 89.096,43.352 L89.064,43.352 L89.064,47.48 L87.24,47.48 L87.24,36.152 Z M93.608,40.296 C93.608,39.9226648 93.5600005,39.5600018 93.464,39.208 C93.3679995,38.8559982 93.224001,38.5440014 93.032,38.272 C92.839999,37.9999986 92.6000014,37.7813342 92.312,37.616 C92.0239986,37.4506658 91.6933352,37.368 91.32,37.368 C90.5519962,37.368 89.9733353,37.634664 89.584,38.168 C89.1946647,38.701336 89,39.4106622 89,40.296 C89,40.7120021 89.0506662,41.0986649 89.152,41.456 C89.2533338,41.8133351 89.4053323,42.1199987 89.608,42.376 C89.8106677,42.6320013 90.0533319,42.8346659 90.336,42.984 C90.6186681,43.1333341 90.9466648,43.208 91.32,43.208 C91.7360021,43.208 92.0879986,43.1226675 92.376,42.952 C92.6640014,42.7813325 92.9013324,42.5600014 93.088,42.288 C93.2746676,42.0159986 93.4079996,41.7066684 93.488,41.36 C93.5680004,41.0133316 93.608,40.6586685 93.608,40.296 Z M100.76,44.648 C100.098663,44.648 99.5093359,44.5386678 98.992,44.32 C98.4746641,44.1013322 98.0373351,43.8000019 97.68,43.416 C97.3226649,43.0319981 97.0506676,42.573336 96.864,42.04 C96.6773324,41.506664 96.584,40.9200032 96.584,40.28 C96.584,39.6506635 96.6773324,39.069336 96.864,38.536 C97.0506676,38.002664 97.3226649,37.5440019 97.68,37.16 C98.0373351,36.7759981 98.4746641,36.4746678 98.992,36.256 C99.5093359,36.0373322 100.098663,35.928 100.76,35.928 C101.421337,35.928 102.010664,36.0373322 102.528,36.256 C103.045336,36.4746678 103.482665,36.7759981 103.84,37.16 C104.197335,37.5440019 104.469332,38.002664 104.656,38.536 C104.842668,39.069336 104.936,39.6506635 104.936,40.28 C104.936,40.9200032 104.842668,41.506664 104.656,42.04 C104.469332,42.573336 104.197335,43.0319981 103.84,43.416 C103.482665,43.8000019 103.045336,44.1013322 102.528,44.32 C102.010664,44.5386678 101.421337,44.648 100.76,44.648 Z M100.76,43.208 C101.165335,43.208 101.517332,43.1226675 101.816,42.952 C102.114668,42.7813325 102.359999,42.5573347 102.552,42.28 C102.744001,42.0026653 102.885333,41.6906684 102.976,41.344 C103.066667,40.9973316 103.112,40.6426685 103.112,40.28 C103.112,39.9279982 103.066667,39.5760018 102.976,39.224 C102.885333,38.8719982 102.744001,38.5600014 102.552,38.288 C102.359999,38.0159986 102.114668,37.7946675 101.816,37.624 C101.517332,37.4533325 101.165335,37.368 100.76,37.368 C100.354665,37.368 100.002668,37.4533325 99.704,37.624 C99.4053318,37.7946675 99.160001,38.0159986 98.968,38.288 C98.775999,38.5600014 98.6346671,38.8719982 98.544,39.224 C98.4533329,39.5760018 98.408,39.9279982 98.408,40.28 C98.408,40.6426685 98.4533329,40.9973316 98.544,41.344 C98.6346671,41.6906684 98.775999,42.0026653 98.968,42.28 C99.160001,42.5573347 99.4053318,42.7813325 99.704,42.952 C100.002668,43.1226675 100.354665,43.208 100.76,43.208 Z M106.456,36.152 L108.168,36.152 L108.168,37.752 L108.2,37.752 C108.253334,37.5279989 108.357333,37.3093344 108.512,37.096 C108.666667,36.8826656 108.853332,36.6880009 109.072,36.512 C109.290668,36.3359991 109.533332,36.1946672 109.8,36.088 C110.066668,35.9813328 110.338665,35.928 110.616,35.928 C110.829334,35.928 110.976,35.9333333 111.056,35.944 C111.136,35.9546667 111.218666,35.9653333 111.304,35.976 L111.304,37.736 C111.175999,37.7146666 111.045334,37.6960001 110.912,37.68 C110.778666,37.6639999 110.648001,37.656 110.52,37.656 C110.210665,37.656 109.920001,37.7173327 109.648,37.84 C109.375999,37.9626673 109.138668,38.1439988 108.936,38.384 C108.733332,38.6240012 108.573334,38.9199982 108.456,39.272 C108.338666,39.6240018 108.28,40.029331 108.28,40.488 L108.28,44.424 L106.456,44.424 L106.456,36.152 Z M111.256,36.152 L112.632,36.152 L112.632,33.672 L114.456,33.672 L114.456,36.152 L116.104,36.152 L116.104,37.512 L114.456,37.512 L114.456,41.928 C114.456,42.120001 114.464,42.2853326 114.48,42.424 C114.496,42.5626674 114.533333,42.6799995 114.592,42.776 C114.650667,42.8720005 114.738666,42.9439998 114.856,42.992 C114.973334,43.0400002 115.133332,43.064 115.336,43.064 C115.464001,43.064 115.591999,43.0613334 115.72,43.056 C115.848001,43.0506666 115.975999,43.0320002 116.104,43 L116.104,44.408 C115.901332,44.4293334 115.704001,44.4506666 115.512,44.472 C115.319999,44.4933334 115.122668,44.504 114.92,44.504 C114.439998,44.504 114.053335,44.4586671 113.76,44.368 C113.466665,44.2773329 113.237334,44.1440009 113.072,43.968 C112.906666,43.7919991 112.794667,43.570668 112.736,43.304 C112.677333,43.037332 112.642667,42.733335 112.632,42.392 L112.632,37.512 L111.256,37.512 L111.256,36.152 Z M122.12,33 L127.16,33 C127.970671,33 128.631997,33.1173322 129.144,33.352 C129.656003,33.5866678 130.050665,33.8799982 130.328,34.232 C130.605335,34.5840018 130.794666,34.9679979 130.896,35.384 C130.997334,35.8000021 131.048,36.1839982 131.048,36.536 C131.048,36.8880018 130.997334,37.2693313 130.896,37.68 C130.794666,38.0906687 130.605335,38.4719982 130.328,38.824 C130.050665,39.1760018 129.656003,39.4666655 129.144,39.696 C128.631997,39.9253345 127.970671,40.04 127.16,40.04 L124.12,40.04 L124.12,44.424 L122.12,44.424 L122.12,33 Z M124.12,38.408 L127.048,38.408 C127.272001,38.408 127.501332,38.3760003 127.736,38.312 C127.970668,38.2479997 128.186666,38.1440007 128.384,38 C128.581334,37.8559993 128.741333,37.6640012 128.864,37.424 C128.986667,37.1839988 129.048,36.8826685 129.048,36.52 C129.048,36.1466648 128.994667,35.8373346 128.888,35.592 C128.781333,35.3466654 128.637334,35.1520007 128.456,35.008 C128.274666,34.8639993 128.066668,34.7653336 127.832,34.712 C127.597332,34.6586664 127.346668,34.632 127.08,34.632 L124.12,34.632 L124.12,38.408 Z M132.536,36.152 L134.248,36.152 L134.248,37.752 L134.28,37.752 C134.333334,37.5279989 134.437333,37.3093344 134.592,37.096 C134.746667,36.8826656 134.933332,36.6880009 135.152,36.512 C135.370668,36.3359991 135.613332,36.1946672 135.88,36.088 C136.146668,35.9813328 136.418665,35.928 136.696,35.928 C136.909334,35.928 137.056,35.9333333 137.136,35.944 C137.216,35.9546667 137.298666,35.9653333 137.384,35.976 L137.384,37.736 C137.255999,37.7146666 137.125334,37.6960001 136.992,37.68 C136.858666,37.6639999 136.728001,37.656 136.6,37.656 C136.290665,37.656 136.000001,37.7173327 135.728,37.84 C135.455999,37.9626673 135.218668,38.1439988 135.016,38.384 C134.813332,38.6240012 134.653334,38.9199982 134.536,39.272 C134.418666,39.6240018 134.36,40.029331 134.36,40.488 L134.36,44.424 L132.536,44.424 L132.536,36.152 Z M141.672,44.648 C141.010663,44.648 140.421336,44.5386678 139.904,44.32 C139.386664,44.1013322 138.949335,43.8000019 138.592,43.416 C138.234665,43.0319981 137.962668,42.573336 137.776,42.04 C137.589332,41.506664 137.496,40.9200032 137.496,40.28 C137.496,39.6506635 137.589332,39.069336 137.776,38.536 C137.962668,38.002664 138.234665,37.5440019 138.592,37.16 C138.949335,36.7759981 139.386664,36.4746678 139.904,36.256 C140.421336,36.0373322 141.010663,35.928 141.672,35.928 C142.333337,35.928 142.922664,36.0373322 143.44,36.256 C143.957336,36.4746678 144.394665,36.7759981 144.752,37.16 C145.109335,37.5440019 145.381332,38.002664 145.568,38.536 C145.754668,39.069336 145.848,39.6506635 145.848,40.28 C145.848,40.9200032 145.754668,41.506664 145.568,42.04 C145.381332,42.573336 145.109335,43.0319981 144.752,43.416 C144.394665,43.8000019 143.957336,44.1013322 143.44,44.32 C142.922664,44.5386678 142.333337,44.648 141.672,44.648 Z M141.672,43.208 C142.077335,43.208 142.429332,43.1226675 142.728,42.952 C143.026668,42.7813325 143.271999,42.5573347 143.464,42.28 C143.656001,42.0026653 143.797333,41.6906684 143.888,41.344 C143.978667,40.9973316 144.024,40.6426685 144.024,40.28 C144.024,39.9279982 143.978667,39.5760018 143.888,39.224 C143.797333,38.8719982 143.656001,38.5600014 143.464,38.288 C143.271999,38.0159986 143.026668,37.7946675 142.728,37.624 C142.429332,37.4533325 142.077335,37.368 141.672,37.368 C141.266665,37.368 140.914668,37.4533325 140.616,37.624 C140.317332,37.7946675 140.072001,38.0159986 139.88,38.288 C139.687999,38.5600014 139.546667,38.8719982 139.456,39.224 C139.365333,39.5760018 139.32,39.9279982 139.32,40.28 C139.32,40.6426685 139.365333,40.9973316 139.456,41.344 C139.546667,41.6906684 139.687999,42.0026653 139.88,42.28 C140.072001,42.5573347 140.317332,42.7813325 140.616,42.952 C140.914668,43.1226675 141.266665,43.208 141.672,43.208 Z M149.592,40.072 L146.728,36.152 L148.936,36.152 L150.664,38.696 L152.472,36.152 L154.584,36.152 L151.768,39.976 L154.936,44.424 L152.744,44.424 L150.648,41.368 L148.616,44.424 L146.472,44.424 L149.592,40.072 Z M155.048,36.152 L157.048,36.152 L159.208,42.328 L159.24,42.328 L161.336,36.152 L163.24,36.152 L160.024,44.872 C159.874666,45.2453352 159.728001,45.602665 159.584,45.944 C159.439999,46.285335 159.264001,46.5866654 159.056,46.848 C158.847999,47.1093346 158.589335,47.3173326 158.28,47.472 C157.970665,47.6266674 157.576002,47.704 157.096,47.704 C156.669331,47.704 156.248002,47.6720003 155.832,47.608 L155.832,46.072 C155.981334,46.0933334 156.125333,46.1173332 156.264,46.144 C156.402667,46.1706668 156.546666,46.184 156.696,46.184 C156.909334,46.184 157.085333,46.1573336 157.224,46.104 C157.362667,46.0506664 157.477333,45.9733338 157.568,45.872 C157.658667,45.7706662 157.736,45.6506674 157.8,45.512 C157.864,45.3733326 157.922666,45.2133342 157.976,45.032 L158.184,44.392 L155.048,36.152 Z" id="Teleport-Proxy" fill="#4A4A4A"></path>
                        </g>
                    </g>
                </g>
            </g>
        </g>
        <polygon id="Triangle-2-Copy-5" stroke="#D1EAFF" fill="#D1EAFF" transform="translate(642.500000, 240.500000) scale(1, -1) rotate(-360.000000) translate(-642.500000, -240.500000) " points="642.5 247 636 234 649 234"></polygon>
        <g id="Group-8" transform="translate(517.000000, 0.000000)">
            <g id="Group-6-Copy">
                <g id="Group-5">
                    <rect id="Rectangle-16" stroke="#D1EAFF" stroke-width="3" fill="#EEF4F9" x="1.5" y="1.5" width="108.92381" height="41.5804196"></rect>
                    <text id="joe-wants-to-access" font-family="LucidaGrande, Lucida Grande" font-size="13" font-weight="normal" fill="#4A4A4A">
                        <tspan x="18.97263" y="18.7509579">joe wants to </tspan>
                        <tspan x="7.27707335" y="34.7509579">access </tspan>
                        <tspan x="52.3835187" y="34.7509579" font-family="LucidaGrande-Bold, Lucida Grande" font-weight="bold">grav-00</tspan>
                    </text>
                </g>
            </g>
            <polygon id="Triangle-2-Copy-6" stroke="#D1EAFF" fill="#D1EAFF" transform="translate(98.500000, 51.500000) scale(1, -1) rotate(-180.000000) translate(-98.500000, -51.500000) " points="98.5 58 92 45 105 45"></polygon>
        </g>
        <g id="circleNumber" transform="translate(624.000000, 199.000000)">
            <g id="1-copy-2" transform="translate(5.000000, 5.000000)">
                <circle id="Oval-4" fill="#F26738" cx="13.5" cy="13.5" r="13.5"></circle>
                <text id="2" font-family="HelveticaNeue-Medium, Helvetica Neue" font-size="16" font-weight="400" fill="#FFFFFF">
                    <tspan x="9.052" y="20">2</tspan>
                </text>
            </g>
        </g>
        <g id="circleNumber" transform="translate(566.000000, 131.000000)">
            <g id="1-copy-2" transform="translate(5.000000, 5.000000)">
                <circle id="Oval-4" fill="#F26738" cx="13.5" cy="13.5" r="13.5"></circle>
                <text id="2" font-family="HelveticaNeue-Medium, Helvetica Neue" font-size="16" font-weight="400" fill="#FFFFFF">
                    <tspan x="9.052" y="20">3</tspan>
                </text>
            </g>
        </g>
        <g id="circleNumber" transform="translate(202.000000, 140.000000)">
            <g id="1-copy-2" transform="translate(5.000000, 5.000000)">
                <circle id="Oval-4" fill="#F26738" cx="13.5" cy="13.5" r="13.5"></circle>
                <text id="2" font-family="HelveticaNeue-Medium, Helvetica Neue" font-size="16" font-weight="400" fill="#FFFFFF">
                    <tspan x="9.052" y="20">4</tspan>
                </text>
            </g>
        </g>
        <g id="Group-6" transform="translate(603.000000, 247.000000)">
            <g id="Group-5">
                <rect id="Rectangle-16" stroke="#D1EAFF" stroke-width="3" fill="#EEF4F9" x="1.5" y="1.5" width="111" height="58"></rect>
                <text id="joe-can-access-grav-" font-family="LucidaGrande, Lucida Grande" font-size="13" font-weight="normal" fill="#4A4A4A">
                    <tspan x="13.5865113" y="19.3899532">joe can access </tspan>
                    <tspan x="22.0479371" y="35.3899532" font-family="LucidaGrande-Bold, Lucida Grande" font-weight="bold">grav-00 </tspan>
                    <tspan x="81.6270386" y="35.3899532">as </tspan>
                    <tspan x="14.9734742" y="51.3899532">root or joe</tspan>
                </text>
            </g>
        </g>
        <polygon id="Triangle-2-Copy-7" stroke="#D1EAFF" fill="#D1EAFF" transform="translate(580.500000, 174.500000) scale(1, -1) rotate(-360.000000) translate(-580.500000, -174.500000) " points="580.5 181 574 168 587 168"></polygon>
        <g id="Group-5" transform="translate(353.000000, 181.000000)" fill="#EEF4F9" stroke="#D1EAFF" stroke-width="3">
            <rect id="Rectangle-16" x="1.5" y="1.5" width="242" height="23"></rect>
        </g>
        <text id="Proxy-opens-SSH-tunn" font-family="LucidaGrande, Lucida Grande" font-size="13" font-weight="normal" fill="#4A4A4A">
            <tspan x="361.154541" y="199">Proxy opens SSH tunnel to </tspan>
            <tspan x="531.551025" y="199" font-family="LucidaGrande-Bold, Lucida Grande" font-weight="bold">grav-00</tspan>
        </text>
        <polygon id="Triangle-2-Copy-8" stroke="#D1EAFF" fill="#D1EAFF" transform="translate(222.500000, 183.500000) scale(1, -1) rotate(-360.000000) translate(-222.500000, -183.500000) " points="222.5 190 216 177 229 177"></polygon>
        <g id="Group-5-Copy" transform="translate(175.000000, 191.000000)" fill="#EEF4F9" stroke="#D1EAFF" stroke-width="3">
            <rect id="Rectangle-16" x="1.5" y="1.5" width="143" height="73"></rect>
        </g>
        <text id="Client-uses-existing" font-family="LucidaGrande, Lucida Grande" font-size="13" font-weight="normal" fill="#4A4A4A">
            <tspan x="186.065918" y="209">Client uses existing </tspan>
            <tspan x="205.651611" y="225">SSH tunnel to </tspan>
            <tspan x="185.043945" y="241">connect to </tspan>
            <tspan x="255.661621" y="241" font-family="LucidaGrande-Bold, Lucida Grande" font-weight="bold">grav-00</tspan>
            <tspan x="310.956055" y="241"> </tspan>
            <tspan x="206.841797" y="257">via the proxy</tspan>
        </text>
        <text id="grav-00-10.X.X.1-arc" font-family="LucidaGrande-Bold, Lucida Grande" font-size="11" font-weight="bold" fill="#4A4A4A">
            <tspan x="726.389648" y="94">grav-00 10.X.X.1 arch=debian</tspan>
        </text>
        <g id="Group" transform="translate(500.000000, 224.000000)">
            <rect id="Rectangle" stroke="#CD3918" stroke-width="3" x="1.5" y="1.5" width="87" height="73" rx="9"></rect>
            <text id="Teleport-Auth-API" font-family="LucidaGrande, Lucida Grande" font-size="13" font-weight="normal" fill="#4A4A4A">
                <tspan x="18.59375" y="36">Teleport </tspan>
                <tspan x="18.0097656" y="52">Auth API</tspan>
            </text>
        </g>
        <path id="Line-10" d="M704.922296,150.232295 L699.730319,158.851655 L697.588,155.473 L599.946,217.371 L602.088379,220.749671 L592.077704,221.767705 L597.269681,213.148345 L599.411,216.526 L697.053,154.628 L694.911621,151.250329 L704.922296,150.232295 Z" fill="#979797" fill-rule="nonzero"></path>
        <g id="Group-2" filter="url(#filter-8)" transform="translate(366.000000, 240.000000)">
            <g id="Group">
                <rect id="Rectangle" fill="#FFFFFF" x="0" y="0" width="128" height="50" rx="10"></rect>
                <text id="Teleport-User-:-logi" font-family="LucidaGrande, Lucida Grande" font-size="11" font-weight="normal" fill="#4A4A4A">
                    <tspan x="9" y="17">Teleport User : login </tspan>
                    <tspan x="9" y="30" font-family="LucidaGrande-Bold, Lucida Grande" font-weight="bold">joe : root, joe</tspan>
                    <tspan x="9" y="43" font-family="LucidaGrande-Bold, Lucida Grande" font-weight="bold">tara :tara</tspan>
                </text>
            </g>
        </g>
        <g id="circleNumber" transform="translate(598.000000, 59.000000)">
            <g id="1-copy-2" transform="translate(5.000000, 5.000000)">
                <circle id="Oval-4" fill="#F26738" cx="13.5" cy="13.5" r="13.5"></circle>
                <text id="2" font-family="HelveticaNeue-Medium, Helvetica Neue" font-size="16" font-weight="400" fill="#FFFFFF">
                    <tspan x="9.052" y="20">1</tspan>
                </text>
            </g>
        </g>
        <g id="Rectangle-Copy-5">
            <use fill="black" fill-opacity="1" filter="url(#filter-10)" xlink:href="#path-9"></use>
            <use fill="#FFFFFF" fill-rule="evenodd" xlink:href="#path-9"></use>
        </g>
        <g id="web" transform="translate(54.000000, 183.000000)">
            <g id="web--client">
                <text id="Web-client" font-family="HelveticaNeue-Medium, Helvetica Neue" font-size="16" font-weight="400" fill="#4A4A4A">
                    <tspan x="0.280756757" y="69.0847458">Web client</tspan>
                </text>
                <g id="Group-Copy" stroke-width="1" fill-rule="evenodd">
                    <g id="web-browser">
                        <path d="M0.25,0.25 L0.25,46.1991525 L79.0112613,46.1991525 L79.0112613,0.25 L0.25,0.25 Z" id="Rectangle-4-Copy-2" stroke="#4A4A4A" stroke-width="0.5"></path>
                        <rect id="Rectangle-18" fill="#4A4A4A" x="0" y="0" width="79.2612613" height="6.05858511"></rect>
                        <ellipse id="Oval" fill="#E6E3E7" cx="17.4992395" cy="3.02929256" rx="2.05873406" ry="2.01952837"></ellipse>
                        <ellipse id="Oval-Copy" fill="#E6E3E7" cx="11.3230373" cy="3.02929256" rx="2.05873406" ry="2.01952837"></ellipse>
                        <ellipse id="Oval-Copy-2" fill="#E6E3E7" cx="5.14683515" cy="3.02929256" rx="2.05873406" ry="2.01952837"></ellipse>
                        <path d="M18.9925422,20.1180929 L20.3011008,20.1180929 L20.3011008,23.0495505 L23.703353,23.0495505 L23.703353,20.1180929 L25.0119116,20.1180929 L25.0119116,27.4880251 L23.703353,27.4880251 L23.703353,24.1643301 L20.3011008,24.1643301 L20.3011008,27.4880251 L18.9925422,27.4880251 L18.9925422,20.1180929 Z M25.870326,20.1180929 L31.9211008,20.1180929 L31.9211008,21.2328725 L29.5447584,21.2328725 L29.5447584,27.4880251 L28.2361999,27.4880251 L28.2361999,21.2328725 L25.870326,21.2328725 L25.870326,20.1180929 Z M32.0781278,20.1180929 L38.1289026,20.1180929 L38.1289026,21.2328725 L35.7525602,21.2328725 L35.7525602,27.4880251 L34.4440017,27.4880251 L34.4440017,21.2328725 L32.0781278,21.2328725 L32.0781278,20.1180929 Z M38.9977854,20.1180929 L42.295353,20.1180929 C42.8257581,20.1180929 43.2584504,20.193787 43.5934431,20.3451776 C43.9284358,20.4965682 44.1866554,20.6858036 44.3681098,20.9128895 C44.5495641,21.1399753 44.6734398,21.3877017 44.7397404,21.6560759 C44.806041,21.9244501 44.8391909,22.1721765 44.8391909,22.3992623 C44.8391909,22.6263482 44.806041,22.8723542 44.7397404,23.1372878 C44.6734398,23.4022213 44.5495641,23.6482273 44.3681098,23.8753132 C44.1866554,24.1023991 43.9284358,24.2899141 43.5934431,24.437864 C43.2584504,24.5858139 42.8257581,24.6597878 42.295353,24.6597878 L40.306344,24.6597878 L40.306344,27.4880251 L38.9977854,27.4880251 L38.9977854,20.1180929 Z M40.306344,23.6069403 L42.2220737,23.6069403 C42.368633,23.6069403 42.5186796,23.5862964 42.6722179,23.5450081 C42.8257562,23.5037198 42.9670791,23.4366272 43.0961909,23.3437284 C43.2253026,23.2508297 43.3299862,23.1269665 43.4102449,22.9721352 C43.4905036,22.8173039 43.5306323,22.6229076 43.5306323,22.3889403 C43.5306323,22.1480916 43.4957377,21.9485343 43.4259476,21.7902623 C43.3561575,21.6319904 43.2619422,21.5064069 43.143299,21.4135081 C43.0246557,21.3206093 42.888567,21.2569574 42.7350287,21.2225505 C42.5814904,21.1881435 42.417486,21.1709403 42.2430107,21.1709403 L40.306344,21.1709403 L40.306344,23.6069403 Z M46.8386683,25.031381 C46.8386683,25.313518 46.8875207,25.554363 46.9852269,25.7539234 C47.0829331,25.9534837 47.2190218,26.1169142 47.3934972,26.24422 C47.5679725,26.3715257 47.7686161,26.4644231 47.9954341,26.5229149 C48.222252,26.5814067 48.4682586,26.6106522 48.7334611,26.6106522 C49.0196007,26.6106522 49.2638625,26.5779661 49.4662539,26.5125929 C49.6686453,26.4472196 49.8326497,26.3629239 49.9582719,26.259703 C50.0838942,26.1564822 50.17462,26.03778 50.2304521,25.9035929 C50.2862842,25.7694057 50.3141999,25.6335003 50.3141999,25.4958725 C50.3141999,25.2137355 50.249645,25.0055766 50.1205332,24.8713895 C49.9914214,24.7372024 49.8500985,24.6425847 49.6965602,24.5875335 C49.4313577,24.4911941 49.122541,24.400017 48.7701008,24.3139996 C48.4176606,24.2279823 47.9832235,24.1161613 47.4667764,23.9785335 C47.1457418,23.8959568 46.8787985,23.7875766 46.6659386,23.6533895 C46.4530787,23.5192024 46.2838401,23.3695344 46.1582179,23.204381 C46.0325956,23.0392276 45.9436145,22.8637548 45.8912719,22.6779573 C45.8389293,22.4921597 45.8127584,22.3029243 45.8127584,22.1102454 C45.8127584,21.7386503 45.8912711,21.4169501 46.048299,21.1451352 C46.2053268,20.8733203 46.4129493,20.6479582 46.6711728,20.469042 C46.9293963,20.2901259 47.2225105,20.1576611 47.5505242,20.0716437 C47.8785378,19.9856263 48.210036,19.9426183 48.5450287,19.9426183 C48.9358535,19.9426183 49.3039909,19.9925076 49.6494521,20.0922878 C49.9949133,20.1920679 50.2984958,20.3417359 50.5602089,20.5412962 C50.8219219,20.7408566 51.0295444,20.9868626 51.1830827,21.2793217 C51.336621,21.5717808 51.4133891,21.9106841 51.4133891,22.296042 L50.1048305,22.296042 C50.0699354,21.8212261 49.9059311,21.4857633 49.6128125,21.2896437 C49.3196939,21.0935241 48.9463222,20.9954657 48.4926863,20.9954657 C48.339148,20.9954657 48.1821226,21.0109486 48.0216053,21.0419149 C47.8610879,21.0728811 47.7145309,21.1244908 47.5819296,21.1967454 C47.4493283,21.269 47.3394105,21.3670583 47.2521728,21.4909234 C47.1649352,21.6147884 47.121317,21.7696173 47.121317,21.9554149 C47.121317,22.2169077 47.2033192,22.421626 47.367326,22.5695759 C47.5313328,22.7175258 47.7459343,22.8293467 48.0111368,22.905042 C48.0390529,22.9119234 48.1489707,22.9411689 48.3408936,22.9927793 C48.5328164,23.0443897 48.7474179,23.1011603 48.9847044,23.1630929 C49.2219908,23.2250254 49.4540396,23.2852366 49.6808575,23.3437284 C49.9076755,23.4022203 50.0699351,23.4452283 50.1676413,23.4727539 C50.4119068,23.5484492 50.6247635,23.6516685 50.8062179,23.7824149 C50.9876722,23.9131613 51.1394635,24.0628293 51.2615963,24.2314234 C51.383729,24.4000174 51.4744548,24.5806512 51.5337764,24.7733301 C51.5930981,24.9660091 51.6227584,25.1586851 51.6227584,25.351364 C51.6227584,25.7642475 51.5372668,26.1169134 51.3662809,26.4093725 C51.1952951,26.7018316 50.9702253,26.9409563 50.6910647,27.1267539 C50.4119042,27.3125514 50.0943638,27.4484568 49.7384341,27.5344742 C49.3825044,27.6204916 49.0196011,27.6634996 48.6497134,27.6634996 C48.2239935,27.6634996 47.8227062,27.61189 47.4458395,27.5086691 C47.0689728,27.4054483 46.740964,27.2471787 46.4618035,27.0338556 C46.1826429,26.8205325 45.9593178,26.5470013 45.7918215,26.2132539 C45.6243251,25.8795064 45.5370888,25.4855527 45.5301098,25.031381 L46.8386683,25.031381 Z M52.6905422,26.0945505 L54.1456593,26.0945505 L54.1456593,27.4880251 L52.6905422,27.4880251 L52.6905422,26.0945505 Z M52.6905422,22.2650759 L54.1456593,22.2650759 L54.1456593,23.6585505 L52.6905422,23.6585505 L52.6905422,22.2650759 Z M57.6525963,19.9426183 L58.7936593,19.9426183 L55.7892089,27.6634996 L54.6481458,27.6634996 L57.6525963,19.9426183 Z M61.3374972,19.9426183 L62.4785602,19.9426183 L59.4741098,27.6634996 L58.3330467,27.6634996 L61.3374972,19.9426183 Z" id="HTTPS://" fill="#4A4A4A"></path>
                    </g>
                </g>
            </g>
        </g>
        <g id="tsh" transform="translate(53.000000, 75.000000)">
            <g id="SSH-client">
                <g id="monitor-with-terminal">
                    <g id="tctl" stroke-width="1" fill-rule="evenodd">
                        <path d="M0.25,0.25 L0.25,45.65 L78.7681818,45.65 L78.7681818,0.25 L0.25,0.25 Z" id="Rectangle-4-Copy-3" stroke="#4A4A4A" stroke-width="0.5" fill="#4A4A4A"></path>
                        <rect id="Rectangle-18-Copy" fill="#D8D8D8" x="0" y="0" width="79.0181818" height="5.82857143"></rect>
                        <ellipse id="Oval-Copy-3" fill="#4A4A4A" cx="17.8909091" cy="2.91428571" rx="2.23636364" ry="2.18571429"></ellipse>
                        <ellipse id="Oval-Copy-4" fill="#4A4A4A" cx="11.1818182" cy="2.91428571" rx="2.23636364" ry="2.18571429"></ellipse>
                        <ellipse id="Oval-Copy-5" fill="#4A4A4A" cx="5.21818182" cy="2.91428571" rx="2.23636364" ry="2.18571429"></ellipse>
                    </g>
                    <text id="&gt;-ssh" font-family="Helvetica" font-size="18" font-weight="normal" fill="#FFFFFF">
                        <tspan x="5.96363636" y="37.6714286">&gt; ssh</tspan>
                    </text>
                </g>
                <text id="OpenSSH-client" font-family="HelveticaNeue-Medium, Helvetica Neue" font-size="16" font-weight="400" fill="#4A4A4A">
                    <tspan x="3.47863063" y="68.4745763">OpenSSH </tspan>
                    <tspan x="19.6226306" y="87.4745763">client</tspan>
                </text>
            </g>
        </g>
        <path id="Line" d="M705,92 L714,96.5 L705,101 L705,97 L530,97 L530,96 L705,96 L705,92 Z" fill="#979797" fill-rule="nonzero"></path>
        <g id="Group-3" transform="translate(175.000000, 79.000000)">
            <path d="M1,1 L1,38 L89,38 L89,1 L1,1 Z" id="Rectangle-Copy-5" stroke="#979797" stroke-width="2" fill="#FFFFFF"></path>
            <text id="joe:password-2FA:-26" font-family="LucidaGrande, Lucida Grande" font-size="11" font-weight="normal" fill="#4A4A4A">
                <tspan x="10.418457" y="16">joe:password</tspan>
                <tspan x="11.8632812" y="29">2FA: 265176</tspan>
            </text>
        </g>
        <line x1="717" y1="129" x2="531" y2="129" id="Line-2" stroke="#979797" stroke-width="6" stroke-linecap="square"></line>
        <line x1="165.5" y1="129.5" x2="276.5" y2="129.5" id="Line-8" stroke="#979797" stroke-width="6" stroke-linecap="square"></line>
    </g>
</svg>