<svg width="588" height="415" fill="none" xmlns="http://www.w3.org/2000/svg"><path fill="#none" d="M0 0h588v415H0z"/><path fill="#F6F8FA" d="M.5.5h587v214H.5z"/><path d="M294.5 102l-2.887 5h5.774l-2.887-5zm.5 40v-35.5h-1V142h1z" fill="#512FC9"/><path d="M102.5 122.5h384" stroke="#512FC9"/><path d="M102.5 103l-2.887 5h5.774l-2.887-5zm.5 20v-15.5h-1V123h1zM198.5 103l-2.887 5h5.774l-2.887-5zm.5 20v-15.5h-1V123h1zM390.5 103l-2.887 5h5.774l-2.887-5zm.5 20v-15.5h-1V123h1zM486.5 103l-2.887 5h5.774l-2.887-5zm.5 20v-15.5h-1V123h1z" fill="#512FC9"/><path stroke="#512FC9" d="M.5.5h587v214H.5z"/><g filter="url(#prefix__filter0_d_10925_103693)"><rect x="70" y="331" width="64" height="64" rx="6" fill="#fff"/><path fill-rule="evenodd" clip-rule="evenodd" d="M97.105 360a6.976 6.976 0 004.895 2 6.975 6.975 0 004.895-2H107l4 4H93l4-4h.105zm1.581 0c.95.632 2.09 1 3.314 1a5.964 5.964 0 003.314-1h-6.628zM91.097 365a1 1 0 00-.996 1.092l1.015 11a1 1 0 00.996.908h19.776a1 1 0 00.996-.908l1.015-11a1 1 0 00-.996-1.092H91.097zm7.27 4.672a.5.5 0 10-.734-.678l-2 2.167a.5.5 0 000 .678l2 2.167a.5.5 0 00.735-.678L96.68 371.5l1.688-1.828zm7.294-.706a.499.499 0 00-.028.706l1.687 1.828-1.687 1.828a.499.499 0 10.734.678l2-2.167a.5.5 0 000-.678l-2-2.167a.5.5 0 00-.706-.028zm-1.294.706a.499.499 0 10-.734-.678l-4 4.334a.5.5 0 10.734.678l4-4.334z" fill="#697986"/><path d="M102 361c-3.309 0-6-2.691-6-6s2.691-6 6-6 6 2.691 6 6-2.691 6-6 6z" fill="#697986"/><rect x="70.5" y="331.5" width="63" height="63" rx="5.5" stroke="#BECACF"/></g><path d="M87.29 404.77v1.07h-3.205v2.005h2.525v1.035h-2.525v2.045h3.205V412h-4.56v-7.23h4.56zm1.093 7.23v-5.13h.755c.16 0 .265.075.315.225l.085.405a2.386 2.386 0 01.69-.515 1.91 1.91 0 01.415-.145c.146-.033.306-.05.48-.05.28 0 .528.048.745.145.216.093.396.227.54.4.146.17.256.375.33.615.076.237.115.498.115.785V412h-1.235v-3.265c0-.313-.074-.555-.22-.725-.144-.173-.36-.26-.65-.26-.214 0-.414.048-.6.145a2.148 2.148 0 00-.53.395V412h-1.235zm7.458-5.22c.22 0 .427.023.62.07.194.043.37.108.53.195h1.475v.46c0 .077-.02.137-.06.18-.04.043-.108.073-.205.09l-.46.085c.034.087.059.178.075.275.02.097.03.198.03.305a1.524 1.524 0 01-.575 1.21 1.96 1.96 0 01-.635.335 2.624 2.624 0 01-.795.115c-.193 0-.381-.018-.565-.055-.16.097-.24.205-.24.325 0 .103.047.18.14.23.097.047.222.08.375.1.157.02.334.033.53.04.197.003.399.013.605.03.207.017.409.047.605.09.197.04.372.105.525.195.157.09.282.213.375.37.097.153.145.352.145.595 0 .227-.056.447-.17.66a1.74 1.74 0 01-.485.57c-.21.167-.468.3-.775.4a3.292 3.292 0 01-1.05.155c-.39 0-.728-.038-1.015-.115a2.305 2.305 0 01-.715-.3 1.286 1.286 0 01-.42-.43 1.012 1.012 0 01-.14-.51c0-.24.074-.442.22-.605.147-.163.35-.293.61-.39a.847.847 0 01-.305-.28.815.815 0 01-.115-.455c0-.077.014-.155.04-.235a.981.981 0 01.33-.47c.084-.073.182-.138.295-.195a1.641 1.641 0 01-.615-.56 1.508 1.508 0 01-.22-.82c0-.253.05-.482.15-.685.104-.207.245-.382.425-.525.184-.147.399-.258.645-.335.25-.077.522-.115.815-.115zm1.355 5.45c0-.1-.03-.182-.09-.245a.572.572 0 00-.245-.145 1.699 1.699 0 00-.365-.08 20.904 20.904 0 00-.92-.06 6.957 6.957 0 01-.475-.045 1.13 1.13 0 00-.34.275.555.555 0 00-.06.61c.047.08.119.148.215.205.1.057.229.1.385.13.157.033.349.05.575.05.23 0 .429-.018.595-.055.167-.033.304-.082.41-.145.11-.06.19-.133.24-.22a.524.524 0 00.075-.275zm-1.355-2.92c.154 0 .287-.02.4-.06a.788.788 0 00.28-.175.673.673 0 00.17-.265.934.934 0 00.06-.34c0-.253-.076-.453-.23-.6-.15-.15-.376-.225-.68-.225-.303 0-.531.075-.685.225-.15.147-.225.347-.225.6 0 .12.019.232.055.335.04.103.097.193.17.27a.84.84 0 00.285.175c.117.04.25.06.4.06zm4.716-2.44V412h-1.235v-5.13h1.235zm.185-1.495a.706.706 0 01-.065.3.807.807 0 01-.175.245.819.819 0 01-.25.17.804.804 0 01-.615 0 .842.842 0 01-.415-.415.804.804 0 010-.61.774.774 0 01.415-.415.756.756 0 01.615 0c.097.04.18.095.25.165a.782.782 0 01.24.56zm1.215 6.625v-5.13h.755c.16 0 .265.075.315.225l.085.405a2.391 2.391 0 01.69-.515c.13-.063.268-.112.415-.145a2.19 2.19 0 01.48-.05c.28 0 .528.048.745.145.217.093.397.227.54.4.147.17.257.375.33.615.077.237.115.498.115.785V412h-1.235v-3.265c0-.313-.073-.555-.22-.725-.143-.173-.36-.26-.65-.26-.213 0-.413.048-.6.145a2.15 2.15 0 00-.53.395V412h-1.235zm7.803-5.21c.324 0 .62.052.89.155.274.103.509.255.705.455.197.197.35.44.46.73a2.738 2.738 0 01.15 1.22.322.322 0 01-.045.145.189.189 0 01-.085.075.42.42 0 01-.14.02h-3.17c.037.527.179.913.425 1.16.247.247.574.37.98.37.2 0 .372-.023.515-.07.147-.047.274-.098.38-.155.11-.057.205-.108.285-.155a.492.492 0 01.24-.07.266.266 0 01.225.115l.36.45c-.136.16-.29.295-.46.405a2.725 2.725 0 01-1.1.395c-.19.027-.375.04-.555.04-.356 0-.688-.058-.995-.175a2.281 2.281 0 01-.8-.525 2.501 2.501 0 01-.535-.86 3.347 3.347 0 01-.195-1.19c0-.35.057-.678.17-.985.114-.31.275-.578.485-.805.214-.23.472-.412.775-.545.307-.133.652-.2 1.035-.2zm.025.885c-.36 0-.641.102-.845.305-.203.203-.333.492-.39.865h2.32c0-.16-.021-.31-.065-.45a1.041 1.041 0 00-.2-.375.916.916 0 00-.34-.25 1.132 1.132 0 00-.48-.095zm5.317-.885c.324 0 .62.052.89.155.274.103.509.255.705.455.197.197.35.44.46.73a2.738 2.738 0 01.15 1.22.322.322 0 01-.045.145.189.189 0 01-.085.075.42.42 0 01-.14.02h-3.17c.037.527.179.913.425 1.16.247.247.574.37.98.37.2 0 .372-.023.515-.07.147-.047.274-.098.38-.155.11-.057.205-.108.285-.155a.492.492 0 01.24-.07.266.266 0 01.225.115l.36.45c-.136.16-.29.295-.46.405a2.725 2.725 0 01-1.1.395c-.19.027-.375.04-.555.04-.356 0-.688-.058-.995-.175a2.281 2.281 0 01-.8-.525 2.501 2.501 0 01-.535-.86 3.347 3.347 0 01-.195-1.19c0-.35.057-.678.17-.985.114-.31.275-.578.485-.805.214-.23.472-.412.775-.545.307-.133.652-.2 1.035-.2zm.025.885c-.36 0-.641.102-.845.305-.203.203-.333.492-.39.865h2.32c0-.16-.021-.31-.065-.45a1.041 1.041 0 00-.2-.375.916.916 0 00-.34-.25 1.132 1.132 0 00-.48-.095zm3.197 4.325v-5.13h.725c.127 0 .215.023.265.07.05.047.083.127.1.24l.075.62a2.42 2.42 0 01.645-.75 1.36 1.36 0 01.83-.275c.253 0 .463.058.63.175l-.16.925a.204.204 0 01-.065.13.233.233 0 01-.135.035.861.861 0 01-.205-.035 1.391 1.391 0 00-.345-.035 1.04 1.04 0 00-.66.215c-.183.14-.338.347-.465.62V412h-1.235z" fill="#697986"/><g filter="url(#prefix__filter1_d_10925_103693)"><rect x="166" y="331" width="64" height="64" rx="6" fill="#fff"/><path d="M187.924 350.269c2.729-.725 6.482-1.269 10.576-1.269s7.847.544 10.576 1.269c3.071.906 3.924 1.994 3.924 2.356 0 .362-.853 1.45-3.924 2.356-2.729.725-6.482 1.269-10.576 1.269s-7.847-.544-10.576-1.269c-3.071-.906-3.924-1.994-3.924-2.356 0-.362.853-1.45 3.924-2.356zM209.076 369.481c-2.9.907-6.652 1.269-10.576 1.269-3.924 0-7.847-.544-10.576-1.269-3.071-.906-3.924-1.993-3.924-2.356v-4.712c.853.543 2.047 1.087 3.412 1.45 2.9.906 6.994 1.45 11.088 1.45 4.094 0 8.188-.544 11.088-1.45 1.365-.363 2.559-.907 3.412-1.45v4.712c0 .363-.853 1.45-3.924 2.356z" fill="#697986"/><path fill-rule="evenodd" clip-rule="evenodd" d="M198.5 363.5c4.094 0 7.847-.544 10.576-1.269 3.071-.906 3.924-1.993 3.924-2.356v-4.712c-.853.543-2.047 1.087-3.412 1.45-2.9.906-6.994 1.45-11.088 1.45-4.094 0-8.188-.544-11.088-1.45-1.365-.363-2.559-.907-3.412-1.45v4.712c0 .363.853 1.45 3.924 2.356 2.729.725 6.482 1.269 10.576 1.269zm0-1.5a1.5 1.5 0 10-.001-3.001A1.5 1.5 0 00198.5 362zM198.5 378c3.924 0 7.676-.362 10.576-1.269 3.071-.906 3.924-1.993 3.924-2.356v-4.712c-.853.543-2.047 1.087-3.412 1.45-2.9.906-6.994 1.45-11.088 1.45-4.094 0-8.188-.544-11.088-1.45-1.365-.363-2.559-.907-3.412-1.45v4.712c0 .363.853 1.45 3.924 2.356 2.729.725 6.652 1.269 10.576 1.269zm0-1a1.5 1.5 0 10-.001-3.001A1.5 1.5 0 00198.5 377z" fill="#697986"/><rect x="166.5" y="331.5" width="63" height="63" rx="5.5" stroke="#BECACF"/></g><path d="M186.105 406.085a.367.367 0 01-.13.155.308.308 0 01-.17.045.446.446 0 01-.225-.075 5.823 5.823 0 00-.295-.175 2.279 2.279 0 00-.4-.17 1.607 1.607 0 00-.535-.08c-.187 0-.35.023-.49.07a1.025 1.025 0 00-.35.185.765.765 0 00-.21.29.92.92 0 00-.07.365c0 .17.047.312.14.425.097.113.223.21.38.29.157.08.335.152.535.215s.403.132.61.205c.21.07.415.153.615.25.2.093.378.213.535.36.157.143.282.32.375.53.097.21.145.465.145.765 0 .327-.057.633-.17.92-.11.283-.273.532-.49.745-.213.21-.475.377-.785.5-.31.12-.665.18-1.065.18a3.29 3.29 0 01-.68-.07 3.445 3.445 0 01-1.22-.49 2.897 2.897 0 01-.475-.39l.39-.645a.474.474 0 01.13-.115.327.327 0 01.175-.05c.083 0 .173.035.27.105.097.067.21.142.34.225.133.083.288.16.465.23.18.067.395.1.645.1.383 0 .68-.09.89-.27.21-.183.315-.445.315-.785a.716.716 0 00-.145-.465 1.091 1.091 0 00-.375-.3 2.762 2.762 0 00-.535-.21c-.2-.057-.403-.118-.61-.185a5.358 5.358 0 01-.61-.24 1.974 1.974 0 01-.535-.365 1.7 1.7 0 01-.38-.56 2.205 2.205 0 01-.14-.835c0-.263.052-.52.155-.77.107-.25.26-.472.46-.665.203-.193.452-.348.745-.465a2.694 2.694 0 011.005-.175c.427 0 .82.067 1.18.2s.667.32.92.56l-.33.635zm3.536.705c.324 0 .62.052.89.155.274.103.509.255.705.455.197.197.35.44.46.73a2.738 2.738 0 01.15 1.22.322.322 0 01-.045.145.189.189 0 01-.085.075.42.42 0 01-.14.02h-3.17c.037.527.179.913.425 1.16.247.247.574.37.98.37.2 0 .372-.023.515-.07.147-.047.274-.098.38-.155.11-.057.205-.108.285-.155a.492.492 0 01.24-.07.266.266 0 01.225.115l.36.45c-.136.16-.29.295-.46.405a2.725 2.725 0 01-1.1.395c-.19.027-.375.04-.555.04-.356 0-.688-.058-.995-.175a2.281 2.281 0 01-.8-.525 2.501 2.501 0 01-.535-.86 3.347 3.347 0 01-.195-1.19c0-.35.057-.678.17-.985.114-.31.275-.578.485-.805.214-.23.472-.412.775-.545.307-.133.652-.2 1.035-.2zm.025.885c-.36 0-.641.102-.845.305-.203.203-.333.492-.39.865h2.32c0-.16-.021-.31-.065-.45a1.041 1.041 0 00-.2-.375.916.916 0 00-.34-.25 1.132 1.132 0 00-.48-.095zm3.197 4.325v-5.13h.725c.127 0 .215.023.265.07.05.047.083.127.1.24l.075.62a2.42 2.42 0 01.645-.75 1.36 1.36 0 01.83-.275c.253 0 .463.058.63.175l-.16.925a.204.204 0 01-.065.13.233.233 0 01-.135.035.861.861 0 01-.205-.035 1.391 1.391 0 00-.345-.035 1.04 1.04 0 00-.66.215c-.183.14-.338.347-.465.62V412h-1.235zm6.652 0h-1.12l-2.04-5.13h1.025c.09 0 .165.022.225.065a.326.326 0 01.13.165l.99 2.74a7.613 7.613 0 01.245.93 10.8 10.8 0 01.1-.46c.04-.153.09-.31.15-.47l1.015-2.74a.333.333 0 01.125-.165.36.36 0 01.215-.065h.975l-2.035 5.13zm4.077-5.13V412h-1.235v-5.13h1.235zm.185-1.495a.692.692 0 01-.065.3.79.79 0 01-.175.245.819.819 0 01-.25.17.8.8 0 01-.31.06.794.794 0 01-.305-.06.846.846 0 01-.415-.415.804.804 0 010-.61.778.778 0 01.415-.415.746.746 0 01.615 0c.097.04.18.095.25.165a.767.767 0 01.24.56zm4.82 2.58a.57.57 0 01-.11.11c-.033.027-.083.04-.15.04a.348.348 0 01-.185-.055 3.544 3.544 0 00-.215-.13 1.4 1.4 0 00-.725-.19c-.217 0-.407.04-.57.12-.163.077-.3.188-.41.335a1.538 1.538 0 00-.24.535c-.053.207-.08.442-.08.705 0 .273.028.517.085.73.06.213.145.393.255.54.11.143.243.253.4.33.157.073.333.11.53.11s.355-.023.475-.07c.123-.05.227-.103.31-.16.083-.06.155-.113.215-.16a.33.33 0 01.21-.075c.1 0 .175.038.225.115l.355.45a2.31 2.31 0 01-.445.405 2.56 2.56 0 01-.5.26c-.17.063-.347.108-.53.135-.183.027-.365.04-.545.04-.317 0-.615-.058-.895-.175a2.139 2.139 0 01-.735-.52 2.544 2.544 0 01-.495-.83c-.12-.33-.18-.705-.18-1.125 0-.377.053-.725.16-1.045.11-.323.27-.602.48-.835.21-.237.47-.422.78-.555.31-.133.667-.2 1.07-.2.383 0 .718.062 1.005.185.29.123.55.3.78.53l-.325.45zm3.281-1.165c.323 0 .62.052.89.155.273.103.508.255.705.455.196.197.35.44.46.73a2.738 2.738 0 01.15 1.22.35.35 0 01-.045.145.194.194 0 01-.085.075.428.428 0 01-.14.02h-3.17c.036.527.178.913.425 1.16.246.247.573.37.98.37.2 0 .371-.023.515-.07.146-.047.273-.098.38-.155.11-.057.205-.108.285-.155a.486.486 0 01.24-.07c.05 0 .093.01.13.03.036.02.068.048.095.085l.36.45c-.137.16-.29.295-.46.405-.17.107-.349.193-.535.26a3.038 3.038 0 01-.565.135c-.19.027-.375.04-.555.04-.357 0-.689-.058-.995-.175a2.263 2.263 0 01-.8-.525 2.486 2.486 0 01-.535-.86 3.347 3.347 0 01-.195-1.19c0-.35.056-.678.17-.985.113-.31.275-.578.485-.805.213-.23.471-.412.775-.545.306-.133.651-.2 1.035-.2zm.025.885c-.36 0-.642.102-.845.305-.204.203-.334.492-.39.865h2.32c0-.16-.022-.31-.065-.45a1.057 1.057 0 00-.2-.375.924.924 0 00-.34-.25 1.139 1.139 0 00-.48-.095z" fill="#697986"/><g filter="url(#prefix__filter2_d_10925_103693)"><rect x="262" y="331" width="64" height="64" rx="6" fill="#fff"/><path fill-rule="evenodd" clip-rule="evenodd" d="M289.105 360a6.975 6.975 0 004.895 2 6.975 6.975 0 004.895-2H299l4 4h-18l4-4h.105zm1.581 0c.95.632 2.09 1 3.314 1a5.964 5.964 0 003.314-1h-6.628zM283.097 365a1 1 0 00-.996 1.092l1.015 11a1 1 0 00.996.908h19.776a1 1 0 00.996-.908l1.015-11a1 1 0 00-.996-1.092h-21.806zm7.27 4.672a.499.499 0 10-.734-.678l-2 2.167a.5.5 0 000 .678l2 2.167a.5.5 0 10.734-.678l-1.686-1.828 1.686-1.828zm7.294-.706a.499.499 0 00-.028.706l1.687 1.828-1.687 1.828a.499.499 0 10.734.678l2-2.167a.5.5 0 000-.678l-2-2.167a.5.5 0 00-.706-.028zm-1.294.706a.499.499 0 10-.734-.678l-4 4.334a.499.499 0 10.734.678l4-4.334z" fill="#697986"/><path d="M294 361c-3.309 0-6-2.691-6-6s2.691-6 6-6 6 2.691 6 6-2.691 6-6 6z" fill="#697986"/><rect x="262.5" y="331.5" width="63" height="63" rx="5.5" stroke="#BECACF"/></g><path d="M279.29 404.77v1.07h-3.205v2.005h2.525v1.035h-2.525v2.045h3.205V412h-4.56v-7.23h4.56zm1.093 7.23v-5.13h.755c.16 0 .265.075.315.225l.085.405c.103-.107.211-.203.325-.29.116-.087.238-.162.365-.225.13-.063.268-.112.415-.145.146-.033.306-.05.48-.05.28 0 .528.048.745.145.216.093.396.227.54.4.146.17.256.375.33.615.076.237.115.498.115.785V412h-1.235v-3.265c0-.313-.074-.555-.22-.725-.144-.173-.36-.26-.65-.26-.214 0-.414.048-.6.145a2.132 2.132 0 00-.53.395V412h-1.235zm7.458-5.22c.22 0 .427.023.62.07.194.043.37.108.53.195h1.475v.46c0 .077-.02.137-.06.18-.04.043-.108.073-.205.09l-.46.085c.034.087.059.178.075.275.02.097.03.198.03.305a1.515 1.515 0 01-.575 1.21 1.948 1.948 0 01-.635.335 2.62 2.62 0 01-.795.115c-.193 0-.381-.018-.565-.055-.16.097-.24.205-.24.325 0 .103.047.18.14.23.097.047.222.08.375.1.157.02.334.033.53.04.197.003.399.013.605.03.207.017.409.047.605.09.197.04.372.105.525.195.157.09.282.213.375.37.097.153.145.352.145.595 0 .227-.056.447-.17.66-.11.213-.271.403-.485.57-.21.167-.468.3-.775.4a3.286 3.286 0 01-1.05.155c-.39 0-.728-.038-1.015-.115a2.312 2.312 0 01-.715-.3 1.3 1.3 0 01-.42-.43 1.016 1.016 0 01-.14-.51c0-.24.074-.442.22-.605.147-.163.35-.293.61-.39a.856.856 0 01-.305-.28.82.82 0 01-.115-.455c0-.077.014-.155.04-.235a1.01 1.01 0 01.12-.245 1.425 1.425 0 01.505-.42 1.641 1.641 0 01-.615-.56 1.514 1.514 0 01-.22-.82c0-.253.05-.482.15-.685a1.55 1.55 0 01.425-.525c.184-.147.399-.258.645-.335.25-.077.522-.115.815-.115zm1.355 5.45c0-.1-.03-.182-.09-.245a.567.567 0 00-.245-.145 1.693 1.693 0 00-.365-.08 20.67 20.67 0 00-.92-.06 7.024 7.024 0 01-.475-.045c-.14.077-.253.168-.34.275a.557.557 0 00-.06.61c.047.08.119.148.215.205.1.057.229.1.385.13.157.033.349.05.575.05.23 0 .429-.018.595-.055.167-.033.304-.082.41-.145.11-.06.19-.133.24-.22a.524.524 0 00.075-.275zm-1.355-2.92c.154 0 .287-.02.4-.06a.778.778 0 00.28-.175.661.661 0 00.17-.265.934.934 0 00.06-.34c0-.253-.076-.453-.23-.6-.15-.15-.376-.225-.68-.225-.303 0-.531.075-.685.225-.15.147-.225.347-.225.6 0 .12.019.232.055.335a.82.82 0 00.17.27.847.847 0 00.285.175c.117.04.25.06.4.06zm4.716-2.44V412h-1.235v-5.13h1.235zm.185-1.495a.706.706 0 01-.065.3.807.807 0 01-.175.245.819.819 0 01-.25.17.804.804 0 01-.615 0 .846.846 0 01-.415-.415.804.804 0 010-.61.778.778 0 01.415-.415.756.756 0 01.615 0c.097.04.18.095.25.165a.782.782 0 01.24.56zm1.215 6.625v-5.13h.755c.16 0 .265.075.315.225l.085.405a2.391 2.391 0 01.69-.515c.13-.063.268-.112.415-.145a2.19 2.19 0 01.48-.05c.28 0 .528.048.745.145.217.093.397.227.54.4.147.17.257.375.33.615.077.237.115.498.115.785V412h-1.235v-3.265c0-.313-.073-.555-.22-.725-.143-.173-.36-.26-.65-.26-.213 0-.413.048-.6.145a2.15 2.15 0 00-.53.395V412h-1.235zm7.803-5.21c.324 0 .62.052.89.155.274.103.509.255.705.455.197.197.35.44.46.73a2.738 2.738 0 01.15 1.22.322.322 0 01-.045.145.189.189 0 01-.085.075.42.42 0 01-.14.02h-3.17c.037.527.179.913.425 1.16.247.247.574.37.98.37.2 0 .372-.023.515-.07.147-.047.274-.098.38-.155.11-.057.205-.108.285-.155a.492.492 0 01.24-.07.266.266 0 01.225.115l.36.45c-.136.16-.29.295-.46.405a2.725 2.725 0 01-1.1.395c-.19.027-.375.04-.555.04-.356 0-.688-.058-.995-.175a2.281 2.281 0 01-.8-.525 2.501 2.501 0 01-.535-.86 3.347 3.347 0 01-.195-1.19c0-.35.057-.678.17-.985.114-.31.275-.578.485-.805.214-.23.472-.412.775-.545.307-.133.652-.2 1.035-.2zm.025.885c-.36 0-.641.102-.845.305-.203.203-.333.492-.39.865h2.32c0-.16-.021-.31-.065-.45a1.041 1.041 0 00-.2-.375.916.916 0 00-.34-.25 1.132 1.132 0 00-.48-.095zm5.317-.885c.324 0 .62.052.89.155.274.103.509.255.705.455.197.197.35.44.46.73a2.738 2.738 0 01.15 1.22.322.322 0 01-.045.145.189.189 0 01-.085.075.42.42 0 01-.14.02h-3.17c.037.527.179.913.425 1.16.247.247.574.37.98.37.2 0 .372-.023.515-.07.147-.047.274-.098.38-.155.11-.057.205-.108.285-.155a.492.492 0 01.24-.07.266.266 0 01.225.115l.36.45c-.136.16-.29.295-.46.405a2.725 2.725 0 01-1.1.395c-.19.027-.375.04-.555.04-.356 0-.688-.058-.995-.175a2.281 2.281 0 01-.8-.525 2.501 2.501 0 01-.535-.86 3.347 3.347 0 01-.195-1.19c0-.35.057-.678.17-.985.114-.31.275-.578.485-.805.214-.23.472-.412.775-.545.307-.133.652-.2 1.035-.2zm.025.885c-.36 0-.641.102-.845.305-.203.203-.333.492-.39.865h2.32c0-.16-.021-.31-.065-.45a1.041 1.041 0 00-.2-.375.916.916 0 00-.34-.25 1.132 1.132 0 00-.48-.095zm3.197 4.325v-5.13h.725c.127 0 .215.023.265.07.05.047.083.127.1.24l.075.62a2.42 2.42 0 01.645-.75 1.36 1.36 0 01.83-.275c.253 0 .463.058.63.175l-.16.925a.204.204 0 01-.065.13.233.233 0 01-.135.035.861.861 0 01-.205-.035 1.391 1.391 0 00-.345-.035 1.04 1.04 0 00-.66.215c-.183.14-.338.347-.465.62V412h-1.235z" fill="#697986"/><g filter="url(#prefix__filter3_d_10925_103693)"><rect x="358" y="331" width="64" height="64" rx="6" fill="#fff"/><path d="M379.924 350.269c2.729-.725 6.482-1.269 10.576-1.269s7.847.544 10.576 1.269c3.071.906 3.924 1.994 3.924 2.356 0 .362-.853 1.45-3.924 2.356-2.729.725-6.482 1.269-10.576 1.269s-7.847-.544-10.576-1.269c-3.071-.906-3.924-1.994-3.924-2.356 0-.362.853-1.45 3.924-2.356zM401.076 369.481c-2.9.907-6.652 1.269-10.576 1.269-3.924 0-7.847-.544-10.576-1.269-3.071-.906-3.924-1.993-3.924-2.356v-4.712c.853.543 2.047 1.087 3.412 1.45 2.9.906 6.994 1.45 11.088 1.45 4.094 0 8.188-.544 11.088-1.45 1.365-.363 2.559-.907 3.412-1.45v4.712c0 .363-.853 1.45-3.924 2.356z" fill="#697986"/><path fill-rule="evenodd" clip-rule="evenodd" d="M390.5 363.5c4.094 0 7.847-.544 10.576-1.269 3.071-.906 3.924-1.993 3.924-2.356v-4.712c-.853.543-2.047 1.087-3.412 1.45-2.9.906-6.994 1.45-11.088 1.45-4.094 0-8.188-.544-11.088-1.45-1.365-.363-2.559-.907-3.412-1.45v4.712c0 .363.853 1.45 3.924 2.356 2.729.725 6.482 1.269 10.576 1.269zm0-1.5a1.5 1.5 0 10-.001-3.001A1.5 1.5 0 00390.5 362zM390.5 378c3.924 0 7.676-.362 10.576-1.269 3.071-.906 3.924-1.993 3.924-2.356v-4.712c-.853.543-2.047 1.087-3.412 1.45-2.9.906-6.994 1.45-11.088 1.45-4.094 0-8.188-.544-11.088-1.45-1.365-.363-2.559-.907-3.412-1.45v4.712c0 .363.853 1.45 3.924 2.356 2.729.725 6.652 1.269 10.576 1.269zm0-1a1.5 1.5 0 10-.001-3.001A1.5 1.5 0 00390.5 377z" fill="#697986"/><rect x="358.5" y="331.5" width="63" height="63" rx="5.5" stroke="#BECACF"/></g><path d="M378.105 406.085a.367.367 0 01-.13.155.308.308 0 01-.17.045.446.446 0 01-.225-.075 5.823 5.823 0 00-.295-.175 2.279 2.279 0 00-.4-.17 1.607 1.607 0 00-.535-.08c-.187 0-.35.023-.49.07a1.025 1.025 0 00-.35.185.765.765 0 00-.21.29.92.92 0 00-.07.365c0 .17.047.312.14.425.097.113.223.21.38.29.157.08.335.152.535.215s.403.132.61.205c.21.07.415.153.615.25.2.093.378.213.535.36.157.143.282.32.375.53.097.21.145.465.145.765 0 .327-.057.633-.17.92-.11.283-.273.532-.49.745-.213.21-.475.377-.785.5-.31.12-.665.18-1.065.18a3.29 3.29 0 01-.68-.07 3.445 3.445 0 01-1.22-.49 2.897 2.897 0 01-.475-.39l.39-.645a.474.474 0 01.13-.115.327.327 0 01.175-.05c.083 0 .173.035.27.105.097.067.21.142.34.225.133.083.288.16.465.23.18.067.395.1.645.1.383 0 .68-.09.89-.27.21-.183.315-.445.315-.785a.716.716 0 00-.145-.465 1.091 1.091 0 00-.375-.3 2.762 2.762 0 00-.535-.21c-.2-.057-.403-.118-.61-.185a5.358 5.358 0 01-.61-.24 1.974 1.974 0 01-.535-.365 1.7 1.7 0 01-.38-.56 2.205 2.205 0 01-.14-.835c0-.263.052-.52.155-.77.107-.25.26-.472.46-.665.203-.193.452-.348.745-.465a2.694 2.694 0 011.005-.175c.427 0 .82.067 1.18.2s.667.32.92.56l-.33.635zm3.536.705c.324 0 .62.052.89.155.274.103.509.255.705.455.197.197.35.44.46.73a2.738 2.738 0 01.15 1.22.322.322 0 01-.045.145.189.189 0 01-.085.075.42.42 0 01-.14.02h-3.17c.037.527.179.913.425 1.16.247.247.574.37.98.37.2 0 .372-.023.515-.07.147-.047.274-.098.38-.155.11-.057.205-.108.285-.155a.492.492 0 01.24-.07.266.266 0 01.225.115l.36.45c-.136.16-.29.295-.46.405a2.725 2.725 0 01-1.1.395c-.19.027-.375.04-.555.04-.356 0-.688-.058-.995-.175a2.281 2.281 0 01-.8-.525 2.501 2.501 0 01-.535-.86 3.347 3.347 0 01-.195-1.19c0-.35.057-.678.17-.985.114-.31.275-.578.485-.805.214-.23.472-.412.775-.545.307-.133.652-.2 1.035-.2zm.025.885c-.36 0-.641.102-.845.305-.203.203-.333.492-.39.865h2.32c0-.16-.021-.31-.065-.45a1.041 1.041 0 00-.2-.375.916.916 0 00-.34-.25 1.132 1.132 0 00-.48-.095zm3.197 4.325v-5.13h.725c.127 0 .215.023.265.07.05.047.083.127.1.24l.075.62a2.42 2.42 0 01.645-.75 1.36 1.36 0 01.83-.275c.253 0 .463.058.63.175l-.16.925a.204.204 0 01-.065.13.233.233 0 01-.135.035.861.861 0 01-.205-.035 1.391 1.391 0 00-.345-.035 1.04 1.04 0 00-.66.215c-.183.14-.338.347-.465.62V412h-1.235zm6.652 0h-1.12l-2.04-5.13h1.025c.09 0 .165.022.225.065a.326.326 0 01.13.165l.99 2.74a7.613 7.613 0 01.245.93 10.8 10.8 0 01.1-.46c.04-.153.09-.31.15-.47l1.015-2.74a.333.333 0 01.125-.165.36.36 0 01.215-.065h.975l-2.035 5.13zm4.077-5.13V412h-1.235v-5.13h1.235zm.185-1.495a.692.692 0 01-.065.3.79.79 0 01-.175.245.819.819 0 01-.25.17.8.8 0 01-.31.06.794.794 0 01-.305-.06.846.846 0 01-.415-.415.804.804 0 010-.61.778.778 0 01.415-.415.746.746 0 01.615 0c.097.04.18.095.25.165a.767.767 0 01.24.56zm4.82 2.58a.57.57 0 01-.11.11c-.033.027-.083.04-.15.04a.348.348 0 01-.185-.055 3.544 3.544 0 00-.215-.13 1.4 1.4 0 00-.725-.19c-.217 0-.407.04-.57.12-.163.077-.3.188-.41.335a1.538 1.538 0 00-.24.535c-.053.207-.08.442-.08.705 0 .273.028.517.085.73.06.213.145.393.255.54.11.143.243.253.4.33.157.073.333.11.53.11s.355-.023.475-.07c.123-.05.227-.103.31-.16.083-.06.155-.113.215-.16a.33.33 0 01.21-.075c.1 0 .175.038.225.115l.355.45a2.31 2.31 0 01-.445.405 2.56 2.56 0 01-.5.26c-.17.063-.347.108-.53.135-.183.027-.365.04-.545.04-.317 0-.615-.058-.895-.175a2.139 2.139 0 01-.735-.52 2.544 2.544 0 01-.495-.83c-.12-.33-.18-.705-.18-1.125 0-.377.053-.725.16-1.045.11-.323.27-.602.48-.835.21-.237.47-.422.78-.555.31-.133.667-.2 1.07-.2.383 0 .718.062 1.005.185.29.123.55.3.78.53l-.325.45zm3.281-1.165c.323 0 .62.052.89.155.273.103.508.255.705.455.196.197.35.44.46.73a2.738 2.738 0 01.15 1.22.35.35 0 01-.045.145.194.194 0 01-.085.075.428.428 0 01-.14.02h-3.17c.036.527.178.913.425 1.16.246.247.573.37.98.37.2 0 .371-.023.515-.07.146-.047.273-.098.38-.155.11-.057.205-.108.285-.155a.486.486 0 01.24-.07c.05 0 .093.01.13.03.036.02.068.048.095.085l.36.45c-.137.16-.29.295-.46.405-.17.107-.349.193-.535.26a3.038 3.038 0 01-.565.135c-.19.027-.375.04-.555.04-.357 0-.689-.058-.995-.175a2.263 2.263 0 01-.8-.525 2.486 2.486 0 01-.535-.86 3.347 3.347 0 01-.195-1.19c0-.35.056-.678.17-.985.113-.31.275-.578.485-.805.213-.23.471-.412.775-.545.306-.133.651-.2 1.035-.2zm.025.885c-.36 0-.642.102-.845.305-.204.203-.334.492-.39.865h2.32c0-.16-.022-.31-.065-.45a1.057 1.057 0 00-.2-.375.924.924 0 00-.34-.25 1.139 1.139 0 00-.48-.095z" fill="#697986"/><g filter="url(#prefix__filter4_d_10925_103693)"><rect x="454" y="331" width="64" height="64" rx="6" fill="#fff"/><path d="M475.924 350.269c2.729-.725 6.482-1.269 10.576-1.269s7.847.544 10.576 1.269c3.071.906 3.924 1.994 3.924 2.356 0 .362-.853 1.45-3.924 2.356-2.729.725-6.482 1.269-10.576 1.269s-7.847-.544-10.576-1.269c-3.071-.906-3.924-1.994-3.924-2.356 0-.362.853-1.45 3.924-2.356zM497.076 369.481c-2.9.907-6.652 1.269-10.576 1.269-3.924 0-7.847-.544-10.576-1.269-3.071-.906-3.924-1.993-3.924-2.356v-4.712c.853.543 2.047 1.087 3.412 1.45 2.9.906 6.994 1.45 11.088 1.45 4.094 0 8.188-.544 11.088-1.45 1.365-.363 2.559-.907 3.412-1.45v4.712c0 .363-.853 1.45-3.924 2.356z" fill="#697986"/><path fill-rule="evenodd" clip-rule="evenodd" d="M486.5 363.5c4.094 0 7.847-.544 10.576-1.269 3.071-.906 3.924-1.993 3.924-2.356v-4.712c-.853.543-2.047 1.087-3.412 1.45-2.9.906-6.994 1.45-11.088 1.45-4.094 0-8.188-.544-11.088-1.45-1.365-.363-2.559-.907-3.412-1.45v4.712c0 .363.853 1.45 3.924 2.356 2.729.725 6.482 1.269 10.576 1.269zm0-1.5a1.5 1.5 0 10-.001-3.001A1.5 1.5 0 00486.5 362zM486.5 378c3.924 0 7.676-.362 10.576-1.269 3.071-.906 3.924-1.993 3.924-2.356v-4.712c-.853.543-2.047 1.087-3.412 1.45-2.9.906-6.994 1.45-11.088 1.45-4.094 0-8.188-.544-11.088-1.45-1.365-.363-2.559-.907-3.412-1.45v4.712c0 .363.853 1.45 3.924 2.356 2.729.725 6.652 1.269 10.576 1.269zm0-1a1.5 1.5 0 10-.001-3.001A1.5 1.5 0 00486.5 377z" fill="#697986"/><rect x="454.5" y="331.5" width="63" height="63" rx="5.5" stroke="#BECACF"/></g><path d="M474.105 406.085a.367.367 0 01-.13.155.308.308 0 01-.17.045.446.446 0 01-.225-.075 5.823 5.823 0 00-.295-.175 2.279 2.279 0 00-.4-.17 1.607 1.607 0 00-.535-.08c-.187 0-.35.023-.49.07a1.025 1.025 0 00-.35.185.765.765 0 00-.21.29.92.92 0 00-.07.365c0 .17.047.312.14.425.097.113.223.21.38.29.157.08.335.152.535.215s.403.132.61.205c.21.07.415.153.615.25.2.093.378.213.535.36.157.143.282.32.375.53.097.21.145.465.145.765 0 .327-.057.633-.17.92-.11.283-.273.532-.49.745-.213.21-.475.377-.785.5-.31.12-.665.18-1.065.18a3.29 3.29 0 01-.68-.07 3.445 3.445 0 01-1.22-.49 2.897 2.897 0 01-.475-.39l.39-.645a.474.474 0 01.13-.115.327.327 0 01.175-.05c.083 0 .173.035.27.105.097.067.21.142.34.225.133.083.288.16.465.23.18.067.395.1.645.1.383 0 .68-.09.89-.27.21-.183.315-.445.315-.785a.716.716 0 00-.145-.465 1.091 1.091 0 00-.375-.3 2.762 2.762 0 00-.535-.21c-.2-.057-.403-.118-.61-.185a5.358 5.358 0 01-.61-.24 1.974 1.974 0 01-.535-.365 1.7 1.7 0 01-.38-.56 2.205 2.205 0 01-.14-.835c0-.263.052-.52.155-.77.107-.25.26-.472.46-.665.203-.193.452-.348.745-.465a2.694 2.694 0 011.005-.175c.427 0 .82.067 1.18.2s.667.32.92.56l-.33.635zm3.536.705c.324 0 .62.052.89.155.274.103.509.255.705.455.197.197.35.44.46.73a2.738 2.738 0 01.15 1.22.322.322 0 01-.045.145.189.189 0 01-.085.075.42.42 0 01-.14.02h-3.17c.037.527.179.913.425 1.16.247.247.574.37.98.37.2 0 .372-.023.515-.07.147-.047.274-.098.38-.155.11-.057.205-.108.285-.155a.492.492 0 01.24-.07.266.266 0 01.225.115l.36.45c-.136.16-.29.295-.46.405a2.725 2.725 0 01-1.1.395c-.19.027-.375.04-.555.04-.356 0-.688-.058-.995-.175a2.281 2.281 0 01-.8-.525 2.501 2.501 0 01-.535-.86 3.347 3.347 0 01-.195-1.19c0-.35.057-.678.17-.985.114-.31.275-.578.485-.805.214-.23.472-.412.775-.545.307-.133.652-.2 1.035-.2zm.025.885c-.36 0-.641.102-.845.305-.203.203-.333.492-.39.865h2.32c0-.16-.021-.31-.065-.45a1.041 1.041 0 00-.2-.375.916.916 0 00-.34-.25 1.132 1.132 0 00-.48-.095zm3.197 4.325v-5.13h.725c.127 0 .215.023.265.07.05.047.083.127.1.24l.075.62a2.42 2.42 0 01.645-.75 1.36 1.36 0 01.83-.275c.253 0 .463.058.63.175l-.16.925a.204.204 0 01-.065.13.233.233 0 01-.135.035.861.861 0 01-.205-.035 1.391 1.391 0 00-.345-.035 1.04 1.04 0 00-.66.215c-.183.14-.338.347-.465.62V412h-1.235zm6.652 0h-1.12l-2.04-5.13h1.025c.09 0 .165.022.225.065a.326.326 0 01.13.165l.99 2.74a7.613 7.613 0 01.245.93 10.8 10.8 0 01.1-.46c.04-.153.09-.31.15-.47l1.015-2.74a.333.333 0 01.125-.165.36.36 0 01.215-.065h.975l-2.035 5.13zm4.077-5.13V412h-1.235v-5.13h1.235zm.185-1.495a.692.692 0 01-.065.3.79.79 0 01-.175.245.819.819 0 01-.25.17.8.8 0 01-.31.06.794.794 0 01-.305-.06.846.846 0 01-.415-.415.804.804 0 010-.61.778.778 0 01.415-.415.746.746 0 01.615 0c.097.04.18.095.25.165a.767.767 0 01.24.56zm4.82 2.58a.57.57 0 01-.11.11c-.033.027-.083.04-.15.04a.348.348 0 01-.185-.055 3.544 3.544 0 00-.215-.13 1.4 1.4 0 00-.725-.19c-.217 0-.407.04-.57.12-.163.077-.3.188-.41.335a1.538 1.538 0 00-.24.535c-.053.207-.08.442-.08.705 0 .273.028.517.085.73.06.213.145.393.255.54.11.143.243.253.4.33.157.073.333.11.53.11s.355-.023.475-.07c.123-.05.227-.103.31-.16.083-.06.155-.113.215-.16a.33.33 0 01.21-.075c.1 0 .175.038.225.115l.355.45a2.31 2.31 0 01-.445.405 2.56 2.56 0 01-.5.26c-.17.063-.347.108-.53.135-.183.027-.365.04-.545.04-.317 0-.615-.058-.895-.175a2.139 2.139 0 01-.735-.52 2.544 2.544 0 01-.495-.83c-.12-.33-.18-.705-.18-1.125 0-.377.053-.725.16-1.045.11-.323.27-.602.48-.835.21-.237.47-.422.78-.555.31-.133.667-.2 1.07-.2.383 0 .718.062 1.005.185.29.123.55.3.78.53l-.325.45zm3.281-1.165c.323 0 .62.052.89.155.273.103.508.255.705.455.196.197.35.44.46.73a2.738 2.738 0 01.15 1.22.35.35 0 01-.045.145.194.194 0 01-.085.075.428.428 0 01-.14.02h-3.17c.036.527.178.913.425 1.16.246.247.573.37.98.37.2 0 .371-.023.515-.07.146-.047.273-.098.38-.155.11-.057.205-.108.285-.155a.486.486 0 01.24-.07c.05 0 .093.01.13.03.036.02.068.048.095.085l.36.45c-.137.16-.29.295-.46.405-.17.107-.349.193-.535.26a3.038 3.038 0 01-.565.135c-.19.027-.375.04-.555.04-.357 0-.689-.058-.995-.175a2.263 2.263 0 01-.8-.525 2.486 2.486 0 01-.535-.86 3.347 3.347 0 01-.195-1.19c0-.35.056-.678.17-.985.113-.31.275-.578.485-.805.213-.23.471-.412.775-.545.306-.133.651-.2 1.035-.2zm.025.885c-.36 0-.642.102-.845.305-.204.203-.334.492-.39.865h2.32c0-.16-.022-.31-.065-.45a1.057 1.057 0 00-.2-.375.924.924 0 00-.34-.25 1.139 1.139 0 00-.48-.095z" fill="#697986"/><g filter="url(#prefix__filter5_d_10925_103693)"><rect x="70" y="16" width="64" height="64" rx="6" fill="#fff"/><path d="M90.736 33.594A1 1 0 0191.65 33h20.7a1 1 0 01.914.594l3.111 7a1 1 0 01-.914 1.406H88.539a1 1 0 01-.914-1.406l3.111-7z" fill="#512FC9"/><path fill-rule="evenodd" clip-rule="evenodd" d="M87 44a1 1 0 011-1h28a1 1 0 011 1v4a1 1 0 01-1 1H88a1 1 0 01-1-1v-4zm25 2a1 1 0 011-1h2a1 1 0 010 2h-2a1 1 0 01-1-1zm-2-1a1 1 0 100 2 1 1 0 000-2zM87 58a1 1 0 011-1h28a1 1 0 011 1v4a1 1 0 01-1 1H88a1 1 0 01-1-1v-4zm25 2a1 1 0 011-1h2a1 1 0 010 2h-2a1 1 0 01-1-1zm-2-1a1 1 0 100 2 1 1 0 000-2zM87 51a1 1 0 011-1h28a1 1 0 011 1v4a1 1 0 01-1 1H88a1 1 0 01-1-1v-4zm25 2a1 1 0 011-1h2a1 1 0 010 2h-2a1 1 0 01-1-1zm-2-1a1 1 0 100 2 1 1 0 000-2zm-10 1a1 1 0 112 0 1 1 0 01-2 0zm-2-1a1 1 0 100 2 1 1 0 000-2zm-4 1a1 1 0 112 0 1 1 0 01-2 0zm-2-1a1 1 0 100 2 1 1 0 000-2z" fill="#512FC9"/><rect x="70.5" y="16.5" width="63" height="63" rx="5.5" stroke="#512FC9" stroke-opacity=".2"/></g><path d="M97.105 91.085a.363.363 0 01-.13.155.308.308 0 01-.17.045.448.448 0 01-.225-.075 5.823 5.823 0 00-.295-.175 2.257 2.257 0 00-.4-.17 1.6 1.6 0 00-.535-.08c-.187 0-.35.023-.49.07a1.03 1.03 0 00-.35.185.757.757 0 00-.21.29.925.925 0 00-.07.365c0 .17.047.312.14.425.097.113.223.21.38.29.157.08.335.152.535.215s.403.132.61.205c.21.07.415.153.615.25.2.093.378.213.535.36.157.143.282.32.375.53.097.21.145.465.145.765 0 .327-.057.633-.17.92a2.1 2.1 0 01-.49.745 2.33 2.33 0 01-.785.5c-.31.12-.665.18-1.065.18-.23 0-.457-.023-.68-.07a3.508 3.508 0 01-.645-.19 3.479 3.479 0 01-.575-.3 2.88 2.88 0 01-.475-.39l.39-.645a.475.475 0 01.13-.115.324.324 0 01.175-.05.47.47 0 01.27.105c.097.067.21.142.34.225.133.083.288.16.465.23.18.067.395.1.645.1.383 0 .68-.09.89-.27.21-.183.315-.445.315-.785a.718.718 0 00-.145-.465 1.097 1.097 0 00-.375-.3 2.717 2.717 0 00-.535-.21c-.2-.057-.403-.118-.61-.185a5.27 5.27 0 01-.61-.24 1.976 1.976 0 01-.535-.365 1.697 1.697 0 01-.38-.56 2.198 2.198 0 01-.14-.835c0-.263.052-.52.155-.77.107-.25.26-.472.46-.665.203-.193.452-.348.745-.465a2.702 2.702 0 011.005-.175c.427 0 .82.067 1.18.2s.667.32.92.56l-.33.635zm5.361 0a.358.358 0 01-.13.155.305.305 0 01-.17.045.452.452 0 01-.225-.075 5.41 5.41 0 00-.295-.175 2.225 2.225 0 00-.4-.17 1.6 1.6 0 00-.535-.08c-.186 0-.35.023-.49.07a1.035 1.035 0 00-.35.185.757.757 0 00-.21.29.927.927 0 00-.07.365c0 .17.047.312.14.425.097.113.224.21.38.29.157.08.335.152.535.215s.404.132.61.205c.21.07.415.153.615.25.2.093.379.213.535.36.157.143.282.32.375.53.097.21.145.465.145.765 0 .327-.056.633-.17.92-.11.283-.273.532-.49.745-.213.21-.475.377-.785.5-.31.12-.665.18-1.065.18-.23 0-.456-.023-.68-.07a3.508 3.508 0 01-.645-.19 3.479 3.479 0 01-.575-.3 2.883 2.883 0 01-.475-.39l.39-.645a.475.475 0 01.13-.115.324.324 0 01.175-.05.47.47 0 01.27.105c.097.067.21.142.34.225.134.083.289.16.465.23.18.067.395.1.645.1.384 0 .68-.09.89-.27.21-.183.315-.445.315-.785a.716.716 0 00-.145-.465 1.091 1.091 0 00-.375-.3 2.7 2.7 0 00-.535-.21c-.2-.057-.403-.118-.61-.185a5.277 5.277 0 01-.61-.24 1.976 1.976 0 01-.535-.365 1.698 1.698 0 01-.38-.56 2.198 2.198 0 01-.14-.835c0-.263.052-.52.155-.77.107-.25.26-.472.46-.665.204-.193.452-.348.745-.465a2.703 2.703 0 011.005-.175c.427 0 .82.067 1.18.2s.667.32.92.56l-.33.635zM110.053 97h-1.355v-3.16h-3.39V97h-1.355v-7.23h1.355v3.11h3.39v-3.11h1.355V97z" fill="#697986"/><g filter="url(#prefix__filter6_d_10925_103693)"><rect x="166" y="16" width="64" height="64" rx="6" fill="#fff"/><path d="M210.788 39.672c-.177-.568-.603-1.03-1.134-1.313l-10.813-5.181c-.283-.142-.602-.178-.886-.178-.283 0-.602 0-.886.071l-10.812 5.217c-.532.248-.922.71-1.064 1.313l-2.658 11.677a2.24 2.24 0 00.389 1.703l7.48 9.263a2.58 2.58 0 001.631.745h11.911c.638.071 1.241-.213 1.631-.745l7.48-9.263c.354-.497.496-1.1.425-1.703l-2.694-11.606z" fill="#fff"/><path fill-rule="evenodd" clip-rule="evenodd" d="M209.654 38.359c.531.284.957.745 1.134 1.313l2.694 11.606a2.427 2.427 0 01-.425 1.703l-7.48 9.263c-.39.532-.993.816-1.631.745h-11.911a2.58 2.58 0 01-1.631-.745l-7.48-9.263a2.24 2.24 0 01-.389-1.703l2.658-11.677a1.907 1.907 0 011.064-1.313l10.812-5.217c.284-.071.603-.071.886-.071.284 0 .603.035.886.178l10.813 5.181zm-.603 12.422c0 .035.035.035.071.035.319.07.603.355.638.745a.77.77 0 01-.709.497c-.071 0-.106 0-.177-.035-.036-.036-.036-.036-.071-.036a.227.227 0 01-.095-.022c-.018-.007-.032-.013-.047-.013a1.226 1.226 0 01-.286-.123c-.033-.018-.067-.037-.104-.055-.071 0-.142-.035-.213-.07h-.035a5.966 5.966 0 00-1.134-.32h-.036a.4.4 0 00-.283.106s0 .036-.036.036l-.284-.036c-.638 2.023-2.02 3.727-3.828 4.827l.106.284s-.035 0-.035.035a.422.422 0 00-.036.355c.142.355.319.71.568 1.03v.07c.07.071.106.107.141.178.107.106.178.213.248.355.036.035.071.07.071.106 0 0 .036 0 .036.036a.908.908 0 01.035.532.592.592 0 01-.319.39 2.01 2.01 0 00-.062.022.61.61 0 01-.221.05c-.284 0-.532-.178-.674-.426-.035 0-.035-.036-.035-.036-.018-.018-.027-.035-.036-.053-.009-.018-.018-.036-.035-.053-.071-.107-.107-.249-.142-.39l-.071-.214v-.035c-.106-.39-.284-.745-.461-1.1a.552.552 0 00-.283-.213c0-.036 0-.036-.036-.036l-.142-.248-.277.086c-.276.088-.566.18-.857.233a7.09 7.09 0 01-1.914.249 8.331 8.331 0 01-3.084-.568l-.142.284c0 .017 0 .026-.005.03-.004.005-.013.005-.031.005a.552.552 0 00-.283.213c-.178.355-.355.71-.461 1.1l-.071.213a1.252 1.252 0 01-.071.195 1.252 1.252 0 00-.071.196c-.035.035-.071.07-.071.106-.035 0-.035.036-.035.036-.142.248-.39.425-.674.425a.656.656 0 01-.248-.07.731.731 0 01-.284-.959c.036 0 .036-.035.036-.035a.163.163 0 00.035-.053.186.186 0 01.036-.054 3.21 3.21 0 00.122-.18 1.09 1.09 0 01.126-.175.632.632 0 00.142-.177v-.035c.212-.32.425-.675.567-1.03a.425.425 0 00-.035-.355s-.036 0-.036-.035l.177-.249c-.354-.177-.638-.39-.957-.638a8.572 8.572 0 01-2.907-4.153l-.319.036s0-.036-.035-.036a.402.402 0 00-.284-.106h-.035c-.426.07-.78.177-1.17.32h-.036c-.07 0-.141.035-.212.07-.04.013-.084.032-.132.05-.08.034-.169.07-.258.092a.306.306 0 01-.047-.007c-.043-.008-.095-.018-.095.007 0 .018 0 .027-.004.031-.005.005-.014.005-.031.005-.071.035-.107.035-.178.035a.658.658 0 01-.709-.497.693.693 0 01.567-.816c.021-.02.03-.03.04-.033.008-.003.016-.003.031-.003.042 0 .071-.012.096-.022a.128.128 0 01.046-.013c.071 0 .142-.009.213-.018.071-.009.142-.017.213-.017.07-.036.141-.036.212-.036a6.576 6.576 0 001.206-.213c.106-.07.212-.142.248-.248 0 0 .035 0 .035-.036l.284-.07c-.319-2.024.142-4.082 1.241-5.821.017-.036.035-.062.053-.089.017-.027.035-.053.053-.089l-.206-.206c.016-.102-.048-.226-.113-.29-.284-.284-.638-.497-.993-.71l-.212-.107a3.827 3.827 0 01-.39-.213c-.036 0-.107-.07-.107-.07s0-.036-.035-.036a.763.763 0 01-.142-.994c.106-.177.284-.248.496-.248.178 0 .355.07.497.177l.035.036a.186.186 0 00.053.035.171.171 0 01.053.035c.054.054.098.107.142.16.044.053.089.107.142.16.011.01.025.022.04.033.035.027.077.06.102.109.248.284.567.568.886.816.071.036.142.071.213.071a.231.231 0 00.095-.022.127.127 0 01.047-.013h.035l.213.142c1.17-1.242 2.694-2.13 4.36-2.485l.182-.03c.356-.06.69-.117 1.023-.147l.036-.284v-.071c.106-.071.142-.177.177-.284 0-.426 0-.816-.071-1.207v-.035c0-.071 0-.142-.035-.213a1.757 1.757 0 01-.071-.426v-.177c0-.178.071-.355.212-.497.178-.178.39-.284.603-.249.355.036.638.39.603.746v.213c-.018.07-.027.142-.036.212-.009.071-.017.142-.035.213a.44.44 0 01-.018.107c-.009.035-.018.07-.018.106v.036c-.07.426-.07.816-.07 1.206.035.107.07.213.177.284v-.035l.035.284c1.666.177 3.297.816 4.609 1.845.141.142.292.284.443.426.15.142.301.284.443.426l.284-.177h.035c.035.035.106.035.142.035a.496.496 0 00.212-.07 4.63 4.63 0 00.887-.782.293.293 0 01.04-.033c.035-.027.077-.059.102-.108.07-.107.177-.214.283-.32.036 0 .071-.035.106-.07l.036-.036a.846.846 0 01.496-.178.68.68 0 01.497.249c.248.319.177.745-.142.993 0 .014.005.022.009.03.007.011.013.02-.009.041-.018.018-.036.027-.053.036a.186.186 0 00-.054.035c-.071.036-.133.071-.195.107-.062.035-.124.07-.195.106l-.212.107a6.319 6.319 0 00-.993.71c-.071.07-.106.212-.106.319v.035l-.213.213a9.623 9.623 0 011.241 2.91c.213 1.03.283 2.094.142 3.124l.283.07a.43.43 0 00.248.25c.39.105.816.176 1.206.212h.035c.071.035.142.035.213.035.142 0 .283 0 .425.036.071 0 .142 0 .142.036zm-18.498-6.95l-.007-.007v.036a.14.14 0 00.007-.029zm7.367 6.346l.957-.461.248-1.03-.673-.851h-1.064l-.674.852.249 1.029.957.461zm6.877-.532a6.806 6.806 0 00-.142-2.236 7.217 7.217 0 00-.851-2.094l-2.658 2.413a.567.567 0 00-.142.249c-.071.32.106.639.425.71l3.368.958zm-4.963-3.585l2.907-2.058a6.67 6.67 0 00-4.006-1.917l.213 3.585c0 .106.035.177.106.248.177.249.532.284.78.142zm-2.8-4.01l-.709.142a7.034 7.034 0 00-3.297 1.81l2.942 2.094.063.022c.075.026.136.049.221.049.319 0 .602-.249.602-.568l.178-3.55zm-2.411 5.607L192 45.315a7.472 7.472 0 00-1.028 4.33l3.438-.994c.142-.035.213-.07.284-.177a.57.57 0 00-.071-.817zm.284 3.053l-3.51.603a6.978 6.978 0 002.73 3.478l1.347-3.265a.418.418 0 00.035-.355c-.035-.284-.319-.462-.602-.462zm3.013 5.181c.532 0 1.028-.07 1.524-.177.248-.071.461-.107.674-.142l-1.702-3.088a1.735 1.735 0 00-.284-.248c-.248-.142-.531-.071-.709.142l-1.737 3.158c.709.213 1.489.355 2.234.355zm3.722-1.136a6.775 6.775 0 002.127-2.129c.284-.39.496-.852.674-1.349l-3.545-.603c-.107 0-.213.035-.319.071h-.001a.578.578 0 00-.319.674l1.383 3.336z" fill="#512FC9"/><rect x="166.5" y="16.5" width="63" height="63" rx="5.5" stroke="#512FC9" stroke-opacity=".2"/></g><path d="M173.62 92.8h.315a.853.853 0 00.315-.05.557.557 0 00.215-.17l1.995-2.525a.703.703 0 01.26-.22.83.83 0 01.35-.065h1.16l-2.435 3.005c-.077.093-.15.172-.22.235s-.145.115-.225.155c.11.04.208.097.295.17.09.073.177.167.26.28l2.51 3.385h-1.19a.78.78 0 01-.36-.065.584.584 0 01-.195-.2l-2.045-2.67a.588.588 0 00-.225-.185.841.841 0 00-.355-.06h-.425V97h-1.345v-7.235h1.345V92.8zm6.652-.93v3.26c0 .313.072.557.215.73.147.17.365.255.655.255.214 0 .414-.047.6-.14.187-.097.364-.228.53-.395v-3.71h1.235V97h-.755c-.16 0-.265-.075-.315-.225l-.085-.41a3.676 3.676 0 01-.33.295 1.944 1.944 0 01-.78.365 1.949 1.949 0 01-.475.055 1.87 1.87 0 01-.745-.14 1.524 1.524 0 01-.54-.405 1.814 1.814 0 01-.335-.615 2.705 2.705 0 01-.11-.79v-3.26h1.235zm4.569 5.13v-7.43h1.235v2.93c.203-.217.433-.388.69-.515a1.97 1.97 0 01.9-.195c.28 0 .535.058.765.175.233.113.433.28.6.5.17.22.3.492.39.815.093.323.14.695.14 1.115 0 .383-.052.738-.155 1.065-.103.327-.252.61-.445.85-.19.24-.422.428-.695.565-.27.133-.573.2-.91.2a1.73 1.73 0 01-.785-.18 1.627 1.627 0 01-.3-.205 2.886 2.886 0 01-.26-.275l-.055.345c-.02.087-.055.148-.105.185a.31.31 0 01-.195.055h-.815zm2.4-4.25c-.257 0-.477.055-.66.165-.18.107-.348.258-.505.455v2.3c.14.173.292.295.455.365.167.067.347.1.54.1.187 0 .355-.035.505-.105a.969.969 0 00.38-.32c.107-.143.188-.323.245-.54.057-.22.085-.478.085-.775 0-.3-.025-.553-.075-.76a1.448 1.448 0 00-.205-.51.815.815 0 00-.33-.285 1.007 1.007 0 00-.435-.09zm5.408-.96c.323 0 .62.052.89.155.273.103.508.255.705.455.197.197.35.44.46.73a2.736 2.736 0 01.15 1.22.348.348 0 01-.045.145.185.185 0 01-.085.075.416.416 0 01-.14.02h-3.17c.037.527.178.913.425 1.16.247.247.573.37.98.37.2 0 .372-.023.515-.07a2.3 2.3 0 00.38-.155c.11-.057.205-.108.285-.155a.49.49 0 01.24-.07c.05 0 .093.01.13.03.037.02.068.048.095.085l.36.45c-.137.16-.29.295-.46.405a2.725 2.725 0 01-1.1.395c-.19.027-.375.04-.555.04-.357 0-.688-.058-.995-.175a2.272 2.272 0 01-.8-.525 2.489 2.489 0 01-.535-.86 3.349 3.349 0 01-.195-1.19c0-.35.057-.678.17-.985.113-.31.275-.578.485-.805a2.31 2.31 0 01.775-.545c.307-.133.652-.2 1.035-.2zm.025.885c-.36 0-.642.102-.845.305-.203.203-.333.492-.39.865h2.32c0-.16-.022-.31-.065-.45a1.036 1.036 0 00-.2-.375.919.919 0 00-.34-.25 1.134 1.134 0 00-.48-.095zM195.871 97v-5.13h.725c.127 0 .215.023.265.07.05.047.083.127.1.24l.075.62c.183-.317.398-.567.645-.75.247-.183.523-.275.83-.275.253 0 .463.058.63.175l-.16.925c-.01.06-.032.103-.065.13a.23.23 0 01-.135.035.846.846 0 01-.205-.035 1.377 1.377 0 00-.345-.035c-.257 0-.477.072-.66.215-.183.14-.338.347-.465.62V97h-1.235zm4.082 0v-5.13h.755c.16 0 .265.075.315.225l.085.405a2.44 2.44 0 01.69-.515c.13-.063.268-.112.415-.145.147-.033.307-.05.48-.05.28 0 .528.048.745.145.217.093.397.227.54.4.147.17.257.375.33.615.077.237.115.498.115.785V97h-1.235v-3.265c0-.313-.073-.555-.22-.725-.143-.173-.36-.26-.65-.26-.213 0-.413.048-.6.145a2.15 2.15 0 00-.53.395V97h-1.235zm7.804-5.21c.323 0 .62.052.89.155.273.103.508.255.705.455.196.197.35.44.46.73a2.736 2.736 0 01.15 1.22.348.348 0 01-.045.145.19.19 0 01-.085.075.42.42 0 01-.14.02h-3.17c.036.527.178.913.425 1.16.246.247.573.37.98.37.2 0 .371-.023.515-.07.146-.047.273-.098.38-.155.11-.057.205-.108.285-.155a.49.49 0 01.24-.07c.05 0 .093.01.13.03.036.02.068.048.095.085l.36.45c-.137.16-.29.295-.46.405-.17.107-.349.193-.535.26a2.992 2.992 0 01-.565.135c-.19.027-.375.04-.555.04a2.77 2.77 0 01-.995-.175 2.263 2.263 0 01-.8-.525 2.489 2.489 0 01-.535-.86 3.349 3.349 0 01-.195-1.19c0-.35.056-.678.17-.985.113-.31.275-.578.485-.805a2.3 2.3 0 01.775-.545c.306-.133.651-.2 1.035-.2zm.025.885c-.36 0-.642.102-.845.305-.204.203-.334.492-.39.865h2.32c0-.16-.022-.31-.065-.45a1.052 1.052 0 00-.2-.375.927.927 0 00-.34-.25 1.134 1.134 0 00-.48-.095zm4.881 4.405c-.443 0-.785-.125-1.025-.375-.24-.253-.36-.602-.36-1.045v-2.865h-.52a.26.26 0 01-.175-.065c-.046-.043-.07-.108-.07-.195v-.49l.825-.135.26-1.4a.258.258 0 01.09-.155.305.305 0 01.185-.055h.64v1.615h1.35v.88h-1.35v2.78c0 .16.04.285.12.375.08.09.187.135.32.135a.608.608 0 00.325-.085c.04-.02.075-.038.105-.055.03-.02.06-.03.09-.03.037 0 .067.01.09.03a.326.326 0 01.075.08l.37.6c-.18.15-.386.263-.62.34a2.305 2.305 0 01-.725.115zm4.303-5.29c.323 0 .62.052.89.155.273.103.508.255.705.455.196.197.35.44.46.73a2.736 2.736 0 01.15 1.22.348.348 0 01-.045.145.19.19 0 01-.085.075.42.42 0 01-.14.02h-3.17c.036.527.178.913.425 1.16.246.247.573.37.98.37.2 0 .371-.023.515-.07.146-.047.273-.098.38-.155.11-.057.205-.108.285-.155a.49.49 0 01.24-.07c.05 0 .093.01.13.03.036.02.068.048.095.085l.36.45c-.137.16-.29.295-.46.405-.17.107-.349.193-.535.26a2.992 2.992 0 01-.565.135c-.19.027-.375.04-.555.04a2.77 2.77 0 01-.995-.175 2.263 2.263 0 01-.8-.525 2.489 2.489 0 01-.535-.86 3.349 3.349 0 01-.195-1.19c0-.35.056-.678.17-.985.113-.31.275-.578.485-.805a2.3 2.3 0 01.775-.545c.306-.133.651-.2 1.035-.2zm.025.885c-.36 0-.642.102-.845.305-.204.203-.334.492-.39.865h2.32c0-.16-.022-.31-.065-.45a1.052 1.052 0 00-.2-.375.927.927 0 00-.34-.25 1.134 1.134 0 00-.48-.095zm6.241.195a.35.35 0 01-.105.115.288.288 0 01-.14.03.457.457 0 01-.195-.05 5.438 5.438 0 00-.235-.11 1.94 1.94 0 00-.31-.115 1.444 1.444 0 00-.405-.05c-.243 0-.435.052-.575.155a.48.48 0 00-.21.405.4.4 0 00.105.28c.074.073.169.138.285.195.12.057.255.108.405.155.15.043.304.092.46.145.157.053.31.115.46.185.15.067.284.153.4.26.12.103.215.228.285.375.074.147.11.323.11.53 0 .247-.045.475-.135.685a1.52 1.52 0 01-.395.54c-.173.15-.388.268-.645.355a2.799 2.799 0 01-.875.125c-.176 0-.35-.017-.52-.05a2.871 2.871 0 01-.915-.33 2.136 2.136 0 01-.345-.25l.285-.47c.037-.057.08-.1.13-.13a.366.366 0 01.19-.045c.077 0 .149.022.215.065.07.043.15.09.24.14a1.426 1.426 0 00.78.205c.147 0 .272-.017.375-.05a.788.788 0 00.26-.14.49.49 0 00.15-.195.573.573 0 00.05-.235.407.407 0 00-.11-.295.901.901 0 00-.285-.2 2.411 2.411 0 00-.405-.15c-.15-.047-.305-.097-.465-.15a5.138 5.138 0 01-.465-.185 1.7 1.7 0 01-.405-.275 1.306 1.306 0 01-.285-.405 1.443 1.443 0 01-.105-.58c0-.21.042-.41.125-.6.084-.19.205-.355.365-.495.164-.143.365-.257.605-.34.244-.087.524-.13.84-.13.354 0 .675.058.965.175.29.117.532.27.725.46l-.28.445z" fill="#697986"/><g filter="url(#prefix__filter7_d_10925_103693)"><rect x="262" y="16" width="64" height="64" rx="6" fill="#fff"/><path d="M282.736 33.594a1 1 0 01.914-.594h20.7a1 1 0 01.914.594l3.111 7a1 1 0 01-.914 1.406h-26.922a1 1 0 01-.914-1.406l3.111-7z" fill="#512FC9"/><path fill-rule="evenodd" clip-rule="evenodd" d="M279 44a1 1 0 011-1h28a1 1 0 011 1v4a1 1 0 01-1 1h-28a1 1 0 01-1-1v-4zm25 2a1 1 0 011-1h2a1 1 0 010 2h-2a1 1 0 01-1-1zm-2-1a1 1 0 100 2 1 1 0 000-2zM279 58a1 1 0 011-1h28a1 1 0 011 1v4a1 1 0 01-1 1h-28a1 1 0 01-1-1v-4zm25 2a1 1 0 011-1h2a1 1 0 010 2h-2a1 1 0 01-1-1zm-2-1a1 1 0 100 2 1 1 0 000-2zM279 51a1 1 0 011-1h28a1 1 0 011 1v4a1 1 0 01-1 1h-28a1 1 0 01-1-1v-4zm25 2a1 1 0 011-1h2a1 1 0 010 2h-2a1 1 0 01-1-1zm-2-1a1 1 0 100 2 1 1 0 000-2zm-10 1a1 1 0 112 0 1 1 0 01-2 0zm-2-1a1 1 0 100 2 1 1 0 000-2zm-4 1a1 1 0 112 0 1 1 0 01-2 0zm-2-1a1 1 0 100 2 1 1 0 000-2z" fill="#512FC9"/><rect x="262.5" y="16.5" width="63" height="63" rx="5.5" stroke="#512FC9" stroke-opacity=".2"/></g><path d="M277.65 93.385c0 .53-.088 1.017-.265 1.46a3.359 3.359 0 01-.745 1.145c-.32.32-.705.568-1.155.745-.45.177-.948.265-1.495.265h-2.76v-7.23h2.76c.547 0 1.045.09 1.495.27.45.177.835.425 1.155.745.32.317.568.697.745 1.14.177.443.265.93.265 1.46zm-1.375 0c0-.397-.053-.752-.16-1.065a2.233 2.233 0 00-.455-.8 1.95 1.95 0 00-.72-.505 2.45 2.45 0 00-.95-.175h-1.405v5.09h1.405c.353 0 .67-.058.95-.175.283-.117.523-.283.72-.5.197-.22.348-.487.455-.8.107-.317.16-.673.16-1.07zM282.651 97h-.555a.621.621 0 01-.275-.05c-.067-.037-.117-.108-.15-.215l-.11-.365c-.13.117-.259.22-.385.31-.124.087-.252.16-.385.22-.134.06-.275.105-.425.135a2.56 2.56 0 01-.5.045 2.02 2.02 0 01-.6-.085 1.34 1.34 0 01-.475-.265 1.203 1.203 0 01-.305-.435 1.531 1.531 0 01-.11-.605c0-.193.05-.383.15-.57.103-.19.273-.36.51-.51.236-.153.551-.28.945-.38.393-.1.881-.157 1.465-.17v-.3c0-.343-.074-.597-.22-.76-.144-.167-.354-.25-.63-.25a1.528 1.528 0 00-.85.23c-.097.057-.187.108-.27.155a.555.555 0 01-.275.07.356.356 0 01-.215-.065.504.504 0 01-.145-.16l-.225-.395c.59-.54 1.301-.81 2.135-.81.3 0 .566.05.8.15a1.67 1.67 0 01.97 1.035c.086.243.13.51.13.8V97zm-2.4-.77c.126 0 .243-.012.35-.035.106-.023.206-.058.3-.105.096-.047.188-.103.275-.17.09-.07.18-.152.27-.245v-.865c-.36.017-.662.048-.905.095-.24.043-.434.1-.58.17a.765.765 0 00-.315.245.553.553 0 00-.09.305c0 .217.063.372.19.465.13.093.298.14.505.14zm5.299.85c-.443 0-.785-.125-1.025-.375-.24-.253-.36-.602-.36-1.045v-2.865h-.52a.258.258 0 01-.175-.065c-.047-.043-.07-.108-.07-.195v-.49l.825-.135.26-1.4a.249.249 0 01.09-.155.305.305 0 01.185-.055h.64v1.615h1.35v.88h-1.35v2.78c0 .16.04.285.12.375.08.09.187.135.32.135.077 0 .14-.008.19-.025a2.716 2.716 0 00.24-.115c.03-.02.06-.03.09-.03.037 0 .067.01.09.03a.37.37 0 01.075.08l.37.6c-.18.15-.387.263-.62.34a2.305 2.305 0 01-.725.115zm6.202-.08h-.555a.627.627 0 01-.275-.05c-.066-.037-.116-.108-.15-.215l-.11-.365c-.13.117-.258.22-.385.31-.123.087-.251.16-.385.22a1.97 1.97 0 01-.425.135c-.15.03-.316.045-.5.045-.216 0-.416-.028-.6-.085a1.357 1.357 0 01-.475-.265 1.215 1.215 0 01-.305-.435 1.549 1.549 0 01-.11-.605c0-.193.05-.383.15-.57.104-.19.274-.36.51-.51.237-.153.552-.28.945-.38.394-.1.882-.157 1.465-.17v-.3c0-.343-.073-.597-.22-.76-.143-.167-.353-.25-.63-.25a1.533 1.533 0 00-.85.23c-.096.057-.186.108-.27.155a.552.552 0 01-.275.07.358.358 0 01-.215-.065.516.516 0 01-.145-.16l-.225-.395c.59-.54 1.302-.81 2.135-.81.3 0 .567.05.8.15a1.688 1.688 0 01.97 1.035c.087.243.13.51.13.8V97zm-2.4-.77c.127 0 .244-.012.35-.035a1.533 1.533 0 00.575-.275c.09-.07.18-.152.27-.245v-.865c-.36.017-.661.048-.905.095-.24.043-.433.1-.58.17a.778.778 0 00-.315.245.553.553 0 00-.09.305c0 .217.064.372.19.465.13.093.299.14.505.14zm3.63.77v-7.43h1.235v2.93c.203-.217.433-.388.69-.515.256-.13.556-.195.9-.195.28 0 .535.058.765.175.233.113.433.28.6.5.17.22.3.492.39.815.093.323.14.695.14 1.115 0 .383-.052.738-.155 1.065-.104.327-.252.61-.445.85-.19.24-.422.428-.695.565-.27.133-.574.2-.91.2a1.73 1.73 0 01-.785-.18 1.627 1.627 0 01-.3-.205 2.886 2.886 0 01-.26-.275l-.055.345c-.02.087-.055.148-.105.185a.31.31 0 01-.195.055h-.815zm2.4-4.25c-.257 0-.477.055-.66.165-.18.107-.349.258-.505.455v2.3a1.2 1.2 0 00.455.365c.166.067.346.1.54.1.186 0 .355-.035.505-.105a.976.976 0 00.38-.32c.106-.143.188-.323.245-.54.056-.22.085-.478.085-.775 0-.3-.025-.553-.075-.76a1.448 1.448 0 00-.205-.51.815.815 0 00-.33-.285 1.007 1.007 0 00-.435-.09zM302.69 97h-.555a.621.621 0 01-.275-.05c-.067-.037-.117-.108-.15-.215l-.11-.365c-.13.117-.259.22-.385.31-.124.087-.252.16-.385.22-.134.06-.275.105-.425.135a2.56 2.56 0 01-.5.045 2.02 2.02 0 01-.6-.085 1.34 1.34 0 01-.475-.265 1.203 1.203 0 01-.305-.435 1.531 1.531 0 01-.11-.605c0-.193.05-.383.15-.57.103-.19.273-.36.51-.51.236-.153.551-.28.945-.38.393-.1.881-.157 1.465-.17v-.3c0-.343-.074-.597-.22-.76-.144-.167-.354-.25-.63-.25a1.528 1.528 0 00-.85.23c-.097.057-.187.108-.27.155a.555.555 0 01-.275.07.356.356 0 01-.215-.065.504.504 0 01-.145-.16l-.225-.395c.59-.54 1.301-.81 2.135-.81.3 0 .566.05.8.15a1.67 1.67 0 01.97 1.035c.086.243.13.51.13.8V97zm-2.4-.77c.126 0 .243-.012.35-.035.106-.023.206-.058.3-.105.096-.047.188-.103.275-.17.09-.07.18-.152.27-.245v-.865c-.36.017-.662.048-.905.095-.24.043-.434.1-.58.17a.765.765 0 00-.315.245.553.553 0 00-.09.305c0 .217.063.372.19.465.13.093.298.14.505.14zm6.659-3.36a.35.35 0 01-.105.115.29.29 0 01-.14.03.457.457 0 01-.195-.05 6.066 6.066 0 00-.235-.11 1.94 1.94 0 00-.31-.115 1.444 1.444 0 00-.405-.05c-.243 0-.435.052-.575.155a.48.48 0 00-.21.405.4.4 0 00.105.28c.073.073.168.138.285.195.12.057.255.108.405.155.15.043.303.092.46.145.157.053.31.115.46.185.15.067.283.153.4.26.12.103.215.228.285.375.073.147.11.323.11.53 0 .247-.045.475-.135.685-.09.207-.222.387-.395.54-.173.15-.388.268-.645.355a2.799 2.799 0 01-.875.125c-.177 0-.35-.017-.52-.05a2.826 2.826 0 01-.915-.33 2.136 2.136 0 01-.345-.25l.285-.47c.037-.057.08-.1.13-.13a.364.364 0 01.19-.045c.077 0 .148.022.215.065.07.043.15.09.24.14.09.05.195.097.315.14.123.043.278.065.465.065.147 0 .272-.017.375-.05a.798.798 0 00.26-.14.49.49 0 00.15-.195.59.59 0 00.05-.235.41.41 0 00-.11-.295.901.901 0 00-.285-.2 2.479 2.479 0 00-.405-.15c-.15-.047-.305-.097-.465-.15a4.915 4.915 0 01-.465-.185 1.7 1.7 0 01-.405-.275 1.274 1.274 0 01-.285-.405 1.443 1.443 0 01-.105-.58c0-.21.042-.41.125-.6.083-.19.205-.355.365-.495.163-.143.365-.257.605-.34.243-.087.523-.13.84-.13.353 0 .675.058.965.175.29.117.532.27.725.46l-.28.445zm3.44-1.08c.324 0 .62.052.89.155.274.103.509.255.705.455.197.197.35.44.46.73a2.736 2.736 0 01.15 1.22.321.321 0 01-.045.145.185.185 0 01-.085.075.412.412 0 01-.14.02h-3.17c.037.527.179.913.425 1.16.247.247.574.37.98.37.2 0 .372-.023.515-.07.147-.047.274-.098.38-.155.11-.057.205-.108.285-.155a.495.495 0 01.24-.07.266.266 0 01.225.115l.36.45c-.136.16-.29.295-.46.405a2.725 2.725 0 01-1.1.395c-.19.027-.375.04-.555.04-.356 0-.688-.058-.995-.175a2.281 2.281 0 01-.8-.525 2.504 2.504 0 01-.535-.86 3.349 3.349 0 01-.195-1.19c0-.35.057-.678.17-.985.114-.31.275-.578.485-.805a2.32 2.32 0 01.775-.545c.307-.133.652-.2 1.035-.2zm.025.885c-.36 0-.641.102-.845.305-.203.203-.333.492-.39.865h2.32c0-.16-.021-.31-.065-.45a1.036 1.036 0 00-.2-.375.919.919 0 00-.34-.25 1.128 1.128 0 00-.48-.095zm6.242.195a.35.35 0 01-.105.115.288.288 0 01-.14.03.457.457 0 01-.195-.05 5.438 5.438 0 00-.235-.11 1.94 1.94 0 00-.31-.115 1.444 1.444 0 00-.405-.05c-.243 0-.435.052-.575.155a.48.48 0 00-.21.405.4.4 0 00.105.28c.074.073.169.138.285.195.12.057.255.108.405.155.15.043.304.092.46.145.157.053.31.115.46.185.15.067.284.153.4.26.12.103.215.228.285.375.074.147.11.323.11.53 0 .247-.045.475-.135.685a1.52 1.52 0 01-.395.54c-.173.15-.388.268-.645.355a2.799 2.799 0 01-.875.125c-.176 0-.35-.017-.52-.05a2.871 2.871 0 01-.915-.33 2.136 2.136 0 01-.345-.25l.285-.47c.037-.057.08-.1.13-.13a.366.366 0 01.19-.045c.077 0 .149.022.215.065.07.043.15.09.24.14a1.426 1.426 0 00.78.205c.147 0 .272-.017.375-.05a.788.788 0 00.26-.14.49.49 0 00.15-.195.573.573 0 00.05-.235.407.407 0 00-.11-.295.901.901 0 00-.285-.2 2.411 2.411 0 00-.405-.15c-.15-.047-.305-.097-.465-.15a5.138 5.138 0 01-.465-.185 1.7 1.7 0 01-.405-.275 1.306 1.306 0 01-.285-.405 1.443 1.443 0 01-.105-.58c0-.21.042-.41.125-.6.084-.19.205-.355.365-.495.164-.143.365-.257.605-.34.244-.087.524-.13.84-.13.354 0 .675.058.965.175.29.117.532.27.725.46l-.28.445z" fill="#697986"/><g filter="url(#prefix__filter8_d_10925_103693)"><rect x="358" y="16" width="64" height="64" rx="6" fill="#fff"/><path fill-rule="evenodd" clip-rule="evenodd" d="M384 55c.789 0 1.554-.101 2.283-.292A5.988 5.988 0 00391 57a5.994 5.994 0 005.057-2.77 5.968 5.968 0 002.629.762.754.754 0 00.113-.26 8.23 8.23 0 00.202-1.82c0-.611-.069-1.223-.202-1.819a.752.752 0 00-1.007-.532 1.503 1.503 0 01-1.845-.646 1.509 1.509 0 01.362-1.922.748.748 0 00.042-1.137 8.305 8.305 0 00-3.152-1.823.748.748 0 00-.964.605 1.51 1.51 0 01-1.484 1.275 1.507 1.507 0 01-1.483-1.275.752.752 0 00-.965-.605 8.317 8.317 0 00-3.151 1.823.747.747 0 00.042 1.137c.574.457.729 1.284.361 1.921a1.506 1.506 0 01-1.845.647.747.747 0 00-1.006.532 8.23 8.23 0 000 3.64.784.784 0 00.068.184c.402.055.811.083 1.228.083zm-2.325-.303A9.004 9.004 0 01375 46a9 9 0 0115.166-6.556 6 6 0 0110.825 3.894 6.003 6.003 0 01-1.216 11.612 9.25 9.25 0 000-4.075v-.002a1.75 1.75 0 00-2.346-1.244l-.005.002a.503.503 0 01-.61-.216.509.509 0 01.118-.64h.001a1.749 1.749 0 00.097-2.653 9.31 9.31 0 00-3.534-2.044h-.001a1.754 1.754 0 00-2.249 1.409v.002a.509.509 0 01-.495.424.508.508 0 01-.494-.422l-.001-.004a1.75 1.75 0 00-2.248-1.409h-.001a9.308 9.308 0 00-3.533 2.043h-.001a1.745 1.745 0 00-.56 1.347c.017.513.26.99.657 1.306l.001.001c.185.147.24.428.118.64a.505.505 0 01-.61.217 1.747 1.747 0 00-2.35 1.24 9.224 9.224 0 00-.054 3.825zm6.825-1.785c0 1.24 1.01 2.25 2.25 2.25 1.241 0 2.25-1.01 2.25-2.25s-1.009-2.25-2.25-2.25c-1.24 0-2.25 1.01-2.25 2.25zm1.5 0a.75.75 0 111.5 0 .75.75 0 01-1.5 0z" fill="#512FC9"/><path fill-rule="evenodd" clip-rule="evenodd" d="M388.303 60.792a.744.744 0 00.222.033v.002a.749.749 0 00.743-.639 1.509 1.509 0 011.483-1.275c.737 0 1.376.547 1.484 1.275a.754.754 0 00.343.523.754.754 0 00.621.081 8.305 8.305 0 003.152-1.822.753.753 0 00-.042-1.137 1.509 1.509 0 01-.362-1.922 1.506 1.506 0 011.845-.646.75.75 0 001.007-.533 8.23 8.23 0 00.202-1.82c0-.611-.069-1.223-.202-1.819a.752.752 0 00-1.007-.532 1.503 1.503 0 01-1.845-.646 1.509 1.509 0 01.362-1.922.748.748 0 00.042-1.137 8.305 8.305 0 00-3.152-1.823.748.748 0 00-.964.605 1.51 1.51 0 01-1.484 1.275 1.507 1.507 0 01-1.483-1.275.752.752 0 00-.965-.605 8.317 8.317 0 00-3.151 1.823.747.747 0 00.042 1.137c.574.457.729 1.284.361 1.921a1.506 1.506 0 01-1.845.647.747.747 0 00-1.006.532 8.23 8.23 0 000 3.64.749.749 0 001.006.532 1.503 1.503 0 011.845.647 1.508 1.508 0 01-.361 1.92.756.756 0 00-.282.56.745.745 0 00.24.578 8.282 8.282 0 003.151 1.822zm.197-7.88c0 1.24 1.01 2.25 2.25 2.25 1.241 0 2.25-1.01 2.25-2.25s-1.009-2.25-2.25-2.25c-1.24 0-2.25 1.01-2.25 2.25zm1.5 0a.75.75 0 111.5 0 .75.75 0 01-1.5 0z" fill="#512FC9"/><rect x="358.5" y="16.5" width="63" height="63" rx="5.5" stroke="#512FC9" stroke-opacity=".2"/></g><path d="M366.56 89.77h1.13c.117 0 .213.028.29.085.08.053.133.127.16.22l1.23 4.325c.03.107.057.223.08.35.027.123.052.255.075.395a4.642 4.642 0 01.19-.745l1.42-4.325a.479.479 0 01.155-.21.454.454 0 01.29-.095h.395c.117 0 .213.028.29.085.077.053.13.127.16.22l1.41 4.325c.073.213.137.45.19.71.023-.13.047-.255.07-.375.027-.12.053-.232.08-.335l1.23-4.325a.402.402 0 01.155-.215.47.47 0 01.29-.09h1.055L374.66 97h-1.215l-1.58-4.94-.065-.205a7.92 7.92 0 01-.06-.235c-.02.083-.042.162-.065.235-.02.073-.04.142-.06.205L370.02 97h-1.215l-2.245-7.23zm12.984 2.02c.323 0 .62.052.89.155.273.103.508.255.705.455.196.197.35.44.46.73a2.736 2.736 0 01.15 1.22.348.348 0 01-.045.145.19.19 0 01-.085.075.42.42 0 01-.14.02h-3.17c.036.527.178.913.425 1.16.246.247.573.37.98.37.2 0 .371-.023.515-.07.146-.047.273-.098.38-.155.11-.057.205-.108.285-.155a.49.49 0 01.24-.07c.05 0 .093.01.13.03.036.02.068.048.095.085l.36.45c-.137.16-.29.295-.46.405-.17.107-.349.193-.535.26a2.992 2.992 0 01-.565.135c-.19.027-.375.04-.555.04a2.77 2.77 0 01-.995-.175 2.263 2.263 0 01-.8-.525 2.489 2.489 0 01-.535-.86 3.349 3.349 0 01-.195-1.19c0-.35.056-.678.17-.985.113-.31.275-.578.485-.805a2.3 2.3 0 01.775-.545c.306-.133.651-.2 1.035-.2zm.025.885c-.36 0-.642.102-.845.305-.204.203-.334.492-.39.865h2.32c0-.16-.022-.31-.065-.45a1.052 1.052 0 00-.2-.375.927.927 0 00-.34-.25 1.134 1.134 0 00-.48-.095zM382.78 97v-7.43h1.235v2.93c.204-.217.434-.388.69-.515a1.97 1.97 0 01.9-.195c.28 0 .535.058.765.175.234.113.434.28.6.5.17.22.3.492.39.815.094.323.14.695.14 1.115 0 .383-.051.738-.155 1.065a2.56 2.56 0 01-.445.85c-.19.24-.421.428-.695.565-.27.133-.573.2-.91.2a1.736 1.736 0 01-.785-.18 1.697 1.697 0 01-.3-.205 3.018 3.018 0 01-.26-.275l-.055.345c-.02.087-.055.148-.105.185a.306.306 0 01-.195.055h-.815zm2.4-4.25c-.256 0-.476.055-.66.165-.18.107-.348.258-.505.455v2.3c.14.173.292.295.455.365.167.067.347.1.54.1.187 0 .355-.035.505-.105a.969.969 0 00.38-.32c.107-.143.189-.323.245-.54.057-.22.085-.478.085-.775 0-.3-.025-.553-.075-.76a1.43 1.43 0 00-.205-.51.815.815 0 00-.33-.285 1 1 0 00-.435-.09zM396.827 97h-1.04a.477.477 0 01-.29-.085.531.531 0 01-.16-.22l-.54-1.475h-2.995l-.54 1.475a.463.463 0 01-.16.21.43.43 0 01-.285.095h-1.045l2.84-7.23h1.375l2.84 7.23zm-4.68-2.73h2.305l-.88-2.405a17.63 17.63 0 01-.135-.375 14.508 14.508 0 01-.14-.475c-.046.17-.093.328-.14.475a4.323 4.323 0 01-.13.385l-.88 2.395zm5.355 4.405V91.87h.755a.37.37 0 01.205.055.26.26 0 01.11.17l.1.475c.206-.237.443-.428.71-.575.27-.147.585-.22.945-.22.28 0 .535.058.765.175.233.117.433.287.6.51.17.22.3.493.39.82.093.323.14.695.14 1.115 0 .383-.052.738-.155 1.065-.104.327-.252.61-.445.85-.19.24-.422.428-.695.565-.27.133-.574.2-.91.2-.29 0-.537-.043-.74-.13-.2-.09-.38-.213-.54-.37v2.1h-1.235zm2.4-5.925c-.257 0-.477.055-.66.165-.18.107-.349.258-.505.455v2.3a1.2 1.2 0 00.455.365c.166.067.345.1.535.1.186 0 .355-.035.505-.105a.969.969 0 00.385-.32c.106-.143.188-.323.245-.54.056-.22.085-.478.085-.775 0-.3-.025-.553-.075-.76a1.448 1.448 0 00-.205-.51.815.815 0 00-.33-.285 1.007 1.007 0 00-.435-.09zm3.254 5.925V91.87h.755a.37.37 0 01.205.055.257.257 0 01.11.17l.1.475c.207-.237.443-.428.71-.575.27-.147.585-.22.945-.22.28 0 .535.058.765.175.233.117.433.287.6.51.17.22.3.493.39.82.093.323.14.695.14 1.115 0 .383-.052.738-.155 1.065-.103.327-.252.61-.445.85-.19.24-.422.428-.695.565-.27.133-.573.2-.91.2-.29 0-.537-.043-.74-.13-.2-.09-.38-.213-.54-.37v2.1h-1.235zm2.4-5.925c-.257 0-.477.055-.66.165-.18.107-.348.258-.505.455v2.3c.14.173.292.295.455.365.167.067.345.1.535.1.187 0 .355-.035.505-.105a.962.962 0 00.385-.32c.107-.143.188-.323.245-.54.057-.22.085-.478.085-.775 0-.3-.025-.553-.075-.76a1.448 1.448 0 00-.205-.51.815.815 0 00-.33-.285 1.007 1.007 0 00-.435-.09zm6.299.12a.35.35 0 01-.105.115.288.288 0 01-.14.03.457.457 0 01-.195-.05 5.438 5.438 0 00-.235-.11 1.94 1.94 0 00-.31-.115 1.444 1.444 0 00-.405-.05c-.243 0-.435.052-.575.155a.48.48 0 00-.21.405.4.4 0 00.105.28c.074.073.169.138.285.195.12.057.255.108.405.155.15.043.304.092.46.145.157.053.31.115.46.185.15.067.284.153.4.26.12.103.215.228.285.375.074.147.11.323.11.53 0 .247-.045.475-.135.685a1.52 1.52 0 01-.395.54c-.173.15-.388.268-.645.355a2.799 2.799 0 01-.875.125c-.176 0-.35-.017-.52-.05a2.871 2.871 0 01-.915-.33 2.136 2.136 0 01-.345-.25l.285-.47c.037-.057.08-.1.13-.13a.366.366 0 01.19-.045c.077 0 .149.022.215.065.07.043.15.09.24.14a1.426 1.426 0 00.78.205c.147 0 .272-.017.375-.05a.788.788 0 00.26-.14.49.49 0 00.15-.195.573.573 0 00.05-.235.407.407 0 00-.11-.295.901.901 0 00-.285-.2 2.411 2.411 0 00-.405-.15c-.15-.047-.305-.097-.465-.15a5.138 5.138 0 01-.465-.185 1.7 1.7 0 01-.405-.275 1.306 1.306 0 01-.285-.405 1.443 1.443 0 01-.105-.58c0-.21.042-.41.125-.6.084-.19.205-.355.365-.495.164-.143.365-.257.605-.34.244-.087.524-.13.84-.13.354 0 .675.058.965.175.29.117.532.27.725.46l-.28.445z" fill="#697986"/><g filter="url(#prefix__filter9_d_10925_103693)"><rect x="454" y="16" width="64" height="64" rx="6" fill="#fff"/><g clip-path="url(#prefix__clip0_10925_103693)"><path d="M471 33h14.22v14.22H471V33zm15.78 0H501v14.22h-14.22V33zM471 48.78h14.22V63H471V48.78zm15.78 0H501V63h-14.22V48.78z" fill="#512FC9"/></g><rect x="454.5" y="16.5" width="63" height="63" rx="5.5" stroke="#512FC9" stroke-opacity=".2"/></g><path d="M464.56 89.77h1.13c.117 0 .213.028.29.085.08.053.133.127.16.22l1.23 4.325c.03.107.057.223.08.35.027.123.052.255.075.395a4.642 4.642 0 01.19-.745l1.42-4.325a.479.479 0 01.155-.21.454.454 0 01.29-.095h.395c.117 0 .213.028.29.085.077.053.13.127.16.22l1.41 4.325c.073.213.137.45.19.71.023-.13.047-.255.07-.375.027-.12.053-.232.08-.335l1.23-4.325a.402.402 0 01.155-.215.47.47 0 01.29-.09h1.055L472.66 97h-1.215l-1.58-4.94-.065-.205a7.92 7.92 0 01-.06-.235c-.02.083-.042.162-.065.235-.02.073-.04.142-.06.205L468.02 97h-1.215l-2.245-7.23zm12.384 2.1V97h-1.235v-5.13h1.235zm.185-1.495a.708.708 0 01-.065.3.82.82 0 01-.175.245.837.837 0 01-.25.17.804.804 0 01-.615 0 .839.839 0 01-.415-.415.803.803 0 010-.61c.043-.097.1-.18.17-.25a.767.767 0 01.245-.165.75.75 0 01.615 0 .802.802 0 01.425.415c.043.097.065.2.065.31zM478.344 97v-5.13h.755c.16 0 .265.075.315.225l.085.405a2.39 2.39 0 01.69-.515c.13-.063.268-.112.415-.145.146-.033.306-.05.48-.05.28 0 .528.048.745.145.216.093.396.227.54.4.146.17.256.375.33.615.076.237.115.498.115.785V97h-1.235v-3.265c0-.313-.074-.555-.22-.725-.144-.173-.36-.26-.65-.26-.214 0-.414.048-.6.145a2.132 2.132 0 00-.53.395V97h-1.235zm9.293 0c-.16 0-.265-.075-.315-.225l-.1-.495c-.106.12-.218.228-.335.325a2.044 2.044 0 01-1.315.47c-.28 0-.536-.058-.77-.175a1.752 1.752 0 01-.605-.505 2.554 2.554 0 01-.39-.825c-.09-.327-.135-.7-.135-1.12 0-.38.052-.733.155-1.06.104-.327.252-.61.445-.85.194-.24.425-.427.695-.56.27-.137.574-.205.91-.205a1.75 1.75 0 011.28.505v-2.71h1.235V97h-.755zm-1.645-.905c.257 0 .475-.053.655-.16.18-.107.35-.258.51-.455v-2.3a1.207 1.207 0 00-.99-.465c-.186 0-.356.035-.51.105-.15.07-.278.177-.385.32-.103.14-.183.32-.24.54a3.1 3.1 0 00-.085.77c0 .3.024.555.07.765.05.207.12.377.21.51.09.13.2.225.33.285.13.057.275.085.435.085zm5.928-4.305c.384 0 .73.062 1.04.185.314.123.58.298.8.525.22.227.39.503.51.83.12.327.18.692.18 1.095 0 .407-.06.773-.18 1.1-.12.327-.29.605-.51.835-.22.23-.486.407-.8.53a2.79 2.79 0 01-1.04.185c-.383 0-.731-.062-1.045-.185a2.268 2.268 0 01-.805-.53 2.445 2.445 0 01-.515-.835 3.173 3.173 0 01-.18-1.1c0-.403.06-.768.18-1.095.124-.327.295-.603.515-.83.224-.227.492-.402.805-.525a2.835 2.835 0 011.045-.185zm0 4.335c.427 0 .742-.143.945-.43.207-.287.31-.707.31-1.26s-.103-.975-.31-1.265c-.203-.29-.518-.435-.945-.435-.433 0-.753.147-.96.44-.206.29-.31.71-.31 1.26s.104.97.31 1.26c.207.287.527.43.96.43zm2.869-4.255h.98c.093 0 .172.022.235.065a.282.282 0 01.12.165l.735 2.74c.04.15.072.297.095.44.027.143.052.287.075.43.037-.143.075-.287.115-.43l.135-.44.85-2.75a.31.31 0 01.12-.165.35.35 0 01.21-.065h.545c.09 0 .165.022.225.065.06.043.1.098.12.165l.84 2.8c.043.143.082.283.115.42.037.133.072.268.105.405.023-.143.048-.287.075-.43.03-.143.067-.292.11-.445l.76-2.74a.282.282 0 01.12-.165.38.38 0 01.22-.065h.935L501.004 97h-.995c-.107 0-.183-.073-.23-.22l-.925-2.965c-.03-.097-.058-.193-.085-.29a5.785 5.785 0 01-.06-.295 5.285 5.285 0 01-.145.595l-.935 2.955c-.047.147-.137.22-.27.22h-.945l-1.625-5.13zm11.58 1a.35.35 0 01-.105.115.29.29 0 01-.14.03.457.457 0 01-.195-.05 6.066 6.066 0 00-.235-.11 1.94 1.94 0 00-.31-.115 1.444 1.444 0 00-.405-.05c-.243 0-.435.052-.575.155a.48.48 0 00-.21.405.4.4 0 00.105.28c.073.073.168.138.285.195.12.057.255.108.405.155.15.043.303.092.46.145.157.053.31.115.46.185.15.067.283.153.4.26.12.103.215.228.285.375.073.147.11.323.11.53 0 .247-.045.475-.135.685-.09.207-.222.387-.395.54-.173.15-.388.268-.645.355a2.799 2.799 0 01-.875.125c-.177 0-.35-.017-.52-.05a2.826 2.826 0 01-.915-.33 2.136 2.136 0 01-.345-.25l.285-.47c.037-.057.08-.1.13-.13a.364.364 0 01.19-.045c.077 0 .148.022.215.065.07.043.15.09.24.14.09.05.195.097.315.14.123.043.278.065.465.065.147 0 .272-.017.375-.05a.798.798 0 00.26-.14.49.49 0 00.15-.195.59.59 0 00.05-.235.41.41 0 00-.11-.295.901.901 0 00-.285-.2 2.479 2.479 0 00-.405-.15c-.15-.047-.305-.097-.465-.15a4.915 4.915 0 01-.465-.185 1.7 1.7 0 01-.405-.275 1.274 1.274 0 01-.285-.405 1.443 1.443 0 01-.105-.58c0-.21.042-.41.125-.6.083-.19.205-.355.365-.495.163-.143.365-.257.605-.34.243-.087.523-.13.84-.13.353 0 .675.058.965.175.29.117.532.27.725.46l-.28.445z" fill="#697986"/><path fill="#512FC9" d="M70 146h448v137H70z"/><path fill-rule="evenodd" clip-rule="evenodd" d="M303.199 167.773c.715.081 1.323.642 1.547 1.29l.066.246 2.323 11.899a36.36 36.36 0 018.695 4.779l.978.757 11.712-4c.76-.325 1.563-.092 2.13.561 4.03 4.508 7.301 9.954 9.201 15.674.295.66.141 1.431-.363 1.921l-.204.17-9.297 7.902c.332 1.765.427 3.675.427 5.532 0 1.494-.061 3.013-.257 4.464l-.172 1.075 9.297 7.91c.662.463.9 1.349.567 2.092-1.894 5.72-5.167 11.162-9.195 15.67-.51.579-1.202.83-1.882.649l-.254-.088-11.712-4a35.672 35.672 0 01-8.508 5.064l-1.161.468-2.327 11.909c-.141.748-.81 1.44-1.613 1.537-3.034.554-6.069.881-9.194.881-3.126 0-6.165-.325-9.202-.881-.714-.086-1.322-.642-1.547-1.29l-.065-.247-2.323-11.909c-3.157-1.209-6.203-2.838-8.818-4.847l-.855-.685-11.712 4c-.76.325-1.563.092-2.137-.561-4.03-4.508-7.301-9.95-9.195-15.67a1.72 1.72 0 01.363-1.923l.204-.169 9.29-7.91c-.331-1.765-.426-3.67-.426-5.536 0-1.487.061-3.006.256-4.457l.173-1.076-9.29-7.902a1.704 1.704 0 01-.567-2.093c1.894-5.72 5.166-11.166 9.194-15.674.511-.579 1.202-.825 1.883-.647l.254.086 11.712 4c2.515-2.092 5.493-3.808 8.623-5.116l1.048-.42 2.323-11.899c.14-.748.809-1.446 1.612-1.536a46.99 46.99 0 0118.396 0h.002zm-9.201 18.851c-15.441 0-27.951 12.482-27.951 27.876 0 15.394 12.51 27.875 27.951 27.875s27.956-12.481 27.956-27.875-12.515-27.876-27.956-27.876zm17.695 15.702v8.303h-13.481v19.925h-8.423v-19.928H276.31v-8.3h35.383z" fill="#fff"/><path d="M167.521 214h-14.375a.49.49 0 01-.479-.5c0-.276.214-.5.479-.5h14.375a.49.49 0 01.479.5.49.49 0 01-.479.5zM167.521 209h-14.375a.49.49 0 01-.479-.5c0-.276.214-.5.479-.5h14.375a.49.49 0 01.479.5.49.49 0 01-.479.5zM167.521 204h-14.375a.49.49 0 01-.479-.5c0-.276.214-.5.479-.5h14.375a.49.49 0 01.479.5.49.49 0 01-.479.5zM149.5 210c-.827 0-1.5-.673-1.5-1.5s.673-1.5 1.5-1.5 1.5.673 1.5 1.5-.673 1.5-1.5 1.5zm0-2a.5.5 0 100 1 .5.5 0 000-1zM149.5 215c-.827 0-1.5-.673-1.5-1.5s.673-1.5 1.5-1.5 1.5.673 1.5 1.5-.673 1.5-1.5 1.5zm0-2a.5.5 0 100 1 .5.5 0 000-1z" fill="#fff" fill-opacity=".75"/><path d="M148.667 203.286l.74.714 1.593-1.667" stroke="#fff" stroke-opacity=".75" stroke-linecap="round" stroke-linejoin="round"/><path d="M135.109 233h-1.04a.475.475 0 01-.29-.085.529.529 0 01-.16-.22l-.54-1.475h-2.995l-.54 1.475a.46.46 0 01-.16.21.432.432 0 01-.285.095h-1.045l2.84-7.23h1.375l2.84 7.23zm-4.68-2.73h2.305l-.88-2.405a18.92 18.92 0 01-.135-.375 14.73 14.73 0 01-.14-.475c-.046.17-.093.328-.14.475a4.29 4.29 0 01-.13.385l-.88 2.395zm8.96-1.315a.57.57 0 01-.11.11c-.033.027-.083.04-.15.04a.348.348 0 01-.185-.055 3.544 3.544 0 00-.215-.13 1.4 1.4 0 00-.725-.19c-.217 0-.407.04-.57.12-.163.077-.3.188-.41.335a1.538 1.538 0 00-.24.535c-.053.207-.08.442-.08.705 0 .273.028.517.085.73.06.213.145.393.255.54.11.143.243.253.4.33.157.073.333.11.53.11s.355-.023.475-.07c.123-.05.227-.103.31-.16.083-.06.155-.113.215-.16a.33.33 0 01.21-.075c.1 0 .175.038.225.115l.355.45a2.31 2.31 0 01-.445.405 2.56 2.56 0 01-.5.26c-.17.063-.347.108-.53.135-.183.027-.365.04-.545.04-.317 0-.615-.058-.895-.175a2.139 2.139 0 01-.735-.52 2.544 2.544 0 01-.495-.83c-.12-.33-.18-.705-.18-1.125 0-.377.053-.725.16-1.045.11-.323.27-.602.48-.835.21-.237.47-.422.78-.555.31-.133.667-.2 1.07-.2.383 0 .718.062 1.005.185.29.123.55.3.78.53l-.325.45zm4.766 0a.6.6 0 01-.11.11c-.034.027-.084.04-.15.04a.346.346 0 01-.185-.055 3.544 3.544 0 00-.215-.13 1.446 1.446 0 00-.3-.13 1.294 1.294 0 00-.425-.06c-.217 0-.407.04-.57.12-.164.077-.3.188-.41.335a1.538 1.538 0 00-.24.535c-.054.207-.08.442-.08.705 0 .273.028.517.085.73.06.213.145.393.255.54.11.143.243.253.4.33.156.073.333.11.53.11.196 0 .355-.023.475-.07a1.68 1.68 0 00.31-.16c.083-.06.155-.113.215-.16a.33.33 0 01.21-.075c.1 0 .175.038.225.115l.355.45a2.31 2.31 0 01-.445.405 2.56 2.56 0 01-.5.26c-.17.063-.347.108-.53.135-.184.027-.365.04-.545.04-.317 0-.615-.058-.895-.175a2.139 2.139 0 01-.735-.52 2.544 2.544 0 01-.495-.83c-.12-.33-.18-.705-.18-1.125 0-.377.053-.725.16-1.045.11-.323.27-.602.48-.835.21-.237.47-.422.78-.555.31-.133.666-.2 1.07-.2.383 0 .718.062 1.005.185.29.123.55.3.78.53l-.325.45zm3.28-1.165c.324 0 .62.052.89.155.274.103.509.255.705.455.197.197.35.44.46.73a2.738 2.738 0 01.15 1.22.322.322 0 01-.045.145.189.189 0 01-.085.075.42.42 0 01-.14.02h-3.17c.037.527.179.913.425 1.16.247.247.574.37.98.37.2 0 .372-.023.515-.07.147-.047.274-.098.38-.155.11-.057.205-.108.285-.155a.492.492 0 01.24-.07.266.266 0 01.225.115l.36.45c-.136.16-.29.295-.46.405a2.725 2.725 0 01-1.1.395c-.19.027-.375.04-.555.04-.356 0-.688-.058-.995-.175a2.281 2.281 0 01-.8-.525 2.501 2.501 0 01-.535-.86 3.347 3.347 0 01-.195-1.19c0-.35.057-.678.17-.985.114-.31.275-.578.485-.805.214-.23.472-.412.775-.545.307-.133.652-.2 1.035-.2zm.025.885c-.36 0-.641.102-.845.305-.203.203-.333.492-.39.865h2.32c0-.16-.021-.31-.065-.45a1.041 1.041 0 00-.2-.375.916.916 0 00-.34-.25 1.132 1.132 0 00-.48-.095zm6.242.195a.35.35 0 01-.105.115.29.29 0 01-.14.03.462.462 0 01-.195-.05 6.55 6.55 0 00-.235-.11 1.94 1.94 0 00-.31-.115 1.455 1.455 0 00-.405-.05c-.243 0-.435.052-.575.155a.48.48 0 00-.21.405.4.4 0 00.105.28c.073.073.168.138.285.195.12.057.255.108.405.155.15.043.303.092.46.145.157.053.31.115.46.185.15.067.283.153.4.26.12.103.215.228.285.375.073.147.11.323.11.53 0 .247-.045.475-.135.685-.09.207-.222.387-.395.54-.173.15-.388.268-.645.355a2.808 2.808 0 01-.875.125 2.72 2.72 0 01-.52-.05 2.826 2.826 0 01-.915-.33 2.154 2.154 0 01-.345-.25l.285-.47c.037-.057.08-.1.13-.13a.364.364 0 01.19-.045.39.39 0 01.215.065c.07.043.15.09.24.14a1.426 1.426 0 00.78.205c.147 0 .272-.017.375-.05a.798.798 0 00.26-.14.494.494 0 00.15-.195.59.59 0 00.05-.235.411.411 0 00-.11-.295.901.901 0 00-.285-.2 2.424 2.424 0 00-.405-.15 30.13 30.13 0 01-.465-.15 4.836 4.836 0 01-.465-.185 1.692 1.692 0 01-.405-.275 1.274 1.274 0 01-.285-.405 1.442 1.442 0 01-.105-.58c0-.21.042-.41.125-.6.083-.19.205-.355.365-.495.163-.143.365-.257.605-.34.243-.087.523-.13.84-.13.353 0 .675.058.965.175.29.117.532.27.725.46l-.28.445zm4.365 0a.35.35 0 01-.105.115.288.288 0 01-.14.03.462.462 0 01-.195-.05 5.823 5.823 0 00-.235-.11 1.94 1.94 0 00-.31-.115 1.455 1.455 0 00-.405-.05c-.243 0-.435.052-.575.155a.48.48 0 00-.21.405.4.4 0 00.105.28c.074.073.169.138.285.195.12.057.255.108.405.155.15.043.304.092.46.145.157.053.31.115.46.185.15.067.284.153.4.26.12.103.215.228.285.375.074.147.11.323.11.53 0 .247-.045.475-.135.685-.09.207-.221.387-.395.54-.173.15-.388.268-.645.355a2.808 2.808 0 01-.875.125c-.176 0-.35-.017-.52-.05a2.871 2.871 0 01-.915-.33 2.154 2.154 0 01-.345-.25l.285-.47c.037-.057.08-.1.13-.13a.366.366 0 01.19-.045c.077 0 .149.022.215.065.07.043.15.09.24.14a1.435 1.435 0 00.78.205c.147 0 .272-.017.375-.05a.788.788 0 00.26-.14.494.494 0 00.15-.195.574.574 0 00.05-.235.407.407 0 00-.11-.295.901.901 0 00-.285-.2 2.36 2.36 0 00-.405-.15 30.13 30.13 0 01-.465-.15 5.052 5.052 0 01-.465-.185 1.692 1.692 0 01-.405-.275 1.306 1.306 0 01-.285-.405 1.442 1.442 0 01-.105-.58c0-.21.042-.41.125-.6.084-.19.205-.355.365-.495.164-.143.365-.257.605-.34.244-.087.524-.13.84-.13.354 0 .675.058.965.175.29.117.532.27.725.46l-.28.445zm4.714 1.585V233h-1.345v-7.23h2.355c.483 0 .902.057 1.255.17.353.113.645.272.875.475.23.203.4.447.51.73.11.283.165.593.165.93 0 .35-.058.672-.175.965a2.01 2.01 0 01-.525.75c-.233.21-.525.373-.875.49-.35.117-.76.175-1.23.175h-1.01zm0-1.05h1.01c.247 0 .462-.03.645-.09.183-.063.335-.152.455-.265.12-.117.21-.257.27-.42.06-.167.09-.352.09-.555 0-.193-.03-.368-.09-.525-.06-.157-.15-.29-.27-.4a1.182 1.182 0 00-.455-.25 2.075 2.075 0 00-.645-.09h-1.01v2.595zm6.834-1.615a2.8 2.8 0 011.04.185c.313.123.58.298.8.525.22.227.39.503.51.83.12.327.18.692.18 1.095 0 .407-.06.773-.18 1.1-.12.327-.29.605-.51.835a2.21 2.21 0 01-.8.53 2.8 2.8 0 01-1.04.185c-.384 0-.732-.062-1.045-.185a2.247 2.247 0 01-.805-.53 2.427 2.427 0 01-.515-.835 3.173 3.173 0 01-.18-1.1c0-.403.06-.768.18-1.095.123-.327.295-.603.515-.83.223-.227.491-.402.805-.525a2.834 2.834 0 011.045-.185zm0 4.335c.426 0 .741-.143.945-.43.206-.287.31-.707.31-1.26s-.104-.975-.31-1.265c-.204-.29-.519-.435-.945-.435-.434 0-.754.147-.96.44-.207.29-.31.71-.31 1.26s.103.97.31 1.26c.206.287.526.43.96.43zm4.808-6.555V233h-1.235v-7.43h1.235zm2.715 2.3V233h-1.235v-5.13h1.235zm.185-1.495a.706.706 0 01-.065.3.807.807 0 01-.175.245.819.819 0 01-.25.17.804.804 0 01-.615 0 .846.846 0 01-.415-.415.804.804 0 010-.61.778.778 0 01.415-.415.756.756 0 01.615 0c.097.04.18.095.25.165a.782.782 0 01.24.56zm4.82 2.58a.57.57 0 01-.11.11c-.033.027-.083.04-.15.04a.348.348 0 01-.185-.055 3.544 3.544 0 00-.215-.13 1.4 1.4 0 00-.725-.19c-.217 0-.407.04-.57.12-.163.077-.3.188-.41.335a1.538 1.538 0 00-.24.535c-.053.207-.08.442-.08.705 0 .273.028.517.085.73.06.213.145.393.255.54.11.143.243.253.4.33.157.073.333.11.53.11s.355-.023.475-.07c.123-.05.227-.103.31-.16.083-.06.155-.113.215-.16a.33.33 0 01.21-.075c.1 0 .175.038.225.115l.355.45a2.31 2.31 0 01-.445.405 2.56 2.56 0 01-.5.26c-.17.063-.347.108-.53.135-.183.027-.365.04-.545.04-.317 0-.615-.058-.895-.175a2.139 2.139 0 01-.735-.52 2.544 2.544 0 01-.495-.83c-.12-.33-.18-.705-.18-1.125 0-.377.053-.725.16-1.045.11-.323.27-.602.48-.835.21-.237.47-.422.78-.555.31-.133.667-.2 1.07-.2.383 0 .718.062 1.005.185.29.123.55.3.78.53l-.325.45zm2.981 5.455a.447.447 0 01-.145.195c-.057.047-.145.07-.265.07h-.92l.96-2.055-2.075-4.75h1.08c.1 0 .176.023.23.07.053.047.093.1.12.16l1.095 2.66c.036.087.068.177.095.27.026.093.05.187.07.28a4.87 4.87 0 01.085-.28c.033-.09.068-.182.105-.275l1.03-2.655a.362.362 0 01.34-.23h.99l-2.795 6.54z" fill="#fff" fill-opacity=".75"/><rect x="120.5" y="188.5" width="75" height="53" rx="3.5" stroke="#fff" stroke-opacity=".2"/><path d="M420.894 217.448h-.003 0-.001 0-.001 0-.001 0-.001 0-.001 0-.001 0-.001 0-.001 0-.001 0-.001 0-.001 0-.001 0-.001 0-.001 0-.001 0-.001 0-.001 0-.001 0-.001 0-.001 0-.001 0-.001 0-.001 0-.001 0-.001 0-.001 0-.001 0-.001 0a1.387 1.387 0 01-1.363-1.405v-14.137a1.4 1.4 0 011.391-1.406h18.218a1.4 1.4 0 011.391 1.406V216.123a1.386 1.386 0 01-1.391 1.377h-9.875l-8.34-.052z" stroke="#fff" stroke-opacity=".75"/><path d="M424 206l4 2.5-4 2.5M429 212h6" stroke="#fff" stroke-opacity=".75" stroke-linecap="round" stroke-linejoin="round"/><path d="M424.551 233h-1.04a.47.47 0 01-.29-.085.512.512 0 01-.16-.22l-.54-1.475h-2.995l-.54 1.475a.467.467 0 01-.16.21.436.436 0 01-.285.095h-1.045l2.84-7.23h1.375l2.84 7.23zm-4.68-2.73h2.305l-.88-2.405a18.92 18.92 0 01-.135-.375 10.944 10.944 0 01-.14-.475c-.047.17-.094.328-.14.475a5.035 5.035 0 01-.13.385l-.88 2.395zm6.484-2.4v3.26c0 .313.072.557.215.73.147.17.365.255.655.255.214 0 .414-.047.6-.14.187-.097.364-.228.53-.395v-3.71h1.235V233h-.755c-.16 0-.265-.075-.315-.225l-.085-.41a3.63 3.63 0 01-.33.295 1.928 1.928 0 01-.78.365 1.934 1.934 0 01-.475.055c-.28 0-.528-.047-.745-.14a1.531 1.531 0 01-.54-.405 1.808 1.808 0 01-.335-.615 2.703 2.703 0 01-.11-.79v-3.26h1.235zm8.164 5.13c-.16 0-.265-.075-.315-.225l-.1-.495c-.107.12-.218.228-.335.325-.117.097-.243.18-.38.25a1.83 1.83 0 01-.435.16c-.153.04-.32.06-.5.06-.28 0-.537-.058-.77-.175a1.755 1.755 0 01-.605-.505 2.507 2.507 0 01-.39-.825c-.09-.327-.135-.7-.135-1.12 0-.38.052-.733.155-1.06.103-.327.252-.61.445-.85s.425-.427.695-.56c.27-.137.573-.205.91-.205a1.756 1.756 0 011.28.505v-2.71h1.235V233h-.755zm-1.645-.905c.257 0 .475-.053.655-.16.18-.107.35-.258.51-.455v-2.3a1.207 1.207 0 00-.99-.465c-.187 0-.357.035-.51.105-.15.07-.278.177-.385.32-.103.14-.183.32-.24.54a3.054 3.054 0 00-.085.77c0 .3.023.555.07.765.05.207.12.377.21.51.09.13.2.225.33.285.13.057.275.085.435.085zm5.053-4.225V233h-1.235v-5.13h1.235zm.185-1.495a.706.706 0 01-.065.3.807.807 0 01-.175.245.819.819 0 01-.25.17.804.804 0 01-.615 0 .846.846 0 01-.415-.415.804.804 0 010-.61.778.778 0 01.415-.415.756.756 0 01.615 0c.097.04.18.095.25.165a.782.782 0 01.24.56zm2.9 6.705c-.443 0-.785-.125-1.025-.375-.24-.253-.36-.602-.36-1.045v-2.865h-.52a.26.26 0 01-.175-.065c-.047-.043-.07-.108-.07-.195v-.49l.825-.135.26-1.4a.249.249 0 01.09-.155.303.303 0 01.185-.055h.64v1.615h1.35v.88h-1.35v2.78c0 .16.04.285.12.375.08.09.187.135.32.135a.6.6 0 00.325-.085c.04-.02.075-.038.105-.055.03-.02.06-.03.09-.03.037 0 .067.01.09.03a.37.37 0 01.075.08l.37.6c-.18.15-.387.263-.62.34a2.297 2.297 0 01-.725.115z" fill="#fff" fill-opacity=".75"/><rect x="392.5" y="188.5" width="75" height="53" rx="3.5" stroke="#fff" stroke-opacity=".2"/><path d="M294.5 287l-2.887 5h5.774l-2.887-5zm.5 40v-35.5h-1V327h1z" fill="#BECACF"/><path d="M102.5 327v-20M198.5 327v-20M390.5 327v-20M486.5 327v-20M102.5 307.5h384" stroke="#BECACF"/><defs><filter id="prefix__filter0_d_10925_103693" x="64" y="327" width="76" height="76" filterUnits="userSpaceOnUse" color-interpolation-filters="sRGB"><feFlood flood-opacity="0" result="BackgroundImageFix"/><feColorMatrix in="SourceAlpha" values="0 0 0 0 0 0 0 0 0 0 0 0 0 0 0 0 0 0 127 0" result="hardAlpha"/><feOffset dy="2"/><feGaussianBlur stdDeviation="3"/><feComposite in2="hardAlpha" operator="out"/><feColorMatrix values="0 0 0 0 0 0 0 0 0 0 0 0 0 0 0 0 0 0 0.1 0"/><feBlend in2="BackgroundImageFix" result="effect1_dropShadow_10925_103693"/><feBlend in="SourceGraphic" in2="effect1_dropShadow_10925_103693" result="shape"/></filter><filter id="prefix__filter1_d_10925_103693" x="160" y="327" width="76" height="76" filterUnits="userSpaceOnUse" color-interpolation-filters="sRGB"><feFlood flood-opacity="0" result="BackgroundImageFix"/><feColorMatrix in="SourceAlpha" values="0 0 0 0 0 0 0 0 0 0 0 0 0 0 0 0 0 0 127 0" result="hardAlpha"/><feOffset dy="2"/><feGaussianBlur stdDeviation="3"/><feComposite in2="hardAlpha" operator="out"/><feColorMatrix values="0 0 0 0 0 0 0 0 0 0 0 0 0 0 0 0 0 0 0.1 0"/><feBlend in2="BackgroundImageFix" result="effect1_dropShadow_10925_103693"/><feBlend in="SourceGraphic" in2="effect1_dropShadow_10925_103693" result="shape"/></filter><filter id="prefix__filter2_d_10925_103693" x="256" y="327" width="76" height="76" filterUnits="userSpaceOnUse" color-interpolation-filters="sRGB"><feFlood flood-opacity="0" result="BackgroundImageFix"/><feColorMatrix in="SourceAlpha" values="0 0 0 0 0 0 0 0 0 0 0 0 0 0 0 0 0 0 127 0" result="hardAlpha"/><feOffset dy="2"/><feGaussianBlur stdDeviation="3"/><feComposite in2="hardAlpha" operator="out"/><feColorMatrix values="0 0 0 0 0 0 0 0 0 0 0 0 0 0 0 0 0 0 0.1 0"/><feBlend in2="BackgroundImageFix" result="effect1_dropShadow_10925_103693"/><feBlend in="SourceGraphic" in2="effect1_dropShadow_10925_103693" result="shape"/></filter><filter id="prefix__filter3_d_10925_103693" x="352" y="327" width="76" height="76" filterUnits="userSpaceOnUse" color-interpolation-filters="sRGB"><feFlood flood-opacity="0" result="BackgroundImageFix"/><feColorMatrix in="SourceAlpha" values="0 0 0 0 0 0 0 0 0 0 0 0 0 0 0 0 0 0 127 0" result="hardAlpha"/><feOffset dy="2"/><feGaussianBlur stdDeviation="3"/><feComposite in2="hardAlpha" operator="out"/><feColorMatrix values="0 0 0 0 0 0 0 0 0 0 0 0 0 0 0 0 0 0 0.1 0"/><feBlend in2="BackgroundImageFix" result="effect1_dropShadow_10925_103693"/><feBlend in="SourceGraphic" in2="effect1_dropShadow_10925_103693" result="shape"/></filter><filter id="prefix__filter4_d_10925_103693" x="448" y="327" width="76" height="76" filterUnits="userSpaceOnUse" color-interpolation-filters="sRGB"><feFlood flood-opacity="0" result="BackgroundImageFix"/><feColorMatrix in="SourceAlpha" values="0 0 0 0 0 0 0 0 0 0 0 0 0 0 0 0 0 0 127 0" result="hardAlpha"/><feOffset dy="2"/><feGaussianBlur stdDeviation="3"/><feComposite in2="hardAlpha" operator="out"/><feColorMatrix values="0 0 0 0 0 0 0 0 0 0 0 0 0 0 0 0 0 0 0.1 0"/><feBlend in2="BackgroundImageFix" result="effect1_dropShadow_10925_103693"/><feBlend in="SourceGraphic" in2="effect1_dropShadow_10925_103693" result="shape"/></filter><filter id="prefix__filter5_d_10925_103693" x="64" y="12" width="76" height="76" filterUnits="userSpaceOnUse" color-interpolation-filters="sRGB"><feFlood flood-opacity="0" result="BackgroundImageFix"/><feColorMatrix in="SourceAlpha" values="0 0 0 0 0 0 0 0 0 0 0 0 0 0 0 0 0 0 127 0" result="hardAlpha"/><feOffset dy="2"/><feGaussianBlur stdDeviation="3"/><feComposite in2="hardAlpha" operator="out"/><feColorMatrix values="0 0 0 0 0.317647 0 0 0 0 0.184314 0 0 0 0 0.788235 0 0 0 0.1 0"/><feBlend in2="BackgroundImageFix" result="effect1_dropShadow_10925_103693"/><feBlend in="SourceGraphic" in2="effect1_dropShadow_10925_103693" result="shape"/></filter><filter id="prefix__filter6_d_10925_103693" x="160" y="12" width="76" height="76" filterUnits="userSpaceOnUse" color-interpolation-filters="sRGB"><feFlood flood-opacity="0" result="BackgroundImageFix"/><feColorMatrix in="SourceAlpha" values="0 0 0 0 0 0 0 0 0 0 0 0 0 0 0 0 0 0 127 0" result="hardAlpha"/><feOffset dy="2"/><feGaussianBlur stdDeviation="3"/><feComposite in2="hardAlpha" operator="out"/><feColorMatrix values="0 0 0 0 0.317647 0 0 0 0 0.184314 0 0 0 0 0.788235 0 0 0 0.1 0"/><feBlend in2="BackgroundImageFix" result="effect1_dropShadow_10925_103693"/><feBlend in="SourceGraphic" in2="effect1_dropShadow_10925_103693" result="shape"/></filter><filter id="prefix__filter7_d_10925_103693" x="256" y="12" width="76" height="76" filterUnits="userSpaceOnUse" color-interpolation-filters="sRGB"><feFlood flood-opacity="0" result="BackgroundImageFix"/><feColorMatrix in="SourceAlpha" values="0 0 0 0 0 0 0 0 0 0 0 0 0 0 0 0 0 0 127 0" result="hardAlpha"/><feOffset dy="2"/><feGaussianBlur stdDeviation="3"/><feComposite in2="hardAlpha" operator="out"/><feColorMatrix values="0 0 0 0 0.317647 0 0 0 0 0.184314 0 0 0 0 0.788235 0 0 0 0.1 0"/><feBlend in2="BackgroundImageFix" result="effect1_dropShadow_10925_103693"/><feBlend in="SourceGraphic" in2="effect1_dropShadow_10925_103693" result="shape"/></filter><filter id="prefix__filter8_d_10925_103693" x="352" y="12" width="76" height="76" filterUnits="userSpaceOnUse" color-interpolation-filters="sRGB"><feFlood flood-opacity="0" result="BackgroundImageFix"/><feColorMatrix in="SourceAlpha" values="0 0 0 0 0 0 0 0 0 0 0 0 0 0 0 0 0 0 127 0" result="hardAlpha"/><feOffset dy="2"/><feGaussianBlur stdDeviation="3"/><feComposite in2="hardAlpha" operator="out"/><feColorMatrix values="0 0 0 0 0.317647 0 0 0 0 0.184314 0 0 0 0 0.788235 0 0 0 0.1 0"/><feBlend in2="BackgroundImageFix" result="effect1_dropShadow_10925_103693"/><feBlend in="SourceGraphic" in2="effect1_dropShadow_10925_103693" result="shape"/></filter><filter id="prefix__filter9_d_10925_103693" x="448" y="12" width="76" height="76" filterUnits="userSpaceOnUse" color-interpolation-filters="sRGB"><feFlood flood-opacity="0" result="BackgroundImageFix"/><feColorMatrix in="SourceAlpha" values="0 0 0 0 0 0 0 0 0 0 0 0 0 0 0 0 0 0 127 0" result="hardAlpha"/><feOffset dy="2"/><feGaussianBlur stdDeviation="3"/><feComposite in2="hardAlpha" operator="out"/><feColorMatrix values="0 0 0 0 0.317647 0 0 0 0 0.184314 0 0 0 0 0.788235 0 0 0 0.1 0"/><feBlend in2="BackgroundImageFix" result="effect1_dropShadow_10925_103693"/><feBlend in="SourceGraphic" in2="effect1_dropShadow_10925_103693" result="shape"/></filter><clipPath id="prefix__clip0_10925_103693"><path fill="#fff" transform="translate(471 33)" d="M0 0h30v30H0z"/></clipPath></defs></svg>