<svg fill="none" height="90" viewBox="0 0 418 90" width="418" xmlns="http://www.w3.org/2000/svg"><g fill="#fff"><path clip-rule="evenodd" d="m25.3774 45.0026c0-9.9246 8.0823-17.9994 18.0161-18.0002 9.9344.0008 18.0173 8.0756 18.0173 18.0002 0 9.9245-8.0822 17.9985-18.0166 17.9985-9.9345 0-18.0168-8.074-18.0168-17.9985zm7.4173 0c0 5.8323 4.7547 10.5768 10.5995 10.5768 5.8447 0 10.5993-4.7445 10.5993-10.5768 0-5.8331-4.7561-10.5783-10.6016-10.5783-5.8432 0-10.5972 4.7452-10.5972 10.5783z" fill-rule="evenodd"/><path clip-rule="evenodd" d="m86.1114 57.7119-8.7708-7.4725.1625-1.014c.1836-1.3708.2437-2.8016.2437-4.2148 0-1.7561-.0919-3.5614-.4062-5.229l8.7708-7.4616.1941-.1626c.2331-.2296.3921-.5298.4519-.8514.0637-.3251.0213-.6607-.1129-.9611-1.7902-5.4054-4.8796-10.5495-8.6788-14.814-.5367-.611-1.296-.8337-2.0092-.5227l-11.0509 3.7731-.9181-.7101c-2.5161-1.8724-5.2762-3.3914-8.2036-4.5152l-2.1888-11.24186-.0635-.23322c-.1091-.31799-.3023-.59715-.5594-.81262-.2571-.21562-.5677-.356793-.8985-.406237l-.0039-.003638c-5.7275-1.144567-11.6243-1.144567-17.3514 0-.3718.05656-.7168.226245-.9891.484175-.2723.26129-.458.59701-.5329.9679l-2.1884 11.2421-.9932.3957c-2.9341 1.2012-5.6746 2.8264-8.1323 4.8295l-11.0481-3.7767-.2437-.0777c-.3228-.0777-.66056-.0603-.97458.046-.3143.1095-.59078.3037-.79804.5615-3.80415 4.2645-6.8883 9.4085-8.676001 14.814-.153251.3392-.1836635.7209-.0857033 1.0813.0976863.3603.3172273.6782.6216263.8938l8.769798 7.4651-.16496 1.014c-.18367 1.3709-.24019 2.809-.24019 4.2115-.02429 1.7523.11095 3.5013.40517 5.2288l-8.765885 7.4726-.194845.1587c-.234474.2331-.392733.5302-.4537409.855-.0607106.3251-.0214945.6608.1126409.9609 1.7877 5.4091 4.87183 10.5463 8.67572 14.8034.53983.6149 1.30049.8373 2.01269.5301l11.0481-3.7805.8057.6502c2.5397 1.9149 5.3419 3.4589 8.3198 4.5788l2.1884 11.2491.0602.2331c.1098.3145.3039.5973.5617.8129.2574.2153.5685.353.9001.4062 2.8632.5229 5.7264.8301 8.6792.8301 2.9496 0 5.8129-.3072 8.6761-.8301.371-.0603.7157-.2297.9876-.4876.2719-.2616.4583-.597.5338-.9646l2.1923-11.2491 1.0944-.4417c2.8931-1.2224 5.6027-2.8334 8.0277-4.7872l11.0471 3.7804.24.0813c.6427.1732 1.2924-.0637 1.7727-.6114 3.8062-4.2571 6.8885-9.3943 8.6753-14.8034.1553-.339.1836-.7241.0882-1.0846-.0987-.3602-.3177-.6747-.6214-.8901zm-42.7173 13.6231c-14.5636 0-26.3688-11.7896-26.3688-26.3315 0-14.5412 11.7968-26.3339 26.3668-26.3351 14.5664.0012 26.3713 11.7939 26.3713 26.3351 0 14.5419-11.8059 26.3315-26.3693 26.3315z" fill-rule="evenodd"/><path d="m208.167 13.3374h-12.666v60.1179h12.666z"/><path d="m154.141 14.9409h-47.328v10.7651h16.754v47.7489h13.816v-47.7489h16.758z"/><g clip-rule="evenodd" fill-rule="evenodd"><path d="m294.08 32.4507c1.921.9999 3.588 2.4306 4.866 4.1796 1.363 1.8195 2.429 4.0486 3.206 6.6843.776 2.6393 1.161 5.6282 1.161 8.9776 0 3.1303-.438 6.0236-1.327 8.6734-.809 2.5084-2.066 4.8509-3.715 6.9071-1.557 1.9219-3.51 3.4836-5.724 4.5751-2.298 1.1167-4.822 1.6818-7.375 1.6501-2.211 0-4.064-.3075-5.558-.9222-1.486-.6076-2.867-1.4485-4.089-2.4906v15.9833h-12.669v-54.8608h7.846l.385.0177c.568.0282 1.116.2049 1.596.5053.551.3708.95.9291 1.126 1.5685l.936 3.0525.625-.6499c.639-.6324 1.313-1.219 2.013-1.763 3.021-2.338 6.745-3.5852 10.568-3.5327 2.212.0006 4.252.4807 6.129 1.4447zm-6.151 29.6207c.724-1.0033 1.286-2.3105 1.699-3.9179.406-1.6042.61-3.5579.61-5.8613 0-2.1977-.166-4.042-.49-5.5434-.325-1.4981-.784-2.7098-1.367-3.6355-.586-.922-1.292-1.5827-2.108-1.9889-.815-.3996-1.726-.6009-2.74-.6009-.925 0-1.762.0885-2.51.265-.749.1697-1.448.417-2.083.7421-.647.3248-1.247.7348-1.78 1.2225-.582.5333-1.126 1.1023-1.635 1.7063v17.6722l.413.4238c.763.7703 1.681 1.3708 2.694 1.7632 1.116.4167 2.288.6216 3.514.6216 1.115.0106 2.217-.2191 3.227-.6818.982-.4556 1.832-1.1871 2.556-2.187z"/><path d="m182.483 36.1885c-1.716-1.657-3.764-2.9323-6.01-3.7379-2.471-.8798-5.077-1.3144-7.7-1.2825-3.245 0-6.155.5476-8.729 1.6465-2.471 1.028-4.71 2.5401-6.581 4.455-1.815 1.8796-3.231 4.1054-4.167 6.5465-.974 2.5228-1.465 5.2077-1.451 7.9142 0 3.6921.561 6.9318 1.698 9.7159 1.13 2.7838 2.67 5.1157 4.619 6.9881 1.949 1.8761 4.223 3.2857 6.825 4.2397 2.599.9468 5.388 1.4238 8.354 1.4238 1.448 0 2.962-.1025 4.559-.3004 1.592-.2013 3.184-.5616 4.78-1.088 1.596-.5196 3.15-1.2402 4.661-2.166 1.296-.7876 2.518-1.7842 3.665-2.9782l.565-.6147-3.675-4.4586c-.523-.7244-1.282-1.0883-2.292-1.0883-.763 0-1.49.1766-2.182.5264-.699.3462-1.462.7349-2.292 1.1624-.914.4629-1.864.8514-2.842 1.1659-1.063.3498-2.33.5229-3.799.5229-2.754 0-5.004-.7843-6.744-2.3494-1.628-1.4627-2.673-3.7592-3.139-6.8895l-.089-.6818h24.438c.575 0 1.041-.0673 1.408-.1979.368-.1342.682-.3886.883-.7242.244-.4309.399-.9116.449-1.4061.081-.59.123-1.3496.123-2.2895 0-2.9994-.473-5.6846-1.412-8.0516-.869-2.2578-2.203-4.3033-3.923-6.0027zm-21.845 11.4435c.437-2.5438 1.338-4.494 2.697-5.8436 1.363-1.3532 3.255-2.028 5.681-2.028 1.36 0 2.518.2295 3.475.6853.896.41 1.684 1.0211 2.309 1.7843.59.742 1.02 1.5971 1.268 2.5119.257.9435.388 1.9149.384 2.8901z"/><path d="m244.238 32.4506c2.246.8056 4.294 2.0775 6.01 3.7345 1.674 1.6358 2.984 3.6387 3.923 6.0061.935 2.367 1.408 5.0523 1.408 8.0517 0 .9398-.035 1.6994-.123 2.2894-.049.4945-.205.9752-.448 1.4061-.202.3356-.512.5901-.88.7243-.452.1448-.928.2118-1.409.1979h-24.44l.088.6817c.466 3.1303 1.511 5.4268 3.143 6.8895 1.74 1.5686 3.99 2.346 6.743 2.346 1.469 0 2.737-.1696 3.8-.5195.974-.311 1.924-.6996 2.839-1.1623.833-.4311 1.596-.8197 2.291-1.1623.692-.3535 1.423-.5266 2.182-.5266 1.014 0 1.773.3604 2.292 1.0848l3.679 4.4586-.568.6148c-1.088 1.148-2.32 2.1481-3.662 2.9781-1.515.9258-3.065 1.6502-4.657 2.1694-1.557.5158-3.161.8761-4.785 1.0846-1.596.1979-3.11.3004-4.554.3004-2.85.0211-5.678-.4629-8.358-1.4238-2.55-.9186-4.876-2.3601-6.829-4.2397-1.949-1.8724-3.485-4.1972-4.618-6.9847-1.13-2.7875-1.699-6.0272-1.699-9.7193 0-2.7875.488-5.4233 1.455-7.9141.936-2.4411 2.352-4.667 4.167-6.5466 1.871-1.9114 4.11-3.427 6.578-4.4549 2.574-1.0989 5.483-1.6501 8.724-1.6501l.004.0036c2.623-.032 5.233.4026 7.704 1.2824zm-13.138 9.3379c-1.363 1.353-2.263 3.2998-2.698 5.8435h15.815c0-.9929-.127-1.9504-.385-2.8901-.261-.9362-.681-1.777-1.267-2.5119-.59-.7383-1.356-1.3319-2.313-1.7878-.953-.4523-2.108-.6783-3.474-.6783-2.426 0-4.319.6749-5.678 2.0246z"/><path d="m344.575 36.9096c-1.945-1.8796-4.265-3.3281-6.804-4.2572-2.645-.9894-5.572-1.4839-8.785-1.4839-3.245 0-6.196.4945-8.852 1.4839-2.56.9291-4.897 2.3812-6.867 4.2572-1.949 1.8934-3.471 4.1901-4.453 6.7269-1.048 2.6356-1.571 5.6033-1.571 8.8961 0 3.3174.523 6.31 1.571 8.9773 1.049 2.6605 2.535 4.9214 4.453 6.787 1.97 1.8903 4.307 3.353 6.867 4.2927 2.659 1.0068 5.607 1.5085 8.852 1.5085 3.213 0 6.144-.5017 8.785-1.5085 2.542-.9397 4.862-2.4024 6.804-4.2927 1.893-1.8656 3.365-4.1265 4.414-6.787 1.052-2.6638 1.575-5.6599 1.575-8.9773 0-3.2928-.523-6.2605-1.575-8.8961-.978-2.5297-2.483-4.8226-4.414-6.7269zm-9.155 24.9183c-1.374 2.021-3.524 3.0349-6.434 3.0349-2.997 0-5.194-1.0104-6.581-3.0349-1.392-2.0209-2.084-5.091-2.084-9.2139 0-4.1233.692-7.1934 2.084-9.1966 1.391-2.0068 3.584-3.0137 6.581-3.0137 2.91 0 5.06 1.0033 6.434 3.0137 1.377 2.0032 2.062 5.0733 2.062 9.1966 0 4.1229-.685 7.193-2.062 9.2139z"/></g><path d="m413.442 63.7604c.233.173.469.4449.717.8196l3.841 5.9037-.621.4381c-1.508 1.0032-3.157 1.7701-4.894 2.2717-2.048.6006-4.156.9045-6.338.9045-2.016 0-3.792-.2898-5.335-.8621-1.455-.5263-2.782-1.3602-3.881-2.4521-1.066-1.088-1.885-2.3953-2.39-3.8331-.565-1.6148-.84-3.3139-.819-5.0204v-21.5268h-3.598l-.318-.0174c-.505-.0531-.978-.2616-1.356-.6044-.462-.4133-.692-1.0246-.692-1.83v-4.8544l6.741-1.286 2.496-10.1643.092-.3077c.392-1.0775 1.285-1.6181 2.683-1.6181h6.624v12.1679h10.3v8.511h-10.3v20.6857l.014.4065c.057.7805.293 1.445.703 1.9853.473.6255 1.162.9435 2.058.9435.689.0139 1.374-.145 1.985-.4628.233-.1203.448-.2262.657-.3215.222-.099.469-.145.713-.1415.328-.0141.649.0778.918.2651z"/><path d="m293.362 31.0059.004.0001.002-.0001z"/><path d="m369.924 37.8704c1.285-1.8618 2.877-3.4871 4.71-4.8153 1.931-1.364 4.046-2.0492 6.334-2.0492 1.935 0 3.485.4558 4.661 1.3673l-1.631 9.1576-.078.3143c-.088.3463-.293.6536-.579.8693-.325.2296-.763.3426-1.307.3426-.466 0-1.009-.0635-1.634-.1838-.625-.1199-1.416-.1801-2.373-.1801-3.323 0-5.939 1.7381-7.846 5.2182v25.5438h-12.668v-41.6437h7.513l.452.0106c.378.0106.756.06 1.123.1484.385.0918.749.2613 1.063.5015.293.2402.519.5512.653.9047.17.445.3.901.388 1.3672l.696 3.8898z"/></g></svg>