<svg xmlns="http://www.w3.org/2000/svg" xmlns:lucid="lucid" width="237.05" height="139.55"><g transform="translate(-639.4754753353948 -302.2268207289679)" lucid:page-tab-id="0_0"><path d="M768.4 336.67c0-2.2 1.78-4 4-4h72c2.2 0 4 1.8 4 4v70.66c0 2.2-1.8 4-4 4h-72c-2.22 0-4-1.8-4-4z" stroke="#999" stroke-opacity=".6" stroke-width="2" fill="#fff" filter="url(#a)"/><path d="M833.7 379.72c.37.25.52.7.32 1.1-1.03 3-2.88 5.85-5.15 8.25-.3.35-.77.45-1.18.3l-6.55-2.1c-1.65 1.2-3.45 2.15-5.4 2.9l-1.3 6.25c-.1.35-.45.75-.92.8-1.7.3-3.4.45-5.14.45-1.76 0-3.46-.15-5.16-.45-.46-.05-.82-.45-.93-.8l-1.27-6.25c-1.96-.75-3.8-1.7-5.4-2.9l-6.55 2.1c-.4.15-.87.05-1.18-.3-2.26-2.4-4.12-5.25-5.15-8.25-.2-.4-.05-.85.3-1.1l5.2-4.15c-.2-.9-.25-1.9-.25-2.9 0-.95.06-1.95.26-2.9l-5.2-4.15c-.36-.25-.5-.7-.3-1.1 1.02-3 2.88-5.85 5.14-8.2.3-.35.77-.5 1.18-.3l6.54 2.1c1.6-1.25 3.45-2.2 5.4-2.9l1.3-6.25c.1-.4.46-.8.92-.8 3.4-.65 6.9-.65 10.3 0 .46 0 .82.4.92.8l1.3 6.25c1.94.7 3.74 1.65 5.4 2.9l6.53-2.1c.4-.2.86-.05 1.17.3 2.27 2.35 4.12 5.2 5.15 8.2.2.4.05.85-.3 1.1l-5.2 4.15c.2.95.25 1.95.25 2.9 0 1-.05 2-.26 2.9l5.2 4.15zm-25.26 9.05c9.67 0 17.55-7.2 17.55-16.1 0-8.9-7.9-16.1-17.56-16.1-9.73 0-17.55 7.2-17.55 16.1 0 8.9 7.8 16.1 17.54 16.1zm0-2c-8.5 0-15.34-6.3-15.34-14.1s6.84-14.1 15.34-14.1c8.44 0 15.34 6.3 15.34 14.1s-6.9 14.1-15.34 14.1zm-8.6-20.7v3.95h6.44v9.9h5v-9.9h6.42v-3.95h-17.86z" stroke="#000" stroke-opacity="0" fill="#333"/><path d="M708.32 348.9h29.03V372h11.53" stroke="#651fff" stroke-width="2" fill="none"/><path d="M708.35 349.9h-1.03v-2h1.03z" fill="#651fff"/><path d="M764.15 372l-14.27 4.64v-9.28z" stroke="#651fff" stroke-width="2" fill="#651fff"/><path d="M667.6 334.37c0-2.2 1.8-4 4-4h30.72c2.2 0 4 1.8 4 4v29.1c0 2.2-1.8 4-4 4h-30.7c-2.2 0-4-1.8-4-4z" stroke="#999" stroke-opacity=".6" stroke-width="2" fill="#fff" filter="url(#b)"/><path d="M686.94 334.88c.26 0 .54.03.8.17l10.02 4.8c.48.25.9.67 1.06 1.2l2.46 10.74c.1.55-.05 1.1-.37 1.57l-6.93 8.58c-.35.5-.92.75-1.5.7h-11c-.58-.06-1.13-.3-1.53-.7l-6.92-8.58c-.34-.47-.45-1.02-.37-1.58l2.47-10.8c.1-.56.5-.98.97-1.23l10-4.83c.27-.06.55-.06.84-.06zm-.5 3.8c-.1.15-.2.3-.2.45v.17c0 .14.04.25.1.4.03.04.03.1.03.18v.03c.05.34.05.7.05 1.1-.03.07-.05.2-.17.24v.06l-.03.25-1.1.16c-1.5.35-2.9 1.12-3.98 2.23l-.2-.1h-.03s-.04.02-.1.02c-.1 0-.14-.03-.2-.06-.3-.23-.6-.48-.8-.75l-.15-.12-.26-.3-.1-.06-.02-.02c-.14-.1-.32-.17-.46-.17-.2 0-.37.08-.46.22-.2.3-.14.67.12.9.05 0 .05.05.05.05s.06.05.1.05c.07.06.22.1.33.2.1.02.15.05.2.08.32.2.66.4.92.64.06.05.1.14.1.22v.03l.2.2-.1.16c-1 1.55-1.43 3.4-1.14 5.22l-.26.05c0 .03-.03.03-.03.03-.03.1-.15.17-.23.22-.35.1-.72.17-1.1.2-.08 0-.13 0-.2.02-.14 0-.25.03-.4.03-.02 0-.05.06-.1.06-.04 0-.04 0-.1.03-.3.04-.54.32-.5.62v.1c.07.27.36.46.65.43.06 0 .08 0 .17-.03.03 0 .03 0 .03-.02 0-.03.1 0 .1 0 .16-.03.27-.1.4-.14.04-.03.1-.06.16-.06h.06c.33-.14.65-.22 1.05-.28h.03c.08 0 .2.03.26.1.02 0 .02.02.02.02l.3-.03c.48 1.48 1.4 2.78 2.66 3.73.3.22.54.4.86.58l-.14.23c0 .03.03.03.03.03.05.1.05.22.02.33-.15.3-.32.6-.52.9v.04c-.03.05-.06.08-.15.16-.05.06-.1.2-.23.3l-.05.12s0 .03-.03.03c-.17.3-.03.7.26.86.05.04.17.06.23.06.26 0 .5-.16.6-.38 0 0 0-.03.07-.03 0-.03.02-.06.05-.1.03-.12.1-.2.12-.35l.08-.2c.1-.32.26-.66.4-.96.1-.1.18-.17.26-.2.03 0 .03 0 .03-.02l.16-.28c.9.36 1.83.53 2.8.53.6 0 1.18-.1 1.76-.23.37-.08.72-.2 1.03-.3l.14.22c.02 0 .02 0 .02.06.1.02.2.08.26.16.17.34.32.64.43 1v.03l.07.2.1.36c.07.03.07.06.1.1 0 0 0 .02.03.02.1.22.34.38.6.38.12 0 .17-.02.26-.05.14-.07.26-.2.3-.35.04-.17.04-.3-.04-.47 0-.03-.03-.03-.03-.03 0-.03-.04-.08-.07-.1-.06-.12-.14-.23-.23-.32l-.1-.16v-.06c-.24-.3-.4-.6-.56-.9-.03-.12-.03-.23.06-.34 0-.03.03-.03.03-.03l-.12-.25c1.68-1 2.94-2.52 3.5-4.33l.27.03c.03 0 .03-.03.03-.03.1-.05.17-.1.26-.1h.06c.34.07.68.16 1.03.3h.03c.06.02.1.05.2.05.1.06.2.14.34.17.03 0 .06.03.15.03l.05.02c.06.03.1.03.15.03.3 0 .57-.2.66-.44-.03-.33-.3-.6-.58-.66-.03 0-.08 0-.08-.03h-.12c-.08-.04-.17-.04-.26-.04h-.15c-.06 0-.1 0-.17-.06h-.06c-.34-.03-.74-.08-1.1-.16-.08-.03-.13-.12-.2-.17l-.02-.06-.26-.07c.15-.92.06-1.86-.1-2.8-.24-.92-.64-1.8-1.16-2.6l.2-.18v-.06c0-.1.03-.23.1-.28.27-.25.6-.45.9-.64l.2-.1.35-.18c.03-.03.06-.03.1-.05.04-.06 0-.06 0-.1.3-.2.36-.6.13-.88-.1-.1-.3-.22-.46-.22-.14 0-.3.06-.46.17l-.03.03c-.02.02-.04.05-.07.05-.12.1-.2.2-.26.3-.03.06-.12.1-.14.12-.23.25-.52.53-.8.7-.06.05-.12.07-.2.07-.04 0-.1 0-.12-.03h-.02l-.26.14-.83-.74c-1.2-.92-2.68-1.5-4.2-1.67l-.03-.26v.03c-.1-.06-.14-.17-.17-.25 0-.36 0-.7.06-1.08v-.03l.02-.2c.03-.12.03-.24.1-.37v-.2c.02-.3-.24-.64-.58-.67-.18-.02-.38.1-.55.23zm.67 13.64c.1.05.15.14.27.22l1.55 2.78c-.2.02-.4.05-.63.1-.44.12-.9.17-1.4.17-.68 0-1.4-.14-2.03-.3l1.58-2.84c.17-.2.43-.28.66-.14zm-2.94-1.36c.25 0 .5.14.54.4.03.1.03.24-.03.32l-1.23 2.9c-1.12-.7-2.04-1.82-2.5-3.1l3.22-.52zm5.48-.06l3.24.56c-.17.44-.37.86-.63 1.22-.5.75-1.15 1.4-1.95 1.9l-1.27-2.98c-.05-.28.1-.53.32-.6.1-.04.17-.1.3-.1zm-2.24-2.52l.6.75-.23.94-.86.4-.88-.4-.2-.94.6-.75h.98zm4.88-2.28c.37.58.63 1.22.77 1.9.17.65.2 1.32.14 2l-3.08-.87c-.28-.06-.46-.34-.4-.64.03-.1.06-.15.15-.24l2.4-2.16zm-10.8 0l2.42 2.1c.23.2.26.5.06.73-.06.1-.12.14-.26.17l-3.13.9c-.1-1.35.23-2.7.92-3.9zm4.63-2.92l-.16 3.2c0 .27-.26.5-.55.5-.12 0-.18-.03-.27-.06l-2.7-1.9c.84-.8 1.9-1.35 3.02-1.6l.66-.14zm1.56.03c1.43.18 2.7.8 3.64 1.73l-2.64 1.84c-.23.13-.54.1-.72-.12-.05-.05-.08-.13-.08-.22l-.2-3.22z" stroke="#000" stroke-opacity="0" fill="#333"/><path d="M667.6 380.54c0-2.2 1.8-4 4-4h30.72c2.2 0 4 1.8 4 4v29.1c0 2.2-1.8 4-4 4h-30.7c-2.2 0-4-1.8-4-4z" stroke="#999" stroke-opacity=".6" stroke-width="2" fill="#fff" filter="url(#b)"/><path d="M686.94 381.06c.26 0 .54.03.8.16l10.02 4.8c.48.26.9.67 1.06 1.2l2.46 10.75c.1.55-.05 1.1-.37 1.58l-6.93 8.58c-.35.5-.92.75-1.5.7h-11c-.58-.06-1.13-.3-1.53-.7l-6.92-8.58c-.34-.47-.45-1.03-.37-1.58l2.47-10.8c.1-.56.5-.98.97-1.23l10-4.83c.27-.04.55-.04.84-.04zm-.5 3.8c-.1.14-.2.3-.2.45v.17c0 .14.04.25.1.4.03.05.03.1.03.2.05.35.05.7.05 1.1-.03.08-.05.2-.17.25v.05l-.03.25c-.34.06-.72.1-1.1.17-1.5.32-2.9 1.1-3.98 2.2l-.2-.1h-.03s-.04.03-.1.03c-.1 0-.14-.03-.2-.06-.3-.22-.6-.47-.8-.75-.06-.06-.12-.08-.15-.1-.08-.12-.17-.2-.26-.32l-.1-.05-.02-.03c-.14-.08-.32-.17-.46-.17-.2 0-.37.1-.46.23-.2.3-.14.66.12.88.05 0 .05.06.05.06s.06.06.1.06c.07.05.22.1.33.2.1.02.15.05.2.07.32.2.66.4.92.64.06.05.1.13.1.2v.04l.2.2-.1.16c-1 1.56-1.43 3.42-1.14 5.22l-.26.06c0 .03-.03.03-.03.03-.03.12-.15.17-.23.23-.35.1-.72.16-1.1.2-.08 0-.13 0-.2.02-.14 0-.25.03-.4.03-.02 0-.05.05-.1.05-.04 0-.04 0-.1.03-.3.06-.54.33-.5.64v.08c.07.28.36.47.65.45.06 0 .08 0 .17-.03.03 0 .03 0 .03-.03s.1 0 .1 0c.16-.03.27-.1.4-.14.04-.03.1-.05.16-.05h.06c.33-.14.65-.23 1.05-.28h.03c.08 0 .2.03.26.08.02 0 .02.03.02.03l.3-.02c.48 1.47 1.4 2.78 2.66 3.72.3.22.54.42.86.6l-.14.2c0 .04.03.04.03.04.05.1.05.22.02.33-.15.3-.32.6-.52.9v.04c-.03.07-.06.1-.15.18-.05.05-.1.2-.23.3l-.05.12s0 .02-.03.02c-.17.3-.03.7.26.86.05.03.17.06.23.06.26 0 .5-.17.6-.4 0 0 0-.02.07-.02 0-.02.02-.05.05-.08.03-.14.1-.22.12-.36l.08-.2c.1-.33.26-.66.4-.97.1-.1.18-.15.26-.18.03 0 .03 0 .03-.03l.16-.3c.9.37 1.83.54 2.8.54.6 0 1.18-.08 1.76-.22.37-.08.72-.2 1.03-.3l.14.22c.02 0 .02 0 .02.05.1.02.2.07.26.16.17.33.32.64.43 1v.02l.07.2.1.36c.07.03.07.06.1.08 0 0 0 .03.03.03.1.22.34.4.6.4.12 0 .17-.04.26-.07.14-.08.26-.2.3-.36.04-.16.04-.3-.04-.47 0-.03-.03-.03-.03-.03 0-.02-.04-.08-.07-.1-.06-.12-.14-.23-.23-.3l-.1-.18v-.06c-.24-.3-.4-.6-.56-.9-.03-.12-.03-.23.06-.34 0-.03.03-.03.03-.03l-.12-.24c1.68-1 2.94-2.53 3.5-4.33l.27.02c.03 0 .03-.02.03-.02.1-.06.17-.1.26-.1h.06c.34.07.68.15 1.03.3h.03c.06.02.1.05.2.05.1.05.2.14.34.16.03 0 .06.03.15.03.02 0 .02 0 .05.03.06.03.1.03.15.03.3 0 .57-.2.66-.45-.03-.33-.3-.6-.58-.66-.03 0-.08 0-.08-.03 0-.04-.06-.04-.12-.04-.08-.03-.17-.03-.26-.03h-.15c-.06 0-.1 0-.17-.05h-.06c-.34-.03-.74-.1-1.1-.17-.08-.02-.13-.1-.2-.16l-.02-.05-.26-.1c.15-.9.06-1.86-.1-2.8-.24-.92-.64-1.8-1.16-2.6l.2-.18v-.05c0-.08.03-.22.1-.28.27-.26.6-.45.9-.65l.2-.08.35-.2.1-.05c.04-.06 0-.06 0-.08.3-.23.36-.6.13-.9-.1-.1-.3-.2-.46-.2-.14 0-.3.04-.46.15l-.03.02c-.02.03-.04.06-.07.06-.12.1-.2.2-.26.3-.03.06-.12.08-.14.1-.23.26-.52.54-.8.7-.06.06-.12.1-.2.1-.04 0-.1 0-.12-.04h-.02l-.26.14c-.26-.25-.57-.5-.83-.75-1.2-.9-2.68-1.5-4.2-1.66l-.03-.25v.02c-.1-.05-.14-.16-.17-.25 0-.37 0-.7.06-1.1v-.02l.02-.2c.03-.13.03-.24.1-.38v-.2c.02-.3-.24-.63-.58-.66-.18-.03-.38.08-.55.22zm.67 13.63c.1.05.15.13.27.22l1.55 2.77c-.2.02-.4.05-.63.1-.44.1-.9.17-1.4.17-.68 0-1.4-.14-2.03-.3l1.58-2.84c.17-.2.43-.28.66-.14zm-2.94-1.37c.25 0 .5.14.54.42.03.08.03.22-.03.3l-1.23 2.92c-1.12-.72-2.04-1.83-2.5-3.1l3.22-.54zm5.48-.05l3.24.55c-.17.45-.37.86-.63 1.22-.5.75-1.15 1.42-1.95 1.9l-1.27-2.98c-.05-.28.1-.53.32-.6.1-.04.17-.1.3-.1zm-2.24-2.53l.6.75-.23.94-.86.4-.88-.4-.2-.94.6-.75h.98zm4.88-2.28c.37.6.63 1.23.77 1.9.17.66.2 1.32.14 2l-3.08-.87c-.28-.06-.46-.33-.4-.64.03-.08.06-.14.15-.22l2.4-2.17zm-10.8 0l2.42 2.1c.23.2.26.5.06.74-.06.12-.12.14-.26.17l-3.13.9c-.1-1.34.23-2.7.92-3.9zm4.63-2.9l-.16 3.18c0 .28-.26.5-.55.5-.12 0-.18-.03-.27-.05l-2.7-1.9c.84-.8 1.9-1.35 3.02-1.6l.66-.14zm1.56.02c1.43.15 2.7.76 3.64 1.7l-2.64 1.84c-.23.14-.54.1-.72-.1-.05-.07-.08-.15-.08-.23l-.2-3.2z" stroke="#000" stroke-opacity="0"/><path d="M708.32 348.9h29.03V372h11.53M708.35 348.9h-1.03" stroke="#999" stroke-width="2" fill="none"/><path d="M764.15 372l-14.27 4.64v-9.28z" stroke="#999" stroke-width="2" fill="#999"/><path d="M708.32 392h29.03v-20h11.53" stroke="#999" stroke-width="2" fill="none"/><path d="M708.35 393h-1.03v-2h1.03z" fill="#999"/><path d="M764.15 372l-14.27 4.64v-9.28z" stroke="#999" stroke-width="2" fill="#999"/><defs><filter id="a" filterUnits="objectBoundingBox" x="-.16" y="-.12" width="1.38" height="1.38"><feOffset result="offOut" in="SourceAlpha" dx="2.05" dy="5.64"/><feGaussianBlur result="blurOut" in="offOut" stdDeviation="7.5"/><feColorMatrix result="colorOut" in="blurOut" values="0 0 0 0 0 0 0 0 0 0 0 0 0 0 0 0 0 0 0.14901960784313725 0"/><feBlend in="SourceGraphic" in2="colorOut"/></filter><filter id="b" filterUnits="objectBoundingBox" x="-.33" y="-.25" width="1.78" height="1.81"><feOffset result="offOut" in="SourceAlpha" dx="2.05" dy="5.64"/><feGaussianBlur result="blurOut" in="offOut" stdDeviation="7.5"/><feColorMatrix result="colorOut" in="blurOut" values="0 0 0 0 0 0 0 0 0 0 0 0 0 0 0 0 0 0 0.14901960784313725 0"/><feBlend in="SourceGraphic" in2="colorOut"/></filter></defs></g></svg>