<svg xmlns="http://www.w3.org/2000/svg" xmlns:lucid="lucid" width="235.81" height="134.95"><g transform="translate(-640.0974599315103 -255.1937308421229)" lucid:page-tab-id="0_0"><path d="M668.24 287.33c0-2.2 1.8-4 4-4h171.52c2.2 0 4 1.8 4 4V358c0 2.2-1.8 4-4 4H672.24c-2.2 0-4-1.8-4-4z" stroke="#999" stroke-opacity=".6" stroke-width="2" fill="#fff" filter="url(#a)"/><path d="M710.9 289.52c.57 0 1.2.06 1.76.36l22 10.3c1.07.53 1.95 1.42 2.33 2.55l5.4 23.03c.2 1.2-.12 2.38-.8 3.4l-15.26 18.38c-.76 1.08-2.02 1.6-3.28 1.5h-24.2c-1.26-.13-2.45-.66-3.34-1.5l-15.18-18.38c-.76-1.02-1-2.2-.82-3.4l5.42-23.15c.25-1.18 1.07-2.07 2.14-2.6l22-10.36c.56-.12 1.2-.12 1.82-.12zm-1.07 8.15c-.25.3-.44.66-.44.96v.35c0 .3.05.54.18.84.06.12.06.23.06.4v.07c.12.7.12 1.48.12 2.3-.06.2-.12.43-.37.55v.12l-.08.53-2.4.36c-3.33.72-6.42 2.38-8.75 4.76l-.44-.24h-.06c-.07 0-.13.06-.26.06-.17 0-.3-.06-.43-.12-.63-.47-1.32-1-1.76-1.6-.12-.12-.24-.18-.3-.24l-.57-.65c-.07-.06-.13-.06-.2-.12l-.06-.05c-.3-.18-.7-.36-1-.36-.44 0-.82.17-1 .47-.45.65-.33 1.42.24 1.9.14 0 .14.12.14.12s.12.1.2.1c.17.13.5.25.74.42.2.06.32.12.44.18.7.42 1.45.84 2.02 1.37.13.12.2.3.2.48v.06l.43.42-.2.36c-2.2 3.33-3.14 7.32-2.5 11.2l-.58.1c0 .07-.07.07-.07.07-.06.24-.32.35-.5.47-.76.24-1.58.36-2.4.42-.2 0-.3 0-.44.06-.33 0-.58.06-.9.06-.06 0-.12.12-.24.12-.07 0-.07 0-.2.06-.7.12-1.2.7-1.13 1.37v.2c.2.58.82 1 1.45.94.13 0 .2 0 .38-.06.06 0 .06 0 .06-.06s.2 0 .25 0c.32-.06.57-.24.82-.3.12-.06.25-.12.37-.12h.13c.75-.3 1.45-.47 2.33-.6h.06c.18 0 .43.07.56.2.06 0 .06.04.06.04l.63-.05c1.07 3.14 3.1 5.94 5.86 7.96.64.48 1.2.9 1.9 1.25l-.3.5c0 .04.05.04.05.04.13.24.13.48.06.72-.3.65-.68 1.3-1.12 1.96v.06c-.06.12-.13.18-.3.36-.14.12-.27.42-.52.65-.06.05-.06.1-.13.23 0 0 0 .06-.06.06-.38.65-.06 1.48.57 1.84.13.06.38.12.5.12.57 0 1.07-.36 1.33-.84 0 0 0-.06.12-.06 0-.06.06-.12.12-.18.06-.3.2-.47.25-.77l.2-.4c.18-.72.56-1.43.87-2.1.2-.23.38-.35.57-.4.07 0 .07 0 .07-.06l.32-.6c2 .77 4.02 1.13 6.16 1.13 1.33 0 2.6-.18 3.85-.48.83-.18 1.58-.42 2.27-.66l.32.48c.05 0 .05 0 .05.12.2.05.44.17.57.35.38.7.7 1.36.94 2.13v.06l.13.4c.05.3.12.55.24.78.13.06.13.12.2.18 0 0 0 .06.05.06.25.48.75.84 1.32.84.25 0 .38-.06.57-.12.3-.18.55-.42.62-.78.12-.35.12-.65-.07-1 0-.07-.06-.07-.06-.07 0-.07-.07-.2-.14-.25-.12-.23-.3-.47-.5-.65-.06-.12-.13-.24-.25-.36v-.12c-.5-.65-.87-1.3-1.2-1.96-.05-.24-.05-.48.14-.72 0-.05.06-.05.06-.05l-.25-.55c3.65-2.14 6.42-5.42 7.68-9.28l.57.06c.06 0 .06-.06.06-.06.2-.12.38-.24.57-.24h.13c.75.18 1.5.36 2.27.65h.06c.12.06.24.12.43.12.25.12.44.3.76.36.05 0 .1.06.3.06.06 0 .06 0 .13.06.12.06.2.06.3.06.7 0 1.27-.42 1.46-.95-.07-.73-.64-1.32-1.27-1.44-.06 0-.2 0-.2-.06s-.1-.06-.24-.06c-.2-.06-.4-.06-.58-.06h-.3c-.14 0-.26 0-.4-.12h-.12c-.75-.06-1.63-.18-2.4-.36-.18-.06-.3-.24-.43-.35l-.06-.12-.56-.18c.3-1.97.12-4-.25-6-.52-1.98-1.4-3.88-2.53-5.6l.44-.36v-.13c0-.18.07-.48.2-.6.63-.53 1.32-.95 2-1.37.14-.06.26-.12.45-.18.26-.17.5-.3.76-.4.07-.07.14-.07.2-.13.12-.13 0-.13 0-.2.7-.47.82-1.3.3-1.9-.18-.23-.62-.47-1-.47-.3 0-.7.12-1 .36l-.07.05c-.06.06-.12.12-.18.12-.26.23-.45.4-.57.65-.06.12-.25.18-.32.24-.5.53-1.13 1.13-1.76 1.5-.13.1-.25.16-.44.16-.07 0-.2 0-.25-.05h-.06l-.56.3c-.57-.54-1.26-1.08-1.83-1.6-2.6-1.98-5.86-3.23-9.2-3.58l-.06-.55v.06c-.27-.1-.33-.35-.4-.53 0-.77 0-1.48.13-2.32v-.06c0-.13.07-.3.07-.42.06-.3.06-.54.2-.84v-.4c.05-.67-.52-1.38-1.27-1.44-.38-.06-.82.18-1.2.47zm1.45 29.22c.2.1.3.3.56.47l3.4 5.95c-.43.06-.88.12-1.38.24-.94.24-1.95.36-3.02.36-1.52 0-3.1-.3-4.48-.66l3.47-6.07c.38-.42.94-.6 1.45-.3zm-6.5-2.92c.57 0 1.14.3 1.2.9.07.17.07.47-.06.65l-2.7 6.24c-2.47-1.54-4.48-3.92-5.5-6.66l7.07-1.12zm12.04-.12l7.12 1.2c-.38.94-.82 1.83-1.38 2.6-1.07 1.6-2.52 3.04-4.3 4.05l-2.76-6.35c-.13-.6.2-1.13.7-1.3.18-.07.37-.2.62-.2zm-4.9-5.42l1.3 1.6-.5 2.03-1.88.84-1.96-.83-.44-2.02 1.32-1.6h2.15zm10.7-4.88c.82 1.25 1.4 2.62 1.7 4.05.38 1.44.44 2.87.32 4.3l-6.75-1.85c-.64-.12-1-.7-.9-1.37.07-.18.14-.3.33-.47l5.3-4.64zm-23.7 0l5.3 4.53c.5.4.57 1.06.13 1.53-.13.24-.26.3-.57.36l-6.87 1.9c-.24-2.86.5-5.78 2.03-8.34zm10.15-6.24l-.38 6.84c0 .6-.57 1.07-1.2 1.07-.26 0-.38-.06-.57-.12l-5.92-4.04c1.83-1.72 4.16-2.9 6.62-3.45l1.45-.28zm3.4.05c3.16.36 5.93 1.67 8 3.7l-5.8 3.92c-.5.3-1.2.23-1.57-.25-.12-.1-.18-.3-.18-.47l-.45-6.9z" stroke="#000" stroke-opacity="0" fill="#333"/><path d="M750.25 306.25c0-2.2 1.8-4 4-4h30.7c2.2 0 4 1.8 4 4v29.1c0 2.2-1.8 4-4 4h-30.7c-2.2 0-4-1.8-4-4z" stroke="#999" stroke-opacity=".6" stroke-width="2" fill="#fff" filter="url(#b)"/><path d="M781 324.1c.15.12.22.33.13.52-.46 1.4-1.3 2.74-2.32 3.86-.12.16-.33.2-.52.14l-2.94-.98c-.74.56-1.55 1-2.43 1.36l-.57 2.92c-.04.17-.2.36-.4.38-.78.14-1.54.2-2.33.2-.8 0-1.55-.06-2.3-.2-.22-.02-.38-.2-.43-.38l-.58-2.92c-.9-.36-1.72-.8-2.44-1.36l-2.94.98c-.2.07-.4.02-.53-.14-1.03-1.12-1.86-2.46-2.33-3.86-.1-.2-.02-.4.14-.52l2.35-1.94c-.1-.43-.12-.9-.12-1.36 0-.45.03-.92.12-1.36l-2.34-1.95c-.15-.12-.22-.33-.13-.52.47-1.4 1.3-2.74 2.32-3.84.13-.17.33-.24.52-.14l2.94.98c.72-.6 1.55-1.03 2.43-1.36l.57-2.93c.05-.2.2-.38.42-.38 1.5-.3 3.1-.3 4.62 0 .2 0 .37.2.4.37l.6 2.92c.87.33 1.68.77 2.42 1.36l2.94-.98c.2-.1.4-.03.53.14 1.03 1.1 1.87 2.43 2.33 3.84.1.2.02.4-.14.5l-2.35 1.96c.1.44.12.9.12 1.36 0 .47-.02.93-.12 1.36l2.34 1.94zm-11.38 4.24c4.36 0 7.9-3.37 7.9-7.54s-3.54-7.55-7.9-7.55c-4.37 0-7.9 3.38-7.9 7.55s3.53 7.54 7.9 7.54zm0-.94c-3.82 0-6.9-2.95-6.9-6.6 0-3.66 3.08-6.6 6.9-6.6 3.8 0 6.9 2.94 6.9 6.6 0 3.65-3.1 6.6-6.9 6.6zm-3.86-9.7v1.86h2.9v4.63h2.24v-4.64h2.9v-1.85h-8.04z" stroke="#000" stroke-opacity="0" fill="#333"/><path d="M796.73 306.25c0-2.2 1.8-4 4-4h30.7c2.22 0 4 1.8 4 4v29.1c0 2.2-1.78 4-4 4h-30.7c-2.2 0-4-1.8-4-4z" stroke="#999" stroke-opacity=".6" stroke-width="2" fill="#fff" filter="url(#b)"/><path d="M827.48 324.1c.16.12.23.33.14.52-.47 1.4-1.3 2.74-2.32 3.86-.14.16-.35.2-.53.14l-2.94-.98c-.74.56-1.55 1-2.43 1.36l-.58 2.92c-.05.17-.2.36-.42.38-.76.14-1.53.2-2.3.2-.8 0-1.56-.06-2.33-.2-.2-.02-.37-.2-.4-.38l-.6-2.92c-.87-.36-1.7-.8-2.42-1.36l-2.94.98c-.18.07-.4.02-.53-.14-1-1.12-1.85-2.46-2.3-3.86-.1-.2-.03-.4.13-.52l2.34-1.94c-.1-.43-.12-.9-.12-1.36 0-.45.02-.92.12-1.36l-2.34-1.95c-.16-.12-.23-.33-.14-.52.46-1.4 1.3-2.74 2.3-3.84.15-.17.36-.24.55-.14l2.95.98c.7-.6 1.55-1.03 2.43-1.36l.58-2.93c.04-.2.2-.38.4-.38 1.54-.3 3.1-.3 4.64 0 .2 0 .37.2.42.37l.58 2.92c.88.33 1.7.77 2.43 1.36l2.94-.98c.18-.1.4-.03.53.14 1.02 1.1 1.85 2.43 2.32 3.84.1.2.02.4-.14.5l-2.34 1.96c.1.44.1.9.1 1.36 0 .47 0 .93-.1 1.36l2.34 1.94zm-11.37 4.24c4.36 0 7.9-3.37 7.9-7.54s-3.54-7.55-7.9-7.55-7.88 3.38-7.88 7.55 3.52 7.54 7.9 7.54zm0-.94c-3.8 0-6.9-2.95-6.9-6.6 0-3.66 3.1-6.6 6.9-6.6 3.8 0 6.9 2.94 6.9 6.6 0 3.65-3.1 6.6-6.9 6.6zm-3.86-9.7v1.86h2.9v4.63h2.24v-4.64h2.9v-1.85h-8.04z" stroke="#000" stroke-opacity="0" fill="#333"/><defs><filter id="a" filterUnits="objectBoundingBox" x="-.07" y="-.12" width="1.17" height="1.38"><feOffset result="offOut" in="SourceAlpha" dx="2.05" dy="5.64"/><feGaussianBlur result="blurOut" in="offOut" stdDeviation="7.5"/><feColorMatrix result="colorOut" in="blurOut" values="0 0 0 0 0 0 0 0 0 0 0 0 0 0 0 0 0 0 0.14901960784313725 0"/><feBlend in="SourceGraphic" in2="colorOut"/></filter><filter id="b" filterUnits="objectBoundingBox" x="-.33" y="-.25" width="1.78" height="1.81"><feOffset result="offOut" in="SourceAlpha" dx="2.05" dy="5.64"/><feGaussianBlur result="blurOut" in="offOut" stdDeviation="7.5"/><feColorMatrix result="colorOut" in="blurOut" values="0 0 0 0 0 0 0 0 0 0 0 0 0 0 0 0 0 0 0.14901960784313725 0"/><feBlend in="SourceGraphic" in2="colorOut"/></filter></defs></g></svg>