<?xml version="1.0" encoding="UTF-8"?>
<svg width="281px" height="530px" viewBox="0 0 281 530" version="1.1" xmlns="http://www.w3.org/2000/svg" xmlns:xlink="http://www.w3.org/1999/xlink">
    <!-- Generator: Sketch 47.1 (45422) - http://www.bohemiancoding.com/sketch -->
    <title>auth-server</title>
    <desc>Created with Sketch.</desc>
    <defs>
        <rect id="path-1" x="16" y="8" width="249" height="270" rx="10"></rect>
        <filter x="-11.2%" y="-7.4%" width="122.5%" height="120.7%" filterUnits="objectBoundingBox" id="filter-2">
            <feOffset dx="0" dy="8" in="SourceAlpha" result="shadowOffsetOuter1"></feOffset>
            <feGaussianBlur stdDeviation="8" in="shadowOffsetOuter1" result="shadowBlurOuter1"></feGaussianBlur>
            <feColorMatrix values="0 0 0 0 0   0 0 0 0 0   0 0 0 0 0  0 0 0 0.103742074 0" type="matrix" in="shadowBlurOuter1"></feColorMatrix>
        </filter>
        <filter x="-10.5%" y="-6.4%" width="121.1%" height="125.5%" filterUnits="objectBoundingBox" id="filter-3">
            <feOffset dx="0" dy="1" in="SourceAlpha" result="shadowOffsetOuter1"></feOffset>
            <feGaussianBlur stdDeviation="0.5" in="shadowOffsetOuter1" result="shadowBlurOuter1"></feGaussianBlur>
            <feColorMatrix values="0 0 0 0 0   0 0 0 0 0   0 0 0 0 0  0 0 0 0.5 0" type="matrix" in="shadowBlurOuter1" result="shadowMatrixOuter1"></feColorMatrix>
            <feMerge>
                <feMergeNode in="shadowMatrixOuter1"></feMergeNode>
                <feMergeNode in="SourceGraphic"></feMergeNode>
            </feMerge>
        </filter>
        <rect id="path-4" x="0" y="0" width="171" height="141" rx="10"></rect>
        <filter x="-16.4%" y="-14.2%" width="132.7%" height="139.7%" filterUnits="objectBoundingBox" id="filter-5">
            <feOffset dx="0" dy="8" in="SourceAlpha" result="shadowOffsetOuter1"></feOffset>
            <feGaussianBlur stdDeviation="8" in="shadowOffsetOuter1" result="shadowBlurOuter1"></feGaussianBlur>
            <feColorMatrix values="0 0 0 0 0   0 0 0 0 0   0 0 0 0 0  0 0 0 0.103742074 0" type="matrix" in="shadowBlurOuter1"></feColorMatrix>
        </filter>
        <rect id="path-6" x="0" y="0" width="106" height="63"></rect>
        <filter x="-1.7%" y="-3.6%" width="103.4%" height="110.0%" filterUnits="objectBoundingBox" id="filter-7">
            <feOffset dx="0" dy="1" in="SourceAlpha" result="shadowOffsetOuter1"></feOffset>
            <feGaussianBlur stdDeviation="1" in="shadowOffsetOuter1" result="shadowBlurOuter1"></feGaussianBlur>
            <feColorMatrix values="0 0 0 0 0   0 0 0 0 0   0 0 0 0 0  0 0 0 0.5 0" type="matrix" in="shadowBlurOuter1" result="shadowMatrixOuter1"></feColorMatrix>
            <feMerge>
                <feMergeNode in="shadowMatrixOuter1"></feMergeNode>
                <feMergeNode in="SourceGraphic"></feMergeNode>
            </feMerge>
        </filter>
        <rect id="path-8" x="0" y="0" width="207" height="70" rx="10"></rect>
    </defs>
    <g id="-" stroke="none" stroke-width="1" fill="none" fill-rule="evenodd">
        <g id="auth-server">
            <g id="Rectangle-Copy-6">
                <use fill="black" fill-opacity="1" filter="url(#filter-2)" xlink:href="#path-1"></use>
                <use fill="#FFFFFF" fill-rule="evenodd" xlink:href="#path-1"></use>
            </g>
            <g id="recorded-sessions" transform="translate(31.000000, 226.000000)" font-size="12" font-family="HelveticaNeue-Medium, Helvetica Neue" fill="#4A4A4A" line-spacing="15" font-weight="400">
                <text id="Recorded-Sessions">
                    <tspan x="25.374" y="12.4782609">Recorded </tspan>
                    <tspan x="27.486" y="27.4782609">Sessions</tspan>
                </text>
            </g>
            <g id="teleport-proxy-copy-3" filter="url(#filter-3)" transform="translate(57.000000, 364.000000)">
                <g id="Rectangle-Copy-6">
                    <use fill="black" fill-opacity="1" filter="url(#filter-5)" xlink:href="#path-4"></use>
                    <use fill="#FFFFFF" fill-rule="evenodd" xlink:href="#path-4"></use>
                </g>
            </g>
            <g id="Group" transform="translate(87.000000, 384.000000)">
                <g id="CLI-admin">
                    <path d="M23.908,80.208 C23.8226662,79.8773317 23.7053341,79.5733347 23.556,79.296 C23.4066659,79.0186653 23.2146678,78.7786677 22.98,78.576 C22.7453322,78.3733323 22.4706682,78.2160006 22.156,78.104 C21.8413318,77.9919994 21.4760021,77.936 21.06,77.936 C20.451997,77.936 19.9266689,78.0586654 19.484,78.304 C19.0413311,78.5493346 18.6813347,78.8773313 18.404,79.288 C18.1266653,79.6986687 17.921334,80.1653307 17.788,80.688 C17.654666,81.2106693 17.588,81.7439973 17.588,82.288 C17.588,82.8320027 17.654666,83.3653307 17.788,83.888 C17.921334,84.4106693 18.1266653,84.8773313 18.404,85.288 C18.6813347,85.6986687 19.0413311,86.0266654 19.484,86.272 C19.9266689,86.5173346 20.451997,86.64 21.06,86.64 C21.5080022,86.64 21.902665,86.5626674 22.244,86.408 C22.585335,86.2533326 22.8786654,86.0400014 23.124,85.768 C23.3693346,85.4959986 23.5613326,85.1786685 23.7,84.816 C23.8386674,84.4533315 23.9293331,84.0640021 23.972,83.648 L25.924,83.648 C25.8813331,84.3306701 25.7346679,84.9546638 25.484,85.52 C25.2333321,86.0853362 24.8946688,86.5733313 24.468,86.984 C24.0413312,87.3946687 23.5400029,87.7119989 22.964,87.936 C22.3879971,88.1600011 21.7533368,88.272 21.06,88.272 C20.2066624,88.272 19.4413367,88.1146682 18.764,87.8 C18.0866633,87.4853318 17.5133357,87.0560027 17.044,86.512 C16.5746643,85.9679973 16.2146679,85.333337 15.964,84.608 C15.7133321,83.882663 15.588,83.1093374 15.588,82.288 C15.588,81.4773293 15.7133321,80.709337 15.964,79.984 C16.2146679,79.258663 16.5746643,78.6240027 17.044,78.08 C17.5133357,77.5359973 18.0866633,77.1040016 18.764,76.784 C19.4413367,76.4639984 20.2066624,76.304 21.06,76.304 C21.7000032,76.304 22.3026638,76.3919991 22.868,76.568 C23.4333362,76.7440009 23.9319978,76.9999983 24.364,77.336 C24.7960022,77.6720017 25.145332,78.0799976 25.412,78.56 C25.678668,79.0400024 25.8439997,79.5893302 25.908,80.208 L23.908,80.208 Z M27.748,76.576 L29.748,76.576 L29.748,86.272 L35.556,86.272 L35.556,88 L27.748,88 L27.748,76.576 Z M36.932,76.576 L38.932,76.576 L38.932,88 L36.932,88 L36.932,76.576 Z M48.884,76.576 L51.012,76.576 L55.412,88 L53.268,88 L52.196,84.976 L47.636,84.976 L46.564,88 L44.5,88 L48.884,76.576 Z M48.18,83.456 L51.668,83.456 L49.956,78.544 L49.908,78.544 L48.18,83.456 Z M64.036,88 L62.308,88 L62.308,86.88 L62.276,86.88 C62.0306654,87.3600024 61.6733357,87.703999 61.204,87.912 C60.7346643,88.120001 60.2386693,88.224 59.716,88.224 C59.0653301,88.224 58.4973358,88.1093345 58.012,87.88 C57.5266642,87.6506655 57.1240016,87.3386686 56.804,86.944 C56.4839984,86.5493314 56.2440008,86.0826694 56.084,85.544 C55.9239992,85.0053306 55.844,84.4266698 55.844,83.808 C55.844,83.0613296 55.9453323,82.4160027 56.148,81.872 C56.3506677,81.3279973 56.6199983,80.8800018 56.956,80.528 C57.2920017,80.1759982 57.6759978,79.9173342 58.108,79.752 C58.5400022,79.5866658 58.9799978,79.504 59.428,79.504 C59.6840013,79.504 59.945332,79.5279998 60.212,79.576 C60.478668,79.6240002 60.7346654,79.7013328 60.98,79.808 C61.2253346,79.9146672 61.451999,80.0506658 61.66,80.216 C61.868001,80.3813342 62.0413326,80.5759989 62.18,80.8 L62.212,80.8 L62.212,76.576 L64.036,76.576 L64.036,88 Z M57.668,83.952 C57.668,84.3040018 57.7133329,84.650665 57.804,84.992 C57.8946671,85.333335 58.0333324,85.637332 58.22,85.904 C58.4066676,86.170668 58.6439986,86.3839992 58.932,86.544 C59.2200014,86.7040008 59.5613314,86.784 59.956,86.784 C60.3613354,86.784 60.7106652,86.6986675 61.004,86.528 C61.2973348,86.3573325 61.5373324,86.1333347 61.724,85.856 C61.9106676,85.5786653 62.0493329,85.2666684 62.14,84.92 C62.2306671,84.5733316 62.276,84.2186685 62.276,83.856 C62.276,82.9386621 62.0706687,82.2240026 61.66,81.712 C61.2493313,81.1999974 60.6920035,80.944 59.988,80.944 C59.5613312,80.944 59.2013348,81.0319991 58.908,81.208 C58.6146652,81.3840009 58.3746676,81.6133319 58.188,81.896 C58.0013324,82.1786681 57.8680004,82.4986649 57.788,82.856 C57.7079996,83.2133351 57.668,83.5786648 57.668,83.952 Z M66.02,79.728 L67.748,79.728 L67.748,80.88 L67.796,80.88 C67.9346674,80.6773323 68.0839992,80.4906675 68.244,80.32 C68.4040008,80.1493325 68.5826657,80.0053339 68.78,79.888 C68.9773343,79.7706661 69.2039987,79.6773337 69.46,79.608 C69.7160013,79.5386663 70.0093317,79.504 70.34,79.504 C70.8413358,79.504 71.3079978,79.6159989 71.74,79.84 C72.1720022,80.0640011 72.4786658,80.4106643 72.66,80.88 C72.9693349,80.4533312 73.3266646,80.1173346 73.732,79.872 C74.1373354,79.6266654 74.643997,79.504 75.252,79.504 C76.126671,79.504 76.8066642,79.7173312 77.292,80.144 C77.7773358,80.5706688 78.02,81.2853283 78.02,82.288 L78.02,88 L76.196,88 L76.196,83.168 C76.196,82.8373317 76.1853334,82.5360014 76.164,82.264 C76.1426666,81.9919986 76.0813338,81.7573343 75.98,81.56 C75.8786662,81.3626657 75.7266677,81.2106672 75.524,81.104 C75.3213323,80.9973328 75.0440018,80.944 74.692,80.944 C74.0733302,80.944 73.6253347,81.1359981 73.348,81.52 C73.0706653,81.9040019 72.932,82.4479965 72.932,83.152 L72.932,88 L71.108,88 L71.108,82.688 C71.108,82.1119971 71.004001,81.6773348 70.796,81.384 C70.587999,81.0906652 70.2066694,80.944 69.652,80.944 C69.4173322,80.944 69.1906678,80.9919995 68.972,81.088 C68.7533322,81.1840005 68.5613342,81.3226658 68.396,81.504 C68.2306658,81.6853342 68.0973338,81.909332 67.996,82.176 C67.8946662,82.442668 67.844,82.746665 67.844,83.088 L67.844,88 L66.02,88 L66.02,79.728 Z M79.988,76.576 L81.812,76.576 L81.812,78.304 L79.988,78.304 L79.988,76.576 Z M79.988,79.728 L81.812,79.728 L81.812,88 L79.988,88 L79.988,79.728 Z M83.796,79.728 L85.524,79.728 L85.524,80.944 L85.556,80.976 C85.8333347,80.517331 86.1959978,80.1573346 86.644,79.896 C87.0920022,79.6346654 87.5879973,79.504 88.132,79.504 C89.0386712,79.504 89.7533307,79.7386643 90.276,80.208 C90.7986693,80.6773357 91.06,81.3813286 91.06,82.32 L91.06,88 L89.236,88 L89.236,82.8 C89.2146666,82.1493301 89.0760013,81.6773348 88.82,81.384 C88.5639987,81.0906652 88.1640027,80.944 87.62,80.944 C87.3106651,80.944 87.0333346,80.9999994 86.788,81.112 C86.5426654,81.2240006 86.3346675,81.3786657 86.164,81.576 C85.9933325,81.7733343 85.8600005,82.005332 85.764,82.272 C85.6679995,82.538668 85.62,82.8213318 85.62,83.12 L85.62,88 L83.796,88 L83.796,79.728 Z" id="CLI-Admin" fill="#4A4A4A"></path>
                    <g id="tctl" stroke-width="1">
                        <g id="Rectangle-4-Copy-3">
                            <use fill="#4A4A4A" fill-rule="evenodd" xlink:href="#path-6"></use>
                            <rect stroke="#4A4A4A" stroke-width="0.5" x="0.25" y="0.25" width="105.5" height="62.5"></rect>
                        </g>
                        <rect id="Rectangle-18-Copy" fill="#D8D8D8" x="0" y="0" width="106" height="8"></rect>
                        <circle id="Oval-Copy-3" fill="#4A4A4A" cx="24" cy="4" r="3"></circle>
                        <circle id="Oval-Copy-4" fill="#4A4A4A" cx="15" cy="4" r="3"></circle>
                        <circle id="Oval-Copy-5" fill="#4A4A4A" cx="7" cy="4" r="3"></circle>
                        <rect id="Rectangle-19-Copy" fill="#4A4A4A" x="14" y="43" width="26" height="8"></rect>
                        <path d="M14.3037109,32.8671875 L8.46777344,29.6328125 C8.17480322,29.4687492 7.97998095,29.3222663 7.88330078,29.1933594 C7.78662061,29.0644525 7.73828125,28.9003916 7.73828125,28.7011719 C7.73828125,28.4492175 7.82910065,28.2324228 8.01074219,28.0507812 C8.19238372,27.8691397 8.40624877,27.7783203 8.65234375,27.7783203 C8.80468826,27.7783203 9.03906092,27.8632804 9.35546875,28.0332031 L18.0478516,32.8671875 L9.35546875,37.7011719 C9.03906092,37.876954 8.80468826,37.9648438 8.65234375,37.9648438 C8.40624877,37.9648438 8.19238372,37.8740243 8.01074219,37.6923828 C7.82910065,37.5107413 7.73828125,37.2910169 7.73828125,37.0332031 C7.73828125,36.8339834 7.78662061,36.6699225 7.88330078,36.5410156 C7.97998095,36.4121087 8.17480322,36.2656258 8.46777344,36.1015625 L14.3037109,32.8671875 Z M33.5605469,31.8212891 L33.5605469,35.4335938 C33.5605469,35.8203144 33.6396476,36.0751947 33.7978516,36.1982422 C34.0439465,36.3916025 34.4833953,36.4882812 35.1162109,36.4882812 C36.0361374,36.4882812 36.8857383,36.2919942 37.6650391,35.8994141 C37.9638687,35.7470696 38.1982413,35.6708984 38.3681641,35.6708984 C38.6025402,35.6708984 38.8061515,35.7587882 38.9790039,35.9345703 C39.1518563,36.1103524 39.2382812,36.3242175 39.2382812,36.5761719 C39.2382812,36.810548 39.1445322,37.0126945 38.9570312,37.1826172 C38.6699204,37.4580092 38.1030316,37.7114246 37.2563477,37.9428711 C36.4096637,38.1743176 35.696292,38.2900391 35.1162109,38.2900391 C33.9970647,38.2900391 33.1577176,38.0483423 32.5981445,37.5649414 C32.0385714,37.0815406 31.7587891,36.4882848 31.7587891,35.7851562 L31.7587891,31.8212891 L31.1083984,31.8212891 C30.6748025,31.8212891 30.3657236,31.7377938 30.1811523,31.5708008 C29.9965811,31.4038078 29.9042969,31.1855482 29.9042969,30.9160156 C29.9042969,30.6523424 29.9965811,30.4370126 30.1811523,30.2700195 C30.3657236,30.1030265 30.6748025,30.0195312 31.1083984,30.0195312 L31.7587891,30.0195312 L31.7587891,28.3935547 C31.7587891,27.9599588 31.8422843,27.6508798 32.0092773,27.4663086 C32.1762704,27.2817374 32.3945299,27.1894531 32.6640625,27.1894531 C32.9277357,27.1894531 33.1430656,27.2817374 33.3100586,27.4663086 C33.4770516,27.6508798 33.5605469,27.9599588 33.5605469,28.3935547 L33.5605469,30.0195312 L36.8916016,30.0195312 C37.3251975,30.0195312 37.6342764,30.1030265 37.8188477,30.2700195 C38.0034189,30.4370126 38.0957031,30.6552721 38.0957031,30.9248047 C38.0957031,31.1884779 38.0034189,31.4038078 37.8188477,31.5708008 C37.6342764,31.7377938 37.3251975,31.8212891 36.8916016,31.8212891 L33.5605469,31.8212891 Z M47.6142578,30.3447266 C47.8310558,30.1396474 48.0537098,30.0371094 48.2822266,30.0371094 C48.5400404,30.0371094 48.7524406,30.1293936 48.9194336,30.3139648 C49.0864266,30.4985361 49.1699219,30.8046854 49.1699219,31.2324219 L49.1699219,32.3925781 C49.1699219,32.826174 49.0864266,33.1337882 48.9194336,33.3154297 C48.7524406,33.4970712 48.534181,33.5878906 48.2646484,33.5878906 C48.0185535,33.5878906 47.8105477,33.5175788 47.640625,33.3769531 C47.5175775,33.2714838 47.4208988,33.056154 47.3505859,32.730957 C47.2802731,32.4057601 47.1103529,32.1640633 46.8408203,32.0058594 C46.3662086,31.724608 45.7597693,31.5839844 45.0214844,31.5839844 C44.1718708,31.5839844 43.4907252,31.8330053 42.9780273,32.3310547 C42.4653295,32.8291041 42.2089844,33.4589806 42.2089844,34.2207031 C42.2089844,34.9238316 42.4550757,35.4790019 42.9472656,35.8862305 C43.4394556,36.2934591 44.2568302,36.4970703 45.3994141,36.4970703 C46.1494178,36.4970703 46.7617164,36.4208992 47.2363281,36.2685547 C47.5175795,36.1748042 47.7841784,36.0151378 48.0361328,35.7895508 C48.2880872,35.5639637 48.5166005,35.4511719 48.7216797,35.4511719 C48.9677747,35.4511719 49.1801749,35.5419913 49.3588867,35.7236328 C49.5375985,35.9052743 49.6269531,36.1191394 49.6269531,36.3652344 C49.6269531,36.7636739 49.3544949,37.1415998 48.8095703,37.4990234 C48.0009725,38.0322292 46.8173906,38.2988281 45.2587891,38.2988281 C43.8583914,38.2988281 42.7685586,38.008792 41.9892578,37.4287109 C40.934565,36.6494102 40.4072266,35.5830146 40.4072266,34.2294922 C40.4072266,32.9462826 40.8349567,31.8842815 41.6904297,31.043457 C42.5459027,30.2026325 43.6621025,29.7822266 45.0390625,29.7822266 C45.5371119,29.7822266 45.9999979,29.8291011 46.4277344,29.9228516 C46.8554709,30.016602 47.2509747,30.1572256 47.6142578,30.3447266 Z M55.1640625,31.8212891 L55.1640625,35.4335938 C55.1640625,35.8203144 55.2431633,36.0751947 55.4013672,36.1982422 C55.6474622,36.3916025 56.0869109,36.4882812 56.7197266,36.4882812 C57.639653,36.4882812 58.4892539,36.2919942 59.2685547,35.8994141 C59.5673843,35.7470696 59.801757,35.6708984 59.9716797,35.6708984 C60.2060559,35.6708984 60.4096671,35.7587882 60.5825195,35.9345703 C60.755372,36.1103524 60.8417969,36.3242175 60.8417969,36.5761719 C60.8417969,36.810548 60.7480478,37.0126945 60.5605469,37.1826172 C60.2734361,37.4580092 59.7065472,37.7114246 58.8598633,37.9428711 C58.0131794,38.1743176 57.2998076,38.2900391 56.7197266,38.2900391 C55.6005803,38.2900391 54.7612333,38.0483423 54.2016602,37.5649414 C53.642087,37.0815406 53.3623047,36.4882848 53.3623047,35.7851562 L53.3623047,31.8212891 L52.7119141,31.8212891 C52.2783181,31.8212891 51.9692392,31.7377938 51.784668,31.5708008 C51.6000967,31.4038078 51.5078125,31.1855482 51.5078125,30.9160156 C51.5078125,30.6523424 51.6000967,30.4370126 51.784668,30.2700195 C51.9692392,30.1030265 52.2783181,30.0195312 52.7119141,30.0195312 L53.3623047,30.0195312 L53.3623047,28.3935547 C53.3623047,27.9599588 53.4457999,27.6508798 53.612793,27.4663086 C53.779786,27.2817374 53.9980455,27.1894531 54.2675781,27.1894531 C54.5312513,27.1894531 54.7465812,27.2817374 54.9135742,27.4663086 C55.0805672,27.6508798 55.1640625,27.9599588 55.1640625,28.3935547 L55.1640625,30.0195312 L58.4951172,30.0195312 C58.9287131,30.0195312 59.237792,30.1030265 59.4223633,30.2700195 C59.6069345,30.4370126 59.6992188,30.6552721 59.6992188,30.9248047 C59.6992188,31.1884779 59.6069345,31.4038078 59.4223633,31.5708008 C59.237792,31.7377938 58.9287131,31.8212891 58.4951172,31.8212891 L55.1640625,31.8212891 Z M67.3105469,26.6005859 L67.3105469,36.1982422 L69.4726562,36.1982422 C69.9062522,36.1982422 70.2153311,36.2817374 70.3999023,36.4487305 C70.5844736,36.6157235 70.6767578,36.833983 70.6767578,37.1035156 C70.6767578,37.3671888 70.5844736,37.5825187 70.3999023,37.7495117 C70.2153311,37.9165047 69.9062522,38 69.4726562,38 L63.3466797,38 C62.9130838,38 62.6040048,37.9165047 62.4194336,37.7495117 C62.2348624,37.5825187 62.1425781,37.3642592 62.1425781,37.0947266 C62.1425781,36.8310534 62.2348624,36.6157235 62.4194336,36.4487305 C62.6040048,36.2817374 62.9130838,36.1982422 63.3466797,36.1982422 L65.5087891,36.1982422 L65.5087891,28.4023438 L64.0585938,28.4023438 C63.6308572,28.4023438 63.3232431,28.3188485 63.1357422,28.1518555 C62.9482413,27.9848624 62.8544922,27.7666029 62.8544922,27.4970703 C62.8544922,27.2333971 62.9467764,27.0180672 63.1313477,26.8510742 C63.3159189,26.6840812 63.6249978,26.6005859 64.0585938,26.6005859 L67.3105469,26.6005859 Z" id="&gt;-tctl" fill="#FFFFFF"></path>
                    </g>
                </g>
            </g>
            <g id="auth-service" filter="url(#filter-7)" transform="translate(26.000000, 27.000000)">
                <g id="teleport-auth">
                    <g id="Rectangle-17">
                        <use fill="#FFFFFF" fill-rule="evenodd" xlink:href="#path-8"></use>
                        <rect stroke="#E1584E" stroke-width="3" x="1.5" y="1.5" width="204" height="67" rx="10"></rect>
                    </g>
                    <path d="M52.785,28 L62.35668,28 L62.35668,29.728 L58.59756,29.728 L58.59756,39.424 L56.52756,39.424 L56.52756,29.728 L52.785,29.728 L52.785,28 Z M67.50684,34.56 C67.4847599,34.2719986 67.4212805,33.994668 67.3164,33.728 C67.2115195,33.461332 67.0680009,33.2293343 66.88584,33.032 C66.7036791,32.8346657 66.4828813,32.6746673 66.22344,32.552 C65.9639987,32.4293327 65.6742016,32.368 65.35404,32.368 C65.0228383,32.368 64.7220014,32.4239994 64.45152,32.536 C64.1810386,32.6480006 63.949201,32.8026657 63.756,33 C63.562799,33.1973343 63.4082406,33.429332 63.29232,33.696 C63.1763994,33.962668 63.1129201,34.2506651 63.10188,34.56 L67.50684,34.56 Z M63.10188,35.76 C63.10188,36.0800016 63.1487995,36.3893318 63.24264,36.688 C63.3364805,36.9866682 63.4772391,37.2479989 63.66492,37.472 C63.8526009,37.6960011 64.0899586,37.874666 64.377,38.008 C64.6640414,38.141334 65.006278,38.208 65.40372,38.208 C65.9557228,38.208 66.4000783,38.0933345 66.7368,37.864 C67.0735217,37.6346655 67.3246792,37.290669 67.49028,36.832 L69.27876,36.832 C69.1793995,37.2800022 69.0082812,37.6799982 68.7654,38.032 C68.5225188,38.3840018 68.2299617,38.6799988 67.88772,38.92 C67.5454783,39.1600012 67.1618421,39.3413327 66.7368,39.464 C66.3117579,39.5866673 65.8674023,39.648 65.40372,39.648 C64.7302766,39.648 64.1341226,39.5413344 63.61524,39.328 C63.0963574,39.1146656 62.6575218,38.8160019 62.29872,38.432 C61.9399182,38.0479981 61.6694409,37.589336 61.48728,37.056 C61.3051191,36.522664 61.21404,35.9360032 61.21404,35.296 C61.21404,34.7093304 61.310639,34.1520026 61.50384,33.624 C61.697041,33.0959974 61.9730382,32.632002 62.33184,32.232 C62.6906418,31.831998 63.1239575,31.5146678 63.6318,31.28 C64.1396425,31.0453322 64.7137168,30.928 65.35404,30.928 C66.0274834,30.928 66.6319173,31.0639986 67.16736,31.336 C67.7028027,31.6080014 68.1471582,31.9679978 68.50044,32.416 C68.8537218,32.8640022 69.1103992,33.3786638 69.27048,33.96 C69.4305608,34.5413362 69.4719604,35.1413302 69.39468,35.76 L63.10188,35.76 Z M70.88508,28 L72.77292,28 L72.77292,39.424 L70.88508,39.424 L70.88508,28 Z M80.70516,34.56 C80.6830799,34.2719986 80.6196005,33.994668 80.51472,33.728 C80.4098395,33.461332 80.2663209,33.2293343 80.08416,33.032 C79.9019991,32.8346657 79.6812013,32.6746673 79.42176,32.552 C79.1623187,32.4293327 78.8725216,32.368 78.55236,32.368 C78.2211583,32.368 77.9203214,32.4239994 77.64984,32.536 C77.3793586,32.6480006 77.147521,32.8026657 76.95432,33 C76.761119,33.1973343 76.6065606,33.429332 76.49064,33.696 C76.3747194,33.962668 76.3112401,34.2506651 76.3002,34.56 L80.70516,34.56 Z M76.3002,35.76 C76.3002,36.0800016 76.3471195,36.3893318 76.44096,36.688 C76.5348005,36.9866682 76.6755591,37.2479989 76.86324,37.472 C77.0509209,37.6960011 77.2882786,37.874666 77.57532,38.008 C77.8623614,38.141334 78.204598,38.208 78.60204,38.208 C79.1540428,38.208 79.5983983,38.0933345 79.93512,37.864 C80.2718417,37.6346655 80.5229992,37.290669 80.6886,36.832 L82.47708,36.832 C82.3777195,37.2800022 82.2066012,37.6799982 81.96372,38.032 C81.7208388,38.3840018 81.4282817,38.6799988 81.08604,38.92 C80.7437983,39.1600012 80.3601621,39.3413327 79.93512,39.464 C79.5100779,39.5866673 79.0657223,39.648 78.60204,39.648 C77.9285966,39.648 77.3324426,39.5413344 76.81356,39.328 C76.2946774,39.1146656 75.8558418,38.8160019 75.49704,38.432 C75.1382382,38.0479981 74.8677609,37.589336 74.6856,37.056 C74.5034391,36.522664 74.41236,35.9360032 74.41236,35.296 C74.41236,34.7093304 74.508959,34.1520026 74.70216,33.624 C74.895361,33.0959974 75.1713582,32.632002 75.53016,32.232 C75.8889618,31.831998 76.3222775,31.5146678 76.83012,31.28 C77.3379625,31.0453322 77.9120368,30.928 78.55236,30.928 C79.2258034,30.928 79.8302373,31.0639986 80.36568,31.336 C80.9011227,31.6080014 81.3454782,31.9679978 81.69876,32.416 C82.0520418,32.8640022 82.3087192,33.3786638 82.4688,33.96 C82.6288808,34.5413362 82.6702804,35.1413302 82.593,35.76 L76.3002,35.76 Z M84.0834,31.152 L85.87188,31.152 L85.87188,32.272 L85.905,32.272 C86.1699613,31.7919976 86.5397976,31.448001 87.01452,31.24 C87.4892424,31.031999 88.0025972,30.928 88.5546,30.928 C89.2280434,30.928 89.8159175,31.0426655 90.31824,31.272 C90.8205625,31.5013345 91.2373183,31.815998 91.56852,32.216 C91.8997217,32.616002 92.1481192,33.082664 92.31372,33.616 C92.4793208,34.149336 92.56212,34.719997 92.56212,35.328 C92.56212,35.8826694 92.4876007,36.4213307 92.33856,36.944 C92.1895193,37.4666693 91.9632015,37.927998 91.6596,38.328 C91.3559985,38.728002 90.9723623,39.0479988 90.50868,39.288 C90.0449977,39.5280012 89.4985231,39.648 88.86924,39.648 C88.5932386,39.648 88.3172414,39.6240002 88.04124,39.576 C87.7652386,39.5279998 87.5002813,39.4506672 87.24636,39.344 C86.9924387,39.2373328 86.7578411,39.1013342 86.54256,38.936 C86.3272789,38.7706658 86.1478807,38.5760011 86.00436,38.352 L85.97124,38.352 L85.97124,42.48 L84.0834,42.48 L84.0834,31.152 Z M90.67428,35.296 C90.67428,34.9226648 90.6246005,34.5600018 90.52524,34.208 C90.4258795,33.8559982 90.276841,33.5440014 90.07812,33.272 C89.879399,32.9999986 89.6310015,32.7813342 89.33292,32.616 C89.0348385,32.4506658 88.6926019,32.368 88.3062,32.368 C87.511316,32.368 86.912402,32.634664 86.50944,33.168 C86.106478,33.701336 85.905,34.4106622 85.905,35.296 C85.905,35.7120021 85.9574395,36.0986649 86.06232,36.456 C86.1672005,36.8133351 86.324519,37.1199987 86.53428,37.376 C86.744041,37.6320013 86.9951985,37.8346659 87.28776,37.984 C87.5803215,38.1333341 87.9197981,38.208 88.3062,38.208 C88.7367622,38.208 89.1010785,38.1226675 89.39916,37.952 C89.6972415,37.7813325 89.942879,37.5600014 90.13608,37.288 C90.329281,37.0159986 90.4672796,36.7066684 90.55008,36.36 C90.6328804,36.0133316 90.67428,35.6586685 90.67428,35.296 Z M98.0766,39.648 C97.3921166,39.648 96.7821627,39.5386678 96.24672,39.32 C95.7112773,39.1013322 95.2586418,38.8000019 94.8888,38.416 C94.5189582,38.0319981 94.237441,37.573336 94.04424,37.04 C93.851039,36.506664 93.75444,35.9200032 93.75444,35.28 C93.75444,34.6506635 93.851039,34.069336 94.04424,33.536 C94.237441,33.002664 94.5189582,32.5440019 94.8888,32.16 C95.2586418,31.7759981 95.7112773,31.4746678 96.24672,31.256 C96.7821627,31.0373322 97.3921166,30.928 98.0766,30.928 C98.7610834,30.928 99.3710373,31.0373322 99.90648,31.256 C100.441923,31.4746678 100.894558,31.7759981 101.2644,32.16 C101.634242,32.5440019 101.915759,33.002664 102.10896,33.536 C102.302161,34.069336 102.39876,34.6506635 102.39876,35.28 C102.39876,35.9200032 102.302161,36.506664 102.10896,37.04 C101.915759,37.573336 101.634242,38.0319981 101.2644,38.416 C100.894558,38.8000019 100.441923,39.1013322 99.90648,39.32 C99.3710373,39.5386678 98.7610834,39.648 98.0766,39.648 Z M98.0766,38.208 C98.4961221,38.208 98.8604385,38.1226675 99.16956,37.952 C99.4786815,37.7813325 99.732599,37.5573347 99.93132,37.28 C100.130041,37.0026653 100.27632,36.6906684 100.37016,36.344 C100.464,35.9973316 100.51092,35.6426685 100.51092,35.28 C100.51092,34.9279982 100.464,34.5760018 100.37016,34.224 C100.27632,33.8719982 100.130041,33.5600014 99.93132,33.288 C99.732599,33.0159986 99.4786815,32.7946675 99.16956,32.624 C98.8604385,32.4533325 98.4961221,32.368 98.0766,32.368 C97.6570779,32.368 97.2927615,32.4533325 96.98364,32.624 C96.6745185,32.7946675 96.420601,33.0159986 96.22188,33.288 C96.023159,33.5600014 95.8768805,33.8719982 95.78304,34.224 C95.6891995,34.5760018 95.64228,34.9279982 95.64228,35.28 C95.64228,35.6426685 95.6891995,35.9973316 95.78304,36.344 C95.8768805,36.6906684 96.023159,37.0026653 96.22188,37.28 C96.420601,37.5573347 96.6745185,37.7813325 96.98364,37.952 C97.2927615,38.1226675 97.6570779,38.208 98.0766,38.208 Z M103.97196,31.152 L105.74388,31.152 L105.74388,32.752 L105.777,32.752 C105.8322,32.5279989 105.939839,32.3093344 106.09992,32.096 C106.260001,31.8826656 106.453199,31.6880009 106.67952,31.512 C106.905841,31.3359991 107.156999,31.1946672 107.433,31.088 C107.709001,30.9813328 107.990519,30.928 108.27756,30.928 C108.498361,30.928 108.65016,30.9333333 108.73296,30.944 C108.81576,30.9546667 108.90132,30.9653333 108.98964,30.976 L108.98964,32.736 C108.857159,32.7146666 108.721921,32.6960001 108.58392,32.68 C108.445919,32.6639999 108.310681,32.656 108.1782,32.656 C107.858038,32.656 107.557201,32.7173327 107.27568,32.84 C106.994159,32.9626673 106.748521,33.1439988 106.53876,33.384 C106.328999,33.6240012 106.163401,33.9199982 106.04196,34.272 C105.920519,34.6240018 105.8598,35.029331 105.8598,35.488 L105.8598,39.424 L103.97196,39.424 L103.97196,31.152 Z M108.93996,31.152 L110.36412,31.152 L110.36412,28.672 L112.25196,28.672 L112.25196,31.152 L113.95764,31.152 L113.95764,32.512 L112.25196,32.512 L112.25196,36.928 C112.25196,37.120001 112.26024,37.2853326 112.2768,37.424 C112.29336,37.5626674 112.332,37.6799995 112.39272,37.776 C112.45344,37.8720005 112.544519,37.9439998 112.66596,37.992 C112.787401,38.0400002 112.952999,38.064 113.16276,38.064 C113.295241,38.064 113.427719,38.0613334 113.5602,38.056 C113.692681,38.0506666 113.825159,38.0320002 113.95764,38 L113.95764,39.408 C113.747879,39.4293334 113.543641,39.4506666 113.34492,39.472 C113.146199,39.4933334 112.941961,39.504 112.7322,39.504 C112.235398,39.504 111.835202,39.4586671 111.5316,39.368 C111.227998,39.2773329 110.990641,39.1440009 110.81952,38.968 C110.648399,38.7919991 110.53248,38.570668 110.47176,38.304 C110.41104,38.037332 110.37516,37.733335 110.36412,37.392 L110.36412,32.512 L108.93996,32.512 L108.93996,31.152 Z M123.34716,28 L125.54964,28 L130.10364,39.424 L127.8846,39.424 L126.77508,36.4 L122.05548,36.4 L120.94596,39.424 L118.80972,39.424 L123.34716,28 Z M122.61852,34.88 L126.2286,34.88 L124.45668,29.968 L124.407,29.968 L122.61852,34.88 Z M138.483,39.424 L136.62828,39.424 L136.62828,38.272 L136.59516,38.272 C136.363319,38.6880021 136.018322,39.0213321 135.56016,39.272 C135.101998,39.5226679 134.635562,39.648 134.16084,39.648 C133.034754,39.648 132.220563,39.3786694 131.71824,38.84 C131.215917,38.3013306 130.96476,37.4880054 130.96476,36.4 L130.96476,31.152 L132.8526,31.152 L132.8526,36.224 C132.8526,36.949337 132.996119,37.4613318 133.28316,37.76 C133.570201,38.0586682 133.973157,38.208 134.49204,38.208 C134.889482,38.208 135.220679,38.1493339 135.48564,38.032 C135.750601,37.9146661 135.965879,37.7573343 136.13148,37.56 C136.297081,37.3626657 136.41576,37.1253347 136.48752,36.848 C136.55928,36.5706653 136.59516,36.2720016 136.59516,35.952 L136.59516,31.152 L138.483,31.152 L138.483,39.424 Z M139.60908,31.152 L141.03324,31.152 L141.03324,28.672 L142.92108,28.672 L142.92108,31.152 L144.62676,31.152 L144.62676,32.512 L142.92108,32.512 L142.92108,36.928 C142.92108,37.120001 142.92936,37.2853326 142.94592,37.424 C142.96248,37.5626674 143.00112,37.6799995 143.06184,37.776 C143.12256,37.8720005 143.213639,37.9439998 143.33508,37.992 C143.456521,38.0400002 143.622119,38.064 143.83188,38.064 C143.964361,38.064 144.096839,38.0613334 144.22932,38.056 C144.361801,38.0506666 144.494279,38.0320002 144.62676,38 L144.62676,39.408 C144.416999,39.4293334 144.212761,39.4506666 144.01404,39.472 C143.815319,39.4933334 143.611081,39.504 143.40132,39.504 C142.904518,39.504 142.504322,39.4586671 142.20072,39.368 C141.897118,39.2773329 141.659761,39.1440009 141.48864,38.968 C141.317519,38.7919991 141.2016,38.570668 141.14088,38.304 C141.08016,38.037332 141.04428,37.733335 141.03324,37.392 L141.03324,32.512 L139.60908,32.512 L139.60908,31.152 Z M145.98468,28 L147.87252,28 L147.87252,32.24 L147.90564,32.24 C148.137481,31.8666648 148.482478,31.5546679 148.94064,31.304 C149.398802,31.0533321 149.909397,30.928 150.47244,30.928 C151.410845,30.928 152.150517,31.1626643 152.69148,31.632 C153.232443,32.1013357 153.50292,32.8053286 153.50292,33.744 L153.50292,39.424 L151.61508,39.424 L151.61508,34.224 C151.593,33.5733301 151.449481,33.1013348 151.18452,32.808 C150.919559,32.5146652 150.505563,32.368 149.94252,32.368 C149.622358,32.368 149.335321,32.4239994 149.0814,32.536 C148.827479,32.6480006 148.612201,32.8026657 148.43556,33 C148.258919,33.1973343 148.12092,33.429332 148.02156,33.696 C147.9222,33.962668 147.87252,34.2453318 147.87252,34.544 L147.87252,39.424 L145.98468,39.424 L145.98468,28 Z" id="Teleport-Auth" fill="#4A4A4A" fill-rule="evenodd"></path>
                </g>
            </g>
            <path d="M141,383.5 L141,97.476122" id="Line-Copy-2" stroke="#9B9B9B" fill="#9B9B9B" stroke-linecap="square"></path>
            <path id="Line-Copy-2-decoration-1" d="M141,97.476122 L138,108.276122 L144,108.276122 L141,97.476122 Z" stroke="#9B9B9B" fill="#9B9B9B" stroke-linecap="square"></path>
            <path d="M78.794,329 L78.794,319.074 L77.884,319.074 C77.8186663,319.447335 77.6973342,319.755332 77.52,319.998 C77.3426658,320.240668 77.1256679,320.431999 76.869,320.572 C76.612332,320.712001 76.3253349,320.807666 76.008,320.859 C75.6906651,320.910334 75.3640017,320.936 75.028,320.936 L75.028,321.888 L77.604,321.888 L77.604,329 L78.794,329 Z M82.21,322.588 L83.4,322.588 C83.3906666,322.289332 83.4209996,321.993001 83.491,321.699 C83.5610004,321.404999 83.6753325,321.141334 83.834,320.908 C83.9926675,320.674666 84.1956654,320.485667 84.443,320.341 C84.6903346,320.196333 84.9866649,320.124 85.332,320.124 C85.5933346,320.124 85.8406655,320.166 86.074,320.25 C86.3073345,320.334 86.5103325,320.455333 86.683,320.614 C86.8556675,320.772667 86.9933328,320.961666 87.096,321.181 C87.1986672,321.400334 87.25,321.645332 87.25,321.916 C87.25,322.261335 87.1963339,322.564665 87.089,322.826 C86.9816661,323.087335 86.8230011,323.329999 86.613,323.554 C86.4029989,323.778001 86.1393349,323.999666 85.822,324.219 C85.5046651,324.438334 85.1360021,324.678665 84.716,324.94 C84.3706649,325.145334 84.0393349,325.364666 83.722,325.598 C83.4046651,325.831335 83.1200013,326.101998 82.868,326.41 C82.6159987,326.718002 82.4083342,327.079665 82.245,327.495 C82.0816658,327.910335 81.9766669,328.411997 81.93,329 L88.412,329 L88.412,327.95 L83.316,327.95 C83.3720003,327.641998 83.4909991,327.369001 83.673,327.131 C83.8550009,326.892999 84.074332,326.671334 84.331,326.466 C84.5876679,326.260666 84.8699985,326.067001 85.178,325.885 C85.4860015,325.702999 85.7939985,325.518668 86.102,325.332 C86.4100015,325.135999 86.7086652,324.930668 86.998,324.716 C87.2873348,324.501332 87.5439989,324.261001 87.768,323.995 C87.9920011,323.728999 88.171666,323.428002 88.307,323.092 C88.442334,322.755998 88.51,322.368669 88.51,321.93 C88.51,321.463331 88.4283341,321.052668 88.265,320.698 C88.1016658,320.343332 87.8800014,320.047001 87.6,319.809 C87.3199986,319.570999 86.9910019,319.389001 86.613,319.263 C86.2349981,319.136999 85.8313355,319.074 85.402,319.074 C84.8793307,319.074 84.4126687,319.162666 84.002,319.34 C83.5913313,319.517334 83.2483347,319.762332 82.973,320.075 C82.6976653,320.387668 82.4946673,320.758665 82.364,321.188 C82.2333327,321.617335 82.1819999,322.083997 82.21,322.588 Z M96.504,320.264 L96.504,319.242 L90.078,319.242 L90.078,320.362 L95.286,320.362 C94.7633307,320.912669 94.2756689,321.514663 93.823,322.168 C93.3703311,322.821337 92.9713351,323.51433 92.626,324.247 C92.2806649,324.97967 91.9983344,325.744996 91.779,326.543 C91.5596656,327.341004 91.4220003,328.159996 91.366,329 L92.696,329 C92.7426669,328.225329 92.8733323,327.427337 93.088,326.606 C93.3026677,325.784663 93.5803316,324.986671 93.921,324.212 C94.2616684,323.437329 94.6513311,322.709337 95.09,322.028 C95.5286689,321.346663 95.9999975,320.758669 96.504,320.264 Z M98.324,327.446 L98.324,329 L99.878,329 L99.878,327.446 L98.324,327.446 Z M102.902,324.114 C102.902,324.487335 102.913667,324.904998 102.937,325.367 C102.960333,325.829002 103.034999,326.262998 103.161,326.669 C103.287001,327.075002 103.489999,327.417999 103.77,327.698 C104.050001,327.978001 104.441997,328.118 104.946,328.118 C105.450003,328.118 105.841999,327.978001 106.122,327.698 C106.402001,327.417999 106.604999,327.075002 106.731,326.669 C106.857001,326.262998 106.931667,325.829002 106.955,325.367 C106.978333,324.904998 106.99,324.487335 106.99,324.114 C106.99,323.871332 106.987667,323.603001 106.983,323.309 C106.978333,323.014999 106.955,322.721001 106.913,322.427 C106.871,322.132999 106.810334,321.846001 106.731,321.566 C106.651666,321.285999 106.535001,321.041001 106.381,320.831 C106.226999,320.620999 106.033334,320.450667 105.8,320.32 C105.566665,320.189333 105.282002,320.124 104.946,320.124 C104.609998,320.124 104.325334,320.189333 104.092,320.32 C103.858666,320.450667 103.665001,320.620999 103.511,320.831 C103.356999,321.041001 103.240334,321.285999 103.161,321.566 C103.081666,321.846001 103.021,322.132999 102.979,322.427 C102.937,322.721001 102.913667,323.014999 102.909,323.309 C102.904333,323.603001 102.902,323.871332 102.902,324.114 Z M101.642,324.128 C101.642,323.763998 101.651333,323.386002 101.67,322.994 C101.688667,322.601998 101.735333,322.219335 101.81,321.846 C101.884667,321.472665 101.991999,321.118002 102.132,320.782 C102.272001,320.445998 102.463332,320.152001 102.706,319.9 C102.948668,319.647999 103.254331,319.447334 103.623,319.298 C103.991669,319.148666 104.432664,319.074 104.946,319.074 C105.459336,319.074 105.900331,319.148666 106.269,319.298 C106.637669,319.447334 106.943332,319.647999 107.186,319.9 C107.428668,320.152001 107.619999,320.445998 107.76,320.782 C107.900001,321.118002 108.007333,321.472665 108.082,321.846 C108.156667,322.219335 108.203333,322.601998 108.222,322.994 C108.240667,323.386002 108.25,323.763998 108.25,324.128 C108.25,324.492002 108.240667,324.869998 108.222,325.262 C108.203333,325.654002 108.156667,326.036665 108.082,326.41 C108.007333,326.783335 107.900001,327.135665 107.76,327.467 C107.619999,327.798335 107.428668,328.089999 107.186,328.342 C106.943332,328.594001 106.640002,328.792333 106.276,328.937 C105.911998,329.081667 105.468669,329.154 104.946,329.154 C104.432664,329.154 103.991669,329.081667 103.623,328.937 C103.254331,328.792333 102.948668,328.594001 102.706,328.342 C102.463332,328.089999 102.272001,327.798335 102.132,327.467 C101.991999,327.135665 101.884667,326.783335 101.81,326.41 C101.735333,326.036665 101.688667,325.654002 101.67,325.262 C101.651333,324.869998 101.642,324.492002 101.642,324.128 Z M110,327.446 L110,329 L111.554,329 L111.554,327.446 L110,327.446 Z M114.578,324.114 C114.578,324.487335 114.589667,324.904998 114.613,325.367 C114.636333,325.829002 114.710999,326.262998 114.837,326.669 C114.963001,327.075002 115.165999,327.417999 115.446,327.698 C115.726001,327.978001 116.117997,328.118 116.622,328.118 C117.126003,328.118 117.517999,327.978001 117.798,327.698 C118.078001,327.417999 118.280999,327.075002 118.407,326.669 C118.533001,326.262998 118.607667,325.829002 118.631,325.367 C118.654333,324.904998 118.666,324.487335 118.666,324.114 C118.666,323.871332 118.663667,323.603001 118.659,323.309 C118.654333,323.014999 118.631,322.721001 118.589,322.427 C118.547,322.132999 118.486334,321.846001 118.407,321.566 C118.327666,321.285999 118.211001,321.041001 118.057,320.831 C117.902999,320.620999 117.709334,320.450667 117.476,320.32 C117.242665,320.189333 116.958002,320.124 116.622,320.124 C116.285998,320.124 116.001334,320.189333 115.768,320.32 C115.534665,320.450667 115.341001,320.620999 115.187,320.831 C115.032999,321.041001 114.916334,321.285999 114.837,321.566 C114.757666,321.846001 114.697,322.132999 114.655,322.427 C114.613,322.721001 114.589667,323.014999 114.585,323.309 C114.580333,323.603001 114.578,323.871332 114.578,324.114 Z M113.318,324.128 C113.318,323.763998 113.327333,323.386002 113.346,322.994 C113.364667,322.601998 113.411333,322.219335 113.486,321.846 C113.560667,321.472665 113.667999,321.118002 113.808,320.782 C113.948001,320.445998 114.139332,320.152001 114.382,319.9 C114.624668,319.647999 114.930331,319.447334 115.299,319.298 C115.667669,319.148666 116.108664,319.074 116.622,319.074 C117.135336,319.074 117.576331,319.148666 117.945,319.298 C118.313669,319.447334 118.619332,319.647999 118.862,319.9 C119.104668,320.152001 119.295999,320.445998 119.436,320.782 C119.576001,321.118002 119.683333,321.472665 119.758,321.846 C119.832667,322.219335 119.879333,322.601998 119.898,322.994 C119.916667,323.386002 119.926,323.763998 119.926,324.128 C119.926,324.492002 119.916667,324.869998 119.898,325.262 C119.879333,325.654002 119.832667,326.036665 119.758,326.41 C119.683333,326.783335 119.576001,327.135665 119.436,327.467 C119.295999,327.798335 119.104668,328.089999 118.862,328.342 C118.619332,328.594001 118.316002,328.792333 117.952,328.937 C117.587998,329.081667 117.144669,329.154 116.622,329.154 C116.108664,329.154 115.667669,329.081667 115.299,328.937 C114.930331,328.792333 114.624668,328.594001 114.382,328.342 C114.139332,328.089999 113.948001,327.798335 113.808,327.467 C113.667999,327.135665 113.560667,326.783335 113.486,326.41 C113.411333,326.036665 113.364667,325.654002 113.346,325.262 C113.327333,324.869998 113.318,324.492002 113.318,324.128 Z M121.676,327.446 L121.676,329 L123.23,329 L123.23,327.446 L121.676,327.446 Z M129.39,329 L129.39,319.074 L128.48,319.074 C128.414666,319.447335 128.293334,319.755332 128.116,319.998 C127.938666,320.240668 127.721668,320.431999 127.465,320.572 C127.208332,320.712001 126.921335,320.807666 126.604,320.859 C126.286665,320.910334 125.960002,320.936 125.624,320.936 L125.624,321.888 L128.2,321.888 L128.2,329 L129.39,329 Z" id="127.0.0.1" fill="#696868"></path>
            <path d="M81.5,97.5 L81.5,192.5" id="Line" stroke="#979797" stroke-linecap="square" stroke-dasharray="7,7,7,7"></path>
            <path d="M201.5,97.5 L201.5,200.5" id="Line-Copy" stroke="#979797" stroke-linecap="square" stroke-dasharray="7,7,7,7"></path>
            <path d="M190.238,229.432 L191.738,229.432 L191.738,233.332 L195.554,229.432 L197.402,229.432 L193.982,232.852 L197.642,238 L195.77,238 L192.962,233.908 L191.738,235.12 L191.738,238 L190.238,238 L190.238,229.432 Z M202.526,234.352 C202.51,234.135999 202.464,233.928001 202.388,233.728 C202.312,233.527999 202.208001,233.354001 202.076,233.206 C201.943999,233.057999 201.784001,232.938 201.596,232.846 C201.407999,232.754 201.198001,232.708 200.966,232.708 C200.725999,232.708 200.508001,232.75 200.312,232.834 C200.115999,232.918 199.948001,233.033999 199.808,233.182 C199.667999,233.330001 199.556,233.503999 199.472,233.704 C199.388,233.904001 199.342,234.119999 199.334,234.352 L202.526,234.352 Z M199.334,235.252 C199.334,235.492001 199.368,235.723999 199.436,235.948 C199.504,236.172001 199.605999,236.367999 199.742,236.536 C199.878001,236.704001 200.049999,236.837999 200.258,236.938 C200.466001,237.038 200.713999,237.088 201.002,237.088 C201.402002,237.088 201.723999,237.002001 201.968,236.83 C202.212001,236.657999 202.393999,236.400002 202.514,236.056 L203.81,236.056 C203.738,236.392002 203.614001,236.691999 203.438,236.956 C203.261999,237.220001 203.050001,237.441999 202.802,237.622 C202.553999,237.802001 202.276002,237.938 201.968,238.03 C201.659998,238.122 201.338002,238.168 201.002,238.168 C200.513998,238.168 200.082002,238.088001 199.706,237.928 C199.329998,237.767999 199.012001,237.544001 198.752,237.256 C198.491999,236.967999 198.296001,236.624002 198.164,236.224 C198.031999,235.823998 197.966,235.384002 197.966,234.904 C197.966,234.463998 198.035999,234.046002 198.176,233.65 C198.316001,233.253998 198.515999,232.906001 198.776,232.606 C199.036001,232.305998 199.349998,232.068001 199.718,231.892 C200.086002,231.715999 200.501998,231.628 200.966,231.628 C201.454002,231.628 201.891998,231.729999 202.28,231.934 C202.668002,232.138001 202.989999,232.407998 203.246,232.744 C203.502001,233.080002 203.687999,233.465998 203.804,233.902 C203.920001,234.338002 203.95,234.787998 203.894,235.252 L199.334,235.252 Z M204.254,231.796 L205.754,231.796 L207.374,236.428 L207.398,236.428 L208.97,231.796 L210.398,231.796 L207.986,238.336 C207.873999,238.616001 207.764001,238.883999 207.656,239.14 C207.547999,239.396001 207.416001,239.621999 207.26,239.818 C207.103999,240.014001 206.910001,240.169999 206.678,240.286 C206.445999,240.402001 206.150002,240.46 205.79,240.46 C205.469998,240.46 205.154002,240.436 204.842,240.388 L204.842,239.236 C204.954001,239.252 205.061999,239.27 205.166,239.29 C205.270001,239.31 205.377999,239.32 205.49,239.32 C205.650001,239.32 205.781999,239.3 205.886,239.26 C205.990001,239.22 206.076,239.162 206.144,239.086 C206.212,239.01 206.27,238.920001 206.318,238.816 C206.366,238.711999 206.41,238.592001 206.45,238.456 L206.606,237.976 L204.254,231.796 Z M212.198,236.008 C212.238,236.408002 212.389999,236.687999 212.654,236.848 C212.918001,237.008001 213.233998,237.088 213.602,237.088 C213.730001,237.088 213.875999,237.078 214.04,237.058 C214.204001,237.038 214.357999,237 214.502,236.944 C214.646001,236.888 214.764,236.806001 214.856,236.698 C214.948,236.589999 214.99,236.448001 214.982,236.272 C214.974,236.095999 214.910001,235.952001 214.79,235.84 C214.669999,235.727999 214.516001,235.638 214.328,235.57 C214.139999,235.502 213.926001,235.444 213.686,235.396 C213.445999,235.348 213.202001,235.296 212.954,235.24 C212.697999,235.184 212.452001,235.116 212.216,235.036 C211.979999,234.956 211.768001,234.848001 211.58,234.712 C211.391999,234.575999 211.242001,234.402001 211.13,234.19 C211.017999,233.977999 210.962,233.716002 210.962,233.404 C210.962,233.067998 211.043999,232.786001 211.208,232.558 C211.372001,232.329999 211.579999,232.146001 211.832,232.006 C212.084001,231.865999 212.363998,231.768 212.672,231.712 C212.980002,231.656 213.273999,231.628 213.554,231.628 C213.874002,231.628 214.179999,231.662 214.472,231.73 C214.764001,231.798 215.027999,231.907999 215.264,232.06 C215.500001,232.212001 215.695999,232.409999 215.852,232.654 C216.008001,232.898001 216.106,233.191998 216.146,233.536 L214.718,233.536 C214.654,233.207998 214.504001,232.988001 214.268,232.876 C214.031999,232.763999 213.762002,232.708 213.458,232.708 C213.362,232.708 213.248001,232.716 213.116,232.732 C212.983999,232.748 212.860001,232.778 212.744,232.822 C212.627999,232.866 212.53,232.93 212.45,233.014 C212.37,233.098 212.33,233.207999 212.33,233.344 C212.33,233.512001 212.387999,233.647999 212.504,233.752 C212.620001,233.856001 212.771999,233.942 212.96,234.01 C213.148001,234.078 213.361999,234.136 213.602,234.184 C213.842001,234.232 214.089999,234.284 214.346,234.34 C214.594001,234.396 214.837999,234.464 215.078,234.544 C215.318001,234.624 215.531999,234.731999 215.72,234.868 C215.908001,235.004001 216.059999,235.175999 216.176,235.384 C216.292001,235.592001 216.35,235.847998 216.35,236.152 C216.35,236.520002 216.266001,236.831999 216.098,237.088 C215.929999,237.344001 215.712001,237.551999 215.444,237.712 C215.175999,237.872001 214.878002,237.988 214.55,238.06 C214.221998,238.132 213.898002,238.168 213.578,238.168 C213.185998,238.168 212.824002,238.124 212.492,238.036 C212.159998,237.948 211.872001,237.814001 211.628,237.634 C211.383999,237.453999 211.192001,237.230001 211.052,236.962 C210.911999,236.693999 210.838,236.376002 210.83,236.008 L212.198,236.008 Z" id="Keys" fill="#4A4A4A"></path>
            <g id="Group" transform="translate(64.000000, 181.000000)">
                <g id="Group-2-Copy-4">
                    <path d="M0,12.5925926 C0,13.3698822 7.83501688,14 17.5,14 C27.1649831,14 35,13.3698822 35,12.5925926 L35,1.33333333 L0,1.33333333 L0,12.5925926 Z" id="Combined-Shape" fill="#B8E986"></path>
                    <ellipse id="Oval-2" fill="#DFFFBF" cx="17.5" cy="1.33333333" rx="17.5" ry="1.33333333"></ellipse>
                </g>
                <g id="Group-2-Copy-5" transform="translate(0.000000, 14.000000)">
                    <path d="M0,11.6277778 C0,12.3856352 7.83501688,13 17.5,13 C27.1649831,13 35,12.3856352 35,11.6277778 L35,0.65 L0,0.65 L0,11.6277778 Z" id="Combined-Shape" fill="#B8E986"></path>
                    <ellipse id="Oval-2" fill="#DFFFBF" cx="17.5" cy="0.975" rx="17.5" ry="1"></ellipse>
                </g>
                <g id="Group-2-Copy-6" transform="translate(0.000000, 27.000000)">
                    <path d="M0,12.5925926 C0,13.3698822 7.83501688,14 17.5,14 C27.1649831,14 35,13.3698822 35,12.5925926 L35,1.33333333 L0,1.33333333 L0,12.5925926 Z" id="Combined-Shape" fill="#B8E986"></path>
                    <ellipse id="Oval-2" fill="#DFFFBF" cx="17.5" cy="1.33333333" rx="17.5" ry="1.33333333"></ellipse>
                </g>
            </g>
            <g id="key" transform="translate(169.000000, 192.000000)">
                <g id="Group-2">
                    <circle id="Oval" fill="#9B9B9B" cx="12" cy="12" r="12"></circle>
                    <circle id="Oval" fill="#FFFFFF" cx="12" cy="12" r="7"></circle>
                </g>
                <rect id="Rectangle-22" fill="#9B9B9B" x="23" y="9" width="35" height="7"></rect>
                <rect id="Rectangle-23" fill="#9B9B9B" x="47" y="16" width="7" height="7"></rect>
            </g>
        </g>
    </g>
</svg>