<svg xmlns="http://www.w3.org/2000/svg" xmlns:xlink="http://www.w3.org/1999/xlink" xmlns:lucid="lucid" width="915" height="485"><g transform="translate(-416 -315)" lucid:page-tab-id="0_0"><path d="M0 0h1760v1360H0z" fill="#fff"/><path d="M656.13 449.38c0-2.2 1.8-4 4-4h212c2.2 0 4 1.8 4 4v221.24c0 2.2-1.8 4-4 4h-212c-2.2 0-4-1.8-4-4z" stroke="#000" stroke-opacity="0" stroke-width="2" fill="url(#a)"/><path d="M656.13 505.38h100v20h-100z" stroke="#000" stroke-opacity="0" stroke-width="2" fill="#fff" fill-opacity="0"/><use xlink:href="#b" transform="matrix(1,0,0,1,661.1305735604919,510.3839250888568) translate(14.634944444444443 8.992666666666667)"/><path d="M656.13 449.38c0-2.2 1.8-4 4-4h212c2.2 0 4 1.8 4 4v42c0 2.2-1.8 4-4 4h-212c-2.2 0-4-1.8-4-4z" stroke="#fff" stroke-opacity=".3" stroke-width="1.5" fill="#fff" fill-opacity="0"/><path d="M705.48 449.9c0-2.2 1.8-4 4-4h162.65c2.2 0 4 1.8 4 4v42c0 2.2-1.8 4-4 4H709.48c-2.2 0-4-1.8-4-4z" stroke="#000" stroke-opacity="0" stroke-width="2" fill="#fff" fill-opacity="0"/><use xlink:href="#c" transform="matrix(1,0,0,1,710.4833403013554,450.89582520729255) translate(34.65400000000001 26.776)"/><path d="M676.13 599.38c0-2.2 1.8-4 4-4h174.12c2.2 0 4 1.8 4 4v42c0 2.2-1.8 4-4 4H680.13c-2.2 0-4-1.8-4-4z" stroke="#fff" stroke-opacity=".3" stroke-width="1.5" fill="#fff" fill-opacity="0"/><path d="M716.13 595.38h152.65v50H716.13z" stroke="#000" stroke-opacity="0" stroke-width="2" fill-opacity="0"/><use xlink:href="#d" transform="matrix(1,0,0,1,721.1305735604996,600.3839250888568) translate(29.996555555555553 25.572666666666667)"/><use xlink:href="#e" transform="matrix(1,0,0,1,721.1305735604996,600.3839250888568) translate(81.45577777777777 25.572666666666667)"/><path d="M730.9 475.92c.2.16.3.45.17.7-.6 1.92-1.68 3.75-3 5.28-.18.23-.45.3-.7.2l-3.8-1.35c-.96.77-2 1.38-3.15 1.86l-.75 4c-.06.23-.27.5-.54.52-1 .2-1.98.3-3 .3s-2-.1-3-.3c-.27-.03-.48-.3-.54-.5l-.76-4c-1.14-.5-2.22-1.1-3.15-1.87l-3.82 1.35c-.24.1-.5.03-.7-.2-1.3-1.53-2.4-3.36-3-5.28-.1-.25-.02-.54.2-.7l3.02-2.66c-.12-.57-.15-1.2-.15-1.85 0-.6.03-1.24.15-1.85l-3.03-2.65c-.2-.16-.3-.45-.18-.7.6-1.93 1.67-3.75 3-5.26.17-.22.44-.32.68-.2l3.8 1.36c.94-.8 2.02-1.4 3.16-1.86l.75-4c.05-.26.26-.5.53-.5 1.98-.43 4.02-.43 6 0 .27 0 .48.24.54.5l.75 4c1.14.45 2.2 1.06 3.15 1.86l3.8-1.35c.25-.13.52-.03.7.2 1.32 1.5 2.4 3.32 3 5.24.12.25.03.54-.18.7l-3.04 2.65c.12.6.15 1.25.15 1.86 0 .65-.02 1.3-.14 1.86l3.03 2.66zm-14.74 5.8c5.64 0 10.23-4.62 10.23-10.3 0-5.7-4.6-10.32-10.24-10.32-5.67 0-10.23 4.6-10.23 10.3 0 5.7 4.56 10.3 10.23 10.3zm0-1.3c-4.95 0-8.94-4.02-8.94-9 0-5 4-9.04 8.94-9.04 4.92 0 8.94 4.04 8.94 9.03 0 5-4.02 9.03-8.94 9.03zm-5-13.24v2.53h3.74v6.35h2.9v-6.34h3.76v-2.52h-10.4z" stroke="#000" stroke-opacity="0" fill="#fff"/><path d="M718.88 608.38c1.23 0 2.25 1 2.25 2.26v19.5c0 1.24-1.02 2.24-2.25 2.24h-25.5c-1.23 0-2.25-1-2.25-2.25v-19.5c0-1.24 1.02-2.25 2.25-2.25h25.5zm0 1.52h-25.5c-.42 0-.75.33-.75.74v19.5c0 .42.33.76.75.76h25.5c.42 0 .75-.34.75-.77v-19.5c0-.4-.33-.73-.75-.73zm-22.08 3.12l4.5 3c.2.14.33.36.33.62 0 .24-.12.48-.33.62l-4.5 3c-.1.05-.2.1-.3.12h-.12c-.24 0-.48-.12-.63-.33-.2-.34-.12-.82.2-1.03l3.58-2.38-3.57-2.38c-.33-.24-.42-.7-.2-1.05.23-.33.68-.42 1.04-.18zm11.58 5.88c.42 0 .75.33.75.74 0 .4-.33.74-.75.74h-4.5c-.42 0-.75-.33-.75-.74 0-.4.33-.74.75-.74h4.5z" stroke="#000" stroke-opacity="0" fill="#fff" fill-opacity=".3"/><path d="M836.13 515.38c0 1.6-1.38 2.9-3.1 2.9-1.7 0-3.08-1.3-3.08-2.9 0-1.6 1.4-2.88 3.1-2.88 1.7 0 3.08 1.3 3.08 2.88zM847.84 515.38c0 1.6-1.4 2.9-3.1 2.9-1.7 0-3.08-1.3-3.08-2.9 0-1.6 1.38-2.88 3.1-2.88 1.7 0 3.08 1.3 3.08 2.88z" stroke="#fff" stroke-opacity="0" stroke-width="2" fill="#fff" fill-opacity=".3"/><path d="M859.54 515.38c0 1.6-1.38 2.9-3.1 2.9-1.7 0-3.07-1.3-3.07-2.9 0-1.6 1.38-2.88 3.08-2.88 1.7 0 3.1 1.3 3.1 2.88z" stroke="#fff" stroke-opacity="0" stroke-width="2" fill="#fff"/><path d="M676.13 532.48c0-2.2 1.8-4 4-4h72c2.2 0 4 1.8 4 4V570c0 2.2-1.8 4-4 4h-72c-2.2 0-4-1.8-4-4z" stroke="#fff" stroke-opacity=".3" stroke-width="1.5" fill-opacity="0"/><path d="M688.9 543.66c0-1.1.9-2 2-2h20.47c1.1 0 2 .9 2 2v6.7c0 1.1-.9 2-2 2H690.9c-1.1 0-2-.9-2-2z" stroke="#fff" stroke-opacity="0" stroke-width="1.5" fill="#fff" fill-opacity=".3"/><path d="M718.9 551.33c0-.66.53-1.2 1.2-1.2h22.07c.66 0 1.2.54 1.2 1.2 0 .66-.54 1.2-1.2 1.2H720.1c-.67 0-1.2-.54-1.2-1.2zM718.9 559.62c0-.67.53-1.2 1.2-1.2h16.95c.66 0 1.2.53 1.2 1.2 0 .66-.54 1.2-1.2 1.2H720.1c-.67 0-1.2-.54-1.2-1.2zM688.9 559.62c0-.67.53-1.2 1.2-1.2h22.07c.66 0 1.2.53 1.2 1.2 0 .66-.54 1.2-1.2 1.2H690.1c-.67 0-1.2-.54-1.2-1.2zM718.9 543.04c0-.66.53-1.2 1.2-1.2h22.07c.66 0 1.2.54 1.2 1.2 0 .66-.54 1.2-1.2 1.2H720.1c-.67 0-1.2-.54-1.2-1.2z" stroke="#fff" stroke-opacity="0" stroke-width="2" fill="#fff" fill-opacity=".3"/><path d="M778.25 532.48c0-2.2 1.8-4 4-4h72c2.2 0 4 1.8 4 4V570c0 2.2-1.8 4-4 4h-72c-2.2 0-4-1.8-4-4z" stroke="#fff" stroke-opacity=".3" stroke-width="1.5" fill-opacity="0"/><path d="M791 543.66c0-1.1.9-2 2-2h21.54c1.1 0 2 .9 2 2v6.7c0 1.1-.9 2-2 2H793c-1.1 0-2-.9-2-2z" stroke="#fff" stroke-opacity="0" stroke-width="1.5" fill="#fff" fill-opacity=".3"/><path d="M821 551.33c0-.66.55-1.2 1.2-1.2h22.08c.67 0 1.2.54 1.2 1.2 0 .66-.53 1.2-1.2 1.2H822.2c-.65 0-1.2-.54-1.2-1.2zM821 559.62c0-.67.55-1.2 1.2-1.2h16.96c.67 0 1.2.53 1.2 1.2 0 .66-.53 1.2-1.2 1.2H822.2c-.65 0-1.2-.54-1.2-1.2zM791 559.62c0-.67.55-1.2 1.2-1.2h22.08c.67 0 1.2.53 1.2 1.2 0 .66-.53 1.2-1.2 1.2H792.2c-.65 0-1.2-.54-1.2-1.2zM821 543.04c0-.66.55-1.2 1.2-1.2h22.08c.67 0 1.2.54 1.2 1.2 0 .66-.53 1.2-1.2 1.2H822.2c-.65 0-1.2-.54-1.2-1.2z" stroke="#fff" stroke-opacity="0" stroke-width="2" fill="#fff" fill-opacity=".3"/><path d="M940 575c0-4.4 3.58-8 8-8h334.97c4.42 0 8 3.6 8 8v184c0 4.43-3.58 8-8 8H948c-4.42 0-8-3.57-8-8z" stroke="#000" stroke-opacity=".12" stroke-width="2" fill="#fff"/><path d="M997.56 572h240v42.13h-240z" stroke="#000" stroke-opacity="0" stroke-width="2" fill="#fff" fill-opacity="0"/><use xlink:href="#f" transform="matrix(1,0,0,1,1002.5589356663404,577.013291629756) translate(65.572 23.9535)"/><use xlink:href="#g" transform="matrix(1,0,0,1,1002.5589356663404,577.013291629756) translate(105.442 23.9535)"/><path d="M954.47 623.9c0-2.2 1.8-4 4-4h78.18c2.2 0 4 1.8 4 4V743c0 2.22-1.8 4-4 4h-78.18c-2.2 0-4-1.78-4-4z" stroke="#000" stroke-opacity="0" stroke-width="2" fill="url(#h)"/><path d="M966.06 651c0-2.2 1.8-4 4-4h55c2.2 0 4 1.8 4 4v6.04c0 2.2-1.8 4-4 4h-55c-2.2 0-4-1.8-4-4z" stroke="#5abaa7" stroke-width="2" fill-opacity="0"/><path d="M966.06 670c0-1.12.9-2 2-2h5.6c1.1 0 2 .88 2 2v2.2c0 1.1-.9 2-2 2h-5.6c-1.1 0-2-.9-2-2z" stroke="#000" fill="#666"/><path d="M1006.5 671.1c0 1.7-1.3 3.1-2.93 3.1-1.6 0-2.92-1.4-2.92-3.1 0-1.72 1.3-3.1 2.92-3.1 1.62 0 2.93 1.38 2.93 3.1zM1018.57 671.1c0 1.7-1.3 3.1-2.92 3.1-1.62 0-2.93-1.4-2.93-3.1 0-1.72 1.3-3.1 2.93-3.1 1.6 0 2.92 1.38 2.92 3.1z" stroke="#fff" stroke-opacity="0" stroke-width="2" fill="#666"/><path d="M1029.06 671.1c0 1.7-1.3 3.1-2.93 3.1-1.6 0-2.92-1.4-2.92-3.1 0-1.72 1.32-3.1 2.93-3.1 1.62 0 2.93 1.38 2.93 3.1z" stroke="#fff" stroke-opacity="0" stroke-width="2" fill="#5abaa7"/><path d="M966.18 687h19.47v6.22h-19.47zM966.06 701h19.47v6.2h-19.47zM966.06 714.96h19.47v6.2h-19.47zM966.18 728.93h19.47v6.2h-19.47z" stroke="#fff" stroke-opacity="0" stroke-width="2" fill="#6899bf" fill-opacity=".3"/><path d="M1072.4 623.9c0-2.2 1.8-4 4-4h78.17c2.2 0 4 1.8 4 4V743c0 2.22-1.8 4-4 4h-78.17c-2.2 0-4-1.78-4-4z" stroke="#000" stroke-opacity="0" stroke-width="2" fill="url(#i)"/><path d="M1084 651c0-2.2 1.78-4 4-4h55c2.2 0 4 1.8 4 4v6.04c0 2.2-1.8 4-4 4h-55c-2.22 0-4-1.8-4-4z" stroke="#5abaa7" stroke-width="2" fill-opacity="0"/><path d="M1084 670c0-1.12.88-2 2-2h5.57c1.1 0 2 .88 2 2v2.2c0 1.1-.9 2-2 2H1086c-1.12 0-2-.9-2-2z" stroke="#000" fill="#666"/><path d="M1124.43 671.1c0 1.7-1.3 3.1-2.93 3.1-1.62 0-2.93-1.4-2.93-3.1 0-1.72 1.3-3.1 2.93-3.1 1.62 0 2.93 1.38 2.93 3.1zM1136.5 671.1c0 1.7-1.3 3.1-2.93 3.1-1.6 0-2.92-1.4-2.92-3.1 0-1.72 1.3-3.1 2.92-3.1 1.62 0 2.93 1.38 2.93 3.1z" stroke="#fff" stroke-opacity="0" stroke-width="2" fill="#666"/><path d="M1147 671.1c0 1.7-1.32 3.1-2.94 3.1-1.62 0-2.93-1.4-2.93-3.1 0-1.72 1.3-3.1 2.93-3.1 1.62 0 2.93 1.38 2.93 3.1z" stroke="#fff" stroke-opacity="0" stroke-width="2" fill="#5abaa7"/><path d="M1084.1 687h19.47v6.22h-19.47zM1084 701h19.46v6.2H1084zM1084 714.96h19.46v6.2H1084zM1084.1 728.93h19.47v6.2h-19.47z" stroke="#fff" stroke-opacity="0" stroke-width="2" fill="#6899bf" fill-opacity=".3"/><path d="M1189.8 623.9c0-2.2 1.8-4 4-4h78.17c2.2 0 4 1.8 4 4V743c0 2.22-1.8 4-4 4h-78.18c-2.2 0-4-1.78-4-4z" stroke="#000" stroke-opacity="0" stroke-width="2" fill="url(#j)"/><path d="M1201.38 651c0-2.2 1.8-4 4-4h55c2.2 0 4 1.8 4 4v6.04c0 2.2-1.8 4-4 4h-55c-2.2 0-4-1.8-4-4z" stroke="#5abaa7" stroke-width="2" fill-opacity="0"/><path d="M1201.38 670c0-1.12.9-2 2-2h5.6c1.1 0 2 .88 2 2v2.2c0 1.1-.9 2-2 2h-5.6c-1.1 0-2-.9-2-2z" stroke="#000" fill="#666"/><path d="M1241.82 671.1c0 1.7-1.3 3.1-2.92 3.1-1.62 0-2.93-1.4-2.93-3.1 0-1.72 1.3-3.1 2.93-3.1 1.6 0 2.92 1.38 2.92 3.1zM1253.9 671.1c0 1.7-1.3 3.1-2.93 3.1-1.62 0-2.93-1.4-2.93-3.1 0-1.72 1.3-3.1 2.93-3.1 1.62 0 2.93 1.38 2.93 3.1z" stroke="#fff" stroke-opacity="0" stroke-width="2" fill="#666"/><path d="M1264.38 671.1c0 1.7-1.3 3.1-2.92 3.1-1.62 0-2.93-1.4-2.93-3.1 0-1.72 1.3-3.1 2.93-3.1 1.6 0 2.92 1.38 2.92 3.1z" stroke="#fff" stroke-opacity="0" stroke-width="2" fill="#5abaa7"/><path d="M1201.5 687h19.47v6.22h-19.47zM1201.38 701h19.47v6.2h-19.47zM1201.38 714.96h19.47v6.2h-19.47zM1201.5 728.93h19.47v6.2h-19.47z" stroke="#fff" stroke-opacity="0" stroke-width="2" fill="#6899bf" fill-opacity=".3"/><path d="M456.28 491.06h119.98v60H456.28z" stroke="#000" stroke-opacity="0" stroke-width="2" fill="#fff" fill-opacity="0"/><use xlink:href="#k" transform="matrix(1,0,0,1,461.27793150571557,496.05907066484497) translate(36.26222222222222 17.546666666666667)"/><path d="M456.28 533.45c0-2.2 1.8-4 4-4h111.98c2.2 0 4 1.8 4 4v70.06c0 2.22-1.8 4-4 4H460.28c-2.2 0-4-1.78-4-4z" stroke="#999" stroke-opacity=".4" stroke-width="2" fill="#fff" filter="url(#l)"/><path d="M523.83 572.28c3.7 0 6.84.48 9.4 1.5 2.14.83 3.84 1.98 5.1 3.44 2.18 2.58 2.18 5.16 2.18 5.27 0 1.87-1.6 3.4-3.58 3.4h-26.17c-1.94 0-3.54-1.53-3.54-3.4v-.08c0-.42.15-2.83 2.2-5.2 1.25-1.46 2.94-2.6 5.03-3.44 2.57-1.02 5.72-1.5 9.4-1.5zm-19.2 1.5c.5 0 .93.03 1.36.03.67.04 1.2.64 1.16 1.3 0 .66-.63 1.18-1.3 1.15-.4-.04-.8-.04-1.22-.04-9.8 0-10.1 5.76-10.1 6.08 0 .66.6 1.18 1.28 1.18h7.56c.72 0 1.26.56 1.26 1.22 0 .66-.54 1.22-1.26 1.22h-7.56c-2.1 0-3.8-1.64-3.8-3.62v-.07c0-.38.16-2.36 1.7-4.3.93-1.23 2.24-2.17 3.84-2.87 1.94-.84 4.3-1.25 7.08-1.25zm19.2.76c-5.86 0-10.18 1.4-12.5 4-1.7 1.92-1.75 3.88-1.75 3.95 0 .6.53 1.14 1.17 1.14h26.17c.68 0 1.2-.53 1.2-1.15 0-.08-.08-2.04-1.73-3.95-2.34-2.6-6.7-4-12.57-4zm-19.68-15.92c4.17 0 7.56 3.07 7.56 6.83 0 3.76-3.38 6.83-7.55 6.83s-7.56-3.07-7.56-6.83c0-3.76 3.38-6.83 7.55-6.83zm0 2.3c-2.76 0-5.04 2.02-5.04 4.53 0 2.5 2.3 4.53 5.05 4.53 2.77 0 5.04-2.02 5.04-4.53 0-2.5-2.28-4.53-5.05-4.53zm18.96-9.86c5.44 0 9.85 4.08 9.85 9.1 0 5-4.4 9.1-9.84 9.1-5.42 0-9.83-4.1-9.83-9.1 0-5.02 4.4-9.1 9.84-9.1zm0 2.26c-4.07 0-7.4 3.07-7.4 6.83 0 3.77 3.33 6.83 7.4 6.83 4.08 0 7.37-3.06 7.37-6.83 0-3.76-3.3-6.83-7.36-6.83z" stroke="#000" stroke-opacity="0" fill="#8e24aa"/><path d="M601.38 574h34.13" stroke="#7f34aa" stroke-width="2" fill="none"/><path d="M586.12 574l14.26-4.64v9.27zM650.78 574l-14.27 4.63v-9.27z" stroke="#7f34aa" stroke-width="2" fill="#7f34aa"/><path d="M916.5 608.38h-7.78V557.9h-7.76" stroke="#7f34aa" stroke-width="2" fill="none"/><path d="M931.76 608.38l-14.27 4.64v-9.27zM885.7 557.9l14.26-4.63v9.27z" stroke="#7f34aa" stroke-width="2" fill="#7f34aa"/><path d="M899.13 503.2h9.6v-46.38h9.58" stroke="#7f34aa" stroke-width="2" fill="none"/><path d="M883.87 503.2l14.26-4.63v9.27zM933.58 456.82l-14.27 4.63v-9.27z" stroke="#7f34aa" stroke-width="2" fill="#7f34aa"/><path d="M940 353.8c0-4.43 3.58-8 8-8h334.97c4.42 0 8 3.57 8 8v184c0 4.4-3.58 8-8 8H948c-4.42 0-8-3.6-8-8z" stroke="#000" stroke-opacity=".12" stroke-width="2" fill="#2c62e2"/><path d="M997.56 350.8h240v42.1h-240z" stroke="#000" stroke-opacity="0" stroke-width="2" fill="#2c62e2"/><use xlink:href="#m" transform="matrix(1,0,0,1,1002.5589356663404,355.79165041446674) translate(36.60100000000001 23.9535)"/><use xlink:href="#n" transform="matrix(1,0,0,1,1002.5589356663404,355.79165041446674) translate(134.413 23.9535)"/><path d="M956.54 400.1c0-2.2 1.8-4 4-4h313.5c2.2 0 4 1.8 4 4V528.3c0 2.2-1.8 4-4 4h-313.5c-2.2 0-4-1.8-4-4z" stroke="#fff" stroke-opacity=".3" stroke-width="1.5" fill-opacity="0"/><path d="M973.16 454.66c0-2.2 1.8-4 4-4h72.27c2.2 0 4 1.8 4 4v64.38c0 2.2-1.8 4-4 4h-72.27c-2.2 0-4-1.8-4-4z" stroke="#fff" stroke-opacity=".3" stroke-width="1.5" fill-opacity="0"/><use xlink:href="#o" transform="matrix(1,0,0,1,978.1617024064219,455.6636753847714) translate(35.5 36.75416666666667)"/><path d="M1079.5 454.66c0-2.2 1.8-4 4-4h72.26c2.2 0 4 1.8 4 4v64.38c0 2.2-1.8 4-4 4h-72.26c-2.2 0-4-1.8-4-4z" stroke="#fff" stroke-opacity=".3" stroke-width="1.5" fill-opacity="0"/><use xlink:href="#o" transform="matrix(1,0,0,1,1084.5001059068638,455.6636753846549) translate(35.5 36.75416666666667)"/><path d="M1185.84 454.15c0-2.2 1.8-4 4-4h72.26c2.2 0 4 1.8 4 4v64.38c0 2.2-1.8 4-4 4h-72.26c-2.2 0-4-1.8-4-4z" stroke="#fff" stroke-opacity=".3" stroke-width="1.5" fill-opacity="0"/><use xlink:href="#o" transform="matrix(1,0,0,1,1190.8385094073058,455.1517752663357) translate(35.5 36.75416666666667)"/><path d="M1073.22 405.8c.22 0 .46.02.68.13l8.45 4.06c.4.2.75.55.9 1l2.08 9.08c.07.47-.05.93-.32 1.33l-5.85 7.26c-.3.42-.77.63-1.26.6h-9.3c-.5-.06-.95-.27-1.3-.6l-5.82-7.25c-.3-.4-.4-.85-.32-1.32l2.08-9.13c.1-.47.42-.82.83-1.03l8.45-4.08c.22-.05.46-.05.7-.05zm-.4 3.2c-.1.12-.18.26-.18.38v.14c0 .12.02.2.07.33.04.05.04.1.04.16v.04c.04.28.04.58.04.9-.02.08-.04.18-.14.22v.05l-.02.22-.93.14c-1.3.28-2.47.94-3.37 1.88l-.17-.1h-.02c-.03 0-.05.03-.1.03-.07 0-.12-.03-.17-.05-.24-.2-.5-.4-.68-.63-.06-.06-.1-.08-.13-.1-.07-.1-.14-.17-.22-.26-.02-.03-.05-.03-.07-.05l-.02-.03c-.13-.07-.27-.15-.4-.15-.16 0-.3.08-.38.2-.17.25-.12.56.1.74.05 0 .05.05.05.05s.04.06.07.06l.3.16.16.07c.27.16.56.32.77.53.05.05.08.12.08.2l.18.18-.08.15c-.84 1.3-1.2 2.88-.97 4.4l-.2.05c0 .03-.04.03-.04.03-.03.1-.13.14-.2.18-.3.1-.6.16-.92.18-.07 0-.12 0-.17.02-.1 0-.2.03-.33.03-.02 0-.05.04-.1.04l-.07.03c-.27.04-.46.28-.44.54v.07c.08.24.32.4.56.38l.15-.02c.02 0 .02 0 .02-.03 0-.02.06 0 .1 0 .1-.02.2-.1.3-.1.05-.04.1-.06.15-.06h.05c.3-.12.55-.2.9-.23h.02c.07 0 .17.02.2.07.04 0 .04.03.04.03l.24-.02c.4 1.25 1.2 2.35 2.25 3.15.24.2.46.35.73.5l-.12.18c0 .02.02.02.02.02.05.1.05.2.03.28-.1.26-.26.52-.43.78v.03c-.02.05-.05.07-.12.14-.05.05-.1.17-.2.26-.02.02-.02.05-.04.1 0 0 0 .02-.02.02-.14.26-.02.58.22.73l.2.04c.2 0 .4-.14.5-.33 0 0 0-.03.05-.03 0-.02.03-.05.05-.07.02-.12.07-.2.1-.3l.07-.17c.07-.28.22-.56.34-.82.08-.08.15-.13.23-.15.02 0 .02 0 .02-.03l.12-.23c.78.3 1.55.43 2.37.43.5 0 1-.07 1.48-.18.32-.07.6-.17.87-.26l.1.18c.04 0 .04 0 .04.04.07.03.17.07.22.14.14.28.26.54.36.85v.03l.05.16c.02.1.05.2.1.3.04.02.04.05.07.07 0 0 0 .02.02.02.1.18.3.32.5.32.1 0 .16-.02.23-.04.1-.08.2-.17.23-.3.05-.15.05-.27-.02-.4 0-.03-.02-.03-.02-.03 0-.03-.02-.07-.05-.1-.05-.1-.12-.18-.2-.25 0-.05-.04-.1-.1-.14v-.05c-.18-.25-.33-.5-.45-.77-.02-.1-.02-.18.05-.28 0-.02.03-.02.03-.02l-.1-.2c1.4-.86 2.47-2.15 2.95-3.67l.23.02c.02 0 .02-.02.02-.02.08-.05.15-.1.22-.1h.05c.3.08.58.15.87.26h.02c.05.03.1.05.17.05.08.05.16.12.28.14.02 0 .05.03.12.03.02 0 .02 0 .05.03.04.02.07.02.12.02.26 0 .48-.16.55-.37-.02-.28-.24-.5-.48-.56-.02 0-.07 0-.07-.02s-.05-.02-.1-.02c-.07-.03-.14-.03-.22-.03h-.12c-.05 0-.1 0-.14-.04h-.06c-.3-.03-.63-.07-.92-.14-.07-.04-.12-.1-.17-.16l-.03-.04-.2-.07c.1-.78.03-1.57-.1-2.37-.2-.78-.54-1.53-.98-2.2l.17-.15v-.03c0-.07.03-.2.08-.24.25-.2.5-.37.78-.54.05-.03.1-.06.17-.08.1-.07.2-.12.3-.16 0-.03.04-.03.06-.05.04-.04 0-.04 0-.06.26-.2.3-.52.1-.75-.06-.1-.23-.2-.38-.2-.12 0-.26.05-.38.14l-.03.03c0 .02-.04.04-.06.04-.1.1-.17.18-.22.27-.02.05-.1.07-.12.1-.2.2-.43.44-.68.58-.05.05-.1.07-.17.07-.02 0-.07 0-.1-.02h-.02l-.22.1c-.2-.2-.47-.4-.7-.62-.98-.77-2.24-1.27-3.52-1.4l-.03-.22v.03c-.1-.06-.12-.15-.14-.22 0-.3 0-.6.06-.92v-.02l.02-.17c.02-.1.02-.2.07-.33v-.16c.03-.26-.2-.54-.48-.56-.15-.03-.32.07-.46.2zm.55 11.52c.07.05.12.12.2.2l1.32 2.34c-.18.02-.35.04-.54.1-.36.08-.75.13-1.16.13-.58 0-1.2-.13-1.72-.27l1.33-2.4c.15-.15.37-.23.57-.1zm-2.5-1.15c.22 0 .44.12.46.35.03.07.03.2-.02.26l-1.03 2.47c-.95-.6-1.72-1.55-2.1-2.63l2.7-.45zm4.63-.04l2.73.46c-.14.37-.3.72-.53 1.03-.4.63-.97 1.2-1.65 1.6l-1.06-2.52c-.06-.22.06-.43.25-.5.08-.03.15-.07.25-.07zm-1.9-2.14l.52.62-.2.8-.72.33-.75-.33-.17-.8.5-.63h.83zm4.12-1.93c.32.5.54 1.03.66 1.6.14.56.17 1.12.12 1.68l-2.6-.73c-.23-.04-.38-.28-.33-.53.02-.1.05-.13.12-.2l2.02-1.83zm-9.1 0l2.03 1.78c.2.16.22.42.05.6-.05.1-.1.13-.22.15l-2.63.75c-.1-1.12.2-2.27.77-3.28zm3.9-2.46l-.15 2.7c0 .24-.2.42-.46.42-.08 0-.13-.02-.2-.04l-2.28-1.6c.7-.68 1.6-1.15 2.54-1.36l.56-.1zm1.3.03c1.22.14 2.28.66 3.08 1.45l-2.23 1.55c-.2.12-.46.1-.6-.1-.05-.04-.07-.1-.07-.18l-.17-2.72z" stroke="#000" stroke-opacity="0" fill="#fff" fill-opacity=".3"/><path d="M1078.13 406.82h100v20h-100z" stroke="#000" stroke-opacity="0" stroke-width="2" fill="#fff" fill-opacity="0"/><use xlink:href="#p" transform="matrix(1,0,0,1,1083.1267118238902,411.8154506513383) translate(9.087499999999999 11.186)"/><path d="M988.72 476.85h49.15v20h-49.15z" stroke="#000" stroke-opacity="0" stroke-width="2" fill="#fff" fill-opacity="0"/><use xlink:href="#q" transform="matrix(1,0,0,1,993.7205321659276,481.8507210793118) translate(10.091833333333332 11.186)"/><path d="M1095.65 476.85h49.14v20h-49.15z" stroke="#000" stroke-opacity="0" stroke-width="2" fill="#fff" fill-opacity="0"/><use xlink:href="#q" transform="matrix(1,0,0,1,1100.6472332590492,481.8507210793118) translate(10.091833333333332 11.186)"/><path d="M1201.4 476.85h49.14v20h-49.14z" stroke="#000" stroke-opacity="0" stroke-width="2" fill="#fff" fill-opacity="0"/><g><use xlink:href="#q" transform="matrix(1,0,0,1,1206.3973391668114,481.8507210793118) translate(10.091833333333332 11.186)"/></g><defs><linearGradient gradientUnits="userSpaceOnUse" id="a" x1="876.13" y1="445.38" x2="709.64" y2="674.62"><stop offset="0%" stop-color="#354aaa"/><stop offset="0%" stop-color="#651fff"/><stop offset="100%" stop-color="#4c00f0"/></linearGradient><path fill="#fff" fill-opacity=".6" d="M1284-209C1170-69 1008 19 759 16c-347-4-553-182-649-442-66-178-66-423 6-596 108-261 330-435 688-440 220-3 375 79 488 188l-90 125c-16 32-68 39-102 12-71-55-162-101-298-96-304 11-465 201-465 510 0 241 101 401 267 477 125 58 330 39 424-24 42-17 97-111 150-54" id="r"/><path fill="#fff" fill-opacity=".6" d="M1058-1446v214H417v401h505v207H417v409h641V0H146v-1446h912" id="s"/><path fill="#fff" fill-opacity=".6" d="M1153-1030c0 232-137 352-319 413 34 19 63 47 88 83L1284 0h-242c-51 0-80-22-101-54L637-517c-24-34-42-48-98-48H424V0H155v-1446h441c324 4 557 105 557 416zm-263 20c0-163-114-229-294-228H424v480h168c180-3 298-77 298-252" id="t"/><path fill="#fff" fill-opacity=".6" d="M1165-1446v221H730V0H461v-1225H24v-221h1141" id="u"/><path fill="#fff" fill-opacity=".6" d="M449 0H179v-1446h270V0" id="v"/><path fill="#fff" fill-opacity=".6" d="M1058-1446v214H417v428h541v215H417V0H146v-1446h912" id="w"/><path fill="#fff" fill-opacity=".6" d="M1417 0h-208c-47 1-77-28-90-61l-108-295H412L304-61c-11 30-46 61-89 61H6l568-1446h275zM481-546h461c-77-218-163-424-231-651-66 230-154 432-230 651" id="x"/><path fill="#fff" fill-opacity=".6" d="M519-204c146 0 246-70 241-211-6-175-195-185-333-232-183-63-339-153-333-400 5-199 120-319 272-380 126-51 311-44 437 5 72 27 133 64 184 112l-66 127c-15 40-64 51-105 25-64-41-136-87-246-85-132 3-224 54-224 182 0 167 202 176 334 227 173 67 333 144 333 381 0 227-120 364-289 433-138 56-353 39-478-16-80-35-154-80-210-138l78-129c23-34 74-43 115-13 73 54 157 112 290 112" id="y"/><g id="b"><use transform="matrix(0.004555555555555556,0,0,0.004555555555555556,0,0)" xlink:href="#r"/><use transform="matrix(0.004555555555555556,0,0,0.004555555555555556,6.109,0)" xlink:href="#s"/><use transform="matrix(0.004555555555555556,0,0,0.004555555555555556,11.325111111111111,0)" xlink:href="#t"/><use transform="matrix(0.004555555555555556,0,0,0.004555555555555556,17.037777777777777,0)" xlink:href="#u"/><use transform="matrix(0.004555555555555556,0,0,0.004555555555555556,22.458888888888886,0)" xlink:href="#v"/><use transform="matrix(0.004555555555555556,0,0,0.004555555555555556,25.319777777777773,0)" xlink:href="#w"/><use transform="matrix(0.004555555555555556,0,0,0.004555555555555556,30.435666666666663,0)" xlink:href="#v"/><use transform="matrix(0.004555555555555556,0,0,0.004555555555555556,33.29655555555555,0)" xlink:href="#r"/><use transform="matrix(0.004555555555555556,0,0,0.004555555555555556,39.40555555555555,0)" xlink:href="#x"/><use transform="matrix(0.004555555555555556,0,0,0.004555555555555556,45.20477777777778,0)" xlink:href="#u"/><use transform="matrix(0.004555555555555556,0,0,0.004555555555555556,50.62588888888889,0)" xlink:href="#s"/><use transform="matrix(0.004555555555555556,0,0,0.004555555555555556,55.842000000000006,0)" xlink:href="#y"/></g><path fill="#fff" d="M594-693v133H385V0H229v-560H20v-133h574" id="z"/><path fill="#fff" d="M80 0v-693h468v131H236v136h277v128H236v167h335V0H80" id="A"/><path fill="#fff" d="M543-134V0H80v-693h156v559h307" id="B"/><path fill="#fff" d="M80-683c58-12 143-18 208-18 190 0 321 53 321 233 0 198-160 242-373 236V0H80v-683zm368 214c0-104-112-104-212-96v200c112 0 212 3 212-104" id="C"/><path fill="#fff" d="M395-572c-128 0-184 94-184 225s55 224 184 224c128 0 184-93 184-224s-55-225-184-225zm0-137c221 0 345 136 345 362 0 227-122 361-345 361C174 14 50-121 50-347c0-224 126-362 345-362" id="D"/><path fill="#fff" d="M80-683c59-12 137-18 203-18 187 1 322 54 322 228 0 106-52 157-130 190 65 83 124 182 172 283H472c-49-87-99-179-159-253h-77V0H80v-683zm364 209c1-96-110-98-208-91v188c111-1 207 3 208-97" id="E"/><g id="c"><use transform="matrix(0.018,0,0,0.018,0,0)" xlink:href="#z"/><use transform="matrix(0.018,0,0,0.018,11.052,0)" xlink:href="#A"/><use transform="matrix(0.018,0,0,0.018,21.96,0)" xlink:href="#B"/><use transform="matrix(0.018,0,0,0.018,32.094,0)" xlink:href="#A"/><use transform="matrix(0.018,0,0,0.018,43.002,0)" xlink:href="#C"/><use transform="matrix(0.018,0,0,0.018,54.594,0)" xlink:href="#D"/><use transform="matrix(0.018,0,0,0.018,68.814,0)" xlink:href="#E"/><use transform="matrix(0.018,0,0,0.018,80.64,0)" xlink:href="#z"/></g><path fill="#fff" fill-opacity=".6" d="M398-581c6 222 109 364 330 364 220 0 331-140 331-363v-866h269v866c-5 286-141 466-350 552-142 59-358 59-500 0-210-86-349-266-349-552v-866h269v865" id="F"/><path fill="#fff" fill-opacity=".6" d="M1377-1015c71 172 71 412 0 584C1271-174 1052 0 698 0H146v-1446h552c353 6 574 175 679 431zM698-214c307-9 457-198 457-509s-150-500-457-509H417v1018h281" id="G"/><g id="d"><use transform="matrix(0.00788888888888889,0,0,0.00788888888888889,0,0)" xlink:href="#x"/><use transform="matrix(0.00788888888888889,0,0,0.00788888888888889,10.792000000000002,0)" xlink:href="#F"/><use transform="matrix(0.00788888888888889,0,0,0.00788888888888889,22.278222222222226,0)" xlink:href="#G"/><use transform="matrix(0.00788888888888889,0,0,0.00788888888888889,34.07211111111111,0)" xlink:href="#v"/><use transform="matrix(0.00788888888888889,0,0,0.00788888888888889,39.02633333333333,0)" xlink:href="#u"/></g><path fill="#fff" fill-opacity=".6" d="M415-222h579V0H146v-1446h269v1224" id="H"/><path fill="#fff" fill-opacity=".6" d="M1480-1018c71 176 71 414 0 590-106 261-323 444-679 444S225-168 120-428c-71-176-71-414 0-590 106-261 324-444 681-444 355 0 573 184 679 444zM801-214c307 0 456-198 456-509s-149-510-456-510c-308 0-459 198-459 510s152 509 459 509" id="I"/><path fill="#fff" fill-opacity=".6" d="M1341-140C1204-38 1028 20 789 16c-350-5-566-186-673-442-73-175-71-420-1-596 107-266 333-435 699-440 235-2 404 78 526 189l-78 122c-45 78-131 10-176-17-110-67-334-90-474-29-171 74-275 233-275 474 0 251 105 414 283 489 144 62 360 37 477-26v-263H916c-88 2-46-125-56-202h481v585" id="J"/><g id="e"><use transform="matrix(0.00788888888888889,0,0,0.00788888888888889,0,0)" xlink:href="#H"/><use transform="matrix(0.00788888888888889,0,0,0.00788888888888889,7.526000000000001,0)" xlink:href="#I"/><use transform="matrix(0.00788888888888889,0,0,0.00788888888888889,20.140333333333334,0)" xlink:href="#J"/></g><path fill="#333" d="M519-204c146 0 246-70 241-211-6-175-195-185-333-232-183-63-339-153-333-400 5-199 120-319 272-380 126-51 311-44 437 5 72 27 133 64 184 112l-66 127c-15 40-64 51-105 25-64-41-136-87-246-85-132 3-224 54-224 182 0 167 202 176 334 227 173 67 333 144 333 381 0 227-120 364-289 433-138 56-353 39-478-16-80-35-154-80-210-138l78-129c23-34 74-43 115-13 73 54 157 112 290 112" id="K"/><path fill="#333" d="M1366 0h-271v-632H417V0H146v-1446h271v622h678v-622h271V0" id="L"/><g id="f"><use transform="matrix(0.009,0,0,0.009,0,0)" xlink:href="#K"/><use transform="matrix(0.009,0,0,0.009,9.657,0)" xlink:href="#K"/><use transform="matrix(0.009,0,0,0.009,19.314,0)" xlink:href="#L"/></g><path fill="#333" d="M1284-209C1170-69 1008 19 759 16c-347-4-553-182-649-442-66-178-66-423 6-596 108-261 330-435 688-440 220-3 375 79 488 188l-90 125c-16 32-68 39-102 12-71-55-162-101-298-96-304 11-465 201-465 510 0 241 101 401 267 477 125 58 330 39 424-24 42-17 97-111 150-54" id="M"/><path fill="#333" d="M395-1486V0H148v-1486h247" id="N"/><path fill="#333" d="M457 16c-234 0-346-155-346-390v-652h247v652c0 121 55 198 174 197 102-1 168-51 226-107v-742h247V0c-80-9-199 29-214-45l-17-82C697-50 608 16 457 16" id="O"/><path fill="#333" d="M254-198c95 60 334 64 323-83-9-119-156-122-253-159C192-490 72-550 72-729c0-214 163-309 387-313 145-3 264 55 338 127-26 36-45 82-77 111-69 21-111-33-176-48-103-23-247 0-238 102 11 114 156 118 251 155 126 49 251 100 251 270C808-59 575 48 294 6 192-9 106-54 42-110c28-39 43-95 83-120 49-31 96 11 129 32" id="P"/><path fill="#333" d="M738-75c-64 55-158 90-269 91-176 2-277-109-277-284v-573c-65-4-153 21-153-52v-98l165-27 52-280c10-66 115-35 183-42v323h270v176H439v556c-1 59 32 101 88 102 48 1 68-25 104-34 19 1 25 9 33 22" id="Q"/><path fill="#333" d="M991-153C899-47 760 15 568 15 237 15 63-197 63-535c0-237 116-392 287-467 61-27 129-40 206-40 287 0 444 174 444 465 0 54-3 95-57 95H309c4 226 158 349 385 292 52-13 93-39 132-62 32-19 73-16 93 9zM778-631c-4-143-73-234-217-234-154 0-226 95-247 234h464" id="R"/><path fill="#333" d="M604-806c-122 5-180 74-225 167V0H132v-1026c83 11 206-35 218 62l15 124c63-106 147-205 295-205 51 0 93 12 126 35l-32 185c-4 23-15 33-40 33-33 0-65-16-110-14" id="S"/><g id="g"><use transform="matrix(0.009,0,0,0.009,0,0)" xlink:href="#M"/><use transform="matrix(0.009,0,0,0.009,12.068999999999999,0)" xlink:href="#N"/><use transform="matrix(0.009,0,0,0.009,16.947,0)" xlink:href="#O"/><use transform="matrix(0.009,0,0,0.009,27.18,0)" xlink:href="#P"/><use transform="matrix(0.009,0,0,0.009,35.046,0)" xlink:href="#Q"/><use transform="matrix(0.009,0,0,0.009,42.01199999999999,0)" xlink:href="#R"/><use transform="matrix(0.009,0,0,0.009,51.632999999999996,0)" xlink:href="#S"/></g><linearGradient gradientUnits="userSpaceOnUse" id="h" x1="954.47" y1="619.9" x2="1040.65" y2="666.12"><stop offset="1.68%" stop-color="#999"/><stop offset="43.7%" stop-color="#333"/><stop offset="98.74%"/></linearGradient><linearGradient gradientUnits="userSpaceOnUse" id="i" x1="1072.4" y1="619.9" x2="1158.57" y2="666.12"><stop offset="1.68%" stop-color="#999"/><stop offset="43.7%" stop-color="#333"/><stop offset="98.74%"/></linearGradient><linearGradient gradientUnits="userSpaceOnUse" id="j" x1="1189.79" y1="619.9" x2="1275.97" y2="666.12"><stop offset="1.68%" stop-color="#999"/><stop offset="43.7%" stop-color="#333"/><stop offset="98.74%"/></linearGradient><path fill="#333" d="M398-581c6 222 109 364 330 364 220 0 331-140 331-363v-866h269v866c-5 286-141 466-350 552-142 59-358 59-500 0-210-86-349-266-349-552v-866h269v865" id="T"/><g id="k"><use transform="matrix(0.008888888888888889,0,0,0.008888888888888889,0,0)" xlink:href="#T"/><use transform="matrix(0.008888888888888889,0,0,0.008888888888888889,12.942222222222222,0)" xlink:href="#P"/><use transform="matrix(0.008888888888888889,0,0,0.008888888888888889,20.711111111111112,0)" xlink:href="#R"/><use transform="matrix(0.008888888888888889,0,0,0.008888888888888889,30.213333333333335,0)" xlink:href="#S"/></g><filter id="l" filterUnits="objectBoundingBox" x="-.11" y="-.12" width="1.25" height="1.38"><feOffset result="offOut" in="SourceAlpha" dx="2.05" dy="5.64"/><feGaussianBlur result="blurOut" in="offOut" stdDeviation="7.5"/><feColorMatrix result="colorOut" in="blurOut" values="0 0 0 0 0 0 0 0 0 0 0 0 0 0 0 0 0 0 0.14901960784313725 0"/><feBlend in="SourceGraphic" in2="colorOut"/></filter><path fill="#fff" d="M424-840c74 2 135-1 169-44l399-505c32-39 58-57 122-57h232L859-845c-28 33-52 59-89 78 50 19 80 49 111 90L1383 0h-238c-63 0-84-18-111-53L625-587c-28-35-53-49-116-49h-85V0H155v-1447h269v607" id="U"/><path fill="#fff" d="M457 16c-234 0-346-155-346-390v-652h247v652c0 121 55 198 174 197 102-1 168-51 226-107v-742h247V0c-80-9-199 29-214-45l-17-82C697-50 608 16 457 16" id="V"/><path fill="#fff" d="M638 15c-134 0-208-58-269-132-10 52-5 117-71 117H135v-1486h247v586c77-79 169-142 318-142 277 0 379 230 379 521 0 241-97 412-259 495-54 27-115 41-182 41zm186-536c0-181-37-329-209-329-117 0-175 55-233 124v460c48 61 104 93 199 93 187 0 243-152 243-348" id="W"/><path fill="#fff" d="M991-153C899-47 760 15 568 15 237 15 63-197 63-535c0-237 116-392 287-467 61-27 129-40 206-40 287 0 444 174 444 465 0 54-3 95-57 95H309c4 226 158 349 385 292 52-13 93-39 132-62 32-19 73-16 93 9zM778-631c-4-143-73-234-217-234-154 0-226 95-247 234h464" id="X"/><path fill="#fff" d="M604-806c-122 5-180 74-225 167V0H132v-1026c83 11 206-35 218 62l15 124c63-106 147-205 295-205 51 0 93 12 126 35l-32 185c-4 23-15 33-40 33-33 0-65-16-110-14" id="Y"/><path fill="#fff" d="M605-850c-102 1-168 52-226 108V0H132v-1026c80 9 198-29 214 45l17 81c77-76 165-142 317-142 235 0 346 154 346 389V0H779v-653c0-121-55-198-174-197" id="Z"/><path fill="#fff" d="M738-75c-64 55-158 90-269 91-176 2-277-109-277-284v-573c-65-4-153 21-153-52v-98l165-27 52-280c10-66 115-35 183-42v323h270v176H439v556c-1 59 32 101 88 102 48 1 68-25 104-34 19 1 25 9 33 22" id="aa"/><path fill="#fff" d="M254-198c95 60 334 64 323-83-9-119-156-122-253-159C192-490 72-550 72-729c0-214 163-309 387-313 145-3 264 55 338 127-26 36-45 82-77 111-69 21-111-33-176-48-103-23-247 0-238 102 11 114 156 118 251 155 126 49 251 100 251 270C808-59 575 48 294 6 192-9 106-54 42-110c28-39 43-95 83-120 49-31 96 11 129 32" id="ab"/><g id="m"><use transform="matrix(0.009,0,0,0.009,0,0)" xlink:href="#U"/><use transform="matrix(0.009,0,0,0.009,12.563999999999998,0)" xlink:href="#V"/><use transform="matrix(0.009,0,0,0.009,22.796999999999997,0)" xlink:href="#W"/><use transform="matrix(0.009,0,0,0.009,33.056999999999995,0)" xlink:href="#X"/><use transform="matrix(0.009,0,0,0.009,42.678,0)" xlink:href="#Y"/><use transform="matrix(0.009,0,0,0.009,50.031,0)" xlink:href="#Z"/><use transform="matrix(0.009,0,0,0.009,60.263999999999996,0)" xlink:href="#X"/><use transform="matrix(0.009,0,0,0.009,69.88499999999999,0)" xlink:href="#aa"/><use transform="matrix(0.009,0,0,0.009,76.85099999999998,0)" xlink:href="#X"/><use transform="matrix(0.009,0,0,0.009,86.47199999999998,0)" xlink:href="#ab"/></g><path fill="#fff" d="M1284-209C1170-69 1008 19 759 16c-347-4-553-182-649-442-66-178-66-423 6-596 108-261 330-435 688-440 220-3 375 79 488 188l-90 125c-16 32-68 39-102 12-71-55-162-101-298-96-304 11-465 201-465 510 0 241 101 401 267 477 125 58 330 39 424-24 42-17 97-111 150-54" id="ac"/><path fill="#fff" d="M395-1486V0H148v-1486h247" id="ad"/><g id="n"><use transform="matrix(0.009,0,0,0.009,0,0)" xlink:href="#ac"/><use transform="matrix(0.009,0,0,0.009,12.068999999999999,0)" xlink:href="#ad"/><use transform="matrix(0.009,0,0,0.009,16.947,0)" xlink:href="#V"/><use transform="matrix(0.009,0,0,0.009,27.18,0)" xlink:href="#ab"/><use transform="matrix(0.009,0,0,0.009,35.046,0)" xlink:href="#aa"/><use transform="matrix(0.009,0,0,0.009,42.01199999999999,0)" xlink:href="#X"/><use transform="matrix(0.009,0,0,0.009,51.632999999999996,0)" xlink:href="#Y"/></g><path fill="#fff" fill-opacity=".6" d="M424-840c74 2 135-1 169-44l399-505c32-39 58-57 122-57h232L859-845c-28 33-52 59-89 78 50 19 80 49 111 90L1383 0h-238c-63 0-84-18-111-53L625-587c-28-35-53-49-116-49h-85V0H155v-1447h269v607" id="ae"/><path fill="#fff" fill-opacity=".6" d="M1177-1061c0 181-116 262-257 314 199 45 298 152 298 322C1218-130 997 0 692 0H146v-1446h499c307 3 532 89 532 385zM952-431c0-152-108-202-265-203H415v424h273c163-1 264-65 264-221zm-43-598c0-163-94-209-264-209H415v418h215c168-1 279-50 279-209" id="af"/><path fill="#fff" fill-opacity=".6" d="M377-1009c4 38 6 82 6 121V0H146v-1446c71 6 174-24 211 20 269 320 519 661 779 990-5-42-7-87-7-131v-879h237V0c-64-4-144 10-192-10-14-6-28-19-41-36" id="ag"/><g id="p"><use transform="matrix(0.005666666666666667,0,0,0.005666666666666667,0,0)" xlink:href="#ae"/><use transform="matrix(0.005666666666666667,0,0,0.005666666666666667,7.910666666666668,0)" xlink:href="#F"/><use transform="matrix(0.005666666666666667,0,0,0.005666666666666667,16.161333333333335,0)" xlink:href="#af"/><use transform="matrix(0.005666666666666667,0,0,0.005666666666666667,23.545,0)" xlink:href="#s"/><use transform="matrix(0.005666666666666667,0,0,0.005666666666666667,30.033333333333335,0)" xlink:href="#t"/><use transform="matrix(0.005666666666666667,0,0,0.005666666666666667,37.45666666666667,0)" xlink:href="#ag"/><use transform="matrix(0.005666666666666667,0,0,0.005666666666666667,46.024666666666675,0)" xlink:href="#s"/><use transform="matrix(0.005666666666666667,0,0,0.005666666666666667,52.51300000000001,0)" xlink:href="#u"/><use transform="matrix(0.005666666666666667,0,0,0.005666666666666667,59.256333333333345,0)" xlink:href="#s"/><use transform="matrix(0.005666666666666667,0,0,0.005666666666666667,65.74466666666667,0)" xlink:href="#y"/></g><path fill="#fff" fill-opacity=".6" d="M1187-985c0 329-222 471-561 476H424V0H155v-1446h471c337 4 561 134 561 461zm-269 0c0-176-112-253-292-253H424v519h202c184-1 292-85 292-266" id="ah"/><path fill="#fff" fill-opacity=".6" d="M361-1005c121-49 297-49 417 0 184 74 298 236 298 490 0 330-178 530-506 530C241 15 61-185 61-515c0-254 115-416 300-490zm-45 492c0 201 65 338 254 338 188 0 251-137 251-338s-63-340-251-340c-189 0-254 139-254 340" id="ai"/><path fill="#fff" fill-opacity=".6" d="M502-1045c120-1 193 43 256 101v-542h247V0c-80-9-199 29-214-45l-20-99C693-58 601 15 441 15 163 15 61-217 61-510c0-241 98-411 259-494 54-27 115-41 182-41zM316-510c0 181 36 329 209 329 118 0 173-54 233-123v-460c-48-59-104-93-198-93-188 0-244 151-244 347" id="aj"/><g id="q"><use transform="matrix(0.005666666666666667,0,0,0.005666666666666667,0,0)" xlink:href="#ah"/><use transform="matrix(0.005666666666666667,0,0,0.005666666666666667,6.913333333333334,0)" xlink:href="#ai"/><use transform="matrix(0.005666666666666667,0,0,0.005666666666666667,13.356333333333334,0)" xlink:href="#aj"/></g></defs></g></svg>