<svg xmlns="http://www.w3.org/2000/svg" xmlns:xlink="http://www.w3.org/1999/xlink" xmlns:lucid="lucid" width="633" height="274"><g transform="translate(-434 -922)" lucid:page-tab-id="0_0"><path d="M476.28 985.27h119.98v60H476.28z" stroke="#000" stroke-opacity="0" stroke-width="2" fill="#fff" fill-opacity="0"/><use xlink:href="#a" transform="matrix(1,0,0,1,481.27793150571557,990.2674202503781) translate(36.26222222222222 17.546666666666667)"/><path d="M476.28 1027.66c0-2.2 1.8-4 4-4h111.98c2.2 0 4 1.8 4 4v70.06c0 2.2-1.8 4-4 4H480.28c-2.2 0-4-1.8-4-4z" stroke="#999" stroke-opacity=".4" stroke-width="2" fill="#fff" filter="url(#b)"/><path d="M543.83 1066.5c3.7 0 6.84.47 9.4 1.48 2.14.84 3.84 2 5.1 3.45 2.18 2.58 2.18 5.16 2.18 5.26 0 1.88-1.6 3.4-3.58 3.4h-26.17c-1.94 0-3.54-1.52-3.54-3.4v-.08c0-.4.15-2.82 2.2-5.2 1.25-1.45 2.94-2.6 5.03-3.44 2.57-1 5.72-1.5 9.4-1.5zm-19.2 1.48c.5 0 .93.04 1.36.04.67.03 1.2.63 1.16 1.3 0 .65-.63 1.17-1.3 1.14-.4-.04-.8-.04-1.22-.04-9.8 0-10.1 5.75-10.1 6.06 0 .67.6 1.2 1.28 1.2h7.56c.72 0 1.26.55 1.26 1.2 0 .67-.54 1.23-1.26 1.23h-7.56c-2.1 0-3.8-1.63-3.8-3.62v-.06c0-.4.16-2.37 1.7-4.33.93-1.22 2.24-2.17 3.84-2.86 1.94-.84 4.3-1.26 7.08-1.26zm19.2.77c-5.86 0-10.18 1.4-12.5 4-1.7 1.92-1.75 3.87-1.75 3.94 0 .62.53 1.14 1.17 1.14h26.17c.68 0 1.2-.52 1.2-1.15 0-.08-.08-2.03-1.73-3.94-2.34-2.62-6.7-4-12.57-4zm-19.68-15.92c4.17 0 7.56 3.06 7.56 6.83 0 3.76-3.38 6.83-7.55 6.83s-7.56-3.08-7.56-6.84c0-3.77 3.38-6.83 7.55-6.83zm0 2.3c-2.76 0-5.04 2.02-5.04 4.53 0 2.5 2.3 4.53 5.05 4.53 2.77 0 5.04-2.03 5.04-4.54 0-2.5-2.28-4.53-5.05-4.53zm18.96-9.86c5.44 0 9.85 4.07 9.85 9.1 0 5-4.4 9.08-9.84 9.08-5.42 0-9.83-4.07-9.83-9.1 0-5 4.4-9.08 9.84-9.08zm0 2.26c-4.07 0-7.4 3.07-7.4 6.83 0 3.76 3.33 6.83 7.4 6.83 4.08 0 7.37-3.08 7.37-6.84s-3.3-6.83-7.36-6.83z" stroke="#000" stroke-opacity="0" fill="#8e24aa"/><path d="M621.38 1068.2h34.13" stroke="#7f34aa" stroke-width="2" fill="none"/><path d="M606.12 1068.2l14.26-4.63v9.27zM670.78 1068.2l-14.27 4.64v-9.27z" stroke="#7f34aa" stroke-width="2" fill="#7f34aa"/><path d="M680.97 968c0-4.42 3.58-8 8-8h334.97c4.42 0 8 3.58 8 8v184c0 4.42-3.58 8-8 8H688.97c-4.42 0-8-3.58-8-8z" stroke="#000" stroke-opacity=".12" stroke-width="2" fill="#2c62e2"/><path d="M738.53 965h240v42.1h-240z" stroke="#000" stroke-opacity="0" stroke-width="2" fill="#2c62e2"/><use xlink:href="#c" transform="matrix(1,0,0,1,743.527700911488,969.9999999999999) translate(36.60100000000001 23.9535)"/><use xlink:href="#d" transform="matrix(1,0,0,1,743.527700911488,969.9999999999999) translate(134.413 23.9535)"/><path d="M697.5 1014.3c0-2.2 1.8-4 4-4H1015c2.22 0 4 1.8 4 4v128.23c0 2.2-1.78 4-4 4H701.5c-2.2 0-4-1.8-4-4z" stroke="#fff" stroke-opacity=".3" stroke-width="1.5" fill-opacity="0"/><path d="M714.13 1063.18c0-2.2 1.8-4 4-4h72.27c2.2 0 4 1.8 4 4v70.07c0 2.2-1.8 4-4 4h-72.27c-2.2 0-4-1.8-4-4z" stroke="#fff" stroke-opacity=".3" stroke-width="1.5" fill-opacity="0"/><use xlink:href="#e" transform="matrix(1,0,0,1,719.1304676515695,1064.1806258091783) translate(35.5 38.62916666666667)"/><path d="M820.47 1063.18c0-2.2 1.8-4 4-4h72.26c2.2 0 4 1.8 4 4v70.07c0 2.2-1.8 4-4 4h-72.26c-2.2 0-4-1.8-4-4z" stroke="#fff" stroke-opacity=".3" stroke-width="1.5" fill-opacity="0"/><use xlink:href="#e" transform="matrix(1,0,0,1,825.4688711520114,1064.180625809062) translate(35.5 38.62916666666667)"/><path d="M926.8 1062.67c0-2.2 1.8-4 4-4h72.27c2.2 0 4 1.8 4 4v70.06c0 2.2-1.8 4-4 4H930.8c-2.2 0-4-1.8-4-4z" stroke="#fff" stroke-opacity=".3" stroke-width="1.5" fill-opacity="0"/><use xlink:href="#e" transform="matrix(1,0,0,1,931.8072746524533,1063.6687256907426) translate(35.5 38.62916666666667)"/><path d="M814.2 1020c.2 0 .45.02.67.14l8.45 4.06c.4.2.75.56.9 1l2.08 9.08c.07.47-.05.94-.32 1.34l-5.86 7.25c-.3.42-.77.63-1.26.6h-9.3c-.48-.06-.94-.27-1.28-.6l-5.83-7.25c-.3-.4-.4-.87-.32-1.34l2.08-9.12c.1-.47.43-.82.84-1.03l8.45-4.08c.2-.05.45-.05.7-.05zm-.42 3.2c-.1.13-.17.27-.17.4v.13c0 .12.03.2.08.33.02.04.02.1.02.16v.03c.05.28.05.58.05.9-.02.08-.05.17-.14.22v.05l-.02.2c-.3.06-.6.1-.92.15-1.28.28-2.47.94-3.36 1.88l-.17-.1h-.03c-.02 0-.04.03-.1.03-.07 0-.1-.03-.16-.05-.24-.2-.5-.4-.68-.63-.05-.05-.1-.07-.12-.1-.07-.1-.15-.16-.22-.26l-.07-.04-.03-.03c-.12-.07-.26-.14-.38-.14-.17 0-.32.07-.4.2-.16.25-.1.55.1.74.05 0 .05.05.05.05s.04.05.07.05l.3.16.16.07c.26.16.55.33.77.54.05.05.07.12.07.2l.17.17-.07.16c-.85 1.3-1.2 2.88-.97 4.4l-.2.05c0 .04-.04.04-.04.04-.02.1-.12.14-.2.18-.28.1-.6.14-.9.17h-.18c-.12 0-.22.03-.34.03-.03 0-.05.05-.1.05l-.07.02c-.27.05-.46.3-.44.54v.07c.08.25.32.4.56.4.04 0 .06 0 .14-.03.02 0 .02 0 .02-.03 0-.02.07 0 .1 0 .12-.02.2-.1.3-.1.06-.04.1-.06.16-.06h.05c.3-.12.55-.2.9-.24h.02c.06 0 .15.03.2.07.03 0 .03.04.03.04l.24-.03c.4 1.26 1.2 2.36 2.25 3.16.24.2.46.35.73.5l-.12.18c0 .02.02.02.02.02.05.1.05.2.03.28-.13.26-.27.52-.44.78v.02c-.02.05-.05.07-.12.14-.05.05-.1.17-.2.26-.02.02-.02.05-.04.1 0 0 0 .02-.03.02-.14.25-.02.58.22.72.05.03.15.05.2.05.2 0 .4-.14.5-.33 0 0 0-.02.05-.02 0-.02.02-.05.05-.07.02-.1.07-.18.1-.3l.07-.16c.07-.28.22-.56.34-.82.07-.1.14-.14.22-.17.02 0 .02 0 .02-.02l.12-.23c.78.3 1.55.44 2.37.44.52 0 1-.07 1.5-.2.3-.06.6-.15.86-.24l.12.18c.03 0 .03 0 .03.05.08.02.18.07.23.14.14.28.26.54.36.85v.02l.04.16c.02.12.05.2.1.3.04.03.04.06.07.08 0 0 0 .02.03.02.1.2.3.33.5.33.1 0 .15-.02.23-.05.12-.07.2-.16.24-.3.05-.14.05-.26-.03-.4 0-.02-.02-.02-.02-.02 0-.03-.02-.07-.05-.1-.05-.1-.12-.2-.2-.26-.02-.04-.04-.1-.1-.14v-.04c-.18-.26-.33-.52-.45-.78-.02-.1-.02-.18.05-.28 0-.02.02-.02.02-.02l-.1-.2c1.4-.86 2.48-2.15 2.96-3.67l.22.02c.02 0 .02-.03.02-.03.08-.05.15-.1.22-.1h.05c.28.07.57.14.86.26h.03c.03.03.08.05.16.05.1.05.16.12.3.14 0 0 .03.02.1.02.03 0 .03 0 .06.03.04.02.07.02.12.02.26 0 .48-.17.55-.4-.03-.27-.25-.5-.5-.55-.02 0-.06 0-.06-.02 0-.03-.05-.03-.1-.03-.07-.02-.15-.02-.22-.02h-.12c-.05 0-.1 0-.14-.05h-.05c-.28-.02-.62-.07-.9-.14-.1-.03-.13-.1-.18-.15l-.03-.04-.22-.06c.12-.78.04-1.58-.1-2.37-.2-.78-.53-1.53-.97-2.2l.18-.15v-.05c0-.07.02-.18.07-.23.24-.2.5-.38.78-.54l.17-.07c.1-.07.2-.12.3-.16 0-.03.04-.03.06-.05.05-.05 0-.05 0-.07.27-.2.3-.52.12-.75-.07-.1-.24-.2-.4-.2-.1 0-.25.06-.37.15l-.02.02c-.02.03-.05.05-.07.05-.1.1-.16.17-.2.26-.03.05-.1.07-.13.1-.2.2-.44.44-.68.58-.06.05-.1.07-.18.07-.02 0-.07 0-.1-.02h-.02l-.22.12c-.2-.2-.48-.42-.7-.63-1-.78-2.25-1.28-3.53-1.42l-.03-.2c-.1-.03-.12-.13-.14-.2 0-.3 0-.58.04-.9v-.03l.03-.17c.02-.12.02-.2.07-.33v-.16c.03-.27-.2-.55-.48-.57-.15-.03-.32.07-.46.18zm.55 11.53c.08.05.13.12.22.2l1.3 2.33c-.16.03-.33.05-.52.1-.37.1-.75.14-1.17.14-.58 0-1.18-.12-1.7-.26l1.32-2.4c.14-.16.36-.23.55-.1zm-2.5-1.15c.23 0 .45.12.47.35.02.07.02.2-.02.26l-1.04 2.45c-.95-.6-1.72-1.54-2.1-2.62l2.7-.45zm4.64-.05l2.73.47c-.14.38-.3.73-.53 1.04-.4.63-.97 1.2-1.65 1.6l-1.06-2.52c-.05-.23.07-.45.26-.52.08-.02.15-.07.25-.07zm-1.9-2.13l.52.63-.2.8-.74.33-.75-.33-.16-.8.5-.63h.84zm4.12-1.92c.3.5.53 1.03.65 1.6.14.55.17 1.12.12 1.68l-2.6-.73c-.24-.04-.38-.28-.33-.54.02-.08.05-.12.12-.2l2.03-1.82zm-9.1 0l2.02 1.78c.2.16.22.42.05.6-.05.1-.1.13-.22.15l-2.64.76c-.08-1.13.2-2.28.8-3.28zm3.9-2.47l-.16 2.7c0 .25-.22.43-.46.43-.1 0-.14-.02-.22-.04l-2.27-1.6c.7-.7 1.6-1.16 2.53-1.37l.56-.12zm1.3.04c1.2.14 2.27.65 3.07 1.45l-2.23 1.54c-.2.12-.46.1-.6-.1-.05-.04-.08-.1-.08-.18l-.17-2.72z" stroke="#000" stroke-opacity="0" fill="#fff" fill-opacity=".3"/><path d="M819.1 1021.02h100v20h-100z" stroke="#000" stroke-opacity="0" stroke-width="2" fill="#fff" fill-opacity="0"/><use xlink:href="#f" transform="matrix(1,0,0,1,824.0954770690378,1026.0238002368715) translate(9.087499999999999 11.186)"/><path d="M729.7 1091.06h49.14v20H729.7z" stroke="#000" stroke-opacity="0" stroke-width="2" fill="#fff" fill-opacity="0"/><use xlink:href="#g" transform="matrix(1,0,0,1,734.6892974110751,1096.059070664845) translate(-1.3208333333333329 11.186)"/><use xlink:href="#h" transform="matrix(1,0,0,1,734.6892974110751,1096.059070664845) translate(10.091833333333332 24.786)"/><path d="M836.03 1091.06h49.14v20h-49.14z" stroke="#000" stroke-opacity="0" stroke-width="2" fill="#fff" fill-opacity="0"/><use xlink:href="#h" transform="matrix(1,0,0,1,841.0277009115171,1096.059070664845) translate(10.091833333333332 11.186)"/><path d="M942.37 1091.06h49.14v20h-49.13z" stroke="#000" stroke-opacity="0" stroke-width="2" fill="#fff" fill-opacity="0"/><use xlink:href="#h" transform="matrix(1,0,0,1,947.366104411959,1096.059070664845) translate(10.091833333333332 11.186)"/><path d="M765.42 1081.76c.16.12.23.33.14.52-.45 1.42-1.25 2.78-2.23 3.92-.13.16-.33.2-.5.14l-2.83-1c-.7.57-1.5 1.02-2.34 1.38l-.55 2.96c-.04.17-.2.36-.4.38-.73.14-1.46.2-2.22.2-.75 0-1.5-.06-2.22-.2-.2-.02-.36-.2-.4-.38l-.56-2.96c-.84-.36-1.64-.8-2.33-1.38l-2.82 1c-.18.07-.38.02-.52-.14-.97-1.14-1.77-2.5-2.22-3.92-.08-.2 0-.4.14-.52l2.25-1.97c-.1-.44-.12-.9-.12-1.38 0-.45.02-.93.1-1.38l-2.24-1.97c-.15-.12-.22-.33-.13-.52.46-1.42 1.26-2.78 2.23-3.9.14-.16.34-.23.52-.13l2.82 1c.7-.6 1.5-1.05 2.33-1.38l.56-2.97c.04-.2.2-.38.4-.38 1.47-.3 2.98-.3 4.45 0 .2 0 .36.18.4.37l.56 2.97c.85.33 1.63.78 2.34 1.37l2.82-.98c.18-.1.38-.03.5.14 1 1.1 1.8 2.47 2.24 3.9.1.18.02.4-.14.5l-2.24 1.98c.1.45.1.93.1 1.38 0 .47 0 .94-.1 1.37l2.24 1.96zm-10.9 4.3c4.17 0 7.57-3.42 7.57-7.64 0-4.23-3.4-7.64-7.6-7.64-4.2 0-7.58 3.4-7.58 7.64 0 4.22 3.38 7.63 7.6 7.63zm0-.96c-3.68 0-6.64-2.98-6.64-6.68 0-3.7 2.96-6.7 6.63-6.7 3.65 0 6.63 3 6.63 6.7s-2.98 6.68-6.62 6.68zm-3.73-9.8v1.86h2.77v4.7h2.16v-4.7h2.78v-1.87h-7.7z" stroke="#000" stroke-opacity="0" fill="#fff" fill-opacity=".6"/><defs><path fill="#333" d="M398-581c6 222 109 364 330 364 220 0 331-140 331-363v-866h269v866c-5 286-141 466-350 552-142 59-358 59-500 0-210-86-349-266-349-552v-866h269v865" id="i"/><path fill="#333" d="M254-198c95 60 334 64 323-83-9-119-156-122-253-159C192-490 72-550 72-729c0-214 163-309 387-313 145-3 264 55 338 127-26 36-45 82-77 111-69 21-111-33-176-48-103-23-247 0-238 102 11 114 156 118 251 155 126 49 251 100 251 270C808-59 575 48 294 6 192-9 106-54 42-110c28-39 43-95 83-120 49-31 96 11 129 32" id="j"/><path fill="#333" d="M991-153C899-47 760 15 568 15 237 15 63-197 63-535c0-237 116-392 287-467 61-27 129-40 206-40 287 0 444 174 444 465 0 54-3 95-57 95H309c4 226 158 349 385 292 52-13 93-39 132-62 32-19 73-16 93 9zM778-631c-4-143-73-234-217-234-154 0-226 95-247 234h464" id="k"/><path fill="#333" d="M604-806c-122 5-180 74-225 167V0H132v-1026c83 11 206-35 218 62l15 124c63-106 147-205 295-205 51 0 93 12 126 35l-32 185c-4 23-15 33-40 33-33 0-65-16-110-14" id="l"/><g id="a"><use transform="matrix(0.008888888888888889,0,0,0.008888888888888889,0,0)" xlink:href="#i"/><use transform="matrix(0.008888888888888889,0,0,0.008888888888888889,12.942222222222222,0)" xlink:href="#j"/><use transform="matrix(0.008888888888888889,0,0,0.008888888888888889,20.711111111111112,0)" xlink:href="#k"/><use transform="matrix(0.008888888888888889,0,0,0.008888888888888889,30.213333333333335,0)" xlink:href="#l"/></g><filter id="b" filterUnits="objectBoundingBox" x="-.11" y="-.12" width="1.25" height="1.38"><feOffset result="offOut" in="SourceAlpha" dx="2.05" dy="5.64"/><feGaussianBlur result="blurOut" in="offOut" stdDeviation="7.5"/><feColorMatrix result="colorOut" in="blurOut" values="0 0 0 0 0 0 0 0 0 0 0 0 0 0 0 0 0 0 0.14901960784313725 0"/><feBlend in="SourceGraphic" in2="colorOut"/></filter><path fill="#fff" d="M424-840c74 2 135-1 169-44l399-505c32-39 58-57 122-57h232L859-845c-28 33-52 59-89 78 50 19 80 49 111 90L1383 0h-238c-63 0-84-18-111-53L625-587c-28-35-53-49-116-49h-85V0H155v-1447h269v607" id="m"/><path fill="#fff" d="M457 16c-234 0-346-155-346-390v-652h247v652c0 121 55 198 174 197 102-1 168-51 226-107v-742h247V0c-80-9-199 29-214-45l-17-82C697-50 608 16 457 16" id="n"/><path fill="#fff" d="M638 15c-134 0-208-58-269-132-10 52-5 117-71 117H135v-1486h247v586c77-79 169-142 318-142 277 0 379 230 379 521 0 241-97 412-259 495-54 27-115 41-182 41zm186-536c0-181-37-329-209-329-117 0-175 55-233 124v460c48 61 104 93 199 93 187 0 243-152 243-348" id="o"/><path fill="#fff" d="M991-153C899-47 760 15 568 15 237 15 63-197 63-535c0-237 116-392 287-467 61-27 129-40 206-40 287 0 444 174 444 465 0 54-3 95-57 95H309c4 226 158 349 385 292 52-13 93-39 132-62 32-19 73-16 93 9zM778-631c-4-143-73-234-217-234-154 0-226 95-247 234h464" id="p"/><path fill="#fff" d="M604-806c-122 5-180 74-225 167V0H132v-1026c83 11 206-35 218 62l15 124c63-106 147-205 295-205 51 0 93 12 126 35l-32 185c-4 23-15 33-40 33-33 0-65-16-110-14" id="q"/><path fill="#fff" d="M605-850c-102 1-168 52-226 108V0H132v-1026c80 9 198-29 214 45l17 81c77-76 165-142 317-142 235 0 346 154 346 389V0H779v-653c0-121-55-198-174-197" id="r"/><path fill="#fff" d="M738-75c-64 55-158 90-269 91-176 2-277-109-277-284v-573c-65-4-153 21-153-52v-98l165-27 52-280c10-66 115-35 183-42v323h270v176H439v556c-1 59 32 101 88 102 48 1 68-25 104-34 19 1 25 9 33 22" id="s"/><path fill="#fff" d="M254-198c95 60 334 64 323-83-9-119-156-122-253-159C192-490 72-550 72-729c0-214 163-309 387-313 145-3 264 55 338 127-26 36-45 82-77 111-69 21-111-33-176-48-103-23-247 0-238 102 11 114 156 118 251 155 126 49 251 100 251 270C808-59 575 48 294 6 192-9 106-54 42-110c28-39 43-95 83-120 49-31 96 11 129 32" id="t"/><g id="c"><use transform="matrix(0.009,0,0,0.009,0,0)" xlink:href="#m"/><use transform="matrix(0.009,0,0,0.009,12.563999999999998,0)" xlink:href="#n"/><use transform="matrix(0.009,0,0,0.009,22.796999999999997,0)" xlink:href="#o"/><use transform="matrix(0.009,0,0,0.009,33.056999999999995,0)" xlink:href="#p"/><use transform="matrix(0.009,0,0,0.009,42.678,0)" xlink:href="#q"/><use transform="matrix(0.009,0,0,0.009,50.031,0)" xlink:href="#r"/><use transform="matrix(0.009,0,0,0.009,60.263999999999996,0)" xlink:href="#p"/><use transform="matrix(0.009,0,0,0.009,69.88499999999999,0)" xlink:href="#s"/><use transform="matrix(0.009,0,0,0.009,76.85099999999998,0)" xlink:href="#p"/><use transform="matrix(0.009,0,0,0.009,86.47199999999998,0)" xlink:href="#t"/></g><path fill="#fff" d="M1284-209C1170-69 1008 19 759 16c-347-4-553-182-649-442-66-178-66-423 6-596 108-261 330-435 688-440 220-3 375 79 488 188l-90 125c-16 32-68 39-102 12-71-55-162-101-298-96-304 11-465 201-465 510 0 241 101 401 267 477 125 58 330 39 424-24 42-17 97-111 150-54" id="u"/><path fill="#fff" d="M395-1486V0H148v-1486h247" id="v"/><g id="d"><use transform="matrix(0.009,0,0,0.009,0,0)" xlink:href="#u"/><use transform="matrix(0.009,0,0,0.009,12.068999999999999,0)" xlink:href="#v"/><use transform="matrix(0.009,0,0,0.009,16.947,0)" xlink:href="#n"/><use transform="matrix(0.009,0,0,0.009,27.18,0)" xlink:href="#t"/><use transform="matrix(0.009,0,0,0.009,35.046,0)" xlink:href="#s"/><use transform="matrix(0.009,0,0,0.009,42.01199999999999,0)" xlink:href="#p"/><use transform="matrix(0.009,0,0,0.009,51.632999999999996,0)" xlink:href="#q"/></g><path fill="#fff" fill-opacity=".6" d="M424-840c74 2 135-1 169-44l399-505c32-39 58-57 122-57h232L859-845c-28 33-52 59-89 78 50 19 80 49 111 90L1383 0h-238c-63 0-84-18-111-53L625-587c-28-35-53-49-116-49h-85V0H155v-1447h269v607" id="w"/><path fill="#fff" fill-opacity=".6" d="M398-581c6 222 109 364 330 364 220 0 331-140 331-363v-866h269v866c-5 286-141 466-350 552-142 59-358 59-500 0-210-86-349-266-349-552v-866h269v865" id="x"/><path fill="#fff" fill-opacity=".6" d="M1177-1061c0 181-116 262-257 314 199 45 298 152 298 322C1218-130 997 0 692 0H146v-1446h499c307 3 532 89 532 385zM952-431c0-152-108-202-265-203H415v424h273c163-1 264-65 264-221zm-43-598c0-163-94-209-264-209H415v418h215c168-1 279-50 279-209" id="y"/><path fill="#fff" fill-opacity=".6" d="M1058-1446v214H417v401h505v207H417v409h641V0H146v-1446h912" id="z"/><path fill="#fff" fill-opacity=".6" d="M1153-1030c0 232-137 352-319 413 34 19 63 47 88 83L1284 0h-242c-51 0-80-22-101-54L637-517c-24-34-42-48-98-48H424V0H155v-1446h441c324 4 557 105 557 416zm-263 20c0-163-114-229-294-228H424v480h168c180-3 298-77 298-252" id="A"/><path fill="#fff" fill-opacity=".6" d="M377-1009c4 38 6 82 6 121V0H146v-1446c71 6 174-24 211 20 269 320 519 661 779 990-5-42-7-87-7-131v-879h237V0c-64-4-144 10-192-10-14-6-28-19-41-36" id="B"/><path fill="#fff" fill-opacity=".6" d="M1165-1446v221H730V0H461v-1225H24v-221h1141" id="C"/><path fill="#fff" fill-opacity=".6" d="M519-204c146 0 246-70 241-211-6-175-195-185-333-232-183-63-339-153-333-400 5-199 120-319 272-380 126-51 311-44 437 5 72 27 133 64 184 112l-66 127c-15 40-64 51-105 25-64-41-136-87-246-85-132 3-224 54-224 182 0 167 202 176 334 227 173 67 333 144 333 381 0 227-120 364-289 433-138 56-353 39-478-16-80-35-154-80-210-138l78-129c23-34 74-43 115-13 73 54 157 112 290 112" id="D"/><g id="f"><use transform="matrix(0.005666666666666667,0,0,0.005666666666666667,0,0)" xlink:href="#w"/><use transform="matrix(0.005666666666666667,0,0,0.005666666666666667,7.910666666666668,0)" xlink:href="#x"/><use transform="matrix(0.005666666666666667,0,0,0.005666666666666667,16.161333333333335,0)" xlink:href="#y"/><use transform="matrix(0.005666666666666667,0,0,0.005666666666666667,23.545,0)" xlink:href="#z"/><use transform="matrix(0.005666666666666667,0,0,0.005666666666666667,30.033333333333335,0)" xlink:href="#A"/><use transform="matrix(0.005666666666666667,0,0,0.005666666666666667,37.45666666666667,0)" xlink:href="#B"/><use transform="matrix(0.005666666666666667,0,0,0.005666666666666667,46.024666666666675,0)" xlink:href="#z"/><use transform="matrix(0.005666666666666667,0,0,0.005666666666666667,52.51300000000001,0)" xlink:href="#C"/><use transform="matrix(0.005666666666666667,0,0,0.005666666666666667,59.256333333333345,0)" xlink:href="#z"/><use transform="matrix(0.005666666666666667,0,0,0.005666666666666667,65.74466666666667,0)" xlink:href="#D"/></g><path fill="#fff" fill-opacity=".6" d="M991-153C899-47 760 15 568 15 237 15 63-197 63-535c0-237 116-392 287-467 61-27 129-40 206-40 287 0 444 174 444 465 0 54-3 95-57 95H309c4 226 158 349 385 292 52-13 93-39 132-62 32-19 73-16 93 9zM778-631c-4-143-73-234-217-234-154 0-226 95-247 234h464" id="E"/><path fill="#fff" fill-opacity=".6" d="M395-1486V0H148v-1486h247" id="F"/><path fill="#fff" fill-opacity=".6" d="M635 15C514 15 442-25 379-85v420H132v-1361c64 5 145-11 192 11 33 24 28 86 42 129 78-86 174-159 331-159 277 0 379 232 379 524 0 241-96 412-258 495-54 27-116 41-183 41zm186-536c0-181-37-329-209-329-117 0-175 55-233 124v460c48 60 104 93 198 93 188 0 244-152 244-348" id="G"/><path fill="#fff" fill-opacity=".6" d="M361-1005c121-49 297-49 417 0 184 74 298 236 298 490 0 330-178 530-506 530C241 15 61-185 61-515c0-254 115-416 300-490zm-45 492c0 201 65 338 254 338 188 0 251-137 251-338s-63-340-251-340c-189 0-254 139-254 340" id="H"/><path fill="#fff" fill-opacity=".6" d="M604-806c-122 5-180 74-225 167V0H132v-1026c83 11 206-35 218 62l15 124c63-106 147-205 295-205 51 0 93 12 126 35l-32 185c-4 23-15 33-40 33-33 0-65-16-110-14" id="I"/><path fill="#fff" fill-opacity=".6" d="M738-75c-64 55-158 90-269 91-176 2-277-109-277-284v-573c-65-4-153 21-153-52v-98l165-27 52-280c10-66 115-35 183-42v323h270v176H439v556c-1 59 32 101 88 102 48 1 68-25 104-34 19 1 25 9 33 22" id="J"/><g id="g"><use transform="matrix(0.005666666666666667,0,0,0.005666666666666667,0,0)" xlink:href="#C"/><use transform="matrix(0.005666666666666667,0,0,0.005666666666666667,5.5873333333333335,0)" xlink:href="#E"/><use transform="matrix(0.005666666666666667,0,0,0.005666666666666667,11.645000000000001,0)" xlink:href="#F"/><use transform="matrix(0.005666666666666667,0,0,0.005666666666666667,14.716333333333331,0)" xlink:href="#E"/><use transform="matrix(0.005666666666666667,0,0,0.005666666666666667,20.774,0)" xlink:href="#G"/><use transform="matrix(0.005666666666666667,0,0,0.005666666666666667,27.183000000000003,0)" xlink:href="#H"/><use transform="matrix(0.005666666666666667,0,0,0.005666666666666667,33.626,0)" xlink:href="#I"/><use transform="matrix(0.005666666666666667,0,0,0.005666666666666667,38.25566666666666,0)" xlink:href="#J"/></g><path fill="#fff" fill-opacity=".6" d="M1187-985c0 329-222 471-561 476H424V0H155v-1446h471c337 4 561 134 561 461zm-269 0c0-176-112-253-292-253H424v519h202c184-1 292-85 292-266" id="K"/><path fill="#fff" fill-opacity=".6" d="M502-1045c120-1 193 43 256 101v-542h247V0c-80-9-199 29-214-45l-20-99C693-58 601 15 441 15 163 15 61-217 61-510c0-241 98-411 259-494 54-27 115-41 182-41zM316-510c0 181 36 329 209 329 118 0 173-54 233-123v-460c-48-59-104-93-198-93-188 0-244 151-244 347" id="L"/><g id="h"><use transform="matrix(0.005666666666666667,0,0,0.005666666666666667,0,0)" xlink:href="#K"/><use transform="matrix(0.005666666666666667,0,0,0.005666666666666667,6.913333333333334,0)" xlink:href="#H"/><use transform="matrix(0.005666666666666667,0,0,0.005666666666666667,13.356333333333334,0)" xlink:href="#L"/></g></defs></g></svg>