<?xml version="1.0" encoding="utf-8"?>
<!-- Generator: Adobe Illustrator 16.0.0, SVG Export Plug-In . SVG Version: 6.00 Build 0)  -->
<!DOCTYPE svg PUBLIC "-//W3C//DTD SVG 1.1//EN" "http://www.w3.org/Graphics/SVG/1.1/DTD/svg11.dtd">
<svg version="1.1" id="Layer_1" xmlns="http://www.w3.org/2000/svg" xmlns:xlink="http://www.w3.org/1999/xlink" x="0px" y="0px"
	 width="220px" height="220px" viewBox="0 0 150 150" enable-background="new 0 0 150 150" xml:space="preserve">
<g id="Layer_1_1_" display="none">
	<g display="inline">
		<g>
			<path fill="#006699" d="M56.732,126.843L25.245,95.354l51.78-51.779l31.486,31.486L56.732,126.843z M28.135,95.354l28.598,28.6
				l48.892-48.892l-28.6-28.598L28.135,95.354z"/>
		</g>
	</g>
	<g display="inline">
		<g>
			<path fill="#006699" d="M40.795,141.762l-30.282-30.318l1.365-0.603c2.844-1.254,5.87-1.89,8.993-1.89
				c5.946,0,11.538,2.316,15.744,6.521c6.218,6.217,8.175,16.438,4.762,24.856L40.795,141.762z M14.109,112.152l25.905,25.934
				c2.34-7.367,0.45-15.873-4.845-21.169c-3.822-3.817-8.9-5.923-14.3-5.923C18.542,110.994,16.275,111.385,14.109,112.152z"/>
		</g>
	</g>
	<g display="inline">
		<g>
			
				<rect x="23.045" y="124.883" transform="matrix(-0.7071 -0.7071 0.7071 -0.7071 -49.4403 235.567)" fill="#006699" width="2.044" height="6.28"/>
		</g>
	</g>
	<g display="inline">
		<g>
			<path fill="#006699" d="M22.417,133.006c-0.949,0.953-2.491,0.953-3.441,0c-0.951-0.949-0.951-2.49,0-3.441
				c0.95-0.948,2.49-0.948,3.441,0C23.368,130.516,23.368,132.057,22.417,133.006z"/>
		</g>
	</g>
	<g display="inline">
		<circle fill="#006699" cx="98.451" cy="53.897" r="4.407"/>
	</g>
	<g display="inline">
		<g>
			<circle fill="#006699" cx="39.891" cy="90.186" r="2.434"/>
		</g>
	</g>
	<g display="inline">
		<g>
			<circle fill="#006699" cx="44.584" cy="94.88" r="2.435"/>
		</g>
	</g>
	<g display="inline">
		<g>
			
				<rect x="33.456" y="96.368" transform="matrix(-0.7072 -0.7071 0.7071 -0.7072 24.5217 204.9366)" fill="#006699" width="42.489" height="2.044"/>
		</g>
	</g>
	<g display="inline">
		<g>
			
				<rect x="83.051" y="61.499" transform="matrix(-0.7076 -0.7066 0.7066 -0.7076 83.997 203.3434)" fill="#006699" width="2.043" height="45.587"/>
		</g>
	</g>
	<g display="inline">
		<g>
			<path fill="#006699" d="M129.915,143.998l-40.877-40.875l15.84-15.84l40.876,40.875L129.915,143.998z M91.93,103.123
				l37.985,37.984l12.949-12.949l-37.986-37.986L91.93,103.123z"/>
		</g>
	</g>
	<g display="inline">
		<g>
			
				<rect x="89.517" y="114.617" transform="matrix(-0.7071 -0.7071 0.7071 -0.7071 118.6428 280.4208)" fill="#006699" width="55.762" height="2.044"/>
		</g>
	</g>
	<g display="inline">
		<g>
			
				<rect x="126.607" y="115.683" transform="matrix(-0.7069 -0.7073 0.7073 -0.7069 128.8196 305.1079)" fill="#006699" width="2.046" height="20.358"/>
		</g>
	</g>
	<g display="inline">
		<g>
			
				<rect x="116.891" y="105.981" transform="matrix(-0.7064 -0.7078 0.7078 -0.7064 118.984 281.6758)" fill="#006699" width="2.043" height="20.358"/>
		</g>
	</g>
	<g display="inline">
		<g>
			
				<rect x="106.774" y="95.862" transform="matrix(-0.7076 -0.7066 0.7066 -0.7076 109.1397 257.246)" fill="#006699" width="2.045" height="20.359"/>
		</g>
	</g>
	<g display="inline">
		<g>
			<path fill="#006699" d="M49.485,63.57L8.611,22.695l15.84-15.84l40.876,40.876L49.485,63.57z M11.501,22.695l37.984,37.988
				l12.953-12.952L24.452,9.745L11.501,22.695z"/>
		</g>
	</g>
	<g display="inline">
		<g>
			
				<rect x="9.088" y="34.191" transform="matrix(-0.7071 -0.7071 0.7071 -0.7071 38.2128 86.2522)" fill="#006699" width="55.764" height="2.043"/>
		</g>
	</g>
	<g display="inline">
		<g>
			
				<rect x="46.17" y="35.257" transform="matrix(-0.7071 -0.7071 0.7071 -0.7071 48.4341 110.9336)" fill="#006699" width="2.044" height="20.358"/>
		</g>
	</g>
	<g display="inline">
		<g>
			
				<rect x="36.468" y="25.556" transform="matrix(-0.707 -0.7072 0.7072 -0.707 38.7229 87.5126)" fill="#006699" width="2.045" height="20.358"/>
		</g>
	</g>
	<g display="inline">
		<g>
			
				<rect x="26.351" y="15.438" transform="matrix(-0.707 -0.7072 0.7072 -0.707 28.6094 63.0857)" fill="#006699" width="2.044" height="20.357"/>
		</g>
	</g>
	<g display="inline">
		<g>
			
				<rect x="37.842" y="109.234" transform="matrix(-0.7066 -0.7076 0.7076 -0.7066 -13.8775 220.9455)" fill="#006699" width="2.045" height="8.232"/>
		</g>
	</g>
	<g display="inline">
		<g>
			
				<rect x="93.636" y="53.741" transform="matrix(-0.7076 -0.7066 0.7066 -0.7076 121.0557 164.9534)" fill="#006699" width="2.045" height="7.377"/>
		</g>
	</g>
	<g display="inline">
		<g>
			
				<rect x="55.604" y="56.514" transform="matrix(-0.707 -0.7072 0.7072 -0.707 60.5219 140.1453)" fill="#006699" width="7.376" height="2.043"/>
		</g>
	</g>
	<g display="inline">
		
			<rect x="90.745" y="92.055" transform="matrix(-0.7072 -0.707 0.707 -0.7072 96.0631 225.8904)" fill="#006699" width="8.117" height="2"/>
	</g>
</g>
<g id="Layer_2" opacity="0.1">
	<g>
		<path fill="#006699" d="M41.541,36.788v4.316H32.27v-4.316h-2.838v86.657h2.838v-0.793h9.271v0.793h2.837V36.788H41.541z
			 M41.541,45.492v18.542H32.27V45.492H41.541z M41.541,69.901v18.542H32.27V69.901H41.541z M32.27,114.364V95.822h9.271v18.542
			H32.27z"/>
	</g>
	<g>
		<path fill="#006699" d="M118.548,36.312v4.316h-9.271v-4.316h-2.838v86.656h2.838v-0.792h9.271v0.792h2.837V36.312H118.548z
			 M118.548,45.016v18.542h-9.271V45.016H118.548z M118.548,69.426v18.542h-9.271V69.426H118.548z M109.275,113.889V95.346h9.271
			v18.543H109.275z"/>
	</g>
	<g>
		<path fill="#006699" d="M51.947,36.788"/>
	</g>
	<g>
		<path fill="#006699" d="M75.657,124.938c-1.475,0-2.721-0.221-3.094-0.293c-2.293-0.28-31.324-5.484-31.324-87.385h3.378
			c0,79.885,28.097,84.001,28.381,84.033l0.168,0.025c0.716,0.146,2.912,0.437,4.447,0.021l0.283-0.051
			c0.27-0.03,28.363-4.147,28.363-84.03h3.379c0,81.303-28.606,87.021-31.268,87.376C77.477,124.857,76.525,124.938,75.657,124.938z
			"/>
	</g>
	<g>
		<rect x="47.849" y="92.805" fill="#006699" width="3.378" height="30.164"/>
	</g>
	<g>
		<rect x="56.085" y="111.041" fill="#006699" width="3.378" height="12.204"/>
	</g>
	<g>
		<rect x="88.457" y="114.956" fill="#006699" width="3.378" height="8.013"/>
	</g>
	<g>
		<rect x="97.539" y="98.959" fill="#006699" width="3.378" height="24.01"/>
	</g>
	<g>
		<path fill="#006699" d="M145.303,123.425c-9.982-5.126-26.732-23.088-26.732-85.792h3.379c0,63.184,17.41,78.944,24.898,82.789
			L145.303,123.425z"/>
	</g>
	<g>
		<rect x="136.376" y="115.332" fill="#006699" width="3.378" height="8.014"/>
	</g>
	<g>
		<rect x="127.292" y="99.336" fill="#006699" width="3.379" height="24.01"/>
	</g>
	<g>
		<path fill="#006699" d="M5.513,122.729l-1.543-3.004c7.486-3.847,24.898-19.606,24.898-82.79h3.378
			C32.247,99.639,15.497,117.604,5.513,122.729z"/>
	</g>
	<g>
		<rect x="11.063" y="114.635" fill="#006699" width="3.378" height="8.014"/>
	</g>
	<g>
		<rect x="20.145" y="98.639" fill="#006699" width="3.378" height="24.01"/>
	</g>
</g>
</svg>
