<?xml version="1.0" encoding="utf-8"?>
<!-- Generator: Adobe Illustrator 16.0.0, SVG Export Plug-In . SVG Version: 6.00 Build 0)  -->
<!DOCTYPE svg PUBLIC "-//W3C//DTD SVG 1.1//EN" "http://www.w3.org/Graphics/SVG/1.1/DTD/svg11.dtd">
<svg version="1.1" xmlns="http://www.w3.org/2000/svg" xmlns:xlink="http://www.w3.org/1999/xlink" x="0px" y="0px"
	 width="117.404px" height="108px" viewBox="0 0 117.404 108" enable-background="new 0 0 117.404 108" xml:space="preserve">
<g id="Lock" display="none">
	<g id="Layer_2" display="inline">
		<ellipse fill="#7999c3" cx="87.139" cy="100.013" rx="52.127" ry="45.047"/>
		<path fill="#7999c3" d="M105.555,53.296c0,9.396-7.208,17.015-16.1,17.015l0,0c-8.892,0-16.1-7.618-16.1-17.015V42.551
			c0-9.396,7.208-17.014,16.1-17.014l0,0c8.892,0,16.1,7.617,16.1,17.014V53.296z"/>
	</g>
	<g id="Layer_1" display="inline">
		<g>
			<path fill="#7999c3" d="M95.603,141.422H70.474c-22.994,0-41.702-19.77-41.702-44.069c0-24.301,18.708-44.07,41.702-44.07h25.128
				c22.996,0,41.701,19.77,41.701,44.07C137.304,121.652,118.599,141.422,95.603,141.422z M70.474,55.711
				c-21.726,0-39.402,18.68-39.402,41.641c0,22.96,17.676,41.639,39.402,41.639h25.128c21.727,0,39.403-18.679,39.403-41.639
				c0-22.961-17.677-41.641-39.403-41.641H70.474z"/>
		</g>
		<g>
			<path fill="#7999c3" d="M83.039,117.869c-10.777,0-19.545-9.266-19.545-20.655c0-11.389,8.769-20.654,19.545-20.654
				s19.544,9.266,19.544,20.654C102.583,108.604,93.815,117.869,83.039,117.869z M83.039,78.99c-9.51,0-17.246,8.174-17.246,18.224
				s7.736,18.225,17.246,18.225c9.508,0,17.246-8.175,17.246-18.225S92.547,78.99,83.039,78.99z"/>
		</g>
		<g>
			<path fill="#7999c3" d="M83.039,103.341c-3.296,0-5.979-2.835-5.979-6.318c0-3.484,2.682-6.318,5.979-6.318
				s5.979,2.834,5.979,6.318C89.018,100.506,86.335,103.341,83.039,103.341z M83.039,93.134c-2.028,0-3.679,1.745-3.679,3.889
				s1.651,3.889,3.679,3.889c2.029,0,3.679-1.745,3.679-3.889S85.067,93.134,83.039,93.134z"/>
		</g>
		<g>
			<rect x="81.889" y="77.774" fill="#7999c3" width="2.3" height="8.537"/>
		</g>
		<g>
			<rect x="81.889" y="106.917" fill="#7999c3" width="2.3" height="8.539"/>
		</g>
		<g>
			<rect x="93.354" y="96.138" fill="#7999c3" width="8.08" height="2.429"/>
		</g>
		<g>
			<rect x="64.644" y="96.138" fill="#7999c3" width="8.079" height="2.429"/>
		</g>
		<g>
			<polygon fill="#7999c3" points="95.399,110.795 89.686,104.759 91.312,103.04 97.024,109.078 			"/>
		</g>
		<g>
			<polygon fill="#7999c3" points="75.226,90.677 69.513,84.639 71.139,82.92 76.852,88.957 			"/>
		</g>
		<g>
			<polygon fill="#7999c3" points="70.909,110.354 69.283,108.636 74.996,102.598 76.622,104.315 			"/>
		</g>
		<g>
			<polygon fill="#7999c3" points="91.081,90.234 89.455,88.516 95.168,82.478 96.794,84.196 			"/>
		</g>
		<g>
			<path fill="#7999c3" d="M65.127,54.498V38.733c0-10.436,8.035-18.928,17.912-18.928c9.876,0,17.911,8.492,17.911,18.928v15.765
				h2.299V38.733c0-11.776-9.066-21.358-20.209-21.358c-11.144,0-20.21,9.582-20.21,21.358v15.765H65.127z"/>
		</g>
		<g>
			<path fill="#7999c3" d="M69.321,54.498c-0.196-0.98-0.302-1.995-0.302-3.035v-11.87c0-8.066,6.209-14.628,13.842-14.628
				c7.633,0,13.843,6.562,13.843,14.628v11.87c0,1.04-0.105,2.055-0.303,3.035h2.34c0.169-0.986,0.262-1.999,0.262-3.035v-11.87
				c0-9.406-7.242-17.058-16.142-17.058c-8.9,0-16.142,7.652-16.142,17.058v11.87c0,1.036,0.093,2.048,0.261,3.035H69.321z"/>
		</g>
	</g>
</g>
<g id="coins" display="none">
	<g id="Layer_5" display="inline">
		<ellipse fill="#7999c3" cx="50.59" cy="58.265" rx="32.832" ry="13.889"/>
		<ellipse fill="#7999c3" cx="50.59" cy="69.223" rx="32.832" ry="13.889"/>
		<ellipse fill="#7999c3" cx="50.59" cy="78.773" rx="32.832" ry="13.889"/>
		<ellipse fill="#7999c3" cx="50.59" cy="88.324" rx="32.832" ry="13.888"/>
		<ellipse fill="#7999c3" cx="50.59" cy="97.599" rx="32.832" ry="13.888"/>
		<ellipse fill="#7999c3" cx="50.59" cy="103.987" rx="32.832" ry="13.888"/>
		<ellipse fill="#7999c3" cx="123.483" cy="83.143" rx="32.658" ry="12.465"/>
		<ellipse fill="#7999c3" cx="123.483" cy="96.248" rx="32.658" ry="12.465"/>
		<ellipse fill="#7999c3" cx="123.483" cy="103.116" rx="32.658" ry="12.465"/>
	</g>
	<g id="Layer_4" display="inline">
		<g>
			<path fill="#7999c3" d="M47.379,67.295c-20.211,0-36.042-7.104-36.042-16.17c0-9.066,15.832-16.169,36.042-16.169
				s36.042,7.103,36.042,16.169C83.421,60.192,67.59,67.295,47.379,67.295z M47.379,37.061c-18.396,0-33.938,6.44-33.938,14.064
				S28.982,65.19,47.379,65.19c18.396,0,33.938-6.441,33.938-14.065S65.774,37.061,47.379,37.061z"/>
		</g>
		<g>
			<path fill="#7999c3" d="M47.379,72.385c-20.211,0-36.042-7.103-36.042-16.17c0-0.985,0.19-1.972,0.567-2.931l1.958,0.769
				c-0.279,0.713-0.421,1.44-0.421,2.162c0,7.624,15.541,14.065,33.938,14.065c18.396,0,33.938-6.441,33.938-14.065
				c0-0.721-0.142-1.448-0.422-2.161l1.96-0.77c0.375,0.958,0.566,1.944,0.566,2.93C83.421,65.282,67.59,72.385,47.379,72.385z"/>
		</g>
		<g>
			<path fill="#7999c3" d="M47.379,77.626c-20.211,0-36.042-7.103-36.042-16.17c0-0.985,0.19-1.971,0.567-2.93l1.958,0.77
				c-0.279,0.713-0.421,1.439-0.421,2.161c0,7.624,15.541,14.066,33.938,14.066c18.396,0,33.938-6.442,33.938-14.066
				c0-0.72-0.142-1.448-0.422-2.161l1.96-0.769c0.375,0.959,0.566,1.945,0.566,2.93C83.421,70.523,67.59,77.626,47.379,77.626z"/>
		</g>
		<g>
			<path fill="#7999c3" d="M47.379,83.363c-20.211,0-36.042-7.104-36.042-16.171c0-0.985,0.19-1.971,0.567-2.93l1.958,0.769
				c-0.279,0.713-0.421,1.44-0.421,2.161c0,7.625,15.541,14.067,33.938,14.067c18.396,0,33.938-6.442,33.938-14.067
				c0-0.72-0.142-1.447-0.422-2.161l1.96-0.769c0.375,0.96,0.566,1.945,0.566,2.93C83.421,76.26,67.59,83.363,47.379,83.363z"/>
		</g>
		<g>
			<path fill="#7999c3" d="M47.379,88.324c-20.211,0-36.042-7.104-36.042-16.171c0-0.985,0.19-1.971,0.567-2.931l1.958,0.769
				c-0.279,0.713-0.421,1.44-0.421,2.162c0,7.624,15.541,14.066,33.938,14.066c18.396,0,33.938-6.442,33.938-14.066
				c0-0.721-0.142-1.448-0.422-2.162l1.96-0.768c0.375,0.96,0.566,1.945,0.566,2.93C83.421,81.221,67.59,88.324,47.379,88.324z"/>
		</g>
		<g>
			<path fill="#7999c3" d="M47.379,93.711c-20.211,0-36.042-7.103-36.042-16.169c0-0.985,0.19-1.971,0.567-2.93l1.958,0.768
				c-0.279,0.714-0.421,1.441-0.421,2.162c0,7.624,15.541,14.066,33.938,14.066c18.396,0,33.938-6.442,33.938-14.066
				c0-0.721-0.142-1.448-0.422-2.162l1.96-0.768c0.375,0.96,0.566,1.945,0.566,2.93C83.421,86.608,67.59,93.711,47.379,93.711z"/>
		</g>
		<g>
			<path fill="#7999c3" d="M47.379,97.599c-20.211,0-36.042-7.104-36.042-16.169c0-0.986,0.19-1.972,0.567-2.931l1.958,0.769
				c-0.279,0.713-0.421,1.439-0.421,2.162c0,7.625,15.541,14.065,33.938,14.065c18.396,0,33.938-6.44,33.938-14.065
				c0-0.723-0.142-1.449-0.422-2.162l1.96-0.768c0.375,0.958,0.566,1.944,0.566,2.93C83.421,90.495,67.59,97.599,47.379,97.599z"/>
		</g>
		<g>
			<path fill="#7999c3" d="M47.379,102.84c-20.211,0-36.042-7.103-36.042-16.17c0-0.984,0.19-1.971,0.567-2.93l1.958,0.769
				c-0.279,0.713-0.421,1.44-0.421,2.161c0,7.625,15.541,14.065,33.938,14.065c18.396,0,33.938-6.44,33.938-14.065
				c0-0.721-0.142-1.448-0.422-2.161l1.96-0.769c0.375,0.96,0.566,1.945,0.566,2.93C83.421,95.737,67.59,102.84,47.379,102.84z"/>
		</g>
		<g>
			<path fill="#7999c3" d="M47.379,108.576c-20.211,0-36.042-7.102-36.042-16.17c0-0.985,0.19-1.972,0.567-2.93l1.958,0.768
				c-0.279,0.714-0.421,1.44-0.421,2.162c0,7.624,15.541,14.066,33.938,14.066c18.396,0,33.938-6.442,33.938-14.066
				c0-0.721-0.142-1.447-0.422-2.162l1.96-0.768c0.375,0.959,0.566,1.945,0.566,2.93C83.421,101.475,67.59,108.576,47.379,108.576z"
				/>
		</g>
		<g>
			<path fill="#7999c3" d="M47.379,113.537c-20.211,0-36.042-7.103-36.042-16.17c0-0.985,0.19-1.972,0.567-2.931l1.958,0.769
				c-0.279,0.714-0.421,1.441-0.421,2.162c0,7.625,15.541,14.065,33.938,14.065c18.396,0,33.938-6.44,33.938-14.065
				c0-0.721-0.142-1.448-0.422-2.162l1.96-0.769c0.375,0.961,0.566,1.946,0.566,2.931C83.421,106.435,67.59,113.537,47.379,113.537z
				"/>
		</g>
		<g>
			<path fill="#7999c3" d="M47.379,118.926c-20.211,0-36.042-7.104-36.042-16.171c0-0.984,0.19-1.971,0.567-2.93l1.958,0.769
				c-0.279,0.714-0.421,1.44-0.421,2.161c0,7.624,15.541,14.065,33.938,14.065c18.396,0,33.938-6.441,33.938-14.065
				c0-0.721-0.142-1.447-0.422-2.161l1.96-0.769c0.375,0.96,0.566,1.945,0.566,2.93C83.421,111.822,67.59,118.926,47.379,118.926z"
				/>
		</g>
		<g>
			<path fill="#7999c3" d="M122.204,98.48c-20.211,0-36.043-7.104-36.043-16.17c0-9.067,15.832-16.169,36.043-16.169
				s36.042,7.102,36.042,16.169C158.246,91.377,142.415,98.48,122.204,98.48z M122.204,68.245c-18.397,0-33.938,6.442-33.938,14.065
				c0,7.625,15.541,14.066,33.938,14.066c18.396,0,33.938-6.441,33.938-14.066C156.142,74.687,140.601,68.245,122.204,68.245z"/>
		</g>
		<g>
			<path fill="#7999c3" d="M122.204,102.474c-20.211,0-36.043-7.103-36.043-16.169c0-0.985,0.191-1.973,0.566-2.932l1.96,0.769
				c-0.279,0.714-0.422,1.44-0.422,2.163c0,7.623,15.541,14.064,33.938,14.064c18.396,0,33.938-6.441,33.938-14.064
				c0-0.723-0.142-1.449-0.423-2.163l1.96-0.768c0.376,0.959,0.567,1.945,0.567,2.931
				C158.246,95.371,142.415,102.474,122.204,102.474z"/>
		</g>
		<g>
			<path fill="#7999c3" d="M122.204,108.21c-20.211,0-36.043-7.104-36.043-16.17c0-0.985,0.191-1.972,0.566-2.931l1.96,0.768
				c-0.279,0.713-0.422,1.441-0.422,2.163c0,7.625,15.541,14.065,33.938,14.065c18.396,0,33.938-6.44,33.938-14.065
				c0-0.721-0.142-1.449-0.423-2.161l1.961-0.77c0.375,0.961,0.566,1.946,0.566,2.931
				C158.246,101.106,142.415,108.21,122.204,108.21z"/>
		</g>
		<g>
			<path fill="#7999c3" d="M122.204,113.17c-20.211,0-36.043-7.102-36.043-16.168c0-0.986,0.191-1.973,0.566-2.932l1.96,0.769
				c-0.279,0.713-0.422,1.44-0.422,2.163c0,7.623,15.541,14.064,33.938,14.064c18.396,0,33.938-6.441,33.938-14.064
				c0-0.723-0.142-1.449-0.423-2.163l1.96-0.768c0.376,0.959,0.567,1.945,0.567,2.931
				C158.246,106.068,142.415,113.17,122.204,113.17z"/>
		</g>
		<g>
			<path fill="#7999c3" d="M122.204,118.559c-20.211,0-36.043-7.104-36.043-16.169c0-0.986,0.191-1.973,0.566-2.931l1.96,0.768
				c-0.279,0.713-0.422,1.44-0.422,2.163c0,7.623,15.541,14.063,33.938,14.063c18.396,0,33.938-6.44,33.938-14.063
				c0-0.723-0.142-1.45-0.423-2.163l1.96-0.767c0.376,0.958,0.567,1.943,0.567,2.93
				C158.246,111.455,142.415,118.559,122.204,118.559z"/>
		</g>
	</g>
</g>
<g id="globe" display="none">
	<g id="Layer_8" display="inline">
		<circle fill="#7999c3" cx="90.615" cy="86.299" r="50.701"/>
	</g>
	<g id="Layer_7" display="inline">
		<g>
			<path fill="#7999c3" d="M83.421,134.634c-29.495,0-53.491-23.996-53.491-53.491s23.996-53.491,53.491-53.491
				s53.491,23.996,53.491,53.491S112.916,134.634,83.421,134.634z M83.421,29.947c-28.229,0-51.195,22.966-51.195,51.195
				s22.966,51.195,51.195,51.195c28.229,0,51.196-22.966,51.196-51.195S111.65,29.947,83.421,29.947z"/>
		</g>
		<g>
			<g>
				<path fill="#7999c3" d="M134.043,72.436H88.75c-3.209,0-5.821-2.611-5.821-5.821s2.612-5.821,5.821-5.821h4.644l0.008-0.082
					h12.673c1.795,0,3.256-1.563,3.256-3.485c0-1.921-1.461-3.484-3.256-3.484h-24.67c-3.21,0-5.821-2.611-5.821-5.821
					s2.611-5.822,5.821-5.822h38.124v2.296H81.404c-1.944,0-3.525,1.582-3.525,3.526s1.582,3.525,3.525,3.525h24.67
					c3.061,0,5.551,2.593,5.551,5.78s-2.49,5.781-5.551,5.781H94.26v0.082h-5.51c-1.943,0-3.525,1.581-3.525,3.525
					s1.582,3.526,3.525,3.526h45.293V72.436z"/>
			</g>
			<g>
				<path fill="#7999c3" d="M75.73,107.167H37.204v-2.296H75.73c1.944,0,3.526-1.582,3.526-3.525c0-1.944-1.582-3.525-3.526-3.525
					H52.772v-0.042h-8.601c-3.061,0-5.551-2.593-5.551-5.78s2.49-5.779,5.551-5.779h8.601v-0.042h8.724
					c1.944,0,3.525-1.581,3.525-3.525s-1.582-3.526-3.525-3.526H31.881v-2.296h29.615c3.21,0,5.821,2.612,5.821,5.822
					s-2.611,5.821-5.821,5.821h-8.131l-0.002,0.042h-9.191c-1.795,0-3.255,1.562-3.255,3.483c0,1.922,1.46,3.485,3.255,3.485h9.191
					l0.002,0.041H75.73c3.21,0,5.822,2.611,5.822,5.821S78.94,107.167,75.73,107.167z"/>
			</g>
			<g>
				<path fill="#7999c3" d="M82.715,133.9l-1.496-1.742c0.795-0.682,1.251-1.695,1.251-2.781c0-1.966-1.495-3.565-3.333-3.565
					h-2.802l-0.173-0.057c-2.407-0.78-4.024-3.005-4.024-5.535c0-3.21,2.612-5.822,5.822-5.822h44.308v2.296H77.96
					c-1.944,0-3.526,1.582-3.526,3.526c0,1.476,0.908,2.779,2.277,3.296h2.426c3.104,0,5.628,2.629,5.628,5.861
					C84.766,131.133,84.019,132.781,82.715,133.9z"/>
			</g>
		</g>
	</g>
</g>
<g id="speech" display="none">
	<g id="Layer_11" display="inline">
		<circle fill="#7999c3" cx="71.702" cy="72.669" r="40.785"/>
		<circle fill="#7999c3" cx="110.071" cy="94.028" r="34.691"/>
	</g>
	<g id="Layer_10" display="inline">
		<g>
			<path fill="#7999c3" d="M88.813,105.699l-1.228-2.171c12.331-6.972,19.99-20.089,19.99-34.236c0-2.096-0.167-4.195-0.493-6.239
				l2.464-0.394c0.348,2.174,0.522,4.405,0.522,6.633C110.069,84.336,101.925,98.287,88.813,105.699z"/>
		</g>
		<g>
			<path fill="#7999c3" d="M40.833,117.839v-17.043c-9.125-7.952-14.347-19.402-14.347-31.504c0-23.045,18.748-41.792,41.792-41.792
				c13.23,0,25.396,6.063,33.374,16.636l-1.988,1.502c-7.504-9.94-18.945-15.644-31.386-15.644
				c-21.669,0-39.297,17.628-39.297,39.297c0,11.561,5.069,22.489,13.906,29.98l0.441,0.373v12.169l7.366-7.364l0.795,0.374
				c4.189,1.985,8.656,3.198,13.275,3.608l-0.22,2.486c-4.622-0.411-9.098-1.577-13.321-3.47L40.833,117.839z"/>
		</g>
		<g>
			<path fill="#7999c3" d="M128.006,130.647l-9.291-9.29c-4.706,2.092-9.716,3.152-14.911,3.152
				c-20.279,0-36.773-16.495-36.773-36.772s16.494-36.774,36.773-36.774c20.276,0,36.773,16.497,36.773,36.774
				c0,10.623-4.573,20.677-12.571,27.675V130.647z M119.243,118.357l6.27,6.266v-10.359l0.439-0.375
				c7.711-6.536,12.13-16.068,12.13-26.151c0-18.902-15.377-34.279-34.278-34.279c-18.902,0-34.278,15.377-34.278,34.279
				c0,18.899,15.376,34.279,34.278,34.279c5.117,0,10.046-1.106,14.647-3.284L119.243,118.357z"/>
		</g>
	</g>
</g>
<g id="market" display="none">
	<g id="Layer_14" display="inline">
		<g>
			<path fill="#7999c3" d="M132.339,124.131c0,5.538-4.49,10.027-10.027,10.027H37.767c-5.539,0-10.028-4.489-10.028-10.027V50.617
				c0-5.538,4.489-10.028,10.028-10.028h84.545c5.537,0,10.027,4.49,10.027,10.028V124.131z"/>
		</g>
		<g>
			
				<rect x="136.798" y="63.219" transform="matrix(0.707 0.7072 -0.7072 0.707 93.9538 -75.9982)" fill="#7999c3" width="3.811" height="24.359"/>
		</g>
	</g>
	<g id="Layer_13" display="inline">
		<g>
			<g>
				<g>
					<path fill="#7999c3" d="M103.838,46.289c-1.571,0-2.851-1.279-2.851-2.85c0-1.57,1.279-2.85,2.851-2.85s2.848,1.28,2.848,2.85
						C106.686,45.01,105.409,46.289,103.838,46.289z M103.838,42.39c-0.579,0-1.052,0.471-1.052,1.049c0,0.58,0.473,1.05,1.052,1.05
						s1.049-0.47,1.049-1.05C104.887,42.86,104.417,42.39,103.838,42.39z"/>
				</g>
			</g>
		</g>
		<g>
			<g>
				<g>
					<path fill="#7999c3" d="M111.787,46.289c-1.573,0-2.85-1.279-2.85-2.85c0-1.57,1.276-2.85,2.85-2.85
						c1.571,0,2.85,1.28,2.85,2.85C114.637,45.01,113.358,46.289,111.787,46.289z M111.787,42.39c-0.578,0-1.048,0.471-1.048,1.049
						c0,0.58,0.47,1.05,1.048,1.05s1.051-0.47,1.051-1.05C112.838,42.86,112.365,42.39,111.787,42.39z"/>
				</g>
			</g>
		</g>
		<g>
			<g>
				<g>
					<path fill="#7999c3" d="M119.738,46.289c-1.571,0-2.85-1.279-2.85-2.85c0-1.57,1.278-2.85,2.85-2.85
						c1.569,0,2.853,1.28,2.853,2.85C122.591,45.01,121.308,46.289,119.738,46.289z M119.738,42.39
						c-0.579,0-1.052,0.471-1.052,1.049c0,0.58,0.473,1.05,1.052,1.05c0.58,0,1.051-0.47,1.051-1.05
						C120.789,42.86,120.318,42.39,119.738,42.39z"/>
				</g>
			</g>
		</g>
		<g>
			<g>
				<polygon fill="#7999c3" points="77.354,101.479 56.72,80.845 39.941,97.623 38.4,96.081 56.72,77.763 77.354,98.396 
					98.047,77.702 110.091,89.747 148.94,50.896 150.482,52.437 110.091,92.828 98.047,80.785 				"/>
			</g>
		</g>
		<g>
			<path fill="#7999c3" d="M128.104,129.004H28.52c-4.86,0-8.815-3.954-8.815-8.814V41.57c0-4.861,3.955-8.815,8.815-8.815h99.585
				c4.86,0,8.814,3.954,8.814,8.815v13.818h-2.382V41.57c0-3.547-2.886-6.433-6.433-6.433H28.52c-3.547,0-6.433,2.886-6.433,6.433
				v78.62c0,3.547,2.886,6.433,6.433,6.433h99.585c3.547,0,6.433-2.886,6.433-6.433V74.924h2.382v45.266
				C136.919,125.05,132.965,129.004,128.104,129.004z"/>
		</g>
	</g>
</g>
<g id="layers" display="none">
	<g display="inline">
		<path fill="#D6E8F7" d="M30.893,72.175c-1.451-0.787-1.447-2.068,0.007-2.847l53.412-28.614c1.454-0.779,3.82-0.753,5.258,0.057
			l52.426,29.55c1.438,0.81,1.454,2.165,0.036,3.009L92.68,102.753c-1.418,0.845-3.764,0.893-5.214,0.105L30.893,72.175z"/>
	</g>
	<g display="inline">
		<path fill="#D6E8F7" d="M30.893,85.357c-1.451-0.787-1.447-2.068,0.007-2.847l53.412-28.614c1.454-0.779,3.82-0.754,5.258,0.057
			L141.996,83.5c1.438,0.81,1.454,2.164,0.036,3.009L92.68,115.935c-1.418,0.845-3.764,0.893-5.214,0.105L30.893,85.357z"/>
	</g>
	<g display="inline">
		<path fill="#D6E8F7" d="M30.893,104.671c-1.451-0.787-1.447-2.068,0.007-2.848l53.412-28.612c1.454-0.779,3.82-0.754,5.258,0.057
			l52.426,29.548c1.438,0.81,1.454,2.164,0.036,3.009L92.68,135.248c-1.418,0.845-3.764,0.893-5.214,0.105L30.893,104.671z"/>
	</g>
	<g display="inline">
		<path fill="none" stroke="#7999c3" stroke-width="2.5" stroke-miterlimit="10" d="M28.566,59.377
			c-1.451-0.787-1.447-2.068,0.007-2.847l53.412-28.614c1.455-0.779,3.821-0.753,5.258,0.057l52.427,29.549
			c1.438,0.81,1.454,2.165,0.036,3.009L90.352,89.955c-1.418,0.845-3.764,0.893-5.214,0.105L28.566,59.377z"/>
	</g>
	<g display="inline">
		<path fill="none" stroke="#7999c3" stroke-width="2.5" stroke-miterlimit="10" d="M126.526,68.382l13.144,7.407
			c1.438,0.81,1.454,2.164,0.036,3.009l-49.355,29.425c-1.418,0.845-3.764,0.893-5.214,0.105L28.565,77.644
			c-1.451-0.787-1.447-2.068,0.007-2.847l14.299-7.66"/>
	</g>
	<g display="inline">
		<path fill="none" stroke="#7999c3" stroke-width="2.5" stroke-miterlimit="10" d="M126.526,86.22l13.144,7.404
			c1.438,0.81,1.454,2.164,0.036,3.009l-49.355,29.426c-1.418,0.845-3.764,0.893-5.214,0.105L28.565,95.481
			c-1.451-0.787-1.447-2.068,0.007-2.848l14.299-7.661"/>
	</g>
</g>
<g id="Layer_17">
	<g>
		<path fill="#7999c3" d="M23.208,76.7V64.468c-6.55-5.709-10.298-13.928-10.298-22.614c0-16.542,13.458-29.999,29.999-29.999
			c9.497,0,18.229,4.353,23.956,11.942l-1.427,1.078C60.05,17.74,51.838,13.646,42.908,13.646C27.354,13.646,14.7,26.3,14.7,41.854
			c0,8.299,3.639,16.143,9.981,21.52l0.317,0.269v8.734l5.287-5.287l0.571,0.269c3.007,1.424,6.213,2.296,9.529,2.589l-0.158,1.785
			c-3.317-0.294-6.531-1.132-9.562-2.49L23.208,76.7z"/>
	</g>
	<g>
		<path fill="#7999c3" d="M94.461,92.086l-6.67-6.668c-3.378,1.501-6.974,2.263-10.703,2.263c-14.556,0-26.396-11.84-26.396-26.396
			c0-14.555,11.84-26.396,26.396-26.396c14.555,0,26.396,11.841,26.396,26.396c0,7.625-3.282,14.842-9.023,19.865V92.086z
			 M88.171,83.265l4.5,4.497v-7.436l0.315-0.27c5.535-4.691,8.706-11.534,8.706-18.771c0-13.568-11.037-24.605-24.604-24.605
			c-13.568,0-24.605,11.038-24.605,24.605c0,13.566,11.037,24.606,24.605,24.606c3.673,0,7.211-0.794,10.515-2.358L88.171,83.265z"
			/>
	</g>
</g>
<g id="Layer_18">
</g>
</svg>
