<?xml version="1.0" encoding="UTF-8"?>
<svg width="24px" height="24px" viewBox="0 0 24 24" version="1.1" xmlns="http://www.w3.org/2000/svg" xmlns:xlink="http://www.w3.org/1999/xlink">
    <!-- Generator: Sketch 43.2 (39069) - http://www.bohemiancoding.com/sketch -->
    <title>github</title>
    <desc>Created with Sketch.</desc>
    <defs>
        <rect id="path-1" x="0" y="0" width="24" height="24"></rect>
    </defs>
    <g id="Website" stroke="none" stroke-width="1" fill="none" fill-rule="evenodd">
        <g id="Demo-Signup-Form" transform="translate(-448.000000, -832.000000)">
            <g id="github" transform="translate(448.000000, 832.000000)">
                <mask id="mask-2" fill="white">
                    <use xlink:href="#path-1"></use>
                </mask>
                <g id="Rectangle-2"></g>
                <path d="M22.3671253,6.12995804 C21.2951617,4.25046154 19.8411116,2.76246154 18.0045923,1.66562238 C16.1677995,0.568727273 14.1625695,0.0204195804 11.9874806,0.0204195804 C9.81266515,0.0204195804 7.80677904,0.568895105 5.97036902,1.66562238 C4.13368565,2.76240559 2.67969021,4.25046154 1.60772665,6.12995804 C0.535927107,8.0093986 0,10.0617622 0,12.286993 C0,14.96 0.762095672,17.3636364 2.2866697,19.4985175 C3.81107973,21.6335664 5.7803918,23.1109371 8.19444191,23.9307972 C8.47544419,23.9841678 8.68346241,23.9466294 8.81871526,23.8191329 C8.95402278,23.6914685 9.02159453,23.5315804 9.02159453,23.3401399 C9.02159453,23.3081958 9.01891572,23.0208112 9.0137221,22.4776503 C9.00836446,21.9344895 9.00584966,21.4606434 9.00584966,21.0563357 L8.64683371,21.1198881 C8.41793166,21.1627972 8.12916629,21.180979 7.78053759,21.1758322 C7.43207289,21.1708531 7.07032346,21.1334825 6.69578132,21.064 C6.32107517,20.9951329 5.97255581,20.8354126 5.64994989,20.5851748 C5.32750797,20.3349371 5.09860592,20.0073846 4.96329841,19.603021 L4.8072164,19.2354685 C4.70317995,18.9907692 4.53938952,18.7189371 4.31562642,18.420979 C4.09186333,18.1227413 3.86558542,17.9205594 3.63668337,17.8140979 L3.52739863,17.734042 C3.45457859,17.6808392 3.38700683,17.6166713 3.32451936,17.5422098 C3.26208656,17.4677483 3.21534396,17.3932308 3.18412756,17.3186014 C3.15285649,17.2439161 3.17876993,17.1826573 3.26214123,17.1346014 C3.34551253,17.0865455 3.49618223,17.0632168 3.71480638,17.0632168 L4.02686105,17.1109371 C4.23498861,17.1536224 4.49242825,17.2811189 4.79950797,17.4942098 C5.10642369,17.7071329 5.35872437,17.9839441 5.55646469,18.3245315 C5.795918,18.7612308 6.08441002,19.093986 6.42276082,19.322965 C6.76083827,19.5519441 7.10170387,19.6662378 7.44502961,19.6662378 C7.78835535,19.6662378 8.08488383,19.6396084 8.33472437,19.5866294 C8.58429157,19.5333706 8.81844191,19.4533147 9.03706606,19.3469091 C9.13071526,18.6331748 9.38569476,18.0848671 9.80178588,17.7015944 C9.20872893,17.6378182 8.67553531,17.5417622 8.20193166,17.414042 C7.72860137,17.2861538 7.23947153,17.0786014 6.73487016,16.7908252 C6.22999544,16.5034406 5.81117084,16.1465734 5.47828702,15.7208392 C5.14534852,15.2948811 4.87210934,14.7356643 4.65895216,14.0436923 C4.44568565,13.3514406 4.33902506,12.5528951 4.33902506,11.6478322 C4.33902506,10.3591608 4.75014123,9.26254545 5.57220957,8.35737063 C5.18711617,7.38853147 5.22347153,6.30243357 5.68138497,5.09918881 C5.98316173,5.00324476 6.43068793,5.07524476 7.02374487,5.31474126 C7.61691116,5.55434965 8.05120729,5.75960839 8.32707062,5.92979021 C8.60293394,6.09991608 8.82396355,6.24408392 8.99048747,6.36100699 C9.95841458,6.08425175 10.9572847,5.94584615 11.9873713,5.94584615 C13.0174579,5.94584615 14.0165467,6.08425175 14.9845285,6.36100699 L15.5776401,5.97784615 C15.9832346,5.72218182 16.4621959,5.48788811 17.0133759,5.27490909 C17.5648838,5.06204196 17.9866059,5.00341259 18.2781048,5.09935664 C18.7461868,6.30265734 18.7878998,7.3886993 18.402697,8.35753846 C19.2247107,9.26271329 19.6359909,10.3596084 19.6359909,11.648 C19.6359909,12.5530629 19.5289476,13.3541259 19.3160091,14.0516923 C19.1027973,14.7493706 18.8272073,15.308028 18.4891298,15.7288392 C18.1506697,16.1495944 17.7291663,16.5036643 17.2245649,16.790993 C16.7198542,17.0785455 16.2305604,17.2860979 15.7572301,17.413986 C15.2836811,17.5418741 14.7504875,17.637986 14.1574305,17.7018741 C14.6983326,18.1808671 14.9688383,18.936951 14.9688383,19.9697902 L14.9688383,23.3396923 C14.9688383,23.5311329 15.0338952,23.690965 15.1641185,23.8186853 C15.2941777,23.9461818 15.4995718,23.9837203 15.780574,23.9302937 C18.1949522,23.1105455 20.1642642,21.6331189 21.6886196,19.4980699 C23.2128109,17.3631888 23.97518,14.9595524 23.97518,12.2865455 C23.9746333,10.0615944 23.4384328,8.0093986 22.3671253,6.12995804 Z" id="Shape" fill="#FFFFFF" fill-rule="nonzero" mask="url(#mask-2)"></path>
            </g>
        </g>
    </g>
</svg>