<?xml version="1.0" encoding="utf-8"?>
<!-- Generator: Adobe Illustrator 16.0.0, SVG Export Plug-In . SVG Version: 6.00 Build 0)  -->
<!DOCTYPE svg PUBLIC "-//W3C//DTD SVG 1.1//EN" "http://www.w3.org/Graphics/SVG/1.1/DTD/svg11.dtd">
<svg version="1.1" id="Layer_1" xmlns="http://www.w3.org/2000/svg" xmlns:xlink="http://www.w3.org/1999/xlink" x="0px" y="0px"
	 width="150px" height="150px" viewBox="0 0 150 150" enable-background="new 0 0 150 150" xml:space="preserve">
<g>
	<g>
		<circle fill="#F2673A" cx="75" cy="75.001" r="43.652"/>
	</g>
	<path fill="#385476" d="M87.795,101.56"/>
	<path fill="#385476" d="M140.604,94.871l-13.464-11.678c0.481-2.611,0.618-5.428,0.618-8.176c0-2.747-0.137-5.564-0.618-8.175
		l13.464-11.679c0.962-0.687,1.307-1.991,0.825-3.091c-2.749-8.449-7.488-16.487-13.328-23.15c-0.823-0.962-1.991-1.306-3.091-0.824
		l-16.968,5.907c-4.19-3.435-8.931-6.182-14.014-8.175L90.663,8.245c-0.206-1.099-1.168-2.13-2.337-2.267
		c-8.793-1.786-17.86-1.786-26.653,0c-1.168,0.137-2.13,1.168-2.336,2.267l-3.366,17.586c-5.083,1.993-9.961,4.74-14.014,8.175
		l-16.968-5.907c-1.099-0.481-2.267-0.138-3.092,0.824c-5.839,6.663-10.579,14.701-13.327,23.15c-0.481,1.1-0.137,2.404,0.824,3.091
		l13.464,11.679c-0.48,2.61-0.618,5.428-0.618,8.175c0,2.748,0.137,5.564,0.618,8.176L9.395,94.871
		c-0.961,0.687-1.305,1.992-0.824,3.091c2.748,8.45,7.488,16.488,13.327,23.151c0.825,0.962,1.993,1.305,3.092,0.824l16.968-5.908
		c4.053,3.436,8.931,6.183,14.014,8.175l3.366,17.587c0.206,1.099,1.167,2.13,2.336,2.267c4.396,0.824,8.792,1.305,13.327,1.305
		c4.533,0,8.931-0.48,13.326-1.305c1.169-0.137,2.131-1.168,2.337-2.267l3.366-17.587c5.083-1.992,9.823-4.739,14.014-8.175
		l16.968,5.908c1.1,0.48,2.268,0.138,3.091-0.824c5.84-6.663,10.579-14.701,13.328-23.151
		C141.911,96.863,141.566,95.558,140.604,94.871z M75,118.652c-24.108,0-43.651-19.544-43.651-43.651
		C31.349,50.893,50.892,31.35,75,31.35c24.107,0,43.652,19.543,43.652,43.651C118.652,99.108,99.107,118.652,75,118.652z"/>
	<path fill="#FFFFFF" d="M117.356,73.705H81.556c-0.498,0-0.953,0.283-1.173,0.73c-0.219,0.446-0.164,0.98,0.141,1.374l6.614,8.55
		l-0.003,0.004c0.183,0.207,0.297,0.477,0.297,0.773c0,0.298-0.114,0.566-0.297,0.773l0.002,0.004
		c-0.01,0.011-0.021,0.021-0.031,0.031c-0.013,0.015-0.026,0.028-0.039,0.041c-2.935,3.097-7.048,4.902-11.354,4.902
		c-8.619,0-15.63-7.012-15.63-15.631c0-8.62,7.012-15.632,15.63-15.632c2.934,0,5.801,0.827,8.29,2.393
		c0.594,0.373,1.375,0.212,1.771-0.365l14.307-20.798c0.408-0.594,0.258-1.405-0.334-1.815c-7.3-5.031-15.857-7.691-24.744-7.691
		c-24.077,0-43.664,19.587-43.664,43.662s19.587,43.661,43.664,43.661c24.074,0,43.66-19.587,43.66-43.661
		C118.662,74.289,118.078,73.705,117.356,73.705z"/>
</g>
</svg>
