<?xml version="1.0" encoding="utf-8"?>
<!-- Generator: Adobe Illustrator 16.0.0, SVG Export Plug-In . SVG Version: 6.00 Build 0)  -->
<!DOCTYPE svg PUBLIC "-//W3C//DTD SVG 1.1//EN" "http://www.w3.org/Graphics/SVG/1.1/DTD/svg11.dtd">
<svg version="1.1" id="Layer_1" xmlns="http://www.w3.org/2000/svg" xmlns:xlink="http://www.w3.org/1999/xlink" x="0px" y="0px"
	 width="150px" height="150px" viewBox="0 0 150 150" enable-background="new 0 0 150 150" xml:space="preserve">
<g display="none">
	<path display="inline" d="M76,35.422c-10.912,0-20.806,4.438-27.973,11.605S36.422,64.088,36.422,75s4.438,20.807,11.605,27.973
		S65.088,114.577,76,114.577s20.807-4.438,27.973-11.604S115.577,85.912,115.577,75s-4.438-20.806-11.604-27.973
		C96.807,39.861,86.912,35.422,76,35.422z"/>
	<path display="inline" d="M141.604,95.871l-6.73-5.839l-6.73-5.839c0.239-1.307,0.395-2.662,0.487-4.037
		c0.095-1.373,0.129-2.766,0.129-4.139c0-1.375-0.034-2.766-0.129-4.14c-0.094-1.374-0.248-2.731-0.487-4.037l6.73-5.839l6.73-5.839
		c0.481-0.344,0.81-0.841,0.955-1.391c0.146-0.55,0.111-1.15-0.129-1.701c-1.375-4.224-3.246-8.346-5.506-12.245
		c-2.258-3.898-4.902-7.574-7.822-10.905c-0.412-0.481-0.91-0.808-1.441-0.953c-0.532-0.146-1.1-0.111-1.648,0.129l-8.484,2.954
		l-8.483,2.953c-2.095-1.718-4.328-3.263-6.672-4.628c-2.345-1.365-4.802-2.55-7.343-3.547l-1.682-8.792l-1.684-8.792
		c-0.104-0.55-0.396-1.082-0.809-1.494s-0.944-0.704-1.528-0.773C84.93,6.085,80.465,5.639,76,5.639s-8.93,0.446-13.327,1.339
		c-0.584,0.069-1.116,0.361-1.529,0.773c-0.412,0.412-0.704,0.944-0.807,1.494l-1.683,8.793l-1.683,8.793
		c-2.542,0.997-5.032,2.182-7.394,3.547c-2.361,1.365-4.594,2.91-6.621,4.628l-8.484-2.953l-8.484-2.954
		c-0.549-0.241-1.116-0.275-1.648-0.129c-0.533,0.146-1.031,0.472-1.443,0.953c-2.919,3.332-5.564,7.007-7.823,10.905
		c-2.258,3.898-4.13,8.021-5.504,12.245c-0.241,0.55-0.275,1.151-0.128,1.7c0.146,0.549,0.472,1.047,0.953,1.391l6.732,5.839
		l6.732,5.839c-0.24,1.305-0.395,2.662-0.489,4.036c-0.095,1.374-0.129,2.766-0.129,4.14c0,1.373,0.034,2.766,0.128,4.139
		c0.094,1.375,0.249,2.73,0.489,4.037l-6.731,5.839l-6.731,5.839c-0.48,0.344-0.807,0.842-0.953,1.393
		c-0.146,0.549-0.112,1.148,0.128,1.698c1.374,4.226,3.246,8.347,5.504,12.246c2.259,3.897,4.903,7.573,7.823,10.905
		c0.413,0.479,0.911,0.807,1.443,0.953c0.533,0.146,1.099,0.11,1.649-0.129l8.484-2.955l8.484-2.953
		c2.026,1.718,4.259,3.264,6.621,4.629c2.361,1.365,4.852,2.55,7.393,3.546l1.683,8.794l1.683,8.793
		c0.103,0.55,0.395,1.082,0.807,1.494s0.945,0.705,1.529,0.773c2.198,0.411,4.396,0.737,6.611,0.961
		c2.215,0.224,4.448,0.344,6.716,0.344c2.267,0,4.499-0.12,6.715-0.344s4.413-0.55,6.611-0.961c0.585-0.068,1.116-0.361,1.528-0.773
		c0.414-0.412,0.705-0.944,0.809-1.494l1.684-8.793l1.682-8.794c2.543-0.996,4.998-2.181,7.344-3.546
		c2.344-1.365,4.577-2.911,6.672-4.629l8.482,2.953l8.484,2.955c0.551,0.239,1.117,0.273,1.649,0.129
		c0.532-0.146,1.03-0.474,1.442-0.953c2.92-3.332,5.563-7.008,7.821-10.905c2.259-3.899,4.132-8.021,5.507-12.246
		c0.239-0.55,0.272-1.149,0.127-1.698C142.412,96.713,142.085,96.215,141.604,95.871z M76,118.577
		c-12.015,0-22.909-4.888-30.8-12.778C37.31,97.908,32.422,87.014,32.422,75c0-12.015,4.887-22.909,12.778-30.8
		c7.891-7.89,18.785-12.778,30.8-12.778c12.014,0,22.908,4.887,30.799,12.778c7.891,7.891,12.778,18.785,12.778,30.8
		c0,12.014-4.888,22.908-12.778,30.799C98.909,113.689,88.014,118.577,76,118.577z"/>
</g>
<g id="Layer_2">
	<g>
		<path fill="#0070A5" d="M75.852,35.422c-10.913,0-20.807,4.438-27.974,11.605S36.273,64.088,36.273,75s4.438,20.805,11.605,27.973
			c7.167,7.166,17.061,11.604,27.974,11.604c10.912,0,20.806-4.438,27.973-11.604c7.166-7.168,11.604-17.061,11.604-27.973
			s-4.438-20.807-11.604-27.973C96.656,39.86,86.764,35.422,75.852,35.422z M92.65,64.207H80.531v34.2h-9.36v-34.2h-12.12v-8.28
			h33.6V64.207L92.65,64.207z"/>
		<path fill="#0070A5" d="M142.409,97.262c-0.146-0.549-0.474-1.047-0.955-1.391l-6.731-5.84l-6.73-5.838
			c0.24-1.307,0.395-2.662,0.488-4.037c0.095-1.373,0.129-2.766,0.129-4.139c0-1.375-0.034-2.766-0.129-4.141
			c-0.094-1.374-0.248-2.731-0.488-4.037l6.73-5.839l6.731-5.839c0.481-0.344,0.81-0.841,0.955-1.391s0.11-1.15-0.13-1.701
			c-1.375-4.224-3.246-8.346-5.506-12.245c-2.258-3.898-4.901-7.574-7.821-10.905c-0.412-0.481-0.91-0.808-1.442-0.953
			c-0.531-0.146-1.1-0.111-1.648,0.129l-8.484,2.954l-8.482,2.953c-2.096-1.718-4.328-3.263-6.672-4.628
			c-2.346-1.365-4.802-2.55-7.344-3.547l-1.682-8.792l-1.684-8.792c-0.103-0.55-0.396-1.082-0.808-1.494s-0.944-0.704-1.529-0.773
			c-4.397-0.893-8.862-1.339-13.327-1.339s-8.93,0.446-13.327,1.339c-0.584,0.069-1.116,0.361-1.529,0.773
			c-0.412,0.412-0.704,0.944-0.807,1.494l-1.683,8.793l-1.683,8.793c-2.542,0.997-5.032,2.182-7.394,3.547
			c-2.361,1.365-4.594,2.91-6.621,4.628l-8.484-2.953l-8.484-2.954c-0.549-0.241-1.116-0.275-1.648-0.129
			c-0.533,0.146-1.031,0.472-1.443,0.953c-2.919,3.332-5.564,7.007-7.823,10.905c-2.258,3.898-4.13,8.021-5.504,12.245
			c-0.241,0.55-0.275,1.151-0.128,1.7c0.146,0.549,0.472,1.047,0.953,1.391l6.732,5.839l6.732,5.839
			c-0.24,1.305-0.395,2.662-0.489,4.036c-0.095,1.374-0.129,2.766-0.129,4.139c0,1.373,0.034,2.767,0.128,4.139
			c0.094,1.375,0.249,2.73,0.489,4.037l-6.731,5.838l-6.731,5.841c-0.48,0.344-0.807,0.842-0.953,1.391
			c-0.146,0.55-0.112,1.15,0.128,1.699c1.374,4.228,3.246,8.349,5.504,12.246c2.259,3.897,4.903,7.573,7.823,10.905
			c0.413,0.48,0.911,0.808,1.443,0.953c0.533,0.146,1.099,0.111,1.649-0.129l8.484-2.955l8.484-2.953
			c2.026,1.718,4.259,3.265,6.621,4.63c2.361,1.364,4.852,2.549,7.393,3.545l1.683,8.795l1.683,8.793
			c0.103,0.549,0.395,1.082,0.807,1.494c0.412,0.411,0.945,0.705,1.529,0.772c2.198,0.412,4.396,0.738,6.611,0.961
			c2.215,0.224,4.448,0.344,6.717,0.344c2.267,0,4.498-0.12,6.715-0.344c2.216-0.223,4.412-0.549,6.61-0.961
			c0.585-0.067,1.117-0.361,1.529-0.772c0.413-0.412,0.704-0.945,0.808-1.494l1.684-8.793l1.683-8.795
			c2.542-0.996,4.998-2.181,7.343-3.545c2.344-1.365,4.577-2.912,6.672-4.63l8.483,2.953l8.483,2.955
			c0.551,0.24,1.117,0.273,1.65,0.129c0.531-0.146,1.029-0.473,1.441-0.953c2.92-3.332,5.564-7.008,7.822-10.905
			c2.259-3.897,4.131-8.021,5.506-12.246C142.521,98.412,142.557,97.811,142.409,97.262z M106.648,105.799
			c-7.891,7.891-18.785,12.777-30.799,12.777c-12.015,0-22.909-4.887-30.8-12.777C37.16,97.908,32.273,87.014,32.273,75
			c0-12.015,4.887-22.909,12.778-30.8c7.891-7.891,18.785-12.778,30.801-12.778c12.014,0,22.907,4.887,30.799,12.778
			c7.891,7.891,12.777,18.785,12.777,30.8C119.428,87.014,114.54,97.908,106.648,105.799z"/>
	</g>
</g>
</svg>
