<?xml version="1.0" encoding="UTF-8"?>
<svg width="135px" height="50px" viewBox="0 0 135 50" version="1.1" xmlns="http://www.w3.org/2000/svg" xmlns:xlink="http://www.w3.org/1999/xlink">
    <!-- Generator: Sketch 47.1 (45422) - http://www.bohemiancoding.com/sketch -->
    <title>teleport-logo</title>
    <desc>Created with Sketch.</desc>
    <defs></defs>
    <g id="Page-1" stroke="none" stroke-width="1" fill="none" fill-rule="evenodd">
        <g id="teleport-logo">
            <g id="tel-copy" fill="#265579">
                <g id="new-logo">
                    <g id="teleport-logo" fill-rule="nonzero">
                        <g id="Layer_2">
                            <g id="Group">
                                <path d="M16.9624478,7.71261972 C14.1934776,7.71261972 11.6830597,8.83774648 9.86456716,10.6547324 C8.04607463,12.4717183 6.92001493,14.9800563 6.92001493,17.7464789 C6.92001493,20.5129014 8.04607463,23.0209859 9.86456716,24.8382254 C11.6830597,26.6549577 14.1934776,27.7800845 16.9624478,27.7800845 C19.7311642,27.7800845 22.2415821,26.6549577 24.0600746,24.8382254 C25.8783134,23.0209859 27.0043731,20.5129014 27.0043731,17.7464789 C27.0043731,14.9800563 25.8783134,12.4714648 24.0600746,10.6547324 C22.2410746,8.83774648 19.7311642,7.71261972 16.9624478,7.71261972 L16.9624478,7.71261972 Z M21.2246269,15.0102254 L18.1496567,15.0102254 L18.1496567,23.6806479 L15.7747313,23.6806479 L15.7747313,15.0102254 L12.6995075,15.0102254 L12.6995075,12.9110704 L21.2248806,12.9110704 L21.2248806,15.0102254 L21.2246269,15.0102254 L21.2246269,15.0102254 Z" id="Shape"></path>
                                <path d="M33.8500448,23.3903662 C33.813,23.2511831 33.7297761,23.1249296 33.6077313,23.0377183 L31.8998657,21.5571549 L30.1922537,20.0770986 C30.2531493,19.7457465 30.2924776,19.4022254 30.3160746,19.0536338 C30.3401791,18.7055493 30.348806,18.3523944 30.348806,18.0043099 C30.348806,17.6557183 30.3401791,17.3030704 30.3160746,16.9544789 C30.2922239,16.6061408 30.2531493,16.2621127 30.1922537,15.9310141 L31.8998657,14.4507042 L33.6077313,12.9703944 C33.7297761,12.8831831 33.8132537,12.7571831 33.8500448,12.6177465 C33.8868358,12.4783099 33.8779552,12.3261972 33.8170597,12.186507 C33.4681791,11.1156338 32.9934478,10.0706197 32.4200149,9.08214085 C31.8470896,8.09391549 31.1764776,7.16197183 30.4355821,6.31749296 C30.3310448,6.1955493 30.2046866,6.11264789 30.0697015,6.07588732 C29.9349701,6.03887324 29.790597,6.04774648 29.6515522,6.10859155 L27.4988955,6.85749296 L25.3467463,7.60614085 C24.8149254,7.17059155 24.248597,6.77890141 23.6538507,6.43284507 C23.058597,6.08678873 22.4354328,5.7863662 21.7904478,5.53360563 L21.3636716,3.30464789 L20.9363881,1.07569014 C20.9102537,0.936253521 20.8359104,0.801380282 20.7313731,0.696929577 C20.6268358,0.592478873 20.4918507,0.518450704 20.3434179,0.500957746 C19.2277612,0.27456338 18.0948507,0.161492958 16.9619403,0.161492958 C15.8290299,0.161492958 14.6961194,0.27456338 13.5804627,0.500957746 C13.4322836,0.518450704 13.2972985,0.592478873 13.1925075,0.696929577 C13.0879701,0.801380282 13.0138806,0.936253521 12.9877463,1.07569014 L12.5607164,3.30490141 L12.1336866,5.53411268 C11.4887015,5.78687324 10.8569104,6.08729577 10.257597,6.43335211 C9.65853731,6.77940845 9.09195522,7.17109859 8.57764179,7.60664789 L6.42498507,6.858 L4.27232836,6.10909859 C4.13302985,6.048 3.98916418,6.03938028 3.8541791,6.07639437 C3.7189403,6.11340845 3.59258209,6.19605634 3.48804478,6.318 C2.74740299,7.16273239 2.07628358,8.09442254 1.50310448,9.08264789 C0.930179104,10.0708732 0.45519403,11.1161408 0.106567164,12.1870141 C0.0454179104,12.3264507 0.0367910448,12.4788169 0.0740895522,12.618 C0.111134328,12.7571831 0.193850746,12.8834366 0.315895522,12.9706479 L2.02401493,14.4509577 L3.73213433,15.9312676 C3.67123881,16.2621127 3.63191045,16.6061408 3.6080597,16.9544789 C3.58395522,17.3028169 3.57532836,17.6557183 3.57532836,18.0038028 C3.57532836,18.3518873 3.58395522,18.7052958 3.60780597,19.0531268 C3.63165672,19.4017183 3.67098507,19.7452394 3.7318806,20.0765915 L2.02401493,21.5566479 L0.316149254,23.0374648 C0.194358209,23.1246761 0.11138806,23.2509296 0.0743432836,23.3901127 C0.0372985075,23.5295493 0.0459253731,23.681662 0.106820896,23.8208451 C0.455447761,24.8927324 0.930432836,25.937493 1.50335821,26.9254648 C2.07653731,27.9134366 2.74740299,28.8453803 3.48829851,29.6901127 C3.59308955,29.8118028 3.71944776,29.8949577 3.85443284,29.9317183 C3.98967164,29.9687324 4.13328358,29.9598592 4.27283582,29.8990141 L6.42549254,29.1498592 L8.57814925,28.4012113 C9.09220896,28.8367606 9.65879104,29.2289577 10.2581045,29.5750141 C10.8571642,29.9208169 11.489209,30.2212394 12.1339403,30.4737465 L12.5609701,32.7034648 L12.988,34.9326761 C13.0141343,35.0718592 13.0882239,35.2069859 13.1927612,35.3114366 C13.2972985,35.4156338 13.4325373,35.490169 13.5807164,35.5071549 C14.1384179,35.6116056 14.6961194,35.6942535 15.2581343,35.7507887 C15.8201493,35.8075775 16.3867313,35.838 16.9624478,35.838 C17.5376567,35.838 18.1037313,35.8075775 18.6662537,35.7507887 C19.2285224,35.6942535 19.7857164,35.6116056 20.3434179,35.5071549 C20.4918507,35.490169 20.6268358,35.4156338 20.7313731,35.3114366 C20.8361642,35.2069859 20.91,35.0718592 20.9363881,34.9326761 L21.3636716,32.7034648 L21.7907015,30.4737465 C22.4356866,30.2212394 23.0588507,29.9208169 23.6538507,29.5750141 C24.248597,29.2289577 24.8151791,28.8367606 25.3467463,28.4012113 L27.4991493,29.1498592 L29.6515522,29.8990141 C29.7913582,29.9598592 29.9349701,29.9682254 30.070209,29.9317183 C30.2049403,29.8947042 30.3312985,29.8118028 30.4358358,29.6901127 C31.1767313,28.8453803 31.847597,27.9134366 32.4205224,26.9254648 C32.9937015,25.937493 33.4686866,24.8919718 33.8175672,23.8208451 C33.8784627,23.6819155 33.887597,23.5295493 33.8500448,23.3903662 L33.8500448,23.3903662 Z M24.7763582,25.5546761 C22.7741642,27.5552113 20.0100149,28.7939155 16.9616866,28.7939155 C13.9131045,28.7939155 11.1489552,27.5549577 9.14676119,25.5546761 C7.14507463,23.5541408 5.90508955,20.7922817 5.90508955,17.7464789 C5.90508955,14.7004225 7.14507463,11.9385634 9.14726866,9.93802817 C11.1494627,7.93749296 13.9136119,6.69853521 16.9624478,6.69853521 C20.0107761,6.69853521 22.7746716,7.93749296 24.7771194,9.93802817 C26.7793134,11.9385634 28.0190448,14.7004225 28.0190448,17.7464789 C28.0190448,20.7922817 26.778806,23.5541408 24.7763582,25.5546761 L24.7763582,25.5546761 Z" id="Shape"></path>
                            </g>
                        </g>
                    </g>
                    <path d="M45.6132812,28 L45.6132812,13.7265625 L40.515625,13.7265625 L40.515625,10.8203125 L54.1679688,10.8203125 L54.1679688,13.7265625 L49.0820312,13.7265625 L49.0820312,28 L45.6132812,28 Z M63.0898438,24.0390625 L66.3710938,24.5898438 C65.9492166,25.7929748 65.2832077,26.7089812 64.3730469,27.3378906 C63.4628861,27.9668 62.3242256,28.28125 60.9570312,28.28125 C58.7929579,28.28125 57.1914114,27.5742258 56.1523438,26.1601562 C55.3320271,25.0273381 54.921875,23.5976649 54.921875,21.8710938 C54.921875,19.8085834 55.4609321,18.1933652 56.5390625,17.0253906 C57.6171929,15.857416 58.9804605,15.2734375 60.6289062,15.2734375 C62.480478,15.2734375 63.9414009,15.8847595 65.0117188,17.1074219 C66.0820366,18.3300842 66.5937502,20.2031124 66.546875,22.7265625 L58.296875,22.7265625 C58.3203126,23.7031299 58.585935,24.4628879 59.09375,25.0058594 C59.601565,25.5488308 60.2343712,25.8203125 60.9921875,25.8203125 C61.5078151,25.8203125 61.9414045,25.6796889 62.2929688,25.3984375 C62.644533,25.1171861 62.9101554,24.6640656 63.0898438,24.0390625 Z M63.2773438,20.7109375 C63.2539061,19.7578077 63.0078148,19.0332056 62.5390625,18.5371094 C62.0703102,18.0410131 61.5000034,17.7929688 60.828125,17.7929688 C60.1093714,17.7929688 59.5156273,18.0546849 59.046875,18.578125 C58.5781227,19.1015651 58.3476562,19.8124955 58.3554688,20.7109375 L63.2773438,20.7109375 Z M69.2304688,28 L69.2304688,10.8203125 L72.5234375,10.8203125 L72.5234375,28 L69.2304688,28 Z M83.1054688,24.0390625 L86.3867188,24.5898438 C85.9648416,25.7929748 85.2988327,26.7089812 84.3886719,27.3378906 C83.4785111,27.9668 82.3398506,28.28125 80.9726562,28.28125 C78.8085829,28.28125 77.2070364,27.5742258 76.1679688,26.1601562 C75.3476521,25.0273381 74.9375,23.5976649 74.9375,21.8710938 C74.9375,19.8085834 75.4765571,18.1933652 76.5546875,17.0253906 C77.6328179,15.857416 78.9960855,15.2734375 80.6445312,15.2734375 C82.496103,15.2734375 83.9570259,15.8847595 85.0273438,17.1074219 C86.0976616,18.3300842 86.6093752,20.2031124 86.5625,22.7265625 L78.3125,22.7265625 C78.3359376,23.7031299 78.60156,24.4628879 79.109375,25.0058594 C79.61719,25.5488308 80.2499962,25.8203125 81.0078125,25.8203125 C81.5234401,25.8203125 81.9570295,25.6796889 82.3085938,25.3984375 C82.660158,25.1171861 82.9257804,24.6640656 83.1054688,24.0390625 Z M83.2929688,20.7109375 C83.2695311,19.7578077 83.0234398,19.0332056 82.5546875,18.5371094 C82.0859352,18.0410131 81.5156284,17.7929688 80.84375,17.7929688 C80.1249964,17.7929688 79.5312523,18.0546849 79.0625,18.578125 C78.5937477,19.1015651 78.3632812,19.8124955 78.3710938,20.7109375 L83.2929688,20.7109375 Z M89.1523438,15.5546875 L92.2226562,15.5546875 L92.2226562,17.3828125 C92.6210957,16.7578094 93.1601529,16.250002 93.8398438,15.859375 C94.5195346,15.468748 95.2734334,15.2734375 96.1015625,15.2734375 C97.5468822,15.2734375 98.7734325,15.8398381 99.78125,16.9726562 C100.789068,18.1054744 101.292969,19.6835836 101.292969,21.7070312 C101.292969,23.7851666 100.785161,25.4003849 99.7695312,26.5527344 C98.7539012,27.7050839 97.5234447,28.28125 96.078125,28.28125 C95.3906216,28.28125 94.7675809,28.1445326 94.2089844,27.8710938 C93.6503878,27.5976549 93.0625031,27.1289096 92.4453125,26.4648438 L92.4453125,32.734375 L89.1523438,32.734375 L89.1523438,15.5546875 Z M92.4101562,21.5664062 C92.4101562,22.9648507 92.6874972,23.9980435 93.2421875,24.6660156 C93.7968778,25.3339877 94.4726523,25.6679688 95.2695312,25.6679688 C96.0351601,25.6679688 96.6718725,25.3613312 97.1796875,24.7480469 C97.6875025,24.1347626 97.9414062,23.1289132 97.9414062,21.7304688 C97.9414062,20.4257747 97.6796901,19.4570344 97.15625,18.8242188 C96.6328099,18.1914031 95.9843789,17.875 95.2109375,17.875 C94.406246,17.875 93.7382839,18.1855438 93.2070312,18.8066406 C92.6757786,19.4277375 92.4101562,20.3476502 92.4101562,21.5664062 Z M103.144531,21.6015625 C103.144531,20.507807 103.41406,19.4492239 103.953125,18.4257812 C104.49219,17.4023386 105.255854,16.6210964 106.244141,16.0820312 C107.232427,15.5429661 108.335931,15.2734375 109.554688,15.2734375 C111.437509,15.2734375 112.980463,15.8847595 114.183594,17.1074219 C115.386725,18.3300842 115.988281,19.8749907 115.988281,21.7421875 C115.988281,23.6250094 115.380865,25.1855407 114.166016,26.4238281 C112.951166,27.6621156 111.421884,28.28125 109.578125,28.28125 C108.437494,28.28125 107.349615,28.0234401 106.314453,27.5078125 C105.279292,26.9921849 104.49219,26.2363331 103.953125,25.2402344 C103.41406,24.2441356 103.144531,23.0312571 103.144531,21.6015625 Z M106.519531,21.7773438 C106.519531,23.0117249 106.812497,23.957028 107.398438,24.6132812 C107.984378,25.2695345 108.707027,25.5976562 109.566406,25.5976562 C110.425786,25.5976562 111.146481,25.2695345 111.728516,24.6132812 C112.31055,23.957028 112.601562,23.0039125 112.601562,21.7539062 C112.601562,20.5351502 112.31055,19.5976595 111.728516,18.9414062 C111.146481,18.285153 110.425786,17.9570312 109.566406,17.9570312 C108.707027,17.9570312 107.984378,18.285153 107.398438,18.9414062 C106.812497,19.5976595 106.519531,20.5429626 106.519531,21.7773438 Z M121.71875,28 L118.425781,28 L118.425781,15.5546875 L121.484375,15.5546875 L121.484375,17.3242188 C122.007815,16.4882771 122.478514,15.9375013 122.896484,15.671875 C123.314455,15.4062487 123.78906,15.2734375 124.320312,15.2734375 C125.070316,15.2734375 125.792965,15.4804667 126.488281,15.8945312 L125.46875,18.765625 C124.91406,18.4062482 124.39844,18.2265625 123.921875,18.2265625 C123.460935,18.2265625 123.070314,18.3535144 122.75,18.6074219 C122.429686,18.8613294 122.177735,19.3203092 121.994141,19.984375 C121.810546,20.6484408 121.71875,22.0390519 121.71875,24.15625 L121.71875,28 Z M134.613281,15.5546875 L134.613281,18.1796875 L132.363281,18.1796875 L132.363281,23.1953125 C132.363281,24.2109426 132.384765,24.8027335 132.427734,24.9707031 C132.470703,25.1386727 132.568359,25.2773432 132.720703,25.3867188 C132.873048,25.4960943 133.058593,25.5507812 133.277344,25.5507812 C133.582033,25.5507812 134.023435,25.4453136 134.601562,25.234375 L134.882812,27.7890625 C134.117184,28.1171891 133.250005,28.28125 132.28125,28.28125 C131.687497,28.28125 131.152346,28.1816416 130.675781,27.9824219 C130.199216,27.7832021 129.84961,27.5253922 129.626953,27.2089844 C129.404296,26.8925765 129.25,26.4648464 129.164062,25.9257812 C129.09375,25.5429668 129.058594,24.7695371 129.058594,23.6054688 L129.058594,18.1796875 L127.546875,18.1796875 L127.546875,15.5546875 L129.058594,15.5546875 L129.058594,13.0820312 L132.363281,11.1601562 L132.363281,15.5546875 L134.613281,15.5546875 Z" id="Teleport"></path>
                </g>
            </g>
            <path d="M13.7421875,49 L13.7421875,41.8417969 L15.1679688,41.8417969 L16.8623047,46.9101562 C17.0185555,47.3821638 17.1324866,47.7353504 17.2041016,47.9697266 C17.2854822,47.7093086 17.412434,47.3268254 17.5849609,46.8222656 L19.2988281,41.8417969 L20.5732422,41.8417969 L20.5732422,49 L19.6601562,49 L19.6601562,43.0087891 L17.5800781,49 L16.7255859,49 L14.6552734,42.90625 L14.6552734,49 L13.7421875,49 Z M21.1154297,49 L23.8644531,41.8417969 L24.8849609,41.8417969 L27.8146484,49 L26.7355469,49 L25.9005859,46.8320312 L22.9074219,46.8320312 L22.1212891,49 L21.1154297,49 Z M23.1808594,46.0605469 L25.6076172,46.0605469 L24.8605469,44.078125 C24.6326811,43.4759084 24.463412,42.9811217 24.3527344,42.59375 C24.2615881,43.0527367 24.1330086,43.5084613 23.9669922,43.9609375 L23.1808594,46.0605469 Z M28.3714844,49 L28.3714844,41.8417969 L30.8373047,41.8417969 C31.3939481,41.8417969 31.8187485,41.8759762 32.1117187,41.9443359 C32.521877,42.0387375 32.8718084,42.2096342 33.1615234,42.4570312 C33.5391295,42.7760433 33.821516,43.183754 34.0086914,43.6801758 C34.1958668,44.1765975 34.2894531,44.7438119 34.2894531,45.3818359 C34.2894531,45.9254584 34.2259772,46.4072245 34.0990234,46.8271484 C33.9720697,47.2470724 33.8093109,47.5945624 33.6107422,47.8696289 C33.4121735,48.1446954 33.1948905,48.3611646 32.9588867,48.519043 C32.7228829,48.6769214 32.438055,48.7965491 32.1043945,48.8779297 C31.770734,48.9593103 31.3874371,49 30.9544922,49 L28.3714844,49 Z M29.31875,48.1552734 L30.8470703,48.1552734 C31.3190779,48.1552734 31.6893541,48.1113286 31.9579102,48.0234375 C32.2264662,47.9355464 32.440494,47.8118498 32.6,47.6523438 C32.8246105,47.4277333 32.9995762,47.1258157 33.1249023,46.746582 C33.2502285,46.3673484 33.3128906,45.9075548 33.3128906,45.3671875 C33.3128906,44.6184858 33.1900077,44.0431335 32.9442383,43.6411133 C32.6984688,43.239093 32.3998064,42.9697272 32.0482422,42.8330078 C31.7943347,42.7353511 31.3858101,42.6865234 30.8226562,42.6865234 L29.31875,42.6865234 L29.31875,48.1552734 Z M35.4126953,49 L35.4126953,41.8417969 L40.5884766,41.8417969 L40.5884766,42.6865234 L36.3599609,42.6865234 L36.3599609,44.8789062 L40.3199219,44.8789062 L40.3199219,45.71875 L36.3599609,45.71875 L36.3599609,48.1552734 L40.7544922,48.1552734 L40.7544922,49 L35.4126953,49 Z M44.4023437,49 L44.4023437,41.8417969 L47.0878906,41.8417969 C47.6347683,41.8417969 48.0734033,41.9142245 48.4038086,42.059082 C48.7342139,42.2039395 48.9930004,42.4269191 49.1801758,42.7280273 C49.3673512,43.0291356 49.4609375,43.3440739 49.4609375,43.6728516 C49.4609375,43.9788427 49.3779305,44.2669257 49.211914,44.5371094 C49.0458976,44.807293 48.7952491,45.0253898 48.4599609,45.1914062 C48.8929058,45.31836 49.2257475,45.5348292 49.4584961,45.8408203 C49.6912446,46.1468114 49.8076172,46.5081359 49.8076172,46.9248047 C49.8076172,47.2600928 49.7368171,47.5717759 49.5952148,47.8598633 C49.4536126,48.1479507 49.2786469,48.3701164 49.0703125,48.5263672 C48.8619781,48.682618 48.6007503,48.8006181 48.2866211,48.8803711 C47.9724919,48.9601241 47.5875674,49 47.1318359,49 L44.4023437,49 Z M45.3496094,44.8496094 L46.8974609,44.8496094 C47.3173849,44.8496094 47.6184887,44.8219404 47.8007812,44.7666016 C48.0416679,44.6949866 48.2231439,44.5761727 48.3452148,44.4101562 C48.4672858,44.2441398 48.5283203,44.0358085 48.5283203,43.7851562 C48.5283203,43.5475249 48.4713547,43.3383798 48.3574219,43.1577148 C48.243489,42.9770499 48.0807302,42.8533532 47.8691406,42.7866211 C47.657551,42.719889 47.2945989,42.6865234 46.7802734,42.6865234 L45.3496094,42.6865234 L45.3496094,44.8496094 Z M45.3496094,48.1552734 L47.1318359,48.1552734 C47.437827,48.1552734 47.6526686,48.1438803 47.7763672,48.1210938 C47.9944672,48.0820311 48.1767571,48.0169275 48.3232422,47.9257812 C48.4697273,47.834635 48.5901688,47.7019865 48.6845703,47.527832 C48.7789718,47.3536775 48.8261719,47.1526704 48.8261719,46.9248047 C48.8261719,46.6578763 48.7578132,46.425945 48.6210937,46.2290039 C48.4843743,46.0320628 48.2947603,45.8937178 48.0522461,45.8139648 C47.8097318,45.7342118 47.4606142,45.6943359 47.0048828,45.6943359 L45.3496094,45.6943359 L45.3496094,48.1552734 Z M52.9279297,49 L52.9279297,45.9677734 L50.1691406,41.8417969 L51.3214844,41.8417969 L52.7326172,44 C52.9930351,44.4036479 53.2355457,44.8072896 53.4601562,45.2109375 C53.6750011,44.8365867 53.9354151,44.4150414 54.2414062,43.9462891 L55.628125,41.8417969 L56.7316406,41.8417969 L53.8751953,45.9677734 L53.8751953,49 L52.9279297,49 Z M63.1285156,46.1923828 L63.1285156,45.3525391 L66.1607422,45.3476562 L66.1607422,48.0039062 C65.695245,48.3750019 65.2151066,48.6541332 64.7203125,48.8413086 C64.2255183,49.028484 63.7177109,49.1220703 63.196875,49.1220703 C62.4937465,49.1220703 61.8549182,48.9715184 61.2803711,48.6704102 C60.7058239,48.3693019 60.2720718,47.9339221 59.9791015,47.3642578 C59.6861313,46.7945935 59.5396484,46.1582066 59.5396484,45.4550781 C59.5396484,44.7584601 59.6853175,44.1082387 59.9766601,43.5043945 C60.2680027,42.9005504 60.6871066,42.4521499 61.2339844,42.1591797 C61.7808621,41.8662095 62.4107386,41.7197266 63.1236328,41.7197266 C63.6412135,41.7197266 64.109145,41.8035473 64.5274414,41.9711914 C64.9457377,42.1388355 65.2736967,42.3723943 65.5113281,42.671875 C65.7489595,42.9713557 65.9296218,43.3619768 66.0533203,43.84375 L65.1988281,44.078125 C65.0914057,43.7135398 64.9579435,43.4270844 64.7984375,43.21875 C64.6389315,43.0104156 64.4110692,42.8435879 64.1148437,42.7182617 C63.8186183,42.5929356 63.4898455,42.5302734 63.1285156,42.5302734 C62.6955707,42.5302734 62.3212255,42.5961907 62.0054687,42.7280273 C61.6897119,42.8598639 61.4349944,43.0332021 61.2413086,43.2480469 C61.0476227,43.4628917 60.8970708,43.6988919 60.7896484,43.9560547 C60.6073558,44.3987652 60.5162109,44.8789037 60.5162109,45.3964844 C60.5162109,46.0345084 60.6260731,46.5683572 60.8458008,46.9980469 C61.0655284,47.4277365 61.3853494,47.7467438 61.8052734,47.9550781 C62.2251974,48.1634125 62.6711565,48.2675781 63.143164,48.2675781 C63.5533223,48.2675781 63.953709,48.1886401 64.3443359,48.0307617 C64.7349629,47.8728833 65.0311839,47.704428 65.2330078,47.5253906 L65.2330078,46.1923828 L63.1285156,46.1923828 Z M67.371875,49 L67.371875,41.8417969 L70.5457031,41.8417969 C71.1837271,41.8417969 71.6687483,41.9060866 72.0007812,42.034668 C72.3328141,42.1632493 72.598111,42.3902979 72.7966797,42.7158203 C72.9952484,43.0413428 73.0945312,43.4010397 73.0945312,43.7949219 C73.0945312,44.3027369 72.9301448,44.7307925 72.6013672,45.0791016 C72.2725895,45.4274106 71.7647821,45.6487625 71.0779297,45.7431641 C71.328582,45.8636074 71.5190097,45.9824213 71.6492187,46.0996094 C71.9259128,46.3535169 72.1879545,46.6708965 72.4353515,47.0517578 L73.6804687,49 L72.4890625,49 L71.5417968,47.5107422 C71.2651028,47.0810525 71.0372405,46.7522798 70.8582031,46.5244141 C70.6791657,46.2965483 70.5188483,46.1370447 70.3772461,46.0458984 C70.2356438,45.9547521 70.0916023,45.8912762 69.9451172,45.8554688 C69.8376947,45.8326822 69.6619153,45.8212891 69.4177734,45.8212891 L68.3191406,45.8212891 L68.3191406,49 L67.371875,49 Z M68.3191406,45.0009766 L70.3552734,45.0009766 C70.7882183,45.0009766 71.1267566,44.9562179 71.3708984,44.8666992 C71.6150403,44.7771805 71.8005853,44.6339528 71.927539,44.4370117 C72.0544928,44.2400706 72.1179687,44.0260428 72.1179687,43.7949219 C72.1179687,43.4563785 71.9950858,43.178061 71.7493164,42.9599609 C71.5035469,42.7418609 71.1153672,42.6328125 70.5847656,42.6328125 L68.3191406,42.6328125 L68.3191406,45.0009766 Z M73.5927734,49 L76.3417968,41.8417969 L77.3623047,41.8417969 L80.2919922,49 L79.2128906,49 L78.3779297,46.8320312 L75.3847656,46.8320312 L74.5986328,49 L73.5927734,49 Z M75.6582031,46.0605469 L78.0849609,46.0605469 L77.3378906,44.078125 C77.1100249,43.4759084 76.9407557,42.9811217 76.8300781,42.59375 C76.7389318,43.0527367 76.6103524,43.5084613 76.4443359,43.9609375 L75.6582031,46.0605469 Z M82.152539,49 L79.3791015,41.8417969 L80.4044922,41.8417969 L82.2648437,47.0419922 C82.414584,47.4586609 82.5399083,47.849282 82.6408203,48.2138672 C82.7514979,47.8232402 82.8800774,47.4326191 83.0265625,47.0419922 L84.9601562,41.8417969 L85.9269531,41.8417969 L83.1242187,49 L82.152539,49 Z M86.7376953,49 L86.7376953,41.8417969 L87.6849609,41.8417969 L87.6849609,49 L86.7376953,49 Z M90.9761718,49 L90.9761718,42.6865234 L88.6177734,42.6865234 L88.6177734,41.8417969 L94.2916015,41.8417969 L94.2916015,42.6865234 L91.9234375,42.6865234 L91.9234375,49 L90.9761718,49 Z M93.5349609,49 L96.2839843,41.8417969 L97.3044921,41.8417969 L100.23418,49 L99.1550781,49 L98.3201171,46.8320312 L95.3269531,46.8320312 L94.5408203,49 L93.5349609,49 Z M95.6003906,46.0605469 L98.0271484,46.0605469 L97.2800781,44.078125 C97.0522124,43.4759084 96.8829432,42.9811217 96.7722656,42.59375 C96.6811193,43.0527367 96.5525399,43.5084613 96.3865234,43.9609375 L95.6003906,46.0605469 Z M101.870117,49 L101.870117,42.6865234 L99.5117187,42.6865234 L99.5117187,41.8417969 L105.185547,41.8417969 L105.185547,42.6865234 L102.817383,42.6865234 L102.817383,49 L101.870117,49 Z M106.118359,49 L106.118359,41.8417969 L107.065625,41.8417969 L107.065625,49 L106.118359,49 Z M108.247461,45.5136719 C108.247461,44.3255149 108.566468,43.3953484 109.204492,42.7231445 C109.842516,42.0509406 110.666076,41.7148438 111.675195,41.7148438 C112.336006,41.7148438 112.931703,41.8727198 113.462305,42.1884766 C113.992906,42.5042333 114.397362,42.9444959 114.675684,43.5092773 C114.954005,44.0740588 115.093164,44.7145146 115.093164,45.4306641 C115.093164,46.1565792 114.946681,46.8059867 114.653711,47.3789062 C114.360741,47.9518258 113.945706,48.385578 113.408594,48.6801758 C112.871482,48.9747736 112.29206,49.1220703 111.670312,49.1220703 C110.996481,49.1220703 110.394273,48.9593115 109.863672,48.6337891 C109.33307,48.3082666 108.931056,47.8639351 108.657617,47.3007812 C108.384178,46.7376274 108.247461,46.1419302 108.247461,45.5136719 Z M109.224023,45.5283203 C109.224023,46.3909548 109.455955,47.0704728 109.919824,47.5668945 C110.383694,48.0633163 110.965556,48.3115234 111.66543,48.3115234 C112.378324,48.3115234 112.965069,48.0608749 113.425684,47.5595703 C113.886298,47.0582657 114.116602,46.3470098 114.116602,45.4257812 C114.116602,44.843096 114.018132,44.3344748 113.821191,43.8999023 C113.62425,43.4653299 113.336167,43.1284192 112.956934,42.8891602 C112.5777,42.6499011 112.152086,42.5302734 111.680078,42.5302734 C111.009502,42.5302734 110.432522,42.7605771 109.949121,43.2211914 C109.46572,43.6818057 109.224023,44.450841 109.224023,45.5283203 Z M116.104102,49 L116.104102,41.8417969 L117.075781,41.8417969 L120.835547,47.4619141 L120.835547,41.8417969 L121.74375,41.8417969 L121.74375,49 L120.77207,49 L117.012305,43.375 L117.012305,49 L116.104102,49 Z M122.349414,49 L125.098437,41.8417969 L126.118945,41.8417969 L129.048633,49 L127.969531,49 L127.13457,46.8320312 L124.141406,46.8320312 L123.355273,49 L122.349414,49 Z M124.414844,46.0605469 L126.841602,46.0605469 L126.094531,44.078125 C125.866665,43.4759084 125.697396,42.9811217 125.586719,42.59375 C125.495572,43.0527367 125.366993,43.5084613 125.200977,43.9609375 L124.414844,46.0605469 Z M129.566406,49 L129.566406,41.8417969 L130.513672,41.8417969 L130.513672,48.1552734 L134.039062,48.1552734 L134.039062,49 L129.566406,49 Z" id="MADE-BY-GRAVITATIONA" fill="#4A4A4A"></path>
        </g>
    </g>
</svg>