<?xml version="1.0" encoding="UTF-8"?>
<svg width="117px" height="109px" viewBox="0 0 117 109" version="1.1" xmlns="http://www.w3.org/2000/svg" xmlns:xlink="http://www.w3.org/1999/xlink">
    <!-- Generator: Sketch 47.1 (45422) - http://www.bohemiancoding.com/sketch -->
    <title>new_logo_teleport_outline</title>
    <desc>Created with Sketch.</desc>
    <defs></defs>
    <g id="Page-1" stroke="none" stroke-width="1" fill="none" fill-rule="evenodd">
        <g id="new_logo_teleport_outline">
            <g id="logo" transform="translate(-91.000000, 0.000000)">
                <g id="Layer_2" transform="translate(123.000000, 0.000000)" fill-rule="nonzero" fill="#3C5E86">
                    <g id="Group">
                        <path d="M27.6033523,12.3515833 C23.1332424,12.3515833 19.0801648,14.1689161 16.1440098,17.1039589 C13.2084615,20.0383952 11.3898346,24.0899381 11.3898346,28.5589583 C11.3898346,33.027375 13.2078571,37.0783137 16.1440098,40.0127476 C19.0801624,42.9471815 23.1332424,44.7645214 27.6033523,44.7645214 C32.0734621,44.7645214 36.1265397,42.9471863 39.0620861,40.0127476 C41.9976325,37.0783089 43.8156605,33.027375 43.8156605,28.5589583 C43.8156605,24.0905417 41.9976368,20.0377917 39.0620861,17.1039589 C36.1259359,14.1689161 32.0734621,12.3515833 27.6033523,12.3515833 L27.6033523,12.3515833 Z M34.4856032,24.1388738 L29.5210995,24.1388738 L29.5210995,38.1434595 L25.6868126,38.1434595 L25.6868126,24.1388738 L20.7217027,24.1388738 L20.7217027,20.7482905 L34.4856032,20.7482905 L34.4856032,24.1388738 L34.4856032,24.1388738 Z" id="Shape"></path>
                        <path d="M54.8688443,37.674022 C54.8090098,37.449875 54.674834,37.2456679 54.4778028,37.1048964 L51.7205476,34.7136048 L48.9632973,32.3229167 C49.061815,31.7870202 49.1252741,31.2323958 49.1633529,30.6699167 C49.2020312,30.1074375 49.2159341,29.5377077 49.2159341,28.9752292 C49.2159341,28.4115423 49.2026355,27.8424167 49.1633529,27.2793339 C49.1252735,26.7162512 49.061815,26.1610202 48.9632973,25.6263339 L51.7205476,23.2356458 L54.4778028,20.8443542 C54.6748334,20.7035845 54.8096136,20.4999792 54.8688443,20.2752286 C54.9286837,20.0498762 54.914177,19.8045833 54.8156593,19.5786244 C54.2523632,17.8494994 53.4859908,16.1614589 52.5606575,14.5646452 C51.6353291,12.9684381 50.5528559,11.4634589 49.3561557,10.09925 C49.1875299,9.90229167 48.9832412,9.76816667 48.7650543,9.70895833 C48.5474713,9.64914644 48.3147826,9.66364644 48.0899463,9.76152083 L44.6140677,10.9710631 L41.1393968,12.18 C40.2811563,11.47675 39.3661013,10.8441875 38.4063181,10.2847298 C37.4453315,9.725875 36.439616,9.24072917 35.3976386,8.8323125 L34.7086282,5.23208333 L34.0190134,1.63185417 C33.9773101,1.4065 33.8570324,1.189 33.688406,1.01983333 C33.5197802,0.850666667 33.300989,0.731041667 33.0616508,0.70325 C31.2605501,0.337729167 29.431044,0.154666667 27.6021423,0.154666667 C25.7732405,0.154666667 23.9437369,0.337125 22.1426386,0.70325 C21.9032979,0.731041667 21.6857149,0.851271438 21.5164829,1.01983333 C21.3478571,1.18839583 21.2275836,1.4065 21.1858803,1.63185417 L20.4962631,5.23208333 L19.8066484,8.83291727 C18.7652747,9.24133333 17.7450555,9.72647977 16.777417,10.2853333 C15.8103852,10.8441869 14.8959341,11.4773542 14.0654939,12.1806036 L10.5902192,10.9716667 L7.11494445,9.7621256 C6.89010929,9.66304167 6.65802198,9.64914644 6.43983516,9.70895833 C6.22164835,9.769375 6.01736203,9.90229167 5.84873566,10.09925 C4.65263676,11.4640631 3.56955984,12.9690417 2.64423016,14.5652512 C1.71950489,16.1614583 0.952526868,17.850103 0.38983456,19.5792304 C0.291318077,19.8045827 0.276812582,20.0510833 0.337251538,20.2752286 C0.397086703,20.4999798 0.530658736,20.7041887 0.727691703,20.8449583 L3.48554885,23.2356464 L6.24280159,25.6269381 C6.14428511,26.1616244 6.08082357,26.7168554 6.04274604,27.2793345 C6.00406533,27.8424173 5.98955984,28.412147 5.98955984,28.9746262 C5.98955984,29.5371054 6.00346154,30.1074387 6.04214225,30.6699179 C6.08082418,31.2330006 6.14368132,31.7882316 6.2428022,32.3223143 L3.48554945,34.7130024 L0.728296703,37.1048983 C0.531868132,37.2444626 0.397692308,37.4486691 0.337857143,37.6740239 C0.278021978,37.8981667 0.291923077,38.1446691 0.39043956,38.3688167 C0.953131868,40.099753 1.72010989,41.7871899 2.64483516,43.3840012 C3.57016484,44.9808125 4.65324176,46.4851905 5.84934066,47.85 C6.01857203,48.0463572 6.22285714,48.1810858 6.44044016,48.2402941 C6.65862698,48.3007095 6.89071429,48.2856048 7.11615445,48.1871292 L10.5914292,46.9769798 L14.0667027,45.7680429 C14.8965385,46.4712935 15.8109896,47.1050667 16.7786276,47.664522 C17.7462637,48.2227745 18.7664835,48.7085245 19.8072527,49.1151268 L20.4968675,52.7171673 L21.1864847,56.3173964 C21.2287924,56.5421476 21.3484615,56.7602518 21.5170897,56.9300214 C21.6857155,57.0985882 21.9045067,57.2194197 22.143243,57.2453983 C23.0437912,57.4133566 23.9437375,57.5480851 24.8515391,57.6387114 C25.7587363,57.7305447 26.6737912,57.7788792 27.6027466,57.7788792 C28.5317021,57.7788792 29.4455513,57.7305447 30.3533529,57.6387114 C31.2611545,57.5480851 32.1610983,57.4133566 33.0610427,57.2453983 C33.3003858,57.218212 33.5185726,57.097984 33.6878028,56.9300214 C33.857033,56.7614595 33.9760977,56.5421476 34.0184102,56.3173964 L34.708025,52.7171673 L35.3976398,49.1151268 C36.4390134,48.7073173 37.4447283,48.2221703 38.4057149,47.664522 C39.3654981,47.1050667 40.2811569,46.4712941 41.1387936,45.7680429 L44.6140684,46.9769798 L48.0893431,48.1871292 C48.3147832,48.2856048 48.5468681,48.2995024 48.7650549,48.2402941 C48.982638,48.1804822 49.1869267,48.0469608 49.3561563,47.85 C50.5522527,46.4851905 51.6353297,44.9808119 52.5606581,43.3840012 C53.4859914,41.7871899 54.2529676,40.0991495 54.8156599,38.3688167 C54.9147814,38.146481 54.9292887,37.8987702 54.8688449,37.6740239 L54.8688443,37.674022 Z M40.2195043,41.1709351 C36.9871966,44.4026268 32.5243425,46.4030208 27.602746,46.4030208 C22.6805501,46.4030208 18.2182973,44.4020184 14.9859878,41.1709351 C11.7536783,37.9398517 9.75192308,33.4792923 9.75192308,28.5589583 C9.75192308,23.6386244 11.7536813,19.1780625 14.986594,15.9463756 C18.2189017,12.7152917 22.6817576,10.7136875 27.603956,10.7136875 C32.5255507,10.7136875 36.9878004,12.7146875 40.2207119,15.9463756 C43.4530196,19.1780625 45.455384,23.6386244 45.455384,28.5589583 C45.4547802,33.4780821 43.4524152,37.9392482 40.2195037,41.1709351 L40.2195043,41.1709351 Z" id="Shape"></path>
                    </g>
                </g>
                <path d="M98.405,70.06 L91.895,70.06 L91.895,66.76 L108.695,66.76 L108.695,70.06 L102.185,70.06 L102.185,88 L98.405,88 L98.405,70.06 Z M118.435,79.36 C118.435,78.8999977 118.370001,78.4600021 118.24,78.04 C118.109999,77.6199979 117.905001,77.2500016 117.625,76.93 C117.344999,76.6099984 116.990002,76.355001 116.56,76.165 C116.129998,75.9749991 115.625003,75.88 115.045,75.88 C113.964995,75.88 113.050004,76.2049967 112.3,76.855 C111.549996,77.5050033 111.135,78.3399949 111.055,79.36 L118.435,79.36 Z M122.035,80.98 L122.035,81.46 C122.035,81.6200008 122.025,81.7799992 122.005,81.94 L111.055,81.94 C111.095,82.4600026 111.229999,82.9349979 111.46,83.365 C111.690001,83.7950022 111.994998,84.1649984 112.375,84.475 C112.755002,84.7850016 113.184998,85.0299991 113.665,85.21 C114.145002,85.3900009 114.644997,85.48 115.165,85.48 C116.065004,85.48 116.824997,85.3150016 117.445,84.985 C118.065003,84.6549983 118.574998,84.2000029 118.975,83.62 L121.375,85.54 C119.954993,87.4600096 117.895013,88.42 115.195,88.42 C114.074994,88.42 113.045005,88.2450018 112.105,87.895 C111.164995,87.5449982 110.350003,87.0500032 109.66,86.41 C108.969997,85.7699968 108.430002,84.9850047 108.04,84.055 C107.649998,83.1249954 107.455,82.0700059 107.455,80.89 C107.455,79.7299942 107.649998,78.6750047 108.04,77.725 C108.430002,76.7749953 108.964997,75.9650034 109.645,75.295 C110.325003,74.6249966 111.129995,74.1050019 112.06,73.735 C112.990005,73.3649981 113.994995,73.18 115.075,73.18 C116.075005,73.18 116.999996,73.3449983 117.85,73.675 C118.700004,74.0050016 119.434997,74.4949967 120.055,75.145 C120.675003,75.7950033 121.159998,76.6049952 121.51,77.575 C121.860002,78.5450048 122.035,79.6799935 122.035,80.98 Z M125.775,65.32 L129.375,65.32 L129.375,88 L125.775,88 L125.775,65.32 Z M144.095,79.36 C144.095,78.8999977 144.030001,78.4600021 143.9,78.04 C143.769999,77.6199979 143.565001,77.2500016 143.285,76.93 C143.004999,76.6099984 142.650002,76.355001 142.22,76.165 C141.789998,75.9749991 141.285003,75.88 140.705,75.88 C139.624995,75.88 138.710004,76.2049967 137.96,76.855 C137.209996,77.5050033 136.795,78.3399949 136.715,79.36 L144.095,79.36 Z M147.695,80.98 L147.695,81.46 C147.695,81.6200008 147.685,81.7799992 147.665,81.94 L136.715,81.94 C136.755,82.4600026 136.889999,82.9349979 137.12,83.365 C137.350001,83.7950022 137.654998,84.1649984 138.035,84.475 C138.415002,84.7850016 138.844998,85.0299991 139.325,85.21 C139.805002,85.3900009 140.304997,85.48 140.825,85.48 C141.725004,85.48 142.484997,85.3150016 143.105,84.985 C143.725003,84.6549983 144.234998,84.2000029 144.635,83.62 L147.035,85.54 C145.614993,87.4600096 143.555013,88.42 140.855,88.42 C139.734994,88.42 138.705005,88.2450018 137.765,87.895 C136.824995,87.5449982 136.010003,87.0500032 135.32,86.41 C134.629997,85.7699968 134.090002,84.9850047 133.7,84.055 C133.309998,83.1249954 133.115,82.0700059 133.115,80.89 C133.115,79.7299942 133.309998,78.6750047 133.7,77.725 C134.090002,76.7749953 134.624997,75.9650034 135.305,75.295 C135.985003,74.6249966 136.789995,74.1050019 137.72,73.735 C138.650005,73.3649981 139.654995,73.18 140.735,73.18 C141.735005,73.18 142.659996,73.3449983 143.51,73.675 C144.360004,74.0050016 145.094997,74.4949967 145.715,75.145 C146.335003,75.7950033 146.819998,76.6049952 147.17,77.575 C147.520002,78.5450048 147.695,79.6799935 147.695,80.98 Z M154.825,73.6 L154.825,75.61 L154.915,75.61 C155.095001,75.3299986 155.329999,75.0450015 155.62,74.755 C155.910001,74.4649986 156.264998,74.2050012 156.685,73.975 C157.105002,73.7449989 157.579997,73.5550008 158.11,73.405 C158.640003,73.2549992 159.234997,73.18 159.895,73.18 C160.915005,73.18 161.854996,73.3749981 162.715,73.765 C163.575004,74.1550019 164.314997,74.6899966 164.935,75.37 C165.555003,76.0500034 166.034998,76.8499954 166.375,77.77 C166.715002,78.6900046 166.885,79.6799947 166.885,80.74 C166.885,81.8000053 166.720002,82.7949953 166.39,83.725 C166.059998,84.6550046 165.590003,85.4649965 164.98,86.155 C164.369997,86.8450035 163.630004,87.394998 162.76,87.805 C161.889996,88.215002 160.905006,88.42 159.805,88.42 C158.784995,88.42 157.850004,88.2100021 157,87.79 C156.149996,87.3699979 155.495002,86.8000036 155.035,86.08 L154.975,86.08 L154.975,95.2 L151.375,95.2 L151.375,73.6 L154.825,73.6 Z M163.225,80.74 C163.225,80.1799972 163.140001,79.6250027 162.97,79.075 C162.799999,78.5249972 162.545002,78.0300022 162.205,77.59 C161.864998,77.1499978 161.435003,76.7950014 160.915,76.525 C160.394997,76.2549987 159.785004,76.12 159.085,76.12 C158.424997,76.12 157.835003,76.2599986 157.315,76.54 C156.794997,76.8200014 156.350002,77.1799978 155.98,77.62 C155.609998,78.0600022 155.330001,78.5599972 155.14,79.12 C154.949999,79.6800028 154.855,80.2399972 154.855,80.8 C154.855,81.3600028 154.949999,81.9149972 155.14,82.465 C155.330001,83.0150028 155.609998,83.5099978 155.98,83.95 C156.350002,84.3900022 156.794997,84.7449986 157.315,85.015 C157.835003,85.2850014 158.424997,85.42 159.085,85.42 C159.785004,85.42 160.394997,85.2800014 160.915,85 C161.435003,84.7199986 161.864998,84.3600022 162.205,83.92 C162.545002,83.4799978 162.799999,82.9800028 162.97,82.42 C163.140001,81.8599972 163.225,81.3000028 163.225,80.74 Z M169.725,80.74 C169.725,79.5999943 169.929998,78.5650046 170.34,77.635 C170.750002,76.7049954 171.304997,75.9100033 172.005,75.25 C172.705004,74.5899967 173.534995,74.0800018 174.495,73.72 C175.455005,73.3599982 176.474995,73.18 177.555,73.18 C178.635005,73.18 179.654995,73.3599982 180.615,73.72 C181.575005,74.0800018 182.404997,74.5899967 183.105,75.25 C183.805004,75.9100033 184.359998,76.7049954 184.77,77.635 C185.180002,78.5650046 185.385,79.5999943 185.385,80.74 C185.385,81.8800057 185.180002,82.9199953 184.77,83.86 C184.359998,84.8000047 183.805004,85.6049967 183.105,86.275 C182.404997,86.9450034 181.575005,87.4699981 180.615,87.85 C179.654995,88.2300019 178.635005,88.42 177.555,88.42 C176.474995,88.42 175.455005,88.2300019 174.495,87.85 C173.534995,87.4699981 172.705004,86.9450034 172.005,86.275 C171.304997,85.6049967 170.750002,84.8000047 170.34,83.86 C169.929998,82.9199953 169.725,81.8800057 169.725,80.74 Z M173.385,80.74 C173.385,81.3000028 173.469999,81.8599972 173.64,82.42 C173.810001,82.9800028 174.064998,83.4799978 174.405,83.92 C174.745002,84.3600022 175.174997,84.7199986 175.695,85 C176.215003,85.2800014 176.834996,85.42 177.555,85.42 C178.275004,85.42 178.894997,85.2800014 179.415,85 C179.935003,84.7199986 180.364998,84.3600022 180.705,83.92 C181.045002,83.4799978 181.299999,82.9800028 181.47,82.42 C181.640001,81.8599972 181.725,81.3000028 181.725,80.74 C181.725,80.1799972 181.640001,79.6250027 181.47,79.075 C181.299999,78.5249972 181.045002,78.0300022 180.705,77.59 C180.364998,77.1499978 179.935003,76.7950014 179.415,76.525 C178.894997,76.2549987 178.275004,76.12 177.555,76.12 C176.834996,76.12 176.215003,76.2549987 175.695,76.525 C175.174997,76.7950014 174.745002,77.1499978 174.405,77.59 C174.064998,78.0300022 173.810001,78.5249972 173.64,79.075 C173.469999,79.6250027 173.385,80.1799972 173.385,80.74 Z M189.065,73.6 L192.515,73.6 L192.515,76 L192.575,76 C192.975002,75.1599958 193.534996,74.4800026 194.255,73.96 C194.975004,73.4399974 195.814995,73.18 196.775,73.18 C196.915001,73.18 197.064999,73.1849999 197.225,73.195 C197.385001,73.205 197.524999,73.2299998 197.645,73.27 L197.645,76.57 C197.404999,76.5099997 197.200001,76.4700001 197.03,76.45 C196.859999,76.4299999 196.695001,76.42 196.535,76.42 C195.714996,76.42 195.055003,76.5699985 194.555,76.87 C194.054998,77.1700015 193.665001,77.5299979 193.385,77.95 C193.104999,78.3700021 192.915001,78.7999978 192.815,79.24 C192.715,79.6800022 192.665,80.0299987 192.665,80.29 L192.665,88 L189.065,88 L189.065,73.6 Z M198.115,76.48 L198.115,73.6 L200.635,73.6 L200.635,69.43 L204.175,69.43 L204.175,73.6 L207.775,73.6 L207.775,76.48 L204.175,76.48 L204.175,83.17 C204.175,83.8100032 204.289999,84.3399979 204.52,84.76 C204.750001,85.1800021 205.264996,85.39 206.065,85.39 C206.305001,85.39 206.564999,85.3650003 206.845,85.315 C207.125001,85.2649998 207.374999,85.1900005 207.595,85.09 L207.715,87.91 C207.394998,88.0300006 207.015002,88.1249997 206.575,88.195 C206.134998,88.2650004 205.715002,88.3 205.315,88.3 C204.354995,88.3 203.575003,88.1650013 202.975,87.895 C202.374997,87.6249987 201.900002,87.2550023 201.55,86.785 C201.199998,86.3149976 200.960001,85.775003 200.83,85.165 C200.699999,84.554997 200.635,83.9000035 200.635,83.2 L200.635,76.48 L198.115,76.48 Z" id="Teleport" fill="#335F88"></path>
                <path d="M102.755,100.92 L105.195,100.92 C105.461668,100.92 105.728332,100.95 105.995,101.01 C106.261668,101.07 106.499999,101.169999 106.71,101.31 C106.920001,101.450001 107.089999,101.633332 107.22,101.86 C107.350001,102.086668 107.415,102.369998 107.415,102.71 C107.415,103.103335 107.301668,103.433332 107.075,103.7 C106.848332,103.966668 106.548335,104.15 106.175,104.25 L106.175,104.27 C106.401668,104.296667 106.611666,104.355 106.805,104.445 C106.998334,104.535 107.164999,104.653333 107.305,104.8 C107.445001,104.946667 107.553333,105.119999 107.63,105.32 C107.706667,105.520001 107.745,105.743332 107.745,105.99 C107.745,106.330002 107.675001,106.626665 107.535,106.88 C107.394999,107.133335 107.205001,107.341666 106.965,107.505 C106.724999,107.668334 106.443335,107.791666 106.12,107.875 C105.796665,107.958334 105.451668,108 105.085,108 L102.755,108 L102.755,100.92 Z M103.745,103.91 L105.035,103.91 C105.221668,103.91 105.399999,103.888334 105.57,103.845 C105.740001,103.801666 105.888333,103.735 106.015,103.645 C106.141667,103.555 106.241666,103.441667 106.315,103.305 C106.388334,103.168333 106.425,103.003334 106.425,102.81 C106.425,102.429998 106.285001,102.158334 106.005,101.995 C105.724999,101.831666 105.348336,101.75 104.875,101.75 L103.745,101.75 L103.745,103.91 Z M103.745,107.16 L104.985,107.16 C105.191668,107.16 105.399999,107.141667 105.61,107.105 C105.820001,107.068333 106.009999,107.003334 106.18,106.91 C106.350001,106.816666 106.486666,106.691667 106.59,106.535 C106.693334,106.378333 106.745,106.180001 106.745,105.94 C106.745,105.519998 106.601668,105.216668 106.315,105.03 C106.028332,104.843332 105.615003,104.75 105.075,104.75 L103.745,104.75 L103.745,107.16 Z M112.135,108 L111.135,108 L111.135,104.94 L108.485,100.92 L109.705,100.92 L111.665,104.12 L113.635,100.92 L114.785,100.92 L112.135,104.94 L112.135,108 Z M123.615,102.38 C123.401666,102.146665 123.130002,101.960001 122.8,101.82 C122.469998,101.679999 122.101669,101.61 121.695,101.61 C121.281665,101.61 120.908335,101.684999 120.575,101.835 C120.241665,101.985001 119.958334,102.189999 119.725,102.45 C119.491665,102.710001 119.311667,103.011665 119.185,103.355 C119.058333,103.698335 118.995,104.063331 118.995,104.45 C118.995,104.843335 119.058333,105.213332 119.185,105.56 C119.311667,105.906668 119.491665,106.208332 119.725,106.465 C119.958334,106.721668 120.244998,106.923333 120.585,107.07 C120.925002,107.216667 121.304998,107.29 121.725,107.29 C122.058335,107.29 122.364999,107.26 122.645,107.2 C122.925001,107.14 123.168332,107.053334 123.375,106.94 L123.375,104.97 L121.805,104.97 L121.805,104.13 L124.355,104.13 L124.355,107.56 C123.981665,107.760001 123.575002,107.913333 123.135,108.02 C122.694998,108.126667 122.215003,108.18 121.695,108.18 C121.141664,108.18 120.633336,108.088334 120.17,107.905 C119.706664,107.721666 119.308335,107.465002 118.975,107.135 C118.641665,106.804998 118.381668,106.411669 118.195,105.955 C118.008332,105.498331 117.915,104.996669 117.915,104.45 C117.915,103.896664 118.009999,103.391669 118.2,102.935 C118.390001,102.478331 118.653332,102.088335 118.99,101.765 C119.326668,101.441665 119.724998,101.190001 120.185,101.01 C120.645002,100.829999 121.144997,100.74 121.685,100.74 C122.251669,100.74 122.756664,100.823332 123.2,100.99 C123.643336,101.156667 124.011665,101.379999 124.305,101.66 L123.615,102.38 Z M127.245,108 L126.255,108 L126.255,100.92 L128.525,100.92 C128.865002,100.92 129.188332,100.955 129.495,101.025 C129.801668,101.095 130.069999,101.206666 130.3,101.36 C130.530001,101.513334 130.711666,101.714999 130.845,101.965 C130.978334,102.215001 131.045,102.519998 131.045,102.88 C131.045,103.400003 130.885002,103.819998 130.565,104.14 C130.244998,104.460002 129.831669,104.663333 129.325,104.75 L131.305,108 L130.105,108 L128.305,104.85 L127.245,104.85 L127.245,108 Z M127.245,104.02 L128.385,104.02 C128.618334,104.02 128.834999,104 129.035,103.96 C129.235001,103.92 129.409999,103.855 129.56,103.765 C129.710001,103.675 129.828333,103.558334 129.915,103.415 C130.001667,103.271666 130.045,103.093334 130.045,102.88 C130.045,102.666666 130.001667,102.488334 129.915,102.345 C129.828333,102.201666 129.713334,102.086667 129.57,102 C129.426666,101.913333 129.258334,101.851667 129.065,101.815 C128.871666,101.778333 128.668334,101.76 128.455,101.76 L127.245,101.76 L127.245,104.02 Z M132.885,108 L131.785,108 L134.855,100.92 L135.755,100.92 L138.795,108 L137.675,108 L136.955,106.26 L133.595,106.26 L132.885,108 Z M133.945,105.39 L136.595,105.39 L135.275,102.07 L133.945,105.39 Z M141.955,106.72 L141.985,106.72 L144.115,100.92 L145.185,100.92 L142.405,108 L141.485,108 L138.725,100.92 L139.825,100.92 L141.955,106.72 Z M147.215,108 L146.225,108 L146.225,100.92 L147.215,100.92 L147.215,108 Z M151.615,108 L150.625,108 L150.625,101.79 L148.355,101.79 L148.355,100.92 L153.885,100.92 L153.885,101.79 L151.615,101.79 L151.615,108 Z M154.715,108 L153.615,108 L156.685,100.92 L157.585,100.92 L160.625,108 L159.505,108 L158.785,106.26 L155.425,106.26 L154.715,108 Z M155.775,105.39 L158.425,105.39 L157.105,102.07 L155.775,105.39 Z M163.615,108 L162.625,108 L162.625,101.79 L160.355,101.79 L160.355,100.92 L165.885,100.92 L165.885,101.79 L163.615,101.79 L163.615,108 Z M168.015,108 L167.025,108 L167.025,100.92 L168.015,100.92 L168.015,108 Z M177.075,104.45 C177.075,104.996669 176.980001,105.498331 176.79,105.955 C176.599999,106.411669 176.338335,106.804998 176.005,107.135 C175.671665,107.465002 175.275002,107.721666 174.815,107.905 C174.354998,108.088334 173.855003,108.18 173.315,108.18 C172.774997,108.18 172.276669,108.088334 171.82,107.905 C171.363331,107.721666 170.968335,107.465002 170.635,107.135 C170.301665,106.804998 170.041668,106.411669 169.855,105.955 C169.668332,105.498331 169.575,104.996669 169.575,104.45 C169.575,103.896664 169.668332,103.391669 169.855,102.935 C170.041668,102.478331 170.301665,102.088335 170.635,101.765 C170.968335,101.441665 171.363331,101.190001 171.82,101.01 C172.276669,100.829999 172.774997,100.74 173.315,100.74 C173.855003,100.74 174.354998,100.829999 174.815,101.01 C175.275002,101.190001 175.671665,101.441665 176.005,101.765 C176.338335,102.088335 176.599999,102.478331 176.79,102.935 C176.980001,103.391669 177.075,103.896664 177.075,104.45 Z M176.005,104.45 C176.005,104.063331 175.941667,103.698335 175.815,103.355 C175.688333,103.011665 175.508335,102.710001 175.275,102.45 C175.041666,102.189999 174.760002,101.985001 174.43,101.835 C174.099998,101.684999 173.728335,101.61 173.315,101.61 C172.908331,101.61 172.540002,101.684999 172.21,101.835 C171.879998,101.985001 171.600001,102.189999 171.37,102.45 C171.139999,102.710001 170.961667,103.011665 170.835,103.355 C170.708333,103.698335 170.645,104.063331 170.645,104.45 C170.645,104.843335 170.708333,105.213332 170.835,105.56 C170.961667,105.906668 171.141666,106.208332 171.375,106.465 C171.608335,106.721668 171.888332,106.923333 172.215,107.07 C172.541668,107.216667 172.908331,107.29 173.315,107.29 C173.721669,107.29 174.091665,107.216667 174.425,107.07 C174.758335,106.923333 175.041666,106.721668 175.275,106.465 C175.508335,106.208332 175.688333,105.906668 175.815,105.56 C175.941667,105.213332 176.005,104.843335 176.005,104.45 Z M183.615,106.58 L183.635,106.58 L183.635,100.92 L184.625,100.92 L184.625,108 L183.375,108 L179.635,102.22 L179.615,102.22 L179.615,108 L178.625,108 L178.625,100.92 L179.915,100.92 L183.615,106.58 Z M186.835,108 L185.735,108 L188.805,100.92 L189.705,100.92 L192.745,108 L191.625,108 L190.905,106.26 L187.545,106.26 L186.835,108 Z M187.895,105.39 L190.545,105.39 L189.225,102.07 L187.895,105.39 Z M194.845,107.12 L198.005,107.12 L198.005,108 L193.855,108 L193.855,100.92 L194.845,100.92 L194.845,107.12 Z" id="BY-GRAVITATIONAL" fill="#335F88"></path>
            </g>
        </g>
    </g>
</svg>