<svg width="24" height="24" viewBox="0 0 24 24" fill="none" xmlns="http://www.w3.org/2000/svg">
<path d="M5.78033 2.78033C6.07322 2.48744 6.07322 2.01256 5.78033 1.71967C5.48744 1.42678 5.01256 1.42678 4.71967 1.71967L1.71967 4.71967C1.42678 5.01256 1.42678 5.48744 1.71967 5.78033C2.01256 6.07322 2.48744 6.07322 2.78033 5.78033L5.78033 2.78033Z" fill="black"/>
<path d="M12.75 6.75C12.75 6.33579 12.4142 6 12 6C11.5858 6 11.25 6.33579 11.25 6.75V12C11.25 12.4142 11.5858 12.75 12 12.75H17.25C17.6642 12.75 18 12.4142 18 12C18 11.5858 17.6642 11.25 17.25 11.25H12.75V6.75Z" fill="black"/>
<path fill-rule="evenodd" clip-rule="evenodd" d="M12 3C7.02944 3 3 7.02944 3 12C3 16.9706 7.02944 21 12 21C16.9706 21 21 16.9706 21 12C21 7.02944 16.9706 3 12 3ZM4.5 12C4.5 7.85786 7.85786 4.5 12 4.5C16.1421 4.5 19.5 7.85786 19.5 12C19.5 16.1421 16.1421 19.5 12 19.5C7.85786 19.5 4.5 16.1421 4.5 12Z" fill="black"/>
<path d="M18.2197 1.71967C18.5126 1.42678 18.9874 1.42678 19.2803 1.71967L22.2803 4.71967C22.5732 5.01256 22.5732 5.48744 22.2803 5.78033C21.9874 6.07322 21.5126 6.07322 21.2197 5.78033L18.2197 2.78033C17.9268 2.48744 17.9268 2.01256 18.2197 1.71967Z" fill="black"/>
</svg>
