<svg width="24" height="24" viewBox="0 0 24 24" fill="none" xmlns="http://www.w3.org/2000/svg">
<path fill-rule="evenodd" clip-rule="evenodd" d="M12.1394 1.63455L3.38938 7.05159C3.33527 7.08512 3.28556 7.12402 3.24106 7.16746C3.18686 7.22037 3.14038 7.28002 3.10307 7.34494C3.07319 7.39694 3.0496 7.4516 3.03257 7.50793C3.01089 7.57964 2.99985 7.65406 3 7.72911V19.5H1.5C1.08579 19.5 0.75 19.8358 0.75 20.25C0.75 20.6642 1.08579 21 1.5 21H3H4.5H12H13.5H20.25H22.5C22.9142 21 23.25 20.6642 23.25 20.25C23.25 19.8358 22.9142 19.5 22.5 19.5H21V9C21 8.60218 20.842 8.22065 20.5607 7.93934C20.2794 7.65804 19.8978 7.5 19.5 7.5H13.5V2.31003C13.4998 2.0159 13.3168 1.73254 13.0375 1.59388C12.7582 1.45522 12.4028 1.47131 12.1394 1.63455ZM19.5 19.5V9H13.5V19.5H19.5ZM12 19.5V8.25V3.48503L4.5 8.12821V19.5H12ZM9.75 9.75C10.1642 9.75 10.5 10.0858 10.5 10.5V12C10.5 12.4142 10.1642 12.75 9.75 12.75C9.33579 12.75 9 12.4142 9 12V10.5C9 10.0858 9.33579 9.75 9.75 9.75ZM7.5 10.5C7.5 10.0858 7.16421 9.75 6.75 9.75C6.33579 9.75 6 10.0858 6 10.5V12C6 12.4142 6.33579 12.75 6.75 12.75C7.16421 12.75 7.5 12.4142 7.5 12V10.5ZM6.75 15C7.16421 15 7.5 15.3358 7.5 15.75V17.25C7.5 17.6642 7.16421 18 6.75 18C6.33579 18 6 17.6642 6 17.25V15.75C6 15.3358 6.33579 15 6.75 15ZM10.5 15.75C10.5 15.3358 10.1642 15 9.75 15C9.33579 15 9 15.3358 9 15.75V17.25C9 17.6642 9.33579 18 9.75 18C10.1642 18 10.5 17.6642 10.5 17.25V15.75Z" fill="black"/>
</svg>
