<svg width="24" height="24" viewBox="0 0 24 24" fill="none" xmlns="http://www.w3.org/2000/svg">
<path d="M6.375 8.8125C6.89277 8.8125 7.3125 8.39277 7.3125 7.875C7.3125 7.35723 6.89277 6.9375 6.375 6.9375C5.85723 6.9375 5.4375 7.35723 5.4375 7.875C5.4375 8.39277 5.85723 8.8125 6.375 8.8125Z" fill="black"/>
<path d="M11.0625 7.875C11.0625 8.39277 10.6428 8.8125 10.125 8.8125C9.60723 8.8125 9.1875 8.39277 9.1875 7.875C9.1875 7.35723 9.60723 6.9375 10.125 6.9375C10.6428 6.9375 11.0625 7.35723 11.0625 7.875Z" fill="black"/>
<path fill-rule="evenodd" clip-rule="evenodd" d="M2.25 5.25C2.25 4.42157 2.92157 3.75 3.75 3.75H20.25C21.0784 3.75 21.75 4.42157 21.75 5.25V18.75C21.75 19.5784 21.0784 20.25 20.25 20.25H3.75C2.92157 20.25 2.25 19.5784 2.25 18.75V5.25ZM20.25 5.25H3.75V18.75H20.25V5.25Z" fill="black"/>
</svg>
