<svg width="24" height="24" viewBox="0 0 24 24" fill="none" xmlns="http://www.w3.org/2000/svg">
<path d="M12.75 6.75C12.75 6.33579 12.4142 6 12 6C11.5858 6 11.25 6.33579 11.25 6.75V12.4393L9.53033 10.7197C9.23744 10.4268 8.76256 10.4268 8.46967 10.7197C8.17678 11.0126 8.17678 11.4874 8.46967 11.7803L11.4697 14.7803C11.5416 14.8522 11.6245 14.9065 11.7129 14.9431C11.8013 14.9798 11.8983 15 12 15C12.1017 15 12.1987 14.9798 12.2871 14.9431C12.3755 14.9065 12.4584 14.8522 12.5303 14.7803L15.5303 11.7803C15.8232 11.4874 15.8232 11.0126 15.5303 10.7197C15.2374 10.4268 14.7626 10.4268 14.4697 10.7197L12.75 12.4393V6.75Z" fill="black"/>
<path fill-rule="evenodd" clip-rule="evenodd" d="M4.5 3C3.67157 3 3 3.67157 3 4.5V19.5C3 20.3284 3.67157 21 4.5 21H19.5C20.3284 21 21 20.3284 21 19.5V4.5C21 3.67157 20.3284 3 19.5 3H4.5ZM4.5 19.5V15.75H7.18934L9.00059 17.5613C9.28168 17.842 9.66302 17.9998 10.0603 18H13.94C14.3373 17.9998 14.7186 17.8417 14.9997 17.561L16.8107 15.75H19.5V19.5H4.5ZM16.8103 14.25H19.5V4.5H4.5V14.25H7.18969C7.58698 14.2502 7.96832 14.408 8.24941 14.6887L10.0607 16.5H13.9393L15.7503 14.689C16.0314 14.4083 16.413 14.2502 16.8103 14.25Z" fill="black"/>
</svg>
