<svg width="24" height="24" viewBox="0 0 24 24" fill="none" xmlns="http://www.w3.org/2000/svg">
<path d="M11.419 3.27032C11.438 3.24878 11.4582 3.22866 11.4796 3.20995C11.7698 2.93002 12.2302 2.93002 12.5204 3.20995C12.5418 3.22866 12.562 3.24878 12.581 3.27032L19.2803 9.96967C19.5732 10.2626 19.5732 10.7374 19.2803 11.0303C18.9874 11.3232 18.5126 11.3232 18.2197 11.0303L12.75 5.56066V20.2499C12.75 20.6641 12.4142 20.9999 12 20.9999C11.5858 20.9999 11.25 20.6641 11.25 20.2499V5.56066L5.78033 11.0303C5.48744 11.3232 5.01256 11.3232 4.71967 11.0303C4.42678 10.7374 4.42678 10.2626 4.71967 9.96967L11.419 3.27032Z" fill="black"/>
</svg>
