<svg width="24" height="24" viewBox="0 0 24 24" fill="none" xmlns="http://www.w3.org/2000/svg">
<path fill-rule="evenodd" clip-rule="evenodd" d="M11.4697 1.71967C11.7626 1.42678 12.2375 1.42678 12.5304 1.71967L21.5304 10.7197C21.7449 10.9342 21.809 11.2568 21.6929 11.537C21.5768 11.8173 21.3034 12 21 12H17.25V14.25C17.25 14.6642 16.9142 15 16.5 15H7.50002C7.08581 15 6.75002 14.6642 6.75002 14.25V12H3.00002C2.69668 12 2.4232 11.8173 2.30711 11.537C2.19103 11.2568 2.25519 10.9342 2.46969 10.7197L11.4697 1.71967ZM4.81068 10.5H7.50002C7.91424 10.5 8.25002 10.8358 8.25002 11.25V13.5H15.75V11.25C15.75 10.8358 16.0858 10.5 16.5 10.5H19.1894L12 3.31066L4.81068 10.5Z" fill="black"/>
<path d="M6.75 20.25C6.75 19.8358 7.08579 19.5 7.5 19.5H16.5C16.9142 19.5 17.25 19.8358 17.25 20.25C17.25 20.6642 16.9142 21 16.5 21H7.5C7.08579 21 6.75 20.6642 6.75 20.25Z" fill="black"/>
<path d="M7.5 16.5C7.08579 16.5 6.75 16.8358 6.75 17.25C6.75 17.6642 7.08579 18 7.5 18H16.5C16.9142 18 17.25 17.6642 17.25 17.25C17.25 16.8358 16.9142 16.5 16.5 16.5H7.5Z" fill="black"/>
</svg>
