<svg width="24" height="24" fill="none" xmlns="http://www.w3.org/2000/svg"><path d="M4.18 3.827a.696.696 0 0 0-.344.341c-.072.141-.076.273-.076 2.568 0 1.612.014 2.456.043 2.531.093.249.438.491.697.491.259 0 .604-.242.697-.491.028-.071.043-.628.043-1.539V6.302l2.07 2.065c1.991 1.986 2.077 2.066 2.261 2.104.195.04.383.018.534-.063.129-.069.331-.317.358-.439.013-.06.03-.129.037-.153a.904.904 0 0 0-.028-.24c-.039-.19-.102-.258-2.105-2.266L6.302 5.24h1.426c.911 0 1.468-.015 1.539-.043.249-.093.491-.438.491-.697 0-.259-.242-.604-.491-.697-.075-.029-.918-.042-2.54-.041-2.136.001-2.441.009-2.547.065m10.52-.01c-.24.107-.461.44-.459.692.002.252.247.596.492.688.071.028.628.043 1.539.043h1.426l-2.065 2.07c-1.986 1.991-2.066 2.077-2.104 2.261a.791.791 0 0 0 .063.534c.069.129.317.331.439.358.06.013.129.03.153.037a.904.904 0 0 0 .24-.028c.19-.039.258-.102 2.266-2.105l2.07-2.065v1.426c0 .911.015 1.468.043 1.539.093.249.438.491.697.491.259 0 .604-.242.697-.491.029-.075.043-.919.043-2.531 0-2.295-.004-2.427-.076-2.568a.635.635 0 0 0-.374-.346c-.127-.054-.477-.062-2.559-.06-1.925.001-2.435.012-2.531.055m-5.28 9.769c-.066.034-1.033.974-2.15 2.088L5.24 17.7v-1.428c0-.911-.015-1.468-.043-1.539a.75.75 0 0 0-.697-.464.75.75 0 0 0-.697.464c-.029.075-.043.919-.043 2.531 0 2.295.004 2.427.076 2.568.086.169.17.251.352.343.114.058.396.065 2.547.065 1.613 0 2.457-.014 2.532-.043.249-.093.491-.438.491-.697 0-.259-.242-.604-.491-.697-.071-.028-.628-.043-1.539-.043H6.302l2.065-2.07c2.003-2.008 2.066-2.076 2.105-2.266a.904.904 0 0 0 .028-.24 3.046 3.046 0 0 1-.037-.153c-.029-.134-.235-.374-.387-.453-.146-.076-.504-.072-.656.008m4.52-.019c-.335.184-.486.501-.411.862.038.184.118.27 2.104 2.261l2.065 2.07h-1.426c-.911 0-1.468.015-1.539.043-.249.093-.491.438-.491.697 0 .259.242.604.491.697.075.029.919.043 2.531.043 2.295 0 2.427-.004 2.568-.076a.682.682 0 0 0 .343-.352c.058-.114.065-.396.065-2.547 0-1.613-.014-2.457-.043-2.532a.75.75 0 0 0-.697-.464.75.75 0 0 0-.697.464c-.028.071-.043.628-.043 1.539V17.7l-2.03-2.026c-1.116-1.115-2.088-2.055-2.158-2.09-.146-.073-.513-.083-.632-.017"/></svg>
