<svg width="24" height="24" fill="none" xmlns="http://www.w3.org/2000/svg"><path d="M8.083 5.269c-.175.033-.4.208-.487.378a.778.778 0 0 0 .274 1l.15.093 4.079.011 4.079.01-5.426 5.43c-4.943 4.945-5.43 5.445-5.472 5.604a.751.751 0 0 0 .925.925c.159-.042.659-.529 5.604-5.472l5.43-5.426.01 4.079.011 4.079.093.15a.77.77 0 0 0 1.294 0l.093-.15.012-5.02c.008-3.494-.001-5.065-.031-5.168a.793.793 0 0 0-.419-.477c-.155-.07-.39-.073-5.142-.069-2.739.003-5.023.013-5.077.023" fill-rule="evenodd" fill="#000"/></svg>