<svg width="24" height="24" viewBox="0 0 24 24" fill="none" xmlns="http://www.w3.org/2000/svg">
<path d="M12.75 3.75C12.75 3.33579 12.4142 3 12 3C11.5858 3 11.25 3.33579 11.25 3.75V18.4393L5.78033 12.9697C5.48744 12.6768 5.01256 12.6768 4.71967 12.9697C4.42678 13.2626 4.42678 13.7374 4.71967 14.0303L11.4697 20.7803C11.5416 20.8522 11.6245 20.9065 11.7129 20.9431C11.7901 20.9751 11.8738 20.9946 11.9614 20.999C11.9742 20.9997 11.9871 21 12 21C12.1919 21 12.3839 20.9268 12.5303 20.7803L19.2803 14.0303C19.5732 13.7374 19.5732 13.2626 19.2803 12.9697C18.9874 12.6768 18.5126 12.6768 18.2197 12.9697L12.75 18.4393V3.75Z" fill="black"/>
</svg>
