<svg width="24" height="24" viewBox="0 0 24 24" fill="none" xmlns="http://www.w3.org/2000/svg">
<path d="M4.5 3.75C4.5 3.33579 4.16421 3 3.75 3C3.33579 3 3 3.33579 3 3.75V20.25C3 20.6642 3.33579 21 3.75 21C4.16421 21 4.5 20.6642 4.5 20.25V3.75Z" fill="black"/>
<path d="M14.0303 4.71967C13.7374 4.42678 13.2626 4.42678 12.9697 4.71967L6.21967 11.4697C6.14776 11.5416 6.09351 11.6245 6.05691 11.7129C6.02024 11.8013 6 11.8983 6 12C6 12.1919 6.07322 12.3839 6.21967 12.5303L12.9697 19.2803C13.2626 19.5732 13.7374 19.5732 14.0303 19.2803C14.3232 18.9874 14.3232 18.5126 14.0303 18.2197L8.56066 12.75H21.25C21.6642 12.75 22 12.4142 22 12C22 11.5858 21.6642 11.25 21.25 11.25H8.56066L14.0303 5.78033C14.3232 5.48744 14.3232 5.01256 14.0303 4.71967Z" fill="black"/>
</svg>
