<svg width="24" height="24" viewBox="0 0 24 24" fill="none" xmlns="http://www.w3.org/2000/svg">
<path d="M18.75 7.77735C18.75 7.21995 18.6083 6.87788 18.4189 6.64747C18.2214 6.40718 17.9081 6.21037 17.4346 6.06349C16.4481 5.75757 15.0648 5.75001 13.4414 5.75001H4.75V11.1465H13.5967C15.1535 11.1465 16.8911 11.2148 18.251 11.7578C18.9474 12.036 19.5855 12.4536 20.0459 13.084C20.5103 13.7199 20.7499 14.512 20.75 15.458C20.75 16.4043 20.5103 17.1964 20.0449 17.8311C19.5838 18.4599 18.9453 18.8743 18.249 19.1494C16.8896 19.6865 15.1514 19.75 13.5967 19.75H4C3.58579 19.75 3.25 19.4142 3.25 19V15.5C3.25 15.0858 3.58579 14.75 4 14.75C4.41421 14.75 4.75 15.0858 4.75 15.5V18.25H13.5967C15.1744 18.25 16.6383 18.1732 17.6973 17.7549C18.2099 17.5524 18.585 17.285 18.835 16.9443C19.0807 16.6093 19.25 16.1422 19.25 15.458C19.2499 14.7741 19.0805 14.3063 18.834 13.9688C18.5834 13.6256 18.2079 13.3562 17.6953 13.1514C16.6368 12.7286 15.1724 12.6465 13.5967 12.6465H4C3.5859 12.6465 3.25018 12.3106 3.25 11.8965V5.00001C3.25 4.8011 3.32907 4.61039 3.46973 4.46974C3.61038 4.32908 3.80109 4.25001 4 4.25001H13.4414C14.9801 4.25001 16.6266 4.24253 17.8789 4.63087C18.5244 4.8311 19.1328 5.1548 19.5771 5.69532C20.0297 6.24598 20.25 6.94619 20.25 7.77735C20.25 8.44407 20.0813 9.02134 19.7451 9.51075C19.5106 9.85197 19.0435 9.93926 18.7021 9.70509C18.3608 9.47052 18.2743 9.0035 18.5088 8.66212C18.6537 8.4512 18.75 8.17767 18.75 7.77735Z" fill="black"/>
</svg>
