<svg width="24" height="24" viewBox="0 0 24 24" fill="none" xmlns="http://www.w3.org/2000/svg">
  <path
    d="M13.05 15.513h3.08c.214 0 .389.177.389.394v1.82a1.704 1.704 0 0 1 1.296 1.661c0 .943-.755 1.708-1.685 1.708a1.697 1.697 0 0 1-1.686-1.708c0-.807.554-1.484 1.297-1.662v-1.425h-2.69v4.663a.4.4 0 0 1-.188.338l-2.69 1.641a.39.39 0 0 1-.405-.002l-4.926-3.086a.4.4 0 0 1-.185-.336V16.3l-2.461-1.43A.4.4 0 0 1 2 14.555V9.406c0-.14.073-.27.192-.34l2.465-1.462V4.448c0-.129.062-.249.165-.322l.021-.014L9.77 1.058a.39.39 0 0 1 .407 0l2.69 1.675a.4.4 0 0 1 .185.336V7.6h3.856V5.683a1.704 1.704 0 0 1-1.296-1.662c0-.943.755-1.708 1.685-1.708.931 0 1.685.765 1.685 1.708 0 .807-.553 1.484-1.296 1.662v2.311a.39.39 0 0 1-.389.394h-4.245v1.806h6.624a1.69 1.69 0 0 1 1.64-1.313c.93 0 1.685.764 1.685 1.707s-.754 1.708-1.685 1.708a1.69 1.69 0 0 1-1.64-1.314H13.05v1.937h4.953l.915 1.18a1.66 1.66 0 0 1 .84-.227c.931 0 1.685.764 1.685 1.707s-.754 1.708-1.685 1.708c-.93 0-1.685-.765-1.685-1.708 0-.346.102-.668.276-.937l-.724-.935H13.05zM9.973 1.856 7.93 3.122V6.09h-.778V3.604L5.435 4.669v2.945l2.11 1.36L9.712 7.61V5.334h.778V7.83c0 .136-.07.263-.184.335L7.963 9.638v2.081l1.422 1.009-.446.646-1.406-.998-1.53 1.005-.423-.66 1.605-1.055v-1.99L5.038 8.29l-2.26 1.34v1.676l1.972-1.189.398.677-2.37 1.429V14.3l2.166 1.258 2.27-1.368.397.677-2.176 1.311V19.3l1.876 1.175 2.365-1.426.398.678-2.017 1.216 1.918 1.201 2.298-1.403v-5.78l-4.758 2.893-.4-.675 5.158-3.136V3.289L9.972 1.856zM16.13 18.47a.913.913 0 0 0-.908.92c0 .507.406.918.908.918a.913.913 0 0 0 .907-.919.913.913 0 0 0-.907-.92zm3.63-3.81a.913.913 0 0 0-.908.92c0 .508.406.92.907.92a.913.913 0 0 0 .908-.92.913.913 0 0 0-.908-.92zm1.555-4.99a.913.913 0 0 0-.908.92c0 .507.407.918.908.918a.913.913 0 0 0 .907-.919.913.913 0 0 0-.907-.92zM17.296 3.1a.913.913 0 0 0-.907.92c0 .508.406.92.907.92a.913.913 0 0 0 .908-.92.913.913 0 0 0-.908-.92"
    fill-rule="evenodd"
  />
</svg>
