<svg width="24" height="24" viewBox="0 0 24 24" fill="none" xmlns="http://www.w3.org/2000/svg">
<path d="M15 7.25C14.5858 7.25 14.25 7.58579 14.25 8C14.25 8.41421 14.5858 8.75 15 8.75H18.75C19.1642 8.75 19.5 8.41421 19.5 8C19.5 7.58579 19.1642 7.25 18.75 7.25H15Z" fill="black"/>
<path d="M14.25 11C14.25 10.5858 14.5858 10.25 15 10.25H18.75C19.1642 10.25 19.5 10.5858 19.5 11C19.5 11.4142 19.1642 11.75 18.75 11.75H15C14.5858 11.75 14.25 11.4142 14.25 11Z" fill="black"/>
<path d="M15 13.25C14.5858 13.25 14.25 13.5858 14.25 14C14.25 14.4142 14.5858 14.75 15 14.75H18.75C19.1642 14.75 19.5 14.4142 19.5 14C19.5 13.5858 19.1642 13.25 18.75 13.25H15Z" fill="black"/>
<path fill-rule="evenodd" clip-rule="evenodd" d="M1.93934 3.93934C2.22064 3.65804 2.60217 3.5 3 3.5H9C9.99456 3.5 10.9484 3.89509 11.6517 4.59835C11.7779 4.72456 11.8941 4.85884 12 4.99998C12.1059 4.85884 12.2221 4.72456 12.3484 4.59835C13.0516 3.89509 14.0054 3.5 15 3.5H21C21.3978 3.5 21.7794 3.65804 22.0607 3.93934C22.342 4.22065 22.5 4.60218 22.5 5V17C22.5 17.3978 22.342 17.7794 22.0607 18.0607C21.7794 18.342 21.3978 18.5 21 18.5H15C14.4033 18.5 13.831 18.7371 13.409 19.159C12.9871 19.581 12.75 20.1533 12.75 20.75C12.75 21.1642 12.4142 21.5 12 21.5C11.5858 21.5 11.25 21.1642 11.25 20.75C11.25 20.1533 11.0129 19.581 10.591 19.159C10.169 18.7371 9.59674 18.5 9 18.5H3C2.60218 18.5 2.22065 18.342 1.93934 18.0607C1.65803 17.7794 1.5 17.3978 1.5 17V5C1.5 4.60218 1.65804 4.22064 1.93934 3.93934ZM12.75 17.75V7.25C12.75 6.65326 12.9871 6.08097 13.409 5.65901C13.831 5.23705 14.4033 5 15 5L21 5V17H15C14.1839 17 13.3953 17.266 12.75 17.75ZM10.591 5.65901C11.0129 6.08097 11.25 6.65326 11.25 7.25V17.75C10.6047 17.266 9.81606 17 9 17H3V5L9 5C9.59674 5 10.169 5.23705 10.591 5.65901Z" fill="black"/>
</svg>
