<svg width="24" height="24" viewBox="0 0 24 24" fill="none" xmlns="http://www.w3.org/2000/svg">
<path fill-rule="evenodd" clip-rule="evenodd" d="M8.625 18H15.375C16.8247 18 18 16.8247 18 15.375C18 13.9253 16.8247 12.75 15.375 12.75H8.625C7.17525 12.75 6 13.9253 6 15.375C6 16.8247 7.17525 18 8.625 18ZM8.625 14.25C8.00368 14.25 7.5 14.7537 7.5 15.375C7.5 15.9963 8.00368 16.5 8.625 16.5H9.75V14.25H8.625ZM14.25 16.5H15.375C15.9963 16.5 16.5 15.9963 16.5 15.375C16.5 14.7537 15.9963 14.25 15.375 14.25H14.25V16.5ZM11.25 14.25V16.5H12.75V14.25H11.25Z" fill="black"/>
<path d="M7.875 11.0625C8.39277 11.0625 8.8125 10.6428 8.8125 10.125C8.8125 9.60723 8.39277 9.1875 7.875 9.1875C7.35723 9.1875 6.9375 9.60723 6.9375 10.125C6.9375 10.6428 7.35723 11.0625 7.875 11.0625Z" fill="black"/>
<path d="M17.0625 10.125C17.0625 10.6428 16.6428 11.0625 16.125 11.0625C15.6072 11.0625 15.1875 10.6428 15.1875 10.125C15.1875 9.60723 15.6072 9.1875 16.125 9.1875C16.6428 9.1875 17.0625 9.60723 17.0625 10.125Z" fill="black"/>
<path fill-rule="evenodd" clip-rule="evenodd" d="M12.75 1.5C12.75 1.08579 12.4142 0.75 12 0.75C11.5858 0.75 11.25 1.08579 11.25 1.5V4.5H5.25C3.59315 4.5 2.25 5.84315 2.25 7.5V18C2.25 19.6569 3.59315 21 5.25 21H18.75C20.4069 21 21.75 19.6569 21.75 18V7.5C21.75 5.84315 20.4069 4.5 18.75 4.5H12.75V1.5ZM5.25 6C4.42157 6 3.75 6.67157 3.75 7.5V18C3.75 18.8284 4.42157 19.5 5.25 19.5H18.75C19.5784 19.5 20.25 18.8284 20.25 18V7.5C20.25 6.67157 19.5784 6 18.75 6H5.25Z" fill="black"/>
</svg>
