<svg width="24" height="24" viewBox="0 0 24 24" fill="none" xmlns="http://www.w3.org/2000/svg">
<path fill-rule="evenodd" clip-rule="evenodd" d="M3.0606 1.9394C2.76771 1.6465 2.29284 1.6465 1.99994 1.9394C1.70705 2.23229 1.70705 2.70716 1.99994 3.00006L3.56067 4.56078C1.75137 6.60933 0.74585 9.25367 0.74585 12.0004C0.74585 14.9452 1.90172 17.7725 3.96483 19.8739C4.25502 20.1695 4.72987 20.1739 5.02545 19.8837C5.32102 19.5935 5.32539 19.1186 5.03521 18.8231C3.24745 17.0021 2.24585 14.5522 2.24585 12.0004C2.24585 9.65146 3.09447 7.38894 4.62368 5.6238L6.2198 7.21991C5.1086 8.56169 4.49756 10.2517 4.49756 11.9999C4.49756 13.8453 5.17841 15.6258 6.40969 17.0003C6.68606 17.3088 7.16022 17.3349 7.46875 17.0585C7.77728 16.7822 7.80335 16.308 7.52697 15.9995C6.54214 14.9 5.99756 13.4759 5.99756 11.9999C5.99756 10.6489 6.45381 9.3413 7.28632 8.28643L8.89555 9.89566C8.48843 10.4955 8.25 11.2201 8.25 11.9997C8.25 14.0707 9.92893 15.7497 12 15.7497C12.7795 15.7497 13.5042 15.5112 14.104 15.1041L20.9999 22.0001C21.2928 22.2929 21.7677 22.2929 22.0606 22.0001C22.3535 21.7072 22.3535 21.2323 22.0606 20.9394L3.0606 1.9394ZM13.0106 14.0107L9.98897 10.9891C9.83593 11.2929 9.75 11.636 9.75 11.9997C9.75 13.2423 10.7574 14.2497 12 14.2497C12.3637 14.2497 12.7068 14.1637 13.0106 14.0107Z" fill="black"/>
<path d="M20.0352 4.1268C19.745 3.83123 19.2701 3.82686 18.9746 4.11704C18.679 4.40723 18.6746 4.88208 18.9648 5.17766C20.7526 6.99861 21.7542 9.44851 21.7542 12.0004C21.7542 13.5527 21.3835 15.0673 20.6907 16.4256C20.5025 16.7946 20.649 17.2463 21.018 17.4345C21.387 17.6227 21.8387 17.4762 22.0269 17.1072C22.8264 15.5398 23.2542 13.7918 23.2542 12.0004C23.2542 9.05546 22.0983 6.22822 20.0352 4.1268Z" fill="black"/>
<path d="M17.5901 6.99948C17.3138 6.69095 16.8396 6.66488 16.5311 6.94125C16.2226 7.21762 16.1965 7.69178 16.4729 8.00031C17.4577 9.09974 18.0023 10.5239 18.0023 11.9999C18.0023 12.6076 17.91 13.2064 17.7326 13.7775C17.6098 14.1731 17.8309 14.5933 18.2265 14.7162C18.6221 14.839 19.0423 14.6179 19.1652 14.2223C19.3869 13.5084 19.5023 12.7596 19.5023 11.9999C19.5023 10.1545 18.8214 8.37402 17.5901 6.99948Z" fill="black"/>
<path d="M12.954 8.37229C12.5534 8.26715 12.1433 8.5067 12.0382 8.90735C11.9331 9.308 12.1726 9.71802 12.5733 9.82316C13.3876 10.0369 14.0227 10.6976 14.2001 11.5253C14.2868 11.9303 14.6855 12.1883 15.0905 12.1015C15.4956 12.0147 15.7535 11.6161 15.6668 11.211C15.3704 9.82755 14.3134 8.72904 12.954 8.37229Z" fill="black"/>
</svg>
