<svg width="24" height="24" viewBox="0 0 24 24" fill="none" xmlns="http://www.w3.org/2000/svg">
<path d="M3.98872 10.867C3.98872 11.1725 3.86458 11.4685 3.64497 11.6691C3.45399 11.8409 3.19618 11.9173 2.79514 11.9173H2.63281V9.81662H2.79514C3.19618 9.81662 3.44444 9.88346 3.64497 10.0744C3.86458 10.2654 3.98872 10.5614 3.98872 10.867ZM20.947 10.2463C20.947 10.571 20.737 10.7428 20.3359 10.7428H20.1545V9.77843H20.3455C20.737 9.77843 20.947 9.94075 20.947 10.2463ZM4.62847 10.867C4.62847 9.93121 3.93142 9.27235 2.91927 9.27235H2.01215V12.452H2.91927C3.3967 12.452 3.75 12.347 4.05556 12.0892C4.4184 11.7836 4.62847 11.3349 4.62847 10.867ZM4.91493 12.452H5.53559V9.27235H4.91493V12.452ZM7.97049 11.4876C7.97049 10.9816 7.76042 10.7524 7.05382 10.4946C6.68142 10.3609 6.57639 10.2654 6.57639 10.0935C6.57639 9.89301 6.76736 9.74023 7.03472 9.74023C7.22569 9.74023 7.37847 9.81662 7.5408 9.99805L7.86545 9.57791C7.59809 9.33919 7.27344 9.22461 6.92969 9.22461C6.36632 9.22461 5.93663 9.6161 5.93663 10.1317C5.93663 10.571 6.13715 10.8001 6.71962 11.0102C6.95833 11.0961 7.08247 11.1439 7.14931 11.1916C7.27344 11.268 7.33073 11.3826 7.33073 11.5163C7.33073 11.7741 7.13021 11.9651 6.8533 11.9651C6.55729 11.9651 6.31858 11.8218 6.17535 11.5449L5.77431 11.9269C6.06076 12.347 6.40451 12.538 6.8724 12.538C7.5217 12.538 7.97049 12.1083 7.97049 11.4876ZM10.625 12.347V11.6118C10.3767 11.86 10.1571 11.9651 9.88021 11.9651C9.25 11.9651 8.81076 11.5067 8.81076 10.867C8.81076 10.2559 9.2691 9.76888 9.85156 9.76888C10.1476 9.76888 10.3672 9.87391 10.625 10.1317V9.39648C10.3576 9.2628 10.1285 9.20551 9.86111 9.20551C8.92535 9.20551 8.17101 9.94075 8.17101 10.867C8.17101 11.8027 8.90625 12.5284 9.85156 12.5284C10.1189 12.5284 10.3481 12.4807 10.625 12.347ZM22.3889 18.1144V13.0822C20.8611 14.0371 15.4852 17.0927 6.79601 18.7255H21.7778C22.112 18.7255 22.3889 18.4486 22.3889 18.1144ZM14.263 10.8861C14.263 9.93121 13.4896 9.15777 12.5347 9.15777C11.5799 9.15777 10.8064 9.93121 10.8064 10.8861C10.8064 11.8409 11.5799 12.6144 12.5347 12.6144C13.4896 12.6144 14.263 11.8409 14.263 10.8861ZM15.7144 12.538L17.0894 9.27235H16.4115L15.5521 11.4112L14.7023 9.27235H14.0243L15.3802 12.538H15.7144ZM17.3663 12.452H19.1233V11.9173H17.987V11.0579H19.0851V10.5232H17.987V9.81662H19.1233V9.27235H17.3663V12.452ZM21.0998 12.452H21.8637L20.8611 11.1152C21.329 11.0197 21.5868 10.7046 21.5868 10.2177C21.5868 9.6161 21.1762 9.27235 20.4601 9.27235H19.5339V12.452H20.1545V11.1821H20.2405L21.0998 12.452ZM23 5.94944V18.0571C23 18.7637 22.4366 19.3366 21.7396 19.3366H2.26042C1.56337 19.3366 1 18.7637 1 18.0571V5.94944C1 5.24284 1.56337 4.66992 2.26042 4.66992H21.7396C22.4366 4.66992 23 5.24284 23 5.94944Z" fill="black"/>
</svg>
