<svg width="24" height="24" viewBox="0 0 24 24" fill="none" xmlns="http://www.w3.org/2000/svg">
<path d="M19.8585 12.9008H18.5408C18.5408 12.9008 18.6745 12.5475 19.171 11.1916C19.1615 11.2012 19.3047 10.8383 19.3811 10.6092L19.4957 11.1343C19.7917 12.5953 19.8585 12.9008 19.8585 12.9008ZM6.07031 12.2802L5.51649 9.46332C5.4401 9.07183 5.1441 8.9477 4.80035 8.9477H2.24132L2.22222 9.07183C3.97917 9.52062 5.42101 10.4755 6.07031 12.2802ZM7.77951 8.9477L6.23264 13.13L6.07031 12.2802C5.73611 11.3921 4.92448 10.571 4.00781 10.1986L5.29688 15.0684H6.96788L9.46007 8.9477H7.77951ZM9.10677 15.0779H10.6918L11.6849 8.9477H10.0998L9.10677 15.0779ZM16.4401 9.10048C16.125 8.97635 15.6285 8.84266 15.0174 8.84266C13.4514 8.84266 12.3533 9.67339 12.3438 10.867C12.3342 11.7454 13.1267 12.2324 13.7283 12.5284C14.349 12.8244 14.5495 13.025 14.5495 13.2923C14.5495 13.7029 14.053 13.8843 13.6042 13.8843C12.9644 13.8843 12.6207 13.8079 12.1146 13.5692L11.9045 13.4642L11.6849 14.8392C12.0573 15.0111 12.7352 15.1638 13.4514 15.1638C15.1128 15.1734 16.1918 14.3427 16.2109 13.0727C16.2109 12.3757 15.7812 11.8505 14.8741 11.4112C14.3203 11.1343 13.9861 10.9338 13.9861 10.6474C13.9861 10.3895 14.2726 10.1222 14.8932 10.1222C15.4089 10.1126 15.7908 10.2177 16.0773 10.3513L16.2205 10.4277L16.4401 9.10048ZM20.4983 8.9477H19.276C18.8941 8.9477 18.6076 9.06228 18.4453 9.46332L16.0964 15.0779H17.7578C18.0252 14.3236 18.092 14.1612 18.092 14.1612H20.1163C20.1163 14.1612 20.1641 14.3713 20.3073 15.0779H21.7778L20.4983 8.9477ZM23 5.89214V18.1144C23 18.7828 22.4462 19.3366 21.7778 19.3366H2.22222C1.55382 19.3366 1 18.7828 1 18.1144V5.89214C1 5.22374 1.55382 4.66992 2.22222 4.66992H21.7778C22.4462 4.66992 23 5.22374 23 5.89214Z" fill="black"/>
</svg>
