<svg width="24" height="24" viewBox="0 0 24 24" fill="none" xmlns="http://www.w3.org/2000/svg">
<path fill-rule="evenodd" clip-rule="evenodd" d="M2.68934 4.93934C2.97064 4.65804 3.35217 4.5 3.75 4.5H20.25C20.6478 4.5 21.0294 4.65804 21.3107 4.93934C21.592 5.22065 21.75 5.60218 21.75 6V18C21.75 18.3978 21.592 18.7794 21.3107 19.0607C21.0294 19.342 20.6478 19.5 20.25 19.5H7.73481L4.72724 22.1368L4.71563 22.1467C4.49715 22.3305 4.23076 22.4482 3.94774 22.4858C3.66473 22.5234 3.37685 22.4795 3.11794 22.3592C2.85902 22.2389 2.63981 22.0472 2.48606 21.8066C2.33232 21.5661 2.25042 21.2866 2.25 21.0011L2.25 6C2.25 5.60217 2.40804 5.22064 2.68934 4.93934ZM20.25 6L3.75 6L3.75 20.9987L6.75714 18.3623L6.76854 18.3525C7.03885 18.1249 7.38082 18.0001 7.73416 18H20.25V6Z" fill="black"/>
</svg>
