<svg width="24" height="24" viewBox="0 0 24 24" fill="none" xmlns="http://www.w3.org/2000/svg">
<path d="M12 2.25C11.7139 2.25 11.4306 2.26234 11.1504 2.28655C10.7377 2.32221 10.4321 2.68565 10.4678 3.09833C10.5034 3.511 10.8669 3.81664 11.2795 3.78098C11.5168 3.76048 11.7571 3.75 12 3.75C16.5563 3.75 20.25 7.44365 20.25 12C20.25 16.5563 16.5563 20.25 12 20.25H11.2795C10.8653 20.25 10.5034 20.489 10.4678 20.9017C10.4321 21.3143 10.7377 21.6778 11.1504 21.7135C11.4306 21.7377 11.7139 21.75 12 21.75C17.3848 21.75 21.75 17.3848 21.75 12C21.75 6.61522 17.3848 2.25 12 2.25Z" fill="black"/>
<path d="M8.51291 4.52082C8.8882 4.34552 9.05032 3.89918 8.87502 3.52389C8.69972 3.1486 8.25338 2.98647 7.87809 3.16178C7.36122 3.40321 6.86917 3.68856 6.40673 4.01296C6.06763 4.25083 5.98557 4.71856 6.22345 5.05766C6.46132 5.39676 6.92905 5.47882 7.26815 5.24095C7.65964 4.96632 8.07592 4.72494 8.51291 4.52082Z" fill="black"/>
<path d="M5.24095 7.26815C5.47882 6.92905 5.39676 6.46132 5.05766 6.22345C4.71856 5.98557 4.25083 6.06763 4.01296 6.40673C3.68856 6.86917 3.40321 7.36122 3.16178 7.87809C2.98647 8.25338 3.1486 8.69972 3.52389 8.87502C3.89918 9.05032 4.34552 8.8882 4.52082 8.51291C4.72494 8.07592 4.96632 7.65964 5.24095 7.26815Z" fill="black"/>
<path d="M3.78098 11.2795C3.81664 10.8669 3.511 10.5034 3.09833 10.4678C2.68565 10.4321 2.32221 10.7377 2.28655 11.1504C2.26234 11.4306 2.25 11.7139 2.25 12C2.25 12.2861 2.26234 12.5694 2.28655 12.8496C2.32221 13.2623 2.68565 13.5679 3.09833 13.5322C3.511 13.4966 3.81664 13.1331 3.78098 12.7205C3.76048 12.4832 3.75 12.2429 3.75 12C3.75 11.7571 3.76048 11.5168 3.78098 11.2795Z" fill="black"/>
<path d="M4.52082 15.4871C4.34552 15.1118 3.89918 14.9497 3.52389 15.125C3.1486 15.3003 2.98647 15.7466 3.16178 16.1219C3.40321 16.6388 3.68856 17.1308 4.01296 17.5933C4.25083 17.9324 4.71856 18.0144 5.05766 17.7766C5.39676 17.5387 5.47882 17.0709 5.24095 16.7318C4.96632 16.3404 4.72494 15.9241 4.52082 15.4871Z" fill="black"/>
<path d="M7.26815 18.7591C6.92905 18.5212 6.46132 18.6032 6.22345 18.9423C5.98557 19.2814 6.06763 19.7492 6.40673 19.987C6.86917 20.3114 7.36122 20.5968 7.87809 20.8382C8.25338 21.0135 8.69972 20.8514 8.87502 20.4761C9.05032 20.1008 8.8882 19.6545 8.51291 19.4792C8.07592 19.2751 7.65964 19.0337 7.26815 18.7591Z" fill="black"/>
<path d="M16.2803 9.21967C16.5732 9.51256 16.5732 9.98744 16.2803 10.2803L11.0303 15.5303C10.7374 15.8232 10.2626 15.8232 9.96967 15.5303L7.71967 13.2803C7.42678 12.9874 7.42678 12.5126 7.71967 12.2197C8.01256 11.9268 8.48744 11.9268 8.78033 12.2197L10.5 13.9393L15.2197 9.21967C15.5126 8.92678 15.9874 8.92678 16.2803 9.21967Z" fill="black"/>
</svg>
