<svg width="24" height="24" fill="none" xmlns="http://www.w3.org/2000/svg"><path d="M4.174 3.041c-.419.084-.844.434-1.042.859l-.112.24v15.72l.112.24c.147.315.455.624.764.767l.244.113h15.72l.244-.113c.309-.143.617-.452.764-.767l.112-.24V4.14l-.113-.244a1.698 1.698 0 0 0-.767-.764l-.24-.112-7.76-.006c-4.268-.003-7.835.009-7.926.027M19.48 12.02v7.5H4.52v-15h14.96v7.5m-3.94-2.991c-.183.047-.509.354-2.719 2.568l-2.32 2.322-.86-.853c-.474-.469-.918-.892-.988-.94a.763.763 0 0 0-.666-.071.701.701 0 0 0-.449.499.715.715 0 0 0 .117.639c.056.081.612.655 1.234 1.275 1.159 1.154 1.329 1.29 1.611 1.29.309 0 .392-.074 3.111-2.79 1.447-1.445 2.677-2.694 2.734-2.775.056-.081.117-.214.135-.294.043-.191-.038-.508-.165-.646a.826.826 0 0 0-.775-.224" fill-rule="evenodd" fill="#000"/></svg>
