<svg width="24" height="24" viewBox="0 0 24 24" fill="none" xmlns="http://www.w3.org/2000/svg">
<path d="M23.0254 8.03509C23.3209 7.74484 23.3252 7.26999 23.0349 6.97447C22.7447 6.67895 22.2698 6.67467 21.9743 6.96491L14.0998 14.6988L12.3341 12.9649C12.0385 12.6747 11.5637 12.679 11.2735 12.9745C10.9832 13.2701 10.9876 13.7449 11.2831 14.0351L13.5744 16.2851C13.8661 16.5716 14.3336 16.5716 14.6254 16.2851L23.0254 8.03509Z" fill="black"/>
<path d="M14.0255 8.03509C14.3211 7.74484 14.3253 7.26999 14.0351 6.97447C13.7448 6.67895 13.27 6.67467 12.9745 6.96491L5.09997 14.6988L2.0255 11.6796C1.72996 11.3893 1.25511 11.3937 0.964884 11.6892C0.674658 11.9847 0.678963 12.4596 0.9745 12.7498L4.5745 16.2851C4.86627 16.5716 5.33378 16.5716 5.62553 16.2851L14.0255 8.03509Z" fill="black"/>
</svg>
