<svg width="24" height="24" viewBox="0 0 24 24" fill="none" xmlns="http://www.w3.org/2000/svg">
<path d="M16.2803 12.9697L12.5303 9.21967C12.2374 8.92678 11.7626 8.92678 11.4697 9.21967L7.71967 12.9697C7.42678 13.2626 7.42678 13.7374 7.71967 14.0303C8.01256 14.3232 8.48744 14.3232 8.78033 14.0303L12 10.8107L15.2197 14.0303C15.5126 14.3232 15.9874 14.3232 16.2803 14.0303C16.5732 13.7374 16.5732 13.2626 16.2803 12.9697Z" fill="black"/>
<path fill-rule="evenodd" clip-rule="evenodd" d="M12 2.25C6.61522 2.25 2.25 6.61522 2.25 12C2.25 17.3848 6.61522 21.75 12 21.75C17.3848 21.75 21.75 17.3848 21.75 12C21.75 6.61522 17.3848 2.25 12 2.25ZM3.75 12C3.75 7.44365 7.44365 3.75 12 3.75C16.5563 3.75 20.25 7.44365 20.25 12C20.25 16.5563 16.5563 20.25 12 20.25C7.44365 20.25 3.75 16.5563 3.75 12Z" fill="black"/>
</svg>
