<svg width="24" height="24" viewBox="0 0 24 24" fill="none" xmlns="http://www.w3.org/2000/svg">
<path d="M11.0303 7.71967C10.7374 7.42678 10.2626 7.42678 9.96967 7.71967C9.67678 8.01256 9.67678 8.48744 9.96967 8.78033L13.1893 12L9.96967 15.2197C9.67678 15.5126 9.67678 15.9874 9.96967 16.2803C10.2626 16.5732 10.7374 16.5732 11.0303 16.2803L14.7803 12.5303C15.0732 12.2374 15.0732 11.7626 14.7803 11.4697L11.0303 7.71967Z" fill="black"/>
<path fill-rule="evenodd" clip-rule="evenodd" d="M12 2.25C6.61522 2.25 2.25 6.61522 2.25 12C2.25 17.3848 6.61522 21.75 12 21.75C17.3848 21.75 21.75 17.3848 21.75 12C21.75 6.61522 17.3848 2.25 12 2.25ZM3.75 12C3.75 7.44365 7.44365 3.75 12 3.75C16.5563 3.75 20.25 7.44365 20.25 12C20.25 16.5563 16.5563 20.25 12 20.25C7.44365 20.25 3.75 16.5563 3.75 12Z" fill="black"/>
</svg>
