<svg width="24" height="24" viewBox="0 0 24 24" fill="none" xmlns="http://www.w3.org/2000/svg">
<path fill-rule="evenodd" clip-rule="evenodd" d="M9.9384 4.00738C11.2903 3.65639 12.7095 3.65639 14.0615 4.00738C14.4624 4.11146 14.8718 3.87083 14.9759 3.4699C15.08 3.06898 14.8393 2.65959 14.4384 2.55551C12.8393 2.14035 11.1606 2.14035 9.56148 2.55551C9.16055 2.65959 8.91992 3.06898 9.024 3.4699C9.12809 3.87083 9.53748 4.11146 9.9384 4.00738ZM6.11156 6.2205C6.40215 5.92533 6.39843 5.45047 6.10326 5.15987C5.80808 4.86928 5.33322 4.873 5.04263 5.16817C3.8838 6.34527 3.04452 7.79863 2.60423 9.39067C2.49382 9.7899 2.72795 10.203 3.12718 10.3135C3.52641 10.4239 3.93955 10.1897 4.04996 9.7905C4.42221 8.44447 5.1318 7.21571 6.11156 6.2205ZM3.1274 13.6855C3.52666 13.5752 3.93973 13.8094 4.05002 14.2087C4.42201 15.5553 5.13161 16.7847 6.11162 17.7804C6.40218 18.0756 6.39841 18.5505 6.1032 18.841C5.80799 19.1316 5.33313 19.1278 5.04257 18.8326C3.88344 17.6549 3.04414 16.2009 2.60417 14.6081C2.49388 14.2088 2.72814 13.7958 3.1274 13.6855ZM9.9384 19.993C9.53748 19.8889 9.12809 20.1295 9.024 20.5305C8.91992 20.9314 9.16055 21.3408 9.56148 21.4449C11.1606 21.86 12.8393 21.86 14.4384 21.4449C14.8393 21.3408 15.08 20.9314 14.9759 20.5305C14.8718 20.1295 14.4624 19.8889 14.0615 19.993C12.7095 20.344 11.2903 20.344 9.9384 19.993ZM20.8728 13.6865C21.272 13.7969 21.5061 14.2101 21.3957 14.6093C20.9554 16.2013 20.1161 17.6547 18.9573 18.8318C18.6667 19.127 18.1919 19.1307 17.8967 18.8401C17.6015 18.5495 17.5978 18.0746 17.8884 17.7795C18.8681 16.7842 19.5777 15.5555 19.95 14.2095C20.0604 13.8102 20.4735 13.5761 20.8728 13.6865ZM18.9574 5.16726C18.6668 4.87205 18.192 4.86828 17.8967 5.15884C17.6015 5.4494 17.5978 5.92425 17.8883 6.21946C18.8683 7.21515 19.5779 8.44454 19.9499 9.79118C20.0602 10.1904 20.4733 10.4247 20.8725 10.3144C21.2718 10.2041 21.5061 9.79105 21.3958 9.39179C20.9558 7.79902 20.1165 6.34493 18.9574 5.16726Z" fill="black"/>
</svg>
