<svg width="24" height="24" viewBox="0 0 24 24" fill="none" xmlns="http://www.w3.org/2000/svg">
<path fill-rule="evenodd" clip-rule="evenodd" d="M4.24828 5.43945C3.93869 5.16426 3.46464 5.19215 3.18945 5.50174C2.91426 5.81132 2.94215 6.28538 3.25174 6.56056L9.37111 12L3.25174 17.4395C2.94215 17.7146 2.91426 18.1887 3.18945 18.4983C3.46464 18.8079 3.93869 18.8358 4.24828 18.5606L10.9983 12.5606C11.1584 12.4182 11.25 12.2142 11.25 12C11.25 11.7858 11.1584 11.5818 10.9983 11.4395L4.24828 5.43945ZM11.25 17.25C10.8358 17.25 10.5 17.5858 10.5 18C10.5 18.4142 10.8358 18.75 11.25 18.75H20.25C20.6642 18.75 21 18.4142 21 18C21 17.5858 20.6642 17.25 20.25 17.25H11.25Z" fill="black"/>
</svg>
