<svg width="24" height="24" viewBox="0 0 24 24" fill="none" xmlns="http://www.w3.org/2000/svg">
<path d="M12.75 6.75C12.75 6.33579 12.4142 6 12 6C11.5858 6 11.25 6.33579 11.25 6.75V12C11.25 12.4142 11.5858 12.75 12 12.75H17.25C17.6642 12.75 18 12.4142 18 12C18 11.5858 17.6642 11.25 17.25 11.25H12.75V6.75Z" fill="black"/>
<path fill-rule="evenodd" clip-rule="evenodd" d="M12 2.25C6.61522 2.25 2.25 6.61522 2.25 12C2.25 17.3848 6.61522 21.75 12 21.75C17.3848 21.75 21.75 17.3848 21.75 12C21.75 6.61522 17.3848 2.25 12 2.25ZM3.75 12C3.75 7.44365 7.44365 3.75 12 3.75C16.5563 3.75 20.25 7.44365 20.25 12C20.25 16.5563 16.5563 20.25 12 20.25C7.44365 20.25 3.75 16.5563 3.75 12Z" fill="black"/>
</svg>
