<svg width="24" height="24" viewBox="0 0 24 24" fill="none" xmlns="http://www.w3.org/2000/svg">
<path fill-rule="evenodd" clip-rule="evenodd" d="M16.3167 5.3797C15.0074 5.11925 13.6502 5.25293 12.4168 5.76382C11.1834 6.27471 10.1291 7.13987 9.38745 8.2499C8.64575 9.35994 8.24987 10.665 8.24987 12C8.24987 12.4142 7.91408 12.75 7.49987 12.75C7.08566 12.75 6.74987 12.4142 6.74987 12C6.74987 11.2386 6.85523 10.4852 7.05972 9.76025C6.69911 9.73588 6.33588 9.75498 5.97794 9.81784C5.34949 9.92822 4.75169 10.171 4.22423 10.53C3.69676 10.8891 3.25167 11.3562 2.9185 11.9003C2.58534 12.4445 2.37171 13.0533 2.29179 13.6864C2.21187 14.3194 2.26749 14.9622 2.45495 15.5721C2.64242 16.182 2.95745 16.7451 3.37913 17.224C3.80082 17.7028 4.31952 18.0865 4.90082 18.3496C5.48212 18.6127 6.11273 18.7492 6.7508 18.75H14.9999C16.3349 18.75 17.6399 18.3541 18.75 17.6124C19.86 16.8707 20.7252 15.8165 21.2361 14.5831C21.7469 13.3497 21.8806 11.9925 21.6202 10.6831C21.3597 9.37377 20.7168 8.17104 19.7728 7.22703C18.8288 6.28303 17.6261 5.64015 16.3167 5.3797ZM7.61985 8.31247C6.98993 8.22086 6.34807 8.22988 5.71847 8.34046C4.88053 8.48762 4.08348 8.8113 3.38018 9.29002C2.67689 9.76873 2.08345 10.3915 1.63922 11.1171C1.195 11.8427 0.910159 12.6544 0.803599 13.4985C0.697039 14.3425 0.771197 15.1996 1.02115 16.0128C1.27111 16.826 1.69115 17.5768 2.2534 18.2153C2.81564 18.8538 3.50725 19.3654 4.28231 19.7162C5.05738 20.067 5.89819 20.249 6.74895 20.25H6.74987H14.9999C16.6316 20.25 18.2266 19.7661 19.5833 18.8596C20.94 17.9531 21.9975 16.6646 22.6219 15.1571C23.2463 13.6497 23.4097 11.9909 23.0913 10.3905C22.773 8.79017 21.9873 7.32016 20.8335 6.16637C19.6797 5.01259 18.2097 4.22685 16.6094 3.90853C15.009 3.5902 13.3502 3.75357 11.8427 4.378C10.3352 5.00242 9.04677 6.05984 8.14025 7.41655C7.94747 7.70506 7.77381 8.00434 7.61985 8.31247Z" fill="black"/>
</svg>
