<svg width="24" height="24" viewBox="0 0 24 24" fill="none" xmlns="http://www.w3.org/2000/svg">
<path d="M12.25 8C12.25 7.58579 12.5858 7.25 13 7.25H17C17.4142 7.25 17.75 7.58579 17.75 8C17.75 8.41421 17.4142 8.75 17 8.75H13C12.5858 8.75 12.25 8.41421 12.25 8Z" fill="black"/>
<path d="M13 11.25C12.5858 11.25 12.25 11.5858 12.25 12C12.25 12.4142 12.5858 12.75 13 12.75H17C17.4142 12.75 17.75 12.4142 17.75 12C17.75 11.5858 17.4142 11.25 17 11.25H13Z" fill="black"/>
<path d="M12.25 16C12.25 15.5858 12.5858 15.25 13 15.25H17C17.4142 15.25 17.75 15.5858 17.75 16C17.75 16.4142 17.4142 16.75 17 16.75H13C12.5858 16.75 12.25 16.4142 12.25 16Z" fill="black"/>
<path d="M7.5 7.25C7.08579 7.25 6.75 7.58579 6.75 8C6.75 8.41421 7.08579 8.75 7.5 8.75H9.5C9.91421 8.75 10.25 8.41421 10.25 8C10.25 7.58579 9.91421 7.25 9.5 7.25H7.5Z" fill="black"/>
<path d="M6.75 12C6.75 11.5858 7.08579 11.25 7.5 11.25H9.5C9.91421 11.25 10.25 11.5858 10.25 12C10.25 12.4142 9.91421 12.75 9.5 12.75H7.5C7.08579 12.75 6.75 12.4142 6.75 12Z" fill="black"/>
<path d="M7.5 15.25C7.08579 15.25 6.75 15.5858 6.75 16C6.75 16.4142 7.08579 16.75 7.5 16.75H9.5C9.91421 16.75 10.25 16.4142 10.25 16C10.25 15.5858 9.91421 15.25 9.5 15.25H7.5Z" fill="black"/>
<path fill-rule="evenodd" clip-rule="evenodd" d="M2.25 3.9C2.25 3.12257 2.79934 2.25 3.75 2.25H20.25C21.2007 2.25 21.75 3.12257 21.75 3.9V20.1C21.75 20.8774 21.2007 21.75 20.25 21.75H3.75C2.79934 21.75 2.25 20.8774 2.25 20.1V3.9ZM3.79101 3.75C3.77346 3.77438 3.75 3.82494 3.75 3.9V20.1C3.75 20.1751 3.77346 20.2256 3.79101 20.25H20.209C20.2265 20.2256 20.25 20.1751 20.25 20.1V3.9C20.25 3.82494 20.2265 3.77438 20.209 3.75H3.79101Z" fill="black"/>
</svg>
