<svg width="24" height="24" viewBox="0 0 24 24" fill="none" xmlns="http://www.w3.org/2000/svg">
<path d="M15.75 4.5C15.75 4.08579 15.4142 3.75 15 3.75C14.5858 3.75 14.25 4.08579 14.25 4.5V9C14.25 9.41421 14.5858 9.75 15 9.75H19.5C19.9142 9.75 20.25 9.41421 20.25 9C20.25 8.58579 19.9142 8.25 19.5 8.25H15.75V4.5Z" fill="black"/>
<path d="M4.5 14.25C4.08579 14.25 3.75 14.5858 3.75 15C3.75 15.4142 4.08579 15.75 4.5 15.75H8.25V19.5C8.25 19.9142 8.58579 20.25 9 20.25C9.41421 20.25 9.75 19.9142 9.75 19.5V15C9.75 14.5858 9.41421 14.25 9 14.25H4.5Z" fill="black"/>
<path d="M14.25 15C14.25 14.5858 14.5858 14.25 15 14.25H19.5C19.9142 14.25 20.25 14.5858 20.25 15C20.25 15.4142 19.9142 15.75 19.5 15.75H15.75V19.5C15.75 19.9142 15.4142 20.25 15 20.25C14.5858 20.25 14.25 19.9142 14.25 19.5V15Z" fill="black"/>
<path d="M9.75 4.5C9.75 4.08579 9.41421 3.75 9 3.75C8.58579 3.75 8.25 4.08579 8.25 4.5V8.25H4.5C4.08579 8.25 3.75 8.58579 3.75 9C3.75 9.41421 4.08579 9.75 4.5 9.75H9C9.41421 9.75 9.75 9.41421 9.75 9V4.5Z" fill="black"/>
</svg>
