<svg width="24" height="24" viewBox="0 0 24 24" fill="none" xmlns="http://www.w3.org/2000/svg">
<path d="M6.75 3C6.33579 3 6 3.33579 6 3.75C6 4.16421 6.33579 4.5 6.75 4.5H19.5V17.25C19.5 17.6642 19.8358 18 20.25 18C20.6642 18 21 17.6642 21 17.25V3.75C21 3.33579 20.6642 3 20.25 3H6.75Z" fill="black"/>
<path fill-rule="evenodd" clip-rule="evenodd" d="M3.75 6C3.33579 6 3 6.33579 3 6.75V20.25C3 20.6642 3.33579 21 3.75 21H17.25C17.6642 21 18 20.6642 18 20.25V6.75C18 6.33579 17.6642 6 17.25 6H3.75ZM4.5 19.5V7.5H16.5V19.5H4.5Z" fill="black"/>
</svg>
