<svg xmlns="http://www.w3.org/2000/svg" viewBox="0 0 24 24">
  <path d="M20.25,4.5v3.75c0,.41-.34.75-.75.75s-.75-.34-.75-.75v-3h-3c-.41,0-.75-.34-.75-.75s.34-.75.75-.75h3.75c.41,0,.75.34.75.75ZM8.25,18.75h-3v-3c0-.41-.34-.75-.75-.75s-.75.34-.75.75v3.75c0,.41.34.75.75.75h3.75c.41,0,.75-.34.75-.75s-.34-.75-.75-.75ZM19.5,15c-.41,0-.75.34-.75.75v3h-3c-.41,0-.75.34-.75.75s.34.75.75.75h3.75c.41,0,.75-.34.75-.75v-3.75c0-.41-.34-.75-.75-.75ZM8.25,3.75h-3.75c-.41,0-.75.34-.75.75v3.75c0,.41.34.75.75.75s.75-.34.75-.75v-3h3c.41,0,.75-.34.75-.75s-.34-.75-.75-.75Z"/>
</svg>