<svg xmlns="http://www.w3.org/2000/svg" viewBox="0 0 24 24">
  <path d="M14.25,9v-4.5c0-.41.34-.75.75-.75s.75.34.75.75v3.75h3.75c.41,0,.75.34.75.75s-.34.75-.75.75h-4.5c-.41,0-.75-.34-.75-.75ZM9,14.25h-4.5c-.41,0-.75.34-.75.75s.34.75.75.75h3.75v3.75c0,.41.34.75.75.75s.75-.34.75-.75v-4.5c0-.41-.34-.75-.75-.75ZM19.5,14.25h-4.5c-.41,0-.75.34-.75.75v4.5c0,.41.34.75.75.75s.75-.34.75-.75v-3.75h3.75c.41,0,.75-.34.75-.75s-.34-.75-.75-.75ZM9,3.75c-.41,0-.75.34-.75.75v3.75h-3.75c-.41,0-.75.34-.75.75s.34.75.75.75h4.5c.41,0,.75-.34.75-.75v-4.5c0-.41-.34-.75-.75-.75Z"/>
</svg>