<svg width="24" height="24" viewBox="0 0 24 24" fill="none" xmlns="http://www.w3.org/2000/svg">
<path d="M19.2803 5.78033C19.5732 5.48744 19.5732 5.01256 19.2803 4.71967C18.9874 4.42678 18.5126 4.42678 18.2197 4.71967L12 10.9393L5.78033 4.71967C5.48744 4.42678 5.01256 4.42678 4.71967 4.71967C4.42678 5.01256 4.42678 5.48744 4.71967 5.78033L10.9393 12L4.71967 18.2197C4.42678 18.5126 4.42678 18.9874 4.71967 19.2803C5.01256 19.5732 5.48744 19.5732 5.78033 19.2803L12 13.0607L18.2197 19.2803C18.5126 19.5732 18.9874 19.5732 19.2803 19.2803C19.5732 18.9874 19.5732 18.5126 19.2803 18.2197L13.0607 12L19.2803 5.78033Z" fill="black"/>
</svg>
