<svg width="24" height="24" viewBox="0 0 24 24" fill="none" xmlns="http://www.w3.org/2000/svg"><path d="M11.789 2.284a1.205 1.205 0 0 0-.615.322c-.047.052-.98 1.579-2.074 3.394a1143.919 1143.919 0 0 1-1.999 3.312c-.006.007-1.104-.533-2.438-1.2L2.236 6.9l-.348.001c-.399.001-.528.051-.798.312-.201.193-.33.501-.33.786 0 .149.416 1.472 1.764 5.608.971 2.977 1.79 5.462 1.82 5.521.126.243.514.418.786.352.072-.017.319-.121.55-.232 3.45-1.65 9.19-1.65 12.64 0 .231.111.483.216.56.235.266.064.65-.111.776-.355.03-.059.843-2.52 1.807-5.468 1.967-6.022 1.883-5.707 1.658-6.164-.212-.43-.58-.638-1.08-.609-.28.016-.311.03-2.707 1.226-1.333.666-2.428 1.206-2.435 1.199-.006-.007-.905-1.497-1.998-3.312-1.093-1.815-2.034-3.35-2.093-3.411-.134-.142-.46-.297-.668-.318a1.69 1.69 0 0 0-.351.013m2.131 5c1.072 1.784 1.966 3.229 2.05 3.315.258.261.625.38.98.317.121-.021.977-.425 2.36-1.114 1.193-.595 2.17-1.071 2.17-1.059 0 .052-2.891 8.88-2.917 8.908-.016.017-.197-.033-.403-.111-1.033-.394-2.522-.748-3.78-.897-1.41-.168-3.35-.168-4.76 0-1.266.15-2.74.5-3.78.897-.206.078-.387.128-.403.111-.021-.023-2.709-8.231-2.895-8.842-.023-.075.344.095 2.19 1.016l2.218 1.107.275-.001c.327 0 .596-.11.813-.332.078-.08.997-1.57 2.042-3.31 1.045-1.741 1.909-3.166 1.92-3.166.011-.001.875 1.422 1.92 3.161" fillRule="evenodd" fill="currentColor" /></svg>
