<svg width="24" height="24" viewBox="0 0 24 24" fill="none" xmlns="http://www.w3.org/2000/svg">
<path fill-rule="evenodd" clip-rule="evenodd" d="M6.52551 4.97644C5.1342 5.73534 4.5 6.66048 4.5 7.5C4.5 8.33952 5.1342 9.26466 6.52551 10.0236C7.88846 10.767 9.82259 11.25 12 11.25C14.1774 11.25 16.1115 10.767 17.4745 10.0236C18.8658 9.26466 19.5 8.33952 19.5 7.5C19.5 6.66048 18.8658 5.73534 17.4745 4.97644C16.1115 4.23301 14.1774 3.75 12 3.75C9.82259 3.75 7.88846 4.23301 6.52551 4.97644ZM5.80723 3.6596C4.21263 4.52938 3 5.85424 3 7.5V12V16.5C3 18.1458 4.21266 19.4706 5.80727 20.3404C7.43024 21.2257 9.62111 21.75 12 21.75C14.3789 21.75 16.5698 21.2257 18.1927 20.3404C19.7873 19.4706 21 18.1458 21 16.5V12V7.5C21 5.85424 19.7874 4.52938 18.1928 3.6596C16.5698 2.77434 14.3789 2.25 12 2.25C9.62106 2.25 7.43019 2.77434 5.80723 3.6596ZM19.5 14.9404V16.5C19.5 17.3395 18.8658 18.2647 17.4745 19.0236C16.1115 19.767 14.1774 20.25 12 20.25C9.82264 20.25 7.88851 19.767 6.52554 19.0236C5.13421 18.2647 4.5 17.3395 4.5 16.5V14.9404C4.88666 15.2788 5.32984 15.58 5.80727 15.8404C7.43024 16.7257 9.62111 17.25 12 17.25C14.3789 17.25 16.5698 16.7257 18.1927 15.8404C18.6702 15.58 19.1133 15.2788 19.5 14.9404ZM4.5 12C4.5 12.8395 5.13421 13.7647 6.52554 14.5236C7.88851 15.267 9.82264 15.75 12 15.75C14.1774 15.75 16.1115 15.267 17.4745 14.5236C18.8658 13.7647 19.5 12.8395 19.5 12V10.4404C19.1134 10.7788 18.6702 11.08 18.1928 11.3404C16.5698 12.2257 14.3789 12.75 12 12.75C9.62106 12.75 7.43019 12.2257 5.80723 11.3404C5.32982 11.08 4.88664 10.7788 4.5 10.4404V12Z" fill="black"/>
</svg>
