<svg width="24" height="24" viewBox="0 0 24 24" fill="none" xmlns="http://www.w3.org/2000/svg">
<path fill-rule="evenodd" clip-rule="evenodd" d="M12.75 18.75H19.5C20.7426 18.75 21.75 17.7426 21.75 16.5V6C21.75 4.75736 20.7426 3.75 19.5 3.75H4.5C3.25736 3.75 2.25 4.75736 2.25 6V16.5C2.25 17.7426 3.25736 18.75 4.5 18.75H11.25V20.25H9C8.58579 20.25 8.25 20.5858 8.25 21C8.25 21.4142 8.58579 21.75 9 21.75H15C15.4142 21.75 15.75 21.4142 15.75 21C15.75 20.5858 15.4142 20.25 15 20.25H12.75V18.75ZM20.25 16.5C20.25 16.9142 19.9142 17.25 19.5 17.25H4.5C4.08579 17.25 3.75 16.9142 3.75 16.5V15H20.25V16.5ZM3.75 6V13.5H20.25V6C20.25 5.58579 19.9142 5.25 19.5 5.25H4.5C4.08579 5.25 3.75 5.58579 3.75 6Z" fill="black"/>
</svg>
