<svg width="24" height="24" fill="none" xmlns="http://www.w3.org/2000/svg"><path fill-rule="evenodd" clip-rule="evenodd" d="M9.666 3.891a1.5 1.5 0 0 0-1.844.475l-.002.002L3.368 10.5H.75a.75.75 0 0 0 0 1.5h22.5a.75.75 0 0 0 0-1.5h-2.618L16.18 4.368l-.001-.002a1.5 1.5 0 0 0-2.372-.066l-1.206 1.398a.75.75 0 0 1-1.202 0L10.193 4.3a1.5 1.5 0 0 0-.527-.409Zm9.112 6.609-3.81-5.249a.657.657 0 0 1-.018.02L13.745 6.67a2.25 2.25 0 0 1-3.49 0L9.05 5.27a.737.737 0 0 1-.017-.02L5.222 10.5h13.556ZM3.75 16.875a3.375 3.375 0 0 1 6.73-.375h3.04a3.375 3.375 0 1 1 .172 1.5h-3.384a3.377 3.377 0 0 1-6.558-1.125ZM7.125 15a1.875 1.875 0 1 0 0 3.75 1.875 1.875 0 0 0 0-3.75ZM15 16.875a1.875 1.875 0 1 1 3.75 0 1.875 1.875 0 0 1-3.75 0Z" fill="#000"/></svg>