<svg width="24" height="24" viewBox="0 0 24 24" fill="none" xmlns="http://www.w3.org/2000/svg">
<path d="M8.62 3.816c-.28.089-.477.211-.662.41-.099.107-1.176 1.567-2.393 3.244l-2.212 3.05H1.955c-1.313 0-1.408.005-1.553.079-.29.148-.435.442-.384.781.035.236.278.518.497.579.201.056 22.769.056 22.97 0 .219-.061.462-.343.497-.579.051-.339-.094-.633-.384-.781-.145-.074-.24-.079-1.553-.079h-1.398l-2.212-3.05c-1.217-1.677-2.299-3.142-2.405-3.255-.473-.504-1.279-.599-1.874-.221-.115.073-.469.445-.937.986-.791.915-.915 1.018-1.219 1.018-.304 0-.428-.103-1.219-1.018-.779-.9-.953-1.053-1.318-1.161a1.719 1.719 0 0 0-.843-.003m1.114 2.248c.363.421.734.828.825.906.667.571 1.703.68 2.489.262.338-.18.492-.327 1.218-1.168.363-.42.673-.769.689-.775.028-.01 3.805 5.161 3.805 5.209 0 .012-3.042.022-6.76.022s-6.76-.01-6.76-.022c0-.048 3.777-5.219 3.805-5.209.016.006.326.355.689.775M6.38 13.586a3.472 3.472 0 0 0-1.662.931 3.369 3.369 0 0 0-.581 3.911 3.375 3.375 0 0 0 4.83 1.27 3.54 3.54 0 0 0 1.238-1.443l.116-.255h3.358l.116.255a3.384 3.384 0 0 0 4.633 1.608 3.38 3.38 0 0 0 1.592-4.207c-.39-1.036-1.359-1.855-2.457-2.078-.406-.082-1.205-.061-1.583.041-.353.096-.924.392-1.219.632a3.421 3.421 0 0 0-1.169 1.877l-.088.392h-3.011l-.072-.339a3.329 3.329 0 0 0-1.417-2.094c-.608-.407-1.16-.569-1.912-.564-.238.002-.558.03-.712.063m1.105 1.454c.535.1 1.066.507 1.311 1.005.584 1.189-.179 2.547-1.516 2.698-.486.055-1.096-.172-1.473-.55-.399-.401-.609-1.016-.531-1.56.155-1.088 1.133-1.793 2.209-1.593m9.826.02a1.854 1.854 0 0 1 1.231 2.64c-.329.673-1.115 1.123-1.822 1.043-1.102-.125-1.855-1.081-1.691-2.145a1.87 1.87 0 0 1 2.282-1.538" fill="currentColor" />
</svg>
