<svg width="24" height="24" viewBox="0 0 24 24" fill="none" xmlns="http://www.w3.org/2000/svg">
<path d="M18 9.75C17.5858 9.75 17.25 10.0858 17.25 10.5C17.25 10.9142 17.5858 11.25 18 11.25H19.5C19.9142 11.25 20.25 10.9142 20.25 10.5C20.25 10.0858 19.9142 9.75 19.5 9.75H18Z" fill="black"/>
<path fill-rule="evenodd" clip-rule="evenodd" d="M3.75 17.25H14.25V18C14.25 19.2426 15.2574 20.25 16.5 20.25H21C22.2426 20.25 23.25 19.2426 23.25 18V9C23.25 7.75736 22.2426 6.75 21 6.75H19.5V6C19.5 5.40326 19.2629 4.83097 18.841 4.40901C18.419 3.98705 17.8467 3.75 17.25 3.75H3.75C3.15326 3.75 2.58097 3.98705 2.15901 4.40901C1.73705 4.83097 1.5 5.40326 1.5 6V15C1.5 15.5967 1.73705 16.169 2.15901 16.591C2.58097 17.0129 3.15326 17.25 3.75 17.25ZM3.75 5.25C3.55109 5.25 3.36032 5.32902 3.21967 5.46967C3.07902 5.61032 3 5.80109 3 6V15C3 15.1989 3.07902 15.3897 3.21967 15.5303C3.36032 15.671 3.55109 15.75 3.75 15.75H14.25V9C14.25 7.75736 15.2574 6.75 16.5 6.75H18V6C18 5.80109 17.921 5.61032 17.7803 5.46967C17.6397 5.32902 17.4489 5.25 17.25 5.25H3.75ZM21 8.25H16.5C16.0858 8.25 15.75 8.58579 15.75 9V18C15.75 18.4142 16.0858 18.75 16.5 18.75H21C21.4142 18.75 21.75 18.4142 21.75 18V9C21.75 8.58579 21.4142 8.25 21 8.25Z" fill="black"/>
<path d="M8.25 18.75C7.83579 18.75 7.5 19.0858 7.5 19.5C7.5 19.9142 7.83579 20.25 8.25 20.25H12C12.4142 20.25 12.75 19.9142 12.75 19.5C12.75 19.0858 12.4142 18.75 12 18.75H8.25Z" fill="black"/>
</svg>
