<svg width="24" height="18" viewBox="0 0 24 18" fill="none" xmlns="http://www.w3.org/2000/svg">
<path d="M18.2069 6.54545C17.7498 6.54545 17.3793 6.91177 17.3793 7.36364C17.3793 7.81551 17.7498 8.18182 18.2069 8.18182H19.8621C20.3191 8.18182 20.6897 7.81551 20.6897 7.36364C20.6897 6.91177 20.3191 6.54545 19.8621 6.54545H18.2069Z" fill="black"/>
<path fill-rule="evenodd" clip-rule="evenodd" d="M2.48276 14.7273H14.069V15.5455C14.069 16.9011 15.1805 18 16.5517 18H21.5172C22.8884 18 24 16.9011 24 15.5455V5.72727C24 4.37167 22.8884 3.27273 21.5172 3.27273H19.8621V2.45455C19.8621 1.80356 19.6005 1.17924 19.1349 0.71892C18.6693 0.258603 18.0378 0 17.3793 0H2.48276C1.82429 0 1.19279 0.258603 0.727183 0.71892C0.261575 1.17924 0 1.80356 0 2.45455V12.2727C0 12.9237 0.261576 13.548 0.727183 14.0084C1.19279 14.4687 1.82429 14.7273 2.48276 14.7273ZM2.48276 1.63636C2.26327 1.63636 2.05277 1.72256 1.89757 1.876C1.74236 2.02944 1.65517 2.23755 1.65517 2.45455V12.2727C1.65517 12.4897 1.74236 12.6978 1.89757 12.8513C2.05277 13.0047 2.26327 13.0909 2.48276 13.0909H14.069V5.72727C14.069 4.37167 15.1805 3.27273 16.5517 3.27273H18.2069V2.45455C18.2069 2.23755 18.1197 2.02944 17.9645 1.876C17.8093 1.72256 17.5988 1.63636 17.3793 1.63636H2.48276ZM21.5172 4.90909H16.5517C16.0947 4.90909 15.7241 5.2754 15.7241 5.72727V15.5455C15.7241 15.9973 16.0947 16.3636 16.5517 16.3636H21.5172C21.9743 16.3636 22.3448 15.9973 22.3448 15.5455V5.72727C22.3448 5.2754 21.9743 4.90909 21.5172 4.90909Z" fill="black"/>
<path d="M7.44828 16.3636C6.99121 16.3636 6.62069 16.7299 6.62069 17.1818C6.62069 17.6337 6.99121 18 7.44828 18H11.5862C12.0433 18 12.4138 17.6337 12.4138 17.1818C12.4138 16.7299 12.0433 16.3636 11.5862 16.3636H7.44828Z" fill="black"/>
</svg>
