<svg width="24" height="24" viewBox="0 0 24 24" fill="none" xmlns="http://www.w3.org/2000/svg">
<path fill-rule="evenodd" clip-rule="evenodd" d="M17.25 3.75C17.25 3.33579 16.9142 3 16.5 3H7.5C7.08579 3 6.75 3.33579 6.75 3.75V20.25C6.75 20.6642 7.08579 21 7.5 21H16.5C16.9142 21 17.25 20.6642 17.25 20.25V3.75ZM16.5 1.5C17.7426 1.5 18.75 2.50736 18.75 3.75V20.25C18.75 21.4926 17.7426 22.5 16.5 22.5H7.5C6.25736 22.5 5.25 21.4926 5.25 20.25V3.75C5.25 2.50736 6.25736 1.5 7.5 1.5H16.5Z" fill="black"/>
<path d="M12 6.5625C12.5178 6.5625 12.9375 6.14277 12.9375 5.625C12.9375 5.10723 12.5178 4.6875 12 4.6875C11.4822 4.6875 11.0625 5.10723 11.0625 5.625C11.0625 6.14277 11.4822 6.5625 12 6.5625Z" fill="black"/>
</svg>
