<svg width="24" height="24" viewBox="0 0 24 24" fill="none" xmlns="http://www.w3.org/2000/svg">
<path fill-rule="evenodd" clip-rule="evenodd" d="M3 4.5C2.58579 4.5 2.25 4.83579 2.25 5.25V18C2.25 18.3978 2.40804 18.7794 2.68934 19.0607C2.97065 19.342 3.35218 19.5 3.75 19.5H20.25C20.6478 19.5 21.0294 19.342 21.3107 19.0607C21.592 18.7794 21.75 18.3978 21.75 18V5.25C21.75 4.83579 21.4142 4.5 21 4.5H3ZM3.75 6.9551V18H20.25V6.95502L12.5068 14.053C12.22 14.3158 11.7799 14.3158 11.4932 14.053L3.75 6.9551ZM19.072 6H4.92792L12 12.4827L19.072 6Z" fill="black"/>
</svg>
