<svg width="24" height="24" viewBox="0 0 24 24" fill="none" xmlns="http://www.w3.org/2000/svg">
<path fill-rule="evenodd" clip-rule="evenodd" d="M12 3.75C7.44365 3.75 3.75 7.44365 3.75 12C3.75 16.3035 7.04513 19.8374 11.25 20.2164V14.25H9C8.58579 14.25 8.25 13.9142 8.25 13.5C8.25 13.0858 8.58579 12.75 9 12.75H11.25V10.5C11.25 9.70435 11.5661 8.94129 12.1287 8.37868C12.6913 7.81607 13.4544 7.5 14.25 7.5H15.75C16.1642 7.5 16.5 7.83579 16.5 8.25C16.5 8.66421 16.1642 9 15.75 9H14.25C13.8522 9 13.4706 9.15804 13.1893 9.43934C12.908 9.72064 12.75 10.1022 12.75 10.5V12.75H15C15.4142 12.75 15.75 13.0858 15.75 13.5C15.75 13.9142 15.4142 14.25 15 14.25H12.75V20.2164C16.9549 19.8374 20.25 16.3035 20.25 12C20.25 7.44365 16.5563 3.75 12 3.75ZM21.75 12C21.75 17.3848 17.3848 21.75 12 21.75C6.61522 21.75 2.25 17.3848 2.25 12C2.25 6.61522 6.61522 2.25 12 2.25C17.3848 2.25 21.75 6.61522 21.75 12Z" fill="black"/>
</svg>
