<svg width="24" height="24" viewBox="0 0 24 24" fill="none" xmlns="http://www.w3.org/2000/svg">
  <path d="M3 6.73614V17.2643C3.00114 17.3968 3.0378 17.5267 3.10616 17.6402C3.17451 17.7538 3.27206 17.847 3.38865 17.9101C3.50524 17.9732 3.63661 18.0038 3.76909 17.9989C3.90156 17.994 4.03029 17.9536 4.14187 17.8821L12.4097 12.618C12.5139 12.5521 12.5997 12.4608 12.6591 12.3528C12.7186 12.2448 12.7497 12.1235 12.7497 12.0002C12.7497 11.8769 12.7186 11.7556 12.6591 11.6476C12.5997 11.5396 12.5139 11.4483 12.4097 11.3824L4.14187 6.11833C4.03029 6.04676 3.90156 6.00641 3.76909 6.00149C3.63661 5.99656 3.50524 6.02724 3.38865 6.09032C3.27206 6.1534 3.17451 6.24659 3.10616 6.36017C3.0378 6.47375 3.00114 6.60358 3 6.73614Z" stroke="black" stroke-width="1.5" stroke-linecap="round" stroke-linejoin="round"/>
  <path d="M12.75 6.73614V17.2643C12.7511 17.3968 12.7878 17.5267 12.8562 17.6402C12.9245 17.7538 13.0221 17.847 13.1387 17.9101C13.2552 17.9732 13.3866 18.0038 13.5191 17.9989C13.6516 17.994 13.7803 17.9536 13.8919 17.8821L22.1597 12.618C22.2639 12.5521 22.3497 12.4608 22.4091 12.3528C22.4686 12.2448 22.4997 12.1235 22.4997 12.0002C22.4997 11.8769 22.4686 11.7556 22.4091 11.6476C22.3497 11.5396 22.2639 11.4483 22.1597 11.3824L13.8919 6.11833C13.7803 6.04676 13.6516 6.00641 13.5191 6.00149C13.3866 5.99656 13.2552 6.02724 13.1387 6.09032C13.0221 6.1534 12.9245 6.24659 12.8562 6.36017C12.7878 6.47375 12.7511 6.60358 12.75 6.73614Z" stroke="black" stroke-width="1.5" stroke-linecap="round" stroke-linejoin="round"/>
</svg>
