
<svg width="24" height="24" fill="none" xmlns="http://www.w3.org/2000/svg"><path d="M5.014 2.28a1.512 1.512 0 0 0-1.197 1.034c-.084.279-.084 17.093 0 17.372.16.525.615.929 1.162 1.03.331.062 13.711.062 14.042 0a1.508 1.508 0 0 0 1.162-1.03c.084-.277.085-12.544.001-12.737-.032-.075-1.22-1.289-2.83-2.894-2.311-2.304-2.797-2.769-2.909-2.79-.192-.036-9.183-.021-9.431.015m8.466 3.698c0 1.449.015 2.289.044 2.421a.722.722 0 0 0 .414.526c.151.068.318.073 2.492.074L18.76 9v11.24H5.24V3.76h8.24v2.218m4.16 1.512c0 .016-.594.03-1.32.03H15v-2.7l1.32 1.32c.726.726 1.32 1.333 1.32 1.35" fill-rule="evenodd" fill="#000"/></svg>