<svg width="24" height="24" fill="none" xmlns="http://www.w3.org/2000/svg"><path d="M3.34 3.814a1.459 1.459 0 0 0-.666.413c-.226.235-.333.44-.39.752-.063.338-.062 13.774.001 14.069.113.535.516.979 1.029 1.135.279.084 17.093.084 17.372 0 .525-.16.929-.615 1.03-1.162.062-.331.062-13.711 0-14.042a1.366 1.366 0 0 0-.423-.784 1.511 1.511 0 0 0-.673-.393c-.239-.062-17.065-.05-17.28.012M6.76 6v.76h-3V5.24h3V6m4.48 0v.76h-3V5.24h3V6m4.52 0v.76h-3V5.24h3V6m4.48 0v.76h-3V5.24h3V6m-9 6v3.76H3.76V8.24h7.48V12m9 0v3.76h-7.48V8.24h7.48V12M6.76 18v.76h-3v-1.52h3V18m4.48 0v.76h-3v-1.52h3V18m4.52 0v.76h-3v-1.52h3V18m4.48 0v.76h-3v-1.52h3V18" fill-rule="evenodd" fill="#000"/></svg>