<svg width="24" height="24" viewBox="0 0 24 24" fill="none" xmlns="http://www.w3.org/2000/svg">
  <path fill-rule="evenodd" clip-rule="evenodd" d="M3.25879 3.93346C4.91202 2.5016 6.52715 2.1054 8.10449 2.29381C9.61545 2.47434 11.0472 3.19163 12.333 3.82799C13.6719 4.49062 14.8657 5.07238 16.0732 5.21666C17.2145 5.35296 18.4123 5.09953 19.7588 3.93346C19.9807 3.74125 20.2945 3.69623 20.5615 3.81822C20.8284 3.94026 21 4.20641 21 4.49987V15.7499C20.9999 15.9674 20.9056 16.1748 20.7412 16.3172C19.0881 17.749 17.4728 18.1443 15.8955 17.9559C14.3846 17.7754 12.9528 17.0581 11.667 16.4217C10.3281 15.7591 9.13429 15.1774 7.92676 15.0331C6.85904 14.9055 5.74216 15.1194 4.5 16.1024V20.2499C4.49993 20.664 4.16417 20.9999 3.75 20.9999C3.33583 20.9999 3.00007 20.664 3 20.2499V4.49987C3 4.48547 3.00115 4.47109 3.00195 4.4569C3.00229 4.45103 3.00245 4.44517 3.00293 4.43932C3.00594 4.40155 3.01308 4.36495 3.02148 4.32897C3.0273 4.30416 3.03463 4.27991 3.04297 4.25572C3.05133 4.23149 3.05961 4.20747 3.07031 4.18444C3.07839 4.16702 3.08819 4.15051 3.09766 4.13365C3.11186 4.10841 3.12662 4.08374 3.14355 4.06041C3.17661 4.0149 3.21448 3.97188 3.25879 3.93346ZM7.92676 3.78307C6.85904 3.65552 5.74216 3.8694 4.5 4.8524V14.2919C5.72276 13.5892 6.92418 13.4028 8.10449 13.5438C9.61545 13.7243 11.0472 14.4416 12.333 15.078C13.6719 15.7406 14.8657 16.3224 16.0732 16.4667C17.1409 16.5942 18.2579 16.3803 19.5 15.3973V5.95787C18.2772 6.6606 17.0759 6.84689 15.8955 6.70592C14.3846 6.52542 12.9528 5.80809 11.667 5.17174C10.3281 4.50911 9.13429 3.92738 7.92676 3.78307Z" fill="black"/>
</svg>
