<svg width="24" height="24" viewBox="0 0 24 24" fill="none" xmlns="http://www.w3.org/2000/svg">
  <path fillRule="evenodd" clipRule="evenodd" d="M18.9697 3.96967C19.2626 3.67678 19.7374 3.67678 20.0303 3.96967L23.0217 6.96105C23.1625 7.09739 23.25 7.28841 23.25 7.49987C23.25 7.58706 23.2351 7.67077 23.2078 7.74861C23.1717 7.85149 23.1126 7.94809 23.0303 8.03033L20.0303 11.0303C19.7374 11.3232 19.2626 11.3232 18.9697 11.0303C18.6768 10.7374 18.6768 10.2626 18.9697 9.96967L20.7344 8.20498C20.6318 8.20146 20.5297 8.19809 20.4283 8.19501C19.7318 8.17382 19.0484 8.1653 18.3867 8.20999C17.0602 8.29956 15.8986 8.5988 14.9795 9.363C14.1846 10.024 13.8754 10.921 13.5421 12.0583C13.5235 12.1216 13.5049 12.1858 13.486 12.2508C13.1829 13.2946 12.8197 14.5456 11.8389 15.5294C10.917 16.4541 9.82114 16.8794 8.98064 17.0761C8.68127 17.1461 8.40947 17.1883 8.18218 17.2136C7.84892 18.9434 6.32705 20.25 4.5 20.25C2.42893 20.25 0.75 18.5711 0.75 16.5C0.75 14.4289 2.42893 12.75 4.5 12.75C6.29794 12.75 7.80035 14.0153 8.16535 15.704C8.30752 15.684 8.46732 15.6556 8.63896 15.6155C9.30628 15.4594 10.1143 15.1347 10.7766 14.4704C11.4794 13.7654 11.745 12.8581 12.0762 11.7267C12.085 11.6968 12.0938 11.6668 12.1026 11.6366C12.4295 10.521 12.8348 9.19553 14.0205 8.20961C15.2868 7.15675 16.8141 6.81277 18.2857 6.71339C19.0231 6.6636 19.766 6.67417 20.4739 6.6957C20.5297 6.6974 20.5852 6.69916 20.6403 6.70096L18.9697 5.03033C18.6768 4.73744 18.6768 4.26256 18.9697 3.96967ZM6.75 16.4994C6.74969 15.257 5.74245 14.25 4.5 14.25C3.25736 14.25 2.25 15.2574 2.25 16.5C2.25 17.7426 3.25736 18.75 4.5 18.75C5.74264 18.75 6.75 17.7421 6.75 16.4994C6.75 16.4996 6.75 16.4992 6.75 16.4994Z"/>
</svg>
