<svg width="24" height="24" viewBox="0 0 24 24" fill="none" xmlns="http://www.w3.org/2000/svg">
<path d="M3.75 4.5C3.35217 4.5 2.97064 4.65804 2.68934 4.93934C2.40804 5.22064 2.25 5.60217 2.25 6V18.75C2.25 19.1478 2.40804 19.5294 2.68934 19.8107C2.97065 20.092 3.35218 20.25 3.75 20.25H11.25C11.6642 20.25 12 19.9142 12 19.5C12 19.0858 11.6642 18.75 11.25 18.75H3.75L3.75 6L8.74969 6L11.3503 7.95C11.6099 8.1447 11.9258 8.25 12.2503 8.25H20.25V11.25C20.25 11.6642 20.5858 12 21 12C21.4142 12 21.75 11.6642 21.75 11.25V8.25C21.75 7.85218 21.592 7.47065 21.3107 7.18934C21.0294 6.90804 20.6478 6.75 20.25 6.75H12.2503L9.64969 4.8C9.39006 4.6053 9.07421 4.5 8.74969 4.5H3.75Z" fill="black"/>
<path fill-rule="evenodd" clip-rule="evenodd" d="M15 16.5C15 14.8431 16.3431 13.5 18 13.5C19.6569 13.5 21 14.8431 21 16.5C21 17.3283 20.6643 18.0783 20.1215 18.6212C20.8996 19.123 21.482 19.8946 21.7247 20.8072C21.8312 21.2075 21.593 21.6184 21.1927 21.7248C20.7924 21.8313 20.3816 21.5931 20.2751 21.1928C20.02 20.2334 19.1098 19.5 17.9999 19.5C16.8901 19.5 15.9799 20.2334 15.7247 21.1928C15.6183 21.5931 15.2075 21.8313 14.8072 21.7248C14.4069 21.6184 14.1687 21.2075 14.2751 20.8072C14.5179 19.8946 15.1003 19.123 15.8785 18.6211C15.3357 18.0782 15 17.3283 15 16.5ZM18 15C17.1716 15 16.5 15.6716 16.5 16.5C16.5 17.3284 17.1716 18 18 18C18.8284 18 19.5 17.3284 19.5 16.5C19.5 15.6716 18.8284 15 18 15Z" fill="black"/>
</svg>
