<svg width="24" height="24" fill="none" xmlns="http://www.w3.org/2000/svg"><path d="M3.34 3.816c-.446.142-.826.487-.983.894-.175.452-.1 1.03.182 1.41.073.099 1.557 1.697 3.296 3.552l3.163 3.372.011 3.789.011 3.789.131.266c.164.333.479.631.799.756.307.12.784.124 1.07.01.296-.118 3.41-2.208 3.595-2.413a1.95 1.95 0 0 0 .26-.396l.105-.225.011-2.787.011-2.787 3.163-3.373c1.74-1.855 3.221-3.452 3.293-3.548.294-.396.367-.956.186-1.416a1.65 1.65 0 0 0-.773-.813l-.251-.116-8.56-.008c-6.837-.006-8.592.003-8.72.044M20.114 5.39c-1.22 1.287-6.148 6.573-6.285 6.741-.338.415-.324.283-.34 3.394l-.013 2.745-1.478.985-1.478.985v-3.57c0-2.25-.016-3.666-.042-3.83a1.92 1.92 0 0 0-.138-.46c-.071-.147-.919-1.079-3.222-3.54-1.72-1.837-3.182-3.399-3.25-3.47l-.124-.13h16.512l-.142.15" fill-rule="evenodd" fill="#000"/></svg>
