<svg width="18" height="20" viewBox="0 0 18 20" fill="none" xmlns="http://www.w3.org/2000/svg">
<path fill-rule="evenodd" clip-rule="evenodd" d="M3 0C4.65685 0 6 1.34315 6 3C6 4.19782 5.29628 5.22806 4.28125 5.70898L6.75 9L6.88574 9.1709C7.21349 9.55867 7.61777 9.87673 8.07324 10.1045C8.59385 10.3647 9.16798 10.5 9.75 10.5H12.0977C12.431 9.20646 13.6024 8.25 15 8.25C16.6569 8.25 18 9.59315 18 11.25C18 12.9069 16.6569 14.25 15 14.25C13.6024 14.25 12.431 13.2935 12.0977 12H9.75C8.93496 12 8.13133 11.8098 7.40234 11.4453C6.67347 11.0808 6.03878 10.5523 5.5498 9.90039L3.75 7.5V13.5977C5.04354 13.931 6 15.1024 6 16.5C6 18.1569 4.65685 19.5 3 19.5C1.34315 19.5 0 18.1569 0 16.5C0 15.1024 0.956465 13.931 2.25 13.5977V5.90137C0.956585 5.56799 0 4.39752 0 3C0 1.34315 1.34315 0 3 0ZM3 15C2.17157 15 1.5 15.6716 1.5 16.5C1.5 17.3284 2.17157 18 3 18C3.82843 18 4.5 17.3284 4.5 16.5C4.5 15.6716 3.82843 15 3 15ZM15 9.75C14.1716 9.75 13.5 10.4216 13.5 11.25C13.5 12.0784 14.1716 12.75 15 12.75C15.8284 12.75 16.5 12.0784 16.5 11.25C16.5 10.4216 15.8284 9.75 15 9.75ZM3 1.5C2.17157 1.5 1.5 2.17157 1.5 3C1.5 3.82843 2.17157 4.5 3 4.5C3.82843 4.5 4.5 3.82843 4.5 3C4.5 2.17157 3.82843 1.5 3 1.5Z" fill="black"/>
</svg>
