<svg width="24" height="24" viewBox="0 0 24 24" fill="none" xmlns="http://www.w3.org/2000/svg">
<path d="M3.75 4.5C3.75 4.08579 3.41421 3.75 3 3.75C2.58579 3.75 2.25 4.08579 2.25 4.5V19.5C2.25 19.9142 2.58579 20.25 3 20.25H21C21.4142 20.25 21.75 19.9142 21.75 19.5C21.75 19.0858 21.4142 18.75 21 18.75H3.75V15.3403L9.03637 10.7148L14.55 14.85C14.8335 15.0626 15.2272 15.0478 15.4939 14.8144L21.4939 9.56444C21.8056 9.29168 21.8372 8.81786 21.5644 8.50613C21.2917 8.1944 20.8179 8.16282 20.5061 8.43558L14.9637 13.2852L9.45001 9.15001C9.1665 8.93737 8.77284 8.95221 8.50613 9.18558L3.75 13.3472V4.5Z" fill="black"/>
</svg>
