<svg width="24" height="24" viewBox="0 0 24 24" fill="none" xmlns="http://www.w3.org/2000/svg">
<path fill-rule="evenodd" clip-rule="evenodd" d="M17.2378 3.88429C17.3119 3.47676 17.0416 3.08632 16.6341 3.01223C16.2265 2.93813 15.8361 3.20843 15.762 3.61597L14.9194 8.25H10.444L11.2378 3.88429C11.3119 3.47676 11.0416 3.08632 10.6341 3.01223C10.2265 2.93813 9.83608 3.20843 9.76198 3.61597L8.91943 8.25H4.5C4.08579 8.25 3.75 8.58579 3.75 9C3.75 9.41421 4.08579 9.75 4.5 9.75H8.6467L7.82852 14.25H3C2.58579 14.25 2.25 14.5858 2.25 15C2.25 15.4142 2.58579 15.75 3 15.75H7.5558L6.76198 20.116C6.68789 20.5235 6.95819 20.9139 7.36572 20.988C7.77325 21.0621 8.16369 20.7918 8.23779 20.3843L9.08039 15.75H13.5558L12.762 20.116C12.6879 20.5235 12.9582 20.9139 13.3657 20.988C13.7733 21.0621 14.1637 20.7918 14.2378 20.3843L15.0804 15.75H19.5C19.9142 15.75 20.25 15.4142 20.25 15C20.25 14.5858 19.9142 14.25 19.5 14.25H15.3531L16.1713 9.75H21C21.4142 9.75 21.75 9.41421 21.75 9C21.75 8.58579 21.4142 8.25 21 8.25H16.444L17.2378 3.88429ZM13.8285 14.25L14.6467 9.75H10.1713L9.35311 14.25H13.8285Z" fill="black"/>
</svg>
