<svg width="24" height="24" viewBox="0 0 24 24" fill="none" xmlns="http://www.w3.org/2000/svg">
<path d="M11.625 8.8125C12.1428 8.8125 12.5625 8.39277 12.5625 7.875C12.5625 7.35723 12.1428 6.9375 11.625 6.9375C11.1072 6.9375 10.6875 7.35723 10.6875 7.875C10.6875 8.39277 11.1072 8.8125 11.625 8.8125Z" fill="black"/>
<path d="M10.5 11.25C10.5 10.8358 10.8358 10.5 11.25 10.5C11.6478 10.5 12.0294 10.658 12.3107 10.9393C12.592 11.2206 12.75 11.6022 12.75 12V15.75C13.1642 15.75 13.5 16.0858 13.5 16.5C13.5 16.9142 13.1642 17.25 12.75 17.25C12.3522 17.25 11.9706 17.092 11.6893 16.8107C11.408 16.5294 11.25 16.1478 11.25 15.75V12C10.8358 12 10.5 11.6642 10.5 11.25Z" fill="black"/>
<path fill-rule="evenodd" clip-rule="evenodd" d="M12 2.25C6.61522 2.25 2.25 6.61522 2.25 12C2.25 17.3848 6.61522 21.75 12 21.75C17.3848 21.75 21.75 17.3848 21.75 12C21.75 6.61522 17.3848 2.25 12 2.25ZM3.75 12C3.75 7.44365 7.44365 3.75 12 3.75C16.5563 3.75 20.25 7.44365 20.25 12C20.25 16.5563 16.5563 20.25 12 20.25C7.44365 20.25 3.75 16.5563 3.75 12Z" fill="black"/>
</svg>
