<svg width="24" height="24" viewBox="0 0 24 24" fill="none" xmlns="http://www.w3.org/2000/svg">
<path d="M6.75 9.75C6.75 9.33579 7.08579 9 7.5 9H16.5C16.9142 9 17.25 9.33579 17.25 9.75C17.25 10.1642 16.9142 10.5 16.5 10.5H7.5C7.08579 10.5 6.75 10.1642 6.75 9.75Z" fill="black"/>
<path d="M6.75 12.75C6.75 12.3358 7.08579 12 7.5 12H16.5C16.9142 12 17.25 12.3358 17.25 12.75C17.25 13.1642 16.9142 13.5 16.5 13.5H7.5C7.08579 13.5 6.75 13.1642 6.75 12.75Z" fill="black"/>
<path fill-rule="evenodd" clip-rule="evenodd" d="M3.75 3.75C3.35217 3.75 2.97064 3.90804 2.68934 4.18934C2.40804 4.47064 2.25 4.85217 2.25 5.25V19.5C2.25 19.7599 2.38459 20.0013 2.6057 20.138C2.82681 20.2746 3.10292 20.2871 3.33541 20.1708L6 18.8385L8.66459 20.1708C8.87574 20.2764 9.12426 20.2764 9.33541 20.1708L12 18.8385L14.6646 20.1708C14.8757 20.2764 15.1243 20.2764 15.3354 20.1708L18 18.8385L20.6646 20.1708C20.8971 20.2871 21.1732 20.2746 21.3943 20.138C21.6154 20.0013 21.75 19.7599 21.75 19.5V5.25C21.75 4.85218 21.592 4.47065 21.3107 4.18934C21.0294 3.90804 20.6478 3.75 20.25 3.75H3.75ZM3.75 5.25L20.25 5.25V18.2865L18.3354 17.3292C18.1243 17.2236 17.8757 17.2236 17.6646 17.3292L15 18.6615L12.3354 17.3292C12.1243 17.2236 11.8757 17.2236 11.6646 17.3292L9 18.6615L6.33541 17.3292C6.12426 17.2236 5.87574 17.2236 5.66459 17.3292L3.75 18.2865L3.75 5.25Z" fill="black"/>
</svg>
