<svg width="24" height="24" viewBox="0 0 24 24" fill="none" xmlns="http://www.w3.org/2000/svg">
<path d="M17.8125 7.125C17.8125 7.64277 17.3928 8.0625 16.875 8.0625C16.3572 8.0625 15.9375 7.64277 15.9375 7.125C15.9375 6.60723 16.3572 6.1875 16.875 6.1875C17.3928 6.1875 17.8125 6.60723 17.8125 7.125Z" fill="black"/>
<path fill-rule="evenodd" clip-rule="evenodd" d="M15.7546 1.53916C14.0354 1.36504 12.3087 1.78997 10.8666 2.74211C9.42448 3.69425 8.35541 5.11517 7.84013 6.76463C7.37496 8.2537 7.38688 9.84653 7.86716 11.3221L2.46967 16.7196C2.32902 16.8603 2.25 17.051 2.25 17.2499V20.9999C2.25 21.4142 2.58579 21.7499 3 21.7499H6.75C7.16421 21.7499 7.5 21.4142 7.5 20.9999V19.4999H9C9.41421 19.4999 9.75 19.1642 9.75 18.7499V17.2499H11.25C11.4489 17.2499 11.6397 17.1709 11.7803 17.0303L12.6778 16.1328C14.1534 16.6131 15.7462 16.625 17.2353 16.1598C18.8848 15.6445 20.3057 14.5755 21.2578 13.1334C22.21 11.6913 22.6349 9.96459 22.4608 8.24531C22.2867 6.52603 21.5242 4.91962 20.3023 3.69769C19.0803 2.47576 17.4739 1.71327 15.7546 1.53916ZM11.6931 3.99389C12.8467 3.23218 14.2281 2.89223 15.6035 3.03152C16.9789 3.17082 18.264 3.7808 19.2416 4.75835C20.2191 5.73589 20.8291 7.02102 20.9684 8.39645C21.1077 9.77187 20.7678 11.1532 20.0061 12.3069C19.2443 13.4606 18.1076 14.3158 16.788 14.728C15.4685 15.1403 14.047 15.0842 12.7641 14.5692C12.4853 14.4574 12.1667 14.5225 11.9544 14.7349L10.9393 15.7499H9C8.58579 15.7499 8.25 16.0857 8.25 16.4999V17.9999H6.75C6.33579 17.9999 6 18.3357 6 18.7499V20.2499H3.75V17.5606L9.26502 12.0456C9.47739 11.8332 9.54259 11.5146 9.43072 11.2359C8.91577 9.95291 8.85967 8.53148 9.27189 7.21191C9.68412 5.89234 10.5394 4.7556 11.6931 3.99389Z" fill="black"/>
</svg>
