<svg width="24" height="24" viewBox="0 0 24 24" fill="none" xmlns="http://www.w3.org/2000/svg">
<path fill-rule="evenodd" clip-rule="evenodd" d="M12.0027 6.75C10.3909 6.75 8.93073 7.81239 8.4347 9.34594C8.00085 10.6873 8.37601 12.1685 9.35113 13.1503L8.33031 15.7086C8.03822 16.442 8.58432 17.2487 9.37375 17.2499H14.626C15.4154 17.2487 15.9614 16.442 15.6695 15.7086L14.6536 13.1509C15.6292 12.1691 16.0047 10.6876 15.5707 9.34594C15.0747 7.81239 13.6145 6.75 12.0027 6.75ZM9.86191 9.80757C10.1577 8.89301 11.0415 8.25 12.0027 8.25C12.9639 8.25 13.8477 8.89301 14.1435 9.80757C14.4393 10.7221 14.0995 11.7609 13.3204 12.3238C13.042 12.5249 12.9358 12.8894 13.0625 13.2086L14.0719 15.7499H9.92885L10.9424 13.2097C11.0699 12.8903 10.9638 12.5252 10.6851 12.3238C9.90592 11.7609 9.5661 10.7221 9.86191 9.80757Z" fill="black"/>
<path fill-rule="evenodd" clip-rule="evenodd" d="M12 2.25C6.61522 2.25 2.25 6.61522 2.25 12C2.25 17.3848 6.61522 21.75 12 21.75C17.3848 21.75 21.75 17.3848 21.75 12C21.75 6.61522 17.3848 2.25 12 2.25ZM3.75 12C3.75 7.44365 7.44365 3.75 12 3.75C16.5563 3.75 20.25 7.44365 20.25 12C20.25 16.5563 16.5563 20.25 12 20.25C7.44365 20.25 3.75 16.5563 3.75 12Z" fill="black"/>
</svg>
