<svg width="24" height="24" viewBox="0 0 24 24" fill="none" xmlns="http://www.w3.org/2000/svg">
<path d="M16.5 6C15.6716 6 15 6.67157 15 7.5C15 8.32843 15.6716 9 16.5 9C17.3284 9 18 8.32843 18 7.5C18 6.67157 17.3284 6 16.5 6Z" fill="black"/>
<path fill-rule="evenodd" clip-rule="evenodd" d="M9.5 4V5.25H12.602C13.3801 3.90495 14.8344 3 16.5 3C18.9853 3 21 5.01472 21 7.5C21 9.98528 18.9853 12 16.5 12C14.8344 12 13.3801 11.0951 12.602 9.75H3.5C2.67157 9.75 2 9.07843 2 8.25V6.75C2 5.92157 2.67157 5.25 3.5 5.25H5V4C5 3.17157 5.67157 2.5 6.5 2.5H8C8.82843 2.5 9.5 3.17157 9.5 4ZM13.9004 8.99891L13.4672 8.25H3.5V6.75H6.5V4H8V6.75H13.4672L13.9004 6.00109C14.4214 5.10047 15.3915 4.5 16.5 4.5C18.1569 4.5 19.5 5.84315 19.5 7.5C19.5 9.15685 18.1569 10.5 16.5 10.5C15.3915 10.5 14.4214 9.89953 13.9004 8.99891Z" fill="black"/>
<path d="M8 16.5C8 17.3284 7.32843 18 6.5 18C5.67157 18 5 17.3284 5 16.5C5 15.6716 5.67157 15 6.5 15C7.32843 15 8 15.6716 8 16.5Z" fill="black"/>
<path fill-rule="evenodd" clip-rule="evenodd" d="M13.5 20V18.75H10.398C9.61991 20.0951 8.16564 21 6.5 21C4.01472 21 2 18.9853 2 16.5C2 14.0147 4.01472 12 6.5 12C8.16564 12 9.61991 12.9049 10.398 14.25H19.5C20.3284 14.25 21 14.9216 21 15.75V17.25C21 18.0784 20.3284 18.75 19.5 18.75H18V20C18 20.8284 17.3284 21.5 16.5 21.5H15C14.1716 21.5 13.5 20.8284 13.5 20ZM9.09957 15.0011L9.53279 15.75H19.5V17.25H16.5V20H15V17.25H9.53279L9.09957 17.9989C8.57859 18.8995 7.60853 19.5 6.5 19.5C4.84315 19.5 3.5 18.1569 3.5 16.5C3.5 14.8431 4.84315 13.5 6.5 13.5C7.60853 13.5 8.57859 14.1005 9.09957 15.0011Z" fill="black"/>
</svg>
