<svg width="24" height="24" viewBox="0 0 24 24" fill="none" xmlns="http://www.w3.org/2000/svg">
<path fill-rule="evenodd" clip-rule="evenodd" d="M2.68934 4.93934C2.97064 4.65804 3.35217 4.5 3.75 4.5H17.5988C17.8454 4.50015 18.0888 4.56114 18.3062 4.67757C18.5237 4.79401 18.7092 4.96229 18.8461 5.1675L23.124 11.584C23.292 11.8359 23.292 12.1641 23.124 12.416L18.8462 18.8323C18.7093 19.0375 18.5237 19.206 18.3062 19.3224C18.0887 19.4389 17.8459 19.4999 17.5992 19.5H3.75C3.35218 19.5 2.97065 19.342 2.68934 19.0607C2.40804 18.7794 2.25 18.3978 2.25 18V6C2.25 5.60217 2.40804 5.22064 2.68934 4.93934ZM17.5983 6L3.75 6L3.75 18H17.5983L21.5986 12L17.5983 6Z" fill="black"/>
</svg>
