<svg width="24" height="24" viewBox="0 0 24 24" fill="none" xmlns="http://www.w3.org/2000/svg">
<path fill-rule="evenodd" clip-rule="evenodd" d="M8 3.5C8 2.67157 8.67157 2 9.5 2H14.5C15.3284 2 16 2.67157 16 3.5V7.5C16 8.32843 15.3284 9 14.5 9H12.75V11.25H16.5C17.7426 11.25 18.75 12.2574 18.75 13.5V15H20.5C21.3284 15 22 15.6716 22 16.5V20.5C22 21.3284 21.3284 22 20.5 22H15.5C14.6716 22 14 21.3284 14 20.5V16.5C14 15.6716 14.6716 15 15.5 15H17.25V13.5C17.25 13.0858 16.9142 12.75 16.5 12.75H7.5C7.08579 12.75 6.75 13.0858 6.75 13.5V15H8.5C9.32843 15 10 15.6716 10 16.5V20.5C10 21.3284 9.32843 22 8.5 22H3.5C2.67157 22 2 21.3284 2 20.5V16.5C2 15.6716 2.67157 15 3.5 15H5.25V13.5C5.25 12.2574 6.25736 11.25 7.5 11.25H11.25V9H9.5C8.67157 9 8 8.32843 8 7.5V3.5ZM9.5 3.5H14.5V7.5H9.5V3.5ZM3.5 16.5H8.5V20.5H3.5V16.5ZM15.5 16.5H20.5V20.5H15.5V16.5Z" fill="black"/>
</svg>
