<svg width="24" height="24" viewBox="0 0 24 24" fill="none" xmlns="http://www.w3.org/2000/svg">
<path d="M10.5 7.5C10.0858 7.5 9.75 7.83579 9.75 8.25C9.75 8.66421 10.0858 9 10.5 9H13.5C13.9142 9 14.25 8.66421 14.25 8.25C14.25 7.83579 13.9142 7.5 13.5 7.5H10.5Z" fill="black"/>
<path fill-rule="evenodd" clip-rule="evenodd" d="M3 6.75V15.75H2.25C1.83579 15.75 1.5 16.0858 1.5 16.5V18C1.5 18.5967 1.73705 19.169 2.15901 19.591C2.58097 20.0129 3.15326 20.25 3.75 20.25H20.25C20.8467 20.25 21.419 20.0129 21.841 19.591C22.2629 19.169 22.5 18.5967 22.5 18V16.5C22.5 16.0858 22.1642 15.75 21.75 15.75H21V6.75C21 6.15326 20.7629 5.58097 20.341 5.15901C19.919 4.73705 19.3467 4.5 18.75 4.5H5.25C4.65326 4.5 4.08097 4.73705 3.65901 5.15901C3.23705 5.58097 3 6.15326 3 6.75ZM5.25 6C5.05109 6 4.86032 6.07902 4.71967 6.21967C4.57902 6.36032 4.5 6.55109 4.5 6.75V15.75H19.5V6.75C19.5 6.55109 19.421 6.36032 19.2803 6.21967C19.1397 6.07902 18.9489 6 18.75 6H5.25ZM21 17.25V18C21 18.1989 20.921 18.3897 20.7803 18.5303C20.6397 18.671 20.4489 18.75 20.25 18.75H3.75C3.55109 18.75 3.36032 18.671 3.21967 18.5303C3.07902 18.3897 3 18.1989 3 18V17.25H21Z" fill="black"/>
</svg>
