<svg width="24" height="24" fill="none" xmlns="http://www.w3.org/2000/svg"><path d="M17.617 3.283c-.585.069-1.098.328-1.552.781a2.671 2.671 0 0 0-.692 1.116c-.089.27-.106.395-.109.8-.003.55.078.889.322 1.337l.14.257-4.077 4.077-4.077 4.077-.218-.124c-.835-.471-1.952-.454-2.779.041-.304.182-.761.645-.946.959a3.58 3.58 0 0 0-.257.576c-.091.277-.105.387-.105.82 0 .433.014.543.105.82.146.44.357.781.692 1.116.335.335.676.546 1.116.692.277.091.387.105.82.105.433 0 .543-.014.82-.105.44-.146.781-.357 1.116-.692.336-.336.547-.676.691-1.116.089-.27.106-.395.109-.8.003-.55-.078-.889-.322-1.337l-.14-.257 4.076-4.076 4.076-4.076.257.14c.448.244.787.325 1.337.322.405-.003.53-.02.8-.109.44-.144.78-.355 1.116-.691.335-.335.546-.676.692-1.116.091-.277.105-.387.105-.82 0-.432-.014-.543-.105-.82-.425-1.294-1.642-2.06-3.011-1.897m.883 1.045c.395.098.857.494 1.069.915.218.432.218 1.077.001 1.517-.145.293-.547.696-.817.819a1.804 1.804 0 0 1-1.023.143 1.57 1.57 0 0 1-.943-.491c-.297-.301-.452-.597-.503-.961-.082-.585.081-1.076.496-1.49.469-.47 1.043-.621 1.72-.452m-12 12c.395.098.857.494 1.069.915.218.432.218 1.077.001 1.517-.145.293-.547.696-.817.819a1.804 1.804 0 0 1-1.023.143 1.57 1.57 0 0 1-.943-.491c-.297-.301-.452-.597-.503-.961-.082-.585.081-1.076.496-1.49.469-.47 1.043-.621 1.72-.452" fillRule="evenodd" fill="#000"/></svg>
