<svg width="24" height="24" viewBox="0 0 24 24" fill="none" xmlns="http://www.w3.org/2000/svg">
<path fill-rule="evenodd" clip-rule="evenodd" d="M16.4759 8.58455C16.9225 8.84852 17.4436 9 18 9C19.6569 9 21 7.65685 21 6C21 4.34315 19.6569 3 18 3C16.3431 3 15 4.34315 15 6C15 6.5563 15.1514 7.07723 15.4153 7.52383L7.52383 15.4153C7.07723 15.1514 6.5563 15 6 15C4.34315 15 3 16.3431 3 18C3 19.6569 4.34315 21 6 21C7.65685 21 9 19.6569 9 18C9 17.4436 8.84852 16.9225 8.58455 16.4759L16.4759 8.58455ZM18 4.5C17.1716 4.5 16.5 5.17157 16.5 6C16.5 6.41105 16.6653 6.78348 16.9331 7.05442C16.9352 7.05643 16.9372 7.05845 16.9393 7.06049C16.9413 7.06255 16.9434 7.06463 16.9454 7.06671C17.2164 7.3346 17.5889 7.5 18 7.5C18.8284 7.5 19.5 6.82843 19.5 6C19.5 5.17157 18.8284 4.5 18 4.5ZM7.05442 16.9331C7.05643 16.9352 7.05845 16.9372 7.06049 16.9393C7.06255 16.9413 7.06463 16.9434 7.06671 16.9454C7.3346 17.2164 7.5 17.5889 7.5 18C7.5 18.8284 6.82843 19.5 6 19.5C5.17157 19.5 4.5 18.8284 4.5 18C4.5 17.1716 5.17157 16.5 6 16.5C6.41105 16.5 6.78348 16.6653 7.05442 16.9331Z" fill="black"/>
</svg>
