<svg width="24" height="24" viewBox="0 0 24 24" fill="none" xmlns="http://www.w3.org/2000/svg">
<path d="M11.25 9.75C11.6063 9.75 11.9046 9.99844 11.981 10.3315C12.5359 9.95528 13.1949 9.75 13.875 9.75C14.7701 9.75 15.6286 10.1056 16.2615 10.7385C16.8944 11.3715 17.25 12.2299 17.25 13.125V16.5C17.25 16.9142 16.9142 17.25 16.5 17.25C16.0858 17.25 15.75 16.9142 15.75 16.5V13.125C15.75 12.6277 15.5525 12.1508 15.2008 11.7992C14.8492 11.4475 14.3723 11.25 13.875 11.25C13.3777 11.25 12.9008 11.4475 12.5492 11.7992C12.1975 12.1508 12 12.6277 12 13.125V16.5C12 16.9142 11.6642 17.25 11.25 17.25C10.8358 17.25 10.5 16.9142 10.5 16.5V10.5C10.5 10.0858 10.8358 9.75 11.25 9.75Z" fill="black"/>
<path d="M9 10.5C9 10.0858 8.66421 9.75 8.25 9.75C7.83579 9.75 7.5 10.0858 7.5 10.5V16.5C7.5 16.9142 7.83579 17.25 8.25 17.25C8.66421 17.25 9 16.9142 9 16.5V10.5Z" fill="black"/>
<path d="M9.1875 7.875C9.1875 8.39277 8.76777 8.8125 8.25 8.8125C7.73223 8.8125 7.3125 8.39277 7.3125 7.875C7.3125 7.35723 7.73223 6.9375 8.25 6.9375C8.76777 6.9375 9.1875 7.35723 9.1875 7.875Z" fill="black"/>
<path fill-rule="evenodd" clip-rule="evenodd" d="M2.25 3.75C2.25 2.92157 2.92157 2.25 3.75 2.25H20.25C21.0784 2.25 21.75 2.92157 21.75 3.75V20.25C21.75 21.0784 21.0784 21.75 20.25 21.75H3.75C2.92157 21.75 2.25 21.0784 2.25 20.25V3.75ZM20.25 3.75H3.75V20.25H20.25V3.75Z" fill="black"/>
</svg>
