<svg width="24" height="24" viewBox="0 0 24 24" fill="none" xmlns="http://www.w3.org/2000/svg">
<path d="M8.78033 5.03033C9.07322 4.73744 9.07322 4.26256 8.78033 3.96967C8.48744 3.67678 8.01256 3.67678 7.71967 3.96967L5.25 6.43934L4.28033 5.46967C3.98744 5.17678 3.51256 5.17678 3.21967 5.46967C2.92678 5.76256 2.92678 6.23744 3.21967 6.53033L4.71967 8.03033C5.01256 8.32322 5.48744 8.32322 5.78033 8.03033L8.78033 5.03033Z" fill="black"/>
<path d="M12 5.25C11.5858 5.25 11.25 5.58579 11.25 6C11.25 6.41421 11.5858 6.75 12 6.75H20.25C20.6642 6.75 21 6.41421 21 6C21 5.58579 20.6642 5.25 20.25 5.25H12Z" fill="black"/>
<path d="M12 11.25C11.5858 11.25 11.25 11.5858 11.25 12C11.25 12.4142 11.5858 12.75 12 12.75H20.25C20.6642 12.75 21 12.4142 21 12C21 11.5858 20.6642 11.25 20.25 11.25H12Z" fill="black"/>
<path d="M11.25 18C11.25 17.5858 11.5858 17.25 12 17.25H20.25C20.6642 17.25 21 17.5858 21 18C21 18.4142 20.6642 18.75 20.25 18.75H12C11.5858 18.75 11.25 18.4142 11.25 18Z" fill="black"/>
<path d="M8.78033 9.96967C9.07322 10.2626 9.07322 10.7374 8.78033 11.0303L5.78033 14.0303C5.48744 14.3232 5.01256 14.3232 4.71967 14.0303L3.21967 12.5303C2.92678 12.2374 2.92678 11.7626 3.21967 11.4697C3.51256 11.1768 3.98744 11.1768 4.28033 11.4697L5.25 12.4393L7.71967 9.96967C8.01256 9.67678 8.48744 9.67678 8.78033 9.96967Z" fill="black"/>
<path d="M8.78033 17.0303C9.07322 16.7374 9.07322 16.2626 8.78033 15.9697C8.48744 15.6768 8.01256 15.6768 7.71967 15.9697L5.25 18.4393L4.28033 17.4697C3.98744 17.1768 3.51256 17.1768 3.21967 17.4697C2.92678 17.7626 2.92678 18.2374 3.21967 18.5303L4.71967 20.0303C5.01256 20.3232 5.48744 20.3232 5.78033 20.0303L8.78033 17.0303Z" fill="black"/>
</svg>
