<svg width="24" height="24" viewBox="0 0 24 24" fill="none" xmlns="http://www.w3.org/2000/svg">
<path d="M3 6C3 5.58579 3.33579 5.25 3.75 5.25H20.25C20.6642 5.25 21 5.58579 21 6C21 6.41421 20.6642 6.75 20.25 6.75H3.75C3.33579 6.75 3 6.41421 3 6Z" fill="black"/>
<path d="M3 12C3 11.5858 3.33579 11.25 3.75 11.25H10.5C10.9142 11.25 11.25 11.5858 11.25 12C11.25 12.4142 10.9142 12.75 10.5 12.75H3.75C3.33579 12.75 3 12.4142 3 12Z" fill="black"/>
<path d="M3.75 17.25C3.33579 17.25 3 17.5858 3 18C3 18.4142 3.33579 18.75 3.75 18.75H12C12.4142 18.75 12.75 18.4142 12.75 18C12.75 17.5858 12.4142 17.25 12 17.25H3.75Z" fill="black"/>
<path fill-rule="evenodd" clip-rule="evenodd" d="M13.5 13.5C13.5 11.4289 15.1789 9.75 17.25 9.75C19.3211 9.75 21 11.4289 21 13.5C21 14.2642 20.7714 14.975 20.3789 15.5677L22.2803 17.4692C22.5732 17.7621 22.5732 18.237 22.2803 18.5299C21.9875 18.8228 21.5126 18.8228 21.2197 18.5299L19.3183 16.6285C18.7255 17.0213 18.0144 17.25 17.25 17.25C15.1789 17.25 13.5 15.5711 13.5 13.5ZM17.25 11.25C16.0074 11.25 15 12.2574 15 13.5C15 14.7426 16.0074 15.75 17.25 15.75C18.4926 15.75 19.5 14.7426 19.5 13.5C19.5 12.2574 18.4926 11.25 17.25 11.25Z" fill="black"/>
</svg>
