<svg width="24" height="24" viewBox="0 0 24 24" fill="none" xmlns="http://www.w3.org/2000/svg">
<path fill-rule="evenodd" clip-rule="evenodd" d="M12.75 15.6413C13.8343 15.3186 14.625 14.3141 14.625 13.125C14.625 11.6753 13.4497 10.5 12 10.5C10.5503 10.5 9.375 11.6753 9.375 13.125C9.375 14.3141 10.1657 15.3186 11.25 15.6413V17.25C11.25 17.6642 11.5858 18 12 18C12.4142 18 12.75 17.6642 12.75 17.25V15.6413ZM12 12C11.3787 12 10.875 12.5037 10.875 13.125C10.875 13.7463 11.3787 14.25 12 14.25C12.6213 14.25 13.125 13.7463 13.125 13.125C13.125 12.5037 12.6213 12 12 12Z" fill="black"/>
<path fill-rule="evenodd" clip-rule="evenodd" d="M7.5 7.5V5.25C7.5 4.05653 7.97411 2.91193 8.81802 2.06802C9.66193 1.22411 10.8065 0.75 12 0.75C13.1935 0.75 14.3381 1.22411 15.182 2.06802C16.0259 2.91193 16.5 4.05653 16.5 5.25V7.5H19.5C20.3284 7.5 21 8.17157 21 9V19.5C21 20.3284 20.3284 21 19.5 21H4.5C3.67157 21 3 20.3284 3 19.5V9C3 8.17157 3.67157 7.5 4.5 7.5H7.5ZM9.87868 3.12868C10.4413 2.56607 11.2044 2.25 12 2.25C12.7956 2.25 13.5587 2.56607 14.1213 3.12868C14.6839 3.69129 15 4.45435 15 5.25V7.5H9V5.25C9 4.45435 9.31607 3.69129 9.87868 3.12868ZM4.5 9V19.5H19.5V9H4.5Z" fill="black"/>
</svg>
