<svg width="24" height="24" viewBox="0 0 24 24" fill="none" xmlns="http://www.w3.org/2000/svg">
<path fill-rule="evenodd" clip-rule="evenodd" d="M10.5 2.25C5.94365 2.25 2.25 5.94365 2.25 10.5C2.25 15.0563 5.94365 18.75 10.5 18.75C12.508 18.75 14.3484 18.0326 15.779 16.8402L20.4695 21.5306C20.7623 21.8235 21.2372 21.8235 21.5301 21.5306C21.823 21.2377 21.823 20.7628 21.5301 20.4699L16.8397 15.7796C18.0324 14.3489 18.75 12.5082 18.75 10.5C18.75 5.94365 15.0563 2.25 10.5 2.25ZM3.75 10.5C3.75 6.77208 6.77208 3.75 10.5 3.75C14.2279 3.75 17.25 6.77208 17.25 10.5C17.25 14.2279 14.2279 17.25 10.5 17.25C6.77208 17.25 3.75 14.2279 3.75 10.5Z" fill="black"/>
</svg>
