<svg width="24" height="24" viewBox="0 0 24 24" fill="none" xmlns="http://www.w3.org/2000/svg">
<path fill-rule="evenodd" clip-rule="evenodd" d="M14.25 1.5C14.6642 1.5 15 1.83579 15 2.25V3.75H18.75C19.5784 3.75 20.25 4.42157 20.25 5.25V9H21.75C22.1642 9 22.5 9.33579 22.5 9.75C22.5 10.1642 22.1642 10.5 21.75 10.5H20.25V13.5H21.75C22.1642 13.5 22.5 13.8358 22.5 14.25C22.5 14.6642 22.1642 15 21.75 15H20.25V18.75C20.25 19.5784 19.5784 20.25 18.75 20.25H15V21.75C15 22.1642 14.6642 22.5 14.25 22.5C13.8358 22.5 13.5 22.1642 13.5 21.75V20.25H10.5V21.75C10.5 22.1642 10.1642 22.5 9.75 22.5C9.33579 22.5 9 22.1642 9 21.75V20.25H5.25C4.42157 20.25 3.75 19.5784 3.75 18.75V15H2.25C1.83579 15 1.5 14.6642 1.5 14.25C1.5 13.8358 1.83579 13.5 2.25 13.5H3.75V10.5H2.25C1.83579 10.5 1.5 10.1642 1.5 9.75C1.5 9.33579 1.83579 9 2.25 9H3.75V5.25C3.75 4.42157 4.42157 3.75 5.25 3.75H9V2.25C9 1.83579 9.33579 1.5 9.75 1.5C10.1642 1.5 10.5 1.83579 10.5 2.25V3.75H13.5V2.25C13.5 1.83579 13.8358 1.5 14.25 1.5ZM9.75 5.25H5.25V9.75V14.25V18.75H9.75H14.25H18.75V14.25V9.75V5.25H14.25H9.75ZM9.75 9C9.33579 9 9 9.33579 9 9.75V14.25C9 14.6642 9.33579 15 9.75 15H14.25C14.6642 15 15 14.6642 15 14.25V9.75C15 9.33579 14.6642 9 14.25 9H9.75ZM10.5 13.5V10.5H13.5V13.5H10.5Z" fill="black"/>
</svg>
