<svg width="24" height="25" viewBox="0 0 24 25" fill="none" xmlns="http://www.w3.org/2000/svg">
<g clip-path="url(#clip0_21511_24991)">
<path d="M11.1233 2.2703C12.6791 0.86452 15.081 0.911433 16.5803 2.41092L16.7209 2.55838C17.5524 3.4788 17.8739 4.69486 17.6887 5.84549C18.8391 5.66026 20.0553 5.98289 20.9758 6.81424L21.1243 6.95487L21.1711 7.00174L21.3118 7.15018C22.672 8.65578 22.672 10.9532 21.3118 12.4588L21.1711 12.6072L12.9514 20.8269C12.8263 20.9522 12.8266 21.1557 12.9514 21.281L14.6399 22.9685L14.6907 23.0262C14.9309 23.3207 14.9145 23.7555 14.6399 24.0301C14.3653 24.3046 13.9305 24.3211 13.636 24.0808L13.5784 24.0301L11.8909 22.3416C11.1803 21.6304 11.18 20.4774 11.8909 19.7664L20.1106 11.5467L20.2795 11.3592C21.0161 10.4561 21.0161 9.15286 20.2795 8.24979L20.1106 8.06229L20.0637 8.01542L19.8762 7.84647C18.9731 7.11019 17.6698 7.10988 16.7668 7.84647L16.5862 8.00858L16.5803 8.01542L9.71702 14.8797L9.65941 14.9314C9.36492 15.1712 8.92994 15.1539 8.6555 14.8797C8.36294 14.5869 8.3632 14.112 8.6555 13.8191L8.74241 13.7312L15.5266 6.94706L15.6887 6.76834C16.4254 5.86531 16.4253 4.5611 15.6887 3.65799L15.5198 3.47147C14.6179 2.56954 13.1904 2.51313 12.2229 3.30252L12.0364 3.47147L2.94749 12.5603C2.65469 12.8527 2.17973 12.8527 1.88695 12.5603C1.59418 12.2676 1.59447 11.7927 1.88695 11.4998L10.9758 2.41092L11.1233 2.2703Z" fill="black"/>
<path d="M13.2483 4.68338C13.5412 4.39063 14.016 4.39054 14.3088 4.68338C14.6012 4.97627 14.6014 5.45119 14.3088 5.74393L7.58714 12.4656C6.62517 13.4276 6.62514 14.9879 7.58714 15.95L7.77366 16.1189C8.74111 16.9077 10.1688 16.8515 11.0705 15.95L17.7922 9.22733C18.0851 8.93474 18.5599 8.93474 18.8528 9.22733C19.1452 9.52018 19.1453 9.99509 18.8528 10.2879L12.1311 17.0105C10.6319 18.5096 8.2298 18.5563 6.67406 17.1512L6.52659 17.0105C4.97888 15.4627 4.97885 12.9529 6.52659 11.4051L13.2483 4.68338Z" fill="black"/>
</g>
<defs>
<clipPath id="clip0_21511_24991">
<rect width="24" height="24" fill="white" transform="translate(0 0.75)"/>
</clipPath>
</defs>
</svg>
