<svg width="24" height="24" fill="none" xmlns="http://www.w3.org/2000/svg"><path d="M4 3.803c-.262.051-.794.329-.989.518-.268.259-.441.487-.551.728-.225.491-.219.31-.219 6.211 0 5.983-.01 5.727.247 6.251.178.366.635.823 1.001 1.001.533.261.044.247 8.511.247 8.467 0 7.978.014 8.511-.247.366-.178.823-.635 1.001-1.001.257-.524.247-.268.247-6.251 0-5.901.006-5.72-.219-6.211-.271-.593-.954-1.135-1.575-1.249-.271-.05-15.706-.047-15.965.003m15.82 1.523c.159.088.325.267.377.407.03.077.043 1.8.043 5.532 0 4.917-.006 5.431-.065 5.547a.686.686 0 0 1-.344.353c-.145.074-.351.075-7.883.065l-7.734-.01-.147-.112a.936.936 0 0 1-.227-.269c-.079-.153-.08-.243-.08-5.579 0-4.464.01-5.445.054-5.552.067-.16.31-.379.457-.411.06-.013.127-.03.149-.038.022-.007 3.469-.01 7.66-.006 7.018.006 7.629.012 7.74.073M8.805 20.28c-.391.092-.633.519-.524.924.059.218.288.453.5.511.223.062 6.215.062 6.438 0a.84.84 0 0 0 .306-.191.739.739 0 0 0-.348-1.246c-.193-.044-6.183-.043-6.372.002" fill-rule="evenodd" fill="#000"/></svg>