<svg width="24" height="24" viewBox="0 0 24 24" fill="none" xmlns="http://www.w3.org/2000/svg">
<path fill-rule="evenodd" clip-rule="evenodd" d="M10.665 2.10497C10.8608 2.30045 10.9331 2.58787 10.853 2.85274C10.4208 4.28292 10.3846 5.80356 10.7484 7.25267C11.1122 8.70177 11.8623 10.025 12.9187 11.0815C13.9752 12.138 15.2985 12.8881 16.7476 13.2518C18.1967 13.6156 19.7173 13.5794 21.1475 13.1472C21.4124 13.0672 21.6998 13.1394 21.8953 13.3353C22.0907 13.5311 22.1625 13.8186 22.082 14.0834C21.5921 15.6943 20.6932 17.151 19.4731 18.3114C18.2529 19.4718 16.7531 20.2964 15.1195 20.705C13.486 21.1135 11.7745 21.0921 10.1518 20.6427C8.52899 20.1933 7.05027 19.3313 5.85962 18.1406C4.66896 16.95 3.80696 15.4712 3.35756 13.8485C2.90817 12.2257 2.8867 10.5142 3.29524 8.8807C3.70379 7.24717 4.52843 5.7473 5.68884 4.52715C6.84925 3.307 8.30588 2.40818 9.91686 1.91821C10.1816 1.8377 10.4691 1.90948 10.665 2.10497ZM9.09969 3.84976C8.23365 4.27762 7.44627 4.85585 6.77577 5.56087C5.79389 6.5933 5.09612 7.86243 4.75042 9.24464C4.40473 10.6269 4.42289 12.075 4.80315 13.4481C5.18341 14.8213 5.9128 16.0725 6.92028 17.08C7.92775 18.0874 9.17898 18.8168 10.5521 19.1971C11.9252 19.5773 13.3734 19.5955 14.7556 19.2498C16.1378 18.9041 17.4069 18.2063 18.4394 17.2245C19.1444 16.554 19.7226 15.7666 20.1505 14.9005C18.8984 15.081 17.6183 15.017 16.3823 14.7067C14.67 14.2768 13.1064 13.3905 11.8581 12.1422C10.6097 10.8938 9.72339 9.33019 9.29354 7.61788C8.98327 6.38189 8.91922 5.10185 9.09969 3.84976Z" fill="black"/>
</svg>
