<svg width="24" height="24" viewBox="0 0 24 24" fill="none" xmlns="http://www.w3.org/2000/svg">
<path d="M21.75 10.5H12.75V8.25H13.5C13.8978 8.25 14.2794 8.09196 14.5607 7.81066C14.842 7.52936 15 7.14782 15 6.75V3.75C15 3.35218 14.842 2.97064 14.5607 2.68934C14.2794 2.40804 13.8978 2.25 13.5 2.25H10.5C10.1022 2.25 9.72064 2.40804 9.43934 2.68934C9.15804 2.97064 9 3.35218 9 3.75V6.75C9 7.14782 9.15804 7.52936 9.43934 7.81066C9.72064 8.09196 10.1022 8.25 10.5 8.25H11.25V10.5H2.25C2.05109 10.5 1.86032 10.579 1.71967 10.7197C1.57902 10.8603 1.5 11.0511 1.5 11.25C1.5 11.4489 1.57902 11.6397 1.71967 11.7803C1.86032 11.921 2.05109 12 2.25 12H5.25V15H4.5C4.10218 15 3.72064 15.158 3.43934 15.4393C3.15804 15.7206 3 16.1022 3 16.5V19.5C3 19.8978 3.15804 20.2794 3.43934 20.5607C3.72064 20.842 4.10218 21 4.5 21H7.5C7.89782 21 8.27936 20.842 8.56066 20.5607C8.84196 20.2794 9 19.8978 9 19.5V16.5C9 16.1022 8.84196 15.7206 8.56066 15.4393C8.27936 15.158 7.89782 15 7.5 15H6.75V12H17.25V15H16.5C16.1022 15 15.7206 15.158 15.4393 15.4393C15.158 15.7206 15 16.1022 15 16.5V19.5C15 19.8978 15.158 20.2794 15.4393 20.5607C15.7206 20.842 16.1022 21 16.5 21H19.5C19.8978 21 20.2794 20.842 20.5607 20.5607C20.842 20.2794 21 19.8978 21 19.5V16.5C21 16.1022 20.842 15.7206 20.5607 15.4393C20.2794 15.158 19.8978 15 19.5 15H18.75V12H21.75C21.9489 12 22.1397 11.921 22.2803 11.7803C22.421 11.6397 22.5 11.4489 22.5 11.25C22.5 11.0511 22.421 10.8603 22.2803 10.7197C22.1397 10.579 21.9489 10.5 21.75 10.5ZM10.5 3.75H13.5V6.75H10.5V3.75ZM7.5 19.5H4.5V16.5H7.5V19.5ZM19.5 19.5H16.5V16.5H19.5V19.5Z" fill="black"/>
</svg>
