
<svg width="24" height="24" fill="none" xmlns="http://www.w3.org/2000/svg"><path d="M11.529 1.584c-.095.033-.815.413-1.6.844-.786.431-1.717.94-2.069 1.131-2.374 1.29-4.868 2.67-5.02 2.778-.099.07-.247.225-.329.345-.286.417-.274.165-.262 5.427l.011 4.721.16.312c.107.208.22.361.34.461.191.16 8.401 4.676 8.74 4.808.271.106.729.106 1 0 .339-.132 8.549-4.648 8.74-4.808.12-.1.233-.253.34-.461l.16-.312.011-4.721c.012-5.262.024-5.01-.262-5.427a1.625 1.625 0 0 0-.329-.345c-.266-.189-8.496-4.686-8.704-4.756-.226-.077-.704-.075-.927.003m4.198 3.46a451.151 451.151 0 0 1 3.76 2.07c.021.02-2.149 1.235-2.645 1.481-.107.053-.219-.005-3.858-1.997C10.923 5.47 9.252 4.532 9.27 4.514c.023-.023 2.63-1.473 2.717-1.511.004-.002 1.687.917 3.74 2.041m-4.293 2.415c2.048 1.122 3.711 2.052 3.695 2.067-.016.015-.726.408-1.579.875l-1.55.847-3.757-2.054c-2.066-1.13-3.744-2.066-3.73-2.081.067-.066 3.112-1.712 3.152-1.703.025.005 1.721.928 3.769 2.049m-2.664 3.73 2.469 1.351.001 4.013c0 2.98-.012 4.01-.045 3.999-.025-.009-1.708-.924-3.739-2.034L3.763 16.5l-.002-4.026-.001-4.026 1.27.695 3.74 2.046m11.469 1.281-.002 4.03-3.693 2.018a590.812 590.812 0 0 1-3.739 2.034c-.033.011-.045-1.02-.045-3.999V12.54l1.463-.8c.805-.44 1.48-.806 1.5-.813.022-.008.037.683.037 1.737 0 1.702.002 1.756.085 1.926.126.26.344.39.655.39.311 0 .529-.13.655-.39.083-.172.085-.216.085-2.338V10.09l1.49-.821 1.5-.825c.005-.002.009 1.809.009 4.026" fill-rule="evenodd" fill="#000"/></svg>