<svg width="24" height="24" viewBox="0 0 24 24" fill="none" xmlns="http://www.w3.org/2000/svg">
<path fill-rule="evenodd" clip-rule="evenodd" d="M12 1.50195C12.2516 1.50195 12.499 1.56574 12.7197 1.68652L20.9697 6.20312C21.2053 6.33204 21.4019 6.52205 21.5391 6.75293C21.5523 6.77525 21.5622 6.79936 21.5742 6.82227C21.58 6.83172 21.5864 6.8408 21.5918 6.85059C21.6053 6.87531 21.6165 6.90129 21.627 6.92676C21.631 6.93604 21.6339 6.94573 21.6377 6.95508C21.6427 6.96879 21.6482 6.98224 21.6523 6.99609C21.7144 7.16198 21.7496 7.33714 21.75 7.51562V16.4834C21.75 16.7525 21.6772 17.0165 21.54 17.248C21.4028 17.4796 21.2059 17.6706 20.9697 17.7998L12.7197 22.3164C12.499 22.4371 12.2515 22.5 12 22.5C11.7485 22.5 11.501 22.4371 11.2803 22.3164L3.03027 17.7998C2.79477 17.6709 2.59813 17.4807 2.46094 17.25C2.32379 17.0192 2.25067 16.7557 2.25 16.4873V7.51562L2.26367 7.31543C2.27991 7.19677 2.31143 7.08098 2.35547 6.96973C2.36922 6.92942 2.38609 6.88921 2.40723 6.85059C2.41181 6.84223 2.41703 6.83428 2.42188 6.82617C2.43468 6.80168 2.44677 6.77677 2.46094 6.75293C2.59814 6.52206 2.79467 6.33204 3.03027 6.20312L7.28711 3.87207C7.29493 3.86781 7.30259 3.86335 7.31055 3.85938L11.2803 1.68652C11.501 1.56574 11.7484 1.50195 12 1.50195ZM3.75 16.4834L11.25 20.5898V12.5449L3.75 8.44043V16.4834ZM17.25 10.082V14.25C17.25 14.6641 16.9141 14.9998 16.5 15C16.0859 14.9999 15.75 14.6641 15.75 14.25V10.9023L12.75 12.5449V20.5889L20.25 16.4834V8.44043L17.25 10.082ZM4.46973 7.12402L12 11.2461L15.1777 9.50586L7.64648 5.38477L4.46973 7.12402ZM9.20898 4.5293L16.7393 8.65137L19.5293 7.12402L12 3.00195L9.20898 4.5293Z" fill="black"/>
</svg>
