<svg width="24" height="24" viewBox="0 0 24 24" fill="none" xmlns="http://www.w3.org/2000/svg">
<path fill-rule="evenodd" clip-rule="evenodd" d="M20.6279 2.29962C20.3699 2.23228 20.0987 2.2349 19.8421 2.30721L19.8279 2.31136L1.83369 7.76774C1.5431 7.85153 1.28455 8.02123 1.09204 8.25465C0.89774 8.49025 0.779978 8.77955 0.754498 9.08387C0.729019 9.3882 0.797037 9.69305 0.94946 9.95768C1.10187 10.2223 1.33142 10.4341 1.60742 10.5648L9.63261 14.3646C9.63307 14.365 9.63352 14.3655 9.63398 14.366C9.63382 14.3658 9.63413 14.3661 9.63398 14.366L13.4352 22.3906C13.5658 22.6666 13.7776 22.8962 14.0423 23.0486C14.3069 23.201 14.6118 23.2691 14.9161 23.2436C15.2204 23.2181 15.5097 23.1003 15.7453 22.906C15.9787 22.7135 16.1484 22.455 16.2322 22.1644L21.6886 4.17206L21.6928 4.15783C21.7651 3.90125 21.7677 3.63002 21.7003 3.37209C21.633 3.11415 21.4981 2.87882 21.3096 2.69032C21.1211 2.50181 20.8858 2.36695 20.6279 2.29962ZM11.1013 13.9593L14.7909 21.7487L14.795 21.7349L20.2488 3.7512L2.26319 9.20495L2.24927 9.20902L10.041 12.8983L14.4696 8.46967C14.7625 8.17678 15.2374 8.17678 15.5303 8.46967C15.8232 8.76256 15.8232 9.23744 15.5303 9.53033L11.1013 13.9593Z" fill="black"/>
</svg>
