<svg width="24" height="24" viewBox="0 0 24 24" fill="none" xmlns="http://www.w3.org/2000/svg">
<path d="M3.75 4.5C4.16421 4.5 4.5 4.83579 4.5 5.25V18.75C4.5 19.1642 4.16421 19.5 3.75 19.5C3.33579 19.5 3 19.1642 3 18.75V5.25C3 4.83579 3.33579 4.5 3.75 4.5Z" fill="black"/>
<path d="M9.75 8.25C10.1642 8.25 10.5 8.58579 10.5 9V10.9673L12.3712 10.3592C12.7651 10.2312 13.1883 10.4467 13.3163 10.8406C13.4443 11.2346 13.2288 11.6577 12.8348 11.7857L10.9633 12.394L12.1203 13.9864C12.3637 14.3215 12.2894 14.7905 11.9543 15.034C11.6192 15.2775 11.1502 15.2032 10.9067 14.8681L9.74994 13.2759L8.59315 14.8681C8.34968 15.2032 7.88065 15.2775 7.54555 15.034C7.21044 14.7905 7.13615 14.3215 7.37962 13.9864L8.53661 12.3939L6.66536 11.7857C6.27143 11.6577 6.05587 11.2346 6.1839 10.8406C6.31193 10.4467 6.73506 10.2312 7.12899 10.3592L9 10.9673V9C9 8.58579 9.33579 8.25 9.75 8.25Z" fill="black"/>
<path d="M19.5 9C19.5 8.58579 19.1642 8.25 18.75 8.25C18.3358 8.25 18 8.58579 18 9V10.9673L16.129 10.3592C15.7351 10.2312 15.3119 10.4467 15.1839 10.8406C15.0559 11.2346 15.2714 11.6577 15.6654 11.7857L17.5366 12.3939L16.3796 13.9864C16.1361 14.3215 16.2104 14.7905 16.5455 15.034C16.8807 15.2775 17.3497 15.2032 17.5931 14.8681L18.7499 13.2759L19.9067 14.8681C20.1502 15.2032 20.6192 15.2775 20.9543 15.034C21.2894 14.7905 21.3637 14.3215 21.1203 13.9864L19.9633 12.394L21.8348 11.7857C22.2288 11.6577 22.4443 11.2346 22.3163 10.8406C22.1883 10.4467 21.7651 10.2312 21.3712 10.3592L19.5 10.9673V9Z" fill="black"/>
</svg>
