<svg width="24" height="24" viewBox="0 0 24 24" fill="none" xmlns="http://www.w3.org/2000/svg">
  <path fill-rule="evenodd" clip-rule="evenodd" d="M5.25 3C4.42157 3 3.75 3.67157 3.75 4.5V19.5C3.75 20.3284 4.42157 21 5.25 21H9C9.82843 21 10.5 20.3284 10.5 19.5V4.5C10.5 3.67157 9.82843 3 9 3H5.25ZM5.25 4.5H9V19.5H5.25V4.5Z" fill="black"/>
  <path fill-rule="evenodd" clip-rule="evenodd" d="M15 3C14.1716 3 13.5 3.67157 13.5 4.5V19.5C13.5 20.3284 14.1716 21 15 21H18.75C19.5784 21 20.25 20.3284 20.25 19.5V4.5C20.25 3.67157 19.5784 3 18.75 3H15ZM15 4.5H18.75V19.5H15V4.5Z" fill="black"/>
</svg>
