<svg width="24" height="24" viewBox="0 0 24 24" fill="none" xmlns="http://www.w3.org/2000/svg">
<path fill-rule="evenodd" clip-rule="evenodd" d="M16.0608 2.25C15.6631 2.25 15.2817 2.4079 15.0005 2.68899L12.2278 5.46169C12.2251 5.46432 12.2224 5.46698 12.2197 5.46967C12.217 5.47235 12.2143 5.47505 12.2117 5.47777L3.43875 14.2507C3.15798 14.5318 3.00018 14.9131 3 15.3104V19.5001C3 19.8979 3.15804 20.2795 3.43934 20.5608C3.72065 20.8421 4.10218 21.0001 4.5 21.0001H8.69003C9.08733 20.9999 9.46868 20.8418 9.74977 20.561L18.4964 11.8123C18.508 11.802 18.5193 11.7914 18.5303 11.7803C18.5414 11.7692 18.5521 11.7579 18.5624 11.7463L21.3111 8.99684C21.5922 8.71556 21.7501 8.33418 21.7501 7.93653C21.7501 7.53887 21.5919 7.15714 21.3108 6.87586L17.1211 2.68899C16.8398 2.4079 16.4584 2.25 16.0608 2.25ZM17.9989 10.1883L20.2501 7.93653L16.0608 3.75L13.8107 6.00006L17.9989 10.1883ZM12.7501 7.06072L4.5 15.3108V19.5001L8.68934 19.5001L16.9384 11.2491L12.7501 7.06072Z" fill="black"/>
</svg>
