<svg width="24" height="24" viewBox="0 0 24 24" fill="none" xmlns="http://www.w3.org/2000/svg">
<path fill-rule="evenodd" clip-rule="evenodd" d="M3.07291 13.151C3.0248 12.7741 3 12.39 3 12C3 7.02944 7.02944 3 12 3C14.0713 3 15.9791 3.69968 17.5001 4.87559C18.6664 4.59121 19.732 4.45624 20.6157 4.51258C21.5599 4.57278 22.5052 4.87021 22.9799 5.68803C23.414 6.43544 23.272 7.30721 22.9328 8.08227C22.5863 8.87401 21.9697 9.72516 21.1745 10.5842C21.094 10.6711 21.0114 10.7584 20.9267 10.8461C20.9751 11.2239 21 11.6091 21 12C21 16.9706 16.9706 21 12 21C9.92928 21 8.02189 20.3007 6.50113 19.1253C6.39144 19.1521 6.28292 19.1774 6.17563 19.2014C5.03068 19.4569 3.98244 19.5621 3.12127 19.4643C2.27865 19.3685 1.4521 19.0548 1.01976 18.3074C0.543 17.4851 0.760104 16.5151 1.18372 15.667C1.58028 14.873 2.23596 14.0179 3.07291 13.151ZM4.5 12C4.5 7.85786 7.85786 4.5 12 4.5C15.5693 4.5 18.5562 6.99331 19.3141 10.3333C17.8616 11.7163 15.852 13.2054 13.4901 14.5623C11.1183 15.9249 8.80804 16.9151 6.87298 17.4739C5.71601 16.3899 4.90291 14.9432 4.61494 13.3152C4.61212 13.2929 4.60831 13.2708 4.60349 13.2487C4.53543 12.8426 4.5 12.4255 4.5 12ZM3.48749 14.9294C3.05639 15.4448 2.73445 15.9192 2.52564 16.3372C2.1747 17.0399 2.22727 17.3996 2.31746 17.5551L2.31807 17.5561C2.40053 17.6988 2.64212 17.9002 3.29064 17.9739C3.78234 18.0297 4.41766 17.9987 5.17744 17.8699C4.44092 17.0146 3.86248 16.0193 3.48749 14.9294ZM8.37965 18.5699C9.45301 19.1627 10.6871 19.5 12 19.5C16.0788 19.5 19.3971 16.244 19.4977 12.1895C18.0536 13.4349 16.257 14.7026 14.2373 15.8629C12.2061 17.0299 10.1933 17.9481 8.37965 18.5699ZM20.5118 9.06853C21.0108 8.47226 21.3596 7.93549 21.5586 7.48085C21.8187 6.88664 21.764 6.58117 21.6827 6.44132C21.5921 6.28508 21.3039 6.0595 20.5203 6.00954C20.0544 5.97984 19.4836 6.01894 18.8234 6.13106C19.559 6.98558 20.1369 7.9798 20.5118 9.06853Z" fill="black"/>
</svg>
