<svg width="24" height="24" viewBox="0 0 24 24" fill="none" xmlns="http://www.w3.org/2000/svg">
  <path fill-rule="evenodd" clip-rule="evenodd" d="M6.77625 2.43895C7.00729 2.31174 7.26778 2.24769 7.53146 2.25326C7.79514 2.25884 8.05269 2.33384 8.27814 2.4707L8.28027 2.47199L21.7848 10.7314C21.7854 10.7318 21.786 10.7321 21.7865 10.7325C22.004 10.8645 22.1839 11.0503 22.3089 11.272C22.4341 11.4943 22.5 11.7451 22.5 12.0003C22.5 12.2554 22.4341 12.5062 22.3089 12.7285C22.1839 12.9502 22.004 13.136 21.7865 13.268C21.786 13.2684 21.7854 13.2687 21.7848 13.2691L8.28027 21.5285L8.27814 21.5298C8.05269 21.6667 7.79514 21.7417 7.53146 21.7472C7.26778 21.7528 7.00729 21.6888 6.77625 21.5616C6.54522 21.4343 6.35181 21.2485 6.21553 21.0227C6.07925 20.7969 6.00491 20.5391 6.00001 20.2754L5.99976 20.2615L5.99989 3.72507C6.00478 3.46138 6.07925 3.20364 6.21553 2.97784C6.35181 2.75204 6.54522 2.56616 6.77625 2.43895ZM7.49989 3.75301L20.9845 12.0003L7.49989 20.2475V3.75301Z" fill="black"/>
</svg>
