<svg width="24" height="24" viewBox="0 0 24 24" fill="none" xmlns="http://www.w3.org/2000/svg">
<path fill-rule="evenodd" clip-rule="evenodd" d="M22.2801 2.78033L17.3676 7.69282L17.8715 8.1967C19.0431 9.36827 19.0431 11.2678 17.8715 12.4393L15.6857 14.6251L16.2803 15.2197C16.5732 15.5126 16.5732 15.9874 16.2803 16.2803C15.9874 16.5732 15.5126 16.5732 15.2197 16.2803L14.6251 15.6857L12.4396 17.8712C11.268 19.0428 9.36851 19.0428 8.19693 17.8712L7.69305 17.3674L2.78033 22.2801C2.48744 22.573 2.01256 22.573 1.71967 22.2801C1.42678 21.9872 1.42678 21.5123 1.71967 21.2194L6.63239 16.3067L6.12864 15.803C4.95707 14.6314 4.95707 12.7319 6.12864 11.5603L8.31415 9.37481L7.71967 8.78033C7.42678 8.48744 7.42678 8.01256 7.71967 7.71967C8.01256 7.42678 8.48744 7.42678 8.78033 7.71967L9.37481 8.31415L11.5606 6.12841C12.7321 4.95684 14.6316 4.95684 15.8032 6.12841L16.3069 6.63216L21.2194 1.71967C21.5123 1.42678 21.9872 1.42678 22.2801 1.71967C22.573 2.01256 22.573 2.48744 22.2801 2.78033ZM8.2321 15.7851L8.22345 15.7763L8.21467 15.7677L7.1893 14.7423C6.60352 14.1565 6.60352 13.2068 7.1893 12.621L9.37481 10.4355L13.5644 14.6251L11.3789 16.8106C10.7931 17.3964 9.84338 17.3964 9.25759 16.8106L8.2321 15.7851ZM15.7763 8.22345L15.7657 8.21259L15.7586 8.20512L14.7425 7.18907C14.1567 6.60329 13.207 6.60329 12.6212 7.18907L10.4355 9.37481L14.6251 13.5644L16.8108 11.3787C17.3966 10.7929 17.3966 9.84315 16.8108 9.25736L15.7947 8.24119C15.7885 8.2354 15.7823 8.22949 15.7763 8.22345Z" fill="black"/>
<path d="M8.76303 2.28869C9.15599 2.15771 9.58073 2.37008 9.71172 2.76303L10.4617 5.01303C10.5927 5.40599 10.3803 5.83073 9.98737 5.96172C9.59442 6.0927 9.16968 5.88033 9.03869 5.48737L8.28869 3.23737C8.15771 2.84442 8.37008 2.41968 8.76303 2.28869Z" fill="black"/>
<path d="M3.23737 8.28869C2.84442 8.15771 2.41968 8.37008 2.28869 8.76303C2.15771 9.15599 2.37008 9.58073 2.76303 9.71172L5.01303 10.4617C5.40599 10.5927 5.83073 10.3803 5.96172 9.98737C6.0927 9.59442 5.88033 9.16968 5.48737 9.03869L3.23737 8.28869Z" fill="black"/>
<path d="M18.0387 14.013C18.1697 13.6201 18.5944 13.4077 18.9874 13.5387L21.2374 14.2887C21.6303 14.4197 21.8427 14.8444 21.7117 15.2374C21.5807 15.6303 21.156 15.8427 20.763 15.7117L18.513 14.9617C18.1201 14.8307 17.9077 14.406 18.0387 14.013Z" fill="black"/>
<path d="M14.9617 18.513C14.8307 18.1201 14.406 17.9077 14.013 18.0387C13.6201 18.1697 13.4077 18.5944 13.5387 18.9874L14.2887 21.2374C14.4197 21.6303 14.8444 21.8427 15.2374 21.7117C15.6303 21.5807 15.8427 21.156 15.7117 20.763L14.9617 18.513Z" fill="black"/>
</svg>
