<svg width="24" height="24" viewBox="0 0 24 24" fill="none" xmlns="http://www.w3.org/2000/svg"><path fillRule="evenodd" clipRule="evenodd" fill="currentColor" d="M23.7489 0.251054C24.0837 0.585793 24.0837 1.12851 23.7489 1.46325L20.7085 4.50371L21.2845 5.07893C21.9274 5.72191 22.2891 6.59439 22.2891 7.50367C22.2891 8.41295 21.9279 9.285 21.2849 9.92798L18.784 12.4289L19.4635 13.1083C19.7982 13.4431 19.7982 13.9858 19.4635 14.3205C19.1287 14.6553 18.586 14.6553 18.2513 14.3205L16.9808 13.0501C16.9757 13.0452 16.9706 13.0402 16.9655 13.0352C16.9605 13.0301 16.9555 13.025 16.9506 13.0199L10.9808 7.05008C10.9756 7.04517 10.9705 7.04018 10.9655 7.03511C10.9604 7.03005 10.9554 7.02493 10.9505 7.01977L9.67973 5.74901C9.34499 5.41427 9.34499 4.87156 9.67973 4.53682C10.0145 4.20208 10.5572 4.20208 10.8919 4.53682L11.5717 5.21663L14.0732 2.71518C14.716 2.07355 15.5871 1.71319 16.4954 1.71319C17.4036 1.71319 18.2747 2.07355 18.9175 2.71518L19.4955 3.29233L22.5367 0.251054C22.8715 -0.0836847 23.4142 -0.0836848 23.7489 0.251054ZM18.8363 5.05681L17.7064 3.92849C17.3851 3.60777 16.9494 3.42749 16.4954 3.42749C16.0414 3.42749 15.6059 3.60758 15.2845 3.92823L12.7839 6.42883L17.5718 11.2167L20.0727 8.71583C20.3941 8.39434 20.5748 7.9583 20.5748 7.50367C20.5748 7.04903 20.3942 6.613 20.0727 6.29151L18.9441 5.16446C18.9246 5.14816 18.9057 5.13087 18.8874 5.11258C18.8694 5.09457 18.8524 5.07596 18.8363 5.05681Z"/><path fillRule="evenodd" clipRule="evenodd" fill="currentColor" d="M4.53682 9.67973C4.87156 9.34499 5.41427 9.34499 5.74901 9.67973L7.71437 11.6451L9.67973 9.67973C10.0145 9.34499 10.5572 9.34499 10.8919 9.67973C11.2267 10.0145 11.2267 10.5572 10.8919 10.8919L8.92657 12.8573L11.143 15.0737L13.1083 13.1083C13.4431 12.7736 13.9858 12.7736 14.3205 13.1083C14.6553 13.4431 14.6553 13.9858 14.3205 14.3205L12.3552 16.2859L14.3205 18.2513C14.6553 18.586 14.6553 19.1287 14.3205 19.4635C13.9858 19.7982 13.4431 19.7982 13.1083 19.4635L12.4286 18.7837L9.92744 21.2849C9.28446 21.9278 8.4124 22.2891 7.50311 22.2891C6.59383 22.2891 5.72178 21.9279 5.0788 21.2849L4.50343 20.7088L1.46325 23.7489C1.12851 24.0837 0.585793 24.0837 0.251054 23.7489C-0.0836848 23.4142 -0.0836847 22.8715 0.251054 22.5367L3.29205 19.4957L2.71477 18.9177C2.07314 18.2749 1.71263 17.4036 1.71263 16.4954C1.71263 15.5871 2.073 14.716 2.71463 14.0732L5.21635 11.5715L4.53682 10.8919C4.20208 10.5572 4.20208 10.0145 4.53682 9.67973ZM11.2164 17.5715L8.71525 20.0727C8.39376 20.3942 7.95775 20.5748 7.50311 20.5748C7.04847 20.5748 6.61245 20.3942 6.29096 20.0727L5.16725 18.9475C5.15015 18.9268 5.13192 18.9068 5.11258 18.8874C5.09352 18.8684 5.07378 18.8504 5.05345 18.8335L3.9278 17.7063C3.60707 17.3849 3.42694 16.9494 3.42694 16.4954C3.42694 16.0414 3.60728 15.6057 3.92793 15.2843L6.42855 12.7837L11.2164 17.5715Z"/></svg>
