<svg width="24" height="24" viewBox="0 0 24 24" fill="none" xmlns="http://www.w3.org/2000/svg">
<path d="M18.5625 10.875C18.5625 11.3928 18.1428 11.8125 17.625 11.8125C17.1072 11.8125 16.6875 11.3928 16.6875 10.875C16.6875 10.3572 17.1072 9.9375 17.625 9.9375C18.1428 9.9375 18.5625 10.3572 18.5625 10.875Z" fill="black"/>
<path fill-rule="evenodd" clip-rule="evenodd" d="M6 3C5.58579 3 5.25 3.33579 5.25 3.75V6.75H3.87469C2.62094 6.75 1.5 7.70164 1.5 9V16.5C1.5 16.9142 1.83579 17.25 2.25 17.25H5.25V20.25C5.25 20.6642 5.58579 21 6 21H18C18.4142 21 18.75 20.6642 18.75 20.25V17.25H21.75C22.1642 17.25 22.5 16.9142 22.5 16.5V9C22.5 7.70164 21.3791 6.75 20.1253 6.75H18.75V3.75C18.75 3.33579 18.4142 3 18 3H6ZM3 9C3 8.64086 3.33406 8.25 3.87469 8.25H20.1253C20.6659 8.25 21 8.64086 21 9V15.75H18.75V14.25C18.75 13.8358 18.4142 13.5 18 13.5H6C5.58579 13.5 5.25 13.8358 5.25 14.25V15.75H3V9ZM6.75 6.75H17.25V4.5H6.75V6.75ZM6.75 15H17.25V19.5H6.75V15Z" fill="black"/>
</svg>
