<svg width="24" height="24" viewBox="0 0 24 24" fill="none" xmlns="http://www.w3.org/2000/svg">
<path fill-rule="evenodd" clip-rule="evenodd" d="M15.3137 1.5C14.916 1.5 14.5346 1.6579 14.2533 1.93899L9.22259 6.98379L9.17877 6.97033C8.84343 6.86894 8.36922 6.76295 7.79712 6.73728C6.64021 6.68537 5.10999 6.96476 3.56147 8.21397C3.3972 8.34573 3.26251 8.5106 3.16616 8.69787C3.0696 8.88558 3.01373 9.09156 3.00223 9.30234C2.99073 9.51312 3.02384 9.72395 3.09941 9.92106C3.17486 10.1179 3.29163 10.2972 3.44076 10.4462L7.9671 14.9721L3.96967 18.9695C3.67678 19.2624 3.67678 19.7373 3.96967 20.0302C4.26256 20.3231 4.73744 20.3231 5.03033 20.0302L9.02781 16.0327L13.5557 20.5602L13.5576 20.5621C13.7091 20.7125 13.891 20.8288 14.0911 20.9033C14.2912 20.9778 14.5049 21.0087 14.7179 20.994C14.9309 20.9792 15.1383 20.9192 15.3262 20.8179C15.5141 20.7166 15.6783 20.5763 15.8076 20.4065L15.8105 20.4027C16.5585 19.4077 17.9216 17.1666 17.0481 14.7785L22.0619 9.74899C22.3425 9.46778 22.5002 9.08668 22.5002 8.68934C22.5002 8.29168 22.3422 7.91026 22.0612 7.62898L16.374 1.93899C16.0927 1.6579 15.7113 1.5 15.3137 1.5ZM9.07119 8.525L9.08036 8.52924C9.36858 8.671 9.71564 8.61365 9.9427 8.38596L15.3137 3L20.9995 8.69L15.6277 14.0787C15.4 14.3071 15.3438 14.6554 15.4881 14.9438C16.349 16.6648 15.3864 18.4693 14.6144 19.4975L4.5 9.38409L4.50233 9.38221C5.73216 8.38971 6.89163 8.19816 7.72989 8.23577C8.15552 8.25487 8.50538 8.3338 8.74467 8.40614C8.86394 8.4422 8.95443 8.47623 9.01158 8.4995C9.0401 8.51112 9.06017 8.51999 9.07119 8.525Z" fill="black"/>
</svg>
