<svg width="24" height="24" viewBox="0 0 24 24" fill="none" xmlns="http://www.w3.org/2000/svg">
<path d="M9.18062 5.0503C10.5466 4.49607 12.0455 4.35665 13.4902 4.64945C14.935 4.94226 16.2614 5.65431 17.3037 6.69664C17.3115 6.70445 17.3195 6.71209 17.3277 6.71956L19.8193 9H17.25C16.8358 9 16.5 9.33579 16.5 9.75C16.5 10.1642 16.8358 10.5 17.25 10.5H21.7263C21.9372 10.5066 22.1496 10.4246 22.3032 10.2567C22.4081 10.1421 22.4707 10.0038 22.4919 9.86092C22.4973 9.82414 22.5 9.78706 22.5 9.75V5.25C22.5 4.83579 22.1642 4.5 21.75 4.5C21.3358 4.5 21 4.83579 21 5.25V8.04723L18.3524 5.624C17.1034 4.37972 15.5163 3.52959 13.7882 3.17934C12.0545 2.82797 10.2558 2.99528 8.61664 3.66036C6.97752 4.32544 5.57073 5.4588 4.57205 6.91883C3.57337 8.37886 3.02708 10.1008 3.00143 11.8695C2.97579 13.6383 3.47194 15.3753 4.42788 16.8637C5.38382 18.3521 6.75716 19.5257 8.37631 20.238C9.99546 20.9504 11.7886 21.1697 13.5317 20.8688C15.2749 20.5678 16.8907 19.7599 18.1772 18.5458C18.4785 18.2616 18.4922 17.7869 18.208 17.4856C17.9237 17.1844 17.449 17.1706 17.1478 17.4549C16.0756 18.4665 14.7291 19.1399 13.2765 19.3907C11.8239 19.6415 10.3296 19.4586 8.98034 18.865C7.63105 18.2714 6.48659 17.2934 5.68998 16.0531C4.89336 14.8128 4.47991 13.3652 4.50128 11.8913C4.52264 10.4173 4.97789 8.98238 5.81012 7.76569C6.64236 6.549 7.81468 5.60454 9.18062 5.0503Z" fill="black"/>
</svg>
