<svg width="24" height="24" viewBox="0 0 24 24" fill="none" xmlns="http://www.w3.org/2000/svg">
<path fill-rule="evenodd" clip-rule="evenodd" d="M4.5 4.5C3.67157 4.5 3 5.17157 3 6V9.75C3 10.5784 3.67157 11.25 4.5 11.25H19.5C20.3284 11.25 21 10.5784 21 9.75V6C21 5.17157 20.3284 4.5 19.5 4.5H4.5ZM4.5 6H19.5V9.75H4.5V6Z" fill="black"/>
<path fill-rule="evenodd" clip-rule="evenodd" d="M4.5 12.75C3.67157 12.75 3 13.4216 3 14.25V18C3 18.8284 3.67157 19.5 4.5 19.5H19.5C20.3284 19.5 21 18.8284 21 18V14.25C21 13.4216 20.3284 12.75 19.5 12.75H4.5ZM4.5 14.25H19.5V18H4.5V14.25Z" fill="black"/>
</svg>
