<svg width="24" height="24" viewBox="0 0 24 24" fill="none" xmlns="http://www.w3.org/2000/svg">
  <path
    clip-rule="evenodd"
    d="M19.5 16.12h-15c-.83 0-1.5.67-1.5 1.5v2.25c0 .83.67 1.5 1.5 1.5h15c.83 0 1.5-.67 1.5-1.5v-2.25c0-.83-.67-1.5-1.5-1.5Zm0 3.76h-15v-2.25h15v2.25Zm0-10.5h-15c-.83 0-1.5.67-1.5 1.5v2.25c0 .83.67 1.5 1.5 1.5h15c.83 0 1.5-.67 1.5-1.5v-2.25c0-.83-.67-1.5-1.5-1.5Zm0 3.74h-15v-2.25h15v2.25Z"
    fill="currentColor"
    fill-rule="evenodd"
  />
  <path
    clip-rule="evenodd"
    d="M19.5 9.38h-15c-.83 0-1.5.67-1.5 1.5v2.25c0 .83.67 1.5 1.5 1.5h15c.83 0 1.5-.67 1.5-1.5v-2.25c0-.83-.67-1.5-1.5-1.5Zm0 3.74h-15v-2.25h15v2.25Zm0-10.49h-15c-.83 0-1.5.67-1.5 1.5v2.25c0 .83.67 1.5 1.5 1.5h15c.83 0 1.5-.67 1.5-1.5V4.13c0-.83-.67-1.5-1.5-1.5Zm0 3.75h-15V4.13h15v2.25Z"
    fill="currentColor"
    fill-rule="evenodd"
  />
</svg>
