<svg width="24" height="24" viewBox="0 0 24 24" fill="none" xmlns="http://www.w3.org/2000/svg">
<path d="M16.875 8.4375C17.3928 8.4375 17.8125 8.01777 17.8125 7.5C17.8125 6.98223 17.3928 6.5625 16.875 6.5625C16.3572 6.5625 15.9375 6.98223 15.9375 7.5C15.9375 8.01777 16.3572 8.4375 16.875 8.4375Z" fill="black"/>
<path fill-rule="evenodd" clip-rule="evenodd" d="M4.5 3.75C3.67157 3.75 3 4.42157 3 5.25V9.75C3 10.5784 3.67157 11.25 4.5 11.25H19.5C20.3284 11.25 21 10.5784 21 9.75V5.25C21 4.42157 20.3284 3.75 19.5 3.75H4.5ZM4.5 5.25H19.5V9.75H4.5V5.25Z" fill="black"/>
<path d="M17.8125 16.5C17.8125 17.0178 17.3928 17.4375 16.875 17.4375C16.3572 17.4375 15.9375 17.0178 15.9375 16.5C15.9375 15.9822 16.3572 15.5625 16.875 15.5625C17.3928 15.5625 17.8125 15.9822 17.8125 16.5Z" fill="black"/>
<path fill-rule="evenodd" clip-rule="evenodd" d="M4.5 12.75C3.67157 12.75 3 13.4216 3 14.25V18.75C3 19.5784 3.67157 20.25 4.5 20.25H19.5C20.3284 20.25 21 19.5784 21 18.75V14.25C21 13.4216 20.3284 12.75 19.5 12.75H4.5ZM4.5 14.25H19.5V18.75H4.5V14.25Z" fill="black"/>
</svg>
