<svg width="24" height="24" viewBox="0 0 24 24" fill="none" xmlns="http://www.w3.org/2000/svg">
<path d="M16.2803 10.2803C16.5732 9.98744 16.5732 9.51256 16.2803 9.21967C15.9874 8.92678 15.5126 8.92678 15.2197 9.21967L10.5 13.9393L8.78033 12.2197C8.48744 11.9268 8.01256 11.9268 7.71967 12.2197C7.42678 12.5126 7.42678 12.9874 7.71967 13.2803L9.96967 15.5303C10.2626 15.8232 10.7374 15.8232 11.0303 15.5303L16.2803 10.2803Z" fill="black"/>
<path fill-rule="evenodd" clip-rule="evenodd" d="M4.5 3.75C4.10217 3.75 3.72064 3.90804 3.43934 4.18934C3.15804 4.47064 3 4.85217 3 5.25V10.7616C3 19.1829 10.1444 21.9611 11.5298 22.4204C11.8348 22.5244 12.1656 22.5244 12.4706 22.4203C13.8537 21.9599 21 19.1792 21 10.7597V5.25C21 4.85218 20.842 4.47065 20.5607 4.18934C20.2794 3.90804 19.8978 3.75 19.5 3.75H4.5ZM4.5 5.25L19.5 5.25V10.7597C19.5 18.1058 13.3064 20.5606 12 20.996C10.6965 20.5635 4.5 18.112 4.5 10.7616L4.5 5.25Z" fill="black"/>
</svg>
