<svg width="24" height="24" viewBox="0 0 24 24" fill="none" xmlns="http://www.w3.org/2000/svg">
<path d="M12 8.25C12.4142 8.25 12.75 8.58579 12.75 9V12.75C12.75 13.1642 12.4142 13.5 12 13.5C11.5858 13.5 11.25 13.1642 11.25 12.75V9C11.25 8.58579 11.5858 8.25 12 8.25Z" fill="black"/>
<path d="M12.9375 16.125C12.9375 16.6428 12.5178 17.0625 12 17.0625C11.4822 17.0625 11.0625 16.6428 11.0625 16.125C11.0625 15.6072 11.4822 15.1875 12 15.1875C12.5178 15.1875 12.9375 15.6072 12.9375 16.125Z" fill="black"/>
<path fill-rule="evenodd" clip-rule="evenodd" d="M3.43934 4.18934C3.72064 3.90804 4.10217 3.75 4.5 3.75H19.5C19.8978 3.75 20.2794 3.90804 20.5607 4.18934C20.842 4.47065 21 4.85218 21 5.25V10.7597C21 19.1792 13.8537 21.9599 12.4706 22.4203C12.1656 22.5244 11.8348 22.5244 11.5298 22.4204C10.1444 21.9611 3 19.1829 3 10.7616V5.25C3 4.85217 3.15804 4.47064 3.43934 4.18934ZM19.5 5.25L4.5 5.25L4.5 10.7616C4.5 18.112 10.6965 20.5635 12 20.996C13.3064 20.5606 19.5 18.1058 19.5 10.7597V5.25Z" fill="black"/>
</svg>
