<svg width="24" height="24" viewBox="0 0 24 24" fill="none" xmlns="http://www.w3.org/2000/svg">
<path fill-rule="evenodd" clip-rule="evenodd" d="M6.84451 8.25C7.17755 9.54392 8.35212 10.5 9.75 10.5C11.1479 10.5 12.3225 9.54392 12.6555 8.25H20.25C20.6642 8.25 21 7.91421 21 7.5C21 7.08579 20.6642 6.75 20.25 6.75H12.6555C12.3225 5.45608 11.1479 4.5 9.75 4.5C8.35212 4.5 7.17755 5.45608 6.84451 6.75H3.75C3.33579 6.75 3 7.08579 3 7.5C3 7.91421 3.33579 8.25 3.75 8.25H6.84451ZM8.25 7.5C8.25 6.67157 8.92157 6 9.75 6C10.5784 6 11.25 6.67157 11.25 7.5C11.25 8.32843 10.5784 9 9.75 9C8.92157 9 8.25 8.32843 8.25 7.5Z" fill="black"/>
<path fill-rule="evenodd" clip-rule="evenodd" d="M12.8445 17.25C13.1775 18.5439 14.3521 19.5 15.75 19.5C17.1479 19.5 18.3225 18.5439 18.6555 17.25H20.25C20.6642 17.25 21 16.9142 21 16.5C21 16.0858 20.6642 15.75 20.25 15.75H18.6555C18.3225 14.4561 17.1479 13.5 15.75 13.5C14.3521 13.5 13.1775 14.4561 12.8445 15.75H3.75C3.33579 15.75 3 16.0858 3 16.5C3 16.9142 3.33579 17.25 3.75 17.25H12.8445ZM14.25 16.5C14.25 15.6716 14.9216 15 15.75 15C16.5784 15 17.25 15.6716 17.25 16.5C17.25 17.3284 16.5784 18 15.75 18C14.9216 18 14.25 17.3284 14.25 16.5Z" fill="black"/>
</svg>
