<svg width="24" height="24" viewBox="0 0 24 24" fill="none" xmlns="http://www.w3.org/2000/svg">
<path fill-rule="evenodd" clip-rule="evenodd" d="M17.5371 3.80691C17.6255 3.84351 17.7084 3.89776 17.7803 3.96967L21.5303 7.71967C21.8232 8.01256 21.8232 8.48744 21.5303 8.78033C21.2374 9.07322 20.7626 9.07322 20.4697 8.78033L18 6.31066V13.5C18 13.9142 17.6642 14.25 17.25 14.25C16.8358 14.25 16.5 13.9142 16.5 13.5V6.31066L14.0303 8.78033C13.7374 9.07322 13.2626 9.07322 12.9697 8.78033C12.6768 8.48744 12.6768 8.01256 12.9697 7.71967L16.7197 3.96967C16.8661 3.82322 17.0581 3.75 17.25 3.75C17.3517 3.75 17.4487 3.77024 17.5371 3.80691ZM3.75 6C3.75 5.58579 4.08579 5.25 4.5 5.25H9.75C10.1642 5.25 10.5 5.58579 10.5 6C10.5 6.41421 10.1642 6.75 9.75 6.75H4.5C4.08579 6.75 3.75 6.41421 3.75 6ZM3.75 12C3.75 11.5858 4.08579 11.25 4.5 11.25H11.25C11.6642 11.25 12 11.5858 12 12C12 12.4142 11.6642 12.75 11.25 12.75H4.5C4.08579 12.75 3.75 12.4142 3.75 12ZM4.5 17.25C4.08579 17.25 3.75 17.5858 3.75 18C3.75 18.4142 4.08579 18.75 4.5 18.75H17.25C17.6642 18.75 18 18.4142 18 18C18 17.5858 17.6642 17.25 17.25 17.25H4.5Z" fill="black"/>
</svg>
