<svg width="24" height="24" viewBox="0 0 24 24" fill="none" xmlns="http://www.w3.org/2000/svg">
<path d="M16.5 0.75C16.9142 0.75 17.25 1.08579 17.25 1.5V3H18.75C19.1642 3 19.5 3.33579 19.5 3.75C19.5 4.16421 19.1642 4.5 18.75 4.5H17.25V6C17.25 6.41421 16.9142 6.75 16.5 6.75C16.0858 6.75 15.75 6.41421 15.75 6V4.5H14.25C13.8358 4.5 13.5 4.16421 13.5 3.75C13.5 3.33579 13.8358 3 14.25 3H15.75V1.5C15.75 1.08579 16.0858 0.75 16.5 0.75Z" fill="black"/>
<path fill-rule="evenodd" clip-rule="evenodd" d="M9.69838 4.5014C9.93365 4.33773 10.2134 4.25 10.5 4.25C10.7866 4.25 11.0663 4.33773 11.3016 4.5014C11.5369 4.66506 11.7164 4.8968 11.8161 5.16547L11.8179 5.17017L13.6876 10.3136L18.8347 12.1854C19.1034 12.2851 19.3351 12.4648 19.4987 12.7001C19.6623 12.9353 19.75 13.2151 19.75 13.5016C19.75 13.7882 19.6623 14.0679 19.4987 14.3032C19.3351 14.5385 19.1034 14.7181 18.8347 14.8179L18.83 14.8196L13.6825 16.6916L11.8129 21.8345C11.7132 22.1032 11.5336 22.3349 11.2984 22.4986C11.0631 22.6623 10.7833 22.75 10.4967 22.75C10.2101 22.75 9.93038 22.6623 9.69511 22.4986C9.45983 22.3349 9.28029 22.1032 9.18059 21.8345L9.1787 21.8294L7.31235 16.6864L2.16529 14.8146C1.89661 14.7149 1.66491 14.5352 1.5013 14.2999C1.33769 14.0647 1.25 13.7849 1.25 13.4984C1.25 13.2118 1.33769 12.9321 1.5013 12.6968C1.66491 12.4615 1.89661 12.2819 2.1653 12.1821L2.1704 12.1802L7.31239 10.3136L9.18384 5.16546C9.28355 4.89679 9.4631 4.66506 9.69838 4.5014ZM10.5 5.93536L12.2944 10.8714C12.3645 11.0629 12.4756 11.2369 12.6198 11.3812C12.7641 11.5255 12.9381 11.6366 13.1296 11.7068L18.0651 13.5016L13.1356 15.2944L13.1331 15.2953C12.9419 15.3639 12.7679 15.4732 12.623 15.6156C12.4776 15.7587 12.365 15.9318 12.2933 16.1227L10.4968 21.0644L8.70641 16.1307L8.70565 16.1286C8.63548 15.9371 8.52442 15.7631 8.38017 15.6188C8.23591 15.4745 8.06195 15.3634 7.87037 15.2932L2.93508 13.4984L7.86828 11.7075L7.87037 11.7068C8.06195 11.6366 8.23591 11.5255 8.38017 11.3812C8.52442 11.2369 8.63548 11.0629 8.70565 10.8714L8.70627 10.8697L10.5 5.93536Z" fill="black"/>
<path d="M21.75 6.75C21.75 6.33579 21.4142 6 21 6C20.5858 6 20.25 6.33579 20.25 6.75V7.5H19.5C19.0858 7.5 18.75 7.83579 18.75 8.25C18.75 8.66421 19.0858 9 19.5 9H20.25V9.75C20.25 10.1642 20.5858 10.5 21 10.5C21.4142 10.5 21.75 10.1642 21.75 9.75V9H22.5C22.9142 9 23.25 8.66421 23.25 8.25C23.25 7.83579 22.9142 7.5 22.5 7.5H21.75V6.75Z" fill="black"/>
</svg>
