<svg width="24" height="24" viewBox="0 0 24 24" fill="none" xmlns="http://www.w3.org/2000/svg">
<path fill-rule="evenodd" clip-rule="evenodd" d="M12 2C12.4248 2 12.7692 2.3444 12.7692 2.76923V5.84615C12.7692 6.27099 12.4248 6.61538 12 6.61538C11.5752 6.61538 11.2308 6.27099 11.2308 5.84615V2.76923C11.2308 2.3444 11.5752 2 12 2Z" fill="black"/>
<path fill-rule="evenodd" clip-rule="evenodd" d="M19.0709 4.92963C19.3713 5.23003 19.3713 5.71708 19.0709 6.01749L16.8949 8.19345C16.5945 8.49385 16.1074 8.49385 15.807 8.19345C15.5066 7.89304 15.5066 7.40599 15.807 7.10559L17.983 4.92963C18.2834 4.62923 18.7705 4.62923 19.0709 4.92963Z" fill="black"/>
<path fill-rule="evenodd" clip-rule="evenodd" d="M17.3846 12C17.3846 11.5752 17.729 11.2308 18.1538 11.2308H21.2308C21.6556 11.2308 22 11.5752 22 12C22 12.4248 21.6556 12.7692 21.2308 12.7692H18.1538C17.729 12.7692 17.3846 12.4248 17.3846 12Z" fill="black"/>
<path fill-rule="evenodd" clip-rule="evenodd" d="M15.807 15.807C16.1074 15.5066 16.5945 15.5066 16.8949 15.807L19.0709 17.983C19.3713 18.2834 19.3713 18.7704 19.0709 19.0709C18.7704 19.3713 18.2834 19.3713 17.983 19.0709L15.807 16.8949C15.5066 16.5945 15.5066 16.1074 15.807 15.807Z" fill="black"/>
<path fill-rule="evenodd" clip-rule="evenodd" d="M12 17.3846C12.4248 17.3846 12.7692 17.729 12.7692 18.1538V21.2308C12.7692 21.6556 12.4248 22 12 22C11.5752 22 11.2308 21.6556 11.2308 21.2308V18.1538C11.2308 17.729 11.5752 17.3846 12 17.3846Z" fill="black"/>
<path fill-rule="evenodd" clip-rule="evenodd" d="M8.19295 15.807C8.49335 16.1074 8.49335 16.5945 8.19295 16.8949L6.01699 19.0709C5.71658 19.3713 5.22953 19.3713 4.92913 19.0709C4.62873 18.7705 4.62873 18.2834 4.92913 17.983L7.10509 15.807C7.40549 15.5066 7.89254 15.5066 8.19295 15.807Z" fill="black"/>
<path fill-rule="evenodd" clip-rule="evenodd" d="M2 12C2 11.5752 2.3444 11.2308 2.76923 11.2308H5.84615C6.27099 11.2308 6.61538 11.5752 6.61538 12C6.61538 12.4248 6.27099 12.7692 5.84615 12.7692H2.76923C2.3444 12.7692 2 12.4248 2 12Z" fill="black"/>
<path fill-rule="evenodd" clip-rule="evenodd" d="M4.92913 4.92963C5.22953 4.62923 5.71658 4.62923 6.01699 4.92963L8.19295 7.10559C8.49335 7.40599 8.49335 7.89304 8.19295 8.19345C7.89254 8.49385 7.40549 8.49385 7.10509 8.19345L4.92913 6.01749C4.62873 5.71708 4.62873 5.23003 4.92913 4.92963Z" fill="black"/>
</svg>
