<svg width="24" height="24" viewBox="0 0 24 24" fill="none" xmlns="http://www.w3.org/2000/svg">
<path fill-rule="evenodd" clip-rule="evenodd" d="M12.3779 1.60217C12.1444 1.46594 11.8556 1.46594 11.6221 1.60217L2.6221 6.85217C2.39168 6.98657 2.25 7.23325 2.25 7.5C2.25 7.76675 2.39168 8.01343 2.6221 8.14783L11.6221 13.3978C11.8556 13.5341 12.1444 13.5341 12.3779 13.3978L21.3779 8.14783C21.6083 8.01343 21.75 7.76675 21.75 7.5C21.75 7.23325 21.6083 6.98657 21.3779 6.85217L12.3779 1.60217ZM12 11.8817L4.48848 7.5L12 3.11828L19.5115 7.5L12 11.8817Z" fill="black"/>
<path d="M2.35229 11.6222C2.561 11.2644 3.02024 11.1436 3.37803 11.3523L12.0001 16.3818L20.6222 11.3523C20.98 11.1436 21.4392 11.2644 21.648 11.6222C21.8567 11.98 21.7358 12.4392 21.378 12.648L12.378 17.898C12.1445 18.0342 11.8557 18.0342 11.6222 17.898L2.62222 12.648C2.26443 12.4392 2.14358 11.98 2.35229 11.6222Z" fill="black"/>
<path d="M2.35229 16.1222C2.561 15.7644 3.02024 15.6436 3.37803 15.8523L12.0001 20.8818L20.6222 15.8523C20.98 15.6436 21.4392 15.7644 21.648 16.1222C21.8567 16.48 21.7358 16.9392 21.378 17.148L12.378 22.398C12.1445 22.5342 11.8557 22.5342 11.6222 22.398L2.62222 17.148C2.26443 16.9392 2.14358 16.48 2.35229 16.1222Z" fill="black"/>
</svg>
