<svg width="24" height="24" viewBox="0 0 24 24" fill="none" xmlns="http://www.w3.org/2000/svg">
<g clip-path="url(#clip0_7371_36294)">
<path d="M12 0.75C12.4142 0.75 12.75 1.08579 12.75 1.5V3.75C12.75 4.16421 12.4142 4.5 12 4.5C11.5858 4.5 11.25 4.16421 11.25 3.75V1.5C11.25 1.08579 11.5858 0.75 12 0.75Z" fill="black"/>
<path fill-rule="evenodd" clip-rule="evenodd" d="M6 12C6 8.68629 8.68629 6 12 6C15.3137 6 18 8.68629 18 12C18 15.3137 15.3137 18 12 18C8.68629 18 6 15.3137 6 12ZM12 7.5C9.51472 7.5 7.5 9.51472 7.5 12C7.5 14.4853 9.51472 16.5 12 16.5C14.4853 16.5 16.5 14.4853 16.5 12C16.5 9.51472 14.4853 7.5 12 7.5Z" fill="black"/>
<path d="M5.03033 3.96967C4.73744 3.67678 4.26256 3.67678 3.96967 3.96967C3.67678 4.26256 3.67678 4.73744 3.96967 5.03033L5.46967 6.53033C5.76256 6.82322 6.23744 6.82322 6.53033 6.53033C6.82322 6.23744 6.82322 5.76256 6.53033 5.46967L5.03033 3.96967Z" fill="black"/>
<path d="M6.53033 18.5303L5.03033 20.0303C4.73744 20.3232 4.26256 20.3232 3.96967 20.0303C3.67678 19.7374 3.67678 19.2626 3.96967 18.9697L5.46967 17.4697C5.76256 17.1768 6.23744 17.1768 6.53033 17.4697C6.82322 17.7626 6.82322 18.2374 6.53033 18.5303Z" fill="black"/>
<path d="M18.5303 6.53033L20.0303 5.03033C20.3232 4.73744 20.3232 4.26256 20.0303 3.96967C19.7374 3.67678 19.2626 3.67678 18.9697 3.96967L17.4697 5.46967C17.1768 5.76256 17.1768 6.23744 17.4697 6.53033C17.7626 6.82322 18.2374 6.82322 18.5303 6.53033Z" fill="black"/>
<path d="M18.5303 17.4697L20.0303 18.9697C20.3232 19.2626 20.3232 19.7374 20.0303 20.0303C19.7374 20.3232 19.2626 20.3232 18.9697 20.0303L17.4697 18.5303C17.1768 18.2374 17.1768 17.7626 17.4697 17.4697C17.7626 17.1768 18.2374 17.1768 18.5303 17.4697Z" fill="black"/>
<path d="M1.5 11.25C1.08579 11.25 0.75 11.5858 0.75 12C0.75 12.4142 1.08579 12.75 1.5 12.75H3.75C4.16421 12.75 4.5 12.4142 4.5 12C4.5 11.5858 4.16421 11.25 3.75 11.25H1.5Z" fill="black"/>
<path d="M12 19.5C12.4142 19.5 12.75 19.8358 12.75 20.25V22.5C12.75 22.9142 12.4142 23.25 12 23.25C11.5858 23.25 11.25 22.9142 11.25 22.5V20.25C11.25 19.8358 11.5858 19.5 12 19.5Z" fill="black"/>
<path d="M20.25 11.25C19.8358 11.25 19.5 11.5858 19.5 12C19.5 12.4142 19.8358 12.75 20.25 12.75H22.5C22.9142 12.75 23.25 12.4142 23.25 12C23.25 11.5858 22.9142 11.25 22.5 11.25H20.25Z" fill="black"/>
</g>
<defs>
<clipPath id="clip0_7371_36294">
<rect width="24" height="24" fill="white"/>
</clipPath>
</defs>
</svg>
