<svg width="24" height="24" viewBox="0 0 24 24" fill="none" xmlns="http://www.w3.org/2000/svg">
<path fill-rule="evenodd" clip-rule="evenodd" d="M3.75 3C3.33579 3 3 3.33579 3 3.75V12.44C3.00018 12.8373 3.15835 13.2187 3.43912 13.4998L12.7533 22.8111C13.0346 23.0922 13.4159 23.2501 13.8136 23.2501C14.2112 23.2501 14.5929 23.0919 14.8742 22.8109L22.8111 14.8711C23.0922 14.5898 23.2501 14.2084 23.2501 13.8108C23.2501 13.4131 23.092 13.0316 22.811 12.7503L13.4994 3.43875C13.2183 3.15798 12.837 3.00018 12.4397 3H3.75ZM4.5 12.4393L4.5 4.5H12.4393L21.7501 13.8108L13.8136 21.7501L4.5 12.4393ZM8.8125 7.875C8.8125 8.39277 8.39277 8.8125 7.875 8.8125C7.35723 8.8125 6.9375 8.39277 6.9375 7.875C6.9375 7.35723 7.35723 6.9375 7.875 6.9375C8.39277 6.9375 8.8125 7.35723 8.8125 7.875Z" fill="black"/>
</svg>
