<svg width="24" height="24" viewBox="0 0 40.63 42.11" fill="none" xmlns="http://www.w3.org/2000/svg">
  <path
    d="m40.31 27-4.11-3.5.08-.47c.09-.64.11-1.31.11-1.97 0-.82-.04-1.67-.19-2.45l4.11-3.49.09-.08c.11-.11.18-.25.21-.4.03-.15 0-.31-.05-.45-.84-2.53-2.28-4.94-4.06-6.93-.25-.29-.61-.39-.94-.24l-5.17 1.77-.43-.33c-1.18-.88-2.47-1.59-3.84-2.11L25.1 1.09l-.03-.11a.847.847 0 0 0-.68-.57c-2.68-.54-5.44-.54-8.12 0a.877.877 0 0 0-.71.68l-1.02 5.26-.46.19a14.98 14.98 0 0 0-3.81 2.26L5.1 7.03l-.11-.04a.803.803 0 0 0-.46.02.76.76 0 0 0-.37.26C2.35 9.26.9 11.67.07 14.2c-.07.16-.09.34-.04.51.05.17.15.32.29.42l4.11 3.49-.08.47c-.09.64-.11 1.31-.11 1.97-.01.82.05 1.64.19 2.45L.32 27l-.09.07a.778.778 0 0 0-.16.85c.84 2.53 2.28 4.93 4.06 6.93.25.29.61.39.94.25l5.17-1.77.38.3c1.19.9 2.5 1.62 3.89 2.14l1.02 5.26.03.11a.847.847 0 0 0 .68.57c1.34.24 2.68.39 4.06.39s2.72-.14 4.06-.39a.877.877 0 0 0 .71-.68l1.03-5.26.51-.21c1.35-.57 2.62-1.33 3.76-2.24l5.17 1.77.11.04c.3.08.6-.03.83-.29 1.78-1.99 3.22-4.4 4.06-6.93.07-.16.09-.34.04-.51a.784.784 0 0 0-.29-.42Zm-20 6.37c-6.82 0-12.34-5.52-12.34-12.32S13.49 8.73 20.31 8.73s12.35 5.52 12.35 12.32-5.53 12.32-12.34 12.32Z"
  />
  <path
    d="M20.31 12.63c-4.65 0-8.43 3.78-8.43 8.42s3.78 8.42 8.43 8.42 8.43-3.78 8.43-8.42-3.78-8.42-8.43-8.42Zm0 13.37c-2.74 0-4.96-2.22-4.96-4.95s2.23-4.95 4.96-4.95 4.96 2.22 4.96 4.95S23.04 26 20.31 26Z"
  />
</svg>
