<svg width="24" height="24" viewBox="0 0 24 24" fill="none" xmlns="http://www.w3.org/2000/svg">
<path d="M9.75 9C10.1642 9 10.5 9.33579 10.5 9.75V15.75C10.5 16.1642 10.1642 16.5 9.75 16.5C9.33579 16.5 9 16.1642 9 15.75V9.75C9 9.33579 9.33579 9 9.75 9Z" fill="black"/>
<path d="M15 15.75V9.75C15 9.33579 14.6642 9 14.25 9C13.8358 9 13.5 9.33579 13.5 9.75V15.75C13.5 16.1642 13.8358 16.5 14.25 16.5C14.6642 16.5 15 16.1642 15 15.75Z" fill="black"/>
<path fill-rule="evenodd" clip-rule="evenodd" d="M9.75 1.5C9.15326 1.5 8.58097 1.73705 8.15901 2.15901C7.73705 2.58097 7.5 3.15326 7.5 3.75V4.5H3.75C3.33579 4.5 3 4.83579 3 5.25C3 5.66421 3.33579 6 3.75 6H4.5V19.5C4.5 19.8978 4.65804 20.2794 4.93934 20.5607C5.22065 20.842 5.60218 21 6 21H18C18.3978 21 18.7794 20.842 19.0607 20.5607C19.342 20.2794 19.5 19.8978 19.5 19.5V6H20.25C20.6642 6 21 5.66421 21 5.25C21 4.83579 20.6642 4.5 20.25 4.5H16.5V3.75C16.5 3.15326 16.2629 2.58097 15.841 2.15901C15.419 1.73705 14.8467 1.5 14.25 1.5H9.75ZM15 4.5V3.75C15 3.55109 14.921 3.36032 14.7803 3.21967C14.6397 3.07902 14.4489 3 14.25 3H9.75C9.55109 3 9.36032 3.07902 9.21967 3.21967C9.07902 3.36032 9 3.55109 9 3.75V4.5H15ZM6 6V19.5H18V6H6Z" fill="black"/>
</svg>
