<svg width="24" height="24" fill="none" xmlns="http://www.w3.org/2000/svg"><path d="M15.375 3.056a1.554 1.554 0 0 0-1.02.896c-.082.207-.092.312-.106 1.133l-.016.905-.647.022c-.711.023-.909.065-1.371.284a3.02 3.02 0 0 0-1.459 1.487c-.224.494-.243.641-.265 2.107l-.02 1.35H7.532l-.023-.51c-.017-.382-.044-.568-.109-.74-.177-.473-.59-.839-1.056-.937C6 8.981 3 8.981 2.656 9.053c-.463.097-.868.454-1.063.937-.092.229-.093.24-.093 2.01 0 1.77.001 1.781.093 2.01.174.432.553.801.945.921.231.07 3.693.07 3.924 0 .238-.073.525-.277.699-.498.242-.306.322-.572.348-1.163l.023-.51h2.939l.02 1.35c.022 1.469.041 1.612.268 2.114a3.19 3.19 0 0 0 1.142 1.318c.513.328 1.026.458 1.814.458h.517l.017.91c.014.828.024.931.106 1.14.126.32.425.635.757.799l.266.131h5.244l.266-.131c.329-.162.63-.478.759-.799l.093-.23.012-2.42c.014-2.57.005-2.731-.174-3.084a1.702 1.702 0 0 0-.698-.673l-.22-.103h-5.32l-.22.103a1.697 1.697 0 0 0-.697.672c-.149.296-.183.558-.183 1.413v.804l-.51-.023c-.382-.017-.568-.044-.74-.109-.473-.177-.839-.59-.937-1.056-.074-.352-.074-6.336 0-6.688.097-.463.464-.879.928-1.053.183-.068.314-.083.741-.083h.518v.778c0 .428.02.873.045.99a1.51 1.51 0 0 0 1.285 1.194c.326.047 4.534.047 4.86 0a1.502 1.502 0 0 0 1.289-1.223c.032-.169.042-.946.033-2.659-.012-2.42-.012-2.42-.104-2.648a1.55 1.55 0 0 0-1.042-.898c-.314-.073-4.925-.072-5.231.002M20.24 6.76V9h-4.48V4.52h4.48v2.24M6 12.02v1.5H3v-3h3v1.5m14.24 5.24v2.26h-4.48V15h4.48v2.26" fill-rule="evenodd" fill="#000"/></svg>
