<svg width="24" height="24" viewBox="0 0 24 24" fill="none" xmlns="http://www.w3.org/2000/svg">
<path d="M12.75 8.56066V14.25C12.75 14.6642 12.4142 15 12 15C11.5858 15 11.25 14.6642 11.25 14.25V8.56066L9.53033 10.2803C9.23744 10.5732 8.76256 10.5732 8.46967 10.2803C8.17678 9.98744 8.17678 9.51256 8.46967 9.21967L11.4697 6.21967C11.5416 6.14776 11.6245 6.09351 11.7129 6.05691C11.8007 6.02051 11.8969 6.0003 11.9978 6L12 6L12.0022 6C12.1031 6.0003 12.1993 6.02051 12.2871 6.05691C12.3755 6.09351 12.4584 6.14776 12.5303 6.21967L15.5303 9.21967C15.8232 9.51256 15.8232 9.98744 15.5303 10.2803C15.2374 10.5732 14.7626 10.5732 14.4697 10.2803L12.75 8.56066Z" fill="black"/>
<path fill-rule="evenodd" clip-rule="evenodd" d="M4.5 3C3.67157 3 3 3.67157 3 4.5V19.5C3 20.3284 3.67157 21 4.5 21H19.5C20.3284 21 21 20.3284 21 19.5V4.5C21 3.67157 20.3284 3 19.5 3H4.5ZM4.5 19.5V15.75H7.18934L9.00059 17.5613C9.28168 17.842 9.66302 17.9998 10.0603 18H13.94C14.3373 17.9998 14.7186 17.8417 14.9997 17.561L16.8107 15.75H19.5V19.5H4.5ZM16.8103 14.25H19.5V4.5H4.5V14.25H7.18969C7.58698 14.2502 7.96832 14.408 8.24941 14.6887L10.0607 16.5H13.9393L15.7503 14.689C16.0314 14.4083 16.413 14.2502 16.8103 14.25Z" fill="black"/>
</svg>
