<svg width="24" height="24" viewBox="0 0 24 24" fill="none" xmlns="http://www.w3.org/2000/svg">
<path d="M11.25 5.56066V14.25C11.25 14.6642 11.5858 15 12 15C12.4142 15 12.75 14.6642 12.75 14.25V5.56066L15.2197 8.03033C15.5126 8.32322 15.9874 8.32322 16.2803 8.03033C16.5732 7.73744 16.5732 7.26256 16.2803 6.96967L12.5303 3.21967C12.4584 3.14776 12.3755 3.09351 12.2871 3.05691C12.1987 3.02024 12.1017 3 12 3C11.8983 3 11.8013 3.02024 11.7129 3.05691C11.6245 3.09351 11.5416 3.14776 11.4697 3.21967L7.71967 6.96967C7.42678 7.26256 7.42678 7.73744 7.71967 8.03033C8.01256 8.32322 8.48744 8.32322 8.78033 8.03033L11.25 5.56066Z" fill="black"/>
<path d="M3.75 13.5C4.16421 13.5 4.5 13.8358 4.5 14.25V19.5H19.5V14.25C19.5 13.8358 19.8358 13.5 20.25 13.5C20.6642 13.5 21 13.8358 21 14.25V19.5C21 19.8978 20.842 20.2794 20.5607 20.5607C20.2794 20.842 19.8978 21 19.5 21H4.5C4.10218 21 3.72065 20.842 3.43934 20.5607C3.15804 20.2794 3 19.8978 3 19.5V14.25C3 13.8358 3.33579 13.5 3.75 13.5Z" fill="black"/>
</svg>
