<svg width="24" height="24" viewBox="0 0 24 24" fill="none" xmlns="http://www.w3.org/2000/svg">
<path d="M17.0301 5.96948C16.7372 5.67659 16.2624 5.67659 15.9695 5.96948C15.6766 6.26237 15.6766 6.73725 15.9695 7.03014L16.7281 7.78877C17.021 8.08166 17.4959 8.08166 17.7888 7.78877C18.0816 7.49588 18.0816 7.021 17.7888 6.72811L17.0301 5.96948Z" fill="black"/>
<path d="M8.96585 15.0346C9.59432 15.6631 10.6133 15.6631 11.2417 15.0346C11.8702 14.4062 11.8702 13.3872 11.2417 12.7587C10.6133 12.1303 9.59432 12.1303 8.96585 12.7587C8.33738 13.3872 8.33738 14.4062 8.96585 15.0346Z" fill="black"/>
<path fill-rule="evenodd" clip-rule="evenodd" d="M15.4782 2.59067L11.6295 6.43932C10.738 6.32356 9.8045 6.60808 9.11968 7.29289L2.96022 13.4524C1.78865 14.6239 1.78865 16.5234 2.96022 17.695L6.30388 21.0386C7.47545 22.2102 9.37494 22.2102 10.5465 21.0386L16.706 14.8792C17.3255 14.2596 17.6174 13.4365 17.5817 12.6252L21.5472 8.65971C22.3282 7.87866 22.3282 6.61233 21.5472 5.83128L18.3066 2.59067C17.5255 1.80962 16.2592 1.80962 15.4782 2.59067ZM20.4865 6.89194L17.2459 3.65133C17.0507 3.45607 16.7341 3.45607 16.5388 3.65133L13.1212 7.06898L13.1612 7.10897C13.2303 7.16668 13.2974 7.22799 13.3623 7.29289L16.706 10.6365C16.7709 10.7014 16.8322 10.7686 16.8899 10.8377L17.0689 11.0167L20.4865 7.59905C20.6818 7.40378 20.6818 7.0872 20.4865 6.89194ZM10.1803 8.35355C10.7201 7.8138 11.5689 7.77138 12.1572 8.22631L15.7726 11.8417C16.2275 12.43 16.1851 13.2788 15.6453 13.8185L9.48586 19.978C8.90007 20.5638 7.95032 20.5638 7.36454 19.978L4.02088 16.6343C3.4351 16.0485 3.4351 15.0988 4.02088 14.513L10.1803 8.35355Z" fill="black"/>
</svg>
