<svg width="24" height="24" viewBox="0 0 24 24" fill="none" xmlns="http://www.w3.org/2000/svg">
<path fill-rule="evenodd" clip-rule="evenodd" d="M9.62495 3C13.1457 3.00003 15.9999 5.8542 15.9999 9.375C15.9999 11.6552 14.8019 13.6545 13.0019 14.7812C14.8151 15.3745 16.3964 16.4357 17.6787 17.8193L18.0742 18.2676L18.1201 18.3291C18.3338 18.6433 18.2795 19.0744 17.9824 19.3242C17.6852 19.5739 17.2512 19.5535 16.9785 19.2891L16.9257 19.2324L16.58 18.8408C14.8101 16.9295 12.4231 15.75 9.62495 15.75C6.64034 15.75 4.12341 17.0918 2.32417 19.2324C2.05771 19.5494 1.58461 19.5906 1.26753 19.3242C0.950477 19.0577 0.909329 18.5847 1.17573 18.2676C2.5226 16.6651 4.24282 15.4361 6.24702 14.7803C4.44757 13.6534 3.24995 11.6548 3.24995 9.375C3.24995 5.85418 6.10413 3 9.62495 3ZM9.62495 4.5C6.93256 4.5 4.74995 6.68261 4.74995 9.375C4.74995 12.0674 6.93256 14.25 9.62495 14.25C12.3173 14.25 14.4999 12.0674 14.4999 9.375C14.4999 6.68263 12.3173 4.50003 9.62495 4.5Z" fill="black"/>
<path d="M22.4697 10.9697C22.7626 10.6768 23.2373 10.6768 23.5302 10.9697C23.8231 11.2626 23.8231 11.7374 23.5302 12.0303L20.0302 15.5303C19.7373 15.8231 19.2625 15.8231 18.9697 15.5303L16.9697 13.5303L16.9179 13.4736C16.6776 13.1791 16.6951 12.7443 16.9697 12.4697C17.2443 12.1951 17.679 12.1777 17.9736 12.418L18.0302 12.4697L19.4999 13.9395L22.4697 10.9697Z" fill="black"/>
</svg>
