<svg width="24" height="24" viewBox="0 0 24 24" fill="none" xmlns="http://www.w3.org/2000/svg">
<path fill-rule="evenodd" clip-rule="evenodd" d="M3 9.75C3 7.26472 5.01472 5.25 7.5 5.25C9.98528 5.25 12 7.26472 12 9.75C12 11.201 11.3133 12.4915 10.2471 13.3144C12.1738 14.1336 13.7029 15.7786 14.2263 17.8131C14.3295 18.2143 14.0879 18.6232 13.6868 18.7264C13.2856 18.8295 12.8768 18.588 12.7736 18.1869C12.198 15.9495 9.97296 14.25 7.49994 14.25C5.02692 14.25 2.80185 15.9495 2.22629 18.1869C2.12309 18.588 1.71424 18.8295 1.31309 18.7264C0.911933 18.6232 0.67039 18.2143 0.773585 17.8131C1.29697 15.7786 2.82616 14.1335 4.75283 13.3144C3.6867 12.4915 3 11.2009 3 9.75ZM7.5 6.75C5.84315 6.75 4.5 8.09315 4.5 9.75C4.5 11.4069 5.84315 12.75 7.5 12.75C9.15685 12.75 10.5 11.4069 10.5 9.75C10.5 8.09315 9.15685 6.75 7.5 6.75Z" fill="black"/>
<path d="M13.5 7.5C13.5 7.08579 13.8358 6.75 14.25 6.75H23.25C23.6642 6.75 24 7.08579 24 7.5C24 7.91421 23.6642 8.25 23.25 8.25H14.25C13.8358 8.25 13.5 7.91421 13.5 7.5Z" fill="black"/>
<path d="M14.25 11.25C13.8358 11.25 13.5 11.5858 13.5 12C13.5 12.4142 13.8358 12.75 14.25 12.75H23.25C23.6642 12.75 24 12.4142 24 12C24 11.5858 23.6642 11.25 23.25 11.25H14.25Z" fill="black"/>
<path d="M15.75 16.5C15.75 16.0858 16.0858 15.75 16.5 15.75H23.25C23.6642 15.75 24 16.0858 24 16.5C24 16.9142 23.6642 17.25 23.25 17.25H16.5C16.0858 17.25 15.75 16.9142 15.75 16.5Z" fill="black"/>
</svg>
