<svg width="24" height="24" viewBox="0 0 24 24" fill="none" xmlns="http://www.w3.org/2000/svg">
<path fill-rule="evenodd" clip-rule="evenodd" d="M12 2.25C8.27208 2.25 5.25 5.27208 5.25 9C5.25 11.4639 6.57018 13.6195 8.54176 14.798C5.90407 15.664 3.72635 17.4974 2.35075 19.8743C2.14327 20.2328 2.2657 20.6917 2.62421 20.8991C2.98272 21.1066 3.44154 20.9842 3.64901 20.6257C5.34045 17.703 8.40021 15.75 11.9999 15.75C15.5996 15.75 18.6593 17.703 20.3507 20.6257C20.5582 20.9842 21.017 21.1066 21.3755 20.8991C21.7341 20.6917 21.8565 20.2328 21.649 19.8743C20.2734 17.4974 18.0958 15.664 15.4582 14.7981C17.4298 13.6196 18.75 11.464 18.75 9C18.75 5.27208 15.7279 2.25 12 2.25ZM6.75 9C6.75 6.1005 9.1005 3.75 12 3.75C14.8995 3.75 17.25 6.1005 17.25 9C17.25 11.8995 14.8995 14.25 12 14.25C9.1005 14.25 6.75 11.8995 6.75 9Z" fill="black"/>
</svg>
