<svg width="24" height="24" viewBox="0 0 24 24" fill="none" xmlns="http://www.w3.org/2000/svg">
<path fill-rule="evenodd" clip-rule="evenodd" d="M3.75 9.375C3.75 5.85418 6.60418 3 10.125 3C13.6458 3 16.5 5.85418 16.5 9.375C16.5 11.6544 15.3037 13.6544 13.5047 14.7814C15.508 15.4374 17.2277 16.6655 18.5742 18.2674C18.8407 18.5845 18.7997 19.0576 18.4826 19.3241C18.1655 19.5907 17.6924 19.5496 17.4259 19.2326C15.6266 17.0918 13.1097 15.75 10.125 15.75C7.14033 15.75 4.62341 17.0918 2.82416 19.2326C2.55765 19.5496 2.08455 19.5907 1.76746 19.3241C1.45037 19.0576 1.40937 18.5845 1.67588 18.2674C3.0223 16.6655 4.74199 15.4374 6.7453 14.7814C4.9463 13.6544 3.75 11.6544 3.75 9.375ZM10.125 4.5C7.43261 4.5 5.25 6.68261 5.25 9.375C5.25 12.0674 7.43261 14.25 10.125 14.25C12.8174 14.25 15 12.0674 15 9.375C15 6.68261 12.8174 4.5 10.125 4.5Z" fill="black"/>
<path d="M21.75 10.5C21.75 10.0858 21.4142 9.75 21 9.75C20.5858 9.75 20.25 10.0858 20.25 10.5V12H18.75C18.3358 12 18 12.3358 18 12.75C18 13.1642 18.3358 13.5 18.75 13.5H20.25V15C20.25 15.4142 20.5858 15.75 21 15.75C21.4142 15.75 21.75 15.4142 21.75 15V13.5H23.25C23.6642 13.5 24 13.1642 24 12.75C24 12.3358 23.6642 12 23.25 12H21.75V10.5Z" fill="black"/>
</svg>
