<svg width="24" height="24" viewBox="0 0 24 24" fill="none" xmlns="http://www.w3.org/2000/svg">
<path fill-rule="evenodd" clip-rule="evenodd" d="M2.25 5.25C2.25 4.42157 2.92157 3.75 3.75 3.75H20.25C21.0784 3.75 21.75 4.42157 21.75 5.25V18C21.75 18.8284 21.0784 19.5 20.25 19.5H18.75V21C18.75 21.4142 18.4142 21.75 18 21.75C17.5858 21.75 17.25 21.4142 17.25 21V19.5H6.75V21C6.75 21.4142 6.41421 21.75 6 21.75C5.58579 21.75 5.25 21.4142 5.25 21V19.5H3.75C2.92157 19.5 2.25 18.8284 2.25 18V5.25ZM20.25 5.25V11.25H18.6878C18.3307 9.12172 16.4797 7.5 14.25 7.5C11.7647 7.5 9.75 9.51472 9.75 12C9.75 14.4853 11.7647 16.5 14.25 16.5C16.4797 16.5 18.3307 14.8783 18.6878 12.75H20.25V18H3.75V5.25H20.25ZM17.1555 11.25H15.3272C15.0901 10.91 14.696 10.6875 14.25 10.6875C13.5251 10.6875 12.9375 11.2751 12.9375 12C12.9375 12.7249 13.5251 13.3125 14.25 13.3125C14.696 13.3125 15.0901 13.09 15.3272 12.75H17.1555C16.8225 14.0439 15.6479 15 14.25 15C12.5931 15 11.25 13.6569 11.25 12C11.25 10.3431 12.5931 9 14.25 9C15.6479 9 16.8225 9.95608 17.1555 11.25Z" fill="black"/>
</svg>
