<svg width="24" height="24" viewBox="0 0 24 24" fill="none" xmlns="http://www.w3.org/2000/svg">
<path fill-rule="evenodd" clip-rule="evenodd" d="M15 3.00001C15 2.71356 14.8368 2.45212 14.5795 2.32627C14.3222 2.20042 14.0157 2.23213 13.7895 2.40799L7.24267 7.50001H3C2.60217 7.50001 2.22064 7.65804 1.93934 7.93935C1.65804 8.22065 1.5 8.60218 1.5 9.00001V15C1.5 15.3978 1.65803 15.7794 1.93934 16.0607C2.22065 16.342 2.60218 16.5 3 16.5H7.24267L13.7895 21.592C14.0157 21.7679 14.3222 21.7996 14.5795 21.6737C14.8368 21.5479 15 21.2865 15 21V3.00001ZM8.25 8.61682L13.5 4.53349V19.4665L8.25 15.3832V8.61682ZM6.75 9.00001H3V15H6.75V9.00001Z" fill="black"/>
<path d="M17.5043 9.45476C17.8151 9.18099 18.2891 9.21104 18.5628 9.52188C19.166 10.2067 19.4987 11.0879 19.4987 12.0004C19.4987 12.9129 19.166 13.7941 18.5628 14.4789C18.2891 14.7898 17.8151 14.8198 17.5043 14.546C17.1935 14.2723 17.1634 13.7984 17.4372 13.4875C17.799 13.0766 17.9987 12.5479 17.9987 12.0004C17.9987 11.4529 17.799 10.9242 17.4372 10.5133C17.1634 10.2024 17.1935 9.72853 17.5043 9.45476Z" fill="black"/>
<path d="M21.3405 7.00001C21.0644 6.69127 20.5902 6.66485 20.2815 6.94099C19.9728 7.21713 19.9463 7.69127 20.2225 8.00001C21.2064 9.10005 21.7503 10.5241 21.7503 12C21.7503 13.4759 21.2064 14.9 20.2225 16C19.9463 16.3087 19.9728 16.7829 20.2815 17.059C20.5902 17.3352 21.0644 17.3087 21.3405 17C22.5704 15.625 23.2503 13.8448 23.2503 12C23.2503 10.1552 22.5704 8.37506 21.3405 7.00001Z" fill="black"/>
</svg>
