<svg width="24" height="24" viewBox="0 0 24 24" fill="none" xmlns="http://www.w3.org/2000/svg">
<path d="M7 14C8.10457 14 9 13.1046 9 12C9 10.8954 8.10457 10 7 10C5.89543 10 5 10.8954 5 12C5 13.1046 5.89543 14 7 14Z" fill="black"/>
<path fill-rule="evenodd" clip-rule="evenodd" d="M7 6C9.42149 6 11.5079 7.43447 12.456 9.5H21.5C22.3284 9.5 23 10.1716 23 11V13C23 13.8284 22.3284 14.5 21.5 14.5H20.5V16.5C20.5 17.3284 19.8284 18 19 18H17C16.1716 18 15.5 17.3284 15.5 16.5V14.5H12.456C11.5079 16.5655 9.42149 18 7 18C3.68629 18 1 15.3137 1 12C1 8.68629 3.68629 6 7 6ZM11.0927 10.1257L11.494 11H21.5V13H19V16.5H17V13H11.494L11.0927 13.8743C10.3801 15.4268 8.81383 16.5 7 16.5C4.51472 16.5 2.5 14.4853 2.5 12C2.5 9.51472 4.51472 7.5 7 7.5C8.81383 7.5 10.3801 8.5732 11.0927 10.1257Z" fill="black"/>
</svg>
