<svg width="24" height="24" viewBox="0 0 24 24" fill="none" xmlns="http://www.w3.org/2000/svg">
<path fill-rule="evenodd" clip-rule="evenodd" d="M3.4391 16.5C2.85331 17.0858 2.85331 18.0356 3.4391 18.6214L5.37811 20.5604C5.9639 21.1462 6.91365 21.1462 7.49943 20.5604L17.0064 11.0534C17.0145 11.046 17.0225 11.0383 17.0303 11.0305C17.0382 11.0226 17.0458 11.0147 17.0533 11.0065L20.5601 7.49968C21.1459 6.91389 21.1459 5.96415 20.5601 5.37836L18.6211 3.43934C18.0353 2.85355 17.0856 2.85355 16.4998 3.43934L3.4391 16.5ZM16.4995 9.43899L19.4995 6.43902L17.5605 4.5L14.5605 7.49997L16.4995 9.43899ZM13.4998 8.56063L4.49976 17.5607L6.43877 19.4997L15.4388 10.4996L13.4998 8.56063Z" fill="black"/>
<path d="M7.50002 3.00016C7.91423 3.00016 8.25002 3.33594 8.25002 3.75016V5.25016H9.75002C10.1642 5.25016 10.5 5.58594 10.5 6.00016C10.5 6.41437 10.1642 6.75016 9.75002 6.75016H8.25002V8.25016C8.25002 8.66437 7.91423 9.00016 7.50002 9.00016C7.0858 9.00016 6.75002 8.66437 6.75002 8.25016V6.75016H5.25002C4.8358 6.75016 4.50002 6.41437 4.50002 6.00016C4.50002 5.58594 4.8358 5.25016 5.25002 5.25016H6.75002V3.75016C6.75002 3.33594 7.0858 3.00016 7.50002 3.00016Z" fill="black"/>
<path d="M21 12.0002C21 11.5859 20.6642 11.2502 20.25 11.2502C19.8358 11.2502 19.5 11.5859 19.5 12.0002V13.5002H18C17.5858 13.5002 17.25 13.8359 17.25 14.2502C17.25 14.6644 17.5858 15.0002 18 15.0002H19.5V16.5002C19.5 16.9144 19.8358 17.2502 20.25 17.2502C20.6642 17.2502 21 16.9144 21 16.5002V15.0002H22.5C22.9142 15.0002 23.25 14.6644 23.25 14.2502C23.25 13.8359 22.9142 13.5002 22.5 13.5002H21V12.0002Z" fill="black"/>
<path d="M15.75 16.5002C16.1642 16.5002 16.5 16.8359 16.5 17.2502V18.0002H17.25C17.6642 18.0002 18 18.3359 18 18.7502C18 19.1644 17.6642 19.5002 17.25 19.5002H16.5V20.2502C16.5 20.6644 16.1642 21.0002 15.75 21.0002C15.3358 21.0002 15 20.6644 15 20.2502V19.5002H14.25C13.8358 19.5002 13.5 19.1644 13.5 18.7502C13.5 18.3359 13.8358 18.0002 14.25 18.0002H15V17.2502C15 16.8359 15.3358 16.5002 15.75 16.5002Z" fill="black"/>
</svg>
