<svg width="24" height="24" viewBox="0 0 24 24" fill="none" xmlns="http://www.w3.org/2000/svg">
<path d="M12 9C12.4142 9 12.75 9.33579 12.75 9.75V13.5C12.75 13.9142 12.4142 14.25 12 14.25C11.5858 14.25 11.25 13.9142 11.25 13.5V9.75C11.25 9.33579 11.5858 9 12 9Z" fill="black"/>
<path d="M12 17.8125C12.5178 17.8125 12.9375 17.3928 12.9375 16.875C12.9375 16.3572 12.5178 15.9375 12 15.9375C11.4822 15.9375 11.0625 16.3572 11.0625 16.875C11.0625 17.3928 11.4822 17.8125 12 17.8125Z" fill="black"/>
<path fill-rule="evenodd" clip-rule="evenodd" d="M10.09 3.34287L1.88101 17.7086C1.04292 19.1753 2.10193 21.0001 3.79114 21.0001H20.2092C21.8984 21.0001 22.9574 19.1753 22.1193 17.7086L13.9103 3.34287C13.0657 1.86488 10.9346 1.86488 10.09 3.34287ZM3.18337 18.4528L11.3924 4.08708C11.6611 3.61681 12.3392 3.61681 12.6079 4.08708L20.8169 18.4528C21.0836 18.9195 20.7466 19.5001 20.2092 19.5001H3.79114C3.25367 19.5001 2.91671 18.9195 3.18337 18.4528Z" fill="black"/>
</svg>
