<svg width="24" height="24" viewBox="0 0 24 24" fill="none" xmlns="http://www.w3.org/2000/svg">
<path d="M12 6.75C12.4142 6.75 12.75 7.08579 12.75 7.5V12.75C12.75 13.1642 12.4142 13.5 12 13.5C11.5858 13.5 11.25 13.1642 11.25 12.75V7.5C11.25 7.08579 11.5858 6.75 12 6.75Z" fill="black"/>
<path d="M12.9375 16.125C12.9375 16.6428 12.5178 17.0625 12 17.0625C11.4822 17.0625 11.0625 16.6428 11.0625 16.125C11.0625 15.6072 11.4822 15.1875 12 15.1875C12.5178 15.1875 12.9375 15.6072 12.9375 16.125Z" fill="black"/>
<path fill-rule="evenodd" clip-rule="evenodd" d="M2.25 12C2.25 6.61522 6.61522 2.25 12 2.25C17.3848 2.25 21.75 6.61522 21.75 12C21.75 17.3848 17.3848 21.75 12 21.75C6.61522 21.75 2.25 17.3848 2.25 12ZM12 3.75C7.44365 3.75 3.75 7.44365 3.75 12C3.75 16.5563 7.44365 20.25 12 20.25C16.5563 20.25 20.25 16.5563 20.25 12C20.25 7.44365 16.5563 3.75 12 3.75Z" fill="black"/>
</svg>
