<svg width="24" height="24" viewBox="0 0 24 24" fill="none" xmlns="http://www.w3.org/2000/svg">
<path d="M12 4.5C8.27119 4.5 4.6576 5.79231 1.77441 8.15694C1.45414 8.41961 1.40744 8.89218 1.67011 9.21246C1.93278 9.53273 2.40536 9.57943 2.72563 9.31676C5.34061 7.1721 8.61805 6 12 6C15.382 6 18.6594 7.1721 21.2744 9.31676C21.5947 9.57943 22.0673 9.53273 22.3299 9.21246C22.5926 8.89218 22.5459 8.41961 22.2256 8.15694C19.3424 5.79231 15.7289 4.5 12 4.5Z" fill="black"/>
<path d="M12.9375 19.125C12.9375 19.6428 12.5178 20.0625 12 20.0625C11.4822 20.0625 11.0625 19.6428 11.0625 19.125C11.0625 18.6072 11.4822 18.1875 12 18.1875C12.5178 18.1875 12.9375 18.6072 12.9375 19.125Z" fill="black"/>
<path d="M4.78451 11.5055C6.83819 9.87969 9.38073 8.99512 12 8.99512C14.6193 8.99512 17.1619 9.87969 19.2155 11.5055C19.5403 11.7626 19.5952 12.2343 19.3381 12.559C19.081 12.8838 18.6093 12.9386 18.2845 12.6815C16.4958 11.2656 14.2814 10.4951 12 10.4951C9.7187 10.4951 7.50423 11.2656 5.71555 12.6815C5.39078 12.9386 4.91909 12.8838 4.66199 12.559C4.40489 12.2343 4.45975 11.7626 4.78451 11.5055Z" fill="black"/>
<path d="M12.0001 13.499C10.494 13.499 9.02677 13.9762 7.80888 14.8621C7.47391 15.1058 7.39988 15.5748 7.64354 15.9098C7.88719 16.2448 8.35626 16.3188 8.69123 16.0751C9.65272 15.3758 10.8111 14.999 12.0001 14.999C13.189 14.999 14.3474 15.3758 15.3089 16.0751C15.6438 16.3188 16.1129 16.2448 16.3566 15.9098C16.6002 15.5748 16.5262 15.1058 16.1912 14.8621C14.9733 13.9762 13.5061 13.499 12.0001 13.499Z" fill="black"/>
</svg>
