<svg width="24" height="24" viewBox="0 0 24 24" fill="none" xmlns="http://www.w3.org/2000/svg">
<path fill-rule="evenodd" clip-rule="evenodd" d="M20.7305 3.17418C20.9013 3.31668 21 3.52761 21 3.75001V10.5C21 10.9142 20.6642 11.25 20.25 11.25H12.75C12.3358 11.25 12 10.9142 12 10.5V5.11407C12 4.75162 12.2592 4.44103 12.6158 4.37617L20.1158 3.01211C20.3346 2.97231 20.5598 3.03168 20.7305 3.17418ZM13.5 5.73997V9.75001H19.5V4.64872L13.5 5.73997Z" fill="black"/>
<path fill-rule="evenodd" clip-rule="evenodd" d="M3.75 12.75C3.33579 12.75 3 13.0858 3 13.5V17.25C3 17.6124 3.2592 17.923 3.6158 17.9879L9.6158 19.0791C9.83461 19.1189 10.0598 19.0596 10.2305 18.9171C10.4013 18.7746 10.5 18.5637 10.5 18.3412V13.5C10.5 13.0858 10.1642 12.75 9.75 12.75H3.75ZM4.5 16.6241V14.25H9V17.4425L4.5 16.6241Z" fill="black"/>
<path fill-rule="evenodd" clip-rule="evenodd" d="M12.75 12.75C12.3358 12.75 12 13.0858 12 13.5V18.8869C12 19.2494 12.2592 19.56 12.6159 19.6248L20.1159 20.9879C20.3347 21.0277 20.5598 20.9683 20.7306 20.8258C20.9013 20.6833 21 20.4724 21 20.25V13.5C21 13.0858 20.6642 12.75 20.25 12.75H12.75ZM13.5 18.2609V14.25H19.5V19.3514L13.5 18.2609Z" fill="black"/>
<path fill-rule="evenodd" clip-rule="evenodd" d="M10.5 5.65919C10.5 5.43679 10.4013 5.22586 10.2305 5.08336C10.0598 4.94086 9.83461 4.88149 9.6158 4.92129L3.6158 6.01254C3.2592 6.0774 3 6.38799 3 6.75044V10.5004C3 10.9146 3.33579 11.2504 3.75 11.2504H9.75C10.1642 11.2504 10.5 10.9146 10.5 10.5004V5.65919ZM4.5 9.75044V7.37633L9 6.5579V9.75044H4.5Z" fill="black"/>
</svg>
