<svg width="24" height="24" viewBox="0 0 24 24" fill="none" xmlns="http://www.w3.org/2000/svg">
<path d="M19.7199 14.4696C20.0128 14.1767 20.4875 14.1767 20.7804 14.4696C21.0731 14.7625 21.0733 15.2373 20.7804 15.5301L15.5304 20.7801C15.2376 21.0729 14.7628 21.0728 14.4699 20.7801L12.2199 18.5301C11.927 18.2373 11.9271 17.7625 12.2199 17.4696C12.5128 17.1767 12.9875 17.1767 13.2804 17.4696L15.0002 19.1893L19.7199 14.4696Z" fill="black"/>
<path d="M18.2199 4.7196C18.5128 4.4267 18.9875 4.4267 19.2804 4.7196C19.5731 5.01251 19.5733 5.48732 19.2804 5.78014L5.78043 19.2801C5.4876 19.5729 5.01276 19.5728 4.71989 19.2801C4.42703 18.9873 4.4271 18.5125 4.71989 18.2196L18.2199 4.7196Z" fill="black"/>
<path d="M8.87125 3.56725C9.1641 3.27441 9.6389 3.2745 9.9318 3.56725C10.2247 3.86014 10.2247 4.33491 9.9318 4.6278L7.80973 6.74889L9.9318 8.87096C10.2247 9.16383 10.2246 9.63861 9.9318 9.93151C9.63891 10.2244 9.16415 10.2244 8.87125 9.93151L6.74918 7.81042L4.62907 9.93151C4.33617 10.2244 3.86044 10.2244 3.56754 9.93151C3.27492 9.63874 3.2751 9.16384 3.56754 8.87096L5.68864 6.74889L3.56754 4.62878C3.27492 4.33601 3.2751 3.86111 3.56754 3.56823C3.86044 3.27534 4.33617 3.27534 4.62907 3.56823L6.74918 5.68835L8.87125 3.56725Z" fill="black"/>
</svg>
