<svg viewBox="0 0 80 80" xmlns="http://www.w3.org/2000/svg" xmlns:xlink="http://www.w3.org/1999/xlink"><linearGradient id="a" gradientUnits="userSpaceOnUse" x1="76.73" x2="76.84" y1="67.42" y2="67.42"><stop offset="0" stop-color="#587e8d" stop-opacity=".5"/><stop offset=".12" stop-color="#587e8d" stop-opacity=".45"/><stop offset=".3" stop-color="#587e8d" stop-opacity=".32"/><stop offset=".5" stop-color="#587e8d" stop-opacity=".11"/><stop offset=".6" stop-color="#587e8d" stop-opacity="0"/><stop offset="1" stop-color="#587e8d" stop-opacity="0"/></linearGradient><linearGradient id="b" gradientUnits="userSpaceOnUse" x1="95.28" x2="15.08" y1="34.68" y2="1.94"><stop offset=".57" stop-color="#fff" stop-opacity="0"/><stop offset=".79" stop-color="#fff" stop-opacity=".3"/><stop offset=".87" stop-color="#fff" stop-opacity=".42"/><stop offset="1" stop-color="#fff" stop-opacity=".6"/></linearGradient><linearGradient id="c" x1="86.22" x2="65.71" xlink:href="#a" y1="40.07" y2="38.75"/><linearGradient id="d" x1="84.44" x2="63.92" xlink:href="#a" y1="67.91" y2="66.59"/><linearGradient id="e" x1="63.26" x2="63.37" xlink:href="#a" y1="73.43" y2="73.43"/><linearGradient id="f" x1="81.8" x2="1.6" xlink:href="#b" y1="40.69" y2="7.95"/><linearGradient id="g" x1="72.75" x2="52.23" xlink:href="#a" y1="46.08" y2="44.76"/><linearGradient id="h" x1="70.97" x2="50.45" xlink:href="#a" y1="73.92" y2="72.6"/><linearGradient id="i" x1="49.79" x2="49.9" xlink:href="#a" y1="79.86" y2="79.86"/><linearGradient id="j" x1="68.33" x2="-11.87" xlink:href="#b" y1="47.12" y2="14.38"/><linearGradient id="k" gradientUnits="userSpaceOnUse" x1="64.19" x2="-1.72" y1="77.77" y2="31.52"><stop offset=".13" stop-color="#587e8d" stop-opacity=".5"/><stop offset=".29" stop-color="#587e8d" stop-opacity=".3"/><stop offset=".46" stop-color="#587e8d" stop-opacity=".13"/><stop offset=".62" stop-color="#587e8d" stop-opacity=".03"/><stop offset=".75" stop-color="#587e8d" stop-opacity="0"/><stop offset="1" stop-color="#587e8d" stop-opacity="0"/></linearGradient><linearGradient id="l" x1="57.49" x2="36.98" xlink:href="#a" y1="80.35" y2="79.04"/><g opacity=".9"><path d="m77 33.1v1.08 2.62l-35.67-20.53-11.44-6.61-2.61-1.5v-3.72l2.63 1.56 5 2.9 1.68-1.3 4.41 2.47.13.07 4.87 2.8 1.41 3.08.74.43-1.32-2.95s0-.08 0-.09l3.76 2.17 1.57 3.2z" fill="#cdd8dd"/><path d="m41.32 16.27-.08 30.89-13.68-7.9a.8.8 0 0 1 -.37-.64l.08-30.46z" fill="#eff2f4"/><path d="m76.93 36.81-.08 28.27v2.21a.36.36 0 0 1 0 .19.1.1 0 0 1 -.06 0 .25.25 0 0 1 -.26 0l-35.3-20.32v-2.64l.08-28.25z" fill="#fff"/><path d="m76.84 67.3a.36.36 0 0 1 0 .19l.06-.06a.32.32 0 0 0 -.06-.13z" fill="url(#a)" opacity=".8"/><path d="m77 30.07v.39 2.64l-24.77-14.27-1.57-3.2-3.75-2.17s0 .05 0 .09l1.32 2.95-.74-.43-1.44-3.07-4.87-2.84-.18-.09-4.32-2.52-1.74 1.3-5-2.9-2.65-1.51v-3c0-.14.06-.23.15-.25a.29.29 0 0 1 .23 0l2.24 1.29 24.38 14.07 22.3 12.88a.81.81 0 0 1 .41.64z" fill="#651fff"/><path d="m77 30.07v.39 2.64l-24.77-14.27-1.57-3.2-3.75-2.17s0 .05 0 .09l1.32 2.95-.74-.43-1.44-3.07-4.87-2.84-.18-.09-4.32-2.52-1.74 1.3-5-2.9-2.65-1.51v-3c0-.14.06-.23.15-.25a.29.29 0 0 1 .23 0l2.24 1.29 24.38 14.07 22.3 12.88a.81.81 0 0 1 .41.64z" fill="url(#b)" opacity=".7"/><path d="m36.97 23.74-.07-.04z" fill="#6e17ff"/><path d="m28.9 3.28a1 1 0 0 1 .48.82c0 .31-.22.43-.48.28a1.05 1.05 0 0 1 -.48-.83c0-.3.22-.42.48-.27z" fill="#fff"/><path d="m30.24 4.05a1 1 0 0 1 .48.82c0 .31-.21.43-.48.27a1 1 0 0 1 -.47-.82c0-.32.23-.43.47-.27z" fill="#fff"/><path d="m31.63 4.9a1 1 0 0 1 .48.83c0 .3-.22.42-.48.27a1.06 1.06 0 0 1 -.48-.83c0-.3.22-.42.48-.27z" fill="#fff"/><path d="m49.3 15.55a1.39 1.39 0 0 1 .63 1.09c0 .4-.28.56-.63.36a1.39 1.39 0 0 1 -.63-1.09c0-.4.33-.57.63-.36z" fill="#6e17ff"/><path d="m72.69 31.49a.71.71 0 0 1 .32.56v1.46c0 .21-.15.29-.33.19l-39-22.5a.74.74 0 0 1 -.33-.56v-1.47c0-.2.15-.29.32-.18z" fill="#fff"/><path d="m71.8 31.47a0 0 0 0 1 0 0l.13.55.43.24s0 0 0 0l-.35.09.13.54s0 0 0 0l-.34-.48-.35.09s0 0 0 0l.13-.39-.35-.48s0 0 0 0l.42.25.14-.38z" fill="#651fff"/><path d="m75.79 33.61v.1l-1.48-.86v-.1z" fill="#6e17ff"/><path d="m75.79 34.08v.11l-1.48-.86v-.11z" fill="#6e17ff"/><path d="m75.79 34.56v.11l-1.48-.86v-.11z" fill="#6e17ff"/><path d="m75.79 35.04v.1l-1.48-.86v-.1z" fill="#6e17ff"/><path d="m28.49 6.32a.17.17 0 0 1 .06.06s0 .12 0 .14l-.37.29 1.17.67a.19.19 0 0 1 .09.15.06.06 0 0 1 -.09 0l-1.14-.63.34.64v.14h-.06l-.07-.07-.42-.87a.14.14 0 0 1 0-.06v-.07l.49-.38s-.02-.02 0-.01z" fill="#fff"/><path d="m27.92 6.77a0 0 0 0 0 0 0 .14.14 0 0 1 0 0z" fill="#fff"/><path d="m31.2 7.85a.16.16 0 0 1 .07.07l.48.94v.14l-.49.32h-.06l-.06-.06a.12.12 0 0 1 0-.15l.35-.23-1.16-.68a.17.17 0 0 1 -.09-.15c0-.05 0-.07.09-.05l1.17.68-.37-.68c0-.06 0-.12 0-.14s.05-.02.07-.01z" fill="#fff"/><path d="m31.76 8.97v.01z" fill="#fff"/><path d="m27.87 19.14.06.09-.05.04-.06-.09z" fill="#6e17ff"/><path d="m41.16 11.13a1.32 1.32 0 0 1 .6 1c0 .38-.27.54-.6.35l-3.59-2.07a1.37 1.37 0 0 1 -.57-1c0-.38.27-.54.61-.35z" fill="#651fff"/><path d="m54.29 16.55-24.37-14.07-2.24-1.29a.29.29 0 0 0 -.23 0l2.6-1.19a.29.29 0 0 1 .25 0l48.91 28.3a.82.82 0 0 1 .37.65v3l-2.58 1.15v-2.64-.39a.81.81 0 0 0 -.37-.64z" fill="#5130c9"/><path d="m79.55 35.7-.08 30.47a.28.28 0 0 1 -.12.24l-2.6 1.11a.1.1 0 0 0 .06 0 .32.32 0 0 0 0-.18v-2.25l.08-28.27z" fill="#eff2f4"/><path d="m79.55 35.69-.08 30.47c0 .12 0 .21-.12.24l-2.56 1.1a.36.36 0 0 0 0-.19.3.3 0 0 1 0 .18.09.09 0 0 1 -.06.06.27.27 0 0 1 -.26 0l-35.24-20.38-13.67-7.89a.82.82 0 0 1 -.37-.65l.08-30.46 14.05 8.11 35.61 20.55z" fill="url(#c)" opacity=".8"/><path d="m76.84 67.3a.36.36 0 0 1 0 .19l.06-.06a.32.32 0 0 0 -.06-.13z" fill="url(#d)" opacity=".8"/><path d="m76.95 33.1-.02 3.72 2.62-1.12.03-3.73z" fill="#b0c1c6"/><g fill="#eff2f4"><path d="m50.63 31.43a.57.57 0 0 1 .26.44c0 .17-.12.23-.26.15l-7.12-4.11a.57.57 0 0 1 -.26-.45c0-.16.12-.23.26-.14z"/><path d="m58.82 29.77a.57.57 0 0 1 .26.45.16.16 0 0 1 -.26.15l-15.31-8.84a.59.59 0 0 1 -.26-.45.16.16 0 0 1 .26-.15z"/><path d="m58.82 31.88a.59.59 0 0 1 .26.45.16.16 0 0 1 -.26.15l-15.31-8.84a.57.57 0 0 1 -.26-.45.16.16 0 0 1 .26-.15z"/><path d="m58.82 33.79a.57.57 0 0 1 .26.45.16.16 0 0 1 -.26.15l-15.31-8.84a.59.59 0 0 1 -.26-.45.16.16 0 0 1 .26-.15z"/></g><path d="m37.22 17.78a.59.59 0 0 1 .26.45.16.16 0 0 1 -.26.15l-7.12-4.11a.57.57 0 0 1 -.26-.45.16.16 0 0 1 .26-.15z" fill="#fff"/><path d="m37.22 19.91a.57.57 0 0 1 .26.45c0 .16-.12.23-.26.14l-7.12-4.11a.57.57 0 0 1 -.26-.44c0-.17.12-.23.26-.15z" fill="#fff"/></g><g opacity=".9"><path d="m63.48 39.11v1.08 2.62l-35.62-20.53-11.45-6.61-2.6-1.5v-3.72l2.62 1.55 5 2.91 1.69-1.3 4.35 2.5.14.08 4.91 2.81 1.48 3.07.74.43-1.31-2.94s0-.09 0-.09l3.75 2.17 1.58 3.2z" fill="#cdd8dd"/><path d="m27.85 22.28-.09 30.89-13.68-7.9a.82.82 0 0 1 -.37-.64l.09-30.46z" fill="#eff2f4"/><path d="m63.46 42.82-.08 28.27v2.21a.36.36 0 0 1 0 .19l-.06.05a.25.25 0 0 1 -.26 0l-35.3-20.37v-2.64l.08-28.25z" fill="#fff"/><path d="m63.37 73.31a.36.36 0 0 1 0 .19l.06-.06a.3.3 0 0 0 -.06-.13z" fill="url(#e)" opacity=".8"/><path d="m63.49 36.08v.39 2.64l-24.73-14.27-1.57-3.2-3.75-2.17s0 0 0 .08l1.26 2.95-.7-.43-1.42-3.07-4.87-2.83-.14-.08-4.37-2.53-1.71 1.29-5-2.9-2.61-1.51v-3c0-.14.06-.23.14-.25a.28.28 0 0 1 .23 0l2.24 1.29 24.32 14.08 22.3 12.87a.84.84 0 0 1 .38.65z" fill="#651fff"/><path d="m63.49 36.08v.39 2.64l-24.73-14.27-1.57-3.2-3.75-2.17s0 0 0 .08l1.26 2.95-.7-.43-1.42-3.07-4.87-2.83-.14-.08-4.37-2.53-1.71 1.29-5-2.9-2.61-1.51v-3c0-.14.06-.23.14-.25a.28.28 0 0 1 .23 0l2.24 1.29 24.32 14.08 22.3 12.87a.84.84 0 0 1 .38.65z" fill="url(#f)" opacity=".7"/><path d="m23.49 29.75-.07-.03v-.01z" fill="#6e17ff"/><path d="m15.43 9.29a1 1 0 0 1 .47.82c0 .31-.21.43-.48.28a1.05 1.05 0 0 1 -.42-.83c0-.3.16-.42.43-.27z" fill="#fff"/><path d="m16.77 10.06a1 1 0 0 1 .48.82c0 .31-.22.43-.48.28a1.07 1.07 0 0 1 -.48-.83c0-.33.22-.43.48-.27z" fill="#fff"/><path d="m18.16 10.91a1.06 1.06 0 0 1 .48.83c0 .3-.22.42-.48.27a1 1 0 0 1 -.48-.83c0-.3.21-.42.48-.27z" fill="#fff"/><path d="m35.83 21.56a1.39 1.39 0 0 1 .63 1.09c0 .4-.29.56-.64.36a1.39 1.39 0 0 1 -.63-1.09c0-.4.29-.57.64-.36z" fill="#6e17ff"/><path d="m59.22 37.5a.71.71 0 0 1 .32.56v1.47c0 .2-.15.29-.33.18l-39-22.5a.74.74 0 0 1 -.32-.56v-1.47c0-.2.15-.29.33-.18z" fill="#fff"/><path d="m58.33 37.48a0 0 0 0 0 0 0l.13.55.42.24a0 0 0 0 1 0 0l-.35.09.13.54-.34-.48-.34.09.14-.39-.34-.48a0 0 0 0 1 0 0l.43.25.13-.38a0 0 0 0 1 -.01-.03z" fill="#651fff"/><path d="m62.32 39.62v.1l-1.49-.86v-.1z" fill="#6e17ff"/><path d="m62.32 40.09v.11l-1.49-.86v-.11z" fill="#6e17ff"/><path d="m62.32 40.57v.11l-1.49-.86v-.11z" fill="#6e17ff"/><path d="m62.32 41.05v.1l-1.49-.86v-.1z" fill="#6e17ff"/><path d="m15 12.33a.1.1 0 0 1 .05.06s0 .12 0 .14l-.36.29 1.17.67a.2.2 0 0 1 .08.15s0 .08-.08 0l-1.13-.64.35.64v.14h-.08a.22.22 0 0 1 -.06-.07l-.47-.87a.14.14 0 0 1 0-.06v-.06l.48-.38s.05-.02.05-.01z" fill="#fff"/><path d="m14.45 12.78a.14.14 0 0 1 0 0z" fill="#fff"/><path d="m17.73 13.86a.14.14 0 0 1 .06.07l.49.94s0 0 0 0l-.48.32h-.07a.15.15 0 0 1 0-.06.12.12 0 0 1 0-.15l.35-.23-1.15-.66a.2.2 0 0 1 -.09-.16c0-.05 0-.07.09-.05l1.16.68-.36-.7a.11.11 0 0 1 0-.14z" fill="#fff"/><path d="m18.29 14.98-.01.01z" fill="#fff"/><path d="m14.39 25.15.06.09-.04.04-.06-.09z" fill="#6e17ff"/><path d="m27.69 17.14a1.37 1.37 0 0 1 .6 1.05c0 .38-.27.54-.61.35l-3.58-2.07a1.34 1.34 0 0 1 -.61-1c0-.38.28-.54.61-.35z" fill="#651fff"/><path d="m40.81 22.56-24.37-14.07-2.24-1.29a.28.28 0 0 0 -.23 0l2.6-1.2a.29.29 0 0 1 .25 0l48.92 28.31a.84.84 0 0 1 .37.65v3l-2.62 1.13v-2.62-.39a.84.84 0 0 0 -.37-.64l-22.3-12.87" fill="#5130c9"/><path d="m66.08 41.71-.08 30.47a.25.25 0 0 1 -.11.24l-2.6 1.12.06-.06a.32.32 0 0 0 0-.18v-2.2l.07-28.27z" fill="#eff2f4"/><path d="m66.08 41.7-.08 30.47a.24.24 0 0 1 -.11.24l-2.56 1.1a.36.36 0 0 0 0-.19.3.3 0 0 1 0 .18.17.17 0 0 1 -.06.06.25.25 0 0 1 -.26 0l-35.25-20.38-13.68-7.89a.84.84 0 0 1 -.37-.65l.09-30.46 14.05 8.11 35.6 20.55z" fill="url(#g)" opacity=".8"/><path d="m63.37 73.31a.36.36 0 0 1 0 .19l.06-.06a.3.3 0 0 0 -.06-.13z" fill="url(#h)" opacity=".8"/><path d="m63.48 39.11-.03 3.72 2.63-1.12.02-3.73z" fill="#b0c1c6"/><g fill="#eff2f4"><path d="m37.16 37.44a.53.53 0 0 1 .25.44c0 .17-.11.23-.26.15l-7.15-4.11a.54.54 0 0 1 -.26-.44c0-.17.12-.24.26-.15z"/><path d="m45.35 35.78a.59.59 0 0 1 .26.45.16.16 0 0 1 -.26.15l-15.35-8.84a.56.56 0 0 1 -.26-.45.16.16 0 0 1 .26-.15z"/><path d="m45.35 37.89a.61.61 0 0 1 .26.45.16.16 0 0 1 -.26.15l-15.35-8.84a.55.55 0 0 1 -.26-.45.16.16 0 0 1 .26-.15z"/><path d="m45.35 39.8a.57.57 0 0 1 .26.45.16.16 0 0 1 -.26.15l-15.35-8.84a.56.56 0 0 1 -.26-.45.16.16 0 0 1 .26-.11z"/></g><path d="m23.75 23.79a.61.61 0 0 1 .26.45c0 .17-.12.23-.26.15l-7.12-4.11a.57.57 0 0 1 -.26-.45.16.16 0 0 1 .26-.15z" fill="#fff"/><path d="m23.75 25.92a.57.57 0 0 1 .26.45c0 .16-.12.23-.26.14l-7.12-4.11a.57.57 0 0 1 -.26-.44c0-.17.12-.23.26-.15z" fill="#fff"/></g><path d="m50 45.54v1.09 2.62l-35.62-20.54-11.44-6.6-2.61-1.5v-3.72l2.67 1.51 5 2.9 1.68-1.3 4.35 2.5.13.08 4.86 2.79 1.41 3.09.74.42-1.27-2.88s0-.08 0-.09l3.75 2.17 1.57 3.21z" fill="#cdd8dd"/><path d="m14.38 28.71-.09 30.89-13.68-7.89a.84.84 0 0 1 -.37-.65l.09-30.45z" fill="#eff2f4"/><path d="m50 49.26-.1 28.27v2.2a.27.27 0 0 1 -.06.19h-.05a.25.25 0 0 1 -.26 0l-35.25-20.32v-2.6l.08-28.25z" fill="#fff"/><path d="m49.9 79.74a.26.26 0 0 1 -.06.18h.05a.29.29 0 0 0 .01-.18z" fill="url(#i)" opacity=".8"/><path d="m50 42.52v.39 2.63l-24.71-14.26-1.58-3.21-3.71-2.17s0 .05 0 .09l1.31 2.94-.74-.42-1.47-3.07-4.88-2.83-.13-.08-4.36-2.53-1.73 1.3-5-2.9-2.65-1.51v-3c0-.14.06-.23.15-.26a.29.29 0 0 1 .23 0l2.27 1.3 24.34 14.07 22.3 12.87a.82.82 0 0 1 .36.65z" fill="#651fff"/><path d="m50 42.52v.39 2.63l-24.71-14.26-1.58-3.21-3.71-2.17s0 .05 0 .09l1.31 2.94-.74-.42-1.47-3.07-4.88-2.83-.13-.08-4.36-2.53-1.73 1.3-5-2.9-2.65-1.51v-3c0-.14.06-.23.15-.26a.29.29 0 0 1 .23 0l2.27 1.3 24.34 14.07 22.3 12.87a.82.82 0 0 1 .36.65z" fill="url(#j)" opacity=".7"/><path d="m10.02 36.19-.07-.04z" fill="#6e17ff"/><path d="m2 15.72a1.07 1.07 0 0 1 .48.83c0 .3-.22.42-.48.27a1.06 1.06 0 0 1 -.53-.82c0-.31.22-.43.53-.28z" fill="#fff"/><path d="m3.3 16.49a1.05 1.05 0 0 1 .47.83c0 .3-.21.42-.48.27a1 1 0 0 1 -.47-.82c0-.31.18-.43.48-.28z" fill="#fff"/><path d="m4.68 17.34a1.07 1.07 0 0 1 .48.83c0 .3-.21.43-.48.27a1 1 0 0 1 -.47-.82c0-.3.21-.43.47-.28z" fill="#fff"/><path d="m22.35 28a1.4 1.4 0 0 1 .64 1.1c0 .4-.29.56-.64.36a1.4 1.4 0 0 1 -.63-1.1c0-.36.28-.57.63-.36z" fill="#6e17ff"/><path d="m45.74 43.94a.71.71 0 0 1 .33.56v1.5c0 .21-.14.29-.32.19l-39-22.51a.7.7 0 0 1 -.32-.56v-1.5c0-.21.15-.29.33-.19z" fill="#fff"/><path d="m44.86 43.92.13.54.43.25s0 0 0 0l-.34.09.13.54s0 0 0 0l-.34-.49-.37.15.13-.39-.34-.49s0 0 0 0l.43.24.14-.39z" fill="#651fff"/><path d="m48.85 46.05v.11l-1.49-.86v-.11z" fill="#6e17ff"/><path d="m48.85 46.53v.1l-1.49-.86v-.1z" fill="#6e17ff"/><path d="m48.85 47.01v.1l-1.49-.86v-.1z" fill="#6e17ff"/><path d="m48.85 47.48v.11l-1.49-.86v-.11z" fill="#6e17ff"/><path d="m1.54 18.77.06.05v.15l-.36.28 1.16.67a.2.2 0 0 1 .09.15c0 .06 0 .08-.09.05l-1.15-.66.35.63a.11.11 0 0 1 0 .14 0 0 0 0 1 -.06 0 .11.11 0 0 1 -.06-.07l-.48-.87s0 0 0-.06l.49-.38a0 0 0 0 1 .05-.08z" fill="#fff"/><path d="m1 19.21s0 0 0 0 0 .02 0 0z" fill="#fff"/><path d="m4.25 20.3a.16.16 0 0 1 .07.07l.48.93v.09l-.49.33a0 0 0 0 1 -.06 0l-.06-.06c0-.06 0-.12 0-.14l.35-.23-1.16-.67a.19.19 0 0 1 -.08-.15c0-.06 0-.08.08-.05l1.17.67-.36-.7c0-.06 0-.12 0-.13s.04.02.06.04z" fill="#fff"/><path d="m4.82 21.41-.01.01v.01z" fill="#fff"/><path d="m.92 31.59.06.09-.05.03-.05-.09z" fill="#6e17ff"/><path d="m14.21 23.58a1.32 1.32 0 0 1 .61 1c0 .39-.28.54-.61.35l-3.58-2.03a1.32 1.32 0 0 1 -.61-1c0-.39.27-.54.61-.35z" fill="#651fff"/><path d="m27.34 29-24.34-14.07-2.27-1.3a.29.29 0 0 0 -.23 0l2.6-1.11a.24.24 0 0 1 .25 0l48.92 28.23a.84.84 0 0 1 .37.64v3l-2.64 1.15v-2.63-.39a.82.82 0 0 0 -.37-.65z" fill="#5130c9"/><path d="m52.6 48.14-.08 30.48a.26.26 0 0 1 -.12.24l-2.61 1.14h.05a.29.29 0 0 0 .06-.19v-2.28l.1-28.26z" fill="#92abb5"/><path d="m50 79.87-.18.08a.24.24 0 0 0 .06-.18.29.29 0 0 1 -.06.19h-.05a.25.25 0 0 1 -.26 0l-35.23-20.34-13.67-7.9a.81.81 0 0 1 -.37-.64l.09-30.46 14.05 8.11 35.62 20.54z" fill="url(#k)" opacity=".8"/><path d="m49.9 79.74a.26.26 0 0 1 -.06.18h.05a.29.29 0 0 0 .01-.18z" fill="url(#l)" opacity=".8"/><path d="m50.01 45.54-.03 3.73 2.62-1.13.03-3.72z" fill="#9db7bf"/><g fill="#eff2f4"><path d="m23.68 43.87a.55.55 0 0 1 .26.45.16.16 0 0 1 -.26.15l-7.12-4.11a.59.59 0 0 1 -.26-.45.16.16 0 0 1 .26-.15z"/><path d="m31.87 42.22a.54.54 0 0 1 .26.44c0 .17-.12.23-.26.15l-15.31-8.81a.57.57 0 0 1 -.26-.44c0-.17.12-.23.26-.15z"/><path d="m31.87 44.33a.55.55 0 0 1 .26.45c0 .16-.12.23-.26.14l-15.31-8.83a.61.61 0 0 1 -.26-.45c0-.17.12-.23.26-.15z"/><path d="m31.87 46.24a.54.54 0 0 1 .26.44c0 .17-.12.23-.26.15l-15.31-8.83a.57.57 0 0 1 -.26-.44c0-.17.12-.24.26-.15z"/></g><path d="m10.27 30.23a.55.55 0 0 1 .26.45c0 .16-.12.23-.26.14l-7.12-4.11a.56.56 0 0 1 -.25-.44c0-.17.11-.23.26-.15z" fill="#fff"/><path d="m10.27 32.35a.56.56 0 0 1 .26.45.16.16 0 0 1 -.26.15l-7.12-4.11a.56.56 0 0 1 -.25-.45c0-.16.11-.23.26-.15z" fill="#fff"/></svg>