<svg viewBox="0 0 80 80" xmlns="http://www.w3.org/2000/svg" xmlns:xlink="http://www.w3.org/1999/xlink"><linearGradient id="a" gradientUnits="userSpaceOnUse" x1="11.61" x2="68.37" y1="52.03" y2="52.03"><stop offset="0" stop-color="#587e8d" stop-opacity="0"/><stop offset=".4" stop-color="#587e8d" stop-opacity="0"/><stop offset=".5" stop-color="#587e8d" stop-opacity=".11"/><stop offset=".7" stop-color="#587e8d" stop-opacity=".32"/><stop offset=".88" stop-color="#587e8d" stop-opacity=".45"/><stop offset="1" stop-color="#587e8d" stop-opacity=".5"/></linearGradient><linearGradient id="b" gradientUnits="userSpaceOnUse" x1="79.48" x2="2.74" y1="66.75" y2="64.66"><stop offset="0" stop-color="#587e8d" stop-opacity=".5"/><stop offset=".12" stop-color="#587e8d" stop-opacity=".45"/><stop offset=".3" stop-color="#587e8d" stop-opacity=".32"/><stop offset=".5" stop-color="#587e8d" stop-opacity=".11"/><stop offset=".6" stop-color="#587e8d" stop-opacity="0"/><stop offset="1" stop-color="#587e8d" stop-opacity="0"/></linearGradient><linearGradient id="c" gradientUnits="userSpaceOnUse" x1="79.41" x2="2.68" y1="66.75" y2="64.66"><stop offset=".57" stop-color="#fff" stop-opacity="0"/><stop offset=".79" stop-color="#fff" stop-opacity=".3"/><stop offset=".87" stop-color="#fff" stop-opacity=".42"/><stop offset="1" stop-color="#fff" stop-opacity=".6"/></linearGradient><radialGradient id="d" cx="75.78" cy="30.74" r="81.63" xlink:href="#c"/><linearGradient id="e" x1="11.6" x2="68.37" xlink:href="#a" y1="33.47" y2="33.47"/><linearGradient id="f" x1="79.48" x2="2.74" xlink:href="#b" y1="48.18" y2="46.1"/><linearGradient id="g" x1="79.41" x2="2.68" xlink:href="#c" y1="48.19" y2="46.1"/><radialGradient id="h" cx="75.77" cy="12.18" r="81.63" xlink:href="#c"/><linearGradient id="i" x1="11.57" x2="68.34" xlink:href="#a" y1="14.8" y2="14.8"/><linearGradient id="j" x1="79.45" x2="2.71" xlink:href="#b" y1="29.52" y2="27.43"/><linearGradient id="k" x1="79.38" x2="2.64" xlink:href="#c" y1="29.52" y2="27.44"/><radialGradient id="l" cx="75.74" cy="-6.49" r="81.63" xlink:href="#c"/><path d="m60 41.63c11.12 5.75 11.18 15.06.13 20.8s-29 5.75-40.14 0-11.17-15-.13-20.79 29.01-5.75 40.14-.01z" fill="#fff"/><path d="m60 41.63c11.12 5.75 11.18 15.06.13 20.8s-29 5.75-40.14 0-11.17-15-.13-20.79 29.01-5.75 40.14-.01z" fill="url(#a)" opacity=".6"/><path d="m68.37 52.11v13.25c0 2.56-1.3 5.12-3.88 7.4a21.85 21.85 0 0 1 -4.37 2.93c-.16.09-.33.17-.5.25-11.08 5.49-28.68 5.41-39.64-.25-5.63-2.89-8.43-6.69-8.42-10.47v-13.23a9.71 9.71 0 0 0 3.27 6.87l.33.32c.29.26.59.52.92.78.12.1.25.21.39.31l.41.3a23.7 23.7 0 0 0 3.12 1.86c10.93 5.64 28.46 5.74 39.55.3l.59-.3 1-.54.48-.28.46-.29.42-.32.21-.15c.22-.14.42-.29.62-.44.38-.28.74-.57 1.08-.86a12.85 12.85 0 0 0 3-3.66v-.1l.12-.24.08-.17s0-.11.07-.17a8.49 8.49 0 0 0 .46-1.43v-.15a.09.09 0 0 1 0 0c0-.09 0-.18 0-.28a1 1 0 0 0 0-.17c0-.12 0-.24 0-.35s0-.29 0-.43a.49.49 0 0 0 0-.12z" fill="#cdd8dd"/><path d="m68.44 52.11v13.25c0 2.56-1.29 5.12-3.87 7.4a21.85 21.85 0 0 1 -4.37 2.93l-.5.25c-11.13 5.49-28.7 5.41-39.7-.25-5.6-2.89-8.39-6.68-8.38-10.47v-13.23a9.69 9.69 0 0 0 3.38 6.87l.33.32c.29.26.59.52.91.78l.39.31.41.3a24.56 24.56 0 0 0 3.06 1.86c10.92 5.64 28.46 5.74 39.55.3l.59-.3 1-.54.47-.28.46-.29.44-.29.22-.15.62-.44c.38-.28.74-.57 1.07-.86a12.68 12.68 0 0 0 3-3.66l.06-.1a2.56 2.56 0 0 0 .11-.24.89.89 0 0 0 .08-.17s0-.11.08-.17a8.49 8.49 0 0 0 .46-1.43v-.15a.09.09 0 0 0 0 0l.06-.28c0-.06 0-.11 0-.17s0-.24 0-.35a3.22 3.22 0 0 0 0-.43v-.12a.76.76 0 0 0 .07-.2z" fill="url(#b)" opacity=".8"/><path d="m68.37 52.11v13.26c0 2.56-1.3 5.12-3.87 7.39a21.8 21.8 0 0 1 -4.38 2.93l-.5.26c-11.08 5.48-28.68 5.4-39.64-.26-5.63-2.89-8.43-6.69-8.41-10.47v-13.23a9.7 9.7 0 0 0 3.27 6.87l.34.32a12 12 0 0 0 .91.79l.39.3.41.31a24.88 24.88 0 0 0 3.11 1.86c10.93 5.64 28.46 5.74 39.55.3l.59-.3c.35-.18.68-.37 1-.55l.48-.28.46-.29.42-.32.22-.15.61-.44q.57-.44 1.08-.87a12.68 12.68 0 0 0 3-3.65.54.54 0 0 0 0-.11l.12-.23a.89.89 0 0 1 .08-.17l.07-.18a7.58 7.58 0 0 0 .46-1.42v-.16a.06.06 0 0 1 0 0c0-.1 0-.19 0-.28a1.1 1.1 0 0 0 0-.18c0-.12 0-.23 0-.35s0-.29 0-.43a.49.49 0 0 0 0-.12z" fill="url(#c)"/><path d="m58.33 41.28c10.2 5.27 10.26 13.81.13 19.07s-26.62 5.27-36.82 0-10.25-13.8-.12-19.07 26.62-5.28 36.81 0z" fill="#6926ff"/><path d="m58.33 41.28c10.2 5.27 10.26 13.81.13 19.07s-26.62 5.27-36.82 0-10.25-13.8-.12-19.07 26.62-5.28 36.81 0z" fill="url(#d)" opacity=".8"/><g fill="#fff" opacity=".8"><path d="m24.93 64.48v13.27a35 35 0 0 1 -5.14-2.14 21.5 21.5 0 0 1 -4.37-3v-13.17a.87.87 0 0 0 .14.12l.34.3c.31.25.56.44.79.61l.43.31.08.05c.25.18.53.36.81.54l.09.05c.5.31 1 .62 1.6.91l.26.14.23.12.57.28.23.1h.05.08l.23.11.23.1.24.11h.05.09l.15.06q1.07.47 2.46.93z" opacity=".8"/><path d="m26.63 62.37-.83 1-.87 1.09-.22-.07q-1.39-.47-2.46-.93l-.15-.06h-.09-.09l-.24-.11-.23-.1-.23-.19h-.08-.05l-.23-.1-.57-.28-.23-.12-.26-.14c-.57-.29-1.1-.6-1.6-.91l-.09-.05c-.28-.18-.56-.36-.81-.54l-.08-.05-.43-.31c-.23-.17-.48-.36-.79-.61l-.34-.3a.87.87 0 0 1 -.14-.12l1.71-2.11c.32.29.77.69 1.35 1.13a21.22 21.22 0 0 0 4.25 2.51 26.62 26.62 0 0 0 3.8 1.37z" opacity=".6"/></g><path d="m64.45 59.63v13.13a21.85 21.85 0 0 1 -4.37 2.93c-.16.09-.33.17-.5.25v-13.19l.24-.12.18-.13a26.86 26.86 0 0 0 2.63-1.56l.43-.3.8-.61.35-.29.17-.15z" fill="#651fff" opacity=".5"/><path d="m64.41 59.58-.21.18c-.28.24-.58.47-.9.71l-.42.3c-.18.13-.37.26-.57.38l-.31.21-.47.28-.53.36-.75.41-.25.09-.48.24-1.63-2.08.48-.24a19.4 19.4 0 0 0 4.32-2.94z" fill="#651fff" opacity=".3"/><g fill="#fff"><path d="m39.9 68.25.01.01.1.13.02.03"/><path d="m40 56.67-.06-.09h-.01"/><path d="m60 23.07c11.12 5.74 11.18 15 .13 20.8s-29 5.74-40.14 0-11.19-15.06-.14-20.8 29.02-5.74 40.15 0z"/></g><path d="m60 23.07c11.12 5.74 11.18 15 .13 20.8s-29 5.74-40.14 0-11.19-15.06-.14-20.8 29.02-5.74 40.15 0z" fill="url(#e)" opacity=".6"/><path d="m68.37 33.54v13.26c0 2.56-1.3 5.12-3.88 7.39a21.44 21.44 0 0 1 -4.37 2.93l-.5.26c-11.08 5.49-28.68 5.4-39.64-.26-5.59-2.89-8.39-6.68-8.38-10.47v-13.23a9.71 9.71 0 0 0 3.28 6.87l.33.32c.29.27.59.53.91.79l.4.3.41.31a24.88 24.88 0 0 0 3.07 1.86c10.93 5.64 28.46 5.74 39.55.3l.59-.3c.35-.18.68-.36 1-.55l.46-.32.45-.28.44-.29.22-.15.62-.44c.38-.29.74-.57 1.08-.87a12.68 12.68 0 0 0 3-3.65v-.11l.12-.23c0-.06 0-.11.07-.17l.08-.17a8.79 8.79 0 0 0 .46-1.43v-.15a.07.07 0 0 1 0-.05 2.33 2.33 0 0 1 0-.28 1.1 1.1 0 0 0 0-.18c0-.11 0-.23 0-.35a3.11 3.11 0 0 0 0-.43.49.49 0 0 0 0-.12z" fill="#cdd8dd"/><path d="m68.44 33.54v13.26c0 2.56-1.29 5.12-3.87 7.39a21.44 21.44 0 0 1 -4.37 2.93l-.5.26c-11.13 5.49-28.7 5.4-39.7-.26-5.6-2.89-8.39-6.68-8.38-10.47v-13.23a9.7 9.7 0 0 0 3.27 6.87l.34.32c.29.27.59.53.91.79l.39.3.47.3a25.82 25.82 0 0 0 3.06 1.86c10.92 5.64 28.46 5.74 39.54.3l.6-.3c.34-.18.68-.36 1-.55l.47-.28.46-.28.44-.29.22-.15.62-.44c.38-.29.74-.57 1.07-.87a12.52 12.52 0 0 0 3-3.65l.06-.11a2.4 2.4 0 0 0 .11-.23 1.3 1.3 0 0 0 .08-.17c0-.06 0-.12.08-.17a8.79 8.79 0 0 0 .46-1.43v-.15a.11.11 0 0 0 0-.05c0-.1 0-.19 0-.28v-.18c0-.11 0-.23 0-.35a3.11 3.11 0 0 0 0-.43v-.12a.76.76 0 0 0 .17-.14z" fill="url(#f)" opacity=".8"/><path d="m68.37 33.54v13.26c0 2.56-1.3 5.12-3.88 7.39a21.45 21.45 0 0 1 -4.37 2.94l-.5.25c-11.08 5.49-28.68 5.4-39.64-.25-5.59-2.89-8.39-6.69-8.38-10.47v-13.24a9.72 9.72 0 0 0 3.27 6.88l.33.32c.29.26.59.52.92.78.12.1.25.21.39.31l.41.3a23.7 23.7 0 0 0 3.08 1.86c10.93 5.64 28.46 5.74 39.55.3l.59-.3c.35-.18.68-.36 1-.55l.46-.32.46-.28.44-.29.21-.15c.22-.14.42-.29.62-.44.38-.28.74-.57 1.08-.86a12.85 12.85 0 0 0 3-3.66v-.1l.12-.24.08-.17c0-.06 0-.11.07-.17a8.49 8.49 0 0 0 .46-1.43v-.15a.09.09 0 0 1 0-.05c0-.09 0-.19 0-.28a1.11 1.11 0 0 0 0-.17c0-.12 0-.24 0-.35s0-.29 0-.43a.49.49 0 0 0 0-.12z" fill="url(#g)"/><path d="m58.33 22.71c10.2 5.27 10.26 13.81.12 19.08s-26.61 5.27-36.81 0-10.25-13.79-.12-19.08 26.61-5.26 36.81 0z" fill="#6926ff"/><path d="m58.33 22.71c10.2 5.27 10.26 13.81.12 19.08s-26.61 5.27-36.81 0-10.25-13.79-.12-19.08 26.61-5.26 36.81 0z" fill="url(#h)" opacity=".8"/><g fill="#fff" opacity=".8"><path d="m24.93 45.91v13.27a33.51 33.51 0 0 1 -5.15-2.18 21.68 21.68 0 0 1 -4.36-3v-13.12-.05l.14.12.34.29c.31.25.56.45.79.61s.29.22.43.31l.08.06c.25.18.53.36.81.53l.09.05c.5.32 1 .63 1.6.92l.26.14.22.11.58.28.23.1h.07l.24.11.23.11.24.1h.05.09l.15.06c.71.3 1.53.62 2.46.92z" opacity=".8"/><path d="m26.63 43.81-.83 1-.87 1.08-.22-.07c-.93-.3-1.75-.62-2.46-.92l-.15-.06h-.09-.09l-.24-.1-.23-.11-.24-.11h-.07l-.23-.1-.63-.42-.22-.11-.26-.14c-.57-.29-1.1-.6-1.6-.92l-.09-.05c-.28-.17-.56-.35-.81-.53l-.08-.06c-.14-.09-.29-.21-.43-.31s-.48-.36-.79-.61l-.37-.27-.14-.12 1.71-2.12a16.88 16.88 0 0 0 1.35 1.14 20.61 20.61 0 0 0 4.25 2.5 27.72 27.72 0 0 0 3.83 1.41z" opacity=".6"/></g><path d="m64.45 41.07v13.12a21.44 21.44 0 0 1 -4.37 2.93l-.5.26v-13.2l.24-.11.26-.14a23.4 23.4 0 0 0 2.63-1.56l.42-.3c.28-.2.55-.4.81-.61l.34-.28.18-.15z" fill="#651fff" opacity=".5"/><path d="m64.41 41-.21.18c-.29.24-.59.48-.9.71l-.42.3-.57.39a3.28 3.28 0 0 1 -.31.2l-.47.29-.48.28-.75.42-.26.13-.49.25-1.64-2.05.48-.24a20.23 20.23 0 0 0 4.32-2.94z" fill="#651fff" opacity=".3"/><path d="m39.9 49.69h.01l.1.13.02.04" fill="#fff"/><path d="m40 38.1-.06-.08-.01-.01" fill="#fff"/><path d="m60 4.41c11.12 5.74 11.18 15.05.13 20.79s-29.06 5.8-40.13 0-11.18-15-.13-20.79 28.97-5.75 40.13 0z" fill="#fff"/><path d="m60 4.41c11.12 5.74 11.18 15.05.13 20.79s-29.06 5.8-40.13 0-11.18-15-.13-20.79 28.97-5.75 40.13 0z" fill="url(#i)" opacity=".6"/><path d="m68.34 14.88v13.25c0 2.56-1.29 5.12-3.87 7.4a22.14 22.14 0 0 1 -4.37 2.93l-.5.25c-11.09 5.49-28.69 5.41-39.64-.25-5.6-2.89-8.39-6.68-8.38-10.47v-13.23a9.71 9.71 0 0 0 3.27 6.87l.34.32c.29.26.59.52.91.78l.39.31.41.3a22.77 22.77 0 0 0 3.1 1.86c10.92 5.64 28.46 5.75 39.54.3l.6-.3c.34-.17.67-.36 1-.54l.47-.28.46-.29.44-.29.22-.14.62-.45c.38-.28.74-.57 1.07-.86a12.78 12.78 0 0 0 3-3.65l.06-.11a2.56 2.56 0 0 0 .11-.24.89.89 0 0 0 .08-.17c0-.05.05-.11.08-.17a8.69 8.69 0 0 0 .46-1.42v-.16a.07.07 0 0 0 0-.05 2.33 2.33 0 0 0 0-.28v-.17c0-.12 0-.23 0-.35v-.43-.15s.13-.07.13-.12z" fill="#cdd8dd"/><path d="m68.4 14.88v13.25c0 2.56-1.3 5.12-3.87 7.4a22.23 22.23 0 0 1 -4.38 2.93l-.5.25c-11.12 5.49-28.72 5.41-39.65-.25-5.6-2.89-8.4-6.68-8.38-10.47v-13.23a9.71 9.71 0 0 0 3.27 6.87l.34.32c.28.26.59.52.91.78l.39.31.41.3a22.15 22.15 0 0 0 3.06 1.86c10.92 5.64 28.45 5.75 39.54.3q.3-.13.6-.3c.34-.17.67-.36 1-.54l.48-.28.46-.29.44-.29.22-.14.61-.45c.38-.28.74-.57 1.08-.86a12.78 12.78 0 0 0 3-3.65l.06-.11a2.56 2.56 0 0 1 .11-.24c0-.05 0-.11.08-.17s0-.11.07-.17a8.74 8.74 0 0 0 .47-1.42v-.16a.43.43 0 0 0 0-.05 2.33 2.33 0 0 0 0-.28v-.17c0-.12 0-.23 0-.35v-.43-.27z" fill="url(#j)" opacity=".8"/><path d="m68.34 14.88v13.26c0 2.56-1.29 5.12-3.87 7.39a21.72 21.72 0 0 1 -4.37 2.93l-.5.26c-11.08 5.49-28.69 5.4-39.64-.26-5.6-2.89-8.39-6.68-8.38-10.47v-13.23a9.7 9.7 0 0 0 3.27 6.87l.34.32c.29.27.59.53.91.79l.39.3.41.31a25.82 25.82 0 0 0 3.1 1.86c10.92 5.64 28.46 5.74 39.54.3l.6-.3c.34-.18.68-.36 1-.55l.47-.28.39-.28.44-.29.22-.15.62-.44c.38-.29.74-.57 1.07-.87a12.52 12.52 0 0 0 3-3.65l.06-.11a2.4 2.4 0 0 0 .11-.23 1.3 1.3 0 0 0 .08-.17c0-.06.05-.12.08-.17a8.79 8.79 0 0 0 .46-1.43v-.15a.11.11 0 0 0 0-.05c0-.1 0-.19 0-.28v-.18c0-.11 0-.23 0-.35a3.11 3.11 0 0 0 0-.43v-.15a.76.76 0 0 0 .2-.12z" fill="url(#k)"/><path d="m58.3 4.05c10.2 5.27 10.25 13.81.12 19.07s-26.61 5.27-36.81 0-10.26-13.8-.12-19.07 26.61-5.27 36.81 0z" fill="#6926ff"/><path d="m58.3 4.05c10.2 5.27 10.25 13.81.12 19.07s-26.61 5.27-36.81 0-10.26-13.8-.12-19.07 26.61-5.27 36.81 0z" fill="url(#l)" opacity=".8"/><g fill="#fff" opacity=".8"><path d="m24.89 27.25v13.27a34.41 34.41 0 0 1 -5.14-2.14 22.5 22.5 0 0 1 -4.37-3v-13.17l.13.11.35.3c.3.25.55.44.78.61l.44.31h.08c.26.18.53.36.82.54l.08.05c.51.31 1 .62 1.6.91l.27.14.22.12.57.28.23.1h.05.08l.24.11.23.1.23.11h.06.09l.14.07c.72.3 1.54.61 2.46.92z" opacity=".8"/><path d="m26.59 25.14-.82 1-.88 1.08-.22-.07c-.92-.31-1.74-.62-2.46-.92l-.14-.07h-.09-.1l-.23-.16-.23-.1-.24-.11h-.08-.05l-.23-.1-.57-.28-.25-.17-.27-.14c-.56-.29-1.09-.6-1.6-.91l-.08-.05c-.29-.18-.56-.36-.82-.54h-.08l-.44-.31c-.23-.17-.48-.36-.78-.61l-.35-.3-.13-.11 1.72-2.12c.31.29.77.69 1.34 1.13a21.79 21.79 0 0 0 4.25 2.51 27.08 27.08 0 0 0 3.83 1.35z" opacity=".6"/></g><path d="m64.42 22.4v13.13a22.14 22.14 0 0 1 -4.37 2.93l-.5.25v-13.19l.23-.12.26-.13a27.06 27.06 0 0 0 2.64-1.56l.42-.3c.28-.2.55-.41.8-.61l.35-.29.17-.15z" fill="#651fff" opacity=".5"/><path d="m64.38 22.35-.21.18c-.29.24-.59.48-.9.71l-.42.3-.57.39a3.28 3.28 0 0 0 -.31.2l-.47.29-.48.28c-.25.14-.5.28-.76.41l-.26.14-.48.24-1.63-2.08c.17-.07.33-.16.49-.24a19.52 19.52 0 0 0 4.32-2.94z" fill="#651fff" opacity=".3"/><path d="m39.87 31.02v.01l.1.13.03.03" fill="#fff"/></svg>