<svg id="Layer_1" data-name="Layer 1" xmlns="http://www.w3.org/2000/svg" xmlns:xlink="http://www.w3.org/1999/xlink" viewBox="0 0 60 60"><defs><style>.cls-1{opacity:0.8;}.cls-2{fill:url(#linear-gradient);}.cls-3{fill:url(#linear-gradient-2);}.cls-4{opacity:0.4;}.cls-5{fill:url(#linear-gradient-3);}.cls-6{fill:url(#linear-gradient-4);}.cls-7{fill:#eff2f4;}.cls-8{fill:#fff;}.cls-9{opacity:0.5;}.cls-10{fill:#4c31c1;}.cls-11{fill:url(#linear-gradient-5);}.cls-12{fill:url(#linear-gradient-6);}.cls-13{isolation:isolate;}.cls-14{fill:#bfbfbf;}.cls-15{fill:url(#linear-gradient-7);}.cls-16{fill:url(#linear-gradient-8);}</style><linearGradient id="linear-gradient" x1="64.7" y1="10.95" x2="-18.66" y2="56.51" gradientUnits="userSpaceOnUse"><stop offset="0.13" stop-color="#587e8d" stop-opacity="0.5"/><stop offset="0.29" stop-color="#587e8d" stop-opacity="0.3"/><stop offset="0.46" stop-color="#587e8d" stop-opacity="0.13"/><stop offset="0.62" stop-color="#587e8d" stop-opacity="0.03"/><stop offset="0.75" stop-color="#587e8d" stop-opacity="0"/><stop offset="1" stop-color="#587e8d" stop-opacity="0"/></linearGradient><linearGradient id="linear-gradient-2" x1="51.06" y1="-14.01" x2="-32.3" y2="31.56" xlink:href="#linear-gradient"/><linearGradient id="linear-gradient-3" x1="64.6" y1="10.77" x2="-18.76" y2="56.33" xlink:href="#linear-gradient"/><linearGradient id="linear-gradient-4" x1="50.96" y1="-14.19" x2="-32.4" y2="31.38" xlink:href="#linear-gradient"/><linearGradient id="linear-gradient-5" x1="-6.64" y1="-3.44" x2="45.58" y2="62.25" gradientUnits="userSpaceOnUse"><stop offset="0.21" stop-color="#587e8d" stop-opacity="0.5"/><stop offset="0.37" stop-color="#587e8d" stop-opacity="0.3"/><stop offset="0.55" stop-color="#587e8d" stop-opacity="0.13"/><stop offset="0.71" stop-color="#587e8d" stop-opacity="0.03"/><stop offset="0.85" stop-color="#587e8d" stop-opacity="0"/><stop offset="1" stop-color="#587e8d" stop-opacity="0"/></linearGradient><linearGradient id="linear-gradient-6" x1="55.97" y1="19.39" x2="-19.15" y2="52.65" gradientUnits="userSpaceOnUse"><stop offset="0.23" stop-color="#587e8d" stop-opacity="0.5"/><stop offset="0.75" stop-color="#587e8d" stop-opacity="0"/><stop offset="1" stop-color="#587e8d" stop-opacity="0"/></linearGradient><linearGradient id="linear-gradient-7" x1="58.9" y1="1.79" x2="4.16" y2="40.81" gradientUnits="userSpaceOnUse"><stop offset="0" stop-color="#fff" stop-opacity="0.6"/><stop offset="0.13" stop-color="#fff" stop-opacity="0.42"/><stop offset="0.21" stop-color="#fff" stop-opacity="0.3"/><stop offset="0.43" stop-color="#fff" stop-opacity="0"/></linearGradient><linearGradient id="linear-gradient-8" x1="-2.61" y1="36.15" x2="89.13" y2="-5.03" gradientUnits="userSpaceOnUse"><stop offset="0" stop-color="#fff" stop-opacity="0.6"/><stop offset="0.16" stop-color="#fff" stop-opacity="0.42"/><stop offset="0.25" stop-color="#fff" stop-opacity="0.3"/><stop offset="0.43" stop-color="#fff" stop-opacity="0"/></linearGradient></defs><g class="cls-1"><path class="cls-2" d="M44.79,19.72l-.1,34.06a.76.76,0,0,1-.31.68l-2.87,1.67s0,0,0,0a.72.72,0,0,1-.79,0L16.29,41.92a2.31,2.31,0,0,1-1.07-1.83L15.32,6a.72.72,0,0,1,.31-.67l0,0,.08,0-.06,0,2.8-1.63a.74.74,0,0,1,.75.07L43.73,17.89A2.33,2.33,0,0,1,44.79,19.72Z"/><path class="cls-3" d="M15.76,5.29l-.08,0,0,0Z"/></g><g class="cls-4"><path class="cls-5" d="M50.14,16.55l-.09,34.07a.76.76,0,0,1-.31.68L46.87,53s0,0,0,0a.72.72,0,0,1-.79,0L21.64,38.76a2.34,2.34,0,0,1-1.06-1.83l.1-34.07A.72.72,0,0,1,21,2.19l0,0,.09,0-.06,0L23.86.52a.72.72,0,0,1,.75.07L49.09,14.72A2.35,2.35,0,0,1,50.14,16.55Z"/><path class="cls-6" d="M21.12,2.13l-.09,0h0Z"/></g><polygon class="cls-7" points="13.21 39.55 16.08 37.88 17.65 40.6 14.79 42.26 13.21 39.55"/><path class="cls-7" d="M17.65,40.6a.69.69,0,0,0,.17.17L15,42.43a.38.38,0,0,1-.16-.17Z"/><path class="cls-7" d="M17.83,40.77,15,42.44h0l2.87-1.66Z"/><path class="cls-7" d="M13.2,39.17l2.86-1.67c-.08.07-.07.23,0,.38l-2.87,1.67C13.12,39.39,13.12,39.23,13.2,39.17Z"/><polygon class="cls-8" points="17.67 40.55 20.54 38.88 18 40.78 15.14 42.45 17.67 40.55"/><path class="cls-7" d="M17.83,40.77a.15.15,0,0,0,.17,0l-2.87,1.67a.17.17,0,0,1-.17,0Z"/><polygon class="cls-8" points="18 40.78 15.13 42.45 15.14 42.45 18 40.78 18 40.78"/><polygon class="cls-7" points="13.63 38.82 16.5 37.15 16.06 37.5 13.2 39.17 13.63 38.82"/><path class="cls-7" d="M16.51,37.14h0l-2.87,1.67h0Z"/><path class="cls-8" d="M13.65,38.81l2.86-1.67a.18.18,0,0,1,.16,0h0a.69.69,0,0,1,.17.17L14,39a.53.53,0,0,0-.16-.17h0A.14.14,0,0,0,13.65,38.81Z"/><polygon class="cls-8" points="13.98 38.99 16.85 37.32 17.79 38.93 14.92 40.6 13.98 38.99"/><polygon class="cls-7" points="16.83 39.15 19.7 37.48 17.79 38.93 14.92 40.6 16.83 39.15"/><polygon class="cls-7" points="16.84 39.14 19.71 37.47 19.7 37.48 16.83 39.15 16.84 39.14"/><path class="cls-8" d="M16.84,39.14l2.87-1.67a.19.19,0,0,1,.16,0L17,39.16A.18.18,0,0,0,16.84,39.14Z"/><path class="cls-8" d="M17,39.16l2.86-1.67h0L17,39.17Z"/><path class="cls-8" d="M17.66,40.17l2.87-1.67c.09.15.09.33,0,.39l-2.87,1.66C17.76,40.49,17.75,40.32,17.66,40.17Z"/><path class="cls-8" d="M17,39.17l2.86-1.67a.53.53,0,0,1,.16.17l-2.87,1.67A.43.43,0,0,0,17,39.17Z"/><polygon class="cls-8" points="17.18 39.34 20.05 37.67 20.53 38.5 17.66 40.17 17.18 39.34"/><path class="cls-8" d="M17,39.17a.43.43,0,0,1,.15.17l.48.83c.09.15.1.32,0,.38l-2.53,1.9a.17.17,0,0,1-.18,0,.42.42,0,0,1-.17-.18l-1.58-2.71c-.09-.16-.09-.32,0-.38l.43-.35a.15.15,0,0,1,.17,0h0A.53.53,0,0,1,14,39l.94,1.61,1.91-1.45s.11,0,.18,0Z"/><path class="cls-7" d="M23.34,42.61a1.32,1.32,0,0,0,.5.63L21,44.9a1.29,1.29,0,0,1-.51-.63Z"/><path class="cls-7" d="M23.34,42.61l-2.87,1.66a1.06,1.06,0,0,1-.07-.38l2.86-1.67A1.09,1.09,0,0,0,23.34,42.61Z"/><rect class="cls-7" x="13.8" y="30.01" width="3.32" height="3.13" transform="translate(-13.77 12.04) rotate(-30.16)"/><path class="cls-7" d="M17.68,32.1a.52.52,0,0,0,.16.17L15,33.93a.37.37,0,0,1-.17-.16l2.86-1.67-2.86,1.67h0Z"/><path class="cls-7" d="M17.85,32.27,15,33.94h0l2.86-1.66Z"/><path class="cls-7" d="M13.22,30.67,16.09,29a.33.33,0,0,0,0,.39l-2.86,1.67C13.15,30.9,13.14,30.73,13.22,30.67Z"/><polygon class="cls-8" points="17.69 32.05 20.56 30.39 18.03 32.29 15.16 33.95 17.69 32.05"/><path class="cls-7" d="M17.85,32.27c.07,0,.12,0,.17,0L15.15,34a.18.18,0,0,1-.17,0Z"/><path class="cls-8" d="M18,32.3,15.15,34h0L18,32.29Z"/><polygon class="cls-7" points="20.4 42.43 23.27 40.77 23.26 42.22 20.4 43.89 20.4 42.43"/><polygon class="cls-7" points="13.65 30.32 16.52 28.65 16.09 29 13.22 30.67 13.65 30.32"/><path class="cls-7" d="M16.54,28.64h0l-2.86,1.67s0,0,0,0Z"/><path class="cls-7" d="M20.57,42.05l2.87-1.66a.4.4,0,0,0-.17.38L20.4,42.43A.42.42,0,0,1,20.57,42.05Z"/><path class="cls-8" d="M13.68,30.3l2.86-1.66a.14.14,0,0,1,.15,0l-2.86,1.66A.16.16,0,0,0,13.68,30.3Z"/><path class="cls-8" d="M13.83,30.31l2.86-1.66a.47.47,0,0,1,.18.19L14,30.5A.55.55,0,0,0,13.83,30.31Z"/><polygon class="cls-8" points="14.01 30.5 16.87 28.84 17.81 30.43 14.95 32.1 14.01 30.5"/><path class="cls-8" d="M20.57,42.05l2.87-1.66a.39.39,0,0,1,.41,0L21,42.09A.43.43,0,0,0,20.57,42.05Z"/><polygon class="cls-7" points="16.86 30.66 19.72 28.99 17.81 30.43 14.95 32.1 16.86 30.66"/><path class="cls-7" d="M16.87,30.65,19.74,29h0l-2.86,1.67Z"/><path class="cls-8" d="M16.87,30.65,19.74,29a.18.18,0,0,1,.16,0L17,30.66A.16.16,0,0,0,16.87,30.65Z"/><path class="cls-8" d="M17.69,31.67,20.55,30c.09.15.1.32,0,.38l-2.87,1.66C17.78,32,17.77,31.83,17.69,31.67Z"/><polygon class="cls-8" points="17.21 30.84 20.07 29.18 20.55 30.01 17.69 31.68 17.21 30.84"/><path class="cls-8" d="M17,30.66,19.9,29a.59.59,0,0,1,.17.18l-2.86,1.67A.51.51,0,0,0,17,30.66Z"/><path class="cls-7" d="M20.42,35.58l2.87-1.67a1.26,1.26,0,0,0,.58,1L21,36.59A1.3,1.3,0,0,1,20.42,35.58Z"/><rect class="cls-7" x="13.82" y="21.51" width="3.32" height="3.13" transform="translate(-9.5 10.9) rotate(-30.16)"/><path class="cls-7" d="M17.7,23.6a.49.49,0,0,0,.17.18L15,25.44a.44.44,0,0,1-.16-.17L17.7,23.6l-2.86,1.67h0Z"/><path class="cls-7" d="M17.87,23.78,15,25.45h0l2.87-1.66Z"/><path class="cls-7" d="M13.24,22.18l2.87-1.67c-.08.07-.07.23,0,.38l-2.87,1.67C13.17,22.41,13.17,22.24,13.24,22.18Z"/><polygon class="cls-8" points="17.72 23.56 20.59 21.89 18.05 23.79 15.19 25.45 17.72 23.56"/><path class="cls-7" d="M17.87,23.78a.18.18,0,0,0,.17,0l-2.87,1.66a.16.16,0,0,1-.16,0Z"/><path class="cls-8" d="M18,23.8l-2.87,1.66h0l2.86-1.66Z"/><polygon class="cls-7" points="20.42 34.12 23.29 32.45 23.29 33.91 20.42 35.58 20.42 34.12"/><path class="cls-7" d="M20.59,33.74l2.87-1.66a.41.41,0,0,0-.17.37l-2.87,1.67A.42.42,0,0,1,20.59,33.74Z"/><polygon class="cls-7" points="13.68 21.82 16.55 20.15 16.11 20.51 13.24 22.18 13.68 21.82"/><path class="cls-7" d="M13.7,21.81l2.86-1.67h0l-2.87,1.67Z"/><path class="cls-8" d="M13.7,21.81l2.86-1.67a.18.18,0,0,1,.16,0l-2.87,1.67C13.79,21.79,13.74,21.78,13.7,21.81Z"/><path class="cls-8" d="M13.85,21.82l2.87-1.67h0a.49.49,0,0,1,.17.18L14,22a.44.44,0,0,0-.16-.17Z"/><polygon class="cls-8" points="14.03 22 16.9 20.34 17.84 21.94 14.97 23.61 14.03 22"/><path class="cls-8" d="M20.59,33.74l2.87-1.66a.41.41,0,0,1,.42,0L21,33.78A.43.43,0,0,0,20.59,33.74Z"/><polygon class="cls-7" points="20.98 44.9 23.84 43.24 34.93 49.64 32.06 51.3 20.98 44.9"/><path class="cls-7" d="M35.35,49.68l-2.87,1.66a.37.37,0,0,1-.41,0l2.86-1.66A.43.43,0,0,0,35.35,49.68Z"/><path class="cls-8" d="M35.35,49.68l-2.87,1.66a.4.4,0,0,0,.18-.37l2.86-1.67A.4.4,0,0,1,35.35,49.68Z"/><polygon class="cls-8" points="32.66 49.51 35.53 47.84 35.52 49.3 32.66 50.97 32.66 49.51"/><polygon class="cls-8" points="20.99 42.09 23.85 40.43 34.94 46.83 32.07 48.49 20.99 42.09"/><polygon class="cls-7" points="16.88 22.16 19.75 20.49 17.84 21.94 14.97 23.61 16.88 22.16"/><path class="cls-7" d="M16.9,22.15l2.86-1.67h0l-2.87,1.67Z"/><path class="cls-7" d="M13.21,15.75l2.86-1.67a1.29,1.29,0,0,0,.59,1l-2.87,1.67A1.32,1.32,0,0,1,13.21,15.75Z"/><path class="cls-8" d="M32.07,48.49a1.3,1.3,0,0,1,.59,1V51c0,.37-.27.52-.59.33L21,44.9a1.26,1.26,0,0,1-.58-1V42.43c0-.37.27-.52.59-.34Z"/><path class="cls-8" d="M32.07,48.49l2.87-1.66a1.3,1.3,0,0,1,.59,1l-2.87,1.67A1.3,1.3,0,0,0,32.07,48.49Z"/><path class="cls-8" d="M16.9,22.15l2.86-1.67a.18.18,0,0,1,.16,0h0l-2.86,1.67h0C17,22.13,16.94,22.12,16.9,22.15Z"/><path class="cls-8" d="M17.71,23.18l2.87-1.67c.09.16.09.32,0,.38l-2.87,1.67C17.81,23.49,17.8,23.33,17.71,23.18Z"/><polygon class="cls-8" points="17.23 22.35 20.1 20.68 20.58 21.51 17.71 23.18 17.23 22.35"/><path class="cls-8" d="M17.07,22.17l2.86-1.67a.59.59,0,0,1,.17.18l-2.87,1.67A.41.41,0,0,0,17.07,22.17Z"/><path class="cls-7" d="M20.44,27.26l2.87-1.66a1.28,1.28,0,0,0,.58,1L21,28.28A1.31,1.31,0,0,1,20.44,27.26Z"/><polygon class="cls-7" points="13.21 14.29 16.08 12.63 16.07 14.08 13.21 15.75 13.21 14.29"/><path class="cls-7" d="M13.38,13.92l2.87-1.67a.4.4,0,0,0-.17.38l-2.87,1.66A.41.41,0,0,1,13.38,13.92Z"/><polygon class="cls-7" points="20.45 25.81 23.31 24.14 23.31 25.6 20.44 27.26 20.45 25.81"/><path class="cls-8" d="M13.38,13.92l2.87-1.67a.43.43,0,0,1,.42,0L13.8,14A.39.39,0,0,0,13.38,13.92Z"/><path class="cls-7" d="M20.62,25.43l2.87-1.67a.42.42,0,0,0-.18.38l-2.86,1.67A.4.4,0,0,1,20.62,25.43Z"/><path class="cls-8" d="M20.62,25.43l2.87-1.67a.41.41,0,0,1,.41,0L21,25.47A.41.41,0,0,0,20.62,25.43Z"/><polygon class="cls-7" points="21 36.59 23.87 34.92 34.95 41.32 32.09 42.99 21 36.59"/><path class="cls-7" d="M35.37,41.36,32.51,43a.43.43,0,0,1-.42,0L35,41.32A.39.39,0,0,0,35.37,41.36Z"/><path class="cls-8" d="M35.37,41.36,32.51,43a.41.41,0,0,0,.17-.37L35.55,41A.42.42,0,0,1,35.37,41.36Z"/><polygon class="cls-8" points="32.68 41.2 35.55 39.53 35.55 40.99 32.68 42.66 32.68 41.2"/><polygon class="cls-8" points="21.01 33.78 23.88 32.12 34.96 38.52 32.1 40.18 21.01 33.78"/><path class="cls-8" d="M32.1,40.18a1.32,1.32,0,0,1,.58,1v1.47c0,.36-.27.52-.59.33L21,36.59a1.3,1.3,0,0,1-.58-1V34.12c0-.37.27-.52.59-.34Z"/><path class="cls-8" d="M32.1,40.18,35,38.52a1.28,1.28,0,0,1,.59,1l-2.87,1.66A1.32,1.32,0,0,0,32.1,40.18Z"/><polygon class="cls-7" points="13.79 16.77 16.66 15.1 27.75 21.5 24.88 23.17 13.79 16.77"/><path class="cls-7" d="M28.17,21.54,25.3,23.21a.43.43,0,0,1-.42,0l2.87-1.67A.41.41,0,0,0,28.17,21.54Z"/><polygon class="cls-7" points="21.02 28.28 23.89 26.61 34.98 33.01 32.11 34.68 21.02 28.28"/><path class="cls-8" d="M28.17,21.54,25.3,23.21a.42.42,0,0,0,.17-.38l2.87-1.67A.42.42,0,0,1,28.17,21.54Z"/><path class="cls-7" d="M35.4,33.05l-2.87,1.67a.43.43,0,0,1-.42,0L35,33A.39.39,0,0,0,35.4,33.05Z"/><path class="cls-8" d="M35.4,33.05l-2.87,1.67a.4.4,0,0,0,.17-.38l2.87-1.66A.41.41,0,0,1,35.4,33.05Z"/><polygon class="cls-8" points="25.48 21.37 28.34 19.71 28.34 21.16 25.47 22.83 25.48 21.37"/><polygon class="cls-8" points="13.8 13.96 16.67 12.29 27.75 18.69 24.89 20.36 13.8 13.96"/><path class="cls-8" d="M24.89,20.36l2.86-1.67a1.29,1.29,0,0,1,.59,1l-2.87,1.66A1.26,1.26,0,0,0,24.89,20.36Z"/><g class="cls-9"><path class="cls-8" d="M24.89,20.36a1.26,1.26,0,0,1,.58,1v1.46c0,.37-.27.52-.59.34l-11.09-6.4a1.32,1.32,0,0,1-.58-1V14.29c0-.37.27-.52.59-.33Z"/><path class="cls-10" d="M13.54,13.88c-.2,0-.33.15-.33.41v1.46a1.32,1.32,0,0,0,.58,1l11.09,6.4a.56.56,0,0,0,.26.08c.2,0,.33-.16.33-.42V21.37a1.26,1.26,0,0,0-.58-1L13.8,14a.46.46,0,0,0-.26-.08Z"/></g><polygon class="cls-8" points="32.71 32.88 35.57 31.22 35.57 32.68 32.7 34.34 32.71 32.88"/><polygon class="cls-8" points="21.03 25.47 23.9 23.8 34.99 30.2 32.12 31.87 21.03 25.47"/><path class="cls-8" d="M32.12,31.87a1.31,1.31,0,0,1,.59,1v1.45c0,.38-.26.53-.59.34L21,28.28a1.31,1.31,0,0,1-.59-1V25.81c0-.38.26-.53.58-.34Z"/><path class="cls-8" d="M32.12,31.87,35,30.2a1.32,1.32,0,0,1,.58,1l-2.86,1.67A1.31,1.31,0,0,0,32.12,31.87Z"/><path class="cls-7" d="M35.49,22.91a2.32,2.32,0,0,1,1,1.83L36.45,58.8c0,.67-.48,1-1.07.61L10.91,45.28a2.32,2.32,0,0,1-1.05-1.83L10,9.39c0-.67.48-1,1.07-.61ZM13.21,14.29v1.46a1.32,1.32,0,0,0,.58,1l11.09,6.4c.32.18.59,0,.59-.34V21.37a1.26,1.26,0,0,0-.58-1L13.8,14c-.32-.19-.59,0-.59.33M32.7,34.34V32.89a1.31,1.31,0,0,0-.59-1L21,25.47c-.32-.19-.58,0-.58.34v1.45a1.31,1.31,0,0,0,.59,1l11.08,6.4c.33.19.59,0,.59-.34m0,16.63V49.51a1.3,1.3,0,0,0-.59-1L21,42.09c-.32-.18-.59,0-.59.34v1.46a1.26,1.26,0,0,0,.58,1l11.09,6.4c.32.19.58,0,.59-.33m0-8.31V41.19a1.32,1.32,0,0,0-.58-1L21,33.78c-.32-.18-.59,0-.59.34v1.46a1.3,1.3,0,0,0,.58,1L32.09,43c.32.19.59,0,.59-.33m-15-19.1c.09-.07.08-.23,0-.38l-.48-.83a.41.41,0,0,0-.16-.18h0a.15.15,0,0,0-.17,0L15,23.61,14,22a.44.44,0,0,0-.16-.17h0a.15.15,0,0,0-.17,0l-.44.36c-.07.06-.07.23,0,.38l1.58,2.71a.44.44,0,0,0,.16.17c.08,0,.14,0,.19,0l2.53-1.89m0,17c.09-.06.08-.23,0-.38l-.48-.83a.43.43,0,0,0-.15-.17h0c-.07,0-.14,0-.18,0L14.92,40.6,14,39a.53.53,0,0,0-.16-.17h0a.15.15,0,0,0-.17,0l-.43.35c-.08.06-.08.22,0,.38l1.58,2.71a.38.38,0,0,0,.16.17.17.17,0,0,0,.19,0l2.53-1.9m0-8.5c.09-.06.08-.22,0-.38l-.48-.83a.51.51,0,0,0-.18-.18c-.07,0-.13,0-.17,0L15,32.1,14,30.5a.5.5,0,0,0-.17-.18c-.08,0-.15,0-.18,0l-.44.35c-.08.06-.07.23,0,.39l1.57,2.71a.37.37,0,0,0,.17.16c.07,0,.14.06.18,0l2.53-1.9"/><g class="cls-1"><path class="cls-11" d="M35.49,22.91a2.32,2.32,0,0,1,1,1.83L36.45,58.8c0,.67-.48,1-1.07.61L10.91,45.28a2.32,2.32,0,0,1-1.05-1.83L10,9.39c0-.67.48-1,1.07-.61ZM13.21,14.29v1.46a1.32,1.32,0,0,0,.58,1l11.09,6.4c.32.18.59,0,.59-.34V21.37a1.26,1.26,0,0,0-.58-1L13.8,14c-.32-.19-.59,0-.59.33M32.7,34.34V32.89a1.31,1.31,0,0,0-.59-1L21,25.47c-.32-.19-.58,0-.58.34v1.45a1.31,1.31,0,0,0,.59,1l11.08,6.4c.33.19.59,0,.59-.34m0,16.63V49.51a1.3,1.3,0,0,0-.59-1L21,42.09c-.32-.18-.59,0-.59.34v1.46a1.26,1.26,0,0,0,.58,1l11.09,6.4c.32.19.58,0,.59-.33m0-8.31V41.19a1.32,1.32,0,0,0-.58-1L21,33.78c-.32-.18-.59,0-.59.34v1.46a1.3,1.3,0,0,0,.58,1L32.09,43c.32.19.59,0,.59-.33m-15-19.1c.09-.07.08-.23,0-.38l-.48-.83a.41.41,0,0,0-.16-.18h0a.15.15,0,0,0-.17,0L15,23.61,14,22a.44.44,0,0,0-.16-.17h0a.15.15,0,0,0-.17,0l-.44.36c-.07.06-.07.23,0,.38l1.58,2.71a.44.44,0,0,0,.16.17c.08,0,.14,0,.19,0l2.53-1.89m0,17c.09-.06.08-.23,0-.38l-.48-.83a.43.43,0,0,0-.15-.17h0c-.07,0-.14,0-.18,0L14.92,40.6,14,39a.53.53,0,0,0-.16-.17h0a.15.15,0,0,0-.17,0l-.43.35c-.08.06-.08.22,0,.38l1.58,2.71a.38.38,0,0,0,.16.17.17.17,0,0,0,.19,0l2.53-1.9m0-8.5c.09-.06.08-.22,0-.38l-.48-.83a.51.51,0,0,0-.18-.18c-.07,0-.13,0-.17,0L15,32.1,14,30.5a.5.5,0,0,0-.17-.18c-.08,0-.15,0-.18,0l-.44.35c-.08.06-.07.23,0,.39l1.57,2.71a.37.37,0,0,0,.17.16c.07,0,.14.06.18,0l2.53-1.9"/></g><path class="cls-8" d="M17,30.66a.51.51,0,0,1,.18.18l.48.83c.08.16.09.32,0,.38L15.16,34a.14.14,0,0,1-.17,0,.42.42,0,0,1-.18-.17l-1.57-2.71c-.09-.16-.1-.33,0-.39l.44-.35s.1,0,.17,0a.55.55,0,0,1,.18.19L15,32.1l1.91-1.44S17,30.62,17,30.66Z"/><path class="cls-8" d="M17.07,22.17a.41.41,0,0,1,.16.18l.48.83c.09.15.1.31,0,.38l-2.53,1.89a.15.15,0,0,1-.18,0,.49.49,0,0,1-.17-.18l-1.58-2.71c-.09-.15-.09-.32,0-.38l.44-.36a.15.15,0,0,1,.17,0h0A.44.44,0,0,1,14,22L15,23.61l1.91-1.45a.15.15,0,0,1,.17,0Z"/><path class="cls-7" d="M39.41,23.07l-.09,34.06a.78.78,0,0,1-.31.68l-2.87,1.68a.77.77,0,0,0,.31-.68l.09-34.07a2.35,2.35,0,0,0-1-1.83L11,8.78a.74.74,0,0,0-.76-.07l2.87-1.66a.7.7,0,0,1,.75.07L38.36,21.25A2.34,2.34,0,0,1,39.41,23.07Z"/><path class="cls-12" d="M39.41,23.08l-.09,34.06a.79.79,0,0,1-.31.68l-2.87,1.67a.76.76,0,0,0,.31-.68l.09-34.07a2.32,2.32,0,0,0-1-1.83L11,8.78a.74.74,0,0,0-.76-.07l2.87-1.66a.72.72,0,0,1,.75.07L38.36,21.25A2.32,2.32,0,0,1,39.41,23.08Z"/><g class="cls-13"><path class="cls-10" d="M39.11,28.31l-1.38.8a10.45,10.45,0,0,1-1.83.83l1.37-.81A9.82,9.82,0,0,0,39.11,28.31Z"/><polygon class="cls-8" points="32.26 18.77 33.64 17.97 36.56 23.14 35.18 23.94 32.26 18.77"/><path class="cls-10" d="M29,11.87l1.38-.8a32.77,32.77,0,0,0,2.15,9,46.81,46.81,0,0,0,4.78,9.11l-1.37.81a46.68,46.68,0,0,1-4.79-9.12A32.77,32.77,0,0,1,29,11.87Z"/><polygon class="cls-14" points="32.26 18.77 33.64 17.97 34.79 17.32 33.42 18.12 32.26 18.77"/><polygon class="cls-14" points="33.42 18.12 34.79 17.32 36.52 20.24 35.14 21.04 33.42 18.12"/><path class="cls-8" d="M42.09,25.57a9.38,9.38,0,0,1-3,2.74l-1.38.8a9.38,9.38,0,0,0,3-2.74Z"/><polygon class="cls-14" points="35.14 21.04 36.52 20.24 39.73 18.53 38.35 19.33 35.14 21.04"/><polygon class="cls-8" points="35.18 23.94 36.56 23.14 40.96 20.63 39.58 21.43 35.18 23.94"/><polygon class="cls-14" points="38.35 19.33 39.73 18.53 40.96 20.63 39.58 21.43 38.35 19.33"/><polyline class="cls-10" points="35.18 23.94 32.26 18.77 33.42 18.12 35.14 21.04 38.35 19.33 39.58 21.43 35.18 23.94"/><path class="cls-8" d="M29,11.87l1.38-.8a21.16,21.16,0,0,0,3.48.84,16,16,0,0,0,3.5.14l-1.38.8a16,16,0,0,1-3.5-.14A20.42,20.42,0,0,1,29,11.87Z"/><path class="cls-8" d="M37.32,12.05a50.46,50.46,0,0,0,3.49,3.89l-1.38.8a50.46,50.46,0,0,1-3.49-3.89Z"/><path class="cls-10" d="M46.46,18.39c0,2.13-.29,6.16-2.57,9.4a10.25,10.25,0,0,1-3.3,3.05l-1.38.8a10.38,10.38,0,0,0,3.31-3.05c2.27-3.24,2.56-7.27,2.57-9.4a41.12,41.12,0,0,1-4.93-4.27A47.74,47.74,0,0,1,36,10.07a13.87,13.87,0,0,1-4.23,0,20.63,20.63,0,0,1-4.93-1.42l1.38-.81A19.73,19.73,0,0,0,33.1,9.25a13.87,13.87,0,0,0,4.23,0,48.85,48.85,0,0,0,4.21,4.86A42.68,42.68,0,0,0,46.46,18.39Z"/><path class="cls-15" d="M46.46,18.39c0,2.13-.29,6.16-2.57,9.4a10.25,10.25,0,0,1-3.3,3.05l-1.38.8a10.38,10.38,0,0,0,3.31-3.05c2.27-3.24,2.56-7.27,2.57-9.4a41.12,41.12,0,0,1-4.93-4.27A47.74,47.74,0,0,1,36,10.07a13.87,13.87,0,0,1-4.23,0,20.63,20.63,0,0,1-4.93-1.42l1.38-.81A19.73,19.73,0,0,0,33.1,9.25a13.87,13.87,0,0,0,4.23,0,48.85,48.85,0,0,0,4.21,4.86A42.68,42.68,0,0,0,46.46,18.39Z"/><path class="cls-8" d="M39.43,16.74a44.66,44.66,0,0,0,3.48,3.18,13.64,13.64,0,0,1-2.2,6.45,9.5,9.5,0,0,1-4.81,3.57,46.68,46.68,0,0,1-4.79-9.12,32.77,32.77,0,0,1-2.15-9,20.42,20.42,0,0,0,3.48.84,16,16,0,0,0,3.5.14A50.46,50.46,0,0,0,39.43,16.74Zm-4.25,7.2,4.4-2.51-1.23-2.1L35.14,21l-1.72-2.92-1.16.65,2.92,5.17"/><path class="cls-8" d="M40.81,15.94a44.55,44.55,0,0,0,3.47,3.18l-1.37.8a44.66,44.66,0,0,1-3.48-3.18Z"/><path class="cls-8" d="M44.28,19.12a13.51,13.51,0,0,1-2.19,6.45l-1.38.8a13.64,13.64,0,0,0,2.2-6.45Z"/><path class="cls-10" d="M40.16,14.92a41.94,41.94,0,0,0,4.92,4.27c0,2.13-.29,6.16-2.57,9.4a10.53,10.53,0,0,1-6.62,4.31A52.36,52.36,0,0,1,29.3,21,34.28,34.28,0,0,1,26.79,8.63a20.17,20.17,0,0,0,4.93,1.42,13.87,13.87,0,0,0,4.23,0A49,49,0,0,0,40.16,14.92Zm.55,11.45a13.64,13.64,0,0,0,2.2-6.45,44.66,44.66,0,0,1-3.48-3.18,50.46,50.46,0,0,1-3.49-3.89,16,16,0,0,1-3.5-.14A20.42,20.42,0,0,1,29,11.87a32.77,32.77,0,0,0,2.15,9,46.68,46.68,0,0,0,4.79,9.12,9.5,9.5,0,0,0,4.81-3.57"/></g><path class="cls-16" d="M45.08,19.18c0,2.14-.29,6.16-2.57,9.41a10.62,10.62,0,0,1-6.63,4.31A52.36,52.36,0,0,1,29.29,21a34.19,34.19,0,0,1-2.5-12.33A20.51,20.51,0,0,0,31.72,10a14.25,14.25,0,0,0,4.23,0,48.85,48.85,0,0,0,4.21,4.85A40,40,0,0,0,45.08,19.18Z"/></svg>