<svg viewBox="0 0 80 80" xmlns="http://www.w3.org/2000/svg" xmlns:xlink="http://www.w3.org/1999/xlink"><linearGradient id="a" gradientUnits="userSpaceOnUse" x1="22.17" x2="32.81" y1="27.67" y2="42.24"><stop offset="0" stop-color="#587e8d" stop-opacity="0"/><stop offset=".4" stop-color="#587e8d" stop-opacity="0"/><stop offset=".5" stop-color="#587e8d" stop-opacity=".11"/><stop offset=".7" stop-color="#587e8d" stop-opacity=".32"/><stop offset=".88" stop-color="#587e8d" stop-opacity=".45"/><stop offset="1" stop-color="#587e8d" stop-opacity=".5"/></linearGradient><linearGradient id="b" gradientUnits="userSpaceOnUse" x1="35.94" x2="36.66" y1="30.85" y2="35.87"><stop offset=".57" stop-color="#fff" stop-opacity="0"/><stop offset=".79" stop-color="#fff" stop-opacity=".3"/><stop offset=".87" stop-color="#fff" stop-opacity=".42"/><stop offset="1" stop-color="#fff" stop-opacity=".6"/></linearGradient><linearGradient id="c" gradientUnits="userSpaceOnUse" x1="76.89" x2="-3.46" y1="66.58" y2="61.56"><stop offset="0" stop-color="#587e8d" stop-opacity=".6"/><stop offset=".11" stop-color="#587e8d" stop-opacity=".55"/><stop offset=".27" stop-color="#587e8d" stop-opacity=".42"/><stop offset=".45" stop-color="#587e8d" stop-opacity=".21"/><stop offset=".6" stop-color="#587e8d" stop-opacity="0"/><stop offset="1" stop-color="#587e8d" stop-opacity="0"/></linearGradient><linearGradient id="d" x1="75.39" x2="11.14" xlink:href="#b" y1="69.32" y2="56.04"/><linearGradient id="e" x1="22.17" x2="32.81" xlink:href="#a" y1="11.86" y2="26.42"/><linearGradient id="f" x1="35.94" x2="36.66" xlink:href="#b" y1="15.03" y2="20.05"/><linearGradient id="g" x1="76.89" x2="-3.46" xlink:href="#c" y1="50.76" y2="45.75"/><linearGradient id="h" x1="75.39" x2="11.14" xlink:href="#b" y1="53.5" y2="40.23"/><linearGradient id="i" x1="22.17" x2="32.81" xlink:href="#a" y1="-3.96" y2="10.61"/><linearGradient id="j" x1="35.94" x2="36.66" xlink:href="#b" y1="-.78" y2="4.24"/><linearGradient id="k" x1="76.89" x2="-3.46" xlink:href="#c" y1="34.95" y2="29.93"/><linearGradient id="l" x1="75.39" x2="11.14" xlink:href="#b" y1="37.69" y2="24.41"/><linearGradient id="m" x1="59.43" x2="22.1" xlink:href="#b" y1="25.62" y2="15.38"/><path d="m39 69.44v10.56a4.27 4.27 0 0 1 -2-.47l-31.7-17.33a1.35 1.35 0 0 1 -.84-1.13v-10.54a1.16 1.16 0 0 0 .54.87 1.18 1.18 0 0 0 .18.13l.19.12 31.63 17.35a4.39 4.39 0 0 0 2 .44z" fill="#cdd8dd"/><path d="m73.26 50.6s0 0 0 .07a1.21 1.21 0 0 1 -.11.32.43.43 0 0 1 0 .07.1.1 0 0 1 0 0v.05a.86.86 0 0 1 -.14.13l-.06.05-.09.06-.1.06-31.76 17.59a4.32 4.32 0 0 1 -2 .46 4.39 4.39 0 0 1 -2-.46l-31.67-17.35-.19-.12a1.18 1.18 0 0 1 -.14-.13 1.16 1.16 0 0 1 -.47-.87 1.37 1.37 0 0 1 .83-1.11l31.37-17.33a4.66 4.66 0 0 1 4.06 0l31.62 17.33a1.32 1.32 0 0 1 .85 1.18z" fill="#fff"/><path d="m73.26 50.61s0 0 0 .07a1.21 1.21 0 0 1 -.11.32.43.43 0 0 0 0 .07v.05.05l-.14.13-.06.05-.09.06-.1.06-31.76 17.53a4.21 4.21 0 0 1 -2 .47 4.39 4.39 0 0 1 -2-.47l-31.67-17.34-.19-.12c-.07 0-.12-.09-.18-.13a1.18 1.18 0 0 1 -.47-.87 1.34 1.34 0 0 1 .83-1.11l31.41-17.33a4.66 4.66 0 0 1 4.06 0l31.62 17.33a1.31 1.31 0 0 1 .85 1.18z" fill="url(#a)" opacity=".6"/><path d="m67.77 50.6v.06a1 1 0 0 1 -.1.27v.05l-.12.11a1.84 1.84 0 0 0 -.31-.2l-26.77-14.39a4 4 0 0 0 -3.41 0l-26.42 14.58a1.62 1.62 0 0 0 -.29.19 1 1 0 0 1 -.4-.73 1.16 1.16 0 0 1 .7-.94l26.41-14.6a3.92 3.92 0 0 1 3.41 0l26.59 14.6c.5.28.74.64.71 1z" fill="#651fff"/><path d="m67.37 51.28h-.08-.09l-26.54 14.77a3.69 3.69 0 0 1 -1.72.39 3.58 3.58 0 0 1 -1.7-.39l-26.59-14.57-.16-.1-.14-.11a1.62 1.62 0 0 1 .29-.19l26.42-14.58a4 4 0 0 1 3.41 0l26.59 14.58a1.84 1.84 0 0 1 .31.2z" fill="#cdd8dd"/><path d="m67.37 51.28h-.08-.09l-26.54 14.77a3.94 3.94 0 0 1 -3.42 0l-26.59-14.57-.16-.1-.14-.1a1.64 1.64 0 0 1 .29-.2l26.42-14.57a3.92 3.92 0 0 1 3.41 0l26.59 14.57a1.84 1.84 0 0 1 .31.2z" fill="url(#b)"/><path d="m73.26 50.54v10.55a1.36 1.36 0 0 1 -.84 1.11l-31.42 17.32a4.32 4.32 0 0 1 -2 .48v-10.56a4.32 4.32 0 0 0 2-.44l31.43-17.35.1-.06.09-.06.06-.05a.86.86 0 0 0 .14-.13v-.05a.1.1 0 0 0 0 0 .43.43 0 0 0 0-.07.94.94 0 0 0 .11-.32s0 0 0-.07z" fill="#cdd8dd"/><path d="m73.26 50.55v10.55a1.36 1.36 0 0 1 -.84 1.11l-31.42 17.32a4.32 4.32 0 0 1 -2 .47 4.39 4.39 0 0 1 -2-.46l-31.7-17.33a1.35 1.35 0 0 1 -.84-1.13v-10.54a1.16 1.16 0 0 0 .47.87 1.18 1.18 0 0 0 .18.13l.19.12 31.7 17.34a4.39 4.39 0 0 0 2 .46 4.32 4.32 0 0 0 2-.46l31.43-17.34.1-.06.09-.06.06-.06a.86.86 0 0 0 .14-.13v-.05-.06-.06a1.07 1.07 0 0 0 .11-.33s0 0 0-.06z" fill="url(#c)" opacity=".8"/><path d="m73.26 50.56v10.54a1.35 1.35 0 0 1 -.84 1.11l-31.42 17.33a4.32 4.32 0 0 1 -2 .46 4.39 4.39 0 0 1 -2-.46l-31.7-17.33a1.35 1.35 0 0 1 -.84-1.12v-10.55a1.18 1.18 0 0 0 .47.88l.18.12.19.12 31.7 17.34a4.27 4.27 0 0 0 2 .46 4.32 4.32 0 0 0 2-.46l31.43-17.34a.31.31 0 0 1 .1 0l.09-.07a.1.1 0 0 1 0 0h.06l.14-.14v-.05s0 0 0 0v-.06-.06a1.07 1.07 0 0 0 .11-.33s0 0 0-.06z" fill="url(#d)"/><g fill="#fff"><path d="m69.47 56.82c.89-.49 1.61-.09 1.62.9a3.42 3.42 0 0 1 -1.61 2.7l-26.72 15c-.89.5-1.61.09-1.62-.9a3.43 3.43 0 0 1 1.61-2.7z" opacity=".3"/><path d="m46.7 70.44c.55-.3 1-.06 1 .53a2 2 0 0 1 -1 1.62c-.55.3-1 .06-1-.54a2 2 0 0 1 1-1.61z" opacity=".5"/><path d="m57 64.7c.55-.3 1-.06 1 .53a2.07 2.07 0 0 1 -1 1.62c-.55.3-1 .06-1-.54a2 2 0 0 1 1-1.61z" opacity=".9"/><path d="m66.93 59c.55-.3 1-.06 1 .53a2 2 0 0 1 -1 1.62c-.55.3-1 .06-1-.53a2.05 2.05 0 0 1 1-1.62z" opacity=".5"/></g><path d="m39 53.62v10.55a4.39 4.39 0 0 1 -2-.46l-31.7-17.33a1.34 1.34 0 0 1 -.84-1.12v-10.54a1.18 1.18 0 0 0 .47.87l.18.12.19.13 31.7 17.32a4.27 4.27 0 0 0 2 .46z" fill="#cdd8dd"/><path d="m73.26 34.79s0 0 0 .07a1.35 1.35 0 0 1 -.11.32v.06a.21.21 0 0 1 0 .06v.06l-.14.13h-.06a.1.1 0 0 0 0 0l-.09.06-.1.06-31.76 17.55a4.2 4.2 0 0 1 -2 .46 4.27 4.27 0 0 1 -2-.46l-31.67-17.32-.19-.13-.14-.12a1.18 1.18 0 0 1 -.47-.87 1.37 1.37 0 0 1 .83-1.12l31.37-17.32a4.66 4.66 0 0 1 4.06 0l31.62 17.32a1.33 1.33 0 0 1 .85 1.19z" fill="#fff"/><path d="m73.26 34.8s0 0 0 .06a1.42 1.42 0 0 1 -.11.33v.06.06.05l-.14.14h-.06a.1.1 0 0 0 0 0l-.09.06-.1.06-31.76 17.55a4.32 4.32 0 0 1 -2 .46 4.27 4.27 0 0 1 -2-.46l-31.67-17.33-.19-.12a1.18 1.18 0 0 1 -.14-.13 1.15 1.15 0 0 1 -.47-.87 1.37 1.37 0 0 1 .83-1.11l31.37-17.33a4.73 4.73 0 0 1 4.06 0l31.62 17.33a1.33 1.33 0 0 1 .85 1.19z" fill="url(#e)" opacity=".6"/><path d="m67.77 34.79v.05a.88.88 0 0 1 -.1.27v.06.05l-.12.11a1.86 1.86 0 0 0 -.31-.21l-26.77-14.43a3.92 3.92 0 0 0 -3.41 0l-26.42 14.57a1.64 1.64 0 0 0 -.29.2 1 1 0 0 1 -.4-.74 1.15 1.15 0 0 1 .7-.93l26.41-14.57a3.92 3.92 0 0 1 3.41 0l26.59 14.57a1.11 1.11 0 0 1 .71 1z" fill="#651fff"/><path d="m67.37 35.47h-.08-.09l-26.54 14.77a3.57 3.57 0 0 1 -1.72.38 3.7 3.7 0 0 1 -1.7-.38l-26.59-14.58-.16-.1a.71.71 0 0 1 -.14-.1 1.64 1.64 0 0 1 .29-.2l26.42-14.57a3.92 3.92 0 0 1 3.41 0l26.59 14.57a1.86 1.86 0 0 1 .31.21z" fill="#cdd8dd"/><path d="m67.37 35.47h-.08l-.09.05-26.54 14.72a3.69 3.69 0 0 1 -1.72.39 3.58 3.58 0 0 1 -1.7-.39l-26.59-14.57-.16-.1-.14-.11a1.62 1.62 0 0 1 .29-.19l26.42-14.58a4 4 0 0 1 3.41 0l26.59 14.58a1.84 1.84 0 0 1 .31.2z" fill="url(#f)"/><path d="m73.26 34.73v10.54a1.34 1.34 0 0 1 -.84 1.11l-31.42 17.33a4.2 4.2 0 0 1 -2 .46v-10.55a4.2 4.2 0 0 0 2-.46l31.43-17.32.1-.06.09-.06h.06l.14-.13v-.06s0 0 0 0a.21.21 0 0 0 0-.06v-.06a1 1 0 0 0 .11-.32s0 0 0-.07z" fill="#cdd8dd"/><path d="m73.26 34.74v10.55a1.34 1.34 0 0 1 -.84 1.1l-31.42 17.33a4.2 4.2 0 0 1 -2 .46 4.39 4.39 0 0 1 -2-.46l-31.7-17.33a1.34 1.34 0 0 1 -.84-1.12v-10.54a1.18 1.18 0 0 0 .54.87l.18.13.19.12 31.63 17.32a4.39 4.39 0 0 0 2 .47 4.32 4.32 0 0 0 2-.47l31.43-17.32.1-.06.09-.06h.06l.14-.13v-.06-.06-.06a.94.94 0 0 0 .11-.32s0 0 0-.07z" fill="url(#g)" opacity=".8"/><path d="m73.26 34.74v10.55a1.36 1.36 0 0 1 -.84 1.11l-31.42 17.32a4.32 4.32 0 0 1 -2 .47 4.39 4.39 0 0 1 -2-.47l-31.7-17.32a1.35 1.35 0 0 1 -.84-1.13v-10.54a1.16 1.16 0 0 0 .54.87c.06 0 .11.09.18.13l.19.12 31.63 17.33a4.39 4.39 0 0 0 2 .46 4.32 4.32 0 0 0 2-.46l31.43-17.33.1-.06.09-.06h.06a.86.86 0 0 0 .14-.13v-.05a.1.1 0 0 0 0-.05.43.43 0 0 0 0-.07.94.94 0 0 0 .11-.32s0 0 0-.07z" fill="url(#h)"/><path d="m69.47 41c.89-.5 1.61-.1 1.62.89a3.44 3.44 0 0 1 -1.61 2.71l-26.72 15c-.89.49-1.61.09-1.62-.9a3.45 3.45 0 0 1 1.61-2.7z" fill="#fff" opacity=".4"/><path d="m46.7 54.62c.55-.3 1-.06 1 .54a2 2 0 0 1 -1 1.61c-.55.3-1 .06-1-.53a2.07 2.07 0 0 1 1-1.62z" fill="#fff" opacity=".5"/><path d="m57 48.88c.55-.3 1-.06 1 .54a2 2 0 0 1 -1 1.58c-.55.3-1 .06-1-.53a2 2 0 0 1 1-1.59z" fill="#fff" opacity=".9"/><path d="m66.93 43.18c.55-.29 1 0 1 .54a2.05 2.05 0 0 1 -1 1.62c-.55.29-1 .06-1-.54a2.07 2.07 0 0 1 1-1.62z" fill="#fff" opacity=".5"/><path d="m39 37.81v10.55a4.39 4.39 0 0 1 -2-.46l-31.7-17.33a1.35 1.35 0 0 1 -.84-1.12v-10.55a1.16 1.16 0 0 0 .47.87 1.18 1.18 0 0 0 .18.13l.19.12 31.7 17.33a4.39 4.39 0 0 0 2 .46z" fill="#cdd8dd"/><path d="m73.26 19s0 0 0 .06a1.42 1.42 0 0 1 -.11.33v.06.06.05.05a.86.86 0 0 1 -.14.13h-.06l-.09.06-.1.06-31.76 17.49a4.32 4.32 0 0 1 -2 .46 4.39 4.39 0 0 1 -2-.46l-31.67-17.35-.19-.12a1.18 1.18 0 0 1 -.14-.11 1.16 1.16 0 0 1 -.47-.87 1.37 1.37 0 0 1 .83-1.11l31.37-17.33a4.73 4.73 0 0 1 4.06 0l31.62 17.33a1.33 1.33 0 0 1 .85 1.21z" fill="#fff"/><path d="m73.26 19s0 .05 0 .07a1.21 1.21 0 0 1 -.11.32v.07.05.05l-.14.13h-.06l-.09.06-.1.06-31.76 17.54a4.21 4.21 0 0 1 -2 .47 4.39 4.39 0 0 1 -2-.47l-31.67-17.35-.19-.12c-.07 0-.12-.09-.18-.13a1.16 1.16 0 0 1 -.47-.87 1.35 1.35 0 0 1 .83-1.11l31.41-17.3a4.66 4.66 0 0 1 4.06 0l31.62 17.33a1.32 1.32 0 0 1 .85 1.2z" fill="url(#i)" opacity=".6"/><path d="m67.77 19a1 1 0 0 1 -.1.27v.05l-.12.11a1.84 1.84 0 0 0 -.31-.2l-26.77-14.35a3.92 3.92 0 0 0 -3.41 0l-26.42 14.57a1.64 1.64 0 0 0 -.29.2 1 1 0 0 1 -.4-.73 1.16 1.16 0 0 1 .7-.94l26.41-14.58a3.92 3.92 0 0 1 3.41 0l26.59 14.6c.5.25.74.61.71 1z" fill="#651fff"/><path d="m67.37 19.65-.08.05-.09.05-26.54 14.67a3.69 3.69 0 0 1 -1.72.39 3.58 3.58 0 0 1 -1.7-.39l-26.59-14.57-.16-.1-.14-.1a1.64 1.64 0 0 1 .29-.2l26.42-14.57a3.92 3.92 0 0 1 3.41 0l26.59 14.57a1.84 1.84 0 0 1 .31.2z" fill="#cdd8dd"/><path d="m67.37 19.66-.08.06h-.09l-26.54 14.71a3.57 3.57 0 0 1 -1.72.38 3.7 3.7 0 0 1 -1.7-.38l-26.59-14.58-.16-.1-.14-.1a1.64 1.64 0 0 1 .29-.2l26.42-14.57a3.92 3.92 0 0 1 3.41 0l26.59 14.57a1.41 1.41 0 0 1 .31.21z" fill="url(#j)"/><path d="m73.26 18.91v10.55a1.36 1.36 0 0 1 -.84 1.11l-31.42 17.32a4.32 4.32 0 0 1 -2 .47v-10.55a4.32 4.32 0 0 0 2-.46l31.43-17.35.1-.06.09-.06h.06a.86.86 0 0 0 .14-.13v-.05-.05-.06-.06a1.07 1.07 0 0 0 .11-.33s0 0 0-.06z" fill="#cdd8dd"/><path d="m73.26 18.92v10.55a1.36 1.36 0 0 1 -.84 1.11l-31.42 17.33a4.32 4.32 0 0 1 -2 .46 4.39 4.39 0 0 1 -2-.46l-31.7-17.33a1.35 1.35 0 0 1 -.84-1.12v-10.55a1.15 1.15 0 0 0 .47.87 1.18 1.18 0 0 0 .18.13l.19.12 31.7 17.33a4.39 4.39 0 0 0 2 .46 4.32 4.32 0 0 0 2-.46l31.43-17.36.1-.06.09-.06.06-.05a.86.86 0 0 0 .14-.13v-.05a.21.21 0 0 0 0-.06v-.06a1.07 1.07 0 0 0 .11-.33s0 0 0-.06z" fill="url(#k)" opacity=".8"/><path d="m73.26 18.93v10.54a1.34 1.34 0 0 1 -.84 1.11l-31.42 17.33a4.2 4.2 0 0 1 -2 .46 4.39 4.39 0 0 1 -2-.46l-31.7-17.33a1.34 1.34 0 0 1 -.84-1.12v-10.54a1.18 1.18 0 0 0 .47.87l.18.12a.76.76 0 0 0 .19.12l31.7 17.33a4.27 4.27 0 0 0 2 .46 4.2 4.2 0 0 0 2-.46l31.43-17.36.1-.05.09-.06.06-.05.14-.13v-.06s0 0 0 0a.21.21 0 0 0 0-.06v-.06a1.11 1.11 0 0 0 .11-.32s0 0 0-.07z" fill="url(#l)"/><path d="m69.47 25.19c.89-.49 1.61-.09 1.62.9a3.45 3.45 0 0 1 -1.61 2.71l-26.72 15c-.89.5-1.61.1-1.62-.89a3.45 3.45 0 0 1 1.61-2.71z" fill="#fff" opacity=".8"/><path d="m46.7 38.81c.55-.3 1-.06 1 .53a2 2 0 0 1 -1 1.62c-.55.3-1 .06-1-.53a2.05 2.05 0 0 1 1-1.62z" fill="#651fff" opacity=".5"/><path d="m57 33.07c.55-.3 1-.06 1 .53a2.05 2.05 0 0 1 -1 1.62c-.55.3-1 .06-1-.54a2 2 0 0 1 1-1.61z" fill="#651fff" opacity=".9"/><path d="m66.93 27.37c.55-.3 1-.06 1 .54a2 2 0 0 1 -1 1.61c-.55.3-1 .06-1-.53a2.05 2.05 0 0 1 1-1.62z" fill="#651fff" opacity=".5"/><path d="m51.32 12.82a1.45 1.45 0 0 1 .56.47l4.5 7.13a.9.9 0 0 1 -.13 1.09l-7 6.36a3.45 3.45 0 0 1 -1.68.57l-13.23.79a3.08 3.08 0 0 1 -1.73-.3l-.15-.09-9.46-5.31a1.33 1.33 0 0 1 -.7-1.06l1.37-7.47a1.59 1.59 0 0 1 1-.93l11.3-4a3.53 3.53 0 0 1 1.91-.07l12.68 2.49a4.88 4.88 0 0 1 .76.33z" fill="#651fff"/><path d="m51.32 12.82a1.42 1.42 0 0 1 .57.47l4.5 7.13a.9.9 0 0 1 -.14 1.09l-7 6.36a3.42 3.42 0 0 1 -1.68.57l-13.22.79a3.1 3.1 0 0 1 -1.74-.3l-.14-.09-9.47-5.31a1.35 1.35 0 0 1 -.71-1.06l1.38-7.47a1.59 1.59 0 0 1 1-.93l11.3-4a3.53 3.53 0 0 1 1.91-.07l12.69 2.49a4.37 4.37 0 0 1 .75.33z" fill="url(#m)"/><path d="m46.36 25.92c.19.17.2.42-.08.61a1.42 1.42 0 0 1 -1-.09.27.27 0 0 1 -.11-.1s0 0 0 0 0-.07-.08-.08a.73.73 0 0 1 -.17-.26.28.28 0 0 1 -.12-.12 4.71 4.71 0 0 0 -.67-.67.72.72 0 0 0 -.34-.09l-.25-.14a16.82 16.82 0 0 1 -6.84.44l-.14.17a.5.5 0 0 0 -.36.15 1.71 1.71 0 0 0 -.36.71 1.52 1.52 0 0 0 -.09.17.41.41 0 0 1 -.08.27.08.08 0 0 1 0 .08.68.68 0 0 1 -.39.28 1 1 0 0 1 -.56 0 1.15 1.15 0 0 1 -.28-.09.37.37 0 0 1 -.2-.49c0-.06 0-.08 0-.11a.71.71 0 0 1 .2-.24l.11-.12a3 3 0 0 0 .53-.72.27.27 0 0 0 -.06-.22l.08-.2c-.36-.11-.79-.22-1.15-.37a8.15 8.15 0 0 1 -1.71-.74 6.51 6.51 0 0 1 -2-1.62l-.34.06a1.42 1.42 0 0 0 -.45 0 9.58 9.58 0 0 0 -1.23.28l-.22.06c-.14 0-.28.07-.42.11s-.12 0-.14 0a1.52 1.52 0 0 1 -.93-.11.47.47 0 0 1 -.14-.14c-.11-.22.11-.48.53-.56h.19c.2 0 .37-.05.48-.05h.25c.45-.07.9-.13 1.29-.23.11 0 .23-.09.25-.17l.34-.06a2.44 2.44 0 0 1 -.26-.71 3.47 3.47 0 0 1 1-3.15l-.28-.12a.23.23 0 0 0 -.14-.21 9.31 9.31 0 0 0 -1.2-.39.65.65 0 0 0 -.26-.08l-.42-.11s-.05-.05-.08-.06a.59.59 0 0 1 -.26-.07c-.29-.16-.35-.37-.17-.54a1.23 1.23 0 0 1 1.1-.11h.08l.14.05.37.17a.68.68 0 0 1 .19.08 10.19 10.19 0 0 0 1.13.44 1 1 0 0 0 .39 0l.34.1a11.45 11.45 0 0 1 5.56-2h.23v-.19a.2.2 0 0 0 .14-.18 1.89 1.89 0 0 0 -.23-.76l-.07-.23a1.4 1.4 0 0 1 -.14-.27s0-.07 0-.08c0-.26.25-.49.67-.53a.9.9 0 0 1 .59.11.51.51 0 0 1 .25.3v.11s0 .17 0 .27a.16.16 0 0 1 0 .12 2.19 2.19 0 0 0 .06.76.28.28 0 0 0 .11.13c.05 0 .11 0 .14.05l.08.17a15.3 15.3 0 0 1 5.42.84c.39.15.76.3 1.09.46l.26-.12a1.91 1.91 0 0 0 .42-.07 7.22 7.22 0 0 0 .89-.57.5.5 0 0 0 .17-.13 1.24 1.24 0 0 1 .28-.22l.14-.08a1.13 1.13 0 0 1 .56-.13 1.35 1.35 0 0 1 .61.12h.06c.25.18.2.46-.11.6l-.17.1c-.14 0-.25.11-.39.16s-.14 0-.19.07a9.07 9.07 0 0 0 -1 .53c0 .06-.11.12-.08.2l-.17.13a5.11 5.11 0 0 1 2.21 2.87v.78h.36a.47.47 0 0 0 .11.1.77.77 0 0 0 .23.06 9.71 9.71 0 0 0 1.32.05h.22a3.62 3.62 0 0 1 .48 0 .28.28 0 0 0 .14 0 1.31 1.31 0 0 1 .59.14.35.35 0 0 1 .2.33c-.06.26-.45.41-.9.38a.49.49 0 0 1 -.19 0l-.48-.08-.25-.05a11.68 11.68 0 0 0 -1.43-.06.78.78 0 0 0 -.34.09h-.36a5.06 5.06 0 0 1 -1.31 1.91 9 9 0 0 1 -2.34 1.46l.17.16a.16.16 0 0 0 0 .22 5.08 5.08 0 0 0 .79.63.91.91 0 0 0 .16.13 1.18 1.18 0 0 1 .31.2c.06 0 .12.06.09.08s0 .02.03.04zm-5.67-1.58a9.88 9.88 0 0 0 1.59-.3l-2.34-1.85a1.17 1.17 0 0 0 -.3-.11 1 1 0 0 0 -.79.16l-1.53 2.1a13.57 13.57 0 0 0 3.37 0m-5.69-4.19a.5.5 0 0 0 .31-.14c.19-.14.11-.35-.12-.48l-3.25-1.29a2.7 2.7 0 0 0 -.61 2.76zm2.13-4.31a10.52 10.52 0 0 0 -4.22 1.47l3.51 1.09a.74.74 0 0 0 .36 0c.37 0 .62-.19.59-.39l-.24-2.21m-2.28 7.94c.26.08.45.16.65.24l1.08-2.13a.61.61 0 0 0 0-.24.34.34 0 0 0 -.16-.15.9.9 0 0 0 -.51-.1l-3.91.64a6.6 6.6 0 0 0 1.49 1.15 9.08 9.08 0 0 0 1.35.6m8.16-7.38a13 13 0 0 0 -4-.66l.64 2.29c.06.07.08.12.17.16a1 1 0 0 0 .92 0l2.94-1.5zm.86 7.1a6.59 6.59 0 0 0 1.65-1.06 3.87 3.87 0 0 0 1-1.31l-4-.11a.84.84 0 0 0 -.31.05c-.31.11-.42.33-.22.5l1.92 1.93m2.76-3.47a3.37 3.37 0 0 0 -1.66-2.6l-2.65 1.69c-.09.05-.11.1-.11.16s0 .23.18.31a1 1 0 0 0 .32.1l3.93.38m-7.27-.68-1.2.08-.61.57.39.63 1.13.22 1-.35.14-.68z" fill="#fff"/></svg>