<svg viewBox="0 0 80 80" xmlns="http://www.w3.org/2000/svg" xmlns:xlink="http://www.w3.org/1999/xlink"><linearGradient id="a" gradientUnits="userSpaceOnUse" x1="-3.32" x2="83.46" y1="77.36" y2="26.82"><stop offset="0" stop-color="#587e8d" stop-opacity="0"/><stop offset=".4" stop-color="#587e8d" stop-opacity="0"/><stop offset=".5" stop-color="#587e8d" stop-opacity=".11"/><stop offset=".7" stop-color="#587e8d" stop-opacity=".32"/><stop offset=".88" stop-color="#587e8d" stop-opacity=".45"/><stop offset="1" stop-color="#587e8d" stop-opacity=".5"/></linearGradient><linearGradient id="b" gradientUnits="userSpaceOnUse" x1="75.17" x2="3.95" y1="59.89" y2="68.47"><stop offset="0" stop-color="#587e8d" stop-opacity=".6"/><stop offset=".11" stop-color="#587e8d" stop-opacity=".55"/><stop offset=".27" stop-color="#587e8d" stop-opacity=".42"/><stop offset=".45" stop-color="#587e8d" stop-opacity=".21"/><stop offset=".6" stop-color="#587e8d" stop-opacity="0"/><stop offset="1" stop-color="#587e8d" stop-opacity="0"/></linearGradient><linearGradient id="c" x1="74.29" x2="3.07" xlink:href="#b" y1="52.53" y2="61.1"/><linearGradient id="d" x1="-3.32" x2="83.46" xlink:href="#a" y1="66.53" y2="15.99"/><linearGradient id="e" x1="75.17" x2="3.95" xlink:href="#b" y1="49.06" y2="57.64"/><linearGradient id="f" x1="74.29" x2="3.07" xlink:href="#b" y1="41.7" y2="50.27"/><linearGradient id="g" x1="-3.32" x2="83.46" xlink:href="#a" y1="55.71" y2="5.16"/><linearGradient id="h" x1="75.17" x2="3.95" xlink:href="#b" y1="38.23" y2="46.81"/><linearGradient id="i" x1="74.29" x2="3.07" xlink:href="#b" y1="30.87" y2="39.44"/><linearGradient id="j" x1="-3.32" x2="83.46" xlink:href="#a" y1="44.88" y2="-5.67"/><linearGradient id="k" x1="75.17" x2="3.95" xlink:href="#b" y1="27.4" y2="35.98"/><linearGradient id="l" x1="74.29" x2="3.07" xlink:href="#b" y1="20.04" y2="28.61"/><path d="m73.92 52.55v7.45a.66.66 0 0 1 -.4.56l-33 19.19a2.15 2.15 0 0 1 -1.06.23v-7.5a2.06 2.06 0 0 0 1.09-.22l32.97-19.19a1.16 1.16 0 0 0 .21-.16l.06-.07a.4.4 0 0 0 .1-.18 0 0 0 0 0 0 0 .08.08 0 0 0 .03-.11z" fill="#cdd8dd"/><path d="m73.92 52.51a.35.35 0 0 1 0 .11.4.4 0 0 0 0-.11z" fill="#cdd8dd"/><path d="m73.92 52.51a.08.08 0 0 1 0 0 0 0 0 0 1 0 0 .4.4 0 0 1 -.1.18l-.06.07a1.16 1.16 0 0 1 -.21.16l-33 19.19a2.06 2.06 0 0 1 -1.09.22 1.86 1.86 0 0 1 -.86-.23l-33.33-19.1h-.07-.06l-.14-.19a.24.24 0 0 1 -.06-.09v-.06a.52.52 0 0 1 0-.11.67.67 0 0 1 .4-.56l32.98-19.27a2.16 2.16 0 0 1 2 0l33.19 19.22a.7.7 0 0 1 .41.57z" fill="#fff"/><path d="m73.92 52.51a.08.08 0 0 1 0 0 0 0 0 0 1 0 0 .4.4 0 0 1 -.1.18l-.06.07a1.16 1.16 0 0 1 -.21.16l-33 19.19a2.06 2.06 0 0 1 -1.09.22 1.86 1.86 0 0 1 -.86-.23l-33.33-19.1h-.07-.06l-.14-.19a.24.24 0 0 1 -.06-.09v-.06a.52.52 0 0 1 0-.11.67.67 0 0 1 .4-.56l32.98-19.27a2.16 2.16 0 0 1 2 0l33.19 19.22a.7.7 0 0 1 .41.57z" fill="url(#a)"/><path d="m39.38 72.48v7.52a2.13 2.13 0 0 1 -.89-.23l-33.24-19.24a.71.71 0 0 1 -.41-.53v-7.45a.52.52 0 0 0 0 .11.09.09 0 0 0 0 .06.24.24 0 0 0 .06.09l.06.06h.06.07l33.43 19.38a1.86 1.86 0 0 0 .86.23z" fill="#cdd8dd"/><g opacity=".9"><path d="m73.93 52.57v7.45a.71.71 0 0 1 -.4.57l-33.07 19.18a2.08 2.08 0 0 1 -1.07.23 1.91 1.91 0 0 1 -.88-.23l-33.25-19.22a.7.7 0 0 1 -.41-.55v-7.45a.43.43 0 0 0 0 .11s0 0 0 0v.06l.06.09.06.07.06.05.07.05 33.43 19.3a2.15 2.15 0 0 0 .87.23 2.1 2.1 0 0 0 1.08-.23l33.05-19.19a1.13 1.13 0 0 0 .21-.15l.06-.07a.72.72 0 0 0 .11-.19.06.06 0 0 0 .02-.11z" fill="url(#b)"/><path d="m73.93 52.53a.06.06 0 0 1 0 0 .22.22 0 0 0 0 0z" fill="url(#c)"/></g><g fill="#fff" opacity=".6"><path d="m12.22 58.9a.44.44 0 0 1 .19.34v4.06c0 .12-.09.17-.2.11a.41.41 0 0 1 -.19-.34v-4.07c-.02-.11.09-.16.2-.1z"/><path d="m13.57 59.67a.42.42 0 0 1 .2.33v4.07c0 .12-.09.17-.2.11a.43.43 0 0 1 -.19-.34v-4.06c0-.13.09-.18.19-.11z"/><path d="m14.93 60.45a.45.45 0 0 1 .2.34v4.06c0 .13-.09.18-.2.12a.44.44 0 0 1 -.19-.34v-4.07a.12.12 0 0 1 .19-.11z"/><path d="m16.29 61.24a.44.44 0 0 1 .2.34v4.06c0 .13-.09.18-.2.11a.41.41 0 0 1 -.19-.33v-4.07a.12.12 0 0 1 .19-.11z"/><path d="m17.65 62a.42.42 0 0 1 .2.33v4.07c0 .12-.09.17-.2.11a.43.43 0 0 1 -.19-.34v-4.03c0-.14.09-.14.19-.14z"/><path d="m20.37 63.59a.45.45 0 0 1 .2.34v4.07c0 .13-.09.18-.2.12a.42.42 0 0 1 -.19-.34v-4.07c0-.13.09-.18.19-.12z"/><path d="m21.73 64.38a.42.42 0 0 1 .2.34v4.06c0 .12-.09.17-.2.11a.42.42 0 0 1 -.2-.34v-4.06a.12.12 0 0 1 .2-.11z"/><path d="m23.09 65.16a.44.44 0 0 1 .2.34v4.06c0 .13-.09.18-.2.11a.42.42 0 0 1 -.2-.33v-4.07a.12.12 0 0 1 .2-.11z"/><path d="m24.45 66a.42.42 0 0 1 .2.33v4.07c0 .12-.09.17-.2.11a.44.44 0 0 1 -.2-.34v-4.06c.01-.17.09-.22.2-.11z"/><path d="m25.81 66.74a.45.45 0 0 1 .2.34v4.06c0 .13-.09.18-.2.12a.45.45 0 0 1 -.2-.34v-4.07c.01-.12.09-.17.2-.11z"/><path d="m31.79 70.22a.44.44 0 0 1 .2.34v4.06c0 .13-.09.18-.2.11a.39.39 0 0 1 -.19-.33v-4.07a.12.12 0 0 1 .19-.11z"/><path d="m33.15 71a.42.42 0 0 1 .2.34v4.06c0 .12-.09.17-.2.11a.42.42 0 0 1 -.2-.34v-4.06a.12.12 0 0 1 .2-.11z"/></g><ellipse cx="8.07" cy="58.52" fill="#fff" rx=".86" ry="1.49" transform="matrix(.86 -.5 .5 .86 -28.31 11.98)"/><path d="m73.92 41.72v7.45a.66.66 0 0 1 -.4.56l-33 19.19a2.15 2.15 0 0 1 -1.06.23v-7.5a2.06 2.06 0 0 0 1.09-.22l32.97-19.19a1.16 1.16 0 0 0 .21-.16l.06-.07a.4.4 0 0 0 .1-.18 0 0 0 0 0 0 0 .08.08 0 0 0 .03-.11z" fill="#cdd8dd"/><path d="m73.92 41.68a.35.35 0 0 1 0 .11.4.4 0 0 0 0-.11z" fill="#cdd8dd"/><path d="m73.92 41.68a.08.08 0 0 1 0 0 0 0 0 0 1 0 0 .4.4 0 0 1 -.1.18l-.06.07a1.16 1.16 0 0 1 -.21.16l-33 19.19a2.06 2.06 0 0 1 -1.09.22 1.86 1.86 0 0 1 -.86-.23l-33.33-19.07h-.07l-.06-.05-.14-.15a.24.24 0 0 1 -.06-.09v-.06s0 0 0 0a.52.52 0 0 1 0-.11.67.67 0 0 1 .4-.56l32.98-19.29a2.16 2.16 0 0 1 2 0l33.19 19.22a.7.7 0 0 1 .41.57z" fill="#fff"/><path d="m73.92 41.68a.08.08 0 0 1 0 0 0 0 0 0 1 0 0 .4.4 0 0 1 -.1.18l-.06.07a1.16 1.16 0 0 1 -.21.16l-33 19.19a2.06 2.06 0 0 1 -1.09.22 1.86 1.86 0 0 1 -.86-.23l-33.33-19.07h-.07l-.06-.05-.14-.15a.24.24 0 0 1 -.06-.09v-.06s0 0 0 0a.52.52 0 0 1 0-.11.67.67 0 0 1 .4-.56l32.98-19.29a2.16 2.16 0 0 1 2 0l33.19 19.22a.7.7 0 0 1 .41.57z" fill="url(#d)"/><path d="m39.38 61.65v7.5a2 2 0 0 1 -.89-.23l-33.24-19.22a.71.71 0 0 1 -.41-.57v-7.45a.52.52 0 0 0 0 .11s0 0 0 0a.09.09 0 0 0 0 .06.24.24 0 0 0 .16.15l.06.07.06.05h.07l33.33 19.3a1.86 1.86 0 0 0 .86.23z" fill="#cdd8dd"/><g opacity=".9"><path d="m73.93 41.74v7.46a.71.71 0 0 1 -.4.56l-33.07 19.18a2.08 2.08 0 0 1 -1.07.23 1.91 1.91 0 0 1 -.88-.23l-33.25-19.22a.7.7 0 0 1 -.41-.57v-7.45a.36.36 0 0 0 0 .11s0 0 0 0v.06l.15.13.06.07h.06l.07.05 33.34 19.33a2.15 2.15 0 0 0 .87.23 2.1 2.1 0 0 0 1.08-.23l33.05-19.19a1.13 1.13 0 0 0 .21-.15l.06-.11a.72.72 0 0 0 .11-.19.06.06 0 0 0 .02-.07z" fill="url(#e)"/><path d="m73.93 41.7a.06.06 0 0 1 0 0 .22.22 0 0 0 0 0z" fill="url(#f)"/></g><g fill="#fff" opacity=".6"><path d="m12.22 48.07a.44.44 0 0 1 .19.34v4.06c0 .12-.09.17-.2.11a.41.41 0 0 1 -.19-.34v-4.06c-.02-.12.09-.18.2-.11z"/><path d="m13.57 48.84a.42.42 0 0 1 .2.33v4.07c0 .12-.09.17-.2.11a.43.43 0 0 1 -.19-.34v-4.01c0-.18.09-.23.19-.16z"/><path d="m14.93 49.62a.45.45 0 0 1 .2.34v4.04c0 .13-.09.18-.2.12a.44.44 0 0 1 -.19-.34v-4.05a.12.12 0 0 1 .19-.11z"/><path d="m16.29 50.41a.44.44 0 0 1 .2.34v4.06c0 .13-.09.18-.2.11a.41.41 0 0 1 -.19-.33v-4.07a.12.12 0 0 1 .19-.11z"/><path d="m17.65 51.2a.42.42 0 0 1 .2.33v4.07c0 .12-.09.17-.2.11a.43.43 0 0 1 -.19-.34v-4.06c0-.13.09-.18.19-.11z"/><path d="m20.37 52.76a.45.45 0 0 1 .2.34v4.06c0 .13-.09.18-.2.12a.42.42 0 0 1 -.19-.34v-4.06c0-.13.09-.18.19-.12z"/><path d="m21.73 53.55a.42.42 0 0 1 .2.34v4.11c0 .12-.09.17-.2.11a.42.42 0 0 1 -.2-.34v-4.06a.12.12 0 0 1 .2-.16z"/><path d="m23.09 54.33a.44.44 0 0 1 .2.34v4.06c0 .13-.09.18-.2.11a.42.42 0 0 1 -.2-.33v-4.07a.12.12 0 0 1 .2-.11z"/><path d="m24.45 55.13a.42.42 0 0 1 .2.33v4.07c0 .12-.09.17-.2.11a.44.44 0 0 1 -.2-.34v-4.06c.01-.13.09-.18.2-.11z"/><path d="m25.81 55.91a.45.45 0 0 1 .2.34v4.06c0 .13-.09.18-.2.12a.45.45 0 0 1 -.2-.34v-4.07c.01-.12.09-.17.2-.11z"/><path d="m31.79 59.39a.44.44 0 0 1 .2.34v4.06c0 .13-.09.18-.2.11a.39.39 0 0 1 -.19-.33v-4.07a.12.12 0 0 1 .19-.11z"/><path d="m33.15 60.18a.42.42 0 0 1 .2.34v4.06c0 .12-.09.17-.2.11a.42.42 0 0 1 -.2-.34v-4.06a.12.12 0 0 1 .2-.11z"/></g><ellipse cx="8.07" cy="47.69" fill="#fff" rx=".86" ry="1.49" transform="matrix(.86 -.5 .5 .86 -22.87 10.51)"/><path d="m73.92 30.89v7.45a.66.66 0 0 1 -.4.56l-33 19.19a2.15 2.15 0 0 1 -1.06.23v-7.5a2.06 2.06 0 0 0 1.09-.22l32.97-19.19a1.16 1.16 0 0 0 .21-.16l.06-.06a.5.5 0 0 0 .1-.19 0 0 0 0 0 0 0 .08.08 0 0 0 .03-.11z" fill="#cdd8dd"/><path d="m73.92 30.85a.35.35 0 0 1 0 .11.4.4 0 0 0 0-.11z" fill="#cdd8dd"/><path d="m73.92 30.85a.08.08 0 0 1 0 0 0 0 0 0 1 0 0 .5.5 0 0 1 -.1.19l-.06.06a1.16 1.16 0 0 1 -.21.16l-33 19.19a2.06 2.06 0 0 1 -1.09.22 1.86 1.86 0 0 1 -.86-.23l-33.33-19.06a.18.18 0 0 0 -.07-.05l-.06-.05-.14-.13a.24.24 0 0 1 -.06-.09v-.06s0 0 0 0a.52.52 0 0 1 0-.11.67.67 0 0 1 .4-.56l32.98-19.27a2.16 2.16 0 0 1 2 0l33.19 19.22a.7.7 0 0 1 .41.57z" fill="#fff"/><path d="m73.92 30.85a.08.08 0 0 1 0 0 0 0 0 0 1 0 0 .5.5 0 0 1 -.1.19l-.06.06a1.16 1.16 0 0 1 -.21.16l-33 19.19a2.06 2.06 0 0 1 -1.09.22 1.86 1.86 0 0 1 -.86-.23l-33.33-19.06a.18.18 0 0 0 -.07-.05l-.06-.05-.14-.13a.24.24 0 0 1 -.06-.09v-.06s0 0 0 0a.52.52 0 0 1 0-.11.67.67 0 0 1 .4-.56l32.98-19.27a2.16 2.16 0 0 1 2 0l33.19 19.22a.7.7 0 0 1 .41.57z" fill="url(#g)"/><path d="m39.38 50.82v7.5a2 2 0 0 1 -.89-.23l-33.24-19.22a.71.71 0 0 1 -.41-.57v-7.45a.52.52 0 0 0 0 .11s0 0 0 0a.09.09 0 0 0 0 .06.24.24 0 0 0 .06.09l.06.07.06.05a.18.18 0 0 1 .07.05l33.43 19.31a1.86 1.86 0 0 0 .86.23z" fill="#cdd8dd"/><g opacity=".9"><path d="m73.93 30.91v7.46a.71.71 0 0 1 -.4.56l-33.07 19.18a2.08 2.08 0 0 1 -1.07.23 1.91 1.91 0 0 1 -.88-.23l-33.25-19.22a.7.7 0 0 1 -.41-.57v-7.45a.36.36 0 0 0 0 .11s0 0 0 0v.06l.06.09.06.07.06.05.07.05 33.43 19.32a2.15 2.15 0 0 0 .87.23 2.1 2.1 0 0 0 1.08-.23l33.05-19.19a1.13 1.13 0 0 0 .21-.15l.06-.07a.87.87 0 0 0 .11-.18.06.06 0 0 0 .02-.12z" fill="url(#h)"/><path d="m73.93 30.87a.06.06 0 0 1 0 0 .22.22 0 0 0 0 0z" fill="url(#i)"/></g><g fill="#fff" opacity=".8"><path d="m12.22 37.24a.44.44 0 0 1 .19.34v4.06c0 .12-.09.17-.2.11a.41.41 0 0 1 -.19-.34v-4.06c-.02-.12.09-.17.2-.11z"/><path d="m13.57 38a.42.42 0 0 1 .2.33v4.07c0 .12-.09.17-.2.11a.43.43 0 0 1 -.19-.34v-4.05c0-.12.09-.18.19-.12z"/><path d="m14.93 38.79a.45.45 0 0 1 .2.34v4.06c0 .13-.09.18-.2.12a.44.44 0 0 1 -.19-.34v-4.07a.12.12 0 0 1 .19-.11z"/><path d="m16.29 39.58a.44.44 0 0 1 .2.34v4.08c0 .13-.09.18-.2.11a.41.41 0 0 1 -.19-.33v-4.09a.12.12 0 0 1 .19-.11z"/><path d="m17.65 40.37a.42.42 0 0 1 .2.33v4.07c0 .12-.09.17-.2.11a.43.43 0 0 1 -.19-.34v-4.06c0-.13.09-.18.19-.11z"/><path d="m21.73 42.72a.42.42 0 0 1 .2.34v4.06c0 .12-.09.17-.2.11a.42.42 0 0 1 -.2-.34v-4.06a.12.12 0 0 1 .2-.11z"/><path d="m23.09 43.5a.44.44 0 0 1 .2.34v4.06c0 .13-.09.18-.2.11a.42.42 0 0 1 -.2-.33v-4.07a.12.12 0 0 1 .2-.11z"/><path d="m24.45 44.3a.42.42 0 0 1 .2.33v4.07c0 .12-.09.17-.2.11a.44.44 0 0 1 -.2-.34v-4.06c.01-.13.09-.18.2-.11z"/><path d="m25.81 45.08a.45.45 0 0 1 .2.34v4.06c0 .13-.09.18-.2.12a.45.45 0 0 1 -.2-.34v-4.07c.01-.12.09-.19.2-.11z"/><path d="m33.15 49.35a.42.42 0 0 1 .2.34v4.06c0 .12-.09.17-.2.11a.42.42 0 0 1 -.2-.34v-4.06a.12.12 0 0 1 .2-.11z"/></g><ellipse cx="8.07" cy="36.86" fill="#fff" rx=".86" ry="1.49" transform="matrix(.86462577 -.50241645 .50241645 .86462577 -17.43 9.05)"/><path d="m73.92 20.06v7.45a.66.66 0 0 1 -.4.56l-33 19.19a2 2 0 0 1 -1.06.23v-7.49a2.06 2.06 0 0 0 1.09-.22l32.97-19.2a1.16 1.16 0 0 0 .21-.16l.06-.06a.5.5 0 0 0 .1-.19 0 0 0 0 0 0 0 .08.08 0 0 0 .03-.11z" fill="#cdd8dd"/><path d="m73.92 20a.35.35 0 0 1 0 .11.4.4 0 0 0 0-.11z" fill="#cdd8dd"/><path d="m73.92 20a.08.08 0 0 1 0 0 0 0 0 0 1 0 0 .5.5 0 0 1 -.1.19l-.06.06a1.16 1.16 0 0 1 -.21.16l-33 19.19a2.06 2.06 0 0 1 -1.09.22 1.86 1.86 0 0 1 -.86-.23l-33.33-19.04a.18.18 0 0 0 -.07-.05l-.06-.05-.14-.13a.24.24 0 0 1 -.06-.09v-.06s0 0 0 0a.43.43 0 0 1 0-.11.67.67 0 0 1 .4-.56l32.98-19.27a2.16 2.16 0 0 1 2 0l33.19 19.22a.7.7 0 0 1 .41.55z" fill="#fff"/><path d="m73.92 20a.08.08 0 0 1 0 0 0 0 0 0 1 0 0 .5.5 0 0 1 -.1.19l-.06.06a1.16 1.16 0 0 1 -.21.16l-33 19.19a2.06 2.06 0 0 1 -1.09.22 1.86 1.86 0 0 1 -.86-.23l-33.33-19.04a.18.18 0 0 0 -.07-.05l-.06-.05-.14-.13a.24.24 0 0 1 -.06-.09v-.06s0 0 0 0a.43.43 0 0 1 0-.11.67.67 0 0 1 .4-.56l32.98-19.27a2.16 2.16 0 0 1 2 0l33.19 19.22a.7.7 0 0 1 .41.55z" fill="url(#j)"/><path d="m39.38 40v7.5a2 2 0 0 1 -.89-.23l-33.24-19.27a.71.71 0 0 1 -.41-.57v-7.45a.43.43 0 0 0 0 .11s0 0 0 0a.09.09 0 0 0 0 .06.24.24 0 0 0 .06.09l.06.07.06.05a.18.18 0 0 1 .07.05l33.43 19.35a1.86 1.86 0 0 0 .86.24z" fill="#cdd8dd"/><g opacity=".9"><path d="m73.93 20.08v7.46a.71.71 0 0 1 -.4.56l-33.07 19.18a2.08 2.08 0 0 1 -1.07.23 1.91 1.91 0 0 1 -.88-.23l-33.25-19.22a.7.7 0 0 1 -.41-.57v-7.45a.36.36 0 0 0 0 .11v.06l.06.09.06.07.06.05.07.05 33.43 19.32a2.15 2.15 0 0 0 .87.23 2 2 0 0 0 1.08-.23l33.05-19.19a1.13 1.13 0 0 0 .21-.15l.06-.07a.87.87 0 0 0 .11-.18.06.06 0 0 0 .02-.12z" fill="url(#k)"/><path d="m73.93 20a.06.06 0 0 1 0 0 .22.22 0 0 0 0 0z" fill="url(#l)"/></g><g fill="#651fff"><path d="m12.22 26.41a.44.44 0 0 1 .19.34v4.06c0 .12-.09.17-.2.11a.41.41 0 0 1 -.19-.34v-4.06c-.02-.12.09-.17.2-.11z"/><path d="m13.57 27.18a.42.42 0 0 1 .2.33v4.07c0 .12-.09.17-.2.11a.43.43 0 0 1 -.19-.34v-4.06c0-.13.09-.18.19-.11z"/><path d="m16.29 28.75a.44.44 0 0 1 .2.34v4.06c0 .13-.09.18-.2.11a.41.41 0 0 1 -.19-.33v-4.07a.12.12 0 0 1 .19-.11z"/><path d="m20.37 31.1a.45.45 0 0 1 .2.34v4.07c0 .12-.09.17-.2.11a.42.42 0 0 1 -.19-.34v-4.06c0-.13.09-.22.19-.12z"/><path d="m21.73 31.89a.42.42 0 0 1 .2.34v4.06c0 .12-.09.17-.2.11a.42.42 0 0 1 -.2-.34v-4.06a.12.12 0 0 1 .2-.11z"/><path d="m24.45 33.47a.42.42 0 0 1 .2.33v4.07c0 .12-.09.17-.2.11a.44.44 0 0 1 -.2-.34v-4.06c.01-.13.09-.18.2-.11z"/><path d="m25.81 34.25a.45.45 0 0 1 .2.34v4.06c0 .13-.09.18-.2.12a.45.45 0 0 1 -.2-.34v-4.07c.01-.12.09-.17.2-.11z"/><path d="m31.79 37.73a.44.44 0 0 1 .2.34v4.06c0 .13-.09.18-.2.11a.39.39 0 0 1 -.19-.33v-4.07a.12.12 0 0 1 .19-.11z"/><path d="m33.15 38.52a.42.42 0 0 1 .2.34v4.06c0 .12-.09.17-.2.11a.42.42 0 0 1 -.2-.34v-4.06a.12.12 0 0 1 .2-.11z"/><ellipse cx="8.07" cy="26.03" rx=".86" ry="1.49" transform="matrix(.86462577 -.50241645 .50241645 .86462577 -11.99 7.58)"/></g></svg>