<svg width="215" height="27" viewBox="0 0 215 27" fill="none" xmlns="http://www.w3.org/2000/svg">
  <path
    d="M1.78644 14.3033V18.5093H0.271973V7.26456H3.59125C4.30271 7.26456 4.92001 7.34826 5.44314 7.51567C5.9715 7.67784 6.40832 7.91063 6.75359 8.21405C7.09885 8.51747 7.35519 8.88366 7.52259 9.31263C7.69522 9.7416 7.78154 10.2203 7.78154 10.7486C7.78154 11.2718 7.68999 11.7504 7.5069 12.1846C7.3238 12.6188 7.05439 12.9929 6.69866 13.3067C6.34816 13.6206 5.91134 13.8665 5.38821 14.0444C4.86508 14.217 4.26609 14.3033 3.59125 14.3033H1.78644ZM1.78644 13.0949H3.59125C4.02545 13.0949 4.40734 13.0373 4.73691 12.9222C5.07171 12.8072 5.35159 12.6476 5.57654 12.4436C5.80148 12.2343 5.9715 11.9858 6.08659 11.6981C6.20168 11.4104 6.25923 11.0939 6.25923 10.7486C6.25923 10.0319 6.03689 9.47218 5.59223 9.06937C5.1528 8.66656 4.48581 8.46515 3.59125 8.46515H1.78644V13.0949Z"
    fill="#BEBEBE" />
  <path
    d="M12.5161 10.4347C13.0968 10.4347 13.6199 10.5315 14.0855 10.7251C14.5563 10.9186 14.9539 11.1933 15.2782 11.549C15.6078 11.9047 15.8589 12.3363 16.0315 12.8438C16.2094 13.346 16.2983 13.9083 16.2983 14.5309C16.2983 15.1586 16.2094 15.7236 16.0315 16.2258C15.8589 16.728 15.6078 17.157 15.2782 17.5127C14.9539 17.8685 14.5563 18.1431 14.0855 18.3367C13.6199 18.525 13.0968 18.6192 12.5161 18.6192C11.9354 18.6192 11.4097 18.525 10.9389 18.3367C10.4733 18.1431 10.0757 17.8685 9.74611 17.5127C9.41654 17.157 9.16282 16.728 8.98495 16.2258C8.80709 15.7236 8.71815 15.1586 8.71815 14.5309C8.71815 13.9083 8.80709 13.346 8.98495 12.8438C9.16282 12.3363 9.41654 11.9047 9.74611 11.549C10.0757 11.1933 10.4733 10.9186 10.9389 10.7251C11.4097 10.5315 11.9354 10.4347 12.5161 10.4347ZM12.5161 17.5284C13.3008 17.5284 13.8867 17.2669 14.2738 16.7437C14.6609 16.2154 14.8545 15.4804 14.8545 14.5387C14.8545 13.5919 14.6609 12.8542 14.2738 12.3259C13.8867 11.7975 13.3008 11.5333 12.5161 11.5333C12.1185 11.5333 11.7732 11.6013 11.4803 11.7373C11.1873 11.8734 10.9415 12.0695 10.7427 12.3259C10.5491 12.5822 10.4026 12.8987 10.3032 13.2754C10.2091 13.6468 10.162 14.0679 10.162 14.5387C10.162 15.0095 10.2091 15.4307 10.3032 15.8021C10.4026 16.1735 10.5491 16.4874 10.7427 16.7437C10.9415 16.9948 11.1873 17.1884 11.4803 17.3244C11.7732 17.4604 12.1185 17.5284 12.5161 17.5284Z"
    fill="#BEBEBE" />
  <path
    d="M17.0228 10.5603H18.1214C18.2365 10.5603 18.3307 10.5891 18.4039 10.6466C18.4772 10.7042 18.5269 10.7722 18.553 10.8506L20.0753 15.9669C20.1172 16.1552 20.1564 16.3383 20.193 16.5162C20.2296 16.6888 20.261 16.864 20.2872 17.0419C20.329 16.864 20.3761 16.6888 20.4284 16.5162C20.4808 16.3383 20.5357 16.1552 20.5932 15.9669L22.2725 10.8192C22.2986 10.7408 22.3431 10.6754 22.4059 10.6231C22.4739 10.5708 22.5576 10.5446 22.657 10.5446H23.2612C23.3658 10.5446 23.4521 10.5708 23.5202 10.6231C23.5882 10.6754 23.6352 10.7408 23.6614 10.8192L25.3014 15.9669C25.359 16.15 25.4087 16.3305 25.4505 16.5083C25.4976 16.6862 25.5421 16.8614 25.5839 17.0341C25.6101 16.8614 25.6441 16.681 25.6859 16.4926C25.7278 16.3043 25.7722 16.129 25.8193 15.9669L27.373 10.8506C27.3992 10.7669 27.4489 10.6989 27.5221 10.6466C27.5954 10.5891 27.6817 10.5603 27.7811 10.5603H28.8326L26.2588 18.5093H25.1523C25.0163 18.5093 24.9221 18.4204 24.8698 18.2425L23.1121 12.8516C23.0703 12.7313 23.0363 12.611 23.0101 12.4907C22.9839 12.3651 22.9578 12.2422 22.9316 12.1218C22.9055 12.2422 22.8793 12.3651 22.8532 12.4907C22.827 12.6162 22.793 12.7391 22.7511 12.8595L20.9699 18.2425C20.9123 18.4204 20.8051 18.5093 20.6482 18.5093H19.5967L17.0228 10.5603Z"
    fill="#BEBEBE" />
  <path
    d="M33.2602 10.4347C33.7363 10.4347 34.1757 10.5158 34.5785 10.678C34.9813 10.8349 35.3292 11.0651 35.6222 11.3685C35.9151 11.6667 36.1427 12.0381 36.3049 12.4828C36.4723 12.9222 36.556 13.4244 36.556 13.9894C36.556 14.2091 36.5324 14.3556 36.4853 14.4289C36.4383 14.5021 36.3493 14.5387 36.2185 14.5387H30.9297C30.9401 15.0409 31.0081 15.4777 31.1337 15.8492C31.2592 16.2206 31.4319 16.5319 31.6516 16.783C31.8713 17.0288 32.1329 17.2145 32.4363 17.3401C32.7397 17.4604 33.0797 17.5206 33.4564 17.5206C33.8069 17.5206 34.1077 17.4813 34.3588 17.4029C34.6151 17.3192 34.8349 17.2302 35.018 17.1361C35.201 17.0419 35.3528 16.9556 35.4731 16.8771C35.5986 16.7934 35.7059 16.7516 35.7948 16.7516C35.9099 16.7516 35.9988 16.796 36.0616 16.885L36.454 17.395C36.2813 17.6043 36.0747 17.7874 35.834 17.9443C35.5934 18.096 35.3344 18.2216 35.0572 18.321C34.7852 18.4204 34.5027 18.4936 34.2097 18.5407C33.9168 18.593 33.6264 18.6192 33.3387 18.6192C32.7894 18.6192 32.282 18.5276 31.8164 18.3445C31.356 18.1562 30.9558 17.8842 30.6158 17.5284C30.281 17.1675 30.0194 16.7228 29.8311 16.1944C29.6428 15.6661 29.5486 15.0592 29.5486 14.3739C29.5486 13.8194 29.6323 13.3015 29.7997 12.8202C29.9723 12.3389 30.2182 11.9231 30.5373 11.5726C30.8564 11.2168 31.2462 10.9396 31.7065 10.7408C32.1669 10.5368 32.6848 10.4347 33.2602 10.4347ZM33.2916 11.4627C32.6168 11.4627 32.0858 11.6589 31.6987 12.0512C31.3116 12.4383 31.0709 12.9772 30.9768 13.6677H35.3004C35.3004 13.3434 35.256 13.0478 35.167 12.781C35.0781 12.509 34.9473 12.2762 34.7747 12.0826C34.6021 11.8838 34.3902 11.7321 34.1391 11.6275C33.8932 11.5176 33.6107 11.4627 33.2916 11.4627Z"
    fill="#BEBEBE" />
  <path
    d="M38.383 18.5093V10.5603H39.1834C39.3351 10.5603 39.4397 10.5891 39.4972 10.6466C39.5548 10.7042 39.594 10.8036 39.6149 10.9448L39.7091 12.1846C39.9811 11.6301 40.3159 11.1985 40.7135 10.8899C41.1163 10.576 41.5871 10.4191 42.126 10.4191C42.3457 10.4191 42.5445 10.4452 42.7223 10.4975C42.9002 10.5446 43.065 10.6126 43.2167 10.7015L43.0362 11.7452C42.9996 11.876 42.9185 11.9414 42.793 11.9414C42.7197 11.9414 42.6073 11.9178 42.4555 11.8707C42.3038 11.8184 42.092 11.7923 41.8199 11.7923C41.3334 11.7923 40.9254 11.9335 40.5958 12.216C40.2715 12.4985 39.9994 12.9092 39.7797 13.448V18.5093H38.383Z"
    fill="#BEBEBE" />
  <path
    d="M47.8985 10.4347C48.3746 10.4347 48.814 10.5158 49.2168 10.678C49.6196 10.8349 49.9675 11.0651 50.2605 11.3685C50.5534 11.6667 50.781 12.0381 50.9432 12.4828C51.1106 12.9222 51.1943 13.4244 51.1943 13.9894C51.1943 14.2091 51.1707 14.3556 51.1236 14.4289C51.0766 14.5021 50.9876 14.5387 50.8568 14.5387H45.568C45.5784 15.0409 45.6465 15.4777 45.772 15.8492C45.8976 16.2206 46.0702 16.5319 46.2899 16.783C46.5096 17.0288 46.7712 17.2145 47.0746 17.3401C47.378 17.4604 47.7181 17.5206 48.0947 17.5206C48.4452 17.5206 48.746 17.4813 48.9971 17.4029C49.2534 17.3192 49.4732 17.2302 49.6563 17.1361C49.8394 17.0419 49.9911 16.9556 50.1114 16.8771C50.2369 16.7934 50.3442 16.7516 50.4331 16.7516C50.5482 16.7516 50.6371 16.796 50.6999 16.885L51.0923 17.395C50.9196 17.6043 50.713 17.7874 50.4723 17.9443C50.2317 18.096 49.9728 18.2216 49.6955 18.321C49.4235 18.4204 49.141 18.4936 48.848 18.5407C48.5551 18.593 48.2647 18.6192 47.977 18.6192C47.4277 18.6192 46.9203 18.5276 46.4547 18.3445C45.9943 18.1562 45.5941 17.8842 45.2541 17.5284C44.9193 17.1675 44.6577 16.7228 44.4694 16.1944C44.2811 15.6661 44.1869 15.0592 44.1869 14.3739C44.1869 13.8194 44.2706 13.3015 44.438 12.8202C44.6106 12.3389 44.8565 11.9231 45.1756 11.5726C45.4947 11.2168 45.8845 10.9396 46.3448 10.7408C46.8052 10.5368 47.3231 10.4347 47.8985 10.4347ZM47.9299 11.4627C47.2551 11.4627 46.7241 11.6589 46.337 12.0512C45.9499 12.4383 45.7092 12.9772 45.6151 13.6677H49.9388C49.9388 13.3434 49.8943 13.0478 49.8054 12.781C49.7164 12.509 49.5856 12.2762 49.413 12.0826C49.2404 11.8838 49.0285 11.7321 48.7774 11.6275C48.5315 11.5176 48.249 11.4627 47.9299 11.4627Z"
    fill="#BEBEBE" />
  <path
    d="M58.6162 18.5093C58.4174 18.5093 58.2918 18.4125 58.2395 18.219L58.114 17.2538C57.7739 17.6671 57.3842 17.9992 56.9448 18.2503C56.5106 18.4962 56.011 18.6192 55.446 18.6192C54.9909 18.6192 54.5776 18.5328 54.2062 18.3602C53.8347 18.1823 53.5182 17.9234 53.2567 17.5834C52.9951 17.2433 52.7937 16.8196 52.6525 16.3121C52.5112 15.8047 52.4406 15.2214 52.4406 14.5623C52.4406 13.9764 52.5191 13.4323 52.676 12.9301C52.8329 12.4227 53.0579 11.9832 53.3508 11.6118C53.649 11.2404 54.01 10.95 54.4337 10.7408C54.8575 10.5263 55.3388 10.4191 55.8776 10.4191C56.3641 10.4191 56.78 10.5028 57.1252 10.6702C57.4705 10.8323 57.7792 11.0625 58.0512 11.3607V6.95068H59.448V18.5093H58.6162ZM55.909 17.4892C56.3641 17.4892 56.7617 17.3846 57.1017 17.1753C57.447 16.9661 57.7635 16.6705 58.0512 16.2886V12.4436C57.7949 12.0983 57.5124 11.8577 57.2037 11.7217C56.9003 11.5804 56.5629 11.5098 56.1915 11.5098C55.4486 11.5098 54.8784 11.774 54.4808 12.3023C54.0832 12.8307 53.8844 13.584 53.8844 14.5623C53.8844 15.0802 53.9289 15.5248 54.0178 15.8963C54.1068 16.2624 54.2376 16.5659 54.4102 16.8065C54.5828 17.0419 54.7947 17.2145 55.0458 17.3244C55.2969 17.4343 55.5846 17.4892 55.909 17.4892Z"
    fill="#BEBEBE" />
  <path
    d="M64.948 18.5093V6.95068H66.3526V11.706C66.6822 11.3241 67.0588 11.018 67.4825 10.7879C67.9115 10.5525 68.4006 10.4347 68.9499 10.4347C69.4103 10.4347 69.8262 10.5211 70.1976 10.6937C70.569 10.8663 70.8855 11.1253 71.1471 11.4705C71.4087 11.8106 71.6101 12.2343 71.7513 12.7418C71.8925 13.244 71.9632 13.8246 71.9632 14.4838C71.9632 15.0697 71.8847 15.6164 71.7278 16.1238C71.5708 16.626 71.3433 17.0628 71.0451 17.4343C70.7521 17.8005 70.3912 18.0908 69.9622 18.3053C69.5385 18.5145 69.0598 18.6192 68.5262 18.6192C68.0135 18.6192 67.5767 18.5198 67.2157 18.321C66.86 18.1222 66.5488 17.8449 66.282 17.4892L66.2113 18.2111C66.1695 18.4099 66.0492 18.5093 65.8504 18.5093H64.948ZM68.4948 11.549C68.0397 11.549 67.6395 11.6536 67.2942 11.8629C66.9542 12.0722 66.6403 12.3677 66.3526 12.7496V16.5946C66.6037 16.9399 66.8809 17.1832 67.1844 17.3244C67.493 17.4656 67.8357 17.5363 68.2123 17.5363C68.9552 17.5363 69.5254 17.2721 69.923 16.7437C70.3205 16.2154 70.5193 15.4621 70.5193 14.4838C70.5193 13.9659 70.4722 13.5212 70.3781 13.1498C70.2891 12.7784 70.1584 12.475 69.9857 12.2396C69.8131 11.9989 69.6012 11.8237 69.3501 11.7138C69.099 11.6039 68.8139 11.549 68.4948 11.549Z"
    fill="#BEBEBE" />
  <path
    d="M75.838 20.8555C75.7909 20.9602 75.7307 21.0439 75.6575 21.1067C75.5895 21.1694 75.4823 21.2008 75.3358 21.2008H74.3L75.7517 18.0463L72.4716 10.5603H73.6801C73.8004 10.5603 73.8945 10.5917 73.9626 10.6545C74.0306 10.712 74.0803 10.7774 74.1116 10.8506L76.2382 15.857C76.2853 15.9721 76.3245 16.0872 76.3559 16.2023C76.3925 16.3174 76.4239 16.4351 76.4501 16.5554C76.4867 16.4351 76.5233 16.3174 76.5599 16.2023C76.5965 16.0872 76.6384 15.9695 76.6855 15.8492L78.7492 10.8506C78.7806 10.7669 78.8329 10.6989 78.9062 10.6466C78.9846 10.5891 79.0683 10.5603 79.1573 10.5603H80.2715L75.838 20.8555Z"
    fill="#BEBEBE" />
  <path fill-rule="evenodd" clip-rule="evenodd"
    d="M99.345 13.2765C99.345 10.3599 101.72 7.98689 104.64 7.98668C107.559 7.98689 109.934 10.3599 109.934 13.2765C109.934 16.1931 107.559 18.5659 104.64 18.5659C101.72 18.5659 99.345 16.1931 99.345 13.2765ZM101.525 13.2765C101.525 14.9905 102.922 16.3848 104.64 16.3848C106.357 16.3848 107.755 14.9905 107.755 13.2765C107.755 11.5623 106.357 10.1678 104.639 10.1678C102.922 10.1678 101.525 11.5623 101.525 13.2765Z"
    fill="white" />
  <path fill-rule="evenodd" clip-rule="evenodd"
    d="M117.193 17.0115L114.616 14.8155L114.664 14.5175C114.718 14.1146 114.735 13.6942 114.735 13.2789C114.735 12.7628 114.708 12.2323 114.616 11.7422L117.193 9.54938L117.25 9.50162C117.319 9.43415 117.366 9.34591 117.383 9.25139C117.402 9.15585 117.389 9.05723 117.35 8.96896C116.824 7.38042 115.916 5.8687 114.8 4.61546C114.642 4.43591 114.419 4.37045 114.209 4.46185L110.961 5.57067L110.692 5.36199C109.952 4.81172 109.141 4.36533 108.281 4.03508L107.638 0.731343L107.619 0.662806C107.587 0.569355 107.53 0.487315 107.454 0.423995C107.379 0.360628 107.288 0.319141 107.19 0.30461L107.189 0.303541C105.506 -0.032821 103.773 -0.032821 102.09 0.303541C101.981 0.320163 101.879 0.370028 101.799 0.445828C101.719 0.522617 101.665 0.621278 101.643 0.730274L101 4.03409L100.708 4.15035C99.8456 4.50338 99.0402 4.98096 98.3179 5.56964L95.0711 4.45976L94.9995 4.43694C94.9047 4.41407 94.8054 4.41921 94.7131 4.45044C94.6207 4.48261 94.5395 4.5397 94.4786 4.61546C93.3606 5.8687 92.4543 7.38041 91.9289 8.96895C91.8839 9.06864 91.8749 9.1808 91.9037 9.28673C91.9324 9.39261 91.9969 9.48602 92.0864 9.54938L94.6636 11.7432L94.6152 12.0412C94.5612 12.4441 94.5446 12.8667 94.5446 13.2789C94.5374 13.7938 94.5772 14.3078 94.6636 14.8155L92.0876 17.0115L92.0303 17.0582C91.9614 17.1267 91.9149 17.214 91.8969 17.3094C91.8791 17.405 91.8906 17.5036 91.93 17.5918C92.4554 19.1814 93.3618 20.6911 94.4796 21.9422C94.6383 22.1229 94.8618 22.1883 95.0711 22.098L98.3179 20.987L98.5547 21.1781C99.3011 21.7408 100.125 22.1946 101 22.5237L101.643 25.8295L101.661 25.898C101.693 25.9904 101.75 26.0736 101.826 26.1369C101.901 26.2002 101.993 26.2407 102.09 26.2563C102.932 26.41 103.773 26.5003 104.641 26.5003C105.508 26.5003 106.349 26.41 107.19 26.2563C107.299 26.2386 107.401 26.1888 107.481 26.113C107.561 26.0361 107.615 25.9376 107.638 25.8295L108.282 22.5237L108.603 22.3939C109.454 22.0346 110.25 21.5612 110.963 20.987L114.209 22.098L114.28 22.1219C114.469 22.1728 114.659 22.1032 114.801 21.9422C115.919 20.6911 116.825 19.1814 117.35 17.5918C117.396 17.4922 117.404 17.379 117.376 17.2731C117.347 17.1672 117.283 17.0748 117.193 17.0115ZM104.64 21.015C100.36 21.015 96.8905 17.5503 96.8905 13.2768C96.8905 9.00347 100.357 5.53783 104.639 5.5375C108.92 5.53783 112.389 9.00347 112.389 13.2768C112.389 17.5503 108.92 21.015 104.64 21.015Z"
    fill="white" />
  <path d="M153.063 3.97083H149.341V21.6381H153.063V3.97083Z" fill="white" />
  <path d="M137.186 4.44207H123.277V7.60569H128.201V21.638H132.261V7.60569H137.186V4.44207Z"
    fill="white" />
  <path fill-rule="evenodd" clip-rule="evenodd"
    d="M178.311 9.5878C178.875 9.88164 179.365 10.3021 179.741 10.8161C180.141 11.3508 180.454 12.0059 180.683 12.7805C180.911 13.5561 181.024 14.4345 181.024 15.4188C181.024 16.3387 180.895 17.189 180.634 17.9677C180.396 18.7049 180.027 19.3933 179.542 19.9975C179.085 20.5623 178.511 21.0213 177.86 21.3421C177.185 21.6702 176.443 21.8363 175.693 21.827C175.043 21.827 174.498 21.7366 174.059 21.556C173.623 21.3774 173.217 21.1303 172.858 20.824V25.5212H169.135V9.3988H171.44L171.554 9.40401C171.721 9.4123 171.881 9.46422 172.022 9.5525C172.184 9.66146 172.302 9.82554 172.354 10.0135L172.628 10.9105L172.812 10.7195C173 10.5337 173.198 10.3613 173.404 10.2014C174.292 9.51433 175.386 9.1478 176.509 9.16323C177.16 9.1634 177.759 9.30449 178.311 9.5878ZM176.503 18.2927C176.716 17.9978 176.881 17.6136 177.002 17.1413C177.122 16.6698 177.182 16.0957 177.182 15.4188C177.182 14.7729 177.133 14.2309 177.037 13.7897C176.942 13.3494 176.807 12.9933 176.636 12.7213C176.464 12.4503 176.256 12.2562 176.016 12.1368C175.777 12.0194 175.509 11.9602 175.211 11.9602C174.939 11.9602 174.693 11.9862 174.473 12.0381C174.253 12.088 174.048 12.1606 173.861 12.2562C173.671 12.3516 173.495 12.4721 173.338 12.6154C173.167 12.7722 173.007 12.9394 172.858 13.1169V18.3103L172.979 18.4349C173.203 18.6613 173.473 18.8377 173.771 18.9531C174.099 19.0755 174.443 19.1357 174.803 19.1357C175.131 19.1389 175.455 19.0714 175.752 18.9354C176.04 18.8015 176.29 18.5865 176.503 18.2927Z"
    fill="white" />
  <path fill-rule="evenodd" clip-rule="evenodd"
    d="M145.515 10.6862C145.011 10.1993 144.409 9.82452 143.749 9.58776C143.022 9.32921 142.257 9.2015 141.486 9.21089C140.532 9.21089 139.677 9.37181 138.921 9.69475C138.194 9.99685 137.536 10.4412 136.986 11.004C136.453 11.5563 136.037 12.2105 135.762 12.9279C135.476 13.6692 135.331 14.4583 135.335 15.2536C135.335 16.3387 135.5 17.2907 135.835 18.1089C136.167 18.927 136.619 19.6123 137.192 20.1626C137.765 20.7139 138.433 21.1282 139.198 21.4085C139.961 21.6868 140.781 21.827 141.653 21.827C142.078 21.827 142.523 21.7968 142.992 21.7387C143.46 21.6795 143.928 21.5736 144.397 21.4189C144.866 21.2662 145.323 21.0545 145.767 20.7824C146.148 20.5509 146.507 20.2581 146.844 19.9072L147.01 19.7265L145.93 18.4162C145.776 18.2034 145.553 18.0964 145.256 18.0964C145.032 18.0964 144.819 18.1483 144.615 18.2511C144.41 18.3529 144.186 18.4671 143.942 18.5927C143.673 18.7287 143.394 18.8429 143.106 18.9353C142.794 19.0381 142.422 19.089 141.99 19.089C141.181 19.089 140.52 18.8585 140.008 18.3986C139.53 17.9687 139.223 17.2938 139.086 16.3739L139.06 16.1735H146.241C146.41 16.1735 146.547 16.1538 146.655 16.1154C146.763 16.076 146.855 16.0012 146.915 15.9026C146.986 15.7759 147.032 15.6346 147.046 15.4893C147.07 15.3159 147.083 15.0927 147.083 14.8165C147.083 13.9351 146.944 13.1459 146.668 12.4503C146.412 11.7868 146.02 11.1857 145.515 10.6862ZM139.095 14.0492C139.224 13.3017 139.488 12.7286 139.888 12.3319C140.288 11.9343 140.844 11.736 141.557 11.736C141.957 11.736 142.297 11.8034 142.578 11.9374C142.842 12.0578 143.073 12.2374 143.257 12.4617C143.43 12.6798 143.557 12.9311 143.629 13.1999C143.705 13.4772 143.744 13.7627 143.743 14.0492H139.095Z"
    fill="white" />
  <path fill-rule="evenodd" clip-rule="evenodd"
    d="M163.663 9.58778C164.323 9.82454 164.925 10.1983 165.429 10.6853C165.921 11.166 166.306 11.7546 166.582 12.4503C166.857 13.1459 166.996 13.9351 166.996 14.8165C166.996 15.0927 166.986 15.3159 166.96 15.4893C166.945 15.6347 166.9 15.7759 166.828 15.9026C166.769 16.0012 166.678 16.076 166.57 16.1154C166.437 16.158 166.297 16.1777 166.156 16.1736H158.973L158.999 16.3739C159.136 17.2938 159.443 17.9687 159.923 18.3986C160.434 18.8596 161.095 19.088 161.904 19.088C162.336 19.088 162.709 19.0382 163.021 18.9354C163.307 18.844 163.587 18.7297 163.855 18.5938C164.1 18.4671 164.324 18.3529 164.529 18.2522C164.732 18.1483 164.947 18.0974 165.17 18.0974C165.468 18.0974 165.691 18.2034 165.843 18.4162L166.925 19.7265L166.758 19.9072C166.438 20.2446 166.076 20.5385 165.682 20.7824C165.236 21.0545 164.781 21.2673 164.313 21.4199C163.855 21.5715 163.384 21.6774 162.907 21.7387C162.438 21.7968 161.993 21.827 161.568 21.827C160.731 21.8332 159.9 21.6909 159.112 21.4085C158.363 21.1386 157.679 20.7149 157.105 20.1626C156.533 19.6123 156.081 18.9291 155.748 18.1099C155.416 17.2908 155.249 16.3387 155.249 15.2536C155.249 14.4344 155.392 13.6599 155.677 12.9279C155.952 12.2105 156.368 11.5563 156.901 11.004C157.451 10.4423 158.109 9.99686 158.834 9.69476C159.591 9.37182 160.446 9.20983 161.398 9.20983L161.399 9.2109C162.17 9.20151 162.937 9.32922 163.663 9.58778ZM159.802 12.332C159.402 12.7296 159.137 13.3017 159.009 14.0493L163.657 14.0492C163.657 13.7574 163.62 13.4761 163.544 13.1999C163.467 12.9248 163.344 12.6777 163.171 12.4617C162.998 12.2448 162.773 12.0703 162.492 11.9363C162.212 11.8034 161.872 11.737 161.471 11.737C160.758 11.737 160.202 11.9353 159.802 12.332Z"
    fill="white" />
  <path fill-rule="evenodd" clip-rule="evenodd"
    d="M193.15 10.8982C192.578 10.3458 191.897 9.92012 191.15 9.64707C190.373 9.35631 189.513 9.21098 188.569 9.21098C187.615 9.21098 186.748 9.35631 185.967 9.64707C185.215 9.92012 184.528 10.3468 183.949 10.8982C183.376 11.4546 182.929 12.1296 182.641 12.875C182.333 13.6496 182.179 14.5217 182.179 15.4894C182.179 16.4643 182.333 17.3438 182.641 18.1276C182.949 18.9095 183.386 19.5739 183.949 20.1222C184.528 20.6777 185.215 21.1076 185.967 21.3837C186.749 21.6796 187.615 21.827 188.569 21.827C189.513 21.827 190.374 21.6796 191.15 21.3837C191.898 21.1076 192.579 20.6777 193.15 20.1222C193.706 19.5739 194.139 18.9095 194.447 18.1276C194.756 17.3448 194.91 16.4643 194.91 15.4894C194.91 14.5217 194.756 13.6496 194.447 12.875C194.16 12.1316 193.718 11.4578 193.15 10.8982ZM190.459 18.2211C190.056 18.815 189.424 19.113 188.569 19.113C187.688 19.113 187.042 18.8161 186.635 18.2211C186.226 17.6272 186.022 16.725 186.022 15.5134C186.022 14.3016 186.226 13.3994 186.635 12.8107C187.043 12.2209 187.688 11.925 188.569 11.925C189.424 11.925 190.056 12.2198 190.459 12.8107C190.864 13.3994 191.065 14.3016 191.065 15.5134C191.065 16.725 190.864 17.6272 190.459 18.2211Z"
    fill="white" />
  <path
    d="M213.388 18.789C213.457 18.8399 213.526 18.9198 213.599 19.0299L214.728 20.7648L214.545 20.8936C214.102 21.1884 213.618 21.4138 213.107 21.5612C212.505 21.7377 211.886 21.827 211.245 21.827C210.652 21.827 210.13 21.7418 209.677 21.5737C209.249 21.419 208.859 21.1739 208.536 20.853C208.223 20.5333 207.982 20.1491 207.834 19.7266C207.668 19.252 207.587 18.7527 207.593 18.2512V11.925H206.536L206.442 11.9198C206.294 11.9042 206.155 11.843 206.044 11.7422C205.908 11.6208 205.841 11.4411 205.841 11.2044V9.77783L207.821 9.39989L208.555 6.41283L208.582 6.32241C208.697 6.00575 208.96 5.84689 209.371 5.84689H211.317V9.42275H214.344V11.9239H211.317V18.003L211.321 18.1225C211.338 18.3519 211.408 18.5471 211.528 18.7059C211.667 18.8897 211.869 18.9832 212.133 18.9832C212.335 18.9873 212.536 18.9406 212.716 18.8472C212.785 18.8118 212.848 18.7807 212.909 18.7527C212.974 18.7236 213.047 18.7101 213.119 18.7111C213.215 18.707 213.31 18.734 213.388 18.789Z"
    fill="white" />
  <path d="M178.1 9.1632L178.101 9.16323L178.102 9.1632H178.1Z" fill="white" />
  <path
    d="M200.599 11.1805C200.977 10.6334 201.445 10.1558 201.984 9.76542C202.551 9.36458 203.173 9.1632 203.845 9.1632C204.414 9.1632 204.869 9.29715 205.215 9.56502L204.735 12.2562L204.713 12.3486C204.687 12.4504 204.626 12.5407 204.542 12.6041C204.447 12.6716 204.318 12.7048 204.159 12.7048C204.022 12.7048 203.862 12.6861 203.678 12.6508C203.494 12.6155 203.262 12.5978 202.981 12.5978C202.004 12.5978 201.235 13.1086 200.675 14.1313V21.6381H196.952V9.39992H199.16L199.293 9.40304C199.404 9.40616 199.515 9.42068 199.623 9.44666C199.736 9.47363 199.843 9.52345 199.935 9.59404C200.021 9.66463 200.088 9.75603 200.127 9.8599C200.177 9.99069 200.215 10.1247 200.241 10.2617L200.446 11.4048L200.599 11.1805Z"
    fill="white" />
</svg>