<svg width="121" height="150" viewBox="0 0 121 150" fill="none" xmlns="http://www.w3.org/2000/svg">
<g clip-path="url(#clip0_180_13382)">
<path d="M0.800781 4C0.800781 1.79086 2.59164 0 4.80078 0H60.8008V150H4.80078C2.59164 150 0.800781 148.209 0.800781 146V4Z" fill="#F1F2F4"/>
<rect x="15.6699" width="150" height="15" transform="rotate(90 15.6699 0)" fill="#FBFBFC"/>
<rect x="0.800781" width="120" height="15" fill="#FBFBFC"/>
<path fill-rule="evenodd" clip-rule="evenodd" d="M8.51285 7.50017C8.51285 6.83853 9.05811 6.30021 9.72828 6.30016C10.3985 6.30021 10.9438 6.83854 10.9438 7.50017C10.9438 8.16181 10.3985 8.70008 9.72833 8.70008C9.05811 8.70008 8.51285 8.16181 8.51285 7.50017ZM9.01324 7.50017C9.01324 7.88899 9.33402 8.20529 9.72833 8.20529C10.1226 8.20529 10.4434 7.88899 10.4434 7.50017C10.4434 7.1113 10.1225 6.79495 9.72818 6.79495C9.33397 6.79495 9.01324 7.1113 9.01324 7.50017Z" fill="#512FC9"/>
<path fill-rule="evenodd" clip-rule="evenodd" d="M12.6102 8.34746L12.0185 7.84929L12.0295 7.78169C12.0418 7.6903 12.0459 7.59492 12.0459 7.50071C12.0459 7.38363 12.0397 7.26328 12.0185 7.15211L12.6102 6.65466L12.6233 6.64383C12.639 6.62852 12.6498 6.60851 12.6538 6.58707C12.6581 6.56539 12.6552 6.54302 12.6462 6.52299C12.5254 6.16263 12.317 5.8197 12.0607 5.53539C12.0245 5.49466 11.9732 5.47981 11.9251 5.50055L11.1796 5.75209L11.1176 5.70475C10.9479 5.57992 10.7617 5.47865 10.5642 5.40373L10.4165 4.65428L10.4122 4.63873C10.4049 4.61753 10.3918 4.59892 10.3745 4.58455C10.3572 4.57018 10.3362 4.56077 10.3139 4.55747L10.3136 4.55723C9.92722 4.48092 9.5294 4.48092 9.14302 4.55723C9.11794 4.561 9.09467 4.57231 9.0763 4.58951C9.05792 4.60693 9.0454 4.62931 9.04035 4.65403L8.89271 5.40351L8.82571 5.42988C8.62776 5.50997 8.44287 5.61831 8.27706 5.75185L7.53171 5.50007L7.51527 5.4949C7.4935 5.48971 7.47071 5.49087 7.44952 5.49796C7.42832 5.50526 7.40967 5.51821 7.39568 5.53539C7.13904 5.81969 6.93097 6.16263 6.81037 6.52299C6.80003 6.54561 6.79798 6.57105 6.80458 6.59508C6.81117 6.6191 6.82599 6.64029 6.84652 6.65466L7.43817 7.15234L7.42704 7.21994C7.41465 7.31133 7.41084 7.40721 7.41084 7.50071C7.4092 7.61753 7.41832 7.73413 7.43817 7.84929L6.84679 8.34746L6.83364 8.35805C6.81782 8.37359 6.80715 8.39339 6.80303 8.41505C6.79894 8.43672 6.80158 8.4591 6.81063 8.47911C6.93124 8.83971 7.1393 9.18219 7.39593 9.466C7.43235 9.50699 7.48367 9.52182 7.53171 9.50134L8.27706 9.24931L8.33142 9.29266C8.50276 9.42032 8.6918 9.52325 8.89271 9.5979L9.04035 10.3478L9.0444 10.3634C9.05181 10.3844 9.06491 10.4032 9.0823 10.4176C9.09967 10.4319 9.12065 10.4411 9.14303 10.4447C9.33619 10.4795 9.52935 10.5 9.72856 10.5C9.92755 10.5 10.1207 10.4795 10.3139 10.4447C10.3389 10.4406 10.3622 10.4293 10.3805 10.4122C10.3989 10.3947 10.4114 10.3724 10.4165 10.3478L10.5644 9.59791L10.6383 9.56846C10.8334 9.48697 11.0162 9.37957 11.1798 9.24931L11.9251 9.50134L11.9413 9.50676C11.9847 9.5183 12.0285 9.50251 12.0609 9.466C12.3177 9.18219 12.5256 8.83972 12.6462 8.47911C12.6567 8.45651 12.6586 8.43084 12.6521 8.4068C12.6455 8.38279 12.6307 8.36182 12.6102 8.34746ZM9.72832 9.25567C8.7458 9.25567 7.94938 8.46969 7.94938 7.50023C7.94938 6.53082 8.74524 5.74464 9.72819 5.74456C10.7109 5.74464 11.5073 6.53082 11.5073 7.50023C11.5073 8.46969 10.7108 9.25567 9.72832 9.25567Z" fill="#512FC9"/>
<path d="M20.8446 5.38916H19.9901V9.39702H20.8446V5.38916Z" fill="#512FC9"/>
<path d="M17.1998 5.49606H14.0068V6.21374H15.1371V9.39699H16.0692V6.21374H17.1998V5.49606Z" fill="#512FC9"/>
<path fill-rule="evenodd" clip-rule="evenodd" d="M26.6406 6.66338C26.7702 6.73004 26.8826 6.82542 26.9689 6.94202C27.0608 7.06332 27.1328 7.21192 27.1852 7.38764C27.2376 7.56359 27.2635 7.76286 27.2635 7.98615C27.2635 8.19483 27.234 8.38772 27.174 8.56437C27.1194 8.7316 27.0346 8.88777 26.9234 9.02485C26.8183 9.15297 26.6866 9.25709 26.5372 9.32985C26.3822 9.4043 26.2119 9.44197 26.0396 9.43986C25.8905 9.43986 25.7654 9.41936 25.6647 9.37838C25.5644 9.33787 25.4713 9.28181 25.3888 9.21234V10.2779H24.5342V6.62051H25.0635L25.0894 6.62169C25.1278 6.62357 25.1647 6.63535 25.1971 6.65537C25.2342 6.68009 25.2612 6.71731 25.2731 6.75994L25.3362 6.96344L25.3784 6.92011C25.4215 6.87796 25.467 6.83884 25.5141 6.80258C25.718 6.64671 25.9692 6.56357 26.2271 6.56707C26.3764 6.5671 26.514 6.59911 26.6406 6.66338ZM26.2257 8.63809C26.2745 8.57121 26.3124 8.48406 26.3402 8.3769C26.3676 8.26996 26.3814 8.13971 26.3814 7.98615C26.3814 7.83964 26.3703 7.71668 26.3483 7.61659C26.3264 7.51672 26.2955 7.43593 26.2562 7.37422C26.2166 7.31275 26.169 7.26871 26.1139 7.24162C26.0589 7.21499 25.9975 7.20156 25.9291 7.20156C25.8667 7.20156 25.8102 7.20747 25.7597 7.21923C25.7092 7.23055 25.6621 7.24703 25.6192 7.26871C25.5756 7.29036 25.5351 7.3177 25.4991 7.35021C25.4598 7.38576 25.4231 7.42369 25.3888 7.46396V8.6421L25.4167 8.67036C25.4682 8.72171 25.5301 8.76175 25.5985 8.78791C25.6737 8.81569 25.7528 8.82935 25.8355 8.82935C25.9107 8.83006 25.9851 8.81474 26.0532 8.7839C26.1194 8.75352 26.1768 8.70475 26.2257 8.63809Z" fill="#512FC9"/>
<path fill-rule="evenodd" clip-rule="evenodd" d="M19.1118 6.91256C18.9961 6.8021 18.8579 6.71708 18.7064 6.66337C18.5397 6.60472 18.3639 6.57575 18.1869 6.57788C17.968 6.57788 17.7717 6.61438 17.598 6.68764C17.4313 6.75617 17.2802 6.85698 17.154 6.98464C17.0316 7.10994 16.936 7.25834 16.8729 7.42108C16.8072 7.58926 16.7741 7.76826 16.775 7.94869C16.775 8.19482 16.8129 8.41081 16.8896 8.59641C16.9658 8.782 17.0697 8.93746 17.2012 9.06229C17.3327 9.18736 17.4861 9.28133 17.6616 9.34493C17.8369 9.40805 18.0251 9.43985 18.2252 9.43985C18.3229 9.43985 18.4251 9.43302 18.5328 9.41983C18.6402 9.4064 18.7476 9.38238 18.8553 9.34729C18.963 9.31265 19.0678 9.26461 19.1697 9.2029C19.2572 9.15039 19.3396 9.08395 19.417 9.00435L19.4551 8.96337L19.2071 8.66612C19.1719 8.61783 19.1206 8.59357 19.0525 8.59357C19.0011 8.59357 18.952 8.60535 18.9053 8.62867C18.8581 8.65175 18.8067 8.67766 18.7507 8.70616C18.689 8.73702 18.6249 8.76292 18.559 8.78389C18.4872 8.80721 18.4017 8.81874 18.3026 8.81874C18.1168 8.81874 17.9651 8.76646 17.8477 8.66212C17.7379 8.56461 17.6673 8.4115 17.6359 8.20282L17.6299 8.15737H19.2786C19.3174 8.15737 19.3489 8.15288 19.3736 8.14418C19.3984 8.13523 19.4196 8.11827 19.4332 8.09589C19.4496 8.06716 19.4601 8.03512 19.4634 8.00215C19.4689 7.96282 19.4718 7.91218 19.4718 7.84952C19.4718 7.64956 19.4399 7.47055 19.3765 7.31274C19.3179 7.16223 19.2278 7.02586 19.1118 6.91256ZM17.638 7.67546C17.6676 7.50588 17.7283 7.37587 17.82 7.28589C17.912 7.19568 18.0397 7.1507 18.2033 7.1507C18.295 7.1507 18.3731 7.16599 18.4377 7.19638C18.4982 7.22371 18.5513 7.26445 18.5935 7.31533C18.6333 7.3648 18.6623 7.4218 18.679 7.48279C18.6964 7.54569 18.7052 7.61045 18.705 7.67546H17.638Z" fill="#512FC9"/>
<path fill-rule="evenodd" clip-rule="evenodd" d="M23.2781 6.66337C23.4296 6.71708 23.5678 6.80187 23.6835 6.91234C23.7964 7.02139 23.8848 7.15492 23.9482 7.31275C24.0113 7.47055 24.0432 7.64956 24.0432 7.84952C24.0432 7.91218 24.0408 7.96282 24.0349 8.00215C24.0315 8.03512 24.0211 8.06717 24.0046 8.0959C23.9911 8.11827 23.9701 8.13523 23.9453 8.14418C23.9148 8.15383 23.8827 8.1583 23.8503 8.15737H22.2014L22.2074 8.20282C22.2388 8.41151 22.3093 8.56461 22.4194 8.66212C22.5368 8.76669 22.6885 8.81852 22.8743 8.81852C22.9734 8.81852 23.0589 8.80721 23.1306 8.78389C23.1964 8.76315 23.2605 8.73725 23.3222 8.7064C23.3784 8.67766 23.4298 8.65175 23.4768 8.62891C23.5235 8.60535 23.5728 8.59381 23.624 8.59381C23.6923 8.59381 23.7436 8.61783 23.7786 8.66613L24.0268 8.96337L23.9884 9.00435C23.9151 9.08089 23.8319 9.14756 23.7414 9.2029C23.6392 9.26461 23.5346 9.3129 23.4272 9.34752C23.3222 9.38191 23.214 9.40593 23.1044 9.41983C22.9968 9.43302 22.8946 9.43986 22.7972 9.43986C22.6049 9.44126 22.4141 9.40899 22.2333 9.34493C22.0613 9.28369 21.9043 9.18759 21.7726 9.06229C21.6411 8.93746 21.5375 8.78247 21.461 8.59664C21.3848 8.41081 21.3465 8.19483 21.3465 7.94869C21.3465 7.76285 21.3793 7.58713 21.4446 7.42108C21.5077 7.25834 21.6033 7.10995 21.7257 6.98464C21.8519 6.85722 22.003 6.75618 22.1695 6.68764C22.3431 6.61438 22.5394 6.57764 22.7581 6.57764L22.7583 6.57788C22.9353 6.57575 23.1114 6.60472 23.2781 6.66337ZM22.3917 7.2859C22.2998 7.3761 22.239 7.50588 22.2097 7.67547L23.2767 7.67547C23.2767 7.60927 23.2681 7.54544 23.2507 7.4828C23.2331 7.42038 23.2047 7.36433 23.1652 7.31534C23.1254 7.26611 23.0737 7.22654 23.0092 7.19615C22.9448 7.16599 22.8669 7.15093 22.7748 7.15093C22.6111 7.15093 22.4834 7.19592 22.3917 7.2859Z" fill="#512FC9"/>
<path fill-rule="evenodd" clip-rule="evenodd" d="M30.0472 6.96064C29.916 6.83533 29.7595 6.73877 29.5882 6.67683C29.4098 6.61086 29.2123 6.5779 28.9955 6.5779C28.7766 6.5779 28.5775 6.61086 28.3983 6.67683C28.2256 6.73877 28.068 6.83557 27.935 6.96064C27.8035 7.08687 27.7009 7.23998 27.6347 7.4091C27.5639 7.58481 27.5287 7.78265 27.5287 8.00217C27.5287 8.22333 27.5639 8.42284 27.6347 8.60066C27.7054 8.77803 27.8057 8.92875 27.935 9.05313C28.068 9.17915 28.2256 9.27666 28.3983 9.33931C28.5777 9.40642 28.7766 9.43988 28.9955 9.43988C29.2123 9.43988 29.41 9.40642 29.5882 9.33931C29.7597 9.27666 29.9162 9.17915 30.0472 9.05313C30.1749 8.92875 30.2742 8.77803 30.345 8.60066C30.416 8.42307 30.4512 8.22333 30.4512 8.00217C30.4512 7.78265 30.416 7.5848 30.345 7.4091C30.279 7.24046 30.1775 7.08759 30.0472 6.96064ZM29.4296 8.62186C29.3369 8.7566 29.1918 8.82419 28.9955 8.82419C28.7933 8.82419 28.6451 8.75683 28.5515 8.62186C28.4577 8.48714 28.411 8.28246 28.411 8.0076C28.411 7.73272 28.4577 7.52804 28.5515 7.39449C28.6454 7.2607 28.7933 7.19358 28.9955 7.19358C29.1918 7.19358 29.3369 7.26046 29.4296 7.39449C29.5225 7.52804 29.5687 7.73272 29.5687 8.0076C29.5687 8.28246 29.5225 8.48714 29.4296 8.62186Z" fill="#512FC9"/>
<path d="M34.6933 8.75069C34.709 8.76223 34.7249 8.78035 34.7416 8.80533L35.0008 9.19891L34.9589 9.22812C34.8571 9.295 34.7459 9.34612 34.6287 9.37957C34.4905 9.41961 34.3483 9.43987 34.2011 9.43987C34.0651 9.43987 33.9453 9.42055 33.8412 9.3824C33.743 9.3473 33.6535 9.29171 33.5794 9.21892C33.5075 9.14639 33.4522 9.05924 33.4181 8.96338C33.38 8.85573 33.3614 8.74245 33.3629 8.62868V7.19357H33.1201L33.0987 7.1924C33.0646 7.18887 33.0327 7.17497 33.0072 7.15211C32.976 7.12456 32.9605 7.0838 32.9605 7.03011V6.70649L33.4153 6.62075L33.5837 5.94313L33.5899 5.92262C33.6163 5.85079 33.6766 5.81475 33.7709 5.81475H34.2178V6.62594H34.9126V7.19334H34.2178V8.57239L34.2187 8.59949C34.2226 8.65152 34.2385 8.69582 34.2661 8.73184C34.2981 8.77354 34.3445 8.79474 34.405 8.79474C34.4515 8.79567 34.4977 8.78508 34.5389 8.76389C34.5546 8.75587 34.5691 8.7488 34.5832 8.74245C34.5982 8.73585 34.6149 8.73279 34.6313 8.73302C34.6535 8.73208 34.6751 8.73821 34.6933 8.75069Z" fill="#512FC9"/>
<path d="M26.5922 6.56706L26.5924 6.56707L26.5926 6.56706H26.5922Z" fill="#512FC9"/>
<path d="M31.7573 7.02469C31.8441 6.90057 31.9515 6.79222 32.0751 6.70367C32.2054 6.61274 32.3481 6.56706 32.5025 6.56706C32.633 6.56706 32.7376 6.59745 32.8169 6.65821L32.7068 7.26872L32.7016 7.28967C32.6956 7.31276 32.6818 7.33325 32.6625 7.34763C32.6406 7.36293 32.6111 7.37047 32.5744 7.37047C32.5429 7.37047 32.5063 7.36623 32.4641 7.35822C32.4219 7.35022 32.3686 7.3462 32.304 7.3462C32.0799 7.3462 31.9034 7.46208 31.7747 7.69408V9.39701H30.92V6.62076H31.4269L31.4574 6.62147C31.4829 6.62217 31.5084 6.62547 31.5332 6.63136C31.5591 6.63748 31.5837 6.64878 31.6049 6.66479C31.6247 6.68081 31.6399 6.70154 31.649 6.72511C31.6604 6.75478 31.6692 6.78517 31.6752 6.81625L31.7221 7.07557L31.7573 7.02469Z" fill="#512FC9"/>
<rect x="23.6406" y="22.334" width="25.4258" height="7" rx="1" fill="#FBFBFC"/>
<rect x="23.8008" y="41" width="22.2374" height="4.18848" rx="2.09424" fill="#FBFBFC"/>
<rect x="50.0381" y="41" width="16.46" height="4.18848" rx="2.09424" fill="#FBFBFC"/>
<line opacity="0.2" x1="23.8008" y1="52.6885" x2="120.801" y2="52.6885" stroke="black" stroke-opacity="0.18"/>
<rect x="23.8008" y="61.1885" width="97" height="2" rx="1" fill="#FBFBFC"/>
<rect x="23.8008" y="68.1885" width="97" height="2" rx="1" fill="#FBFBFC"/>
<rect x="23.8008" y="75.1885" width="97" height="2" rx="1" fill="#FBFBFC"/>
<rect x="23.8008" y="82.1885" width="97" height="2" rx="1" fill="#FBFBFC"/>
<rect x="23.8008" y="89.1885" width="97" height="2" rx="1" fill="#FBFBFC"/>
<rect x="23.8008" y="96.1885" width="97" height="2" rx="1" fill="#FBFBFC"/>
<rect x="23.8008" y="103.188" width="97" height="2" rx="1" fill="#FBFBFC"/>
<rect x="23.8008" y="110.188" width="97" height="2" rx="1" fill="#FBFBFC"/>
<rect x="23.8008" y="117.188" width="97" height="2" rx="1" fill="#FBFBFC"/>
<rect x="23.8008" y="124.188" width="97" height="2" rx="1" fill="#FBFBFC"/>
<rect x="23.8008" y="131.188" width="97" height="2" rx="1" fill="#FBFBFC"/>
<rect opacity="0.3" x="4.70996" y="23.334" width="7" height="7" rx="3.5" fill="black" fill-opacity="0.18"/>
<rect opacity="0.3" x="4.70996" y="34.334" width="7" height="7" rx="3.5" fill="black" fill-opacity="0.18"/>
<rect opacity="0.3" x="4.70996" y="45.334" width="7" height="7" rx="3.5" fill="black" fill-opacity="0.18"/>
<rect opacity="0.3" x="4.70996" y="56.334" width="7" height="7" rx="3.5" fill="black" fill-opacity="0.18"/>
<rect opacity="0.3" x="4.70996" y="67.334" width="7" height="7" rx="3.5" fill="black" fill-opacity="0.18"/>
</g>
<g clip-path="url(#clip1_180_13382)">
<path d="M60.8008 0H116.801C119.01 0 120.801 1.79086 120.801 4V146C120.801 148.209 119.01 150 116.801 150H60.8008V0Z" fill="#0C143D"/>
<rect x="0.800781" width="120" height="15" fill="#222C59"/>
<rect x="98.4873" y="22.334" width="25.4258" height="7" rx="1" fill="#9F85FF"/>
<rect x="50.0381" y="41" width="16.46" height="4.18848" rx="2.09424" fill="#222C59"/>
<rect x="70.498" y="41" width="26.1778" height="4.18848" rx="2.09424" fill="#222C59"/>
<rect x="100.676" y="41" width="22.2374" height="4.18848" rx="2.09424" fill="#222C59"/>
<line opacity="0.2" x1="23.8008" y1="52.6885" x2="120.801" y2="52.6885" stroke="white" stroke-opacity="0.18"/>
<rect x="23.8008" y="61.1885" width="97" height="2" rx="1" fill="#222C59"/>
<rect x="23.8008" y="68.1885" width="97" height="2" rx="1" fill="#222C59"/>
<rect x="23.8008" y="75.1885" width="97" height="2" rx="1" fill="#222C59"/>
<rect x="23.8008" y="82.1885" width="97" height="2" rx="1" fill="#222C59"/>
<rect x="23.8008" y="89.1885" width="97" height="2" rx="1" fill="#222C59"/>
<rect x="23.8008" y="96.1885" width="97" height="2" rx="1" fill="#222C59"/>
<rect x="23.8008" y="103.188" width="97" height="2" rx="1" fill="#222C59"/>
<rect x="23.8008" y="110.188" width="97" height="2" rx="1" fill="#222C59"/>
<rect x="23.8008" y="117.188" width="97" height="2" rx="1" fill="#222C59"/>
<rect x="23.8008" y="124.188" width="97" height="2" rx="1" fill="#222C59"/>
<rect x="23.8008" y="131.188" width="97" height="2" rx="1" fill="#222C59"/>
</g>
<defs>
<clipPath id="clip0_180_13382">
<path d="M0.800781 4C0.800781 1.79086 2.59164 0 4.80078 0H60.8008V150H4.80078C2.59164 150 0.800781 148.209 0.800781 146V4Z" fill="white"/>
</clipPath>
<clipPath id="clip1_180_13382">
<path d="M60.8008 0H116.801C119.01 0 120.801 1.79086 120.801 4V146C120.801 148.209 119.01 150 116.801 150H60.8008V0Z" fill="white"/>
</clipPath>
</defs>
</svg>
