<svg width="90" height="90" xmlns="http://www.w3.org/2000/svg" xmlns:svg="http://www.w3.org/2000/svg" preserveAspectRatio="xMidYMid meet"
 viewBox="0 0 90.000000 90.000000"
 >
 <g>
  <title>Layer 1</title>
  <g id="svg_-" transform="translate(0,95) scale(0.10000000149011612,-0.10000000149011612) ">
   <path id="svg_2" d="m329,932c-217,-57 -359,-280 -321,-504c17,-100 54,-172 126,-244c72,-72 144,-109 244,-126c89,-15 190,-1 272,39c71,34 169,132 203,203c79,163 52,362 -66,495c-114,131 -286,182 -458,137zm78,-344l43,-42l44,43c29,29 50,42 60,38c24,-9 20,-19 -29,-67l-45,-44l47,-48c40,-41 44,-49 33,-63c-12,-14 -19,-11 -62,32l-48,47l-48,-47c-44,-43 -50,-46 -62,-32c-12,14 -7,22 33,63l47,47l-46,46c-43,43 -50,69 -21,69c6,0 31,-19 54,-42z"/>
  </g>
 </g>
</svg>