<?xml version="1.0" encoding="UTF-8"?>
<svg width="281px" height="530px" viewBox="0 0 281 530" version="1.1" xmlns="http://www.w3.org/2000/svg" xmlns:xlink="http://www.w3.org/1999/xlink">
    <!-- Generator: Sketch 47.1 (45422) - http://www.bohemiancoding.com/sketch -->
    <title>auth-server</title>
    <desc>Created with Sketch.</desc>
    <defs>
        <rect id="path-1" x="16" y="8" width="249" height="270" rx="10"></rect>
        <filter x="-11.2%" y="-7.4%" width="122.5%" height="120.7%" filterUnits="objectBoundingBox" id="filter-2">
            <feOffset dx="0" dy="8" in="SourceAlpha" result="shadowOffsetOuter1"></feOffset>
            <feGaussianBlur stdDeviation="8" in="shadowOffsetOuter1" result="shadowBlurOuter1"></feGaussianBlur>
            <feColorMatrix values="0 0 0 0 0   0 0 0 0 0   0 0 0 0 0  0 0 0 0.103742074 0" type="matrix" in="shadowBlurOuter1"></feColorMatrix>
        </filter>
        <filter x="-10.5%" y="-6.4%" width="121.1%" height="125.5%" filterUnits="objectBoundingBox" id="filter-3">
            <feOffset dx="0" dy="1" in="SourceAlpha" result="shadowOffsetOuter1"></feOffset>
            <feGaussianBlur stdDeviation="0.5" in="shadowOffsetOuter1" result="shadowBlurOuter1"></feGaussianBlur>
            <feColorMatrix values="0 0 0 0 0   0 0 0 0 0   0 0 0 0 0  0 0 0 0.5 0" type="matrix" in="shadowBlurOuter1" result="shadowMatrixOuter1"></feColorMatrix>
            <feMerge>
                <feMergeNode in="shadowMatrixOuter1"></feMergeNode>
                <feMergeNode in="SourceGraphic"></feMergeNode>
            </feMerge>
        </filter>
        <rect id="path-4" x="0" y="0" width="171" height="141" rx="10"></rect>
        <filter x="-16.4%" y="-14.2%" width="132.7%" height="139.7%" filterUnits="objectBoundingBox" id="filter-5">
            <feOffset dx="0" dy="8" in="SourceAlpha" result="shadowOffsetOuter1"></feOffset>
            <feGaussianBlur stdDeviation="8" in="shadowOffsetOuter1" result="shadowBlurOuter1"></feGaussianBlur>
            <feColorMatrix values="0 0 0 0 0   0 0 0 0 0   0 0 0 0 0  0 0 0 0.103742074 0" type="matrix" in="shadowBlurOuter1"></feColorMatrix>
        </filter>
        <rect id="path-6" x="0" y="0" width="106" height="63"></rect>
        <filter x="-9.2%" y="-3.6%" width="111.0%" height="110.0%" filterUnits="objectBoundingBox" id="filter-7">
            <feOffset dx="0" dy="1" in="SourceAlpha" result="shadowOffsetOuter1"></feOffset>
            <feGaussianBlur stdDeviation="1" in="shadowOffsetOuter1" result="shadowBlurOuter1"></feGaussianBlur>
            <feColorMatrix values="0 0 0 0 0   0 0 0 0 0   0 0 0 0 0  0 0 0 0.5 0" type="matrix" in="shadowBlurOuter1" result="shadowMatrixOuter1"></feColorMatrix>
            <feMerge>
                <feMergeNode in="shadowMatrixOuter1"></feMergeNode>
                <feMergeNode in="SourceGraphic"></feMergeNode>
            </feMerge>
        </filter>
        <path d="M10,0 L187.465723,0 L205,0 L205,-1.77635684e-15 C210.522847,-2.79088747e-15 215,4.4771525 215,10 L215,60 L215,60 C215,65.5228475 210.522847,70 205,70 L10,70 L10,70 C4.4771525,70 6.76353751e-16,65.5228475 0,60 L0,10 L0,10 C-6.76353751e-16,4.4771525 4.4771525,1.01453063e-15 10,0 Z" id="path-8"></path>
    </defs>
    <g id="-" stroke="none" stroke-width="1" fill="none" fill-rule="evenodd">
        <g id="auth-server">
            <g id="Rectangle-Copy-6">
                <use fill="black" fill-opacity="1" filter="url(#filter-2)" xlink:href="#path-1"></use>
                <use fill="#FFFFFF" fill-rule="evenodd" xlink:href="#path-1"></use>
            </g>
            <g id="recorded-sessions" transform="translate(31.000000, 226.000000)" font-size="12" font-family="HelveticaNeue-Medium, Helvetica Neue" fill="#4A4A4A" line-spacing="15" font-weight="400">
                <text id="Recorded-Sessions">
                    <tspan x="25.374" y="12.4782609">Recorded </tspan>
                    <tspan x="27.486" y="27.4782609">Sessions</tspan>
                </text>
            </g>
            <g id="teleport-proxy-copy-3" filter="url(#filter-3)" transform="translate(57.000000, 364.000000)">
                <g id="Rectangle-Copy-6">
                    <use fill="black" fill-opacity="1" filter="url(#filter-5)" xlink:href="#path-4"></use>
                    <use fill="#FFFFFF" fill-rule="evenodd" xlink:href="#path-4"></use>
                </g>
            </g>
            <g id="Group" transform="translate(87.000000, 384.000000)">
                <g id="command-line-admin">
                    <g id="monitor-with-terminal" transform="translate(1.000000, 0.000000)" stroke-width="1" fill-rule="evenodd">
                        <g id="tctl">
                            <g id="Rectangle-4-Copy-3">
                                <use fill="#4A4A4A" fill-rule="evenodd" xlink:href="#path-6"></use>
                                <rect stroke="#4A4A4A" stroke-width="0.5" x="0.25" y="0.25" width="105.5" height="62.5"></rect>
                            </g>
                            <rect id="Rectangle-18-Copy" fill="#D8D8D8" x="0" y="0" width="106" height="8"></rect>
                            <circle id="Oval-Copy-3" fill="#4A4A4A" cx="24" cy="4" r="3"></circle>
                            <circle id="Oval-Copy-4" fill="#4A4A4A" cx="15" cy="4" r="3"></circle>
                            <circle id="Oval-Copy-5" fill="#4A4A4A" cx="7" cy="4" r="3"></circle>
                            <rect id="Rectangle-19-Copy" fill="#4A4A4A" x="14" y="43" width="26" height="8"></rect>
                            <text id="&gt;_" font-family="CourierNewPSMT, Courier New" font-size="18" font-weight="normal" fill="#FFFFFF">
                                <tspan x="8" y="38">&gt;_</tspan>
                            </text>
                        </g>
                    </g>
                    <text id="Command-Line-Admin" font-family="HelveticaNeue-Bold, Helvetica Neue" font-size="14" font-weight="bold" fill="#4A4A4A">
                        <tspan x="3.334" y="87">Command Line</tspan>
                        <tspan x="32.629" y="104">Admin</tspan>
                    </text>
                </g>
            </g>
            <g id="auth-service" filter="url(#filter-7)" transform="translate(41.000000, 27.000000)">
                <g id="auth-service-with-note" transform="translate(-15.000000, 0.000000)">
                    <g id="Rectangle-17">
                        <use fill="#FFFFFF" fill-rule="evenodd" xlink:href="#path-8"></use>
                        <path stroke="#E1584E" stroke-width="3" d="M10,1.5 C5.30557963,1.5 1.5,5.30557963 1.5,10 L1.5,60 C1.5,64.6944204 5.30557963,68.5 10,68.5 L205,68.5 C209.69442,68.5 213.5,64.6944204 213.5,60 L213.5,10 C213.5,5.30557963 209.69442,1.5 205,1.5 L10,1.5 Z"></path>
                    </g>
                    <path d="M12.272,19.576 L14.4,19.576 L18.8,31 L16.656,31 L15.584,27.976 L11.024,27.976 L9.952,31 L7.888,31 L12.272,19.576 Z M11.568,26.456 L15.056,26.456 L13.344,21.544 L13.296,21.544 L11.568,26.456 Z M26.896,31 L25.104,31 L25.104,29.848 L25.072,29.848 C24.8479989,30.2640021 24.5146689,30.5973321 24.072,30.848 C23.6293311,31.0986679 23.178669,31.224 22.72,31.224 C21.6319946,31.224 20.8453358,30.9546694 20.36,30.416 C19.8746642,29.8773306 19.632,29.0640054 19.632,27.976 L19.632,22.728 L21.456,22.728 L21.456,27.8 C21.456,28.525337 21.5946653,29.0373318 21.872,29.336 C22.1493347,29.6346682 22.5386642,29.784 23.04,29.784 C23.4240019,29.784 23.7439987,29.7253339 24,29.608 C24.2560013,29.4906661 24.4639992,29.3333343 24.624,29.136 C24.7840008,28.9386657 24.8986663,28.7013347 24.968,28.424 C25.0373337,28.1466653 25.072,27.8480016 25.072,27.528 L25.072,22.728 L26.896,22.728 L26.896,31 Z M27.984,22.728 L29.36,22.728 L29.36,20.248 L31.184,20.248 L31.184,22.728 L32.832,22.728 L32.832,24.088 L31.184,24.088 L31.184,28.504 C31.184,28.696001 31.1919999,28.8613326 31.208,29 C31.2240001,29.1386674 31.261333,29.2559995 31.32,29.352 C31.378667,29.4480005 31.4666661,29.5199998 31.584,29.568 C31.7013339,29.6160002 31.8613323,29.64 32.064,29.64 C32.1920006,29.64 32.3199994,29.6373334 32.448,29.632 C32.5760006,29.6266666 32.7039994,29.6080002 32.832,29.576 L32.832,30.984 C32.6293323,31.0053334 32.432001,31.0266666 32.24,31.048 C32.047999,31.0693334 31.8506677,31.08 31.648,31.08 C31.1679976,31.08 30.7813348,31.0346671 30.488,30.944 C30.1946652,30.8533329 29.9653342,30.7200009 29.8,30.544 C29.6346658,30.3679991 29.522667,30.146668 29.464,29.88 C29.405333,29.613332 29.3706667,29.309335 29.36,28.968 L29.36,24.088 L27.984,24.088 L27.984,22.728 Z M34.144,19.576 L35.968,19.576 L35.968,23.816 L36,23.816 C36.2240011,23.4426648 36.5573311,23.1306679 37,22.88 C37.4426689,22.6293321 37.9359973,22.504 38.48,22.504 C39.3866712,22.504 40.1013307,22.7386643 40.624,23.208 C41.1466693,23.6773357 41.408,24.3813286 41.408,25.32 L41.408,31 L39.584,31 L39.584,25.8 C39.5626666,25.1493301 39.4240013,24.6773348 39.168,24.384 C38.9119987,24.0906652 38.5120027,23.944 37.968,23.944 C37.6586651,23.944 37.3813346,23.9999994 37.136,24.112 C36.8906654,24.2240006 36.6826675,24.3786657 36.512,24.576 C36.3413325,24.7733343 36.2080005,25.005332 36.112,25.272 C36.0159995,25.538668 35.968,25.8213318 35.968,26.12 L35.968,31 L34.144,31 L34.144,19.576 Z M49.344,27.192 C49.344,27.6293355 49.4186659,28.0026651 49.568,28.312 C49.7173341,28.6213349 49.925332,28.8746657 50.192,29.072 C50.458668,29.2693343 50.7653316,29.4133329 51.112,29.504 C51.4586684,29.5946671 51.8346646,29.64 52.24,29.64 C52.6773355,29.64 53.0506651,29.5893338 53.36,29.488 C53.6693349,29.3866662 53.919999,29.2560008 54.112,29.096 C54.304001,28.9359992 54.4426662,28.752001 54.528,28.544 C54.6133338,28.335999 54.656,28.1253344 54.656,27.912 C54.656,27.4746645 54.5573343,27.152001 54.36,26.944 C54.1626657,26.735999 53.9466678,26.5893338 53.712,26.504 C53.3066646,26.3546659 52.8346694,26.213334 52.296,26.08 C51.7573306,25.946666 51.0933373,25.7733344 50.304,25.56 C49.8133309,25.4319994 49.405335,25.264001 49.08,25.056 C48.754665,24.847999 48.496001,24.6160013 48.304,24.36 C48.111999,24.1039987 47.9760004,23.8320014 47.896,23.544 C47.8159996,23.2559986 47.776,22.9626682 47.776,22.664 C47.776,22.0879971 47.8959988,21.5893354 48.136,21.168 C48.3760012,20.7466646 48.6933314,20.3973347 49.088,20.12 C49.4826686,19.8426653 49.9306642,19.637334 50.432,19.504 C50.9333358,19.370666 51.4399974,19.304 51.952,19.304 C52.5493363,19.304 53.1119974,19.3813326 53.64,19.536 C54.1680026,19.6906674 54.631998,19.9226651 55.032,20.232 C55.432002,20.5413349 55.7493322,20.9226644 55.984,21.376 C56.2186678,21.8293356 56.336,22.3546637 56.336,22.952 L54.336,22.952 C54.2826664,22.2159963 54.0320022,21.6960015 53.584,21.392 C53.1359978,21.0879985 52.5653368,20.936 51.872,20.936 C51.6373322,20.936 51.3973346,20.9599998 51.152,21.008 C50.9066654,21.0560002 50.6826677,21.1359994 50.48,21.248 C50.2773323,21.3600006 50.109334,21.511999 49.976,21.704 C49.842666,21.896001 49.776,22.1359986 49.776,22.424 C49.776,22.8293354 49.9013321,23.1466655 50.152,23.376 C50.4026679,23.6053345 50.7306646,23.7786661 51.136,23.896 C51.1786669,23.9066667 51.3466652,23.9519996 51.64,24.032 C51.9333348,24.1120004 52.2613315,24.1999995 52.624,24.296 C52.9866685,24.3920005 53.3413316,24.4853329 53.688,24.576 C54.0346684,24.6666671 54.2826659,24.7333331 54.432,24.776 C54.8053352,24.8933339 55.1306653,25.0533323 55.408,25.256 C55.6853347,25.4586677 55.9173324,25.6906654 56.104,25.952 C56.2906676,26.2133346 56.4293329,26.4933318 56.52,26.792 C56.6106671,27.0906682 56.656,27.3893318 56.656,27.688 C56.656,28.3280032 56.5253346,28.8746644 56.264,29.328 C56.0026654,29.7813356 55.6586688,30.1519986 55.232,30.44 C54.8053312,30.7280014 54.3200027,30.938666 53.776,31.072 C53.2319973,31.205334 52.6773362,31.272 52.112,31.272 C51.4613301,31.272 50.8480029,31.1920008 50.272,31.032 C49.6959971,30.8719992 49.1946688,30.6266683 48.768,30.296 C48.3413312,29.9653317 48.0000013,29.5413359 47.744,29.024 C47.4879987,28.5066641 47.3546667,27.8960035 47.344,27.192 L49.344,27.192 Z M63.824,26.136 C63.8026666,25.8479986 63.7413338,25.570668 63.64,25.304 C63.5386662,25.037332 63.4000009,24.8053343 63.224,24.608 C63.0479991,24.4106657 62.8346679,24.2506673 62.584,24.128 C62.3333321,24.0053327 62.0533349,23.944 61.744,23.944 C61.4239984,23.944 61.1333346,23.9999994 60.872,24.112 C60.6106654,24.2240006 60.3866676,24.3786657 60.2,24.576 C60.0133324,24.7733343 59.8640006,25.005332 59.752,25.272 C59.6399994,25.538668 59.5786667,25.8266651 59.568,26.136 L63.824,26.136 Z M59.568,27.336 C59.568,27.6560016 59.6133329,27.9653318 59.704,28.264 C59.7946671,28.5626682 59.9306658,28.8239989 60.112,29.048 C60.2933342,29.2720011 60.5226653,29.450666 60.8,29.584 C61.0773347,29.717334 61.4079981,29.784 61.792,29.784 C62.325336,29.784 62.754665,29.6693345 63.08,29.44 C63.405335,29.2106655 63.6479992,28.866669 63.808,28.408 L65.536,28.408 C65.4399995,28.8560022 65.2746678,29.2559982 65.04,29.608 C64.8053322,29.9600018 64.5226683,30.2559988 64.192,30.496 C63.8613317,30.7360012 63.4906687,30.9173327 63.08,31.04 C62.6693313,31.1626673 62.2400022,31.224 61.792,31.224 C61.1413301,31.224 60.5653358,31.1173344 60.064,30.904 C59.5626642,30.6906656 59.1386684,30.3920019 58.792,30.008 C58.4453316,29.6239981 58.1840009,29.165336 58.008,28.632 C57.8319991,28.098664 57.744,27.5120032 57.744,26.872 C57.744,26.2853304 57.8373324,25.7280026 58.024,25.2 C58.2106676,24.6719974 58.4773316,24.208002 58.824,23.808 C59.1706684,23.407998 59.5893309,23.0906678 60.08,22.856 C60.5706691,22.6213322 61.1253302,22.504 61.744,22.504 C62.3946699,22.504 62.9786641,22.6399986 63.496,22.912 C64.0133359,23.1840014 64.442665,23.5439978 64.784,23.992 C65.125335,24.4400022 65.3733326,24.9546638 65.528,25.536 C65.6826674,26.1173362 65.722667,26.7173302 65.648,27.336 L59.568,27.336 Z M67.04,22.728 L68.752,22.728 L68.752,24.328 L68.784,24.328 C68.8373336,24.1039989 68.9413326,23.8853344 69.096,23.672 C69.2506674,23.4586656 69.4373322,23.2640009 69.656,23.088 C69.8746678,22.9119991 70.117332,22.7706672 70.384,22.664 C70.650668,22.5573328 70.9226653,22.504 71.2,22.504 C71.4133344,22.504 71.5599996,22.5093333 71.64,22.52 C71.7200004,22.5306667 71.8026662,22.5413333 71.888,22.552 L71.888,24.312 C71.7599994,24.2906666 71.629334,24.2720001 71.496,24.256 C71.362666,24.2399999 71.2320006,24.232 71.104,24.232 C70.7946651,24.232 70.5040014,24.2933327 70.232,24.416 C69.9599986,24.5386673 69.7226677,24.7199988 69.52,24.96 C69.3173323,25.2000012 69.1573339,25.4959982 69.04,25.848 C68.9226661,26.2000018 68.864,26.605331 68.864,27.064 L68.864,31 L67.04,31 L67.04,22.728 Z M71.856,22.728 L73.84,22.728 L75.936,29.08 L75.968,29.08 L77.984,22.728 L79.872,22.728 L76.912,31 L74.864,31 L71.856,22.728 Z M81.024,19.576 L82.848,19.576 L82.848,21.304 L81.024,21.304 L81.024,19.576 Z M81.024,22.728 L82.848,22.728 L82.848,31 L81.024,31 L81.024,22.728 Z M90.416,25.496 C90.341333,24.9839974 90.1360017,24.5973346 89.8,24.336 C89.4639983,24.0746654 89.0400026,23.944 88.528,23.944 C88.2933322,23.944 88.042668,23.9839996 87.776,24.064 C87.509332,24.1440004 87.2640011,24.2933322 87.04,24.512 C86.8159989,24.7306678 86.6293341,25.0346647 86.48,25.424 C86.3306659,25.8133353 86.256,26.3226635 86.256,26.952 C86.256,27.293335 86.2959996,27.634665 86.376,27.976 C86.4560004,28.317335 86.5839991,28.621332 86.76,28.888 C86.9360009,29.154668 87.1626653,29.3706658 87.44,29.536 C87.7173347,29.7013342 88.0533314,29.784 88.448,29.784 C88.981336,29.784 89.4213316,29.6186683 89.768,29.288 C90.1146684,28.9573317 90.3306662,28.4933363 90.416,27.896 L92.24,27.896 C92.0693325,28.9733387 91.6613366,29.7973305 91.016,30.368 C90.3706634,30.9386695 89.514672,31.224 88.448,31.224 C87.7973301,31.224 87.2240025,31.1146678 86.728,30.896 C86.2319975,30.6773322 85.813335,30.3786686 85.472,30 C85.130665,29.6213314 84.8720009,29.1706693 84.696,28.648 C84.5199991,28.1253307 84.432,27.560003 84.432,26.952 C84.432,26.3333302 84.5173325,25.7520027 84.688,25.208 C84.8586675,24.6639973 85.114665,24.192002 85.456,23.792 C85.797335,23.391998 86.2213308,23.0773345 86.728,22.848 C87.2346692,22.6186655 87.8293299,22.504 88.512,22.504 C88.9920024,22.504 89.4479978,22.5653327 89.88,22.688 C90.3120022,22.8106673 90.6959983,22.9946654 91.032,23.24 C91.3680017,23.4853346 91.6426656,23.7946648 91.856,24.168 C92.0693344,24.5413352 92.1973331,24.9839974 92.24,25.496 L90.416,25.496 Z M99.408,26.136 C99.3866666,25.8479986 99.3253338,25.570668 99.224,25.304 C99.1226662,25.037332 98.9840009,24.8053343 98.808,24.608 C98.6319991,24.4106657 98.4186679,24.2506673 98.168,24.128 C97.9173321,24.0053327 97.6373349,23.944 97.328,23.944 C97.0079984,23.944 96.7173346,23.9999994 96.456,24.112 C96.1946654,24.2240006 95.9706676,24.3786657 95.784,24.576 C95.5973324,24.7733343 95.4480006,25.005332 95.336,25.272 C95.2239994,25.538668 95.1626667,25.8266651 95.152,26.136 L99.408,26.136 Z M95.152,27.336 C95.152,27.6560016 95.1973329,27.9653318 95.288,28.264 C95.3786671,28.5626682 95.5146658,28.8239989 95.696,29.048 C95.8773342,29.2720011 96.1066653,29.450666 96.384,29.584 C96.6613347,29.717334 96.9919981,29.784 97.376,29.784 C97.909336,29.784 98.338665,29.6693345 98.664,29.44 C98.989335,29.2106655 99.2319992,28.866669 99.392,28.408 L101.12,28.408 C101.024,28.8560022 100.858668,29.2559982 100.624,29.608 C100.389332,29.9600018 100.106668,30.2559988 99.776,30.496 C99.4453317,30.7360012 99.0746687,30.9173327 98.664,31.04 C98.2533313,31.1626673 97.8240022,31.224 97.376,31.224 C96.7253301,31.224 96.1493358,31.1173344 95.648,30.904 C95.1466642,30.6906656 94.7226684,30.3920019 94.376,30.008 C94.0293316,29.6239981 93.7680009,29.165336 93.592,28.632 C93.4159991,28.098664 93.328,27.5120032 93.328,26.872 C93.328,26.2853304 93.4213324,25.7280026 93.608,25.2 C93.7946676,24.6719974 94.0613316,24.208002 94.408,23.808 C94.7546684,23.407998 95.1733309,23.0906678 95.664,22.856 C96.1546691,22.6213322 96.7093302,22.504 97.328,22.504 C97.9786699,22.504 98.5626641,22.6399986 99.08,22.912 C99.5973359,23.1840014 100.026665,23.5439978 100.368,23.992 C100.709335,24.4400022 100.957333,24.9546638 101.112,25.536 C101.266667,26.1173362 101.306667,26.7173302 101.232,27.336 L95.152,27.336 Z M11.3046875,48.8808594 L11.3046875,51.2890625 C11.3046875,51.5468763 11.3574213,51.7167965 11.4628906,51.7988281 C11.6269539,51.927735 11.9199198,51.9921875 12.3417969,51.9921875 C12.9550812,51.9921875 13.5214818,51.8613294 14.0410156,51.5996094 C14.2402354,51.4980464 14.3964838,51.4472656 14.5097656,51.4472656 C14.6660164,51.4472656 14.8017572,51.5058588 14.9169922,51.6230469 C15.0322271,51.740235 15.0898438,51.8828117 15.0898438,52.0507812 C15.0898438,52.207032 15.0273444,52.3417963 14.9023438,52.4550781 C14.7109365,52.6386728 14.3330106,52.8076164 13.7685547,52.9619141 C13.2040987,53.1162117 12.7285176,53.1933594 12.3417969,53.1933594 C11.5956994,53.1933594 11.0361347,53.0322282 10.6630859,52.7099609 C10.2900372,52.3876937 10.1035156,51.9921898 10.1035156,51.5234375 L10.1035156,48.8808594 L9.66992188,48.8808594 C9.38085793,48.8808594 9.1748053,48.8251959 9.05175781,48.7138672 C8.92871032,48.6025385 8.8671875,48.4570321 8.8671875,48.2773438 C8.8671875,48.1015616 8.92871032,47.9580084 9.05175781,47.8466797 C9.1748053,47.735351 9.38085793,47.6796875 9.66992188,47.6796875 L10.1035156,47.6796875 L10.1035156,46.5957031 C10.1035156,46.3066392 10.1591791,46.1005866 10.2705078,45.9775391 C10.3818365,45.8544916 10.5273429,45.7929688 10.7070312,45.7929688 C10.8828134,45.7929688 11.0263666,45.8544916 11.1376953,45.9775391 C11.249024,46.1005866 11.3046875,46.3066392 11.3046875,46.5957031 L11.3046875,47.6796875 L13.5253906,47.6796875 C13.8144546,47.6796875 14.0205072,47.735351 14.1435547,47.8466797 C14.2666022,47.9580084 14.328125,48.1035147 14.328125,48.2832031 C14.328125,48.4589853 14.2666022,48.6025385 14.1435547,48.7138672 C14.0205072,48.8251959 13.8144546,48.8808594 13.5253906,48.8808594 L11.3046875,48.8808594 Z M21.8164062,50.9492188 L16.8886719,50.9492188 C17.0136725,51.2617203 17.23535,51.5136709 17.5537109,51.7050781 C17.8720719,51.8964853 18.3027317,51.9921875 18.8457031,51.9921875 C19.2910179,51.9921875 19.8828088,51.8964853 20.6210938,51.7050781 C20.9257828,51.6269527 21.1367182,51.5878906 21.2539062,51.5878906 C21.4140633,51.5878906 21.5488276,51.6445307 21.6582031,51.7578125 C21.7675787,51.8710943 21.8222656,52.013671 21.8222656,52.1855469 C21.8222656,52.3417977 21.7636725,52.4746088 21.6464844,52.5839844 C21.4902336,52.7285163 21.109378,52.8662103 20.5039062,52.9970703 C19.8984345,53.1279303 19.316409,53.1933594 18.7578125,53.1933594 C17.7968702,53.1933594 17.0283232,52.9218777 16.4521484,52.3789062 C15.8759737,51.8359348 15.5878906,51.1679727 15.5878906,50.375 C15.5878906,49.5312458 15.8994109,48.8447292 16.5224609,48.3154297 C17.1455109,47.7861302 17.8632772,47.5214844 18.6757812,47.5214844 C19.1640649,47.5214844 19.6123026,47.607421 20.0205078,47.7792969 C20.428713,47.9511727 20.7324209,48.1367178 20.9316406,48.3359375 C21.212892,48.6250014 21.4453116,48.9824197 21.6289062,49.4082031 C21.7539069,49.7050796 21.8164062,50.0488262 21.8164062,50.4394531 L21.8164062,50.9492188 Z M20.4863281,49.7480469 C20.3027335,49.4042952 20.0625015,49.1474618 19.765625,48.9775391 C19.4687485,48.8076163 19.1152364,48.7226562 18.7050781,48.7226562 C18.2988261,48.7226562 17.9472671,48.8076163 17.6503906,48.9775391 C17.3535141,49.1474618 17.1113291,49.4042952 16.9238281,49.7480469 L20.4863281,49.7480469 Z M26.6035156,45.4003906 L26.6035156,51.7988281 L28.0449219,51.7988281 C28.3339858,51.7988281 28.5400384,51.8544916 28.6630859,51.9658203 C28.7861334,52.077149 28.8476562,52.2226554 28.8476562,52.4023438 C28.8476562,52.5781259 28.7861334,52.7216791 28.6630859,52.8330078 C28.5400384,52.9443365 28.3339858,53 28.0449219,53 L23.9609375,53 C23.6718736,53 23.4658209,52.9443365 23.3427734,52.8330078 C23.2197259,52.7216791 23.1582031,52.5761728 23.1582031,52.3964844 C23.1582031,52.2207022 23.2197259,52.077149 23.3427734,51.9658203 C23.4658209,51.8544916 23.6718736,51.7988281 23.9609375,51.7988281 L25.4023438,51.7988281 L25.4023438,46.6015625 L24.4355469,46.6015625 C24.1503892,46.6015625 23.9453131,46.545899 23.8203125,46.4345703 C23.6953119,46.3232416 23.6328125,46.1777353 23.6328125,45.9980469 C23.6328125,45.8222647 23.6943353,45.6787115 23.8173828,45.5673828 C23.9404303,45.4560541 24.1464829,45.4003906 24.4355469,45.4003906 L26.6035156,45.4003906 Z M36.21875,50.9492188 L31.2910156,50.9492188 C31.4160163,51.2617203 31.6376937,51.5136709 31.9560547,51.7050781 C32.2744157,51.8964853 32.7050754,51.9921875 33.2480469,51.9921875 C33.6933616,51.9921875 34.2851526,51.8964853 35.0234375,51.7050781 C35.3281265,51.6269527 35.5390619,51.5878906 35.65625,51.5878906 C35.8164071,51.5878906 35.9511713,51.6445307 36.0605469,51.7578125 C36.1699224,51.8710943 36.2246094,52.013671 36.2246094,52.1855469 C36.2246094,52.3417977 36.1660162,52.4746088 36.0488281,52.5839844 C35.8925773,52.7285163 35.5117218,52.8662103 34.90625,52.9970703 C34.3007782,53.1279303 33.7187528,53.1933594 33.1601563,53.1933594 C32.1992139,53.1933594 31.4306669,52.9218777 30.8544922,52.3789062 C30.2783174,51.8359348 29.9902344,51.1679727 29.9902344,50.375 C29.9902344,49.5312458 30.3017547,48.8447292 30.9248047,48.3154297 C31.5478547,47.7861302 32.2656209,47.5214844 33.078125,47.5214844 C33.5664087,47.5214844 34.0146464,47.607421 34.4228516,47.7792969 C34.8310567,47.9511727 35.1347646,48.1367178 35.3339844,48.3359375 C35.6152358,48.6250014 35.8476553,48.9824197 36.03125,49.4082031 C36.1562506,49.7050796 36.21875,50.0488262 36.21875,50.4394531 L36.21875,50.9492188 Z M34.8886719,49.7480469 C34.7050772,49.4042952 34.4648452,49.1474618 34.1679688,48.9775391 C33.8710923,48.8076163 33.5175802,48.7226562 33.1074219,48.7226562 C32.7011698,48.7226562 32.3496109,48.8076163 32.0527344,48.9775391 C31.7558579,49.1474618 31.5136728,49.4042952 31.3261719,49.7480469 L34.8886719,49.7480469 Z M38.9140625,52.3378906 L38.9140625,54.3066406 L39.6347656,54.3066406 C39.9238296,54.3066406 40.1298822,54.3623041 40.2529297,54.4736328 C40.3759772,54.5849615 40.4375,54.7304679 40.4375,54.9101562 C40.4375,55.0859384 40.3759772,55.2294916 40.2529297,55.3408203 C40.1298822,55.452149 39.9238296,55.5078125 39.6347656,55.5078125 L37.5078125,55.5078125 C37.2187486,55.5078125 37.0126959,55.452149 36.8896484,55.3408203 C36.7666009,55.2294916 36.7050781,55.0859384 36.7050781,54.9101562 C36.7050781,54.7304679 36.7675775,54.5849615 36.8925781,54.4736328 C37.0175787,54.3623041 37.2226548,54.3066406 37.5078125,54.3066406 L37.7128906,54.3066406 L37.7128906,48.8808594 L37.5078125,48.8808594 C37.2187486,48.8808594 37.0126959,48.8251959 36.8896484,48.7138672 C36.7666009,48.6025385 36.7050781,48.4570321 36.7050781,48.2773438 C36.7050781,48.1015616 36.7666009,47.9580084 36.8896484,47.8466797 C37.0126959,47.735351 37.2187486,47.6796875 37.5078125,47.6796875 L38.9140625,47.6796875 L38.9140625,48.0898438 C39.1953139,47.8984365 39.4863266,47.7558598 39.7871094,47.6621094 C40.0878921,47.5683589 40.3964828,47.5214844 40.7128906,47.5214844 C41.5332072,47.5214844 42.232419,47.7998019 42.8105469,48.3564453 C43.3886748,48.9130887 43.6777344,49.5507777 43.6777344,50.2695312 C43.6777344,51.062504 43.3359409,51.7167943 42.6523438,52.2324219 C42.0820284,52.6621115 41.4394567,52.8769531 40.7246094,52.8769531 C40.4160141,52.8769531 40.1113296,52.8320317 39.8105469,52.7421875 C39.5097641,52.6523433 39.210939,52.517579 38.9140625,52.3378906 Z M42.4765625,50.2753906 C42.4765625,50.107421 42.4101569,49.893556 42.2773437,49.6337891 C42.1445306,49.3740221 41.9404311,49.1572274 41.6650391,48.9833984 C41.3896471,48.8095694 41.0664081,48.7226562 40.6953125,48.7226562 C40.0976533,48.7226562 39.6230486,48.9472634 39.2714844,49.3964844 C39.0332019,49.7050797 38.9140625,50.0019517 38.9140625,50.2871094 C38.9140625,50.6074235 39.0849592,50.9189438 39.4267578,51.2216797 C39.7685564,51.5244156 40.1914037,51.6757812 40.6953125,51.6757812 C41.2031275,51.6757812 41.6269514,51.5253921 41.9667969,51.2246094 C42.3066423,50.9238266 42.4765625,50.6074235 42.4765625,50.2753906 Z M50.7265625,50.4394531 C50.7265625,50.9003929 50.5986341,51.3466775 50.3427734,51.7783203 C50.0869128,52.2099631 49.7060572,52.5537097 49.2001953,52.8095703 C48.6943334,53.065431 48.1660184,53.1933594 47.6152344,53.1933594 C47.0683566,53.1933594 46.5449244,53.0673841 46.0449219,52.8154297 C45.5449194,52.5634753 45.1640638,52.2207053 44.9023438,51.7871094 C44.6406237,51.3535135 44.5097656,50.900393 44.5097656,50.4277344 C44.5097656,49.9472632 44.6425768,49.4755883 44.9082031,49.0126953 C45.1738295,48.5498024 45.5556616,48.1855482 46.0537109,47.9199219 C46.5517603,47.6542955 47.0722629,47.5214844 47.6152344,47.5214844 C48.1621121,47.5214844 48.688474,47.6572252 49.1943359,47.9287109 C49.7001978,48.2001967 50.08203,48.5654274 50.3398438,49.0244141 C50.5976575,49.4834007 50.7265625,49.9550757 50.7265625,50.4394531 Z M49.5253906,50.4453125 C49.5253906,50.0585918 49.3867201,49.7031266 49.109375,49.3789062 C48.7304669,48.9414041 48.232425,48.7226562 47.6152344,48.7226562 C47.0722629,48.7226562 46.6191424,48.8964826 46.2558594,49.2441406 C45.8925763,49.5917986 45.7109375,49.9941383 45.7109375,50.4511719 C45.7109375,50.8261738 45.8945294,51.1767562 46.2617188,51.5029297 C46.6289081,51.8291032 47.0800754,51.9921875 47.6152344,51.9921875 C48.1542996,51.9921875 48.60742,51.8291032 48.9746094,51.5029297 C49.3417987,51.1767562 49.5253906,50.8242206 49.5253906,50.4453125 Z M54.5585938,47.6796875 L54.5585938,48.4296875 C55.0625025,48.0664044 55.4599595,47.8242194 55.7509766,47.703125 C56.0419936,47.5820306 56.3144519,47.5214844 56.5683594,47.5214844 C56.9589863,47.5214844 57.3378888,47.6660142 57.7050781,47.9550781 C57.9550794,48.1503916 58.0800781,48.3496084 58.0800781,48.5527344 C58.0800781,48.7246102 58.0205084,48.8701166 57.9013672,48.9892578 C57.782226,49.108399 57.6386727,49.1679688 57.4707031,49.1679688 C57.3222649,49.1679688 57.1660164,49.0937507 57.0019531,48.9453125 C56.8378898,48.7968743 56.6914069,48.7226562 56.5625,48.7226562 C56.3945304,48.7226562 56.1435564,48.8281239 55.8095703,49.0390625 C55.4755843,49.2500011 55.0585963,49.5664041 54.5585938,49.9882812 L54.5585938,51.7988281 L56.2695312,51.7988281 C56.5585952,51.7988281 56.7646478,51.8544916 56.8876953,51.9658203 C57.0107428,52.077149 57.0722656,52.2226554 57.0722656,52.4023437 C57.0722656,52.5781259 57.0107428,52.7216791 56.8876953,52.8330078 C56.7646478,52.9443365 56.5585952,53 56.2695312,53 L52.6425781,53 C52.3535142,53 52.1474616,52.9443365 52.0244141,52.8330078 C51.9013666,52.7216791 51.8398438,52.5761728 51.8398438,52.3964844 C51.8398438,52.2207022 51.9013666,52.077149 52.0244141,51.9658203 C52.1474616,51.8544916 52.3535142,51.7988281 52.6425781,51.7988281 L53.3574219,51.7988281 L53.3574219,48.8808594 L52.9238281,48.8808594 C52.6347642,48.8808594 52.4287116,48.8251959 52.3056641,48.7138672 C52.1826166,48.6025385 52.1210938,48.4570321 52.1210938,48.2773438 C52.1210938,48.1015616 52.1826166,47.9580084 52.3056641,47.8466797 C52.4287116,47.735351 52.6347642,47.6796875 52.9238281,47.6796875 L54.5585938,47.6796875 Z M61.7128906,48.8808594 L61.7128906,51.2890625 C61.7128906,51.5468763 61.7656245,51.7167965 61.8710938,51.7988281 C62.0351571,51.927735 62.3281229,51.9921875 62.75,51.9921875 C63.3632843,51.9921875 63.9296849,51.8613294 64.4492188,51.5996094 C64.6484385,51.4980464 64.8046869,51.4472656 64.9179688,51.4472656 C65.0742195,51.4472656 65.2099604,51.5058588 65.3251953,51.6230469 C65.4404303,51.740235 65.4980469,51.8828117 65.4980469,52.0507812 C65.4980469,52.207032 65.4355475,52.3417963 65.3105469,52.4550781 C65.1191397,52.6386728 64.7412138,52.8076164 64.1767578,52.9619141 C63.6123019,53.1162117 63.1367207,53.1933594 62.75,53.1933594 C62.0039025,53.1933594 61.4443378,53.0322282 61.0712891,52.7099609 C60.6982403,52.3876937 60.5117188,51.9921898 60.5117188,51.5234375 L60.5117188,48.8808594 L60.078125,48.8808594 C59.7890611,48.8808594 59.5830084,48.8251959 59.4599609,48.7138672 C59.3369134,48.6025385 59.2753906,48.4570321 59.2753906,48.2773438 C59.2753906,48.1015616 59.3369134,47.9580084 59.4599609,47.8466797 C59.5830084,47.735351 59.7890611,47.6796875 60.078125,47.6796875 L60.5117188,47.6796875 L60.5117188,46.5957031 C60.5117188,46.3066392 60.5673823,46.1005866 60.6787109,45.9775391 C60.7900396,45.8544916 60.935546,45.7929688 61.1152344,45.7929688 C61.2910165,45.7929688 61.4345698,45.8544916 61.5458984,45.9775391 C61.6572271,46.1005866 61.7128906,46.3066392 61.7128906,46.5957031 L61.7128906,47.6796875 L63.9335938,47.6796875 C64.2226577,47.6796875 64.4287103,47.735351 64.5517578,47.8466797 C64.6748053,47.9580084 64.7363281,48.1035147 64.7363281,48.2832031 C64.7363281,48.4589853 64.6748053,48.6025385 64.5517578,48.7138672 C64.4287103,48.8251959 64.2226577,48.8808594 63.9335938,48.8808594 L61.7128906,48.8808594 Z M77.7089844,49.0859375 C77.5136709,48.9648431 77.3085948,48.8740237 77.09375,48.8134766 C76.8789052,48.7529294 76.654298,48.7226562 76.4199219,48.7226562 C75.9550758,48.7226562 75.5859389,48.7988274 75.3125,48.9511719 C75.1914056,49.0175785 75.1308594,49.0898434 75.1308594,49.1679688 C75.1308594,49.2578129 75.2128898,49.3457027 75.3769531,49.4316406 C75.5019537,49.4941409 75.7812478,49.5546872 76.2148438,49.6132812 C77.0117227,49.7226568 77.5664047,49.8320307 77.8789062,49.9414062 C78.2890646,50.0859382 78.6054676,50.3007798 78.828125,50.5859375 C79.0507824,50.8710952 79.1621094,51.1718734 79.1621094,51.4882812 C79.1621094,51.9179709 78.9726581,52.2773423 78.59375,52.5664062 C78.0507785,52.9843771 77.3457075,53.1933594 76.4785156,53.1933594 C76.1308576,53.1933594 75.8095718,53.1630862 75.5146484,53.1025391 C75.2197251,53.0419919 74.94922,52.9531256 74.703125,52.8359375 C74.644531,52.886719 74.5820316,52.9257811 74.515625,52.953125 C74.4492184,52.9804689 74.3808597,52.9941406 74.3105469,52.9941406 C74.1230459,52.9941406 73.9736334,52.9326178 73.8623047,52.8095703 C73.750976,52.6865228 73.6953125,52.4804702 73.6953125,52.1914062 L73.6953125,51.7871094 C73.6953125,51.4980454 73.750976,51.2919928 73.8623047,51.1689453 C73.9736334,51.0458978 74.1191397,50.984375 74.2988281,50.984375 C74.4433601,50.984375 74.5644526,51.0244137 74.6621094,51.1044922 C74.7597661,51.1845707 74.8359372,51.3222646 74.890625,51.5175781 C75.0742197,51.6738289 75.2949206,51.7919918 75.5527344,51.8720703 C75.8105482,51.9521488 76.1074202,51.9921875 76.4433594,51.9921875 C76.9941434,51.9921875 77.4218735,51.9062509 77.7265625,51.734375 C77.8710945,51.6484371 77.9433594,51.5585942 77.9433594,51.4648438 C77.9433594,51.308593 77.8398448,51.179688 77.6328125,51.078125 C77.4257802,50.976562 76.9980501,50.8906254 76.3496094,50.8203125 C75.3847608,50.7187495 74.740236,50.5234389 74.4160156,50.234375 C74.0917953,49.9492173 73.9296875,49.5976583 73.9296875,49.1796875 C73.9296875,48.7499979 74.1113263,48.3925796 74.4746094,48.1074219 C74.9667993,47.7167949 75.6113241,47.5214844 76.4082031,47.5214844 C76.6855483,47.5214844 76.9521472,47.5478513 77.2080078,47.6005859 C77.4638685,47.6533206 77.7089832,47.7343745 77.9433594,47.84375 C78.0175785,47.7890622 78.0869137,47.748047 78.1513672,47.7207031 C78.2158206,47.6933592 78.2753904,47.6796875 78.3300781,47.6796875 C78.4941414,47.6796875 78.6308588,47.7412103 78.7402344,47.8642578 C78.8496099,47.9873053 78.9042969,48.1933579 78.9042969,48.4824219 L78.9042969,48.7753906 C78.9042969,49.0371107 78.8730472,49.2148433 78.8105469,49.3085938 C78.6855463,49.4882821 78.5156261,49.578125 78.3007812,49.578125 C78.1562493,49.578125 78.0292974,49.5332036 77.9199219,49.4433594 C77.8105463,49.3535152 77.7402345,49.2343757 77.7089844,49.0859375 Z M83.3164062,48.8808594 L83.3164062,51.2890625 C83.3164062,51.5468763 83.3691401,51.7167965 83.4746094,51.7988281 C83.6386727,51.927735 83.9316385,51.9921875 84.3535156,51.9921875 C84.9667999,51.9921875 85.5332005,51.8613294 86.0527344,51.5996094 C86.2519541,51.4980464 86.4082026,51.4472656 86.5214844,51.4472656 C86.6777352,51.4472656 86.813476,51.5058588 86.9287109,51.6230469 C87.0439459,51.740235 87.1015625,51.8828117 87.1015625,52.0507812 C87.1015625,52.207032 87.0390631,52.3417963 86.9140625,52.4550781 C86.7226553,52.6386728 86.3447294,52.8076164 85.7802734,52.9619141 C85.2158175,53.1162117 84.7402363,53.1933594 84.3535156,53.1933594 C83.6074181,53.1933594 83.0478534,53.0322282 82.6748047,52.7099609 C82.3017559,52.3876937 82.1152344,51.9921898 82.1152344,51.5234375 L82.1152344,48.8808594 L81.6816406,48.8808594 C81.3925767,48.8808594 81.1865241,48.8251959 81.0634766,48.7138672 C80.9404291,48.6025385 80.8789062,48.4570321 80.8789062,48.2773438 C80.8789062,48.1015616 80.9404291,47.9580084 81.0634766,47.8466797 C81.1865241,47.735351 81.3925767,47.6796875 81.6816406,47.6796875 L82.1152344,47.6796875 L82.1152344,46.5957031 C82.1152344,46.3066392 82.1708979,46.1005866 82.2822266,45.9775391 C82.3935552,45.8544916 82.5390616,45.7929688 82.71875,45.7929688 C82.8945321,45.7929688 83.0380854,45.8544916 83.1494141,45.9775391 C83.2607427,46.1005866 83.3164062,46.3066392 83.3164062,46.5957031 L83.3164062,47.6796875 L85.5371094,47.6796875 C85.8261733,47.6796875 86.0322259,47.735351 86.1552734,47.8466797 C86.2783209,47.9580084 86.3398438,48.1035147 86.3398438,48.2832031 C86.3398438,48.4589853 86.2783209,48.6025385 86.1552734,48.7138672 C86.0322259,48.8251959 85.8261733,48.8808594 85.5371094,48.8808594 L83.3164062,48.8808594 Z M91.8945312,53 L91.8945312,52.71875 C91.5937485,52.8789071 91.2617206,52.999023 90.8984375,53.0791016 C90.5351544,53.1591801 90.2050796,53.1992187 89.9082031,53.1992187 C89.2636687,53.1992187 88.7402364,53.028322 88.3378906,52.6865234 C87.9355449,52.3447249 87.734375,51.9667989 87.734375,51.5527344 C87.734375,51.0488256 87.9912084,50.5810568 88.5048828,50.1494141 C89.0185573,49.7177713 89.7285111,49.5019531 90.6347656,49.5019531 C90.9980487,49.5019531 91.4179664,49.5410152 91.8945312,49.6191406 L91.8945312,49.3320312 C91.8945312,49.1523429 91.8173836,49.0058599 91.6630859,48.8925781 C91.5087883,48.7792963 91.2148459,48.7226562 90.78125,48.7226562 C90.4257795,48.7226562 89.9648466,48.792968 89.3984375,48.9335938 C89.1874989,48.9843753 89.0234381,49.0097656 88.90625,49.0097656 C88.7460929,49.0097656 88.6103521,48.952149 88.4990234,48.8369141 C88.3876948,48.7216791 88.3320312,48.5742196 88.3320312,48.3945312 C88.3320312,48.2929682 88.3515623,48.2050785 88.390625,48.1308594 C88.4296877,48.0566403 88.4843746,47.9970705 88.5546875,47.9521484 C88.6250004,47.9072263 88.7714833,47.8535159 88.9941406,47.7910156 C89.2910171,47.708984 89.5937485,47.6435549 89.9023438,47.5947266 C90.210939,47.5458982 90.4902331,47.5214844 90.7402344,47.5214844 C91.4863319,47.5214844 92.0654276,47.6826156 92.4775391,48.0048828 C92.8896505,48.32715 93.0957031,48.7675753 93.0957031,49.3261719 L93.0957031,51.7988281 L93.3007812,51.7988281 C93.5898452,51.7988281 93.7958978,51.8544916 93.9189453,51.9658203 C94.0419928,52.077149 94.1035156,52.2226554 94.1035156,52.4023437 C94.1035156,52.5781259 94.0419928,52.7216791 93.9189453,52.8330078 C93.7958978,52.9443365 93.5898452,53 93.3007812,53 L91.8945312,53 Z M91.8945312,50.8496094 C91.4140601,50.7558589 90.9707052,50.7089844 90.5644531,50.7089844 C90.0761694,50.7089844 89.6562518,50.8281238 89.3046875,51.0664062 C89.0859364,51.2187508 88.9765625,51.3730461 88.9765625,51.5292969 C88.9765625,51.6425787 89.0292963,51.7343746 89.1347656,51.8046875 C89.3300791,51.9335944 89.5976546,51.9980469 89.9375,51.9980469 C90.2265639,51.9980469 90.5537091,51.9414068 90.9189453,51.828125 C91.2841815,51.7148432 91.6093736,51.5605479 91.8945312,51.3652344 L91.8945312,50.8496094 Z M97.765625,47.6796875 L97.765625,48.4296875 C98.2695338,48.0664044 98.6669907,47.8242194 98.9580078,47.703125 C99.2490249,47.5820306 99.5214831,47.5214844 99.7753906,47.5214844 C100.166018,47.5214844 100.54492,47.6660142 100.912109,47.9550781 C101.162111,48.1503916 101.287109,48.3496084 101.287109,48.5527344 C101.287109,48.7246102 101.22754,48.8701166 101.108398,48.9892578 C100.989257,49.108399 100.845704,49.1679688 100.677734,49.1679688 C100.529296,49.1679688 100.373048,49.0937507 100.208984,48.9453125 C100.044921,48.7968743 99.8984381,48.7226562 99.7695312,48.7226562 C99.6015617,48.7226562 99.3505876,48.8281239 99.0166016,49.0390625 C98.6826155,49.2500011 98.2656275,49.5664041 97.765625,49.9882812 L97.765625,51.7988281 L99.4765625,51.7988281 C99.7656264,51.7988281 99.9716791,51.8544916 100.094727,51.9658203 C100.217774,52.077149 100.279297,52.2226554 100.279297,52.4023437 C100.279297,52.5781259 100.217774,52.7216791 100.094727,52.8330078 C99.9716791,52.9443365 99.7656264,53 99.4765625,53 L95.8496094,53 C95.5605454,53 95.3544928,52.9443365 95.2314453,52.8330078 C95.1083978,52.7216791 95.046875,52.5761728 95.046875,52.3964844 C95.046875,52.2207022 95.1083978,52.077149 95.2314453,51.9658203 C95.3544928,51.8544916 95.5605454,51.7988281 95.8496094,51.7988281 L96.5644531,51.7988281 L96.5644531,48.8808594 L96.1308594,48.8808594 C95.8417954,48.8808594 95.6357428,48.8251959 95.5126953,48.7138672 C95.3896478,48.6025385 95.328125,48.4570321 95.328125,48.2773438 C95.328125,48.1015616 95.3896478,47.9580084 95.5126953,47.8466797 C95.6357428,47.735351 95.8417954,47.6796875 96.1308594,47.6796875 L97.765625,47.6796875 Z M104.919922,48.8808594 L104.919922,51.2890625 C104.919922,51.5468763 104.972656,51.7167965 105.078125,51.7988281 C105.242188,51.927735 105.535154,51.9921875 105.957031,51.9921875 C106.570316,51.9921875 107.136716,51.8613294 107.65625,51.5996094 C107.85547,51.4980464 108.011718,51.4472656 108.125,51.4472656 C108.281251,51.4472656 108.416992,51.5058588 108.532227,51.6230469 C108.647462,51.740235 108.705078,51.8828117 108.705078,52.0507812 C108.705078,52.207032 108.642579,52.3417963 108.517578,52.4550781 C108.326171,52.6386728 107.948245,52.8076164 107.383789,52.9619141 C106.819333,53.1162117 106.343752,53.1933594 105.957031,53.1933594 C105.210934,53.1933594 104.651369,53.0322282 104.27832,52.7099609 C103.905272,52.3876937 103.71875,51.9921898 103.71875,51.5234375 L103.71875,48.8808594 L103.285156,48.8808594 C102.996092,48.8808594 102.79004,48.8251959 102.666992,48.7138672 C102.543945,48.6025385 102.482422,48.4570321 102.482422,48.2773438 C102.482422,48.1015616 102.543945,47.9580084 102.666992,47.8466797 C102.79004,47.735351 102.996092,47.6796875 103.285156,47.6796875 L103.71875,47.6796875 L103.71875,46.5957031 C103.71875,46.3066392 103.774414,46.1005866 103.885742,45.9775391 C103.997071,45.8544916 104.142577,45.7929688 104.322266,45.7929688 C104.498048,45.7929688 104.641601,45.8544916 104.75293,45.9775391 C104.864258,46.1005866 104.919922,46.3066392 104.919922,46.5957031 L104.919922,47.6796875 L107.140625,47.6796875 C107.429689,47.6796875 107.635742,47.735351 107.758789,47.8466797 C107.881837,47.9580084 107.943359,48.1035147 107.943359,48.2832031 C107.943359,48.4589853 107.881837,48.6025385 107.758789,48.7138672 C107.635742,48.8251959 107.429689,48.8808594 107.140625,48.8808594 L104.919922,48.8808594 Z M122.779297,50.2050781 L116.462891,50.2050781 C116.173827,50.2050781 115.967774,50.1494146 115.844727,50.0380859 C115.721679,49.9267573 115.660156,49.7812509 115.660156,49.6015625 C115.660156,49.4257804 115.721679,49.2822271 115.844727,49.1708984 C115.967774,49.0595698 116.173827,49.0039062 116.462891,49.0039062 L122.779297,49.0039062 C123.064455,49.0039062 123.268554,49.0595698 123.391602,49.1708984 C123.514649,49.2822271 123.576172,49.4277335 123.576172,49.6074219 C123.576172,49.783204 123.515626,49.9267573 123.394531,50.0380859 C123.273437,50.1494146 123.068361,50.2050781 122.779297,50.2050781 Z M126.570312,47.6796875 L126.570312,48.4296875 C127.074221,48.0664044 127.471678,47.8242194 127.762695,47.703125 C128.053712,47.5820306 128.326171,47.5214844 128.580078,47.5214844 C128.970705,47.5214844 129.349608,47.6660142 129.716797,47.9550781 C129.966798,48.1503916 130.091797,48.3496084 130.091797,48.5527344 C130.091797,48.7246102 130.032227,48.8701166 129.913086,48.9892578 C129.793945,49.108399 129.650391,49.1679688 129.482422,49.1679688 C129.333984,49.1679688 129.177735,49.0937507 129.013672,48.9453125 C128.849609,48.7968743 128.703126,48.7226562 128.574219,48.7226562 C128.406249,48.7226562 128.155275,48.8281239 127.821289,49.0390625 C127.487303,49.2500011 127.070315,49.5664041 126.570312,49.9882812 L126.570312,51.7988281 L128.28125,51.7988281 C128.570314,51.7988281 128.776367,51.8544916 128.899414,51.9658203 C129.022462,52.077149 129.083984,52.2226554 129.083984,52.4023437 C129.083984,52.5781259 129.022462,52.7216791 128.899414,52.8330078 C128.776367,52.9443365 128.570314,53 128.28125,53 L124.654297,53 C124.365233,53 124.15918,52.9443365 124.036133,52.8330078 C123.913085,52.7216791 123.851562,52.5761728 123.851562,52.3964844 C123.851562,52.2207022 123.913085,52.077149 124.036133,51.9658203 C124.15918,51.8544916 124.365233,51.7988281 124.654297,51.7988281 L125.369141,51.7988281 L125.369141,48.8808594 L124.935547,48.8808594 C124.646483,48.8808594 124.44043,48.8251959 124.317383,48.7138672 C124.194335,48.6025385 124.132812,48.4570321 124.132812,48.2773438 C124.132812,48.1015616 124.194335,47.9580084 124.317383,47.8466797 C124.44043,47.735351 124.646483,47.6796875 124.935547,47.6796875 L126.570312,47.6796875 Z M137.140625,50.4394531 C137.140625,50.9003929 137.012697,51.3466775 136.756836,51.7783203 C136.500975,52.2099631 136.12012,52.5537097 135.614258,52.8095703 C135.108396,53.065431 134.580081,53.1933594 134.029297,53.1933594 C133.482419,53.1933594 132.958987,53.0673841 132.458984,52.8154297 C131.958982,52.5634753 131.578126,52.2207053 131.316406,51.7871094 C131.054686,51.3535135 130.923828,50.900393 130.923828,50.4277344 C130.923828,49.9472632 131.056639,49.4755883 131.322266,49.0126953 C131.587892,48.5498024 131.969724,48.1855482 132.467773,47.9199219 C132.965823,47.6542955 133.486325,47.5214844 134.029297,47.5214844 C134.576175,47.5214844 135.102537,47.6572252 135.608398,47.9287109 C136.11426,48.2001967 136.496092,48.5654274 136.753906,49.0244141 C137.01172,49.4834007 137.140625,49.9550757 137.140625,50.4394531 Z M135.939453,50.4453125 C135.939453,50.0585918 135.800783,49.7031266 135.523438,49.3789062 C135.144529,48.9414041 134.646487,48.7226562 134.029297,48.7226562 C133.486325,48.7226562 133.033205,48.8964826 132.669922,49.2441406 C132.306639,49.5917986 132.125,49.9941383 132.125,50.4511719 C132.125,50.8261738 132.308592,51.1767562 132.675781,51.5029297 C133.042971,51.8291032 133.494138,51.9921875 134.029297,51.9921875 C134.568362,51.9921875 135.021483,51.8291032 135.388672,51.5029297 C135.755861,51.1767562 135.939453,50.8242206 135.939453,50.4453125 Z M141.822266,45.4003906 L141.822266,51.7988281 L143.263672,51.7988281 C143.552736,51.7988281 143.758788,51.8544916 143.881836,51.9658203 C144.004883,52.077149 144.066406,52.2226554 144.066406,52.4023438 C144.066406,52.5781259 144.004883,52.7216791 143.881836,52.8330078 C143.758788,52.9443365 143.552736,53 143.263672,53 L139.179688,53 C138.890624,53 138.684571,52.9443365 138.561523,52.8330078 C138.438476,52.7216791 138.376953,52.5761728 138.376953,52.3964844 C138.376953,52.2207022 138.438476,52.077149 138.561523,51.9658203 C138.684571,51.8544916 138.890624,51.7988281 139.179688,51.7988281 L140.621094,51.7988281 L140.621094,46.6015625 L139.654297,46.6015625 C139.369139,46.6015625 139.164063,46.545899 139.039062,46.4345703 C138.914062,46.3232416 138.851562,46.1777353 138.851562,45.9980469 C138.851562,45.8222647 138.913085,45.6787115 139.036133,45.5673828 C139.15918,45.4560541 139.365233,45.4003906 139.654297,45.4003906 L141.822266,45.4003906 Z M151.4375,50.9492188 L146.509766,50.9492188 C146.634766,51.2617203 146.856444,51.5136709 147.174805,51.7050781 C147.493166,51.8964853 147.923825,51.9921875 148.466797,51.9921875 C148.912112,51.9921875 149.503903,51.8964853 150.242188,51.7050781 C150.546877,51.6269527 150.757812,51.5878906 150.875,51.5878906 C151.035157,51.5878906 151.169921,51.6445307 151.279297,51.7578125 C151.388672,51.8710943 151.443359,52.013671 151.443359,52.1855469 C151.443359,52.3417977 151.384766,52.4746088 151.267578,52.5839844 C151.111327,52.7285163 150.730472,52.8662103 150.125,52.9970703 C149.519528,53.1279303 148.937503,53.1933594 148.378906,53.1933594 C147.417964,53.1933594 146.649417,52.9218777 146.073242,52.3789062 C145.497067,51.8359348 145.208984,51.1679727 145.208984,50.375 C145.208984,49.5312458 145.520505,48.8447292 146.143555,48.3154297 C146.766605,47.7861302 147.484371,47.5214844 148.296875,47.5214844 C148.785159,47.5214844 149.233396,47.607421 149.641602,47.7792969 C150.049807,47.9511727 150.353515,48.1367178 150.552734,48.3359375 C150.833986,48.6250014 151.066405,48.9824197 151.25,49.4082031 C151.375001,49.7050796 151.4375,50.0488262 151.4375,50.4394531 L151.4375,50.9492188 Z M150.107422,49.7480469 C149.923827,49.4042952 149.683595,49.1474618 149.386719,48.9775391 C149.089842,48.8076163 148.73633,48.7226562 148.326172,48.7226562 C147.91992,48.7226562 147.568361,48.8076163 147.271484,48.9775391 C146.974608,49.1474618 146.732423,49.4042952 146.544922,49.7480469 L150.107422,49.7480469 Z M156.921875,49.0859375 C156.726562,48.9648431 156.521485,48.8740237 156.306641,48.8134766 C156.091796,48.7529294 155.867189,48.7226562 155.632812,48.7226562 C155.167966,48.7226562 154.798829,48.7988274 154.525391,48.9511719 C154.404296,49.0175785 154.34375,49.0898434 154.34375,49.1679688 C154.34375,49.2578129 154.42578,49.3457027 154.589844,49.4316406 C154.714844,49.4941409 154.994138,49.5546872 155.427734,49.6132812 C156.224613,49.7226568 156.779295,49.8320307 157.091797,49.9414062 C157.501955,50.0859382 157.818358,50.3007798 158.041016,50.5859375 C158.263673,50.8710952 158.375,51.1718734 158.375,51.4882812 C158.375,51.9179709 158.185549,52.2773423 157.806641,52.5664062 C157.263669,52.9843771 156.558598,53.1933594 155.691406,53.1933594 C155.343748,53.1933594 155.022462,53.1630862 154.727539,53.1025391 C154.432616,53.0419919 154.162111,52.9531256 153.916016,52.8359375 C153.857422,52.886719 153.794922,52.9257811 153.728516,52.953125 C153.662109,52.9804689 153.59375,52.9941406 153.523438,52.9941406 C153.335937,52.9941406 153.186524,52.9326178 153.075195,52.8095703 C152.963867,52.6865228 152.908203,52.4804702 152.908203,52.1914062 L152.908203,51.7871094 C152.908203,51.4980454 152.963867,51.2919928 153.075195,51.1689453 C153.186524,51.0458978 153.33203,50.984375 153.511719,50.984375 C153.656251,50.984375 153.777343,51.0244137 153.875,51.1044922 C153.972657,51.1845707 154.048828,51.3222646 154.103516,51.5175781 C154.28711,51.6738289 154.507811,51.7919918 154.765625,51.8720703 C155.023439,51.9521488 155.320311,51.9921875 155.65625,51.9921875 C156.207034,51.9921875 156.634764,51.9062509 156.939453,51.734375 C157.083985,51.6484371 157.15625,51.5585942 157.15625,51.4648438 C157.15625,51.308593 157.052735,51.179688 156.845703,51.078125 C156.638671,50.976562 156.210941,50.8906254 155.5625,50.8203125 C154.597651,50.7187495 153.953127,50.5234389 153.628906,50.234375 C153.304686,49.9492173 153.142578,49.5976583 153.142578,49.1796875 C153.142578,48.7499979 153.324217,48.3925796 153.6875,48.1074219 C154.17969,47.7167949 154.824215,47.5214844 155.621094,47.5214844 C155.898439,47.5214844 156.165038,47.5478513 156.420898,47.6005859 C156.676759,47.6533206 156.921874,47.7343745 157.15625,47.84375 C157.230469,47.7890622 157.299804,47.748047 157.364258,47.7207031 C157.428711,47.6933592 157.488281,47.6796875 157.542969,47.6796875 C157.707032,47.6796875 157.843749,47.7412103 157.953125,47.8642578 C158.062501,47.9873053 158.117188,48.1933579 158.117188,48.4824219 L158.117188,48.7753906 C158.117188,49.0371107 158.085938,49.2148433 158.023438,49.3085938 C157.898437,49.4882821 157.728517,49.578125 157.513672,49.578125 C157.36914,49.578125 157.242188,49.5332036 157.132812,49.4433594 C157.023437,49.3535152 156.953125,49.2343757 156.921875,49.0859375 Z M165.400391,49.0507812 L160.267578,49.0507812 C159.978514,49.0507812 159.772462,48.9951177 159.649414,48.8837891 C159.526367,48.7724604 159.464844,48.626954 159.464844,48.4472656 C159.464844,48.2714835 159.526367,48.1279302 159.649414,48.0166016 C159.772462,47.9052729 159.978514,47.8496094 160.267578,47.8496094 L165.400391,47.8496094 C165.689455,47.8496094 165.895507,47.9052729 166.018555,48.0166016 C166.141602,48.1279302 166.203125,48.2734366 166.203125,48.453125 C166.203125,48.6289071 166.141602,48.7724604 166.018555,48.8837891 C165.895507,48.9951177 165.689455,49.0507812 165.400391,49.0507812 Z M165.400391,51.3125 L160.267578,51.3125 C159.978514,51.3125 159.772462,51.257813 159.649414,51.1484375 C159.526367,51.039062 159.464844,50.8945321 159.464844,50.7148438 C159.464844,50.5351554 159.526367,50.389649 159.649414,50.2783203 C159.772462,50.1669916 159.978514,50.1113281 160.267578,50.1113281 L165.400391,50.1113281 C165.689455,50.1113281 165.895507,50.1669916 166.018555,50.2783203 C166.141602,50.389649 166.203125,50.5351554 166.203125,50.7148438 C166.203125,50.8945321 166.141602,51.039062 166.018555,51.1484375 C165.895507,51.257813 165.689455,51.3125 165.400391,51.3125 Z M171.107422,53 L171.107422,52.71875 C170.806639,52.8789071 170.474611,52.999023 170.111328,53.0791016 C169.748045,53.1591801 169.41797,53.1992187 169.121094,53.1992187 C168.476559,53.1992187 167.953127,53.028322 167.550781,52.6865234 C167.148435,52.3447249 166.947266,51.9667989 166.947266,51.5527344 C166.947266,51.0488256 167.204099,50.5810568 167.717773,50.1494141 C168.231448,49.7177713 168.941402,49.5019531 169.847656,49.5019531 C170.210939,49.5019531 170.630857,49.5410152 171.107422,49.6191406 L171.107422,49.3320312 C171.107422,49.1523429 171.030274,49.0058599 170.875977,48.8925781 C170.721679,48.7792963 170.427737,48.7226562 169.994141,48.7226562 C169.63867,48.7226562 169.177737,48.792968 168.611328,48.9335938 C168.40039,48.9843753 168.236329,49.0097656 168.119141,49.0097656 C167.958984,49.0097656 167.823243,48.952149 167.711914,48.8369141 C167.600585,48.7216791 167.544922,48.5742196 167.544922,48.3945312 C167.544922,48.2929682 167.564453,48.2050785 167.603516,48.1308594 C167.642578,48.0566403 167.697265,47.9970705 167.767578,47.9521484 C167.837891,47.9072263 167.984374,47.8535159 168.207031,47.7910156 C168.503908,47.708984 168.806639,47.6435549 169.115234,47.5947266 C169.42383,47.5458982 169.703124,47.5214844 169.953125,47.5214844 C170.699222,47.5214844 171.278318,47.6826156 171.69043,48.0048828 C172.102541,48.32715 172.308594,48.7675753 172.308594,49.3261719 L172.308594,51.7988281 L172.513672,51.7988281 C172.802736,51.7988281 173.008788,51.8544916 173.131836,51.9658203 C173.254883,52.077149 173.316406,52.2226554 173.316406,52.4023437 C173.316406,52.5781259 173.254883,52.7216791 173.131836,52.8330078 C173.008788,52.9443365 172.802736,53 172.513672,53 L171.107422,53 Z M171.107422,50.8496094 C170.626951,50.7558589 170.183596,50.7089844 169.777344,50.7089844 C169.28906,50.7089844 168.869142,50.8281238 168.517578,51.0664062 C168.298827,51.2187508 168.189453,51.3730461 168.189453,51.5292969 C168.189453,51.6425787 168.242187,51.7343746 168.347656,51.8046875 C168.54297,51.9335944 168.810545,51.9980469 169.150391,51.9980469 C169.439455,51.9980469 169.7666,51.9414068 170.131836,51.828125 C170.497072,51.7148432 170.822264,51.5605479 171.107422,51.3652344 L171.107422,50.8496094 Z M179.779297,47.6796875 L179.779297,51.7988281 C180.033204,51.7988281 180.220703,51.8554682 180.341797,51.96875 C180.462891,52.0820318 180.523438,52.2265616 180.523438,52.4023438 C180.523438,52.5781259 180.461915,52.7216791 180.338867,52.8330078 C180.21582,52.9443365 180.009767,53 179.720703,53 L178.578125,53 L178.578125,52.7246094 C178.234373,52.8808602 177.906252,52.9980465 177.59375,53.0761719 C177.281248,53.1542973 176.984376,53.1933594 176.703125,53.1933594 C176.308592,53.1933594 175.966798,53.1103524 175.677734,52.9443359 C175.38867,52.7783195 175.160157,52.5488296 174.992188,52.2558594 C174.871093,52.0449208 174.810547,51.7812516 174.810547,51.4648438 L174.810547,48.8808594 L174.605469,48.8808594 C174.316405,48.8808594 174.110352,48.8251959 173.987305,48.7138672 C173.864257,48.6025385 173.802734,48.4570321 173.802734,48.2773438 C173.802734,48.1015616 173.864257,47.9580084 173.987305,47.8466797 C174.110352,47.735351 174.316405,47.6796875 174.605469,47.6796875 L176.011719,47.6796875 L176.011719,51.2539062 C176.011719,51.5078138 176.073242,51.6943353 176.196289,51.8134766 C176.319337,51.9326178 176.507811,51.9921875 176.761719,51.9921875 C177.003907,51.9921875 177.264647,51.9443364 177.543945,51.8486328 C177.823244,51.7529292 178.167967,51.5800794 178.578125,51.3300781 L178.578125,48.8808594 L178.144531,48.8808594 C177.855467,48.8808594 177.649415,48.8251959 177.526367,48.7138672 C177.40332,48.6025385 177.341797,48.4570321 177.341797,48.2773438 C177.341797,48.1015616 177.40332,47.9580084 177.526367,47.8466797 C177.649415,47.735351 177.855467,47.6796875 178.144531,47.6796875 L179.779297,47.6796875 Z M184.132813,48.8808594 L184.132813,51.2890625 C184.132813,51.5468763 184.185546,51.7167965 184.291016,51.7988281 C184.455079,51.927735 184.748045,51.9921875 185.169922,51.9921875 C185.783206,51.9921875 186.349607,51.8613294 186.869141,51.5996094 C187.06836,51.4980464 187.224609,51.4472656 187.337891,51.4472656 C187.494141,51.4472656 187.629882,51.5058588 187.745117,51.6230469 C187.860352,51.740235 187.917969,51.8828117 187.917969,52.0507812 C187.917969,52.207032 187.855469,52.3417963 187.730469,52.4550781 C187.539062,52.6386728 187.161136,52.8076164 186.59668,52.9619141 C186.032224,53.1162117 185.556643,53.1933594 185.169922,53.1933594 C184.423824,53.1933594 183.86426,53.0322282 183.491211,52.7099609 C183.118162,52.3876937 182.931641,51.9921898 182.931641,51.5234375 L182.931641,48.8808594 L182.498047,48.8808594 C182.208983,48.8808594 182.00293,48.8251959 181.879883,48.7138672 C181.756835,48.6025385 181.695313,48.4570321 181.695313,48.2773438 C181.695313,48.1015616 181.756835,47.9580084 181.879883,47.8466797 C182.00293,47.735351 182.208983,47.6796875 182.498047,47.6796875 L182.931641,47.6796875 L182.931641,46.5957031 C182.931641,46.3066392 182.987304,46.1005866 183.098633,45.9775391 C183.209961,45.8544916 183.355468,45.7929688 183.535156,45.7929688 C183.710938,45.7929688 183.854492,45.8544916 183.96582,45.9775391 C184.077149,46.1005866 184.132813,46.3066392 184.132813,46.5957031 L184.132813,47.6796875 L186.353516,47.6796875 C186.64258,47.6796875 186.848632,47.735351 186.97168,47.8466797 C187.094727,47.9580084 187.15625,48.1035147 187.15625,48.2832031 C187.15625,48.4589853 187.094727,48.6025385 186.97168,48.7138672 C186.848632,48.8251959 186.64258,48.8808594 186.353516,48.8808594 L184.132813,48.8808594 Z M190.390625,45.4003906 L190.390625,47.9609375 C190.640626,47.8124993 190.893553,47.7021488 191.149414,47.6298828 C191.405275,47.5576168 191.664061,47.5214844 191.925781,47.5214844 C192.339846,47.5214844 192.708983,47.5917962 193.033203,47.7324219 C193.357423,47.8730476 193.625975,48.094725 193.838867,48.3974609 C194.051759,48.7001968 194.158203,49.0820289 194.158203,49.5429688 L194.158203,51.7988281 C194.462892,51.7988281 194.662109,51.8281247 194.755859,51.8867188 C194.94336,52.0078131 195.037109,52.1796864 195.037109,52.4023438 C195.037109,52.5781259 194.976563,52.7216791 194.855469,52.8330078 C194.734374,52.9443365 194.529298,53 194.240234,53 L192.869141,53 C192.583983,53 192.379883,52.9443365 192.256836,52.8330078 C192.133788,52.7216791 192.072266,52.5761728 192.072266,52.3964844 C192.072266,52.1777333 192.166015,52.0078131 192.353516,51.8867188 C192.451172,51.8242184 192.650389,51.7949219 192.951172,51.7988281 L192.951172,49.625 C192.951172,49.3164047 192.88086,49.09961 192.740234,48.9746094 C192.55664,48.8066398 192.285158,48.7226562 191.925781,48.7226562 C191.660155,48.7226562 191.424806,48.7744135 191.219727,48.8779297 C191.014647,48.9814458 190.738283,49.2050764 190.390625,49.5488281 L190.390625,51.7988281 C190.69922,51.7988281 190.898437,51.8281247 190.988281,51.8867188 C191.179688,52.0078131 191.275391,52.1796864 191.275391,52.4023438 C191.275391,52.5781259 191.213868,52.7216791 191.09082,52.8330078 C190.967773,52.9443365 190.76172,53 190.472656,53 L189.107422,53 C188.818358,53 188.612305,52.9443365 188.489258,52.8330078 C188.36621,52.7216791 188.304688,52.5761728 188.304688,52.3964844 C188.304688,52.1777333 188.40039,52.0078131 188.591797,51.8867188 C188.685547,51.8242184 188.884764,51.7949219 189.189453,51.7988281 L189.189453,46.6015625 L188.984375,46.6015625 C188.695311,46.6015625 188.489258,46.545899 188.366211,46.4345703 C188.243163,46.3232416 188.181641,46.1777353 188.181641,45.9980469 C188.181641,45.8222647 188.243163,45.6787115 188.366211,45.5673828 C188.489258,45.4560541 188.695311,45.4003906 188.984375,45.4003906 L190.390625,45.4003906 Z" id="Auth-Service-telepor" fill="#4A4A4A" fill-rule="evenodd"></path>
                </g>
            </g>
            <path d="M141,383.5 L141,97.476122" id="Line-Copy-2" stroke="#9B9B9B" fill="#9B9B9B" stroke-linecap="square"></path>
            <path id="Line-Copy-2-decoration-1" d="M141,97.476122 L138,108.276122 L144,108.276122 L141,97.476122 Z" stroke="#9B9B9B" fill="#9B9B9B" stroke-linecap="square"></path>
            <path d="M78.794,329 L78.794,319.074 L77.884,319.074 C77.8186663,319.447335 77.6973342,319.755332 77.52,319.998 C77.3426658,320.240668 77.1256679,320.431999 76.869,320.572 C76.612332,320.712001 76.3253349,320.807666 76.008,320.859 C75.6906651,320.910334 75.3640017,320.936 75.028,320.936 L75.028,321.888 L77.604,321.888 L77.604,329 L78.794,329 Z M82.21,322.588 L83.4,322.588 C83.3906666,322.289332 83.4209996,321.993001 83.491,321.699 C83.5610004,321.404999 83.6753325,321.141334 83.834,320.908 C83.9926675,320.674666 84.1956654,320.485667 84.443,320.341 C84.6903346,320.196333 84.9866649,320.124 85.332,320.124 C85.5933346,320.124 85.8406655,320.166 86.074,320.25 C86.3073345,320.334 86.5103325,320.455333 86.683,320.614 C86.8556675,320.772667 86.9933328,320.961666 87.096,321.181 C87.1986672,321.400334 87.25,321.645332 87.25,321.916 C87.25,322.261335 87.1963339,322.564665 87.089,322.826 C86.9816661,323.087335 86.8230011,323.329999 86.613,323.554 C86.4029989,323.778001 86.1393349,323.999666 85.822,324.219 C85.5046651,324.438334 85.1360021,324.678665 84.716,324.94 C84.3706649,325.145334 84.0393349,325.364666 83.722,325.598 C83.4046651,325.831335 83.1200013,326.101998 82.868,326.41 C82.6159987,326.718002 82.4083342,327.079665 82.245,327.495 C82.0816658,327.910335 81.9766669,328.411997 81.93,329 L88.412,329 L88.412,327.95 L83.316,327.95 C83.3720003,327.641998 83.4909991,327.369001 83.673,327.131 C83.8550009,326.892999 84.074332,326.671334 84.331,326.466 C84.5876679,326.260666 84.8699985,326.067001 85.178,325.885 C85.4860015,325.702999 85.7939985,325.518668 86.102,325.332 C86.4100015,325.135999 86.7086652,324.930668 86.998,324.716 C87.2873348,324.501332 87.5439989,324.261001 87.768,323.995 C87.9920011,323.728999 88.171666,323.428002 88.307,323.092 C88.442334,322.755998 88.51,322.368669 88.51,321.93 C88.51,321.463331 88.4283341,321.052668 88.265,320.698 C88.1016658,320.343332 87.8800014,320.047001 87.6,319.809 C87.3199986,319.570999 86.9910019,319.389001 86.613,319.263 C86.2349981,319.136999 85.8313355,319.074 85.402,319.074 C84.8793307,319.074 84.4126687,319.162666 84.002,319.34 C83.5913313,319.517334 83.2483347,319.762332 82.973,320.075 C82.6976653,320.387668 82.4946673,320.758665 82.364,321.188 C82.2333327,321.617335 82.1819999,322.083997 82.21,322.588 Z M96.504,320.264 L96.504,319.242 L90.078,319.242 L90.078,320.362 L95.286,320.362 C94.7633307,320.912669 94.2756689,321.514663 93.823,322.168 C93.3703311,322.821337 92.9713351,323.51433 92.626,324.247 C92.2806649,324.97967 91.9983344,325.744996 91.779,326.543 C91.5596656,327.341004 91.4220003,328.159996 91.366,329 L92.696,329 C92.7426669,328.225329 92.8733323,327.427337 93.088,326.606 C93.3026677,325.784663 93.5803316,324.986671 93.921,324.212 C94.2616684,323.437329 94.6513311,322.709337 95.09,322.028 C95.5286689,321.346663 95.9999975,320.758669 96.504,320.264 Z M98.324,327.446 L98.324,329 L99.878,329 L99.878,327.446 L98.324,327.446 Z M102.902,324.114 C102.902,324.487335 102.913667,324.904998 102.937,325.367 C102.960333,325.829002 103.034999,326.262998 103.161,326.669 C103.287001,327.075002 103.489999,327.417999 103.77,327.698 C104.050001,327.978001 104.441997,328.118 104.946,328.118 C105.450003,328.118 105.841999,327.978001 106.122,327.698 C106.402001,327.417999 106.604999,327.075002 106.731,326.669 C106.857001,326.262998 106.931667,325.829002 106.955,325.367 C106.978333,324.904998 106.99,324.487335 106.99,324.114 C106.99,323.871332 106.987667,323.603001 106.983,323.309 C106.978333,323.014999 106.955,322.721001 106.913,322.427 C106.871,322.132999 106.810334,321.846001 106.731,321.566 C106.651666,321.285999 106.535001,321.041001 106.381,320.831 C106.226999,320.620999 106.033334,320.450667 105.8,320.32 C105.566665,320.189333 105.282002,320.124 104.946,320.124 C104.609998,320.124 104.325334,320.189333 104.092,320.32 C103.858666,320.450667 103.665001,320.620999 103.511,320.831 C103.356999,321.041001 103.240334,321.285999 103.161,321.566 C103.081666,321.846001 103.021,322.132999 102.979,322.427 C102.937,322.721001 102.913667,323.014999 102.909,323.309 C102.904333,323.603001 102.902,323.871332 102.902,324.114 Z M101.642,324.128 C101.642,323.763998 101.651333,323.386002 101.67,322.994 C101.688667,322.601998 101.735333,322.219335 101.81,321.846 C101.884667,321.472665 101.991999,321.118002 102.132,320.782 C102.272001,320.445998 102.463332,320.152001 102.706,319.9 C102.948668,319.647999 103.254331,319.447334 103.623,319.298 C103.991669,319.148666 104.432664,319.074 104.946,319.074 C105.459336,319.074 105.900331,319.148666 106.269,319.298 C106.637669,319.447334 106.943332,319.647999 107.186,319.9 C107.428668,320.152001 107.619999,320.445998 107.76,320.782 C107.900001,321.118002 108.007333,321.472665 108.082,321.846 C108.156667,322.219335 108.203333,322.601998 108.222,322.994 C108.240667,323.386002 108.25,323.763998 108.25,324.128 C108.25,324.492002 108.240667,324.869998 108.222,325.262 C108.203333,325.654002 108.156667,326.036665 108.082,326.41 C108.007333,326.783335 107.900001,327.135665 107.76,327.467 C107.619999,327.798335 107.428668,328.089999 107.186,328.342 C106.943332,328.594001 106.640002,328.792333 106.276,328.937 C105.911998,329.081667 105.468669,329.154 104.946,329.154 C104.432664,329.154 103.991669,329.081667 103.623,328.937 C103.254331,328.792333 102.948668,328.594001 102.706,328.342 C102.463332,328.089999 102.272001,327.798335 102.132,327.467 C101.991999,327.135665 101.884667,326.783335 101.81,326.41 C101.735333,326.036665 101.688667,325.654002 101.67,325.262 C101.651333,324.869998 101.642,324.492002 101.642,324.128 Z M110,327.446 L110,329 L111.554,329 L111.554,327.446 L110,327.446 Z M114.578,324.114 C114.578,324.487335 114.589667,324.904998 114.613,325.367 C114.636333,325.829002 114.710999,326.262998 114.837,326.669 C114.963001,327.075002 115.165999,327.417999 115.446,327.698 C115.726001,327.978001 116.117997,328.118 116.622,328.118 C117.126003,328.118 117.517999,327.978001 117.798,327.698 C118.078001,327.417999 118.280999,327.075002 118.407,326.669 C118.533001,326.262998 118.607667,325.829002 118.631,325.367 C118.654333,324.904998 118.666,324.487335 118.666,324.114 C118.666,323.871332 118.663667,323.603001 118.659,323.309 C118.654333,323.014999 118.631,322.721001 118.589,322.427 C118.547,322.132999 118.486334,321.846001 118.407,321.566 C118.327666,321.285999 118.211001,321.041001 118.057,320.831 C117.902999,320.620999 117.709334,320.450667 117.476,320.32 C117.242665,320.189333 116.958002,320.124 116.622,320.124 C116.285998,320.124 116.001334,320.189333 115.768,320.32 C115.534665,320.450667 115.341001,320.620999 115.187,320.831 C115.032999,321.041001 114.916334,321.285999 114.837,321.566 C114.757666,321.846001 114.697,322.132999 114.655,322.427 C114.613,322.721001 114.589667,323.014999 114.585,323.309 C114.580333,323.603001 114.578,323.871332 114.578,324.114 Z M113.318,324.128 C113.318,323.763998 113.327333,323.386002 113.346,322.994 C113.364667,322.601998 113.411333,322.219335 113.486,321.846 C113.560667,321.472665 113.667999,321.118002 113.808,320.782 C113.948001,320.445998 114.139332,320.152001 114.382,319.9 C114.624668,319.647999 114.930331,319.447334 115.299,319.298 C115.667669,319.148666 116.108664,319.074 116.622,319.074 C117.135336,319.074 117.576331,319.148666 117.945,319.298 C118.313669,319.447334 118.619332,319.647999 118.862,319.9 C119.104668,320.152001 119.295999,320.445998 119.436,320.782 C119.576001,321.118002 119.683333,321.472665 119.758,321.846 C119.832667,322.219335 119.879333,322.601998 119.898,322.994 C119.916667,323.386002 119.926,323.763998 119.926,324.128 C119.926,324.492002 119.916667,324.869998 119.898,325.262 C119.879333,325.654002 119.832667,326.036665 119.758,326.41 C119.683333,326.783335 119.576001,327.135665 119.436,327.467 C119.295999,327.798335 119.104668,328.089999 118.862,328.342 C118.619332,328.594001 118.316002,328.792333 117.952,328.937 C117.587998,329.081667 117.144669,329.154 116.622,329.154 C116.108664,329.154 115.667669,329.081667 115.299,328.937 C114.930331,328.792333 114.624668,328.594001 114.382,328.342 C114.139332,328.089999 113.948001,327.798335 113.808,327.467 C113.667999,327.135665 113.560667,326.783335 113.486,326.41 C113.411333,326.036665 113.364667,325.654002 113.346,325.262 C113.327333,324.869998 113.318,324.492002 113.318,324.128 Z M121.676,327.446 L121.676,329 L123.23,329 L123.23,327.446 L121.676,327.446 Z M129.39,329 L129.39,319.074 L128.48,319.074 C128.414666,319.447335 128.293334,319.755332 128.116,319.998 C127.938666,320.240668 127.721668,320.431999 127.465,320.572 C127.208332,320.712001 126.921335,320.807666 126.604,320.859 C126.286665,320.910334 125.960002,320.936 125.624,320.936 L125.624,321.888 L128.2,321.888 L128.2,329 L129.39,329 Z" id="127.0.0.1" fill="#696868"></path>
            <path d="M81.5,97.5 L81.5,192.5" id="Line" stroke="#979797" stroke-linecap="square" stroke-dasharray="7,7,7,7"></path>
            <path d="M201.5,97.5 L201.5,200.5" id="Line-Copy" stroke="#979797" stroke-linecap="square" stroke-dasharray="7,7,7,7"></path>
            <path d="M190.238,229.432 L191.738,229.432 L191.738,233.332 L195.554,229.432 L197.402,229.432 L193.982,232.852 L197.642,238 L195.77,238 L192.962,233.908 L191.738,235.12 L191.738,238 L190.238,238 L190.238,229.432 Z M202.526,234.352 C202.51,234.135999 202.464,233.928001 202.388,233.728 C202.312,233.527999 202.208001,233.354001 202.076,233.206 C201.943999,233.057999 201.784001,232.938 201.596,232.846 C201.407999,232.754 201.198001,232.708 200.966,232.708 C200.725999,232.708 200.508001,232.75 200.312,232.834 C200.115999,232.918 199.948001,233.033999 199.808,233.182 C199.667999,233.330001 199.556,233.503999 199.472,233.704 C199.388,233.904001 199.342,234.119999 199.334,234.352 L202.526,234.352 Z M199.334,235.252 C199.334,235.492001 199.368,235.723999 199.436,235.948 C199.504,236.172001 199.605999,236.367999 199.742,236.536 C199.878001,236.704001 200.049999,236.837999 200.258,236.938 C200.466001,237.038001 200.713999,237.088 201.002,237.088 C201.402002,237.088 201.723999,237.002001 201.968,236.83 C202.212001,236.657999 202.393999,236.400002 202.514,236.056 L203.81,236.056 C203.738,236.392002 203.614001,236.691999 203.438,236.956 C203.261999,237.220001 203.050001,237.441999 202.802,237.622 C202.553999,237.802001 202.276002,237.938 201.968,238.03 C201.659998,238.122 201.338002,238.168 201.002,238.168 C200.513998,238.168 200.082002,238.088001 199.706,237.928 C199.329998,237.767999 199.012001,237.544001 198.752,237.256 C198.491999,236.967999 198.296001,236.624002 198.164,236.224 C198.031999,235.823998 197.966,235.384002 197.966,234.904 C197.966,234.463998 198.035999,234.046002 198.176,233.65 C198.316001,233.253998 198.515999,232.906002 198.776,232.606 C199.036001,232.305998 199.349998,232.068001 199.718,231.892 C200.086002,231.715999 200.501998,231.628 200.966,231.628 C201.454002,231.628 201.891998,231.729999 202.28,231.934 C202.668002,232.138001 202.989999,232.407998 203.246,232.744 C203.502001,233.080002 203.687999,233.465998 203.804,233.902 C203.920001,234.338002 203.95,234.787998 203.894,235.252 L199.334,235.252 Z M204.254,231.796 L205.754,231.796 L207.374,236.428 L207.398,236.428 L208.97,231.796 L210.398,231.796 L207.986,238.336 C207.873999,238.616001 207.764001,238.883999 207.656,239.14 C207.547999,239.396001 207.416001,239.621999 207.26,239.818 C207.103999,240.014001 206.910001,240.169999 206.678,240.286 C206.445999,240.402001 206.150002,240.46 205.79,240.46 C205.469998,240.46 205.154002,240.436 204.842,240.388 L204.842,239.236 C204.954001,239.252 205.061999,239.27 205.166,239.29 C205.270001,239.31 205.377999,239.32 205.49,239.32 C205.650001,239.32 205.781999,239.3 205.886,239.26 C205.990001,239.22 206.076,239.162 206.144,239.086 C206.212,239.01 206.27,238.920001 206.318,238.816 C206.366,238.711999 206.41,238.592001 206.45,238.456 L206.606,237.976 L204.254,231.796 Z M212.198,236.008 C212.238,236.408002 212.389999,236.687999 212.654,236.848 C212.918001,237.008001 213.233998,237.088 213.602,237.088 C213.730001,237.088 213.875999,237.078 214.04,237.058 C214.204001,237.038 214.357999,237 214.502,236.944 C214.646001,236.888 214.764,236.806001 214.856,236.698 C214.948,236.589999 214.99,236.448001 214.982,236.272 C214.974,236.095999 214.910001,235.952001 214.79,235.84 C214.669999,235.727999 214.516001,235.638 214.328,235.57 C214.139999,235.502 213.926001,235.444 213.686,235.396 C213.445999,235.348 213.202001,235.296 212.954,235.24 C212.697999,235.184 212.452001,235.116 212.216,235.036 C211.979999,234.956 211.768001,234.848001 211.58,234.712 C211.391999,234.575999 211.242001,234.402001 211.13,234.19 C211.017999,233.977999 210.962,233.716002 210.962,233.404 C210.962,233.067998 211.043999,232.786001 211.208,232.558 C211.372001,232.329999 211.579999,232.146001 211.832,232.006 C212.084001,231.865999 212.363998,231.768 212.672,231.712 C212.980002,231.656 213.273999,231.628 213.554,231.628 C213.874002,231.628 214.179999,231.662 214.472,231.73 C214.764001,231.798 215.027999,231.907999 215.264,232.06 C215.500001,232.212001 215.695999,232.409999 215.852,232.654 C216.008001,232.898001 216.106,233.191998 216.146,233.536 L214.718,233.536 C214.654,233.207998 214.504001,232.988001 214.268,232.876 C214.031999,232.763999 213.762002,232.708 213.458,232.708 C213.362,232.708 213.248001,232.716 213.116,232.732 C212.983999,232.748 212.860001,232.778 212.744,232.822 C212.627999,232.866 212.53,232.93 212.45,233.014 C212.37,233.098 212.33,233.207999 212.33,233.344 C212.33,233.512001 212.387999,233.647999 212.504,233.752 C212.620001,233.856001 212.771999,233.942 212.96,234.01 C213.148001,234.078 213.361999,234.136 213.602,234.184 C213.842001,234.232 214.089999,234.284 214.346,234.34 C214.594001,234.396 214.837999,234.464 215.078,234.544 C215.318001,234.624 215.531999,234.731999 215.72,234.868 C215.908001,235.004001 216.059999,235.175999 216.176,235.384 C216.292001,235.592001 216.35,235.847998 216.35,236.152 C216.35,236.520002 216.266001,236.831999 216.098,237.088 C215.929999,237.344001 215.712001,237.551999 215.444,237.712 C215.175999,237.872001 214.878002,237.988 214.55,238.06 C214.221998,238.132 213.898002,238.168 213.578,238.168 C213.185998,238.168 212.824002,238.124 212.492,238.036 C212.159998,237.948 211.872001,237.814001 211.628,237.634 C211.383999,237.453999 211.192001,237.230001 211.052,236.962 C210.911999,236.693999 210.838,236.376002 210.83,236.008 L212.198,236.008 Z" id="Keys" fill="#4A4A4A"></path>
            <g id="Group" transform="translate(64.000000, 181.000000)">
                <g id="Group-2-Copy-4">
                    <path d="M0,12.5925926 C0,13.3698822 7.83501688,14 17.5,14 C27.1649831,14 35,13.3698822 35,12.5925926 L35,1.33333333 L0,1.33333333 L0,12.5925926 Z" id="Combined-Shape" fill="#B8E986"></path>
                    <ellipse id="Oval-2" fill="#DFFFBF" cx="17.5" cy="1.33333333" rx="17.5" ry="1.33333333"></ellipse>
                </g>
                <g id="Group-2-Copy-5" transform="translate(0.000000, 14.000000)">
                    <path d="M0,11.6277778 C0,12.3856352 7.83501688,13 17.5,13 C27.1649831,13 35,12.3856352 35,11.6277778 L35,0.65 L0,0.65 L0,11.6277778 Z" id="Combined-Shape" fill="#B8E986"></path>
                    <ellipse id="Oval-2" fill="#DFFFBF" cx="17.5" cy="0.975" rx="17.5" ry="1"></ellipse>
                </g>
                <g id="Group-2-Copy-6" transform="translate(0.000000, 27.000000)">
                    <path d="M0,12.5925926 C0,13.3698822 7.83501688,14 17.5,14 C27.1649831,14 35,13.3698822 35,12.5925926 L35,1.33333333 L0,1.33333333 L0,12.5925926 Z" id="Combined-Shape" fill="#B8E986"></path>
                    <ellipse id="Oval-2" fill="#DFFFBF" cx="17.5" cy="1.33333333" rx="17.5" ry="1.33333333"></ellipse>
                </g>
            </g>
            <g id="key" transform="translate(169.000000, 192.000000)">
                <g id="Group-2">
                    <circle id="Oval" fill="#9B9B9B" cx="12" cy="12" r="12"></circle>
                    <circle id="Oval" fill="#FFFFFF" cx="12" cy="12" r="7"></circle>
                </g>
                <rect id="Rectangle-22" fill="#9B9B9B" x="23" y="9" width="35" height="7"></rect>
                <rect id="Rectangle-23" fill="#9B9B9B" x="47" y="16" width="7" height="7"></rect>
            </g>
        </g>
    </g>
</svg>