<svg width="900" height="277" fill="none" xmlns="http://www.w3.org/2000/svg"><path d="M411.828 63.797a5.733 5.733 0 0 1 5.735-5.734h461.649a5.735 5.735 0 0 1 5.734 5.734v191.649a5.735 5.735 0 0 1-5.734 5.735H417.563a5.732 5.732 0 0 1-5.735-5.735V63.797Z" fill="#fff"/><path fill-rule="evenodd" clip-rule="evenodd" d="M417.563 58.78a5.017 5.017 0 0 0-5.018 5.018v191.648a5.017 5.017 0 0 0 5.018 5.018h461.649a5.017 5.017 0 0 0 5.018-5.018V63.798a5.019 5.019 0 0 0-5.018-5.018H417.563Zm-4.562.456a6.452 6.452 0 0 1 4.562-1.89h461.649a6.452 6.452 0 0 1 6.451 6.452v191.648a6.451 6.451 0 0 1-6.451 6.452H417.563a6.452 6.452 0 0 1-6.452-6.452V63.798c0-1.712.68-3.352 1.89-4.562Z" fill="#0089D6"/><path d="M666.397 32.803c-.736.903-1.781 1.47-3.387 1.452-2.239-.026-3.568-1.175-4.188-2.852-.425-1.148-.425-2.73.039-3.845.697-1.684 2.129-2.807 4.439-2.839 1.419-.02 2.419.51 3.148 1.213l-.58.806c-.104.207-.439.252-.658.078a2.804 2.804 0 0 0-1.923-.62c-1.961.071-3 1.297-3 3.29 0 1.556.652 2.588 1.723 3.078.806.374 2.129.252 2.735-.155.271-.11.626-.716.968-.348M669.442 32.719h3.735v1.432h-5.471v-9.329h1.736v7.897ZM682.467 27.584c.458 1.135.458 2.67 0 3.806-.684 1.684-2.084 2.864-4.38 2.864-2.297 0-3.716-1.187-4.394-2.864-.458-1.136-.458-2.671 0-3.806.684-1.684 2.09-2.865 4.394-2.865 2.29 0 3.696 1.187 4.38 2.864Zm-4.38 5.187c1.98 0 2.942-1.278 2.942-3.284 0-2.007-.962-3.29-2.942-3.29-1.987 0-2.962 1.277-2.962 3.29s.981 3.284 2.962 3.284ZM685.803 30.403c.039 1.432.703 2.348 2.129 2.348 1.419 0 2.135-.903 2.135-2.342v-5.587h1.736v5.587c-.032 1.846-.91 3.007-2.258 3.562-.916.38-2.31.38-3.226 0-1.355-.555-2.252-1.716-2.252-3.562v-5.587h1.736v5.58ZM701.513 27.603c.458 1.11.458 2.658 0 3.768-.684 1.658-2.097 2.78-4.38 2.78h-3.562v-9.329h3.562c2.277.039 3.703 1.13 4.38 2.78Zm-4.38 5.168c1.98-.058 2.948-1.278 2.948-3.284 0-2.007-.968-3.226-2.948-3.284h-1.813v6.568h1.813Z" fill="#324148"/><path d="M600.953 34.027c2.867-.516 5.197-.932 5.255-.932l.071-.014-2.752-3.197a152.223 152.223 0 0 0-2.689-3.226l2.796-7.7c0-.013 1.921 3.255 4.609 7.915 2.509 4.373 4.588 7.957 4.588 8l.072.072h-17.147l5.197-.918Zm32.846-.774c-1.312-.086-2.079-.825-2.265-2.222-.072-.373-.072-.373-.072-2.782v-2.322h1.154v2.25c0 2.036 0 2.259.05 2.41.058.573.237.967.481 1.24.236.214.473.358.831.43.122.035.602.035.789 0 .358-.087.587-.237.824-.48.301-.273.538-.69.602-1.134l.05-.157V25.97h1.19v7.11h-1.19V31.949s-.057.05-.057.1c-.251.38-.545.717-.903.918-.48.237-.896.323-1.506.287h.022Zm13.19-.015a3.253 3.253 0 0 1-1.305-.43c-.838-.516-1.312-1.376-1.491-2.544-.071-.395-.071-.947 0-1.29.115-.775.416-1.535.832-2.065.129-.144.358-.402.487-.502a3.531 3.531 0 0 1 1.312-.61c.251-.071.717-.085 1.025-.071a2.846 2.846 0 0 1 1.85.953c.43.53.666 1.305.716 2.237v.874h-5.068v.122c0 .316.122.717.237 1.061.122.273.358.574.538.739.358.315.788.501 1.261.559.179.014.66 0 .839-.036.595-.086 1.133-.33 1.613-.645 0-.043.057-.072.057-.093.072 0 .072.1.072.53v.53l-.129.072c-.538.308-1.075.516-1.735.588-.179.029-.832.029-1.075.014l-.036.007Zm2.222-4.516c0-.573-.244-1.218-.602-1.54a1.51 1.51 0 0 0-.824-.431c-.18-.036-.538-.014-.717.021-.359.072-.66.237-.961.502-.287.273-.466.617-.588.99-.057.143-.121.358-.121.501l-.051.05h3.886l-.022-.093Zm-34.222 4.344c0-.014.846-2.272 1.921-5.003l1.85-4.99h1.254l.072.115c.114.416 3.756 9.878 3.756 9.878 0 .015-.237.015-.595.015h-.645l-.545-1.405-.538-1.398h-4.243v.043c0 .021-.244.66-.481 1.398l-.53 1.362h-.595c-.538 0-.66 0-.66-.015h-.021Zm6.165-3.856s-.359-.96-.846-2.13c-.774-2.186-.832-2.322-.889-2.666 0-.165-.072-.165-.072-.014 0 .107-.05.344-.107.487 0 .05-.359 1.047-.789 2.222a119.49 119.49 0 0 1-.767 2.094c0 .014.774.014 1.735.014h1.72l.015-.007Zm3.097 3.684v-.172l2.093-2.91 2.15-2.903h-3.821v-.997h5.499v.344l-2.079 2.925c-1.204 1.599-2.151 2.903-2.151 2.925h4.172v.975h-5.863v-.187Zm15.469.172v-7.132h1.133v.738c0 .416 0 .738.071.738 0 0 0-.071.051-.143.121-.373.358-.717.595-.99.301-.257.602-.393.96-.465.057-.014.179-.014.359-.014.236.014.358.035.537.086l.058.014v1.183l-.18-.072c-.243-.122-.48-.143-.717-.143-.179 0-.358.021-.48.093-.287.1-.537.308-.717.588-.236.394-.415.91-.473 1.39 0 .086 0 .775-.071 2.137v2.007h-.531c-.287 0-.595 0-.595-.015Zm-49.032-.014s1.254-2.222 2.81-4.903l2.81-4.89 3.34-2.752c1.793-1.534 3.284-2.767 3.284-2.767s-.058.05-.058.144c-.057.057-1.67 3.498-3.584 7.648l-3.513 7.527h-5.096l.007-.007Z" fill="#0089D6"/><g filter="url(#a)"><path d="M15.054 105.375a4.303 4.303 0 0 1 4.3-4.302h83.155a4.302 4.302 0 0 1 4.301 4.302v83.154a4.3 4.3 0 0 1-4.301 4.301H19.355a4.3 4.3 0 0 1-4.301-4.301v-83.154Z" fill="#fff"/></g><g filter="url(#b)"><path fill-rule="evenodd" clip-rule="evenodd" d="M19.355 101.79a3.585 3.585 0 0 0-3.584 3.585v83.154a3.584 3.584 0 0 0 3.584 3.584h83.154a3.583 3.583 0 0 0 3.584-3.584v-83.154a3.581 3.581 0 0 0-3.584-3.585H19.355Zm-3.548.036a5.018 5.018 0 0 1 3.548-1.469h83.154a5.017 5.017 0 0 1 5.018 5.018v83.154a5.018 5.018 0 0 1-5.018 5.018H19.355a5.019 5.019 0 0 1-5.018-5.018v-83.154a5.02 5.02 0 0 1 1.47-3.549Z" fill="#BECACF"/></g><path d="M44.17 211.266c.038 1.414.695 2.319 2.103 2.319 1.402 0 2.109-.892 2.109-2.313v-5.518h1.714v5.518c-.032 1.822-.898 2.969-2.23 3.517-.905.376-2.281.376-3.186 0-1.338-.548-2.224-1.695-2.224-3.517v-5.518h1.714v5.512ZM54.218 213.668c.93 0 1.568-.446 1.536-1.345-.038-1.115-1.243-1.178-2.122-1.478-1.166-.401-2.16-.975-2.122-2.549.032-1.268.765-2.032 1.733-2.421.803-.325 1.982-.28 2.785.032.459.172.847.408 1.172.714l-.42.809c-.096.255-.408.325-.67.159-.407-.261-.866-.554-1.567-.542-.84.02-1.427.345-1.427 1.16 0 1.064 1.287 1.122 2.128 1.447 1.102.426 2.122.917 2.122 2.427 0 1.447-.765 2.32-1.841 2.759-.88.357-2.25.249-3.046-.102-.51-.223-.981-.509-1.338-.879l.497-.822c.146-.217.471-.274.732-.083.466.344 1 .714 1.848.714ZM64.49 205.754v1.364h-4.084v2.555h3.217v1.319h-3.217v2.606h4.084v1.37h-5.811v-9.214h5.81ZM72.391 208.405c0 1.478-.873 2.243-2.032 2.631.216.121.401.3.56.529l2.307 3.403h-1.542a.705.705 0 0 1-.643-.344l-1.938-2.951c-.152-.216-.267-.305-.624-.305h-.733v3.6h-1.714v-9.214h2.81c2.065.025 3.55.669 3.55 2.651Zm-1.675.127c0-1.039-.727-1.459-1.874-1.453h-1.096v3.059h1.07c1.148-.019 1.9-.491 1.9-1.606ZM76.699 213.668c.93 0 1.567-.446 1.535-1.345-.038-1.115-1.242-1.178-2.121-1.478-1.166-.401-2.16-.975-2.122-2.549.031-1.268.764-2.032 1.733-2.421.803-.325 1.981-.28 2.784.032.46.172.848.408 1.173.714l-.42.809c-.096.255-.408.325-.67.159-.408-.261-.866-.554-1.567-.542-.841.02-1.428.345-1.428 1.16 0 1.064 1.287 1.122 2.129 1.447 1.102.426 2.122.917 2.122 2.427 0 1.447-.765 2.32-1.842 2.759-.88.357-2.25.249-3.046-.102-.51-.223-.981-.509-1.338-.879l.497-.822c.147-.217.472-.274.733-.083.465.344 1 .714 1.848.714ZM80.3 134.299c0 5.879-4.802 10.66-10.659 10.66a10.643 10.643 0 0 1-10.66-10.66c0-5.878 4.732-10.666 10.66-10.666 5.864 0 10.66 4.781 10.66 10.666Zm-24.888 7.097c0 3.943-3.197 7.119-7.097 7.119-3.943 0-7.133-3.183-7.133-7.097 0-3.943 3.197-7.119 7.14-7.119 3.9 0 7.097 3.183 7.097 7.097h-.007Zm-21.32 20.602c0-5.469 4.474-9.928 9.965-9.928h8.53c5.484 0 9.907 4.445 9.907 9.921 0 1.391-1.118 2.495-2.451 2.495H36.602a2.49 2.49 0 0 1-2.51-2.495v.007Z" fill="#697986"/><path d="M55.727 150.679a11.62 11.62 0 0 1 8.581 11.24c0 .932-.308 1.836-.846 2.581h20.731a3.2 3.2 0 0 0 3.198-3.197 12.769 12.769 0 0 0-12.789-12.789h-11.72c-2.653 0-5.111.789-7.14 2.165h-.014Z" fill="#697986"/><g filter="url(#c)"><path d="M252.258 105.375a4.301 4.301 0 0 1 4.301-4.302h83.154a4.302 4.302 0 0 1 4.301 4.302v83.154a4.3 4.3 0 0 1-4.301 4.301h-83.154a4.3 4.3 0 0 1-4.301-4.301v-83.154Z" fill="#fff"/></g><g filter="url(#d)"><path fill-rule="evenodd" clip-rule="evenodd" d="M256.559 101.79a3.583 3.583 0 0 0-3.584 3.585v83.154a3.58 3.58 0 0 0 3.584 3.584h83.154a3.583 3.583 0 0 0 3.584-3.584v-83.154a3.581 3.581 0 0 0-3.584-3.585h-83.154Zm-3.548.036a5.017 5.017 0 0 1 3.548-1.469h83.154a5.017 5.017 0 0 1 5.018 5.018v83.154a5.018 5.018 0 0 1-5.018 5.018h-83.154a5.018 5.018 0 0 1-5.018-5.018v-83.154a5.02 5.02 0 0 1 1.47-3.549Z" fill="#512FC9" fill-opacity=".2"/></g><path d="M255.665 204.798v1.408h-2.772v7.806h-1.714v-7.806h-2.784v-1.408h7.27ZM262.566 204.798v1.364h-4.084v2.555h3.218v1.319h-3.218v2.606h4.084v1.37h-5.811v-9.214h5.811ZM265.765 212.597h3.689v1.415h-5.403v-9.214h1.714v7.799ZM276.45 204.798v1.364h-4.085v2.555h3.218v1.319h-3.218v2.606h4.085v1.37h-5.811v-9.214h5.811ZM284.568 207.736c0 2.096-1.415 3.001-3.575 3.033h-1.287v3.243h-1.714v-9.214h3.001c2.148.026 3.575.854 3.575 2.938Zm-1.714 0c0-1.122-.714-1.613-1.861-1.613h-1.287v3.308h1.287c1.173-.007 1.861-.542 1.861-1.695ZM294.4 207.525c.452 1.122.452 2.638 0 3.76-.676 1.663-2.058 2.829-4.327 2.829-2.268 0-3.67-1.173-4.339-2.829-.453-1.122-.453-2.638 0-3.76.675-1.663 2.064-2.829 4.339-2.829 2.262 0 3.651 1.172 4.327 2.829Zm-4.327 5.123c1.956 0 2.906-1.261 2.906-3.243s-.95-3.25-2.906-3.25c-1.962 0-2.925 1.262-2.925 3.25s.969 3.243 2.925 3.243ZM302.506 207.449c0 1.478-.873 2.243-2.033 2.631.217.122.401.3.561.529l2.306 3.403h-1.542a.704.704 0 0 1-.643-.344l-1.937-2.95c-.153-.217-.268-.306-.625-.306h-.732v3.6h-1.715v-9.214h2.811c2.064.026 3.549.669 3.549 2.651Zm-1.676.127c0-1.038-.727-1.459-1.873-1.453h-1.096v3.059h1.07c1.147-.019 1.899-.491 1.899-1.606ZM310.572 204.798v1.408H307.8v7.806h-1.714v-7.806h-2.784v-1.408h7.27ZM322.219 214.012h-1.325a.585.585 0 0 1-.573-.389l-.689-1.879h-3.816l-.689 1.879a.627.627 0 0 1-.567.389h-1.331l3.619-9.214h1.752l3.619 9.214Zm-5.964-3.479h2.938c-.491-1.389-1.039-2.702-1.472-4.148-.421 1.465-.982 2.752-1.466 4.148ZM324.444 210.31c.038 1.414.694 2.319 2.102 2.319 1.402 0 2.109-.892 2.109-2.313v-5.518h1.714v5.518c-.031 1.823-.898 2.97-2.23 3.518-.905.375-2.281.375-3.186 0-1.338-.548-2.224-1.695-2.224-3.518v-5.518h1.715v5.512ZM338.608 204.798v1.408h-2.772v7.806h-1.714v-7.806h-2.784v-1.408h7.27ZM347.471 214.012h-1.727v-4.027h-4.32v4.027h-1.727v-9.214h1.727v3.963h4.32v-3.963h1.727v9.214ZM243.602 229.305h-1.325a.588.588 0 0 1-.574-.389l-.688-1.88h-3.817l-.688 1.88a.627.627 0 0 1-.567.389h-1.332l3.62-9.214h1.752l3.619 9.214Zm-5.964-3.479h2.937c-.49-1.39-1.038-2.702-1.471-4.149-.421 1.466-.982 2.753-1.466 4.149ZM246.024 222.875c.025.242.038.523.038.771v5.659h-1.51v-9.214c.452.038 1.108-.153 1.344.127 1.714 2.039 3.307 4.212 4.964 6.308a7.126 7.126 0 0 1-.045-.834v-5.601h1.511v9.214c-.408-.026-.918.063-1.224-.064a.71.71 0 0 1-.261-.23M262.029 222.837c.453 1.096.453 2.625 0 3.721-.675 1.638-2.07 2.747-4.326 2.747h-3.517v-9.214h3.517c2.249.038 3.657 1.115 4.326 2.746Zm-4.326 5.104c1.956-.057 2.912-1.262 2.912-3.243 0-1.982-.956-3.186-2.912-3.244h-1.791v6.487h1.791ZM272.805 223.028c0 2.097-1.414 3.001-3.574 3.033h-1.287v3.244h-1.715v-9.214h3.002c2.147.025 3.574.854 3.574 2.937Zm-1.714 0c0-1.121-.713-1.612-1.86-1.612h-1.287v3.307h1.287c1.172-.006 1.86-.541 1.86-1.695ZM280.554 222.742c0 1.478-.873 2.242-2.033 2.631.217.121.401.3.561.529l2.306 3.403h-1.542a.706.706 0 0 1-.643-.344l-1.937-2.951c-.153-.216-.268-.305-.625-.305h-.733v3.6h-1.714v-9.214h2.81c2.065.025 3.55.669 3.55 2.651Zm-1.676.127c0-1.039-.727-1.459-1.874-1.453h-1.096v3.059h1.071c1.147-.019 1.899-.491 1.899-1.606ZM290.679 222.818c.452 1.121.452 2.638 0 3.759-.675 1.663-2.058 2.83-4.327 2.83-2.268 0-3.67-1.173-4.339-2.83-.452-1.121-.452-2.638 0-3.759.676-1.663 2.065-2.829 4.339-2.829 2.262 0 3.652 1.172 4.327 2.829Zm-4.327 5.123c1.957 0 2.906-1.262 2.906-3.243 0-1.982-.949-3.25-2.906-3.25-1.962 0-2.924 1.262-2.924 3.25s.968 3.243 2.924 3.243ZM294.387 224.564l-2.937-4.473h1.707c.243 0 .306.057.402.204l2.096 3.383c.045-.121.096-.223.16-.325l1.917-3.026c.096-.16.217-.236.364-.236h1.644l-2.97 4.403 3.052 4.811h-1.714c-.235.006-.363-.147-.452-.293l-2.135-3.53a1.62 1.62 0 0 1-.121.267l-2.045 3.263c-.089.127-.21.299-.427.293h-1.606M304.927 225.724v3.581h-1.714v-3.581l-3.359-5.633h1.511c.318 0 .458.172.573.382.65 1.198 1.338 2.358 1.944 3.594.076.159.14.325.197.484.128-.357.255-.669.44-1l1.676-3.078c.095-.178.28-.382.567-.382h1.516M314.006 228.005c.931 0 1.568-.446 1.536-1.345-.038-1.115-1.243-1.178-2.122-1.478-1.166-.401-2.16-.975-2.122-2.549.032-1.268.765-2.032 1.733-2.421.803-.325 1.982-.28 2.785.032.459.172.847.408 1.172.713l-.42.81c-.096.255-.408.325-.669.159-.408-.261-.867-.554-1.568-.542-.841.019-1.427.344-1.427 1.16 0 1.064 1.287 1.122 2.128 1.446 1.103.427 2.122.918 2.122 2.428 0 1.447-.765 2.32-1.841 2.759-.88.357-2.25.249-3.046-.102-.51-.223-.981-.509-1.338-.879l.497-.822c.146-.217.471-.274.732-.083.466.344 1.001.714 1.848.714ZM324.278 220.091v1.363h-4.084v2.556h3.217v1.319h-3.217v2.606h4.084v1.37h-5.811v-9.214h5.811ZM332.18 222.742c0 1.478-.873 2.242-2.033 2.631.217.121.401.3.561.529l2.306 3.403h-1.542a.705.705 0 0 1-.643-.344l-1.937-2.951c-.153-.216-.268-.305-.625-.305h-.733v3.6h-1.714v-9.214h2.81c2.065.025 3.55.669 3.55 2.651Zm-1.676.127c0-1.039-.727-1.459-1.874-1.453h-1.096v3.059h1.071c1.147-.019 1.899-.491 1.899-1.606ZM333.205 220.091h1.383a.564.564 0 0 1 .573.388c.797 2.078 1.631 4.117 2.377 6.226.076.216.127.446.185.688.095-.491.216-.918.363-1.293l2.16-5.621a.627.627 0 0 1 .567-.388h1.383l-3.721 9.214h-1.549M345.089 229.305h-1.721v-9.214h1.721v9.214ZM354.411 227.973c-.727.892-1.759 1.453-3.346 1.434-2.211-.026-3.523-1.16-4.135-2.817-.421-1.134-.421-2.695.038-3.798.688-1.663 2.103-2.771 4.384-2.803 1.402-.019 2.39.503 3.11 1.198l-.574.796c-.102.204-.433.249-.65.077a2.763 2.763 0 0 0-1.899-.612c-1.937.07-2.963 1.281-2.963 3.25 0 1.535.644 2.555 1.702 3.039.796.37 2.102.249 2.701-.153.268-.108.618-.707.956-.344M361.515 220.091v1.363h-4.084v2.556h3.218v1.319h-3.218v2.606h4.084v1.37h-5.811v-9.214h5.811Z" fill="#697986"/><path d="M320.215 126.45h-44.18c-.946 0-1.562.616-1.562 1.563v6.308c0 .946.609 1.606 1.555 1.606h44.187c.953 0 1.577-.66 1.577-1.606v-6.308c0-.947-.624-1.563-1.577-1.563Zm-9.463 6.308c-.932 0-1.598-.645-1.598-1.591s.659-1.556 1.605-1.556c.954 0 1.577.617 1.577 1.556 0 .946-.623 1.598-1.577 1.598l-.007-.007Zm7.864 0h-3.125c-.932 0-1.599-.645-1.599-1.591s.659-1.556 1.606-1.556h3.132c.947 0 1.606.617 1.606 1.556 0 .946-.645 1.598-1.598 1.598l-.022-.007Zm1.599 9.477h-44.18c-.946 0-1.562.616-1.562 1.563v6.308c0 .946.609 1.563 1.555 1.563h20.531v6.645c-1.413.451-2.366 1.555-2.832 2.824h-12.96c-.947 0-1.563.66-1.563 1.599 0 .946.609 1.562 1.555 1.562h12.961c.616 1.886 2.366 3.155 4.401 3.155 2.029 0 3.778-1.269 4.395-3.155h12.967c.954 0 1.577-.616 1.577-1.562 0-.932-.623-1.599-1.577-1.599H302.53c-.473-1.391-1.563-2.365-2.839-2.824v-6.645h20.531c.953 0 1.577-.617 1.577-1.556v-6.308c0-.954-.624-1.577-1.577-1.577l-.007.007Zm-37.85 6.279c-.932 0-1.598-.616-1.598-1.562 0-.932.659-1.556 1.605-1.556.954 0 1.577.617 1.577 1.556 0 .946-.623 1.562-1.577 1.562h-.007Zm4.731 0c-.932 0-1.598-.616-1.598-1.562 0-.932.659-1.556 1.605-1.556.954 0 1.578.617 1.578 1.556 0 .946-.624 1.562-1.578 1.562h-.007Zm4.731 0c-.931 0-1.598-.616-1.598-1.562 0-.932.659-1.556 1.606-1.556.953 0 1.577.617 1.577 1.556 0 .946-.624 1.562-1.577 1.562h-.008Zm3.133-1.562c0-.932.66-1.556 1.606-1.556.953 0 1.577.617 1.577 1.556 0 .946-.624 1.562-1.577 1.562-.932 0-1.599-.616-1.599-1.562h-.007Zm15.799 1.562c-.932 0-1.598-.616-1.598-1.562 0-.932.659-1.556 1.606-1.556.953 0 1.577.617 1.577 1.556 0 .946-.624 1.562-1.577 1.562h-.008Zm7.864 0h-3.125c-.932 0-1.599-.616-1.599-1.562 0-.932.66-1.556 1.606-1.556h3.133c.946 0 1.605.617 1.605 1.556 0 .946-.645 1.562-1.598 1.562h-.022Z" fill="#512FC9"/><g filter="url(#e)"><path d="M490.91 105.375a4.301 4.301 0 0 1 4.301-4.302h83.154c1.141 0 2.235.454 3.042 1.26a4.305 4.305 0 0 1 1.259 3.042v83.154a4.304 4.304 0 0 1-4.301 4.301h-83.154a4.3 4.3 0 0 1-4.301-4.301v-83.154Z" fill="#fff"/></g><g filter="url(#f)"><path fill-rule="evenodd" clip-rule="evenodd" d="M495.211 101.79a3.585 3.585 0 0 0-3.584 3.585v83.154a3.585 3.585 0 0 0 3.584 3.584h83.154a3.585 3.585 0 0 0 3.585-3.584v-83.154a3.585 3.585 0 0 0-3.585-3.585h-83.154Zm-3.548.036a5.017 5.017 0 0 1 3.548-1.469h83.154a5.019 5.019 0 0 1 5.018 5.018v83.154a5.017 5.017 0 0 1-5.018 5.018h-83.154a5.018 5.018 0 0 1-5.018-5.018v-83.154a5.02 5.02 0 0 1 1.47-3.549Z" fill="#512FC9" fill-opacity=".2"/></g><path d="M512.967 204.798v1.408h-2.772v7.806h-1.714v-7.806h-2.785v-1.408h7.271ZM519.868 204.798v1.364h-4.085v2.555h3.218v1.319h-3.218v2.606h4.085v1.37h-5.811v-9.214h5.811ZM523.067 212.597h3.689v1.415h-5.403v-9.214h1.714v7.799ZM533.752 204.798v1.364h-4.085v2.555h3.218v1.319h-3.218v2.606h4.085v1.37h-5.812v-9.214h5.812ZM541.87 207.736c0 2.096-1.415 3.001-3.575 3.033h-1.287v3.243h-1.714v-9.214h3.001c2.147.026 3.575.854 3.575 2.938Zm-1.714 0c0-1.122-.714-1.613-1.861-1.613h-1.287v3.308h1.287c1.173-.007 1.861-.542 1.861-1.695ZM551.701 207.525c.453 1.122.453 2.638 0 3.76-.675 1.663-2.058 2.829-4.326 2.829-2.269 0-3.67-1.173-4.339-2.829-.453-1.122-.453-2.638 0-3.76.675-1.663 2.064-2.829 4.339-2.829 2.262 0 3.651 1.172 4.326 2.829Zm-4.326 5.123c1.956 0 2.906-1.261 2.906-3.243s-.95-3.25-2.906-3.25c-1.963 0-2.925 1.262-2.925 3.25s.969 3.243 2.925 3.243ZM559.807 207.449c0 1.478-.872 2.243-2.032 2.631.216.122.401.3.561.529l2.306 3.403H559.1a.703.703 0 0 1-.643-.344l-1.937-2.95c-.153-.217-.268-.306-.625-.306h-.733v3.6h-1.714v-9.214h2.81c2.065.026 3.549.669 3.549 2.651Zm-1.675.127c0-1.038-.727-1.459-1.874-1.453h-1.096v3.059h1.071c1.147-.019 1.899-.491 1.899-1.606ZM567.874 204.798v1.408h-2.772v7.806h-1.714v-7.806h-2.784v-1.408h7.27ZM499.563 231.318c-1.249-1.848-2.046-4.454-1.651-7.57.223-1.778.835-3.192 1.651-4.447.28.191.611.318.854.548.102.152.076.312-.019.49-1.045 1.899-1.606 4.907-.905 7.551.223.841.497 1.65.911 2.383.127.223.064.554-.14.618M509.733 222.837c.452 1.096.452 2.625 0 3.721-.676 1.638-2.071 2.746-4.327 2.746h-3.517v-9.213h3.517c2.249.038 3.658 1.115 4.327 2.746Zm-4.327 5.104c1.956-.058 2.912-1.262 2.912-3.243 0-1.982-.956-3.186-2.912-3.244h-1.791v6.487h1.791ZM517.985 222.544c0 1.153-.74 1.669-1.638 2.001 1.268.286 1.899.968 1.899 2.051 0 1.88-1.408 2.708-3.352 2.708h-3.479v-9.213h3.18c1.956.019 3.39.567 3.39 2.453Zm-1.434 4.014c0-.968-.688-1.287-1.689-1.293h-1.733v2.701h1.74c1.038-.006 1.682-.414 1.682-1.408Zm-.274-3.81c0-1.039-.599-1.332-1.682-1.332h-1.466v2.663h1.37c1.071-.006 1.778-.318 1.778-1.331ZM524.554 228.005c.931 0 1.568-.446 1.536-1.345-.038-1.115-1.243-1.179-2.122-1.478-1.166-.402-2.16-.975-2.122-2.549.032-1.268.765-2.033 1.733-2.421.803-.325 1.982-.281 2.785.032a3.44 3.44 0 0 1 1.172.713l-.42.809c-.096.255-.408.325-.669.16-.408-.262-.867-.555-1.568-.542-.841.019-1.427.344-1.427 1.16 0 1.064 1.287 1.121 2.128 1.446 1.102.427 2.122.918 2.122 2.428 0 1.446-.765 2.319-1.842 2.759-.879.357-2.249.249-3.045-.102-.51-.223-.982-.51-1.338-.879l.497-.822c.146-.217.471-.274.732-.083.466.344 1.001.714 1.848.714ZM534.826 220.091v1.363h-4.085v2.555h3.218v1.319h-3.218v2.606h4.085v1.37h-5.811v-9.213h5.811ZM542.727 222.741c0 1.479-.873 2.243-2.032 2.632.216.121.401.299.56.529l2.307 3.402h-1.542a.703.703 0 0 1-.643-.344l-1.938-2.95c-.152-.217-.267-.306-.624-.306h-.733v3.6h-1.714v-9.213h2.81c2.065.025 3.549.669 3.549 2.65Zm-1.675.128c0-1.039-.727-1.459-1.874-1.453h-1.096v3.058h1.071c1.147-.019 1.899-.49 1.899-1.605ZM543.753 220.091h1.383a.565.565 0 0 1 .573.388c.797 2.078 1.631 4.117 2.377 6.226.076.216.127.446.185.688.095-.491.216-.918.363-1.293l2.16-5.621a.626.626 0 0 1 .567-.388h1.383l-3.721 9.214h-1.549M555.636 229.304h-1.72v-9.213h1.72v9.213ZM564.958 227.973c-.726.892-1.758 1.453-3.345 1.434-2.211-.026-3.524-1.16-4.135-2.817-.421-1.134-.421-2.695.038-3.798.688-1.663 2.103-2.771 4.384-2.803 1.402-.019 2.389.503 3.109 1.198l-.573.796c-.102.204-.433.249-.65.077a2.763 2.763 0 0 0-1.899-.612c-1.937.07-2.963 1.281-2.963 3.25 0 1.535.644 2.555 1.702 3.039.796.37 2.102.249 2.701-.153.268-.108.618-.707.956-.344M572.063 220.091v1.363h-4.084v2.555h3.218v1.319h-3.218v2.606h4.084v1.37h-5.811v-9.213h5.811ZM574.014 219.301c1.249 1.841 2.045 4.46 1.65 7.569-.223 1.778-.835 3.193-1.65 4.448-.281-.191-.618-.325-.854-.561-.115-.114-.064-.35.013-.484 1.07-1.886 1.605-4.894.911-7.544-.223-.848-.497-1.657-.905-2.39-.14-.261-.057-.503.134-.618" fill="#697986"/><path d="M516.072 138.063h39.856c1.033 0 1.793-1.018 1.341-2.079l-4.624-10.366c-.143-.573-.717-.896-1.161-.896h-30.839c-.43 0-1.018.316-1.326.889l-4.588 10.352c-.43 1.075.316 2.078 1.341 2.078v.022Zm40.753 1.469h-41.506c-.889 0-1.469.624-1.469 1.506v5.914c0 .889.573 1.469 1.469 1.469h41.506c.888 0 1.469-.573 1.469-1.469v-5.907c0-.882-.573-1.505-1.469-1.505v-.008Zm-8.889 5.95c-.889 0-1.506-.616-1.506-1.505 0-.889.617-1.47 1.506-1.47s1.469.574 1.469 1.47c0 .889-.573 1.505-1.469 1.505Zm7.383 0h-2.939c-.889 0-1.505-.616-1.505-1.505 0-.889.616-1.47 1.505-1.47h2.939c.889 0 1.506.574 1.506 1.47 0 .889-.617 1.505-1.506 1.505Zm1.506 14.803h-41.506c-.889 0-1.469.574-1.469 1.47v5.949c0 .897.573 1.47 1.469 1.47h41.506c.888 0 1.469-.573 1.469-1.462v-5.95c0-.889-.573-1.47-1.469-1.47v-.007Zm-8.889 5.914c-.889 0-1.506-.573-1.506-1.469 0-.889.617-1.463 1.506-1.463s1.469.574 1.469 1.47c0 .889-.573 1.469-1.469 1.469v-.007Zm7.383 0h-2.939c-.889 0-1.505-.573-1.505-1.469 0-.889.616-1.463 1.505-1.463h2.939c.889 0 1.506.574 1.506 1.47 0 .889-.617 1.469-1.506 1.469v-.007Zm1.506-16.272h-41.506c-.889 0-1.469.573-1.469 1.469v5.914c0 .889.573 1.506 1.469 1.506h41.506c.888 0 1.469-.617 1.469-1.506v-5.914c0-.889-.573-1.462-1.469-1.462v-.007Zm-35.556 5.914c-.889 0-1.505-.574-1.505-1.463 0-.881.616-1.505 1.505-1.505.889 0 1.469.624 1.469 1.505 0 .896-.573 1.47-1.469 1.47v-.007Zm4.444 0c-.888 0-1.505-.574-1.505-1.463 0-.881.617-1.505 1.505-1.505.889 0 1.47.624 1.47 1.505 0 .896-.574 1.47-1.47 1.47v-.007Zm4.445 0c-.889 0-1.506-.574-1.506-1.463 0-.881.617-1.505 1.506-1.505s1.469.624 1.469 1.505c0 .896-.573 1.47-1.469 1.47v-.007Zm4.444 0c-.889 0-1.505-.574-1.505-1.463 0-.881.616-1.505 1.505-1.505.889 0 1.47.624 1.47 1.505 0 .896-.574 1.47-1.47 1.47v-.007Zm13.334 0c-.889 0-1.506-.574-1.506-1.463 0-.881.617-1.505 1.506-1.505s1.469.624 1.469 1.505c0 .896-.573 1.47-1.469 1.47v-.007Zm7.383 0h-2.939c-.889 0-1.505-.574-1.505-1.463 0-.881.616-1.505 1.505-1.505h2.939c.889 0 1.506.624 1.506 1.505 0 .896-.617 1.47-1.506 1.47v-.007Z" fill="#512FC9"/><g filter="url(#g)"><path d="M729.57 105.375a4.301 4.301 0 0 1 4.301-4.302h83.155a4.305 4.305 0 0 1 4.301 4.302v83.154a4.305 4.305 0 0 1-4.301 4.301h-83.155a4.3 4.3 0 0 1-4.301-4.301v-83.154Z" fill="#fff"/></g><g filter="url(#h)"><path fill-rule="evenodd" clip-rule="evenodd" d="M733.871 101.79a3.585 3.585 0 0 0-3.584 3.585v83.154a3.585 3.585 0 0 0 3.584 3.584h83.155a3.585 3.585 0 0 0 3.584-3.584v-83.154a3.585 3.585 0 0 0-3.584-3.585h-83.155Zm-3.548.036a5.018 5.018 0 0 1 3.548-1.469h83.155a5.018 5.018 0 0 1 5.017 5.018v83.154a5.017 5.017 0 0 1-5.017 5.018h-83.155a5.02 5.02 0 0 1-5.017-5.018v-83.154c0-1.331.528-2.608 1.469-3.549Z" fill="#BECACF"/></g><path d="M740.961 214.012h-1.326a.586.586 0 0 1-.573-.389l-.688-1.879h-3.817l-.688 1.879a.63.63 0 0 1-.568.389h-1.331l3.619-9.214h1.752l3.62 9.214Zm-5.965-3.479h2.938c-.491-1.389-1.039-2.702-1.472-4.148-.421 1.465-.981 2.752-1.466 4.148ZM748.492 204.798c-.012.465.045.867-.165 1.166l-4.728 6.678h4.779v1.37h-7.003c.013-.427-.032-.873.159-1.141l4.741-6.709h-4.601v-1.364h6.818ZM751.379 210.31c.038 1.414.695 2.319 2.103 2.319 1.402 0 2.109-.892 2.109-2.313v-5.518h1.714v5.518c-.032 1.823-.898 2.97-2.23 3.518-.905.375-2.281.375-3.186 0-1.338-.548-2.224-1.695-2.224-3.518v-5.518h1.714v5.512ZM765.468 207.449c0 1.478-.873 2.243-2.033 2.631.217.122.401.3.561.529l2.306 3.403h-1.542a.704.704 0 0 1-.643-.344l-1.937-2.95c-.153-.217-.268-.306-.625-.306h-.733v3.6h-1.714v-9.214h2.81c2.065.026 3.55.669 3.55 2.651Zm-1.676.127c0-1.038-.727-1.459-1.874-1.453h-1.096v3.059h1.071c1.147-.019 1.899-.491 1.899-1.606ZM773.209 204.798v1.364h-4.085v2.555h3.218v1.319h-3.218v2.606h4.085v1.37h-5.812v-9.214h5.812ZM784.405 212.68c-.727.892-1.759 1.453-3.346 1.434-2.211-.026-3.523-1.16-4.135-2.817-.42-1.134-.42-2.695.038-3.797.688-1.663 2.103-2.772 4.384-2.804 1.402-.019 2.39.503 3.11 1.198l-.574.796c-.102.204-.433.249-.65.077a2.763 2.763 0 0 0-1.899-.612c-1.937.07-2.962 1.281-2.962 3.25 0 1.536.643 2.555 1.701 3.039.796.37 2.103.249 2.702-.153.267-.108.618-.707.955-.344M793.797 214.012h-1.325a.585.585 0 0 1-.573-.389l-.689-1.879h-3.816l-.689 1.879a.627.627 0 0 1-.567.389h-1.331l3.619-9.214h1.752l3.619 9.214Zm-5.964-3.479h2.938c-.491-1.389-1.039-2.702-1.472-4.148-.421 1.465-.981 2.752-1.466 4.148ZM801.672 212.68c-.726.892-1.758 1.453-3.345 1.434-2.211-.026-3.524-1.16-4.135-2.817-.421-1.134-.421-2.695.038-3.797.688-1.663 2.103-2.772 4.384-2.804 1.402-.019 2.389.503 3.109 1.198l-.573.796c-.102.204-.433.249-.65.077a2.765 2.765 0 0 0-1.899-.612c-1.937.07-2.963 1.281-2.963 3.25 0 1.536.644 2.555 1.701 3.039.797.37 2.103.249 2.702-.153.268-.108.618-.707.956-.344M810.741 214.012h-1.727v-4.027h-4.32v4.027h-1.727v-9.214h1.727v3.963h4.32v-3.963h1.727v9.214ZM818.412 204.798v1.364h-4.085v2.555h3.218v1.319h-3.218v2.606h4.085v1.37h-5.811v-9.214h5.811ZM750.111 220.091v1.363h-4.084v2.728h3.447v1.37h-3.447v3.753H744.3v-9.214h5.811ZM759.955 222.818c.453 1.121.453 2.638 0 3.759-.675 1.663-2.058 2.83-4.326 2.83-2.269 0-3.67-1.173-4.339-2.83-.453-1.121-.453-2.638 0-3.759.675-1.663 2.064-2.829 4.339-2.829 2.262 0 3.651 1.172 4.326 2.829Zm-4.326 5.123c1.956 0 2.905-1.262 2.905-3.243 0-1.982-.949-3.25-2.905-3.25-1.963 0-2.925 1.262-2.925 3.25s.969 3.243 2.925 3.243ZM768.06 222.742c0 1.478-.873 2.242-2.032 2.631.216.121.401.3.56.529l2.307 3.403h-1.542a.705.705 0 0 1-.643-.344l-1.938-2.951c-.152-.216-.267-.305-.624-.305h-.733v3.6h-1.714v-9.214h2.81c2.065.025 3.549.669 3.549 2.651Zm-1.675.127c0-1.039-.727-1.459-1.874-1.453h-1.096v3.059h1.071c1.147-.019 1.899-.491 1.899-1.606ZM778.867 222.742c0 1.478-.873 2.242-2.033 2.631.217.121.402.3.561.529l2.307 3.403h-1.542a.708.708 0 0 1-.644-.344l-1.937-2.951c-.153-.216-.268-.305-.624-.305h-.733v3.6h-1.714v-9.214h2.81c2.064.025 3.549.669 3.549 2.651Zm-1.676.127c0-1.039-.726-1.459-1.873-1.453h-1.096v3.059h1.07c1.147-.019 1.899-.491 1.899-1.606ZM786.609 220.091v1.363h-4.084v2.556h3.217v1.319h-3.217v2.606h4.084v1.37h-5.811v-9.214h5.811ZM795.938 222.837c.452 1.096.452 2.625 0 3.721-.676 1.638-2.071 2.747-4.327 2.747h-3.517v-9.214h3.517c2.249.038 3.658 1.115 4.327 2.746Zm-4.327 5.104c1.956-.057 2.912-1.262 2.912-3.243 0-1.982-.956-3.186-2.912-3.244h-1.79v6.487h1.79ZM799.551 229.305h-1.721v-9.214h1.721v9.214ZM803.998 228.005c.93 0 1.567-.446 1.535-1.345-.038-1.115-1.242-1.178-2.122-1.478-1.166-.401-2.16-.975-2.122-2.549.032-1.268.765-2.032 1.734-2.421.803-.325 1.981-.28 2.784.032a3.46 3.46 0 0 1 1.173.713l-.421.81c-.095.255-.408.325-.669.159-.408-.261-.867-.554-1.567-.542-.842.019-1.428.344-1.428 1.16 0 1.064 1.287 1.122 2.128 1.446 1.103.427 2.122.918 2.122 2.428 0 1.447-.764 2.32-1.841 2.759-.879.357-2.249.249-3.046-.102-.51-.223-.981-.509-1.338-.879l.497-.822c.146-.217.471-.274.733-.083.465.344 1 .714 1.848.714Z" fill="#697986"/><path d="M761.075 123.74h13.262v28.258c0 2.653-5.857 4.861-13.047 4.861h-.215c-7.297 0-13.262-2.223-13.262-4.875V123.74h13.262Z" fill="#804998"/><path d="M761.405 156.866c-7.412 0-13.598-2.222-13.598-4.86v-28.703l13.591.33v33.233h.007Z" fill="#fff" fill-opacity=".2"/><path d="M774.337 124.192c0 2.652-5.964 5.204-13.262 5.204-7.297 0-13.262-2.552-13.262-5.204 0-2.667 5.965-4.875 13.262-4.875 7.298 0 13.262 2.223 13.262 4.875Z" fill="#fff"/><path d="M771.684 124.077c0 1.663-4.745 2.989-10.502 2.989-5.756 0-10.501-1.319-10.501-2.982 0-1.663 4.745-2.996 10.501-2.996 5.757 0 10.509 1.333 10.509 2.996" fill="#B8D432"/><path d="M752.674 125.841c1.878.788 4.975 1.218 8.401 1.218 3.427 0 6.524-.43 8.402-1.218-1.878-.767-4.975-1.219-8.402-1.219-3.426 0-6.423.559-8.401 1.219Z" fill="#7FBA00"/><path d="M789.821 123.74h13.262v28.258c0 2.653-5.857 4.861-13.047 4.861h-.215c-7.297 0-13.261-2.223-13.261-4.875V123.74h13.261Z" fill="#804998"/><path d="M790.157 156.866c-7.412 0-13.605-2.222-13.605-4.86v-28.703l13.598.33v33.233h.007Z" fill="#fff" fill-opacity=".2"/><path d="M802.982 124.192c0 2.652-5.971 5.204-13.262 5.204-7.312 0-13.276-2.552-13.276-5.204 0-2.667 5.972-4.875 13.262-4.875 7.312 0 13.276 2.223 13.276 4.875Z" fill="#fff"/><path d="M800.33 124.077c0 1.663-4.753 2.989-10.509 2.989s-10.502-1.319-10.502-2.982c0-1.663 4.746-2.996 10.502-2.996s10.509 1.333 10.509 2.996" fill="#B8D432"/><path d="M781.312 125.841c1.878.788 4.974 1.218 8.401 1.218 3.426 0 6.523-.43 8.401-1.218-1.885-.767-4.975-1.219-8.401-1.219-3.427 0-6.423.559-8.401 1.219Z" fill="#7FBA00"/><path d="M789.821 156.866v-12.853c0-1.542-1.319-3.656-2.223-3.656h-24.301c-.903 0-2.222 2.114-2.222 3.656v12.853h28.746Z" fill="#fff" fill-opacity=".4"/><path d="M775.448 141.468h13.262v28.258c0 2.652-5.857 4.874-13.047 4.874h-.215c-7.297 0-13.261-2.222-13.261-4.874v-28.258h13.261Z" fill="#804998"/><path d="M775.771 174.586c-7.405 0-13.591-2.208-13.591-4.86v-28.703l13.598.337v33.233l-.007-.007Z" fill="#fff" fill-opacity=".2"/><path d="M788.717 141.805c0 2.652-5.971 5.204-13.261 5.204-7.312 0-13.276-2.552-13.276-5.204 0-2.653 5.971-4.875 13.261-4.875 7.312 0 13.276 2.222 13.276 4.875Z" fill="#fff"/><path d="M786.064 141.683c0 1.67-4.753 2.996-10.609 2.996-5.864 0-10.624-1.326-10.624-2.989 0-1.649 4.76-2.982 10.609-2.982 5.879 0 10.624 1.326 10.624 2.989" fill="#B8D432"/><path d="M766.932 143.461c1.878.788 4.975 1.218 8.516 1.218 3.426 0 6.523-.43 8.516-1.218-1.878-.775-4.975-1.219-8.516-1.219-3.42 0-6.524.559-8.516 1.219Z" fill="#7FBA00"/><path fill-rule="evenodd" clip-rule="evenodd" d="M238.28 147.669H108.244v-1.434H238.28v1.434Z" fill="#697986"/><path d="M108.266 147.669h-.739v-1.434h.739v1.434Z" fill="#697986"/><path fill-rule="evenodd" clip-rule="evenodd" d="M107.509 146.217h.774v1.469h-.774v-1.469Zm.036.036v1.397h.702v-1.397h-.702Z" fill="#697986"/><path d="m249.211 146.952-10.222 3.326v-6.653l10.222 3.327Z" fill="#697986"/><path fill-rule="evenodd" clip-rule="evenodd" d="m238.272 142.638 13.256 4.314-13.256 4.313v-8.627Zm1.434 1.975v4.678l7.189-2.339-7.189-2.339ZM715.592 147.669H584.101v-1.434h131.491v1.434Z" fill="#697986"/><path d="M584.115 147.669h-.731v-1.434h.738l-.007 1.434Z" fill="#697986"/><path fill-rule="evenodd" clip-rule="evenodd" d="M583.365 146.217h.775l-.008 1.469h-.767v-1.469Zm.036.036v1.397h.695l.007-1.397h-.702Z" fill="#697986"/><path d="m726.524 146.952-10.215 3.326v-6.653l10.215 3.327Z" fill="#697986"/><path fill-rule="evenodd" clip-rule="evenodd" d="m715.592 142.638 13.247 4.314-13.247 4.313v-8.627Zm1.433 1.975v4.677l7.183-2.338-7.183-2.339ZM476.918 147.669h-131.47v-1.434h131.47v1.434Z" fill="#697986"/><path d="M345.448 147.669h-.717v-1.434h.717v1.434Z" fill="#697986"/><path fill-rule="evenodd" clip-rule="evenodd" d="M344.713 146.217h.753v1.469h-.753v-1.469Zm.036.036v1.397h.681v-1.397h-.681Z" fill="#697986"/><path d="m487.871 146.952-10.223 3.333v-6.652l10.223 3.319Z" fill="#697986"/><path fill-rule="evenodd" clip-rule="evenodd" d="m476.932 142.646 13.255 4.304-13.255 4.323v-8.627Zm1.433 1.973v4.678l7.189-2.344-7.189-2.334Z" fill="#697986"/><defs><filter id="a" x="5.054" y="95.073" width="111.756" height="111.756" filterUnits="userSpaceOnUse" color-interpolation-filters="sRGB"><feFlood flood-opacity="0" result="BackgroundImageFix"/><feColorMatrix in="SourceAlpha" values="0 0 0 0 0 0 0 0 0 0 0 0 0 0 0 0 0 0 127 0" result="hardAlpha"/><feOffset dy="4"/><feGaussianBlur stdDeviation="5"/><feColorMatrix values="0 0 0 0 0 0 0 0 0 0 0 0 0 0 0 0 0 0 0.0980392 0"/><feBlend in2="BackgroundImageFix" result="effect1_dropShadow_11948_9664"/><feBlend in="SourceGraphic" in2="effect1_dropShadow_11948_9664" result="shape"/></filter><filter id="b" x="4.337" y="94.357" width="113.19" height="113.19" filterUnits="userSpaceOnUse" color-interpolation-filters="sRGB"><feFlood flood-opacity="0" result="BackgroundImageFix"/><feColorMatrix in="SourceAlpha" values="0 0 0 0 0 0 0 0 0 0 0 0 0 0 0 0 0 0 127 0" result="hardAlpha"/><feOffset dy="4"/><feGaussianBlur stdDeviation="5"/><feColorMatrix values="0 0 0 0 0 0 0 0 0 0 0 0 0 0 0 0 0 0 0.0980392 0"/><feBlend in2="BackgroundImageFix" result="effect1_dropShadow_11948_9664"/><feBlend in="SourceGraphic" in2="effect1_dropShadow_11948_9664" result="shape"/></filter><filter id="c" x="242.258" y="95.073" width="111.756" height="111.756" filterUnits="userSpaceOnUse" color-interpolation-filters="sRGB"><feFlood flood-opacity="0" result="BackgroundImageFix"/><feColorMatrix in="SourceAlpha" values="0 0 0 0 0 0 0 0 0 0 0 0 0 0 0 0 0 0 127 0" result="hardAlpha"/><feOffset dy="4"/><feGaussianBlur stdDeviation="5"/><feColorMatrix values="0 0 0 0 0.0311419 0 0 0 0 0.01807 0 0 0 0 0.077278 0 0 0 0.0980392 0"/><feBlend in2="BackgroundImageFix" result="effect1_dropShadow_11948_9664"/><feBlend in="SourceGraphic" in2="effect1_dropShadow_11948_9664" result="shape"/></filter><filter id="d" x="241.541" y="94.357" width="113.19" height="113.19" filterUnits="userSpaceOnUse" color-interpolation-filters="sRGB"><feFlood flood-opacity="0" result="BackgroundImageFix"/><feColorMatrix in="SourceAlpha" values="0 0 0 0 0 0 0 0 0 0 0 0 0 0 0 0 0 0 127 0" result="hardAlpha"/><feOffset dy="4"/><feGaussianBlur stdDeviation="5"/><feColorMatrix values="0 0 0 0 0.0311419 0 0 0 0 0.01807 0 0 0 0 0.077278 0 0 0 0.0980392 0"/><feBlend in2="BackgroundImageFix" result="effect1_dropShadow_11948_9664"/><feBlend in="SourceGraphic" in2="effect1_dropShadow_11948_9664" result="shape"/></filter><filter id="e" x="480.91" y="95.073" width="111.756" height="111.756" filterUnits="userSpaceOnUse" color-interpolation-filters="sRGB"><feFlood flood-opacity="0" result="BackgroundImageFix"/><feColorMatrix in="SourceAlpha" values="0 0 0 0 0 0 0 0 0 0 0 0 0 0 0 0 0 0 127 0" result="hardAlpha"/><feOffset dy="4"/><feGaussianBlur stdDeviation="5"/><feColorMatrix values="0 0 0 0 0.0311419 0 0 0 0 0.01807 0 0 0 0 0.077278 0 0 0 0.0980392 0"/><feBlend in2="BackgroundImageFix" result="effect1_dropShadow_11948_9664"/><feBlend in="SourceGraphic" in2="effect1_dropShadow_11948_9664" result="shape"/></filter><filter id="f" x="480.193" y="94.357" width="113.19" height="113.19" filterUnits="userSpaceOnUse" color-interpolation-filters="sRGB"><feFlood flood-opacity="0" result="BackgroundImageFix"/><feColorMatrix in="SourceAlpha" values="0 0 0 0 0 0 0 0 0 0 0 0 0 0 0 0 0 0 127 0" result="hardAlpha"/><feOffset dy="4"/><feGaussianBlur stdDeviation="5"/><feColorMatrix values="0 0 0 0 0.0311419 0 0 0 0 0.01807 0 0 0 0 0.077278 0 0 0 0.0980392 0"/><feBlend in2="BackgroundImageFix" result="effect1_dropShadow_11948_9664"/><feBlend in="SourceGraphic" in2="effect1_dropShadow_11948_9664" result="shape"/></filter><filter id="g" x="719.57" y="95.073" width="111.756" height="111.756" filterUnits="userSpaceOnUse" color-interpolation-filters="sRGB"><feFlood flood-opacity="0" result="BackgroundImageFix"/><feColorMatrix in="SourceAlpha" values="0 0 0 0 0 0 0 0 0 0 0 0 0 0 0 0 0 0 127 0" result="hardAlpha"/><feOffset dy="4"/><feGaussianBlur stdDeviation="5"/><feColorMatrix values="0 0 0 0 0 0 0 0 0 0 0 0 0 0 0 0 0 0 0.0980392 0"/><feBlend in2="BackgroundImageFix" result="effect1_dropShadow_11948_9664"/><feBlend in="SourceGraphic" in2="effect1_dropShadow_11948_9664" result="shape"/></filter><filter id="h" x="718.854" y="94.357" width="113.19" height="113.19" filterUnits="userSpaceOnUse" color-interpolation-filters="sRGB"><feFlood flood-opacity="0" result="BackgroundImageFix"/><feColorMatrix in="SourceAlpha" values="0 0 0 0 0 0 0 0 0 0 0 0 0 0 0 0 0 0 127 0" result="hardAlpha"/><feOffset dy="4"/><feGaussianBlur stdDeviation="5"/><feColorMatrix values="0 0 0 0 0 0 0 0 0 0 0 0 0 0 0 0 0 0 0.0980392 0"/><feBlend in2="BackgroundImageFix" result="effect1_dropShadow_11948_9664"/><feBlend in="SourceGraphic" in2="effect1_dropShadow_11948_9664" result="shape"/></filter></defs></svg>