<svg width="900" height="276" fill="none" xmlns="http://www.w3.org/2000/svg"><path d="M168.101 63.8a5.736 5.736 0 0 1 5.734-5.735h705.377a5.735 5.735 0 0 1 5.734 5.734v191.635a5.737 5.737 0 0 1-1.679 4.055 5.737 5.737 0 0 1-4.055 1.679H173.835a5.737 5.737 0 0 1-4.055-1.679 5.737 5.737 0 0 1-1.679-4.055V63.799Z" fill="#fff"/><path fill-rule="evenodd" clip-rule="evenodd" d="M173.835 58.781a5.019 5.019 0 0 0-5.018 5.018v191.635a5.018 5.018 0 0 0 5.018 5.018h705.377a5.018 5.018 0 0 0 5.018-5.018V63.799a5.018 5.018 0 0 0-5.018-5.018H173.835Zm-4.562.456a6.452 6.452 0 0 1 4.562-1.89h705.377a6.452 6.452 0 0 1 6.451 6.452v191.635a6.451 6.451 0 0 1-6.451 6.451H173.835a6.451 6.451 0 0 1-6.451-6.451V63.799c0-1.71.68-3.352 1.889-4.562Z" fill="#0089D6"/><path d="M544.533 32.803c-.735.903-1.78 1.47-3.387 1.451-2.238-.026-3.567-1.174-4.187-2.851-.426-1.149-.426-2.73.039-3.845.697-1.684 2.129-2.807 4.439-2.84 1.419-.019 2.419.51 3.148 1.214l-.581.806c-.103.207-.438.252-.658.078a2.8 2.8 0 0 0-1.922-.62c-1.962.071-3 1.297-3 3.29 0 1.555.651 2.588 1.722 3.078.807.374 2.129.252 2.736-.155.271-.11.626-.716.968-.348M547.578 32.719h3.736v1.432h-5.471v-9.329h1.735v7.897ZM560.604 27.583c.458 1.136.458 2.671 0 3.807-.684 1.684-2.084 2.864-4.381 2.864-2.296 0-3.716-1.187-4.393-2.864-.458-1.136-.458-2.671 0-3.807.684-1.684 2.09-2.864 4.393-2.864 2.291 0 3.697 1.187 4.381 2.864Zm-4.381 5.187c1.981 0 2.942-1.277 2.942-3.284 0-2.006-.961-3.29-2.942-3.29-1.987 0-2.961 1.278-2.961 3.29 0 2.013.981 3.284 2.961 3.284ZM563.94 30.403c.038 1.432.703 2.348 2.129 2.348 1.419 0 2.135-.903 2.135-2.342v-5.587h1.736v5.587c-.033 1.845-.91 3.007-2.258 3.561-.917.381-2.31.381-3.226 0-1.355-.554-2.252-1.716-2.252-3.56v-5.588h1.736v5.58ZM579.65 27.603c.458 1.11.458 2.658 0 3.767-.684 1.659-2.097 2.781-4.381 2.781h-3.561v-9.329h3.561c2.278.039 3.704 1.13 4.381 2.78Zm-4.381 5.167c1.981-.058 2.949-1.277 2.949-3.284 0-2.006-.968-3.225-2.949-3.283h-1.813v6.567h1.813Z" fill="#324148"/><path d="M479.089 34.029c2.868-.517 5.198-.932 5.262-.932l.057-.015-2.745-3.197c-1.434-1.792-2.688-3.226-2.688-3.226l2.795-7.706c0-.021 1.922 3.248 4.61 7.914 2.509 4.359 4.588 7.957 4.588 7.993l.071.072h-17.147l5.197-.918v.015Zm32.846-.775c-1.311-.093-2.079-.831-2.265-2.222-.072-.38-.072-.38-.072-2.796v-2.315h1.155v2.251c0 2.036-.001 2.258.05 2.416.057.573.236.96.48 1.24.237.215.473.358.832.43.121.036.595.036.774 0a1.66 1.66 0 0 0 .838-.48 1.93 1.93 0 0 0 .595-1.147l.072-.144v-4.53h1.183v7.133h-1.19v-1.134s-.072.051-.072.101c-.229.387-.53.717-.889.918-.473.244-.889.33-1.491.287v-.008Zm13.19-.021a3.365 3.365 0 0 1-1.304-.43c-.839-.516-1.312-1.376-1.491-2.552a3.793 3.793 0 0 1 0-1.276c.114-.789.415-1.534.831-2.065.129-.143.359-.401.488-.502.415-.286.838-.501 1.311-.602.251-.071.717-.086 1.026-.071a2.868 2.868 0 0 1 1.849.946c.43.538.667 1.312.717 2.236v.882h-5.068v.122c0 .323.122.717.236 1.061.122.287.359.588.538.738a2.24 2.24 0 0 0 1.262.552c.179.022.659 0 .838-.028a3.906 3.906 0 0 0 1.613-.66c0-.036.057-.072.057-.086.072 0 .072.108.072.538l-.014.523-.115.072c-.537.308-1.075.516-1.735.573-.179.043-.831.043-1.075.029h-.036Zm2.223-4.516c0-.574-.244-1.219-.603-1.541a1.465 1.465 0 0 0-.824-.43c-.179-.036-.538-.015-.717.014-.358.071-.659.243-.96.502-.287.272-.466.616-.588 1.003a1.499 1.499 0 0 0-.122.502l-.05.043h3.885l-.021-.093Zm-34.223 4.344c0-.022.846-2.273 1.921-5.018l1.85-4.982h1.254l.072.122c.115.416 3.756 9.878 3.756 9.878 0 .014-.236.014-.595.014h-.645l-.545-1.412-.537-1.39h-4.244v.05c0 .021-.244.659-.48 1.397l-.531 1.362h-.595c-.537 0-.659 0-.659-.014l-.022-.007Zm6.165-3.857s-.358-.96-.839-2.136c-.788-2.18-.838-2.315-.896-2.652 0-.18-.071-.18-.071-.029 0 .107-.05.344-.108.48 0 .05-.358 1.054-.788 2.223-.409 1.146-.767 2.1-.767 2.1 0 .014.774.014 1.734.014h1.735Zm3.097 3.685v-.18l2.093-2.91 2.151-2.91h-3.821v-.99h5.498v.337l-2.079 2.925c-1.204 1.606-2.15 2.91-2.15 2.925h4.172v.99h-5.864v-.187Zm15.469.165V25.92h1.133v.746c0 .408 0 .738.072.738 0 0 0-.072.05-.158.122-.358.358-.695.595-.968.301-.258.602-.394.96-.465.058-.015.18-.015.359-.015.236.015.358.029.538.086l.057.015v1.182l-.179-.071a1.626 1.626 0 0 0-.717-.144c-.179.015-.359.029-.48.1a1.498 1.498 0 0 0-.717.588c-.237.402-.416.91-.473 1.398 0 .086 0 .774-.072 2.13v2.007h-1.133l.007-.036Zm-49.032-.022s1.262-2.222 2.81-4.903l2.81-4.875 3.341-2.76a404.696 404.696 0 0 1 3.283-2.767s-.057.05-.057.144c-.058.072-1.671 3.512-3.585 7.656l-3.512 7.512h-5.09v-.007Z" fill="#0089D6"/><g filter="url(#a)"><path d="M15.054 105.376a4.302 4.302 0 0 1 4.3-4.301h83.155a4.3 4.3 0 0 1 4.301 4.301v83.154a4.301 4.301 0 0 1-4.301 4.301H19.355a4.303 4.303 0 0 1-4.301-4.301v-83.154Z" fill="#fff"/></g><g filter="url(#b)"><path fill-rule="evenodd" clip-rule="evenodd" d="M19.355 101.792a3.585 3.585 0 0 0-3.584 3.584v83.154a3.584 3.584 0 0 0 3.584 3.585h83.154a3.583 3.583 0 0 0 3.584-3.585v-83.154a3.58 3.58 0 0 0-3.584-3.584H19.355Zm-3.548.036a5.019 5.019 0 0 1 3.548-1.47h83.154a5.018 5.018 0 0 1 5.018 5.018v83.154a5.02 5.02 0 0 1-5.018 5.018H19.355a5.018 5.018 0 0 1-5.018-5.018v-83.154c0-1.331.529-2.607 1.47-3.548Z" fill="#BECACF"/></g><path d="M44.17 211.265c.038 1.415.695 2.32 2.103 2.32 1.402 0 2.109-.892 2.109-2.313v-5.518h1.714v5.518c-.032 1.822-.898 2.969-2.23 3.517-.905.376-2.281.376-3.186 0-1.338-.548-2.224-1.695-2.224-3.517v-5.518h1.714v5.511ZM54.218 213.668c.93 0 1.568-.446 1.536-1.345-.038-1.115-1.243-1.179-2.122-1.478-1.166-.402-2.16-.975-2.122-2.549.032-1.268.765-2.033 1.733-2.421.803-.325 1.982-.281 2.785.032.459.172.847.407 1.172.713l-.42.81c-.096.254-.408.324-.67.159-.407-.261-.866-.555-1.567-.542-.84.019-1.427.344-1.427 1.16 0 1.064 1.287 1.121 2.128 1.446 1.102.427 2.122.918 2.122 2.428 0 1.446-.765 2.319-1.841 2.759-.88.357-2.25.249-3.046-.102-.51-.223-.981-.51-1.338-.879l.497-.822c.146-.217.471-.274.732-.083.466.344 1 .714 1.848.714ZM64.49 205.754v1.363h-4.084v2.555h3.217v1.319h-3.217v2.607h4.084v1.37h-5.811v-9.214h5.81ZM72.391 208.404c0 1.479-.873 2.243-2.032 2.632.216.121.401.3.56.529l2.307 3.403h-1.542a.706.706 0 0 1-.643-.345l-1.938-2.95c-.152-.216-.267-.306-.624-.306h-.733v3.601h-1.714v-9.214h2.81c2.065.025 3.55.669 3.55 2.65Zm-1.675.128c0-1.039-.727-1.459-1.874-1.453h-1.096v3.059h1.07c1.148-.02 1.9-.491 1.9-1.606ZM76.699 213.668c.93 0 1.567-.446 1.535-1.345-.038-1.115-1.242-1.179-2.121-1.478-1.166-.402-2.16-.975-2.122-2.549.031-1.268.764-2.033 1.733-2.421.803-.325 1.981-.281 2.784.032.46.172.848.407 1.173.713l-.42.81c-.096.254-.408.324-.67.159-.408-.261-.866-.555-1.567-.542-.841.019-1.428.344-1.428 1.16 0 1.064 1.287 1.121 2.129 1.446 1.102.427 2.122.918 2.122 2.428 0 1.446-.765 2.319-1.842 2.759-.88.357-2.25.249-3.046-.102-.51-.223-.981-.51-1.338-.879l.497-.822c.147-.217.472-.274.733-.083.465.344 1 .714 1.848.714ZM80.3 134.301c0 5.878-4.802 10.659-10.659 10.659-5.921 0-10.66-4.781-10.66-10.666a10.64 10.64 0 0 1 10.66-10.66c5.864 0 10.66 4.782 10.66 10.667Zm-24.888 7.104c0 3.928-3.197 7.111-7.097 7.111-3.943 0-7.133-3.183-7.133-7.111 0-3.921 3.197-7.097 7.14-7.097 3.9 0 7.097 3.176 7.097 7.097h-.007Zm-21.32 20.602c0-5.484 4.474-9.935 9.965-9.935h8.53c5.484 0 9.907 4.444 9.907 9.928 0 1.383-1.118 2.487-2.451 2.487H36.602a2.49 2.49 0 0 1-2.51-2.494v.014Z" fill="#697986"/><path d="M55.727 150.681a11.613 11.613 0 0 1 8.581 11.24 4.43 4.43 0 0 1-.846 2.581h20.731a3.2 3.2 0 0 0 3.198-3.197 12.769 12.769 0 0 0-12.789-12.789H62.867c-2.652 0-5.11.774-7.14 2.165Z" fill="#697986"/><g filter="url(#c)"><path d="M252.258 105.376a4.3 4.3 0 0 1 4.301-4.301h83.154a4.3 4.3 0 0 1 4.301 4.301v83.154a4.301 4.301 0 0 1-4.301 4.301h-83.154a4.3 4.3 0 0 1-4.301-4.301v-83.154Z" fill="#fff"/></g><g filter="url(#d)"><path fill-rule="evenodd" clip-rule="evenodd" d="M256.559 101.792a3.587 3.587 0 0 0-3.584 3.584v83.154a3.585 3.585 0 0 0 3.584 3.585h83.154a3.583 3.583 0 0 0 3.584-3.585v-83.154a3.58 3.58 0 0 0-3.584-3.584h-83.154Zm-3.548.036a5.018 5.018 0 0 1 3.548-1.47h83.154a5.018 5.018 0 0 1 5.018 5.018v83.154a5.02 5.02 0 0 1-5.018 5.018h-83.154a5.017 5.017 0 0 1-5.018-5.018v-83.154c0-1.331.529-2.607 1.47-3.548Z" fill="#512FC9" fill-opacity=".2"/></g><path d="M255.665 204.798v1.408h-2.772v7.806h-1.714v-7.806h-2.784v-1.408h7.27ZM262.566 204.798v1.363h-4.084v2.556h3.218v1.319h-3.218v2.606h4.084v1.37h-5.811v-9.214h5.811ZM265.765 212.597h3.689v1.415h-5.403v-9.214h1.714v7.799ZM276.45 204.798v1.363h-4.085v2.556h3.218v1.319h-3.218v2.606h4.085v1.37h-5.811v-9.214h5.811ZM284.568 207.736c0 2.096-1.415 3.001-3.575 3.033h-1.287v3.243h-1.714v-9.214h3.001c2.148.026 3.575.854 3.575 2.938Zm-1.714 0c0-1.122-.714-1.613-1.861-1.613h-1.287v3.308h1.287c1.173-.007 1.861-.542 1.861-1.695ZM294.4 207.525c.452 1.122.452 2.638 0 3.76-.676 1.663-2.058 2.829-4.327 2.829-2.268 0-3.67-1.173-4.339-2.829-.453-1.122-.453-2.638 0-3.76.675-1.663 2.064-2.829 4.339-2.829 2.262 0 3.651 1.172 4.327 2.829Zm-4.327 5.123c1.956 0 2.906-1.261 2.906-3.243s-.95-3.25-2.906-3.25c-1.962 0-2.925 1.262-2.925 3.25s.969 3.243 2.925 3.243ZM302.506 207.449c0 1.478-.873 2.243-2.033 2.631.217.121.401.3.561.529l2.306 3.403h-1.542a.704.704 0 0 1-.643-.344l-1.937-2.951c-.153-.216-.268-.305-.625-.305h-.732v3.6h-1.715v-9.214h2.811c2.064.025 3.549.669 3.549 2.651Zm-1.676.127c0-1.039-.727-1.459-1.873-1.453h-1.096v3.059h1.07c1.147-.019 1.899-.491 1.899-1.606ZM310.572 204.798v1.408H307.8v7.806h-1.714v-7.806h-2.784v-1.408h7.27ZM322.219 214.012h-1.325a.587.587 0 0 1-.573-.389l-.689-1.88h-3.816l-.689 1.88a.627.627 0 0 1-.567.389h-1.331l3.619-9.214h1.752l3.619 9.214Zm-5.964-3.479h2.938c-.491-1.389-1.039-2.702-1.472-4.149-.421 1.466-.982 2.753-1.466 4.149ZM324.444 210.31c.038 1.414.694 2.319 2.102 2.319 1.402 0 2.109-.892 2.109-2.313v-5.518h1.714v5.518c-.031 1.822-.898 2.969-2.23 3.517-.905.376-2.281.376-3.186 0-1.338-.548-2.224-1.695-2.224-3.517v-5.518h1.715v5.512ZM338.608 204.798v1.408h-2.772v7.806h-1.714v-7.806h-2.784v-1.408h7.27ZM347.471 214.012h-1.727v-4.027h-4.32v4.027h-1.727v-9.214h1.727v3.963h4.32v-3.963h1.727v9.214ZM243.602 229.305h-1.325a.588.588 0 0 1-.574-.389l-.688-1.88h-3.817l-.688 1.88a.627.627 0 0 1-.567.389h-1.332l3.62-9.214h1.752l3.619 9.214Zm-5.964-3.479h2.937c-.49-1.39-1.038-2.702-1.471-4.149-.421 1.466-.982 2.753-1.466 4.149ZM246.024 222.875c.025.242.038.523.038.771v5.659h-1.51v-9.214c.452.038 1.108-.153 1.344.127 1.714 2.039 3.307 4.212 4.964 6.308a7.126 7.126 0 0 1-.045-.834v-5.601h1.511v9.214c-.408-.026-.918.063-1.224-.064a.71.71 0 0 1-.261-.23M262.029 222.837c.453 1.096.453 2.625 0 3.721-.675 1.638-2.07 2.747-4.326 2.747h-3.517v-9.214h3.517c2.249.038 3.657 1.115 4.326 2.746Zm-4.326 5.104c1.956-.057 2.912-1.262 2.912-3.243 0-1.982-.956-3.186-2.912-3.244h-1.791v6.487h1.791ZM272.805 223.028c0 2.097-1.414 3.001-3.574 3.033h-1.287v3.244h-1.715v-9.214h3.002c2.147.025 3.574.854 3.574 2.937Zm-1.714 0c0-1.121-.713-1.612-1.86-1.612h-1.287v3.307h1.287c1.172-.006 1.86-.541 1.86-1.695ZM280.554 222.742c0 1.478-.873 2.242-2.033 2.631.217.121.401.3.561.529l2.306 3.403h-1.542a.706.706 0 0 1-.643-.344l-1.937-2.951c-.153-.216-.268-.305-.625-.305h-.733v3.6h-1.714v-9.214h2.81c2.065.025 3.55.669 3.55 2.651Zm-1.676.127c0-1.039-.727-1.459-1.874-1.453h-1.096v3.059h1.071c1.147-.019 1.899-.491 1.899-1.606ZM290.679 222.818c.452 1.121.452 2.638 0 3.759-.675 1.663-2.058 2.83-4.327 2.83-2.268 0-3.67-1.173-4.339-2.83-.452-1.121-.452-2.638 0-3.759.676-1.663 2.065-2.829 4.339-2.829 2.262 0 3.652 1.172 4.327 2.829Zm-4.327 5.123c1.957 0 2.906-1.262 2.906-3.243 0-1.982-.949-3.25-2.906-3.25-1.962 0-2.924 1.262-2.924 3.25s.968 3.243 2.924 3.243ZM294.387 224.564l-2.937-4.473h1.707c.243 0 .306.057.402.204l2.096 3.383c.045-.121.096-.223.16-.325l1.917-3.026c.096-.16.217-.236.364-.236h1.644l-2.97 4.403 3.052 4.811h-1.714c-.235.006-.363-.147-.452-.293l-2.135-3.53a1.62 1.62 0 0 1-.121.267l-2.045 3.263c-.089.127-.21.299-.427.293h-1.606M304.927 225.724v3.581h-1.714v-3.581l-3.359-5.633h1.511c.318 0 .458.172.573.382.65 1.198 1.338 2.358 1.944 3.594.076.159.14.325.197.484.128-.357.255-.669.44-1l1.676-3.078c.095-.178.28-.382.567-.382h1.516M314.006 228.005c.931 0 1.568-.446 1.536-1.345-.038-1.115-1.243-1.179-2.122-1.478-1.166-.402-2.16-.975-2.122-2.549.032-1.268.765-2.033 1.733-2.421.803-.325 1.982-.281 2.785.032a3.44 3.44 0 0 1 1.172.713l-.42.809c-.096.255-.408.325-.669.16-.408-.262-.867-.555-1.568-.542-.841.019-1.427.344-1.427 1.16 0 1.064 1.287 1.121 2.128 1.446 1.103.427 2.122.918 2.122 2.428 0 1.446-.765 2.319-1.841 2.759-.88.357-2.25.249-3.046-.102-.51-.223-.981-.51-1.338-.879l.497-.822c.146-.217.471-.274.732-.083.466.344 1.001.714 1.848.714ZM324.278 220.091v1.363h-4.084v2.555h3.217v1.319h-3.217v2.606h4.084v1.37h-5.811v-9.213h5.811ZM332.18 222.741c0 1.479-.873 2.243-2.033 2.632.217.121.401.299.561.529l2.306 3.402h-1.542a.703.703 0 0 1-.643-.344l-1.937-2.95c-.153-.217-.268-.306-.625-.306h-.733v3.6h-1.714v-9.213h2.81c2.065.025 3.55.669 3.55 2.65Zm-1.676.128c0-1.039-.727-1.459-1.874-1.453h-1.096v3.058h1.071c1.147-.019 1.899-.49 1.899-1.605ZM333.205 220.091h1.383a.564.564 0 0 1 .573.388c.797 2.077 1.631 4.116 2.377 6.226.076.216.127.446.185.688.095-.491.216-.918.363-1.294l2.16-5.62a.627.627 0 0 1 .567-.388h1.383l-3.721 9.213h-1.549M345.089 229.304h-1.721v-9.213h1.721v9.213ZM354.411 227.973c-.727.892-1.759 1.453-3.346 1.434-2.211-.026-3.523-1.16-4.135-2.817-.421-1.134-.421-2.695.038-3.798.688-1.663 2.103-2.771 4.384-2.803 1.402-.019 2.39.503 3.11 1.198l-.574.796c-.102.204-.433.249-.65.077a2.763 2.763 0 0 0-1.899-.612c-1.937.07-2.963 1.281-2.963 3.25 0 1.535.644 2.555 1.702 3.039.796.37 2.102.249 2.701-.153.268-.108.618-.707.956-.344M361.515 220.091v1.363h-4.084v2.555h3.218v1.319h-3.218v2.606h4.084v1.37h-5.811v-9.213h5.811Z" fill="#697986"/><path d="M320.215 126.452h-44.18c-.946 0-1.562.616-1.562 1.555v6.308c0 .954.609 1.606 1.555 1.606h44.187c.953 0 1.577-.645 1.577-1.591v-6.308c0-.947-.624-1.563-1.577-1.563v-.007Zm-9.463 6.308c-.932 0-1.598-.645-1.598-1.592 0-.946.659-1.562 1.605-1.562.954 0 1.577.616 1.577 1.562 0 .932-.623 1.599-1.577 1.599l-.007-.007Zm7.864 0h-3.125c-.932 0-1.599-.645-1.599-1.592 0-.946.659-1.562 1.606-1.562h3.132c.947 0 1.606.616 1.606 1.562 0 .932-.645 1.599-1.598 1.599l-.022-.007Zm1.599 9.477h-44.18c-.946 0-1.562.616-1.562 1.562v6.309c0 .946.609 1.562 1.555 1.562h20.531v6.645c-1.413.452-2.366 1.563-2.832 2.832h-12.96c-.947 0-1.563.645-1.563 1.591 0 .947.609 1.563 1.555 1.563h12.961c.616 1.885 2.366 3.154 4.401 3.154 2.029 0 3.778-1.269 4.395-3.154h12.967c.954 0 1.577-.616 1.577-1.563 0-.932-.623-1.598-1.577-1.598H302.53c-.473-1.398-1.563-2.387-2.839-2.839v-6.631h20.531c.953 0 1.577-.616 1.577-1.562v-6.309c0-.946-.624-1.562-1.577-1.562h-.007Zm-37.85 6.272c-.932 0-1.598-.609-1.598-1.556 0-.946.659-1.555 1.605-1.555.954 0 1.577.609 1.577 1.555 0 .947-.623 1.556-1.577 1.556h-.007Zm4.731 0c-.932 0-1.598-.609-1.598-1.556 0-.946.659-1.555 1.605-1.555.954 0 1.578.609 1.578 1.555 0 .947-.624 1.556-1.578 1.556h-.007Zm4.731 0c-.931 0-1.598-.609-1.598-1.556 0-.946.659-1.555 1.606-1.555.953 0 1.577.609 1.577 1.555 0 .947-.624 1.556-1.577 1.556h-.008Zm3.133-1.556c0-.946.66-1.555 1.606-1.555.953 0 1.577.609 1.577 1.555 0 .947-.624 1.556-1.577 1.556-.932 0-1.599-.609-1.599-1.556h-.007Zm15.799 1.556c-.932 0-1.598-.609-1.598-1.556 0-.946.659-1.555 1.606-1.555.953 0 1.577.609 1.577 1.555 0 .947-.624 1.556-1.577 1.556h-.008Zm7.864 0h-3.125c-.932 0-1.599-.609-1.599-1.556 0-.946.66-1.555 1.606-1.555h3.133c.946 0 1.605.609 1.605 1.555 0 .947-.645 1.556-1.598 1.556h-.022Z" fill="#512FC9"/><g filter="url(#e)"><path d="M490.91 105.376a4.3 4.3 0 0 1 4.301-4.301h83.154a4.301 4.301 0 0 1 4.301 4.301v83.154a4.305 4.305 0 0 1-1.259 3.042 4.305 4.305 0 0 1-3.042 1.259h-83.154a4.304 4.304 0 0 1-4.301-4.301v-83.154Z" fill="#fff"/></g><g filter="url(#f)"><path fill-rule="evenodd" clip-rule="evenodd" d="M495.211 101.792a3.585 3.585 0 0 0-3.584 3.584v83.154a3.585 3.585 0 0 0 3.584 3.585h83.154a3.585 3.585 0 0 0 3.585-3.585v-83.154a3.585 3.585 0 0 0-3.585-3.584h-83.154Zm-3.548.036a5.018 5.018 0 0 1 3.548-1.47h83.154a5.02 5.02 0 0 1 5.018 5.018v83.154a5.019 5.019 0 0 1-5.018 5.018h-83.154a5.017 5.017 0 0 1-5.018-5.018v-83.154c0-1.331.529-2.607 1.47-3.548Z" fill="#512FC9" fill-opacity=".2"/></g><path d="M512.967 204.798v1.408h-2.772v7.806h-1.714v-7.806h-2.785v-1.408h7.271ZM519.868 204.798v1.363h-4.085v2.556h3.218v1.319h-3.218v2.606h4.085v1.37h-5.811v-9.214h5.811ZM523.067 212.597h3.689v1.415h-5.403v-9.214h1.714v7.799ZM533.752 204.798v1.363h-4.085v2.556h3.218v1.319h-3.218v2.606h4.085v1.37h-5.812v-9.214h5.812ZM541.87 207.736c0 2.096-1.415 3.001-3.575 3.033h-1.287v3.243h-1.714v-9.214h3.001c2.147.026 3.575.854 3.575 2.938Zm-1.714 0c0-1.122-.714-1.613-1.861-1.613h-1.287v3.308h1.287c1.173-.007 1.861-.542 1.861-1.695ZM551.701 207.525c.453 1.122.453 2.638 0 3.76-.675 1.663-2.058 2.829-4.326 2.829-2.269 0-3.67-1.173-4.339-2.829-.453-1.122-.453-2.638 0-3.76.675-1.663 2.064-2.829 4.339-2.829 2.262 0 3.651 1.172 4.326 2.829Zm-4.326 5.123c1.956 0 2.906-1.261 2.906-3.243s-.95-3.25-2.906-3.25c-1.963 0-2.925 1.262-2.925 3.25s.969 3.243 2.925 3.243ZM559.807 207.449c0 1.478-.872 2.243-2.032 2.631.216.121.401.3.561.529l2.306 3.403H559.1a.703.703 0 0 1-.643-.344l-1.937-2.951c-.153-.216-.268-.305-.625-.305h-.733v3.6h-1.714v-9.214h2.81c2.065.025 3.549.669 3.549 2.651Zm-1.675.127c0-1.039-.727-1.459-1.874-1.453h-1.096v3.059h1.071c1.147-.019 1.899-.491 1.899-1.606ZM567.874 204.798v1.408h-2.772v7.806h-1.714v-7.806h-2.784v-1.408h7.27ZM499.563 231.318c-1.249-1.848-2.046-4.454-1.651-7.57.223-1.777.835-3.192 1.651-4.447.28.191.611.318.854.548.102.153.076.312-.019.49-1.045 1.899-1.606 4.907-.905 7.551.223.841.497 1.651.911 2.383.127.223.064.555-.14.618M509.733 222.837c.452 1.096.452 2.625 0 3.721-.676 1.638-2.071 2.747-4.327 2.747h-3.517v-9.214h3.517c2.249.038 3.658 1.115 4.327 2.746Zm-4.327 5.104c1.956-.057 2.912-1.262 2.912-3.243 0-1.982-.956-3.186-2.912-3.244h-1.791v6.487h1.791ZM517.985 222.544c0 1.153-.74 1.669-1.638 2.001 1.268.287 1.899.968 1.899 2.052 0 1.879-1.408 2.708-3.352 2.708h-3.479v-9.214h3.18c1.956.019 3.39.567 3.39 2.453Zm-1.434 4.014c0-.968-.688-1.287-1.689-1.293h-1.733v2.702h1.74c1.038-.007 1.682-.415 1.682-1.409Zm-.274-3.81c0-1.039-.599-1.332-1.682-1.332h-1.466v2.664h1.37c1.071-.007 1.778-.319 1.778-1.332ZM524.554 228.005c.931 0 1.568-.446 1.536-1.345-.038-1.115-1.243-1.179-2.122-1.478-1.166-.402-2.16-.975-2.122-2.549.032-1.268.765-2.033 1.733-2.421.803-.325 1.982-.281 2.785.032a3.44 3.44 0 0 1 1.172.713l-.42.809c-.096.255-.408.325-.669.16-.408-.262-.867-.555-1.568-.542-.841.019-1.427.344-1.427 1.16 0 1.064 1.287 1.121 2.128 1.446 1.102.427 2.122.918 2.122 2.428 0 1.446-.765 2.319-1.842 2.759-.879.357-2.249.249-3.045-.102-.51-.223-.982-.51-1.338-.879l.497-.822c.146-.217.471-.274.732-.083.466.344 1.001.714 1.848.714ZM534.826 220.091v1.363h-4.085v2.555h3.218v1.319h-3.218v2.606h4.085v1.37h-5.811v-9.213h5.811ZM542.727 222.742c0 1.478-.873 2.242-2.032 2.631.216.121.401.3.56.529l2.307 3.403h-1.542a.705.705 0 0 1-.643-.344l-1.938-2.951c-.152-.216-.267-.305-.624-.305h-.733v3.6h-1.714v-9.214h2.81c2.065.025 3.549.669 3.549 2.651Zm-1.675.127c0-1.039-.727-1.459-1.874-1.453h-1.096v3.059h1.071c1.147-.019 1.899-.491 1.899-1.606ZM543.753 220.091h1.383a.565.565 0 0 1 .573.388c.797 2.078 1.631 4.117 2.377 6.226.076.216.127.446.185.688.095-.491.216-.918.363-1.293l2.16-5.621a.626.626 0 0 1 .567-.388h1.383l-3.721 9.214h-1.549M555.636 229.304h-1.72v-9.213h1.72v9.213ZM564.958 227.973c-.726.892-1.758 1.453-3.345 1.434-2.211-.026-3.524-1.16-4.135-2.817-.421-1.134-.421-2.695.038-3.798.688-1.663 2.103-2.771 4.384-2.803 1.402-.019 2.389.503 3.109 1.198l-.573.796c-.102.204-.433.249-.65.077a2.763 2.763 0 0 0-1.899-.612c-1.937.07-2.963 1.281-2.963 3.25 0 1.535.644 2.555 1.702 3.039.796.37 2.102.249 2.701-.153.268-.108.618-.707.956-.344M572.063 220.091v1.363h-4.084v2.556h3.218v1.319h-3.218v2.606h4.084v1.37h-5.811v-9.214h5.811ZM574.014 219.301c1.249 1.841 2.045 4.46 1.65 7.569-.223 1.778-.835 3.193-1.65 4.448-.281-.191-.618-.325-.854-.561-.115-.114-.064-.35.013-.484 1.07-1.886 1.605-4.894.911-7.544-.223-.848-.497-1.657-.905-2.39-.14-.261-.057-.503.134-.618" fill="#697986"/><path d="M516.072 138.065h39.857a1.462 1.462 0 0 0 1.34-2.079l-4.624-10.366c-.143-.573-.717-.889-1.161-.889h-30.839c-.43 0-1.018.308-1.326.889l-4.588 10.359c-.43 1.053.316 2.078 1.341 2.078v.008Zm40.753 1.469h-41.506c-.889 0-1.469.617-1.469 1.505v5.914c0 .889.573 1.47 1.469 1.47h41.506c.888 0 1.469-.574 1.469-1.47v-5.914c0-.888-.573-1.505-1.469-1.505Zm-8.889 5.95c-.889 0-1.506-.617-1.506-1.506 0-.888.617-1.469 1.506-1.469s1.469.573 1.469 1.469c0 .889-.573 1.506-1.469 1.506Zm7.383 0h-2.939c-.889 0-1.505-.617-1.505-1.506 0-.888.616-1.469 1.505-1.469h2.939c.889 0 1.506.573 1.506 1.469 0 .889-.617 1.506-1.506 1.506Zm1.506 14.803h-41.506c-.889 0-1.469.573-1.469 1.469v5.95c0 .889.573 1.47 1.469 1.47h41.506c.888 0 1.469-.574 1.469-1.47v-5.95c0-.889-.573-1.469-1.469-1.469Zm-8.889 5.914c-.889 0-1.506-.574-1.506-1.47 0-.889.617-1.469 1.506-1.469s1.469.573 1.469 1.469c0 .889-.573 1.47-1.469 1.47Zm7.383 0h-2.939c-.889 0-1.505-.574-1.505-1.47 0-.889.616-1.469 1.505-1.469h2.939c.889 0 1.506.573 1.506 1.469 0 .889-.617 1.47-1.506 1.47Zm1.506-16.273h-41.506c-.889 0-1.469.574-1.469 1.47v5.914c0 .889.573 1.505 1.469 1.505h41.506c.888 0 1.469-.616 1.469-1.505v-5.914c0-.889-.573-1.47-1.469-1.47Zm-35.556 5.914c-.889 0-1.505-.573-1.505-1.469 0-.889.616-1.506 1.505-1.506.889 0 1.47.617 1.47 1.506s-.574 1.469-1.47 1.469Zm4.444 0c-.888 0-1.505-.573-1.505-1.469 0-.889.617-1.506 1.505-1.506.889 0 1.47.617 1.47 1.506s-.573 1.469-1.47 1.469Zm4.445 0c-.889 0-1.506-.573-1.506-1.469 0-.889.617-1.506 1.506-1.506s1.469.617 1.469 1.506-.573 1.469-1.469 1.469Zm4.444 0c-.889 0-1.505-.573-1.505-1.469 0-.889.616-1.506 1.505-1.506.889 0 1.47.617 1.47 1.506s-.574 1.469-1.47 1.469Zm13.334 0c-.889 0-1.506-.573-1.506-1.469 0-.889.617-1.506 1.506-1.506s1.469.617 1.469 1.506-.573 1.469-1.469 1.469Zm7.383 0h-2.939c-.889 0-1.505-.573-1.505-1.469 0-.889.616-1.506 1.505-1.506h2.939c.889 0 1.506.617 1.506 1.506s-.617 1.469-1.506 1.469Z" fill="#512FC9"/><g filter="url(#g)"><path d="M729.57 105.376a4.3 4.3 0 0 1 4.301-4.301h83.155a4.3 4.3 0 0 1 4.301 4.301v83.154a4.304 4.304 0 0 1-4.301 4.301h-83.155a4.304 4.304 0 0 1-4.301-4.301v-83.154Z" fill="#fff"/></g><g filter="url(#h)"><path fill-rule="evenodd" clip-rule="evenodd" d="M733.871 101.792a3.585 3.585 0 0 0-3.584 3.584v83.154a3.585 3.585 0 0 0 3.584 3.585h83.155a3.585 3.585 0 0 0 3.584-3.585v-83.154a3.585 3.585 0 0 0-3.584-3.584h-83.155Zm-3.548.036a5.02 5.02 0 0 1 3.548-1.47h83.155a5.02 5.02 0 0 1 5.017 5.018v83.154a5.019 5.019 0 0 1-5.017 5.018h-83.155a5.018 5.018 0 0 1-5.017-5.018v-83.154c0-1.331.528-2.607 1.469-3.548Z" fill="#BECACF"/></g><path d="M740.961 214.012h-1.326a.586.586 0 0 1-.573-.389l-.688-1.879h-3.817l-.688 1.879a.63.63 0 0 1-.568.389h-1.331l3.619-9.214h1.752l3.62 9.214Zm-5.965-3.479h2.938c-.491-1.389-1.039-2.702-1.472-4.148-.421 1.465-.981 2.752-1.466 4.148ZM748.492 204.798c-.012.465.045.867-.165 1.166l-4.728 6.678h4.779v1.37h-7.003c.013-.427-.032-.873.159-1.141l4.741-6.709h-4.601v-1.364h6.818ZM751.379 210.31c.038 1.414.695 2.319 2.103 2.319 1.402 0 2.109-.892 2.109-2.313v-5.518h1.714v5.518c-.032 1.823-.898 2.97-2.23 3.518-.905.375-2.281.375-3.186 0-1.338-.548-2.224-1.695-2.224-3.518v-5.518h1.714v5.512ZM765.468 207.449c0 1.478-.873 2.243-2.033 2.631.217.122.401.3.561.529l2.306 3.403h-1.542a.704.704 0 0 1-.643-.344l-1.937-2.95c-.153-.217-.268-.306-.625-.306h-.733v3.6h-1.714v-9.214h2.81c2.065.026 3.55.669 3.55 2.651Zm-1.676.127c0-1.038-.727-1.459-1.874-1.453h-1.096v3.059h1.071c1.147-.019 1.899-.491 1.899-1.606ZM773.209 204.798v1.364h-4.085v2.555h3.218v1.319h-3.218v2.606h4.085v1.37h-5.812v-9.214h5.812ZM784.405 212.68c-.727.892-1.759 1.453-3.346 1.434-2.211-.026-3.523-1.16-4.135-2.817-.42-1.134-.42-2.695.038-3.797.688-1.663 2.103-2.772 4.384-2.804 1.402-.019 2.39.503 3.11 1.198l-.574.796c-.102.204-.433.249-.65.077a2.763 2.763 0 0 0-1.899-.612c-1.937.07-2.962 1.281-2.962 3.25 0 1.536.643 2.555 1.701 3.039.796.37 2.103.249 2.702-.153.267-.108.618-.707.955-.344M793.797 214.012h-1.325a.587.587 0 0 1-.573-.389l-.689-1.88h-3.816l-.689 1.88a.627.627 0 0 1-.567.389h-1.331l3.619-9.214h1.752l3.619 9.214Zm-5.964-3.479h2.938c-.491-1.389-1.039-2.702-1.472-4.149-.421 1.466-.981 2.753-1.466 4.149ZM801.672 212.68c-.726.892-1.758 1.453-3.345 1.434-2.211-.026-3.524-1.16-4.135-2.817-.421-1.134-.421-2.695.038-3.797.688-1.663 2.103-2.772 4.384-2.804 1.402-.019 2.389.503 3.109 1.198l-.573.796c-.102.204-.433.249-.65.077a2.765 2.765 0 0 0-1.899-.612c-1.937.07-2.963 1.281-2.963 3.25 0 1.536.644 2.555 1.701 3.039.797.37 2.103.249 2.702-.153.268-.108.618-.707.956-.344M810.74 214.012h-1.727v-4.027h-4.32v4.027h-1.727v-9.214h1.727v3.963h4.32v-3.963h1.727v9.214ZM818.412 204.798v1.364h-4.085v2.555h3.218v1.319h-3.218v2.606h4.085v1.37h-5.811v-9.214h5.811ZM750.111 220.091v1.363h-4.084v2.728h3.447v1.37h-3.447v3.753H744.3v-9.214h5.811ZM759.955 222.818c.453 1.121.453 2.638 0 3.759-.675 1.663-2.058 2.83-4.326 2.83-2.269 0-3.67-1.173-4.339-2.83-.453-1.121-.453-2.638 0-3.759.675-1.663 2.064-2.829 4.339-2.829 2.262 0 3.651 1.172 4.326 2.829Zm-4.326 5.123c1.956 0 2.905-1.262 2.905-3.243 0-1.982-.949-3.25-2.905-3.25-1.963 0-2.925 1.262-2.925 3.25s.969 3.243 2.925 3.243ZM768.06 222.742c0 1.478-.873 2.242-2.032 2.631.216.121.401.3.56.529l2.307 3.403h-1.542a.705.705 0 0 1-.643-.344l-1.938-2.951c-.152-.216-.267-.305-.624-.305h-.733v3.6h-1.714v-9.214h2.81c2.065.025 3.549.669 3.549 2.651Zm-1.675.127c0-1.039-.727-1.459-1.874-1.453h-1.096v3.059h1.071c1.147-.019 1.899-.491 1.899-1.606ZM778.867 222.741c0 1.479-.873 2.243-2.033 2.632.217.121.402.299.561.529l2.307 3.402h-1.542a.706.706 0 0 1-.644-.344l-1.937-2.95c-.153-.217-.268-.306-.624-.306h-.733v3.6h-1.714v-9.213h2.81c2.064.025 3.549.669 3.549 2.65Zm-1.676.128c0-1.039-.726-1.459-1.873-1.453h-1.096v3.058h1.07c1.147-.019 1.899-.49 1.899-1.605ZM786.609 220.091v1.363h-4.084v2.555h3.217v1.319h-3.217v2.606h4.084v1.37h-5.811v-9.213h5.811ZM795.938 222.837c.452 1.096.452 2.625 0 3.721-.676 1.638-2.071 2.746-4.327 2.746h-3.517v-9.213h3.517c2.249.038 3.658 1.115 4.327 2.746Zm-4.327 5.104c1.956-.058 2.912-1.262 2.912-3.243 0-1.982-.956-3.186-2.912-3.244h-1.79v6.487h1.79ZM799.551 229.304h-1.721v-9.213h1.721v9.213ZM803.998 228.005c.93 0 1.567-.446 1.535-1.345-.038-1.115-1.242-1.179-2.122-1.478-1.166-.402-2.16-.975-2.122-2.549.032-1.268.765-2.033 1.734-2.421.803-.325 1.981-.281 2.784.032.459.172.848.407 1.173.713l-.421.809c-.095.255-.408.325-.669.16-.408-.262-.867-.555-1.567-.542-.842.019-1.428.344-1.428 1.16 0 1.064 1.287 1.121 2.128 1.446 1.103.427 2.122.918 2.122 2.428 0 1.446-.764 2.319-1.841 2.759-.879.357-2.249.249-3.046-.102-.51-.223-.981-.51-1.338-.879l.497-.822c.146-.217.471-.274.733-.083.465.344 1 .714 1.848.714Z" fill="#697986"/><path d="M761.075 123.742h13.262V152c0 2.652-5.857 4.875-13.047 4.875h-.215c-7.297 0-13.262-2.223-13.262-4.875v-28.258h13.262Z" fill="#804998"/><path d="M761.405 156.867c-7.412 0-13.598-2.222-13.598-4.874v-28.696l13.591.337v33.233h.007Z" fill="#fff" fill-opacity=".2"/><path d="M774.337 124.193c0 2.653-5.964 5.198-13.262 5.198-7.297 0-13.262-2.545-13.262-5.198 0-2.666 5.965-4.874 13.262-4.874 7.298 0 13.262 2.208 13.262 4.874Z" fill="#fff"/><path d="M771.684 124.086c0 1.649-4.745 2.982-10.502 2.982-5.756 0-10.501-1.333-10.501-2.989 0-1.678 4.745-3.011 10.501-3.011 5.757 0 10.509 1.34 10.509 3.011" fill="#B8D432"/><path d="M752.674 125.85c1.878.774 4.975 1.218 8.401 1.218 3.427 0 6.524-.444 8.402-1.218-1.878-.775-4.975-1.219-8.402-1.219-3.426 0-6.423.552-8.401 1.219Z" fill="#7FBA00"/><path d="M789.821 123.742h13.262V152c0 2.652-5.857 4.874-13.047 4.874h-.215c-7.297 0-13.261-2.222-13.261-4.874v-28.258h13.261Z" fill="#804998"/><path d="M790.157 156.867c-7.412 0-13.605-2.222-13.605-4.874v-28.696l13.598.337v33.233h.007Z" fill="#fff" fill-opacity=".2"/><path d="M802.982 124.193c0 2.653-5.971 5.198-13.262 5.198-7.311 0-13.276-2.545-13.276-5.198 0-2.666 5.972-4.874 13.262-4.874 7.312 0 13.276 2.208 13.276 4.874Z" fill="#fff"/><path d="M800.33 124.086c0 1.649-4.753 2.982-10.509 2.982s-10.502-1.333-10.502-2.989c0-1.678 4.746-3.011 10.502-3.011s10.509 1.34 10.509 3.011" fill="#B8D432"/><path d="M781.312 125.85c1.878.774 4.974 1.218 8.401 1.218 3.426 0 6.523-.444 8.401-1.218-1.885-.775-4.975-1.219-8.401-1.219-3.427 0-6.423.552-8.401 1.219Z" fill="#7FBA00"/><path d="M789.821 156.867v-12.853c0-1.541-1.319-3.656-2.223-3.656h-24.301c-.903 0-2.222 2.115-2.222 3.656v12.853h28.746Z" fill="#fff" fill-opacity=".4"/><path d="M775.448 141.469h13.262v28.259c0 2.652-5.857 4.874-13.047 4.874h-.215c-7.297 0-13.261-2.222-13.261-4.874v-28.259h13.261Z" fill="#804998"/><path d="M775.771 174.595c-7.405 0-13.591-2.222-13.591-4.875v-28.695l13.598.337v33.233h-.007Z" fill="#fff" fill-opacity=".2"/><path d="M788.717 141.806c0 2.653-5.971 5.205-13.261 5.205-7.312 0-13.276-2.552-13.276-5.205 0-2.652 5.971-4.874 13.261-4.874 7.312 0 13.276 2.222 13.276 4.874Z" fill="#fff"/><path d="M786.064 141.692c0 1.663-4.753 2.989-10.609 2.989-5.864 0-10.624-1.326-10.624-2.989 0-1.663 4.76-2.99 10.609-2.99 5.864 0 10.624 1.319 10.624 2.982" fill="#B8D432"/><path d="M766.932 143.462c1.878.774 4.975 1.219 8.516 1.219 3.426 0 6.523-.445 8.516-1.219-1.878-.774-4.975-1.218-8.516-1.218-3.42 0-6.524.552-8.516 1.218Z" fill="#7FBA00"/><path fill-rule="evenodd" clip-rule="evenodd" d="M238.28 147.67H108.244v-1.434H238.28v1.434Z" fill="#697986"/><path d="M108.266 147.67h-.739v-1.434h.739v1.434Z" fill="#697986"/><path fill-rule="evenodd" clip-rule="evenodd" d="M107.509 146.219h.774v1.469h-.774v-1.469Zm.036.035v1.398h.702v-1.398h-.702Z" fill="#697986"/><path d="m249.211 146.953-10.222 3.319v-6.638l10.222 3.319Z" fill="#697986"/><path fill-rule="evenodd" clip-rule="evenodd" d="m238.272 142.648 13.261 4.305-13.261 4.306v-8.611Zm1.434 1.973v4.665l7.184-2.333-7.184-2.332ZM715.592 147.67H584.101v-1.434h131.491v1.434Z" fill="#697986"/><path d="M584.122 147.67h-.738v-1.434h.738v1.434Z" fill="#697986"/><path fill-rule="evenodd" clip-rule="evenodd" d="M583.365 146.219h.774v1.469h-.774v-1.469Zm.036.036v1.397h.703v-1.397h-.703Z" fill="#697986"/><path d="m726.538 146.953-10.229 3.319v-6.638l10.229 3.319Z" fill="#697986"/><path fill-rule="evenodd" clip-rule="evenodd" d="m715.592 142.648 13.269 4.305-13.269 4.305v-8.61Zm1.433 1.972v4.666l7.19-2.333-7.19-2.333ZM476.932 147.67H345.448v-1.433h131.484v1.433Z" fill="#697986"/><path d="M345.448 147.67h-.717v-1.434h.717v1.434Z" fill="#697986"/><path fill-rule="evenodd" clip-rule="evenodd" d="M344.713 146.219h.753v1.469h-.753v-1.469Zm.036.036v1.397h.681v-1.397h-.681Z" fill="#697986"/><path d="m487.871 146.953-10.223 3.319v-6.638l10.223 3.319Z" fill="#697986"/><path fill-rule="evenodd" clip-rule="evenodd" d="m476.932 142.648 13.26 4.305-13.26 4.306v-8.611Zm1.433 1.973v4.665l7.184-2.333-7.184-2.332Z" fill="#697986"/><defs><filter id="a" x="5.054" y="95.075" width="111.756" height="111.756" filterUnits="userSpaceOnUse" color-interpolation-filters="sRGB"><feFlood flood-opacity="0" result="BackgroundImageFix"/><feColorMatrix in="SourceAlpha" values="0 0 0 0 0 0 0 0 0 0 0 0 0 0 0 0 0 0 127 0" result="hardAlpha"/><feOffset dy="4"/><feGaussianBlur stdDeviation="5"/><feColorMatrix values="0 0 0 0 0 0 0 0 0 0 0 0 0 0 0 0 0 0 0.0980392 0"/><feBlend in2="BackgroundImageFix" result="effect1_dropShadow_11948_8764"/><feBlend in="SourceGraphic" in2="effect1_dropShadow_11948_8764" result="shape"/></filter><filter id="b" x="4.337" y="94.358" width="113.19" height="113.19" filterUnits="userSpaceOnUse" color-interpolation-filters="sRGB"><feFlood flood-opacity="0" result="BackgroundImageFix"/><feColorMatrix in="SourceAlpha" values="0 0 0 0 0 0 0 0 0 0 0 0 0 0 0 0 0 0 127 0" result="hardAlpha"/><feOffset dy="4"/><feGaussianBlur stdDeviation="5"/><feColorMatrix values="0 0 0 0 0 0 0 0 0 0 0 0 0 0 0 0 0 0 0.0980392 0"/><feBlend in2="BackgroundImageFix" result="effect1_dropShadow_11948_8764"/><feBlend in="SourceGraphic" in2="effect1_dropShadow_11948_8764" result="shape"/></filter><filter id="c" x="242.258" y="95.075" width="111.756" height="111.756" filterUnits="userSpaceOnUse" color-interpolation-filters="sRGB"><feFlood flood-opacity="0" result="BackgroundImageFix"/><feColorMatrix in="SourceAlpha" values="0 0 0 0 0 0 0 0 0 0 0 0 0 0 0 0 0 0 127 0" result="hardAlpha"/><feOffset dy="4"/><feGaussianBlur stdDeviation="5"/><feColorMatrix values="0 0 0 0 0.0311419 0 0 0 0 0.01807 0 0 0 0 0.077278 0 0 0 0.0980392 0"/><feBlend in2="BackgroundImageFix" result="effect1_dropShadow_11948_8764"/><feBlend in="SourceGraphic" in2="effect1_dropShadow_11948_8764" result="shape"/></filter><filter id="d" x="241.541" y="94.358" width="113.19" height="113.19" filterUnits="userSpaceOnUse" color-interpolation-filters="sRGB"><feFlood flood-opacity="0" result="BackgroundImageFix"/><feColorMatrix in="SourceAlpha" values="0 0 0 0 0 0 0 0 0 0 0 0 0 0 0 0 0 0 127 0" result="hardAlpha"/><feOffset dy="4"/><feGaussianBlur stdDeviation="5"/><feColorMatrix values="0 0 0 0 0.0311419 0 0 0 0 0.01807 0 0 0 0 0.077278 0 0 0 0.0980392 0"/><feBlend in2="BackgroundImageFix" result="effect1_dropShadow_11948_8764"/><feBlend in="SourceGraphic" in2="effect1_dropShadow_11948_8764" result="shape"/></filter><filter id="e" x="480.91" y="95.075" width="111.756" height="111.756" filterUnits="userSpaceOnUse" color-interpolation-filters="sRGB"><feFlood flood-opacity="0" result="BackgroundImageFix"/><feColorMatrix in="SourceAlpha" values="0 0 0 0 0 0 0 0 0 0 0 0 0 0 0 0 0 0 127 0" result="hardAlpha"/><feOffset dy="4"/><feGaussianBlur stdDeviation="5"/><feColorMatrix values="0 0 0 0 0.0311419 0 0 0 0 0.01807 0 0 0 0 0.077278 0 0 0 0.0980392 0"/><feBlend in2="BackgroundImageFix" result="effect1_dropShadow_11948_8764"/><feBlend in="SourceGraphic" in2="effect1_dropShadow_11948_8764" result="shape"/></filter><filter id="f" x="480.193" y="94.358" width="113.19" height="113.19" filterUnits="userSpaceOnUse" color-interpolation-filters="sRGB"><feFlood flood-opacity="0" result="BackgroundImageFix"/><feColorMatrix in="SourceAlpha" values="0 0 0 0 0 0 0 0 0 0 0 0 0 0 0 0 0 0 127 0" result="hardAlpha"/><feOffset dy="4"/><feGaussianBlur stdDeviation="5"/><feColorMatrix values="0 0 0 0 0.0311419 0 0 0 0 0.01807 0 0 0 0 0.077278 0 0 0 0.0980392 0"/><feBlend in2="BackgroundImageFix" result="effect1_dropShadow_11948_8764"/><feBlend in="SourceGraphic" in2="effect1_dropShadow_11948_8764" result="shape"/></filter><filter id="g" x="719.57" y="95.075" width="111.756" height="111.756" filterUnits="userSpaceOnUse" color-interpolation-filters="sRGB"><feFlood flood-opacity="0" result="BackgroundImageFix"/><feColorMatrix in="SourceAlpha" values="0 0 0 0 0 0 0 0 0 0 0 0 0 0 0 0 0 0 127 0" result="hardAlpha"/><feOffset dy="4"/><feGaussianBlur stdDeviation="5"/><feColorMatrix values="0 0 0 0 0 0 0 0 0 0 0 0 0 0 0 0 0 0 0.0980392 0"/><feBlend in2="BackgroundImageFix" result="effect1_dropShadow_11948_8764"/><feBlend in="SourceGraphic" in2="effect1_dropShadow_11948_8764" result="shape"/></filter><filter id="h" x="718.854" y="94.358" width="113.19" height="113.19" filterUnits="userSpaceOnUse" color-interpolation-filters="sRGB"><feFlood flood-opacity="0" result="BackgroundImageFix"/><feColorMatrix in="SourceAlpha" values="0 0 0 0 0 0 0 0 0 0 0 0 0 0 0 0 0 0 127 0" result="hardAlpha"/><feOffset dy="4"/><feGaussianBlur stdDeviation="5"/><feColorMatrix values="0 0 0 0 0 0 0 0 0 0 0 0 0 0 0 0 0 0 0.0980392 0"/><feBlend in2="BackgroundImageFix" result="effect1_dropShadow_11948_8764"/><feBlend in="SourceGraphic" in2="effect1_dropShadow_11948_8764" result="shape"/></filter></defs></svg>