<svg xmlns="http://www.w3.org/2000/svg" xmlns:xlink="http://www.w3.org/1999/xlink" xmlns:lucid="lucid" width="1198" height="381"><g transform="translate(-120 -40)" lucid:page-tab-id="0_0"><path d="M0 0h1760v1360H0z" fill="#fff"/><g filter="url(#a)"><path d="M420 180h200v60H420z" stroke="#326ce5" stroke-width="4" fill="#fff"/><use xlink:href="#b" transform="matrix(1,0,0,1,425,185) translate(34.43000000000001 32.400999999999996)"/><use xlink:href="#c" transform="matrix(1,0,0,1,425,185) translate(108.86 32.400999999999996)"/></g><path d="M180 210h160v60H180z" stroke="#326ce5" stroke-width="4" fill="#fff"/><use xlink:href="#d" transform="matrix(1,0,0,1,185,215) translate(20.802000000000007 32.400999999999996)"/><use xlink:href="#e" transform="matrix(1,0,0,1,185,215) translate(69.708 32.400999999999996)"/><path d="M160 270h160v60H160z" stroke="#326ce5" stroke-width="4" fill="#fff"/><use xlink:href="#d" transform="matrix(1,0,0,1,165,275) translate(20.802000000000007 32.400999999999996)"/><use xlink:href="#e" transform="matrix(1,0,0,1,165,275) translate(69.708 32.400999999999996)"/><path d="M140 330h160v60H140z" stroke="#326ce5" stroke-width="4" fill="#fff"/><use xlink:href="#d" transform="matrix(1,0,0,1,145,335) translate(20.802000000000007 32.400999999999996)"/><use xlink:href="#e" transform="matrix(1,0,0,1,145,335) translate(69.708 32.400999999999996)"/><path d="M303 360h57V210h39.5" stroke="#c1e4f7" stroke-width="2" fill="none"/><path d="M303.03 361H302v-2h1.03z" fill="#c1e4f7"/><path d="M414.76 210l-14.26 4.64v-9.28z" stroke="#c1e4f7" stroke-width="2" fill="#c1e4f7"/><path d="M323 300h37v-90h39.5" stroke="#c1e4f7" stroke-width="2" fill="none"/><path d="M323.03 301H322v-2h1.03z" fill="#c1e4f7"/><path d="M414.76 210l-14.26 4.64v-9.28z" stroke="#c1e4f7" stroke-width="2" fill="#c1e4f7"/><path d="M343 240h17v-30h39.5" stroke="#c1e4f7" stroke-width="2" fill="none"/><path d="M343.03 241H342v-2h1.03z" fill="#c1e4f7"/><path d="M414.76 210l-14.26 4.64v-9.28z" stroke="#c1e4f7" stroke-width="2" fill="#c1e4f7"/><path d="M1098 210h160v60h-160z" stroke="#326ce5" stroke-width="4" fill="#fff"/><use xlink:href="#d" transform="matrix(1,0,0,1,1103,215) translate(20.802000000000007 32.400999999999996)"/><use xlink:href="#e" transform="matrix(1,0,0,1,1103,215) translate(69.708 32.400999999999996)"/><path d="M1118 270h160v60h-160z" stroke="#326ce5" stroke-width="4" fill="#fff"/><use xlink:href="#d" transform="matrix(1,0,0,1,1123,275) translate(20.802000000000007 32.400999999999996)"/><use xlink:href="#e" transform="matrix(1,0,0,1,1123,275) translate(69.708 32.400999999999996)"/><path d="M1138 330h160v60h-160z" stroke="#326ce5" stroke-width="4" fill="#fff"/><use xlink:href="#d" transform="matrix(1,0,0,1,1143,335) translate(20.802000000000007 32.400999999999996)"/><use xlink:href="#e" transform="matrix(1,0,0,1,1143,335) translate(69.708 32.400999999999996)"/><path d="M1135 360h-66V210h-48.5" stroke="#c1e4f7" stroke-width="2" fill="none"/><path d="M1136 361h-1.03v-2h1.03z" fill="#c1e4f7"/><path d="M1005.24 210l14.26-4.64v9.28z" stroke="#c1e4f7" stroke-width="2" fill="#c1e4f7"/><path d="M1115 300h-45v-90h-49.5" stroke="#c1e4f7" stroke-width="2" fill="none"/><path d="M1116 301h-1.03v-2h1.03z" fill="#c1e4f7"/><path d="M1005.24 210l14.26-4.64v9.28z" stroke="#c1e4f7" stroke-width="2" fill="#c1e4f7"/><path d="M1095 240h-25v-30h-49.5" stroke="#c1e4f7" stroke-width="2" fill="none"/><path d="M1096 241h-1.03v-2h1.03z" fill="#c1e4f7"/><path d="M1005.24 210l14.26-4.64v9.28z" stroke="#c1e4f7" stroke-width="2" fill="#c1e4f7"/><path d="M779.9 92.88V398" fill="none"/><path d="M779.9 92.88v20.34m0 20.34v40.7m0 20.33v40.67m0 20.34v40.7m0 20.33v40.7m0 20.33V398" stroke="#ffbbb1" stroke-width="4" fill="none"/><path d="M781.9 92.93h-4v-2.05h4z" fill="#ffbbb1"/><path d="M779.9 397.95V400" stroke="#ffbbb1" stroke-width="4" fill="none"/><path d="M739.8 60H820v30.88h-80.2z" fill="#fff" fill-opacity="0"/><use xlink:href="#f" transform="matrix(1,0,0,1,744.8,65) translate(0 16.776)"/><path d="M800 230H666v20l-36-40 36-40v20h134z" fill="#fff"/><path d="M786.6 230h-11.5m-7.64 0h-11.5m-7.65 0h-11.47m-7.66 0H717.7m-7.67 0h-11.5m-7.64 0h-11.5m-7.66 0H666v6m0 8v6l-3.6-4m-4.8-5.33l-7.2-8m-4.8-5.34l-7.2-8m-4.8-5.33l-3.6-4 3.6-4m4.8-5.33l7.2-8m4.8-5.34l7.2-8m4.8-5.33l3.6-4v6m0 8v6h5.74m7.66 0h11.5m7.64 0h11.5m7.65 0h11.47m7.66 0h11.48m7.67 0h11.5m7.64 0h11.5m7.66 0H800v6m0 8v12m0 8v6h-5.74" stroke="#0c7cba" stroke-width="4" fill="none"/><g filter="url(#a)"><path d="M800 180h200v60H800z" stroke="#326ce5" stroke-width="4" fill="#fff"/><use xlink:href="#b" transform="matrix(1,0,0,1,805,185) translate(34.43000000000001 32.400999999999996)"/><use xlink:href="#c" transform="matrix(1,0,0,1,805,185) translate(108.86 32.400999999999996)"/></g><path d="M814.98 128.24H985V180H814.98z" fill="#fff" fill-opacity="0"/><use xlink:href="#g" transform="matrix(1,0,0,1,819.975,133.24) translate(7.25800000000001 27.276)"/><use xlink:href="#h" transform="matrix(1,0,0,1,819.975,133.24) translate(61.69 27.276)"/><use xlink:href="#i" transform="matrix(1,0,0,1,819.975,133.24) translate(97.52799999999999 27.276)"/><path d="M434.98 128.24H605V180H435z" fill="#fff" fill-opacity="0"/><g><use xlink:href="#j" transform="matrix(1,0,0,1,439.975,133.24) translate(2.9560000000000173 27.276)"/><use xlink:href="#k" transform="matrix(1,0,0,1,439.975,133.24) translate(61.888000000000005 27.276)"/><use xlink:href="#i" transform="matrix(1,0,0,1,439.975,133.24) translate(101.83 27.276)"/></g><path d="M674.9 158.68h80.2v30.88h-80.2z" fill="#fff" fill-opacity="0"/><g><use xlink:href="#l" transform="matrix(1,0,0,1,679.9,163.68) translate(0 16.776)"/></g><path d="M624 210h151.26" stroke="#a3d977" stroke-width="4" fill="none"/><path d="M624.05 212H622v-4h2.05z" fill="#a3d977"/><path d="M791.53 210l-14.27 4.64v-9.28z" stroke="#a3d977" stroke-width="4" fill="#a3d977"/><defs><path fill="#4e75ff" d="M551-693v84H333V0h-97v-609H18v-84h533" id="m"/><path fill="#4e75ff" d="M315 12C141 9 53-87 53-259c0-164 81-274 237-274 163 0 227 118 216 298H150c9 108 58 165 175 165 54 0 101-11 133-25l13 78c-33 16-99 31-156 29zm95-322c8-101-82-177-178-132-47 22-73 71-80 132h258" id="n"/><path fill="#4e75ff" d="M173-151c-3 59 26 79 78 83l-13 78C129 7 80-30 80-136v-624l93-16v625" id="o"/><path fill="#4e75ff" d="M294-70c109-2 147-79 149-189 2-113-59-188-165-189-45 0-73 2-103 10v328c24 19 73 42 119 40zm-15-461c169 5 261 102 261 272C540-98 465 6 306 12c-51 2-103-18-131-35v208H82v-689c54-12 122-29 197-27" id="p"/><path fill="#4e75ff" d="M297-533c160 0 244 110 244 273S457 13 297 13 53-97 53-260s84-273 244-273zm0 464c98 0 147-85 147-191s-49-191-147-191-147 85-147 191S199-69 297-69" id="q"/><path fill="#4e75ff" d="M82-498c73-28 204-47 296-18l-16 81c-44-19-138-19-187-2V0H82v-498" id="r"/><path fill="#4e75ff" d="M257 11C121 11 76-66 76-201v-464l93-16v161h197v78H169v240c-1 80 17 131 96 131 43 0 79-13 103-23l18 77c-27 12-82 28-129 28" id="s"/><g id="b"><use transform="matrix(0.018,0,0,0.018,0,0)" xlink:href="#m"/><use transform="matrix(0.018,0,0,0.018,9.251999999999999,0)" xlink:href="#n"/><use transform="matrix(0.018,0,0,0.018,19.385999999999996,0)" xlink:href="#o"/><use transform="matrix(0.018,0,0,0.018,24.372,0)" xlink:href="#n"/><use transform="matrix(0.018,0,0,0.018,34.50599999999999,0)" xlink:href="#p"/><use transform="matrix(0.018,0,0,0.018,45.18,0)" xlink:href="#q"/><use transform="matrix(0.018,0,0,0.018,55.87199999999999,0)" xlink:href="#r"/><use transform="matrix(0.018,0,0,0.018,62.891999999999996,0)" xlink:href="#s"/></g><path fill="#4e75ff" d="M88-683c49-13 125-17 184-17 175 0 303 59 303 221 0 202-179 229-390 222V0H88v-683zm385 203c0-140-156-141-288-132v272c146 2 288 4 288-140" id="t"/><path fill="#4e75ff" d="M18 0c47-93 120-191 180-273L26-520h105l124 182 125-182h99L311-279C371-196 448-94 495 0H393c-39-75-91-148-140-214-49 66-99 140-139 214H18" id="u"/><path fill="#4e75ff" d="M266-100c50-137 84-270 119-420h96C435-330 371-148 306 16 261 129 164 226 4 172l17-75c41 21 118 16 149-11 20-17 39-42 56-79C145-149 66-333 18-520h100c37 148 89 293 148 420" id="v"/><g id="c"><use transform="matrix(0.018,0,0,0.018,0,0)" xlink:href="#t"/><use transform="matrix(0.018,0,0,0.018,11.016,0)" xlink:href="#r"/><use transform="matrix(0.018,0,0,0.018,18.036,0)" xlink:href="#q"/><use transform="matrix(0.018,0,0,0.018,28.421999999999997,0)" xlink:href="#u"/><use transform="matrix(0.018,0,0,0.018,37.692,0)" xlink:href="#v"/></g><filter id="a" filterUnits="objectBoundingBox" x="-.05" y="-.07" width="1.1" height="1.33"><feOffset result="offOut" in="SourceAlpha" dy="6"/><feGaussianBlur result="blurOut" in="offOut" stdDeviation="5"/><feColorMatrix result="colorOut" in="blurOut" values="0 0 0 0 0 0 0 0 0 0 0 0 0 0 0 0 0 0 0.5019607843137255 0"/><feBlend in="SourceGraphic" in2="colorOut"/></filter><path fill="#4e75ff" d="M563 0C450-189 321-377 183-541V0H88v-693h77c137 151 274 337 384 513v-513h95V0h-81" id="w"/><path fill="#4e75ff" d="M315-70c41 0 75-4 103-11v-329c-24-19-73-42-119-40-110 2-147 80-149 190-2 113 59 189 165 190zm-28-462c51-2 103 18 131 35v-263l93-16v761C458-1 388 13 314 12 145 7 53-90 53-260c0-162 75-266 234-272" id="x"/><g id="d"><use transform="matrix(0.018,0,0,0.018,0,0)" xlink:href="#w"/><use transform="matrix(0.018,0,0,0.018,13.175999999999998,0)" xlink:href="#q"/><use transform="matrix(0.018,0,0,0.018,23.867999999999995,0)" xlink:href="#x"/><use transform="matrix(0.018,0,0,0.018,34.541999999999994,0)" xlink:href="#n"/></g><path fill="#4e75ff" d="M64-114c42 22 110 45 185 45 127 0 189-72 139-159-74-129-329-76-337-288-8-203 271-234 423-150l-31 79c-73-47-295-73-292 60 2 88 82 103 147 131 102 44 200 79 205 222C510 40 191 50 35-34" id="y"/><path fill="#4e75ff" d="M255-109c52-125 101-269 137-411h96C441-339 364-151 295 0h-84C142-151 64-339 18-520h100c36 142 85 286 137 411" id="z"/><path fill="#4e75ff" d="M175 0H82v-520h93V0zm13-675c0 35-26 61-60 61s-60-26-60-61 26-61 60-61 60 26 60 61" id="A"/><path fill="#4e75ff" d="M447-14c-35 17-88 26-139 26C139 12 53-90 53-259c0-187 118-299 319-268 23 4 46 10 67 19l-21 79c-28-13-66-22-107-22-111 1-162 75-161 192 1 118 51 189 170 189 43 1 87-10 114-22" id="B"/><g id="e"><use transform="matrix(0.018,0,0,0.018,0,0)" xlink:href="#y"/><use transform="matrix(0.018,0,0,0.018,9.648,0)" xlink:href="#n"/><use transform="matrix(0.018,0,0,0.018,19.782,0)" xlink:href="#r"/><use transform="matrix(0.018,0,0,0.018,27.18,0)" xlink:href="#z"/><use transform="matrix(0.018,0,0,0.018,36.288,0)" xlink:href="#A"/><use transform="matrix(0.018,0,0,0.018,40.913999999999994,0)" xlink:href="#B"/><use transform="matrix(0.018,0,0,0.018,49.355999999999995,0)" xlink:href="#n"/></g><path fill="#4e75ff" d="M88 0v-693h418v83H185v209h285v82H185V0H88" id="C"/><path fill="#4e75ff" d="M761-520C714-334 656-153 588 0h-81c-40-105-86-236-117-357-31 122-76 252-116 357h-81C125-153 67-334 20-520h100c31 138 71 286 118 407 45-126 85-269 117-407h77c30 140 70 281 115 407 46-123 88-268 118-407h96" id="D"/><path fill="#4e75ff" d="M139-156c0 106 132 93 220 82v-155c-78-22-220-23-220 73zm-94 1c-2-152 173-180 314-148 5-94-26-150-117-150-50 0-101 8-132 20l-11-77c32-13 99-23 151-23 135 0 201 66 200 199V-9C390 1 319 11 247 11 126 11 46-34 45-155" id="E"/><g id="f"><use transform="matrix(0.018,0,0,0.018,0,0)" xlink:href="#C"/><use transform="matrix(0.018,0,0,0.018,9.738,0)" xlink:href="#A"/><use transform="matrix(0.018,0,0,0.018,14.363999999999999,0)" xlink:href="#r"/><use transform="matrix(0.018,0,0,0.018,21.383999999999997,0)" xlink:href="#n"/><use transform="matrix(0.018,0,0,0.018,31.518,0)" xlink:href="#D"/><use transform="matrix(0.018,0,0,0.018,45.57599999999999,0)" xlink:href="#E"/><use transform="matrix(0.018,0,0,0.018,55.044,0)" xlink:href="#o"/><use transform="matrix(0.018,0,0,0.018,60.029999999999994,0)" xlink:href="#o"/></g><path fill="#4e75ff" d="M95-501c-14-80-24-166-21-259h97c3 93-7 179-21 259H95zm177 0c-14-80-24-166-21-259h97c3 93-7 179-21 259h-55" id="F"/><path fill="#4e75ff" d="M59-97c36 13 83 32 144 30 63-2 112-9 112-63 0-99-160-93-221-153-24-24-44-52-44-100 0-151 196-178 331-127l-17 80c-60-35-257-49-214 69 69 92 264 59 259 227-2 107-89 146-206 146C133 12 82-2 42-17" id="G"/><g id="g"><use transform="matrix(0.018,0,0,0.018,0,0)" xlink:href="#F"/><use transform="matrix(0.018,0,0,0.018,7.595999999999999,0)" xlink:href="#n"/><use transform="matrix(0.018,0,0,0.018,17.729999999999997,0)" xlink:href="#E"/><use transform="matrix(0.018,0,0,0.018,27.197999999999997,0)" xlink:href="#G"/><use transform="matrix(0.018,0,0,0.018,35.297999999999995,0)" xlink:href="#s"/><use transform="matrix(0.018,0,0,0.018,42.605999999999995,0)" xlink:href="#F"/></g><path fill="#4e75ff" d="M82-567C68-745 227-812 397-759l-17 80c-21-10-52-17-88-17-102 0-122 72-117 176h200v78H175V0H82v-567" id="H"/><g id="h"><use transform="matrix(0.018,0,0,0.018,0,0)" xlink:href="#o"/><use transform="matrix(0.018,0,0,0.018,4.986,0)" xlink:href="#n"/><use transform="matrix(0.018,0,0,0.018,15.119999999999997,0)" xlink:href="#E"/><use transform="matrix(0.018,0,0,0.018,24.587999999999997,0)" xlink:href="#H"/></g><path fill="#4e75ff" d="M300-71c36 0 74-3 103-10v-439h93v505C441-2 367 11 290 11 138 11 76-78 76-228v-292h93v272c2 116 24 177 131 177" id="I"/><g id="i"><use transform="matrix(0.018,0,0,0.018,0,0)" xlink:href="#B"/><use transform="matrix(0.018,0,0,0.018,8.442,0)" xlink:href="#o"/><use transform="matrix(0.018,0,0,0.018,13.428,0)" xlink:href="#I"/><use transform="matrix(0.018,0,0,0.018,23.832,0)" xlink:href="#G"/><use transform="matrix(0.018,0,0,0.018,31.932000000000002,0)" xlink:href="#s"/><use transform="matrix(0.018,0,0,0.018,39.06,0)" xlink:href="#n"/><use transform="matrix(0.018,0,0,0.018,49.194,0)" xlink:href="#r"/></g><path fill="#4e75ff" d="M278-449c-36 0-74 4-103 10V0H82v-505c94-23 290-55 347 27 41-28 96-52 166-53 149-3 194 91 194 239V0h-93v-272c0-100-11-177-111-177-50 0-96 17-119 35 30 114 10 276 16 414h-93v-272c0-99-12-179-111-177" id="J"/><path fill="#4e75ff" d="M279-449c-36 1-74 4-104 10V0H82v-505c55-13 130-26 207-26 153 0 213 87 213 239V0h-93v-272c1-107-22-180-130-177" id="K"/><g id="j"><use transform="matrix(0.018,0,0,0.018,0,0)" xlink:href="#F"/><use transform="matrix(0.018,0,0,0.018,7.595999999999999,0)" xlink:href="#J"/><use transform="matrix(0.018,0,0,0.018,23.165999999999997,0)" xlink:href="#E"/><use transform="matrix(0.018,0,0,0.018,32.634,0)" xlink:href="#A"/><use transform="matrix(0.018,0,0,0.018,37.26,0)" xlink:href="#K"/><use transform="matrix(0.018,0,0,0.018,47.105999999999995,0)" xlink:href="#F"/></g><g id="k"><use transform="matrix(0.018,0,0,0.018,0,0)" xlink:href="#r"/><use transform="matrix(0.018,0,0,0.018,7.02,0)" xlink:href="#q"/><use transform="matrix(0.018,0,0,0.018,17.711999999999996,0)" xlink:href="#q"/><use transform="matrix(0.018,0,0,0.018,28.403999999999996,0)" xlink:href="#s"/></g><g id="l"><use transform="matrix(0.018,0,0,0.018,0,0)" xlink:href="#m"/><use transform="matrix(0.018,0,0,0.018,9.629999999999999,0)" xlink:href="#I"/><use transform="matrix(0.018,0,0,0.018,20.034,0)" xlink:href="#K"/><use transform="matrix(0.018,0,0,0.018,30.438,0)" xlink:href="#K"/><use transform="matrix(0.018,0,0,0.018,40.842,0)" xlink:href="#n"/><use transform="matrix(0.018,0,0,0.018,50.976,0)" xlink:href="#o"/></g></defs></g></svg>