<svg height="841" width="1309.12" xmlns="http://www.w3.org/2000/svg" xmlns:xlink="http://www.w3.org/1999/xlink"><defs><path id="a" d="m551-693v84h-218v609h-97v-609h-218v-84z" fill="#4e75ff"/><path id="b" d="m315 12c-174-3-262-99-262-271 0-164 81-274 237-274 163 0 227 118 216 298h-356c9 108 58 165 175 165 54 0 101-11 133-25l13 78c-33 16-99 31-156 29zm95-322c8-101-82-177-178-132-47 22-73 71-80 132z" fill="#4e75ff"/><path id="c" d="m173-151c-3 59 26 79 78 83l-13 78c-109-3-158-40-158-146v-624l93-16z" fill="#4e75ff"/><path id="d" d="m297-533c160 0 244 110 244 273s-84 273-244 273-244-110-244-273 84-273 244-273zm0 464c98 0 147-85 147-191s-49-191-147-191-147 85-147 191 49 191 147 191" fill="#4e75ff"/><path id="e" d="m82-498c73-28 204-47 296-18l-16 81c-44-19-138-19-187-2v437h-93z" fill="#4e75ff"/><path id="f" d="m257 11c-136 0-181-77-181-212v-464l93-16v161h197v78h-197v240c-1 80 17 131 96 131 43 0 79-13 103-23l18 77c-27 12-82 28-129 28" fill="#4e75ff"/><g id="g"><use transform="scale(.018)" xlink:href="#a"/><use transform="matrix(.018 0 0 .018 9.252 0)" xlink:href="#b"/><use transform="matrix(.018 0 0 .018 19.386 0)" xlink:href="#c"/><use transform="matrix(.018 0 0 .018 24.372 0)" xlink:href="#b"/><path d="m294-70c109-2 147-79 149-189 2-113-59-188-165-189-45 0-73 2-103 10v328c24 19 73 42 119 40zm-15-461c169 5 261 102 261 272 0 161-75 265-234 271-51 2-103-18-131-35v208h-93v-689c54-12 122-29 197-27" fill="#4e75ff" transform="matrix(.018 0 0 .018 34.506 0)"/><use transform="matrix(.018 0 0 .018 45.18 0)" xlink:href="#d"/><use transform="matrix(.018 0 0 .018 55.872 0)" xlink:href="#e"/><use transform="matrix(.018 0 0 .018 62.892 0)" xlink:href="#f"/></g><g id="h"><path d="m88-683c49-13 125-17 184-17 175 0 303 59 303 221 0 202-179 229-390 222v257h-97zm385 203c0-140-156-141-288-132v272c146 2 288 4 288-140" fill="#4e75ff" transform="scale(.018)"/><use transform="matrix(.018 0 0 .018 11.016 0)" xlink:href="#e"/><use transform="matrix(.018 0 0 .018 18.036 0)" xlink:href="#d"/><path d="m18 0c47-93 120-191 180-273l-172-247h105l124 182 125-182h99l-168 241c60 83 137 185 184 279h-102c-39-75-91-148-140-214-49 66-99 140-139 214z" fill="#4e75ff" transform="matrix(.018 0 0 .018 28.422 0)"/><path d="m266-100c50-137 84-270 119-420h96c-46 190-110 372-175 536-45 113-142 210-302 156l17-75c41 21 118 16 149-11 20-17 39-42 56-79-81-156-160-340-208-527h100c37 148 89 293 148 420" fill="#4e75ff" transform="matrix(.018 0 0 .018 37.692 0)"/></g><filter id="i" height="1.33" width="1.1" x="-.05" y="-.07"><feOffset dy="6" in="SourceAlpha" result="offOut"/><feGaussianBlur in="offOut" result="blurOut" stdDeviation="5"/><feColorMatrix in="blurOut" result="colorOut" values="0 0 0 0 0 0 0 0 0 0 0 0 0 0 0 0 0 0 0.5019607843137255 0"/><feBlend in="SourceGraphic" in2="colorOut"/></filter><g id="j"><path d="m563 0c-113-189-242-377-380-541v541h-95v-693h77c137 151 274 337 384 513v-513h95v693z" fill="#4e75ff" transform="scale(.018)"/><use transform="matrix(.018 0 0 .018 13.176 0)" xlink:href="#d"/><path d="m315-70c41 0 75-4 103-11v-329c-24-19-73-42-119-40-110 2-147 80-149 190-2 113 59 189 165 190zm-28-462c51-2 103 18 131 35v-263l93-16v761c-53 14-123 28-197 27-169-5-261-102-261-272 0-162 75-266 234-272" fill="#4e75ff" transform="matrix(.018 0 0 .018 23.868 0)"/><use transform="matrix(.018 0 0 .018 34.542 0)" xlink:href="#b"/></g><path id="k" d="m175 0h-93v-520h93zm13-675c0 35-26 61-60 61s-60-26-60-61 26-61 60-61 60 26 60 61" fill="#4e75ff"/><path id="l" d="m447-14c-35 17-88 26-139 26-169 0-255-102-255-271 0-187 118-299 319-268 23 4 46 10 67 19l-21 79c-28-13-66-22-107-22-111 1-162 75-161 192 1 118 51 189 170 189 43 1 87-10 114-22" fill="#4e75ff"/><g id="m"><path d="m64-114c42 22 110 45 185 45 127 0 189-72 139-159-74-129-329-76-337-288-8-203 271-234 423-150l-31 79c-73-47-295-73-292 60 2 88 82 103 147 131 102 44 200 79 205 222 7 214-312 224-468 140" fill="#4e75ff" transform="scale(.018)"/><use transform="matrix(.018 0 0 .018 9.648 0)" xlink:href="#b"/><use transform="matrix(.018 0 0 .018 19.782 0)" xlink:href="#e"/><path d="m255-109c52-125 101-269 137-411h96c-47 181-124 369-193 520h-84c-69-151-147-339-193-520h100c36 142 85 286 137 411" fill="#4e75ff" transform="matrix(.018 0 0 .018 27.18 0)"/><use transform="matrix(.018 0 0 .018 36.288 0)" xlink:href="#k"/><use transform="matrix(.018 0 0 .018 40.914 0)" xlink:href="#l"/><use transform="matrix(.018 0 0 .018 49.356 0)" xlink:href="#b"/></g><path id="n" d="m139-156c0 106 132 93 220 82v-155c-78-22-220-23-220 73zm-94 1c-2-152 173-180 314-148 5-94-26-150-117-150-50 0-101 8-132 20l-11-77c32-13 99-23 151-23 135 0 201 66 200 199v325c-60 10-131 20-203 20-121 0-201-45-202-166" fill="#4e75ff"/><path id="o" d="m95-501c-14-80-24-166-21-259h97c3 93-7 179-21 259zm177 0c-14-80-24-166-21-259h97c3 93-7 179-21 259z" fill="#4e75ff"/><path id="p" d="m597-29c-52 29-128 44-211 44-218 0-319-140-326-362-8-284 240-432 510-326 11 4 18 9 22 12l-28 80c-42-23-98-43-163-43-163 0-238 111-238 277 0 165 69 273 232 277 73 3 134-19 177-39" fill="#4e75ff"/><path id="q" d="m279-449c-36 1-74 4-104 10v439h-93v-505c55-13 130-26 207-26 153 0 213 87 213 239v292h-93v-272c1-107-22-180-130-177" fill="#4e75ff"/><g id="r"><use transform="scale(.018)" xlink:href="#o"/><use transform="matrix(.018 0 0 .018 7.146 0)" xlink:href="#p"/><use transform="matrix(.018 0 0 .018 18.378 0)" xlink:href="#c"/><use transform="matrix(.018 0 0 .018 23.364 0)" xlink:href="#k"/><use transform="matrix(.018 0 0 .018 27.99 0)" xlink:href="#b"/><use transform="matrix(.018 0 0 .018 38.124 0)" xlink:href="#q"/><use transform="matrix(.018 0 0 .018 48.528 0)" xlink:href="#f"/></g><g id="s"><use transform="scale(.018)" xlink:href="#c"/><use transform="matrix(.018 0 0 .018 4.986 0)" xlink:href="#b"/><use transform="matrix(.018 0 0 .018 15.12 0)" xlink:href="#n"/><path d="m82-567c-14-178 145-245 315-192l-17 80c-21-10-52-17-88-17-102 0-122 72-117 176h200v78h-200v442h-93z" fill="#4e75ff" transform="matrix(.018 0 0 .018 24.588 0)"/></g><path id="t" d="m300-71c36 0 74-3 103-10v-439h93v505c-55 13-129 26-206 26-152 0-214-89-214-239v-292h93v272c2 116 24 177 131 177" fill="#4e75ff"/><g id="u"><use transform="scale(.018)" xlink:href="#l"/><use transform="matrix(.018 0 0 .018 8.442 0)" xlink:href="#c"/><use transform="matrix(.018 0 0 .018 13.428 0)" xlink:href="#t"/><path d="m59-97c36 13 83 32 144 30 63-2 112-9 112-63 0-99-160-93-221-153-24-24-44-52-44-100 0-151 196-178 331-127l-17 80c-60-35-257-49-214 69 69 92 264 59 259 227-2 107-89 146-206 146-70 0-121-14-161-29" fill="#4e75ff" transform="matrix(.018 0 0 .018 23.832 0)"/><use transform="matrix(.018 0 0 .018 31.932 0)" xlink:href="#f"/><use transform="matrix(.018 0 0 .018 39.06 0)" xlink:href="#b"/><use transform="matrix(.018 0 0 .018 49.194 0)" xlink:href="#e"/></g></defs><g transform="translate(-40 -60)"><path d="m0 0h1760v1360h-1760z" fill="#fff"/><path d="m648.87 481.76h-72.87v20l-36-40 36-40v20h72.87z" fill="#fff"/><path d="m636.12 481.76h-10.92m-7.3 0h-10.93m-7.3 0h-10.92m-7.28 0h-5.47v6m0 8v6l-3.6-4m-4.8-5.33-7.2-8m-4.8-5.34-7.2-8m-4.8-5.34-3.6-4 3.6-4m4.8-5.33 7.2-8m4.8-5.34 7.2-8m4.8-5.34 3.6-4v6m0 8v6h5.47m7.28 0h10.93m7.3 0h10.92m7.3 0h10.92m7.28 0h5.47v6m0 8v12m0 8v6h-5.47" fill="none" stroke="#0c7cba" stroke-width="4"/><g filter="url(#i)"><path d="m340 431.76h200v60h-200z" fill="#fff" stroke="#326ce5" stroke-width="4"/><use transform="translate(379.43 469.161)" xlink:href="#g"/><use transform="translate(453.86 469.161)" xlink:href="#h"/></g><path d="m100 461.76h160v60h-160z" fill="#fff" stroke="#326ce5" stroke-width="4"/><use transform="translate(125.802 499.161)" xlink:href="#j"/><use transform="translate(174.708 499.161)" xlink:href="#m"/><path d="m80 521.76h160v60h-160z" fill="#fff" stroke="#326ce5" stroke-width="4"/><use transform="translate(105.802 559.161)" xlink:href="#j"/><use transform="translate(154.708 559.161)" xlink:href="#m"/><path d="m60 581.76h160v60h-160z" fill="#fff" stroke="#326ce5" stroke-width="4"/><use transform="translate(85.802 619.161)" xlink:href="#j"/><use transform="translate(134.708 619.161)" xlink:href="#m"/><path d="m223 611.76h57v-150h39.5" fill="none" stroke="#c1e4f7" stroke-width="2"/><path d="m223.03 612.76h-1.03v-2h1.03z" fill="#c1e4f7"/><path d="m334.76 461.76-14.26 4.64v-9.28z" fill="#c1e4f7" stroke="#c1e4f7" stroke-width="2"/><path d="m243 551.76h37v-90h39.5" fill="none" stroke="#c1e4f7" stroke-width="2"/><path d="m243.03 552.76h-1.03v-2h1.03z" fill="#c1e4f7"/><path d="m334.76 461.76-14.26 4.64v-9.28z" fill="#c1e4f7" stroke="#c1e4f7" stroke-width="2"/><path d="m263 491.76h17v-30h39.5" fill="none" stroke="#c1e4f7" stroke-width="2"/><path d="m263.03 492.76h-1.03v-2h1.03z" fill="#c1e4f7"/><path d="m334.76 461.76-14.26 4.64v-9.28z" fill="#c1e4f7" stroke="#c1e4f7" stroke-width="2"/><path d="m1044.2 100h160v60h-160z" fill="#fff" stroke="#326ce5" stroke-width="4"/><use transform="translate(1070.002 137.401)" xlink:href="#j"/><use transform="translate(1118.908 137.401)" xlink:href="#m"/><path d="m1064.2 160h160v60h-160z" fill="#fff" stroke="#326ce5" stroke-width="4"/><use transform="translate(1090.002 197.401)" xlink:href="#j"/><use transform="translate(1138.908 197.401)" xlink:href="#m"/><path d="m1084.2 219.12h160v60h-160z" fill="#fff" stroke="#326ce5" stroke-width="4"/><use transform="translate(1110.002 256.521)" xlink:href="#j"/><use transform="translate(1158.908 256.521)" xlink:href="#m"/><path d="m1081.2 249.12h-75v-59.12h-57.5" fill="none" stroke="#c1e4f7" stroke-width="2"/><path d="m1082.2 250.12h-1.03v-2h1.03z" fill="#c1e4f7"/><path d="m933.44 190 14.26-4.64v9.28z" fill="#c1e4f7" stroke="#c1e4f7" stroke-width="2"/><path d="m1061.2 190h-112.5" fill="none" stroke="#c1e4f7" stroke-width="2"/><path d="m1062.2 191h-1.03v-2h1.03z" fill="#c1e4f7"/><path d="m933.44 190 14.26-4.64v9.28z" fill="#c1e4f7" stroke="#c1e4f7" stroke-width="2"/><path d="m1041.2 130h-35v60h-57.5" fill="none" stroke="#c1e4f7" stroke-width="2"/><path d="m1042.2 131h-1.03v-2h1.03z" fill="#c1e4f7"/><path d="m933.44 190 14.26-4.64v9.28z" fill="#c1e4f7" stroke="#c1e4f7" stroke-width="2"/><path d="m708.3 112.88-.1 765.12" fill="none"/><path d="m708.3 112.88v19.62m0 19.62v39.23m0 19.62-.02 39.24m0 19.63v39.23m0 19.62v39.24m-.02 19.62v39.24m0 19.6v39.25m0 19.62-.02 39.24m0 19.6v39.24m0 19.62v39.24m0 19.62-.02 39.23m0 19.62v39.24m0 19.63v39.23m-.02 19.62v19.61" fill="none" stroke="#ffbbb1" stroke-width="4"/><path d="m710.3 112.93h-4v-2.05h4z" fill="#ffbbb1"/><path d="m708.2 877.95v2.05" fill="none" stroke="#ffbbb1" stroke-width="4"/><path d="m668.2 80h80.2v30.88h-80.2z" fill="none"/><g transform="translate(673.2 101.776)"><path d="m88 0v-693h418v83h-321v209h285v82h-285v319z" fill="#4e75ff" transform="scale(.018)"/><use transform="matrix(.018 0 0 .018 9.738 0)" xlink:href="#k"/><use transform="matrix(.018 0 0 .018 14.364 0)" xlink:href="#e"/><use transform="matrix(.018 0 0 .018 21.384 0)" xlink:href="#b"/><path d="m761-520c-47 186-105 367-173 520h-81c-40-105-86-236-117-357-31 122-76 252-116 357h-81c-68-153-126-334-173-520h100c31 138 71 286 118 407 45-126 85-269 117-407h77c30 140 70 281 115 407 46-123 88-268 118-407z" fill="#4e75ff" transform="matrix(.018 0 0 .018 31.518 0)"/><use transform="matrix(.018 0 0 .018 45.576 0)" xlink:href="#n"/><use transform="matrix(.018 0 0 .018 55.044 0)" xlink:href="#c"/><use transform="matrix(.018 0 0 .018 60.03 0)" xlink:href="#c"/></g><g filter="url(#i)"><path d="m728.2 160h200v60h-200z" fill="#fff" stroke="#326ce5" stroke-width="4"/><use transform="translate(767.63 197.401)" xlink:href="#g"/><use transform="translate(842.06 197.401)" xlink:href="#h"/></g><path d="m728.2 110.88h214.05v51.76h-214.05z" fill="none"/><use transform="translate(748.427 143.156)" xlink:href="#r"/><g transform="translate(808.493 143.156)"><path d="m10 0c89-244 173-472 279-693h89c106 221 190 450 279 693h-106c-23-60-41-116-63-177h-314l-63 177zm450-257c-42-112-82-221-129-325-48 103-88 212-129 325z" fill="#4e75ff" transform="scale(.018)"/><use transform="matrix(.018 0 0 .018 10.602 0)" xlink:href="#o"/></g><use transform="translate(830.921 143.156)" xlink:href="#s"/><use transform="translate(866.759 143.156)" xlink:href="#u"/><path d="m88.2 410h181.75v51.76h-181.75z" fill="none"/><g transform="translate(101.656 442.276)"><use transform="scale(.018)" xlink:href="#o"/><path d="m278-449c-36 0-74 4-103 10v439h-93v-505c94-23 290-55 347 27 41-28 96-52 166-53 149-3 194 91 194 239v292h-93v-272c0-100-11-177-111-177-50 0-96 17-119 35 30 114 10 276 16 414h-93v-272c0-99-12-179-111-177" fill="#4e75ff" transform="matrix(.018 0 0 .018 7.596 0)"/><use transform="matrix(.018 0 0 .018 23.166 0)" xlink:href="#n"/><use transform="matrix(.018 0 0 .018 32.634 0)" xlink:href="#k"/><use transform="matrix(.018 0 0 .018 37.26 0)" xlink:href="#q"/><use transform="matrix(.018 0 0 .018 47.106 0)" xlink:href="#o"/></g><g transform="translate(160.588 442.276)"><use transform="scale(.018)" xlink:href="#e"/><use transform="matrix(.018 0 0 .018 7.02 0)" xlink:href="#d"/><use transform="matrix(.018 0 0 .018 17.712 0)" xlink:href="#d"/><use transform="matrix(.018 0 0 .018 28.404 0)" xlink:href="#f"/></g><use transform="translate(200.53 442.276)" xlink:href="#u"/><path d="m1044.4 370.88h160v60h-160z" fill="#fff" stroke="#326ce5" stroke-width="4"/><use transform="translate(1070.202 408.281)" xlink:href="#j"/><use transform="translate(1119.108 408.281)" xlink:href="#m"/><path d="m1064.4 430.88h160v60h-160z" fill="#fff" stroke="#326ce5" stroke-width="4"/><use transform="translate(1090.202 468.281)" xlink:href="#j"/><use transform="translate(1139.108 468.281)" xlink:href="#m"/><path d="m1084.4 490h160v60h-160z" fill="#fff" stroke="#326ce5" stroke-width="4"/><use transform="translate(1110.202 527.401)" xlink:href="#j"/><use transform="translate(1159.108 527.401)" xlink:href="#m"/><path d="m1081.4 520h-75v-59.12h-57.5" fill="none" stroke="#c1e4f7" stroke-width="2"/><path d="m1082.4 521h-1.03v-2h1.03z" fill="#c1e4f7"/><path d="m933.64 460.88 14.26-4.64v9.28z" fill="#c1e4f7" stroke="#c1e4f7" stroke-width="2"/><path d="m1061.4 460.88h-112.5" fill="none" stroke="#c1e4f7" stroke-width="2"/><path d="m1062.4 461.88h-1.03v-2h1.03z" fill="#c1e4f7"/><path d="m933.64 460.88 14.26-4.64v9.28z" fill="#c1e4f7" stroke="#c1e4f7" stroke-width="2"/><path d="m1041.4 400.88h-35v60h-57.5" fill="none" stroke="#c1e4f7" stroke-width="2"/><path d="m1042.4 401.88h-1.03v-2h1.03z" fill="#c1e4f7"/><path d="m933.64 460.88 14.26-4.64v9.28z" fill="#c1e4f7" stroke="#c1e4f7" stroke-width="2"/><g filter="url(#i)"><path d="m728.4 430.88h200v60h-200z" fill="#fff" stroke="#326ce5" stroke-width="4"/><use transform="translate(767.83 468.281)" xlink:href="#g"/><use transform="translate(842.26 468.281)" xlink:href="#h"/></g><path d="m731.94 380h196.46v51.76h-196.46z" fill="none"/><use transform="translate(742.7415 412.276)" xlink:href="#r"/><g transform="translate(802.8075 412.276)"><path d="m594-203c-5 165-129 209-319 209-66 0-133-5-187-17v-672c188-30 472-44 472 165 1 79-42 125-99 148 77 24 136 68 133 167zm-100 1c0-142-168-119-310-121v244c136 8 310 16 310-123zm-34-309c0-119-159-112-276-104v214c128 0 276 15 276-110" fill="#4e75ff" transform="scale(.018)"/><use transform="matrix(.018 0 0 .018 11.448 0)" xlink:href="#o"/></g><use transform="translate(826.0815 412.276)" xlink:href="#s"/><use transform="translate(861.9195 412.276)" xlink:href="#u"/><path d="m1044.2 660h160v60h-160z" fill="#fff" stroke="#326ce5" stroke-width="4"/><use transform="translate(1070.002 697.401)" xlink:href="#j"/><use transform="translate(1118.908 697.401)" xlink:href="#m"/><path d="m1064.2 720h160v60h-160z" fill="#fff" stroke="#326ce5" stroke-width="4"/><use transform="translate(1090.002 757.401)" xlink:href="#j"/><use transform="translate(1138.908 757.401)" xlink:href="#m"/><path d="m1084.2 779.12h160v60h-160z" fill="#fff" stroke="#326ce5" stroke-width="4"/><use transform="translate(1110.002 816.521)" xlink:href="#j"/><use transform="translate(1158.908 816.521)" xlink:href="#m"/><path d="m1081.2 809.12h-75v-59.12h-57.5" fill="none" stroke="#c1e4f7" stroke-width="2"/><path d="m1082.2 810.12h-1.03v-2h1.03z" fill="#c1e4f7"/><path d="m933.44 750 14.26-4.64v9.28z" fill="#c1e4f7" stroke="#c1e4f7" stroke-width="2"/><path d="m1061.2 750h-112.5" fill="none" stroke="#c1e4f7" stroke-width="2"/><path d="m1062.2 751h-1.03v-2h1.03z" fill="#c1e4f7"/><path d="m933.44 750 14.26-4.64v9.28z" fill="#c1e4f7" stroke="#c1e4f7" stroke-width="2"/><path d="m1041.2 690h-35v60h-57.5" fill="none" stroke="#c1e4f7" stroke-width="2"/><path d="m1042.2 691h-1.03v-2h1.03z" fill="#c1e4f7"/><path d="m933.44 750 14.26-4.64v9.28z" fill="#c1e4f7" stroke="#c1e4f7" stroke-width="2"/><g filter="url(#i)"><path d="m728.2 720h200v60h-200z" fill="#fff" stroke="#326ce5" stroke-width="4"/><use transform="translate(767.63 757.401)" xlink:href="#g"/><use transform="translate(842.06 757.401)" xlink:href="#h"/></g><path d="m731.94 668.24h196.46v51.76h-196.46z" fill="none"/><use transform="translate(742.8495 700.516)" xlink:href="#r"/><g transform="translate(802.9155 700.516)"><use transform="scale(.018)" xlink:href="#p"/><use transform="matrix(.018 0 0 .018 11.232 0)" xlink:href="#o"/></g><use transform="translate(825.9735 700.516)" xlink:href="#s"/><use transform="translate(861.8115 700.516)" xlink:href="#u"/><g fill="none"><path d="m710.28 297.55 595.92 2.45"/><g stroke-width="4"><path d="m710.28 297.55 19.86.08m19.86.1 39.73.15m19.87.08 39.72.16m19.87.08 39.72.17m19.86.08 39.73.16m19.87.1 39.73.15m19.87.08 39.72.17m19.86.08 39.73.16m19.85.08 39.73.17m19.86.07 39.73.16m19.87.08 19.86.1m-595.85-2.46h-2.05m597.87 2.45h2.05" stroke="#ffbbb1"/><path d="m544 461.76h91v-.88h68.66" stroke="#a3d977"/></g></g><path d="m544.05 463.76h-2.05v-4h2.05z" fill="#a3d977"/><path d="m719.93 460.88-14.27 4.64v-9.28z" fill="#a3d977" stroke="#a3d977" stroke-width="4"/><path d="m544 461.76h104.2v288.24h55.26" fill="none" stroke="#a3d977" stroke-width="4"/><path d="m544.05 463.76h-2.05v-4h2.05z" fill="#a3d977"/><g stroke="#a3d977" stroke-width="4"><path d="m719.73 750-14.27 4.64v-9.28z" fill="#a3d977"/><path d="m648.2 459.76v-269.76h55.26m-55.26 269.7v2.06" fill="none"/><path d="m719.73 190-14.27 4.64v-9.28z" fill="#a3d977"/></g><g fill="none"><path d="m710.24 590.85 615.88-6.6"/><path d="m710.24 590.85 20.53-.22m20.53-.22 41.06-.43m20.53-.22 41.04-.44m20.53-.2 41.06-.45m20.53-.22 41.06-.44m20.53-.23 41.06-.44m20.54-.23 41.06-.44m20.53-.22 41.06-.44m20.52-.22 41.06-.44m20.53-.22 41.07-.44m20.52-.22 20.52-.22m-615.81 6.6-2.06.03m617.83-6.64 2.05-.02" stroke="#ffbbb1" stroke-width="4"/><path d="m583.1 400h80.2v30.88h-80.2z"/></g><g transform="translate(588.1 421.776)"><use transform="scale(.018)" xlink:href="#a"/><use transform="matrix(.018 0 0 .018 9.63 0)" xlink:href="#t"/><use transform="matrix(.018 0 0 .018 20.034 0)" xlink:href="#q"/><use transform="matrix(.018 0 0 .018 30.438 0)" xlink:href="#q"/><use transform="matrix(.018 0 0 .018 40.842 0)" xlink:href="#b"/><use transform="matrix(.018 0 0 .018 50.976 0)" xlink:href="#c"/></g></g></svg>