<svg width="740" height="457" fill="none" xmlns="http://www.w3.org/2000/svg"><path fill-rule="evenodd" clip-rule="evenodd" d="M250.343 245.271h-11.032v-1.697h11.032a5.94 5.94 0 0 1 5.94 5.94v131.199a4.24 4.24 0 0 0 4.243 4.243h363.216a4.243 4.243 0 0 0 4.243-4.243v-13.154h1.697v13.154a5.94 5.94 0 0 1-5.94 5.94H260.526a5.94 5.94 0 0 1-5.94-5.94V249.514a4.243 4.243 0 0 0-4.243-4.243Z" fill="#512FC9"/><path d="M239.335 245.271h-.874v-1.697h.874v1.697Z" fill="#512FC9"/><path fill-rule="evenodd" clip-rule="evenodd" d="M238.439 243.553h.917v1.739h-.917v-1.739Zm.043.042v1.655h.832v-1.655h-.832Z" fill="#512FC9"/><path d="m628.832 354.592 3.929 12.11h-7.866l3.937-12.11Z" fill="#512FC9"/><path fill-rule="evenodd" clip-rule="evenodd" d="m628.833 351.845 5.096 15.706h-10.202l5.106-15.706Zm-2.77 14.008h5.531l-2.762-8.514-2.769 8.514ZM319.931 246.137a4.246 4.246 0 0 0-3.001 1.242 4.248 4.248 0 0 0-1.242 3.001v55.865a5.94 5.94 0 0 1-5.941 5.941h-70.436v-1.697h70.436a4.243 4.243 0 0 0 4.243-4.244V250.38a5.94 5.94 0 0 1 5.941-5.941h199.853v1.698H319.931Z" fill="#512FC9"/><path d="M239.335 312.186h-.874v-1.697h.874v1.697Z" fill="#512FC9"/><path fill-rule="evenodd" clip-rule="evenodd" d="M238.439 310.467h.917v1.74h-.917v-1.74Zm.043.043v1.655h.832v-1.655h-.832Z" fill="#512FC9"/><path d="m532.732 245.288-12.101 3.946v-7.867l12.101 3.921Z" fill="#512FC9"/><path fill-rule="evenodd" clip-rule="evenodd" d="m519.783 240.2 15.696 5.086-15.696 5.118V240.2Zm1.697 2.334v5.531l8.508-2.774-8.508-2.757Z" fill="#512FC9"/><path d="M535.482 153.271a5.092 5.092 0 0 1 5.092-5.092H717.09a5.09 5.09 0 0 1 5.092 5.092v193.488a5.092 5.092 0 0 1-5.092 5.092H540.574a5.09 5.09 0 0 1-5.092-5.092V153.271Z" fill="url(#a)"/><path d="M577.66 177.907c.17.127.255.364.153.594-.509 1.612-1.426 3.165-2.546 4.472a.511.511 0 0 1-.594.17l-3.225-1.146a10.963 10.963 0 0 1-2.673 1.57l-.637 3.394c-.05.196-.229.408-.458.442-.848.152-1.68.229-2.546.229-.865 0-1.697-.085-2.546-.238-.229-.042-.407-.254-.458-.45l-.636-3.394c-.968-.407-1.884-.917-2.673-1.57l-3.225 1.137a.497.497 0 0 1-.594-.17c-1.121-1.298-2.037-2.843-2.546-4.472a.477.477 0 0 1 .153-.594l2.571-2.266a9.435 9.435 0 0 1-.119-1.578c0-.509.025-1.053.127-1.57l-2.563-2.258c-.169-.135-.254-.382-.152-.594.509-1.629 1.425-3.182 2.546-4.455.152-.17.381-.255.594-.153l3.225 1.137c.789-.678 1.697-1.188 2.673-1.57l.636-3.394c.051-.212.229-.424.458-.424a12.239 12.239 0 0 1 5.092 0c.229 0 .408.212.458.424l.637 3.394a9.58 9.58 0 0 1 2.673 1.579l3.225-1.137c.212-.111.441-.026.594.169 1.12 1.273 2.037 2.818 2.546 4.447a.486.486 0 0 1-.153.594l-2.571 2.258c.102.509.127 1.061.127 1.57 0 .543-.025 1.086-.127 1.578l2.571 2.258-.017.017Zm-12.5 4.905c4.786 0 8.681-3.904 8.681-8.741 0-4.838-3.903-8.741-8.681-8.741-4.812 0-8.682 3.903-8.682 8.741 0 4.837 3.87 8.741 8.682 8.741Zm0-1.087c-4.201 0-7.587-3.42-7.587-7.663s3.395-7.654 7.587-7.654c4.175 0 7.587 3.419 7.587 7.654 0 4.243-3.395 7.663-7.579 7.663h-.008Zm-4.243-11.244v2.147h3.173V178h2.479v-5.364h3.182v-2.147h-8.826l-.008-.008Z" fill="#fff"/><path fill-rule="evenodd" clip-rule="evenodd" d="M535.667 200.078a.425.425 0 0 1 .3-.124h185.791a.424.424 0 0 1-.017.849H535.95a.421.421 0 0 1-.3-.125.421.421 0 0 1-.125-.3v-.212h.074a.44.44 0 0 1 .068-.088Z" fill="#fff" fill-opacity=".3"/><path d="M591.809 162.415v1.78h-2.799v7.499h-2.089v-7.499h-2.798v-1.78h7.686ZM593.148 171.694v-9.279h6.267v1.754h-4.178v1.821h3.709v1.713h-3.709v2.236h4.486v1.755h-6.575ZM607.461 169.899v1.795h-6.199v-9.279h2.088v7.484h4.111ZM608.801 171.694v-9.279h6.266v1.754h-4.177v1.821h3.708v1.713h-3.708v2.236h4.485v1.755h-6.574ZM616.914 162.548c.777-.16 1.915-.241 2.785-.241 2.544 0 4.298.71 4.298 3.12 0 2.651-2.142 3.24-4.994 3.16v3.106h-2.089v-9.145Zm4.927 2.866c0-1.393-1.499-1.393-2.838-1.286v2.678c1.499 0 2.838.04 2.838-1.392ZM629.754 164.035c-1.714 0-2.464 1.258-2.464 3.012s.737 2.999 2.464 2.999c1.714 0 2.464-1.245 2.464-2.999s-.737-3.012-2.464-3.012Zm0-1.835c2.959 0 4.62 1.821 4.62 4.847 0 3.04-1.634 4.834-4.62 4.834-2.959 0-4.619-1.808-4.619-4.834 0-2.999 1.687-4.847 4.619-4.847ZM636.115 162.548c.79-.16 1.835-.241 2.718-.241 2.504.014 4.312.723 4.312 3.053 0 1.419-.697 2.102-1.741 2.544.87 1.112 1.66 2.437 2.303 3.789h-2.343c-.656-1.164-1.326-2.396-2.129-3.387h-1.031v3.387h-2.089v-9.145Zm4.874 2.799c.013-1.286-1.473-1.312-2.785-1.219v2.518c1.486-.014 2.772.04 2.785-1.299ZM651.793 162.415v1.78h-2.798v7.499h-2.089v-7.499h-2.799v-1.78h7.686ZM584.926 177.558c.79-.161 1.834-.241 2.718-.241 2.504.013 4.311.723 4.311 3.053 0 1.419-.696 2.102-1.74 2.544.87 1.111 1.66 2.437 2.303 3.789h-2.344c-.656-1.165-1.325-2.397-2.128-3.388h-1.031v3.388h-2.089v-9.145Zm4.874 2.798c.013-1.285-1.473-1.312-2.785-1.218v2.517c1.486-.013 2.771.04 2.785-1.299ZM597.834 179.044c-1.714 0-2.463 1.259-2.463 3.013s.736 2.999 2.463 2.999c1.714 0 2.464-1.245 2.464-2.999s-.737-3.013-2.464-3.013Zm0-1.834c2.959 0 4.62 1.821 4.62 4.847 0 3.039-1.634 4.833-4.62 4.833-2.959 0-4.619-1.807-4.619-4.833 0-3 1.687-4.847 4.619-4.847ZM608.41 179.044c-1.713 0-2.463 1.259-2.463 3.013s.736 2.999 2.463 2.999c1.714 0 2.464-1.245 2.464-2.999s-.736-3.013-2.464-3.013Zm0-1.834c2.96 0 4.62 1.821 4.62 4.847 0 3.039-1.634 4.833-4.62 4.833-2.959 0-4.619-1.807-4.619-4.833 0-3 1.687-4.847 4.619-4.847ZM621.346 177.424v1.781h-2.799v7.498h-2.088v-7.498h-2.799v-1.781h7.686ZM633.235 186.194c-.709.402-1.874.696-3.106.696-3.026 0-4.633-1.794-4.633-4.833 0-3.95 3.575-5.798 7.257-4.325.161.067.281.147.348.187l-.602 1.687a4.6 4.6 0 0 0-2.29-.549c-1.714.054-2.544 1.152-2.544 2.96 0 1.861.79 2.999 2.651 3.026.964 0 1.714-.201 2.344-.523M640.774 184.909v1.794h-6.2v-9.279h2.089v7.485h4.111ZM649.438 183.195c-.041 2.437-1.353 3.695-3.83 3.695-2.45 0-3.762-1.285-3.762-3.695v-5.771h2.088v5.597c.014 1.259.469 2.062 1.701 2.062 1.165 0 1.714-.723 1.714-2.062v-5.597h2.089v5.771ZM651.458 184.521a5.011 5.011 0 0 0 2.518.589c.83-.014 1.486-.161 1.499-.964 0-.308-.147-.563-.428-.764-.71-.522-2.491-.843-3.2-1.526-.442-.428-.844-.977-.817-1.861.067-1.942 1.419-2.745 3.414-2.785a5.716 5.716 0 0 1 2.745.643l-.603 1.646c-.548-.267-1.138-.508-2.008-.508-1.018 0-1.66.428-1.285 1.272.91.91 2.798 1.004 3.642 1.941.441.482.642 1.045.696 1.955.161 3.106-4.499 3.24-6.762 2.022M665.852 177.424v1.781h-2.799v7.498h-2.089v-7.498h-2.798v-1.781h7.686ZM667.191 186.703v-9.279h6.267v1.754h-4.178v1.821h3.709v1.714h-3.709v2.236h4.486v1.754h-6.575ZM675.305 177.558c.79-.161 1.834-.241 2.718-.241 2.504.013 4.311.723 4.311 3.053 0 1.419-.696 2.102-1.74 2.544.87 1.111 1.66 2.437 2.303 3.789h-2.344c-.656-1.165-1.325-2.397-2.129-3.388h-1.031v3.388h-2.088v-9.145Zm4.873 2.798c.014-1.285-1.472-1.312-2.785-1.218v2.517c1.487-.013 2.772.04 2.785-1.299Z" fill="#fff"/><path fill-rule="evenodd" clip-rule="evenodd" d="M555.799 219.209a2.76 2.76 0 0 0-2.758 2.759v41.795a2.758 2.758 0 0 0 2.758 2.758h146.016a2.76 2.76 0 0 0 2.758-2.758v-41.795a2.761 2.761 0 0 0-2.758-2.759H555.799Zm-2.851-.092a4.03 4.03 0 0 1 2.851-1.18h146.016a4.03 4.03 0 0 1 4.031 4.031v41.795a4.03 4.03 0 0 1-4.031 4.031H555.799a4.031 4.031 0 0 1-4.031-4.031v-41.795a4.03 4.03 0 0 1 1.18-2.851Z" fill="#fff" fill-opacity=".3"/><path d="M576.191 240.209c0 1.771-1.047 2.688-2.437 3.154.26.145.482.359.672.634l2.765 4.078h-1.848c-.39 0-.611-.168-.771-.412l-2.322-3.536c-.184-.26-.321-.367-.749-.367h-.878v4.315h-2.055v-11.044h3.369c2.474.031 4.254.802 4.254 3.178Zm-2.009.152c0-1.245-.871-1.749-2.245-1.741h-1.314v3.666h1.283c1.375-.023 2.276-.588 2.276-1.925ZM580.147 240.4c.924-.375 2.268-.375 3.185 0 1.405.565 2.276 1.802 2.276 3.742 0 2.52-1.36 4.048-3.865 4.048-2.513 0-3.888-1.528-3.888-4.048 0-1.94.879-3.177 2.292-3.742Zm-.344 3.757c0 1.536.497 2.582 1.94 2.582 1.436 0 1.917-1.046 1.917-2.582 0-1.535-.481-2.596-1.917-2.596-1.443 0-1.94 1.061-1.94 2.596ZM588.83 240.4c.925-.375 2.269-.375 3.185 0 1.406.565 2.276 1.802 2.276 3.742 0 2.52-1.359 4.048-3.864 4.048-2.513 0-3.888-1.528-3.888-4.048 0-1.94.878-3.177 2.291-3.742Zm-.343 3.757c0 1.536.496 2.582 1.94 2.582 1.436 0 1.917-1.046 1.917-2.582 0-1.535-.481-2.596-1.917-2.596-1.444 0-1.94 1.061-1.94 2.596ZM600.395 247.502c-.488.421-1.206.688-2.054.695-1.344.016-2.116-.832-2.116-2.169v-4.376c-.496-.031-1.168.16-1.168-.397v-.749l1.26-.206.397-2.138c.076-.505.878-.268 1.398-.321v2.467h2.062v1.344h-2.062v4.247c-.008.45.244.771.672.779.366.007.519-.191.794-.26.145.008.191.069.252.168M614.439 248.075h-1.589a.702.702 0 0 1-.687-.466l-.825-2.253h-4.575l-.825 2.253a.75.75 0 0 1-.68.466h-1.596L608 237.031h2.101l4.338 11.044Zm-7.149-4.17h3.521c-.588-1.665-1.245-3.238-1.764-4.972-.504 1.756-1.177 3.299-1.757 4.972ZM617.953 248.197c-1.787 0-2.642-1.183-2.642-2.978v-4.98h1.886v4.98c0 .924.42 1.512 1.329 1.504.779-.007 1.283-.389 1.726-.817v-5.667h1.887v7.836c-.611-.068-1.52.222-1.635-.343l-.13-.627c-.588.588-1.268 1.092-2.421 1.092ZM628.782 247.502c-.489.421-1.207.688-2.054.695-1.345.016-2.116-.832-2.116-2.169v-4.376c-.497-.031-1.169.16-1.169-.397v-.749l1.261-.206.397-2.138c.076-.505.878-.268 1.397-.321v2.467h2.063v1.344h-2.063v4.247c-.007.45.245.771.673.779.366.007.519-.191.794-.26.145.008.191.069.252.168M633.679 241.583c-.779.008-1.283.397-1.726.825v5.667h-1.887v-11.349h1.887v4.361c.58-.527 1.23-.986 2.299-.97 1.787.03 2.643 1.176 2.643 2.971v4.987h-1.887v-4.987c0-.924-.42-1.512-1.329-1.505ZM644.654 246.517c1.115 0 1.879-.534 1.841-1.611-.046-1.337-1.49-1.413-2.544-1.772-1.398-.481-2.589-1.169-2.543-3.055.038-1.52.916-2.437 2.077-2.903.963-.389 2.376-.336 3.338.038.55.207 1.016.489 1.405.856l-.504.97c-.114.305-.489.389-.802.191-.489-.313-1.038-.665-1.879-.649-1.008.023-1.71.412-1.71 1.39 0 1.275 1.542 1.344 2.551 1.733 1.321.512 2.543 1.1 2.543 2.91 0 1.734-.917 2.781-2.207 3.308-1.054.427-2.697.297-3.651-.123-.611-.267-1.176-.611-1.604-1.054l.596-.985c.175-.26.565-.328.878-.099.557.412 1.199.855 2.215.855ZM656.455 246.907c-.703.809-1.764 1.283-3.231 1.283-2.528 0-3.857-1.619-3.857-4.201 0-1.81.886-2.994 2.192-3.567.466-.206.985-.305 1.574-.305 2.192 0 3.391 1.329 3.391 3.551 0 .413-.023.726-.436.726h-4.842c.031 1.726 1.207 2.665 2.941 2.23.397-.099.71-.298 1.008-.474.244-.145.557-.122.71.069l.55.688Zm-1.627-3.651c-.03-1.092-.557-1.787-1.657-1.787-1.176 0-1.726.725-1.887 1.787h3.544ZM661.664 241.919c-.932.038-1.375.565-1.719 1.276v4.88h-1.886v-7.836c.634.084 1.573-.267 1.665.473l.114.947c.481-.809 1.123-1.565 2.253-1.565.39 0 .711.091.963.267l-.245 1.413c-.03.176-.114.252-.305.252-.252 0-.497-.122-.84-.107ZM668.224 248.075h-1.711l-3.117-7.836h1.566a.538.538 0 0 1 .542.351c.573 1.642 1.215 3.216 1.727 4.904.068.229.114.466.16.702.099-.504.206-.962.382-1.42l1.55-4.186a.543.543 0 0 1 .52-.351h1.489M674.457 240.239v7.836h-1.886v-7.836h1.886Zm-.939-3.49c.733 0 1.222.473 1.222 1.206 0 .718-.497 1.184-1.222 1.184-.711 0-1.192-.473-1.192-1.184 0-.725.466-1.206 1.192-1.206ZM682.668 246.907c-.68.794-1.65 1.283-3.086 1.283-1.734 0-2.734-1.001-3.238-2.33-.359-.939-.375-2.337-.031-3.315.512-1.451 1.627-2.428 3.551-2.428 1.261 0 2.063.443 2.727 1.092-.221.282-.397.619-.657.855-.542.199-.794-.313-1.298-.42-.183-.038-.397-.091-.657-.091-1.466.038-1.986 1.092-1.986 2.589 0 1.481.512 2.566 1.94 2.612.749.023 1.131-.29 1.528-.604.198-.152.511-.129.664.069M690.433 246.907c-.702.809-1.764 1.283-3.23 1.283-2.528 0-3.857-1.619-3.857-4.201 0-1.81.886-2.994 2.192-3.567.466-.206.985-.305 1.573-.305 2.192 0 3.391 1.329 3.391 3.551 0 .413-.023.726-.435.726h-4.842c.03 1.726 1.206 2.665 2.94 2.23.397-.099.71-.298 1.008-.474.245-.145.558-.122.711.069l.549.688Zm-1.626-3.651c-.031-1.092-.558-1.787-1.658-1.787-1.176 0-1.726.725-1.886 1.787h3.544Z" fill="#fff" fill-opacity=".75"/><path fill-rule="evenodd" clip-rule="evenodd" d="M555.799 285.454a2.757 2.757 0 0 0-2.758 2.758v41.795a2.756 2.756 0 0 0 2.758 2.758h146.016a2.757 2.757 0 0 0 2.758-2.758v-41.795a2.757 2.757 0 0 0-2.758-2.758H555.799Zm-2.851-.092a4.031 4.031 0 0 1 2.851-1.181h146.016a4.03 4.03 0 0 1 4.031 4.031v41.795a4.029 4.029 0 0 1-4.031 4.031H555.799a4.031 4.031 0 0 1-4.031-4.031v-41.795a4.03 4.03 0 0 1 1.18-2.85Z" fill="#fff" fill-opacity=".3"/><path d="M573.046 306.454c0 1.772-1.046 2.688-2.436 3.154.26.145.481.359.672.634l2.765 4.078h-1.849c-.389 0-.611-.168-.771-.412l-2.322-3.536c-.183-.26-.321-.367-.748-.367h-.879v4.315h-2.054v-11.044h3.368c2.475.031 4.254.802 4.254 3.178Zm-2.008.152c0-1.245-.871-1.749-2.246-1.741h-1.314v3.666h1.284c1.374-.023 2.276-.588 2.276-1.925ZM577.002 306.645c.924-.375 2.269-.375 3.185 0 1.406.565 2.276 1.802 2.276 3.742 0 2.521-1.359 4.048-3.864 4.048-2.513 0-3.888-1.527-3.888-4.048 0-1.94.878-3.177 2.291-3.742Zm-.343 3.757c0 1.536.496 2.582 1.94 2.582 1.435 0 1.917-1.046 1.917-2.582 0-1.535-.482-2.596-1.917-2.596-1.444 0-1.94 1.061-1.94 2.596ZM585.686 306.645c.924-.375 2.268-.375 3.185 0 1.405.565 2.276 1.802 2.276 3.742 0 2.521-1.36 4.048-3.865 4.048-2.513 0-3.887-1.527-3.887-4.048 0-1.94.878-3.177 2.291-3.742Zm-.344 3.757c0 1.536.497 2.582 1.94 2.582 1.436 0 1.917-1.046 1.917-2.582 0-1.535-.481-2.596-1.917-2.596-1.443 0-1.94 1.061-1.94 2.596ZM597.251 313.748c-.489.42-1.207.687-2.055.695-1.344.015-2.115-.833-2.115-2.17v-4.376c-.497-.03-1.169.16-1.169-.397v-.749l1.26-.206.397-2.138c.077-.504.879-.268 1.398-.321v2.467h2.062v1.344h-2.062v4.247c-.007.45.245.771.672.779.367.007.52-.191.795-.26.145.008.191.069.252.168M609.54 306.797c0 2.513-1.695 3.598-4.284 3.636h-1.543v3.887h-2.055v-11.044h3.598c2.573.031 4.284 1.024 4.284 3.521Zm-2.054 0c0-1.344-.856-1.932-2.23-1.932h-1.543v3.964h1.543c1.405-.008 2.23-.649 2.23-2.032ZM614.634 308.165c-.932.038-1.374.565-1.718 1.275v4.881h-1.887v-7.837c.634.084 1.574-.267 1.665.474l.115.947c.481-.81 1.123-1.566 2.253-1.566.39 0 .71.092.962.267l-.244 1.413c-.031.176-.115.252-.306.252-.252 0-.496-.122-.84-.106ZM619.018 306.645c.924-.375 2.268-.375 3.185 0 1.405.565 2.276 1.802 2.276 3.742 0 2.521-1.36 4.048-3.865 4.048-2.513 0-3.887-1.527-3.887-4.048 0-1.94.878-3.177 2.291-3.742Zm-.344 3.757c0 1.536.497 2.582 1.94 2.582 1.436 0 1.917-1.046 1.917-2.582 0-1.535-.481-2.596-1.917-2.596-1.443 0-1.94 1.061-1.94 2.596ZM627.351 310.28l-2.574-3.796h1.818c.282 0 .366.069.481.245l1.642 2.619c.061-.191.13-.359.237-.519l1.321-2.062c.115-.161.199-.283.435-.283h1.734l-2.581 3.712 2.688 4.124h-1.818c-.282.008-.435-.175-.542-.351l-1.665-2.727a1.413 1.413 0 0 1-.191.459l-1.466 2.268c-.107.153-.252.359-.512.351h-1.688M636.524 316.474c-.16.649-1.299.329-2.032.405l1.467-3.139-3.17-7.256h1.65a.524.524 0 0 1 .534.351c.611 1.49 1.253 2.949 1.818 4.476.054.138.077.283.107.428.565-1.688 1.253-3.261 1.864-4.904a.569.569 0 0 1 .519-.351h1.512M647.796 312.763c1.116 0 1.879-.535 1.841-1.612-.046-1.337-1.489-1.413-2.543-1.772-1.398-.481-2.589-1.168-2.544-3.055.039-1.52.917-2.436 2.078-2.902.962-.39 2.375-.336 3.338.038a4.15 4.15 0 0 1 1.405.855l-.504.97c-.115.306-.489.39-.802.191-.489-.313-1.039-.664-1.879-.649-1.008.023-1.711.412-1.711 1.39 0 1.276 1.543 1.344 2.551 1.734 1.321.512 2.543 1.1 2.543 2.91 0 1.734-.916 2.78-2.207 3.307-1.054.428-2.696.298-3.651-.122-.611-.268-1.176-.611-1.604-1.054l.596-.986c.176-.259.565-.328.878-.099.558.413 1.2.856 2.215.856ZM659.598 313.152c-.703.81-1.765 1.283-3.231 1.283-2.528 0-3.857-1.619-3.857-4.201 0-1.81.886-2.994 2.192-3.566.466-.207.985-.306 1.573-.306 2.192 0 3.391 1.329 3.391 3.552 0 .412-.023.725-.435.725h-4.842c.03 1.726 1.206 2.666 2.94 2.23.397-.099.71-.297 1.008-.473.245-.145.558-.122.711.069l.55.687Zm-1.627-3.651c-.031-1.092-.558-1.787-1.658-1.787-1.176 0-1.726.726-1.886 1.787h3.544ZM664.806 308.165c-.932.038-1.375.565-1.718 1.275v4.881h-1.887v-7.837c.634.084 1.574-.267 1.665.474l.115.947c.481-.81 1.122-1.566 2.253-1.566.389 0 .71.092.962.267l-.244 1.413c-.031.176-.115.252-.306.252-.252 0-.496-.122-.84-.106ZM671.366 314.321h-1.711l-3.116-7.837h1.566a.54.54 0 0 1 .542.352c.573 1.642 1.214 3.215 1.726 4.903.069.229.115.466.161.703.099-.504.206-.963.381-1.421l1.551-4.185a.543.543 0 0 1 .519-.352h1.49M677.6 306.484v7.837h-1.887v-7.837h1.887Zm-.94-3.49c.733 0 1.222.473 1.222 1.207 0 .718-.496 1.183-1.222 1.183-.71 0-1.191-.473-1.191-1.183 0-.726.466-1.207 1.191-1.207ZM685.81 313.152c-.68.794-1.65 1.283-3.086 1.283-1.733 0-2.734-1-3.238-2.329-.359-.94-.374-2.338-.03-3.315.511-1.451 1.626-2.429 3.551-2.429 1.26 0 2.062.443 2.727 1.092-.222.283-.397.619-.657.856-.542.198-.794-.313-1.299-.42-.183-.039-.397-.092-.656-.092-1.467.038-1.986 1.092-1.986 2.589 0 1.482.512 2.566 1.94 2.612.748.023 1.13-.29 1.527-.603.199-.153.512-.13.665.069M693.576 313.152c-.703.81-1.764 1.283-3.231 1.283-2.528 0-3.857-1.619-3.857-4.201 0-1.81.886-2.994 2.192-3.566.466-.207.986-.306 1.574-.306 2.192 0 3.391 1.329 3.391 3.552 0 .412-.023.725-.436.725h-4.842c.031 1.726 1.207 2.666 2.941 2.23.397-.099.71-.297 1.008-.473.244-.145.557-.122.71.069l.55.687Zm-1.627-3.651c-.03-1.092-.557-1.787-1.657-1.787-1.176 0-1.726.726-1.887 1.787h3.544Z" fill="#fff" fill-opacity=".75"/><path d="M321.892 212.305h4.735v1.245h-6.217v-10.945h1.482v9.7ZM333.944 212.466c-.794 1.023-2.918 1.55-4.506.916-1.406-.565-2.215-1.879-2.215-3.857 0-1.787.825-2.971 2.1-3.536a3.706 3.706 0 0 1 1.512-.298c2.085 0 3.208 1.329 3.208 3.46 0 .367-.015.535-.328.535h-5.148c.061 1.726.748 2.864 2.459 2.902.871.015 1.459-.29 1.971-.626.534-.352.718.282.947.504Zm-1.123-3.628c-.038-1.306-.657-2.123-1.955-2.146-1.383-.023-2.085.886-2.253 2.146h4.208ZM338.764 205.676c1.795 0 2.696 1.123 2.696 2.925v4.949c-.443-.038-.985.13-1.084-.321l-.153-.717c-.695.618-1.398 1.183-2.696 1.16-1.337-.022-2.162-.702-2.162-2.054 0-1.405 1.222-1.856 2.536-2.177.603-.145 1.344-.214 2.223-.237.091-1.405-.237-2.428-1.528-2.428-.863 0-1.382.343-1.856.695-.275.198-.626.107-.756-.13l-.245-.436c.772-.733 1.643-1.229 3.025-1.229Zm-2.093 5.881c0 .786.474 1.161 1.261 1.161 1.069 0 1.649-.489 2.192-1.039v-1.612c-1.077.031-1.971.146-2.666.459-.458.206-.787.473-.787 1.031ZM346.944 203.491c-1.261 0-1.811.55-1.795 1.765v.71h2.238v.985h-2.192v6.599h-1.368v-6.576c-.374-.069-.863-.03-1.115-.221-.183-.13-.076-.512-.107-.787h1.222v-.748c.039-1.749.917-2.773 2.658-2.773.344 0 .665.054.963.153l-.031.68c-.015.236-.214.213-.473.213ZM357.339 212.466c-.733 1.023-2.719 1.558-4.208.924-1.307-.558-2.063-1.841-2.063-3.712 0-2.421 1.222-3.987 3.644-3.987 1.153 0 1.94.413 2.543 1.008-.16.199-.298.443-.481.619-.321.153-.52-.145-.764-.26-.321-.152-.695-.32-1.222-.305-1.673.046-2.322 1.222-2.322 2.925 0 1.68.626 2.872 2.253 2.925.81.031 1.291-.29 1.703-.641.168-.145.405-.161.535.007M360.264 202.3v11.25h-1.36V202.3h1.36ZM365.068 213.673c-1.765 0-2.589-1.138-2.589-2.926v-4.934h1.359v4.934c0 1.131.512 1.856 1.627 1.841.955-.015 1.581-.504 2.093-1.069v-5.706h1.359v7.737c-.458-.045-1.115.168-1.176-.282l-.107-.833c-.619.657-1.36 1.238-2.566 1.238ZM373.164 212.695c.924-.023 1.581-.397 1.581-1.276 0-1.023-1.199-1.084-2.016-1.382-1.016-.367-2.009-.749-2.009-2.1 0-1.505 1.168-2.215 2.749-2.246 1.062-.023 1.856.374 2.422.901-.199.268-.352.871-.848.581-.405-.237-.871-.481-1.543-.466-.825.023-1.489.336-1.489 1.123 0 .985 1.206 1.038 2.001 1.336.977.367 2.008.711 2.008 2.017 0 1.688-1.191 2.459-2.925 2.49a3.772 3.772 0 0 1-2.581-.94c.206-.313.435-.978.977-.619.436.291.902.596 1.673.581ZM382.001 212.97c-.413.397-1.108.703-1.871.703-1.238.007-1.902-.734-1.902-1.986v-4.736c-.443-.068-1.222.199-1.222-.297v-.543l1.268-.16.313-2.391c.03-.382.611-.229 1-.259v2.665h2.215v.985h-2.215v4.644c-.015.596.306.955.848.962.458.016.672-.252.978-.366.069 0 .137.046.191.13M389.655 212.466c-.795 1.023-2.918 1.55-4.506.916-1.406-.565-2.215-1.879-2.215-3.857 0-1.787.824-2.971 2.1-3.536a3.706 3.706 0 0 1 1.512-.298c2.085 0 3.208 1.329 3.208 3.46 0 .367-.015.535-.328.535h-5.148c.061 1.726.748 2.864 2.459 2.902.871.015 1.459-.29 1.971-.626.534-.352.718.282.947.504Zm-1.123-3.628c-.038-1.306-.657-2.123-1.955-2.146-1.383-.023-2.085.886-2.253 2.146h4.208ZM394.832 207.012c-1.131.046-1.604.718-1.986 1.612v4.926h-1.36v-7.737c.474.054 1.154-.191 1.199.375l.092 1.206c.504-1.054 1.405-1.978 2.933-1.649.176.038.336.122.481.206l-.176 1.016c-.038.129-.114.191-.236.191-.275 0-.543-.161-.947-.146ZM399.652 212.695c.924-.023 1.581-.397 1.581-1.276 0-1.023-1.199-1.084-2.016-1.382-1.016-.367-2.009-.749-2.009-2.1 0-1.505 1.169-2.215 2.75-2.246 1.061-.023 1.856.374 2.421.901-.199.268-.351.871-.848.581-.405-.237-.871-.481-1.543-.466-.825.023-1.489.336-1.489 1.123 0 .985 1.207 1.038 2.001 1.336.978.367 2.009.711 2.009 2.017 0 1.688-1.192 2.459-2.926 2.49a3.772 3.772 0 0 1-2.581-.94c.206-.313.435-.978.978-.619.435.291.901.596 1.672.581ZM413.391 212.466c-.794 1.023-2.918 1.55-4.506.916-1.405-.565-2.215-1.879-2.215-3.857 0-1.787.825-2.971 2.1-3.536a3.708 3.708 0 0 1 1.513-.298c2.085 0 3.207 1.329 3.207 3.46 0 .367-.015.535-.328.535h-5.148c.061 1.726.749 2.864 2.459 2.902.871.015 1.459-.29 1.971-.626.535-.352.718.282.947.504Zm-1.123-3.628c-.038-1.306-.656-2.123-1.955-2.146-1.382-.023-2.085.886-2.253 2.146h4.208ZM417.232 212.695c.924-.023 1.581-.397 1.581-1.276 0-1.023-1.199-1.084-2.016-1.382-1.016-.367-2.009-.749-2.009-2.1 0-1.505 1.169-2.215 2.75-2.246 1.061-.023 1.856.374 2.421.901-.199.268-.351.871-.848.581-.405-.237-.871-.481-1.543-.466-.824.023-1.489.336-1.489 1.123 0 .985 1.207 1.038 2.001 1.336.978.367 2.009.711 2.009 2.017 0 1.688-1.192 2.459-2.925 2.49a3.773 3.773 0 0 1-2.582-.94c.206-.313.435-.978.978-.619.435.291.901.596 1.672.581ZM426.069 212.97c-.412.397-1.107.703-1.871.703-1.237.007-1.902-.734-1.902-1.986v-4.736c-.443-.068-1.222.199-1.222-.297v-.543l1.268-.16.313-2.391c.031-.382.611-.229 1.001-.259v2.665h2.215v.985h-2.215v4.644c-.016.596.305.955.848.962.458.016.672-.252.977-.366.069 0 .138.046.191.13M430.537 205.676c1.795 0 2.697 1.123 2.697 2.925v4.949c-.443-.038-.986.13-1.085-.32l-.153-.718c-.695.618-1.397 1.184-2.696 1.161-1.336-.023-2.161-.703-2.161-2.055 0-1.405 1.222-1.856 2.535-2.177.604-.145 1.345-.213 2.223-.236.092-1.406-.237-2.429-1.528-2.429-.863 0-1.382.344-1.856.695-.274.198-.626.107-.756-.13l-.244-.435c.771-.734 1.642-1.23 3.024-1.23Zm-2.092 5.881c0 .787.473 1.161 1.26 1.161 1.069 0 1.65-.489 2.192-1.039v-1.611c-1.077.03-1.971.145-2.666.458-.458.206-.786.474-.786 1.031ZM438.825 213.657c-1.085 0-1.688-.466-2.185-1.1-.069.382.046.993-.42.993h-.878V202.3h1.367v4.628c.596-.664 1.344-1.237 2.528-1.237 2.161 0 2.933 1.696 2.933 3.941 0 1.81-.71 3.101-1.94 3.72-.413.206-.886.305-1.405.305Zm1.94-4.025c-.016-1.619-.405-2.856-1.971-2.856-1.039 0-1.581.527-2.085 1.168v3.743c.428.588.916.916 1.81.916 1.589 0 2.261-1.252 2.246-2.971ZM445.348 202.3v11.25h-1.36V202.3h1.36ZM449.258 205.813v7.737h-1.36v-7.737h1.36Zm-.673-3.406c.589 0 .978.397.978.978 0 .572-.397.962-.978.962-.572 0-.962-.39-.962-.962 0-.581.382-.978.962-.978ZM453.664 212.695c.924-.023 1.581-.397 1.581-1.276 0-1.023-1.199-1.084-2.016-1.382-1.016-.367-2.009-.749-2.009-2.1 0-1.505 1.168-2.215 2.749-2.246 1.062-.023 1.856.374 2.422.901-.199.268-.352.871-.848.581-.405-.237-.871-.481-1.543-.466-.825.023-1.489.336-1.489 1.123 0 .985 1.206 1.038 2.001 1.336.977.367 2.008.711 2.008 2.017 0 1.688-1.191 2.459-2.925 2.49a3.772 3.772 0 0 1-2.581-.94c.206-.313.435-.978.977-.619.436.291.902.596 1.673.581ZM461.737 206.776c-.954.015-1.581.519-2.092 1.077v5.697h-1.36V202.3h1.36v4.552c.618-.626 1.321-1.161 2.49-1.161 1.772 0 2.589 1.153 2.589 2.933v4.926h-1.36v-4.926c0-1.138-.496-1.864-1.627-1.848ZM323.543 225.343c-1.131.046-1.604.718-1.986 1.612v4.926h-1.36v-7.737c.474.053 1.154-.191 1.199.374l.092 1.207c.504-1.054 1.405-1.978 2.933-1.65.176.038.336.122.481.206l-.176 1.016c-.038.13-.114.191-.236.191-.275 0-.543-.16-.947-.145ZM332.524 230.796c-.794 1.024-2.918 1.551-4.506.917-1.406-.565-2.215-1.879-2.215-3.857 0-1.787.825-2.971 2.1-3.536a3.706 3.706 0 0 1 1.512-.298c2.085 0 3.208 1.329 3.208 3.46 0 .366-.015.534-.328.534h-5.148c.061 1.726.748 2.864 2.459 2.903.871.015 1.459-.291 1.971-.627.534-.351.718.283.947.504Zm-1.123-3.628c-.038-1.306-.657-2.123-1.955-2.146-1.383-.023-2.085.886-2.253 2.146h4.208ZM333.182 224.144h1.115a.44.44 0 0 1 .42.283l1.963 4.979c.137.344.206.711.282 1.093.092-.382.168-.749.306-1.093l1.986-4.979c.129-.459.939-.23 1.466-.283l-3.154 7.737h-1.23M347.954 230.796c-.795 1.024-2.918 1.551-4.507.917-1.405-.565-2.215-1.879-2.215-3.857 0-1.787.825-2.971 2.101-3.536.45-.199.955-.298 1.512-.298 2.085 0 3.208 1.329 3.208 3.46 0 .366-.015.534-.329.534h-5.147c.061 1.726.748 2.864 2.459 2.903.871.015 1.459-.291 1.971-.627.534-.351.717.283.947.504Zm-1.123-3.628c-.038-1.306-.657-2.123-1.955-2.146-1.383-.023-2.085.886-2.254 2.146h4.209ZM353.13 225.343c-1.13.046-1.603.718-1.985 1.612v4.926h-1.36v-7.737c.474.053 1.153-.191 1.199.374l.092 1.207c.504-1.054 1.405-1.978 2.933-1.65.175.038.336.122.481.206l-.176 1.016c-.038.13-.114.191-.236.191-.275 0-.543-.16-.948-.145ZM357.951 231.025c.924-.022 1.581-.397 1.581-1.275 0-1.023-1.199-1.085-2.016-1.382-1.016-.367-2.009-.749-2.009-2.101 0-1.504 1.169-2.215 2.75-2.245 1.061-.023 1.856.374 2.421.901-.199.267-.352.871-.848.58-.405-.236-.871-.481-1.543-.465-.825.022-1.489.336-1.489 1.122 0 .986 1.207 1.039 2.001 1.337.977.366 2.009.71 2.009 2.016 0 1.688-1.192 2.46-2.926 2.49a3.767 3.767 0 0 1-2.581-.939c.206-.313.435-.978.977-.619.436.29.902.596 1.673.58ZM368.743 230.796c-.795 1.024-2.918 1.551-4.507.917-1.405-.565-2.215-1.879-2.215-3.857 0-1.787.825-2.971 2.101-3.536.45-.199.955-.298 1.512-.298 2.085 0 3.208 1.329 3.208 3.46 0 .366-.015.534-.328.534h-5.148c.061 1.726.748 2.864 2.459 2.903.871.015 1.459-.291 1.971-.627.534-.351.718.283.947.504Zm-1.123-3.628c-.038-1.306-.657-2.123-1.955-2.146-1.383-.023-2.085.886-2.253 2.146h4.208ZM377.739 231.3c-.412.397-1.107.703-1.871.703-1.237.008-1.902-.733-1.902-1.986v-4.735c-.443-.069-1.222.198-1.222-.298v-.542l1.268-.161.313-2.39c.031-.382.611-.23 1.001-.26v2.665h2.215v.986h-2.215v4.643c-.016.596.305.955.847.963.459.015.673-.252.978-.367.069 0 .138.046.191.13M381.626 232.003c-1.764 0-2.589-1.138-2.589-2.925v-4.934h1.36v4.934c0 1.13.511 1.856 1.626 1.84.955-.015 1.581-.504 2.093-1.069v-5.705h1.36v7.737c-.459-.046-1.115.168-1.177-.283l-.106-.832c-.619.657-1.36 1.237-2.567 1.237ZM391.167 225.106c-.955.015-1.581.519-2.093 1.077v5.698h-1.359v-7.737c.458.046 1.123-.168 1.176.282l.107.84c.626-.664 1.352-1.245 2.566-1.245 1.772 0 2.589 1.154 2.589 2.933v4.927h-1.359v-4.927c0-1.138-.497-1.863-1.627-1.848ZM399.659 225.106c-.954.015-1.581.519-2.092 1.077v5.698h-1.36v-7.737c.458.046 1.123-.168 1.176.282l.107.84c.626-.664 1.352-1.245 2.566-1.245 1.772 0 2.59 1.154 2.59 2.933v4.927h-1.36v-4.927c0-1.138-.496-1.863-1.627-1.848ZM410.872 230.796c-.795 1.024-2.918 1.551-4.507.917-1.405-.566-2.215-1.879-2.215-3.857 0-1.788.825-2.971 2.101-3.537.45-.198.954-.298 1.512-.298 2.085 0 3.208 1.329 3.208 3.46 0 .367-.015.535-.329.535h-5.147c.061 1.726.748 2.864 2.459 2.902.871.016 1.459-.29 1.97-.626.535-.351.718.283.948.504Zm-1.123-3.628c-.038-1.306-.657-2.123-1.955-2.146-1.383-.023-2.086.886-2.254 2.146h4.209ZM414.217 220.63v11.251h-1.36V220.63h1.36ZM418.623 231.025c.924-.023 1.581-.397 1.581-1.275 0-1.024-1.199-1.085-2.016-1.383-1.016-.366-2.009-.748-2.009-2.1 0-1.505 1.168-2.215 2.749-2.246 1.062-.022 1.856.375 2.422.902-.199.267-.352.87-.848.58-.405-.237-.871-.481-1.543-.466-.825.023-1.489.336-1.489 1.123 0 .985 1.206 1.039 2.001 1.337.977.366 2.008.71 2.008 2.016 0 1.688-1.191 2.459-2.925 2.49a3.762 3.762 0 0 1-2.581-.94c.206-.313.435-.977.977-.618.436.29.902.595 1.673.58ZM321.892 406.373h4.735v1.245h-6.217v-10.944h1.482v9.699ZM333.944 406.534c-.794 1.023-2.918 1.55-4.506.916-1.406-.565-2.215-1.878-2.215-3.857 0-1.787.825-2.971 2.1-3.536a3.723 3.723 0 0 1 1.512-.298c2.085 0 3.208 1.329 3.208 3.46 0 .367-.015.535-.328.535h-5.148c.061 1.726.748 2.864 2.459 2.902.871.015 1.459-.29 1.971-.626.534-.352.718.282.947.504Zm-1.123-3.628c-.038-1.306-.657-2.123-1.955-2.146-1.383-.023-2.085.886-2.253 2.146h4.208ZM338.764 399.744c1.795 0 2.696 1.123 2.696 2.925v4.949c-.443-.038-.985.13-1.084-.32l-.153-.718c-.695.618-1.398 1.183-2.696 1.161-1.337-.023-2.162-.703-2.162-2.055 0-1.405 1.222-1.856 2.536-2.177.603-.145 1.344-.214 2.223-.236.091-1.406-.237-2.429-1.528-2.429-.863 0-1.382.343-1.856.695-.275.198-.626.107-.756-.13l-.245-.435c.772-.734 1.643-1.23 3.025-1.23Zm-2.093 5.881c0 .787.474 1.161 1.261 1.161 1.069 0 1.649-.489 2.192-1.039v-1.611c-1.077.03-1.971.145-2.666.458-.458.206-.787.473-.787 1.031ZM346.944 397.56c-1.261 0-1.811.549-1.795 1.764v.71h2.238v.985h-2.192v6.599h-1.368v-6.576c-.374-.068-.863-.03-1.115-.221-.183-.13-.076-.512-.107-.787h1.222v-.748c.039-1.749.917-2.773 2.658-2.773.344 0 .665.054.963.153l-.031.68c-.015.236-.214.214-.473.214ZM360.838 407.618h-1.146c-.275 0-.42-.16-.504-.351l-1.024-2.643h-4.911l-1.023 2.643a.552.552 0 0 1-.504.351h-1.146l4.376-10.945h1.505l4.377 10.945Zm-7.172-4.063h4.086l-1.719-4.453a8.04 8.04 0 0 1-.328-1.031c-.099.367-.199.726-.321 1.039M364.411 407.741c-1.764 0-2.589-1.138-2.589-2.926v-4.934h1.36v4.934c0 1.131.512 1.856 1.627 1.841.954-.015 1.581-.504 2.092-1.069v-5.706h1.36v7.737c-.458-.045-1.115.168-1.176-.282l-.107-.833c-.619.657-1.36 1.238-2.567 1.238ZM374.716 407.038c-.413.397-1.108.702-1.871.702-1.238.008-1.902-.733-1.902-1.985v-4.736c-.443-.068-1.222.199-1.222-.298v-.542l1.268-.16.313-2.391c.03-.382.611-.229 1-.26v2.666h2.215v.985h-2.215v4.644c-.015.596.306.955.848.962.458.016.672-.252.978-.366.068 0 .137.046.191.13M379.65 400.844c-.955.015-1.581.519-2.093 1.077v5.697h-1.36v-11.25h1.36v4.552c.618-.626 1.321-1.161 2.49-1.161 1.772 0 2.589 1.153 2.589 2.933v4.926h-1.36v-4.926c0-1.138-.496-1.864-1.626-1.848ZM390.44 406.511c1.36-.031 2.23-.672 2.23-2.001 0-1.474-1.482-1.627-2.62-2.009-1.39-.466-2.65-1.084-2.612-2.94.031-1.436.848-2.315 1.94-2.758.894-.366 2.231-.313 3.117.039.504.198.947.473 1.321.84-.168.282-.275.657-.504.878-.39.191-.634-.214-.94-.366-.404-.199-.87-.428-1.527-.413-1.199.031-2.032.542-2.032 1.703 0 1.421 1.528 1.558 2.628 1.971 1.336.496 2.619 1.031 2.619 2.841 0 2.207-1.413 3.406-3.666 3.445a4.505 4.505 0 0 1-3.429-1.429c.198-.275.321-.634.58-.847.459-.191.711.297 1.07.496.473.26 1.031.573 1.825.55ZM401.905 406.534c-.795 1.023-2.918 1.55-4.506.916-1.406-.565-2.215-1.878-2.215-3.857 0-1.787.824-2.971 2.1-3.536a3.723 3.723 0 0 1 1.512-.298c2.085 0 3.208 1.329 3.208 3.46 0 .367-.015.535-.328.535h-5.148c.061 1.726.748 2.864 2.459 2.902.871.015 1.459-.29 1.971-.626.534-.352.718.282.947.504Zm-1.123-3.628c-.038-1.306-.657-2.123-1.955-2.146-1.383-.023-2.085.886-2.253 2.146h4.208ZM407.082 401.081c-1.131.045-1.604.718-1.986 1.611v4.926h-1.36v-7.737c.474.054 1.154-.19 1.199.375l.092 1.206c.504-1.054 1.405-1.978 2.933-1.649.176.038.336.122.481.206l-.176 1.016c-.038.13-.114.191-.236.191-.275 0-.543-.161-.947-.145ZM408.916 399.882h1.115a.44.44 0 0 1 .42.282l1.963 4.98c.138.344.206.71.283 1.092.091-.382.168-.748.305-1.092l1.986-4.98c.13-.458.939-.229 1.466-.282l-3.154 7.737h-1.23M419.226 399.882v7.737h-1.359v-7.737h1.359Zm-.672-3.407c.588 0 .978.397.978.978 0 .573-.397.962-.978.962-.573 0-.962-.389-.962-.962 0-.581.382-.978.962-.978ZM427.345 406.534c-.733 1.023-2.719 1.558-4.209.924-1.306-.557-2.062-1.841-2.062-3.712 0-2.421 1.222-3.987 3.643-3.987 1.154 0 1.94.413 2.544 1.008-.161.199-.298.443-.481.619-.321.153-.52-.145-.764-.26-.321-.152-.695-.32-1.222-.305-1.673.046-2.322 1.222-2.322 2.925 0 1.68.626 2.872 2.253 2.925.81.031 1.291-.29 1.703-.641.168-.145.405-.161.535.007M434.93 406.534c-.794 1.023-2.917 1.55-4.506.916-1.405-.565-2.215-1.878-2.215-3.857 0-1.787.825-2.971 2.1-3.536a3.724 3.724 0 0 1 1.513-.298c2.085 0 3.207 1.329 3.207 3.46 0 .367-.015.535-.328.535h-5.148c.061 1.726.749 2.864 2.46 2.902.87.015 1.458-.29 1.97-.626.535-.352.718.282.947.504Zm-1.123-3.628c-.038-1.306-.656-2.123-1.955-2.146-1.382-.023-2.085.886-2.253 2.146h4.208ZM445.433 406.534c-.734 1.023-2.719 1.558-4.209.924-1.306-.557-2.062-1.841-2.062-3.712 0-2.421 1.222-3.987 3.643-3.987 1.154 0 1.94.413 2.544 1.008-.161.199-.298.443-.482.619-.32.153-.519-.145-.763-.26-.321-.152-.695-.32-1.222-.305-1.673.046-2.322 1.222-2.322 2.925 0 1.68.626 2.872 2.253 2.925.81.031 1.291-.29 1.703-.641.168-.145.405-.161.535.007M453.659 403.746c0 2.452-1.252 3.979-3.681 3.979-2.429 0-3.697-1.535-3.697-3.979 0-1.894.817-3.131 2.169-3.704a3.921 3.921 0 0 1 1.528-.283c2.421 0 3.681 1.535 3.681 3.987Zm-5.972.008c0 1.718.611 2.91 2.291 2.91 1.627 0 2.276-1.215 2.276-2.91 0-1.703-.642-2.925-2.276-2.925-1.688 0-2.291 1.206-2.291 2.925ZM458.79 400.844c-.955.015-1.581.519-2.093 1.077v5.697h-1.359v-7.737c.458.046 1.123-.168 1.176.283l.107.84c.626-.664 1.352-1.245 2.566-1.245 1.772 0 2.589 1.154 2.589 2.933v4.926h-1.359v-4.926c0-1.138-.496-1.863-1.627-1.848ZM467.284 400.844c-.954.015-1.581.519-2.092 1.077v5.697h-1.36v-7.737c.458.046 1.123-.168 1.176.283l.107.84c.626-.664 1.352-1.245 2.566-1.245 1.772 0 2.59 1.154 2.59 2.933v4.926h-1.36v-4.926c0-1.138-.496-1.863-1.627-1.848ZM478.497 406.534c-.795 1.023-2.918 1.55-4.507.916-1.405-.565-2.215-1.878-2.215-3.857 0-1.787.825-2.971 2.101-3.536.45-.198.954-.298 1.512-.298 2.085 0 3.208 1.329 3.208 3.46 0 .367-.015.535-.329.535h-5.147c.061 1.726.748 2.864 2.459 2.902.871.015 1.459-.29 1.97-.626.535-.352.718.282.948.504Zm-1.123-3.628c-.038-1.306-.657-2.123-1.955-2.146-1.383-.023-2.086.886-2.254 2.146h4.209ZM486.05 406.534c-.733 1.023-2.719 1.558-4.209.924-1.306-.557-2.062-1.841-2.062-3.712 0-2.421 1.222-3.987 3.643-3.987 1.154 0 1.94.413 2.544 1.008-.161.199-.298.443-.481.619-.321.153-.52-.145-.764-.26-.321-.152-.695-.32-1.222-.305-1.673.046-2.322 1.222-2.322 2.925 0 1.68.626 2.872 2.253 2.925.81.031 1.291-.29 1.703-.641.168-.145.405-.161.535.007M491.679 407.038c-.413.397-1.108.703-1.872.703-1.237.007-1.901-.734-1.901-1.986v-4.736c-.443-.068-1.222.199-1.222-.297v-.543l1.267-.16.314-2.391c.03-.382.611-.229 1-.259v2.665h2.215v.985h-2.215v4.644c-.015.596.306.955.848.963.458.015.672-.252.978-.367.068 0 .137.046.19.13M495.17 406.763c.924-.023 1.581-.397 1.581-1.275 0-1.024-1.199-1.085-2.017-1.383-1.015-.367-2.008-.748-2.008-2.1 0-1.505 1.168-2.215 2.749-2.246 1.062-.023 1.856.374 2.421.901-.198.268-.351.871-.847.581-.405-.237-.871-.481-1.543-.466-.825.023-1.489.336-1.489 1.123 0 .985 1.206 1.039 2.001 1.336.977.367 2.008.711 2.008 2.017 0 1.688-1.191 2.459-2.925 2.49a3.762 3.762 0 0 1-2.581-.94c.206-.313.435-.977.977-.618.436.29.901.595 1.673.58ZM324.413 425.368c-.412.397-1.107.703-1.871.703-1.238.008-1.902-.733-1.902-1.986v-4.735c-.443-.069-1.222.198-1.222-.298v-.542l1.268-.161.313-2.39c.031-.382.611-.229 1.001-.26v2.666h2.214v.985H322v4.644c-.016.595.305.954.847.962.459.015.672-.252.978-.367.069 0 .137.046.191.13M332.708 422.076c0 2.452-1.252 3.98-3.681 3.98-2.429 0-3.697-1.535-3.697-3.98 0-1.894.817-3.131 2.169-3.704a3.918 3.918 0 0 1 1.528-.282c2.421 0 3.681 1.535 3.681 3.986Zm-5.973.008c0 1.719.611 2.91 2.292 2.91 1.627 0 2.276-1.214 2.276-2.91 0-1.703-.642-2.925-2.276-2.925-1.688 0-2.292 1.207-2.292 2.925ZM341.552 425.368c-.413.397-1.108.703-1.872.703-1.237.008-1.901-.733-1.901-1.986v-4.735c-.443-.069-1.222.198-1.222-.298v-.542l1.267-.161.314-2.39c.03-.382.611-.229 1-.26v2.666h2.215v.985h-2.215v4.644c-.015.595.306.954.848.962.458.015.672-.252.978-.367.068 0 .137.046.191.13M346.485 419.174c-.954.015-1.581.52-2.092 1.077v5.698h-1.36v-11.251h1.36v4.553c.618-.627 1.321-1.161 2.49-1.161 1.772 0 2.589 1.153 2.589 2.933v4.926h-1.36v-4.926c0-1.139-.496-1.864-1.627-1.849ZM357.698 424.864c-.795 1.024-2.918 1.551-4.507.917-1.405-.565-2.214-1.879-2.214-3.857 0-1.787.824-2.971 2.1-3.537a3.723 3.723 0 0 1 1.512-.297c2.085 0 3.208 1.329 3.208 3.459 0 .367-.015.535-.328.535h-5.148c.061 1.726.748 2.864 2.459 2.902.871.016 1.459-.29 1.971-.626.534-.351.718.283.947.504Zm-1.123-3.628c-.038-1.306-.657-2.123-1.955-2.146-1.383-.023-2.085.886-2.253 2.146h4.208ZM369.949 418.036c0 1.833-1.161 2.712-2.696 3.101.183.107.343.268.488.466l3.193 4.346c-.703-.069-1.566.16-1.909-.313l-2.842-3.911c-.183-.244-.313-.343-.74-.343h-1.123v4.567h-1.474v-10.945h3.093c2.345.023 4.01.772 4.01 3.032Zm-1.444.107c0-1.436-1.016-1.97-2.566-1.97h-1.619v4.132h1.55c1.566-.023 2.635-.649 2.635-2.162ZM379.13 422.077c0 2.451-1.253 3.979-3.681 3.979-2.429 0-3.697-1.535-3.697-3.979 0-1.894.817-3.132 2.169-3.705.458-.191.962-.282 1.528-.282 2.421 0 3.681 1.535 3.681 3.987Zm-5.973.007c0 1.719.611 2.91 2.292 2.91 1.626 0 2.276-1.214 2.276-2.91 0-1.703-.642-2.925-2.276-2.925-1.688 0-2.292 1.207-2.292 2.925ZM387.622 422.077c0 2.451-1.252 3.979-3.681 3.979-2.429 0-3.697-1.535-3.697-3.979 0-1.894.817-3.132 2.169-3.705a3.921 3.921 0 0 1 1.528-.282c2.421 0 3.681 1.535 3.681 3.987Zm-5.973.007c0 1.719.611 2.91 2.292 2.91 1.627 0 2.276-1.214 2.276-2.91 0-1.703-.642-2.925-2.276-2.925-1.688 0-2.292 1.207-2.292 2.925ZM393.518 425.369c-.412.397-1.107.702-1.871.702-1.237.008-1.902-.733-1.902-1.986v-4.735c-.443-.069-1.222.199-1.222-.298v-.542l1.268-.16.313-2.391c.031-.382.611-.229 1.001-.26v2.666h2.215v.985h-2.215v4.644c-.015.596.305.954.848.962.458.015.672-.252.977-.366.069 0 .138.045.191.129M401.545 415.004c2.467.023 4.079.993 4.079 3.391 0 2.368-1.65 3.407-4.079 3.46h-1.756v4.094h-1.475v-10.945h3.231Zm2.597 3.391c0-1.504-.978-2.222-2.597-2.222h-1.756v4.506h1.756c1.581-.031 2.597-.741 2.597-2.284ZM410.627 419.411c-1.131.046-1.604.718-1.986 1.612v4.926h-1.36v-7.737c.474.053 1.154-.191 1.199.374l.092 1.207c.504-1.054 1.405-1.978 2.933-1.65.176.038.336.122.481.207l-.176 1.015c-.038.13-.114.191-.236.191-.275 0-.543-.16-.947-.145ZM420.249 422.077c0 2.451-1.252 3.979-3.681 3.979-2.429 0-3.697-1.535-3.697-3.979 0-1.894.817-3.132 2.169-3.705a3.918 3.918 0 0 1 1.528-.282c2.421 0 3.681 1.535 3.681 3.987Zm-5.973.007c0 1.719.611 2.91 2.292 2.91 1.627 0 2.276-1.214 2.276-2.91 0-1.703-.642-2.925-2.276-2.925-1.688 0-2.292 1.207-2.292 2.925ZM423.282 421.985l-2.605-3.773h1.306c.229 0 .291.069.382.206l1.894 2.902a1.65 1.65 0 0 1 .199-.427l1.665-2.444c.092-.115.16-.229.344-.237h1.252l-2.604 3.697 2.711 4.04h-1.306c-.229.008-.336-.145-.42-.283l-1.948-3.032a1.312 1.312 0 0 1-.16.397l-1.802 2.635c-.1.123-.184.283-.405.283h-1.215M431.439 428.233c-.1.198-.191.336-.489.336h-1.008l1.413-3.071-3.193-7.286h1.176c.229-.008.352.137.42.282.726 1.742 1.505 3.437 2.192 5.209.046.107.062.23.084.344.077-.244.138-.458.23-.687l2.008-4.866c.138-.458.947-.229 1.482-.282M442.743 424.841c1.359-.03 2.23-.672 2.23-2.001 0-1.474-1.482-1.627-2.62-2.008-1.39-.466-2.65-1.085-2.612-2.941.031-1.436.848-2.314 1.94-2.757.894-.367 2.23-.313 3.116.038a3.93 3.93 0 0 1 1.322.84c-.168.283-.275.657-.504.878-.39.191-.634-.213-.94-.366-.405-.199-.871-.428-1.527-.413-1.2.031-2.032.543-2.032 1.704 0 1.42 1.527 1.558 2.627 1.97 1.337.497 2.62 1.031 2.62 2.841 0 2.208-1.413 3.407-3.666 3.445a4.502 4.502 0 0 1-3.429-1.428c.198-.275.32-.634.58-.848.458-.191.71.298 1.069.496.474.26 1.031.573 1.826.55ZM454.208 424.864c-.795 1.024-2.918 1.551-4.507.917-1.405-.565-2.215-1.879-2.215-3.857 0-1.787.825-2.971 2.101-3.537.45-.198.954-.297 1.512-.297 2.085 0 3.208 1.329 3.208 3.459 0 .367-.015.535-.329.535h-5.147c.061 1.726.748 2.864 2.459 2.902.871.016 1.459-.29 1.97-.626.535-.351.718.283.948.504Zm-1.123-3.628c-.038-1.306-.657-2.123-1.955-2.146-1.383-.023-2.086.886-2.254 2.146h4.209ZM459.384 419.411c-1.13.046-1.604.718-1.985 1.611v4.927h-1.36v-7.737c.474.053 1.153-.191 1.199.374l.092 1.207c.504-1.054 1.405-1.978 2.933-1.65.175.038.336.122.481.206l-.176 1.016c-.038.13-.114.191-.237.191-.275 0-.542-.16-.947-.145ZM461.219 418.212h1.115a.44.44 0 0 1 .42.282l1.963 4.98c.137.344.206.711.282 1.092.092-.381.168-.748.306-1.092l1.986-4.98c.13-.458.939-.229 1.466-.282l-3.154 7.737h-1.23M471.529 418.212v7.737h-1.36v-7.737h1.36Zm-.672-3.407c.588 0 .978.398.978.978 0 .573-.398.962-.978.962-.573 0-.962-.389-.962-.962 0-.58.381-.978.962-.978ZM479.648 424.864c-.734 1.024-2.72 1.558-4.209.924-1.306-.557-2.062-1.84-2.062-3.712 0-2.421 1.222-3.986 3.643-3.986 1.153 0 1.94.412 2.543 1.008-.16.198-.297.443-.481.618-.32.153-.519-.145-.763-.259-.321-.153-.695-.321-1.222-.306-1.673.046-2.322 1.222-2.322 2.925 0 1.681.626 2.872 2.253 2.926.809.03 1.291-.291 1.703-.642.168-.145.405-.16.535.008M487.233 424.864c-.794 1.024-2.918 1.551-4.506.917-1.406-.565-2.215-1.879-2.215-3.857 0-1.787.825-2.971 2.1-3.537a3.723 3.723 0 0 1 1.512-.297c2.085 0 3.208 1.329 3.208 3.459 0 .367-.015.535-.328.535h-5.148c.061 1.726.748 2.864 2.459 2.902.871.016 1.459-.29 1.971-.626.534-.351.718.283.947.504Zm-1.123-3.628c-.038-1.306-.657-2.123-1.955-2.146-1.383-.023-2.085.886-2.253 2.146h4.208Z" fill="#512FC9"/><g filter="url(#b)"><path d="M91.953 19.942a2.546 2.546 0 0 1 2.546-2.546h62.799a2.545 2.545 0 0 1 2.546 2.546V82.74a2.544 2.544 0 0 1-2.546 2.546H94.499a2.546 2.546 0 0 1-2.546-2.546v-62.8Z" fill="#fff"/></g><g filter="url(#c)"><path fill-rule="evenodd" clip-rule="evenodd" d="M94.5 17.82a2.121 2.121 0 0 0-2.122 2.122V82.74a2.122 2.122 0 0 0 2.121 2.121h62.799a2.123 2.123 0 0 0 2.122-2.121v-62.8a2.125 2.125 0 0 0-2.122-2.12H94.499Zm-2.1.022a2.97 2.97 0 0 1 2.1-.87h62.798a2.972 2.972 0 0 1 2.971 2.97V82.74a2.97 2.97 0 0 1-2.971 2.97H94.499a2.97 2.97 0 0 1-2.97-2.97v-62.8c0-.787.313-1.542.87-2.1Z" fill="#BECACF"/></g><path d="M140.342 43.873c0 4.345-3.548 7.876-7.876 7.876a7.862 7.862 0 0 1-7.866-7.876c0-4.345 3.504-7.875 7.866-7.875 4.328 0 7.876 3.53 7.876 7.875Zm-18.382 5.253c0 2.886-2.359 5.245-5.236 5.245a5.251 5.251 0 0 1-5.261-5.245 5.26 5.26 0 0 1 5.261-5.261c2.886 0 5.236 2.36 5.236 5.261Zm-15.742 15.208c0-4.048 3.31-7.332 7.358-7.332h6.297a7.321 7.321 0 0 1 7.323 7.332c0 1.018-.848 1.833-1.816 1.833h-17.312c-1.035 0-1.867-.815-1.867-1.833h.017Z" fill="#697986"/><path d="M122.199 55.975c3.649.993 6.339 4.311 6.339 8.291 0 .679-.237 1.358-.636 1.893h15.309c1.299 0 2.377-1.053 2.377-2.351 0-5.22-4.227-9.446-9.454-9.446h-8.656c-1.978 0-3.785.578-5.279 1.613Z" fill="#697986"/><g filter="url(#d)"><path d="M594.912 19.942a2.544 2.544 0 0 1 2.546-2.546h62.799a2.545 2.545 0 0 1 2.546 2.546V82.74a2.544 2.544 0 0 1-2.546 2.546h-62.799a2.545 2.545 0 0 1-2.546-2.546v-62.8Z" fill="#fff"/></g><g filter="url(#e)"><path fill-rule="evenodd" clip-rule="evenodd" d="M597.458 17.82a2.122 2.122 0 0 0-2.121 2.122V82.74a2.12 2.12 0 0 0 2.121 2.121h62.799a2.123 2.123 0 0 0 2.122-2.121v-62.8a2.125 2.125 0 0 0-2.122-2.12h-62.799Zm-2.1.022a2.97 2.97 0 0 1 2.1-.87h62.799a2.972 2.972 0 0 1 2.971 2.97V82.74a2.97 2.97 0 0 1-2.971 2.97h-62.799a2.97 2.97 0 0 1-2.97-2.97v-62.8c0-.787.313-1.542.87-2.1Z" fill="#BECACF"/></g><path d="M643.302 43.873c0 4.345-3.539 7.876-7.867 7.876a7.865 7.865 0 0 1-7.875-7.876 7.865 7.865 0 0 1 7.875-7.875c4.328 0 7.867 3.53 7.867 7.875Zm-18.373 5.253c0 2.886-2.376 5.245-5.244 5.245-2.911 0-5.262-2.35-5.262-5.245a5.26 5.26 0 0 1 5.262-5.261c2.885 0 5.236 2.36 5.236 5.261h.008Zm-15.751 15.208c0-4.048 3.31-7.332 7.367-7.332h6.28a7.318 7.318 0 0 1 7.332 7.332c0 1.018-.823 1.833-1.808 1.833h-17.312c-1.018 0-1.867-.815-1.867-1.833h.008Z" fill="#697986"/><path d="M625.159 55.975c3.649.993 6.339 4.311 6.339 8.291a3.26 3.26 0 0 1-.628 1.893h15.309a2.358 2.358 0 0 0 2.36-2.351c0-5.22-4.21-9.446-9.446-9.446h-8.656c-1.977 0-3.793.578-5.287 1.613h.009Z" fill="#697986"/><path fill-rule="evenodd" clip-rule="evenodd" d="M121.451 132.471V86.56h1.697v45.911h-1.697Z" fill="#697986"/><path d="M123.148 86.594h-1.697v-.883h1.697v.883Z" fill="#697986"/><path fill-rule="evenodd" clip-rule="evenodd" d="M121.43 85.69h1.739v.925h-1.739v-.925Zm.042.042v.84h1.655v-.84h-1.655Z" fill="#697986"/><path d="m122.301 145.429-3.938-12.101h7.867l-3.929 12.101Z" fill="#697986"/><path fill-rule="evenodd" clip-rule="evenodd" d="M117.193 132.479h10.204l-5.097 15.696-5.107-15.696Zm2.337 1.698 2.769 8.507 2.762-8.507h-5.531ZM628.01 132.471V86.56h1.697v45.911h-1.697Z" fill="#697986"/><path d="M629.707 86.594h-1.697v-.883h1.697v.883Z" fill="#697986"/><path fill-rule="evenodd" clip-rule="evenodd" d="M627.988 85.69h1.74v.925h-1.74v-.925Zm.043.042v.84h1.655v-.84h-1.655Z" fill="#697986"/><path d="m628.859 145.429-3.929-12.101h7.867l-3.938 12.101Z" fill="#697986"/><path fill-rule="evenodd" clip-rule="evenodd" d="M623.762 132.479h10.203l-5.107 15.696-5.096-15.696Zm2.335 1.698 2.763 8.507 2.768-8.507h-5.531Z" fill="#697986"/><path d="M17.816 153.271a5.092 5.092 0 0 1 5.092-5.092H233.37a5.092 5.092 0 0 1 5.092 5.092v193.488a5.092 5.092 0 0 1-5.092 5.092H22.909a5.091 5.091 0 0 1-5.093-5.092V153.271Z" fill="url(#f)"/><path fill-rule="evenodd" clip-rule="evenodd" d="M38.183 219.209a2.76 2.76 0 0 0-2.758 2.759v41.795a2.758 2.758 0 0 0 2.758 2.758h179.911a2.76 2.76 0 0 0 2.758-2.758v-41.795a2.761 2.761 0 0 0-2.758-2.759H38.184Zm-2.85-.092a4.03 4.03 0 0 1 2.85-1.18h179.911a4.03 4.03 0 0 1 4.031 4.031v41.795a4.03 4.03 0 0 1-4.031 4.031H38.184a4.031 4.031 0 0 1-4.032-4.031v-41.795a4.03 4.03 0 0 1 1.181-2.851Z" fill="#fff" fill-opacity=".3"/><path d="M71.57 246.38h4.422v1.695h-6.476v-11.044h2.054v9.349ZM83.576 246.907c-.703.809-1.764 1.283-3.23 1.283-2.529 0-3.858-1.619-3.858-4.201 0-1.81.886-2.994 2.192-3.567.466-.206.986-.305 1.574-.305 2.192 0 3.39 1.329 3.39 3.551 0 .413-.022.726-.434.726h-4.843c.03 1.726 1.207 2.665 2.94 2.23.398-.099.711-.298 1.009-.474.244-.145.557-.122.71.069l.55.688Zm-1.627-3.651c-.03-1.092-.557-1.787-1.657-1.787-1.176 0-1.726.725-1.887 1.787h3.544ZM88.419 240.094c1.879 0 2.902 1.153 2.902 3.032v4.949c-.603-.046-1.382.176-1.497-.405l-.168-.557c-.672.588-1.352 1.1-2.589 1.084-1.413-.023-2.276-.71-2.276-2.123 0-1.405 1.16-1.886 2.452-2.23.596-.161 1.344-.237 2.238-.26.076-1.184-.222-2.001-1.299-2.001-.794 0-1.23.306-1.71.588-.36.214-.818.038-.97-.237l-.344-.603c.9-.825 1.985-1.237 3.26-1.237Zm-1.825 5.881c-.023.657.427.924 1.061.924.894 0 1.367-.39 1.826-.848v-1.321c-.932.046-1.673.13-2.269.405-.374.168-.603.389-.618.84ZM96.758 238.261c-1.206 0-1.512.779-1.42 2.047h2.039v1.344h-1.978v6.423h-1.887v-6.416c-.466-.106-1.168-.022-1.168-.58v-.771h1.168c-.13-2.231.863-3.468 2.926-3.468.358 0 .695.046 1.008.145l-.038.947c-.008.313-.337.329-.65.329ZM111.294 248.075h-1.588a.704.704 0 0 1-.688-.466l-.825-2.253h-4.575l-.824 2.253a.752.752 0 0 1-.68.466h-1.596l4.338-11.044h2.1l4.338 11.044Zm-7.149-4.17h3.521c-.588-1.665-1.244-3.238-1.764-4.972-.504 1.756-1.176 3.299-1.757 4.972ZM114.809 248.197c-1.788 0-2.643-1.183-2.643-2.978v-4.98h1.887v4.98c0 .924.42 1.512 1.328 1.504.78-.007 1.284-.389 1.727-.817v-5.667h1.886v7.836c-.611-.068-1.52.222-1.634-.343l-.13-.627c-.588.588-1.268 1.092-2.421 1.092ZM125.638 247.502c-.489.421-1.207.688-2.055.695-1.344.016-2.116-.832-2.116-2.169v-4.376c-.496-.031-1.168.16-1.168-.397v-.749l1.26-.206.397-2.138c.077-.505.879-.268 1.398-.321v2.467h2.062v1.344h-2.062v4.247c-.008.45.244.771.672.779.367.007.519-.191.794-.26.145.008.191.069.252.168M130.535 241.583c-.78.008-1.284.397-1.727.825v5.667h-1.886v-11.349h1.886v4.361c.581-.527 1.23-.986 2.299-.97 1.788.03 2.643 1.176 2.643 2.971v4.987h-1.887v-4.987c0-.924-.42-1.512-1.328-1.505ZM141.509 246.517c1.115 0 1.879-.534 1.841-1.611-.046-1.337-1.489-1.413-2.543-1.772-1.398-.481-2.59-1.169-2.544-3.055.038-1.52.917-2.437 2.078-2.903.962-.389 2.375-.336 3.337.038.55.207 1.016.489 1.406.856l-.504.97c-.115.305-.489.389-.802.191-.489-.313-1.039-.665-1.879-.649-1.008.023-1.711.412-1.711 1.39 0 1.275 1.543 1.344 2.551 1.733 1.321.512 2.543 1.1 2.543 2.91 0 1.734-.916 2.781-2.207 3.308-1.054.427-2.696.297-3.651-.123-.611-.267-1.176-.611-1.604-1.054l.596-.985c.176-.26.565-.328.878-.099.558.412 1.2.855 2.215.855ZM153.31 246.907c-.702.809-1.764 1.283-3.23 1.283-2.528 0-3.857-1.619-3.857-4.201 0-1.81.886-2.994 2.192-3.567.466-.206.985-.305 1.573-.305 2.192 0 3.391 1.329 3.391 3.551 0 .413-.023.726-.435.726h-4.842c.03 1.726 1.206 2.665 2.94 2.23.397-.099.71-.298 1.008-.474.245-.145.558-.122.711.069l.549.688Zm-1.626-3.651c-.031-1.092-.558-1.787-1.658-1.787-1.176 0-1.726.725-1.886 1.787h3.544ZM158.519 241.919c-.932.038-1.375.565-1.718 1.276v4.88h-1.887v-7.836c.634.084 1.573-.267 1.665.473l.115.947c.481-.809 1.122-1.565 2.253-1.565.389 0 .71.091.962.267l-.244 1.413c-.031.176-.115.252-.306.252-.252 0-.496-.122-.84-.107ZM165.079 248.075h-1.711l-3.116-7.836h1.566a.54.54 0 0 1 .542.351c.573 1.642 1.214 3.216 1.726 4.904.069.229.115.466.16.702.1-.504.207-.962.382-1.42l1.551-4.186a.542.542 0 0 1 .519-.351h1.49M171.313 240.239v7.836h-1.887v-7.836h1.887Zm-.94-3.49c.733 0 1.222.473 1.222 1.206 0 .718-.496 1.184-1.222 1.184-.71 0-1.191-.473-1.191-1.184 0-.725.466-1.206 1.191-1.206ZM179.523 246.907c-.68.794-1.65 1.283-3.086 1.283-1.733 0-2.734-1.001-3.238-2.33-.359-.939-.374-2.337-.031-3.315.512-1.451 1.627-2.428 3.552-2.428 1.26 0 2.062.443 2.727 1.092-.222.282-.398.619-.657.855-.543.199-.795-.313-1.299-.42-.183-.038-.397-.091-.656-.091-1.467.038-1.986 1.092-1.986 2.589 0 1.481.511 2.566 1.94 2.612.748.023 1.13-.29 1.527-.604.199-.152.512-.129.665.069M187.289 246.907c-.703.809-1.764 1.283-3.231 1.283-2.528 0-3.857-1.619-3.857-4.201 0-1.81.886-2.994 2.192-3.567.466-.206.985-.305 1.574-.305 2.192 0 3.391 1.329 3.391 3.551 0 .413-.023.726-.436.726h-4.842c.031 1.726 1.207 2.665 2.941 2.23.397-.099.71-.298 1.008-.474.244-.145.557-.122.71.069l.55.688Zm-1.627-3.651c-.03-1.092-.557-1.787-1.657-1.787-1.176 0-1.726.725-1.887 1.787h3.544Z" fill="#fff" fill-opacity=".75"/><path d="M59.995 177.907c.186.127.254.364.17.594-.51 1.612-1.444 3.165-2.547 4.472-.17.187-.39.254-.594.17l-3.225-1.146a11.34 11.34 0 0 1-2.681 1.57l-.637 3.394c-.06.196-.237.408-.467.442-.848.152-1.68.229-2.545.229-.866 0-1.698-.085-2.546-.238-.23-.042-.408-.254-.459-.45l-.627-3.394c-.968-.407-1.885-.917-2.674-1.57l-3.224 1.137c-.204.085-.425.026-.595-.17-1.103-1.298-2.036-2.843-2.546-4.472-.084-.229-.017-.467.17-.594l2.563-2.266c-.102-.492-.127-1.035-.127-1.578 0-.509.025-1.053.127-1.57l-2.571-2.258a.504.504 0 0 1-.17-.594c.51-1.629 1.443-3.182 2.546-4.455.17-.17.39-.255.594-.153l3.225 1.137c.797-.678 1.714-1.188 2.681-1.57l.637-3.394c.06-.212.238-.424.467-.424a12.238 12.238 0 0 1 5.092 0c.229 0 .407.212.458.424l.628 3.394c.967.382 1.867.9 2.673 1.579l3.225-1.137c.203-.111.424-.026.594.169 1.103 1.273 2.037 2.818 2.546 4.447a.504.504 0 0 1-.17.594l-2.563 2.258c.102.509.127 1.061.127 1.57 0 .543-.025 1.086-.127 1.578l2.572 2.258v.017Zm-12.475 4.896c4.786 0 8.681-3.904 8.681-8.741s-3.887-8.741-8.673-8.741c-4.812 0-8.681 3.904-8.681 8.741s3.87 8.741 8.681 8.741h-.008Zm0-1.086c-4.201 0-7.587-3.42-7.587-7.663s3.394-7.655 7.587-7.655c4.175 0 7.586 3.42 7.586 7.655 0 4.243-3.411 7.663-7.587 7.663Zm-4.244-11.245v2.148h3.174v5.371h2.461v-5.363h3.191v-2.147h-8.826v-.009Z" fill="#fff"/><path fill-rule="evenodd" clip-rule="evenodd" d="M18 200.078a.426.426 0 0 1 .3-.124H238.29c.112 0 .22.045.3.124a.428.428 0 0 1 0 .6.425.425 0 0 1-.3.125H18.308a.423.423 0 0 1-.368-.212h-.065v-.213c0-.112.045-.22.124-.3Z" fill="#fff" fill-opacity=".3"/><path d="M74.147 162.415v1.78h-2.799v7.499H69.26v-7.499h-2.798v-1.78h7.686ZM75.486 171.694v-9.279h6.267v1.754h-4.178v1.821h3.709v1.713h-3.709v2.236h4.486v1.755h-6.575ZM89.799 169.899v1.795h-6.2v-9.279h2.09v7.484h4.11ZM91.139 171.694v-9.279h6.266v1.754h-4.178v1.821h3.71v1.713h-3.71v2.236h4.486v1.755h-6.574ZM99.252 162.548c.777-.16 1.915-.241 2.785-.241 2.544 0 4.298.71 4.298 3.12 0 2.651-2.142 3.24-4.994 3.16v3.106h-2.089v-9.145Zm4.927 2.866c0-1.393-1.499-1.393-2.838-1.286v2.678c1.499 0 2.838.04 2.838-1.392ZM112.092 164.035c-1.714 0-2.464 1.258-2.464 3.012s.737 2.999 2.464 2.999c1.714 0 2.464-1.245 2.464-2.999s-.737-3.012-2.464-3.012Zm0-1.835c2.959 0 4.619 1.821 4.619 4.847 0 3.04-1.633 4.834-4.619 4.834-2.959 0-4.619-1.808-4.619-4.834 0-2.999 1.687-4.847 4.619-4.847ZM118.453 162.548c.79-.16 1.834-.241 2.718-.241 2.504.014 4.312.723 4.312 3.053 0 1.419-.697 2.102-1.741 2.544.87 1.112 1.66 2.437 2.303 3.789h-2.343c-.656-1.164-1.326-2.396-2.129-3.387h-1.031v3.387h-2.089v-9.145Zm4.874 2.799c.013-1.286-1.473-1.312-2.785-1.219v2.518c1.486-.014 2.772.04 2.785-1.299ZM134.131 162.415v1.78h-2.799v7.499h-2.088v-7.499h-2.799v-1.78h7.686ZM73.463 184.909v1.794h-6.2v-9.279h2.09v7.485h4.11ZM74.803 186.703v-9.279h6.266v1.754h-4.178v1.821h3.71v1.714h-3.71v2.236h4.486v1.754h-6.574ZM81.978 186.703c1.152-3.294 2.29-6.347 3.696-9.279h1.995c1.393 2.946 2.558 5.999 3.696 9.279h-2.236c-.201-.656-.47-1.352-.683-2.008H84.83c-.215.656-.483 1.352-.683 2.008h-2.17Zm4.647-7.177c-.415 1.138-.897 2.317-1.313 3.508h2.638c-.415-1.205-.883-2.37-1.325-3.508ZM92.57 186.703v-9.279h6.213v1.754H94.66v1.942h3.669v1.754h-3.669v3.829H92.57ZM110.808 186.194c-.71.402-1.875.696-3.107.696-3.026 0-4.633-1.794-4.633-4.833 0-3.95 3.575-5.798 7.257-4.325.161.067.282.147.349.187l-.603 1.687a4.597 4.597 0 0 0-2.29-.549c-1.713.054-2.544 1.152-2.544 2.96 0 1.861.79 2.999 2.652 3.026.964 0 1.713-.201 2.343-.523M118.346 184.909v1.794h-6.2v-9.279h2.089v7.485h4.111ZM127.01 183.195c-.04 2.437-1.352 3.695-3.83 3.695-2.45 0-3.762-1.285-3.762-3.695v-5.771h2.089v5.597c.013 1.259.468 2.062 1.7 2.062 1.165 0 1.714-.723 1.714-2.062v-5.597h2.089v5.771ZM129.031 184.521a5.007 5.007 0 0 0 2.517.589c.83-.014 1.486-.161 1.499-.964 0-.308-.147-.563-.428-.764-.71-.522-2.491-.843-3.2-1.526-.442-.428-.844-.977-.817-1.861.067-1.942 1.419-2.745 3.414-2.785a5.716 5.716 0 0 1 2.745.643l-.602 1.646c-.549-.267-1.138-.508-2.009-.508-1.017 0-1.66.428-1.285 1.272.91.91 2.798 1.004 3.642 1.941.442.482.643 1.045.696 1.955.161 3.106-4.499 3.24-6.762 2.022M143.424 177.424v1.781h-2.799v7.498h-2.088v-7.498h-2.799v-1.781h7.686ZM144.764 186.703v-9.279h6.266v1.754h-4.178v1.821h3.709v1.714h-3.709v2.236h4.486v1.754h-6.574ZM152.877 177.558c.79-.161 1.834-.241 2.718-.241 2.504.013 4.311.723 4.311 3.053 0 1.419-.696 2.102-1.74 2.544.87 1.111 1.66 2.437 2.303 3.789h-2.343c-.656-1.165-1.326-2.397-2.129-3.388h-1.031v3.388h-2.089v-9.145Zm4.874 2.798c.013-1.285-1.473-1.312-2.785-1.218v2.517c1.486-.013 2.771.04 2.785-1.299Z" fill="#fff"/><path fill-rule="evenodd" clip-rule="evenodd" d="M38.183 285.454a2.755 2.755 0 0 0-2.758 2.758v41.795a2.756 2.756 0 0 0 2.758 2.758h179.911a2.755 2.755 0 0 0 2.758-2.758v-41.795a2.757 2.757 0 0 0-2.758-2.758H38.184Zm-2.85-.092a4.031 4.031 0 0 1 2.85-1.181h179.911a4.03 4.03 0 0 1 4.031 4.031v41.795a4.029 4.029 0 0 1-4.031 4.031H38.184a4.031 4.031 0 0 1-4.032-4.031v-41.795a4.03 4.03 0 0 1 1.181-2.85Z" fill="#fff" fill-opacity=".3"/><path d="M68.428 312.625h4.422v1.695h-6.477v-11.044h2.055v9.349ZM80.433 313.152c-.702.81-1.764 1.283-3.23 1.283-2.528 0-3.857-1.619-3.857-4.201 0-1.81.886-2.994 2.192-3.566.466-.207.985-.306 1.573-.306 2.192 0 3.391 1.329 3.391 3.552 0 .412-.023.725-.435.725h-4.842c.03 1.726 1.206 2.666 2.94 2.23.397-.099.71-.297 1.008-.473.245-.145.558-.122.71.069l.55.687Zm-1.626-3.651c-.03-1.092-.558-1.787-1.658-1.787-1.176 0-1.726.726-1.886 1.787h3.544ZM85.276 306.339c1.88 0 2.903 1.153 2.903 3.032v4.95c-.604-.046-1.383.175-1.497-.405l-.168-.558c-.672.588-1.352 1.1-2.59 1.085-1.413-.023-2.276-.711-2.276-2.124 0-1.405 1.161-1.886 2.452-2.23.596-.16 1.344-.237 2.238-.259.076-1.184-.221-2.002-1.298-2.002-.795 0-1.23.306-1.711.589-.36.213-.817.038-.97-.237l-.344-.604c.901-.824 1.986-1.237 3.261-1.237Zm-1.825 5.881c-.023.657.428.924 1.062.924.893 0 1.367-.389 1.825-.847v-1.322c-.932.046-1.673.13-2.268.405-.375.168-.604.39-.62.84ZM93.616 304.506c-1.207 0-1.513.779-1.42 2.047h2.038v1.344h-1.978v6.424H90.37v-6.416c-.466-.107-1.169-.023-1.169-.581v-.771h1.169c-.13-2.23.863-3.468 2.925-3.468.359 0 .695.046 1.008.146l-.038.947c-.008.313-.336.328-.65.328ZM106.394 306.798c0 2.512-1.696 3.597-4.285 3.635h-1.543v3.888h-2.054v-11.044h3.597c2.574.03 4.285 1.023 4.285 3.521Zm-2.055 0c0-1.345-.855-1.933-2.23-1.933h-1.543v3.964h1.543c1.405-.007 2.23-.649 2.23-2.031ZM111.488 308.165c-.932.038-1.375.565-1.719 1.275v4.881h-1.886v-7.837c.634.084 1.573-.267 1.665.474l.114.947c.482-.81 1.123-1.566 2.254-1.566.389 0 .71.092.962.268l-.245 1.413c-.03.175-.114.252-.305.252-.252 0-.496-.123-.84-.107ZM115.871 306.645c.925-.374 2.269-.374 3.185 0 1.406.565 2.276 1.802 2.276 3.742 0 2.521-1.359 4.048-3.864 4.048-2.513 0-3.888-1.527-3.888-4.048 0-1.94.878-3.177 2.291-3.742Zm-.343 3.758c0 1.535.496 2.581 1.94 2.581 1.436 0 1.917-1.046 1.917-2.581s-.481-2.597-1.917-2.597c-1.444 0-1.94 1.062-1.94 2.597ZM124.204 310.28l-2.574-3.796h1.818c.283 0 .367.069.481.245l1.642 2.62c.062-.191.13-.359.237-.52l1.322-2.062c.114-.16.198-.283.435-.283h1.734l-2.582 3.712 2.689 4.125h-1.818c-.283.007-.436-.176-.543-.352l-1.665-2.726a1.386 1.386 0 0 1-.19.458l-1.467 2.268c-.107.153-.252.359-.512.352h-1.688M133.377 316.474c-.16.65-1.298.329-2.031.405l1.466-3.139-3.169-7.256h1.649a.526.526 0 0 1 .535.352c.611 1.489 1.253 2.948 1.818 4.475.053.138.076.283.107.428.565-1.688 1.252-3.261 1.863-4.903a.57.57 0 0 1 .52-.352h1.512M144.652 312.763c1.115 0 1.879-.535 1.841-1.612-.046-1.337-1.49-1.413-2.544-1.772-1.397-.481-2.589-1.168-2.543-3.055.038-1.52.916-2.436 2.077-2.902.963-.39 2.376-.336 3.338.038a4.13 4.13 0 0 1 1.405.855l-.504.97c-.114.306-.489.39-.802.191-.489-.313-1.038-.664-1.879-.649-1.008.023-1.71.412-1.71 1.39 0 1.276 1.542 1.344 2.551 1.734 1.321.512 2.543 1.1 2.543 2.91 0 1.734-.917 2.78-2.207 3.307-1.054.428-2.696.298-3.651-.122-.611-.268-1.176-.611-1.604-1.054l.596-.986c.175-.259.565-.328.878-.099.558.413 1.199.856 2.215.856ZM156.453 313.152c-.703.81-1.764 1.283-3.231 1.283-2.528 0-3.857-1.619-3.857-4.201 0-1.81.886-2.994 2.192-3.566.466-.207.986-.306 1.574-.306 2.192 0 3.391 1.329 3.391 3.552 0 .412-.023.725-.436.725h-4.842c.031 1.726 1.207 2.666 2.941 2.23.397-.099.71-.297 1.008-.473.244-.145.557-.122.71.069l.55.687Zm-1.627-3.651c-.03-1.092-.557-1.787-1.657-1.787-1.176 0-1.726.726-1.887 1.787h3.544ZM161.662 308.165c-.932.038-1.375.565-1.719 1.275v4.881h-1.886v-7.837c.634.084 1.573-.267 1.665.474l.114.947c.481-.81 1.123-1.566 2.253-1.566.39 0 .711.092.963.267l-.245 1.413c-.03.176-.114.252-.305.252-.252 0-.497-.122-.84-.106ZM168.222 314.321h-1.711l-3.116-7.837h1.565a.541.541 0 0 1 .543.352c.572 1.642 1.214 3.215 1.726 4.903.068.229.114.466.16.703.099-.504.206-.963.382-1.421l1.55-4.185a.544.544 0 0 1 .52-.352h1.489M174.455 306.484v7.837h-1.886v-7.837h1.886Zm-.939-3.49c.733 0 1.222.473 1.222 1.207 0 .718-.497 1.183-1.222 1.183-.711 0-1.192-.473-1.192-1.183 0-.726.466-1.207 1.192-1.207ZM182.666 313.152c-.68.794-1.65 1.283-3.086 1.283-1.734 0-2.734-1-3.238-2.329-.359-.94-.375-2.338-.031-3.315.512-1.451 1.627-2.429 3.552-2.429 1.26 0 2.062.443 2.726 1.092-.221.283-.397.619-.657.856-.542.198-.794-.313-1.298-.42-.183-.039-.397-.092-.657-.092-1.466.038-1.986 1.092-1.986 2.589 0 1.482.512 2.566 1.94 2.612.749.023 1.131-.29 1.528-.603.198-.153.512-.13.664.069M190.432 313.152c-.703.81-1.765 1.283-3.231 1.283-2.528 0-3.857-1.619-3.857-4.201 0-1.81.886-2.994 2.192-3.566.466-.207.985-.306 1.573-.306 2.192 0 3.391 1.329 3.391 3.552 0 .412-.023.725-.435.725h-4.842c.03 1.726 1.206 2.666 2.94 2.23.397-.099.71-.297 1.008-.473.245-.145.558-.122.711.069l.55.687Zm-1.627-3.651c-.031-1.092-.558-1.787-1.658-1.787-1.176 0-1.726.726-1.886 1.787h3.544Z" fill="#fff" fill-opacity=".75"/><path d="M197.218 184.136h7.909v3.369h-7.892v-3.361l-.017-.008Zm9.573 4.506h-11.228c-.365 0-.594.203-.594.56 0 .339.229.56.594.56h11.228c.356 0 .594-.229.594-.552 0-.339-.238-.551-.594-.551v-.017Zm-21.937-7.901a2.247 2.247 0 0 0 2.248 2.249h28.141a2.25 2.25 0 0 0 2.257-2.257v-1.104h-32.646v1.112Zm16.327 0c.323 0 .552.229.552.594a.528.528 0 0 1-.552.543c-.339 0-.56-.229-.56-.551 0-.34.238-.594.569-.594l-.009.008Zm14.062-20.257h-28.124a2.263 2.263 0 0 0-2.265 2.258v15.742H217.5v-15.742a2.273 2.273 0 0 0-2.257-2.258Zm-17.007 11.032a.527.527 0 0 1-.424.238c-.127 0-.356-.119-.458-.229-.221-.238-.221-.679 0-1.018l1.57-1.681-1.562-1.578c0-.119-.127-.238-.127-.467 0-.339.238-.679.594-.679.102 0 .34.11.424.229l2.156 2.258c.229.229.229.551 0 .789l-2.156 2.138h-.017Zm7.316 1.358h-4.371c-.339 0-.679-.237-.679-.56 0-.339.221-.551.679-.551h4.371c.356 0 .679.203.679.56 0 .339-.221.56-.679.56v-.009Z" fill="#fff"/><defs><filter id="b" x="85.953" y="13.396" width="79.891" height="79.891" filterUnits="userSpaceOnUse" color-interpolation-filters="sRGB"><feFlood flood-opacity="0" result="BackgroundImageFix"/><feColorMatrix in="SourceAlpha" values="0 0 0 0 0 0 0 0 0 0 0 0 0 0 0 0 0 0 127 0" result="hardAlpha"/><feOffset dy="2"/><feGaussianBlur stdDeviation="3"/><feColorMatrix values="0 0 0 0 0 0 0 0 0 0 0 0 0 0 0 0 0 0 0.0980392 0"/><feBlend in2="BackgroundImageFix" result="effect1_dropShadow_12005_13648"/><feBlend in="SourceGraphic" in2="effect1_dropShadow_12005_13648" result="shape"/></filter><filter id="c" x="85.529" y="12.972" width="80.74" height="80.739" filterUnits="userSpaceOnUse" color-interpolation-filters="sRGB"><feFlood flood-opacity="0" result="BackgroundImageFix"/><feColorMatrix in="SourceAlpha" values="0 0 0 0 0 0 0 0 0 0 0 0 0 0 0 0 0 0 127 0" result="hardAlpha"/><feOffset dy="2"/><feGaussianBlur stdDeviation="3"/><feColorMatrix values="0 0 0 0 0 0 0 0 0 0 0 0 0 0 0 0 0 0 0.0980392 0"/><feBlend in2="BackgroundImageFix" result="effect1_dropShadow_12005_13648"/><feBlend in="SourceGraphic" in2="effect1_dropShadow_12005_13648" result="shape"/></filter><filter id="d" x="588.912" y="13.396" width="79.891" height="79.891" filterUnits="userSpaceOnUse" color-interpolation-filters="sRGB"><feFlood flood-opacity="0" result="BackgroundImageFix"/><feColorMatrix in="SourceAlpha" values="0 0 0 0 0 0 0 0 0 0 0 0 0 0 0 0 0 0 127 0" result="hardAlpha"/><feOffset dy="2"/><feGaussianBlur stdDeviation="3"/><feColorMatrix values="0 0 0 0 0 0 0 0 0 0 0 0 0 0 0 0 0 0 0.0980392 0"/><feBlend in2="BackgroundImageFix" result="effect1_dropShadow_12005_13648"/><feBlend in="SourceGraphic" in2="effect1_dropShadow_12005_13648" result="shape"/></filter><filter id="e" x="588.488" y="12.972" width="80.74" height="80.739" filterUnits="userSpaceOnUse" color-interpolation-filters="sRGB"><feFlood flood-opacity="0" result="BackgroundImageFix"/><feColorMatrix in="SourceAlpha" values="0 0 0 0 0 0 0 0 0 0 0 0 0 0 0 0 0 0 127 0" result="hardAlpha"/><feOffset dy="2"/><feGaussianBlur stdDeviation="3"/><feColorMatrix values="0 0 0 0 0 0 0 0 0 0 0 0 0 0 0 0 0 0 0.0980392 0"/><feBlend in2="BackgroundImageFix" result="effect1_dropShadow_12005_13648"/><feBlend in="SourceGraphic" in2="effect1_dropShadow_12005_13648" result="shape"/></filter><linearGradient id="a" x1="722.173" y1="148.179" x2="580.893" y2="351.851" gradientUnits="userSpaceOnUse"><stop stop-color="#651FFF"/><stop offset="1" stop-color="#4C00F0"/></linearGradient><linearGradient id="f" x1="238.461" y1="148.179" x2="71.493" y2="351.851" gradientUnits="userSpaceOnUse"><stop stop-color="#651FFF"/><stop offset="1" stop-color="#4C00F0"/></linearGradient></defs></svg>