<svg height="381" width="1198" xmlns="http://www.w3.org/2000/svg" xmlns:xlink="http://www.w3.org/1999/xlink"><defs><path id="a" d="m551-693v84h-218v609h-97v-609h-218v-84z" fill="#4e75ff"/><path id="b" d="m315 12c-174-3-262-99-262-271 0-164 81-274 237-274 163 0 227 118 216 298h-356c9 108 58 165 175 165 54 0 101-11 133-25l13 78c-33 16-99 31-156 29zm95-322c8-101-82-177-178-132-47 22-73 71-80 132z" fill="#4e75ff"/><path id="c" d="m173-151c-3 59 26 79 78 83l-13 78c-109-3-158-40-158-146v-624l93-16z" fill="#4e75ff"/><path id="d" d="m297-533c160 0 244 110 244 273s-84 273-244 273-244-110-244-273 84-273 244-273zm0 464c98 0 147-85 147-191s-49-191-147-191-147 85-147 191 49 191 147 191" fill="#4e75ff"/><path id="e" d="m82-498c73-28 204-47 296-18l-16 81c-44-19-138-19-187-2v437h-93z" fill="#4e75ff"/><path id="f" d="m257 11c-136 0-181-77-181-212v-464l93-16v161h197v78h-197v240c-1 80 17 131 96 131 43 0 79-13 103-23l18 77c-27 12-82 28-129 28" fill="#4e75ff"/><g id="g"><use transform="scale(.018)" xlink:href="#a"/><use transform="matrix(.018 0 0 .018 9.252 0)" xlink:href="#b"/><use transform="matrix(.018 0 0 .018 19.386 0)" xlink:href="#c"/><use transform="matrix(.018 0 0 .018 24.372 0)" xlink:href="#b"/><path d="m294-70c109-2 147-79 149-189 2-113-59-188-165-189-45 0-73 2-103 10v328c24 19 73 42 119 40zm-15-461c169 5 261 102 261 272 0 161-75 265-234 271-51 2-103-18-131-35v208h-93v-689c54-12 122-29 197-27" fill="#4e75ff" transform="matrix(.018 0 0 .018 34.506 0)"/><use transform="matrix(.018 0 0 .018 45.18 0)" xlink:href="#d"/><use transform="matrix(.018 0 0 .018 55.872 0)" xlink:href="#e"/><use transform="matrix(.018 0 0 .018 62.892 0)" xlink:href="#f"/></g><g id="h"><path d="m88-683c49-13 125-17 184-17 175 0 303 59 303 221 0 202-179 229-390 222v257h-97zm385 203c0-140-156-141-288-132v272c146 2 288 4 288-140" fill="#4e75ff" transform="scale(.018)"/><use transform="matrix(.018 0 0 .018 11.016 0)" xlink:href="#e"/><use transform="matrix(.018 0 0 .018 18.036 0)" xlink:href="#d"/><path d="m18 0c47-93 120-191 180-273l-172-247h105l124 182 125-182h99l-168 241c60 83 137 185 184 279h-102c-39-75-91-148-140-214-49 66-99 140-139 214z" fill="#4e75ff" transform="matrix(.018 0 0 .018 28.422 0)"/><path d="m266-100c50-137 84-270 119-420h96c-46 190-110 372-175 536-45 113-142 210-302 156l17-75c41 21 118 16 149-11 20-17 39-42 56-79-81-156-160-340-208-527h100c37 148 89 293 148 420" fill="#4e75ff" transform="matrix(.018 0 0 .018 37.692 0)"/></g><filter id="i" height="1.33" width="1.1" x="-.05" y="-.07"><feOffset dy="6" in="SourceAlpha" result="offOut"/><feGaussianBlur in="offOut" result="blurOut" stdDeviation="5"/><feColorMatrix in="blurOut" result="colorOut" values="0 0 0 0 0 0 0 0 0 0 0 0 0 0 0 0 0 0 0.5019607843137255 0"/><feBlend in="SourceGraphic" in2="colorOut"/></filter><g id="j"><path d="m563 0c-113-189-242-377-380-541v541h-95v-693h77c137 151 274 337 384 513v-513h95v693z" fill="#4e75ff" transform="scale(.018)"/><use transform="matrix(.018 0 0 .018 13.176 0)" xlink:href="#d"/><path d="m315-70c41 0 75-4 103-11v-329c-24-19-73-42-119-40-110 2-147 80-149 190-2 113 59 189 165 190zm-28-462c51-2 103 18 131 35v-263l93-16v761c-53 14-123 28-197 27-169-5-261-102-261-272 0-162 75-266 234-272" fill="#4e75ff" transform="matrix(.018 0 0 .018 23.868 0)"/><use transform="matrix(.018 0 0 .018 34.542 0)" xlink:href="#b"/></g><path id="k" d="m175 0h-93v-520h93zm13-675c0 35-26 61-60 61s-60-26-60-61 26-61 60-61 60 26 60 61" fill="#4e75ff"/><path id="l" d="m447-14c-35 17-88 26-139 26-169 0-255-102-255-271 0-187 118-299 319-268 23 4 46 10 67 19l-21 79c-28-13-66-22-107-22-111 1-162 75-161 192 1 118 51 189 170 189 43 1 87-10 114-22" fill="#4e75ff"/><g id="m"><path d="m64-114c42 22 110 45 185 45 127 0 189-72 139-159-74-129-329-76-337-288-8-203 271-234 423-150l-31 79c-73-47-295-73-292 60 2 88 82 103 147 131 102 44 200 79 205 222 7 214-312 224-468 140" fill="#4e75ff" transform="scale(.018)"/><use transform="matrix(.018 0 0 .018 9.648 0)" xlink:href="#b"/><use transform="matrix(.018 0 0 .018 19.782 0)" xlink:href="#e"/><path d="m255-109c52-125 101-269 137-411h96c-47 181-124 369-193 520h-84c-69-151-147-339-193-520h100c36 142 85 286 137 411" fill="#4e75ff" transform="matrix(.018 0 0 .018 27.18 0)"/><use transform="matrix(.018 0 0 .018 36.288 0)" xlink:href="#k"/><use transform="matrix(.018 0 0 .018 40.914 0)" xlink:href="#l"/><use transform="matrix(.018 0 0 .018 49.356 0)" xlink:href="#b"/></g><path id="n" d="m139-156c0 106 132 93 220 82v-155c-78-22-220-23-220 73zm-94 1c-2-152 173-180 314-148 5-94-26-150-117-150-50 0-101 8-132 20l-11-77c32-13 99-23 151-23 135 0 201 66 200 199v325c-60 10-131 20-203 20-121 0-201-45-202-166" fill="#4e75ff"/><path id="o" d="m95-501c-14-80-24-166-21-259h97c3 93-7 179-21 259zm177 0c-14-80-24-166-21-259h97c3 93-7 179-21 259z" fill="#4e75ff"/><path id="p" d="m59-97c36 13 83 32 144 30 63-2 112-9 112-63 0-99-160-93-221-153-24-24-44-52-44-100 0-151 196-178 331-127l-17 80c-60-35-257-49-214 69 69 92 264 59 259 227-2 107-89 146-206 146-70 0-121-14-161-29" fill="#4e75ff"/><path id="q" d="m300-71c36 0 74-3 103-10v-439h93v505c-55 13-129 26-206 26-152 0-214-89-214-239v-292h93v272c2 116 24 177 131 177" fill="#4e75ff"/><g id="r"><use transform="scale(.018)" xlink:href="#l"/><use transform="matrix(.018 0 0 .018 8.442 0)" xlink:href="#c"/><use transform="matrix(.018 0 0 .018 13.428 0)" xlink:href="#q"/><use transform="matrix(.018 0 0 .018 23.832 0)" xlink:href="#p"/><use transform="matrix(.018 0 0 .018 31.932 0)" xlink:href="#f"/><use transform="matrix(.018 0 0 .018 39.06 0)" xlink:href="#b"/><use transform="matrix(.018 0 0 .018 49.194 0)" xlink:href="#e"/></g><path id="s" d="m279-449c-36 1-74 4-104 10v439h-93v-505c55-13 130-26 207-26 153 0 213 87 213 239v292h-93v-272c1-107-22-180-130-177" fill="#4e75ff"/></defs><g transform="translate(-120 -40)"><path d="m0 0h1760v1360h-1760z" fill="#fff"/><g filter="url(#i)"><path d="m420 180h200v60h-200z" fill="#fff" stroke="#326ce5" stroke-width="4"/><use transform="translate(459.43 217.401)" xlink:href="#g"/><use transform="translate(533.86 217.401)" xlink:href="#h"/></g><path d="m180 210h160v60h-160z" fill="#fff" stroke="#326ce5" stroke-width="4"/><use transform="translate(205.802 247.401)" xlink:href="#j"/><use transform="translate(254.708 247.401)" xlink:href="#m"/><path d="m160 270h160v60h-160z" fill="#fff" stroke="#326ce5" stroke-width="4"/><use transform="translate(185.802 307.401)" xlink:href="#j"/><use transform="translate(234.708 307.401)" xlink:href="#m"/><path d="m140 330h160v60h-160z" fill="#fff" stroke="#326ce5" stroke-width="4"/><use transform="translate(165.802 367.401)" xlink:href="#j"/><use transform="translate(214.708 367.401)" xlink:href="#m"/><path d="m303 360h57v-150h39.5" fill="none" stroke="#c1e4f7" stroke-width="2"/><path d="m303.03 361h-1.03v-2h1.03z" fill="#c1e4f7"/><path d="m414.76 210-14.26 4.64v-9.28z" fill="#c1e4f7" stroke="#c1e4f7" stroke-width="2"/><path d="m323 300h37v-90h39.5" fill="none" stroke="#c1e4f7" stroke-width="2"/><path d="m323.03 301h-1.03v-2h1.03z" fill="#c1e4f7"/><path d="m414.76 210-14.26 4.64v-9.28z" fill="#c1e4f7" stroke="#c1e4f7" stroke-width="2"/><path d="m343 240h17v-30h39.5" fill="none" stroke="#c1e4f7" stroke-width="2"/><path d="m343.03 241h-1.03v-2h1.03z" fill="#c1e4f7"/><path d="m414.76 210-14.26 4.64v-9.28z" fill="#c1e4f7" stroke="#c1e4f7" stroke-width="2"/><path d="m1098 210h160v60h-160z" fill="#fff" stroke="#326ce5" stroke-width="4"/><use transform="translate(1123.802 247.401)" xlink:href="#j"/><use transform="translate(1172.708 247.401)" xlink:href="#m"/><path d="m1118 270h160v60h-160z" fill="#fff" stroke="#326ce5" stroke-width="4"/><use transform="translate(1143.802 307.401)" xlink:href="#j"/><use transform="translate(1192.708 307.401)" xlink:href="#m"/><path d="m1138 330h160v60h-160z" fill="#fff" stroke="#326ce5" stroke-width="4"/><use transform="translate(1163.802 367.401)" xlink:href="#j"/><use transform="translate(1212.708 367.401)" xlink:href="#m"/><path d="m1135 360h-66v-150h-48.5" fill="none" stroke="#c1e4f7" stroke-width="2"/><path d="m1136 361h-1.03v-2h1.03z" fill="#c1e4f7"/><path d="m1005.24 210 14.26-4.64v9.28z" fill="#c1e4f7" stroke="#c1e4f7" stroke-width="2"/><path d="m1115 300h-45v-90h-49.5" fill="none" stroke="#c1e4f7" stroke-width="2"/><path d="m1116 301h-1.03v-2h1.03z" fill="#c1e4f7"/><path d="m1005.24 210 14.26-4.64v9.28z" fill="#c1e4f7" stroke="#c1e4f7" stroke-width="2"/><path d="m1095 240h-25v-30h-49.5" fill="none" stroke="#c1e4f7" stroke-width="2"/><path d="m1096 241h-1.03v-2h1.03z" fill="#c1e4f7"/><path d="m1005.24 210 14.26-4.64v9.28z" fill="#c1e4f7" stroke="#c1e4f7" stroke-width="2"/><path d="m779.9 92.88v305.12" fill="none"/><path d="m779.9 92.88v20.34m0 20.34v40.7m0 20.33v40.67m0 20.34v40.7m0 20.33v40.7m0 20.33v20.34" fill="none" stroke="#ffbbb1" stroke-width="4"/><path d="m781.9 92.93h-4v-2.05h4z" fill="#ffbbb1"/><path d="m779.9 397.95v2.05" fill="none" stroke="#ffbbb1" stroke-width="4"/><path d="m739.8 60h80.2v30.88h-80.2z" fill="none"/><g transform="translate(744.8 81.776)"><path d="m88 0v-693h418v83h-321v209h285v82h-285v319z" fill="#4e75ff" transform="scale(.018)"/><use transform="matrix(.018 0 0 .018 9.738 0)" xlink:href="#k"/><use transform="matrix(.018 0 0 .018 14.364 0)" xlink:href="#e"/><use transform="matrix(.018 0 0 .018 21.384 0)" xlink:href="#b"/><path d="m761-520c-47 186-105 367-173 520h-81c-40-105-86-236-117-357-31 122-76 252-116 357h-81c-68-153-126-334-173-520h100c31 138 71 286 118 407 45-126 85-269 117-407h77c30 140 70 281 115 407 46-123 88-268 118-407z" fill="#4e75ff" transform="matrix(.018 0 0 .018 31.518 0)"/><use transform="matrix(.018 0 0 .018 45.576 0)" xlink:href="#n"/><use transform="matrix(.018 0 0 .018 55.044 0)" xlink:href="#c"/><use transform="matrix(.018 0 0 .018 60.03 0)" xlink:href="#c"/></g><path d="m800 230h-134v20l-36-40 36-40v20h134z" fill="#fff"/><path d="m786.6 230h-11.5m-7.64 0h-11.5m-7.65 0h-11.47m-7.66 0h-11.48m-7.67 0h-11.5m-7.64 0h-11.5m-7.66 0h-5.73v6m0 8v6l-3.6-4m-4.8-5.33-7.2-8m-4.8-5.34-7.2-8m-4.8-5.33-3.6-4 3.6-4m4.8-5.33 7.2-8m4.8-5.34 7.2-8m4.8-5.33 3.6-4v6m0 8v6h5.74m7.66 0h11.5m7.64 0h11.5m7.65 0h11.47m7.66 0h11.48m7.67 0h11.5m7.64 0h11.5m7.66 0h5.73v6m0 8v12m0 8v6h-5.74" fill="none" stroke="#0c7cba" stroke-width="4"/><g filter="url(#i)"><path d="m800 180h200v60h-200z" fill="#fff" stroke="#326ce5" stroke-width="4"/><use transform="translate(839.43 217.401)" xlink:href="#g"/><use transform="translate(913.86 217.401)" xlink:href="#h"/></g><path d="m814.98 128.24h170.02v51.76h-170.02z" fill="none"/><g transform="translate(827.233 160.516)"><use transform="scale(.018)" xlink:href="#o"/><use transform="matrix(.018 0 0 .018 7.596 0)" xlink:href="#b"/><use transform="matrix(.018 0 0 .018 17.73 0)" xlink:href="#n"/><use transform="matrix(.018 0 0 .018 27.198 0)" xlink:href="#p"/><use transform="matrix(.018 0 0 .018 35.298 0)" xlink:href="#f"/><use transform="matrix(.018 0 0 .018 42.606 0)" xlink:href="#o"/></g><g transform="translate(881.665 160.516)"><use transform="scale(.018)" xlink:href="#c"/><use transform="matrix(.018 0 0 .018 4.986 0)" xlink:href="#b"/><use transform="matrix(.018 0 0 .018 15.12 0)" xlink:href="#n"/><path d="m82-567c-14-178 145-245 315-192l-17 80c-21-10-52-17-88-17-102 0-122 72-117 176h200v78h-200v442h-93z" fill="#4e75ff" transform="matrix(.018 0 0 .018 24.588 0)"/></g><use transform="translate(917.503 160.516)" xlink:href="#r"/><path d="m434.98 128.24h170.02v51.76h-170z" fill="none"/><g transform="translate(442.931 160.516)"><use transform="scale(.018)" xlink:href="#o"/><path d="m278-449c-36 0-74 4-103 10v439h-93v-505c94-23 290-55 347 27 41-28 96-52 166-53 149-3 194 91 194 239v292h-93v-272c0-100-11-177-111-177-50 0-96 17-119 35 30 114 10 276 16 414h-93v-272c0-99-12-179-111-177" fill="#4e75ff" transform="matrix(.018 0 0 .018 7.596 0)"/><use transform="matrix(.018 0 0 .018 23.166 0)" xlink:href="#n"/><use transform="matrix(.018 0 0 .018 32.634 0)" xlink:href="#k"/><use transform="matrix(.018 0 0 .018 37.26 0)" xlink:href="#s"/><use transform="matrix(.018 0 0 .018 47.106 0)" xlink:href="#o"/></g><g transform="translate(501.863 160.516)"><use transform="scale(.018)" xlink:href="#e"/><use transform="matrix(.018 0 0 .018 7.02 0)" xlink:href="#d"/><use transform="matrix(.018 0 0 .018 17.712 0)" xlink:href="#d"/><use transform="matrix(.018 0 0 .018 28.404 0)" xlink:href="#f"/></g><use transform="translate(541.805 160.516)" xlink:href="#r"/><path d="m674.9 158.68h80.2v30.88h-80.2z" fill="none"/><g transform="translate(679.9 180.456)"><use transform="scale(.018)" xlink:href="#a"/><use transform="matrix(.018 0 0 .018 9.63 0)" xlink:href="#q"/><use transform="matrix(.018 0 0 .018 20.034 0)" xlink:href="#s"/><use transform="matrix(.018 0 0 .018 30.438 0)" xlink:href="#s"/><use transform="matrix(.018 0 0 .018 40.842 0)" xlink:href="#b"/><use transform="matrix(.018 0 0 .018 50.976 0)" xlink:href="#c"/></g><path d="m624 210h151.26" fill="none" stroke="#a3d977" stroke-width="4"/><g fill="#a3d977"><path d="m624.05 212h-2.05v-4h2.05z"/><path d="m791.53 210-14.27 4.64v-9.28z" stroke="#a3d977" stroke-width="4"/></g></g></svg>