<svg xmlns="http://www.w3.org/2000/svg" xmlns:xlink="http://www.w3.org/1999/xlink" xmlns:lucid="lucid" width="1309.12" height="841"><g transform="translate(-40 -60.00000000000006)" lucid:page-tab-id="9hcVWT0P02jW"><path d="M0 0h1760v1360H0z" fill="#fff"/><path d="M648.87 481.76H576v20l-36-40 36-40v20h72.87z" fill="#fff"/><path d="M636.12 481.76H625.2m-7.3 0h-10.93m-7.3 0h-10.92m-7.28 0H576v6m0 8v6l-3.6-4m-4.8-5.33l-7.2-8m-4.8-5.34l-7.2-8m-4.8-5.34l-3.6-4 3.6-4m4.8-5.33l7.2-8m4.8-5.34l7.2-8m4.8-5.34l3.6-4v6m0 8v6h5.47m7.28 0h10.93m7.3 0h10.92m7.3 0h10.92m7.28 0h5.47v6m0 8v12m0 8v6h-5.47" stroke="#0c7cba" stroke-width="4" fill="none"/><g filter="url(#a)"><path d="M340 431.76h200v60H340z" stroke="#326ce5" stroke-width="4" fill="#fff"/><use xlink:href="#b" transform="matrix(1,0,0,1,344.99999999999994,436.76) translate(34.43000000000001 32.400999999999996)"/><use xlink:href="#c" transform="matrix(1,0,0,1,344.99999999999994,436.76) translate(108.86 32.400999999999996)"/></g><path d="M100 461.76h160v60H100z" stroke="#326ce5" stroke-width="4" fill="#fff"/><use xlink:href="#d" transform="matrix(1,0,0,1,105,466.75999999999993) translate(20.802000000000007 32.400999999999996)"/><use xlink:href="#e" transform="matrix(1,0,0,1,105,466.75999999999993) translate(69.708 32.400999999999996)"/><path d="M80 521.76h160v60H80z" stroke="#326ce5" stroke-width="4" fill="#fff"/><use xlink:href="#d" transform="matrix(1,0,0,1,85,526.76) translate(20.802000000000007 32.400999999999996)"/><use xlink:href="#e" transform="matrix(1,0,0,1,85,526.76) translate(69.708 32.400999999999996)"/><path d="M60 581.76h160v60H60z" stroke="#326ce5" stroke-width="4" fill="#fff"/><use xlink:href="#d" transform="matrix(1,0,0,1,65,586.76) translate(20.802000000000007 32.400999999999996)"/><use xlink:href="#e" transform="matrix(1,0,0,1,65,586.76) translate(69.708 32.400999999999996)"/><path d="M223 611.76h57v-150h39.5" stroke="#c1e4f7" stroke-width="2" fill="none"/><path d="M223.03 612.76H222v-2h1.03z" fill="#c1e4f7"/><path d="M334.76 461.76l-14.26 4.64v-9.28z" stroke="#c1e4f7" stroke-width="2" fill="#c1e4f7"/><path d="M243 551.76h37v-90h39.5" stroke="#c1e4f7" stroke-width="2" fill="none"/><path d="M243.03 552.76H242v-2h1.03z" fill="#c1e4f7"/><path d="M334.76 461.76l-14.26 4.64v-9.28z" stroke="#c1e4f7" stroke-width="2" fill="#c1e4f7"/><path d="M263 491.76h17v-30h39.5" stroke="#c1e4f7" stroke-width="2" fill="none"/><path d="M263.03 492.76H262v-2h1.03z" fill="#c1e4f7"/><path d="M334.76 461.76l-14.26 4.64v-9.28z" stroke="#c1e4f7" stroke-width="2" fill="#c1e4f7"/><path d="M1044.2 100h160v60h-160z" stroke="#326ce5" stroke-width="4" fill="#fff"/><use xlink:href="#d" transform="matrix(1,0,0,1,1049.2,105) translate(20.802000000000007 32.400999999999996)"/><use xlink:href="#e" transform="matrix(1,0,0,1,1049.2,105) translate(69.708 32.400999999999996)"/><path d="M1064.2 160h160v60h-160z" stroke="#326ce5" stroke-width="4" fill="#fff"/><use xlink:href="#d" transform="matrix(1,0,0,1,1069.2,165) translate(20.802000000000007 32.400999999999996)"/><use xlink:href="#e" transform="matrix(1,0,0,1,1069.2,165) translate(69.708 32.400999999999996)"/><path d="M1084.2 219.12h160v60h-160z" stroke="#326ce5" stroke-width="4" fill="#fff"/><use xlink:href="#d" transform="matrix(1,0,0,1,1089.2,224.12) translate(20.802000000000007 32.400999999999996)"/><use xlink:href="#e" transform="matrix(1,0,0,1,1089.2,224.12) translate(69.708 32.400999999999996)"/><path d="M1081.2 249.12h-75V190h-57.5" stroke="#c1e4f7" stroke-width="2" fill="none"/><path d="M1082.2 250.12h-1.03v-2h1.03z" fill="#c1e4f7"/><path d="M933.44 190l14.26-4.64v9.28z" stroke="#c1e4f7" stroke-width="2" fill="#c1e4f7"/><path d="M1061.2 190H948.7" stroke="#c1e4f7" stroke-width="2" fill="none"/><path d="M1062.2 191h-1.03v-2h1.03z" fill="#c1e4f7"/><path d="M933.44 190l14.26-4.64v9.28z" stroke="#c1e4f7" stroke-width="2" fill="#c1e4f7"/><path d="M1041.2 130h-35v60h-57.5" stroke="#c1e4f7" stroke-width="2" fill="none"/><path d="M1042.2 131h-1.03v-2h1.03z" fill="#c1e4f7"/><path d="M933.44 190l14.26-4.64v9.28z" stroke="#c1e4f7" stroke-width="2" fill="#c1e4f7"/><path d="M708.3 112.88L708.2 878" fill="none"/><path d="M708.3 112.88v19.62m0 19.62v39.23m0 19.62l-.02 39.24m0 19.63v39.23m0 19.62v39.24m-.02 19.62v39.24m0 19.6v39.25m0 19.62l-.02 39.24m0 19.6v39.24m0 19.62v39.24m0 19.62l-.02 39.23m0 19.62v39.24m0 19.63v39.23m-.02 19.62V878" stroke="#ffbbb1" stroke-width="4" fill="none"/><path d="M710.3 112.93h-4v-2.05h4z" fill="#ffbbb1"/><path d="M708.2 877.95V880" stroke="#ffbbb1" stroke-width="4" fill="none"/><path d="M668.2 80h80.2v30.88h-80.2z" fill="#fff" fill-opacity="0"/><use xlink:href="#f" transform="matrix(1,0,0,1,673.2,85.00000000000006) translate(0 16.776)"/><g filter="url(#a)"><path d="M728.2 160h200v60h-200z" stroke="#326ce5" stroke-width="4" fill="#fff"/><use xlink:href="#b" transform="matrix(1,0,0,1,733.2,165) translate(34.43000000000001 32.400999999999996)"/><use xlink:href="#c" transform="matrix(1,0,0,1,733.2,165) translate(108.86 32.400999999999996)"/></g><path d="M728.2 110.88h214.05v51.76H728.2z" fill="#fff" fill-opacity="0"/><use xlink:href="#g" transform="matrix(1,0,0,1,733.2,115.88) translate(15.227000000000004 27.276)"/><use xlink:href="#h" transform="matrix(1,0,0,1,733.2,115.88) translate(75.293 27.276)"/><use xlink:href="#i" transform="matrix(1,0,0,1,733.2,115.88) translate(97.721 27.276)"/><use xlink:href="#j" transform="matrix(1,0,0,1,733.2,115.88) translate(133.559 27.276)"/><path d="M88.2 410h181.75v51.76H88.2z" fill="#fff" fill-opacity="0"/><use xlink:href="#k" transform="matrix(1,0,0,1,93.20000000000005,415) translate(8.456000000000017 27.276)"/><use xlink:href="#l" transform="matrix(1,0,0,1,93.20000000000005,415) translate(67.388 27.276)"/><use xlink:href="#j" transform="matrix(1,0,0,1,93.20000000000005,415) translate(107.33 27.276)"/><path d="M1044.4 370.88h160v60h-160z" stroke="#326ce5" stroke-width="4" fill="#fff"/><use xlink:href="#d" transform="matrix(1,0,0,1,1049.4,375.88) translate(20.802000000000007 32.400999999999996)"/><use xlink:href="#e" transform="matrix(1,0,0,1,1049.4,375.88) translate(69.708 32.400999999999996)"/><path d="M1064.4 430.88h160v60h-160z" stroke="#326ce5" stroke-width="4" fill="#fff"/><use xlink:href="#d" transform="matrix(1,0,0,1,1069.4,435.88) translate(20.802000000000007 32.400999999999996)"/><use xlink:href="#e" transform="matrix(1,0,0,1,1069.4,435.88) translate(69.708 32.400999999999996)"/><path d="M1084.4 490h160v60h-160z" stroke="#326ce5" stroke-width="4" fill="#fff"/><use xlink:href="#d" transform="matrix(1,0,0,1,1089.4,495) translate(20.802000000000007 32.400999999999996)"/><use xlink:href="#e" transform="matrix(1,0,0,1,1089.4,495) translate(69.708 32.400999999999996)"/><path d="M1081.4 520h-75v-59.12h-57.5" stroke="#c1e4f7" stroke-width="2" fill="none"/><path d="M1082.4 521h-1.03v-2h1.03z" fill="#c1e4f7"/><path d="M933.64 460.88l14.26-4.64v9.28z" stroke="#c1e4f7" stroke-width="2" fill="#c1e4f7"/><path d="M1061.4 460.88H948.9" stroke="#c1e4f7" stroke-width="2" fill="none"/><path d="M1062.4 461.88h-1.03v-2h1.03z" fill="#c1e4f7"/><path d="M933.64 460.88l14.26-4.64v9.28z" stroke="#c1e4f7" stroke-width="2" fill="#c1e4f7"/><path d="M1041.4 400.88h-35v60h-57.5" stroke="#c1e4f7" stroke-width="2" fill="none"/><path d="M1042.4 401.88h-1.03v-2h1.03z" fill="#c1e4f7"/><path d="M933.64 460.88l14.26-4.64v9.28z" stroke="#c1e4f7" stroke-width="2" fill="#c1e4f7"/><g filter="url(#a)"><path d="M728.4 430.88h200v60h-200z" stroke="#326ce5" stroke-width="4" fill="#fff"/><use xlink:href="#b" transform="matrix(1,0,0,1,733.4000000000001,435.88) translate(34.43000000000001 32.400999999999996)"/><use xlink:href="#c" transform="matrix(1,0,0,1,733.4000000000001,435.88) translate(108.86 32.400999999999996)"/></g><path d="M731.94 380H928.4v51.76H731.94z" fill="#fff" fill-opacity="0"/><use xlink:href="#g" transform="matrix(1,0,0,1,736.9375,385) translate(5.804000000000002 27.276)"/><use xlink:href="#m" transform="matrix(1,0,0,1,736.9375,385) translate(65.87 27.276)"/><use xlink:href="#i" transform="matrix(1,0,0,1,736.9375,385) translate(89.144 27.276)"/><use xlink:href="#j" transform="matrix(1,0,0,1,736.9375,385) translate(124.982 27.276)"/><path d="M1044.2 660h160v60h-160z" stroke="#326ce5" stroke-width="4" fill="#fff"/><use xlink:href="#d" transform="matrix(1,0,0,1,1049.2,665) translate(20.802000000000007 32.400999999999996)"/><use xlink:href="#e" transform="matrix(1,0,0,1,1049.2,665) translate(69.708 32.400999999999996)"/><path d="M1064.2 720h160v60h-160z" stroke="#326ce5" stroke-width="4" fill="#fff"/><use xlink:href="#d" transform="matrix(1,0,0,1,1069.2,725) translate(20.802000000000007 32.400999999999996)"/><use xlink:href="#e" transform="matrix(1,0,0,1,1069.2,725) translate(69.708 32.400999999999996)"/><path d="M1084.2 779.12h160v60h-160z" stroke="#326ce5" stroke-width="4" fill="#fff"/><use xlink:href="#d" transform="matrix(1,0,0,1,1089.2,784.1199999999999) translate(20.802000000000007 32.400999999999996)"/><use xlink:href="#e" transform="matrix(1,0,0,1,1089.2,784.1199999999999) translate(69.708 32.400999999999996)"/><path d="M1081.2 809.12h-75V750h-57.5" stroke="#c1e4f7" stroke-width="2" fill="none"/><path d="M1082.2 810.12h-1.03v-2h1.03z" fill="#c1e4f7"/><path d="M933.44 750l14.26-4.64v9.28z" stroke="#c1e4f7" stroke-width="2" fill="#c1e4f7"/><path d="M1061.2 750H948.7" stroke="#c1e4f7" stroke-width="2" fill="none"/><path d="M1062.2 751h-1.03v-2h1.03z" fill="#c1e4f7"/><path d="M933.44 750l14.26-4.64v9.28z" stroke="#c1e4f7" stroke-width="2" fill="#c1e4f7"/><path d="M1041.2 690h-35v60h-57.5" stroke="#c1e4f7" stroke-width="2" fill="none"/><path d="M1042.2 691h-1.03v-2h1.03z" fill="#c1e4f7"/><path d="M933.44 750l14.26-4.64v9.28z" stroke="#c1e4f7" stroke-width="2" fill="#c1e4f7"/><g filter="url(#a)"><path d="M728.2 720h200v60h-200z" stroke="#326ce5" stroke-width="4" fill="#fff"/><use xlink:href="#b" transform="matrix(1,0,0,1,733.2,725) translate(34.43000000000001 32.400999999999996)"/><use xlink:href="#c" transform="matrix(1,0,0,1,733.2,725) translate(108.86 32.400999999999996)"/></g><path d="M731.94 668.24H928.4V720H731.94z" fill="#fff" fill-opacity="0"/><g><use xlink:href="#g" transform="matrix(1,0,0,1,736.9375,673.2400000000001) translate(5.912000000000006 27.276)"/><use xlink:href="#n" transform="matrix(1,0,0,1,736.9375,673.2400000000001) translate(65.97800000000001 27.276)"/><use xlink:href="#i" transform="matrix(1,0,0,1,736.9375,673.2400000000001) translate(89.036 27.276)"/><use xlink:href="#j" transform="matrix(1,0,0,1,736.9375,673.2400000000001) translate(124.874 27.276)"/></g><path d="M710.28 297.55L1306.2 300" fill="none"/><path d="M710.28 297.55l19.86.08m19.86.1l39.73.15m19.87.08l39.72.16m19.87.08l39.72.17m19.86.08l39.73.16m19.87.1l39.73.15m19.87.08l39.72.17m19.86.08l39.73.16m19.85.08l39.73.17m19.86.07l39.73.16m19.87.08l19.86.1M710.33 297.55h-2.05M1306.15 300h2.05" stroke="#ffbbb1" stroke-width="4" fill="none"/><path d="M544 461.76h91v-.88h68.66" stroke="#a3d977" stroke-width="4" fill="none"/><path d="M544.05 463.76H542v-4h2.05z" fill="#a3d977"/><path d="M719.93 460.88l-14.27 4.64v-9.28z" stroke="#a3d977" stroke-width="4" fill="#a3d977"/><path d="M544 461.76h104.2V750h55.26" stroke="#a3d977" stroke-width="4" fill="none"/><path d="M544.05 463.76H542v-4h2.05z" fill="#a3d977"/><path d="M719.73 750l-14.27 4.64v-9.28z" stroke="#a3d977" stroke-width="4" fill="#a3d977"/><path d="M648.2 459.76V190h55.26M648.2 459.7v2.06" stroke="#a3d977" stroke-width="4" fill="none"/><path d="M719.73 190l-14.27 4.64v-9.28z" stroke="#a3d977" stroke-width="4" fill="#a3d977"/><path d="M710.24 590.85l615.88-6.6" fill="none"/><path d="M710.24 590.85l20.53-.22m20.53-.22l41.06-.43m20.53-.22l41.04-.44m20.53-.2l41.06-.45m20.53-.22l41.06-.44m20.53-.23l41.06-.44m20.54-.23l41.06-.44m20.53-.22l41.06-.44m20.52-.22l41.06-.44m20.53-.22l41.07-.44m20.52-.22l20.52-.22M710.3 590.85l-2.06.03M1326.07 584.24l2.05-.02" stroke="#ffbbb1" stroke-width="4" fill="none"/><path d="M583.1 400h80.2v30.88h-80.2z" fill="#fff" fill-opacity="0"/><g><use xlink:href="#o" transform="matrix(1,0,0,1,588.1,405.00000000000006) translate(0 16.776)"/></g><defs><path fill="#4e75ff" d="M551-693v84H333V0h-97v-609H18v-84h533" id="p"/><path fill="#4e75ff" d="M315 12C141 9 53-87 53-259c0-164 81-274 237-274 163 0 227 118 216 298H150c9 108 58 165 175 165 54 0 101-11 133-25l13 78c-33 16-99 31-156 29zm95-322c8-101-82-177-178-132-47 22-73 71-80 132h258" id="q"/><path fill="#4e75ff" d="M173-151c-3 59 26 79 78 83l-13 78C129 7 80-30 80-136v-624l93-16v625" id="r"/><path fill="#4e75ff" d="M294-70c109-2 147-79 149-189 2-113-59-188-165-189-45 0-73 2-103 10v328c24 19 73 42 119 40zm-15-461c169 5 261 102 261 272C540-98 465 6 306 12c-51 2-103-18-131-35v208H82v-689c54-12 122-29 197-27" id="s"/><path fill="#4e75ff" d="M297-533c160 0 244 110 244 273S457 13 297 13 53-97 53-260s84-273 244-273zm0 464c98 0 147-85 147-191s-49-191-147-191-147 85-147 191S199-69 297-69" id="t"/><path fill="#4e75ff" d="M82-498c73-28 204-47 296-18l-16 81c-44-19-138-19-187-2V0H82v-498" id="u"/><path fill="#4e75ff" d="M257 11C121 11 76-66 76-201v-464l93-16v161h197v78H169v240c-1 80 17 131 96 131 43 0 79-13 103-23l18 77c-27 12-82 28-129 28" id="v"/><g id="b"><use transform="matrix(0.018,0,0,0.018,0,0)" xlink:href="#p"/><use transform="matrix(0.018,0,0,0.018,9.251999999999999,0)" xlink:href="#q"/><use transform="matrix(0.018,0,0,0.018,19.385999999999996,0)" xlink:href="#r"/><use transform="matrix(0.018,0,0,0.018,24.372,0)" xlink:href="#q"/><use transform="matrix(0.018,0,0,0.018,34.50599999999999,0)" xlink:href="#s"/><use transform="matrix(0.018,0,0,0.018,45.18,0)" xlink:href="#t"/><use transform="matrix(0.018,0,0,0.018,55.87199999999999,0)" xlink:href="#u"/><use transform="matrix(0.018,0,0,0.018,62.891999999999996,0)" xlink:href="#v"/></g><path fill="#4e75ff" d="M88-683c49-13 125-17 184-17 175 0 303 59 303 221 0 202-179 229-390 222V0H88v-683zm385 203c0-140-156-141-288-132v272c146 2 288 4 288-140" id="w"/><path fill="#4e75ff" d="M18 0c47-93 120-191 180-273L26-520h105l124 182 125-182h99L311-279C371-196 448-94 495 0H393c-39-75-91-148-140-214-49 66-99 140-139 214H18" id="x"/><path fill="#4e75ff" d="M266-100c50-137 84-270 119-420h96C435-330 371-148 306 16 261 129 164 226 4 172l17-75c41 21 118 16 149-11 20-17 39-42 56-79C145-149 66-333 18-520h100c37 148 89 293 148 420" id="y"/><g id="c"><use transform="matrix(0.018,0,0,0.018,0,0)" xlink:href="#w"/><use transform="matrix(0.018,0,0,0.018,11.016,0)" xlink:href="#u"/><use transform="matrix(0.018,0,0,0.018,18.036,0)" xlink:href="#t"/><use transform="matrix(0.018,0,0,0.018,28.421999999999997,0)" xlink:href="#x"/><use transform="matrix(0.018,0,0,0.018,37.692,0)" xlink:href="#y"/></g><filter id="a" filterUnits="objectBoundingBox" x="-.05" y="-.07" width="1.1" height="1.33"><feOffset result="offOut" in="SourceAlpha" dy="6"/><feGaussianBlur result="blurOut" in="offOut" stdDeviation="5"/><feColorMatrix result="colorOut" in="blurOut" values="0 0 0 0 0 0 0 0 0 0 0 0 0 0 0 0 0 0 0.5019607843137255 0"/><feBlend in="SourceGraphic" in2="colorOut"/></filter><path fill="#4e75ff" d="M563 0C450-189 321-377 183-541V0H88v-693h77c137 151 274 337 384 513v-513h95V0h-81" id="z"/><path fill="#4e75ff" d="M315-70c41 0 75-4 103-11v-329c-24-19-73-42-119-40-110 2-147 80-149 190-2 113 59 189 165 190zm-28-462c51-2 103 18 131 35v-263l93-16v761C458-1 388 13 314 12 145 7 53-90 53-260c0-162 75-266 234-272" id="A"/><g id="d"><use transform="matrix(0.018,0,0,0.018,0,0)" xlink:href="#z"/><use transform="matrix(0.018,0,0,0.018,13.175999999999998,0)" xlink:href="#t"/><use transform="matrix(0.018,0,0,0.018,23.867999999999995,0)" xlink:href="#A"/><use transform="matrix(0.018,0,0,0.018,34.541999999999994,0)" xlink:href="#q"/></g><path fill="#4e75ff" d="M64-114c42 22 110 45 185 45 127 0 189-72 139-159-74-129-329-76-337-288-8-203 271-234 423-150l-31 79c-73-47-295-73-292 60 2 88 82 103 147 131 102 44 200 79 205 222C510 40 191 50 35-34" id="B"/><path fill="#4e75ff" d="M255-109c52-125 101-269 137-411h96C441-339 364-151 295 0h-84C142-151 64-339 18-520h100c36 142 85 286 137 411" id="C"/><path fill="#4e75ff" d="M175 0H82v-520h93V0zm13-675c0 35-26 61-60 61s-60-26-60-61 26-61 60-61 60 26 60 61" id="D"/><path fill="#4e75ff" d="M447-14c-35 17-88 26-139 26C139 12 53-90 53-259c0-187 118-299 319-268 23 4 46 10 67 19l-21 79c-28-13-66-22-107-22-111 1-162 75-161 192 1 118 51 189 170 189 43 1 87-10 114-22" id="E"/><g id="e"><use transform="matrix(0.018,0,0,0.018,0,0)" xlink:href="#B"/><use transform="matrix(0.018,0,0,0.018,9.648,0)" xlink:href="#q"/><use transform="matrix(0.018,0,0,0.018,19.782,0)" xlink:href="#u"/><use transform="matrix(0.018,0,0,0.018,27.18,0)" xlink:href="#C"/><use transform="matrix(0.018,0,0,0.018,36.288,0)" xlink:href="#D"/><use transform="matrix(0.018,0,0,0.018,40.913999999999994,0)" xlink:href="#E"/><use transform="matrix(0.018,0,0,0.018,49.355999999999995,0)" xlink:href="#q"/></g><path fill="#4e75ff" d="M88 0v-693h418v83H185v209h285v82H185V0H88" id="F"/><path fill="#4e75ff" d="M761-520C714-334 656-153 588 0h-81c-40-105-86-236-117-357-31 122-76 252-116 357h-81C125-153 67-334 20-520h100c31 138 71 286 118 407 45-126 85-269 117-407h77c30 140 70 281 115 407 46-123 88-268 118-407h96" id="G"/><path fill="#4e75ff" d="M139-156c0 106 132 93 220 82v-155c-78-22-220-23-220 73zm-94 1c-2-152 173-180 314-148 5-94-26-150-117-150-50 0-101 8-132 20l-11-77c32-13 99-23 151-23 135 0 201 66 200 199V-9C390 1 319 11 247 11 126 11 46-34 45-155" id="H"/><g id="f"><use transform="matrix(0.018,0,0,0.018,0,0)" xlink:href="#F"/><use transform="matrix(0.018,0,0,0.018,9.738,0)" xlink:href="#D"/><use transform="matrix(0.018,0,0,0.018,14.363999999999999,0)" xlink:href="#u"/><use transform="matrix(0.018,0,0,0.018,21.383999999999997,0)" xlink:href="#q"/><use transform="matrix(0.018,0,0,0.018,31.518,0)" xlink:href="#G"/><use transform="matrix(0.018,0,0,0.018,45.57599999999999,0)" xlink:href="#H"/><use transform="matrix(0.018,0,0,0.018,55.044,0)" xlink:href="#r"/><use transform="matrix(0.018,0,0,0.018,60.029999999999994,0)" xlink:href="#r"/></g><path fill="#4e75ff" d="M95-501c-14-80-24-166-21-259h97c3 93-7 179-21 259H95zm177 0c-14-80-24-166-21-259h97c3 93-7 179-21 259h-55" id="I"/><path fill="#4e75ff" d="M597-29C545 0 469 15 386 15 168 15 67-125 60-347c-8-284 240-432 510-326 11 4 18 9 22 12l-28 80c-42-23-98-43-163-43-163 0-238 111-238 277 0 165 69 273 232 277 73 3 134-19 177-39" id="J"/><path fill="#4e75ff" d="M279-449c-36 1-74 4-104 10V0H82v-505c55-13 130-26 207-26 153 0 213 87 213 239V0h-93v-272c1-107-22-180-130-177" id="K"/><g id="g"><use transform="matrix(0.018,0,0,0.018,0,0)" xlink:href="#I"/><use transform="matrix(0.018,0,0,0.018,7.145999999999999,0)" xlink:href="#J"/><use transform="matrix(0.018,0,0,0.018,18.378,0)" xlink:href="#r"/><use transform="matrix(0.018,0,0,0.018,23.364,0)" xlink:href="#D"/><use transform="matrix(0.018,0,0,0.018,27.990000000000002,0)" xlink:href="#q"/><use transform="matrix(0.018,0,0,0.018,38.124,0)" xlink:href="#K"/><use transform="matrix(0.018,0,0,0.018,48.528000000000006,0)" xlink:href="#v"/></g><path fill="#4e75ff" d="M10 0c89-244 173-472 279-693h89C484-472 568-243 657 0H551c-23-60-41-116-63-177H174L111 0H10zm450-257c-42-112-82-221-129-325-48 103-88 212-129 325h258" id="L"/><g id="h"><use transform="matrix(0.018,0,0,0.018,0,0)" xlink:href="#L"/><use transform="matrix(0.018,0,0,0.018,10.601999999999999,0)" xlink:href="#I"/></g><path fill="#4e75ff" d="M82-567C68-745 227-812 397-759l-17 80c-21-10-52-17-88-17-102 0-122 72-117 176h200v78H175V0H82v-567" id="M"/><g id="i"><use transform="matrix(0.018,0,0,0.018,0,0)" xlink:href="#r"/><use transform="matrix(0.018,0,0,0.018,4.986,0)" xlink:href="#q"/><use transform="matrix(0.018,0,0,0.018,15.119999999999997,0)" xlink:href="#H"/><use transform="matrix(0.018,0,0,0.018,24.587999999999997,0)" xlink:href="#M"/></g><path fill="#4e75ff" d="M300-71c36 0 74-3 103-10v-439h93v505C441-2 367 11 290 11 138 11 76-78 76-228v-292h93v272c2 116 24 177 131 177" id="N"/><path fill="#4e75ff" d="M59-97c36 13 83 32 144 30 63-2 112-9 112-63 0-99-160-93-221-153-24-24-44-52-44-100 0-151 196-178 331-127l-17 80c-60-35-257-49-214 69 69 92 264 59 259 227-2 107-89 146-206 146C133 12 82-2 42-17" id="O"/><g id="j"><use transform="matrix(0.018,0,0,0.018,0,0)" xlink:href="#E"/><use transform="matrix(0.018,0,0,0.018,8.442,0)" xlink:href="#r"/><use transform="matrix(0.018,0,0,0.018,13.428,0)" xlink:href="#N"/><use transform="matrix(0.018,0,0,0.018,23.832,0)" xlink:href="#O"/><use transform="matrix(0.018,0,0,0.018,31.932000000000002,0)" xlink:href="#v"/><use transform="matrix(0.018,0,0,0.018,39.06,0)" xlink:href="#q"/><use transform="matrix(0.018,0,0,0.018,49.194,0)" xlink:href="#u"/></g><path fill="#4e75ff" d="M278-449c-36 0-74 4-103 10V0H82v-505c94-23 290-55 347 27 41-28 96-52 166-53 149-3 194 91 194 239V0h-93v-272c0-100-11-177-111-177-50 0-96 17-119 35 30 114 10 276 16 414h-93v-272c0-99-12-179-111-177" id="P"/><g id="k"><use transform="matrix(0.018,0,0,0.018,0,0)" xlink:href="#I"/><use transform="matrix(0.018,0,0,0.018,7.595999999999999,0)" xlink:href="#P"/><use transform="matrix(0.018,0,0,0.018,23.165999999999997,0)" xlink:href="#H"/><use transform="matrix(0.018,0,0,0.018,32.634,0)" xlink:href="#D"/><use transform="matrix(0.018,0,0,0.018,37.26,0)" xlink:href="#K"/><use transform="matrix(0.018,0,0,0.018,47.105999999999995,0)" xlink:href="#I"/></g><g id="l"><use transform="matrix(0.018,0,0,0.018,0,0)" xlink:href="#u"/><use transform="matrix(0.018,0,0,0.018,7.02,0)" xlink:href="#t"/><use transform="matrix(0.018,0,0,0.018,17.711999999999996,0)" xlink:href="#t"/><use transform="matrix(0.018,0,0,0.018,28.403999999999996,0)" xlink:href="#v"/></g><path fill="#4e75ff" d="M594-203C589-38 465 6 275 6 209 6 142 1 88-11v-672c188-30 472-44 472 165 1 79-42 125-99 148 77 24 136 68 133 167zm-100 1c0-142-168-119-310-121v244c136 8 310 16 310-123zm-34-309c0-119-159-112-276-104v214c128 0 276 15 276-110" id="Q"/><g id="m"><use transform="matrix(0.018,0,0,0.018,0,0)" xlink:href="#Q"/><use transform="matrix(0.018,0,0,0.018,11.447999999999999,0)" xlink:href="#I"/></g><g id="n"><use transform="matrix(0.018,0,0,0.018,0,0)" xlink:href="#J"/><use transform="matrix(0.018,0,0,0.018,11.232,0)" xlink:href="#I"/></g><g id="o"><use transform="matrix(0.018,0,0,0.018,0,0)" xlink:href="#p"/><use transform="matrix(0.018,0,0,0.018,9.629999999999999,0)" xlink:href="#N"/><use transform="matrix(0.018,0,0,0.018,20.034,0)" xlink:href="#K"/><use transform="matrix(0.018,0,0,0.018,30.438,0)" xlink:href="#K"/><use transform="matrix(0.018,0,0,0.018,40.842,0)" xlink:href="#q"/><use transform="matrix(0.018,0,0,0.018,50.976,0)" xlink:href="#r"/></g></defs></g></svg>