<svg xmlns="http://www.w3.org/2000/svg" xmlns:xlink="http://www.w3.org/1999/xlink" xmlns:lucid="lucid" width="1420" height="560"><g transform="translate(-160.00000000000003 -2700)" lucid:page-tab-id="MUjEjYlGvpTp"><path d="M0 2592h1760v1360H0z" fill="#fff"/><path d="M314.82 2955.6h-69.7c-2.8 0-5.12-2.27-5.12-5.07v-45.64c0-2.8 2.32-5.1 5.12-5.1h69.7c2.8 0 5.1 2.3 5.1 5.1v45.58c0 2.85-2.23 5.13-5.02 5.13h-.08zm-69.62-52.4c-.96 0-1.76.74-1.76 1.7v45.58c0 .95.8 1.73 1.76 1.73h69.7c.96 0 1.67-.77 1.67-1.72v-45.6c0-.94-.7-1.67-1.67-1.67zM314 2977.8h-68.05c-3.28 0-5.92-2.64-5.92-5.9v-7.36c0-3.27 2.64-5.94 5.92-5.96H314c3.28 0 6 2.67 6 5.96v7.35c0 3.27-2.72 5.9-6 5.9zm-68.05-15.84c-1.36.02-2.48 1.18-2.48 2.58v7.35c0 1.4 1.12 2.5 2.48 2.52H314c1.44 0 2.56-1.15 2.56-2.57v-7.3c0-1.43-1.12-2.6-2.56-2.6z" stroke="#fff" stroke-opacity="0" fill="#232f3e"/><path d="M311.9 2949.25h-63.8c-.95 0-1.7-.77-1.7-1.68v-39.77c0-.9.75-1.68 1.7-1.68h63.8c.95 0 1.7.77 1.7 1.68v39.77c0 .9-.75 1.68-1.7 1.68zm-62.06-3.4h60.32v-36.33h-60.32zM292.74 2964.94h19.16c1.13 0 1.7.56 1.7 1.7v3.18c0 1.13-.57 1.7-1.7 1.7h-19.16c-1.12 0-1.7-.57-1.7-1.7v-3.18c0-1.14.58-1.7 1.7-1.7z" stroke="#fff" stroke-opacity="0" fill="#232f3e"/><use xlink:href="#a" transform="matrix(1,0,0,1,210,2986.809085992428) translate(45.655 16.836)"/><path d="M180 3013.5h200v46.5H180z" fill="#fff" fill-opacity="0"/><use xlink:href="#b" transform="matrix(1,0,0,1,185.00000000000003,3018.504) translate(23.448000000000008 14.912)"/><use xlink:href="#c" transform="matrix(1,0,0,1,185.00000000000003,3018.504) translate(55.144000000000005 14.912)"/><use xlink:href="#d" transform="matrix(1,0,0,1,185.00000000000003,3018.504) translate(90.60000000000001 14.912)"/><use xlink:href="#e" transform="matrix(1,0,0,1,185.00000000000003,3018.504) translate(133.48000000000002 14.912)"/><use xlink:href="#f" transform="matrix(1,0,0,1,185.00000000000003,3018.504) translate(64.584 33.472)"/><path d="M420 2720h700v520H420z" stroke="#232f3e" stroke-width="2" fill="#fff" fill-opacity="0"/><path d="M420 2720h56v56h-56v-56z" stroke="#fff" stroke-opacity="0" fill="#232f3e"/><path d="M460.88 2761.22h-25c-4.13.05-7.57-3.1-7.9-7.2v-.64c-.15-3.4 1.97-6.38 5.25-7.36v-.66c.12-4.22 2.44-7.75 6.24-9.57 4.12-1.86 8.73-.96 11.8 2.3 1.1 1.1 1.85 2.2 2.45 3.6 1.2-1 2.72-1.32 4.24-.9 2.24.8 3.68 2.74 3.76 5.1 3.68.65 6.32 3.8 6.28 7.56 0 7.07-7.04 7.73-7.12 7.76zm-26.7-13.88c-2.83.6-4.75 3.14-4.6 6.04v.53c.3 3.33 3.1 5.84 6.4 5.76h24.98c3.04-.3 5.4-2.64 5.68-5.7.28-3.43-2.24-6.5-5.68-6.78-.44-.05-.72-.44-.64-.87.08-1.83-1-3.44-2.72-4.13-1.32-.37-2.64.13-3.44 1.24-.2.25-.44.38-.76.33-.28-.05-.48-.24-.6-.5-.6-1.6-1.4-2.85-2.6-4.04-2.68-2.8-6.6-3.6-10.13-2-3.24 1.6-5.2 4.63-5.32 8.24-.04.4-.04.74 0 1.14.04.4-.2.76-.6.84z" stroke="#fff" stroke-opacity="0" fill="#fff"/><use xlink:href="#g" transform="matrix(1,0,0,1,491,2740) translate(0 14.4)"/><use xlink:href="#h" transform="matrix(1,0,0,1,491,2740) translate(45.3 14.4)"/><path d="M992.18 2872.18h-64.36v-64.36h64.36zm-61.02-3.34h57.68v-57.68h-57.68z" stroke="#fff" stroke-opacity="0" fill="#d86613"/><path d="M937.02 2800h3.33v9.48h-3.33V2800zM947.47 2800h3.33v9.48h-3.33V2800zM957.93 2800h3.34v9.48h-3.34V2800zM968.4 2800h3.33v9.48h-3.33V2800zM978.87 2800h3.33v9.48h-3.33V2800zM937.02 2870.52h3.33v9.48h-3.33v-9.48zM947.47 2870.52h3.33v9.48h-3.33v-9.48zM957.93 2870.52h3.34v9.48h-3.34v-9.48zM968.4 2870.52h3.33v9.48h-3.33v-9.48zM978.87 2870.52h3.33v9.48h-3.33v-9.48zM990.52 2817.42h9.48v3.33h-9.48v-3.33zM990.52 2827.87h9.48v3.33h-9.48v-3.33zM990.52 2838.33h9.48v3.34h-9.48v-3.34zM990.52 2848.8h9.48v3.33h-9.48v-3.33zM990.52 2859.25h9.48v3.33h-9.48v-3.33zM920 2817.42h9.48v3.33H920v-3.33zM920 2827.87h9.48v3.33H920v-3.33zM920 2838.33h9.48v3.34H920v-3.34zM920 2848.8h9.48v3.33H920v-3.33zM920 2859.25h9.48v3.33H920v-3.33z" stroke="#fff" stroke-opacity="0" fill="#d86613"/><use xlink:href="#i" transform="matrix(1,0,0,1,890,2889) translate(12.049999999999997 14.4)"/><path d="M480 2898.8h280v80H480z" stroke="#000" stroke-width="2" fill="#fff"/><use xlink:href="#j" transform="matrix(1,0,0,1,485,2903.809085992428) translate(46.27499999999999 27.525)"/><use xlink:href="#k" transform="matrix(1,0,0,1,485,2903.809085992428) translate(115.125 27.525)"/><use xlink:href="#l" transform="matrix(1,0,0,1,485,2903.809085992428) translate(169.72500000000002 27.525)"/><use xlink:href="#m" transform="matrix(1,0,0,1,485,2903.809085992428) translate(211.72500000000002 27.525)"/><use xlink:href="#n" transform="matrix(1,0,0,1,485,2903.809085992428) translate(84.025 49.125)"/><use xlink:href="#o" transform="matrix(1,0,0,1,485,2903.809085992428) translate(121.025 49.125)"/><path d="M460 2844.2h320v163.6H460z" fill="#fff" fill-opacity="0"/><path d="M472 2844.2h8m8 0h8m8 0h8m8 0h8m8 0h8m8 0h8m8 0h8m8 0h8m8 0h8m8 0h8m8 0h8m8 0h8m8 0h8m8 0h8m8 0h8m8 0h8m8 0h8m8 0h8m8 0h8m8 0h4v4.08m0 8.18v8.18m0 8.18v8.18m0 8.18v8.2m0 8.17v8.18m0 8.18v8.2m0 8.17v8.18m0 8.18v8.2m0 8.17v8.18m0 8.18v8.18m0 8.18v4.1h-4m-8 0h-8m-8 0h-8m-8 0h-8m-8 0h-8m-8 0h-8m-8 0h-8m-8 0h-8m-8 0h-8m-8 0h-8m-8 0h-8m-8 0h-8m-8 0h-8m-8 0h-8m-8 0h-8m-8 0h-8m-8 0h-8m-8 0h-8m-8 0h-8m-8 0h-8m-8 0h-4v-4.1m0-8.18v-8.18m0-8.18V2971m0-8.18v-8.2m0-8.17v-8.18m0-8.18v-8.2m0-8.17v-8.18m0-8.18v-8.2m0-8.17v-8.18m0-8.18v-8.18m0-8.18v-4.1h4" stroke="#5a6c86" stroke-width="2" fill="none"/><use xlink:href="#p" transform="matrix(1,0,0,1,460,2864.1881538461894) translate(59.10000000000001 14.4)"/><path d="M957.6 3007.8c-2.3.2-4.12.5-5.78 1.1-1.02.3-3.2 1.2-3.98 1.5-.65.3-3.54 1.9-5.35 2.9-3.12 1.8-4.7 3.6-5.5 6-.15.4-.22.5-.37.6-.8.5-1.37 1-1.88 1.7-.8 1.1-1.3 2.8-1.45 4.5l-.14 1.1v.3l-.72.7c-2.32 2-4.05 4-5.8 6.5-3.46 5-5.4 10-6.28 16.1-.3 2-.36 3-.36 5.3s.07 3.3.36 5.4c.5 3.7 1.66 7.5 3.33 11 2.08 4.3 4.54 7.7 8.1 10.9l.93.9.07 1.2c0 .6.07 1.9.14 2.9.08 2.1.15 2.5.65 3 .36.3.86.5 1.87.9.37.1 1.74.7 2.9 1.3 3.03 1.5 3.97 1.9 5.5 2.2 1 .3 1.3.3 2.67.4h1.3l.43 1.5c.73 2.6 1.38 4.7 1.74 5.8.44 1.4 1.02 2.9 1.17 3 .07.1 1 .4 1.95.6 3.54.8 8.96.9 14.17.3 1.73-.2 2.95-.9 3.4-1.9.13-.2.13-.3.06-.7-.07-.4-.07-.8-.07-1.2l-.08-.8.57-.1c1.8-.3 2.74-.8 3.1-1.6.15-.3.22-.7.22-1 0-.8-.07-1.3-.43-3.1-.52-2.3-.66-3.2-.52-4l.07-.5.44-.1c.78-.3 1.14-.7 1.14-1.4v-.3l.44-.2c.94-.4 1.95-.6 3.47-.6l1.08-.1.22.4.36.5c.3.3.3.3.95.4 1.95.4 3.98.4 5.5 0 1.23-.2 1.6-.4 2.17-1.1 1.15-1.2 1.95-3.5 1.95-5.7 0-1-.07-1.4-.44-2.7-.57-1.9-1.3-3.9-1.8-4.9-.36-.7-.8-1.2-1.45-1.6-.14-.1-.36-.2-.36-.2s.14-.3.36-.6c.5-.9 1.52-3 1.95-4.1 1.45-3.6 2.24-7.2 2.6-11.4.08-1.1.08-4.2 0-5.4-.28-4.1-1.08-7.6-2.6-11.4-.5-1.2-1.73-3.7-2.38-4.9-1.6-2.7-3.26-4.8-5.5-7.1l-.94-1-.13-1.2c-.36-4.4-1.38-7.9-2.9-10.3-1.15-1.7-3.47-4.2-5.5-5.9-2.52-2-5.5-3.1-9.68-3.7-1.75-.1-3.2-.1-5-.1zm4.77 2.4c2.53.4 4.56 1 6.87 2.2 1.52.7 2.24 1.2 3.47 2.5.88.9 3.12 3.6 3.2 4 .07.1.07.1-.22 0-1.16-.1-1.74-.1-2.4.3-.78.3-1.22 1-1.3 1.8 0 .1 0 .2.08.3 0 0 .07-.1.22-.2.5-.3.87-.4 1.73-.4.45 0 .88 0 1.32.2.86.3 1.5.7 2.17 1.4 1.2 1.2 1.58 2.6 1.87 6.4.07 1.8.14 5.5.07 6.6-.36 5.1-1.74 9.7-3.83 13.3-.43.8-2.1 3.2-2.45 3.7-.58.7-1.16 1.2-1.96 1.7-2.25 1.5-4.63 2.5-6.87 2.8-1.16.1-2.17.1-3.4 0-1.16-.3-2.17-.6-3.26-1.2-3.03-1.4-5.06-3.4-8.3-7.9l-.37-.6v.3c.2 1.4 1 2.8 2.67 4.7 1.88 2.2 3.33 3.5 4.48 4.1.3.2.5.3.5.4.16 0 .08.1-.2 0-.37 0-.66 0-1.1-.1-1.22 0-2.1.2-2.52.8l-.15.3-.72-.1c-3.6-.2-5.78-.8-7.16-2.2-1.37-1.4-3.47-6.1-3.9-9.1-.15-.9-.15-1 .58-1.8.8-.9.94-1.2.72-1.7-.07-.2-.07-.2-.3-.2-.35.1-.57.2-1.3.7-.2.2-.43.3-.72.5-.57.2-1.5.2-2.24-.1-1.66-.7-3.18-2.9-3.6-5.3-.16-.8-.16-1.6 0-2.4.28-1.2 1.07-2.3 2.08-2.9.8-.5 1.8-.7 2.68-.6 1.45.2 2.17 1.1 2.75 3.4l.2.8h.74c1.07 0 2-.3 2.3-.8.15-.2.15-.2.07-.9-.14-.6-.3-1.1-.43-1.8-.72-2.8-.65-3.2.14-7.2.37-1.8.5-2.6.5-3.5 0-.9-.06-1.6-.35-2.4-.07-.2-.15-.4-.15-.6 0-.2.37-1 .94-1.7.5-.7 2.17-2.4 3.1-3.1.95-.7 2.62-1.8 3.7-2.5 3.26-1.8 4.4-2.2 7.45-2.1 1.3 0 1.74.1 2.6.2zm-12.5 1.7c.28.3.07.7-.5.9-.3.1-.52.3-.74.5-.14.1-.57.5-.94.8-1.02.7-1.3 1.1-2.1 2.3-.8 1.3-1.16 1.8-1.52 2.1-.36.2-.72.3-1.45.2-.72-.1-1.15-.1-2.46.4-1.15.4-1.66.4-1.66.3 0 0 .16-.3.37-.6 1.16-2 3.47-3.9 6.44-5.4 1.1-.6 1.74-.9 2.97-1.3 1.1-.4 1.3-.4 1.6-.2zm-6.44 8.2c.2.7.36 1.2.36 2.2 0 1.2 0 1.9-.37 3.8-.3 2.2-.36 2.5-.36 3.7 0 1.2.07 1.4.43 2.7.3.9.36 1.7.22 2-.08.2-.3.3-.58.4h-.3v-.4c-.14-1.2-.64-2.1-1.58-2.8-.94-.8-1.88-1.1-3.04-1.1-.8 0-1.37.1-2.17.5-.14.1-.36.1-.5.2-.15-.1-.22-1.8-.22-3.2 0-1.3 0-1.7.14-2.2.3-1.7.8-2.6 2.03-3.6 1.3-1.1 2.6-1.8 4.26-2.1.8-.2.87-.2 1.3-.2.3 0 .3 0 .37.1zm-10.05 10.3c.07.1.14.2.14.4s0 .4.07.4v.3c0 .2 0 .3-.08.3v.1c0 .1 0 .2-.07.3-.07 0-.07.1-.07.2h-.08c-.07 0-.07.1-.07.1 0 .1-.07.1-.07.1-.07.1-.14.1-.14.2 0 0 0 .1-.08.1-.07.1-.5 1.4-.5 1.6h-.08s-.07.1-.07.2c0 .2 0 .6-.08 1-.22 1.8.3 4.4 1.3 6.3 1 2.1 2.9 3.7 5 4.1l.35.1v.2c.15 1.3.73 3 1.45 4.2.8 1.2 1 1.9.87 2.5-.16.4-.52.7-2.26 1.7-3.68 2.1-6.2 3.6-7.44 4.5-.58.4-1.1.7-1.74 1-1.6.8-2.1 1.3-2.17 2.2-.15.7.2 1.9.93 3.9.22.6.58 1.6.73 2.1.2.6.65 1.8 1 2.6.8 2.2 1.02 2.9 1.45 4.9.3 1.3.8 4.5.8 5 0 .3-1.8-1.6-3.32-3.6-3.32-4.4-5.35-8.8-6.36-14.3-.3-1.3-.5-2.7-.43-2.9 0-.1 0-.1-.1-.1 0 0-.06-.1 0-.3 0-.2 0-.4-.06-.4v-.4-.4c-.07 0-.07-.1-.07-.6.07-.4.07-.6 0-.6s-.07-.4-.07-1.3 0-1.3.07-1.3.07-.2 0-.6c0-.5 0-.6.07-.6v-.4-.4c.07 0 .07-.2.07-.4-.06-.2 0-.3 0-.3.1 0 .1-.1.1-.3-.1-.1 0-.2 0-.2s.06-.1 0-.3c0-.1 0-.2.06-.2v-.2c0-.1 0-.2.07-.2v-.2-.2c.07 0 .07-.1.07-.3 0-.2.08-.4.08-.4.07 0 .07-.1.07-.2-.07-.1 0-.1 0-.1s.07-.2.07-.3c0-.2 0-.3.07-.4 0 0 .06 0 0-.1-.08-.2 1.08-4.2 1.3-4.3v-.2c0-.1.28-.8.36-.8v-.2c0-.1.07-.1.07-.1.07 0 .07-.1.07-.2s.07-.2.07-.2c.07 0 .07 0 .07-.1s.08-.2.08-.3c.07 0 .14-.1.14-.1 0-.2.15-.5.15-.5.08 0 .08-.1.08-.1 0-.1.36-.8.43-.9l.23-.3c.36-.9.43-1.1.5-1.1.08 0 .08-.1.08-.2 0 0 .08-.2.15-.2l.15-.2c0-.1.07-.2.14-.2.07-.1.07-.2.15-.3 0-.1.06-.2.06-.2.07 0 .07 0 .07-.1 0 0 0-.1.07-.1l.08-.1c0-.1.07-.2.07-.2.07 0 .07-.1.07-.1l.07-.1c.06 0 .06-.1.06-.2.08 0 .08-.1.15-.1l.08-.1c0-.1 0-.1.07-.1v-.1l.08-.1c.07 0 .07 0 .07-.1l.07-.1c.07 0 .07 0 .07-.1l.08-.1c.07 0 .14-.1.14-.1 0-.1 0-.1.07-.1v-.1s.07-.1.15-.1c0 0 .07-.1.07-.2h.07l.07-.1c0-.1 0-.1.07-.2.07 0 .07 0 .07-.1 0 0 .07-.1.14-.1l.08-.1c0-.1.07-.1.07-.2.07 0 .14 0 .14-.1 0 0 0-.1.07-.1.08-.1.15-.1.15-.2 0 0 .06-.1.13-.1.08-.1.08-.2.08-.2l.15-.2c.07 0 .15-.1.15-.1 0-.1.07-.2.14-.2.14-.1.22-.2.22-.3 0 0 .07-.1.2-.2.16-.1.23-.2.23-.2 0-.1.14-.3.35-.5.15-.1.3-.2.36-.4 0 0 1.24-1.3 1.32-1.3.07 0 .14 0 .14-.1s.14-.1.3 0zm48.37 2.7c4.63 5.4 7.45 11.9 8.24 19.3.14 1.2.2 4.8.07 6.2-.3 4.7-1.3 8.6-3.33 12.9-.5 1-.94 1.8-1.52 2.8l-.2.3-.6.1c-1.58.2-3.83.9-5.85 1.9-.58.3-.65.4-.65.2 0 0 .22-.6.43-1.3 1.16-3.1 2.03-5.7 2.97-8.9l1.08-3.6c.73-2.1.87-2.8.8-3.6 0-1.2-.44-1.6-4.63-5.3-1.23-1-2.17-1.9-2.3-2.3-.3-.5 0-1.2.85-2.6.65-1.1 1.02-1.9 1.38-3.2.94-2.8 1.66-5.9 2.02-9 .07-1.1.22-3.1.22-3.8 0-.6.07-1 .22-1l.8.9zm-6.65 20.9c.22.1 1.08 1 1.95 1.8.94.9 1.95 1.8 2.32 2.1 1 .8 1.5 1.3 1.73 1.8.22.4.22.4.15 1.1-.08.7-.3 1.8-.73 3.9-.65 2.6-1.73 5.7-3.25 9.6-1 2.5-1.23 2.9-2.03 3.1-.65.2-.8.2-2.45.3-1.53 0-2.04.1-2.55.3-.28.2-.36.2-.36.1 0-.2.43-.9 2.8-4.8 1.82-3.1 3.2-5.3 3.48-5.8.08-.2.08-.2-.07-.4-.13-.2-.28-.4-.5-.6-.36-.5-.57-.8-.57-1 0-.1.07-.4.2-.7.88-2.6.45-6.9-.85-8.3-.3-.4-.8-.7-1.02-.7-.2 0-.65-.3-.65-.4 0-.1.3-.3.66-.6.37-.3.73-.7.87-.8.15-.2.3-.3.44-.4 0 0 .2.2.43.4zm-32.54 1.8c.14.2.65.7 1.08 1.2l1.16 1.4c.65.7 2.1 1.6 5.28 3.1l1.95 1 .08.5c.22 1.3 1.38 5.2 1.8 6.2.6 1.3 1.3 1.6 2.4 1.2.14 0 .36-.1.5-.1.22 0-.07.6-.57 1.3-.73.9-.87 1.5-.5 2 .14.3.7.7 1.5 1.1 1.9 1 4.2 2.1 5.36 2.5.7.3 1.3.6 1.3.7 0 0-.3.1-1.02.1-5.2.2-8.32.5-13.23 1-1.38.2-2.24.3-2.24.2-.14-.1-.36-.6-.43-1.1-.07-.9-.07-3.6.07-5.4.08-.9.15-1.8.15-2.1 0-1.6-.8-1.6-1.1 0-.07.6-.07 1 .15 3.1.14 1.5.14 3.2.07 3.8-.07.2-.14.6-.22.8-.14.4-.14.5-.3.5-.28 0-.64-.2-1.3-.7-.86-.6-1.14-.7-1.22-.6-.14.2 0 .6.44 1.1.36.4.43.8.14 1.1-.14.2-.3.3-.8.4-.8.1-1.15.4-1.15.8 0 .2 0 .2.44.2.22 0 .87 0 1.6-.1 1.15 0 1.73 0 2.38.2h.22l.07.5c.15 1.7.66 5.9 1.17 9.6l.36 2.7c0 .2-1.6 0-2.9-.2-2.1-.5-3.83-1.2-7.37-3-.87-.5-1.6-.9-2.53-1.4l-.5-.2v-.6c0-1.3-.22-4.7-.5-7.1-.66-6.5-2.18-12.5-4.2-17.2-.22-.3-.37-.7-.44-1 0-.1.57-.6 1.3-1.1 4.1-3.1 6.86-4.9 9.9-6.2.5-.2 1-.4 1.15-.4.15 0 .3 0 .5.2zm30.66 2c.58.3 1.08 1.8 1.23 4.1.14 1.3-.07 2.6-.44 3l-.06.2-1-.1c-1.67-.1-3.77-.4-4.78-.7l-.3-.1v-1.9c0-.1.44-.3.66-.4.3 0 1-.1 1.23-.1h.14c0-.1-.66-.3-1.02-.3-.14 0-.22-.1-.36-.1h-.36c-.36.1-.5.1-.58-.3-.07-.2-.15-.4-.22-.5-.07-.2-.07-.3 0-.3 0-.1.07-.1.15-.1l1.16-.7c1.8-1.2 2.6-1.7 3.2-1.8h.2c.07-.1 1 0 1.16.1zm-4.77 0l-.15.2c-.07 0-.58.4-1.23.9l-1.15.9h-.37c-1.3.1-2.3-.1-3.1-.5-.66-.3-1.23-.7-1.23-.8 0-.1.3-.2.43-.1.36.1 1.08.2 1.52.2.58 0 1.6-.1 2.82-.4 1-.3 2.1-.5 2.37-.5 0 0 .08 0 .08.1zm-20.6.3c.42.2 1.22.3 2.52.4 1.8.1 1.74.1 1.74.3 0 .1 0 .4-.07.7-.07.3-.14.5-.2.8 0 .3 0 .3-.23.3-.3 0-1.37-.3-2.1-.5-1.66-.7-2.67-1.4-2.53-2 .07-.3.15-.3.36-.2.15.1.3.1.5.2zm7.65.2c.08.1.15.1.15.1.07-.1 2.53.7 3.4 1.1 1.3.6 1.66.8 2.3 1.2.44.3 1.1.6 1.46.6h.22c.08 0 .08.1.08.3.07.2 0 .2-.22.4-.3.1-.87.3-1 .3 0 0-.23.1-.95.3-.3 0-.36.2-.08.1.37 0 2.25.5 2.4.7.06.1.06.3.06.7l-.06.6-.22.2c-.14.1-.8.6-1.37 1.1l-1.52 1.2c-1.16.9-3.7 1.8-4.7 1.8-.3 0-.36 0-.5-.2l-.22-.3c-.14-.5-.28-1-.5-1.5-.36-.8-.58-1.5-.8-2.4 0-.1-.07-.2-.07-.3-.14-1.3-.2-2.3-.14-3.6l.06-.6c.07-.4.44-1.3.65-1.5.3-.3.6-.4 1.03-.4.2 0 .36.1.57.1zm10.34 2.7c.3.2.37.2.58.7.22.5.22 1 0 1.6-.3.5-.65.7-1.3.7-.8 0-.72 0-.94-.9-.07-.3-.14-.6-.14-.9v-.1c-.08 0-.08-.1-.08-.4 0-.3 0-.3.15-.4.8-.4 1.24-.5 1.74-.3zm1.3 4c.15 0 .5.2.8.4.65.5 1.1.7 1.52.7l.3.1v.3c0 .3 0 .7-.08 1.1 0 .4-.08 1.4-.08 2.2-.07 1.8-.2 3.3-.5 5.1-.15.8-.36 1.5-.44 1.6-.14 0-.86-1.5-1.95-3.9-1.3-3.1-2-4.5-2.95-5.8-.22-.2-.3-.4-.44-.6l.37-.5.3-.4.28.1c.5 0 .65 0 1.3-.3.8-.3 1.16-.3 1.6-.1zm5.86 1.1c.5.1.94.3 1.38.7.36.3.8.8.8 1 0 .1-1.9 3.3-2.97 5.1-1.08 1.8-2.52 3.8-2.74 3.9-.07.1-.07 0 .14-.8.44-1.8.8-4.4 1.02-7.4.07-.7.07-1.5.07-1.8 0-.5 0-.5.2-.6.66-.3 1.38-.3 2.1-.1zm-10.4 1.5c1.36 1.9 2.16 3.5 3.9 7.6.36.9.65 1.6.65 1.7 0 .1-.22.1-1.3-.3-2.1-.7-3.84-1.5-5.86-2.5-1.53-.7-2.9-1.5-2.9-1.6 0 0 0-.2.07-.4.36-1.1 1.08-2.1 2.1-2.9.64-.5 2.74-2 2.9-2 .06 0 .2.2.42.4zm23.56 9c.73.4 1.23.9 1.6 1.6.43.8.86 2.2 1.44 4.7.3 1.1.3 1.3.3 2.1.06.9.06 1.1-.08 1.6-.37 1.3-1.1 2.4-2.17 2.9-1.1.5-3.7.7-5.06.4-.3-.1-.45-.1-.45-.2 0-.2.8-.5 2.32-.8 1.22-.2 1.73-.3 1.8-.4 0 0-.07-.1-.72-.2-.43-.1-2.4-.1-3.54 0-.64 0-1.22.1-1.87.1h-1.02v-.3l-.27-2.3c-.22-2.7-.5-4.5-.87-5.8l-.15-.3.3-.2c.5-.5 1.74-1 3.9-1.7 1.16-.5 1.96-.8 2.47-1.1.57-.3.72-.4 1.22-.3.36 0 .57 0 .86.2zm-10.4 3.2c.28.2.86 1.8 1.07 3 .37 1.3.58 3.9.58 5.2l-.06.7-.8.3c-.43.1-1 .2-1.15.3h-.45v-.3c-.07-.1-.07-.7-.14-1.2-.13-1.2-.28-2.2-.5-3.4-.36-2.4-.57-4.2-.57-4.5 0-.1 0-.1.43-.1.65-.1 1.52 0 1.6 0zm-12.6 0c1.45.1 4 .4 4.13.5.06 0 .2 1.4.28 2.2.07 1 .14 1.6.22 4.2.07 2.1.14 2.5.3 4.5.13 1.3.2 2.9.27 5.4.15 3.6.3 5.5.58 7.2l.15.9c-.07.1-1.1.3-1.74.4-1.73.4-3.54.6-5.7.6-2.4 0-4.42-.2-6.73-.6-1.02-.2-2.68-.7-2.75-.7-.15-.5-.3-.9-.44-1.4-1.6-5.2-2.74-10.3-3.6-16.3-.37-2.4-.73-5.5-.66-5.5.07-.1 3.32-.6 4.77-.8 2.17-.3 4.05-.5 6.3-.6 1 0 3.75 0 4.62.1zm8.47.5c.36 1.2.58 3 .87 7 .14 1.3.2 2.6.3 2.9v.5c-.1.1-1.82.4-2.98.6-.5.1-.72.1-.72 0l-.15-1.3c-.2-3.4-.36-6.2-.3-9.7.88-.2 1.6-.3 2.47-.2.5 0 .5 0 .5.2zm-.15 12.5c.15 0 .15.1.22.4 0 .2.15 1.1.36 2 .44 2.2.58 3 .65 4.1v1l-.7.2-1.02.3c-.5.1-.87.1-1.38.1l-.14-2c-.07-1.4-.15-2.6-.15-3.9l-.06-1.9h.22c.07 0 .43-.1.8-.1.36-.1.72-.2.8-.2h.2c.08-.1.15 0 .22 0zm-15.7-73.1c-.5.1-1.22.4-1.94.9-.8.6-1.37 1.2-1.95 2-.52.8-.88 1.9-.8 2.5.07.2.35.6.5.6 0 0 .14-.3.3-.5.57-1.1 1.36-2.2 2.1-2.7.42-.4 1.07-.7 1.65-.8.36-.1.65-.1 1.37-.1.5 0 .94.1 1 .1.16 0 .16 0 .3-.2.15-.3.08-.6-.14-.9-.43-.7-1.45-1-2.4-.9zm20.26 6.8c0 .8.22 1.7.72 3 .22.5.3.9.3 1 0 .1-.6.3-1.67.4-1.02 0-1.1 0-1.53.2-.3 0-.3 0-.3.2 0 .6.44 1.2 1.02 1.3 1 .3 2.67-.2 3.54-1 .57-.6.57-.5.14-1.3-.72-1.2-1.3-2.3-1.88-3.6-.14-.4-.3-.7-.36-.7v.5zm-15.98-.1c-.15.8.36 2.5 1.37 4.3.22.3.36.7.36.7 0 .4-1.02.6-1.8.6-.45-.1-.88-.2-1.3-.2-1.17-.2-1.32-.2-1.4 0-.13.4-.13.6-.06.8.3.7 1.37 1.1 2.96 1.1 1.3 0 1.8-.1 2.53-.8.37-.3.44-.4.5-.7.16-.4.08-.7-.06-1.1-.3-.3-.5-.6-.8-.9-.8-.9-.94-1.1-1.6-2.6-.2-.4-.35-.8-.57-1.2l-.14-.3v.3zm8.1 1.1c-.15 0-.15.1-.15.5 0 1.7 1.03 4 2.76 6.2.43.6 1.95 2.4 2.6 3.1.58.8.8 1.4.65 2-.06.4-.35.9-.5 1 0 0-.64.3-1.37.6-1.73.8-2.24 1-2.96 1.2-.72.3-1.37.4-2.1.3-1.15 0-1.37-.3-1.66-1.6-.06-.2-.13-.4-.2-.7h-.08c-.07 0-.36.6-.43 1-.16.8.06 1.6.64 2.2l.2.3h.95c2.53.1 4.9-.7 7.8-2.5l.94-.6.08-.4c.07-.3.2-.6.3-.9.06-.2.13-.6.2-.8.15-.6.07-.7-1-1.7-2.7-2.7-5.65-6.8-6-8.4-.08-.3-.16-.5-.3-.7-.15-.2-.22-.2-.43-.1zm-30.88 6.8c-.65.2-1.16.7-1.3 1.4-.14.4-.14.5.14.2.37-.3.5-.4.87-.4.14 0 .28 0 .35.1-.07.2-.07.3-.14.5-.14.5-.2.9-.2 1.4 0 1 .06 1.6.35 2.2.37.8.37.8.37-.8.07-1.3.07-1.6.2-1.9.23-.7.66-1 1.17-.8.28.1.57.4.93 1.3.22.4.5.8.65 1l.14.2.08-.4c.2-1.8-.87-3.5-2.4-4-.42-.2-.86-.2-1.22 0zm38.4 8.7c-2.4 1.2-3.18 1.6-4.56 1.8-.2 0-.43.1-.65.2v1.9c.07.2.07.2.3.2.42 0 1.36-.2 1.94-.4 1.46-.6 2.9-2 3.92-3.9.07-.1.14-.3.2-.4 0 0-.5.2-1.14.6zm-15.48 1.2c.37.8 1.52 1.7 2.82 2.2 1.6.6 4.05 1 5.93.9h.58v-.9c0-.4 0-.7-.07-1.1l-.07-.3h-2.1c-3.55-.1-5.43-.3-7.17-1.1-.14 0-.14 0 .07.3zm-1.37 1.9c-.3.1-.36.2-.14.5.06.1.35.4.5.6.14.1.57.6.86 1.1.36.4.8 1 .94 1.2 1.16 1.3 2.4 1.8 4.77 1.8 2.03 0 3.83-.4 4.48-.9.22-.2.66-.8.66-.9-.8-.1-1.5-.1-2.3-.1-3.7.1-5.3-.1-6.8-.9-1.02-.5-1.74-1.2-2.17-2.1-.22-.4-.22-.4-.44-.4-.08 0-.23 0-.37.1zm8.03 21c-.37.3-.44.8-.15 1.1.52.5 1.24.2 1.24-.5 0-.2 0-.3-.22-.5-.2-.2-.57-.3-.86-.1zm.94 3.4c-.37.1-.5.3-.5.7 0 .2 0 .3.2.4.15.2.22.2.5.2.23 0 .3 0 .45-.1.2-.2.2-.3.2-.5 0-.3 0-.4-.13-.5-.22-.2-.5-.3-.72-.2zm15.54 8.8c-1.52.3-2.82 1-3.47 1.8l-.3.3h.3c.65 0 1.38-.3 2.82-1.2.93-.5 1.44-.8 1.8-.9.36-.1-.5-.1-1.16 0zm-1.3 2.7c-.43.1-.8.2-1.16.4-.14.2-.2.2-.14.3.14.1 2.24 0 3.7-.2l1.3-.1c.2 0-.52-.2-1.17-.3-.72-.1-2.1-.2-2.53-.1zm-.58 2.6c-.36.1-.8.3-.87.4 0 .1.93.1 3.47.1 2.1.1 2.3.1 2.16 0-.72-.3-1.37-.4-2.1-.5-.8-.1-2.23-.1-2.67 0z" stroke="#000" stroke-opacity="0" fill="#444"/><path d="M840 2740h240v60H840z" stroke="#000" stroke-opacity="0" stroke-width="2" fill="#fff" fill-opacity="0"/><use xlink:href="#q" transform="matrix(1,0,0,1,845,2745) translate(38.599999999999994 30.025)"/><use xlink:href="#r" transform="matrix(1,0,0,1,845,2745) translate(103.5 30.025)"/><path d="M840 2960h240v60H840z" stroke="#000" stroke-opacity="0" stroke-width="2" fill="#fff" fill-opacity="0"/><use xlink:href="#q" transform="matrix(1,0,0,1,845.0000000000001,2965) translate(54.12499999999999 30.025)"/><use xlink:href="#s" transform="matrix(1,0,0,1,845.0000000000001,2965) translate(119.025 30.025)"/><path d="M1180 2860h380v380h-380z" stroke="#5a6c86" stroke-width="2" fill="#fff" fill-opacity="0"/><path d="M1180 2860h56v56h-56v-56z" stroke="#fff" stroke-opacity="0" fill="#5a6c86"/><path d="M1220.5 2881.2h-5.85v-12.4c0-.44-.37-.8-.8-.8h-11.7c-.43 0-.8.36-.8.8v12.4h-5.85c-.45 0-.8.36-.8.8v25.2c0 .44.35.8.8.8h25c.45 0 .8-.36.8-.8V2882c0-.44-.35-.8-.8-.8zm-.8 25.2h-23.4v-23.6h5.85c.45 0 .8-.36.8-.8v-12.4h10.1v12.4c0 .44.35.8.8.8h5.85z" stroke="#fff" stroke-opacity="0" fill="#fff"/><path d="M1199.8 2886.1h1.6v4.16h-1.6v-4.16zM1199.8 2892.77h1.6v4.16h-1.6v-4.16zM1199.8 2899.44h1.6v4.16h-1.6v-4.16zM1207.3 2886.1h1.6v4.16h-1.6v-4.16zM1207.3 2892.77h1.6v4.16h-1.6v-4.16zM1207.3 2899.44h1.6v4.16h-1.6v-4.16zM1214.82 2886.1h1.6v4.16h-1.6v-4.16zM1214.82 2892.77h1.6v4.16h-1.6v-4.16zM1214.82 2899.44h1.6v4.16h-1.6v-4.16zM1207.3 2873.3h1.6v4.16h-1.6v-4.16zM1207.3 2879.97h1.6v4.16h-1.6v-4.16z" stroke="#fff" stroke-opacity="0" fill="#fff"/><use xlink:href="#t" transform="matrix(1,0,0,1,1251,2880) translate(0 14.4)"/><use xlink:href="#u" transform="matrix(1,0,0,1,1251,2880) translate(84.85000000000001 14.4)"/><use xlink:href="#v" transform="matrix(1,0,0,1,1251,2880) translate(127.80000000000001 14.4)"/><path d="M1402.18 3059.58h-64.36v-64.36h64.36zm-61.02-3.34h57.68v-57.68h-57.68z" stroke="#fff" stroke-opacity="0" fill="#d86613"/><path d="M1347.02 2987.4h3.33v9.48h-3.33v-9.48zM1357.47 2987.4h3.33v9.48h-3.33v-9.48zM1367.93 2987.4h3.34v9.48h-3.34v-9.48zM1378.4 2987.4h3.33v9.48h-3.33v-9.48zM1388.87 2987.4h3.33v9.48h-3.33v-9.48zM1347.02 3057.92h3.33v9.48h-3.33v-9.48zM1357.47 3057.92h3.33v9.48h-3.33v-9.48zM1367.93 3057.92h3.34v9.48h-3.34v-9.48zM1378.4 3057.92h3.33v9.48h-3.33v-9.48zM1388.87 3057.92h3.33v9.48h-3.33v-9.48zM1400.52 3004.82h9.48v3.33h-9.48v-3.33zM1400.52 3015.27h9.48v3.33h-9.48v-3.33zM1400.52 3025.73h9.48v3.34h-9.48v-3.34zM1400.52 3036.2h9.48v3.33h-9.48v-3.33zM1400.52 3046.65h9.48v3.33h-9.48v-3.33zM1330 3004.82h9.48v3.33H1330v-3.33zM1330 3015.27h9.48v3.33H1330v-3.33zM1330 3025.73h9.48v3.34H1330v-3.34zM1330 3036.2h9.48v3.33H1330v-3.33zM1330 3046.65h9.48v3.33H1330v-3.33z" stroke="#fff" stroke-opacity="0" fill="#d86613"/><use xlink:href="#w" transform="matrix(1,0,0,1,1300,3076.4000000000233) translate(12.049999999999997 14.4)"/><path d="M1250 2927.4h240v60h-240z" stroke="#000" stroke-opacity="0" stroke-width="2" fill="#fff" fill-opacity="0"/><use xlink:href="#x" transform="matrix(1,0,0,1,1255,2932.4000000000233) translate(46.07499999999999 30.025)"/><use xlink:href="#r" transform="matrix(1,0,0,1,1255,2932.4000000000233) translate(96.02499999999999 30.025)"/><path d="M762 3020h68.5v40h51M762.03 3020H761" stroke="#000" stroke-width="2" fill="none"/><path d="M896.76 3060l-14.26 4.64v-9.28z" stroke="#000" stroke-width="2"/><path d="M762 3020h68v140h380.5M762.03 3020H761" stroke="#000" stroke-width="2" fill="none"/><path d="M1225.76 3160l-14.26 4.64v-9.28z" stroke="#000" stroke-width="2"/><path d="M761 3019v-179h140.5M761 3018.97v1.03" stroke="#000" stroke-width="2" fill="none"/><path d="M916.76 2840l-14.26 4.64v-9.28z" stroke="#000" stroke-width="2"/><path d="M320.93 2938.8h68.54v-28.96h51.03" stroke="#000" stroke-width="2" fill="none"/><path d="M320.96 2939.8h-1.03v-2h1.03z"/><path d="M455.76 2909.84l-14.26 4.64v-9.27z" stroke="#000" stroke-width="2"/><path d="M1230 3120h280v80h-280z" stroke="#000" stroke-width="2" fill="#fff"/><g><use xlink:href="#j" transform="matrix(1,0,0,1,1235,3125) translate(49.599999999999994 38.4625)"/><use xlink:href="#y" transform="matrix(1,0,0,1,1235,3125) translate(118.45 38.4625)"/><use xlink:href="#o" transform="matrix(1,0,0,1,1235,3125) translate(155.45 38.4625)"/></g><path d="M1224 3160H830v-140h-60v-35.96" stroke="#7f34aa" stroke-opacity=".64" stroke-width="10" fill="none"/><path d="M1229 3165h-5.13v-10h5.13z" fill="#7f34aa" fill-opacity=".64"/><path d="M766.2 2972.9l9 12.02-8.78 3z" stroke="#7f34aa" stroke-opacity=".64" stroke-width="10" fill="#7f34aa" fill-opacity=".64"/><defs><path d="M597-29C545 0 469 15 386 15 168 15 67-125 60-347c-8-284 240-432 510-326 11 4 18 9 22 12l-28 80c-42-23-98-43-163-43-163 0-238 111-238 277 0 165 69 273 232 277 73 3 134-19 177-39" id="z"/><path d="M173-151c-3 59 26 79 78 83l-13 78C129 7 80-30 80-136v-624l93-16v625" id="A"/><path d="M175 0H82v-520h93V0zm13-675c0 35-26 61-60 61s-60-26-60-61 26-61 60-61 60 26 60 61" id="B"/><path d="M315 12C141 9 53-87 53-259c0-164 81-274 237-274 163 0 227 118 216 298H150c9 108 58 165 175 165 54 0 101-11 133-25l13 78c-33 16-99 31-156 29zm95-322c8-101-82-177-178-132-47 22-73 71-80 132h258" id="C"/><path d="M279-449c-36 1-74 4-104 10V0H82v-505c55-13 130-26 207-26 153 0 213 87 213 239V0h-93v-272c1-107-22-180-130-177" id="D"/><path d="M257 11C121 11 76-66 76-201v-464l93-16v161h197v78H169v240c-1 80 17 131 96 131 43 0 79-13 103-23l18 77c-27 12-82 28-129 28" id="E"/><g id="a"><use transform="matrix(0.018,0,0,0.018,0,0)" xlink:href="#z"/><use transform="matrix(0.018,0,0,0.018,11.232,0)" xlink:href="#A"/><use transform="matrix(0.018,0,0,0.018,16.218,0)" xlink:href="#B"/><use transform="matrix(0.018,0,0,0.018,20.844,0)" xlink:href="#C"/><use transform="matrix(0.018,0,0,0.018,30.978,0)" xlink:href="#D"/><use transform="matrix(0.018,0,0,0.018,41.382000000000005,0)" xlink:href="#E"/></g><path d="M88 0v-693h423v83H185v206h290v81H185v240h351V0H88" id="F"/><path d="M315-70c41 0 75-4 103-11v-329c-24-19-73-42-119-40-110 2-147 80-149 190-2 113 59 189 165 190zm-28-462c51-2 103 18 131 35v-263l93-16v761C458-1 388 13 314 12 145 7 53-90 53-260c0-162 75-266 234-272" id="G"/><g id="b"><use transform="matrix(0.016,0,0,0.016,0,0)" xlink:href="#F"/><use transform="matrix(0.016,0,0,0.016,9.200000000000001,0)" xlink:href="#D"/><use transform="matrix(0.016,0,0,0.016,18.448,0)" xlink:href="#G"/></g><path d="M300-71c36 0 74-3 103-10v-439h93v505C441-2 367 11 290 11 138 11 76-78 76-228v-292h93v272c2 116 24 177 131 177" id="H"/><path d="M59-97c36 13 83 32 144 30 63-2 112-9 112-63 0-99-160-93-221-153-24-24-44-52-44-100 0-151 196-178 331-127l-17 80c-60-35-257-49-214 69 69 92 264 59 259 227-2 107-89 146-206 146C133 12 82-2 42-17" id="I"/><path d="M82-498c73-28 204-47 296-18l-16 81c-44-19-138-19-187-2V0H82v-498" id="J"/><g id="c"><use transform="matrix(0.016,0,0,0.016,0,0)" xlink:href="#H"/><use transform="matrix(0.016,0,0,0.016,9.248,0)" xlink:href="#I"/><use transform="matrix(0.016,0,0,0.016,16.448,0)" xlink:href="#C"/><use transform="matrix(0.016,0,0,0.016,25.456000000000003,0)" xlink:href="#J"/></g><path d="M252 108c114 0 161-44 156-160-25 15-79 35-127 33-151-6-228-96-228-252 0-162 90-254 252-260 75-2 141 15 195 27v464c0 164-85 227-250 228-62 1-124-12-168-27l17-81c38 15 98 28 153 28zm38-207c46 2 92-16 117-35v-304c-29-7-58-11-101-11-102-1-157 76-156 179 2 102 44 167 140 171" id="K"/><g id="d"><use transform="matrix(0.016,0,0,0.016,0,0)" xlink:href="#H"/><use transform="matrix(0.016,0,0,0.016,9.248,0)" xlink:href="#I"/><use transform="matrix(0.016,0,0,0.016,16.448,0)" xlink:href="#B"/><use transform="matrix(0.016,0,0,0.016,20.560000000000006,0)" xlink:href="#D"/><use transform="matrix(0.016,0,0,0.016,29.808,0)" xlink:href="#K"/></g><path d="M903-693C857-438 808-218 734 0h-97c-62-154-117-299-170-470C414-299 357-155 296 0h-97C124-217 75-438 30-693h102c36 196 74 394 125 572 56-149 122-324 169-490h84c47 166 115 341 171 490 50-178 88-377 123-572h99" id="L"/><path d="M279 12C204 13 135-1 82-15v-745l93-16v279c28-17 80-37 131-35 159 6 234 110 234 272C540-90 448 7 279 12zm15-462c-46-2-95 21-119 40v329c28 7 62 11 103 11 106 0 167-77 165-190-2-110-39-188-149-190" id="M"/><g id="e"><use transform="matrix(0.016,0,0,0.016,0,0)" xlink:href="#L"/><use transform="matrix(0.016,0,0,0.016,14.576,0)" xlink:href="#C"/><use transform="matrix(0.016,0,0,0.016,23.584000000000003,0)" xlink:href="#M"/></g><path d="M594-203C589-38 465 6 275 6 209 6 142 1 88-11v-672c188-30 472-44 472 165 1 79-42 125-99 148 77 24 136 68 133 167zm-100 1c0-142-168-119-310-121v244c136 8 310 16 310-123zm-34-309c0-119-159-112-276-104v214c128 0 276 15 276-110" id="N"/><path d="M297-533c160 0 244 110 244 273S457 13 297 13 53-97 53-260s84-273 244-273zm0 464c98 0 147-85 147-191s-49-191-147-191-147 85-147 191S199-69 297-69" id="O"/><path d="M761-520C714-334 656-153 588 0h-81c-40-105-86-236-117-357-31 122-76 252-116 357h-81C125-153 67-334 20-520h100c31 138 71 286 118 407 45-126 85-269 117-407h77c30 140 70 281 115 407 46-123 88-268 118-407h96" id="P"/><g id="f"><use transform="matrix(0.016,0,0,0.016,0,0)" xlink:href="#N"/><use transform="matrix(0.016,0,0,0.016,10.352,0)" xlink:href="#J"/><use transform="matrix(0.016,0,0,0.016,16.592,0)" xlink:href="#O"/><use transform="matrix(0.016,0,0,0.016,25.887999999999998,0)" xlink:href="#P"/><use transform="matrix(0.016,0,0,0.016,38.384,0)" xlink:href="#I"/><use transform="matrix(0.016,0,0,0.016,45.584,0)" xlink:href="#C"/><use transform="matrix(0.016,0,0,0.016,54.592000000000006,0)" xlink:href="#J"/></g><path fill="#232f3e" d="M205 0l-28-72H64L36 0H1l101-248h38L239 0h-34zm-38-99l-47-123c-12 45-31 82-46 123h93" id="Q"/><path fill="#232f3e" d="M266 0h-40l-56-210L115 0H75L2-248h35L96-30l15-64 43-154h32l59 218 59-218h35" id="R"/><path fill="#232f3e" d="M185-189c-5-48-123-54-124 2 14 75 158 14 163 119 3 78-121 87-175 55-17-10-28-26-33-46l33-7c5 56 141 63 141-1 0-78-155-14-162-118-5-82 145-84 179-34 5 7 8 16 11 25" id="S"/><g id="g"><use transform="matrix(0.05,0,0,0.05,0,0)" xlink:href="#Q"/><use transform="matrix(0.05,0,0,0.05,11.35,0)" xlink:href="#R"/><use transform="matrix(0.05,0,0,0.05,28.299999999999997,0)" xlink:href="#S"/></g><path fill="#232f3e" d="M212-179c-10-28-35-45-73-45-59 0-87 40-87 99 0 60 29 101 89 101 43 0 62-24 78-52l27 14C228-24 195 4 139 4 59 4 22-46 18-125c-6-104 99-153 187-111 19 9 31 26 39 46" id="T"/><path fill="#232f3e" d="M24 0v-261h32V0H24" id="U"/><path fill="#232f3e" d="M100-194c62-1 85 37 85 99 1 63-27 99-86 99S16-35 15-95c0-66 28-99 85-99zM99-20c44 1 53-31 53-75 0-43-8-75-51-75s-53 32-53 75 10 74 51 75" id="V"/><path fill="#232f3e" d="M84 4C-5 8 30-112 23-190h32v120c0 31 7 50 39 49 72-2 45-101 50-169h31l1 190h-30c-1-10 1-25-2-33-11 22-28 36-60 37" id="W"/><path fill="#232f3e" d="M85-194c31 0 48 13 60 33l-1-100h32l1 261h-30c-2-10 0-23-3-31C134-8 116 4 85 4 32 4 16-35 15-94c0-66 23-100 70-100zm9 24c-40 0-46 34-46 75 0 40 6 74 45 74 42 0 51-32 51-76 0-42-9-74-50-73" id="X"/><g id="h"><use transform="matrix(0.05,0,0,0.05,0,0)" xlink:href="#T"/><use transform="matrix(0.05,0,0,0.05,12.950000000000001,0)" xlink:href="#U"/><use transform="matrix(0.05,0,0,0.05,16.900000000000002,0)" xlink:href="#V"/><use transform="matrix(0.05,0,0,0.05,26.900000000000002,0)" xlink:href="#W"/><use transform="matrix(0.05,0,0,0.05,36.900000000000006,0)" xlink:href="#X"/></g><path d="M24 0v-261h32V0H24" id="Y"/><path d="M100-194c62-1 85 37 85 99 1 63-27 99-86 99S16-35 15-95c0-66 28-99 85-99zM99-20c44 1 53-31 53-75 0-43-8-75-51-75s-53 32-53 75 10 74 51 75" id="Z"/><path d="M96-169c-40 0-48 33-48 73s9 75 48 75c24 0 41-14 43-38l32 2c-6 37-31 61-74 61-59 0-76-41-82-99-10-93 101-131 147-64 4 7 5 14 7 22l-32 3c-4-21-16-35-41-35" id="aa"/><path d="M141-36C126-15 110 5 73 4 37 3 15-17 15-53c-1-64 63-63 125-63 3-35-9-54-41-54-24 1-41 7-42 31l-33-3c5-37 33-52 76-52 45 0 72 20 72 64v82c-1 20 7 32 28 27v20c-31 9-61-2-59-35zM48-53c0 20 12 33 32 33 41-3 63-29 60-74-43 2-92-5-92 41" id="ab"/><path d="M106-169C34-169 62-67 57 0H25v-261h32l-1 103c12-21 28-36 61-36 89 0 53 116 60 194h-32v-121c2-32-8-49-39-48" id="ac"/><path d="M135-143c-3-34-86-38-87 0 15 53 115 12 119 90S17 21 10-45l28-5c4 36 97 45 98 0-10-56-113-15-118-90-4-57 82-63 122-42 12 7 21 19 24 35" id="ad"/><path d="M59-47c-2 24 18 29 38 22v24C64 9 27 4 27-40v-127H5v-23h24l9-43h21v43h35v23H59v120" id="ae"/><path d="M33-154v-36h34v36H33zM33 0v-36h34V0H33" id="af"/><path d="M126-127c33 6 58 20 58 59 0 88-139 92-164 29-3-8-5-16-6-25l32-3c6 27 21 44 54 44 32 0 52-15 52-46 0-38-36-46-79-43v-28c39 1 72-4 72-42 0-27-17-43-46-43-28 0-47 15-49 41l-32-3c6-42 35-63 81-64 48-1 79 21 79 65 0 36-21 52-52 59" id="ag"/><path d="M101-251c68 0 85 55 85 127S166 4 100 4C33 4 14-52 14-124c0-73 17-127 87-127zm-1 229c47 0 54-49 54-102s-4-102-53-102c-51 0-55 48-55 102 0 53 5 102 54 102" id="ah"/><g id="i"><use transform="matrix(0.05,0,0,0.05,0,0)" xlink:href="#Y"/><use transform="matrix(0.05,0,0,0.05,3.95,0)" xlink:href="#Z"/><use transform="matrix(0.05,0,0,0.05,13.949999999999998,0)" xlink:href="#aa"/><use transform="matrix(0.05,0,0,0.05,22.95,0)" xlink:href="#ab"/><use transform="matrix(0.05,0,0,0.05,32.95,0)" xlink:href="#Y"/><use transform="matrix(0.05,0,0,0.05,36.900000000000006,0)" xlink:href="#ac"/><use transform="matrix(0.05,0,0,0.05,46.900000000000006,0)" xlink:href="#Z"/><use transform="matrix(0.05,0,0,0.05,56.900000000000006,0)" xlink:href="#ad"/><use transform="matrix(0.05,0,0,0.05,65.9,0)" xlink:href="#ae"/><use transform="matrix(0.05,0,0,0.05,70.9,0)" xlink:href="#af"/><use transform="matrix(0.05,0,0,0.05,75.9,0)" xlink:href="#ag"/><use transform="matrix(0.05,0,0,0.05,85.9,0)" xlink:href="#ah"/><use transform="matrix(0.05,0,0,0.05,95.9,0)" xlink:href="#ah"/><use transform="matrix(0.05,0,0,0.05,105.9,0)" xlink:href="#ah"/></g><path d="M127-220V0H93v-220H8v-28h204v28h-85" id="ai"/><path d="M100-194c63 0 86 42 84 106H49c0 40 14 67 53 68 26 1 43-12 49-29l28 8c-11 28-37 45-77 45C44 4 14-33 15-96c1-61 26-98 85-98zm52 81c6-60-76-77-97-28-3 7-6 17-6 28h103" id="aj"/><path d="M115-194c55 1 70 41 70 98S169 2 115 4C84 4 66-9 55-30l1 105H24l-1-265h31l2 30c10-21 28-34 59-34zm-8 174c40 0 45-34 45-75s-6-73-45-74c-42 0-51 32-51 76 0 43 10 73 51 73" id="ak"/><path d="M114-163C36-179 61-72 57 0H25l-1-190h30c1 12-1 29 2 39 6-27 23-49 58-41v29" id="al"/><g id="j"><use transform="matrix(0.05,0,0,0.05,0,0)" xlink:href="#ai"/><use transform="matrix(0.05,0,0,0.05,8.950000000000001,0)" xlink:href="#aj"/><use transform="matrix(0.05,0,0,0.05,18.950000000000003,0)" xlink:href="#Y"/><use transform="matrix(0.05,0,0,0.05,22.900000000000002,0)" xlink:href="#aj"/><use transform="matrix(0.05,0,0,0.05,32.900000000000006,0)" xlink:href="#ak"/><use transform="matrix(0.05,0,0,0.05,42.900000000000006,0)" xlink:href="#Z"/><use transform="matrix(0.05,0,0,0.05,52.900000000000006,0)" xlink:href="#al"/><use transform="matrix(0.05,0,0,0.05,58.85,0)" xlink:href="#ae"/></g><path d="M30-248c87 1 191-15 191 75 0 78-77 80-158 76V0H30v-248zm33 125c57 0 124 11 124-50 0-59-68-47-124-48v98" id="am"/><path d="M141 0L90-78 38 0H4l68-98-65-92h35l48 74 47-74h35l-64 92 68 98h-35" id="an"/><path d="M179-190L93 31C79 59 56 82 12 73V49c39 6 53-20 64-50L1-190h34L92-34l54-156h33" id="ao"/><path d="M68-38c1 34 0 65-14 84H32c9-13 17-26 17-46H33v-38h35" id="ap"/><g id="k"><use transform="matrix(0.05,0,0,0.05,0,0)" xlink:href="#am"/><use transform="matrix(0.05,0,0,0.05,12,0)" xlink:href="#al"/><use transform="matrix(0.05,0,0,0.05,17.95,0)" xlink:href="#Z"/><use transform="matrix(0.05,0,0,0.05,27.950000000000003,0)" xlink:href="#an"/><use transform="matrix(0.05,0,0,0.05,36.95,0)" xlink:href="#ao"/><use transform="matrix(0.05,0,0,0.05,44.6,0)" xlink:href="#ap"/></g><path d="M205 0l-28-72H64L36 0H1l101-248h38L239 0h-34zm-38-99l-47-123c-12 45-31 82-46 123h93" id="aq"/><path d="M84 4C-5 8 30-112 23-190h32v120c0 31 7 50 39 49 72-2 45-101 50-169h31l1 190h-30c-1-10 1-25-2-33-11 22-28 36-60 37" id="ar"/><g id="l"><use transform="matrix(0.05,0,0,0.05,0,0)" xlink:href="#aq"/><use transform="matrix(0.05,0,0,0.05,12,0)" xlink:href="#ar"/><use transform="matrix(0.05,0,0,0.05,22,0)" xlink:href="#ae"/><use transform="matrix(0.05,0,0,0.05,27,0)" xlink:href="#ac"/></g><path d="M234-2c-28 10-62 0-77-18C117 19 8 12 13-65c3-43 29-61 60-76-25-40-17-114 47-108 35 3 59 15 59 50 0 44-40 53-71 69 14 26 32 50 51 72 14-21 24-43 30-72l26 8c-9 33-21 57-38 82 13 13 33 22 57 15v23zM97-151c25-10 52-18 56-48-1-18-13-29-33-29-42 0-39 50-23 77zM42-66c-3 51 71 58 98 28-20-24-41-51-56-80-23 10-40 24-42 52" id="as"/><use transform="matrix(0.05,0,0,0.05,0,0)" xlink:href="#as" id="m"/><g id="n"><use transform="matrix(0.05,0,0,0.05,0,0)" xlink:href="#aq"/><use transform="matrix(0.05,0,0,0.05,12,0)" xlink:href="#ak"/><use transform="matrix(0.05,0,0,0.05,22,0)" xlink:href="#ak"/></g><g id="o"><use transform="matrix(0.05,0,0,0.05,0,0)" xlink:href="#am"/><use transform="matrix(0.05,0,0,0.05,12,0)" xlink:href="#al"/><use transform="matrix(0.05,0,0,0.05,17.95,0)" xlink:href="#Z"/><use transform="matrix(0.05,0,0,0.05,27.950000000000003,0)" xlink:href="#aa"/><use transform="matrix(0.05,0,0,0.05,36.95,0)" xlink:href="#aj"/><use transform="matrix(0.05,0,0,0.05,46.95,0)" xlink:href="#ad"/><use transform="matrix(0.05,0,0,0.05,55.95,0)" xlink:href="#ad"/></g><path fill="#5a6c86" d="M106-169C34-169 62-67 57 0H25v-261h32l-1 103c12-21 28-36 61-36 89 0 53 116 60 194h-32v-121c2-32-8-49-39-48" id="at"/><path fill="#5a6c86" d="M59-47c-2 24 18 29 38 22v24C64 9 27 4 27-40v-127H5v-23h24l9-43h21v43h35v23H59v120" id="au"/><path fill="#5a6c86" d="M115-194c55 1 70 41 70 98S169 2 115 4C84 4 66-9 55-30l1 105H24l-1-265h31l2 30c10-21 28-34 59-34zm-8 174c40 0 45-34 45-75s-6-73-45-74c-42 0-51 32-51 76 0 43 10 73 51 73" id="av"/><path fill="#5a6c86" d="M135-143c-3-34-86-38-87 0 15 53 115 12 119 90S17 21 10-45l28-5c4 36 97 45 98 0-10-56-113-15-118-90-4-57 82-63 122-42 12 7 21 19 24 35" id="aw"/><path fill="#5a6c86" d="M33-154v-36h34v36H33zM33 0v-36h34V0H33" id="ax"/><path fill="#5a6c86" d="M0 4l72-265h28L28 4H0" id="ay"/><path fill="#5a6c86" d="M100-194c63 0 86 42 84 106H49c0 40 14 67 53 68 26 1 43-12 49-29l28 8c-11 28-37 45-77 45C44 4 14-33 15-96c1-61 26-98 85-98zm52 81c6-60-76-77-97-28-3 7-6 17-6 28h103" id="az"/><path fill="#5a6c86" d="M24 0v-261h32V0H24" id="aA"/><path fill="#5a6c86" d="M100-194c62-1 85 37 85 99 1 63-27 99-86 99S16-35 15-95c0-66 28-99 85-99zM99-20c44 1 53-31 53-75 0-43-8-75-51-75s-53 32-53 75 10 74 51 75" id="aB"/><path fill="#5a6c86" d="M114-163C36-179 61-72 57 0H25l-1-190h30c1 12-1 29 2 39 6-27 23-49 58-41v29" id="aC"/><path fill="#5a6c86" d="M33 0v-38h34V0H33" id="aD"/><path fill="#5a6c86" d="M141-36C126-15 110 5 73 4 37 3 15-17 15-53c-1-64 63-63 125-63 3-35-9-54-41-54-24 1-41 7-42 31l-33-3c5-37 33-52 76-52 45 0 72 20 72 64v82c-1 20 7 32 28 27v20c-31 9-61-2-59-35zM48-53c0 20 12 33 32 33 41-3 63-29 60-74-43 2-92-5-92 41" id="aE"/><path fill="#5a6c86" d="M96-169c-40 0-48 33-48 73s9 75 48 75c24 0 41-14 43-38l32 2c-6 37-31 61-74 61-59 0-76-41-82-99-10-93 101-131 147-64 4 7 5 14 7 22l-32 3c-4-21-16-35-41-35" id="aF"/><path fill="#5a6c86" d="M210-169c-67 3-38 105-44 169h-31v-121c0-29-5-50-35-48C34-165 62-65 56 0H25l-1-190h30c1 10-1 24 2 32 10-44 99-50 107 0 11-21 27-35 58-36 85-2 47 119 55 194h-31v-121c0-29-5-49-35-48" id="aG"/><g id="p"><use transform="matrix(0.05,0,0,0.05,0,0)" xlink:href="#at"/><use transform="matrix(0.05,0,0,0.05,10,0)" xlink:href="#au"/><use transform="matrix(0.05,0,0,0.05,15,0)" xlink:href="#au"/><use transform="matrix(0.05,0,0,0.05,20,0)" xlink:href="#av"/><use transform="matrix(0.05,0,0,0.05,30,0)" xlink:href="#aw"/><use transform="matrix(0.05,0,0,0.05,39,0)" xlink:href="#ax"/><use transform="matrix(0.05,0,0,0.05,44,0)" xlink:href="#ay"/><use transform="matrix(0.05,0,0,0.05,49,0)" xlink:href="#ay"/><use transform="matrix(0.05,0,0,0.05,54,0)" xlink:href="#au"/><use transform="matrix(0.05,0,0,0.05,59,0)" xlink:href="#az"/><use transform="matrix(0.05,0,0,0.05,69,0)" xlink:href="#aA"/><use transform="matrix(0.05,0,0,0.05,72.95,0)" xlink:href="#az"/><use transform="matrix(0.05,0,0,0.05,82.95,0)" xlink:href="#av"/><use transform="matrix(0.05,0,0,0.05,92.95,0)" xlink:href="#aB"/><use transform="matrix(0.05,0,0,0.05,102.95,0)" xlink:href="#aC"/><use transform="matrix(0.05,0,0,0.05,108.9,0)" xlink:href="#au"/><use transform="matrix(0.05,0,0,0.05,113.9,0)" xlink:href="#aD"/><use transform="matrix(0.05,0,0,0.05,118.9,0)" xlink:href="#aE"/><use transform="matrix(0.05,0,0,0.05,128.9,0)" xlink:href="#aF"/><use transform="matrix(0.05,0,0,0.05,137.9,0)" xlink:href="#aG"/><use transform="matrix(0.05,0,0,0.05,152.85,0)" xlink:href="#az"/><use transform="matrix(0.05,0,0,0.05,162.85,0)" xlink:href="#aD"/><use transform="matrix(0.05,0,0,0.05,167.85,0)" xlink:href="#aF"/><use transform="matrix(0.05,0,0,0.05,176.85,0)" xlink:href="#aB"/><use transform="matrix(0.05,0,0,0.05,186.85,0)" xlink:href="#aG"/></g><path d="M33 0v-248h34V0H33" id="aH"/><path d="M117-194c89-4 53 116 60 194h-32v-121c0-31-8-49-39-48C34-167 62-67 57 0H25l-1-190h30c1 10-1 24 2 32 11-22 29-35 61-36" id="aI"/><g id="q"><use transform="matrix(0.05,0,0,0.05,0,0)" xlink:href="#aH"/><use transform="matrix(0.05,0,0,0.05,5,0)" xlink:href="#aI"/><use transform="matrix(0.05,0,0,0.05,15,0)" xlink:href="#ae"/><use transform="matrix(0.05,0,0,0.05,20,0)" xlink:href="#aj"/><use transform="matrix(0.05,0,0,0.05,30,0)" xlink:href="#al"/><use transform="matrix(0.05,0,0,0.05,35.95,0)" xlink:href="#aI"/><use transform="matrix(0.05,0,0,0.05,45.95,0)" xlink:href="#ab"/><use transform="matrix(0.05,0,0,0.05,55.95,0)" xlink:href="#Y"/></g><path d="M30-248c118-7 216 8 213 122C240-48 200 0 122 0H30v-248zM63-27c89 8 146-16 146-99s-60-101-146-95v194" id="aJ"/><path d="M115-194c53 0 69 39 70 98 0 66-23 100-70 100C84 3 66-7 56-30L54 0H23l1-261h32v101c10-23 28-34 59-34zm-8 174c40 0 45-34 45-75 0-40-5-75-45-74-42 0-51 32-51 76 0 43 10 73 51 73" id="aK"/><path d="M85-194c31 0 48 13 60 33l-1-100h32l1 261h-30c-2-10 0-23-3-31C134-8 116 4 85 4 32 4 16-35 15-94c0-66 23-100 70-100zm9 24c-40 0-46 34-46 75 0 40 6 74 45 74 42 0 51-32 51-76 0-42-9-74-50-73" id="aL"/><g id="r"><use transform="matrix(0.05,0,0,0.05,0,0)" xlink:href="#aJ"/><use transform="matrix(0.05,0,0,0.05,12.950000000000001,0)" xlink:href="#ab"/><use transform="matrix(0.05,0,0,0.05,22.950000000000003,0)" xlink:href="#ad"/><use transform="matrix(0.05,0,0,0.05,31.950000000000003,0)" xlink:href="#ac"/><use transform="matrix(0.05,0,0,0.05,41.95,0)" xlink:href="#aK"/><use transform="matrix(0.05,0,0,0.05,51.95,0)" xlink:href="#Z"/><use transform="matrix(0.05,0,0,0.05,61.95,0)" xlink:href="#ab"/><use transform="matrix(0.05,0,0,0.05,71.95,0)" xlink:href="#al"/><use transform="matrix(0.05,0,0,0.05,77.9,0)" xlink:href="#aL"/></g><path d="M24-231v-30h32v30H24zM24 0v-190h32V0H24" id="aM"/><path d="M177-190C167-65 218 103 67 71c-23-6-38-20-44-43l32-5c15 47 100 32 89-28v-30C133-14 115 1 83 1 29 1 15-40 15-95c0-56 16-97 71-98 29-1 48 16 59 35 1-10 0-23 2-32h30zM94-22c36 0 50-32 50-73 0-42-14-75-50-75-39 0-46 34-46 75s6 73 46 73" id="aN"/><g id="s"><use transform="matrix(0.05,0,0,0.05,0,0)" xlink:href="#ai"/><use transform="matrix(0.05,0,0,0.05,8.950000000000001,0)" xlink:href="#Z"/><use transform="matrix(0.05,0,0,0.05,18.950000000000003,0)" xlink:href="#Z"/><use transform="matrix(0.05,0,0,0.05,28.950000000000003,0)" xlink:href="#Y"/><use transform="matrix(0.05,0,0,0.05,32.900000000000006,0)" xlink:href="#aM"/><use transform="matrix(0.05,0,0,0.05,36.85000000000001,0)" xlink:href="#aI"/><use transform="matrix(0.05,0,0,0.05,46.85000000000001,0)" xlink:href="#aN"/></g><path fill="#5a6c86" d="M212-179c-10-28-35-45-73-45-59 0-87 40-87 99 0 60 29 101 89 101 43 0 62-24 78-52l27 14C228-24 195 4 139 4 59 4 22-46 18-125c-6-104 99-153 187-111 19 9 31 26 39 46" id="aO"/><g id="t"><use transform="matrix(0.05,0,0,0.05,0,0)" xlink:href="#aO"/><use transform="matrix(0.05,0,0,0.05,12.950000000000001,0)" xlink:href="#aB"/><use transform="matrix(0.05,0,0,0.05,22.950000000000003,0)" xlink:href="#aC"/><use transform="matrix(0.05,0,0,0.05,28.900000000000002,0)" xlink:href="#av"/><use transform="matrix(0.05,0,0,0.05,38.900000000000006,0)" xlink:href="#aB"/><use transform="matrix(0.05,0,0,0.05,48.900000000000006,0)" xlink:href="#aC"/><use transform="matrix(0.05,0,0,0.05,54.85,0)" xlink:href="#aE"/><use transform="matrix(0.05,0,0,0.05,64.85000000000001,0)" xlink:href="#au"/><use transform="matrix(0.05,0,0,0.05,69.85000000000001,0)" xlink:href="#az"/></g><path fill="#5a6c86" d="M30-248c118-7 216 8 213 122C240-48 200 0 122 0H30v-248zM63-27c89 8 146-16 146-99s-60-101-146-95v194" id="aP"/><g id="u"><use transform="matrix(0.05,0,0,0.05,0,0)" xlink:href="#aP"/><use transform="matrix(0.05,0,0,0.05,12.950000000000001,0)" xlink:href="#aE"/><use transform="matrix(0.05,0,0,0.05,22.950000000000003,0)" xlink:href="#au"/><use transform="matrix(0.05,0,0,0.05,27.950000000000003,0)" xlink:href="#aE"/></g><path fill="#5a6c86" d="M117-194c89-4 53 116 60 194h-32v-121c0-31-8-49-39-48C34-167 62-67 57 0H25l-1-190h30c1 10-1 24 2 32 11-22 29-35 61-36" id="aQ"/><g id="v"><use transform="matrix(0.05,0,0,0.05,0,0)" xlink:href="#aO"/><use transform="matrix(0.05,0,0,0.05,12.950000000000001,0)" xlink:href="#az"/><use transform="matrix(0.05,0,0,0.05,22.950000000000003,0)" xlink:href="#aQ"/><use transform="matrix(0.05,0,0,0.05,32.95,0)" xlink:href="#au"/><use transform="matrix(0.05,0,0,0.05,37.95,0)" xlink:href="#az"/><use transform="matrix(0.05,0,0,0.05,47.95,0)" xlink:href="#aC"/></g><path d="M27 0v-27h64v-190l-56 39v-29l58-41h29v221h61V0H27" id="aR"/><g id="w"><use transform="matrix(0.05,0,0,0.05,0,0)" xlink:href="#Y"/><use transform="matrix(0.05,0,0,0.05,3.95,0)" xlink:href="#Z"/><use transform="matrix(0.05,0,0,0.05,13.949999999999998,0)" xlink:href="#aa"/><use transform="matrix(0.05,0,0,0.05,22.95,0)" xlink:href="#ab"/><use transform="matrix(0.05,0,0,0.05,32.95,0)" xlink:href="#Y"/><use transform="matrix(0.05,0,0,0.05,36.900000000000006,0)" xlink:href="#ac"/><use transform="matrix(0.05,0,0,0.05,46.900000000000006,0)" xlink:href="#Z"/><use transform="matrix(0.05,0,0,0.05,56.900000000000006,0)" xlink:href="#ad"/><use transform="matrix(0.05,0,0,0.05,65.9,0)" xlink:href="#ae"/><use transform="matrix(0.05,0,0,0.05,70.9,0)" xlink:href="#af"/><use transform="matrix(0.05,0,0,0.05,75.9,0)" xlink:href="#ag"/><use transform="matrix(0.05,0,0,0.05,85.9,0)" xlink:href="#ah"/><use transform="matrix(0.05,0,0,0.05,95.9,0)" xlink:href="#aR"/><use transform="matrix(0.05,0,0,0.05,105.9,0)" xlink:href="#ah"/></g><path d="M140-251c81 0 123 46 123 126C263-46 219 4 140 4 59 4 17-45 17-125s42-126 123-126zm0 227c63 0 89-41 89-101s-29-99-89-99c-61 0-89 39-89 99S79-25 140-24" id="aS"/><g id="x"><use transform="matrix(0.05,0,0,0.05,0,0)" xlink:href="#aS"/><use transform="matrix(0.05,0,0,0.05,14,0)" xlink:href="#ae"/><use transform="matrix(0.05,0,0,0.05,19,0)" xlink:href="#ac"/><use transform="matrix(0.05,0,0,0.05,29,0)" xlink:href="#aj"/><use transform="matrix(0.05,0,0,0.05,39,0)" xlink:href="#al"/></g><g id="y"><use transform="matrix(0.05,0,0,0.05,0,0)" xlink:href="#aq"/><use transform="matrix(0.05,0,0,0.05,12,0)" xlink:href="#ak"/><use transform="matrix(0.05,0,0,0.05,22,0)" xlink:href="#ak"/></g></defs></g></svg>