<svg height="530" viewBox="0 0 281 530" width="281" xmlns="http://www.w3.org/2000/svg" xmlns:xlink="http://www.w3.org/1999/xlink"><defs><rect id="a" height="270" rx="10" width="249" x="16" y="8"/><filter id="b" height="120.7%" width="122.5%" x="-11.2%" y="-7.4%"><feOffset dx="0" dy="8" in="SourceAlpha" result="shadowOffsetOuter1"/><feGaussianBlur in="shadowOffsetOuter1" result="shadowBlurOuter1" stdDeviation="8"/><feColorMatrix in="shadowBlurOuter1" type="matrix" values="0 0 0 0 0   0 0 0 0 0   0 0 0 0 0  0 0 0 0.103742074 0"/></filter><filter id="c" height="125.5%" width="121.1%" x="-10.5%" y="-6.4%"><feOffset dx="0" dy="1" in="SourceAlpha" result="shadowOffsetOuter1"/><feGaussianBlur in="shadowOffsetOuter1" result="shadowBlurOuter1" stdDeviation=".5"/><feColorMatrix in="shadowBlurOuter1" result="shadowMatrixOuter1" type="matrix" values="0 0 0 0 0   0 0 0 0 0   0 0 0 0 0  0 0 0 0.5 0"/><feMerge><feMergeNode in="shadowMatrixOuter1"/><feMergeNode in="SourceGraphic"/></feMerge></filter><rect id="d" height="141" rx="10" width="171"/><filter id="e" height="139.7%" width="132.7%" x="-16.4%" y="-14.2%"><feOffset dx="0" dy="8" in="SourceAlpha" result="shadowOffsetOuter1"/><feGaussianBlur in="shadowOffsetOuter1" result="shadowBlurOuter1" stdDeviation="8"/><feColorMatrix in="shadowBlurOuter1" type="matrix" values="0 0 0 0 0   0 0 0 0 0   0 0 0 0 0  0 0 0 0.103742074 0"/></filter><filter id="f" height="110%" width="103.4%" x="-1.7%" y="-3.6%"><feOffset dx="0" dy="1" in="SourceAlpha" result="shadowOffsetOuter1"/><feGaussianBlur in="shadowOffsetOuter1" result="shadowBlurOuter1" stdDeviation="1"/><feColorMatrix in="shadowBlurOuter1" result="shadowMatrixOuter1" type="matrix" values="0 0 0 0 0   0 0 0 0 0   0 0 0 0 0  0 0 0 0.5 0"/><feMerge><feMergeNode in="shadowMatrixOuter1"/><feMergeNode in="SourceGraphic"/></feMerge></filter></defs><g fill="none" fill-rule="evenodd"><use fill="#000" filter="url(#b)" xlink:href="#a"/><use fill="#fff" fill-rule="evenodd" xlink:href="#a"/><text fill="#4a4a4a" font-family="HelveticaNeue-Medium, Helvetica Neue" font-size="12" font-weight="400" transform="translate(31 226)"><tspan x="25.374" y="12.478261">Recorded</tspan><tspan x="27.486" y="27.478261">Sessions</tspan></text><g filter="url(#c)" transform="translate(57 364)"><use fill="#000" filter="url(#e)" xlink:href="#d"/><use fill="#fff" fill-rule="evenodd" xlink:href="#d"/></g><g transform="translate(87 384)"><path d="m23.908 80.208c-.0853338-.3306683-.2026659-.6346653-.352-.912s-.3413322-.5173323-.576-.72-.5093318-.3599994-.824-.472-.6799979-.168-1.096-.168c-.608003 0-1.1333311.1226654-1.576.368s-.8026653.5733313-1.08.984-.482666.8773307-.616 1.4-.2 1.0559973-.2 1.6.066666 1.0773307.2 1.6.3386653.9893313.616 1.4.6373311.7386654 1.08.984.967997.368 1.576.368c.4480022 0 .842665-.0773326 1.184-.232s.6346654-.3679986.88-.64.4373326-.5893315.576-.952.2293331-.7519979.272-1.168h1.952c-.0426669.6826701-.1893321 1.3066638-.44 1.872s-.5893312 1.0533313-1.016 1.464-.9279971.7279989-1.504.952-1.2106632.336-1.904.336c-.8533376 0-1.6186633-.1573318-2.296-.472s-1.2506643-.7439973-1.72-1.288-.8293321-1.178663-1.08-1.904-.376-1.4986626-.376-2.32c0-.8106707.1253321-1.578663.376-2.304s.6106643-1.3599973 1.08-1.904 1.0426633-.9759984 1.72-1.296 1.4426624-.48 2.296-.48c.6400032 0 1.2426638.0879991 1.808.264s1.0639978.4319983 1.496.768.781332.7439976 1.048 1.224.4319997 1.0293302.496 1.648zm3.84-3.632h2v9.696h5.808v1.728h-7.808zm9.184 0h2v11.424h-2zm11.952 0h2.128l4.4 11.424h-2.144l-1.072-3.024h-4.56l-1.072 3.024h-2.064zm-.704 6.88h3.488l-1.712-4.912h-.048zm15.856 4.544h-1.728v-1.12h-.032c-.2453346.4800024-.6026643.823999-1.072 1.032s-.9653307.312-1.488.312c-.6506699 0-1.2186642-.1146655-1.704-.344s-.8879984-.5413314-1.208-.936-.5599992-.8613306-.72-1.4-.24-1.1173302-.24-1.736c0-.7466704.1013323-1.3919973.304-1.936s.4719983-.9919982.808-1.344.7199978-.6106658 1.152-.776.8719978-.248 1.32-.248c.2560013 0 .517332.0239998.784.072s.5226654.1253328.768.232.471999.2426658.68.408.3813326.3599989.52.584h.032v-4.224h1.824zm-6.368-4.048c0 .3520018.0453329.698665.136 1.04s.2293324.645332.416.912.4239986.4799992.712.64.6293314.24 1.024.24c.4053354 0 .7546652-.0853325 1.048-.256s.5333324-.3946653.72-.672.3253329-.5893316.416-.936.136-.7013315.136-1.064c0-.9173379-.2053313-1.6319974-.616-2.144s-.9679965-.768-1.672-.768c-.4266688 0-.7866652.0879991-1.08.264s-.5333324.4053319-.72.688-.3199996.6026649-.4.96-.12.7226648-.12 1.096zm8.352-4.224h1.728v1.152h.048c.1386674-.2026677.2879992-.3893325.448-.56s.3386657-.3146661.536-.432.4239987-.2106663.68-.28.5493317-.104.88-.104c.5013358 0 .9679978.1119989 1.4.336s.7386658.5706643.92 1.04c.3093349-.4266688.6666646-.7626654 1.072-1.008s.911997-.368 1.52-.368c.874671 0 1.5546642.2133312 2.04.64s.728 1.1413283.728 2.144v5.712h-1.824v-4.832c0-.3306683-.0106666-.6319986-.032-.904s-.0826662-.5066657-.184-.704-.2533323-.3493328-.456-.456-.4799982-.16-.832-.16c-.6186698 0-1.0666653.1919981-1.344.576s-.416.9279965-.416 1.632v4.848h-1.824v-5.312c0-.5760029-.103999-1.0106652-.312-1.304s-.5893306-.44-1.144-.44c-.2346678 0-.4613322.0479995-.68.144s-.4106658.2346658-.576.416-.2986662.405332-.4.672-.152.570665-.152.912v4.912h-1.824zm13.968-3.152h1.824v1.728h-1.824zm0 3.152h1.824v8.272h-1.824zm3.808 0h1.728v1.216l.032.032c.2773347-.458669.6399978-.8186654 1.088-1.08s.9439973-.392 1.488-.392c.9066712 0 1.6213307.2346643 2.144.704s.784 1.1733286.784 2.112v5.68h-1.824v-5.2c-.0213334-.6506699-.1599987-1.1226652-.416-1.416s-.6559973-.44-1.2-.44c-.3093349 0-.5866654.0559994-.832.168s-.4533325.2666657-.624.464-.3039995.429332-.4.696-.144.5493318-.144.848v4.88h-1.824z" fill="#4a4a4a"/><path d="m0 0h106v63h-106z" fill="#4a4a4a" fill-rule="evenodd"/><path d="m.25.25h105.5v62.5h-105.5z" stroke="#4a4a4a" stroke-width=".5"/><path d="m0 0h106v8h-106z" fill="#d8d8d8"/><g fill="#4a4a4a"><circle cx="24" cy="4" r="3"/><circle cx="15" cy="4" r="3"/><circle cx="7" cy="4" r="3"/><path d="m14 43h26v8h-26z"/></g><path d="m14.3037109 32.8671875-5.83593746-3.234375c-.29297022-.1640633-.48779249-.3105462-.58447266-.4394531s-.14501953-.2929678-.14501953-.4921875c0-.2519544.0908194-.4687491.27246094-.6503907.18164153-.1816415.39550658-.2724609.64160156-.2724609.15234451 0 .38671717.0849601.703125.2548828l8.69238285 4.8339844-8.69238285 4.8339844c-.31640783.1757821-.55078049.2636719-.703125.2636719-.24609498 0-.45996003-.0908195-.64160156-.272461-.18164154-.1816415-.27246094-.4013659-.27246094-.6591797 0-.1992197.04833936-.3632806.14501953-.4921875s.29150244-.2753898.58447266-.4394531zm19.256836-1.0458984v3.6123047c0 .3867206.0791007.6416009.2373047.7646484.2460949.1933603.6855437.290039 1.3183593.290039.9199265 0 1.7695274-.196287 2.5488282-.5888671.2988296-.1523445.5332022-.2285157.703125-.2285157.2343761 0 .4379874.0878898.6108398.2636719s.2592773.3896472.2592773.6416016c0 .2343761-.093749.4365226-.28125.6064453-.2871108.275392-.8539996.5288074-1.7006835.7602539-.846684.2314465-1.5600557.347168-2.1401368.347168-1.1191462 0-1.9584933-.2416968-2.5180664-.7250977-.5595731-.4834008-.8393554-1.0766566-.8393554-1.7797852v-3.9638671h-.6503907c-.4335959 0-.7426748-.0834953-.9272461-.2504883-.1845712-.166993-.2768554-.3852526-.2768554-.6547852 0-.2636732.0922842-.479003.2768554-.6459961.1845713-.166993.4936502-.2504883.9272461-.2504883h.6503907v-1.6259765c0-.4335959.0834952-.7426749.2504882-.9272461.1669931-.1845712.3852526-.2768555.6547852-.2768555.2636732 0 .4790031.0922843.6459961.2768555s.2504883.4936502.2504883.9272461v1.6259765h3.3310547c.4335959 0 .7426748.0834953.9272461.2504883.1845712.1669931.2768554.3852526.2768554.6547852 0 .2636732-.0922842.4790031-.2768554.6459961-.1845713.166993-.4936502.2504883-.9272461.2504883zm14.0537109-1.4765625c.216798-.2050792.439452-.3076172.6679688-.3076172.2578138 0 .470214.0922842.637207.2768554.166993.1845713.2504883.4907206.2504883.9184571v1.1601562c0 .4335959-.0834953.7412101-.2504883.9228516s-.3852526.2724609-.6547852.2724609c-.2460949 0-.4541007-.0703118-.6240234-.2109375-.1230475-.1054693-.2197262-.3207991-.2900391-.6459961-.0703128-.3251969-.240233-.5668937-.5097656-.7250976-.4746117-.2812514-1.081051-.421875-1.8193359-.421875-.8496136 0-1.5307592.2490209-2.0434571.7470703-.5126978.4980494-.7690429 1.1279259-.7690429 1.8896484 0 .7031285.2460913 1.2582988.7382812 1.6655274.49219.4072286 1.3095646.6108398 2.4521485.6108398.7500037 0 1.3623023-.0761711 1.836914-.2285156.2812514-.0937505.5478503-.2534169.7998047-.4790039.2519544-.2255871.4804677-.3383789.6855469-.3383789.246095 0 .4584952.0908194.637207.2724609s.2680664.3955066.2680664.6416016c0 .3984395-.2724582.7763654-.8173828 1.133789-.8085978.5332058-1.9921797.7998047-3.5507812.7998047-1.4003977 0-2.4902305-.2900361-3.2695313-.8701172-1.0546928-.7793007-1.5820312-1.8456963-1.5820312-3.1992187 0-1.2832096.4277301-2.3452107 1.2832031-3.1860352s1.9716728-1.2612304 3.3486328-1.2612304c.4980494 0 .9609354.0468745 1.3886719.140625.4277365.0937504.8232403.234374 1.1865234.421875zm7.5498047 1.4765625v3.6123047c0 .3867206.0791008.6416009.2373047.7646484.246095.1933603.6855437.290039 1.3183594.290039.9199264 0 1.7695273-.196287 2.5488281-.5888671.2988296-.1523445.5332023-.2285157.703125-.2285157.2343762 0 .4379874.0878898.6108398.2636719.1728525.1757821.2592774.3896472.2592774.6416016 0 .2343761-.0937491.4365226-.28125.6064453-.2871108.275392-.8539997.5288074-1.7006836.7602539s-1.5600557.347168-2.1401367.347168c-1.1191463 0-1.9584933-.2416968-2.5180664-.7250977-.5595732-.4834008-.8393555-1.0766566-.8393555-1.7797852v-3.9638671h-.6503906c-.433596 0-.7426749-.0834953-.9272461-.2504883-.1845713-.166993-.2768555-.3852526-.2768555-.6547852 0-.2636732.0922842-.479003.2768555-.6459961.1845712-.166993.4936501-.2504883.9272461-.2504883h.6503906v-1.6259765c0-.4335959.0834952-.7426749.2504883-.9272461.166993-.1845712.3852525-.2768555.6547851-.2768555.2636732 0 .4790031.0922843.6459961.2768555s.2504883.4936502.2504883.9272461v1.6259765h3.3310547c.4335959 0 .7426748.0834953.9272461.2504883.1845712.1669931.2768555.3852526.2768555.6547852 0 .2636732-.0922843.4790031-.2768555.6459961-.1845713.166993-.4936502.2504883-.9272461.2504883zm12.1464844-5.2207032v9.5976563h2.1621093c.433596 0 .7426749.0834952.9272461.2504883.1845713.166993.2768555.3852525.2768555.6547851 0 .2636732-.0922842.4790031-.2768555.6459961-.1845712.166993-.4936501.2504883-.9272461.2504883h-6.1259765c-.4335959 0-.7426749-.0834953-.9272461-.2504883s-.2768555-.3852525-.2768555-.6547851c0-.2636732.0922843-.4790031.2768555-.6459961.1845712-.1669931.4936502-.2504883.9272461-.2504883h2.1621094v-7.7958984h-1.4501953c-.4277366 0-.7353507-.0834953-.9228516-.2504883-.1875009-.1669931-.28125-.3852526-.28125-.6547852 0-.2636732.0922842-.4790031.2768555-.6459961.1845712-.166993.4936501-.2504883.9272461-.2504883z" fill="#fff"/></g><g filter="url(#f)" transform="translate(26 27)"><rect fill="#fff" fill-rule="evenodd" height="70" rx="10" width="207"/><rect height="67" rx="10" stroke="#e1584e" stroke-width="3" width="204" x="1.5" y="1.5"/><path d="m52.785 28h9.57168v1.728h-3.75912v9.696h-2.07v-9.696h-3.74256zm14.72184 6.56c-.0220801-.2880014-.0855595-.565332-.19044-.832s-.2483991-.4986657-.43056-.696-.4029587-.3573327-.6624-.48-.5492384-.184-.8694-.184c-.3312017 0-.6320386.0559994-.90252.168s-.502319.2666657-.69552.464-.3477594.429332-.46368.696-.1793999.5546651-.19044.864zm-4.40496 1.2c0 .3200016.0469195.6293318.14076.928s.2345991.5599989.42228.784.4250386.402666.71208.536.629278.2 1.02672.2c.5520028 0 .9963583-.1146655 1.33308-.344s.5878792-.573331.75348-1.032h1.78848c-.0993605.4480022-.2704788.8479982-.51336 1.2s-.5354383.6479988-.87768.888-.7258779.4213327-1.15092.544-.8693977.184-1.33308.184c-.6734434 0-1.2695974-.1066656-1.78848-.32s-.9577182-.5119981-1.31652-.896-.6292791-.842664-.81144-1.376-.27324-1.1199968-.27324-1.76c0-.5866696.096599-1.1439974.2898-1.672s.4691982-.991998.828-1.392.7921175-.7173322 1.29996-.952 1.0819168-.352 1.72224-.352c.6734434 0 1.2778773.1359986 1.81332.408s.9797982.6319978 1.33308 1.08.6099592.9626638.77004 1.544.2014804 1.1813302.1242 1.8zm7.7832-7.76h1.88784v11.424h-1.88784zm9.82008 6.56c-.0220801-.2880014-.0855595-.565332-.19044-.832s-.2483991-.4986657-.43056-.696-.4029587-.3573327-.6624-.48-.5492384-.184-.8694-.184c-.3312017 0-.6320386.0559994-.90252.168s-.502319.2666657-.69552.464-.3477594.429332-.46368.696-.1793999.5546651-.19044.864zm-4.40496 1.2c0 .3200016.0469195.6293318.14076.928s.2345991.5599989.42228.784.4250386.402666.71208.536.629278.2 1.02672.2c.5520028 0 .9963583-.1146655 1.33308-.344s.5878792-.573331.75348-1.032h1.78848c-.0993605.4480022-.2704788.8479982-.51336 1.2s-.5354383.6479988-.87768.888-.7258779.4213327-1.15092.544-.8693977.184-1.33308.184c-.6734434 0-1.2695974-.1066656-1.78848-.32s-.9577182-.5119981-1.31652-.896-.6292791-.842664-.81144-1.376-.27324-1.1199968-.27324-1.76c0-.5866696.096599-1.1439974.2898-1.672s.4691982-.991998.828-1.392.7921175-.7173322 1.29996-.952 1.0819168-.352 1.72224-.352c.6734434 0 1.2778773.1359986 1.81332.408s.9797982.6319978 1.33308 1.08.6099592.9626638.77004 1.544.2014804 1.1813302.1242 1.8zm7.7832-4.608h1.78848v1.12h.03312c.2649613-.4800024.6347976-.823999 1.10952-1.032s.9880772-.312 1.54008-.312c.6734434 0 1.2613175.1146655 1.76364.344s.9190783.543998 1.25028.944.5795992.866664.7452 1.4.2484 1.103997.2484 1.712c0 .5546694-.0745193 1.0933307-.22356 1.616s-.3753585.983998-.67896 1.384-.6872377.7199988-1.15092.96-1.0101569.36-1.63944.36c-.2760014 0-.5519986-.0239998-.828-.072s-.5409587-.1253328-.79488-.232-.4885189-.2426658-.7038-.408-.3946793-.3599989-.5382-.584h-.03312v4.128h-1.88784zm6.59088 4.144c0-.3733352-.0496795-.7359982-.14904-1.088s-.248399-.6639986-.44712-.936-.4471185-.4906658-.7452-.656-.6403181-.248-1.02672-.248c-.794884 0-1.393798.266664-1.79676.8s-.60444 1.2426622-.60444 2.128c0 .4160021.0524395.8026649.15732 1.16s.262199.6639987.47196.92.4609185.4586659.75348.608.6320381.224 1.01844.224c.4305622 0 .7948785-.0853325 1.09296-.256s.543719-.3919986.73692-.664.3311996-.5813316.414-.928.1242-.7013315.1242-1.064zm7.40232 4.352c-.6844834 0-1.2944373-.1093322-1.82988-.328s-.9880782-.5199981-1.35792-.904-.651359-.842664-.84456-1.376-.2898-1.1199968-.2898-1.76c0-.6293365.096599-1.210664.2898-1.744s.4747182-.9919981.84456-1.376.8224773-.6853322 1.35792-.904 1.1453966-.328 1.82988-.328 1.2944373.1093322 1.82988.328c.535443.2186678.988078.5199981 1.35792.904s.651359.842664.84456 1.376.2898 1.1146635.2898 1.744c0 .6400032-.096599 1.226664-.2898 1.76s-.474718.9919981-.84456 1.376-.822477.6853322-1.35792.904c-.5354427.2186678-1.1453966.328-1.82988.328zm0-1.44c.4195221 0 .7838385-.0853325 1.09296-.256s.563039-.3946653.76176-.672.345-.5893316.43884-.936.14076-.7013315.14076-1.064c0-.3520018-.04692-.7039982-.14076-1.056s-.240119-.6639986-.43884-.936-.4526385-.4933325-.76176-.664-.6734379-.256-1.09296-.256-.7838385.0853325-1.09296.256-.563039.3919986-.76176.664-.3449995.5839982-.43884.936-.14076.7039982-.14076 1.056c0 .3626685.0469195.7173316.14076 1.064s.240119.6586653.43884.936.4526385.5013325.76176.672.6734379.256 1.09296.256zm5.89536-7.056h1.77192v1.6h.03312c.0552-.2240011.162839-.4426656.32292-.656s.353279-.4079991.5796-.584.477479-.3173328.75348-.424.557519-.16.84456-.16c.220801 0 .3726.0053333.4554.016s.16836.0213333.25668.032v1.76c-.132481-.0213334-.267719-.0399999-.40572-.056s-.273239-.024-.40572-.024c-.320162 0-.620999.0613327-.90252.184s-.527159.3039988-.73692.544-.375359.5359982-.4968.888-.18216.757331-.18216 1.216v3.936h-1.88784zm4.968 0h1.42416v-2.48h1.88784v2.48h1.70568v1.36h-1.70568v4.416c0 .192001.00828.3573326.02484.496s.0552.2559995.11592.352.151799.1679998.27324.216.287039.072.4968.072c.132481 0 .264959-.0026666.39744-.008s.264959-.0239998.39744-.056v1.408c-.209761.0213334-.413999.0426666-.61272.064s-.402959.032-.61272.032c-.496802 0-.896998-.0453329-1.2006-.136s-.540959-.2239991-.71208-.4-.28704-.397332-.34776-.664-.0966-.570665-.10764-.912v-4.88h-1.42416zm14.4072-3.152h2.20248l4.554 11.424h-2.21904l-1.10952-3.024h-4.7196l-1.10952 3.024h-2.13624zm-.72864 6.88h3.61008l-1.77192-4.912h-.04968zm15.86448 4.544h-1.85472v-1.152h-.03312c-.231841.4160021-.576838.7493321-1.035 1s-.924598.376-1.39932.376c-1.126086 0-1.940277-.2693306-2.4426-.808s-.75348-1.3519946-.75348-2.44v-5.248h1.88784v5.072c0 .725337.143519 1.2373318.43056 1.536s.689997.448 1.20888.448c.397442 0 .728639-.0586661.9936-.176s.480239-.2746657.64584-.472.28428-.4346653.35604-.712.10764-.5759984.10764-.896v-4.8h1.88784zm1.12608-8.272h1.42416v-2.48h1.88784v2.48h1.70568v1.36h-1.70568v4.416c0 .192001.00828.3573326.02484.496s.0552.2559995.11592.352.151799.1679998.27324.216.287039.072.4968.072c.132481 0 .264959-.0026666.39744-.008s.264959-.0239998.39744-.056v1.408c-.209761.0213334-.413999.0426666-.61272.064s-.402959.032-.61272.032c-.496802 0-.896998-.0453329-1.2006-.136s-.540959-.2239991-.71208-.4-.28704-.397332-.34776-.664-.0966-.570665-.10764-.912v-4.88h-1.42416zm6.3756-3.152h1.88784v4.24h.03312c.231841-.3733352.576838-.6853321 1.035-.936s.968757-.376 1.5318-.376c.938405 0 1.678077.2346643 2.21904.704s.81144 1.1733286.81144 2.112v5.68h-1.88784v-5.2c-.02208-.6506699-.165599-1.1226652-.43056-1.416s-.678957-.44-1.242-.44c-.320162 0-.607199.0559994-.86112.168s-.469199.2666657-.64584.464-.31464.429332-.414.696-.14904.5493318-.14904.848v4.88h-1.88784z" fill="#4a4a4a" fill-rule="evenodd"/></g><path d="m141 383.5v-286.023878" fill="#9b9b9b" stroke="#9b9b9b" stroke-linecap="square"/><path d="m141 97.476122-3 10.8h6z" fill="#9b9b9b" stroke="#9b9b9b" stroke-linecap="square"/><path d="m78.794 329v-9.926h-.91c-.0653337.373335-.1866658.681332-.364.924s-.3943321.433999-.651.574c-.256668.140001-.5436651.235666-.861.287s-.6439983.077-.98.077v.952h2.576v7.112zm3.416-6.412h1.19c-.0093334-.298668.0209996-.594999.091-.889s.1843325-.557666.343-.791.3616654-.422333.609-.567.5436649-.217.889-.217c.2613346 0 .5086655.042.742.126s.4363325.205333.609.364.3103328.347666.413.567.154.464332.154.735c0 .345335-.0536661.648665-.161.91s-.2659989.503999-.476.728-.4736651.445666-.791.665-.6859979.459665-1.106.721c-.3453351.205334-.6766651.424666-.994.658-.3173349.233335-.6019987.503998-.854.812s-.4596658.669665-.623 1.085-.2683331.916997-.315 1.505h6.482v-1.05h-5.096c.0560003-.308002.1749991-.580999.357-.819s.401332-.459666.658-.665c.2566679-.205334.5389985-.398999.847-.581s.6159985-.366332.924-.553c.3080015-.196001.6066652-.401332.896-.616s.5459989-.454999.77-.721.403666-.566998.539-.903.203-.723331.203-1.162c0-.466669-.0816659-.877332-.245-1.232-.1633342-.354668-.3849986-.650999-.665-.889s-.6089981-.419999-.987-.546-.7816645-.189-1.211-.189c-.5226693 0-.9893313.088666-1.4.266s-.7536653.422332-1.029.735-.4783327.683665-.609 1.113-.1820001.895997-.154 1.4zm14.294-2.324v-1.022h-6.426v1.12h5.208c-.5226693.550669-1.0103311 1.152663-1.463 1.806s-.8516649 1.34633-1.197 2.079-.6276656 1.497996-.847 2.296-.3569997 1.616996-.413 2.457h1.33c.0466669-.774671.1773323-1.572663.392-2.394s.4923316-1.619329.833-2.394.7303311-1.502663 1.169-2.184.9099975-1.269331 1.414-1.764zm1.82 7.182v1.554h1.554v-1.554zm4.578-3.332c0 .373335.011667.790998.035 1.253s.097999.895998.224 1.302.328999.748999.609 1.029.671997.42 1.176.42.895999-.139999 1.176-.42.482999-.622998.609-1.029.200667-.839998.224-1.302.035-.879665.035-1.253c0-.242668-.002333-.510999-.007-.805s-.028-.587999-.07-.882-.102666-.580999-.182-.861-.195999-.524999-.35-.735-.347666-.380333-.581-.511c-.233335-.130667-.517998-.196-.854-.196s-.620666.065333-.854.196-.426999.300999-.581.511-.270666.454999-.35.735-.14.566999-.182.861-.065333.587999-.07.882-.007.562332-.007.805zm-1.26.014c0-.364002.009333-.741998.028-1.134s.065333-.774665.14-1.148.181999-.727998.322-1.064.331332-.629999.574-.882.548331-.452666.917-.602.809664-.224 1.323-.224.954331.074666 1.323.224.674332.349999.917.602.433999.545998.574.882.247333.690665.322 1.064.121333.755998.14 1.148.028.769998.028 1.134-.009333.741998-.028 1.134-.065333.774665-.14 1.148-.181999.725665-.322 1.057-.331332.622999-.574.875-.545998.450333-.91.595-.807331.217-1.33.217c-.513336 0-.954331-.072333-1.323-.217s-.674332-.342999-.917-.595-.433999-.543665-.574-.875-.247333-.683665-.322-1.057-.121333-.755998-.14-1.148-.028-.769998-.028-1.134zm8.358 3.318v1.554h1.554v-1.554zm4.578-3.332c0 .373335.011667.790998.035 1.253s.097999.895998.224 1.302.328999.748999.609 1.029.671997.42 1.176.42.895999-.139999 1.176-.42.482999-.622998.609-1.029.200667-.839998.224-1.302.035-.879665.035-1.253c0-.242668-.002333-.510999-.007-.805s-.028-.587999-.07-.882-.102666-.580999-.182-.861-.195999-.524999-.35-.735-.347666-.380333-.581-.511c-.233335-.130667-.517998-.196-.854-.196s-.620666.065333-.854.196c-.233335.130667-.426999.300999-.581.511s-.270666.454999-.35.735-.14.566999-.182.861-.065333.587999-.07.882-.007.562332-.007.805zm-1.26.014c0-.364002.009333-.741998.028-1.134s.065333-.774665.14-1.148.181999-.727998.322-1.064.331332-.629999.574-.882.548331-.452666.917-.602.809664-.224 1.323-.224.954331.074666 1.323.224.674332.349999.917.602.433999.545998.574.882.247333.690665.322 1.064.121333.755998.14 1.148.028.769998.028 1.134-.009333.741998-.028 1.134-.065333.774665-.14 1.148-.181999.725665-.322 1.057-.331332.622999-.574.875-.545998.450333-.91.595-.807331.217-1.33.217c-.513336 0-.954331-.072333-1.323-.217s-.674332-.342999-.917-.595-.433999-.543665-.574-.875-.247333-.683665-.322-1.057-.121333-.755998-.14-1.148-.028-.769998-.028-1.134zm8.358 3.318v1.554h1.554v-1.554zm7.714 1.554v-9.926h-.91c-.065334.373335-.186666.681332-.364.924s-.394332.433999-.651.574-.543665.235666-.861.287-.643998.077-.98.077v.952h2.576v7.112z" fill="#696868"/><path d="m81.5 97.5v95" stroke="#979797" stroke-dasharray="7 7 7 7" stroke-linecap="square"/><path d="m201.5 97.5v103" stroke="#979797" stroke-dasharray="7 7 7 7" stroke-linecap="square"/><path d="m190.238 229.432h1.5v3.9l3.816-3.9h1.848l-3.42 3.42 3.66 5.148h-1.872l-2.808-4.092-1.224 1.212v2.88h-1.5zm12.288 4.92c-.016-.216001-.062-.423999-.138-.624s-.179999-.373999-.312-.522-.291999-.268-.48-.36-.397999-.138-.63-.138c-.240001 0-.457999.042-.654.126s-.363999.199999-.504.348-.252.321999-.336.522-.13.415999-.138.648zm-3.192.9c0 .240001.034.471999.102.696s.169999.419999.306.588.307999.301999.516.402c.208001.1.455999.15.744.15.400002 0 .721999-.085999.966-.258s.425999-.429998.546-.774h1.296c-.072.336002-.195999.635999-.372.9s-.387999.485999-.636.666-.525998.316-.834.408-.629998.138-.966.138c-.488002 0-.919998-.079999-1.296-.24s-.693999-.383999-.954-.672-.455999-.631998-.588-1.032-.198-.839998-.198-1.32c0-.440002.069999-.857998.21-1.254s.339999-.743999.6-1.044c.260001-.300002.573998-.537999.942-.714s.783998-.264 1.248-.264c.488002 0 .925998.101999 1.314.306s.709999.473998.966.81.441999.721998.558 1.158.146.885998.09 1.35zm4.92-3.456h1.5l1.62 4.632h.024l1.572-4.632h1.428l-2.412 6.54c-.112001.280001-.221999.547999-.33.804s-.239999.481999-.396.678-.349999.351999-.582.468-.527998.174-.888.174c-.320002 0-.635998-.024-.948-.072v-1.152c.112001.016.219999.034.324.054s.211999.03.324.03c.160001 0 .291999-.02.396-.06s.19-.098.258-.174.126-.165999.174-.27.092-.223999.132-.36l.156-.48zm7.944 4.212c.04.400002.191999.679999.456.84s.579998.24.948.24c.128001 0 .273999-.01.438-.03s.317999-.058.462-.114.262-.137999.354-.246.134-.249999.126-.426-.071999-.319999-.192-.432-.273999-.202-.462-.27-.401999-.126-.642-.174-.483999-.1-.732-.156c-.256001-.056-.501999-.124-.738-.204s-.447999-.187999-.636-.324-.337999-.309999-.45-.522-.168-.473998-.168-.786c0-.336002.081999-.617999.246-.846s.371999-.411999.624-.552.531998-.238.84-.294.601999-.084.882-.084c.320002 0 .625999.034.918.102s.555999.177999.792.33.431999.349999.588.594.254.537998.294.882h-1.428c-.064-.328002-.213999-.547999-.45-.66s-.505998-.168-.81-.168c-.096 0-.209999.008-.342.024s-.255999.046-.372.09-.214.108-.294.192-.12.193999-.12.33c0 .168001.057999.303999.174.408s.267999.19.456.258.401999.126.642.174.487999.1.744.156c.248001.056.491999.124.732.204s.453999.187999.642.324.339999.307999.456.516.174.463998.174.768c0 .368002-.083999.679999-.252.936s-.385999.463999-.654.624-.565998.276-.894.348-.651998.108-.972.108c-.392002 0-.753998-.044-1.086-.132s-.619999-.221999-.864-.402-.435999-.403999-.576-.672-.214-.585998-.222-.954z" fill="#4a4a4a"/><g transform="translate(64 181)"><path d="m0 12.5925926c0 .7772896 7.83501688 1.4074074 17.5 1.4074074 9.6649831 0 17.5-.6301178 17.5-1.4074074v-11.25925927h-35z" fill="#b8e986"/><ellipse cx="17.5" cy="1.333333" fill="#dfffbf" rx="17.5" ry="1.333333"/></g><g transform="translate(64 195)"><path d="m0 11.6277778c0 .7578574 7.83501688 1.3722222 17.5 1.3722222 9.6649831 0 17.5-.6143648 17.5-1.3722222v-10.9777778h-35z" fill="#b8e986"/><ellipse cx="17.5" cy=".975" fill="#dfffbf" rx="17.5" ry="1"/></g><g transform="translate(64 208)"><path d="m0 12.5925926c0 .7772896 7.83501688 1.4074074 17.5 1.4074074 9.6649831 0 17.5-.6301178 17.5-1.4074074v-11.25925927h-35z" fill="#b8e986"/><ellipse cx="17.5" cy="1.333333" fill="#dfffbf" rx="17.5" ry="1.333333"/></g><circle cx="181" cy="204" fill="#9b9b9b" r="12"/><circle cx="181" cy="204" fill="#fff" r="7"/><g fill="#9b9b9b"><path d="m192 201h35v7h-35z"/><path d="m216 208h7v7h-7z"/></g></g></svg>