<svg height="265" viewBox="0 0 581 265" width="581" xmlns="http://www.w3.org/2000/svg" xmlns:xlink="http://www.w3.org/1999/xlink"><defs><path id="a" d="m12.819426 0h120.361148c4.457594 0 6.074025.46412806 7.703655 1.33566352 1.629629.87153546 2.908572 2.15047833 3.780107 3.78010796.871536 1.62962963 1.335664 3.24606082 1.335664 7.70365452v207.361148c0 4.457594-.464128 6.074025-1.335664 7.703655-.871535 1.629629-2.150478 2.908572-3.780107 3.780107-1.62963.871536-3.246061 1.335664-7.703655 1.335664h-120.361148c-4.4575937 0-6.07402489-.464128-7.70365452-1.335664-1.62962963-.871535-2.9085725-2.150478-3.78010796-3.780107-.87153546-1.62963-1.33566352-3.246061-1.33566352-7.703655v-207.361148c0-4.4575937.46412806-6.07402489 1.33566352-7.70365452s2.15047833-2.9085725 3.78010796-3.78010796 3.24606082-1.33566352 7.70365452-1.33566352z"/><filter id="b" height="124%" width="138.4%" x="-19.2%" y="-8.6%"><feOffset dx="0" dy="8" in="SourceAlpha" result="shadowOffsetOuter1"/><feGaussianBlur in="shadowOffsetOuter1" result="shadowBlurOuter1" stdDeviation="8"/><feColorMatrix in="shadowBlurOuter1" type="matrix" values="0 0 0 0 0   0 0 0 0 0   0 0 0 0 0  0 0 0 0.103742074 0"/></filter><filter id="c" height="136.7%" width="116.3%" x="-8.2%" y="-11%"><feOffset dx="0" dy="1" in="SourceAlpha" result="shadowOffsetOuter1"/><feGaussianBlur in="shadowOffsetOuter1" result="shadowBlurOuter1" stdDeviation=".5"/><feColorMatrix in="shadowBlurOuter1" result="shadowMatrixOuter1" type="matrix" values="0 0 0 0 0   0 0 0 0 0   0 0 0 0 0  0 0 0 0.5 0"/><feMerge><feMergeNode in="shadowMatrixOuter1"/><feMergeNode in="SourceGraphic"/></feMerge></filter><path id="d" d="m12.819426 0h219.361148c4.457594 0 6.074025.46412806 7.703655 1.33566352 1.629629.87153546 2.908572 2.15047833 3.780107 3.78010796.871536 1.62962963 1.335664 3.24606082 1.335664 7.70365452v83.361148c0 4.457594-.464128 6.074025-1.335664 7.703655-.871535 1.629629-2.150478 2.908572-3.780107 3.780107-1.62963.871536-3.246061 1.335664-7.703655 1.335664h-219.361148c-4.4575937 0-6.07402489-.464128-7.70365452-1.335664-1.62962963-.871535-2.9085725-2.150478-3.78010796-3.780107-.87153546-1.62963-1.33566352-3.246061-1.33566352-7.703655v-83.361148c0-4.4575937.46412806-6.07402489 1.33566352-7.70365452s2.15047833-2.9085725 3.78010796-3.78010796 3.24606082-1.33566352 7.70365452-1.33566352z"/><filter id="e" height="151.4%" width="122.9%" x="-11.4%" y="-18.3%"><feOffset dx="0" dy="8" in="SourceAlpha" result="shadowOffsetOuter1"/><feGaussianBlur in="shadowOffsetOuter1" result="shadowBlurOuter1" stdDeviation="8"/><feColorMatrix in="shadowBlurOuter1" type="matrix" values="0 0 0 0 0   0 0 0 0 0   0 0 0 0 0  0 0 0 0.103742074 0"/></filter></defs><g fill="none" fill-rule="evenodd"><g transform="translate(16 8)"><use fill="#000" filter="url(#b)" xlink:href="#a"/><use fill="#fff" fill-rule="evenodd" xlink:href="#a"/></g><g transform="translate(54 142)"><text fill="#4a4a4a" font-family="HelveticaNeue-Medium, Helvetica Neue" font-size="16" font-weight="400"><tspan x=".280757" y="69.084746">Web client</tspan></text><g fill-rule="evenodd"><path d="m.25.25v45.9491525h78.7612613v-45.9491525z" stroke="#4a4a4a" stroke-width=".5"/><path d="m0 0h79.261261v6.058585h-79.261261z" fill="#4a4a4a"/><g fill="#e6e3e7"><ellipse cx="17.49924" cy="3.029293" rx="2.058734" ry="2.019528"/><ellipse cx="11.323037" cy="3.029293" rx="2.058734" ry="2.019528"/><ellipse cx="5.146835" cy="3.029293" rx="2.058734" ry="2.019528"/></g><path d="m18.9925422 20.1180929h1.3085586v2.9314576h3.4022522v-2.9314576h1.3085586v7.3699322h-1.3085586v-3.323695h-3.4022522v3.323695h-1.3085586zm6.8777838 0h6.0507748v1.1147796h-2.3763424v6.2551526h-1.3085585v-6.2551526h-2.3658739zm6.2078018 0h6.0507748v1.1147796h-2.3763424v6.2551526h-1.3085585v-6.2551526h-2.3658739zm6.9196576 0h3.2975676c.5304051 0 .9630974.0756941 1.2980901.2270847s.5932123.340626.7746667.5677119c.1814543.2270858.30533.4748122.3716306.7431864s.0994505.5161006.0994505.7431864c0 .2270859-.0331499.4730919-.0994505.7380255-.0663006.2649335-.1901763.5109395-.3716306.7380254-.1814544.2270859-.439674.4146009-.7746667.5625508s-.767685.2219238-1.2980901.2219238h-1.989009v2.8282373h-1.3085586zm1.3085586 3.4888474h1.9157297c.1465593 0 .2966059-.0206439.4501442-.0619322s.2948612-.1083809.423973-.2012797c.1291117-.0928987.2337953-.2167619.314054-.3715932s.1203874-.3492276.1203874-.5831949c0-.2408487-.0348946-.440406-.1046847-.598678-.0697901-.1582719-.1640054-.2838554-.2826486-.3767542-.1186433-.0928988-.254732-.1565507-.4082703-.1909576-.1535383-.034407-.3175427-.0516102-.492018-.0516102h-1.9366667zm6.5323243 1.4244407c0 .282137.0488524.522982.1465586.7225424.0977062.1995603.2337949.3629908.4082703.4902966.1744753.1273057.3751189.2202031.6019369.2786949.2268179.0584918.4728245.0877373.738027.0877373.2861396 0 .5304014-.0326861.7327928-.0980593.2023914-.0653733.3663958-.149669.492018-.2528899.1256223-.1032208.2163481-.221923.2721802-.3561101.0558321-.1341872.0837478-.2700926.0837478-.4077204 0-.282137-.0645549-.4902959-.1936667-.624483s-.2704347-.2288048-.423973-.283856c-.2652025-.0963394-.5740192-.1875165-.9264594-.2735339-.3524402-.0860173-.7868773-.1978383-1.3033244-.3354661-.3210346-.0825767-.5879779-.1909569-.8008378-.325144s-.3820985-.2838551-.5077207-.4490085c-.1256223-.1651534-.2146034-.3406262-.266946-.5264237-.0523426-.1857976-.0785135-.375033-.0785135-.5677119 0-.3715951.0785127-.6932953.2355406-.9651102.1570278-.2718149.3646503-.497177.6228738-.6760932.2582235-.1789161.5513377-.3113809.8793514-.3973983.3280136-.0860174.6595118-.1290254.9945045-.1290254.3908248 0 .7589622.0498893 1.1044234.1496695.3454612.0997801.6490437.2494481.9107568.4490084.261713.1995604.4693355.4455664.6228738.7380255s.2303064.6313624.2303064 1.0167203h-1.3085586c-.0348951-.4748159-.1988994-.8102787-.492018-1.0063983s-.6664903-.294178-1.1201262-.294178c-.1535383 0-.3105637.0154829-.471081.0464492-.1605174.0309662-.3070744.0825759-.4396757.1548305s-.2425191.1703129-.3297568.294178c-.0872376.123865-.1308558.2786939-.1308558.4644915 0 .2614928.0820022.4662111.246009.614161s.3786083.2597708.6438108.3354661c.0279161.0068814.1378339.0361269.3297568.0877373.1919228.0516104.4065243.108381.6438108.1703136.2372864.0619325.4693352.1221437.6961531.1806355.226818.0584919.3890776.1014999.4867838.1290255.2442655.0756953.4571222.1789146.6385766.309661.1814543.1307464.3332456.2804144.4553784.4490085.1221327.168594.2128585.3492278.2721801.5419067.0593217.192679.088982.385355.088982.5780339 0 .4128835-.0854916.7655494-.2564775 1.0580085-.1709858.2924591-.3960556.5315838-.6752162.7173814-.2791605.1857975-.5967009.3217029-.9526306.4077203s-.718833.1290254-1.0887207.1290254c-.4257199 0-.8270072-.0516096-1.2038739-.1548305-.3768667-.1032208-.7048755-.2614904-.984036-.4748135-.2791606-.2133231-.5024857-.4868543-.669982-.8206017-.1674964-.3337475-.2547327-.7277012-.2617117-1.1818729zm5.8518739 1.0631695h1.4551171v1.3934746h-1.4551171zm0-3.8294746h1.4551171v1.3934746h-1.4551171zm4.9620541-2.3224576h1.141063l-3.0044504 7.7208813h-1.1410631zm3.6849009 0h1.141063l-3.0044504 7.7208813h-1.1410631z" fill="#4a4a4a"/></g></g><g transform="translate(53 34)"><g fill-rule="evenodd"><path d="m.25.25v45.4h78.5181818v-45.4z" fill="#4a4a4a" stroke="#4a4a4a" stroke-width=".5"/><path d="m0 0h79.018182v5.828571h-79.018182z" fill="#d8d8d8"/><g fill="#4a4a4a"><ellipse cx="17.890909" cy="2.914286" rx="2.236364" ry="2.185714"/><ellipse cx="11.181818" cy="2.914286" rx="2.236364" ry="2.185714"/><ellipse cx="5.218182" cy="2.914286" rx="2.236364" ry="2.185714"/></g></g><text fill="#fff" font-family="Helvetica" font-size="18"><tspan x="5.963636" y="37.671429">&gt; ssh</tspan></text><text fill="#4a4a4a" font-family="HelveticaNeue-Medium, Helvetica Neue" font-size="16" font-weight="400"><tspan x="3.478631" y="68.474576">OpenSSH</tspan><tspan x="19.622631" y="87.474576">client</tspan></text></g><path d="m311 125 9 4.5-9 4.5v-4h-149v-1h149z" fill="#979797" fill-rule="nonzero"/><g transform="translate(201 70)"><path d="m6.63 69.156c-.06400032-.2480012-.15199944-.475999-.264-.684s-.25599912-.3879992-.432-.54-.38199882-.2699996-.618-.354-.50999844-.126-.822-.126c-.45600228 0-.84999834.0919991-1.182.276s-.60199896.4299985-.81.738-.3619995.657998-.462 1.05-.15.791998-.15 1.2.0499995.807998.15 1.2.25399896.7419985.462 1.05.47799834.5539991.81.738.72599772.276 1.182.276c.33600168 0 .63199872-.0579994.888-.174s.47599908-.275999.66-.48.32799948-.4419986.432-.714.17199984-.5639984.204-.876h1.464c-.03200016.5120026-.14199906.9799979-.33 1.404s-.4419984.7899985-.762 1.098-.69599784.5459992-1.128.714-.9079974.252-1.428.252c-.6400032 0-1.21399746-.1179988-1.722-.354s-.93799824-.557998-1.29-.966-.62199906-.8839973-.81-1.428-.282-1.1239969-.282-1.74c0-.608003.09399906-1.1839973.282-1.728s.45799824-1.019998.81-1.428.78199746-.7319988 1.29-.972 1.0819968-.36 1.722-.36c.4800024 0 .93199788.0659993 1.356.198s.79799838.3239987 1.122.576.585999.5579982.786.918.32399976.7719977.372 1.236zm6.948 2.196c-.0160001-.2160011-.0619996-.423999-.138-.624s-.1799993-.3739993-.312-.522-.2919991-.2679995-.48-.36-.3979988-.138-.63-.138c-.2400012 0-.457999.0419996-.654.126s-.3639993.1999993-.504.348-.2519996.321999-.336.522-.13.4159988-.138.648zm-3.192.9c0 .2400012.0339997.4719989.102.696s.1699993.4199992.306.588.307999.3019995.516.402c.208.1000005.4559986.15.744.15.400002 0 .7219988-.0859991.966-.258s.4259994-.4299983.546-.774h1.296c-.0720004.3360017-.1959991.6359987-.372.9s-.3879988.4859991-.636.666-.5259985.3159995-.834.408-.6299983.138-.966.138c-.4880024 0-.9199981-.0799992-1.296-.24s-.6939987-.3839986-.954-.672-.45599934-.631998-.588-1.032-.198-.8399976-.198-1.32c0-.4400022.0699993-.857998.21-1.254s.3399987-.7439985.6-1.044.5739982-.5379991.942-.714.7839977-.264 1.248-.264c.4880024 0 .9259981.101999 1.314.306s.7099987.4739983.966.81.4419994.7219978.558 1.158.1460003.8859977.09 1.35zm5.604-3.456h1.284v1.2h.024c.0400002-.1680008.1179994-.3319992.234-.492s.2559992-.3059993.42-.438.345999-.2379996.546-.318.403999-.12.612-.12c.1600008 0 .2699997.004.33.012s.1219997.016.186.024v1.32c-.0960005-.0160001-.1939995-.0299999-.294-.042s-.1979995-.018-.294-.018c-.2320012 0-.449999.0459995-.654.138s-.3819992.2279991-.534.408-.2719996.4019987-.36.666-.132.5679983-.132.912v2.952h-1.368zm3.6 0h1.032v-1.86h1.368v1.86h1.236v1.02h-1.236v3.312c0 .1440007.0059999.2679995.018.372s.0399998.1919996.084.264.1099996.1259998.198.162.2079992.054.36.054c.0960005 0 .1919995-.002.288-.006s.1919995-.0179999.288-.042v1.056c-.1520008.0160001-.2999993.0319999-.444.048s-.2919992.024-.444.024c-.3600018 0-.6499989-.0339997-.87-.102s-.3919994-.1679993-.516-.3-.2079998-.297999-.252-.498-.07-.4279987-.078-.684v-3.66h-1.032zm4.656-2.364h1.368v1.296h-1.368zm0 2.364h1.368v6.204h-1.368zm6.672-2.364h1.368v1.296h-1.368zm-4.428 2.364h1.02v-.516c0-.392002.0479995-.7099988.144-.954s.2239992-.4319993.384-.564.341999-.2199998.546-.264.4179989-.066.642-.066c.4400022 0 .759999.0279997.96.084v1.068c-.0880004-.0240001-.1819995-.0419999-.282-.054s-.2179993-.018-.354-.018c-.1840009 0-.3419993.0439996-.474.132s-.198.2599987-.198.516v.636h1.164v1.02h-1.164v5.184h-1.368v-5.184h-1.02zm4.428 0h1.368v6.204h-1.368zm7.044 2.076c-.0560003-.3840019-.2099987-.673999-.462-.87s-.5699981-.294-.954-.294c-.1760009 0-.363999.0299997-.564.09s-.3839992.1719992-.552.336-.3079994.3919985-.42.684-.168.6739976-.168 1.146c0 .2560013.0299997.5119987.09.768s.1559993.483999.288.684.301999.3619994.51.486.4599985.186.756.186c.400002 0 .7299987-.1239988.99-.372s.4219997-.5959978.486-1.044h1.368c-.1280006.808004-.4339976 1.4259979-.918 1.854s-1.125996.642-1.926.642c-.4880024 0-.9179981-.0819992-1.29-.246s-.6859987-.3879986-.942-.672-.4499993-.622-.582-1.014c-.1320007-.392002-.198-.8159977-.198-1.272 0-.4640023.0639994-.899998.192-1.308s.3199987-.7619985.576-1.062.5739981-.5359991.954-.708.8259974-.258 1.338-.258c.3600018 0 .7019984.0459995 1.026.138s.6119987.2299991.864.414.4579992.4159986.618.696.2559998.6119981.288.996zm7.68 2.748c0 .1680008.0219998.2879996.066.36s.1299994.108.258.108h.144c.0560003 0 .1199996-.0079999.192-.024v.948c-.0480002.0160001-.1099996.0339999-.186.054s-.1539996.0379999-.234.054-.1599996.028-.24.036-.1479997.012-.204.012c-.2800014 0-.5119991-.0559994-.696-.168s-.3039997-.3079986-.36-.588c-.272.2640013-.605998.4559994-1.002.576s-.7779982.18-1.146.18c-.2800014 0-.5479987-.0379996-.804-.114s-.481999-.1879993-.678-.336-.3519994-.3359989-.468-.564-.174-.4939985-.174-.798c0-.3840019.0699993-.6959988.21-.936s.3239989-.4279993.552-.564.4839986-.2339997.768-.294.5699986-.1059998.858-.138c.2480012-.0480002.4839989-.0819999.708-.102s.4219991-.0539998.594-.102.3079995-.1219995.408-.222.15-.249999.15-.45c0-.1760009-.0419996-.3199994-.126-.432s-.1879994-.1979997-.312-.258-.2619992-.0999999-.414-.12-.2959993-.03-.432-.03c-.3840019 0-.6999988.0799992-.948.24s-.3879998.4079983-.42.744h-1.368c.0240001-.400002.1199992-.7319987.288-.996s.3819987-.4759992.642-.636.5539984-.2719997.882-.336.6639983-.096 1.008-.096c.3040015 0 .6039985.0319997.9.096s.5619988.1679993.798.312.4259993.3299989.57.558.216.5059984.216.834zm-1.368-1.728c-.208001.1360007-.4639985.2179999-.768.246s-.6079985.0699997-.912.126c-.1440007.0240001-.2839993.0579998-.42.102s-.2559995.1039996-.36.18-.1859997.1759994-.246.3-.09.2739991-.09.45c0 .1520008.0439996.2799995.132.384s.1939994.1859997.318.246.2599993.1019999.408.126.2819994.036.402.036c.1520008 0 .3159991-.0199998.492-.06s.3419992-.1079995.498-.204.2859995-.2179993.39-.366.156-.3299989.156-.546zm2.22-3.096h1.032v-1.86h1.368v1.86h1.236v1.02h-1.236v3.312c0 .1440007.0059999.2679995.018.372s.0399998.1919996.084.264.1099996.1259998.198.162.2079992.054.36.054c.0960005 0 .1919995-.002.288-.006s.1919995-.0179999.288-.042v1.056c-.1520008.0160001-.2999993.0319999-.444.048s-.2919992.024-.444.024c-.3600018 0-.6499989-.0339997-.87-.102s-.3919994-.1679993-.516-.3-.2079998-.297999-.252-.498-.07-.4279987-.078-.684v-3.66h-1.032zm8.88 2.556c-.0160001-.2160011-.0619996-.423999-.138-.624s-.1799993-.3739993-.312-.522-.2919991-.2679995-.48-.36-.3979988-.138-.63-.138c-.2400012 0-.457999.0419996-.654.126s-.3639993.1999993-.504.348-.2519996.321999-.336.522-.13.4159988-.138.648zm-3.192.9c0 .2400012.0339997.4719989.102.696s.1699993.4199992.306.588.307999.3019995.516.402c.208.1000005.4559986.15.744.15.400002 0 .7219988-.0859991.966-.258s.4259994-.4299983.546-.774h1.296c-.0720004.3360017-.1959991.6359987-.372.9s-.3879988.4859991-.636.666-.5259985.3159995-.834.408-.6299983.138-.966.138c-.4880024 0-.9199981-.0799992-1.296-.24s-.6939987-.3839986-.954-.672-.4559993-.631998-.588-1.032-.198-.8399976-.198-1.32c0-.4400022.0699993-.857998.21-1.254s.3399987-.7439985.6-1.044.5739982-.5379991.942-.714.7839977-.264 1.248-.264c.4880024 0 .9259981.101999 1.314.306s.7099987.4739983.966.81.4419994.7219978.558 1.158.1460003.8859977.09 1.35z" fill="#4a4a4a"/><g transform="translate(4)"><path d="m40.7631579.5h-40.2631579v53h48v-45.09756098h-7.7368421z" fill="#fff" stroke="#5c5c5c"/><g stroke="#4a4a4a" stroke-linecap="square"><path d="m7.717391 13.5h31.59781"/><path d="m7.717391 16.5h31.59781"/><path d="m7.717391 19.5h31.59781"/><path d="m7.717391 22.5h31.59781"/><path d="m7.717391 25.5h31.59781"/><path d="m7.717391 28.5h25.782609"/></g><circle cx="39.5" cy="46.5" fill="#4a4a4a" r="6.5"/><path d="m44 49v12l-4.5-5.8285714-4.5 5.8285714v-12z" fill="#4a4a4a"/><path d="m40.751953.306885 7.91919 8.027099" stroke="#4a4a4a"/></g></g><g filter="url(#c)" transform="translate(320 70)"><use fill="#000" filter="url(#e)" xlink:href="#d"/><use fill="#fff" fill-rule="evenodd" xlink:href="#d"/><g transform="translate(13 15)"><path d="m10 1.5c-4.69442037 0-8.5 3.80557963-8.5 8.5v60c0 4.6944204 3.80557963 8.5 8.5 8.5h200c4.69442 0 8.5-3.8055796 8.5-8.5v-60c0-4.69442037-3.80558-8.5-8.5-8.5z" fill="#fff" stroke="#40b6c6" stroke-width="3"/><path d="m57 33h9.248v1.728h-3.632v9.696h-2v-9.696h-3.616zm14.224 6.56c-.0213334-.2880014-.0826662-.565332-.184-.832s-.2399991-.4986657-.416-.696-.3893321-.3573327-.64-.48-.5306651-.184-.84-.184c-.3200016 0-.6106654.0559994-.872.168s-.4853324.2666657-.672.464-.3359994.429332-.448.696-.1733333.5546651-.184.864zm-4.256 1.2c0 .3200016.0453329.6293318.136.928s.2266658.5599989.408.784.4106653.402666.688.536.6079981.2.992.2c.533336 0 .962665-.1146655 1.288-.344s.5679992-.573331.728-1.032h1.728c-.0960005.4480022-.2613322.8479982-.496 1.2s-.5173317.6479988-.848.888-.7013313.4213327-1.112.544-.8399978.184-1.288.184c-.6506699 0-1.2266642-.1066656-1.728-.32s-.9253316-.5119981-1.272-.896-.6079991-.842664-.784-1.376-.264-1.1199968-.264-1.76c0-.5866696.0933324-1.1439974.28-1.672s.4533316-.991998.8-1.392.7653309-.7173322 1.256-.952 1.0453302-.352 1.664-.352c.6506699 0 1.2346641.1359986 1.752.408s.946665.6319978 1.288 1.08.5893326.9626638.744 1.544.194667 1.1813302.12 1.8zm7.52-7.76h1.824v11.424h-1.824zm9.488 6.56c-.0213334-.2880014-.0826662-.565332-.184-.832s-.2399991-.4986657-.416-.696-.3893321-.3573327-.64-.48-.5306651-.184-.84-.184c-.3200016 0-.6106654.0559994-.872.168s-.4853324.2666657-.672.464-.3359994.429332-.448.696-.1733333.5546651-.184.864zm-4.256 1.2c0 .3200016.0453329.6293318.136.928s.2266658.5599989.408.784.4106653.402666.688.536.6079981.2.992.2c.533336 0 .962665-.1146655 1.288-.344s.5679992-.573331.728-1.032h1.728c-.0960005.4480022-.2613322.8479982-.496 1.2s-.5173317.6479988-.848.888-.7013313.4213327-1.112.544-.8399978.184-1.288.184c-.6506699 0-1.2266642-.1066656-1.728-.32s-.9253316-.5119981-1.272-.896-.6079991-.842664-.784-1.376-.264-1.1199968-.264-1.76c0-.5866696.0933324-1.1439974.28-1.672s.4533316-.991998.8-1.392.7653309-.7173322 1.256-.952 1.0453302-.352 1.664-.352c.6506699 0 1.2346641.1359986 1.752.408s.946665.6319978 1.288 1.08.5893326.9626638.744 1.544.194667 1.1813302.12 1.8zm7.52-4.608h1.728v1.12h.032c.2560013-.4800024.613331-.823999 1.072-1.032s.954664-.312 1.488-.312c.6506699 0 1.2186642.1146655 1.704.344s.8879984.543998 1.208.944.5599992.866664.72 1.4.24 1.103997.24 1.712c0 .5546694-.0719993 1.0933307-.216 1.616s-.3626652.984-.656 1.384c-.2933348.400002-.6639978.7199988-1.112.96s-.975997.36-1.584.36c-.266668 0-.533332-.0239998-.8-.072s-.5226654-.1253328-.768-.232-.471999-.2426658-.68-.408-.3813326-.3599989-.52-.584h-.032v4.128h-1.824zm6.368 4.144c0-.3733352-.0479995-.7359982-.144-1.088s-.239999-.6639986-.432-.936-.4319986-.4906658-.72-.656-.6186648-.248-.992-.248c-.7680038 0-1.3466647.266664-1.736.8s-.584 1.2426622-.584 2.128c0 .4160021.0506662.8026649.152 1.16s.2533323.6639987.456.92.4453319.4586659.728.608.6106648.224.984.224c.4160021 0 .7679986-.0853325 1.056-.256s.5253324-.3919986.712-.664.3199996-.5813316.4-.928.12-.7013315.12-1.064zm7.152 4.352c-.661337 0-1.2506641-.1093322-1.768-.328s-.9546649-.5199981-1.312-.904-.6293324-.842664-.816-1.376-.28-1.1199968-.28-1.76c0-.6293365.0933324-1.210664.28-1.744s.4586649-.9919981.816-1.376.7946641-.6853322 1.312-.904 1.106663-.328 1.768-.328 1.250664.1093322 1.768.328.954665.5199981 1.312.904.629332.842664.816 1.376.28 1.1146635.28 1.744c0 .6400032-.093332 1.226664-.28 1.76s-.458665.9919981-.816 1.376-.794664.6853322-1.312.904-1.106663.328-1.768.328zm0-1.44c.405335 0 .757332-.0853325 1.056-.256s.543999-.3946653.736-.672.333333-.5893316.424-.936.136-.7013315.136-1.064c0-.3520018-.045333-.7039982-.136-1.056s-.231999-.6639986-.424-.936-.437332-.4933325-.736-.664-.650665-.256-1.056-.256-.757332.0853325-1.056.256c-.2986682.1706675-.543999.3919986-.736.664s-.3333329.5839982-.424.936-.136.7039982-.136 1.056c0 .3626685.0453329.7173316.136 1.064s.231999.6586653.424.936.4373318.5013325.736.672c.298668.1706675.650665.256 1.056.256zm5.696-7.056h1.712v1.6h.032c.053334-.2240011.157333-.4426656.312-.656s.341332-.4079991.56-.584.461332-.3173328.728-.424.538665-.16.816-.16c.213334 0 .36.0053333.44.016s.162666.0213333.248.032v1.76c-.128001-.0213334-.258666-.0399999-.392-.056s-.263999-.024-.392-.024c-.309335 0-.599999.0613327-.872.184s-.509332.3039988-.712.544-.362666.5359982-.48.888-.176.757331-.176 1.216v3.936h-1.824zm4.8 0h1.376v-2.48h1.824v2.48h1.648v1.36h-1.648v4.416c0 .192001.008.3573326.024.496s.053333.2559995.112.352.146666.1679998.264.216.277332.072.48.072c.128001 0 .255999-.0026666.384-.008s.255999-.0239998.384-.056v1.408c-.202668.0213334-.399999.0426666-.592.064s-.389332.032-.592.032c-.480002 0-.866665-.0453329-1.16-.136s-.522666-.2239991-.688-.4-.277333-.397332-.336-.664-.093333-.570665-.104-.912v-4.88h-1.376zm10.864-3.152h5.04c.810671 0 1.471997.1173322 1.984.352s.906665.5279982 1.184.88.466666.7359979.568 1.152.152.7999982.152 1.152-.050666.7333313-.152 1.144-.290665.7919982-.568 1.144-.671997.6426655-1.184.872-1.173329.344-1.984.344h-3.04v4.384h-2zm2 5.408h2.928c.224001 0 .453332-.0319997.688-.096s.450666-.1679993.648-.312.357333-.3359988.48-.576.184-.5413315.184-.904c0-.3733352-.053333-.6826654-.16-.928s-.250666-.4399993-.432-.584-.389332-.2426664-.624-.296-.485332-.08-.752-.08h-2.96zm8.416-2.256h1.712v1.6h.032c.053334-.2240011.157333-.4426656.312-.656s.341332-.4079991.56-.584.461332-.3173328.728-.424.538665-.16.816-.16c.213334 0 .36.0053333.44.016s.162666.0213333.248.032v1.76c-.128001-.0213334-.258666-.0399999-.392-.056s-.263999-.024-.392-.024c-.309335 0-.599999.0613327-.872.184s-.509332.3039988-.712.544-.362666.5359982-.48.888-.176.757331-.176 1.216v3.936h-1.824zm9.136 8.496c-.661337 0-1.250664-.1093322-1.768-.328s-.954665-.5199981-1.312-.904-.629332-.842664-.816-1.376-.28-1.1199968-.28-1.76c0-.6293365.093332-1.210664.28-1.744s.458665-.9919981.816-1.376.794664-.6853322 1.312-.904 1.106663-.328 1.768-.328 1.250664.1093322 1.768.328.954665.5199981 1.312.904.629332.842664.816 1.376.28 1.1146635.28 1.744c0 .6400032-.093332 1.226664-.28 1.76s-.458665.9919981-.816 1.376-.794664.6853322-1.312.904-1.106663.328-1.768.328zm0-1.44c.405335 0 .757332-.0853325 1.056-.256s.543999-.3946653.736-.672.333333-.5893316.424-.936.136-.7013315.136-1.064c0-.3520018-.045333-.7039982-.136-1.056s-.231999-.6639986-.424-.936-.437332-.4933325-.736-.664-.650665-.256-1.056-.256-.757332.0853325-1.056.256-.543999.3919986-.736.664-.333333.5839982-.424.936-.136.7039982-.136 1.056c0 .3626685.045333.7173316.136 1.064s.231999.6586653.424.936.437332.5013325.736.672.650665.256 1.056.256zm7.92-3.136-2.864-3.92h2.208l1.728 2.544 1.808-2.544h2.112l-2.816 3.824 3.168 4.448h-2.192l-2.096-3.056-2.032 3.056h-2.144zm5.456-3.92h2l2.16 6.176h.032l2.096-6.176h1.904l-3.216 8.72c-.149334.3733352-.295999.730665-.44 1.072s-.319999.6426654-.528.904-.466665.4693326-.776.624-.703998.232-1.184.232c-.426669 0-.847998-.0319997-1.264-.096v-1.536c.149334.0213334.293333.0453332.432.072s.282666.04.432.04c.213334 0 .389333-.0266664.528-.08s.253333-.1306662.344-.232.168-.2213326.232-.36.122666-.2986658.176-.48l.208-.64z" fill="#4a4a4a"/></g></g></g></svg>