<svg height="502" viewBox="0 0 442 502" width="442" xmlns="http://www.w3.org/2000/svg" xmlns:xlink="http://www.w3.org/1999/xlink"><defs><rect id="a" height="162" rx="10" width="434"/><filter id="b" height="108.6%" width="103.2%" x="-1.6%" y="-3.1%"><feOffset dx="0" dy="2" in="SourceAlpha" result="shadowOffsetOuter1"/><feGaussianBlur in="shadowOffsetOuter1" result="shadowBlurOuter1" stdDeviation="2"/><feColorMatrix in="shadowBlurOuter1" type="matrix" values="0 0 0 0 0   0 0 0 0 0   0 0 0 0 0  0 0 0 0.5 0"/></filter><rect id="c" height="142" rx="10" width="382"/><filter id="d" height="109.9%" width="103.7%" x="-1.8%" y="-3.5%"><feOffset dx="0" dy="2" in="SourceAlpha" result="shadowOffsetOuter1"/><feGaussianBlur in="shadowOffsetOuter1" result="shadowBlurOuter1" stdDeviation="2"/><feColorMatrix in="shadowBlurOuter1" type="matrix" values="0 0 0 0 0   0 0 0 0 0   0 0 0 0 0  0 0 0 0.5 0"/></filter><rect id="e" height="90" rx="10" width="236"/><filter id="f" height="115.6%" width="105.9%" x="-3%" y="-5.6%"><feOffset dx="0" dy="2" in="SourceAlpha" result="shadowOffsetOuter1"/><feGaussianBlur in="shadowOffsetOuter1" result="shadowBlurOuter1" stdDeviation="2"/><feColorMatrix in="shadowBlurOuter1" type="matrix" values="0 0 0 0 0   0 0 0 0 0   0 0 0 0 0  0 0 0 0.5 0"/></filter><path id="g" d="m0 0h121v50h-121z"/><filter id="h" height="128%" width="111.6%" x="-5.8%"><feOffset dx="0" dy="2" in="SourceAlpha" result="shadowOffsetOuter1"/><feGaussianBlur in="shadowOffsetOuter1" result="shadowBlurOuter1" stdDeviation="2"/><feColorMatrix in="shadowBlurOuter1" type="matrix" values="0 0 0 0 0   0 0 0 0 0   0 0 0 0 0  0 0 0 0.5 0"/></filter><path id="i" d="m0 0h191v63h-191z"/><filter id="j" height="122.2%" width="107.3%" x="-3.7%" y="-7.9%"><feOffset dx="0" dy="2" in="SourceAlpha" result="shadowOffsetOuter1"/><feGaussianBlur in="shadowOffsetOuter1" result="shadowBlurOuter1" stdDeviation="2"/><feColorMatrix in="shadowBlurOuter1" type="matrix" values="0 0 0 0 0   0 0 0 0 0   0 0 0 0 0  0 0 0 0.5 0"/></filter><path id="k" d="m0 0h249v58h-249z"/><filter id="l" height="124.1%" width="105.6%" x="-2.8%" y="-8.6%"><feOffset dx="0" dy="2" in="SourceAlpha" result="shadowOffsetOuter1"/><feGaussianBlur in="shadowOffsetOuter1" result="shadowBlurOuter1" stdDeviation="2"/><feColorMatrix in="shadowBlurOuter1" type="matrix" values="0 0 0 0 0   0 0 0 0 0   0 0 0 0 0  0 0 0 0.5 0"/></filter></defs><g fill="none" fill-rule="evenodd"><g transform="translate(4 2)"><use fill="#000" filter="url(#b)" xlink:href="#a"/><use fill="#fff" fill-rule="evenodd" xlink:href="#a"/></g><g transform="translate(32 354)"><use fill="#000" filter="url(#d)" xlink:href="#c"/><use fill="#fff" fill-rule="evenodd" xlink:href="#c"/></g><g transform="translate(29 179)"><use fill="#000" filter="url(#f)" xlink:href="#e"/><use fill="#fff" fill-rule="evenodd" xlink:href="#e"/></g><g transform="translate(44 186)"><path d="m10 1.5c-4.69442037 0-8.5 3.80557963-8.5 8.5v50c0 4.6944204 3.80557963 8.5 8.5 8.5h180c4.69442 0 8.5-3.8055796 8.5-8.5v-50c0-4.69442037-3.80558-8.5-8.5-8.5z" fill="#fff" stroke="#e1584e" stroke-width="3"/><path d="m51 28h9.248v1.728h-3.632v9.696h-2v-9.696h-3.616zm14.224 6.56c-.0213334-.2880014-.0826662-.565332-.184-.832s-.2399991-.4986657-.416-.696-.3893321-.3573327-.64-.48-.5306651-.184-.84-.184c-.3200016 0-.6106654.0559994-.872.168s-.4853324.2666657-.672.464-.3359994.429332-.448.696-.1733333.5546651-.184.864zm-4.256 1.2c0 .3200016.0453329.6293318.136.928s.2266658.5599989.408.784.4106653.402666.688.536.6079981.2.992.2c.533336 0 .962665-.1146655 1.288-.344s.5679992-.573331.728-1.032h1.728c-.0960005.4480022-.2613322.8479982-.496 1.2s-.5173317.6479988-.848.888-.7013313.4213327-1.112.544-.8399978.184-1.288.184c-.6506699 0-1.2266642-.1066656-1.728-.32s-.9253316-.5119981-1.272-.896-.6079991-.842664-.784-1.376-.264-1.1199968-.264-1.76c0-.5866696.0933324-1.1439974.28-1.672s.4533316-.991998.8-1.392.7653309-.7173322 1.256-.952 1.0453302-.352 1.664-.352c.6506699 0 1.2346641.1359986 1.752.408s.946665.6319978 1.288 1.08.5893326.9626638.744 1.544.194667 1.1813302.12 1.8zm7.52-7.76h1.824v11.424h-1.824zm9.488 6.56c-.0213334-.2880014-.0826662-.565332-.184-.832s-.2399991-.4986657-.416-.696-.3893321-.3573327-.64-.48-.5306651-.184-.84-.184c-.3200016 0-.6106654.0559994-.872.168s-.4853324.2666657-.672.464-.3359994.429332-.448.696-.1733333.5546651-.184.864zm-4.256 1.2c0 .3200016.0453329.6293318.136.928s.2266658.5599989.408.784.4106653.402666.688.536.6079981.2.992.2c.533336 0 .962665-.1146655 1.288-.344s.5679992-.573331.728-1.032h1.728c-.0960005.4480022-.2613322.8479982-.496 1.2s-.5173317.6479988-.848.888-.7013313.4213327-1.112.544-.8399978.184-1.288.184c-.6506699 0-1.2266642-.1066656-1.728-.32s-.9253316-.5119981-1.272-.896-.6079991-.842664-.784-1.376-.264-1.1199968-.264-1.76c0-.5866696.0933324-1.1439974.28-1.672s.4533316-.991998.8-1.392.7653309-.7173322 1.256-.952 1.0453302-.352 1.664-.352c.6506699 0 1.2346641.1359986 1.752.408s.946665.6319978 1.288 1.08.5893326.9626638.744 1.544.194667 1.1813302.12 1.8zm7.52-4.608h1.728v1.12h.032c.2560013-.4800024.613331-.823999 1.072-1.032s.954664-.312 1.488-.312c.6506699 0 1.2186642.1146655 1.704.344s.8879984.543998 1.208.944.5599992.866664.72 1.4.24 1.103997.24 1.712c0 .5546694-.0719993 1.0933307-.216 1.616s-.3626652.984-.656 1.384c-.2933348.400002-.6639978.7199988-1.112.96s-.975997.36-1.584.36c-.266668 0-.533332-.0239998-.8-.072s-.5226654-.1253328-.768-.232-.471999-.2426658-.68-.408-.3813326-.3599989-.52-.584h-.032v4.128h-1.824zm6.368 4.144c0-.3733352-.0479995-.7359982-.144-1.088s-.239999-.6639986-.432-.936-.4319986-.4906658-.72-.656-.6186648-.248-.992-.248c-.7680038 0-1.3466647.266664-1.736.8s-.584 1.2426622-.584 2.128c0 .4160021.0506662.8026649.152 1.16s.2533323.6639987.456.92.4453319.4586659.728.608.6106648.224.984.224c.4160021 0 .7679986-.0853325 1.056-.256s.5253324-.3919986.712-.664.3199996-.5813316.4-.928.12-.7013315.12-1.064zm7.152 4.352c-.6613366 0-1.2506641-.1093322-1.768-.328s-.9546649-.5199981-1.312-.904-.6293324-.842664-.816-1.376-.28-1.1199968-.28-1.76c0-.6293365.0933324-1.210664.28-1.744s.4586649-.9919981.816-1.376.7946641-.6853322 1.312-.904 1.1066634-.328 1.768-.328 1.2506641.1093322 1.768.328.9546649.5199981 1.312.904.6293324.842664.816 1.376.28 1.1146635.28 1.744c0 .6400032-.0933324 1.226664-.28 1.76s-.4586649.9919981-.816 1.376-.7946641.6853322-1.312.904-1.1066634.328-1.768.328zm0-1.44c.4053354 0 .7573318-.0853325 1.056-.256s.543999-.3946653.736-.672.3333329-.5893316.424-.936.136-.7013315.136-1.064c0-.3520018-.0453329-.7039982-.136-1.056s-.231999-.6639986-.424-.936-.4373318-.4933325-.736-.664-.6506646-.256-1.056-.256-.7573318.0853325-1.056.256-.543999.3919986-.736.664-.3333329.5839982-.424.936-.136.7039982-.136 1.056c0 .3626685.0453329.7173316.136 1.064s.231999.6586653.424.936.4373318.5013325.736.672.6506646.256 1.056.256zm5.696-7.056h1.712v1.6h.032c.053334-.2240011.157333-.4426656.312-.656s.341332-.4079991.56-.584.461332-.3173328.728-.424.538665-.16.816-.16c.213334 0 .36.0053333.44.016s.162666.0213333.248.032v1.76c-.128001-.0213334-.258666-.0399999-.392-.056s-.263999-.024-.392-.024c-.309335 0-.599999.0613327-.872.184s-.509332.3039988-.712.544-.362666.5359982-.48.888-.176.757331-.176 1.216v3.936h-1.824zm4.8 0h1.376v-2.48h1.824v2.48h1.648v1.36h-1.648v4.416c0 .192001.008.3573326.024.496s.053333.2559995.112.352.146666.1679998.264.216.277332.072.48.072c.128001 0 .255999-.0026666.384-.008s.255999-.0239998.384-.056v1.408c-.202668.0213334-.399999.0426666-.592.064s-.389332.032-.592.032c-.480002 0-.866665-.0453329-1.16-.136s-.522666-.2239991-.688-.4-.277333-.397332-.336-.664-.093333-.570665-.104-.912v-4.88h-1.376zm13.92-3.152h2.128l4.4 11.424h-2.144l-1.072-3.024h-4.56l-1.072 3.024h-2.064zm-.704 6.88h3.488l-1.712-4.912h-.048zm15.328 4.544h-1.792v-1.152h-.032c-.224001.4160021-.557331.7493321-1 1s-.893331.376-1.352.376c-1.088 0-1.874664-.2693306-2.36-.808s-.728-1.3519946-.728-2.44v-5.248h1.824v5.072c0 .725337.138665 1.2373318.416 1.536s.666664.448 1.168.448c.384002 0 .703999-.0586661.96-.176s.463999-.2746657.624-.472.274666-.4346653.344-.712.104-.5759984.104-.896v-4.8h1.824zm1.088-8.272h1.376v-2.48h1.824v2.48h1.648v1.36h-1.648v4.416c0 .192001.008.3573326.024.496s.053333.2559995.112.352.146666.1679998.264.216.277332.072.48.072c.128001 0 .255999-.0026666.384-.008s.255999-.0239998.384-.056v1.408c-.202668.0213334-.399999.0426666-.592.064s-.389332.032-.592.032c-.480002 0-.866665-.0453329-1.16-.136s-.522666-.2239991-.688-.4-.277333-.397332-.336-.664-.093333-.570665-.104-.912v-4.88h-1.376zm6.16-3.152h1.824v4.24h.032c.224001-.3733352.557331-.6853321 1-.936s.935997-.376 1.48-.376c.906671 0 1.621331.2346643 2.144.704s.784 1.1733286.784 2.112v5.68h-1.824v-5.2c-.021333-.6506699-.159999-1.1226652-.416-1.416s-.655997-.44-1.2-.44c-.309335 0-.586665.0559994-.832.168s-.453332.2666657-.624.464-.304.429332-.4.696-.144.5493318-.144.848v4.88h-1.824z" fill="#4a4a4a"/></g><g transform="translate(44 407)"><path d="m10 1.5c-4.69442037 0-8.5 3.80557963-8.5 8.5v60c0 4.6944204 3.80557963 8.5 8.5 8.5h210c4.69442 0 8.5-3.8055796 8.5-8.5v-60c0-4.69442037-3.80558-8.5-8.5-8.5z" fill="#fff" stroke="#3662a2" stroke-width="3"/><path d="m63 33h9.2282475v1.6707182h-3.6242425v9.3745857h-1.9957283v-9.3745857h-3.6082767zm14.1936194 6.3425414c-.0212879-.2784544-.0824896-.5465917-.183607-.8044199-.1011174-.2578281-.2394865-.4821353-.4151115-.6729281-.175625-.1907929-.3885005-.3454875-.638633-.4640884-.2501326-.118601-.5295317-.1779006-.8382059-.1779006-.3193181 0-.6093611.0541431-.8701375.162431-.2607765.1082878-.4842958.2578259-.6705647.4486187-.1862689.1907929-.3352818.4151-.4470431.6729282-.1117614.2578282-.1729631.5362785-.183607.8353591zm-4.2469097 1.160221c0 .3093938.045236.60847.1357095.8972376.0904734.2887676.2261816.5414354.4071285.758011.180947.2165757.4097882.389318.6865306.5182321.2767423.1289141.6066994.1933702.9898812.1933702.5321968 0 .9606089-.1108645 1.285249-.3325967.3246401-.2217323.566786-.5543256.7264451-.9977901h1.7243092c-.0957955.4331514-.260774.8198878-.4949406 1.160221s-.5162268.6265182-.8461888.8585635c-.3299621.2320454-.6998333.4073659-1.1096249.5259669s-.8382037.1779006-1.285249.1779006c-.6492802 0-1.2240442-.1031298-1.7243092-.3093923-.5002651-.2062626-.9233553-.4950258-1.2692832-.8662984-.345928-.3712725-.6067005-.8147303-.7823255-1.3303867-.175625-.5156563-.2634361-1.0828698-.2634361-1.7016575 0-.5672219.093133-1.1060747.2794019-1.6165745s.4523634-.9591141.7982913-1.3458564c.345928-.3867423.7636963-.6935532 1.2533174-.920442s1.0430975-.3403315 1.6604459-.3403315c.6492802 0 1.232027.1314904 1.748258.3944752.5162309.2629847.944643.6110475 1.285249 1.0441989.3406059.4331513.5880738.9307522.7424109 1.4928176.1543371.5620655.1942512 1.1421702.1197437 1.7403315zm7.5039382-7.5027624h1.8201042v11.0453039h-1.8201042zm9.4677349 6.3425414c-.0212879-.2784544-.0824896-.5465917-.183607-.8044199-.1011174-.2578281-.2394865-.4821353-.4151115-.6729281-.175625-.1907929-.3885005-.3454875-.638633-.4640884-.2501326-.118601-.5295317-.1779006-.8382059-.1779006-.3193181 0-.6093611.0541431-.8701375.162431-.2607765.1082878-.4842958.2578259-.6705647.4486187-.1862689.1907929-.3352818.4151-.4470432.6729282-.1117613.2578282-.172963.5362785-.183607.8353591zm-4.2469098 1.160221c0 .3093938.0452361.60847.1357096.8972376.0904734.2887676.2261816.5414354.4071285.758011.180947.2165757.4097882.389318.6865306.5182321.2767423.1289141.6066994.1933702.9898812.1933702.5321968 0 .9606089-.1108645 1.285249-.3325967.3246401-.2217323.566786-.5543256.7264451-.9977901h1.7243092c-.0957955.4331514-.260774.8198878-.4949406 1.160221-.2341667.3403332-.5162268.6265182-.8461888.8585635-.3299621.2320454-.6998333.4073659-1.1096249.5259669s-.8382037.1779006-1.285249.1779006c-.6492802 0-1.2240442-.1031298-1.7243092-.3093923-.5002651-.2062626-.9233553-.4950258-1.2692832-.8662984-.345928-.3712725-.6067005-.8147303-.7823255-1.3303867-.175625-.5156563-.2634361-1.0828698-.2634361-1.7016575 0-.5672219.093133-1.1060747.2794019-1.6165745s.4523634-.9591141.7982913-1.3458564c.345928-.3867423.7636963-.6935532 1.2533174-.920442s1.0430975-.3403315 1.6604459-.3403315c.6492802 0 1.232027.1314904 1.7482579.3944752.516231.2629847.9446431.6110475 1.285249 1.0441989.340606.4331513.5880739.9307522.742411 1.4928176.1543371.5620655.1942512 1.1421702.1197437 1.7403315zm7.5039383-4.4552486h1.7243092v1.0828729h.0319317c.2554545-.4640907.612021-.796684 1.0697103-.99779s.952625-.3016575 1.4848218-.3016575c.6492802 0 1.2160614.1108645 1.7003605.3325967.4842992.2217322.8861022.5259649 1.2054202.9127072s.558803.8379348.718462 1.3535912c.159659.5156563.239487 1.0674003.239487 1.6552486 0 .5362826-.071845 1.0570877-.215538 1.5624309-.143694.5053432-.361891.9513793-.654599 1.3381216-.292709.3867422-.6625798.6961314-1.1096252.9281768-.4470453.2320453-.9739123.3480663-1.5806168.3480663-.2660984 0-.5321928-.0232042-.7982913-.0696133-.2660984-.0464091-.5215491-.1211781-.7663596-.2243094-.2448106-.1031313-.4709908-.2346217-.6785476-.3944751-.2075568-.1598535-.3805182-.3480653-.5188894-.5646409h-.0319316v3.9911602h-1.8201042zm6.3543988 4.0066298c0-.3609594-.047897-.7116005-.1436924-1.0519337-.0957955-.3403331-.2394865-.6419876-.4310774-.9049723-.1915908-.2629848-.4310758-.4744007-.7184621-.6342542-.2873863-.1598534-.6173434-.239779-.9898812-.239779-.7663635 0-1.3437885.2578243-1.7322922.7734807-.3885037.5156563-.5827526 1.201469-.5827526 2.0574585 0 .402212.0505579.7760573.1516753 1.121547.1011174.3454898.2527913.6419877.4550261.8895028.2022348.247515.4443807.4434615.7264451.5878453.2820643.1443838.6093605.2165746.9818983.2165746.4151135 0 .7663582-.0825038 1.0537445-.2475139.2873863-.16501.5242103-.3790042.7104792-.6419889s.3193162-.5620609.3991457-.8972376c.0798295-.3351766.1197437-.6780829.1197437-1.0287293zm7.1367239 4.2077349c-.659924 0-1.247992-.105708-1.764223-.3171271s-.952626-.5027606-1.309198-.8740332c-.356572-.3712725-.627988-.8147304-.814257-1.3303867-.186269-.5156564-.279402-1.0828698-.279402-1.7016575 0-.6084745.093133-1.1705315.279402-1.6861878.186269-.5156564.457685-.9591142.814257-1.3303868.356572-.3712725.792967-.662614 1.309198-.8740331s1.104299-.3171271 1.764223-.3171271 1.247993.105708 1.764224.3171271.952626.5027606 1.309198.8740331c.356572.3712726.627988.8147304.814257 1.3303868.186269.5156563.279402 1.0777133.279402 1.6861878 0 .6187877-.093133 1.1860011-.279402 1.7016575-.186269.5156563-.457685.9591142-.814257 1.3303867-.356572.3712726-.792967.6626141-1.309198.8740332s-1.1043.3171271-1.764224.3171271zm0-1.3922652c.40447 0 .755715-.0825038 1.053745-.2475139.29803-.16501.542837-.3815824.734428-.6497237s.332621-.5697958.423094-.9049724c.090474-.3351766.13571-.6780829.13571-1.0287293 0-.3403332-.045236-.6806612-.13571-1.0209944-.090473-.3403332-.231503-.6419877-.423094-.9049724-.191591-.2629848-.436398-.4769789-.734428-.641989-.29803-.16501-.649275-.2475138-1.053745-.2475138-.404469 0-.755714.0825038-1.053744.2475138-.29803.1650101-.542837.3790042-.734428.641989-.191591.2629847-.332621.5646392-.423095.9049724-.090473.3403332-.135709.6806612-.135709 1.0209944 0 .3506464.045236.6935527.135709 1.0287293.090474.3351766.231504.6368311.423095.9049724s.436398.4847137.734428.6497237c.29803.1650101.649275.2475139 1.053744.2475139zm5.683834-6.8220995h1.708344v1.5469613h.031931c.05322-.2165756.156997-.4279916.311334-.6342541s.340603-.3944743.558804-.5646409.460347-.3068135.726445-.4099447c.266099-.1031313.537515-.1546962.814257-.1546962.212879 0 .359231.0051565.43906.0154696.07983.0103132.162319.0206261.247471.0309393v1.7016574c-.127728-.0206262-.258114-.0386739-.391163-.0541436s-.263435-.0232044-.391163-.0232044c-.308674 0-.598717.0592995-.870137.1779005-.271421.118601-.508245.2939215-.71048.5259669-.202234.2320453-.361891.5182303-.478974.8585635-.117084.3403332-.175624.7322261-.175624 1.1756906v3.8055249h-1.820105zm4.789748 0h1.373061v-2.39779h1.820104v2.39779h1.644481v1.3149171h-1.644481v4.2696133c0 .1856363.007983.3454874.023949.479558.015966.1340707.053219.2475134.111761.3403315s.146353.1624307.263436.2088398.27674.0696132.478975.0696132c.127727 0 .255452-.0025782.38318-.0077348.127727-.0051565.255452-.0232042.38318-.0541436v1.361326c-.202235.0206262-.399145.0412522-.590736.0618784-.191591.0206263-.388501.0309392-.590736.0309392-.478977 0-.864814-.0438301-1.157522-.1314917s-.521549-.2165737-.68653-.3867403c-.164982-.1701666-.276741-.3841608-.335283-.641989-.058541-.2578281-.093134-.5517479-.103778-.8817679v-4.7182321h-1.373061zm10.760967-3.0475138h2.107489l5.204859 8.1370166h.031932v-8.1370166h1.899933v11.0453039h-2.107489l-5.188893-8.121547h-.047898v8.121547h-1.899933zm15.135603 11.2618785c-.659924 0-1.247993-.105708-1.764224-.3171271s-.952625-.5027606-1.309197-.8740332c-.356572-.3712725-.627989-.8147304-.814257-1.3303867-.186269-.5156564-.279402-1.0828698-.279402-1.7016575 0-.6084745.093133-1.1705315.279402-1.6861878.186268-.5156564.457685-.9591142.814257-1.3303868.356572-.3712725.792966-.662614 1.309197-.8740331s1.1043-.3171271 1.764224-.3171271 1.247993.105708 1.764224.3171271.952626.5027606 1.309198.8740331c.356572.3712726.627988.8147304.814257 1.3303868.186269.5156563.279402 1.0777133.279402 1.6861878 0 .6187877-.093133 1.1860011-.279402 1.7016575-.186269.5156563-.457685.9591142-.814257 1.3303867-.356572.3712726-.792967.6626141-1.309198.8740332s-1.1043.3171271-1.764224.3171271zm0-1.3922652c.40447 0 .755714-.0825038 1.053745-.2475139.29803-.16501.542837-.3815824.734428-.6497237s.332621-.5697958.423094-.9049724c.090474-.3351766.13571-.6780829.13571-1.0287293 0-.3403332-.045236-.6806612-.13571-1.0209944-.090473-.3403332-.231503-.6419877-.423094-.9049724-.191591-.2629848-.436398-.4769789-.734428-.641989-.298031-.16501-.649275-.2475138-1.053745-.2475138-.404469 0-.755714.0825038-1.053744.2475138-.298031.1650101-.542837.3790042-.734428.641989-.191591.2629847-.332621.5646392-.423095.9049724-.090473.3403332-.135709.6806612-.135709 1.0209944 0 .3506464.045236.6935527.135709 1.0287293.090474.3351766.231504.6368311.423095.9049724s.436397.4847137.734428.6497237c.29803.1650101.649275.2475139 1.053744.2475139zm13.459192 1.1756906h-1.72431v-1.082873h-.031931c-.244811.4640908-.601377.7966841-1.069711.9977901-.468333.201106-.963269.3016575-1.484821.3016575-.649281 0-1.216062-.1108645-1.700361-.3325967-.484299-.2217323-.886102-.5233867-1.20542-.9049724s-.558803-.8327783-.718462-1.3535912-.239487-1.0802916-.239487-1.678453c0-.7219189.101115-1.3458537.30335-1.8718232s.47099-.9591143.806275-1.2994475c.335284-.3403332.71846-.5904228 1.149539-.7502763.431079-.1598534.870135-.239779 1.317181-.239779.255454 0 .516227.0232042.782325.0696133.266099.0464091.521549.1211781.76636.2243094.24481.1031312.470991.2346216.678547.3944751.207557.1598535.380519.3480652.51889.5646409h.031931v-4.0839779h1.820105zm-6.354399-3.9138122c0 .3403332.045236.6755048.135709 1.0055249.090474.33002.228843.6239398.415112.8817679.186269.2578282.423093.4640877.710479.6187846s.627987.2320442 1.021813.2320442c.40447 0 .753053-.0825038 1.045762-.2475139.292708-.16501.532193-.3815824.718462-.6497237s.324638-.5697958.415111-.9049724c.090474-.3351766.13571-.6780829.13571-1.0287293 0-.8869289-.204893-1.577898-.614685-2.0729281-.409791-.4950301-.965929-.7425415-1.668428-.7425415-.425758 0-.784985.085082-1.077694.2552486-.292708.1701666-.532193.3918955-.718462.6651934s-.319316.582687-.399146.9281768c-.079829.3454898-.119743.6987091-.119743 1.0596685zm14.002029-.7889503c-.021288-.2784544-.082489-.5465917-.183607-.8044199-.101117-.2578281-.239486-.4821353-.415111-.6729281-.175625-.1907929-.388501-.3454875-.638633-.4640884-.250133-.118601-.529532-.1779006-.838206-.1779006-.319318 0-.609361.0541431-.870138.162431-.260776.1082878-.484295.2578259-.670564.4486187-.186269.1907929-.335282.4151-.447043.6729282-.111762.2578282-.172964.5362785-.183607.8353591zm-4.246909 1.160221c0 .3093938.045236.60847.135709.8972376.090474.2887676.226182.5414354.407129.758011.180947.2165757.409788.389318.68653.5182321.276743.1289141.6067.1933702.989881.1933702.532197 0 .960609-.1108645 1.285249-.3325967.32464-.2217323.566786-.5543256.726445-.9977901h1.72431c-.095796.4331514-.260774.8198878-.494941 1.160221s-.516227.6265182-.846189.8585635c-.329962.2320454-.699833.4073659-1.109625.5259669-.409791.118601-.838203.1779006-1.285249.1779006-.64928 0-1.224044-.1031298-1.724309-.3093923-.500265-.2062626-.923355-.4950258-1.269283-.8662984-.345928-.3712725-.606701-.8147303-.782326-1.3303867-.175624-.5156563-.263436-1.0828698-.263436-1.7016575 0-.5672219.093133-1.1060747.279402-1.6165745s.452364-.9591141.798292-1.3458564.763696-.6935532 1.253317-.920442 1.043098-.3403315 1.660446-.3403315c.64928 0 1.232027.1314904 1.748258.3944752.516231.2629847.944643.6110475 1.285249 1.0441989.340606.4331513.588074.9307522.742411 1.4928176.154337.5620655.194251 1.1421702.119743 1.7403315z" fill="#4a4a4a"/></g><g transform="translate(101 392)"><path d="m10 1.5c-4.69442037 0-8.5 3.80557963-8.5 8.5v60c0 4.6944204 3.80557963 8.5 8.5 8.5h210c4.69442 0 8.5-3.8055796 8.5-8.5v-60c0-4.69442037-3.80558-8.5-8.5-8.5z" fill="#fff" stroke="#3662a2" stroke-width="3"/><path d="m63 33h9.2282475v1.6707182h-3.6242425v9.3745857h-1.9957283v-9.3745857h-3.6082767zm14.1936194 6.3425414c-.0212879-.2784544-.0824896-.5465917-.183607-.8044199-.1011174-.2578281-.2394865-.4821353-.4151115-.6729281-.175625-.1907929-.3885005-.3454875-.638633-.4640884-.2501326-.118601-.5295317-.1779006-.8382059-.1779006-.3193181 0-.6093611.0541431-.8701375.162431-.2607765.1082878-.4842958.2578259-.6705647.4486187-.1862689.1907929-.3352818.4151-.4470431.6729282-.1117614.2578282-.1729631.5362785-.183607.8353591zm-4.2469097 1.160221c0 .3093938.045236.60847.1357095.8972376.0904734.2887676.2261816.5414354.4071285.758011.180947.2165757.4097882.389318.6865306.5182321.2767423.1289141.6066994.1933702.9898812.1933702.5321968 0 .9606089-.1108645 1.285249-.3325967.3246401-.2217323.566786-.5543256.7264451-.9977901h1.7243092c-.0957955.4331514-.260774.8198878-.4949406 1.160221s-.5162268.6265182-.8461888.8585635c-.3299621.2320454-.6998333.4073659-1.1096249.5259669s-.8382037.1779006-1.285249.1779006c-.6492802 0-1.2240442-.1031298-1.7243092-.3093923-.5002651-.2062626-.9233553-.4950258-1.2692832-.8662984-.345928-.3712725-.6067005-.8147303-.7823255-1.3303867-.175625-.5156563-.2634361-1.0828698-.2634361-1.7016575 0-.5672219.093133-1.1060747.2794019-1.6165745s.4523634-.9591141.7982913-1.3458564c.345928-.3867423.7636963-.6935532 1.2533174-.920442s1.0430975-.3403315 1.6604459-.3403315c.6492802 0 1.232027.1314904 1.748258.3944752.5162309.2629847.944643.6110475 1.285249 1.0441989.3406059.4331513.5880738.9307522.7424109 1.4928176.1543371.5620655.1942512 1.1421702.1197437 1.7403315zm7.5039382-7.5027624h1.8201042v11.0453039h-1.8201042zm9.4677349 6.3425414c-.0212879-.2784544-.0824896-.5465917-.183607-.8044199-.1011174-.2578281-.2394865-.4821353-.4151115-.6729281-.175625-.1907929-.3885005-.3454875-.638633-.4640884-.2501326-.118601-.5295317-.1779006-.8382059-.1779006-.3193181 0-.6093611.0541431-.8701375.162431-.2607765.1082878-.4842958.2578259-.6705647.4486187-.1862689.1907929-.3352818.4151-.4470432.6729282-.1117613.2578282-.172963.5362785-.183607.8353591zm-4.2469098 1.160221c0 .3093938.0452361.60847.1357096.8972376.0904734.2887676.2261816.5414354.4071285.758011.180947.2165757.4097882.389318.6865306.5182321.2767423.1289141.6066994.1933702.9898812.1933702.5321968 0 .9606089-.1108645 1.285249-.3325967.3246401-.2217323.566786-.5543256.7264451-.9977901h1.7243092c-.0957955.4331514-.260774.8198878-.4949406 1.160221-.2341667.3403332-.5162268.6265182-.8461888.8585635-.3299621.2320454-.6998333.4073659-1.1096249.5259669s-.8382037.1779006-1.285249.1779006c-.6492802 0-1.2240442-.1031298-1.7243092-.3093923-.5002651-.2062626-.9233553-.4950258-1.2692832-.8662984-.345928-.3712725-.6067005-.8147303-.7823255-1.3303867-.175625-.5156563-.2634361-1.0828698-.2634361-1.7016575 0-.5672219.093133-1.1060747.2794019-1.6165745s.4523634-.9591141.7982913-1.3458564c.345928-.3867423.7636963-.6935532 1.2533174-.920442s1.0430975-.3403315 1.6604459-.3403315c.6492802 0 1.232027.1314904 1.7482579.3944752.516231.2629847.9446431.6110475 1.285249 1.0441989.340606.4331513.5880739.9307522.742411 1.4928176.1543371.5620655.1942512 1.1421702.1197437 1.7403315zm7.5039383-4.4552486h1.7243092v1.0828729h.0319317c.2554545-.4640907.612021-.796684 1.0697103-.99779s.952625-.3016575 1.4848218-.3016575c.6492802 0 1.2160614.1108645 1.7003605.3325967.4842992.2217322.8861022.5259649 1.2054202.9127072s.558803.8379348.718462 1.3535912c.159659.5156563.239487 1.0674003.239487 1.6552486 0 .5362826-.071845 1.0570877-.215538 1.5624309-.143694.5053432-.361891.9513793-.654599 1.3381216-.292709.3867422-.6625798.6961314-1.1096252.9281768-.4470453.2320453-.9739123.3480663-1.5806168.3480663-.2660984 0-.5321928-.0232042-.7982913-.0696133-.2660984-.0464091-.5215491-.1211781-.7663596-.2243094-.2448106-.1031313-.4709908-.2346217-.6785476-.3944751-.2075568-.1598535-.3805182-.3480653-.5188894-.5646409h-.0319316v3.9911602h-1.8201042zm6.3543988 4.0066298c0-.3609594-.047897-.7116005-.1436924-1.0519337-.0957955-.3403331-.2394865-.6419876-.4310774-.9049723-.1915908-.2629848-.4310758-.4744007-.7184621-.6342542-.2873863-.1598534-.6173434-.239779-.9898812-.239779-.7663635 0-1.3437885.2578243-1.7322922.7734807-.3885037.5156563-.5827526 1.201469-.5827526 2.0574585 0 .402212.0505579.7760573.1516753 1.121547.1011174.3454898.2527913.6419877.4550261.8895028.2022348.247515.4443807.4434615.7264451.5878453.2820643.1443838.6093605.2165746.9818983.2165746.4151135 0 .7663582-.0825038 1.0537445-.2475139.2873863-.16501.5242103-.3790042.7104792-.6419889s.3193162-.5620609.3991457-.8972376c.0798295-.3351766.1197437-.6780829.1197437-1.0287293zm7.1367239 4.2077349c-.659924 0-1.247992-.105708-1.764223-.3171271s-.952626-.5027606-1.309198-.8740332c-.356572-.3712725-.627988-.8147304-.814257-1.3303867-.186269-.5156564-.279402-1.0828698-.279402-1.7016575 0-.6084745.093133-1.1705315.279402-1.6861878.186269-.5156564.457685-.9591142.814257-1.3303868.356572-.3712725.792967-.662614 1.309198-.8740331s1.104299-.3171271 1.764223-.3171271 1.247993.105708 1.764224.3171271.952626.5027606 1.309198.8740331c.356572.3712726.627988.8147304.814257 1.3303868.186269.5156563.279402 1.0777133.279402 1.6861878 0 .6187877-.093133 1.1860011-.279402 1.7016575-.186269.5156563-.457685.9591142-.814257 1.3303867-.356572.3712726-.792967.6626141-1.309198.8740332s-1.1043.3171271-1.764224.3171271zm0-1.3922652c.40447 0 .755715-.0825038 1.053745-.2475139.29803-.16501.542837-.3815824.734428-.6497237s.332621-.5697958.423094-.9049724c.090474-.3351766.13571-.6780829.13571-1.0287293 0-.3403332-.045236-.6806612-.13571-1.0209944-.090473-.3403332-.231503-.6419877-.423094-.9049724-.191591-.2629848-.436398-.4769789-.734428-.641989-.29803-.16501-.649275-.2475138-1.053745-.2475138-.404469 0-.755714.0825038-1.053744.2475138-.29803.1650101-.542837.3790042-.734428.641989-.191591.2629847-.332621.5646392-.423095.9049724-.090473.3403332-.135709.6806612-.135709 1.0209944 0 .3506464.045236.6935527.135709 1.0287293.090474.3351766.231504.6368311.423095.9049724s.436398.4847137.734428.6497237c.29803.1650101.649275.2475139 1.053744.2475139zm5.683834-6.8220995h1.708344v1.5469613h.031931c.05322-.2165756.156997-.4279916.311334-.6342541s.340603-.3944743.558804-.5646409.460347-.3068135.726445-.4099447c.266099-.1031313.537515-.1546962.814257-.1546962.212879 0 .359231.0051565.43906.0154696.07983.0103132.162319.0206261.247471.0309393v1.7016574c-.127728-.0206262-.258114-.0386739-.391163-.0541436s-.263435-.0232044-.391163-.0232044c-.308674 0-.598717.0592995-.870137.1779005-.271421.118601-.508245.2939215-.71048.5259669-.202234.2320453-.361891.5182303-.478974.8585635-.117084.3403332-.175624.7322261-.175624 1.1756906v3.8055249h-1.820105zm4.789748 0h1.373061v-2.39779h1.820104v2.39779h1.644481v1.3149171h-1.644481v4.2696133c0 .1856363.007983.3454874.023949.479558.015966.1340707.053219.2475134.111761.3403315s.146353.1624307.263436.2088398.27674.0696132.478975.0696132c.127727 0 .255452-.0025782.38318-.0077348.127727-.0051565.255452-.0232042.38318-.0541436v1.361326c-.202235.0206262-.399145.0412522-.590736.0618784-.191591.0206263-.388501.0309392-.590736.0309392-.478977 0-.864814-.0438301-1.157522-.1314917s-.521549-.2165737-.68653-.3867403c-.164982-.1701666-.276741-.3841608-.335283-.641989-.058541-.2578281-.093134-.5517479-.103778-.8817679v-4.7182321h-1.373061zm10.760967-3.0475138h2.107489l5.204859 8.1370166h.031932v-8.1370166h1.899933v11.0453039h-2.107489l-5.188893-8.121547h-.047898v8.121547h-1.899933zm15.135603 11.2618785c-.659924 0-1.247993-.105708-1.764224-.3171271s-.952625-.5027606-1.309197-.8740332c-.356572-.3712725-.627989-.8147304-.814257-1.3303867-.186269-.5156564-.279402-1.0828698-.279402-1.7016575 0-.6084745.093133-1.1705315.279402-1.6861878.186268-.5156564.457685-.9591142.814257-1.3303868.356572-.3712725.792966-.662614 1.309197-.8740331s1.1043-.3171271 1.764224-.3171271 1.247993.105708 1.764224.3171271.952626.5027606 1.309198.8740331c.356572.3712726.627988.8147304.814257 1.3303868.186269.5156563.279402 1.0777133.279402 1.6861878 0 .6187877-.093133 1.1860011-.279402 1.7016575-.186269.5156563-.457685.9591142-.814257 1.3303867-.356572.3712726-.792967.6626141-1.309198.8740332s-1.1043.3171271-1.764224.3171271zm0-1.3922652c.40447 0 .755714-.0825038 1.053745-.2475139.29803-.16501.542837-.3815824.734428-.6497237s.332621-.5697958.423094-.9049724c.090474-.3351766.13571-.6780829.13571-1.0287293 0-.3403332-.045236-.6806612-.13571-1.0209944-.090473-.3403332-.231503-.6419877-.423094-.9049724-.191591-.2629848-.436398-.4769789-.734428-.641989-.298031-.16501-.649275-.2475138-1.053745-.2475138-.404469 0-.755714.0825038-1.053744.2475138-.298031.1650101-.542837.3790042-.734428.641989-.191591.2629847-.332621.5646392-.423095.9049724-.090473.3403332-.135709.6806612-.135709 1.0209944 0 .3506464.045236.6935527.135709 1.0287293.090474.3351766.231504.6368311.423095.9049724s.436397.4847137.734428.6497237c.29803.1650101.649275.2475139 1.053744.2475139zm13.459192 1.1756906h-1.72431v-1.082873h-.031931c-.244811.4640908-.601377.7966841-1.069711.9977901-.468333.201106-.963269.3016575-1.484821.3016575-.649281 0-1.216062-.1108645-1.700361-.3325967-.484299-.2217323-.886102-.5233867-1.20542-.9049724s-.558803-.8327783-.718462-1.3535912-.239487-1.0802916-.239487-1.678453c0-.7219189.101115-1.3458537.30335-1.8718232s.47099-.9591143.806275-1.2994475c.335284-.3403332.71846-.5904228 1.149539-.7502763.431079-.1598534.870135-.239779 1.317181-.239779.255454 0 .516227.0232042.782325.0696133.266099.0464091.521549.1211781.76636.2243094.24481.1031312.470991.2346216.678547.3944751.207557.1598535.380519.3480652.51889.5646409h.031931v-4.0839779h1.820105zm-6.354399-3.9138122c0 .3403332.045236.6755048.135709 1.0055249.090474.33002.228843.6239398.415112.8817679.186269.2578282.423093.4640877.710479.6187846s.627987.2320442 1.021813.2320442c.40447 0 .753053-.0825038 1.045762-.2475139.292708-.16501.532193-.3815824.718462-.6497237s.324638-.5697958.415111-.9049724c.090474-.3351766.13571-.6780829.13571-1.0287293 0-.8869289-.204893-1.577898-.614685-2.0729281-.409791-.4950301-.965929-.7425415-1.668428-.7425415-.425758 0-.784985.085082-1.077694.2552486-.292708.1701666-.532193.3918955-.718462.6651934s-.319316.582687-.399146.9281768c-.079829.3454898-.119743.6987091-.119743 1.0596685zm14.002029-.7889503c-.021288-.2784544-.082489-.5465917-.183607-.8044199-.101117-.2578281-.239486-.4821353-.415111-.6729281-.175625-.1907929-.388501-.3454875-.638633-.4640884-.250133-.118601-.529532-.1779006-.838206-.1779006-.319318 0-.609361.0541431-.870138.162431-.260776.1082878-.484295.2578259-.670564.4486187-.186269.1907929-.335282.4151-.447043.6729282-.111762.2578282-.172964.5362785-.183607.8353591zm-4.246909 1.160221c0 .3093938.045236.60847.135709.8972376.090474.2887676.226182.5414354.407129.758011.180947.2165757.409788.389318.68653.5182321.276743.1289141.6067.1933702.989881.1933702.532197 0 .960609-.1108645 1.285249-.3325967.32464-.2217323.566786-.5543256.726445-.9977901h1.72431c-.095796.4331514-.260774.8198878-.494941 1.160221s-.516227.6265182-.846189.8585635c-.329962.2320454-.699833.4073659-1.109625.5259669-.409791.118601-.838203.1779006-1.285249.1779006-.64928 0-1.224044-.1031298-1.724309-.3093923-.500265-.2062626-.923355-.4950258-1.269283-.8662984-.345928-.3712725-.606701-.8147303-.782326-1.3303867-.175624-.5156563-.263436-1.0828698-.263436-1.7016575 0-.5672219.093133-1.1060747.279402-1.6165745s.452364-.9591141.798292-1.3458564.763696-.6935532 1.253317-.920442 1.043098-.3403315 1.660446-.3403315c.64928 0 1.232027.1314904 1.748258.3944752.516231.2629847.944643.6110475 1.285249 1.0441989.340606.4331513.588074.9307522.742411 1.4928176.154337.5620655.194251 1.1421702.119743 1.7403315z" fill="#4a4a4a"/></g><g transform="translate(159 375)"><path d="m10 1.5c-4.69442037 0-8.5 3.80557963-8.5 8.5v60c0 4.6944204 3.80557963 8.5 8.5 8.5h210c4.69442 0 8.5-3.8055796 8.5-8.5v-60c0-4.69442037-3.80558-8.5-8.5-8.5z" fill="#fff" stroke="#3662a2" stroke-width="3"/><path d="m63 33h9.2282475v1.6707182h-3.6242425v9.3745857h-1.9957283v-9.3745857h-3.6082767zm14.1936194 6.3425414c-.0212879-.2784544-.0824896-.5465917-.183607-.8044199-.1011174-.2578281-.2394865-.4821353-.4151115-.6729281-.175625-.1907929-.3885005-.3454875-.638633-.4640884-.2501326-.118601-.5295317-.1779006-.8382059-.1779006-.3193181 0-.6093611.0541431-.8701375.162431-.2607765.1082878-.4842958.2578259-.6705647.4486187-.1862689.1907929-.3352818.4151-.4470431.6729282-.1117614.2578282-.1729631.5362785-.183607.8353591zm-4.2469097 1.160221c0 .3093938.045236.60847.1357095.8972376.0904734.2887676.2261816.5414354.4071285.758011.180947.2165757.4097882.389318.6865306.5182321.2767423.1289141.6066994.1933702.9898812.1933702.5321968 0 .9606089-.1108645 1.285249-.3325967.3246401-.2217323.566786-.5543256.7264451-.9977901h1.7243092c-.0957955.4331514-.260774.8198878-.4949406 1.160221s-.5162268.6265182-.8461888.8585635c-.3299621.2320454-.6998333.4073659-1.1096249.5259669s-.8382037.1779006-1.285249.1779006c-.6492802 0-1.2240442-.1031298-1.7243092-.3093923-.5002651-.2062626-.9233553-.4950258-1.2692832-.8662984-.345928-.3712725-.6067005-.8147303-.7823255-1.3303867-.175625-.5156563-.2634361-1.0828698-.2634361-1.7016575 0-.5672219.093133-1.1060747.2794019-1.6165745s.4523634-.9591141.7982913-1.3458564c.345928-.3867423.7636963-.6935532 1.2533174-.920442s1.0430975-.3403315 1.6604459-.3403315c.6492802 0 1.232027.1314904 1.748258.3944752.5162309.2629847.944643.6110475 1.285249 1.0441989.3406059.4331513.5880738.9307522.7424109 1.4928176.1543371.5620655.1942512 1.1421702.1197437 1.7403315zm7.5039382-7.5027624h1.8201042v11.0453039h-1.8201042zm9.4677349 6.3425414c-.0212879-.2784544-.0824896-.5465917-.183607-.8044199-.1011174-.2578281-.2394865-.4821353-.4151115-.6729281-.175625-.1907929-.3885005-.3454875-.638633-.4640884-.2501326-.118601-.5295317-.1779006-.8382059-.1779006-.3193181 0-.6093611.0541431-.8701375.162431-.2607765.1082878-.4842958.2578259-.6705647.4486187-.1862689.1907929-.3352818.4151-.4470432.6729282-.1117613.2578282-.172963.5362785-.183607.8353591zm-4.2469098 1.160221c0 .3093938.0452361.60847.1357096.8972376.0904734.2887676.2261816.5414354.4071285.758011.180947.2165757.4097882.389318.6865306.5182321.2767423.1289141.6066994.1933702.9898812.1933702.5321968 0 .9606089-.1108645 1.285249-.3325967.3246401-.2217323.566786-.5543256.7264451-.9977901h1.7243092c-.0957955.4331514-.260774.8198878-.4949406 1.160221-.2341667.3403332-.5162268.6265182-.8461888.8585635-.3299621.2320454-.6998333.4073659-1.1096249.5259669s-.8382037.1779006-1.285249.1779006c-.6492802 0-1.2240442-.1031298-1.7243092-.3093923-.5002651-.2062626-.9233553-.4950258-1.2692832-.8662984-.345928-.3712725-.6067005-.8147303-.7823255-1.3303867-.175625-.5156563-.2634361-1.0828698-.2634361-1.7016575 0-.5672219.093133-1.1060747.2794019-1.6165745s.4523634-.9591141.7982913-1.3458564c.345928-.3867423.7636963-.6935532 1.2533174-.920442s1.0430975-.3403315 1.6604459-.3403315c.6492802 0 1.232027.1314904 1.7482579.3944752.516231.2629847.9446431.6110475 1.285249 1.0441989.340606.4331513.5880739.9307522.742411 1.4928176.1543371.5620655.1942512 1.1421702.1197437 1.7403315zm7.5039383-4.4552486h1.7243092v1.0828729h.0319317c.2554545-.4640907.612021-.796684 1.0697103-.99779s.952625-.3016575 1.4848218-.3016575c.6492802 0 1.2160614.1108645 1.7003605.3325967.4842992.2217322.8861022.5259649 1.2054202.9127072s.558803.8379348.718462 1.3535912c.159659.5156563.239487 1.0674003.239487 1.6552486 0 .5362826-.071845 1.0570877-.215538 1.5624309-.143694.5053432-.361891.9513793-.654599 1.3381216-.292709.3867422-.6625798.6961314-1.1096252.9281768-.4470453.2320453-.9739123.3480663-1.5806168.3480663-.2660984 0-.5321928-.0232042-.7982913-.0696133-.2660984-.0464091-.5215491-.1211781-.7663596-.2243094-.2448106-.1031313-.4709908-.2346217-.6785476-.3944751-.2075568-.1598535-.3805182-.3480653-.5188894-.5646409h-.0319316v3.9911602h-1.8201042zm6.3543988 4.0066298c0-.3609594-.047897-.7116005-.1436924-1.0519337-.0957955-.3403331-.2394865-.6419876-.4310774-.9049723-.1915908-.2629848-.4310758-.4744007-.7184621-.6342542-.2873863-.1598534-.6173434-.239779-.9898812-.239779-.7663635 0-1.3437885.2578243-1.7322922.7734807-.3885037.5156563-.5827526 1.201469-.5827526 2.0574585 0 .402212.0505579.7760573.1516753 1.121547.1011174.3454898.2527913.6419877.4550261.8895028.2022348.247515.4443807.4434615.7264451.5878453.2820643.1443838.6093605.2165746.9818983.2165746.4151135 0 .7663582-.0825038 1.0537445-.2475139.2873863-.16501.5242103-.3790042.7104792-.6419889s.3193162-.5620609.3991457-.8972376c.0798295-.3351766.1197437-.6780829.1197437-1.0287293zm7.1367239 4.2077349c-.659924 0-1.247992-.105708-1.764223-.3171271s-.952626-.5027606-1.309198-.8740332c-.356572-.3712725-.627988-.8147304-.814257-1.3303867-.186269-.5156564-.279402-1.0828698-.279402-1.7016575 0-.6084745.093133-1.1705315.279402-1.6861878.186269-.5156564.457685-.9591142.814257-1.3303868.356572-.3712725.792967-.662614 1.309198-.8740331s1.104299-.3171271 1.764223-.3171271 1.247993.105708 1.764224.3171271.952626.5027606 1.309198.8740331c.356572.3712726.627988.8147304.814257 1.3303868.186269.5156563.279402 1.0777133.279402 1.6861878 0 .6187877-.093133 1.1860011-.279402 1.7016575-.186269.5156563-.457685.9591142-.814257 1.3303867-.356572.3712726-.792967.6626141-1.309198.8740332s-1.1043.3171271-1.764224.3171271zm0-1.3922652c.40447 0 .755715-.0825038 1.053745-.2475139.29803-.16501.542837-.3815824.734428-.6497237s.332621-.5697958.423094-.9049724c.090474-.3351766.13571-.6780829.13571-1.0287293 0-.3403332-.045236-.6806612-.13571-1.0209944-.090473-.3403332-.231503-.6419877-.423094-.9049724-.191591-.2629848-.436398-.4769789-.734428-.641989-.29803-.16501-.649275-.2475138-1.053745-.2475138-.404469 0-.755714.0825038-1.053744.2475138-.29803.1650101-.542837.3790042-.734428.641989-.191591.2629847-.332621.5646392-.423095.9049724-.090473.3403332-.135709.6806612-.135709 1.0209944 0 .3506464.045236.6935527.135709 1.0287293.090474.3351766.231504.6368311.423095.9049724s.436398.4847137.734428.6497237c.29803.1650101.649275.2475139 1.053744.2475139zm5.683834-6.8220995h1.708344v1.5469613h.031931c.05322-.2165756.156997-.4279916.311334-.6342541s.340603-.3944743.558804-.5646409.460347-.3068135.726445-.4099447c.266099-.1031313.537515-.1546962.814257-.1546962.212879 0 .359231.0051565.43906.0154696.07983.0103132.162319.0206261.247471.0309393v1.7016574c-.127728-.0206262-.258114-.0386739-.391163-.0541436s-.263435-.0232044-.391163-.0232044c-.308674 0-.598717.0592995-.870137.1779005-.271421.118601-.508245.2939215-.71048.5259669-.202234.2320453-.361891.5182303-.478974.8585635-.117084.3403332-.175624.7322261-.175624 1.1756906v3.8055249h-1.820105zm4.789748 0h1.373061v-2.39779h1.820104v2.39779h1.644481v1.3149171h-1.644481v4.2696133c0 .1856363.007983.3454874.023949.479558.015966.1340707.053219.2475134.111761.3403315s.146353.1624307.263436.2088398.27674.0696132.478975.0696132c.127727 0 .255452-.0025782.38318-.0077348.127727-.0051565.255452-.0232042.38318-.0541436v1.361326c-.202235.0206262-.399145.0412522-.590736.0618784-.191591.0206263-.388501.0309392-.590736.0309392-.478977 0-.864814-.0438301-1.157522-.1314917s-.521549-.2165737-.68653-.3867403c-.164982-.1701666-.276741-.3841608-.335283-.641989-.058541-.2578281-.093134-.5517479-.103778-.8817679v-4.7182321h-1.373061zm10.760967-3.0475138h2.107489l5.204859 8.1370166h.031932v-8.1370166h1.899933v11.0453039h-2.107489l-5.188893-8.121547h-.047898v8.121547h-1.899933zm15.135603 11.2618785c-.659924 0-1.247993-.105708-1.764224-.3171271s-.952625-.5027606-1.309197-.8740332c-.356572-.3712725-.627989-.8147304-.814257-1.3303867-.186269-.5156564-.279402-1.0828698-.279402-1.7016575 0-.6084745.093133-1.1705315.279402-1.6861878.186268-.5156564.457685-.9591142.814257-1.3303868.356572-.3712725.792966-.662614 1.309197-.8740331s1.1043-.3171271 1.764224-.3171271 1.247993.105708 1.764224.3171271.952626.5027606 1.309198.8740331c.356572.3712726.627988.8147304.814257 1.3303868.186269.5156563.279402 1.0777133.279402 1.6861878 0 .6187877-.093133 1.1860011-.279402 1.7016575-.186269.5156563-.457685.9591142-.814257 1.3303867-.356572.3712726-.792967.6626141-1.309198.8740332s-1.1043.3171271-1.764224.3171271zm0-1.3922652c.40447 0 .755714-.0825038 1.053745-.2475139.29803-.16501.542837-.3815824.734428-.6497237s.332621-.5697958.423094-.9049724c.090474-.3351766.13571-.6780829.13571-1.0287293 0-.3403332-.045236-.6806612-.13571-1.0209944-.090473-.3403332-.231503-.6419877-.423094-.9049724-.191591-.2629848-.436398-.4769789-.734428-.641989-.298031-.16501-.649275-.2475138-1.053745-.2475138-.404469 0-.755714.0825038-1.053744.2475138-.298031.1650101-.542837.3790042-.734428.641989-.191591.2629847-.332621.5646392-.423095.9049724-.090473.3403332-.135709.6806612-.135709 1.0209944 0 .3506464.045236.6935527.135709 1.0287293.090474.3351766.231504.6368311.423095.9049724s.436397.4847137.734428.6497237c.29803.1650101.649275.2475139 1.053744.2475139zm13.459192 1.1756906h-1.72431v-1.082873h-.031931c-.244811.4640908-.601377.7966841-1.069711.9977901-.468333.201106-.963269.3016575-1.484821.3016575-.649281 0-1.216062-.1108645-1.700361-.3325967-.484299-.2217323-.886102-.5233867-1.20542-.9049724s-.558803-.8327783-.718462-1.3535912-.239487-1.0802916-.239487-1.678453c0-.7219189.101115-1.3458537.30335-1.8718232s.47099-.9591143.806275-1.2994475c.335284-.3403332.71846-.5904228 1.149539-.7502763.431079-.1598534.870135-.239779 1.317181-.239779.255454 0 .516227.0232042.782325.0696133.266099.0464091.521549.1211781.76636.2243094.24481.1031312.470991.2346216.678547.3944751.207557.1598535.380519.3480652.51889.5646409h.031931v-4.0839779h1.820105zm-6.354399-3.9138122c0 .3403332.045236.6755048.135709 1.0055249.090474.33002.228843.6239398.415112.8817679.186269.2578282.423093.4640877.710479.6187846s.627987.2320442 1.021813.2320442c.40447 0 .753053-.0825038 1.045762-.2475139.292708-.16501.532193-.3815824.718462-.6497237s.324638-.5697958.415111-.9049724c.090474-.3351766.13571-.6780829.13571-1.0287293 0-.8869289-.204893-1.577898-.614685-2.0729281-.409791-.4950301-.965929-.7425415-1.668428-.7425415-.425758 0-.784985.085082-1.077694.2552486-.292708.1701666-.532193.3918955-.718462.6651934s-.319316.582687-.399146.9281768c-.079829.3454898-.119743.6987091-.119743 1.0596685zm14.002029-.7889503c-.021288-.2784544-.082489-.5465917-.183607-.8044199-.101117-.2578281-.239486-.4821353-.415111-.6729281-.175625-.1907929-.388501-.3454875-.638633-.4640884-.250133-.118601-.529532-.1779006-.838206-.1779006-.319318 0-.609361.0541431-.870138.162431-.260776.1082878-.484295.2578259-.670564.4486187-.186269.1907929-.335282.4151-.447043.6729282-.111762.2578282-.172964.5362785-.183607.8353591zm-4.246909 1.160221c0 .3093938.045236.60847.135709.8972376.090474.2887676.226182.5414354.407129.758011.180947.2165757.409788.389318.68653.5182321.276743.1289141.6067.1933702.989881.1933702.532197 0 .960609-.1108645 1.285249-.3325967.32464-.2217323.566786-.5543256.726445-.9977901h1.72431c-.095796.4331514-.260774.8198878-.494941 1.160221s-.516227.6265182-.846189.8585635c-.329962.2320454-.699833.4073659-1.109625.5259669-.409791.118601-.838203.1779006-1.285249.1779006-.64928 0-1.224044-.1031298-1.724309-.3093923-.500265-.2062626-.923355-.4950258-1.269283-.8662984-.345928-.3712725-.606701-.8147303-.782326-1.3303867-.175624-.5156563-.263436-1.0828698-.263436-1.7016575 0-.5672219.093133-1.1060747.279402-1.6165745s.452364-.9591141.798292-1.3458564.763696-.6935532 1.253317-.920442 1.043098-.3403315 1.660446-.3403315c.64928 0 1.232027.1314904 1.748258.3944752.516231.2629847.944643.6110475 1.285249 1.0441989.340606.4331513.588074.9307522.742411 1.4928176.154337.5620655.194251 1.1421702.119743 1.7403315z" fill="#4a4a4a"/></g><g transform="translate(15 17)"><use fill="#000" filter="url(#h)" xlink:href="#g"/><use fill="#fff" fill-rule="evenodd" xlink:href="#g"/><text fill="#4a4a4a" font-family="LucidaGrande-Bold, Lucida Grande" font-size="11" font-weight="bold"><tspan x="5.215517" y="17">Teleport User: login</tspan> <tspan x="117.43915" y="17"/> <tspan font-family="LucidaGrande, Lucida Grande" font-weight="normal" x="5.215517" y="30">joe : root, joe</tspan> <tspan font-family="LucidaGrande, Lucida Grande" font-weight="normal" x="5.215517" y="43">tara : tara</tspan></text></g><g transform="translate(39 75)"><use fill="#000" filter="url(#j)" xlink:href="#i"/><use fill="#fff" fill-rule="evenodd" xlink:href="#i"/><text fill="#4a4a4a" font-family="LucidaGrande-Bold, Lucida Grande" font-size="11" font-weight="bold"><tspan x="4.60241" y="17">Node : IP : Labels</tspan> <tspan font-family="LucidaGrande, Lucida Grande" font-weight="normal" x="4.60241" y="30">grav-00 : 10.X.X.1 : arch=ubuntu</tspan> <tspan font-family="LucidaGrande, Lucida Grande" font-weight="normal" x="4.60241" y="43">grav-01 : 10.X.X.2 : arch=debian</tspan> <tspan font-family="LucidaGrande, Lucida Grande" font-weight="normal" x="4.60241" y="56">grav-02 : 10.X.X.3 : arch=rhel</tspan> <tspan x="166.385124" y="56"/><tspan x="4.60241" y="69"/></text></g><g transform="translate(140 13)"><use fill="#000" filter="url(#l)" xlink:href="#k"/><use fill="#fff" fill-rule="evenodd" xlink:href="#k"/><text fill="#4a4a4a" font-family="LucidaGrande-Bold, Lucida Grande" font-size="11" font-weight="bold"><tspan x="6" y="17">Tokens: Expiry: Type</tspan> <tspan font-family="LucidaGrande, Lucida Grande" font-weight="normal" x="6" y="30">fuzzywuzzywasabear : 2019-10-19 : Node</tspan> <tspan font-family="LucidaGrande, Lucida Grande" font-weight="normal" x="6" y="43">BBBCDDDDBBBBBBBB : 2019-10-16 : User</tspan></text></g><g transform="translate(234 77)"><path d="m1.5 1.5h163v77h-163z" fill="#eef4f9" stroke="#d1eaff" stroke-width="3"/><text fill="#4a4a4a" font-family="LucidaGrande, Lucida Grande" font-size="13"><tspan x="11.661095" y="18.1519">Cluster State is stored</tspan><tspan x="6.338586" y="34.1519">in a location configured</tspan><tspan x="19.465539" y="50.1519">by the auth service,</tspan><tspan x="27.561974" y="66.1519">locally by default</tspan></text></g><g fill="#979797" fill-rule="nonzero"><path d="m227.5 254 4.5 9h-4v113h-1v-113h-4z"/><path d="m78.5 256 4.5 9h-4v141h-1v-141h-4z"/><path d="m147.5 254 4.5 9h-4v129h-1v-129h-4z"/></g><path d="m11 299v40h124v-40z" fill="#fff" stroke="#979797" stroke-width="2"/><text fill="#4a4a4a" font-family="LucidaGrande, Lucida Grande" font-size="11"><tspan x="20" y="316">IP: 10.X.X.1</tspan> <tspan x="20" y="329">Labels: arch=ubuntu</tspan></text><path d="m160 297v40h124v-40z" fill="#fff" stroke="#979797" stroke-width="2"/><text fill="#4a4a4a" font-family="LucidaGrande, Lucida Grande" font-size="11"><tspan x="169" y="314">IP: 10.X.X.3</tspan> <tspan x="169" y="327">Labels: arch=rhel</tspan></text><path d="m86 347v40h124v-40z" fill="#fff" stroke="#979797" stroke-width="2"/><text fill="#4a4a4a" font-family="LucidaGrande, Lucida Grande" font-size="11"><tspan x="93" y="363">IP: 10.X.X.2</tspan> <tspan x="93" y="376">Labels: arch=debian</tspan></text><path d="m7.5 175.5h430" stroke="#979797" stroke-linecap="square" stroke-width="3"/><path d="m146.5 163 4.5 9h-4v15h-1v-15h-4z" fill="#979797" fill-rule="nonzero"/></g></svg>