<svg height="629" viewBox="0 0 946 629" width="946" xmlns="http://www.w3.org/2000/svg" xmlns:xlink="http://www.w3.org/1999/xlink"><defs><filter id="a" height="136.7%" width="116.3%" x="-8.2%" y="-11%"><feOffset dx="0" dy="1" in="SourceAlpha" result="shadowOffsetOuter1"/><feGaussianBlur in="shadowOffsetOuter1" result="shadowBlurOuter1" stdDeviation=".5"/><feColorMatrix in="shadowBlurOuter1" result="shadowMatrixOuter1" type="matrix" values="0 0 0 0 0   0 0 0 0 0   0 0 0 0 0  0 0 0 0.5 0"/><feMerge><feMergeNode in="shadowMatrixOuter1"/><feMergeNode in="SourceGraphic"/></feMerge></filter><path id="b" d="m12.819426 0h219.361148c4.457594 0 6.074025.46412806 7.703655 1.33566352 1.629629.87153546 2.908572 2.15047833 3.780107 3.78010796.871536 1.62962963 1.335664 3.24606082 1.335664 7.70365452v83.361148c0 4.457594-.464128 6.074025-1.335664 7.703655-.871535 1.629629-2.150478 2.908572-3.780107 3.780107-1.62963.871536-3.246061 1.335664-7.703655 1.335664h-219.361148c-4.4575937 0-6.07402489-.464128-7.70365452-1.335664-1.62962963-.871535-2.9085725-2.150478-3.78010796-3.780107-.87153546-1.62963-1.33566352-3.246061-1.33566352-7.703655v-83.361148c0-4.4575937.46412806-6.07402489 1.33566352-7.70365452s2.15047833-2.9085725 3.78010796-3.78010796 3.24606082-1.33566352 7.70365452-1.33566352z"/><filter id="c" height="151.4%" width="122.9%" x="-11.4%" y="-18.3%"><feOffset dx="0" dy="8" in="SourceAlpha" result="shadowOffsetOuter1"/><feGaussianBlur in="shadowOffsetOuter1" result="shadowBlurOuter1" stdDeviation="8"/><feColorMatrix in="shadowBlurOuter1" type="matrix" values="0 0 0 0 0   0 0 0 0 0   0 0 0 0 0  0 0 0 0.103742074 0"/></filter><filter id="d" height="110%" width="108.1%" x="-4%" y="-3%"><feOffset dx="0" dy="1" in="SourceAlpha" result="shadowOffsetOuter1"/><feGaussianBlur in="shadowOffsetOuter1" result="shadowBlurOuter1" stdDeviation=".5"/><feColorMatrix in="shadowBlurOuter1" result="shadowMatrixOuter1" type="matrix" values="0 0 0 0 0   0 0 0 0 0   0 0 0 0 0  0 0 0 0.5 0"/><feMerge><feMergeNode in="shadowMatrixOuter1"/><feMergeNode in="SourceGraphic"/></feMerge></filter><path id="e" d="m12.819426 0h184.361148c4.457594 0 6.074025.46412806 7.703655 1.33566352 1.629629.87153546 2.908572 2.15047833 3.780107 3.78010796.871536 1.62962963 1.335664 3.24606082 1.335664 7.70365452v293.361148c0 4.457594-.464128 6.074025-1.335664 7.703655-.871535 1.629629-2.150478 2.908572-3.780107 3.780107-1.62963.871536-3.246061 1.335664-7.703655 1.335664h-184.361148c-4.4575937 0-6.07402489-.464128-7.70365452-1.335664-1.62962963-.871535-2.9085725-2.150478-3.78010796-3.780107-.87153546-1.62963-1.33566352-3.246061-1.33566352-7.703655v-293.361148c0-4.4575937.46412806-6.07402489 1.33566352-7.70365452s2.15047833-2.9085725 3.78010796-3.78010796 3.24606082-1.33566352 7.70365452-1.33566352z"/><filter id="f" height="117.6%" width="126.7%" x="-13.3%" y="-6.3%"><feOffset dx="0" dy="8" in="SourceAlpha" result="shadowOffsetOuter1"/><feGaussianBlur in="shadowOffsetOuter1" result="shadowBlurOuter1" stdDeviation="8"/><feColorMatrix in="shadowBlurOuter1" type="matrix" values="0 0 0 0 0   0 0 0 0 0   0 0 0 0 0  0 0 0 0.103742074 0"/></filter><path id="g" d="m262.819426 292h219.361148c4.457594 0 6.074025.464128 7.703655 1.335664 1.629629.871535 2.908572 2.150478 3.780107 3.780107.871536 1.62963 1.335664 3.246061 1.335664 7.703655v83.361148c0 4.457594-.464128 6.074025-1.335664 7.703655-.871535 1.629629-2.150478 2.908572-3.780107 3.780107-1.62963.871536-3.246061 1.335664-7.703655 1.335664h-219.361148c-4.457594 0-6.074025-.464128-7.703655-1.335664-1.629629-.871535-2.908572-2.150478-3.780107-3.780107-.871536-1.62963-1.335664-3.246061-1.335664-7.703655v-83.361148c0-4.457594.464128-6.074025 1.335664-7.703655.871535-1.629629 2.150478-2.908572 3.780107-3.780107 1.62963-.871536 3.246061-1.335664 7.703655-1.335664z"/><filter id="h" height="151.4%" width="122.9%" x="-11.4%" y="-18.3%"><feOffset dx="0" dy="8" in="SourceAlpha" result="shadowOffsetOuter1"/><feGaussianBlur in="shadowOffsetOuter1" result="shadowBlurOuter1" stdDeviation="8"/><feColorMatrix in="shadowBlurOuter1" type="matrix" values="0 0 0 0 0   0 0 0 0 0   0 0 0 0 0  0 0 0 0.103742074 0"/></filter><filter id="i" height="128.4%" width="123.4%" x="-11.7%" y="-8.5%"><feOffset dx="0" dy="1" in="SourceAlpha" result="shadowOffsetOuter1"/><feGaussianBlur in="shadowOffsetOuter1" result="shadowBlurOuter1" stdDeviation=".5"/><feColorMatrix in="shadowBlurOuter1" result="shadowMatrixOuter1" type="matrix" values="0 0 0 0 0   0 0 0 0 0   0 0 0 0 0  0 0 0 0.5 0"/><feMerge><feMergeNode in="shadowMatrixOuter1"/><feMergeNode in="SourceGraphic"/></feMerge></filter><path id="j" d="m12.819426 0h145.361148c4.457594 0 6.074025.46412806 7.703655 1.33566352 1.629629.87153546 2.908572 2.15047833 3.780107 3.78010796.871536 1.62962963 1.335664 3.24606082 1.335664 7.70365452v115.361148c0 4.457594-.464128 6.074025-1.335664 7.703655-.871535 1.629629-2.150478 2.908572-3.780107 3.780107-1.62963.871536-3.246061 1.335664-7.703655 1.335664h-145.361148c-4.4575937 0-6.07402489-.464128-7.70365452-1.335664-1.62962963-.871535-2.9085725-2.150478-3.78010796-3.780107-.87153546-1.62963-1.33566352-3.246061-1.33566352-7.703655v-115.361148c0-4.4575937.46412806-6.07402489 1.33566352-7.70365452s2.15047833-2.9085725 3.78010796-3.78010796 3.24606082-1.33566352 7.70365452-1.33566352z"/><filter id="k" height="139.7%" width="132.7%" x="-16.4%" y="-14.2%"><feOffset dx="0" dy="8" in="SourceAlpha" result="shadowOffsetOuter1"/><feGaussianBlur in="shadowOffsetOuter1" result="shadowBlurOuter1" stdDeviation="8"/><feColorMatrix in="shadowBlurOuter1" type="matrix" values="0 0 0 0 0   0 0 0 0 0   0 0 0 0 0  0 0 0 0.103742074 0"/></filter><filter id="l" height="117.4%" width="113%" x="-6.5%" y="-5.2%"><feOffset dx="0" dy="1" in="SourceAlpha" result="shadowOffsetOuter1"/><feGaussianBlur in="shadowOffsetOuter1" result="shadowBlurOuter1" stdDeviation=".5"/><feColorMatrix in="shadowBlurOuter1" result="shadowMatrixOuter1" type="matrix" values="0 0 0 0 0   0 0 0 0 0   0 0 0 0 0  0 0 0 0.5 0"/><feMerge><feMergeNode in="shadowMatrixOuter1"/><feMergeNode in="SourceGraphic"/></feMerge></filter><path id="m" d="m12.819426 0h281.361148c4.457594 0 6.074025.46412806 7.703655 1.33566352 1.629629.87153546 2.908572 2.15047833 3.780107 3.78010796.871536 1.62962963 1.335664 3.24606082 1.335664 7.70365452v204.361148c0 4.457594-.464128 6.074025-1.335664 7.703655-.871535 1.629629-2.150478 2.908572-3.780107 3.780107-1.62963.871536-3.246061 1.335664-7.703655 1.335664h-281.361148c-4.4575937 0-6.07402489-.464128-7.70365452-1.335664-1.62962963-.871535-2.9085725-2.150478-3.78010796-3.780107-.87153546-1.62963-1.33566352-3.246061-1.33566352-7.703655v-204.361148c0-4.4575937.46412806-6.07402489 1.33566352-7.70365452s2.15047833-2.9085725 3.78010796-3.78010796 3.24606082-1.33566352 7.70365452-1.33566352z"/><filter id="n" height="124.3%" width="118.2%" x="-9.1%" y="-8.7%"><feOffset dx="0" dy="8" in="SourceAlpha" result="shadowOffsetOuter1"/><feGaussianBlur in="shadowOffsetOuter1" result="shadowBlurOuter1" stdDeviation="8"/><feColorMatrix in="shadowBlurOuter1" type="matrix" values="0 0 0 0 0   0 0 0 0 0   0 0 0 0 0  0 0 0 0.103742074 0"/></filter><filter id="o" height="118.6%" width="106.3%" x="-3.1%" y="-9.3%"><feOffset dx="0" dy="1" in="SourceAlpha" result="shadowOffsetOuter1"/><feGaussianBlur in="shadowOffsetOuter1" result="shadowBlurOuter1" stdDeviation="1"/><feColorMatrix in="shadowBlurOuter1" result="shadowMatrixOuter1" type="matrix" values="0 0 0 0 0   0 0 0 0 0   0 0 0 0 0  0 0 0 0.5 0"/><feMerge><feMergeNode in="shadowMatrixOuter1"/><feMergeNode in="SourceGraphic"/></feMerge></filter><filter id="p" height="106.8%" width="104.8%" x="-2.4%" y="-3.4%"><feOffset dx="0" dy="1" in="SourceAlpha" result="shadowOffsetOuter1"/><feGaussianBlur in="shadowOffsetOuter1" result="shadowBlurOuter1" stdDeviation="1"/><feColorMatrix in="shadowBlurOuter1" result="shadowMatrixOuter1" type="matrix" values="0 0 0 0 0   0 0 0 0 0   0 0 0 0 0  0 0 0 0.5 0"/><feMerge><feMergeNode in="shadowMatrixOuter1"/><feMergeNode in="SourceGraphic"/></feMerge></filter></defs><g fill="none" fill-rule="evenodd"><g filter="url(#a)" transform="translate(275 92)"><use fill="#000" filter="url(#c)" xlink:href="#b"/><use fill="#fff" fill-rule="evenodd" xlink:href="#b"/><g transform="translate(13 15)"><path d="m10 1.5c-4.69442037 0-8.5 3.80557963-8.5 8.5v60c0 4.6944204 3.80557963 8.5 8.5 8.5h200c4.69442 0 8.5-3.8055796 8.5-8.5v-60c0-4.69442037-3.80558-8.5-8.5-8.5z" fill="#fff" stroke="#40b6c6" stroke-width="3"/><path d="m57 33h9.248v1.728h-3.632v9.696h-2v-9.696h-3.616zm14.224 6.56c-.0213334-.2880014-.0826662-.565332-.184-.832s-.2399991-.4986657-.416-.696-.3893321-.3573327-.64-.48-.5306651-.184-.84-.184c-.3200016 0-.6106654.0559994-.872.168s-.4853324.2666657-.672.464-.3359994.429332-.448.696-.1733333.5546651-.184.864zm-4.256 1.2c0 .3200016.0453329.6293318.136.928s.2266658.5599989.408.784.4106653.402666.688.536.6079981.2.992.2c.533336 0 .962665-.1146655 1.288-.344s.5679992-.573331.728-1.032h1.728c-.0960005.4480022-.2613322.8479982-.496 1.2s-.5173317.6479988-.848.888-.7013313.4213327-1.112.544-.8399978.184-1.288.184c-.6506699 0-1.2266642-.1066656-1.728-.32s-.9253316-.5119981-1.272-.896-.6079991-.842664-.784-1.376-.264-1.1199968-.264-1.76c0-.5866696.0933324-1.1439974.28-1.672s.4533316-.991998.8-1.392.7653309-.7173322 1.256-.952 1.0453302-.352 1.664-.352c.6506699 0 1.2346641.1359986 1.752.408s.946665.6319978 1.288 1.08.5893326.9626638.744 1.544.194667 1.1813302.12 1.8zm7.52-7.76h1.824v11.424h-1.824zm9.488 6.56c-.0213334-.2880014-.0826662-.565332-.184-.832s-.2399991-.4986657-.416-.696-.3893321-.3573327-.64-.48-.5306651-.184-.84-.184c-.3200016 0-.6106654.0559994-.872.168s-.4853324.2666657-.672.464-.3359994.429332-.448.696-.1733333.5546651-.184.864zm-4.256 1.2c0 .3200016.0453329.6293318.136.928s.2266658.5599989.408.784.4106653.402666.688.536.6079981.2.992.2c.533336 0 .962665-.1146655 1.288-.344s.5679992-.573331.728-1.032h1.728c-.0960005.4480022-.2613322.8479982-.496 1.2s-.5173317.6479988-.848.888-.7013313.4213327-1.112.544-.8399978.184-1.288.184c-.6506699 0-1.2266642-.1066656-1.728-.32s-.9253316-.5119981-1.272-.896-.6079991-.842664-.784-1.376-.264-1.1199968-.264-1.76c0-.5866696.0933324-1.1439974.28-1.672s.4533316-.991998.8-1.392.7653309-.7173322 1.256-.952 1.0453302-.352 1.664-.352c.6506699 0 1.2346641.1359986 1.752.408s.946665.6319978 1.288 1.08.5893326.9626638.744 1.544.194667 1.1813302.12 1.8zm7.52-4.608h1.728v1.12h.032c.2560013-.4800024.613331-.823999 1.072-1.032s.954664-.312 1.488-.312c.6506699 0 1.2186642.1146655 1.704.344s.8879984.543998 1.208.944.5599992.866664.72 1.4.24 1.103997.24 1.712c0 .5546694-.0719993 1.0933307-.216 1.616s-.3626652.984-.656 1.384c-.2933348.400002-.6639978.7199988-1.112.96s-.975997.36-1.584.36c-.266668 0-.533332-.0239998-.8-.072s-.5226654-.1253328-.768-.232-.471999-.2426658-.68-.408-.3813326-.3599989-.52-.584h-.032v4.128h-1.824zm6.368 4.144c0-.3733352-.0479995-.7359982-.144-1.088s-.239999-.6639986-.432-.936-.4319986-.4906658-.72-.656-.6186648-.248-.992-.248c-.7680038 0-1.3466647.266664-1.736.8s-.584 1.2426622-.584 2.128c0 .4160021.0506662.8026649.152 1.16s.2533323.6639987.456.92.4453319.4586659.728.608.6106648.224.984.224c.4160021 0 .7679986-.0853325 1.056-.256s.5253324-.3919986.712-.664.3199996-.5813316.4-.928.12-.7013315.12-1.064zm7.152 4.352c-.661337 0-1.2506641-.1093322-1.768-.328s-.9546649-.5199981-1.312-.904-.6293324-.842664-.816-1.376-.28-1.1199968-.28-1.76c0-.6293365.0933324-1.210664.28-1.744s.4586649-.9919981.816-1.376.7946641-.6853322 1.312-.904 1.106663-.328 1.768-.328 1.250664.1093322 1.768.328.954665.5199981 1.312.904.629332.842664.816 1.376.28 1.1146635.28 1.744c0 .6400032-.093332 1.226664-.28 1.76s-.458665.9919981-.816 1.376-.794664.6853322-1.312.904-1.106663.328-1.768.328zm0-1.44c.405335 0 .757332-.0853325 1.056-.256s.543999-.3946653.736-.672.333333-.5893316.424-.936.136-.7013315.136-1.064c0-.3520018-.045333-.7039982-.136-1.056s-.231999-.6639986-.424-.936-.437332-.4933325-.736-.664-.650665-.256-1.056-.256-.757332.0853325-1.056.256c-.2986682.1706675-.543999.3919986-.736.664s-.3333329.5839982-.424.936-.136.7039982-.136 1.056c0 .3626685.0453329.7173316.136 1.064s.231999.6586653.424.936.4373318.5013325.736.672c.298668.1706675.650665.256 1.056.256zm5.696-7.056h1.712v1.6h.032c.053334-.2240011.157333-.4426656.312-.656s.341332-.4079991.56-.584.461332-.3173328.728-.424.538665-.16.816-.16c.213334 0 .36.0053333.44.016s.162666.0213333.248.032v1.76c-.128001-.0213334-.258666-.0399999-.392-.056s-.263999-.024-.392-.024c-.309335 0-.599999.0613327-.872.184s-.509332.3039988-.712.544-.362666.5359982-.48.888-.176.757331-.176 1.216v3.936h-1.824zm4.8 0h1.376v-2.48h1.824v2.48h1.648v1.36h-1.648v4.416c0 .192001.008.3573326.024.496s.053333.2559995.112.352.146666.1679998.264.216.277332.072.48.072c.128001 0 .255999-.0026666.384-.008s.255999-.0239998.384-.056v1.408c-.202668.0213334-.399999.0426666-.592.064s-.389332.032-.592.032c-.480002 0-.866665-.0453329-1.16-.136s-.522666-.2239991-.688-.4-.277333-.397332-.336-.664-.093333-.570665-.104-.912v-4.88h-1.376zm10.864-3.152h5.04c.810671 0 1.471997.1173322 1.984.352s.906665.5279982 1.184.88.466666.7359979.568 1.152.152.7999982.152 1.152-.050666.7333313-.152 1.144-.290665.7919982-.568 1.144-.671997.6426655-1.184.872-1.173329.344-1.984.344h-3.04v4.384h-2zm2 5.408h2.928c.224001 0 .453332-.0319997.688-.096s.450666-.1679993.648-.312.357333-.3359988.48-.576.184-.5413315.184-.904c0-.3733352-.053333-.6826654-.16-.928s-.250666-.4399993-.432-.584-.389332-.2426664-.624-.296-.485332-.08-.752-.08h-2.96zm8.416-2.256h1.712v1.6h.032c.053334-.2240011.157333-.4426656.312-.656s.341332-.4079991.56-.584.461332-.3173328.728-.424.538665-.16.816-.16c.213334 0 .36.0053333.44.016s.162666.0213333.248.032v1.76c-.128001-.0213334-.258666-.0399999-.392-.056s-.263999-.024-.392-.024c-.309335 0-.599999.0613327-.872.184s-.509332.3039988-.712.544-.362666.5359982-.48.888-.176.757331-.176 1.216v3.936h-1.824zm9.136 8.496c-.661337 0-1.250664-.1093322-1.768-.328s-.954665-.5199981-1.312-.904-.629332-.842664-.816-1.376-.28-1.1199968-.28-1.76c0-.6293365.093332-1.210664.28-1.744s.458665-.9919981.816-1.376.794664-.6853322 1.312-.904 1.106663-.328 1.768-.328 1.250664.1093322 1.768.328.954665.5199981 1.312.904.629332.842664.816 1.376.28 1.1146635.28 1.744c0 .6400032-.093332 1.226664-.28 1.76s-.458665.9919981-.816 1.376-.794664.6853322-1.312.904-1.106663.328-1.768.328zm0-1.44c.405335 0 .757332-.0853325 1.056-.256s.543999-.3946653.736-.672.333333-.5893316.424-.936.136-.7013315.136-1.064c0-.3520018-.045333-.7039982-.136-1.056s-.231999-.6639986-.424-.936-.437332-.4933325-.736-.664-.650665-.256-1.056-.256-.757332.0853325-1.056.256-.543999.3919986-.736.664-.333333.5839982-.424.936-.136.7039982-.136 1.056c0 .3626685.045333.7173316.136 1.064s.231999.6586653.424.936.437332.5013325.736.672.650665.256 1.056.256zm7.92-3.136-2.864-3.92h2.208l1.728 2.544 1.808-2.544h2.112l-2.816 3.824 3.168 4.448h-2.192l-2.096-3.056-2.032 3.056h-2.144zm5.456-3.92h2l2.16 6.176h.032l2.096-6.176h1.904l-3.216 8.72c-.149334.3733352-.295999.730665-.44 1.072s-.319999.6426654-.528.904-.466665.4693326-.776.624-.703998.232-1.184.232c-.426669 0-.847998-.0319997-1.264-.096v-1.536c.149334.0213334.293333.0453332.432.072s.282666.04.432.04c.213334 0 .389333-.0266664.528-.08s.253333-.1306662.344-.232.168-.2213326.232-.36.122666-.2986658.176-.48l.208-.64z" fill="#4a4a4a"/></g></g><g filter="url(#d)" transform="translate(16 8)"><use fill="#000" filter="url(#f)" xlink:href="#e"/><use fill="#fff" fill-rule="evenodd" xlink:href="#e"/><g transform="translate(51 184)"><text fill="#4a4a4a" font-family="HelveticaNeue-Medium, Helvetica Neue" font-size="16" font-weight="400"><tspan x="13.524" y="88">Web client</tspan></text><g fill-rule="evenodd"><path d="m.25.25v62.5h105.5v-62.5z" stroke="#4a4a4a" stroke-width=".5"/><path d="m0 0h106v8.217391h-106z" fill="#4a4a4a"/><g fill="#e6e3e7"><ellipse cx="23.402597" cy="4.108696" rx="2.753247" ry="2.73913"/><ellipse cx="15.142857" cy="4.108696" rx="2.753247" ry="2.73913"/><ellipse cx="6.883117" cy="4.108696" rx="2.753247" ry="2.73913"/></g><path d="m25.3996649 27.2866087h1.75v3.976h4.55v-3.976h1.75v9.996h-1.75v-4.508h-4.55v4.508h-1.75zm9.198 0h8.092v1.512h-3.178v8.484h-1.75v-8.484h-3.164zm8.302 0h8.092v1.512h-3.178v8.484h-1.75v-8.484h-3.164zm9.254 0h4.41c.7093369 0 1.2879977.1026656 1.736.308.4480022.2053344.7933321.4619985 1.036.77s.4083329.6439982.497 1.008.133.6999985.133 1.008-.0443329.6416649-.133 1.001-.2543321.6929985-.497 1.001-.5879978.5623323-1.036.763c-.4480023.2006677-1.0266631.301-1.736.301h-2.66v3.836h-1.75zm1.75 4.732h2.562c.196001 0 .3966656-.0279997.602-.084.2053343-.0560003.3943324-.1469994.567-.273.1726675-.1260006.3126661-.293999.42-.504.1073338-.2100011.161-.4736651.161-.791 0-.3266683-.0466662-.5973323-.14-.812s-.2193326-.3849994-.378-.511c-.1586675-.1260006-.3406657-.2123331-.546-.259-.2053344-.0466669-.4246655-.07-.658-.07h-2.59zm8.736 1.932c0 .3826686.0653327.709332.196.98s.3126655.4923325.546.665.5016651.2986663.805.378c.3033348.0793337.6323315.119.987.119.3826686 0 .709332-.0443329.98-.133s.4899991-.2029993.658-.343c.1680008-.1400007.2893329-.3009991.364-.483.074667-.1820009.112-.3663324.112-.553 0-.3826686-.0863325-.6649991-.259-.847-.1726676-.1820009-.3616657-.310333-.567-.385-.3546685-.1306673-.7676643-.2543328-1.239-.371-.4713357-.1166673-1.0523299-.2683324-1.743-.455-.4293355-.1120006-.7863319-.2589991-1.071-.441s-.5109992-.3849989-.679-.609c-.1680009-.2240011-.2869997-.4619987-.357-.714-.0700004-.2520013-.105-.5086654-.105-.77 0-.5040025.1049989-.9403315.315-1.309.210001-.3686685.4876649-.6743321.833-.917.345335-.2426679.7373311-.4223328 1.176-.539.4386688-.1166673.8819977-.175 1.33-.175.5226693 0 1.0149977.067666 1.477.203s.8679982.338332 1.218.609c.3500017.270668.6276656.6043313.833 1.001.2053343.3966686.308.8563307.308 1.379h-1.75c-.0466669-.6440032-.2659981-1.0989987-.658-1.365-.392002-.2660013-.8913303-.399-1.498-.399-.2053344 0-.4153323.0209998-.63.063-.2146678.0420002-.4106658.1119995-.588.21s-.3243328.2309992-.441.399c-.1166673.1680008-.175.3779987-.175.63 0 .3546684.1096655.6323323.329.833.2193344.2006677.5063315.3523328.861.455.0373335.0093334.184332.0489996.441.119.2566679.0700003.5436651.1469996.861.231s.6276651.1656663.931.245c.3033348.0793337.5203327.1376665.651.175.3266683.1026672.6113321.2426658.854.42s.4456658.3803322.609.609c.1633341.2286678.2846662.4736654.364.735.0793337.2613346.119.5226654.119.784 0 .5600028-.1143322 1.0383313-.343 1.435-.2286678.3966686-.5296648.7209987-.903.973s-.7979976.4363327-1.274.553c-.4760024.1166672-.9613309.175-1.456.175-.5693362 0-1.1059975-.0699993-1.61-.21s-.9426648-.3546652-1.316-.644-.6719989-.6603311-.896-1.113-.3406666-.9869969-.35-1.603zm7.826 1.442h1.946v1.89h-1.946zm0-5.194h1.946v1.89h-1.946zm6.636-3.15h1.526l-4.018 10.472h-1.526zm4.928 0h1.526l-4.018 10.472h-1.526z" fill="#4a4a4a"/></g></g><g transform="translate(50 35)"><g fill-rule="evenodd"><path d="m.25.25v62.5h105.5v-62.5z" fill="#4a4a4a" stroke="#4a4a4a" stroke-width=".5"/><path d="m0 0h106v8h-106z" fill="#d8d8d8"/><g fill="#4a4a4a"><circle cx="24" cy="4" r="3"/><circle cx="15" cy="4" r="3"/><circle cx="7" cy="4" r="3"/></g></g><text fill="#fff" font-family="Helvetica" font-size="18"><tspan x="8" y="45">&gt; ssh</tspan></text><text fill="#4a4a4a" font-family="HelveticaNeue-Medium, Helvetica Neue" font-size="16" font-weight="400"><tspan x="16.848" y="88">OpenSSH</tspan><tspan x="32.992" y="107">client</tspan></text></g><use fill="#000" filter="url(#h)" xlink:href="#g"/><use fill="#fff" fill-rule="evenodd" xlink:href="#g"/></g><g filter="url(#i)" transform="translate(526 463)"><use fill="#000" filter="url(#k)" xlink:href="#j"/><use fill="#fff" fill-rule="evenodd" xlink:href="#j"/></g><g filter="url(#l)" transform="translate(623 92)"><use fill="#000" filter="url(#n)" xlink:href="#m"/><use fill="#fff" fill-rule="evenodd" xlink:href="#m"/></g><g transform="translate(507 147)"><path d="m60.5 1.5v106" stroke="#9b9b9b" stroke-linecap="square"/><g fill="#9b9b9b" fill-rule="nonzero"><path d="m121-3 9 4.5-9 4.5v-4h-121v-1h121z"/><path d="m140.5 50 9 4.5-9 4.5v-4h-80.5v-1h80.5z"/><path d="m160.5 103 9 4.5-9 4.5v-4h-100.5v-1h100.5z"/></g></g><g fill="#9b9b9b" transform="translate(498 288)"><path d="m8.5 47.5v4h287v1h-287v4l-9-4.5z" fill-rule="nonzero"/><path d="m295 .5v51" stroke="#9b9b9b" stroke-linecap="square"/></g><g filter="url(#o)" transform="translate(285 320)"><path d="m10 1.5c-4.69442037 0-8.5 3.80557963-8.5 8.5v50c0 4.6944204 3.80557963 8.5 8.5 8.5h187c4.69442 0 8.5-3.8055796 8.5-8.5v-50c0-4.69442037-3.80558-8.5-8.5-8.5z" fill="#fff" stroke="#e1584e" stroke-width="3"/><path d="m52.785 28h9.57168v1.728h-3.75912v9.696h-2.07v-9.696h-3.74256zm14.72184 6.56c-.0220801-.2880014-.0855595-.565332-.19044-.832s-.2483991-.4986657-.43056-.696-.4029587-.3573327-.6624-.48-.5492384-.184-.8694-.184c-.3312017 0-.6320386.0559994-.90252.168s-.502319.2666657-.69552.464-.3477594.429332-.46368.696-.1793999.5546651-.19044.864zm-4.40496 1.2c0 .3200016.0469195.6293318.14076.928s.2345991.5599989.42228.784.4250386.402666.71208.536.629278.2 1.02672.2c.5520028 0 .9963583-.1146655 1.33308-.344s.5878792-.573331.75348-1.032h1.78848c-.0993605.4480022-.2704788.8479982-.51336 1.2s-.5354383.6479988-.87768.888-.7258779.4213327-1.15092.544-.8693977.184-1.33308.184c-.6734434 0-1.2695974-.1066656-1.78848-.32s-.9577182-.5119981-1.31652-.896-.6292791-.842664-.81144-1.376-.27324-1.1199968-.27324-1.76c0-.5866696.096599-1.1439974.2898-1.672s.4691982-.991998.828-1.392.7921175-.7173322 1.29996-.952 1.0819168-.352 1.72224-.352c.6734434 0 1.2778773.1359986 1.81332.408s.9797982.6319978 1.33308 1.08.6099592.9626638.77004 1.544.2014804 1.1813302.1242 1.8zm7.7832-7.76h1.88784v11.424h-1.88784zm9.82008 6.56c-.0220801-.2880014-.0855595-.565332-.19044-.832s-.2483991-.4986657-.43056-.696-.4029587-.3573327-.6624-.48-.5492384-.184-.8694-.184c-.3312017 0-.6320386.0559994-.90252.168s-.502319.2666657-.69552.464-.3477594.429332-.46368.696-.1793999.5546651-.19044.864zm-4.40496 1.2c0 .3200016.0469195.6293318.14076.928s.2345991.5599989.42228.784.4250386.402666.71208.536.629278.2 1.02672.2c.5520028 0 .9963583-.1146655 1.33308-.344s.5878792-.573331.75348-1.032h1.78848c-.0993605.4480022-.2704788.8479982-.51336 1.2s-.5354383.6479988-.87768.888-.7258779.4213327-1.15092.544-.8693977.184-1.33308.184c-.6734434 0-1.2695974-.1066656-1.78848-.32s-.9577182-.5119981-1.31652-.896-.6292791-.842664-.81144-1.376-.27324-1.1199968-.27324-1.76c0-.5866696.096599-1.1439974.2898-1.672s.4691982-.991998.828-1.392.7921175-.7173322 1.29996-.952 1.0819168-.352 1.72224-.352c.6734434 0 1.2778773.1359986 1.81332.408s.9797982.6319978 1.33308 1.08.6099592.9626638.77004 1.544.2014804 1.1813302.1242 1.8zm7.7832-4.608h1.78848v1.12h.03312c.2649613-.4800024.6347976-.823999 1.10952-1.032s.9880772-.312 1.54008-.312c.6734434 0 1.2613175.1146655 1.76364.344s.9190783.543998 1.25028.944.5795992.866664.7452 1.4.2484 1.103997.2484 1.712c0 .5546694-.0745193 1.0933307-.22356 1.616s-.3753585.984-.67896 1.384c-.3036015.400002-.6872377.7199988-1.15092.96s-1.0101569.36-1.63944.36c-.2760014 0-.5519986-.0239998-.828-.072s-.5409587-.1253328-.79488-.232-.4885189-.2426658-.7038-.408-.3946793-.3599989-.5382-.584h-.03312v4.128h-1.88784zm6.59088 4.144c0-.3733352-.0496795-.7359982-.14904-1.088s-.248399-.6639986-.44712-.936-.4471185-.4906658-.7452-.656-.6403181-.248-1.02672-.248c-.794884 0-1.393798.266664-1.79676.8s-.60444 1.2426622-.60444 2.128c0 .4160021.0524395.8026649.15732 1.16s.262199.6639987.47196.92.4609185.4586659.75348.608.6320381.224 1.01844.224c.4305622 0 .7948785-.0853325 1.09296-.256s.543719-.3919986.73692-.664.3311996-.5813316.414-.928.1242-.7013315.1242-1.064zm7.40232 4.352c-.6844834 0-1.2944373-.1093322-1.82988-.328s-.9880782-.5199981-1.35792-.904-.651359-.842664-.84456-1.376-.2898-1.1199968-.2898-1.76c0-.6293365.096599-1.210664.2898-1.744s.4747182-.9919981.84456-1.376.8224773-.6853322 1.35792-.904 1.1453966-.328 1.82988-.328 1.2944373.1093322 1.82988.328c.535443.2186678.988078.5199981 1.35792.904s.651359.842664.84456 1.376.2898 1.1146635.2898 1.744c0 .6400032-.096599 1.226664-.2898 1.76s-.474718.9919981-.84456 1.376-.822477.6853322-1.35792.904c-.5354427.2186678-1.1453966.328-1.82988.328zm0-1.44c.4195221 0 .7838385-.0853325 1.09296-.256s.563039-.3946653.76176-.672.345-.5893316.43884-.936.14076-.7013315.14076-1.064c0-.3520018-.04692-.7039982-.14076-1.056s-.240119-.6639986-.43884-.936-.4526385-.4933325-.76176-.664-.6734379-.256-1.09296-.256-.7838385.0853325-1.09296.256-.563039.3919986-.76176.664-.3449995.5839982-.43884.936-.14076.7039982-.14076 1.056c0 .3626685.0469195.7173316.14076 1.064s.240119.6586653.43884.936.4526385.5013325.76176.672.6734379.256 1.09296.256zm5.89536-7.056h1.77192v1.6h.03312c.0552-.2240011.162839-.4426656.32292-.656s.353279-.4079991.5796-.584.477479-.3173328.75348-.424.557519-.16.84456-.16c.220801 0 .3726.0053333.4554.016s.16836.0213333.25668.032v1.76c-.132481-.0213334-.267719-.0399999-.40572-.056s-.273239-.024-.40572-.024c-.320162 0-.620999.0613327-.90252.184s-.527159.3039988-.73692.544-.375359.5359982-.4968.888-.18216.757331-.18216 1.216v3.936h-1.88784zm4.968 0h1.42416v-2.48h1.88784v2.48h1.70568v1.36h-1.70568v4.416c0 .192001.00828.3573326.02484.496s.0552.2559995.11592.352.151799.1679998.27324.216.287039.072.4968.072c.132481 0 .264959-.0026666.39744-.008s.264959-.0239998.39744-.056v1.408c-.209761.0213334-.413999.0426666-.61272.064s-.402959.032-.61272.032c-.496802 0-.896998-.0453329-1.2006-.136s-.540959-.2239991-.71208-.4-.28704-.397332-.34776-.664-.0966-.570665-.10764-.912v-4.88h-1.42416zm14.4072-3.152h2.20248l4.554 11.424h-2.21904l-1.10952-3.024h-4.7196l-1.10952 3.024h-2.13624zm-.72864 6.88h3.61008l-1.77192-4.912h-.04968zm15.86448 4.544h-1.85472v-1.152h-.03312c-.231841.4160021-.576838.7493321-1.035 1s-.924598.376-1.39932.376c-1.126086 0-1.940277-.2693306-2.4426-.808s-.75348-1.3519946-.75348-2.44v-5.248h1.88784v5.072c0 .725337.143519 1.2373318.43056 1.536s.689997.448 1.20888.448c.397442 0 .728639-.0586661.9936-.176s.480239-.2746657.64584-.472.28428-.4346653.35604-.712.10764-.5759984.10764-.896v-4.8h1.88784zm1.12608-8.272h1.42416v-2.48h1.88784v2.48h1.70568v1.36h-1.70568v4.416c0 .192001.00828.3573326.02484.496s.0552.2559995.11592.352.151799.1679998.27324.216.287039.072.4968.072c.132481 0 .264959-.0026666.39744-.008s.264959-.0239998.39744-.056v1.408c-.209761.0213334-.413999.0426666-.61272.064s-.402959.032-.61272.032c-.496802 0-.896998-.0453329-1.2006-.136s-.540959-.2239991-.71208-.4-.28704-.397332-.34776-.664-.0966-.570665-.10764-.912v-4.88h-1.42416zm6.3756-3.152h1.88784v4.24h.03312c.231841-.3733352.576838-.6853321 1.035-.936s.968757-.376 1.5318-.376c.938405 0 1.678077.2346643 2.21904.704s.81144 1.1733286.81144 2.112v5.68h-1.88784v-5.2c-.02208-.6506699-.165599-1.1226652-.43056-1.416s-.678957-.44-1.242-.44c-.320162 0-.607199.0559994-.86112.168s-.469199.2666657-.64584.464-.31464.429332-.414.696-.14904.5493318-.14904.848v4.88h-1.88784z" fill="#4a4a4a"/></g><g filter="url(#p)" transform="translate(639 113)"><path d="m10 1.5c-4.69442037 0-8.5 3.80557963-8.5 8.5v64c0 4.6944204 3.80557963 8.5 8.5 8.5h210c4.69442 0 8.5-3.8055796 8.5-8.5v-64c0-4.69442037-3.80558-8.5-8.5-8.5z" fill="#fff" stroke="#3662a2" stroke-width="3"/><path d="m67 36.2727273h2.1016765l5.1905042 8.4385026h.0318436v-8.4385026h1.8946932v11.4545454h-2.1016765l-5.1745824-8.4224599h-.0477654v8.4224599h-1.8946932zm15.0938587 11.6791444c-.658104 0-1.2445508-.1096246-1.759358-.328877-.5148071-.2192525-.9499984-.5213885-1.3055869-.9064172-.3555885-.3850286-.6262562-.8449171-.8120114-1.3796791s-.2786314-1.1229914-.2786314-1.7647059c0-.6310192.0928762-1.2139011.2786314-1.7486631s.4564229-.9946505.8120114-1.3796791c.3555885-.3850287.7907798-.6871647 1.3055869-.9064171.5148072-.2192525 1.101254-.3288771 1.759358-.3288771.6581041 0 1.2445509.1096246 1.759358.3288771.5148072.2192524.9499985.5213884 1.305587.9064171.3555884.3850286.6262562.8449171.8120114 1.3796791.1857551.534762.2786313 1.1176439.2786313 1.7486631 0 .6417145-.0928762 1.2299439-.2786313 1.7647059-.1857552.534762-.456423.9946505-.8120114 1.3796791-.3555885.3850287-.7907798.6871647-1.305587.9064172-.5148071.2192524-1.1012539.328877-1.759358.328877zm0-1.4438503c.4033541 0 .75363-.0855607 1.0508383-.2566845.2972083-.1711239.54134-.3957205.7324024-.6737968.1910625-.2780762.3317036-.5909073.4219275-.9385027.090224-.3475953.1353353-.7032067.1353353-1.0668449 0-.3529429-.0451113-.7058806-.1353353-1.0588235-.0902239-.352943-.230865-.6657741-.4219275-.9385027-.1910624-.2727286-.4351941-.4946515-.7324024-.6657754-.2972083-.1711238-.6474842-.2566845-1.0508383-.2566845-.403354 0-.75363.0855607-1.0508382.2566845-.2972083.1711239-.54134.3930468-.7324025.6657754-.1910624.2727286-.3317035.5855597-.4219274.9385027-.090224.3529429-.1353353.7058806-.1353353 1.0588235 0 .3636382.0451113.7192496.1353353 1.0668449.0902239.3475954.230865.6604265.4219274.9385027.1910625.2780763.4351942.5026729.7324025.6737968.2972082.1711238.6474842.2566845 1.0508382.2566845zm13.4220706 1.2192513h-1.7195535v-1.1229946h-.0318436c-.2441353.4812858-.5997185.8262021-1.06676 1.0347593-.4670416.2085572-.9606122.3128343-1.4807267.3128343-.6474894 0-1.2127074-.1149722-1.6956708-.3449198-.4829635-.2299477-.8836579-.5427788-1.2020953-.9385027-.3184374-.3957219-.5572619-.8636337-.7164807-1.4037433-.1592187-.5401097-.2388268-1.1203178-.2388268-1.7406417 0-.7486669.100837-1.3957192.302514-1.9411765.2016771-.5454573.4696912-.9946506.8040505-1.3475936.3343593-.3529429.7164785-.6122986 1.146369-.7780748.4298906-.1657763.8677355-.2486632 1.3135479-.2486632.2547499 0 .5148032.024064.7801678.0721926.2653645.0481285.5201106.1256679.764246.2326203.2441353.1069524.4696918.2433147.6766761.4090909.2069844.1657762.3794687.3609614.5174583.5855615h.0318436v-4.2352941h1.8150842zm-6.3368732-4.0588235c0 .3529429.0451113.700533.1353353 1.0427807.0902239.3422477.2282114.6470575.4139666.9144385.1857551.2673811.421926.4812827.7085197.6417113s.6262552.2406417 1.0189947.2406417c.4033541 0 .7509764-.0855607 1.0428774-.2566845.2919009-.1711239.5307254-.3957205.7164806-.6737968.1857552-.2780762.3237426-.5909073.4139666-.9385027.0902239-.3475953.1353352-.7032067.1353352-1.0668449 0-.9197861-.2043276-1.6363611-.612989-2.1497326-.4086613-.5133716-.9632649-.7700535-1.6638272-.7700535-.4245833 0-.78282.0882344-1.074721.2647059s-.5307254.4064157-.7164806.6898396c-.1857552.2834238-.3184355.6042763-.3980448.9625668-.0796094.3582906-.1194135.7245971-.1194135 1.0989305zm13.9634119-.8181818c-.02123-.2887715-.082262-.5668436-.183101-.8342246-.100838-.267381-.238826-.499999-.413967-.697861-.17514-.1978619-.387429-.3582881-.636871-.4812834-.249443-.1229953-.528071-.184492-.835894-.184492-.318438 0-.607681.0561492-.867738.1684492-.2600572.1123-.48296.2673787-.6687152.4652407-.1857552.1978619-.3343571.4304799-.4458102.6978609s-.172486.5561482-.1831006.8663102zm-4.235197 1.2032085c0 .3208573.0451113.6310146.1353352.9304813.090224.2994668.2255579.5614962.4060057.7860963.1804479.2246.408658.4037426.6846371.5374331.275979.1336905.605026.2005348.987151.2005348.530729 0 .95796-.1149721 1.281704-.3449198.323745-.2299477.565223-.574864.724442-1.0347594h1.719553c-.095531.4492002-.260054.8502657-.493575 1.2032086s-.514803.6497314-.843855.8903743-.697903.4224593-1.106565.5454546c-.408661.1229952-.835892.184492-1.281704.184492-.647489 0-1.2206681-.1069508-1.7195534-.3208557-.4988853-.2139048-.9208086-.513367-1.2657825-.8983957-.3449739-.3850286-.6050272-.8449171-.7801678-1.3796791-.1751406-.5347621-.2627096-1.1229915-.2627096-1.7647059 0-.5882382.0928762-1.1470562.2786314-1.6764706s.4511157-.9946504.7960896-1.3957219.7615899-.7192502 1.2498606-.9545455c.4882708-.2352953 1.0402207-.3529412 1.6558667-.3529412.647489 0 1.228629.1363623 1.743436.409091.514807.2727286.942038.6336876 1.281704 1.0828877.339667.4492001.586452.9652377.740363 1.5481283.153912.5828906.193716 1.1844889.119414 1.8048128zm13.422071-.144385c0 .4385049.074301.8128327.222905 1.1229947.148604.3101619.355585.5641701.62095.762032.265364.197862.570529.3422456.915503.4331551.344973.0909096.719132.1363637 1.122486.1363637.435198 0 .806703-.0508017 1.114525-.1524065.307823-.1016047.557262-.2326195.748325-.3930481.191062-.1604286.32905-.3449187.413966-.5534759.084917-.2085572.127375-.419785.127375-.6336899 0-.4385048-.098184-.762031-.294554-.9705882-.196369-.2085572-.411311-.3556145-.644832-.4411765-.403354-.1497333-.873042-.2914431-1.409079-.4251337-.536036-.1336905-1.196784-.3074855-1.982263-.5213903-.488271-.1283429-.894272-.2967904-1.218017-.5053476s-.581144-.4411752-.772207-.697861c-.191062-.2566858-.326396-.5294103-.406006-.8181818-.079609-.2887715-.119413-.5828862-.119413-.8823529 0-.577543.119412-1.077538.35824-1.5s.554607-.7727259.947347-1.0508022c.392739-.2780762.838545-.4839565 1.33743-.617647.498886-.1336905 1.003071-.2005348 1.512571-.2005348.594416 0 1.154327.0775393 1.679749.2326203.525421.155081.987149.387699 1.385196.697861.398046.310162.713825.6925111.947346 1.1470588s.35028.9812804.35028 1.5802139h-1.990224c-.053073-.7379716-.302512-1.2593568-.748325-1.5641711-.445812-.3048144-1.013684-.4572193-1.703631-.4572193-.233521 0-.472346.024064-.716481.0721925-.244135.0481286-.467038.1283417-.668715.2406418-.201677.1123-.368854.2647049-.501537.4572192-.132682.1925143-.199022.4331536-.199022.7219251 0 .4064192.124719.7245978.374162.9545455s.575836.4037427.97919.5213904c.042459.0106952.209636.0561493.501537.1363636s.618294.1684487.97919.2647059.713825.1898391 1.058799.2807487c.344974.0909095.591759.1577538.740363.2005347.371511.1176477.695251.2780739.97123.4812834.275979.2032096.506843.4358276.692598.697861s.323742.5427793.413966.842246.135336.598929.135336.8983957c0 .6417145-.130027 1.1898373-.390084 1.644385-.260058.4545478-.602373.8262018-1.026956 1.1149733s-.907539.4999993-1.448883.6336898-1.093294.2005348-1.655866.2005348c-.64749 0-1.257819-.0802131-1.831006-.2406417-.573188-.1604286-1.072066-.4064155-1.496649-.7379679-.424583-.3315525-.764245-.7566819-1.018995-1.2754011s-.38743-1.1310125-.398044-1.8368984zm14.409221-1.0588235c-.021229-.2887715-.082262-.5668436-.1831-.8342246-.100839-.267381-.238826-.499999-.413967-.697861-.17514-.1978619-.387429-.3582881-.636872-.4812834-.249442-.1229953-.528071-.184492-.835894-.184492-.318437 0-.60768.0561492-.867737.1684492-.260058.1123-.48296.2673787-.668716.4652407-.185755.1978619-.334357.4304799-.44581.6978609s-.172486.5561482-.1831.8663102zm-4.235196 1.2032085c0 .3208573.045111.6310146.135335.9304813.090224.2994668.225558.5614962.406006.7860963.180447.2246.408658.4037426.684637.5374331s.605026.2005348.987151.2005348c.530729 0 .957959-.1149721 1.281704-.3449198s.565223-.574864.724441-1.0347594h1.719554c-.095531.4492002-.260055.8502657-.493576 1.2032086-.23352.3529429-.514802.6497314-.843855.8903743-.329052.2406429-.697903.4224593-1.106564.5454546-.408661.1229952-.835892.184492-1.281704.184492-.64749 0-1.220669-.1069508-1.719554-.3208557-.498885-.2139048-.920808-.513367-1.265782-.8983957-.344974-.3850286-.605027-.8449171-.780168-1.3796791-.175141-.5347621-.26271-1.1229915-.26271-1.7647059 0-.5882382.092877-1.1470562.278632-1.6764706s.451115-.9946504.796089-1.3957219.76159-.7192502 1.249861-.9545455 1.040221-.3529412 1.655866-.3529412c.64749 0 1.228629.1363623 1.743437.409091.514807.2727286.942037.6336876 1.281704 1.0828877.339666.4492001.586452.9652377.740363 1.5481283.153912.5828906.193716 1.1844889.119414 1.8048128zm7.435476-4.6203208h1.703632v1.6042781h.031844c.053073-.2246001.156563-.4438492.310475-.6577541.153911-.2139048.339664-.40909.557262-.5855615.217599-.1764714.459077-.3181812.724442-.4251336.265364-.1069524.536032-.1604279.812011-.1604279.212292 0 .35824.0053476.43785.0160428.079609.0106953.161871.0213904.246787.0320856v1.7647059c-.127375-.0213905-.257401-.0401069-.390083-.0561498-.132683-.0160428-.262709-.0240641-.390084-.0240641-.307823 0-.597066.0614967-.867738.1844919-.270672.1229953-.506843.3048117-.70852.5454546s-.360893.5374331-.477654.8903743c-.11676.352943-.175139.759356-.175139 1.2192514v3.946524h-1.815085zm4.79246 0h1.974302l2.085755 6.3689839h.031843l2.006146-6.3689839h1.878772l-2.945532 8.2941176h-2.037989zm9.123187-3.1604278h1.815084v1.7326203h-1.815084zm0 3.1604278h1.815084v8.2941176h-1.815084zm9.346091 2.775401c-.074302-.5133715-.278629-.9010682-.612989-1.1631016-.334359-.2620334-.756282-.3930481-1.265782-.3930481-.233521 0-.48296.0401066-.748324.1203209-.265365.0802143-.509496.2299454-.732403.4491978-.222906.2192525-.408658.5240623-.557262.9144385-.148604.3903763-.222905.9010664-.222905 1.5320856 0 .3422477.039804.6844903.119413 1.026738s.206982.6470575.382123.9144385.400697.4839564.676676.6497326.610334.2486631 1.003073.2486631c.530729 0 .968574-.1657738 1.313548-.4973262.344974-.3315525.559916-.7967885.644832-1.3957219h1.815085c-.169834 1.0802193-.575835 1.9064142-1.218017 2.4786096s-1.49399.8582888-2.555448.8582888c-.647489 0-1.218015-.1096246-1.711593-.328877-.493578-.2192525-.910194-.5187147-1.24986-.8983958-.339667-.379681-.597067-.8315482-.772207-1.3556149-.175141-.5240668-.26271-1.0909061-.26271-1.7005348 0-.620324.084916-1.2032058.254749-1.7486631s.424579-1.0187146.764246-1.4197861.76159-.7165764 1.265782-.9465241c.504193-.2299476 1.095947-.3449198 1.77528-.3449198.477656 0 .931423.0614968 1.361313.184492.429891.1229953.81201.3074854 1.146369.553476.33436.2459905.607681.5561478.819973.9304812.212291.3743335.339664.8181793.382123 1.3315508zm8.948048.6417113c-.02123-.2887715-.082263-.5668436-.183101-.8342246-.100839-.267381-.238826-.499999-.413967-.697861-.17514-.1978619-.387429-.3582881-.636871-.4812834-.249443-.1229953-.528072-.184492-.835894-.184492-.318438 0-.607681.0561492-.867738.1684492s-.48296.2673787-.668715.4652407c-.185756.1978619-.334357.4304799-.445811.6978609-.111453.267381-.172486.5561482-.1831.8663102zm-4.235197 1.2032085c0 .3208573.045111.6310146.135335.9304813.090224.2994668.225558.5614962.406006.7860963.180448.2246.408658.4037426.684637.5374331s.605026.2005348.987151.2005348c.530729 0 .957959-.1149721 1.281704-.3449198s.565223-.574864.724442-1.0347594h1.719553c-.095531.4492002-.260055.8502657-.493575 1.2032086-.233521.3529429-.514803.6497314-.843855.8903743s-.697903.4224593-1.106565.5454546c-.408661.1229952-.835892.184492-1.281704.184492-.647489 0-1.220668-.1069508-1.719554-.3208557-.498885-.2139048-.920808-.513367-1.265782-.8983957-.344974-.3850286-.605027-.8449171-.780168-1.3796791-.17514-.5347621-.262709-1.1229915-.262709-1.7647059 0-.5882382.092876-1.1470562.278631-1.6764706s.451116-.9946504.79609-1.3957219c.344973-.4010715.761589-.7192502 1.24986-.9545455s1.040221-.3529412 1.655867-.3529412c.647489 0 1.228629.1363623 1.743436.409091.514807.2727286.942037.6336876 1.281704 1.0828877s.586452.9652377.740363 1.5481283c.153912.5828906.193716 1.1844889.119414 1.8048128z" fill="#4a4a4a"/><g transform="translate(19 54)"><path d="m10 1.5c-4.69442037 0-8.5 3.80557963-8.5 8.5v64c0 4.6944204 3.80557963 8.5 8.5 8.5h210c4.69442 0 8.5-3.8055796 8.5-8.5v-64c0-4.69442037-3.80558-8.5-8.5-8.5z" fill="#fff" stroke="#3662a2" stroke-width="3"/><path d="m67 36.2727273h2.1016765l5.1905042 8.4385026h.0318436v-8.4385026h1.8946932v11.4545454h-2.1016765l-5.1745824-8.4224599h-.0477654v8.4224599h-1.8946932zm15.0938587 11.6791444c-.658104 0-1.2445508-.1096246-1.759358-.328877-.5148071-.2192525-.9499984-.5213885-1.3055869-.9064172-.3555885-.3850286-.6262562-.8449171-.8120114-1.3796791s-.2786314-1.1229914-.2786314-1.7647059c0-.6310192.0928762-1.2139011.2786314-1.7486631s.4564229-.9946505.8120114-1.3796791c.3555885-.3850287.7907798-.6871647 1.3055869-.9064171.5148072-.2192525 1.101254-.3288771 1.759358-.3288771.6581041 0 1.2445509.1096246 1.759358.3288771.5148072.2192524.9499985.5213884 1.305587.9064171.3555884.3850286.6262562.8449171.8120114 1.3796791.1857551.534762.2786313 1.1176439.2786313 1.7486631 0 .6417145-.0928762 1.2299439-.2786313 1.7647059-.1857552.534762-.456423.9946505-.8120114 1.3796791-.3555885.3850287-.7907798.6871647-1.305587.9064172-.5148071.2192524-1.1012539.328877-1.759358.328877zm0-1.4438503c.4033541 0 .75363-.0855607 1.0508383-.2566845.2972083-.1711239.54134-.3957205.7324024-.6737968.1910625-.2780762.3317036-.5909073.4219275-.9385027.090224-.3475953.1353353-.7032067.1353353-1.0668449 0-.3529429-.0451113-.7058806-.1353353-1.0588235-.0902239-.352943-.230865-.6657741-.4219275-.9385027-.1910624-.2727286-.4351941-.4946515-.7324024-.6657754-.2972083-.1711238-.6474842-.2566845-1.0508383-.2566845-.403354 0-.75363.0855607-1.0508382.2566845-.2972083.1711239-.54134.3930468-.7324025.6657754-.1910624.2727286-.3317035.5855597-.4219274.9385027-.090224.3529429-.1353353.7058806-.1353353 1.0588235 0 .3636382.0451113.7192496.1353353 1.0668449.0902239.3475954.230865.6604265.4219274.9385027.1910625.2780763.4351942.5026729.7324025.6737968.2972082.1711238.6474842.2566845 1.0508382.2566845zm13.4220706 1.2192513h-1.7195535v-1.1229946h-.0318436c-.2441353.4812858-.5997185.8262021-1.06676 1.0347593-.4670416.2085572-.9606122.3128343-1.4807267.3128343-.6474894 0-1.2127074-.1149722-1.6956708-.3449198-.4829635-.2299477-.8836579-.5427788-1.2020953-.9385027-.3184374-.3957219-.5572619-.8636337-.7164807-1.4037433-.1592187-.5401097-.2388268-1.1203178-.2388268-1.7406417 0-.7486669.100837-1.3957192.302514-1.9411765.2016771-.5454573.4696912-.9946506.8040505-1.3475936.3343593-.3529429.7164785-.6122986 1.146369-.7780748.4298906-.1657763.8677355-.2486632 1.3135479-.2486632.2547499 0 .5148032.024064.7801678.0721926.2653645.0481285.5201106.1256679.764246.2326203.2441353.1069524.4696918.2433147.6766761.4090909.2069844.1657762.3794687.3609614.5174583.5855615h.0318436v-4.2352941h1.8150842zm-6.3368732-4.0588235c0 .3529429.0451113.700533.1353353 1.0427807.0902239.3422477.2282114.6470575.4139666.9144385.1857551.2673811.421926.4812827.7085197.6417113s.6262552.2406417 1.0189947.2406417c.4033541 0 .7509764-.0855607 1.0428774-.2566845.2919009-.1711239.5307254-.3957205.7164806-.6737968.1857552-.2780762.3237426-.5909073.4139666-.9385027.0902239-.3475953.1353352-.7032067.1353352-1.0668449 0-.9197861-.2043276-1.6363611-.612989-2.1497326-.4086613-.5133716-.9632649-.7700535-1.6638272-.7700535-.4245833 0-.78282.0882344-1.074721.2647059s-.5307254.4064157-.7164806.6898396c-.1857552.2834238-.3184355.6042763-.3980448.9625668-.0796094.3582906-.1194135.7245971-.1194135 1.0989305zm13.9634119-.8181818c-.02123-.2887715-.082262-.5668436-.183101-.8342246-.100838-.267381-.238826-.499999-.413967-.697861-.17514-.1978619-.387429-.3582881-.636871-.4812834-.249443-.1229953-.528071-.184492-.835894-.184492-.318438 0-.607681.0561492-.867738.1684492-.2600572.1123-.48296.2673787-.6687152.4652407-.1857552.1978619-.3343571.4304799-.4458102.6978609s-.172486.5561482-.1831006.8663102zm-4.235197 1.2032085c0 .3208573.0451113.6310146.1353352.9304813.090224.2994668.2255579.5614962.4060057.7860963.1804479.2246.408658.4037426.6846371.5374331.275979.1336905.605026.2005348.987151.2005348.530729 0 .95796-.1149721 1.281704-.3449198.323745-.2299477.565223-.574864.724442-1.0347594h1.719553c-.095531.4492002-.260054.8502657-.493575 1.2032086s-.514803.6497314-.843855.8903743-.697903.4224593-1.106565.5454546c-.408661.1229952-.835892.184492-1.281704.184492-.647489 0-1.2206681-.1069508-1.7195534-.3208557-.4988853-.2139048-.9208086-.513367-1.2657825-.8983957-.3449739-.3850286-.6050272-.8449171-.7801678-1.3796791-.1751406-.5347621-.2627096-1.1229915-.2627096-1.7647059 0-.5882382.0928762-1.1470562.2786314-1.6764706s.4511157-.9946504.7960896-1.3957219.7615899-.7192502 1.2498606-.9545455c.4882708-.2352953 1.0402207-.3529412 1.6558667-.3529412.647489 0 1.228629.1363623 1.743436.409091.514807.2727286.942038.6336876 1.281704 1.0828877.339667.4492001.586452.9652377.740363 1.5481283.153912.5828906.193716 1.1844889.119414 1.8048128zm13.422071-.144385c0 .4385049.074301.8128327.222905 1.1229947.148604.3101619.355585.5641701.62095.762032.265364.197862.570529.3422456.915503.4331551.344973.0909096.719132.1363637 1.122486.1363637.435198 0 .806703-.0508017 1.114525-.1524065.307823-.1016047.557262-.2326195.748325-.3930481.191062-.1604286.32905-.3449187.413966-.5534759.084917-.2085572.127375-.419785.127375-.6336899 0-.4385048-.098184-.762031-.294554-.9705882-.196369-.2085572-.411311-.3556145-.644832-.4411765-.403354-.1497333-.873042-.2914431-1.409079-.4251337-.536036-.1336905-1.196784-.3074855-1.982263-.5213903-.488271-.1283429-.894272-.2967904-1.218017-.5053476s-.581144-.4411752-.772207-.697861c-.191062-.2566858-.326396-.5294103-.406006-.8181818-.079609-.2887715-.119413-.5828862-.119413-.8823529 0-.577543.119412-1.077538.35824-1.5s.554607-.7727259.947347-1.0508022c.392739-.2780762.838545-.4839565 1.33743-.617647.498886-.1336905 1.003071-.2005348 1.512571-.2005348.594416 0 1.154327.0775393 1.679749.2326203.525421.155081.987149.387699 1.385196.697861.398046.310162.713825.6925111.947346 1.1470588s.35028.9812804.35028 1.5802139h-1.990224c-.053073-.7379716-.302512-1.2593568-.748325-1.5641711-.445812-.3048144-1.013684-.4572193-1.703631-.4572193-.233521 0-.472346.024064-.716481.0721925-.244135.0481286-.467038.1283417-.668715.2406418-.201677.1123-.368854.2647049-.501537.4572192-.132682.1925143-.199022.4331536-.199022.7219251 0 .4064192.124719.7245978.374162.9545455s.575836.4037427.97919.5213904c.042459.0106952.209636.0561493.501537.1363636s.618294.1684487.97919.2647059.713825.1898391 1.058799.2807487c.344974.0909095.591759.1577538.740363.2005347.371511.1176477.695251.2780739.97123.4812834.275979.2032096.506843.4358276.692598.697861s.323742.5427793.413966.842246.135336.598929.135336.8983957c0 .6417145-.130027 1.1898373-.390084 1.644385-.260058.4545478-.602373.8262018-1.026956 1.1149733s-.907539.4999993-1.448883.6336898-1.093294.2005348-1.655866.2005348c-.64749 0-1.257819-.0802131-1.831006-.2406417-.573188-.1604286-1.072066-.4064155-1.496649-.7379679-.424583-.3315525-.764245-.7566819-1.018995-1.2754011s-.38743-1.1310125-.398044-1.8368984zm14.409221-1.0588235c-.021229-.2887715-.082262-.5668436-.1831-.8342246-.100839-.267381-.238826-.499999-.413967-.697861-.17514-.1978619-.387429-.3582881-.636872-.4812834-.249442-.1229953-.528071-.184492-.835894-.184492-.318437 0-.60768.0561492-.867737.1684492-.260058.1123-.48296.2673787-.668716.4652407-.185755.1978619-.334357.4304799-.44581.6978609s-.172486.5561482-.1831.8663102zm-4.235196 1.2032085c0 .3208573.045111.6310146.135335.9304813.090224.2994668.225558.5614962.406006.7860963.180447.2246.408658.4037426.684637.5374331s.605026.2005348.987151.2005348c.530729 0 .957959-.1149721 1.281704-.3449198s.565223-.574864.724441-1.0347594h1.719554c-.095531.4492002-.260055.8502657-.493576 1.2032086-.23352.3529429-.514802.6497314-.843855.8903743-.329052.2406429-.697903.4224593-1.106564.5454546-.408661.1229952-.835892.184492-1.281704.184492-.64749 0-1.220669-.1069508-1.719554-.3208557-.498885-.2139048-.920808-.513367-1.265782-.8983957-.344974-.3850286-.605027-.8449171-.780168-1.3796791-.175141-.5347621-.26271-1.1229915-.26271-1.7647059 0-.5882382.092877-1.1470562.278632-1.6764706s.451115-.9946504.796089-1.3957219.76159-.7192502 1.249861-.9545455 1.040221-.3529412 1.655866-.3529412c.64749 0 1.228629.1363623 1.743437.409091.514807.2727286.942037.6336876 1.281704 1.0828877.339666.4492001.586452.9652377.740363 1.5481283.153912.5828906.193716 1.1844889.119414 1.8048128zm7.435476-4.6203208h1.703632v1.6042781h.031844c.053073-.2246001.156563-.4438492.310475-.6577541.153911-.2139048.339664-.40909.557262-.5855615.217599-.1764714.459077-.3181812.724442-.4251336.265364-.1069524.536032-.1604279.812011-.1604279.212292 0 .35824.0053476.43785.0160428.079609.0106953.161871.0213904.246787.0320856v1.7647059c-.127375-.0213905-.257401-.0401069-.390083-.0561498-.132683-.0160428-.262709-.0240641-.390084-.0240641-.307823 0-.597066.0614967-.867738.1844919-.270672.1229953-.506843.3048117-.70852.5454546s-.360893.5374331-.477654.8903743c-.11676.352943-.175139.759356-.175139 1.2192514v3.946524h-1.815085zm4.79246 0h1.974302l2.085755 6.3689839h.031843l2.006146-6.3689839h1.878772l-2.945532 8.2941176h-2.037989zm9.123187-3.1604278h1.815084v1.7326203h-1.815084zm0 3.1604278h1.815084v8.2941176h-1.815084zm9.346091 2.775401c-.074302-.5133715-.278629-.9010682-.612989-1.1631016-.334359-.2620334-.756282-.3930481-1.265782-.3930481-.233521 0-.48296.0401066-.748324.1203209-.265365.0802143-.509496.2299454-.732403.4491978-.222906.2192525-.408658.5240623-.557262.9144385-.148604.3903763-.222905.9010664-.222905 1.5320856 0 .3422477.039804.6844903.119413 1.026738s.206982.6470575.382123.9144385.400697.4839564.676676.6497326.610334.2486631 1.003073.2486631c.530729 0 .968574-.1657738 1.313548-.4973262.344974-.3315525.559916-.7967885.644832-1.3957219h1.815085c-.169834 1.0802193-.575835 1.9064142-1.218017 2.4786096s-1.49399.8582888-2.555448.8582888c-.647489 0-1.218015-.1096246-1.711593-.328877-.493578-.2192525-.910194-.5187147-1.24986-.8983958-.339667-.379681-.597067-.8315482-.772207-1.3556149-.175141-.5240668-.26271-1.0909061-.26271-1.7005348 0-.620324.084916-1.2032058.254749-1.7486631s.424579-1.0187146.764246-1.4197861.76159-.7165764 1.265782-.9465241c.504193-.2299476 1.095947-.3449198 1.77528-.3449198.477656 0 .931423.0614968 1.361313.184492.429891.1229953.81201.3074854 1.146369.553476.33436.2459905.607681.5561478.819973.9304812.212291.3743335.339664.8181793.382123 1.3315508zm8.948048.6417113c-.02123-.2887715-.082263-.5668436-.183101-.8342246-.100839-.267381-.238826-.499999-.413967-.697861-.17514-.1978619-.387429-.3582881-.636871-.4812834-.249443-.1229953-.528072-.184492-.835894-.184492-.318438 0-.607681.0561492-.867738.1684492s-.48296.2673787-.668715.4652407c-.185756.1978619-.334357.4304799-.445811.6978609-.111453.267381-.172486.5561482-.1831.8663102zm-4.235197 1.2032085c0 .3208573.045111.6310146.135335.9304813.090224.2994668.225558.5614962.406006.7860963.180448.2246.408658.4037426.684637.5374331s.605026.2005348.987151.2005348c.530729 0 .957959-.1149721 1.281704-.3449198s.565223-.574864.724442-1.0347594h1.719553c-.095531.4492002-.260055.8502657-.493575 1.2032086-.233521.3529429-.514803.6497314-.843855.8903743s-.697903.4224593-1.106565.5454546c-.408661.1229952-.835892.184492-1.281704.184492-.647489 0-1.220668-.1069508-1.719554-.3208557-.498885-.2139048-.920808-.513367-1.265782-.8983957-.344974-.3850286-.605027-.8449171-.780168-1.3796791-.17514-.5347621-.262709-1.1229915-.262709-1.7647059 0-.5882382.092876-1.1470562.278631-1.6764706s.451116-.9946504.79609-1.3957219c.344973-.4010715.761589-.7192502 1.24986-.9545455s1.040221-.3529412 1.655867-.3529412c.647489 0 1.228629.1363623 1.743436.409091.514807.2727286.942037.6336876 1.281704 1.0828877s.586452.9652377.740363 1.5481283c.153912.5828906.193716 1.1844889.119414 1.8048128z" fill="#4a4a4a"/></g><g transform="translate(40 106)"><path d="m10 1.5c-4.69442037 0-8.5 3.80557963-8.5 8.5v64c0 4.6944204 3.80557963 8.5 8.5 8.5h210c4.69442 0 8.5-3.8055796 8.5-8.5v-64c0-4.69442037-3.80558-8.5-8.5-8.5z" fill="#fff" stroke="#3662a2" stroke-width="3"/><path d="m67 36.2727273h2.1016765l5.1905042 8.4385026h.0318436v-8.4385026h1.8946932v11.4545454h-2.1016765l-5.1745824-8.4224599h-.0477654v8.4224599h-1.8946932zm15.0938587 11.6791444c-.658104 0-1.2445508-.1096246-1.759358-.328877-.5148071-.2192525-.9499984-.5213885-1.3055869-.9064172-.3555885-.3850286-.6262562-.8449171-.8120114-1.3796791s-.2786314-1.1229914-.2786314-1.7647059c0-.6310192.0928762-1.2139011.2786314-1.7486631s.4564229-.9946505.8120114-1.3796791c.3555885-.3850287.7907798-.6871647 1.3055869-.9064171.5148072-.2192525 1.101254-.3288771 1.759358-.3288771.6581041 0 1.2445509.1096246 1.759358.3288771.5148072.2192524.9499985.5213884 1.305587.9064171.3555884.3850286.6262562.8449171.8120114 1.3796791.1857551.534762.2786313 1.1176439.2786313 1.7486631 0 .6417145-.0928762 1.2299439-.2786313 1.7647059-.1857552.534762-.456423.9946505-.8120114 1.3796791-.3555885.3850287-.7907798.6871647-1.305587.9064172-.5148071.2192524-1.1012539.328877-1.759358.328877zm0-1.4438503c.4033541 0 .75363-.0855607 1.0508383-.2566845.2972083-.1711239.54134-.3957205.7324024-.6737968.1910625-.2780762.3317036-.5909073.4219275-.9385027.090224-.3475953.1353353-.7032067.1353353-1.0668449 0-.3529429-.0451113-.7058806-.1353353-1.0588235-.0902239-.352943-.230865-.6657741-.4219275-.9385027-.1910624-.2727286-.4351941-.4946515-.7324024-.6657754-.2972083-.1711238-.6474842-.2566845-1.0508383-.2566845-.403354 0-.75363.0855607-1.0508382.2566845-.2972083.1711239-.54134.3930468-.7324025.6657754-.1910624.2727286-.3317035.5855597-.4219274.9385027-.090224.3529429-.1353353.7058806-.1353353 1.0588235 0 .3636382.0451113.7192496.1353353 1.0668449.0902239.3475954.230865.6604265.4219274.9385027.1910625.2780763.4351942.5026729.7324025.6737968.2972082.1711238.6474842.2566845 1.0508382.2566845zm13.4220706 1.2192513h-1.7195535v-1.1229946h-.0318436c-.2441353.4812858-.5997185.8262021-1.06676 1.0347593-.4670416.2085572-.9606122.3128343-1.4807267.3128343-.6474894 0-1.2127074-.1149722-1.6956708-.3449198-.4829635-.2299477-.8836579-.5427788-1.2020953-.9385027-.3184374-.3957219-.5572619-.8636337-.7164807-1.4037433-.1592187-.5401097-.2388268-1.1203178-.2388268-1.7406417 0-.7486669.100837-1.3957192.302514-1.9411765.2016771-.5454573.4696912-.9946506.8040505-1.3475936.3343593-.3529429.7164785-.6122986 1.146369-.7780748.4298906-.1657763.8677355-.2486632 1.3135479-.2486632.2547499 0 .5148032.024064.7801678.0721926.2653645.0481285.5201106.1256679.764246.2326203.2441353.1069524.4696918.2433147.6766761.4090909.2069844.1657762.3794687.3609614.5174583.5855615h.0318436v-4.2352941h1.8150842zm-6.3368732-4.0588235c0 .3529429.0451113.700533.1353353 1.0427807.0902239.3422477.2282114.6470575.4139666.9144385.1857551.2673811.421926.4812827.7085197.6417113s.6262552.2406417 1.0189947.2406417c.4033541 0 .7509764-.0855607 1.0428774-.2566845.2919009-.1711239.5307254-.3957205.7164806-.6737968.1857552-.2780762.3237426-.5909073.4139666-.9385027.0902239-.3475953.1353352-.7032067.1353352-1.0668449 0-.9197861-.2043276-1.6363611-.612989-2.1497326-.4086613-.5133716-.9632649-.7700535-1.6638272-.7700535-.4245833 0-.78282.0882344-1.074721.2647059s-.5307254.4064157-.7164806.6898396c-.1857552.2834238-.3184355.6042763-.3980448.9625668-.0796094.3582906-.1194135.7245971-.1194135 1.0989305zm13.9634119-.8181818c-.02123-.2887715-.082262-.5668436-.183101-.8342246-.100838-.267381-.238826-.499999-.413967-.697861-.17514-.1978619-.387429-.3582881-.636871-.4812834-.249443-.1229953-.528071-.184492-.835894-.184492-.318438 0-.607681.0561492-.867738.1684492-.2600572.1123-.48296.2673787-.6687152.4652407-.1857552.1978619-.3343571.4304799-.4458102.6978609s-.172486.5561482-.1831006.8663102zm-4.235197 1.2032085c0 .3208573.0451113.6310146.1353352.9304813.090224.2994668.2255579.5614962.4060057.7860963.1804479.2246.408658.4037426.6846371.5374331.275979.1336905.605026.2005348.987151.2005348.530729 0 .95796-.1149721 1.281704-.3449198.323745-.2299477.565223-.574864.724442-1.0347594h1.719553c-.095531.4492002-.260054.8502657-.493575 1.2032086s-.514803.6497314-.843855.8903743-.697903.4224593-1.106565.5454546c-.408661.1229952-.835892.184492-1.281704.184492-.647489 0-1.2206681-.1069508-1.7195534-.3208557-.4988853-.2139048-.9208086-.513367-1.2657825-.8983957-.3449739-.3850286-.6050272-.8449171-.7801678-1.3796791-.1751406-.5347621-.2627096-1.1229915-.2627096-1.7647059 0-.5882382.0928762-1.1470562.2786314-1.6764706s.4511157-.9946504.7960896-1.3957219.7615899-.7192502 1.2498606-.9545455c.4882708-.2352953 1.0402207-.3529412 1.6558667-.3529412.647489 0 1.228629.1363623 1.743436.409091.514807.2727286.942038.6336876 1.281704 1.0828877.339667.4492001.586452.9652377.740363 1.5481283.153912.5828906.193716 1.1844889.119414 1.8048128zm13.422071-.144385c0 .4385049.074301.8128327.222905 1.1229947.148604.3101619.355585.5641701.62095.762032.265364.197862.570529.3422456.915503.4331551.344973.0909096.719132.1363637 1.122486.1363637.435198 0 .806703-.0508017 1.114525-.1524065.307823-.1016047.557262-.2326195.748325-.3930481.191062-.1604286.32905-.3449187.413966-.5534759.084917-.2085572.127375-.419785.127375-.6336899 0-.4385048-.098184-.762031-.294554-.9705882-.196369-.2085572-.411311-.3556145-.644832-.4411765-.403354-.1497333-.873042-.2914431-1.409079-.4251337-.536036-.1336905-1.196784-.3074855-1.982263-.5213903-.488271-.1283429-.894272-.2967904-1.218017-.5053476s-.581144-.4411752-.772207-.697861c-.191062-.2566858-.326396-.5294103-.406006-.8181818-.079609-.2887715-.119413-.5828862-.119413-.8823529 0-.577543.119412-1.077538.35824-1.5s.554607-.7727259.947347-1.0508022c.392739-.2780762.838545-.4839565 1.33743-.617647.498886-.1336905 1.003071-.2005348 1.512571-.2005348.594416 0 1.154327.0775393 1.679749.2326203.525421.155081.987149.387699 1.385196.697861.398046.310162.713825.6925111.947346 1.1470588s.35028.9812804.35028 1.5802139h-1.990224c-.053073-.7379716-.302512-1.2593568-.748325-1.5641711-.445812-.3048144-1.013684-.4572193-1.703631-.4572193-.233521 0-.472346.024064-.716481.0721925-.244135.0481286-.467038.1283417-.668715.2406418-.201677.1123-.368854.2647049-.501537.4572192-.132682.1925143-.199022.4331536-.199022.7219251 0 .4064192.124719.7245978.374162.9545455s.575836.4037427.97919.5213904c.042459.0106952.209636.0561493.501537.1363636s.618294.1684487.97919.2647059.713825.1898391 1.058799.2807487c.344974.0909095.591759.1577538.740363.2005347.371511.1176477.695251.2780739.97123.4812834.275979.2032096.506843.4358276.692598.697861s.323742.5427793.413966.842246.135336.598929.135336.8983957c0 .6417145-.130027 1.1898373-.390084 1.644385-.260058.4545478-.602373.8262018-1.026956 1.1149733s-.907539.4999993-1.448883.6336898-1.093294.2005348-1.655866.2005348c-.64749 0-1.257819-.0802131-1.831006-.2406417-.573188-.1604286-1.072066-.4064155-1.496649-.7379679-.424583-.3315525-.764245-.7566819-1.018995-1.2754011s-.38743-1.1310125-.398044-1.8368984zm14.409221-1.0588235c-.021229-.2887715-.082262-.5668436-.1831-.8342246-.100839-.267381-.238826-.499999-.413967-.697861-.17514-.1978619-.387429-.3582881-.636872-.4812834-.249442-.1229953-.528071-.184492-.835894-.184492-.318437 0-.60768.0561492-.867737.1684492-.260058.1123-.48296.2673787-.668716.4652407-.185755.1978619-.334357.4304799-.44581.6978609s-.172486.5561482-.1831.8663102zm-4.235196 1.2032085c0 .3208573.045111.6310146.135335.9304813.090224.2994668.225558.5614962.406006.7860963.180447.2246.408658.4037426.684637.5374331s.605026.2005348.987151.2005348c.530729 0 .957959-.1149721 1.281704-.3449198s.565223-.574864.724441-1.0347594h1.719554c-.095531.4492002-.260055.8502657-.493576 1.2032086-.23352.3529429-.514802.6497314-.843855.8903743-.329052.2406429-.697903.4224593-1.106564.5454546-.408661.1229952-.835892.184492-1.281704.184492-.64749 0-1.220669-.1069508-1.719554-.3208557-.498885-.2139048-.920808-.513367-1.265782-.8983957-.344974-.3850286-.605027-.8449171-.780168-1.3796791-.175141-.5347621-.26271-1.1229915-.26271-1.7647059 0-.5882382.092877-1.1470562.278632-1.6764706s.451115-.9946504.796089-1.3957219.76159-.7192502 1.249861-.9545455 1.040221-.3529412 1.655866-.3529412c.64749 0 1.228629.1363623 1.743437.409091.514807.2727286.942037.6336876 1.281704 1.0828877.339666.4492001.586452.9652377.740363 1.5481283.153912.5828906.193716 1.1844889.119414 1.8048128zm7.435476-4.6203208h1.703632v1.6042781h.031844c.053073-.2246001.156563-.4438492.310475-.6577541.153911-.2139048.339664-.40909.557262-.5855615.217599-.1764714.459077-.3181812.724442-.4251336.265364-.1069524.536032-.1604279.812011-.1604279.212292 0 .35824.0053476.43785.0160428.079609.0106953.161871.0213904.246787.0320856v1.7647059c-.127375-.0213905-.257401-.0401069-.390083-.0561498-.132683-.0160428-.262709-.0240641-.390084-.0240641-.307823 0-.597066.0614967-.867738.1844919-.270672.1229953-.506843.3048117-.70852.5454546s-.360893.5374331-.477654.8903743c-.11676.352943-.175139.759356-.175139 1.2192514v3.946524h-1.815085zm4.79246 0h1.974302l2.085755 6.3689839h.031843l2.006146-6.3689839h1.878772l-2.945532 8.2941176h-2.037989zm9.123187-3.1604278h1.815084v1.7326203h-1.815084zm0 3.1604278h1.815084v8.2941176h-1.815084zm9.346091 2.775401c-.074302-.5133715-.278629-.9010682-.612989-1.1631016-.334359-.2620334-.756282-.3930481-1.265782-.3930481-.233521 0-.48296.0401066-.748324.1203209-.265365.0802143-.509496.2299454-.732403.4491978-.222906.2192525-.408658.5240623-.557262.9144385-.148604.3903763-.222905.9010664-.222905 1.5320856 0 .3422477.039804.6844903.119413 1.026738s.206982.6470575.382123.9144385.400697.4839564.676676.6497326.610334.2486631 1.003073.2486631c.530729 0 .968574-.1657738 1.313548-.4973262.344974-.3315525.559916-.7967885.644832-1.3957219h1.815085c-.169834 1.0802193-.575835 1.9064142-1.218017 2.4786096s-1.49399.8582888-2.555448.8582888c-.647489 0-1.218015-.1096246-1.711593-.328877-.493578-.2192525-.910194-.5187147-1.24986-.8983958-.339667-.379681-.597067-.8315482-.772207-1.3556149-.175141-.5240668-.26271-1.0909061-.26271-1.7005348 0-.620324.084916-1.2032058.254749-1.7486631s.424579-1.0187146.764246-1.4197861.76159-.7165764 1.265782-.9465241c.504193-.2299476 1.095947-.3449198 1.77528-.3449198.477656 0 .931423.0614968 1.361313.184492.429891.1229953.81201.3074854 1.146369.553476.33436.2459905.607681.5561478.819973.9304812.212291.3743335.339664.8181793.382123 1.3315508zm8.948048.6417113c-.02123-.2887715-.082263-.5668436-.183101-.8342246-.100839-.267381-.238826-.499999-.413967-.697861-.17514-.1978619-.387429-.3582881-.636871-.4812834-.249443-.1229953-.528072-.184492-.835894-.184492-.318438 0-.607681.0561492-.867738.1684492s-.48296.2673787-.668715.4652407c-.185756.1978619-.334357.4304799-.445811.6978609-.111453.267381-.172486.5561482-.1831.8663102zm-4.235197 1.2032085c0 .3208573.045111.6310146.135335.9304813.090224.2994668.225558.5614962.406006.7860963.180448.2246.408658.4037426.684637.5374331s.605026.2005348.987151.2005348c.530729 0 .957959-.1149721 1.281704-.3449198s.565223-.574864.724442-1.0347594h1.719553c-.095531.4492002-.260055.8502657-.493575 1.2032086-.233521.3529429-.514803.6497314-.843855.8903743s-.697903.4224593-1.106565.5454546c-.408661.1229952-.835892.184492-1.281704.184492-.647489 0-1.220668-.1069508-1.719554-.3208557-.498885-.2139048-.920808-.513367-1.265782-.8983957-.344974-.3850286-.605027-.8449171-.780168-1.3796791-.17514-.5347621-.262709-1.1229915-.262709-1.7647059 0-.5882382.092876-1.1470562.278631-1.6764706s.451116-.9946504.79609-1.3957219c.344973-.4010715.761589-.7192502 1.24986-.9545455s1.040221-.3529412 1.655867-.3529412c.647489 0 1.228629.1363623 1.743436.409091.514807.2727286.942037.6336876 1.281704 1.0828877s.586452.9652377.740363 1.5481283c.153912.5828906.193716 1.1844889.119414 1.8048128z" fill="#4a4a4a"/></g></g><g transform="translate(555 486)"><g fill-rule="evenodd"><path d="m.25.25v62.5h105.5v-62.5z" fill="#4a4a4a" stroke="#4a4a4a" stroke-width=".5"/><path d="m0 0h106v8h-106z" fill="#d8d8d8"/><g fill="#4a4a4a"><circle cx="24" cy="4" r="3"/><circle cx="15" cy="4" r="3"/><circle cx="7" cy="4" r="3"/></g></g><text fill="#fff" font-family="Helvetica" font-size="18"><tspan x="6" y="43">&gt; tctl</tspan></text><text fill="#4a4a4a" font-family="HelveticaNeue-Medium, Helvetica Neue" font-size="16" font-weight="400"><tspan x="15.368" y="88">CLI admin</tspan></text></g><g fill="#979797" fill-rule="nonzero"><path d="m173.32669 75.8144612 104.62831 62.4015388 2.04981-3.434763 5.424615 8.474877-10.034672-.745234 2.048247-3.43588-104.628539-62.4016896z"/><path d="m404.5 186.999041v122.311959l4 .000833-4.5 9-4.5-9 4-.000833v-122.311959z"/><path d="m372 188.5 4.5 9h-4v122.312792h-1v-122.312792h-4z"/><path d="m388 391.812792 4.5 9-4-.000792v123.000792h-1v-123.000792l-4 .000792z"/><path d="m284.919481 152.227904-5.101792 8.673046-2.177689-3.35595-104.287385 67.646576-.544191-.838961 104.287576-67.646615-2.176031-3.355701z"/></g><path d="m388.5 523.5 166.5-.5" stroke="#979797" stroke-linecap="square"/><g transform="translate(216 68)"><circle cx="13.5" cy="13.5" fill="#f26738" r="13.5"/><text fill="#fff" font-family="HelveticaNeue-Medium, Helvetica Neue" font-size="16" font-weight="400"><tspan x="9.052" y="20">1</tspan></text></g><g transform="translate(336 234)"><circle cx="13.5" cy="13.5" fill="#f26738" r="13.5"/><text fill="#fff" font-family="HelveticaNeue-Medium, Helvetica Neue" font-size="16" font-weight="400"><tspan x="9.052" y="20">3</tspan></text></g><g transform="translate(413 234)"><circle cx="13.5" cy="13.5" fill="#f26738" r="13.5"/><text fill="#fff" font-family="HelveticaNeue-Medium, Helvetica Neue" font-size="16" font-weight="400"><tspan x="9.052" y="20">2</tspan></text></g><g transform="translate(558 27)"><path d="m1.5 1.5h168v53h-168z" fill="#eef4f9" stroke="#d1eaff" stroke-width="3"/><path d="m10.5 75-9.5-19h19z" fill="#d1eaff" stroke="#d1eaff"/><text fill="#4a4a4a" font-family="Helvetica" font-size="13"><tspan x="13.222412" y="24">Nodes authenticate node</tspan><tspan x="5.652832" y="40">keys signed by auth service</tspan></text></g><g stroke="#d1eaff" transform="translate(628 386)"><path d="m1.5 20.5h168v53h-168z" fill="#eef4f9" stroke-width="3"/><path d="m10.5 19-9.5-19h19z" fill="#d1eaff" transform="matrix(-1 0 0 -1 21 19)"/></g><g transform="translate(556 112)"><circle cx="13.5" cy="13.5" fill="#f26738" r="13.5"/><text fill="#fff" font-family="HelveticaNeue-Medium, Helvetica Neue" font-size="16" font-weight="400"><tspan x="9.052" y="20">4</tspan></text></g><g transform="translate(626 349)"><circle cx="13.5" cy="13.5" fill="#f26738" r="13.5"/><text fill="#fff" font-family="HelveticaNeue-Medium, Helvetica Neue" font-size="16" font-weight="400"><tspan x="9.052" y="20">5</tspan></text></g><g stroke="#d1eaff" transform="translate(450 237)"><path d="m18.5 1.5h124v46h-124z" fill="#eef4f9" stroke-width="3"/><path d="m8.5 19-9.5-17h19z" fill="#d1eaff" transform="matrix(0 1 -1 0 19 2)"/></g><text fill="#4a4a4a" font-family="Helvetica" font-size="13"><tspan x="478.017822" y="258">Generate and sign</tspan><tspan x="482.000977" y="274">auto-expiring key</tspan></text><g stroke="#d1eaff" transform="translate(182 237)"><path d="m1.5 1.5h124v46h-124z" fill="#eef4f9" stroke-width="3"/><path d="m135.5 19-9.5-17h19z" fill="#d1eaff" transform="matrix(0 -1 1 0 125 146)"/></g><g fill="#4a4a4a" font-family="Helvetica" font-size="13"><text><tspan x="206.362793" y="258">Authenticate</tspan><tspan x="202.763672" y="274">users via 2FA</tspan></text><text><tspan x="635.017822" y="429">Check clients auto-expiring</tspan><tspan x="655.612793" y="445">key for CA signature</tspan></text></g></g></svg>