<svg width="833" height="301" fill="none" xmlns="http://www.w3.org/2000/svg"><g clip-path="url(#a)"><path d="m555 146-10-5.774v11.548L555 146zm-437 1h428v-2H118v2z" fill="#697986"/><g filter="url(#b)"><rect x="6" y="32" width="112" height="228" rx="8" fill="#fff" shape-rendering="crispEdges"/><g filter="url(#c)"><rect x="30" y="56" width="64" height="64" rx="6" fill="#fff"/><path fill-rule="evenodd" clip-rule="evenodd" d="M69.32 83.681a4.486 4.486 0 0 0 3.18 1.32c1.19 0 2.274-.465 3.08-1.222L77.8 86v3h-3.995l-4.902-4.903.416-.416zm1.556-.08c.486.255 1.038.4 1.624.4.586 0 1.138-.145 1.624-.4h-3.248zM67 86l.488-.49 1.953 1.954L67 86z" fill="#697986"/><path d="M72.5 84c-1.93 0-3.5-1.57-3.5-3.5s1.57-3.5 3.5-3.5 3.5 1.57 3.5 3.5-1.57 3.5-3.5 3.5z" fill="#697986"/><path fill-rule="evenodd" clip-rule="evenodd" d="M48.32 83.681a4.486 4.486 0 0 0 3.18 1.32c1.19 0 2.274-.465 3.08-1.222l.492.493L50.344 89H46v-3l2.32-2.319zm1.556-.08c.486.255 1.038.4 1.624.4.586 0 1.138-.145 1.624-.4h-3.248zm5.516 3.128 1.068-1.069.34.34-1.408.729z" fill="#697986"/><path d="M51.5 84c-1.93 0-3.5-1.57-3.5-3.5s1.57-3.5 3.5-3.5 3.5 1.57 3.5 3.5-1.57 3.5-3.5 3.5z" fill="#697986"/><path fill-rule="evenodd" clip-rule="evenodd" d="M57.105 85A6.977 6.977 0 0 0 62 87a6.977 6.977 0 0 0 4.895-2H67l4 4H53l4-4h.105zm1.581 0c.95.632 2.09 1 3.314 1a5.966 5.966 0 0 0 3.314-1h-6.628zM51.096 90a1 1 0 0 0-.995 1.092l1.015 11a1 1 0 0 0 .996.908h19.776a1 1 0 0 0 .996-.908l1.015-11A1 1 0 0 0 72.903 90H51.096zm7.271 4.672a.5.5 0 1 0-.734-.678l-2 2.167a.5.5 0 0 0 0 .678l2 2.167a.5.5 0 1 0 .734-.678L56.681 96.5l1.686-1.828zm7.294-.706a.5.5 0 0 0-.028.707L67.32 96.5l-1.687 1.828a.5.5 0 1 0 .734.678l2-2.167a.5.5 0 0 0 0-.678l-2-2.167a.5.5 0 0 0-.706-.028zm-1.294.707a.5.5 0 0 0-.734-.679l-4 4.334a.5.5 0 1 0 .734.678l4-4.334z" fill="#697986"/><path d="M62 86c-3.309 0-6-2.691-6-6s2.691-6 6-6 6 2.691 6 6-2.691 6-6 6z" fill="#697986"/><rect x="30.5" y="56.5" width="63" height="63" rx="5.5" stroke="#BECACF"/></g><path d="M39.79 129.77v1.07h-3.205v2.005h2.525v1.035h-2.525v2.045h3.205V137h-4.56v-7.23h4.56zm1.868 0c.06 0 .11.003.15.01.04.003.075.013.105.03a.28.28 0 0 1 .095.065.86.86 0 0 1 .1.11l3.795 4.835a6.305 6.305 0 0 1-.03-.34 10.502 10.502 0 0 1-.005-.315v-4.395h1.185V137h-.695a.621.621 0 0 1-.265-.05.583.583 0 0 1-.205-.18l-3.78-4.815c.01.107.016.213.02.32.006.103.01.198.01.285V137h-1.185v-7.23h.705zm10.173 6.24c.304 0 .567-.027.79-.08.227-.057.442-.133.645-.23v-1.315h-.905a.287.287 0 0 1-.205-.07.245.245 0 0 1-.075-.18v-.76h2.405v2.925a3.632 3.632 0 0 1-1.21.59c-.223.063-.463.11-.72.14a6.52 6.52 0 0 1-.83.05 3.777 3.777 0 0 1-1.455-.275 3.446 3.446 0 0 1-1.15-.765 3.52 3.52 0 0 1-.76-1.17 3.986 3.986 0 0 1-.27-1.485c0-.543.089-1.042.265-1.495.177-.453.427-.843.75-1.17a3.38 3.38 0 0 1 1.185-.76c.464-.18.984-.27 1.56-.27.59 0 1.1.088 1.53.265.434.173.8.4 1.1.68l-.39.61c-.076.123-.178.185-.305.185a.456.456 0 0 1-.245-.08 14.676 14.676 0 0 0-.33-.19 2.152 2.152 0 0 0-.37-.165 2.882 2.882 0 0 0-.455-.115 3.307 3.307 0 0 0-.58-.045c-.356 0-.68.06-.97.18-.286.12-.531.292-.735.515a2.32 2.32 0 0 0-.47.805c-.11.313-.165.663-.165 1.05 0 .417.059.788.175 1.115.117.323.28.597.49.82.21.223.46.395.75.515.29.117.607.175.95.175zm5.422.99h-1.35v-7.23h1.35V137zm2.334-7.23c.06 0 .11.003.15.01.04.003.075.013.105.03a.28.28 0 0 1 .095.065c.03.027.064.063.1.11l3.795 4.835a6.516 6.516 0 0 1-.03-.34 10.847 10.847 0 0 1-.005-.315v-4.395h1.185V137h-.695a.621.621 0 0 1-.265-.05.584.584 0 0 1-.205-.18l-3.78-4.815c.01.107.017.213.02.32.007.103.01.198.01.285V137h-1.185v-7.23h.705zm11.414 0v1.07h-3.205v2.005h2.525v1.035h-2.525v2.045H71V137h-4.56v-7.23H71zm5.723 0v1.07h-3.205v2.005h2.525v1.035h-2.525v2.045h3.205V137h-4.56v-7.23h4.56zm2.552 4.405V137h-1.345v-7.23h2.205c.494 0 .915.052 1.265.155.354.1.642.242.865.425.227.183.392.403.495.66.107.253.16.533.16.84 0 .243-.036.473-.11.69a2.017 2.017 0 0 1-.81 1.055 2.59 2.59 0 0 1-.675.32c.17.097.317.235.44.415l1.81 2.67h-1.21a.601.601 0 0 1-.3-.07.616.616 0 0 1-.205-.2l-1.52-2.315a.526.526 0 0 0-.19-.185.637.637 0 0 0-.3-.055h-.575zm0-.965h.84c.254 0 .474-.032.66-.095.19-.063.345-.15.465-.26.124-.113.215-.247.275-.4.06-.153.09-.322.09-.505 0-.367-.121-.648-.365-.845-.24-.197-.608-.295-1.105-.295h-.86v2.4zm9.038-2.125a.365.365 0 0 1-.13.155.308.308 0 0 1-.17.045.448.448 0 0 1-.225-.075 5.823 5.823 0 0 0-.295-.175 2.279 2.279 0 0 0-.4-.17 1.609 1.609 0 0 0-.535-.08c-.187 0-.35.023-.49.07a1.025 1.025 0 0 0-.35.185.76.76 0 0 0-.21.29.926.926 0 0 0-.07.365c0 .17.047.312.14.425.097.113.223.21.38.29.157.08.335.152.535.215s.403.132.61.205c.21.07.415.153.615.25.2.093.378.213.535.36.157.143.282.32.375.53.097.21.145.465.145.765 0 .327-.057.633-.17.92a2.1 2.1 0 0 1-.49.745c-.213.21-.475.377-.785.5-.31.12-.665.18-1.065.18-.23 0-.457-.023-.68-.07a3.434 3.434 0 0 1-1.22-.49 2.91 2.91 0 0 1-.475-.39l.39-.645a.47.47 0 0 1 .13-.115.327.327 0 0 1 .175-.05.47.47 0 0 1 .27.105c.097.067.21.142.34.225.133.083.288.16.465.23.18.067.395.1.645.1.383 0 .68-.09.89-.27.21-.183.315-.445.315-.785a.718.718 0 0 0-.145-.465 1.097 1.097 0 0 0-.375-.3 2.754 2.754 0 0 0-.535-.21c-.2-.057-.403-.118-.61-.185a5.38 5.38 0 0 1-.61-.24 1.97 1.97 0 0 1-.535-.365 1.7 1.7 0 0 1-.38-.56 2.2 2.2 0 0 1-.14-.835 2 2 0 0 1 .155-.77c.107-.25.26-.472.46-.665.203-.193.452-.348.745-.465a2.696 2.696 0 0 1 1.005-.175c.427 0 .82.067 1.18.2s.667.32.92.56l-.33.635z" fill="#697986"/><g filter="url(#d)"><rect x="30" y="154" width="64" height="64" rx="6" fill="#fff"/><g clip-path="url(#e)"><path fill-rule="evenodd" clip-rule="evenodd" d="M77 183.379a.701.701 0 0 1-.695.695h-2.384v3.868h2.384c.38 0 .695.3.695.695a.69.69 0 0 1-.695.695h-2.384v3.868h2.384c.38 0 .695.3.695.695 0 .394-.316.71-.695.71h-2.384v.869a2.375 2.375 0 0 1-2.368 2.368h-.885v2.463c0 .395-.3.695-.694.695-.395 0-.71-.3-.71-.695v-2.463H65.41v2.463a.704.704 0 0 1-.711.695.69.69 0 0 1-.695-.695v-2.463h-3.868v2.463c0 .395-.3.695-.695.695a.681.681 0 0 1-.695-.695v-2.463H54.88v2.463c0 .395-.3.695-.695.695-.395 0-.71-.3-.71-.695v-2.463h-.869a2.365 2.365 0 0 1-2.368-2.368v-.869h-2.542a.714.714 0 0 1-.695-.71c0-.379.316-.695.695-.695h2.542v-3.868h-2.542a.701.701 0 0 1-.695-.695c0-.379.316-.695.695-.695h2.542v-3.868h-2.542a.69.69 0 0 1-.695-.695c0-.395.316-.711.695-.711h2.542v-3.852h-2.542c-.38 0-.695-.332-.695-.711a.7.7 0 0 1 .695-.694h2.542v-.885a2.376 2.376 0 0 1 2.368-2.368h.869v-2.447c0-.395.331-.711.71-.711.38 0 .695.316.695.711v2.447h3.868v-2.447c0-.395.316-.711.695-.711.38 0 .695.316.695.711v2.447h3.868v-2.447c0-.395.3-.711.695-.711.395 0 .71.316.71.711v2.447h3.853v-2.447c0-.395.332-.711.71-.711.38 0 .695.316.695.711v2.447h.885a2.386 2.386 0 0 1 2.368 2.368v.885h2.384c.38 0 .695.3.695.694a.705.705 0 0 1-.695.711h-2.384v3.852h2.384c.38 0 .695.332.695.711zm-23.068 8.284a2.365 2.365 0 0 1 2.368-2.368 2.365 2.365 0 0 1 2.368 2.368 2.365 2.365 0 0 1-2.368 2.369 2.365 2.365 0 0 1-2.368-2.369z" fill="#697986"/></g><rect x="30.5" y="154.5" width="63" height="63" rx="5.5" stroke="#BECACF"/></g><path d="M39.86 232c.057.107.108.218.155.335.05.113.098.228.145.345a11.7 11.7 0 0 1 .145-.355c.05-.117.103-.228.16-.335l2.14-4.005a.622.622 0 0 1 .08-.12.28.28 0 0 1 .095-.065.452.452 0 0 1 .12-.025c.043-.003.095-.005.155-.005h1.015V235h-1.185v-4.67c0-.087.002-.182.005-.285.007-.103.015-.208.025-.315l-2.185 4.1a.597.597 0 0 1-.195.22.517.517 0 0 1-.28.075h-.185a.517.517 0 0 1-.28-.075.597.597 0 0 1-.195-.22l-2.215-4.115c.013.11.022.218.025.325.007.103.01.2.01.29V235H36.23v-7.23h1.015c.06 0 .112.002.155.005a.39.39 0 0 1 .115.025c.037.013.07.035.1.065s.058.07.085.12L39.86 232zm12.022 3h-1.04a.472.472 0 0 1-.29-.085.52.52 0 0 1-.16-.22l-.54-1.475h-2.995l-.54 1.475a.465.465 0 0 1-.16.21.435.435 0 0 1-.285.095h-1.045l2.84-7.23h1.375l2.84 7.23zm-4.68-2.73h2.305l-.88-2.405a18.92 18.92 0 0 1-.135-.375 12.376 12.376 0 0 1-.14-.475 12.746 12.746 0 0 1-.27.86l-.88 2.395zm10.14 1.025c.074 0 .137.028.19.085l.53.575a2.907 2.907 0 0 1-1.084.835c-.427.193-.94.29-1.54.29-.537 0-1.02-.092-1.45-.275a3.187 3.187 0 0 1-1.095-.765 3.384 3.384 0 0 1-.7-1.17 4.43 4.43 0 0 1-.24-1.485c0-.543.09-1.04.27-1.49a3.42 3.42 0 0 1 .76-1.17c.326-.327.716-.58 1.17-.76.456-.183.96-.275 1.51-.275.536 0 1.005.087 1.405.26.403.17.748.397 1.035.68l-.45.625a.394.394 0 0 1-.105.105.279.279 0 0 1-.17.045.393.393 0 0 1-.235-.09 2.472 2.472 0 0 0-.775-.39 2.38 2.38 0 0 0-.715-.09c-.34 0-.654.06-.94.18a2.089 2.089 0 0 0-.735.505c-.204.22-.364.488-.48.805a3.1 3.1 0 0 0-.17 1.06c0 .407.056.768.17 1.085.116.317.273.583.47.8.196.217.428.383.695.5.266.113.553.17.86.17.183 0 .348-.01.495-.03.15-.02.286-.052.41-.095.126-.043.245-.098.355-.165.113-.07.225-.155.335-.255a.42.42 0 0 1 .105-.07.246.246 0 0 1 .12-.03zm7.84 1.705h-1.355v-3.16h-3.39V235h-1.355v-7.23h1.355v3.11h3.39v-3.11h1.355V235zm2.973 0h-1.35v-7.23h1.35V235zm2.335-7.23c.06 0 .11.003.15.01.04.003.075.013.105.03a.28.28 0 0 1 .095.065.86.86 0 0 1 .1.11l3.795 4.835a6.516 6.516 0 0 1-.03-.34 10.847 10.847 0 0 1-.005-.315v-4.395h1.185V235h-.695a.621.621 0 0 1-.265-.05.584.584 0 0 1-.205-.18l-3.78-4.815c.01.107.016.213.02.32.006.103.01.198.01.285V235h-1.185v-7.23h.705zm11.413 0v1.07h-3.205v2.005h2.525v1.035h-2.525v2.045h3.205V235h-4.56v-7.23h4.56zm5.038 1.315a.364.364 0 0 1-.13.155.308.308 0 0 1-.17.045.449.449 0 0 1-.225-.075 5.779 5.779 0 0 0-.295-.175 2.276 2.276 0 0 0-.4-.17 1.609 1.609 0 0 0-.535-.08c-.187 0-.35.023-.49.07a1.026 1.026 0 0 0-.35.185.76.76 0 0 0-.21.29.928.928 0 0 0-.07.365c0 .17.047.312.14.425.097.113.223.21.38.29.157.08.335.152.535.215s.403.132.61.205c.21.07.415.153.615.25.2.093.378.213.535.36.157.143.282.32.375.53.097.21.145.465.145.765 0 .327-.057.633-.17.92a2.1 2.1 0 0 1-.49.745c-.213.21-.475.377-.785.5-.31.12-.665.18-1.065.18-.23 0-.457-.023-.68-.07a3.434 3.434 0 0 1-1.22-.49 2.914 2.914 0 0 1-.475-.39l.39-.645a.47.47 0 0 1 .13-.115.327.327 0 0 1 .175-.05.47.47 0 0 1 .27.105c.097.067.21.142.34.225.133.083.288.16.465.23.18.067.395.1.645.1.383 0 .68-.09.89-.27.21-.183.315-.445.315-.785a.718.718 0 0 0-.145-.465 1.097 1.097 0 0 0-.375-.3 2.752 2.752 0 0 0-.535-.21c-.2-.057-.403-.118-.61-.185a5.387 5.387 0 0 1-.61-.24 1.97 1.97 0 0 1-.535-.365 1.701 1.701 0 0 1-.38-.56 2.2 2.2 0 0 1-.14-.835 2 2 0 0 1 .155-.77c.107-.25.26-.472.46-.665.203-.193.452-.348.745-.465a2.697 2.697 0 0 1 1.005-.175c.427 0 .82.067 1.18.2s.667.32.92.56l-.33.635z" fill="#697986"/><rect x="6.5" y="32.5" width="111" height="227" rx="7.5" stroke="#BECACF" shape-rendering="crispEdges"/></g><g filter="url(#f)"><rect x="182" y="8" width="309" height="277" rx="8" fill="url(#g)" shape-rendering="crispEdges"/><path fill-rule="evenodd" clip-rule="evenodd" d="M276.758 32.316a.681.681 0 0 1 .539.447l.023.085.81 4.122c1.082.412 2.103.97 3.034 1.656l.339.26 4.087-1.384c.264-.112.545-.031.743.193 1.406 1.563 2.548 3.45 3.21 5.43a.585.585 0 0 1-.126.666l-.072.06-3.243 2.736c.116.611.149 1.273.149 1.916 0 .519-.022 1.044-.09 1.546l-.059.372 3.243 2.74a.593.593 0 0 1 .198.724c-.661 1.983-1.802 3.866-3.208 5.428-.178.2-.419.288-.656.224l-.089-.03-4.085-1.386a12.494 12.494 0 0 1-2.969 1.755l-.405.162-.811 4.125a.67.67 0 0 1-.197.353.686.686 0 0 1-.365.179 17.829 17.829 0 0 1-3.209.305c-1.092 0-2.151-.113-3.21-.305a.671.671 0 0 1-.54-.447l-.022-.085-.81-4.125a12.342 12.342 0 0 1-3.077-1.679l-.298-.238-4.085 1.386c-.264.113-.545.032-.745-.194-1.406-1.562-2.547-3.445-3.208-5.428a.592.592 0 0 1 .126-.666l.072-.059 3.242-2.739a10.448 10.448 0 0 1-.15-1.918c0-.514.021-1.04.089-1.544l.061-.371-3.243-2.738a.589.589 0 0 1-.198-.724c.661-1.981 1.801-3.868 3.208-5.431a.648.648 0 0 1 .656-.223l.09.029 4.085 1.385a11.902 11.902 0 0 1 3.008-1.771l.367-.146.81-4.122a.678.678 0 0 1 .562-.532c2.118-.42 4.299-.42 6.417 0l.002.001zm90.647 11.053c.817 0 1.573.176 2.267.53.711.366 1.326.89 1.799 1.531.505.669.899 1.485 1.186 2.452.287.968.43 2.064.43 3.291 0 1.149-.162 2.209-.491 3.18a7.936 7.936 0 0 1-1.374 2.533 6.303 6.303 0 0 1-2.117 1.678 6.11 6.11 0 0 1-2.727.605c-.818 0-1.503-.113-2.056-.338a5.613 5.613 0 0 1-1.512-.913v5.86h-4.684V43.662h2.9l.143.007c.21.011.413.075.591.186.203.136.35.34.415.574l.347 1.12.231-.238c.236-.233.485-.447.745-.647a6.269 6.269 0 0 1 3.908-1.295h-.001zm-41.226.53a8.26 8.26 0 0 0-2.848-.47c-1.2 0-2.275.2-3.228.603a7.354 7.354 0 0 0-2.433 1.633 7.113 7.113 0 0 0-1.542 2.401 7.89 7.89 0 0 0-.536 2.901c0 1.355.208 2.543.628 3.563.417 1.021.987 1.875 1.707 2.563a7.143 7.143 0 0 0 2.524 1.553 9.023 9.023 0 0 0 3.091.523c.535 0 1.095-.037 1.685-.11a9.555 9.555 0 0 0 1.769-.399 8.137 8.137 0 0 0 1.722-.795c.48-.288.932-.654 1.356-1.091l.209-.226-1.359-1.635c-.193-.265-.474-.398-.847-.398-.283 0-.552.064-.808.192-.258.128-.541.27-.847.426-.338.17-.69.313-1.051.428-.393.128-.862.192-1.405.192-1.019 0-1.85-.288-2.495-.862-.601-.536-.988-1.377-1.16-2.525l-.033-.25h9.038c.212 0 .385-.025.521-.074a.631.631 0 0 0 .326-.265 1.31 1.31 0 0 0 .166-.516c.03-.215.046-.495.046-.838 0-1.1-.175-2.085-.523-2.954a6.236 6.236 0 0 0-1.451-2.2 6.212 6.212 0 0 0-2.222-1.37zm22.212-.47a8.26 8.26 0 0 1 2.849.47c.83.294 1.588.761 2.222 1.369.619.6 1.103 1.334 1.451 2.201.347.87.521 1.854.521 2.954 0 .343-.014.623-.046.838a1.293 1.293 0 0 1-.166.516.628.628 0 0 1-.324.265 1.558 1.558 0 0 1-.521.073h-9.04l.034.25c.172 1.149.558 1.99 1.161 2.526.645.575 1.476.861 2.495.861.543 0 1.012-.063 1.404-.191a7.158 7.158 0 0 0 1.05-.426c.308-.158.591-.3.847-.426.257-.13.527-.193.808-.193.374 0 .656.132.847.397l1.361 1.635-.211.226a6.76 6.76 0 0 1-1.354 1.091c-.56.34-1.133.605-1.722.796a9.562 9.562 0 0 1-1.769.398c-.59.073-1.15.11-1.685.11a9.007 9.007 0 0 1-3.091-.523 7.13 7.13 0 0 1-2.525-1.553c-.721-.688-1.289-1.54-1.708-2.562-.418-1.021-.627-2.21-.627-3.564 0-1.021.18-1.988.537-2.9a7.126 7.126 0 0 1 1.541-2.402 7.347 7.347 0 0 1 2.433-1.633c.952-.403 2.027-.605 3.226-.605l.002.001zm37.438.544c-.977-.363-2.059-.545-3.248-.545-1.2 0-2.291.182-3.274.545a7.3 7.3 0 0 0-2.539 1.56A6.907 6.907 0 0 0 375.122 48c-.388.967-.582 2.054-.582 3.261 0 1.217.194 2.314.582 3.292a6.992 6.992 0 0 0 1.646 2.489 7.335 7.335 0 0 0 2.539 1.574c.984.369 2.074.553 3.274.553 1.189 0 2.273-.184 3.248-.553a7.183 7.183 0 0 0 2.517-1.574 7.084 7.084 0 0 0 1.633-2.489c.388-.976.582-2.075.582-3.291 0-1.208-.194-2.295-.582-3.262a7.007 7.007 0 0 0-1.633-2.467 7.148 7.148 0 0 0-2.517-1.56zm25.379-4.742v4.461h3.808v3.121h-3.808v7.585l.005.148c.021.288.108.531.259.729.176.23.43.345.763.345.255.006.507-.053.733-.169a8.12 8.12 0 0 1 .242-.118.634.634 0 0 1 .265-.051.559.559 0 0 1 .34.096c.086.063.173.164.264.301l1.421 2.164-.23.161a6.606 6.606 0 0 1-1.81.834 8.35 8.35 0 0 1-2.344.33c-.745 0-1.402-.105-1.972-.315a3.932 3.932 0 0 1-1.436-.9 3.833 3.833 0 0 1-.884-1.405 5.32 5.32 0 0 1-.302-1.84v-7.893h-1.331l-.118-.007a.884.884 0 0 1-.501-.221c-.171-.152-.257-.376-.257-.671v-1.78l2.494-.473.923-3.726.034-.112c.145-.396.476-.594.993-.594h2.449zm-96.704 2.194V37.48h-17.503v3.946h6.197v17.509h5.108V41.425h6.198zm23.396-4.534v22.043h-4.684V36.89h4.684zm65.628 6.979c-.434-.334-1.007-.5-1.723-.5-.846 0-1.628.25-2.343.75a7.341 7.341 0 0 0-1.741 1.765l-.194.28-.256-1.426a2.911 2.911 0 0 0-.145-.5.779.779 0 0 0-.241-.332 1.034 1.034 0 0 0-.393-.184 2.12 2.12 0 0 0-.416-.055l-.166-.005h-2.779v15.27h4.684v-9.365c.706-1.276 1.673-1.914 2.902-1.914.354 0 .646.022.878.066.231.044.432.067.604.067.201 0 .363-.041.484-.125a.583.583 0 0 0 .213-.32l.029-.115.603-3.357zm-129.98-5.024c-5.389 0-9.752 4.323-9.752 9.655 0 5.332 4.366 9.655 9.752 9.655 5.386 0 9.751-4.323 9.751-9.655 0-5.332-4.365-9.655-9.753-9.655h.002zm91.295 8.11c.278-.066.587-.097.929-.097.374 0 .711.073 1.013.22.302.148.563.39.779.729.216.34.385.783.506 1.333.12.55.181 1.227.181 2.032 0 .845-.076 1.561-.225 2.15-.153.59-.361 1.068-.628 1.436-.268.367-.582.636-.946.802-.374.17-.781.255-1.193.25a3.72 3.72 0 0 1-1.3-.228 2.847 2.847 0 0 1-.996-.646l-.153-.156v-6.48c.188-.221.39-.43.604-.625.198-.179.42-.33.659-.449.235-.118.493-.209.77-.272zm17.738-.141c-1.109 0-1.92.368-2.434 1.104-.514.736-.771 1.86-.771 3.373 0 1.51.257 2.637.771 3.378.513.742 1.325 1.112 2.434 1.112 1.077 0 1.871-.37 2.379-1.112.509-.741.763-1.867.763-3.378 0-1.513-.254-2.637-.763-3.373-.508-.737-1.302-1.104-2.379-1.104zm-102.862.344v-2.874h-12.343v2.874h4.703v6.902h2.938v-6.902h4.702zm43.702-.58c-.896 0-1.596.247-2.101.743-.503.495-.835 1.21-.998 2.142h5.849a3.907 3.907 0 0 0-.143-1.058 2.535 2.535 0 0 0-.468-.922 2.369 2.369 0 0 0-.854-.654c-.353-.168-.782-.252-1.285-.252zm22.96.743c.503-.495 1.203-.742 2.1-.742.504 0 .933.082 1.285.249.353.167.637.385.855.655.216.27.373.578.468.922.096.343.143.695.143 1.058h-5.849c.161-.932.494-1.645.998-2.142z" fill="#fff"/><path d="M274.341 86.54v2.21h-4.35V101h-2.69V88.75h-4.37v-2.21h11.41zm3.774 4.04c.646 0 1.24.103 1.78.31a3.88 3.88 0 0 1 1.41.91c.393.393.7.88.92 1.46.22.573.33 1.23.33 1.97 0 .187-.01.343-.03.47a.695.695 0 0 1-.09.29.374.374 0 0 1-.17.15.834.834 0 0 1-.28.04h-6.34c.073 1.053.356 1.827.85 2.32.493.493 1.146.74 1.96.74.4 0 .743-.047 1.03-.14.293-.093.546-.197.76-.31.22-.113.41-.217.57-.31a.98.98 0 0 1 .48-.14c.1 0 .186.02.26.06.073.04.136.097.19.17l.72.9c-.274.32-.58.59-.92.81-.34.213-.697.387-1.07.52a5.904 5.904 0 0 1-1.13.27c-.38.053-.75.08-1.11.08a5.554 5.554 0 0 1-1.99-.35 4.535 4.535 0 0 1-1.6-1.05c-.454-.467-.81-1.04-1.07-1.72-.26-.687-.39-1.48-.39-2.38 0-.7.113-1.357.34-1.97.226-.62.55-1.157.97-1.61.426-.46.943-.823 1.55-1.09.613-.267 1.303-.4 2.07-.4zm.05 1.77c-.72 0-1.284.203-1.69.61-.407.407-.667.983-.78 1.73h4.64c0-.32-.044-.62-.13-.9a2.087 2.087 0 0 0-.4-.75 1.847 1.847 0 0 0-.68-.5 2.267 2.267 0 0 0-.96-.19zm9.023-6.21V101h-2.47V86.14h2.47zm7.04 4.44c.647 0 1.24.103 1.78.31.547.207 1.017.51 1.41.91.393.393.7.88.92 1.46.22.573.33 1.23.33 1.97 0 .187-.01.343-.03.47a.668.668 0 0 1-.09.29.374.374 0 0 1-.17.15.83.83 0 0 1-.28.04h-6.34c.073 1.053.357 1.827.85 2.32.493.493 1.147.74 1.96.74.4 0 .743-.047 1.03-.14a4.6 4.6 0 0 0 .76-.31c.22-.113.41-.217.57-.31a.986.986 0 0 1 .48-.14c.1 0 .187.02.26.06.073.04.137.097.19.17l.72.9c-.273.32-.58.59-.92.81-.34.213-.697.387-1.07.52a5.886 5.886 0 0 1-1.13.27c-.38.053-.75.08-1.11.08a5.558 5.558 0 0 1-1.99-.35 4.544 4.544 0 0 1-1.6-1.05 4.994 4.994 0 0 1-1.07-1.72c-.26-.687-.39-1.48-.39-2.38 0-.7.113-1.357.34-1.97.227-.62.55-1.157.97-1.61.427-.46.943-.823 1.55-1.09.613-.267 1.303-.4 2.07-.4zm.05 1.77c-.72 0-1.283.203-1.69.61-.407.407-.667.983-.78 1.73h4.64c0-.32-.043-.62-.13-.9a2.087 2.087 0 0 0-.4-.75 1.847 1.847 0 0 0-.68-.5 2.26 2.26 0 0 0-.96-.19zm6.394 12V90.74h1.51a.74.74 0 0 1 .41.11.518.518 0 0 1 .22.34l.2.95a5.192 5.192 0 0 1 1.42-1.15c.54-.293 1.17-.44 1.89-.44.56 0 1.07.117 1.53.35.466.233.866.573 1.2 1.02.34.44.6.987.78 1.64.186.647.28 1.39.28 2.23a7.05 7.05 0 0 1-.31 2.13 5.177 5.177 0 0 1-.89 1.7c-.38.48-.844.857-1.39 1.13-.54.267-1.147.4-1.82.4-.58 0-1.074-.087-1.48-.26-.4-.18-.76-.427-1.08-.74v4.2h-2.47zm4.8-11.85c-.514 0-.954.11-1.32.33-.36.213-.697.517-1.01.91v4.6c.28.347.583.59.91.73.333.133.69.2 1.07.2.373 0 .71-.07 1.01-.21a1.93 1.93 0 0 0 .77-.64c.213-.287.376-.647.49-1.08.113-.44.17-.957.17-1.55 0-.6-.05-1.107-.15-1.52-.094-.42-.23-.76-.41-1.02-.18-.26-.4-.45-.66-.57a2.014 2.014 0 0 0-.87-.18zm10.888-1.92c.767 0 1.46.123 2.08.37.627.247 1.16.597 1.6 1.05.44.453.78 1.007 1.02 1.66s.36 1.383.36 2.19c0 .813-.12 1.547-.36 2.2a4.75 4.75 0 0 1-1.02 1.67c-.44.46-.973.813-1.6 1.06-.62.247-1.313.37-2.08.37-.767 0-1.463-.123-2.09-.37a4.524 4.524 0 0 1-1.61-1.06 4.876 4.876 0 0 1-1.03-1.67c-.24-.653-.36-1.387-.36-2.2 0-.807.12-1.537.36-2.19a4.769 4.769 0 0 1 1.03-1.66 4.588 4.588 0 0 1 1.61-1.05c.627-.247 1.323-.37 2.09-.37zm0 8.67c.853 0 1.483-.287 1.89-.86.413-.573.62-1.413.62-2.52s-.207-1.95-.62-2.53c-.407-.58-1.037-.87-1.89-.87-.867 0-1.507.293-1.92.88-.413.58-.62 1.42-.62 2.52s.207 1.94.62 2.52c.413.573 1.053.86 1.92.86zm6.987 1.75V90.74h1.45c.254 0 .43.047.53.14.1.093.167.253.2.48l.15 1.24c.367-.633.797-1.133 1.29-1.5a2.716 2.716 0 0 1 1.66-.55c.507 0 .927.117 1.26.35l-.32 1.85c-.02.12-.063.207-.13.26a.46.46 0 0 1-.27.07c-.1 0-.236-.023-.41-.07a2.739 2.739 0 0 0-.69-.07c-.513 0-.953.143-1.32.43-.366.28-.676.693-.93 1.24V101h-2.47zm11.534.16c-.886 0-1.57-.25-2.05-.75-.48-.507-.72-1.203-.72-2.09v-5.73h-1.04a.518.518 0 0 1-.35-.13c-.093-.087-.14-.217-.14-.39v-.98l1.65-.27.52-2.8a.507.507 0 0 1 .18-.31.61.61 0 0 1 .37-.11h1.28v3.23h2.7v1.76h-2.7v5.56c0 .32.08.57.24.75.16.18.374.27.64.27.154 0 .28-.017.38-.05.107-.04.197-.08.27-.12.08-.04.15-.077.21-.11.06-.04.12-.06.18-.06.074 0 .134.02.18.06a.693.693 0 0 1 .15.16l.74 1.2c-.36.3-.773.527-1.24.68-.466.153-.95.23-1.45.23zm8.232 3.19V90.74h1.51c.16 0 .297.037.41.11a.514.514 0 0 1 .22.34l.2.95a5.207 5.207 0 0 1 1.42-1.15c.54-.293 1.17-.44 1.89-.44.56 0 1.07.117 1.53.35.467.233.867.573 1.2 1.02.34.44.6.987.78 1.64.187.647.28 1.39.28 2.23 0 .767-.103 1.477-.31 2.13a5.158 5.158 0 0 1-.89 1.7c-.38.48-.843.857-1.39 1.13-.54.267-1.147.4-1.82.4-.58 0-1.073-.087-1.48-.26-.4-.18-.76-.427-1.08-.74v4.2h-2.47zm4.8-11.85c-.513 0-.953.11-1.32.33-.36.213-.697.517-1.01.91v4.6c.28.347.583.59.91.73.333.133.69.2 1.07.2.373 0 .71-.07 1.01-.21.307-.14.563-.353.77-.64.213-.287.377-.647.49-1.08.113-.44.17-.957.17-1.55 0-.6-.05-1.107-.15-1.52-.093-.42-.23-.76-.41-1.02-.18-.26-.4-.45-.66-.57a2.007 2.007 0 0 0-.87-.18zm6.509 8.5V90.74h1.45c.253 0 .43.047.53.14.1.093.166.253.2.48l.15 1.24c.366-.633.796-1.133 1.29-1.5a2.712 2.712 0 0 1 1.66-.55c.506 0 .926.117 1.26.35l-.32 1.85c-.02.12-.064.207-.13.26a.464.464 0 0 1-.27.07c-.1 0-.237-.023-.41-.07a2.75 2.75 0 0 0-.69-.07c-.514 0-.954.143-1.32.43-.367.28-.677.693-.93 1.24V101h-2.47zm12.544-10.42c.766 0 1.46.123 2.08.37.626.247 1.16.597 1.6 1.05.44.453.78 1.007 1.02 1.66s.36 1.383.36 2.19c0 .813-.12 1.547-.36 2.2a4.75 4.75 0 0 1-1.02 1.67c-.44.46-.974.813-1.6 1.06-.62.247-1.314.37-2.08.37-.767 0-1.464-.123-2.09-.37a4.516 4.516 0 0 1-1.61-1.06 4.86 4.86 0 0 1-1.03-1.67c-.24-.653-.36-1.387-.36-2.2 0-.807.12-1.537.36-2.19a4.754 4.754 0 0 1 1.03-1.66 4.579 4.579 0 0 1 1.61-1.05c.626-.247 1.323-.37 2.09-.37zm0 8.67c.853 0 1.483-.287 1.89-.86.413-.573.62-1.413.62-2.52s-.207-1.95-.62-2.53c-.407-.58-1.037-.87-1.89-.87-.867 0-1.507.293-1.92.88-.414.58-.62 1.42-.62 2.52s.206 1.94.62 2.52c.413.573 1.053.86 1.92.86zm14.197-6.34a1.17 1.17 0 0 1-.22.22c-.067.053-.167.08-.3.08a.7.7 0 0 1-.37-.11 6.747 6.747 0 0 0-.43-.26 2.81 2.81 0 0 0-.6-.26c-.227-.08-.51-.12-.85-.12-.434 0-.814.08-1.14.24-.327.153-.6.377-.82.67a3.07 3.07 0 0 0-.48 1.07c-.107.413-.16.883-.16 1.41 0 .547.056 1.033.17 1.46.12.427.29.787.51 1.08.22.287.486.507.8.66.313.147.666.22 1.06.22.393 0 .71-.047.95-.14.246-.1.453-.207.62-.32.166-.12.31-.227.43-.32a.66.66 0 0 1 .42-.15c.2 0 .35.077.45.23l.71.9c-.274.32-.57.59-.89.81-.32.213-.654.387-1 .52a5.12 5.12 0 0 1-1.06.27c-.367.053-.73.08-1.09.08a4.61 4.61 0 0 1-1.79-.35 4.29 4.29 0 0 1-1.47-1.04 5.088 5.088 0 0 1-.99-1.66c-.24-.66-.36-1.41-.36-2.25 0-.753.106-1.45.32-2.09.22-.647.54-1.203.96-1.67a4.35 4.35 0 0 1 1.56-1.11c.62-.267 1.333-.4 2.14-.4.766 0 1.436.123 2.01.37.58.247 1.1.6 1.56 1.06l-.65.9zm6.561-2.33c.647 0 1.24.103 1.78.31.547.207 1.017.51 1.41.91.393.393.7.88.92 1.46.22.573.33 1.23.33 1.97 0 .187-.01.343-.03.47a.668.668 0 0 1-.09.29.374.374 0 0 1-.17.15.83.83 0 0 1-.28.04h-6.34c.073 1.053.357 1.827.85 2.32.493.493 1.147.74 1.96.74.4 0 .743-.047 1.03-.14a4.6 4.6 0 0 0 .76-.31c.22-.113.41-.217.57-.31a.986.986 0 0 1 .48-.14c.1 0 .187.02.26.06.073.04.137.097.19.17l.72.9c-.273.32-.58.59-.92.81-.34.213-.697.387-1.07.52a5.886 5.886 0 0 1-1.13.27c-.38.053-.75.08-1.11.08a5.558 5.558 0 0 1-1.99-.35 4.544 4.544 0 0 1-1.6-1.05 4.994 4.994 0 0 1-1.07-1.72c-.26-.687-.39-1.48-.39-2.38 0-.7.113-1.357.34-1.97.227-.62.55-1.157.97-1.61.427-.46.943-.823 1.55-1.09.613-.267 1.303-.4 2.07-.4zm.05 1.77c-.72 0-1.283.203-1.69.61-.407.407-.667.983-.78 1.73h4.64c0-.32-.043-.62-.13-.9a2.087 2.087 0 0 0-.4-.75 1.847 1.847 0 0 0-.68-.5 2.26 2.26 0 0 0-.96-.19zm12.484.39a.722.722 0 0 1-.21.23.584.584 0 0 1-.28.06.913.913 0 0 1-.39-.1c-.134-.067-.29-.14-.47-.22a3.918 3.918 0 0 0-.62-.23 2.893 2.893 0 0 0-.81-.1c-.487 0-.87.103-1.15.31a.962.962 0 0 0-.42.81.8.8 0 0 0 .21.56c.146.147.336.277.57.39.24.113.51.217.81.31.3.087.606.183.92.29.313.107.62.23.92.37.3.133.566.307.8.52.24.207.43.457.57.75.146.293.22.647.22 1.06 0 .493-.09.95-.27 1.37-.18.413-.444.773-.79 1.08-.347.3-.777.537-1.29.71-.507.167-1.09.25-1.75.25-.354 0-.7-.033-1.04-.1a5.607 5.607 0 0 1-1.83-.66c-.26-.153-.49-.32-.69-.5l.57-.94c.073-.113.16-.2.26-.26s.226-.09.38-.09c.153 0 .296.043.43.13.14.087.3.18.48.28.18.1.39.193.63.28.246.087.556.13.93.13.293 0 .543-.033.75-.1.213-.073.386-.167.52-.28a.978.978 0 0 0 .3-.39c.066-.153.1-.31.1-.47a.821.821 0 0 0-.22-.59 1.802 1.802 0 0 0-.57-.4 4.976 4.976 0 0 0-.81-.3c-.3-.093-.61-.193-.93-.3a9.857 9.857 0 0 1-.93-.37c-.3-.147-.57-.33-.81-.55a2.548 2.548 0 0 1-.57-.81c-.14-.32-.21-.707-.21-1.16 0-.42.083-.82.25-1.2.166-.38.41-.71.73-.99.326-.287.73-.513 1.21-.68.486-.173 1.046-.26 1.68-.26.706 0 1.35.117 1.93.35.58.233 1.063.54 1.45.92l-.56.89zm8.73 0a.722.722 0 0 1-.21.23.58.58 0 0 1-.28.06.913.913 0 0 1-.39-.1c-.133-.067-.29-.14-.47-.22a3.918 3.918 0 0 0-.62-.23 2.893 2.893 0 0 0-.81-.1c-.487 0-.87.103-1.15.31a.962.962 0 0 0-.42.81.8.8 0 0 0 .21.56c.147.147.337.277.57.39.24.113.51.217.81.31.3.087.607.183.92.29.313.107.62.23.92.37.3.133.567.307.8.52.24.207.43.457.57.75.147.293.22.647.22 1.06 0 .493-.09.95-.27 1.37-.18.413-.443.773-.79 1.08-.347.3-.777.537-1.29.71-.507.167-1.09.25-1.75.25-.353 0-.7-.033-1.04-.1a5.652 5.652 0 0 1-1.83-.66c-.26-.153-.49-.32-.69-.5l.57-.94c.073-.113.16-.2.26-.26a.73.73 0 0 1 .38-.09c.153 0 .297.043.43.13.14.087.3.18.48.28.18.1.39.193.63.28.247.087.557.13.93.13.293 0 .543-.033.75-.1.213-.073.387-.167.52-.28a.978.978 0 0 0 .3-.39c.067-.153.1-.31.1-.47a.817.817 0 0 0-.22-.59 1.802 1.802 0 0 0-.57-.4 4.907 4.907 0 0 0-.81-.3c-.3-.093-.61-.193-.93-.3-.313-.107-.623-.23-.93-.37-.3-.147-.57-.33-.81-.55a2.58 2.58 0 0 1-.57-.81c-.14-.32-.21-.707-.21-1.16 0-.42.083-.82.25-1.2.167-.38.41-.71.73-.99.327-.287.73-.513 1.21-.68.487-.173 1.047-.26 1.68-.26.707 0 1.35.117 1.93.35.58.233 1.063.54 1.45.92l-.56.89z" fill="#fff"/><path fill="#fff" fill-opacity=".1" d="M264 121h145v34H264z"/><path d="M276.994 145.345v-9.527h1.057c.112 0 .208.026.287.077.08.051.131.131.154.238l.14.665c.29-.331.621-.6.994-.805.378-.205.819-.308 1.323-.308.392 0 .749.082 1.071.245.327.163.607.401.84.714.238.308.42.691.546 1.148.131.453.196.973.196 1.561 0 .537-.072 1.034-.217 1.491a3.595 3.595 0 0 1-.623 1.19c-.266.336-.59.6-.973.791-.378.187-.802.28-1.274.28-.406 0-.751-.061-1.036-.182a2.604 2.604 0 0 1-.756-.518v2.94h-1.729zm3.36-8.295c-.359 0-.667.077-.924.231a2.64 2.64 0 0 0-.707.637v3.22c.196.243.409.413.637.511.234.093.483.14.749.14.262 0 .497-.049.707-.147.215-.098.395-.247.539-.448.15-.201.264-.453.343-.756.08-.308.119-.67.119-1.085 0-.42-.035-.775-.105-1.064a2.013 2.013 0 0 0-.287-.714 1.141 1.141 0 0 0-.462-.399 1.404 1.404 0 0 0-.609-.126zm4.556 5.95v-7.182h1.015c.178 0 .301.033.371.098s.117.177.14.336l.105.868c.257-.443.558-.793.903-1.05a1.9 1.9 0 0 1 1.162-.385c.355 0 .649.082.882.245l-.224 1.295c-.014.084-.044.145-.091.182a.319.319 0 0 1-.189.049c-.07 0-.165-.016-.287-.049a1.902 1.902 0 0 0-.483-.049c-.359 0-.667.1-.924.301-.256.196-.473.485-.651.868V143h-1.729zm8.781-7.294a3.9 3.9 0 0 1 1.456.259c.439.173.812.418 1.12.735.308.317.546.705.714 1.162.168.457.252.968.252 1.533 0 .569-.084 1.083-.252 1.54a3.328 3.328 0 0 1-.714 1.169 3.097 3.097 0 0 1-1.12.742 3.9 3.9 0 0 1-1.456.259 3.96 3.96 0 0 1-1.463-.259 3.177 3.177 0 0 1-1.127-.742 3.418 3.418 0 0 1-.721-1.169 4.442 4.442 0 0 1-.252-1.54c0-.565.084-1.076.252-1.533a3.34 3.34 0 0 1 .721-1.162 3.23 3.23 0 0 1 1.127-.735 3.96 3.96 0 0 1 1.463-.259zm0 6.069c.598 0 1.039-.201 1.323-.602.29-.401.434-.989.434-1.764s-.144-1.365-.434-1.771c-.284-.406-.725-.609-1.323-.609-.606 0-1.054.205-1.344.616-.289.406-.434.994-.434 1.764s.145 1.358.434 1.764c.29.401.738.602 1.344.602zm6.168-2.478-2.359-3.479h1.666a.55.55 0 0 1 .28.056.429.429 0 0 1 .161.168l1.505 2.401c.024-.079.052-.159.084-.238.038-.079.082-.159.133-.238l1.211-1.89a.672.672 0 0 1 .175-.196.386.386 0 0 1 .224-.063h1.589l-2.366 3.402 2.464 3.78h-1.666a.472.472 0 0 1-.308-.098.99.99 0 0 1-.189-.224l-1.526-2.499c-.042.168-.1.308-.175.42l-1.344 2.079a1.19 1.19 0 0 1-.189.224.41.41 0 0 1-.28.098h-1.547l2.457-3.703zm8.408 5.677a.629.629 0 0 1-.203.273c-.079.065-.203.098-.371.098h-1.288l1.344-2.877-2.905-6.65h1.512c.14 0 .247.033.322.098.075.065.131.14.168.224l1.533 3.724c.051.121.096.247.133.378.037.131.07.261.098.392.037-.135.077-.266.119-.392.047-.126.096-.254.147-.385l1.442-3.717a.508.508 0 0 1 .476-.322h1.386l-3.913 9.156zm3.547-2.926c0-.145.025-.282.077-.413.056-.131.13-.243.224-.336a1.15 1.15 0 0 1 .343-.224c.13-.056.27-.084.42-.084a1.08 1.08 0 0 1 .749.308 1.057 1.057 0 0 1 .308.749c0 .149-.028.289-.084.42a1.083 1.083 0 0 1-.224.329.983.983 0 0 1-.336.217 1.041 1.041 0 0 1-.413.084c-.15 0-.29-.028-.42-.084a1.043 1.043 0 0 1-.343-.217 1.066 1.066 0 0 1-.224-.329 1.127 1.127 0 0 1-.077-.42zm6.525-6.342c.453 0 .868.072 1.246.217.383.145.712.357.987.637.276.275.49.616.644 1.022a3.83 3.83 0 0 1 .21 1.708.463.463 0 0 1-.063.203.254.254 0 0 1-.119.105.57.57 0 0 1-.196.028h-4.438c.052.737.25 1.279.595 1.624.346.345.803.518 1.372.518.28 0 .521-.033.721-.098.206-.065.383-.138.532-.217.154-.079.287-.152.399-.217a.694.694 0 0 1 .336-.098c.07 0 .131.014.182.042a.396.396 0 0 1 .133.119l.504.63a2.951 2.951 0 0 1-.644.567 3.81 3.81 0 0 1-1.54.553 5.64 5.64 0 0 1-.777.056c-.499 0-.963-.082-1.393-.245a3.19 3.19 0 0 1-1.12-.735 3.5 3.5 0 0 1-.749-1.204c-.182-.481-.273-1.036-.273-1.666 0-.49.08-.95.238-1.379a3.31 3.31 0 0 1 .679-1.127 3.25 3.25 0 0 1 1.085-.763c.43-.187.913-.28 1.449-.28zm.035 1.239c-.504 0-.898.142-1.183.427-.284.285-.466.688-.546 1.211h3.248c0-.224-.03-.434-.091-.63a1.442 1.442 0 0 0-.28-.525 1.289 1.289 0 0 0-.476-.35 1.577 1.577 0 0 0-.672-.133zm5.753 2.352-2.359-3.479h1.666c.126 0 .219.019.28.056a.436.436 0 0 1 .161.168l1.505 2.401c.023-.079.051-.159.084-.238.037-.079.082-.159.133-.238l1.211-1.89a.658.658 0 0 1 .175-.196.384.384 0 0 1 .224-.063h1.589l-2.366 3.402 2.464 3.78h-1.666a.47.47 0 0 1-.308-.098.942.942 0 0 1-.189-.224l-1.526-2.499c-.042.168-.1.308-.175.42l-1.344 2.079a1.19 1.19 0 0 1-.189.224.412.412 0 0 1-.28.098h-1.547l2.457-3.703zM335.615 143h-.777a.865.865 0 0 1-.385-.07c-.094-.051-.164-.152-.21-.301l-.154-.511a6.215 6.215 0 0 1-.539.434 3.337 3.337 0 0 1-.539.308 2.773 2.773 0 0 1-.595.189c-.21.042-.444.063-.7.063-.304 0-.584-.04-.84-.119a1.885 1.885 0 0 1-.665-.371 1.675 1.675 0 0 1-.427-.609 2.155 2.155 0 0 1-.154-.847c0-.271.07-.537.21-.798.144-.266.382-.504.714-.714.331-.215.772-.392 1.323-.532.55-.14 1.234-.219 2.051-.238v-.42c0-.481-.103-.835-.308-1.064-.201-.233-.495-.35-.882-.35-.28 0-.514.033-.7.098-.187.065-.35.14-.49.224-.136.079-.262.152-.378.217a.779.779 0 0 1-.385.098.497.497 0 0 1-.301-.091.712.712 0 0 1-.203-.224l-.315-.553c.826-.756 1.822-1.134 2.989-1.134.42 0 .793.07 1.12.21.331.135.611.327.84.574.228.243.401.534.518.875.121.341.182.714.182 1.12V143zm-3.36-1.078c.177 0 .34-.016.49-.049.149-.033.289-.082.42-.147.135-.065.263-.145.385-.238.126-.098.252-.212.378-.343v-1.211a9.15 9.15 0 0 0-1.268.133c-.335.061-.606.14-.811.238-.206.098-.353.212-.441.343a.775.775 0 0 0-.126.427c0 .303.088.52.266.651.182.131.417.196.707.196zm5.06 1.078v-7.182h1.057c.224 0 .371.105.441.315l.112.532c.126-.14.256-.268.392-.385a2.343 2.343 0 0 1 1.54-.574c.452 0 .823.124 1.113.371.294.243.513.567.658.973a2.14 2.14 0 0 1 .42-.609 2.23 2.23 0 0 1 .553-.42c.2-.107.413-.187.637-.238.228-.051.457-.077.686-.077.396 0 .749.061 1.057.182.308.121.567.299.777.532.21.233.368.518.476.854.112.336.168.721.168 1.155V143h-1.729v-4.571c0-.457-.101-.8-.301-1.029-.201-.233-.495-.35-.882-.35-.178 0-.343.03-.497.091-.15.061-.283.149-.399.266a1.181 1.181 0 0 0-.266.427 1.66 1.66 0 0 0-.098.595V143h-1.736v-4.571c0-.481-.098-.831-.294-1.05-.192-.219-.476-.329-.854-.329a1.38 1.38 0 0 0-.7.189 2.28 2.28 0 0 0-.602.504V143h-1.729zm11.785 2.345v-9.527h1.057c.112 0 .207.026.287.077.079.051.13.131.154.238l.14.665c.289-.331.62-.6.994-.805.378-.205.819-.308 1.323-.308.392 0 .749.082 1.071.245.326.163.606.401.84.714.238.308.42.691.546 1.148.13.453.196.973.196 1.561 0 .537-.073 1.034-.217 1.491a3.633 3.633 0 0 1-.623 1.19c-.266.336-.591.6-.973.791-.378.187-.803.28-1.274.28-.406 0-.752-.061-1.036-.182a2.604 2.604 0 0 1-.756-.518v2.94H349.1zm3.36-8.295c-.36 0-.668.077-.924.231a2.625 2.625 0 0 0-.707.637v3.22c.196.243.408.413.637.511.233.093.483.14.749.14.261 0 .497-.049.707-.147a1.35 1.35 0 0 0 .539-.448 2.2 2.2 0 0 0 .343-.756 4.4 4.4 0 0 0 .119-1.085c0-.42-.035-.775-.105-1.064a2.031 2.031 0 0 0-.287-.714 1.141 1.141 0 0 0-.462-.399 1.41 1.41 0 0 0-.609-.126zm6.397-4.452V143h-1.729v-10.402h1.729zm4.928 3.108c.452 0 .868.072 1.246.217.382.145.711.357.987.637.275.275.49.616.644 1.022a3.83 3.83 0 0 1 .21 1.708.491.491 0 0 1-.063.203.259.259 0 0 1-.119.105.577.577 0 0 1-.196.028h-4.438c.051.737.249 1.279.595 1.624.345.345.802.518 1.372.518.28 0 .52-.033.721-.098.205-.065.382-.138.532-.217.154-.079.287-.152.399-.217a.688.688 0 0 1 .336-.098c.07 0 .13.014.182.042a.416.416 0 0 1 .133.119l.504.63a2.974 2.974 0 0 1-.644.567 3.837 3.837 0 0 1-.749.364 4.123 4.123 0 0 1-.791.189 5.64 5.64 0 0 1-.777.056c-.5 0-.964-.082-1.393-.245a3.172 3.172 0 0 1-1.12-.735 3.485 3.485 0 0 1-.749-1.204c-.182-.481-.273-1.036-.273-1.666 0-.49.079-.95.238-1.379.158-.434.385-.81.679-1.127a3.23 3.23 0 0 1 1.085-.763c.429-.187.912-.28 1.449-.28zm.035 1.239c-.504 0-.899.142-1.183.427-.285.285-.467.688-.546 1.211h3.248c0-.224-.031-.434-.091-.63a1.457 1.457 0 0 0-.28-.525 1.297 1.297 0 0 0-.476-.35 1.583 1.583 0 0 0-.672-.133zm4.062 5.103c0-.145.026-.282.077-.413.056-.131.131-.243.224-.336a1.15 1.15 0 0 1 .343-.224c.131-.056.271-.084.42-.084a1.057 1.057 0 0 1 .749.308 1.057 1.057 0 0 1 .308.749c0 .149-.028.289-.084.42a1.083 1.083 0 0 1-.224.329.964.964 0 0 1-.336.217 1.038 1.038 0 0 1-.413.084c-.149 0-.289-.028-.42-.084a1.043 1.043 0 0 1-.343-.217 1.083 1.083 0 0 1-.224-.329 1.148 1.148 0 0 1-.077-.42zm8.605-4.711a.828.828 0 0 1-.154.154c-.047.037-.117.056-.21.056a.493.493 0 0 1-.259-.077 4.637 4.637 0 0 0-.301-.182 1.955 1.955 0 0 0-.42-.182 1.809 1.809 0 0 0-.595-.084c-.304 0-.57.056-.798.168-.229.107-.42.264-.574.469a2.14 2.14 0 0 0-.336.749 3.941 3.941 0 0 0-.112.987c0 .383.039.723.119 1.022.084.299.203.551.357.756.154.201.34.355.56.462.219.103.466.154.742.154.275 0 .497-.033.665-.098.172-.07.317-.145.434-.224.116-.084.217-.159.301-.224a.46.46 0 0 1 .294-.105c.14 0 .245.054.315.161l.497.63a3.239 3.239 0 0 1-.623.567 3.589 3.589 0 0 1-.7.364 3.574 3.574 0 0 1-.742.189 5.347 5.347 0 0 1-.763.056c-.444 0-.861-.082-1.253-.245a3.005 3.005 0 0 1-1.029-.728 3.554 3.554 0 0 1-.693-1.162c-.168-.462-.252-.987-.252-1.575 0-.527.074-1.015.224-1.463.154-.453.378-.842.672-1.169.294-.331.658-.59 1.092-.777.434-.187.933-.28 1.498-.28.536 0 1.005.086 1.407.259.406.173.77.42 1.092.742l-.455.63zm4.691-1.631c.536 0 1.022.086 1.456.259.438.173.812.418 1.12.735.308.317.546.705.714 1.162.168.457.252.968.252 1.533 0 .569-.084 1.083-.252 1.54a3.328 3.328 0 0 1-.714 1.169 3.106 3.106 0 0 1-1.12.742c-.434.173-.92.259-1.456.259a3.953 3.953 0 0 1-1.463-.259 3.16 3.16 0 0 1-1.127-.742 3.403 3.403 0 0 1-.721-1.169 4.442 4.442 0 0 1-.252-1.54c0-.565.084-1.076.252-1.533.172-.457.413-.845.721-1.162a3.211 3.211 0 0 1 1.127-.735 3.953 3.953 0 0 1 1.463-.259zm0 6.069c.597 0 1.038-.201 1.323-.602.289-.401.434-.989.434-1.764s-.145-1.365-.434-1.771c-.285-.406-.726-.609-1.323-.609-.607 0-1.055.205-1.344.616-.29.406-.434.994-.434 1.764s.144 1.358.434 1.764c.289.401.737.602 1.344.602zm4.891 1.225v-7.182h1.057c.224 0 .371.105.441.315l.112.532c.126-.14.256-.268.392-.385a2.343 2.343 0 0 1 1.54-.574c.452 0 .823.124 1.113.371.294.243.513.567.658.973a2.14 2.14 0 0 1 .42-.609 2.23 2.23 0 0 1 .553-.42c.2-.107.413-.187.637-.238.228-.051.457-.077.686-.077.396 0 .749.061 1.057.182.308.121.567.299.777.532.21.233.368.518.476.854.112.336.168.721.168 1.155V143h-1.729v-4.571c0-.457-.101-.8-.301-1.029-.201-.233-.495-.35-.882-.35-.178 0-.343.03-.497.091-.15.061-.283.149-.399.266a1.181 1.181 0 0 0-.266.427 1.66 1.66 0 0 0-.098.595V143h-1.736v-4.571c0-.481-.098-.831-.294-1.05-.192-.219-.476-.329-.854-.329a1.38 1.38 0 0 0-.7.189 2.28 2.28 0 0 0-.602.504V143h-1.729z" fill="#fff"/><g filter="url(#h)"><rect x="257.5" y="179" width="64" height="64" rx="6" fill="#fff"/><path fill-rule="evenodd" clip-rule="evenodd" d="M301.646 199.333h-24.292a2.533 2.533 0 0 0-2.521 2.541v18.85c0 1.394 1.096 2.527 2.48 2.54h.041l11.125.069h13.167a2.515 2.515 0 0 0 2.521-2.499v-18.96c0-1.394-1.124-2.541-2.521-2.541zm-22.57 4.402a.5.5 0 0 1 .689-.159l4 2.5a.5.5 0 0 1 0 .848l-4 2.5a.5.5 0 0 1-.53-.848l3.322-2.076-3.322-2.076a.5.5 0 0 1-.159-.689zm5.424 5.765a.5.5 0 0 0 0 1h6a.5.5 0 0 0 0-1h-6z" fill="#512FC9"/></g><path d="M253.627 257.455V260h-1.345v-7.23h2.355c.483 0 .902.057 1.255.17.353.113.645.272.875.475.23.203.4.447.51.73.11.283.165.593.165.93 0 .35-.058.672-.175.965a2.01 2.01 0 0 1-.525.75c-.233.21-.525.373-.875.49-.35.117-.76.175-1.23.175h-1.01zm0-1.05h1.01c.247 0 .462-.03.645-.09.183-.063.335-.152.455-.265.12-.117.21-.257.27-.42.06-.167.09-.352.09-.555 0-.193-.03-.368-.09-.525-.06-.157-.15-.29-.27-.4a1.182 1.182 0 0 0-.455-.25 2.075 2.075 0 0 0-.645-.09h-1.01v2.595zm6.25.77V260h-1.345v-7.23h2.205c.493 0 .915.052 1.265.155.353.1.642.242.865.425.227.183.392.403.495.66.107.253.16.533.16.84 0 .243-.037.473-.11.69a2.01 2.01 0 0 1-.81 1.055 2.6 2.6 0 0 1-.675.32c.17.097.317.235.44.415l1.81 2.67h-1.21a.6.6 0 0 1-.3-.07.62.62 0 0 1-.205-.2l-1.52-2.315a.528.528 0 0 0-.19-.185.638.638 0 0 0-.3-.055h-.575zm0-.965h.84c.253 0 .473-.032.66-.095.19-.063.345-.15.465-.26.123-.113.215-.247.275-.4.06-.153.09-.322.09-.505 0-.367-.122-.648-.365-.845-.24-.197-.608-.295-1.105-.295h-.86v2.4zm11.853.175c0 .53-.088 1.022-.265 1.475-.176.45-.425.84-.745 1.17-.32.33-.705.588-1.155.775-.45.183-.948.275-1.495.275a3.977 3.977 0 0 1-1.5-.275 3.47 3.47 0 0 1-1.16-.775 3.5 3.5 0 0 1-.745-1.17 4.04 4.04 0 0 1-.265-1.475c0-.53.089-1.02.265-1.47.177-.453.425-.845.745-1.175.324-.33.71-.587 1.16-.77.454-.187.954-.28 1.5-.28.547 0 1.045.093 1.495.28.45.187.835.445 1.155.775.32.327.569.717.745 1.17.177.45.265.94.265 1.47zm-1.38 0c0-.397-.053-.752-.16-1.065a2.213 2.213 0 0 0-.45-.805 1.937 1.937 0 0 0-.72-.505 2.441 2.441 0 0 0-.95-.175c-.353 0-.671.058-.955.175a1.997 1.997 0 0 0-.725.505c-.196.22-.348.488-.455.805a3.31 3.31 0 0 0-.16 1.065c0 .397.054.753.16 1.07.107.313.259.58.455.8.2.217.442.383.725.5.284.117.602.175.955.175.354 0 .67-.058.95-.175a1.96 1.96 0 0 0 .72-.5c.197-.22.347-.487.45-.8.107-.317.16-.673.16-1.07zm4.032-.105-2.305-3.51h1.34c.093 0 .16.013.2.04a.303.303 0 0 1 .115.12l1.645 2.655a1.573 1.573 0 0 1 .125-.255l1.505-2.375c.073-.123.168-.185.285-.185h1.29l-2.33 3.455 2.395 3.775h-1.345a.334.334 0 0 1-.22-.07.713.713 0 0 1-.135-.16l-1.675-2.77c-.013.04-.028.078-.045.115-.017.033-.033.065-.05.095l-1.605 2.56a.875.875 0 0 1-.135.16.29.29 0 0 1-.2.07h-1.26l2.405-3.72zm8.267.91V260h-1.345v-2.81l-2.635-4.42h1.185a.41.41 0 0 1 .275.085c.07.057.128.128.175.215l1.325 2.415a7.115 7.115 0 0 1 .355.785c.043-.127.092-.253.145-.38.057-.13.123-.265.2-.405l1.315-2.415a.678.678 0 0 1 .165-.205.415.415 0 0 1 .28-.095h1.19l-2.63 4.42zm9.137-3.105a.367.367 0 0 1-.13.155.31.31 0 0 1-.17.045.446.446 0 0 1-.225-.075 6.304 6.304 0 0 0-.295-.175 2.312 2.312 0 0 0-.4-.17 1.611 1.611 0 0 0-.535-.08c-.187 0-.35.023-.49.07a1.016 1.016 0 0 0-.35.185.745.745 0 0 0-.21.29.92.92 0 0 0-.07.365c0 .17.046.312.14.425.096.113.223.21.38.29.156.08.335.152.535.215s.403.132.61.205c.21.07.415.153.615.25.2.093.378.213.535.36.156.143.281.32.375.53.096.21.145.465.145.765 0 .327-.057.633-.17.92a2.11 2.11 0 0 1-.49.745c-.214.21-.475.377-.785.5-.31.12-.665.18-1.065.18a3.29 3.29 0 0 1-.68-.07 3.407 3.407 0 0 1-1.22-.49 2.897 2.897 0 0 1-.475-.39l.39-.645a.46.46 0 0 1 .13-.115.324.324 0 0 1 .175-.05c.083 0 .173.035.27.105.096.067.21.142.34.225.133.083.288.16.465.23.18.067.395.1.645.1.383 0 .68-.09.89-.27.21-.183.315-.445.315-.785a.722.722 0 0 0-.145-.465 1.11 1.11 0 0 0-.375-.3 2.762 2.762 0 0 0-.535-.21c-.2-.057-.404-.118-.61-.185a5.358 5.358 0 0 1-.61-.24 1.958 1.958 0 0 1-.535-.365 1.685 1.685 0 0 1-.38-.56c-.094-.227-.14-.505-.14-.835a1.987 1.987 0 0 1 .615-1.435 2.3 2.3 0 0 1 .745-.465 2.694 2.694 0 0 1 1.005-.175c.426 0 .82.067 1.18.2s.666.32.92.56l-.33.635zm6.046-1.315v1.07h-3.205v2.005h2.525v1.035h-2.525v2.045h3.205V260h-4.56v-7.23h4.56zm2.553 4.405V260h-1.345v-7.23h2.205c.493 0 .915.052 1.265.155.353.1.641.242.865.425.226.183.391.403.495.66.106.253.16.533.16.84 0 .243-.037.473-.11.69a2.028 2.028 0 0 1-.81 1.055 2.6 2.6 0 0 1-.675.32c.17.097.316.235.44.415l1.81 2.67h-1.21a.6.6 0 0 1-.3-.07.61.61 0 0 1-.205-.2l-1.52-2.315a.528.528 0 0 0-.19-.185.638.638 0 0 0-.3-.055h-.575zm0-.965h.84c.253 0 .473-.032.66-.095.19-.063.345-.15.465-.26.123-.113.215-.247.275-.4.06-.153.09-.322.09-.505 0-.367-.122-.648-.365-.845-.24-.197-.609-.295-1.105-.295h-.86v2.4zm4.452-3.44h1.085a.45.45 0 0 1 .285.085c.074.057.129.13.165.22l1.7 4.41c.057.143.11.302.16.475.054.17.104.35.15.54.077-.383.172-.722.285-1.015l1.695-4.41a.523.523 0 0 1 .16-.21.436.436 0 0 1 .285-.095h1.085l-2.92 7.23h-1.215l-2.92-7.23zm9.325 7.23h-1.35v-7.23h1.35V260zm6.6-1.705c.073 0 .136.028.19.085l.53.575a2.911 2.911 0 0 1-1.085.835c-.427.193-.94.29-1.54.29-.537 0-1.02-.092-1.45-.275a3.18 3.18 0 0 1-1.095-.765 3.37 3.37 0 0 1-.7-1.17 4.43 4.43 0 0 1-.24-1.485c0-.543.09-1.04.27-1.49.18-.453.433-.843.76-1.17.326-.327.716-.58 1.17-.76.456-.183.96-.275 1.51-.275.536 0 1.005.087 1.405.26.403.17.748.397 1.035.68l-.45.625a.403.403 0 0 1-.105.105.28.28 0 0 1-.17.045.392.392 0 0 1-.235-.09 2.488 2.488 0 0 0-.775-.39 2.382 2.382 0 0 0-.715-.09c-.34 0-.654.06-.94.18a2.078 2.078 0 0 0-.735.505c-.204.22-.364.488-.48.805-.114.313-.17.667-.17 1.06 0 .407.056.768.17 1.085.116.317.273.583.47.8.196.217.428.383.695.5.266.113.553.17.86.17.183 0 .348-.01.495-.03.15-.02.286-.052.41-.095.126-.043.245-.098.355-.165.113-.07.225-.155.335-.255a.41.41 0 0 1 .105-.07.243.243 0 0 1 .12-.03zm6.299-5.525v1.07h-3.205v2.005h2.525v1.035h-2.525v2.045h3.205V260h-4.56v-7.23h4.56z" fill="#fff" fill-opacity=".7"/><g filter="url(#i)"><rect x="354.5" y="179" width="64" height="64" rx="6" fill="#fff"/><path fill-rule="evenodd" clip-rule="evenodd" d="M374.5 200a2 2 0 0 1 2-2h20a2 2 0 0 1 2 2v23a2 2 0 0 1-2 2h-20a2 2 0 0 1-2-2v-23zm15 19.648V209h-1v13.352l.88-1.027 1.62-1.89 1.62 1.89.88 1.027V209h-1v10.648l-1.12-1.307-.38-.443-.38.443-1.12 1.307zM391 201l1.395 1.132 1.787.186.186 1.787 1.132 1.395-1.132 1.395-.186 1.787-1.787.186L391 210l-1.395-1.132-1.787-.186-.186-1.787-1.132-1.395 1.132-1.395.186-1.787 1.787-.186L391 201zm1.292 2.127.979.102.102.979.031.296.187.231.621.765-.621.765-.187.231-.031.296-.102.979-.979.102-.296.031-.231.187-.765.621-.765-.621-.231-.187-.296-.031-.979-.102-.102-.979-.031-.296-.187-.231-.621-.765.621-.765.187-.231.031-.296.102-.979.979-.102.296-.031.231-.187.765-.621.765.621.231.187.296.031z" fill="#512FC9"/></g><path d="M358.653 260h-1.04a.475.475 0 0 1-.29-.085.529.529 0 0 1-.16-.22l-.54-1.475h-2.995l-.54 1.475a.46.46 0 0 1-.16.21.432.432 0 0 1-.285.095h-1.045l2.84-7.23h1.375l2.84 7.23zm-4.68-2.73h2.305l-.88-2.405a18.92 18.92 0 0 1-.135-.375 14.73 14.73 0 0 1-.14-.475c-.046.17-.093.328-.14.475a4.29 4.29 0 0 1-.13.385l-.88 2.395zm8.071 1.645c.26 0 .492-.043.695-.13.207-.087.38-.208.52-.365.144-.157.252-.347.325-.57.077-.223.115-.473.115-.75v-4.33h1.345v4.33c0 .43-.07.828-.21 1.195a2.692 2.692 0 0 1-.595.945c-.26.263-.575.47-.945.62-.37.147-.786.22-1.25.22-.463 0-.88-.073-1.25-.22a2.778 2.778 0 0 1-.945-.62 2.812 2.812 0 0 1-.595-.945 3.412 3.412 0 0 1-.205-1.195v-4.33h1.345v4.325c0 .277.037.527.11.75.077.223.185.415.325.575.14.157.312.278.515.365.207.087.44.13.7.13zm9.461-6.145v1.105h-2.175V260h-1.345v-6.125H365.8v-1.105h5.705zm6.952 7.23h-1.355v-3.16h-3.39V260h-1.355v-7.23h1.355v3.11h3.39v-3.11h1.355V260zm7.267-5.915a.367.367 0 0 1-.13.155.308.308 0 0 1-.17.045.446.446 0 0 1-.225-.075 5.823 5.823 0 0 0-.295-.175 2.279 2.279 0 0 0-.4-.17 1.607 1.607 0 0 0-.535-.08c-.187 0-.35.023-.49.07a1.025 1.025 0 0 0-.35.185.765.765 0 0 0-.21.29.92.92 0 0 0-.07.365c0 .17.047.312.14.425.097.113.223.21.38.29.157.08.335.152.535.215s.403.132.61.205c.21.07.415.153.615.25.2.093.378.213.535.36.157.143.282.32.375.53.097.21.145.465.145.765 0 .327-.057.633-.17.92-.11.283-.273.532-.49.745-.213.21-.475.377-.785.5-.31.12-.665.18-1.065.18a3.29 3.29 0 0 1-.68-.07 3.445 3.445 0 0 1-1.22-.49 2.897 2.897 0 0 1-.475-.39l.39-.645a.474.474 0 0 1 .13-.115.327.327 0 0 1 .175-.05c.083 0 .173.035.27.105.097.067.21.142.34.225.133.083.288.16.465.23.18.067.395.1.645.1.383 0 .68-.09.89-.27.21-.183.315-.445.315-.785a.716.716 0 0 0-.145-.465 1.091 1.091 0 0 0-.375-.3 2.762 2.762 0 0 0-.535-.21c-.2-.057-.403-.118-.61-.185a5.358 5.358 0 0 1-.61-.24 1.974 1.974 0 0 1-.535-.365 1.7 1.7 0 0 1-.38-.56 2.205 2.205 0 0 1-.14-.835c0-.263.052-.52.155-.77.107-.25.26-.472.46-.665.203-.193.452-.348.745-.465a2.694 2.694 0 0 1 1.005-.175c.427 0 .82.067 1.18.2s.667.32.92.56l-.33.635zm6.046-1.315v1.07h-3.205v2.005h2.525v1.035h-2.525v2.045h3.205V260h-4.56v-7.23h4.56zm2.553 4.405V260h-1.345v-7.23h2.205c.493 0 .915.052 1.265.155.353.1.642.242.865.425.227.183.392.403.495.66.107.253.16.533.16.84 0 .243-.037.473-.11.69a2.01 2.01 0 0 1-.81 1.055 2.6 2.6 0 0 1-.675.32c.17.097.317.235.44.415l1.81 2.67h-1.21a.6.6 0 0 1-.3-.07.62.62 0 0 1-.205-.2l-1.52-2.315a.528.528 0 0 0-.19-.185.638.638 0 0 0-.3-.055h-.575zm0-.965h.84c.253 0 .473-.032.66-.095.19-.063.345-.15.465-.26.123-.113.215-.247.275-.4.06-.153.09-.322.09-.505 0-.367-.122-.648-.365-.845-.24-.197-.608-.295-1.105-.295h-.86v2.4zm4.453-3.44h1.085a.45.45 0 0 1 .285.085c.073.057.128.13.165.22l1.7 4.41c.057.143.11.302.16.475.053.17.103.35.15.54.077-.383.172-.722.285-1.015l1.695-4.41a.514.514 0 0 1 .16-.21.436.436 0 0 1 .285-.095h1.085l-2.92 7.23h-1.215l-2.92-7.23zM408.1 260h-1.35v-7.23h1.35V260zm6.6-1.705c.073 0 .137.028.19.085l.53.575a2.903 2.903 0 0 1-1.085.835c-.427.193-.94.29-1.54.29-.537 0-1.02-.092-1.45-.275a3.18 3.18 0 0 1-1.095-.765 3.386 3.386 0 0 1-.7-1.17 4.43 4.43 0 0 1-.24-1.485c0-.543.09-1.04.27-1.49.18-.453.433-.843.76-1.17.327-.327.717-.58 1.17-.76.457-.183.96-.275 1.51-.275.537 0 1.005.087 1.405.26.403.17.748.397 1.035.68l-.45.625a.403.403 0 0 1-.105.105.28.28 0 0 1-.17.045.392.392 0 0 1-.235-.09 2.46 2.46 0 0 0-.775-.39 2.382 2.382 0 0 0-.715-.09c-.34 0-.653.06-.94.18a2.096 2.096 0 0 0-.735.505c-.203.22-.363.488-.48.805a3.11 3.11 0 0 0-.17 1.06c0 .407.057.768.17 1.085.117.317.273.583.47.8a2.025 2.025 0 0 0 1.555.67c.183 0 .348-.01.495-.03.15-.02.287-.052.41-.095.127-.043.245-.098.355-.165.113-.07.225-.155.335-.255a.41.41 0 0 1 .105-.07.248.248 0 0 1 .12-.03zm6.299-5.525v1.07h-3.205v2.005h2.525v1.035h-2.525v2.045h3.205V260h-4.56v-7.23h4.56z" fill="#fff" fill-opacity=".7"/></g><path d="M637.544 17.946V21h-1.614v-8.676h2.826c.58 0 1.082.068 1.506.204.424.136.774.326 1.05.57.276.244.48.536.612.876.132.34.198.712.198 1.116 0 .42-.07.806-.21 1.158-.14.348-.35.648-.63.9s-.63.448-1.05.588c-.42.14-.912.21-1.476.21h-1.212zm0-1.26h1.212c.296 0 .554-.036.774-.108.22-.076.402-.182.546-.318.144-.14.252-.308.324-.504.072-.2.108-.422.108-.666a1.75 1.75 0 0 0-.108-.63 1.245 1.245 0 0 0-.324-.48 1.41 1.41 0 0 0-.546-.3 2.494 2.494 0 0 0-.774-.108h-1.212v3.114zm7.5.924V21h-1.614v-8.676h2.646c.592 0 1.098.062 1.518.186.424.12.77.29 1.038.51.272.22.47.484.594.792.128.304.192.64.192 1.008 0 .292-.044.568-.132.828-.084.26-.208.496-.372.708-.16.212-.36.398-.6.558-.236.16-.506.288-.81.384a1.6 1.6 0 0 1 .528.498L650.204 21h-1.452a.726.726 0 0 1-.36-.084.74.74 0 0 1-.246-.24l-1.824-2.778a.63.63 0 0 0-.228-.222c-.08-.044-.2-.066-.36-.066h-.69zm0-1.158h1.008c.304 0 .568-.038.792-.114.228-.076.414-.18.558-.312.148-.136.258-.296.33-.48a1.65 1.65 0 0 0 .108-.606c0-.44-.146-.778-.438-1.014-.288-.236-.73-.354-1.326-.354h-1.032v2.88zM653.057 21h-1.62v-8.676h1.62V21zm1.104-8.676h1.302c.14 0 .254.034.342.102a.624.624 0 0 1 .198.264l2.04 5.292c.068.172.132.362.192.57.064.204.124.42.18.648.092-.46.206-.866.342-1.218l2.034-5.292a.625.625 0 0 1 .192-.252.52.52 0 0 1 .342-.114h1.302L659.123 21h-1.458l-3.504-8.676zM670.139 21h-1.248a.57.57 0 0 1-.348-.102.627.627 0 0 1-.192-.264l-.648-1.77h-3.594l-.648 1.77a.561.561 0 0 1-.192.252.52.52 0 0 1-.342.114h-1.254l3.408-8.676h1.65L670.139 21zm-5.616-3.276h2.766l-1.056-2.886a20.997 20.997 0 0 1-.162-.45 14.854 14.854 0 0 1-.168-.57c-.056.204-.112.394-.168.57a5.61 5.61 0 0 1-.156.462l-1.056 2.874zm11.744-5.4v1.326h-2.61V21h-1.614v-7.35h-2.622v-1.326h6.846zm6.495 0v1.284h-3.846v2.406h3.03v1.242h-3.03v2.454h3.846V21h-5.472v-8.676h5.472zm4.562 0c.072 0 .132.004.18.012a.31.31 0 0 1 .126.036c.04.016.078.042.114.078.036.032.076.076.12.132l4.554 5.802a7.696 7.696 0 0 1-.036-.408 12.919 12.919 0 0 1-.006-.378v-5.274h1.422V21h-.834a.74.74 0 0 1-.318-.06.708.708 0 0 1-.246-.216l-4.536-5.778c.012.128.02.256.024.384.008.124.012.238.012.342V21h-1.422v-8.676h.846zm13.696 0v1.284h-3.846v2.406h3.03v1.242h-3.03v2.454h3.846V21h-5.472v-8.676h5.472zm7.509 0v1.326h-2.61V21h-1.614v-7.35h-2.622v-1.326h6.846zm.219 0h1.356a.57.57 0 0 1 .348.102c.096.064.16.152.192.264l1.476 5.19c.036.128.068.268.096.42.032.148.062.306.09.474a5.968 5.968 0 0 1 .228-.894l1.704-5.19a.575.575 0 0 1 .186-.252.543.543 0 0 1 .348-.114h.474a.57.57 0 0 1 .348.102.497.497 0 0 1 .192.264l1.692 5.19c.088.256.164.54.228.852.028-.156.056-.306.084-.45.032-.144.064-.278.096-.402l1.476-5.19c.028-.1.09-.186.186-.258a.563.563 0 0 1 .348-.108h1.266L718.468 21h-1.458l-1.896-5.928-.078-.246a9.504 9.504 0 0 1-.072-.282c-.024.1-.05.194-.078.282a6.49 6.49 0 0 1-.072.246L712.9 21h-1.458l-2.694-8.676zm21.688 4.338c0 .636-.106 1.226-.318 1.77a4.193 4.193 0 0 1-.894 1.404 4.084 4.084 0 0 1-1.386.93c-.54.22-1.138.33-1.794.33-.656 0-1.256-.11-1.8-.33a4.149 4.149 0 0 1-1.392-.93 4.193 4.193 0 0 1-.894-1.404 4.833 4.833 0 0 1-.318-1.77c0-.636.106-1.224.318-1.764a4.18 4.18 0 0 1 .894-1.41 4.076 4.076 0 0 1 1.392-.924 4.684 4.684 0 0 1 1.8-.336c.656 0 1.254.112 1.794.336.54.224 1.002.534 1.386.93.384.392.682.86.894 1.404.212.54.318 1.128.318 1.764zm-1.656 0c0-.476-.064-.902-.192-1.278a2.671 2.671 0 0 0-.54-.966 2.332 2.332 0 0 0-.864-.606 2.94 2.94 0 0 0-1.14-.21c-.424 0-.806.07-1.146.21-.34.14-.63.342-.87.606a2.742 2.742 0 0 0-.546.966 3.954 3.954 0 0 0-.192 1.278c0 .476.064.904.192 1.284.128.376.31.696.546.96.24.26.53.46.87.6.34.14.722.21 1.146.21.424 0 .804-.07 1.14-.21.34-.14.628-.34.864-.6.236-.264.416-.584.54-.96a4.01 4.01 0 0 0 .192-1.284zm4.6.948V21h-1.614v-8.676h2.646c.592 0 1.098.062 1.518.186.424.12.77.29 1.038.51.272.22.47.484.594.792.128.304.192.64.192 1.008 0 .292-.044.568-.132.828-.084.26-.208.496-.372.708-.16.212-.36.398-.6.558-.236.16-.506.288-.81.384a1.6 1.6 0 0 1 .528.498L738.54 21h-1.452a.726.726 0 0 1-.36-.084.74.74 0 0 1-.246-.24l-1.824-2.778a.63.63 0 0 0-.228-.222c-.08-.044-.2-.066-.36-.066h-.69zm0-1.158h1.008c.304 0 .568-.038.792-.114.228-.076.414-.18.558-.312.148-.136.258-.296.33-.48a1.65 1.65 0 0 0 .108-.606c0-.44-.146-.778-.438-1.014-.288-.236-.73-.354-1.326-.354h-1.032v2.88zm7.863-.492h.378c.152 0 .278-.02.378-.06a.666.666 0 0 0 .258-.204l2.394-3.03a.847.847 0 0 1 .312-.264.997.997 0 0 1 .42-.078h1.392l-2.922 3.606c-.092.112-.18.206-.264.282a1.205 1.205 0 0 1-.27.186c.132.048.25.116.354.204.108.088.212.2.312.336L746.997 21h-1.428c-.192 0-.336-.026-.432-.078a.709.709 0 0 1-.234-.24l-2.454-3.204a.7.7 0 0 0-.27-.222 1.01 1.01 0 0 0-.426-.072h-.51V21h-1.614v-8.682h1.614v3.642z" fill="#344556"/><g filter="url(#j)"><rect x="555" y="32" width="272" height="228" rx="8" fill="#fff" shape-rendering="crispEdges"/><g filter="url(#k)"><rect x="579" y="56" width="64" height="64" rx="6" fill="#fff"/><path d="M599.736 73.594a1 1 0 0 1 .914-.594h20.7a1 1 0 0 1 .914.594l3.111 7a1 1 0 0 1-.914 1.406h-26.922a1 1 0 0 1-.914-1.406l3.111-7z" fill="#512FC9"/><path fill-rule="evenodd" clip-rule="evenodd" d="M596 84a1 1 0 0 1 1-1h28a1 1 0 0 1 1 1v4a1 1 0 0 1-1 1h-28a1 1 0 0 1-1-1v-4zm25 2a1 1 0 0 1 1-1h2a1 1 0 0 1 0 2h-2a1 1 0 0 1-1-1zm-2-1a1 1 0 1 0 0 2 1 1 0 0 0 0-2zM596 98a1 1 0 0 1 1-1h28a1 1 0 0 1 1 1v4a1 1 0 0 1-1 1h-28a1 1 0 0 1-1-1v-4zm25 2a1 1 0 0 1 1-1h2a1 1 0 0 1 0 2h-2a1 1 0 0 1-1-1zm-2-1a1 1 0 1 0 0 2 1 1 0 0 0 0-2zM596 91a1 1 0 0 1 1-1h28a1 1 0 0 1 1 1v4a1 1 0 0 1-1 1h-28a1 1 0 0 1-1-1v-4zm25 2a1 1 0 0 1 1-1h2a1 1 0 0 1 0 2h-2a1 1 0 0 1-1-1zm-2-1a1 1 0 1 0 0 2 1 1 0 0 0 0-2zm-10 1a1 1 0 1 1 2 0 1 1 0 0 1-2 0zm-2-1a1 1 0 1 0 0 2 1 1 0 0 0 0-2zm-4 1a1 1 0 1 1 2 0 1 1 0 0 1-2 0zm-2-1a1 1 0 1 0 0 2 1 1 0 0 0 0-2z" fill="#512FC9"/><rect x="579.5" y="56.5" width="63" height="63" rx="5.5" stroke="#BECACF"/></g><path d="M594.105 131.085a.367.367 0 0 1-.13.155.308.308 0 0 1-.17.045.446.446 0 0 1-.225-.075 5.823 5.823 0 0 0-.295-.175 2.279 2.279 0 0 0-.4-.17 1.607 1.607 0 0 0-.535-.08c-.187 0-.35.023-.49.07a1.025 1.025 0 0 0-.35.185.765.765 0 0 0-.21.29.92.92 0 0 0-.07.365c0 .17.047.312.14.425.097.113.223.21.38.29.157.08.335.152.535.215s.403.132.61.205c.21.07.415.153.615.25.2.093.378.213.535.36.157.143.282.32.375.53.097.21.145.465.145.765 0 .327-.057.633-.17.92-.11.283-.273.532-.49.745-.213.21-.475.377-.785.5-.31.12-.665.18-1.065.18a3.29 3.29 0 0 1-.68-.07 3.445 3.445 0 0 1-1.22-.49 2.897 2.897 0 0 1-.475-.39l.39-.645a.474.474 0 0 1 .13-.115.327.327 0 0 1 .175-.05c.083 0 .173.035.27.105.097.067.21.142.34.225.133.083.288.16.465.23.18.067.395.1.645.1.383 0 .68-.09.89-.27.21-.183.315-.445.315-.785a.716.716 0 0 0-.145-.465 1.091 1.091 0 0 0-.375-.3 2.762 2.762 0 0 0-.535-.21c-.2-.057-.403-.118-.61-.185a5.358 5.358 0 0 1-.61-.24 1.974 1.974 0 0 1-.535-.365 1.7 1.7 0 0 1-.38-.56 2.205 2.205 0 0 1-.14-.835c0-.263.052-.52.155-.77.107-.25.26-.472.46-.665.203-.193.452-.348.745-.465a2.694 2.694 0 0 1 1.005-.175c.427 0 .82.067 1.18.2s.667.32.92.56l-.33.635zm6.046-1.315v1.07h-3.205v2.005h2.525v1.035h-2.525v2.045h3.205V137h-4.56v-7.23h4.56zm2.553 4.405V137h-1.345v-7.23h2.205c.493 0 .915.052 1.265.155.353.1.642.242.865.425.227.183.392.403.495.66.107.253.16.533.16.84 0 .243-.037.473-.11.69a2.01 2.01 0 0 1-.81 1.055 2.6 2.6 0 0 1-.675.32c.17.097.317.235.44.415l1.81 2.67h-1.21a.6.6 0 0 1-.3-.07.62.62 0 0 1-.205-.2l-1.52-2.315a.528.528 0 0 0-.19-.185.638.638 0 0 0-.3-.055h-.575zm0-.965h.84c.253 0 .473-.032.66-.095.19-.063.345-.15.465-.26.123-.113.215-.247.275-.4.06-.153.09-.322.09-.505 0-.367-.122-.648-.365-.845-.24-.197-.608-.295-1.105-.295h-.86v2.4zm4.453-3.44h1.085c.116 0 .211.028.285.085.073.057.128.13.165.22l1.7 4.41c.056.143.11.302.16.475.053.17.103.35.15.54.076-.383.171-.722.285-1.015l1.695-4.41a.514.514 0 0 1 .16-.21.432.432 0 0 1 .285-.095h1.085l-2.92 7.23h-1.215l-2.92-7.23zm12.369 0v1.07h-3.205v2.005h2.525v1.035h-2.525v2.045h3.205V137h-4.56v-7.23h4.56zm2.553 4.405V137h-1.345v-7.23h2.205c.493 0 .915.052 1.265.155.353.1.642.242.865.425.227.183.392.403.495.66.107.253.16.533.16.84 0 .243-.037.473-.11.69a2.01 2.01 0 0 1-.81 1.055 2.6 2.6 0 0 1-.675.32c.17.097.317.235.44.415l1.81 2.67h-1.21a.6.6 0 0 1-.3-.07.62.62 0 0 1-.205-.2l-1.52-2.315a.528.528 0 0 0-.19-.185.638.638 0 0 0-.3-.055h-.575zm0-.965h.84c.253 0 .473-.032.66-.095.19-.063.345-.15.465-.26.123-.113.215-.247.275-.4.06-.153.09-.322.09-.505 0-.367-.122-.648-.365-.845-.24-.197-.608-.295-1.105-.295h-.86v2.4zm9.038-2.125a.367.367 0 0 1-.13.155.31.31 0 0 1-.17.045.446.446 0 0 1-.225-.075 6.304 6.304 0 0 0-.295-.175 2.312 2.312 0 0 0-.4-.17 1.611 1.611 0 0 0-.535-.08c-.187 0-.35.023-.49.07a1.016 1.016 0 0 0-.35.185.745.745 0 0 0-.21.29.92.92 0 0 0-.07.365c0 .17.046.312.14.425.096.113.223.21.38.29.156.08.335.152.535.215s.403.132.61.205c.21.07.415.153.615.25.2.093.378.213.535.36.156.143.281.32.375.53.096.21.145.465.145.765 0 .327-.057.633-.17.92a2.11 2.11 0 0 1-.49.745c-.214.21-.475.377-.785.5-.31.12-.665.18-1.065.18a3.29 3.29 0 0 1-.68-.07 3.407 3.407 0 0 1-1.22-.49 2.897 2.897 0 0 1-.475-.39l.39-.645a.46.46 0 0 1 .13-.115.324.324 0 0 1 .175-.05c.083 0 .173.035.27.105.096.067.21.142.34.225.133.083.288.16.465.23.18.067.395.1.645.1.383 0 .68-.09.89-.27.21-.183.315-.445.315-.785a.722.722 0 0 0-.145-.465 1.11 1.11 0 0 0-.375-.3 2.762 2.762 0 0 0-.535-.21c-.2-.057-.404-.118-.61-.185a5.358 5.358 0 0 1-.61-.24 1.958 1.958 0 0 1-.535-.365 1.685 1.685 0 0 1-.38-.56c-.094-.227-.14-.505-.14-.835a1.987 1.987 0 0 1 .615-1.435 2.3 2.3 0 0 1 .745-.465 2.694 2.694 0 0 1 1.005-.175c.426 0 .82.067 1.18.2s.666.32.92.56l-.33.635z" fill="#697986"/><g filter="url(#l)"><rect x="659" y="56" width="64" height="64" rx="6" fill="#fff"/><path d="M685.331 103.354a2.38 2.38 0 0 1-1.068-.251 2.446 2.446 0 0 1-.854-.706l-7.235-9.245a2.547 2.547 0 0 1-.476-2.168l2.584-11.54a2.505 2.505 0 0 1 1.344-1.722l10.46-5.143c.331-.17.703-.256 1.075-.256s.744.085 1.075.256l10.46 5.122c.682.34 1.179.956 1.344 1.721l2.584 11.54a2.62 2.62 0 0 1-.476 2.169l-7.235 9.245c-.475.595-1.178.956-1.923.956l-11.658.022h-.001z" fill="#326DE6"/><path d="M691.031 72.999c.289 0 .579.064.848.19l10.47 5.122c.538.276.952.786 1.076 1.381l2.586 11.538a2.025 2.025 0 0 1-.393 1.742l-7.242 9.243a1.95 1.95 0 0 1-1.551.765h-11.608a1.95 1.95 0 0 1-1.552-.765l-7.242-9.243a2.175 2.175 0 0 1-.393-1.742l2.586-11.538c.145-.616.538-1.126 1.076-1.381l10.47-5.142c.277-.11.572-.167.869-.17zm0-.999c-.435 0-.869.106-1.283.297l-10.469 5.143c-.404.194-.759.48-1.039.838-.28.357-.477.775-.575 1.223l-2.587 11.538c-.207.913 0 1.848.58 2.592l7.241 9.243a2.896 2.896 0 0 0 2.297 1.126h11.608c.89 0 1.738-.404 2.296-1.126l7.242-9.243c.58-.723.787-1.679.58-2.593l-2.587-11.537a3.049 3.049 0 0 0-.575-1.224 2.938 2.938 0 0 0-1.039-.837l-10.428-5.143a2.9 2.9 0 0 0-1.262-.297z" fill="#fff"/><path d="M701.696 90.236c-.02 0-.02 0 0 0h-.02c-.021 0-.041 0-.041-.021-.042 0-.083-.021-.124-.021-.144-.022-.268-.043-.392-.043-.062 0-.123 0-.206-.021h-.02c-.433-.042-.784-.085-1.113-.191-.145-.064-.186-.149-.227-.233 0-.022-.021-.022-.021-.043l-.268-.085a8.621 8.621 0 0 0-.144-2.991 8.889 8.889 0 0 0-1.154-2.78l.206-.19v-.043c0-.106.02-.212.103-.318.247-.234.556-.425.927-.658.062-.042.124-.063.186-.106a3.06 3.06 0 0 0 .35-.212c.021-.021.062-.042.103-.085.021-.021.041-.021.041-.042.289-.255.351-.68.145-.955a.58.58 0 0 0-.474-.234.756.756 0 0 0-.454.17l-.041.043c-.041.02-.062.063-.103.084-.103.107-.185.191-.268.298-.041.042-.082.106-.144.148a5.324 5.324 0 0 1-.825.764.323.323 0 0 1-.185.064c-.041 0-.083 0-.124-.022h-.041l-.248.17c-.267-.297-.556-.552-.844-.806a8.103 8.103 0 0 0-4.308-1.761l-.021-.276-.041-.043c-.062-.063-.144-.126-.165-.275-.02-.34.021-.722.062-1.146v-.021c0-.064.021-.149.041-.212.021-.127.042-.255.062-.403v-.191c0-.382-.288-.7-.639-.7a.65.65 0 0 0-.453.212.682.682 0 0 0-.186.488v.17c0 .148.021.275.062.403.021.063.021.127.041.212v.02c.041.425.103.807.062 1.147-.021.148-.103.212-.165.275l-.041.043-.021.275c-.371.043-.742.085-1.113.17a7.89 7.89 0 0 0-4.08 2.377l-.207-.15h-.041c-.041 0-.082.022-.124.022a.328.328 0 0 1-.185-.063c-.268-.191-.536-.467-.824-.785-.042-.043-.083-.107-.145-.149a3.335 3.335 0 0 0-.268-.297c-.02-.021-.062-.042-.103-.085-.02-.021-.041-.021-.041-.042a.706.706 0 0 0-.453-.17.578.578 0 0 0-.474.233c-.207.276-.145.7.144.955.02 0 .02.022.041.022.041.02.062.063.103.084.124.085.227.149.35.212a.826.826 0 0 1 .186.107c.371.233.68.424.927.657.104.106.104.212.104.319v.041l.205.192c-.041.064-.082.106-.102.17-1.031 1.675-1.423 3.649-1.155 5.6l-.268.086c0 .02-.02.02-.02.041a.492.492 0 0 1-.227.234c-.309.106-.68.149-1.113.19h-.021c-.061 0-.144 0-.206.022-.123 0-.247.022-.391.043-.041 0-.083.02-.124.02-.021 0-.041 0-.062.022a.694.694 0 0 0-.536.785c.062.297.33.488.66.488.062 0 .103 0 .165-.021.02 0 .041 0 .041-.021.041 0 .082-.022.123-.022.129-.036.253-.086.372-.148.061-.021.123-.064.185-.085h.021c.391-.148.742-.276 1.072-.318h.041c.123 0 .206.063.268.106.02 0 .02.021.041.021l.288-.042a8.4 8.4 0 0 0 2.701 3.988c.288.234.577.425.886.616l-.124.276c0 .02.021.02.021.042a.45.45 0 0 1 .041.34c-.124.318-.309.636-.536.996v.022c-.041.064-.082.106-.124.17-.082.106-.144.212-.226.339-.021.021-.041.064-.062.106 0 .021-.021.042-.021.042-.165.361-.041.764.268.913a.537.537 0 0 0 .247.063c.248 0 .495-.17.619-.403 0-.021.021-.042.021-.042a.479.479 0 0 1 .061-.106c.062-.149.083-.255.124-.382l.062-.19c.144-.425.247-.765.433-1.062.082-.127.185-.149.268-.19.02 0 .02 0 .041-.022l.144-.276a7.849 7.849 0 0 0 2.886.552c.597 0 1.216-.064 1.793-.212.363-.084.721-.19 1.072-.319l.123.234c.021 0 .021 0 .041.021a.38.38 0 0 1 .268.19c.165.298.289.659.433 1.062v.02l.062.192c.041.127.062.254.124.382.02.042.041.063.061.106 0 .021.021.042.021.042a.7.7 0 0 0 .618.403.537.537 0 0 0 .248-.063.628.628 0 0 0 .309-.382.791.791 0 0 0-.041-.53c0-.022-.021-.022-.021-.043a.441.441 0 0 0-.062-.106 1.953 1.953 0 0 0-.226-.34c-.041-.063-.083-.106-.124-.17v-.02c-.227-.361-.433-.68-.536-.998-.041-.148 0-.233.021-.34 0-.02.02-.02.02-.041l-.103-.255c1.092-.658 2.02-1.591 2.721-2.737a8.376 8.376 0 0 0 .866-1.91l.247.043c.02 0 .02-.021.041-.021.082-.043.144-.106.268-.106h.041c.33.042.68.17 1.072.318h.021c.061.021.123.064.185.085.124.063.227.106.371.148.041 0 .082.022.124.022.02 0 .041 0 .062.02a.695.695 0 0 0 .824-.467c0-.254-.227-.593-.598-.7zm-9.543-1.04-.907.446-.906-.446-.227-.997.618-.806h1.01l.618.806-.206.997zm5.38-2.206a6.86 6.86 0 0 1 .144 2.143l-3.153-.934a.563.563 0 0 1-.327-.259.59.59 0 0 1-.065-.42.514.514 0 0 1 .124-.233l2.494-2.313c.35.594.618 1.273.783 2.016zm-1.773-3.288-2.7 1.972a.534.534 0 0 1-.721-.127c-.062-.063-.082-.148-.103-.233l-.185-3.459a6.186 6.186 0 0 1 3.709 1.846zm-5.977-1.74c.227-.043.433-.085.66-.128l-.186 3.395c-.02.297-.247.551-.556.551a.48.48 0 0 1-.248-.063l-2.741-2.016a6.235 6.235 0 0 1 3.071-1.74zm-4.06 3.012 2.452 2.25c.227.19.248.55.062.784a.41.41 0 0 1-.247.17l-3.195.954a6.998 6.998 0 0 1 .928-4.158zm-.557 5.75 3.278-.573a.558.558 0 0 1 .577.445.63.63 0 0 1-.021.34l-1.257 3.119a6.655 6.655 0 0 1-2.577-3.331zm7.523 4.222c-.474.106-.948.17-1.443.17a6.8 6.8 0 0 1-2.081-.34l1.628-3.034c.165-.19.433-.276.66-.148.096.06.18.14.247.233l1.587 2.95c-.185.063-.392.105-.598.169zm4.019-2.95a6.64 6.64 0 0 1-1.978 2.059l-1.299-3.204a.578.578 0 0 1 .289-.658.642.642 0 0 1 .289-.063l3.297.573c-.124.466-.33.89-.598 1.294z" fill="#fff"/><rect x="659.5" y="56.5" width="63" height="63" rx="5.5" stroke="#BECACF"/></g><path d="M661.12 132.8h.315a.86.86 0 0 0 .315-.05.557.557 0 0 0 .215-.17l1.995-2.525a.7.7 0 0 1 .26-.22.835.835 0 0 1 .35-.065h1.16l-2.435 3.005c-.077.093-.15.172-.22.235s-.145.115-.225.155c.11.04.208.097.295.17.09.073.177.167.26.28l2.51 3.385h-1.19a.783.783 0 0 1-.36-.065.584.584 0 0 1-.195-.2l-2.045-2.67a.588.588 0 0 0-.225-.185.841.841 0 0 0-.355-.06h-.425V137h-1.345v-7.235h1.345v3.035zm8.502 3.115c.26 0 .492-.043.695-.13.207-.087.38-.208.52-.365.144-.157.252-.347.325-.57.077-.223.115-.473.115-.75v-4.33h1.345v4.33c0 .43-.07.828-.21 1.195a2.692 2.692 0 0 1-.595.945c-.26.263-.575.47-.945.62-.37.147-.786.22-1.25.22-.463 0-.88-.073-1.25-.22a2.778 2.778 0 0 1-.945-.62 2.812 2.812 0 0 1-.595-.945 3.412 3.412 0 0 1-.205-1.195v-4.33h1.345v4.325c0 .277.037.527.11.75.077.223.185.415.325.575.14.157.312.278.515.365.207.087.44.13.7.13zm4.366 1.085v-7.23h2.495c.473 0 .876.045 1.21.135.336.09.611.218.825.385.216.167.375.368.475.605.1.237.15.503.15.8a1.443 1.443 0 0 1-.31.925 1.73 1.73 0 0 1-.4.365c-.16.11-.352.203-.575.28.993.223 1.49.76 1.49 1.61 0 .307-.059.59-.175.85-.117.26-.287.485-.51.675a2.475 2.475 0 0 1-.825.44c-.327.107-.7.16-1.12.16h-2.73zm1.345-3.17v2.12h1.365c.25 0 .458-.03.625-.09.17-.06.305-.14.405-.24a.856.856 0 0 0 .22-.35c.046-.133.07-.275.07-.425 0-.157-.025-.297-.075-.42a.776.776 0 0 0-.235-.32 1.09 1.09 0 0 0-.41-.205 2.26 2.26 0 0 0-.605-.07h-1.36zm0-.93h1.075c.456 0 .803-.083 1.04-.25.236-.167.355-.432.355-.795 0-.377-.107-.645-.32-.805-.214-.16-.547-.24-1-.24h-1.15v2.09zm9.728-3.13v1.07h-3.205v2.005h2.525v1.035h-2.525v2.045h3.205V137h-4.56v-7.23h4.56zm2.553 4.405V137h-1.345v-7.23h2.205c.493 0 .915.052 1.265.155.353.1.642.242.865.425.227.183.392.403.495.66.107.253.16.533.16.84 0 .243-.037.473-.11.69a2.01 2.01 0 0 1-.81 1.055 2.6 2.6 0 0 1-.675.32c.17.097.317.235.44.415l1.81 2.67h-1.21a.6.6 0 0 1-.3-.07.62.62 0 0 1-.205-.2l-1.52-2.315a.528.528 0 0 0-.19-.185.638.638 0 0 0-.3-.055h-.575zm0-.965h.84c.253 0 .473-.032.66-.095.19-.063.345-.15.465-.26.123-.113.215-.247.275-.4.06-.153.09-.322.09-.505 0-.367-.122-.648-.365-.845-.24-.197-.608-.295-1.105-.295h-.86v2.4zm5.868-3.44c.06 0 .11.003.15.01.04.003.075.013.105.03a.283.283 0 0 1 .095.065c.03.027.063.063.1.11l3.795 4.835a7.242 7.242 0 0 1-.03-.34 12.032 12.032 0 0 1-.005-.315v-4.395h1.185V137h-.695a.62.62 0 0 1-.265-.05.586.586 0 0 1-.205-.18l-3.78-4.815c.01.107.017.213.02.32.007.103.01.198.01.285V137h-1.185v-7.23h.705zm11.413 0v1.07h-3.205v2.005h2.525v1.035h-2.525v2.045h3.205V137h-4.56v-7.23h4.56zm6.258 0v1.105h-2.175V137h-1.345v-6.125h-2.185v-1.105h5.705zm5.412 0v1.07h-3.205v2.005h2.525v1.035h-2.525v2.045h3.205V137h-4.56v-7.23h4.56zm5.038 1.315a.367.367 0 0 1-.13.155.308.308 0 0 1-.17.045.446.446 0 0 1-.225-.075 5.823 5.823 0 0 0-.295-.175 2.279 2.279 0 0 0-.4-.17 1.607 1.607 0 0 0-.535-.08c-.187 0-.35.023-.49.07a1.025 1.025 0 0 0-.35.185.765.765 0 0 0-.21.29.92.92 0 0 0-.07.365c0 .17.047.312.14.425.097.113.223.21.38.29.157.08.335.152.535.215s.403.132.61.205c.21.07.415.153.615.25.2.093.378.213.535.36.157.143.282.32.375.53.097.21.145.465.145.765 0 .327-.057.633-.17.92-.11.283-.273.532-.49.745-.213.21-.475.377-.785.5-.31.12-.665.18-1.065.18a3.29 3.29 0 0 1-.68-.07 3.445 3.445 0 0 1-1.22-.49 2.897 2.897 0 0 1-.475-.39l.39-.645a.474.474 0 0 1 .13-.115.327.327 0 0 1 .175-.05c.083 0 .173.035.27.105.097.067.21.142.34.225.133.083.288.16.465.23.18.067.395.1.645.1.383 0 .68-.09.89-.27.21-.183.315-.445.315-.785a.716.716 0 0 0-.145-.465 1.091 1.091 0 0 0-.375-.3 2.762 2.762 0 0 0-.535-.21c-.2-.057-.403-.118-.61-.185a5.358 5.358 0 0 1-.61-.24 1.974 1.974 0 0 1-.535-.365 1.7 1.7 0 0 1-.38-.56 2.205 2.205 0 0 1-.14-.835c0-.263.052-.52.155-.77.107-.25.26-.472.46-.665.203-.193.452-.348.745-.465a2.694 2.694 0 0 1 1.005-.175c.427 0 .82.067 1.18.2s.667.32.92.56l-.33.635z" fill="#697986"/><g filter="url(#m)"><rect x="739" y="56" width="64" height="64" rx="6" fill="#fff"/><path fill-rule="evenodd" clip-rule="evenodd" d="M765 95c.789 0 1.554-.101 2.283-.292A5.988 5.988 0 0 0 772 97a5.994 5.994 0 0 0 5.057-2.77 5.968 5.968 0 0 0 2.629.762.754.754 0 0 0 .113-.26 8.23 8.23 0 0 0 .202-1.82c0-.611-.069-1.223-.202-1.819a.752.752 0 0 0-1.007-.532 1.503 1.503 0 0 1-1.845-.647 1.509 1.509 0 0 1 .362-1.921.748.748 0 0 0 .042-1.137 8.305 8.305 0 0 0-3.152-1.823.748.748 0 0 0-.964.605 1.51 1.51 0 0 1-1.484 1.275 1.507 1.507 0 0 1-1.483-1.275.752.752 0 0 0-.965-.605 8.317 8.317 0 0 0-3.151 1.823.747.747 0 0 0 .042 1.137c.574.457.729 1.284.361 1.921a1.506 1.506 0 0 1-1.845.647.747.747 0 0 0-1.006.532 8.23 8.23 0 0 0 0 3.64.784.784 0 0 0 .068.184c.402.055.811.083 1.228.083zm-2.325-.303A9.004 9.004 0 0 1 756 86a9 9 0 0 1 15.166-6.555 6 6 0 0 1 10.825 3.894 6.003 6.003 0 0 1-1.216 11.611 9.25 9.25 0 0 0 0-4.075v-.001a1.75 1.75 0 0 0-2.346-1.245l-.005.002a.503.503 0 0 1-.61-.216.509.509 0 0 1 .118-.64h.001a1.749 1.749 0 0 0 .097-2.653 9.31 9.31 0 0 0-3.534-2.043h-.001a1.754 1.754 0 0 0-2.249 1.408v.002a.509.509 0 0 1-.495.424.508.508 0 0 1-.494-.422l-.001-.004a1.75 1.75 0 0 0-2.248-1.409h-.001a9.308 9.308 0 0 0-3.533 2.043h-.001a1.745 1.745 0 0 0-.56 1.347c.017.513.26.99.657 1.306l.001.001c.185.147.24.427.118.64a.505.505 0 0 1-.61.216 1.747 1.747 0 0 0-2.35 1.24 9.224 9.224 0 0 0-.054 3.826zm6.825-1.785c0 1.24 1.01 2.25 2.25 2.25 1.241 0 2.25-1.01 2.25-2.25s-1.009-2.25-2.25-2.25c-1.24 0-2.25 1.01-2.25 2.25zm1.5 0a.75.75 0 1 1 1.5 0 .75.75 0 0 1-1.5 0z" fill="#512FC9"/><path fill-rule="evenodd" clip-rule="evenodd" d="M769.303 100.792a.728.728 0 0 0 .222.033v.002c.14 0 .278-.039.399-.116a.747.747 0 0 0 .344-.523 1.509 1.509 0 0 1 1.483-1.275c.737 0 1.376.547 1.484 1.275a.752.752 0 0 0 .964.604 8.298 8.298 0 0 0 3.152-1.822.753.753 0 0 0-.042-1.137 1.509 1.509 0 0 1-.362-1.922 1.506 1.506 0 0 1 1.845-.646.75.75 0 0 0 1.007-.533 8.23 8.23 0 0 0 .202-1.82c0-.611-.069-1.223-.202-1.819a.752.752 0 0 0-1.007-.532 1.503 1.503 0 0 1-1.845-.647 1.509 1.509 0 0 1 .362-1.921.748.748 0 0 0 .042-1.137 8.305 8.305 0 0 0-3.152-1.823.748.748 0 0 0-.964.605 1.51 1.51 0 0 1-1.484 1.275 1.507 1.507 0 0 1-1.483-1.275.752.752 0 0 0-.965-.605 8.317 8.317 0 0 0-3.151 1.823.747.747 0 0 0 .042 1.137c.574.457.729 1.284.361 1.921a1.506 1.506 0 0 1-1.845.647.747.747 0 0 0-1.006.532 8.23 8.23 0 0 0 0 3.64.749.749 0 0 0 1.006.532 1.503 1.503 0 0 1 1.845.647 1.508 1.508 0 0 1-.361 1.92.756.756 0 0 0-.282.56.745.745 0 0 0 .24.578 8.281 8.281 0 0 0 3.151 1.822zm.197-7.88c0 1.24 1.01 2.25 2.25 2.25 1.241 0 2.25-1.01 2.25-2.25s-1.009-2.25-2.25-2.25c-1.24 0-2.25 1.01-2.25 2.25zm1.5 0a.75.75 0 1 1 1.5 0 .75.75 0 0 1-1.5 0z" fill="#512FC9"/><rect x="739.5" y="56.5" width="63" height="63" rx="5.5" stroke="#BECACF"/></g><path d="M746.06 129.77h1.13c.117 0 .213.028.29.085.08.053.133.127.16.22l1.23 4.325c.03.107.057.223.08.35.027.123.052.255.075.395a4.642 4.642 0 0 1 .19-.745l1.42-4.325a.476.476 0 0 1 .155-.21.455.455 0 0 1 .29-.095h.395c.117 0 .213.028.29.085.077.053.13.127.16.22l1.41 4.325c.073.213.137.45.19.71.023-.13.047-.255.07-.375.027-.12.053-.232.08-.335l1.23-4.325a.403.403 0 0 1 .155-.215.47.47 0 0 1 .29-.09h1.055L754.16 137h-1.215l-1.58-4.94-.065-.205a7.92 7.92 0 0 1-.06-.235c-.02.083-.042.162-.065.235-.02.073-.04.142-.06.205L749.52 137h-1.215l-2.245-7.23zm15.699 0v1.07h-3.205v2.005h2.525v1.035h-2.525v2.045h3.205V137h-4.56v-7.23h4.56zm1.162 7.23v-7.23h2.495c.474 0 .877.045 1.21.135.337.09.612.218.825.385.217.167.375.368.475.605.1.237.15.503.15.8 0 .17-.025.333-.075.49-.05.153-.128.298-.235.435a1.69 1.69 0 0 1-.4.365c-.16.11-.351.203-.575.28.994.223 1.49.76 1.49 1.61 0 .307-.058.59-.175.85-.116.26-.286.485-.51.675a2.456 2.456 0 0 1-.825.44c-.326.107-.7.16-1.12.16h-2.73zm1.345-3.17v2.12h1.365c.25 0 .459-.03.625-.09.17-.06.305-.14.405-.24a.836.836 0 0 0 .22-.35c.047-.133.07-.275.07-.425 0-.157-.025-.297-.075-.42a.768.768 0 0 0-.235-.32 1.074 1.074 0 0 0-.41-.205 2.25 2.25 0 0 0-.605-.07h-1.36zm0-.93h1.075c.457 0 .804-.083 1.04-.25.237-.167.355-.432.355-.795 0-.377-.106-.645-.32-.805-.213-.16-.546-.24-1-.24h-1.15v2.09zm13.458 4.1h-1.04a.47.47 0 0 1-.29-.085.512.512 0 0 1-.16-.22l-.54-1.475h-2.995l-.54 1.475a.467.467 0 0 1-.16.21.436.436 0 0 1-.285.095h-1.045l2.84-7.23h1.375l2.84 7.23zm-4.68-2.73h2.305l-.88-2.405a18.92 18.92 0 0 1-.135-.375 10.944 10.944 0 0 1-.14-.475c-.047.17-.094.328-.14.475a5.035 5.035 0 0 1-.13.385l-.88 2.395zm6.814.185V137h-1.345v-7.23h2.355c.484 0 .902.057 1.255.17.354.113.645.272.875.475.23.203.4.447.51.73.11.283.165.593.165.93 0 .35-.058.672-.175.965-.116.29-.291.54-.525.75-.233.21-.525.373-.875.49-.35.117-.76.175-1.23.175h-1.01zm0-1.05h1.01c.247 0 .462-.03.645-.09.184-.063.335-.152.455-.265.12-.117.21-.257.27-.42.06-.167.09-.352.09-.555 0-.193-.03-.368-.09-.525-.06-.157-.15-.29-.27-.4a1.175 1.175 0 0 0-.455-.25 2.075 2.075 0 0 0-.645-.09h-1.01v2.595zm6.25 1.05V137h-1.345v-7.23h2.355c.484 0 .902.057 1.255.17.354.113.645.272.875.475.23.203.4.447.51.73.11.283.165.593.165.93 0 .35-.058.672-.175.965-.116.29-.291.54-.525.75-.233.21-.525.373-.875.49-.35.117-.76.175-1.23.175h-1.01zm0-1.05h1.01c.247 0 .462-.03.645-.09.184-.063.335-.152.455-.265.12-.117.21-.257.27-.42.06-.167.09-.352.09-.555 0-.193-.03-.368-.09-.525-.06-.157-.15-.29-.27-.4a1.175 1.175 0 0 0-.455-.25 2.075 2.075 0 0 0-.645-.09h-1.01v2.595zm8.735-2.32a.36.36 0 0 1-.13.155.305.305 0 0 1-.17.045.452.452 0 0 1-.225-.075 5.41 5.41 0 0 0-.295-.175 2.247 2.247 0 0 0-.4-.17 1.607 1.607 0 0 0-.535-.08c-.186 0-.35.023-.49.07a1.034 1.034 0 0 0-.35.185.765.765 0 0 0-.21.29.939.939 0 0 0-.07.365c0 .17.047.312.14.425.097.113.224.21.38.29.157.08.335.152.535.215s.404.132.61.205c.21.07.415.153.615.25.2.093.379.213.535.36.157.143.282.32.375.53.097.21.145.465.145.765 0 .327-.056.633-.17.92-.11.283-.273.532-.49.745-.213.21-.475.377-.785.5-.31.12-.665.18-1.065.18-.23 0-.456-.023-.68-.07a3.445 3.445 0 0 1-1.22-.49 2.94 2.94 0 0 1-.475-.39l.39-.645a.474.474 0 0 1 .13-.115.33.33 0 0 1 .175-.05c.084 0 .174.035.27.105.097.067.21.142.34.225.134.083.289.16.465.23.18.067.395.1.645.1.384 0 .68-.09.89-.27.21-.183.315-.445.315-.785a.716.716 0 0 0-.145-.465 1.091 1.091 0 0 0-.375-.3 2.737 2.737 0 0 0-.535-.21c-.2-.057-.403-.118-.61-.185a5.432 5.432 0 0 1-.61-.24 1.974 1.974 0 0 1-.535-.365 1.715 1.715 0 0 1-.38-.56 2.205 2.205 0 0 1-.14-.835c0-.263.052-.52.155-.77.107-.25.26-.472.46-.665.204-.193.452-.348.745-.465a2.701 2.701 0 0 1 1.005-.175c.427 0 .82.067 1.18.2s.667.32.92.56l-.33.635z" fill="#697986"/><g filter="url(#n)"><rect x="579" y="154" width="64" height="64" rx="6" fill="#fff"/><path d="M600.924 173.269c2.729-.725 6.482-1.269 10.576-1.269s7.847.544 10.576 1.269c3.071.906 3.924 1.994 3.924 2.356 0 .362-.853 1.45-3.924 2.356-2.729.725-6.482 1.269-10.576 1.269s-7.847-.544-10.576-1.269c-3.071-.906-3.924-1.994-3.924-2.356 0-.362.853-1.45 3.924-2.356zM622.076 192.481c-2.9.907-6.652 1.269-10.576 1.269-3.924 0-7.847-.544-10.576-1.269-3.071-.906-3.924-1.993-3.924-2.356v-4.712c.853.543 2.047 1.087 3.412 1.45 2.9.906 6.994 1.45 11.088 1.45 4.094 0 8.188-.544 11.088-1.45 1.365-.363 2.559-.907 3.412-1.45v4.712c0 .363-.853 1.45-3.924 2.356z" fill="#512FC9"/><path fill-rule="evenodd" clip-rule="evenodd" d="M611.5 186.5c4.094 0 7.847-.544 10.576-1.269 3.071-.906 3.924-1.993 3.924-2.356v-4.712c-.853.543-2.047 1.087-3.412 1.45-2.9.906-6.994 1.45-11.088 1.45-4.094 0-8.188-.544-11.088-1.45-1.365-.363-2.559-.907-3.412-1.45v4.712c0 .363.853 1.45 3.924 2.356 2.729.725 6.482 1.269 10.576 1.269zm0-1.5a1.5 1.5 0 1 0-.001-3.001A1.5 1.5 0 0 0 611.5 185zM611.5 201c3.924 0 7.676-.362 10.576-1.269 3.071-.906 3.924-1.993 3.924-2.356v-4.712c-.853.543-2.047 1.087-3.412 1.45-2.9.906-6.994 1.45-11.088 1.45-4.094 0-8.188-.544-11.088-1.45-1.365-.363-2.559-.907-3.412-1.45v4.712c0 .363.853 1.45 3.924 2.356 2.729.725 6.652 1.269 10.576 1.269zm0-1a1.5 1.5 0 1 0-.001-3.001A1.5 1.5 0 0 0 611.5 200z" fill="#512FC9"/><rect x="579.5" y="154.5" width="63" height="63" rx="5.5" stroke="#BECACF"/></g><path d="M590.15 231.385c0 .53-.088 1.017-.265 1.46a3.362 3.362 0 0 1-.745 1.145c-.32.32-.705.568-1.155.745a4.05 4.05 0 0 1-1.495.265h-2.76v-7.23h2.76c.547 0 1.045.09 1.495.27.45.177.835.425 1.155.745.32.317.568.697.745 1.14.177.443.265.93.265 1.46zm-1.375 0c0-.397-.053-.752-.16-1.065a2.233 2.233 0 0 0-.455-.8 1.953 1.953 0 0 0-.72-.505 2.445 2.445 0 0 0-.95-.175h-1.405v5.09h1.405c.353 0 .67-.058.95-.175.283-.117.523-.283.72-.5.197-.22.348-.487.455-.8.107-.317.16-.673.16-1.07zm8.527 3.615h-1.04a.47.47 0 0 1-.29-.085.512.512 0 0 1-.16-.22l-.54-1.475h-2.995l-.54 1.475a.467.467 0 0 1-.16.21.436.436 0 0 1-.285.095h-1.045l2.84-7.23h1.375l2.84 7.23zm-4.68-2.73h2.305l-.88-2.405a18.92 18.92 0 0 1-.135-.375 10.944 10.944 0 0 1-.14-.475c-.047.17-.094.328-.14.475a5.035 5.035 0 0 1-.13.385l-.88 2.395zm9.787-4.5v1.105h-2.175V235h-1.345v-6.125h-2.185v-1.105h5.705zm6.475 7.23h-1.04a.47.47 0 0 1-.29-.085.512.512 0 0 1-.16-.22l-.54-1.475h-2.995l-.54 1.475a.467.467 0 0 1-.16.21.436.436 0 0 1-.285.095h-1.045l2.84-7.23h1.375l2.84 7.23zm-4.68-2.73h2.305l-.88-2.405a18.92 18.92 0 0 1-.135-.375 10.944 10.944 0 0 1-.14-.475c-.047.17-.094.328-.14.475a5.035 5.035 0 0 1-.13.385l-.88 2.395zm5.424 2.73v-7.23h2.495c.474 0 .877.045 1.21.135.337.09.612.218.825.385.217.167.375.368.475.605.1.237.15.503.15.8 0 .17-.025.333-.075.49-.05.153-.128.298-.235.435a1.69 1.69 0 0 1-.4.365c-.16.11-.351.203-.575.28.994.223 1.49.76 1.49 1.61 0 .307-.058.59-.175.85-.116.26-.286.485-.51.675a2.456 2.456 0 0 1-.825.44c-.326.107-.7.16-1.12.16h-2.73zm1.345-3.17v2.12h1.365c.25 0 .459-.03.625-.09.17-.06.305-.14.405-.24a.836.836 0 0 0 .22-.35c.047-.133.07-.275.07-.425 0-.157-.025-.297-.075-.42a.768.768 0 0 0-.235-.32 1.074 1.074 0 0 0-.41-.205 2.25 2.25 0 0 0-.605-.07h-1.36zm0-.93h1.075c.457 0 .804-.083 1.04-.25.237-.167.355-.432.355-.795 0-.377-.106-.645-.32-.805-.213-.16-.546-.24-1-.24h-1.15v2.09zm11.524 4.1h-1.04a.473.473 0 0 1-.29-.085.52.52 0 0 1-.16-.22l-.54-1.475h-2.995l-.54 1.475a.467.467 0 0 1-.16.21.436.436 0 0 1-.285.095h-1.045l2.84-7.23h1.375l2.84 7.23zm-4.68-2.73h2.305l-.88-2.405a18.92 18.92 0 0 1-.135-.375 12.558 12.558 0 0 1-.14-.475 12.558 12.558 0 0 1-.27.86l-.88 2.395zm9.3-3.185a.367.367 0 0 1-.13.155.31.31 0 0 1-.17.045.446.446 0 0 1-.225-.075 6.304 6.304 0 0 0-.295-.175 2.312 2.312 0 0 0-.4-.17 1.611 1.611 0 0 0-.535-.08c-.187 0-.35.023-.49.07a1.016 1.016 0 0 0-.35.185.745.745 0 0 0-.21.29.92.92 0 0 0-.07.365c0 .17.046.312.14.425.096.113.223.21.38.29.156.08.335.152.535.215s.403.132.61.205c.21.07.415.153.615.25.2.093.378.213.535.36.156.143.281.32.375.53.096.21.145.465.145.765 0 .327-.057.633-.17.92a2.11 2.11 0 0 1-.49.745c-.214.21-.475.377-.785.5-.31.12-.665.18-1.065.18a3.29 3.29 0 0 1-.68-.07 3.407 3.407 0 0 1-1.22-.49 2.897 2.897 0 0 1-.475-.39l.39-.645a.46.46 0 0 1 .13-.115.324.324 0 0 1 .175-.05c.083 0 .173.035.27.105.096.067.21.142.34.225.133.083.288.16.465.23.18.067.395.1.645.1.383 0 .68-.09.89-.27.21-.183.315-.445.315-.785a.722.722 0 0 0-.145-.465 1.11 1.11 0 0 0-.375-.3 2.762 2.762 0 0 0-.535-.21c-.2-.057-.404-.118-.61-.185a5.358 5.358 0 0 1-.61-.24 1.958 1.958 0 0 1-.535-.365 1.685 1.685 0 0 1-.38-.56c-.094-.227-.14-.505-.14-.835a1.987 1.987 0 0 1 .615-1.435 2.3 2.3 0 0 1 .745-.465 2.694 2.694 0 0 1 1.005-.175c.426 0 .82.067 1.18.2s.666.32.92.56l-.33.635zm6.046-1.315v1.07h-3.205v2.005h2.525v1.035h-2.525v2.045h3.205V235h-4.56v-7.23h4.56zm5.038 1.315a.367.367 0 0 1-.13.155.31.31 0 0 1-.17.045.446.446 0 0 1-.225-.075 6.304 6.304 0 0 0-.295-.175 2.312 2.312 0 0 0-.4-.17 1.611 1.611 0 0 0-.535-.08c-.187 0-.35.023-.49.07a1.016 1.016 0 0 0-.35.185.745.745 0 0 0-.21.29.92.92 0 0 0-.07.365c0 .17.046.312.14.425.096.113.223.21.38.29.156.08.335.152.535.215s.403.132.61.205c.21.07.415.153.615.25.2.093.378.213.535.36.156.143.281.32.375.53.096.21.145.465.145.765 0 .327-.057.633-.17.92a2.11 2.11 0 0 1-.49.745c-.214.21-.475.377-.785.5-.31.12-.665.18-1.065.18a3.29 3.29 0 0 1-.68-.07 3.407 3.407 0 0 1-1.22-.49 2.897 2.897 0 0 1-.475-.39l.39-.645a.46.46 0 0 1 .13-.115.324.324 0 0 1 .175-.05c.083 0 .173.035.27.105.096.067.21.142.34.225.133.083.288.16.465.23.18.067.395.1.645.1.383 0 .68-.09.89-.27.21-.183.315-.445.315-.785a.722.722 0 0 0-.145-.465 1.11 1.11 0 0 0-.375-.3 2.762 2.762 0 0 0-.535-.21c-.2-.057-.404-.118-.61-.185a5.358 5.358 0 0 1-.61-.24 1.958 1.958 0 0 1-.535-.365 1.685 1.685 0 0 1-.38-.56c-.094-.227-.14-.505-.14-.835a1.987 1.987 0 0 1 .615-1.435 2.3 2.3 0 0 1 .745-.465 2.694 2.694 0 0 1 1.005-.175c.426 0 .82.067 1.18.2s.666.32.92.56l-.33.635z" fill="#697986"/><g filter="url(#o)"><rect x="659" y="154" width="64" height="64" rx="6" fill="#fff"/><path fill="#512FC9" d="M687 195h7v3h-7z"/><rect x="685" y="199" width="11" height="1" rx=".5" fill="#512FC9"/><path fill-rule="evenodd" clip-rule="evenodd" d="M705 191h-29v1a2 2 0 0 0 2 2h25a2 2 0 0 0 2-2v-1zm-14.5 2a.5.5 0 1 0 0-1 .5.5 0 0 0 0 1zM676 176a2 2 0 0 1 2-2h25a2 2 0 0 1 2 2v14h-29v-14zm13.858 5.155a.505.505 0 0 1 0 .702l-1.924 1.983a.541.541 0 0 1-.378.16.49.49 0 0 1-.378-.197c-.211-.234-.222-.628 0-.862l1.39-1.453-1.39-1.429a.6.6 0 0 1-.178-.431c0-.345.234-.628.545-.628.145 0 .278.062.378.172l1.924 1.971.011.012zm.694 2.845h3.896c.305 0 .552.224.552.5s-.247.5-.552.5h-3.896c-.305 0-.552-.224-.552-.5s.247-.5.552-.5z" fill="#512FC9"/><rect x="659.5" y="154.5" width="63" height="63" rx="5.5" stroke="#BECACF"/></g><path d="M672.65 231.385c0 .53-.088 1.017-.265 1.46a3.362 3.362 0 0 1-.745 1.145c-.32.32-.705.568-1.155.745a4.05 4.05 0 0 1-1.495.265h-2.76v-7.23h2.76c.547 0 1.045.09 1.495.27.45.177.835.425 1.155.745.32.317.568.697.745 1.14.177.443.265.93.265 1.46zm-1.375 0c0-.397-.053-.752-.16-1.065a2.233 2.233 0 0 0-.455-.8 1.953 1.953 0 0 0-.72-.505 2.445 2.445 0 0 0-.95-.175h-1.405v5.09h1.405c.353 0 .67-.058.95-.175.283-.117.523-.283.72-.5.197-.22.348-.487.455-.8.107-.317.16-.673.16-1.07zm6.986-3.615v1.07h-3.205v2.005h2.525v1.035h-2.525v2.045h3.205V235h-4.56v-7.23h4.56zm5.037 1.315a.36.36 0 0 1-.13.155.305.305 0 0 1-.17.045.452.452 0 0 1-.225-.075 5.41 5.41 0 0 0-.295-.175 2.247 2.247 0 0 0-.4-.17 1.607 1.607 0 0 0-.535-.08c-.186 0-.35.023-.49.07a1.034 1.034 0 0 0-.35.185.765.765 0 0 0-.21.29.939.939 0 0 0-.07.365c0 .17.047.312.14.425.097.113.224.21.38.29.157.08.335.152.535.215s.404.132.61.205c.21.07.415.153.615.25.2.093.379.213.535.36.157.143.282.32.375.53.097.21.145.465.145.765 0 .327-.056.633-.17.92-.11.283-.273.532-.49.745-.213.21-.475.377-.785.5-.31.12-.665.18-1.065.18-.23 0-.456-.023-.68-.07a3.445 3.445 0 0 1-1.22-.49 2.94 2.94 0 0 1-.475-.39l.39-.645a.474.474 0 0 1 .13-.115.33.33 0 0 1 .175-.05c.084 0 .174.035.27.105.097.067.21.142.34.225.134.083.289.16.465.23.18.067.395.1.645.1.384 0 .68-.09.89-.27.21-.183.315-.445.315-.785a.716.716 0 0 0-.145-.465 1.091 1.091 0 0 0-.375-.3 2.737 2.737 0 0 0-.535-.21c-.2-.057-.403-.118-.61-.185a5.432 5.432 0 0 1-.61-.24 1.974 1.974 0 0 1-.535-.365 1.715 1.715 0 0 1-.38-.56 2.205 2.205 0 0 1-.14-.835c0-.263.052-.52.155-.77.107-.25.26-.472.46-.665.204-.193.452-.348.745-.465a2.701 2.701 0 0 1 1.005-.175c.427 0 .82.067 1.18.2s.667.32.92.56l-.33.635zm2.877 1.715h.315a.867.867 0 0 0 .315-.05.557.557 0 0 0 .215-.17l1.995-2.525a.7.7 0 0 1 .26-.22.835.835 0 0 1 .35-.065h1.16l-2.435 3.005c-.077.093-.15.172-.22.235s-.145.115-.225.155c.11.04.208.097.295.17.09.073.176.167.26.28l2.51 3.385h-1.19a.783.783 0 0 1-.36-.065.584.584 0 0 1-.195-.2l-2.045-2.67a.588.588 0 0 0-.225-.185.844.844 0 0 0-.355-.06h-.425V235h-1.345v-7.235h1.345v3.035zm10.687-3.03v1.105h-2.175V235h-1.345v-6.125h-2.185v-1.105h5.705zm7.397 3.615a4.04 4.04 0 0 1-.265 1.475 3.5 3.5 0 0 1-.745 1.17c-.32.33-.705.588-1.155.775-.45.183-.949.275-1.495.275a3.97 3.97 0 0 1-1.5-.275 3.46 3.46 0 0 1-1.16-.775c-.32-.33-.569-.72-.745-1.17a4.019 4.019 0 0 1-.265-1.475c0-.53.088-1.02.265-1.47.176-.453.425-.845.745-1.175.323-.33.71-.587 1.16-.77.453-.187.953-.28 1.5-.28.546 0 1.045.093 1.495.28.45.187.835.445 1.155.775.32.327.568.717.745 1.17.176.45.265.94.265 1.47zm-1.38 0a3.31 3.31 0 0 0-.16-1.065 2.243 2.243 0 0 0-.45-.805 1.953 1.953 0 0 0-.72-.505 2.445 2.445 0 0 0-.95-.175c-.354 0-.672.058-.955.175a1.988 1.988 0 0 0-.725.505c-.197.22-.349.488-.455.805-.107.313-.16.668-.16 1.065 0 .397.053.753.16 1.07.106.313.258.58.455.8.2.217.441.383.725.5.283.117.601.175.955.175.353 0 .67-.058.95-.175.283-.117.523-.283.72-.5.196-.22.346-.487.45-.8a3.36 3.36 0 0 0 .16-1.07zm3.833 1.07V235h-1.345v-7.23h2.355c.483 0 .901.057 1.255.17.353.113.645.272.875.475.23.203.4.447.51.73.11.283.165.593.165.93a2.6 2.6 0 0 1-.175.965 2.01 2.01 0 0 1-.525.75c-.234.21-.525.373-.875.49-.35.117-.76.175-1.23.175h-1.01zm0-1.05h1.01c.246 0 .461-.03.645-.09.183-.063.335-.152.455-.265.12-.117.21-.257.27-.42.06-.167.09-.352.09-.555 0-.193-.03-.368-.09-.525-.06-.157-.15-.29-.27-.4a1.182 1.182 0 0 0-.455-.25 2.084 2.084 0 0 0-.645-.09h-1.01v2.595zm8.735-2.32a.367.367 0 0 1-.13.155.31.31 0 0 1-.17.045.446.446 0 0 1-.225-.075 6.304 6.304 0 0 0-.295-.175 2.312 2.312 0 0 0-.4-.17 1.611 1.611 0 0 0-.535-.08c-.187 0-.35.023-.49.07a1.016 1.016 0 0 0-.35.185.745.745 0 0 0-.21.29.92.92 0 0 0-.07.365c0 .17.046.312.14.425.096.113.223.21.38.29.156.08.335.152.535.215s.403.132.61.205c.21.07.415.153.615.25.2.093.378.213.535.36.156.143.281.32.375.53.096.21.145.465.145.765 0 .327-.057.633-.17.92a2.11 2.11 0 0 1-.49.745c-.214.21-.475.377-.785.5-.31.12-.665.18-1.065.18a3.29 3.29 0 0 1-.68-.07 3.407 3.407 0 0 1-1.22-.49 2.897 2.897 0 0 1-.475-.39l.39-.645a.46.46 0 0 1 .13-.115.324.324 0 0 1 .175-.05c.083 0 .173.035.27.105.096.067.21.142.34.225.133.083.288.16.465.23.18.067.395.1.645.1.383 0 .68-.09.89-.27.21-.183.315-.445.315-.785a.722.722 0 0 0-.145-.465 1.11 1.11 0 0 0-.375-.3 2.762 2.762 0 0 0-.535-.21c-.2-.057-.404-.118-.61-.185a5.358 5.358 0 0 1-.61-.24 1.958 1.958 0 0 1-.535-.365 1.685 1.685 0 0 1-.38-.56c-.094-.227-.14-.505-.14-.835a1.987 1.987 0 0 1 .615-1.435 2.3 2.3 0 0 1 .745-.465 2.694 2.694 0 0 1 1.005-.175c.426 0 .82.067 1.18.2s.666.32.92.56l-.33.635z" fill="#697986"/><rect x="555.5" y="32.5" width="271" height="227" rx="7.5" stroke="#BECACF" shape-rendering="crispEdges"/></g></g><defs><filter id="k" x="573" y="52" width="76" height="76" filterUnits="userSpaceOnUse" color-interpolation-filters="sRGB"><feFlood flood-opacity="0" result="BackgroundImageFix"/><feColorMatrix in="SourceAlpha" values="0 0 0 0 0 0 0 0 0 0 0 0 0 0 0 0 0 0 127 0" result="hardAlpha"/><feOffset dy="2"/><feGaussianBlur stdDeviation="3"/><feComposite in2="hardAlpha" operator="out"/><feColorMatrix values="0 0 0 0 0 0 0 0 0 0 0 0 0 0 0 0 0 0 0.1 0"/><feBlend in2="BackgroundImageFix" result="effect1_dropShadow_11705_4484"/><feBlend in="SourceGraphic" in2="effect1_dropShadow_11705_4484" result="shape"/></filter><filter id="b" x="0" y="28" width="124" height="240" filterUnits="userSpaceOnUse" color-interpolation-filters="sRGB"><feFlood flood-opacity="0" result="BackgroundImageFix"/><feColorMatrix in="SourceAlpha" values="0 0 0 0 0 0 0 0 0 0 0 0 0 0 0 0 0 0 127 0" result="hardAlpha"/><feOffset dy="2"/><feGaussianBlur stdDeviation="3"/><feComposite in2="hardAlpha" operator="out"/><feColorMatrix values="0 0 0 0 0 0 0 0 0 0 0 0 0 0 0 0 0 0 0.1 0"/><feBlend in2="BackgroundImageFix" result="effect1_dropShadow_11705_4484"/><feBlend in="SourceGraphic" in2="effect1_dropShadow_11705_4484" result="shape"/></filter><filter id="d" x="24" y="150" width="76" height="76" filterUnits="userSpaceOnUse" color-interpolation-filters="sRGB"><feFlood flood-opacity="0" result="BackgroundImageFix"/><feColorMatrix in="SourceAlpha" values="0 0 0 0 0 0 0 0 0 0 0 0 0 0 0 0 0 0 127 0" result="hardAlpha"/><feOffset dy="2"/><feGaussianBlur stdDeviation="3"/><feComposite in2="hardAlpha" operator="out"/><feColorMatrix values="0 0 0 0 0 0 0 0 0 0 0 0 0 0 0 0 0 0 0.1 0"/><feBlend in2="BackgroundImageFix" result="effect1_dropShadow_11705_4484"/><feBlend in="SourceGraphic" in2="effect1_dropShadow_11705_4484" result="shape"/></filter><filter id="f" x="170" y="0" width="333" height="301" filterUnits="userSpaceOnUse" color-interpolation-filters="sRGB"><feFlood flood-opacity="0" result="BackgroundImageFix"/><feColorMatrix in="SourceAlpha" values="0 0 0 0 0 0 0 0 0 0 0 0 0 0 0 0 0 0 127 0" result="hardAlpha"/><feOffset dy="4"/><feGaussianBlur stdDeviation="6"/><feComposite in2="hardAlpha" operator="out"/><feColorMatrix values="0 0 0 0 0.317647 0 0 0 0 0.184314 0 0 0 0 0.788235 0 0 0 0.15 0"/><feBlend in2="BackgroundImageFix" result="effect1_dropShadow_11705_4484"/><feBlend in="SourceGraphic" in2="effect1_dropShadow_11705_4484" result="shape"/></filter><filter id="h" x="251.5" y="175" width="76" height="76" filterUnits="userSpaceOnUse" color-interpolation-filters="sRGB"><feFlood flood-opacity="0" result="BackgroundImageFix"/><feColorMatrix in="SourceAlpha" values="0 0 0 0 0 0 0 0 0 0 0 0 0 0 0 0 0 0 127 0" result="hardAlpha"/><feOffset dy="2"/><feGaussianBlur stdDeviation="3"/><feComposite in2="hardAlpha" operator="out"/><feColorMatrix values="0 0 0 0 0.105882 0 0 0 0 0.0588235 0 0 0 0 0.258824 0 0 0 0.2 0"/><feBlend in2="BackgroundImageFix" result="effect1_dropShadow_11705_4484"/><feBlend in="SourceGraphic" in2="effect1_dropShadow_11705_4484" result="shape"/></filter><filter id="i" x="348.5" y="175" width="76" height="76" filterUnits="userSpaceOnUse" color-interpolation-filters="sRGB"><feFlood flood-opacity="0" result="BackgroundImageFix"/><feColorMatrix in="SourceAlpha" values="0 0 0 0 0 0 0 0 0 0 0 0 0 0 0 0 0 0 127 0" result="hardAlpha"/><feOffset dy="2"/><feGaussianBlur stdDeviation="3"/><feComposite in2="hardAlpha" operator="out"/><feColorMatrix values="0 0 0 0 0.105882 0 0 0 0 0.0588235 0 0 0 0 0.258824 0 0 0 0.2 0"/><feBlend in2="BackgroundImageFix" result="effect1_dropShadow_11705_4484"/><feBlend in="SourceGraphic" in2="effect1_dropShadow_11705_4484" result="shape"/></filter><filter id="j" x="549" y="28" width="284" height="240" filterUnits="userSpaceOnUse" color-interpolation-filters="sRGB"><feFlood flood-opacity="0" result="BackgroundImageFix"/><feColorMatrix in="SourceAlpha" values="0 0 0 0 0 0 0 0 0 0 0 0 0 0 0 0 0 0 127 0" result="hardAlpha"/><feOffset dy="2"/><feGaussianBlur stdDeviation="3"/><feComposite in2="hardAlpha" operator="out"/><feColorMatrix values="0 0 0 0 0 0 0 0 0 0 0 0 0 0 0 0 0 0 0.1 0"/><feBlend in2="BackgroundImageFix" result="effect1_dropShadow_11705_4484"/><feBlend in="SourceGraphic" in2="effect1_dropShadow_11705_4484" result="shape"/></filter><filter id="c" x="24" y="52" width="76" height="76" filterUnits="userSpaceOnUse" color-interpolation-filters="sRGB"><feFlood flood-opacity="0" result="BackgroundImageFix"/><feColorMatrix in="SourceAlpha" values="0 0 0 0 0 0 0 0 0 0 0 0 0 0 0 0 0 0 127 0" result="hardAlpha"/><feOffset dy="2"/><feGaussianBlur stdDeviation="3"/><feComposite in2="hardAlpha" operator="out"/><feColorMatrix values="0 0 0 0 0 0 0 0 0 0 0 0 0 0 0 0 0 0 0.1 0"/><feBlend in2="BackgroundImageFix" result="effect1_dropShadow_11705_4484"/><feBlend in="SourceGraphic" in2="effect1_dropShadow_11705_4484" result="shape"/></filter><filter id="l" x="653" y="52" width="76" height="76" filterUnits="userSpaceOnUse" color-interpolation-filters="sRGB"><feFlood flood-opacity="0" result="BackgroundImageFix"/><feColorMatrix in="SourceAlpha" values="0 0 0 0 0 0 0 0 0 0 0 0 0 0 0 0 0 0 127 0" result="hardAlpha"/><feOffset dy="2"/><feGaussianBlur stdDeviation="3"/><feComposite in2="hardAlpha" operator="out"/><feColorMatrix values="0 0 0 0 0 0 0 0 0 0 0 0 0 0 0 0 0 0 0.1 0"/><feBlend in2="BackgroundImageFix" result="effect1_dropShadow_11705_4484"/><feBlend in="SourceGraphic" in2="effect1_dropShadow_11705_4484" result="shape"/></filter><filter id="m" x="733" y="52" width="76" height="76" filterUnits="userSpaceOnUse" color-interpolation-filters="sRGB"><feFlood flood-opacity="0" result="BackgroundImageFix"/><feColorMatrix in="SourceAlpha" values="0 0 0 0 0 0 0 0 0 0 0 0 0 0 0 0 0 0 127 0" result="hardAlpha"/><feOffset dy="2"/><feGaussianBlur stdDeviation="3"/><feComposite in2="hardAlpha" operator="out"/><feColorMatrix values="0 0 0 0 0 0 0 0 0 0 0 0 0 0 0 0 0 0 0.1 0"/><feBlend in2="BackgroundImageFix" result="effect1_dropShadow_11705_4484"/><feBlend in="SourceGraphic" in2="effect1_dropShadow_11705_4484" result="shape"/></filter><filter id="n" x="573" y="150" width="76" height="76" filterUnits="userSpaceOnUse" color-interpolation-filters="sRGB"><feFlood flood-opacity="0" result="BackgroundImageFix"/><feColorMatrix in="SourceAlpha" values="0 0 0 0 0 0 0 0 0 0 0 0 0 0 0 0 0 0 127 0" result="hardAlpha"/><feOffset dy="2"/><feGaussianBlur stdDeviation="3"/><feComposite in2="hardAlpha" operator="out"/><feColorMatrix values="0 0 0 0 0 0 0 0 0 0 0 0 0 0 0 0 0 0 0.1 0"/><feBlend in2="BackgroundImageFix" result="effect1_dropShadow_11705_4484"/><feBlend in="SourceGraphic" in2="effect1_dropShadow_11705_4484" result="shape"/></filter><filter id="o" x="653" y="150" width="76" height="76" filterUnits="userSpaceOnUse" color-interpolation-filters="sRGB"><feFlood flood-opacity="0" result="BackgroundImageFix"/><feColorMatrix in="SourceAlpha" values="0 0 0 0 0 0 0 0 0 0 0 0 0 0 0 0 0 0 127 0" result="hardAlpha"/><feOffset dy="2"/><feGaussianBlur stdDeviation="3"/><feComposite in2="hardAlpha" operator="out"/><feColorMatrix values="0 0 0 0 0 0 0 0 0 0 0 0 0 0 0 0 0 0 0.1 0"/><feBlend in2="BackgroundImageFix" result="effect1_dropShadow_11705_4484"/><feBlend in="SourceGraphic" in2="effect1_dropShadow_11705_4484" result="shape"/></filter><clipPath id="a"><path fill="#fff" d="M0 0h833v301H0z"/></clipPath><clipPath id="e"><path fill="#fff" transform="translate(47 171)" d="M0 0h30v30H0z"/></clipPath><linearGradient id="g" x1="143.823" y1="284.569" x2="444.216" y2="199.814" gradientUnits="userSpaceOnUse"><stop stop-color="#856DD9"/><stop offset=".33" stop-color="#512FC9"/><stop offset=".99" stop-color="#311C79"/></linearGradient></defs></svg>