<svg height="251" viewBox="0 0 697 251" width="697" xmlns="http://www.w3.org/2000/svg" xmlns:xlink="http://www.w3.org/1999/xlink"><defs><filter id="a" height="106.9%" width="106%" x="-3%" y="-3.4%"><feOffset dx="0" dy="1" in="SourceAlpha" result="shadowOffsetOuter1"/><feGaussianBlur in="shadowOffsetOuter1" result="shadowBlurOuter1" stdDeviation="1"/><feColorMatrix in="shadowBlurOuter1" result="shadowMatrixOuter1" type="matrix" values="0 0 0 0 0   0 0 0 0 0   0 0 0 0 0  0 0 0 0.5 0"/><feMerge><feMergeNode in="shadowMatrixOuter1"/><feMergeNode in="SourceGraphic"/></feMerge></filter><rect id="b" height="164" rx="10" width="282"/><filter id="c" height="108.5%" width="105%" x="-2.5%" y="-3%"><feOffset dx="0" dy="2" in="SourceAlpha" result="shadowOffsetOuter1"/><feGaussianBlur in="shadowOffsetOuter1" result="shadowBlurOuter1" stdDeviation="2"/><feColorMatrix in="shadowBlurOuter1" type="matrix" values="0 0 0 0 0   0 0 0 0 0   0 0 0 0 0  0 0 0 0.5 0"/></filter><filter id="d" height="118.6%" width="106.3%" x="-3.1%" y="-9.3%"><feOffset dx="0" dy="1" in="SourceAlpha" result="shadowOffsetOuter1"/><feGaussianBlur in="shadowOffsetOuter1" result="shadowBlurOuter1" stdDeviation="1"/><feColorMatrix in="shadowBlurOuter1" result="shadowMatrixOuter1" type="matrix" values="0 0 0 0 0   0 0 0 0 0   0 0 0 0 0  0 0 0 0.5 0"/><feMerge><feMergeNode in="shadowMatrixOuter1"/><feMergeNode in="SourceGraphic"/></feMerge></filter></defs><g fill="none" fill-rule="evenodd"><g filter="url(#a)" transform="translate(477 13)"><path d="m10 1.5c-4.69442037 0-8.5 3.80557963-8.5 8.5v63c0 4.6944204 3.80557963 8.5 8.5 8.5h166c4.69442 0 8.5-3.8055796 8.5-8.5v-63c0-4.69442037-3.80558-8.5-8.5-8.5z" fill="#fff" stroke="#3662a2" stroke-width="3"/><path d="m54.1826087 35.8409091h1.6996167l4.1975381 8.3380443h.0257518v-8.3380443h1.5322302v11.3181818h-1.6996167l-4.1846623-8.3221925h-.0386276v8.3221925h-1.5322302zm12.2063379 11.5401069c-.5322058 0-1.0064628-.1083195-1.4227851-.3249618-.4163224-.2166422-.7682597-.5151814-1.0558225-.8956264-.2875629-.380445-.5064507-.8348586-.6566701-1.3632544s-.225328-1.1096225-.225328-1.7436975c0-.623507.0751086-1.1994498.225328-1.7278456.1502194-.5283959.3691072-.9828095.6566701-1.3632544.2875628-.380445.6395001-.6789842 1.0558225-.8956265.4163223-.2166423.8905793-.3249618 1.4227851-.3249618.5322059 0 1.0064629.1083195 1.4227852.3249618s.7682596.5151815 1.0558225.8956265c.2875628.3804449.5064507.8348585.6566701 1.3632544.1502194.5283958.2253279 1.1043386.2253279 1.7278456 0 .634075-.0751085 1.2153017-.2253279 1.7436975s-.3691073.9828094-.6566701 1.3632544c-.2875629.380445-.6395002.6789842-1.0558225.8956264-.4163223.2166423-.8905793.3249618-1.4227852.3249618zm0-1.4266615c.3261907 0 .6094573-.0845421.8498084-.2536288.240351-.1690866.4377793-.3910095.5922906-.6657754.1545114-.2747658.2682472-.5838727.341211-.92733.0729637-.3434573.109445-.6948352.109445-1.0541444 0-.3487412-.0364813-.6974772-.109445-1.0462185-.0729638-.3487412-.1866996-.6578481-.341211-.92733-.1545113-.2694818-.3519396-.4887628-.5922906-.6578495-.2403511-.1690866-.5236177-.2536287-.8498084-.2536287s-.6094573.0845421-.8498083.2536287c-.240351.1690867-.4377793.3883677-.5922907.6578495-.1545113.2694819-.2682472.5785888-.3412109.92733-.0729637.3487413-.109445.6974773-.109445 1.0462185 0 .3593092.0364813.7106871.109445 1.0541444s.1866996.6525642.3412109.92733c.1545114.2747659.3519397.4966888.5922907.6657754.240351.1690867.5236176.2536288.8498083.2536288zm10.8543702 1.2047364h-1.3905955v-1.1096257h-.0257518c-.1974312.4755563-.4849897.8163665-.8626842 1.0224408-.3776945.2060744-.7768429.30911-1.1974572.30911-.5236219 0-.9807112-.1136034-1.3712816-.3408136-.3905705-.2272102-.7146103-.5363171-.9721293-.92733-.2575189-.3910129-.4506553-.8533523-.5794147-1.3870321-.1287595-.5336797-.1931383-1.1069806-.1931383-1.7199197 0-.7397542.0815465-1.3791035.2446418-1.9180673.1630953-.5389637.3798372-.9828095.6502321-1.3315508.2703949-.3487412.5794131-.6050093.9270637-.768812.3476506-.1638028.7017338-.2457029 1.0622604-.2457029.2060152 0 .4163192.0237775.6309183.0713331s.4206112.1241719.6180424.229851c.1974312.1056792.3798378.2404181.5472251.4042208s.3068747.3566643.4184662.5785905h.0257518v-4.1848739h1.4678508zm-5.1246018-4.0105042c0 .3487412.0364813.6921934.109445 1.0303667s.1845536.6393544.334773.9035523.3412097.4755531.5729768.6340718c.2317671.1585188.5064498.237777.8240566.237777.3261907 0 .6073113-.0845421.8433704-.2536288.236059-.1690866.4291953-.3910095.5794147-.6657754.1502194-.2747658.2618093-.5838727.334773-.92733s.109445-.6948352.109445-1.0541444c0-.9088408-.1652388-1.6168805-.4957215-2.1241405s-.7789881-.7608862-1.3455299-.7608862c-.3433586 0-.6330631.087184-.8691221.2615546-.2360591.1743706-.4291954.4015774-.5794148.6816272s-.2575174.5970825-.3218971.9511077-.0965691.7159709-.0965691 1.085848zm11.2921502-.8084416c-.017168-.2853337-.066525-.5600954-.1480727-.8242933s-.1931376-.4940466-.334773-.6895531-.3133122-.3540228-.5150354-.4755539c-.2017231-.121531-.4270489-.1822956-.6759839-.1822956-.2575189 0-.4914285.0554807-.7017356.1664438-.2103072.1109632-.3905678.2641957-.5407872.4597021-.1502193.1955065-.2703931.4253552-.3605247.6895531s-.1394887.5495274-.1480727.8559969zm-3.4249852 1.1888847c0 .3170375.0364813.6235025.109445.9194041.0729638.2959017.1824077.5548117.3283351.776738.1459274.2219262.3304799.3989362.553663.5310351.2231831.132099.489282.1981475.7983048.1981475.4291983 0 .7746977-.1136034 1.0365086-.3408136.261811-.2272102.4570933-.5680204.5858528-1.0224408h1.3905954c-.0772557.4438525-.2103051.8401434-.3991524 1.1888846-.1888472.3487413-.4163189.6419965-.6824218.8797747-.266103.2377781-.5643913.41743-.894874.538961-.3304826.121531-.6759821.1822956-1.0365086.1822956-.5236219 0-.9871491-.1056775-1.3905955-.3170359-.4034463-.2113583-.7446539-.5072555-1.0236327-.8877005-.2789789-.380445-.4892829-.8348586-.6309183-1.3632544-.1416355-.5283958-.2124521-1.1096225-.2124521-1.7436975 0-.5812354.0751085-1.1334007.2253279-1.6565126.1502194-.5231118.3648154-.9828093.6437942-1.3791062.2789789-.3962968.6158945-.7106876 1.0107569-.9431818.3948624-.2324941.8412219-.3487395 1.3390919-.3487395.5236219 0 .993587.1347389 1.4099093.4042208.4163224.2694819.7618218.6261437 1.0365087 1.0699962s.4742611.9537468.5987286 1.5296982c.1244675.5759515.1566569 1.1703878.0965691 1.783327zm10.8543702-.1426662c0 .4332846.0600868.8031561.1802623 1.1096257.1201756.3064696.2875604.5574538.5021595.7529603.2145991.1955064.4613845.3381712.7403633.4279985.2789789.0898272.5815592.1347402.9077498.1347402.3519426 0 .6523769-.0501968.9013119-.150592s.4506552-.2298503.6051666-.388369c.1545113-.1585188.2661012-.3408126.3347729-.546887.0686718-.2060743.1030071-.4147875.1030071-.6261459 0-.4332845-.0794005-.7529592-.2382038-.9590336-.1588034-.2060744-.3326261-.351381-.5214733-.4359244-.3261907-.1479508-.7060255-.2879736-1.1395158-.4200725-.4334902-.132099-.9678341-.3038251-1.6030475-.5151834-.3948624-.126815-.7231942-.2932572-.9850051-.4993315-.261811-.2060744-.469969-.4359231-.6244804-.6895531s-.2639553-.5231078-.328335-.8084416c-.0643798-.2853337-.0965692-.5759471-.0965692-.8718487 0-.5706675.0965682-1.0647102.2897074-1.4821429.1931393-.4174327.4485084-.7635267.7661151-1.0382926.3176067-.2747658.6781279-.4781951 1.0815743-.6102941.4034463-.1320989.8111786-.1981474 1.2232089-.1981474.4807021 0 .9334995.0766162 1.3584058.229851s.7983032.3830835 1.1202019.6895531.5772678.6842669.7661151 1.1334034c.1888472.4491364.2832694.9695985.2832694 1.5614018h-1.6094855c-.0429198-.7291862-.24464-1.2443644-.6051665-1.54555-.3605266-.3011857-.8197618-.4517762-1.3777196-.4517762-.1888472 0-.3819836.0237774-.5794148.0713331-.1974312.0475556-.3776917.1268138-.5407871.2377769-.1630953.1109631-.2982908.2615537-.4055903.4517762-.1072996.1902225-.1609486.427997-.1609486.7133307 0 .4015809.1008601.7159717.3025833.9431819s.4656762.3989362.7918669.5151833c.0343358.0105679.1695312.0554809.4055903.1347403.2360591.0792593.500012.1664433.7918669.2615546.2918548.0951112.5772674.1875791.8562462.2774064.2789789.0898273.4785531.1558758.5987286.1981475.3004388.116247.5622459.2747634.785429.4755538s.4098815.4306392.5601009.6895531c.1502194.258914.2618093.5363176.334773.8322193.0729637.2959016.109445.5917988.109445.8877005 0 .634075-.105152 1.1756726-.3154592 1.624809-.2103071.4491364-.4871358.816366-.8304945 1.1016998-.3433586.2853337-.7339232.4940469-1.1717054.6261459-.4377822.1320989-.8841418.1981474-1.3390919.1981474-.5236219 0-1.0171925-.0792582-1.4807267-.2377769-.4635341-.1585187-.8669744-.4015772-1.2103331-.7291826-.3433586-.3276054-.6180414-.7476738-.8240565-1.2602177-.2060152-.5125439-.3133132-1.1175481-.3218971-1.8150306zm11.6526748-1.0462185c-.017168-.2853337-.066525-.5600954-.148073-.8242933-.081547-.2641979-.193137-.4940466-.334773-.6895531-.141635-.1955065-.313312-.3540228-.515035-.4755539-.201723-.121531-.427049-.1822956-.675984-.1822956-.257519 0-.491428.0554807-.701735.1664438-.2103076.1109632-.3905682.2641957-.5407876.4597021-.1502194.1955065-.2703931.4253552-.3605248.6895531-.0901316.2641979-.1394887.5495274-.1480726.8559969zm-3.424985 1.1888847c0 .3170375.0364813.6235025.109445.9194041.0729637.2959017.1824076.5548117.328335.776738.1459274.2219262.3304799.3989362.553663.5310351.223183.132099.489282.1981475.798305.1981475.429198 0 .774698-.1136034 1.036508-.3408136.261811-.2272102.457094-.5680204.585853-1.0224408h1.390596c-.077256.4438525-.210305.8401434-.399153 1.1888846-.188847.3487413-.416319.6419965-.682422.8797747-.266103.2377781-.564391.41743-.894874.538961-.330482.121531-.675982.1822956-1.036508.1822956-.523622 0-.9871492-.1056775-1.3905956-.3170359-.4034464-.2113583-.7446539-.5072555-1.0236328-.8877005s-.4892829-.8348586-.6309183-1.3632544-.2124521-1.1096225-.2124521-1.7436975c0-.5812354.0751086-1.1334007.225328-1.6565126.1502194-.5231118.3648153-.9828093.6437942-1.3791062.2789789-.3962968.6158944-.7106876 1.0107569-.9431818.3948624-.2324941.8412217-.3487395 1.3390917-.3487395.523622 0 .993587.1347389 1.409909.4042208.416323.2694819.761822.6261437 1.036509 1.0699962s.474261.9537468.598729 1.5296982c.124467.5759515.156657 1.1703878.096569 1.783327zm6.013038-4.565317h1.377719v1.5851795h.025752c.04292-.2219263.126612-.4385653.25108-.6499236.124467-.2113583.274684-.4042199.450656-.5785905.175971-.1743707.371253-.3143935.585852-.4200726.2146-.1056792.433487-.158518.656671-.158518.171679 0 .289707.0052839.354086.0158518.06438.0105679.130905.0211357.199577.0317036v1.7436975c-.103008-.0211358-.20816-.0396294-.31546-.0554813-.107299-.0158519-.212451-.0237777-.315459-.0237777-.248935 0-.482844.0607646-.701735.1822957-.218892.121531-.409882.3011829-.572977.538961-.163096.2377781-.291853.5310334-.386277.8797746-.094423.3487413-.141634.7503161-.141634 1.2047365v3.8995416h-1.467851zm3.875641 0h1.596609l1.686741 6.2931627h.025752l1.622361-6.2931627h1.519355l-2.382039 8.1953781h-1.648113zm7.377881-3.1228037h1.467851v1.7119939h-1.467851zm0 3.1228037h1.467851v8.1953781h-1.467851zm7.558144 2.7423605c-.060088-.5072599-.225326-.8903412-.495721-1.1492551-.270395-.258914-.611603-.388369-1.023633-.388369-.188847 0-.390568.0396291-.605167.1188885-.214599.0792593-.412027.2272079-.59229.4438502-.180264.2166423-.330481.5178234-.450656.9035524-.120176.3857289-.180263.8903393-.180263 1.5138464 0 .3381733.03219.6763416.096569 1.0145149.06438.3381733.167386.6393544.309022.9035523.141635.2641979.324042.478195.547225.6419977s.493574.2457029.81118.2457029c.429199 0 .783282-.1638003 1.062261-.4914057s.452801-.7873029.521473-1.3791062h1.467851c-.137344 1.0673596-.465675 1.8837189-.985005 2.4491024s-1.208183.848071-2.06658.848071c-.523621 0-.985003-.1083195-1.384157-.3249618-.399155-.2166422-.73607-.5125395-1.010757-.8877005s-.482845-.8216488-.62448-1.3394767c-.141636-.5178279-.212452-1.0779191-.212452-1.6802903 0-.6129391.06867-1.1888819.206014-1.7278457.137343-.5389637.343355-1.006587.618042-1.4028839.274687-.3962968.615895-.7080457 1.023633-.9352559s.886287-.3408136 1.435661-.3408136c.386278 0 .753237.0607646 1.100888.1822957.347651.121531.656669.3038248.927064.5468869s.491428.5495271.663108.9194041c.171679.3698771.274685.8084391.309021 1.315699zm7.236247.6340718c-.017168-.2853337-.066525-.5600954-.148073-.8242933-.081547-.2641979-.193137-.4940466-.334773-.6895531-.141635-.1955065-.313312-.3540228-.515035-.4755539-.201723-.121531-.427049-.1822956-.675984-.1822956-.257519 0-.491429.0554807-.701736.1664438-.210307.1109632-.390567.2641957-.540787.4597021-.150219.1955065-.270393.4253552-.360525.6895531-.090131.2641979-.139488.5495274-.148072.8559969zm-3.424985 1.1888847c0 .3170375.036481.6235025.109445.9194041.072963.2959017.182407.5548117.328335.776738.145927.2219262.33048.3989362.553663.5310351.223183.132099.489282.1981475.798305.1981475.429198 0 .774697-.1136034 1.036508-.3408136s.457094-.5680204.585853-1.0224408h1.390595c-.077255.4438525-.210305.8401434-.399152 1.1888846-.188847.3487413-.416319.6419965-.682422.8797747-.266103.2377781-.564391.41743-.894874.538961-.330482.121531-.675982.1822956-1.036508.1822956-.523622 0-.987149-.1056775-1.390596-.3170359-.403446-.2113583-.744654-.5072555-1.023633-.8877005-.278978-.380445-.489282-.8348586-.630918-1.3632544-.141635-.5283958-.212452-1.1096225-.212452-1.7436975 0-.5812354.075109-1.1334007.225328-1.6565126.150219-.5231118.364815-.9828093.643794-1.3791062.278979-.3962968.615895-.7106876 1.010757-.9431818.394862-.2324941.841222-.3487395 1.339092-.3487395.523622 0 .993587.1347389 1.409909.4042208.416323.2694819.761822.6261437 1.036509 1.0699962s.474261.9537468.598729 1.5296982c.124467.5759515.156656 1.1703878.096569 1.783327z" fill="#4a4a4a"/><g transform="translate(15 55)"><path d="m10 1.5c-4.69442037 0-8.5 3.80557963-8.5 8.5v63c0 4.6944204 3.80557963 8.5 8.5 8.5h166c4.69442 0 8.5-3.8055796 8.5-8.5v-63c0-4.69442037-3.80558-8.5-8.5-8.5z" fill="#fff" stroke="#3662a2" stroke-width="3"/><path d="m54.1826087 35.8409091h1.6996167l4.1975381 8.3380443h.0257518v-8.3380443h1.5322302v11.3181818h-1.6996167l-4.1846623-8.3221925h-.0386276v8.3221925h-1.5322302zm12.2063379 11.5401069c-.5322058 0-1.0064628-.1083195-1.4227851-.3249618-.4163224-.2166422-.7682597-.5151814-1.0558225-.8956264-.2875629-.380445-.5064507-.8348586-.6566701-1.3632544s-.225328-1.1096225-.225328-1.7436975c0-.623507.0751086-1.1994498.225328-1.7278456.1502194-.5283959.3691072-.9828095.6566701-1.3632544.2875628-.380445.6395001-.6789842 1.0558225-.8956265.4163223-.2166423.8905793-.3249618 1.4227851-.3249618.5322059 0 1.0064629.1083195 1.4227852.3249618s.7682596.5151815 1.0558225.8956265c.2875628.3804449.5064507.8348585.6566701 1.3632544.1502194.5283958.2253279 1.1043386.2253279 1.7278456 0 .634075-.0751085 1.2153017-.2253279 1.7436975s-.3691073.9828094-.6566701 1.3632544c-.2875629.380445-.6395002.6789842-1.0558225.8956264-.4163223.2166423-.8905793.3249618-1.4227852.3249618zm0-1.4266615c.3261907 0 .6094573-.0845421.8498084-.2536288.240351-.1690866.4377793-.3910095.5922906-.6657754.1545114-.2747658.2682472-.5838727.341211-.92733.0729637-.3434573.109445-.6948352.109445-1.0541444 0-.3487412-.0364813-.6974772-.109445-1.0462185-.0729638-.3487412-.1866996-.6578481-.341211-.92733-.1545113-.2694818-.3519396-.4887628-.5922906-.6578495-.2403511-.1690866-.5236177-.2536287-.8498084-.2536287s-.6094573.0845421-.8498083.2536287c-.240351.1690867-.4377793.3883677-.5922907.6578495-.1545113.2694819-.2682472.5785888-.3412109.92733-.0729637.3487413-.109445.6974773-.109445 1.0462185 0 .3593092.0364813.7106871.109445 1.0541444s.1866996.6525642.3412109.92733c.1545114.2747659.3519397.4966888.5922907.6657754.240351.1690867.5236176.2536288.8498083.2536288zm10.8543702 1.2047364h-1.3905955v-1.1096257h-.0257518c-.1974312.4755563-.4849897.8163665-.8626842 1.0224408-.3776945.2060744-.7768429.30911-1.1974572.30911-.5236219 0-.9807112-.1136034-1.3712816-.3408136-.3905705-.2272102-.7146103-.5363171-.9721293-.92733-.2575189-.3910129-.4506553-.8533523-.5794147-1.3870321-.1287595-.5336797-.1931383-1.1069806-.1931383-1.7199197 0-.7397542.0815465-1.3791035.2446418-1.9180673.1630953-.5389637.3798372-.9828095.6502321-1.3315508.2703949-.3487412.5794131-.6050093.9270637-.768812.3476506-.1638028.7017338-.2457029 1.0622604-.2457029.2060152 0 .4163192.0237775.6309183.0713331s.4206112.1241719.6180424.229851c.1974312.1056792.3798378.2404181.5472251.4042208s.3068747.3566643.4184662.5785905h.0257518v-4.1848739h1.4678508zm-5.1246018-4.0105042c0 .3487412.0364813.6921934.109445 1.0303667s.1845536.6393544.334773.9035523.3412097.4755531.5729768.6340718c.2317671.1585188.5064498.237777.8240566.237777.3261907 0 .6073113-.0845421.8433704-.2536288.236059-.1690866.4291953-.3910095.5794147-.6657754.1502194-.2747658.2618093-.5838727.334773-.92733s.109445-.6948352.109445-1.0541444c0-.9088408-.1652388-1.6168805-.4957215-2.1241405s-.7789881-.7608862-1.3455299-.7608862c-.3433586 0-.6330631.087184-.8691221.2615546-.2360591.1743706-.4291954.4015774-.5794148.6816272s-.2575174.5970825-.3218971.9511077-.0965691.7159709-.0965691 1.085848zm11.2921502-.8084416c-.017168-.2853337-.066525-.5600954-.1480727-.8242933s-.1931376-.4940466-.334773-.6895531-.3133122-.3540228-.5150354-.4755539c-.2017231-.121531-.4270489-.1822956-.6759839-.1822956-.2575189 0-.4914285.0554807-.7017356.1664438-.2103072.1109632-.3905678.2641957-.5407872.4597021-.1502193.1955065-.2703931.4253552-.3605247.6895531s-.1394887.5495274-.1480727.8559969zm-3.4249852 1.1888847c0 .3170375.0364813.6235025.109445.9194041.0729638.2959017.1824077.5548117.3283351.776738.1459274.2219262.3304799.3989362.553663.5310351.2231831.132099.489282.1981475.7983048.1981475.4291983 0 .7746977-.1136034 1.0365086-.3408136.261811-.2272102.4570933-.5680204.5858528-1.0224408h1.3905954c-.0772557.4438525-.2103051.8401434-.3991524 1.1888846-.1888472.3487413-.4163189.6419965-.6824218.8797747-.266103.2377781-.5643913.41743-.894874.538961-.3304826.121531-.6759821.1822956-1.0365086.1822956-.5236219 0-.9871491-.1056775-1.3905955-.3170359-.4034463-.2113583-.7446539-.5072555-1.0236327-.8877005-.2789789-.380445-.4892829-.8348586-.6309183-1.3632544-.1416355-.5283958-.2124521-1.1096225-.2124521-1.7436975 0-.5812354.0751085-1.1334007.2253279-1.6565126.1502194-.5231118.3648154-.9828093.6437942-1.3791062.2789789-.3962968.6158945-.7106876 1.0107569-.9431818.3948624-.2324941.8412219-.3487395 1.3390919-.3487395.5236219 0 .993587.1347389 1.4099093.4042208.4163224.2694819.7618218.6261437 1.0365087 1.0699962s.4742611.9537468.5987286 1.5296982c.1244675.5759515.1566569 1.1703878.0965691 1.783327zm10.8543702-.1426662c0 .4332846.0600868.8031561.1802623 1.1096257.1201756.3064696.2875604.5574538.5021595.7529603.2145991.1955064.4613845.3381712.7403633.4279985.2789789.0898272.5815592.1347402.9077498.1347402.3519426 0 .6523769-.0501968.9013119-.150592s.4506552-.2298503.6051666-.388369c.1545113-.1585188.2661012-.3408126.3347729-.546887.0686718-.2060743.1030071-.4147875.1030071-.6261459 0-.4332845-.0794005-.7529592-.2382038-.9590336-.1588034-.2060744-.3326261-.351381-.5214733-.4359244-.3261907-.1479508-.7060255-.2879736-1.1395158-.4200725-.4334902-.132099-.9678341-.3038251-1.6030475-.5151834-.3948624-.126815-.7231942-.2932572-.9850051-.4993315-.261811-.2060744-.469969-.4359231-.6244804-.6895531s-.2639553-.5231078-.328335-.8084416c-.0643798-.2853337-.0965692-.5759471-.0965692-.8718487 0-.5706675.0965682-1.0647102.2897074-1.4821429.1931393-.4174327.4485084-.7635267.7661151-1.0382926.3176067-.2747658.6781279-.4781951 1.0815743-.6102941.4034463-.1320989.8111786-.1981474 1.2232089-.1981474.4807021 0 .9334995.0766162 1.3584058.229851s.7983032.3830835 1.1202019.6895531.5772678.6842669.7661151 1.1334034c.1888472.4491364.2832694.9695985.2832694 1.5614018h-1.6094855c-.0429198-.7291862-.24464-1.2443644-.6051665-1.54555-.3605266-.3011857-.8197618-.4517762-1.3777196-.4517762-.1888472 0-.3819836.0237774-.5794148.0713331-.1974312.0475556-.3776917.1268138-.5407871.2377769-.1630953.1109631-.2982908.2615537-.4055903.4517762-.1072996.1902225-.1609486.427997-.1609486.7133307 0 .4015809.1008601.7159717.3025833.9431819s.4656762.3989362.7918669.5151833c.0343358.0105679.1695312.0554809.4055903.1347403.2360591.0792593.500012.1664433.7918669.2615546.2918548.0951112.5772674.1875791.8562462.2774064.2789789.0898273.4785531.1558758.5987286.1981475.3004388.116247.5622459.2747634.785429.4755538s.4098815.4306392.5601009.6895531c.1502194.258914.2618093.5363176.334773.8322193.0729637.2959016.109445.5917988.109445.8877005 0 .634075-.105152 1.1756726-.3154592 1.624809-.2103071.4491364-.4871358.816366-.8304945 1.1016998-.3433586.2853337-.7339232.4940469-1.1717054.6261459-.4377822.1320989-.8841418.1981474-1.3390919.1981474-.5236219 0-1.0171925-.0792582-1.4807267-.2377769-.4635341-.1585187-.8669744-.4015772-1.2103331-.7291826-.3433586-.3276054-.6180414-.7476738-.8240565-1.2602177-.2060152-.5125439-.3133132-1.1175481-.3218971-1.8150306zm11.6526748-1.0462185c-.017168-.2853337-.066525-.5600954-.148073-.8242933-.081547-.2641979-.193137-.4940466-.334773-.6895531-.141635-.1955065-.313312-.3540228-.515035-.4755539-.201723-.121531-.427049-.1822956-.675984-.1822956-.257519 0-.491428.0554807-.701735.1664438-.2103076.1109632-.3905682.2641957-.5407876.4597021-.1502194.1955065-.2703931.4253552-.3605248.6895531-.0901316.2641979-.1394887.5495274-.1480726.8559969zm-3.424985 1.1888847c0 .3170375.0364813.6235025.109445.9194041.0729637.2959017.1824076.5548117.328335.776738.1459274.2219262.3304799.3989362.553663.5310351.223183.132099.489282.1981475.798305.1981475.429198 0 .774698-.1136034 1.036508-.3408136.261811-.2272102.457094-.5680204.585853-1.0224408h1.390596c-.077256.4438525-.210305.8401434-.399153 1.1888846-.188847.3487413-.416319.6419965-.682422.8797747-.266103.2377781-.564391.41743-.894874.538961-.330482.121531-.675982.1822956-1.036508.1822956-.523622 0-.9871492-.1056775-1.3905956-.3170359-.4034464-.2113583-.7446539-.5072555-1.0236328-.8877005s-.4892829-.8348586-.6309183-1.3632544-.2124521-1.1096225-.2124521-1.7436975c0-.5812354.0751086-1.1334007.225328-1.6565126.1502194-.5231118.3648153-.9828093.6437942-1.3791062.2789789-.3962968.6158944-.7106876 1.0107569-.9431818.3948624-.2324941.8412217-.3487395 1.3390917-.3487395.523622 0 .993587.1347389 1.409909.4042208.416323.2694819.761822.6261437 1.036509 1.0699962s.474261.9537468.598729 1.5296982c.124467.5759515.156657 1.1703878.096569 1.783327zm6.013038-4.565317h1.377719v1.5851795h.025752c.04292-.2219263.126612-.4385653.25108-.6499236.124467-.2113583.274684-.4042199.450656-.5785905.175971-.1743707.371253-.3143935.585852-.4200726.2146-.1056792.433487-.158518.656671-.158518.171679 0 .289707.0052839.354086.0158518.06438.0105679.130905.0211357.199577.0317036v1.7436975c-.103008-.0211358-.20816-.0396294-.31546-.0554813-.107299-.0158519-.212451-.0237777-.315459-.0237777-.248935 0-.482844.0607646-.701735.1822957-.218892.121531-.409882.3011829-.572977.538961-.163096.2377781-.291853.5310334-.386277.8797746-.094423.3487413-.141634.7503161-.141634 1.2047365v3.8995416h-1.467851zm3.875641 0h1.596609l1.686741 6.2931627h.025752l1.622361-6.2931627h1.519355l-2.382039 8.1953781h-1.648113zm7.377881-3.1228037h1.467851v1.7119939h-1.467851zm0 3.1228037h1.467851v8.1953781h-1.467851zm7.558144 2.7423605c-.060088-.5072599-.225326-.8903412-.495721-1.1492551-.270395-.258914-.611603-.388369-1.023633-.388369-.188847 0-.390568.0396291-.605167.1188885-.214599.0792593-.412027.2272079-.59229.4438502-.180264.2166423-.330481.5178234-.450656.9035524-.120176.3857289-.180263.8903393-.180263 1.5138464 0 .3381733.03219.6763416.096569 1.0145149.06438.3381733.167386.6393544.309022.9035523.141635.2641979.324042.478195.547225.6419977s.493574.2457029.81118.2457029c.429199 0 .783282-.1638003 1.062261-.4914057s.452801-.7873029.521473-1.3791062h1.467851c-.137344 1.0673596-.465675 1.8837189-.985005 2.4491024s-1.208183.848071-2.06658.848071c-.523621 0-.985003-.1083195-1.384157-.3249618-.399155-.2166422-.73607-.5125395-1.010757-.8877005s-.482845-.8216488-.62448-1.3394767c-.141636-.5178279-.212452-1.0779191-.212452-1.6802903 0-.6129391.06867-1.1888819.206014-1.7278457.137343-.5389637.343355-1.006587.618042-1.4028839.274687-.3962968.615895-.7080457 1.023633-.9352559s.886287-.3408136 1.435661-.3408136c.386278 0 .753237.0607646 1.100888.1822957.347651.121531.656669.3038248.927064.5468869s.491428.5495271.663108.9194041c.171679.3698771.274685.8084391.309021 1.315699zm7.236247.6340718c-.017168-.2853337-.066525-.5600954-.148073-.8242933-.081547-.2641979-.193137-.4940466-.334773-.6895531-.141635-.1955065-.313312-.3540228-.515035-.4755539-.201723-.121531-.427049-.1822956-.675984-.1822956-.257519 0-.491429.0554807-.701736.1664438-.210307.1109632-.390567.2641957-.540787.4597021-.150219.1955065-.270393.4253552-.360525.6895531-.090131.2641979-.139488.5495274-.148072.8559969zm-3.424985 1.1888847c0 .3170375.036481.6235025.109445.9194041.072963.2959017.182407.5548117.328335.776738.145927.2219262.33048.3989362.553663.5310351.223183.132099.489282.1981475.798305.1981475.429198 0 .774697-.1136034 1.036508-.3408136s.457094-.5680204.585853-1.0224408h1.390595c-.077255.4438525-.210305.8401434-.399152 1.1888846-.188847.3487413-.416319.6419965-.682422.8797747-.266103.2377781-.564391.41743-.894874.538961-.330482.121531-.675982.1822956-1.036508.1822956-.523622 0-.987149-.1056775-1.390596-.3170359-.403446-.2113583-.744654-.5072555-1.023633-.8877005-.278978-.380445-.489282-.8348586-.630918-1.3632544-.141635-.5283958-.212452-1.1096225-.212452-1.7436975 0-.5812354.075109-1.1334007.225328-1.6565126.150219-.5231118.364815-.9828093.643794-1.3791062.278979-.3962968.615895-.7106876 1.010757-.9431818.394862-.2324941.841222-.3487395 1.339092-.3487395.523622 0 .993587.1347389 1.409909.4042208.416323.2694819.761822.6261437 1.036509 1.0699962s.474261.9537468.598729 1.5296982c.124467.5759515.156656 1.1703878.096569 1.783327z" fill="#4a4a4a"/></g><g transform="translate(32 106)"><path d="m10 1.5c-4.69442037 0-8.5 3.80557963-8.5 8.5v63c0 4.6944204 3.80557963 8.5 8.5 8.5h166c4.69442 0 8.5-3.8055796 8.5-8.5v-63c0-4.69442037-3.80558-8.5-8.5-8.5z" fill="#fff" stroke="#3662a2" stroke-width="3"/><path d="m54.1826087 35.8409091h1.6996167l4.1975381 8.3380443h.0257518v-8.3380443h1.5322302v11.3181818h-1.6996167l-4.1846623-8.3221925h-.0386276v8.3221925h-1.5322302zm12.2063379 11.5401069c-.5322058 0-1.0064628-.1083195-1.4227851-.3249618-.4163224-.2166422-.7682597-.5151814-1.0558225-.8956264-.2875629-.380445-.5064507-.8348586-.6566701-1.3632544s-.225328-1.1096225-.225328-1.7436975c0-.623507.0751086-1.1994498.225328-1.7278456.1502194-.5283959.3691072-.9828095.6566701-1.3632544.2875628-.380445.6395001-.6789842 1.0558225-.8956265.4163223-.2166423.8905793-.3249618 1.4227851-.3249618.5322059 0 1.0064629.1083195 1.4227852.3249618s.7682596.5151815 1.0558225.8956265c.2875628.3804449.5064507.8348585.6566701 1.3632544.1502194.5283958.2253279 1.1043386.2253279 1.7278456 0 .634075-.0751085 1.2153017-.2253279 1.7436975s-.3691073.9828094-.6566701 1.3632544c-.2875629.380445-.6395002.6789842-1.0558225.8956264-.4163223.2166423-.8905793.3249618-1.4227852.3249618zm0-1.4266615c.3261907 0 .6094573-.0845421.8498084-.2536288.240351-.1690866.4377793-.3910095.5922906-.6657754.1545114-.2747658.2682472-.5838727.341211-.92733.0729637-.3434573.109445-.6948352.109445-1.0541444 0-.3487412-.0364813-.6974772-.109445-1.0462185-.0729638-.3487412-.1866996-.6578481-.341211-.92733-.1545113-.2694818-.3519396-.4887628-.5922906-.6578495-.2403511-.1690866-.5236177-.2536287-.8498084-.2536287s-.6094573.0845421-.8498083.2536287c-.240351.1690867-.4377793.3883677-.5922907.6578495-.1545113.2694819-.2682472.5785888-.3412109.92733-.0729637.3487413-.109445.6974773-.109445 1.0462185 0 .3593092.0364813.7106871.109445 1.0541444s.1866996.6525642.3412109.92733c.1545114.2747659.3519397.4966888.5922907.6657754.240351.1690867.5236176.2536288.8498083.2536288zm10.8543702 1.2047364h-1.3905955v-1.1096257h-.0257518c-.1974312.4755563-.4849897.8163665-.8626842 1.0224408-.3776945.2060744-.7768429.30911-1.1974572.30911-.5236219 0-.9807112-.1136034-1.3712816-.3408136-.3905705-.2272102-.7146103-.5363171-.9721293-.92733-.2575189-.3910129-.4506553-.8533523-.5794147-1.3870321-.1287595-.5336797-.1931383-1.1069806-.1931383-1.7199197 0-.7397542.0815465-1.3791035.2446418-1.9180673.1630953-.5389637.3798372-.9828095.6502321-1.3315508.2703949-.3487412.5794131-.6050093.9270637-.768812.3476506-.1638028.7017338-.2457029 1.0622604-.2457029.2060152 0 .4163192.0237775.6309183.0713331s.4206112.1241719.6180424.229851c.1974312.1056792.3798378.2404181.5472251.4042208s.3068747.3566643.4184662.5785905h.0257518v-4.1848739h1.4678508zm-5.1246018-4.0105042c0 .3487412.0364813.6921934.109445 1.0303667s.1845536.6393544.334773.9035523.3412097.4755531.5729768.6340718c.2317671.1585188.5064498.237777.8240566.237777.3261907 0 .6073113-.0845421.8433704-.2536288.236059-.1690866.4291953-.3910095.5794147-.6657754.1502194-.2747658.2618093-.5838727.334773-.92733s.109445-.6948352.109445-1.0541444c0-.9088408-.1652388-1.6168805-.4957215-2.1241405s-.7789881-.7608862-1.3455299-.7608862c-.3433586 0-.6330631.087184-.8691221.2615546-.2360591.1743706-.4291954.4015774-.5794148.6816272s-.2575174.5970825-.3218971.9511077-.0965691.7159709-.0965691 1.085848zm11.2921502-.8084416c-.017168-.2853337-.066525-.5600954-.1480727-.8242933s-.1931376-.4940466-.334773-.6895531-.3133122-.3540228-.5150354-.4755539c-.2017231-.121531-.4270489-.1822956-.6759839-.1822956-.2575189 0-.4914285.0554807-.7017356.1664438-.2103072.1109632-.3905678.2641957-.5407872.4597021-.1502193.1955065-.2703931.4253552-.3605247.6895531s-.1394887.5495274-.1480727.8559969zm-3.4249852 1.1888847c0 .3170375.0364813.6235025.109445.9194041.0729638.2959017.1824077.5548117.3283351.776738.1459274.2219262.3304799.3989362.553663.5310351.2231831.132099.489282.1981475.7983048.1981475.4291983 0 .7746977-.1136034 1.0365086-.3408136.261811-.2272102.4570933-.5680204.5858528-1.0224408h1.3905954c-.0772557.4438525-.2103051.8401434-.3991524 1.1888846-.1888472.3487413-.4163189.6419965-.6824218.8797747-.266103.2377781-.5643913.41743-.894874.538961-.3304826.121531-.6759821.1822956-1.0365086.1822956-.5236219 0-.9871491-.1056775-1.3905955-.3170359-.4034463-.2113583-.7446539-.5072555-1.0236327-.8877005-.2789789-.380445-.4892829-.8348586-.6309183-1.3632544-.1416355-.5283958-.2124521-1.1096225-.2124521-1.7436975 0-.5812354.0751085-1.1334007.2253279-1.6565126.1502194-.5231118.3648154-.9828093.6437942-1.3791062.2789789-.3962968.6158945-.7106876 1.0107569-.9431818.3948624-.2324941.8412219-.3487395 1.3390919-.3487395.5236219 0 .993587.1347389 1.4099093.4042208.4163224.2694819.7618218.6261437 1.0365087 1.0699962s.4742611.9537468.5987286 1.5296982c.1244675.5759515.1566569 1.1703878.0965691 1.783327zm10.8543702-.1426662c0 .4332846.0600868.8031561.1802623 1.1096257.1201756.3064696.2875604.5574538.5021595.7529603.2145991.1955064.4613845.3381712.7403633.4279985.2789789.0898272.5815592.1347402.9077498.1347402.3519426 0 .6523769-.0501968.9013119-.150592s.4506552-.2298503.6051666-.388369c.1545113-.1585188.2661012-.3408126.3347729-.546887.0686718-.2060743.1030071-.4147875.1030071-.6261459 0-.4332845-.0794005-.7529592-.2382038-.9590336-.1588034-.2060744-.3326261-.351381-.5214733-.4359244-.3261907-.1479508-.7060255-.2879736-1.1395158-.4200725-.4334902-.132099-.9678341-.3038251-1.6030475-.5151834-.3948624-.126815-.7231942-.2932572-.9850051-.4993315-.261811-.2060744-.469969-.4359231-.6244804-.6895531s-.2639553-.5231078-.328335-.8084416c-.0643798-.2853337-.0965692-.5759471-.0965692-.8718487 0-.5706675.0965682-1.0647102.2897074-1.4821429.1931393-.4174327.4485084-.7635267.7661151-1.0382926.3176067-.2747658.6781279-.4781951 1.0815743-.6102941.4034463-.1320989.8111786-.1981474 1.2232089-.1981474.4807021 0 .9334995.0766162 1.3584058.229851s.7983032.3830835 1.1202019.6895531.5772678.6842669.7661151 1.1334034c.1888472.4491364.2832694.9695985.2832694 1.5614018h-1.6094855c-.0429198-.7291862-.24464-1.2443644-.6051665-1.54555-.3605266-.3011857-.8197618-.4517762-1.3777196-.4517762-.1888472 0-.3819836.0237774-.5794148.0713331-.1974312.0475556-.3776917.1268138-.5407871.2377769-.1630953.1109631-.2982908.2615537-.4055903.4517762-.1072996.1902225-.1609486.427997-.1609486.7133307 0 .4015809.1008601.7159717.3025833.9431819s.4656762.3989362.7918669.5151833c.0343358.0105679.1695312.0554809.4055903.1347403.2360591.0792593.500012.1664433.7918669.2615546.2918548.0951112.5772674.1875791.8562462.2774064.2789789.0898273.4785531.1558758.5987286.1981475.3004388.116247.5622459.2747634.785429.4755538s.4098815.4306392.5601009.6895531c.1502194.258914.2618093.5363176.334773.8322193.0729637.2959016.109445.5917988.109445.8877005 0 .634075-.105152 1.1756726-.3154592 1.624809-.2103071.4491364-.4871358.816366-.8304945 1.1016998-.3433586.2853337-.7339232.4940469-1.1717054.6261459-.4377822.1320989-.8841418.1981474-1.3390919.1981474-.5236219 0-1.0171925-.0792582-1.4807267-.2377769-.4635341-.1585187-.8669744-.4015772-1.2103331-.7291826-.3433586-.3276054-.6180414-.7476738-.8240565-1.2602177-.2060152-.5125439-.3133132-1.1175481-.3218971-1.8150306zm11.6526748-1.0462185c-.017168-.2853337-.066525-.5600954-.148073-.8242933-.081547-.2641979-.193137-.4940466-.334773-.6895531-.141635-.1955065-.313312-.3540228-.515035-.4755539-.201723-.121531-.427049-.1822956-.675984-.1822956-.257519 0-.491428.0554807-.701735.1664438-.2103076.1109632-.3905682.2641957-.5407876.4597021-.1502194.1955065-.2703931.4253552-.3605248.6895531-.0901316.2641979-.1394887.5495274-.1480726.8559969zm-3.424985 1.1888847c0 .3170375.0364813.6235025.109445.9194041.0729637.2959017.1824076.5548117.328335.776738.1459274.2219262.3304799.3989362.553663.5310351.223183.132099.489282.1981475.798305.1981475.429198 0 .774698-.1136034 1.036508-.3408136.261811-.2272102.457094-.5680204.585853-1.0224408h1.390596c-.077256.4438525-.210305.8401434-.399153 1.1888846-.188847.3487413-.416319.6419965-.682422.8797747-.266103.2377781-.564391.41743-.894874.538961-.330482.121531-.675982.1822956-1.036508.1822956-.523622 0-.9871492-.1056775-1.3905956-.3170359-.4034464-.2113583-.7446539-.5072555-1.0236328-.8877005s-.4892829-.8348586-.6309183-1.3632544-.2124521-1.1096225-.2124521-1.7436975c0-.5812354.0751086-1.1334007.225328-1.6565126.1502194-.5231118.3648153-.9828093.6437942-1.3791062.2789789-.3962968.6158944-.7106876 1.0107569-.9431818.3948624-.2324941.8412217-.3487395 1.3390917-.3487395.523622 0 .993587.1347389 1.409909.4042208.416323.2694819.761822.6261437 1.036509 1.0699962s.474261.9537468.598729 1.5296982c.124467.5759515.156657 1.1703878.096569 1.783327zm6.013038-4.565317h1.377719v1.5851795h.025752c.04292-.2219263.126612-.4385653.25108-.6499236.124467-.2113583.274684-.4042199.450656-.5785905.175971-.1743707.371253-.3143935.585852-.4200726.2146-.1056792.433487-.158518.656671-.158518.171679 0 .289707.0052839.354086.0158518.06438.0105679.130905.0211357.199577.0317036v1.7436975c-.103008-.0211358-.20816-.0396294-.31546-.0554813-.107299-.0158519-.212451-.0237777-.315459-.0237777-.248935 0-.482844.0607646-.701735.1822957-.218892.121531-.409882.3011829-.572977.538961-.163096.2377781-.291853.5310334-.386277.8797746-.094423.3487413-.141634.7503161-.141634 1.2047365v3.8995416h-1.467851zm3.875641 0h1.596609l1.686741 6.2931627h.025752l1.622361-6.2931627h1.519355l-2.382039 8.1953781h-1.648113zm7.377881-3.1228037h1.467851v1.7119939h-1.467851zm0 3.1228037h1.467851v8.1953781h-1.467851zm7.558144 2.7423605c-.060088-.5072599-.225326-.8903412-.495721-1.1492551-.270395-.258914-.611603-.388369-1.023633-.388369-.188847 0-.390568.0396291-.605167.1188885-.214599.0792593-.412027.2272079-.59229.4438502-.180264.2166423-.330481.5178234-.450656.9035524-.120176.3857289-.180263.8903393-.180263 1.5138464 0 .3381733.03219.6763416.096569 1.0145149.06438.3381733.167386.6393544.309022.9035523.141635.2641979.324042.478195.547225.6419977s.493574.2457029.81118.2457029c.429199 0 .783282-.1638003 1.062261-.4914057s.452801-.7873029.521473-1.3791062h1.467851c-.137344 1.0673596-.465675 1.8837189-.985005 2.4491024s-1.208183.848071-2.06658.848071c-.523621 0-.985003-.1083195-1.384157-.3249618-.399155-.2166422-.73607-.5125395-1.010757-.8877005s-.482845-.8216488-.62448-1.3394767c-.141636-.5178279-.212452-1.0779191-.212452-1.6802903 0-.6129391.06867-1.1888819.206014-1.7278457.137343-.5389637.343355-1.006587.618042-1.4028839.274687-.3962968.615895-.7080457 1.023633-.9352559s.886287-.3408136 1.435661-.3408136c.386278 0 .753237.0607646 1.100888.1822957.347651.121531.656669.3038248.927064.5468869s.491428.5495271.663108.9194041c.171679.3698771.274685.8084391.309021 1.315699zm7.236247.6340718c-.017168-.2853337-.066525-.5600954-.148073-.8242933-.081547-.2641979-.193137-.4940466-.334773-.6895531-.141635-.1955065-.313312-.3540228-.515035-.4755539-.201723-.121531-.427049-.1822956-.675984-.1822956-.257519 0-.491429.0554807-.701736.1664438-.210307.1109632-.390567.2641957-.540787.4597021-.150219.1955065-.270393.4253552-.360525.6895531-.090131.2641979-.139488.5495274-.148072.8559969zm-3.424985 1.1888847c0 .3170375.036481.6235025.109445.9194041.072963.2959017.182407.5548117.328335.776738.145927.2219262.33048.3989362.553663.5310351.223183.132099.489282.1981475.798305.1981475.429198 0 .774697-.1136034 1.036508-.3408136s.457094-.5680204.585853-1.0224408h1.390595c-.077255.4438525-.210305.8401434-.399152 1.1888846-.188847.3487413-.416319.6419965-.682422.8797747-.266103.2377781-.564391.41743-.894874.538961-.330482.121531-.675982.1822956-1.036508.1822956-.523622 0-.987149-.1056775-1.390596-.3170359-.403446-.2113583-.744654-.5072555-1.023633-.8877005-.278978-.380445-.489282-.8348586-.630918-1.3632544-.141635-.5283958-.212452-1.1096225-.212452-1.7436975 0-.5812354.075109-1.1334007.225328-1.6565126.150219-.5231118.364815-.9828093.643794-1.3791062.278979-.3962968.615895-.7106876 1.010757-.9431818.394862-.2324941.841222-.3487395 1.339092-.3487395.523622 0 .993587.1347389 1.409909.4042208.416323.2694819.761822.6261437 1.036509 1.0699962s.474261.9537468.598729 1.5296982c.124467.5759515.156656 1.1703878.096569 1.783327z" fill="#4a4a4a"/></g></g><g transform="translate(4 80.5)"><use fill="#000" filter="url(#c)" xlink:href="#b"/><use fill="#fff" fill-rule="evenodd" xlink:href="#b"/></g><g filter="url(#d)" transform="translate(17 102)"><path d="m10 1.5c-4.69442037 0-8.5 3.80557963-8.5 8.5v50c0 4.6944204 3.80557963 8.5 8.5 8.5h187c4.69442 0 8.5-3.8055796 8.5-8.5v-50c0-4.69442037-3.80558-8.5-8.5-8.5z" fill="#fff" stroke="#e1584e" stroke-width="3"/><path d="m52.785 28h9.57168v1.728h-3.75912v9.696h-2.07v-9.696h-3.74256zm14.72184 6.56c-.0220801-.2880014-.0855595-.565332-.19044-.832s-.2483991-.4986657-.43056-.696-.4029587-.3573327-.6624-.48-.5492384-.184-.8694-.184c-.3312017 0-.6320386.0559994-.90252.168s-.502319.2666657-.69552.464-.3477594.429332-.46368.696-.1793999.5546651-.19044.864zm-4.40496 1.2c0 .3200016.0469195.6293318.14076.928s.2345991.5599989.42228.784.4250386.402666.71208.536.629278.2 1.02672.2c.5520028 0 .9963583-.1146655 1.33308-.344s.5878792-.573331.75348-1.032h1.78848c-.0993605.4480022-.2704788.8479982-.51336 1.2s-.5354383.6479988-.87768.888-.7258779.4213327-1.15092.544-.8693977.184-1.33308.184c-.6734434 0-1.2695974-.1066656-1.78848-.32s-.9577182-.5119981-1.31652-.896-.6292791-.842664-.81144-1.376-.27324-1.1199968-.27324-1.76c0-.5866696.096599-1.1439974.2898-1.672s.4691982-.991998.828-1.392.7921175-.7173322 1.29996-.952 1.0819168-.352 1.72224-.352c.6734434 0 1.2778773.1359986 1.81332.408s.9797982.6319978 1.33308 1.08.6099592.9626638.77004 1.544.2014804 1.1813302.1242 1.8zm7.7832-7.76h1.88784v11.424h-1.88784zm9.82008 6.56c-.0220801-.2880014-.0855595-.565332-.19044-.832s-.2483991-.4986657-.43056-.696-.4029587-.3573327-.6624-.48-.5492384-.184-.8694-.184c-.3312017 0-.6320386.0559994-.90252.168s-.502319.2666657-.69552.464-.3477594.429332-.46368.696-.1793999.5546651-.19044.864zm-4.40496 1.2c0 .3200016.0469195.6293318.14076.928s.2345991.5599989.42228.784.4250386.402666.71208.536.629278.2 1.02672.2c.5520028 0 .9963583-.1146655 1.33308-.344s.5878792-.573331.75348-1.032h1.78848c-.0993605.4480022-.2704788.8479982-.51336 1.2s-.5354383.6479988-.87768.888-.7258779.4213327-1.15092.544-.8693977.184-1.33308.184c-.6734434 0-1.2695974-.1066656-1.78848-.32s-.9577182-.5119981-1.31652-.896-.6292791-.842664-.81144-1.376-.27324-1.1199968-.27324-1.76c0-.5866696.096599-1.1439974.2898-1.672s.4691982-.991998.828-1.392.7921175-.7173322 1.29996-.952 1.0819168-.352 1.72224-.352c.6734434 0 1.2778773.1359986 1.81332.408s.9797982.6319978 1.33308 1.08.6099592.9626638.77004 1.544.2014804 1.1813302.1242 1.8zm7.7832-4.608h1.78848v1.12h.03312c.2649613-.4800024.6347976-.823999 1.10952-1.032s.9880772-.312 1.54008-.312c.6734434 0 1.2613175.1146655 1.76364.344s.9190783.543998 1.25028.944.5795992.866664.7452 1.4.2484 1.103997.2484 1.712c0 .5546694-.0745193 1.0933307-.22356 1.616s-.3753585.984-.67896 1.384c-.3036015.400002-.6872377.7199988-1.15092.96s-1.0101569.36-1.63944.36c-.2760014 0-.5519986-.0239998-.828-.072s-.5409587-.1253328-.79488-.232-.4885189-.2426658-.7038-.408-.3946793-.3599989-.5382-.584h-.03312v4.128h-1.88784zm6.59088 4.144c0-.3733352-.0496795-.7359982-.14904-1.088s-.248399-.6639986-.44712-.936-.4471185-.4906658-.7452-.656-.6403181-.248-1.02672-.248c-.794884 0-1.393798.266664-1.79676.8s-.60444 1.2426622-.60444 2.128c0 .4160021.0524395.8026649.15732 1.16s.262199.6639987.47196.92.4609185.4586659.75348.608.6320381.224 1.01844.224c.4305622 0 .7948785-.0853325 1.09296-.256s.543719-.3919986.73692-.664.3311996-.5813316.414-.928.1242-.7013315.1242-1.064zm7.40232 4.352c-.6844834 0-1.2944373-.1093322-1.82988-.328s-.9880782-.5199981-1.35792-.904-.651359-.842664-.84456-1.376-.2898-1.1199968-.2898-1.76c0-.6293365.096599-1.210664.2898-1.744s.4747182-.9919981.84456-1.376.8224773-.6853322 1.35792-.904 1.1453966-.328 1.82988-.328 1.2944373.1093322 1.82988.328c.535443.2186678.988078.5199981 1.35792.904s.651359.842664.84456 1.376.2898 1.1146635.2898 1.744c0 .6400032-.096599 1.226664-.2898 1.76s-.474718.9919981-.84456 1.376-.822477.6853322-1.35792.904c-.5354427.2186678-1.1453966.328-1.82988.328zm0-1.44c.4195221 0 .7838385-.0853325 1.09296-.256s.563039-.3946653.76176-.672.345-.5893316.43884-.936.14076-.7013315.14076-1.064c0-.3520018-.04692-.7039982-.14076-1.056s-.240119-.6639986-.43884-.936-.4526385-.4933325-.76176-.664-.6734379-.256-1.09296-.256-.7838385.0853325-1.09296.256-.563039.3919986-.76176.664-.3449995.5839982-.43884.936-.14076.7039982-.14076 1.056c0 .3626685.0469195.7173316.14076 1.064s.240119.6586653.43884.936.4526385.5013325.76176.672.6734379.256 1.09296.256zm5.89536-7.056h1.77192v1.6h.03312c.0552-.2240011.162839-.4426656.32292-.656s.353279-.4079991.5796-.584.477479-.3173328.75348-.424.557519-.16.84456-.16c.220801 0 .3726.0053333.4554.016s.16836.0213333.25668.032v1.76c-.132481-.0213334-.267719-.0399999-.40572-.056s-.273239-.024-.40572-.024c-.320162 0-.620999.0613327-.90252.184s-.527159.3039988-.73692.544-.375359.5359982-.4968.888-.18216.757331-.18216 1.216v3.936h-1.88784zm4.968 0h1.42416v-2.48h1.88784v2.48h1.70568v1.36h-1.70568v4.416c0 .192001.00828.3573326.02484.496s.0552.2559995.11592.352.151799.1679998.27324.216.287039.072.4968.072c.132481 0 .264959-.0026666.39744-.008s.264959-.0239998.39744-.056v1.408c-.209761.0213334-.413999.0426666-.61272.064s-.402959.032-.61272.032c-.496802 0-.896998-.0453329-1.2006-.136s-.540959-.2239991-.71208-.4-.28704-.397332-.34776-.664-.0966-.570665-.10764-.912v-4.88h-1.42416zm14.4072-3.152h2.20248l4.554 11.424h-2.21904l-1.10952-3.024h-4.7196l-1.10952 3.024h-2.13624zm-.72864 6.88h3.61008l-1.77192-4.912h-.04968zm15.86448 4.544h-1.85472v-1.152h-.03312c-.231841.4160021-.576838.7493321-1.035 1s-.924598.376-1.39932.376c-1.126086 0-1.940277-.2693306-2.4426-.808s-.75348-1.3519946-.75348-2.44v-5.248h1.88784v5.072c0 .725337.143519 1.2373318.43056 1.536s.689997.448 1.20888.448c.397442 0 .728639-.0586661.9936-.176s.480239-.2746657.64584-.472.28428-.4346653.35604-.712.10764-.5759984.10764-.896v-4.8h1.88784zm1.12608-8.272h1.42416v-2.48h1.88784v2.48h1.70568v1.36h-1.70568v4.416c0 .192001.00828.3573326.02484.496s.0552.2559995.11592.352.151799.1679998.27324.216.287039.072.4968.072c.132481 0 .264959-.0026666.39744-.008s.264959-.0239998.39744-.056v1.408c-.209761.0213334-.413999.0426666-.61272.064s-.402959.032-.61272.032c-.496802 0-.896998-.0453329-1.2006-.136s-.540959-.2239991-.71208-.4-.28704-.397332-.34776-.664-.0966-.570665-.10764-.912v-4.88h-1.42416zm6.3756-3.152h1.88784v4.24h.03312c.231841-.3733352.576838-.6853321 1.035-.936s.968757-.376 1.5318-.376c.938405 0 1.678077.2346643 2.21904.704s.81144 1.1733286.81144 2.112v5.68h-1.88784v-5.2c-.02208-.6506699-.165599-1.1226652-.43056-1.416s-.678957-.44-1.242-.44c-.320162 0-.607199.0559994-.86112.168s-.469199.2666657-.64584.464-.31464.429332-.414.696-.14904.5493318-.14904.848v4.88h-1.88784z" fill="#4a4a4a"/></g><g transform="translate(381 132)"><circle cx="13.5" cy="13.5" fill="#f26738" r="13.5"/><text fill="#fff" font-family="HelveticaNeue-Medium, Helvetica Neue" font-size="16" font-weight="400"><tspan x="9.052" y="20">1</tspan></text></g><g transform="translate(369 185)"><path d="m1.5 1.5h163v39.599068h-163z" fill="#eef4f9" stroke="#d1eaff" stroke-width="3"/><text fill="#4a4a4a" font-family="LucidaGrande, Lucida Grande" font-size="13"><tspan x="21.553918" y="18.49536">Node presents join</tspan><tspan x="63.264367" y="34.49536">token</tspan></text></g><path d="m393.5 185-6.5-13h13z" fill="#d1eaff" stroke="#d1eaff" transform="matrix(1 0 0 -1 0 357)"/><g transform="translate(237 59)"><circle cx="13.5" cy="13.5" fill="#f26738" r="13.5"/><text fill="#fff" font-family="HelveticaNeue-Medium, Helvetica Neue" font-size="16" font-weight="400"><tspan x="9.052" y="20">2</tspan></text></g><g transform="translate(89)"><path d="m1.5 1.5h125v78h-125z" fill="#eef4f9" stroke="#d1eaff" stroke-width="3"/><text fill="#4a4a4a" font-family="LucidaGrande, Lucida Grande" font-size="13"><tspan x="26.100457" y="21.690336">Auth Server</tspan><tspan x="14.874627" y="37.690336">validates token</tspan><tspan x="17.851678" y="53.690336">and generates</tspan><tspan x="13.690789" y="69.690336">node certificate</tspan></text></g><path d="m223.5 73-6.5-13h13z" fill="#d1eaff" stroke="#d1eaff" transform="matrix(0 1 1 0 157 -157)"/><path d="m475.858347 79.8904204.251233.9679267-240.75758 62.4896529 1.005924 3.872194-9.841887-2.094578 7.580794-6.616763 1.004169 3.871147z" fill="#979797" fill-rule="nonzero"/><path d="m466.4872 51.1614592 9.751353 2.4821624-7.836542 6.3117844-.851011-3.909406-240.183174 52.298931-.212757-.977105 240.182931-52.298826z" fill="#979797" fill-rule="nonzero"/><g transform="translate(269 54)"><g transform="translate(8)"><path d="m5.46684211 57.3266842c-.0527722-.20558-.12533288-.3945781-.21768422-.567-.09235133-.1724219-.21108699-.3216309-.35621052-.4476316-.14512353-.1260006-.31498148-.2238154-.50957895-.2934473-.19459746-.069632-.42052503-.1044474-.67778947-.1044474-.37600188 0-.70087583.0762624-.97463158.2287895-.27375576.152527-.49638511.3564461-.66789474.6117631-.17150963.2553171-.29849081.5454458-.38094737.8703948-.08245655.324949-.12368421.6565246-.12368421.9947368s.04122766.6697879.12368421.9947368c.08245656.324949.20943774.6150777.38094737.8703948s.39413898.4592361.66789474.6117631c.27375575.1525271.5986297.2287895.97463158.2287895.27705401 0 .52112175-.0480785.73221052-.1442368.21108878-.0961584.39249047-.2287887.54421053-.3978948s.27045571-.3663936.35621053-.5918684c.08575481-.2254748.14182443-.467525.16821052-.7261579h1.2071579c-.0263861.4244232-.11708695.8123667-.27210527 1.1638421-.15501831.3514755-.36445482.6548672-.62831579.9101842-.26386096.2553171-.57389295.4526046-.93010526.5918685-.35621231.1392638-.74869961.2088947-1.17747368.2088947-.52772194 0-1.00101545-.0978148-1.41989474-.2934474-.41887929-.1956325-.77343714-.4625509-1.06368421-.8007631-.29024706-.3382122-.51287642-.7327873-.66789474-1.1837369s-.23252631-.9317343-.23252631-1.4423684c0-.5040025.07750799-.9814714.23252631-1.432421.15501832-.4509497.37764768-.8455247.66789474-1.1837369.29024707-.3382122.64480492-.6067885 1.06368421-.8057368.41887929-.1989484.8921728-.2984211 1.41989474-.2984211.39579145 0 .76848948.05471 1.11810526.1641316s.65799866.2685779.9251579.4774737c.26715923.2088958.48319215.4625511.64810526.7609737.1649131.2984225.2671577.6399454.30673684 1.0245789zm5.72905259 1.8203684c-.013193-.1790535-.0511225-.3514728-.1137894-.5172631-.062667-.1657903-.1484205-.3100257-.2572632-.4327106-.1088426-.1226848-.2407711-.2221575-.3957895-.298421-.1550183-.0762635-.3281745-.1143947-.51947365-.1143947-.19789573 0-.37764832.0348154-.53926316.1044473-.16161484.069632-.30013977.1657889-.41557895.2884737-.11543917.1226848-.20778913.2669202-.27705263.4327105s-.10719295.3448412-.11378947.5371579zm-2.63199996.7460527c0 .1989483.0280348.3912622.08410526.5769473.05607046.1856852.14017488.3481572.25231579.4874211.11214091.1392638.25396405.2503417.42547368.3332368.17150963.0828952.37599882.1243421.61347369.1243421.32982624 0 .59533234-.0712887.79652634-.2138684.201194-.1425796.3512626-.3564459.4502105-.6416053h1.0686316c-.0593687.2785278-.1616133.5272095-.3067369.7460527-.1451235.2188432-.3199288.4028677-.524421.5520789-.2044923.1492113-.433718.261947-.6876842.3382106-.2539662.0762635-.5194723.1143947-.79652634.1143947-.40238798 0-.75859494-.0663151-1.06863158-.1989474-.31003664-.1326322-.57224454-.3183146-.78663158-.5570526s-.37599946-.5238931-.48484211-.8554737c-.10884264-.3315806-.16326315-.6963138-.16326315-1.0942105 0-.3647387.05771872-.7112352.17315789-1.0395.11543918-.3282648.28034981-.6167356.49473684-.8654211.21438704-.2486854.47329673-.4459729.77673685-.5918684.30344011-.1458955.64645422-.2188421 1.02905263-.2188421.40238795 0 .76354225.0845518 1.08347365.2536579.3199315.1691061.5854376.3929197.7965263.6714474.2110888.2785277.3644557.5984982.4601053.959921.0956496.3614229.1203862.7344455.0742105 1.119079zm4.62084206-2.8648421h1.0587369v.9947368h.0197895c.0329826-.1392639.0972977-.2752099.1929473-.4078421s.2110871-.2536574.3463158-.363079c.1352288-.1094216.2852974-.1972891.4502105-.2636052s.333122-.0994737.5046316-.0994737c.1319305 0 .2226314.0033158.2721053.0099474s.1005962.0132631.1533684.0198947v1.0942105c-.0791583-.0132632-.1599645-.0248683-.242421-.0348158-.0824566-.0099474-.1632628-.014921-.2424211-.014921-.1912992 0-.3710518.0381312-.5392632.1143947-.1682113.0762636-.3149818.1889993-.4403157.3382106-.125334.1492112-.2242804.3332357-.2968422.5520789-.0725617.2188432-.1088421.4708407-.1088421.756v2.4470526h-1.128zm2.9684211 0h.8509474v-1.5418421h1.128v1.5418421h1.0191579v.8455263h-1.0191579v2.7454737c0 .119369.0049473.2221574.0148421.3083684.0098948.0862109.0329822.1591576.0692631.2188421s.0907014.1044472.1632632.1342895c.0725618.0298422.1715081.0447631.2968421.0447631.0791583 0 .1583154-.0016579.2374737-.0049737s.1583154-.0149209.2374737-.0348158v.8753685c-.125334.0132632-.2473679.0265262-.3661053.0397894-.1187374.0132633-.2407713.0198948-.3661053.0198948-.2968436 0-.535964-.028184-.7173684-.0845527s-.3232275-.1392626-.4254737-.2486842c-.1022461-.1094216-.1715086-.2470255-.2077894-.4128158-.0362809-.1657903-.0577193-.3547884-.0643158-.567v-3.0339473h-.8509474zm3.8391579-1.9596316h1.128v1.0743158h-1.128zm0 1.9596316h1.128v5.1427894h-1.128zm5.5014737-1.9596316h1.128v1.0743158h-1.128zm-3.6511579 1.9596316h.8410526v-.4277369c0-.324949.0395786-.5885516.1187369-.7908158.0791582-.2022641.184701-.3581047.3166315-.4675263s.2819992-.1823682.4502106-.2188421c.1682113-.0364739.3446657-.0547105.5293684-.0547105.3628088 0 .6266658.0232103.7915789.0696316v.8853157c-.0725617-.0198948-.1500697-.0348157-.2325263-.0447631-.0824565-.0099474-.1797538-.0149211-.2918947-.0149211-.1517201 0-.2819995.0364734-.3908421.1094211-.1088427.0729477-.1632632.2155252-.1632632.4277368v.5272106h.9597895v.8455263h-.9597895v4.2972631h-1.128v-4.2972631h-.8410526zm3.6511579 0h1.128v5.1427894h-1.128zm5.8082105 1.7208947c-.0461757-.3183174-.1731569-.5587097-.3809474-.7211842s-.4699984-.2437105-.7866315-.2437105c-.1451236 0-.3001396.0248681-.4650527.0746052s-.3166309.1425783-.4551579.2785263c-.138527.1359481-.2539644.3249462-.3463158.567-.0923513.2420539-.1385263.5587086-.1385263.9499737 0 .2122116.0247366.42442.0742105.6366316.049474.2122116.1286311.4012097.2374737.567.1088427.1657903.2490167.3000784.4205263.4028684.1715097.10279.3792971.1541842.6233685.1541842.3298262 0 .6019287-.1027884.8163158-.3083684.214387-.20558.3479646-.4940508.4007368-.865421h1.128c-.1055444.6697928-.3578577 1.1820771-.7569474 1.5368684-.3990897.3547912-.9284528.5321842-1.5881052.5321842-.402388 0-.7569459-.067973-1.0636842-.2039211-.3067384-.135948-.5656481-.3216304-.7767369-.5570526s-.3710521-.5156036-.4798947-.8405526c-.1088427-.324949-.1632632-.6764192-.1632632-1.0544211 0-.3846335.0527714-.7460509.1583158-1.0842631.1055444-.3382123.2638586-.6316567.4749474-.8803421.2110888-.2486855.4732967-.4443151.7866316-.5868948.3133349-.1425796.6810856-.2138684 1.1032631-.2138684.2968436 0 .5788408.0381312.846.1143947.2671592.0762636.5046306.1906572.7124211.3431842.2077905.1525271.3776484.344841.5095789.5769474s.2110876.5073142.2374737.8256316zm6.3326316 2.2779474c0 .1392638.0181401.2387365.054421.298421s.1071925.0895263.2127369.0895263h.1187368c.0461757 0 .0989471-.0066315.1583158-.0198947v.7858421c-.0395791.0132632-.0907014.0281841-.1533684.0447632-.062667.016579-.1269821.0314999-.1929474.0447631-.0659652.0132632-.1319295.0232105-.1978947.0298421-.0659653.0066316-.1220349.0099474-.1682105.0099474-.2308784 0-.4221747-.0464206-.5738948-.1392632-.15172-.0928425-.2506664-.2553146-.2968421-.487421-.2242818.2188432-.4996826.3779995-.8262105.4774737-.326528.0994741-.6415073.1492105-.9449474.1492105-.2308783 0-.4518586-.0314997-.6629474-.0945-.2110887-.0630003-.3974377-.1558415-.5590526-.2785263-.1616148-.1226849-.2902451-.2785254-.3858947-.4675263-.0956496-.189001-.1434737-.4094988-.1434737-.6615 0-.3183174.0577187-.5769464.1731579-.7758948.1154392-.1989483.2671569-.3547889.4551579-.4675263.1880009-.1127374.3990865-.1939734.6332631-.2437105.2341767-.0497371.4699989-.0878683.7074737-.1143948.2044923-.0397896.3990868-.0679736.5837895-.0845526s.3479642-.0447629.4897895-.0845526c.1418252-.0397897.2539645-.1011312.336421-.1840263.0824566-.0828952.1236842-.2072361.1236842-.3730264 0-.1458954-.0346312-.2652626-.1038947-.3581052s-.155017-.1641313-.2572632-.2138684c-.1022461-.0497371-.2160344-.0828947-.3413684-.0994737-.1253339-.0165791-.2440696-.0248684-.3562105-.0248684-.3166332 0-.577192.0663151-.7816842.1989473-.2044923.1326323-.3199297.3382092-.3463158.6167369h-1.128c.0197896-.3315806.0989467-.6067884.2374737-.8256316s.3149814-.3945783.5293684-.5272105c.214387-.1326323.4568057-.2254735.7272632-.2785264.2704575-.0530528.5475073-.0795789.8311579-.0795789.2506679 0 .4980338.0265261.7421052.0795789.2440714.0530529.4634026.1392626.658.2586316.1945975.119369.3512626.2735517.47.4625527.1187375.1890009.1781053.419446.1781053.6913421zm-1.128-1.4324211c-.1715097.1127374-.3825953.1807104-.6332632.2039211-.2506679.0232106-.5013321.058026-.752.1044473-.1187374.0198949-.2341749.0480788-.3463158.0845527-.1121409.0364738-.2110873.0862102-.2968421.1492105s-.1533681.1458942-.2028421.2486842c-.0494739.10279-.0742105.2271308-.0742105.3730263 0 .1260006.0362803.2321048.1088421.3183158s.1599644.154184.2622105.2039211c.1022462.049737.2143854.0845525.3364211.1044473.1220357.0198949.2325258.0298421.3314737.0298421.1253339 0 .2605606-.0165788.4056842-.0497368.1451235-.0331581.2819993-.0895259.4106316-.1691053.1286322-.0795793.2358241-.1807099.3215789-.3033947s.1286316-.2735517.1286316-.4526053zm1.8305263-2.566421h.8509474v-1.5418421h1.128v1.5418421h1.0191579v.8455263h-1.0191579v2.7454737c0 .119369.0049473.2221574.0148421.3083684.0098948.0862109.0329822.1591576.0692631.2188421s.0907014.1044472.1632632.1342895c.0725618.0298422.1715081.0447631.2968421.0447631.0791583 0 .1583154-.0016579.2374737-.0049737s.1583154-.0149209.2374737-.0348158v.8753685c-.125334.0132632-.2473679.0265262-.3661053.0397894-.1187374.0132633-.2407713.0198948-.3661053.0198948-.2968436 0-.535964-.028184-.7173684-.0845527s-.3232275-.1392626-.4254737-.2486842c-.1022461-.1094216-.1715086-.2470255-.2077894-.4128158-.0362809-.1657903-.0577193-.3547884-.0643158-.567v-3.0339473h-.8509474zm7.3221053 2.1187894c-.0131931-.1790535-.0511225-.3514728-.1137895-.5172631s-.1484205-.3100257-.2572632-.4327106c-.1088426-.1226848-.2407711-.2221575-.3957894-.298421-.1550184-.0762635-.3281745-.1143947-.5194737-.1143947-.1978958 0-.3776483.0348154-.5392632.1044473-.1616148.069632-.3001398.1657889-.4155789.2884737-.1154392.1226848-.2077892.2669202-.2770527.4327105s-.1071929.3448412-.1137894.5371579zm-2.632.7460527c0 .1989483.0280348.3912622.0841052.5769473.0560705.1856852.1401749.3481572.2523158.4874211.1121409.1392638.2539641.2503417.4254737.3332368.1715096.0828952.3759988.1243421.6134737.1243421.3298262 0 .5953323-.0712887.7965263-.2138684.201194-.1425796.3512627-.3564459.4502105-.6416053h1.0686316c-.0593687.2785278-.1616133.5272095-.3067368.7460527-.1451236.2188432-.3199288.4028677-.5244211.5520789-.2044922.1492113-.433718.261947-.6876842.3382106-.2539662.0762635-.5194723.1143947-.7965263.1143947-.402388 0-.758595-.0663151-1.0686316-.1989474-.3100366-.1326322-.5722445-.3183146-.7866316-.5570526-.214387-.238738-.3759994-.5238931-.4848421-.8554737-.1088426-.3315806-.1632631-.6963138-.1632631-1.0942105 0-.3647387.0577187-.7112352.1731579-1.0395.1154391-.3282648.2803498-.6167356.4947368-.8654211.214387-.2486854.4732967-.4459729.7767368-.5918684.3034402-.1458955.6464543-.2188421 1.0290527-.2188421.4023879 0 .7635422.0845518 1.0834737.2536579.3199314.1691061.5854375.3929197.7965263.6714474.2110887.2785277.3644556.5984982.4601052.959921.0956496.3614229.1203862.7344455.0742106 1.119079z" fill="#4a4a4a"/><g transform="translate(3.298246)"><path d="m33.5240074.5h-33.0240074v43.7631579h39.4035088v-37.21245187h-6.3795014z" fill="#fff" stroke="#5c5c5c"/><g stroke="#4a4a4a" stroke-linecap="square"><path d="m6.363463 11.19079h26.054334"/><path d="m6.363463 13.677632h26.054334"/><path d="m6.363463 16.164474h26.054334"/><path d="m6.363463 18.651316h26.054334"/><path d="m6.363463 21.138158h26.054334"/><path d="m6.363463 23.625h21.259344"/></g><ellipse cx="32.570175" cy="38.546053" fill="#4a4a4a" rx="5.359649" ry="5.388158"/><path d="m36.2807018 40.6184211v9.9473684l-3.7105264-4.831579-3.7105263 4.831579v-9.9473684z" fill="#4a4a4a"/><path d="m33.602488.254391 6.529858 6.654043" stroke="#4a4a4a"/></g></g><text fill="#09c62e" font-family="LucidaGrande, Lucida Grande" font-size="36"><tspan x=".245117" y="53"></tspan></text></g><g transform="translate(502 15)"><path d="m0 0h138v32h-138z"/><text fill="#4a4a4a" font-family="LucidaGrande-Bold, Lucida Grande" font-size="11" font-weight="bold"><tspan x="52.275564" y="14.84">Token:</tspan><tspan font-family="LucidaGrande, Lucida Grande" font-weight="normal" x="14.882009" y="27.84">fuzzywuzzywasabear</tspan></text></g><path d="m339.5 90.5h136v36h-136z" fill="#fff" stroke="#979797"/><g transform="translate(343 90)"><path d="m0 0h128v30h-128z"/><text fill="#4a4a4a" font-family="LucidaGrande-Bold, Lucida Grande" font-size="11" font-weight="bold"><tspan x="47.112013" y="14.6">Token:</tspan><tspan font-family="LucidaGrande, Lucida Grande" font-weight="normal" x="9.718458" y="27.6">fuzzywuzzywasabear</tspan></text></g><g transform="translate(20 172)"><path d="m0 0h249v58h-249z"/><text fill="#4a4a4a" font-family="LucidaGrande-Bold, Lucida Grande" font-size="11" font-weight="bold"><tspan x="6" y="17">Tokens: Expiry: Type</tspan> <tspan font-family="LucidaGrande, Lucida Grande" font-weight="normal" x="6" y="30">fuzzywuzzywasabear : 2019-10-19 : Node</tspan> <tspan font-family="LucidaGrande, Lucida Grande" font-weight="normal" x="6" y="43">BBBCDDDDBBBBBBBB : 2019-10-16 : User</tspan></text></g></g></svg>