<svg height="214" viewBox="0 0 332 214" width="332" xmlns="http://www.w3.org/2000/svg" xmlns:xlink="http://www.w3.org/1999/xlink"><defs><rect id="a" height="206" rx="10" width="324"/><filter id="b" height="106.8%" width="104.3%" x="-2.2%" y="-2.4%"><feOffset dx="0" dy="2" in="SourceAlpha" result="shadowOffsetOuter1"/><feGaussianBlur in="shadowOffsetOuter1" result="shadowBlurOuter1" stdDeviation="2"/><feColorMatrix in="shadowBlurOuter1" type="matrix" values="0 0 0 0 0   0 0 0 0 0   0 0 0 0 0  0 0 0 0.5 0"/></filter></defs><g fill="none" fill-rule="evenodd"><g transform="translate(4 2)"><use fill="#000" filter="url(#b)" xlink:href="#a"/><use fill="#fff" fill-rule="evenodd" xlink:href="#a"/></g><g transform="translate(32 22)"><path d="m10 1.5c-4.69442037 0-8.5 3.80557963-8.5 8.5v60c0 4.6944204 3.80557963 8.5 8.5 8.5h210c4.69442 0 8.5-3.8055796 8.5-8.5v-60c0-4.69442037-3.80558-8.5-8.5-8.5z" fill="#fff" stroke="#3662a2" stroke-width="3"/><path d="m63 33h9.2282475v1.6707182h-3.6242425v9.3745857h-1.9957283v-9.3745857h-3.6082767zm14.1936194 6.3425414c-.0212879-.2784544-.0824896-.5465917-.183607-.8044199-.1011174-.2578281-.2394865-.4821353-.4151115-.6729281-.175625-.1907929-.3885005-.3454875-.638633-.4640884-.2501326-.118601-.5295317-.1779006-.8382059-.1779006-.3193181 0-.6093611.0541431-.8701375.162431-.2607765.1082878-.4842958.2578259-.6705647.4486187-.1862689.1907929-.3352818.4151-.4470431.6729282-.1117614.2578282-.1729631.5362785-.183607.8353591zm-4.2469097 1.160221c0 .3093938.045236.60847.1357095.8972376.0904734.2887676.2261816.5414354.4071285.758011.180947.2165757.4097882.389318.6865306.5182321.2767423.1289141.6066994.1933702.9898812.1933702.5321968 0 .9606089-.1108645 1.285249-.3325967.3246401-.2217323.566786-.5543256.7264451-.9977901h1.7243092c-.0957955.4331514-.260774.8198878-.4949406 1.160221s-.5162268.6265182-.8461888.8585635c-.3299621.2320454-.6998333.4073659-1.1096249.5259669s-.8382037.1779006-1.285249.1779006c-.6492802 0-1.2240442-.1031298-1.7243092-.3093923-.5002651-.2062626-.9233553-.4950258-1.2692832-.8662984-.345928-.3712725-.6067005-.8147303-.7823255-1.3303867-.175625-.5156563-.2634361-1.0828698-.2634361-1.7016575 0-.5672219.093133-1.1060747.2794019-1.6165745s.4523634-.9591141.7982913-1.3458564c.345928-.3867423.7636963-.6935532 1.2533174-.920442s1.0430975-.3403315 1.6604459-.3403315c.6492802 0 1.232027.1314904 1.748258.3944752.5162309.2629847.944643.6110475 1.285249 1.0441989.3406059.4331513.5880738.9307522.7424109 1.4928176.1543371.5620655.1942512 1.1421702.1197437 1.7403315zm7.5039382-7.5027624h1.8201042v11.0453039h-1.8201042zm9.4677349 6.3425414c-.0212879-.2784544-.0824896-.5465917-.183607-.8044199-.1011174-.2578281-.2394865-.4821353-.4151115-.6729281-.175625-.1907929-.3885005-.3454875-.638633-.4640884-.2501326-.118601-.5295317-.1779006-.8382059-.1779006-.3193181 0-.6093611.0541431-.8701375.162431-.2607765.1082878-.4842958.2578259-.6705647.4486187-.1862689.1907929-.3352818.4151-.4470432.6729282-.1117613.2578282-.172963.5362785-.183607.8353591zm-4.2469098 1.160221c0 .3093938.0452361.60847.1357096.8972376.0904734.2887676.2261816.5414354.4071285.758011.180947.2165757.4097882.389318.6865306.5182321.2767423.1289141.6066994.1933702.9898812.1933702.5321968 0 .9606089-.1108645 1.285249-.3325967.3246401-.2217323.566786-.5543256.7264451-.9977901h1.7243092c-.0957955.4331514-.260774.8198878-.4949406 1.160221-.2341667.3403332-.5162268.6265182-.8461888.8585635-.3299621.2320454-.6998333.4073659-1.1096249.5259669s-.8382037.1779006-1.285249.1779006c-.6492802 0-1.2240442-.1031298-1.7243092-.3093923-.5002651-.2062626-.9233553-.4950258-1.2692832-.8662984-.345928-.3712725-.6067005-.8147303-.7823255-1.3303867-.175625-.5156563-.2634361-1.0828698-.2634361-1.7016575 0-.5672219.093133-1.1060747.2794019-1.6165745s.4523634-.9591141.7982913-1.3458564c.345928-.3867423.7636963-.6935532 1.2533174-.920442s1.0430975-.3403315 1.6604459-.3403315c.6492802 0 1.232027.1314904 1.7482579.3944752.516231.2629847.9446431.6110475 1.285249 1.0441989.340606.4331513.5880739.9307522.742411 1.4928176.1543371.5620655.1942512 1.1421702.1197437 1.7403315zm7.5039383-4.4552486h1.7243092v1.0828729h.0319317c.2554545-.4640907.612021-.796684 1.0697103-.99779s.952625-.3016575 1.4848218-.3016575c.6492802 0 1.2160614.1108645 1.7003605.3325967.4842992.2217322.8861022.5259649 1.2054202.9127072s.558803.8379348.718462 1.3535912c.159659.5156563.239487 1.0674003.239487 1.6552486 0 .5362826-.071845 1.0570877-.215538 1.5624309-.143694.5053432-.361891.9513793-.654599 1.3381216-.292709.3867422-.6625798.6961314-1.1096252.9281768-.4470453.2320453-.9739123.3480663-1.5806168.3480663-.2660984 0-.5321928-.0232042-.7982913-.0696133-.2660984-.0464091-.5215491-.1211781-.7663596-.2243094-.2448106-.1031313-.4709908-.2346217-.6785476-.3944751-.2075568-.1598535-.3805182-.3480653-.5188894-.5646409h-.0319316v3.9911602h-1.8201042zm6.3543988 4.0066298c0-.3609594-.047897-.7116005-.1436924-1.0519337-.0957955-.3403331-.2394865-.6419876-.4310774-.9049723-.1915908-.2629848-.4310758-.4744007-.7184621-.6342542-.2873863-.1598534-.6173434-.239779-.9898812-.239779-.7663635 0-1.3437885.2578243-1.7322922.7734807-.3885037.5156563-.5827526 1.201469-.5827526 2.0574585 0 .402212.0505579.7760573.1516753 1.121547.1011174.3454898.2527913.6419877.4550261.8895028.2022348.247515.4443807.4434615.7264451.5878453.2820643.1443838.6093605.2165746.9818983.2165746.4151135 0 .7663582-.0825038 1.0537445-.2475139.2873863-.16501.5242103-.3790042.7104792-.6419889s.3193162-.5620609.3991457-.8972376c.0798295-.3351766.1197437-.6780829.1197437-1.0287293zm7.1367239 4.2077349c-.659924 0-1.247992-.105708-1.764223-.3171271s-.952626-.5027606-1.309198-.8740332c-.356572-.3712725-.627988-.8147304-.814257-1.3303867-.186269-.5156564-.279402-1.0828698-.279402-1.7016575 0-.6084745.093133-1.1705315.279402-1.6861878.186269-.5156564.457685-.9591142.814257-1.3303868.356572-.3712725.792967-.662614 1.309198-.8740331s1.104299-.3171271 1.764223-.3171271 1.247993.105708 1.764224.3171271.952626.5027606 1.309198.8740331c.356572.3712726.627988.8147304.814257 1.3303868.186269.5156563.279402 1.0777133.279402 1.6861878 0 .6187877-.093133 1.1860011-.279402 1.7016575-.186269.5156563-.457685.9591142-.814257 1.3303867-.356572.3712726-.792967.6626141-1.309198.8740332s-1.1043.3171271-1.764224.3171271zm0-1.3922652c.40447 0 .755715-.0825038 1.053745-.2475139.29803-.16501.542837-.3815824.734428-.6497237s.332621-.5697958.423094-.9049724c.090474-.3351766.13571-.6780829.13571-1.0287293 0-.3403332-.045236-.6806612-.13571-1.0209944-.090473-.3403332-.231503-.6419877-.423094-.9049724-.191591-.2629848-.436398-.4769789-.734428-.641989-.29803-.16501-.649275-.2475138-1.053745-.2475138-.404469 0-.755714.0825038-1.053744.2475138-.29803.1650101-.542837.3790042-.734428.641989-.191591.2629847-.332621.5646392-.423095.9049724-.090473.3403332-.135709.6806612-.135709 1.0209944 0 .3506464.045236.6935527.135709 1.0287293.090474.3351766.231504.6368311.423095.9049724s.436398.4847137.734428.6497237c.29803.1650101.649275.2475139 1.053744.2475139zm5.683834-6.8220995h1.708344v1.5469613h.031931c.05322-.2165756.156997-.4279916.311334-.6342541s.340603-.3944743.558804-.5646409.460347-.3068135.726445-.4099447c.266099-.1031313.537515-.1546962.814257-.1546962.212879 0 .359231.0051565.43906.0154696.07983.0103132.162319.0206261.247471.0309393v1.7016574c-.127728-.0206262-.258114-.0386739-.391163-.0541436s-.263435-.0232044-.391163-.0232044c-.308674 0-.598717.0592995-.870137.1779005-.271421.118601-.508245.2939215-.71048.5259669-.202234.2320453-.361891.5182303-.478974.8585635-.117084.3403332-.175624.7322261-.175624 1.1756906v3.8055249h-1.820105zm4.789748 0h1.373061v-2.39779h1.820104v2.39779h1.644481v1.3149171h-1.644481v4.2696133c0 .1856363.007983.3454874.023949.479558.015966.1340707.053219.2475134.111761.3403315s.146353.1624307.263436.2088398.27674.0696132.478975.0696132c.127727 0 .255452-.0025782.38318-.0077348.127727-.0051565.255452-.0232042.38318-.0541436v1.361326c-.202235.0206262-.399145.0412522-.590736.0618784-.191591.0206263-.388501.0309392-.590736.0309392-.478977 0-.864814-.0438301-1.157522-.1314917s-.521549-.2165737-.68653-.3867403c-.164982-.1701666-.276741-.3841608-.335283-.641989-.058541-.2578281-.093134-.5517479-.103778-.8817679v-4.7182321h-1.373061zm10.760967-3.0475138h2.107489l5.204859 8.1370166h.031932v-8.1370166h1.899933v11.0453039h-2.107489l-5.188893-8.121547h-.047898v8.121547h-1.899933zm15.135603 11.2618785c-.659924 0-1.247993-.105708-1.764224-.3171271s-.952625-.5027606-1.309197-.8740332c-.356572-.3712725-.627989-.8147304-.814257-1.3303867-.186269-.5156564-.279402-1.0828698-.279402-1.7016575 0-.6084745.093133-1.1705315.279402-1.6861878.186268-.5156564.457685-.9591142.814257-1.3303868.356572-.3712725.792966-.662614 1.309197-.8740331s1.1043-.3171271 1.764224-.3171271 1.247993.105708 1.764224.3171271.952626.5027606 1.309198.8740331c.356572.3712726.627988.8147304.814257 1.3303868.186269.5156563.279402 1.0777133.279402 1.6861878 0 .6187877-.093133 1.1860011-.279402 1.7016575-.186269.5156563-.457685.9591142-.814257 1.3303867-.356572.3712726-.792967.6626141-1.309198.8740332s-1.1043.3171271-1.764224.3171271zm0-1.3922652c.40447 0 .755714-.0825038 1.053745-.2475139.29803-.16501.542837-.3815824.734428-.6497237s.332621-.5697958.423094-.9049724c.090474-.3351766.13571-.6780829.13571-1.0287293 0-.3403332-.045236-.6806612-.13571-1.0209944-.090473-.3403332-.231503-.6419877-.423094-.9049724-.191591-.2629848-.436398-.4769789-.734428-.641989-.298031-.16501-.649275-.2475138-1.053745-.2475138-.404469 0-.755714.0825038-1.053744.2475138-.298031.1650101-.542837.3790042-.734428.641989-.191591.2629847-.332621.5646392-.423095.9049724-.090473.3403332-.135709.6806612-.135709 1.0209944 0 .3506464.045236.6935527.135709 1.0287293.090474.3351766.231504.6368311.423095.9049724s.436397.4847137.734428.6497237c.29803.1650101.649275.2475139 1.053744.2475139zm13.459192 1.1756906h-1.72431v-1.082873h-.031931c-.244811.4640908-.601377.7966841-1.069711.9977901-.468333.201106-.963269.3016575-1.484821.3016575-.649281 0-1.216062-.1108645-1.700361-.3325967-.484299-.2217323-.886102-.5233867-1.20542-.9049724s-.558803-.8327783-.718462-1.3535912-.239487-1.0802916-.239487-1.678453c0-.7219189.101115-1.3458537.30335-1.8718232s.47099-.9591143.806275-1.2994475c.335284-.3403332.71846-.5904228 1.149539-.7502763.431079-.1598534.870135-.239779 1.317181-.239779.255454 0 .516227.0232042.782325.0696133.266099.0464091.521549.1211781.76636.2243094.24481.1031312.470991.2346216.678547.3944751.207557.1598535.380519.3480652.51889.5646409h.031931v-4.0839779h1.820105zm-6.354399-3.9138122c0 .3403332.045236.6755048.135709 1.0055249.090474.33002.228843.6239398.415112.8817679.186269.2578282.423093.4640877.710479.6187846s.627987.2320442 1.021813.2320442c.40447 0 .753053-.0825038 1.045762-.2475139.292708-.16501.532193-.3815824.718462-.6497237s.324638-.5697958.415111-.9049724c.090474-.3351766.13571-.6780829.13571-1.0287293 0-.8869289-.204893-1.577898-.614685-2.0729281-.409791-.4950301-.965929-.7425415-1.668428-.7425415-.425758 0-.784985.085082-1.077694.2552486-.292708.1701666-.532193.3918955-.718462.6651934s-.319316.582687-.399146.9281768c-.079829.3454898-.119743.6987091-.119743 1.0596685zm14.002029-.7889503c-.021288-.2784544-.082489-.5465917-.183607-.8044199-.101117-.2578281-.239486-.4821353-.415111-.6729281-.175625-.1907929-.388501-.3454875-.638633-.4640884-.250133-.118601-.529532-.1779006-.838206-.1779006-.319318 0-.609361.0541431-.870138.162431-.260776.1082878-.484295.2578259-.670564.4486187-.186269.1907929-.335282.4151-.447043.6729282-.111762.2578282-.172964.5362785-.183607.8353591zm-4.246909 1.160221c0 .3093938.045236.60847.135709.8972376.090474.2887676.226182.5414354.407129.758011.180947.2165757.409788.389318.68653.5182321.276743.1289141.6067.1933702.989881.1933702.532197 0 .960609-.1108645 1.285249-.3325967.32464-.2217323.566786-.5543256.726445-.9977901h1.72431c-.095796.4331514-.260774.8198878-.494941 1.160221s-.516227.6265182-.846189.8585635c-.329962.2320454-.699833.4073659-1.109625.5259669-.409791.118601-.838203.1779006-1.285249.1779006-.64928 0-1.224044-.1031298-1.724309-.3093923-.500265-.2062626-.923355-.4950258-1.269283-.8662984-.345928-.3712725-.606701-.8147303-.782326-1.3303867-.175624-.5156563-.263436-1.0828698-.263436-1.7016575 0-.5672219.093133-1.1060747.279402-1.6165745s.452364-.9591141.798292-1.3458564.763696-.6935532 1.253317-.920442 1.043098-.3403315 1.660446-.3403315c.64928 0 1.232027.1314904 1.748258.3944752.516231.2629847.944643.6110475 1.285249 1.0441989.340606.4331513.588074.9307522.742411 1.4928176.154337.5620655.194251 1.1421702.119743 1.7403315z" fill="#4a4a4a"/></g><g transform="translate(32 115)"><path d="m6.63 69.156c-.06400032-.2480012-.15199944-.475999-.264-.684s-.25599912-.3879992-.432-.54-.38199882-.2699996-.618-.354-.50999844-.126-.822-.126c-.45600228 0-.84999834.0919991-1.182.276s-.60199896.4299985-.81.738-.3619995.657998-.462 1.05-.15.791998-.15 1.2.0499995.807998.15 1.2.25399896.7419985.462 1.05.47799834.5539991.81.738.72599772.276 1.182.276c.33600168 0 .63199872-.0579994.888-.174s.47599908-.275999.66-.48.32799948-.4419986.432-.714.17199984-.5639984.204-.876h1.464c-.03200016.5120026-.14199906.9799979-.33 1.404s-.4419984.7899985-.762 1.098-.69599784.5459992-1.128.714-.9079974.252-1.428.252c-.6400032 0-1.21399746-.1179988-1.722-.354s-.93799824-.557998-1.29-.966-.62199906-.8839973-.81-1.428-.282-1.1239969-.282-1.74c0-.608003.09399906-1.1839973.282-1.728s.45799824-1.019998.81-1.428.78199746-.7319988 1.29-.972 1.0819968-.36 1.722-.36c.4800024 0 .93199788.0659993 1.356.198s.79799838.3239987 1.122.576.585999.5579982.786.918.32399976.7719977.372 1.236zm6.948 2.196c-.0160001-.2160011-.0619996-.423999-.138-.624s-.1799993-.3739993-.312-.522-.2919991-.2679995-.48-.36-.3979988-.138-.63-.138c-.2400012 0-.457999.0419996-.654.126s-.3639993.1999993-.504.348-.2519996.321999-.336.522-.13.4159988-.138.648zm-3.192.9c0 .2400012.0339997.4719989.102.696s.1699993.4199992.306.588.307999.3019995.516.402c.208.1000005.4559986.15.744.15.400002 0 .7219988-.0859991.966-.258s.4259994-.4299983.546-.774h1.296c-.0720004.3360017-.1959991.6359987-.372.9s-.3879988.4859991-.636.666-.5259985.3159995-.834.408-.6299983.138-.966.138c-.4880024 0-.9199981-.0799992-1.296-.24s-.6939987-.3839986-.954-.672-.45599934-.631998-.588-1.032-.198-.8399976-.198-1.32c0-.4400022.0699993-.857998.21-1.254s.3399987-.7439985.6-1.044.5739982-.5379991.942-.714.7839977-.264 1.248-.264c.4880024 0 .9259981.101999 1.314.306s.7099987.4739983.966.81.4419994.7219978.558 1.158.1460003.8859977.09 1.35zm5.604-3.456h1.284v1.2h.024c.0400002-.1680008.1179994-.3319992.234-.492s.2559992-.3059993.42-.438.345999-.2379996.546-.318.403999-.12.612-.12c.1600008 0 .2699997.004.33.012s.1219997.016.186.024v1.32c-.0960005-.0160001-.1939995-.0299999-.294-.042s-.1979995-.018-.294-.018c-.2320012 0-.449999.0459995-.654.138s-.3819992.2279991-.534.408-.2719996.4019987-.36.666-.132.5679983-.132.912v2.952h-1.368zm3.6 0h1.032v-1.86h1.368v1.86h1.236v1.02h-1.236v3.312c0 .1440007.0059999.2679995.018.372s.0399998.1919996.084.264.1099996.1259998.198.162.2079992.054.36.054c.0960005 0 .1919995-.002.288-.006s.1919995-.0179999.288-.042v1.056c-.1520008.0160001-.2999993.0319999-.444.048s-.2919992.024-.444.024c-.3600018 0-.6499989-.0339997-.87-.102s-.3919994-.1679993-.516-.3-.2079998-.297999-.252-.498-.07-.4279987-.078-.684v-3.66h-1.032zm4.656-2.364h1.368v1.296h-1.368zm0 2.364h1.368v6.204h-1.368zm6.672-2.364h1.368v1.296h-1.368zm-4.428 2.364h1.02v-.516c0-.392002.0479995-.7099988.144-.954s.2239992-.4319993.384-.564.341999-.2199998.546-.264.4179989-.066.642-.066c.4400022 0 .759999.0279997.96.084v1.068c-.0880004-.0240001-.1819995-.0419999-.282-.054s-.2179993-.018-.354-.018c-.1840009 0-.3419993.0439996-.474.132s-.198.2599987-.198.516v.636h1.164v1.02h-1.164v5.184h-1.368v-5.184h-1.02zm4.428 0h1.368v6.204h-1.368zm7.044 2.076c-.0560003-.3840019-.2099987-.673999-.462-.87s-.5699981-.294-.954-.294c-.1760009 0-.363999.0299997-.564.09s-.3839992.1719992-.552.336-.3079994.3919985-.42.684-.168.6739976-.168 1.146c0 .2560013.0299997.5119987.09.768s.1559993.483999.288.684.301999.3619994.51.486.4599985.186.756.186c.400002 0 .7299987-.1239988.99-.372s.4219997-.5959978.486-1.044h1.368c-.1280006.808004-.4339976 1.4259979-.918 1.854s-1.125996.642-1.926.642c-.4880024 0-.9179981-.0819992-1.29-.246s-.6859987-.3879986-.942-.672-.4499993-.622-.582-1.014c-.1320007-.392002-.198-.8159977-.198-1.272 0-.4640023.0639994-.899998.192-1.308s.3199987-.7619985.576-1.062.5739981-.5359991.954-.708.8259974-.258 1.338-.258c.3600018 0 .7019984.0459995 1.026.138s.6119987.2299991.864.414.4579992.4159986.618.696.2559998.6119981.288.996zm7.68 2.748c0 .1680008.0219998.2879996.066.36s.1299994.108.258.108h.144c.0560003 0 .1199996-.0079999.192-.024v.948c-.0480002.0160001-.1099996.0339999-.186.054s-.1539996.0379999-.234.054-.1599996.028-.24.036-.1479997.012-.204.012c-.2800014 0-.5119991-.0559994-.696-.168s-.3039997-.3079986-.36-.588c-.272.2640013-.605998.4559994-1.002.576s-.7779982.18-1.146.18c-.2800014 0-.5479987-.0379996-.804-.114s-.481999-.1879993-.678-.336-.3519994-.3359989-.468-.564-.174-.4939985-.174-.798c0-.3840019.0699993-.6959988.21-.936s.3239989-.4279993.552-.564.4839986-.2339997.768-.294.5699986-.1059998.858-.138c.2480012-.0480002.4839989-.0819999.708-.102s.4219991-.0539998.594-.102.3079995-.1219995.408-.222.15-.249999.15-.45c0-.1760009-.0419996-.3199994-.126-.432s-.1879994-.1979997-.312-.258-.2619992-.0999999-.414-.12-.2959993-.03-.432-.03c-.3840019 0-.6999988.0799992-.948.24s-.3879998.4079983-.42.744h-1.368c.0240001-.400002.1199992-.7319987.288-.996s.3819987-.4759992.642-.636.5539984-.2719997.882-.336.6639983-.096 1.008-.096c.3040015 0 .6039985.0319997.9.096s.5619988.1679993.798.312.4259993.3299989.57.558.216.5059984.216.834zm-1.368-1.728c-.208001.1360007-.4639985.2179999-.768.246s-.6079985.0699997-.912.126c-.1440007.0240001-.2839993.0579998-.42.102s-.2559995.1039996-.36.18-.1859997.1759994-.246.3-.09.2739991-.09.45c0 .1520008.0439996.2799995.132.384s.1939994.1859997.318.246.2599993.1019999.408.126.2819994.036.402.036c.1520008 0 .3159991-.0199998.492-.06s.3419992-.1079995.498-.204.2859995-.2179993.39-.366.156-.3299989.156-.546zm2.22-3.096h1.032v-1.86h1.368v1.86h1.236v1.02h-1.236v3.312c0 .1440007.0059999.2679995.018.372s.0399998.1919996.084.264.1099996.1259998.198.162.2079992.054.36.054c.0960005 0 .1919995-.002.288-.006s.1919995-.0179999.288-.042v1.056c-.1520008.0160001-.2999993.0319999-.444.048s-.2919992.024-.444.024c-.3600018 0-.6499989-.0339997-.87-.102s-.3919994-.1679993-.516-.3-.2079998-.297999-.252-.498-.07-.4279987-.078-.684v-3.66h-1.032zm8.88 2.556c-.0160001-.2160011-.0619996-.423999-.138-.624s-.1799993-.3739993-.312-.522-.2919991-.2679995-.48-.36-.3979988-.138-.63-.138c-.2400012 0-.457999.0419996-.654.126s-.3639993.1999993-.504.348-.2519996.321999-.336.522-.13.4159988-.138.648zm-3.192.9c0 .2400012.0339997.4719989.102.696s.1699993.4199992.306.588.307999.3019995.516.402c.208.1000005.4559986.15.744.15.400002 0 .7219988-.0859991.966-.258s.4259994-.4299983.546-.774h1.296c-.0720004.3360017-.1959991.6359987-.372.9s-.3879988.4859991-.636.666-.5259985.3159995-.834.408-.6299983.138-.966.138c-.4880024 0-.9199981-.0799992-1.296-.24s-.6939987-.3839986-.954-.672-.4559993-.631998-.588-1.032-.198-.8399976-.198-1.32c0-.4400022.0699993-.857998.21-1.254s.3399987-.7439985.6-1.044.5739982-.5379991.942-.714.7839977-.264 1.248-.264c.4880024 0 .9259981.101999 1.314.306s.7099987.4739983.966.81.4419994.7219978.558 1.158.1460003.8859977.09 1.35z" fill="#4a4a4a"/><g transform="translate(4)"><path d="m40.7631579.5h-40.2631579v53h48v-45.09756098h-7.7368421z" fill="#fff" stroke="#5c5c5c"/><g stroke="#4a4a4a" stroke-linecap="square"><path d="m7.717391 13.5h31.59781"/><path d="m7.717391 16.5h31.59781"/><path d="m7.717391 19.5h31.59781"/><path d="m7.717391 22.5h31.59781"/><path d="m7.717391 25.5h31.59781"/><path d="m7.717391 28.5h25.782609"/></g><circle cx="39.5" cy="46.5" fill="#4a4a4a" r="6.5"/><path d="m44 49v12l-4.5-5.8285714-4.5 5.8285714v-12z" fill="#4a4a4a"/><path d="m40.751953.306885 7.91919 8.027099" stroke="#4a4a4a"/></g></g><g transform="translate(96 111)"><path d="m1 1v83h212v-83z" fill="#fff" stroke="#979797" stroke-width="2"/><text fill="#4a4a4a" font-family="LucidaGrande, Lucida Grande" font-size="11"><tspan x="10" y="20">Host: grav-00.example.com</tspan> <tspan x="10" y="33">nodename: grav-00</tspan> <tspan x="10" y="46">cluster_name: webcluster</tspan> <tspan x="10" y="59">role:</tspan><tspan font-family="LucidaGrande-Bold, Lucida Grande" font-weight="bold" x="37.526856" y="59">node</tspan> <tspan x="65.510254" y="59"/><tspan x="10" y="72">TTL: Oct 8 11:32:17 2029 GMT</tspan></text></g></g></svg>