<?xml version="1.0" encoding="UTF-8"?>
<svg width="269px" height="337px" viewBox="0 0 269 337" version="1.1" xmlns="http://www.w3.org/2000/svg" xmlns:xlink="http://www.w3.org/1999/xlink">
    <!-- Generator: Sketch 59 (86127) - https://sketch.com -->
    <title>Node Service</title>
    <desc>Created with Sketch.</desc>
    <defs>
        <rect id="path-1" x="0" y="0" width="261" height="110" rx="10"></rect>
        <filter x="-2.7%" y="-4.5%" width="105.4%" height="112.7%" filterUnits="objectBoundingBox" id="filter-2">
            <feOffset dx="0" dy="2" in="SourceAlpha" result="shadowOffsetOuter1"></feOffset>
            <feGaussianBlur stdDeviation="2" in="shadowOffsetOuter1" result="shadowBlurOuter1"></feGaussianBlur>
            <feColorMatrix values="0 0 0 0 0   0 0 0 0 0   0 0 0 0 0  0 0 0 0.5 0" type="matrix" in="shadowBlurOuter1"></feColorMatrix>
        </filter>
        <rect id="path-3" x="0" y="0" width="230" height="95" rx="10"></rect>
        <filter x="-3.0%" y="-5.3%" width="106.1%" height="114.7%" filterUnits="objectBoundingBox" id="filter-4">
            <feOffset dx="0" dy="2" in="SourceAlpha" result="shadowOffsetOuter1"></feOffset>
            <feGaussianBlur stdDeviation="2" in="shadowOffsetOuter1" result="shadowBlurOuter1"></feGaussianBlur>
            <feColorMatrix values="0 0 0 0 0   0 0 0 0 0   0 0 0 0 0  0 0 0 0.5 0" type="matrix" in="shadowBlurOuter1"></feColorMatrix>
        </filter>
    </defs>
    <g id="Node-Service" stroke="none" stroke-width="1" fill="none" fill-rule="evenodd">
        <g id="Shadow-Box" transform="translate(4.000000, 221.000000)">
            <g>
                <use fill="black" fill-opacity="1" filter="url(#filter-2)" xlink:href="#path-1"></use>
                <use fill="#FFFFFF" fill-rule="evenodd" xlink:href="#path-1"></use>
            </g>
        </g>
        <g id="teleport-node" transform="translate(17.000000, 236.000000)">
            <path d="M10,1.5 C5.30557963,1.5 1.5,5.30557963 1.5,10 L1.5,70 C1.5,74.6944204 5.30557963,78.5 10,78.5 L220,78.5 C224.69442,78.5 228.5,74.6944204 228.5,70 L228.5,10 C228.5,5.30557963 224.69442,1.5 220,1.5 L10,1.5 Z" id="Rectangle-17" stroke="#3662A2" stroke-width="3" fill="#FFFFFF"></path>
            <path d="M63,33 L72.2282475,33 L72.2282475,34.6707182 L68.604005,34.6707182 L68.604005,44.0453039 L66.6082767,44.0453039 L66.6082767,34.6707182 L63,34.6707182 L63,33 Z M77.1936194,39.3425414 C77.1723315,39.064087 77.1111298,38.7959497 77.0100124,38.5381215 C76.908895,38.2802934 76.7705259,38.0559862 76.5949009,37.8651934 C76.4192759,37.6744005 76.2064004,37.5197059 75.9562679,37.401105 C75.7061353,37.282504 75.4267362,37.2232044 75.118062,37.2232044 C74.7987439,37.2232044 74.5087009,37.2773475 74.2479245,37.3856354 C73.987148,37.4939232 73.7636287,37.6434613 73.5773598,37.8342541 C73.3910909,38.025047 73.242078,38.2493541 73.1303167,38.5071823 C73.0185553,38.7650105 72.9573536,39.0434608 72.9467097,39.3425414 L77.1936194,39.3425414 Z M72.9467097,40.5027624 C72.9467097,40.8121562 72.9919457,41.1112324 73.0824192,41.4 C73.1728926,41.6887676 73.3086008,41.9414354 73.4895477,42.158011 C73.6704947,42.3745867 73.8993359,42.547329 74.1760783,42.6762431 C74.4528206,42.8051572 74.7827777,42.8696133 75.1659595,42.8696133 C75.6981563,42.8696133 76.1265684,42.7587488 76.4512085,42.5370166 C76.7758486,42.3152843 77.0179945,41.982691 77.1776536,41.5392265 L78.9019628,41.5392265 C78.8061673,41.9723779 78.6411888,42.3591143 78.4070222,42.6994475 C78.1728556,43.0397807 77.8907954,43.3259657 77.5608334,43.558011 C77.2308713,43.7900564 76.8610001,43.9653769 76.4512085,44.0839779 C76.0414169,44.2025789 75.6130048,44.2618785 75.1659595,44.2618785 C74.5166793,44.2618785 73.9419153,44.1587487 73.4416503,43.9524862 C72.9413852,43.7462236 72.518295,43.4574604 72.1723671,43.0861878 C71.8264391,42.7149153 71.5656666,42.2714575 71.3900416,41.7558011 C71.2144166,41.2401448 71.1266055,40.6729313 71.1266055,40.0541436 C71.1266055,39.4869217 71.2197385,38.9480689 71.4060074,38.4375691 C71.5922763,37.9270693 71.8583708,37.478455 72.2042987,37.0917127 C72.5502267,36.7049704 72.967995,36.3981595 73.4576161,36.1712707 C73.9472372,35.9443819 74.5007136,35.8309392 75.118062,35.8309392 C75.7673422,35.8309392 76.350089,35.9624296 76.86632,36.2254144 C77.3825509,36.4883991 77.810963,36.8364619 78.151569,37.2696133 C78.4921749,37.7027646 78.7396428,38.2003655 78.8939799,38.7624309 C79.048317,39.3244964 79.0882311,39.9046011 79.0137236,40.5027624 L72.9467097,40.5027624 Z M80.4506479,33 L82.2707521,33 L82.2707521,44.0453039 L80.4506479,44.0453039 L80.4506479,33 Z M89.9183828,39.3425414 C89.8970949,39.064087 89.8358932,38.7959497 89.7347758,38.5381215 C89.6336584,38.2802934 89.4952893,38.0559862 89.3196643,37.8651934 C89.1440393,37.6744005 88.9311638,37.5197059 88.6810313,37.401105 C88.4308987,37.282504 88.1514996,37.2232044 87.8428254,37.2232044 C87.5235073,37.2232044 87.2334643,37.2773475 86.9726879,37.3856354 C86.7119114,37.4939232 86.4883921,37.6434613 86.3021232,37.8342541 C86.1158543,38.025047 85.9668414,38.2493541 85.85508,38.5071823 C85.7433187,38.7650105 85.682117,39.0434608 85.671473,39.3425414 L89.9183828,39.3425414 Z M85.671473,40.5027624 C85.671473,40.8121562 85.7167091,41.1112324 85.8071826,41.4 C85.897656,41.6887676 86.0333642,41.9414354 86.2143111,42.158011 C86.3952581,42.3745867 86.6240993,42.547329 86.9008417,42.6762431 C87.177584,42.8051572 87.5075411,42.8696133 87.8907229,42.8696133 C88.4229197,42.8696133 88.8513318,42.7587488 89.1759719,42.5370166 C89.500612,42.3152843 89.7427579,41.982691 89.902417,41.5392265 L91.6267262,41.5392265 C91.5309307,41.9723779 91.3659522,42.3591143 91.1317856,42.6994475 C90.8976189,43.0397807 90.6155588,43.3259657 90.2855968,43.558011 C89.9556347,43.7900564 89.5857635,43.9653769 89.1759719,44.0839779 C88.7661803,44.2025789 88.3377682,44.2618785 87.8907229,44.2618785 C87.2414427,44.2618785 86.6666787,44.1587487 86.1664137,43.9524862 C85.6661486,43.7462236 85.2430584,43.4574604 84.8971305,43.0861878 C84.5512025,42.7149153 84.29043,42.2714575 84.114805,41.7558011 C83.93918,41.2401448 83.8513689,40.6729313 83.8513689,40.0541436 C83.8513689,39.4869217 83.9445019,38.9480689 84.1307708,38.4375691 C84.3170397,37.9270693 84.5831342,37.478455 84.9290621,37.0917127 C85.2749901,36.7049704 85.6927584,36.3981595 86.1823795,36.1712707 C86.6720006,35.9443819 87.225477,35.8309392 87.8428254,35.8309392 C88.4921056,35.8309392 89.0748524,35.9624296 89.5910833,36.2254144 C90.1073143,36.4883991 90.5357264,36.8364619 90.8763323,37.2696133 C91.2169383,37.7027646 91.4644062,38.2003655 91.6187433,38.7624309 C91.7730804,39.3244964 91.8129945,39.9046011 91.738487,40.5027624 L85.671473,40.5027624 Z M93.1754113,36.0475138 L94.8997205,36.0475138 L94.8997205,37.1303867 L94.9316522,37.1303867 C95.1871067,36.666296 95.5436732,36.3337027 96.0013625,36.1325967 C96.4590518,35.9314907 96.9539875,35.8309392 97.4861843,35.8309392 C98.1354645,35.8309392 98.7022457,35.9418037 99.1865448,36.1635359 C99.670844,36.3852681 100.072647,36.6895008 100.391965,37.0762431 C100.711283,37.4629854 100.950768,37.9141779 101.110427,38.4298343 C101.270086,38.9454906 101.349914,39.4972346 101.349914,40.0850829 C101.349914,40.6213655 101.278069,41.1421706 101.134376,41.6475138 C100.990682,42.152857 100.772485,42.5988931 100.479777,42.9856354 C100.187068,43.3723776 99.8171972,43.6817668 99.3701518,43.9138122 C98.9231065,44.1458575 98.3962395,44.2618785 97.789535,44.2618785 C97.5234366,44.2618785 97.2573422,44.2386743 96.9912437,44.1922652 C96.7251453,44.1458561 96.4696946,44.0710871 96.2248841,43.9679558 C95.9800735,43.8648245 95.7538933,43.7333341 95.5463365,43.5734807 C95.3387797,43.4136272 95.1658183,43.2254154 95.0274471,43.0088398 L94.9955155,43.0088398 L94.9955155,47 L93.1754113,47 L93.1754113,36.0475138 Z M99.5298101,40.0541436 C99.5298101,39.6931842 99.4819131,39.3425431 99.3861177,39.0022099 C99.2903222,38.6618768 99.1466312,38.3602223 98.9550403,38.0972376 C98.7634495,37.8342528 98.5239645,37.6228369 98.2365782,37.4629834 C97.9491919,37.30313 97.6192348,37.2232044 97.246697,37.2232044 C96.4803335,37.2232044 95.9029085,37.4810287 95.5144048,37.9966851 C95.1259011,38.5123414 94.9316522,39.1981541 94.9316522,40.0541436 C94.9316522,40.4563556 94.9822101,40.8302009 95.0833275,41.1756906 C95.1844449,41.5211804 95.3361188,41.8176783 95.5383536,42.0651934 C95.7405884,42.3127084 95.9827343,42.5086549 96.2647987,42.6530387 C96.546863,42.7974225 96.8741592,42.8696133 97.246697,42.8696133 C97.6618105,42.8696133 98.0130552,42.7871095 98.3004415,42.6220994 C98.5878278,42.4570894 98.8246518,42.2430952 99.0109207,41.9801105 C99.1971896,41.7171258 99.3302369,41.4180496 99.4100664,41.0828729 C99.4898959,40.7476963 99.5298101,40.40479 99.5298101,40.0541436 Z M106.666534,44.2618785 C106.00661,44.2618785 105.418542,44.1561705 104.902311,43.9447514 C104.38608,43.7333323 103.949685,43.4419908 103.593113,43.0707182 C103.236541,42.6994457 102.965125,42.2559878 102.778856,41.7403315 C102.592587,41.2246751 102.499454,40.6574617 102.499454,40.038674 C102.499454,39.4301995 102.592587,38.8681425 102.778856,38.3524862 C102.965125,37.8368298 103.236541,37.393372 103.593113,37.0220994 C103.949685,36.6508269 104.38608,36.3594854 104.902311,36.1480663 C105.418542,35.9366472 106.00661,35.8309392 106.666534,35.8309392 C107.326458,35.8309392 107.914527,35.9366472 108.430758,36.1480663 C108.946989,36.3594854 109.383384,36.6508269 109.739956,37.0220994 C110.096528,37.393372 110.367944,37.8368298 110.554213,38.3524862 C110.740482,38.8681425 110.833615,39.4301995 110.833615,40.038674 C110.833615,40.6574617 110.740482,41.2246751 110.554213,41.7403315 C110.367944,42.2559878 110.096528,42.6994457 109.739956,43.0707182 C109.383384,43.4419908 108.946989,43.7333323 108.430758,43.9447514 C107.914527,44.1561705 107.326458,44.2618785 106.666534,44.2618785 Z M106.666534,42.8696133 C107.071004,42.8696133 107.422249,42.7871095 107.720279,42.6220994 C108.018309,42.4570894 108.263116,42.240517 108.454707,41.9723757 C108.646298,41.7042344 108.787328,41.4025799 108.877801,41.0674033 C108.968275,40.7322267 109.013511,40.3893204 109.013511,40.038674 C109.013511,39.6983408 108.968275,39.3580128 108.877801,39.0176796 C108.787328,38.6773464 108.646298,38.3756919 108.454707,38.1127072 C108.263116,37.8497224 108.018309,37.6357283 107.720279,37.4707182 C107.422249,37.3057082 107.071004,37.2232044 106.666534,37.2232044 C106.262065,37.2232044 105.91082,37.3057082 105.61279,37.4707182 C105.31476,37.6357283 105.069953,37.8497224 104.878362,38.1127072 C104.686771,38.3756919 104.545741,38.6773464 104.455267,39.0176796 C104.364794,39.3580128 104.319558,39.6983408 104.319558,40.038674 C104.319558,40.3893204 104.364794,40.7322267 104.455267,41.0674033 C104.545741,41.4025799 104.686771,41.7042344 104.878362,41.9723757 C105.069953,42.240517 105.31476,42.4570894 105.61279,42.6220994 C105.91082,42.7871095 106.262065,42.8696133 106.666534,42.8696133 Z M112.350368,36.0475138 L114.058712,36.0475138 L114.058712,37.5944751 L114.090643,37.5944751 C114.143863,37.3778995 114.24764,37.1664835 114.401977,36.960221 C114.556314,36.7539585 114.74258,36.5657467 114.960781,36.3955801 C115.178982,36.2254135 115.421128,36.0887666 115.687226,35.9856354 C115.953325,35.8825041 116.224741,35.8309392 116.501483,35.8309392 C116.714362,35.8309392 116.860714,35.8360957 116.940543,35.8464088 C117.020373,35.856722 117.102862,35.8670349 117.188014,35.8773481 L117.188014,37.5790055 C117.060286,37.5583793 116.9299,37.5403316 116.796851,37.5248619 C116.663802,37.5093922 116.533416,37.5016575 116.405688,37.5016575 C116.097014,37.5016575 115.806971,37.560957 115.535551,37.679558 C115.26413,37.798159 115.027306,37.9734795 114.825071,38.2055249 C114.622837,38.4375702 114.46318,38.7237552 114.346097,39.0640884 C114.229013,39.4044216 114.170473,39.7963145 114.170473,40.239779 L114.170473,44.0453039 L112.350368,44.0453039 L112.350368,36.0475138 Z M117.140116,36.0475138 L118.513177,36.0475138 L118.513177,33.6497238 L120.333281,33.6497238 L120.333281,36.0475138 L121.977762,36.0475138 L121.977762,37.3624309 L120.333281,37.3624309 L120.333281,41.6320442 C120.333281,41.8176805 120.341264,41.9775316 120.35723,42.1116022 C120.373196,42.2456729 120.410449,42.3591156 120.468991,42.4519337 C120.527533,42.5447518 120.615344,42.6143644 120.732427,42.6607735 C120.84951,42.7071826 121.009167,42.7303867 121.211402,42.7303867 C121.339129,42.7303867 121.466854,42.7278085 121.594582,42.7226519 C121.722309,42.7174954 121.850034,42.6994477 121.977762,42.6685083 L121.977762,44.0298343 C121.775527,44.0504605 121.578617,44.0710865 121.387026,44.0917127 C121.195435,44.112339 120.998525,44.1226519 120.79629,44.1226519 C120.317313,44.1226519 119.931476,44.0788218 119.638768,43.9911602 C119.34606,43.9034986 119.117219,43.7745865 118.952238,43.6044199 C118.787256,43.4342533 118.675497,43.2202591 118.616955,42.9624309 C118.558414,42.7046028 118.523821,42.410683 118.513177,42.080663 L118.513177,37.3624309 L117.140116,37.3624309 L117.140116,36.0475138 Z M127.901083,33 L130.008572,33 L135.213431,41.1370166 L135.245363,41.1370166 L135.245363,33 L137.145296,33 L137.145296,44.0453039 L135.037807,44.0453039 L129.848914,35.9237569 L129.801016,35.9237569 L129.801016,44.0453039 L127.901083,44.0453039 L127.901083,33 Z M143.036686,44.2618785 C142.376762,44.2618785 141.788693,44.1561705 141.272462,43.9447514 C140.756231,43.7333323 140.319837,43.4419908 139.963265,43.0707182 C139.606693,42.6994457 139.335276,42.2559878 139.149008,41.7403315 C138.962739,41.2246751 138.869606,40.6574617 138.869606,40.038674 C138.869606,39.4301995 138.962739,38.8681425 139.149008,38.3524862 C139.335276,37.8368298 139.606693,37.393372 139.963265,37.0220994 C140.319837,36.6508269 140.756231,36.3594854 141.272462,36.1480663 C141.788693,35.9366472 142.376762,35.8309392 143.036686,35.8309392 C143.69661,35.8309392 144.284679,35.9366472 144.80091,36.1480663 C145.317141,36.3594854 145.753536,36.6508269 146.110108,37.0220994 C146.46668,37.393372 146.738096,37.8368298 146.924365,38.3524862 C147.110634,38.8681425 147.203767,39.4301995 147.203767,40.038674 C147.203767,40.6574617 147.110634,41.2246751 146.924365,41.7403315 C146.738096,42.2559878 146.46668,42.6994457 146.110108,43.0707182 C145.753536,43.4419908 145.317141,43.7333323 144.80091,43.9447514 C144.284679,44.1561705 143.69661,44.2618785 143.036686,44.2618785 Z M143.036686,42.8696133 C143.441156,42.8696133 143.7924,42.7871095 144.090431,42.6220994 C144.388461,42.4570894 144.633268,42.240517 144.824859,41.9723757 C145.01645,41.7042344 145.15748,41.4025799 145.247953,41.0674033 C145.338427,40.7322267 145.383663,40.3893204 145.383663,40.038674 C145.383663,39.6983408 145.338427,39.3580128 145.247953,39.0176796 C145.15748,38.6773464 145.01645,38.3756919 144.824859,38.1127072 C144.633268,37.8497224 144.388461,37.6357283 144.090431,37.4707182 C143.7924,37.3057082 143.441156,37.2232044 143.036686,37.2232044 C142.632217,37.2232044 142.280972,37.3057082 141.982942,37.4707182 C141.684911,37.6357283 141.440105,37.8497224 141.248514,38.1127072 C141.056923,38.3756919 140.915893,38.6773464 140.825419,39.0176796 C140.734946,39.3580128 140.68971,39.6983408 140.68971,40.038674 C140.68971,40.3893204 140.734946,40.7322267 140.825419,41.0674033 C140.915893,41.4025799 141.056923,41.7042344 141.248514,41.9723757 C141.440105,42.240517 141.684911,42.4570894 141.982942,42.6220994 C142.280972,42.7871095 142.632217,42.8696133 143.036686,42.8696133 Z M156.495878,44.0453039 L154.771568,44.0453039 L154.771568,42.9624309 L154.739637,42.9624309 C154.494826,43.4265217 154.13826,43.759115 153.669926,43.960221 C153.201593,44.161327 152.706657,44.2618785 152.185105,44.2618785 C151.535824,44.2618785 150.969043,44.151014 150.484744,43.9292818 C150.000445,43.7075495 149.598642,43.4058951 149.279324,43.0243094 C148.960006,42.6427237 148.720521,42.1915311 148.560862,41.6707182 C148.401203,41.1499053 148.321375,40.5904266 148.321375,39.9922652 C148.321375,39.2703463 148.42249,38.6464115 148.624725,38.120442 C148.82696,37.5944725 149.095715,37.1613277 149.431,36.8209945 C149.766284,36.4806613 150.14946,36.2305717 150.580539,36.0707182 C151.011618,35.9108648 151.450674,35.8309392 151.89772,35.8309392 C152.153174,35.8309392 152.413947,35.8541434 152.680045,35.9005525 C152.946144,35.9469616 153.201594,36.0217306 153.446405,36.1248619 C153.691215,36.2279931 153.917396,36.3594835 154.124952,36.519337 C154.332509,36.6791905 154.505471,36.8674022 154.643842,37.0839779 L154.675773,37.0839779 L154.675773,33 L156.495878,33 L156.495878,44.0453039 Z M150.141479,40.1314917 C150.141479,40.4718249 150.186715,40.8069965 150.277188,41.1370166 C150.367662,41.4670366 150.506031,41.7609564 150.6923,42.0187845 C150.878569,42.2766127 151.115393,42.4828722 151.402779,42.6375691 C151.690165,42.792266 152.030766,42.8696133 152.424592,42.8696133 C152.829062,42.8696133 153.177645,42.7871095 153.470354,42.6220994 C153.763062,42.4570894 154.002547,42.240517 154.188816,41.9723757 C154.375085,41.7042344 154.513454,41.4025799 154.603927,41.0674033 C154.694401,40.7322267 154.739637,40.3893204 154.739637,40.038674 C154.739637,39.1517451 154.534744,38.460776 154.124952,37.9657459 C153.715161,37.4707158 153.159023,37.2232044 152.456524,37.2232044 C152.030766,37.2232044 151.671539,37.3082864 151.37883,37.478453 C151.086122,37.6486196 150.846637,37.8703485 150.660368,38.1436464 C150.474099,38.4169443 150.341052,38.7263334 150.261222,39.0718232 C150.181393,39.417313 150.141479,39.7705323 150.141479,40.1314917 Z M164.143508,39.3425414 C164.12222,39.064087 164.061019,38.7959497 163.959901,38.5381215 C163.858784,38.2802934 163.720415,38.0559862 163.54479,37.8651934 C163.369165,37.6744005 163.156289,37.5197059 162.906157,37.401105 C162.656024,37.282504 162.376625,37.2232044 162.067951,37.2232044 C161.748633,37.2232044 161.45859,37.2773475 161.197813,37.3856354 C160.937037,37.4939232 160.713518,37.6434613 160.527249,37.8342541 C160.34098,38.025047 160.191967,38.2493541 160.080206,38.5071823 C159.968444,38.7650105 159.907242,39.0434608 159.896599,39.3425414 L164.143508,39.3425414 Z M159.896599,40.5027624 C159.896599,40.8121562 159.941835,41.1112324 160.032308,41.4 C160.122782,41.6887676 160.25849,41.9414354 160.439437,42.158011 C160.620384,42.3745867 160.849225,42.547329 161.125967,42.6762431 C161.40271,42.8051572 161.732667,42.8696133 162.115848,42.8696133 C162.648045,42.8696133 163.076457,42.7587488 163.401097,42.5370166 C163.725737,42.3152843 163.967883,41.982691 164.127542,41.5392265 L165.851852,41.5392265 C165.756056,41.9723779 165.591078,42.3591143 165.356911,42.6994475 C165.122744,43.0397807 164.840684,43.3259657 164.510722,43.558011 C164.18076,43.7900564 163.810889,43.9653769 163.401097,44.0839779 C162.991306,44.2025789 162.562894,44.2618785 162.115848,44.2618785 C161.466568,44.2618785 160.891804,44.1587487 160.391539,43.9524862 C159.891274,43.7462236 159.468184,43.4574604 159.122256,43.0861878 C158.776328,42.7149153 158.515555,42.2714575 158.33993,41.7558011 C158.164306,41.2401448 158.076494,40.6729313 158.076494,40.0541436 C158.076494,39.4869217 158.169627,38.9480689 158.355896,38.4375691 C158.542165,37.9270693 158.80826,37.478455 159.154188,37.0917127 C159.500116,36.7049704 159.917884,36.3981595 160.407505,36.1712707 C160.897126,35.9443819 161.450603,35.8309392 162.067951,35.8309392 C162.717231,35.8309392 163.299978,35.9624296 163.816209,36.2254144 C164.33244,36.4883991 164.760852,36.8364619 165.101458,37.2696133 C165.442064,37.7027646 165.689532,38.2003655 165.843869,38.7624309 C165.998206,39.3244964 166.03812,39.9046011 165.963612,40.5027624 L159.896599,40.5027624 Z" id="Teleport-Node" fill="#4A4A4A"></path>
        </g>
        <g id="Shadow-Box" transform="translate(17.000000, 2.500000)">
            <g>
                <use fill="black" fill-opacity="1" filter="url(#filter-4)" xlink:href="#path-3"></use>
                <use fill="#FFFFFF" fill-rule="evenodd" xlink:href="#path-3"></use>
            </g>
        </g>
        <g id="teleport-auth" transform="translate(32.000000, 12.000000)">
            <path d="M10,1.5 C5.30557963,1.5 1.5,5.30557963 1.5,10 L1.5,60 C1.5,64.6944204 5.30557963,68.5 10,68.5 L190,68.5 C194.69442,68.5 198.5,64.6944204 198.5,60 L198.5,10 C198.5,5.30557963 194.69442,1.5 190,1.5 L10,1.5 Z" id="Rectangle-17" stroke="#E1584E" stroke-width="3" fill="#FFFFFF"></path>
            <path d="M51,28 L60.248,28 L60.248,29.728 L56.616,29.728 L56.616,39.424 L54.616,39.424 L54.616,29.728 L51,29.728 L51,28 Z M65.224,34.56 C65.2026666,34.2719986 65.1413338,33.994668 65.04,33.728 C64.9386662,33.461332 64.8000009,33.2293343 64.624,33.032 C64.4479991,32.8346657 64.2346679,32.6746673 63.984,32.552 C63.7333321,32.4293327 63.4533349,32.368 63.144,32.368 C62.8239984,32.368 62.5333346,32.4239994 62.272,32.536 C62.0106654,32.6480006 61.7866676,32.8026657 61.6,33 C61.4133324,33.1973343 61.2640006,33.429332 61.152,33.696 C61.0399994,33.962668 60.9786667,34.2506651 60.968,34.56 L65.224,34.56 Z M60.968,35.76 C60.968,36.0800016 61.0133329,36.3893318 61.104,36.688 C61.1946671,36.9866682 61.3306658,37.2479989 61.512,37.472 C61.6933342,37.6960011 61.9226653,37.874666 62.2,38.008 C62.4773347,38.141334 62.8079981,38.208 63.192,38.208 C63.725336,38.208 64.154665,38.0933345 64.48,37.864 C64.805335,37.6346655 65.0479992,37.290669 65.208,36.832 L66.936,36.832 C66.8399995,37.2800022 66.6746678,37.6799982 66.44,38.032 C66.2053322,38.3840018 65.9226683,38.6799988 65.592,38.92 C65.2613317,39.1600012 64.8906687,39.3413327 64.48,39.464 C64.0693313,39.5866673 63.6400022,39.648 63.192,39.648 C62.5413301,39.648 61.9653358,39.5413344 61.464,39.328 C60.9626642,39.1146656 60.5386684,38.8160019 60.192,38.432 C59.8453316,38.0479981 59.5840009,37.589336 59.408,37.056 C59.2319991,36.522664 59.144,35.9360032 59.144,35.296 C59.144,34.7093304 59.2373324,34.1520026 59.424,33.624 C59.6106676,33.0959974 59.8773316,32.632002 60.224,32.232 C60.5706684,31.831998 60.9893309,31.5146678 61.48,31.28 C61.9706691,31.0453322 62.5253302,30.928 63.144,30.928 C63.7946699,30.928 64.3786641,31.0639986 64.896,31.336 C65.4133359,31.6080014 65.842665,31.9679978 66.184,32.416 C66.525335,32.8640022 66.7733326,33.3786638 66.928,33.96 C67.0826674,34.5413362 67.122667,35.1413302 67.048,35.76 L60.968,35.76 Z M68.488,28 L70.312,28 L70.312,39.424 L68.488,39.424 L68.488,28 Z M77.976,34.56 C77.9546666,34.2719986 77.8933338,33.994668 77.792,33.728 C77.6906662,33.461332 77.5520009,33.2293343 77.376,33.032 C77.1999991,32.8346657 76.9866679,32.6746673 76.736,32.552 C76.4853321,32.4293327 76.2053349,32.368 75.896,32.368 C75.5759984,32.368 75.2853346,32.4239994 75.024,32.536 C74.7626654,32.6480006 74.5386676,32.8026657 74.352,33 C74.1653324,33.1973343 74.0160006,33.429332 73.904,33.696 C73.7919994,33.962668 73.7306667,34.2506651 73.72,34.56 L77.976,34.56 Z M73.72,35.76 C73.72,36.0800016 73.7653329,36.3893318 73.856,36.688 C73.9466671,36.9866682 74.0826658,37.2479989 74.264,37.472 C74.4453342,37.6960011 74.6746653,37.874666 74.952,38.008 C75.2293347,38.141334 75.5599981,38.208 75.944,38.208 C76.477336,38.208 76.906665,38.0933345 77.232,37.864 C77.557335,37.6346655 77.7999992,37.290669 77.96,36.832 L79.688,36.832 C79.5919995,37.2800022 79.4266678,37.6799982 79.192,38.032 C78.9573322,38.3840018 78.6746683,38.6799988 78.344,38.92 C78.0133317,39.1600012 77.6426687,39.3413327 77.232,39.464 C76.8213313,39.5866673 76.3920022,39.648 75.944,39.648 C75.2933301,39.648 74.7173358,39.5413344 74.216,39.328 C73.7146642,39.1146656 73.2906684,38.8160019 72.944,38.432 C72.5973316,38.0479981 72.3360009,37.589336 72.16,37.056 C71.9839991,36.522664 71.896,35.9360032 71.896,35.296 C71.896,34.7093304 71.9893324,34.1520026 72.176,33.624 C72.3626676,33.0959974 72.6293316,32.632002 72.976,32.232 C73.3226684,31.831998 73.7413309,31.5146678 74.232,31.28 C74.7226691,31.0453322 75.2773302,30.928 75.896,30.928 C76.5466699,30.928 77.1306641,31.0639986 77.648,31.336 C78.1653359,31.6080014 78.594665,31.9679978 78.936,32.416 C79.277335,32.8640022 79.5253326,33.3786638 79.68,33.96 C79.8346674,34.5413362 79.874667,35.1413302 79.8,35.76 L73.72,35.76 Z M81.24,31.152 L82.968,31.152 L82.968,32.272 L83,32.272 C83.2560013,31.7919976 83.613331,31.448001 84.072,31.24 C84.530669,31.031999 85.026664,30.928 85.56,30.928 C86.2106699,30.928 86.7786642,31.0426655 87.264,31.272 C87.7493358,31.5013345 88.1519984,31.815998 88.472,32.216 C88.7920016,32.616002 89.0319992,33.082664 89.192,33.616 C89.3520008,34.149336 89.432,34.719997 89.432,35.328 C89.432,35.8826694 89.3600007,36.4213307 89.216,36.944 C89.0719993,37.4666693 88.8533348,37.928 88.56,38.328 C88.2666652,38.728002 87.8960022,39.0479988 87.448,39.288 C86.9999978,39.5280012 86.472003,39.648 85.864,39.648 C85.597332,39.648 85.330668,39.6240002 85.064,39.576 C84.797332,39.5279998 84.5413346,39.4506672 84.296,39.344 C84.0506654,39.2373328 83.824001,39.1013342 83.616,38.936 C83.407999,38.7706658 83.2346674,38.5760011 83.096,38.352 L83.064,38.352 L83.064,42.48 L81.24,42.48 L81.24,31.152 Z M87.608,35.296 C87.608,34.9226648 87.5600005,34.5600018 87.464,34.208 C87.3679995,33.8559982 87.224001,33.5440014 87.032,33.272 C86.839999,32.9999986 86.6000014,32.7813342 86.312,32.616 C86.0239986,32.4506658 85.6933352,32.368 85.32,32.368 C84.5519962,32.368 83.9733353,32.634664 83.584,33.168 C83.1946647,33.701336 83,34.4106622 83,35.296 C83,35.7120021 83.0506662,36.0986649 83.152,36.456 C83.2533338,36.8133351 83.4053323,37.1199987 83.608,37.376 C83.8106677,37.6320013 84.0533319,37.8346659 84.336,37.984 C84.6186681,38.1333341 84.9466648,38.208 85.32,38.208 C85.7360021,38.208 86.0879986,38.1226675 86.376,37.952 C86.6640014,37.7813325 86.9013324,37.5600014 87.088,37.288 C87.2746676,37.0159986 87.4079996,36.7066684 87.488,36.36 C87.5680004,36.0133316 87.608,35.6586685 87.608,35.296 Z M94.76,39.648 C94.0986634,39.648 93.5093359,39.5386678 92.992,39.32 C92.4746641,39.1013322 92.0373351,38.8000019 91.68,38.416 C91.3226649,38.0319981 91.0506676,37.573336 90.864,37.04 C90.6773324,36.506664 90.584,35.9200032 90.584,35.28 C90.584,34.6506635 90.6773324,34.069336 90.864,33.536 C91.0506676,33.002664 91.3226649,32.5440019 91.68,32.16 C92.0373351,31.7759981 92.4746641,31.4746678 92.992,31.256 C93.5093359,31.0373322 94.0986634,30.928 94.76,30.928 C95.4213366,30.928 96.0106641,31.0373322 96.528,31.256 C97.0453359,31.4746678 97.4826649,31.7759981 97.84,32.16 C98.1973351,32.5440019 98.4693324,33.002664 98.656,33.536 C98.8426676,34.069336 98.936,34.6506635 98.936,35.28 C98.936,35.9200032 98.8426676,36.506664 98.656,37.04 C98.4693324,37.573336 98.1973351,38.0319981 97.84,38.416 C97.4826649,38.8000019 97.0453359,39.1013322 96.528,39.32 C96.0106641,39.5386678 95.4213366,39.648 94.76,39.648 Z M94.76,38.208 C95.1653354,38.208 95.5173318,38.1226675 95.816,37.952 C96.1146682,37.7813325 96.359999,37.5573347 96.552,37.28 C96.744001,37.0026653 96.8853329,36.6906684 96.976,36.344 C97.0666671,35.9973316 97.112,35.6426685 97.112,35.28 C97.112,34.9279982 97.0666671,34.5760018 96.976,34.224 C96.8853329,33.8719982 96.744001,33.5600014 96.552,33.288 C96.359999,33.0159986 96.1146682,32.7946675 95.816,32.624 C95.5173318,32.4533325 95.1653354,32.368 94.76,32.368 C94.3546646,32.368 94.0026682,32.4533325 93.704,32.624 C93.4053318,32.7946675 93.160001,33.0159986 92.968,33.288 C92.775999,33.5600014 92.6346671,33.8719982 92.544,34.224 C92.4533329,34.5760018 92.408,34.9279982 92.408,35.28 C92.408,35.6426685 92.4533329,35.9973316 92.544,36.344 C92.6346671,36.6906684 92.775999,37.0026653 92.968,37.28 C93.160001,37.5573347 93.4053318,37.7813325 93.704,37.952 C94.0026682,38.1226675 94.3546646,38.208 94.76,38.208 Z M100.456,31.152 L102.168,31.152 L102.168,32.752 L102.2,32.752 C102.253334,32.5279989 102.357333,32.3093344 102.512,32.096 C102.666667,31.8826656 102.853332,31.6880009 103.072,31.512 C103.290668,31.3359991 103.533332,31.1946672 103.8,31.088 C104.066668,30.9813328 104.338665,30.928 104.616,30.928 C104.829334,30.928 104.976,30.9333333 105.056,30.944 C105.136,30.9546667 105.218666,30.9653333 105.304,30.976 L105.304,32.736 C105.175999,32.7146666 105.045334,32.6960001 104.912,32.68 C104.778666,32.6639999 104.648001,32.656 104.52,32.656 C104.210665,32.656 103.920001,32.7173327 103.648,32.84 C103.375999,32.9626673 103.138668,33.1439988 102.936,33.384 C102.733332,33.6240012 102.573334,33.9199982 102.456,34.272 C102.338666,34.6240018 102.28,35.029331 102.28,35.488 L102.28,39.424 L100.456,39.424 L100.456,31.152 Z M105.256,31.152 L106.632,31.152 L106.632,28.672 L108.456,28.672 L108.456,31.152 L110.104,31.152 L110.104,32.512 L108.456,32.512 L108.456,36.928 C108.456,37.120001 108.464,37.2853326 108.48,37.424 C108.496,37.5626674 108.533333,37.6799995 108.592,37.776 C108.650667,37.8720005 108.738666,37.9439998 108.856,37.992 C108.973334,38.0400002 109.133332,38.064 109.336,38.064 C109.464001,38.064 109.591999,38.0613334 109.72,38.056 C109.848001,38.0506666 109.975999,38.0320002 110.104,38 L110.104,39.408 C109.901332,39.4293334 109.704001,39.4506666 109.512,39.472 C109.319999,39.4933334 109.122668,39.504 108.92,39.504 C108.439998,39.504 108.053335,39.4586671 107.76,39.368 C107.466665,39.2773329 107.237334,39.1440009 107.072,38.968 C106.906666,38.7919991 106.794667,38.570668 106.736,38.304 C106.677333,38.037332 106.642667,37.733335 106.632,37.392 L106.632,32.512 L105.256,32.512 L105.256,31.152 Z M119.176,28 L121.304,28 L125.704,39.424 L123.56,39.424 L122.488,36.4 L117.928,36.4 L116.856,39.424 L114.792,39.424 L119.176,28 Z M118.472,34.88 L121.96,34.88 L120.248,29.968 L120.2,29.968 L118.472,34.88 Z M133.8,39.424 L132.008,39.424 L132.008,38.272 L131.976,38.272 C131.751999,38.6880021 131.418669,39.0213321 130.976,39.272 C130.533331,39.5226679 130.082669,39.648 129.624,39.648 C128.536,39.648 127.749336,39.3786694 127.264,38.84 C126.778664,38.3013306 126.536,37.4880054 126.536,36.4 L126.536,31.152 L128.36,31.152 L128.36,36.224 C128.36,36.949337 128.498665,37.4613318 128.776,37.76 C129.053335,38.0586682 129.442664,38.208 129.944,38.208 C130.328002,38.208 130.647999,38.1493339 130.904,38.032 C131.160001,37.9146661 131.367999,37.7573343 131.528,37.56 C131.688001,37.3626657 131.802666,37.1253347 131.872,36.848 C131.941334,36.5706653 131.976,36.2720016 131.976,35.952 L131.976,31.152 L133.8,31.152 L133.8,39.424 Z M134.888,31.152 L136.264,31.152 L136.264,28.672 L138.088,28.672 L138.088,31.152 L139.736,31.152 L139.736,32.512 L138.088,32.512 L138.088,36.928 C138.088,37.120001 138.096,37.2853326 138.112,37.424 C138.128,37.5626674 138.165333,37.6799995 138.224,37.776 C138.282667,37.8720005 138.370666,37.9439998 138.488,37.992 C138.605334,38.0400002 138.765332,38.064 138.968,38.064 C139.096001,38.064 139.223999,38.0613334 139.352,38.056 C139.480001,38.0506666 139.607999,38.0320002 139.736,38 L139.736,39.408 C139.533332,39.4293334 139.336001,39.4506666 139.144,39.472 C138.951999,39.4933334 138.754668,39.504 138.552,39.504 C138.071998,39.504 137.685335,39.4586671 137.392,39.368 C137.098665,39.2773329 136.869334,39.1440009 136.704,38.968 C136.538666,38.7919991 136.426667,38.570668 136.368,38.304 C136.309333,38.037332 136.274667,37.733335 136.264,37.392 L136.264,32.512 L134.888,32.512 L134.888,31.152 Z M141.048,28 L142.872,28 L142.872,32.24 L142.904,32.24 C143.128001,31.8666648 143.461331,31.5546679 143.904,31.304 C144.346669,31.0533321 144.839997,30.928 145.384,30.928 C146.290671,30.928 147.005331,31.1626643 147.528,31.632 C148.050669,32.1013357 148.312,32.8053286 148.312,33.744 L148.312,39.424 L146.488,39.424 L146.488,34.224 C146.466667,33.5733301 146.328001,33.1013348 146.072,32.808 C145.815999,32.5146652 145.416003,32.368 144.872,32.368 C144.562665,32.368 144.285335,32.4239994 144.04,32.536 C143.794665,32.6480006 143.586668,32.8026657 143.416,33 C143.245332,33.1973343 143.112,33.429332 143.016,33.696 C142.92,33.962668 142.872,34.2453318 142.872,34.544 L142.872,39.424 L141.048,39.424 L141.048,28 Z" id="Teleport-Auth" fill="#4A4A4A"></path>
        </g>
        <path id="Line" d="M132.5,82 L137,91 L133,91 L133,238 L132,238 L132,91 L128,91 L132.5,82 Z" fill="#979797" fill-rule="nonzero"></path>
        <g id="Group-3-Copy" transform="translate(43.000000, 134.000000)">
            <path d="M1,1 L1,38 L194,38 L194,1 L1,1 Z" id="Rectangle-Copy-5" stroke="#979797" stroke-width="2" fill="#FFFFFF"></path>
            <text id="IP:-10.X.X.1-Labels:" font-family="LucidaGrande, Lucida Grande" font-size="11" font-weight="normal" fill="#4A4A4A">
                <tspan x="10" y="16">IP: 10.X.X.1</tspan>
                <tspan x="10" y="29">Labels: arch=ubuntu,os=linux</tspan>
            </text>
        </g>
    </g>
</svg>