<svg height="384" viewBox="0 0 509 384" width="509" xmlns="http://www.w3.org/2000/svg" xmlns:xlink="http://www.w3.org/1999/xlink"><defs><rect id="a" height="127" rx="10" width="254" x="192" y="2"/><filter id="b" height="111%" width="105.5%" x="-2.8%" y="-3.9%"><feOffset dx="0" dy="2" in="SourceAlpha" result="shadowOffsetOuter1"/><feGaussianBlur in="shadowOffsetOuter1" result="shadowBlurOuter1" stdDeviation="2"/><feColorMatrix in="shadowBlurOuter1" type="matrix" values="0 0 0 0 0   0 0 0 0 0   0 0 0 0 0  0 0 0 0.5 0"/></filter><filter id="c" height="140%" width="116.3%" x="-8.2%" y="-12%"><feOffset dx="0" dy="1" in="SourceAlpha" result="shadowOffsetOuter1"/><feGaussianBlur in="shadowOffsetOuter1" result="shadowBlurOuter1" stdDeviation=".5"/><feColorMatrix in="shadowBlurOuter1" result="shadowMatrixOuter1" type="matrix" values="0 0 0 0 0   0 0 0 0 0   0 0 0 0 0  0 0 0 0.5 0"/><feMerge><feMergeNode in="shadowMatrixOuter1"/><feMergeNode in="SourceGraphic"/></feMerge></filter><path id="d" d="m12.819426 0h219.361148c4.457594 0 6.074025.46412806 7.703655 1.33566352 1.629629.87153546 2.908572 2.15047833 3.780107 3.78010796.871536 1.62962963 1.335664 3.24606082 1.335664 7.70365452v74.361148c0 4.4575937-.464128 6.0740249-1.335664 7.7036545-.871535 1.6296296-2.150478 2.9085725-3.780107 3.780108-1.62963.8715354-3.246061 1.3356635-7.703655 1.3356635h-219.361148c-4.4575937 0-6.07402489-.4641281-7.70365452-1.3356635-1.62962963-.8715355-2.9085725-2.1504784-3.78010796-3.780108s-1.33566352-3.2460608-1.33566352-7.7036545v-74.361148c0-4.4575937.46412806-6.07402489 1.33566352-7.70365452s2.15047833-2.9085725 3.78010796-3.78010796 3.24606082-1.33566352 7.70365452-1.33566352z"/><filter id="e" height="156%" width="122.9%" x="-11.4%" y="-20%"><feOffset dx="0" dy="8" in="SourceAlpha" result="shadowOffsetOuter1"/><feGaussianBlur in="shadowOffsetOuter1" result="shadowBlurOuter1" stdDeviation="8"/><feColorMatrix in="shadowBlurOuter1" type="matrix" values="0 0 0 0 0   0 0 0 0 0   0 0 0 0 0  0 0 0 0.103742074 0"/></filter></defs><g fill="none" fill-rule="evenodd"><use fill="#000" filter="url(#b)" xlink:href="#a"/><use fill="#fff" fill-rule="evenodd" xlink:href="#a"/><g filter="url(#c)" transform="translate(178 259)"><use fill="#000" filter="url(#e)" xlink:href="#d"/><use fill="#fff" fill-rule="evenodd" xlink:href="#d"/><g transform="translate(14 11)"><path d="m10 1.5c-4.69442037 0-8.5 3.80557963-8.5 8.5v60c0 4.6944204 3.80557963 8.5 8.5 8.5h200c4.69442 0 8.5-3.8055796 8.5-8.5v-60c0-4.69442037-3.80558-8.5-8.5-8.5z" fill="#fff" stroke="#40b6c6" stroke-width="3"/><path d="m57 33h9.248v1.728h-3.632v9.696h-2v-9.696h-3.616zm14.224 6.56c-.0213334-.2880014-.0826662-.565332-.184-.832s-.2399991-.4986657-.416-.696-.3893321-.3573327-.64-.48-.5306651-.184-.84-.184c-.3200016 0-.6106654.0559994-.872.168s-.4853324.2666657-.672.464-.3359994.429332-.448.696-.1733333.5546651-.184.864zm-4.256 1.2c0 .3200016.0453329.6293318.136.928s.2266658.5599989.408.784.4106653.402666.688.536.6079981.2.992.2c.533336 0 .962665-.1146655 1.288-.344s.5679992-.573331.728-1.032h1.728c-.0960005.4480022-.2613322.8479982-.496 1.2s-.5173317.6479988-.848.888-.7013313.4213327-1.112.544-.8399978.184-1.288.184c-.6506699 0-1.2266642-.1066656-1.728-.32s-.9253316-.5119981-1.272-.896-.6079991-.842664-.784-1.376-.264-1.1199968-.264-1.76c0-.5866696.0933324-1.1439974.28-1.672s.4533316-.991998.8-1.392.7653309-.7173322 1.256-.952 1.0453302-.352 1.664-.352c.6506699 0 1.2346641.1359986 1.752.408s.946665.6319978 1.288 1.08.5893326.9626638.744 1.544.194667 1.1813302.12 1.8zm7.52-7.76h1.824v11.424h-1.824zm9.488 6.56c-.0213334-.2880014-.0826662-.565332-.184-.832s-.2399991-.4986657-.416-.696-.3893321-.3573327-.64-.48-.5306651-.184-.84-.184c-.3200016 0-.6106654.0559994-.872.168s-.4853324.2666657-.672.464-.3359994.429332-.448.696-.1733333.5546651-.184.864zm-4.256 1.2c0 .3200016.0453329.6293318.136.928s.2266658.5599989.408.784.4106653.402666.688.536.6079981.2.992.2c.533336 0 .962665-.1146655 1.288-.344s.5679992-.573331.728-1.032h1.728c-.0960005.4480022-.2613322.8479982-.496 1.2s-.5173317.6479988-.848.888-.7013313.4213327-1.112.544-.8399978.184-1.288.184c-.6506699 0-1.2266642-.1066656-1.728-.32s-.9253316-.5119981-1.272-.896-.6079991-.842664-.784-1.376-.264-1.1199968-.264-1.76c0-.5866696.0933324-1.1439974.28-1.672s.4533316-.991998.8-1.392.7653309-.7173322 1.256-.952 1.0453302-.352 1.664-.352c.6506699 0 1.2346641.1359986 1.752.408s.946665.6319978 1.288 1.08.5893326.9626638.744 1.544.194667 1.1813302.12 1.8zm7.52-4.608h1.728v1.12h.032c.2560013-.4800024.613331-.823999 1.072-1.032s.954664-.312 1.488-.312c.6506699 0 1.2186642.1146655 1.704.344s.8879984.543998 1.208.944.5599992.866664.72 1.4.24 1.103997.24 1.712c0 .5546694-.0719993 1.0933307-.216 1.616s-.3626652.984-.656 1.384c-.2933348.400002-.6639978.7199988-1.112.96s-.975997.36-1.584.36c-.266668 0-.533332-.0239998-.8-.072s-.5226654-.1253328-.768-.232-.471999-.2426658-.68-.408-.3813326-.3599989-.52-.584h-.032v4.128h-1.824zm6.368 4.144c0-.3733352-.0479995-.7359982-.144-1.088s-.239999-.6639986-.432-.936-.4319986-.4906658-.72-.656-.6186648-.248-.992-.248c-.7680038 0-1.3466647.266664-1.736.8s-.584 1.2426622-.584 2.128c0 .4160021.0506662.8026649.152 1.16s.2533323.6639987.456.92.4453319.4586659.728.608.6106648.224.984.224c.4160021 0 .7679986-.0853325 1.056-.256s.5253324-.3919986.712-.664.3199996-.5813316.4-.928.12-.7013315.12-1.064zm7.152 4.352c-.661337 0-1.2506641-.1093322-1.768-.328s-.9546649-.5199981-1.312-.904-.6293324-.842664-.816-1.376-.28-1.1199968-.28-1.76c0-.6293365.0933324-1.210664.28-1.744s.4586649-.9919981.816-1.376.7946641-.6853322 1.312-.904 1.106663-.328 1.768-.328 1.250664.1093322 1.768.328.954665.5199981 1.312.904.629332.842664.816 1.376.28 1.1146635.28 1.744c0 .6400032-.093332 1.226664-.28 1.76s-.458665.9919981-.816 1.376-.794664.6853322-1.312.904-1.106663.328-1.768.328zm0-1.44c.405335 0 .757332-.0853325 1.056-.256s.543999-.3946653.736-.672.333333-.5893316.424-.936.136-.7013315.136-1.064c0-.3520018-.045333-.7039982-.136-1.056s-.231999-.6639986-.424-.936-.437332-.4933325-.736-.664-.650665-.256-1.056-.256-.757332.0853325-1.056.256c-.2986682.1706675-.543999.3919986-.736.664s-.3333329.5839982-.424.936-.136.7039982-.136 1.056c0 .3626685.0453329.7173316.136 1.064s.231999.6586653.424.936.4373318.5013325.736.672c.298668.1706675.650665.256 1.056.256zm5.696-7.056h1.712v1.6h.032c.053334-.2240011.157333-.4426656.312-.656s.341332-.4079991.56-.584.461332-.3173328.728-.424.538665-.16.816-.16c.213334 0 .36.0053333.44.016s.162666.0213333.248.032v1.76c-.128001-.0213334-.258666-.0399999-.392-.056s-.263999-.024-.392-.024c-.309335 0-.599999.0613327-.872.184s-.509332.3039988-.712.544-.362666.5359982-.48.888-.176.757331-.176 1.216v3.936h-1.824zm4.8 0h1.376v-2.48h1.824v2.48h1.648v1.36h-1.648v4.416c0 .192001.008.3573326.024.496s.053333.2559995.112.352.146666.1679998.264.216.277332.072.48.072c.128001 0 .255999-.0026666.384-.008s.255999-.0239998.384-.056v1.408c-.202668.0213334-.399999.0426666-.592.064s-.389332.032-.592.032c-.480002 0-.866665-.0453329-1.16-.136s-.522666-.2239991-.688-.4-.277333-.397332-.336-.664-.093333-.570665-.104-.912v-4.88h-1.376zm10.864-3.152h5.04c.810671 0 1.471997.1173322 1.984.352s.906665.5279982 1.184.88.466666.7359979.568 1.152.152.7999982.152 1.152-.050666.7333313-.152 1.144-.290665.7919982-.568 1.144-.671997.6426655-1.184.872-1.173329.344-1.984.344h-3.04v4.384h-2zm2 5.408h2.928c.224001 0 .453332-.0319997.688-.096s.450666-.1679993.648-.312.357333-.3359988.48-.576.184-.5413315.184-.904c0-.3733352-.053333-.6826654-.16-.928s-.250666-.4399993-.432-.584-.389332-.2426664-.624-.296-.485332-.08-.752-.08h-2.96zm8.416-2.256h1.712v1.6h.032c.053334-.2240011.157333-.4426656.312-.656s.341332-.4079991.56-.584.461332-.3173328.728-.424.538665-.16.816-.16c.213334 0 .36.0053333.44.016s.162666.0213333.248.032v1.76c-.128001-.0213334-.258666-.0399999-.392-.056s-.263999-.024-.392-.024c-.309335 0-.599999.0613327-.872.184s-.509332.3039988-.712.544-.362666.5359982-.48.888-.176.757331-.176 1.216v3.936h-1.824zm9.136 8.496c-.661337 0-1.250664-.1093322-1.768-.328s-.954665-.5199981-1.312-.904-.629332-.842664-.816-1.376-.28-1.1199968-.28-1.76c0-.6293365.093332-1.210664.28-1.744s.458665-.9919981.816-1.376.794664-.6853322 1.312-.904 1.106663-.328 1.768-.328 1.250664.1093322 1.768.328.954665.5199981 1.312.904.629332.842664.816 1.376.28 1.1146635.28 1.744c0 .6400032-.093332 1.226664-.28 1.76s-.458665.9919981-.816 1.376-.794664.6853322-1.312.904-1.106663.328-1.768.328zm0-1.44c.405335 0 .757332-.0853325 1.056-.256s.543999-.3946653.736-.672.333333-.5893316.424-.936.136-.7013315.136-1.064c0-.3520018-.045333-.7039982-.136-1.056s-.231999-.6639986-.424-.936-.437332-.4933325-.736-.664-.650665-.256-1.056-.256-.757332.0853325-1.056.256-.543999.3919986-.736.664-.333333.5839982-.424.936-.136.7039982-.136 1.056c0 .3626685.045333.7173316.136 1.064s.231999.6586653.424.936.437332.5013325.736.672.650665.256 1.056.256zm7.92-3.136-2.864-3.92h2.208l1.728 2.544 1.808-2.544h2.112l-2.816 3.824 3.168 4.448h-2.192l-2.096-3.056-2.032 3.056h-2.144zm5.456-3.92h2l2.16 6.176h.032l2.096-6.176h1.904l-3.216 8.72c-.149334.3733352-.295999.730665-.44 1.072s-.319999.6426654-.528.904-.466665.4693326-.776.624-.703998.232-1.184.232c-.426669 0-.847998-.0319997-1.264-.096v-1.536c.149334.0213334.293333.0453332.432.072s.282666.04.432.04c.213334 0 .389333-.0266664.528-.08s.253333-.1306662.344-.232.168-.2213326.232-.36.122666-.2986658.176-.48l.208-.64z" fill="#4a4a4a"/></g></g><g transform="translate(29 89)"><path d="m10 1.5c-4.69442037 0-8.5 3.80557963-8.5 8.5v45c0 4.6944204 3.80557963 8.5 8.5 8.5h103c4.69442 0 8.5-3.8055796 8.5-8.5v-45c0-4.69442037-3.80558-8.5-8.5-8.5z" fill="#fff" fill-rule="evenodd" stroke="#d8bb47" stroke-width="3"/><text fill="#4a4a4a" font-family="LucidaGrande, Lucida Grande" font-size="15" stroke="#979797"><tspan x="13.560551" y="38.5">DNS Resolver</tspan></text></g><g fill="#979797" fill-rule="nonzero"><path d="m115.205194 153.096157 8.941095 4.615931-3.231289 2.358912 68.283649 93.538038-.807687.589611-68.283962-93.538649-3.229894 2.358591z"/><path d="m310.001976 129.500004 4.464392 9.017716-4.000368-.01672-.46798 118.500972-.999992-.003952.467972-118.50002-3.999561-.015853z"/><path d="m341.001976 129.500004 4.464392 9.017716-4.000368-.01672-.46798 118.500972-.999992-.003952.467972-118.50002-3.999561-.015853z"/></g><g transform="translate(213 7)"><path d="m0 0h217v50h-217z"/><g fill="#4a4a4a" font-family="LucidaGrande, Lucida Grande" font-size="11"><text><tspan x="11" y="17">Nodename | IP | Labels</tspan> <tspan font-family="LucidaGrande-Bold, Lucida Grande" font-weight="bold" x="11" y="30">grav-00 10.X.X.0 arch=ubuntu</tspan> <tspan font-family="LucidaGrande-Bold, Lucida Grande" font-weight="bold" x="11" y="43">grav-01 10.X.X.1 arch=debian</tspan></text><text><tspan x="11" y="17">Nodename | IP | Labels</tspan> <tspan font-family="LucidaGrande-Bold, Lucida Grande" font-weight="bold" x="11" y="30">grav-00 10.X.X.0 arch=ubuntu</tspan> <tspan font-family="LucidaGrande-Bold, Lucida Grande" font-weight="bold" x="11" y="43">grav-01 10.X.X.1 arch=debian</tspan></text></g></g><g transform="translate(97 180)"><circle cx="13.5" cy="13.5" fill="#f26738" r="13.5"/><text fill="#fff" font-family="HelveticaNeue-Medium, Helvetica Neue" font-size="16" font-weight="400"><tspan x="9.052" y="20">1</tspan></text></g><g transform="translate(0 240)"><path d="m1.5 1.5h168v53h-168z" fill="#eef4f9" stroke="#d1eaff" stroke-width="3"/><text fill="#4a4a4a" font-family="LucidaGrande, Lucida Grande" font-size="13"><tspan x="8.00293" y="24">Please resolve “grav-00”</tspan><tspan x="47.612305" y="40">to a node IP</tspan></text></g><path d="m110.5 240-11.5-23h23z" fill="#d1eaff" stroke="#d1eaff" transform="matrix(1 0 0 -1 0 457)"/><g transform="translate(280 167)"><circle cx="13.5" cy="13.5" fill="#f26738" r="13.5"/><text fill="#fff" font-family="HelveticaNeue-Medium, Helvetica Neue" font-size="16" font-weight="400"><tspan x="9.052" y="20">2</tspan></text></g><g transform="translate(346 167)"><circle cx="13.5" cy="13.5" fill="#f26738" r="13.5"/><text fill="#fff" font-family="HelveticaNeue-Medium, Helvetica Neue" font-size="16" font-weight="400"><tspan x="9.052" y="20">3</tspan></text></g><g transform="translate(169 143)"><path d="m1.5 1.5h94v71h-94z" fill="#eef4f9" stroke="#d1eaff" stroke-width="3"/><text fill="#4a4a4a" font-family="LucidaGrande, Lucida Grande" font-size="13"><tspan x="13.662598" y="19">Please look</tspan><tspan x="7.086426" y="35">for “grav-00”</tspan><tspan x="6.949951" y="51">in your list of</tspan><tspan x="29.94751" y="67">nodes</tspan></text></g><g transform="translate(383 143)"><path d="m1.5 1.5h123v59h-123z" fill="#eef4f9" stroke="#d1eaff" stroke-width="3"/><text fill="#4a4a4a" font-family="LucidaGrande, Lucida Grande" font-size="13"><tspan x="15.563721" y="19">Please look for</tspan><tspan x="8.778076" y="35">“arch=debian” in</tspan><tspan x="6.810303" y="51">your list of nodes</tspan></text></g><path d="m272.5 189-6.5-13h13z" fill="#d1eaff" stroke="#d1eaff" transform="matrix(0 1 1 0 90 -90)"/><path d="m378.5 187-6.5-13h13z" fill="#d1eaff" stroke="#d1eaff" transform="matrix(0 -1 -1 0 559 559)"/><g transform="translate(205 62)"><path d="m10 1.5c-4.69442037 0-8.5 3.80557963-8.5 8.5v40c0 4.6944204 3.80557963 8.5 8.5 8.5h136c4.69442 0 8.5-3.8055796 8.5-8.5v-40c0-4.69442037-3.80558-8.5-8.5-8.5z" fill="#fff" stroke="#e1584e" stroke-width="3"/><path d="m39.78 24h7.21344v1.4811429h-2.83296v8.3108571h-1.56v-8.3108571h-2.82048zm11.09472 5.6228571c-.0166401-.2468583-.0644796-.4845702-.14352-.7131428s-.1871993-.4274277-.32448-.5965714-.303679-.3062852-.4992-.4114286-.4139188-.1577143-.6552-.1577143c-.2496012 0-.476319.0479995-.68016.144s-.3785593.2285706-.52416.3977143-.2620796.3679988-.34944.5965714-.1352.4754273-.14352.7405714zm-3.31968 1.0285715c0 .2742871.0353596.5394273.10608.7954285.0707204.2560013.1767993.4799991.31824.672.1414407.192001.3203189.3451423.53664.4594286s.4742385.1714286.77376.1714286c.4160021 0 .7508787-.0982847 1.00464-.2948572.2537613-.1965724.4430394-.4914266.56784-.8845714h1.34784c-.0748804.3840019-.2038391.7268556-.38688 1.0285714s-.4035187.5554276-.66144.7611429-.5470384.3611423-.86736.4662857-.6551983.1577143-1.00464.1577143c-.5075225 0-.956798-.0914277-1.34784-.2742857-.391042-.1828581-.7217586-.4388555-.99216-.768s-.4742393-.7222834-.61152-1.1794286c-.1372807-.4571451-.20592-.9599972-.20592-1.5085714 0-.5028597.0727993-.9805692.2184-1.4331429s.3535986-.850284.624-1.1931428c.2704014-.3428589.5969581-.6148562.97968-.816.3827219-.2011439.8153576-.3017143 1.29792-.3017143.5075225 0 .963038.1165702 1.36656.3497143.403522.233144.7383987.5417123 1.00464.9257143.2662413.3840019.4596794.8251403.58032 1.3234285s.1518403 1.0125688.0936 1.5428572zm5.8656-6.6514286h1.42272v9.792h-1.42272zm7.40064 5.6228571c-.0166401-.2468583-.0644796-.4845702-.14352-.7131428s-.1871993-.4274277-.32448-.5965714-.303679-.3062852-.4992-.4114286-.4139188-.1577143-.6552-.1577143c-.2496012 0-.476319.0479995-.68016.144s-.3785593.2285706-.52416.3977143-.2620796.3679988-.34944.5965714-.1352.4754273-.14352.7405714zm-3.31968 1.0285715c0 .2742871.0353596.5394273.10608.7954285.0707204.2560013.1767993.4799991.31824.672.1414407.192001.3203189.3451423.53664.4594286s.4742385.1714286.77376.1714286c.4160021 0 .7508787-.0982847 1.00464-.2948572.2537613-.1965724.4430394-.4914266.56784-.8845714h1.34784c-.0748804.3840019-.2038391.7268556-.38688 1.0285714s-.4035187.5554276-.66144.7611429-.5470384.3611423-.86736.4662857-.6551983.1577143-1.00464.1577143c-.5075225 0-.956798-.0914277-1.34784-.2742857-.391042-.1828581-.7217586-.4388555-.99216-.768s-.4742393-.7222834-.61152-1.1794286c-.1372807-.4571451-.20592-.9599972-.20592-1.5085714 0-.5028597.0727993-.9805692.2184-1.4331429s.3535986-.850284.624-1.1931428c.2704014-.3428589.5969581-.6148562.97968-.816.3827219-.2011439.8153576-.3017143 1.29792-.3017143.5075225 0 .963038.1165702 1.36656.3497143.403522.233144.7383987.5417123 1.00464.9257143.2662413.3840019.4596794.8251403.58032 1.3234285s.1518403 1.0125688.0936 1.5428572zm5.8656-3.9497143h1.34784v.96h.02496c.199681-.4114306.4783982-.7062848.83616-.8845714s.7446379-.2674286 1.16064-.2674286c.5075225 0 .9505581.0982847 1.32912.2948571s.6926388.466284.94224.8091429c.2496012.3428588.4367994.7428548.5616 1.2.1248006.4571451.1872.9462831.1872 1.4674286 0 .4754309-.0561594.9371406-.16848 1.3851428-.1123206.4480023-.2828789.8434286-.51168 1.1862857-.2288011.3428589-.5179183.6171419-.86736.8228572s-.7612776.3085714-1.23552.3085714c-.208001 0-.415999-.0205712-.624-.0617143-.208001-.041143-.407679-.1074281-.59904-.1988571-.191361-.0914291-.3681592-.2079993-.5304-.3497143s-.2974395-.3085705-.4056-.5005714h-.02496v3.5382857h-1.42272zm4.96704 3.552c0-.3200016-.0374396-.6308556-.11232-.9325714s-.1871993-.5691417-.33696-.8022858c-.1497607-.233144-.3369589-.4205707-.5616-.5622857s-.4825585-.2125714-.77376-.2125714c-.599043 0-1.0503985.2285691-1.35408.6857143-.3036815.4571451-.45552 1.065139-.45552 1.824 0 .3565732.0395196.6879985.11856.9942857s.1975992.5691418.35568.7885714c.1580808.2194297.3473589.3931422.56784.5211429.2204811.1280006.4763185.192.76752.192.3244816 0 .5990389-.0731421.82368-.2194286.2246411-.1462864.4097593-.3359988.55536-.5691428.1456007-.2331441.2495997-.4982843.312-.7954286.0624003-.2971444.0936-.6011413.0936-.912zm5.57856 3.7302857c-.5158426 0-.975518-.0937133-1.37904-.2811429-.403522-.1874295-.7446386-.4457126-1.02336-.7748571s-.4908793-.7222834-.63648-1.1794286c-.1456007-.4571451-.2184-.9599972-.2184-1.5085714 0-.5394313.0727993-1.037712.2184-1.4948571.1456007-.4571452.3577586-.8502841.63648-1.1794286s.619838-.5874276 1.02336-.7748572c.403522-.1874295.8631974-.2811428 1.37904-.2811428s.975518.0937133 1.37904.2811428c.403522.1874296.7446386.4457127 1.02336.7748572s.4908793.7222834.63648 1.1794286c.1456007.4571451.2184.9554258.2184 1.4948571 0 .5485742-.0727993 1.0514263-.2184 1.5085714-.1456007.4571452-.3577586.8502841-.63648 1.1794286s-.619838.5874276-1.02336.7748571c-.403522.1874296-.8631974.2811429-1.37904.2811429zm0-1.2342857c.3161616 0 .5907188-.0731421.82368-.2194286.2329612-.1462864.4243193-.3382845.57408-.576s.2599996-.5051414.33072-.8022857.10608-.6011413.10608-.912c0-.3017158-.0353596-.6034271-.10608-.9051429s-.1809593-.5691416-.33072-.8022857c-.1497607-.233144-.3411188-.4228564-.57408-.5691428-.2329612-.1462865-.5075184-.2194286-.82368-.2194286s-.5907188.0731421-.82368.2194286c-.2329612.1462864-.4243193.3359988-.57408.5691428-.1497607.2331441-.2599996.5005699-.33072.8022857s-.10608.6034271-.10608.9051429c0 .3108587.0353596.6148557.10608.912s.1809593.5645702.33072.8022857.3411188.4297136.57408.576c.2329612.1462865.5075184.2194286.82368.2194286zm4.44288-6.048h1.33536v1.3714286h.02496c.0416002-.192001.1227194-.3794277.24336-.5622858.1206406-.182858.2662391-.3497135.4368-.5005714s.359839-.2719995.56784-.3634286c.208001-.091429.4201589-.1371428.63648-.1371428.1664008 0 .2807997.0045714.3432.0137143s.1268797.0182856.19344.0274285v1.5085715c-.0998405-.0182858-.2017595-.0342857-.30576-.048-.1040005-.0137144-.2059195-.0205715-.30576-.0205715-.2412812 0-.4679989.0525709-.68016.1577143s-.3972792.2605704-.55536.4662857c-.1580808.2057154-.2828795.4594271-.3744.7611429s-.13728.6491409-.13728 1.0422857v3.3737143h-1.42272zm3.744 0h1.07328v-2.1257143h1.42272v2.1257143h1.28544v1.1657143h-1.28544v3.7851428c0 .1645723.0062399.3062851.01872.4251429.0124801.1188577.0415998.2194281.08736.3017143.0457602.0822861.1143995.1439998.20592.1851428.0915205.0411431.2163192.0617143.3744.0617143.0998405 0 .1996795-.0022857.29952-.0068571.0998405-.0045715.1996795-.0205713.29952-.048v1.2068571c-.1580808.0182858-.3119993.0365714-.46176.0548572s-.3036792.0274285-.46176.0274285c-.3744019 0-.6759989-.0388567-.9048-.1165714s-.4076794-.1919992-.53664-.3428571-.2163198-.3405703-.26208-.5691429-.0728-.4891414-.08112-.7817143v-4.1828571h-1.07328zm10.8576-2.7017143h1.65984l3.432 9.792h-1.67232l-.83616-2.592h-3.5568l-.83616 2.592h-1.60992zm-.54912 5.8971429h2.72064l-1.33536-4.2102858h-.03744zm11.95584 3.8948571h-1.39776v-.9874286h-.02496c-.174721.3565732-.434718.6422847-.78.8571429s-.696798.3222857-1.05456.3222857c-.848644 0-1.4622381-.2308548-1.8408-.6925714s-.56784-1.1588525-.56784-2.0914286v-4.4982857h1.42272v4.3474286c0 .6217174.108159 1.0605701.32448 1.3165714s.519998.384.91104.384c.299521 0 .549119-.0502852.7488-.1508572.199681-.1005719.361919-.2354277.48672-.4045714s.21424-.3725702.26832-.6102857.08112-.4937129.08112-.768v-4.1142857h1.42272zm.84864-7.0902857h1.07328v-2.1257143h1.42272v2.1257143h1.28544v1.1657143h-1.28544v3.7851428c0 .1645723.00624.3062851.01872.4251429.01248.1188577.0416.2194281.08736.3017143.04576.0822861.1144.1439998.20592.1851428.09152.0411431.216319.0617143.3744.0617143.09984 0 .19968-.0022857.29952-.0068571.09984-.0045715.19968-.0205713.29952-.048v1.2068571c-.158081.0182858-.311999.0365714-.46176.0548572s-.303679.0274285-.46176.0274285c-.374402 0-.675999-.0388567-.9048-.1165714s-.407679-.1919992-.53664-.3428571-.21632-.3405703-.26208-.5691429-.0728-.4891414-.08112-.7817143v-4.1828571h-1.07328zm4.8048-2.7017143h1.42272v3.6342857h.02496c.174721-.3200016.434718-.5874275.78-.8022857s.730078-.3222857 1.1544-.3222857c.707204 0 1.264638.2011408 1.67232.6034286.407682.4022877.61152 1.0057102.61152 1.8102857v4.8685714h-1.42272v-4.4571429c-.01664-.557717-.124799-.9622844-.32448-1.2137142-.199681-.2514299-.511678-.3771429-.936-.3771429-.241281 0-.457599.0479995-.64896.144s-.353599.2285706-.48672.3977143-.23712.3679988-.312.5965714-.11232.4708559-.11232.7268572v4.1828571h-1.42272z" fill="#4a4a4a"/></g></g></svg>