<svg height="424.79" width="1146.17" xmlns="http://www.w3.org/2000/svg" xmlns:xlink="http://www.w3.org/1999/xlink"><defs><linearGradient id="a"><stop offset="0" stop-color="#354aaa"/><stop offset="1" stop-color="#651fff"/></linearGradient><linearGradient id="b" gradientUnits="userSpaceOnUse" x1="610" x2="610" xlink:href="#a" y1="648.61" y2="570"/><path id="c" d="m395-1486v1486h-247v-1486z" fill="#333"/><path id="d" d="m991-153c-92 106-231 168-423 168-331 0-505-212-505-550 0-237 116-392 287-467 61-27 129-40 206-40 287 0 444 174 444 465 0 54-3 95-57 95h-634c4 226 158 349 385 292 52-13 93-39 132-62 32-19 73-16 93 9zm-213-478c-4-143-73-234-217-234-154 0-226 95-247 234z" fill="#333"/><path id="e" d="m605-850c-102 1-168 52-226 108v742h-247v-1026c80 9 198-29 214 45l17 81c77-76 165-142 317-142 235 0 346 154 346 389v653h-247v-653c0-121-55-198-174-197" fill="#333"/><path id="f" d="m738-75c-64 55-158 90-269 91-176 2-277-109-277-284v-573c-65-4-153 21-153-52v-98l165-27 52-280c10-66 115-35 183-42v323h270v176h-270v556c-1 59 32 101 88 102 48 1 68-25 104-34 19 1 25 9 33 22" fill="#333"/><path id="g" d="m635 15c-121 0-193-40-256-100v420h-247v-1361c64 5 145-11 192 11 33 24 28 86 42 129 78-86 174-159 331-159 277 0 379 232 379 524 0 241-96 412-258 495-54 27-116 41-183 41zm186-536c0-181-37-329-209-329-117 0-175 55-233 124v460c48 60 104 93 198 93 188 0 244-152 244-348" fill="#333"/><path id="h" d="m361-1005c121-49 297-49 417 0 184 74 298 236 298 490 0 330-178 530-506 530-329 0-509-200-509-530 0-254 115-416 300-490zm-45 492c0 201 65 338 254 338 188 0 251-137 251-338s-63-340-251-340c-189 0-254 139-254 340" fill="#333"/><path id="i" d="m604-806c-122 5-180 74-225 167v639h-247v-1026c83 11 206-35 218 62l15 124c63-106 147-205 295-205 51 0 93 12 126 35l-32 185c-4 23-15 33-40 33-33 0-65-16-110-14" fill="#333"/><g id="j"><path d="m1165-1446v221h-435v1225h-269v-1225h-437v-221z" fill="#333" transform="scale(.009)"/><use transform="matrix(.009 0 0 .009 8.874 0)" xlink:href="#d"/><use transform="matrix(.009 0 0 .009 18.495 0)" xlink:href="#c"/><use transform="matrix(.009 0 0 .009 23.373 0)" xlink:href="#d"/><use transform="matrix(.009 0 0 .009 32.994 0)" xlink:href="#g"/><use transform="matrix(.009 0 0 .009 43.173 0)" xlink:href="#h"/><use transform="matrix(.009 0 0 .009 53.406 0)" xlink:href="#i"/><use transform="matrix(.009 0 0 .009 60.759 0)" xlink:href="#f"/></g><linearGradient id="k"><stop offset="0"/><stop offset=".8739" stop-color="#333"/><stop offset=".9874" stop-color="#333"/></linearGradient><linearGradient id="l" gradientUnits="userSpaceOnUse" x1="429.3" x2="204.53" xlink:href="#k" y1="430.77" y2="430.77"/><path id="m" d="m43-415v-127h161v-142h140v142h207v127h-207v230c-7 84 127 45 199 54l24 131h-181c-115 0-182-44-182-156v-259z" fill="#4cf66e"/><path id="n" d="m228-180c-1 44-3 64 58 64 53 0 145 14 135-44 2-45-6-61-69-62h-85c-136 1-172-49-172-172 0-149 137-152 288-148 135 4 173 52 171 138l-133 34c1-41 0-58-57-58s-136-21-136 53c0 31 15 43 70 43h77c136 0 179 58 179 184 0 149-136 153-287 148-142-4-176-54-172-150" fill="#4cf66e"/><path id="o" d="m574 0h-141v-338c5-73-46-75-117-75-51 0-95 25-95 82v331h-140v-684h140v189h3c23-39 112-47 194-47 99 0 156 52 156 163z" fill="#4cf66e"/><path id="p" d="m493-246h-337v-129h337z" fill="#4cf66e"/><path id="q" d="m386 0h-122c-115 0-182-47-182-158v-226c0-111 67-158 182-158h122c115 0 182 47 182 158v226c0 111-67 158-182 158zm-164-185c-10 69 83 54 145 54 45 0 61-17 61-55v-173c10-69-83-54-145-54-45 0-61 17-61 54z" fill="#4cf66e"/><path id="r" d="m596-337-141 36c2-64 3-112-64-112-76 0-139 9-139 82v331h-140v-542h140v47h3c22-37 105-47 185-47 114 0 167 72 156 205" fill="#4cf66e"/><path id="s" d="m591 0h-527v-113l345-300c32-29 30-42 30-88 0-77-103-49-169-54s-63 43-61 102l-140-36c-11-135 53-195 182-195h146c115 0 182 47 182 158 0 95-6 139-68 193-77 67-155 133-229 202h309z" fill="#4cf66e"/><path id="t" d="m519-204c146 0 246-70 241-211-6-175-195-185-333-232-183-63-339-153-333-400 5-199 120-319 272-380 126-51 311-44 437 5 72 27 133 64 184 112l-66 127c-15 40-64 51-105 25-64-41-136-87-246-85-132 3-224 54-224 182 0 167 202 176 334 227 173 67 333 144 333 381 0 227-120 364-289 433-138 56-353 39-478-16-80-35-154-80-210-138l78-129c23-34 74-43 115-13 73 54 157 112 290 112" fill="#333"/><linearGradient id="u" gradientUnits="userSpaceOnUse" x1="1286.19" x2="973.81" xlink:href="#k" y1="439.59" y2="439.59"/><path id="v" d="m78 0v-131h202v-424h-182v-129h322v553h172v131z" fill="#4cf66e"/><path id="w" d="m402-360h-155v-146h155zm0 360h-155v-146h155z" fill="#4cf66e"/><path id="x" d="m559-374v150h-336c-1 60-7 111 61 108 57-3 150 14 142-47v-25l133 25c16 162-125 163-287 163-115 0-182-47-182-158v-226c0-111 67-158 182-158h105c115 0 182 57 182 168zm-275-54c-72-1-60 40-61 97h203c0-57 9-97-61-97z" fill="#4cf66e"/><path id="y" d="m78-542h141v336c-5 73 46 75 117 75 51 0 95-25 95-82v-329h140v542h-140v-46h-3c-23 38-112 46-194 46-100 0-156-51-156-163z" fill="#4cf66e"/><linearGradient id="z" gradientUnits="userSpaceOnUse" x1="615" x2="615" xlink:href="#a" y1="455.21" y2="345.21"/><path id="A" d="m991-153c-92 106-231 168-423 168-331 0-505-212-505-550 0-237 116-392 287-467 61-27 129-40 206-40 287 0 444 174 444 465 0 54-3 95-57 95h-634c4 226 158 349 385 292 52-13 93-39 132-62 32-19 73-16 93 9zm-213-478c-4-143-73-234-217-234-154 0-226 95-247 234z" fill="#fff"/><path id="B" d="m928-153c-89 104-216 168-404 168-227 0-358-131-424-305-47-123-49-306-4-434 67-190 213-318 465-318 165 0 270 58 357 143-29 37-52 81-86 112-71 26-104-41-170-55-24-5-52-12-86-12-192 5-260 143-260 339 0 194 67 336 254 342 98 3 148-38 200-79 26-20 67-17 87 9" fill="#fff"/><path id="C" d="m604-806c-122 5-180 74-225 167v639h-247v-1026c83 11 206-35 218 62l15 124c63-106 147-205 295-205 51 0 93 12 126 35l-32 185c-4 23-15 33-40 33-33 0-65-16-110-14" fill="#fff"/><path id="D" d="m496 282c-21 85-170 43-266 53l192-411-415-950h216c39-1 60 21 70 46 80 195 164 386 238 586 7 18 10 37 14 56 74-221 164-427 244-642 9-24 36-46 68-46h198" fill="#fff"/><path id="E" d="m635 15c-121 0-193-40-256-100v420h-247v-1361c64 5 145-11 192 11 33 24 28 86 42 129 78-86 174-159 331-159 277 0 379 232 379 524 0 241-96 412-258 495-54 27-116 41-183 41zm186-536c0-181-37-329-209-329-117 0-175 55-233 124v460c48 60 104 93 198 93 188 0 244-152 244-348" fill="#fff"/><path id="F" d="m738-75c-64 55-158 90-269 91-176 2-277-109-277-284v-573c-65-4-153 21-153-52v-98l165-27 52-280c10-66 115-35 183-42v323h270v176h-270v556c-1 59 32 101 88 102 48 1 68-25 104-34 19 1 25 9 33 22" fill="#fff"/><path id="G" d="m502-1045c120-1 193 43 256 101v-542h247v1486c-80-9-199 29-214-45l-20-99c-78 86-170 159-330 159-278 0-380-232-380-525 0-241 98-411 259-494 54-27 115-41 182-41zm-186 535c0 181 36 329 209 329 118 0 173-54 233-123v-460c-48-59-104-93-198-93-188 0-244 151-244 347" fill="#fff"/><linearGradient id="H" gradientUnits="userSpaceOnUse" x1="775" x2="775" xlink:href="#a" y1="483.39" y2="347.02"/><path id="I" d="m375-413c-107-27-178 30-178 133 0 83 34 125 101 125 30 0 58-10 77-20zm-62-125c77 0 150 13 211 30v442c-1 176-89 254-268 254-67 0-134-14-185-31l26-125c47 18 95 30 161 30 84 0 121-38 117-119-31 14-62 22-105 22-148 1-228-95-225-245 3-167 100-258 268-258" fill="#999"/><path id="J" d="m323 14c-179 0-278-97-278-273 0-170 90-275 252-281 176-6 262 133 239 326h-338c8 66 67 100 145 100 51 0 111-11 145-26l20 121c-48 21-115 33-185 33zm72-330c13-111-157-138-187-38-4 12-8 25-10 38z" fill="#999"/><path id="K" d="m285-411c-21 0-48 2-66 5v406h-149v-508c57-16 146-30 224-30 161 0 230 83 230 241v297h-149v-279c-2-87-10-129-90-132" fill="#999"/><path id="L" d="m70-498c86-33 237-58 342-19l-25 123c-45-13-116-24-168-8v402h-149z" fill="#999"/></defs><g transform="translate(-173.827399 -255.206752)"><path d="m0 0h1760v1360h-1760z" fill="#fff"/><g display="block"><path d="m600 568c0-4.42 3.58-8 8-8h224c4.42 0 8 3.58 8 8v84c0 4.42-3.58 8-8 8h-224c-4.42 0-8-3.58-8-8z" fill="#fff" stroke="#651fff" stroke-width="2"/><path d="m610 578c0-4.42 3.58-8 8-8h204c4.42 0 8 3.58 8 8v62.6c0 4.43-3.58 8-8 8h-204c-4.42 0-8-3.57-8-8z" fill="url(#b)"/><path d="m193.83 343.2c0-4.4 3.58-8 8-8h230.17c4.42 0 8 3.6 8 8v144c0 4.43-3.58 8-8 8h-230.17c-4.42 0-8-3.57-8-8z" fill="#fff" stroke="#651fff" stroke-width="2"/><path d="m200 275.2h240v60h-240z" fill="none"/><g transform="translate(295.6775 313.597752)"><path d="m1284-209c-114 140-276 228-525 225-347-4-553-182-649-442-66-178-66-423 6-596 108-261 330-435 688-440 220-3 375 79 488 188l-90 125c-16 32-68 39-102 12-71-55-162-101-298-96-304 11-465 201-465 510 0 241 101 401 267 477 125 58 330 39 424-24 42-17 97-111 150-54" fill="#333" transform="scale(.009)"/><use transform="matrix(.009 0 0 .009 12.069 0)" xlink:href="#c"/><path d="m395-1026v1026h-247v-1026zm-123-457c96 0 160 62 160 158 0 94-65 155-160 155-93 0-156-62-156-155 0-95 61-158 156-158" fill="#333" transform="matrix(.009 0 0 .009 16.947 0)"/><use transform="matrix(.009 0 0 .009 21.825 0)" xlink:href="#d"/><use transform="matrix(.009 0 0 .009 31.446 0)" xlink:href="#e"/><use transform="matrix(.009 0 0 .009 41.679 0)" xlink:href="#f"/></g><path d="m600 343.2c0-4.4 3.58-8 8-8h224c4.42 0 8 3.6 8 8v144c0 4.43-3.58 8-8 8h-224c-4.42 0-8-3.57-8-8z" fill="#fff" stroke="#651fff" stroke-width="2"/><path d="m600 275.2h240v60h-240z" fill="none"/><use transform="translate(660.591 313.597752)" xlink:href="#j"/><g transform="translate(731.79 313.597752)"><path d="m1187-985c0 329-222 471-561 476h-202v509h-269v-1446h471c337 4 561 134 561 461zm-269 0c0-176-112-253-292-253h-202v519h202c184-1 292-85 292-266" fill="#333" transform="scale(.009)"/><use transform="matrix(.009 0 0 .009 11.25 0)" xlink:href="#i"/><use transform="matrix(.009 0 0 .009 18.603 0)" xlink:href="#h"/><g fill="#333"><path d="m375-529-337-497h238c37 0 48 9 63 32l215 343c8-25 17-47 31-68l173-270c15-21 26-37 57-37h227l-338 486 352 540h-238c-37 1-57-23-71-46l-218-357c-6 24-14 44-25 60l-192 297c-14 20-33 47-67 46h-221" transform="matrix(.009 0 0 .009 28.296 0)"/><path d="m496 282c-21 85-170 43-266 53l192-411-415-950h216c39-1 60 21 70 46 80 195 164 386 238 586 7 18 10 37 14 56 74-221 164-427 244-642 9-24 36-46 68-46h198" transform="matrix(.009 0 0 .009 38.016 0)"/></g></g><path d="m600 385.2h240v60h-240z" fill="none"/><path d="m204.53 358.77c0-4.42 3.58-8 8-8h208.77c4.42 0 8 3.58 8 8v64c0 4.42-3.58 8-8 8h-208.77c-4.42 0-8-3.58-8-8z" fill="url(#l)"/><path d="m215.7 349.6h204.3v47.85h-204.3z" fill="none"/><g transform="translate(220.713062 378.475829)"><use transform="scale(.01577778)" xlink:href="#m"/><use transform="matrix(.01577778 0 0 .01577778 10.255556 0)" xlink:href="#n"/><use transform="matrix(.01577778 0 0 .01577778 20.511111 0)" xlink:href="#o"/></g><g transform="translate(261.735284 378.475829)"><use transform="scale(.01577778)" xlink:href="#n"/><use transform="matrix(.01577778 0 0 .01577778 10.255556 0)" xlink:href="#n"/><use transform="matrix(.01577778 0 0 .01577778 20.511111 0)" xlink:href="#o"/></g><g transform="translate(302.757506 378.475829)"><use transform="scale(.01577778)" xlink:href="#p"/><use transform="matrix(.01577778 0 0 .01577778 10.255556 0)" xlink:href="#p"/><path d="m229-542v47h3c23-40 112-47 194-47 98 0 155 52 155 163v216c1 138-83 163-221 163-65 0-107-21-128-46h-3v257h-141v-753zm0 329c2 75 65 82 142 82 99 0 64-122 70-207 5-72-47-75-118-75-50 0-94 25-94 82z" fill="#4cf66e" transform="matrix(.01577778 0 0 .01577778 20.511111 0)"/><use transform="matrix(.01577778 0 0 .01577778 30.766667 0)" xlink:href="#q"/><use transform="matrix(.01577778 0 0 .01577778 41.022222 0)" xlink:href="#r"/><use transform="matrix(.01577778 0 0 .01577778 51.277778 0)" xlink:href="#m"/><path d="m542-140h-434v-129h434zm0-210h-434v-129h434z" fill="#4cf66e" transform="matrix(.01577778 0 0 .01577778 61.533333 0)"/><use transform="matrix(.01577778 0 0 .01577778 71.788889 0)" xlink:href="#s"/><use transform="matrix(.01577778 0 0 .01577778 82.044444 0)" xlink:href="#s"/></g><path d="m960 343.2c0-4.4 3.58-8 8-8h324c4.42 0 8 3.6 8 8v144c0 4.43-3.58 8-8 8h-324c-4.42 0-8-3.57-8-8z" fill="#fff" stroke="#651fff" stroke-width="2"/><path d="m1010 275.2h240v60h-240z" fill="none"/><g transform="translate(1063.1345 313.597752)"><path d="m1480-1018c71 176 71 414 0 590-106 261-323 444-679 444s-576-184-681-444c-71-176-71-414 0-590 106-261 324-444 681-444 355 0 573 184 679 444zm-679 804c307 0 456-198 456-509s-149-510-456-510c-308 0-459 198-459 510s152 509 459 509" fill="#333" transform="scale(.009)"/><use transform="matrix(.009 0 0 .009 14.391 0)" xlink:href="#g"/><use transform="matrix(.009 0 0 .009 24.57 0)" xlink:href="#d"/><use transform="matrix(.009 0 0 .009 34.191 0)" xlink:href="#e"/><use transform="matrix(.009 0 0 .009 44.424 0)" xlink:href="#t"/><use transform="matrix(.009 0 0 .009 54.081 0)" xlink:href="#t"/><path d="m1366 0h-271v-632h-678v632h-271v-1446h271v622h678v-622h271z" fill="#333" transform="matrix(.009 0 0 .009 63.738 0)"/></g><g transform="translate(1143.9545 313.597752)"><use transform="scale(.009)" xlink:href="#t"/><use transform="matrix(.009 0 0 .009 9.657 0)" xlink:href="#d"/><use transform="matrix(.009 0 0 .009 19.278 0)" xlink:href="#i"/><path d="m646 0h-224l-408-1026h205c36-1 62 20 71 46 75 215 159 421 226 642 9 30 15 61 21 92 13-66 27-126 50-186l203-548c9-25 34-46 68-46h195" fill="#333" transform="matrix(.009 0 0 .009 26.631 0)"/><use transform="matrix(.009 0 0 .009 35.937 0)" xlink:href="#d"/><use transform="matrix(.009 0 0 .009 45.558 0)" xlink:href="#i"/></g><path d="m442.2 382.6h158m-157.98 0h-1.03m158.98 0h1.02m239.81 0h118m-117.97 0h-1.03m118.97 0h1.03" fill="none" stroke="#7f34aa" stroke-width="2"/><path d="m600 500h240v60h-240z" fill="none"/><use transform="translate(664.2945 538.391)" xlink:href="#j"/><g transform="translate(735.4935 538.391)"><path d="m1417 0h-208c-47 1-77-28-90-61l-108-295h-599l-108 295c-11 30-46 61-89 61h-209l568-1446h275zm-936-546h461c-77-218-163-424-231-651-66 230-154 432-230 651" fill="#333" transform="scale(.009)"/><path d="m457 16c-234 0-346-155-346-390v-652h247v652c0 121 55 198 174 197 102-1 168-51 226-107v-742h247v1026c-80-9-199 29-214-45l-17-82c-77 77-166 143-317 143" fill="#333" transform="matrix(.009 0 0 .009 12.78 0)"/><use transform="matrix(.009 0 0 .009 23.013 0)" xlink:href="#f"/><path d="m605-850c-102 1-168 52-226 108v742h-247v-1486h247v571c76-69 161-129 301-127 234 4 346 154 346 389v653h-247v-653c0-121-55-198-174-197" fill="#333" transform="matrix(.009 0 0 .009 29.979 0)"/></g><path d="m627.35 587.03c0-2.2 1.8-4 4-4h174.12c2.2 0 4 1.8 4 4v42c0 2.2-1.8 4-4 4h-174.12c-2.2 0-4-1.8-4-4z" fill="none" stroke="#fff" stroke-opacity=".3" stroke-width="1.5"/><path d="m667.35 583.03h152.65v50h-152.65z" fill="none"/><g fill="#fff"><g fill-opacity=".6"><path d="m1417 0h-208c-47 1-77-28-90-61l-108-295h-599l-108 295c-11 30-46 61-89 61h-209l568-1446h275zm-936-546h461c-77-218-163-424-231-651-66 230-154 432-230 651" transform="matrix(.00788889 0 0 .00788889 702.350308 613.604162)"/><path d="m398-581c6 222 109 364 330 364 220 0 331-140 331-363v-866h269v866c-5 286-141 466-350 552-142 59-358 59-500 0-210-86-349-266-349-552v-866h269z" transform="matrix(.00788889 0 0 .00788889 713.142308 613.604162)"/><path d="m1377-1015c71 172 71 412 0 584-106 257-325 431-679 431h-552v-1446h552c353 6 574 175 679 431zm-679 801c307-9 457-198 457-509s-150-500-457-509h-281v1018z" transform="matrix(.00788889 0 0 .00788889 724.62853 613.604162)"/><path d="m449 0h-270v-1446h270z" transform="matrix(.00788889 0 0 .00788889 736.422419 613.604162)"/><path d="m1165-1446v221h-435v1225h-269v-1225h-437v-221z" transform="matrix(.00788889 0 0 .00788889 741.376641 613.604162)"/><path d="m415-222h579v222h-848v-1446h269z" transform="matrix(.00788889 0 0 .00788889 753.809531 613.604162)"/><path d="m1480-1018c71 176 71 414 0 590-106 261-323 444-679 444s-576-184-681-444c-71-176-71-414 0-590 106-261 324-444 681-444 355 0 573 184 679 444zm-679 804c307 0 456-198 456-509s-149-510-456-510c-308 0-459 198-459 510s152 509 459 509" transform="matrix(.00788889 0 0 .00788889 761.335531 613.604162)"/><path d="m1341-140c-137 102-313 160-552 156-350-5-566-186-673-442-73-175-71-420-1-596 107-266 333-435 699-440 235-2 404 78 526 189l-78 122c-45 78-131 10-176-17-110-67-334-90-474-29-171 74-275 233-275 474 0 251 105 414 283 489 144 62 360 37 477-26v-263h-181c-88 2-46-125-56-202h481z" transform="matrix(.00788889 0 0 .00788889 773.949864 613.604162)"/></g><path d="m670.1 596.03c1.23 0 2.25 1 2.25 2.26v19.48c0 1.24-1.02 2.25-2.25 2.25h-25.5c-1.23 0-2.25-1-2.25-2.25v-19.5c0-1.24 1.02-2.25 2.25-2.25h25.5zm0 1.5h-25.5c-.42 0-.75.35-.75.76v19.48c0 .43.33.76.75.76h25.5c.42 0 .75-.33.75-.76v-19.5c0-.4-.33-.74-.75-.74zm-22.08 3.13 4.5 3c.2.15.33.36.33.63 0 .23-.12.47-.33.6l-4.5 3c-.1.06-.2.1-.3.13h-.12c-.24 0-.48-.12-.63-.33-.2-.34-.12-.82.2-1.04l3.58-2.37-3.57-2.4c-.33-.23-.42-.68-.2-1.04.23-.34.68-.44 1.04-.2zm11.58 5.88c.42 0 .75.34.75.75 0 .4-.33.73-.75.73h-4.5c-.42 0-.75-.33-.75-.74 0-.42.33-.76.75-.76h4.5z" fill-opacity=".3"/></g><path d="m973.8 357.6c0-4.43 3.6-8 8-8h296.4c4.4 0 8 3.57 8 8v74c0 4.4-3.6 8-8 8h-296.4c-4.4 0-8-3.6-8-8z" fill="url(#u)"/><path d="m985 320h285v134.38h-285z" fill="none"/><g transform="translate(989.991962 382.358083)"><path d="m589 0h-509v-684h140v553h369z" fill="#4cf66e" transform="scale(.01577778)"/><path d="m550 0h-133v-39h-3c-25 32-103 39-178 39-113 0-163-60-157-192 6-124 77-150 199-150 66 0 112 15 136 37h3c1-65 9-127-64-123-50 3-129-10-119 44v13l-133-32c-4-89 57-137 174-139h89c115 0 186 59 186 171zm-133-163c0-82-79-68-147-69-46-1-58 21-58 67 0 59 62 49 117 49 42 0 88-11 88-47" fill="#4cf66e" transform="matrix(.01577778 0 0 .01577778 10.255556 0)"/><use transform="matrix(.01577778 0 0 .01577778 20.511111 0)" xlink:href="#n"/><use transform="matrix(.01577778 0 0 .01577778 30.766667 0)" xlink:href="#m"/></g><g transform="translate(1041.26974 382.358083)"><use transform="scale(.01577778)" xlink:href="#v"/><use transform="matrix(.01577778 0 0 .01577778 10.255556 0)" xlink:href="#q"/><g fill="#4cf66e"><path d="m421-542h140v624c0 111-77 158-192 158h-119c-120 0-187-49-182-167l141-36c-3 51 6 80 61 78 63-2 151 17 151-54v-107h-3c-23 38-112 46-194 46-100 0-156-51-156-163v-216c-1-137 83-163 221-163 66 0 108 21 129 47h3zm-212 336c-5 73 46 75 117 75 51 0 95-25 95-82v-118c-2-75-66-82-143-82-99 0-63 123-69 207" transform="matrix(.01577778 0 0 .01577778 20.511111 0)"/><path d="m85 0v-131h202v-282h-182v-129h323v411h171v131zm343-633h-145v-129h145z" transform="matrix(.01577778 0 0 .01577778 30.766667 0)"/><path d="m570 0h-141v-339c4-70-45-74-114-74-51 0-95 25-95 82v331h-140v-542h140v47h3c23-39 110-47 191-47 99 0 156 52 156 163z" transform="matrix(.01577778 0 0 .01577778 41.022222 0)"/></g><use transform="matrix(.01577778 0 0 .01577778 51.277778 0)" xlink:href="#w"/></g><g transform="translate(1113.058629 382.358083)"><path d="m280-463h89l67 227h7l49-303v-145h130v175l-94 509h-127l-73-224h-6l-73 224h-127l-94-509v-175h129v145l49 303h8" fill="#4cf66e" transform="scale(.01577778)"/><use transform="matrix(.01577778 0 0 .01577778 10.255556 0)" xlink:href="#x"/><path d="m411-331c-2-75-66-82-143-82-99 0-63 123-69 207-5 73 46 75 117 75 51 0 95-25 95-82zm0 331v-46h-3c-23 38-112 46-194 46-100 0-156-51-156-163v-216c-1-137 83-163 221-163 66 0 108 21 129 47h3v-189h140v684z" fill="#4cf66e" transform="matrix(.01577778 0 0 .01577778 20.511111 0)"/></g><g transform="translate(1154.080851 382.358083)"><path d="m107-555v-129h457v526c0 111-67 158-182 158h-132c-115 0-182-47-182-158v-75l141-40c4 67-22 148 61 142 63-5 153 19 153-54v-370z" fill="#4cf66e" transform="scale(.01577778)"/><use transform="matrix(.01577778 0 0 .01577778 10.255556 0)" xlink:href="#y"/><use transform="matrix(.01577778 0 0 .01577778 20.511111 0)" xlink:href="#v"/></g><g transform="translate(1195.103074 382.358083)"><use transform="scale(.01577778)" xlink:href="#s"/><path d="m60-425v-101c0-111 67-158 182-158h146c115 0 182 47 182 158v368c0 111-67 158-182 158h-147c-118 0-185-50-181-169l140-38c-3 50 7 79 61 76 66-3 168 23 168-54v-104c-11 24-139 23-199 23-123 0-170-47-170-159zm201-130c-69-5-61 47-61 108 0 79 102 51 169 55 69 4 60-49 60-109 0-77-102-49-168-54" fill="#4cf66e" transform="matrix(.01577778 0 0 .01577778 10.255556 0)"/></g><g transform="translate(989.991962 401.291417)"><use transform="scale(.01577778)" xlink:href="#y"/><use transform="matrix(.01577778 0 0 .01577778 10.255556 0)" xlink:href="#n"/><use transform="matrix(.01577778 0 0 .01577778 20.511111 0)" xlink:href="#x"/><use transform="matrix(.01577778 0 0 .01577778 30.766667 0)" xlink:href="#r"/><path d="m632 71-34 99h-422c-101 0-167-48-167-146v-420c0-98 66-146 167-146h304c101 0 160 41 160 139v248c3 100-29 155-148 155-57 0-85-16-99-46h-3c-16 32-62 46-121 46-135 0-92-151-98-268-4-77 38-107 127-107 46 0 71 20 84 43h3l9-40h81v247c0 30 8 38 31 38 22 0 31-8 31-40v-254c0-43-19-62-70-62h-275c-51 0-80 27-80 69v376c0 43 29 69 80 69zm-305-347c-80 0-48 77-53 131-3 38 17 45 53 43 48-2 45-61 45-114 0-31-16-60-45-60" fill="#4cf66e" transform="matrix(.01577778 0 0 .01577778 41.022222 0)"/><use transform="matrix(.01577778 0 0 .01577778 51.277778 0)" xlink:href="#o"/><use transform="matrix(.01577778 0 0 .01577778 61.533333 0)" xlink:href="#q"/><use transform="matrix(.01577778 0 0 .01577778 71.788889 0)" xlink:href="#n"/><use transform="matrix(.01577778 0 0 .01577778 82.044444 0)" xlink:href="#m"/><use transform="matrix(.01577778 0 0 .01577778 92.3 0)" xlink:href="#w"/><g fill="#4cf66e"><path d="m440-610h131c0 103-52 187-167 187-84 0-109-56-149-56-32 0-45 20-45 58h-131c0-103 52-187 166-187 84 0 110 56 150 56 31 0 45-20 45-58" transform="matrix(.01577778 0 0 .01577778 102.555556 0)"/><path d="m262 73v-73c-117 6-195-45-189-176l141-36c-3 52 4 84 61 81 65-3 161 21 161-54 0-58 4-99-61-99h-127c-115 0-175-51-175-163v-75c4-119 89-168 189-162v-73h126v73c112-6 192 43 188 172l-140 36c3-51-5-81-61-79-65 3-161-21-161 54 0 55 0 90 61 90h126c115 0 175 50 175 161v88c-3 120-87 168-188 162v73z" transform="matrix(.01577778 0 0 .01577778 112.811111 0)"/></g></g><path d="m615 353.2c0-4.4 3.58-8 8-8h34c4.42 0 8 3.6 8 8v94c0 4.43-3.58 8-8 8h-34c-4.42 0-8-3.57-8-8z" fill="url(#z)"/><path d="m615 379.58h50v41.25h-50z" fill="none"/><g transform="matrix(0 -1 1 0 646.965719 442.653752)"><path d="m1377-1015c71 172 71 412 0 584-106 257-325 431-679 431h-552v-1446h552c353 6 574 175 679 431zm-679 801c307-9 457-198 457-509s-150-500-457-509h-281v1018z" fill="#fff" transform="scale(.009)"/><use transform="matrix(.009 0 0 .009 13.455 0)" xlink:href="#A"/><use transform="matrix(.009 0 0 .009 23.076 0)" xlink:href="#B"/><use transform="matrix(.009 0 0 .009 31.662 0)" xlink:href="#C"/><use transform="matrix(.009 0 0 .009 39.015 0)" xlink:href="#D"/><use transform="matrix(.009 0 0 .009 48.618 0)" xlink:href="#E"/><use transform="matrix(.009 0 0 .009 58.797 0)" xlink:href="#F"/><use transform="matrix(.009 0 0 .009 65.763 0)" xlink:href="#A"/><use transform="matrix(.009 0 0 .009 75.384 0)" xlink:href="#G"/></g><g stroke-width="2"><path d="m640.07 456.2v85.3m0-85.27v-1.02" fill="none" stroke="#999"/><path d="m640.07 556.76-4.64-14.26h9.27z" fill="#999" stroke="#999"/><path d="m666 382.6h118m-117.97 0h-1.03m118.97 0h1.03" fill="none" stroke="#7f34aa"/></g><path d="m775 355.02c0-4.42 3.58-8 8-8h34c4.42 0 8 3.58 8 8v120.38c0 4.4-3.58 8-8 8h-34c-4.42 0-8-3.6-8-8z" fill="url(#H)"/><path d="m775 374.64h50v51.14h-50z" fill="none"/><g transform="matrix(0 -1 1 0 806.966281 441.329768)"><path d="m1058-1446v214h-641v401h505v207h-505v409h641v215h-912v-1446z" fill="#fff" transform="scale(.009)"/><path d="m605-850c-102 1-168 52-226 108v742h-247v-1026c80 9 198-29 214 45l17 81c77-76 165-142 317-142 235 0 346 154 346 389v653h-247v-653c0-121-55-198-174-197" fill="#fff" transform="matrix(.009 0 0 .009 10.305 0)"/><use transform="matrix(.009 0 0 .009 20.538 0)" xlink:href="#B"/><use transform="matrix(.009 0 0 .009 29.124 0)" xlink:href="#C"/><use transform="matrix(.009 0 0 .009 36.477 0)" xlink:href="#D"/><use transform="matrix(.009 0 0 .009 46.08 0)" xlink:href="#E"/><use transform="matrix(.009 0 0 .009 56.259 0)" xlink:href="#F"/><use transform="matrix(.009 0 0 .009 63.225 0)" xlink:href="#A"/><use transform="matrix(.009 0 0 .009 72.846 0)" xlink:href="#G"/></g></g><g display="block"><path d="m265 455.2c-2.76 0-5 2.25-5 5 0 1.1.34 2.07.92 2.9l-10.78 10.75c-.18.2-.18.52 0 .72.1.1.24.14.36.14s.26-.03.36-.13l1.14-1.16 1.64 1.67c.1.1.24.14.36.14s.26-.03.36-.13c.18-.2.18-.52 0-.72l-1.66-1.64.8-.8 1.64 1.67c.1.1.24.14.36.14s.26-.03.36-.13c.18-.2.18-.52 0-.72l-1.66-1.64 7.38-7.35c.88.84 2.1 1.36 3.42 1.36 2.76 0 5-2.23 5-5 0-2.75-2.24-5-5-5zm2.82 7.83c-.76.76-1.76 1.18-2.82 1.18-1.08 0-2.08-.4-2.84-1.17-.74-.74-1.16-1.76-1.16-2.82 0-1.05.42-2.07 1.16-2.8.76-.77 1.76-1.2 2.84-1.2 1.06 0 2.08.43 2.82 1.2.76.73 1.18 1.75 1.18 2.8 0 1.07-.42 2.1-1.18 2.83z"/><path d="m805 455.2c-2.76 0-5 2.25-5 5 0 1.1.34 2.07.92 2.9l-10.78 10.75c-.18.2-.18.52 0 .72.1.1.24.14.36.14s.26-.03.36-.13l1.14-1.16 1.64 1.67c.1.1.24.14.36.14s.26-.03.36-.13c.18-.2.18-.52 0-.72l-1.66-1.64.8-.8 1.64 1.67c.1.1.24.14.36.14s.26-.03.36-.13c.18-.2.18-.52 0-.72l-1.66-1.64 7.38-7.35c.88.84 2.1 1.36 3.42 1.36 2.76 0 5-2.23 5-5 0-2.75-2.24-5-5-5zm2.82 7.83c-.76.76-1.76 1.18-2.82 1.18-1.08 0-2.08-.4-2.84-1.17-.74-.74-1.16-1.76-1.16-2.82 0-1.05.42-2.07 1.16-2.8.76-.77 1.76-1.2 2.84-1.2 1.06 0 2.08.43 2.82 1.2.76.73 1.18 1.75 1.18 2.8 0 1.07-.42 2.1-1.18 2.83z" fill="#fff"/><path d="m284.33 465.2h466.35m-466.32 0h-1.03" fill="none" stroke="#651fff" stroke-width="2"/><path d="m765.95 465.2-14.27 4.64v-9.27z" fill="#651fff" stroke="#651fff" stroke-width="2"/><path d="m400 457.62h240v60h-240z" fill="none"/><g transform="translate(487.229444 484.624054)"><path d="m10 0c86-246 171-474 276-693h149c104 220 191 448 276 693h-167c-15-49-35-101-51-150h-270c-16 49-36 101-51 150zm347-536c-31 85-67 173-98 262h197c-31-90-66-177-99-262" fill="#999" transform="scale(.01355556)"/><use transform="matrix(.01355556 0 0 .01355556 9.624444 0)" xlink:href="#I"/><use transform="matrix(.01355556 0 0 .01355556 17.676444 0)" xlink:href="#J"/><use transform="matrix(.01355556 0 0 .01355556 25.592889 0)" xlink:href="#K"/><path d="m273 12c-148 0-208-79-208-227v-442l149-24v155h179v124h-179v185c2 63 16 104 83 103 34 0 71-7 96-17l21 116c-41 16-81 27-141 27" fill="#999" transform="matrix(.01355556 0 0 .01355556 33.577111 0)"/></g><g transform="translate(530.078556 484.624054)"><path d="m562-526c-73 84-134 153-214 231 85 81 163 187 221 295h-171c-51-81-107-170-179-230v230h-149v-752l149-24v440c56-60 114-127 166-190z" fill="#999" transform="scale(.01355556)"/><use transform="matrix(.01355556 0 0 .01355556 7.360667 0)" xlink:href="#J"/><path d="m280-179c38-107 73-232 103-347h154c-59 198-120 371-201 543-43 91-86 168-218 168-42 1-85-10-113-21l26-119c41 16 112 24 141-7 14-14 26-35 36-60-76-151-145-316-198-504h158c31 117 71 240 112 347" fill="#999" transform="matrix(.01355556 0 0 .01355556 15.277111 0)"/></g><g transform="translate(484.152333 499.819832)"><path d="m70-554c-14-190 182-268 359-197l-29 119c-23-11-56-18-87-18-75-1-100 46-94 124h184v124h-184v402h-149z" fill="#999" transform="scale(.01355556)"/><path d="m304-540c166 0 258 108 258 276 0 170-90 278-258 278s-259-109-259-278c0-168 94-276 259-276zm0 426c75 0 106-68 106-150s-31-148-106-148-107 66-107 148 32 150 107 150" fill="#999" transform="matrix(.01355556 0 0 .01355556 5.612 0)"/><use transform="matrix(.01355556 0 0 .01355556 13.840222 0)" xlink:href="#L"/><path d="m774-526c-52 180-108 366-175 526h-116c-32-100-66-198-93-302-27 104-57 202-90 302h-116c-66-160-122-347-174-526h157c25 114 52 235 83 344 32-111 63-229 90-344h108c26 114 55 234 87 344 32-109 59-230 84-344z" fill="#999" transform="matrix(.01355556 0 0 .01355556 19.980889 0)"/><path d="m183-166c-2 75 96 63 162 58v-113c-63-10-160-16-162 55zm-148 4c-1-153 163-182 310-156 2-69-30-99-103-98-49 0-104 8-139 21l-19-120c50-14 111-24 175-25 152-2 229 65 229 215v310c-62 13-139 27-227 26-132-2-225-41-226-173" fill="#999" transform="matrix(.01355556 0 0 .01355556 30.472889 0)"/><use transform="matrix(.01355556 0 0 .01355556 37.969111 0)" xlink:href="#L"/><path d="m385-390c-18-12-52-21-82-21-71 0-106 48-106 144 0 113 70 176 188 148zm-105-147c44 0 73 9 105 23v-238l149-24v759c-62 18-137 30-215 30-176 0-274-98-274-273 0-165 72-277 235-277" fill="#999" transform="matrix(.01355556 0 0 .01355556 43.554 0)"/><path d="m219 0h-149v-526h149zm-75-766c49 0 89 36 89 88s-40 88-89 88-89-36-89-88 40-88 89-88" fill="#999" transform="matrix(.01355556 0 0 .01355556 51.741556 0)"/><use transform="matrix(.01355556 0 0 .01355556 55.659111 0)" xlink:href="#K"/><use transform="matrix(.01355556 0 0 .01355556 63.643333 0)" xlink:href="#I"/></g><path d="m480 309.2h81.7v40.4h-81.7z" fill="none"/></g></g></svg>