<svg height="308" viewBox="0 0 962 308" width="962" xmlns="http://www.w3.org/2000/svg" xmlns:xlink="http://www.w3.org/1999/xlink"><defs><rect id="a" height="224" rx="10" width="252" x="706" y="58"/><filter id="b" height="106.2%" width="105.6%" x="-2.8%" y="-2.2%"><feOffset dx="0" dy="2" in="SourceAlpha" result="shadowOffsetOuter1"/><feGaussianBlur in="shadowOffsetOuter1" result="shadowBlurOuter1" stdDeviation="2"/><feColorMatrix in="shadowBlurOuter1" type="matrix" values="0 0 0 0 0   0 0 0 0 0   0 0 0 0 0  0 0 0 0.5 0"/></filter><filter id="c" height="106.9%" width="106%" x="-3%" y="-3.4%"><feOffset dx="0" dy="1" in="SourceAlpha" result="shadowOffsetOuter1"/><feGaussianBlur in="shadowOffsetOuter1" result="shadowBlurOuter1" stdDeviation="1"/><feColorMatrix in="shadowBlurOuter1" result="shadowMatrixOuter1" type="matrix" values="0 0 0 0 0   0 0 0 0 0   0 0 0 0 0  0 0 0 0.5 0"/><feMerge><feMergeNode in="shadowMatrixOuter1"/><feMergeNode in="SourceGraphic"/></feMerge></filter><filter id="d" height="162%" width="125.3%" x="-12.7%" y="-23%"><feOffset dx="0" dy="2" in="SourceAlpha" result="shadowOffsetOuter1"/><feGaussianBlur in="shadowOffsetOuter1" result="shadowBlurOuter1" stdDeviation="2"/><feColorMatrix in="shadowBlurOuter1" result="shadowMatrixOuter1" type="matrix" values="0 0 0 0 0   0 0 0 0 0   0 0 0 0 0  0 0 0 0.5 0"/><feMerge><feMergeNode in="shadowMatrixOuter1"/><feMergeNode in="SourceGraphic"/></feMerge></filter><filter id="e" height="140%" width="116.3%" x="-8.2%" y="-12%"><feOffset dx="0" dy="1" in="SourceAlpha" result="shadowOffsetOuter1"/><feGaussianBlur in="shadowOffsetOuter1" result="shadowBlurOuter1" stdDeviation=".5"/><feColorMatrix in="shadowBlurOuter1" result="shadowMatrixOuter1" type="matrix" values="0 0 0 0 0   0 0 0 0 0   0 0 0 0 0  0 0 0 0.5 0"/><feMerge><feMergeNode in="shadowMatrixOuter1"/><feMergeNode in="SourceGraphic"/></feMerge></filter><path id="f" d="m12.819426 0h219.361148c4.457594 0 6.074025.46412806 7.703655 1.33566352 1.629629.87153546 2.908572 2.15047833 3.780107 3.78010796.871536 1.62962963 1.335664 3.24606082 1.335664 7.70365452v74.361148c0 4.4575937-.464128 6.0740249-1.335664 7.7036545-.871535 1.6296296-2.150478 2.9085725-3.780107 3.780108-1.62963.8715354-3.246061 1.3356635-7.703655 1.3356635h-219.361148c-4.4575937 0-6.07402489-.4641281-7.70365452-1.3356635-1.62962963-.8715355-2.9085725-2.1504784-3.78010796-3.780108s-1.33566352-3.2460608-1.33566352-7.7036545v-74.361148c0-4.4575937.46412806-6.07402489 1.33566352-7.70365452s2.15047833-2.9085725 3.78010796-3.78010796 3.24606082-1.33566352 7.70365452-1.33566352z"/><filter id="g" height="156%" width="122.9%" x="-11.4%" y="-20%"><feOffset dx="0" dy="8" in="SourceAlpha" result="shadowOffsetOuter1"/><feGaussianBlur in="shadowOffsetOuter1" result="shadowBlurOuter1" stdDeviation="8"/><feColorMatrix in="shadowBlurOuter1" type="matrix" values="0 0 0 0 0   0 0 0 0 0   0 0 0 0 0  0 0 0 0.103742074 0"/></filter><filter id="h" height="148%" width="118.8%" x="-9.4%" y="-24%"><feOffset dx="0" dy="2" in="SourceAlpha" result="shadowOffsetOuter1"/><feGaussianBlur in="shadowOffsetOuter1" result="shadowBlurOuter1" stdDeviation="2"/><feColorMatrix in="shadowBlurOuter1" result="shadowMatrixOuter1" type="matrix" values="0 0 0 0 0   0 0 0 0 0   0 0 0 0 0  0 0 0 0.5 0"/><feMerge><feMergeNode in="shadowMatrixOuter1"/><feMergeNode in="SourceGraphic"/></feMerge></filter><path id="i" d="m28.819426 49h120.361148c4.457594 0 6.074025.4641281 7.703655 1.3356635 1.629629.8715355 2.908572 2.1504784 3.780107 3.780108.871536 1.6296296 1.335664 3.2460608 1.335664 7.7036545v207.361148c0 4.457594-.464128 6.074025-1.335664 7.703655-.871535 1.629629-2.150478 2.908572-3.780107 3.780107-1.62963.871536-3.246061 1.335664-7.703655 1.335664h-120.361148c-4.4575937 0-6.0740249-.464128-7.7036545-1.335664-1.6296296-.871535-2.9085725-2.150478-3.780108-3.780107-.8715354-1.62963-1.3356635-3.246061-1.3356635-7.703655v-207.361148c0-4.4575937.4641281-6.0740249 1.3356635-7.7036545.8715355-1.6296296 2.1504784-2.9085725 3.780108-3.780108 1.6296296-.8715354 3.2460608-1.3356635 7.7036545-1.3356635z"/><filter id="j" height="124%" width="138.4%" x="-19.2%" y="-8.6%"><feOffset dx="0" dy="8" in="SourceAlpha" result="shadowOffsetOuter1"/><feGaussianBlur in="shadowOffsetOuter1" result="shadowBlurOuter1" stdDeviation="8"/><feColorMatrix in="shadowBlurOuter1" type="matrix" values="0 0 0 0 0   0 0 0 0 0   0 0 0 0 0  0 0 0 0.103742074 0"/></filter></defs><g fill="none" fill-rule="evenodd"><use fill="#000" filter="url(#b)" xlink:href="#a"/><use fill="#fff" fill-rule="evenodd" xlink:href="#a"/><g filter="url(#c)" transform="translate(717 73)"><path d="m10 1.5c-4.69442037 0-8.5 3.80557963-8.5 8.5v63c0 4.6944204 3.80557963 8.5 8.5 8.5h166c4.69442 0 8.5-3.8055796 8.5-8.5v-63c0-4.69442037-3.80558-8.5-8.5-8.5z" fill="#fff" stroke="#3662a2" stroke-width="3"/><path d="m54.1826087 35.8409091h1.6996167l4.1975381 8.3380443h.0257518v-8.3380443h1.5322302v11.3181818h-1.6996167l-4.1846623-8.3221925h-.0386276v8.3221925h-1.5322302zm12.2063379 11.5401069c-.5322058 0-1.0064628-.1083195-1.4227851-.3249618-.4163224-.2166422-.7682597-.5151814-1.0558225-.8956264-.2875629-.380445-.5064507-.8348586-.6566701-1.3632544s-.225328-1.1096225-.225328-1.7436975c0-.623507.0751086-1.1994498.225328-1.7278456.1502194-.5283959.3691072-.9828095.6566701-1.3632544.2875628-.380445.6395001-.6789842 1.0558225-.8956265.4163223-.2166423.8905793-.3249618 1.4227851-.3249618.5322059 0 1.0064629.1083195 1.4227852.3249618s.7682596.5151815 1.0558225.8956265c.2875628.3804449.5064507.8348585.6566701 1.3632544.1502194.5283958.2253279 1.1043386.2253279 1.7278456 0 .634075-.0751085 1.2153017-.2253279 1.7436975s-.3691073.9828094-.6566701 1.3632544c-.2875629.380445-.6395002.6789842-1.0558225.8956264-.4163223.2166423-.8905793.3249618-1.4227852.3249618zm0-1.4266615c.3261907 0 .6094573-.0845421.8498084-.2536288.240351-.1690866.4377793-.3910095.5922906-.6657754.1545114-.2747658.2682472-.5838727.341211-.92733.0729637-.3434573.109445-.6948352.109445-1.0541444 0-.3487412-.0364813-.6974772-.109445-1.0462185-.0729638-.3487412-.1866996-.6578481-.341211-.92733-.1545113-.2694818-.3519396-.4887628-.5922906-.6578495-.2403511-.1690866-.5236177-.2536287-.8498084-.2536287s-.6094573.0845421-.8498083.2536287c-.240351.1690867-.4377793.3883677-.5922907.6578495-.1545113.2694819-.2682472.5785888-.3412109.92733-.0729637.3487413-.109445.6974773-.109445 1.0462185 0 .3593092.0364813.7106871.109445 1.0541444s.1866996.6525642.3412109.92733c.1545114.2747659.3519397.4966888.5922907.6657754.240351.1690867.5236176.2536288.8498083.2536288zm10.8543702 1.2047364h-1.3905955v-1.1096257h-.0257518c-.1974312.4755563-.4849897.8163665-.8626842 1.0224408-.3776945.2060744-.7768429.30911-1.1974572.30911-.5236219 0-.9807112-.1136034-1.3712816-.3408136-.3905705-.2272102-.7146103-.5363171-.9721293-.92733-.2575189-.3910129-.4506553-.8533523-.5794147-1.3870321-.1287595-.5336797-.1931383-1.1069806-.1931383-1.7199197 0-.7397542.0815465-1.3791035.2446418-1.9180673.1630953-.5389637.3798372-.9828095.6502321-1.3315508.2703949-.3487412.5794131-.6050093.9270637-.768812.3476506-.1638028.7017338-.2457029 1.0622604-.2457029.2060152 0 .4163192.0237775.6309183.0713331s.4206112.1241719.6180424.229851c.1974312.1056792.3798378.2404181.5472251.4042208s.3068747.3566643.4184662.5785905h.0257518v-4.1848739h1.4678508zm-5.1246018-4.0105042c0 .3487412.0364813.6921934.109445 1.0303667s.1845536.6393544.334773.9035523.3412097.4755531.5729768.6340718c.2317671.1585188.5064498.237777.8240566.237777.3261907 0 .6073113-.0845421.8433704-.2536288.236059-.1690866.4291953-.3910095.5794147-.6657754.1502194-.2747658.2618093-.5838727.334773-.92733s.109445-.6948352.109445-1.0541444c0-.9088408-.1652388-1.6168805-.4957215-2.1241405s-.7789881-.7608862-1.3455299-.7608862c-.3433586 0-.6330631.087184-.8691221.2615546-.2360591.1743706-.4291954.4015774-.5794148.6816272s-.2575174.5970825-.3218971.9511077-.0965691.7159709-.0965691 1.085848zm11.2921502-.8084416c-.017168-.2853337-.066525-.5600954-.1480727-.8242933s-.1931376-.4940466-.334773-.6895531-.3133122-.3540228-.5150354-.4755539c-.2017231-.121531-.4270489-.1822956-.6759839-.1822956-.2575189 0-.4914285.0554807-.7017356.1664438-.2103072.1109632-.3905678.2641957-.5407872.4597021-.1502193.1955065-.2703931.4253552-.3605247.6895531s-.1394887.5495274-.1480727.8559969zm-3.4249852 1.1888847c0 .3170375.0364813.6235025.109445.9194041.0729638.2959017.1824077.5548117.3283351.776738.1459274.2219262.3304799.3989362.553663.5310351.2231831.132099.489282.1981475.7983048.1981475.4291983 0 .7746977-.1136034 1.0365086-.3408136.261811-.2272102.4570933-.5680204.5858528-1.0224408h1.3905954c-.0772557.4438525-.2103051.8401434-.3991524 1.1888846-.1888472.3487413-.4163189.6419965-.6824218.8797747-.266103.2377781-.5643913.41743-.894874.538961-.3304826.121531-.6759821.1822956-1.0365086.1822956-.5236219 0-.9871491-.1056775-1.3905955-.3170359-.4034463-.2113583-.7446539-.5072555-1.0236327-.8877005-.2789789-.380445-.4892829-.8348586-.6309183-1.3632544-.1416355-.5283958-.2124521-1.1096225-.2124521-1.7436975 0-.5812354.0751085-1.1334007.2253279-1.6565126.1502194-.5231118.3648154-.9828093.6437942-1.3791062.2789789-.3962968.6158945-.7106876 1.0107569-.9431818.3948624-.2324941.8412219-.3487395 1.3390919-.3487395.5236219 0 .993587.1347389 1.4099093.4042208.4163224.2694819.7618218.6261437 1.0365087 1.0699962s.4742611.9537468.5987286 1.5296982c.1244675.5759515.1566569 1.1703878.0965691 1.783327zm10.8543702-.1426662c0 .4332846.0600868.8031561.1802623 1.1096257.1201756.3064696.2875604.5574538.5021595.7529603.2145991.1955064.4613845.3381712.7403633.4279985.2789789.0898272.5815592.1347402.9077498.1347402.3519426 0 .6523769-.0501968.9013119-.150592s.4506552-.2298503.6051666-.388369c.1545113-.1585188.2661012-.3408126.3347729-.546887.0686718-.2060743.1030071-.4147875.1030071-.6261459 0-.4332845-.0794005-.7529592-.2382038-.9590336-.1588034-.2060744-.3326261-.351381-.5214733-.4359244-.3261907-.1479508-.7060255-.2879736-1.1395158-.4200725-.4334902-.132099-.9678341-.3038251-1.6030475-.5151834-.3948624-.126815-.7231942-.2932572-.9850051-.4993315-.261811-.2060744-.469969-.4359231-.6244804-.6895531s-.2639553-.5231078-.328335-.8084416c-.0643798-.2853337-.0965692-.5759471-.0965692-.8718487 0-.5706675.0965682-1.0647102.2897074-1.4821429.1931393-.4174327.4485084-.7635267.7661151-1.0382926.3176067-.2747658.6781279-.4781951 1.0815743-.6102941.4034463-.1320989.8111786-.1981474 1.2232089-.1981474.4807021 0 .9334995.0766162 1.3584058.229851s.7983032.3830835 1.1202019.6895531.5772678.6842669.7661151 1.1334034c.1888472.4491364.2832694.9695985.2832694 1.5614018h-1.6094855c-.0429198-.7291862-.24464-1.2443644-.6051665-1.54555-.3605266-.3011857-.8197618-.4517762-1.3777196-.4517762-.1888472 0-.3819836.0237774-.5794148.0713331-.1974312.0475556-.3776917.1268138-.5407871.2377769-.1630953.1109631-.2982908.2615537-.4055903.4517762-.1072996.1902225-.1609486.427997-.1609486.7133307 0 .4015809.1008601.7159717.3025833.9431819s.4656762.3989362.7918669.5151833c.0343358.0105679.1695312.0554809.4055903.1347403.2360591.0792593.500012.1664433.7918669.2615546.2918548.0951112.5772674.1875791.8562462.2774064.2789789.0898273.4785531.1558758.5987286.1981475.3004388.116247.5622459.2747634.785429.4755538s.4098815.4306392.5601009.6895531c.1502194.258914.2618093.5363176.334773.8322193.0729637.2959016.109445.5917988.109445.8877005 0 .634075-.105152 1.1756726-.3154592 1.624809-.2103071.4491364-.4871358.816366-.8304945 1.1016998-.3433586.2853337-.7339232.4940469-1.1717054.6261459-.4377822.1320989-.8841418.1981474-1.3390919.1981474-.5236219 0-1.0171925-.0792582-1.4807267-.2377769-.4635341-.1585187-.8669744-.4015772-1.2103331-.7291826-.3433586-.3276054-.6180414-.7476738-.8240565-1.2602177-.2060152-.5125439-.3133132-1.1175481-.3218971-1.8150306zm11.6526748-1.0462185c-.017168-.2853337-.066525-.5600954-.148073-.8242933-.081547-.2641979-.193137-.4940466-.334773-.6895531-.141635-.1955065-.313312-.3540228-.515035-.4755539-.201723-.121531-.427049-.1822956-.675984-.1822956-.257519 0-.491428.0554807-.701735.1664438-.2103076.1109632-.3905682.2641957-.5407876.4597021-.1502194.1955065-.2703931.4253552-.3605248.6895531-.0901316.2641979-.1394887.5495274-.1480726.8559969zm-3.424985 1.1888847c0 .3170375.0364813.6235025.109445.9194041.0729637.2959017.1824076.5548117.328335.776738.1459274.2219262.3304799.3989362.553663.5310351.223183.132099.489282.1981475.798305.1981475.429198 0 .774698-.1136034 1.036508-.3408136.261811-.2272102.457094-.5680204.585853-1.0224408h1.390596c-.077256.4438525-.210305.8401434-.399153 1.1888846-.188847.3487413-.416319.6419965-.682422.8797747-.266103.2377781-.564391.41743-.894874.538961-.330482.121531-.675982.1822956-1.036508.1822956-.523622 0-.9871492-.1056775-1.3905956-.3170359-.4034464-.2113583-.7446539-.5072555-1.0236328-.8877005s-.4892829-.8348586-.6309183-1.3632544-.2124521-1.1096225-.2124521-1.7436975c0-.5812354.0751086-1.1334007.225328-1.6565126.1502194-.5231118.3648153-.9828093.6437942-1.3791062.2789789-.3962968.6158944-.7106876 1.0107569-.9431818.3948624-.2324941.8412217-.3487395 1.3390917-.3487395.523622 0 .993587.1347389 1.409909.4042208.416323.2694819.761822.6261437 1.036509 1.0699962s.474261.9537468.598729 1.5296982c.124467.5759515.156657 1.1703878.096569 1.783327zm6.013038-4.565317h1.377719v1.5851795h.025752c.04292-.2219263.126612-.4385653.25108-.6499236.124467-.2113583.274684-.4042199.450656-.5785905.175971-.1743707.371253-.3143935.585852-.4200726.2146-.1056792.433487-.158518.656671-.158518.171679 0 .289707.0052839.354086.0158518.06438.0105679.130905.0211357.199577.0317036v1.7436975c-.103008-.0211358-.20816-.0396294-.31546-.0554813-.107299-.0158519-.212451-.0237777-.315459-.0237777-.248935 0-.482844.0607646-.701735.1822957-.218892.121531-.409882.3011829-.572977.538961-.163096.2377781-.291853.5310334-.386277.8797746-.094423.3487413-.141634.7503161-.141634 1.2047365v3.8995416h-1.467851zm3.875641 0h1.596609l1.686741 6.2931627h.025752l1.622361-6.2931627h1.519355l-2.382039 8.1953781h-1.648113zm7.377881-3.1228037h1.467851v1.7119939h-1.467851zm0 3.1228037h1.467851v8.1953781h-1.467851zm7.558144 2.7423605c-.060088-.5072599-.225326-.8903412-.495721-1.1492551-.270395-.258914-.611603-.388369-1.023633-.388369-.188847 0-.390568.0396291-.605167.1188885-.214599.0792593-.412027.2272079-.59229.4438502-.180264.2166423-.330481.5178234-.450656.9035524-.120176.3857289-.180263.8903393-.180263 1.5138464 0 .3381733.03219.6763416.096569 1.0145149.06438.3381733.167386.6393544.309022.9035523.141635.2641979.324042.478195.547225.6419977s.493574.2457029.81118.2457029c.429199 0 .783282-.1638003 1.062261-.4914057s.452801-.7873029.521473-1.3791062h1.467851c-.137344 1.0673596-.465675 1.8837189-.985005 2.4491024s-1.208183.848071-2.06658.848071c-.523621 0-.985003-.1083195-1.384157-.3249618-.399155-.2166422-.73607-.5125395-1.010757-.8877005s-.482845-.8216488-.62448-1.3394767c-.141636-.5178279-.212452-1.0779191-.212452-1.6802903 0-.6129391.06867-1.1888819.206014-1.7278457.137343-.5389637.343355-1.006587.618042-1.4028839.274687-.3962968.615895-.7080457 1.023633-.9352559s.886287-.3408136 1.435661-.3408136c.386278 0 .753237.0607646 1.100888.1822957.347651.121531.656669.3038248.927064.5468869s.491428.5495271.663108.9194041c.171679.3698771.274685.8084391.309021 1.315699zm7.236247.6340718c-.017168-.2853337-.066525-.5600954-.148073-.8242933-.081547-.2641979-.193137-.4940466-.334773-.6895531-.141635-.1955065-.313312-.3540228-.515035-.4755539-.201723-.121531-.427049-.1822956-.675984-.1822956-.257519 0-.491429.0554807-.701736.1664438-.210307.1109632-.390567.2641957-.540787.4597021-.150219.1955065-.270393.4253552-.360525.6895531-.090131.2641979-.139488.5495274-.148072.8559969zm-3.424985 1.1888847c0 .3170375.036481.6235025.109445.9194041.072963.2959017.182407.5548117.328335.776738.145927.2219262.33048.3989362.553663.5310351.223183.132099.489282.1981475.798305.1981475.429198 0 .774697-.1136034 1.036508-.3408136s.457094-.5680204.585853-1.0224408h1.390595c-.077255.4438525-.210305.8401434-.399152 1.1888846-.188847.3487413-.416319.6419965-.682422.8797747-.266103.2377781-.564391.41743-.894874.538961-.330482.121531-.675982.1822956-1.036508.1822956-.523622 0-.987149-.1056775-1.390596-.3170359-.403446-.2113583-.744654-.5072555-1.023633-.8877005-.278978-.380445-.489282-.8348586-.630918-1.3632544-.141635-.5283958-.212452-1.1096225-.212452-1.7436975 0-.5812354.075109-1.1334007.225328-1.6565126.150219-.5231118.364815-.9828093.643794-1.3791062.278979-.3962968.615895-.7106876 1.010757-.9431818.394862-.2324941.841222-.3487395 1.339092-.3487395.523622 0 .993587.1347389 1.409909.4042208.416323.2694819.761822.6261437 1.036509 1.0699962s.474261.9537468.598729 1.5296982c.124467.5759515.156656 1.1703878.096569 1.783327z" fill="#4a4a4a"/><g transform="translate(15 55)"><path d="m10 1.5c-4.69442037 0-8.5 3.80557963-8.5 8.5v63c0 4.6944204 3.80557963 8.5 8.5 8.5h166c4.69442 0 8.5-3.8055796 8.5-8.5v-63c0-4.69442037-3.80558-8.5-8.5-8.5z" fill="#fff" stroke="#3662a2" stroke-width="3"/><path d="m54.1826087 35.8409091h1.6996167l4.1975381 8.3380443h.0257518v-8.3380443h1.5322302v11.3181818h-1.6996167l-4.1846623-8.3221925h-.0386276v8.3221925h-1.5322302zm12.2063379 11.5401069c-.5322058 0-1.0064628-.1083195-1.4227851-.3249618-.4163224-.2166422-.7682597-.5151814-1.0558225-.8956264-.2875629-.380445-.5064507-.8348586-.6566701-1.3632544s-.225328-1.1096225-.225328-1.7436975c0-.623507.0751086-1.1994498.225328-1.7278456.1502194-.5283959.3691072-.9828095.6566701-1.3632544.2875628-.380445.6395001-.6789842 1.0558225-.8956265.4163223-.2166423.8905793-.3249618 1.4227851-.3249618.5322059 0 1.0064629.1083195 1.4227852.3249618s.7682596.5151815 1.0558225.8956265c.2875628.3804449.5064507.8348585.6566701 1.3632544.1502194.5283958.2253279 1.1043386.2253279 1.7278456 0 .634075-.0751085 1.2153017-.2253279 1.7436975s-.3691073.9828094-.6566701 1.3632544c-.2875629.380445-.6395002.6789842-1.0558225.8956264-.4163223.2166423-.8905793.3249618-1.4227852.3249618zm0-1.4266615c.3261907 0 .6094573-.0845421.8498084-.2536288.240351-.1690866.4377793-.3910095.5922906-.6657754.1545114-.2747658.2682472-.5838727.341211-.92733.0729637-.3434573.109445-.6948352.109445-1.0541444 0-.3487412-.0364813-.6974772-.109445-1.0462185-.0729638-.3487412-.1866996-.6578481-.341211-.92733-.1545113-.2694818-.3519396-.4887628-.5922906-.6578495-.2403511-.1690866-.5236177-.2536287-.8498084-.2536287s-.6094573.0845421-.8498083.2536287c-.240351.1690867-.4377793.3883677-.5922907.6578495-.1545113.2694819-.2682472.5785888-.3412109.92733-.0729637.3487413-.109445.6974773-.109445 1.0462185 0 .3593092.0364813.7106871.109445 1.0541444s.1866996.6525642.3412109.92733c.1545114.2747659.3519397.4966888.5922907.6657754.240351.1690867.5236176.2536288.8498083.2536288zm10.8543702 1.2047364h-1.3905955v-1.1096257h-.0257518c-.1974312.4755563-.4849897.8163665-.8626842 1.0224408-.3776945.2060744-.7768429.30911-1.1974572.30911-.5236219 0-.9807112-.1136034-1.3712816-.3408136-.3905705-.2272102-.7146103-.5363171-.9721293-.92733-.2575189-.3910129-.4506553-.8533523-.5794147-1.3870321-.1287595-.5336797-.1931383-1.1069806-.1931383-1.7199197 0-.7397542.0815465-1.3791035.2446418-1.9180673.1630953-.5389637.3798372-.9828095.6502321-1.3315508.2703949-.3487412.5794131-.6050093.9270637-.768812.3476506-.1638028.7017338-.2457029 1.0622604-.2457029.2060152 0 .4163192.0237775.6309183.0713331s.4206112.1241719.6180424.229851c.1974312.1056792.3798378.2404181.5472251.4042208s.3068747.3566643.4184662.5785905h.0257518v-4.1848739h1.4678508zm-5.1246018-4.0105042c0 .3487412.0364813.6921934.109445 1.0303667s.1845536.6393544.334773.9035523.3412097.4755531.5729768.6340718c.2317671.1585188.5064498.237777.8240566.237777.3261907 0 .6073113-.0845421.8433704-.2536288.236059-.1690866.4291953-.3910095.5794147-.6657754.1502194-.2747658.2618093-.5838727.334773-.92733s.109445-.6948352.109445-1.0541444c0-.9088408-.1652388-1.6168805-.4957215-2.1241405s-.7789881-.7608862-1.3455299-.7608862c-.3433586 0-.6330631.087184-.8691221.2615546-.2360591.1743706-.4291954.4015774-.5794148.6816272s-.2575174.5970825-.3218971.9511077-.0965691.7159709-.0965691 1.085848zm11.2921502-.8084416c-.017168-.2853337-.066525-.5600954-.1480727-.8242933s-.1931376-.4940466-.334773-.6895531-.3133122-.3540228-.5150354-.4755539c-.2017231-.121531-.4270489-.1822956-.6759839-.1822956-.2575189 0-.4914285.0554807-.7017356.1664438-.2103072.1109632-.3905678.2641957-.5407872.4597021-.1502193.1955065-.2703931.4253552-.3605247.6895531s-.1394887.5495274-.1480727.8559969zm-3.4249852 1.1888847c0 .3170375.0364813.6235025.109445.9194041.0729638.2959017.1824077.5548117.3283351.776738.1459274.2219262.3304799.3989362.553663.5310351.2231831.132099.489282.1981475.7983048.1981475.4291983 0 .7746977-.1136034 1.0365086-.3408136.261811-.2272102.4570933-.5680204.5858528-1.0224408h1.3905954c-.0772557.4438525-.2103051.8401434-.3991524 1.1888846-.1888472.3487413-.4163189.6419965-.6824218.8797747-.266103.2377781-.5643913.41743-.894874.538961-.3304826.121531-.6759821.1822956-1.0365086.1822956-.5236219 0-.9871491-.1056775-1.3905955-.3170359-.4034463-.2113583-.7446539-.5072555-1.0236327-.8877005-.2789789-.380445-.4892829-.8348586-.6309183-1.3632544-.1416355-.5283958-.2124521-1.1096225-.2124521-1.7436975 0-.5812354.0751085-1.1334007.2253279-1.6565126.1502194-.5231118.3648154-.9828093.6437942-1.3791062.2789789-.3962968.6158945-.7106876 1.0107569-.9431818.3948624-.2324941.8412219-.3487395 1.3390919-.3487395.5236219 0 .993587.1347389 1.4099093.4042208.4163224.2694819.7618218.6261437 1.0365087 1.0699962s.4742611.9537468.5987286 1.5296982c.1244675.5759515.1566569 1.1703878.0965691 1.783327zm10.8543702-.1426662c0 .4332846.0600868.8031561.1802623 1.1096257.1201756.3064696.2875604.5574538.5021595.7529603.2145991.1955064.4613845.3381712.7403633.4279985.2789789.0898272.5815592.1347402.9077498.1347402.3519426 0 .6523769-.0501968.9013119-.150592s.4506552-.2298503.6051666-.388369c.1545113-.1585188.2661012-.3408126.3347729-.546887.0686718-.2060743.1030071-.4147875.1030071-.6261459 0-.4332845-.0794005-.7529592-.2382038-.9590336-.1588034-.2060744-.3326261-.351381-.5214733-.4359244-.3261907-.1479508-.7060255-.2879736-1.1395158-.4200725-.4334902-.132099-.9678341-.3038251-1.6030475-.5151834-.3948624-.126815-.7231942-.2932572-.9850051-.4993315-.261811-.2060744-.469969-.4359231-.6244804-.6895531s-.2639553-.5231078-.328335-.8084416c-.0643798-.2853337-.0965692-.5759471-.0965692-.8718487 0-.5706675.0965682-1.0647102.2897074-1.4821429.1931393-.4174327.4485084-.7635267.7661151-1.0382926.3176067-.2747658.6781279-.4781951 1.0815743-.6102941.4034463-.1320989.8111786-.1981474 1.2232089-.1981474.4807021 0 .9334995.0766162 1.3584058.229851s.7983032.3830835 1.1202019.6895531.5772678.6842669.7661151 1.1334034c.1888472.4491364.2832694.9695985.2832694 1.5614018h-1.6094855c-.0429198-.7291862-.24464-1.2443644-.6051665-1.54555-.3605266-.3011857-.8197618-.4517762-1.3777196-.4517762-.1888472 0-.3819836.0237774-.5794148.0713331-.1974312.0475556-.3776917.1268138-.5407871.2377769-.1630953.1109631-.2982908.2615537-.4055903.4517762-.1072996.1902225-.1609486.427997-.1609486.7133307 0 .4015809.1008601.7159717.3025833.9431819s.4656762.3989362.7918669.5151833c.0343358.0105679.1695312.0554809.4055903.1347403.2360591.0792593.500012.1664433.7918669.2615546.2918548.0951112.5772674.1875791.8562462.2774064.2789789.0898273.4785531.1558758.5987286.1981475.3004388.116247.5622459.2747634.785429.4755538s.4098815.4306392.5601009.6895531c.1502194.258914.2618093.5363176.334773.8322193.0729637.2959016.109445.5917988.109445.8877005 0 .634075-.105152 1.1756726-.3154592 1.624809-.2103071.4491364-.4871358.816366-.8304945 1.1016998-.3433586.2853337-.7339232.4940469-1.1717054.6261459-.4377822.1320989-.8841418.1981474-1.3390919.1981474-.5236219 0-1.0171925-.0792582-1.4807267-.2377769-.4635341-.1585187-.8669744-.4015772-1.2103331-.7291826-.3433586-.3276054-.6180414-.7476738-.8240565-1.2602177-.2060152-.5125439-.3133132-1.1175481-.3218971-1.8150306zm11.6526748-1.0462185c-.017168-.2853337-.066525-.5600954-.148073-.8242933-.081547-.2641979-.193137-.4940466-.334773-.6895531-.141635-.1955065-.313312-.3540228-.515035-.4755539-.201723-.121531-.427049-.1822956-.675984-.1822956-.257519 0-.491428.0554807-.701735.1664438-.2103076.1109632-.3905682.2641957-.5407876.4597021-.1502194.1955065-.2703931.4253552-.3605248.6895531-.0901316.2641979-.1394887.5495274-.1480726.8559969zm-3.424985 1.1888847c0 .3170375.0364813.6235025.109445.9194041.0729637.2959017.1824076.5548117.328335.776738.1459274.2219262.3304799.3989362.553663.5310351.223183.132099.489282.1981475.798305.1981475.429198 0 .774698-.1136034 1.036508-.3408136.261811-.2272102.457094-.5680204.585853-1.0224408h1.390596c-.077256.4438525-.210305.8401434-.399153 1.1888846-.188847.3487413-.416319.6419965-.682422.8797747-.266103.2377781-.564391.41743-.894874.538961-.330482.121531-.675982.1822956-1.036508.1822956-.523622 0-.9871492-.1056775-1.3905956-.3170359-.4034464-.2113583-.7446539-.5072555-1.0236328-.8877005s-.4892829-.8348586-.6309183-1.3632544-.2124521-1.1096225-.2124521-1.7436975c0-.5812354.0751086-1.1334007.225328-1.6565126.1502194-.5231118.3648153-.9828093.6437942-1.3791062.2789789-.3962968.6158944-.7106876 1.0107569-.9431818.3948624-.2324941.8412217-.3487395 1.3390917-.3487395.523622 0 .993587.1347389 1.409909.4042208.416323.2694819.761822.6261437 1.036509 1.0699962s.474261.9537468.598729 1.5296982c.124467.5759515.156657 1.1703878.096569 1.783327zm6.013038-4.565317h1.377719v1.5851795h.025752c.04292-.2219263.126612-.4385653.25108-.6499236.124467-.2113583.274684-.4042199.450656-.5785905.175971-.1743707.371253-.3143935.585852-.4200726.2146-.1056792.433487-.158518.656671-.158518.171679 0 .289707.0052839.354086.0158518.06438.0105679.130905.0211357.199577.0317036v1.7436975c-.103008-.0211358-.20816-.0396294-.31546-.0554813-.107299-.0158519-.212451-.0237777-.315459-.0237777-.248935 0-.482844.0607646-.701735.1822957-.218892.121531-.409882.3011829-.572977.538961-.163096.2377781-.291853.5310334-.386277.8797746-.094423.3487413-.141634.7503161-.141634 1.2047365v3.8995416h-1.467851zm3.875641 0h1.596609l1.686741 6.2931627h.025752l1.622361-6.2931627h1.519355l-2.382039 8.1953781h-1.648113zm7.377881-3.1228037h1.467851v1.7119939h-1.467851zm0 3.1228037h1.467851v8.1953781h-1.467851zm7.558144 2.7423605c-.060088-.5072599-.225326-.8903412-.495721-1.1492551-.270395-.258914-.611603-.388369-1.023633-.388369-.188847 0-.390568.0396291-.605167.1188885-.214599.0792593-.412027.2272079-.59229.4438502-.180264.2166423-.330481.5178234-.450656.9035524-.120176.3857289-.180263.8903393-.180263 1.5138464 0 .3381733.03219.6763416.096569 1.0145149.06438.3381733.167386.6393544.309022.9035523.141635.2641979.324042.478195.547225.6419977s.493574.2457029.81118.2457029c.429199 0 .783282-.1638003 1.062261-.4914057s.452801-.7873029.521473-1.3791062h1.467851c-.137344 1.0673596-.465675 1.8837189-.985005 2.4491024s-1.208183.848071-2.06658.848071c-.523621 0-.985003-.1083195-1.384157-.3249618-.399155-.2166422-.73607-.5125395-1.010757-.8877005s-.482845-.8216488-.62448-1.3394767c-.141636-.5178279-.212452-1.0779191-.212452-1.6802903 0-.6129391.06867-1.1888819.206014-1.7278457.137343-.5389637.343355-1.006587.618042-1.4028839.274687-.3962968.615895-.7080457 1.023633-.9352559s.886287-.3408136 1.435661-.3408136c.386278 0 .753237.0607646 1.100888.1822957.347651.121531.656669.3038248.927064.5468869s.491428.5495271.663108.9194041c.171679.3698771.274685.8084391.309021 1.315699zm7.236247.6340718c-.017168-.2853337-.066525-.5600954-.148073-.8242933-.081547-.2641979-.193137-.4940466-.334773-.6895531-.141635-.1955065-.313312-.3540228-.515035-.4755539-.201723-.121531-.427049-.1822956-.675984-.1822956-.257519 0-.491429.0554807-.701736.1664438-.210307.1109632-.390567.2641957-.540787.4597021-.150219.1955065-.270393.4253552-.360525.6895531-.090131.2641979-.139488.5495274-.148072.8559969zm-3.424985 1.1888847c0 .3170375.036481.6235025.109445.9194041.072963.2959017.182407.5548117.328335.776738.145927.2219262.33048.3989362.553663.5310351.223183.132099.489282.1981475.798305.1981475.429198 0 .774697-.1136034 1.036508-.3408136s.457094-.5680204.585853-1.0224408h1.390595c-.077255.4438525-.210305.8401434-.399152 1.1888846-.188847.3487413-.416319.6419965-.682422.8797747-.266103.2377781-.564391.41743-.894874.538961-.330482.121531-.675982.1822956-1.036508.1822956-.523622 0-.987149-.1056775-1.390596-.3170359-.403446-.2113583-.744654-.5072555-1.023633-.8877005-.278978-.380445-.489282-.8348586-.630918-1.3632544-.141635-.5283958-.212452-1.1096225-.212452-1.7436975 0-.5812354.075109-1.1334007.225328-1.6565126.150219-.5231118.364815-.9828093.643794-1.3791062.278979-.3962968.615895-.7106876 1.010757-.9431818.394862-.2324941.841222-.3487395 1.339092-.3487395.523622 0 .993587.1347389 1.409909.4042208.416323.2694819.761822.6261437 1.036509 1.0699962s.474261.9537468.598729 1.5296982c.124467.5759515.156656 1.1703878.096569 1.783327z" fill="#4a4a4a"/></g><g transform="translate(32 106)"><path d="m10 1.5c-4.69442037 0-8.5 3.80557963-8.5 8.5v63c0 4.6944204 3.80557963 8.5 8.5 8.5h166c4.69442 0 8.5-3.8055796 8.5-8.5v-63c0-4.69442037-3.80558-8.5-8.5-8.5z" fill="#fff" stroke="#3662a2" stroke-width="3"/><path d="m54.1826087 35.8409091h1.6996167l4.1975381 8.3380443h.0257518v-8.3380443h1.5322302v11.3181818h-1.6996167l-4.1846623-8.3221925h-.0386276v8.3221925h-1.5322302zm12.2063379 11.5401069c-.5322058 0-1.0064628-.1083195-1.4227851-.3249618-.4163224-.2166422-.7682597-.5151814-1.0558225-.8956264-.2875629-.380445-.5064507-.8348586-.6566701-1.3632544s-.225328-1.1096225-.225328-1.7436975c0-.623507.0751086-1.1994498.225328-1.7278456.1502194-.5283959.3691072-.9828095.6566701-1.3632544.2875628-.380445.6395001-.6789842 1.0558225-.8956265.4163223-.2166423.8905793-.3249618 1.4227851-.3249618.5322059 0 1.0064629.1083195 1.4227852.3249618s.7682596.5151815 1.0558225.8956265c.2875628.3804449.5064507.8348585.6566701 1.3632544.1502194.5283958.2253279 1.1043386.2253279 1.7278456 0 .634075-.0751085 1.2153017-.2253279 1.7436975s-.3691073.9828094-.6566701 1.3632544c-.2875629.380445-.6395002.6789842-1.0558225.8956264-.4163223.2166423-.8905793.3249618-1.4227852.3249618zm0-1.4266615c.3261907 0 .6094573-.0845421.8498084-.2536288.240351-.1690866.4377793-.3910095.5922906-.6657754.1545114-.2747658.2682472-.5838727.341211-.92733.0729637-.3434573.109445-.6948352.109445-1.0541444 0-.3487412-.0364813-.6974772-.109445-1.0462185-.0729638-.3487412-.1866996-.6578481-.341211-.92733-.1545113-.2694818-.3519396-.4887628-.5922906-.6578495-.2403511-.1690866-.5236177-.2536287-.8498084-.2536287s-.6094573.0845421-.8498083.2536287c-.240351.1690867-.4377793.3883677-.5922907.6578495-.1545113.2694819-.2682472.5785888-.3412109.92733-.0729637.3487413-.109445.6974773-.109445 1.0462185 0 .3593092.0364813.7106871.109445 1.0541444s.1866996.6525642.3412109.92733c.1545114.2747659.3519397.4966888.5922907.6657754.240351.1690867.5236176.2536288.8498083.2536288zm10.8543702 1.2047364h-1.3905955v-1.1096257h-.0257518c-.1974312.4755563-.4849897.8163665-.8626842 1.0224408-.3776945.2060744-.7768429.30911-1.1974572.30911-.5236219 0-.9807112-.1136034-1.3712816-.3408136-.3905705-.2272102-.7146103-.5363171-.9721293-.92733-.2575189-.3910129-.4506553-.8533523-.5794147-1.3870321-.1287595-.5336797-.1931383-1.1069806-.1931383-1.7199197 0-.7397542.0815465-1.3791035.2446418-1.9180673.1630953-.5389637.3798372-.9828095.6502321-1.3315508.2703949-.3487412.5794131-.6050093.9270637-.768812.3476506-.1638028.7017338-.2457029 1.0622604-.2457029.2060152 0 .4163192.0237775.6309183.0713331s.4206112.1241719.6180424.229851c.1974312.1056792.3798378.2404181.5472251.4042208s.3068747.3566643.4184662.5785905h.0257518v-4.1848739h1.4678508zm-5.1246018-4.0105042c0 .3487412.0364813.6921934.109445 1.0303667s.1845536.6393544.334773.9035523.3412097.4755531.5729768.6340718c.2317671.1585188.5064498.237777.8240566.237777.3261907 0 .6073113-.0845421.8433704-.2536288.236059-.1690866.4291953-.3910095.5794147-.6657754.1502194-.2747658.2618093-.5838727.334773-.92733s.109445-.6948352.109445-1.0541444c0-.9088408-.1652388-1.6168805-.4957215-2.1241405s-.7789881-.7608862-1.3455299-.7608862c-.3433586 0-.6330631.087184-.8691221.2615546-.2360591.1743706-.4291954.4015774-.5794148.6816272s-.2575174.5970825-.3218971.9511077-.0965691.7159709-.0965691 1.085848zm11.2921502-.8084416c-.017168-.2853337-.066525-.5600954-.1480727-.8242933s-.1931376-.4940466-.334773-.6895531-.3133122-.3540228-.5150354-.4755539c-.2017231-.121531-.4270489-.1822956-.6759839-.1822956-.2575189 0-.4914285.0554807-.7017356.1664438-.2103072.1109632-.3905678.2641957-.5407872.4597021-.1502193.1955065-.2703931.4253552-.3605247.6895531s-.1394887.5495274-.1480727.8559969zm-3.4249852 1.1888847c0 .3170375.0364813.6235025.109445.9194041.0729638.2959017.1824077.5548117.3283351.776738.1459274.2219262.3304799.3989362.553663.5310351.2231831.132099.489282.1981475.7983048.1981475.4291983 0 .7746977-.1136034 1.0365086-.3408136.261811-.2272102.4570933-.5680204.5858528-1.0224408h1.3905954c-.0772557.4438525-.2103051.8401434-.3991524 1.1888846-.1888472.3487413-.4163189.6419965-.6824218.8797747-.266103.2377781-.5643913.41743-.894874.538961-.3304826.121531-.6759821.1822956-1.0365086.1822956-.5236219 0-.9871491-.1056775-1.3905955-.3170359-.4034463-.2113583-.7446539-.5072555-1.0236327-.8877005-.2789789-.380445-.4892829-.8348586-.6309183-1.3632544-.1416355-.5283958-.2124521-1.1096225-.2124521-1.7436975 0-.5812354.0751085-1.1334007.2253279-1.6565126.1502194-.5231118.3648154-.9828093.6437942-1.3791062.2789789-.3962968.6158945-.7106876 1.0107569-.9431818.3948624-.2324941.8412219-.3487395 1.3390919-.3487395.5236219 0 .993587.1347389 1.4099093.4042208.4163224.2694819.7618218.6261437 1.0365087 1.0699962s.4742611.9537468.5987286 1.5296982c.1244675.5759515.1566569 1.1703878.0965691 1.783327zm10.8543702-.1426662c0 .4332846.0600868.8031561.1802623 1.1096257.1201756.3064696.2875604.5574538.5021595.7529603.2145991.1955064.4613845.3381712.7403633.4279985.2789789.0898272.5815592.1347402.9077498.1347402.3519426 0 .6523769-.0501968.9013119-.150592s.4506552-.2298503.6051666-.388369c.1545113-.1585188.2661012-.3408126.3347729-.546887.0686718-.2060743.1030071-.4147875.1030071-.6261459 0-.4332845-.0794005-.7529592-.2382038-.9590336-.1588034-.2060744-.3326261-.351381-.5214733-.4359244-.3261907-.1479508-.7060255-.2879736-1.1395158-.4200725-.4334902-.132099-.9678341-.3038251-1.6030475-.5151834-.3948624-.126815-.7231942-.2932572-.9850051-.4993315-.261811-.2060744-.469969-.4359231-.6244804-.6895531s-.2639553-.5231078-.328335-.8084416c-.0643798-.2853337-.0965692-.5759471-.0965692-.8718487 0-.5706675.0965682-1.0647102.2897074-1.4821429.1931393-.4174327.4485084-.7635267.7661151-1.0382926.3176067-.2747658.6781279-.4781951 1.0815743-.6102941.4034463-.1320989.8111786-.1981474 1.2232089-.1981474.4807021 0 .9334995.0766162 1.3584058.229851s.7983032.3830835 1.1202019.6895531.5772678.6842669.7661151 1.1334034c.1888472.4491364.2832694.9695985.2832694 1.5614018h-1.6094855c-.0429198-.7291862-.24464-1.2443644-.6051665-1.54555-.3605266-.3011857-.8197618-.4517762-1.3777196-.4517762-.1888472 0-.3819836.0237774-.5794148.0713331-.1974312.0475556-.3776917.1268138-.5407871.2377769-.1630953.1109631-.2982908.2615537-.4055903.4517762-.1072996.1902225-.1609486.427997-.1609486.7133307 0 .4015809.1008601.7159717.3025833.9431819s.4656762.3989362.7918669.5151833c.0343358.0105679.1695312.0554809.4055903.1347403.2360591.0792593.500012.1664433.7918669.2615546.2918548.0951112.5772674.1875791.8562462.2774064.2789789.0898273.4785531.1558758.5987286.1981475.3004388.116247.5622459.2747634.785429.4755538s.4098815.4306392.5601009.6895531c.1502194.258914.2618093.5363176.334773.8322193.0729637.2959016.109445.5917988.109445.8877005 0 .634075-.105152 1.1756726-.3154592 1.624809-.2103071.4491364-.4871358.816366-.8304945 1.1016998-.3433586.2853337-.7339232.4940469-1.1717054.6261459-.4377822.1320989-.8841418.1981474-1.3390919.1981474-.5236219 0-1.0171925-.0792582-1.4807267-.2377769-.4635341-.1585187-.8669744-.4015772-1.2103331-.7291826-.3433586-.3276054-.6180414-.7476738-.8240565-1.2602177-.2060152-.5125439-.3133132-1.1175481-.3218971-1.8150306zm11.6526748-1.0462185c-.017168-.2853337-.066525-.5600954-.148073-.8242933-.081547-.2641979-.193137-.4940466-.334773-.6895531-.141635-.1955065-.313312-.3540228-.515035-.4755539-.201723-.121531-.427049-.1822956-.675984-.1822956-.257519 0-.491428.0554807-.701735.1664438-.2103076.1109632-.3905682.2641957-.5407876.4597021-.1502194.1955065-.2703931.4253552-.3605248.6895531-.0901316.2641979-.1394887.5495274-.1480726.8559969zm-3.424985 1.1888847c0 .3170375.0364813.6235025.109445.9194041.0729637.2959017.1824076.5548117.328335.776738.1459274.2219262.3304799.3989362.553663.5310351.223183.132099.489282.1981475.798305.1981475.429198 0 .774698-.1136034 1.036508-.3408136.261811-.2272102.457094-.5680204.585853-1.0224408h1.390596c-.077256.4438525-.210305.8401434-.399153 1.1888846-.188847.3487413-.416319.6419965-.682422.8797747-.266103.2377781-.564391.41743-.894874.538961-.330482.121531-.675982.1822956-1.036508.1822956-.523622 0-.9871492-.1056775-1.3905956-.3170359-.4034464-.2113583-.7446539-.5072555-1.0236328-.8877005s-.4892829-.8348586-.6309183-1.3632544-.2124521-1.1096225-.2124521-1.7436975c0-.5812354.0751086-1.1334007.225328-1.6565126.1502194-.5231118.3648153-.9828093.6437942-1.3791062.2789789-.3962968.6158944-.7106876 1.0107569-.9431818.3948624-.2324941.8412217-.3487395 1.3390917-.3487395.523622 0 .993587.1347389 1.409909.4042208.416323.2694819.761822.6261437 1.036509 1.0699962s.474261.9537468.598729 1.5296982c.124467.5759515.156657 1.1703878.096569 1.783327zm6.013038-4.565317h1.377719v1.5851795h.025752c.04292-.2219263.126612-.4385653.25108-.6499236.124467-.2113583.274684-.4042199.450656-.5785905.175971-.1743707.371253-.3143935.585852-.4200726.2146-.1056792.433487-.158518.656671-.158518.171679 0 .289707.0052839.354086.0158518.06438.0105679.130905.0211357.199577.0317036v1.7436975c-.103008-.0211358-.20816-.0396294-.31546-.0554813-.107299-.0158519-.212451-.0237777-.315459-.0237777-.248935 0-.482844.0607646-.701735.1822957-.218892.121531-.409882.3011829-.572977.538961-.163096.2377781-.291853.5310334-.386277.8797746-.094423.3487413-.141634.7503161-.141634 1.2047365v3.8995416h-1.467851zm3.875641 0h1.596609l1.686741 6.2931627h.025752l1.622361-6.2931627h1.519355l-2.382039 8.1953781h-1.648113zm7.377881-3.1228037h1.467851v1.7119939h-1.467851zm0 3.1228037h1.467851v8.1953781h-1.467851zm7.558144 2.7423605c-.060088-.5072599-.225326-.8903412-.495721-1.1492551-.270395-.258914-.611603-.388369-1.023633-.388369-.188847 0-.390568.0396291-.605167.1188885-.214599.0792593-.412027.2272079-.59229.4438502-.180264.2166423-.330481.5178234-.450656.9035524-.120176.3857289-.180263.8903393-.180263 1.5138464 0 .3381733.03219.6763416.096569 1.0145149.06438.3381733.167386.6393544.309022.9035523.141635.2641979.324042.478195.547225.6419977s.493574.2457029.81118.2457029c.429199 0 .783282-.1638003 1.062261-.4914057s.452801-.7873029.521473-1.3791062h1.467851c-.137344 1.0673596-.465675 1.8837189-.985005 2.4491024s-1.208183.848071-2.06658.848071c-.523621 0-.985003-.1083195-1.384157-.3249618-.399155-.2166422-.73607-.5125395-1.010757-.8877005s-.482845-.8216488-.62448-1.3394767c-.141636-.5178279-.212452-1.0779191-.212452-1.6802903 0-.6129391.06867-1.1888819.206014-1.7278457.137343-.5389637.343355-1.006587.618042-1.4028839.274687-.3962968.615895-.7080457 1.023633-.9352559s.886287-.3408136 1.435661-.3408136c.386278 0 .753237.0607646 1.100888.1822957.347651.121531.656669.3038248.927064.5468869s.491428.5495271.663108.9194041c.171679.3698771.274685.8084391.309021 1.315699zm7.236247.6340718c-.017168-.2853337-.066525-.5600954-.148073-.8242933-.081547-.2641979-.193137-.4940466-.334773-.6895531-.141635-.1955065-.313312-.3540228-.515035-.4755539-.201723-.121531-.427049-.1822956-.675984-.1822956-.257519 0-.491429.0554807-.701736.1664438-.210307.1109632-.390567.2641957-.540787.4597021-.150219.1955065-.270393.4253552-.360525.6895531-.090131.2641979-.139488.5495274-.148072.8559969zm-3.424985 1.1888847c0 .3170375.036481.6235025.109445.9194041.072963.2959017.182407.5548117.328335.776738.145927.2219262.33048.3989362.553663.5310351.223183.132099.489282.1981475.798305.1981475.429198 0 .774697-.1136034 1.036508-.3408136s.457094-.5680204.585853-1.0224408h1.390595c-.077255.4438525-.210305.8401434-.399152 1.1888846-.188847.3487413-.416319.6419965-.682422.8797747-.266103.2377781-.564391.41743-.894874.538961-.330482.121531-.675982.1822956-1.036508.1822956-.523622 0-.987149-.1056775-1.390596-.3170359-.403446-.2113583-.744654-.5072555-1.023633-.8877005-.278978-.380445-.489282-.8348586-.630918-1.3632544-.141635-.5283958-.212452-1.1096225-.212452-1.7436975 0-.5812354.075109-1.1334007.225328-1.6565126.150219-.5231118.364815-.9828093.643794-1.3791062.278979-.3962968.615895-.7106876 1.010757-.9431818.394862-.2324941.841222-.3487395 1.339092-.3487395.523622 0 .993587.1347389 1.409909.4042208.416323.2694819.761822.6261437 1.036509 1.0699962s.474261.9537468.598729 1.5296982c.124467.5759515.156656 1.1703878.096569 1.783327z" fill="#4a4a4a"/></g></g><g filter="url(#d)" transform="translate(280 61)"><g filter="url(#e)"><use fill="#000" filter="url(#g)" xlink:href="#f"/><use fill="#fff" fill-rule="evenodd" xlink:href="#f"/><g transform="translate(13 10)"><path d="m10 1.5c-4.69442037 0-8.5 3.80557963-8.5 8.5v60c0 4.6944204 3.80557963 8.5 8.5 8.5h200c4.69442 0 8.5-3.8055796 8.5-8.5v-60c0-4.69442037-3.80558-8.5-8.5-8.5z" fill="#fff" stroke="#40b6c6" stroke-width="3"/><path d="m57 33h9.248v1.728h-3.632v9.696h-2v-9.696h-3.616zm14.224 6.56c-.0213334-.2880014-.0826662-.565332-.184-.832s-.2399991-.4986657-.416-.696-.3893321-.3573327-.64-.48-.5306651-.184-.84-.184c-.3200016 0-.6106654.0559994-.872.168s-.4853324.2666657-.672.464-.3359994.429332-.448.696-.1733333.5546651-.184.864zm-4.256 1.2c0 .3200016.0453329.6293318.136.928s.2266658.5599989.408.784.4106653.402666.688.536.6079981.2.992.2c.533336 0 .962665-.1146655 1.288-.344s.5679992-.573331.728-1.032h1.728c-.0960005.4480022-.2613322.8479982-.496 1.2s-.5173317.6479988-.848.888-.7013313.4213327-1.112.544-.8399978.184-1.288.184c-.6506699 0-1.2266642-.1066656-1.728-.32s-.9253316-.5119981-1.272-.896-.6079991-.842664-.784-1.376-.264-1.1199968-.264-1.76c0-.5866696.0933324-1.1439974.28-1.672s.4533316-.991998.8-1.392.7653309-.7173322 1.256-.952 1.0453302-.352 1.664-.352c.6506699 0 1.2346641.1359986 1.752.408s.946665.6319978 1.288 1.08.5893326.9626638.744 1.544.194667 1.1813302.12 1.8zm7.52-7.76h1.824v11.424h-1.824zm9.488 6.56c-.0213334-.2880014-.0826662-.565332-.184-.832s-.2399991-.4986657-.416-.696-.3893321-.3573327-.64-.48-.5306651-.184-.84-.184c-.3200016 0-.6106654.0559994-.872.168s-.4853324.2666657-.672.464-.3359994.429332-.448.696-.1733333.5546651-.184.864zm-4.256 1.2c0 .3200016.0453329.6293318.136.928s.2266658.5599989.408.784.4106653.402666.688.536.6079981.2.992.2c.533336 0 .962665-.1146655 1.288-.344s.5679992-.573331.728-1.032h1.728c-.0960005.4480022-.2613322.8479982-.496 1.2s-.5173317.6479988-.848.888-.7013313.4213327-1.112.544-.8399978.184-1.288.184c-.6506699 0-1.2266642-.1066656-1.728-.32s-.9253316-.5119981-1.272-.896-.6079991-.842664-.784-1.376-.264-1.1199968-.264-1.76c0-.5866696.0933324-1.1439974.28-1.672s.4533316-.991998.8-1.392.7653309-.7173322 1.256-.952 1.0453302-.352 1.664-.352c.6506699 0 1.2346641.1359986 1.752.408s.946665.6319978 1.288 1.08.5893326.9626638.744 1.544.194667 1.1813302.12 1.8zm7.52-4.608h1.728v1.12h.032c.2560013-.4800024.613331-.823999 1.072-1.032s.954664-.312 1.488-.312c.6506699 0 1.2186642.1146655 1.704.344s.8879984.543998 1.208.944.5599992.866664.72 1.4.24 1.103997.24 1.712c0 .5546694-.0719993 1.0933307-.216 1.616s-.3626652.984-.656 1.384c-.2933348.400002-.6639978.7199988-1.112.96s-.975997.36-1.584.36c-.266668 0-.533332-.0239998-.8-.072s-.5226654-.1253328-.768-.232-.471999-.2426658-.68-.408-.3813326-.3599989-.52-.584h-.032v4.128h-1.824zm6.368 4.144c0-.3733352-.0479995-.7359982-.144-1.088s-.239999-.6639986-.432-.936-.4319986-.4906658-.72-.656-.6186648-.248-.992-.248c-.7680038 0-1.3466647.266664-1.736.8s-.584 1.2426622-.584 2.128c0 .4160021.0506662.8026649.152 1.16s.2533323.6639987.456.92.4453319.4586659.728.608.6106648.224.984.224c.4160021 0 .7679986-.0853325 1.056-.256s.5253324-.3919986.712-.664.3199996-.5813316.4-.928.12-.7013315.12-1.064zm7.152 4.352c-.661337 0-1.2506641-.1093322-1.768-.328s-.9546649-.5199981-1.312-.904-.6293324-.842664-.816-1.376-.28-1.1199968-.28-1.76c0-.6293365.0933324-1.210664.28-1.744s.4586649-.9919981.816-1.376.7946641-.6853322 1.312-.904 1.106663-.328 1.768-.328 1.250664.1093322 1.768.328.954665.5199981 1.312.904.629332.842664.816 1.376.28 1.1146635.28 1.744c0 .6400032-.093332 1.226664-.28 1.76s-.458665.9919981-.816 1.376-.794664.6853322-1.312.904-1.106663.328-1.768.328zm0-1.44c.405335 0 .757332-.0853325 1.056-.256s.543999-.3946653.736-.672.333333-.5893316.424-.936.136-.7013315.136-1.064c0-.3520018-.045333-.7039982-.136-1.056s-.231999-.6639986-.424-.936-.437332-.4933325-.736-.664-.650665-.256-1.056-.256-.757332.0853325-1.056.256c-.2986682.1706675-.543999.3919986-.736.664s-.3333329.5839982-.424.936-.136.7039982-.136 1.056c0 .3626685.0453329.7173316.136 1.064s.231999.6586653.424.936.4373318.5013325.736.672c.298668.1706675.650665.256 1.056.256zm5.696-7.056h1.712v1.6h.032c.053334-.2240011.157333-.4426656.312-.656s.341332-.4079991.56-.584.461332-.3173328.728-.424.538665-.16.816-.16c.213334 0 .36.0053333.44.016s.162666.0213333.248.032v1.76c-.128001-.0213334-.258666-.0399999-.392-.056s-.263999-.024-.392-.024c-.309335 0-.599999.0613327-.872.184s-.509332.3039988-.712.544-.362666.5359982-.48.888-.176.757331-.176 1.216v3.936h-1.824zm4.8 0h1.376v-2.48h1.824v2.48h1.648v1.36h-1.648v4.416c0 .192001.008.3573326.024.496s.053333.2559995.112.352.146666.1679998.264.216.277332.072.48.072c.128001 0 .255999-.0026666.384-.008s.255999-.0239998.384-.056v1.408c-.202668.0213334-.399999.0426666-.592.064s-.389332.032-.592.032c-.480002 0-.866665-.0453329-1.16-.136s-.522666-.2239991-.688-.4-.277333-.397332-.336-.664-.093333-.570665-.104-.912v-4.88h-1.376zm10.864-3.152h5.04c.810671 0 1.471997.1173322 1.984.352s.906665.5279982 1.184.88.466666.7359979.568 1.152.152.7999982.152 1.152-.050666.7333313-.152 1.144-.290665.7919982-.568 1.144-.671997.6426655-1.184.872-1.173329.344-1.984.344h-3.04v4.384h-2zm2 5.408h2.928c.224001 0 .453332-.0319997.688-.096s.450666-.1679993.648-.312.357333-.3359988.48-.576.184-.5413315.184-.904c0-.3733352-.053333-.6826654-.16-.928s-.250666-.4399993-.432-.584-.389332-.2426664-.624-.296-.485332-.08-.752-.08h-2.96zm8.416-2.256h1.712v1.6h.032c.053334-.2240011.157333-.4426656.312-.656s.341332-.4079991.56-.584.461332-.3173328.728-.424.538665-.16.816-.16c.213334 0 .36.0053333.44.016s.162666.0213333.248.032v1.76c-.128001-.0213334-.258666-.0399999-.392-.056s-.263999-.024-.392-.024c-.309335 0-.599999.0613327-.872.184s-.509332.3039988-.712.544-.362666.5359982-.48.888-.176.757331-.176 1.216v3.936h-1.824zm9.136 8.496c-.661337 0-1.250664-.1093322-1.768-.328s-.954665-.5199981-1.312-.904-.629332-.842664-.816-1.376-.28-1.1199968-.28-1.76c0-.6293365.093332-1.210664.28-1.744s.458665-.9919981.816-1.376.794664-.6853322 1.312-.904 1.106663-.328 1.768-.328 1.250664.1093322 1.768.328.954665.5199981 1.312.904.629332.842664.816 1.376.28 1.1146635.28 1.744c0 .6400032-.093332 1.226664-.28 1.76s-.458665.9919981-.816 1.376-.794664.6853322-1.312.904-1.106663.328-1.768.328zm0-1.44c.405335 0 .757332-.0853325 1.056-.256s.543999-.3946653.736-.672.333333-.5893316.424-.936.136-.7013315.136-1.064c0-.3520018-.045333-.7039982-.136-1.056s-.231999-.6639986-.424-.936-.437332-.4933325-.736-.664-.650665-.256-1.056-.256-.757332.0853325-1.056.256-.543999.3919986-.736.664-.333333.5839982-.424.936-.136.7039982-.136 1.056c0 .3626685.045333.7173316.136 1.064s.231999.6586653.424.936.437332.5013325.736.672.650665.256 1.056.256zm7.92-3.136-2.864-3.92h2.208l1.728 2.544 1.808-2.544h2.112l-2.816 3.824 3.168 4.448h-2.192l-2.096-3.056-2.032 3.056h-2.144zm5.456-3.92h2l2.16 6.176h.032l2.096-6.176h1.904l-3.216 8.72c-.149334.3733352-.295999.730665-.44 1.072s-.319999.6426654-.528.904-.466665.4693326-.776.624-.703998.232-1.184.232c-.426669 0-.847998-.0319997-1.264-.096v-1.536c.149334.0213334.293333.0453332.432.072s.282666.04.432.04c.213334 0 .389333-.0266664.528-.08s.253333-.1306662.344-.232.168-.2213326.232-.36.122666-.2986658.176-.48l.208-.64z" fill="#4a4a4a"/></g></g></g><path d="m642.5 247-6.5-13h13z" fill="#d1eaff" stroke="#d1eaff" transform="matrix(1 0 0 -1 0 481)"/><g transform="translate(517)"><path d="m1.5 1.5h108.92381v41.58042h-108.92381z" fill="#eef4f9" stroke="#d1eaff" stroke-width="3"/><text fill="#4a4a4a" font-family="LucidaGrande, Lucida Grande" font-size="13"><tspan x="18.97263" y="18.750958">joe wants to</tspan><tspan x="7.277073" y="34.750958">access</tspan><tspan font-family="LucidaGrande-Bold, Lucida Grande" font-weight="bold" x="52.383519" y="34.750958">grav-00</tspan></text><path d="m98.5 58-6.5-13h13z" fill="#d1eaff" stroke="#d1eaff" transform="matrix(-1 0 0 1 197 0)"/></g><g transform="translate(629 204)"><circle cx="13.5" cy="13.5" fill="#f26738" r="13.5"/><text fill="#fff" font-family="HelveticaNeue-Medium, Helvetica Neue" font-size="16" font-weight="400"><tspan x="9.052" y="20">2</tspan></text></g><g transform="translate(571 136)"><circle cx="13.5" cy="13.5" fill="#f26738" r="13.5"/><text fill="#fff" font-family="HelveticaNeue-Medium, Helvetica Neue" font-size="16" font-weight="400"><tspan x="9.052" y="20">3</tspan></text></g><g transform="translate(207 145)"><circle cx="13.5" cy="13.5" fill="#f26738" r="13.5"/><text fill="#fff" font-family="HelveticaNeue-Medium, Helvetica Neue" font-size="16" font-weight="400"><tspan x="9.052" y="20">4</tspan></text></g><g transform="translate(603 247)"><path d="m1.5 1.5h111v58h-111z" fill="#eef4f9" stroke="#d1eaff" stroke-width="3"/><text fill="#4a4a4a" font-family="LucidaGrande, Lucida Grande" font-size="13"><tspan x="13.586511" y="19.389953">joe can access</tspan><tspan font-family="LucidaGrande-Bold, Lucida Grande" font-weight="bold" x="22.047937" y="35.389953">grav-00</tspan><tspan x="81.627039" y="35.389953">as</tspan><tspan x="14.973474" y="51.389953">root or joe</tspan></text></g><path d="m580.5 181-6.5-13h13z" fill="#d1eaff" stroke="#d1eaff" transform="matrix(1 0 0 -1 0 349)"/><path d="m354.5 182.5h242v23h-242z" fill="#eef4f9" stroke="#d1eaff" stroke-width="3"/><text fill="#4a4a4a" font-family="LucidaGrande, Lucida Grande" font-size="13"><tspan x="361.154541" y="199">Proxy opens SSH tunnel to</tspan><tspan font-family="LucidaGrande-Bold, Lucida Grande" font-weight="bold" x="531.551025" y="199">grav-00</tspan></text><path d="m222.5 190-6.5-13h13z" fill="#d1eaff" stroke="#d1eaff" transform="matrix(1 0 0 -1 0 367)"/><path d="m176.5 192.5h143v73h-143z" fill="#eef4f9" stroke="#d1eaff" stroke-width="3"/><text fill="#4a4a4a" font-family="LucidaGrande, Lucida Grande" font-size="13"><tspan x="186.065918" y="209">Client uses existing</tspan><tspan x="205.651611" y="225">SSH tunnel to</tspan><tspan x="185.043945" y="241">connect to</tspan><tspan font-family="LucidaGrande-Bold, Lucida Grande" font-weight="bold" x="255.661621" y="241">grav-00</tspan> <tspan x="310.956055" y="241"/> <tspan x="206.841797" y="257">via the proxy</tspan></text><text fill="#4a4a4a" font-family="LucidaGrande-Bold, Lucida Grande" font-size="11" font-weight="bold"><tspan x="726.389648" y="94">grav-00 10.X.X.1 arch=debian</tspan></text><g transform="translate(500 224)"><rect height="73" rx="9" stroke="#cd3918" stroke-width="3" width="87" x="1.5" y="1.5"/><text fill="#4a4a4a" font-family="LucidaGrande, Lucida Grande" font-size="13"><tspan x="18.59375" y="36">Teleport</tspan><tspan x="18.009766" y="52">Auth API</tspan></text></g><path d="m704.922296 150.232295-5.191977 8.61936-2.142319-3.378655-97.642 61.898 2.142379 3.378671-10.010675 1.018034 5.191977-8.61936 2.141319 3.377655 97.642-61.898-2.141379-3.377671z" fill="#979797" fill-rule="nonzero"/><g filter="url(#h)" transform="translate(366 240)"><rect fill="#fff" height="50" rx="10" width="128"/><text fill="#4a4a4a" font-family="LucidaGrande, Lucida Grande" font-size="11"><tspan x="9" y="17">Teleport User : login</tspan><tspan font-family="LucidaGrande-Bold, Lucida Grande" font-weight="bold" x="9" y="30">joe : root, joe</tspan> <tspan font-family="LucidaGrande-Bold, Lucida Grande" font-weight="bold" x="9" y="43">tara :tara</tspan></text></g><g transform="translate(603 64)"><circle cx="13.5" cy="13.5" fill="#f26738" r="13.5"/><text fill="#fff" font-family="HelveticaNeue-Medium, Helvetica Neue" font-size="16" font-weight="400"><tspan x="9.052" y="20">1</tspan></text></g><use fill="#000" filter="url(#j)" xlink:href="#i"/><use fill="#fff" fill-rule="evenodd" xlink:href="#i"/><g transform="translate(54 183)"><text fill="#4a4a4a" font-family="HelveticaNeue-Medium, Helvetica Neue" font-size="16" font-weight="400"><tspan x=".280757" y="69.084746">Web client</tspan></text><g fill-rule="evenodd"><path d="m.25.25v45.9491525h78.7612613v-45.9491525z" stroke="#4a4a4a" stroke-width=".5"/><path d="m0 0h79.261261v6.058585h-79.261261z" fill="#4a4a4a"/><g fill="#e6e3e7"><ellipse cx="17.49924" cy="3.029293" rx="2.058734" ry="2.019528"/><ellipse cx="11.323037" cy="3.029293" rx="2.058734" ry="2.019528"/><ellipse cx="5.146835" cy="3.029293" rx="2.058734" ry="2.019528"/></g><path d="m18.9925422 20.1180929h1.3085586v2.9314576h3.4022522v-2.9314576h1.3085586v7.3699322h-1.3085586v-3.323695h-3.4022522v3.323695h-1.3085586zm6.8777838 0h6.0507748v1.1147796h-2.3763424v6.2551526h-1.3085585v-6.2551526h-2.3658739zm6.2078018 0h6.0507748v1.1147796h-2.3763424v6.2551526h-1.3085585v-6.2551526h-2.3658739zm6.9196576 0h3.2975676c.5304051 0 .9630974.0756941 1.2980901.2270847s.5932123.340626.7746667.5677119c.1814543.2270858.30533.4748122.3716306.7431864s.0994505.5161006.0994505.7431864c0 .2270859-.0331499.4730919-.0994505.7380255-.0663006.2649335-.1901763.5109395-.3716306.7380254-.1814544.2270859-.439674.4146009-.7746667.5625508s-.767685.2219238-1.2980901.2219238h-1.989009v2.8282373h-1.3085586zm1.3085586 3.4888474h1.9157297c.1465593 0 .2966059-.0206439.4501442-.0619322s.2948612-.1083809.423973-.2012797c.1291117-.0928987.2337953-.2167619.314054-.3715932s.1203874-.3492276.1203874-.5831949c0-.2408487-.0348946-.440406-.1046847-.598678-.0697901-.1582719-.1640054-.2838554-.2826486-.3767542-.1186433-.0928988-.254732-.1565507-.4082703-.1909576-.1535383-.034407-.3175427-.0516102-.492018-.0516102h-1.9366667zm6.5323243 1.4244407c0 .282137.0488524.522982.1465586.7225424.0977062.1995603.2337949.3629908.4082703.4902966.1744753.1273057.3751189.2202031.6019369.2786949.2268179.0584918.4728245.0877373.738027.0877373.2861396 0 .5304014-.0326861.7327928-.0980593.2023914-.0653733.3663958-.149669.492018-.2528899.1256223-.1032208.2163481-.221923.2721802-.3561101.0558321-.1341872.0837478-.2700926.0837478-.4077204 0-.282137-.0645549-.4902959-.1936667-.624483s-.2704347-.2288048-.423973-.283856c-.2652025-.0963394-.5740192-.1875165-.9264594-.2735339-.3524402-.0860173-.7868773-.1978383-1.3033244-.3354661-.3210346-.0825767-.5879779-.1909569-.8008378-.325144s-.3820985-.2838551-.5077207-.4490085c-.1256223-.1651534-.2146034-.3406262-.266946-.5264237-.0523426-.1857976-.0785135-.375033-.0785135-.5677119 0-.3715951.0785127-.6932953.2355406-.9651102.1570278-.2718149.3646503-.497177.6228738-.6760932.2582235-.1789161.5513377-.3113809.8793514-.3973983.3280136-.0860174.6595118-.1290254.9945045-.1290254.3908248 0 .7589622.0498893 1.1044234.1496695.3454612.0997801.6490437.2494481.9107568.4490084.261713.1995604.4693355.4455664.6228738.7380255s.2303064.6313624.2303064 1.0167203h-1.3085586c-.0348951-.4748159-.1988994-.8102787-.492018-1.0063983s-.6664903-.294178-1.1201262-.294178c-.1535383 0-.3105637.0154829-.471081.0464492-.1605174.0309662-.3070744.0825759-.4396757.1548305s-.2425191.1703129-.3297568.294178c-.0872376.123865-.1308558.2786939-.1308558.4644915 0 .2614928.0820022.4662111.246009.614161s.3786083.2597708.6438108.3354661c.0279161.0068814.1378339.0361269.3297568.0877373.1919228.0516104.4065243.108381.6438108.1703136.2372864.0619325.4693352.1221437.6961531.1806355.226818.0584919.3890776.1014999.4867838.1290255.2442655.0756953.4571222.1789146.6385766.309661.1814543.1307464.3332456.2804144.4553784.4490085.1221327.168594.2128585.3492278.2721801.5419067.0593217.192679.088982.385355.088982.5780339 0 .4128835-.0854916.7655494-.2564775 1.0580085-.1709858.2924591-.3960556.5315838-.6752162.7173814-.2791605.1857975-.5967009.3217029-.9526306.4077203s-.718833.1290254-1.0887207.1290254c-.4257199 0-.8270072-.0516096-1.2038739-.1548305-.3768667-.1032208-.7048755-.2614904-.984036-.4748135-.2791606-.2133231-.5024857-.4868543-.669982-.8206017-.1674964-.3337475-.2547327-.7277012-.2617117-1.1818729zm5.8518739 1.0631695h1.4551171v1.3934746h-1.4551171zm0-3.8294746h1.4551171v1.3934746h-1.4551171zm4.9620541-2.3224576h1.141063l-3.0044504 7.7208813h-1.1410631zm3.6849009 0h1.141063l-3.0044504 7.7208813h-1.1410631z" fill="#4a4a4a"/></g></g><g transform="translate(53 75)"><g fill-rule="evenodd"><path d="m.25.25v45.4h78.5181818v-45.4z" fill="#4a4a4a" stroke="#4a4a4a" stroke-width=".5"/><path d="m0 0h79.018182v5.828571h-79.018182z" fill="#d8d8d8"/><g fill="#4a4a4a"><ellipse cx="17.890909" cy="2.914286" rx="2.236364" ry="2.185714"/><ellipse cx="11.181818" cy="2.914286" rx="2.236364" ry="2.185714"/><ellipse cx="5.218182" cy="2.914286" rx="2.236364" ry="2.185714"/></g></g><text fill="#fff" font-family="Helvetica" font-size="18"><tspan x="5.963636" y="37.671429">&gt; ssh</tspan></text><text fill="#4a4a4a" font-family="HelveticaNeue-Medium, Helvetica Neue" font-size="16" font-weight="400"><tspan x="3.478631" y="68.474576">OpenSSH</tspan><tspan x="19.622631" y="87.474576">client</tspan></text></g><path d="m705 92 9 4.5-9 4.5v-4h-175v-1h175z" fill="#979797" fill-rule="nonzero"/><g transform="translate(175 79)"><path d="m1 1v37h88v-37z" fill="#fff" stroke="#979797" stroke-width="2"/><text fill="#4a4a4a" font-family="LucidaGrande, Lucida Grande" font-size="11"><tspan x="10.418457" y="16">joe:password</tspan> <tspan x="11.863281" y="29">2FA: 265176</tspan></text></g><g stroke="#979797" stroke-linecap="square" stroke-width="6"><path d="m717 129h-186"/><path d="m165.5 129.5h111"/></g></g></svg>