<svg height="357" viewBox="0 0 624 357" width="624" xmlns="http://www.w3.org/2000/svg" xmlns:xlink="http://www.w3.org/1999/xlink"><defs><rect id="a" height="120" rx="24" width="218" x="199" y="18"/><filter id="b" height="146.7%" width="125.7%" x="-12.8%" y="-16.7%"><feOffset dx="0" dy="8" in="SourceAlpha" result="shadowOffsetOuter1"/><feGaussianBlur in="shadowOffsetOuter1" result="shadowBlurOuter1" stdDeviation="8"/><feColorMatrix in="shadowBlurOuter1" type="matrix" values="0 0 0 0 0   0 0 0 0 0   0 0 0 0 0  0 0 0 0.103742074 0"/></filter><rect id="c" height="120" rx="24" width="120" x="19" y="17"/><filter id="d" height="146.7%" width="146.7%" x="-23.3%" y="-16.7%"><feOffset dx="0" dy="8" in="SourceAlpha" result="shadowOffsetOuter1"/><feGaussianBlur in="shadowOffsetOuter1" result="shadowBlurOuter1" stdDeviation="8"/><feColorMatrix in="shadowBlurOuter1" type="matrix" values="0 0 0 0 0   0 0 0 0 0   0 0 0 0 0  0 0 0 0.103742074 0"/></filter><rect id="e" height="120" rx="24" width="120" x="488" y="17"/><filter id="f" height="146.7%" width="146.7%" x="-23.3%" y="-16.7%"><feOffset dx="0" dy="8" in="SourceAlpha" result="shadowOffsetOuter1"/><feGaussianBlur in="shadowOffsetOuter1" result="shadowBlurOuter1" stdDeviation="8"/><feColorMatrix in="shadowBlurOuter1" type="matrix" values="0 0 0 0 0   0 0 0 0 0   0 0 0 0 0  0 0 0 0.103742074 0"/></filter><rect id="g" height="120" rx="24" width="120" x="199" y="198"/><filter id="h" height="146.7%" width="146.7%" x="-23.3%" y="-16.7%"><feOffset dx="0" dy="8" in="SourceAlpha" result="shadowOffsetOuter1"/><feGaussianBlur in="shadowOffsetOuter1" result="shadowBlurOuter1" stdDeviation="8"/><feColorMatrix in="shadowBlurOuter1" type="matrix" values="0 0 0 0 0   0 0 0 0 0   0 0 0 0 0  0 0 0 0.103742074 0"/></filter></defs><g fill="none" fill-rule="evenodd"><use fill="#000" filter="url(#b)" xlink:href="#a"/><use fill="#fff" fill-rule="evenodd" xlink:href="#a"/><use fill="#000" filter="url(#d)" xlink:href="#c"/><use fill="#fff" fill-rule="evenodd" xlink:href="#c"/><path d="m99.5 84h142" stroke="#cfcfcf" stroke-dasharray="1 5 1 5" stroke-linecap="square" stroke-width="3"/><rect fill="#f5a623" height="40" rx="3" width="40" x="238" y="57"/><text fill="#fff" font-family="HelveticaNeue, Helvetica Neue" font-size="20"><tspan x="251" y="85">D</tspan></text><rect fill="#7ed321" height="40" rx="3" width="40" x="338" y="57"/><text fill="#fff" font-family="HelveticaNeue-Medium, Helvetica Neue" font-size="20" font-weight="400"><tspan x="351" y="85">E</tspan></text><rect fill="#7ed321" height="40" rx="3" width="40" x="59" y="57"/><text fill="#fff" font-family="HelveticaNeue-Medium, Helvetica Neue" font-size="20" font-weight="400"><tspan x="72" y="85">E</tspan></text><text fill="#4a4a4a" font-family="HelveticaNeue-Medium, Helvetica Neue" font-size="16" font-weight="400"><tspan x="276.8" y="13">Proxy</tspan></text><rect fill="#7ed321" height="40" rx="3" width="40" x="59" y="57"/><text fill="#fff" font-family="HelveticaNeue-Medium, Helvetica Neue" font-size="20" font-weight="400"><tspan x="72" y="85">E</tspan></text><text fill="#4a4a4a" font-family="HelveticaNeue-Medium, Helvetica Neue" font-size="16" font-weight="400"><tspan x="57.664" y="13">Client</tspan></text><path d="m76.7714138 112.8h18.5017057l3.7268805 3.783984v1.016016l-4.3081855 4.127734-2.252508-2.23457-2.2859321 2.23457-2.3971501-2.23457-2.0728782 2.23457-2.4014503-2.23457-2.9022249 2.906836h-3.7256855c-1.6641475 2.756631-4.6899863 4.6-8.1466971 4.6-5.2507303 0-9.5072883-4.253295-9.5072883-9.5s4.256558-9.5 9.5072883-9.5c3.5396543 0 6.627511 1.932893 8.2641255 4.8zm-12.4673477 7.2c1.3817711 0 2.501918-1.119288 2.501918-2.5s-1.1201469-2.5-2.501918-2.5-2.501918 1.119288-2.501918 2.5 1.1201469 2.5 2.501918 2.5z" fill="#919191" opacity=".870075"/><path d="m355.771414 112.8h18.501706l3.72688 3.783984v1.016016l-4.308185 4.127734-2.252509-2.23457-2.285932 2.23457-2.39715-2.23457-2.072878 2.23457-2.40145-2.23457-2.902225 2.906836h-3.725686c-1.664147 2.756631-4.689986 4.6-8.146697 4.6-5.25073 0-9.507288-4.253295-9.507288-9.5s4.256558-9.5 9.507288-9.5c3.539655 0 6.627511 1.932893 8.264126 4.8zm-12.467348 7.2c1.381771 0 2.501918-1.119288 2.501918-2.5s-1.120147-2.5-2.501918-2.5-2.501918 1.119288-2.501918 2.5 1.120147 2.5 2.501918 2.5z" fill="#919191" opacity=".870075"/><path d="m0 237h280v120h-280z"/><path d="m19 310h14v3h-14z" fill="#b8e986"/><path d="m19 330h14v3h-14z" fill="#f5a623"/><g fill="#787878" font-family="HelveticaNeue, Helvetica Neue" font-size="14"><text><tspan x="40" y="317">SSH connection</tspan></text><text><tspan x="40" y="337">HTTPS connection</tspan></text><text><tspan x="39" y="274">Encrypted</tspan></text><text><tspan x="39" y="297">Decrypted</tspan></text></g><path d="m100.5 78h136" stroke="#b8e986" stroke-linecap="square" stroke-width="3"/><rect fill="#7ed321" height="14" rx="2" width="15" x="18" y="265"/><text fill="#fff" font-family="HelveticaNeue-Medium, Helvetica Neue" font-size="10" font-weight="400"><tspan x="22" y="276">E</tspan></text><rect fill="#f5a623" height="14" rx="2" width="15" x="18" y="285"/><text fill="#fff" font-family="HelveticaNeue-Medium, Helvetica Neue" font-size="10" font-weight="400"><tspan x="22" y="296">D</tspan></text><text fill="#787878" font-family="HelveticaNeue, Helvetica Neue" font-size="12"><tspan x="155.892" y="74">SSH</tspan></text><text fill="#787878" font-family="HelveticaNeue, Helvetica Neue" font-size="12"><tspan x="445.892" y="74">SSH</tspan></text><use fill="#000" filter="url(#f)" xlink:href="#e"/><use fill="#fff" fill-rule="evenodd" xlink:href="#e"/><text fill="#4a4a4a" font-family="HelveticaNeue-Medium, Helvetica Neue" font-size="16" font-weight="400"><tspan x="528.144" y="13">Node</tspan></text><rect fill="#f5a623" height="40" rx="3" width="40" x="528" y="57"/><text fill="#fff" font-family="HelveticaNeue, Helvetica Neue" font-size="20"><tspan x="541" y="85">D</tspan></text><use fill="#000" filter="url(#h)" xlink:href="#g"/><use fill="#fff" fill-rule="evenodd" xlink:href="#g"/><text fill="#4a4a4a" font-family="HelveticaNeue-Medium, Helvetica Neue" font-size="16" font-weight="400"><tspan x="241.816" y="338">Auth</tspan></text><g transform="translate(239 238)"><path d="m0 36c0 2.209139 8.954305 4 20 4s20-1.790861 20-4v-32h-40z" fill="#f5a623"/><ellipse cx="20" cy="4" fill="#ffcb76" rx="20" ry="4"/></g><text font-family="HelveticaNeue-Medium, Helvetica Neue" font-size="10" font-weight="400"><tspan fill="#787878" x="145.435" y="130">A</tspan> <tspan fill="#787878" x="152.105" y="130">g</tspan> <tspan fill="#787878" x="158.035" y="130">e</tspan> <tspan fill="#787878" x="163.595" y="130">n</tspan> <tspan fill="#787878" x="169.335" y="130">t</tspan> <tspan fill="#787878" x="172.665" y="130"/> <tspan fill="#787878" x="175.445" y="130">k</tspan> <tspan fill="#787878" x="180.815" y="130">e</tspan> <tspan fill="#787878" x="186.375" y="130">y</tspan> <tspan fill="#787877" x="191.565" y="130"/> <tspan fill="#787877" x="143.765" y="142">f</tspan> <tspan fill="#777877" x="146.915" y="142">o</tspan> <tspan fill="#777977" x="152.845" y="142">r</tspan> <tspan fill="#777977" x="156.365" y="142">w</tspan> <tspan fill="#777977" x="164.145" y="142">a</tspan> <tspan fill="#777977" x="169.705" y="142">r</tspan> <tspan fill="#777977" x="173.045" y="142">d</tspan> <tspan fill="#777976" x="179.155" y="142">i</tspan> <tspan fill="#777976" x="181.565" y="142">n</tspan> <tspan fill="#777976" x="187.305" y="142">g</tspan></text><g stroke-linecap="square"><path d="m100 117h236" stroke="#cfcfcf" stroke-width="3"/><path d="m258 99v137" fill="#f5a623" stroke="#f5a623" stroke-width="2"/><path d="m258 236 3-10.8h-6z" fill="#f5a623" stroke="#f5a623" stroke-width="2"/><g stroke-width="3"><path d="m379.5 78h147" stroke="#b8e986"/><path d="m77.5 98.5v17" stroke="#cfcfcf" stroke-dasharray="1 5 1 5"/><path d="m358.5 98.5v17" stroke="#cfcfcf" stroke-dasharray="1 5 1 5"/><g fill="#f5a623" stroke="#f5a623"><path d="m277.5 76.5h56"/><path d="m333.5 76.5-10.8-3v6z"/></g></g></g><text fill="#787878" font-family="HelveticaNeue-Medium, Helvetica Neue" font-size="14" font-weight="400"><tspan x="241.018" y="293">Audit</tspan></text></g></svg>