<svg height="357" viewBox="0 0 514 357" width="514" xmlns="http://www.w3.org/2000/svg" xmlns:xlink="http://www.w3.org/1999/xlink"><defs><rect id="a" height="120" rx="24" width="120" x="18" y="17"/><filter id="b" height="146.7%" width="146.7%" x="-23.3%" y="-16.7%"><feOffset dx="0" dy="8" in="SourceAlpha" result="shadowOffsetOuter1"/><feGaussianBlur in="shadowOffsetOuter1" result="shadowBlurOuter1" stdDeviation="8"/><feColorMatrix in="shadowBlurOuter1" type="matrix" values="0 0 0 0 0   0 0 0 0 0   0 0 0 0 0  0 0 0 0.103742074 0"/></filter><rect id="c" height="120" rx="24" width="120" x="198" y="17"/><filter id="d" height="146.7%" width="146.7%" x="-23.3%" y="-16.7%"><feOffset dx="0" dy="8" in="SourceAlpha" result="shadowOffsetOuter1"/><feGaussianBlur in="shadowOffsetOuter1" result="shadowBlurOuter1" stdDeviation="8"/><feColorMatrix in="shadowBlurOuter1" type="matrix" values="0 0 0 0 0   0 0 0 0 0   0 0 0 0 0  0 0 0 0.103742074 0"/></filter><rect id="e" height="120" rx="24" width="120" x="378" y="17"/><filter id="f" height="146.7%" width="146.7%" x="-23.3%" y="-16.7%"><feOffset dx="0" dy="8" in="SourceAlpha" result="shadowOffsetOuter1"/><feGaussianBlur in="shadowOffsetOuter1" result="shadowBlurOuter1" stdDeviation="8"/><feColorMatrix in="shadowBlurOuter1" type="matrix" values="0 0 0 0 0   0 0 0 0 0   0 0 0 0 0  0 0 0 0.103742074 0"/></filter><rect id="g" height="120" rx="24" width="120" x="378" y="197"/><filter id="h" height="146.7%" width="146.7%" x="-23.3%" y="-16.7%"><feOffset dx="0" dy="8" in="SourceAlpha" result="shadowOffsetOuter1"/><feGaussianBlur in="shadowOffsetOuter1" result="shadowBlurOuter1" stdDeviation="8"/><feColorMatrix in="shadowBlurOuter1" type="matrix" values="0 0 0 0 0   0 0 0 0 0   0 0 0 0 0  0 0 0 0.103742074 0"/></filter></defs><g fill="none" fill-rule="evenodd"><use fill="#000" filter="url(#b)" xlink:href="#a"/><use fill="#fff" fill-rule="evenodd" xlink:href="#a"/><use fill="#000" filter="url(#d)" xlink:href="#c"/><use fill="#fff" fill-rule="evenodd" xlink:href="#c"/><path d="m99.5 67h144.5" stroke="#b8e986" stroke-linecap="square" stroke-width="3"/><use fill="#000" filter="url(#f)" xlink:href="#e"/><use fill="#fff" fill-rule="evenodd" xlink:href="#e"/><use fill="#000" filter="url(#h)" xlink:href="#g"/><use fill="#fff" fill-rule="evenodd" xlink:href="#g"/><rect fill="#7ed321" height="40" rx="3" width="40" x="58" y="57"/><g font-family="HelveticaNeue-Medium, Helvetica Neue" font-weight="400"><text fill="#fff" font-size="20"><tspan x="71" y="85">E</tspan></text><g fill="#4a4a4a" font-size="16"><text><tspan x="236.8" y="13">Proxy</tspan></text><text><tspan x="418.144" y="13">Node</tspan></text><text><tspan x="420.816" y="337">Auth</tspan></text></g><text fill="#787878" font-size="14"><tspan x="421.018" y="292">Audit</tspan></text><text fill="#4a4a4a" font-size="16"><tspan x="56.664" y="13">Client</tspan></text></g><g fill="#787878" font-family="HelveticaNeue, Helvetica Neue" font-size="12"><text><tspan x="155.892" y="60">SSH</tspan></text><text><tspan x="335.892" y="80">SSH</tspan></text><text><tspan x="444" y="171">HTTPS</tspan></text></g><path d="m269 87h149" stroke="#b8e986" stroke-linecap="square" stroke-width="3"/><path d="m248.5 67.5 20 20" stroke="#b8e986" stroke-linecap="square" stroke-width="3"/><circle cx="248" cy="67" fill="#7ed321" r="5"/><circle cx="268" cy="87" fill="#7ed321" r="5"/><rect fill="#f5a623" height="40" rx="3" width="40" x="418" y="57"/><text fill="#fff" font-family="HelveticaNeue, Helvetica Neue" font-size="20"><tspan x="431" y="85">D</tspan></text><path d="m438 96v137" fill="#f5a623" stroke="#f5a623" stroke-linecap="square" stroke-width="2"/><path d="m438 233 3-10.8h-6z" fill="#f5a623" stroke="#f5a623" stroke-linecap="square" stroke-width="2"/><path d="m0 237h280v120h-280z"/><path d="m19 310h14v3h-14z" fill="#b8e986"/><path d="m19 330h14v3h-14z" fill="#f5a623"/><g fill="#787878" font-family="HelveticaNeue, Helvetica Neue" font-size="14"><text><tspan x="40" y="317">SSH connection</tspan></text><text><tspan x="40" y="337">HTTPS connection</tspan></text><text><tspan x="39" y="274">Encrypted</tspan></text></g><g transform="translate(418 237)"><path d="m0 36c0 2.209139 8.954305 4 20 4s20-1.790861 20-4v-32h-40z" fill="#f5a623"/><ellipse cx="20" cy="4" fill="#ffcb76" rx="20" ry="4"/></g><path d="m75.7714138 112.8h18.5017057l3.7268805 3.783984v1.016016l-4.3081855 4.127734-2.252508-2.23457-2.2859321 2.23457-2.3971501-2.23457-2.0728782 2.23457-2.4014503-2.23457-2.9022249 2.906836h-3.7256855c-1.6641475 2.756631-4.6899863 4.6-8.1466971 4.6-5.2507303 0-9.5072883-4.253295-9.5072883-9.5s4.256558-9.5 9.5072883-9.5c3.5396543 0 6.627511 1.932893 8.2641255 4.8zm-12.4673477 7.2c1.3817711 0 2.501918-1.119288 2.501918-2.5s-1.1201469-2.5-2.501918-2.5-2.501918 1.119288-2.501918 2.5 1.1201469 2.5 2.501918 2.5z" fill="#919191" opacity=".870075"/><text fill="#787878" font-family="HelveticaNeue, Helvetica Neue" font-size="14"><tspan x="39" y="297">Decrypted</tspan></text><rect fill="#7ed321" height="14" rx="2" width="15" x="18" y="265"/><text fill="#fff" font-family="HelveticaNeue-Medium, Helvetica Neue" font-size="10" font-weight="400"><tspan x="22" y="276">E</tspan></text><rect fill="#f5a623" height="14" rx="2" width="15" x="18" y="285"/><text fill="#fff" font-family="HelveticaNeue-Medium, Helvetica Neue" font-size="10" font-weight="400"><tspan x="22" y="296">D</tspan></text></g></svg>