<svg height="485" width="915" xmlns="http://www.w3.org/2000/svg" xmlns:xlink="http://www.w3.org/1999/xlink"><defs><linearGradient id="a" gradientUnits="userSpaceOnUse" x1="876.13" x2="709.64" y1="445.38" y2="674.62"><stop offset="0" stop-color="#354aaa"/><stop offset="0" stop-color="#651fff"/><stop offset="1" stop-color="#4c00f0"/></linearGradient><path id="b" d="m1284-209c-114 140-276 228-525 225-347-4-553-182-649-442-66-178-66-423 6-596 108-261 330-435 688-440 220-3 375 79 488 188l-90 125c-16 32-68 39-102 12-71-55-162-101-298-96-304 11-465 201-465 510 0 241 101 401 267 477 125 58 330 39 424-24 42-17 97-111 150-54" fill="#fff" fill-opacity=".6"/><path id="c" d="m1058-1446v214h-641v401h505v207h-505v409h641v215h-912v-1446z" fill="#fff" fill-opacity=".6"/><path id="d" d="m1153-1030c0 232-137 352-319 413 34 19 63 47 88 83l362 534h-242c-51 0-80-22-101-54l-304-463c-24-34-42-48-98-48h-115v565h-269v-1446h441c324 4 557 105 557 416zm-263 20c0-163-114-229-294-228h-172v480h168c180-3 298-77 298-252" fill="#fff" fill-opacity=".6"/><path id="e" d="m1165-1446v221h-435v1225h-269v-1225h-437v-221z" fill="#fff" fill-opacity=".6"/><path id="f" d="m449 0h-270v-1446h270z" fill="#fff" fill-opacity=".6"/><path id="g" d="m1417 0h-208c-47 1-77-28-90-61l-108-295h-599l-108 295c-11 30-46 61-89 61h-209l568-1446h275zm-936-546h461c-77-218-163-424-231-651-66 230-154 432-230 651" fill="#fff" fill-opacity=".6"/><path id="h" d="m519-204c146 0 246-70 241-211-6-175-195-185-333-232-183-63-339-153-333-400 5-199 120-319 272-380 126-51 311-44 437 5 72 27 133 64 184 112l-66 127c-15 40-64 51-105 25-64-41-136-87-246-85-132 3-224 54-224 182 0 167 202 176 334 227 173 67 333 144 333 381 0 227-120 364-289 433-138 56-353 39-478-16-80-35-154-80-210-138l78-129c23-34 74-43 115-13 73 54 157 112 290 112" fill="#fff" fill-opacity=".6"/><path id="i" d="m594-693v133h-209v560h-156v-560h-209v-133z" fill="#fff"/><path id="j" d="m80 0v-693h468v131h-312v136h277v128h-277v167h335v131z" fill="#fff"/><path id="k" d="m398-581c6 222 109 364 330 364 220 0 331-140 331-363v-866h269v866c-5 286-141 466-350 552-142 59-358 59-500 0-210-86-349-266-349-552v-866h269z" fill="#fff" fill-opacity=".6"/><path id="l" d="m519-204c146 0 246-70 241-211-6-175-195-185-333-232-183-63-339-153-333-400 5-199 120-319 272-380 126-51 311-44 437 5 72 27 133 64 184 112l-66 127c-15 40-64 51-105 25-64-41-136-87-246-85-132 3-224 54-224 182 0 167 202 176 334 227 173 67 333 144 333 381 0 227-120 364-289 433-138 56-353 39-478-16-80-35-154-80-210-138l78-129c23-34 74-43 115-13 73 54 157 112 290 112" fill="#333"/><path id="m" d="m254-198c95 60 334 64 323-83-9-119-156-122-253-159-132-50-252-110-252-289 0-214 163-309 387-313 145-3 264 55 338 127-26 36-45 82-77 111-69 21-111-33-176-48-103-23-247 0-238 102 11 114 156 118 251 155 126 49 251 100 251 270 0 266-233 373-514 331-102-15-188-60-252-116 28-39 43-95 83-120 49-31 96 11 129 32" fill="#333"/><path id="n" d="m991-153c-92 106-231 168-423 168-331 0-505-212-505-550 0-237 116-392 287-467 61-27 129-40 206-40 287 0 444 174 444 465 0 54-3 95-57 95h-634c4 226 158 349 385 292 52-13 93-39 132-62 32-19 73-16 93 9zm-213-478c-4-143-73-234-217-234-154 0-226 95-247 234z" fill="#333"/><path id="o" d="m604-806c-122 5-180 74-225 167v639h-247v-1026c83 11 206-35 218 62l15 124c63-106 147-205 295-205 51 0 93 12 126 35l-32 185c-4 23-15 33-40 33-33 0-65-16-110-14" fill="#333"/><linearGradient id="p"><stop offset=".0168" stop-color="#999"/><stop offset=".437" stop-color="#333"/><stop offset=".9874"/></linearGradient><linearGradient id="q" gradientUnits="userSpaceOnUse" x1="954.47" x2="1040.65" xlink:href="#p" y1="619.9" y2="666.12"/><linearGradient id="r" gradientUnits="userSpaceOnUse" x1="1072.4" x2="1158.57" xlink:href="#p" y1="619.9" y2="666.12"/><linearGradient id="s" gradientUnits="userSpaceOnUse" x1="1189.79" x2="1275.97" xlink:href="#p" y1="619.9" y2="666.12"/><filter id="t" height="1.38" width="1.25" x="-.11" y="-.12"><feOffset dx="2.05" dy="5.64" in="SourceAlpha" result="offOut"/><feGaussianBlur in="offOut" result="blurOut" stdDeviation="7.5"/><feColorMatrix in="blurOut" result="colorOut" values="0 0 0 0 0 0 0 0 0 0 0 0 0 0 0 0 0 0 0.14901960784313725 0"/><feBlend in="SourceGraphic" in2="colorOut"/></filter><path id="u" d="m457 16c-234 0-346-155-346-390v-652h247v652c0 121 55 198 174 197 102-1 168-51 226-107v-742h247v1026c-80-9-199 29-214-45l-17-82c-77 77-166 143-317 143" fill="#fff"/><path id="v" d="m991-153c-92 106-231 168-423 168-331 0-505-212-505-550 0-237 116-392 287-467 61-27 129-40 206-40 287 0 444 174 444 465 0 54-3 95-57 95h-634c4 226 158 349 385 292 52-13 93-39 132-62 32-19 73-16 93 9zm-213-478c-4-143-73-234-217-234-154 0-226 95-247 234z" fill="#fff"/><path id="w" d="m604-806c-122 5-180 74-225 167v639h-247v-1026c83 11 206-35 218 62l15 124c63-106 147-205 295-205 51 0 93 12 126 35l-32 185c-4 23-15 33-40 33-33 0-65-16-110-14" fill="#fff"/><path id="x" d="m738-75c-64 55-158 90-269 91-176 2-277-109-277-284v-573c-65-4-153 21-153-52v-98l165-27 52-280c10-66 115-35 183-42v323h270v176h-270v556c-1 59 32 101 88 102 48 1 68-25 104-34 19 1 25 9 33 22" fill="#fff"/><path id="y" d="m254-198c95 60 334 64 323-83-9-119-156-122-253-159-132-50-252-110-252-289 0-214 163-309 387-313 145-3 264 55 338 127-26 36-45 82-77 111-69 21-111-33-176-48-103-23-247 0-238 102 11 114 156 118 251 155 126 49 251 100 251 270 0 266-233 373-514 331-102-15-188-60-252-116 28-39 43-95 83-120 49-31 96 11 129 32" fill="#fff"/><g id="z"><path d="m1187-985c0 329-222 471-561 476h-202v509h-269v-1446h471c337 4 561 134 561 461zm-269 0c0-176-112-253-292-253h-202v519h202c184-1 292-85 292-266" fill="#fff" fill-opacity=".6" transform="scale(.00566667)"/><path d="m361-1005c121-49 297-49 417 0 184 74 298 236 298 490 0 330-178 530-506 530-329 0-509-200-509-530 0-254 115-416 300-490zm-45 492c0 201 65 338 254 338 188 0 251-137 251-338s-63-340-251-340c-189 0-254 139-254 340" fill="#fff" fill-opacity=".6" transform="matrix(.00566667 0 0 .00566667 6.913333 0)"/><path d="m502-1045c120-1 193 43 256 101v-542h247v1486c-80-9-199 29-214-45l-20-99c-78 86-170 159-330 159-278 0-380-232-380-525 0-241 98-411 259-494 54-27 115-41 182-41zm-186 535c0 181 36 329 209 329 118 0 173-54 233-123v-460c-48-59-104-93-198-93-188 0-244 151-244 347" fill="#fff" fill-opacity=".6" transform="matrix(.00566667 0 0 .00566667 13.356333 0)"/></g></defs><g transform="translate(-416 -315)"><path d="m0 0h1760v1360h-1760z" fill="#fff"/><path d="m656.13 449.38c0-2.2 1.8-4 4-4h212c2.2 0 4 1.8 4 4v221.24c0 2.2-1.8 4-4 4h-212c-2.2 0-4-1.8-4-4z" fill="url(#a)"/><path d="m656.13 505.38h100v20h-100z" fill="none"/><g transform="translate(675.765518 519.376592)"><use transform="scale(.00455556)" xlink:href="#b"/><use transform="matrix(.00455556 0 0 .00455556 6.109 0)" xlink:href="#c"/><use transform="matrix(.00455556 0 0 .00455556 11.325111 0)" xlink:href="#d"/><use transform="matrix(.00455556 0 0 .00455556 17.037778 0)" xlink:href="#e"/><use transform="matrix(.00455556 0 0 .00455556 22.458889 0)" xlink:href="#f"/><path d="m1058-1446v214h-641v428h541v215h-541v589h-271v-1446z" fill="#fff" fill-opacity=".6" transform="matrix(.00455556 0 0 .00455556 25.319778 0)"/><use transform="matrix(.00455556 0 0 .00455556 30.435667 0)" xlink:href="#f"/><use transform="matrix(.00455556 0 0 .00455556 33.296556 0)" xlink:href="#b"/><use transform="matrix(.00455556 0 0 .00455556 39.405556 0)" xlink:href="#g"/><use transform="matrix(.00455556 0 0 .00455556 45.204778 0)" xlink:href="#e"/><use transform="matrix(.00455556 0 0 .00455556 50.625889 0)" xlink:href="#c"/><use transform="matrix(.00455556 0 0 .00455556 55.842 0)" xlink:href="#h"/></g><path d="m656.13 449.38c0-2.2 1.8-4 4-4h212c2.2 0 4 1.8 4 4v42c0 2.2-1.8 4-4 4h-212c-2.2 0-4-1.8-4-4z" fill="none" stroke="#fff" stroke-opacity=".3" stroke-width="1.5"/><path d="m705.48 449.9c0-2.2 1.8-4 4-4h162.65c2.2 0 4 1.8 4 4v42c0 2.2-1.8 4-4 4h-162.65c-2.2 0-4-1.8-4-4z" fill="none"/><g transform="translate(745.13734 477.671825)"><use transform="scale(.018)" xlink:href="#i"/><use transform="matrix(.018 0 0 .018 11.052 0)" xlink:href="#j"/><path d="m543-134v134h-463v-693h156v559z" fill="#fff" transform="matrix(.018 0 0 .018 21.96 0)"/><use transform="matrix(.018 0 0 .018 32.094 0)" xlink:href="#j"/><g fill="#fff"><path d="m80-683c58-12 143-18 208-18 190 0 321 53 321 233 0 198-160 242-373 236v232h-156zm368 214c0-104-112-104-212-96v200c112 0 212 3 212-104" transform="matrix(.018 0 0 .018 43.002 0)"/><path d="m395-572c-128 0-184 94-184 225s55 224 184 224c128 0 184-93 184-224s-55-225-184-225zm0-137c221 0 345 136 345 362 0 227-122 361-345 361-221 0-345-135-345-361 0-224 126-362 345-362" transform="matrix(.018 0 0 .018 54.594 0)"/><path d="m80-683c59-12 137-18 203-18 187 1 322 54 322 228 0 106-52 157-130 190 65 83 124 182 172 283h-175c-49-87-99-179-159-253h-77v253h-156zm364 209c1-96-110-98-208-91v188c111-1 207 3 208-97" transform="matrix(.018 0 0 .018 68.814 0)"/></g><use transform="matrix(.018 0 0 .018 80.64 0)" xlink:href="#i"/></g><path d="m676.13 599.38c0-2.2 1.8-4 4-4h174.12c2.2 0 4 1.8 4 4v42c0 2.2-1.8 4-4 4h-174.12c-2.2 0-4-1.8-4-4z" fill="none" stroke="#fff" stroke-opacity=".3" stroke-width="1.5"/><path d="m716.13 595.38h152.65v50h-152.65z" fill="none"/><g transform="translate(751.127129 625.956592)"><use transform="scale(.00788889)" xlink:href="#g"/><use transform="matrix(.00788889 0 0 .00788889 10.792 0)" xlink:href="#k"/><path d="m1377-1015c71 172 71 412 0 584-106 257-325 431-679 431h-552v-1446h552c353 6 574 175 679 431zm-679 801c307-9 457-198 457-509s-150-500-457-509h-281v1018z" fill="#fff" fill-opacity=".6" transform="matrix(.00788889 0 0 .00788889 22.278222 0)"/><use transform="matrix(.00788889 0 0 .00788889 34.072111 0)" xlink:href="#f"/><use transform="matrix(.00788889 0 0 .00788889 39.026333 0)" xlink:href="#e"/></g><g fill="#fff"><g fill-opacity=".6"><path d="m415-222h579v222h-848v-1446h269z" transform="matrix(.00788889 0 0 .00788889 802.586351 625.956592)"/><path d="m1480-1018c71 176 71 414 0 590-106 261-323 444-679 444s-576-184-681-444c-71-176-71-414 0-590 106-261 324-444 681-444 355 0 573 184 679 444zm-679 804c307 0 456-198 456-509s-149-510-456-510c-308 0-459 198-459 510s152 509 459 509" transform="matrix(.00788889 0 0 .00788889 810.112351 625.956592)"/><path d="m1341-140c-137 102-313 160-552 156-350-5-566-186-673-442-73-175-71-420-1-596 107-266 333-435 699-440 235-2 404 78 526 189l-78 122c-45 78-131 10-176-17-110-67-334-90-474-29-171 74-275 233-275 474 0 251 105 414 283 489 144 62 360 37 477-26v-263h-181c-88 2-46-125-56-202h481z" transform="matrix(.00788889 0 0 .00788889 822.726684 625.956592)"/></g><path d="m730.9 475.92c.2.16.3.45.17.7-.6 1.92-1.68 3.75-3 5.28-.18.23-.45.3-.7.2l-3.8-1.35c-.96.77-2 1.38-3.15 1.86l-.75 4c-.06.23-.27.5-.54.52-1 .2-1.98.3-3 .3s-2-.1-3-.3c-.27-.03-.48-.3-.54-.5l-.76-4c-1.14-.5-2.22-1.1-3.15-1.87l-3.82 1.35c-.24.1-.5.03-.7-.2-1.3-1.53-2.4-3.36-3-5.28-.1-.25-.02-.54.2-.7l3.02-2.66c-.12-.57-.15-1.2-.15-1.85 0-.6.03-1.24.15-1.85l-3.03-2.65c-.2-.16-.3-.45-.18-.7.6-1.93 1.67-3.75 3-5.26.17-.22.44-.32.68-.2l3.8 1.36c.94-.8 2.02-1.4 3.16-1.86l.75-4c.05-.26.26-.5.53-.5 1.98-.43 4.02-.43 6 0 .27 0 .48.24.54.5l.75 4c1.14.45 2.2 1.06 3.15 1.86l3.8-1.35c.25-.13.52-.03.7.2 1.32 1.5 2.4 3.32 3 5.24.12.25.03.54-.18.7l-3.04 2.65c.12.6.15 1.25.15 1.86 0 .65-.02 1.3-.14 1.86l3.03 2.66zm-14.74 5.8c5.64 0 10.23-4.62 10.23-10.3 0-5.7-4.6-10.32-10.24-10.32-5.67 0-10.23 4.6-10.23 10.3s4.56 10.3 10.23 10.3zm0-1.3c-4.95 0-8.94-4.02-8.94-9 0-5 4-9.04 8.94-9.04 4.92 0 8.94 4.04 8.94 9.03 0 5-4.02 9.03-8.94 9.03zm-5-13.24v2.53h3.74v6.35h2.9v-6.34h3.76v-2.52h-10.4z"/><path d="m718.88 608.38c1.23 0 2.25 1 2.25 2.26v19.5c0 1.24-1.02 2.24-2.25 2.24h-25.5c-1.23 0-2.25-1-2.25-2.25v-19.5c0-1.24 1.02-2.25 2.25-2.25zm0 1.52h-25.5c-.42 0-.75.33-.75.74v19.5c0 .42.33.76.75.76h25.5c.42 0 .75-.34.75-.77v-19.5c0-.4-.33-.73-.75-.73zm-22.08 3.12 4.5 3c.2.14.33.36.33.62 0 .24-.12.48-.33.62l-4.5 3c-.1.05-.2.1-.3.12h-.12c-.24 0-.48-.12-.63-.33-.2-.34-.12-.82.2-1.03l3.58-2.38-3.57-2.38c-.33-.24-.42-.7-.2-1.05.23-.33.68-.42 1.04-.18zm11.58 5.88c.42 0 .75.33.75.74 0 .4-.33.74-.75.74h-4.5c-.42 0-.75-.33-.75-.74 0-.4.33-.74.75-.74z" fill-opacity=".3"/><path d="m836.13 515.38c0 1.6-1.38 2.9-3.1 2.9-1.7 0-3.08-1.3-3.08-2.9s1.4-2.88 3.1-2.88 3.08 1.3 3.08 2.88zm11.71 0c0 1.6-1.4 2.9-3.1 2.9s-3.08-1.3-3.08-2.9 1.38-2.88 3.1-2.88c1.7 0 3.08 1.3 3.08 2.88z" fill-opacity=".3"/><path d="m859.54 515.38c0 1.6-1.38 2.9-3.1 2.9-1.7 0-3.07-1.3-3.07-2.9s1.38-2.88 3.08-2.88 3.1 1.3 3.1 2.88z"/></g><path d="m676.13 532.48c0-2.2 1.8-4 4-4h72c2.2 0 4 1.8 4 4v37.52c0 2.2-1.8 4-4 4h-72c-2.2 0-4-1.8-4-4z" fill="none" stroke="#fff" stroke-opacity=".3" stroke-width="1.5"/><path d="m688.9 543.66c0-1.1.9-2 2-2h20.47c1.1 0 2 .9 2 2v6.7c0 1.1-.9 2-2 2h-20.47c-1.1 0-2-.9-2-2z" fill="#fff" fill-opacity=".3"/><path d="m718.9 551.33c0-.66.53-1.2 1.2-1.2h22.07c.66 0 1.2.54 1.2 1.2s-.54 1.2-1.2 1.2h-22.07c-.67 0-1.2-.54-1.2-1.2zm0 8.29c0-.67.53-1.2 1.2-1.2h16.95c.66 0 1.2.53 1.2 1.2 0 .66-.54 1.2-1.2 1.2h-16.95c-.67 0-1.2-.54-1.2-1.2zm-30 0c0-.67.53-1.2 1.2-1.2h22.07c.66 0 1.2.53 1.2 1.2 0 .66-.54 1.2-1.2 1.2h-22.07c-.67 0-1.2-.54-1.2-1.2zm30-16.58c0-.66.53-1.2 1.2-1.2h22.07c.66 0 1.2.54 1.2 1.2s-.54 1.2-1.2 1.2h-22.07c-.67 0-1.2-.54-1.2-1.2z" fill="#fff" fill-opacity=".3"/><path d="m778.25 532.48c0-2.2 1.8-4 4-4h72c2.2 0 4 1.8 4 4v37.52c0 2.2-1.8 4-4 4h-72c-2.2 0-4-1.8-4-4z" fill="none" stroke="#fff" stroke-opacity=".3" stroke-width="1.5"/><path d="m791 543.66c0-1.1.9-2 2-2h21.54c1.1 0 2 .9 2 2v6.7c0 1.1-.9 2-2 2h-21.54c-1.1 0-2-.9-2-2z" fill="#fff" fill-opacity=".3"/><path d="m821 551.33c0-.66.55-1.2 1.2-1.2h22.08c.67 0 1.2.54 1.2 1.2s-.53 1.2-1.2 1.2h-22.08c-.65 0-1.2-.54-1.2-1.2zm0 8.29c0-.67.55-1.2 1.2-1.2h16.96c.67 0 1.2.53 1.2 1.2 0 .66-.53 1.2-1.2 1.2h-16.96c-.65 0-1.2-.54-1.2-1.2zm-30 0c0-.67.55-1.2 1.2-1.2h22.08c.67 0 1.2.53 1.2 1.2 0 .66-.53 1.2-1.2 1.2h-22.08c-.65 0-1.2-.54-1.2-1.2zm30-16.58c0-.66.55-1.2 1.2-1.2h22.08c.67 0 1.2.54 1.2 1.2s-.53 1.2-1.2 1.2h-22.08c-.65 0-1.2-.54-1.2-1.2z" fill="#fff" fill-opacity=".3"/><path d="m940 575c0-4.4 3.58-8 8-8h334.97c4.42 0 8 3.6 8 8v184c0 4.43-3.58 8-8 8h-334.97c-4.42 0-8-3.57-8-8z" fill="#fff" stroke="#000" stroke-opacity=".12" stroke-width="2"/><path d="m997.56 572h240v42.13h-240z" fill="none"/><g transform="translate(1068.130936 600.966792)"><use transform="scale(.009)" xlink:href="#l"/><use transform="matrix(.009 0 0 .009 9.657 0)" xlink:href="#l"/><path d="m1366 0h-271v-632h-678v632h-271v-1446h271v622h678v-622h271z" fill="#333" transform="matrix(.009 0 0 .009 19.314 0)"/></g><g transform="translate(1108.000936 600.966792)"><g fill="#333"><path d="m1284-209c-114 140-276 228-525 225-347-4-553-182-649-442-66-178-66-423 6-596 108-261 330-435 688-440 220-3 375 79 488 188l-90 125c-16 32-68 39-102 12-71-55-162-101-298-96-304 11-465 201-465 510 0 241 101 401 267 477 125 58 330 39 424-24 42-17 97-111 150-54" transform="scale(.009)"/><path d="m395-1486v1486h-247v-1486z" transform="matrix(.009 0 0 .009 12.069 0)"/><path d="m457 16c-234 0-346-155-346-390v-652h247v652c0 121 55 198 174 197 102-1 168-51 226-107v-742h247v1026c-80-9-199 29-214-45l-17-82c-77 77-166 143-317 143" transform="matrix(.009 0 0 .009 16.947 0)"/></g><use transform="matrix(.009 0 0 .009 27.18 0)" xlink:href="#m"/><path d="m738-75c-64 55-158 90-269 91-176 2-277-109-277-284v-573c-65-4-153 21-153-52v-98l165-27 52-280c10-66 115-35 183-42v323h270v176h-270v556c-1 59 32 101 88 102 48 1 68-25 104-34 19 1 25 9 33 22" fill="#333" transform="matrix(.009 0 0 .009 35.046 0)"/><use transform="matrix(.009 0 0 .009 42.012 0)" xlink:href="#n"/><use transform="matrix(.009 0 0 .009 51.633 0)" xlink:href="#o"/></g><path d="m954.47 623.9c0-2.2 1.8-4 4-4h78.18c2.2 0 4 1.8 4 4v119.1c0 2.22-1.8 4-4 4h-78.18c-2.2 0-4-1.78-4-4z" fill="url(#q)"/><path d="m966.06 651c0-2.2 1.8-4 4-4h55c2.2 0 4 1.8 4 4v6.04c0 2.2-1.8 4-4 4h-55c-2.2 0-4-1.8-4-4z" fill="none" stroke="#5abaa7" stroke-width="2"/><path d="m966.06 670c0-1.12.9-2 2-2h5.6c1.1 0 2 .88 2 2v2.2c0 1.1-.9 2-2 2h-5.6c-1.1 0-2-.9-2-2z" fill="#666" stroke="#000"/><path d="m1006.5 671.1c0 1.7-1.3 3.1-2.93 3.1-1.6 0-2.92-1.4-2.92-3.1 0-1.72 1.3-3.1 2.92-3.1s2.93 1.38 2.93 3.1zm12.07 0c0 1.7-1.3 3.1-2.92 3.1s-2.93-1.4-2.93-3.1c0-1.72 1.3-3.1 2.93-3.1 1.6 0 2.92 1.38 2.92 3.1z" fill="#666"/><path d="m1029.06 671.1c0 1.7-1.3 3.1-2.93 3.1-1.6 0-2.92-1.4-2.92-3.1 0-1.72 1.32-3.1 2.93-3.1 1.62 0 2.93 1.38 2.93 3.1z" fill="#5abaa7"/><path d="m966.18 687h19.47v6.22h-19.47zm-.12 14h19.47v6.2h-19.47zm0 13.96h19.47v6.2h-19.47zm.12 13.97h19.47v6.2h-19.47z" fill="#6899bf" fill-opacity=".3"/><path d="m1072.4 623.9c0-2.2 1.8-4 4-4h78.17c2.2 0 4 1.8 4 4v119.1c0 2.22-1.8 4-4 4h-78.17c-2.2 0-4-1.78-4-4z" fill="url(#r)"/><path d="m1084 651c0-2.2 1.78-4 4-4h55c2.2 0 4 1.8 4 4v6.04c0 2.2-1.8 4-4 4h-55c-2.22 0-4-1.8-4-4z" fill="none" stroke="#5abaa7" stroke-width="2"/><path d="m1084 670c0-1.12.88-2 2-2h5.57c1.1 0 2 .88 2 2v2.2c0 1.1-.9 2-2 2h-5.57c-1.12 0-2-.9-2-2z" fill="#666" stroke="#000"/><path d="m1124.43 671.1c0 1.7-1.3 3.1-2.93 3.1-1.62 0-2.93-1.4-2.93-3.1 0-1.72 1.3-3.1 2.93-3.1 1.62 0 2.93 1.38 2.93 3.1zm12.07 0c0 1.7-1.3 3.1-2.93 3.1-1.6 0-2.92-1.4-2.92-3.1 0-1.72 1.3-3.1 2.92-3.1s2.93 1.38 2.93 3.1z" fill="#666"/><path d="m1147 671.1c0 1.7-1.32 3.1-2.94 3.1s-2.93-1.4-2.93-3.1c0-1.72 1.3-3.1 2.93-3.1 1.62 0 2.93 1.38 2.93 3.1z" fill="#5abaa7"/><path d="m1084.1 687h19.47v6.22h-19.47zm-.1 14h19.46v6.2h-19.46zm0 13.96h19.46v6.2h-19.46zm.1 13.97h19.47v6.2h-19.47z" fill="#6899bf" fill-opacity=".3"/><path d="m1189.8 623.9c0-2.2 1.8-4 4-4h78.17c2.2 0 4 1.8 4 4v119.1c0 2.22-1.8 4-4 4h-78.18c-2.2 0-4-1.78-4-4z" fill="url(#s)"/><path d="m1201.38 651c0-2.2 1.8-4 4-4h55c2.2 0 4 1.8 4 4v6.04c0 2.2-1.8 4-4 4h-55c-2.2 0-4-1.8-4-4z" fill="none" stroke="#5abaa7" stroke-width="2"/><path d="m1201.38 670c0-1.12.9-2 2-2h5.6c1.1 0 2 .88 2 2v2.2c0 1.1-.9 2-2 2h-5.6c-1.1 0-2-.9-2-2z" fill="#666" stroke="#000"/><path d="m1241.82 671.1c0 1.7-1.3 3.1-2.92 3.1s-2.93-1.4-2.93-3.1c0-1.72 1.3-3.1 2.93-3.1 1.6 0 2.92 1.38 2.92 3.1zm12.08 0c0 1.7-1.3 3.1-2.93 3.1-1.62 0-2.93-1.4-2.93-3.1 0-1.72 1.3-3.1 2.93-3.1 1.62 0 2.93 1.38 2.93 3.1z" fill="#666"/><path d="m1264.38 671.1c0 1.7-1.3 3.1-2.92 3.1s-2.93-1.4-2.93-3.1c0-1.72 1.3-3.1 2.93-3.1 1.6 0 2.92 1.38 2.92 3.1z" fill="#5abaa7"/><path d="m1201.5 687h19.47v6.22h-19.47zm-.12 14h19.47v6.2h-19.47zm0 13.96h19.47v6.2h-19.47zm.12 13.97h19.47v6.2h-19.47z" fill="#6899bf" fill-opacity=".3"/><path d="m456.28 491.06h119.98v60h-119.98z" fill="none"/><g transform="translate(497.540154 513.605737)"><path d="m398-581c6 222 109 364 330 364 220 0 331-140 331-363v-866h269v866c-5 286-141 466-350 552-142 59-358 59-500 0-210-86-349-266-349-552v-866h269z" fill="#333" transform="scale(.00888889)"/><use transform="matrix(.00888889 0 0 .00888889 12.942222 0)" xlink:href="#m"/><use transform="matrix(.00888889 0 0 .00888889 20.711111 0)" xlink:href="#n"/><use transform="matrix(.00888889 0 0 .00888889 30.213333 0)" xlink:href="#o"/></g><path d="m456.28 533.45c0-2.2 1.8-4 4-4h111.98c2.2 0 4 1.8 4 4v70.06c0 2.22-1.8 4-4 4h-111.98c-2.2 0-4-1.78-4-4z" fill="#fff" filter="url(#t)" stroke="#999" stroke-opacity=".4" stroke-width="2"/><path d="m523.83 572.28c3.7 0 6.84.48 9.4 1.5 2.14.83 3.84 1.98 5.1 3.44 2.18 2.58 2.18 5.16 2.18 5.27 0 1.87-1.6 3.4-3.58 3.4h-26.17c-1.94 0-3.54-1.53-3.54-3.4v-.08c0-.42.15-2.83 2.2-5.2 1.25-1.46 2.94-2.6 5.03-3.44 2.57-1.02 5.72-1.5 9.4-1.5zm-19.2 1.5c.5 0 .93.03 1.36.03.67.04 1.2.64 1.16 1.3 0 .66-.63 1.18-1.3 1.15-.4-.04-.8-.04-1.22-.04-9.8 0-10.1 5.76-10.1 6.08 0 .66.6 1.18 1.28 1.18h7.56c.72 0 1.26.56 1.26 1.22s-.54 1.22-1.26 1.22h-7.56c-2.1 0-3.8-1.64-3.8-3.62v-.07c0-.38.16-2.36 1.7-4.3.93-1.23 2.24-2.17 3.84-2.87 1.94-.84 4.3-1.25 7.08-1.25zm19.2.76c-5.86 0-10.18 1.4-12.5 4-1.7 1.92-1.75 3.88-1.75 3.95 0 .6.53 1.14 1.17 1.14h26.17c.68 0 1.2-.53 1.2-1.15 0-.08-.08-2.04-1.73-3.95-2.34-2.6-6.7-4-12.57-4zm-19.68-15.92c4.17 0 7.56 3.07 7.56 6.83s-3.38 6.83-7.55 6.83-7.56-3.07-7.56-6.83 3.38-6.83 7.55-6.83zm0 2.3c-2.76 0-5.04 2.02-5.04 4.53 0 2.5 2.3 4.53 5.05 4.53 2.77 0 5.04-2.02 5.04-4.53 0-2.5-2.28-4.53-5.05-4.53zm18.96-9.86c5.44 0 9.85 4.08 9.85 9.1 0 5-4.4 9.1-9.84 9.1-5.42 0-9.83-4.1-9.83-9.1 0-5.02 4.4-9.1 9.84-9.1zm0 2.26c-4.07 0-7.4 3.07-7.4 6.83 0 3.77 3.33 6.83 7.4 6.83 4.08 0 7.37-3.06 7.37-6.83 0-3.76-3.3-6.83-7.36-6.83z" fill="#8e24aa"/><g stroke-width="2"><g stroke="#7f34aa"><path d="m601.38 574h34.13" fill="none"/><path d="m586.12 574 14.26-4.64v9.27zm64.66 0-14.27 4.63v-9.27z" fill="#7f34aa"/><path d="m916.5 608.38h-7.78v-50.48h-7.76" fill="none"/><path d="m931.76 608.38-14.27 4.64v-9.27zm-46.06-50.48 14.26-4.63v9.27z" fill="#7f34aa"/><path d="m899.13 503.2h9.6v-46.38h9.58" fill="none"/><path d="m883.87 503.2 14.26-4.63v9.27zm49.71-46.38-14.27 4.63v-9.27z" fill="#7f34aa"/></g><path d="m940 353.8c0-4.43 3.58-8 8-8h334.97c4.42 0 8 3.57 8 8v184c0 4.4-3.58 8-8 8h-334.97c-4.42 0-8-3.6-8-8z" fill="#2c62e2" stroke="#000" stroke-opacity=".12"/></g><path d="m997.56 350.8h240v42.1h-240z" fill="#2c62e2"/><g transform="translate(1039.159936 379.74515)"><path d="m424-840c74 2 135-1 169-44l399-505c32-39 58-57 122-57h232l-487 601c-28 33-52 59-89 78 50 19 80 49 111 90l502 677h-238c-63 0-84-18-111-53l-409-534c-28-35-53-49-116-49h-85v636h-269v-1447h269z" fill="#fff" transform="scale(.009)"/><use transform="matrix(.009 0 0 .009 12.564 0)" xlink:href="#u"/><path d="m638 15c-134 0-208-58-269-132-10 52-5 117-71 117h-163v-1486h247v586c77-79 169-142 318-142 277 0 379 230 379 521 0 241-97 412-259 495-54 27-115 41-182 41zm186-536c0-181-37-329-209-329-117 0-175 55-233 124v460c48 61 104 93 199 93 187 0 243-152 243-348" fill="#fff" transform="matrix(.009 0 0 .009 22.797 0)"/><use transform="matrix(.009 0 0 .009 33.057 0)" xlink:href="#v"/><use transform="matrix(.009 0 0 .009 42.678 0)" xlink:href="#w"/><path d="m605-850c-102 1-168 52-226 108v742h-247v-1026c80 9 198-29 214 45l17 81c77-76 165-142 317-142 235 0 346 154 346 389v653h-247v-653c0-121-55-198-174-197" fill="#fff" transform="matrix(.009 0 0 .009 50.031 0)"/><use transform="matrix(.009 0 0 .009 60.264 0)" xlink:href="#v"/><use transform="matrix(.009 0 0 .009 69.885 0)" xlink:href="#x"/><use transform="matrix(.009 0 0 .009 76.851 0)" xlink:href="#v"/><use transform="matrix(.009 0 0 .009 86.472 0)" xlink:href="#y"/></g><g transform="translate(1136.971936 379.74515)"><path d="m1284-209c-114 140-276 228-525 225-347-4-553-182-649-442-66-178-66-423 6-596 108-261 330-435 688-440 220-3 375 79 488 188l-90 125c-16 32-68 39-102 12-71-55-162-101-298-96-304 11-465 201-465 510 0 241 101 401 267 477 125 58 330 39 424-24 42-17 97-111 150-54" fill="#fff" transform="scale(.009)"/><path d="m395-1486v1486h-247v-1486z" fill="#fff" transform="matrix(.009 0 0 .009 12.069 0)"/><use transform="matrix(.009 0 0 .009 16.947 0)" xlink:href="#u"/><use transform="matrix(.009 0 0 .009 27.18 0)" xlink:href="#y"/><use transform="matrix(.009 0 0 .009 35.046 0)" xlink:href="#x"/><use transform="matrix(.009 0 0 .009 42.012 0)" xlink:href="#v"/><use transform="matrix(.009 0 0 .009 51.633 0)" xlink:href="#w"/></g><g fill="none" stroke="#fff" stroke-opacity=".3" stroke-width="1.5"><path d="m956.54 400.1c0-2.2 1.8-4 4-4h313.5c2.2 0 4 1.8 4 4v128.2c0 2.2-1.8 4-4 4h-313.5c-2.2 0-4-1.8-4-4z"/><path d="m973.16 454.66c0-2.2 1.8-4 4-4h72.27c2.2 0 4 1.8 4 4v64.38c0 2.2-1.8 4-4 4h-72.27c-2.2 0-4-1.8-4-4z"/><path d="m1079.5 454.66c0-2.2 1.8-4 4-4h72.26c2.2 0 4 1.8 4 4v64.38c0 2.2-1.8 4-4 4h-72.26c-2.2 0-4-1.8-4-4z"/><path d="m1185.84 454.15c0-2.2 1.8-4 4-4h72.26c2.2 0 4 1.8 4 4v64.38c0 2.2-1.8 4-4 4h-72.26c-2.2 0-4-1.8-4-4z"/></g><path d="m1073.22 405.8c.22 0 .46.02.68.13l8.45 4.06c.4.2.75.55.9 1l2.08 9.08c.07.47-.05.93-.32 1.33l-5.85 7.26c-.3.42-.77.63-1.26.6h-9.3c-.5-.06-.95-.27-1.3-.6l-5.82-7.25c-.3-.4-.4-.85-.32-1.32l2.08-9.13c.1-.47.42-.82.83-1.03l8.45-4.08c.22-.05.46-.05.7-.05zm-.4 3.2c-.1.12-.18.26-.18.38v.14c0 .12.02.2.07.33.04.05.04.1.04.16v.04c.04.28.04.58.04.9-.02.08-.04.18-.14.22v.05l-.02.22-.93.14c-1.3.28-2.47.94-3.37 1.88l-.17-.1h-.02c-.03 0-.05.03-.1.03-.07 0-.12-.03-.17-.05-.24-.2-.5-.4-.68-.63-.06-.06-.1-.08-.13-.1-.07-.1-.14-.17-.22-.26-.02-.03-.05-.03-.07-.05l-.02-.03c-.13-.07-.27-.15-.4-.15-.16 0-.3.08-.38.2-.17.25-.12.56.1.74.05 0 .05.05.05.05s.04.06.07.06l.3.16.16.07c.27.16.56.32.77.53.05.05.08.12.08.2l.18.18-.08.15c-.84 1.3-1.2 2.88-.97 4.4l-.2.05c0 .03-.04.03-.04.03-.03.1-.13.14-.2.18-.3.1-.6.16-.92.18-.07 0-.12 0-.17.02-.1 0-.2.03-.33.03-.02 0-.05.04-.1.04l-.07.03c-.27.04-.46.28-.44.54v.07c.08.24.32.4.56.38l.15-.02c.02 0 .02 0 .02-.03 0-.02.06 0 .1 0 .1-.02.2-.1.3-.1.05-.04.1-.06.15-.06h.05c.3-.12.55-.2.9-.23h.02c.07 0 .17.02.2.07.04 0 .04.03.04.03l.24-.02c.4 1.25 1.2 2.35 2.25 3.15.24.2.46.35.73.5l-.12.18c0 .02.02.02.02.02.05.1.05.2.03.28-.1.26-.26.52-.43.78v.03c-.02.05-.05.07-.12.14-.05.05-.1.17-.2.26-.02.02-.02.05-.04.1 0 0 0 .02-.02.02-.14.26-.02.58.22.73l.2.04c.2 0 .4-.14.5-.33 0 0 0-.03.05-.03 0-.02.03-.05.05-.07.02-.12.07-.2.1-.3l.07-.17c.07-.28.22-.56.34-.82.08-.08.15-.13.23-.15.02 0 .02 0 .02-.03l.12-.23c.78.3 1.55.43 2.37.43.5 0 1-.07 1.48-.18.32-.07.6-.17.87-.26l.1.18c.04 0 .04 0 .04.04.07.03.17.07.22.14.14.28.26.54.36.85v.03l.05.16c.02.1.05.2.1.3.04.02.04.05.07.07 0 0 0 .02.02.02.1.18.3.32.5.32.1 0 .16-.02.23-.04.1-.08.2-.17.23-.3.05-.15.05-.27-.02-.4 0-.03-.02-.03-.02-.03 0-.03-.02-.07-.05-.1-.05-.1-.12-.18-.2-.25 0-.05-.04-.1-.1-.14v-.05c-.18-.25-.33-.5-.45-.77-.02-.1-.02-.18.05-.28 0-.02.03-.02.03-.02l-.1-.2c1.4-.86 2.47-2.15 2.95-3.67l.23.02c.02 0 .02-.02.02-.02.08-.05.15-.1.22-.1h.05c.3.08.58.15.87.26h.02c.05.03.1.05.17.05.08.05.16.12.28.14.02 0 .05.03.12.03.02 0 .02 0 .05.03.04.02.07.02.12.02.26 0 .48-.16.55-.37-.02-.28-.24-.5-.48-.56-.02 0-.07 0-.07-.02s-.05-.02-.1-.02c-.07-.03-.14-.03-.22-.03h-.12c-.05 0-.1 0-.14-.04h-.06c-.3-.03-.63-.07-.92-.14-.07-.04-.12-.1-.17-.16l-.03-.04-.2-.07c.1-.78.03-1.57-.1-2.37-.2-.78-.54-1.53-.98-2.2l.17-.15v-.03c0-.07.03-.2.08-.24.25-.2.5-.37.78-.54.05-.03.1-.06.17-.08.1-.07.2-.12.3-.16 0-.03.04-.03.06-.05.04-.04 0-.04 0-.06.26-.2.3-.52.1-.75-.06-.1-.23-.2-.38-.2-.12 0-.26.05-.38.14l-.03.03c0 .02-.04.04-.06.04-.1.1-.17.18-.22.27-.02.05-.1.07-.12.1-.2.2-.43.44-.68.58-.05.05-.1.07-.17.07-.02 0-.07 0-.1-.02h-.02l-.22.1c-.2-.2-.47-.4-.7-.62-.98-.77-2.24-1.27-3.52-1.4l-.03-.22v.03c-.1-.06-.12-.15-.14-.22 0-.3 0-.6.06-.92v-.02l.02-.17c.02-.1.02-.2.07-.33v-.16c.03-.26-.2-.54-.48-.56-.15-.03-.32.07-.46.2zm.55 11.52c.07.05.12.12.2.2l1.32 2.34c-.18.02-.35.04-.54.1-.36.08-.75.13-1.16.13-.58 0-1.2-.13-1.72-.27l1.33-2.4c.15-.15.37-.23.57-.1zm-2.5-1.15c.22 0 .44.12.46.35.03.07.03.2-.02.26l-1.03 2.47c-.95-.6-1.72-1.55-2.1-2.63l2.7-.45zm4.63-.04 2.73.46c-.14.37-.3.72-.53 1.03-.4.63-.97 1.2-1.65 1.6l-1.06-2.52c-.06-.22.06-.43.25-.5.08-.03.15-.07.25-.07zm-1.9-2.14.52.62-.2.8-.72.33-.75-.33-.17-.8.5-.63h.83zm4.12-1.93c.32.5.54 1.03.66 1.6.14.56.17 1.12.12 1.68l-2.6-.73c-.23-.04-.38-.28-.33-.53.02-.1.05-.13.12-.2l2.02-1.83zm-9.1 0 2.03 1.78c.2.16.22.42.05.6-.05.1-.1.13-.22.15l-2.63.75c-.1-1.12.2-2.27.77-3.28zm3.9-2.46-.15 2.7c0 .24-.2.42-.46.42-.08 0-.13-.02-.2-.04l-2.28-1.6c.7-.68 1.6-1.15 2.54-1.36l.56-.1zm1.3.03c1.22.14 2.28.66 3.08 1.45l-2.23 1.55c-.2.12-.46.1-.6-.1-.05-.04-.07-.1-.07-.18l-.17-2.72z" fill="#fff" fill-opacity=".3"/><path d="m1078.13 406.82h100v20h-100z" fill="none"/><g transform="translate(1092.214212 423.001451)"><path d="m424-840c74 2 135-1 169-44l399-505c32-39 58-57 122-57h232l-487 601c-28 33-52 59-89 78 50 19 80 49 111 90l502 677h-238c-63 0-84-18-111-53l-409-534c-28-35-53-49-116-49h-85v636h-269v-1447h269z" fill="#fff" fill-opacity=".6" transform="scale(.00566667)"/><use transform="matrix(.00566667 0 0 .00566667 7.910667 0)" xlink:href="#k"/><path d="m1177-1061c0 181-116 262-257 314 199 45 298 152 298 322 0 295-221 425-526 425h-546v-1446h499c307 3 532 89 532 385zm-225 630c0-152-108-202-265-203h-272v424h273c163-1 264-65 264-221zm-43-598c0-163-94-209-264-209h-230v418h215c168-1 279-50 279-209" fill="#fff" fill-opacity=".6" transform="matrix(.00566667 0 0 .00566667 16.161333 0)"/><use transform="matrix(.00566667 0 0 .00566667 23.545 0)" xlink:href="#c"/><use transform="matrix(.00566667 0 0 .00566667 30.033333 0)" xlink:href="#d"/><path d="m377-1009c4 38 6 82 6 121v888h-237v-1446c71 6 174-24 211 20 269 320 519 661 779 990-5-42-7-87-7-131v-879h237v1446c-64-4-144 10-192-10-14-6-28-19-41-36" fill="#fff" fill-opacity=".6" transform="matrix(.00566667 0 0 .00566667 37.456667 0)"/><use transform="matrix(.00566667 0 0 .00566667 46.024667 0)" xlink:href="#c"/><use transform="matrix(.00566667 0 0 .00566667 52.513 0)" xlink:href="#e"/><use transform="matrix(.00566667 0 0 .00566667 59.256333 0)" xlink:href="#c"/><use transform="matrix(.00566667 0 0 .00566667 65.744667 0)" xlink:href="#h"/></g><path d="m988.72 476.85h49.15v20h-49.15z" fill="none"/><use transform="translate(1003.812365 493.036721)" xlink:href="#z"/><path d="m1095.65 476.85h49.14v20h-49.15z" fill="none"/><use transform="translate(1110.739067 493.036721)" xlink:href="#z"/><path d="m1201.4 476.85h49.14v20h-49.14z" fill="none"/><use transform="translate(1216.489173 493.036721)" xlink:href="#z"/></g></svg>