<?xml version="1.0" encoding="UTF-8"?>
<svg width="584px" height="293px" viewBox="0 0 584 293" version="1.1" xmlns="http://www.w3.org/2000/svg" xmlns:xlink="http://www.w3.org/1999/xlink">
    <!-- Generator: Sketch 59 (86127) - https://sketch.com -->
    <title>User Cert Auth</title>
    <desc>Created with Sketch.</desc>
    <defs>
        <filter x="-8.2%" y="-11.9%" width="116.3%" height="139.6%" filterUnits="objectBoundingBox" id="filter-1">
            <feOffset dx="0" dy="1" in="SourceAlpha" result="shadowOffsetOuter1"></feOffset>
            <feGaussianBlur stdDeviation="0.5" in="shadowOffsetOuter1" result="shadowBlurOuter1"></feGaussianBlur>
            <feColorMatrix values="0 0 0 0 0   0 0 0 0 0   0 0 0 0 0  0 0 0 0.5 0" type="matrix" in="shadowBlurOuter1" result="shadowMatrixOuter1"></feColorMatrix>
            <feMerge>
                <feMergeNode in="shadowMatrixOuter1"></feMergeNode>
                <feMergeNode in="SourceGraphic"></feMergeNode>
            </feMerge>
        </filter>
        <path d="M12.819426,-5.17920154e-16 L232.180574,5.17920154e-16 C236.638168,-3.00926524e-16 238.254599,0.464128056 239.884229,1.33566352 C241.513858,2.20719898 242.792801,3.48614185 243.664336,5.11577148 C244.535872,6.74540111 245,8.3618323 245,12.819426 L245,88.180574 C245,92.6381677 244.535872,94.2545989 243.664336,95.8842285 C242.792801,97.5138581 241.513858,98.792801 239.884229,99.6643365 C238.254599,100.535872 236.638168,101 232.180574,101 L12.819426,101 C8.3618323,101 6.74540111,100.535872 5.11577148,99.6643365 C3.48614185,98.792801 2.20719898,97.5138581 1.33566352,95.8842285 C0.464128056,94.2545989 2.00617683e-16,92.6381677 -3.45280103e-16,88.180574 L3.45280103e-16,12.819426 C-2.00617683e-16,8.3618323 0.464128056,6.74540111 1.33566352,5.11577148 C2.20719898,3.48614185 3.48614185,2.20719898 5.11577148,1.33566352 C6.74540111,0.464128056 8.3618323,3.00926524e-16 12.819426,-5.17920154e-16 Z" id="path-2"></path>
        <filter x="-11.4%" y="-19.8%" width="122.9%" height="155.4%" filterUnits="objectBoundingBox" id="filter-3">
            <feOffset dx="0" dy="8" in="SourceAlpha" result="shadowOffsetOuter1"></feOffset>
            <feGaussianBlur stdDeviation="8" in="shadowOffsetOuter1" result="shadowBlurOuter1"></feGaussianBlur>
            <feColorMatrix values="0 0 0 0 0   0 0 0 0 0   0 0 0 0 0  0 0 0 0.103742074 0" type="matrix" in="shadowBlurOuter1"></feColorMatrix>
        </filter>
        <path d="M12.819426,-5.17920154e-16 L133.180574,5.17920154e-16 C137.638168,-3.00926524e-16 139.254599,0.464128056 140.884229,1.33566352 C142.513858,2.20719898 143.792801,3.48614185 144.664336,5.11577148 C145.535872,6.74540111 146,8.3618323 146,12.819426 L146,220.180574 C146,224.638168 145.535872,226.254599 144.664336,227.884229 C143.792801,229.513858 142.513858,230.792801 140.884229,231.664336 C139.254599,232.535872 137.638168,233 133.180574,233 L12.819426,233 C8.3618323,233 6.74540111,232.535872 5.11577148,231.664336 C3.48614185,230.792801 2.20719898,229.513858 1.33566352,227.884229 C0.464128056,226.254599 2.00617683e-16,224.638168 -3.45280103e-16,220.180574 L3.45280103e-16,12.819426 C-2.00617683e-16,8.3618323 0.464128056,6.74540111 1.33566352,5.11577148 C2.20719898,3.48614185 3.48614185,2.20719898 5.11577148,1.33566352 C6.74540111,0.464128056 8.3618323,3.00926524e-16 12.819426,-5.17920154e-16 Z" id="path-4"></path>
        <filter x="-19.2%" y="-8.6%" width="138.4%" height="124.0%" filterUnits="objectBoundingBox" id="filter-5">
            <feOffset dx="0" dy="8" in="SourceAlpha" result="shadowOffsetOuter1"></feOffset>
            <feGaussianBlur stdDeviation="8" in="shadowOffsetOuter1" result="shadowBlurOuter1"></feGaussianBlur>
            <feColorMatrix values="0 0 0 0 0   0 0 0 0 0   0 0 0 0 0  0 0 0 0.103742074 0" type="matrix" in="shadowBlurOuter1"></feColorMatrix>
        </filter>
        <filter x="-3.1%" y="-9.3%" width="106.3%" height="118.6%" filterUnits="objectBoundingBox" id="filter-6">
            <feOffset dx="0" dy="1" in="SourceAlpha" result="shadowOffsetOuter1"></feOffset>
            <feGaussianBlur stdDeviation="1" in="shadowOffsetOuter1" result="shadowBlurOuter1"></feGaussianBlur>
            <feColorMatrix values="0 0 0 0 0   0 0 0 0 0   0 0 0 0 0  0 0 0 0.5 0" type="matrix" in="shadowBlurOuter1" result="shadowMatrixOuter1"></feColorMatrix>
            <feMerge>
                <feMergeNode in="shadowMatrixOuter1"></feMergeNode>
                <feMergeNode in="SourceGraphic"></feMergeNode>
            </feMerge>
        </filter>
    </defs>
    <g id="User-Cert-Auth" stroke="none" stroke-width="1" fill="none" fill-rule="evenodd">
        <g id="certificate" transform="translate(192.000000, 21.000000)">
            <g>
                <path d="M6.63,69.156 C6.56599968,68.9079988 6.47800056,68.680001 6.366,68.472 C6.25399944,68.263999 6.11000088,68.0840008 5.934,67.932 C5.75799912,67.7799992 5.55200118,67.6620004 5.316,67.578 C5.07999882,67.4939996 4.80600156,67.452 4.494,67.452 C4.03799772,67.452 3.64400166,67.5439991 3.312,67.728 C2.97999834,67.9120009 2.71000104,68.1579985 2.502,68.466 C2.29399896,68.7740015 2.1400005,69.123998 2.04,69.516 C1.9399995,69.908002 1.89,70.307998 1.89,70.716 C1.89,71.124002 1.9399995,71.523998 2.04,71.916 C2.1400005,72.308002 2.29399896,72.6579985 2.502,72.966 C2.71000104,73.2740015 2.97999834,73.5199991 3.312,73.704 C3.64400166,73.8880009 4.03799772,73.98 4.494,73.98 C4.83000168,73.98 5.12599872,73.9220006 5.382,73.806 C5.63800128,73.6899994 5.85799908,73.530001 6.042,73.326 C6.22600092,73.121999 6.36999948,72.8840014 6.474,72.612 C6.57800052,72.3399986 6.64599984,72.0480016 6.678,71.736 L8.142,71.736 C8.10999984,72.2480026 8.00000094,72.7159979 7.812,73.14 C7.62399906,73.5640021 7.3700016,73.9299985 7.05,74.238 C6.7299984,74.5460015 6.35400216,74.7839992 5.922,74.952 C5.48999784,75.1200008 5.0140026,75.204 4.494,75.204 C3.8539968,75.204 3.28000254,75.0860012 2.772,74.85 C2.26399746,74.6139988 1.83400176,74.292002 1.482,73.884 C1.12999824,73.475998 0.86000094,73.0000027 0.672,72.456 C0.48399906,71.9119973 0.39,71.3320031 0.39,70.716 C0.39,70.107997 0.48399906,69.5320027 0.672,68.988 C0.86000094,68.4439973 1.12999824,67.968002 1.482,67.56 C1.83400176,67.151998 2.26399746,66.8280012 2.772,66.588 C3.28000254,66.3479988 3.8539968,66.228 4.494,66.228 C4.9740024,66.228 5.42599788,66.2939993 5.85,66.426 C6.27400212,66.5580007 6.64799838,66.7499987 6.972,67.002 C7.29600162,67.2540013 7.557999,67.5599982 7.758,67.92 C7.958001,68.2800018 8.08199976,68.6919977 8.13,69.156 L6.63,69.156 Z M13.578,71.352 C13.5619999,71.1359989 13.5160004,70.928001 13.44,70.728 C13.3639996,70.527999 13.2600007,70.3540007 13.128,70.206 C12.9959993,70.0579993 12.8360009,69.9380005 12.648,69.846 C12.4599991,69.7539995 12.2500012,69.708 12.018,69.708 C11.7779988,69.708 11.560001,69.7499996 11.364,69.834 C11.167999,69.9180004 11.0000007,70.0339993 10.86,70.182 C10.7199993,70.3300007 10.6080004,70.503999 10.524,70.704 C10.4399996,70.904001 10.394,71.1199988 10.386,71.352 L13.578,71.352 Z M10.386,72.252 C10.386,72.4920012 10.4199997,72.7239989 10.488,72.948 C10.5560003,73.1720011 10.6579993,73.3679992 10.794,73.536 C10.9300007,73.7040008 11.101999,73.8379995 11.31,73.938 C11.518,74.0380005 11.7659986,74.088 12.054,74.088 C12.454002,74.088 12.7759988,74.0020009 13.02,73.83 C13.2640012,73.6579991 13.4459994,73.4000017 13.566,73.056 L14.862,73.056 C14.7899996,73.3920017 14.6660009,73.6919987 14.49,73.956 C14.3139991,74.2200013 14.1020012,74.4419991 13.854,74.622 C13.6059988,74.8020009 13.3280015,74.9379995 13.02,75.03 C12.7119985,75.1220005 12.3900017,75.168 12.054,75.168 C11.5659976,75.168 11.1340019,75.0880008 10.758,74.928 C10.3819981,74.7679992 10.0640013,74.5440014 9.804,74.256 C9.5439987,73.9679986 9.34800066,73.624002 9.216,73.224 C9.08399934,72.823998 9.018,72.3840024 9.018,71.904 C9.018,71.4639978 9.0879993,71.046002 9.228,70.65 C9.3680007,70.253998 9.5679987,69.9060015 9.828,69.606 C10.0880013,69.3059985 10.4019982,69.0680009 10.77,68.892 C11.1380018,68.7159991 11.5539977,68.628 12.018,68.628 C12.5060024,68.628 12.9439981,68.729999 13.332,68.934 C13.7200019,69.138001 14.0419987,69.4079983 14.298,69.744 C14.5540013,70.0800017 14.7399994,70.4659978 14.856,70.902 C14.9720006,71.3380022 15.0020003,71.7879977 14.946,72.252 L10.386,72.252 Z M15.99,68.796 L17.274,68.796 L17.274,69.996 L17.298,69.996 C17.3380002,69.8279992 17.4159994,69.6640008 17.532,69.504 C17.6480006,69.3439992 17.7879992,69.1980007 17.952,69.066 C18.1160008,68.9339993 18.297999,68.8280004 18.498,68.748 C18.698001,68.6679996 18.901999,68.628 19.11,68.628 C19.2700008,68.628 19.3799997,68.632 19.44,68.64 C19.5000003,68.648 19.5619997,68.656 19.626,68.664 L19.626,69.984 C19.5299995,69.9679999 19.4320005,69.9540001 19.332,69.942 C19.2319995,69.9299999 19.1340005,69.924 19.038,69.924 C18.8059988,69.924 18.588001,69.9699995 18.384,70.062 C18.179999,70.1540005 18.0020008,70.2899991 17.85,70.47 C17.6979992,70.6500009 17.5780004,70.8719987 17.49,71.136 C17.4019996,71.4000013 17.358,71.7039983 17.358,72.048 L17.358,75 L15.99,75 L15.99,68.796 Z M19.59,68.796 L20.622,68.796 L20.622,66.936 L21.99,66.936 L21.99,68.796 L23.226,68.796 L23.226,69.816 L21.99,69.816 L21.99,73.128 C21.99,73.2720007 21.9959999,73.3959995 22.008,73.5 C22.0200001,73.6040005 22.0479998,73.6919996 22.092,73.764 C22.1360002,73.8360004 22.2019996,73.8899998 22.29,73.926 C22.3780004,73.9620002 22.4979992,73.98 22.65,73.98 C22.7460005,73.98 22.8419995,73.978 22.938,73.974 C23.0340005,73.97 23.1299995,73.9560001 23.226,73.932 L23.226,74.988 C23.0739992,75.0040001 22.9260007,75.0199999 22.782,75.036 C22.6379993,75.0520001 22.4900008,75.06 22.338,75.06 C21.9779982,75.06 21.6880011,75.0260003 21.468,74.958 C21.2479989,74.8899997 21.0760006,74.7900007 20.952,74.658 C20.8279994,74.5259993 20.7440002,74.360001 20.7,74.16 C20.6559998,73.959999 20.63,73.7320013 20.622,73.476 L20.622,69.816 L19.59,69.816 L19.59,68.796 Z M24.246,66.432 L25.614,66.432 L25.614,67.728 L24.246,67.728 L24.246,66.432 Z M24.246,68.796 L25.614,68.796 L25.614,75 L24.246,75 L24.246,68.796 Z M30.918,66.432 L32.286,66.432 L32.286,67.728 L30.918,67.728 L30.918,66.432 Z M26.49,68.796 L27.51,68.796 L27.51,68.28 C27.51,67.887998 27.5579995,67.5700012 27.654,67.326 C27.7500005,67.0819988 27.8779992,66.8940007 28.038,66.762 C28.1980008,66.6299993 28.379999,66.5420002 28.584,66.498 C28.788001,66.4539998 29.0019989,66.432 29.226,66.432 C29.6660022,66.432 29.985999,66.4599997 30.186,66.516 L30.186,67.584 C30.0979996,67.5599999 30.0040005,67.5420001 29.904,67.53 C29.8039995,67.5179999 29.6860007,67.512 29.55,67.512 C29.3659991,67.512 29.2080007,67.5559996 29.076,67.644 C28.9439993,67.7320004 28.878,67.9039987 28.878,68.16 L28.878,68.796 L30.042,68.796 L30.042,69.816 L28.878,69.816 L28.878,75 L27.51,75 L27.51,69.816 L26.49,69.816 L26.49,68.796 Z M30.918,68.796 L32.286,68.796 L32.286,75 L30.918,75 L30.918,68.796 Z M37.962,70.872 C37.9059997,70.4879981 37.7520013,70.198001 37.5,70.002 C37.2479987,69.805999 36.9300019,69.708 36.546,69.708 C36.3699991,69.708 36.182001,69.7379997 35.982,69.798 C35.781999,69.8580003 35.5980008,69.9699992 35.43,70.134 C35.2619992,70.2980008 35.1220006,70.5259985 35.01,70.818 C34.8979994,71.1100015 34.842,71.4919976 34.842,71.964 C34.842,72.2200013 34.8719997,72.4759987 34.932,72.732 C34.9920003,72.9880013 35.0879993,73.215999 35.22,73.416 C35.3520007,73.616001 35.521999,73.7779994 35.73,73.902 C35.938001,74.0260006 36.1899985,74.088 36.486,74.088 C36.886002,74.088 37.2159987,73.9640012 37.476,73.716 C37.7360013,73.4679988 37.8979997,73.1200022 37.962,72.672 L39.33,72.672 C39.2019994,73.480004 38.8960024,74.0979979 38.412,74.526 C37.9279976,74.9540021 37.286004,75.168 36.486,75.168 C35.9979976,75.168 35.5680019,75.0860008 35.196,74.922 C34.8239981,74.7579992 34.5100013,74.5340014 34.254,74.25 C33.9979987,73.9659986 33.8040007,73.628 33.672,73.236 C33.5399993,72.843998 33.474,72.4200023 33.474,71.964 C33.474,71.4999977 33.5379994,71.064002 33.666,70.656 C33.7940006,70.247998 33.9859987,69.8940015 34.242,69.594 C34.4980013,69.2939985 34.8159981,69.0580009 35.196,68.886 C35.5760019,68.7139991 36.0219974,68.628 36.534,68.628 C36.8940018,68.628 37.2359984,68.6739995 37.56,68.766 C37.8840016,68.8580005 38.1719987,68.9959991 38.424,69.18 C38.6760013,69.3640009 38.8819992,69.5959986 39.042,69.876 C39.2020008,70.1560014 39.2979998,70.4879981 39.33,70.872 L37.962,70.872 Z M45.642,73.62 C45.642,73.7880008 45.6639998,73.9079996 45.708,73.98 C45.7520002,74.0520004 45.8379994,74.088 45.966,74.088 L46.11,74.088 C46.1660003,74.088 46.2299996,74.0800001 46.302,74.064 L46.302,75.012 C46.2539998,75.0280001 46.1920004,75.0459999 46.116,75.066 C46.0399996,75.0860001 45.9620004,75.1039999 45.882,75.12 C45.8019996,75.1360001 45.7220004,75.148 45.642,75.156 C45.5619996,75.164 45.4940003,75.168 45.438,75.168 C45.1579986,75.168 44.9260009,75.1120006 44.742,75 C44.5579991,74.8879994 44.4380003,74.6920014 44.382,74.412 C44.11,74.6760013 43.776002,74.8679994 43.38,74.988 C42.983998,75.1080006 42.6020018,75.168 42.234,75.168 C41.9539986,75.168 41.6860013,75.1300004 41.43,75.054 C41.1739987,74.9779996 40.948001,74.8660007 40.752,74.718 C40.555999,74.5699993 40.4000006,74.3820011 40.284,74.154 C40.1679994,73.9259989 40.11,73.6600015 40.11,73.356 C40.11,72.9719981 40.1799993,72.6600012 40.32,72.42 C40.4600007,72.1799988 40.6439989,71.9920007 40.872,71.856 C41.1000011,71.7199993 41.3559986,71.6220003 41.64,71.562 C41.9240014,71.5019997 42.2099986,71.4560002 42.498,71.424 C42.7460012,71.3759998 42.9819989,71.3420001 43.206,71.322 C43.4300011,71.3019999 43.6279991,71.2680002 43.8,71.22 C43.9720009,71.1719998 44.1079995,71.0980005 44.208,70.998 C44.3080005,70.8979995 44.358,70.748001 44.358,70.548 C44.358,70.3719991 44.3160004,70.2280006 44.232,70.116 C44.1479996,70.0039994 44.0440006,69.9180003 43.92,69.858 C43.7959994,69.7979997 43.6580008,69.7580001 43.506,69.738 C43.3539992,69.7179999 43.2100007,69.708 43.074,69.708 C42.6899981,69.708 42.3740012,69.7879992 42.126,69.948 C41.8779988,70.1080008 41.7380002,70.3559983 41.706,70.692 L40.338,70.692 C40.3620001,70.291998 40.4579992,69.9600013 40.626,69.696 C40.7940008,69.4319987 41.0079987,69.2200008 41.268,69.06 C41.5280013,68.8999992 41.8219984,68.7880003 42.15,68.724 C42.4780016,68.6599997 42.8139983,68.628 43.158,68.628 C43.4620015,68.628 43.7619985,68.6599997 44.058,68.724 C44.3540015,68.7880003 44.6199988,68.8919993 44.856,69.036 C45.0920012,69.1800007 45.2819993,69.3659989 45.426,69.594 C45.5700007,69.8220011 45.642,70.0999984 45.642,70.428 L45.642,73.62 Z M44.274,71.892 C44.065999,72.0280007 43.8100015,72.1099999 43.506,72.138 C43.2019985,72.1660001 42.8980015,72.2079997 42.594,72.264 C42.4499993,72.2880001 42.3100007,72.3219998 42.174,72.366 C42.0379993,72.4100002 41.9180005,72.4699996 41.814,72.546 C41.7099995,72.6220004 41.6280003,72.7219994 41.568,72.846 C41.5079997,72.9700006 41.478,73.1199991 41.478,73.296 C41.478,73.4480008 41.5219996,73.5759995 41.61,73.68 C41.6980004,73.7840005 41.8039994,73.8659997 41.928,73.926 C42.0520006,73.9860003 42.1879993,74.0279999 42.336,74.052 C42.4840007,74.0760001 42.6179994,74.088 42.738,74.088 C42.8900008,74.088 43.0539991,74.0680002 43.23,74.028 C43.4060009,73.9879998 43.5719992,73.9200005 43.728,73.824 C43.8840008,73.7279995 44.0139995,73.6060007 44.118,73.458 C44.2220005,73.3099993 44.274,73.1280011 44.274,72.912 L44.274,71.892 Z M46.494,68.796 L47.526,68.796 L47.526,66.936 L48.894,66.936 L48.894,68.796 L50.13,68.796 L50.13,69.816 L48.894,69.816 L48.894,73.128 C48.894,73.2720007 48.8999999,73.3959995 48.912,73.5 C48.9240001,73.6040005 48.9519998,73.6919996 48.996,73.764 C49.0400002,73.8360004 49.1059996,73.8899998 49.194,73.926 C49.2820004,73.9620002 49.4019992,73.98 49.554,73.98 C49.6500005,73.98 49.7459995,73.978 49.842,73.974 C49.9380005,73.97 50.0339995,73.9560001 50.13,73.932 L50.13,74.988 C49.9779992,75.0040001 49.8300007,75.0199999 49.686,75.036 C49.5419993,75.0520001 49.3940008,75.06 49.242,75.06 C48.8819982,75.06 48.5920011,75.0260003 48.372,74.958 C48.1519989,74.8899997 47.9800006,74.7900007 47.856,74.658 C47.7319994,74.5259993 47.6480002,74.360001 47.604,74.16 C47.5599998,73.959999 47.534,73.7320013 47.526,73.476 L47.526,69.816 L46.494,69.816 L46.494,68.796 Z M55.374,71.352 C55.3579999,71.1359989 55.3120004,70.928001 55.236,70.728 C55.1599996,70.527999 55.0560007,70.3540007 54.924,70.206 C54.7919993,70.0579993 54.6320009,69.9380005 54.444,69.846 C54.2559991,69.7539995 54.0460012,69.708 53.814,69.708 C53.5739988,69.708 53.356001,69.7499996 53.16,69.834 C52.963999,69.9180004 52.7960007,70.0339993 52.656,70.182 C52.5159993,70.3300007 52.4040004,70.503999 52.32,70.704 C52.2359996,70.904001 52.19,71.1199988 52.182,71.352 L55.374,71.352 Z M52.182,72.252 C52.182,72.4920012 52.2159997,72.7239989 52.284,72.948 C52.3520003,73.1720011 52.4539993,73.3679992 52.59,73.536 C52.7260007,73.7040008 52.897999,73.8379995 53.106,73.938 C53.314,74.0380005 53.5619986,74.088 53.85,74.088 C54.250002,74.088 54.5719988,74.0020009 54.816,73.83 C55.0600012,73.6579991 55.2419994,73.4000017 55.362,73.056 L56.658,73.056 C56.5859996,73.3920017 56.4620009,73.6919987 56.286,73.956 C56.1099991,74.2200013 55.8980012,74.4419991 55.65,74.622 C55.4019988,74.8020009 55.1240015,74.9379995 54.816,75.03 C54.5079985,75.1220005 54.1860017,75.168 53.85,75.168 C53.3619976,75.168 52.9300019,75.0880008 52.554,74.928 C52.1779981,74.7679992 51.8600013,74.5440014 51.6,74.256 C51.3399987,73.9679986 51.1440007,73.624002 51.012,73.224 C50.8799993,72.823998 50.814,72.3840024 50.814,71.904 C50.814,71.4639978 50.8839993,71.046002 51.024,70.65 C51.1640007,70.253998 51.3639987,69.9060015 51.624,69.606 C51.8840013,69.3059985 52.1979982,69.0680009 52.566,68.892 C52.9340018,68.7159991 53.3499977,68.628 53.814,68.628 C54.3020024,68.628 54.7399981,68.729999 55.128,68.934 C55.5160019,69.138001 55.8379987,69.4079983 56.094,69.744 C56.3500013,70.0800017 56.5359994,70.4659978 56.652,70.902 C56.7680006,71.3380022 56.7980003,71.7879977 56.742,72.252 L52.182,72.252 Z" id="Certificate-Copy-2" fill="#4A4A4A"></path>
                <g id="cert-copy-2" transform="translate(4.000000, 0.000000)">
                    <path d="M40.7631579,0.5 L0.5,0.5 L0.5,53.5 L48.5,53.5 L48.5,8.40243902 L40.7631579,8.40243902 L40.7631579,0.5 Z" id="Combined-Shape" stroke="#5C5C5C" fill="#FFFFFF"></path>
                    <line x1="7.7173913" y1="13.5" x2="39.3152006" y2="13.5" id="Line" stroke="#4A4A4A" stroke-linecap="square"></line>
                    <line x1="7.7173913" y1="16.5" x2="39.3152006" y2="16.5" id="Line-Copy" stroke="#4A4A4A" stroke-linecap="square"></line>
                    <line x1="7.7173913" y1="19.5" x2="39.3152006" y2="19.5" id="Line-Copy-9" stroke="#4A4A4A" stroke-linecap="square"></line>
                    <line x1="7.7173913" y1="22.5" x2="39.3152006" y2="22.5" id="Line-Copy-10" stroke="#4A4A4A" stroke-linecap="square"></line>
                    <line x1="7.7173913" y1="25.5" x2="39.3152006" y2="25.5" id="Line-Copy-11" stroke="#4A4A4A" stroke-linecap="square"></line>
                    <line x1="7.7173913" y1="28.5" x2="33.5" y2="28.5" id="Line-Copy-12" stroke="#4A4A4A" stroke-linecap="square"></line>
                    <circle id="Oval-7" fill="#4A4A4A" cx="39.5" cy="46.5" r="6.5"></circle>
                    <path d="M44,49 L44,61 L39.5,55.1714286 L35,61 L35,49 L44,49 Z" id="Combined-Shape" fill="#4A4A4A"></path>
                    <line x1="40.7519531" y1="0.306884766" x2="48.6711426" y2="8.33398437" id="Path-11" stroke="#4A4A4A"></line>
                </g>
            </g>
        </g>
        <g id="teleport-proxy-3" transform="translate(298.000000, 8.000000)">
            <g id="teleport-proxy-2">
                <g id="teleport-proxy" filter="url(#filter-1)">
                    <g id="Rectangle-Copy-6">
                        <use fill="black" fill-opacity="1" filter="url(#filter-3)" xlink:href="#path-2"></use>
                        <use fill="#FFFFFF" fill-rule="evenodd" xlink:href="#path-2"></use>
                    </g>
                    <g transform="translate(14.000000, 5.397260)">
                        <path d="M10,1.5 C5.30557963,1.5 1.5,5.30557963 1.5,10 L1.5,71 C1.5,75.6944204 5.30557963,79.5 10,79.5 L210,79.5 C214.69442,79.5 218.5,75.6944204 218.5,71 L218.5,10 C218.5,5.30557963 214.69442,1.5 210,1.5 L10,1.5 Z" id="Rectangle-17" stroke="#40B6C6" stroke-width="3" fill="#FFFFFF"></path>
                        <path d="M57,33.4125 L66.248,33.4125 L66.248,35.1621 L62.616,35.1621 L62.616,44.9793 L60.616,44.9793 L60.616,35.1621 L57,35.1621 L57,33.4125 Z M71.224,40.0545 C71.2026666,39.7628985 71.1413338,39.4821014 71.04,39.2121 C70.9386662,38.9420986 70.8000009,38.707201 70.624,38.5074 C70.4479991,38.307599 70.2346679,38.1456006 69.984,38.0214 C69.7333321,37.8971994 69.4533349,37.8351 69.144,37.8351 C68.8239984,37.8351 68.5333346,37.8917994 68.272,38.0052 C68.0106654,38.1186006 67.7866676,38.275199 67.6,38.475 C67.4133324,38.674801 67.2640006,38.9096987 67.152,39.1797 C67.0399994,39.4497014 66.9786667,39.7412984 66.968,40.0545 L71.224,40.0545 Z M66.968,41.2695 C66.968,41.5935016 67.0133329,41.9066985 67.104,42.2091 C67.1946671,42.5115015 67.3306658,42.7760989 67.512,43.0029 C67.6933342,43.2297011 67.9226653,43.4105993 68.2,43.5456 C68.4773347,43.6806007 68.8079981,43.7481 69.192,43.7481 C69.725336,43.7481 70.154665,43.6320012 70.48,43.3998 C70.805335,43.1675988 71.0479992,42.8193023 71.208,42.3549 L72.936,42.3549 C72.8399995,42.8085023 72.6746678,43.2134982 72.44,43.5699 C72.2053322,43.9263018 71.9226683,44.2259988 71.592,44.469 C71.2613317,44.7120012 70.8906687,44.8955994 70.48,45.0198 C70.0693313,45.1440006 69.6400022,45.2061 69.192,45.2061 C68.5413301,45.2061 67.9653358,45.0981011 67.464,44.8821 C66.9626642,44.6660989 66.5386684,44.3637019 66.192,43.9749 C65.8453316,43.5860981 65.5840009,43.1217027 65.408,42.5817 C65.2319991,42.0416973 65.144,41.4477032 65.144,40.7997 C65.144,40.205697 65.2373324,39.6414027 65.424,39.1068 C65.6106676,38.5721973 65.8773316,38.102402 66.224,37.6974 C66.5706684,37.292398 66.9893309,36.9711012 67.48,36.7335 C67.9706691,36.4958988 68.5253302,36.3771 69.144,36.3771 C69.7946699,36.3771 70.3786641,36.5147986 70.896,36.7902 C71.4133359,37.0656014 71.842665,37.4300977 72.184,37.8837 C72.525335,38.3373023 72.7733326,38.8583971 72.928,39.447 C73.0826674,40.0356029 73.122667,40.6430969 73.048,41.2695 L66.968,41.2695 Z M74.488,33.4125 L76.312,33.4125 L76.312,44.9793 L74.488,44.9793 L74.488,33.4125 Z M83.976,40.0545 C83.9546666,39.7628985 83.8933338,39.4821014 83.792,39.2121 C83.6906662,38.9420986 83.5520009,38.707201 83.376,38.5074 C83.1999991,38.307599 82.9866679,38.1456006 82.736,38.0214 C82.4853321,37.8971994 82.2053349,37.8351 81.896,37.8351 C81.5759984,37.8351 81.2853346,37.8917994 81.024,38.0052 C80.7626654,38.1186006 80.5386676,38.275199 80.352,38.475 C80.1653324,38.674801 80.0160006,38.9096987 79.904,39.1797 C79.7919994,39.4497014 79.7306667,39.7412984 79.72,40.0545 L83.976,40.0545 Z M79.72,41.2695 C79.72,41.5935016 79.7653329,41.9066985 79.856,42.2091 C79.9466671,42.5115015 80.0826658,42.7760989 80.264,43.0029 C80.4453342,43.2297011 80.6746653,43.4105993 80.952,43.5456 C81.2293347,43.6806007 81.5599981,43.7481 81.944,43.7481 C82.477336,43.7481 82.906665,43.6320012 83.232,43.3998 C83.557335,43.1675988 83.7999992,42.8193023 83.96,42.3549 L85.688,42.3549 C85.5919995,42.8085023 85.4266678,43.2134982 85.192,43.5699 C84.9573322,43.9263018 84.6746683,44.2259988 84.344,44.469 C84.0133317,44.7120012 83.6426687,44.8955994 83.232,45.0198 C82.8213313,45.1440006 82.3920022,45.2061 81.944,45.2061 C81.2933301,45.2061 80.7173358,45.0981011 80.216,44.8821 C79.7146642,44.6660989 79.2906684,44.3637019 78.944,43.9749 C78.5973316,43.5860981 78.3360009,43.1217027 78.16,42.5817 C77.9839991,42.0416973 77.896,41.4477032 77.896,40.7997 C77.896,40.205697 77.9893324,39.6414027 78.176,39.1068 C78.3626676,38.5721973 78.6293316,38.102402 78.976,37.6974 C79.3226684,37.292398 79.7413309,36.9711012 80.232,36.7335 C80.7226691,36.4958988 81.2773302,36.3771 81.896,36.3771 C82.5466699,36.3771 83.1306641,36.5147986 83.648,36.7902 C84.1653359,37.0656014 84.594665,37.4300977 84.936,37.8837 C85.277335,38.3373023 85.5253326,38.8583971 85.68,39.447 C85.8346674,40.0356029 85.874667,40.6430969 85.8,41.2695 L79.72,41.2695 Z M87.24,36.6039 L88.968,36.6039 L88.968,37.7379 L89,37.7379 C89.2560013,37.2518976 89.613331,36.9036011 90.072,36.693 C90.530669,36.4823989 91.026664,36.3771 91.56,36.3771 C92.2106699,36.3771 92.7786642,36.4931988 93.264,36.7254 C93.7493358,36.9576012 94.1519984,37.276198 94.472,37.6812 C94.7920016,38.086202 95.0319992,38.5586973 95.192,39.0987 C95.3520008,39.6387027 95.432,40.2164969 95.432,40.8321 C95.432,41.3937028 95.3600007,41.9390974 95.216,42.4683 C95.0719993,42.9975026 94.8533348,43.464598 94.56,43.8696 C94.2666652,44.274602 93.8960022,44.5985988 93.448,44.8416 C92.9999978,45.0846012 92.472003,45.2061 91.864,45.2061 C91.597332,45.2061 91.330668,45.1818002 91.064,45.1332 C90.797332,45.0845998 90.5413346,45.0063005 90.296,44.8983 C90.0506654,44.7902995 89.824001,44.6526008 89.616,44.4852 C89.407999,44.3177992 89.2346674,44.1207011 89.096,43.8939 L89.064,43.8939 L89.064,48.0735 L87.24,48.0735 L87.24,36.6039 Z M93.608,40.7997 C93.608,40.4216981 93.5600005,40.0545018 93.464,39.6981 C93.3679995,39.3416982 93.224001,39.0258014 93.032,38.7504 C92.839999,38.4749986 92.6000014,38.2536008 92.312,38.0862 C92.0239986,37.9187992 91.6933352,37.8351 91.32,37.8351 C90.5519962,37.8351 89.9733353,38.1050973 89.584,38.6451 C89.1946647,39.1851027 89,39.9032955 89,40.7997 C89,41.2209021 89.0506662,41.6123982 89.152,41.9742 C89.2533338,42.3360018 89.4053323,42.6464987 89.608,42.9057 C89.8106677,43.1649013 90.0533319,43.3700992 90.336,43.5213 C90.6186681,43.6725008 90.9466648,43.7481 91.32,43.7481 C91.7360021,43.7481 92.0879986,43.6617009 92.376,43.4889 C92.6640014,43.3160991 92.9013324,43.0920014 93.088,42.8166 C93.2746676,42.5411986 93.4079996,42.2280018 93.488,41.877 C93.5680004,41.5259982 93.608,41.1669018 93.608,40.7997 Z M100.76,45.2061 C100.098663,45.2061 99.5093359,45.0954011 98.992,44.874 C98.4746641,44.6525989 98.0373351,44.3475019 97.68,43.9587 C97.3226649,43.5698981 97.0506676,43.1055027 96.864,42.5655 C96.6773324,42.0254973 96.584,41.4315032 96.584,40.7835 C96.584,40.1462968 96.6773324,39.5577027 96.864,39.0177 C97.0506676,38.4776973 97.3226649,38.0133019 97.68,37.6245 C98.0373351,37.2356981 98.4746641,36.9306011 98.992,36.7092 C99.5093359,36.4877989 100.098663,36.3771 100.76,36.3771 C101.421337,36.3771 102.010664,36.4877989 102.528,36.7092 C103.045336,36.9306011 103.482665,37.2356981 103.84,37.6245 C104.197335,38.0133019 104.469332,38.4776973 104.656,39.0177 C104.842668,39.5577027 104.936,40.1462968 104.936,40.7835 C104.936,41.4315032 104.842668,42.0254973 104.656,42.5655 C104.469332,43.1055027 104.197335,43.5698981 103.84,43.9587 C103.482665,44.3475019 103.045336,44.6525989 102.528,44.874 C102.010664,45.0954011 101.421337,45.2061 100.76,45.2061 Z M100.76,43.7481 C101.165335,43.7481 101.517332,43.6617009 101.816,43.4889 C102.114668,43.3160991 102.359999,43.0893014 102.552,42.8085 C102.744001,42.5276986 102.885333,42.2118018 102.976,41.8608 C103.066667,41.5097982 103.112,41.1507018 103.112,40.7835 C103.112,40.4270982 103.066667,40.0707018 102.976,39.7143 C102.885333,39.3578982 102.744001,39.0420014 102.552,38.7666 C102.359999,38.4911986 102.114668,38.2671009 101.816,38.0943 C101.517332,37.9214991 101.165335,37.8351 100.76,37.8351 C100.354665,37.8351 100.002668,37.9214991 99.704,38.0943 C99.4053318,38.2671009 99.160001,38.4911986 98.968,38.7666 C98.775999,39.0420014 98.6346671,39.3578982 98.544,39.7143 C98.4533329,40.0707018 98.408,40.4270982 98.408,40.7835 C98.408,41.1507018 98.4533329,41.5097982 98.544,41.8608 C98.6346671,42.2118018 98.775999,42.5276986 98.968,42.8085 C99.160001,43.0893014 99.4053318,43.3160991 99.704,43.4889 C100.002668,43.6617009 100.354665,43.7481 100.76,43.7481 Z M106.456,36.6039 L108.168,36.6039 L108.168,38.2239 L108.2,38.2239 C108.253334,37.9970989 108.357333,37.7757011 108.512,37.5597 C108.666667,37.3436989 108.853332,37.1466009 109.072,36.9684 C109.290668,36.7901991 109.533332,36.6471005 109.8,36.5391 C110.066668,36.4310995 110.338665,36.3771 110.616,36.3771 C110.829334,36.3771 110.976,36.3824999 111.056,36.3933 C111.136,36.4041001 111.218666,36.4148999 111.304,36.4257 L111.304,38.2077 C111.175999,38.1860999 111.045334,38.1672001 110.912,38.151 C110.778666,38.1347999 110.648001,38.1267 110.52,38.1267 C110.210665,38.1267 109.920001,38.1887994 109.648,38.313 C109.375999,38.4372006 109.138668,38.6207988 108.936,38.8638 C108.733332,39.1068012 108.573334,39.4064982 108.456,39.7629 C108.338666,40.1193018 108.28,40.5296977 108.28,40.9941 L108.28,44.9793 L106.456,44.9793 L106.456,36.6039 Z M111.256,36.6039 L112.632,36.6039 L112.632,34.0929 L114.456,34.0929 L114.456,36.6039 L116.104,36.6039 L116.104,37.9809 L114.456,37.9809 L114.456,42.4521 C114.456,42.646501 114.464,42.8138993 114.48,42.9543 C114.496,43.0947007 114.533333,43.2134995 114.592,43.3107 C114.650667,43.4079005 114.738666,43.4807998 114.856,43.5294 C114.973334,43.5780002 115.133332,43.6023 115.336,43.6023 C115.464001,43.6023 115.591999,43.5996 115.72,43.5942 C115.848001,43.5888 115.975999,43.5699002 116.104,43.5375 L116.104,44.9631 C115.901332,44.9847001 115.704001,45.0062999 115.512,45.0279 C115.319999,45.0495001 115.122668,45.0603 114.92,45.0603 C114.439998,45.0603 114.053335,45.0144005 113.76,44.9226 C113.466665,44.8307995 113.237334,44.6958009 113.072,44.5176 C112.906666,44.3393991 112.794667,44.1153013 112.736,43.8453 C112.677333,43.5752987 112.642667,43.2675017 112.632,42.9219 L112.632,37.9809 L111.256,37.9809 L111.256,36.6039 Z M122.12,33.4125 L127.16,33.4125 C127.970671,33.4125 128.631997,33.5312988 129.144,33.7689 C129.656003,34.0065012 130.050665,34.3034982 130.328,34.6599 C130.605335,35.0163018 130.794666,35.4050979 130.896,35.8263 C130.997334,36.2475021 131.048,36.6362982 131.048,36.9927 C131.048,37.3491018 130.997334,37.7351979 130.896,38.151 C130.794666,38.5668021 130.605335,38.9528982 130.328,39.3093 C130.050665,39.6657018 129.656003,39.9599988 129.144,40.1922 C128.631997,40.4244012 127.970671,40.5405 127.16,40.5405 L124.12,40.5405 L124.12,44.9793 L122.12,44.9793 L122.12,33.4125 Z M124.12,38.8881 L127.048,38.8881 C127.272001,38.8881 127.501332,38.8557003 127.736,38.7909 C127.970668,38.7260997 128.186666,38.6208007 128.384,38.475 C128.581334,38.3291993 128.741333,38.1348012 128.864,37.8918 C128.986667,37.6487988 129.048,37.3437018 129.048,36.9765 C129.048,36.5984981 128.994667,36.2853012 128.888,36.0369 C128.781333,35.7884988 128.637334,35.5914007 128.456,35.4456 C128.274666,35.2997993 128.066668,35.1999003 127.832,35.1459 C127.597332,35.0918997 127.346668,35.0649 127.08,35.0649 L124.12,35.0649 L124.12,38.8881 Z M132.536,36.6039 L134.248,36.6039 L134.248,38.2239 L134.28,38.2239 C134.333334,37.9970989 134.437333,37.7757011 134.592,37.5597 C134.746667,37.3436989 134.933332,37.1466009 135.152,36.9684 C135.370668,36.7901991 135.613332,36.6471005 135.88,36.5391 C136.146668,36.4310995 136.418665,36.3771 136.696,36.3771 C136.909334,36.3771 137.056,36.3824999 137.136,36.3933 C137.216,36.4041001 137.298666,36.4148999 137.384,36.4257 L137.384,38.2077 C137.255999,38.1860999 137.125334,38.1672001 136.992,38.151 C136.858666,38.1347999 136.728001,38.1267 136.6,38.1267 C136.290665,38.1267 136.000001,38.1887994 135.728,38.313 C135.455999,38.4372006 135.218668,38.6207988 135.016,38.8638 C134.813332,39.1068012 134.653334,39.4064982 134.536,39.7629 C134.418666,40.1193018 134.36,40.5296977 134.36,40.9941 L134.36,44.9793 L132.536,44.9793 L132.536,36.6039 Z M141.672,45.2061 C141.010663,45.2061 140.421336,45.0954011 139.904,44.874 C139.386664,44.6525989 138.949335,44.3475019 138.592,43.9587 C138.234665,43.5698981 137.962668,43.1055027 137.776,42.5655 C137.589332,42.0254973 137.496,41.4315032 137.496,40.7835 C137.496,40.1462968 137.589332,39.5577027 137.776,39.0177 C137.962668,38.4776973 138.234665,38.0133019 138.592,37.6245 C138.949335,37.2356981 139.386664,36.9306011 139.904,36.7092 C140.421336,36.4877989 141.010663,36.3771 141.672,36.3771 C142.333337,36.3771 142.922664,36.4877989 143.44,36.7092 C143.957336,36.9306011 144.394665,37.2356981 144.752,37.6245 C145.109335,38.0133019 145.381332,38.4776973 145.568,39.0177 C145.754668,39.5577027 145.848,40.1462968 145.848,40.7835 C145.848,41.4315032 145.754668,42.0254973 145.568,42.5655 C145.381332,43.1055027 145.109335,43.5698981 144.752,43.9587 C144.394665,44.3475019 143.957336,44.6525989 143.44,44.874 C142.922664,45.0954011 142.333337,45.2061 141.672,45.2061 Z M141.672,43.7481 C142.077335,43.7481 142.429332,43.6617009 142.728,43.4889 C143.026668,43.3160991 143.271999,43.0893014 143.464,42.8085 C143.656001,42.5276986 143.797333,42.2118018 143.888,41.8608 C143.978667,41.5097982 144.024,41.1507018 144.024,40.7835 C144.024,40.4270982 143.978667,40.0707018 143.888,39.7143 C143.797333,39.3578982 143.656001,39.0420014 143.464,38.7666 C143.271999,38.4911986 143.026668,38.2671009 142.728,38.0943 C142.429332,37.9214991 142.077335,37.8351 141.672,37.8351 C141.266665,37.8351 140.914668,37.9214991 140.616,38.0943 C140.317332,38.2671009 140.072001,38.4911986 139.88,38.7666 C139.687999,39.0420014 139.546667,39.3578982 139.456,39.7143 C139.365333,40.0707018 139.32,40.4270982 139.32,40.7835 C139.32,41.1507018 139.365333,41.5097982 139.456,41.8608 C139.546667,42.2118018 139.687999,42.5276986 139.88,42.8085 C140.072001,43.0893014 140.317332,43.3160991 140.616,43.4889 C140.914668,43.6617009 141.266665,43.7481 141.672,43.7481 Z M149.592,40.5729 L146.728,36.6039 L148.936,36.6039 L150.664,39.1797 L152.472,36.6039 L154.584,36.6039 L151.768,40.4757 L154.936,44.9793 L152.744,44.9793 L150.648,41.8851 L148.616,44.9793 L146.472,44.9793 L149.592,40.5729 Z M155.048,36.6039 L157.048,36.6039 L159.208,42.8571 L159.24,42.8571 L161.336,36.6039 L163.24,36.6039 L160.024,45.4329 C159.874666,45.8109019 159.728001,46.1726983 159.584,46.5183 C159.439999,46.8639017 159.264001,47.1689987 159.056,47.4336 C158.847999,47.6982013 158.589335,47.9087992 158.28,48.0654 C157.970665,48.2220008 157.576002,48.3003 157.096,48.3003 C156.669331,48.3003 156.248002,48.2679003 155.832,48.2031 L155.832,46.6479 C155.981334,46.6695001 156.125333,46.6937999 156.264,46.7208 C156.402667,46.7478001 156.546666,46.7613 156.696,46.7613 C156.909334,46.7613 157.085333,46.7343003 157.224,46.6803 C157.362667,46.6262997 157.477333,46.5480005 157.568,46.4454 C157.658667,46.3427995 157.736,46.2213007 157.8,46.0809 C157.864,45.9404993 157.922666,45.7785009 157.976,45.5949 L158.184,44.9469 L155.048,36.6039 Z" id="Teleport-Proxy" fill="#4A4A4A"></path>
                    </g>
                </g>
            </g>
        </g>
        <g id="Group-2" transform="translate(183.000000, 170.000000)">
            <rect id="Rectangle-16" stroke="#D1EAFF" stroke-width="3" fill="#EEF4F9" x="1.5" y="1.5" width="112" height="53"></rect>
            <text id="Client-offers-certif" font-family="LucidaGrande, Lucida Grande" font-size="13" font-weight="normal" fill="#4A4A4A">
                <tspan x="18.4348145" y="24">Client offers</tspan>
                <tspan x="23.8620605" y="40"> certificate</tspan>
            </text>
        </g>
        <g id="circleNumber" transform="translate(249.000000, 97.000000)">
            <g id="1-copy-2" transform="translate(5.000000, 5.000000)">
                <circle id="Oval-4" fill="#F26738" cx="13.5" cy="13.5" r="13.5"></circle>
                <text id="2" font-family="HelveticaNeue-Medium, Helvetica Neue" font-size="16" font-weight="400" fill="#FFFFFF">
                    <tspan x="9.052" y="20">1</tspan>
                </text>
            </g>
        </g>
        <polygon id="Triangle-2" stroke="#D1EAFF" fill="#D1EAFF" transform="translate(267.500000, 158.500000) scale(1, -1) rotate(-360.000000) translate(-267.500000, -158.500000) " points="267.5 170 256 147 279 147"></polygon>
        <g id="Group-3" transform="translate(450.000000, 136.000000)">
            <g id="Group-7" transform="translate(24.000000, 0.000000)">
                <g id="Group-6">
                    <g id="Group-5">
                        <rect id="Rectangle-16" stroke="#D1EAFF" stroke-width="3" fill="#EEF4F9" x="1.5" y="1.5" width="107" height="76"></rect>
                        <text id="Auth-CA-validates-si" font-family="LucidaGrande, Lucida Grande" font-size="13" font-weight="normal" fill="#4A4A4A">
                            <tspan x="29.278832" y="20">Auth CA </tspan>
                            <tspan x="27.5427481" y="36">validates </tspan>
                            <tspan x="17.2468496" y="52">signature of </tspan>
                            <tspan x="24.21975" y="68">certificate</tspan>
                        </text>
                    </g>
                </g>
            </g>
            <polygon id="Triangle-2" stroke="#D1EAFF" fill="#D1EAFF" transform="translate(12.500000, 34.500000) scale(1, -1) rotate(91.000000) translate(-12.500000, -34.500000) " points="12.5 46 1 23 24 23"></polygon>
        </g>
        <g id="Group-4" transform="translate(16.000000, 8.000000)">
            <g id="Rectangle-Copy-5">
                <use fill="black" fill-opacity="1" filter="url(#filter-5)" xlink:href="#path-4"></use>
                <use fill="#FFFFFF" fill-rule="evenodd" xlink:href="#path-4"></use>
            </g>
            <g id="web" transform="translate(38.000000, 134.000000)">
                <g id="web--client">
                    <text id="Web-client" font-family="HelveticaNeue-Medium, Helvetica Neue" font-size="16" font-weight="400" fill="#4A4A4A">
                        <tspan x="0.280756757" y="69.0847458">Web client</tspan>
                    </text>
                    <g id="Group-Copy" stroke-width="1" fill-rule="evenodd">
                        <g id="web-browser">
                            <path d="M0.25,0.25 L0.25,46.1991525 L79.0112613,46.1991525 L79.0112613,0.25 L0.25,0.25 Z" id="Rectangle-4-Copy-2" stroke="#4A4A4A" stroke-width="0.5"></path>
                            <rect id="Rectangle-18" fill="#4A4A4A" x="0" y="0" width="79.2612613" height="6.05858511"></rect>
                            <ellipse id="Oval" fill="#E6E3E7" cx="17.4992395" cy="3.02929256" rx="2.05873406" ry="2.01952837"></ellipse>
                            <ellipse id="Oval-Copy" fill="#E6E3E7" cx="11.3230373" cy="3.02929256" rx="2.05873406" ry="2.01952837"></ellipse>
                            <ellipse id="Oval-Copy-2" fill="#E6E3E7" cx="5.14683515" cy="3.02929256" rx="2.05873406" ry="2.01952837"></ellipse>
                            <path d="M18.9925422,20.1180929 L20.3011008,20.1180929 L20.3011008,23.0495505 L23.703353,23.0495505 L23.703353,20.1180929 L25.0119116,20.1180929 L25.0119116,27.4880251 L23.703353,27.4880251 L23.703353,24.1643301 L20.3011008,24.1643301 L20.3011008,27.4880251 L18.9925422,27.4880251 L18.9925422,20.1180929 Z M25.870326,20.1180929 L31.9211008,20.1180929 L31.9211008,21.2328725 L29.5447584,21.2328725 L29.5447584,27.4880251 L28.2361999,27.4880251 L28.2361999,21.2328725 L25.870326,21.2328725 L25.870326,20.1180929 Z M32.0781278,20.1180929 L38.1289026,20.1180929 L38.1289026,21.2328725 L35.7525602,21.2328725 L35.7525602,27.4880251 L34.4440017,27.4880251 L34.4440017,21.2328725 L32.0781278,21.2328725 L32.0781278,20.1180929 Z M38.9977854,20.1180929 L42.295353,20.1180929 C42.8257581,20.1180929 43.2584504,20.193787 43.5934431,20.3451776 C43.9284358,20.4965682 44.1866554,20.6858036 44.3681098,20.9128895 C44.5495641,21.1399753 44.6734398,21.3877017 44.7397404,21.6560759 C44.806041,21.9244501 44.8391909,22.1721765 44.8391909,22.3992623 C44.8391909,22.6263482 44.806041,22.8723542 44.7397404,23.1372878 C44.6734398,23.4022213 44.5495641,23.6482273 44.3681098,23.8753132 C44.1866554,24.1023991 43.9284358,24.2899141 43.5934431,24.437864 C43.2584504,24.5858139 42.8257581,24.6597878 42.295353,24.6597878 L40.306344,24.6597878 L40.306344,27.4880251 L38.9977854,27.4880251 L38.9977854,20.1180929 Z M40.306344,23.6069403 L42.2220737,23.6069403 C42.368633,23.6069403 42.5186796,23.5862964 42.6722179,23.5450081 C42.8257562,23.5037198 42.9670791,23.4366272 43.0961909,23.3437284 C43.2253026,23.2508297 43.3299862,23.1269665 43.4102449,22.9721352 C43.4905036,22.8173039 43.5306323,22.6229076 43.5306323,22.3889403 C43.5306323,22.1480916 43.4957377,21.9485343 43.4259476,21.7902623 C43.3561575,21.6319904 43.2619422,21.5064069 43.143299,21.4135081 C43.0246557,21.3206093 42.888567,21.2569574 42.7350287,21.2225505 C42.5814904,21.1881435 42.417486,21.1709403 42.2430107,21.1709403 L40.306344,21.1709403 L40.306344,23.6069403 Z M46.8386683,25.031381 C46.8386683,25.313518 46.8875207,25.554363 46.9852269,25.7539234 C47.0829331,25.9534837 47.2190218,26.1169142 47.3934972,26.24422 C47.5679725,26.3715257 47.7686161,26.4644231 47.9954341,26.5229149 C48.222252,26.5814067 48.4682586,26.6106522 48.7334611,26.6106522 C49.0196007,26.6106522 49.2638625,26.5779661 49.4662539,26.5125929 C49.6686453,26.4472196 49.8326497,26.3629239 49.9582719,26.259703 C50.0838942,26.1564822 50.17462,26.03778 50.2304521,25.9035929 C50.2862842,25.7694057 50.3141999,25.6335003 50.3141999,25.4958725 C50.3141999,25.2137355 50.249645,25.0055766 50.1205332,24.8713895 C49.9914214,24.7372024 49.8500985,24.6425847 49.6965602,24.5875335 C49.4313577,24.4911941 49.122541,24.400017 48.7701008,24.3139996 C48.4176606,24.2279823 47.9832235,24.1161613 47.4667764,23.9785335 C47.1457418,23.8959568 46.8787985,23.7875766 46.6659386,23.6533895 C46.4530787,23.5192024 46.2838401,23.3695344 46.1582179,23.204381 C46.0325956,23.0392276 45.9436145,22.8637548 45.8912719,22.6779573 C45.8389293,22.4921597 45.8127584,22.3029243 45.8127584,22.1102454 C45.8127584,21.7386503 45.8912711,21.4169501 46.048299,21.1451352 C46.2053268,20.8733203 46.4129493,20.6479582 46.6711728,20.469042 C46.9293963,20.2901259 47.2225105,20.1576611 47.5505242,20.0716437 C47.8785378,19.9856263 48.210036,19.9426183 48.5450287,19.9426183 C48.9358535,19.9426183 49.3039909,19.9925076 49.6494521,20.0922878 C49.9949133,20.1920679 50.2984958,20.3417359 50.5602089,20.5412962 C50.8219219,20.7408566 51.0295444,20.9868626 51.1830827,21.2793217 C51.336621,21.5717808 51.4133891,21.9106841 51.4133891,22.296042 L50.1048305,22.296042 C50.0699354,21.8212261 49.9059311,21.4857633 49.6128125,21.2896437 C49.3196939,21.0935241 48.9463222,20.9954657 48.4926863,20.9954657 C48.339148,20.9954657 48.1821226,21.0109486 48.0216053,21.0419149 C47.8610879,21.0728811 47.7145309,21.1244908 47.5819296,21.1967454 C47.4493283,21.269 47.3394105,21.3670583 47.2521728,21.4909234 C47.1649352,21.6147884 47.121317,21.7696173 47.121317,21.9554149 C47.121317,22.2169077 47.2033192,22.421626 47.367326,22.5695759 C47.5313328,22.7175258 47.7459343,22.8293467 48.0111368,22.905042 C48.0390529,22.9119234 48.1489707,22.9411689 48.3408936,22.9927793 C48.5328164,23.0443897 48.7474179,23.1011603 48.9847044,23.1630929 C49.2219908,23.2250254 49.4540396,23.2852366 49.6808575,23.3437284 C49.9076755,23.4022203 50.0699351,23.4452283 50.1676413,23.4727539 C50.4119068,23.5484492 50.6247635,23.6516685 50.8062179,23.7824149 C50.9876722,23.9131613 51.1394635,24.0628293 51.2615963,24.2314234 C51.383729,24.4000174 51.4744548,24.5806512 51.5337764,24.7733301 C51.5930981,24.9660091 51.6227584,25.1586851 51.6227584,25.351364 C51.6227584,25.7642475 51.5372668,26.1169134 51.3662809,26.4093725 C51.1952951,26.7018316 50.9702253,26.9409563 50.6910647,27.1267539 C50.4119042,27.3125514 50.0943638,27.4484568 49.7384341,27.5344742 C49.3825044,27.6204916 49.0196011,27.6634996 48.6497134,27.6634996 C48.2239935,27.6634996 47.8227062,27.61189 47.4458395,27.5086691 C47.0689728,27.4054483 46.740964,27.2471787 46.4618035,27.0338556 C46.1826429,26.8205325 45.9593178,26.5470013 45.7918215,26.2132539 C45.6243251,25.8795064 45.5370888,25.4855527 45.5301098,25.031381 L46.8386683,25.031381 Z M52.6905422,26.0945505 L54.1456593,26.0945505 L54.1456593,27.4880251 L52.6905422,27.4880251 L52.6905422,26.0945505 Z M52.6905422,22.2650759 L54.1456593,22.2650759 L54.1456593,23.6585505 L52.6905422,23.6585505 L52.6905422,22.2650759 Z M57.6525963,19.9426183 L58.7936593,19.9426183 L55.7892089,27.6634996 L54.6481458,27.6634996 L57.6525963,19.9426183 Z M61.3374972,19.9426183 L62.4785602,19.9426183 L59.4741098,27.6634996 L58.3330467,27.6634996 L61.3374972,19.9426183 Z" id="HTTPS://" fill="#4A4A4A"></path>
                        </g>
                    </g>
                </g>
            </g>
            <g id="tsh" transform="translate(37.000000, 26.000000)">
                <g id="SSH-client">
                    <g id="monitor-with-terminal">
                        <g id="tctl" stroke-width="1" fill-rule="evenodd">
                            <path d="M0.25,0.25 L0.25,45.65 L78.7681818,45.65 L78.7681818,0.25 L0.25,0.25 Z" id="Rectangle-4-Copy-3" stroke="#4A4A4A" stroke-width="0.5" fill="#4A4A4A"></path>
                            <rect id="Rectangle-18-Copy" fill="#D8D8D8" x="0" y="0" width="79.0181818" height="5.82857143"></rect>
                            <ellipse id="Oval-Copy-3" fill="#4A4A4A" cx="17.8909091" cy="2.91428571" rx="2.23636364" ry="2.18571429"></ellipse>
                            <ellipse id="Oval-Copy-4" fill="#4A4A4A" cx="11.1818182" cy="2.91428571" rx="2.23636364" ry="2.18571429"></ellipse>
                            <ellipse id="Oval-Copy-5" fill="#4A4A4A" cx="5.21818182" cy="2.91428571" rx="2.23636364" ry="2.18571429"></ellipse>
                        </g>
                        <text id="&gt;-ssh" font-family="Helvetica" font-size="18" font-weight="normal" fill="#FFFFFF">
                            <tspan x="5.96363636" y="37.6714286">&gt; ssh</tspan>
                        </text>
                    </g>
                    <text id="OpenSSH-client" font-family="HelveticaNeue-Medium, Helvetica Neue" font-size="16" font-weight="400" fill="#4A4A4A">
                        <tspan x="3.47863063" y="68.4745763">OpenSSH </tspan>
                        <tspan x="19.6226306" y="87.4745763">client</tspan>
                    </text>
                </g>
            </g>
        </g>
        <g id="auth-service" filter="url(#filter-6)" transform="translate(317.000000, 220.000000)">
            <g id="teleport-auth">
                <path d="M10,1.5 C5.30557963,1.5 1.5,5.30557963 1.5,10 L1.5,60 C1.5,64.6944204 5.30557963,68.5 10,68.5 L197,68.5 C201.69442,68.5 205.5,64.6944204 205.5,60 L205.5,10 C205.5,5.30557963 201.69442,1.5 197,1.5 L10,1.5 Z" id="Rectangle-17" stroke="#E1584E" stroke-width="3" fill="#FFFFFF"></path>
                <path d="M52.785,28 L62.35668,28 L62.35668,29.728 L58.59756,29.728 L58.59756,39.424 L56.52756,39.424 L56.52756,29.728 L52.785,29.728 L52.785,28 Z M67.50684,34.56 C67.4847599,34.2719986 67.4212805,33.994668 67.3164,33.728 C67.2115195,33.461332 67.0680009,33.2293343 66.88584,33.032 C66.7036791,32.8346657 66.4828813,32.6746673 66.22344,32.552 C65.9639987,32.4293327 65.6742016,32.368 65.35404,32.368 C65.0228383,32.368 64.7220014,32.4239994 64.45152,32.536 C64.1810386,32.6480006 63.949201,32.8026657 63.756,33 C63.562799,33.1973343 63.4082406,33.429332 63.29232,33.696 C63.1763994,33.962668 63.1129201,34.2506651 63.10188,34.56 L67.50684,34.56 Z M63.10188,35.76 C63.10188,36.0800016 63.1487995,36.3893318 63.24264,36.688 C63.3364805,36.9866682 63.4772391,37.2479989 63.66492,37.472 C63.8526009,37.6960011 64.0899586,37.874666 64.377,38.008 C64.6640414,38.141334 65.006278,38.208 65.40372,38.208 C65.9557228,38.208 66.4000783,38.0933345 66.7368,37.864 C67.0735217,37.6346655 67.3246792,37.290669 67.49028,36.832 L69.27876,36.832 C69.1793995,37.2800022 69.0082812,37.6799982 68.7654,38.032 C68.5225188,38.3840018 68.2299617,38.6799988 67.88772,38.92 C67.5454783,39.1600012 67.1618421,39.3413327 66.7368,39.464 C66.3117579,39.5866673 65.8674023,39.648 65.40372,39.648 C64.7302766,39.648 64.1341226,39.5413344 63.61524,39.328 C63.0963574,39.1146656 62.6575218,38.8160019 62.29872,38.432 C61.9399182,38.0479981 61.6694409,37.589336 61.48728,37.056 C61.3051191,36.522664 61.21404,35.9360032 61.21404,35.296 C61.21404,34.7093304 61.310639,34.1520026 61.50384,33.624 C61.697041,33.0959974 61.9730382,32.632002 62.33184,32.232 C62.6906418,31.831998 63.1239575,31.5146678 63.6318,31.28 C64.1396425,31.0453322 64.7137168,30.928 65.35404,30.928 C66.0274834,30.928 66.6319173,31.0639986 67.16736,31.336 C67.7028027,31.6080014 68.1471582,31.9679978 68.50044,32.416 C68.8537218,32.8640022 69.1103992,33.3786638 69.27048,33.96 C69.4305608,34.5413362 69.4719604,35.1413302 69.39468,35.76 L63.10188,35.76 Z M70.88508,28 L72.77292,28 L72.77292,39.424 L70.88508,39.424 L70.88508,28 Z M80.70516,34.56 C80.6830799,34.2719986 80.6196005,33.994668 80.51472,33.728 C80.4098395,33.461332 80.2663209,33.2293343 80.08416,33.032 C79.9019991,32.8346657 79.6812013,32.6746673 79.42176,32.552 C79.1623187,32.4293327 78.8725216,32.368 78.55236,32.368 C78.2211583,32.368 77.9203214,32.4239994 77.64984,32.536 C77.3793586,32.6480006 77.147521,32.8026657 76.95432,33 C76.761119,33.1973343 76.6065606,33.429332 76.49064,33.696 C76.3747194,33.962668 76.3112401,34.2506651 76.3002,34.56 L80.70516,34.56 Z M76.3002,35.76 C76.3002,36.0800016 76.3471195,36.3893318 76.44096,36.688 C76.5348005,36.9866682 76.6755591,37.2479989 76.86324,37.472 C77.0509209,37.6960011 77.2882786,37.874666 77.57532,38.008 C77.8623614,38.141334 78.204598,38.208 78.60204,38.208 C79.1540428,38.208 79.5983983,38.0933345 79.93512,37.864 C80.2718417,37.6346655 80.5229992,37.290669 80.6886,36.832 L82.47708,36.832 C82.3777195,37.2800022 82.2066012,37.6799982 81.96372,38.032 C81.7208388,38.3840018 81.4282817,38.6799988 81.08604,38.92 C80.7437983,39.1600012 80.3601621,39.3413327 79.93512,39.464 C79.5100779,39.5866673 79.0657223,39.648 78.60204,39.648 C77.9285966,39.648 77.3324426,39.5413344 76.81356,39.328 C76.2946774,39.1146656 75.8558418,38.8160019 75.49704,38.432 C75.1382382,38.0479981 74.8677609,37.589336 74.6856,37.056 C74.5034391,36.522664 74.41236,35.9360032 74.41236,35.296 C74.41236,34.7093304 74.508959,34.1520026 74.70216,33.624 C74.895361,33.0959974 75.1713582,32.632002 75.53016,32.232 C75.8889618,31.831998 76.3222775,31.5146678 76.83012,31.28 C77.3379625,31.0453322 77.9120368,30.928 78.55236,30.928 C79.2258034,30.928 79.8302373,31.0639986 80.36568,31.336 C80.9011227,31.6080014 81.3454782,31.9679978 81.69876,32.416 C82.0520418,32.8640022 82.3087192,33.3786638 82.4688,33.96 C82.6288808,34.5413362 82.6702804,35.1413302 82.593,35.76 L76.3002,35.76 Z M84.0834,31.152 L85.87188,31.152 L85.87188,32.272 L85.905,32.272 C86.1699613,31.7919976 86.5397976,31.448001 87.01452,31.24 C87.4892424,31.031999 88.0025972,30.928 88.5546,30.928 C89.2280434,30.928 89.8159175,31.0426655 90.31824,31.272 C90.8205625,31.5013345 91.2373183,31.815998 91.56852,32.216 C91.8997217,32.616002 92.1481192,33.082664 92.31372,33.616 C92.4793208,34.149336 92.56212,34.719997 92.56212,35.328 C92.56212,35.8826694 92.4876007,36.4213307 92.33856,36.944 C92.1895193,37.4666693 91.9632015,37.928 91.6596,38.328 C91.3559985,38.728002 90.9723623,39.0479988 90.50868,39.288 C90.0449977,39.5280012 89.4985231,39.648 88.86924,39.648 C88.5932386,39.648 88.3172414,39.6240002 88.04124,39.576 C87.7652386,39.5279998 87.5002813,39.4506672 87.24636,39.344 C86.9924387,39.2373328 86.7578411,39.1013342 86.54256,38.936 C86.3272789,38.7706658 86.1478807,38.5760011 86.00436,38.352 L85.97124,38.352 L85.97124,42.48 L84.0834,42.48 L84.0834,31.152 Z M90.67428,35.296 C90.67428,34.9226648 90.6246005,34.5600018 90.52524,34.208 C90.4258795,33.8559982 90.276841,33.5440014 90.07812,33.272 C89.879399,32.9999986 89.6310015,32.7813342 89.33292,32.616 C89.0348385,32.4506658 88.6926019,32.368 88.3062,32.368 C87.511316,32.368 86.912402,32.634664 86.50944,33.168 C86.106478,33.701336 85.905,34.4106622 85.905,35.296 C85.905,35.7120021 85.9574395,36.0986649 86.06232,36.456 C86.1672005,36.8133351 86.324519,37.1199987 86.53428,37.376 C86.744041,37.6320013 86.9951985,37.8346659 87.28776,37.984 C87.5803215,38.1333341 87.9197981,38.208 88.3062,38.208 C88.7367622,38.208 89.1010785,38.1226675 89.39916,37.952 C89.6972415,37.7813325 89.942879,37.5600014 90.13608,37.288 C90.329281,37.0159986 90.4672796,36.7066684 90.55008,36.36 C90.6328804,36.0133316 90.67428,35.6586685 90.67428,35.296 Z M98.0766,39.648 C97.3921166,39.648 96.7821627,39.5386678 96.24672,39.32 C95.7112773,39.1013322 95.2586418,38.8000019 94.8888,38.416 C94.5189582,38.0319981 94.237441,37.573336 94.04424,37.04 C93.851039,36.506664 93.75444,35.9200032 93.75444,35.28 C93.75444,34.6506635 93.851039,34.069336 94.04424,33.536 C94.237441,33.002664 94.5189582,32.5440019 94.8888,32.16 C95.2586418,31.7759981 95.7112773,31.4746678 96.24672,31.256 C96.7821627,31.0373322 97.3921166,30.928 98.0766,30.928 C98.7610834,30.928 99.3710373,31.0373322 99.90648,31.256 C100.441923,31.4746678 100.894558,31.7759981 101.2644,32.16 C101.634242,32.5440019 101.915759,33.002664 102.10896,33.536 C102.302161,34.069336 102.39876,34.6506635 102.39876,35.28 C102.39876,35.9200032 102.302161,36.506664 102.10896,37.04 C101.915759,37.573336 101.634242,38.0319981 101.2644,38.416 C100.894558,38.8000019 100.441923,39.1013322 99.90648,39.32 C99.3710373,39.5386678 98.7610834,39.648 98.0766,39.648 Z M98.0766,38.208 C98.4961221,38.208 98.8604385,38.1226675 99.16956,37.952 C99.4786815,37.7813325 99.732599,37.5573347 99.93132,37.28 C100.130041,37.0026653 100.27632,36.6906684 100.37016,36.344 C100.464,35.9973316 100.51092,35.6426685 100.51092,35.28 C100.51092,34.9279982 100.464,34.5760018 100.37016,34.224 C100.27632,33.8719982 100.130041,33.5600014 99.93132,33.288 C99.732599,33.0159986 99.4786815,32.7946675 99.16956,32.624 C98.8604385,32.4533325 98.4961221,32.368 98.0766,32.368 C97.6570779,32.368 97.2927615,32.4533325 96.98364,32.624 C96.6745185,32.7946675 96.420601,33.0159986 96.22188,33.288 C96.023159,33.5600014 95.8768805,33.8719982 95.78304,34.224 C95.6891995,34.5760018 95.64228,34.9279982 95.64228,35.28 C95.64228,35.6426685 95.6891995,35.9973316 95.78304,36.344 C95.8768805,36.6906684 96.023159,37.0026653 96.22188,37.28 C96.420601,37.5573347 96.6745185,37.7813325 96.98364,37.952 C97.2927615,38.1226675 97.6570779,38.208 98.0766,38.208 Z M103.97196,31.152 L105.74388,31.152 L105.74388,32.752 L105.777,32.752 C105.8322,32.5279989 105.939839,32.3093344 106.09992,32.096 C106.260001,31.8826656 106.453199,31.6880009 106.67952,31.512 C106.905841,31.3359991 107.156999,31.1946672 107.433,31.088 C107.709001,30.9813328 107.990519,30.928 108.27756,30.928 C108.498361,30.928 108.65016,30.9333333 108.73296,30.944 C108.81576,30.9546667 108.90132,30.9653333 108.98964,30.976 L108.98964,32.736 C108.857159,32.7146666 108.721921,32.6960001 108.58392,32.68 C108.445919,32.6639999 108.310681,32.656 108.1782,32.656 C107.858038,32.656 107.557201,32.7173327 107.27568,32.84 C106.994159,32.9626673 106.748521,33.1439988 106.53876,33.384 C106.328999,33.6240012 106.163401,33.9199982 106.04196,34.272 C105.920519,34.6240018 105.8598,35.029331 105.8598,35.488 L105.8598,39.424 L103.97196,39.424 L103.97196,31.152 Z M108.93996,31.152 L110.36412,31.152 L110.36412,28.672 L112.25196,28.672 L112.25196,31.152 L113.95764,31.152 L113.95764,32.512 L112.25196,32.512 L112.25196,36.928 C112.25196,37.120001 112.26024,37.2853326 112.2768,37.424 C112.29336,37.5626674 112.332,37.6799995 112.39272,37.776 C112.45344,37.8720005 112.544519,37.9439998 112.66596,37.992 C112.787401,38.0400002 112.952999,38.064 113.16276,38.064 C113.295241,38.064 113.427719,38.0613334 113.5602,38.056 C113.692681,38.0506666 113.825159,38.0320002 113.95764,38 L113.95764,39.408 C113.747879,39.4293334 113.543641,39.4506666 113.34492,39.472 C113.146199,39.4933334 112.941961,39.504 112.7322,39.504 C112.235398,39.504 111.835202,39.4586671 111.5316,39.368 C111.227998,39.2773329 110.990641,39.1440009 110.81952,38.968 C110.648399,38.7919991 110.53248,38.570668 110.47176,38.304 C110.41104,38.037332 110.37516,37.733335 110.36412,37.392 L110.36412,32.512 L108.93996,32.512 L108.93996,31.152 Z M123.34716,28 L125.54964,28 L130.10364,39.424 L127.8846,39.424 L126.77508,36.4 L122.05548,36.4 L120.94596,39.424 L118.80972,39.424 L123.34716,28 Z M122.61852,34.88 L126.2286,34.88 L124.45668,29.968 L124.407,29.968 L122.61852,34.88 Z M138.483,39.424 L136.62828,39.424 L136.62828,38.272 L136.59516,38.272 C136.363319,38.6880021 136.018322,39.0213321 135.56016,39.272 C135.101998,39.5226679 134.635562,39.648 134.16084,39.648 C133.034754,39.648 132.220563,39.3786694 131.71824,38.84 C131.215917,38.3013306 130.96476,37.4880054 130.96476,36.4 L130.96476,31.152 L132.8526,31.152 L132.8526,36.224 C132.8526,36.949337 132.996119,37.4613318 133.28316,37.76 C133.570201,38.0586682 133.973157,38.208 134.49204,38.208 C134.889482,38.208 135.220679,38.1493339 135.48564,38.032 C135.750601,37.9146661 135.965879,37.7573343 136.13148,37.56 C136.297081,37.3626657 136.41576,37.1253347 136.48752,36.848 C136.55928,36.5706653 136.59516,36.2720016 136.59516,35.952 L136.59516,31.152 L138.483,31.152 L138.483,39.424 Z M139.60908,31.152 L141.03324,31.152 L141.03324,28.672 L142.92108,28.672 L142.92108,31.152 L144.62676,31.152 L144.62676,32.512 L142.92108,32.512 L142.92108,36.928 C142.92108,37.120001 142.92936,37.2853326 142.94592,37.424 C142.96248,37.5626674 143.00112,37.6799995 143.06184,37.776 C143.12256,37.8720005 143.213639,37.9439998 143.33508,37.992 C143.456521,38.0400002 143.622119,38.064 143.83188,38.064 C143.964361,38.064 144.096839,38.0613334 144.22932,38.056 C144.361801,38.0506666 144.494279,38.0320002 144.62676,38 L144.62676,39.408 C144.416999,39.4293334 144.212761,39.4506666 144.01404,39.472 C143.815319,39.4933334 143.611081,39.504 143.40132,39.504 C142.904518,39.504 142.504322,39.4586671 142.20072,39.368 C141.897118,39.2773329 141.659761,39.1440009 141.48864,38.968 C141.317519,38.7919991 141.2016,38.570668 141.14088,38.304 C141.08016,38.037332 141.04428,37.733335 141.03324,37.392 L141.03324,32.512 L139.60908,32.512 L139.60908,31.152 Z M145.98468,28 L147.87252,28 L147.87252,32.24 L147.90564,32.24 C148.137481,31.8666648 148.482478,31.5546679 148.94064,31.304 C149.398802,31.0533321 149.909397,30.928 150.47244,30.928 C151.410845,30.928 152.150517,31.1626643 152.69148,31.632 C153.232443,32.1013357 153.50292,32.8053286 153.50292,33.744 L153.50292,39.424 L151.61508,39.424 L151.61508,34.224 C151.593,33.5733301 151.449481,33.1013348 151.18452,32.808 C150.919559,32.5146652 150.505563,32.368 149.94252,32.368 C149.622358,32.368 149.335321,32.4239994 149.0814,32.536 C148.827479,32.6480006 148.612201,32.8026657 148.43556,33 C148.258919,33.1973343 148.12092,33.429332 148.02156,33.696 C147.9222,33.962668 147.87252,34.2453318 147.87252,34.544 L147.87252,39.424 L145.98468,39.424 L145.98468,28 Z" id="Teleport-Auth" fill="#4A4A4A"></path>
            </g>
        </g>
        <g id="circleNumber" transform="translate(416.000000, 151.000000)">
            <g id="1-copy-2" transform="translate(5.000000, 5.000000)">
                <circle id="Oval-4" fill="#F26738" cx="13.5" cy="13.5" r="13.5"></circle>
                <text id="2" font-family="HelveticaNeue-Medium, Helvetica Neue" font-size="16" font-weight="400" fill="#FFFFFF">
                    <tspan x="9.052" y="20">2</tspan>
                </text>
            </g>
        </g>
        <path id="Line" d="M416.5,112.5 L416.5,210.5 L420.5,210.5 L416,219.5 L411.5,210.5 L415.5,210.5 L415.5,112.5 L416.5,112.5 Z" fill="#979797" fill-rule="nonzero"></path>
        <path id="Line-2" d="M395,108.5 L399.5,117.5 L395.5,117.5 L395.5,220.5 L394.5,220.5 L394.5,117.5 L390.5,117.5 L395,108.5 Z" fill="#979797" fill-rule="nonzero"></path>
        <g id="Group" transform="translate(363.000000, 127.000000)">
            <g id="certificate">
                <g>
                    <path d="M6.63,69.156 C6.56599968,68.9079988 6.47800056,68.680001 6.366,68.472 C6.25399944,68.263999 6.11000088,68.0840008 5.934,67.932 C5.75799912,67.7799992 5.55200118,67.6620004 5.316,67.578 C5.07999882,67.4939996 4.80600156,67.452 4.494,67.452 C4.03799772,67.452 3.64400166,67.5439991 3.312,67.728 C2.97999834,67.9120009 2.71000104,68.1579985 2.502,68.466 C2.29399896,68.7740015 2.1400005,69.123998 2.04,69.516 C1.9399995,69.908002 1.89,70.307998 1.89,70.716 C1.89,71.124002 1.9399995,71.523998 2.04,71.916 C2.1400005,72.308002 2.29399896,72.6579985 2.502,72.966 C2.71000104,73.2740015 2.97999834,73.5199991 3.312,73.704 C3.64400166,73.8880009 4.03799772,73.98 4.494,73.98 C4.83000168,73.98 5.12599872,73.9220006 5.382,73.806 C5.63800128,73.6899994 5.85799908,73.530001 6.042,73.326 C6.22600092,73.121999 6.36999948,72.8840014 6.474,72.612 C6.57800052,72.3399986 6.64599984,72.0480016 6.678,71.736 L8.142,71.736 C8.10999984,72.2480026 8.00000094,72.7159979 7.812,73.14 C7.62399906,73.5640021 7.3700016,73.9299985 7.05,74.238 C6.7299984,74.5460015 6.35400216,74.7839992 5.922,74.952 C5.48999784,75.1200008 5.0140026,75.204 4.494,75.204 C3.8539968,75.204 3.28000254,75.0860012 2.772,74.85 C2.26399746,74.6139988 1.83400176,74.292002 1.482,73.884 C1.12999824,73.475998 0.86000094,73.0000027 0.672,72.456 C0.48399906,71.9119973 0.39,71.3320031 0.39,70.716 C0.39,70.107997 0.48399906,69.5320027 0.672,68.988 C0.86000094,68.4439973 1.12999824,67.968002 1.482,67.56 C1.83400176,67.151998 2.26399746,66.8280012 2.772,66.588 C3.28000254,66.3479988 3.8539968,66.228 4.494,66.228 C4.9740024,66.228 5.42599788,66.2939993 5.85,66.426 C6.27400212,66.5580007 6.64799838,66.7499987 6.972,67.002 C7.29600162,67.2540013 7.557999,67.5599982 7.758,67.92 C7.958001,68.2800018 8.08199976,68.6919977 8.13,69.156 L6.63,69.156 Z M13.578,71.352 C13.5619999,71.1359989 13.5160004,70.928001 13.44,70.728 C13.3639996,70.527999 13.2600007,70.3540007 13.128,70.206 C12.9959993,70.0579993 12.8360009,69.9380005 12.648,69.846 C12.4599991,69.7539995 12.2500012,69.708 12.018,69.708 C11.7779988,69.708 11.560001,69.7499996 11.364,69.834 C11.167999,69.9180004 11.0000007,70.0339993 10.86,70.182 C10.7199993,70.3300007 10.6080004,70.503999 10.524,70.704 C10.4399996,70.904001 10.394,71.1199988 10.386,71.352 L13.578,71.352 Z M10.386,72.252 C10.386,72.4920012 10.4199997,72.7239989 10.488,72.948 C10.5560003,73.1720011 10.6579993,73.3679992 10.794,73.536 C10.9300007,73.7040008 11.101999,73.8379995 11.31,73.938 C11.518,74.0380005 11.7659986,74.088 12.054,74.088 C12.454002,74.088 12.7759988,74.0020009 13.02,73.83 C13.2640012,73.6579991 13.4459994,73.4000017 13.566,73.056 L14.862,73.056 C14.7899996,73.3920017 14.6660009,73.6919987 14.49,73.956 C14.3139991,74.2200013 14.1020012,74.4419991 13.854,74.622 C13.6059988,74.8020009 13.3280015,74.9379995 13.02,75.03 C12.7119985,75.1220005 12.3900017,75.168 12.054,75.168 C11.5659976,75.168 11.1340019,75.0880008 10.758,74.928 C10.3819981,74.7679992 10.0640013,74.5440014 9.804,74.256 C9.5439987,73.9679986 9.34800066,73.624002 9.216,73.224 C9.08399934,72.823998 9.018,72.3840024 9.018,71.904 C9.018,71.4639978 9.0879993,71.046002 9.228,70.65 C9.3680007,70.253998 9.5679987,69.9060015 9.828,69.606 C10.0880013,69.3059985 10.4019982,69.0680009 10.77,68.892 C11.1380018,68.7159991 11.5539977,68.628 12.018,68.628 C12.5060024,68.628 12.9439981,68.729999 13.332,68.934 C13.7200019,69.138001 14.0419987,69.4079983 14.298,69.744 C14.5540013,70.0800017 14.7399994,70.4659978 14.856,70.902 C14.9720006,71.3380022 15.0020003,71.7879977 14.946,72.252 L10.386,72.252 Z M15.99,68.796 L17.274,68.796 L17.274,69.996 L17.298,69.996 C17.3380002,69.8279992 17.4159994,69.6640008 17.532,69.504 C17.6480006,69.3439992 17.7879992,69.1980007 17.952,69.066 C18.1160008,68.9339993 18.297999,68.8280004 18.498,68.748 C18.698001,68.6679996 18.901999,68.628 19.11,68.628 C19.2700008,68.628 19.3799997,68.632 19.44,68.64 C19.5000003,68.648 19.5619997,68.656 19.626,68.664 L19.626,69.984 C19.5299995,69.9679999 19.4320005,69.9540001 19.332,69.942 C19.2319995,69.9299999 19.1340005,69.924 19.038,69.924 C18.8059988,69.924 18.588001,69.9699995 18.384,70.062 C18.179999,70.1540005 18.0020008,70.2899991 17.85,70.47 C17.6979992,70.6500009 17.5780004,70.8719987 17.49,71.136 C17.4019996,71.4000013 17.358,71.7039983 17.358,72.048 L17.358,75 L15.99,75 L15.99,68.796 Z M19.59,68.796 L20.622,68.796 L20.622,66.936 L21.99,66.936 L21.99,68.796 L23.226,68.796 L23.226,69.816 L21.99,69.816 L21.99,73.128 C21.99,73.2720007 21.9959999,73.3959995 22.008,73.5 C22.0200001,73.6040005 22.0479998,73.6919996 22.092,73.764 C22.1360002,73.8360004 22.2019996,73.8899998 22.29,73.926 C22.3780004,73.9620002 22.4979992,73.98 22.65,73.98 C22.7460005,73.98 22.8419995,73.978 22.938,73.974 C23.0340005,73.97 23.1299995,73.9560001 23.226,73.932 L23.226,74.988 C23.0739992,75.0040001 22.9260007,75.0199999 22.782,75.036 C22.6379993,75.0520001 22.4900008,75.06 22.338,75.06 C21.9779982,75.06 21.6880011,75.0260003 21.468,74.958 C21.2479989,74.8899997 21.0760006,74.7900007 20.952,74.658 C20.8279994,74.5259993 20.7440002,74.360001 20.7,74.16 C20.6559998,73.959999 20.63,73.7320013 20.622,73.476 L20.622,69.816 L19.59,69.816 L19.59,68.796 Z M24.246,66.432 L25.614,66.432 L25.614,67.728 L24.246,67.728 L24.246,66.432 Z M24.246,68.796 L25.614,68.796 L25.614,75 L24.246,75 L24.246,68.796 Z M30.918,66.432 L32.286,66.432 L32.286,67.728 L30.918,67.728 L30.918,66.432 Z M26.49,68.796 L27.51,68.796 L27.51,68.28 C27.51,67.887998 27.5579995,67.5700012 27.654,67.326 C27.7500005,67.0819988 27.8779992,66.8940007 28.038,66.762 C28.1980008,66.6299993 28.379999,66.5420002 28.584,66.498 C28.788001,66.4539998 29.0019989,66.432 29.226,66.432 C29.6660022,66.432 29.985999,66.4599997 30.186,66.516 L30.186,67.584 C30.0979996,67.5599999 30.0040005,67.5420001 29.904,67.53 C29.8039995,67.5179999 29.6860007,67.512 29.55,67.512 C29.3659991,67.512 29.2080007,67.5559996 29.076,67.644 C28.9439993,67.7320004 28.878,67.9039987 28.878,68.16 L28.878,68.796 L30.042,68.796 L30.042,69.816 L28.878,69.816 L28.878,75 L27.51,75 L27.51,69.816 L26.49,69.816 L26.49,68.796 Z M30.918,68.796 L32.286,68.796 L32.286,75 L30.918,75 L30.918,68.796 Z M37.962,70.872 C37.9059997,70.4879981 37.7520013,70.198001 37.5,70.002 C37.2479987,69.805999 36.9300019,69.708 36.546,69.708 C36.3699991,69.708 36.182001,69.7379997 35.982,69.798 C35.781999,69.8580003 35.5980008,69.9699992 35.43,70.134 C35.2619992,70.2980008 35.1220006,70.5259985 35.01,70.818 C34.8979994,71.1100015 34.842,71.4919976 34.842,71.964 C34.842,72.2200013 34.8719997,72.4759987 34.932,72.732 C34.9920003,72.9880013 35.0879993,73.215999 35.22,73.416 C35.3520007,73.616001 35.521999,73.7779994 35.73,73.902 C35.938001,74.0260006 36.1899985,74.088 36.486,74.088 C36.886002,74.088 37.2159987,73.9640012 37.476,73.716 C37.7360013,73.4679988 37.8979997,73.1200022 37.962,72.672 L39.33,72.672 C39.2019994,73.480004 38.8960024,74.0979979 38.412,74.526 C37.9279976,74.9540021 37.286004,75.168 36.486,75.168 C35.9979976,75.168 35.5680019,75.0860008 35.196,74.922 C34.8239981,74.7579992 34.5100013,74.5340014 34.254,74.25 C33.9979987,73.9659986 33.8040007,73.628 33.672,73.236 C33.5399993,72.843998 33.474,72.4200023 33.474,71.964 C33.474,71.4999977 33.5379994,71.064002 33.666,70.656 C33.7940006,70.247998 33.9859987,69.8940015 34.242,69.594 C34.4980013,69.2939985 34.8159981,69.0580009 35.196,68.886 C35.5760019,68.7139991 36.0219974,68.628 36.534,68.628 C36.8940018,68.628 37.2359984,68.6739995 37.56,68.766 C37.8840016,68.8580005 38.1719987,68.9959991 38.424,69.18 C38.6760013,69.3640009 38.8819992,69.5959986 39.042,69.876 C39.2020008,70.1560014 39.2979998,70.4879981 39.33,70.872 L37.962,70.872 Z M45.642,73.62 C45.642,73.7880008 45.6639998,73.9079996 45.708,73.98 C45.7520002,74.0520004 45.8379994,74.088 45.966,74.088 L46.11,74.088 C46.1660003,74.088 46.2299996,74.0800001 46.302,74.064 L46.302,75.012 C46.2539998,75.0280001 46.1920004,75.0459999 46.116,75.066 C46.0399996,75.0860001 45.9620004,75.1039999 45.882,75.12 C45.8019996,75.1360001 45.7220004,75.148 45.642,75.156 C45.5619996,75.164 45.4940003,75.168 45.438,75.168 C45.1579986,75.168 44.9260009,75.1120006 44.742,75 C44.5579991,74.8879994 44.4380003,74.6920014 44.382,74.412 C44.11,74.6760013 43.776002,74.8679994 43.38,74.988 C42.983998,75.1080006 42.6020018,75.168 42.234,75.168 C41.9539986,75.168 41.6860013,75.1300004 41.43,75.054 C41.1739987,74.9779996 40.948001,74.8660007 40.752,74.718 C40.555999,74.5699993 40.4000006,74.3820011 40.284,74.154 C40.1679994,73.9259989 40.11,73.6600015 40.11,73.356 C40.11,72.9719981 40.1799993,72.6600012 40.32,72.42 C40.4600007,72.1799988 40.6439989,71.9920007 40.872,71.856 C41.1000011,71.7199993 41.3559986,71.6220003 41.64,71.562 C41.9240014,71.5019997 42.2099986,71.4560002 42.498,71.424 C42.7460012,71.3759998 42.9819989,71.3420001 43.206,71.322 C43.4300011,71.3019999 43.6279991,71.2680002 43.8,71.22 C43.9720009,71.1719998 44.1079995,71.0980005 44.208,70.998 C44.3080005,70.8979995 44.358,70.748001 44.358,70.548 C44.358,70.3719991 44.3160004,70.2280006 44.232,70.116 C44.1479996,70.0039994 44.0440006,69.9180003 43.92,69.858 C43.7959994,69.7979997 43.6580008,69.7580001 43.506,69.738 C43.3539992,69.7179999 43.2100007,69.708 43.074,69.708 C42.6899981,69.708 42.3740012,69.7879992 42.126,69.948 C41.8779988,70.1080008 41.7380002,70.3559983 41.706,70.692 L40.338,70.692 C40.3620001,70.291998 40.4579992,69.9600013 40.626,69.696 C40.7940008,69.4319987 41.0079987,69.2200008 41.268,69.06 C41.5280013,68.8999992 41.8219984,68.7880003 42.15,68.724 C42.4780016,68.6599997 42.8139983,68.628 43.158,68.628 C43.4620015,68.628 43.7619985,68.6599997 44.058,68.724 C44.3540015,68.7880003 44.6199988,68.8919993 44.856,69.036 C45.0920012,69.1800007 45.2819993,69.3659989 45.426,69.594 C45.5700007,69.8220011 45.642,70.0999984 45.642,70.428 L45.642,73.62 Z M44.274,71.892 C44.065999,72.0280007 43.8100015,72.1099999 43.506,72.138 C43.2019985,72.1660001 42.8980015,72.2079997 42.594,72.264 C42.4499993,72.2880001 42.3100007,72.3219998 42.174,72.366 C42.0379993,72.4100002 41.9180005,72.4699996 41.814,72.546 C41.7099995,72.6220004 41.6280003,72.7219994 41.568,72.846 C41.5079997,72.9700006 41.478,73.1199991 41.478,73.296 C41.478,73.4480008 41.5219996,73.5759995 41.61,73.68 C41.6980004,73.7840005 41.8039994,73.8659997 41.928,73.926 C42.0520006,73.9860003 42.1879993,74.0279999 42.336,74.052 C42.4840007,74.0760001 42.6179994,74.088 42.738,74.088 C42.8900008,74.088 43.0539991,74.0680002 43.23,74.028 C43.4060009,73.9879998 43.5719992,73.9200005 43.728,73.824 C43.8840008,73.7279995 44.0139995,73.6060007 44.118,73.458 C44.2220005,73.3099993 44.274,73.1280011 44.274,72.912 L44.274,71.892 Z M46.494,68.796 L47.526,68.796 L47.526,66.936 L48.894,66.936 L48.894,68.796 L50.13,68.796 L50.13,69.816 L48.894,69.816 L48.894,73.128 C48.894,73.2720007 48.8999999,73.3959995 48.912,73.5 C48.9240001,73.6040005 48.9519998,73.6919996 48.996,73.764 C49.0400002,73.8360004 49.1059996,73.8899998 49.194,73.926 C49.2820004,73.9620002 49.4019992,73.98 49.554,73.98 C49.6500005,73.98 49.7459995,73.978 49.842,73.974 C49.9380005,73.97 50.0339995,73.9560001 50.13,73.932 L50.13,74.988 C49.9779992,75.0040001 49.8300007,75.0199999 49.686,75.036 C49.5419993,75.0520001 49.3940008,75.06 49.242,75.06 C48.8819982,75.06 48.5920011,75.0260003 48.372,74.958 C48.1519989,74.8899997 47.9800006,74.7900007 47.856,74.658 C47.7319994,74.5259993 47.6480002,74.360001 47.604,74.16 C47.5599998,73.959999 47.534,73.7320013 47.526,73.476 L47.526,69.816 L46.494,69.816 L46.494,68.796 Z M55.374,71.352 C55.3579999,71.1359989 55.3120004,70.928001 55.236,70.728 C55.1599996,70.527999 55.0560007,70.3540007 54.924,70.206 C54.7919993,70.0579993 54.6320009,69.9380005 54.444,69.846 C54.2559991,69.7539995 54.0460012,69.708 53.814,69.708 C53.5739988,69.708 53.356001,69.7499996 53.16,69.834 C52.963999,69.9180004 52.7960007,70.0339993 52.656,70.182 C52.5159993,70.3300007 52.4040004,70.503999 52.32,70.704 C52.2359996,70.904001 52.19,71.1199988 52.182,71.352 L55.374,71.352 Z M52.182,72.252 C52.182,72.4920012 52.2159997,72.7239989 52.284,72.948 C52.3520003,73.1720011 52.4539993,73.3679992 52.59,73.536 C52.7260007,73.7040008 52.897999,73.8379995 53.106,73.938 C53.314,74.0380005 53.5619986,74.088 53.85,74.088 C54.250002,74.088 54.5719988,74.0020009 54.816,73.83 C55.0600012,73.6579991 55.2419994,73.4000017 55.362,73.056 L56.658,73.056 C56.5859996,73.3920017 56.4620009,73.6919987 56.286,73.956 C56.1099991,74.2200013 55.8980012,74.4419991 55.65,74.622 C55.4019988,74.8020009 55.1240015,74.9379995 54.816,75.03 C54.5079985,75.1220005 54.1860017,75.168 53.85,75.168 C53.3619976,75.168 52.9300019,75.0880008 52.554,74.928 C52.1779981,74.7679992 51.8600013,74.5440014 51.6,74.256 C51.3399987,73.9679986 51.1440007,73.624002 51.012,73.224 C50.8799993,72.823998 50.814,72.3840024 50.814,71.904 C50.814,71.4639978 50.8839993,71.046002 51.024,70.65 C51.1640007,70.253998 51.3639987,69.9060015 51.624,69.606 C51.8840013,69.3059985 52.1979982,69.0680009 52.566,68.892 C52.9340018,68.7159991 53.3499977,68.628 53.814,68.628 C54.3020024,68.628 54.7399981,68.729999 55.128,68.934 C55.5160019,69.138001 55.8379987,69.4079983 56.094,69.744 C56.3500013,70.0800017 56.5359994,70.4659978 56.652,70.902 C56.7680006,71.3380022 56.7980003,71.7879977 56.742,72.252 L52.182,72.252 Z" id="Certificate-Copy-2" fill="#4A4A4A"></path>
                    <g id="cert-copy-2" transform="translate(4.000000, 0.000000)">
                        <path d="M40.7631579,0.5 L0.5,0.5 L0.5,53.5 L48.5,53.5 L48.5,8.40243902 L40.7631579,8.40243902 L40.7631579,0.5 Z" id="Combined-Shape" stroke="#5C5C5C" fill="#FFFFFF"></path>
                        <line x1="7.7173913" y1="13.5" x2="39.3152006" y2="13.5" id="Line" stroke="#4A4A4A" stroke-linecap="square"></line>
                        <line x1="7.7173913" y1="16.5" x2="39.3152006" y2="16.5" id="Line-Copy" stroke="#4A4A4A" stroke-linecap="square"></line>
                        <line x1="7.7173913" y1="19.5" x2="39.3152006" y2="19.5" id="Line-Copy-9" stroke="#4A4A4A" stroke-linecap="square"></line>
                        <line x1="7.7173913" y1="22.5" x2="39.3152006" y2="22.5" id="Line-Copy-10" stroke="#4A4A4A" stroke-linecap="square"></line>
                        <line x1="7.7173913" y1="25.5" x2="39.3152006" y2="25.5" id="Line-Copy-11" stroke="#4A4A4A" stroke-linecap="square"></line>
                        <line x1="7.7173913" y1="28.5" x2="33.5" y2="28.5" id="Line-Copy-12" stroke="#4A4A4A" stroke-linecap="square"></line>
                        <circle id="Oval-7" fill="#4A4A4A" cx="39.5" cy="46.5" r="6.5"></circle>
                        <path d="M44,49 L44,61 L39.5,55.1714286 L35,61 L35,49 L44,49 Z" id="Combined-Shape" fill="#4A4A4A"></path>
                        <line x1="40.7519531" y1="0.306884766" x2="48.6711426" y2="8.33398437" id="Path-11" stroke="#4A4A4A"></line>
                    </g>
                </g>
            </g>
            <text id="" font-family="LucidaGrande, Lucida Grande" font-size="36" font-weight="normal" fill="#09C62E">
                <tspan x="0.245117188" y="62"></tspan>
            </text>
        </g>
        <path id="Line-6" d="M286,78 L295,82.5 L286,87 L286,83 L161,83 L161,82 L286,82 L286,78 Z" fill="#979797" fill-rule="nonzero"></path>
    </g>
</svg>