<svg height="411" viewBox="0 0 545 411" width="545" xmlns="http://www.w3.org/2000/svg" xmlns:xlink="http://www.w3.org/1999/xlink"><defs><rect id="a" height="132" rx="10" width="267" x="274" y="2"/><filter id="b" height="110.6%" width="105.2%" x="-2.6%" y="-3.8%"><feOffset dx="0" dy="2" in="SourceAlpha" result="shadowOffsetOuter1"/><feGaussianBlur in="shadowOffsetOuter1" result="shadowBlurOuter1" stdDeviation="2"/><feColorMatrix in="shadowBlurOuter1" type="matrix" values="0 0 0 0 0   0 0 0 0 0   0 0 0 0 0  0 0 0 0.5 0"/></filter><rect id="c" height="132" rx="10" width="267" x="273" y="141"/><filter id="d" height="110.6%" width="105.2%" x="-2.6%" y="-3.8%"><feOffset dx="0" dy="2" in="SourceAlpha" result="shadowOffsetOuter1"/><feGaussianBlur in="shadowOffsetOuter1" result="shadowBlurOuter1" stdDeviation="2"/><feColorMatrix in="shadowBlurOuter1" type="matrix" values="0 0 0 0 0   0 0 0 0 0   0 0 0 0 0  0 0 0 0.5 0"/></filter><rect id="e" height="120" rx="10" width="267" x="273" y="281"/><filter id="f" height="111.7%" width="105.2%" x="-2.6%" y="-4.2%"><feOffset dx="0" dy="2" in="SourceAlpha" result="shadowOffsetOuter1"/><feGaussianBlur in="shadowOffsetOuter1" result="shadowBlurOuter1" stdDeviation="2"/><feColorMatrix in="shadowBlurOuter1" type="matrix" values="0 0 0 0 0   0 0 0 0 0   0 0 0 0 0  0 0 0 0.5 0"/></filter><rect id="g" height="188" rx="10" width="250"/><filter id="h" height="107.4%" width="105.6%" x="-2.8%" y="-2.7%"><feOffset dx="0" dy="2" in="SourceAlpha" result="shadowOffsetOuter1"/><feGaussianBlur in="shadowOffsetOuter1" result="shadowBlurOuter1" stdDeviation="2"/><feColorMatrix in="shadowBlurOuter1" type="matrix" values="0 0 0 0 0   0 0 0 0 0   0 0 0 0 0  0 0 0 0.5 0"/></filter><filter id="i" height="118.6%" width="106.3%" x="-3.1%" y="-9.3%"><feOffset dx="0" dy="1" in="SourceAlpha" result="shadowOffsetOuter1"/><feGaussianBlur in="shadowOffsetOuter1" result="shadowBlurOuter1" stdDeviation="1"/><feColorMatrix in="shadowBlurOuter1" result="shadowMatrixOuter1" type="matrix" values="0 0 0 0 0   0 0 0 0 0   0 0 0 0 0  0 0 0 0.5 0"/><feMerge><feMergeNode in="shadowMatrixOuter1"/><feMergeNode in="SourceGraphic"/></feMerge></filter><path id="j" d="m0 0h196v77h-196z"/><filter id="k" height="118.2%" width="107.1%" x="-3.6%" y="-6.5%"><feOffset dx="0" dy="2" in="SourceAlpha" result="shadowOffsetOuter1"/><feGaussianBlur in="shadowOffsetOuter1" result="shadowBlurOuter1" stdDeviation="2"/><feColorMatrix in="shadowBlurOuter1" type="matrix" values="0 0 0 0 0   0 0 0 0 0   0 0 0 0 0  0 0 0 0.5 0"/></filter></defs><g fill="none" fill-rule="evenodd"><use fill="#000" filter="url(#b)" xlink:href="#a"/><use fill="#fff" fill-rule="evenodd" xlink:href="#a"/><use fill="#000" filter="url(#d)" xlink:href="#c"/><use fill="#fff" fill-rule="evenodd" xlink:href="#c"/><use fill="#000" filter="url(#f)" xlink:href="#e"/><use fill="#fff" fill-rule="evenodd" xlink:href="#e"/><g transform="translate(291 21)"><path d="m10 1.5c-4.69442037 0-8.5 3.80557963-8.5 8.5v60c0 4.6944204 3.80557963 8.5 8.5 8.5h210c4.69442 0 8.5-3.8055796 8.5-8.5v-60c0-4.69442037-3.80558-8.5-8.5-8.5z" fill="#fff" stroke="#3662a2" stroke-width="3"/><path d="m63 33h9.2282475v1.6707182h-3.6242425v9.3745857h-1.9957283v-9.3745857h-3.6082767zm14.1936194 6.3425414c-.0212879-.2784544-.0824896-.5465917-.183607-.8044199-.1011174-.2578281-.2394865-.4821353-.4151115-.6729281-.175625-.1907929-.3885005-.3454875-.638633-.4640884-.2501326-.118601-.5295317-.1779006-.8382059-.1779006-.3193181 0-.6093611.0541431-.8701375.162431-.2607765.1082878-.4842958.2578259-.6705647.4486187-.1862689.1907929-.3352818.4151-.4470431.6729282-.1117614.2578282-.1729631.5362785-.183607.8353591zm-4.2469097 1.160221c0 .3093938.045236.60847.1357095.8972376.0904734.2887676.2261816.5414354.4071285.758011.180947.2165757.4097882.389318.6865306.5182321.2767423.1289141.6066994.1933702.9898812.1933702.5321968 0 .9606089-.1108645 1.285249-.3325967.3246401-.2217323.566786-.5543256.7264451-.9977901h1.7243092c-.0957955.4331514-.260774.8198878-.4949406 1.160221s-.5162268.6265182-.8461888.8585635c-.3299621.2320454-.6998333.4073659-1.1096249.5259669s-.8382037.1779006-1.285249.1779006c-.6492802 0-1.2240442-.1031298-1.7243092-.3093923-.5002651-.2062626-.9233553-.4950258-1.2692832-.8662984-.345928-.3712725-.6067005-.8147303-.7823255-1.3303867-.175625-.5156563-.2634361-1.0828698-.2634361-1.7016575 0-.5672219.093133-1.1060747.2794019-1.6165745s.4523634-.9591141.7982913-1.3458564c.345928-.3867423.7636963-.6935532 1.2533174-.920442s1.0430975-.3403315 1.6604459-.3403315c.6492802 0 1.232027.1314904 1.748258.3944752.5162309.2629847.944643.6110475 1.285249 1.0441989.3406059.4331513.5880738.9307522.7424109 1.4928176.1543371.5620655.1942512 1.1421702.1197437 1.7403315zm7.5039382-7.5027624h1.8201042v11.0453039h-1.8201042zm9.4677349 6.3425414c-.0212879-.2784544-.0824896-.5465917-.183607-.8044199-.1011174-.2578281-.2394865-.4821353-.4151115-.6729281-.175625-.1907929-.3885005-.3454875-.638633-.4640884-.2501326-.118601-.5295317-.1779006-.8382059-.1779006-.3193181 0-.6093611.0541431-.8701375.162431-.2607765.1082878-.4842958.2578259-.6705647.4486187-.1862689.1907929-.3352818.4151-.4470432.6729282-.1117613.2578282-.172963.5362785-.183607.8353591zm-4.2469098 1.160221c0 .3093938.0452361.60847.1357096.8972376.0904734.2887676.2261816.5414354.4071285.758011.180947.2165757.4097882.389318.6865306.5182321.2767423.1289141.6066994.1933702.9898812.1933702.5321968 0 .9606089-.1108645 1.285249-.3325967.3246401-.2217323.566786-.5543256.7264451-.9977901h1.7243092c-.0957955.4331514-.260774.8198878-.4949406 1.160221-.2341667.3403332-.5162268.6265182-.8461888.8585635-.3299621.2320454-.6998333.4073659-1.1096249.5259669s-.8382037.1779006-1.285249.1779006c-.6492802 0-1.2240442-.1031298-1.7243092-.3093923-.5002651-.2062626-.9233553-.4950258-1.2692832-.8662984-.345928-.3712725-.6067005-.8147303-.7823255-1.3303867-.175625-.5156563-.2634361-1.0828698-.2634361-1.7016575 0-.5672219.093133-1.1060747.2794019-1.6165745s.4523634-.9591141.7982913-1.3458564c.345928-.3867423.7636963-.6935532 1.2533174-.920442s1.0430975-.3403315 1.6604459-.3403315c.6492802 0 1.232027.1314904 1.7482579.3944752.516231.2629847.9446431.6110475 1.285249 1.0441989.340606.4331513.5880739.9307522.742411 1.4928176.1543371.5620655.1942512 1.1421702.1197437 1.7403315zm7.5039383-4.4552486h1.7243092v1.0828729h.0319317c.2554545-.4640907.612021-.796684 1.0697103-.99779s.952625-.3016575 1.4848218-.3016575c.6492802 0 1.2160614.1108645 1.7003605.3325967.4842992.2217322.8861022.5259649 1.2054202.9127072s.558803.8379348.718462 1.3535912c.159659.5156563.239487 1.0674003.239487 1.6552486 0 .5362826-.071845 1.0570877-.215538 1.5624309-.143694.5053432-.361891.9513793-.654599 1.3381216-.292709.3867422-.6625798.6961314-1.1096252.9281768-.4470453.2320453-.9739123.3480663-1.5806168.3480663-.2660984 0-.5321928-.0232042-.7982913-.0696133-.2660984-.0464091-.5215491-.1211781-.7663596-.2243094-.2448106-.1031313-.4709908-.2346217-.6785476-.3944751-.2075568-.1598535-.3805182-.3480653-.5188894-.5646409h-.0319316v3.9911602h-1.8201042zm6.3543988 4.0066298c0-.3609594-.047897-.7116005-.1436924-1.0519337-.0957955-.3403331-.2394865-.6419876-.4310774-.9049723-.1915908-.2629848-.4310758-.4744007-.7184621-.6342542-.2873863-.1598534-.6173434-.239779-.9898812-.239779-.7663635 0-1.3437885.2578243-1.7322922.7734807-.3885037.5156563-.5827526 1.201469-.5827526 2.0574585 0 .402212.0505579.7760573.1516753 1.121547.1011174.3454898.2527913.6419877.4550261.8895028.2022348.247515.4443807.4434615.7264451.5878453.2820643.1443838.6093605.2165746.9818983.2165746.4151135 0 .7663582-.0825038 1.0537445-.2475139.2873863-.16501.5242103-.3790042.7104792-.6419889s.3193162-.5620609.3991457-.8972376c.0798295-.3351766.1197437-.6780829.1197437-1.0287293zm7.1367239 4.2077349c-.659924 0-1.247992-.105708-1.764223-.3171271s-.952626-.5027606-1.309198-.8740332c-.356572-.3712725-.627988-.8147304-.814257-1.3303867-.186269-.5156564-.279402-1.0828698-.279402-1.7016575 0-.6084745.093133-1.1705315.279402-1.6861878.186269-.5156564.457685-.9591142.814257-1.3303868.356572-.3712725.792967-.662614 1.309198-.8740331s1.104299-.3171271 1.764223-.3171271 1.247993.105708 1.764224.3171271.952626.5027606 1.309198.8740331c.356572.3712726.627988.8147304.814257 1.3303868.186269.5156563.279402 1.0777133.279402 1.6861878 0 .6187877-.093133 1.1860011-.279402 1.7016575-.186269.5156563-.457685.9591142-.814257 1.3303867-.356572.3712726-.792967.6626141-1.309198.8740332s-1.1043.3171271-1.764224.3171271zm0-1.3922652c.40447 0 .755715-.0825038 1.053745-.2475139.29803-.16501.542837-.3815824.734428-.6497237s.332621-.5697958.423094-.9049724c.090474-.3351766.13571-.6780829.13571-1.0287293 0-.3403332-.045236-.6806612-.13571-1.0209944-.090473-.3403332-.231503-.6419877-.423094-.9049724-.191591-.2629848-.436398-.4769789-.734428-.641989-.29803-.16501-.649275-.2475138-1.053745-.2475138-.404469 0-.755714.0825038-1.053744.2475138-.29803.1650101-.542837.3790042-.734428.641989-.191591.2629847-.332621.5646392-.423095.9049724-.090473.3403332-.135709.6806612-.135709 1.0209944 0 .3506464.045236.6935527.135709 1.0287293.090474.3351766.231504.6368311.423095.9049724s.436398.4847137.734428.6497237c.29803.1650101.649275.2475139 1.053744.2475139zm5.683834-6.8220995h1.708344v1.5469613h.031931c.05322-.2165756.156997-.4279916.311334-.6342541s.340603-.3944743.558804-.5646409.460347-.3068135.726445-.4099447c.266099-.1031313.537515-.1546962.814257-.1546962.212879 0 .359231.0051565.43906.0154696.07983.0103132.162319.0206261.247471.0309393v1.7016574c-.127728-.0206262-.258114-.0386739-.391163-.0541436s-.263435-.0232044-.391163-.0232044c-.308674 0-.598717.0592995-.870137.1779005-.271421.118601-.508245.2939215-.71048.5259669-.202234.2320453-.361891.5182303-.478974.8585635-.117084.3403332-.175624.7322261-.175624 1.1756906v3.8055249h-1.820105zm4.789748 0h1.373061v-2.39779h1.820104v2.39779h1.644481v1.3149171h-1.644481v4.2696133c0 .1856363.007983.3454874.023949.479558.015966.1340707.053219.2475134.111761.3403315s.146353.1624307.263436.2088398.27674.0696132.478975.0696132c.127727 0 .255452-.0025782.38318-.0077348.127727-.0051565.255452-.0232042.38318-.0541436v1.361326c-.202235.0206262-.399145.0412522-.590736.0618784-.191591.0206263-.388501.0309392-.590736.0309392-.478977 0-.864814-.0438301-1.157522-.1314917s-.521549-.2165737-.68653-.3867403c-.164982-.1701666-.276741-.3841608-.335283-.641989-.058541-.2578281-.093134-.5517479-.103778-.8817679v-4.7182321h-1.373061zm10.760967-3.0475138h2.107489l5.204859 8.1370166h.031932v-8.1370166h1.899933v11.0453039h-2.107489l-5.188893-8.121547h-.047898v8.121547h-1.899933zm15.135603 11.2618785c-.659924 0-1.247993-.105708-1.764224-.3171271s-.952625-.5027606-1.309197-.8740332c-.356572-.3712725-.627989-.8147304-.814257-1.3303867-.186269-.5156564-.279402-1.0828698-.279402-1.7016575 0-.6084745.093133-1.1705315.279402-1.6861878.186268-.5156564.457685-.9591142.814257-1.3303868.356572-.3712725.792966-.662614 1.309197-.8740331s1.1043-.3171271 1.764224-.3171271 1.247993.105708 1.764224.3171271.952626.5027606 1.309198.8740331c.356572.3712726.627988.8147304.814257 1.3303868.186269.5156563.279402 1.0777133.279402 1.6861878 0 .6187877-.093133 1.1860011-.279402 1.7016575-.186269.5156563-.457685.9591142-.814257 1.3303867-.356572.3712726-.792967.6626141-1.309198.8740332s-1.1043.3171271-1.764224.3171271zm0-1.3922652c.40447 0 .755714-.0825038 1.053745-.2475139.29803-.16501.542837-.3815824.734428-.6497237s.332621-.5697958.423094-.9049724c.090474-.3351766.13571-.6780829.13571-1.0287293 0-.3403332-.045236-.6806612-.13571-1.0209944-.090473-.3403332-.231503-.6419877-.423094-.9049724-.191591-.2629848-.436398-.4769789-.734428-.641989-.298031-.16501-.649275-.2475138-1.053745-.2475138-.404469 0-.755714.0825038-1.053744.2475138-.298031.1650101-.542837.3790042-.734428.641989-.191591.2629847-.332621.5646392-.423095.9049724-.090473.3403332-.135709.6806612-.135709 1.0209944 0 .3506464.045236.6935527.135709 1.0287293.090474.3351766.231504.6368311.423095.9049724s.436397.4847137.734428.6497237c.29803.1650101.649275.2475139 1.053744.2475139zm13.459192 1.1756906h-1.72431v-1.082873h-.031931c-.244811.4640908-.601377.7966841-1.069711.9977901-.468333.201106-.963269.3016575-1.484821.3016575-.649281 0-1.216062-.1108645-1.700361-.3325967-.484299-.2217323-.886102-.5233867-1.20542-.9049724s-.558803-.8327783-.718462-1.3535912-.239487-1.0802916-.239487-1.678453c0-.7219189.101115-1.3458537.30335-1.8718232s.47099-.9591143.806275-1.2994475c.335284-.3403332.71846-.5904228 1.149539-.7502763.431079-.1598534.870135-.239779 1.317181-.239779.255454 0 .516227.0232042.782325.0696133.266099.0464091.521549.1211781.76636.2243094.24481.1031312.470991.2346216.678547.3944751.207557.1598535.380519.3480652.51889.5646409h.031931v-4.0839779h1.820105zm-6.354399-3.9138122c0 .3403332.045236.6755048.135709 1.0055249.090474.33002.228843.6239398.415112.8817679.186269.2578282.423093.4640877.710479.6187846s.627987.2320442 1.021813.2320442c.40447 0 .753053-.0825038 1.045762-.2475139.292708-.16501.532193-.3815824.718462-.6497237s.324638-.5697958.415111-.9049724c.090474-.3351766.13571-.6780829.13571-1.0287293 0-.8869289-.204893-1.577898-.614685-2.0729281-.409791-.4950301-.965929-.7425415-1.668428-.7425415-.425758 0-.784985.085082-1.077694.2552486-.292708.1701666-.532193.3918955-.718462.6651934s-.319316.582687-.399146.9281768c-.079829.3454898-.119743.6987091-.119743 1.0596685zm14.002029-.7889503c-.021288-.2784544-.082489-.5465917-.183607-.8044199-.101117-.2578281-.239486-.4821353-.415111-.6729281-.175625-.1907929-.388501-.3454875-.638633-.4640884-.250133-.118601-.529532-.1779006-.838206-.1779006-.319318 0-.609361.0541431-.870138.162431-.260776.1082878-.484295.2578259-.670564.4486187-.186269.1907929-.335282.4151-.447043.6729282-.111762.2578282-.172964.5362785-.183607.8353591zm-4.246909 1.160221c0 .3093938.045236.60847.135709.8972376.090474.2887676.226182.5414354.407129.758011.180947.2165757.409788.389318.68653.5182321.276743.1289141.6067.1933702.989881.1933702.532197 0 .960609-.1108645 1.285249-.3325967.32464-.2217323.566786-.5543256.726445-.9977901h1.72431c-.095796.4331514-.260774.8198878-.494941 1.160221s-.516227.6265182-.846189.8585635c-.329962.2320454-.699833.4073659-1.109625.5259669-.409791.118601-.838203.1779006-1.285249.1779006-.64928 0-1.224044-.1031298-1.724309-.3093923-.500265-.2062626-.923355-.4950258-1.269283-.8662984-.345928-.3712725-.606701-.8147303-.782326-1.3303867-.175624-.5156563-.263436-1.0828698-.263436-1.7016575 0-.5672219.093133-1.1060747.279402-1.6165745s.452364-.9591141.798292-1.3458564.763696-.6935532 1.253317-.920442 1.043098-.3403315 1.660446-.3403315c.64928 0 1.232027.1314904 1.748258.3944752.516231.2629847.944643.6110475 1.285249 1.0441989.340606.4331513.588074.9307522.742411 1.4928176.154337.5620655.194251 1.1421702.119743 1.7403315z" fill="#4a4a4a"/></g><g transform="translate(291 153)"><path d="m10 1.5c-4.69442037 0-8.5 3.80557963-8.5 8.5v60c0 4.6944204 3.80557963 8.5 8.5 8.5h210c4.69442 0 8.5-3.8055796 8.5-8.5v-60c0-4.69442037-3.80558-8.5-8.5-8.5z" fill="#fff" stroke="#3662a2" stroke-width="3"/><path d="m63 33h9.2282475v1.6707182h-3.6242425v9.3745857h-1.9957283v-9.3745857h-3.6082767zm14.1936194 6.3425414c-.0212879-.2784544-.0824896-.5465917-.183607-.8044199-.1011174-.2578281-.2394865-.4821353-.4151115-.6729281-.175625-.1907929-.3885005-.3454875-.638633-.4640884-.2501326-.118601-.5295317-.1779006-.8382059-.1779006-.3193181 0-.6093611.0541431-.8701375.162431-.2607765.1082878-.4842958.2578259-.6705647.4486187-.1862689.1907929-.3352818.4151-.4470431.6729282-.1117614.2578282-.1729631.5362785-.183607.8353591zm-4.2469097 1.160221c0 .3093938.045236.60847.1357095.8972376.0904734.2887676.2261816.5414354.4071285.758011.180947.2165757.4097882.389318.6865306.5182321.2767423.1289141.6066994.1933702.9898812.1933702.5321968 0 .9606089-.1108645 1.285249-.3325967.3246401-.2217323.566786-.5543256.7264451-.9977901h1.7243092c-.0957955.4331514-.260774.8198878-.4949406 1.160221s-.5162268.6265182-.8461888.8585635c-.3299621.2320454-.6998333.4073659-1.1096249.5259669s-.8382037.1779006-1.285249.1779006c-.6492802 0-1.2240442-.1031298-1.7243092-.3093923-.5002651-.2062626-.9233553-.4950258-1.2692832-.8662984-.345928-.3712725-.6067005-.8147303-.7823255-1.3303867-.175625-.5156563-.2634361-1.0828698-.2634361-1.7016575 0-.5672219.093133-1.1060747.2794019-1.6165745s.4523634-.9591141.7982913-1.3458564c.345928-.3867423.7636963-.6935532 1.2533174-.920442s1.0430975-.3403315 1.6604459-.3403315c.6492802 0 1.232027.1314904 1.748258.3944752.5162309.2629847.944643.6110475 1.285249 1.0441989.3406059.4331513.5880738.9307522.7424109 1.4928176.1543371.5620655.1942512 1.1421702.1197437 1.7403315zm7.5039382-7.5027624h1.8201042v11.0453039h-1.8201042zm9.4677349 6.3425414c-.0212879-.2784544-.0824896-.5465917-.183607-.8044199-.1011174-.2578281-.2394865-.4821353-.4151115-.6729281-.175625-.1907929-.3885005-.3454875-.638633-.4640884-.2501326-.118601-.5295317-.1779006-.8382059-.1779006-.3193181 0-.6093611.0541431-.8701375.162431-.2607765.1082878-.4842958.2578259-.6705647.4486187-.1862689.1907929-.3352818.4151-.4470432.6729282-.1117613.2578282-.172963.5362785-.183607.8353591zm-4.2469098 1.160221c0 .3093938.0452361.60847.1357096.8972376.0904734.2887676.2261816.5414354.4071285.758011.180947.2165757.4097882.389318.6865306.5182321.2767423.1289141.6066994.1933702.9898812.1933702.5321968 0 .9606089-.1108645 1.285249-.3325967.3246401-.2217323.566786-.5543256.7264451-.9977901h1.7243092c-.0957955.4331514-.260774.8198878-.4949406 1.160221-.2341667.3403332-.5162268.6265182-.8461888.8585635-.3299621.2320454-.6998333.4073659-1.1096249.5259669s-.8382037.1779006-1.285249.1779006c-.6492802 0-1.2240442-.1031298-1.7243092-.3093923-.5002651-.2062626-.9233553-.4950258-1.2692832-.8662984-.345928-.3712725-.6067005-.8147303-.7823255-1.3303867-.175625-.5156563-.2634361-1.0828698-.2634361-1.7016575 0-.5672219.093133-1.1060747.2794019-1.6165745s.4523634-.9591141.7982913-1.3458564c.345928-.3867423.7636963-.6935532 1.2533174-.920442s1.0430975-.3403315 1.6604459-.3403315c.6492802 0 1.232027.1314904 1.7482579.3944752.516231.2629847.9446431.6110475 1.285249 1.0441989.340606.4331513.5880739.9307522.742411 1.4928176.1543371.5620655.1942512 1.1421702.1197437 1.7403315zm7.5039383-4.4552486h1.7243092v1.0828729h.0319317c.2554545-.4640907.612021-.796684 1.0697103-.99779s.952625-.3016575 1.4848218-.3016575c.6492802 0 1.2160614.1108645 1.7003605.3325967.4842992.2217322.8861022.5259649 1.2054202.9127072s.558803.8379348.718462 1.3535912c.159659.5156563.239487 1.0674003.239487 1.6552486 0 .5362826-.071845 1.0570877-.215538 1.5624309-.143694.5053432-.361891.9513793-.654599 1.3381216-.292709.3867422-.6625798.6961314-1.1096252.9281768-.4470453.2320453-.9739123.3480663-1.5806168.3480663-.2660984 0-.5321928-.0232042-.7982913-.0696133-.2660984-.0464091-.5215491-.1211781-.7663596-.2243094-.2448106-.1031313-.4709908-.2346217-.6785476-.3944751-.2075568-.1598535-.3805182-.3480653-.5188894-.5646409h-.0319316v3.9911602h-1.8201042zm6.3543988 4.0066298c0-.3609594-.047897-.7116005-.1436924-1.0519337-.0957955-.3403331-.2394865-.6419876-.4310774-.9049723-.1915908-.2629848-.4310758-.4744007-.7184621-.6342542-.2873863-.1598534-.6173434-.239779-.9898812-.239779-.7663635 0-1.3437885.2578243-1.7322922.7734807-.3885037.5156563-.5827526 1.201469-.5827526 2.0574585 0 .402212.0505579.7760573.1516753 1.121547.1011174.3454898.2527913.6419877.4550261.8895028.2022348.247515.4443807.4434615.7264451.5878453.2820643.1443838.6093605.2165746.9818983.2165746.4151135 0 .7663582-.0825038 1.0537445-.2475139.2873863-.16501.5242103-.3790042.7104792-.6419889s.3193162-.5620609.3991457-.8972376c.0798295-.3351766.1197437-.6780829.1197437-1.0287293zm7.1367239 4.2077349c-.659924 0-1.247992-.105708-1.764223-.3171271s-.952626-.5027606-1.309198-.8740332c-.356572-.3712725-.627988-.8147304-.814257-1.3303867-.186269-.5156564-.279402-1.0828698-.279402-1.7016575 0-.6084745.093133-1.1705315.279402-1.6861878.186269-.5156564.457685-.9591142.814257-1.3303868.356572-.3712725.792967-.662614 1.309198-.8740331s1.104299-.3171271 1.764223-.3171271 1.247993.105708 1.764224.3171271.952626.5027606 1.309198.8740331c.356572.3712726.627988.8147304.814257 1.3303868.186269.5156563.279402 1.0777133.279402 1.6861878 0 .6187877-.093133 1.1860011-.279402 1.7016575-.186269.5156563-.457685.9591142-.814257 1.3303867-.356572.3712726-.792967.6626141-1.309198.8740332s-1.1043.3171271-1.764224.3171271zm0-1.3922652c.40447 0 .755715-.0825038 1.053745-.2475139.29803-.16501.542837-.3815824.734428-.6497237s.332621-.5697958.423094-.9049724c.090474-.3351766.13571-.6780829.13571-1.0287293 0-.3403332-.045236-.6806612-.13571-1.0209944-.090473-.3403332-.231503-.6419877-.423094-.9049724-.191591-.2629848-.436398-.4769789-.734428-.641989-.29803-.16501-.649275-.2475138-1.053745-.2475138-.404469 0-.755714.0825038-1.053744.2475138-.29803.1650101-.542837.3790042-.734428.641989-.191591.2629847-.332621.5646392-.423095.9049724-.090473.3403332-.135709.6806612-.135709 1.0209944 0 .3506464.045236.6935527.135709 1.0287293.090474.3351766.231504.6368311.423095.9049724s.436398.4847137.734428.6497237c.29803.1650101.649275.2475139 1.053744.2475139zm5.683834-6.8220995h1.708344v1.5469613h.031931c.05322-.2165756.156997-.4279916.311334-.6342541s.340603-.3944743.558804-.5646409.460347-.3068135.726445-.4099447c.266099-.1031313.537515-.1546962.814257-.1546962.212879 0 .359231.0051565.43906.0154696.07983.0103132.162319.0206261.247471.0309393v1.7016574c-.127728-.0206262-.258114-.0386739-.391163-.0541436s-.263435-.0232044-.391163-.0232044c-.308674 0-.598717.0592995-.870137.1779005-.271421.118601-.508245.2939215-.71048.5259669-.202234.2320453-.361891.5182303-.478974.8585635-.117084.3403332-.175624.7322261-.175624 1.1756906v3.8055249h-1.820105zm4.789748 0h1.373061v-2.39779h1.820104v2.39779h1.644481v1.3149171h-1.644481v4.2696133c0 .1856363.007983.3454874.023949.479558.015966.1340707.053219.2475134.111761.3403315s.146353.1624307.263436.2088398.27674.0696132.478975.0696132c.127727 0 .255452-.0025782.38318-.0077348.127727-.0051565.255452-.0232042.38318-.0541436v1.361326c-.202235.0206262-.399145.0412522-.590736.0618784-.191591.0206263-.388501.0309392-.590736.0309392-.478977 0-.864814-.0438301-1.157522-.1314917s-.521549-.2165737-.68653-.3867403c-.164982-.1701666-.276741-.3841608-.335283-.641989-.058541-.2578281-.093134-.5517479-.103778-.8817679v-4.7182321h-1.373061zm10.760967-3.0475138h2.107489l5.204859 8.1370166h.031932v-8.1370166h1.899933v11.0453039h-2.107489l-5.188893-8.121547h-.047898v8.121547h-1.899933zm15.135603 11.2618785c-.659924 0-1.247993-.105708-1.764224-.3171271s-.952625-.5027606-1.309197-.8740332c-.356572-.3712725-.627989-.8147304-.814257-1.3303867-.186269-.5156564-.279402-1.0828698-.279402-1.7016575 0-.6084745.093133-1.1705315.279402-1.6861878.186268-.5156564.457685-.9591142.814257-1.3303868.356572-.3712725.792966-.662614 1.309197-.8740331s1.1043-.3171271 1.764224-.3171271 1.247993.105708 1.764224.3171271.952626.5027606 1.309198.8740331c.356572.3712726.627988.8147304.814257 1.3303868.186269.5156563.279402 1.0777133.279402 1.6861878 0 .6187877-.093133 1.1860011-.279402 1.7016575-.186269.5156563-.457685.9591142-.814257 1.3303867-.356572.3712726-.792967.6626141-1.309198.8740332s-1.1043.3171271-1.764224.3171271zm0-1.3922652c.40447 0 .755714-.0825038 1.053745-.2475139.29803-.16501.542837-.3815824.734428-.6497237s.332621-.5697958.423094-.9049724c.090474-.3351766.13571-.6780829.13571-1.0287293 0-.3403332-.045236-.6806612-.13571-1.0209944-.090473-.3403332-.231503-.6419877-.423094-.9049724-.191591-.2629848-.436398-.4769789-.734428-.641989-.298031-.16501-.649275-.2475138-1.053745-.2475138-.404469 0-.755714.0825038-1.053744.2475138-.298031.1650101-.542837.3790042-.734428.641989-.191591.2629847-.332621.5646392-.423095.9049724-.090473.3403332-.135709.6806612-.135709 1.0209944 0 .3506464.045236.6935527.135709 1.0287293.090474.3351766.231504.6368311.423095.9049724s.436397.4847137.734428.6497237c.29803.1650101.649275.2475139 1.053744.2475139zm13.459192 1.1756906h-1.72431v-1.082873h-.031931c-.244811.4640908-.601377.7966841-1.069711.9977901-.468333.201106-.963269.3016575-1.484821.3016575-.649281 0-1.216062-.1108645-1.700361-.3325967-.484299-.2217323-.886102-.5233867-1.20542-.9049724s-.558803-.8327783-.718462-1.3535912-.239487-1.0802916-.239487-1.678453c0-.7219189.101115-1.3458537.30335-1.8718232s.47099-.9591143.806275-1.2994475c.335284-.3403332.71846-.5904228 1.149539-.7502763.431079-.1598534.870135-.239779 1.317181-.239779.255454 0 .516227.0232042.782325.0696133.266099.0464091.521549.1211781.76636.2243094.24481.1031312.470991.2346216.678547.3944751.207557.1598535.380519.3480652.51889.5646409h.031931v-4.0839779h1.820105zm-6.354399-3.9138122c0 .3403332.045236.6755048.135709 1.0055249.090474.33002.228843.6239398.415112.8817679.186269.2578282.423093.4640877.710479.6187846s.627987.2320442 1.021813.2320442c.40447 0 .753053-.0825038 1.045762-.2475139.292708-.16501.532193-.3815824.718462-.6497237s.324638-.5697958.415111-.9049724c.090474-.3351766.13571-.6780829.13571-1.0287293 0-.8869289-.204893-1.577898-.614685-2.0729281-.409791-.4950301-.965929-.7425415-1.668428-.7425415-.425758 0-.784985.085082-1.077694.2552486-.292708.1701666-.532193.3918955-.718462.6651934s-.319316.582687-.399146.9281768c-.079829.3454898-.119743.6987091-.119743 1.0596685zm14.002029-.7889503c-.021288-.2784544-.082489-.5465917-.183607-.8044199-.101117-.2578281-.239486-.4821353-.415111-.6729281-.175625-.1907929-.388501-.3454875-.638633-.4640884-.250133-.118601-.529532-.1779006-.838206-.1779006-.319318 0-.609361.0541431-.870138.162431-.260776.1082878-.484295.2578259-.670564.4486187-.186269.1907929-.335282.4151-.447043.6729282-.111762.2578282-.172964.5362785-.183607.8353591zm-4.246909 1.160221c0 .3093938.045236.60847.135709.8972376.090474.2887676.226182.5414354.407129.758011.180947.2165757.409788.389318.68653.5182321.276743.1289141.6067.1933702.989881.1933702.532197 0 .960609-.1108645 1.285249-.3325967.32464-.2217323.566786-.5543256.726445-.9977901h1.72431c-.095796.4331514-.260774.8198878-.494941 1.160221s-.516227.6265182-.846189.8585635c-.329962.2320454-.699833.4073659-1.109625.5259669-.409791.118601-.838203.1779006-1.285249.1779006-.64928 0-1.224044-.1031298-1.724309-.3093923-.500265-.2062626-.923355-.4950258-1.269283-.8662984-.345928-.3712725-.606701-.8147303-.782326-1.3303867-.175624-.5156563-.263436-1.0828698-.263436-1.7016575 0-.5672219.093133-1.1060747.279402-1.6165745s.452364-.9591141.798292-1.3458564.763696-.6935532 1.253317-.920442 1.043098-.3403315 1.660446-.3403315c.64928 0 1.232027.1314904 1.748258.3944752.516231.2629847.944643.6110475 1.285249 1.0441989.340606.4331513.588074.9307522.742411 1.4928176.154337.5620655.194251 1.1421702.119743 1.7403315z" fill="#4a4a4a"/></g><g transform="translate(291 285)"><path d="m10 1.5c-4.69442037 0-8.5 3.80557963-8.5 8.5v60c0 4.6944204 3.80557963 8.5 8.5 8.5h210c4.69442 0 8.5-3.8055796 8.5-8.5v-60c0-4.69442037-3.80558-8.5-8.5-8.5z" fill="#fff" stroke="#3662a2" stroke-width="3"/><path d="m63 33h9.2282475v1.6707182h-3.6242425v9.3745857h-1.9957283v-9.3745857h-3.6082767zm14.1936194 6.3425414c-.0212879-.2784544-.0824896-.5465917-.183607-.8044199-.1011174-.2578281-.2394865-.4821353-.4151115-.6729281-.175625-.1907929-.3885005-.3454875-.638633-.4640884-.2501326-.118601-.5295317-.1779006-.8382059-.1779006-.3193181 0-.6093611.0541431-.8701375.162431-.2607765.1082878-.4842958.2578259-.6705647.4486187-.1862689.1907929-.3352818.4151-.4470431.6729282-.1117614.2578282-.1729631.5362785-.183607.8353591zm-4.2469097 1.160221c0 .3093938.045236.60847.1357095.8972376.0904734.2887676.2261816.5414354.4071285.758011.180947.2165757.4097882.389318.6865306.5182321.2767423.1289141.6066994.1933702.9898812.1933702.5321968 0 .9606089-.1108645 1.285249-.3325967.3246401-.2217323.566786-.5543256.7264451-.9977901h1.7243092c-.0957955.4331514-.260774.8198878-.4949406 1.160221s-.5162268.6265182-.8461888.8585635c-.3299621.2320454-.6998333.4073659-1.1096249.5259669s-.8382037.1779006-1.285249.1779006c-.6492802 0-1.2240442-.1031298-1.7243092-.3093923-.5002651-.2062626-.9233553-.4950258-1.2692832-.8662984-.345928-.3712725-.6067005-.8147303-.7823255-1.3303867-.175625-.5156563-.2634361-1.0828698-.2634361-1.7016575 0-.5672219.093133-1.1060747.2794019-1.6165745s.4523634-.9591141.7982913-1.3458564c.345928-.3867423.7636963-.6935532 1.2533174-.920442s1.0430975-.3403315 1.6604459-.3403315c.6492802 0 1.232027.1314904 1.748258.3944752.5162309.2629847.944643.6110475 1.285249 1.0441989.3406059.4331513.5880738.9307522.7424109 1.4928176.1543371.5620655.1942512 1.1421702.1197437 1.7403315zm7.5039382-7.5027624h1.8201042v11.0453039h-1.8201042zm9.4677349 6.3425414c-.0212879-.2784544-.0824896-.5465917-.183607-.8044199-.1011174-.2578281-.2394865-.4821353-.4151115-.6729281-.175625-.1907929-.3885005-.3454875-.638633-.4640884-.2501326-.118601-.5295317-.1779006-.8382059-.1779006-.3193181 0-.6093611.0541431-.8701375.162431-.2607765.1082878-.4842958.2578259-.6705647.4486187-.1862689.1907929-.3352818.4151-.4470432.6729282-.1117613.2578282-.172963.5362785-.183607.8353591zm-4.2469098 1.160221c0 .3093938.0452361.60847.1357096.8972376.0904734.2887676.2261816.5414354.4071285.758011.180947.2165757.4097882.389318.6865306.5182321.2767423.1289141.6066994.1933702.9898812.1933702.5321968 0 .9606089-.1108645 1.285249-.3325967.3246401-.2217323.566786-.5543256.7264451-.9977901h1.7243092c-.0957955.4331514-.260774.8198878-.4949406 1.160221-.2341667.3403332-.5162268.6265182-.8461888.8585635-.3299621.2320454-.6998333.4073659-1.1096249.5259669s-.8382037.1779006-1.285249.1779006c-.6492802 0-1.2240442-.1031298-1.7243092-.3093923-.5002651-.2062626-.9233553-.4950258-1.2692832-.8662984-.345928-.3712725-.6067005-.8147303-.7823255-1.3303867-.175625-.5156563-.2634361-1.0828698-.2634361-1.7016575 0-.5672219.093133-1.1060747.2794019-1.6165745s.4523634-.9591141.7982913-1.3458564c.345928-.3867423.7636963-.6935532 1.2533174-.920442s1.0430975-.3403315 1.6604459-.3403315c.6492802 0 1.232027.1314904 1.7482579.3944752.516231.2629847.9446431.6110475 1.285249 1.0441989.340606.4331513.5880739.9307522.742411 1.4928176.1543371.5620655.1942512 1.1421702.1197437 1.7403315zm7.5039383-4.4552486h1.7243092v1.0828729h.0319317c.2554545-.4640907.612021-.796684 1.0697103-.99779s.952625-.3016575 1.4848218-.3016575c.6492802 0 1.2160614.1108645 1.7003605.3325967.4842992.2217322.8861022.5259649 1.2054202.9127072s.558803.8379348.718462 1.3535912c.159659.5156563.239487 1.0674003.239487 1.6552486 0 .5362826-.071845 1.0570877-.215538 1.5624309-.143694.5053432-.361891.9513793-.654599 1.3381216-.292709.3867422-.6625798.6961314-1.1096252.9281768-.4470453.2320453-.9739123.3480663-1.5806168.3480663-.2660984 0-.5321928-.0232042-.7982913-.0696133-.2660984-.0464091-.5215491-.1211781-.7663596-.2243094-.2448106-.1031313-.4709908-.2346217-.6785476-.3944751-.2075568-.1598535-.3805182-.3480653-.5188894-.5646409h-.0319316v3.9911602h-1.8201042zm6.3543988 4.0066298c0-.3609594-.047897-.7116005-.1436924-1.0519337-.0957955-.3403331-.2394865-.6419876-.4310774-.9049723-.1915908-.2629848-.4310758-.4744007-.7184621-.6342542-.2873863-.1598534-.6173434-.239779-.9898812-.239779-.7663635 0-1.3437885.2578243-1.7322922.7734807-.3885037.5156563-.5827526 1.201469-.5827526 2.0574585 0 .402212.0505579.7760573.1516753 1.121547.1011174.3454898.2527913.6419877.4550261.8895028.2022348.247515.4443807.4434615.7264451.5878453.2820643.1443838.6093605.2165746.9818983.2165746.4151135 0 .7663582-.0825038 1.0537445-.2475139.2873863-.16501.5242103-.3790042.7104792-.6419889s.3193162-.5620609.3991457-.8972376c.0798295-.3351766.1197437-.6780829.1197437-1.0287293zm7.1367239 4.2077349c-.659924 0-1.247992-.105708-1.764223-.3171271s-.952626-.5027606-1.309198-.8740332c-.356572-.3712725-.627988-.8147304-.814257-1.3303867-.186269-.5156564-.279402-1.0828698-.279402-1.7016575 0-.6084745.093133-1.1705315.279402-1.6861878.186269-.5156564.457685-.9591142.814257-1.3303868.356572-.3712725.792967-.662614 1.309198-.8740331s1.104299-.3171271 1.764223-.3171271 1.247993.105708 1.764224.3171271.952626.5027606 1.309198.8740331c.356572.3712726.627988.8147304.814257 1.3303868.186269.5156563.279402 1.0777133.279402 1.6861878 0 .6187877-.093133 1.1860011-.279402 1.7016575-.186269.5156563-.457685.9591142-.814257 1.3303867-.356572.3712726-.792967.6626141-1.309198.8740332s-1.1043.3171271-1.764224.3171271zm0-1.3922652c.40447 0 .755715-.0825038 1.053745-.2475139.29803-.16501.542837-.3815824.734428-.6497237s.332621-.5697958.423094-.9049724c.090474-.3351766.13571-.6780829.13571-1.0287293 0-.3403332-.045236-.6806612-.13571-1.0209944-.090473-.3403332-.231503-.6419877-.423094-.9049724-.191591-.2629848-.436398-.4769789-.734428-.641989-.29803-.16501-.649275-.2475138-1.053745-.2475138-.404469 0-.755714.0825038-1.053744.2475138-.29803.1650101-.542837.3790042-.734428.641989-.191591.2629847-.332621.5646392-.423095.9049724-.090473.3403332-.135709.6806612-.135709 1.0209944 0 .3506464.045236.6935527.135709 1.0287293.090474.3351766.231504.6368311.423095.9049724s.436398.4847137.734428.6497237c.29803.1650101.649275.2475139 1.053744.2475139zm5.683834-6.8220995h1.708344v1.5469613h.031931c.05322-.2165756.156997-.4279916.311334-.6342541s.340603-.3944743.558804-.5646409.460347-.3068135.726445-.4099447c.266099-.1031313.537515-.1546962.814257-.1546962.212879 0 .359231.0051565.43906.0154696.07983.0103132.162319.0206261.247471.0309393v1.7016574c-.127728-.0206262-.258114-.0386739-.391163-.0541436s-.263435-.0232044-.391163-.0232044c-.308674 0-.598717.0592995-.870137.1779005-.271421.118601-.508245.2939215-.71048.5259669-.202234.2320453-.361891.5182303-.478974.8585635-.117084.3403332-.175624.7322261-.175624 1.1756906v3.8055249h-1.820105zm4.789748 0h1.373061v-2.39779h1.820104v2.39779h1.644481v1.3149171h-1.644481v4.2696133c0 .1856363.007983.3454874.023949.479558.015966.1340707.053219.2475134.111761.3403315s.146353.1624307.263436.2088398.27674.0696132.478975.0696132c.127727 0 .255452-.0025782.38318-.0077348.127727-.0051565.255452-.0232042.38318-.0541436v1.361326c-.202235.0206262-.399145.0412522-.590736.0618784-.191591.0206263-.388501.0309392-.590736.0309392-.478977 0-.864814-.0438301-1.157522-.1314917s-.521549-.2165737-.68653-.3867403c-.164982-.1701666-.276741-.3841608-.335283-.641989-.058541-.2578281-.093134-.5517479-.103778-.8817679v-4.7182321h-1.373061zm10.760967-3.0475138h2.107489l5.204859 8.1370166h.031932v-8.1370166h1.899933v11.0453039h-2.107489l-5.188893-8.121547h-.047898v8.121547h-1.899933zm15.135603 11.2618785c-.659924 0-1.247993-.105708-1.764224-.3171271s-.952625-.5027606-1.309197-.8740332c-.356572-.3712725-.627989-.8147304-.814257-1.3303867-.186269-.5156564-.279402-1.0828698-.279402-1.7016575 0-.6084745.093133-1.1705315.279402-1.6861878.186268-.5156564.457685-.9591142.814257-1.3303868.356572-.3712725.792966-.662614 1.309197-.8740331s1.1043-.3171271 1.764224-.3171271 1.247993.105708 1.764224.3171271.952626.5027606 1.309198.8740331c.356572.3712726.627988.8147304.814257 1.3303868.186269.5156563.279402 1.0777133.279402 1.6861878 0 .6187877-.093133 1.1860011-.279402 1.7016575-.186269.5156563-.457685.9591142-.814257 1.3303867-.356572.3712726-.792967.6626141-1.309198.8740332s-1.1043.3171271-1.764224.3171271zm0-1.3922652c.40447 0 .755714-.0825038 1.053745-.2475139.29803-.16501.542837-.3815824.734428-.6497237s.332621-.5697958.423094-.9049724c.090474-.3351766.13571-.6780829.13571-1.0287293 0-.3403332-.045236-.6806612-.13571-1.0209944-.090473-.3403332-.231503-.6419877-.423094-.9049724-.191591-.2629848-.436398-.4769789-.734428-.641989-.298031-.16501-.649275-.2475138-1.053745-.2475138-.404469 0-.755714.0825038-1.053744.2475138-.298031.1650101-.542837.3790042-.734428.641989-.191591.2629847-.332621.5646392-.423095.9049724-.090473.3403332-.135709.6806612-.135709 1.0209944 0 .3506464.045236.6935527.135709 1.0287293.090474.3351766.231504.6368311.423095.9049724s.436397.4847137.734428.6497237c.29803.1650101.649275.2475139 1.053744.2475139zm13.459192 1.1756906h-1.72431v-1.082873h-.031931c-.244811.4640908-.601377.7966841-1.069711.9977901-.468333.201106-.963269.3016575-1.484821.3016575-.649281 0-1.216062-.1108645-1.700361-.3325967-.484299-.2217323-.886102-.5233867-1.20542-.9049724s-.558803-.8327783-.718462-1.3535912-.239487-1.0802916-.239487-1.678453c0-.7219189.101115-1.3458537.30335-1.8718232s.47099-.9591143.806275-1.2994475c.335284-.3403332.71846-.5904228 1.149539-.7502763.431079-.1598534.870135-.239779 1.317181-.239779.255454 0 .516227.0232042.782325.0696133.266099.0464091.521549.1211781.76636.2243094.24481.1031312.470991.2346216.678547.3944751.207557.1598535.380519.3480652.51889.5646409h.031931v-4.0839779h1.820105zm-6.354399-3.9138122c0 .3403332.045236.6755048.135709 1.0055249.090474.33002.228843.6239398.415112.8817679.186269.2578282.423093.4640877.710479.6187846s.627987.2320442 1.021813.2320442c.40447 0 .753053-.0825038 1.045762-.2475139.292708-.16501.532193-.3815824.718462-.6497237s.324638-.5697958.415111-.9049724c.090474-.3351766.13571-.6780829.13571-1.0287293 0-.8869289-.204893-1.577898-.614685-2.0729281-.409791-.4950301-.965929-.7425415-1.668428-.7425415-.425758 0-.784985.085082-1.077694.2552486-.292708.1701666-.532193.3918955-.718462.6651934s-.319316.582687-.399146.9281768c-.079829.3454898-.119743.6987091-.119743 1.0596685zm14.002029-.7889503c-.021288-.2784544-.082489-.5465917-.183607-.8044199-.101117-.2578281-.239486-.4821353-.415111-.6729281-.175625-.1907929-.388501-.3454875-.638633-.4640884-.250133-.118601-.529532-.1779006-.838206-.1779006-.319318 0-.609361.0541431-.870138.162431-.260776.1082878-.484295.2578259-.670564.4486187-.186269.1907929-.335282.4151-.447043.6729282-.111762.2578282-.172964.5362785-.183607.8353591zm-4.246909 1.160221c0 .3093938.045236.60847.135709.8972376.090474.2887676.226182.5414354.407129.758011.180947.2165757.409788.389318.68653.5182321.276743.1289141.6067.1933702.989881.1933702.532197 0 .960609-.1108645 1.285249-.3325967.32464-.2217323.566786-.5543256.726445-.9977901h1.72431c-.095796.4331514-.260774.8198878-.494941 1.160221s-.516227.6265182-.846189.8585635c-.329962.2320454-.699833.4073659-1.109625.5259669-.409791.118601-.838203.1779006-1.285249.1779006-.64928 0-1.224044-.1031298-1.724309-.3093923-.500265-.2062626-.923355-.4950258-1.269283-.8662984-.345928-.3712725-.606701-.8147303-.782326-1.3303867-.175624-.5156563-.263436-1.0828698-.263436-1.7016575 0-.5672219.093133-1.1060747.279402-1.6165745s.452364-.9591141.798292-1.3458564.763696-.6935532 1.253317-.920442 1.043098-.3403315 1.660446-.3403315c.64928 0 1.232027.1314904 1.748258.3944752.516231.2629847.944643.6110475 1.285249 1.0441989.340606.4331513.588074.9307522.742411 1.4928176.154337.5620655.194251 1.1421702.119743 1.7403315z" fill="#4a4a4a"/></g><path d="m311 108h188v18h-188z" fill="#fff"/><text fill="#4a4a4a" font-family="LucidaGrande, Lucida Grande" font-size="13"><tspan x="343.686035" y="122">root,teleport,ops</tspan></text><path d="m311 237h188v18h-188z" fill="#fff"/><text fill="#4a4a4a" font-family="LucidaGrande, Lucida Grande" font-size="13"><tspan x="344.495361" y="251">root,tara,joe,ops</tspan></text><path d="m312 369h188v18h-188z" fill="#fff"/><text fill="#4a4a4a" font-family="LucidaGrande, Lucida Grande" font-size="13"><tspan x="344.495361" y="383">root,tara,teleport</tspan></text><g transform="translate(4 110)"><use fill="#000" filter="url(#h)" xlink:href="#g"/><use fill="#fff" fill-rule="evenodd" xlink:href="#g"/></g><g filter="url(#i)" transform="translate(18 134)"><path d="m10 1.5c-4.69442037 0-8.5 3.80557963-8.5 8.5v50c0 4.6944204 3.80557963 8.5 8.5 8.5h187c4.69442 0 8.5-3.8055796 8.5-8.5v-50c0-4.69442037-3.80558-8.5-8.5-8.5z" fill="#fff" stroke="#e1584e" stroke-width="3"/><path d="m52.785 28h9.57168v1.728h-3.75912v9.696h-2.07v-9.696h-3.74256zm14.72184 6.56c-.0220801-.2880014-.0855595-.565332-.19044-.832s-.2483991-.4986657-.43056-.696-.4029587-.3573327-.6624-.48-.5492384-.184-.8694-.184c-.3312017 0-.6320386.0559994-.90252.168s-.502319.2666657-.69552.464-.3477594.429332-.46368.696-.1793999.5546651-.19044.864zm-4.40496 1.2c0 .3200016.0469195.6293318.14076.928s.2345991.5599989.42228.784.4250386.402666.71208.536.629278.2 1.02672.2c.5520028 0 .9963583-.1146655 1.33308-.344s.5878792-.573331.75348-1.032h1.78848c-.0993605.4480022-.2704788.8479982-.51336 1.2s-.5354383.6479988-.87768.888-.7258779.4213327-1.15092.544-.8693977.184-1.33308.184c-.6734434 0-1.2695974-.1066656-1.78848-.32s-.9577182-.5119981-1.31652-.896-.6292791-.842664-.81144-1.376-.27324-1.1199968-.27324-1.76c0-.5866696.096599-1.1439974.2898-1.672s.4691982-.991998.828-1.392.7921175-.7173322 1.29996-.952 1.0819168-.352 1.72224-.352c.6734434 0 1.2778773.1359986 1.81332.408s.9797982.6319978 1.33308 1.08.6099592.9626638.77004 1.544.2014804 1.1813302.1242 1.8zm7.7832-7.76h1.88784v11.424h-1.88784zm9.82008 6.56c-.0220801-.2880014-.0855595-.565332-.19044-.832s-.2483991-.4986657-.43056-.696-.4029587-.3573327-.6624-.48-.5492384-.184-.8694-.184c-.3312017 0-.6320386.0559994-.90252.168s-.502319.2666657-.69552.464-.3477594.429332-.46368.696-.1793999.5546651-.19044.864zm-4.40496 1.2c0 .3200016.0469195.6293318.14076.928s.2345991.5599989.42228.784.4250386.402666.71208.536.629278.2 1.02672.2c.5520028 0 .9963583-.1146655 1.33308-.344s.5878792-.573331.75348-1.032h1.78848c-.0993605.4480022-.2704788.8479982-.51336 1.2s-.5354383.6479988-.87768.888-.7258779.4213327-1.15092.544-.8693977.184-1.33308.184c-.6734434 0-1.2695974-.1066656-1.78848-.32s-.9577182-.5119981-1.31652-.896-.6292791-.842664-.81144-1.376-.27324-1.1199968-.27324-1.76c0-.5866696.096599-1.1439974.2898-1.672s.4691982-.991998.828-1.392.7921175-.7173322 1.29996-.952 1.0819168-.352 1.72224-.352c.6734434 0 1.2778773.1359986 1.81332.408s.9797982.6319978 1.33308 1.08.6099592.9626638.77004 1.544.2014804 1.1813302.1242 1.8zm7.7832-4.608h1.78848v1.12h.03312c.2649613-.4800024.6347976-.823999 1.10952-1.032s.9880772-.312 1.54008-.312c.6734434 0 1.2613175.1146655 1.76364.344s.9190783.543998 1.25028.944.5795992.866664.7452 1.4.2484 1.103997.2484 1.712c0 .5546694-.0745193 1.0933307-.22356 1.616s-.3753585.984-.67896 1.384c-.3036015.400002-.6872377.7199988-1.15092.96s-1.0101569.36-1.63944.36c-.2760014 0-.5519986-.0239998-.828-.072s-.5409587-.1253328-.79488-.232-.4885189-.2426658-.7038-.408-.3946793-.3599989-.5382-.584h-.03312v4.128h-1.88784zm6.59088 4.144c0-.3733352-.0496795-.7359982-.14904-1.088s-.248399-.6639986-.44712-.936-.4471185-.4906658-.7452-.656-.6403181-.248-1.02672-.248c-.794884 0-1.393798.266664-1.79676.8s-.60444 1.2426622-.60444 2.128c0 .4160021.0524395.8026649.15732 1.16s.262199.6639987.47196.92.4609185.4586659.75348.608.6320381.224 1.01844.224c.4305622 0 .7948785-.0853325 1.09296-.256s.543719-.3919986.73692-.664.3311996-.5813316.414-.928.1242-.7013315.1242-1.064zm7.40232 4.352c-.6844834 0-1.2944373-.1093322-1.82988-.328s-.9880782-.5199981-1.35792-.904-.651359-.842664-.84456-1.376-.2898-1.1199968-.2898-1.76c0-.6293365.096599-1.210664.2898-1.744s.4747182-.9919981.84456-1.376.8224773-.6853322 1.35792-.904 1.1453966-.328 1.82988-.328 1.2944373.1093322 1.82988.328c.535443.2186678.988078.5199981 1.35792.904s.651359.842664.84456 1.376.2898 1.1146635.2898 1.744c0 .6400032-.096599 1.226664-.2898 1.76s-.474718.9919981-.84456 1.376-.822477.6853322-1.35792.904c-.5354427.2186678-1.1453966.328-1.82988.328zm0-1.44c.4195221 0 .7838385-.0853325 1.09296-.256s.563039-.3946653.76176-.672.345-.5893316.43884-.936.14076-.7013315.14076-1.064c0-.3520018-.04692-.7039982-.14076-1.056s-.240119-.6639986-.43884-.936-.4526385-.4933325-.76176-.664-.6734379-.256-1.09296-.256-.7838385.0853325-1.09296.256-.563039.3919986-.76176.664-.3449995.5839982-.43884.936-.14076.7039982-.14076 1.056c0 .3626685.0469195.7173316.14076 1.064s.240119.6586653.43884.936.4526385.5013325.76176.672.6734379.256 1.09296.256zm5.89536-7.056h1.77192v1.6h.03312c.0552-.2240011.162839-.4426656.32292-.656s.353279-.4079991.5796-.584.477479-.3173328.75348-.424.557519-.16.84456-.16c.220801 0 .3726.0053333.4554.016s.16836.0213333.25668.032v1.76c-.132481-.0213334-.267719-.0399999-.40572-.056s-.273239-.024-.40572-.024c-.320162 0-.620999.0613327-.90252.184s-.527159.3039988-.73692.544-.375359.5359982-.4968.888-.18216.757331-.18216 1.216v3.936h-1.88784zm4.968 0h1.42416v-2.48h1.88784v2.48h1.70568v1.36h-1.70568v4.416c0 .192001.00828.3573326.02484.496s.0552.2559995.11592.352.151799.1679998.27324.216.287039.072.4968.072c.132481 0 .264959-.0026666.39744-.008s.264959-.0239998.39744-.056v1.408c-.209761.0213334-.413999.0426666-.61272.064s-.402959.032-.61272.032c-.496802 0-.896998-.0453329-1.2006-.136s-.540959-.2239991-.71208-.4-.28704-.397332-.34776-.664-.0966-.570665-.10764-.912v-4.88h-1.42416zm14.4072-3.152h2.20248l4.554 11.424h-2.21904l-1.10952-3.024h-4.7196l-1.10952 3.024h-2.13624zm-.72864 6.88h3.61008l-1.77192-4.912h-.04968zm15.86448 4.544h-1.85472v-1.152h-.03312c-.231841.4160021-.576838.7493321-1.035 1s-.924598.376-1.39932.376c-1.126086 0-1.940277-.2693306-2.4426-.808s-.75348-1.3519946-.75348-2.44v-5.248h1.88784v5.072c0 .725337.143519 1.2373318.43056 1.536s.689997.448 1.20888.448c.397442 0 .728639-.0586661.9936-.176s.480239-.2746657.64584-.472.28428-.4346653.35604-.712.10764-.5759984.10764-.896v-4.8h1.88784zm1.12608-8.272h1.42416v-2.48h1.88784v2.48h1.70568v1.36h-1.70568v4.416c0 .192001.00828.3573326.02484.496s.0552.2559995.11592.352.151799.1679998.27324.216.287039.072.4968.072c.132481 0 .264959-.0026666.39744-.008s.264959-.0239998.39744-.056v1.408c-.209761.0213334-.413999.0426666-.61272.064s-.402959.032-.61272.032c-.496802 0-.896998-.0453329-1.2006-.136s-.540959-.2239991-.71208-.4-.28704-.397332-.34776-.664-.0966-.570665-.10764-.912v-4.88h-1.42416zm6.3756-3.152h1.88784v4.24h.03312c.231841-.3733352.576838-.6853321 1.035-.936s.968757-.376 1.5318-.376c.938405 0 1.678077.2346643 2.21904.704s.81144 1.1733286.81144 2.112v5.68h-1.88784v-5.2c-.02208-.6506699-.165599-1.1226652-.43056-1.416s-.678957-.44-1.242-.44c-.320162 0-.607199.0559994-.86112.168s-.469199.2666657-.64584.464-.31464.429332-.414.696-.14904.5493318-.14904.848v4.88h-1.88784z" fill="#4a4a4a"/></g><g transform="translate(22 208)"><use fill="#000" filter="url(#k)" xlink:href="#j"/><use fill="#fff" fill-rule="evenodd" xlink:href="#j"/><text fill="#4a4a4a" font-family="LucidaGrande, Lucida Grande" font-size="11"><tspan x="8.448276" y="17">Teleport User: login</tspan><tspan font-family="LucidaGrande-Bold, Lucida Grande" font-weight="bold" x="8.448276" y="30">joe : root, joe</tspan> <tspan font-family="LucidaGrande-Bold, Lucida Grande" font-weight="bold" x="8.448276" y="43">tara : tara</tspan> <tspan font-family="LucidaGrande-Bold, Lucida Grande" font-weight="bold" x="8.448276" y="56">teleport : teleport</tspan> <tspan font-family="LucidaGrande-Bold, Lucida Grande" font-weight="bold" x="8.448276" y="69">sandra : ops</tspan></text></g><g fill="#4a4a4a" font-family="LucidaGrande, Lucida Grande" font-size="11"><text><tspan x="383" y="75">grav-00</tspan></text><text><tspan x="383" y="211">grav-01</tspan></text><text><tspan x="386" y="340">grav-02</tspan></text></g></g></svg>