<?xml version="1.0" encoding="UTF-8"?>
<svg width="545px" height="411px" viewBox="0 0 545 411" version="1.1" xmlns="http://www.w3.org/2000/svg" xmlns:xlink="http://www.w3.org/1999/xlink">
    <!-- Generator: Sketch 59 (86127) - https://sketch.com -->
    <title>User Mapping</title>
    <desc>Created with Sketch.</desc>
    <defs>
        <rect id="path-1" x="274" y="2" width="267" height="132" rx="10"></rect>
        <filter x="-2.6%" y="-3.8%" width="105.2%" height="110.6%" filterUnits="objectBoundingBox" id="filter-2">
            <feOffset dx="0" dy="2" in="SourceAlpha" result="shadowOffsetOuter1"></feOffset>
            <feGaussianBlur stdDeviation="2" in="shadowOffsetOuter1" result="shadowBlurOuter1"></feGaussianBlur>
            <feColorMatrix values="0 0 0 0 0   0 0 0 0 0   0 0 0 0 0  0 0 0 0.5 0" type="matrix" in="shadowBlurOuter1"></feColorMatrix>
        </filter>
        <rect id="path-3" x="273" y="141" width="267" height="132" rx="10"></rect>
        <filter x="-2.6%" y="-3.8%" width="105.2%" height="110.6%" filterUnits="objectBoundingBox" id="filter-4">
            <feOffset dx="0" dy="2" in="SourceAlpha" result="shadowOffsetOuter1"></feOffset>
            <feGaussianBlur stdDeviation="2" in="shadowOffsetOuter1" result="shadowBlurOuter1"></feGaussianBlur>
            <feColorMatrix values="0 0 0 0 0   0 0 0 0 0   0 0 0 0 0  0 0 0 0.5 0" type="matrix" in="shadowBlurOuter1"></feColorMatrix>
        </filter>
        <rect id="path-5" x="273" y="281" width="267" height="120" rx="10"></rect>
        <filter x="-2.6%" y="-4.2%" width="105.2%" height="111.7%" filterUnits="objectBoundingBox" id="filter-6">
            <feOffset dx="0" dy="2" in="SourceAlpha" result="shadowOffsetOuter1"></feOffset>
            <feGaussianBlur stdDeviation="2" in="shadowOffsetOuter1" result="shadowBlurOuter1"></feGaussianBlur>
            <feColorMatrix values="0 0 0 0 0   0 0 0 0 0   0 0 0 0 0  0 0 0 0.5 0" type="matrix" in="shadowBlurOuter1"></feColorMatrix>
        </filter>
        <rect id="path-7" x="0" y="0" width="250" height="188" rx="10"></rect>
        <filter x="-2.8%" y="-2.7%" width="105.6%" height="107.4%" filterUnits="objectBoundingBox" id="filter-8">
            <feOffset dx="0" dy="2" in="SourceAlpha" result="shadowOffsetOuter1"></feOffset>
            <feGaussianBlur stdDeviation="2" in="shadowOffsetOuter1" result="shadowBlurOuter1"></feGaussianBlur>
            <feColorMatrix values="0 0 0 0 0   0 0 0 0 0   0 0 0 0 0  0 0 0 0.5 0" type="matrix" in="shadowBlurOuter1"></feColorMatrix>
        </filter>
        <filter x="-3.1%" y="-9.3%" width="106.3%" height="118.6%" filterUnits="objectBoundingBox" id="filter-9">
            <feOffset dx="0" dy="1" in="SourceAlpha" result="shadowOffsetOuter1"></feOffset>
            <feGaussianBlur stdDeviation="1" in="shadowOffsetOuter1" result="shadowBlurOuter1"></feGaussianBlur>
            <feColorMatrix values="0 0 0 0 0   0 0 0 0 0   0 0 0 0 0  0 0 0 0.5 0" type="matrix" in="shadowBlurOuter1" result="shadowMatrixOuter1"></feColorMatrix>
            <feMerge>
                <feMergeNode in="shadowMatrixOuter1"></feMergeNode>
                <feMergeNode in="SourceGraphic"></feMergeNode>
            </feMerge>
        </filter>
        <rect id="path-10" x="0" y="0" width="196" height="77"></rect>
        <filter x="-3.6%" y="-6.5%" width="107.1%" height="118.2%" filterUnits="objectBoundingBox" id="filter-11">
            <feOffset dx="0" dy="2" in="SourceAlpha" result="shadowOffsetOuter1"></feOffset>
            <feGaussianBlur stdDeviation="2" in="shadowOffsetOuter1" result="shadowBlurOuter1"></feGaussianBlur>
            <feColorMatrix values="0 0 0 0 0   0 0 0 0 0   0 0 0 0 0  0 0 0 0.5 0" type="matrix" in="shadowBlurOuter1"></feColorMatrix>
        </filter>
    </defs>
    <g id="User-Mapping" stroke="none" stroke-width="1" fill="none" fill-rule="evenodd">
        <g id="Rectangle">
            <use fill="black" fill-opacity="1" filter="url(#filter-2)" xlink:href="#path-1"></use>
            <use fill="#FFFFFF" fill-rule="evenodd" xlink:href="#path-1"></use>
        </g>
        <g id="Rectangle">
            <use fill="black" fill-opacity="1" filter="url(#filter-4)" xlink:href="#path-3"></use>
            <use fill="#FFFFFF" fill-rule="evenodd" xlink:href="#path-3"></use>
        </g>
        <g id="Rectangle">
            <use fill="black" fill-opacity="1" filter="url(#filter-6)" xlink:href="#path-5"></use>
            <use fill="#FFFFFF" fill-rule="evenodd" xlink:href="#path-5"></use>
        </g>
        <g id="teleport-node" transform="translate(291.000000, 21.000000)">
            <path d="M10,1.5 C5.30557963,1.5 1.5,5.30557963 1.5,10 L1.5,70 C1.5,74.6944204 5.30557963,78.5 10,78.5 L220,78.5 C224.69442,78.5 228.5,74.6944204 228.5,70 L228.5,10 C228.5,5.30557963 224.69442,1.5 220,1.5 L10,1.5 Z" id="Rectangle-17" stroke="#3662A2" stroke-width="3" fill="#FFFFFF"></path>
            <path d="M63,33 L72.2282475,33 L72.2282475,34.6707182 L68.604005,34.6707182 L68.604005,44.0453039 L66.6082767,44.0453039 L66.6082767,34.6707182 L63,34.6707182 L63,33 Z M77.1936194,39.3425414 C77.1723315,39.064087 77.1111298,38.7959497 77.0100124,38.5381215 C76.908895,38.2802934 76.7705259,38.0559862 76.5949009,37.8651934 C76.4192759,37.6744005 76.2064004,37.5197059 75.9562679,37.401105 C75.7061353,37.282504 75.4267362,37.2232044 75.118062,37.2232044 C74.7987439,37.2232044 74.5087009,37.2773475 74.2479245,37.3856354 C73.987148,37.4939232 73.7636287,37.6434613 73.5773598,37.8342541 C73.3910909,38.025047 73.242078,38.2493541 73.1303167,38.5071823 C73.0185553,38.7650105 72.9573536,39.0434608 72.9467097,39.3425414 L77.1936194,39.3425414 Z M72.9467097,40.5027624 C72.9467097,40.8121562 72.9919457,41.1112324 73.0824192,41.4 C73.1728926,41.6887676 73.3086008,41.9414354 73.4895477,42.158011 C73.6704947,42.3745867 73.8993359,42.547329 74.1760783,42.6762431 C74.4528206,42.8051572 74.7827777,42.8696133 75.1659595,42.8696133 C75.6981563,42.8696133 76.1265684,42.7587488 76.4512085,42.5370166 C76.7758486,42.3152843 77.0179945,41.982691 77.1776536,41.5392265 L78.9019628,41.5392265 C78.8061673,41.9723779 78.6411888,42.3591143 78.4070222,42.6994475 C78.1728556,43.0397807 77.8907954,43.3259657 77.5608334,43.558011 C77.2308713,43.7900564 76.8610001,43.9653769 76.4512085,44.0839779 C76.0414169,44.2025789 75.6130048,44.2618785 75.1659595,44.2618785 C74.5166793,44.2618785 73.9419153,44.1587487 73.4416503,43.9524862 C72.9413852,43.7462236 72.518295,43.4574604 72.1723671,43.0861878 C71.8264391,42.7149153 71.5656666,42.2714575 71.3900416,41.7558011 C71.2144166,41.2401448 71.1266055,40.6729313 71.1266055,40.0541436 C71.1266055,39.4869217 71.2197385,38.9480689 71.4060074,38.4375691 C71.5922763,37.9270693 71.8583708,37.478455 72.2042987,37.0917127 C72.5502267,36.7049704 72.967995,36.3981595 73.4576161,36.1712707 C73.9472372,35.9443819 74.5007136,35.8309392 75.118062,35.8309392 C75.7673422,35.8309392 76.350089,35.9624296 76.86632,36.2254144 C77.3825509,36.4883991 77.810963,36.8364619 78.151569,37.2696133 C78.4921749,37.7027646 78.7396428,38.2003655 78.8939799,38.7624309 C79.048317,39.3244964 79.0882311,39.9046011 79.0137236,40.5027624 L72.9467097,40.5027624 Z M80.4506479,33 L82.2707521,33 L82.2707521,44.0453039 L80.4506479,44.0453039 L80.4506479,33 Z M89.9183828,39.3425414 C89.8970949,39.064087 89.8358932,38.7959497 89.7347758,38.5381215 C89.6336584,38.2802934 89.4952893,38.0559862 89.3196643,37.8651934 C89.1440393,37.6744005 88.9311638,37.5197059 88.6810313,37.401105 C88.4308987,37.282504 88.1514996,37.2232044 87.8428254,37.2232044 C87.5235073,37.2232044 87.2334643,37.2773475 86.9726879,37.3856354 C86.7119114,37.4939232 86.4883921,37.6434613 86.3021232,37.8342541 C86.1158543,38.025047 85.9668414,38.2493541 85.85508,38.5071823 C85.7433187,38.7650105 85.682117,39.0434608 85.671473,39.3425414 L89.9183828,39.3425414 Z M85.671473,40.5027624 C85.671473,40.8121562 85.7167091,41.1112324 85.8071826,41.4 C85.897656,41.6887676 86.0333642,41.9414354 86.2143111,42.158011 C86.3952581,42.3745867 86.6240993,42.547329 86.9008417,42.6762431 C87.177584,42.8051572 87.5075411,42.8696133 87.8907229,42.8696133 C88.4229197,42.8696133 88.8513318,42.7587488 89.1759719,42.5370166 C89.500612,42.3152843 89.7427579,41.982691 89.902417,41.5392265 L91.6267262,41.5392265 C91.5309307,41.9723779 91.3659522,42.3591143 91.1317856,42.6994475 C90.8976189,43.0397807 90.6155588,43.3259657 90.2855968,43.558011 C89.9556347,43.7900564 89.5857635,43.9653769 89.1759719,44.0839779 C88.7661803,44.2025789 88.3377682,44.2618785 87.8907229,44.2618785 C87.2414427,44.2618785 86.6666787,44.1587487 86.1664137,43.9524862 C85.6661486,43.7462236 85.2430584,43.4574604 84.8971305,43.0861878 C84.5512025,42.7149153 84.29043,42.2714575 84.114805,41.7558011 C83.93918,41.2401448 83.8513689,40.6729313 83.8513689,40.0541436 C83.8513689,39.4869217 83.9445019,38.9480689 84.1307708,38.4375691 C84.3170397,37.9270693 84.5831342,37.478455 84.9290621,37.0917127 C85.2749901,36.7049704 85.6927584,36.3981595 86.1823795,36.1712707 C86.6720006,35.9443819 87.225477,35.8309392 87.8428254,35.8309392 C88.4921056,35.8309392 89.0748524,35.9624296 89.5910833,36.2254144 C90.1073143,36.4883991 90.5357264,36.8364619 90.8763323,37.2696133 C91.2169383,37.7027646 91.4644062,38.2003655 91.6187433,38.7624309 C91.7730804,39.3244964 91.8129945,39.9046011 91.738487,40.5027624 L85.671473,40.5027624 Z M93.1754113,36.0475138 L94.8997205,36.0475138 L94.8997205,37.1303867 L94.9316522,37.1303867 C95.1871067,36.666296 95.5436732,36.3337027 96.0013625,36.1325967 C96.4590518,35.9314907 96.9539875,35.8309392 97.4861843,35.8309392 C98.1354645,35.8309392 98.7022457,35.9418037 99.1865448,36.1635359 C99.670844,36.3852681 100.072647,36.6895008 100.391965,37.0762431 C100.711283,37.4629854 100.950768,37.9141779 101.110427,38.4298343 C101.270086,38.9454906 101.349914,39.4972346 101.349914,40.0850829 C101.349914,40.6213655 101.278069,41.1421706 101.134376,41.6475138 C100.990682,42.152857 100.772485,42.5988931 100.479777,42.9856354 C100.187068,43.3723776 99.8171972,43.6817668 99.3701518,43.9138122 C98.9231065,44.1458575 98.3962395,44.2618785 97.789535,44.2618785 C97.5234366,44.2618785 97.2573422,44.2386743 96.9912437,44.1922652 C96.7251453,44.1458561 96.4696946,44.0710871 96.2248841,43.9679558 C95.9800735,43.8648245 95.7538933,43.7333341 95.5463365,43.5734807 C95.3387797,43.4136272 95.1658183,43.2254154 95.0274471,43.0088398 L94.9955155,43.0088398 L94.9955155,47 L93.1754113,47 L93.1754113,36.0475138 Z M99.5298101,40.0541436 C99.5298101,39.6931842 99.4819131,39.3425431 99.3861177,39.0022099 C99.2903222,38.6618768 99.1466312,38.3602223 98.9550403,38.0972376 C98.7634495,37.8342528 98.5239645,37.6228369 98.2365782,37.4629834 C97.9491919,37.30313 97.6192348,37.2232044 97.246697,37.2232044 C96.4803335,37.2232044 95.9029085,37.4810287 95.5144048,37.9966851 C95.1259011,38.5123414 94.9316522,39.1981541 94.9316522,40.0541436 C94.9316522,40.4563556 94.9822101,40.8302009 95.0833275,41.1756906 C95.1844449,41.5211804 95.3361188,41.8176783 95.5383536,42.0651934 C95.7405884,42.3127084 95.9827343,42.5086549 96.2647987,42.6530387 C96.546863,42.7974225 96.8741592,42.8696133 97.246697,42.8696133 C97.6618105,42.8696133 98.0130552,42.7871095 98.3004415,42.6220994 C98.5878278,42.4570894 98.8246518,42.2430952 99.0109207,41.9801105 C99.1971896,41.7171258 99.3302369,41.4180496 99.4100664,41.0828729 C99.4898959,40.7476963 99.5298101,40.40479 99.5298101,40.0541436 Z M106.666534,44.2618785 C106.00661,44.2618785 105.418542,44.1561705 104.902311,43.9447514 C104.38608,43.7333323 103.949685,43.4419908 103.593113,43.0707182 C103.236541,42.6994457 102.965125,42.2559878 102.778856,41.7403315 C102.592587,41.2246751 102.499454,40.6574617 102.499454,40.038674 C102.499454,39.4301995 102.592587,38.8681425 102.778856,38.3524862 C102.965125,37.8368298 103.236541,37.393372 103.593113,37.0220994 C103.949685,36.6508269 104.38608,36.3594854 104.902311,36.1480663 C105.418542,35.9366472 106.00661,35.8309392 106.666534,35.8309392 C107.326458,35.8309392 107.914527,35.9366472 108.430758,36.1480663 C108.946989,36.3594854 109.383384,36.6508269 109.739956,37.0220994 C110.096528,37.393372 110.367944,37.8368298 110.554213,38.3524862 C110.740482,38.8681425 110.833615,39.4301995 110.833615,40.038674 C110.833615,40.6574617 110.740482,41.2246751 110.554213,41.7403315 C110.367944,42.2559878 110.096528,42.6994457 109.739956,43.0707182 C109.383384,43.4419908 108.946989,43.7333323 108.430758,43.9447514 C107.914527,44.1561705 107.326458,44.2618785 106.666534,44.2618785 Z M106.666534,42.8696133 C107.071004,42.8696133 107.422249,42.7871095 107.720279,42.6220994 C108.018309,42.4570894 108.263116,42.240517 108.454707,41.9723757 C108.646298,41.7042344 108.787328,41.4025799 108.877801,41.0674033 C108.968275,40.7322267 109.013511,40.3893204 109.013511,40.038674 C109.013511,39.6983408 108.968275,39.3580128 108.877801,39.0176796 C108.787328,38.6773464 108.646298,38.3756919 108.454707,38.1127072 C108.263116,37.8497224 108.018309,37.6357283 107.720279,37.4707182 C107.422249,37.3057082 107.071004,37.2232044 106.666534,37.2232044 C106.262065,37.2232044 105.91082,37.3057082 105.61279,37.4707182 C105.31476,37.6357283 105.069953,37.8497224 104.878362,38.1127072 C104.686771,38.3756919 104.545741,38.6773464 104.455267,39.0176796 C104.364794,39.3580128 104.319558,39.6983408 104.319558,40.038674 C104.319558,40.3893204 104.364794,40.7322267 104.455267,41.0674033 C104.545741,41.4025799 104.686771,41.7042344 104.878362,41.9723757 C105.069953,42.240517 105.31476,42.4570894 105.61279,42.6220994 C105.91082,42.7871095 106.262065,42.8696133 106.666534,42.8696133 Z M112.350368,36.0475138 L114.058712,36.0475138 L114.058712,37.5944751 L114.090643,37.5944751 C114.143863,37.3778995 114.24764,37.1664835 114.401977,36.960221 C114.556314,36.7539585 114.74258,36.5657467 114.960781,36.3955801 C115.178982,36.2254135 115.421128,36.0887666 115.687226,35.9856354 C115.953325,35.8825041 116.224741,35.8309392 116.501483,35.8309392 C116.714362,35.8309392 116.860714,35.8360957 116.940543,35.8464088 C117.020373,35.856722 117.102862,35.8670349 117.188014,35.8773481 L117.188014,37.5790055 C117.060286,37.5583793 116.9299,37.5403316 116.796851,37.5248619 C116.663802,37.5093922 116.533416,37.5016575 116.405688,37.5016575 C116.097014,37.5016575 115.806971,37.560957 115.535551,37.679558 C115.26413,37.798159 115.027306,37.9734795 114.825071,38.2055249 C114.622837,38.4375702 114.46318,38.7237552 114.346097,39.0640884 C114.229013,39.4044216 114.170473,39.7963145 114.170473,40.239779 L114.170473,44.0453039 L112.350368,44.0453039 L112.350368,36.0475138 Z M117.140116,36.0475138 L118.513177,36.0475138 L118.513177,33.6497238 L120.333281,33.6497238 L120.333281,36.0475138 L121.977762,36.0475138 L121.977762,37.3624309 L120.333281,37.3624309 L120.333281,41.6320442 C120.333281,41.8176805 120.341264,41.9775316 120.35723,42.1116022 C120.373196,42.2456729 120.410449,42.3591156 120.468991,42.4519337 C120.527533,42.5447518 120.615344,42.6143644 120.732427,42.6607735 C120.84951,42.7071826 121.009167,42.7303867 121.211402,42.7303867 C121.339129,42.7303867 121.466854,42.7278085 121.594582,42.7226519 C121.722309,42.7174954 121.850034,42.6994477 121.977762,42.6685083 L121.977762,44.0298343 C121.775527,44.0504605 121.578617,44.0710865 121.387026,44.0917127 C121.195435,44.112339 120.998525,44.1226519 120.79629,44.1226519 C120.317313,44.1226519 119.931476,44.0788218 119.638768,43.9911602 C119.34606,43.9034986 119.117219,43.7745865 118.952238,43.6044199 C118.787256,43.4342533 118.675497,43.2202591 118.616955,42.9624309 C118.558414,42.7046028 118.523821,42.410683 118.513177,42.080663 L118.513177,37.3624309 L117.140116,37.3624309 L117.140116,36.0475138 Z M127.901083,33 L130.008572,33 L135.213431,41.1370166 L135.245363,41.1370166 L135.245363,33 L137.145296,33 L137.145296,44.0453039 L135.037807,44.0453039 L129.848914,35.9237569 L129.801016,35.9237569 L129.801016,44.0453039 L127.901083,44.0453039 L127.901083,33 Z M143.036686,44.2618785 C142.376762,44.2618785 141.788693,44.1561705 141.272462,43.9447514 C140.756231,43.7333323 140.319837,43.4419908 139.963265,43.0707182 C139.606693,42.6994457 139.335276,42.2559878 139.149008,41.7403315 C138.962739,41.2246751 138.869606,40.6574617 138.869606,40.038674 C138.869606,39.4301995 138.962739,38.8681425 139.149008,38.3524862 C139.335276,37.8368298 139.606693,37.393372 139.963265,37.0220994 C140.319837,36.6508269 140.756231,36.3594854 141.272462,36.1480663 C141.788693,35.9366472 142.376762,35.8309392 143.036686,35.8309392 C143.69661,35.8309392 144.284679,35.9366472 144.80091,36.1480663 C145.317141,36.3594854 145.753536,36.6508269 146.110108,37.0220994 C146.46668,37.393372 146.738096,37.8368298 146.924365,38.3524862 C147.110634,38.8681425 147.203767,39.4301995 147.203767,40.038674 C147.203767,40.6574617 147.110634,41.2246751 146.924365,41.7403315 C146.738096,42.2559878 146.46668,42.6994457 146.110108,43.0707182 C145.753536,43.4419908 145.317141,43.7333323 144.80091,43.9447514 C144.284679,44.1561705 143.69661,44.2618785 143.036686,44.2618785 Z M143.036686,42.8696133 C143.441156,42.8696133 143.7924,42.7871095 144.090431,42.6220994 C144.388461,42.4570894 144.633268,42.240517 144.824859,41.9723757 C145.01645,41.7042344 145.15748,41.4025799 145.247953,41.0674033 C145.338427,40.7322267 145.383663,40.3893204 145.383663,40.038674 C145.383663,39.6983408 145.338427,39.3580128 145.247953,39.0176796 C145.15748,38.6773464 145.01645,38.3756919 144.824859,38.1127072 C144.633268,37.8497224 144.388461,37.6357283 144.090431,37.4707182 C143.7924,37.3057082 143.441156,37.2232044 143.036686,37.2232044 C142.632217,37.2232044 142.280972,37.3057082 141.982942,37.4707182 C141.684911,37.6357283 141.440105,37.8497224 141.248514,38.1127072 C141.056923,38.3756919 140.915893,38.6773464 140.825419,39.0176796 C140.734946,39.3580128 140.68971,39.6983408 140.68971,40.038674 C140.68971,40.3893204 140.734946,40.7322267 140.825419,41.0674033 C140.915893,41.4025799 141.056923,41.7042344 141.248514,41.9723757 C141.440105,42.240517 141.684911,42.4570894 141.982942,42.6220994 C142.280972,42.7871095 142.632217,42.8696133 143.036686,42.8696133 Z M156.495878,44.0453039 L154.771568,44.0453039 L154.771568,42.9624309 L154.739637,42.9624309 C154.494826,43.4265217 154.13826,43.759115 153.669926,43.960221 C153.201593,44.161327 152.706657,44.2618785 152.185105,44.2618785 C151.535824,44.2618785 150.969043,44.151014 150.484744,43.9292818 C150.000445,43.7075495 149.598642,43.4058951 149.279324,43.0243094 C148.960006,42.6427237 148.720521,42.1915311 148.560862,41.6707182 C148.401203,41.1499053 148.321375,40.5904266 148.321375,39.9922652 C148.321375,39.2703463 148.42249,38.6464115 148.624725,38.120442 C148.82696,37.5944725 149.095715,37.1613277 149.431,36.8209945 C149.766284,36.4806613 150.14946,36.2305717 150.580539,36.0707182 C151.011618,35.9108648 151.450674,35.8309392 151.89772,35.8309392 C152.153174,35.8309392 152.413947,35.8541434 152.680045,35.9005525 C152.946144,35.9469616 153.201594,36.0217306 153.446405,36.1248619 C153.691215,36.2279931 153.917396,36.3594835 154.124952,36.519337 C154.332509,36.6791905 154.505471,36.8674022 154.643842,37.0839779 L154.675773,37.0839779 L154.675773,33 L156.495878,33 L156.495878,44.0453039 Z M150.141479,40.1314917 C150.141479,40.4718249 150.186715,40.8069965 150.277188,41.1370166 C150.367662,41.4670366 150.506031,41.7609564 150.6923,42.0187845 C150.878569,42.2766127 151.115393,42.4828722 151.402779,42.6375691 C151.690165,42.792266 152.030766,42.8696133 152.424592,42.8696133 C152.829062,42.8696133 153.177645,42.7871095 153.470354,42.6220994 C153.763062,42.4570894 154.002547,42.240517 154.188816,41.9723757 C154.375085,41.7042344 154.513454,41.4025799 154.603927,41.0674033 C154.694401,40.7322267 154.739637,40.3893204 154.739637,40.038674 C154.739637,39.1517451 154.534744,38.460776 154.124952,37.9657459 C153.715161,37.4707158 153.159023,37.2232044 152.456524,37.2232044 C152.030766,37.2232044 151.671539,37.3082864 151.37883,37.478453 C151.086122,37.6486196 150.846637,37.8703485 150.660368,38.1436464 C150.474099,38.4169443 150.341052,38.7263334 150.261222,39.0718232 C150.181393,39.417313 150.141479,39.7705323 150.141479,40.1314917 Z M164.143508,39.3425414 C164.12222,39.064087 164.061019,38.7959497 163.959901,38.5381215 C163.858784,38.2802934 163.720415,38.0559862 163.54479,37.8651934 C163.369165,37.6744005 163.156289,37.5197059 162.906157,37.401105 C162.656024,37.282504 162.376625,37.2232044 162.067951,37.2232044 C161.748633,37.2232044 161.45859,37.2773475 161.197813,37.3856354 C160.937037,37.4939232 160.713518,37.6434613 160.527249,37.8342541 C160.34098,38.025047 160.191967,38.2493541 160.080206,38.5071823 C159.968444,38.7650105 159.907242,39.0434608 159.896599,39.3425414 L164.143508,39.3425414 Z M159.896599,40.5027624 C159.896599,40.8121562 159.941835,41.1112324 160.032308,41.4 C160.122782,41.6887676 160.25849,41.9414354 160.439437,42.158011 C160.620384,42.3745867 160.849225,42.547329 161.125967,42.6762431 C161.40271,42.8051572 161.732667,42.8696133 162.115848,42.8696133 C162.648045,42.8696133 163.076457,42.7587488 163.401097,42.5370166 C163.725737,42.3152843 163.967883,41.982691 164.127542,41.5392265 L165.851852,41.5392265 C165.756056,41.9723779 165.591078,42.3591143 165.356911,42.6994475 C165.122744,43.0397807 164.840684,43.3259657 164.510722,43.558011 C164.18076,43.7900564 163.810889,43.9653769 163.401097,44.0839779 C162.991306,44.2025789 162.562894,44.2618785 162.115848,44.2618785 C161.466568,44.2618785 160.891804,44.1587487 160.391539,43.9524862 C159.891274,43.7462236 159.468184,43.4574604 159.122256,43.0861878 C158.776328,42.7149153 158.515555,42.2714575 158.33993,41.7558011 C158.164306,41.2401448 158.076494,40.6729313 158.076494,40.0541436 C158.076494,39.4869217 158.169627,38.9480689 158.355896,38.4375691 C158.542165,37.9270693 158.80826,37.478455 159.154188,37.0917127 C159.500116,36.7049704 159.917884,36.3981595 160.407505,36.1712707 C160.897126,35.9443819 161.450603,35.8309392 162.067951,35.8309392 C162.717231,35.8309392 163.299978,35.9624296 163.816209,36.2254144 C164.33244,36.4883991 164.760852,36.8364619 165.101458,37.2696133 C165.442064,37.7027646 165.689532,38.2003655 165.843869,38.7624309 C165.998206,39.3244964 166.03812,39.9046011 165.963612,40.5027624 L159.896599,40.5027624 Z" id="Teleport-Node" fill="#4A4A4A"></path>
        </g>
        <g id="teleport-node" transform="translate(291.000000, 153.000000)">
            <path d="M10,1.5 C5.30557963,1.5 1.5,5.30557963 1.5,10 L1.5,70 C1.5,74.6944204 5.30557963,78.5 10,78.5 L220,78.5 C224.69442,78.5 228.5,74.6944204 228.5,70 L228.5,10 C228.5,5.30557963 224.69442,1.5 220,1.5 L10,1.5 Z" id="Rectangle-17" stroke="#3662A2" stroke-width="3" fill="#FFFFFF"></path>
            <path d="M63,33 L72.2282475,33 L72.2282475,34.6707182 L68.604005,34.6707182 L68.604005,44.0453039 L66.6082767,44.0453039 L66.6082767,34.6707182 L63,34.6707182 L63,33 Z M77.1936194,39.3425414 C77.1723315,39.064087 77.1111298,38.7959497 77.0100124,38.5381215 C76.908895,38.2802934 76.7705259,38.0559862 76.5949009,37.8651934 C76.4192759,37.6744005 76.2064004,37.5197059 75.9562679,37.401105 C75.7061353,37.282504 75.4267362,37.2232044 75.118062,37.2232044 C74.7987439,37.2232044 74.5087009,37.2773475 74.2479245,37.3856354 C73.987148,37.4939232 73.7636287,37.6434613 73.5773598,37.8342541 C73.3910909,38.025047 73.242078,38.2493541 73.1303167,38.5071823 C73.0185553,38.7650105 72.9573536,39.0434608 72.9467097,39.3425414 L77.1936194,39.3425414 Z M72.9467097,40.5027624 C72.9467097,40.8121562 72.9919457,41.1112324 73.0824192,41.4 C73.1728926,41.6887676 73.3086008,41.9414354 73.4895477,42.158011 C73.6704947,42.3745867 73.8993359,42.547329 74.1760783,42.6762431 C74.4528206,42.8051572 74.7827777,42.8696133 75.1659595,42.8696133 C75.6981563,42.8696133 76.1265684,42.7587488 76.4512085,42.5370166 C76.7758486,42.3152843 77.0179945,41.982691 77.1776536,41.5392265 L78.9019628,41.5392265 C78.8061673,41.9723779 78.6411888,42.3591143 78.4070222,42.6994475 C78.1728556,43.0397807 77.8907954,43.3259657 77.5608334,43.558011 C77.2308713,43.7900564 76.8610001,43.9653769 76.4512085,44.0839779 C76.0414169,44.2025789 75.6130048,44.2618785 75.1659595,44.2618785 C74.5166793,44.2618785 73.9419153,44.1587487 73.4416503,43.9524862 C72.9413852,43.7462236 72.518295,43.4574604 72.1723671,43.0861878 C71.8264391,42.7149153 71.5656666,42.2714575 71.3900416,41.7558011 C71.2144166,41.2401448 71.1266055,40.6729313 71.1266055,40.0541436 C71.1266055,39.4869217 71.2197385,38.9480689 71.4060074,38.4375691 C71.5922763,37.9270693 71.8583708,37.478455 72.2042987,37.0917127 C72.5502267,36.7049704 72.967995,36.3981595 73.4576161,36.1712707 C73.9472372,35.9443819 74.5007136,35.8309392 75.118062,35.8309392 C75.7673422,35.8309392 76.350089,35.9624296 76.86632,36.2254144 C77.3825509,36.4883991 77.810963,36.8364619 78.151569,37.2696133 C78.4921749,37.7027646 78.7396428,38.2003655 78.8939799,38.7624309 C79.048317,39.3244964 79.0882311,39.9046011 79.0137236,40.5027624 L72.9467097,40.5027624 Z M80.4506479,33 L82.2707521,33 L82.2707521,44.0453039 L80.4506479,44.0453039 L80.4506479,33 Z M89.9183828,39.3425414 C89.8970949,39.064087 89.8358932,38.7959497 89.7347758,38.5381215 C89.6336584,38.2802934 89.4952893,38.0559862 89.3196643,37.8651934 C89.1440393,37.6744005 88.9311638,37.5197059 88.6810313,37.401105 C88.4308987,37.282504 88.1514996,37.2232044 87.8428254,37.2232044 C87.5235073,37.2232044 87.2334643,37.2773475 86.9726879,37.3856354 C86.7119114,37.4939232 86.4883921,37.6434613 86.3021232,37.8342541 C86.1158543,38.025047 85.9668414,38.2493541 85.85508,38.5071823 C85.7433187,38.7650105 85.682117,39.0434608 85.671473,39.3425414 L89.9183828,39.3425414 Z M85.671473,40.5027624 C85.671473,40.8121562 85.7167091,41.1112324 85.8071826,41.4 C85.897656,41.6887676 86.0333642,41.9414354 86.2143111,42.158011 C86.3952581,42.3745867 86.6240993,42.547329 86.9008417,42.6762431 C87.177584,42.8051572 87.5075411,42.8696133 87.8907229,42.8696133 C88.4229197,42.8696133 88.8513318,42.7587488 89.1759719,42.5370166 C89.500612,42.3152843 89.7427579,41.982691 89.902417,41.5392265 L91.6267262,41.5392265 C91.5309307,41.9723779 91.3659522,42.3591143 91.1317856,42.6994475 C90.8976189,43.0397807 90.6155588,43.3259657 90.2855968,43.558011 C89.9556347,43.7900564 89.5857635,43.9653769 89.1759719,44.0839779 C88.7661803,44.2025789 88.3377682,44.2618785 87.8907229,44.2618785 C87.2414427,44.2618785 86.6666787,44.1587487 86.1664137,43.9524862 C85.6661486,43.7462236 85.2430584,43.4574604 84.8971305,43.0861878 C84.5512025,42.7149153 84.29043,42.2714575 84.114805,41.7558011 C83.93918,41.2401448 83.8513689,40.6729313 83.8513689,40.0541436 C83.8513689,39.4869217 83.9445019,38.9480689 84.1307708,38.4375691 C84.3170397,37.9270693 84.5831342,37.478455 84.9290621,37.0917127 C85.2749901,36.7049704 85.6927584,36.3981595 86.1823795,36.1712707 C86.6720006,35.9443819 87.225477,35.8309392 87.8428254,35.8309392 C88.4921056,35.8309392 89.0748524,35.9624296 89.5910833,36.2254144 C90.1073143,36.4883991 90.5357264,36.8364619 90.8763323,37.2696133 C91.2169383,37.7027646 91.4644062,38.2003655 91.6187433,38.7624309 C91.7730804,39.3244964 91.8129945,39.9046011 91.738487,40.5027624 L85.671473,40.5027624 Z M93.1754113,36.0475138 L94.8997205,36.0475138 L94.8997205,37.1303867 L94.9316522,37.1303867 C95.1871067,36.666296 95.5436732,36.3337027 96.0013625,36.1325967 C96.4590518,35.9314907 96.9539875,35.8309392 97.4861843,35.8309392 C98.1354645,35.8309392 98.7022457,35.9418037 99.1865448,36.1635359 C99.670844,36.3852681 100.072647,36.6895008 100.391965,37.0762431 C100.711283,37.4629854 100.950768,37.9141779 101.110427,38.4298343 C101.270086,38.9454906 101.349914,39.4972346 101.349914,40.0850829 C101.349914,40.6213655 101.278069,41.1421706 101.134376,41.6475138 C100.990682,42.152857 100.772485,42.5988931 100.479777,42.9856354 C100.187068,43.3723776 99.8171972,43.6817668 99.3701518,43.9138122 C98.9231065,44.1458575 98.3962395,44.2618785 97.789535,44.2618785 C97.5234366,44.2618785 97.2573422,44.2386743 96.9912437,44.1922652 C96.7251453,44.1458561 96.4696946,44.0710871 96.2248841,43.9679558 C95.9800735,43.8648245 95.7538933,43.7333341 95.5463365,43.5734807 C95.3387797,43.4136272 95.1658183,43.2254154 95.0274471,43.0088398 L94.9955155,43.0088398 L94.9955155,47 L93.1754113,47 L93.1754113,36.0475138 Z M99.5298101,40.0541436 C99.5298101,39.6931842 99.4819131,39.3425431 99.3861177,39.0022099 C99.2903222,38.6618768 99.1466312,38.3602223 98.9550403,38.0972376 C98.7634495,37.8342528 98.5239645,37.6228369 98.2365782,37.4629834 C97.9491919,37.30313 97.6192348,37.2232044 97.246697,37.2232044 C96.4803335,37.2232044 95.9029085,37.4810287 95.5144048,37.9966851 C95.1259011,38.5123414 94.9316522,39.1981541 94.9316522,40.0541436 C94.9316522,40.4563556 94.9822101,40.8302009 95.0833275,41.1756906 C95.1844449,41.5211804 95.3361188,41.8176783 95.5383536,42.0651934 C95.7405884,42.3127084 95.9827343,42.5086549 96.2647987,42.6530387 C96.546863,42.7974225 96.8741592,42.8696133 97.246697,42.8696133 C97.6618105,42.8696133 98.0130552,42.7871095 98.3004415,42.6220994 C98.5878278,42.4570894 98.8246518,42.2430952 99.0109207,41.9801105 C99.1971896,41.7171258 99.3302369,41.4180496 99.4100664,41.0828729 C99.4898959,40.7476963 99.5298101,40.40479 99.5298101,40.0541436 Z M106.666534,44.2618785 C106.00661,44.2618785 105.418542,44.1561705 104.902311,43.9447514 C104.38608,43.7333323 103.949685,43.4419908 103.593113,43.0707182 C103.236541,42.6994457 102.965125,42.2559878 102.778856,41.7403315 C102.592587,41.2246751 102.499454,40.6574617 102.499454,40.038674 C102.499454,39.4301995 102.592587,38.8681425 102.778856,38.3524862 C102.965125,37.8368298 103.236541,37.393372 103.593113,37.0220994 C103.949685,36.6508269 104.38608,36.3594854 104.902311,36.1480663 C105.418542,35.9366472 106.00661,35.8309392 106.666534,35.8309392 C107.326458,35.8309392 107.914527,35.9366472 108.430758,36.1480663 C108.946989,36.3594854 109.383384,36.6508269 109.739956,37.0220994 C110.096528,37.393372 110.367944,37.8368298 110.554213,38.3524862 C110.740482,38.8681425 110.833615,39.4301995 110.833615,40.038674 C110.833615,40.6574617 110.740482,41.2246751 110.554213,41.7403315 C110.367944,42.2559878 110.096528,42.6994457 109.739956,43.0707182 C109.383384,43.4419908 108.946989,43.7333323 108.430758,43.9447514 C107.914527,44.1561705 107.326458,44.2618785 106.666534,44.2618785 Z M106.666534,42.8696133 C107.071004,42.8696133 107.422249,42.7871095 107.720279,42.6220994 C108.018309,42.4570894 108.263116,42.240517 108.454707,41.9723757 C108.646298,41.7042344 108.787328,41.4025799 108.877801,41.0674033 C108.968275,40.7322267 109.013511,40.3893204 109.013511,40.038674 C109.013511,39.6983408 108.968275,39.3580128 108.877801,39.0176796 C108.787328,38.6773464 108.646298,38.3756919 108.454707,38.1127072 C108.263116,37.8497224 108.018309,37.6357283 107.720279,37.4707182 C107.422249,37.3057082 107.071004,37.2232044 106.666534,37.2232044 C106.262065,37.2232044 105.91082,37.3057082 105.61279,37.4707182 C105.31476,37.6357283 105.069953,37.8497224 104.878362,38.1127072 C104.686771,38.3756919 104.545741,38.6773464 104.455267,39.0176796 C104.364794,39.3580128 104.319558,39.6983408 104.319558,40.038674 C104.319558,40.3893204 104.364794,40.7322267 104.455267,41.0674033 C104.545741,41.4025799 104.686771,41.7042344 104.878362,41.9723757 C105.069953,42.240517 105.31476,42.4570894 105.61279,42.6220994 C105.91082,42.7871095 106.262065,42.8696133 106.666534,42.8696133 Z M112.350368,36.0475138 L114.058712,36.0475138 L114.058712,37.5944751 L114.090643,37.5944751 C114.143863,37.3778995 114.24764,37.1664835 114.401977,36.960221 C114.556314,36.7539585 114.74258,36.5657467 114.960781,36.3955801 C115.178982,36.2254135 115.421128,36.0887666 115.687226,35.9856354 C115.953325,35.8825041 116.224741,35.8309392 116.501483,35.8309392 C116.714362,35.8309392 116.860714,35.8360957 116.940543,35.8464088 C117.020373,35.856722 117.102862,35.8670349 117.188014,35.8773481 L117.188014,37.5790055 C117.060286,37.5583793 116.9299,37.5403316 116.796851,37.5248619 C116.663802,37.5093922 116.533416,37.5016575 116.405688,37.5016575 C116.097014,37.5016575 115.806971,37.560957 115.535551,37.679558 C115.26413,37.798159 115.027306,37.9734795 114.825071,38.2055249 C114.622837,38.4375702 114.46318,38.7237552 114.346097,39.0640884 C114.229013,39.4044216 114.170473,39.7963145 114.170473,40.239779 L114.170473,44.0453039 L112.350368,44.0453039 L112.350368,36.0475138 Z M117.140116,36.0475138 L118.513177,36.0475138 L118.513177,33.6497238 L120.333281,33.6497238 L120.333281,36.0475138 L121.977762,36.0475138 L121.977762,37.3624309 L120.333281,37.3624309 L120.333281,41.6320442 C120.333281,41.8176805 120.341264,41.9775316 120.35723,42.1116022 C120.373196,42.2456729 120.410449,42.3591156 120.468991,42.4519337 C120.527533,42.5447518 120.615344,42.6143644 120.732427,42.6607735 C120.84951,42.7071826 121.009167,42.7303867 121.211402,42.7303867 C121.339129,42.7303867 121.466854,42.7278085 121.594582,42.7226519 C121.722309,42.7174954 121.850034,42.6994477 121.977762,42.6685083 L121.977762,44.0298343 C121.775527,44.0504605 121.578617,44.0710865 121.387026,44.0917127 C121.195435,44.112339 120.998525,44.1226519 120.79629,44.1226519 C120.317313,44.1226519 119.931476,44.0788218 119.638768,43.9911602 C119.34606,43.9034986 119.117219,43.7745865 118.952238,43.6044199 C118.787256,43.4342533 118.675497,43.2202591 118.616955,42.9624309 C118.558414,42.7046028 118.523821,42.410683 118.513177,42.080663 L118.513177,37.3624309 L117.140116,37.3624309 L117.140116,36.0475138 Z M127.901083,33 L130.008572,33 L135.213431,41.1370166 L135.245363,41.1370166 L135.245363,33 L137.145296,33 L137.145296,44.0453039 L135.037807,44.0453039 L129.848914,35.9237569 L129.801016,35.9237569 L129.801016,44.0453039 L127.901083,44.0453039 L127.901083,33 Z M143.036686,44.2618785 C142.376762,44.2618785 141.788693,44.1561705 141.272462,43.9447514 C140.756231,43.7333323 140.319837,43.4419908 139.963265,43.0707182 C139.606693,42.6994457 139.335276,42.2559878 139.149008,41.7403315 C138.962739,41.2246751 138.869606,40.6574617 138.869606,40.038674 C138.869606,39.4301995 138.962739,38.8681425 139.149008,38.3524862 C139.335276,37.8368298 139.606693,37.393372 139.963265,37.0220994 C140.319837,36.6508269 140.756231,36.3594854 141.272462,36.1480663 C141.788693,35.9366472 142.376762,35.8309392 143.036686,35.8309392 C143.69661,35.8309392 144.284679,35.9366472 144.80091,36.1480663 C145.317141,36.3594854 145.753536,36.6508269 146.110108,37.0220994 C146.46668,37.393372 146.738096,37.8368298 146.924365,38.3524862 C147.110634,38.8681425 147.203767,39.4301995 147.203767,40.038674 C147.203767,40.6574617 147.110634,41.2246751 146.924365,41.7403315 C146.738096,42.2559878 146.46668,42.6994457 146.110108,43.0707182 C145.753536,43.4419908 145.317141,43.7333323 144.80091,43.9447514 C144.284679,44.1561705 143.69661,44.2618785 143.036686,44.2618785 Z M143.036686,42.8696133 C143.441156,42.8696133 143.7924,42.7871095 144.090431,42.6220994 C144.388461,42.4570894 144.633268,42.240517 144.824859,41.9723757 C145.01645,41.7042344 145.15748,41.4025799 145.247953,41.0674033 C145.338427,40.7322267 145.383663,40.3893204 145.383663,40.038674 C145.383663,39.6983408 145.338427,39.3580128 145.247953,39.0176796 C145.15748,38.6773464 145.01645,38.3756919 144.824859,38.1127072 C144.633268,37.8497224 144.388461,37.6357283 144.090431,37.4707182 C143.7924,37.3057082 143.441156,37.2232044 143.036686,37.2232044 C142.632217,37.2232044 142.280972,37.3057082 141.982942,37.4707182 C141.684911,37.6357283 141.440105,37.8497224 141.248514,38.1127072 C141.056923,38.3756919 140.915893,38.6773464 140.825419,39.0176796 C140.734946,39.3580128 140.68971,39.6983408 140.68971,40.038674 C140.68971,40.3893204 140.734946,40.7322267 140.825419,41.0674033 C140.915893,41.4025799 141.056923,41.7042344 141.248514,41.9723757 C141.440105,42.240517 141.684911,42.4570894 141.982942,42.6220994 C142.280972,42.7871095 142.632217,42.8696133 143.036686,42.8696133 Z M156.495878,44.0453039 L154.771568,44.0453039 L154.771568,42.9624309 L154.739637,42.9624309 C154.494826,43.4265217 154.13826,43.759115 153.669926,43.960221 C153.201593,44.161327 152.706657,44.2618785 152.185105,44.2618785 C151.535824,44.2618785 150.969043,44.151014 150.484744,43.9292818 C150.000445,43.7075495 149.598642,43.4058951 149.279324,43.0243094 C148.960006,42.6427237 148.720521,42.1915311 148.560862,41.6707182 C148.401203,41.1499053 148.321375,40.5904266 148.321375,39.9922652 C148.321375,39.2703463 148.42249,38.6464115 148.624725,38.120442 C148.82696,37.5944725 149.095715,37.1613277 149.431,36.8209945 C149.766284,36.4806613 150.14946,36.2305717 150.580539,36.0707182 C151.011618,35.9108648 151.450674,35.8309392 151.89772,35.8309392 C152.153174,35.8309392 152.413947,35.8541434 152.680045,35.9005525 C152.946144,35.9469616 153.201594,36.0217306 153.446405,36.1248619 C153.691215,36.2279931 153.917396,36.3594835 154.124952,36.519337 C154.332509,36.6791905 154.505471,36.8674022 154.643842,37.0839779 L154.675773,37.0839779 L154.675773,33 L156.495878,33 L156.495878,44.0453039 Z M150.141479,40.1314917 C150.141479,40.4718249 150.186715,40.8069965 150.277188,41.1370166 C150.367662,41.4670366 150.506031,41.7609564 150.6923,42.0187845 C150.878569,42.2766127 151.115393,42.4828722 151.402779,42.6375691 C151.690165,42.792266 152.030766,42.8696133 152.424592,42.8696133 C152.829062,42.8696133 153.177645,42.7871095 153.470354,42.6220994 C153.763062,42.4570894 154.002547,42.240517 154.188816,41.9723757 C154.375085,41.7042344 154.513454,41.4025799 154.603927,41.0674033 C154.694401,40.7322267 154.739637,40.3893204 154.739637,40.038674 C154.739637,39.1517451 154.534744,38.460776 154.124952,37.9657459 C153.715161,37.4707158 153.159023,37.2232044 152.456524,37.2232044 C152.030766,37.2232044 151.671539,37.3082864 151.37883,37.478453 C151.086122,37.6486196 150.846637,37.8703485 150.660368,38.1436464 C150.474099,38.4169443 150.341052,38.7263334 150.261222,39.0718232 C150.181393,39.417313 150.141479,39.7705323 150.141479,40.1314917 Z M164.143508,39.3425414 C164.12222,39.064087 164.061019,38.7959497 163.959901,38.5381215 C163.858784,38.2802934 163.720415,38.0559862 163.54479,37.8651934 C163.369165,37.6744005 163.156289,37.5197059 162.906157,37.401105 C162.656024,37.282504 162.376625,37.2232044 162.067951,37.2232044 C161.748633,37.2232044 161.45859,37.2773475 161.197813,37.3856354 C160.937037,37.4939232 160.713518,37.6434613 160.527249,37.8342541 C160.34098,38.025047 160.191967,38.2493541 160.080206,38.5071823 C159.968444,38.7650105 159.907242,39.0434608 159.896599,39.3425414 L164.143508,39.3425414 Z M159.896599,40.5027624 C159.896599,40.8121562 159.941835,41.1112324 160.032308,41.4 C160.122782,41.6887676 160.25849,41.9414354 160.439437,42.158011 C160.620384,42.3745867 160.849225,42.547329 161.125967,42.6762431 C161.40271,42.8051572 161.732667,42.8696133 162.115848,42.8696133 C162.648045,42.8696133 163.076457,42.7587488 163.401097,42.5370166 C163.725737,42.3152843 163.967883,41.982691 164.127542,41.5392265 L165.851852,41.5392265 C165.756056,41.9723779 165.591078,42.3591143 165.356911,42.6994475 C165.122744,43.0397807 164.840684,43.3259657 164.510722,43.558011 C164.18076,43.7900564 163.810889,43.9653769 163.401097,44.0839779 C162.991306,44.2025789 162.562894,44.2618785 162.115848,44.2618785 C161.466568,44.2618785 160.891804,44.1587487 160.391539,43.9524862 C159.891274,43.7462236 159.468184,43.4574604 159.122256,43.0861878 C158.776328,42.7149153 158.515555,42.2714575 158.33993,41.7558011 C158.164306,41.2401448 158.076494,40.6729313 158.076494,40.0541436 C158.076494,39.4869217 158.169627,38.9480689 158.355896,38.4375691 C158.542165,37.9270693 158.80826,37.478455 159.154188,37.0917127 C159.500116,36.7049704 159.917884,36.3981595 160.407505,36.1712707 C160.897126,35.9443819 161.450603,35.8309392 162.067951,35.8309392 C162.717231,35.8309392 163.299978,35.9624296 163.816209,36.2254144 C164.33244,36.4883991 164.760852,36.8364619 165.101458,37.2696133 C165.442064,37.7027646 165.689532,38.2003655 165.843869,38.7624309 C165.998206,39.3244964 166.03812,39.9046011 165.963612,40.5027624 L159.896599,40.5027624 Z" id="Teleport-Node" fill="#4A4A4A"></path>
        </g>
        <g id="teleport-node" transform="translate(291.000000, 285.000000)">
            <path d="M10,1.5 C5.30557963,1.5 1.5,5.30557963 1.5,10 L1.5,70 C1.5,74.6944204 5.30557963,78.5 10,78.5 L220,78.5 C224.69442,78.5 228.5,74.6944204 228.5,70 L228.5,10 C228.5,5.30557963 224.69442,1.5 220,1.5 L10,1.5 Z" id="Rectangle-17" stroke="#3662A2" stroke-width="3" fill="#FFFFFF"></path>
            <path d="M63,33 L72.2282475,33 L72.2282475,34.6707182 L68.604005,34.6707182 L68.604005,44.0453039 L66.6082767,44.0453039 L66.6082767,34.6707182 L63,34.6707182 L63,33 Z M77.1936194,39.3425414 C77.1723315,39.064087 77.1111298,38.7959497 77.0100124,38.5381215 C76.908895,38.2802934 76.7705259,38.0559862 76.5949009,37.8651934 C76.4192759,37.6744005 76.2064004,37.5197059 75.9562679,37.401105 C75.7061353,37.282504 75.4267362,37.2232044 75.118062,37.2232044 C74.7987439,37.2232044 74.5087009,37.2773475 74.2479245,37.3856354 C73.987148,37.4939232 73.7636287,37.6434613 73.5773598,37.8342541 C73.3910909,38.025047 73.242078,38.2493541 73.1303167,38.5071823 C73.0185553,38.7650105 72.9573536,39.0434608 72.9467097,39.3425414 L77.1936194,39.3425414 Z M72.9467097,40.5027624 C72.9467097,40.8121562 72.9919457,41.1112324 73.0824192,41.4 C73.1728926,41.6887676 73.3086008,41.9414354 73.4895477,42.158011 C73.6704947,42.3745867 73.8993359,42.547329 74.1760783,42.6762431 C74.4528206,42.8051572 74.7827777,42.8696133 75.1659595,42.8696133 C75.6981563,42.8696133 76.1265684,42.7587488 76.4512085,42.5370166 C76.7758486,42.3152843 77.0179945,41.982691 77.1776536,41.5392265 L78.9019628,41.5392265 C78.8061673,41.9723779 78.6411888,42.3591143 78.4070222,42.6994475 C78.1728556,43.0397807 77.8907954,43.3259657 77.5608334,43.558011 C77.2308713,43.7900564 76.8610001,43.9653769 76.4512085,44.0839779 C76.0414169,44.2025789 75.6130048,44.2618785 75.1659595,44.2618785 C74.5166793,44.2618785 73.9419153,44.1587487 73.4416503,43.9524862 C72.9413852,43.7462236 72.518295,43.4574604 72.1723671,43.0861878 C71.8264391,42.7149153 71.5656666,42.2714575 71.3900416,41.7558011 C71.2144166,41.2401448 71.1266055,40.6729313 71.1266055,40.0541436 C71.1266055,39.4869217 71.2197385,38.9480689 71.4060074,38.4375691 C71.5922763,37.9270693 71.8583708,37.478455 72.2042987,37.0917127 C72.5502267,36.7049704 72.967995,36.3981595 73.4576161,36.1712707 C73.9472372,35.9443819 74.5007136,35.8309392 75.118062,35.8309392 C75.7673422,35.8309392 76.350089,35.9624296 76.86632,36.2254144 C77.3825509,36.4883991 77.810963,36.8364619 78.151569,37.2696133 C78.4921749,37.7027646 78.7396428,38.2003655 78.8939799,38.7624309 C79.048317,39.3244964 79.0882311,39.9046011 79.0137236,40.5027624 L72.9467097,40.5027624 Z M80.4506479,33 L82.2707521,33 L82.2707521,44.0453039 L80.4506479,44.0453039 L80.4506479,33 Z M89.9183828,39.3425414 C89.8970949,39.064087 89.8358932,38.7959497 89.7347758,38.5381215 C89.6336584,38.2802934 89.4952893,38.0559862 89.3196643,37.8651934 C89.1440393,37.6744005 88.9311638,37.5197059 88.6810313,37.401105 C88.4308987,37.282504 88.1514996,37.2232044 87.8428254,37.2232044 C87.5235073,37.2232044 87.2334643,37.2773475 86.9726879,37.3856354 C86.7119114,37.4939232 86.4883921,37.6434613 86.3021232,37.8342541 C86.1158543,38.025047 85.9668414,38.2493541 85.85508,38.5071823 C85.7433187,38.7650105 85.682117,39.0434608 85.671473,39.3425414 L89.9183828,39.3425414 Z M85.671473,40.5027624 C85.671473,40.8121562 85.7167091,41.1112324 85.8071826,41.4 C85.897656,41.6887676 86.0333642,41.9414354 86.2143111,42.158011 C86.3952581,42.3745867 86.6240993,42.547329 86.9008417,42.6762431 C87.177584,42.8051572 87.5075411,42.8696133 87.8907229,42.8696133 C88.4229197,42.8696133 88.8513318,42.7587488 89.1759719,42.5370166 C89.500612,42.3152843 89.7427579,41.982691 89.902417,41.5392265 L91.6267262,41.5392265 C91.5309307,41.9723779 91.3659522,42.3591143 91.1317856,42.6994475 C90.8976189,43.0397807 90.6155588,43.3259657 90.2855968,43.558011 C89.9556347,43.7900564 89.5857635,43.9653769 89.1759719,44.0839779 C88.7661803,44.2025789 88.3377682,44.2618785 87.8907229,44.2618785 C87.2414427,44.2618785 86.6666787,44.1587487 86.1664137,43.9524862 C85.6661486,43.7462236 85.2430584,43.4574604 84.8971305,43.0861878 C84.5512025,42.7149153 84.29043,42.2714575 84.114805,41.7558011 C83.93918,41.2401448 83.8513689,40.6729313 83.8513689,40.0541436 C83.8513689,39.4869217 83.9445019,38.9480689 84.1307708,38.4375691 C84.3170397,37.9270693 84.5831342,37.478455 84.9290621,37.0917127 C85.2749901,36.7049704 85.6927584,36.3981595 86.1823795,36.1712707 C86.6720006,35.9443819 87.225477,35.8309392 87.8428254,35.8309392 C88.4921056,35.8309392 89.0748524,35.9624296 89.5910833,36.2254144 C90.1073143,36.4883991 90.5357264,36.8364619 90.8763323,37.2696133 C91.2169383,37.7027646 91.4644062,38.2003655 91.6187433,38.7624309 C91.7730804,39.3244964 91.8129945,39.9046011 91.738487,40.5027624 L85.671473,40.5027624 Z M93.1754113,36.0475138 L94.8997205,36.0475138 L94.8997205,37.1303867 L94.9316522,37.1303867 C95.1871067,36.666296 95.5436732,36.3337027 96.0013625,36.1325967 C96.4590518,35.9314907 96.9539875,35.8309392 97.4861843,35.8309392 C98.1354645,35.8309392 98.7022457,35.9418037 99.1865448,36.1635359 C99.670844,36.3852681 100.072647,36.6895008 100.391965,37.0762431 C100.711283,37.4629854 100.950768,37.9141779 101.110427,38.4298343 C101.270086,38.9454906 101.349914,39.4972346 101.349914,40.0850829 C101.349914,40.6213655 101.278069,41.1421706 101.134376,41.6475138 C100.990682,42.152857 100.772485,42.5988931 100.479777,42.9856354 C100.187068,43.3723776 99.8171972,43.6817668 99.3701518,43.9138122 C98.9231065,44.1458575 98.3962395,44.2618785 97.789535,44.2618785 C97.5234366,44.2618785 97.2573422,44.2386743 96.9912437,44.1922652 C96.7251453,44.1458561 96.4696946,44.0710871 96.2248841,43.9679558 C95.9800735,43.8648245 95.7538933,43.7333341 95.5463365,43.5734807 C95.3387797,43.4136272 95.1658183,43.2254154 95.0274471,43.0088398 L94.9955155,43.0088398 L94.9955155,47 L93.1754113,47 L93.1754113,36.0475138 Z M99.5298101,40.0541436 C99.5298101,39.6931842 99.4819131,39.3425431 99.3861177,39.0022099 C99.2903222,38.6618768 99.1466312,38.3602223 98.9550403,38.0972376 C98.7634495,37.8342528 98.5239645,37.6228369 98.2365782,37.4629834 C97.9491919,37.30313 97.6192348,37.2232044 97.246697,37.2232044 C96.4803335,37.2232044 95.9029085,37.4810287 95.5144048,37.9966851 C95.1259011,38.5123414 94.9316522,39.1981541 94.9316522,40.0541436 C94.9316522,40.4563556 94.9822101,40.8302009 95.0833275,41.1756906 C95.1844449,41.5211804 95.3361188,41.8176783 95.5383536,42.0651934 C95.7405884,42.3127084 95.9827343,42.5086549 96.2647987,42.6530387 C96.546863,42.7974225 96.8741592,42.8696133 97.246697,42.8696133 C97.6618105,42.8696133 98.0130552,42.7871095 98.3004415,42.6220994 C98.5878278,42.4570894 98.8246518,42.2430952 99.0109207,41.9801105 C99.1971896,41.7171258 99.3302369,41.4180496 99.4100664,41.0828729 C99.4898959,40.7476963 99.5298101,40.40479 99.5298101,40.0541436 Z M106.666534,44.2618785 C106.00661,44.2618785 105.418542,44.1561705 104.902311,43.9447514 C104.38608,43.7333323 103.949685,43.4419908 103.593113,43.0707182 C103.236541,42.6994457 102.965125,42.2559878 102.778856,41.7403315 C102.592587,41.2246751 102.499454,40.6574617 102.499454,40.038674 C102.499454,39.4301995 102.592587,38.8681425 102.778856,38.3524862 C102.965125,37.8368298 103.236541,37.393372 103.593113,37.0220994 C103.949685,36.6508269 104.38608,36.3594854 104.902311,36.1480663 C105.418542,35.9366472 106.00661,35.8309392 106.666534,35.8309392 C107.326458,35.8309392 107.914527,35.9366472 108.430758,36.1480663 C108.946989,36.3594854 109.383384,36.6508269 109.739956,37.0220994 C110.096528,37.393372 110.367944,37.8368298 110.554213,38.3524862 C110.740482,38.8681425 110.833615,39.4301995 110.833615,40.038674 C110.833615,40.6574617 110.740482,41.2246751 110.554213,41.7403315 C110.367944,42.2559878 110.096528,42.6994457 109.739956,43.0707182 C109.383384,43.4419908 108.946989,43.7333323 108.430758,43.9447514 C107.914527,44.1561705 107.326458,44.2618785 106.666534,44.2618785 Z M106.666534,42.8696133 C107.071004,42.8696133 107.422249,42.7871095 107.720279,42.6220994 C108.018309,42.4570894 108.263116,42.240517 108.454707,41.9723757 C108.646298,41.7042344 108.787328,41.4025799 108.877801,41.0674033 C108.968275,40.7322267 109.013511,40.3893204 109.013511,40.038674 C109.013511,39.6983408 108.968275,39.3580128 108.877801,39.0176796 C108.787328,38.6773464 108.646298,38.3756919 108.454707,38.1127072 C108.263116,37.8497224 108.018309,37.6357283 107.720279,37.4707182 C107.422249,37.3057082 107.071004,37.2232044 106.666534,37.2232044 C106.262065,37.2232044 105.91082,37.3057082 105.61279,37.4707182 C105.31476,37.6357283 105.069953,37.8497224 104.878362,38.1127072 C104.686771,38.3756919 104.545741,38.6773464 104.455267,39.0176796 C104.364794,39.3580128 104.319558,39.6983408 104.319558,40.038674 C104.319558,40.3893204 104.364794,40.7322267 104.455267,41.0674033 C104.545741,41.4025799 104.686771,41.7042344 104.878362,41.9723757 C105.069953,42.240517 105.31476,42.4570894 105.61279,42.6220994 C105.91082,42.7871095 106.262065,42.8696133 106.666534,42.8696133 Z M112.350368,36.0475138 L114.058712,36.0475138 L114.058712,37.5944751 L114.090643,37.5944751 C114.143863,37.3778995 114.24764,37.1664835 114.401977,36.960221 C114.556314,36.7539585 114.74258,36.5657467 114.960781,36.3955801 C115.178982,36.2254135 115.421128,36.0887666 115.687226,35.9856354 C115.953325,35.8825041 116.224741,35.8309392 116.501483,35.8309392 C116.714362,35.8309392 116.860714,35.8360957 116.940543,35.8464088 C117.020373,35.856722 117.102862,35.8670349 117.188014,35.8773481 L117.188014,37.5790055 C117.060286,37.5583793 116.9299,37.5403316 116.796851,37.5248619 C116.663802,37.5093922 116.533416,37.5016575 116.405688,37.5016575 C116.097014,37.5016575 115.806971,37.560957 115.535551,37.679558 C115.26413,37.798159 115.027306,37.9734795 114.825071,38.2055249 C114.622837,38.4375702 114.46318,38.7237552 114.346097,39.0640884 C114.229013,39.4044216 114.170473,39.7963145 114.170473,40.239779 L114.170473,44.0453039 L112.350368,44.0453039 L112.350368,36.0475138 Z M117.140116,36.0475138 L118.513177,36.0475138 L118.513177,33.6497238 L120.333281,33.6497238 L120.333281,36.0475138 L121.977762,36.0475138 L121.977762,37.3624309 L120.333281,37.3624309 L120.333281,41.6320442 C120.333281,41.8176805 120.341264,41.9775316 120.35723,42.1116022 C120.373196,42.2456729 120.410449,42.3591156 120.468991,42.4519337 C120.527533,42.5447518 120.615344,42.6143644 120.732427,42.6607735 C120.84951,42.7071826 121.009167,42.7303867 121.211402,42.7303867 C121.339129,42.7303867 121.466854,42.7278085 121.594582,42.7226519 C121.722309,42.7174954 121.850034,42.6994477 121.977762,42.6685083 L121.977762,44.0298343 C121.775527,44.0504605 121.578617,44.0710865 121.387026,44.0917127 C121.195435,44.112339 120.998525,44.1226519 120.79629,44.1226519 C120.317313,44.1226519 119.931476,44.0788218 119.638768,43.9911602 C119.34606,43.9034986 119.117219,43.7745865 118.952238,43.6044199 C118.787256,43.4342533 118.675497,43.2202591 118.616955,42.9624309 C118.558414,42.7046028 118.523821,42.410683 118.513177,42.080663 L118.513177,37.3624309 L117.140116,37.3624309 L117.140116,36.0475138 Z M127.901083,33 L130.008572,33 L135.213431,41.1370166 L135.245363,41.1370166 L135.245363,33 L137.145296,33 L137.145296,44.0453039 L135.037807,44.0453039 L129.848914,35.9237569 L129.801016,35.9237569 L129.801016,44.0453039 L127.901083,44.0453039 L127.901083,33 Z M143.036686,44.2618785 C142.376762,44.2618785 141.788693,44.1561705 141.272462,43.9447514 C140.756231,43.7333323 140.319837,43.4419908 139.963265,43.0707182 C139.606693,42.6994457 139.335276,42.2559878 139.149008,41.7403315 C138.962739,41.2246751 138.869606,40.6574617 138.869606,40.038674 C138.869606,39.4301995 138.962739,38.8681425 139.149008,38.3524862 C139.335276,37.8368298 139.606693,37.393372 139.963265,37.0220994 C140.319837,36.6508269 140.756231,36.3594854 141.272462,36.1480663 C141.788693,35.9366472 142.376762,35.8309392 143.036686,35.8309392 C143.69661,35.8309392 144.284679,35.9366472 144.80091,36.1480663 C145.317141,36.3594854 145.753536,36.6508269 146.110108,37.0220994 C146.46668,37.393372 146.738096,37.8368298 146.924365,38.3524862 C147.110634,38.8681425 147.203767,39.4301995 147.203767,40.038674 C147.203767,40.6574617 147.110634,41.2246751 146.924365,41.7403315 C146.738096,42.2559878 146.46668,42.6994457 146.110108,43.0707182 C145.753536,43.4419908 145.317141,43.7333323 144.80091,43.9447514 C144.284679,44.1561705 143.69661,44.2618785 143.036686,44.2618785 Z M143.036686,42.8696133 C143.441156,42.8696133 143.7924,42.7871095 144.090431,42.6220994 C144.388461,42.4570894 144.633268,42.240517 144.824859,41.9723757 C145.01645,41.7042344 145.15748,41.4025799 145.247953,41.0674033 C145.338427,40.7322267 145.383663,40.3893204 145.383663,40.038674 C145.383663,39.6983408 145.338427,39.3580128 145.247953,39.0176796 C145.15748,38.6773464 145.01645,38.3756919 144.824859,38.1127072 C144.633268,37.8497224 144.388461,37.6357283 144.090431,37.4707182 C143.7924,37.3057082 143.441156,37.2232044 143.036686,37.2232044 C142.632217,37.2232044 142.280972,37.3057082 141.982942,37.4707182 C141.684911,37.6357283 141.440105,37.8497224 141.248514,38.1127072 C141.056923,38.3756919 140.915893,38.6773464 140.825419,39.0176796 C140.734946,39.3580128 140.68971,39.6983408 140.68971,40.038674 C140.68971,40.3893204 140.734946,40.7322267 140.825419,41.0674033 C140.915893,41.4025799 141.056923,41.7042344 141.248514,41.9723757 C141.440105,42.240517 141.684911,42.4570894 141.982942,42.6220994 C142.280972,42.7871095 142.632217,42.8696133 143.036686,42.8696133 Z M156.495878,44.0453039 L154.771568,44.0453039 L154.771568,42.9624309 L154.739637,42.9624309 C154.494826,43.4265217 154.13826,43.759115 153.669926,43.960221 C153.201593,44.161327 152.706657,44.2618785 152.185105,44.2618785 C151.535824,44.2618785 150.969043,44.151014 150.484744,43.9292818 C150.000445,43.7075495 149.598642,43.4058951 149.279324,43.0243094 C148.960006,42.6427237 148.720521,42.1915311 148.560862,41.6707182 C148.401203,41.1499053 148.321375,40.5904266 148.321375,39.9922652 C148.321375,39.2703463 148.42249,38.6464115 148.624725,38.120442 C148.82696,37.5944725 149.095715,37.1613277 149.431,36.8209945 C149.766284,36.4806613 150.14946,36.2305717 150.580539,36.0707182 C151.011618,35.9108648 151.450674,35.8309392 151.89772,35.8309392 C152.153174,35.8309392 152.413947,35.8541434 152.680045,35.9005525 C152.946144,35.9469616 153.201594,36.0217306 153.446405,36.1248619 C153.691215,36.2279931 153.917396,36.3594835 154.124952,36.519337 C154.332509,36.6791905 154.505471,36.8674022 154.643842,37.0839779 L154.675773,37.0839779 L154.675773,33 L156.495878,33 L156.495878,44.0453039 Z M150.141479,40.1314917 C150.141479,40.4718249 150.186715,40.8069965 150.277188,41.1370166 C150.367662,41.4670366 150.506031,41.7609564 150.6923,42.0187845 C150.878569,42.2766127 151.115393,42.4828722 151.402779,42.6375691 C151.690165,42.792266 152.030766,42.8696133 152.424592,42.8696133 C152.829062,42.8696133 153.177645,42.7871095 153.470354,42.6220994 C153.763062,42.4570894 154.002547,42.240517 154.188816,41.9723757 C154.375085,41.7042344 154.513454,41.4025799 154.603927,41.0674033 C154.694401,40.7322267 154.739637,40.3893204 154.739637,40.038674 C154.739637,39.1517451 154.534744,38.460776 154.124952,37.9657459 C153.715161,37.4707158 153.159023,37.2232044 152.456524,37.2232044 C152.030766,37.2232044 151.671539,37.3082864 151.37883,37.478453 C151.086122,37.6486196 150.846637,37.8703485 150.660368,38.1436464 C150.474099,38.4169443 150.341052,38.7263334 150.261222,39.0718232 C150.181393,39.417313 150.141479,39.7705323 150.141479,40.1314917 Z M164.143508,39.3425414 C164.12222,39.064087 164.061019,38.7959497 163.959901,38.5381215 C163.858784,38.2802934 163.720415,38.0559862 163.54479,37.8651934 C163.369165,37.6744005 163.156289,37.5197059 162.906157,37.401105 C162.656024,37.282504 162.376625,37.2232044 162.067951,37.2232044 C161.748633,37.2232044 161.45859,37.2773475 161.197813,37.3856354 C160.937037,37.4939232 160.713518,37.6434613 160.527249,37.8342541 C160.34098,38.025047 160.191967,38.2493541 160.080206,38.5071823 C159.968444,38.7650105 159.907242,39.0434608 159.896599,39.3425414 L164.143508,39.3425414 Z M159.896599,40.5027624 C159.896599,40.8121562 159.941835,41.1112324 160.032308,41.4 C160.122782,41.6887676 160.25849,41.9414354 160.439437,42.158011 C160.620384,42.3745867 160.849225,42.547329 161.125967,42.6762431 C161.40271,42.8051572 161.732667,42.8696133 162.115848,42.8696133 C162.648045,42.8696133 163.076457,42.7587488 163.401097,42.5370166 C163.725737,42.3152843 163.967883,41.982691 164.127542,41.5392265 L165.851852,41.5392265 C165.756056,41.9723779 165.591078,42.3591143 165.356911,42.6994475 C165.122744,43.0397807 164.840684,43.3259657 164.510722,43.558011 C164.18076,43.7900564 163.810889,43.9653769 163.401097,44.0839779 C162.991306,44.2025789 162.562894,44.2618785 162.115848,44.2618785 C161.466568,44.2618785 160.891804,44.1587487 160.391539,43.9524862 C159.891274,43.7462236 159.468184,43.4574604 159.122256,43.0861878 C158.776328,42.7149153 158.515555,42.2714575 158.33993,41.7558011 C158.164306,41.2401448 158.076494,40.6729313 158.076494,40.0541436 C158.076494,39.4869217 158.169627,38.9480689 158.355896,38.4375691 C158.542165,37.9270693 158.80826,37.478455 159.154188,37.0917127 C159.500116,36.7049704 159.917884,36.3981595 160.407505,36.1712707 C160.897126,35.9443819 161.450603,35.8309392 162.067951,35.8309392 C162.717231,35.8309392 163.299978,35.9624296 163.816209,36.2254144 C164.33244,36.4883991 164.760852,36.8364619 165.101458,37.2696133 C165.442064,37.7027646 165.689532,38.2003655 165.843869,38.7624309 C165.998206,39.3244964 166.03812,39.9046011 165.963612,40.5027624 L159.896599,40.5027624 Z" id="Teleport-Node" fill="#4A4A4A"></path>
        </g>
        <rect id="Rectangle" fill="#FFFFFF" x="311" y="108" width="188" height="18"></rect>
        <text id="root,teleport,ops" font-family="LucidaGrande, Lucida Grande" font-size="13" font-weight="normal" fill="#4A4A4A">
            <tspan x="343.686035" y="122">root,teleport,ops</tspan>
        </text>
        <rect id="Rectangle" fill="#FFFFFF" x="311" y="237" width="188" height="18"></rect>
        <text id="root,tara,joe,ops" font-family="LucidaGrande, Lucida Grande" font-size="13" font-weight="normal" fill="#4A4A4A">
            <tspan x="344.495361" y="251">root,tara,joe,ops</tspan>
        </text>
        <rect id="Rectangle" fill="#FFFFFF" x="312" y="369" width="188" height="18"></rect>
        <text id="root,tara,teleport," font-family="LucidaGrande, Lucida Grande" font-size="13" font-weight="normal" fill="#4A4A4A">
            <tspan x="318.922607" y="383">root,tara,teleport, sandra</tspan>
        </text>
        <g id="Shadow-Box" transform="translate(4.000000, 110.000000)">
            <g>
                <use fill="black" fill-opacity="1" filter="url(#filter-8)" xlink:href="#path-7"></use>
                <use fill="#FFFFFF" fill-rule="evenodd" xlink:href="#path-7"></use>
            </g>
        </g>
        <g id="auth-service" filter="url(#filter-9)" transform="translate(18.000000, 134.000000)">
            <g id="teleport-auth">
                <path d="M10,1.5 C5.30557963,1.5 1.5,5.30557963 1.5,10 L1.5,60 C1.5,64.6944204 5.30557963,68.5 10,68.5 L197,68.5 C201.69442,68.5 205.5,64.6944204 205.5,60 L205.5,10 C205.5,5.30557963 201.69442,1.5 197,1.5 L10,1.5 Z" id="Rectangle-17" stroke="#E1584E" stroke-width="3" fill="#FFFFFF"></path>
                <path d="M52.785,28 L62.35668,28 L62.35668,29.728 L58.59756,29.728 L58.59756,39.424 L56.52756,39.424 L56.52756,29.728 L52.785,29.728 L52.785,28 Z M67.50684,34.56 C67.4847599,34.2719986 67.4212805,33.994668 67.3164,33.728 C67.2115195,33.461332 67.0680009,33.2293343 66.88584,33.032 C66.7036791,32.8346657 66.4828813,32.6746673 66.22344,32.552 C65.9639987,32.4293327 65.6742016,32.368 65.35404,32.368 C65.0228383,32.368 64.7220014,32.4239994 64.45152,32.536 C64.1810386,32.6480006 63.949201,32.8026657 63.756,33 C63.562799,33.1973343 63.4082406,33.429332 63.29232,33.696 C63.1763994,33.962668 63.1129201,34.2506651 63.10188,34.56 L67.50684,34.56 Z M63.10188,35.76 C63.10188,36.0800016 63.1487995,36.3893318 63.24264,36.688 C63.3364805,36.9866682 63.4772391,37.2479989 63.66492,37.472 C63.8526009,37.6960011 64.0899586,37.874666 64.377,38.008 C64.6640414,38.141334 65.006278,38.208 65.40372,38.208 C65.9557228,38.208 66.4000783,38.0933345 66.7368,37.864 C67.0735217,37.6346655 67.3246792,37.290669 67.49028,36.832 L69.27876,36.832 C69.1793995,37.2800022 69.0082812,37.6799982 68.7654,38.032 C68.5225188,38.3840018 68.2299617,38.6799988 67.88772,38.92 C67.5454783,39.1600012 67.1618421,39.3413327 66.7368,39.464 C66.3117579,39.5866673 65.8674023,39.648 65.40372,39.648 C64.7302766,39.648 64.1341226,39.5413344 63.61524,39.328 C63.0963574,39.1146656 62.6575218,38.8160019 62.29872,38.432 C61.9399182,38.0479981 61.6694409,37.589336 61.48728,37.056 C61.3051191,36.522664 61.21404,35.9360032 61.21404,35.296 C61.21404,34.7093304 61.310639,34.1520026 61.50384,33.624 C61.697041,33.0959974 61.9730382,32.632002 62.33184,32.232 C62.6906418,31.831998 63.1239575,31.5146678 63.6318,31.28 C64.1396425,31.0453322 64.7137168,30.928 65.35404,30.928 C66.0274834,30.928 66.6319173,31.0639986 67.16736,31.336 C67.7028027,31.6080014 68.1471582,31.9679978 68.50044,32.416 C68.8537218,32.8640022 69.1103992,33.3786638 69.27048,33.96 C69.4305608,34.5413362 69.4719604,35.1413302 69.39468,35.76 L63.10188,35.76 Z M70.88508,28 L72.77292,28 L72.77292,39.424 L70.88508,39.424 L70.88508,28 Z M80.70516,34.56 C80.6830799,34.2719986 80.6196005,33.994668 80.51472,33.728 C80.4098395,33.461332 80.2663209,33.2293343 80.08416,33.032 C79.9019991,32.8346657 79.6812013,32.6746673 79.42176,32.552 C79.1623187,32.4293327 78.8725216,32.368 78.55236,32.368 C78.2211583,32.368 77.9203214,32.4239994 77.64984,32.536 C77.3793586,32.6480006 77.147521,32.8026657 76.95432,33 C76.761119,33.1973343 76.6065606,33.429332 76.49064,33.696 C76.3747194,33.962668 76.3112401,34.2506651 76.3002,34.56 L80.70516,34.56 Z M76.3002,35.76 C76.3002,36.0800016 76.3471195,36.3893318 76.44096,36.688 C76.5348005,36.9866682 76.6755591,37.2479989 76.86324,37.472 C77.0509209,37.6960011 77.2882786,37.874666 77.57532,38.008 C77.8623614,38.141334 78.204598,38.208 78.60204,38.208 C79.1540428,38.208 79.5983983,38.0933345 79.93512,37.864 C80.2718417,37.6346655 80.5229992,37.290669 80.6886,36.832 L82.47708,36.832 C82.3777195,37.2800022 82.2066012,37.6799982 81.96372,38.032 C81.7208388,38.3840018 81.4282817,38.6799988 81.08604,38.92 C80.7437983,39.1600012 80.3601621,39.3413327 79.93512,39.464 C79.5100779,39.5866673 79.0657223,39.648 78.60204,39.648 C77.9285966,39.648 77.3324426,39.5413344 76.81356,39.328 C76.2946774,39.1146656 75.8558418,38.8160019 75.49704,38.432 C75.1382382,38.0479981 74.8677609,37.589336 74.6856,37.056 C74.5034391,36.522664 74.41236,35.9360032 74.41236,35.296 C74.41236,34.7093304 74.508959,34.1520026 74.70216,33.624 C74.895361,33.0959974 75.1713582,32.632002 75.53016,32.232 C75.8889618,31.831998 76.3222775,31.5146678 76.83012,31.28 C77.3379625,31.0453322 77.9120368,30.928 78.55236,30.928 C79.2258034,30.928 79.8302373,31.0639986 80.36568,31.336 C80.9011227,31.6080014 81.3454782,31.9679978 81.69876,32.416 C82.0520418,32.8640022 82.3087192,33.3786638 82.4688,33.96 C82.6288808,34.5413362 82.6702804,35.1413302 82.593,35.76 L76.3002,35.76 Z M84.0834,31.152 L85.87188,31.152 L85.87188,32.272 L85.905,32.272 C86.1699613,31.7919976 86.5397976,31.448001 87.01452,31.24 C87.4892424,31.031999 88.0025972,30.928 88.5546,30.928 C89.2280434,30.928 89.8159175,31.0426655 90.31824,31.272 C90.8205625,31.5013345 91.2373183,31.815998 91.56852,32.216 C91.8997217,32.616002 92.1481192,33.082664 92.31372,33.616 C92.4793208,34.149336 92.56212,34.719997 92.56212,35.328 C92.56212,35.8826694 92.4876007,36.4213307 92.33856,36.944 C92.1895193,37.4666693 91.9632015,37.928 91.6596,38.328 C91.3559985,38.728002 90.9723623,39.0479988 90.50868,39.288 C90.0449977,39.5280012 89.4985231,39.648 88.86924,39.648 C88.5932386,39.648 88.3172414,39.6240002 88.04124,39.576 C87.7652386,39.5279998 87.5002813,39.4506672 87.24636,39.344 C86.9924387,39.2373328 86.7578411,39.1013342 86.54256,38.936 C86.3272789,38.7706658 86.1478807,38.5760011 86.00436,38.352 L85.97124,38.352 L85.97124,42.48 L84.0834,42.48 L84.0834,31.152 Z M90.67428,35.296 C90.67428,34.9226648 90.6246005,34.5600018 90.52524,34.208 C90.4258795,33.8559982 90.276841,33.5440014 90.07812,33.272 C89.879399,32.9999986 89.6310015,32.7813342 89.33292,32.616 C89.0348385,32.4506658 88.6926019,32.368 88.3062,32.368 C87.511316,32.368 86.912402,32.634664 86.50944,33.168 C86.106478,33.701336 85.905,34.4106622 85.905,35.296 C85.905,35.7120021 85.9574395,36.0986649 86.06232,36.456 C86.1672005,36.8133351 86.324519,37.1199987 86.53428,37.376 C86.744041,37.6320013 86.9951985,37.8346659 87.28776,37.984 C87.5803215,38.1333341 87.9197981,38.208 88.3062,38.208 C88.7367622,38.208 89.1010785,38.1226675 89.39916,37.952 C89.6972415,37.7813325 89.942879,37.5600014 90.13608,37.288 C90.329281,37.0159986 90.4672796,36.7066684 90.55008,36.36 C90.6328804,36.0133316 90.67428,35.6586685 90.67428,35.296 Z M98.0766,39.648 C97.3921166,39.648 96.7821627,39.5386678 96.24672,39.32 C95.7112773,39.1013322 95.2586418,38.8000019 94.8888,38.416 C94.5189582,38.0319981 94.237441,37.573336 94.04424,37.04 C93.851039,36.506664 93.75444,35.9200032 93.75444,35.28 C93.75444,34.6506635 93.851039,34.069336 94.04424,33.536 C94.237441,33.002664 94.5189582,32.5440019 94.8888,32.16 C95.2586418,31.7759981 95.7112773,31.4746678 96.24672,31.256 C96.7821627,31.0373322 97.3921166,30.928 98.0766,30.928 C98.7610834,30.928 99.3710373,31.0373322 99.90648,31.256 C100.441923,31.4746678 100.894558,31.7759981 101.2644,32.16 C101.634242,32.5440019 101.915759,33.002664 102.10896,33.536 C102.302161,34.069336 102.39876,34.6506635 102.39876,35.28 C102.39876,35.9200032 102.302161,36.506664 102.10896,37.04 C101.915759,37.573336 101.634242,38.0319981 101.2644,38.416 C100.894558,38.8000019 100.441923,39.1013322 99.90648,39.32 C99.3710373,39.5386678 98.7610834,39.648 98.0766,39.648 Z M98.0766,38.208 C98.4961221,38.208 98.8604385,38.1226675 99.16956,37.952 C99.4786815,37.7813325 99.732599,37.5573347 99.93132,37.28 C100.130041,37.0026653 100.27632,36.6906684 100.37016,36.344 C100.464,35.9973316 100.51092,35.6426685 100.51092,35.28 C100.51092,34.9279982 100.464,34.5760018 100.37016,34.224 C100.27632,33.8719982 100.130041,33.5600014 99.93132,33.288 C99.732599,33.0159986 99.4786815,32.7946675 99.16956,32.624 C98.8604385,32.4533325 98.4961221,32.368 98.0766,32.368 C97.6570779,32.368 97.2927615,32.4533325 96.98364,32.624 C96.6745185,32.7946675 96.420601,33.0159986 96.22188,33.288 C96.023159,33.5600014 95.8768805,33.8719982 95.78304,34.224 C95.6891995,34.5760018 95.64228,34.9279982 95.64228,35.28 C95.64228,35.6426685 95.6891995,35.9973316 95.78304,36.344 C95.8768805,36.6906684 96.023159,37.0026653 96.22188,37.28 C96.420601,37.5573347 96.6745185,37.7813325 96.98364,37.952 C97.2927615,38.1226675 97.6570779,38.208 98.0766,38.208 Z M103.97196,31.152 L105.74388,31.152 L105.74388,32.752 L105.777,32.752 C105.8322,32.5279989 105.939839,32.3093344 106.09992,32.096 C106.260001,31.8826656 106.453199,31.6880009 106.67952,31.512 C106.905841,31.3359991 107.156999,31.1946672 107.433,31.088 C107.709001,30.9813328 107.990519,30.928 108.27756,30.928 C108.498361,30.928 108.65016,30.9333333 108.73296,30.944 C108.81576,30.9546667 108.90132,30.9653333 108.98964,30.976 L108.98964,32.736 C108.857159,32.7146666 108.721921,32.6960001 108.58392,32.68 C108.445919,32.6639999 108.310681,32.656 108.1782,32.656 C107.858038,32.656 107.557201,32.7173327 107.27568,32.84 C106.994159,32.9626673 106.748521,33.1439988 106.53876,33.384 C106.328999,33.6240012 106.163401,33.9199982 106.04196,34.272 C105.920519,34.6240018 105.8598,35.029331 105.8598,35.488 L105.8598,39.424 L103.97196,39.424 L103.97196,31.152 Z M108.93996,31.152 L110.36412,31.152 L110.36412,28.672 L112.25196,28.672 L112.25196,31.152 L113.95764,31.152 L113.95764,32.512 L112.25196,32.512 L112.25196,36.928 C112.25196,37.120001 112.26024,37.2853326 112.2768,37.424 C112.29336,37.5626674 112.332,37.6799995 112.39272,37.776 C112.45344,37.8720005 112.544519,37.9439998 112.66596,37.992 C112.787401,38.0400002 112.952999,38.064 113.16276,38.064 C113.295241,38.064 113.427719,38.0613334 113.5602,38.056 C113.692681,38.0506666 113.825159,38.0320002 113.95764,38 L113.95764,39.408 C113.747879,39.4293334 113.543641,39.4506666 113.34492,39.472 C113.146199,39.4933334 112.941961,39.504 112.7322,39.504 C112.235398,39.504 111.835202,39.4586671 111.5316,39.368 C111.227998,39.2773329 110.990641,39.1440009 110.81952,38.968 C110.648399,38.7919991 110.53248,38.570668 110.47176,38.304 C110.41104,38.037332 110.37516,37.733335 110.36412,37.392 L110.36412,32.512 L108.93996,32.512 L108.93996,31.152 Z M123.34716,28 L125.54964,28 L130.10364,39.424 L127.8846,39.424 L126.77508,36.4 L122.05548,36.4 L120.94596,39.424 L118.80972,39.424 L123.34716,28 Z M122.61852,34.88 L126.2286,34.88 L124.45668,29.968 L124.407,29.968 L122.61852,34.88 Z M138.483,39.424 L136.62828,39.424 L136.62828,38.272 L136.59516,38.272 C136.363319,38.6880021 136.018322,39.0213321 135.56016,39.272 C135.101998,39.5226679 134.635562,39.648 134.16084,39.648 C133.034754,39.648 132.220563,39.3786694 131.71824,38.84 C131.215917,38.3013306 130.96476,37.4880054 130.96476,36.4 L130.96476,31.152 L132.8526,31.152 L132.8526,36.224 C132.8526,36.949337 132.996119,37.4613318 133.28316,37.76 C133.570201,38.0586682 133.973157,38.208 134.49204,38.208 C134.889482,38.208 135.220679,38.1493339 135.48564,38.032 C135.750601,37.9146661 135.965879,37.7573343 136.13148,37.56 C136.297081,37.3626657 136.41576,37.1253347 136.48752,36.848 C136.55928,36.5706653 136.59516,36.2720016 136.59516,35.952 L136.59516,31.152 L138.483,31.152 L138.483,39.424 Z M139.60908,31.152 L141.03324,31.152 L141.03324,28.672 L142.92108,28.672 L142.92108,31.152 L144.62676,31.152 L144.62676,32.512 L142.92108,32.512 L142.92108,36.928 C142.92108,37.120001 142.92936,37.2853326 142.94592,37.424 C142.96248,37.5626674 143.00112,37.6799995 143.06184,37.776 C143.12256,37.8720005 143.213639,37.9439998 143.33508,37.992 C143.456521,38.0400002 143.622119,38.064 143.83188,38.064 C143.964361,38.064 144.096839,38.0613334 144.22932,38.056 C144.361801,38.0506666 144.494279,38.0320002 144.62676,38 L144.62676,39.408 C144.416999,39.4293334 144.212761,39.4506666 144.01404,39.472 C143.815319,39.4933334 143.611081,39.504 143.40132,39.504 C142.904518,39.504 142.504322,39.4586671 142.20072,39.368 C141.897118,39.2773329 141.659761,39.1440009 141.48864,38.968 C141.317519,38.7919991 141.2016,38.570668 141.14088,38.304 C141.08016,38.037332 141.04428,37.733335 141.03324,37.392 L141.03324,32.512 L139.60908,32.512 L139.60908,31.152 Z M145.98468,28 L147.87252,28 L147.87252,32.24 L147.90564,32.24 C148.137481,31.8666648 148.482478,31.5546679 148.94064,31.304 C149.398802,31.0533321 149.909397,30.928 150.47244,30.928 C151.410845,30.928 152.150517,31.1626643 152.69148,31.632 C153.232443,32.1013357 153.50292,32.8053286 153.50292,33.744 L153.50292,39.424 L151.61508,39.424 L151.61508,34.224 C151.593,33.5733301 151.449481,33.1013348 151.18452,32.808 C150.919559,32.5146652 150.505563,32.368 149.94252,32.368 C149.622358,32.368 149.335321,32.4239994 149.0814,32.536 C148.827479,32.6480006 148.612201,32.8026657 148.43556,33 C148.258919,33.1973343 148.12092,33.429332 148.02156,33.696 C147.9222,33.962668 147.87252,34.2453318 147.87252,34.544 L147.87252,39.424 L145.98468,39.424 L145.98468,28 Z" id="Teleport-Auth" fill="#4A4A4A"></path>
            </g>
        </g>
        <g id="Group-2" transform="translate(22.000000, 208.000000)">
            <g id="Group">
                <g id="Rectangle">
                    <use fill="black" fill-opacity="1" filter="url(#filter-11)" xlink:href="#path-10"></use>
                    <use fill="#FFFFFF" fill-rule="evenodd" xlink:href="#path-10"></use>
                </g>
                <text id="Teleport-User:-login" font-family="LucidaGrande, Lucida Grande" font-size="11" font-weight="normal" fill="#4A4A4A">
                    <tspan x="8.44827586" y="17">Teleport User: login </tspan>
                    <tspan x="8.44827586" y="30" font-family="LucidaGrande-Bold, Lucida Grande" font-weight="bold">joe : root, joe</tspan>
                    <tspan x="8.44827586" y="43" font-family="LucidaGrande-Bold, Lucida Grande" font-weight="bold">tara : tara</tspan>
                    <tspan x="8.44827586" y="56" font-family="LucidaGrande-Bold, Lucida Grande" font-weight="bold">teleport : teleport</tspan>
                    <tspan x="8.44827586" y="69" font-family="LucidaGrande-Bold, Lucida Grande" font-weight="bold">sandra : ops</tspan>
                </text>
            </g>
        </g>
        <text id="grav-00" font-family="LucidaGrande, Lucida Grande" font-size="11" font-weight="normal" fill="#4A4A4A">
            <tspan x="383" y="75">grav-00</tspan>
        </text>
        <text id="grav-01" font-family="LucidaGrande, Lucida Grande" font-size="11" font-weight="normal" fill="#4A4A4A">
            <tspan x="383" y="211">grav-01</tspan>
        </text>
        <text id="grav-02" font-family="LucidaGrande, Lucida Grande" font-size="11" font-weight="normal" fill="#4A4A4A">
            <tspan x="386" y="340">grav-02</tspan>
        </text>
    </g>
</svg>