<svg height="293" viewBox="0 0 584 293" width="584" xmlns="http://www.w3.org/2000/svg" xmlns:xlink="http://www.w3.org/1999/xlink"><defs><filter id="a" height="139.6%" width="116.3%" x="-8.2%" y="-11.9%"><feOffset dx="0" dy="1" in="SourceAlpha" result="shadowOffsetOuter1"/><feGaussianBlur in="shadowOffsetOuter1" result="shadowBlurOuter1" stdDeviation=".5"/><feColorMatrix in="shadowBlurOuter1" result="shadowMatrixOuter1" type="matrix" values="0 0 0 0 0   0 0 0 0 0   0 0 0 0 0  0 0 0 0.5 0"/><feMerge><feMergeNode in="shadowMatrixOuter1"/><feMergeNode in="SourceGraphic"/></feMerge></filter><path id="b" d="m12.819426 0h219.361148c4.457594 0 6.074025.46412806 7.703655 1.33566352 1.629629.87153546 2.908572 2.15047833 3.780107 3.78010796.871536 1.62962963 1.335664 3.24606082 1.335664 7.70365452v75.361148c0 4.4575937-.464128 6.0740249-1.335664 7.7036545-.871535 1.6296296-2.150478 2.9085725-3.780107 3.780108-1.62963.8715355-3.246061 1.3356635-7.703655 1.3356635h-219.361148c-4.4575937 0-6.07402489-.464128-7.70365452-1.3356635s-2.9085725-2.1504784-3.78010796-3.780108-1.33566352-3.2460608-1.33566352-7.7036545v-75.361148c0-4.4575937.46412806-6.07402489 1.33566352-7.70365452s2.15047833-2.9085725 3.78010796-3.78010796 3.24606082-1.33566352 7.70365452-1.33566352z"/><filter id="c" height="155.4%" width="122.9%" x="-11.4%" y="-19.8%"><feOffset dx="0" dy="8" in="SourceAlpha" result="shadowOffsetOuter1"/><feGaussianBlur in="shadowOffsetOuter1" result="shadowBlurOuter1" stdDeviation="8"/><feColorMatrix in="shadowBlurOuter1" type="matrix" values="0 0 0 0 0   0 0 0 0 0   0 0 0 0 0  0 0 0 0.103742074 0"/></filter><path id="d" d="m12.819426 0h120.361148c4.457594 0 6.074025.46412806 7.703655 1.33566352 1.629629.87153546 2.908572 2.15047833 3.780107 3.78010796.871536 1.62962963 1.335664 3.24606082 1.335664 7.70365452v207.361148c0 4.457594-.464128 6.074025-1.335664 7.703655-.871535 1.629629-2.150478 2.908572-3.780107 3.780107-1.62963.871536-3.246061 1.335664-7.703655 1.335664h-120.361148c-4.4575937 0-6.07402489-.464128-7.70365452-1.335664-1.62962963-.871535-2.9085725-2.150478-3.78010796-3.780107-.87153546-1.62963-1.33566352-3.246061-1.33566352-7.703655v-207.361148c0-4.4575937.46412806-6.07402489 1.33566352-7.70365452s2.15047833-2.9085725 3.78010796-3.78010796 3.24606082-1.33566352 7.70365452-1.33566352z"/><filter id="e" height="124%" width="138.4%" x="-19.2%" y="-8.6%"><feOffset dx="0" dy="8" in="SourceAlpha" result="shadowOffsetOuter1"/><feGaussianBlur in="shadowOffsetOuter1" result="shadowBlurOuter1" stdDeviation="8"/><feColorMatrix in="shadowBlurOuter1" type="matrix" values="0 0 0 0 0   0 0 0 0 0   0 0 0 0 0  0 0 0 0.103742074 0"/></filter><filter id="f" height="118.6%" width="106.3%" x="-3.1%" y="-9.3%"><feOffset dx="0" dy="1" in="SourceAlpha" result="shadowOffsetOuter1"/><feGaussianBlur in="shadowOffsetOuter1" result="shadowBlurOuter1" stdDeviation="1"/><feColorMatrix in="shadowBlurOuter1" result="shadowMatrixOuter1" type="matrix" values="0 0 0 0 0   0 0 0 0 0   0 0 0 0 0  0 0 0 0.5 0"/><feMerge><feMergeNode in="shadowMatrixOuter1"/><feMergeNode in="SourceGraphic"/></feMerge></filter></defs><g fill="none" fill-rule="evenodd"><g transform="translate(192 21)"><path d="m6.63 69.156c-.06400032-.2480012-.15199944-.475999-.264-.684s-.25599912-.3879992-.432-.54-.38199882-.2699996-.618-.354-.50999844-.126-.822-.126c-.45600228 0-.84999834.0919991-1.182.276s-.60199896.4299985-.81.738-.3619995.657998-.462 1.05-.15.791998-.15 1.2.0499995.807998.15 1.2.25399896.7419985.462 1.05.47799834.5539991.81.738.72599772.276 1.182.276c.33600168 0 .63199872-.0579994.888-.174s.47599908-.275999.66-.48.32799948-.4419986.432-.714.17199984-.5639984.204-.876h1.464c-.03200016.5120026-.14199906.9799979-.33 1.404s-.4419984.7899985-.762 1.098-.69599784.5459992-1.128.714-.9079974.252-1.428.252c-.6400032 0-1.21399746-.1179988-1.722-.354s-.93799824-.557998-1.29-.966-.62199906-.8839973-.81-1.428-.282-1.1239969-.282-1.74c0-.608003.09399906-1.1839973.282-1.728s.45799824-1.019998.81-1.428.78199746-.7319988 1.29-.972 1.0819968-.36 1.722-.36c.4800024 0 .93199788.0659993 1.356.198s.79799838.3239987 1.122.576.585999.5579982.786.918.32399976.7719977.372 1.236zm6.948 2.196c-.0160001-.2160011-.0619996-.423999-.138-.624s-.1799993-.3739993-.312-.522-.2919991-.2679995-.48-.36-.3979988-.138-.63-.138c-.2400012 0-.457999.0419996-.654.126s-.3639993.1999993-.504.348-.2519996.321999-.336.522-.13.4159988-.138.648zm-3.192.9c0 .2400012.0339997.4719989.102.696s.1699993.4199992.306.588.307999.3019995.516.402c.208.1000005.4559986.15.744.15.400002 0 .7219988-.0859991.966-.258s.4259994-.4299983.546-.774h1.296c-.0720004.3360017-.1959991.6359987-.372.9s-.3879988.4859991-.636.666-.5259985.3159995-.834.408-.6299983.138-.966.138c-.4880024 0-.9199981-.0799992-1.296-.24s-.6939987-.3839986-.954-.672-.45599934-.631998-.588-1.032-.198-.8399976-.198-1.32c0-.4400022.0699993-.857998.21-1.254s.3399987-.7439985.6-1.044.5739982-.5379991.942-.714.7839977-.264 1.248-.264c.4880024 0 .9259981.101999 1.314.306s.7099987.4739983.966.81.4419994.7219978.558 1.158.1460003.8859977.09 1.35zm5.604-3.456h1.284v1.2h.024c.0400002-.1680008.1179994-.3319992.234-.492s.2559992-.3059993.42-.438.345999-.2379996.546-.318.403999-.12.612-.12c.1600008 0 .2699997.004.33.012s.1219997.016.186.024v1.32c-.0960005-.0160001-.1939995-.0299999-.294-.042s-.1979995-.018-.294-.018c-.2320012 0-.449999.0459995-.654.138s-.3819992.2279991-.534.408-.2719996.4019987-.36.666-.132.5679983-.132.912v2.952h-1.368zm3.6 0h1.032v-1.86h1.368v1.86h1.236v1.02h-1.236v3.312c0 .1440007.0059999.2679995.018.372s.0399998.1919996.084.264.1099996.1259998.198.162.2079992.054.36.054c.0960005 0 .1919995-.002.288-.006s.1919995-.0179999.288-.042v1.056c-.1520008.0160001-.2999993.0319999-.444.048s-.2919992.024-.444.024c-.3600018 0-.6499989-.0339997-.87-.102s-.3919994-.1679993-.516-.3-.2079998-.297999-.252-.498-.07-.4279987-.078-.684v-3.66h-1.032zm4.656-2.364h1.368v1.296h-1.368zm0 2.364h1.368v6.204h-1.368zm6.672-2.364h1.368v1.296h-1.368zm-4.428 2.364h1.02v-.516c0-.392002.0479995-.7099988.144-.954s.2239992-.4319993.384-.564.341999-.2199998.546-.264.4179989-.066.642-.066c.4400022 0 .759999.0279997.96.084v1.068c-.0880004-.0240001-.1819995-.0419999-.282-.054s-.2179993-.018-.354-.018c-.1840009 0-.3419993.0439996-.474.132s-.198.2599987-.198.516v.636h1.164v1.02h-1.164v5.184h-1.368v-5.184h-1.02zm4.428 0h1.368v6.204h-1.368zm7.044 2.076c-.0560003-.3840019-.2099987-.673999-.462-.87s-.5699981-.294-.954-.294c-.1760009 0-.363999.0299997-.564.09s-.3839992.1719992-.552.336-.3079994.3919985-.42.684-.168.6739976-.168 1.146c0 .2560013.0299997.5119987.09.768s.1559993.483999.288.684.301999.3619994.51.486.4599985.186.756.186c.400002 0 .7299987-.1239988.99-.372s.4219997-.5959978.486-1.044h1.368c-.1280006.808004-.4339976 1.4259979-.918 1.854s-1.125996.642-1.926.642c-.4880024 0-.9179981-.0819992-1.29-.246s-.6859987-.3879986-.942-.672-.4499993-.622-.582-1.014c-.1320007-.392002-.198-.8159977-.198-1.272 0-.4640023.0639994-.899998.192-1.308s.3199987-.7619985.576-1.062.5739981-.5359991.954-.708.8259974-.258 1.338-.258c.3600018 0 .7019984.0459995 1.026.138s.6119987.2299991.864.414.4579992.4159986.618.696.2559998.6119981.288.996zm7.68 2.748c0 .1680008.0219998.2879996.066.36s.1299994.108.258.108h.144c.0560003 0 .1199996-.0079999.192-.024v.948c-.0480002.0160001-.1099996.0339999-.186.054s-.1539996.0379999-.234.054-.1599996.028-.24.036-.1479997.012-.204.012c-.2800014 0-.5119991-.0559994-.696-.168s-.3039997-.3079986-.36-.588c-.272.2640013-.605998.4559994-1.002.576s-.7779982.18-1.146.18c-.2800014 0-.5479987-.0379996-.804-.114s-.481999-.1879993-.678-.336-.3519994-.3359989-.468-.564-.174-.4939985-.174-.798c0-.3840019.0699993-.6959988.21-.936s.3239989-.4279993.552-.564.4839986-.2339997.768-.294.5699986-.1059998.858-.138c.2480012-.0480002.4839989-.0819999.708-.102s.4219991-.0539998.594-.102.3079995-.1219995.408-.222.15-.249999.15-.45c0-.1760009-.0419996-.3199994-.126-.432s-.1879994-.1979997-.312-.258-.2619992-.0999999-.414-.12-.2959993-.03-.432-.03c-.3840019 0-.6999988.0799992-.948.24s-.3879998.4079983-.42.744h-1.368c.0240001-.400002.1199992-.7319987.288-.996s.3819987-.4759992.642-.636.5539984-.2719997.882-.336.6639983-.096 1.008-.096c.3040015 0 .6039985.0319997.9.096s.5619988.1679993.798.312.4259993.3299989.57.558.216.5059984.216.834zm-1.368-1.728c-.208001.1360007-.4639985.2179999-.768.246s-.6079985.0699997-.912.126c-.1440007.0240001-.2839993.0579998-.42.102s-.2559995.1039996-.36.18-.1859997.1759994-.246.3-.09.2739991-.09.45c0 .1520008.0439996.2799995.132.384s.1939994.1859997.318.246.2599993.1019999.408.126.2819994.036.402.036c.1520008 0 .3159991-.0199998.492-.06s.3419992-.1079995.498-.204.2859995-.2179993.39-.366.156-.3299989.156-.546zm2.22-3.096h1.032v-1.86h1.368v1.86h1.236v1.02h-1.236v3.312c0 .1440007.0059999.2679995.018.372s.0399998.1919996.084.264.1099996.1259998.198.162.2079992.054.36.054c.0960005 0 .1919995-.002.288-.006s.1919995-.0179999.288-.042v1.056c-.1520008.0160001-.2999993.0319999-.444.048s-.2919992.024-.444.024c-.3600018 0-.6499989-.0339997-.87-.102s-.3919994-.1679993-.516-.3-.2079998-.297999-.252-.498-.07-.4279987-.078-.684v-3.66h-1.032zm8.88 2.556c-.0160001-.2160011-.0619996-.423999-.138-.624s-.1799993-.3739993-.312-.522-.2919991-.2679995-.48-.36-.3979988-.138-.63-.138c-.2400012 0-.457999.0419996-.654.126s-.3639993.1999993-.504.348-.2519996.321999-.336.522-.13.4159988-.138.648zm-3.192.9c0 .2400012.0339997.4719989.102.696s.1699993.4199992.306.588.307999.3019995.516.402c.208.1000005.4559986.15.744.15.400002 0 .7219988-.0859991.966-.258s.4259994-.4299983.546-.774h1.296c-.0720004.3360017-.1959991.6359987-.372.9s-.3879988.4859991-.636.666-.5259985.3159995-.834.408-.6299983.138-.966.138c-.4880024 0-.9199981-.0799992-1.296-.24s-.6939987-.3839986-.954-.672-.4559993-.631998-.588-1.032-.198-.8399976-.198-1.32c0-.4400022.0699993-.857998.21-1.254s.3399987-.7439985.6-1.044.5739982-.5379991.942-.714.7839977-.264 1.248-.264c.4880024 0 .9259981.101999 1.314.306s.7099987.4739983.966.81.4419994.7219978.558 1.158.1460003.8859977.09 1.35z" fill="#4a4a4a"/><g transform="translate(4)"><path d="m40.7631579.5h-40.2631579v53h48v-45.09756098h-7.7368421z" fill="#fff" stroke="#5c5c5c"/><g stroke="#4a4a4a" stroke-linecap="square"><path d="m7.717391 13.5h31.59781"/><path d="m7.717391 16.5h31.59781"/><path d="m7.717391 19.5h31.59781"/><path d="m7.717391 22.5h31.59781"/><path d="m7.717391 25.5h31.59781"/><path d="m7.717391 28.5h25.782609"/></g><circle cx="39.5" cy="46.5" fill="#4a4a4a" r="6.5"/><path d="m44 49v12l-4.5-5.8285714-4.5 5.8285714v-12z" fill="#4a4a4a"/><path d="m40.751953.306885 7.91919 8.027099" stroke="#4a4a4a"/></g></g><g filter="url(#a)" transform="translate(298 8)"><use fill="#000" filter="url(#c)" xlink:href="#b"/><use fill="#fff" fill-rule="evenodd" xlink:href="#b"/><g transform="translate(14 5.39726)"><path d="m10 1.5c-4.69442037 0-8.5 3.80557963-8.5 8.5v61c0 4.6944204 3.80557963 8.5 8.5 8.5h200c4.69442 0 8.5-3.8055796 8.5-8.5v-61c0-4.69442037-3.80558-8.5-8.5-8.5z" fill="#fff" stroke="#40b6c6" stroke-width="3"/><path d="m57 33.4125h9.248v1.7496h-3.632v9.8172h-2v-9.8172h-3.616zm14.224 6.642c-.0213334-.2916015-.0826662-.5723986-.184-.8424s-.2399991-.504899-.416-.7047-.3893321-.3617994-.64-.486-.5306651-.1863-.84-.1863c-.3200016 0-.6106654.0566994-.872.1701s-.4853324.269999-.672.4698-.3359994.4346987-.448.7047c-.1120006.2700014-.1733333.5615984-.184.8748zm-4.256 1.215c0 .3240016.0453329.6371985.136.9396s.2266658.5669989.408.7938.4106653.4076993.688.5427.6079981.2025.992.2025c.533336 0 .962665-.1160988 1.288-.3483s.5679992-.5804977.728-1.0449h1.728c-.0960005.4536023-.2613322.8585982-.496 1.215s-.5173317.6560988-.848.8991-.7013313.4265994-1.112.5508-.8399978.1863-1.288.1863c-.6506699 0-1.2266642-.1079989-1.728-.324s-.9253316-.5183981-1.272-.9072-.6079991-.8531973-.784-1.3932-.264-1.1339968-.264-1.782c0-.594003.0933324-1.1582973.28-1.6929s.4533316-1.004398.8-1.4094.7653309-.7262988 1.256-.9639 1.0453302-.3564 1.664-.3564c.6506699 0 1.2346641.1376986 1.752.4131s.946665.6398977 1.288 1.0935.5893326.9746971.744 1.5633.194667 1.1960969.12 1.8225zm7.52-7.857h1.824v11.5668h-1.824zm9.488 6.642c-.0213334-.2916015-.0826662-.5723986-.184-.8424s-.2399991-.504899-.416-.7047-.3893321-.3617994-.64-.486-.5306651-.1863-.84-.1863c-.3200016 0-.6106654.0566994-.872.1701s-.4853324.269999-.672.4698-.3359994.4346987-.448.7047c-.1120006.2700014-.1733333.5615984-.184.8748zm-4.256 1.215c0 .3240016.0453329.6371985.136.9396s.2266658.5669989.408.7938.4106653.4076993.688.5427.6079981.2025.992.2025c.533336 0 .962665-.1160988 1.288-.3483s.5679992-.5804977.728-1.0449h1.728c-.0960005.4536023-.2613322.8585982-.496 1.215s-.5173317.6560988-.848.8991-.7013313.4265994-1.112.5508-.8399978.1863-1.288.1863c-.6506699 0-1.2266642-.1079989-1.728-.324s-.9253316-.5183981-1.272-.9072-.6079991-.8531973-.784-1.3932-.264-1.1339968-.264-1.782c0-.594003.0933324-1.1582973.28-1.6929s.4533316-1.004398.8-1.4094.7653309-.7262988 1.256-.9639 1.0453302-.3564 1.664-.3564c.6506699 0 1.2346641.1376986 1.752.4131s.946665.6398977 1.288 1.0935.5893326.9746971.744 1.5633.194667 1.1960969.12 1.8225zm7.52-4.6656h1.728v1.134h.032c.2560013-.4860024.613331-.8342989 1.072-1.0449s.954664-.3159 1.488-.3159c.6506699 0 1.2186642.1160988 1.704.3483s.8879984.550798 1.208.9558.5599992.8774973.72 1.4175.24 1.1177969.24 1.7334c0 .5616028-.0719993 1.1069974-.216 1.6362s-.3626652.996298-.656 1.4013-.6639978.7289988-1.112.972-.975997.3645-1.584.3645c-.266668 0-.533332-.0242998-.8-.0729s-.5226654-.1268995-.768-.2349-.471999-.2456992-.68-.4131-.3813326-.3644989-.52-.5913h-.032v4.1796h-1.824zm6.368 4.1958c0-.3780019-.0479995-.7451982-.144-1.1016s-.239999-.6722986-.432-.9477-.4319986-.4967992-.72-.6642-.6186648-.2511-.992-.2511c-.7680038 0-1.3466647.2699973-1.736.81s-.584 1.2581955-.584 2.1546c0 .4212021.0506662.8126982.152 1.1745s.2533323.6722987.456.9315.4453319.4643992.728.6156.6106648.2268.984.2268c.4160021 0 .7679986-.0863991 1.056-.2592s.5253324-.3968986.712-.6723.3199996-.5885982.4-.9396.12-.7100982.12-1.0773zm7.152 4.4064c-.661337 0-1.2506641-.1106989-1.768-.3321s-.9546649-.5264981-1.312-.9153-.6293324-.8531973-.816-1.3932-.28-1.1339968-.28-1.782c0-.6372032.0933324-1.2257973.28-1.7658s.4586649-1.0043981.816-1.3932.7946641-.6938989 1.312-.9153 1.106663-.3321 1.768-.3321 1.250664.1106989 1.768.3321.954665.5264981 1.312.9153.629332.8531973.816 1.3932.28 1.1285968.28 1.7658c0 .6480032-.093332 1.2419973-.28 1.782s-.458665 1.0043981-.816 1.3932-.794664.6938989-1.312.9153-1.106663.3321-1.768.3321zm0-1.458c.405335 0 .757332-.0863991 1.056-.2592s.543999-.3995986.736-.6804.333333-.5966982.424-.9477.136-.7100982.136-1.0773c0-.3564018-.045333-.7127982-.136-1.0692s-.231999-.6722986-.424-.9477-.437332-.4994991-.736-.6723-.650665-.2592-1.056-.2592-.757332.0863991-1.056.2592c-.2986682.1728009-.543999.3968986-.736.6723s-.3333329.5912982-.424.9477-.136.7127982-.136 1.0692c0 .3672018.0453329.7262982.136 1.0773s.231999.6668986.424.9477.4373318.5075991.736.6804c.298668.1728009.650665.2592 1.056.2592zm5.696-7.1442h1.712v1.62h.032c.053334-.2268011.157333-.4481989.312-.6642s.341332-.4130991.56-.5913.461332-.3212995.728-.4293.538665-.162.816-.162c.213334 0 .36.0053999.44.0162s.162666.0215999.248.0324v1.782c-.128001-.0216001-.258666-.0404999-.392-.0567s-.263999-.0243-.392-.0243c-.309335 0-.599999.0620994-.872.1863s-.509332.3077988-.712.5508-.362666.5426982-.48.8991-.176.7667977-.176 1.2312v3.9852h-1.824zm4.8 0h1.376v-2.511h1.824v2.511h1.648v1.377h-1.648v4.4712c0 .194401.008.3617993.024.5022s.053333.2591995.112.3564.146666.1700998.264.2187.277332.0729.48.0729c.128001 0 .255999-.0027.384-.0081s.255999-.0242998.384-.0567v1.4256c-.202668.0216001-.399999.0431999-.592.0648s-.389332.0324-.592.0324c-.480002 0-.866665-.0458995-1.16-.1377s-.522666-.2267991-.688-.405-.277333-.4022987-.336-.6723-.093333-.5777983-.104-.9234v-4.941h-1.376zm10.864-3.1914h5.04c.810671 0 1.471997.1187988 1.984.3564s.906665.5345982 1.184.891.466666.7451979.568 1.1664.152.8099982.152 1.1664-.050666.7424979-.152 1.1583-.290665.8018982-.568 1.1583-.671997.6506988-1.184.8829-1.173329.3483-1.984.3483h-3.04v4.4388h-2zm2 5.4756h2.928c.224001 0 .453332-.0323997.688-.0972s.450666-.1700993.648-.3159.357333-.3401988.48-.5832.184-.5480982.184-.9153c0-.3780019-.053333-.6911988-.16-.9396s-.250666-.4454993-.432-.5913-.389332-.2456997-.624-.2997-.485332-.081-.752-.081h-2.96zm8.416-2.2842h1.712v1.62h.032c.053334-.2268011.157333-.4481989.312-.6642s.341332-.4130991.56-.5913.461332-.3212995.728-.4293.538665-.162.816-.162c.213334 0 .36.0053999.44.0162s.162666.0215999.248.0324v1.782c-.128001-.0216001-.258666-.0404999-.392-.0567s-.263999-.0243-.392-.0243c-.309335 0-.599999.0620994-.872.1863s-.509332.3077988-.712.5508-.362666.5426982-.48.8991-.176.7667977-.176 1.2312v3.9852h-1.824zm9.136 8.6022c-.661337 0-1.250664-.1106989-1.768-.3321s-.954665-.5264981-1.312-.9153-.629332-.8531973-.816-1.3932-.28-1.1339968-.28-1.782c0-.6372032.093332-1.2257973.28-1.7658s.458665-1.0043981.816-1.3932.794664-.6938989 1.312-.9153 1.106663-.3321 1.768-.3321 1.250664.1106989 1.768.3321.954665.5264981 1.312.9153.629332.8531973.816 1.3932.28 1.1285968.28 1.7658c0 .6480032-.093332 1.2419973-.28 1.782s-.458665 1.0043981-.816 1.3932-.794664.6938989-1.312.9153-1.106663.3321-1.768.3321zm0-1.458c.405335 0 .757332-.0863991 1.056-.2592s.543999-.3995986.736-.6804.333333-.5966982.424-.9477.136-.7100982.136-1.0773c0-.3564018-.045333-.7127982-.136-1.0692s-.231999-.6722986-.424-.9477-.437332-.4994991-.736-.6723-.650665-.2592-1.056-.2592-.757332.0863991-1.056.2592-.543999.3968986-.736.6723-.333333.5912982-.424.9477-.136.7127982-.136 1.0692c0 .3672018.045333.7262982.136 1.0773s.231999.6668986.424.9477.437332.5075991.736.6804.650665.2592 1.056.2592zm7.92-3.1752-2.864-3.969h2.208l1.728 2.5758 1.808-2.5758h2.112l-2.816 3.8718 3.168 4.5036h-2.192l-2.096-3.0942-2.032 3.0942h-2.144zm5.456-3.969h2l2.16 6.2532h.032l2.096-6.2532h1.904l-3.216 8.829c-.149334.3780019-.295999.7397983-.44 1.0854s-.319999.6506987-.528.9153-.466665.4751992-.776.6318-.703998.2349-1.184.2349c-.426669 0-.847998-.0323997-1.264-.0972v-1.5552c.149334.0216001.293333.0458999.432.0729s.282666.0405.432.0405c.213334 0 .389333-.0269997.528-.081s.253333-.1322995.344-.2349.168-.2240993.232-.3645.122666-.3023991.176-.486l.208-.648z" fill="#4a4a4a"/></g></g><g transform="translate(183 170)"><path d="m1.5 1.5h112v53h-112z" fill="#eef4f9" stroke="#d1eaff" stroke-width="3"/><text fill="#4a4a4a" font-family="LucidaGrande, Lucida Grande" font-size="13"><tspan x="18.434815" y="24">Client offers</tspan> <tspan x="23.862061" y="40">certificate</tspan></text></g><g transform="translate(254 102)"><circle cx="13.5" cy="13.5" fill="#f26738" r="13.5"/><text fill="#fff" font-family="HelveticaNeue-Medium, Helvetica Neue" font-size="16" font-weight="400"><tspan x="9.052" y="20">1</tspan></text></g><path d="m267.5 170-11.5-23h23z" fill="#d1eaff" stroke="#d1eaff" transform="matrix(1 0 0 -1 0 317)"/><g transform="translate(474 136)"><path d="m1.5 1.5h107v76h-107z" fill="#eef4f9" stroke="#d1eaff" stroke-width="3"/><text fill="#4a4a4a" font-family="LucidaGrande, Lucida Grande" font-size="13"><tspan x="29.278832" y="20">Auth CA</tspan><tspan x="27.542748" y="36">validates</tspan><tspan x="17.24685" y="52">signature of</tspan><tspan x="24.21975" y="68">certificate</tspan></text></g><path d="m12.5 46-11.5-23h23z" fill="#d1eaff" stroke="#d1eaff" transform="matrix(-.01745241 -.9998477 -.9998477 .01745241 497.212901 182.395988)"/><g transform="translate(16 8)"><use fill="#000" filter="url(#e)" xlink:href="#d"/><use fill="#fff" fill-rule="evenodd" xlink:href="#d"/></g><g transform="translate(54 142)"><text fill="#4a4a4a" font-family="HelveticaNeue-Medium, Helvetica Neue" font-size="16" font-weight="400"><tspan x=".280757" y="69.084746">Web client</tspan></text><g fill-rule="evenodd"><path d="m.25.25v45.9491525h78.7612613v-45.9491525z" stroke="#4a4a4a" stroke-width=".5"/><path d="m0 0h79.261261v6.058585h-79.261261z" fill="#4a4a4a"/><g fill="#e6e3e7"><ellipse cx="17.49924" cy="3.029293" rx="2.058734" ry="2.019528"/><ellipse cx="11.323037" cy="3.029293" rx="2.058734" ry="2.019528"/><ellipse cx="5.146835" cy="3.029293" rx="2.058734" ry="2.019528"/></g><path d="m18.9925422 20.1180929h1.3085586v2.9314576h3.4022522v-2.9314576h1.3085586v7.3699322h-1.3085586v-3.323695h-3.4022522v3.323695h-1.3085586zm6.8777838 0h6.0507748v1.1147796h-2.3763424v6.2551526h-1.3085585v-6.2551526h-2.3658739zm6.2078018 0h6.0507748v1.1147796h-2.3763424v6.2551526h-1.3085585v-6.2551526h-2.3658739zm6.9196576 0h3.2975676c.5304051 0 .9630974.0756941 1.2980901.2270847s.5932123.340626.7746667.5677119c.1814543.2270858.30533.4748122.3716306.7431864s.0994505.5161006.0994505.7431864c0 .2270859-.0331499.4730919-.0994505.7380255-.0663006.2649335-.1901763.5109395-.3716306.7380254-.1814544.2270859-.439674.4146009-.7746667.5625508s-.767685.2219238-1.2980901.2219238h-1.989009v2.8282373h-1.3085586zm1.3085586 3.4888474h1.9157297c.1465593 0 .2966059-.0206439.4501442-.0619322s.2948612-.1083809.423973-.2012797c.1291117-.0928987.2337953-.2167619.314054-.3715932s.1203874-.3492276.1203874-.5831949c0-.2408487-.0348946-.440406-.1046847-.598678-.0697901-.1582719-.1640054-.2838554-.2826486-.3767542-.1186433-.0928988-.254732-.1565507-.4082703-.1909576-.1535383-.034407-.3175427-.0516102-.492018-.0516102h-1.9366667zm6.5323243 1.4244407c0 .282137.0488524.522982.1465586.7225424.0977062.1995603.2337949.3629908.4082703.4902966.1744753.1273057.3751189.2202031.6019369.2786949.2268179.0584918.4728245.0877373.738027.0877373.2861396 0 .5304014-.0326861.7327928-.0980593.2023914-.0653733.3663958-.149669.492018-.2528899.1256223-.1032208.2163481-.221923.2721802-.3561101.0558321-.1341872.0837478-.2700926.0837478-.4077204 0-.282137-.0645549-.4902959-.1936667-.624483s-.2704347-.2288048-.423973-.283856c-.2652025-.0963394-.5740192-.1875165-.9264594-.2735339-.3524402-.0860173-.7868773-.1978383-1.3033244-.3354661-.3210346-.0825767-.5879779-.1909569-.8008378-.325144s-.3820985-.2838551-.5077207-.4490085c-.1256223-.1651534-.2146034-.3406262-.266946-.5264237-.0523426-.1857976-.0785135-.375033-.0785135-.5677119 0-.3715951.0785127-.6932953.2355406-.9651102.1570278-.2718149.3646503-.497177.6228738-.6760932.2582235-.1789161.5513377-.3113809.8793514-.3973983.3280136-.0860174.6595118-.1290254.9945045-.1290254.3908248 0 .7589622.0498893 1.1044234.1496695.3454612.0997801.6490437.2494481.9107568.4490084.261713.1995604.4693355.4455664.6228738.7380255s.2303064.6313624.2303064 1.0167203h-1.3085586c-.0348951-.4748159-.1988994-.8102787-.492018-1.0063983s-.6664903-.294178-1.1201262-.294178c-.1535383 0-.3105637.0154829-.471081.0464492-.1605174.0309662-.3070744.0825759-.4396757.1548305s-.2425191.1703129-.3297568.294178c-.0872376.123865-.1308558.2786939-.1308558.4644915 0 .2614928.0820022.4662111.246009.614161s.3786083.2597708.6438108.3354661c.0279161.0068814.1378339.0361269.3297568.0877373.1919228.0516104.4065243.108381.6438108.1703136.2372864.0619325.4693352.1221437.6961531.1806355.226818.0584919.3890776.1014999.4867838.1290255.2442655.0756953.4571222.1789146.6385766.309661.1814543.1307464.3332456.2804144.4553784.4490085.1221327.168594.2128585.3492278.2721801.5419067.0593217.192679.088982.385355.088982.5780339 0 .4128835-.0854916.7655494-.2564775 1.0580085-.1709858.2924591-.3960556.5315838-.6752162.7173814-.2791605.1857975-.5967009.3217029-.9526306.4077203s-.718833.1290254-1.0887207.1290254c-.4257199 0-.8270072-.0516096-1.2038739-.1548305-.3768667-.1032208-.7048755-.2614904-.984036-.4748135-.2791606-.2133231-.5024857-.4868543-.669982-.8206017-.1674964-.3337475-.2547327-.7277012-.2617117-1.1818729zm5.8518739 1.0631695h1.4551171v1.3934746h-1.4551171zm0-3.8294746h1.4551171v1.3934746h-1.4551171zm4.9620541-2.3224576h1.141063l-3.0044504 7.7208813h-1.1410631zm3.6849009 0h1.141063l-3.0044504 7.7208813h-1.1410631z" fill="#4a4a4a"/></g></g><g transform="translate(53 34)"><g fill-rule="evenodd"><path d="m.25.25v45.4h78.5181818v-45.4z" fill="#4a4a4a" stroke="#4a4a4a" stroke-width=".5"/><path d="m0 0h79.018182v5.828571h-79.018182z" fill="#d8d8d8"/><g fill="#4a4a4a"><ellipse cx="17.890909" cy="2.914286" rx="2.236364" ry="2.185714"/><ellipse cx="11.181818" cy="2.914286" rx="2.236364" ry="2.185714"/><ellipse cx="5.218182" cy="2.914286" rx="2.236364" ry="2.185714"/></g></g><text fill="#fff" font-family="Helvetica" font-size="18"><tspan x="5.963636" y="37.671429">&gt; ssh</tspan></text><text fill="#4a4a4a" font-family="HelveticaNeue-Medium, Helvetica Neue" font-size="16" font-weight="400"><tspan x="3.478631" y="68.474576">OpenSSH</tspan><tspan x="19.622631" y="87.474576">client</tspan></text></g><g filter="url(#f)" transform="translate(317 220)"><path d="m10 1.5c-4.69442037 0-8.5 3.80557963-8.5 8.5v50c0 4.6944204 3.80557963 8.5 8.5 8.5h187c4.69442 0 8.5-3.8055796 8.5-8.5v-50c0-4.69442037-3.80558-8.5-8.5-8.5z" fill="#fff" stroke="#e1584e" stroke-width="3"/><path d="m52.785 28h9.57168v1.728h-3.75912v9.696h-2.07v-9.696h-3.74256zm14.72184 6.56c-.0220801-.2880014-.0855595-.565332-.19044-.832s-.2483991-.4986657-.43056-.696-.4029587-.3573327-.6624-.48-.5492384-.184-.8694-.184c-.3312017 0-.6320386.0559994-.90252.168s-.502319.2666657-.69552.464-.3477594.429332-.46368.696-.1793999.5546651-.19044.864zm-4.40496 1.2c0 .3200016.0469195.6293318.14076.928s.2345991.5599989.42228.784.4250386.402666.71208.536.629278.2 1.02672.2c.5520028 0 .9963583-.1146655 1.33308-.344s.5878792-.573331.75348-1.032h1.78848c-.0993605.4480022-.2704788.8479982-.51336 1.2s-.5354383.6479988-.87768.888-.7258779.4213327-1.15092.544-.8693977.184-1.33308.184c-.6734434 0-1.2695974-.1066656-1.78848-.32s-.9577182-.5119981-1.31652-.896-.6292791-.842664-.81144-1.376-.27324-1.1199968-.27324-1.76c0-.5866696.096599-1.1439974.2898-1.672s.4691982-.991998.828-1.392.7921175-.7173322 1.29996-.952 1.0819168-.352 1.72224-.352c.6734434 0 1.2778773.1359986 1.81332.408s.9797982.6319978 1.33308 1.08.6099592.9626638.77004 1.544.2014804 1.1813302.1242 1.8zm7.7832-7.76h1.88784v11.424h-1.88784zm9.82008 6.56c-.0220801-.2880014-.0855595-.565332-.19044-.832s-.2483991-.4986657-.43056-.696-.4029587-.3573327-.6624-.48-.5492384-.184-.8694-.184c-.3312017 0-.6320386.0559994-.90252.168s-.502319.2666657-.69552.464-.3477594.429332-.46368.696-.1793999.5546651-.19044.864zm-4.40496 1.2c0 .3200016.0469195.6293318.14076.928s.2345991.5599989.42228.784.4250386.402666.71208.536.629278.2 1.02672.2c.5520028 0 .9963583-.1146655 1.33308-.344s.5878792-.573331.75348-1.032h1.78848c-.0993605.4480022-.2704788.8479982-.51336 1.2s-.5354383.6479988-.87768.888-.7258779.4213327-1.15092.544-.8693977.184-1.33308.184c-.6734434 0-1.2695974-.1066656-1.78848-.32s-.9577182-.5119981-1.31652-.896-.6292791-.842664-.81144-1.376-.27324-1.1199968-.27324-1.76c0-.5866696.096599-1.1439974.2898-1.672s.4691982-.991998.828-1.392.7921175-.7173322 1.29996-.952 1.0819168-.352 1.72224-.352c.6734434 0 1.2778773.1359986 1.81332.408s.9797982.6319978 1.33308 1.08.6099592.9626638.77004 1.544.2014804 1.1813302.1242 1.8zm7.7832-4.608h1.78848v1.12h.03312c.2649613-.4800024.6347976-.823999 1.10952-1.032s.9880772-.312 1.54008-.312c.6734434 0 1.2613175.1146655 1.76364.344s.9190783.543998 1.25028.944.5795992.866664.7452 1.4.2484 1.103997.2484 1.712c0 .5546694-.0745193 1.0933307-.22356 1.616s-.3753585.984-.67896 1.384c-.3036015.400002-.6872377.7199988-1.15092.96s-1.0101569.36-1.63944.36c-.2760014 0-.5519986-.0239998-.828-.072s-.5409587-.1253328-.79488-.232-.4885189-.2426658-.7038-.408-.3946793-.3599989-.5382-.584h-.03312v4.128h-1.88784zm6.59088 4.144c0-.3733352-.0496795-.7359982-.14904-1.088s-.248399-.6639986-.44712-.936-.4471185-.4906658-.7452-.656-.6403181-.248-1.02672-.248c-.794884 0-1.393798.266664-1.79676.8s-.60444 1.2426622-.60444 2.128c0 .4160021.0524395.8026649.15732 1.16s.262199.6639987.47196.92.4609185.4586659.75348.608.6320381.224 1.01844.224c.4305622 0 .7948785-.0853325 1.09296-.256s.543719-.3919986.73692-.664.3311996-.5813316.414-.928.1242-.7013315.1242-1.064zm7.40232 4.352c-.6844834 0-1.2944373-.1093322-1.82988-.328s-.9880782-.5199981-1.35792-.904-.651359-.842664-.84456-1.376-.2898-1.1199968-.2898-1.76c0-.6293365.096599-1.210664.2898-1.744s.4747182-.9919981.84456-1.376.8224773-.6853322 1.35792-.904 1.1453966-.328 1.82988-.328 1.2944373.1093322 1.82988.328c.535443.2186678.988078.5199981 1.35792.904s.651359.842664.84456 1.376.2898 1.1146635.2898 1.744c0 .6400032-.096599 1.226664-.2898 1.76s-.474718.9919981-.84456 1.376-.822477.6853322-1.35792.904c-.5354427.2186678-1.1453966.328-1.82988.328zm0-1.44c.4195221 0 .7838385-.0853325 1.09296-.256s.563039-.3946653.76176-.672.345-.5893316.43884-.936.14076-.7013315.14076-1.064c0-.3520018-.04692-.7039982-.14076-1.056s-.240119-.6639986-.43884-.936-.4526385-.4933325-.76176-.664-.6734379-.256-1.09296-.256-.7838385.0853325-1.09296.256-.563039.3919986-.76176.664-.3449995.5839982-.43884.936-.14076.7039982-.14076 1.056c0 .3626685.0469195.7173316.14076 1.064s.240119.6586653.43884.936.4526385.5013325.76176.672.6734379.256 1.09296.256zm5.89536-7.056h1.77192v1.6h.03312c.0552-.2240011.162839-.4426656.32292-.656s.353279-.4079991.5796-.584.477479-.3173328.75348-.424.557519-.16.84456-.16c.220801 0 .3726.0053333.4554.016s.16836.0213333.25668.032v1.76c-.132481-.0213334-.267719-.0399999-.40572-.056s-.273239-.024-.40572-.024c-.320162 0-.620999.0613327-.90252.184s-.527159.3039988-.73692.544-.375359.5359982-.4968.888-.18216.757331-.18216 1.216v3.936h-1.88784zm4.968 0h1.42416v-2.48h1.88784v2.48h1.70568v1.36h-1.70568v4.416c0 .192001.00828.3573326.02484.496s.0552.2559995.11592.352.151799.1679998.27324.216.287039.072.4968.072c.132481 0 .264959-.0026666.39744-.008s.264959-.0239998.39744-.056v1.408c-.209761.0213334-.413999.0426666-.61272.064s-.402959.032-.61272.032c-.496802 0-.896998-.0453329-1.2006-.136s-.540959-.2239991-.71208-.4-.28704-.397332-.34776-.664-.0966-.570665-.10764-.912v-4.88h-1.42416zm14.4072-3.152h2.20248l4.554 11.424h-2.21904l-1.10952-3.024h-4.7196l-1.10952 3.024h-2.13624zm-.72864 6.88h3.61008l-1.77192-4.912h-.04968zm15.86448 4.544h-1.85472v-1.152h-.03312c-.231841.4160021-.576838.7493321-1.035 1s-.924598.376-1.39932.376c-1.126086 0-1.940277-.2693306-2.4426-.808s-.75348-1.3519946-.75348-2.44v-5.248h1.88784v5.072c0 .725337.143519 1.2373318.43056 1.536s.689997.448 1.20888.448c.397442 0 .728639-.0586661.9936-.176s.480239-.2746657.64584-.472.28428-.4346653.35604-.712.10764-.5759984.10764-.896v-4.8h1.88784zm1.12608-8.272h1.42416v-2.48h1.88784v2.48h1.70568v1.36h-1.70568v4.416c0 .192001.00828.3573326.02484.496s.0552.2559995.11592.352.151799.1679998.27324.216.287039.072.4968.072c.132481 0 .264959-.0026666.39744-.008s.264959-.0239998.39744-.056v1.408c-.209761.0213334-.413999.0426666-.61272.064s-.402959.032-.61272.032c-.496802 0-.896998-.0453329-1.2006-.136s-.540959-.2239991-.71208-.4-.28704-.397332-.34776-.664-.0966-.570665-.10764-.912v-4.88h-1.42416zm6.3756-3.152h1.88784v4.24h.03312c.231841-.3733352.576838-.6853321 1.035-.936s.968757-.376 1.5318-.376c.938405 0 1.678077.2346643 2.21904.704s.81144 1.1733286.81144 2.112v5.68h-1.88784v-5.2c-.02208-.6506699-.165599-1.1226652-.43056-1.416s-.678957-.44-1.242-.44c-.320162 0-.607199.0559994-.86112.168s-.469199.2666657-.64584.464-.31464.429332-.414.696-.14904.5493318-.14904.848v4.88h-1.88784z" fill="#4a4a4a"/></g><g transform="translate(421 156)"><circle cx="13.5" cy="13.5" fill="#f26738" r="13.5"/><text fill="#fff" font-family="HelveticaNeue-Medium, Helvetica Neue" font-size="16" font-weight="400"><tspan x="9.052" y="20">2</tspan></text></g><path d="m416.5 112.5v98h4l-4.5 9-4.5-9h4v-98z" fill="#979797" fill-rule="nonzero"/><path d="m395 108.5 4.5 9h-4v103h-1v-103h-4z" fill="#979797" fill-rule="nonzero"/><g transform="translate(363 127)"><path d="m6.63 69.156c-.06400032-.2480012-.15199944-.475999-.264-.684s-.25599912-.3879992-.432-.54-.38199882-.2699996-.618-.354-.50999844-.126-.822-.126c-.45600228 0-.84999834.0919991-1.182.276s-.60199896.4299985-.81.738-.3619995.657998-.462 1.05-.15.791998-.15 1.2.0499995.807998.15 1.2.25399896.7419985.462 1.05.47799834.5539991.81.738.72599772.276 1.182.276c.33600168 0 .63199872-.0579994.888-.174s.47599908-.275999.66-.48.32799948-.4419986.432-.714.17199984-.5639984.204-.876h1.464c-.03200016.5120026-.14199906.9799979-.33 1.404s-.4419984.7899985-.762 1.098-.69599784.5459992-1.128.714-.9079974.252-1.428.252c-.6400032 0-1.21399746-.1179988-1.722-.354s-.93799824-.557998-1.29-.966-.62199906-.8839973-.81-1.428-.282-1.1239969-.282-1.74c0-.608003.09399906-1.1839973.282-1.728s.45799824-1.019998.81-1.428.78199746-.7319988 1.29-.972 1.0819968-.36 1.722-.36c.4800024 0 .93199788.0659993 1.356.198s.79799838.3239987 1.122.576.585999.5579982.786.918.32399976.7719977.372 1.236zm6.948 2.196c-.0160001-.2160011-.0619996-.423999-.138-.624s-.1799993-.3739993-.312-.522-.2919991-.2679995-.48-.36-.3979988-.138-.63-.138c-.2400012 0-.457999.0419996-.654.126s-.3639993.1999993-.504.348-.2519996.321999-.336.522-.13.4159988-.138.648zm-3.192.9c0 .2400012.0339997.4719989.102.696s.1699993.4199992.306.588.307999.3019995.516.402c.208.1000005.4559986.15.744.15.400002 0 .7219988-.0859991.966-.258s.4259994-.4299983.546-.774h1.296c-.0720004.3360017-.1959991.6359987-.372.9s-.3879988.4859991-.636.666-.5259985.3159995-.834.408-.6299983.138-.966.138c-.4880024 0-.9199981-.0799992-1.296-.24s-.6939987-.3839986-.954-.672-.45599934-.631998-.588-1.032-.198-.8399976-.198-1.32c0-.4400022.0699993-.857998.21-1.254s.3399987-.7439985.6-1.044.5739982-.5379991.942-.714.7839977-.264 1.248-.264c.4880024 0 .9259981.101999 1.314.306s.7099987.4739983.966.81.4419994.7219978.558 1.158.1460003.8859977.09 1.35zm5.604-3.456h1.284v1.2h.024c.0400002-.1680008.1179994-.3319992.234-.492s.2559992-.3059993.42-.438.345999-.2379996.546-.318.403999-.12.612-.12c.1600008 0 .2699997.004.33.012s.1219997.016.186.024v1.32c-.0960005-.0160001-.1939995-.0299999-.294-.042s-.1979995-.018-.294-.018c-.2320012 0-.449999.0459995-.654.138s-.3819992.2279991-.534.408-.2719996.4019987-.36.666-.132.5679983-.132.912v2.952h-1.368zm3.6 0h1.032v-1.86h1.368v1.86h1.236v1.02h-1.236v3.312c0 .1440007.0059999.2679995.018.372s.0399998.1919996.084.264.1099996.1259998.198.162.2079992.054.36.054c.0960005 0 .1919995-.002.288-.006s.1919995-.0179999.288-.042v1.056c-.1520008.0160001-.2999993.0319999-.444.048s-.2919992.024-.444.024c-.3600018 0-.6499989-.0339997-.87-.102s-.3919994-.1679993-.516-.3-.2079998-.297999-.252-.498-.07-.4279987-.078-.684v-3.66h-1.032zm4.656-2.364h1.368v1.296h-1.368zm0 2.364h1.368v6.204h-1.368zm6.672-2.364h1.368v1.296h-1.368zm-4.428 2.364h1.02v-.516c0-.392002.0479995-.7099988.144-.954s.2239992-.4319993.384-.564.341999-.2199998.546-.264.4179989-.066.642-.066c.4400022 0 .759999.0279997.96.084v1.068c-.0880004-.0240001-.1819995-.0419999-.282-.054s-.2179993-.018-.354-.018c-.1840009 0-.3419993.0439996-.474.132s-.198.2599987-.198.516v.636h1.164v1.02h-1.164v5.184h-1.368v-5.184h-1.02zm4.428 0h1.368v6.204h-1.368zm7.044 2.076c-.0560003-.3840019-.2099987-.673999-.462-.87s-.5699981-.294-.954-.294c-.1760009 0-.363999.0299997-.564.09s-.3839992.1719992-.552.336-.3079994.3919985-.42.684-.168.6739976-.168 1.146c0 .2560013.0299997.5119987.09.768s.1559993.483999.288.684.301999.3619994.51.486.4599985.186.756.186c.400002 0 .7299987-.1239988.99-.372s.4219997-.5959978.486-1.044h1.368c-.1280006.808004-.4339976 1.4259979-.918 1.854s-1.125996.642-1.926.642c-.4880024 0-.9179981-.0819992-1.29-.246s-.6859987-.3879986-.942-.672-.4499993-.622-.582-1.014c-.1320007-.392002-.198-.8159977-.198-1.272 0-.4640023.0639994-.899998.192-1.308s.3199987-.7619985.576-1.062.5739981-.5359991.954-.708.8259974-.258 1.338-.258c.3600018 0 .7019984.0459995 1.026.138s.6119987.2299991.864.414.4579992.4159986.618.696.2559998.6119981.288.996zm7.68 2.748c0 .1680008.0219998.2879996.066.36s.1299994.108.258.108h.144c.0560003 0 .1199996-.0079999.192-.024v.948c-.0480002.0160001-.1099996.0339999-.186.054s-.1539996.0379999-.234.054-.1599996.028-.24.036-.1479997.012-.204.012c-.2800014 0-.5119991-.0559994-.696-.168s-.3039997-.3079986-.36-.588c-.272.2640013-.605998.4559994-1.002.576s-.7779982.18-1.146.18c-.2800014 0-.5479987-.0379996-.804-.114s-.481999-.1879993-.678-.336-.3519994-.3359989-.468-.564-.174-.4939985-.174-.798c0-.3840019.0699993-.6959988.21-.936s.3239989-.4279993.552-.564.4839986-.2339997.768-.294.5699986-.1059998.858-.138c.2480012-.0480002.4839989-.0819999.708-.102s.4219991-.0539998.594-.102.3079995-.1219995.408-.222.15-.249999.15-.45c0-.1760009-.0419996-.3199994-.126-.432s-.1879994-.1979997-.312-.258-.2619992-.0999999-.414-.12-.2959993-.03-.432-.03c-.3840019 0-.6999988.0799992-.948.24s-.3879998.4079983-.42.744h-1.368c.0240001-.400002.1199992-.7319987.288-.996s.3819987-.4759992.642-.636.5539984-.2719997.882-.336.6639983-.096 1.008-.096c.3040015 0 .6039985.0319997.9.096s.5619988.1679993.798.312.4259993.3299989.57.558.216.5059984.216.834zm-1.368-1.728c-.208001.1360007-.4639985.2179999-.768.246s-.6079985.0699997-.912.126c-.1440007.0240001-.2839993.0579998-.42.102s-.2559995.1039996-.36.18-.1859997.1759994-.246.3-.09.2739991-.09.45c0 .1520008.0439996.2799995.132.384s.1939994.1859997.318.246.2599993.1019999.408.126.2819994.036.402.036c.1520008 0 .3159991-.0199998.492-.06s.3419992-.1079995.498-.204.2859995-.2179993.39-.366.156-.3299989.156-.546zm2.22-3.096h1.032v-1.86h1.368v1.86h1.236v1.02h-1.236v3.312c0 .1440007.0059999.2679995.018.372s.0399998.1919996.084.264.1099996.1259998.198.162.2079992.054.36.054c.0960005 0 .1919995-.002.288-.006s.1919995-.0179999.288-.042v1.056c-.1520008.0160001-.2999993.0319999-.444.048s-.2919992.024-.444.024c-.3600018 0-.6499989-.0339997-.87-.102s-.3919994-.1679993-.516-.3-.2079998-.297999-.252-.498-.07-.4279987-.078-.684v-3.66h-1.032zm8.88 2.556c-.0160001-.2160011-.0619996-.423999-.138-.624s-.1799993-.3739993-.312-.522-.2919991-.2679995-.48-.36-.3979988-.138-.63-.138c-.2400012 0-.457999.0419996-.654.126s-.3639993.1999993-.504.348-.2519996.321999-.336.522-.13.4159988-.138.648zm-3.192.9c0 .2400012.0339997.4719989.102.696s.1699993.4199992.306.588.307999.3019995.516.402c.208.1000005.4559986.15.744.15.400002 0 .7219988-.0859991.966-.258s.4259994-.4299983.546-.774h1.296c-.0720004.3360017-.1959991.6359987-.372.9s-.3879988.4859991-.636.666-.5259985.3159995-.834.408-.6299983.138-.966.138c-.4880024 0-.9199981-.0799992-1.296-.24s-.6939987-.3839986-.954-.672-.4559993-.631998-.588-1.032-.198-.8399976-.198-1.32c0-.4400022.0699993-.857998.21-1.254s.3399987-.7439985.6-1.044.5739982-.5379991.942-.714.7839977-.264 1.248-.264c.4880024 0 .9259981.101999 1.314.306s.7099987.4739983.966.81.4419994.7219978.558 1.158.1460003.8859977.09 1.35z" fill="#4a4a4a"/><g transform="translate(4)"><path d="m40.7631579.5h-40.2631579v53h48v-45.09756098h-7.7368421z" fill="#fff" stroke="#5c5c5c"/><g stroke="#4a4a4a" stroke-linecap="square"><path d="m7.717391 13.5h31.59781"/><path d="m7.717391 16.5h31.59781"/><path d="m7.717391 19.5h31.59781"/><path d="m7.717391 22.5h31.59781"/><path d="m7.717391 25.5h31.59781"/><path d="m7.717391 28.5h25.782609"/></g><circle cx="39.5" cy="46.5" fill="#4a4a4a" r="6.5"/><path d="m44 49v12l-4.5-5.8285714-4.5 5.8285714v-12z" fill="#4a4a4a"/><path d="m40.751953.306885 7.91919 8.027099" stroke="#4a4a4a"/></g><text fill="#09c62e" font-family="LucidaGrande, Lucida Grande" font-size="36"><tspan x=".245117" y="62">✓</tspan></text></g><path d="m286 78 9 4.5-9 4.5v-4h-125v-1h125z" fill="#979797" fill-rule="nonzero"/></g></svg>