<svg xmlns="http://www.w3.org/2000/svg" viewBox="0 0 128 128"><rect x="8" y="8" width="112" height="112" rx="22" fill="#303236" stroke="#17181a" stroke-width="2"/><path fill="#f8f9fa" d="M64 18c13 7 26 11 38 13v27c0 24-15 43-38 54-23-11-38-30-38-54V31c12-2 25-6 38-13Z"/><path fill="#303236" d="M64 33c9 5 18 8 27 10v16c0 16-10 29-27 38-17-9-27-22-27-38V43c9-2 18-5 27-10Z"/><path d="M48 60a18 18 0 0 1 28-10" fill="none" stroke="#f8f9fa" stroke-width="6" stroke-linecap="round"/><path fill="#f8f9fa" d="m77 43 1 13-12-5Z"/><path d="M80 68a18 18 0 0 1-28 10" fill="none" stroke="#f8f9fa" stroke-width="6" stroke-linecap="round"/><path fill="#f8f9fa" d="m51 85-1-13 12 5Z"/><circle cx="64" cy="64" r="10" fill="#f8f9fa"/><path fill="#303236" d="M64 57a5 5 0 0 1 3 9v8h-6v-8a5 5 0 0 1 3-9Z"/></svg>