<svg fill="none" height="250" viewBox="0 0 350 250" width="350" xmlns="http://www.w3.org/2000/svg" xmlns:xlink="http://www.w3.org/1999/xlink"><filter id="a" color-interpolation-filters="sRGB" filterUnits="userSpaceOnUse" height="206.608" width="128.614" x="35.5017" y="33.2144"><feFlood flood-opacity="0" result="BackgroundImageFix"/><feColorMatrix in="SourceAlpha" result="hardAlpha" type="matrix" values="0 0 0 0 0 0 0 0 0 0 0 0 0 0 0 0 0 0 127 0"/><feOffset/><feGaussianBlur stdDeviation="5.38753"/><feColorMatrix type="matrix" values="0 0 0 0 0.0196078 0 0 0 0 0.0196078 0 0 0 0 0.0196078 0 0 0 0.2 0"/><feBlend in2="BackgroundImageFix" mode="normal" result="effect1_dropShadow_9_535"/><feBlend in="SourceGraphic" in2="effect1_dropShadow_9_535" mode="normal" result="shape"/></filter><filter id="b" color-interpolation-filters="sRGB" filterUnits="userSpaceOnUse" height="216.2" width="307.354" x="29.5827" y="9.80316"><feFlood flood-opacity="0" result="BackgroundImageFix"/><feColorMatrix in="SourceAlpha" result="hardAlpha" type="matrix" values="0 0 0 0 0 0 0 0 0 0 0 0 0 0 0 0 0 0 127 0"/><feOffset/><feGaussianBlur stdDeviation="1.3582"/><feColorMatrix type="matrix" values="0 0 0 0 0.639216 0 0 0 0 0.654902 0 0 0 0 0.717647 0 0 0 0.25 0"/><feBlend in2="BackgroundImageFix" mode="normal" result="effect1_dropShadow_9_535"/><feBlend in="SourceGraphic" in2="effect1_dropShadow_9_535" mode="normal" result="shape"/></filter><filter id="c" color-interpolation-filters="sRGB" filterUnits="userSpaceOnUse" height="49.0156" width="49.0156" x="174.492" y="80.4922"><feFlood flood-opacity="0" result="BackgroundImageFix"/><feColorMatrix in="SourceAlpha" result="hardAlpha" type="matrix" values="0 0 0 0 0 0 0 0 0 0 0 0 0 0 0 0 0 0 127 0"/><feOffset/><feGaussianBlur stdDeviation="2.25389"/><feColorMatrix type="matrix" values="0 0 0 0 0.0862745 0 0 0 0 0.101961 0 0 0 0 0.156863 0 0 0 0.35 0"/><feBlend in2="BackgroundImageFix" mode="normal" result="effect1_dropShadow_9_535"/><feBlend in="SourceGraphic" in2="effect1_dropShadow_9_535" mode="normal" result="shape"/></filter><filter id="d" color-interpolation-filters="sRGB" filterUnits="userSpaceOnUse" height="99.9677" width="99.9677" x="222.107" y="8.98615"><feFlood flood-opacity="0" result="BackgroundImageFix"/><feColorMatrix in="SourceAlpha" result="hardAlpha" type="matrix" values="0 0 0 0 0 0 0 0 0 0 0 0 0 0 0 0 0 0 127 0"/><feOffset/><feGaussianBlur stdDeviation="5.61816"/><feColorMatrix type="matrix" values="0 0 0 0 0.0196078 0 0 0 0 0.0196078 0 0 0 0 0.0196078 0 0 0 0.2 0"/><feBlend in2="BackgroundImageFix" mode="normal" result="effect1_dropShadow_9_535"/><feBlend in="SourceGraphic" in2="effect1_dropShadow_9_535" mode="normal" result="shape"/></filter><linearGradient id="e" gradientUnits="userSpaceOnUse" x1="15.5674" x2="135.688" y1="197.18" y2="76.2984"><stop offset="0" stop-color="#303e68" stop-opacity="0"/><stop offset=".232881" stop-color="#303e68" stop-opacity=".077707"/><stop offset=".596368" stop-color="#303e68" stop-opacity=".290587"/><stop offset="1" stop-color="#303e68" stop-opacity=".6"/></linearGradient><linearGradient id="f" gradientUnits="userSpaceOnUse" x1="134" x2="251" y1="203" y2="121"><stop offset="0" stop-color="#303e68" stop-opacity=".6"/><stop offset=".403632" stop-color="#303e68" stop-opacity=".290587"/><stop offset=".767119" stop-color="#303e68" stop-opacity=".077707"/><stop offset="1" stop-color="#303e68" stop-opacity="0"/></linearGradient><linearGradient id="g"><stop offset="0" stop-color="#44527a" stop-opacity="0"/><stop offset=".0850421" stop-color="#44527a" stop-opacity=".102268"/><stop offset=".303978" stop-color="#44527a" stop-opacity=".319935"/><stop offset=".527598" stop-color="#44527a" stop-opacity=".476013"/><stop offset=".756823" stop-color="#44527a" stop-opacity=".569308"/><stop offset="1" stop-color="#44527a" stop-opacity=".6"/></linearGradient><linearGradient id="h" gradientUnits="userSpaceOnUse" x1="101.243" x2="238.242" xlink:href="#g" y1="189.257" y2="122.738"/><linearGradient id="i" gradientUnits="userSpaceOnUse" x1="129.096" x2="210.334" xlink:href="#g" y1="193.637" y2="161.086"/><clipPath id="j"><path d="m0 0h350v250h-350z"/></clipPath><g clip-path="url(#j)"><path d="m28.0375 63.0799c20.0246-13.8153 39.9096 5.2306 83.3525.0702 60.422-7.1772 66.966-54.80286 123.329-58.75409 6.823-.47831 50.865-2.88 80.925 28.61699 26.174 27.4265 25.353 63.3783 25.177 71.099-1.574 68.868-72.372 108.003-75.631 109.723-1.191.629-2.126 1.106-2.762 1.43-78.819 40.172-197.1621 16.017-236.703-47.299-21.73706-34.808-23.27201-87.2348 2.3125-104.8861z" fill="#303e68" opacity=".17"/><g filter="url(#a)"><path d="m153.034 65.272-33.884 113.887c-.24.711-1.066 2.854-3.322 4.366-2.749 1.841-5.625 1.407-6.251 1.297-16.8105-3.742-33.6206-7.484-50.4307-11.226-1.4559-.567-2.9115-1.134-4.3674-1.701 17.2416 3.769 34.4833 7.539 51.7251 11.309 3.556.767 7.368-1.645 8.479-5.368l33.884-113.8864c.866-2.9339-.189-5.8455-2.423-7.3236-.367-.2444-.767-.4445-1.2-.6112l3.334 1.078c3.556.7779 5.567 4.4563 4.456 8.1792z" fill="#252e4f"/><path d="m84.6841 228.889-30.9657-6.603c-3.8405-.819-6.0884-4.596-4.9953-8.393l12.2001-42.381c1.0931-3.797 5.1297-6.233 8.9702-5.415l30.9656 6.604c3.841.818 6.088 4.595 4.995 8.392l-12.1998 42.381c-1.0931 3.797-5.1296 6.234-8.9701 5.415z" fill="#0d1435"/><path d="m85.9404 228.889-30.9657-6.603c-3.8405-.819-6.0884-4.596-4.9953-8.393l12.2002-42.381c1.093-3.797 5.1296-6.233 8.9701-5.415l30.9653 6.604c3.841.818 6.089 4.595 4.996 8.392l-12.2004 42.381c-1.0931 3.797-5.1297 6.234-8.9702 5.415z" fill="#0d1435"/><path d="m82.5142 227.868-30.9657-6.603c-3.8405-.819-6.0884-4.596-4.9953-8.393l12.2001-42.381c1.0931-3.797 5.1297-6.234 8.9702-5.415l30.9657 6.603c3.8408.819 6.0888 4.596 4.9948 8.393l-12.1997 42.381c-1.0931 3.797-5.1296 6.234-8.9701 5.415z" fill="#252e4f"/><path d="m103.498 181.145c-.823 3.011-1.634 6.023-2.456 9.023-2.5006-.555-5.0121-1.1-7.5126-1.655-2.3116-.512-4.634-1.023-6.9456-1.534-.5112-.111-1.0223-.222-1.5335-.333-2.3116-.512-4.6232-1.023-6.9345-1.534-.4447-.089-.8891-.189-1.3336-.289-2.3116-.511-4.6232-1.022-6.9348-1.522-2.0335-.456-4.0673-.901-6.101-1.345l-2.0447-.534-.0222.078c-1.9114-.422-3.8231-.844-5.7342-1.267.7444-2.945 1.4889-5.89 2.2226-8.823 15.1136 3.245 30.2163 6.49 45.3301 9.735z" fill="#1b2243"/><path d="m63.7464 181.956c-.6889-.156-1.378-.311-2.0669-.456l.0223-.078z" fill="#572dd1"/><path d="m68.617 183.026c-3.2349 11.171-6.4698 22.342-9.7047 33.514l-6.868-1.789 9.6352-33.251c.6889.152 1.378.304 2.0669.456 1.6235.357 3.2471.713 4.8706 1.07z" fill="#7e8493"/><path d="m93.5294 188.513-9.6905 33.628-6.8678-1.778 9.6127-33.384c2.3116.511 4.634 1.022 6.9456 1.534z" fill="#7e8493"/><path d="m76.7822 184.823-8.5906 29.583-6.8678-1.778 8.5236-29.327c2.3116.5 4.6232 1.011 6.9348 1.522z" fill="#7e8493"/><path d="m85.0503 186.646-8.6794 29.894-6.8678-1.789 8.6126-29.639c2.3114.511 4.623 1.022 6.9346 1.534z" fill="#7e8493"/><path d="m145.316 56.1004c-.366-.2444-.766-.4445-1.2-.6112-.267-.1-.544-.1778-.833-.2445l-51.0204-11.113c-3.5561-.7669-7.3792 1.6447-8.4905 5.3676l-33.8726 113.8867c-1.1113 3.723.8891 7.401 4.4452 8.179l2.1339.467 48.8974 10.646c3.556.767 7.368-1.645 8.479-5.367l33.884-113.887c.867-2.9339-.189-5.8455-2.423-7.3236zm-25.582 15.8584c-1.7 4.3674-6.123 6.7123-9.89 5.2565-3.757-1.467-5.446-6.19-3.746-10.5463 1.69-4.3563 6.113-6.7123 9.88-5.2454s5.445 6.1788 3.756 10.5352z" fill="#252e4f"/><path d="m145.316 56.1004c-.366-.2444-.766-.4445-1.2-.6112-.267-.1-.544-.1778-.833-.2445l-51.0204-11.113c-3.5561-.7669-7.3792 1.6447-8.4905 5.3676l-33.8726 113.8867c-1.1113 3.723.8891 7.401 4.4452 8.179l2.1339.467 48.8974 10.646c3.556.767 7.368-1.645 8.479-5.367l33.884-113.887c.867-2.9339-.189-5.8455-2.423-7.3236zm-25.582 15.8584c-1.7 4.3674-6.123 6.7123-9.89 5.2565-3.757-1.467-5.446-6.19-3.746-10.5463 1.69-4.3563 6.113-6.7123 9.88-5.2454s5.445 6.1788 3.756 10.5352z" fill="url(#e)" opacity=".6"/><path d="m151.906 64.7464-33.883 113.8866c-.241.711-1.067 2.855-3.323 4.366-2.749 1.841-5.624 1.407-6.251 1.297-16.8101-3.742-33.6202-7.483-50.4304-11.225-1.4558-.568-2.9114-1.135-4.3673-1.702 17.2415 3.77 34.4833 7.539 51.7247 11.309 3.556.767 7.368-1.645 8.479-5.367l33.884-113.887c.867-2.9339-.189-5.8455-2.423-7.3236-.366-.2444-.766-.4445-1.2-.6112l3.334 1.078c3.556.7779 5.568 4.4563 4.456 8.1792z" fill="#0d1435"/><path d="m115.278 58.2119c-5.246-2.0337-11.191.6891-13.291 6.09-2.1009 5.4009.455 11.4242 5.7 13.4579 1.934.7557 3.968.8557 5.868.4112.022 0 .045 0 .056-.0112 3.178-.7556 5.99-3.0561 7.312-6.39.022-.0333.034-.0666.045-.1 2.1-5.4009-.456-11.4242-5.69-13.4579zm4.456 13.7469c-1.7 4.3674-6.123 6.7123-9.89 5.2565-3.757-1.467-5.446-6.19-3.746-10.5463 1.69-4.3563 6.113-6.7123 9.88-5.2454s5.445 6.1788 3.756 10.5352z" fill="#0d1435"/><path d="m116.278 59.9122c-4.434-1.7225-9.591.8669-11.502 5.8011-1.912 4.923.133 10.3128 4.578 12.0354 1.378.5334 2.812.6557 4.201.4223.022 0 .045 0 .056-.0112 3.089-.5334 5.934-2.8227 7.246-6.201.022-.0667.044-.1222.066-.189 1.789-4.8786-.256-10.1573-4.645-11.8576zm-6.434 17.3031c-3.757-1.467-5.446-6.19-3.746-10.5463 1.69-4.3563 6.113-6.7123 9.88-5.2454s5.445 6.1788 3.756 10.5352c-1.7 4.3674-6.123 6.7123-9.89 5.2565z" fill="#7e8493"/><path d="m113.081 127.474c3.871-9.968-.837-21.095-10.515-24.853-9.6781-3.7584-20.6615 1.276-24.5322 11.245-3.8708 9.968.837 21.095 10.515 24.853 9.6781 3.758 20.6612-1.276 24.5322-11.245z" fill="#0d1435"/><path d="m112.683 128.5c3.639-9.373-.56-19.749-9.379-23.173-8.8201-3.425-18.9206 1.398-22.5604 10.771-3.6398 9.374.5594 19.749 9.3791 23.174s18.9203-1.398 22.5603-10.772z" fill="#ffea83"/><path d="m112.683 128.5c3.639-9.373-.56-19.749-9.379-23.173-8.8201-3.425-18.9206 1.398-22.5604 10.771-3.6398 9.374.5594 19.749 9.3791 23.174s18.9203-1.398 22.5603-10.772z" fill="#7e8493"/><g fill="#0d1435"><path d="m92.7356 113.088 3.6742.993.3033 7.348 4.8939-6.322 3.575.794-10.8244 14.267-3.8397-.795 3.0453-3.939z"/><path d="m101.65 111.885c-.07 0-.141-.026-.194-.079-.225-.22-.706-.611-1.421-.77-.716-.157-1.326-.004-1.625.103-.1457.049-.305-.024-.3551-.168-.0515-.145.0228-.303.167-.356.434-.155 1.1199-.301 1.9351-.122.805.18 1.362.598 1.687.917.109.107.111.283.005.392-.055.056-.128.083-.199.083z"/><path d="m102.7 110.506c-.07 0-.141-.027-.196-.08-.334-.33-1.053-.908-2.12-1.078-.8753-.14-1.6007.049-2.0574.231-.1396.055-.3035-.012-.3612-.154-.0576-.143.0122-.305.1548-.361.522-.209 1.3551-.424 2.3518-.265 1.219.195 2.041.855 2.424 1.231.109.108.109.284.001.393-.053.056-.126.083-.197.083z"/><path d="m103.815 109.293c-.07 0-.138-.026-.192-.078-.453-.435-1.424-1.199-2.852-1.43-1.1607-.189-2.1379.051-2.7494.286-.1381.053-.3035-.017-.3582-.16-.0546-.143.0167-.304.1609-.359.6753-.259 1.7542-.523 3.0347-.315 1.578.254 2.65 1.098 3.149 1.578.111.106.114.282.008.393-.055.057-.128.085-.201.085z"/></g></g><g fill="#fff" filter="url(#b)" opacity=".8"><path d="m40.8943 94.3597c1.0911 0 1.9757-.8845 1.9757-1.9757 0-1.0911-.8846-1.9757-1.9757-1.9757-1.0912 0-1.9757.8846-1.9757 1.9757 0 1.0912.8845 1.9757 1.9757 1.9757z"/><path d="m34.2748 155.276c1.0912 0 1.9757-.885 1.9757-1.976s-.8845-1.975-1.9757-1.975c-1.0911 0-1.9757.884-1.9757 1.975s.8846 1.976 1.9757 1.976z"/><path d="m298.561 107.507c1.091 0 1.976-.884 1.976-1.976 0-1.091-.885-1.975-1.976-1.975s-1.976.884-1.976 1.975c0 1.092.885 1.976 1.976 1.976z"/><path d="m246.082 16.471c1.091 0 1.975-.8846 1.975-1.9757 0-1.0912-.884-1.9757-1.975-1.9757s-1.976.8845-1.976 1.9757c0 1.0911.885 1.9757 1.976 1.9757z"/><path d="m49.3109 102.872c.633 0 1.1461-.513 1.1461-1.146s-.5131-1.146-1.1461-1.146c-.6329 0-1.146.513-1.146 1.146s.5131 1.146 1.146 1.146z"/><path d="m128.107 211.313c.633 0 1.146-.513 1.146-1.146s-.513-1.146-1.146-1.146-1.146.513-1.146 1.146.513 1.146 1.146 1.146z"/><path d="m140.838 223.287c.633 0 1.146-.513 1.146-1.146s-.513-1.146-1.146-1.146-1.146.513-1.146 1.146.513 1.146 1.146 1.146z"/><path d="m303.78 143.446c.633 0 1.146-.513 1.146-1.146s-.513-1.146-1.146-1.146-1.146.513-1.146 1.146.513 1.146 1.146 1.146z"/><path d="m332.766 118.687c.803 0 1.454-.651 1.454-1.454s-.651-1.454-1.454-1.454-1.454.651-1.454 1.454.651 1.454 1.454 1.454z"/><path d="m277.644 181.626c.998 0 1.808-.809 1.808-1.808 0-.998-.81-1.807-1.808-1.807s-1.808.809-1.808 1.807c0 .999.81 1.808 1.808 1.808z"/><path d="m325.419 101.821c.633 0 1.147-.513 1.147-1.146s-.514-1.1462-1.147-1.1462c-.632 0-1.146.5132-1.146 1.1462s.514 1.146 1.146 1.146z"/><path d="m146.9 15.0733c.633 0 1.146-.5131 1.146-1.1461 0-.6329-.513-1.146-1.146-1.146s-1.146.5131-1.146 1.146c0 .633.513 1.1461 1.146 1.1461z"/></g><path d="m261.392 90.7662h-2.638c-1.577 0-2.855 1.2779-2.855 2.8543v17.5365c0 1.577 1.278 2.855 2.855 2.855h2.638c1.576 0 2.854-1.278 2.854-2.855v-17.5365c0-1.5764-1.278-2.8543-2.854-2.8543z" fill="#1b2243"/><path d="m247.086 64.7426-48.869.5839-48.869-.5839s10.262-5.1023 12.263-14.6368c1.445-6.8636 2.948-19.0018 3.676-25.2337.287-2.4793 1.962-4.5758 4.317-5.3895 6.921-2.4027 16.733-4.8534 28.613-4.9873 11.88.1339 21.692 2.5846 28.613 4.9873 2.355.8137 4.03 2.9102 4.317 5.3895.728 6.2319 2.231 18.3701 3.676 25.2337 2.001 9.5345 12.263 14.6368 12.263 14.6368z" fill="#4a5688"/><path d="m247.086 195.593-48.869-.584-48.869.584s10.262 5.102 12.263 14.637c1.445 6.863 2.948 19.002 3.676 25.233.287 2.48 1.962 4.576 4.317 5.39 6.921 2.403 16.733 4.853 28.613 4.987 11.88-.134 21.692-2.584 28.613-4.987 2.355-.814 4.03-2.91 4.317-5.39.728-6.231 2.231-18.37 3.676-25.233 2.001-9.535 12.263-14.637 12.263-14.637z" fill="#4a5688"/><path d="m238.864 62.7397h-81.294c-10.842 0-19.632 8.7897-19.632 19.6325v95.5908c0 10.843 8.79 19.633 19.632 19.633h81.294c10.843 0 19.632-8.79 19.632-19.633v-95.5908c0-10.8428-8.789-19.6325-19.632-19.6325z" fill="#0d142d"/><path d="m234.886 68.0158h-73.337c-9.059 0-16.403 7.3436-16.403 16.4024v91.4988c0 9.059 7.344 16.403 16.403 16.403h73.337c9.058 0 16.402-7.344 16.402-16.403v-91.4988c0-9.0588-7.344-16.4024-16.402-16.4024z" fill="#e1e5ed"/><path d="m234.886 68.0158h-73.337c-9.059 0-16.403 7.3436-16.403 16.4024v91.4988c0 9.059 7.344 16.403 16.403 16.403h73.337c9.058 0 16.402-7.344 16.402-16.403v-91.4988c0-9.0588-7.344-16.4024-16.402-16.4024z" fill="url(#f)"/><g opacity=".7"><path d="m238.071 131.574h-78.942c-1.728 0-3.129 1.401-3.129 3.129v14.567c0 1.728 1.401 3.129 3.129 3.129h78.942c1.728 0 3.129-1.401 3.129-3.129v-14.567c0-1.728-1.401-3.129-3.129-3.129z" fill="#4a5688"/><path d="m238.071 131.574h-78.942c-1.728 0-3.129 1.401-3.129 3.129v14.567c0 1.728 1.401 3.129 3.129 3.129h78.942c1.728 0 3.129-1.401 3.129-3.129v-14.567c0-1.728-1.401-3.129-3.129-3.129z" fill="url(#h)"/></g><g opacity=".7"><path d="m238.071 155.375h-78.942c-1.728 0-3.129 1.401-3.129 3.129v14.567c0 1.728 1.401 3.129 3.129 3.129h78.942c1.728 0 3.129-1.401 3.129-3.129v-14.567c0-1.728-1.401-3.129-3.129-3.129z" fill="#4a5688"/><path d="m238.071 155.375h-78.942c-1.728 0-3.129 1.401-3.129 3.129v14.567c0 1.728 1.401 3.129 3.129 3.129h78.942c1.728 0 3.129-1.401 3.129-3.129v-14.567c0-1.728-1.401-3.129-3.129-3.129z" fill="url(#i)"/></g><path d="m183.502 146.036h-1.248c-.14 0-.256-.034-.348-.102-.088-.072-.152-.16-.192-.264l-.648-1.77h-3.594l-.648 1.77c-.032.092-.096.176-.192.252-.092.076-.206.114-.342.114h-1.254l3.408-8.676h1.65zm-5.616-3.276h2.766l-1.056-2.886c-.048-.128-.102-.278-.162-.45-.056-.176-.112-.366-.168-.57-.056.204-.112.394-.168.57-.052.176-.104.33-.156.462zm6.426 5.286v-8.166h.906c.096 0 .178.022.246.066s.112.112.132.204l.12.57c.248-.284.532-.514.852-.69.324-.176.702-.264 1.134-.264.336 0 .642.07.918.21.28.14.52.344.72.612.204.264.36.592.468.984.112.388.168.834.168 1.338 0 .46-.062.886-.186 1.278s-.302.732-.534 1.02c-.228.288-.506.514-.834.678-.324.16-.688.24-1.092.24-.348 0-.644-.052-.888-.156-.24-.108-.456-.256-.648-.444v2.52zm2.88-7.11c-.308 0-.572.066-.792.198-.216.128-.418.31-.606.546v2.76c.168.208.35.354.546.438.2.08.414.12.642.12.224 0 .426-.042.606-.126.184-.084.338-.212.462-.384.128-.172.226-.388.294-.648.068-.264.102-.574.102-.93 0-.36-.03-.664-.09-.912-.056-.252-.138-.456-.246-.612s-.24-.27-.396-.342c-.152-.072-.326-.108-.522-.108zm3.905 7.11v-8.166h.906c.096 0 .178.022.246.066s.112.112.132.204l.12.57c.248-.284.532-.514.852-.69.324-.176.702-.264 1.134-.264.336 0 .642.07.918.21.28.14.52.344.72.612.204.264.36.592.468.984.112.388.168.834.168 1.338 0 .46-.062.886-.186 1.278s-.302.732-.534 1.02c-.228.288-.506.514-.834.678-.324.16-.688.24-1.092.24-.348 0-.644-.052-.888-.156-.24-.108-.456-.256-.648-.444v2.52zm2.88-7.11c-.308 0-.572.066-.792.198-.216.128-.418.31-.606.546v2.76c.168.208.35.354.546.438.2.08.414.12.642.12.224 0 .426-.042.606-.126.184-.084.338-.212.462-.384.128-.172.226-.388.294-.648.068-.264.102-.574.102-.93 0-.36-.03-.664-.09-.912-.056-.252-.138-.456-.246-.612s-.24-.27-.396-.342c-.152-.072-.326-.108-.522-.108zm3.905 5.1v-6.156h.87c.152 0 .258.028.318.084s.1.152.12.288l.09.744c.22-.38.478-.68.774-.9s.628-.33.996-.33c.304 0 .556.07.756.21l-.192 1.11c-.012.072-.038.124-.078.156-.04.028-.094.042-.162.042-.06 0-.142-.014-.246-.042s-.242-.042-.414-.042c-.308 0-.572.086-.792.258-.22.168-.406.416-.558.744v3.834zm7.526-6.252c.46 0 .876.074 1.248.222.376.148.696.358.96.63s.468.604.612.996.216.83.216 1.314c0 .488-.072.928-.216 1.32s-.348.726-.612 1.002-.584.488-.96.636c-.372.148-.788.222-1.248.222s-.878-.074-1.254-.222-.698-.36-.966-.636c-.264-.276-.47-.61-.618-1.002-.144-.392-.216-.832-.216-1.32 0-.484.072-.922.216-1.314.148-.392.354-.724.618-.996.268-.272.59-.482.966-.63s.794-.222 1.254-.222zm0 5.202c.512 0 .89-.172 1.134-.516.248-.344.372-.848.372-1.512s-.124-1.17-.372-1.518c-.244-.348-.622-.522-1.134-.522-.52 0-.904.176-1.152.528-.248.348-.372.852-.372 1.512s.124 1.164.372 1.512c.248.344.632.516 1.152.516zm7.077 1.05h-1.344l-2.448-6.156h1.23c.108 0 .198.026.27.078.076.052.128.118.156.198l1.188 3.288c.068.192.124.38.168.564.048.184.09.368.126.552.036-.184.076-.368.12-.552.048-.184.108-.372.18-.564l1.218-3.288c.028-.08.078-.146.15-.198s.158-.078.258-.078h1.17zm5.66-6.252c.388 0 .744.062 1.068.186.328.124.61.306.846.546.236.236.42.528.552.876.132.344.198.738.198 1.182 0 .112-.006.206-.018.282-.008.072-.026.13-.054.174-.024.04-.058.07-.102.09-.044.016-.1.024-.168.024h-3.804c.044.632.214 1.096.51 1.392s.688.444 1.176.444c.24 0 .446-.028.618-.084.176-.056.328-.118.456-.186.132-.068.246-.13.342-.186.1-.056.196-.084.288-.084.06 0 .112.012.156.036s.082.058.114.102l.432.54c-.164.192-.348.354-.552.486-.204.128-.418.232-.642.312-.22.076-.446.13-.678.162-.228.032-.45.048-.666.048-.428 0-.826-.07-1.194-.21-.368-.144-.688-.354-.96-.63-.272-.28-.486-.624-.642-1.032-.156-.412-.234-.888-.234-1.428 0-.42.068-.814.204-1.182.136-.372.33-.694.582-.966.256-.276.566-.494.93-.654.368-.16.782-.24 1.242-.24zm.03 1.062c-.432 0-.77.122-1.014.366s-.4.59-.468 1.038h2.784c0-.192-.026-.372-.078-.54-.052-.172-.132-.322-.24-.45s-.244-.228-.408-.3c-.164-.076-.356-.114-.576-.114z" fill="#bcc9d8"/><path d="m192.58 165.179c0 .636-.106 1.22-.318 1.752s-.51.99-.894 1.374-.846.682-1.386.894-1.138.318-1.794.318h-3.312v-8.676h3.312c.656 0 1.254.108 1.794.324.54.212 1.002.51 1.386.894.384.38.682.836.894 1.368s.318 1.116.318 1.752zm-1.65 0c0-.476-.064-.902-.192-1.278-.128-.38-.31-.7-.546-.96-.236-.264-.524-.466-.864-.606-.336-.14-.716-.21-1.14-.21h-1.686v6.108h1.686c.424 0 .804-.07 1.14-.21.34-.14.628-.34.864-.6.236-.264.418-.584.546-.96.128-.38.192-.808.192-1.284zm5.371-1.914c.388 0 .744.062 1.068.186.328.124.61.306.846.546.236.236.42.528.552.876.132.344.198.738.198 1.182 0 .112-.006.206-.018.282-.008.072-.026.13-.054.174-.024.04-.058.07-.102.09-.044.016-.1.024-.168.024h-3.804c.044.632.214 1.096.51 1.392s.688.444 1.176.444c.24 0 .446-.028.618-.084.176-.056.328-.118.456-.186.132-.068.246-.13.342-.186.1-.056.196-.084.288-.084.06 0 .112.012.156.036s.082.058.114.102l.432.54c-.164.192-.348.354-.552.486-.204.128-.418.232-.642.312-.22.076-.446.13-.678.162-.228.032-.45.048-.666.048-.428 0-.826-.07-1.194-.21-.368-.144-.688-.354-.96-.63-.272-.28-.486-.624-.642-1.032-.156-.412-.234-.888-.234-1.428 0-.42.068-.814.204-1.182.136-.372.33-.694.582-.966.256-.276.566-.494.93-.654.368-.16.782-.24 1.242-.24zm.03 1.062c-.432 0-.77.122-1.014.366s-.4.59-.468 1.038h2.784c0-.192-.026-.372-.078-.54-.052-.172-.132-.322-.24-.45s-.244-.228-.408-.3c-.164-.076-.356-.114-.576-.114zm3.836 5.19v-6.156h.906c.192 0 .318.09.378.27l.102.486c.124-.128.254-.244.39-.348.14-.104.286-.194.438-.27.156-.076.322-.134.498-.174s.368-.06.576-.06c.336 0 .634.058.894.174.26.112.476.272.648.48.176.204.308.45.396.738.092.284.138.598.138.942v3.918h-1.482v-3.918c0-.376-.088-.666-.264-.87-.172-.208-.432-.312-.78-.312-.256 0-.496.058-.72.174s-.436.274-.636.474v4.452zm8.793 1.692c-.044.104-.102.182-.174.234-.068.056-.174.084-.318.084h-1.104l1.152-2.466-2.49-5.7h1.296c.12 0 .212.028.276.084s.112.12.144.192l1.314 3.192c.044.104.082.212.114.324s.06.224.084.336c.032-.116.066-.228.102-.336.04-.108.082-.218.126-.33l1.236-3.186c.032-.08.084-.146.156-.198.076-.052.16-.078.252-.078h1.188z" fill="#bcc9d8"/><g filter="url(#c)"><path d="m199 125c11.046 0 20-8.954 20-20 0-11.0457-8.954-20-20-20s-20 8.9543-20 20c0 11.046 8.954 20 20 20z" fill="#252e4f"/></g><g clip-rule="evenodd" fill="#bcc9d8" fill-rule="evenodd" opacity=".8"><path d="m193.241 105.001c0-3.088 2.516-5.5999 5.609-5.6001 3.092.0002 5.609 2.5121 5.609 5.6001s-2.516 5.599-5.609 5.599-5.609-2.511-5.609-5.599zm2.309 0c0 1.814 1.481 3.29 3.3 3.29 1.82 0 3.3-1.476 3.3-3.29 0-1.815-1.481-3.291-3.301-3.291-1.819 0-3.299 1.476-3.299 3.291z"/><path d="m209.418 106.63 2.73 2.325c.094.067.163.165.193.277s.021.232-.027.337c-.556 1.683-1.516 3.281-2.701 4.606-.149.17-.352.244-.552.19l-.074-.025-3.439-1.177c-.755.608-1.599 1.11-2.499 1.49l-.341.137-.682 3.5c-.024.114-.082.219-.167.3-.084.08-.192.133-.307.152-.891.162-1.783.258-2.701.258-.919 0-1.81-.096-2.702-.258-.103-.017-.2-.06-.28-.127s-.141-.155-.175-.253l-.019-.072-.681-3.5c-.927-.348-1.799-.829-2.59-1.424l-.251-.203-3.439 1.177c-.222.095-.458.026-.626-.165-1.184-1.325-2.145-2.923-2.701-4.606-.042-.093-.054-.198-.035-.299s.068-.193.141-.266l.061-.049 2.729-2.325c-.092-.537-.134-1.082-.127-1.627 0-.436.018-.883.075-1.31l.052-.315-2.73-2.323c-.095-.067-.164-.166-.194-.278s-.021-.231.027-.336c.556-1.6821 1.516-3.2824 2.701-4.6092.064-.0802.15-.1406.248-.1747.098-.033.203-.0385.303-.0142l.076.0241 3.439 1.175c.766-.6232 1.619-1.1288 2.532-1.5025l.309-.1231.681-3.4976c.024-.1154.082-.2198.166-.3011.085-.0802.193-.133.308-.1506 1.783-.3561 3.619-.3561 5.402 0l.001.0011c.103.0154.2.0593.28.1264.08.067.14.1539.174.2528l.02.0726.681 3.4974c.911.3496 1.77.8222 2.554 1.4047l.285.221 3.441-1.1739c.222-.0967.458-.0274.625.1626 1.183 1.3268 2.145 2.9271 2.702 4.6092.042.093.055.197.035.299-.019.1-.068.193-.141.265l-.06.05-2.73 2.322c.097.518.126 1.08.126 1.626 0 .44-.019.885-.076 1.312zm-18.777-1.629c0 4.524 3.675 8.192 8.209 8.192s8.209-3.668 8.209-8.192-3.675-8.1927-8.21-8.193c-4.535.0003-8.208 3.669-8.208 8.193z"/></g><g filter="url(#d)"><path d="m272.091 97.7175c21.399 0 38.747-17.3478 38.747-38.7475s-17.348-38.7475-38.747-38.7475c-21.4 0-38.748 17.3478-38.748 38.7475s17.348 38.7475 38.748 38.7475z" fill="#334368"/><path d="m272.091 90.5142c17.421 0 31.544-14.1228 31.544-31.5442s-14.123-31.5442-31.544-31.5442c-17.422 0-31.544 14.1228-31.544 31.5442s14.122 31.5442 31.544 31.5442z" fill="#0d1435"/><g fill="#bcc9d8" opacity=".7"><path d="m252.906 47.2821c-.232 0-.466-.0869-.646-.2606-.372-.3568-.384-.9477-.027-1.3191 1.992-2.0724 9.371-8.8396 20.677-8.9152.065 0 .13-.0006.195-.0006 10.385 0 17.379 5.5641 19.915 7.9675.374.3548.39.945.035 1.319-.356.3747-.945.3893-1.319.0352-2.372-2.2495-8.918-7.4555-18.632-7.4555-.06 0-.12 0-.181.0006-10.576.0703-17.481 6.4031-19.345 8.3422-.183.1904-.427.2865-.672.2865z"/><path d="m251.803 64.3565h-.01c-.516-.0066-.929-.4291-.922-.9444.069-5.8062 2.423-11.2416 6.627-15.3036 4.129-3.9898 9.441-6.1053 15.072-5.9966 11.199.2467 20.308 9.3503 20.741 20.7252.02.5147-.382.9477-.897.9676-.517.0159-.947-.3826-.968-.8973-.394-10.3901-8.704-18.7051-18.917-18.9306-5.134-.1021-9.969 1.8324-13.736 5.4733-3.842 3.7131-5.993 8.6797-6.057 13.9846-.005.5113-.422.9218-.933.9218z"/><path d="m283.492 81.149c-.019 0-.036-.0007-.055-.002-2.956-.1658-8.556-1.1221-12.828-5.6563-3.348-3.5533-6.83-10.6229-4.088-15.2161.411-.6871 1.598-2.3583 3.76-3.054 2.126-.6857 4.568-.2679 6.218 1.0631 1.694 1.3648 1.911 3.1475 2.102 4.7206.164 1.3422.304 2.5015 1.292 3.357 1.504 1.3038 4.253 1.4384 5.765.2799 1.528-1.1699 1.819-3.8843.823-7.6432-1.087-4.0939-4.3-7.6426-8.384-9.2634-4.757-1.8868-10.462-.9915-14.537 2.28-3.507 2.8186-5.371 7.043-5.541 12.5561-.086 2.7642.453 5.4945 1.605 8.1174.207.4715-.008 1.022-.479 1.2289-.467.2069-1.02-.006-1.23-.4795-1.262-2.8782-1.855-5.8811-1.761-8.9245.187-6.0827 2.285-10.7774 6.238-13.9534 4.586-3.684 11.023-4.6887 16.392-2.5592 4.624 1.835 8.264 5.8638 9.5 10.5161 1.541 5.8148.04 8.433-1.491 9.6062-2.224 1.7004-5.939 1.5386-8.123-.3515-1.53-1.3263-1.737-3.0347-1.92-4.5415-.171-1.3973-.317-2.6036-1.421-3.4936-1.158-.9331-2.956-1.2289-4.478-.7395-1.601.5153-2.493 1.841-2.728 2.235-2.009 3.365.431 9.3575 3.844 12.9792 3.829 4.0633 8.896 4.9228 11.576 5.074.514.0285.908.4689.879.9835-.028.4967-.44.8807-.93.8807z"/><path d="m270.565 81.1536c-.166 0-.334-.0444-.485-.1379-2.21-1.3536-7.504-5.2518-8.957-12.2006-.437-2.0838-1.595-7.6174 2.108-12.1947 2.639-3.2589 6.745-4.9759 10.755-4.4851 3.497.4331 6.28 2.1069 7.837 4.7139 1.549 2.5937 1.418 5.2697 1.202 6.6332-.081.5093-.573.8535-1.068.7753-.509-.0803-.855-.5584-.776-1.0671.178-1.1148.288-3.296-.96-5.3851-1.255-2.1016-3.551-3.4578-6.462-3.8186-3.32-.4025-6.875 1.087-9.076 3.8074-3.148 3.8882-2.121 8.7918-1.735 10.6381 1.306 6.2386 6.104 9.7661 8.105 10.993.44.2692.578.8435.309 1.2826-.176.2871-.483.4456-.797.4456z"/><path d="m284.162 75.6014c-1.711 0-3.949-.3296-6.236-1.5949-1.261-.6977-4.353-2.7469-5.773-6.6889-.507-1.4079-.748-2.8961-.717-4.4215.011-.5153.495-.9523.953-.9132.514.0107.923.4371.912.9517-.026 1.2965.178 2.5586.608 3.7503 1.205 3.3458 3.842 5.0926 4.921 5.6888 2.368 1.3105 4.682 1.4458 6.206 1.329.493-.0464.961.3442 1.001.8582.04.5133-.345.9623-.858 1.0014-.312.0245-.653.0391-1.017.0391z"/></g></g></g></svg>