<svg width="350" height="250" viewBox="0 0 350 250" fill="none" xmlns="http://www.w3.org/2000/svg">
<g clip-path="url(#clip0_9_535)">
<path opacity="0.17" d="M28.0375 63.0799C48.0621 49.2646 67.9471 68.3105 111.39 63.1501C171.812 55.9729 178.356 8.34724 234.719 4.39601C241.542 3.9177 285.584 1.51601 315.644 33.013C341.818 60.4395 340.997 96.3913 340.821 104.112C339.247 172.98 268.449 212.115 265.19 213.835C263.999 214.464 263.064 214.941 262.428 215.265C183.609 255.437 65.2659 231.282 25.725 167.966C3.98794 133.158 2.45299 80.7312 28.0375 63.0799Z" fill="#303E68"/>
<g filter="url(#filter0_d_9_535)">
<path d="M153.034 65.272L119.15 179.159C118.91 179.87 118.084 182.013 115.828 183.525C113.079 185.366 110.203 184.932 109.577 184.822C92.7665 181.08 75.9564 177.338 59.1463 173.596C57.6904 173.029 56.2348 172.462 54.7789 171.895C72.0205 175.664 89.2622 179.434 106.504 183.204C110.06 183.971 113.872 181.559 114.983 177.836L148.867 63.9496C149.733 61.0157 148.678 58.1041 146.444 56.626C146.077 56.3816 145.677 56.1815 145.244 56.0148L148.578 57.0928C152.134 57.8707 154.145 61.5491 153.034 65.272Z" fill="#252E4F"/>
<path d="M84.6841 228.889L53.7184 222.286C49.8779 221.467 47.63 217.69 48.7231 213.893L60.9232 171.512C62.0163 167.715 66.0529 165.279 69.8934 166.097L100.859 172.701C104.7 173.519 106.947 177.296 105.854 181.093L93.6542 223.474C92.5611 227.271 88.5246 229.708 84.6841 228.889Z" fill="#0D1435"/>
<path d="M85.9404 228.889L54.9747 222.286C51.1342 221.467 48.8863 217.69 49.9794 213.893L62.1796 171.512C63.2726 167.715 67.3092 165.279 71.1497 166.097L102.115 172.701C105.956 173.519 108.204 177.296 107.111 181.093L94.9106 223.474C93.8175 227.271 89.7809 229.708 85.9404 228.889Z" fill="#0D1435"/>
<path d="M82.5142 227.868L51.5485 221.265C47.708 220.446 45.4601 216.669 46.5532 212.872L58.7533 170.491C59.8464 166.694 63.883 164.257 67.7235 165.076L98.6892 171.679C102.53 172.498 104.778 176.275 103.684 180.072L91.4843 222.453C90.3912 226.25 86.3547 228.687 82.5142 227.868Z" fill="#252E4F"/>
<path d="M103.498 181.145C102.675 184.156 101.864 187.168 101.042 190.168C98.5414 189.613 96.0299 189.068 93.5294 188.513C91.2178 188.001 88.8954 187.49 86.5838 186.979C86.0726 186.868 85.5615 186.757 85.0503 186.646C82.7387 186.134 80.4271 185.623 78.1158 185.112C77.6711 185.023 77.2267 184.923 76.7822 184.823C74.4706 184.312 72.159 183.801 69.8474 183.301C67.8139 182.845 65.7801 182.4 63.7464 181.956L61.7017 181.422L61.6795 181.5C59.7681 181.078 57.8564 180.656 55.9453 180.233C56.6897 177.288 57.4342 174.343 58.1679 171.41C73.2815 174.655 88.3842 177.9 103.498 181.145Z" fill="#1B2243"/>
<path d="M63.7464 181.956C63.0575 181.8 62.3684 181.645 61.6795 181.5L61.7018 181.422L63.7464 181.956Z" fill="#572DD1"/>
<path d="M68.617 183.026C65.3821 194.197 62.1472 205.368 58.9123 216.54L52.0443 214.751L61.6795 181.5C62.3684 181.652 63.0575 181.804 63.7464 181.956C65.3699 182.313 66.9935 182.669 68.617 183.026Z" fill="#7E8493"/>
<path d="M93.5294 188.513L83.8389 222.141L76.9711 220.363L86.5838 186.979C88.8954 187.49 91.2178 188.001 93.5294 188.513Z" fill="#7E8493"/>
<path d="M76.7822 184.823L68.1916 214.406L61.3238 212.628L69.8474 183.301C72.159 183.801 74.4706 184.312 76.7822 184.823Z" fill="#7E8493"/>
<path d="M85.0503 186.646L76.3709 216.54L69.5031 214.751L78.1157 185.112C80.4271 185.623 82.7387 186.134 85.0503 186.646Z" fill="#7E8493"/>
<path d="M145.316 56.1004C144.95 55.856 144.55 55.6559 144.116 55.4892C143.849 55.3892 143.572 55.3114 143.283 55.2447L92.2626 44.1317C88.7065 43.3648 84.8834 45.7764 83.7721 49.4993L49.8995 163.386C48.7882 167.109 50.7886 170.787 54.3447 171.565L56.4786 172.032L105.376 182.678C108.932 183.445 112.744 181.033 113.855 177.311L147.739 63.424C148.606 60.4901 147.55 57.5785 145.316 56.1004ZM119.734 71.9588C118.034 76.3262 113.611 78.6711 109.844 77.2153C106.087 75.7483 104.398 71.0253 106.098 66.669C107.788 62.3127 112.211 59.9567 115.978 61.4236C119.745 62.8905 121.423 67.6024 119.734 71.9588Z" fill="#252E4F"/>
<path opacity="0.6" d="M145.316 56.1004C144.95 55.856 144.55 55.6559 144.116 55.4892C143.849 55.3892 143.572 55.3114 143.283 55.2447L92.2626 44.1317C88.7065 43.3648 84.8834 45.7764 83.7721 49.4993L49.8995 163.386C48.7882 167.109 50.7886 170.787 54.3447 171.565L56.4786 172.032L105.376 182.678C108.932 183.445 112.744 181.033 113.855 177.311L147.739 63.424C148.606 60.4901 147.55 57.5785 145.316 56.1004ZM119.734 71.9588C118.034 76.3262 113.611 78.6711 109.844 77.2153C106.087 75.7483 104.398 71.0253 106.098 66.669C107.788 62.3127 112.211 59.9567 115.978 61.4236C119.745 62.8905 121.423 67.6024 119.734 71.9588Z" fill="url(#paint1_linear_9_535)"/>
<path d="M151.906 64.7464L118.023 178.633C117.782 179.344 116.956 181.488 114.7 182.999C111.951 184.84 109.076 184.406 108.449 184.296C91.6389 180.554 74.8288 176.813 58.0186 173.071C56.5628 172.503 55.1072 171.936 53.6513 171.369C70.8928 175.139 88.1346 178.908 105.376 182.678C108.932 183.445 112.744 181.033 113.855 177.311L147.739 63.424C148.606 60.4901 147.55 57.5785 145.316 56.1004C144.95 55.856 144.55 55.6559 144.116 55.4892L147.45 56.5672C151.006 57.3451 153.018 61.0235 151.906 64.7464Z" fill="#0D1435"/>
<path d="M115.278 58.2119C110.032 56.1782 104.087 58.901 101.987 64.3019C99.8861 69.7028 102.442 75.7261 107.687 77.7598C109.621 78.5155 111.655 78.6155 113.555 78.171C113.577 78.171 113.6 78.171 113.611 78.1598C116.789 77.4042 119.601 75.1037 120.923 71.7698C120.945 71.7365 120.957 71.7032 120.968 71.6698C123.068 66.2689 120.512 60.2456 115.278 58.2119ZM119.734 71.9588C118.034 76.3262 113.611 78.6711 109.844 77.2153C106.087 75.7483 104.398 71.0253 106.098 66.669C107.788 62.3127 112.211 59.9567 115.978 61.4236C119.745 62.8905 121.423 67.6024 119.734 71.9588Z" fill="#0D1435"/>
<path d="M116.278 59.9122C111.844 58.1897 106.687 60.7791 104.776 65.7133C102.864 70.6363 104.909 76.0261 109.354 77.7487C110.732 78.2821 112.166 78.4044 113.555 78.171C113.577 78.171 113.6 78.171 113.611 78.1598C116.7 77.6264 119.545 75.3371 120.857 71.9588C120.879 71.8921 120.901 71.8366 120.923 71.7698C122.712 66.8912 120.667 61.6125 116.278 59.9122ZM109.844 77.2153C106.087 75.7483 104.398 71.0253 106.098 66.669C107.788 62.3127 112.211 59.9567 115.978 61.4236C119.745 62.8905 121.423 67.6024 119.734 71.9588C118.034 76.3262 113.611 78.6711 109.844 77.2153Z" fill="#7E8493"/>
<path d="M113.081 127.474C116.952 117.506 112.244 106.379 102.566 102.621C92.8879 98.8626 81.9045 103.897 78.0338 113.866C74.163 123.834 78.8708 134.961 88.5488 138.719C98.2269 142.477 109.21 137.443 113.081 127.474Z" fill="#0D1435"/>
<path d="M112.683 128.5C116.322 119.127 112.123 108.751 103.304 105.327C94.4839 101.902 84.3834 106.725 80.7436 116.098C77.1038 125.472 81.303 135.847 90.1227 139.272C98.9424 142.697 109.043 137.874 112.683 128.5Z" fill="#FFEA83"/>
<path d="M112.683 128.5C116.322 119.127 112.123 108.751 103.304 105.327C94.4839 101.902 84.3834 106.725 80.7436 116.098C77.1038 125.472 81.303 135.847 90.1227 139.272C98.9424 142.697 109.043 137.874 112.683 128.5Z" fill="#7E8493"/>
<path d="M92.7356 113.088L96.4098 114.081L96.7131 121.429L101.607 115.107L105.182 115.901L94.3576 130.168L90.5179 129.373L93.5632 125.434L92.7356 113.088Z" fill="#0D1435"/>
<path d="M101.65 111.885C101.58 111.885 101.509 111.859 101.456 111.806C101.231 111.586 100.75 111.195 100.035 111.036C99.319 110.879 98.709 111.032 98.41 111.139C98.2643 111.188 98.105 111.115 98.0549 110.971C98.0034 110.826 98.0777 110.668 98.2219 110.615C98.6559 110.46 99.3418 110.314 100.157 110.493C100.962 110.673 101.519 111.091 101.844 111.41C101.953 111.517 101.955 111.693 101.849 111.802C101.794 111.858 101.721 111.885 101.65 111.885Z" fill="#0D1435"/>
<path d="M102.7 110.506C102.63 110.506 102.559 110.479 102.504 110.426C102.17 110.096 101.451 109.518 100.384 109.348C99.5087 109.208 98.7833 109.397 98.3266 109.579C98.187 109.634 98.0231 109.567 97.9654 109.425C97.9078 109.282 97.9776 109.12 98.1202 109.064C98.6422 108.855 99.4753 108.64 100.472 108.799C101.691 108.994 102.513 109.654 102.896 110.03C103.005 110.138 103.005 110.314 102.897 110.423C102.844 110.479 102.771 110.506 102.7 110.506Z" fill="#0D1435"/>
<path d="M103.815 109.293C103.745 109.293 103.677 109.267 103.623 109.215C103.17 108.78 102.199 108.016 100.771 107.785C99.6103 107.596 98.6331 107.836 98.0216 108.071C97.8835 108.124 97.7181 108.054 97.6634 107.911C97.6088 107.768 97.6801 107.607 97.8243 107.552C98.4996 107.293 99.5785 107.029 100.859 107.237C102.437 107.491 103.509 108.335 104.008 108.815C104.119 108.921 104.122 109.097 104.016 109.208C103.961 109.265 103.888 109.293 103.815 109.293Z" fill="#0D1435"/>
</g>
<g opacity="0.8" filter="url(#filter1_d_9_535)">
<path d="M40.8943 94.3597C41.9854 94.3597 42.87 93.4752 42.87 92.384C42.87 91.2929 41.9854 90.4083 40.8943 90.4083C39.8031 90.4083 38.9186 91.2929 38.9186 92.384C38.9186 93.4752 39.8031 94.3597 40.8943 94.3597Z" fill="white"/>
<path d="M34.2748 155.276C35.366 155.276 36.2505 154.391 36.2505 153.3C36.2505 152.209 35.366 151.325 34.2748 151.325C33.1837 151.325 32.2991 152.209 32.2991 153.3C32.2991 154.391 33.1837 155.276 34.2748 155.276Z" fill="white"/>
<path d="M298.561 107.507C299.652 107.507 300.537 106.623 300.537 105.531C300.537 104.44 299.652 103.556 298.561 103.556C297.47 103.556 296.585 104.44 296.585 105.531C296.585 106.623 297.47 107.507 298.561 107.507Z" fill="white"/>
<path d="M246.082 16.471C247.173 16.471 248.057 15.5864 248.057 14.4953C248.057 13.4041 247.173 12.5196 246.082 12.5196C244.991 12.5196 244.106 13.4041 244.106 14.4953C244.106 15.5864 244.991 16.471 246.082 16.471Z" fill="white"/>
<path d="M49.3109 102.872C49.9439 102.872 50.457 102.359 50.457 101.726C50.457 101.093 49.9439 100.58 49.3109 100.58C48.678 100.58 48.1649 101.093 48.1649 101.726C48.1649 102.359 48.678 102.872 49.3109 102.872Z" fill="white"/>
<path d="M128.107 211.313C128.74 211.313 129.253 210.8 129.253 210.167C129.253 209.534 128.74 209.021 128.107 209.021C127.474 209.021 126.961 209.534 126.961 210.167C126.961 210.8 127.474 211.313 128.107 211.313Z" fill="white"/>
<path d="M140.838 223.287C141.471 223.287 141.984 222.774 141.984 222.141C141.984 221.508 141.471 220.995 140.838 220.995C140.205 220.995 139.692 221.508 139.692 222.141C139.692 222.774 140.205 223.287 140.838 223.287Z" fill="white"/>
<path d="M303.78 143.446C304.413 143.446 304.926 142.933 304.926 142.3C304.926 141.667 304.413 141.154 303.78 141.154C303.147 141.154 302.634 141.667 302.634 142.3C302.634 142.933 303.147 143.446 303.78 143.446Z" fill="white"/>
<path d="M332.766 118.687C333.569 118.687 334.22 118.036 334.22 117.233C334.22 116.43 333.569 115.779 332.766 115.779C331.963 115.779 331.312 116.43 331.312 117.233C331.312 118.036 331.963 118.687 332.766 118.687Z" fill="white"/>
<path d="M277.644 181.626C278.642 181.626 279.452 180.817 279.452 179.818C279.452 178.82 278.642 178.011 277.644 178.011C276.646 178.011 275.836 178.82 275.836 179.818C275.836 180.817 276.646 181.626 277.644 181.626Z" fill="white"/>
<path d="M325.419 101.821C326.052 101.821 326.566 101.308 326.566 100.675C326.566 100.042 326.052 99.5288 325.419 99.5288C324.787 99.5288 324.273 100.042 324.273 100.675C324.273 101.308 324.787 101.821 325.419 101.821Z" fill="white"/>
<path d="M146.9 15.0733C147.533 15.0733 148.046 14.5602 148.046 13.9272C148.046 13.2943 147.533 12.7812 146.9 12.7812C146.267 12.7812 145.754 13.2943 145.754 13.9272C145.754 14.5602 146.267 15.0733 146.9 15.0733Z" fill="white"/>
</g>
<path d="M261.392 90.7662H258.754C257.177 90.7662 255.899 92.0441 255.899 93.6205V111.157C255.899 112.734 257.177 114.012 258.754 114.012H261.392C262.968 114.012 264.246 112.734 264.246 111.157V93.6205C264.246 92.0441 262.968 90.7662 261.392 90.7662Z" fill="#1B2243"/>
<path d="M247.086 64.7426L198.217 65.3265L149.348 64.7426C149.348 64.7426 159.61 59.6403 161.611 50.1058C163.056 43.2422 164.559 31.104 165.287 24.8721C165.574 22.3928 167.249 20.2963 169.604 19.4826C176.525 17.0799 186.337 14.6292 198.217 14.4953C210.097 14.6292 219.909 17.0799 226.83 19.4826C229.185 20.2963 230.86 22.3928 231.147 24.8721C231.875 31.104 233.378 43.2422 234.823 50.1058C236.824 59.6403 247.086 64.7426 247.086 64.7426Z" fill="#4A5688"/>
<path d="M247.086 195.593L198.217 195.009L149.348 195.593C149.348 195.593 159.61 200.695 161.611 210.23C163.056 217.093 164.559 229.232 165.287 235.463C165.574 237.943 167.249 240.039 169.604 240.853C176.525 243.256 186.337 245.706 198.217 245.84C210.097 245.706 219.909 243.256 226.83 240.853C229.185 240.039 230.86 237.943 231.147 235.463C231.875 229.232 233.378 217.093 234.823 210.23C236.824 200.695 247.086 195.593 247.086 195.593Z" fill="#4A5688"/>
<path d="M238.864 62.7397H157.57C146.728 62.7397 137.938 71.5294 137.938 82.3722V177.963C137.938 188.806 146.728 197.596 157.57 197.596H238.864C249.707 197.596 258.496 188.806 258.496 177.963V82.3722C258.496 71.5294 249.707 62.7397 238.864 62.7397Z" fill="#0D142D"/>
<path d="M234.886 68.0158H161.549C152.49 68.0158 145.146 75.3594 145.146 84.4182V175.917C145.146 184.976 152.49 192.32 161.549 192.32H234.886C243.944 192.32 251.288 184.976 251.288 175.917V84.4182C251.288 75.3594 243.944 68.0158 234.886 68.0158Z" fill="#E1E5ED"/>
<path d="M234.886 68.0158H161.549C152.49 68.0158 145.146 75.3594 145.146 84.4182V175.917C145.146 184.976 152.49 192.32 161.549 192.32H234.886C243.944 192.32 251.288 184.976 251.288 175.917V84.4182C251.288 75.3594 243.944 68.0158 234.886 68.0158Z" fill="url(#paint2_linear_9_535)"/>
<g opacity="0.7">
<path d="M238.071 131.574H159.129C157.401 131.574 156 132.975 156 134.703V149.27C156 150.998 157.401 152.399 159.129 152.399H238.071C239.799 152.399 241.2 150.998 241.2 149.27V134.703C241.2 132.975 239.799 131.574 238.071 131.574Z" fill="#4A5688"/>
<path d="M238.071 131.574H159.129C157.401 131.574 156 132.975 156 134.703V149.27C156 150.998 157.401 152.399 159.129 152.399H238.071C239.799 152.399 241.2 150.998 241.2 149.27V134.703C241.2 132.975 239.799 131.574 238.071 131.574Z" fill="url(#paint3_linear_9_535)"/>
</g>
<g opacity="0.7">
<path d="M238.071 155.375H159.129C157.401 155.375 156 156.776 156 158.504V173.071C156 174.799 157.401 176.2 159.129 176.2H238.071C239.799 176.2 241.2 174.799 241.2 173.071V158.504C241.2 156.776 239.799 155.375 238.071 155.375Z" fill="#4A5688"/>
<path d="M238.071 155.375H159.129C157.401 155.375 156 156.776 156 158.504V173.071C156 174.799 157.401 176.2 159.129 176.2H238.071C239.799 176.2 241.2 174.799 241.2 173.071V158.504C241.2 156.776 239.799 155.375 238.071 155.375Z" fill="url(#paint4_linear_9_535)"/>
</g>
<path d="M183.502 146.036H182.254C182.114 146.036 181.998 146.002 181.906 145.934C181.818 145.862 181.754 145.774 181.714 145.67L181.066 143.9H177.472L176.824 145.67C176.792 145.762 176.728 145.846 176.632 145.922C176.54 145.998 176.426 146.036 176.29 146.036H175.036L178.444 137.36H180.094L183.502 146.036ZM177.886 142.76H180.652L179.596 139.874C179.548 139.746 179.494 139.596 179.434 139.424C179.378 139.248 179.322 139.058 179.266 138.854C179.21 139.058 179.154 139.248 179.098 139.424C179.046 139.6 178.994 139.754 178.942 139.886L177.886 142.76ZM184.312 148.046V139.88H185.218C185.314 139.88 185.396 139.902 185.464 139.946C185.532 139.99 185.576 140.058 185.596 140.15L185.716 140.72C185.964 140.436 186.248 140.206 186.568 140.03C186.892 139.854 187.27 139.766 187.702 139.766C188.038 139.766 188.344 139.836 188.62 139.976C188.9 140.116 189.14 140.32 189.34 140.588C189.544 140.852 189.7 141.18 189.808 141.572C189.92 141.96 189.976 142.406 189.976 142.91C189.976 143.37 189.914 143.796 189.79 144.188C189.666 144.58 189.488 144.92 189.256 145.208C189.028 145.496 188.75 145.722 188.422 145.886C188.098 146.046 187.734 146.126 187.33 146.126C186.982 146.126 186.686 146.074 186.442 145.97C186.202 145.862 185.986 145.714 185.794 145.526V148.046H184.312ZM187.192 140.936C186.884 140.936 186.62 141.002 186.4 141.134C186.184 141.262 185.982 141.444 185.794 141.68V144.44C185.962 144.648 186.144 144.794 186.34 144.878C186.54 144.958 186.754 144.998 186.982 144.998C187.206 144.998 187.408 144.956 187.588 144.872C187.772 144.788 187.926 144.66 188.05 144.488C188.178 144.316 188.276 144.1 188.344 143.84C188.412 143.576 188.446 143.266 188.446 142.91C188.446 142.55 188.416 142.246 188.356 141.998C188.3 141.746 188.218 141.542 188.11 141.386C188.002 141.23 187.87 141.116 187.714 141.044C187.562 140.972 187.388 140.936 187.192 140.936ZM191.097 148.046V139.88H192.003C192.099 139.88 192.181 139.902 192.249 139.946C192.317 139.99 192.361 140.058 192.381 140.15L192.501 140.72C192.749 140.436 193.033 140.206 193.353 140.03C193.677 139.854 194.055 139.766 194.487 139.766C194.823 139.766 195.129 139.836 195.405 139.976C195.685 140.116 195.925 140.32 196.125 140.588C196.329 140.852 196.485 141.18 196.593 141.572C196.705 141.96 196.761 142.406 196.761 142.91C196.761 143.37 196.699 143.796 196.575 144.188C196.451 144.58 196.273 144.92 196.041 145.208C195.813 145.496 195.535 145.722 195.207 145.886C194.883 146.046 194.519 146.126 194.115 146.126C193.767 146.126 193.471 146.074 193.227 145.97C192.987 145.862 192.771 145.714 192.579 145.526V148.046H191.097ZM193.977 140.936C193.669 140.936 193.405 141.002 193.185 141.134C192.969 141.262 192.767 141.444 192.579 141.68V144.44C192.747 144.648 192.929 144.794 193.125 144.878C193.325 144.958 193.539 144.998 193.767 144.998C193.991 144.998 194.193 144.956 194.373 144.872C194.557 144.788 194.711 144.66 194.835 144.488C194.963 144.316 195.061 144.1 195.129 143.84C195.197 143.576 195.231 143.266 195.231 142.91C195.231 142.55 195.201 142.246 195.141 141.998C195.085 141.746 195.003 141.542 194.895 141.386C194.787 141.23 194.655 141.116 194.499 141.044C194.347 140.972 194.173 140.936 193.977 140.936ZM197.882 146.036V139.88H198.752C198.904 139.88 199.01 139.908 199.07 139.964C199.13 140.02 199.17 140.116 199.19 140.252L199.28 140.996C199.5 140.616 199.758 140.316 200.054 140.096C200.35 139.876 200.682 139.766 201.05 139.766C201.354 139.766 201.606 139.836 201.806 139.976L201.614 141.086C201.602 141.158 201.576 141.21 201.536 141.242C201.496 141.27 201.442 141.284 201.374 141.284C201.314 141.284 201.232 141.27 201.128 141.242C201.024 141.214 200.886 141.2 200.714 141.2C200.406 141.2 200.142 141.286 199.922 141.458C199.702 141.626 199.516 141.874 199.364 142.202V146.036H197.882ZM205.408 139.784C205.868 139.784 206.284 139.858 206.656 140.006C207.032 140.154 207.352 140.364 207.616 140.636C207.88 140.908 208.084 141.24 208.228 141.632C208.372 142.024 208.444 142.462 208.444 142.946C208.444 143.434 208.372 143.874 208.228 144.266C208.084 144.658 207.88 144.992 207.616 145.268C207.352 145.544 207.032 145.756 206.656 145.904C206.284 146.052 205.868 146.126 205.408 146.126C204.948 146.126 204.53 146.052 204.154 145.904C203.778 145.756 203.456 145.544 203.188 145.268C202.924 144.992 202.718 144.658 202.57 144.266C202.426 143.874 202.354 143.434 202.354 142.946C202.354 142.462 202.426 142.024 202.57 141.632C202.718 141.24 202.924 140.908 203.188 140.636C203.456 140.364 203.778 140.154 204.154 140.006C204.53 139.858 204.948 139.784 205.408 139.784ZM205.408 144.986C205.92 144.986 206.298 144.814 206.542 144.47C206.79 144.126 206.914 143.622 206.914 142.958C206.914 142.294 206.79 141.788 206.542 141.44C206.298 141.092 205.92 140.918 205.408 140.918C204.888 140.918 204.504 141.094 204.256 141.446C204.008 141.794 203.884 142.298 203.884 142.958C203.884 143.618 204.008 144.122 204.256 144.47C204.504 144.814 204.888 144.986 205.408 144.986ZM212.485 146.036H211.141L208.693 139.88H209.923C210.031 139.88 210.121 139.906 210.193 139.958C210.269 140.01 210.321 140.076 210.349 140.156L211.537 143.444C211.605 143.636 211.661 143.824 211.705 144.008C211.753 144.192 211.795 144.376 211.831 144.56C211.867 144.376 211.907 144.192 211.951 144.008C211.999 143.824 212.059 143.636 212.131 143.444L213.349 140.156C213.377 140.076 213.427 140.01 213.499 139.958C213.571 139.906 213.657 139.88 213.757 139.88H214.927L212.485 146.036ZM218.145 139.784C218.533 139.784 218.889 139.846 219.213 139.97C219.541 140.094 219.823 140.276 220.059 140.516C220.295 140.752 220.479 141.044 220.611 141.392C220.743 141.736 220.809 142.13 220.809 142.574C220.809 142.686 220.803 142.78 220.791 142.856C220.783 142.928 220.765 142.986 220.737 143.03C220.713 143.07 220.679 143.1 220.635 143.12C220.591 143.136 220.535 143.144 220.467 143.144H216.663C216.707 143.776 216.877 144.24 217.173 144.536C217.469 144.832 217.861 144.98 218.349 144.98C218.589 144.98 218.795 144.952 218.967 144.896C219.143 144.84 219.295 144.778 219.423 144.71C219.555 144.642 219.669 144.58 219.765 144.524C219.865 144.468 219.961 144.44 220.053 144.44C220.113 144.44 220.165 144.452 220.209 144.476C220.253 144.5 220.291 144.534 220.323 144.578L220.755 145.118C220.591 145.31 220.407 145.472 220.203 145.604C219.999 145.732 219.785 145.836 219.561 145.916C219.341 145.992 219.115 146.046 218.883 146.078C218.655 146.11 218.433 146.126 218.217 146.126C217.789 146.126 217.391 146.056 217.023 145.916C216.655 145.772 216.335 145.562 216.063 145.286C215.791 145.006 215.577 144.662 215.421 144.254C215.265 143.842 215.187 143.366 215.187 142.826C215.187 142.406 215.255 142.012 215.391 141.644C215.527 141.272 215.721 140.95 215.973 140.678C216.229 140.402 216.539 140.184 216.903 140.024C217.271 139.864 217.685 139.784 218.145 139.784ZM218.175 140.846C217.743 140.846 217.405 140.968 217.161 141.212C216.917 141.456 216.761 141.802 216.693 142.25H219.477C219.477 142.058 219.451 141.878 219.399 141.71C219.347 141.538 219.267 141.388 219.159 141.26C219.051 141.132 218.915 141.032 218.751 140.96C218.587 140.884 218.395 140.846 218.175 140.846Z" fill="#BCC9D8"/>
<path d="M192.58 165.179C192.58 165.815 192.474 166.399 192.262 166.931C192.05 167.463 191.752 167.921 191.368 168.305C190.984 168.689 190.522 168.987 189.982 169.199C189.442 169.411 188.844 169.517 188.188 169.517H184.876V160.841H188.188C188.844 160.841 189.442 160.949 189.982 161.165C190.522 161.377 190.984 161.675 191.368 162.059C191.752 162.439 192.05 162.895 192.262 163.427C192.474 163.959 192.58 164.543 192.58 165.179ZM190.93 165.179C190.93 164.703 190.866 164.277 190.738 163.901C190.61 163.521 190.428 163.201 190.192 162.941C189.956 162.677 189.668 162.475 189.328 162.335C188.992 162.195 188.612 162.125 188.188 162.125H186.502V168.233H188.188C188.612 168.233 188.992 168.163 189.328 168.023C189.668 167.883 189.956 167.683 190.192 167.423C190.428 167.159 190.61 166.839 190.738 166.463C190.866 166.083 190.93 165.655 190.93 165.179ZM196.301 163.265C196.689 163.265 197.045 163.327 197.369 163.451C197.697 163.575 197.979 163.757 198.215 163.997C198.451 164.233 198.635 164.525 198.767 164.873C198.899 165.217 198.965 165.611 198.965 166.055C198.965 166.167 198.959 166.261 198.947 166.337C198.939 166.409 198.921 166.467 198.893 166.511C198.869 166.551 198.835 166.581 198.791 166.601C198.747 166.617 198.691 166.625 198.623 166.625H194.819C194.863 167.257 195.033 167.721 195.329 168.017C195.625 168.313 196.017 168.461 196.505 168.461C196.745 168.461 196.951 168.433 197.123 168.377C197.299 168.321 197.451 168.259 197.579 168.191C197.711 168.123 197.825 168.061 197.921 168.005C198.021 167.949 198.117 167.921 198.209 167.921C198.269 167.921 198.321 167.933 198.365 167.957C198.409 167.981 198.447 168.015 198.479 168.059L198.911 168.599C198.747 168.791 198.563 168.953 198.359 169.085C198.155 169.213 197.941 169.317 197.717 169.397C197.497 169.473 197.271 169.527 197.039 169.559C196.811 169.591 196.589 169.607 196.373 169.607C195.945 169.607 195.547 169.537 195.179 169.397C194.811 169.253 194.491 169.043 194.219 168.767C193.947 168.487 193.733 168.143 193.577 167.735C193.421 167.323 193.343 166.847 193.343 166.307C193.343 165.887 193.411 165.493 193.547 165.125C193.683 164.753 193.877 164.431 194.129 164.159C194.385 163.883 194.695 163.665 195.059 163.505C195.427 163.345 195.841 163.265 196.301 163.265ZM196.331 164.327C195.899 164.327 195.561 164.449 195.317 164.693C195.073 164.937 194.917 165.283 194.849 165.731H197.633C197.633 165.539 197.607 165.359 197.555 165.191C197.503 165.019 197.423 164.869 197.315 164.741C197.207 164.613 197.071 164.513 196.907 164.441C196.743 164.365 196.551 164.327 196.331 164.327ZM200.167 169.517V163.361H201.073C201.265 163.361 201.391 163.451 201.451 163.631L201.553 164.117C201.677 163.989 201.807 163.873 201.943 163.769C202.083 163.665 202.229 163.575 202.381 163.499C202.537 163.423 202.703 163.365 202.879 163.325C203.055 163.285 203.247 163.265 203.455 163.265C203.791 163.265 204.089 163.323 204.349 163.439C204.609 163.551 204.825 163.711 204.997 163.919C205.173 164.123 205.305 164.369 205.393 164.657C205.485 164.941 205.531 165.255 205.531 165.599V169.517H204.049V165.599C204.049 165.223 203.961 164.933 203.785 164.729C203.613 164.521 203.353 164.417 203.005 164.417C202.749 164.417 202.509 164.475 202.285 164.591C202.061 164.707 201.849 164.865 201.649 165.065V169.517H200.167ZM208.96 171.209C208.916 171.313 208.858 171.391 208.786 171.443C208.718 171.499 208.612 171.527 208.468 171.527H207.364L208.516 169.061L206.026 163.361H207.322C207.442 163.361 207.534 163.389 207.598 163.445C207.662 163.501 207.71 163.565 207.742 163.637L209.056 166.829C209.1 166.933 209.138 167.041 209.17 167.153C209.202 167.265 209.23 167.377 209.254 167.489C209.286 167.373 209.32 167.261 209.356 167.153C209.396 167.045 209.438 166.935 209.482 166.823L210.718 163.637C210.75 163.557 210.802 163.491 210.874 163.439C210.95 163.387 211.034 163.361 211.126 163.361H212.314L208.96 171.209Z" fill="#BCC9D8"/>
<g filter="url(#filter2_d_9_535)">
<path d="M199 125C210.046 125 219 116.046 219 105C219 93.9543 210.046 85 199 85C187.954 85 179 93.9543 179 105C179 116.046 187.954 125 199 125Z" fill="#252E4F"/>
</g>
<g opacity="0.8">
<path fill-rule="evenodd" clip-rule="evenodd" d="M193.241 105.001C193.241 101.913 195.757 99.4011 198.85 99.4009C201.942 99.4011 204.459 101.913 204.459 105.001C204.459 108.089 201.943 110.6 198.85 110.6C195.757 110.6 193.241 108.089 193.241 105.001ZM195.55 105.001C195.55 106.815 197.031 108.291 198.85 108.291C200.67 108.291 202.15 106.815 202.15 105.001C202.15 103.186 200.669 101.71 198.849 101.71C197.03 101.71 195.55 103.186 195.55 105.001Z" fill="#BCC9D8"/>
<path fill-rule="evenodd" clip-rule="evenodd" d="M209.418 106.63L212.148 108.955C212.242 109.022 212.311 109.12 212.341 109.232C212.371 109.344 212.362 109.464 212.314 109.569C211.758 111.252 210.798 112.85 209.613 114.175C209.464 114.345 209.261 114.419 209.061 114.365L208.987 114.34L205.548 113.163C204.793 113.771 203.949 114.273 203.049 114.653L202.708 114.79L202.026 118.29C202.002 118.404 201.944 118.509 201.859 118.59C201.775 118.67 201.667 118.723 201.552 118.742C200.661 118.904 199.769 119 198.851 119C197.932 119 197.041 118.904 196.149 118.742C196.046 118.725 195.949 118.682 195.869 118.615C195.789 118.548 195.728 118.46 195.694 118.362L195.675 118.29L194.994 114.79C194.067 114.442 193.195 113.961 192.404 113.366L192.153 113.163L188.714 114.34C188.492 114.435 188.256 114.366 188.088 114.175C186.904 112.85 185.943 111.252 185.387 109.569C185.345 109.476 185.333 109.371 185.352 109.27C185.371 109.169 185.42 109.077 185.493 109.004L185.554 108.955L188.283 106.63C188.191 106.093 188.149 105.548 188.156 105.003C188.156 104.567 188.174 104.12 188.231 103.693L188.283 103.378L185.553 101.055C185.458 100.988 185.389 100.889 185.359 100.777C185.329 100.665 185.338 100.546 185.386 100.441C185.942 98.7589 186.902 97.1586 188.087 95.8318C188.151 95.7516 188.237 95.6912 188.335 95.6571C188.433 95.6241 188.538 95.6186 188.638 95.6429L188.714 95.667L192.153 96.842C192.919 96.2188 193.772 95.7132 194.685 95.3395L194.994 95.2164L195.675 91.7188C195.699 91.6034 195.757 91.499 195.841 91.4177C195.926 91.3375 196.034 91.2847 196.149 91.2671C197.932 90.911 199.768 90.911 201.551 91.2671L201.552 91.2682C201.655 91.2836 201.752 91.3275 201.832 91.3946C201.912 91.4616 201.972 91.5485 202.006 91.6474L202.026 91.72L202.707 95.2174C203.618 95.567 204.477 96.0396 205.261 96.6221L205.546 96.8431L208.987 95.6692C209.209 95.5725 209.445 95.6418 209.612 95.8318C210.795 97.1586 211.757 98.7589 212.314 100.441C212.356 100.534 212.369 100.638 212.349 100.74C212.33 100.84 212.281 100.933 212.208 101.005L212.148 101.055L209.418 103.377C209.515 103.895 209.544 104.457 209.544 105.003C209.544 105.443 209.525 105.888 209.468 106.315L209.418 106.63ZM190.641 105.001C190.641 109.525 194.316 113.193 198.85 113.193C203.384 113.193 207.059 109.525 207.059 105.001C207.059 100.477 203.384 96.8083 198.849 96.808C194.314 96.8083 190.641 100.477 190.641 105.001Z" fill="#BCC9D8"/>
</g>
<g filter="url(#filter3_d_9_535)">
<path d="M272.091 97.7175C293.49 97.7175 310.838 80.3697 310.838 58.97C310.838 37.5703 293.49 20.2225 272.091 20.2225C250.691 20.2225 233.343 37.5703 233.343 58.97C233.343 80.3697 250.691 97.7175 272.091 97.7175Z" fill="#334368"/>
<path d="M272.091 90.5142C289.512 90.5142 303.635 76.3914 303.635 58.97C303.635 41.5486 289.512 27.4258 272.091 27.4258C254.669 27.4258 240.547 41.5486 240.547 58.97C240.547 76.3914 254.669 90.5142 272.091 90.5142Z" fill="#0D1435"/>
<g opacity="0.7">
<path d="M252.906 47.2821C252.674 47.2821 252.44 47.1952 252.26 47.0215C251.888 46.6647 251.876 46.0738 252.233 45.7024C254.225 43.63 261.604 36.8628 272.91 36.7872C272.975 36.7872 273.04 36.7866 273.105 36.7866C283.49 36.7866 290.484 42.3507 293.02 44.7541C293.394 45.1089 293.41 45.6991 293.055 46.0731C292.699 46.4478 292.11 46.4624 291.736 46.1083C289.364 43.8588 282.818 38.6528 273.104 38.6528C273.044 38.6528 272.984 38.6528 272.923 38.6534C262.347 38.7237 255.442 45.0565 253.578 46.9956C253.395 47.186 253.151 47.2821 252.906 47.2821Z" fill="#BCC9D8"/>
<path d="M251.803 64.3565H251.793C251.277 64.3499 250.864 63.9274 250.871 63.4121C250.94 57.6059 253.294 52.1705 257.498 48.1085C261.627 44.1187 266.939 42.0032 272.57 42.1119C283.769 42.3586 292.878 51.4622 293.311 62.8371C293.331 63.3518 292.929 63.7848 292.414 63.8047C291.897 63.8206 291.467 63.4221 291.446 62.9074C291.052 52.5173 282.742 44.2023 272.529 43.9768C267.395 43.8747 262.56 45.8092 258.793 49.4501C254.951 53.1632 252.8 58.1298 252.736 63.4347C252.731 63.946 252.314 64.3565 251.803 64.3565Z" fill="#BCC9D8"/>
<path d="M283.492 81.149C283.473 81.149 283.456 81.1483 283.437 81.147C280.481 80.9812 274.881 80.0249 270.609 75.4907C267.261 71.9374 263.779 64.8678 266.521 60.2746C266.932 59.5875 268.119 57.9163 270.281 57.2206C272.407 56.5349 274.849 56.9527 276.499 58.2837C278.193 59.6485 278.41 61.4312 278.601 63.0043C278.765 64.3465 278.905 65.5058 279.893 66.3613C281.397 67.6651 284.146 67.7997 285.658 66.6412C287.186 65.4713 287.477 62.7569 286.481 58.998C285.394 54.9041 282.181 51.3554 278.097 49.7346C273.34 47.8478 267.635 48.7431 263.56 52.0146C260.053 54.8332 258.189 59.0576 258.019 64.5707C257.933 67.3349 258.472 70.0652 259.624 72.6881C259.831 73.1596 259.616 73.7101 259.145 73.917C258.678 74.1239 258.125 73.911 257.915 73.4375C256.653 70.5593 256.06 67.5564 256.154 64.513C256.341 58.4303 258.439 53.7356 262.392 50.5596C266.978 46.8756 273.415 45.8709 278.784 48.0004C283.408 49.8354 287.048 53.8642 288.284 58.5165C289.825 64.3313 288.324 66.9495 286.793 68.1227C284.569 69.8231 280.854 69.6613 278.67 67.7712C277.14 66.4449 276.933 64.7365 276.75 63.2297C276.579 61.8324 276.433 60.6261 275.329 59.7361C274.171 58.803 272.373 58.5072 270.851 58.9966C269.25 59.5119 268.358 60.8376 268.123 61.2316C266.114 64.5966 268.554 70.5891 271.967 74.2108C275.796 78.2741 280.863 79.1336 283.543 79.2848C284.057 79.3133 284.451 79.7537 284.422 80.2683C284.394 80.765 283.982 81.149 283.492 81.149Z" fill="#BCC9D8"/>
<path d="M270.565 81.1536C270.399 81.1536 270.231 81.1092 270.08 81.0157C267.87 79.6621 262.576 75.7639 261.123 68.8151C260.686 66.7313 259.528 61.1977 263.231 56.6204C265.87 53.3615 269.976 51.6445 273.986 52.1353C277.483 52.5684 280.266 54.2422 281.823 56.8492C283.372 59.4429 283.241 62.1189 283.025 63.4824C282.944 63.9917 282.452 64.3359 281.957 64.2577C281.448 64.1774 281.102 63.6993 281.181 63.1906C281.359 62.0758 281.469 59.8946 280.221 57.8055C278.966 55.7039 276.67 54.3477 273.759 53.9869C270.439 53.5844 266.884 55.0739 264.683 57.7943C261.535 61.6825 262.562 66.5861 262.948 68.4324C264.254 74.671 269.052 78.1985 271.053 79.4254C271.493 79.6946 271.631 80.2689 271.362 80.708C271.186 80.9951 270.879 81.1536 270.565 81.1536Z" fill="#BCC9D8"/>
<path d="M284.162 75.6014C282.451 75.6014 280.213 75.2718 277.926 74.0065C276.665 73.3088 273.573 71.2596 272.153 67.3176C271.646 65.9097 271.405 64.4215 271.436 62.8961C271.447 62.3808 271.931 61.9438 272.389 61.9829C272.903 61.9936 273.312 62.42 273.301 62.9346C273.275 64.2311 273.479 65.4932 273.909 66.6849C275.114 70.0307 277.751 71.7775 278.83 72.3737C281.198 73.6842 283.512 73.8195 285.036 73.7027C285.529 73.6563 285.997 74.0469 286.037 74.5609C286.077 75.0742 285.692 75.5232 285.179 75.5623C284.867 75.5868 284.526 75.6014 284.162 75.6014Z" fill="#BCC9D8"/>
</g>
</g>
</g>
<defs>
<filter id="filter0_d_9_535" x="35.5017" y="33.2144" width="128.614" height="206.608" filterUnits="userSpaceOnUse" color-interpolation-filters="sRGB">
<feFlood flood-opacity="0" result="BackgroundImageFix"/>
<feColorMatrix in="SourceAlpha" type="matrix" values="0 0 0 0 0 0 0 0 0 0 0 0 0 0 0 0 0 0 127 0" result="hardAlpha"/>
<feOffset/>
<feGaussianBlur stdDeviation="5.38753"/>
<feColorMatrix type="matrix" values="0 0 0 0 0.0196078 0 0 0 0 0.0196078 0 0 0 0 0.0196078 0 0 0 0.2 0"/>
<feBlend mode="normal" in2="BackgroundImageFix" result="effect1_dropShadow_9_535"/>
<feBlend mode="normal" in="SourceGraphic" in2="effect1_dropShadow_9_535" result="shape"/>
</filter>
<filter id="filter1_d_9_535" x="29.5827" y="9.80316" width="307.354" height="216.2" filterUnits="userSpaceOnUse" color-interpolation-filters="sRGB">
<feFlood flood-opacity="0" result="BackgroundImageFix"/>
<feColorMatrix in="SourceAlpha" type="matrix" values="0 0 0 0 0 0 0 0 0 0 0 0 0 0 0 0 0 0 127 0" result="hardAlpha"/>
<feOffset/>
<feGaussianBlur stdDeviation="1.3582"/>
<feColorMatrix type="matrix" values="0 0 0 0 0.639216 0 0 0 0 0.654902 0 0 0 0 0.717647 0 0 0 0.25 0"/>
<feBlend mode="normal" in2="BackgroundImageFix" result="effect1_dropShadow_9_535"/>
<feBlend mode="normal" in="SourceGraphic" in2="effect1_dropShadow_9_535" result="shape"/>
</filter>
<filter id="filter2_d_9_535" x="174.492" y="80.4922" width="49.0156" height="49.0156" filterUnits="userSpaceOnUse" color-interpolation-filters="sRGB">
<feFlood flood-opacity="0" result="BackgroundImageFix"/>
<feColorMatrix in="SourceAlpha" type="matrix" values="0 0 0 0 0 0 0 0 0 0 0 0 0 0 0 0 0 0 127 0" result="hardAlpha"/>
<feOffset/>
<feGaussianBlur stdDeviation="2.25389"/>
<feColorMatrix type="matrix" values="0 0 0 0 0.0862745 0 0 0 0 0.101961 0 0 0 0 0.156863 0 0 0 0.35 0"/>
<feBlend mode="normal" in2="BackgroundImageFix" result="effect1_dropShadow_9_535"/>
<feBlend mode="normal" in="SourceGraphic" in2="effect1_dropShadow_9_535" result="shape"/>
</filter>
<filter id="filter3_d_9_535" x="222.107" y="8.98615" width="99.9677" height="99.9677" filterUnits="userSpaceOnUse" color-interpolation-filters="sRGB">
<feFlood flood-opacity="0" result="BackgroundImageFix"/>
<feColorMatrix in="SourceAlpha" type="matrix" values="0 0 0 0 0 0 0 0 0 0 0 0 0 0 0 0 0 0 127 0" result="hardAlpha"/>
<feOffset/>
<feGaussianBlur stdDeviation="5.61816"/>
<feColorMatrix type="matrix" values="0 0 0 0 0.0196078 0 0 0 0 0.0196078 0 0 0 0 0.0196078 0 0 0 0.2 0"/>
<feBlend mode="normal" in2="BackgroundImageFix" result="effect1_dropShadow_9_535"/>
<feBlend mode="normal" in="SourceGraphic" in2="effect1_dropShadow_9_535" result="shape"/>
</filter>
<linearGradient id="paint0_linear_9_535" x1="-102.909" y1="226.747" x2="11.9815" y2="226.747" gradientUnits="userSpaceOnUse">
<stop stop-color="white" stop-opacity="0"/>
<stop offset="0.212902" stop-color="white" stop-opacity="0.0118763"/>
<stop offset="0.374099" stop-color="white" stop-opacity="0.0495923"/>
<stop offset="0.518306" stop-color="white" stop-opacity="0.113359"/>
<stop offset="0.652632" stop-color="white" stop-opacity="0.20334"/>
<stop offset="0.780044" stop-color="white" stop-opacity="0.319601"/>
<stop offset="0.900616" stop-color="white" stop-opacity="0.460131"/>
<stop offset="1" stop-color="white" stop-opacity="0.6"/>
</linearGradient>
<linearGradient id="paint1_linear_9_535" x1="15.5674" y1="197.18" x2="135.688" y2="76.2984" gradientUnits="userSpaceOnUse">
<stop stop-color="#303E68" stop-opacity="0"/>
<stop offset="0.232881" stop-color="#303E68" stop-opacity="0.0777072"/>
<stop offset="0.596368" stop-color="#303E68" stop-opacity="0.290587"/>
<stop offset="1" stop-color="#303E68" stop-opacity="0.6"/>
</linearGradient>
<linearGradient id="paint2_linear_9_535" x1="134" y1="203" x2="251" y2="121" gradientUnits="userSpaceOnUse">
<stop stop-color="#303E68" stop-opacity="0.6"/>
<stop offset="0.403632" stop-color="#303E68" stop-opacity="0.290587"/>
<stop offset="0.767119" stop-color="#303E68" stop-opacity="0.0777072"/>
<stop offset="1" stop-color="#303E68" stop-opacity="0"/>
</linearGradient>
<linearGradient id="paint3_linear_9_535" x1="101.243" y1="189.257" x2="238.242" y2="122.738" gradientUnits="userSpaceOnUse">
<stop stop-color="#44527A" stop-opacity="0"/>
<stop offset="0.0850421" stop-color="#44527A" stop-opacity="0.102268"/>
<stop offset="0.303978" stop-color="#44527A" stop-opacity="0.319935"/>
<stop offset="0.527598" stop-color="#44527A" stop-opacity="0.476013"/>
<stop offset="0.756823" stop-color="#44527A" stop-opacity="0.569308"/>
<stop offset="1" stop-color="#44527A" stop-opacity="0.6"/>
</linearGradient>
<linearGradient id="paint4_linear_9_535" x1="129.096" y1="193.637" x2="210.334" y2="161.086" gradientUnits="userSpaceOnUse">
<stop stop-color="#44527A" stop-opacity="0"/>
<stop offset="0.0850421" stop-color="#44527A" stop-opacity="0.102268"/>
<stop offset="0.303978" stop-color="#44527A" stop-opacity="0.319935"/>
<stop offset="0.527598" stop-color="#44527A" stop-opacity="0.476013"/>
<stop offset="0.756823" stop-color="#44527A" stop-opacity="0.569308"/>
<stop offset="1" stop-color="#44527A" stop-opacity="0.6"/>
</linearGradient>
<clipPath id="clip0_9_535">
<rect width="350" height="250" fill="white"/>
</clipPath>
</defs>
</svg>
