<svg width="14" height="9" viewBox="0 0 14 9" fill="none" xmlns="http://www.w3.org/2000/svg">
    <path d="M12.9756 0.0695772L12.9304 5.17268C13.4077 5.17268 13.7927 4.91859 13.7892 4.60389C13.7517 2.41504 13.5031 0.59618 13.1805 0.045817C13.1389 -0.027403 12.9766 -0.008007 12.9756 0.0695772Z" fill="#CCD7DC"/>
    <path d="M12.9756 0.0695772L12.9304 5.17268C13.4077 5.17268 13.7927 4.91859 13.7892 4.60389C13.7517 2.41504 13.5031 0.59618 13.1805 0.045817C13.1389 -0.027403 12.9766 -0.008007 12.9756 0.0695772Z" fill="url(#paint0_linear_4022_32655)"/>
    <path d="M0.999719 0.0695772L1.04486 5.17268C0.578701 5.17268 0.200292 4.91859 0.205871 4.60389C0.241886 2.41504 0.484859 0.59618 0.798848 0.045817C0.840442 -0.027403 0.999212 -0.008007 0.999719 0.0695772Z" fill="#5E2AD7"/>
    <path d="M0.999719 0.0695772L1.04486 5.17268C0.578701 5.17268 0.200292 4.91859 0.205871 4.60389C0.241886 2.41504 0.484859 0.59618 0.798848 0.045817C0.840442 -0.027403 0.999212 -0.008007 0.999719 0.0695772Z" fill="url(#paint1_linear_4022_32655)"/>
    <path d="M10.985 8.99025H3.01205C2.21391 8.98807 1.4491 8.68402 0.884724 8.14451C0.320346 7.605 0.00227527 6.87389 0 6.11091V6.10654C0 2.76072 2.86191 0.0258789 6.3594 0.0258789H7.63818C11.1357 0.0258789 13.9971 2.76072 13.9971 6.10654V6.11236C13.9944 6.87509 13.6761 7.60582 13.1118 8.14502C12.5475 8.68422 11.7829 8.98808 10.985 8.99025V8.99025Z" fill="white"/>
    <path opacity="0.6" d="M10.9835 8.99995H3.01358C2.21507 8.99764 1.44995 8.69339 0.885316 8.15364C0.320682 7.61388 0.00240839 6.88248 0 6.11915V6.10654C0 2.76072 2.86343 0.0258789 6.36295 0.0258789H7.63463C11.1341 0.0258789 13.9971 2.76072 13.9971 6.10654V6.11769C13.9952 6.88131 13.6771 7.61316 13.1124 8.15326C12.5477 8.69336 11.7823 8.99777 10.9835 8.99995Z" fill="url(#paint2_radial_4022_32655)"/>
    <path d="M10.3291 1.07362C10.392 0.945649 10.1933 0.72972 9.88522 0.591334C9.57716 0.452947 9.27643 0.444507 9.21352 0.572481C9.15061 0.700456 9.34934 0.916384 9.6574 1.05477C9.96546 1.19316 10.2662 1.2016 10.3291 1.07362Z" fill="#5E2AD7"/>
    <path d="M4.01188 6.19956C3.40649 6.19956 2.82589 5.96967 2.39781 5.56045C1.96974 5.15124 1.72925 4.59622 1.72925 4.01751C1.72925 3.43879 1.96974 2.88377 2.39781 2.47456C2.82589 2.06534 3.40649 1.83545 4.01188 1.83545H9.98526C10.5906 1.83545 11.1712 2.06534 11.5993 2.47456C12.0274 2.88377 12.2679 3.43879 12.2679 4.01751C12.2679 4.59622 12.0274 5.15124 11.5993 5.56045C11.1712 5.96967 10.5906 6.19956 9.98526 6.19956H4.01188Z" fill="#C8D6DC"/>
    <path d="M9.98512 1.95632C10.5562 1.95683 11.1037 2.17391 11.5075 2.55992C11.9113 2.94593 12.1384 3.46931 12.1389 4.01521V4.0186C12.1384 4.5645 11.9113 5.08788 11.5075 5.47389C11.1037 5.8599 10.5562 6.07698 9.98512 6.07749H4.01174C3.44072 6.07685 2.89329 5.85973 2.48952 5.47375C2.08575 5.08777 1.85862 4.56446 1.85795 4.0186V4.01521C1.85862 3.46935 2.08575 2.94604 2.48952 2.56006C2.89329 2.17408 3.44072 1.95696 4.01174 1.95632H9.98512V1.95632ZM9.98512 1.71387H4.01174C3.37333 1.71579 2.76164 1.95907 2.31022 2.3906C1.8588 2.82214 1.6043 3.40687 1.60229 4.01715V4.02054C1.6043 4.63082 1.8588 5.21555 2.31022 5.64709C2.76164 6.07862 3.37333 6.3219 4.01174 6.32382H9.98512C10.6236 6.32203 11.2353 6.07879 11.6868 5.64723C12.1382 5.21567 12.3927 4.63086 12.3946 4.02054V4.01715C12.3927 3.40683 12.1382 2.82202 11.6868 2.39046C11.2353 1.9589 10.6236 1.71566 9.98512 1.71387V1.71387Z" fill="#5E2AD7"/>
    <mask id="mask0_4022_32655" style="mask-type:alpha" maskUnits="userSpaceOnUse" x="0" y="0" width="14" height="9">
        <path d="M6.35307 0.0288086H7.62304C8.45749 0.0288086 9.28376 0.186075 10.0547 0.491628C10.8256 0.797182 11.5261 1.24504 12.1161 1.80962C12.7061 2.3742 13.1741 3.04446 13.4934 3.78211C13.8127 4.51977 13.977 5.31037 13.9769 6.10878V6.11993C13.9769 6.88363 13.6598 7.61606 13.0955 8.15608C12.5311 8.6961 11.7656 8.99948 10.9674 8.99948H3.00821C2.21047 8.99884 1.44564 8.69518 0.881793 8.15522C0.317946 7.61527 0.00122044 6.88321 0.00122072 6.11993V6.10878C0.00108631 4.49665 0.670173 2.95048 1.86133 1.81031C3.05249 0.670132 4.66818 0.0293227 6.35307 0.0288086V0.0288086Z" fill="white"/>
    </mask>
    <g mask="url(#mask0_4022_32655)">
        <path fill-rule="evenodd" clip-rule="evenodd" d="M6.8208 8.99822L6.83263 6.1709L7.24176 6.17217L7.22992 8.99949L6.8208 8.99822Z" fill="#5E2AD7"/>
        <path fill-rule="evenodd" clip-rule="evenodd" d="M6.98353 -2.43625C6.10611 -2.43625 5.39581 -1.75549 5.39581 -0.916891C5.39581 -0.078296 6.10611 0.602467 6.98353 0.602467C7.86096 0.602467 8.57126 -0.0782962 8.57126 -0.916891C8.57126 -1.75549 7.86096 -2.43625 6.98353 -2.43625ZM4.97485 -0.916891C4.97485 -1.9797 5.87472 -2.84033 6.98353 -2.84033C8.09235 -2.84033 8.99221 -1.9797 8.99221 -0.916891C8.99221 0.14592 8.09235 1.00655 6.98353 1.00655C5.87472 1.00655 4.97485 0.14592 4.97485 -0.916891Z" fill="#5E2AD7"/>
        <path d="M-0.127656 9.4844H2.9924C3.15914 9.48396 3.31891 9.41922 3.43677 9.30435C3.55464 9.18947 3.621 9.03382 3.62134 8.87142V8.59921C3.61929 7.91293 3.33847 7.25533 2.84022 6.77006C2.34198 6.28478 1.6668 6.01128 0.962183 6.00928H-0.127656C-0.294395 6.00972 -0.454167 6.07446 -0.572029 6.18933C-0.689891 6.30421 -0.75625 6.45986 -0.756592 6.62226V8.87142C-0.75625 9.03382 -0.689891 9.18947 -0.572029 9.30435C-0.454167 9.41922 -0.294395 9.48396 -0.127656 9.4844Z" fill="#5E2AD7"/>
        <path d="M13.673 9.24194H10.9132C10.7657 9.24155 10.6244 9.18435 10.5201 9.08284C10.4159 8.98134 10.3571 8.84378 10.3567 8.70023V8.45968C10.3585 7.8532 10.6068 7.27206 11.0473 6.84322C11.4879 6.41437 12.0848 6.17266 12.7079 6.1709H13.673C13.8205 6.17129 13.9618 6.22849 14.066 6.32999C14.1703 6.4315 14.2291 6.56906 14.2295 6.71261V8.70023C14.2291 8.84378 14.1703 8.98134 14.066 9.08284C13.9618 9.18435 13.8205 9.24155 13.673 9.24194V9.24194Z" fill="#5E2AD7"/>
    </g>
    <path d="M5.19296 4.53291C5.14223 4.58431 4.87846 4.26718 4.45288 4.28028C4.05773 4.29191 3.82896 4.57946 3.78432 4.53437C3.72548 4.47472 4.00751 3.86132 4.48788 3.86035C4.96825 3.85938 5.25434 4.46939 5.19296 4.53291Z" fill="#081025"/>
    <path d="M10.1822 4.53291C10.1315 4.58431 9.86772 4.26718 9.44214 4.28028C9.04699 4.29191 8.81822 4.57946 8.77358 4.53437C8.71474 4.47472 8.99677 3.86132 9.47714 3.86035C9.9575 3.85938 10.2421 4.46939 10.1822 4.53291Z" fill="#081025"/>
    <g opacity="0.5">
        <path opacity="0.5" d="M9.96998 1.73242H3.9966C2.6659 1.73242 1.58716 2.76364 1.58716 4.0357V4.03861C1.58716 5.31068 2.6659 6.34189 3.9966 6.34189H9.96998C11.3007 6.34189 12.3794 5.31068 12.3794 4.03861V4.0357C12.3794 2.76364 11.3007 1.73242 9.96998 1.73242Z" fill="url(#paint3_radial_4022_32655)"/>
    </g>
    <path d="M0.676987 8.18219C0.813995 8.22892 0.964697 8.22172 1.09619 8.16216C1.22769 8.1026 1.3293 7.99552 1.37884 7.8643L1.84208 6.62467C1.89062 6.49315 1.88306 6.34854 1.82103 6.22235C1.759 6.09615 1.64753 5.9986 1.51092 5.95095V5.95095C1.37361 5.90367 1.22236 5.91065 1.0904 5.97034C0.958446 6.03003 0.856565 6.13756 0.807138 6.2693L0.343898 7.50893C0.295464 7.64063 0.303313 7.78537 0.365728 7.91153C0.428144 8.03769 0.540051 8.135 0.676987 8.18219V8.18219Z" fill="#C4D6DC"/>
    <path opacity="0.6" d="M0.676987 8.18219C0.813995 8.22892 0.964697 8.22172 1.09619 8.16216C1.22769 8.1026 1.3293 7.99552 1.37884 7.8643L1.84208 6.62467C1.89062 6.49315 1.88306 6.34854 1.82103 6.22235C1.759 6.09615 1.64753 5.9986 1.51092 5.95095V5.95095C1.37361 5.90367 1.22236 5.91065 1.0904 5.97034C0.958446 6.03003 0.856565 6.13756 0.807138 6.2693L0.343898 7.50893C0.295464 7.64063 0.303313 7.78537 0.365728 7.91153C0.428144 8.03769 0.540051 8.135 0.676987 8.18219V8.18219Z" fill="url(#paint4_radial_4022_32655)"/>
    <defs>
        <linearGradient id="paint0_linear_4022_32655" x1="14.1874" y1="0.854147" x2="12.6367" y2="4.07333" gradientUnits="userSpaceOnUse">
            <stop stop-color="white" stop-opacity="0"/>
            <stop offset="0.08" stop-color="#E7EEF0" stop-opacity="0.13"/>
            <stop offset="0.34" stop-color="#A5BEC6" stop-opacity="0.5"/>
            <stop offset="0.56" stop-color="#749CA8" stop-opacity="0.77"/>
            <stop offset="0.74" stop-color="#578795" stop-opacity="0.94"/>
            <stop offset="0.85" stop-color="#4C7F8E"/>
        </linearGradient>
        <linearGradient id="paint1_linear_4022_32655" x1="2.4956" y1="3.79459" x2="-1.16028" y2="0.925784" gradientUnits="userSpaceOnUse">
            <stop offset="0.47" stop-color="white" stop-opacity="0"/>
            <stop offset="0.53" stop-color="white" stop-opacity="0.04"/>
            <stop offset="0.63" stop-color="white" stop-opacity="0.13"/>
            <stop offset="0.75" stop-color="white" stop-opacity="0.29"/>
            <stop offset="0.9" stop-color="white" stop-opacity="0.51"/>
            <stop offset="0.95" stop-color="white" stop-opacity="0.6"/>
        </linearGradient>
        <radialGradient id="paint2_radial_4022_32655" cx="0" cy="0" r="1" gradientUnits="userSpaceOnUse" gradientTransform="translate(-0.790297 10.0789) scale(16.2046 15.4907)">
            <stop offset="0.04" stop-color="white" stop-opacity="0"/>
            <stop offset="0.71" stop-color="#84A7B1" stop-opacity="0.69"/>
            <stop offset="1" stop-color="#4C7F8E"/>
        </radialGradient>
        <radialGradient id="paint3_radial_4022_32655" cx="0" cy="0" r="1" gradientUnits="userSpaceOnUse" gradientTransform="translate(10.6791 2.05634) scale(7.37238 7.04756)">
            <stop stop-color="white" stop-opacity="0.7"/>
            <stop offset="0.34" stop-color="white" stop-opacity="0.42"/>
            <stop offset="0.65" stop-color="white" stop-opacity="0.19"/>
            <stop offset="0.88" stop-color="white" stop-opacity="0.05"/>
            <stop offset="1" stop-color="white" stop-opacity="0"/>
        </radialGradient>
        <radialGradient id="paint4_radial_4022_32655" cx="0" cy="0" r="1" gradientUnits="userSpaceOnUse" gradientTransform="translate(5.31838 5.92952) rotate(-177.252) scale(6.12219 5.87799)">
            <stop offset="0.34" stop-color="white" stop-opacity="0"/>
            <stop offset="0.42" stop-color="#F4F7F8" stop-opacity="0.06"/>
            <stop offset="0.54" stop-color="#D5E1E4" stop-opacity="0.24"/>
            <stop offset="0.69" stop-color="#A3BDC5" stop-opacity="0.52"/>
            <stop offset="0.87" stop-color="#5E8C99" stop-opacity="0.9"/>
            <stop offset="0.91" stop-color="#4C7F8E"/>
        </radialGradient>
    </defs>
</svg>
