<svg xmlns="http://www.w3.org/2000/svg" viewBox="0 0 32 32">
  <path
    fill="currentColor"
    d="M25.009 26.5H10c-3.216 0-5.965-2.037-7.029-4.889A8.982 8.982 0 0 0 10 25h15.009a5.975 5.975 0 0 0 4.351-1.877 4.497 4.497 0 0 1-4.35 3.377Zm4.351-6.377a4.497 4.497 0 0 1-4.35 3.377H10c-3.216 0-5.965-2.037-7.029-4.889A8.982 8.982 0 0 0 10 22h15.009a5.975 5.975 0 0 0 4.351-1.877ZM10 5.5a7.511 7.511 0 0 1 6.141 3.192.75.75 0 0 0 1.362-.386 2.99 2.99 0 0 1 .582-1.585A2.982 2.982 0 0 1 20.501 5.5a2.996 2.996 0 0 1 2.169 5.069.751.751 0 0 0 .803 1.22 4.496 4.496 0 0 1 6.029 4.221 4.496 4.496 0 0 1-4.491 4.492H10c-4.135 0-7.5-3.365-7.5-7.5 0-4.136 3.365-7.5 7.5-7.5V5.5Zm15.009 4.52c-.093 0-.184.001-.276.005A4.43 4.43 0 0 0 25 8.5C25 6.019 22.981 4 20.5 4a4.523 4.523 0 0 0-4.11 2.662A9.01 9.01 0 0 0 10 4c-4.96 0-9 4.038-9 9v6c0 4.962 4.04 9 9 9h15.009A5.998 5.998 0 0 0 31 22.009v-6a5.998 5.998 0 0 0-5.991-5.991v.002Z"
  />
</svg>
