<svg xmlns="http://www.w3.org/2000/svg" xmlns:xlink="http://www.w3.org/1999/xlink" xmlns:lucid="lucid" width="977" height="654"><g transform="translate(42 4630)" lucid:page-tab-id="0_0"><path d="M141.1-4509H114v-2h27.1zm80.4 0H197v-2h24.5z" stroke="#607d8b" stroke-width=".05" fill="#607d8b"/><path d="M114.03-4509H113v-2h1.03z" stroke="#607d8b" stroke-width=".05" fill="#607d8b"/><path d="M236.76-4510l-14.26 4.64v-9.28z" fill="#607d8b"/><path d="M240-4510l-18.5 6v-12zm-16.5 3.26l10.03-3.26-10.03-3.26z" stroke="#607d8b" stroke-width=".05" fill="#607d8b"/><use xlink:href="#a" transform="matrix(1,0,0,1,141.1117448553954,-4519.46666666664) translate(0 15.572666666666661)"/><use xlink:href="#b" transform="matrix(1,0,0,1,141.1117448553954,-4519.46666666664) translate(6.09022222222222 15.572666666666661)"/><use xlink:href="#c" transform="matrix(1,0,0,1,141.1117448553954,-4519.46666666664) translate(36.856888888888875 15.572666666666661)"/><path d="M-20-4590.45h120v60H-20z" stroke="#000" stroke-opacity="0" stroke-width="2" fill="#fff" fill-opacity="0"/><use xlink:href="#d" transform="matrix(1,0,0,1,-14.999999999999943,-4585.453173269673) translate(36.31111111111111 17.546666666666667)"/><path d="M-20-4548.07a4 4 0 0 1 4-4H96a4 4 0 0 1 4 4v70.07a4 4 0 0 1-4 4H-16a4 4 0 0 1-4-4z" stroke="#d2dbdf" stroke-width="2" fill="#fff" filter="url(#e)"/><path d="M38.35-4510.45c-7.36 0-13.3-5.95-13.3-13.3 0-7.37 5.94-13.33 13.3-13.33s13.3 5.96 13.3 13.32-5.94 13.3-13.3 13.3zm0-24.2c-6.03 0-10.9 4.88-10.9 10.9 0 6 4.87 10.88 10.9 10.88 6.02 0 10.9-4.9 10.9-10.9s-4.88-10.9-10.9-10.9zM57.7-4488.66H19c-2.02 0-3.63-1.64-3.63-3.63 0-.13.04-4.06 2.94-7.98 1.74-2.27 4.04-4.07 6.94-5.37 3.6-1.6 7.96-2.38 13.1-2.38 5.16 0 9.53.78 13.12 2.38 2.9 1.3 5.2 3.1 6.94 5.37 2.9 3.92 2.95 7.85 2.95 8 0 1.98-1.6 3.62-3.64 3.62zm-19.35-16.94c-8.47 0-14.68 2.32-18.03 6.68-2.5 3.24-2.53 6.58-2.53 6.63 0 .7.5 1.22 1.18 1.22H57.7c.7 0 1.2-.53 1.2-1.2 0-.06-.04-3.4-2.52-6.64-3.36-4.36-9.6-6.68-18.03-6.68z" stroke="#000" stroke-opacity="0" fill="#607d8b"/><path d="M359.76-4166H895v150H359.75z" fill-opacity="0"/><path d="M374.63-4166h14.86m7.43 0h14.87m7.43 0h14.87m7.43 0h14.87m7.43 0h14.87m7.43 0H501m7.43 0h14.87m7.44 0h14.86m7.44 0h14.86m7.44 0h14.86m7.44 0h14.87m7.44 0h14.87m7.44 0h14.87m7.44 0h14.87m7.44 0h14.87m7.44 0H724m7.45 0h14.86m7.45 0h14.86m7.45 0h14.86m7.45 0h14.87m7.43 0h14.87m7.43 0h14.87m7.43 0h14.87m7.43 0H895v7.14m0 7.15v14.27m0 7.14v14.3m0 7.14v14.3m0 7.13v14.3m0 7.13v14.3m0 7.13v14.28m0 7.16v7.14h-7.45m-7.43 0h-14.87m-7.43 0h-14.87m-7.43 0h-14.87m-7.43 0h-14.87m-7.44 0h-14.85m-7.44 0h-14.85m-7.44 0h-14.85m-7.44 0h-14.86m-7.43 0h-14.86m-7.43 0h-14.86m-7.43 0h-14.86m-7.43 0h-14.86m-7.43 0h-14.86m-7.44 0h-14.86m-7.44 0h-14.86m-7.44 0h-14.86m-7.44 0h-14.87m-7.43 0h-14.87m-7.43 0h-14.87m-7.43 0h-14.87m-7.43 0h-14.87m-7.43 0h-14.87m-7.44 0h-14.87m-7.44 0h-7.44v-7.14m0-7.15v-14.27m0-7.14v-14.3m0-7.14v-14.3m0-7.13v-14.3m0-7.13v-14.3m0-7.13v-14.28m0-7.16v-7.14h7.43" stroke="#512fc9" stroke-width="1.5" fill="none"/><path d="M340.77-4216h42.5v60h-42.5z" stroke="#000" stroke-opacity="0" stroke-width="2" fill="#fff" fill-opacity="0"/><use xlink:href="#f" transform="matrix(1,0,0,1,345.76682545954816,-4211) translate(9 28.6)"/><path d="M378.27-4150h500v118h-500z" stroke="#000" stroke-opacity="0" stroke-width="2" fill="#fff" fill-opacity="0"/><use xlink:href="#g" transform="matrix(1,0,0,1,383.2668254595483,-4145) translate(0 17.766)"/><use xlink:href="#h" transform="matrix(1,0,0,1,383.2668254595483,-4145) translate(19.008 17.766)"/><use xlink:href="#i" transform="matrix(1,0,0,1,383.2668254595483,-4145) translate(87.67799999999998 17.766)"/><use xlink:href="#j" transform="matrix(1,0,0,1,383.2668254595483,-4145) translate(107.87399999999998 17.766)"/><use xlink:href="#k" transform="matrix(1,0,0,1,383.2668254595483,-4145) translate(144.79199999999997 17.766)"/><use xlink:href="#l" transform="matrix(1,0,0,1,383.2668254595483,-4145) translate(209.628 17.766)"/><use xlink:href="#m" transform="matrix(1,0,0,1,383.2668254595483,-4145) translate(288.45 17.766)"/><use xlink:href="#n" transform="matrix(1,0,0,1,383.2668254595483,-4145) translate(334.83599999999996 17.766)"/><use xlink:href="#o" transform="matrix(1,0,0,1,383.2668254595483,-4145) translate(413.388 17.766)"/><use xlink:href="#p" transform="matrix(1,0,0,1,383.2668254595483,-4145) translate(0 39.366)"/><use xlink:href="#q" transform="matrix(1,0,0,1,383.2668254595483,-4145) translate(79.776 39.366)"/><use xlink:href="#r" transform="matrix(1,0,0,1,383.2668254595483,-4145) translate(89.496 39.366)"/><use xlink:href="#s" transform="matrix(1,0,0,1,383.2668254595483,-4145) translate(135.28799999999998 39.366)"/><use xlink:href="#t" transform="matrix(1,0,0,1,383.2668254595483,-4145) translate(167.95799999999997 39.366)"/><use xlink:href="#u" transform="matrix(1,0,0,1,383.2668254595483,-4145) translate(233.22599999999994 39.366)"/><use xlink:href="#v" transform="matrix(1,0,0,1,383.2668254595483,-4145) translate(357.3539999999999 39.366)"/><use xlink:href="#w" transform="matrix(1,0,0,1,383.2668254595483,-4145) translate(0 60.965999999999994)"/><use xlink:href="#x" transform="matrix(1,0,0,1,383.2668254595483,-4145) translate(105.39 60.965999999999994)"/><use xlink:href="#y" transform="matrix(1,0,0,1,383.2668254595483,-4145) translate(132.192 60.965999999999994)"/><use xlink:href="#z" transform="matrix(1,0,0,1,383.2668254595483,-4145) translate(201.51 60.965999999999994)"/><use xlink:href="#A" transform="matrix(1,0,0,1,383.2668254595483,-4145) translate(292.068 60.965999999999994)"/><use xlink:href="#B" transform="matrix(1,0,0,1,383.2668254595483,-4145) translate(323.082 60.965999999999994)"/><use xlink:href="#C" transform="matrix(1,0,0,1,383.2668254595483,-4145) translate(378.558 60.965999999999994)"/><use xlink:href="#D" transform="matrix(1,0,0,1,383.2668254595483,-4145) translate(392.706 60.965999999999994)"/><use xlink:href="#E" transform="matrix(1,0,0,1,383.2668254595483,-4145) translate(427.896 60.965999999999994)"/><use xlink:href="#F" transform="matrix(1,0,0,1,383.2668254595483,-4145) translate(0 82.566)"/><use xlink:href="#G" transform="matrix(1,0,0,1,383.2668254595483,-4145) translate(52.05599999999999 82.566)"/><use xlink:href="#H" transform="matrix(1,0,0,1,383.2668254595483,-4145) translate(102.02399999999999 82.566)"/><use xlink:href="#I" transform="matrix(1,0,0,1,383.2668254595483,-4145) translate(125.51399999999998 82.566)"/><use xlink:href="#J" transform="matrix(1,0,0,1,383.2668254595483,-4145) translate(155.14199999999997 82.566)"/><use xlink:href="#K" transform="matrix(1,0,0,1,383.2668254595483,-4145) translate(188.92799999999997 82.566)"/><use xlink:href="#D" transform="matrix(1,0,0,1,383.2668254595483,-4145) translate(224.96399999999997 82.566)"/><use xlink:href="#L" transform="matrix(1,0,0,1,383.2668254595483,-4145) translate(260.15399999999994 82.566)"/><use xlink:href="#M" transform="matrix(1,0,0,1,383.2668254595483,-4145) translate(276.04799999999994 82.566)"/><use xlink:href="#N" transform="matrix(1,0,0,1,383.2668254595483,-4145) translate(288.64799999999997 82.566)"/><use xlink:href="#O" transform="matrix(1,0,0,1,383.2668254595483,-4145) translate(357.85799999999995 82.566)"/><use xlink:href="#P" transform="matrix(1,0,0,1,383.2668254595483,-4145) translate(377.40599999999995 82.566)"/><use xlink:href="#v" transform="matrix(1,0,0,1,383.2668254595483,-4145) translate(442.53 82.566)"/><use xlink:href="#Q" transform="matrix(1,0,0,1,383.2668254595483,-4145) translate(0 104.166)"/><use xlink:href="#I" transform="matrix(1,0,0,1,383.2668254595483,-4145) translate(18.09 104.166)"/><use xlink:href="#R" transform="matrix(1,0,0,1,383.2668254595483,-4145) translate(47.717999999999996 104.166)"/><path d="M247-4586h141.37v52.67H247z" stroke="#000" stroke-opacity="0" stroke-width="2" fill="#fff" fill-opacity="0"/><use xlink:href="#S" transform="matrix(1,0,0,1,252.00000000000003,-4581) translate(0.795555555555552 17.546666666666667)"/><use xlink:href="#T" transform="matrix(1,0,0,1,252.00000000000003,-4581) translate(120.89333333333335 17.546666666666667)"/><path d="M259.07-4545.12a4 4 0 0 1 4-4h112a4 4 0 0 1 4 4v70.06a4 4 0 0 1-4 4h-112a4 4 0 0 1-4-4z" stroke="#d2dbdf" stroke-width="2" fill="#fff" filter="url(#e)"/><path d="M291.62-4529.1h54.88v38h-54.88z" stroke="#607d8b" stroke-width="2" fill="#fff"/><path d="M291.62-4529.1h54.88v8.77h-54.88zM291.62-4520.33h23.7v29.24h-23.7z" stroke="#607d8b" stroke-width="2" fill="#fff"/><path d="M297.8-4524.7c0 .87-.7 1.58-1.58 1.58-.88 0-1.6-.7-1.6-1.6 0-.87.72-1.6 1.6-1.6.88 0 1.6.73 1.6 1.6zM302.06-4524.7c0 .87-.7 1.58-1.6 1.58-.87 0-1.58-.7-1.58-1.6 0-.87.7-1.6 1.6-1.6.87 0 1.58.73 1.58 1.6zM306.3-4524.7c0 .87-.7 1.58-1.58 1.58-.88 0-1.6-.7-1.6-1.6 0-.87.72-1.6 1.6-1.6.88 0 1.6.73 1.6 1.6zM309.46-4526.3h30.35v3.18h-30.34z" stroke="#000" stroke-opacity="0" stroke-width="2" fill="#607d8b"/><path d="M247.95-4406.18h141.37v52.66H247.95z" stroke="#000" stroke-opacity="0" stroke-width="2" fill="#fff" fill-opacity="0"/><g><use xlink:href="#S" transform="matrix(1,0,0,1,252.952642664847,-4401.183328588299) translate(0.795555555555552 17.546666666666667)"/><use xlink:href="#U" transform="matrix(1,0,0,1,252.952642664847,-4401.183328588299) translate(120.89333333333335 17.546666666666667)"/></g><g filter="url(#e)"><path d="M258.65-4365.3a4 4 0 0 1 4-4h111.98a4 4 0 0 1 4 4v70.06a4 4 0 0 1-4 4H262.65a4 4 0 0 1-4-4z" stroke="#d2dbdf" stroke-width="2" fill="#fff"/></g><path d="M292.58-4349.28h54.88v38h-54.88z" stroke="#607d8b" stroke-width="2" fill="#fff"/><path d="M292.58-4349.28h54.88v8.76h-54.88z" stroke="#607d8b" stroke-width="2" fill="#fff"/><path d="M292.58-4340.52h23.7v29.24h-23.7z" stroke="#607d8b" stroke-width="2" fill="#fff"/><path d="M298.77-4344.9c0 .88-.72 1.6-1.6 1.6-.88 0-1.6-.72-1.6-1.6 0-.88.72-1.6 1.6-1.6.88 0 1.6.72 1.6 1.6zM303.02-4344.9c0 .88-.72 1.6-1.6 1.6-.88 0-1.6-.72-1.6-1.6 0-.88.72-1.6 1.6-1.6.88 0 1.6.72 1.6 1.6zM307.27-4344.9c0 .88-.72 1.6-1.6 1.6-.88 0-1.6-.72-1.6-1.6 0-.88.72-1.6 1.6-1.6.88 0 1.6.72 1.6 1.6zM310.42-4346.5h30.35v3.2h-30.35z" stroke="#000" stroke-opacity="0" stroke-width="2" fill="#607d8b"/><path d="M775-4515.52h120v78.07H775z" stroke="#000" stroke-opacity="0" stroke-width="2" fill="#fff" fill-opacity="0"/><g><use xlink:href="#V" transform="matrix(1,0,0,1,779.9999999999241,-4510.518663819764) translate(14.568888888888893 17.546666666666667)"/><use xlink:href="#W" transform="matrix(1,0,0,1,779.9999999999241,-4510.518663819764) translate(10.32 38.879999999999995)"/></g><g filter="url(#e)"><path d="M775-4454.07a4 4 0 0 1 4-4h112a4 4 0 0 1 4 4v70.07a4 4 0 0 1-4 4H779a4 4 0 0 1-4-4z" stroke="#d2dbdf" stroke-width="2" fill="#fff"/></g><path d="M862.92-4396.45h-55.86c-2.7 0-4.92-2.2-4.92-4.93v-36.15c0-2.72 2.23-4.92 4.92-4.92h55.86c2.7 0 4.93 2.2 4.93 4.92v36.15c0 2.72-2.23 4.93-4.93 4.93zm-55.86-42.74c-.92 0-1.64.75-1.64 1.67v36.15c0 .92.72 1.66 1.64 1.66h55.86c.92 0 1.64-.74 1.64-1.66v-36.15c0-.92-.72-1.66-1.64-1.66h-55.86z" stroke="#000" stroke-opacity="0" fill="#512fc9"/><path d="M830.06-4406.3h-16.42c-.92 0-1.65-.73-1.65-1.65 0-.23.06-2.17 1.24-4.14 1.18-1.88 3.62-4.1 8.6-4.1 5 0 7.44 2.22 8.62 4.1 1.12 1.75 1.25 3.5 1.25 4v.15c0 .92-.72 1.65-1.64 1.65zm-14.4-3.3h12.37c-.13-.3-.27-.56-.46-.88-1.05-1.6-2.96-2.4-5.72-2.4s-4.67.83-5.72 2.4c-.2.32-.33.6-.46.87zM856.35-4426.03h-16.43c-.92 0-1.64-.74-1.64-1.66 0-.86.72-1.6 1.64-1.6h16.43c.92 0 1.64.74 1.64 1.6 0 .93-.73 1.67-1.65 1.67zM853.06-4419.45h-13.14c-.92 0-1.64-.74-1.64-1.66 0-.88.72-1.62 1.64-1.62h13.14c.92 0 1.65.74 1.65 1.6 0 .93-.72 1.67-1.64 1.67zM853.06-4412.88h-13.14c-.92 0-1.64-.73-1.64-1.65 0-.92.72-1.66 1.64-1.66h13.14c.92 0 1.65.75 1.65 1.67 0 .92-.72 1.65-1.64 1.65zM821.85-4419.45c-3.6 0-6.57-2.95-6.57-6.58 0-3.64 2.96-6.58 6.57-6.58 3.6 0 6.57 2.93 6.57 6.57 0 3.63-2.96 6.58-6.57 6.58zm0-9.85c-1.84 0-3.3 1.47-3.3 3.27s1.46 3.3 3.3 3.3c1.84 0 3.3-1.5 3.3-3.3 0-1.8-1.46-3.27-3.3-3.27zM856.35-4406.3h-16.43c-.92 0-1.64-.73-1.64-1.65 0-.92.72-1.66 1.64-1.66h16.43c.92 0 1.64.73 1.64 1.65 0 .92-.73 1.65-1.65 1.65z" stroke="#000" stroke-opacity="0" fill="#512fc9"/><path d="M702-4441h39.5v2H700v-70.1h-16v-2h18zm-301-68.1v-2h16.27v2z" stroke="#607d8b" stroke-width=".05" fill="#607d8b"/><path d="M401.03-4509.1H400v-2h1.03z" stroke="#607d8b" stroke-width=".05" fill="#607d8b"/><path d="M756.76-4440l-14.26 4.64v-9.28z" fill="#607d8b"/><path d="M760-4440l-18.5 6v-12zm-16.5 3.26l10.03-3.26-10.03-3.26z" stroke="#607d8b" stroke-width=".05" fill="#607d8b"/><g><use xlink:href="#X" transform="matrix(1,0,0,1,417.27104824964897,-4519.558825922842) translate(0 15.572666666666667)"/><use xlink:href="#Y" transform="matrix(1,0,0,1,417.27104824964897,-4519.558825922842) translate(6.090222222222223 15.572666666666667)"/><use xlink:href="#Z" transform="matrix(1,0,0,1,417.27104824964897,-4519.558825922842) translate(68.302 15.572666666666667)"/><use xlink:href="#aa" transform="matrix(1,0,0,1,417.27104824964897,-4519.558825922842) translate(99.14755555555557 15.572666666666667)"/><use xlink:href="#ab" transform="matrix(1,0,0,1,417.27104824964897,-4519.558825922842) translate(116.85022222222224 15.572666666666667)"/><use xlink:href="#ac" transform="matrix(1,0,0,1,417.27104824964897,-4519.558825922842) translate(159.9235555555556 15.572666666666667)"/><use xlink:href="#ad" transform="matrix(1,0,0,1,417.27104824964897,-4519.558825922842) translate(190.69022222222227 15.572666666666667)"/><use xlink:href="#ae" transform="matrix(1,0,0,1,417.27104824964897,-4519.558825922842) translate(211.28022222222228 15.572666666666667)"/></g><path d="M463.27-4329.28H401v-2h62.27zM741.5-4399H702v69.72h-64.63v-2H700V-4401h41.5z" stroke="#607d8b" stroke-width=".05" fill="#607d8b"/><path d="M401.03-4329.28H400v-2h1.03z" stroke="#607d8b" stroke-width=".05" fill="#607d8b"/><path d="M756.76-4400l-14.26 4.64v-9.28z" fill="#607d8b"/><path d="M760-4400l-18.5 6v-12zm-16.5 3.26l10.03-3.26-10.03-3.26z" stroke="#607d8b" stroke-width=".05" fill="#607d8b"/><g><use xlink:href="#af" transform="matrix(1,0,0,1,463.2665227247319,-4339.742154511227) translate(0 15.572666666666667)"/><use xlink:href="#ag" transform="matrix(1,0,0,1,463.2665227247319,-4339.742154511227) translate(6.090222222222223 15.572666666666667)"/><use xlink:href="#ah" transform="matrix(1,0,0,1,463.2665227247319,-4339.742154511227) translate(33.13333333333334 15.572666666666667)"/><use xlink:href="#ai" transform="matrix(1,0,0,1,463.2665227247319,-4339.742154511227) translate(57.399555555555565 15.572666666666667)"/><use xlink:href="#aj" transform="matrix(1,0,0,1,463.2665227247319,-4339.742154511227) translate(96.79666666666668 15.572666666666667)"/><use xlink:href="#ak" transform="matrix(1,0,0,1,463.2665227247319,-4339.742154511227) translate(140.0908888888889 15.572666666666667)"/></g><path d="M345.43-4219H328.9v-2h16.53zm487.45 0h-16.35v-2h16.35zM321-4221.18h-2v-20.16h2zm515-6.8h-2v-20.14h2zm-515-23.44h-2v-10.08h2zm515-6.78h-2v-20.16h2zm0-30.24h-2v-20.16h2zm0-30.24h-2v-20.16h2zm0-30.24h-2V-4359h2z" stroke="#000" stroke-width=".05"/><path d="M836-4358.97h-2v-1.03h2z" stroke="#000" stroke-width=".05"/><path d="M324.64-4262.5h-9.28l4.64-14.26z"/><path d="M326-4261.5h-12l6-18.5zm-9.26-2h6.52l-3.26-10.03z" stroke="#000" stroke-width=".05"/><g><use xlink:href="#al" transform="matrix(1,0,0,1,345.4287260759925,-4229.466666666666) translate(0 12.622222222222224)"/><use xlink:href="#am" transform="matrix(1,0,0,1,345.4287260759925,-4229.466666666666) translate(8.765432098765432 12.622222222222224)"/><use xlink:href="#an" transform="matrix(1,0,0,1,345.4287260759925,-4229.466666666666) translate(41.197530864197525 12.622222222222224)"/><use xlink:href="#ao" transform="matrix(1,0,0,1,345.4287260759925,-4229.466666666666) translate(56.93148148148148 12.622222222222224)"/><use xlink:href="#ap" transform="matrix(1,0,0,1,345.4287260759925,-4229.466666666666) translate(70.07962962962962 12.622222222222224)"/><use xlink:href="#aq" transform="matrix(1,0,0,1,345.4287260759925,-4229.466666666666) translate(132.18271604938272 12.622222222222224)"/><use xlink:href="#ar" transform="matrix(1,0,0,1,345.4287260759925,-4229.466666666666) translate(149.71358024691358 12.622222222222224)"/><use xlink:href="#as" transform="matrix(1,0,0,1,345.4287260759925,-4229.466666666666) translate(206.64506172839504 12.622222222222224)"/><use xlink:href="#at" transform="matrix(1,0,0,1,345.4287260759925,-4229.466666666666) translate(277.2944444444444 12.622222222222224)"/><use xlink:href="#au" transform="matrix(1,0,0,1,345.4287260759925,-4229.466666666666) translate(335.71604938271605 12.622222222222224)"/></g><defs><path fill="#333" d="M409-112c121-3 207-52 207-167 0-134-157-142-264-181-133-48-263-98-263-275 0-197 153-290 360-294 139-3 243 49 317 118-26 35-46 114-111 76-53-31-114-63-202-61-108 3-195 44-195 147 0 129 158 136 262 175 128 48 263 93 263 264C783-89 627 12 400 16 255 19 139-39 62-107c27-41 57-128 128-81 57 38 118 78 219 76" id="av"/><path fill="#333" d="M344-1013V0H166v-1013h178zm-88-446c77 0 128 52 128 128 0 75-52 126-128 126-75 0-126-51-126-126 0-76 50-128 126-128" id="aw"/><path fill="#333" d="M103-704c0-220 160-326 384-326 92 0 169 21 228 57h275c-2 53 13 100-42 108l-115 16c43 79 45 196 5 279-58 120-176 191-351 193-47 0-92-6-134-17-50 22-100 108-36 142 165 88 511-13 621 164 40 65 36 170-4 240-77 134-229 213-441 213-193 0-343-50-415-167-19-32-28-66-28-101 3-117 84-175 178-211-54-27-98-64-94-143 4-90 64-137 129-173-91-51-160-139-160-274zM334-85C254-53 162 38 224 138c97 157 586 133 579-83C799-63 659-58 543-68c-70-6-146-6-209-17zm-67-614c0 134 84 204 220 204 137 0 221-69 221-204 0-129-85-203-221-203-135 0-220 74-220 203" id="ax"/><path fill="#333" d="M598-887c-125 2-207 68-274 141V0H146v-1013c60 6 147-22 154 37l14 110c82-87 177-163 336-163 232 0 339 151 339 384V0H811v-645c0-149-65-244-213-242" id="ay"/><g id="b"><use transform="matrix(0.007888888888888886,0,0,0.007888888888888886,0,0)" xlink:href="#av"/><use transform="matrix(0.007888888888888886,0,0,0.007888888888888886,6.847555555555553,0)" xlink:href="#aw"/><use transform="matrix(0.007888888888888886,0,0,0.007888888888888886,10.886666666666663,0)" xlink:href="#ax"/><use transform="matrix(0.007888888888888886,0,0,0.007888888888888886,18.949111111111105,0)" xlink:href="#ay"/></g><path fill-opacity="0" d="M788 165v120H0V165h788" id="az"/><g id="c"><use transform="matrix(0.007888888888888886,0,0,0.007888888888888886,0,0)" xlink:href="#aw"/><use transform="matrix(0.007888888888888886,0,0,0.007888888888888886,4.03911111111111,0)" xlink:href="#ay"/><use transform="matrix(0.007888888888888886,0,0,0.007888888888888886,12.811555555555552,0)" xlink:href="#az"/></g><path fill="#333" d="M1177-1061c0 181-116 262-257 314 199 45 298 152 298 322C1218-130 997 0 692 0H146v-1446h499c307 3 532 89 532 385zM952-431c0-152-108-202-265-203H415v424h273c163-1 264-65 264-221zm-43-598c0-163-94-209-264-209H415v418h215c168-1 279-50 279-209" id="aA"/><path fill="#333" d="M1480-1018c71 176 71 414 0 590-106 261-323 444-679 444S225-168 120-428c-71-176-71-414 0-590 106-261 324-444 681-444 355 0 573 184 679 444zM801-214c307 0 456-198 456-509s-149-510-456-510c-308 0-459 198-459 510s152 509 459 509" id="aB"/><g id="d"><use transform="matrix(0.008888888888888889,0,0,0.008888888888888889,0,0)" xlink:href="#aA"/><use transform="matrix(0.008888888888888889,0,0,0.008888888888888889,11.582222222222223,0)" xlink:href="#aB"/><use transform="matrix(0.008888888888888889,0,0,0.008888888888888889,25.795555555555556,0)" xlink:href="#aA"/></g><filter id="e" filterUnits="objectBoundingBox" x="-.11" y="-.12" width="1.25" height="1.38"><feOffset result="offOut" in="SourceAlpha" dx="2.05" dy="5.64"/><feGaussianBlur result="blurOut" in="offOut" stdDeviation="7.5"/><feColorMatrix result="colorOut" in="blurOut" values="0 0 0 0 0 0 0 0 0 0 0 0 0 0 0 0 0 0 0.14901960784313725 0"/><feBlend in="SourceGraphic" in2="colorOut"/></filter><path fill="#512fc9" d="M23 0v-37h61v-169l-59 37v-38l62-41h46v211h57V0H23" id="aC"/><path fill="#512fc9" d="M24 0v-54h51V0H24" id="aD"/><g id="f"><use transform="matrix(0.05,0,0,0.05,0,0)" xlink:href="#aC"/><use transform="matrix(0.05,0,0,0.05,10,0)" xlink:href="#aD"/></g><path fill="#512fc9" d="M404 0H210v-1433h194V0" id="aE"/><path fill="#512fc9" d="M598-887c-125 2-207 68-274 141V0H146v-1013c60 6 147-22 154 37l14 110c82-87 177-163 336-163 232 0 339 151 339 384V0H811v-645c0-149-65-244-213-242" id="aF"/><g id="g"><use transform="matrix(0.009,0,0,0.009,0,0)" xlink:href="#aE"/><use transform="matrix(0.009,0,0,0.009,5.526,0)" xlink:href="#aF"/></g><path fill="#512fc9" d="M537-1031c235 0 353 147 353 383V0c-58-5-129 17-142-42l-20-94C637-55 545 19 375 16 200 13 92-76 92-253c0-184 160-243 332-285 79-19 176-28 291-31 12-184-31-318-200-318-113 0-181 45-243 91-36 26-82 14-99-17l-32-57c101-96 215-161 396-161zM263-261c0 103 62 152 165 152 140 0 216-64 287-136v-211c-141 4-258 19-349 60-60 27-103 62-103 135" id="aG"/><path fill="#512fc9" d="M510-1031c133 0 210 49 277 120v-562h178V0c-60-6-146 21-154-37l-16-123C716-67 616 14 455 14 173 14 72-209 72-503c0-237 94-406 254-487 54-27 115-41 184-41zM256-503c2 212 53 373 258 373 136 0 207-69 273-153v-490c-57-77-121-119-237-119-208 0-296 164-294 389" id="aH"/><path fill="#512fc9" d="M344-1013V0H166v-1013h178zm-88-446c77 0 128 52 128 128 0 75-52 126-128 126-75 0-126-51-126-126 0-76 50-128 126-128" id="aI"/><path fill="#512fc9" d="M698-76c-54 52-145 92-245 92-162 1-249-96-249-260v-620c-58-9-160 26-160-39v-71l166-21 41-313c4-50 80-30 131-34v349h290v129H382v608c-2 78 40 125 111 126 60 2 88-33 128-48 9 0 18 6 25 17" id="aJ"/><path fill="#512fc9" d="M1038-507c0 321-164 521-482 521S72-187 72-507c0-248 107-410 284-485 60-25 126-37 200-37 317 0 482 201 482 522zm-782 1c0 225 80 381 300 381 213 0 298-159 298-381 0-223-84-383-298-383-221 0-300 158-300 383" id="aK"/><g id="h"><use transform="matrix(0.009,0,0,0.009,0,0)" xlink:href="#aG"/><use transform="matrix(0.009,0,0,0.009,9.126,0)" xlink:href="#aH"/><use transform="matrix(0.009,0,0,0.009,19.188,0)" xlink:href="#aH"/><use transform="matrix(0.009,0,0,0.009,29.250000000000004,0)" xlink:href="#aI"/><use transform="matrix(0.009,0,0,0.009,33.858,0)" xlink:href="#aJ"/><use transform="matrix(0.009,0,0,0.009,40.571999999999996,0)" xlink:href="#aI"/><use transform="matrix(0.009,0,0,0.009,45.18,0)" xlink:href="#aK"/><use transform="matrix(0.009,0,0,0.009,55.18799999999999,0)" xlink:href="#aF"/></g><g id="i"><use transform="matrix(0.009,0,0,0.009,0,0)" xlink:href="#aJ"/><use transform="matrix(0.009,0,0,0.009,6.7139999999999995,0)" xlink:href="#aK"/></g><path fill="#512fc9" d="M513-145c178-4 292-88 292-262 0-193-194-213-343-263-182-61-347-142-342-385 4-188 111-303 254-361 117-48 292-41 408 5 66 26 124 62 173 110-22 37-36 86-66 115-51 25-83-28-123-48-53-26-114-56-200-54-157 4-266 71-266 223 0 186 200 204 344 258 175 65 343 135 343 372 0 289-185 446-480 451-198 4-349-81-449-187 26-36 42-83 76-111 60-25 93 39 140 65 62 34 135 75 239 72" id="aL"/><path fill="#512fc9" d="M1454-1012c68 174 68 418 0 592-101 256-310 435-656 435S243-165 143-420c-68-174-68-418 0-592 101-256 309-437 655-437s556 181 656 437zM798-153c339 0 508-219 508-563 0-268-108-446-298-526-121-52-298-52-419 0-190 80-299 258-299 526s109 444 299 524c63 26 132 39 209 39" id="aM"/><g id="j"><use transform="matrix(0.009,0,0,0.009,0,0)" xlink:href="#aL"/><use transform="matrix(0.009,0,0,0.009,9.54,0)" xlink:href="#aL"/><use transform="matrix(0.009,0,0,0.009,19.08,0)" xlink:href="#aM"/></g><path fill="#512fc9" d="M954-142C850-8 572 61 364-22 180-96 74-268 74-527c0-234 108-389 275-463 59-26 125-39 198-39 273 0 420 174 420 453 0 48-2 70-43 70H250c8 226 98 375 322 380 114 2 191-38 258-82 70-46 94 37 124 66zM807-617c-5-171-86-278-256-281-181-3-273 116-295 281h551" id="aN"/><path fill="#512fc9" d="M443 299c-13 26-25 44-64 44H247L432-59 14-1013h154c30-1 46 18 55 37 95 228 197 450 287 682 6 14 8 30 11 45 10-32 18-60 30-90l263-637c18-60 124-30 194-37" id="aO"/><g id="k"><use transform="matrix(0.009,0,0,0.009,0,0)" xlink:href="#aI"/><use transform="matrix(0.009,0,0,0.009,4.608,0)" xlink:href="#aH"/><use transform="matrix(0.009,0,0,0.009,14.669999999999998,0)" xlink:href="#aN"/><use transform="matrix(0.009,0,0,0.009,24.101999999999997,0)" xlink:href="#aF"/><use transform="matrix(0.009,0,0,0.009,34.11,0)" xlink:href="#aJ"/><use transform="matrix(0.009,0,0,0.009,40.824,0)" xlink:href="#aI"/><use transform="matrix(0.009,0,0,0.009,45.431999999999995,0)" xlink:href="#aJ"/><use transform="matrix(0.009,0,0,0.009,52.145999999999994,0)" xlink:href="#aO"/></g><path fill="#512fc9" d="M602 14c-133 0-212-47-278-119v448H146v-1356c60 6 147-22 154 37l15 120c80-93 179-175 341-175 282 0 383 224 383 518 0 237-92 406-253 487-54 27-116 40-184 40zm253-527c-3-212-53-374-258-374-136 0-207 69-273 153v490c57 77 121 120 238 120 207 0 295-164 293-389" id="aP"/><path fill="#512fc9" d="M584-856c-148 6-210 94-260 211V0H146v-1013c62 7 151-25 157 49l12 158c66-138 184-259 384-216 23 5 44 16 63 27l-23 133c-5 17-15 25-31 25-36 0-71-21-124-19" id="aQ"/><path fill="#512fc9" d="M18-1013h146c28-1 47 18 55 37l257 652c18 45 27 93 37 143 12-50 22-98 40-143l260-652c17-60 123-30 192-37L592 0H431" id="aR"/><path fill="#512fc9" d="M409-112c121-3 207-52 207-167 0-134-157-142-264-181-133-48-263-98-263-275 0-197 153-290 360-294 139-3 243 49 317 118-26 35-46 114-111 76-53-31-114-63-202-61-108 3-195 44-195 147 0 129 158 136 262 175 128 48 263 93 263 264C783-89 627 12 400 16 255 19 139-39 62-107c27-41 57-128 128-81 57 38 118 78 219 76" id="aS"/><g id="l"><use transform="matrix(0.009,0,0,0.009,0,0)" xlink:href="#aP"/><use transform="matrix(0.009,0,0,0.009,9.936,0)" xlink:href="#aQ"/><use transform="matrix(0.009,0,0,0.009,17.189999999999998,0)" xlink:href="#aK"/><use transform="matrix(0.009,0,0,0.009,26.963999999999995,0)" xlink:href="#aR"/><use transform="matrix(0.009,0,0,0.009,36.17999999999999,0)" xlink:href="#aI"/><use transform="matrix(0.009,0,0,0.009,40.78799999999999,0)" xlink:href="#aH"/><use transform="matrix(0.009,0,0,0.009,50.84999999999999,0)" xlink:href="#aN"/><use transform="matrix(0.009,0,0,0.009,60.28199999999998,0)" xlink:href="#aQ"/><use transform="matrix(0.009,0,0,0.009,67.53599999999999,0)" xlink:href="#aS"/></g><g id="m"><use transform="matrix(0.009,0,0,0.009,0,0)" xlink:href="#aS"/><use transform="matrix(0.009,0,0,0.009,7.811999999999999,0)" xlink:href="#aN"/><use transform="matrix(0.009,0,0,0.009,17.244,0)" xlink:href="#aQ"/><use transform="matrix(0.009,0,0,0.009,24.497999999999998,0)" xlink:href="#aR"/><use transform="matrix(0.009,0,0,0.009,33.48,0)" xlink:href="#aN"/></g><path fill="#512fc9" d="M550-887c-107 0-172 65-226 132V0H146v-1013c60 6 147-22 154 37l13 104c69-80 148-156 287-157 148-1 223 92 258 211 51-126 153-211 323-211 232 0 338 149 338 384V0h-178v-645c1-148-62-242-203-242-142 0-218 94-218 242V0H742v-645c1-149-54-242-192-242" id="aT"/><g id="n"><use transform="matrix(0.009,0,0,0.009,0,0)" xlink:href="#aT"/><use transform="matrix(0.009,0,0,0.009,14.777999999999999,0)" xlink:href="#aN"/><use transform="matrix(0.009,0,0,0.009,24.209999999999997,0)" xlink:href="#aJ"/><use transform="matrix(0.009,0,0,0.009,30.923999999999996,0)" xlink:href="#aG"/><use transform="matrix(0.009,0,0,0.009,40.05,0)" xlink:href="#aH"/><use transform="matrix(0.009,0,0,0.009,50.111999999999995,0)" xlink:href="#aG"/><use transform="matrix(0.009,0,0,0.009,59.23799999999999,0)" xlink:href="#aJ"/><use transform="matrix(0.009,0,0,0.009,65.952,0)" xlink:href="#aG"/></g><path fill="#512fc9" d="M608 14c-142 0-221-61-286-144-9 50 6 130-55 130H152v-1473h179v606c78-87 176-162 331-162 283 0 384 222 384 516 0 237-93 406-254 487-54 27-116 40-184 40zm254-527c-2-212-53-374-258-374-136 0-207 69-273 153v490c56 77 120 120 237 120 208 0 296-164 294-389" id="aU"/><path fill="#512fc9" d="M461 16c-231 0-339-149-339-383v-646h178v646c0 148 67 243 213 241 125-2 207-66 274-140v-747h178V0c-60-6-146 22-154-37l-14-109C716-60 619 16 461 16" id="aV"/><g id="o"><use transform="matrix(0.009,0,0,0.009,0,0)" xlink:href="#aG"/><use transform="matrix(0.009,0,0,0.009,9.126,0)" xlink:href="#aU"/><use transform="matrix(0.009,0,0,0.009,19.188,0)" xlink:href="#aK"/><use transform="matrix(0.009,0,0,0.009,29.195999999999998,0)" xlink:href="#aV"/><use transform="matrix(0.009,0,0,0.009,39.20399999999999,0)" xlink:href="#aJ"/></g><path fill="#512fc9" d="M895-142C799-8 539 62 344-21 173-94 74-262 74-507c0-317 160-522 477-522 151 0 254 54 333 132-21 26-39 58-63 81-42 20-68-19-100-34-42-20-91-42-160-40-219 6-304 160-304 383 0 220 82 376 295 383 106 4 169-38 223-84 22-19 53-21 70 1" id="aW"/><path fill="#512fc9" d="M344-1473V0H166v-1473h178" id="aX"/><g id="p"><use transform="matrix(0.009,0,0,0.009,0,0)" xlink:href="#aP"/><use transform="matrix(0.009,0,0,0.009,9.936,0)" xlink:href="#aQ"/><use transform="matrix(0.009,0,0,0.009,17.189999999999998,0)" xlink:href="#aI"/><use transform="matrix(0.009,0,0,0.009,21.798,0)" xlink:href="#aF"/><use transform="matrix(0.009,0,0,0.009,31.805999999999997,0)" xlink:href="#aW"/><use transform="matrix(0.009,0,0,0.009,40.211999999999996,0)" xlink:href="#aI"/><use transform="matrix(0.009,0,0,0.009,44.81999999999999,0)" xlink:href="#aP"/><use transform="matrix(0.009,0,0,0.009,54.75599999999999,0)" xlink:href="#aG"/><use transform="matrix(0.009,0,0,0.009,63.881999999999984,0)" xlink:href="#aX"/><use transform="matrix(0.009,0,0,0.009,68.49,0)" xlink:href="#aS"/></g><path fill="#512fc9" d="M100-675h494v151H100v-151" id="aY"/><use transform="matrix(0.009,0,0,0.009,0,0)" xlink:href="#aY" id="q"/><g id="r"><use transform="matrix(0.009,0,0,0.009,0,0)" xlink:href="#aV"/><use transform="matrix(0.009,0,0,0.009,10.008,0)" xlink:href="#aS"/><use transform="matrix(0.009,0,0,0.009,17.82,0)" xlink:href="#aN"/><use transform="matrix(0.009,0,0,0.009,27.252,0)" xlink:href="#aQ"/><use transform="matrix(0.009,0,0,0.009,34.506,0)" xlink:href="#aS"/></g><g id="s"><use transform="matrix(0.009,0,0,0.009,0,0)" xlink:href="#aG"/><use transform="matrix(0.009,0,0,0.009,9.126,0)" xlink:href="#aF"/><use transform="matrix(0.009,0,0,0.009,19.133999999999997,0)" xlink:href="#aH"/></g><path fill="#512fc9" d="M223 0C139 2 94-45 94-123c0-70 47-112 118-113 165-3 132 231 74 332-37 65-83 128-140 175-20-19-63-49-29-84 46-47 91-108 106-187" id="aZ"/><g id="t"><use transform="matrix(0.009,0,0,0.009,0,0)" xlink:href="#aS"/><use transform="matrix(0.009,0,0,0.009,7.811999999999999,0)" xlink:href="#aN"/><use transform="matrix(0.009,0,0,0.009,17.244,0)" xlink:href="#aQ"/><use transform="matrix(0.009,0,0,0.009,24.497999999999998,0)" xlink:href="#aR"/><use transform="matrix(0.009,0,0,0.009,33.48,0)" xlink:href="#aN"/><use transform="matrix(0.009,0,0,0.009,42.91199999999999,0)" xlink:href="#aQ"/><use transform="matrix(0.009,0,0,0.009,50.16599999999999,0)" xlink:href="#aS"/><use transform="matrix(0.009,0,0,0.009,57.97799999999999,0)" xlink:href="#aZ"/></g><path fill="#512fc9" d="M103-704c0-220 160-326 384-326 92 0 169 21 228 57h275c-2 53 13 100-42 108l-115 16c43 79 45 196 5 279-58 120-176 191-351 193-47 0-92-6-134-17-50 22-100 108-36 142 165 88 511-13 621 164 40 65 36 170-4 240-77 134-229 213-441 213-193 0-343-50-415-167-19-32-28-66-28-101 3-117 84-175 178-211-54-27-98-64-94-143 4-90 64-137 129-173-91-51-160-139-160-274zM334-85C254-53 162 38 224 138c97 157 586 133 579-83C799-63 659-58 543-68c-70-6-146-6-209-17zm-67-614c0 134 84 204 220 204 137 0 221-69 221-204 0-129-85-203-221-203-135 0-220 74-220 203" id="ba"/><g id="u"><use transform="matrix(0.009,0,0,0.009,0,0)" xlink:href="#aW"/><use transform="matrix(0.009,0,0,0.009,8.405999999999999,0)" xlink:href="#aK"/><use transform="matrix(0.009,0,0,0.009,18.413999999999998,0)" xlink:href="#aT"/><use transform="matrix(0.009,0,0,0.009,33.19199999999999,0)" xlink:href="#aT"/><use transform="matrix(0.009,0,0,0.009,47.969999999999985,0)" xlink:href="#aV"/><use transform="matrix(0.009,0,0,0.009,57.977999999999994,0)" xlink:href="#aF"/><use transform="matrix(0.009,0,0,0.009,67.98599999999999,0)" xlink:href="#aI"/><use transform="matrix(0.009,0,0,0.009,72.594,0)" xlink:href="#aW"/><use transform="matrix(0.009,0,0,0.009,81,0)" xlink:href="#aG"/><use transform="matrix(0.009,0,0,0.009,90.126,0)" xlink:href="#aJ"/><use transform="matrix(0.009,0,0,0.009,96.84,0)" xlink:href="#aI"/><use transform="matrix(0.009,0,0,0.009,101.44800000000001,0)" xlink:href="#aF"/><use transform="matrix(0.009,0,0,0.009,111.456,0)" xlink:href="#ba"/></g><g id="v"><use transform="matrix(0.009,0,0,0.009,0,0)" xlink:href="#ba"/><use transform="matrix(0.009,0,0,0.009,9.197999999999999,0)" xlink:href="#aQ"/><use transform="matrix(0.009,0,0,0.009,16.451999999999998,0)" xlink:href="#aK"/><use transform="matrix(0.009,0,0,0.009,26.459999999999997,0)" xlink:href="#aV"/><use transform="matrix(0.009,0,0,0.009,36.467999999999996,0)" xlink:href="#aP"/></g><path fill="#512fc9" d="M598-887c-125 2-207 68-274 141V0H146v-1473h178v596c81-82 173-152 326-152 232 0 339 151 339 384V0H811v-645c0-149-65-244-213-242" id="bb"/><g id="w"><use transform="matrix(0.009,0,0,0.009,0,0)" xlink:href="#aT"/><use transform="matrix(0.009,0,0,0.009,14.777999999999999,0)" xlink:href="#aN"/><use transform="matrix(0.009,0,0,0.009,24.209999999999997,0)" xlink:href="#aT"/><use transform="matrix(0.009,0,0,0.009,38.988,0)" xlink:href="#aU"/><use transform="matrix(0.009,0,0,0.009,49.05,0)" xlink:href="#aN"/><use transform="matrix(0.009,0,0,0.009,58.48199999999999,0)" xlink:href="#aQ"/><use transform="matrix(0.009,0,0,0.009,65.736,0)" xlink:href="#aS"/><use transform="matrix(0.009,0,0,0.009,73.548,0)" xlink:href="#bb"/><use transform="matrix(0.009,0,0,0.009,83.556,0)" xlink:href="#aI"/><use transform="matrix(0.009,0,0,0.009,88.16399999999999,0)" xlink:href="#aP"/><use transform="matrix(0.009,0,0,0.009,98.1,0)" xlink:href="#aZ"/></g><path fill="#512fc9" d="M594-1317c-165 0-237 72-235 231v93h293v129H365V0H186v-861c-49-9-113-4-146-29-24-17-10-67-14-103h160v-98c5-229 120-363 348-363 45 0 87 7 126 20l-4 89c-2 31-28 28-62 28" id="bc"/><g id="x"><use transform="matrix(0.009,0,0,0.009,0,0)" xlink:href="#bc"/><use transform="matrix(0.009,0,0,0.009,6.066,0)" xlink:href="#aK"/><use transform="matrix(0.009,0,0,0.009,16.073999999999998,0)" xlink:href="#aQ"/></g><path fill="#512fc9" d="M383-519L42-1013h171c30 0 38 9 50 27l248 380c6-19 14-38 26-56l218-320c12-15 21-30 45-31h164L623-529 978 0H807c-30 1-44-19-55-37L497-434c-5 19-11 37-21 52L240-37c-13 16-24 37-53 37H28" id="bd"/><g id="y"><use transform="matrix(0.009,0,0,0.009,0,0)" xlink:href="#aN"/><use transform="matrix(0.009,0,0,0.009,8.892,0)" xlink:href="#bd"/><use transform="matrix(0.009,0,0,0.009,17.964,0)" xlink:href="#aG"/><use transform="matrix(0.009,0,0,0.009,27.089999999999996,0)" xlink:href="#aT"/><use transform="matrix(0.009,0,0,0.009,41.867999999999995,0)" xlink:href="#aP"/><use transform="matrix(0.009,0,0,0.009,51.803999999999995,0)" xlink:href="#aX"/><use transform="matrix(0.009,0,0,0.009,56.412,0)" xlink:href="#aN"/></g><g id="z"><use transform="matrix(0.009,0,0,0.009,0,0)" xlink:href="#aG"/><use transform="matrix(0.009,0,0,0.009,9.126,0)" xlink:href="#aP"/><use transform="matrix(0.009,0,0,0.009,19.061999999999998,0)" xlink:href="#aP"/><use transform="matrix(0.009,0,0,0.009,28.997999999999998,0)" xlink:href="#aX"/><use transform="matrix(0.009,0,0,0.009,33.605999999999995,0)" xlink:href="#aI"/><use transform="matrix(0.009,0,0,0.009,38.21399999999999,0)" xlink:href="#aW"/><use transform="matrix(0.009,0,0,0.009,46.61999999999999,0)" xlink:href="#aG"/><use transform="matrix(0.009,0,0,0.009,55.74599999999999,0)" xlink:href="#aJ"/><use transform="matrix(0.009,0,0,0.009,62.45999999999999,0)" xlink:href="#aI"/><use transform="matrix(0.009,0,0,0.009,67.06799999999998,0)" xlink:href="#aK"/><use transform="matrix(0.009,0,0,0.009,77.07599999999998,0)" xlink:href="#aF"/></g><g id="A"><use transform="matrix(0.009,0,0,0.009,0,0)" xlink:href="#aW"/><use transform="matrix(0.009,0,0,0.009,8.405999999999999,0)" xlink:href="#aG"/><use transform="matrix(0.009,0,0,0.009,17.531999999999996,0)" xlink:href="#aF"/></g><g id="B"><use transform="matrix(0.009,0,0,0.009,0,0)" xlink:href="#aH"/><use transform="matrix(0.009,0,0,0.009,10.062,0)" xlink:href="#aN"/><use transform="matrix(0.009,0,0,0.009,19.494,0)" xlink:href="#aW"/><use transform="matrix(0.009,0,0,0.009,27.9,0)" xlink:href="#aI"/><use transform="matrix(0.009,0,0,0.009,32.507999999999996,0)" xlink:href="#aH"/><use transform="matrix(0.009,0,0,0.009,42.57,0)" xlink:href="#aN"/></g><g id="C"><use transform="matrix(0.009,0,0,0.009,0,0)" xlink:href="#aI"/><use transform="matrix(0.009,0,0,0.009,4.608,0)" xlink:href="#bc"/></g><path fill="#512fc9" d="M867-737c186 37 317 126 317 329C1184-123 974 0 681 0H174v-1433h457c293 3 505 90 505 374 0 185-121 273-269 322zm126 324c0-168-128-240-316-240H368v499h310c190-2 315-75 315-259zm-50-623c0-184-115-243-312-244H368v489h256c186-3 319-66 319-245" id="be"/><g id="D"><use transform="matrix(0.009,0,0,0.009,0,0)" xlink:href="#be"/><use transform="matrix(0.009,0,0,0.009,11.645999999999999,0)" xlink:href="#aK"/><use transform="matrix(0.009,0,0,0.009,21.654,0)" xlink:href="#aU"/></g><g id="E"><use transform="matrix(0.009,0,0,0.009,0,0)" xlink:href="#aI"/><use transform="matrix(0.009,0,0,0.009,4.608,0)" xlink:href="#aS"/></g><g id="F"><use transform="matrix(0.009,0,0,0.009,0,0)" xlink:href="#aG"/><use transform="matrix(0.009,0,0,0.009,9.126,0)" xlink:href="#aH"/><use transform="matrix(0.009,0,0,0.009,19.188,0)" xlink:href="#aT"/><use transform="matrix(0.009,0,0,0.009,33.965999999999994,0)" xlink:href="#aI"/><use transform="matrix(0.009,0,0,0.009,38.57399999999999,0)" xlink:href="#aF"/></g><g id="G"><use transform="matrix(0.009,0,0,0.009,0,0)" xlink:href="#aU"/><use transform="matrix(0.009,0,0,0.009,10.062,0)" xlink:href="#aG"/><use transform="matrix(0.009,0,0,0.009,19.188,0)" xlink:href="#aS"/><use transform="matrix(0.009,0,0,0.009,26.999999999999996,0)" xlink:href="#aN"/><use transform="matrix(0.009,0,0,0.009,36.432,0)" xlink:href="#aH"/></g><g id="H"><use transform="matrix(0.009,0,0,0.009,0,0)" xlink:href="#aK"/><use transform="matrix(0.009,0,0,0.009,10.008,0)" xlink:href="#aF"/></g><g id="I"><use transform="matrix(0.009,0,0,0.009,0,0)" xlink:href="#aJ"/><use transform="matrix(0.009,0,0,0.009,6.7139999999999995,0)" xlink:href="#bb"/><use transform="matrix(0.009,0,0,0.009,16.721999999999998,0)" xlink:href="#aN"/></g><g id="J"><use transform="matrix(0.009,0,0,0.009,0,0)" xlink:href="#bc"/><use transform="matrix(0.009,0,0,0.009,6.066,0)" xlink:href="#aG"/><use transform="matrix(0.009,0,0,0.009,15.192,0)" xlink:href="#aW"/><use transform="matrix(0.009,0,0,0.009,23.598,0)" xlink:href="#aJ"/></g><g id="K"><use transform="matrix(0.009,0,0,0.009,0,0)" xlink:href="#aJ"/><use transform="matrix(0.009,0,0,0.009,6.7139999999999995,0)" xlink:href="#bb"/><use transform="matrix(0.009,0,0,0.009,16.721999999999998,0)" xlink:href="#aG"/><use transform="matrix(0.009,0,0,0.009,25.848,0)" xlink:href="#aJ"/></g><g id="L"><use transform="matrix(0.009,0,0,0.009,0,0)" xlink:href="#aI"/><use transform="matrix(0.009,0,0,0.009,4.608,0)" xlink:href="#aS"/></g><use transform="matrix(0.009,0,0,0.009,0,0)" xlink:href="#aG" id="M"/><g id="N"><use transform="matrix(0.009,0,0,0.009,0,0)" xlink:href="#aT"/><use transform="matrix(0.009,0,0,0.009,14.777999999999999,0)" xlink:href="#aN"/><use transform="matrix(0.009,0,0,0.009,24.209999999999997,0)" xlink:href="#aT"/><use transform="matrix(0.009,0,0,0.009,38.988,0)" xlink:href="#aU"/><use transform="matrix(0.009,0,0,0.009,49.05,0)" xlink:href="#aN"/><use transform="matrix(0.009,0,0,0.009,58.48199999999999,0)" xlink:href="#aQ"/></g><g id="O"><use transform="matrix(0.009,0,0,0.009,0,0)" xlink:href="#aK"/><use transform="matrix(0.009,0,0,0.009,10.008,0)" xlink:href="#bc"/></g><path fill="#512fc9" d="M307-1433c0 153 4 312-16 445-6 40-18 68-62 67-40 0-55-30-61-67-22-132-16-292-16-445h155zm333 0c0 153 4 312-16 445-6 40-18 68-62 67-40 0-55-30-61-67-22-132-16-292-16-445h155" id="bf"/><g id="P"><use transform="matrix(0.009,0,0,0.009,0,0)" xlink:href="#bf"/><use transform="matrix(0.009,0,0,0.009,6.569999999999999,0)" xlink:href="#aG"/><use transform="matrix(0.009,0,0,0.009,15.695999999999998,0)" xlink:href="#aH"/><use transform="matrix(0.009,0,0,0.009,25.757999999999996,0)" xlink:href="#aT"/><use transform="matrix(0.009,0,0,0.009,40.535999999999994,0)" xlink:href="#aI"/><use transform="matrix(0.009,0,0,0.009,45.14399999999999,0)" xlink:href="#aF"/><use transform="matrix(0.009,0,0,0.009,54.50399999999999,0)" xlink:href="#bf"/></g><g id="Q"><use transform="matrix(0.009,0,0,0.009,0,0)" xlink:href="#aI"/><use transform="matrix(0.009,0,0,0.009,4.608,0)" xlink:href="#aF"/></g><path fill="#512fc9" d="M212 15C136 15 88-34 88-110s48-126 124-126 125 50 125 126c0 77-49 125-125 125" id="bg"/><g id="R"><use transform="matrix(0.009,0,0,0.009,0,0)" xlink:href="#aK"/><use transform="matrix(0.009,0,0,0.009,10.008,0)" xlink:href="#aQ"/><use transform="matrix(0.009,0,0,0.009,17.262,0)" xlink:href="#ba"/><use transform="matrix(0.009,0,0,0.009,26.46,0)" xlink:href="#aG"/><use transform="matrix(0.009,0,0,0.009,35.586,0)" xlink:href="#aF"/><use transform="matrix(0.009,0,0,0.009,45.593999999999994,0)" xlink:href="#aI"/><use transform="matrix(0.009,0,0,0.009,50.20199999999999,0)" xlink:href="#aS"/><use transform="matrix(0.009,0,0,0.009,58.01399999999999,0)" xlink:href="#aG"/><use transform="matrix(0.009,0,0,0.009,67.13999999999999,0)" xlink:href="#aJ"/><use transform="matrix(0.009,0,0,0.009,73.85399999999998,0)" xlink:href="#aI"/><use transform="matrix(0.009,0,0,0.009,78.46199999999999,0)" xlink:href="#aK"/><use transform="matrix(0.009,0,0,0.009,88.46999999999997,0)" xlink:href="#aF"/><use transform="matrix(0.009,0,0,0.009,98.47799999999998,0)" xlink:href="#bg"/></g><path fill="#333" d="M1417 0h-208c-47 1-77-28-90-61l-108-295H412L304-61c-11 30-46 61-89 61H6l568-1446h275zM481-546h461c-77-218-163-424-231-651-66 230-154 432-230 651" id="bh"/><path fill="#333" d="M1187-985c0 329-222 471-561 476H424V0H155v-1446h471c337 4 561 134 561 461zm-269 0c0-176-112-253-292-253H424v519h202c184-1 292-85 292-266" id="bi"/><path fill="#333" d="M415-222h579V0H146v-1446h269v1224" id="bj"/><path fill="#333" d="M449 0H179v-1446h270V0" id="bk"/><path fill="#333" d="M1284-209C1170-69 1008 19 759 16c-347-4-553-182-649-442-66-178-66-423 6-596 108-261 330-435 688-440 220-3 375 79 488 188l-90 125c-16 32-68 39-102 12-71-55-162-101-298-96-304 11-465 201-465 510 0 241 101 401 267 477 125 58 330 39 424-24 42-17 97-111 150-54" id="bl"/><path fill="#333" d="M1165-1446v221H730V0H461v-1225H24v-221h1141" id="bm"/><path fill="#333" d="M377-1009c4 38 6 82 6 121V0H146v-1446c71 6 174-24 211 20 269 320 519 661 779 990-5-42-7-87-7-131v-879h237V0c-64-4-144 10-192-10-14-6-28-19-41-36" id="bn"/><g id="S"><use transform="matrix(0.008888888888888889,0,0,0.008888888888888889,0,0)" xlink:href="#bh"/><use transform="matrix(0.008888888888888889,0,0,0.008888888888888889,12.622222222222222,0)" xlink:href="#bi"/><use transform="matrix(0.008888888888888889,0,0,0.008888888888888889,23.733333333333334,0)" xlink:href="#bi"/><use transform="matrix(0.008888888888888889,0,0,0.008888888888888889,34.84444444444445,0)" xlink:href="#bj"/><use transform="matrix(0.008888888888888889,0,0,0.008888888888888889,44.03555555555556,0)" xlink:href="#bk"/><use transform="matrix(0.008888888888888889,0,0,0.008888888888888889,49.61777777777779,0)" xlink:href="#bl"/><use transform="matrix(0.008888888888888889,0,0,0.008888888888888889,61.537777777777784,0)" xlink:href="#bh"/><use transform="matrix(0.008888888888888889,0,0,0.008888888888888889,72.85333333333334,0)" xlink:href="#bm"/><use transform="matrix(0.008888888888888889,0,0,0.008888888888888889,83.43111111111112,0)" xlink:href="#bk"/><use transform="matrix(0.008888888888888889,0,0,0.008888888888888889,89.01333333333335,0)" xlink:href="#aB"/><use transform="matrix(0.008888888888888889,0,0,0.008888888888888889,103.22666666666669,0)" xlink:href="#bn"/></g><path fill="#333" d="M269-185h293c2-315-3-636 3-946L357-957c-27 30-93 19-114-9l-78-107 441-375h203v1263h260V0H269v-185" id="bo"/><use transform="matrix(0.008888888888888889,0,0,0.008888888888888889,0,0)" xlink:href="#bo" id="T"/><path fill="#333" d="M109-1043c42-259 201-419 493-419 211 0 351 94 417 243 41 90 43 220 9 317-53 155-161 261-266 368L436-201c149-49 364-22 553-29 51-1 87 32 87 82V0H84c-3-78 1-142 44-184 181-178 371-356 538-547 72-82 133-167 133-311 0-137-75-210-211-212-123-2-200 69-227 166-15 55-55 80-122 68" id="bp"/><use transform="matrix(0.008888888888888889,0,0,0.008888888888888889,0,0)" xlink:href="#bp" id="U"/><path fill="#512fc9" d="M449 0H179v-1446h270V0" id="bq"/><path fill="#512fc9" d="M1377-1015c71 172 71 412 0 584C1271-174 1052 0 698 0H146v-1446h552c353 6 574 175 679 431zM698-214c307-9 457-198 457-509s-150-500-457-509H417v1018h281" id="br"/><path fill="#512fc9" d="M1058-1446v214H417v401h505v207H417v409h641V0H146v-1446h912" id="bs"/><path fill="#512fc9" d="M377-1009c4 38 6 82 6 121V0H146v-1446c71 6 174-24 211 20 269 320 519 661 779 990-5-42-7-87-7-131v-879h237V0c-64-4-144 10-192-10-14-6-28-19-41-36" id="bt"/><path fill="#512fc9" d="M1165-1446v221H730V0H461v-1225H24v-221h1141" id="bu"/><path fill="#512fc9" d="M789-562V0H520v-562L-7-1446h237c50 0 72 27 90 60 102 188 210 370 305 564 12 25 22 51 31 76 20-56 40-105 69-157l263-483c15-28 44-60 89-60h238" id="bv"/><g id="V"><use transform="matrix(0.008888888888888889,0,0,0.008888888888888889,0,0)" xlink:href="#bq"/><use transform="matrix(0.008888888888888889,0,0,0.008888888888888889,5.582222222222223,0)" xlink:href="#br"/><use transform="matrix(0.008888888888888889,0,0,0.008888888888888889,18.871111111111112,0)" xlink:href="#bs"/><use transform="matrix(0.008888888888888889,0,0,0.008888888888888889,29.04888888888889,0)" xlink:href="#bt"/><use transform="matrix(0.008888888888888889,0,0,0.008888888888888889,42.48888888888889,0)" xlink:href="#bu"/><use transform="matrix(0.008888888888888889,0,0,0.008888888888888889,53.06666666666667,0)" xlink:href="#bq"/><use transform="matrix(0.008888888888888889,0,0,0.008888888888888889,58.648888888888884,0)" xlink:href="#bu"/><use transform="matrix(0.008888888888888889,0,0,0.008888888888888889,69.22666666666666,0)" xlink:href="#bv"/></g><path fill="#512fc9" d="M1187-985c0 329-222 471-561 476H424V0H155v-1446h471c337 4 561 134 561 461zm-269 0c0-176-112-253-292-253H424v519h202c184-1 292-85 292-266" id="bw"/><path fill="#512fc9" d="M1153-1030c0 232-137 352-319 413 34 19 63 47 88 83L1284 0h-242c-51 0-80-22-101-54L637-517c-24-34-42-48-98-48H424V0H155v-1446h441c324 4 557 105 557 416zm-263 20c0-163-114-229-294-228H424v480h168c180-3 298-77 298-252" id="bx"/><path fill="#512fc9" d="M1480-1018c71 176 71 414 0 590-106 261-323 444-679 444S225-168 120-428c-71-176-71-414 0-590 106-261 324-444 681-444 355 0 573 184 679 444zM801-214c307 0 456-198 456-509s-149-510-456-510c-308 0-459 198-459 510s152 509 459 509" id="by"/><path fill="#512fc9" d="M4-1446h217c48-1 77 26 90 61 125 326 256 646 373 977 12 34 20 70 29 108 15-77 34-144 57-203l339-882c12-30 45-61 89-61h217L831 0H588" id="bz"/><g id="W"><use transform="matrix(0.008888888888888889,0,0,0.008888888888888889,0,0)" xlink:href="#bw"/><use transform="matrix(0.008888888888888889,0,0,0.008888888888888889,11.11111111111111,0)" xlink:href="#bx"/><use transform="matrix(0.008888888888888889,0,0,0.008888888888888889,22.32888888888889,0)" xlink:href="#by"/><use transform="matrix(0.008888888888888889,0,0,0.008888888888888889,36.044444444444444,0)" xlink:href="#bz"/><use transform="matrix(0.008888888888888889,0,0,0.008888888888888889,48.666666666666664,0)" xlink:href="#bq"/><use transform="matrix(0.008888888888888889,0,0,0.008888888888888889,54.24888888888889,0)" xlink:href="#br"/><use transform="matrix(0.008888888888888889,0,0,0.008888888888888889,67.53777777777778,0)" xlink:href="#bs"/><use transform="matrix(0.008888888888888889,0,0,0.008888888888888889,77.71555555555555,0)" xlink:href="#bx"/></g><path fill="#333" d="M1124-1036c0 240-152 355-353 406 24 14 45 35 64 61L1253 0c-92-9-205 21-250-41L631-553c-24-32-41-45-97-45H387V0H194v-1433h405c307 3 525 101 525 397zm-189 14c0-188-133-258-336-258H387v541h203c205-3 345-85 345-283" id="bA"/><path fill="#333" d="M954-142C850-8 572 61 364-22 180-96 74-268 74-527c0-234 108-389 275-463 59-26 125-39 198-39 273 0 420 174 420 453 0 48-2 70-43 70H250c8 226 98 375 322 380 114 2 191-38 258-82 70-46 94 37 124 66zM807-617c-5-171-86-278-256-281-181-3-273 116-295 281h551" id="bB"/><path fill="#333" d="M510-1031c133 0 210 49 277 120v-562h178V0c-60-6-146 21-154-37l-16-123C716-67 616 14 455 14 173 14 72-209 72-503c0-237 94-406 254-487 54-27 115-41 184-41zM256-503c2 212 53 373 258 373 136 0 207-69 273-153v-490c-57-77-121-119-237-119-208 0-296 164-294 389" id="bC"/><path fill="#333" d="M584-856c-148 6-210 94-260 211V0H146v-1013c62 7 151-25 157 49l12 158c66-138 184-259 384-216 23 5 44 16 63 27l-23 133c-5 17-15 25-31 25-36 0-71-21-124-19" id="bD"/><path fill="#333" d="M895-142C799-8 539 62 344-21 173-94 74-262 74-507c0-317 160-522 477-522 151 0 254 54 333 132-21 26-39 58-63 81-42 20-68-19-100-34-42-20-91-42-160-40-219 6-304 160-304 383 0 220 82 376 295 383 106 4 169-38 223-84 22-19 53-21 70 1" id="bE"/><path fill="#333" d="M698-76c-54 52-145 92-245 92-162 1-249-96-249-260v-620c-58-9-160 26-160-39v-71l166-21 41-313c4-50 80-30 131-34v349h290v129H382v608c-2 78 40 125 111 126 60 2 88-33 128-48 9 0 18 6 25 17" id="bF"/><g id="Y"><use transform="matrix(0.00788888888888889,0,0,0.00788888888888889,0,0)" xlink:href="#bA"/><use transform="matrix(0.00788888888888889,0,0,0.00788888888888889,10.16088888888889,0)" xlink:href="#bB"/><use transform="matrix(0.00788888888888889,0,0,0.00788888888888889,18.428444444444445,0)" xlink:href="#bC"/><use transform="matrix(0.00788888888888889,0,0,0.00788888888888889,27.248222222222225,0)" xlink:href="#aw"/><use transform="matrix(0.00788888888888889,0,0,0.00788888888888889,31.287333333333336,0)" xlink:href="#bD"/><use transform="matrix(0.00788888888888889,0,0,0.00788888888888889,37.64577777777778,0)" xlink:href="#bB"/><use transform="matrix(0.00788888888888889,0,0,0.00788888888888889,45.91333333333334,0)" xlink:href="#bE"/><use transform="matrix(0.00788888888888889,0,0,0.00788888888888889,53.28155555555556,0)" xlink:href="#bF"/></g><path fill="#333" d="M867-737c186 37 317 126 317 329C1184-123 974 0 681 0H174v-1433h457c293 3 505 90 505 374 0 185-121 273-269 322zm126 324c0-168-128-240-316-240H368v499h310c190-2 315-75 315-259zm-50-623c0-184-115-243-312-244H368v489h256c186-3 319-66 319-245" id="bG"/><path fill="#333" d="M1038-507c0 321-164 521-482 521S72-187 72-507c0-248 107-410 284-485 60-25 126-37 200-37 317 0 482 201 482 522zm-782 1c0 225 80 381 300 381 213 0 298-159 298-381 0-223-84-383-298-383-221 0-300 158-300 383" id="bH"/><path fill="#333" d="M608 14c-142 0-221-61-286-144-9 50 6 130-55 130H152v-1473h179v606c78-87 176-162 331-162 283 0 384 222 384 516 0 237-93 406-254 487-54 27-116 40-184 40zm254-527c-2-212-53-374-258-374-136 0-207 69-273 153v490c56 77 120 120 237 120 208 0 296-164 294-389" id="bI"/><g id="Z"><use transform="matrix(0.00788888888888889,0,0,0.00788888888888889,0,0)" xlink:href="#bG"/><use transform="matrix(0.00788888888888889,0,0,0.00788888888888889,10.208222222222224,0)" xlink:href="#bH"/><use transform="matrix(0.00788888888888889,0,0,0.00788888888888889,18.98066666666667,0)" xlink:href="#bI"/></g><g id="aa"><use transform="matrix(0.00788888888888889,0,0,0.00788888888888889,0,0)" xlink:href="#bF"/><use transform="matrix(0.00788888888888889,0,0,0.00788888888888889,5.885111111111112,0)" xlink:href="#bH"/></g><path fill="#333" d="M344-1473V0H166v-1473h178" id="bJ"/><g id="ab"><use transform="matrix(0.00788888888888889,0,0,0.00788888888888889,0,0)" xlink:href="#av"/><use transform="matrix(0.00788888888888889,0,0,0.00788888888888889,6.847555555555556,0)" xlink:href="#aw"/><use transform="matrix(0.00788888888888889,0,0,0.00788888888888889,10.886666666666667,0)" xlink:href="#ay"/><use transform="matrix(0.00788888888888889,0,0,0.00788888888888889,19.659111111111113,0)" xlink:href="#ax"/><use transform="matrix(0.00788888888888889,0,0,0.00788888888888889,27.721555555555558,0)" xlink:href="#bJ"/><use transform="matrix(0.00788888888888889,0,0,0.00788888888888889,31.76066666666667,0)" xlink:href="#bB"/></g><g id="ac"><use transform="matrix(0.00788888888888889,0,0,0.00788888888888889,0,0)" xlink:href="#av"/><use transform="matrix(0.00788888888888889,0,0,0.00788888888888889,6.847555555555556,0)" xlink:href="#aw"/><use transform="matrix(0.00788888888888889,0,0,0.00788888888888889,10.886666666666667,0)" xlink:href="#ax"/><use transform="matrix(0.00788888888888889,0,0,0.00788888888888889,18.94911111111111,0)" xlink:href="#ay"/></g><g id="ad"><use transform="matrix(0.00788888888888889,0,0,0.00788888888888889,0,0)" xlink:href="#bH"/><use transform="matrix(0.00788888888888889,0,0,0.00788888888888889,8.772444444444446,0)" xlink:href="#ay"/></g><path fill="#333" d="M18-1013h146c28-1 47 18 55 37l257 652c18 45 27 93 37 143 12-50 22-98 40-143l260-652c17-60 123-30 192-37L592 0H431" id="bK"/><g id="ae"><use transform="matrix(0.00788888888888889,0,0,0.00788888888888889,0,0)" xlink:href="#av"/><use transform="matrix(0.00788888888888889,0,0,0.00788888888888889,6.847555555555556,0)" xlink:href="#bB"/><use transform="matrix(0.00788888888888889,0,0,0.00788888888888889,15.115111111111112,0)" xlink:href="#bD"/><use transform="matrix(0.00788888888888889,0,0,0.00788888888888889,21.473555555555556,0)" xlink:href="#bK"/><use transform="matrix(0.00788888888888889,0,0,0.00788888888888889,29.55177777777778,0)" xlink:href="#aw"/><use transform="matrix(0.00788888888888889,0,0,0.00788888888888889,33.59088888888889,0)" xlink:href="#bE"/><use transform="matrix(0.00788888888888889,0,0,0.00788888888888889,40.95911111111111,0)" xlink:href="#bB"/><use transform="matrix(0.00788888888888889,0,0,0.00788888888888889,49.226666666666674,0)" xlink:href="#az"/></g><path d="M1150-1433v163H687V0H493v-1270H28v-163h1122" id="bL"/><path d="M954-142C850-8 572 61 364-22 180-96 74-268 74-527c0-234 108-389 275-463 59-26 125-39 198-39 273 0 420 174 420 453 0 48-2 70-43 70H250c8 226 98 375 322 380 114 2 191-38 258-82 70-46 94 37 124 66zM807-617c-5-171-86-278-256-281-181-3-273 116-295 281h551" id="bM"/><path d="M344-1473V0H166v-1473h178" id="bN"/><g id="ag"><use transform="matrix(0.00788888888888889,0,0,0.00788888888888889,0,0)" xlink:href="#bL"/><use transform="matrix(0.00788888888888889,0,0,0.00788888888888889,7.652222222222223,0)" xlink:href="#bM"/><use transform="matrix(0.00788888888888889,0,0,0.00788888888888889,15.91977777777778,0)" xlink:href="#bN"/><use transform="matrix(0.00788888888888889,0,0,0.00788888888888889,19.958888888888893,0)" xlink:href="#bN"/></g><path d="M550-887c-107 0-172 65-226 132V0H146v-1013c60 6 147-22 154 37l13 104c69-80 148-156 287-157 148-1 223 92 258 211 51-126 153-211 323-211 232 0 338 149 338 384V0h-178v-645c1-148-62-242-203-242-142 0-218 94-218 242V0H742v-645c1-149-54-242-192-242" id="bO"/><g id="ah"><use transform="matrix(0.00788888888888889,0,0,0.00788888888888889,0,0)" xlink:href="#bO"/><use transform="matrix(0.00788888888888889,0,0,0.00788888888888889,12.953555555555557,0)" xlink:href="#bM"/></g><path d="M1038-507c0 321-164 521-482 521S72-187 72-507c0-248 107-410 284-485 60-25 126-37 200-37 317 0 482 201 482 522zm-782 1c0 225 80 381 300 381 213 0 298-159 298-381 0-223-84-383-298-383-221 0-300 158-300 383" id="bP"/><path d="M584-856c-148 6-210 94-260 211V0H146v-1013c62 7 151-25 157 49l12 158c66-138 184-259 384-216 23 5 44 16 63 27l-23 133c-5 17-15 25-31 25-36 0-71-21-124-19" id="bQ"/><g id="ai"><use transform="matrix(0.00788888888888889,0,0,0.00788888888888889,0,0)" xlink:href="#bO"/><use transform="matrix(0.00788888888888889,0,0,0.00788888888888889,12.953555555555557,0)" xlink:href="#bP"/><use transform="matrix(0.00788888888888889,0,0,0.00788888888888889,21.726000000000003,0)" xlink:href="#bQ"/><use transform="matrix(0.00788888888888889,0,0,0.00788888888888889,28.084444444444447,0)" xlink:href="#bM"/></g><path d="M537-1031c235 0 353 147 353 383V0c-58-5-129 17-142-42l-20-94C637-55 545 19 375 16 200 13 92-76 92-253c0-184 160-243 332-285 79-19 176-28 291-31 12-184-31-318-200-318-113 0-181 45-243 91-36 26-82 14-99-17l-32-57c101-96 215-161 396-161zM263-261c0 103 62 152 165 152 140 0 216-64 287-136v-211c-141 4-258 19-349 60-60 27-103 62-103 135" id="bR"/><path d="M608 14c-142 0-221-61-286-144-9 50 6 130-55 130H152v-1473h179v606c78-87 176-162 331-162 283 0 384 222 384 516 0 237-93 406-254 487-54 27-116 40-184 40zm254-527c-2-212-53-374-258-374-136 0-207 69-273 153v490c56 77 120 120 237 120 208 0 296-164 294-389" id="bS"/><path d="M461 16c-231 0-339-149-339-383v-646h178v646c0 148 67 243 213 241 125-2 207-66 274-140v-747h178V0c-60-6-146 22-154-37l-14-109C716-60 619 16 461 16" id="bT"/><path d="M698-76c-54 52-145 92-245 92-162 1-249-96-249-260v-620c-58-9-160 26-160-39v-71l166-21 41-313c4-50 80-30 131-34v349h290v129H382v608c-2 78 40 125 111 126 60 2 88-33 128-48 9 0 18 6 25 17" id="bU"/><g id="aj"><use transform="matrix(0.00788888888888889,0,0,0.00788888888888889,0,0)" xlink:href="#bR"/><use transform="matrix(0.00788888888888889,0,0,0.00788888888888889,7.999333333333334,0)" xlink:href="#bS"/><use transform="matrix(0.00788888888888889,0,0,0.00788888888888889,16.819111111111113,0)" xlink:href="#bP"/><use transform="matrix(0.00788888888888889,0,0,0.00788888888888889,25.59155555555556,0)" xlink:href="#bT"/><use transform="matrix(0.00788888888888889,0,0,0.00788888888888889,34.364000000000004,0)" xlink:href="#bU"/></g><path d="M867-737c186 37 317 126 317 329C1184-123 974 0 681 0H174v-1433h457c293 3 505 90 505 374 0 185-121 273-269 322zm126 324c0-168-128-240-316-240H368v499h310c190-2 315-75 315-259zm-50-623c0-184-115-243-312-244H368v489h256c186-3 319-66 319-245" id="bV"/><g id="ak"><use transform="matrix(0.00788888888888889,0,0,0.00788888888888889,0,0)" xlink:href="#bV"/><use transform="matrix(0.00788888888888889,0,0,0.00788888888888889,10.208222222222224,0)" xlink:href="#bP"/><use transform="matrix(0.00788888888888889,0,0,0.00788888888888889,18.98066666666667,0)" xlink:href="#bS"/><use transform="matrix(0.00788888888888889,0,0,0.00788888888888889,27.80044444444445,0)" xlink:href="#az"/></g><path fill="#333" d="M160-131c35 5 61 23 61 61C221 17 115-2 30 0v-248c76 3 177-17 177 60 0 33-19 50-47 57zm-97-11c50-1 110 9 110-42 0-47-63-36-110-37v79zm0 115c55-2 124 14 124-45 0-56-70-42-124-44v89" id="bW"/><path fill="#333" d="M100-194c62-1 85 37 85 99 1 63-27 99-86 99S16-35 15-95c0-66 28-99 85-99zM99-20c44 1 53-31 53-75 0-43-8-75-51-75s-53 32-53 75 10 74 51 75" id="bX"/><path fill="#333" d="M115-194c53 0 69 39 70 98 0 66-23 100-70 100C84 3 66-7 56-30L54 0H23l1-261h32v101c10-23 28-34 59-34zm-8 174c40 0 45-34 45-75 0-40-5-75-45-74-42 0-51 32-51 76 0 43 10 73 51 73" id="bY"/><g id="am"><use transform="matrix(0.043827160493827164,0,0,0.043827160493827164,0,0)" xlink:href="#bW"/><use transform="matrix(0.043827160493827164,0,0,0.043827160493827164,10.518518518518519,0)" xlink:href="#bX"/><use transform="matrix(0.043827160493827164,0,0,0.043827160493827164,19.28395061728395,0)" xlink:href="#bY"/></g><path fill="#333" d="M24-231v-30h32v30H24zM24 0v-190h32V0H24" id="bZ"/><path fill="#333" d="M135-143c-3-34-86-38-87 0 15 53 115 12 119 90S17 21 10-45l28-5c4 36 97 45 98 0-10-56-113-15-118-90-4-57 82-63 122-42 12 7 21 19 24 35" id="ca"/><g id="an"><use transform="matrix(0.043827160493827164,0,0,0.043827160493827164,0,0)" xlink:href="#bZ"/><use transform="matrix(0.043827160493827164,0,0,0.043827160493827164,3.462345679012346,0)" xlink:href="#ca"/></g><path fill="#333" d="M141-36C126-15 110 5 73 4 37 3 15-17 15-53c-1-64 63-63 125-63 3-35-9-54-41-54-24 1-41 7-42 31l-33-3c5-37 33-52 76-52 45 0 72 20 72 64v82c-1 20 7 32 28 27v20c-31 9-61-2-59-35zM48-53c0 20 12 33 32 33 41-3 63-29 60-74-43 2-92-5-92 41" id="cb"/><use transform="matrix(0.043827160493827164,0,0,0.043827160493827164,0,0)" xlink:href="#cb" id="ao"/><path fill="#333" d="M210-169c-67 3-38 105-44 169h-31v-121c0-29-5-50-35-48C34-165 62-65 56 0H25l-1-190h30c1 10-1 24 2 32 10-44 99-50 107 0 11-21 27-35 58-36 85-2 47 119 55 194h-31v-121c0-29-5-49-35-48" id="cc"/><path fill="#333" d="M100-194c63 0 86 42 84 106H49c0 40 14 67 53 68 26 1 43-12 49-29l28 8c-11 28-37 45-77 45C44 4 14-33 15-96c1-61 26-98 85-98zm52 81c6-60-76-77-97-28-3 7-6 17-6 28h103" id="cd"/><path fill="#333" d="M114-163C36-179 61-72 57 0H25l-1-190h30c1 12-1 29 2 39 6-27 23-49 58-41v29" id="ce"/><g id="ap"><use transform="matrix(0.043827160493827164,0,0,0.043827160493827164,0,0)" xlink:href="#cc"/><use transform="matrix(0.043827160493827164,0,0,0.043827160493827164,13.104320987654322,0)" xlink:href="#cd"/><use transform="matrix(0.043827160493827164,0,0,0.043827160493827164,21.869753086419756,0)" xlink:href="#cc"/><use transform="matrix(0.043827160493827164,0,0,0.043827160493827164,34.97407407407408,0)" xlink:href="#bY"/><use transform="matrix(0.043827160493827164,0,0,0.043827160493827164,43.73950617283951,0)" xlink:href="#cd"/><use transform="matrix(0.043827160493827164,0,0,0.043827160493827164,52.50493827160494,0)" xlink:href="#ce"/></g><path fill="#333" d="M101-234c-31-9-42 10-38 44h38v23H63V0H32v-167H5v-23h27c-7-52 17-82 69-68v24" id="cf"/><g id="aq"><use transform="matrix(0.043827160493827164,0,0,0.043827160493827164,0,0)" xlink:href="#bX"/><use transform="matrix(0.043827160493827164,0,0,0.043827160493827164,8.765432098765432,0)" xlink:href="#cf"/></g><path fill="#333" d="M177-190C167-65 218 103 67 71c-23-6-38-20-44-43l32-5c15 47 100 32 89-28v-30C133-14 115 1 83 1 29 1 15-40 15-95c0-56 16-97 71-98 29-1 48 16 59 35 1-10 0-23 2-32h30zM94-22c36 0 50-32 50-73 0-42-14-75-50-75-39 0-46 34-46 75s6 73 46 73" id="cg"/><path fill="#333" d="M84 4C-5 8 30-112 23-190h32v120c0 31 7 50 39 49 72-2 45-101 50-169h31l1 190h-30c-1-10 1-25-2-33-11 22-28 36-60 37" id="ch"/><path fill="#333" d="M115-194c55 1 70 41 70 98S169 2 115 4C84 4 66-9 55-30l1 105H24l-1-265h31l2 30c10-21 28-34 59-34zm-8 174c40 0 45-34 45-75s-6-73-45-74c-42 0-51 32-51 76 0 43 10 73 51 73" id="ci"/><path fill="#333" d="M33-154v-36h34v36H33zM33 0v-36h34V0H33" id="cj"/><g id="ar"><use transform="matrix(0.043827160493827164,0,0,0.043827160493827164,0,0)" xlink:href="#cg"/><use transform="matrix(0.043827160493827164,0,0,0.043827160493827164,8.765432098765432,0)" xlink:href="#ce"/><use transform="matrix(0.043827160493827164,0,0,0.043827160493827164,13.980864197530863,0)" xlink:href="#bX"/><use transform="matrix(0.043827160493827164,0,0,0.043827160493827164,22.746296296296293,0)" xlink:href="#ch"/><use transform="matrix(0.043827160493827164,0,0,0.043827160493827164,31.511728395061727,0)" xlink:href="#ci"/><use transform="matrix(0.043827160493827164,0,0,0.043827160493827164,40.277160493827154,0)" xlink:href="#ca"/><use transform="matrix(0.043827160493827164,0,0,0.043827160493827164,48.16604938271604,0)" xlink:href="#cj"/></g><path fill="#333" d="M109-170H84l-4-78h32zm-65 0H19l-4-78h33" id="ck"/><path fill="#333" d="M85-194c31 0 48 13 60 33l-1-100h32l1 261h-30c-2-10 0-23-3-31C134-8 116 4 85 4 32 4 16-35 15-94c0-66 23-100 70-100zm9 24c-40 0-46 34-46 75 0 40 6 74 45 74 42 0 51-32 51-76 0-42-9-74-50-73" id="cl"/><path fill="#333" d="M117-194c89-4 53 116 60 194h-32v-121c0-31-8-49-39-48C34-167 62-67 57 0H25l-1-190h30c1 10-1 24 2 32 11-22 29-35 61-36" id="cm"/><path fill="#333" d="M68-38c1 34 0 65-14 84H32c9-13 17-26 17-46H33v-38h35" id="cn"/><g id="as"><use transform="matrix(0.043827160493827164,0,0,0.043827160493827164,0,0)" xlink:href="#ck"/><use transform="matrix(0.043827160493827164,0,0,0.043827160493827164,5.5660493827160495,0)" xlink:href="#cb"/><use transform="matrix(0.043827160493827164,0,0,0.043827160493827164,14.331481481481482,0)" xlink:href="#cl"/><use transform="matrix(0.043827160493827164,0,0,0.043827160493827164,23.09691358024691,0)" xlink:href="#cc"/><use transform="matrix(0.043827160493827164,0,0,0.043827160493827164,36.20123456790124,0)" xlink:href="#bZ"/><use transform="matrix(0.043827160493827164,0,0,0.043827160493827164,39.66358024691358,0)" xlink:href="#cm"/><use transform="matrix(0.043827160493827164,0,0,0.043827160493827164,48.42901234567901,0)" xlink:href="#ca"/><use transform="matrix(0.043827160493827164,0,0,0.043827160493827164,56.3179012345679,0)" xlink:href="#ck"/><use transform="matrix(0.043827160493827164,0,0,0.043827160493827164,61.88395061728396,0)" xlink:href="#cn"/></g><g id="at"><use transform="matrix(0.043827160493827164,0,0,0.043827160493827164,0,0)" xlink:href="#ck"/><use transform="matrix(0.043827160493827164,0,0,0.043827160493827164,5.5660493827160495,0)" xlink:href="#ch"/><use transform="matrix(0.043827160493827164,0,0,0.043827160493827164,14.331481481481482,0)" xlink:href="#ca"/><use transform="matrix(0.043827160493827164,0,0,0.043827160493827164,22.22037037037037,0)" xlink:href="#cd"/><use transform="matrix(0.043827160493827164,0,0,0.043827160493827164,30.985802469135805,0)" xlink:href="#ce"/><use transform="matrix(0.043827160493827164,0,0,0.043827160493827164,36.20123456790124,0)" xlink:href="#ca"/><use transform="matrix(0.043827160493827164,0,0,0.043827160493827164,44.090123456790124,0)" xlink:href="#ck"/><use transform="matrix(0.043827160493827164,0,0,0.043827160493827164,49.656172839506176,0)" xlink:href="#cn"/></g><path fill="#333" d="M96-169c-40 0-48 33-48 73s9 75 48 75c24 0 41-14 43-38l32 2c-6 37-31 61-74 61-59 0-76-41-82-99-10-93 101-131 147-64 4 7 5 14 7 22l-32 3c-4-21-16-35-41-35" id="co"/><path fill="#333" d="M59-47c-2 24 18 29 38 22v24C64 9 27 4 27-40v-127H5v-23h24l9-43h21v43h35v23H59v120" id="cp"/><path fill="#333" d="M179-190L93 31C79 59 56 82 12 73V49c39 6 53-20 64-50L1-190h34L92-34l54-156h33" id="cq"/><path fill="#333" d="M16-82v-28h88v28H16" id="cr"/><path fill-opacity="0" d="M-5 72V49h209v23H-5" id="cs"/><g id="au"><use transform="matrix(0.043827160493827164,0,0,0.043827160493827164,0,0)" xlink:href="#ck"/><use transform="matrix(0.043827160493827164,0,0,0.043827160493827164,5.5660493827160495,0)" xlink:href="#ca"/><use transform="matrix(0.043827160493827164,0,0,0.043827160493827164,13.454938271604936,0)" xlink:href="#cd"/><use transform="matrix(0.043827160493827164,0,0,0.043827160493827164,22.220370370370368,0)" xlink:href="#co"/><use transform="matrix(0.043827160493827164,0,0,0.043827160493827164,30.109259259259257,0)" xlink:href="#ch"/><use transform="matrix(0.043827160493827164,0,0,0.043827160493827164,38.87469135802469,0)" xlink:href="#ce"/><use transform="matrix(0.043827160493827164,0,0,0.043827160493827164,44.090123456790124,0)" xlink:href="#bZ"/><use transform="matrix(0.043827160493827164,0,0,0.043827160493827164,47.552469135802475,0)" xlink:href="#cp"/><use transform="matrix(0.043827160493827164,0,0,0.043827160493827164,51.935185185185176,0)" xlink:href="#cq"/><use transform="matrix(0.043827160493827164,0,0,0.043827160493827164,59.824074074074076,0)" xlink:href="#cr"/><use transform="matrix(0.043827160493827164,0,0,0.043827160493827164,65.03950617283951,0)" xlink:href="#cb"/><use transform="matrix(0.043827160493827164,0,0,0.043827160493827164,73.80493827160494,0)" xlink:href="#ch"/><use transform="matrix(0.043827160493827164,0,0,0.043827160493827164,82.57037037037037,0)" xlink:href="#cl"/><use transform="matrix(0.043827160493827164,0,0,0.043827160493827164,91.33580246913581,0)" xlink:href="#bZ"/><use transform="matrix(0.043827160493827164,0,0,0.043827160493827164,94.79814814814813,0)" xlink:href="#cp"/><use transform="matrix(0.043827160493827164,0,0,0.043827160493827164,99.18086419753087,0)" xlink:href="#bX"/><use transform="matrix(0.043827160493827164,0,0,0.043827160493827164,107.94629629629631,0)" xlink:href="#ce"/><use transform="matrix(0.043827160493827164,0,0,0.043827160493827164,113.16172839506174,0)" xlink:href="#ca"/><use transform="matrix(0.043827160493827164,0,0,0.043827160493827164,121.0506172839506,0)" xlink:href="#ck"/><use transform="matrix(0.043827160493827164,0,0,0.043827160493827164,126.61666666666666,0)" xlink:href="#cs"/></g></defs></g></svg>