<svg xmlns="http://www.w3.org/2000/svg" xmlns:xlink="http://www.w3.org/1999/xlink" xmlns:lucid="lucid" width="728.14" height="443.64"><g transform="translate(-431.86184427528485 -180)" lucid:page-tab-id="0_0"><path d="M990 317.95a8 8 0 0 1 8-8h24a8 8 0 0 1 8 8v133.33a8 8 0 0 1-8 8h-24a8 8 0 0 1-8-8zM580 278a8 8 0 0 1 8-8h304a8 8 0 0 1 8 8v23.68a8 8 0 0 1-8 8H588a8 8 0 0 1-8-8z" stroke="#651fff" stroke-width="2" fill="#f2f3f5"/><path d="M880 451.96a4 4 0 0 1 4-4h252a4 4 0 0 1 4 4v52a4 4 0 0 1-4 4H884a4 4 0 0 1-4-4z" stroke="#000" stroke-opacity="0" stroke-width="2" fill="url(#a)"/><use xlink:href="#b" transform="matrix(1,0,0,1,885.0000000000002,452.96290690776226) translate(75.72174490152032 30.23400632364074)"/><use xlink:href="#c" transform="matrix(1,0,0,1,885.0000000000002,452.96290690776226) translate(135.02087177936738 30.23400632364074)"/><path d="M949.76 482.47c.2.16.3.45.18.7-.6 1.93-1.68 3.75-3 5.3-.18.2-.45.28-.7.18l-3.8-1.34c-.96.77-2 1.38-3.15 1.86l-.76 4c-.06.23-.27.48-.54.5-1 .2-1.98.3-3 .3s-2-.1-3-.3c-.27-.02-.48-.27-.54-.5l-.75-4c-1.13-.48-2.2-1.1-3.14-1.85l-3.8 1.35c-.25.1-.52.03-.7-.2-1.32-1.53-2.4-3.35-3-5.27-.12-.26-.03-.55.18-.7l3.03-2.66c-.12-.58-.15-1.22-.15-1.86 0-.6.03-1.25.15-1.85l-3.03-2.65c-.2-.16-.3-.45-.18-.7.6-1.92 1.68-3.75 3-5.25.18-.23.45-.32.7-.2l3.8 1.35c.93-.8 2-1.4 3.15-1.86l.76-4c.06-.26.27-.52.54-.52 1.98-.4 4.02-.4 6 0 .27 0 .48.26.54.5l.75 4c1.13.46 2.18 1.07 3.14 1.87l3.8-1.34c.25-.12.52-.03.7.2 1.32 1.5 2.4 3.33 3 5.25.12.25.03.54-.18.7l-3.03 2.66c.12.6.15 1.25.15 1.86 0 .64-.03 1.28-.15 1.86l3.03 2.65zm-14.73 5.8c5.64 0 10.23-4.6 10.23-10.3 0-5.7-4.6-10.3-10.23-10.3-5.67 0-10.23 4.6-10.23 10.3 0 5.7 4.56 10.3 10.23 10.3zm0-1.28c-4.95 0-8.94-4.05-8.94-9.04 0-5 3.98-9.02 8.93-9.02 4.92 0 8.94 4.03 8.94 9.02 0 5-4.02 9.03-8.94 9.03zm-5-13.26v2.53h3.74v6.33h2.9v-6.33h3.76v-2.53h-10.4z" stroke="#000" stroke-opacity="0" fill="#fff"/><path d="M460 200h140v70H460z" stroke="#000" stroke-opacity="0" stroke-width="2" fill="#fff" fill-opacity="0"/><use xlink:href="#d" transform="matrix(1,0,0,1,465.00000000000034,205) translate(40.84444444444444 17.546666666666667)"/><path d="M460 248.8a4 4 0 0 1 4-4h132a4 4 0 0 1 4 4v83.06a4 4 0 0 1-4 4H464a4 4 0 0 1-4-4z" stroke="#999" stroke-opacity=".4" stroke-width="2" fill="#fff" filter="url(#e)"/><path d="M544.97 287.98h-2c-.55 0-1-.44-1-1s.45-1 1-1h2c.56 0 1 .44 1 1s-.44 1-1 1zM544.97 295.96h-2c-.55 0-1-.43-1-1 0-.55.45-1 1-1h2c.56 0 1 .45 1 1 0 .57-.44 1-1 1zM544.97 303.95h-2c-.55 0-1-.44-1-1 0-.55.45-1 1-1h2c.56 0 1 .45 1 1 0 .56-.44 1-1 1z" stroke="#000" stroke-opacity="0" fill="#651fff"/><path d="M549.97 284.98c0-1.28-.52-3.12-1.16-4.23l-4.95-8.5c-.76-1.3-2.4-2.25-3.87-2.25H520c-1.47 0-3.1.96-3.87 2.24l-4.95 8.5c-.64 1.12-1.16 2.96-1.16 4.24v4c0 .75.28 1.47.76 2-.48.5-.76 1.23-.76 2v3.98c0 .76.28 1.48.76 2-.48.52-.76 1.24-.76 2v6c0 1.63 1.36 3 3 3h33.95c1.64 0 3-1.37 3-3v-6c0-.76-.28-1.48-.76-2 .5-.52.77-1.24.77-2v-4c0-.75-.28-1.47-.76-2 .5-.5.77-1.23.77-2V285zm-2 8v3.98c0 .56-.44 1-1 1h-33.95c-.56 0-1-.44-1-1v-4c0-.55.44-1 1-1h33.95c.56 0 1 .45 1 1zm-34.95-3c-.56 0-1-.45-1-1v-4c0-.56.44-1 1-1h33.95c.56 0 1 .44 1 1v4c0 .55-.44 1-1 1h-33.95zm4.83-16.74c.4-.64 1.4-1.24 2.16-1.24H540c.76 0 1.76.6 2.16 1.24l4.95 8.5.1.24H512.8l.12-.24 4.95-8.5zm30.12 33.7c0 .57-.44 1-1 1h-33.95c-.56 0-1-.43-1-1v-5.98c0-.56.44-1 1-1h33.95c.56 0 1 .44 1 1v6z" stroke="#000" stroke-opacity="0" fill="#651fff"/><path d="M516 294.97c0 .56-.43 1-1 1-.54 0-.98-.44-.98-1s.44-1 1-1c.55 0 1 .44 1 1zM520 294.97c0 .56-.43 1-1 1-.55 0-1-.44-1-1s.45-1 1-1c.57 0 1 .44 1 1zM524 294.97c0 .56-.44 1-1 1s-1-.44-1-1 .44-1 1-1 1 .44 1 1zM528 294.97c0 .56-.44 1-1 1s-1-.44-1-1 .44-1 1-1 1 .44 1 1zM539.98 286.98c0 .56-.44 1-1 1s-1-.44-1-1 .44-1 1-1 1 .44 1 1zM539.98 294.97c0 .56-.44 1-1 1s-1-.44-1-1 .44-1 1-1 1 .44 1 1zM539.98 302.95c0 .56-.44 1-1 1s-1-.44-1-1c0-.55.44-1 1-1s1 .45 1 1z" stroke="#000" stroke-opacity="0" fill="#651fff"/><path d="M500 543.64h240v60H500z" stroke="#000" stroke-opacity="0" stroke-width="2" fill="#fff" fill-opacity="0"/><use xlink:href="#f" transform="matrix(1,0,0,1,505.0000000000003,548.637626499665) translate(72.2995 33.391)"/><path d="M460 387.64h140v70H460z" stroke="#000" stroke-opacity="0" stroke-width="2" fill="#fff" fill-opacity="0"/><use xlink:href="#g" transform="matrix(1,0,0,1,465.00000000000057,392.6376264995485) translate(40.977777777777774 17.546666666666667)"/><path d="M460 436.42a4 4 0 0 1 4-4h132a4 4 0 0 1 4 4v83.08a4 4 0 0 1-4 4H464a4 4 0 0 1-4-4z" stroke="#999" stroke-opacity=".4" stroke-width="2" fill="#fff" filter="url(#e)"/><path d="M538.1 482.04c3.96 0 7.34.52 10.1 1.6 2.28.9 4.1 2.13 5.45 3.7C556 490.1 556 492.88 556 493c0 2-1.72 3.65-3.85 3.65h-28.08c-2.08 0-3.8-1.64-3.8-3.66v-.1c0-.44.16-3 2.34-5.56 1.36-1.57 3.18-2.8 5.42-3.7 2.75-1.08 6.13-1.6 10.1-1.6zm-20.6 1.6c.53 0 1 .04 1.47.04.73.04 1.3.67 1.25 1.38 0 .7-.68 1.27-1.4 1.24-.42-.04-.84-.04-1.3-.04-10.5 0-10.82 6.17-10.82 6.5 0 .7.62 1.27 1.35 1.27h8.1c.8 0 1.36.6 1.36 1.3 0 .72-.56 1.32-1.34 1.32h-8.1c-2.25 0-4.07-1.76-4.07-3.9v-.06c0-.42.15-2.55 1.8-4.65 1-1.3 2.4-2.3 4.12-3.06 2.08-.9 4.63-1.36 7.6-1.36zm20.6.83c-6.3 0-10.9 1.5-13.4 4.3-1.83 2.05-1.88 4.14-1.88 4.22 0 .66.57 1.22 1.25 1.22h28.08c.72 0 1.3-.56 1.3-1.23 0-.1-.1-2.18-1.88-4.24-2.5-2.8-7.17-4.3-13.46-4.3zM517 467.4c4.47 0 8.1 3.27 8.1 7.3 0 4.05-3.63 7.34-8.1 7.34-4.48 0-8.12-3.3-8.12-7.33s3.64-7.3 8.1-7.3zm0 2.45c-2.97 0-5.4 2.17-5.4 4.86 0 2.7 2.43 4.87 5.4 4.87 2.96 0 5.4-2.17 5.4-4.86 0-2.68-2.44-4.85-5.4-4.85zm20.33-10.57c5.82 0 10.55 4.37 10.55 9.75s-4.73 9.76-10.55 9.76c-5.83 0-10.56-4.4-10.56-9.77 0-5.38 4.73-9.75 10.56-9.75zm0 2.42c-4.37 0-7.96 3.3-7.96 7.33 0 4.04 3.6 7.33 7.96 7.33 4.36 0 7.9-3.3 7.9-7.33 0-4.04-3.54-7.33-7.9-7.33z" stroke="#000" stroke-opacity="0" fill="#651fff"/><path d="M880 264.33a4 4 0 0 1 4-4h252a4 4 0 0 1 4 4v52a4 4 0 0 1-4 4H884a4 4 0 0 1-4-4z" stroke="#000" stroke-opacity="0" stroke-width="2" fill="url(#h)"/><use xlink:href="#b" transform="matrix(1,0,0,1,885.0000000000002,265.32528040821376) translate(75.72174490152032 30.23400632364074)"/><use xlink:href="#c" transform="matrix(1,0,0,1,885.0000000000002,265.32528040821376) translate(135.02087177936738 30.23400632364074)"/><path d="M949.76 294.84c.2.16.3.45.18.7-.6 1.92-1.68 3.75-3 5.28-.18.23-.45.3-.7.2l-3.8-1.35c-.96.77-2 1.38-3.15 1.86l-.76 4c-.06.22-.27.48-.54.5-1 .2-1.98.3-3 .3s-2-.1-3-.3c-.27-.02-.48-.28-.54-.5l-.75-4c-1.13-.48-2.2-1.1-3.14-1.86l-3.8 1.34c-.25.1-.52.05-.7-.18-1.32-1.53-2.4-3.36-3-5.28-.12-.25-.03-.54.18-.7l3.03-2.66c-.12-.57-.15-1.2-.15-1.85 0-.6.03-1.25.15-1.86l-3.03-2.66c-.2-.15-.3-.43-.18-.7.6-1.9 1.68-3.73 3-5.24.18-.22.45-.32.7-.2l3.8 1.35c.93-.8 2-1.4 3.15-1.84l.76-4c.06-.26.27-.5.54-.5 1.98-.43 4.02-.43 6 0 .27 0 .48.24.54.5l.75 4c1.13.45 2.18 1.05 3.14 1.85l3.8-1.33c.25-.13.52-.03.7.2 1.32 1.5 2.4 3.32 3 5.24.12.27.03.55-.18.7l-3.03 2.67c.12.6.15 1.25.15 1.86 0 .64-.03 1.28-.15 1.85l3.03 2.66zm-14.73 5.8c5.64 0 10.23-4.62 10.23-10.3 0-5.7-4.6-10.32-10.23-10.32-5.67 0-10.23 4.6-10.23 10.3 0 5.7 4.56 10.3 10.23 10.3zm0-1.3c-4.95 0-8.94-4.02-8.94-9 0-5 3.98-9.04 8.93-9.04 4.92 0 8.94 4.03 8.94 9.03 0 5-4.02 9.02-8.94 9.02zm-5-13.24v2.53h3.74v6.34h2.9v-6.34h3.76v-2.53h-10.4z" stroke="#000" stroke-opacity="0" fill="#fff"/><path d="M601.96 480h9.62m9.6 0h19.24m9.6 0h19.24m9.6 0h19.24m9.6 0h19.24m9.6 0h19.24m9.6 0h19.24m9.6 0h19.24m9.6 0h19.24m9.6 0h9.62" stroke="#00c2a8" stroke-width="2" fill="none"/><path d="M602 481h-1.04v-2H602z" stroke="#00c2a8" stroke-width=".05" fill="#00c2a8"/><path d="M876.8 480l-14.28 4.64v-9.28z" stroke="#00c2a8" stroke-width="2" fill="#00c2a8"/><path d="M1010 447v-9.03m0-9v-18.04m0-9.02V383.9m0-9.02v-18.03m0-9v-9.03" stroke="#00c2a8" stroke-width="2" fill="none"/><path d="M1011 448h-2v-1.04h2z" stroke="#00c2a8" stroke-width=".05" fill="#00c2a8"/><path d="M1010 323.54l4.64 14.26h-9.28z" stroke="#00c2a8" stroke-width="2" fill="#00c2a8"/><path d="M879.02 290.33h-9.6m-9.62 0h-19.23m-9.6 0h-19.24m-9.6 0h-19.24m-9.62 0h-19.23m-9.6 0H725.2m-9.6 0h-19.23m-9.6 0h-19.24m-9.6 0h-19.24m-9.62 0h-9.62" stroke="#00c2a8" stroke-width="2" fill="none"/><path d="M880.03 291.33H879v-2h1.02z" stroke="#00c2a8" stroke-width=".05" fill="#00c2a8"/><path d="M604.2 290.33l14.26-4.64v9.26z" stroke="#00c2a8" stroke-width="2" fill="#00c2a8"/><path d="M620 226a6 6 0 0 1 6-6h228a6 6 0 0 1 6 6v48a6 6 0 0 1-6 6H626a6 6 0 0 1-6-6z" stroke="#000" stroke-opacity="0" stroke-width="10" fill="#fff" fill-opacity="0"/><use xlink:href="#i" transform="matrix(1,0,0,1,624.9932688208836,225) translate(52.703703703703724 29.84722222222222)"/><use xlink:href="#j" transform="matrix(1,0,0,1,624.9932688208836,225) translate(123.71604938271605 29.84722222222222)"/><path d="M840 366a6 6 0 0 1 6-6h228a6 6 0 0 1 6 6v48a6 6 0 0 1-6 6H846a6 6 0 0 1-6-6z" stroke="#000" stroke-opacity="0" stroke-width="10" fill="#fff" fill-opacity="0"/><g><use xlink:href="#k" transform="matrix(1,0,0,1,845,365) translate(89.37037037037038 29.84722222222222)"/></g><defs><linearGradient gradientUnits="userSpaceOnUse" id="a" x1="880" y1="447.96" x2="880" y2="507.96"><stop offset="0%" stop-color="#354aaa"/><stop offset="100%" stop-color="#651fff"/><stop offset="100%" stop-color="#651fff"/></linearGradient><path fill="#fff" d="M1165-1446v221H730V0H461v-1225H24v-221h1141" id="l"/><path fill="#fff" d="M1058-1446v214H417v401h505v207H417v409h641V0H146v-1446h912" id="m"/><path fill="#fff" d="M415-222h579V0H146v-1446h269v1224" id="n"/><path fill="#fff" d="M1187-985c0 329-222 471-561 476H424V0H155v-1446h471c337 4 561 134 561 461zm-269 0c0-176-112-253-292-253H424v519h202c184-1 292-85 292-266" id="o"/><path fill="#fff" d="M1480-1018c71 176 71 414 0 590-106 261-323 444-679 444S225-168 120-428c-71-176-71-414 0-590 106-261 324-444 681-444 355 0 573 184 679 444zM801-214c307 0 456-198 456-509s-149-510-456-510c-308 0-459 198-459 510s152 509 459 509" id="p"/><path fill="#fff" d="M1153-1030c0 232-137 352-319 413 34 19 63 47 88 83L1284 0h-242c-51 0-80-22-101-54L637-517c-24-34-42-48-98-48H424V0H155v-1446h441c324 4 557 105 557 416zm-263 20c0-163-114-229-294-228H424v480h168c180-3 298-77 298-252" id="q"/><g id="b"><use transform="matrix(0.005817632382796727,0,0,0.005817632382796727,0,0)" xlink:href="#l"/><use transform="matrix(0.005817632382796727,0,0,0.005817632382796727,6.922982535528106,0)" xlink:href="#m"/><use transform="matrix(0.005817632382796727,0,0,0.005817632382796727,13.584171613830359,0)" xlink:href="#n"/><use transform="matrix(0.005817632382796727,0,0,0.005817632382796727,19.599603497642175,0)" xlink:href="#m"/><use transform="matrix(0.005817632382796727,0,0,0.005817632382796727,26.260792575944425,0)" xlink:href="#o"/><use transform="matrix(0.005817632382796727,0,0,0.005817632382796727,33.53283305444034,0)" xlink:href="#p"/><use transform="matrix(0.005817632382796727,0,0,0.005817632382796727,42.835227234532304,0)" xlink:href="#q"/><use transform="matrix(0.005817632382796727,0,0,0.005817632382796727,50.13053824255941,0)" xlink:href="#l"/></g><path fill="#fff" d="M493-744L32-1446h268c38 0 48 9 63 32l329 531c7-19 15-35 25-51l301-475c15-25 34-37 57-37h258L867-755 1346 0h-269c-37 1-57-23-71-46L671-600c-5 15-12 29-19 42L331-46c-14 20-33 47-67 46H12" id="r"/><path fill="#fff" d="M789-562V0H520v-562L-7-1446h237c50 0 72 27 90 60 102 188 210 370 305 564 12 25 22 51 31 76 20-56 40-105 69-157l263-483c15-28 44-60 89-60h238" id="s"/><g id="c"><use transform="matrix(0.005817632382796727,0,0,0.005817632382796727,0,0)" xlink:href="#o"/><use transform="matrix(0.005817632382796727,0,0,0.005817632382796727,7.272040478495909,0)" xlink:href="#q"/><use transform="matrix(0.005817632382796727,0,0,0.005817632382796727,14.61389254558538,0)" xlink:href="#p"/><use transform="matrix(0.005817632382796727,0,0,0.005817632382796727,23.741757754193443,0)" xlink:href="#r"/><use transform="matrix(0.005817632382796727,0,0,0.005817632382796727,31.642102530031398,0)" xlink:href="#s"/></g><path fill="#333" d="M1417 0h-208c-47 1-77-28-90-61l-108-295H412L304-61c-11 30-46 61-89 61H6l568-1446h275zM481-546h461c-77-218-163-424-231-651-66 230-154 432-230 651" id="t"/><path fill="#333" d="M247-436C153-487 80-575 80-712c0-228 174-332 407-332 92 0 169 20 230 53h295c-4 63 19 133-53 146l-92 17c30 74 25 184-9 254-72 146-265 223-484 183-51 27-68 81-20 111 145 54 395 5 528 91 60 38 108 95 104 193-8 182-136 275-286 326-172 59-444 28-556-52C83 234 32 179 32 90c0-112 77-164 166-199-49-28-87-70-84-147 4-94 65-143 133-180zm247 621c132 0 252-20 264-139-10-98-129-93-228-102-63-6-132-5-191-13-47 27-93 62-93 127 0 112 123 127 248 127zM305-706c0 111 68 168 182 168s182-56 182-168c0-107-68-165-182-165s-182 58-182 165" id="u"/><path fill="#333" d="M991-153C899-47 760 15 568 15 237 15 63-197 63-535c0-237 116-392 287-467 61-27 129-40 206-40 287 0 444 174 444 465 0 54-3 95-57 95H309c4 226 158 349 385 292 52-13 93-39 132-62 32-19 73-16 93 9zM778-631c-4-143-73-234-217-234-154 0-226 95-247 234h464" id="v"/><path fill="#333" d="M605-850c-102 1-168 52-226 108V0H132v-1026c80 9 198-29 214 45l17 81c77-76 165-142 317-142 235 0 346 154 346 389V0H779v-653c0-121-55-198-174-197" id="w"/><path fill="#333" d="M738-75c-64 55-158 90-269 91-176 2-277-109-277-284v-573c-65-4-153 21-153-52v-98l165-27 52-280c10-66 115-35 183-42v323h270v176H439v556c-1 59 32 101 88 102 48 1 68-25 104-34 19 1 25 9 33 22" id="x"/><g id="d"><use transform="matrix(0.008888888888888889,0,0,0.008888888888888889,0,0)" xlink:href="#t"/><use transform="matrix(0.008888888888888889,0,0,0.008888888888888889,12.622222222222222,0)" xlink:href="#u"/><use transform="matrix(0.008888888888888889,0,0,0.008888888888888889,21.822222222222223,0)" xlink:href="#v"/><use transform="matrix(0.008888888888888889,0,0,0.008888888888888889,31.324444444444445,0)" xlink:href="#w"/><use transform="matrix(0.008888888888888889,0,0,0.008888888888888889,41.431111111111115,0)" xlink:href="#x"/></g><filter id="e" filterUnits="objectBoundingBox" x="-.09" y="-.1" width="1.21" height="1.33"><feOffset result="offOut" in="SourceAlpha" dx="2.05" dy="5.64"/><feGaussianBlur result="blurOut" in="offOut" stdDeviation="7.5"/><feColorMatrix result="colorOut" in="blurOut" values="0 0 0 0 0 0 0 0 0 0 0 0 0 0 0 0 0 0 0.14901960784313725 0"/><feBlend in="SourceGraphic" in2="colorOut"/></filter><path fill="#fff" d="M1284-209C1170-69 1008 19 759 16c-347-4-553-182-649-442-66-178-66-423 6-596 108-261 330-435 688-440 220-3 375 79 488 188l-90 125c-16 32-68 39-102 12-71-55-162-101-298-96-304 11-465 201-465 510 0 241 101 401 267 477 125 58 330 39 424-24 42-17 97-111 150-54" id="y"/><path fill="#fff" d="M377-1009c4 38 6 82 6 121V0H146v-1446c71 6 174-24 211 20 269 320 519 661 779 990-5-42-7-87-7-131v-879h237V0c-64-4-144 10-192-10-14-6-28-19-41-36" id="z"/><g id="f"><use transform="matrix(0.009,0,0,0.009,0,0)" xlink:href="#y"/><use transform="matrix(0.009,0,0,0.009,12.068999999999999,0)" xlink:href="#p"/><use transform="matrix(0.009,0,0,0.009,26.459999999999997,0)" xlink:href="#z"/><use transform="matrix(0.009,0,0,0.009,40.068,0)" xlink:href="#l"/><use transform="matrix(0.009,0,0,0.009,50.778,0)" xlink:href="#m"/><use transform="matrix(0.009,0,0,0.009,61.083,0)" xlink:href="#z"/><use transform="matrix(0.009,0,0,0.009,74.69099999999999,0)" xlink:href="#l"/></g><path fill="#333" d="M1284-209C1170-69 1008 19 759 16c-347-4-553-182-649-442-66-178-66-423 6-596 108-261 330-435 688-440 220-3 375 79 488 188l-90 125c-16 32-68 39-102 12-71-55-162-101-298-96-304 11-465 201-465 510 0 241 101 401 267 477 125 58 330 39 424-24 42-17 97-111 150-54" id="A"/><path fill="#333" d="M395-1486V0H148v-1486h247" id="B"/><path fill="#333" d="M395-1026V0H148v-1026h247zm-123-457c96 0 160 62 160 158 0 94-65 155-160 155-93 0-156-62-156-155 0-95 61-158 156-158" id="C"/><g id="g"><use transform="matrix(0.008888888888888889,0,0,0.008888888888888889,0,0)" xlink:href="#A"/><use transform="matrix(0.008888888888888889,0,0,0.008888888888888889,11.92,0)" xlink:href="#B"/><use transform="matrix(0.008888888888888889,0,0,0.008888888888888889,16.73777777777778,0)" xlink:href="#C"/><use transform="matrix(0.008888888888888889,0,0,0.008888888888888889,21.555555555555557,0)" xlink:href="#v"/><use transform="matrix(0.008888888888888889,0,0,0.008888888888888889,31.057777777777776,0)" xlink:href="#w"/><use transform="matrix(0.008888888888888889,0,0,0.008888888888888889,41.164444444444456,0)" xlink:href="#x"/></g><linearGradient gradientUnits="userSpaceOnUse" id="h" x1="880" y1="260.33" x2="880" y2="320.33"><stop offset="0%" stop-color="#354aaa"/><stop offset="100%" stop-color="#651fff"/><stop offset="100%" stop-color="#651fff"/></linearGradient><path fill="#3a414a" d="M233-177c-1 41-23 64-60 70L243 0h-38l-65-103H63V0H30v-248c88 3 205-21 203 71zM63-129c60-2 137 13 137-47 0-61-80-42-137-45v92" id="D"/><path fill="#3a414a" d="M100-194c63 0 86 42 84 106H49c0 40 14 67 53 68 26 1 43-12 49-29l28 8c-11 28-37 45-77 45C44 4 14-33 15-96c1-61 26-98 85-98zm52 81c6-60-76-77-97-28-3 7-6 17-6 28h103" id="E"/><path fill="#3a414a" d="M108 0H70L1-190h34L89-25l56-165h34" id="F"/><path fill="#3a414a" d="M114-163C36-179 61-72 57 0H25l-1-190h30c1 12-1 29 2 39 6-27 23-49 58-41v29" id="G"/><path fill="#3a414a" d="M135-143c-3-34-86-38-87 0 15 53 115 12 119 90S17 21 10-45l28-5c4 36 97 45 98 0-10-56-113-15-118-90-4-57 82-63 122-42 12 7 21 19 24 35" id="H"/><g id="i"><use transform="matrix(0.049382716049382706,0,0,0.049382716049382706,0,0)" xlink:href="#D"/><use transform="matrix(0.049382716049382706,0,0,0.049382716049382706,12.790123456790122,0)" xlink:href="#E"/><use transform="matrix(0.049382716049382706,0,0,0.049382716049382706,22.666666666666664,0)" xlink:href="#F"/><use transform="matrix(0.049382716049382706,0,0,0.049382716049382706,31.55555555555555,0)" xlink:href="#E"/><use transform="matrix(0.049382716049382706,0,0,0.049382716049382706,41.43209876543209,0)" xlink:href="#G"/><use transform="matrix(0.049382716049382706,0,0,0.049382716049382706,47.30864197530863,0)" xlink:href="#H"/><use transform="matrix(0.049382716049382706,0,0,0.049382716049382706,56.19753086419752,0)" xlink:href="#E"/></g><path fill="#3a414a" d="M127-220V0H93v-220H8v-28h204v28h-85" id="I"/><path fill="#3a414a" d="M84 4C-5 8 30-112 23-190h32v120c0 31 7 50 39 49 72-2 45-101 50-169h31l1 190h-30c-1-10 1-25-2-33-11 22-28 36-60 37" id="J"/><path fill="#3a414a" d="M117-194c89-4 53 116 60 194h-32v-121c0-31-8-49-39-48C34-167 62-67 57 0H25l-1-190h30c1 10-1 24 2 32 11-22 29-35 61-36" id="K"/><path fill="#3a414a" d="M24 0v-261h32V0H24" id="L"/><g id="j"><use transform="matrix(0.049382716049382706,0,0,0.049382716049382706,0,0)" xlink:href="#I"/><use transform="matrix(0.049382716049382706,0,0,0.049382716049382706,10.172839506172838,0)" xlink:href="#J"/><use transform="matrix(0.049382716049382706,0,0,0.049382716049382706,20.04938271604938,0)" xlink:href="#K"/><use transform="matrix(0.049382716049382706,0,0,0.049382716049382706,29.92592592592592,0)" xlink:href="#K"/><use transform="matrix(0.049382716049382706,0,0,0.049382716049382706,39.80246913580246,0)" xlink:href="#E"/><use transform="matrix(0.049382716049382706,0,0,0.049382716049382706,49.679012345679,0)" xlink:href="#L"/></g><path fill="#3a414a" d="M143 4C61 4 22-44 18-125c-5-107 100-154 193-111 17 8 29 25 37 43l-32 9c-13-25-37-40-76-40-61 0-88 39-88 99 0 61 29 100 91 101 35 0 62-11 79-27v-45h-74v-28h105v86C228-13 192 4 143 4" id="M"/><path fill="#3a414a" d="M30-248c87 1 191-15 191 75 0 78-77 80-158 76V0H30v-248zm33 125c57 0 124 11 124-50 0-59-68-47-124-48v98" id="N"/><path fill="#3a414a" d="M212-179c-10-28-35-45-73-45-59 0-87 40-87 99 0 60 29 101 89 101 43 0 62-24 78-52l27 14C228-24 195 4 139 4 59 4 22-46 18-125c-6-104 99-153 187-111 19 9 31 26 39 46" id="O"/><g id="k"><use transform="matrix(0.049382716049382706,0,0,0.049382716049382706,0,0)" xlink:href="#M"/><use transform="matrix(0.049382716049382706,0,0,0.049382716049382706,13.827160493827158,0)" xlink:href="#D"/><use transform="matrix(0.049382716049382706,0,0,0.049382716049382706,26.617283950617278,0)" xlink:href="#N"/><use transform="matrix(0.049382716049382706,0,0,0.049382716049382706,38.469135802469125,0)" xlink:href="#O"/></g></defs></g></svg>