<svg xmlns="http://www.w3.org/2000/svg" xmlns:xlink="http://www.w3.org/1999/xlink" xmlns:lucid="lucid" width="1329.29" height="390.15"><g transform="translate(-0.7218696291308007 -20)" lucid:page-tab-id="7dyqOZ6lU5qa"><path d="M709 48a8 8 0 0 1 8-8h64a8 8 0 0 1 8 8v223.64a8 8 0 0 1-8 8h-64a8 8 0 0 1-8-8z" stroke="#f50057" stroke-width="2" fill="#fff"/><path d="M758.33 140.85c-.17-.36-.3-.6-.44-.8-.32-.4-.9-.53-1.35-.25-.45.3-.62.85-.34 1.34.1.2.2.44.35.64.9 1.9 2.4 6.42 2.5 11.22-.92-2.02-2.36-3.8-3.67-5.4-2-2.43-3.67-4.53-3.36-6.8.04-.3-.03-.6-.24-.8-.17-.24-.48-.36-.75-.36-2.06 0-4.26 1.62-5.7 2.95-1.88 1.72-3.67 3.98-5.04 6.36-.22.37-.42.7-.6 1.05.5-3.26 1.38-6.65 2.17-9 .13-.35.07-.67-.1-.95-.2-.25-.52-.4-.83-.4-.38 0-.72.2-.9.52-6.06 11.14-8.2 15.74-8.2 23.7 0 4.3 1.62 8.34 4.6 11.3 1.52 1.52 3.34 2.7 5.43 3.54 2.16.86 4.56 1.3 7.13 1.3 2.58 0 4.98-.44 7.14-1.3 2.1-.84 3.9-2 5.42-3.54 2.98-2.95 4.6-6.98 4.6-11.3 0-7.87-2.13-12.55-7.83-23zm-16.3 9.12c1.24-2.18 2.96-4.3 4.64-5.9 1.2-1.08 2.37-1.85 3.33-2.2.2 2.53 1.95 4.7 3.84 7 3.3 4.05 6.4 7.88 2.16 14.38-.93 1.1-2.02 2.06-3.33 2.9 1.27-2.33 1.68-5.04 1.13-7.74-.44-2-1.4-3.87-2.8-5.36-1.52-1.57-3.5-2.7-5.77-3.27-.48-.12-1 .12-1.17.57-.2.44-.07.97.35 1.25 1.3.84 1.96 3.82 1.3 6-.44 1.5-1.33 2.22-2.63 2.22-.24 0-.48 0-.76-.04-.88-.16-1.53-.65-2-1.45-.08-.08-.1-.2-.18-.33-.72-1.7-.04-4.68 1.92-8.03zm6.97 28c-9.94 0-15.12-7.1-15.12-14.1 0-5.54 1.06-9.3 4-15.27-.85 4.97-.6 8.56.66 10.78.8 1.3 1.92 2.1 3.4 2.38.37.08.75.12 1.13.12 2.2 0 3.84-1.37 4.56-3.67.4-1.4.48-3.1.1-4.63-.03-.25-.1-.5-.17-.7 2.2 1.34 3.7 3.4 4.26 5.98.75 3.47-.6 7.02-3.43 9.24-.4.32-.53.84-.3 1.3.25.4.73.63 1.2.47 5.02-1.6 8.48-4.56 10.3-8.76 1.34-3.1 1.8-6.77 1.27-10.97 2.37 5.05 3.26 8.64 3.26 13.73 0 7.02-5.18 14.12-15.13 14.12z" stroke="#000" stroke-opacity="0" fill="#f50057"/><path d="M629 279.64h240v60H629z" stroke="#000" stroke-opacity="0" stroke-width="2" fill="#fff" fill-opacity="0"/><use xlink:href="#a" transform="matrix(1,0,0,1,634.0025696092772,284.64176730788324) translate(71.48949999999999 31.966)"/><path d="M255.5 220.82H150.82v-2H253.5v-44.38h2zm85.18-112.36H255.5v44.38h-2v-46.38h87.18z" stroke="#651fff" stroke-width=".05" fill="#651fff"/><path d="M150.85 220.82h-1.03v-2h1.03z" fill="#651fff"/><path d="M150.87 220.85h-1.07v-2.05h1.07zm-1.02-2v1.95h.97v-1.95z" stroke="#651fff" stroke-width=".05" fill="#651fff"/><path d="M355.94 107.46l-14.26 4.64v-9.27z" fill="#651fff"/><path d="M359.18 107.46l-18.5 6v-12zm-16.5 3.26l10.03-3.26-10.02-3.26z" stroke="#651fff" stroke-width=".05" fill="#651fff"/><use xlink:href="#b" transform="matrix(1,0,0,1,232.08540925027978,152.8417240062494) translate(0.004999999999999005 17.766)"/><path d="M26.44 279.07a8 8 0 0 1 8-8H272a8 8 0 0 1 8 8v43.12a8 8 0 0 1-8 8H34.44a8 8 0 0 1-8-8z" stroke="#000" stroke-opacity="0" stroke-width="2" fill="url(#c)"/><path d="M39.06 270.2h204.4v35.36H39.07z" stroke="#000" stroke-opacity="0" stroke-width="2" fill="#fff" fill-opacity="0"/><use xlink:href="#d" transform="matrix(1,0,0,1,44.06169028782354,275.18948566181774) translate(0 17.922666666666668)"/><use xlink:href="#e" transform="matrix(1,0,0,1,44.06169028782354,275.18948566181774) translate(20.511111111111113 17.922666666666668)"/><use xlink:href="#f" transform="matrix(1,0,0,1,44.06169028782354,275.18948566181774) translate(102.55555555555557 17.922666666666668)"/><use xlink:href="#g" transform="matrix(1,0,0,1,44.06169028782354,275.18948566181774) translate(143.57777777777778 17.922666666666668)"/><path d="M28.86 142.4h120v60h-120z" stroke="#000" stroke-opacity="0" stroke-width="2" fill="#fff" fill-opacity="0"/><use xlink:href="#h" transform="matrix(1,0,0,1,33.860025353846254,147.4004556592555) translate(34.88 17.546666666666667)"/><path d="M28.86 184.8a4 4 0 0 1 4-4h112a4 4 0 0 1 4 4v70.05a4 4 0 0 1-4 4h-112a4 4 0 0 1-4-4z" stroke="#999" stroke-opacity=".4" stroke-width="2" fill="#fff" filter="url(#i)"/><path d="M96.42 223.62c3.68 0 6.83.5 9.4 1.5 2.13.83 3.83 1.98 5.1 3.45 2.17 2.57 2.17 5.15 2.17 5.26 0 1.88-1.6 3.4-3.6 3.4H83.33c-1.94 0-3.54-1.52-3.54-3.4v-.07c0-.42.13-2.82 2.17-5.2 1.26-1.46 2.96-2.6 5.04-3.44 2.58-1 5.73-1.5 9.42-1.5zm-19.2 1.5c.48 0 .92.03 1.36.03.68.04 1.2.63 1.16 1.3 0 .65-.63 1.18-1.3 1.14-.4-.04-.78-.04-1.22-.04-9.8 0-10.08 5.74-10.08 6.06 0 .66.58 1.18 1.26 1.18h7.56c.73 0 1.26.56 1.26 1.22 0 .66-.53 1.22-1.26 1.22H68.4c-2.1 0-3.78-1.64-3.78-3.62v-.07c0-.4.14-2.37 1.7-4.32.9-1.22 2.22-2.16 3.82-2.86 1.94-.84 4.32-1.25 7.08-1.25zm19.2.76c-5.87 0-10.18 1.4-12.5 4-1.7 1.93-1.76 3.88-1.76 3.95 0 .62.54 1.15 1.17 1.15h26.17c.68 0 1.22-.53 1.22-1.15 0-.07-.1-2.02-1.75-3.94-2.33-2.62-6.7-4.02-12.55-4.02zm-19.7-15.92c4.18 0 7.58 3.07 7.58 6.83 0 3.75-3.4 6.82-7.57 6.82-4.16 0-7.56-3.07-7.56-6.83 0-3.77 3.4-6.84 7.56-6.84zm0 2.3c-2.75 0-5.03 2.02-5.03 4.53 0 2.5 2.27 4.52 5.03 4.52 2.77 0 5.05-2.02 5.05-4.53 0-2.52-2.28-4.54-5.05-4.54zm18.97-9.86c5.42 0 9.83 4.08 9.83 9.1 0 5-4.4 9.1-9.84 9.1-5.44 0-9.85-4.1-9.85-9.1 0-5.02 4.4-9.1 9.84-9.1zm0 2.27c-4.08 0-7.43 3.06-7.43 6.82 0 3.76 3.35 6.82 7.42 6.82 4.06 0 7.36-3.06 7.36-6.83s-3.3-6.83-7.37-6.83z" stroke="#000" stroke-opacity="0" fill="#6f7681"/><path d="M1099.03 175c.2.17.3.45.18.7-.6 1.93-1.67 3.75-3 5.3-.17.2-.44.28-.68.18l-3.8-1.34c-.97.77-2.02 1.37-3.16 1.85l-.75 4c-.05.22-.26.47-.53.5-1 .2-1.98.3-3 .3s-2-.1-3-.3c-.27-.03-.48-.28-.54-.5l-.75-4c-1.14-.5-2.22-1.1-3.15-1.86l-3.8 1.34c-.25.1-.52.03-.7-.2-1.32-1.53-2.4-3.35-3-5.27-.12-.25-.03-.53.18-.7l3.04-2.65c-.12-.58-.15-1.22-.15-1.86 0-.6.02-1.25.14-1.86l-3.03-2.66c-.2-.16-.3-.45-.17-.7.6-1.92 1.68-3.75 3-5.25.18-.22.45-.32.7-.2l3.8 1.35c.93-.8 2-1.4 3.15-1.85l.75-4c.06-.26.27-.52.54-.52 1.98-.4 4.02-.4 6 0 .27 0 .48.27.54.53l.76 4c1.14.44 2.2 1.05 3.15 1.85l3.82-1.34c.24-.13.5-.03.7.2 1.3 1.5 2.4 3.32 3 5.24.1.25.02.54-.2.7l-3.02 2.66c.12.6.15 1.25.15 1.85 0 .63-.03 1.27-.15 1.85l3.03 2.66zm-14.73 5.8c5.64 0 10.23-4.6 10.23-10.3 0-5.7-4.6-10.3-10.23-10.3-5.67 0-10.23 4.6-10.23 10.3 0 5.7 4.56 10.3 10.23 10.3zm0-1.28c-4.95 0-8.94-4.03-8.94-9.03 0-5 4-9.03 8.94-9.03 4.92 0 8.94 4.03 8.94 9.02 0 5-4.02 9.02-8.94 9.02zm-5-13.25v2.53h3.74v6.33h2.9v-6.33h3.76v-2.53h-10.4z" stroke="#000" stroke-opacity="0" fill="#fff"/><path d="M1024.27 148.47a4 4 0 0 1 4-4h277.75a4 4 0 0 1 4 4v43.28a4 4 0 0 1-4 4h-277.75a4 4 0 0 1-4-4z" stroke="#000" stroke-opacity="0" stroke-width="2" fill="url(#j)"/><path d="M1024.27 149.75a4 4 0 0 1 4-4h277.75a4 4 0 0 1 4 4v42a4 4 0 0 1-4 4h-277.75a4 4 0 0 1-4-4z" stroke="#fff" stroke-opacity=".3" stroke-width="1.5" fill="#fff" fill-opacity="0"/><path d="M1082.83 148.47a4 4 0 0 1 4-4h160.62a4 4 0 0 1 4 4v42a4 4 0 0 1-4 4h-160.62a4 4 0 0 1-4-4z" stroke="#000" stroke-opacity="0" stroke-width="2" fill="#fff" fill-opacity="0"/><use xlink:href="#k" transform="matrix(1,0,0,1,1087.832197250447,149.4692359579068) translate(21.000000000000007 26.686999999999998)"/><path d="M1075.53 155.26c.25 0 .52.03.77.16l9.57 4.62c.46.24.85.64 1 1.15l2.37 10.32c.08.54-.06 1.07-.36 1.53l-6.63 8.25c-.33.48-.88.72-1.43.67h-10.53c-.56-.06-1.08-.3-1.46-.67l-6.6-8.25c-.34-.46-.45-1-.37-1.53l2.36-10.38c.1-.54.47-.94.93-1.18l9.57-4.65c.25-.04.52-.04.8-.04zm-.47 3.66c-.1.13-.2.3-.2.43v.16c0 .14.04.25.1.38.02.05.02.1.02.2.06.33.06.68.06 1.06-.03.08-.06.18-.17.24v.05l-.03.24-1.04.16c-1.45.32-2.8 1.07-3.8 2.14l-.2-.1h-.03l-.1.02c-.1 0-.15-.04-.2-.07-.27-.2-.58-.45-.77-.72l-.14-.1c-.08-.1-.16-.18-.24-.3l-.08-.04-.03-.03c-.13-.08-.3-.16-.43-.16-.2 0-.36.08-.44.2-.2.3-.14.66.1.87.07 0 .07.05.07.05s.05.05.08.05c.08.05.22.1.33.18l.2.08c.3.2.63.4.88.63.05.05.08.13.08.2v.04l.2.18-.1.16c-.95 1.5-1.36 3.3-1.1 5.04l-.24.05c0 .02-.02.02-.02.02-.03.1-.14.16-.22.2-.33.12-.7.17-1.04.2-.1 0-.14 0-.2.02-.13 0-.24.03-.38.03-.03 0-.05.05-.1.05-.04 0-.04 0-.1.03-.3.05-.5.32-.5.6v.1c.1.26.37.45.65.42.06 0 .1 0 .17-.03.03 0 .03 0 .03-.02 0-.03.08 0 .1 0 .14-.03.25-.1.36-.14.06-.02.1-.05.17-.05h.05c.33-.13.63-.2 1.02-.27h.02c.1 0 .2.03.25.08.03 0 .03.03.03.03l.27-.03c.47 1.42 1.35 2.67 2.55 3.58.28.22.52.4.83.56l-.14.22c0 .02.04.02.04.02.05.1.05.22.02.32-.13.3-.3.6-.5.88v.03c-.02.05-.05.08-.13.16-.05.07-.1.2-.22.3 0 .03 0 .06-.04.1 0 0 0 .04-.03.04-.16.3-.03.67.25.83.05.02.16.05.22.05.24 0 .46-.16.57-.37 0 0 0-.03.06-.03 0-.03.02-.05.05-.08.03-.13.08-.2.1-.35l.1-.2c.08-.3.24-.64.38-.93.08-.1.16-.16.24-.2h.03l.14-.28c.88.34 1.75.5 2.7.5.56 0 1.1-.08 1.66-.22.36-.08.68-.18 1-.3l.12.22c.03 0 .03 0 .03.06.08.02.2.08.25.16.16.32.3.6.4.96v.03l.06.2c.02.13.05.23.1.34.06.03.06.05.1.08v.03c.12.2.34.37.6.37.1 0 .15-.03.24-.05.13-.08.24-.2.27-.35.06-.16.06-.3-.02-.45 0-.03-.03-.03-.03-.03 0-.03-.02-.08-.05-.1-.05-.1-.14-.22-.22-.3-.03-.05-.05-.1-.1-.16v-.06c-.23-.3-.4-.58-.53-.88-.03-.1-.03-.2.05-.32 0-.02.03-.02.03-.02l-.1-.24c1.58-.97 2.8-2.43 3.34-4.17l.24.02c.04 0 .04-.03.04-.03.08-.06.17-.12.25-.12h.04c.33.08.66.16 1 .3h.02c.05.02.1.05.2.05.1.05.18.13.32.16.03 0 .05.02.14.02l.05.02c.06.03.08.03.14.03.3 0 .56-.2.64-.43-.03-.32-.28-.58-.55-.64-.04 0-.1 0-.1-.02 0-.03-.05-.03-.1-.03-.08-.03-.17-.03-.25-.03h-.14c-.04 0-.1 0-.15-.05h-.05c-.33-.03-.72-.08-1.05-.16-.08-.02-.13-.1-.2-.15l-.02-.05-.24-.08c.12-.9.04-1.8-.12-2.7-.22-.88-.6-1.74-1.1-2.5l.2-.17v-.06c0-.1.02-.22.07-.27.28-.24.58-.43.88-.62.06 0 .1-.04.2-.07.1-.08.2-.13.32-.18.03-.03.06-.03.1-.06.04-.06 0-.06 0-.1.3-.2.34-.57.12-.84-.08-.1-.27-.22-.44-.22-.13 0-.3.06-.43.16l-.03.03c-.03.03-.06.05-.08.05-.12.1-.2.2-.26.3-.03.05-.1.08-.14.1-.22.25-.5.5-.77.67-.05.06-.1.08-.2.08-.02 0-.07 0-.1-.02h-.03l-.24.14c-.25-.24-.55-.48-.8-.72-1.12-.88-2.55-1.44-4-1.6l-.03-.24v.02c-.1-.05-.13-.16-.16-.24 0-.34 0-.67.05-1.04v-.03l.03-.2c.03-.13.03-.23.08-.37v-.18c.03-.3-.22-.62-.55-.64-.16-.02-.35.1-.52.22zm.63 13.1c.08.06.13.14.24.22l1.48 2.68c-.2.02-.38.05-.6.1-.4.1-.85.16-1.32.16-.66 0-1.34-.13-1.95-.3l1.5-2.72c.18-.18.42-.26.64-.13zm-2.83-1.3c.25 0 .5.14.52.4.02.08.02.22-.04.3l-1.18 2.8c-1.07-.7-1.94-1.76-2.38-3l3.07-.5zm5.24-.05l3.1.53c-.16.43-.35.83-.6 1.18-.46.72-1.1 1.36-1.86 1.8l-1.2-2.84c-.06-.27.07-.5.3-.6.07-.02.16-.07.27-.07zm-2.13-2.43l.57.72-.22.9-.82.38-.85-.37-.2-.9.6-.73h.92zm4.66-2.2c.36.57.6 1.18.74 1.83.16.64.2 1.28.14 1.92l-2.93-.84c-.27-.05-.44-.32-.38-.6.02-.1.04-.15.13-.23l2.3-2.08zm-10.3 0l2.3 2.04c.2.2.24.48.05.7-.06.1-.1.13-.25.15l-3 .86c-.1-1.3.23-2.6.9-3.75zm4.4-2.8l-.16 3.08c0 .26-.25.48-.52.48-.1 0-.17-.03-.25-.06l-2.58-1.8c.8-.8 1.8-1.32 2.88-1.56l.63-.13zm1.48.03c1.4.16 2.6.75 3.5 1.66l-2.53 1.76c-.22.12-.52.1-.68-.12-.07-.05-.1-.13-.1-.2l-.2-3.1z" stroke="#000" stroke-opacity="0" fill="#fff"/><path d="M1024.27 86.2a4 4 0 0 1 4-4h277.75a4 4 0 0 1 4 4v42.52a4 4 0 0 1-4 4h-277.75a4 4 0 0 1-4-4z" stroke="#000" stroke-opacity="0" stroke-width="2" fill="url(#l)"/><path d="M1099.27 86.2a4 4 0 0 1 4-4h162.64a4 4 0 0 1 4 4v42a4 4 0 0 1-4 4h-162.63a4 4 0 0 1-4-4z" stroke="#000" stroke-opacity="0" stroke-width="2" fill="#fff" fill-opacity="0"/><use xlink:href="#m" transform="matrix(1,0,0,1,1104.2660272188316,87.20661429933922) translate(2.1280000000000143 26.686999999999998)"/><use xlink:href="#n" transform="matrix(1,0,0,1,1104.2660272188316,87.20661429933922) translate(98.13999999999999 26.686999999999998)"/><path d="M1024.27 86.2a4 4 0 0 1 4-4h277.75a4 4 0 0 1 4 4v42a4 4 0 0 1-4 4h-277.75a4 4 0 0 1-4-4z" stroke="#fff" stroke-opacity=".3" stroke-width="1.5" fill="#fff" fill-opacity="0"/><path d="M1089.03 113.5c.2.17.3.46.18.7-.6 1.93-1.67 3.76-3 5.3-.17.22-.44.28-.68.2l-3.8-1.36c-.97.77-2.02 1.38-3.16 1.86l-.75 4c-.05.22-.26.48-.53.5-1 .2-1.98.3-3 .3s-2-.1-3-.3c-.27-.02-.48-.28-.54-.5l-.75-4c-1.14-.48-2.22-1.1-3.15-1.86l-3.8 1.35c-.25.08-.52.02-.7-.2-1.32-1.54-2.4-3.37-3-5.3-.12-.24-.03-.53.18-.7l3.04-2.65c-.12-.57-.15-1.2-.15-1.85 0-.6.02-1.25.14-1.86l-3.03-2.65c-.2-.17-.3-.46-.17-.72.6-1.92 1.68-3.74 3-5.25.18-.22.45-.32.7-.2l3.8 1.36c.93-.8 2-1.42 3.15-1.87l.75-4c.06-.26.27-.5.54-.5 1.98-.43 4.02-.43 6 0 .27 0 .48.24.54.5l.76 4c1.14.45 2.2 1.06 3.15 1.86l3.82-1.36c.24-.13.5-.03.7.2 1.3 1.5 2.4 3.32 3 5.24.1.26.02.55-.2.7l-3.02 2.66c.12.6.15 1.25.15 1.86 0 .64-.03 1.28-.15 1.85l3.03 2.66zm-14.73 5.8c5.64 0 10.23-4.6 10.23-10.3 0-5.7-4.6-10.3-10.23-10.3-5.67 0-10.23 4.6-10.23 10.3 0 5.7 4.56 10.3 10.23 10.3zm0-1.28c-4.95 0-8.94-4.03-8.94-9.02 0-5 4-9.03 8.94-9.03 4.92 0 8.94 4.04 8.94 9.03 0 5-4.02 9.02-8.94 9.02zm-5-13.25v2.53h3.74v6.34h2.9v-6.34h3.76v-2.53h-10.4z" stroke="#000" stroke-opacity="0" fill="#fff"/><path d="M765.2 108.46H663.4v-2H765.2zm258.1 0H903.95v-2h119.33z" stroke="#651fff" stroke-width=".05" fill="#651fff"/><path d="M1024.3 108.46h-1.04v-2h1.03z" fill="#651fff"/><path d="M1024.32 108.5h-1.08v-2.06h1.07zm-1.03-2v1.94h.97v-1.95z" stroke="#651fff" stroke-width=".05" fill="#651fff"/><path d="M662.38 112.1l-14.26-4.64 14.26-4.63z" fill="#651fff"/><path d="M663.38 113.47l-18.5-6 18.5-6.02zm-12.03-6l10.03 3.25v-6.52z" stroke="#651fff" stroke-width=".05" fill="#651fff"/><use xlink:href="#o" transform="matrix(1,0,0,1,765.2127107896644,96.66256435855709) translate(0.0049999999999954525 17.766)"/><use xlink:href="#p" transform="matrix(1,0,0,1,765.2127107896644,96.66256435855709) translate(86.58500000000001 17.766)"/><path d="M644.9 344.15a4 4 0 0 1 4-4h184.3a4 4 0 0 1 4 4v42a4 4 0 0 1-4 4H648.9a4 4 0 0 1-4-4z" stroke="#000" stroke-opacity="0" stroke-width="2" fill="#fff" fill-opacity="0"/><use xlink:href="#q" transform="matrix(1,0,0,1,649.9033944397804,345.153667426319) translate(45.65400000000001 26.686999999999998)"/><path d="M589.3 343.64a4 4 0 0 1 4-4h239.9a4 4 0 0 1 4 4v42a4 4 0 0 1-4 4H593.3a4 4 0 0 1-4-4z" stroke="#000" stroke-opacity="0" stroke-width="1.5" fill="#fff" fill-opacity="0"/><path d="M673.54 370.18c.23.16.33.45.2.7-.68 1.92-1.9 3.75-3.38 5.28-.2.23-.5.3-.78.2l-4.3-1.35c-1.08.78-2.26 1.4-3.54 1.87l-.85 4c-.08.22-.3.48-.62.5-1.1.2-2.23.3-3.38.3s-2.26-.1-3.38-.3c-.3-.02-.54-.28-.6-.5l-.85-4c-1.3-.48-2.5-1.1-3.55-1.86l-4.3 1.35c-.27.1-.57.04-.77-.2-1.5-1.52-2.7-3.35-3.38-5.27-.14-.25-.04-.54.2-.7l3.4-2.66c-.12-.57-.16-1.2-.16-1.85 0-.6.05-1.25.18-1.86l-3.4-2.65c-.25-.16-.35-.44-.2-.7.66-1.92 1.88-3.74 3.37-5.25.2-.22.5-.32.77-.2l4.3 1.35c1.05-.8 2.26-1.4 3.55-1.85l.84-4c.08-.26.32-.5.62-.5 2.23-.43 4.53-.43 6.76 0 .3 0 .54.24.6.5l.86 4c1.28.45 2.46 1.05 3.55 1.85l4.28-1.34c.27-.12.58-.02.78.2 1.5 1.5 2.7 3.33 3.38 5.25.13.26.03.54-.2.7l-3.42 2.66c.14.62.17 1.26.17 1.87 0 .64-.04 1.28-.18 1.85l3.42 2.66zm-16.6 5.8c6.35 0 11.52-4.62 11.52-10.3 0-5.7-5.17-10.32-11.52-10.32-6.4 0-11.53 4.6-11.53 10.3 0 5.7 5.15 10.3 11.54 10.3zm0-1.3c-5.58 0-10.08-4.02-10.08-9 0-5 4.5-9.04 10.08-9.04 5.54 0 10.07 4.03 10.07 9.03 0 5-4.52 9.02-10.06 9.02zm-5.65-13.24v2.53h4.22v6.34h3.28v-6.33h4.22v-2.53H651.3zM895.34 268.54c.2.16.3.45.18.7-.6 1.93-1.68 3.75-3 5.3-.18.2-.45.28-.7.18l-3.8-1.34c-.96.76-2 1.37-3.15 1.85l-.75 4c-.06.23-.27.48-.54.5-1 .2-1.98.3-3 .3s-2-.1-3-.3c-.27-.02-.48-.27-.54-.5l-.75-4c-1.15-.48-2.23-1.1-3.16-1.85l-3.8 1.34c-.25.1-.52.03-.7-.2-1.32-1.53-2.4-3.35-3-5.27-.12-.26-.03-.55.18-.7l3.03-2.66c-.12-.6-.15-1.23-.15-1.87 0-.6.03-1.25.15-1.85l-3.03-2.66c-.2-.16-.3-.45-.18-.7.6-1.92 1.68-3.75 3-5.25.18-.23.45-.32.7-.2l3.8 1.35c.93-.8 2-1.4 3.15-1.86l.74-4c.06-.25.27-.5.54-.5 1.98-.42 4.02-.42 6 0 .27 0 .48.25.54.5l.75 4c1.14.45 2.2 1.06 3.15 1.86l3.8-1.34c.25-.13.52-.04.7.2 1.32 1.5 2.4 3.32 3 5.24.12.25.03.54-.18.7l-3.03 2.66c.13.6.16 1.24.16 1.85 0 .64-.03 1.28-.15 1.86l3.04 2.64zm-14.73 5.8c5.65 0 10.24-4.6 10.24-10.3 0-5.7-4.6-10.3-10.23-10.3-5.66 0-10.22 4.6-10.22 10.3 0 5.7 4.56 10.3 10.23 10.3zm0-1.28c-4.94 0-8.93-4.04-8.93-9.03 0-5 4-9.02 8.94-9.02 4.93 0 8.95 4.04 8.95 9.03 0 5-4.02 9.03-8.94 9.03zm-5-13.25v2.54h3.75v6.33h2.9v-6.33h3.76v-2.53h-10.4z" stroke="#000" stroke-opacity="0" fill="#fff"/><path d="M359.15 86.2a4 4 0 0 1 4-4H640.9a4 4 0 0 1 4 4v42a4 4 0 0 1-4 4H363.15a4 4 0 0 1-4-4z" stroke="#fff" stroke-opacity=".3" stroke-width="1.5" fill="#fff" fill-opacity="0"/><path d="M359.15 86.2a4 4 0 0 1 4-4H640.9a4 4 0 0 1 4 4v42.52a4 4 0 0 1-4 4H363.15a4 4 0 0 1-4-4z" stroke="#000" stroke-opacity="0" stroke-width="2" fill="url(#r)"/><path d="M434.15 86.2a4 4 0 0 1 4-4H600.8a4 4 0 0 1 4 4v42a4 4 0 0 1-4 4H438.15a4 4 0 0 1-4-4z" stroke="#000" stroke-opacity="0" stroke-width="2" fill="#fff" fill-opacity="0"/><use xlink:href="#m" transform="matrix(1,0,0,1,439.1533948554745,87.20661429933922) translate(1.768000000000015 26.686999999999998)"/><use xlink:href="#s" transform="matrix(1,0,0,1,439.1533948554745,87.20661429933922) translate(97.77999999999999 26.686999999999998)"/><path d="M423.9 113.5c.22.17.3.46.2.7-.6 1.93-1.7 3.76-3 5.3-.2.22-.46.28-.7.2l-3.8-1.36c-.97.77-2.02 1.38-3.16 1.86l-.75 4c-.07.22-.28.48-.55.5-1 .2-1.98.3-3 .3s-2-.1-3-.3c-.27-.02-.48-.28-.54-.5l-.74-4c-1.14-.48-2.22-1.1-3.15-1.86l-3.8 1.35c-.24.08-.5.02-.7-.2-1.3-1.54-2.4-3.37-3-5.3-.1-.24-.02-.53.2-.7l3.02-2.65c-.12-.57-.15-1.2-.15-1.85 0-.6.03-1.25.15-1.86l-3.03-2.65c-.22-.17-.3-.46-.2-.72.6-1.92 1.7-3.74 3-5.25.2-.22.46-.32.7-.2l3.8 1.36c.94-.8 2.02-1.42 3.16-1.87l.75-4c.07-.26.28-.5.55-.5 1.98-.43 4.02-.43 6 0 .27 0 .48.24.54.5l.74 4c1.14.45 2.2 1.06 3.15 1.86l3.8-1.36c.24-.13.5-.03.7.2 1.3 1.5 2.4 3.32 3 5.24.1.26.02.55-.2.7l-3.02 2.66c.12.6.15 1.25.15 1.86 0 .64-.03 1.28-.15 1.85l3.03 2.66zm-14.72 5.8c5.64 0 10.23-4.6 10.23-10.3 0-5.7-4.58-10.3-10.22-10.3-5.67 0-10.23 4.6-10.23 10.3 0 5.7 4.56 10.3 10.23 10.3zm0-1.28c-4.95 0-8.94-4.03-8.94-9.02 0-5 4-9.03 8.94-9.03 4.92 0 8.94 4.04 8.94 9.03 0 5-4.02 9.02-8.94 9.02zm-5-13.25v2.53h3.74v6.34h2.9v-6.34h3.76v-2.53h-10.4z" stroke="#000" stroke-opacity="0" fill="#fff"/><path d="M319 209.33h350.26v138.64H319z" fill-opacity="0"/><path d="M333.6 209.33h14.58m7.3 0h14.6m7.3 0h14.58m7.3 0h14.6m7.3 0h14.6m7.28 0h14.6m7.3 0h14.6m7.3 0h14.58m7.3 0h14.6m7.3 0h14.6m7.28 0h14.6m7.3 0H589m7.3 0h14.58m7.3 0h14.6m7.3 0h14.58m7.3 0h7.3v7.7m0 7.7v15.4m0 7.7v15.4m0 7.72v15.4m0 7.7v15.4m0 7.7v15.4m0 7.72v7.7h-7.3m-7.3 0h-14.6m-7.3 0H618.2m-7.3 0h-14.6m-7.3 0h-14.6m-7.28 0h-14.6m-7.3 0h-14.6m-7.3 0h-14.58m-7.3 0h-14.6m-7.3 0h-14.58m-7.3 0h-14.6m-7.3 0h-14.6m-7.28 0h-14.6m-7.3 0h-14.6m-7.3 0H355.5m-7.3 0h-14.6m-7.3 0H319v-7.7m0-7.7v-15.4m0-7.7v-15.42m0-7.7v-15.4m0-7.7v-15.4m0-7.7v-15.42m0-7.7v-7.7h7.3" stroke="#512fc9" stroke-width="1.5" fill="none"/><path d="M300 118.73h42.5V225.6H300z" stroke="#000" stroke-opacity="0" stroke-width="2" fill="#fff" fill-opacity="0"/><use xlink:href="#t" transform="matrix(1,0,0,1,305,123.73167734026333) translate(9 52.1)"/><path d="M335.85 168.64h318.9v209.3h-318.9z" stroke="#000" stroke-opacity="0" stroke-width="2" fill="#fff" fill-opacity="0"/><use xlink:href="#u" transform="matrix(1,0,0,1,340.85010152708765,173.6388537650074) translate(0 85.36599999999999)"/><use xlink:href="#v" transform="matrix(1,0,0,1,340.85010152708765,173.6388537650074) translate(42.767999999999994 85.36599999999999)"/><use xlink:href="#w" transform="matrix(1,0,0,1,340.85010152708765,173.6388537650074) translate(81.30599999999998 85.36599999999999)"/><use xlink:href="#x" transform="matrix(1,0,0,1,340.85010152708765,173.6388537650074) translate(143.44199999999998 85.36599999999999)"/><use xlink:href="#y" transform="matrix(1,0,0,1,340.85010152708765,173.6388537650074) translate(247.30199999999996 85.36599999999999)"/><use xlink:href="#z" transform="matrix(1,0,0,1,340.85010152708765,173.6388537650074) translate(0 106.96599999999998)"/><use xlink:href="#A" transform="matrix(1,0,0,1,340.85010152708765,173.6388537650074) translate(48.852 106.96599999999998)"/><use xlink:href="#B" transform="matrix(1,0,0,1,340.85010152708765,173.6388537650074) translate(118.44 106.96599999999998)"/><use xlink:href="#w" transform="matrix(1,0,0,1,340.85010152708765,173.6388537650074) translate(204.714 106.96599999999998)"/><use xlink:href="#C" transform="matrix(1,0,0,1,340.85010152708765,173.6388537650074) translate(266.84999999999997 106.96599999999998)"/><use xlink:href="#D" transform="matrix(1,0,0,1,340.85010152708765,173.6388537650074) translate(0 128.56599999999997)"/><use xlink:href="#E" transform="matrix(1,0,0,1,340.85010152708765,173.6388537650074) translate(30.726 128.56599999999997)"/><use xlink:href="#F" transform="matrix(1,0,0,1,340.85010152708765,173.6388537650074) translate(78.38999999999999 128.56599999999997)"/><use xlink:href="#G" transform="matrix(1,0,0,1,340.85010152708765,173.6388537650074) translate(169.46999999999997 128.56599999999997)"/><use xlink:href="#A" transform="matrix(1,0,0,1,340.85010152708765,173.6388537650074) translate(189.66599999999997 128.56599999999997)"/><use xlink:href="#H" transform="matrix(1,0,0,1,340.85010152708765,173.6388537650074) translate(259.25399999999996 128.56599999999997)"/><path d="M847.74 228.95H1198v99.26H847.75z" fill-opacity="0"/><path d="M862.34 228.95h14.6m7.3 0h14.58m7.3 0h14.6m7.3 0h14.58m7.3 0h14.6m7.3 0h14.6m7.28 0h14.6m7.3 0h14.6m7.3 0h14.58m7.3 0h14.6m7.3 0h14.58m7.3 0h14.6m7.3 0h14.6m7.3 0h14.58m7.3 0h14.6m7.3 0h7.3v8.27m0 8.28v16.54m0 8.27v16.55m0 8.27v16.54m0 8.28v8.27h-7.3m-7.3 0h-14.6m-7.3 0h-14.6m-7.3 0h-14.6m-7.28 0h-14.6m-7.3 0h-14.6m-7.3 0h-14.58m-7.3 0h-14.6m-7.3 0h-14.58m-7.3 0h-14.6m-7.3 0h-14.6m-7.28 0h-14.6m-7.3 0H928m-7.3 0h-14.58m-7.3 0h-14.6m-7.3 0h-14.58m-7.3 0h-7.3v-8.26m0-8.28v-16.54m0-8.27V270.3m0-8.26V245.5m0-8.28v-8.27h7.3" stroke="#512fc9" stroke-width="1.5" fill="none"/><path d="M828.75 164.1h42.5v76.5h-42.5z" stroke="#000" stroke-opacity="0" stroke-width="2" fill="#fff" fill-opacity="0"/><g><use xlink:href="#I" transform="matrix(1,0,0,1,833.7484080395536,169.09297291384746) translate(9 37.1)"/></g><path d="M864.6 199.82h318.9v149.85H864.6z" stroke="#000" stroke-opacity="0" stroke-width="2" fill="#fff" fill-opacity="0"/><g><use xlink:href="#J" transform="matrix(1,0,0,1,869.5985095666413,204.8221671555117) translate(0 66.166)"/><use xlink:href="#K" transform="matrix(1,0,0,1,869.5985095666413,204.8221671555117) translate(49.482 66.166)"/><use xlink:href="#L" transform="matrix(1,0,0,1,869.5985095666413,204.8221671555117) translate(124.326 66.166)"/><use xlink:href="#F" transform="matrix(1,0,0,1,869.5985095666413,204.8221671555117) translate(153.95399999999998 66.166)"/><use xlink:href="#M" transform="matrix(1,0,0,1,869.5985095666413,204.8221671555117) translate(245.03399999999996 66.166)"/><use xlink:href="#A" transform="matrix(1,0,0,1,869.5985095666413,204.8221671555117) translate(0 87.76599999999999)"/><use xlink:href="#N" transform="matrix(1,0,0,1,869.5985095666413,204.8221671555117) translate(69.58800000000001 87.76599999999999)"/><use xlink:href="#O" transform="matrix(1,0,0,1,869.5985095666413,204.8221671555117) translate(132.606 87.76599999999999)"/><use xlink:href="#P" transform="matrix(1,0,0,1,869.5985095666413,204.8221671555117) translate(195.444 87.76599999999999)"/></g><defs><path fill="#333" d="M1058-1446v214H417v428h541v215H417V0H146v-1446h912" id="Q"/><path fill="#333" d="M449 0H179v-1446h270V0" id="R"/><path fill="#333" d="M1153-1030c0 232-137 352-319 413 34 19 63 47 88 83L1284 0h-242c-51 0-80-22-101-54L637-517c-24-34-42-48-98-48H424V0H155v-1446h441c324 4 557 105 557 416zm-263 20c0-163-114-229-294-228H424v480h168c180-3 298-77 298-252" id="S"/><path fill="#333" d="M1058-1446v214H417v401h505v207H417v409h641V0H146v-1446h912" id="T"/><path fill="#333" d="M12-1446h226c47 0 80 25 90 61 87 312 181 618 262 935 6 25 10 51 15 79 10-53 22-104 38-149l284-865c11-30 46-61 89-61 78 0 148-4 169 61l282 865c15 43 27 90 38 142 9-49 18-98 30-142l246-865c9-33 45-61 89-61h211L1632 0h-243c-113-359-232-713-341-1076C938-712 818-360 704 0H461" id="U"/><path fill="#333" d="M1417 0h-208c-47 1-77-28-90-61l-108-295H412L304-61c-11 30-46 61-89 61H6l568-1446h275zM481-546h461c-77-218-163-424-231-651-66 230-154 432-230 651" id="V"/><path fill="#333" d="M415-222h579V0H146v-1446h269v1224" id="W"/><g id="a"><use transform="matrix(0.009,0,0,0.009,0,0)" xlink:href="#Q"/><use transform="matrix(0.009,0,0,0.009,10.107,0)" xlink:href="#R"/><use transform="matrix(0.009,0,0,0.009,15.758999999999999,0)" xlink:href="#S"/><use transform="matrix(0.009,0,0,0.009,27.549,0)" xlink:href="#T"/><use transform="matrix(0.009,0,0,0.009,37.854,0)" xlink:href="#U"/><use transform="matrix(0.009,0,0,0.009,55.629000000000005,0)" xlink:href="#V"/><use transform="matrix(0.009,0,0,0.009,68.409,0)" xlink:href="#W"/><use transform="matrix(0.009,0,0,0.009,77.715,0)" xlink:href="#W"/></g><path d="M565-850c-86 0-140 48-186 99V0H132v-1026c80 9 198-29 214 45l16 76c67-72 141-136 276-137 139-1 214 86 253 192 57-117 162-192 328-192 240 0 354 147 354 389V0h-247v-653c1-123-52-197-169-197s-180 76-180 197V0H729v-653c0-127-46-197-164-197" id="X"/><path d="M1165-1446v221H730V0H461v-1225H24v-221h1141" id="Y"/><path d="M415-222h579V0H146v-1446h269v1224" id="Z"/><path d="M519-204c146 0 246-70 241-211-6-175-195-185-333-232-183-63-339-153-333-400 5-199 120-319 272-380 126-51 311-44 437 5 72 27 133 64 184 112l-66 127c-15 40-64 51-105 25-64-41-136-87-246-85-132 3-224 54-224 182 0 167 202 176 334 227 173 67 333 144 333 381 0 227-120 364-289 433-138 56-353 39-478-16-80-35-154-80-210-138l78-129c23-34 74-43 115-13 73 54 157 112 290 112" id="aa"/><g id="b"><use transform="matrix(0.009,0,0,0.009,0,0)" xlink:href="#X"/><use transform="matrix(0.009,0,0,0.009,15.155999999999999,0)" xlink:href="#Y"/><use transform="matrix(0.009,0,0,0.009,25.866,0)" xlink:href="#Z"/><use transform="matrix(0.009,0,0,0.009,35.172,0)" xlink:href="#aa"/></g><linearGradient gradientUnits="userSpaceOnUse" id="c" x1="280" y1="330.19" x2="26.44" y2="330.19"><stop offset="0%"/><stop offset="87.39%" stop-color="#333"/><stop offset="98.74%" stop-color="#333"/></linearGradient><path fill="#4cf66e" d="M262 73V0C145 6 67-45 73-176l141-36c-3 52 4 84 61 81 65-3 161 21 161-54 0-58 4-99-61-99H248c-115 0-175-51-175-163v-75c4-119 89-168 189-162v-73h126v73c112-6 192 43 188 172l-140 36c3-51-5-81-61-79-65 3-161-21-161 54 0 55 0 90 61 90h126c115 0 175 50 175 161v88C573-42 489 6 388 0v73H262" id="ab"/><use transform="matrix(0.01577777777777778,0,0,0.01577777777777778,0,0)" xlink:href="#ab" id="d"/><path fill="#4cf66e" d="M555 0H415v-144L303-253l-99 95V0H64v-684h140c1 118-3 242 2 357l207-215h188L396-347l159 160V0" id="ac"/><path fill="#4cf66e" d="M78-542h141v336c-5 73 46 75 117 75 51 0 95-25 95-82v-329h140V0H431v-46h-3C405-8 316 0 234 0 134 0 78-51 78-163v-379" id="ad"/><path fill="#4cf66e" d="M451-338c5-72-46-75-117-75-51 0-95 25-95 82v118c2 75 65 82 142 82 99 0 64-122 70-207zM239-46V0H99v-684h140v189h3c23-39 112-47 194-47 99 0 155 52 155 163v216C592-25 509 0 371 0c-66 0-108-21-129-46h-3" id="ae"/><path fill="#4cf66e" d="M559-374v150H223c-1 60-7 111 61 108 57-3 150 14 142-47v-25l133 25C575-1 434 0 272 0 157 0 90-47 90-158v-226c0-111 67-158 182-158h105c115 0 182 57 182 168zm-275-54c-72-1-60 40-61 97h203c0-57 9-97-61-97h-81" id="af"/><path fill="#4cf66e" d="M224-359v174c-10 67 79 53 140 54 60 2 64-32 61-87l140 40C572-53 505 0 383 0H266C151 0 84-47 84-158v-226c0-111 67-158 182-158h117c126 0 191 56 182 187l-140 36c2-57 2-96-61-94-61 2-140-14-140 54" id="ag"/><path fill="#4cf66e" d="M43-415v-127h161v-142h140v142h207v127H344v230c-7 84 127 45 199 54L567 0H386C271 0 204-44 204-156v-259H43" id="ah"/><path fill="#4cf66e" d="M78 0v-131h202v-424H98v-129h322v553h172V0H78" id="ai"/><g id="e"><use transform="matrix(0.01577777777777778,0,0,0.01577777777777778,0,0)" xlink:href="#ac"/><use transform="matrix(0.01577777777777778,0,0,0.01577777777777778,10.255555555555556,0)" xlink:href="#ad"/><use transform="matrix(0.01577777777777778,0,0,0.01577777777777778,20.511111111111113,0)" xlink:href="#ae"/><use transform="matrix(0.01577777777777778,0,0,0.01577777777777778,30.76666666666667,0)" xlink:href="#af"/><use transform="matrix(0.01577777777777778,0,0,0.01577777777777778,41.022222222222226,0)" xlink:href="#ag"/><use transform="matrix(0.01577777777777778,0,0,0.01577777777777778,51.277777777777786,0)" xlink:href="#ah"/><use transform="matrix(0.01577777777777778,0,0,0.01577777777777778,61.533333333333346,0)" xlink:href="#ai"/></g><path fill="#4cf66e" d="M421-542h140V82c0 111-77 158-192 158H250C130 240 63 191 68 73l141-36c-3 51 6 80 61 78 63-2 151 17 151-54V-46h-3C395-8 306 0 224 0 124 0 68-51 68-163v-216c-1-137 83-163 221-163 66 0 108 21 129 47h3v-47zM209-206c-5 73 46 75 117 75 51 0 95-25 95-82v-118c-2-75-66-82-143-82-99 0-63 123-69 207" id="aj"/><g id="f"><use transform="matrix(0.01577777777777778,0,0,0.01577777777777778,0,0)" xlink:href="#aj"/><use transform="matrix(0.01577777777777778,0,0,0.01577777777777778,10.255555555555556,0)" xlink:href="#af"/><use transform="matrix(0.01577777777777778,0,0,0.01577777777777778,20.511111111111113,0)" xlink:href="#ah"/></g><path fill="#4cf66e" d="M229-542v47h3c23-40 112-47 194-47 98 0 155 52 155 163v216C582-25 498 0 360 0c-65 0-107-21-128-46h-3v257H88v-753h141zm0 329c2 75 65 82 142 82 99 0 64-122 70-207 5-72-47-75-118-75-50 0-94 25-94 82v118" id="ak"/><path fill="#4cf66e" d="M386 0H264C149 0 82-47 82-158v-226c0-111 67-158 182-158h122c115 0 182 47 182 158v226C568-47 501 0 386 0zM222-185c-10 69 83 54 145 54 45 0 61-17 61-55v-173c10-69-83-54-145-54-45 0-61 17-61 54v174" id="al"/><path fill="#4cf66e" d="M411-331c-2-75-66-82-143-82-99 0-63 123-69 207-5 73 46 75 117 75 51 0 95-25 95-82v-118zm0 331v-46h-3C385-8 296 0 214 0 114 0 58-51 58-163v-216c-1-137 83-163 221-163 66 0 108 21 129 47h3v-189h140V0H411" id="am"/><path fill="#4cf66e" d="M228-180c-1 44-3 64 58 64 53 0 145 14 135-44 2-45-6-61-69-62h-85c-136 1-172-49-172-172 0-149 137-152 288-148 135 4 173 52 171 138l-133 34c1-41 0-58-57-58s-136-21-136 53c0 31 15 43 70 43h77c136 0 179 58 179 184C554 1 418 5 267 0 125-4 91-54 95-150" id="an"/><g id="g"><use transform="matrix(0.01577777777777778,0,0,0.01577777777777778,0,0)" xlink:href="#ak"/><use transform="matrix(0.01577777777777778,0,0,0.01577777777777778,10.255555555555556,0)" xlink:href="#al"/><use transform="matrix(0.01577777777777778,0,0,0.01577777777777778,20.511111111111113,0)" xlink:href="#am"/><use transform="matrix(0.01577777777777778,0,0,0.01577777777777778,30.76666666666667,0)" xlink:href="#an"/></g><path fill="#333" d="M395-1486V0H148v-1486h247" id="ao"/><path fill="#333" d="M395-1026V0H148v-1026h247zm-123-457c96 0 160 62 160 158 0 94-65 155-160 155-93 0-156-62-156-155 0-95 61-158 156-158" id="ap"/><path fill="#333" d="M928-153C839-49 712 15 524 15c-227 0-358-131-424-305-47-123-49-306-4-434 67-190 213-318 465-318 165 0 270 58 357 143-29 37-52 81-86 112-71 26-104-41-170-55-24-5-52-12-86-12-192 5-260 143-260 339 0 194 67 336 254 342 98 3 148-38 200-79 26-20 67-17 87 9" id="aq"/><path fill="#333" d="M991-153C899-47 760 15 568 15 237 15 63-197 63-535c0-237 116-392 287-467 61-27 129-40 206-40 287 0 444 174 444 465 0 54-3 95-57 95H309c4 226 158 349 385 292 52-13 93-39 132-62 32-19 73-16 93 9zM778-631c-4-143-73-234-217-234-154 0-226 95-247 234h464" id="ar"/><g id="h"><use transform="matrix(0.008888888888888889,0,0,0.008888888888888889,0,0)" xlink:href="#V"/><use transform="matrix(0.008888888888888889,0,0,0.008888888888888889,12.622222222222222,0)" xlink:href="#ao"/><use transform="matrix(0.008888888888888889,0,0,0.008888888888888889,17.439999999999998,0)" xlink:href="#ap"/><use transform="matrix(0.008888888888888889,0,0,0.008888888888888889,22.257777777777775,0)" xlink:href="#aq"/><use transform="matrix(0.008888888888888889,0,0,0.008888888888888889,30.73777777777778,0)" xlink:href="#ar"/></g><filter id="i" filterUnits="objectBoundingBox" x="-.11" y="-.12" width="1.25" height="1.38"><feOffset result="offOut" in="SourceAlpha" dx="2.05" dy="5.64"/><feGaussianBlur result="blurOut" in="offOut" stdDeviation="7.5"/><feColorMatrix result="colorOut" in="blurOut" values="0 0 0 0 0 0 0 0 0 0 0 0 0 0 0 0 0 0 0.14901960784313725 0"/><feBlend in="SourceGraphic" in2="colorOut"/></filter><linearGradient gradientUnits="userSpaceOnUse" id="j" x1="1310.02" y1="195.75" x2="1024.27" y2="148.99"><stop offset="0%" stop-color="#354aaa"/><stop offset="0%" stop-color="#8e24aa"/><stop offset="100%" stop-color="#354aa4"/><stop offset="51.68%" stop-color="#651f9b"/></linearGradient><path fill="#fff" d="M658-693c-96 114-188 214-293 319C485-274 586-142 674 0H489c-68-108-155-214-253-293V0H80v-693h156v262c77-80 164-181 237-262h185" id="as"/><path fill="#fff" d="M637-262C634-80 536 14 351 14 168 14 70-82 70-262v-431h156v418c1 94 35 154 127 154 87 0 128-54 128-154v-418h156v431" id="at"/><path fill="#fff" d="M627-210C627-44 495 9 311 9 226 8 155 6 80-11v-672c205-29 514-53 513 177 0 55-27 99-80 131 77 27 114 76 114 165zm-158-3c0-105-130-88-237-89v179c101 7 237 15 237-90zm-27-286c0-91-122-76-210-73v151c97-2 210 14 210-78" id="au"/><path fill="#fff" d="M80 0v-693h468v131H236v136h277v128H236v167h335V0H80" id="av"/><path fill="#fff" d="M80-683c59-12 137-18 203-18 187 1 322 54 322 228 0 106-52 157-130 190 65 83 124 182 172 283H472c-49-87-99-179-159-253h-77V0H80v-683zm364 209c1-96-110-98-208-91v188c111-1 207 3 208-97" id="aw"/><path fill="#fff" d="M545 0c-90-159-195-319-311-454V0H80v-693h127c114 118 220 269 314 409v-409h155V0H545" id="ax"/><path fill="#fff" d="M594-693v133H385V0H229v-560H20v-133h574" id="ay"/><path fill="#fff" d="M81-163c48 25 108 46 188 44 62-1 111-12 112-72 0-23-11-42-32-57-53-39-186-63-239-114-33-32-63-73-61-139 5-145 106-205 255-208 84-2 154 22 205 48l-45 123c-41-20-85-38-150-38-76 0-124 32-96 95 68 68 209 75 272 145 33 36 48 78 52 146C554 42 206 52 37-39" id="az"/><g id="k"><use transform="matrix(0.018,0,0,0.018,0,0)" xlink:href="#as"/><use transform="matrix(0.018,0,0,0.018,12.312,0)" xlink:href="#at"/><use transform="matrix(0.018,0,0,0.018,25.037999999999997,0)" xlink:href="#au"/><use transform="matrix(0.018,0,0,0.018,37.134,0)" xlink:href="#av"/><use transform="matrix(0.018,0,0,0.018,48.041999999999994,0)" xlink:href="#aw"/><use transform="matrix(0.018,0,0,0.018,60.047999999999995,0)" xlink:href="#ax"/><use transform="matrix(0.018,0,0,0.018,73.65599999999999,0)" xlink:href="#av"/><use transform="matrix(0.018,0,0,0.018,84.564,0)" xlink:href="#ay"/><use transform="matrix(0.018,0,0,0.018,95.616,0)" xlink:href="#av"/><use transform="matrix(0.018,0,0,0.018,106.52399999999999,0)" xlink:href="#az"/></g><linearGradient gradientUnits="userSpaceOnUse" id="l" x1="1310.02" y1="82.21" x2="1093.77" y2="132.72"><stop offset="0%" stop-color="#354aaa"/><stop offset="0%" stop-color="#651fff"/><stop offset="100%" stop-color="#4c00f0"/></linearGradient><path fill="#fff" d="M543-134V0H80v-693h156v559h307" id="aA"/><path fill="#fff" d="M80-683c58-12 143-18 208-18 190 0 321 53 321 233 0 198-160 242-373 236V0H80v-683zm368 214c0-104-112-104-212-96v200c112 0 212 3 212-104" id="aB"/><path fill="#fff" d="M395-572c-128 0-184 94-184 225s55 224 184 224c128 0 184-93 184-224s-55-225-184-225zm0-137c221 0 345 136 345 362 0 227-122 361-345 361C174 14 50-121 50-347c0-224 126-362 345-362" id="aC"/><g id="m"><use transform="matrix(0.018,0,0,0.018,0,0)" xlink:href="#ay"/><use transform="matrix(0.018,0,0,0.018,11.052,0)" xlink:href="#av"/><use transform="matrix(0.018,0,0,0.018,21.96,0)" xlink:href="#aA"/><use transform="matrix(0.018,0,0,0.018,32.094,0)" xlink:href="#av"/><use transform="matrix(0.018,0,0,0.018,43.002,0)" xlink:href="#aB"/><use transform="matrix(0.018,0,0,0.018,54.594,0)" xlink:href="#aC"/><use transform="matrix(0.018,0,0,0.018,68.814,0)" xlink:href="#aw"/><use transform="matrix(0.018,0,0,0.018,80.64,0)" xlink:href="#ay"/></g><path fill="#fff" d="M10 0c86-246 171-474 276-693h149C539-473 626-245 711 0H544c-15-49-35-101-51-150H223c-16 49-36 101-51 150H10zm347-536c-31 85-67 173-98 262h197c-31-90-66-177-99-262" id="aD"/><path fill="#fff" d="M582-531c-42-22-99-42-164-42-145 0-204 86-206 226-2 164 95 253 269 222v-241h156v343C578-2 489 15 394 13 170 7 50-120 50-347c0-253 168-390 436-355 57 7 103 23 141 46" id="aE"/><g id="n"><use transform="matrix(0.018,0,0,0.018,0,0)" xlink:href="#aD"/><use transform="matrix(0.018,0,0,0.018,12.528,0)" xlink:href="#aE"/><use transform="matrix(0.018,0,0,0.018,25.164,0)" xlink:href="#av"/><use transform="matrix(0.018,0,0,0.018,36.072,0)" xlink:href="#ax"/><use transform="matrix(0.018,0,0,0.018,49.68,0)" xlink:href="#ay"/></g><path d="M1058-1446v214H417v401h505v207H417v409h641V0H146v-1446h912" id="aF"/><path d="M605-850c-102 1-168 52-226 108V0H132v-1026c80 9 198-29 214 45l17 81c77-76 165-142 317-142 235 0 346 154 346 389V0H779v-653c0-121-55-198-174-197" id="aG"/><path d="M928-153C839-49 712 15 524 15c-227 0-358-131-424-305-47-123-49-306-4-434 67-190 213-318 465-318 165 0 270 58 357 143-29 37-52 81-86 112-71 26-104-41-170-55-24-5-52-12-86-12-192 5-260 143-260 339 0 194 67 336 254 342 98 3 148-38 200-79 26-20 67-17 87 9" id="aH"/><path d="M604-806c-122 5-180 74-225 167V0H132v-1026c83 11 206-35 218 62l15 124c63-106 147-205 295-205 51 0 93 12 126 35l-32 185c-4 23-15 33-40 33-33 0-65-16-110-14" id="aI"/><path d="M496 282c-21 85-170 43-266 53L422-76 7-1026h216c39-1 60 21 70 46 80 195 164 386 238 586 7 18 10 37 14 56 74-221 164-427 244-642 9-24 36-46 68-46h198" id="aJ"/><path d="M635 15C514 15 442-25 379-85v420H132v-1361c64 5 145-11 192 11 33 24 28 86 42 129 78-86 174-159 331-159 277 0 379 232 379 524 0 241-96 412-258 495-54 27-116 41-183 41zm186-536c0-181-37-329-209-329-117 0-175 55-233 124v460c48 60 104 93 198 93 188 0 244-152 244-348" id="aK"/><path d="M738-75c-64 55-158 90-269 91-176 2-277-109-277-284v-573c-65-4-153 21-153-52v-98l165-27 52-280c10-66 115-35 183-42v323h270v176H439v556c-1 59 32 101 88 102 48 1 68-25 104-34 19 1 25 9 33 22" id="aL"/><path d="M991-153C899-47 760 15 568 15 237 15 63-197 63-535c0-237 116-392 287-467 61-27 129-40 206-40 287 0 444 174 444 465 0 54-3 95-57 95H309c4 226 158 349 385 292 52-13 93-39 132-62 32-19 73-16 93 9zM778-631c-4-143-73-234-217-234-154 0-226 95-247 234h464" id="aM"/><path d="M502-1045c120-1 193 43 256 101v-542h247V0c-80-9-199 29-214-45l-20-99C693-58 601 15 441 15 163 15 61-217 61-510c0-241 98-411 259-494 54-27 115-41 182-41zM316-510c0 181 36 329 209 329 118 0 173-54 233-123v-460c-48-59-104-93-198-93-188 0-244 151-244 347" id="aN"/><g id="o"><use transform="matrix(0.009,0,0,0.009,0,0)" xlink:href="#aF"/><use transform="matrix(0.009,0,0,0.009,10.305,0)" xlink:href="#aG"/><use transform="matrix(0.009,0,0,0.009,20.537999999999997,0)" xlink:href="#aH"/><use transform="matrix(0.009,0,0,0.009,29.123999999999995,0)" xlink:href="#aI"/><use transform="matrix(0.009,0,0,0.009,36.477,0)" xlink:href="#aJ"/><use transform="matrix(0.009,0,0,0.009,46.08,0)" xlink:href="#aK"/><use transform="matrix(0.009,0,0,0.009,56.25900000000001,0)" xlink:href="#aL"/><use transform="matrix(0.009,0,0,0.009,63.225,0)" xlink:href="#aM"/><use transform="matrix(0.009,0,0,0.009,72.846,0)" xlink:href="#aN"/></g><path d="M457 16c-234 0-346-155-346-390v-652h247v652c0 121 55 198 174 197 102-1 168-51 226-107v-742h247V0c-80-9-199 29-214-45l-17-82C697-50 608 16 457 16" id="aO"/><path d="M395-1486V0H148v-1486h247" id="aP"/><g id="p"><use transform="matrix(0.009,0,0,0.009,0,0)" xlink:href="#aL"/><use transform="matrix(0.009,0,0,0.009,6.965999999999999,0)" xlink:href="#aO"/><use transform="matrix(0.009,0,0,0.009,17.198999999999998,0)" xlink:href="#aG"/><use transform="matrix(0.009,0,0,0.009,27.431999999999995,0)" xlink:href="#aG"/><use transform="matrix(0.009,0,0,0.009,37.66499999999999,0)" xlink:href="#aM"/><use transform="matrix(0.009,0,0,0.009,47.28599999999999,0)" xlink:href="#aP"/></g><g id="q"><use transform="matrix(0.018,0,0,0.018,0,0)" xlink:href="#ay"/><use transform="matrix(0.018,0,0,0.018,11.052,0)" xlink:href="#av"/><use transform="matrix(0.018,0,0,0.018,21.96,0)" xlink:href="#aA"/><use transform="matrix(0.018,0,0,0.018,32.094,0)" xlink:href="#av"/><use transform="matrix(0.018,0,0,0.018,43.002,0)" xlink:href="#aB"/><use transform="matrix(0.018,0,0,0.018,54.594,0)" xlink:href="#aC"/><use transform="matrix(0.018,0,0,0.018,68.814,0)" xlink:href="#aw"/><use transform="matrix(0.018,0,0,0.018,80.64,0)" xlink:href="#ay"/></g><linearGradient gradientUnits="userSpaceOnUse" id="r" x1="644.9" y1="82.21" x2="428.66" y2="132.72"><stop offset="0%" stop-color="#354aaa"/><stop offset="0%" stop-color="#651fff"/><stop offset="100%" stop-color="#4c00f0"/></linearGradient><path fill="#fff" d="M10 0c68-124 147-239 233-359L20-693h189l135 216 132-216h178L434-357C526-240 601-118 665 0H478c-43-84-87-162-143-239C284-171 229-78 188 0H10" id="aQ"/><path fill="#fff" d="M656-693c-77 152-157 287-247 428V0H253v-263C163-403 82-541 5-693h181c44 99 94 193 148 285 54-92 106-186 150-285h172" id="aR"/><g id="s"><use transform="matrix(0.018,0,0,0.018,0,0)" xlink:href="#aB"/><use transform="matrix(0.018,0,0,0.018,11.591999999999999,0)" xlink:href="#aw"/><use transform="matrix(0.018,0,0,0.018,23.273999999999997,0)" xlink:href="#aC"/><use transform="matrix(0.018,0,0,0.018,36.809999999999995,0)" xlink:href="#aQ"/><use transform="matrix(0.018,0,0,0.018,49.553999999999995,0)" xlink:href="#aR"/></g><path fill="#512fc9" d="M23 0v-37h61v-169l-59 37v-38l62-41h46v211h57V0H23" id="aS"/><path fill="#512fc9" d="M24 0v-54h51V0H24" id="aT"/><g id="t"><use transform="matrix(0.05,0,0,0.05,0,0)" xlink:href="#aS"/><use transform="matrix(0.05,0,0,0.05,10,0)" xlink:href="#aT"/></g><path fill="#512fc9" d="M1353 0h-150c-36 0-55-21-66-46l-134-346H360L226-46c-9 23-33 46-66 46H10l573-1433h197zM414-532h535l-225-583c-15-36-29-81-43-135-13 48-26 95-42 136" id="aU"/><path fill="#512fc9" d="M344-1473V0H166v-1473h178" id="aV"/><path fill="#512fc9" d="M344-1013V0H166v-1013h178zm-88-446c77 0 128 52 128 128 0 75-52 126-128 126-75 0-126-51-126-126 0-76 50-128 126-128" id="aW"/><path fill="#512fc9" d="M895-142C799-8 539 62 344-21 173-94 74-262 74-507c0-317 160-522 477-522 151 0 254 54 333 132-21 26-39 58-63 81-42 20-68-19-100-34-42-20-91-42-160-40-219 6-304 160-304 383 0 220 82 376 295 383 106 4 169-38 223-84 22-19 53-21 70 1" id="aX"/><path fill="#512fc9" d="M954-142C850-8 572 61 364-22 180-96 74-268 74-527c0-234 108-389 275-463 59-26 125-39 198-39 273 0 420 174 420 453 0 48-2 70-43 70H250c8 226 98 375 322 380 114 2 191-38 258-82 70-46 94 37 124 66zM807-617c-5-171-86-278-256-281-181-3-273 116-295 281h551" id="aY"/><g id="u"><use transform="matrix(0.009,0,0,0.009,0,0)" xlink:href="#aU"/><use transform="matrix(0.009,0,0,0.009,12.239999999999998,0)" xlink:href="#aV"/><use transform="matrix(0.009,0,0,0.009,16.848,0)" xlink:href="#aW"/><use transform="matrix(0.009,0,0,0.009,21.456,0)" xlink:href="#aX"/><use transform="matrix(0.009,0,0,0.009,29.862,0)" xlink:href="#aY"/></g><path fill="#512fc9" d="M461 16c-231 0-339-149-339-383v-646h178v646c0 148 67 243 213 241 125-2 207-66 274-140v-747h178V0c-60-6-146 22-154-37l-14-109C716-60 619 16 461 16" id="aZ"/><path fill="#512fc9" d="M409-112c121-3 207-52 207-167 0-134-157-142-264-181-133-48-263-98-263-275 0-197 153-290 360-294 139-3 243 49 317 118-26 35-46 114-111 76-53-31-114-63-202-61-108 3-195 44-195 147 0 129 158 136 262 175 128 48 263 93 263 264C783-89 627 12 400 16 255 19 139-39 62-107c27-41 57-128 128-81 57 38 118 78 219 76" id="ba"/><g id="v"><use transform="matrix(0.009,0,0,0.009,0,0)" xlink:href="#aZ"/><use transform="matrix(0.009,0,0,0.009,10.008,0)" xlink:href="#ba"/><use transform="matrix(0.009,0,0,0.009,17.82,0)" xlink:href="#aY"/><use transform="matrix(0.009,0,0,0.009,27.252,0)" xlink:href="#ba"/></g><path fill="#512fc9" d="M331-1473v867c49 0 82 0 108-28l320-343c20-19 33-36 70-36h162C858-871 723-729 590-586c-9 9-19 16-30 23 25 17 41 39 60 63L1016 0c-81-8-184 18-227-35L456-450c-21-27-31-33-75-34h-50V0H152v-1473h179" id="bb"/><path fill="#512fc9" d="M608 14c-142 0-221-61-286-144-9 50 6 130-55 130H152v-1473h179v606c78-87 176-162 331-162 283 0 384 222 384 516 0 237-93 406-254 487-54 27-116 40-184 40zm254-527c-2-212-53-374-258-374-136 0-207 69-273 153v490c56 77 120 120 237 120 208 0 296-164 294-389" id="bc"/><path fill="#512fc9" d="M698-76c-54 52-145 92-245 92-162 1-249-96-249-260v-620c-58-9-160 26-160-39v-71l166-21 41-313c4-50 80-30 131-34v349h290v129H382v608c-2 78 40 125 111 126 60 2 88-33 128-48 9 0 18 6 25 17" id="bd"/><g id="w"><use transform="matrix(0.009,0,0,0.009,0,0)" xlink:href="#bb"/><use transform="matrix(0.009,0,0,0.009,9.431999999999999,0)" xlink:href="#aZ"/><use transform="matrix(0.009,0,0,0.009,19.439999999999998,0)" xlink:href="#bc"/><use transform="matrix(0.009,0,0,0.009,29.501999999999995,0)" xlink:href="#aY"/><use transform="matrix(0.009,0,0,0.009,38.934,0)" xlink:href="#aX"/><use transform="matrix(0.009,0,0,0.009,47.339999999999996,0)" xlink:href="#bd"/><use transform="matrix(0.009,0,0,0.009,54.053999999999995,0)" xlink:href="#aV"/></g><path fill="#512fc9" d="M409 293C214 8 88-383 149-866c35-276 133-488 260-685 32 22 70 38 97 65 12 17 8 37-3 57-126 218-214 479-214 800s87 582 214 800c15 26 10 65-15 74" id="be"/><path fill="#512fc9" d="M584-856c-148 6-210 94-260 211V0H146v-1013c62 7 151-25 157 49l12 158c66-138 184-259 384-216 23 5 44 16 63 27l-23 133c-5 17-15 25-31 25-36 0-71-21-124-19" id="bf"/><path fill="#512fc9" d="M598-887c-125 2-207 68-274 141V0H146v-1013c60 6 147-22 154 37l14 110c82-87 177-163 336-163 232 0 339 151 339 384V0H811v-645c0-149-65-244-213-242" id="bg"/><path fill="#512fc9" d="M178-1551c194 286 322 675 260 1159-35 275-132 490-260 685-32-22-72-36-97-64-13-15-6-42 3-58C209-48 298-307 298-629c0-321-92-580-214-800-41-75 58-89 94-122" id="bh"/><g id="x"><use transform="matrix(0.009,0,0,0.009,0,0)" xlink:href="#be"/><use transform="matrix(0.009,0,0,0.009,5.3999999999999995,0)" xlink:href="#bb"/><use transform="matrix(0.009,0,0,0.009,14.831999999999997,0)" xlink:href="#aZ"/><use transform="matrix(0.009,0,0,0.009,24.84,0)" xlink:href="#bc"/><use transform="matrix(0.009,0,0,0.009,34.901999999999994,0)" xlink:href="#aY"/><use transform="matrix(0.009,0,0,0.009,44.33399999999999,0)" xlink:href="#bf"/><use transform="matrix(0.009,0,0,0.009,51.58799999999999,0)" xlink:href="#bg"/><use transform="matrix(0.009,0,0,0.009,61.59599999999999,0)" xlink:href="#aY"/><use transform="matrix(0.009,0,0,0.009,71.02799999999999,0)" xlink:href="#bd"/><use transform="matrix(0.009,0,0,0.009,77.74199999999999,0)" xlink:href="#aY"/><use transform="matrix(0.009,0,0,0.009,87.17399999999999,0)" xlink:href="#ba"/><use transform="matrix(0.009,0,0,0.009,94.98599999999999,0)" xlink:href="#bh"/></g><path fill="#512fc9" d="M537-1031c235 0 353 147 353 383V0c-58-5-129 17-142-42l-20-94C637-55 545 19 375 16 200 13 92-76 92-253c0-184 160-243 332-285 79-19 176-28 291-31 12-184-31-318-200-318-113 0-181 45-243 91-36 26-82 14-99-17l-32-57c101-96 215-161 396-161zM263-261c0 103 62 152 165 152 140 0 216-64 287-136v-211c-141 4-258 19-349 60-60 27-103 62-103 135" id="bi"/><g id="y"><use transform="matrix(0.009,0,0,0.009,0,0)" xlink:href="#bi"/><use transform="matrix(0.009,0,0,0.009,9.126,0)" xlink:href="#ba"/></g><path fill="#512fc9" d="M212 15C136 15 88-34 88-110s48-126 124-126 125 50 125 126c0 77-49 125-125 125" id="bj"/><g id="z"><use transform="matrix(0.009,0,0,0.009,0,0)" xlink:href="#aZ"/><use transform="matrix(0.009,0,0,0.009,10.008,0)" xlink:href="#ba"/><use transform="matrix(0.009,0,0,0.009,17.82,0)" xlink:href="#aZ"/><use transform="matrix(0.009,0,0,0.009,27.828,0)" xlink:href="#bi"/><use transform="matrix(0.009,0,0,0.009,36.954,0)" xlink:href="#aV"/><use transform="matrix(0.009,0,0,0.009,41.562,0)" xlink:href="#bj"/></g><path fill="#512fc9" d="M1150-1433v163H687V0H493v-1270H28v-163h1122" id="bk"/><path fill="#512fc9" d="M602 14c-133 0-212-47-278-119v448H146v-1356c60 6 147-22 154 37l15 120c80-93 179-175 341-175 282 0 383 224 383 518 0 237-92 406-253 487-54 27-116 40-184 40zm253-527c-3-212-53-374-258-374-136 0-207 69-273 153v490c57 77 121 120 238 120 207 0 295-164 293-389" id="bl"/><path fill="#512fc9" d="M1038-507c0 321-164 521-482 521S72-187 72-507c0-248 107-410 284-485 60-25 126-37 200-37 317 0 482 201 482 522zm-782 1c0 225 80 381 300 381 213 0 298-159 298-381 0-223-84-383-298-383-221 0-300 158-300 383" id="bm"/><g id="A"><use transform="matrix(0.009,0,0,0.009,0,0)" xlink:href="#bk"/><use transform="matrix(0.009,0,0,0.009,8.729999999999999,0)" xlink:href="#aY"/><use transform="matrix(0.009,0,0,0.009,18.162,0)" xlink:href="#aV"/><use transform="matrix(0.009,0,0,0.009,22.77,0)" xlink:href="#aY"/><use transform="matrix(0.009,0,0,0.009,32.202,0)" xlink:href="#bl"/><use transform="matrix(0.009,0,0,0.009,42.138,0)" xlink:href="#bm"/><use transform="matrix(0.009,0,0,0.009,52.146,0)" xlink:href="#bf"/><use transform="matrix(0.009,0,0,0.009,59.4,0)" xlink:href="#bd"/></g><path fill="#512fc9" d="M594-1317c-165 0-237 72-235 231v93h293v129H365V0H186v-861c-49-9-113-4-146-29-24-17-10-67-14-103h160v-98c5-229 120-363 348-363 45 0 87 7 126 20l-4 89c-2 31-28 28-62 28" id="bn"/><path fill="#512fc9" d="M103-704c0-220 160-326 384-326 92 0 169 21 228 57h275c-2 53 13 100-42 108l-115 16c43 79 45 196 5 279-58 120-176 191-351 193-47 0-92-6-134-17-50 22-100 108-36 142 165 88 511-13 621 164 40 65 36 170-4 240-77 134-229 213-441 213-193 0-343-50-415-167-19-32-28-66-28-101 3-117 84-175 178-211-54-27-98-64-94-143 4-90 64-137 129-173-91-51-160-139-160-274zM334-85C254-53 162 38 224 138c97 157 586 133 579-83C799-63 659-58 543-68c-70-6-146-6-209-17zm-67-614c0 134 84 204 220 204 137 0 221-69 221-204 0-129-85-203-221-203-135 0-220 74-220 203" id="bo"/><g id="B"><use transform="matrix(0.009,0,0,0.009,0,0)" xlink:href="#aX"/><use transform="matrix(0.009,0,0,0.009,8.405999999999999,0)" xlink:href="#bm"/><use transform="matrix(0.009,0,0,0.009,18.413999999999998,0)" xlink:href="#bg"/><use transform="matrix(0.009,0,0,0.009,28.421999999999997,0)" xlink:href="#bn"/><use transform="matrix(0.009,0,0,0.009,34.488,0)" xlink:href="#aW"/><use transform="matrix(0.009,0,0,0.009,39.096,0)" xlink:href="#bo"/><use transform="matrix(0.009,0,0,0.009,48.294,0)" xlink:href="#aZ"/><use transform="matrix(0.009,0,0,0.009,58.30199999999999,0)" xlink:href="#bf"/><use transform="matrix(0.009,0,0,0.009,65.556,0)" xlink:href="#aY"/><use transform="matrix(0.009,0,0,0.009,74.988,0)" xlink:href="#ba"/></g><g id="C"><use transform="matrix(0.009,0,0,0.009,0,0)" xlink:href="#bd"/><use transform="matrix(0.009,0,0,0.009,6.7139999999999995,0)" xlink:href="#bm"/></g><g id="D"><use transform="matrix(0.009,0,0,0.009,0,0)" xlink:href="#aZ"/><use transform="matrix(0.009,0,0,0.009,10.008,0)" xlink:href="#ba"/><use transform="matrix(0.009,0,0,0.009,17.82,0)" xlink:href="#aY"/></g><path fill="#512fc9" d="M550-887c-107 0-172 65-226 132V0H146v-1013c60 6 147-22 154 37l13 104c69-80 148-156 287-157 148-1 223 92 258 211 51-126 153-211 323-211 232 0 338 149 338 384V0h-178v-645c1-148-62-242-203-242-142 0-218 94-218 242V0H742v-645c1-149-54-242-192-242" id="bp"/><path fill="#512fc9" d="M368-163h620V0H174v-1433h194v1270" id="bq"/><path fill="#512fc9" d="M513-145c178-4 292-88 292-262 0-193-194-213-343-263-182-61-347-142-342-385 4-188 111-303 254-361 117-48 292-41 408 5 66 26 124 62 173 110-22 37-36 86-66 115-51 25-83-28-123-48-53-26-114-56-200-54-157 4-266 71-266 223 0 186 200 204 344 258 175 65 343 135 343 372 0 289-185 446-480 451-198 4-349-81-449-187 26-36 42-83 76-111 60-25 93 39 140 65 62 34 135 75 239 72" id="br"/><g id="E"><use transform="matrix(0.009,0,0,0.009,0,0)" xlink:href="#bp"/><use transform="matrix(0.009,0,0,0.009,14.777999999999999,0)" xlink:href="#bk"/><use transform="matrix(0.009,0,0,0.009,25.398,0)" xlink:href="#bq"/><use transform="matrix(0.009,0,0,0.009,34.64999999999999,0)" xlink:href="#br"/></g><g id="F"><use transform="matrix(0.009,0,0,0.009,0,0)" xlink:href="#aX"/><use transform="matrix(0.009,0,0,0.009,8.405999999999999,0)" xlink:href="#bm"/><use transform="matrix(0.009,0,0,0.009,18.413999999999998,0)" xlink:href="#bg"/><use transform="matrix(0.009,0,0,0.009,28.421999999999997,0)" xlink:href="#bg"/><use transform="matrix(0.009,0,0,0.009,38.429999999999986,0)" xlink:href="#aY"/><use transform="matrix(0.009,0,0,0.009,47.861999999999995,0)" xlink:href="#aX"/><use transform="matrix(0.009,0,0,0.009,56.267999999999994,0)" xlink:href="#bd"/><use transform="matrix(0.009,0,0,0.009,62.98199999999999,0)" xlink:href="#aW"/><use transform="matrix(0.009,0,0,0.009,67.58999999999999,0)" xlink:href="#bm"/><use transform="matrix(0.009,0,0,0.009,77.59799999999998,0)" xlink:href="#bg"/></g><g id="G"><use transform="matrix(0.009,0,0,0.009,0,0)" xlink:href="#bd"/><use transform="matrix(0.009,0,0,0.009,6.7139999999999995,0)" xlink:href="#bm"/></g><path fill="#512fc9" d="M383-519L42-1013h171c30 0 38 9 50 27l248 380c6-19 14-38 26-56l218-320c12-15 21-30 45-31h164L623-529 978 0H807c-30 1-44-19-55-37L497-434c-5 19-11 37-21 52L240-37c-13 16-24 37-53 37H28" id="bs"/><path fill="#512fc9" d="M443 299c-13 26-25 44-64 44H247L432-59 14-1013h154c30-1 46 18 55 37 95 228 197 450 287 682 6 14 8 30 11 45 10-32 18-60 30-90l263-637c18-60 124-30 194-37" id="bt"/><g id="H"><use transform="matrix(0.009,0,0,0.009,0,0)" xlink:href="#bl"/><use transform="matrix(0.009,0,0,0.009,9.936,0)" xlink:href="#bf"/><use transform="matrix(0.009,0,0,0.009,17.189999999999998,0)" xlink:href="#bm"/><use transform="matrix(0.009,0,0,0.009,26.657999999999998,0)" xlink:href="#bs"/><use transform="matrix(0.009,0,0,0.009,35.73,0)" xlink:href="#bt"/><use transform="matrix(0.009,0,0,0.009,43.757999999999996,0)" xlink:href="#bj"/></g><path fill="#512fc9" d="M182-182c0 78-84 86-111 141h115V0H12c-6-101 99-100 120-180 1-22-12-31-33-32-23 0-32 14-35 34l-49-3c5-45 32-70 84-70 51 0 83 22 83 69" id="bu"/><g id="I"><use transform="matrix(0.05,0,0,0.05,0,0)" xlink:href="#bu"/><use transform="matrix(0.05,0,0,0.05,10,0)" xlink:href="#aT"/></g><path fill="#512fc9" d="M617-1433c323 3 534 130 534 444 0 310-216 446-534 453H387V0H194v-1433h423zm340 444c0-197-128-291-340-291H387v590h230c207-4 340-97 340-299" id="bv"/><g id="J"><use transform="matrix(0.009,0,0,0.009,0,0)" xlink:href="#bv"/><use transform="matrix(0.009,0,0,0.009,10.998,0)" xlink:href="#bf"/><use transform="matrix(0.009,0,0,0.009,18.252,0)" xlink:href="#bm"/><use transform="matrix(0.009,0,0,0.009,27.72,0)" xlink:href="#bs"/><use transform="matrix(0.009,0,0,0.009,36.792,0)" xlink:href="#bt"/></g><path fill="#512fc9" d="M14-1013c70 8 177-25 195 37l194 652c10 46 20 89 27 137 77-272 174-527 253-793 13-44 73-34 126-35 27-1 44 16 51 35 81 265 173 518 245 792 7-44 18-96 30-136l198-652c15-59 118-30 186-37L1191 0h-141c-17 0-29-11-36-34-79-245-162-486-237-734-5-15-7-31-10-46-7 32-12 65-23 94L517-34C501 26 405-10 342 0" id="bw"/><path fill="#512fc9" d="M510-1031c133 0 210 49 277 120v-562h178V0c-60-6-146 21-154-37l-16-123C716-67 616 14 455 14 173 14 72-209 72-503c0-237 94-406 254-487 54-27 115-41 184-41zM256-503c2 212 53 373 258 373 136 0 207-69 273-153v-490c-57-77-121-119-237-119-208 0-296 164-294 389" id="bx"/><g id="K"><use transform="matrix(0.009,0,0,0.009,0,0)" xlink:href="#bn"/><use transform="matrix(0.009,0,0,0.009,6.066,0)" xlink:href="#bm"/><use transform="matrix(0.009,0,0,0.009,16.073999999999998,0)" xlink:href="#bf"/><use transform="matrix(0.009,0,0,0.009,23.327999999999996,0)" xlink:href="#bw"/><use transform="matrix(0.009,0,0,0.009,37.11599999999999,0)" xlink:href="#bi"/><use transform="matrix(0.009,0,0,0.009,46.24199999999999,0)" xlink:href="#bf"/><use transform="matrix(0.009,0,0,0.009,53.49599999999999,0)" xlink:href="#bx"/><use transform="matrix(0.009,0,0,0.009,63.557999999999986,0)" xlink:href="#ba"/></g><path fill="#512fc9" d="M598-887c-125 2-207 68-274 141V0H146v-1473h178v596c81-82 173-152 326-152 232 0 339 151 339 384V0H811v-645c0-149-65-244-213-242" id="by"/><g id="L"><use transform="matrix(0.009,0,0,0.009,0,0)" xlink:href="#bd"/><use transform="matrix(0.009,0,0,0.009,6.7139999999999995,0)" xlink:href="#by"/><use transform="matrix(0.009,0,0,0.009,16.721999999999998,0)" xlink:href="#aY"/></g><g id="M"><use transform="matrix(0.009,0,0,0.009,0,0)" xlink:href="#bd"/><use transform="matrix(0.009,0,0,0.009,6.7139999999999995,0)" xlink:href="#by"/><use transform="matrix(0.009,0,0,0.009,16.721999999999998,0)" xlink:href="#bf"/><use transform="matrix(0.009,0,0,0.009,23.976,0)" xlink:href="#bm"/><use transform="matrix(0.009,0,0,0.009,33.983999999999995,0)" xlink:href="#aZ"/><use transform="matrix(0.009,0,0,0.009,43.99199999999999,0)" xlink:href="#bo"/><use transform="matrix(0.009,0,0,0.009,53.18999999999999,0)" xlink:href="#by"/></g><path fill="#512fc9" d="M307-1433c0 153 4 312-16 445-6 40-18 68-62 67-40 0-55-30-61-67-22-132-16-292-16-445h155" id="bz"/><g id="N"><use transform="matrix(0.009,0,0,0.009,0,0)" xlink:href="#aU"/><use transform="matrix(0.009,0,0,0.009,12.239999999999998,0)" xlink:href="#bo"/><use transform="matrix(0.009,0,0,0.009,21.437999999999995,0)" xlink:href="#aY"/><use transform="matrix(0.009,0,0,0.009,30.869999999999994,0)" xlink:href="#bg"/><use transform="matrix(0.009,0,0,0.009,40.878,0)" xlink:href="#bd"/><use transform="matrix(0.009,0,0,0.009,47.59199999999999,0)" xlink:href="#bz"/><use transform="matrix(0.009,0,0,0.009,51.732,0)" xlink:href="#ba"/></g><path fill="#512fc9" d="M18-1013h146c28-1 47 18 55 37l257 652c18 45 27 93 37 143 12-50 22-98 40-143l260-652c17-60 123-30 192-37L592 0H431" id="bA"/><g id="O"><use transform="matrix(0.009,0,0,0.009,0,0)" xlink:href="#bf"/><use transform="matrix(0.009,0,0,0.009,7.254,0)" xlink:href="#aY"/><use transform="matrix(0.009,0,0,0.009,16.451999999999998,0)" xlink:href="#bA"/><use transform="matrix(0.009,0,0,0.009,25.433999999999997,0)" xlink:href="#aY"/><use transform="matrix(0.009,0,0,0.009,34.866,0)" xlink:href="#bf"/><use transform="matrix(0.009,0,0,0.009,42.12,0)" xlink:href="#ba"/><use transform="matrix(0.009,0,0,0.009,49.931999999999995,0)" xlink:href="#aY"/></g><g id="P"><use transform="matrix(0.009,0,0,0.009,0,0)" xlink:href="#bd"/><use transform="matrix(0.009,0,0,0.009,6.7139999999999995,0)" xlink:href="#aZ"/><use transform="matrix(0.009,0,0,0.009,16.721999999999998,0)" xlink:href="#bg"/><use transform="matrix(0.009,0,0,0.009,26.729999999999997,0)" xlink:href="#bg"/><use transform="matrix(0.009,0,0,0.009,36.738,0)" xlink:href="#aY"/><use transform="matrix(0.009,0,0,0.009,46.17,0)" xlink:href="#aV"/><use transform="matrix(0.009,0,0,0.009,50.778,0)" xlink:href="#bj"/></g></defs></g></svg>