<svg width="900" height="199" fill="none" xmlns="http://www.w3.org/2000/svg"><path d="M529.1 16.187a4.463 4.463 0 0 1 4.465-4.466h35.727a4.464 4.464 0 0 1 4.465 4.466v133.041a4.466 4.466 0 0 1-4.465 4.466h-35.727a4.466 4.466 0 0 1-4.465-4.466V16.187Z" fill="#fff"/><path fill-rule="evenodd" clip-rule="evenodd" d="M533.565 12.28a3.908 3.908 0 0 0-3.908 3.907v133.041a3.908 3.908 0 0 0 3.908 3.908h35.726a3.908 3.908 0 0 0 3.908-3.908V16.187a3.907 3.907 0 0 0-3.908-3.908h-35.726Zm-3.552.354a5.023 5.023 0 0 1 3.552-1.471h35.726a5.024 5.024 0 0 1 5.024 5.024v133.041a5.024 5.024 0 0 1-5.024 5.024h-35.726a5.024 5.024 0 0 1-5.024-5.024V16.187a5.02 5.02 0 0 1 1.472-3.553Z" fill="#F50057"/><path d="M556.637 76.224a2.855 2.855 0 0 0-.251-.458.57.57 0 0 0-.748-.134c-.245.167-.346.474-.19.742.056.112.112.252.19.363.503 1.061 1.34 3.584 1.396 6.264-.514-1.128-1.318-2.122-2.043-3.015-1.117-1.356-2.049-2.529-1.882-3.796a.494.494 0 0 0-.128-.446.523.523 0 0 0-.419-.201c-1.15 0-2.372.904-3.181 1.646-1.05.966-2.044 2.233-2.814 3.556-.112.207-.223.391-.324.587a30.661 30.661 0 0 1 1.206-5.024.594.594 0 0 0-.056-.542.625.625 0 0 0-.463-.223.577.577 0 0 0-.502.29c-3.383 6.219-4.567 8.792-4.567 13.23 0 2.4.893 4.661 2.568 6.308.837.854 1.853 1.507 3.015 1.982 1.211.468 2.551.725 3.991.725a10.95 10.95 0 0 0 3.98-.725c1.172-.475 2.177-1.128 3.026-1.982 1.663-1.647 2.567-3.908 2.567-6.308 0-4.393-1.189-7.011-4.365-12.84h-.006Zm-9.099 5.08a14.752 14.752 0 0 1 2.585-3.283c.67-.614 1.323-1.038 1.859-1.239.111 1.418 1.088 2.635 2.138 3.919 1.842 2.255 3.584 4.393 1.206 8.021a8.768 8.768 0 0 1-1.859 1.62 6.358 6.358 0 0 0 .631-4.327 6.402 6.402 0 0 0-1.563-2.998c-.849-.876-1.954-1.507-3.227-1.825-.268-.056-.558.073-.648.324a.564.564 0 0 0 .19.697c.726.47 1.094 2.139.726 3.35-.246.837-.748 1.245-1.474 1.245-.134 0-.268 0-.418-.023-.492-.089-.86-.362-1.128-.81-.039-.044-.056-.11-.095-.183-.391-.95-.011-2.613 1.077-4.483v-.005Zm3.891 15.641c-5.554 0-8.446-3.963-8.446-7.882 0-3.087.592-5.192 2.233-8.519-.474 2.77-.335 4.779.369 6.018.446.726 1.071 1.172 1.898 1.329.212.044.418.067.63.067 1.228 0 2.144-.765 2.546-2.05.234-.792.268-1.73.056-2.595a2.338 2.338 0 0 0-.09-.38 5.06 5.06 0 0 1 2.373 3.333c.424 1.932-.318 3.908-1.909 5.153-.212.184-.291.474-.157.725.134.224.408.357.67.268 2.791-.893 4.734-2.54 5.75-4.884.742-1.73.994-3.785.709-6.13 1.317 2.82 1.814 4.824 1.814 7.665 0 3.919-2.891 7.882-8.44 7.882h-.006Z" fill="#F50057"/><path d="M532.453 167.86v1.075h-3.22v2.151h2.718v1.08h-2.718v2.959h-1.362v-7.265h4.582ZM535.036 175.125h-1.356v-7.265h1.356v7.265ZM541.727 169.95c0 1.166-.688 1.769-1.603 2.075.171.095.317.236.442.417l1.819 2.683h-1.216a.556.556 0 0 1-.507-.271l-1.528-2.327c-.12-.17-.211-.241-.492-.241h-.578v2.839h-1.351v-7.265h2.215c1.628.02 2.799.528 2.799 2.09Zm-1.321.101c0-.819-.573-1.151-1.478-1.146h-.864v2.412h.844c.905-.015 1.498-.387 1.498-1.266ZM547.832 167.86v1.075h-3.22v2.015h2.537v1.04h-2.537v2.055h3.22v1.08h-4.582v-7.265h4.582ZM548.328 167.86h1.136c.236 0 .401.126.452.307.437 1.567.909 3.104 1.316 4.697.03.126.05.256.075.397.051-.266.111-.523.191-.749l1.427-4.345a.493.493 0 0 1 .447-.307c.392 0 .744-.02.849.307l1.417 4.345c.075.216.136.452.191.714.045-.246.09-.493.151-.714l1.236-4.345c.045-.166.226-.307.447-.307h1.06l-2.256 7.265h-1.221c-.568-1.804-1.165-3.582-1.713-5.406-.553 1.829-1.156 3.597-1.728 5.406h-1.221M565.31 175.125h-1.045a.464.464 0 0 1-.453-.307l-.542-1.482h-3.01l-.542 1.482a.493.493 0 0 1-.447.307h-1.05l2.853-7.265h1.382l2.854 7.265Zm-4.703-2.743h2.316c-.387-1.096-.819-2.13-1.16-3.271-.332 1.156-.774 2.17-1.156 3.271ZM567.41 174.009h2.909v1.116h-4.26v-7.265h1.351v6.149ZM572.605 174.009h2.909v1.116h-4.26v-7.265h1.351v6.149Z" fill="#333"/><path d="M517.936 23.27a3.346 3.346 0 0 1 3.349-3.349h104.946a3.349 3.349 0 0 1 3.349 3.35v9.277a3.35 3.35 0 0 1-3.349 3.35H521.285a3.349 3.349 0 0 1-3.349-3.35v-9.277Z" fill="#fff"/><g filter="url(#a)"><path d="M14.613 35.239a3.35 3.35 0 0 1 3.35-3.35h64.753a3.35 3.35 0 0 1 3.35 3.35v64.754a3.35 3.35 0 0 1-3.35 3.349H17.963a3.35 3.35 0 0 1-3.35-3.35V35.24Z" fill="#fff"/></g><g filter="url(#b)"><path fill-rule="evenodd" clip-rule="evenodd" d="M17.964 32.448a2.791 2.791 0 0 0-2.79 2.791v64.754a2.793 2.793 0 0 0 2.79 2.791h64.754a2.792 2.792 0 0 0 2.791-2.791V35.239a2.79 2.79 0 0 0-2.791-2.791H17.964Zm-2.763.028a3.907 3.907 0 0 1 2.763-1.145h64.754a3.907 3.907 0 0 1 3.908 3.908v64.754a3.908 3.908 0 0 1-3.908 3.907H17.964a3.907 3.907 0 0 1-3.907-3.907V35.239c0-1.036.411-2.03 1.144-2.763Z" fill="#BECACF"/></g><path d="M43.556 21.705h-1.032a.457.457 0 0 1-.447-.303l-.535-1.463h-2.973l-.536 1.463a.488.488 0 0 1-.441.303h-1.037l2.818-7.175h1.365l2.818 7.175Zm-4.644-2.71h2.287c-.382-1.08-.809-2.103-1.146-3.23-.328 1.142-.764 2.144-1.141 3.23ZM45.63 20.604h2.873v1.101h-4.208V14.53h1.335v6.074ZM50.93 21.705h-1.34V14.53h1.34v7.175ZM58.188 20.668c-.565.695-1.369 1.131-2.605 1.116-1.721-.02-2.743-.903-3.22-2.193-.327-.883-.327-2.099.03-2.957.536-1.295 1.637-2.159 3.414-2.183 1.091-.015 1.86.392 2.421.932l-.446.62c-.08.16-.338.194-.506.06a2.155 2.155 0 0 0-1.48-.476c-1.508.055-2.306.997-2.306 2.53 0 1.196.5 1.99 1.324 2.367.62.288 1.638.194 2.104-.119.209-.084.482-.55.745-.268M63.72 14.53v1.062h-3.18v1.99h2.506v1.027H60.54v2.03h3.18v1.066h-4.525V14.53h4.526Z" fill="#344556"/><path d="M56.52 62.927h-.11c-1.62 1.507-3.718 2.456-6.069 2.456-2.355 0-4.449-.949-6.068-2.456h-.111l-4.951 4.968h22.267l-4.946-4.968h-.011Zm7.275 6.18H36.86c-.736 0-1.239.613-1.239 1.356l1.228 13.62c0 .598.625 1.1 1.245 1.1h24.467c.614 0 1.116-.502 1.24-1.105l1.227-13.62c.151-.743-.463-1.352-1.228-1.352h-.005ZM45.892 79.36c.24.251.24.642 0 .893-.262.251-.614.251-.882 0l-2.472-2.752c-.235-.223-.235-.614 0-.865l2.472-2.713c.268-.257.614-.257.882 0 .24.245.24.603 0 .854l-2.12 2.25 2.12 2.322v.01Zm7.425-4.433-4.952 5.326c-.257.251-.614.251-.876 0a.655.655 0 0 1 0-.893l4.946-5.287c.256-.25.614-.25.876 0 .112.246.235.603 0 .855h.006Zm4.912 2.568-2.445 2.758c-.262.251-.614.251-.882 0a.655.655 0 0 1 0-.893l2.088-2.216-2.088-2.216a.607.607 0 0 1 0-.855c.262-.25.614-.25.882 0l2.445 2.713c.145.257.145.503 0 .726v-.017Z" fill="#697986"/><path d="M46.249 62.927c.262.251.502.39.726.502.156 0 .156.112.279.112.223.134.614.24.848.39.263.101.614.101.882.246h.235c.39 0 .614.112 1.005.112.351 0 .614 0 .97-.112h.263c.235 0 .614-.145.854-.251.235-.145.614-.251.854-.39.151 0 .151-.112.268-.112l.737-.358h.112c1.981-1.356 3.332-3.606 3.332-6.18 0-4.108-3.327-7.424-7.385-7.424a7.425 7.425 0 0 0-7.424 7.425c.123 2.467 1.473 4.689 3.45 6.04h-.006Z" fill="#697986"/><path d="M11.723 125.978a3.349 3.349 0 0 1 3.349-3.349h136.893a3.35 3.35 0 0 1 3.349 3.349v32.935a3.35 3.35 0 0 1-3.349 3.349H15.078a3.346 3.346 0 0 1-3.35-3.349l-.005-32.935Z" fill="url(#c)"/><path d="M22.962 145.819v-.643c-1.03.053-1.717-.396-1.664-1.55l1.242-.317c-.027.458.035.74.537.714.572-.027 1.418.184 1.418-.476 0-.511.035-.872-.537-.872h-1.119c-1.013 0-1.541-.449-1.541-1.436v-.66c.035-1.048.784-1.48 1.664-1.427v-.643h1.11v.643c.987-.053 1.691.379 1.656 1.515l-1.233.317c.026-.449-.044-.713-.537-.696-.573.027-1.418-.185-1.418.476 0 .484 0 .792.537.792h1.11c1.012 0 1.541.441 1.541 1.418v.776c-.027 1.056-.766 1.479-1.656 1.426v.643h-1.11ZM36.992 145.176H35.76v-1.268l-.986-.96-.872.837v1.391h-1.233v-6.024h1.233c.009 1.039-.026 2.131.018 3.144l1.823-1.893h1.656l-1.806 1.717 1.4 1.409v1.647ZM38.516 140.403h1.242v2.959c-.045.643.405.66 1.03.66.45 0 .837-.22.837-.722v-2.897h1.233v4.773h-1.233v-.405h-.027c-.202.335-.986.405-1.708.405-.881 0-1.374-.449-1.374-1.435v-3.338ZM47.526 142.199c.044-.634-.405-.66-1.03-.66-.45 0-.837.22-.837.722v1.039c.017.661.572.722 1.25.722.872 0 .564-1.074.617-1.823Zm-1.867 2.572v.405h-1.233v-6.024h1.233v1.664h.026c.203-.343.987-.413 1.709-.413.872 0 1.365.458 1.365 1.435v1.903c.009 1.215-.722 1.435-1.938 1.435-.58 0-.95-.185-1.136-.405h-.026ZM54.203 141.882v1.321h-2.96c-.008.529-.061.978.538.952.502-.027 1.321.123 1.25-.414v-.221l1.172.221c.14 1.426-1.101 1.435-2.528 1.435-1.013 0-1.603-.414-1.603-1.391v-1.991c0-.977.59-1.391 1.603-1.391h.925c1.013 0 1.603.502 1.603 1.479Zm-2.422-.475c-.634-.009-.529.352-.537.854h1.788c0-.502.079-.854-.538-.854h-.713ZM56.977 142.014v1.533c-.088.59.696.467 1.233.475.529.018.564-.281.538-.766l1.233.353c.061 1.1-.529 1.567-1.603 1.567h-1.03c-1.014 0-1.604-.414-1.604-1.391v-1.991c0-.977.59-1.391 1.603-1.391h1.03c1.11 0 1.683.493 1.604 1.647l-1.233.317c.017-.502.017-.846-.538-.828-.537.017-1.233-.124-1.233.475ZM61.107 141.521v-1.118h1.418v-1.251h1.233v1.251h1.824v1.118h-1.823v2.026c-.062.74 1.118.396 1.752.475l.212 1.154h-1.595c-1.013 0-1.603-.387-1.603-1.374v-2.281h-1.418ZM70.25 139.152v4.87h1.558v1.154h-4.421v-1.154h1.63v-3.734h-1.392v-1.136h2.624ZM81.611 140.403h1.233v5.495c0 .978-.678 1.392-1.69 1.392h-1.049c-1.057 0-1.647-.432-1.603-1.471l1.242-.317c-.026.449.053.705.537.687.555-.017 1.33.15 1.33-.475v-.943h-.026c-.203.335-.986.405-1.709.405-.88 0-1.374-.449-1.374-1.435v-1.903c-.008-1.206.731-1.435 1.947-1.435.581 0 .951.185 1.136.414h.026v-.414Zm-1.867 2.959c-.044.643.405.66 1.03.66.45 0 .837-.22.837-.722v-1.039c-.017-.661-.58-.722-1.26-.722-.871 0-.554 1.083-.607 1.823ZM88.553 141.882v1.321h-2.96c-.008.529-.061.978.537.952.503-.027 1.322.123 1.251-.414v-.221l1.172.221c.14 1.426-1.101 1.435-2.528 1.435-1.013 0-1.603-.414-1.603-1.391v-1.991c0-.977.59-1.391 1.603-1.391h.925c1.013 0 1.603.502 1.603 1.479Zm-2.422-.475c-.635-.009-.529.352-.538.854h1.788c0-.502.08-.854-.537-.854h-.713ZM89.732 141.521v-1.118h1.418v-1.251h1.233v1.251h1.824v1.118h-1.823v2.026c-.062.74 1.118.396 1.752.475l.212 1.154h-1.595c-1.013 0-1.603-.387-1.603-1.374v-2.281h-1.418ZM102.82 140.403v.414h.026c.203-.353.987-.414 1.709-.414.863 0 1.365.458 1.365 1.435v1.903c.009 1.215-.731 1.435-1.946 1.435-.573 0-.943-.185-1.128-.405h-.026v2.264h-1.242v-6.632h1.242Zm0 2.897c.018.661.572.722 1.251.722.872 0 .563-1.074.616-1.823.044-.634-.414-.66-1.039-.66-.44 0-.828.22-.828.722v1.039ZM109.927 145.176h-1.074c-1.013 0-1.603-.414-1.603-1.391v-1.991c0-.977.59-1.391 1.603-1.391h1.074c1.013 0 1.603.414 1.603 1.391v1.991c0 .977-.59 1.391-1.603 1.391Zm-1.444-1.629c-.088.608.731.475 1.277.475.396 0 .537-.149.537-.484v-1.524c.088-.607-.731-.475-1.277-.475-.396 0-.537.149-.537.475v1.533ZM115.873 142.261c-.018-.661-.581-.722-1.26-.722-.872 0-.555 1.083-.607 1.823-.044.643.405.66 1.03.66.449 0 .837-.22.837-.722v-1.039Zm0 2.915v-.405h-.027c-.202.335-.986.405-1.708.405-.881 0-1.374-.449-1.374-1.435v-1.903c-.009-1.206.731-1.435 1.946-1.435.582 0 .951.184 1.136.413h.027v-1.664h1.233v6.024h-1.233ZM119.987 143.591c-.009.387-.027.563.51.563.467 0 1.278.124 1.189-.387.018-.396-.052-.537-.607-.546h-.749c-1.198.009-1.515-.432-1.515-1.515 0-1.312 1.207-1.339 2.537-1.304 1.189.036 1.523.458 1.506 1.216l-1.172.299c.009-.361 0-.51-.502-.51s-1.197-.185-1.197.466c0 .273.132.379.616.379h.678c1.198 0 1.577.511 1.577 1.621 0 1.312-1.198 1.347-2.528 1.303-1.251-.035-1.55-.475-1.515-1.321" fill="#4CF66E"/><path d="M224.842 102.728a3.35 3.35 0 0 1 3.349-3.35h23.111a3.348 3.348 0 0 1 3.349 3.35v19.426a3.35 3.35 0 0 1-3.349 3.349h-23.111a3.345 3.345 0 0 1-3.349-3.349v-19.426Z" fill="#5130C9"/><path d="M237.814 113.698h1.835c.013-1.973-.019-3.984.019-5.926l-1.303 1.09c-.169.188-.583.119-.714-.057l-.489-.67 2.763-2.349h1.271v7.912h1.629v1.159h-5.011v-1.159ZM225.182 125.978a3.345 3.345 0 0 1 3.349-3.349h216.59a3.35 3.35 0 0 1 3.35 3.349v57.86a3.35 3.35 0 0 1-3.35 3.349h-216.59a3.35 3.35 0 0 1-3.349-3.349v-57.86Z" fill="#fff"/><path fill-rule="evenodd" clip-rule="evenodd" d="M228.527 122.065h5.575v1.116h-5.533l-.46.035-.43.103-.408.162-.364.227-.331.293-.292.331-.23.367-.166.402-.103.427-.034.46v6.41h-1.116v-6.452l.044-.59.143-.6.236-.569.328-.526.4-.451.45-.399.529-.331.576-.228.596-.143.59-.044Zm22.216 1.122h-11.109v-1.116h11.109v1.116Zm16.663 0h-11.109v-1.116h11.109v1.116Zm16.663 0H272.96v-1.116h11.109v1.116Zm16.657 0h-11.109v-1.116h11.109v1.116Zm16.657 0h-11.108v-1.116h11.108v1.116Zm16.652 0h-11.097v-1.116h11.097v1.116Zm16.663 0H339.59v-1.116h11.108v1.116Zm16.663 0h-11.109v-1.116h11.109v1.116Zm16.657 0H372.91v-1.116h11.108v1.116Zm16.663 0h-11.108v-1.116h11.108v1.116Zm16.663 0h-11.108v-1.116h11.108v1.116Zm16.658 0h-11.109v-1.116h11.109v1.116Zm11.09 0h-5.536v-1.116h5.584l.594.05.585.15.566.231.52.312.476.397.391.476.324.517.234.574.143.585.051.597v6.454h-1.117v-6.407l-.039-.463-.103-.42-.167-.409-.234-.375-.279-.339-.328-.274-.373-.224-.417-.17-.42-.107-.455-.039Zm-219.341 15.641v12.856h-1.116v-12.856h1.116Zm222.156 12.873v-12.867h1.117v12.867h-1.117Zm-222.156 6.414v12.884h-1.116v-12.884h1.116Zm222.156 12.873v-12.856h1.117v12.856h-1.117Zm0 12.832v-6.413h1.117v6.46l-.051.592-.143.584-.234.574-.325.52-.389.466-.469.404-.525.328-.574.231-.583.13-.586.049h-5.578v-1.116h5.531l.464-.039.421-.094.397-.16.369-.23.335-.289.281-.337.233-.374.167-.408.103-.42.039-.458Zm-222.156.009v-6.411h-1.116v6.452l.044.597.143.586.229.568.325.521.392.47.47.392.516.323.574.244.604.131.584.043h5.569v-1.116h-5.528l-.465-.035-.424-.092-.396-.169-.378-.235-.333-.278-.278-.334-.233-.373-.162-.403-.103-.418-.034-.463Zm13.883 2.8h11.109v1.116h-11.109v-1.116Zm16.663 0h11.114v1.116h-11.114v-1.116Zm16.663 0h11.109v1.116H272.96v-1.116Zm16.669 0h11.108v1.116h-11.108v-1.116Zm16.663 0H317.4v1.116h-11.108v-1.116Zm16.657 0h11.109v1.116h-11.109v-1.116Zm16.663 0h11.109v1.116h-11.109v-1.116Zm16.663 0h11.108v1.116h-11.108v-1.116Zm16.657 0h11.109v1.116h-11.109v-1.116Zm16.663 0h11.109v1.116h-11.109v-1.116Zm16.663 0h11.098v1.116h-11.098v-1.116Zm16.652 0h11.108v1.116H422.91v-1.116Z" fill="#5130C9"/><path d="M248.724 149.294h-.754c-.181 0-.276-.105-.331-.231l-.674-1.738h-3.23l-.673 1.738a.362.362 0 0 1-.332.231h-.753l2.878-7.199h.99l2.879 7.199Zm-4.718-2.673h2.688l-1.13-2.929a5.075 5.075 0 0 1-.216-.678 7.183 7.183 0 0 1-.211.683M250.488 141.894v7.4h-.894v-7.4h.894ZM253.06 144.205v5.089h-.895v-5.089h.895Zm-.443-2.241c.387 0 .643.261.643.643 0 .377-.261.633-.643.633-.376 0-.633-.256-.633-.633 0-.382.252-.643.633-.643ZM258.4 148.581c-.482.673-1.788 1.025-2.768.608-.859-.367-1.357-1.211-1.357-2.442 0-1.593.804-2.622 2.397-2.622.758 0 1.276.271 1.673.663-.106.13-.196.291-.317.407-.211.1-.341-.096-.502-.171-.211-.101-.457-.211-.804-.201-1.1.03-1.527.804-1.527 1.924 0 1.105.412 1.889 1.482 1.924.532.02.849-.191 1.12-.422.111-.095.266-.105.352.005M263.388 148.581c-.523.673-1.919 1.02-2.964.603-.925-.372-1.457-1.236-1.457-2.537 0-1.176.542-1.955 1.381-2.327.297-.13.628-.195.995-.195 1.372 0 2.11.874 2.11 2.275 0 .242-.01.352-.216.352h-3.386c.04 1.135.492 1.884 1.618 1.909.572.01.959-.191 1.296-.412.352-.231.472.186.623.332Zm-.739-2.387c-.025-.859-.432-1.396-1.286-1.411-.909-.015-1.371.582-1.482 1.411h2.768ZM268.117 149.375c-1.16 0-1.703-.749-1.703-1.925v-3.245h.894v3.245c0 .744.337 1.221 1.07 1.211.628-.01 1.04-.331 1.377-.703v-3.753h.894v5.089c-.301-.03-.733.111-.773-.186l-.071-.547c-.407.432-.894.814-1.688.814ZM273.443 148.731c.607-.015 1.04-.261 1.04-.839 0-.673-.789-.713-1.327-.909-.668-.241-1.321-.492-1.321-1.382 0-.989.769-1.457 1.809-1.477a2.2 2.2 0 0 1 1.592.593c-.131.176-.231.573-.558.382-.266-.156-.572-.316-1.014-.306-.543.015-.98.221-.98.738 0 .648.794.683 1.316.879.643.241 1.322.468 1.322 1.327 0 1.11-.784 1.617-1.925 1.637a2.477 2.477 0 0 1-1.698-.617c.136-.206.287-.644.643-.407.287.19.593.391 1.101.381ZM280.542 148.581c-.522.673-1.919 1.02-2.964.603-.924-.372-1.457-1.236-1.457-2.537 0-1.176.543-1.955 1.382-2.327.296-.13.628-.195.994-.195 1.372 0 2.111.874 2.111 2.275 0 .242-.011.352-.217.352h-3.386c.041 1.135.493 1.884 1.618 1.909.573.01.96-.191 1.296-.412.352-.231.472.186.623.332Zm-.738-2.387c-.025-.859-.432-1.396-1.286-1.411-.91-.015-1.372.582-1.483 1.411h2.769ZM283.07 148.731c.607-.015 1.039-.261 1.039-.839 0-.673-.788-.713-1.326-.909-.668-.241-1.321-.492-1.321-1.382 0-.989.768-1.457 1.808-1.477a2.201 2.201 0 0 1 1.593.593c-.131.176-.231.573-.558.382-.266-.156-.572-.316-1.014-.306-.543.015-.98.221-.98.738 0 .648.794.683 1.316.879.643.241 1.321.468 1.321 1.327 0 1.11-.783 1.617-1.924 1.637a2.477 2.477 0 0 1-1.698-.617c.136-.206.287-.644.643-.407.287.19.593.391 1.101.381ZM288.977 141.894v4.356c.247 0 .412 0 .543-.141l1.608-1.723c.1-.096.165-.181.351-.181h.814c-.668.713-1.346 1.427-2.014 2.145a.96.96 0 0 1-.151.116c.126.085.206.196.301.316l1.99 2.512c-.407-.04-.925.091-1.141-.176l-1.673-2.085c-.105-.135-.155-.165-.376-.17h-.252v2.431h-.899v-7.4h.899ZM294.896 149.375c-1.16 0-1.703-.749-1.703-1.925v-3.245h.895v3.245c0 .744.336 1.221 1.07 1.211.628-.01 1.04-.331 1.376-.703v-3.753h.895v5.089c-.302-.03-.734.111-.774-.186l-.07-.547c-.407.432-.895.814-1.689.814ZM301.221 149.364c-.714 0-1.111-.306-1.437-.723-.045.251.03.653-.277.653h-.577v-7.4h.899v3.044c.392-.437.884-.814 1.663-.814 1.422 0 1.929 1.116 1.929 2.593 0 1.191-.467 2.04-1.276 2.447-.271.135-.583.2-.924.2Zm1.276-2.647c-.01-1.065-.267-1.879-1.296-1.879-.684 0-1.04.347-1.372.769v2.461c.281.387.603.603 1.191.603 1.045 0 1.487-.824 1.477-1.954ZM308.575 148.581c-.522.673-1.919 1.02-2.964.603-.924-.372-1.457-1.236-1.457-2.537 0-1.176.543-1.955 1.382-2.327a2.45 2.45 0 0 1 .995-.195c1.371 0 2.11.874 2.11 2.275 0 .242-.01.352-.216.352h-3.386c.04 1.135.492 1.884 1.617 1.909.573.01.96-.191 1.296-.412.352-.231.473.186.623.332Zm-.738-2.387c-.025-.859-.432-1.396-1.286-1.411-.91-.015-1.372.582-1.482 1.411h2.768ZM313.545 148.581c-.483.673-1.789 1.025-2.769.608-.859-.367-1.356-1.211-1.356-2.442 0-1.593.804-2.622 2.396-2.622.759 0 1.276.271 1.673.663-.105.13-.196.291-.316.407-.211.1-.342-.096-.503-.171-.211-.101-.457-.211-.803-.201-1.101.03-1.528.804-1.528 1.924 0 1.105.412 1.889 1.482 1.924.533.02.849-.191 1.121-.422.11-.095.266-.105.351.005M317.247 148.912c-.272.262-.729.462-1.231.462-.814.006-1.251-.482-1.251-1.306v-3.115c-.292-.045-.804.131-.804-.196v-.356l.834-.106.206-1.572c.02-.252.402-.151.658-.171v1.753h1.457v.648h-1.457v3.055c-.01.392.201.628.558.633.301.01.442-.166.643-.241.045 0 .09.03.125.085M319.217 141.894v7.4h-.895v-7.4h.895ZM324.054 150.766c-.98-1.432-1.613-3.396-1.306-5.823.176-1.386.668-2.451 1.306-3.441.161.11.352.191.487.327.061.085.04.185-.015.286a7.853 7.853 0 0 0-1.075 4.019c0 1.613.437 2.924 1.075 4.019.076.131.05.327-.075.372M326.677 141.894v4.356c.246 0 .412 0 .542-.141l1.608-1.723c.1-.096.166-.181.352-.181h.813c-.668.713-1.346 1.427-2.014 2.145a.916.916 0 0 1-.151.116c.126.085.206.196.302.316l1.989 2.512c-.407-.04-.924.091-1.14-.176l-1.673-2.085c-.106-.135-.156-.165-.377-.17h-.251v2.431h-.9v-7.4h.9ZM332.594 149.375c-1.161 0-1.703-.749-1.703-1.925v-3.245h.894v3.245c0 .744.337 1.221 1.07 1.211.628-.01 1.04-.331 1.377-.703v-3.753h.894v5.089c-.302-.03-.734.111-.774-.186l-.07-.547c-.407.432-.894.814-1.688.814ZM338.92 149.364c-.714 0-1.11-.306-1.437-.723-.045.251.03.653-.276.653h-.578v-7.4h.899v3.044c.392-.437.884-.814 1.663-.814 1.422 0 1.929 1.116 1.929 2.593 0 1.191-.467 2.04-1.276 2.447-.271.135-.583.2-.924.2Zm1.276-2.647c-.01-1.065-.266-1.879-1.296-1.879-.684 0-1.04.347-1.372.769v2.461c.282.387.603.603 1.191.603 1.045 0 1.487-.824 1.477-1.954ZM346.275 148.581c-.523.673-1.92 1.02-2.965.603-.924-.372-1.456-1.236-1.456-2.537 0-1.176.542-1.955 1.381-2.327.297-.13.628-.195.995-.195 1.371 0 2.11.874 2.11 2.275 0 .242-.01.352-.216.352h-3.386c.04 1.135.492 1.884 1.617 1.909.573.01.96-.191 1.297-.412.351-.231.472.186.623.332Zm-.739-2.387c-.025-.859-.432-1.396-1.286-1.411-.909-.015-1.372.582-1.482 1.411h2.768ZM349.681 144.994c-.744.03-1.055.472-1.306 1.06v3.24h-.895v-5.089c.312.035.759-.126.789.246l.061.794c.331-.694.924-1.301 1.929-1.085.115.025.221.08.316.135l-.115.668c-.025.086-.076.126-.156.126-.181 0-.357-.106-.623-.095ZM353.8 144.838c-.628.01-1.04.342-1.376.708v3.748h-.895v-5.089c.302.03.739-.111.774.186l.07.552c.412-.437.89-.818 1.688-.818 1.166 0 1.704.758 1.704 1.929v3.24h-.895v-3.24c0-.749-.326-1.226-1.07-1.216ZM361.177 148.581c-.523.673-1.919 1.02-2.964.603-.925-.372-1.457-1.236-1.457-2.537 0-1.176.542-1.955 1.381-2.327.297-.13.628-.195.995-.195 1.372 0 2.11.874 2.11 2.275 0 .242-.01.352-.216.352h-3.386c.04 1.135.492 1.884 1.618 1.909.573.01.959-.191 1.296-.412.352-.231.472.186.623.332Zm-.739-2.387c-.025-.859-.432-1.396-1.286-1.411-.909-.015-1.371.582-1.482 1.411h2.768ZM365.155 148.912c-.271.262-.729.462-1.231.462-.814.006-1.251-.482-1.251-1.306v-3.115c-.291-.045-.804.131-.804-.196v-.356l.834-.106.206-1.572c.02-.252.402-.151.658-.171v1.753h1.457v.648h-1.457v3.055c-.01.392.201.628.558.633.301.01.442-.166.643-.241.045 0 .09.03.126.085M370.189 148.581c-.523.673-1.919 1.02-2.964.603-.925-.372-1.457-1.236-1.457-2.537 0-1.176.542-1.955 1.381-2.327.297-.13.628-.195.995-.195 1.371 0 2.11.874 2.11 2.275 0 .242-.01.352-.216.352h-3.386c.04 1.135.492 1.884 1.618 1.909.572.01.959-.191 1.296-.412.351-.231.472.186.623.332Zm-.739-2.387c-.025-.859-.432-1.396-1.286-1.411-.909-.015-1.372.582-1.482 1.411h2.768ZM372.716 148.731c.608-.015 1.04-.261 1.04-.839 0-.673-.789-.713-1.326-.909-.669-.241-1.322-.492-1.322-1.382 0-.989.769-1.457 1.809-1.477a2.203 2.203 0 0 1 1.593.593c-.131.176-.232.573-.558.382-.266-.156-.573-.316-1.015-.306-.543.015-.98.221-.98.738 0 .648.794.683 1.317.879.643.241 1.321.468 1.321 1.327 0 1.11-.784 1.617-1.924 1.637a2.475 2.475 0 0 1-1.698-.617c.135-.206.286-.644.643-.407.286.19.593.391 1.1.381ZM375.916 141.502c.974 1.437 1.618 3.391 1.306 5.823-.176 1.381-.663 2.462-1.306 3.441-.161-.11-.362-.181-.487-.321-.066-.076-.031-.211.015-.292a7.902 7.902 0 0 0 1.075-4.019c0-1.613-.462-2.914-1.075-4.019-.206-.377.291-.447.472-.613ZM382.673 144.114c1.181 0 1.774.739 1.774 1.924v3.256c-.292-.025-.648.085-.714-.211l-.1-.472c-.457.407-.92.778-1.774.763-.879-.015-1.421-.462-1.421-1.351 0-.924.803-1.221 1.667-1.432.397-.095.885-.141 1.462-.156.061-.924-.155-1.597-1.004-1.597-.568 0-.91.226-1.221.457-.181.131-.412.07-.498-.086l-.16-.286c.507-.482 1.08-.809 1.989-.809Zm-1.376 3.869c0 .517.311.763.829.763.703 0 1.085-.321 1.441-.683v-1.06c-.708.02-1.296.096-1.753.301-.301.136-.517.312-.517.679ZM387.124 148.731c.608-.015 1.04-.261 1.04-.839 0-.673-.789-.713-1.326-.909-.668-.241-1.321-.492-1.321-1.382 0-.989.768-1.457 1.808-1.477a2.203 2.203 0 0 1 1.593.593c-.131.176-.231.573-.558.382-.266-.156-.573-.316-1.015-.306-.542.015-.979.221-.979.738 0 .648.793.683 1.316.879.643.241 1.321.468 1.321 1.327 0 1.11-.784 1.617-1.924 1.637a2.475 2.475 0 0 1-1.698-.617c.136-.206.286-.644.643-.407.286.19.593.391 1.1.381ZM393.688 149.375c-1.161 0-1.704-.749-1.704-1.925v-3.245h.895v3.245c0 .744.336 1.221 1.07 1.211.628-.01 1.04-.331 1.376-.703v-3.753h.895v5.089c-.302-.03-.734.111-.774-.186l-.07-.547c-.407.432-.895.814-1.688.814ZM399.013 148.731c.608-.015 1.04-.261 1.04-.839 0-.673-.789-.713-1.327-.909-.668-.241-1.321-.492-1.321-1.382 0-.989.769-1.457 1.809-1.477a2.199 2.199 0 0 1 1.592.593c-.13.176-.231.573-.557.382-.267-.156-.573-.316-1.015-.306-.543.015-.98.221-.98.738 0 .648.794.683 1.317.879.643.241 1.321.468 1.321 1.327 0 1.11-.784 1.617-1.924 1.637a2.473 2.473 0 0 1-1.698-.617c.135-.206.286-.644.643-.407.286.19.592.391 1.1.381ZM403.635 149.375c-1.161 0-1.703-.749-1.703-1.925v-3.245h.894v3.245c0 .744.337 1.221 1.07 1.211.628-.01 1.04-.331 1.377-.703v-3.753h.894v5.089c-.302-.03-.734.111-.774-.186l-.07-.547c-.407.432-.894.814-1.688.814ZM409.603 144.115c1.181 0 1.773.738 1.773 1.924v3.255c-.291-.025-.648.086-.713-.211l-.101-.472c-.457.407-.919.779-1.773.764-.879-.015-1.422-.463-1.422-1.352 0-.924.804-1.221 1.668-1.432.397-.095.884-.14 1.462-.155.06-.925-.156-1.598-1.005-1.598-.567 0-.909.226-1.22.457-.181.131-.412.07-.498-.085l-.161-.287c.508-.482 1.081-.808 1.99-.808Zm-1.377 3.868c0 .517.312.764.829.764.704 0 1.085-.322 1.442-.684v-1.06c-.708.02-1.296.096-1.753.302-.302.135-.518.311-.518.678ZM413.728 141.894v7.4h-.894v-7.4h.894ZM415.637 149.369c-.382 0-.623-.246-.623-.628 0-.381.241-.633.623-.633.381 0 .628.252.628.633 0 .387-.247.628-.628.628ZM247.703 154.152v.819h-2.326v6.381h-.974v-6.381h-2.337v-.819h5.637ZM251.591 160.638c-.522.674-1.919 1.02-2.964.603-.925-.371-1.457-1.236-1.457-2.537 0-1.175.543-1.954 1.382-2.326.296-.131.628-.196.994-.196 1.372 0 2.11.874 2.11 2.276 0 .241-.01.352-.216.352h-3.386c.04 1.135.492 1.884 1.618 1.909.573.01.959-.191 1.296-.412.352-.231.472.186.623.331Zm-.738-2.386c-.026-.859-.433-1.397-1.287-1.412-.909-.015-1.371.583-1.482 1.412h2.769ZM253.793 153.951v7.401h-.895v-7.401h.895ZM259.429 160.638c-.523.674-1.919 1.02-2.964.603-.925-.371-1.457-1.236-1.457-2.537 0-1.175.542-1.954 1.381-2.326.297-.131.628-.196.995-.196 1.372 0 2.11.874 2.11 2.276 0 .241-.01.352-.216.352h-3.386c.04 1.135.492 1.884 1.618 1.909.573.01.959-.191 1.296-.412.352-.231.472.186.623.331Zm-.739-2.386c-.025-.859-.432-1.397-1.286-1.412-.909-.015-1.371.583-1.482 1.412h2.768ZM262.926 161.422c-.668 0-1.065-.236-1.397-.598v2.251h-.894v-6.812c.301.03.738-.111.773.185l.076.603c.402-.467.899-.879 1.713-.879 1.417 0 1.924 1.125 1.924 2.603 0 1.19-.462 2.039-1.271 2.446a2.043 2.043 0 0 1-.924.201Zm1.271-2.647c-.015-1.066-.266-1.879-1.296-1.879-.684 0-1.04.346-1.372.768v2.462c.286.387.608.603 1.196.603 1.04 0 1.482-.824 1.472-1.954ZM270.664 158.805c0 1.612-.824 2.617-2.422 2.617-1.597 0-2.431-1.01-2.431-2.617 0-1.246.537-2.06 1.426-2.437a2.571 2.571 0 0 1 1.005-.186c1.593 0 2.422 1.01 2.422 2.623Zm-3.929.005c0 1.13.402 1.914 1.507 1.914 1.07 0 1.497-.799 1.497-1.914 0-1.121-.422-1.925-1.497-1.925-1.11 0-1.507.794-1.507 1.925ZM273.968 157.051c-.743.03-1.055.472-1.306 1.06v3.241h-.894v-5.09c.311.036.758-.125.788.247l.061.793c.331-.693.924-1.301 1.929-1.085.115.025.221.081.316.136l-.115.668c-.025.085-.076.126-.156.126-.181 0-.357-.106-.623-.096ZM278.59 160.97c-.271.261-.728.462-1.23.462-.814.005-1.251-.482-1.251-1.306v-3.115c-.292-.045-.804.131-.804-.196v-.357l.834-.105.206-1.573c.02-.251.402-.15.658-.17v1.753h1.457v.648h-1.457v3.055c-.01.391.201.628.557.633.302.01.443-.166.644-.242.045 0 .09.031.125.086M285.269 160.638c-.482.674-1.788 1.025-2.768.608-.859-.366-1.356-1.21-1.356-2.441 0-1.593.803-2.623 2.396-2.623.759 0 1.276.271 1.673.663-.106.131-.196.292-.317.407-.211.101-.341-.095-.502-.171-.211-.1-.457-.211-.804-.201-1.1.031-1.527.804-1.527 1.925 0 1.105.412 1.889 1.482 1.924.533.02.849-.191 1.12-.422.111-.096.267-.106.352.005M290.679 158.805c0 1.612-.824 2.617-2.421 2.617-1.598 0-2.432-1.01-2.432-2.617 0-1.246.538-2.06 1.427-2.437a2.568 2.568 0 0 1 1.005-.186c1.592 0 2.421 1.01 2.421 2.623Zm-3.928.005c0 1.13.402 1.914 1.507 1.914 1.07 0 1.497-.799 1.497-1.914 0-1.121-.422-1.925-1.497-1.925-1.111 0-1.507.794-1.507 1.925ZM294.056 156.896c-.628.01-1.04.341-1.377.708v3.748h-.894v-5.089c.302.03.739-.111.774.185l.07.553c.412-.437.889-.819 1.688-.819 1.166 0 1.703.759 1.703 1.929v3.241h-.894v-3.241c0-.748-.326-1.226-1.07-1.215ZM299.624 154.735c-.829 0-1.191.362-1.181 1.161v.467h1.472v.648h-1.442v4.341h-.899v-4.326c-.246-.045-.568-.02-.734-.146-.12-.085-.05-.336-.07-.517h.804v-.492c.025-1.151.603-1.824 1.748-1.824a2 2 0 0 1 .633.1l-.02.447c-.01.156-.14.141-.311.141ZM301.753 156.262v5.09h-.894v-5.09h.894Zm-.442-2.24c.387 0 .643.261.643.643 0 .377-.261.633-.643.633-.377 0-.633-.256-.633-.633 0-.382.251-.643.633-.643ZM303.114 157.815c0-1.105.804-1.638 1.929-1.638.462 0 .849.106 1.146.286h1.381c-.01.267.066.503-.211.543l-.578.08c.216.397.227.985.026 1.402-.292.603-.885.96-1.764.97-.236 0-.462-.03-.673-.086-.251.111-.502.543-.181.714.829.442 2.567-.066 3.12.824.201.326.181.854-.02 1.205-.387.674-1.151 1.07-2.216 1.07-.969 0-1.723-.251-2.085-.839a.98.98 0 0 1-.14-.507c.015-.588.422-.879.894-1.06-.271-.136-.492-.322-.472-.718.02-.453.321-.689.648-.87-.457-.256-.804-.698-.804-1.376Zm1.16 3.11c-.401.16-.864.618-.552 1.12.487.789 2.944.668 2.909-.417-.02-.593-.724-.568-1.307-.618-.351-.03-.733-.03-1.05-.085Zm-.336-3.085c0 .673.422 1.025 1.105 1.025.688 0 1.11-.347 1.11-1.025 0-.648-.427-1.02-1.11-1.02-.678 0-1.105.372-1.105 1.02ZM310.047 161.432c-1.161 0-1.703-.748-1.703-1.924v-3.246h.894v3.246c0 .744.337 1.221 1.07 1.211.628-.01 1.04-.332 1.377-.704v-3.753h.894v5.09c-.301-.03-.734.11-.774-.186l-.07-.548c-.407.432-.894.814-1.688.814ZM316.251 157.051c-.743.03-1.055.472-1.306 1.06v3.241h-.894v-5.09c.311.036.758-.125.789.247l.06.793c.331-.693.924-1.301 1.929-1.085.116.025.221.081.317.136l-.116.668c-.025.085-.075.126-.156.126-.181 0-.356-.106-.623-.096ZM322.161 160.638c-.522.674-1.919 1.02-2.964.603-.924-.371-1.457-1.236-1.457-2.537 0-1.175.543-1.954 1.382-2.326.296-.131.628-.196.995-.196 1.371 0 2.11.874 2.11 2.276 0 .241-.01.352-.216.352h-3.387c.041 1.135.493 1.884 1.618 1.909.573.01.96-.191 1.296-.412.352-.231.473.186.623.331Zm-.738-2.386c-.025-.859-.432-1.397-1.286-1.412-.91-.015-1.372.583-1.482 1.412h2.768ZM324.687 160.789c.608-.015 1.04-.261 1.04-.839 0-.673-.789-.713-1.327-.909-.668-.241-1.321-.493-1.321-1.382 0-.99.769-1.457 1.809-1.477a2.196 2.196 0 0 1 1.592.593c-.13.176-.231.573-.557.382-.267-.156-.573-.317-1.015-.307-.543.015-.98.221-.98.739 0 .648.794.683 1.316.879.643.241 1.322.467 1.322 1.326 0 1.111-.784 1.618-1.925 1.638a2.477 2.477 0 0 1-1.698-.618c.136-.206.287-.643.643-.407.287.191.593.392 1.101.382ZM330.595 153.951v4.356c.246 0 .412 0 .542-.14l1.608-1.724c.1-.095.166-.181.352-.181h.813c-.668.714-1.346 1.427-2.014 2.146a.86.86 0 0 1-.151.115c.126.086.206.196.302.317l1.989 2.512c-.407-.04-.924.09-1.14-.176l-1.673-2.085c-.106-.136-.156-.166-.377-.171h-.251v2.432h-.9v-7.401h.9ZM336.514 161.432c-1.161 0-1.703-.748-1.703-1.924v-3.246h.894v3.246c0 .744.336 1.221 1.07 1.211.628-.01 1.04-.332 1.377-.704v-3.753h.894v5.09c-.302-.03-.734.11-.774-.186l-.07-.548c-.407.432-.895.814-1.688.814ZM342.838 161.422c-.714 0-1.11-.306-1.437-.723-.045.251.03.653-.276.653h-.578v-7.401h.899v3.045c.392-.437.884-.814 1.663-.814 1.422 0 1.929 1.115 1.929 2.592 0 1.191-.467 2.04-1.276 2.447a2.043 2.043 0 0 1-.924.201Zm1.276-2.648c-.01-1.065-.266-1.879-1.296-1.879-.684 0-1.04.347-1.372.769v2.462c.282.387.603.603 1.191.603 1.045 0 1.487-.824 1.477-1.955ZM350.193 160.638c-.523.674-1.92 1.02-2.965.603-.924-.371-1.457-1.236-1.457-2.537 0-1.175.543-1.954 1.382-2.326.297-.131.628-.196.995-.196 1.371 0 2.11.874 2.11 2.276 0 .241-.01.352-.216.352h-3.386c.04 1.135.492 1.884 1.617 1.909.573.01.96-.191 1.297-.412.351-.231.472.186.623.331Zm-.739-2.386c-.025-.859-.432-1.397-1.286-1.412-.909-.015-1.372.583-1.482 1.412h2.768ZM355.162 160.638c-.482.674-1.789 1.025-2.768.608-.86-.366-1.357-1.21-1.357-2.441 0-1.593.804-2.623 2.397-2.623.758 0 1.276.271 1.673.663-.106.131-.196.292-.317.407-.211.101-.342-.095-.502-.171-.211-.1-.458-.211-.804-.201-1.1.031-1.527.804-1.527 1.925 0 1.105.411 1.889 1.482 1.924.532.02.849-.191 1.12-.422.11-.096.266-.106.352.005M358.864 160.97c-.271.261-.729.462-1.231.462-.814.005-1.251-.482-1.251-1.306v-3.115c-.291-.045-.804.131-.804-.196v-.357l.834-.105.206-1.573c.02-.251.402-.15.658-.17v1.753h1.457v.648h-1.457v3.055c-.01.391.201.628.558.633.301.01.442-.166.643-.242.045 0 .09.031.126.086M360.834 153.951v7.401h-.895v-7.401h.895ZM367.126 160.97c-.272.261-.729.462-1.231.462-.814.005-1.251-.482-1.251-1.306v-3.115c-.292-.045-.804.131-.804-.196v-.357l.834-.105.206-1.573c.02-.251.402-.15.658-.17v1.753h1.457v.648h-1.457v3.055c-.01.391.201.628.558.633.301.01.442-.166.643-.242.045 0 .09.031.125.086M372.582 158.805c0 1.612-.824 2.617-2.422 2.617-1.597 0-2.431-1.01-2.431-2.617 0-1.246.537-2.06 1.426-2.437a2.571 2.571 0 0 1 1.005-.186c1.593 0 2.422 1.01 2.422 2.623Zm-3.929.005c0 1.13.402 1.914 1.507 1.914 1.07 0 1.497-.799 1.497-1.914 0-1.121-.422-1.925-1.497-1.925-1.11 0-1.507.794-1.507 1.925ZM377.207 161.432c-1.161 0-1.703-.748-1.703-1.924v-3.246h.894v3.246c0 .744.337 1.221 1.07 1.211.628-.01 1.04-.332 1.377-.704v-3.753h.894v5.09c-.301-.03-.733.11-.774-.186l-.07-.548c-.407.432-.894.814-1.688.814ZM382.532 160.789c.608-.015 1.04-.261 1.04-.839 0-.673-.788-.713-1.326-.909-.668-.241-1.321-.493-1.321-1.382 0-.99.768-1.457 1.808-1.477a2.197 2.197 0 0 1 1.593.593c-.131.176-.231.573-.558.382-.266-.156-.572-.317-1.015-.307-.542.015-.979.221-.979.739 0 .648.794.683 1.316.879.643.241 1.321.467 1.321 1.326 0 1.111-.783 1.618-1.924 1.638a2.477 2.477 0 0 1-1.698-.618c.136-.206.286-.643.643-.407.287.191.593.392 1.1.382ZM389.632 160.638c-.522.674-1.919 1.02-2.964.603-.925-.371-1.457-1.236-1.457-2.537 0-1.175.543-1.954 1.382-2.326.296-.131.628-.196.994-.196 1.372 0 2.11.874 2.11 2.276 0 .241-.01.352-.216.352h-3.386c.04 1.135.493 1.884 1.618 1.909.573.01.959-.191 1.296-.412.352-.231.472.186.623.331Zm-.738-2.386c-.026-.859-.433-1.397-1.287-1.412-.909-.015-1.371.583-1.482 1.412h2.769ZM394.807 156.896c-.538 0-.864.326-1.135.663v3.793h-.895v-5.089c.302.03.739-.111.774.185l.065.523c.347-.402.744-.784 1.442-.789.744-.005 1.121.462 1.296 1.06.257-.633.769-1.06 1.623-1.06 1.166 0 1.698.749 1.698 1.929v3.241h-.894v-3.241c.005-.743-.311-1.215-1.02-1.215-.713 0-1.095.472-1.095 1.215v3.241h-.894v-3.241c.005-.748-.272-1.215-.965-1.215ZM406.071 154.152v.819h-2.327v6.381h-.974v-6.381h-2.336v-.819h5.637ZM408.07 160.533h3.115v.819h-4.089v-7.2h.974v6.381ZM413.964 160.623c.894-.02 1.467-.442 1.467-1.316 0-.97-.975-1.07-1.724-1.321-.914-.307-1.743-.714-1.718-1.935.02-.944.558-1.522 1.276-1.813.588-.241 1.467-.206 2.05.025.332.131.623.311.869.553-.11.185-.181.432-.331.577-.257.126-.417-.14-.618-.241-.267-.13-.573-.281-1.005-.271-.789.02-1.336.357-1.336 1.12 0 .935 1.004 1.025 1.728 1.296.879.327 1.723.679 1.723 1.869 0 1.452-.929 2.241-2.411 2.266a2.964 2.964 0 0 1-2.256-.939c.13-.181.211-.417.382-.558.301-.126.467.196.703.327.311.17.678.376 1.201.361ZM246.424 172.696c-.483.673-1.789 1.025-2.769.608-.859-.367-1.356-1.211-1.356-2.442 0-1.592.804-2.622 2.396-2.622.759 0 1.276.271 1.673.663-.105.131-.196.291-.316.407-.211.1-.342-.096-.503-.171-.211-.1-.457-.211-.803-.201-1.101.03-1.528.804-1.528 1.924 0 1.106.412 1.889 1.482 1.924.533.021.849-.19 1.121-.422.11-.095.266-.105.351.005M251.834 170.862c0 1.613-.824 2.618-2.422 2.618-1.598 0-2.432-1.01-2.432-2.618 0-1.246.538-2.06 1.427-2.436a2.571 2.571 0 0 1 1.005-.186c1.593 0 2.422 1.01 2.422 2.622Zm-3.929.005c0 1.131.402 1.914 1.507 1.914 1.07 0 1.497-.798 1.497-1.914 0-1.12-.422-1.924-1.497-1.924-1.11 0-1.507.794-1.507 1.924ZM255.21 168.953c-.628.01-1.04.342-1.376.709v3.747h-.895v-5.089c.302.03.739-.11.774.186l.07.553c.412-.437.89-.819 1.689-.819 1.165 0 1.703.758 1.703 1.929v3.24h-.895v-3.24c0-.749-.326-1.226-1.07-1.216ZM260.798 168.953c-.628.01-1.04.342-1.376.709v3.747h-.895v-5.089c.302.03.739-.11.774.186l.07.553c.412-.437.89-.819 1.688-.819 1.166 0 1.704.758 1.704 1.929v3.24h-.895v-3.24c0-.749-.326-1.226-1.07-1.216ZM268.173 172.696c-.522.673-1.919 1.02-2.964.603-.925-.372-1.457-1.236-1.457-2.537 0-1.176.543-1.955 1.382-2.326.296-.131.628-.196.994-.196 1.372 0 2.11.874 2.11 2.276 0 .241-.01.351-.216.351h-3.386c.04 1.136.493 1.884 1.618 1.909.573.01.959-.19 1.296-.412.352-.231.472.186.623.332Zm-.738-2.386c-.026-.859-.433-1.397-1.287-1.412-.909-.015-1.371.583-1.482 1.412h2.769ZM273.14 172.696c-.482.673-1.788 1.025-2.768.608-.859-.367-1.356-1.211-1.356-2.442 0-1.592.803-2.622 2.396-2.622.759 0 1.276.271 1.673.663-.105.131-.196.291-.316.407-.211.1-.342-.096-.503-.171-.211-.1-.457-.211-.804-.201-1.1.03-1.527.804-1.527 1.924 0 1.106.412 1.889 1.482 1.924.533.021.849-.19 1.12-.422.111-.095.267-.105.352.005M276.844 173.028c-.271.261-.728.462-1.231.462-.813.005-1.251-.483-1.251-1.307v-3.114c-.291-.046-.803.13-.803-.196v-.357l.834-.106.206-1.572c.02-.251.401-.151.658-.171v1.753h1.457v.649h-1.457v3.054c-.01.392.201.628.557.633.302.01.442-.166.643-.241.046 0 .091.03.126.085M278.813 168.32v5.089h-.894v-5.089h.894Zm-.442-2.241c.387 0 .643.262.643.643 0 .377-.261.633-.643.633-.376 0-.633-.256-.633-.633 0-.381.251-.643.633-.643ZM284.873 170.862c0 1.613-.824 2.618-2.422 2.618-1.597 0-2.431-1.01-2.431-2.618 0-1.246.537-2.06 1.426-2.436a2.571 2.571 0 0 1 1.005-.186c1.593 0 2.422 1.01 2.422 2.622Zm-3.929.005c0 1.131.402 1.914 1.507 1.914 1.07 0 1.497-.798 1.497-1.914 0-1.12-.422-1.924-1.497-1.924-1.11 0-1.507.794-1.507 1.924ZM288.247 168.953c-.628.01-1.04.342-1.376.709v3.747h-.894v-5.089c.301.03.738-.11.773.186l.071.553c.412-.437.889-.819 1.688-.819 1.165 0 1.703.758 1.703 1.929v3.24h-.894v-3.24c0-.749-.327-1.226-1.071-1.216ZM296.276 173.028c-.271.261-.729.462-1.231.462-.814.005-1.251-.483-1.251-1.307v-3.114c-.291-.046-.804.13-.804-.196v-.357l.834-.106.206-1.572c.02-.251.402-.151.658-.171v1.753h1.457v.649h-1.457v3.054c-.01.392.201.628.558.633.301.01.442-.166.643-.241.045 0 .091.03.126.085M301.732 170.862c0 1.613-.824 2.618-2.421 2.618-1.598 0-2.432-1.01-2.432-2.618 0-1.246.537-2.06 1.427-2.436a2.568 2.568 0 0 1 1.005-.186c1.592 0 2.421 1.01 2.421 2.622Zm-3.929.005c0 1.131.402 1.914 1.508 1.914 1.07 0 1.497-.798 1.497-1.914 0-1.12-.422-1.924-1.497-1.924-1.111 0-1.508.794-1.508 1.924ZM309.821 166.21v.819h-2.327v6.38h-.974v-6.38h-2.336v-.819h5.637ZM313.708 172.696c-.522.673-1.919 1.02-2.964.603-.924-.372-1.457-1.236-1.457-2.537 0-1.176.543-1.955 1.382-2.327.296-.13.628-.195.994-.195 1.372 0 2.111.874 2.111 2.275 0 .242-.011.352-.216.352h-3.387c.041 1.135.493 1.884 1.618 1.909.573.01.96-.191 1.296-.412.352-.231.473.186.623.332Zm-.738-2.387c-.025-.859-.432-1.396-1.286-1.411-.91-.015-1.372.582-1.483 1.411h2.769ZM315.91 166.009v7.4h-.894v-7.4h.894ZM321.546 172.696c-.522.673-1.919 1.02-2.964.603-.924-.372-1.457-1.236-1.457-2.537 0-1.176.543-1.955 1.382-2.327.296-.13.628-.195.994-.195 1.372 0 2.11.874 2.11 2.275 0 .242-.01.352-.216.352h-3.386c.04 1.135.493 1.884 1.618 1.909.573.01.96-.191 1.296-.412.352-.231.472.186.623.332Zm-.738-2.387c-.026-.859-.432-1.396-1.287-1.411-.909-.015-1.371.582-1.482 1.411h2.769ZM325.043 173.48c-.668 0-1.065-.237-1.397-.598v2.25h-.894v-6.812c.301.03.738-.111.774.186l.075.603c.402-.468.899-.88 1.713-.88 1.417 0 1.924 1.126 1.924 2.603 0 1.191-.462 2.04-1.271 2.447a2.053 2.053 0 0 1-.924.201Zm1.271-2.648c-.015-1.065-.266-1.879-1.296-1.879-.683 0-1.04.347-1.372.769v2.461c.287.387.608.603 1.196.603 1.04 0 1.482-.824 1.472-1.954ZM332.781 170.862c0 1.613-.824 2.618-2.422 2.618-1.597 0-2.431-1.01-2.431-2.618 0-1.246.537-2.06 1.427-2.437a2.584 2.584 0 0 1 1.004-.185c1.593 0 2.422 1.009 2.422 2.622Zm-3.929.005c0 1.13.402 1.914 1.507 1.914 1.07 0 1.498-.799 1.498-1.914 0-1.12-.423-1.924-1.498-1.924-1.11 0-1.507.794-1.507 1.924ZM336.085 169.109c-.743.03-1.055.472-1.306 1.06v3.24h-.894v-5.089c.311.035.758-.126.789.246l.06.794c.331-.694.924-1.301 1.929-1.085.116.025.221.08.317.135l-.116.668c-.025.086-.075.126-.156.126-.181 0-.356-.106-.623-.095ZM340.708 173.027c-.272.262-.729.462-1.231.462-.814.005-1.251-.482-1.251-1.306v-3.115c-.292-.045-.804.131-.804-.196v-.356l.834-.106.206-1.572c.02-.252.402-.151.658-.171v1.753h1.457v.648h-1.457v3.055c-.01.392.201.628.558.633.301.01.442-.166.643-.241.045 0 .09.03.125.085M345.914 173.48c-.668 0-1.065-.237-1.397-.598v2.25h-.894v-6.812c.301.03.739-.111.774.186l.075.603c.402-.468.899-.88 1.713-.88 1.417 0 1.924 1.126 1.924 2.603 0 1.191-.462 2.04-1.271 2.447a2.053 2.053 0 0 1-.924.201Zm1.271-2.648c-.015-1.065-.266-1.879-1.296-1.879-.683 0-1.04.347-1.372.769v2.461c.287.387.608.603 1.196.603 1.04 0 1.482-.824 1.472-1.954ZM351.37 169.109c-.743.03-1.055.472-1.306 1.06v3.24h-.894v-5.089c.311.035.759-.126.789.246l.06.794c.332-.693.924-1.301 1.929-1.085.116.025.221.08.317.135l-.116.669c-.025.085-.075.125-.156.125-.18 0-.356-.105-.623-.095ZM357.701 170.862c0 1.613-.824 2.618-2.422 2.618-1.597 0-2.431-1.01-2.431-2.618 0-1.246.537-2.06 1.426-2.437a2.59 2.59 0 0 1 1.005-.185c1.593 0 2.422 1.009 2.422 2.622Zm-3.929.005c0 1.13.402 1.914 1.507 1.914 1.07 0 1.497-.799 1.497-1.914 0-1.12-.422-1.924-1.497-1.924-1.11 0-1.507.794-1.507 1.924ZM359.696 170.802l-1.714-2.482h.86c.15 0 .19.045.251.135l1.246 1.91a1.1 1.1 0 0 1 .13-.282l1.096-1.607c.06-.076.105-.151.226-.156h.824l-1.714 2.431 1.784 2.658h-.859c-.151.005-.221-.095-.277-.186l-1.281-1.994a.866.866 0 0 1-.105.261l-1.186 1.733c-.065.081-.12.186-.266.186h-.799M365.06 174.911c-.066.131-.126.221-.322.221h-.663l.929-2.019-2.1-4.793h.774c.151-.005.231.09.276.186.478 1.145.99 2.261 1.442 3.426.03.07.04.151.055.226.051-.161.091-.301.151-.452l1.322-3.2c.09-.302.622-.151.974-.186M368.381 173.485c-.382 0-.623-.247-.623-.628 0-.382.241-.633.623-.633s.628.251.628.633c0 .387-.246.628-.628.628Z" fill="#512FC9"/><path d="M664.648 112.385a3.35 3.35 0 0 1 3.35-3.349h23.11a3.348 3.348 0 0 1 3.35 3.349v19.427a3.348 3.348 0 0 1-3.35 3.349h-23.11a3.352 3.352 0 0 1-3.35-3.349v-19.427Z" fill="#5130C9"/><path d="M676.618 117.979c.264-1.623 1.26-2.625 3.089-2.625 1.322 0 2.199.589 2.612 1.522.257.564.27 1.378.057 1.986-.332.971-1.009 1.635-1.667 2.305l-2.042 2.087c.933-.307 2.28-.138 3.464-.182.32-.006.545.2.545.514v.927h-6.214c-.019-.489.006-.89.276-1.153 1.133-1.115 2.324-2.23 3.37-3.427.451-.513.833-1.046.833-1.948 0-.858-.47-1.315-1.322-1.328-.77-.013-1.253.432-1.422 1.04-.094.344-.344.501-.764.426M664.988 135.635a3.35 3.35 0 0 1 3.35-3.349h216.59a3.35 3.35 0 0 1 3.349 3.349v48.203a3.35 3.35 0 0 1-3.349 3.349h-216.59a3.35 3.35 0 0 1-3.35-3.349v-48.203Z" fill="#fff"/><path fill-rule="evenodd" clip-rule="evenodd" d="M668.305 131.728h5.575v1.116h-5.534l-.463.034-.42.103-.408.162-.366.229-.338.296-.282.328-.233.373-.165.396-.102.431-.035.455v5.338h-1.116v-5.38l.044-.584.143-.607.237-.564.325-.521.388-.453.466-.407.527-.33.575-.228.585-.143.597-.044Zm22.249 1.116h-11.109v-1.116h11.109v1.116Zm16.657 0h-11.108v-1.116h11.108v1.116Zm16.663 0h-11.108v-1.116h11.108v1.116Zm16.663 0h-11.108v-1.116h11.108v1.116Zm16.658 0h-11.109v-1.116h11.109v1.116Zm16.668 0h-11.109v-1.116h11.109v1.116Zm16.657 0h-11.108v-1.116h11.108v1.116Zm16.663 0h-11.108v-1.116h11.108v1.116Zm16.663 0h-11.108v-1.116h11.108v1.116Zm16.658 0h-11.109v-1.116h11.109v1.116Zm16.652 0h-11.098v-1.116h11.098v1.116Zm16.662 0H862.71v-1.116h11.108v1.116Zm11.088 0h-5.533v-1.116h5.575l.591.044.588.143.574.235.519.325.47.392.392.47.323.517.241.573.145.591.044.597v5.379h-1.117v-5.338l-.034-.464-.101-.414-.172-.409-.235-.376-.278-.334-.334-.278-.374-.234-.409-.167-.417-.102-.458-.034Zm-219.372 13.504v10.706h-1.116v-10.706h1.116Zm222.184 10.712v-10.707h1.117v10.707h-1.117Zm-222.184 5.353v10.718h-1.116v-10.718h1.116Zm222.184 10.724v-10.718h1.117v10.718h-1.117Zm-222.184 10.691v-5.338h-1.116v5.38l.044.597.143.586.229.568.329.527.408.466.453.388.52.325.58.244.602.131.584.043h5.575v-1.116h-5.533l-.465-.035-.425-.092-.403-.169-.373-.233-.328-.282-.296-.338-.229-.367-.162-.403-.102-.418-.035-.464Zm222.184-.008v-5.324h1.117v5.371l-.05.586-.131.59-.25.579-.322.514-.386.464-.46.407-.539.329-.571.23-.584.13-.591.049h-5.578v-1.116h5.531l.469-.04.421-.093.4-.161.376-.229.322-.286.284-.34.236-.378.175-.404.092-.414.039-.464Zm-208.284 2.809h11.109v1.116h-11.109v-1.116Zm16.663 0h11.109v1.116h-11.109v-1.116Zm16.663 0h11.109v1.116H712.76v-1.116Zm16.657 0h11.109v1.116h-11.109v-1.116Zm16.658 0h11.108v1.116h-11.108v-1.116Zm16.657 0h11.109v1.116h-11.109v-1.116Zm16.663 0h11.109v1.116h-11.109v-1.116Zm16.663 0h11.109v1.116h-11.109v-1.116Zm16.663 0h11.109v1.116h-11.109v-1.116Zm16.663 0h11.109v1.116h-11.109v-1.116Zm16.668 0h11.109v1.116h-11.109v-1.116Zm16.658 0h11.108v1.116H862.71v-1.116Z" fill="#5130C9"/><path d="M684.834 151.75c1.623.016 2.683.654 2.683 2.231 0 1.558-1.085 2.241-2.683 2.276h-1.155v2.693h-.97v-7.2h2.125Zm1.708 2.231c0-.99-.643-1.462-1.708-1.462h-1.155v2.964h1.155c1.04-.02 1.708-.487 1.708-1.502ZM690.808 154.649c-.744.03-1.055.473-1.306 1.06v3.241h-.895v-5.089c.312.035.759-.126.789.246l.06.793c.332-.693.925-1.301 1.93-1.085.115.025.221.081.316.136l-.115.668c-.025.086-.076.126-.156.126-.181 0-.357-.106-.623-.096ZM697.138 156.403c0 1.613-.824 2.617-2.421 2.617-1.598 0-2.432-1.01-2.432-2.617 0-1.246.538-2.06 1.427-2.437a2.586 2.586 0 0 1 1.005-.186c1.592 0 2.421 1.01 2.421 2.623Zm-3.928.005c0 1.13.401 1.914 1.507 1.914 1.07 0 1.497-.799 1.497-1.914 0-1.121-.422-1.924-1.497-1.924-1.111 0-1.507.793-1.507 1.924ZM699.133 156.342l-1.713-2.481h.859c.151 0 .191.045.251.135l1.246 1.909c.03-.095.071-.191.131-.281l1.095-1.608c.06-.075.106-.15.226-.155h.824l-1.713 2.431 1.783 2.658h-.859c-.15.005-.221-.096-.276-.186l-1.281-1.995a.848.848 0 0 1-.106.262l-1.185 1.733c-.066.08-.121.186-.267.186h-.798M704.497 160.452c-.065.131-.126.221-.321.221h-.664l.93-2.019-2.1-4.793h.773c.151-.005.232.09.277.186.477 1.145.99 2.26 1.442 3.426.03.07.04.151.055.226.05-.161.09-.301.151-.452l1.321-3.2c.09-.302.623-.151.975-.186M712.341 152.333c-.829 0-1.191.362-1.181 1.161v.467h1.472v.648h-1.442v4.341h-.899v-4.326c-.246-.045-.568-.02-.734-.146-.12-.085-.05-.336-.07-.517h.804v-.493c.025-1.15.603-1.823 1.748-1.823a2 2 0 0 1 .633.1l-.02.447c-.01.156-.141.141-.311.141ZM717.957 156.403c0 1.612-.824 2.617-2.422 2.617-1.597 0-2.431-1.01-2.431-2.617 0-1.246.537-2.06 1.426-2.437a2.571 2.571 0 0 1 1.005-.186c1.593 0 2.422 1.01 2.422 2.623Zm-3.929.005c0 1.13.402 1.914 1.507 1.914 1.07 0 1.497-.799 1.497-1.914 0-1.121-.422-1.925-1.497-1.925-1.11 0-1.507.794-1.507 1.925ZM721.263 154.649c-.744.03-1.055.472-1.306 1.06v3.241h-.895v-5.09c.312.035.759-.125.789.246l.061.794c.331-.693.924-1.301 1.929-1.085.115.025.221.08.316.136l-.115.668c-.025.085-.076.126-.156.126-.181 0-.357-.106-.623-.096ZM722.449 153.86c.352.04.889-.125.98.186l.975 3.276c.05.231.1.447.135.688.387-1.366.874-2.648 1.271-3.984.066-.221.367-.171.633-.176a.258.258 0 0 1 .257.176c.406 1.331.869 2.603 1.23 3.979a5.88 5.88 0 0 1 .151-.683l.995-3.276c.075-.296.593-.151.934-.186l-1.648 5.09h-.708c-.085 0-.146-.056-.181-.171-.397-1.231-.814-2.442-1.19-3.688-.026-.075-.036-.156-.051-.231-.035.161-.06.327-.115.472l-1.141 3.447c-.08.301-.562.12-.879.171M732.773 153.77c1.18 0 1.773.739 1.773 1.924v3.256c-.291-.025-.648.085-.713-.211l-.101-.472c-.457.406-.919.778-1.773.763-.879-.015-1.422-.462-1.422-1.351 0-.925.804-1.221 1.668-1.432.397-.096.884-.141 1.462-.156.06-.924-.156-1.598-1.005-1.598-.567 0-.909.227-1.221.458-.18.13-.412.07-.497-.086l-.161-.286c.508-.482 1.08-.809 1.99-.809Zm-1.377 3.869c0 .517.312.763.829.763.704 0 1.085-.321 1.442-.683v-1.06c-.708.02-1.296.095-1.753.301-.302.136-.518.312-.518.679ZM738.103 154.649c-.744.03-1.055.472-1.306 1.06v3.241h-.895v-5.09c.312.035.759-.125.789.246l.06.794c.332-.693.925-1.301 1.93-1.085.115.025.221.08.316.136l-.115.668c-.026.085-.076.126-.156.126-.181 0-.357-.106-.623-.096ZM741.781 153.77c.668 0 1.055.246 1.391.603v-2.824h.895v7.401c-.302-.03-.734.105-.774-.186l-.081-.618c-.396.467-.899.874-1.708.874-1.416 0-1.924-1.12-1.924-2.597 0-1.191.472-2.04 1.276-2.447.271-.136.578-.206.925-.206Zm-1.277 2.653c.011 1.065.267 1.874 1.297 1.874.683 0 1.04-.347 1.371-.769v-2.462c-.286-.387-.608-.598-1.19-.598-1.045 0-1.488.824-1.478 1.955ZM746.89 158.387c.608-.015 1.04-.261 1.04-.839 0-.673-.789-.713-1.327-.909-.668-.242-1.321-.493-1.321-1.382 0-.99.769-1.457 1.809-1.477a2.195 2.195 0 0 1 1.592.593c-.13.176-.231.572-.557.382-.267-.156-.573-.317-1.015-.307-.543.015-.98.221-.98.739 0 .648.794.683 1.316.879.644.241 1.322.467 1.322 1.326 0 1.11-.784 1.618-1.924 1.638a2.478 2.478 0 0 1-1.699-.618c.136-.206.287-.643.644-.407.286.191.592.392 1.1.382ZM754.643 158.568c-.271.261-.728.462-1.231.462-.814.005-1.251-.482-1.251-1.306v-3.115c-.291-.045-.804.13-.804-.196v-.357l.834-.105.206-1.573c.02-.251.402-.151.659-.171v1.754h1.456v.648h-1.456v3.054c-.011.392.2.628.557.633.302.011.442-.165.643-.241.045 0 .091.03.126.086M757.888 154.493c-.628.01-1.04.342-1.377.709v3.748h-.894v-7.401h.894v2.995c.407-.412.87-.764 1.638-.764 1.166 0 1.703.759 1.703 1.929v3.241h-.894v-3.241c0-.748-.326-1.226-1.07-1.216ZM765.263 158.236c-.523.674-1.919 1.02-2.964.603-.925-.372-1.457-1.236-1.457-2.537 0-1.176.542-1.954 1.381-2.326.297-.131.628-.196.995-.196 1.372 0 2.11.874 2.11 2.276 0 .241-.01.352-.216.352h-3.386c.04 1.135.492 1.884 1.618 1.909.572.01.959-.191 1.296-.412.352-.231.472.186.623.331Zm-.739-2.386c-.025-.859-.432-1.397-1.286-1.412-.909-.015-1.371.583-1.482 1.412h2.768ZM772.172 158.236c-.483.674-1.789 1.025-2.769.608-.859-.367-1.356-1.211-1.356-2.441 0-1.593.804-2.623 2.396-2.623.759 0 1.276.271 1.673.663-.105.131-.196.292-.316.407-.211.101-.342-.095-.503-.171-.211-.1-.457-.211-.803-.201-1.101.031-1.528.804-1.528 1.925 0 1.105.412 1.889 1.482 1.924.533.02.849-.191 1.121-.422.11-.096.266-.106.351.005M777.582 156.403c0 1.612-.824 2.617-2.422 2.617-1.597 0-2.431-1.01-2.431-2.617 0-1.246.537-2.06 1.426-2.437a2.571 2.571 0 0 1 1.005-.186c1.593 0 2.422 1.01 2.422 2.623Zm-3.929.005c0 1.13.402 1.914 1.507 1.914 1.07 0 1.497-.799 1.497-1.914 0-1.121-.422-1.925-1.497-1.925-1.11 0-1.507.794-1.507 1.925ZM780.958 154.493c-.628.01-1.04.342-1.376.709v3.748h-.894v-5.09c.301.031.738-.11.773.186l.071.553c.412-.437.889-.819 1.688-.819 1.165 0 1.703.759 1.703 1.929v3.241h-.895v-3.241c0-.748-.326-1.226-1.07-1.216ZM786.544 154.493c-.628.01-1.04.342-1.376.709v3.748h-.895v-5.09c.302.031.739-.11.774.186l.07.553c.412-.437.89-.819 1.689-.819 1.165 0 1.703.759 1.703 1.929v3.241h-.895v-3.241c0-.748-.326-1.226-1.07-1.216ZM793.921 158.236c-.522.674-1.919 1.02-2.964.603-.924-.372-1.457-1.236-1.457-2.537 0-1.176.543-1.954 1.382-2.326.296-.131.628-.196.994-.196 1.372 0 2.11.874 2.11 2.276 0 .241-.01.352-.216.352h-3.386c.04 1.135.493 1.884 1.618 1.909.573.01.96-.191 1.296-.412.352-.231.472.186.623.331Zm-.738-2.386c-.026-.859-.432-1.397-1.287-1.412-.909-.015-1.371.583-1.482 1.412h2.769ZM798.888 158.236c-.482.674-1.788 1.025-2.768.608-.859-.367-1.356-1.211-1.356-2.441 0-1.593.804-2.623 2.396-2.623.759 0 1.276.271 1.673.663-.105.131-.196.292-.316.407-.211.101-.342-.095-.503-.171-.211-.1-.457-.211-.804-.201-1.1.031-1.527.804-1.527 1.925 0 1.105.412 1.889 1.482 1.924.533.02.849-.191 1.12-.422.111-.096.267-.106.352.005M802.592 158.568c-.271.261-.728.462-1.231.462-.813.005-1.251-.482-1.251-1.306v-3.115c-.291-.045-.803.13-.803-.196v-.357l.834-.105.206-1.573c.02-.251.402-.151.658-.171v1.754h1.457v.648h-1.457v3.054c-.01.392.201.628.557.633.302.011.443-.165.643-.241.046 0 .091.03.126.086M804.561 153.86v5.09h-.894v-5.09h.894Zm-.442-2.24c.387 0 .643.261.643.643 0 .377-.261.633-.643.633-.376 0-.633-.256-.633-.633 0-.382.252-.643.633-.643ZM810.621 156.403c0 1.612-.824 2.617-2.422 2.617-1.597 0-2.431-1.01-2.431-2.617 0-1.246.537-2.06 1.426-2.437a2.571 2.571 0 0 1 1.005-.186c1.593 0 2.422 1.01 2.422 2.623Zm-3.929.005c0 1.13.402 1.914 1.507 1.914 1.07 0 1.497-.799 1.497-1.914 0-1.121-.422-1.925-1.497-1.925-1.11 0-1.507.794-1.507 1.925ZM813.995 154.493c-.628.01-1.04.342-1.376.709v3.748h-.894v-5.09c.301.031.738-.11.773.186l.071.553c.412-.437.889-.819 1.688-.819 1.165 0 1.703.759 1.703 1.929v3.241h-.894v-3.241c0-.748-.327-1.226-1.071-1.216ZM822.024 158.568c-.271.261-.729.462-1.231.462-.814.005-1.251-.482-1.251-1.306v-3.115c-.291-.045-.804.13-.804-.196v-.357l.834-.105.206-1.573c.02-.251.402-.151.658-.171v1.754h1.457v.648h-1.457v3.054c-.01.392.201.628.558.633.301.011.442-.165.643-.241.045 0 .091.03.126.086M825.269 154.493c-.628.01-1.04.342-1.377.709v3.748h-.894v-7.401h.894v2.995c.407-.412.869-.764 1.638-.764 1.166 0 1.703.759 1.703 1.929v3.241h-.894v-3.241c0-.748-.327-1.226-1.07-1.216ZM830.786 154.649c-.743.03-1.055.472-1.306 1.06v3.241h-.894v-5.09c.311.035.759-.125.789.246l.06.794c.332-.693.924-1.301 1.929-1.085.116.025.221.08.317.136l-.116.668c-.025.085-.075.126-.156.126-.18 0-.356-.106-.623-.096ZM837.117 156.403c0 1.612-.824 2.617-2.422 2.617-1.597 0-2.431-1.01-2.431-2.617 0-1.246.537-2.06 1.426-2.437a2.575 2.575 0 0 1 1.005-.186c1.593 0 2.422 1.01 2.422 2.623Zm-3.929.005c0 1.13.402 1.914 1.507 1.914 1.07 0 1.497-.799 1.497-1.914 0-1.121-.422-1.925-1.497-1.925-1.11 0-1.507.794-1.507 1.925ZM839.805 159.03c-1.161 0-1.703-.749-1.703-1.924v-3.246h.894v3.246c0 .743.336 1.221 1.07 1.211.628-.01 1.04-.332 1.377-.704v-3.753h.894v5.09c-.302-.03-.734.11-.774-.186l-.07-.548c-.407.432-.895.814-1.688.814ZM843.592 155.413c0-1.106.804-1.638 1.93-1.638.462 0 .849.105 1.145.286h1.382c-.01.267.065.503-.211.543l-.578.08c.216.397.226.985.025 1.402-.291.603-.884.96-1.763.97-.236 0-.463-.031-.674-.086-.251.111-.502.543-.18.714.829.442 2.567-.066 3.119.824.201.326.181.854-.02 1.205-.386.673-1.15 1.07-2.215 1.07-.97 0-1.723-.251-2.085-.839a.972.972 0 0 1-.141-.507c.015-.588.422-.879.894-1.06-.271-.136-.492-.322-.472-.719.02-.452.322-.688.648-.869-.457-.256-.804-.698-.804-1.376Zm1.161 3.11c-.402.16-.864.618-.553 1.12.488.789 2.944.668 2.909-.417-.02-.593-.723-.568-1.306-.618-.352-.03-.733-.03-1.05-.085Zm-.337-3.085c0 .673.422 1.025 1.106 1.025.688 0 1.11-.347 1.11-1.025 0-.648-.427-1.02-1.11-1.02-.679 0-1.106.372-1.106 1.02ZM851.214 154.493c-.628.01-1.04.342-1.376.709v3.748h-.895v-7.401h.895v2.995c.407-.412.869-.764 1.637-.764 1.166 0 1.704.759 1.704 1.929v3.241h-.895v-3.241c0-.748-.326-1.226-1.07-1.216ZM687.512 163.808v.819h-2.326v6.38h-.975v-6.38h-2.336v-.819h5.637ZM691.4 170.294c-.523.673-1.92 1.02-2.965.603-.924-.372-1.456-1.236-1.456-2.537 0-1.176.542-1.955 1.381-2.326.297-.131.628-.196.995-.196 1.371 0 2.11.874 2.11 2.276 0 .241-.01.351-.216.351h-3.386c.04 1.136.492 1.884 1.617 1.909.573.01.96-.191 1.297-.412.351-.231.472.186.623.332Zm-.739-2.386c-.025-.86-.432-1.397-1.286-1.412-.909-.015-1.372.583-1.482 1.412h2.768ZM693.601 163.607v7.4h-.894v-7.4h.894ZM699.238 170.294c-.523.673-1.92 1.02-2.965.603-.924-.372-1.457-1.236-1.457-2.537 0-1.176.543-1.955 1.382-2.326.296-.131.628-.196.995-.196 1.371 0 2.11.874 2.11 2.276 0 .241-.01.351-.216.351h-3.386c.04 1.136.492 1.884 1.617 1.909.573.01.96-.191 1.297-.412.351-.231.472.186.623.332Zm-.739-2.386c-.025-.86-.432-1.397-1.286-1.412-.909-.015-1.372.583-1.482 1.412h2.768ZM702.734 171.078c-.668 0-1.065-.236-1.396-.598v2.251h-.895v-6.813c.302.03.739-.11.774.186l.075.603c.402-.467.9-.879 1.714-.879 1.416 0 1.924 1.125 1.924 2.602 0 1.191-.462 2.04-1.271 2.447a2.06 2.06 0 0 1-.925.201Zm1.271-2.648c-.015-1.065-.266-1.879-1.296-1.879-.683 0-1.04.347-1.371.769v2.462c.286.386.608.602 1.195.602 1.04 0 1.482-.824 1.472-1.954ZM710.472 168.46c0 1.613-.824 2.618-2.421 2.618-1.598 0-2.432-1.01-2.432-2.618 0-1.246.538-2.06 1.427-2.436a2.568 2.568 0 0 1 1.005-.186c1.592 0 2.421 1.009 2.421 2.622Zm-3.928.005c0 1.131.401 1.914 1.507 1.914 1.07 0 1.497-.798 1.497-1.914 0-1.12-.422-1.924-1.497-1.924-1.111 0-1.507.794-1.507 1.924ZM713.777 166.707c-.744.03-1.055.472-1.307 1.06v3.24h-.894v-5.089c.312.035.759-.126.789.246l.06.794c.332-.693.925-1.301 1.929-1.085.116.025.222.08.317.135l-.116.669c-.025.085-.075.125-.155.125-.181 0-.357-.105-.623-.095ZM718.399 170.625c-.271.262-.729.463-1.231.463-.814.005-1.251-.483-1.251-1.307v-3.115c-.291-.045-.804.131-.804-.195v-.357l.834-.106.206-1.572c.02-.251.402-.151.658-.171v1.753h1.457v.648h-1.457v3.055c-.01.392.201.628.558.633.301.01.442-.166.643-.241.045 0 .091.03.126.085M727.378 171.008h-.754c-.18 0-.276-.106-.331-.232l-.673-1.738h-3.231l-.673 1.738a.362.362 0 0 1-.332.232h-.753l2.879-7.2h.989l2.879 7.2Zm-4.717-2.673h2.687l-1.13-2.929a5.195 5.195 0 0 1-.216-.679 6.845 6.845 0 0 1-.211.684M727.93 167.471c0-1.106.804-1.638 1.93-1.638.462 0 .849.105 1.145.286h1.382c-.01.266.065.503-.211.543l-.578.08c.216.397.226.985.025 1.402-.291.603-.884.959-1.763.969a2.67 2.67 0 0 1-.674-.085c-.251.111-.502.543-.181.713.829.443 2.568-.065 3.12.824.201.327.181.854-.02 1.206-.387.673-1.15 1.07-2.215 1.07-.97 0-1.724-.251-2.085-.839a.974.974 0 0 1-.141-.507c.015-.588.422-.879.894-1.06-.271-.136-.492-.322-.472-.719.02-.452.322-.688.648-.869-.457-.256-.804-.698-.804-1.376Zm1.161 3.109c-.402.161-.864.618-.553 1.121.488.789 2.944.668 2.909-.417-.02-.593-.723-.568-1.306-.618-.352-.03-.734-.03-1.05-.086Zm-.337-3.084c0 .673.422 1.025 1.106 1.025.688 0 1.11-.347 1.11-1.025 0-.648-.427-1.02-1.11-1.02-.679 0-1.106.372-1.106 1.02ZM737.341 170.294c-.522.673-1.919 1.02-2.964.603-.925-.372-1.457-1.236-1.457-2.537 0-1.176.543-1.954 1.382-2.326.296-.131.628-.196.994-.196 1.372 0 2.11.874 2.11 2.276 0 .241-.01.351-.216.351h-3.386c.04 1.136.492 1.884 1.618 1.91.573.01.959-.191 1.296-.412.352-.232.472.185.623.331Zm-.738-2.386c-.026-.859-.433-1.397-1.287-1.412-.909-.015-1.371.583-1.482 1.412h2.769ZM740.818 166.551c-.628.01-1.04.342-1.377.709v3.748h-.894v-5.09c.301.03.738-.11.774.186l.07.553c.412-.437.889-.819 1.688-.819 1.166 0 1.703.759 1.703 1.929v3.241h-.894v-3.241c0-.748-.327-1.226-1.07-1.216ZM746.907 170.626c-.272.261-.729.462-1.231.462-.814.005-1.251-.482-1.251-1.306v-3.115c-.291-.045-.804.13-.804-.196v-.357l.834-.105.206-1.573c.02-.251.402-.151.658-.171v1.754h1.457v.648h-1.457v3.054c-.01.392.201.628.558.633.301.01.442-.165.643-.241.045 0 .09.03.126.086M748.691 163.808c0 .769.02 1.568-.081 2.236-.03.201-.09.341-.311.336-.201 0-.277-.15-.307-.336-.11-.663-.08-1.467-.08-2.236h.779ZM751.513 170.445c.608-.015 1.04-.261 1.04-.839 0-.673-.789-.714-1.327-.91-.668-.241-1.321-.492-1.321-1.381 0-.99.769-1.457 1.809-1.477a2.195 2.195 0 0 1 1.592.593c-.13.175-.231.572-.557.381-.267-.155-.573-.316-1.015-.306-.543.015-.98.221-.98.738 0 .649.794.684 1.317.88.643.241 1.321.467 1.321 1.326 0 1.11-.784 1.618-1.924 1.638a2.473 2.473 0 0 1-1.698-.618c.135-.206.286-.643.643-.407.286.191.592.392 1.1.382ZM758.693 166.707c-.744.03-1.055.472-1.307 1.06v3.24h-.894v-5.089c.312.035.759-.125.789.246l.06.794c.332-.693.925-1.301 1.929-1.085.116.025.222.08.317.136l-.116.668c-.025.085-.075.125-.155.125-.181 0-.357-.105-.623-.095ZM764.601 170.294c-.523.673-1.919 1.02-2.964.603-.925-.372-1.457-1.236-1.457-2.537 0-1.176.542-1.955 1.381-2.326.297-.131.628-.196.995-.196 1.372 0 2.11.874 2.11 2.276 0 .241-.01.351-.216.351h-3.386c.04 1.136.492 1.884 1.618 1.909.572.01.959-.191 1.296-.412.352-.231.472.186.623.332Zm-.739-2.386c-.025-.86-.432-1.397-1.286-1.412-.909-.015-1.371.583-1.482 1.412h2.768ZM765.033 165.918h.734a.29.29 0 0 1 .276.186l1.291 3.276c.091.226.136.467.186.718.06-.251.111-.492.201-.718l1.306-3.276c.086-.302.618-.151.965-.186l-2.075 5.089h-.809M774.749 170.294c-.522.673-1.919 1.02-2.964.603-.924-.372-1.457-1.236-1.457-2.537 0-1.176.543-1.955 1.382-2.326.296-.131.628-.196.994-.196 1.372 0 2.111.874 2.111 2.276 0 .241-.01.351-.216.351h-3.387c.041 1.136.493 1.884 1.618 1.909.573.01.96-.191 1.296-.412.352-.231.473.186.623.332Zm-.738-2.386c-.025-.86-.432-1.397-1.286-1.412-.91-.015-1.372.583-1.483 1.412h2.769ZM778.156 166.707c-.744.03-1.055.472-1.307 1.06v3.24h-.894v-5.089c.312.035.759-.125.789.246l.06.794c.332-.693.925-1.301 1.929-1.085.116.025.221.08.317.136l-.116.668c-.025.085-.075.125-.155.125-.181 0-.357-.105-.623-.095ZM781.325 170.445c.608-.015 1.04-.261 1.04-.839 0-.673-.788-.714-1.326-.91-.668-.241-1.321-.492-1.321-1.381 0-.99.768-1.457 1.808-1.477a2.197 2.197 0 0 1 1.593.593c-.131.175-.231.572-.558.381-.266-.155-.572-.316-1.015-.306-.542.015-.979.221-.979.738 0 .649.794.684 1.316.88.643.241 1.321.467 1.321 1.326 0 1.11-.783 1.618-1.924 1.638a2.477 2.477 0 0 1-1.698-.618c.136-.206.286-.643.643-.407.286.191.593.392 1.1.382ZM788.425 170.294c-.522.673-1.919 1.02-2.964.603-.925-.372-1.457-1.236-1.457-2.537 0-1.176.542-1.955 1.382-2.326.296-.131.628-.196.994-.196 1.372 0 2.11.874 2.11 2.276 0 .241-.01.351-.216.351h-3.386c.04 1.136.492 1.884 1.618 1.909.573.01.959-.191 1.296-.412.352-.231.472.186.623.332Zm-.738-2.386c-.026-.86-.433-1.397-1.287-1.412-.909-.015-1.371.583-1.482 1.412h2.769ZM794.342 170.625c-.271.262-.728.463-1.231.463-.813.005-1.251-.483-1.251-1.307v-3.115c-.291-.045-.803.131-.803-.195v-.357l.834-.106.206-1.572c.02-.251.402-.151.658-.171v1.753h1.457v.648h-1.457v3.055c-.01.392.201.628.557.633.302.01.443-.166.643-.241.046 0 .091.03.126.085M796.9 171.088c-1.16 0-1.703-.749-1.703-1.925v-3.245h.895v3.245c0 .744.336 1.221 1.07 1.211.628-.01 1.04-.331 1.376-.703v-3.753h.895v5.089c-.302-.03-.734.111-.774-.186l-.071-.547c-.406.432-.894.814-1.688.814ZM803.175 166.551c-.628.01-1.04.342-1.376.708v3.748h-.895v-5.089c.302.03.739-.11.774.186l.07.553c.412-.438.89-.819 1.688-.819 1.166 0 1.704.758 1.704 1.929v3.24h-.895v-3.24c0-.749-.326-1.226-1.07-1.216ZM808.761 166.551c-.628.01-1.04.342-1.376.708v3.748h-.895v-5.089c.302.03.739-.11.774.186l.07.553c.412-.438.89-.819 1.688-.819 1.166 0 1.703.758 1.703 1.929v3.24h-.894v-3.24c0-.749-.326-1.226-1.07-1.216ZM816.136 170.294c-.523.673-1.919 1.02-2.964.603-.925-.372-1.457-1.236-1.457-2.537 0-1.176.542-1.955 1.381-2.326.297-.131.628-.196.995-.196 1.372 0 2.11.874 2.11 2.276 0 .241-.01.351-.216.351h-3.386c.04 1.136.492 1.884 1.618 1.909.573.01.959-.191 1.296-.412.352-.231.472.186.623.332Zm-.739-2.386c-.025-.86-.432-1.397-1.286-1.412-.909-.015-1.371.583-1.482 1.412h2.768ZM818.338 163.607v7.4h-.895v-7.4h.895ZM820.246 171.083c-.382 0-.623-.247-.623-.628 0-.382.241-.633.623-.633s.628.251.628.633c0 .386-.246.628-.628.628Z" fill="#512FC9"/><path d="M225.428 15.322a3.35 3.35 0 0 1 3.349-3.35h216.345a3.349 3.349 0 0 1 3.349 3.35v26.794a3.35 3.35 0 0 1-3.349 3.35H228.777a3.349 3.349 0 0 1-3.349-3.35V15.322Z" fill="#5130C9"/><path d="M309.367 25.432v1.336h-2.1v5.627H305.7v-5.627h-2.1v-1.336h5.767ZM310.371 32.395v-6.963h4.703v1.316h-3.135v1.366h2.783v1.287h-2.783v1.678h3.366v1.316h-4.934ZM321.113 31.049v1.346h-4.652v-6.963h1.567v5.617h3.085ZM322.117 32.395v-6.963h4.703v1.316h-3.135v1.366h2.783v1.287h-2.783v1.678h3.366v1.316h-4.934ZM328.207 25.532c.583-.12 1.437-.18 2.09-.18 1.909 0 3.225.532 3.225 2.34 0 1.99-1.607 2.432-3.747 2.372v2.33h-1.568v-6.862Zm3.698 2.15c0-1.045-1.126-1.045-2.13-.964v2.01c1.125 0 2.13.03 2.13-1.046ZM337.844 26.647c-1.287 0-1.849.945-1.849 2.261 0 1.316.552 2.25 1.849 2.25 1.286 0 1.848-.934 1.848-2.25 0-1.316-.552-2.26-1.848-2.26Zm0-1.376c2.22 0 3.466 1.366 3.466 3.637 0 2.281-1.226 3.627-3.466 3.627-2.221 0-3.467-1.356-3.467-3.627 0-2.25 1.266-3.637 3.467-3.637ZM342.615 25.532c.593-.12 1.377-.18 2.04-.18 1.879.01 3.235.542 3.235 2.29 0 1.065-.522 1.578-1.306 1.91.653.833 1.246 1.828 1.728 2.843h-1.758c-.492-.874-.995-1.799-1.598-2.542h-.773v2.542h-1.568v-6.863Zm3.658 2.1c.01-.965-1.106-.985-2.09-.914v1.889c1.115-.01 2.08.03 2.09-.975ZM354.383 25.432v1.336h-2.1v5.627h-1.568v-5.627h-2.1v-1.336h5.768ZM357.799 25.532c.583-.12 1.437-.18 2.09-.18 1.909 0 3.225.532 3.225 2.34 0 1.99-1.607 2.432-3.748 2.372v2.33h-1.567v-6.862Zm3.697 2.15c0-1.045-1.125-1.045-2.13-.964v2.01c1.126 0 2.13.03 2.13-1.046ZM364.27 25.532c.592-.12 1.376-.18 2.039-.18 1.879.01 3.236.542 3.236 2.29 0 1.065-.523 1.578-1.307 1.91.654.833 1.246 1.828 1.729 2.843h-1.759c-.492-.874-.994-1.799-1.597-2.542h-.774v2.542h-1.567v-6.863Zm3.657 2.1c.01-.965-1.105-.985-2.09-.914v1.889c1.115-.01 2.08.03 2.09-.975ZM373.957 26.647c-1.286 0-1.849.945-1.849 2.261 0 1.316.553 2.25 1.849 2.25 1.286 0 1.849-.934 1.849-2.25 0-1.316-.553-2.26-1.849-2.26Zm0-1.376c2.22 0 3.466 1.366 3.466 3.637 0 2.281-1.225 3.627-3.466 3.627-2.221 0-3.467-1.356-3.467-3.627 0-2.25 1.266-3.637 3.467-3.637ZM377.645 32.395c.683-1.246 1.477-2.402 2.341-3.607l-2.241-3.356h1.899l1.357 2.17 1.326-2.17h1.788l-2.21 3.376c.924 1.175 1.678 2.401 2.321 3.587h-1.879c-.432-.844-.874-1.628-1.437-2.402-.512.684-1.065 1.618-1.477 2.402h-1.788ZM391.248 25.432c-.773 1.527-1.577 2.883-2.482 4.3v2.663h-1.567v-2.643a48.003 48.003 0 0 1-2.492-4.32h1.819c.442.994.944 1.939 1.487 2.863.542-.924 1.065-1.869 1.507-2.863h1.728ZM296.097 30.991a.323.323 0 0 1 .101.39c-.335 1.073-.938 2.088-1.675 2.948a.335.335 0 0 1-.39.112l-2.122-.754a7.391 7.391 0 0 1-1.758 1.033l-.419 2.233c-.033.128-.15.268-.301.279a8.436 8.436 0 0 1-1.675.167 9.36 9.36 0 0 1-1.675-.156c-.15-.022-.267-.167-.301-.29l-.419-2.233a7.362 7.362 0 0 1-1.758-1.033l-2.121.748a.328.328 0 0 1-.391-.111c-.737-.855-1.34-1.87-1.675-2.942a.319.319 0 0 1 .101-.391l1.691-1.485a6.044 6.044 0 0 1-.078-1.033c0-.334.017-.697.084-1.032l-1.686-1.485c-.112-.09-.168-.251-.101-.39.335-1.073.938-2.094 1.675-2.932.101-.134.251-.184.391-.111l2.121.748a6.197 6.197 0 0 1 1.759-1.038l.418-2.233c.034-.14.151-.28.302-.28a8.063 8.063 0 0 1 3.349 0c.151 0 .268.14.301.28l.419 2.233a6.297 6.297 0 0 1 1.758 1.038l2.122-.748c.139-.073.29-.017.39.111.737.838 1.34 1.854 1.675 2.925a.32.32 0 0 1-.1.391l-1.692 1.485c.067.335.084.698.084 1.033 0 .357-.017.714-.084 1.038l1.692 1.49-.012-.005Zm-8.222 3.238c3.148 0 5.71-2.58 5.71-5.761 0-3.182-2.567-5.75-5.71-5.75-3.165 0-5.711 2.568-5.711 5.75s2.546 5.75 5.711 5.75v.01Zm0-.726c-2.763 0-4.991-2.25-4.991-5.035 0-2.791 2.233-5.035 4.991-5.035 2.746 0 4.99 2.25 4.99 5.035 0 2.791-2.232 5.04-4.985 5.04l-.005-.005Zm-2.791-7.39v1.412h2.088v3.533h1.63v-3.54h2.093v-1.411h-5.806l-.005.005Z" fill="#fff"/><path d="M663.576 63.195a3.35 3.35 0 0 1 3.35-3.35h215.842a3.349 3.349 0 0 1 3.349 3.35V89.99a3.35 3.35 0 0 1-3.349 3.349H666.926a3.35 3.35 0 0 1-3.35-3.35V63.196Z" fill="#3371E3"/><path d="M758.194 73.597a49.258 49.258 0 0 1-2.944 3.205c1.206 1.005 2.221 2.331 3.105 3.758h-1.859c-.683-1.085-1.557-2.15-2.542-2.944v2.944h-1.567v-6.963h1.567v2.633c.774-.804 1.648-1.82 2.382-2.633h1.858ZM764.855 77.928c-.03 1.828-1.014 2.773-2.873 2.773-1.839 0-2.824-.965-2.824-2.773v-4.331h1.568v4.2c.01.945.351 1.547 1.276 1.547.874 0 1.286-.542 1.286-1.547v-4.2h1.567v4.33ZM771.86 78.45c0 1.668-1.327 2.2-3.176 2.2-.854-.01-1.567-.03-2.321-.2v-6.752c2.06-.292 5.165-.533 5.155 1.778 0 .553-.271.995-.804 1.316.774.272 1.146.764 1.146 1.658Zm-1.588-.03c0-1.055-1.306-.884-2.381-.894v1.798c1.014.07 2.381.151 2.381-.904Zm-.271-2.874c0-.914-1.226-.763-2.11-.733v1.517c.974-.02 2.11.14 2.11-.784ZM773.115 80.56v-6.963h4.703v1.316h-3.135v1.367h2.783v1.286h-2.783v1.678h3.366v1.316h-4.934ZM779.205 73.698c.593-.121 1.377-.181 2.04-.181 1.879.01 3.235.542 3.235 2.29 0 1.066-.522 1.578-1.306 1.91.653.834 1.246 1.828 1.728 2.843h-1.758c-.492-.874-.995-1.798-1.598-2.542h-.773v2.542h-1.568v-6.862Zm3.658 2.1c.01-.965-1.106-.985-2.09-.915v1.89c1.115-.01 2.08.03 2.09-.975ZM790.579 80.56c-.905-1.597-1.96-3.205-3.125-4.562v4.562h-1.548v-6.963h1.276c1.146 1.186 2.211 2.703 3.155 4.11v-4.11h1.558v6.963h-1.316ZM793.504 80.56v-6.963h4.702v1.316h-3.135v1.367h2.784v1.286h-2.784v1.678h3.366v1.316h-4.933ZM804.758 73.597v1.336h-2.1v5.627h-1.568v-5.627h-2.1v-1.336h5.768ZM805.762 80.56v-6.963h4.702v1.316h-3.135v1.367h2.784v1.286h-2.784v1.678h3.366v1.316h-4.933ZM811.86 78.922a3.746 3.746 0 0 0 1.889.443c.623-.01 1.115-.121 1.125-.724 0-.231-.11-.422-.321-.573-.533-.391-1.869-.633-2.402-1.145-.331-.322-.633-.734-.612-1.397.05-1.457 1.065-2.06 2.562-2.09a4.302 4.302 0 0 1 2.06.482l-.453 1.236c-.411-.2-.854-.381-1.507-.381-.763 0-1.246.321-.964.954.683.683 2.1.754 2.733 1.457.331.362.482.784.522 1.467.121 2.331-3.376 2.432-5.074 1.517M737.339 78.736l-1.608-6.906c-.112-.357-.352-.591-.648-.77l-6.492-3.087c-.128-.128-.351-.128-.48-.128-.167 0-.346 0-.53.055l-6.431 3.104a.942.942 0 0 0-.647.765l-1.608 6.967c-.056.362 0 .725.234 1.004l4.455 5.538c.24.234.614.413.96.413h7.078c.352.073.726-.112.966-.413l4.455-5.538a1.25 1.25 0 0 0 .301-1.004h-.005Zm-2.607.468h-.24c-.078 0-.134-.055-.19-.055 0 0-.056 0-.056-.056-.056 0-.056 0-.128-.067-.24-.056-.402-.112-.642-.179-.056 0-.134 0-.19.073h-.167c-.369 1.172-1.201 2.2-2.272 2.858l.055.167c-.055.067-.055.112 0 .246.079.223.19.402.374.58v.056c.056.073.056.073.056.123a.324.324 0 0 1 .112.235l.078.072c.056.112.056.235 0 .29 0 .123-.128.18-.184.252h-.184c-.168 0-.296-.129-.408-.252v-.111c-.045-.067-.045-.123-.045-.246l-.189-.111c-.056-.246-.185-.425-.296-.66-.056-.055-.129-.122-.184-.122l-.112-.179c-.056 0-.128.073-.184.073-.19.045-.352.1-.542.1-.351.123-.781.123-1.127.123a4.967 4.967 0 0 1-1.843-.357l-.055.179c-.056 0-.129.055-.185.128-.111.234-.24.413-.295.648l-.056.122c0 .056 0 .056-.056.129 0 .056-.056.056-.056.111l-.072.073c-.056.112-.235.223-.402.223-.056 0-.129 0-.129-.044-.167-.129-.296-.358-.167-.614v-.101c0-.072.056-.072.056-.128 0-.056.055-.056.055-.123.056-.056.056-.056.056-.112.129-.167.24-.424.369-.603v-.234l.111-.112c-.234-.111-.346-.245-.586-.351-.837-.67-1.423-1.508-1.719-2.512h-.184c-.056-.067-.129-.067-.185-.067a9.147 9.147 0 0 1-.697.178c-.073 0-.073 0-.129.073 0 0-.056 0-.056.056-.055 0-.128.055-.184.055h-.195c-.19 0-.374-.111-.43-.29-.056-.245.112-.424.352-.474h.418c.24 0 .48-.056.726-.129.056-.056.112-.056.112-.111l.346-.067c-.168-1.172.072-2.429.725-3.444 0 0 .001-.056.056-.056 0 0 0-.073.056-.073l-.112-.112c0-.067 0-.111-.055-.167a2.813 2.813 0 0 0-.598-.435l-.128-.056c-.056-.056-.184-.056-.24-.123l-.056-.056a.388.388 0 0 1-.056-.586c.056-.123.168-.123.302-.123.111 0 .24.056.296.123h.111c.073.056.073.056.073.112 0 .067.056.067.056.122l.055.056c.112.168.352.352.536.48.056 0 .056.056.112.056h.073l.111.067c.715-.714 1.602-1.25 2.624-1.48h.112c.234-.072.418-.072.586-.072v-.24c.072-.056.072-.123.128-.178 0-.224 0-.48-.056-.715v-.123c0-.056-.072-.178-.072-.234v-.168c0-.128.072-.234.128-.307.112-.111.246-.178.352-.111.245 0 .357.234.357.413v.474c-.056.224-.056.464-.056.715 0 .056.056.111.128.178v.179a5.717 5.717 0 0 1 2.736 1.117c.056.055.167.184.245.24.112.055.168.184.246.234l.168-.112h.055c.073 0 .073 0 .123-.067.19-.111.352-.279.542-.463l.055-.073c.056-.055.129-.111.185-.178 0 0 .055 0 .055-.056a.483.483 0 0 1 .296-.123c.101 0 .224.073.279.129.14.178.14.407-.055.586h-.123c-.056 0-.056.072-.112.072s-.056.056-.111.056l-.129.056c-.24.128-.402.251-.592.43-.055.056-.055.111-.055.178l-.134.1c.374.537.614 1.145.725 1.731.112.592.184 1.256.056 1.842l.184.073c0 .056.056.112.101.112.24.072.485.128.726.128h.48c.167.056.351.223.351.408.24.535.056.714-.111.714l.011-.005Z" fill="#fff"/><path d="m727.521 77.775.536.307.597-.306.128-.587-.368-.535h-.648l-.424.535.184.587h-.005Zm4.047-2.612-1.608 1.435c0 .055-.056.111-.056.178-.055.168.056.352.24.408l2.021.586c.056-.408 0-.893-.056-1.3a5.313 5.313 0 0 0-.536-1.307h-.005Zm-2.791.363c.111.112.296.178.463.056l1.742-1.25c-.67-.66-1.452-1.017-2.39-1.117l.112 2.138c-.056.111 0 .111.073.178v-.005Zm-1.842.106h.111c.179 0 .363-.112.363-.357l.112-2.066-.425.056c-.708.168-1.429.53-1.964 1.06l1.786 1.307h.017Zm-.782 1.429c.112-.112.112-.357-.056-.463l-1.552-1.43c-.48.782-.647 1.675-.591 2.568l2.009-.597c.134 0 .134 0 .19-.072v-.006Zm.112 1.323-2.066.357c.291.826.882 1.62 1.602 2.077l.76-1.965c.072-.056.072-.112 0-.224.072-.133-.112-.24-.296-.24v-.005Zm1.898.893a.312.312 0 0 0-.402.056l-1.016 1.91c.43.1.893.222 1.312.222.301 0 .597-.056.893-.123.128-.055.296-.055.424-.055l-1.016-1.842a1.087 1.087 0 0 0-.184-.168h-.011Zm1.507-.893a.35.35 0 0 0-.19.413l.837 1.97c.531-.306.949-.77 1.251-1.25.19-.24.296-.541.407-.781l-2.065-.352h-.246.006Z" fill="#fff"/><path d="M663.074 15.07a3.35 3.35 0 0 1 3.35-3.35h216.344a3.35 3.35 0 0 1 3.35 3.35v26.795a3.35 3.35 0 0 1-3.35 3.35H666.424a3.35 3.35 0 0 1-3.35-3.35V15.07Z" fill="#5130C9"/><path d="M750.562 25.189v1.336h-2.1v5.627h-1.567v-5.627h-2.1V25.19h5.767ZM751.566 32.152v-6.963h4.703v1.316h-3.135v1.367h2.783v1.286h-2.783v1.678h3.366v1.316h-4.934ZM762.308 30.806v1.346h-4.652v-6.963h1.568v5.617h3.084ZM763.312 32.152v-6.963h4.703v1.316h-3.135v1.367h2.783v1.286h-2.783v1.678h3.366v1.316h-4.934ZM769.402 25.289c.583-.12 1.437-.18 2.09-.18 1.909 0 3.226.532 3.226 2.34 0 1.99-1.608 2.432-3.748 2.372v2.33h-1.568V25.29Zm3.698 2.15c0-1.045-1.125-1.045-2.13-.964v2.01c1.125 0 2.13.03 2.13-1.046ZM779.039 26.404c-1.286 0-1.849.945-1.849 2.261 0 1.317.553 2.251 1.849 2.251 1.286 0 1.849-.934 1.849-2.25 0-1.317-.553-2.262-1.849-2.262Zm0-1.376c2.22 0 3.466 1.366 3.466 3.637 0 2.281-1.225 3.627-3.466 3.627-2.221 0-3.467-1.356-3.467-3.627 0-2.25 1.266-3.637 3.467-3.637ZM783.811 25.289c.592-.12 1.376-.18 2.039-.18 1.879.01 3.236.542 3.236 2.29 0 1.065-.523 1.578-1.306 1.91.653.833 1.245 1.828 1.728 2.843h-1.759c-.492-.874-.994-1.799-1.597-2.542h-.774v2.542h-1.567v-6.863Zm3.657 2.1c.01-.965-1.105-.985-2.09-.914v1.889c1.115-.01 2.08.03 2.09-.975ZM795.578 25.189v1.336h-2.1v5.627h-1.567v-5.627h-2.1V25.19h5.767ZM798.291 32.152c.864-2.472 1.718-4.763 2.773-6.963h1.497c1.045 2.21 1.92 4.501 2.774 6.963h-1.678c-.151-.492-.352-1.015-.513-1.507h-2.713c-.161.492-.361 1.015-.512 1.507h-1.628Zm3.487-5.386c-.312.854-.674 1.739-.985 2.633h1.979c-.311-.905-.663-1.779-.994-2.633ZM811.031 26.816a3.586 3.586 0 0 0-1.648-.422c-1.457 0-2.05.865-2.07 2.271-.02 1.648.955 2.542 2.703 2.23v-2.42h1.568v3.446c-.593.21-1.487.382-2.442.361-2.251-.06-3.456-1.336-3.456-3.617 0-2.542 1.688-3.918 4.38-3.567.573.07 1.035.231 1.417.462M813.041 32.152v-6.963h4.702v1.316h-3.134v1.367h2.783v1.286h-2.783v1.678h3.366v1.316h-4.934ZM823.803 32.152c-.904-1.598-1.959-3.205-3.125-4.562v4.562h-1.547v-6.963h1.276c1.145 1.185 2.211 2.703 3.155 4.11v-4.11h1.557v6.963h-1.316ZM831.891 25.189v1.336h-2.1v5.627h-1.568v-5.627h-2.1V25.19h5.768ZM735.486 30.745c.112.09.168.252.101.391-.335 1.072-.938 2.094-1.675 2.948a.321.321 0 0 1-.391.111l-2.121-.748c-.536.43-1.116.77-1.758 1.038l-.419 2.233c-.034.123-.151.268-.302.28a8.434 8.434 0 0 1-3.349 0c-.151-.012-.268-.157-.301-.28l-.419-2.233a7.199 7.199 0 0 1-1.758-1.038l-2.122.754a.32.32 0 0 1-.39-.112c-.737-.848-1.34-1.87-1.675-2.942a.32.32 0 0 1 .1-.39l1.692-1.485a5.092 5.092 0 0 1-.084-1.033c0-.335.017-.698.084-1.038l-1.692-1.48a.324.324 0 0 1-.1-.39c.335-1.072.938-2.088 1.675-2.931.1-.123.251-.179.39-.112l2.122.76a6.048 6.048 0 0 1 1.758-1.033l.419-2.233c.033-.145.15-.28.301-.28a7.876 7.876 0 0 1 3.349 0c.151 0 .268.135.302.28l.419 2.233a6.297 6.297 0 0 1 1.758 1.038l2.121-.748c.14-.072.29-.017.391.112.737.837 1.34 1.853 1.675 2.925a.317.317 0 0 1-.101.39l-1.691 1.485c.056.335.078.698.078 1.039 0 .357-.017.714-.084 1.032l1.686 1.485.011-.028Zm-8.222 3.238c3.142 0 5.705-2.579 5.705-5.75 0-3.181-2.568-5.76-5.711-5.76-3.171 0-5.716 2.579-5.716 5.76 0 3.182 2.545 5.75 5.71 5.75h.012Zm0-.726c-2.769 0-4.997-2.244-4.997-5.024 0-2.79 2.233-5.046 4.991-5.046 2.735 0 4.985 2.25 4.985 5.035 0 2.791-2.244 5.035-4.991 5.035h.012Zm-2.803-7.39v1.406h2.094v3.54h1.618v-3.54h2.099v-1.412h-5.816l.005.005Z" fill="#fff"/><path d="M515.356 29.026h-56.559v-1.117h56.559v1.117Zm147.159 0h-66.334v-1.117h66.334v1.117Z" fill="#5130C9"/><path fill-rule="evenodd" clip-rule="evenodd" d="M458.783 27.895h56.587v1.145h-56.587v-1.145Zm.028.028v1.089h56.531v-1.089h-56.531Zm137.356-.027h66.362v1.144h-66.362v-1.145Zm.028.027v1.089h66.306v-1.089h-66.306Z" fill="#5130C9"/><path d="M663.073 29.026h-.575v-1.117h.575v1.117Z" fill="#5130C9"/><path d="M663.086 29.043h-.598v-1.145h.598v1.145Zm-.57-1.117v1.089h.542v-1.089h-.542Z" fill="#5130C9"/><path fill-rule="evenodd" clip-rule="evenodd" d="M662.473 27.884h.625v1.173h-.625v-1.172Zm.055.056v1.061h.514v-1.06h-.514Z" fill="#5130C9"/><path d="m458.239 31.063-7.966-2.595 7.961-2.585.005 5.18Z" fill="#5130C9"/><path d="m458.798 31.828-10.327-3.36 10.327-3.35v6.71Zm-6.716-3.36 5.599 1.82v-3.629l-5.599 1.809Z" fill="#5130C9"/><path fill-rule="evenodd" clip-rule="evenodd" d="M458.812 25.1v6.747l-10.386-3.38 10.386-3.368Zm-10.296 3.368 10.268 3.34v-6.67l-10.268 3.33Zm9.18-1.828v3.667l-5.659-1.84 5.659-1.827Zm-5.568 1.828 5.54 1.8v-3.59l-5.54 1.79Z" fill="#5130C9"/><path d="M516.02 30.454v-6.836h5.375v1.102h-3.942v1.737h3.639v1.103h-3.639v1.792h4.135v1.102h-5.568ZM525.695 25.106c2.398-.027 1.599 3.115 1.736 5.348h-1.378c-.193-1.571.634-4.328-.937-4.328-1.627 0-.938 2.674-1.075 4.328h-1.379l-.027-5.238h1.295c.056.331-.027.772.083 1.048.331-.717.772-1.13 1.682-1.158ZM533.248 28.718c-.193 1.157-1.048 1.846-2.371 1.846-1.626 0-2.316-1.047-2.481-2.701-.331-3.032 4.245-3.777 4.797-.992l-1.351.055c-.055-.524-.414-.882-.965-.882-.827 0-.965.771-1.048 1.764-.165 2.04 1.792 2.398 2.04.827M537.245 26.32c-1.075-.332-1.654.358-1.654 1.57v2.564h-1.378l-.027-5.237h1.295c.055.358-.027.799.083 1.102.165-.772.744-1.46 1.681-1.13v1.13ZM540.775 30.73c-.414 1.185-1.186 2.095-2.867 1.709v-.965c.965.22 1.461-.303 1.626-1.075l-2.067-5.182h1.433l1.323 4.08c.331-1.434.772-2.757 1.213-4.08h1.406M546.618 25.106c1.462 0 1.93 1.213 1.93 2.702 0 1.543-.524 2.701-2.012 2.756-.855.028-1.241-.468-1.627-.937.083.91.055 1.902.055 2.895h-1.378l-.027-7.305h1.323c.055.275 0 .634.082.854.304-.662.8-.965 1.654-.965Zm-.578 4.521c.909 0 1.075-.854 1.102-1.82 0-1.047-.248-1.763-1.102-1.763-1.544 0-1.517 3.583 0 3.583ZM552.105 30.372c-.993.385-2.398.192-2.398-1.158v-3.088h-.662v-.91h.744l.414-1.24h.854v1.24h.993v.91h-.993v2.73c-.027.633.441.854 1.048.688v.828ZM557.313 29.13c-.358.828-1.019 1.462-2.26 1.434-1.654-.055-2.453-1.02-2.453-2.756 0-1.737.827-2.702 2.481-2.702 1.709 0 2.288 1.24 2.315 2.977h-3.363c0 .855.221 1.517 1.075 1.544.496 0 .827-.193.937-.606l1.268.11Zm-1.24-1.901c.138-1.268-1.571-1.737-1.93-.58-.055.166-.11.36-.11.58h2.04ZM560.153 25.106c.855-.027 1.268.414 1.599.938l-.028-2.785h1.379l.027 7.195h-1.323c-.055-.276 0-.634-.083-.854-.303.634-.799.964-1.681.964-1.434 0-1.875-1.24-1.902-2.729 0-1.543.523-2.674 2.012-2.729Zm.469 4.521c.909 0 1.102-.827 1.13-1.82.027-1.02-.248-1.763-1.13-1.763-.883 0-1.048.826-1.075 1.791 0 1.186.358 1.792 1.075 1.792ZM569.691 30.372c-.993.385-2.399.192-2.399-1.158v-3.088h-.661v-.91h.744l.414-1.24h.854v1.24h.993v.91h-.993v2.73c-.027.633.441.854 1.048.688v.828ZM572.144 30.564c-2.398.028-1.599-3.115-1.737-5.347h1.379c.193 1.57-.634 4.135.909 4.328 1.654-.138.965-2.675 1.103-4.328h1.378l.028 5.237h-1.296c-.055-.33.028-.772-.082-1.047-.331.689-.772 1.157-1.682 1.157ZM579.56 25.106c2.398-.027 1.599 3.115 1.737 5.348h-1.379c-.193-1.571.634-4.328-.937-4.328-1.626 0-.937 2.674-1.075 4.328h-1.378l-.028-5.238h1.296c.055.331-.028.772.082 1.048.331-.717.772-1.13 1.682-1.158ZM585.597 25.106c2.398-.027 1.599 3.115 1.737 5.348h-1.379c-.193-1.571.634-4.328-.937-4.328-1.626 0-.937 2.674-1.075 4.328h-1.378l-.028-5.238h1.296c.055.331-.028.772.082 1.048.331-.717.772-1.13 1.682-1.158ZM593.013 29.13c-.359.828-1.02 1.462-2.261 1.434-1.654-.055-2.453-1.02-2.453-2.756 0-1.737.827-2.702 2.481-2.702 1.709 0 2.288 1.24 2.315 2.977h-3.363c0 .855.221 1.517 1.075 1.544.497 0 .827-.193.938-.606l1.268.11Zm-1.241-1.901c.138-1.268-1.571-1.737-1.929-.58a1.778 1.778 0 0 0-.111.58h2.04ZM594.115 30.454V23.26h1.379v7.195h-1.379Z" fill="#512FC9"/><path d="m156.582 64.289-.045.591-.15.598-.235.558-.312.53-.402.464-.464.402-.53.318-.558.234-.603.145-.592.045H87.189v-1.116h65.469l.458-.034.429-.112.402-.167.374-.223.335-.28.291-.334.223-.374.167-.408.112-.424.028-.458V54.118h1.116l-.011 10.17Zm58.519-35.012H159.39l-.447.028-.429.112-.408.167-.374.223-.335.28-.279.334-.223.374-.168.402-.111.43-.034.463v10.127h-1.116V32.046l.044-.592.145-.603.24-.558.324-.53.402-.464.469-.401.519-.319.558-.234.603-.145.586-.045h55.75l-.005 1.122Z" fill="#5130C9"/><path fill-rule="evenodd" clip-rule="evenodd" d="M159.357 28.141h55.763l-.005 1.15h-55.724l-.445.028-.427.11-.406.168-.373.222-.333.277-.277.334-.223.372-.166.4-.111.428-.034.46v10.14h-1.144V32.046l.045-.592v-.002l.146-.605.241-.56.325-.533.403-.464.471-.404.521-.319.56-.235.606-.145.587-.045Zm55.735.028h-55.735l-.584.045-.601.144-.556.234-.517.317-.468.4-.4.462-.323.528-.239.557-.145.6-.044.59v10.157h1.088V32.09l.034-.466.113-.432.168-.404.223-.374.001-.002.281-.336.337-.28.376-.225.409-.168.433-.112.447-.028h55.697l.005-1.094Zm-59.629 25.935h1.145l-.012 10.185-.045.595-.151.6-.235.56-.314.532-.404.464-.465.404-.532.319-.561.235-.605.145-.591.045H87.176v-1.144h65.482l.456-.034.427-.11.4-.168.373-.222.333-.277.288-.334.223-.372.166-.405.111-.422.028-.456v-10.14Zm.028.028v10.113l-.028.46-.112.427-.169.409-.224.376-.291.335-.001.002-.337.28-.374.223-.002.001-.404.168-.43.112h-.002l-.458.034H87.204v1.088h65.487l.59-.044.601-.145.556-.234.528-.317.462-.4.401-.462.311-.528.234-.557.15-.595.044-.59.012-10.156h-1.089Z" fill="#5130C9"/><path d="M87.194 68.174h-.569v-1.116h.57v1.116Z" fill="#5130C9"/><path d="M87.21 68.185h-.603v-1.139h.603v1.14Zm-.575-1.116v1.094h.547v-1.089l-.547-.005Z" fill="#5130C9"/><path fill-rule="evenodd" clip-rule="evenodd" d="M86.594 67.032h.63V68.2h-.63v-1.166Zm.056.05v1.067h.519v-1.06l-.52-.006Z" fill="#5130C9"/><path d="m223.618 28.719-7.96 2.579v-5.175l7.96 2.596Z" fill="#5130C9"/><path d="m225.427 28.719-10.327 3.35v-6.71l10.327 3.36Zm-9.211 1.814 5.599-1.82-5.599-1.825v3.645Z" fill="#5130C9"/><path fill-rule="evenodd" clip-rule="evenodd" d="m215.086 25.34 10.386 3.379-10.386 3.368V25.34Zm.028.038v6.671l10.268-3.33-10.268-3.341Zm1.088 1.49 5.658 1.845-5.658 1.84v-3.684Zm.028.04v3.606l5.54-1.8-5.54-1.807Z" fill="#5130C9"/><path d="M148.333 45.821c-1.461.248-.772 2.757-.938 4.328h-1.35V47.2c.027-.744-.138-1.35-.8-1.378-1.461.276-.744 2.757-.909 4.328h-1.379l-.027-5.238h1.295c.055.331-.027.772.083 1.048.276-1.461 2.784-1.544 2.977 0 .359-.606.662-1.185 1.627-1.158 2.26.028 1.406 3.198 1.571 5.348h-1.351V47.2c-.027-.689-.138-1.323-.799-1.378ZM154.838 44.415v5.734h-1.433v-5.734h-2.206v-1.102h5.844v1.102h-2.205ZM157.787 50.15v-6.837h1.434v5.734h3.666v1.102h-5.1ZM167.823 45.132c-.028-1.185-2.592-1.268-2.674-.083.496 1.82 4.162.276 4.245 3.143.083 2.619-4.549 2.564-5.624.992-.165-.22-.275-.523-.331-.827l1.379-.22c.082 1.268 3.087 1.544 3.197.138-.468-1.902-4.134-.276-4.245-3.143-.11-2.398 4.218-2.426 5.183-.965.138.22.22.496.275.772" fill="#5130C9"/><defs><filter id="a" x="4.613" y="25.89" width="91.453" height="91.452" filterUnits="userSpaceOnUse" color-interpolation-filters="sRGB"><feFlood flood-opacity="0" result="BackgroundImageFix"/><feColorMatrix in="SourceAlpha" values="0 0 0 0 0 0 0 0 0 0 0 0 0 0 0 0 0 0 127 0" result="hardAlpha"/><feOffset dy="4"/><feGaussianBlur stdDeviation="5"/><feColorMatrix values="0 0 0 0 0 0 0 0 0 0 0 0 0 0 0 0 0 0 0.0980392 0"/><feBlend in2="BackgroundImageFix" result="effect1_dropShadow_11982_16058"/><feBlend in="SourceGraphic" in2="effect1_dropShadow_11982_16058" result="shape"/></filter><filter id="b" x="4.057" y="25.331" width="92.568" height="92.569" filterUnits="userSpaceOnUse" color-interpolation-filters="sRGB"><feFlood flood-opacity="0" result="BackgroundImageFix"/><feColorMatrix in="SourceAlpha" values="0 0 0 0 0 0 0 0 0 0 0 0 0 0 0 0 0 0 127 0" result="hardAlpha"/><feOffset dy="4"/><feGaussianBlur stdDeviation="5"/><feColorMatrix values="0 0 0 0 0 0 0 0 0 0 0 0 0 0 0 0 0 0 0.0980392 0"/><feBlend in2="BackgroundImageFix" result="effect1_dropShadow_11982_16058"/><feBlend in="SourceGraphic" in2="effect1_dropShadow_11982_16058" result="shape"/></filter><linearGradient id="c" x1="155.32" y1="162.268" x2="11.723" y2="162.268" gradientUnits="userSpaceOnUse"><stop/><stop offset=".874" stop-color="#333"/><stop offset=".987" stop-color="#333"/></linearGradient></defs></svg>