<svg xmlns="http://www.w3.org/2000/svg" xmlns:xlink="http://www.w3.org/1999/xlink" xmlns:lucid="lucid" width="1183" height="560"><g transform="translate(-253 4620)" lucid:page-tab-id="0_0"><path d="M340-4479v9.64m0 9.63v19.28m0 9.63v19.27m0 9.64v19.26m0 9.64v19.27m0 9.64v19.28m0 9.64v19.27m0 9.63v19.27m0 9.64v19.27m0 9.65v19.27m0 9.63v19.28m0 9.63v9.64M340-4478.97v-1.03M340-4161.03v1.03M804-4490.78v10m0 10v19.97m0 10v19.97m0 10v19.98m0 10v19.98m0 10v19.98m0 10v20m0 10v19.97m0 10v19.98m0 10v19.98m0 10v19.98m0 10v10M804-4490.75v-1.03M804-4161.03v1.03" stroke="#333" stroke-width="2" fill="none"/><path d="M381-4410.82h360.5M381.03-4410.82H380" stroke="#607d8b" stroke-width="2" fill="none"/><path d="M756.76-4410.82l-14.26 4.63v-9.26z" stroke="#607d8b" stroke-width="2" fill="#607d8b"/><path d="M759-4240l-10 .02m-10.03.02l-20.03.04m-10 .02l-20.04.04m-10 .02l-20.04.04m-10 0l-20.04.05m-10 .02l-20.04.04m-10.02.03l-20.02.04m-10.02.02l-20.02.03m-10.02.02l-20.03.04m-10 0l-20.04.04m-10 .02l-20.03.04m-10 .02l-20.04.04m-10 .02l-10.03.02M758.97-4240H760" stroke="#607d8b" stroke-width="2" fill="none"/><path d="M383.24-4239.27l14.25-4.66v9.27z" stroke="#607d8b" stroke-width="2" fill="#607d8b"/><path d="M318.75-4416a4 4 0 0 1 4-4h34.5a4 4 0 0 1 4 4v192a4 4 0 0 1-4 4h-34.5a4 4 0 0 1-4-4zM782.5-4416a4 4 0 0 1 4-4H821a4 4 0 0 1 4 4v192a4 4 0 0 1-4 4h-34.5a4 4 0 0 1-4-4z" stroke="#000" stroke-opacity="0" stroke-width="2" fill="#d2dbdf"/><path d="M401-4220h298v60H401z" stroke="#000" stroke-opacity="0" stroke-width="2" fill="#fff" fill-opacity="0"/><use xlink:href="#a" transform="matrix(1,0,0,1,406,-4215) translate(0 17.108)"/><use xlink:href="#b" transform="matrix(1,0,0,1,406,-4215) translate(0 37.908)"/><use xlink:href="#c" transform="matrix(1,0,0,1,406,-4215) translate(36.573333333333345 37.908)"/><use xlink:href="#d" transform="matrix(1,0,0,1,406,-4215) translate(64.60133333333334 37.908)"/><use xlink:href="#e" transform="matrix(1,0,0,1,406,-4215) translate(149.39600000000002 37.908)"/><path d="M401-4386a4 4 0 0 1 4-4h252a4 4 0 0 1 4 4v92a4 4 0 0 1-4 4H405a4 4 0 0 1-4-4z" stroke="#000" stroke-opacity="0" stroke-width="2" fill="#651fff"/><path d="M401-4384.93h189.54v26.52H401z" stroke="#000" stroke-opacity="0" stroke-width="2" fill="#fff" fill-opacity="0"/><use xlink:href="#f" transform="matrix(1,0,0,1,406,-4379.934509449832) translate(12.626666666666665 13.16)"/><use xlink:href="#g" transform="matrix(1,0,0,1,406,-4379.934509449832) translate(43.30666666666667 13.16)"/><use xlink:href="#h" transform="matrix(1,0,0,1,406,-4379.934509449832) translate(103.17333333333333 13.16)"/><path d="M412-4338.93h80v26.52h-80z" stroke="#000" stroke-opacity="0" stroke-width="2" fill="#fff" fill-opacity="0"/><use xlink:href="#i" transform="matrix(1,0,0,1,417,-4333.934509449832) translate(0 13.379333333333333)"/><path d="M528-4340.1h130.75v36.17H528z" stroke="#000" stroke-opacity="0" stroke-width="2" fill="#fff" fill-opacity="0"/><use xlink:href="#j" transform="matrix(1,0,0,1,533,-4335.111412336972) translate(0 11.186)"/><use xlink:href="#k" transform="matrix(1,0,0,1,533,-4335.111412336972) translate(54.03733333333334 11.186)"/><use xlink:href="#l" transform="matrix(1,0,0,1,533,-4335.111412336972) translate(0 24.786)"/><use xlink:href="#m" transform="matrix(1,0,0,1,533,-4335.111412336972) translate(48.68800000000001 24.786)"/><path d="M400-4353.88h261v2.47H400z" stroke="#000" stroke-opacity="0" stroke-width="2" fill="#fff" fill-opacity=".2"/><path d="M648.53-4383.17c1.16 0 2.12.97 2.12 2.16v18.67c0 1.2-.96 2.16-2.12 2.16h-24.06c-1.16 0-2.12-.97-2.12-2.16V-4381c0-1.2.96-2.17 2.12-2.17h24.06zm0 1.45h-24.06c-.4 0-.7.32-.7.7v18.7c0 .4.3.72.7.72h24.06c.4 0 .7-.32.7-.73V-4381c0-.4-.3-.72-.7-.72zm-14.15 15.8c.4 0 .7.32.7.7 0 .42-.3.75-.7.75h-7.08c-.4 0-.7-.33-.7-.74 0-.4.3-.72.7-.72h7.08zm9.2-13.8l1.16.85h1.4l.46 1.38 1.14.86-.43 1.38.44 1.38-1.14.83-.2.6v7.24c0 .3-.16.54-.42.66-.08.04-.2.07-.28.07-.17 0-.37-.1-.5-.23l-1.62-1.64-1.62 1.64c-.2.2-.5.27-.76.16-.28-.12-.45-.37-.45-.67v-7.25l-.17-.6-1.16-.83.45-1.38-.45-1.38 1.16-.85.42-1.37h1.42l1.16-.85zm-1.16 8.05h-.26v4.74l.9-.95c.3-.27.74-.27 1.03 0l.9.95v-4.74h-.26l-1.16.85-1.16-.85zm-6.63 2.87c.4 0 .7.33.7.72 0 .4-.3.73-.7.73h-8.5c-.4 0-.7-.32-.7-.73 0-.4.3-.72.7-.72h8.5zm0-2.87c.4 0 .7.32.7.7 0 .43-.3.75-.7.75h-8.5c-.4 0-.7-.32-.7-.74 0-.4.3-.7.7-.7h8.5zm7.78-6.26l-.68.5h-.88l-.26.84-.67.5.24.84-.25.83.66.5.26.83h.88l.68.5.67-.5h.88l.26-.82.67-.5-.26-.84.27-.83-.68-.5-.27-.82h-.88l-.67-.5zm-7.8 3.38c.4 0 .72.33.72.72 0 .4-.3.73-.7.73h-8.5c-.4 0-.7-.32-.7-.73 0-.4.3-.72.7-.72h8.5zm0-4.3c.4 0 .72.33.72.72 0 .4-.3.7-.7.7h-8.5c-.4 0-.7-.3-.7-.7 0-.4.3-.72.7-.72h8.5z" stroke="#000" stroke-opacity="0" fill="#fff"/><path d="M280-4579.73h120v60H280z" stroke="#000" stroke-opacity="0" stroke-width="2" fill="#fff" fill-opacity="0"/><use xlink:href="#n" transform="matrix(1,0,0,1,285.0067311791152,-4574.726586634837) translate(30.253333333333334 17.546666666666667)"/><path d="M280-4537.34a4 4 0 0 1 4-4h112a4 4 0 0 1 4 4v70.07a4 4 0 0 1-4 4H284a4 4 0 0 1-4-4z" stroke="#d2dbdf" stroke-width="2" fill="#fff" filter="url(#o)"/><path d="M338.35-4499.72c-7.36 0-13.3-5.96-13.3-13.32s5.94-13.3 13.3-13.3 13.3 5.94 13.3 13.3-5.94 13.32-13.3 13.32zm0-24.2c-6.02 0-10.9 4.88-10.9 10.88 0 6 4.88 10.9 10.9 10.9 6.03 0 10.9-4.9 10.9-10.9s-4.87-10.9-10.9-10.9zM357.72-4477.93H319c-2.04 0-3.65-1.65-3.65-3.63 0-.15.05-4.07 2.95-8 1.75-2.27 4.05-4.06 6.94-5.37 3.6-1.6 7.96-2.37 13.1-2.37 5.17 0 9.54.78 13.12 2.37 2.9 1.3 5.2 3.1 6.95 5.38 2.9 3.92 2.95 7.84 2.95 8 0 1.97-1.6 3.62-3.63 3.62zm-19.37-16.95c-8.46 0-14.67 2.33-18.03 6.68-2.48 3.25-2.53 6.6-2.53 6.64 0 .68.5 1.2 1.2 1.2h38.72c.7 0 1.2-.52 1.2-1.2 0-.05-.05-3.4-2.53-6.64-3.37-4.35-9.63-6.68-18.05-6.68z" stroke="#000" stroke-opacity="0" fill="#607d8b"/><path d="M863-4390h537v160H863z" fill-opacity="0"/><path d="M877.9-4390h14.92m7.46 0h14.92m7.45 0h14.92m7.46 0h14.92m7.45 0h14.92m7.46 0h14.92m7.46 0h14.9m7.47 0h14.92m7.46 0h14.92m7.46 0h14.92m7.46 0h14.9m7.47 0h14.92m7.46 0h14.92m7.46 0h14.92m7.46 0h14.9m7.47 0h14.92m7.46 0h14.92m7.46 0h14.92m7.46 0h14.92m7.45 0h14.92m7.46 0h14.93m7.45 0h14.92m7.46 0h14.92m7.45 0h7.46v7.62m0 7.62v15.24m0 7.62v15.23m0 7.62v15.24m0 7.6v15.25m0 7.62v15.23m0 7.62v15.24m0 7.62v7.62h-7.47m-7.45 0h-14.92m-7.46 0h-14.92m-7.45 0h-14.92m-7.45 0h-14.92m-7.45 0h-14.92m-7.46 0h-14.92m-7.46 0h-14.9m-7.47 0h-14.92m-7.46 0h-14.9m-7.47 0h-14.92m-7.46 0h-14.9m-7.47 0h-14.92m-7.46 0h-14.9m-7.47 0h-14.92m-7.46 0h-14.9m-7.47 0h-14.92m-7.46 0h-14.9m-7.47 0h-14.92m-7.46 0H967.4m-7.45 0h-14.92m-7.46 0h-14.92m-7.45 0h-14.92m-7.46 0H877.9m-7.46 0H863v-7.62m0-7.62v-15.24m0-7.62v-15.23m0-7.62v-15.24m0-7.6v-15.25m0-7.62v-15.23m0-7.62v-15.24m0-7.62v-7.62h7.44" stroke="#512fc9" stroke-width="1.5" fill="none"/><path d="M810.56-4498.5c3.68 0 6.83.48 9.4 1.5 2.13.83 3.83 1.98 5.1 3.44 2.17 2.58 2.17 5.16 2.17 5.26 0 1.88-1.6 3.4-3.6 3.4h-26.16c-1.94 0-3.54-1.52-3.54-3.4v-.07c0-.42.14-2.82 2.18-5.2 1.27-1.45 2.97-2.6 5.05-3.44 2.57-1.02 5.72-1.5 9.4-1.5zm-19.2 1.5l1.36.02c.68.04 1.2.63 1.16 1.3 0 .66-.63 1.18-1.3 1.14-.4-.03-.78-.03-1.22-.03-9.8 0-10.08 5.75-10.08 6.06 0 .65.58 1.18 1.26 1.18h7.56c.73 0 1.26.55 1.26 1.2 0 .68-.53 1.23-1.26 1.23h-7.56c-2.1 0-3.78-1.62-3.78-3.6v-.08c0-.38.14-2.37 1.7-4.32.9-1.22 2.22-2.16 3.82-2.86 1.94-.83 4.32-1.25 7.08-1.25zm19.2.76c-5.87 0-10.18 1.4-12.5 4-1.7 1.92-1.76 3.87-1.76 3.94 0 .63.54 1.15 1.17 1.15h26.17c.68 0 1.22-.52 1.22-1.15 0-.07-.1-2.02-1.75-3.94-2.32-2.6-6.68-4-12.54-4zm-19.7-15.93c4.18 0 7.58 3.07 7.58 6.83 0 3.77-3.4 6.83-7.57 6.83-4.16 0-7.56-3.07-7.56-6.84 0-3.76 3.4-6.83 7.57-6.83zm0 2.3c-2.75 0-5.03 2.02-5.03 4.53 0 2.5 2.28 4.53 5.04 4.53 2.77 0 5.05-2.03 5.05-4.54 0-2.5-2.28-4.53-5.05-4.53zm18.97-9.86c5.43 0 9.84 4.08 9.84 9.1 0 5-4.4 9.1-9.84 9.1-5.43 0-9.84-4.1-9.84-9.1 0-5.02 4.4-9.1 9.83-9.1zm0 2.27c-4.07 0-7.42 3.06-7.42 6.83 0 3.76 3.36 6.83 7.43 6.83s7.37-3.07 7.37-6.83c0-3.77-3.3-6.83-7.37-6.83z" stroke="#000" stroke-opacity="0" fill="#607d8b"/><path d="M743-4579.73h120v60H743z" stroke="#000" stroke-opacity="0" stroke-width="2" fill="#fff" fill-opacity="0"/><use xlink:href="#p" transform="matrix(1,0,0,1,748,-4574.726586634837) translate(4.124444444444443 17.546666666666667)"/><use xlink:href="#q" transform="matrix(1,0,0,1,748,-4574.726586634837) translate(40.071111111111115 17.546666666666667)"/><path d="M743-4537.34a4 4 0 0 1 4-4h112a4 4 0 0 1 4 4v70.07a4 4 0 0 1-4 4H747a4 4 0 0 1-4-4z" stroke="#d2dbdf" stroke-width="2" fill="#fff" filter="url(#o)"/><path d="M818.93-4504.98h-2.12c-.6 0-1.06-.47-1.06-1.06 0-.6.47-1.07 1.07-1.07h2.13c.6 0 1.06.46 1.06 1.06 0 .6-.47 1.06-1.07 1.06zM818.93-4496.48h-2.12c-.6 0-1.06-.47-1.06-1.06 0-.6.47-1.07 1.07-1.07h2.13c.6 0 1.06.46 1.06 1.06 0 .6-.47 1.06-1.07 1.06zM818.93-4487.98h-2.12c-.6 0-1.06-.47-1.06-1.06 0-.6.47-1.07 1.07-1.07h2.13c.6 0 1.06.46 1.06 1.06 0 .6-.47 1.06-1.07 1.06z" stroke="#000" stroke-opacity="0" fill="#607d8b"/><path d="M824.24-4508.17c0-1.36-.55-3.3-1.23-4.5l-5.26-9.06c-.8-1.36-2.55-2.38-4.12-2.38h-21.25c-1.57 0-3.32 1-4.12 2.37l-5.27 9.06c-.68 1.2-1.24 3.14-1.24 4.5v4.25c0 .8.3 1.57.8 2.13-.5.56-.8 1.32-.8 2.13v4.25c0 .8.3 1.57.8 2.13-.5.56-.8 1.32-.8 2.13v6.38c0 1.75 1.45 3.2 3.2 3.2h36.12c1.74 0 3.18-1.45 3.18-3.2v-6.37c0-.8-.3-1.57-.8-2.12.5-.55.8-1.3.8-2.12v-4.25c0-.8-.3-1.57-.8-2.12.5-.55.8-1.3.8-2.12v-4.25zm-2.12 8.5v4.25c0 .6-.47 1.06-1.06 1.06h-36.13c-.6 0-1.06-.46-1.06-1.06v-4.25c0-.6.47-1.06 1.06-1.06h36.13c.6 0 1.06.47 1.06 1.06zm-37.2-3.2c-.58 0-1.05-.45-1.05-1.05v-4.25c0-.6.47-1.06 1.06-1.06h36.13c.6 0 1.06.47 1.06 1.06v4.25c0 .6-.47 1.06-1.06 1.06h-36.13zm5.15-17.8c.43-.67 1.5-1.3 2.3-1.3h21.25c.8 0 1.87.63 2.3 1.3l5.26 9.06c.05.07.1.16.13.24H784.7l.12-.25 5.27-9.06zm32.05 35.88c0 .6-.47 1.07-1.06 1.07h-36.13c-.6 0-1.06-.47-1.06-1.06v-6.37c0-.6.47-1.06 1.06-1.06h36.13c.6 0 1.06.47 1.06 1.06v6.38z" stroke="#000" stroke-opacity="0" fill="#607d8b"/><path d="M788.12-4497.54c0 .6-.47 1.06-1.06 1.06-.6 0-1.07-.47-1.07-1.06 0-.6.46-1.07 1.06-1.07.6 0 1.06.46 1.06 1.06zM792.37-4497.54c0 .6-.47 1.06-1.06 1.06-.6 0-1.06-.47-1.06-1.06 0-.6.47-1.07 1.07-1.07.6 0 1.07.46 1.07 1.06zM796.62-4497.54c0 .6-.47 1.06-1.06 1.06-.6 0-1.07-.47-1.07-1.06 0-.6.46-1.07 1.06-1.07.6 0 1.06.46 1.06 1.06zM800.87-4497.54c0 .6-.47 1.06-1.06 1.06-.6 0-1.06-.47-1.06-1.06 0-.6.47-1.07 1.07-1.07.6 0 1.07.46 1.07 1.06zM813.62-4506.04c0 .6-.47 1.06-1.06 1.06-.6 0-1.07-.47-1.07-1.06 0-.6.46-1.07 1.06-1.07.6 0 1.06.46 1.06 1.06zM813.62-4497.54c0 .6-.47 1.06-1.06 1.06-.6 0-1.07-.47-1.07-1.06 0-.6.46-1.07 1.06-1.07.6 0 1.06.46 1.06 1.06zM813.62-4489.04c0 .6-.47 1.06-1.06 1.06-.6 0-1.07-.47-1.07-1.06 0-.6.46-1.07 1.06-1.07.6 0 1.06.46 1.06 1.06z" stroke="#000" stroke-opacity="0" fill="#607d8b"/><path d="M844-4440h42.5v60H844z" stroke="#000" stroke-opacity="0" stroke-width="2" fill="#fff" fill-opacity="0"/><g><use xlink:href="#r" transform="matrix(1,0,0,1,848.9932688208849,-4435) translate(9 28.6)"/></g><path d="M880-4370h500v118H880z" stroke="#000" stroke-opacity="0" stroke-width="2" fill="#fff" fill-opacity="0"/><g><use xlink:href="#s" transform="matrix(1,0,0,1,885,-4365.000000000038) translate(0 17.766)"/><use xlink:href="#t" transform="matrix(1,0,0,1,885,-4365.000000000038) translate(42.767999999999994 17.766)"/><use xlink:href="#u" transform="matrix(1,0,0,1,885,-4365.000000000038) translate(114.642 17.766)"/><use xlink:href="#v" transform="matrix(1,0,0,1,885,-4365.000000000038) translate(127.24199999999999 17.766)"/><use xlink:href="#w" transform="matrix(1,0,0,1,885,-4365.000000000038) translate(172.512 17.766)"/><use xlink:href="#x" transform="matrix(1,0,0,1,885,-4365.000000000038) translate(213.678 17.766)"/><use xlink:href="#y" transform="matrix(1,0,0,1,885,-4365.000000000038) translate(297.918 17.766)"/><use xlink:href="#z" transform="matrix(1,0,0,1,885,-4365.000000000038) translate(336.51 17.766)"/><use xlink:href="#A" transform="matrix(1,0,0,1,885,-4365.000000000038) translate(388.962 17.766)"/><use xlink:href="#B" transform="matrix(1,0,0,1,885,-4365.000000000038) translate(427.77 17.766)"/><use xlink:href="#C" transform="matrix(1,0,0,1,885,-4365.000000000038) translate(0 39.366)"/><use xlink:href="#D" transform="matrix(1,0,0,1,885,-4365.000000000038) translate(39.00599999999999 39.366)"/><use xlink:href="#E" transform="matrix(1,0,0,1,885,-4365.000000000038) translate(109.67399999999998 39.366)"/><use xlink:href="#F" transform="matrix(1,0,0,1,885,-4365.000000000038) translate(127.76399999999998 39.366)"/><use xlink:href="#x" transform="matrix(1,0,0,1,885,-4365.000000000038) translate(157.39199999999997 39.366)"/><use xlink:href="#G" transform="matrix(1,0,0,1,885,-4365.000000000038) translate(241.63199999999995 39.366)"/><use xlink:href="#H" transform="matrix(1,0,0,1,885,-4365.000000000038) translate(274.30199999999996 39.366)"/><use xlink:href="#I" transform="matrix(1,0,0,1,885,-4365.000000000038) translate(328.89599999999996 39.366)"/><use xlink:href="#J" transform="matrix(1,0,0,1,885,-4365.000000000038) translate(351.41399999999993 39.366)"/><use xlink:href="#K" transform="matrix(1,0,0,1,885,-4365.000000000038) translate(0 60.965999999999994)"/><use xlink:href="#L" transform="matrix(1,0,0,1,885,-4365.000000000038) translate(0 82.566)"/><use xlink:href="#M" transform="matrix(1,0,0,1,885,-4365.000000000038) translate(55.367999999999995 82.566)"/><use xlink:href="#N" transform="matrix(1,0,0,1,885,-4365.000000000038) translate(86.454 82.566)"/><use xlink:href="#F" transform="matrix(1,0,0,1,885,-4365.000000000038) translate(135.612 82.566)"/><use xlink:href="#z" transform="matrix(1,0,0,1,885,-4365.000000000038) translate(165.23999999999998 82.566)"/><use xlink:href="#A" transform="matrix(1,0,0,1,885,-4365.000000000038) translate(217.69199999999998 82.566)"/><use xlink:href="#G" transform="matrix(1,0,0,1,885,-4365.000000000038) translate(256.5 82.566)"/><use xlink:href="#F" transform="matrix(1,0,0,1,885,-4365.000000000038) translate(289.17 82.566)"/><use xlink:href="#O" transform="matrix(1,0,0,1,885,-4365.000000000038) translate(318.798 82.566)"/><use xlink:href="#P" transform="matrix(1,0,0,1,885,-4365.000000000038) translate(380.43 82.566)"/><use xlink:href="#Q" transform="matrix(1,0,0,1,885,-4365.000000000038) translate(399.978 82.566)"/><use xlink:href="#R" transform="matrix(1,0,0,1,885,-4365.000000000038) translate(0 104.166)"/><use xlink:href="#G" transform="matrix(1,0,0,1,885,-4365.000000000038) translate(77.634 104.166)"/><use xlink:href="#M" transform="matrix(1,0,0,1,885,-4365.000000000038) translate(110.304 104.166)"/><use xlink:href="#S" transform="matrix(1,0,0,1,885,-4365.000000000038) translate(141.39 104.166)"/><use xlink:href="#F" transform="matrix(1,0,0,1,885,-4365.000000000038) translate(190.67399999999998 104.166)"/><use xlink:href="#T" transform="matrix(1,0,0,1,885,-4365.000000000038) translate(220.30199999999996 104.166)"/></g><defs><path fill="#333" d="M519-204c146 0 246-70 241-211-6-175-195-185-333-232-183-63-339-153-333-400 5-199 120-319 272-380 126-51 311-44 437 5 72 27 133 64 184 112l-66 127c-15 40-64 51-105 25-64-41-136-87-246-85-132 3-224 54-224 182 0 167 202 176 334 227 173 67 333 144 333 381 0 227-120 364-289 433-138 56-353 39-478-16-80-35-154-80-210-138l78-129c23-34 74-43 115-13 73 54 157 112 290 112" id="U"/><path fill="#333" d="M1366 0h-271v-632H417V0H146v-1446h271v622h678v-622h271V0" id="V"/><path fill="#333" d="M788 134v160H0V134h788" id="W"/><path fill="#333" d="M376-1057c5 39 7 82 7 123V0H146v-1446c85 3 182-6 258 6 17 7 27 20 36 37l432 803c23 42 41 90 60 136 19-47 38-95 61-138l428-801c15-33 41-43 90-43h203V0h-237c1-330-2-664 1-991 1-21 3-42 5-63l-437 820c-22 44-63 63-132 59-48-3-77-26-95-59" id="X"/><path fill="#333" d="M1341-140C1204-38 1028 20 789 16c-350-5-566-186-673-442-73-175-71-420-1-596 107-266 333-435 699-440 235-2 404 78 526 189l-78 122c-45 78-131 10-176-17-110-67-334-90-474-29-171 74-275 233-275 474 0 251 105 414 283 489 144 62 360 37 477-26v-263H916c-88 2-46-125-56-202h481v585" id="Y"/><path fill="#333" d="M398-581c6 222 109 364 330 364 220 0 331-140 331-363v-866h269v866c-5 286-141 466-350 552-142 59-358 59-500 0-210-86-349-266-349-552v-866h269v865" id="Z"/><path fill="#333" d="M1058-1446v214H417v401h505v207H417v409h641V0H146v-1446h912" id="aa"/><path fill="#333" d="M1153-1030c0 232-137 352-319 413 34 19 63 47 88 83L1284 0h-242c-51 0-80-22-101-54L637-517c-24-34-42-48-98-48H424V0H155v-1446h441c324 4 557 105 557 416zm-263 20c0-163-114-229-294-228H424v480h168c180-3 298-77 298-252" id="ab"/><path fill="#333" d="M1417 0h-208c-47 1-77-28-90-61l-108-295H412L304-61c-11 30-46 61-89 61H6l568-1446h275zM481-546h461c-77-218-163-424-231-651-66 230-154 432-230 651" id="ac"/><path fill="#333" d="M1165-1446v221H730V0H461v-1225H24v-221h1141" id="ad"/><path fill="#333" d="M1187-985c0 329-222 471-561 476H424V0H155v-1446h471c337 4 561 134 561 461zm-269 0c0-176-112-253-292-253H424v519h202c184-1 292-85 292-266" id="ae"/><path fill="#333" d="M424-840c74 2 135-1 169-44l399-505c32-39 58-57 122-57h232L859-845c-28 33-52 59-89 78 50 19 80 49 111 90L1383 0h-238c-63 0-84-18-111-53L625-587c-28-35-53-49-116-49h-85V0H155v-1447h269v607" id="af"/><path fill="#333" d="M1480-1018c71 176 71 414 0 590-106 261-323 444-679 444S225-168 120-428c-71-176-71-414 0-590 106-261 324-444 681-444 355 0 573 184 679 444zM801-214c307 0 456-198 456-509s-149-510-456-510c-308 0-459 198-459 510s152 509 459 509" id="ag"/><g id="a"><use transform="matrix(0.008666666666666668,0,0,0.008666666666666668,0,0)" xlink:href="#U"/><use transform="matrix(0.008666666666666668,0,0,0.008666666666666668,9.299333333333335,0)" xlink:href="#U"/><use transform="matrix(0.008666666666666668,0,0,0.008666666666666668,18.59866666666667,0)" xlink:href="#V"/><use transform="matrix(0.008666666666666668,0,0,0.008666666666666668,31.702666666666673,0)" xlink:href="#W"/><use transform="matrix(0.008666666666666668,0,0,0.008666666666666668,38.53200000000001,0)" xlink:href="#X"/><use transform="matrix(0.008666666666666668,0,0,0.008666666666666668,54.652000000000015,0)" xlink:href="#U"/><use transform="matrix(0.008666666666666668,0,0,0.008666666666666668,63.95133333333335,0)" xlink:href="#Y"/><use transform="matrix(0.008666666666666668,0,0,0.008666666666666668,76.48333333333335,0)" xlink:href="#W"/><use transform="matrix(0.008666666666666668,0,0,0.008666666666666668,83.31266666666669,0)" xlink:href="#Z"/><use transform="matrix(0.008666666666666668,0,0,0.008666666666666668,95.93133333333334,0)" xlink:href="#U"/><use transform="matrix(0.008666666666666668,0,0,0.008666666666666668,105.23066666666669,0)" xlink:href="#aa"/><use transform="matrix(0.008666666666666668,0,0,0.008666666666666668,115.15400000000002,0)" xlink:href="#ab"/><use transform="matrix(0.008666666666666668,0,0,0.008666666666666668,126.50733333333336,0)" xlink:href="#ac"/><use transform="matrix(0.008666666666666668,0,0,0.008666666666666668,138.36333333333337,0)" xlink:href="#Z"/><use transform="matrix(0.008666666666666668,0,0,0.008666666666666668,150.98200000000003,0)" xlink:href="#ad"/><use transform="matrix(0.008666666666666668,0,0,0.008666666666666668,161.29533333333336,0)" xlink:href="#V"/><use transform="matrix(0.008666666666666668,0,0,0.008666666666666668,174.39933333333337,0)" xlink:href="#W"/><use transform="matrix(0.008666666666666668,0,0,0.008666666666666668,181.2286666666667,0)" xlink:href="#ae"/><use transform="matrix(0.008666666666666668,0,0,0.008666666666666668,192.06200000000004,0)" xlink:href="#af"/><use transform="matrix(0.008666666666666668,0,0,0.008666666666666668,204.16066666666669,0)" xlink:href="#W"/><use transform="matrix(0.008666666666666668,0,0,0.008666666666666668,210.99000000000004,0)" xlink:href="#ag"/><use transform="matrix(0.008666666666666668,0,0,0.008666666666666668,224.84800000000004,0)" xlink:href="#af"/></g><path fill="#333" d="M461 16c-231 0-339-149-339-383v-646h178v646c0 148 67 243 213 241 125-2 207-66 274-140v-747h178V0c-60-6-146 22-154-37l-14-109C716-60 619 16 461 16" id="ah"/><path fill="#333" d="M409-112c121-3 207-52 207-167 0-134-157-142-264-181-133-48-263-98-263-275 0-197 153-290 360-294 139-3 243 49 317 118-26 35-46 114-111 76-53-31-114-63-202-61-108 3-195 44-195 147 0 129 158 136 262 175 128 48 263 93 263 264C783-89 627 12 400 16 255 19 139-39 62-107c27-41 57-128 128-81 57 38 118 78 219 76" id="ai"/><path fill="#333" d="M954-142C850-8 572 61 364-22 180-96 74-268 74-527c0-234 108-389 275-463 59-26 125-39 198-39 273 0 420 174 420 453 0 48-2 70-43 70H250c8 226 98 375 322 380 114 2 191-38 258-82 70-46 94 37 124 66zM807-617c-5-171-86-278-256-281-181-3-273 116-295 281h551" id="aj"/><path fill="#333" d="M584-856c-148 6-210 94-260 211V0H146v-1013c62 7 151-25 157 49l12 158c66-138 184-259 384-216 23 5 44 16 63 27l-23 133c-5 17-15 25-31 25-36 0-71-21-124-19" id="ak"/><g id="b"><use transform="matrix(0.008666666666666668,0,0,0.008666666666666668,0,0)" xlink:href="#ah"/><use transform="matrix(0.008666666666666668,0,0,0.008666666666666668,9.637333333333334,0)" xlink:href="#ai"/><use transform="matrix(0.008666666666666668,0,0,0.008666666666666668,17.160000000000004,0)" xlink:href="#aj"/><use transform="matrix(0.008666666666666668,0,0,0.008666666666666668,26.242666666666672,0)" xlink:href="#ak"/></g><path fill="#333" d="M598-887c-125 2-207 68-274 141V0H146v-1473h178v596c81-82 173-152 326-152 232 0 339 151 339 384V0H811v-645c0-149-65-244-213-242" id="al"/><g id="c"><use transform="matrix(0.008666666666666668,0,0,0.008666666666666668,0,0)" xlink:href="#ai"/><use transform="matrix(0.008666666666666668,0,0,0.008666666666666668,7.522666666666668,0)" xlink:href="#ai"/><use transform="matrix(0.008666666666666668,0,0,0.008666666666666668,15.045333333333335,0)" xlink:href="#al"/></g><path fill="#333" d="M895-142C799-8 539 62 344-21 173-94 74-262 74-507c0-317 160-522 477-522 151 0 254 54 333 132-21 26-39 58-63 81-42 20-68-19-100-34-42-20-91-42-160-40-219 6-304 160-304 383 0 220 82 376 295 383 106 4 169-38 223-84 22-19 53-21 70 1" id="am"/><path fill="#333" d="M698-76c-54 52-145 92-245 92-162 1-249-96-249-260v-620c-58-9-160 26-160-39v-71l166-21 41-313c4-50 80-30 131-34v349h290v129H382v608c-2 78 40 125 111 126 60 2 88-33 128-48 9 0 18 6 25 17" id="an"/><path fill="#333" d="M344-1013V0H166v-1013h178zm-88-446c77 0 128 52 128 128 0 75-52 126-128 126-75 0-126-51-126-126 0-76 50-128 126-128" id="ao"/><path fill="#333" d="M594-1317c-165 0-237 72-235 231v93h293v129H365V0H186v-861c-49-9-113-4-146-29-24-17-10-67-14-103h160v-98c5-229 120-363 348-363 45 0 87 7 126 20l-4 89c-2 31-28 28-62 28" id="ap"/><path fill="#333" d="M537-1031c235 0 353 147 353 383V0c-58-5-129 17-142-42l-20-94C637-55 545 19 375 16 200 13 92-76 92-253c0-184 160-243 332-285 79-19 176-28 291-31 12-184-31-318-200-318-113 0-181 45-243 91-36 26-82 14-99-17l-32-57c101-96 215-161 396-161zM263-261c0 103 62 152 165 152 140 0 216-64 287-136v-211c-141 4-258 19-349 60-60 27-103 62-103 135" id="aq"/><path fill="#333" d="M223 0C139 2 94-45 94-123c0-70 47-112 118-113 165-3 132 231 74 332-37 65-83 128-140 175-20-19-63-49-29-84 46-47 91-108 106-187" id="ar"/><g id="d"><use transform="matrix(0.008666666666666668,0,0,0.008666666666666668,0,0)" xlink:href="#am"/><use transform="matrix(0.008666666666666668,0,0,0.008666666666666668,8.094666666666669,0)" xlink:href="#aj"/><use transform="matrix(0.008666666666666668,0,0,0.008666666666666668,17.177333333333337,0)" xlink:href="#ak"/><use transform="matrix(0.008666666666666668,0,0,0.008666666666666668,24.16266666666667,0)" xlink:href="#an"/><use transform="matrix(0.008666666666666668,0,0,0.008666666666666668,30.628000000000004,0)" xlink:href="#ao"/><use transform="matrix(0.008666666666666668,0,0,0.008666666666666668,35.065333333333335,0)" xlink:href="#ap"/><use transform="matrix(0.008666666666666668,0,0,0.008666666666666668,40.906666666666666,0)" xlink:href="#ao"/><use transform="matrix(0.008666666666666668,0,0,0.008666666666666668,45.344,0)" xlink:href="#am"/><use transform="matrix(0.008666666666666668,0,0,0.008666666666666668,53.43866666666667,0)" xlink:href="#aq"/><use transform="matrix(0.008666666666666668,0,0,0.008666666666666668,62.226666666666674,0)" xlink:href="#an"/><use transform="matrix(0.008666666666666668,0,0,0.008666666666666668,68.69200000000001,0)" xlink:href="#aj"/><use transform="matrix(0.008666666666666668,0,0,0.008666666666666668,77.77466666666668,0)" xlink:href="#ar"/></g><path fill="#333" d="M344-1473V0H166v-1473h178" id="as"/><path fill="#333" d="M103-704c0-220 160-326 384-326 92 0 169 21 228 57h275c-2 53 13 100-42 108l-115 16c43 79 45 196 5 279-58 120-176 191-351 193-47 0-92-6-134-17-50 22-100 108-36 142 165 88 511-13 621 164 40 65 36 170-4 240-77 134-229 213-441 213-193 0-343-50-415-167-19-32-28-66-28-101 3-117 84-175 178-211-54-27-98-64-94-143 4-90 64-137 129-173-91-51-160-139-160-274zM334-85C254-53 162 38 224 138c97 157 586 133 579-83C799-63 659-58 543-68c-70-6-146-6-209-17zm-67-614c0 134 84 204 220 204 137 0 221-69 221-204 0-129-85-203-221-203-135 0-220 74-220 203" id="at"/><path fill="#333" d="M1038-507c0 321-164 521-482 521S72-187 72-507c0-248 107-410 284-485 60-25 126-37 200-37 317 0 482 201 482 522zm-782 1c0 225 80 381 300 381 213 0 298-159 298-381 0-223-84-383-298-383-221 0-300 158-300 383" id="au"/><g id="e"><use transform="matrix(0.008666666666666668,0,0,0.008666666666666668,0,0)" xlink:href="#aq"/><use transform="matrix(0.008666666666666668,0,0,0.008666666666666668,8.788000000000002,0)" xlink:href="#as"/><use transform="matrix(0.008666666666666668,0,0,0.008666666666666668,13.225333333333335,0)" xlink:href="#at"/><use transform="matrix(0.008666666666666668,0,0,0.008666666666666668,22.08266666666667,0)" xlink:href="#au"/></g><path fill="#fff" d="M398-581c6 222 109 364 330 364 220 0 331-140 331-363v-866h269v866c-5 286-141 466-350 552-142 59-358 59-500 0-210-86-349-266-349-552v-866h269v865" id="av"/><path fill="#fff" d="M254-198c95 60 334 64 323-83-9-119-156-122-253-159C192-490 72-550 72-729c0-214 163-309 387-313 145-3 264 55 338 127-26 36-45 82-77 111-69 21-111-33-176-48-103-23-247 0-238 102 11 114 156 118 251 155 126 49 251 100 251 270C808-59 575 48 294 6 192-9 106-54 42-110c28-39 43-95 83-120 49-31 96 11 129 32" id="aw"/><path fill="#fff" d="M991-153C899-47 760 15 568 15 237 15 63-197 63-535c0-237 116-392 287-467 61-27 129-40 206-40 287 0 444 174 444 465 0 54-3 95-57 95H309c4 226 158 349 385 292 52-13 93-39 132-62 32-19 73-16 93 9zM778-631c-4-143-73-234-217-234-154 0-226 95-247 234h464" id="ax"/><path fill="#fff" d="M604-806c-122 5-180 74-225 167V0H132v-1026c83 11 206-35 218 62l15 124c63-106 147-205 295-205 51 0 93 12 126 35l-32 185c-4 23-15 33-40 33-33 0-65-16-110-14" id="ay"/><g id="f"><use transform="matrix(0.006666666666666667,0,0,0.006666666666666667,0,0)" xlink:href="#av"/><use transform="matrix(0.006666666666666667,0,0,0.006666666666666667,9.706666666666667,0)" xlink:href="#aw"/><use transform="matrix(0.006666666666666667,0,0,0.006666666666666667,15.533333333333335,0)" xlink:href="#ax"/><use transform="matrix(0.006666666666666667,0,0,0.006666666666666667,22.660000000000004,0)" xlink:href="#ay"/></g><path fill="#fff" d="M1480-1018c71 176 71 414 0 590-106 261-323 444-679 444S225-168 120-428c-71-176-71-414 0-590 106-261 324-444 681-444 355 0 573 184 679 444zM801-214c307 0 456-198 456-509s-149-510-456-510c-308 0-459 198-459 510s152 509 459 509" id="az"/><path fill="#fff" d="M635 15C514 15 442-25 379-85v420H132v-1361c64 5 145-11 192 11 33 24 28 86 42 129 78-86 174-159 331-159 277 0 379 232 379 524 0 241-96 412-258 495-54 27-116 41-183 41zm186-536c0-181-37-329-209-329-117 0-175 55-233 124v460c48 60 104 93 198 93 188 0 244-152 244-348" id="aA"/><path fill="#fff" d="M605-850c-102 1-168 52-226 108V0H132v-1026c80 9 198-29 214 45l17 81c77-76 165-142 317-142 235 0 346 154 346 389V0H779v-653c0-121-55-198-174-197" id="aB"/><path fill="#fff" d="M519-204c146 0 246-70 241-211-6-175-195-185-333-232-183-63-339-153-333-400 5-199 120-319 272-380 126-51 311-44 437 5 72 27 133 64 184 112l-66 127c-15 40-64 51-105 25-64-41-136-87-246-85-132 3-224 54-224 182 0 167 202 176 334 227 173 67 333 144 333 381 0 227-120 364-289 433-138 56-353 39-478-16-80-35-154-80-210-138l78-129c23-34 74-43 115-13 73 54 157 112 290 112" id="aC"/><path fill="#fff" d="M1366 0h-271v-632H417V0H146v-1446h271v622h678v-622h271V0" id="aD"/><g id="g"><use transform="matrix(0.006666666666666667,0,0,0.006666666666666667,0,0)" xlink:href="#az"/><use transform="matrix(0.006666666666666667,0,0,0.006666666666666667,10.66,0)" xlink:href="#aA"/><use transform="matrix(0.006666666666666667,0,0,0.006666666666666667,18.200000000000003,0)" xlink:href="#ax"/><use transform="matrix(0.006666666666666667,0,0,0.006666666666666667,25.326666666666668,0)" xlink:href="#aB"/><use transform="matrix(0.006666666666666667,0,0,0.006666666666666667,32.906666666666666,0)" xlink:href="#aC"/><use transform="matrix(0.006666666666666667,0,0,0.006666666666666667,40.06,0)" xlink:href="#aC"/><use transform="matrix(0.006666666666666667,0,0,0.006666666666666667,47.21333333333334,0)" xlink:href="#aD"/></g><path fill="#fff" d="M1284-209C1170-69 1008 19 759 16c-347-4-553-182-649-442-66-178-66-423 6-596 108-261 330-435 688-440 220-3 375 79 488 188l-90 125c-16 32-68 39-102 12-71-55-162-101-298-96-304 11-465 201-465 510 0 241 101 401 267 477 125 58 330 39 424-24 42-17 97-111 150-54" id="aE"/><path fill="#fff" d="M738-75c-64 55-158 90-269 91-176 2-277-109-277-284v-573c-65-4-153 21-153-52v-98l165-27 52-280c10-66 115-35 183-42v323h270v176H439v556c-1 59 32 101 88 102 48 1 68-25 104-34 19 1 25 9 33 22" id="aF"/><path fill="#fff" d="M395-1026V0H148v-1026h247zm-123-457c96 0 160 62 160 158 0 94-65 155-160 155-93 0-156-62-156-155 0-95 61-158 156-158" id="aG"/><path fill="#fff" d="M601-1285c-158 0-198 102-186 268h267v176H423V0H176v-840c-61-14-153-3-153-76v-101h153c-17-292 113-454 383-454 47 0 91 6 132 19l-5 124c-1 41-44 43-85 43" id="aH"/><path fill="#fff" d="M928-153C839-49 712 15 524 15c-227 0-358-131-424-305-47-123-49-306-4-434 67-190 213-318 465-318 165 0 270 58 357 143-29 37-52 81-86 112-71 26-104-41-170-55-24-5-52-12-86-12-192 5-260 143-260 339 0 194 67 336 254 342 98 3 148-38 200-79 26-20 67-17 87 9" id="aI"/><path fill="#fff" d="M556-1045c246 0 380 151 380 397V0c-79-6-181 23-196-53l-22-73C630-49 541 18 379 16 194 13 81-77 81-262c0-184 152-247 321-292 78-21 176-31 293-34 10-155-29-262-170-262-104 0-161 40-224 77-47 28-107 5-127-31l-45-79c118-108 260-162 427-162zM317-275c-3 86 56 121 139 121 117 0 179-51 239-111v-173c-122 6-219 17-297 53-49 22-79 51-81 110" id="aJ"/><g id="h"><use transform="matrix(0.006666666666666667,0,0,0.006666666666666667,0,0)" xlink:href="#aE"/><use transform="matrix(0.006666666666666667,0,0,0.006666666666666667,8.940000000000001,0)" xlink:href="#ax"/><use transform="matrix(0.006666666666666667,0,0,0.006666666666666667,16.06666666666667,0)" xlink:href="#ay"/><use transform="matrix(0.006666666666666667,0,0,0.006666666666666667,21.513333333333335,0)" xlink:href="#aF"/><use transform="matrix(0.006666666666666667,0,0,0.006666666666666667,26.673333333333336,0)" xlink:href="#aG"/><use transform="matrix(0.006666666666666667,0,0,0.006666666666666667,30.28666666666667,0)" xlink:href="#aH"/><use transform="matrix(0.006666666666666667,0,0,0.006666666666666667,34.96,0)" xlink:href="#aG"/><use transform="matrix(0.006666666666666667,0,0,0.006666666666666667,38.57333333333334,0)" xlink:href="#aI"/><use transform="matrix(0.006666666666666667,0,0,0.006666666666666667,44.93333333333334,0)" xlink:href="#aJ"/><use transform="matrix(0.006666666666666667,0,0,0.006666666666666667,51.91333333333334,0)" xlink:href="#aF"/><use transform="matrix(0.006666666666666667,0,0,0.006666666666666667,57.07333333333334,0)" xlink:href="#ax"/></g><path fill="#fff" d="M1058-1446v214H417v401h505v207H417v409h641V0H146v-1446h912" id="aK"/><path fill="#fff" d="M375-529L38-1026h238c37 0 48 9 63 32l215 343c8-25 17-47 31-68l173-270c15-21 26-37 57-37h227L704-540 1056 0H818c-37 1-57-23-71-46L529-403c-6 24-14 44-25 60L312-46c-14 20-33 47-67 46H24" id="aL"/><path fill="#fff" d="M265 14c-92 0-152-57-152-150 0-92 60-151 152-151 91 0 151 60 151 151 0 92-59 150-151 150zm0-713c-92 0-152-57-152-150 0-92 60-151 152-151 91 0 151 60 151 151 0 92-59 150-151 150" id="aM"/><g id="i"><use transform="matrix(0.0067777777777777775,0,0,0.0067777777777777775,0,0)" xlink:href="#aK"/><use transform="matrix(0.0067777777777777775,0,0,0.0067777777777777775,7.760555555555555,0)" xlink:href="#aL"/><use transform="matrix(0.0067777777777777775,0,0,0.0067777777777777775,15.080555555555556,0)" xlink:href="#aA"/><use transform="matrix(0.0067777777777777775,0,0,0.0067777777777777775,22.746222222222222,0)" xlink:href="#aG"/><use transform="matrix(0.0067777777777777775,0,0,0.0067777777777777775,26.419777777777778,0)" xlink:href="#ay"/><use transform="matrix(0.0067777777777777775,0,0,0.0067777777777777775,31.95722222222222,0)" xlink:href="#ax"/><use transform="matrix(0.0067777777777777775,0,0,0.0067777777777777775,39.202666666666666,0)" xlink:href="#aw"/><use transform="matrix(0.0067777777777777775,0,0,0.0067777777777777775,45.126444444444445,0)" xlink:href="#aM"/></g><path fill="#fff" d="M1365-1009c68 170 68 416 0 586C1264-171 1053 0 710 0H174v-1433h536c343 5 555 172 655 424zM710-157c338-11 507-216 507-559s-169-560-507-560H369v1119h341" id="aN"/><path fill="#fff" d="M954-142C850-8 572 61 364-22 180-96 74-268 74-527c0-234 108-389 275-463 59-26 125-39 198-39 273 0 420 174 420 453 0 48-2 70-43 70H250c8 226 98 375 322 380 114 2 191-38 258-82 70-46 94 37 124 66zM807-617c-5-171-86-278-256-281-181-3-273 116-295 281h551" id="aO"/><path fill="#fff" d="M895-142C799-8 539 62 344-21 173-94 74-262 74-507c0-317 160-522 477-522 151 0 254 54 333 132-21 26-39 58-63 81-42 20-68-19-100-34-42-20-91-42-160-40-219 6-304 160-304 383 0 220 82 376 295 383 106 4 169-38 223-84 22-19 53-21 70 1" id="aP"/><path fill="#fff" d="M550-887c-107 0-172 65-226 132V0H146v-1013c60 6 147-22 154 37l13 104c69-80 148-156 287-157 148-1 223 92 258 211 51-126 153-211 323-211 232 0 338 149 338 384V0h-178v-645c1-148-62-242-203-242-142 0-218 94-218 242V0H742v-645c1-149-54-242-192-242" id="aQ"/><path fill="#fff" d="M608 14c-142 0-221-61-286-144-9 50 6 130-55 130H152v-1473h179v606c78-87 176-162 331-162 283 0 384 222 384 516 0 237-93 406-254 487-54 27-116 40-184 40zm254-527c-2-212-53-374-258-374-136 0-207 69-273 153v490c56 77 120 120 237 120 208 0 296-164 294-389" id="aR"/><path fill="#fff" d="M584-856c-148 6-210 94-260 211V0H146v-1013c62 7 151-25 157 49l12 158c66-138 184-259 384-216 23 5 44 16 63 27l-23 133c-5 17-15 25-31 25-36 0-71-21-124-19" id="aS"/><g id="j"><use transform="matrix(0.005666666666666667,0,0,0.005666666666666667,0,0)" xlink:href="#aN"/><use transform="matrix(0.005666666666666667,0,0,0.005666666666666667,8.534,0)" xlink:href="#aO"/><use transform="matrix(0.005666666666666667,0,0,0.005666666666666667,14.472666666666667,0)" xlink:href="#aP"/><use transform="matrix(0.005666666666666667,0,0,0.005666666666666667,19.765333333333338,0)" xlink:href="#aO"/><use transform="matrix(0.005666666666666667,0,0,0.005666666666666667,25.704,0)" xlink:href="#aQ"/><use transform="matrix(0.005666666666666667,0,0,0.005666666666666667,35.00866666666667,0)" xlink:href="#aR"/><use transform="matrix(0.005666666666666667,0,0,0.005666666666666667,41.344,0)" xlink:href="#aO"/><use transform="matrix(0.005666666666666667,0,0,0.005666666666666667,47.28266666666667,0)" xlink:href="#aS"/></g><path fill="#fff" d="M287-136h308c2-355-4-716 3-1066L342-983c-20 23-68 15-84-7l-56-77 426-369h145v1300h282V0H287v-136" id="aT"/><path fill="#fff" d="M133-1045c40-248 190-404 468-404 261 0 430 139 430 399 0 258-162 381-297 519L357-145c48-13 103-24 160-24h480c81-4 61 93 63 169H104c-2-58 0-105 32-137 189-188 386-374 563-573 79-89 150-179 150-335 0-164-97-251-258-251-155 0-250 86-276 214-16 80-115 48-182 37" id="aU"/><path fill="#fff" d="M161 21C140 84 75 97-12 90l601-1497c18-62 84-72 169-66" id="aV"/><path fill="#fff" d="M784-747c164 46 278 155 278 355 0 277-201 408-483 408-221 0-376-86-448-238-23-50-35-107-35-170 1-199 114-309 278-355-136-49-228-153-228-325 0-187 113-294 256-348 102-39 251-39 354 0 144 54 256 161 256 348 0 172-93 276-228 325zM280-395c0 178 117 269 299 269s299-91 299-269c0-186-117-276-299-276s-299 90-299 276zm40-674c0 163 92 255 259 255s259-92 259-255c0-156-98-242-259-242s-259 86-259 242" id="aW"/><g id="k"><use transform="matrix(0.005666666666666667,0,0,0.005666666666666667,0,0)" xlink:href="#aT"/><use transform="matrix(0.005666666666666667,0,0,0.005666666666666667,6.573333333333334,0)" xlink:href="#aU"/><use transform="matrix(0.005666666666666667,0,0,0.005666666666666667,13.146666666666668,0)" xlink:href="#aV"/><use transform="matrix(0.005666666666666667,0,0,0.005666666666666667,17.374000000000002,0)" xlink:href="#aU"/><use transform="matrix(0.005666666666666667,0,0,0.005666666666666667,23.947333333333336,0)" xlink:href="#aV"/><use transform="matrix(0.005666666666666667,0,0,0.005666666666666667,28.174666666666667,0)" xlink:href="#aT"/><use transform="matrix(0.005666666666666667,0,0,0.005666666666666667,34.748000000000005,0)" xlink:href="#aW"/></g><path fill="#fff" d="M252 15c-76 0-124-49-124-125s48-126 124-126 125 50 125 126c0 77-49 125-125 125zm0-750c-76 0-124-49-124-125s48-126 124-126 125 50 125 126c0 77-49 125-125 125" id="aX"/><path fill="#fff" d="M1060-1042c53 174 53 479 0 652C990-160 857 15 579 15c-277 0-410-176-479-405-52-173-53-479 0-652 70-230 201-407 479-407 277 0 412 178 481 407zM888-441c36-137 36-414 0-551-45-170-118-306-309-306-190 0-263 137-307 306-36 138-36 414 0 551 45 170 116 306 307 306 190 0 265-138 309-306" id="aY"/><path fill="#fff" d="M617-1433c323 3 534 130 534 444 0 310-216 446-534 453H387V0H194v-1433h423zm340 444c0-197-128-291-340-291H387v590h230c207-4 340-97 340-299" id="aZ"/><path fill="#fff" d="M338-1150c4 31 6 65 6 97V0H174v-1433c59 2 132-6 183 5 10 2 18 13 27 28l495 882c19 31 31 68 45 104 14-38 27-71 46-105l485-881c25-58 137-23 210-33V0h-170c2-381-5-772 4-1147l-491 896c-27 62-134 61-168 0" id="ba"/><g id="l"><use transform="matrix(0.005666666666666667,0,0,0.005666666666666667,0,0)" xlink:href="#aT"/><use transform="matrix(0.005666666666666667,0,0,0.005666666666666667,6.573333333333334,0)" xlink:href="#aU"/><use transform="matrix(0.005666666666666667,0,0,0.005666666666666667,13.146666666666668,0)" xlink:href="#aX"/><use transform="matrix(0.005666666666666667,0,0,0.005666666666666667,16.00266666666667,0)" xlink:href="#aY"/><use transform="matrix(0.005666666666666667,0,0,0.005666666666666667,22.576000000000004,0)" xlink:href="#aY"/><use transform="matrix(0.005666666666666667,0,0,0.005666666666666667,29.14933333333334,0)" xlink:href="#aZ"/><use transform="matrix(0.005666666666666667,0,0,0.005666666666666667,36.074000000000005,0)" xlink:href="#ba"/></g><path fill="#fff" d="M353-563c7 250 130 409 378 409s377-159 377-408v-871h193v871c-5 275-133 450-332 535-136 58-340 59-476 0-200-85-333-259-333-535v-871h193v870" id="bb"/><path fill="#fff" d="M1150-1433v163H687V0H493v-1270H28v-163h1122" id="bc"/><path fill="#fff" d="M1289-200C1173-69 1017 19 773 16c-339-4-539-180-634-435-65-176-67-421 3-594 104-257 318-431 668-436 220-3 359 75 476 182-27 35-48 75-79 105-60 21-86-37-135-56-109-71-336-85-474-24-190 83-310 257-310 526 0 268 114 444 301 527 146 65 383 42 487-33 24-17 50-36 75-59 20-19 44-22 62-2" id="bd"/><g id="m"><use transform="matrix(0.005666666666666667,0,0,0.005666666666666667,0,0)" xlink:href="#bb"/><use transform="matrix(0.005666666666666667,0,0,0.005666666666666667,8.273333333333333,0)" xlink:href="#bc"/><use transform="matrix(0.005666666666666667,0,0,0.005666666666666667,14.404666666666667,0)" xlink:href="#bd"/></g><path fill="#333" d="M415-222h579V0H146v-1446h269v1224" id="be"/><path fill="#333" d="M449 0H179v-1446h270V0" id="bf"/><path fill="#333" d="M1284-209C1170-69 1008 19 759 16c-347-4-553-182-649-442-66-178-66-423 6-596 108-261 330-435 688-440 220-3 375 79 488 188l-90 125c-16 32-68 39-102 12-71-55-162-101-298-96-304 11-465 201-465 510 0 241 101 401 267 477 125 58 330 39 424-24 42-17 97-111 150-54" id="bg"/><g id="n"><use transform="matrix(0.008888888888888889,0,0,0.008888888888888889,0,0)" xlink:href="#ac"/><use transform="matrix(0.008888888888888889,0,0,0.008888888888888889,12.622222222222222,0)" xlink:href="#be"/><use transform="matrix(0.008888888888888889,0,0,0.008888888888888889,21.813333333333333,0)" xlink:href="#bf"/><use transform="matrix(0.008888888888888889,0,0,0.008888888888888889,27.39555555555555,0)" xlink:href="#bg"/><use transform="matrix(0.008888888888888889,0,0,0.008888888888888889,39.315555555555555,0)" xlink:href="#aa"/></g><filter id="o" filterUnits="objectBoundingBox" x="-.11" y="-.12" width="1.25" height="1.38"><feOffset result="offOut" in="SourceAlpha" dx="2.05" dy="5.64"/><feGaussianBlur result="blurOut" in="offOut" stdDeviation="7.5"/><feColorMatrix result="colorOut" in="blurOut" values="0 0 0 0 0 0 0 0 0 0 0 0 0 0 0 0 0 0 0.14901960784313725 0"/><feBlend in="SourceGraphic" in2="colorOut"/></filter><g id="p"><use transform="matrix(0.008888888888888889,0,0,0.008888888888888889,0,0)" xlink:href="#U"/><use transform="matrix(0.008888888888888889,0,0,0.008888888888888889,9.537777777777778,0)" xlink:href="#U"/><use transform="matrix(0.008888888888888889,0,0,0.008888888888888889,19.075555555555557,0)" xlink:href="#V"/></g><path fill="#333" d="M4-1446h217c48-1 77 26 90 61 125 326 256 646 373 977 12 34 20 70 29 108 15-77 34-144 57-203l339-882c12-30 45-61 89-61h217L831 0H588" id="bh"/><g id="q"><use transform="matrix(0.008888888888888889,0,0,0.008888888888888889,0,0)" xlink:href="#U"/><use transform="matrix(0.008888888888888889,0,0,0.008888888888888889,9.537777777777778,0)" xlink:href="#aa"/><use transform="matrix(0.008888888888888889,0,0,0.008888888888888889,19.715555555555557,0)" xlink:href="#ab"/><use transform="matrix(0.008888888888888889,0,0,0.008888888888888889,31.36,0)" xlink:href="#bh"/><use transform="matrix(0.008888888888888889,0,0,0.008888888888888889,43.98222222222222,0)" xlink:href="#aa"/><use transform="matrix(0.008888888888888889,0,0,0.008888888888888889,54.16,0)" xlink:href="#ab"/></g><path fill="#512fc9" d="M23 0v-37h61v-169l-59 37v-38l62-41h46v211h57V0H23" id="bi"/><path fill="#512fc9" d="M24 0v-54h51V0H24" id="bj"/><g id="r"><use transform="matrix(0.05,0,0,0.05,0,0)" xlink:href="#bi"/><use transform="matrix(0.05,0,0,0.05,10,0)" xlink:href="#bj"/></g><path fill="#512fc9" d="M1353 0h-150c-36 0-55-21-66-46l-134-346H360L226-46c-9 23-33 46-66 46H10l573-1433h197zM414-532h535l-225-583c-15-36-29-81-43-135-13 48-26 95-42 136" id="bk"/><path fill="#512fc9" d="M344-1473V0H166v-1473h178" id="bl"/><path fill="#512fc9" d="M344-1013V0H166v-1013h178zm-88-446c77 0 128 52 128 128 0 75-52 126-128 126-75 0-126-51-126-126 0-76 50-128 126-128" id="bm"/><path fill="#512fc9" d="M895-142C799-8 539 62 344-21 173-94 74-262 74-507c0-317 160-522 477-522 151 0 254 54 333 132-21 26-39 58-63 81-42 20-68-19-100-34-42-20-91-42-160-40-219 6-304 160-304 383 0 220 82 376 295 383 106 4 169-38 223-84 22-19 53-21 70 1" id="bn"/><path fill="#512fc9" d="M954-142C850-8 572 61 364-22 180-96 74-268 74-527c0-234 108-389 275-463 59-26 125-39 198-39 273 0 420 174 420 453 0 48-2 70-43 70H250c8 226 98 375 322 380 114 2 191-38 258-82 70-46 94 37 124 66zM807-617c-5-171-86-278-256-281-181-3-273 116-295 281h551" id="bo"/><g id="s"><use transform="matrix(0.009,0,0,0.009,0,0)" xlink:href="#bk"/><use transform="matrix(0.009,0,0,0.009,12.239999999999998,0)" xlink:href="#bl"/><use transform="matrix(0.009,0,0,0.009,16.848,0)" xlink:href="#bm"/><use transform="matrix(0.009,0,0,0.009,21.456,0)" xlink:href="#bn"/><use transform="matrix(0.009,0,0,0.009,29.862,0)" xlink:href="#bo"/></g><path fill="#512fc9" d="M602 14c-133 0-212-47-278-119v448H146v-1356c60 6 147-22 154 37l15 120c80-93 179-175 341-175 282 0 383 224 383 518 0 237-92 406-253 487-54 27-116 40-184 40zm253-527c-3-212-53-374-258-374-136 0-207 69-273 153v490c57 77 121 120 238 120 207 0 295-164 293-389" id="bp"/><path fill="#512fc9" d="M584-856c-148 6-210 94-260 211V0H146v-1013c62 7 151-25 157 49l12 158c66-138 184-259 384-216 23 5 44 16 63 27l-23 133c-5 17-15 25-31 25-36 0-71-21-124-19" id="bq"/><path fill="#512fc9" d="M409-112c121-3 207-52 207-167 0-134-157-142-264-181-133-48-263-98-263-275 0-197 153-290 360-294 139-3 243 49 317 118-26 35-46 114-111 76-53-31-114-63-202-61-108 3-195 44-195 147 0 129 158 136 262 175 128 48 263 93 263 264C783-89 627 12 400 16 255 19 139-39 62-107c27-41 57-128 128-81 57 38 118 78 219 76" id="br"/><path fill="#512fc9" d="M598-887c-125 2-207 68-274 141V0H146v-1013c60 6 147-22 154 37l14 110c82-87 177-163 336-163 232 0 339 151 339 384V0H811v-645c0-149-65-244-213-242" id="bs"/><path fill="#512fc9" d="M698-76c-54 52-145 92-245 92-162 1-249-96-249-260v-620c-58-9-160 26-160-39v-71l166-21 41-313c4-50 80-30 131-34v349h290v129H382v608c-2 78 40 125 111 126 60 2 88-33 128-48 9 0 18 6 25 17" id="bt"/><g id="t"><use transform="matrix(0.009,0,0,0.009,0,0)" xlink:href="#bp"/><use transform="matrix(0.009,0,0,0.009,9.936,0)" xlink:href="#bq"/><use transform="matrix(0.009,0,0,0.009,17.189999999999998,0)" xlink:href="#bo"/><use transform="matrix(0.009,0,0,0.009,26.621999999999996,0)" xlink:href="#br"/><use transform="matrix(0.009,0,0,0.009,34.434,0)" xlink:href="#bo"/><use transform="matrix(0.009,0,0,0.009,43.866,0)" xlink:href="#bs"/><use transform="matrix(0.009,0,0,0.009,53.873999999999995,0)" xlink:href="#bt"/><use transform="matrix(0.009,0,0,0.009,60.587999999999994,0)" xlink:href="#br"/></g><path fill="#512fc9" d="M537-1031c235 0 353 147 353 383V0c-58-5-129 17-142-42l-20-94C637-55 545 19 375 16 200 13 92-76 92-253c0-184 160-243 332-285 79-19 176-28 291-31 12-184-31-318-200-318-113 0-181 45-243 91-36 26-82 14-99-17l-32-57c101-96 215-161 396-161zM263-261c0 103 62 152 165 152 140 0 216-64 287-136v-211c-141 4-258 19-349 60-60 27-103 62-103 135" id="bu"/><use transform="matrix(0.009,0,0,0.009,0,0)" xlink:href="#bu" id="u"/><path fill="#512fc9" d="M598-887c-125 2-207 68-274 141V0H146v-1473h178v596c81-82 173-152 326-152 232 0 339 151 339 384V0H811v-645c0-149-65-244-213-242" id="bv"/><path fill="#512fc9" d="M1038-507c0 321-164 521-482 521S72-187 72-507c0-248 107-410 284-485 60-25 126-37 200-37 317 0 482 201 482 522zm-782 1c0 225 80 381 300 381 213 0 298-159 298-381 0-223-84-383-298-383-221 0-300 158-300 383" id="bw"/><g id="v"><use transform="matrix(0.009,0,0,0.009,0,0)" xlink:href="#br"/><use transform="matrix(0.009,0,0,0.009,7.811999999999999,0)" xlink:href="#bv"/><use transform="matrix(0.009,0,0,0.009,17.82,0)" xlink:href="#bw"/><use transform="matrix(0.009,0,0,0.009,27.828,0)" xlink:href="#bq"/><use transform="matrix(0.009,0,0,0.009,35.082,0)" xlink:href="#bt"/></g><path fill="#512fc9" d="M18-1013h146c28-1 47 18 55 37l257 652c18 45 27 93 37 143 12-50 22-98 40-143l260-652c17-60 123-30 192-37L592 0H431" id="bx"/><path fill="#512fc9" d="M510-1031c133 0 210 49 277 120v-562h178V0c-60-6-146 21-154-37l-16-123C716-67 616 14 455 14 173 14 72-209 72-503c0-237 94-406 254-487 54-27 115-41 184-41zM256-503c2 212 53 373 258 373 136 0 207-69 273-153v-490c-57-77-121-119-237-119-208 0-296 164-294 389" id="by"/><g id="w"><use transform="matrix(0.009,0,0,0.009,0,0)" xlink:href="#bl"/><use transform="matrix(0.009,0,0,0.009,4.608,0)" xlink:href="#bm"/><use transform="matrix(0.009,0,0,0.009,9.216,0)" xlink:href="#bx"/><use transform="matrix(0.009,0,0,0.009,18.198,0)" xlink:href="#bo"/><use transform="matrix(0.009,0,0,0.009,27.63,0)" xlink:href="#by"/></g><path fill="#512fc9" d="M594-1317c-165 0-237 72-235 231v93h293v129H365V0H186v-861c-49-9-113-4-146-29-24-17-10-67-14-103h160v-98c5-229 120-363 348-363 45 0 87 7 126 20l-4 89c-2 31-28 28-62 28" id="bz"/><g id="x"><use transform="matrix(0.009,0,0,0.009,0,0)" xlink:href="#bn"/><use transform="matrix(0.009,0,0,0.009,8.405999999999999,0)" xlink:href="#bo"/><use transform="matrix(0.009,0,0,0.009,17.837999999999997,0)" xlink:href="#bq"/><use transform="matrix(0.009,0,0,0.009,25.092,0)" xlink:href="#bt"/><use transform="matrix(0.009,0,0,0.009,31.805999999999997,0)" xlink:href="#bm"/><use transform="matrix(0.009,0,0,0.009,36.413999999999994,0)" xlink:href="#bz"/><use transform="matrix(0.009,0,0,0.009,42.48,0)" xlink:href="#bm"/><use transform="matrix(0.009,0,0,0.009,47.087999999999994,0)" xlink:href="#bn"/><use transform="matrix(0.009,0,0,0.009,55.49399999999999,0)" xlink:href="#bu"/><use transform="matrix(0.009,0,0,0.009,64.61999999999999,0)" xlink:href="#bt"/><use transform="matrix(0.009,0,0,0.009,71.33399999999999,0)" xlink:href="#bo"/></g><path fill="#512fc9" d="M14-1013c70 8 177-25 195 37l194 652c10 46 20 89 27 137 77-272 174-527 253-793 13-44 73-34 126-35 27-1 44 16 51 35 81 265 173 518 245 792 7-44 18-96 30-136l198-652c15-59 118-30 186-37L1191 0h-141c-17 0-29-11-36-34-79-245-162-486-237-734-5-15-7-31-10-46-7 32-12 65-23 94L517-34C501 26 405-10 342 0" id="bA"/><g id="y"><use transform="matrix(0.009,0,0,0.009,0,0)" xlink:href="#bA"/><use transform="matrix(0.009,0,0,0.009,13.787999999999998,0)" xlink:href="#bm"/><use transform="matrix(0.009,0,0,0.009,18.395999999999997,0)" xlink:href="#bt"/><use transform="matrix(0.009,0,0,0.009,25.109999999999992,0)" xlink:href="#bv"/></g><path fill="#512fc9" d="M383-519L42-1013h171c30 0 38 9 50 27l248 380c6-19 14-38 26-56l218-320c12-15 21-30 45-31h164L623-529 978 0H807c-30 1-44-19-55-37L497-434c-5 19-11 37-21 52L240-37c-13 16-24 37-53 37H28" id="bB"/><path fill="#512fc9" d="M443 299c-13 26-25 44-64 44H247L432-59 14-1013h154c30-1 46 18 55 37 95 228 197 450 287 682 6 14 8 30 11 45 10-32 18-60 30-90l263-637c18-60 124-30 194-37" id="bC"/><g id="z"><use transform="matrix(0.009,0,0,0.009,0,0)" xlink:href="#bo"/><use transform="matrix(0.009,0,0,0.009,8.892,0)" xlink:href="#bB"/><use transform="matrix(0.009,0,0,0.009,17.964,0)" xlink:href="#bp"/><use transform="matrix(0.009,0,0,0.009,27.9,0)" xlink:href="#bm"/><use transform="matrix(0.009,0,0,0.009,32.507999999999996,0)" xlink:href="#bq"/><use transform="matrix(0.009,0,0,0.009,39.762,0)" xlink:href="#bC"/></g><g id="A"><use transform="matrix(0.009,0,0,0.009,0,0)" xlink:href="#by"/><use transform="matrix(0.009,0,0,0.009,10.062,0)" xlink:href="#bu"/><use transform="matrix(0.009,0,0,0.009,19.188,0)" xlink:href="#bt"/><use transform="matrix(0.009,0,0,0.009,25.901999999999997,0)" xlink:href="#bo"/></g><g id="B"><use transform="matrix(0.009,0,0,0.009,0,0)" xlink:href="#bu"/><use transform="matrix(0.009,0,0,0.009,9.126,0)" xlink:href="#bs"/><use transform="matrix(0.009,0,0,0.009,19.133999999999997,0)" xlink:href="#by"/></g><path fill="#512fc9" d="M550-887c-107 0-172 65-226 132V0H146v-1013c60 6 147-22 154 37l13 104c69-80 148-156 287-157 148-1 223 92 258 211 51-126 153-211 323-211 232 0 338 149 338 384V0h-178v-645c1-148-62-242-203-242-142 0-218 94-218 242V0H742v-645c1-149-54-242-192-242" id="bD"/><g id="C"><use transform="matrix(0.009,0,0,0.009,0,0)" xlink:href="#bt"/><use transform="matrix(0.009,0,0,0.009,6.7139999999999995,0)" xlink:href="#bm"/><use transform="matrix(0.009,0,0,0.009,11.322,0)" xlink:href="#bD"/><use transform="matrix(0.009,0,0,0.009,26.099999999999998,0)" xlink:href="#bo"/></g><path fill="#512fc9" d="M461 16c-231 0-339-149-339-383v-646h178v646c0 148 67 243 213 241 125-2 207-66 274-140v-747h178V0c-60-6-146 22-154-37l-14-109C716-60 619 16 461 16" id="bE"/><g id="D"><use transform="matrix(0.009,0,0,0.009,0,0)" xlink:href="#bm"/><use transform="matrix(0.009,0,0,0.009,4.608,0)" xlink:href="#bs"/><use transform="matrix(0.009,0,0,0.009,14.616,0)" xlink:href="#bn"/><use transform="matrix(0.009,0,0,0.009,23.022,0)" xlink:href="#bl"/><use transform="matrix(0.009,0,0,0.009,27.63,0)" xlink:href="#bE"/><use transform="matrix(0.009,0,0,0.009,37.638,0)" xlink:href="#by"/><use transform="matrix(0.009,0,0,0.009,47.699999999999996,0)" xlink:href="#bo"/><use transform="matrix(0.009,0,0,0.009,57.13199999999999,0)" xlink:href="#by"/></g><g id="E"><use transform="matrix(0.009,0,0,0.009,0,0)" xlink:href="#bm"/><use transform="matrix(0.009,0,0,0.009,4.608,0)" xlink:href="#bs"/></g><g id="F"><use transform="matrix(0.009,0,0,0.009,0,0)" xlink:href="#bt"/><use transform="matrix(0.009,0,0,0.009,6.7139999999999995,0)" xlink:href="#bv"/><use transform="matrix(0.009,0,0,0.009,16.721999999999998,0)" xlink:href="#bo"/></g><g id="G"><use transform="matrix(0.009,0,0,0.009,0,0)" xlink:href="#bu"/><use transform="matrix(0.009,0,0,0.009,9.126,0)" xlink:href="#bs"/><use transform="matrix(0.009,0,0,0.009,19.133999999999997,0)" xlink:href="#by"/></g><path fill="#512fc9" d="M103-704c0-220 160-326 384-326 92 0 169 21 228 57h275c-2 53 13 100-42 108l-115 16c43 79 45 196 5 279-58 120-176 191-351 193-47 0-92-6-134-17-50 22-100 108-36 142 165 88 511-13 621 164 40 65 36 170-4 240-77 134-229 213-441 213-193 0-343-50-415-167-19-32-28-66-28-101 3-117 84-175 178-211-54-27-98-64-94-143 4-90 64-137 129-173-91-51-160-139-160-274zM334-85C254-53 162 38 224 138c97 157 586 133 579-83C799-63 659-58 543-68c-70-6-146-6-209-17zm-67-614c0 134 84 204 220 204 137 0 221-69 221-204 0-129-85-203-221-203-135 0-220 74-220 203" id="bF"/><g id="H"><use transform="matrix(0.009,0,0,0.009,0,0)" xlink:href="#br"/><use transform="matrix(0.009,0,0,0.009,7.811999999999999,0)" xlink:href="#bm"/><use transform="matrix(0.009,0,0,0.009,12.42,0)" xlink:href="#bF"/><use transform="matrix(0.009,0,0,0.009,21.617999999999995,0)" xlink:href="#bs"/><use transform="matrix(0.009,0,0,0.009,31.625999999999994,0)" xlink:href="#bo"/><use transform="matrix(0.009,0,0,0.009,41.057999999999986,0)" xlink:href="#by"/></g><path fill="#512fc9" d="M608 14c-142 0-221-61-286-144-9 50 6 130-55 130H152v-1473h179v606c78-87 176-162 331-162 283 0 384 222 384 516 0 237-93 406-254 487-54 27-116 40-184 40zm254-527c-2-212-53-374-258-374-136 0-207 69-273 153v490c56 77 120 120 237 120 208 0 296-164 294-389" id="bG"/><g id="I"><use transform="matrix(0.009,0,0,0.009,0,0)" xlink:href="#bG"/><use transform="matrix(0.009,0,0,0.009,9.828,0)" xlink:href="#bC"/></g><path fill="#512fc9" d="M1289-200C1173-69 1017 19 773 16c-339-4-539-180-634-435-65-176-67-421 3-594 104-257 318-431 668-436 220-3 359 75 476 182-27 35-48 75-79 105-60 21-86-37-135-56-109-71-336-85-474-24-190 83-310 257-310 526 0 268 114 444 301 527 146 65 383 42 487-33 24-17 50-36 75-59 20-19 44-22 62-2" id="bH"/><path fill="#512fc9" d="M212 15C136 15 88-34 88-110s48-126 124-126 125 50 125 126c0 77-49 125-125 125" id="bI"/><g id="J"><use transform="matrix(0.009,0,0,0.009,0,0)" xlink:href="#bH"/><use transform="matrix(0.009,0,0,0.009,12.329999999999998,0)" xlink:href="#bk"/><use transform="matrix(0.009,0,0,0.009,24.569999999999997,0)" xlink:href="#bI"/></g><path fill="#512fc9" d="M513-145c178-4 292-88 292-262 0-193-194-213-343-263-182-61-347-142-342-385 4-188 111-303 254-361 117-48 292-41 408 5 66 26 124 62 173 110-22 37-36 86-66 115-51 25-83-28-123-48-53-26-114-56-200-54-157 4-266 71-266 223 0 186 200 204 344 258 175 65 343 135 343 372 0 289-185 446-480 451-198 4-349-81-449-187 26-36 42-83 76-111 60-25 93 39 140 65 62 34 135 75 239 72" id="bJ"/><g id="L"><use transform="matrix(0.009,0,0,0.009,0,0)" xlink:href="#bJ"/><use transform="matrix(0.009,0,0,0.009,9.54,0)" xlink:href="#bo"/><use transform="matrix(0.009,0,0,0.009,18.971999999999998,0)" xlink:href="#bq"/><use transform="matrix(0.009,0,0,0.009,26.226,0)" xlink:href="#bx"/><use transform="matrix(0.009,0,0,0.009,35.208,0)" xlink:href="#bo"/><use transform="matrix(0.009,0,0,0.009,44.63999999999999,0)" xlink:href="#bq"/></g><g id="M"><use transform="matrix(0.009,0,0,0.009,0,0)" xlink:href="#bA"/><use transform="matrix(0.009,0,0,0.009,13.787999999999998,0)" xlink:href="#bm"/><use transform="matrix(0.009,0,0,0.009,18.395999999999997,0)" xlink:href="#bl"/><use transform="matrix(0.009,0,0,0.009,23.003999999999998,0)" xlink:href="#bl"/></g><path fill="#512fc9" d="M331-1473v867c49 0 82 0 108-28l320-343c20-19 33-36 70-36h162C858-871 723-729 590-586c-9 9-19 16-30 23 25 17 41 39 60 63L1016 0c-81-8-184 18-227-35L456-450c-21-27-31-33-75-34h-50V0H152v-1473h179" id="bK"/><g id="N"><use transform="matrix(0.009,0,0,0.009,0,0)" xlink:href="#bn"/><use transform="matrix(0.009,0,0,0.009,8.405999999999999,0)" xlink:href="#bv"/><use transform="matrix(0.009,0,0,0.009,18.413999999999998,0)" xlink:href="#bo"/><use transform="matrix(0.009,0,0,0.009,27.845999999999997,0)" xlink:href="#bn"/><use transform="matrix(0.009,0,0,0.009,36.251999999999995,0)" xlink:href="#bK"/></g><g id="O"><use transform="matrix(0.009,0,0,0.009,0,0)" xlink:href="#bx"/><use transform="matrix(0.009,0,0,0.009,9.216,0)" xlink:href="#bu"/><use transform="matrix(0.009,0,0,0.009,18.342,0)" xlink:href="#bl"/><use transform="matrix(0.009,0,0,0.009,22.95,0)" xlink:href="#bm"/><use transform="matrix(0.009,0,0,0.009,27.557999999999996,0)" xlink:href="#by"/><use transform="matrix(0.009,0,0,0.009,37.62,0)" xlink:href="#bm"/><use transform="matrix(0.009,0,0,0.009,42.227999999999994,0)" xlink:href="#bt"/><use transform="matrix(0.009,0,0,0.009,48.94199999999999,0)" xlink:href="#bC"/></g><g id="P"><use transform="matrix(0.009,0,0,0.009,0,0)" xlink:href="#bw"/><use transform="matrix(0.009,0,0,0.009,10.008,0)" xlink:href="#bz"/></g><g id="Q"><use transform="matrix(0.009,0,0,0.009,0,0)" xlink:href="#bt"/><use transform="matrix(0.009,0,0,0.009,6.7139999999999995,0)" xlink:href="#bv"/><use transform="matrix(0.009,0,0,0.009,16.721999999999998,0)" xlink:href="#bo"/></g><g id="R"><use transform="matrix(0.009,0,0,0.009,0,0)" xlink:href="#br"/><use transform="matrix(0.009,0,0,0.009,7.811999999999999,0)" xlink:href="#bm"/><use transform="matrix(0.009,0,0,0.009,12.42,0)" xlink:href="#bF"/><use transform="matrix(0.009,0,0,0.009,21.617999999999995,0)" xlink:href="#bs"/><use transform="matrix(0.009,0,0,0.009,31.625999999999994,0)" xlink:href="#bu"/><use transform="matrix(0.009,0,0,0.009,40.751999999999995,0)" xlink:href="#bt"/><use transform="matrix(0.009,0,0,0.009,47.465999999999994,0)" xlink:href="#bE"/><use transform="matrix(0.009,0,0,0.009,57.47399999999999,0)" xlink:href="#bq"/><use transform="matrix(0.009,0,0,0.009,64.728,0)" xlink:href="#bo"/></g><path fill="#512fc9" d="M-17 228c126 0 183-30 183-153v-1088h178V75c-3 186-98 287-286 289-47 0-79-7-114-20l8-96c3-18 11-20 31-20zm273-1687c77 0 128 52 128 128 0 75-52 126-128 126-75 0-126-51-126-126 0-76 50-128 126-128" id="bL"/><g id="S"><use transform="matrix(0.009,0,0,0.009,0,0)" xlink:href="#bq"/><use transform="matrix(0.009,0,0,0.009,7.254,0)" xlink:href="#bo"/><use transform="matrix(0.009,0,0,0.009,16.686,0)" xlink:href="#bL"/><use transform="matrix(0.009,0,0,0.009,21.258,0)" xlink:href="#bo"/><use transform="matrix(0.009,0,0,0.009,30.689999999999998,0)" xlink:href="#bn"/><use transform="matrix(0.009,0,0,0.009,39.096,0)" xlink:href="#bt"/></g><g id="T"><use transform="matrix(0.009,0,0,0.009,0,0)" xlink:href="#bu"/><use transform="matrix(0.009,0,0,0.009,9.126,0)" xlink:href="#bn"/><use transform="matrix(0.009,0,0,0.009,17.531999999999996,0)" xlink:href="#bn"/><use transform="matrix(0.009,0,0,0.009,25.937999999999995,0)" xlink:href="#bo"/><use transform="matrix(0.009,0,0,0.009,35.36999999999999,0)" xlink:href="#br"/><use transform="matrix(0.009,0,0,0.009,43.18199999999999,0)" xlink:href="#br"/></g></defs></g></svg>