<svg xmlns="http://www.w3.org/2000/svg" xmlns:xlink="http://www.w3.org/1999/xlink" xmlns:lucid="lucid" width="375.49" height="222.66"><g transform="translate(0 -200)" lucid:page-tab-id="X9Nq4MXNBV22"><path d="M20 224a4 4 0 0 1 4-4h327.5a4 4 0 0 1 4 4v174.66a4 4 0 0 1-4 4H24a4 4 0 0 1-4-4z" stroke="#000" stroke-opacity="0" stroke-width="2" fill="#651fff"/><path d="M20 225.07h192.45v26.52H20z" stroke="#000" stroke-opacity="0" stroke-width="2" fill="#fff" fill-opacity="0"/><use xlink:href="#a" transform="matrix(1,0,0,1,25,230.06549055016694) translate(43.79 13.16)"/><use xlink:href="#b" transform="matrix(1,0,0,1,25,230.06549055016694) translate(75.01 13.16)"/><path d="M31.17 266.07h81.23v26.52H31.17z" stroke="#000" stroke-opacity="0" stroke-width="2" fill="#fff" fill-opacity="0"/><use xlink:href="#c" transform="matrix(1,0,0,1,36.169149754562056,271.06549055016694) translate(0 13.379333333333333)"/><path d="M148.95 264.9H281.7v36.17H148.96z" stroke="#000" stroke-opacity="0" stroke-width="2" fill="#fff" fill-opacity="0"/><use xlink:href="#d" transform="matrix(1,0,0,1,153.95291080266682,269.88858766302565) translate(0 11.186)"/><use xlink:href="#e" transform="matrix(1,0,0,1,153.95291080266682,269.88858766302565) translate(54.03733333333334 11.186)"/><use xlink:href="#f" transform="matrix(1,0,0,1,153.95291080266682,269.88858766302565) translate(0 24.786)"/><use xlink:href="#g" transform="matrix(1,0,0,1,153.95291080266682,269.88858766302565) translate(48.68800000000001 24.786)"/><path d="M31.17 299.07H153v26.52H31.17z" stroke="#000" stroke-opacity="0" stroke-width="2" fill="#fff" fill-opacity="0"/><use xlink:href="#h" transform="matrix(1,0,0,1,36.169149754562106,304.06549055016694) translate(0 13.379333333333333)"/><use xlink:href="#i" transform="matrix(1,0,0,1,36.169149754562106,304.06549055016694) translate(33.57711111111111 13.379333333333333)"/><path d="M31.17 338.26H153v26.52H31.17z" stroke="#000" stroke-opacity="0" stroke-width="2" fill="#fff" fill-opacity="0"/><use xlink:href="#j" transform="matrix(1,0,0,1,36.16914975456205,343.2562478329319) translate(0 13.379333333333333)"/><path d="M148.95 302.07H355.5v21.78H148.94z" stroke="#000" stroke-opacity="0" stroke-width="2" fill="#fff" fill-opacity="0"/><use xlink:href="#k" transform="matrix(1,0,0,1,153.9529108026668,307.06549055016694) translate(0 11.186)"/><use xlink:href="#l" transform="matrix(1,0,0,1,153.9529108026668,307.06549055016694) translate(0 24.786)"/><path d="M148.95 338.26H335.5v64.4H148.94z" stroke="#000" stroke-opacity="0" stroke-width="2" fill="#fff" fill-opacity="0"/><g><use xlink:href="#m" transform="matrix(1,0,0,1,153.9529108026668,343.2617013851492) translate(0 11.186)"/><use xlink:href="#n" transform="matrix(1,0,0,1,153.9529108026668,343.2617013851492) translate(33.167 11.186)"/><use xlink:href="#o" transform="matrix(1,0,0,1,153.9529108026668,343.2617013851492) translate(0 24.786)"/><use xlink:href="#p" transform="matrix(1,0,0,1,153.9529108026668,343.2617013851492) translate(75.854 24.786)"/><use xlink:href="#q" transform="matrix(1,0,0,1,153.9529108026668,343.2617013851492) translate(0 38.385999999999996)"/><use xlink:href="#r" transform="matrix(1,0,0,1,153.9529108026668,343.2617013851492) translate(24.089000000000002 38.385999999999996)"/><use xlink:href="#s" transform="matrix(1,0,0,1,153.9529108026668,343.2617013851492) translate(64.226 38.385999999999996)"/><use xlink:href="#t" transform="matrix(1,0,0,1,153.9529108026668,343.2617013851492) translate(0 51.986)"/></g><path d="M29.5 257.67H346v.92H29.5z" stroke="#000" stroke-opacity="0" stroke-width="2" fill="#fff" fill-opacity=".2"/><path d="M333.34 228.6c1.17 0 2.15.96 2.15 2.16v18.67c0 1.2-1 2.16-2.16 2.16H308.9c-1.17 0-2.15-.97-2.15-2.17v-18.67c0-1.2.98-2.16 2.16-2.16h24.44zm0 1.45H308.9c-.4 0-.7.32-.7.7v18.68c0 .4.3.74.7.74h24.44c.4 0 .7-.33.7-.74v-18.67c0-.4-.3-.7-.7-.7zm-14.37 15.8c.4 0 .72.32.72.7 0 .42-.33.74-.73.74h-7.2c-.4 0-.7-.33-.7-.74 0-.4.3-.72.7-.72h7.2zm9.34-13.8l1.2.85h1.42l.46 1.38 1.15.85-.43 1.38.43 1.4-1.15.8-.2.6v7.26c0 .3-.17.55-.43.66-.1.05-.2.07-.3.07-.16 0-.36-.1-.5-.24l-1.64-1.63-1.63 1.63c-.2.2-.52.28-.78.16-.3-.1-.47-.36-.47-.66v-7.25l-.17-.6-1.18-.8.46-1.4-.46-1.37 1.18-.85.43-1.38h1.43l1.18-.85zm-1.17 8.04h-.26v4.73l.92-.94c.28-.3.74-.3 1.02 0l.92.93v-4.74h-.25l-1.2.85-1.17-.86zm-6.73 2.87c.4 0 .72.32.72.7 0 .43-.3.75-.72.75h-8.62c-.4 0-.72-.32-.72-.74 0-.4.32-.7.72-.7h8.62zm0-2.88c.4 0 .72.32.72.7 0 .42-.3.74-.72.74h-8.62c-.4 0-.72-.32-.72-.73 0-.38.32-.7.72-.7h8.62zm7.9-6.26l-.68.5h-.9l-.25.83-.7.5.27.84-.26.84.7.5.25.83h.9l.68.5.7-.5h.9l.25-.83.7-.5-.27-.83.26-.82-.7-.5-.25-.83h-.9l-.7-.5zm-7.9 3.38c.4 0 .72.32.72.7 0 .43-.3.75-.72.75h-8.62c-.4 0-.72-.32-.72-.74 0-.4.32-.7.72-.7h8.62zm0-4.3c.4 0 .72.32.72.7 0 .4-.3.73-.72.73h-8.62c-.4 0-.72-.33-.72-.72 0-.4.32-.7.72-.7h8.62z" stroke="#000" stroke-opacity="0" fill="#fff"/><defs><path fill="#fff" d="M1366 0h-271v-632H417V0H146v-1446h271v622h678v-622h271V0" id="u"/><path fill="#fff" d="M361-1005c121-49 297-49 417 0 184 74 298 236 298 490 0 330-178 530-506 530C241 15 61-185 61-515c0-254 115-416 300-490zm-45 492c0 201 65 338 254 338 188 0 251-137 251-338s-63-340-251-340c-189 0-254 139-254 340" id="v"/><path fill="#fff" d="M254-198c95 60 334 64 323-83-9-119-156-122-253-159C192-490 72-550 72-729c0-214 163-309 387-313 145-3 264 55 338 127-26 36-45 82-77 111-69 21-111-33-176-48-103-23-247 0-238 102 11 114 156 118 251 155 126 49 251 100 251 270C808-59 575 48 294 6 192-9 106-54 42-110c28-39 43-95 83-120 49-31 96 11 129 32" id="w"/><path fill="#fff" d="M738-75c-64 55-158 90-269 91-176 2-277-109-277-284v-573c-65-4-153 21-153-52v-98l165-27 52-280c10-66 115-35 183-42v323h270v176H439v556c-1 59 32 101 88 102 48 1 68-25 104-34 19 1 25 9 33 22" id="x"/><g id="a"><use transform="matrix(0.006666666666666667,0,0,0.006666666666666667,0,0)" xlink:href="#u"/><use transform="matrix(0.006666666666666667,0,0,0.006666666666666667,10.08,0)" xlink:href="#v"/><use transform="matrix(0.006666666666666667,0,0,0.006666666666666667,17.66,0)" xlink:href="#w"/><use transform="matrix(0.006666666666666667,0,0,0.006666666666666667,23.486666666666668,0)" xlink:href="#x"/></g><path fill="#fff" d="M1284-209C1170-69 1008 19 759 16c-347-4-553-182-649-442-66-178-66-423 6-596 108-261 330-435 688-440 220-3 375 79 488 188l-90 125c-16 32-68 39-102 12-71-55-162-101-298-96-304 11-465 201-465 510 0 241 101 401 267 477 125 58 330 39 424-24 42-17 97-111 150-54" id="y"/><path fill="#fff" d="M991-153C899-47 760 15 568 15 237 15 63-197 63-535c0-237 116-392 287-467 61-27 129-40 206-40 287 0 444 174 444 465 0 54-3 95-57 95H309c4 226 158 349 385 292 52-13 93-39 132-62 32-19 73-16 93 9zM778-631c-4-143-73-234-217-234-154 0-226 95-247 234h464" id="z"/><path fill="#fff" d="M604-806c-122 5-180 74-225 167V0H132v-1026c83 11 206-35 218 62l15 124c63-106 147-205 295-205 51 0 93 12 126 35l-32 185c-4 23-15 33-40 33-33 0-65-16-110-14" id="A"/><path fill="#fff" d="M395-1026V0H148v-1026h247zm-123-457c96 0 160 62 160 158 0 94-65 155-160 155-93 0-156-62-156-155 0-95 61-158 156-158" id="B"/><path fill="#fff" d="M601-1285c-158 0-198 102-186 268h267v176H423V0H176v-840c-61-14-153-3-153-76v-101h153c-17-292 113-454 383-454 47 0 91 6 132 19l-5 124c-1 41-44 43-85 43" id="C"/><path fill="#fff" d="M928-153C839-49 712 15 524 15c-227 0-358-131-424-305-47-123-49-306-4-434 67-190 213-318 465-318 165 0 270 58 357 143-29 37-52 81-86 112-71 26-104-41-170-55-24-5-52-12-86-12-192 5-260 143-260 339 0 194 67 336 254 342 98 3 148-38 200-79 26-20 67-17 87 9" id="D"/><path fill="#fff" d="M556-1045c246 0 380 151 380 397V0c-79-6-181 23-196-53l-22-73C630-49 541 18 379 16 194 13 81-77 81-262c0-184 152-247 321-292 78-21 176-31 293-34 10-155-29-262-170-262-104 0-161 40-224 77-47 28-107 5-127-31l-45-79c118-108 260-162 427-162zM317-275c-3 86 56 121 139 121 117 0 179-51 239-111v-173c-122 6-219 17-297 53-49 22-79 51-81 110" id="E"/><g id="b"><use transform="matrix(0.006666666666666667,0,0,0.006666666666666667,0,0)" xlink:href="#y"/><use transform="matrix(0.006666666666666667,0,0,0.006666666666666667,8.940000000000001,0)" xlink:href="#z"/><use transform="matrix(0.006666666666666667,0,0,0.006666666666666667,16.06666666666667,0)" xlink:href="#A"/><use transform="matrix(0.006666666666666667,0,0,0.006666666666666667,21.513333333333335,0)" xlink:href="#x"/><use transform="matrix(0.006666666666666667,0,0,0.006666666666666667,26.673333333333336,0)" xlink:href="#B"/><use transform="matrix(0.006666666666666667,0,0,0.006666666666666667,30.28666666666667,0)" xlink:href="#C"/><use transform="matrix(0.006666666666666667,0,0,0.006666666666666667,34.96,0)" xlink:href="#B"/><use transform="matrix(0.006666666666666667,0,0,0.006666666666666667,38.57333333333334,0)" xlink:href="#D"/><use transform="matrix(0.006666666666666667,0,0,0.006666666666666667,44.93333333333334,0)" xlink:href="#E"/><use transform="matrix(0.006666666666666667,0,0,0.006666666666666667,51.91333333333334,0)" xlink:href="#x"/><use transform="matrix(0.006666666666666667,0,0,0.006666666666666667,57.07333333333334,0)" xlink:href="#z"/></g><path fill="#fff" d="M1058-1446v214H417v401h505v207H417v409h641V0H146v-1446h912" id="F"/><path fill="#fff" d="M375-529L38-1026h238c37 0 48 9 63 32l215 343c8-25 17-47 31-68l173-270c15-21 26-37 57-37h227L704-540 1056 0H818c-37 1-57-23-71-46L529-403c-6 24-14 44-25 60L312-46c-14 20-33 47-67 46H24" id="G"/><path fill="#fff" d="M635 15C514 15 442-25 379-85v420H132v-1361c64 5 145-11 192 11 33 24 28 86 42 129 78-86 174-159 331-159 277 0 379 232 379 524 0 241-96 412-258 495-54 27-116 41-183 41zm186-536c0-181-37-329-209-329-117 0-175 55-233 124v460c48 60 104 93 198 93 188 0 244-152 244-348" id="H"/><path fill="#fff" d="M265 14c-92 0-152-57-152-150 0-92 60-151 152-151 91 0 151 60 151 151 0 92-59 150-151 150zm0-713c-92 0-152-57-152-150 0-92 60-151 152-151 91 0 151 60 151 151 0 92-59 150-151 150" id="I"/><g id="c"><use transform="matrix(0.0067777777777777775,0,0,0.0067777777777777775,0,0)" xlink:href="#F"/><use transform="matrix(0.0067777777777777775,0,0,0.0067777777777777775,7.760555555555555,0)" xlink:href="#G"/><use transform="matrix(0.0067777777777777775,0,0,0.0067777777777777775,15.080555555555556,0)" xlink:href="#H"/><use transform="matrix(0.0067777777777777775,0,0,0.0067777777777777775,22.746222222222222,0)" xlink:href="#B"/><use transform="matrix(0.0067777777777777775,0,0,0.0067777777777777775,26.419777777777778,0)" xlink:href="#A"/><use transform="matrix(0.0067777777777777775,0,0,0.0067777777777777775,31.95722222222222,0)" xlink:href="#z"/><use transform="matrix(0.0067777777777777775,0,0,0.0067777777777777775,39.202666666666666,0)" xlink:href="#w"/><use transform="matrix(0.0067777777777777775,0,0,0.0067777777777777775,45.126444444444445,0)" xlink:href="#I"/></g><path fill="#fff" d="M1365-1009c68 170 68 416 0 586C1264-171 1053 0 710 0H174v-1433h536c343 5 555 172 655 424zM710-157c338-11 507-216 507-559s-169-560-507-560H369v1119h341" id="J"/><path fill="#fff" d="M954-142C850-8 572 61 364-22 180-96 74-268 74-527c0-234 108-389 275-463 59-26 125-39 198-39 273 0 420 174 420 453 0 48-2 70-43 70H250c8 226 98 375 322 380 114 2 191-38 258-82 70-46 94 37 124 66zM807-617c-5-171-86-278-256-281-181-3-273 116-295 281h551" id="K"/><path fill="#fff" d="M895-142C799-8 539 62 344-21 173-94 74-262 74-507c0-317 160-522 477-522 151 0 254 54 333 132-21 26-39 58-63 81-42 20-68-19-100-34-42-20-91-42-160-40-219 6-304 160-304 383 0 220 82 376 295 383 106 4 169-38 223-84 22-19 53-21 70 1" id="L"/><path fill="#fff" d="M550-887c-107 0-172 65-226 132V0H146v-1013c60 6 147-22 154 37l13 104c69-80 148-156 287-157 148-1 223 92 258 211 51-126 153-211 323-211 232 0 338 149 338 384V0h-178v-645c1-148-62-242-203-242-142 0-218 94-218 242V0H742v-645c1-149-54-242-192-242" id="M"/><path fill="#fff" d="M608 14c-142 0-221-61-286-144-9 50 6 130-55 130H152v-1473h179v606c78-87 176-162 331-162 283 0 384 222 384 516 0 237-93 406-254 487-54 27-116 40-184 40zm254-527c-2-212-53-374-258-374-136 0-207 69-273 153v490c56 77 120 120 237 120 208 0 296-164 294-389" id="N"/><path fill="#fff" d="M584-856c-148 6-210 94-260 211V0H146v-1013c62 7 151-25 157 49l12 158c66-138 184-259 384-216 23 5 44 16 63 27l-23 133c-5 17-15 25-31 25-36 0-71-21-124-19" id="O"/><g id="d"><use transform="matrix(0.005666666666666667,0,0,0.005666666666666667,0,0)" xlink:href="#J"/><use transform="matrix(0.005666666666666667,0,0,0.005666666666666667,8.534,0)" xlink:href="#K"/><use transform="matrix(0.005666666666666667,0,0,0.005666666666666667,14.472666666666667,0)" xlink:href="#L"/><use transform="matrix(0.005666666666666667,0,0,0.005666666666666667,19.765333333333338,0)" xlink:href="#K"/><use transform="matrix(0.005666666666666667,0,0,0.005666666666666667,25.704,0)" xlink:href="#M"/><use transform="matrix(0.005666666666666667,0,0,0.005666666666666667,35.00866666666667,0)" xlink:href="#N"/><use transform="matrix(0.005666666666666667,0,0,0.005666666666666667,41.344,0)" xlink:href="#K"/><use transform="matrix(0.005666666666666667,0,0,0.005666666666666667,47.28266666666667,0)" xlink:href="#O"/></g><path fill="#fff" d="M287-136h308c2-355-4-716 3-1066L342-983c-20 23-68 15-84-7l-56-77 426-369h145v1300h282V0H287v-136" id="P"/><path fill="#fff" d="M133-1045c40-248 190-404 468-404 261 0 430 139 430 399 0 258-162 381-297 519L357-145c48-13 103-24 160-24h480c81-4 61 93 63 169H104c-2-58 0-105 32-137 189-188 386-374 563-573 79-89 150-179 150-335 0-164-97-251-258-251-155 0-250 86-276 214-16 80-115 48-182 37" id="Q"/><path fill="#fff" d="M161 21C140 84 75 97-12 90l601-1497c18-62 84-72 169-66" id="R"/><path fill="#fff" d="M1120-517c-7 54 22 140-39 140H903V0H746v-377H111c-66-1-56-79-71-131l697-925h166v916h217zm-374 0c1-215-1-434 2-647 1-20 3-41 6-62L233-517h513" id="S"/><g id="e"><use transform="matrix(0.005666666666666667,0,0,0.005666666666666667,0,0)" xlink:href="#P"/><use transform="matrix(0.005666666666666667,0,0,0.005666666666666667,6.573333333333334,0)" xlink:href="#Q"/><use transform="matrix(0.005666666666666667,0,0,0.005666666666666667,13.146666666666668,0)" xlink:href="#R"/><use transform="matrix(0.005666666666666667,0,0,0.005666666666666667,17.374000000000002,0)" xlink:href="#Q"/><use transform="matrix(0.005666666666666667,0,0,0.005666666666666667,23.947333333333336,0)" xlink:href="#R"/><use transform="matrix(0.005666666666666667,0,0,0.005666666666666667,28.174666666666667,0)" xlink:href="#Q"/><use transform="matrix(0.005666666666666667,0,0,0.005666666666666667,34.748000000000005,0)" xlink:href="#S"/></g><path fill="#fff" d="M252 15c-76 0-124-49-124-125s48-126 124-126 125 50 125 126c0 77-49 125-125 125zm0-750c-76 0-124-49-124-125s48-126 124-126 125 50 125 126c0 77-49 125-125 125" id="T"/><path fill="#fff" d="M1060-1042c53 174 53 479 0 652C990-160 857 15 579 15c-277 0-410-176-479-405-52-173-53-479 0-652 70-230 201-407 479-407 277 0 412 178 481 407zM888-441c36-137 36-414 0-551-45-170-118-306-309-306-190 0-263 137-307 306-36 138-36 414 0 551 45 170 116 306 307 306 190 0 265-138 309-306" id="U"/><path fill="#fff" d="M617-1433c323 3 534 130 534 444 0 310-216 446-534 453H387V0H194v-1433h423zm340 444c0-197-128-291-340-291H387v590h230c207-4 340-97 340-299" id="V"/><path fill="#fff" d="M338-1150c4 31 6 65 6 97V0H174v-1433c59 2 132-6 183 5 10 2 18 13 27 28l495 882c19 31 31 68 45 104 14-38 27-71 46-105l485-881c25-58 137-23 210-33V0h-170c2-381-5-772 4-1147l-491 896c-27 62-134 61-168 0" id="W"/><g id="f"><use transform="matrix(0.005666666666666667,0,0,0.005666666666666667,0,0)" xlink:href="#P"/><use transform="matrix(0.005666666666666667,0,0,0.005666666666666667,6.573333333333334,0)" xlink:href="#Q"/><use transform="matrix(0.005666666666666667,0,0,0.005666666666666667,13.146666666666668,0)" xlink:href="#T"/><use transform="matrix(0.005666666666666667,0,0,0.005666666666666667,16.00266666666667,0)" xlink:href="#U"/><use transform="matrix(0.005666666666666667,0,0,0.005666666666666667,22.576000000000004,0)" xlink:href="#U"/><use transform="matrix(0.005666666666666667,0,0,0.005666666666666667,29.14933333333334,0)" xlink:href="#V"/><use transform="matrix(0.005666666666666667,0,0,0.005666666666666667,36.074000000000005,0)" xlink:href="#W"/></g><path fill="#fff" d="M353-563c7 250 130 409 378 409s377-159 377-408v-871h193v871c-5 275-133 450-332 535-136 58-340 59-476 0-200-85-333-259-333-535v-871h193v870" id="X"/><path fill="#fff" d="M1150-1433v163H687V0H493v-1270H28v-163h1122" id="Y"/><path fill="#fff" d="M1289-200C1173-69 1017 19 773 16c-339-4-539-180-634-435-65-176-67-421 3-594 104-257 318-431 668-436 220-3 359 75 476 182-27 35-48 75-79 105-60 21-86-37-135-56-109-71-336-85-474-24-190 83-310 257-310 526 0 268 114 444 301 527 146 65 383 42 487-33 24-17 50-36 75-59 20-19 44-22 62-2" id="Z"/><g id="g"><use transform="matrix(0.005666666666666667,0,0,0.005666666666666667,0,0)" xlink:href="#X"/><use transform="matrix(0.005666666666666667,0,0,0.005666666666666667,8.273333333333333,0)" xlink:href="#Y"/><use transform="matrix(0.005666666666666667,0,0,0.005666666666666667,14.404666666666667,0)" xlink:href="#Z"/></g><path fill="#fff" d="M4-1446h217c48-1 77 26 90 61 125 326 256 646 373 977 12 34 20 70 29 108 15-77 34-144 57-203l339-882c12-30 45-61 89-61h217L831 0H588" id="aa"/><path fill="#fff" d="M395-1486V0H148v-1486h247" id="ab"/><path fill="#fff" d="M502-1045c120-1 193 43 256 101v-542h247V0c-80-9-199 29-214-45l-20-99C693-58 601 15 441 15 163 15 61-217 61-510c0-241 98-411 259-494 54-27 115-41 182-41zM316-510c0 181 36 329 209 329 118 0 173-54 233-123v-460c-48-59-104-93-198-93-188 0-244 151-244 347" id="ac"/><g id="h"><use transform="matrix(0.0067777777777777775,0,0,0.0067777777777777775,0,0)" xlink:href="#aa"/><use transform="matrix(0.0067777777777777775,0,0,0.0067777777777777775,8.790777777777778,0)" xlink:href="#E"/><use transform="matrix(0.0067777777777777775,0,0,0.0067777777777777775,15.88711111111111,0)" xlink:href="#ab"/><use transform="matrix(0.0067777777777777775,0,0,0.0067777777777777775,19.560666666666666,0)" xlink:href="#B"/><use transform="matrix(0.0067777777777777775,0,0,0.0067777777777777775,23.234222222222222,0)" xlink:href="#ac"/></g><path fill="#fff" d="M1187-985c0 329-222 471-561 476H424V0H155v-1446h471c337 4 561 134 561 461zm-269 0c0-176-112-253-292-253H424v519h202c184-1 292-85 292-266" id="ad"/><path fill="#fff" d="M605-850c-102 1-168 52-226 108V0H132v-1026c80 9 198-29 214 45l17 81c77-76 165-142 317-142 235 0 346 154 346 389V0H779v-653c0-121-55-198-174-197" id="ae"/><g id="i"><use transform="matrix(0.0067777777777777775,0,0,0.0067777777777777775,0,0)" xlink:href="#ad"/><use transform="matrix(0.0067777777777777775,0,0,0.0067777777777777775,8.472222222222221,0)" xlink:href="#A"/><use transform="matrix(0.0067777777777777775,0,0,0.0067777777777777775,14.009666666666666,0)" xlink:href="#B"/><use transform="matrix(0.0067777777777777775,0,0,0.0067777777777777775,17.68322222222222,0)" xlink:href="#ae"/><use transform="matrix(0.0067777777777777775,0,0,0.0067777777777777775,25.389555555555553,0)" xlink:href="#D"/><use transform="matrix(0.0067777777777777775,0,0,0.0067777777777777775,31.855555555555554,0)" xlink:href="#B"/><use transform="matrix(0.0067777777777777775,0,0,0.0067777777777777775,35.529111111111106,0)" xlink:href="#H"/><use transform="matrix(0.0067777777777777775,0,0,0.0067777777777777775,43.19477777777777,0)" xlink:href="#E"/><use transform="matrix(0.0067777777777777775,0,0,0.0067777777777777775,50.29111111111111,0)" xlink:href="#ab"/><use transform="matrix(0.0067777777777777775,0,0,0.0067777777777777775,53.96466666666666,0)" xlink:href="#w"/><use transform="matrix(0.0067777777777777775,0,0,0.0067777777777777775,59.888444444444445,0)" xlink:href="#I"/></g><g id="j"><use transform="matrix(0.0067777777777777775,0,0,0.0067777777777777775,0,0)" xlink:href="#F"/><use transform="matrix(0.0067777777777777775,0,0,0.0067777777777777775,7.760555555555555,0)" xlink:href="#G"/><use transform="matrix(0.0067777777777777775,0,0,0.0067777777777777775,15.080555555555556,0)" xlink:href="#x"/><use transform="matrix(0.0067777777777777775,0,0,0.0067777777777777775,20.326555555555554,0)" xlink:href="#z"/><use transform="matrix(0.0067777777777777775,0,0,0.0067777777777777775,27.572,0)" xlink:href="#ae"/><use transform="matrix(0.0067777777777777775,0,0,0.0067777777777777775,35.278333333333336,0)" xlink:href="#w"/><use transform="matrix(0.0067777777777777775,0,0,0.0067777777777777775,41.202111111111115,0)" xlink:href="#B"/><use transform="matrix(0.0067777777777777775,0,0,0.0067777777777777775,44.87566666666667,0)" xlink:href="#v"/><use transform="matrix(0.0067777777777777775,0,0,0.0067777777777777775,52.582,0)" xlink:href="#ae"/><use transform="matrix(0.0067777777777777775,0,0,0.0067777777777777775,60.288333333333334,0)" xlink:href="#w"/><use transform="matrix(0.0067777777777777775,0,0,0.0067777777777777775,66.21211111111111,0)" xlink:href="#I"/></g><path fill="#fff" d="M457 16c-234 0-346-155-346-390v-652h247v652c0 121 55 198 174 197 102-1 168-51 226-107v-742h247V0c-80-9-199 29-214-45l-17-82C697-50 608 16 457 16" id="af"/><path fill="#fff" d="M100-707h518v206H100v-206" id="ag"/><path fill="#fff" d="M269-185h293c2-315-3-636 3-946L357-957c-27 30-93 19-114-9l-78-107 441-375h203v1263h260V0H269v-185" id="ah"/><path fill="#fff" d="M109-1043c42-259 201-419 493-419 211 0 351 94 417 243 41 90 43 220 9 317-53 155-161 261-266 368L436-201c149-49 364-22 553-29 51-1 87 32 87 82V0H84c-3-78 1-142 44-184 181-178 371-356 538-547 72-82 133-167 133-311 0-137-75-210-211-212-123-2-200 69-227 166-15 55-55 80-122 68" id="ai"/><path fill="#fff" d="M132-1043c42-259 201-419 493-419 203 0 339 87 405 226 20 45 31 94 31 147 1 186-89 278-229 324 157 49 258 146 258 336 0 229-131 357-306 416C606 47 366 8 264-83c-81-72-135-166-174-284 67-25 192-105 244-14 55 95 110 189 258 189 151 0 244-85 251-229 10-197-134-230-333-231v-176c179-3 309-43 310-218 1-134-78-207-209-208-120-1-200 73-227 166-16 55-54 80-122 68" id="aj"/><path fill="#fff" d="M1124-545c-9 73 30 192-51 192H942V0H726v-353H116c-87-3-71-110-93-179l685-915h234v902h182zm-398 0c4-206-9-426 9-619L286-545h440" id="ak"/><path fill="#fff" d="M790-487c0-163-100-253-270-251-70 0-140 13-211 38l-154-44 120-702h714v105c-3 81-52 119-145 119H446l-52 302c210-50 424-1 525 108 69 75 119 178 119 314 0 252-137 402-324 477-137 55-338 42-458-15-68-32-130-71-180-118l76-105c47-69 127-10 174 17 49 28 107 53 188 51 184-4 276-113 276-296" id="al"/><path fill="#fff" d="M474-858c90-50 244-61 356-18 158 60 267 190 267 406 0 233-130 376-303 448-120 51-296 50-416 1C200-94 87-247 87-492c0-184 75-306 170-433l345-463c24-32 74-58 132-58h220c-160 196-321 391-480 588zm111 140c-164 0-261 101-261 264 0 169 88 268 257 268 166 0 269-102 269-266 0-169-97-266-265-266" id="am"/><path fill="#fff" d="M153-1222c-30 1-57-27-57-57v-167h1000c1 88-3 177-31 234L518-84C494-38 457 0 386 0H207l560-1105c23-45 49-84 78-117H153" id="an"/><path fill="#fff" d="M823-754c160 51 259 155 259 348 0 287-209 422-502 422-230 0-391-91-466-248-24-52-36-110-36-174 0-193 99-298 259-348-129-53-211-151-211-320 0-193 121-303 270-358 108-39 260-39 368 0 150 56 270 164 270 358 0 168-84 267-211 320zM332-410c3 152 93 233 248 233s245-81 248-233c4-157-94-241-248-241s-252 84-248 241zm35-660c0 141 69 225 213 225s213-84 213-225c0-131-78-206-213-206s-213 75-213 206" id="ao"/><path fill="#fff" d="M766-642c-91 62-257 88-383 39-149-59-253-183-253-390 0-225 127-362 293-432 115-49 284-46 401-2 199 76 319 287 268 569-24 134-85 233-151 329L610-57C559 28 386-7 256 0c169-215 344-424 510-642zM617-764c157-3 250-90 250-246 0-159-91-250-247-250-155 0-239 94-243 248-4 158 85 251 240 248" id="ap"/><g id="k"><use transform="matrix(0.005666666666666667,0,0,0.005666666666666667,0,0)" xlink:href="#af"/><use transform="matrix(0.005666666666666667,0,0,0.005666666666666667,6.4430000000000005,0)" xlink:href="#af"/><use transform="matrix(0.005666666666666667,0,0,0.005666666666666667,12.886000000000001,0)" xlink:href="#B"/><use transform="matrix(0.005666666666666667,0,0,0.005666666666666667,15.957333333333334,0)" xlink:href="#ac"/><use transform="matrix(0.005666666666666667,0,0,0.005666666666666667,22.417333333333335,0)" xlink:href="#ag"/><use transform="matrix(0.005666666666666667,0,0,0.005666666666666667,26.486,0)" xlink:href="#ah"/><use transform="matrix(0.005666666666666667,0,0,0.005666666666666667,33.05933333333334,0)" xlink:href="#ai"/><use transform="matrix(0.005666666666666667,0,0,0.005666666666666667,39.63266666666668,0)" xlink:href="#aj"/><use transform="matrix(0.005666666666666667,0,0,0.005666666666666667,46.20600000000002,0)" xlink:href="#ag"/><use transform="matrix(0.005666666666666667,0,0,0.005666666666666667,50.27466666666668,0)" xlink:href="#ak"/><use transform="matrix(0.005666666666666667,0,0,0.005666666666666667,56.84800000000001,0)" xlink:href="#al"/><use transform="matrix(0.005666666666666667,0,0,0.005666666666666667,63.42133333333335,0)" xlink:href="#am"/><use transform="matrix(0.005666666666666667,0,0,0.005666666666666667,69.99466666666669,0)" xlink:href="#ag"/><use transform="matrix(0.005666666666666667,0,0,0.005666666666666667,74.06333333333336,0)" xlink:href="#an"/><use transform="matrix(0.005666666666666667,0,0,0.005666666666666667,80.6366666666667,0)" xlink:href="#ao"/><use transform="matrix(0.005666666666666667,0,0,0.005666666666666667,87.21000000000004,0)" xlink:href="#ap"/></g><path fill="#fff" d="M225 14C133 14 73-43 73-136c0-92 60-151 152-151 91 0 151 60 151 151 0 92-59 150-151 150" id="aq"/><path fill="#fff" d="M565-850c-86 0-140 48-186 99V0H132v-1026c80 9 198-29 214 45l16 76c67-72 141-136 276-137 139-1 214 86 253 192 57-117 162-192 328-192 240 0 354 147 354 389V0h-247v-653c1-123-52-197-169-197s-180 76-180 197V0H729v-653c0-127-46-197-164-197" id="ar"/><g id="l"><use transform="matrix(0.005666666666666667,0,0,0.005666666666666667,0,0)" xlink:href="#ab"/><use transform="matrix(0.005666666666666667,0,0,0.005666666666666667,3.0713333333333335,0)" xlink:href="#af"/><use transform="matrix(0.005666666666666667,0,0,0.005666666666666667,9.514333333333333,0)" xlink:href="#ae"/><use transform="matrix(0.005666666666666667,0,0,0.005666666666666667,15.957333333333334,0)" xlink:href="#E"/><use transform="matrix(0.005666666666666667,0,0,0.005666666666666667,21.890333333333334,0)" xlink:href="#aq"/><use transform="matrix(0.005666666666666667,0,0,0.005666666666666667,24.440333333333335,0)" xlink:href="#z"/><use transform="matrix(0.005666666666666667,0,0,0.005666666666666667,30.158,0)" xlink:href="#G"/><use transform="matrix(0.005666666666666667,0,0,0.005666666666666667,36.278,0)" xlink:href="#E"/><use transform="matrix(0.005666666666666667,0,0,0.005666666666666667,42.211,0)" xlink:href="#ar"/><use transform="matrix(0.005666666666666667,0,0,0.005666666666666667,51.75366666666667,0)" xlink:href="#H"/><use transform="matrix(0.005666666666666667,0,0,0.005666666666666667,58.162666666666674,0)" xlink:href="#ab"/><use transform="matrix(0.005666666666666667,0,0,0.005666666666666667,61.234,0)" xlink:href="#z"/><use transform="matrix(0.005666666666666667,0,0,0.005666666666666667,67.29166666666667,0)" xlink:href="#aq"/><use transform="matrix(0.005666666666666667,0,0,0.005666666666666667,69.84166666666667,0)" xlink:href="#D"/><use transform="matrix(0.005666666666666667,0,0,0.005666666666666667,75.24766666666667,0)" xlink:href="#v"/><use transform="matrix(0.005666666666666667,0,0,0.005666666666666667,81.69066666666667,0)" xlink:href="#ar"/></g><g id="m"><use transform="matrix(0.005666666666666667,0,0,0.005666666666666667,0,0)" xlink:href="#ae"/><use transform="matrix(0.005666666666666667,0,0,0.005666666666666667,6.4430000000000005,0)" xlink:href="#E"/><use transform="matrix(0.005666666666666667,0,0,0.005666666666666667,12.376000000000001,0)" xlink:href="#ar"/><use transform="matrix(0.005666666666666667,0,0,0.005666666666666667,21.918666666666667,0)" xlink:href="#z"/><use transform="matrix(0.005666666666666667,0,0,0.005666666666666667,27.976333333333336,0)" xlink:href="#I"/></g><g id="n"><use transform="matrix(0.005666666666666667,0,0,0.005666666666666667,0,0)" xlink:href="#ab"/><use transform="matrix(0.005666666666666667,0,0,0.005666666666666667,3.0713333333333335,0)" xlink:href="#af"/><use transform="matrix(0.005666666666666667,0,0,0.005666666666666667,9.514333333333333,0)" xlink:href="#ae"/><use transform="matrix(0.005666666666666667,0,0,0.005666666666666667,15.957333333333334,0)" xlink:href="#E"/><use transform="matrix(0.005666666666666667,0,0,0.005666666666666667,21.890333333333334,0)" xlink:href="#aq"/><use transform="matrix(0.005666666666666667,0,0,0.005666666666666667,24.440333333333335,0)" xlink:href="#z"/><use transform="matrix(0.005666666666666667,0,0,0.005666666666666667,30.158,0)" xlink:href="#G"/><use transform="matrix(0.005666666666666667,0,0,0.005666666666666667,36.278,0)" xlink:href="#E"/><use transform="matrix(0.005666666666666667,0,0,0.005666666666666667,42.211,0)" xlink:href="#ar"/><use transform="matrix(0.005666666666666667,0,0,0.005666666666666667,51.75366666666667,0)" xlink:href="#H"/><use transform="matrix(0.005666666666666667,0,0,0.005666666666666667,58.162666666666674,0)" xlink:href="#ab"/><use transform="matrix(0.005666666666666667,0,0,0.005666666666666667,61.234,0)" xlink:href="#z"/><use transform="matrix(0.005666666666666667,0,0,0.005666666666666667,67.29166666666667,0)" xlink:href="#aq"/><use transform="matrix(0.005666666666666667,0,0,0.005666666666666667,69.84166666666667,0)" xlink:href="#D"/><use transform="matrix(0.005666666666666667,0,0,0.005666666666666667,75.24766666666667,0)" xlink:href="#v"/><use transform="matrix(0.005666666666666667,0,0,0.005666666666666667,81.69066666666667,0)" xlink:href="#ar"/></g><g id="o"><use transform="matrix(0.005666666666666667,0,0,0.005666666666666667,0,0)" xlink:href="#x"/><use transform="matrix(0.005666666666666667,0,0,0.005666666666666667,4.386,0)" xlink:href="#z"/><use transform="matrix(0.005666666666666667,0,0,0.005666666666666667,10.443666666666667,0)" xlink:href="#ab"/><use transform="matrix(0.005666666666666667,0,0,0.005666666666666667,13.515,0)" xlink:href="#z"/><use transform="matrix(0.005666666666666667,0,0,0.005666666666666667,19.572666666666667,0)" xlink:href="#H"/><use transform="matrix(0.005666666666666667,0,0,0.005666666666666667,25.98166666666667,0)" xlink:href="#v"/><use transform="matrix(0.005666666666666667,0,0,0.005666666666666667,32.42466666666667,0)" xlink:href="#A"/><use transform="matrix(0.005666666666666667,0,0,0.005666666666666667,37.05433333333333,0)" xlink:href="#x"/><use transform="matrix(0.005666666666666667,0,0,0.005666666666666667,41.440333333333335,0)" xlink:href="#ag"/><use transform="matrix(0.005666666666666667,0,0,0.005666666666666667,45.509,0)" xlink:href="#A"/><use transform="matrix(0.005666666666666667,0,0,0.005666666666666667,50.13866666666667,0)" xlink:href="#v"/><use transform="matrix(0.005666666666666667,0,0,0.005666666666666667,56.58166666666666,0)" xlink:href="#ab"/><use transform="matrix(0.005666666666666667,0,0,0.005666666666666667,59.65299999999999,0)" xlink:href="#z"/><use transform="matrix(0.005666666666666667,0,0,0.005666666666666667,65.71066666666667,0)" xlink:href="#w"/><use transform="matrix(0.005666666666666667,0,0,0.005666666666666667,70.66333333333334,0)" xlink:href="#I"/></g><g id="p"><use transform="matrix(0.005666666666666667,0,0,0.005666666666666667,0,0)" xlink:href="#ae"/><use transform="matrix(0.005666666666666667,0,0,0.005666666666666667,6.4430000000000005,0)" xlink:href="#v"/><use transform="matrix(0.005666666666666667,0,0,0.005666666666666667,12.886000000000001,0)" xlink:href="#ac"/><use transform="matrix(0.005666666666666667,0,0,0.005666666666666667,19.346000000000004,0)" xlink:href="#z"/></g><g id="q"><use transform="matrix(0.005666666666666667,0,0,0.005666666666666667,0,0)" xlink:href="#A"/><use transform="matrix(0.005666666666666667,0,0,0.005666666666666667,4.629666666666667,0)" xlink:href="#v"/><use transform="matrix(0.005666666666666667,0,0,0.005666666666666667,11.072666666666667,0)" xlink:href="#v"/><use transform="matrix(0.005666666666666667,0,0,0.005666666666666667,17.515666666666668,0)" xlink:href="#x"/></g><g id="r"><use transform="matrix(0.005666666666666667,0,0,0.005666666666666667,0,0)" xlink:href="#D"/><use transform="matrix(0.005666666666666667,0,0,0.005666666666666667,5.406000000000001,0)" xlink:href="#ab"/><use transform="matrix(0.005666666666666667,0,0,0.005666666666666667,8.477333333333334,0)" xlink:href="#af"/><use transform="matrix(0.005666666666666667,0,0,0.005666666666666667,14.920333333333334,0)" xlink:href="#w"/><use transform="matrix(0.005666666666666667,0,0,0.005666666666666667,19.873000000000005,0)" xlink:href="#x"/><use transform="matrix(0.005666666666666667,0,0,0.005666666666666667,24.259,0)" xlink:href="#z"/><use transform="matrix(0.005666666666666667,0,0,0.005666666666666667,30.31666666666667,0)" xlink:href="#A"/><use transform="matrix(0.005666666666666667,0,0,0.005666666666666667,34.946333333333335,0)" xlink:href="#I"/></g><g id="s"><use transform="matrix(0.005666666666666667,0,0,0.005666666666666667,0,0)" xlink:href="#z"/><use transform="matrix(0.005666666666666667,0,0,0.005666666666666667,5.717666666666667,0)" xlink:href="#G"/><use transform="matrix(0.005666666666666667,0,0,0.005666666666666667,11.837666666666667,0)" xlink:href="#E"/><use transform="matrix(0.005666666666666667,0,0,0.005666666666666667,17.770666666666667,0)" xlink:href="#ar"/><use transform="matrix(0.005666666666666667,0,0,0.005666666666666667,27.31333333333333,0)" xlink:href="#H"/><use transform="matrix(0.005666666666666667,0,0,0.005666666666666667,33.72233333333333,0)" xlink:href="#ab"/><use transform="matrix(0.005666666666666667,0,0,0.005666666666666667,36.79366666666667,0)" xlink:href="#z"/><use transform="matrix(0.005666666666666667,0,0,0.005666666666666667,42.851333333333336,0)" xlink:href="#aq"/><use transform="matrix(0.005666666666666667,0,0,0.005666666666666667,45.40133333333333,0)" xlink:href="#D"/><use transform="matrix(0.005666666666666667,0,0,0.005666666666666667,50.80733333333334,0)" xlink:href="#v"/><use transform="matrix(0.005666666666666667,0,0,0.005666666666666667,57.25033333333333,0)" xlink:href="#ar"/></g></defs></g></svg>