<svg xmlns="http://www.w3.org/2000/svg" xmlns:xlink="http://www.w3.org/1999/xlink" xmlns:lucid="lucid" width="1005" height="544"><g transform="translate(-159.5 -38.5)" lucid:page-tab-id="zSZUCr37O8xH"><path d="M0 0h1870.87v1322.84H0z" fill="#fff"/><path d="M654 120c-22.08 0-40-17.92-40-40s17.92-40 40-40 40 17.92 40 40-17.92 40-40 40zm0-76.8c-20.32 0-36.8 16.48-36.8 36.8 0 20.32 16.48 36.8 36.8 36.8 20.32 0 36.8-16.48 36.8-36.8 0-20.32-16.48-36.8-36.8-36.8z" stroke="#fff" stroke-opacity="0" stroke-width="3" fill="#693cc5"/><path d="M677.86 91.2h-3.06v-6.4c0-.9-.7-1.6-1.58-1.6h-4.83v-6.4c0-.9-.73-1.58-1.6-1.58h-11.2v-4.8h11.2c.87 0 1.6-.76 1.6-1.6V54.4c0-.9-.73-1.6-1.6-1.6h-25.6c-.88 0-1.6.7-1.6 1.6V68.8c0 .84.72 1.6 1.6 1.6h11.2v4.8h-11.2c-.88 0-1.6.7-1.6 1.6v6.4l-4.78-.02c-.9 0-1.63.7-1.63 1.6v6.4h-3.06c-.87 0-1.58.73-1.58 1.58v8.03c0 .9.7 1.6 1.58 1.6h7.84c.92 0 1.63-.7 1.63-1.6V92.8c0-.85-.7-1.6-1.62-1.6h-1.58v-4.8h8v4.8h-1.58c-.92 0-1.63.75-1.63 1.6v8.03c0 .9.7 1.6 1.62 1.6h8c.86 0 1.57-.7 1.57-1.6V92.8c0-.85-.72-1.6-1.58-1.6h-3.2v-6.4c0-.88-.73-1.58-1.64-1.58h-3.16v-4.8h22.36v4.8h-3.16c-.92 0-1.63.7-1.63 1.6v6.4h-3.22c-.86 0-1.58.73-1.58 1.58v8.03c0 .9.72 1.6 1.58 1.6h8c.9 0 1.63-.7 1.63-1.6V92.8c0-.85-.7-1.6-1.62-1.6h-1.58v-4.8h8v4.8h-1.74c-.86 0-1.58.75-1.58 1.6v8.03c0 .9.72 1.6 1.58 1.6h8.05c.88 0 1.6-.7 1.6-1.6V92.8v-.05c-.06-.84-.78-1.54-1.64-1.54zm-41.46 7.98h-4.63V94.4h4.63zm12.8-4.77v4.78h-4.8V94.4zM642.8 67.2V56.02h22.36v11.16zm20.78 32h-4.8V94.4h4.8zm12.63 0h-4.8V94.4h4.8z" stroke="#fff" stroke-opacity="0" stroke-width="3" fill="#693cc5"/><use xlink:href="#a" transform="matrix(1,0,0,1,583.999999521106,129) translate(15.7716049382716 17.77777777777778)"/><use xlink:href="#b" transform="matrix(1,0,0,1,583.999999521106,129) translate(45.308641975308646 44.44444444444444)"/><use xlink:href="#c" transform="matrix(1,0,0,1,583.999999521106,129) translate(26.234567901234563 71.11111111111111)"/><path d="M289.02 151.36c.68 0 1.25.13 1.83.38.57.26 1.05.64 1.44 1.28.47.52.76 1.16.95 1.92.3.9.38 1.8.38 2.7 0 1.02-.1 1.9-.38 2.68-.3.77-.67 1.4-1.15 2.05-.48.64-1.06 1.02-1.73 1.4-.58.26-1.35.52-2.2.52-.6 0-1.16-.14-1.64-.4-.48-.12-.87-.38-1.25-.64V168h-3.74v-16.5h2.5c.18.12.28.12.38.24.2 0 .28.26.38.4l.3.88.28-.25c.1-.13.28-.26.48-.4.28-.24.57-.37.96-.63.28-.12.67-.25.96-.25.38-.14.86-.14 1.24-.14zm-35.7 0c.86 0 1.62.13 2.3.38.76.26 1.34.64 1.82 1.16.48.5.86 1.02 1.15 1.8.28.63.47 1.52.47 2.42 0 .26 0 .5-.1.64 0 .13 0 .26-.1.38-.1.13-.18.26-.28.26h-7.78l.1.26c.1 1.02.47 1.66.95 2.04.48.52 1.15.77 2.02.77.37 0 .76-.13 1.04-.25.4 0 .68-.13.87-.26.3-.13.5-.26.68-.38.3-.13.48-.13.67-.13.3 0 .58.13.67.25l1.16 1.4-.3.27c-.28.25-.66.5-.95.77-.48.25-.96.5-1.44.64-.5.25-.97.25-1.45.38-.48 0-.96.13-1.35.13-.86 0-1.72-.27-2.5-.52-.76-.26-1.43-.64-2-1.28-.58-.52-1.06-1.28-1.45-2.05-.3-.9-.48-1.8-.48-2.95 0-.76.1-1.66.4-2.3.27-.77.75-1.4 1.23-2.05.58-.5 1.25-1.02 2.02-1.28.77-.38 1.63-.5 2.6-.5zm20.34 0c.77 0 1.54.13 2.3.38.68.26 1.26.64 1.74 1.16.57.5.96 1.02 1.24 1.8.3.63.4 1.52.4 2.42v.64c-.1.13-.1.26-.2.38 0 .13-.1.26-.2.26H271.16v.26c.2 1.02.5 1.66.97 2.04.48.52 1.15.77 2 .77.5 0 .88-.13 1.17-.25.28 0 .57-.13.86-.26.2-.13.48-.26.67-.38.2-.13.4-.13.67-.13.3 0 .48.13.68.25l1.05 1.4-.2.27c-.37.25-.66.5-1.05.77-.48.25-.86.5-1.34.64-.48.25-.96.25-1.44.38-.48 0-.96.13-1.44.13-.86 0-1.73-.27-2.5-.52-.76-.26-1.44-.64-2-1.28-.6-.52-1.07-1.28-1.36-2.05-.38-.9-.57-1.8-.57-2.95 0-.76.2-1.66.48-2.3.3-.77.68-1.4 1.26-2.05.57-.5 1.15-1.02 1.92-1.28.76-.38 1.72-.5 2.68-.5zm27.65 0c.97 0 1.84.13 2.7.38.77.4 1.44.77 2.02 1.28.57.64.96 1.28 1.34 2.05.3.77.48 1.67.48 2.7 0 1-.2 1.9-.48 2.68-.38.77-.77 1.53-1.34 2.05-.58.5-1.25 1.02-2.02 1.28-.86.25-1.73.5-2.7.5-.95 0-1.8-.25-2.58-.5-.86-.26-1.54-.77-2.1-1.28-.6-.52-.97-1.28-1.36-2.05-.28-.77-.48-1.67-.48-2.7 0-1 .2-1.9.48-2.68.4-.77.77-1.4 1.35-2.05.58-.5 1.26-.9 2.12-1.28.77-.25 1.63-.38 2.6-.38zm23.24-3.46v3.72h3.08v2.56h-3.08v6.27c0 .25.1.38.2.64.1.12.38.24.57.24h.4c.1-.12.2-.12.28-.12 0-.13.1-.13.2-.13H326.66l.2.24 1.14 1.8-.3.12c-.37.4-.85.52-1.33.64-.67.26-1.25.4-1.92.4-.58 0-1.15-.14-1.63-.27-.4-.25-.77-.5-1.16-.77-.28-.38-.57-.76-.67-1.15-.2-.5-.3-1-.3-1.52v-6.4H319.55c-.2-.13-.3-.13-.38-.26-.2-.13-.2-.26-.2-.5v-1.55l2.02-.38.66-2.96.1-.12c.1-.4.38-.52.77-.52h2zm-78.33-1.4v3.2h-5.08v14.33H237V149.7h-5v-3.2h14.2zm18.92-.52v18.05h-3.74v-18.05h3.74zm51.74 5.38c.58 0 1.06.13 1.44.38l-.48 2.7v.12c-.1.13-.1.26-.2.26-.08.12-.28.12-.37.12-.2 0-.3 0-.48-.12H316c-.96 0-1.73.5-2.3 1.53v7.68h-3.84V151.5h2.4c.1 0 .28.12.38.12.1 0 .2 0 .3.12l.18.26c0 .13.1.26.1.38l.2 1.16.18-.26c.48-.5.86-1.02 1.44-1.4.58-.4 1.15-.52 1.82-.52zm-29.18 2.82H287c-.28.12-.47.12-.66.25-.2.13-.4.26-.58.4-.1.1-.3.37-.48.5v5.25l.2.25c.18.13.47.4.76.5.38.14.67.14 1.06.14.38 0 .67 0 .96-.25.28-.13.57-.26.76-.64.2-.26.4-.64.48-1.16.2-.5.2-1.02.2-1.8 0-.63 0-1.14-.1-1.65-.1-.4-.3-.77-.48-1.03-.1-.25-.38-.5-.58-.64-.28-.12-.48-.12-.86-.12zm13.63 0c-.85 0-1.52.25-1.9.9-.5.5-.68 1.53-.68 2.68 0 1.28.2 2.18.67 2.82.38.64 1.05.9 1.9.9.88 0 1.55-.26 1.93-.9.48-.64.67-1.54.67-2.82 0-1.15-.2-2.18-.67-2.7-.38-.63-1.05-.88-1.92-.88zm-47.9-.26c-.76 0-1.34.26-1.72.64-.38.38-.67 1.02-.77 1.8h4.72c0-.4 0-.65-.1-.9-.1-.26-.2-.52-.38-.77-.2-.27-.4-.4-.68-.52-.28-.13-.67-.26-1.05-.26zm20.26 0c-.67 0-1.24.26-1.63.64-.48.38-.67 1.02-.86 1.8h4.8c0-.4-.1-.65-.2-.9 0-.26-.2-.52-.38-.77-.1-.27-.4-.4-.68-.52-.3-.13-.58-.26-1.06-.26zM289.6 40.9c.77.12 1.44.76 1.63 1.53l.1.13 2.4 12.16c3.36 1.28 6.62 3.07 9.5 5.25l.58.5 12.2-4.1c.77-.37 1.63-.1 2.2.53 4.23 4.6 7.7 10.24 9.6 16.12.4.77.2 1.54-.38 2.05l-.2.13-9.68 8.06c.38 1.92.48 3.84.48 5.76 0 1.67-.1 3.46-.4 5.12l-.08.52 9.7 8.2c.66.5.95 1.4.57 2.16-1.9 5.9-5.37 11.4-9.6 16.13-.47.64-1.24.9-2 .64l-.2-.14-12.2-4.1c-2.87 2.3-6.04 4.1-9.4 5.38l-.67.26-2.4 12.3c-.2.76-.87 1.52-1.73 1.65-3.17.5-6.34.9-9.6.9s-6.43-.4-9.6-.9c-.77-.13-1.44-.77-1.63-1.53l-.1-.13-2.4-12.3c-3.45-1.28-6.72-3.07-9.5-5.25l-.58-.38-12.2 4.1c-.77.38-1.63.12-2.2-.52-4.23-4.73-7.7-10.24-9.6-16.13-.4-.76-.2-1.53.47-2.04l.1-.13 9.7-8.2c-.4-1.8-.5-3.7-.5-5.63 0-1.66.1-3.45.4-5.12l.1-.64-9.7-8.06c-.67-.5-.96-1.4-.58-2.18 1.9-5.88 5.37-11.52 9.6-16.12.47-.64 1.24-.9 2-.64l.2.12 12.2 4.1c2.78-2.3 6.04-4.1 9.5-5.5l.57-.26 2.4-12.16c.2-.77.87-1.54 1.73-1.66 6.34-1.16 12.86-1.16 19.2 0zM280 60.35c-16.13 0-29.18 12.8-29.18 28.67 0 15.88 13.05 28.68 29.18 28.68s29.18-12.8 29.18-28.68c0-15.87-13.05-28.67-29.18-28.67zm18.43 16.13v8.58h-14v20.48h-8.85V85.06h-14v-8.58h36.85z" stroke="#000" stroke-opacity="0" fill="#512fc9"/><path d="M160 174a6 6 0 0 1 6-6h228a6 6 0 0 1 6 6v48a6 6 0 0 1-6 6H166a6 6 0 0 1-6-6z" stroke="#000" stroke-opacity="0" fill="#fff" fill-opacity="0"/><use xlink:href="#d" transform="matrix(1,0,0,1,165,173.00000002499996) translate(86.69753086419753 30.27777777777778)"/><path d="M1053.02 151.36c.68 0 1.25.13 1.83.38.57.26 1.05.64 1.44 1.28.47.52.76 1.16.95 1.92.3.9.38 1.8.38 2.7 0 1.02-.1 1.9-.38 2.68-.3.77-.67 1.4-1.15 2.05-.48.64-1.06 1.02-1.73 1.4-.58.26-1.35.52-2.2.52-.6 0-1.16-.14-1.64-.4-.48-.12-.87-.38-1.25-.64V168h-3.74v-16.5h2.5c.18.12.28.12.38.24.2 0 .28.26.38.4l.3.88.28-.25c.1-.13.28-.26.48-.4.28-.24.57-.37.96-.63.28-.12.67-.25.96-.25.38-.14.86-.14 1.24-.14zm-35.7 0c.86 0 1.62.13 2.3.38.76.26 1.34.64 1.82 1.16.48.5.86 1.02 1.15 1.8.28.63.47 1.52.47 2.42 0 .26 0 .5-.1.64 0 .13 0 .26-.1.38-.1.13-.18.26-.28.26h-7.78l.1.26c.1 1.02.47 1.66.95 2.04.48.52 1.15.77 2.02.77.37 0 .76-.13 1.04-.25.4 0 .68-.13.87-.26.3-.13.5-.26.68-.38.3-.13.48-.13.67-.13.3 0 .58.13.67.25l1.16 1.4-.3.27c-.28.25-.66.5-.95.77-.48.25-.96.5-1.44.64-.5.25-.97.25-1.45.38-.48 0-.96.13-1.35.13-.86 0-1.72-.27-2.5-.52-.76-.26-1.43-.64-2-1.28-.58-.52-1.06-1.28-1.45-2.05-.3-.9-.48-1.8-.48-2.95 0-.76.1-1.66.4-2.3.27-.77.75-1.4 1.23-2.05.58-.5 1.25-1.02 2.02-1.28.77-.38 1.63-.5 2.6-.5zm20.34 0c.77 0 1.54.13 2.3.38.68.26 1.26.64 1.74 1.16.57.5.96 1.02 1.24 1.8.3.63.4 1.52.4 2.42v.64c-.1.13-.1.26-.2.38 0 .13-.1.26-.2.26H1035.16v.26c.2 1.02.5 1.66.97 2.04.48.52 1.15.77 2 .77.5 0 .88-.13 1.17-.25.28 0 .57-.13.86-.26.2-.13.48-.26.67-.38.2-.13.4-.13.67-.13.3 0 .48.13.68.25l1.05 1.4-.2.27c-.37.25-.66.5-1.05.77-.48.25-.86.5-1.34.64-.48.25-.96.25-1.44.38-.48 0-.96.13-1.44.13-.86 0-1.73-.27-2.5-.52-.76-.26-1.44-.64-2-1.28-.6-.52-1.07-1.28-1.36-2.05-.38-.9-.57-1.8-.57-2.95 0-.76.2-1.66.48-2.3.3-.77.68-1.4 1.26-2.05.57-.5 1.15-1.02 1.92-1.28.76-.38 1.72-.5 2.68-.5zm27.65 0c.97 0 1.84.13 2.7.38.77.4 1.44.77 2.02 1.28.57.64.96 1.28 1.34 2.05.3.77.48 1.67.48 2.7 0 1-.2 1.9-.48 2.68-.38.77-.77 1.53-1.34 2.05-.58.5-1.25 1.02-2.02 1.28-.86.25-1.73.5-2.7.5-.95 0-1.8-.25-2.58-.5-.86-.26-1.54-.77-2.1-1.28-.6-.52-.97-1.28-1.36-2.05-.28-.77-.48-1.67-.48-2.7 0-1 .2-1.9.48-2.68.4-.77.77-1.4 1.35-2.05.58-.5 1.26-.9 2.12-1.28.77-.25 1.63-.38 2.6-.38zm23.24-3.46v3.72h3.08v2.56h-3.08v6.27c0 .25.1.38.2.64.1.12.38.24.57.24h.4c.1-.12.2-.12.28-.12 0-.13.1-.13.2-.13H1090.66l.2.24 1.14 1.8-.3.12c-.37.4-.85.52-1.33.64-.67.26-1.25.4-1.92.4-.58 0-1.15-.14-1.63-.27-.4-.25-.77-.5-1.16-.77-.28-.38-.57-.76-.67-1.15-.2-.5-.3-1-.3-1.52v-6.4H1083.55c-.2-.13-.3-.13-.38-.26-.2-.13-.2-.26-.2-.5v-1.55l2.02-.38.66-2.96.1-.12c.1-.4.38-.52.77-.52h2zm-78.33-1.4v3.2h-5.08v14.33H1001V149.7h-5v-3.2h14.2zm18.92-.52v18.05h-3.74v-18.05h3.74zm51.74 5.38c.58 0 1.06.13 1.44.38l-.48 2.7v.12c-.1.13-.1.26-.2.26-.08.12-.28.12-.37.12-.2 0-.3 0-.48-.12h-.77c-.96 0-1.73.5-2.3 1.53v7.68h-3.84V151.5h2.4c.1 0 .28.12.38.12.1 0 .2 0 .3.12l.18.26c0 .13.1.26.1.38l.2 1.16.18-.26c.48-.5.86-1.02 1.44-1.4.58-.4 1.15-.52 1.82-.52zm-29.18 2.82h-.67c-.28.12-.47.12-.66.25-.2.13-.4.26-.58.4-.1.1-.3.37-.48.5v5.25l.2.25c.18.13.47.4.76.5.38.14.67.14 1.06.14.38 0 .67 0 .96-.25.28-.13.57-.26.76-.64.2-.26.4-.64.48-1.16.2-.5.2-1.02.2-1.8 0-.63 0-1.14-.1-1.65-.1-.4-.3-.77-.48-1.03-.1-.25-.38-.5-.58-.64-.28-.12-.48-.12-.86-.12zm13.63 0c-.85 0-1.52.25-1.9.9-.5.5-.68 1.53-.68 2.68 0 1.28.2 2.18.67 2.82.38.64 1.05.9 1.9.9.88 0 1.55-.26 1.93-.9.48-.64.67-1.54.67-2.82 0-1.15-.2-2.18-.67-2.7-.38-.63-1.05-.88-1.92-.88zm-47.9-.26c-.76 0-1.34.26-1.72.64-.38.38-.67 1.02-.77 1.8h4.72c0-.4 0-.65-.1-.9-.1-.26-.2-.52-.38-.77-.2-.27-.4-.4-.68-.52-.28-.13-.67-.26-1.05-.26zm20.26 0c-.67 0-1.24.26-1.63.64-.48.38-.67 1.02-.86 1.8h4.8c0-.4-.1-.65-.2-.9 0-.26-.2-.52-.38-.77-.1-.27-.4-.4-.68-.52-.3-.13-.58-.26-1.06-.26zM1053.6 40.9c.77.12 1.44.76 1.63 1.53l.1.13 2.4 12.16c3.36 1.28 6.62 3.07 9.5 5.25l.58.5 12.2-4.1c.77-.37 1.63-.1 2.2.53 4.23 4.6 7.7 10.24 9.6 16.12.4.77.2 1.54-.38 2.05l-.2.13-9.68 8.06c.38 1.92.48 3.84.48 5.76 0 1.67-.1 3.46-.4 5.12l-.08.52 9.7 8.2c.66.5.95 1.4.57 2.16-1.9 5.9-5.37 11.4-9.6 16.13-.47.64-1.24.9-2 .64l-.2-.14-12.2-4.1c-2.87 2.3-6.04 4.1-9.4 5.38l-.67.26-2.4 12.3c-.2.76-.87 1.52-1.73 1.65-3.17.5-6.34.9-9.6.9s-6.43-.4-9.6-.9c-.77-.13-1.44-.77-1.63-1.53l-.1-.13-2.4-12.3c-3.45-1.28-6.72-3.07-9.5-5.25l-.58-.38-12.2 4.1c-.77.38-1.63.12-2.2-.52-4.23-4.73-7.7-10.24-9.6-16.13-.4-.76-.2-1.53.47-2.04l.1-.13 9.7-8.2c-.4-1.8-.5-3.7-.5-5.63 0-1.66.1-3.45.4-5.12l.1-.64-9.7-8.06c-.67-.5-.96-1.4-.58-2.18 1.9-5.88 5.37-11.52 9.6-16.12.47-.64 1.24-.9 2-.64l.2.12 12.2 4.1c2.78-2.3 6.04-4.1 9.5-5.5l.57-.26 2.4-12.16c.2-.77.87-1.54 1.73-1.66 6.34-1.16 12.86-1.16 19.2 0zm-9.6 19.45c-16.13 0-29.18 12.8-29.18 28.67 0 15.88 13.05 28.68 29.18 28.68s29.18-12.8 29.18-28.68c0-15.87-13.05-28.67-29.18-28.67zm18.43 16.13v8.58h-14v20.48h-8.85V85.06h-14v-8.58h36.85z" stroke="#000" stroke-opacity="0" fill="#512fc9"/><path d="M924 174a6 6 0 0 1 6-6h228a6 6 0 0 1 6 6v48a6 6 0 0 1-6 6H930a6 6 0 0 1-6-6z" stroke="#000" stroke-opacity="0" fill="#fff" fill-opacity="0"/><use xlink:href="#e" transform="matrix(1,0,0,1,928.9999998631731,173.00000002499996) translate(46.574074074074076 30.27777777777778)"/><use xlink:href="#f" transform="matrix(1,0,0,1,928.9999998631731,173.00000002499996) translate(109.47530864197532 30.27777777777778)"/><path d="M280 230.5v7.44m0 9.9v14.88m0 9.92v14.87m0 9.92v14.87m0 9.9v14.88m0 9.9v14.88m0 9.92v14.87m0 9.9v14.9m0 9.9v14.87m0 9.92V461m0 9.92v14.87m0 9.9v14.88m0 9.9v14.88m0 9.92v14.87m0 9.9v7.45" stroke="#3a414a" stroke-width="5" fill="none"/><path d="M282.48 230.56h-4.96V228h4.96z" stroke="#3a414a" stroke-width=".05" fill="#3a414a"/><path d="M280 577.44V580M654 230.5v7.44m0 9.9v14.88m0 9.92v14.87m0 9.92v14.87m0 9.9v14.88m0 9.9v14.88m0 9.92v14.87m0 9.9v14.9m0 9.9v14.87m0 9.92V461m0 9.92v14.87m0 9.9v14.88m0 9.9v14.88m0 9.92v14.87m0 9.9v7.45M654 230.56V228M654 577.44V580M1044 230.5v7.44m0 9.9v14.88m0 9.92v14.87m0 9.92v14.87m0 9.9v14.88m0 9.9v14.88m0 9.92v14.87m0 9.9v14.9m0 9.9v14.87m0 9.92V461m0 9.92v14.87m0 9.9v14.88m0 9.9v14.88m0 9.92v14.87m0 9.9v7.45" stroke="#3a414a" stroke-width="5" fill="none"/><path d="M1046.47 230.56h-4.94V228h4.94z" stroke="#3a414a" stroke-width=".05" fill="#3a414a"/><path d="M1044 577.44V580" stroke="#3a414a" stroke-width="5" fill="none"/><path d="M320 206a6 6 0 0 1 6-6h348a6 6 0 0 1 6 6v39.37a6 6 0 0 1-6 6H326a6 6 0 0 1-6-6z" stroke="#000" stroke-opacity="0" stroke-width="5" fill="#fff" fill-opacity="0"/><use xlink:href="#g" transform="matrix(1,0,0,1,325,205) translate(0 24.722222222222218)"/><use xlink:href="#h" transform="matrix(1,0,0,1,325,205) translate(50.86419753086418 24.722222222222218)"/><use xlink:href="#i" transform="matrix(1,0,0,1,325,205) translate(128.79012345679007 24.722222222222218)"/><path d="M660 246a6 6 0 0 1 6-6h188.67a6 6 0 0 1 6 6v33.33a6 6 0 0 1-6 6H666a6 6 0 0 1-6-6z" fill="none"/><path d="M660 285.33c6.26 0 11.33-5.07 11.33-11.33s5.08-11.33 11.34-11.33c-6.26 0-11.34-5.08-11.34-11.34S666.26 240 660 240" stroke="#3a414a" stroke-width="5" fill="none"/><use xlink:href="#j" transform="matrix(1,0,0,1,697.6666666666666,245) translate(0 21.555555555555554)"/><use xlink:href="#k" transform="matrix(1,0,0,1,697.6666666666666,245) translate(82.7654320987654 21.555555555555554)"/><path d="M694 341.9a6 6 0 0 1 6-6h288a6 6 0 0 1 6 6v9.6a6 6 0 0 1-6 6H700a6 6 0 0 1-6-6z" stroke="#000" stroke-opacity="0" stroke-width="5" fill="#fff" fill-opacity="0"/><use xlink:href="#l" transform="matrix(1,0,0,1,698.999999521106,340.90297261759474) translate(0 14.222222222222221)"/><use xlink:href="#m" transform="matrix(1,0,0,1,698.999999521106,340.90297261759474) translate(50.86419753086419 14.222222222222221)"/><use xlink:href="#n" transform="matrix(1,0,0,1,698.999999521106,340.90297261759474) translate(85.43209876543207 14.222222222222221)"/><use xlink:href="#o" transform="matrix(1,0,0,1,698.999999521106,340.90297261759474) translate(166.27160493827154 14.222222222222221)"/><path d="M282.5 243.6h346.64M282.56 243.6H280" stroke="#3a414a" stroke-width="5" fill="none"/><path d="M645.9 243.6l-14.26 4.63v-9.27z" stroke="#3a414a" stroke-width="5" fill="#3a414a"/><path d="M656.5 330h362.64M656.56 330H654" stroke="#3a414a" stroke-width="5" fill="none"/><path d="M1035.9 330l-14.26 4.63v-9.26z" stroke="#3a414a" stroke-width="5" fill="#3a414a"/><path d="M1041.5 366H678.86M1041.44 366h2.56" stroke="#3a414a" stroke-width="5" fill="none"/><path d="M662.1 366l14.26-4.64v9.27z" stroke="#3a414a" stroke-width="5" fill="#3a414a"/><path d="M651.5 398.15H304.86M651.44 398.15H654" stroke="#3a414a" stroke-width="5" fill="none"/><path d="M288.1 398.16l14.26-4.63v9.27z" stroke="#3a414a" stroke-width="5" fill="#3a414a"/><path d="M694 286a6 6 0 0 1 6-6h348a6 6 0 0 1 6 6v54a6 6 0 0 1-6 6H700a6 6 0 0 1-6-6z" stroke="#000" stroke-opacity="0" stroke-width="5" fill="#fff" fill-opacity="0"/><use xlink:href="#g" transform="matrix(1,0,0,1,698.999999521106,285) translate(0 32.034722222222214)"/><use xlink:href="#h" transform="matrix(1,0,0,1,698.999999521106,285) translate(50.86419753086418 32.034722222222214)"/><use xlink:href="#i" transform="matrix(1,0,0,1,698.999999521106,285) translate(128.79012345679007 32.034722222222214)"/><path d="M320 373.95a6 6 0 0 1 6-6h288a6 6 0 0 1 6 6v18a6 6 0 0 1-6 6H326a6 6 0 0 1-6-6z" stroke="#000" stroke-opacity="0" stroke-width="5" fill="#fff" fill-opacity="0"/><use xlink:href="#l" transform="matrix(1,0,0,1,325,372.95148630879737) translate(0 14.222222222222221)"/><use xlink:href="#m" transform="matrix(1,0,0,1,325,372.95148630879737) translate(50.86419753086419 14.222222222222221)"/><use xlink:href="#n" transform="matrix(1,0,0,1,325,372.95148630879737) translate(85.43209876543207 14.222222222222221)"/><use xlink:href="#o" transform="matrix(1,0,0,1,325,372.95148630879737) translate(166.27160493827154 14.222222222222221)"/><path d="M320 433.95a6 6 0 0 1 6-6h244a6 6 0 0 1 6 6v18a6 6 0 0 1-6 6H326a6 6 0 0 1-6-6z" stroke="#000" stroke-opacity="0" stroke-width="5" fill="#fff" fill-opacity="0"/><use xlink:href="#p" transform="matrix(1,0,0,1,325,432.95148630879737) translate(0 15.472222222222221)"/><use xlink:href="#q" transform="matrix(1,0,0,1,325,432.95148630879737) translate(37.481481481481474 15.472222222222221)"/><use xlink:href="#r" transform="matrix(1,0,0,1,325,432.95148630879737) translate(93.72839506172838 15.472222222222221)"/><path d="M282.5 458.4h736.64M282.56 458.4H280" stroke="#3a414a" stroke-width="5" fill="none"/><path d="M1035.9 458.4l-14.26 4.62v-9.27z" stroke="#3a414a" stroke-width="5" fill="#3a414a"/><path d="M1041.5 499.3H304.86M1041.44 499.3h2.56" stroke="#3a414a" stroke-width="5" fill="none"/><path d="M288.1 499.3l14.26-4.62v9.27z" stroke="#3a414a" stroke-width="5" fill="#3a414a"/><path d="M700 466a6 6 0 0 1 6-6h228a6 6 0 0 1 6 6v31a6 6 0 0 1-6 6H706a6 6 0 0 1-6-6z" stroke="#000" stroke-opacity="0" stroke-width="5" fill="#fff" fill-opacity="0"/><g><use xlink:href="#p" transform="matrix(1,0,0,1,705,465) translate(0 20.59722222222222)"/><use xlink:href="#s" transform="matrix(1,0,0,1,705,465) translate(37.481481481481474 20.59722222222222)"/></g><path d="M304.86 544.92h714.28" stroke="#3a414a" stroke-width="5" fill="none"/><path d="M288.1 544.92l14.26-4.64v9.27zM1035.9 544.92l-14.26 4.63v-9.27z" stroke="#3a414a" stroke-width="5" fill="#3a414a"/><path d="M328 506a6 6 0 0 1 6-6h228a6 6 0 0 1 6 6v48a6 6 0 0 1-6 6H334a6 6 0 0 1-6-6z" stroke="#000" stroke-opacity="0" stroke-width="5" fill="#fff" fill-opacity="0"/><g><use xlink:href="#t" transform="matrix(1,0,0,1,332.9999998973799,505) translate(0 29.84722222222222)"/></g><defs><path fill="#3a414a" d="M205 0l-28-72H64L36 0H1l101-248h38L239 0h-34zm-38-99l-47-123c-12 45-31 82-46 123h93" id="u"/><path fill="#3a414a" d="M115-194c55 1 70 41 70 98S169 2 115 4C84 4 66-9 55-30l1 105H24l-1-265h31l2 30c10-21 28-34 59-34zm-8 174c40 0 45-34 45-75s-6-73-45-74c-42 0-51 32-51 76 0 43 10 73 51 73" id="v"/><path fill="#3a414a" d="M24 0v-261h32V0H24" id="w"/><path fill="#3a414a" d="M24-231v-30h32v30H24zM24 0v-190h32V0H24" id="x"/><path fill="#3a414a" d="M96-169c-40 0-48 33-48 73s9 75 48 75c24 0 41-14 43-38l32 2c-6 37-31 61-74 61-59 0-76-41-82-99-10-93 101-131 147-64 4 7 5 14 7 22l-32 3c-4-21-16-35-41-35" id="y"/><path fill="#3a414a" d="M141-36C126-15 110 5 73 4 37 3 15-17 15-53c-1-64 63-63 125-63 3-35-9-54-41-54-24 1-41 7-42 31l-33-3c5-37 33-52 76-52 45 0 72 20 72 64v82c-1 20 7 32 28 27v20c-31 9-61-2-59-35zM48-53c0 20 12 33 32 33 41-3 63-29 60-74-43 2-92-5-92 41" id="z"/><path fill="#3a414a" d="M59-47c-2 24 18 29 38 22v24C64 9 27 4 27-40v-127H5v-23h24l9-43h21v43h35v23H59v120" id="A"/><path fill="#3a414a" d="M100-194c62-1 85 37 85 99 1 63-27 99-86 99S16-35 15-95c0-66 28-99 85-99zM99-20c44 1 53-31 53-75 0-43-8-75-51-75s-53 32-53 75 10 74 51 75" id="B"/><path fill="#3a414a" d="M117-194c89-4 53 116 60 194h-32v-121c0-31-8-49-39-48C34-167 62-67 57 0H25l-1-190h30c1 10-1 24 2 32 11-22 29-35 61-36" id="C"/><g id="a"><use transform="matrix(0.06172839506172839,0,0,0.06172839506172839,0,0)" xlink:href="#u"/><use transform="matrix(0.06172839506172839,0,0,0.06172839506172839,14.814814814814813,0)" xlink:href="#v"/><use transform="matrix(0.06172839506172839,0,0,0.06172839506172839,27.160493827160494,0)" xlink:href="#v"/><use transform="matrix(0.06172839506172839,0,0,0.06172839506172839,39.50617283950617,0)" xlink:href="#w"/><use transform="matrix(0.06172839506172839,0,0,0.06172839506172839,44.382716049382715,0)" xlink:href="#x"/><use transform="matrix(0.06172839506172839,0,0,0.06172839506172839,49.25925925925926,0)" xlink:href="#y"/><use transform="matrix(0.06172839506172839,0,0,0.06172839506172839,60.37037037037037,0)" xlink:href="#z"/><use transform="matrix(0.06172839506172839,0,0,0.06172839506172839,72.71604938271605,0)" xlink:href="#A"/><use transform="matrix(0.06172839506172839,0,0,0.06172839506172839,78.88888888888889,0)" xlink:href="#x"/><use transform="matrix(0.06172839506172839,0,0,0.06172839506172839,83.76543209876543,0)" xlink:href="#B"/><use transform="matrix(0.06172839506172839,0,0,0.06172839506172839,96.11111111111111,0)" xlink:href="#C"/></g><path fill="#3a414a" d="M30 0v-248h33v221h125V0H30" id="D"/><path fill="#3a414a" d="M85-194c31 0 48 13 60 33l-1-100h32l1 261h-30c-2-10 0-23-3-31C134-8 116 4 85 4 32 4 16-35 15-94c0-66 23-100 70-100zm9 24c-40 0-46 34-46 75 0 40 6 74 45 74 42 0 51-32 51-76 0-42-9-74-50-73" id="E"/><g id="b"><use transform="matrix(0.06172839506172839,0,0,0.06172839506172839,0,0)" xlink:href="#D"/><use transform="matrix(0.06172839506172839,0,0,0.06172839506172839,12.345679012345679,0)" xlink:href="#B"/><use transform="matrix(0.06172839506172839,0,0,0.06172839506172839,24.691358024691358,0)" xlink:href="#z"/><use transform="matrix(0.06172839506172839,0,0,0.06172839506172839,37.03703703703704,0)" xlink:href="#E"/></g><path fill="#3a414a" d="M160-131c35 5 61 23 61 61C221 17 115-2 30 0v-248c76 3 177-17 177 60 0 33-19 50-47 57zm-97-11c50-1 110 9 110-42 0-47-63-36-110-37v79zm0 115c55-2 124 14 124-45 0-56-70-42-124-44v89" id="F"/><path fill="#3a414a" d="M100-194c63 0 86 42 84 106H49c0 40 14 67 53 68 26 1 43-12 49-29l28 8c-11 28-37 45-77 45C44 4 14-33 15-96c1-61 26-98 85-98zm52 81c6-60-76-77-97-28-3 7-6 17-6 28h103" id="G"/><path fill="#3a414a" d="M114-163C36-179 61-72 57 0H25l-1-190h30c1 12-1 29 2 39 6-27 23-49 58-41v29" id="H"/><g id="c"><use transform="matrix(0.06172839506172839,0,0,0.06172839506172839,0,0)" xlink:href="#F"/><use transform="matrix(0.06172839506172839,0,0,0.06172839506172839,14.814814814814813,0)" xlink:href="#z"/><use transform="matrix(0.06172839506172839,0,0,0.06172839506172839,27.160493827160494,0)" xlink:href="#w"/><use transform="matrix(0.06172839506172839,0,0,0.06172839506172839,32.03703703703704,0)" xlink:href="#z"/><use transform="matrix(0.06172839506172839,0,0,0.06172839506172839,44.382716049382715,0)" xlink:href="#C"/><use transform="matrix(0.06172839506172839,0,0,0.06172839506172839,56.72839506172839,0)" xlink:href="#y"/><use transform="matrix(0.06172839506172839,0,0,0.06172839506172839,67.8395061728395,0)" xlink:href="#G"/><use transform="matrix(0.06172839506172839,0,0,0.06172839506172839,80.18518518518519,0)" xlink:href="#H"/></g><path fill="#3a414a" d="M212-179c-10-28-35-45-73-45-59 0-87 40-87 99 0 60 29 101 89 101 43 0 62-24 78-52l27 14C228-24 195 4 139 4 59 4 22-46 18-125c-6-104 99-153 187-111 19 9 31 26 39 46" id="I"/><g id="d"><use transform="matrix(0.06172839506172839,0,0,0.06172839506172839,0,0)" xlink:href="#I"/><use transform="matrix(0.06172839506172839,0,0,0.06172839506172839,15.987654320987653,0)" xlink:href="#w"/><use transform="matrix(0.06172839506172839,0,0,0.06172839506172839,20.864197530864196,0)" xlink:href="#x"/><use transform="matrix(0.06172839506172839,0,0,0.06172839506172839,25.74074074074074,0)" xlink:href="#G"/><use transform="matrix(0.06172839506172839,0,0,0.06172839506172839,38.08641975308642,0)" xlink:href="#C"/><use transform="matrix(0.06172839506172839,0,0,0.06172839506172839,50.432098765432094,0)" xlink:href="#A"/></g><path fill="#3a414a" d="M30-248c87 1 191-15 191 75 0 78-77 80-158 76V0H30v-248zm33 125c57 0 124 11 124-50 0-59-68-47-124-48v98" id="J"/><path fill="#3a414a" d="M141 0L90-78 38 0H4l68-98-65-92h35l48 74 47-74h35l-64 92 68 98h-35" id="K"/><path fill="#3a414a" d="M179-190L93 31C79 59 56 82 12 73V49c39 6 53-20 64-50L1-190h34L92-34l54-156h33" id="L"/><g id="e"><use transform="matrix(0.06172839506172839,0,0,0.06172839506172839,0,0)" xlink:href="#J"/><use transform="matrix(0.06172839506172839,0,0,0.06172839506172839,14.814814814814813,0)" xlink:href="#H"/><use transform="matrix(0.06172839506172839,0,0,0.06172839506172839,22.160493827160494,0)" xlink:href="#B"/><use transform="matrix(0.06172839506172839,0,0,0.06172839506172839,34.50617283950617,0)" xlink:href="#K"/><use transform="matrix(0.06172839506172839,0,0,0.06172839506172839,45.61728395061728,0)" xlink:href="#L"/></g><path fill="#3a414a" d="M185-189c-5-48-123-54-124 2 14 75 158 14 163 119 3 78-121 87-175 55-17-10-28-26-33-46l33-7c5 56 141 63 141-1 0-78-155-14-162-118-5-82 145-84 179-34 5 7 8 16 11 25" id="M"/><path fill="#3a414a" d="M108 0H70L1-190h34L89-25l56-165h34" id="N"/><g id="f"><use transform="matrix(0.06172839506172839,0,0,0.06172839506172839,0,0)" xlink:href="#M"/><use transform="matrix(0.06172839506172839,0,0,0.06172839506172839,14.814814814814813,0)" xlink:href="#G"/><use transform="matrix(0.06172839506172839,0,0,0.06172839506172839,27.160493827160494,0)" xlink:href="#H"/><use transform="matrix(0.06172839506172839,0,0,0.06172839506172839,34.50617283950617,0)" xlink:href="#N"/><use transform="matrix(0.06172839506172839,0,0,0.06172839506172839,45.61728395061728,0)" xlink:href="#x"/><use transform="matrix(0.06172839506172839,0,0,0.06172839506172839,50.49382716049382,0)" xlink:href="#y"/><use transform="matrix(0.06172839506172839,0,0,0.06172839506172839,61.60493827160494,0)" xlink:href="#G"/></g><path fill="#3a414a" d="M197 0v-115H63V0H30v-248h33v105h134v-105h34V0h-34" id="O"/><path fill="#3a414a" d="M127-220V0H93v-220H8v-28h204v28h-85" id="P"/><g id="g"><use transform="matrix(0.0493827160493827,0,0,0.0493827160493827,0,0)" xlink:href="#O"/><use transform="matrix(0.0493827160493827,0,0,0.0493827160493827,12.79012345679012,0)" xlink:href="#P"/><use transform="matrix(0.0493827160493827,0,0,0.0493827160493827,23.60493827160493,0)" xlink:href="#P"/><use transform="matrix(0.0493827160493827,0,0,0.0493827160493827,34.41975308641974,0)" xlink:href="#J"/></g><path fill="#3a414a" d="M232-93c-1 65-40 97-104 97C67 4 28-28 28-90v-158h33c8 89-33 224 67 224 102 0 64-133 71-224h33v155" id="Q"/><path fill="#3a414a" d="M177-190C167-65 218 103 67 71c-23-6-38-20-44-43l32-5c15 47 100 32 89-28v-30C133-14 115 1 83 1 29 1 15-40 15-95c0-56 16-97 71-98 29-1 48 16 59 35 1-10 0-23 2-32h30zM94-22c36 0 50-32 50-73 0-42-14-75-50-75-39 0-46 34-46 75s6 73 46 73" id="R"/><path fill="#3a414a" d="M33-154v-36h34v36H33zM33 0v-36h34V0H33" id="S"/><g id="h"><use transform="matrix(0.0493827160493827,0,0,0.0493827160493827,0,0)" xlink:href="#Q"/><use transform="matrix(0.0493827160493827,0,0,0.0493827160493827,12.79012345679012,0)" xlink:href="#v"/><use transform="matrix(0.0493827160493827,0,0,0.0493827160493827,22.666666666666657,0)" xlink:href="#R"/><use transform="matrix(0.0493827160493827,0,0,0.0493827160493827,32.543209876543195,0)" xlink:href="#H"/><use transform="matrix(0.0493827160493827,0,0,0.0493827160493827,38.41975308641973,0)" xlink:href="#z"/><use transform="matrix(0.0493827160493827,0,0,0.0493827160493827,48.29629629629627,0)" xlink:href="#E"/><use transform="matrix(0.0493827160493827,0,0,0.0493827160493827,58.17283950617281,0)" xlink:href="#G"/><use transform="matrix(0.0493827160493827,0,0,0.0493827160493827,68.04938271604935,0)" xlink:href="#S"/></g><path fill="#3a414a" d="M206 0h-36l-40-164L89 0H53L-1-190h32L70-26l43-164h34l41 164 42-164h31" id="T"/><path fill="#3a414a" d="M115-194c53 0 69 39 70 98 0 66-23 100-70 100C84 3 66-7 56-30L54 0H23l1-261h32v101c10-23 28-34 59-34zm-8 174c40 0 45-34 45-75 0-40-5-75-45-74-42 0-51 32-51 76 0 43 10 73 51 73" id="U"/><path fill="#3a414a" d="M135-143c-3-34-86-38-87 0 15 53 115 12 119 90S17 21 10-45l28-5c4 36 97 45 98 0-10-56-113-15-118-90-4-57 82-63 122-42 12 7 21 19 24 35" id="V"/><path fill="#3a414a" d="M143 0L79-87 56-68V0H24v-261h32v163l83-92h37l-77 82L181 0h-38" id="W"/><g id="i"><use transform="matrix(0.0493827160493827,0,0,0.0493827160493827,0,0)" xlink:href="#T"/><use transform="matrix(0.0493827160493827,0,0,0.0493827160493827,12.79012345679012,0)" xlink:href="#G"/><use transform="matrix(0.0493827160493827,0,0,0.0493827160493827,22.666666666666657,0)" xlink:href="#U"/><use transform="matrix(0.0493827160493827,0,0,0.0493827160493827,32.543209876543195,0)" xlink:href="#V"/><use transform="matrix(0.0493827160493827,0,0,0.0493827160493827,41.43209876543208,0)" xlink:href="#B"/><use transform="matrix(0.0493827160493827,0,0,0.0493827160493827,51.30864197530861,0)" xlink:href="#y"/><use transform="matrix(0.0493827160493827,0,0,0.0493827160493827,60.197530864197496,0)" xlink:href="#W"/><use transform="matrix(0.0493827160493827,0,0,0.0493827160493827,69.08641975308639,0)" xlink:href="#G"/><use transform="matrix(0.0493827160493827,0,0,0.0493827160493827,78.96296296296293,0)" xlink:href="#A"/></g><path fill="#3a414a" d="M210-169c-67 3-38 105-44 169h-31v-121c0-29-5-50-35-48C34-165 62-65 56 0H25l-1-190h30c1 10-1 24 2 32 10-44 99-50 107 0 11-21 27-35 58-36 85-2 47 119 55 194h-31v-121c0-29-5-49-35-48" id="X"/><g id="j"><use transform="matrix(0.0493827160493827,0,0,0.0493827160493827,0,0)" xlink:href="#P"/><use transform="matrix(0.0493827160493827,0,0,0.0493827160493827,8.839506172839503,0)" xlink:href="#G"/><use transform="matrix(0.0493827160493827,0,0,0.0493827160493827,18.716049382716044,0)" xlink:href="#H"/><use transform="matrix(0.0493827160493827,0,0,0.0493827160493827,24.592592592592585,0)" xlink:href="#X"/><use transform="matrix(0.0493827160493827,0,0,0.0493827160493827,39.35802469135801,0)" xlink:href="#x"/><use transform="matrix(0.0493827160493827,0,0,0.0493827160493827,43.259259259259245,0)" xlink:href="#C"/><use transform="matrix(0.0493827160493827,0,0,0.0493827160493827,53.13580246913578,0)" xlink:href="#z"/><use transform="matrix(0.0493827160493827,0,0,0.0493827160493827,63.01234567901233,0)" xlink:href="#A"/><use transform="matrix(0.0493827160493827,0,0,0.0493827160493827,67.95061728395059,0)" xlink:href="#G"/></g><g id="k"><use transform="matrix(0.0493827160493827,0,0,0.0493827160493827,0,0)" xlink:href="#P"/><use transform="matrix(0.0493827160493827,0,0,0.0493827160493827,10.814814814814811,0)" xlink:href="#D"/><use transform="matrix(0.0493827160493827,0,0,0.0493827160493827,20.69135802469135,0)" xlink:href="#M"/></g><g id="l"><use transform="matrix(0.049382716049382706,0,0,0.049382716049382706,0,0)" xlink:href="#O"/><use transform="matrix(0.049382716049382706,0,0,0.049382716049382706,12.790123456790122,0)" xlink:href="#P"/><use transform="matrix(0.049382716049382706,0,0,0.049382716049382706,23.604938271604937,0)" xlink:href="#P"/><use transform="matrix(0.049382716049382706,0,0,0.049382716049382706,34.419753086419746,0)" xlink:href="#J"/></g><path fill="#3a414a" d="M27 0v-27h64v-190l-56 39v-29l58-41h29v221h61V0H27" id="Y"/><path fill="#3a414a" d="M101-251c68 0 85 55 85 127S166 4 100 4C33 4 14-52 14-124c0-73 17-127 87-127zm-1 229c47 0 54-49 54-102s-4-102-53-102c-51 0-55 48-55 102 0 53 5 102 54 102" id="Z"/><g id="m"><use transform="matrix(0.049382716049382706,0,0,0.049382716049382706,0,0)" xlink:href="#Y"/><use transform="matrix(0.049382716049382706,0,0,0.049382716049382706,9.87654320987654,0)" xlink:href="#Z"/><use transform="matrix(0.049382716049382706,0,0,0.049382716049382706,19.75308641975308,0)" xlink:href="#Y"/></g><path fill="#3a414a" d="M106-169C34-169 62-67 57 0H25v-261h32l-1 103c12-21 28-36 61-36 89 0 53 116 60 194h-32v-121c2-32-8-49-39-48" id="aa"/><g id="n"><use transform="matrix(0.049382716049382706,0,0,0.049382716049382706,0,0)" xlink:href="#M"/><use transform="matrix(0.049382716049382706,0,0,0.049382716049382706,11.85185185185185,0)" xlink:href="#T"/><use transform="matrix(0.049382716049382706,0,0,0.049382716049382706,24.64197530864197,0)" xlink:href="#x"/><use transform="matrix(0.049382716049382706,0,0,0.049382716049382706,28.543209876543205,0)" xlink:href="#A"/><use transform="matrix(0.049382716049382706,0,0,0.049382716049382706,33.481481481481474,0)" xlink:href="#y"/><use transform="matrix(0.049382716049382706,0,0,0.049382716049382706,42.37037037037036,0)" xlink:href="#aa"/><use transform="matrix(0.049382716049382706,0,0,0.049382716049382706,52.24691358024689,0)" xlink:href="#x"/><use transform="matrix(0.049382716049382706,0,0,0.049382716049382706,56.148148148148124,0)" xlink:href="#C"/><use transform="matrix(0.049382716049382706,0,0,0.049382716049382706,66.02469135802467,0)" xlink:href="#R"/></g><g id="o"><use transform="matrix(0.049382716049382706,0,0,0.049382716049382706,0,0)" xlink:href="#J"/><use transform="matrix(0.049382716049382706,0,0,0.049382716049382706,11.85185185185185,0)" xlink:href="#H"/><use transform="matrix(0.049382716049382706,0,0,0.049382716049382706,17.728395061728392,0)" xlink:href="#B"/><use transform="matrix(0.049382716049382706,0,0,0.049382716049382706,27.604938271604933,0)" xlink:href="#A"/><use transform="matrix(0.049382716049382706,0,0,0.049382716049382706,32.5432098765432,0)" xlink:href="#B"/><use transform="matrix(0.049382716049382706,0,0,0.049382716049382706,42.419753086419746,0)" xlink:href="#y"/><use transform="matrix(0.049382716049382706,0,0,0.049382716049382706,51.30864197530863,0)" xlink:href="#B"/><use transform="matrix(0.049382716049382706,0,0,0.049382716049382706,61.185185185185176,0)" xlink:href="#w"/><use transform="matrix(0.049382716049382706,0,0,0.049382716049382706,65.0864197530864,0)" xlink:href="#V"/></g><g id="p"><use transform="matrix(0.049382716049382706,0,0,0.049382716049382706,0,0)" xlink:href="#P"/><use transform="matrix(0.049382716049382706,0,0,0.049382716049382706,10.814814814814813,0)" xlink:href="#D"/><use transform="matrix(0.049382716049382706,0,0,0.049382716049382706,20.691358024691354,0)" xlink:href="#M"/></g><path fill="#3a414a" d="M190 0L58-211 59 0H30v-248h39L202-35l-2-213h31V0h-41" id="ab"/><g id="q"><use transform="matrix(0.049382716049382706,0,0,0.049382716049382706,0,0)" xlink:href="#u"/><use transform="matrix(0.049382716049382706,0,0,0.049382716049382706,11.85185185185185,0)" xlink:href="#D"/><use transform="matrix(0.049382716049382706,0,0,0.049382716049382706,21.728395061728392,0)" xlink:href="#J"/><use transform="matrix(0.049382716049382706,0,0,0.049382716049382706,33.58024691358024,0)" xlink:href="#ab"/><use transform="matrix(0.049382716049382706,0,0,0.049382716049382706,46.37037037037036,0)" xlink:href="#S"/></g><path fill="#3a414a" d="M16-82v-28h88v28H16" id="ac"/><path fill="#3a414a" d="M145-31C134-9 116 4 85 4 32 4 16-35 15-94c0-59 17-99 70-100 32-1 48 14 60 33 0-11-1-24 2-32h30l-1 268h-32zM93-21c41 0 51-33 51-76s-8-73-50-73c-40 0-46 35-46 75s5 74 45 74" id="ad"/><g id="r"><use transform="matrix(0.049382716049382706,0,0,0.049382716049382706,0,0)" xlink:href="#A"/><use transform="matrix(0.049382716049382706,0,0,0.049382716049382706,4.93827160493827,0)" xlink:href="#G"/><use transform="matrix(0.049382716049382706,0,0,0.049382716049382706,14.814814814814811,0)" xlink:href="#w"/><use transform="matrix(0.049382716049382706,0,0,0.049382716049382706,18.716049382716044,0)" xlink:href="#G"/><use transform="matrix(0.049382716049382706,0,0,0.049382716049382706,28.592592592592588,0)" xlink:href="#v"/><use transform="matrix(0.049382716049382706,0,0,0.049382716049382706,38.469135802469125,0)" xlink:href="#B"/><use transform="matrix(0.049382716049382706,0,0,0.049382716049382706,48.34567901234567,0)" xlink:href="#H"/><use transform="matrix(0.049382716049382706,0,0,0.049382716049382706,54.222222222222214,0)" xlink:href="#A"/><use transform="matrix(0.049382716049382706,0,0,0.049382716049382706,59.16049382716048,0)" xlink:href="#ac"/><use transform="matrix(0.049382716049382706,0,0,0.049382716049382706,65.03703703703702,0)" xlink:href="#X"/><use transform="matrix(0.049382716049382706,0,0,0.049382716049382706,79.80246913580245,0)" xlink:href="#L"/><use transform="matrix(0.049382716049382706,0,0,0.049382716049382706,88.69135802469134,0)" xlink:href="#V"/><use transform="matrix(0.049382716049382706,0,0,0.049382716049382706,97.58024691358023,0)" xlink:href="#ad"/><use transform="matrix(0.049382716049382706,0,0,0.049382716049382706,107.45679012345677,0)" xlink:href="#w"/></g><g id="s"><use transform="matrix(0.049382716049382706,0,0,0.049382716049382706,0,0)" xlink:href="#aa"/><use transform="matrix(0.049382716049382706,0,0,0.049382716049382706,9.87654320987654,0)" xlink:href="#z"/><use transform="matrix(0.049382716049382706,0,0,0.049382716049382706,19.75308641975308,0)" xlink:href="#C"/><use transform="matrix(0.049382716049382706,0,0,0.049382716049382706,29.629629629629623,0)" xlink:href="#E"/><use transform="matrix(0.049382716049382706,0,0,0.049382716049382706,39.50617283950616,0)" xlink:href="#V"/><use transform="matrix(0.049382716049382706,0,0,0.049382716049382706,48.39506172839505,0)" xlink:href="#aa"/><use transform="matrix(0.049382716049382706,0,0,0.049382716049382706,58.271604938271594,0)" xlink:href="#z"/><use transform="matrix(0.049382716049382706,0,0,0.049382716049382706,68.14814814814814,0)" xlink:href="#W"/><use transform="matrix(0.049382716049382706,0,0,0.049382716049382706,77.03703703703702,0)" xlink:href="#G"/></g><path fill="#3a414a" d="M240 0l2-218c-23 76-54 145-80 218h-23L58-218 59 0H30v-248h44l77 211c21-75 51-140 76-211h43V0h-30" id="ae"/><path fill="#3a414a" d="M140-251c81 0 123 46 123 126C263-53 228-8 163 1c7 30 30 48 69 40v23c-55 16-95-15-103-61C56-3 17-48 17-125c0-80 42-126 123-126zm0 227c63 0 89-41 89-101s-29-99-89-99c-61 0-89 39-89 99S79-25 140-24" id="af"/><g id="t"><use transform="matrix(0.049382716049382706,0,0,0.049382716049382706,0,0)" xlink:href="#ae"/><use transform="matrix(0.049382716049382706,0,0,0.049382716049382706,14.765432098765428,0)" xlink:href="#L"/><use transform="matrix(0.049382716049382706,0,0,0.049382716049382706,23.654320987654316,0)" xlink:href="#M"/><use transform="matrix(0.049382716049382706,0,0,0.049382716049382706,35.50617283950616,0)" xlink:href="#af"/><use transform="matrix(0.049382716049382706,0,0,0.049382716049382706,49.33333333333332,0)" xlink:href="#D"/></g></defs></g></svg>