<svg xmlns="http://www.w3.org/2000/svg" xmlns:xlink="http://www.w3.org/1999/xlink" xmlns:lucid="lucid" width="816.63" height="982"><g transform="translate(193 4540)" lucid:page-tab-id="0_0"><path d="M-173-4516a4 4 0 0 1 4-4h755.25a4 4 0 0 1 4 4v934a4 4 0 0 1-4 4H-169a4 4 0 0 1-4-4z" stroke="#000" stroke-opacity="0" stroke-width="2" fill="#651fff"/><path d="M-151.38-4412a4 4 0 0 1 4-4h712a4 4 0 0 1 4 4v88a4 4 0 0 1-4 4h-712a4 4 0 0 1-4-4z" stroke="#fff" stroke-opacity=".72" stroke-width="2" fill="#fff" fill-opacity="0"/><path d="M-135.38-4398.67H540v92.67h-675.38z" stroke="#000" stroke-opacity="0" stroke-width="2" fill="#fff" fill-opacity="0"/><use xlink:href="#a" transform="matrix(1,0,0,1,-130.375,-4393.666666666666) translate(0 19.555555555555557)"/><use xlink:href="#b" transform="matrix(1,0,0,1,-130.375,-4393.666666666666) translate(94.92592592592592 19.555555555555557)"/><use xlink:href="#c" transform="matrix(1,0,0,1,-130.375,-4393.666666666666) translate(0 47.111111111111114)"/><use xlink:href="#d" transform="matrix(1,0,0,1,-130.375,-4393.666666666666) translate(80.12345679012344 47.111111111111114)"/><use xlink:href="#e" transform="matrix(1,0,0,1,-130.375,-4393.666666666666) translate(104.8148148148148 47.111111111111114)"/><use xlink:href="#f" transform="matrix(1,0,0,1,-130.375,-4393.666666666666) translate(141.85185185185185 47.111111111111114)"/><path d="M-151.38-4499.33h755v80h-755z" stroke="#000" stroke-opacity="0" stroke-width="2" fill="#fff" fill-opacity="0"/><use xlink:href="#g" transform="matrix(1,0,0,1,-146.375,-4494.333333333372) translate(0 37.28666666666667)"/><use xlink:href="#h" transform="matrix(1,0,0,1,-146.375,-4494.333333333372) translate(107.17555555555555 37.28666666666667)"/><path d="M-151.38-4297.33a4 4 0 0 1 4-4h712a4 4 0 0 1 4 4v90a4 4 0 0 1-4 4h-712a4 4 0 0 1-4-4z" stroke="#fff" stroke-opacity=".72" stroke-width="2" fill="#fff" fill-opacity="0"/><path d="M-135.38-4285h700v98h-700z" stroke="#000" stroke-opacity="0" stroke-width="2" fill="#fff" fill-opacity="0"/><use xlink:href="#i" transform="matrix(1,0,0,1,-130.375,-4280.000000000039) translate(0 19.555555555555557)"/><use xlink:href="#j" transform="matrix(1,0,0,1,-130.375,-4280.000000000039) translate(73.33333333333333 19.555555555555557)"/><use xlink:href="#k" transform="matrix(1,0,0,1,-130.375,-4280.000000000039) translate(0 47.111111111111114)"/><use xlink:href="#l" transform="matrix(1,0,0,1,-130.375,-4280.000000000039) translate(19.753086419753085 47.111111111111114)"/><use xlink:href="#m" transform="matrix(1,0,0,1,-130.375,-4280.000000000039) translate(92.53086419753086 47.111111111111114)"/><use xlink:href="#d" transform="matrix(1,0,0,1,-130.375,-4280.000000000039) translate(120.86419753086419 47.111111111111114)"/><use xlink:href="#n" transform="matrix(1,0,0,1,-130.375,-4280.000000000039) translate(145.55555555555554 47.111111111111114)"/><use xlink:href="#o" transform="matrix(1,0,0,1,-130.375,-4280.000000000039) translate(186.23456790123456 47.111111111111114)"/><use xlink:href="#p" transform="matrix(1,0,0,1,-130.375,-4280.000000000039) translate(287.28395061728395 47.111111111111114)"/><use xlink:href="#q" transform="matrix(1,0,0,1,-130.375,-4280.000000000039) translate(357.5925925925926 47.111111111111114)"/><use xlink:href="#e" transform="matrix(1,0,0,1,-130.375,-4280.000000000039) translate(387.22222222222223 47.111111111111114)"/><use xlink:href="#o" transform="matrix(1,0,0,1,-130.375,-4280.000000000039) translate(424.25925925925924 47.111111111111114)"/><use xlink:href="#r" transform="matrix(1,0,0,1,-130.375,-4280.000000000039) translate(525.3086419753087 47.111111111111114)"/><path d="M-151.38-4180.67a4 4 0 0 1 4-4h712a4 4 0 0 1 4 4v90a4 4 0 0 1-4 4h-712a4 4 0 0 1-4-4z" stroke="#fff" stroke-opacity=".72" stroke-width="2" fill="#fff" fill-opacity="0"/><path d="M-60-4187h500v84.67H-60z" stroke="#000" stroke-opacity="0" stroke-width="2" fill="#fff" fill-opacity="0"/><g><use xlink:href="#s" transform="matrix(1,0,0,1,-55,-4182.000000000039) translate(224.00000000000003 61.413333333333256)"/></g><path d="M-151.38-4060.67a4 4 0 0 1 4-4h712a4 4 0 0 1 4 4v90a4 4 0 0 1-4 4h-712a4 4 0 0 1-4-4z" stroke="#fff" stroke-opacity=".72" stroke-width="2" fill="#fff" fill-opacity="0"/><path d="M-135.37-4046h700v90h-700z" stroke="#000" stroke-opacity="0" stroke-width="2" fill="#fff" fill-opacity="0"/><g><use xlink:href="#t" transform="matrix(1,0,0,1,-130.37499999999994,-4041) translate(0 24.126666666666665)"/><use xlink:href="#u" transform="matrix(1,0,0,1,-130.37499999999994,-4041) translate(89.67444444444443 24.126666666666665)"/><use xlink:href="#v" transform="matrix(1,0,0,1,-130.37499999999994,-4041) translate(0 51.266666666666666)"/><use xlink:href="#w" transform="matrix(1,0,0,1,-130.37499999999994,-4041) translate(122.33333333333333 51.266666666666666)"/><use xlink:href="#x" transform="matrix(1,0,0,1,-130.37499999999994,-4041) translate(187.86666666666667 51.266666666666666)"/><use xlink:href="#y" transform="matrix(1,0,0,1,-130.37499999999994,-4041) translate(268 51.266666666666666)"/><use xlink:href="#z" transform="matrix(1,0,0,1,-130.37499999999994,-4041) translate(316.15555555555557 51.266666666666666)"/><use xlink:href="#A" transform="matrix(1,0,0,1,-130.37499999999994,-4041) translate(356.4888888888889 51.266666666666666)"/></g><path d="M-151.38-3942a4 4 0 0 1 4-4h712a4 4 0 0 1 4 4v90a4 4 0 0 1-4 4h-712a4 4 0 0 1-4-4z" stroke="#fff" stroke-opacity=".72" stroke-width="2" fill="#fff" fill-opacity="0"/><path d="M-141.38-3938h700v92.67h-700z" stroke="#000" stroke-opacity="0" stroke-width="2" fill="#fff" fill-opacity="0"/><g><use xlink:href="#B" transform="matrix(1,0,0,1,-136.375,-3933.000000000019) translate(0 19.555555555555557)"/><use xlink:href="#C" transform="matrix(1,0,0,1,-136.375,-3933.000000000019) translate(94.85802469135805 19.555555555555557)"/><use xlink:href="#D" transform="matrix(1,0,0,1,-136.375,-3933.000000000019) translate(174.84567901234573 19.555555555555557)"/><use xlink:href="#E" transform="matrix(1,0,0,1,-136.375,-3933.000000000019) translate(226.38271604938276 19.555555555555557)"/><use xlink:href="#F" transform="matrix(1,0,0,1,-136.375,-3933.000000000019) translate(0 47.111111111111114)"/><use xlink:href="#G" transform="matrix(1,0,0,1,-136.375,-3933.000000000019) translate(66.5432098765432 47.111111111111114)"/><use xlink:href="#H" transform="matrix(1,0,0,1,-136.375,-3933.000000000019) translate(107.28395061728395 47.111111111111114)"/><use xlink:href="#I" transform="matrix(1,0,0,1,-136.375,-3933.000000000019) translate(204.5679012345679 47.111111111111114)"/><use xlink:href="#J" transform="matrix(1,0,0,1,-136.375,-3933.000000000019) translate(247.77777777777777 47.111111111111114)"/><use xlink:href="#K" transform="matrix(1,0,0,1,-136.375,-3933.000000000019) translate(311.85185185185185 47.111111111111114)"/></g><path d="M-151.38-3823.33a4 4 0 0 1 4-4h712a4 4 0 0 1 4 4v90a4 4 0 0 1-4 4h-712a4 4 0 0 1-4-4z" stroke="#fff" stroke-opacity=".72" stroke-width="2" fill="#fff" fill-opacity="0"/><path d="M-135.37-3818h700v92.67h-700z" stroke="#000" stroke-opacity="0" stroke-width="2" fill="#fff" fill-opacity="0"/><g><use xlink:href="#L" transform="matrix(1,0,0,1,-130.37499999999994,-3813) translate(0 24.126666666666665)"/><use xlink:href="#M" transform="matrix(1,0,0,1,-130.37499999999994,-3813) translate(0 51.266666666666666)"/><use xlink:href="#N" transform="matrix(1,0,0,1,-130.37499999999994,-3813) translate(115.97777777777777 51.266666666666666)"/><use xlink:href="#O" transform="matrix(1,0,0,1,-130.37499999999994,-3813) translate(181.24444444444444 51.266666666666666)"/><use xlink:href="#P" transform="matrix(1,0,0,1,-130.37499999999994,-3813) translate(267.15555555555557 51.266666666666666)"/><use xlink:href="#Q" transform="matrix(1,0,0,1,-130.37499999999994,-3813) translate(338.40000000000003 51.266666666666666)"/><use xlink:href="#R" transform="matrix(1,0,0,1,-130.37499999999994,-3813) translate(405.20000000000005 51.266666666666666)"/><use xlink:href="#S" transform="matrix(1,0,0,1,-130.37499999999994,-3813) translate(452.08888888888896 51.266666666666666)"/><use xlink:href="#T" transform="matrix(1,0,0,1,-130.37499999999994,-3813) translate(514.6 51.266666666666666)"/><use xlink:href="#U" transform="matrix(1,0,0,1,-130.37499999999994,-3813) translate(565.5555555555555 51.266666666666666)"/><use xlink:href="#V" transform="matrix(1,0,0,1,-130.37499999999994,-3813) translate(632.4222222222222 51.266666666666666)"/><use xlink:href="#W" transform="matrix(1,0,0,1,-130.37499999999994,-3813) translate(0 77.93333333333334)"/><use xlink:href="#X" transform="matrix(1,0,0,1,-130.37499999999994,-3813) translate(64.08888888888889 77.93333333333334)"/></g><path d="M-151.38-3714a4 4 0 0 1 4-4h712a4 4 0 0 1 4 4v90a4 4 0 0 1-4 4h-712a4 4 0 0 1-4-4z" stroke="#fff" stroke-opacity=".72" stroke-width="2" fill="#fff" fill-opacity="0"/><path d="M-135.37-3699h700v60h-700z" stroke="#000" stroke-opacity="0" stroke-width="2" fill="#fff" fill-opacity="0"/><g><use xlink:href="#Y" transform="matrix(1,0,0,1,-130.37499999999994,-3694) translate(0 24.126666666666665)"/><use xlink:href="#Z" transform="matrix(1,0,0,1,-130.37499999999994,-3694) translate(110.20777777777776 24.126666666666665)"/><use xlink:href="#aa" transform="matrix(1,0,0,1,-130.37499999999994,-3694) translate(155.5522222222222 24.126666666666665)"/><use xlink:href="#ab" transform="matrix(1,0,0,1,-130.37499999999994,-3694) translate(265.76 24.126666666666665)"/><use xlink:href="#ac" transform="matrix(1,0,0,1,-130.37499999999994,-3694) translate(0 51.266666666666666)"/><use xlink:href="#ad" transform="matrix(1,0,0,1,-130.37499999999994,-3694) translate(108.84444444444445 51.266666666666666)"/><use xlink:href="#ae" transform="matrix(1,0,0,1,-130.37499999999994,-3694) translate(273.1777777777778 51.266666666666666)"/><use xlink:href="#af" transform="matrix(1,0,0,1,-130.37499999999994,-3694) translate(369.02222222222224 51.266666666666666)"/><use xlink:href="#ag" transform="matrix(1,0,0,1,-130.37499999999994,-3694) translate(393.15555555555557 51.266666666666666)"/><use xlink:href="#ah" transform="matrix(1,0,0,1,-130.37499999999994,-3694) translate(420.0888888888889 51.266666666666666)"/><use xlink:href="#ai" transform="matrix(1,0,0,1,-130.37499999999994,-3694) translate(521.088888888889 51.266666666666666)"/></g><path d="M563.48-4497.33c2.8 0 5.14 2.25 5.14 5.05v43.65c0 2.8-2.33 5.05-5.14 5.05h-58.33c-2.82 0-5.15-2.25-5.15-5.05v-43.65c0-2.8 2.33-5.05 5.15-5.05h58.33zm0 3.38h-58.33c-.96 0-1.72.76-1.72 1.67v43.65c0 .97.76 1.72 1.72 1.72h58.33c.96 0 1.7-.76 1.7-1.73v-43.65c0-.9-.74-1.67-1.7-1.67zm-34.3 36.94c.95 0 1.7.74 1.7 1.65 0 .97-.75 1.72-1.7 1.72H512c-.95 0-1.7-.75-1.7-1.72 0-.9.75-1.66 1.7-1.66h17.17zm22.3-32.27l2.8 2h3.43l1.1 3.2 2.76 2-1.03 3.23 1.03 3.22-2.75 1.94-.47 1.4v16.93c0 .7-.4 1.3-1.03 1.56-.2.12-.48.17-.68.17-.42 0-.9-.2-1.24-.54l-3.9-3.8-3.92 3.8c-.48.5-1.24.65-1.86.38-.68-.26-1.1-.85-1.1-1.55v-16.93l-.4-1.4-2.82-1.94 1.1-3.22-1.1-3.23 2.8-2 1.04-3.2h3.44l2.8-2zm-2.82 18.82h-.62v11.07l2.2-2.2c.68-.65 1.78-.65 2.46 0l2.2 2.2v-11.07h-.62l-2.8 1.98-2.82-1.98zm-16.06 6.72c.96 0 1.7.75 1.7 1.66 0 .97-.74 1.72-1.7 1.72H512c-.95 0-1.7-.75-1.7-1.72 0-.9.75-1.66 1.7-1.66h20.6zm0-6.72c.96 0 1.7.75 1.7 1.66 0 .98-.74 1.73-1.7 1.73H512c-.95 0-1.7-.75-1.7-1.72 0-.9.75-1.65 1.7-1.65h20.6zm18.87-14.63l-1.65 1.2h-2.13l-.62 1.92-1.65 1.18.62 1.94-.62 1.93 1.65 1.18.6 1.93h2.14l1.65 1.2 1.65-1.2h2.12l.62-1.92 1.65-1.2-.6-1.92.6-1.94-1.64-1.18-.62-1.93h-2.12l-1.65-1.18zm-18.87 7.9c.96 0 1.7.76 1.7 1.67 0 .96-.74 1.7-1.7 1.7H512c-.95 0-1.7-.74-1.7-1.7 0-.92.75-1.67 1.7-1.67h20.6zm0-10.05c.96 0 1.7.76 1.7 1.67 0 .9-.74 1.67-1.7 1.67H512c-.95 0-1.7-.75-1.7-1.66 0-.9.75-1.67 1.7-1.67h20.6z" stroke="#000" stroke-opacity="0" fill="#fff"/><defs><path fill="#fff" d="M147 0H94L2-248h55l64 206c17-72 42-137 63-206h54" id="aj"/><path fill="#fff" d="M185-48c-13 30-37 53-82 52C43 2 14-33 14-96s30-98 90-98c62 0 83 45 84 108H66c0 31 8 55 39 56 18 0 30-7 34-22zm-45-69c5-46-57-63-70-21-2 6-4 13-4 21h74" id="ak"/><path fill="#fff" d="M135-150c-39-12-60 13-60 57V0H25l-1-190h47c2 13-1 29 3 40 6-28 27-53 61-41v41" id="al"/><path fill="#fff" d="M137-138c1-29-70-34-71-4 15 46 118 7 119 86 1 83-164 76-172 9l43-7c4 19 20 25 44 25 33 8 57-30 24-41C81-84 22-81 20-136c-2-80 154-74 161-7" id="am"/><path fill="#fff" d="M25-224v-37h50v37H25zM25 0v-190h50V0H25" id="an"/><path fill="#fff" d="M110-194c64 0 96 36 96 99 0 64-35 99-97 99-61 0-95-36-95-99 0-62 34-99 96-99zm-1 164c35 0 45-28 45-65 0-40-10-65-43-65-34 0-45 26-45 65 0 36 10 65 43 65" id="ao"/><path fill="#fff" d="M135-194c87-1 58 113 63 194h-50c-7-57 23-157-34-157-59 0-34 97-39 157H25l-1-190h47c2 12-1 28 3 38 12-26 28-41 61-42" id="ap"/><g id="a"><use transform="matrix(0.06790123456790123,0,0,0.06790123456790123,0,0)" xlink:href="#aj"/><use transform="matrix(0.06790123456790123,0,0,0.06790123456790123,14.938271604938269,0)" xlink:href="#ak"/><use transform="matrix(0.06790123456790123,0,0,0.06790123456790123,28.518518518518515,0)" xlink:href="#al"/><use transform="matrix(0.06790123456790123,0,0,0.06790123456790123,38.02469135802469,0)" xlink:href="#am"/><use transform="matrix(0.06790123456790123,0,0,0.06790123456790123,51.60493827160494,0)" xlink:href="#an"/><use transform="matrix(0.06790123456790123,0,0,0.06790123456790123,58.39506172839506,0)" xlink:href="#ao"/><use transform="matrix(0.06790123456790123,0,0,0.06790123456790123,73.26543209876543,0)" xlink:href="#ap"/></g><path fill="#fff" d="M175 0L67-191c6 58 2 128 3 191H24v-248h59L193-55c-6-58-2-129-3-193h46V0h-61" id="aq"/><path fill="#fff" d="M85 4C-2 5 27-109 22-190h50c7 57-23 150 33 157 60-5 35-97 40-157h50l1 190h-47c-2-12 1-28-3-38-12 25-28 42-61 42" id="ar"/><path fill="#fff" d="M220-157c-53 9-28 100-34 157h-49v-107c1-27-5-49-29-50C55-147 81-57 75 0H25l-1-190h47c2 12-1 28 3 38 10-53 101-56 108 0 13-22 24-43 59-42 82 1 51 116 57 194h-49v-107c-1-25-5-48-29-50" id="as"/><path fill="#fff" d="M135-194c52 0 70 43 70 98 0 56-19 99-73 100-30 1-46-15-58-35L72 0H24l1-261h50v104c11-23 29-37 60-37zM114-30c31 0 40-27 40-66 0-37-7-63-39-63s-41 28-41 65c0 36 8 64 40 64" id="at"/><g id="b"><use transform="matrix(0.06790123456790123,0,0,0.06790123456790123,0,0)" xlink:href="#aq"/><use transform="matrix(0.06790123456790123,0,0,0.06790123456790123,17.586419753086417,0)" xlink:href="#ar"/><use transform="matrix(0.06790123456790123,0,0,0.06790123456790123,32.456790123456784,0)" xlink:href="#as"/><use transform="matrix(0.06790123456790123,0,0,0.06790123456790123,54.185185185185176,0)" xlink:href="#at"/><use transform="matrix(0.06790123456790123,0,0,0.06790123456790123,69.05555555555554,0)" xlink:href="#ak"/><use transform="matrix(0.06790123456790123,0,0,0.06790123456790123,82.6358024691358,0)" xlink:href="#al"/></g><path fill="#fff" d="M137 0h-34L2-248h35l83 218 83-218h36" id="au"/><path fill="#fff" d="M100-194c63 0 86 42 84 106H49c0 40 14 67 53 68 26 1 43-12 49-29l28 8c-11 28-37 45-77 45C44 4 14-33 15-96c1-61 26-98 85-98zm52 81c6-60-76-77-97-28-3 7-6 17-6 28h103" id="av"/><path fill="#fff" d="M114-163C36-179 61-72 57 0H25l-1-190h30c1 12-1 29 2 39 6-27 23-49 58-41v29" id="aw"/><path fill="#fff" d="M135-143c-3-34-86-38-87 0 15 53 115 12 119 90S17 21 10-45l28-5c4 36 97 45 98 0-10-56-113-15-118-90-4-57 82-63 122-42 12 7 21 19 24 35" id="ax"/><path fill="#fff" d="M24-231v-30h32v30H24zM24 0v-190h32V0H24" id="ay"/><path fill="#fff" d="M100-194c62-1 85 37 85 99 1 63-27 99-86 99S16-35 15-95c0-66 28-99 85-99zM99-20c44 1 53-31 53-75 0-43-8-75-51-75s-53 32-53 75 10 74 51 75" id="az"/><path fill="#fff" d="M117-194c89-4 53 116 60 194h-32v-121c0-31-8-49-39-48C34-167 62-67 57 0H25l-1-190h30c1 10-1 24 2 32 11-22 29-35 61-36" id="aA"/><g id="c"><use transform="matrix(0.06172839506172839,0,0,0.06172839506172839,0,0)" xlink:href="#au"/><use transform="matrix(0.06172839506172839,0,0,0.06172839506172839,13.580246913580245,0)" xlink:href="#av"/><use transform="matrix(0.06172839506172839,0,0,0.06172839506172839,25.925925925925924,0)" xlink:href="#aw"/><use transform="matrix(0.06172839506172839,0,0,0.06172839506172839,33.2716049382716,0)" xlink:href="#ax"/><use transform="matrix(0.06172839506172839,0,0,0.06172839506172839,44.38271604938271,0)" xlink:href="#ay"/><use transform="matrix(0.06172839506172839,0,0,0.06172839506172839,49.25925925925925,0)" xlink:href="#az"/><use transform="matrix(0.06172839506172839,0,0,0.06172839506172839,61.60493827160493,0)" xlink:href="#aA"/></g><path fill="#fff" d="M101-234c-31-9-42 10-38 44h38v23H63V0H32v-167H5v-23h27c-7-52 17-82 69-68v24" id="aB"/><g id="d"><use transform="matrix(0.06172839506172839,0,0,0.06172839506172839,0,0)" xlink:href="#az"/><use transform="matrix(0.06172839506172839,0,0,0.06172839506172839,12.345679012345679,0)" xlink:href="#aB"/></g><path fill="#fff" d="M59-47c-2 24 18 29 38 22v24C64 9 27 4 27-40v-127H5v-23h24l9-43h21v43h35v23H59v120" id="aC"/><path fill="#fff" d="M106-169C34-169 62-67 57 0H25v-261h32l-1 103c12-21 28-36 61-36 89 0 53 116 60 194h-32v-121c2-32-8-49-39-48" id="aD"/><g id="e"><use transform="matrix(0.06172839506172839,0,0,0.06172839506172839,0,0)" xlink:href="#aC"/><use transform="matrix(0.06172839506172839,0,0,0.06172839506172839,6.172839506172839,0)" xlink:href="#aD"/><use transform="matrix(0.06172839506172839,0,0,0.06172839506172839,18.51851851851852,0)" xlink:href="#av"/></g><path fill="#fff" d="M96-169c-40 0-48 33-48 73s9 75 48 75c24 0 41-14 43-38l32 2c-6 37-31 61-74 61-59 0-76-41-82-99-10-93 101-131 147-64 4 7 5 14 7 22l-32 3c-4-21-16-35-41-35" id="aE"/><path fill="#fff" d="M141-36C126-15 110 5 73 4 37 3 15-17 15-53c-1-64 63-63 125-63 3-35-9-54-41-54-24 1-41 7-42 31l-33-3c5-37 33-52 76-52 45 0 72 20 72 64v82c-1 20 7 32 28 27v20c-31 9-61-2-59-35zM48-53c0 20 12 33 32 33 41-3 63-29 60-74-43 2-92-5-92 41" id="aF"/><g id="f"><use transform="matrix(0.06172839506172839,0,0,0.06172839506172839,0,0)" xlink:href="#aE"/><use transform="matrix(0.06172839506172839,0,0,0.06172839506172839,11.11111111111111,0)" xlink:href="#av"/><use transform="matrix(0.06172839506172839,0,0,0.06172839506172839,23.45679012345679,0)" xlink:href="#aw"/><use transform="matrix(0.06172839506172839,0,0,0.06172839506172839,30.80246913580247,0)" xlink:href="#aC"/><use transform="matrix(0.06172839506172839,0,0,0.06172839506172839,36.97530864197531,0)" xlink:href="#ay"/><use transform="matrix(0.06172839506172839,0,0,0.06172839506172839,41.851851851851855,0)" xlink:href="#aB"/><use transform="matrix(0.06172839506172839,0,0,0.06172839506172839,48.0246913580247,0)" xlink:href="#ay"/><use transform="matrix(0.06172839506172839,0,0,0.06172839506172839,52.90123456790124,0)" xlink:href="#aE"/><use transform="matrix(0.06172839506172839,0,0,0.06172839506172839,64.01234567901236,0)" xlink:href="#aF"/><use transform="matrix(0.06172839506172839,0,0,0.06172839506172839,76.35802469135804,0)" xlink:href="#aC"/><use transform="matrix(0.06172839506172839,0,0,0.06172839506172839,82.53086419753087,0)" xlink:href="#av"/></g><path fill="#fff" d="M493-744L32-1446h268c38 0 48 9 63 32l329 531c7-19 15-35 25-51l301-475c15-25 34-37 57-37h258L867-755 1346 0h-269c-37 1-57-23-71-46L671-600c-5 15-12 29-19 42L331-46c-14 20-33 47-67 46H12" id="aG"/><path fill="#fff" d="M225 14C133 14 73-43 73-136c0-92 60-151 152-151 91 0 151 60 151 151 0 92-59 150-151 150" id="aH"/><path fill="#fff" d="M790-487c0-163-100-253-270-251-70 0-140 13-211 38l-154-44 120-702h714v105c-3 81-52 119-145 119H446l-52 302c210-50 424-1 525 108 69 75 119 178 119 314 0 252-137 402-324 477-137 55-338 42-458-15-68-32-130-71-180-118l76-105c47-69 127-10 174 17 49 28 107 53 188 51 184-4 276-113 276-296" id="aI"/><path fill="#fff" d="M1070-1052c53 175 53 482 0 658C999-159 862 16 578 16 296 16 159-161 90-394c-52-176-53-483 0-658 70-234 205-410 488-410s422 177 492 410zM682-214c189-91 201-498 150-769-29-152-89-274-254-274-162 0-222 123-250 274-49 269-39 678 148 769 66 32 140 32 206 0" id="aJ"/><path fill="#fff" d="M766-642c-91 62-257 88-383 39-149-59-253-183-253-390 0-225 127-362 293-432 115-49 284-46 401-2 199 76 319 287 268 569-24 134-85 233-151 329L610-57C559 28 386-7 256 0c169-215 344-424 510-642zM617-764c157-3 250-90 250-246 0-159-91-250-247-250-155 0-239 94-243 248-4 158 85 251 240 248" id="aK"/><g id="g"><use transform="matrix(0.01888888888888889,0,0,0.01888888888888889,0,0)" xlink:href="#aG"/><use transform="matrix(0.01888888888888889,0,0,0.01888888888888889,25.65111111111111,0)" xlink:href="#aH"/><use transform="matrix(0.01888888888888889,0,0,0.01888888888888889,34.151111111111106,0)" xlink:href="#aI"/><use transform="matrix(0.01888888888888889,0,0,0.01888888888888889,56.06222222222222,0)" xlink:href="#aJ"/><use transform="matrix(0.01888888888888889,0,0,0.01888888888888889,77.97333333333333,0)" xlink:href="#aK"/></g><path fill="#fff" d="M928-153C839-49 712 15 524 15c-227 0-358-131-424-305-47-123-49-306-4-434 67-190 213-318 465-318 165 0 270 58 357 143-29 37-52 81-86 112-71 26-104-41-170-55-24-5-52-12-86-12-192 5-260 143-260 339 0 194 67 336 254 342 98 3 148-38 200-79 26-20 67-17 87 9" id="aL"/><path fill="#fff" d="M991-153C899-47 760 15 568 15 237 15 63-197 63-535c0-237 116-392 287-467 61-27 129-40 206-40 287 0 444 174 444 465 0 54-3 95-57 95H309c4 226 158 349 385 292 52-13 93-39 132-62 32-19 73-16 93 9zM778-631c-4-143-73-234-217-234-154 0-226 95-247 234h464" id="aM"/><path fill="#fff" d="M604-806c-122 5-180 74-225 167V0H132v-1026c83 11 206-35 218 62l15 124c63-106 147-205 295-205 51 0 93 12 126 35l-32 185c-4 23-15 33-40 33-33 0-65-16-110-14" id="aN"/><path fill="#fff" d="M738-75c-64 55-158 90-269 91-176 2-277-109-277-284v-573c-65-4-153 21-153-52v-98l165-27 52-280c10-66 115-35 183-42v323h270v176H439v556c-1 59 32 101 88 102 48 1 68-25 104-34 19 1 25 9 33 22" id="aO"/><path fill="#fff" d="M395-1026V0H148v-1026h247zm-123-457c96 0 160 62 160 158 0 94-65 155-160 155-93 0-156-62-156-155 0-95 61-158 156-158" id="aP"/><path fill="#fff" d="M601-1285c-158 0-198 102-186 268h267v176H423V0H176v-840c-61-14-153-3-153-76v-101h153c-17-292 113-454 383-454 47 0 91 6 132 19l-5 124c-1 41-44 43-85 43" id="aQ"/><path fill="#fff" d="M556-1045c246 0 380 151 380 397V0c-79-6-181 23-196-53l-22-73C630-49 541 18 379 16 194 13 81-77 81-262c0-184 152-247 321-292 78-21 176-31 293-34 10-155-29-262-170-262-104 0-161 40-224 77-47 28-107 5-127-31l-45-79c118-108 260-162 427-162zM317-275c-3 86 56 121 139 121 117 0 179-51 239-111v-173c-122 6-219 17-297 53-49 22-79 51-81 110" id="aR"/><g id="h"><use transform="matrix(0.01888888888888889,0,0,0.01888888888888889,0,0)" xlink:href="#aL"/><use transform="matrix(0.01888888888888889,0,0,0.01888888888888889,18.02,0)" xlink:href="#aM"/><use transform="matrix(0.01888888888888889,0,0,0.01888888888888889,38.21222222222222,0)" xlink:href="#aN"/><use transform="matrix(0.01888888888888889,0,0,0.01888888888888889,53.644444444444446,0)" xlink:href="#aO"/><use transform="matrix(0.01888888888888889,0,0,0.01888888888888889,68.26444444444445,0)" xlink:href="#aP"/><use transform="matrix(0.01888888888888889,0,0,0.01888888888888889,78.50222222222223,0)" xlink:href="#aQ"/><use transform="matrix(0.01888888888888889,0,0,0.01888888888888889,91.74333333333334,0)" xlink:href="#aP"/><use transform="matrix(0.01888888888888889,0,0,0.01888888888888889,101.98111111111112,0)" xlink:href="#aL"/><use transform="matrix(0.01888888888888889,0,0,0.01888888888888889,120.00111111111111,0)" xlink:href="#aR"/><use transform="matrix(0.01888888888888889,0,0,0.01888888888888889,139.77777777777777,0)" xlink:href="#aO"/><use transform="matrix(0.01888888888888889,0,0,0.01888888888888889,154.39777777777778,0)" xlink:href="#aM"/></g><path fill="#fff" d="M169-182c-1-43-94-46-97-3 18 66 151 10 154 114 3 95-165 93-204 36-6-8-10-19-12-30l50-8c3 46 112 56 116 5-17-69-150-10-154-114-4-87 153-88 188-35 5 8 8 18 10 28" id="aS"/><path fill="#fff" d="M133-34C117-15 103 5 69 4 32 3 11-16 11-54c-1-60 55-63 116-61 1-26-3-47-28-47-18 1-26 9-28 27l-52-2c7-38 36-58 82-57s74 22 75 68l1 82c-1 14 12 18 25 15v27c-30 8-71 5-69-32zm-48 3c29 0 43-24 42-57-32 0-66-3-65 30 0 17 8 27 23 27" id="aT"/><path fill="#fff" d="M25 0v-261h50V0H25" id="aU"/><g id="i"><use transform="matrix(0.06790123456790123,0,0,0.06790123456790123,0,0)" xlink:href="#aS"/><use transform="matrix(0.06790123456790123,0,0,0.06790123456790123,16.296296296296294,0)" xlink:href="#ak"/><use transform="matrix(0.06790123456790123,0,0,0.06790123456790123,29.87654320987654,0)" xlink:href="#al"/><use transform="matrix(0.06790123456790123,0,0,0.06790123456790123,39.382716049382715,0)" xlink:href="#an"/><use transform="matrix(0.06790123456790123,0,0,0.06790123456790123,46.172839506172835,0)" xlink:href="#aT"/><use transform="matrix(0.06790123456790123,0,0,0.06790123456790123,59.75308641975308,0)" xlink:href="#aU"/></g><g id="j"><use transform="matrix(0.06790123456790123,0,0,0.06790123456790123,0,0)" xlink:href="#ap"/><use transform="matrix(0.06790123456790123,0,0,0.06790123456790123,14.87037037037037,0)" xlink:href="#ar"/><use transform="matrix(0.06790123456790123,0,0,0.06790123456790123,29.74074074074074,0)" xlink:href="#as"/><use transform="matrix(0.06790123456790123,0,0,0.06790123456790123,51.46913580246913,0)" xlink:href="#at"/><use transform="matrix(0.06790123456790123,0,0,0.06790123456790123,66.3395061728395,0)" xlink:href="#ak"/><use transform="matrix(0.06790123456790123,0,0,0.06790123456790123,79.91975308641975,0)" xlink:href="#al"/></g><path fill="#fff" d="M205 0l-28-72H64L36 0H1l101-248h38L239 0h-34zm-38-99l-47-123c-12 45-31 82-46 123h93" id="aV"/><use transform="matrix(0.06172839506172839,0,0,0.06172839506172839,0,0)" xlink:href="#aV" id="k"/><path fill="#fff" d="M84 4C-5 8 30-112 23-190h32v120c0 31 7 50 39 49 72-2 45-101 50-169h31l1 190h-30c-1-10 1-25-2-33-11 22-28 36-60 37" id="aW"/><path fill="#fff" d="M145-31C134-9 116 4 85 4 32 4 16-35 15-94c0-59 17-99 70-100 32-1 48 14 60 33 0-11-1-24 2-32h30l-1 268h-32zM93-21c41 0 51-33 51-76s-8-73-50-73c-40 0-46 35-46 75s5 74 45 74" id="aX"/><g id="l"><use transform="matrix(0.06172839506172839,0,0,0.06172839506172839,0,0)" xlink:href="#aW"/><use transform="matrix(0.06172839506172839,0,0,0.06172839506172839,12.345679012345679,0)" xlink:href="#aA"/><use transform="matrix(0.06172839506172839,0,0,0.06172839506172839,24.691358024691358,0)" xlink:href="#ay"/><use transform="matrix(0.06172839506172839,0,0,0.06172839506172839,29.5679012345679,0)" xlink:href="#aX"/><use transform="matrix(0.06172839506172839,0,0,0.06172839506172839,41.913580246913575,0)" xlink:href="#aW"/><use transform="matrix(0.06172839506172839,0,0,0.06172839506172839,54.25925925925925,0)" xlink:href="#av"/></g><path fill="#fff" d="M33 0v-248h34V0H33" id="aY"/><path fill="#fff" d="M30-248c118-7 216 8 213 122C240-48 200 0 122 0H30v-248zM63-27c89 8 146-16 146-99s-60-101-146-95v194" id="aZ"/><g id="m"><use transform="matrix(0.06172839506172839,0,0,0.06172839506172839,0,0)" xlink:href="#aY"/><use transform="matrix(0.06172839506172839,0,0,0.06172839506172839,6.172839506172839,0)" xlink:href="#aZ"/></g><g id="n"><use transform="matrix(0.06172839506172839,0,0,0.06172839506172839,0,0)" xlink:href="#aC"/><use transform="matrix(0.06172839506172839,0,0,0.06172839506172839,6.172839506172839,0)" xlink:href="#aD"/><use transform="matrix(0.06172839506172839,0,0,0.06172839506172839,18.51851851851852,0)" xlink:href="#ay"/><use transform="matrix(0.06172839506172839,0,0,0.06172839506172839,23.395061728395063,0)" xlink:href="#ax"/></g><g id="o"><use transform="matrix(0.06172839506172839,0,0,0.06172839506172839,0,0)" xlink:href="#aE"/><use transform="matrix(0.06172839506172839,0,0,0.06172839506172839,11.11111111111111,0)" xlink:href="#av"/><use transform="matrix(0.06172839506172839,0,0,0.06172839506172839,23.45679012345679,0)" xlink:href="#aw"/><use transform="matrix(0.06172839506172839,0,0,0.06172839506172839,30.80246913580247,0)" xlink:href="#aC"/><use transform="matrix(0.06172839506172839,0,0,0.06172839506172839,36.97530864197531,0)" xlink:href="#ay"/><use transform="matrix(0.06172839506172839,0,0,0.06172839506172839,41.851851851851855,0)" xlink:href="#aB"/><use transform="matrix(0.06172839506172839,0,0,0.06172839506172839,48.0246913580247,0)" xlink:href="#ay"/><use transform="matrix(0.06172839506172839,0,0,0.06172839506172839,52.90123456790124,0)" xlink:href="#aE"/><use transform="matrix(0.06172839506172839,0,0,0.06172839506172839,64.01234567901236,0)" xlink:href="#aF"/><use transform="matrix(0.06172839506172839,0,0,0.06172839506172839,76.35802469135804,0)" xlink:href="#aC"/><use transform="matrix(0.06172839506172839,0,0,0.06172839506172839,82.53086419753087,0)" xlink:href="#av"/></g><path fill="#fff" d="M85-194c31 0 48 13 60 33l-1-100h32l1 261h-30c-2-10 0-23-3-31C134-8 116 4 85 4 32 4 16-35 15-94c0-66 23-100 70-100zm9 24c-40 0-46 34-46 75 0 40 6 74 45 74 42 0 51-32 51-76 0-42-9-74-50-73" id="ba"/><g id="p"><use transform="matrix(0.06172839506172839,0,0,0.06172839506172839,0,0)" xlink:href="#ay"/><use transform="matrix(0.06172839506172839,0,0,0.06172839506172839,4.876543209876543,0)" xlink:href="#ax"/><use transform="matrix(0.06172839506172839,0,0,0.06172839506172839,15.987654320987653,0)" xlink:href="#ax"/><use transform="matrix(0.06172839506172839,0,0,0.06172839506172839,27.098765432098766,0)" xlink:href="#aW"/><use transform="matrix(0.06172839506172839,0,0,0.06172839506172839,39.44444444444444,0)" xlink:href="#av"/><use transform="matrix(0.06172839506172839,0,0,0.06172839506172839,51.79012345679012,0)" xlink:href="#ba"/></g><path fill="#fff" d="M115-194c53 0 69 39 70 98 0 66-23 100-70 100C84 3 66-7 56-30L54 0H23l1-261h32v101c10-23 28-34 59-34zm-8 174c40 0 45-34 45-75 0-40-5-75-45-74-42 0-51 32-51 76 0 43 10 73 51 73" id="bb"/><path fill="#fff" d="M179-190L93 31C79 59 56 82 12 73V49c39 6 53-20 64-50L1-190h34L92-34l54-156h33" id="bc"/><g id="q"><use transform="matrix(0.06172839506172839,0,0,0.06172839506172839,0,0)" xlink:href="#bb"/><use transform="matrix(0.06172839506172839,0,0,0.06172839506172839,12.345679012345679,0)" xlink:href="#bc"/></g><g id="r"><use transform="matrix(0.06172839506172839,0,0,0.06172839506172839,0,0)" xlink:href="#aF"/><use transform="matrix(0.06172839506172839,0,0,0.06172839506172839,12.345679012345679,0)" xlink:href="#aW"/><use transform="matrix(0.06172839506172839,0,0,0.06172839506172839,24.691358024691358,0)" xlink:href="#aC"/><use transform="matrix(0.06172839506172839,0,0,0.06172839506172839,30.864197530864196,0)" xlink:href="#aD"/><use transform="matrix(0.06172839506172839,0,0,0.06172839506172839,43.20987654320987,0)" xlink:href="#az"/><use transform="matrix(0.06172839506172839,0,0,0.06172839506172839,55.55555555555555,0)" xlink:href="#aw"/><use transform="matrix(0.06172839506172839,0,0,0.06172839506172839,62.90123456790123,0)" xlink:href="#ay"/><use transform="matrix(0.06172839506172839,0,0,0.06172839506172839,67.77777777777777,0)" xlink:href="#aC"/><use transform="matrix(0.06172839506172839,0,0,0.06172839506172839,73.9506172839506,0)" xlink:href="#bc"/></g><g id="s"><use transform="matrix(0.031111111111111072,0,0,0.031111111111111072,0,0)" xlink:href="#aH"/><use transform="matrix(0.031111111111111072,0,0,0.031111111111111072,13.999999999999982,0)" xlink:href="#aH"/><use transform="matrix(0.031111111111111072,0,0,0.031111111111111072,27.999999999999964,0)" xlink:href="#aH"/></g><path fill="#fff" d="M4-1446h217c48-1 77 26 90 61 125 326 256 646 373 977 12 34 20 70 29 108 15-77 34-144 57-203l339-882c12-30 45-61 89-61h217L831 0H588" id="bd"/><path fill="#fff" d="M395-1486V0H148v-1486h247" id="be"/><path fill="#fff" d="M502-1045c120-1 193 43 256 101v-542h247V0c-80-9-199 29-214-45l-20-99C693-58 601 15 441 15 163 15 61-217 61-510c0-241 98-411 259-494 54-27 115-41 182-41zM316-510c0 181 36 329 209 329 118 0 173-54 233-123v-460c-48-59-104-93-198-93-188 0-244 151-244 347" id="bf"/><path fill="#fff" d="M496 282c-21 85-170 43-266 53L422-76 7-1026h216c39-1 60 21 70 46 80 195 164 386 238 586 7 18 10 37 14 56 74-221 164-427 244-642 9-24 36-46 68-46h198" id="bg"/><g id="t"><use transform="matrix(0.012222222222222221,0,0,0.012222222222222221,0,0)" xlink:href="#bd"/><use transform="matrix(0.012222222222222221,0,0,0.012222222222222221,15.85222222222222,0)" xlink:href="#aR"/><use transform="matrix(0.012222222222222221,0,0,0.012222222222222221,28.648888888888887,0)" xlink:href="#be"/><use transform="matrix(0.012222222222222221,0,0,0.012222222222222221,35.273333333333326,0)" xlink:href="#aP"/><use transform="matrix(0.012222222222222221,0,0,0.012222222222222221,41.89777777777777,0)" xlink:href="#bf"/><use transform="matrix(0.012222222222222221,0,0,0.012222222222222221,55.83111111111109,0)" xlink:href="#aP"/><use transform="matrix(0.012222222222222221,0,0,0.012222222222222221,62.45555555555554,0)" xlink:href="#aO"/><use transform="matrix(0.012222222222222221,0,0,0.012222222222222221,71.91555555555554,0)" xlink:href="#bg"/></g><path fill="#fff" d="M635 15C514 15 442-25 379-85v420H132v-1361c64 5 145-11 192 11 33 24 28 86 42 129 78-86 174-159 331-159 277 0 379 232 379 524 0 241-96 412-258 495-54 27-116 41-183 41zm186-536c0-181-37-329-209-329-117 0-175 55-233 124v460c48 60 104 93 198 93 188 0 244-152 244-348" id="bh"/><path fill="#fff" d="M361-1005c121-49 297-49 417 0 184 74 298 236 298 490 0 330-178 530-506 530C241 15 61-185 61-515c0-254 115-416 300-490zm-45 492c0 201 65 338 254 338 188 0 251-137 251-338s-63-340-251-340c-189 0-254 139-254 340" id="bi"/><g id="u"><use transform="matrix(0.012222222222222221,0,0,0.012222222222222221,0,0)" xlink:href="#bh"/><use transform="matrix(0.012222222222222221,0,0,0.012222222222222221,13.823333333333332,0)" xlink:href="#aM"/><use transform="matrix(0.012222222222222221,0,0,0.012222222222222221,26.888888888888886,0)" xlink:href="#aN"/><use transform="matrix(0.012222222222222221,0,0,0.012222222222222221,36.87444444444444,0)" xlink:href="#aP"/><use transform="matrix(0.012222222222222221,0,0,0.012222222222222221,43.498888888888885,0)" xlink:href="#bi"/><use transform="matrix(0.012222222222222221,0,0,0.012222222222222221,57.39555555555555,0)" xlink:href="#bf"/></g><path fill="#fff" d="M1150-1433v163H687V0H493v-1270H28v-163h1122" id="bj"/><path fill="#fff" d="M344-1013V0H166v-1013h178zm-88-446c77 0 128 52 128 128 0 75-52 126-128 126-75 0-126-51-126-126 0-76 50-128 126-128" id="bk"/><path fill="#fff" d="M550-887c-107 0-172 65-226 132V0H146v-1013c60 6 147-22 154 37l13 104c69-80 148-156 287-157 148-1 223 92 258 211 51-126 153-211 323-211 232 0 338 149 338 384V0h-178v-645c1-148-62-242-203-242-142 0-218 94-218 242V0H742v-645c1-149-54-242-192-242" id="bl"/><path fill="#fff" d="M954-142C850-8 572 61 364-22 180-96 74-268 74-527c0-234 108-389 275-463 59-26 125-39 198-39 273 0 420 174 420 453 0 48-2 70-43 70H250c8 226 98 375 322 380 114 2 191-38 258-82 70-46 94 37 124 66zM807-617c-5-171-86-278-256-281-181-3-273 116-295 281h551" id="bm"/><path fill="#fff" d="M409-112c121-3 207-52 207-167 0-134-157-142-264-181-133-48-263-98-263-275 0-197 153-290 360-294 139-3 243 49 317 118-26 35-46 114-111 76-53-31-114-63-202-61-108 3-195 44-195 147 0 129 158 136 262 175 128 48 263 93 263 264C783-89 627 12 400 16 255 19 139-39 62-107c27-41 57-128 128-81 57 38 118 78 219 76" id="bn"/><path fill="#fff" d="M698-76c-54 52-145 92-245 92-162 1-249-96-249-260v-620c-58-9-160 26-160-39v-71l166-21 41-313c4-50 80-30 131-34v349h290v129H382v608c-2 78 40 125 111 126 60 2 88-33 128-48 9 0 18 6 25 17" id="bo"/><path fill="#fff" d="M537-1031c235 0 353 147 353 383V0c-58-5-129 17-142-42l-20-94C637-55 545 19 375 16 200 13 92-76 92-253c0-184 160-243 332-285 79-19 176-28 291-31 12-184-31-318-200-318-113 0-181 45-243 91-36 26-82 14-99-17l-32-57c101-96 215-161 396-161zM263-261c0 103 62 152 165 152 140 0 216-64 287-136v-211c-141 4-258 19-349 60-60 27-103 62-103 135" id="bp"/><path fill="#fff" d="M602 14c-133 0-212-47-278-119v448H146v-1356c60 6 147-22 154 37l15 120c80-93 179-175 341-175 282 0 383 224 383 518 0 237-92 406-253 487-54 27-116 40-184 40zm253-527c-3-212-53-374-258-374-136 0-207 69-273 153v490c57 77 121 120 238 120 207 0 295-164 293-389" id="bq"/><g id="v"><use transform="matrix(0.011111111111111112,0,0,0.011111111111111112,0,0)" xlink:href="#bj"/><use transform="matrix(0.011111111111111112,0,0,0.011111111111111112,13.111111111111112,0)" xlink:href="#bk"/><use transform="matrix(0.011111111111111112,0,0,0.011111111111111112,18.8,0)" xlink:href="#bl"/><use transform="matrix(0.011111111111111112,0,0,0.011111111111111112,37.044444444444444,0)" xlink:href="#bm"/><use transform="matrix(0.011111111111111112,0,0,0.011111111111111112,48.68888888888889,0)" xlink:href="#bn"/><use transform="matrix(0.011111111111111112,0,0,0.011111111111111112,58.333333333333336,0)" xlink:href="#bo"/><use transform="matrix(0.011111111111111112,0,0,0.011111111111111112,66.62222222222222,0)" xlink:href="#bp"/><use transform="matrix(0.011111111111111112,0,0,0.011111111111111112,77.88888888888889,0)" xlink:href="#bl"/><use transform="matrix(0.011111111111111112,0,0,0.011111111111111112,96.13333333333331,0)" xlink:href="#bq"/><use transform="matrix(0.011111111111111112,0,0,0.011111111111111112,108.39999999999998,0)" xlink:href="#bn"/></g><path fill="#fff" d="M510-1031c133 0 210 49 277 120v-562h178V0c-60-6-146 21-154-37l-16-123C716-67 616 14 455 14 173 14 72-209 72-503c0-237 94-406 254-487 54-27 115-41 184-41zM256-503c2 212 53 373 258 373 136 0 207-69 273-153v-490c-57-77-121-119-237-119-208 0-296 164-294 389" id="br"/><path fill="#fff" d="M594-1317c-165 0-237 72-235 231v93h293v129H365V0H186v-861c-49-9-113-4-146-29-24-17-10-67-14-103h160v-98c5-229 120-363 348-363 45 0 87 7 126 20l-4 89c-2 31-28 28-62 28" id="bs"/><path fill="#fff" d="M598-887c-125 2-207 68-274 141V0H146v-1013c60 6 147-22 154 37l14 110c82-87 177-163 336-163 232 0 339 151 339 384V0H811v-645c0-149-65-244-213-242" id="bt"/><g id="w"><use transform="matrix(0.011111111111111112,0,0,0.011111111111111112,0,0)" xlink:href="#br"/><use transform="matrix(0.011111111111111112,0,0,0.011111111111111112,12.422222222222222,0)" xlink:href="#bm"/><use transform="matrix(0.011111111111111112,0,0,0.011111111111111112,24.066666666666666,0)" xlink:href="#bs"/><use transform="matrix(0.011111111111111112,0,0,0.011111111111111112,31.555555555555557,0)" xlink:href="#bk"/><use transform="matrix(0.011111111111111112,0,0,0.011111111111111112,37.24444444444445,0)" xlink:href="#bt"/><use transform="matrix(0.011111111111111112,0,0,0.011111111111111112,49.6,0)" xlink:href="#bm"/></g><path fill="#fff" d="M584-856c-148 6-210 94-260 211V0H146v-1013c62 7 151-25 157 49l12 158c66-138 184-259 384-216 23 5 44 16 63 27l-23 133c-5 17-15 25-31 25-36 0-71-21-124-19" id="bu"/><path fill="#fff" d="M103-704c0-220 160-326 384-326 92 0 169 21 228 57h275c-2 53 13 100-42 108l-115 16c43 79 45 196 5 279-58 120-176 191-351 193-47 0-92-6-134-17-50 22-100 108-36 142 165 88 511-13 621 164 40 65 36 170-4 240-77 134-229 213-441 213-193 0-343-50-415-167-19-32-28-66-28-101 3-117 84-175 178-211-54-27-98-64-94-143 4-90 64-137 129-173-91-51-160-139-160-274zM334-85C254-53 162 38 224 138c97 157 586 133 579-83C799-63 659-58 543-68c-70-6-146-6-209-17zm-67-614c0 134 84 204 220 204 137 0 221-69 221-204 0-129-85-203-221-203-135 0-220 74-220 203" id="bv"/><g id="x"><use transform="matrix(0.011111111111111112,0,0,0.011111111111111112,0,0)" xlink:href="#bn"/><use transform="matrix(0.011111111111111112,0,0,0.011111111111111112,9.644444444444444,0)" xlink:href="#bo"/><use transform="matrix(0.011111111111111112,0,0,0.011111111111111112,17.933333333333334,0)" xlink:href="#bp"/><use transform="matrix(0.011111111111111112,0,0,0.011111111111111112,29.200000000000003,0)" xlink:href="#bu"/><use transform="matrix(0.011111111111111112,0,0,0.011111111111111112,38.15555555555556,0)" xlink:href="#bo"/><use transform="matrix(0.011111111111111112,0,0,0.011111111111111112,46.44444444444444,0)" xlink:href="#bk"/><use transform="matrix(0.011111111111111112,0,0,0.011111111111111112,52.13333333333333,0)" xlink:href="#bt"/><use transform="matrix(0.011111111111111112,0,0,0.011111111111111112,64.4888888888889,0)" xlink:href="#bv"/></g><g id="y"><use transform="matrix(0.011111111111111112,0,0,0.011111111111111112,0,0)" xlink:href="#bo"/><use transform="matrix(0.011111111111111112,0,0,0.011111111111111112,8.28888888888889,0)" xlink:href="#bk"/><use transform="matrix(0.011111111111111112,0,0,0.011111111111111112,13.977777777777778,0)" xlink:href="#bl"/><use transform="matrix(0.011111111111111112,0,0,0.011111111111111112,32.22222222222222,0)" xlink:href="#bm"/></g><g id="z"><use transform="matrix(0.011111111111111112,0,0,0.011111111111111112,0,0)" xlink:href="#bp"/><use transform="matrix(0.011111111111111112,0,0,0.011111111111111112,11.266666666666667,0)" xlink:href="#bt"/><use transform="matrix(0.011111111111111112,0,0,0.011111111111111112,23.622222222222224,0)" xlink:href="#br"/></g><path fill="#fff" d="M383-519L42-1013h171c30 0 38 9 50 27l248 380c6-19 14-38 26-56l218-320c12-15 21-30 45-31h164L623-529 978 0H807c-30 1-44-19-55-37L497-434c-5 19-11 37-21 52L240-37c-13 16-24 37-53 37H28" id="bw"/><path fill="#fff" d="M1038-507c0 321-164 521-482 521S72-187 72-507c0-248 107-410 284-485 60-25 126-37 200-37 317 0 482 201 482 522zm-782 1c0 225 80 381 300 381 213 0 298-159 298-381 0-223-84-383-298-383-221 0-300 158-300 383" id="bx"/><path fill="#fff" d="M212 15C136 15 88-34 88-110s48-126 124-126 125 50 125 126c0 77-49 125-125 125" id="by"/><g id="A"><use transform="matrix(0.011111111111111112,0,0,0.011111111111111112,0,0)" xlink:href="#bm"/><use transform="matrix(0.011111111111111112,0,0,0.011111111111111112,10.97777777777778,0)" xlink:href="#bw"/><use transform="matrix(0.011111111111111112,0,0,0.011111111111111112,22.17777777777778,0)" xlink:href="#bq"/><use transform="matrix(0.011111111111111112,0,0,0.011111111111111112,34.44444444444445,0)" xlink:href="#bk"/><use transform="matrix(0.011111111111111112,0,0,0.011111111111111112,40.13333333333334,0)" xlink:href="#bu"/><use transform="matrix(0.011111111111111112,0,0,0.011111111111111112,48.66666666666667,0)" xlink:href="#bp"/><use transform="matrix(0.011111111111111112,0,0,0.011111111111111112,59.93333333333334,0)" xlink:href="#bo"/><use transform="matrix(0.011111111111111112,0,0,0.011111111111111112,68.22222222222223,0)" xlink:href="#bk"/><use transform="matrix(0.011111111111111112,0,0,0.011111111111111112,73.91111111111111,0)" xlink:href="#bx"/><use transform="matrix(0.011111111111111112,0,0,0.011111111111111112,86.26666666666667,0)" xlink:href="#bt"/><use transform="matrix(0.011111111111111112,0,0,0.011111111111111112,98.62222222222222,0)" xlink:href="#by"/></g><path fill="#fff" d="M25-224v-37h50v37H25zM75 22c2 45-34 59-81 51V38c22 5 31-5 31-27v-201h50V22" id="bz"/><path fill="#fff" d="M190-63c-7 42-38 67-86 67-59 0-84-38-90-98-12-110 154-137 174-36l-49 2c-2-19-15-32-35-32-30 0-35 28-38 64-6 74 65 87 74 30" id="bA"/><path fill="#fff" d="M115-3C79 11 28 4 28-45v-112H4v-33h27l15-45h31v45h36v33H77v99c-1 23 16 31 38 25v30" id="bB"/><g id="B"><use transform="matrix(0.06790123456790123,0,0,0.06790123456790123,0,0)" xlink:href="#aS"/><use transform="matrix(0.06790123456790123,0,0,0.06790123456790123,16.296296296296294,0)" xlink:href="#ar"/><use transform="matrix(0.06790123456790123,0,0,0.06790123456790123,31.166666666666664,0)" xlink:href="#at"/><use transform="matrix(0.06790123456790123,0,0,0.06790123456790123,46.03703703703703,0)" xlink:href="#bz"/><use transform="matrix(0.06790123456790123,0,0,0.06790123456790123,52.827160493827165,0)" xlink:href="#ak"/><use transform="matrix(0.06790123456790123,0,0,0.06790123456790123,66.40740740740742,0)" xlink:href="#bA"/><use transform="matrix(0.06790123456790123,0,0,0.06790123456790123,79.98765432098766,0)" xlink:href="#bB"/></g><path fill="#fff" d="M24-248c93 1 206-16 204 79-1 75-69 88-152 82V0H24v-248zm52 121c47 0 100 7 100-41 0-47-54-39-100-39v80" id="bC"/><g id="C"><use transform="matrix(0.06790123456790123,0,0,0.06790123456790123,0,0)" xlink:href="#bC"/><use transform="matrix(0.06790123456790123,0,0,0.06790123456790123,16.296296296296294,0)" xlink:href="#ar"/><use transform="matrix(0.06790123456790123,0,0,0.06790123456790123,31.166666666666664,0)" xlink:href="#at"/><use transform="matrix(0.06790123456790123,0,0,0.06790123456790123,46.03703703703703,0)" xlink:href="#aU"/><use transform="matrix(0.06790123456790123,0,0,0.06790123456790123,52.827160493827165,0)" xlink:href="#an"/><use transform="matrix(0.06790123456790123,0,0,0.06790123456790123,59.617283950617285,0)" xlink:href="#bA"/></g><path fill="#fff" d="M195 0l-88-114-31 24V0H24v-248h52v113l112-113h60L142-143 257 0h-62" id="bD"/><path fill="#fff" d="M123 10C108 53 80 86 19 72V37c35 8 53-11 59-39L3-190h52l48 148c12-52 28-100 44-148h51" id="bE"/><g id="D"><use transform="matrix(0.06790123456790123,0,0,0.06790123456790123,0,0)" xlink:href="#bD"/><use transform="matrix(0.06790123456790123,0,0,0.06790123456790123,17.586419753086417,0)" xlink:href="#ak"/><use transform="matrix(0.06790123456790123,0,0,0.06790123456790123,31.166666666666664,0)" xlink:href="#bE"/></g><path fill="#fff" d="M24 0v-248h52V0H24" id="bF"/><path fill="#fff" d="M121-226c-27-7-43 5-38 36h38v33H83V0H34v-157H6v-33h28c-9-59 32-81 87-68v32" id="bG"/><g id="E"><use transform="matrix(0.06790123456790123,0,0,0.06790123456790123,0,0)" xlink:href="#bF"/><use transform="matrix(0.06790123456790123,0,0,0.06790123456790123,6.790123456790123,0)" xlink:href="#ap"/><use transform="matrix(0.06790123456790123,0,0,0.06790123456790123,21.660493827160494,0)" xlink:href="#bG"/><use transform="matrix(0.06790123456790123,0,0,0.06790123456790123,29.74074074074074,0)" xlink:href="#ao"/></g><path fill="#fff" d="M30-248c87 1 191-15 191 75 0 78-77 80-158 76V0H30v-248zm33 125c57 0 124 11 124-50 0-59-68-47-124-48v98" id="bH"/><path fill="#fff" d="M24 0v-261h32V0H24" id="bI"/><g id="F"><use transform="matrix(0.06172839506172839,0,0,0.06172839506172839,0,0)" xlink:href="#bH"/><use transform="matrix(0.06172839506172839,0,0,0.06172839506172839,14.814814814814813,0)" xlink:href="#aW"/><use transform="matrix(0.06172839506172839,0,0,0.06172839506172839,27.160493827160494,0)" xlink:href="#bb"/><use transform="matrix(0.06172839506172839,0,0,0.06172839506172839,39.50617283950617,0)" xlink:href="#bI"/><use transform="matrix(0.06172839506172839,0,0,0.06172839506172839,44.382716049382715,0)" xlink:href="#ay"/><use transform="matrix(0.06172839506172839,0,0,0.06172839506172839,49.25925925925926,0)" xlink:href="#aE"/></g><path fill="#fff" d="M143 0L79-87 56-68V0H24v-261h32v163l83-92h37l-77 82L181 0h-38" id="bJ"/><g id="G"><use transform="matrix(0.06172839506172839,0,0,0.06172839506172839,0,0)" xlink:href="#bJ"/><use transform="matrix(0.06172839506172839,0,0,0.06172839506172839,11.11111111111111,0)" xlink:href="#av"/><use transform="matrix(0.06172839506172839,0,0,0.06172839506172839,23.45679012345679,0)" xlink:href="#bc"/></g><path fill="#fff" d="M177-190C167-65 218 103 67 71c-23-6-38-20-44-43l32-5c15 47 100 32 89-28v-30C133-14 115 1 83 1 29 1 15-40 15-95c0-56 16-97 71-98 29-1 48 16 59 35 1-10 0-23 2-32h30zM94-22c36 0 50-32 50-73 0-42-14-75-50-75-39 0-46 34-46 75s6 73 46 73" id="bK"/><path fill="#fff" d="M210-169c-67 3-38 105-44 169h-31v-121c0-29-5-50-35-48C34-165 62-65 56 0H25l-1-190h30c1 10-1 24 2 32 10-44 99-50 107 0 11-21 27-35 58-36 85-2 47 119 55 194h-31v-121c0-29-5-49-35-48" id="bL"/><g id="H"><use transform="matrix(0.06172839506172839,0,0,0.06172839506172839,0,0)" xlink:href="#aF"/><use transform="matrix(0.06172839506172839,0,0,0.06172839506172839,12.345679012345679,0)" xlink:href="#bI"/><use transform="matrix(0.06172839506172839,0,0,0.06172839506172839,17.22222222222222,0)" xlink:href="#bK"/><use transform="matrix(0.06172839506172839,0,0,0.06172839506172839,29.5679012345679,0)" xlink:href="#az"/><use transform="matrix(0.06172839506172839,0,0,0.06172839506172839,41.913580246913575,0)" xlink:href="#aw"/><use transform="matrix(0.06172839506172839,0,0,0.06172839506172839,49.25925925925925,0)" xlink:href="#ay"/><use transform="matrix(0.06172839506172839,0,0,0.06172839506172839,54.1358024691358,0)" xlink:href="#aC"/><use transform="matrix(0.06172839506172839,0,0,0.06172839506172839,60.30864197530864,0)" xlink:href="#aD"/><use transform="matrix(0.06172839506172839,0,0,0.06172839506172839,72.65432098765432,0)" xlink:href="#bL"/></g><g id="I"><use transform="matrix(0.06172839506172839,0,0,0.06172839506172839,0,0)" xlink:href="#aF"/><use transform="matrix(0.06172839506172839,0,0,0.06172839506172839,12.345679012345679,0)" xlink:href="#aA"/><use transform="matrix(0.06172839506172839,0,0,0.06172839506172839,24.691358024691358,0)" xlink:href="#ba"/></g><path fill="#fff" d="M115-194c55 1 70 41 70 98S169 2 115 4C84 4 66-9 55-30l1 105H24l-1-265h31l2 30c10-21 28-34 59-34zm-8 174c40 0 45-34 45-75s-6-73-45-74c-42 0-51 32-51 76 0 43 10 73 51 73" id="bM"/><g id="J"><use transform="matrix(0.06172839506172839,0,0,0.06172839506172839,0,0)" xlink:href="#bM"/><use transform="matrix(0.06172839506172839,0,0,0.06172839506172839,12.345679012345679,0)" xlink:href="#aW"/><use transform="matrix(0.06172839506172839,0,0,0.06172839506172839,24.691358024691358,0)" xlink:href="#bb"/><use transform="matrix(0.06172839506172839,0,0,0.06172839506172839,37.03703703703704,0)" xlink:href="#bI"/><use transform="matrix(0.06172839506172839,0,0,0.06172839506172839,41.91358024691358,0)" xlink:href="#ay"/><use transform="matrix(0.06172839506172839,0,0,0.06172839506172839,46.79012345679013,0)" xlink:href="#aE"/></g><g id="K"><use transform="matrix(0.06172839506172839,0,0,0.06172839506172839,0,0)" xlink:href="#bJ"/><use transform="matrix(0.06172839506172839,0,0,0.06172839506172839,11.11111111111111,0)" xlink:href="#av"/><use transform="matrix(0.06172839506172839,0,0,0.06172839506172839,23.45679012345679,0)" xlink:href="#bc"/></g><path fill="#fff" d="M1058-1446v214H417v401h505v207H417v409h641V0H146v-1446h912" id="bN"/><path fill="#fff" d="M375-529L38-1026h238c37 0 48 9 63 32l215 343c8-25 17-47 31-68l173-270c15-21 26-37 57-37h227L704-540 1056 0H818c-37 1-57-23-71-46L529-403c-6 24-14 44-25 60L312-46c-14 20-33 47-67 46H24" id="bO"/><path fill="#fff" d="M605-850c-102 1-168 52-226 108V0H132v-1026c80 9 198-29 214 45l17 81c77-76 165-142 317-142 235 0 346 154 346 389V0H779v-653c0-121-55-198-174-197" id="bP"/><path fill="#fff" d="M254-198c95 60 334 64 323-83-9-119-156-122-253-159C192-490 72-550 72-729c0-214 163-309 387-313 145-3 264 55 338 127-26 36-45 82-77 111-69 21-111-33-176-48-103-23-247 0-238 102 11 114 156 118 251 155 126 49 251 100 251 270C808-59 575 48 294 6 192-9 106-54 42-110c28-39 43-95 83-120 49-31 96 11 129 32" id="bQ"/><g id="L"><use transform="matrix(0.012222222222222221,0,0,0.012222222222222221,0,0)" xlink:href="#bN"/><use transform="matrix(0.012222222222222221,0,0,0.012222222222222221,13.994444444444444,0)" xlink:href="#bO"/><use transform="matrix(0.012222222222222221,0,0,0.012222222222222221,27.194444444444443,0)" xlink:href="#aO"/><use transform="matrix(0.012222222222222221,0,0,0.012222222222222221,36.654444444444444,0)" xlink:href="#aM"/><use transform="matrix(0.012222222222222221,0,0,0.012222222222222221,49.72,0)" xlink:href="#bP"/><use transform="matrix(0.012222222222222221,0,0,0.012222222222222221,63.61666666666666,0)" xlink:href="#bQ"/><use transform="matrix(0.012222222222222221,0,0,0.012222222222222221,74.29888888888888,0)" xlink:href="#aP"/><use transform="matrix(0.012222222222222221,0,0,0.012222222222222221,80.92333333333333,0)" xlink:href="#bi"/><use transform="matrix(0.012222222222222221,0,0,0.012222222222222221,94.82,0)" xlink:href="#bP"/><use transform="matrix(0.012222222222222221,0,0,0.012222222222222221,108.71666666666665,0)" xlink:href="#bQ"/></g><path fill="#fff" d="M1057-1433v158H369v476h557v152H369v489h688V0H174v-1433h883" id="bR"/><path fill="#fff" d="M252 15c-76 0-124-49-124-125s48-126 124-126 125 50 125 126c0 77-49 125-125 125zm0-750c-76 0-124-49-124-125s48-126 124-126 125 50 125 126c0 77-49 125-125 125" id="bS"/><g id="M"><use transform="matrix(0.011111111111111112,0,0,0.011111111111111112,0,0)" xlink:href="#bR"/><use transform="matrix(0.011111111111111112,0,0,0.011111111111111112,12.911111111111111,0)" xlink:href="#bw"/><use transform="matrix(0.011111111111111112,0,0,0.011111111111111112,24.11111111111111,0)" xlink:href="#bo"/><use transform="matrix(0.011111111111111112,0,0,0.011111111111111112,32.400000000000006,0)" xlink:href="#bm"/><use transform="matrix(0.011111111111111112,0,0,0.011111111111111112,44.04444444444445,0)" xlink:href="#bt"/><use transform="matrix(0.011111111111111112,0,0,0.011111111111111112,56.400000000000006,0)" xlink:href="#bn"/><use transform="matrix(0.011111111111111112,0,0,0.011111111111111112,66.04444444444445,0)" xlink:href="#bk"/><use transform="matrix(0.011111111111111112,0,0,0.011111111111111112,71.73333333333333,0)" xlink:href="#bx"/><use transform="matrix(0.011111111111111112,0,0,0.011111111111111112,84.08888888888889,0)" xlink:href="#bt"/><use transform="matrix(0.011111111111111112,0,0,0.011111111111111112,96.44444444444444,0)" xlink:href="#bn"/><use transform="matrix(0.011111111111111112,0,0,0.011111111111111112,106.08888888888889,0)" xlink:href="#bS"/></g><path fill="#fff" d="M461 16c-231 0-339-149-339-383v-646h178v646c0 148 67 243 213 241 125-2 207-66 274-140v-747h178V0c-60-6-146 22-154-37l-14-109C716-60 619 16 461 16" id="bT"/><path fill="#fff" d="M223 0C139 2 94-45 94-123c0-70 47-112 118-113 165-3 132 231 74 332-37 65-83 128-140 175-20-19-63-49-29-84 46-47 91-108 106-187" id="bU"/><g id="N"><use transform="matrix(0.011111111111111112,0,0,0.011111111111111112,0,0)" xlink:href="#bT"/><use transform="matrix(0.011111111111111112,0,0,0.011111111111111112,12.355555555555556,0)" xlink:href="#bn"/><use transform="matrix(0.011111111111111112,0,0,0.011111111111111112,22,0)" xlink:href="#bp"/><use transform="matrix(0.011111111111111112,0,0,0.011111111111111112,33.266666666666666,0)" xlink:href="#bv"/><use transform="matrix(0.011111111111111112,0,0,0.011111111111111112,44.62222222222222,0)" xlink:href="#bm"/><use transform="matrix(0.011111111111111112,0,0,0.011111111111111112,56.266666666666666,0)" xlink:href="#bU"/></g><path fill="#fff" d="M344-1473V0H166v-1473h178" id="bV"/><g id="O"><use transform="matrix(0.011111111111111112,0,0,0.011111111111111112,0,0)" xlink:href="#bj"/><use transform="matrix(0.011111111111111112,0,0,0.011111111111111112,10.777777777777779,0)" xlink:href="#bm"/><use transform="matrix(0.011111111111111112,0,0,0.011111111111111112,22.422222222222224,0)" xlink:href="#bV"/><use transform="matrix(0.011111111111111112,0,0,0.011111111111111112,28.11111111111111,0)" xlink:href="#bm"/><use transform="matrix(0.011111111111111112,0,0,0.011111111111111112,39.75555555555556,0)" xlink:href="#bq"/><use transform="matrix(0.011111111111111112,0,0,0.011111111111111112,52.022222222222226,0)" xlink:href="#bx"/><use transform="matrix(0.011111111111111112,0,0,0.011111111111111112,64.37777777777778,0)" xlink:href="#bu"/><use transform="matrix(0.011111111111111112,0,0,0.011111111111111112,73.33333333333334,0)" xlink:href="#bo"/></g><path fill="#fff" d="M895-142C799-8 539 62 344-21 173-94 74-262 74-507c0-317 160-522 477-522 151 0 254 54 333 132-21 26-39 58-63 81-42 20-68-19-100-34-42-20-91-42-160-40-219 6-304 160-304 383 0 220 82 376 295 383 106 4 169-38 223-84 22-19 53-21 70 1" id="bW"/><g id="P"><use transform="matrix(0.011111111111111112,0,0,0.011111111111111112,0,0)" xlink:href="#bW"/><use transform="matrix(0.011111111111111112,0,0,0.011111111111111112,10.377777777777778,0)" xlink:href="#bV"/><use transform="matrix(0.011111111111111112,0,0,0.011111111111111112,16.066666666666666,0)" xlink:href="#bT"/><use transform="matrix(0.011111111111111112,0,0,0.011111111111111112,28.422222222222224,0)" xlink:href="#bn"/><use transform="matrix(0.011111111111111112,0,0,0.011111111111111112,38.06666666666667,0)" xlink:href="#bo"/><use transform="matrix(0.011111111111111112,0,0,0.011111111111111112,46.355555555555554,0)" xlink:href="#bm"/><use transform="matrix(0.011111111111111112,0,0,0.011111111111111112,58,0)" xlink:href="#bu"/></g><g id="Q"><use transform="matrix(0.011111111111111112,0,0,0.011111111111111112,0,0)" xlink:href="#bt"/><use transform="matrix(0.011111111111111112,0,0,0.011111111111111112,12.355555555555556,0)" xlink:href="#bp"/><use transform="matrix(0.011111111111111112,0,0,0.011111111111111112,23.622222222222224,0)" xlink:href="#bl"/><use transform="matrix(0.011111111111111112,0,0,0.011111111111111112,41.86666666666667,0)" xlink:href="#bm"/><use transform="matrix(0.011111111111111112,0,0,0.011111111111111112,53.51111111111111,0)" xlink:href="#bU"/></g><g id="R"><use transform="matrix(0.011111111111111112,0,0,0.011111111111111112,0,0)" xlink:href="#bT"/><use transform="matrix(0.011111111111111112,0,0,0.011111111111111112,12.355555555555556,0)" xlink:href="#bn"/><use transform="matrix(0.011111111111111112,0,0,0.011111111111111112,22,0)" xlink:href="#bm"/><use transform="matrix(0.011111111111111112,0,0,0.011111111111111112,33.644444444444446,0)" xlink:href="#bu"/></g><g id="S"><use transform="matrix(0.011111111111111112,0,0,0.011111111111111112,0,0)" xlink:href="#bt"/><use transform="matrix(0.011111111111111112,0,0,0.011111111111111112,12.355555555555556,0)" xlink:href="#bp"/><use transform="matrix(0.011111111111111112,0,0,0.011111111111111112,23.622222222222224,0)" xlink:href="#bl"/><use transform="matrix(0.011111111111111112,0,0,0.011111111111111112,41.86666666666667,0)" xlink:href="#bm"/><use transform="matrix(0.011111111111111112,0,0,0.011111111111111112,53.51111111111111,0)" xlink:href="#bU"/></g><path fill="#fff" d="M338-1150c4 31 6 65 6 97V0H174v-1433c59 2 132-6 183 5 10 2 18 13 27 28l495 882c19 31 31 68 45 104 14-38 27-71 46-105l485-881c25-58 137-23 210-33V0h-170c2-381-5-772 4-1147l-491 896c-27 62-134 61-168 0" id="bX"/><path fill="#fff" d="M1057-1433v158H369v501h588v158H369V0H174v-1433h883" id="bY"/><path fill="#fff" d="M1353 0h-150c-36 0-55-21-66-46l-134-346H360L226-46c-9 23-33 46-66 46H10l573-1433h197zM414-532h535l-225-583c-15-36-29-81-43-135-13 48-26 95-42 136" id="bZ"/><g id="T"><use transform="matrix(0.011111111111111112,0,0,0.011111111111111112,0,0)" xlink:href="#bX"/><use transform="matrix(0.011111111111111112,0,0,0.011111111111111112,20.444444444444446,0)" xlink:href="#bY"/><use transform="matrix(0.011111111111111112,0,0,0.011111111111111112,31.555555555555557,0)" xlink:href="#bZ"/></g><path fill="#fff" d="M18-1013h146c28-1 47 18 55 37l257 652c18 45 27 93 37 143 12-50 22-98 40-143l260-652c17-60 123-30 192-37L592 0H431" id="ca"/><g id="U"><use transform="matrix(0.011111111111111112,0,0,0.011111111111111112,0,0)" xlink:href="#br"/><use transform="matrix(0.011111111111111112,0,0,0.011111111111111112,12.422222222222222,0)" xlink:href="#bm"/><use transform="matrix(0.011111111111111112,0,0,0.011111111111111112,23.77777777777778,0)" xlink:href="#ca"/><use transform="matrix(0.011111111111111112,0,0,0.011111111111111112,34.86666666666667,0)" xlink:href="#bW"/><use transform="matrix(0.011111111111111112,0,0,0.011111111111111112,45.24444444444445,0)" xlink:href="#bk"/><use transform="matrix(0.011111111111111112,0,0,0.011111111111111112,50.93333333333334,0)" xlink:href="#bm"/></g><g id="V"><use transform="matrix(0.011111111111111112,0,0,0.011111111111111112,0,0)" xlink:href="#bk"/><use transform="matrix(0.011111111111111112,0,0,0.011111111111111112,5.688888888888889,0)" xlink:href="#br"/><use transform="matrix(0.011111111111111112,0,0,0.011111111111111112,18.11111111111111,0)" xlink:href="#bU"/></g><g id="W"><use transform="matrix(0.011111111111111112,0,0,0.011111111111111112,0,0)" xlink:href="#bo"/><use transform="matrix(0.011111111111111112,0,0,0.011111111111111112,8.28888888888889,0)" xlink:href="#bp"/><use transform="matrix(0.011111111111111112,0,0,0.011111111111111112,19.555555555555557,0)" xlink:href="#bu"/><use transform="matrix(0.011111111111111112,0,0,0.011111111111111112,28.511111111111113,0)" xlink:href="#bv"/><use transform="matrix(0.011111111111111112,0,0,0.011111111111111112,39.86666666666667,0)" xlink:href="#bm"/><use transform="matrix(0.011111111111111112,0,0,0.011111111111111112,51.51111111111111,0)" xlink:href="#bo"/></g><g id="X"><use transform="matrix(0.011111111111111112,0,0,0.011111111111111112,0,0)" xlink:href="#bu"/><use transform="matrix(0.011111111111111112,0,0,0.011111111111111112,8.955555555555556,0)" xlink:href="#bm"/><use transform="matrix(0.011111111111111112,0,0,0.011111111111111112,20.6,0)" xlink:href="#bn"/><use transform="matrix(0.011111111111111112,0,0,0.011111111111111112,30.244444444444447,0)" xlink:href="#bx"/><use transform="matrix(0.011111111111111112,0,0,0.011111111111111112,42.6,0)" xlink:href="#bT"/><use transform="matrix(0.011111111111111112,0,0,0.011111111111111112,54.955555555555556,0)" xlink:href="#bu"/><use transform="matrix(0.011111111111111112,0,0,0.011111111111111112,63.91111111111111,0)" xlink:href="#bW"/><use transform="matrix(0.011111111111111112,0,0,0.011111111111111112,74.28888888888889,0)" xlink:href="#bm"/></g><path fill="#fff" d="M519-204c146 0 246-70 241-211-6-175-195-185-333-232-183-63-339-153-333-400 5-199 120-319 272-380 126-51 311-44 437 5 72 27 133 64 184 112l-66 127c-15 40-64 51-105 25-64-41-136-87-246-85-132 3-224 54-224 182 0 167 202 176 334 227 173 67 333 144 333 381 0 227-120 364-289 433-138 56-353 39-478-16-80-35-154-80-210-138l78-129c23-34 74-43 115-13 73 54 157 112 290 112" id="cb"/><path fill="#fff" d="M247-436C153-487 80-575 80-712c0-228 174-332 407-332 92 0 169 20 230 53h295c-4 63 19 133-53 146l-92 17c30 74 25 184-9 254-72 146-265 223-484 183-51 27-68 81-20 111 145 54 395 5 528 91 60 38 108 95 104 193-8 182-136 275-286 326-172 59-444 28-556-52C83 234 32 179 32 90c0-112 77-164 166-199-49-28-87-70-84-147 4-94 65-143 133-180zm247 621c132 0 252-20 264-139-10-98-129-93-228-102-63-6-132-5-191-13-47 27-93 62-93 127 0 112 123 127 248 127zM305-706c0 111 68 168 182 168s182-56 182-168c0-107-68-165-182-165s-182 58-182 165" id="cc"/><path fill="#fff" d="M457 16c-234 0-346-155-346-390v-652h247v652c0 121 55 198 174 197 102-1 168-51 226-107v-742h247V0c-80-9-199 29-214-45l-17-82C697-50 608 16 457 16" id="cd"/><g id="Y"><use transform="matrix(0.012222222222222221,0,0,0.012222222222222221,0,0)" xlink:href="#cb"/><use transform="matrix(0.012222222222222221,0,0,0.012222222222222221,13.114444444444443,0)" xlink:href="#aP"/><use transform="matrix(0.012222222222222221,0,0,0.012222222222222221,19.738888888888887,0)" xlink:href="#cc"/><use transform="matrix(0.012222222222222221,0,0,0.012222222222222221,32.388888888888886,0)" xlink:href="#bP"/><use transform="matrix(0.012222222222222221,0,0,0.012222222222222221,46.28555555555555,0)" xlink:href="#aR"/><use transform="matrix(0.012222222222222221,0,0,0.012222222222222221,59.082222222222214,0)" xlink:href="#aO"/><use transform="matrix(0.012222222222222221,0,0,0.012222222222222221,68.54222222222221,0)" xlink:href="#cd"/><use transform="matrix(0.012222222222222221,0,0,0.012222222222222221,82.43888888888887,0)" xlink:href="#aN"/><use transform="matrix(0.012222222222222221,0,0,0.012222222222222221,92.42444444444442,0)" xlink:href="#aM"/></g><g id="Z"><use transform="matrix(0.012222222222222221,0,0,0.012222222222222221,0,0)" xlink:href="#aR"/><use transform="matrix(0.012222222222222221,0,0,0.012222222222222221,12.796666666666665,0)" xlink:href="#bP"/><use transform="matrix(0.012222222222222221,0,0,0.012222222222222221,26.693333333333324,0)" xlink:href="#bf"/></g><g id="aa"><use transform="matrix(0.012222222222222221,0,0,0.012222222222222221,0,0)" xlink:href="#cb"/><use transform="matrix(0.012222222222222221,0,0,0.012222222222222221,13.114444444444443,0)" xlink:href="#aP"/><use transform="matrix(0.012222222222222221,0,0,0.012222222222222221,19.738888888888887,0)" xlink:href="#cc"/><use transform="matrix(0.012222222222222221,0,0,0.012222222222222221,32.388888888888886,0)" xlink:href="#bP"/><use transform="matrix(0.012222222222222221,0,0,0.012222222222222221,46.28555555555555,0)" xlink:href="#aR"/><use transform="matrix(0.012222222222222221,0,0,0.012222222222222221,59.082222222222214,0)" xlink:href="#aO"/><use transform="matrix(0.012222222222222221,0,0,0.012222222222222221,68.54222222222221,0)" xlink:href="#cd"/><use transform="matrix(0.012222222222222221,0,0,0.012222222222222221,82.43888888888887,0)" xlink:href="#aN"/><use transform="matrix(0.012222222222222221,0,0,0.012222222222222221,92.42444444444442,0)" xlink:href="#aM"/></g><path fill="#fff" d="M1417 0h-208c-47 1-77-28-90-61l-108-295H412L304-61c-11 30-46 61-89 61H6l568-1446h275zM481-546h461c-77-218-163-424-231-651-66 230-154 432-230 651" id="ce"/><path fill="#fff" d="M605-850c-102 1-168 52-226 108V0H132v-1486h247v571c76-69 161-129 301-127 234 4 346 154 346 389V0H779v-653c0-121-55-198-174-197" id="cf"/><path fill="#fff" d="M565-850c-86 0-140 48-186 99V0H132v-1026c80 9 198-29 214 45l16 76c67-72 141-136 276-137 139-1 214 86 253 192 57-117 162-192 328-192 240 0 354 147 354 389V0h-247v-653c1-123-52-197-169-197s-180 76-180 197V0H729v-653c0-127-46-197-164-197" id="cg"/><g id="ab"><use transform="matrix(0.012222222222222221,0,0,0.012222222222222221,0,0)" xlink:href="#ce"/><use transform="matrix(0.012222222222222221,0,0,0.012222222222222221,17.355555555555554,0)" xlink:href="#be"/><use transform="matrix(0.012222222222222221,0,0,0.012222222222222221,23.979999999999997,0)" xlink:href="#cc"/><use transform="matrix(0.012222222222222221,0,0,0.012222222222222221,36.629999999999995,0)" xlink:href="#bi"/><use transform="matrix(0.012222222222222221,0,0,0.012222222222222221,50.526666666666664,0)" xlink:href="#aN"/><use transform="matrix(0.012222222222222221,0,0,0.012222222222222221,60.51222222222221,0)" xlink:href="#aP"/><use transform="matrix(0.012222222222222221,0,0,0.012222222222222221,67.13666666666666,0)" xlink:href="#cc"/><use transform="matrix(0.012222222222222221,0,0,0.012222222222222221,79.78666666666666,0)" xlink:href="#aO"/><use transform="matrix(0.012222222222222221,0,0,0.012222222222222221,89.24666666666666,0)" xlink:href="#cf"/><use transform="matrix(0.012222222222222221,0,0,0.012222222222222221,103.14333333333333,0)" xlink:href="#cg"/></g><path fill="#fff" d="M1289-200C1173-69 1017 19 773 16c-339-4-539-180-634-435-65-176-67-421 3-594 104-257 318-431 668-436 220-3 359 75 476 182-27 35-48 75-79 105-60 21-86-37-135-56-109-71-336-85-474-24-190 83-310 257-310 526 0 268 114 444 301 527 146 65 383 42 487-33 24-17 50-36 75-59 20-19 44-22 62-2" id="ch"/><g id="ac"><use transform="matrix(0.011111111111111112,0,0,0.011111111111111112,0,0)" xlink:href="#ch"/><use transform="matrix(0.011111111111111112,0,0,0.011111111111111112,15.222222222222223,0)" xlink:href="#bm"/><use transform="matrix(0.011111111111111112,0,0,0.011111111111111112,26.866666666666667,0)" xlink:href="#bu"/><use transform="matrix(0.011111111111111112,0,0,0.011111111111111112,35.82222222222222,0)" xlink:href="#bo"/><use transform="matrix(0.011111111111111112,0,0,0.011111111111111112,44.111111111111114,0)" xlink:href="#bk"/><use transform="matrix(0.011111111111111112,0,0,0.011111111111111112,49.800000000000004,0)" xlink:href="#bs"/><use transform="matrix(0.011111111111111112,0,0,0.011111111111111112,57.28888888888889,0)" xlink:href="#bk"/><use transform="matrix(0.011111111111111112,0,0,0.011111111111111112,62.97777777777778,0)" xlink:href="#bW"/><use transform="matrix(0.011111111111111112,0,0,0.011111111111111112,73.35555555555555,0)" xlink:href="#bp"/><use transform="matrix(0.011111111111111112,0,0,0.011111111111111112,84.62222222222222,0)" xlink:href="#bo"/><use transform="matrix(0.011111111111111112,0,0,0.011111111111111112,92.91111111111111,0)" xlink:href="#bm"/></g><path fill="#fff" d="M598-887c-125 2-207 68-274 141V0H146v-1473h178v596c81-82 173-152 326-152 232 0 339 151 339 384V0H811v-645c0-149-65-244-213-242" id="ci"/><path fill="#fff" d="M443 299c-13 26-25 44-64 44H247L432-59 14-1013h154c30-1 46 18 55 37 95 228 197 450 287 682 6 14 8 30 11 45 10-32 18-60 30-90l263-637c18-60 124-30 194-37" id="cj"/><path fill="#fff" d="M100-675h494v151H100v-151" id="ck"/><g id="ad"><use transform="matrix(0.011111111111111112,0,0,0.011111111111111112,0,0)" xlink:href="#bp"/><use transform="matrix(0.011111111111111112,0,0,0.011111111111111112,11.266666666666667,0)" xlink:href="#bT"/><use transform="matrix(0.011111111111111112,0,0,0.011111111111111112,23.622222222222224,0)" xlink:href="#bo"/><use transform="matrix(0.011111111111111112,0,0,0.011111111111111112,31.91111111111111,0)" xlink:href="#ci"/><use transform="matrix(0.011111111111111112,0,0,0.011111111111111112,44.266666666666666,0)" xlink:href="#bx"/><use transform="matrix(0.011111111111111112,0,0,0.011111111111111112,56.62222222222223,0)" xlink:href="#bu"/><use transform="matrix(0.011111111111111112,0,0,0.011111111111111112,65.57777777777778,0)" xlink:href="#bk"/><use transform="matrix(0.011111111111111112,0,0,0.011111111111111112,71.26666666666667,0)" xlink:href="#bo"/><use transform="matrix(0.011111111111111112,0,0,0.011111111111111112,79.55555555555556,0)" xlink:href="#cj"/><use transform="matrix(0.011111111111111112,0,0,0.011111111111111112,90.93333333333334,0)" xlink:href="#ck"/><use transform="matrix(0.011111111111111112,0,0,0.011111111111111112,98.64444444444445,0)" xlink:href="#bk"/><use transform="matrix(0.011111111111111112,0,0,0.011111111111111112,104.33333333333334,0)" xlink:href="#bn"/><use transform="matrix(0.011111111111111112,0,0,0.011111111111111112,113.97777777777779,0)" xlink:href="#bn"/><use transform="matrix(0.011111111111111112,0,0,0.011111111111111112,123.62222222222222,0)" xlink:href="#bT"/><use transform="matrix(0.011111111111111112,0,0,0.011111111111111112,135.9777777777778,0)" xlink:href="#bm"/><use transform="matrix(0.011111111111111112,0,0,0.011111111111111112,147.62222222222223,0)" xlink:href="#br"/></g><g id="ae"><use transform="matrix(0.011111111111111112,0,0,0.011111111111111112,0,0)" xlink:href="#bn"/><use transform="matrix(0.011111111111111112,0,0,0.011111111111111112,9.644444444444444,0)" xlink:href="#bk"/><use transform="matrix(0.011111111111111112,0,0,0.011111111111111112,15.333333333333332,0)" xlink:href="#bv"/><use transform="matrix(0.011111111111111112,0,0,0.011111111111111112,26.68888888888889,0)" xlink:href="#bt"/><use transform="matrix(0.011111111111111112,0,0,0.011111111111111112,39.044444444444444,0)" xlink:href="#bp"/><use transform="matrix(0.011111111111111112,0,0,0.011111111111111112,50.31111111111111,0)" xlink:href="#bo"/><use transform="matrix(0.011111111111111112,0,0,0.011111111111111112,58.6,0)" xlink:href="#bT"/><use transform="matrix(0.011111111111111112,0,0,0.011111111111111112,70.95555555555556,0)" xlink:href="#bu"/><use transform="matrix(0.011111111111111112,0,0,0.011111111111111112,79.91111111111113,0)" xlink:href="#bm"/></g><g id="af"><use transform="matrix(0.011111111111111112,0,0,0.011111111111111112,0,0)" xlink:href="#bx"/><use transform="matrix(0.011111111111111112,0,0,0.011111111111111112,12.355555555555556,0)" xlink:href="#bs"/></g><g id="ag"><use transform="matrix(0.011111111111111112,0,0,0.011111111111111112,0,0)" xlink:href="#bp"/><use transform="matrix(0.011111111111111112,0,0,0.011111111111111112,11.266666666666667,0)" xlink:href="#bV"/><use transform="matrix(0.011111111111111112,0,0,0.011111111111111112,16.955555555555556,0)" xlink:href="#bV"/></g><g id="ah"><use transform="matrix(0.011111111111111112,0,0,0.011111111111111112,0,0)" xlink:href="#bq"/><use transform="matrix(0.011111111111111112,0,0,0.011111111111111112,12.266666666666667,0)" xlink:href="#bu"/><use transform="matrix(0.011111111111111112,0,0,0.011111111111111112,21.22222222222222,0)" xlink:href="#bm"/><use transform="matrix(0.011111111111111112,0,0,0.011111111111111112,32.86666666666667,0)" xlink:href="#bW"/><use transform="matrix(0.011111111111111112,0,0,0.011111111111111112,43.24444444444445,0)" xlink:href="#bm"/><use transform="matrix(0.011111111111111112,0,0,0.011111111111111112,54.88888888888889,0)" xlink:href="#br"/><use transform="matrix(0.011111111111111112,0,0,0.011111111111111112,67.31111111111112,0)" xlink:href="#bk"/><use transform="matrix(0.011111111111111112,0,0,0.011111111111111112,73,0)" xlink:href="#bt"/><use transform="matrix(0.011111111111111112,0,0,0.011111111111111112,85.35555555555555,0)" xlink:href="#bv"/></g><g id="ai"><use transform="matrix(0.011111111111111112,0,0,0.011111111111111112,0,0)" xlink:href="#bs"/><use transform="matrix(0.011111111111111112,0,0,0.011111111111111112,7.488888888888889,0)" xlink:href="#bk"/><use transform="matrix(0.011111111111111112,0,0,0.011111111111111112,13.177777777777779,0)" xlink:href="#bm"/><use transform="matrix(0.011111111111111112,0,0,0.011111111111111112,24.822222222222223,0)" xlink:href="#bV"/><use transform="matrix(0.011111111111111112,0,0,0.011111111111111112,30.511111111111113,0)" xlink:href="#br"/><use transform="matrix(0.011111111111111112,0,0,0.011111111111111112,42.93333333333334,0)" xlink:href="#bn"/><use transform="matrix(0.011111111111111112,0,0,0.011111111111111112,52.57777777777778,0)" xlink:href="#by"/></g></defs></g></svg>