<svg width="131" height="38" viewBox="0 0 131 38" fill="none" xmlns="http://www.w3.org/2000/svg">
<path fill-rule="evenodd" clip-rule="evenodd" d="M75.841 7.41186C76.7687 7.41186 77.6269 7.61294 78.4197 8.01112C79.2083 8.40931 79.8908 8.98849 80.4628 9.74465C81.0348 10.5008 81.4846 11.4219 81.8114 12.5159C82.1382 13.6099 82.3018 14.8487 82.3018 16.2363C82.3018 17.5354 82.1138 18.734 81.7418 19.832C81.3699 20.9301 80.8468 21.8873 80.1767 22.6958C79.5065 23.5042 78.7055 24.1397 77.7698 24.5942C76.8383 25.0487 75.8041 25.278 74.6684 25.278C73.7406 25.278 72.9599 25.1492 72.3307 24.8958C71.7016 24.6424 71.1292 24.2965 70.6144 23.8622V30.4906H65.2896V7.74968H68.7509C69.0127 7.77383 69.2372 7.84622 69.4211 7.9669C69.646 8.11168 69.8013 8.32887 69.8953 8.61445L70.2917 9.88139L70.5531 9.61193C70.8186 9.35049 71.1006 9.10515 71.3988 8.87992C71.7956 8.57824 72.2164 8.32082 72.6699 8.10766C73.1235 7.89048 73.6097 7.72155 74.1287 7.60087C74.6518 7.48023 75.2197 7.41585 75.8368 7.41585L75.841 7.41186ZM25.7449 7.48023C26.9258 7.48023 28.0046 7.65721 28.9813 8.01112C29.9621 8.36508 30.8039 8.88394 31.5068 9.55962C32.2097 10.2353 32.7613 11.0679 33.1577 12.0493C33.5541 13.0307 33.7503 14.1448 33.7503 15.3876C33.7503 15.7778 33.7339 16.0915 33.6971 16.3369C33.6644 16.5822 33.599 16.7752 33.5092 16.92C33.4192 17.0649 33.2926 17.1654 33.1414 17.2217C32.9902 17.278 32.7899 17.3062 32.5488 17.3062H22.2754L22.3122 17.5877C22.5083 18.8869 22.9456 19.8361 23.6321 20.4434C24.3636 21.091 25.3117 21.4168 26.4681 21.4168C27.0852 21.4168 27.6205 21.3444 28.0659 21.1995C28.5114 21.0548 28.9119 20.8939 29.2592 20.7169C29.6065 20.5399 29.9294 20.379 30.2195 20.2342C30.5097 20.0895 30.8162 20.0171 31.139 20.0171C31.564 20.0171 31.8827 20.1659 32.0993 20.4675L33.644 22.3177L33.407 22.5711C32.9248 23.0658 32.414 23.4801 31.8664 23.8058C31.2289 24.188 30.5791 24.4896 29.9089 24.7068C29.2388 24.924 28.5686 25.0728 27.8984 25.1573C27.2282 25.2418 26.5907 25.282 25.9818 25.282C24.7355 25.282 23.5626 25.0849 22.4675 24.6907C21.3723 24.2965 20.4161 23.7093 19.5988 22.9331C18.7815 22.1568 18.1317 21.1915 17.6577 20.0372C17.1837 18.8828 16.9467 17.5395 16.9467 16.0071C16.9467 14.8527 17.151 13.7587 17.5555 12.725C17.9601 11.6913 18.5445 10.7864 19.3086 10.0101C20.0687 9.23384 20.9923 8.61847 22.0752 8.15993C23.1581 7.70546 24.3799 7.4762 25.7449 7.4762V7.48023ZM54.2276 7.48023C55.4088 7.48023 56.4874 7.65721 57.464 8.01112C58.4448 8.36508 59.2868 8.88394 59.9897 9.55962C60.6926 10.2353 61.2442 11.0679 61.6406 12.0493C62.037 13.0307 62.2329 14.1448 62.2329 15.3876C62.2329 15.7778 62.2168 16.0915 62.1799 16.3369C62.1472 16.5822 62.0817 16.7752 61.9919 16.92C61.902 17.0649 61.7752 17.1654 61.6241 17.2217C61.4688 17.278 61.2728 17.3062 61.0318 17.3062H50.7583L50.7948 17.5877C50.9911 18.8869 51.4285 19.8361 52.1148 20.4434C52.8463 21.091 53.7943 21.4168 54.9511 21.4168C55.5679 21.4168 56.1034 21.3444 56.5486 21.1995C56.9943 21.0548 57.3948 20.8939 57.7419 20.7169C58.0894 20.5399 58.4121 20.379 58.7024 20.2342C58.9923 20.0895 59.2988 20.0171 59.6219 20.0171C60.0468 20.0171 60.3654 20.1659 60.582 20.4675L62.1269 22.3177L61.8899 22.5711C61.4075 23.0658 60.8968 23.4801 60.3492 23.8058C59.7118 24.188 59.0619 24.4896 58.3918 24.7068C57.7216 24.924 57.0515 25.0728 56.3813 25.1573C55.7111 25.2418 55.0737 25.282 54.4645 25.282C53.2182 25.282 52.0456 25.0849 50.9501 24.6907C49.855 24.2965 48.8987 23.7093 48.0815 22.9331C47.2643 22.1568 46.6144 21.1915 46.1406 20.0372C45.6664 18.8828 45.4294 17.5395 45.4294 16.0071C45.4294 14.8527 45.6336 13.7587 46.0383 12.725C46.4429 11.6913 47.0274 10.7864 47.7915 10.0101C48.5516 9.23384 49.4752 8.61847 50.5579 8.15993C51.641 7.70546 52.8628 7.4762 54.2276 7.4762V7.48023ZM93.086 7.48023C94.4387 7.48023 95.6688 7.68534 96.7801 8.09559C97.8917 8.50584 98.8439 9.09307 99.6408 9.86131C100.438 10.6255 101.054 11.5586 101.496 12.6486C101.937 13.7426 102.158 14.9693 102.158 16.3369C102.158 17.7044 101.937 18.9552 101.496 20.0573C101.054 21.1634 100.438 22.1005 99.6408 22.8727C98.8439 23.645 97.8917 24.2362 96.7801 24.6545C95.6688 25.0688 94.4387 25.278 93.086 25.278C91.7332 25.278 90.4828 25.0688 89.3674 24.6545C88.2516 24.2402 87.2874 23.645 86.4822 22.8727C85.6733 22.1005 85.052 21.1634 84.6105 20.0573C84.1694 18.9512 83.9486 17.7124 83.9486 16.3369C83.9486 14.9613 84.1694 13.7426 84.6105 12.6486C85.052 11.5546 85.677 10.6255 86.4822 9.86131C87.2874 9.0971 88.2516 8.50584 89.3674 8.09559C90.4828 7.68534 91.7253 7.48023 93.086 7.48023ZM125.623 2.73416V7.77785H129.95V11.3092H125.623V19.8843L125.631 20.0532C125.655 20.379 125.754 20.6525 125.925 20.8778C126.125 21.1392 126.415 21.2679 126.791 21.2679C126.987 21.2679 127.151 21.2478 127.282 21.2116C127.412 21.1754 127.527 21.1271 127.625 21.0789C127.723 21.0306 127.813 20.9864 127.899 20.9461C127.985 20.9059 128.087 20.8898 128.201 20.8898C128.36 20.8898 128.491 20.9261 128.589 20.9985C128.688 21.0709 128.785 21.1834 128.892 21.3403L130.506 23.7898L130.245 23.9708C129.623 24.381 128.937 24.6948 128.189 24.9119C127.331 25.1613 126.444 25.286 125.524 25.286C124.679 25.286 123.931 25.1653 123.281 24.928C122.636 24.6907 122.092 24.3489 121.651 23.9104C121.209 23.472 120.874 22.9411 120.645 22.3217C120.416 21.6983 120.302 21.0065 120.302 20.2423V11.3173H118.79L118.655 11.3092C118.439 11.2851 118.246 11.2006 118.083 11.0599C117.887 10.8869 117.793 10.6335 117.793 10.3037V8.28866L120.629 7.75773L121.675 3.54663L121.716 3.4179C121.879 2.97147 122.255 2.74622 122.844 2.74622H125.627L125.623 2.73416ZM19.8971 0.755288V5.21577H12.852V25.0125H7.04508V5.21577H0V0.755288H19.8971ZM42.3073 0.0876236V25.0125H36.9827V0.0876236H42.3073ZM114.94 7.41585C115.754 7.41585 116.407 7.6049 116.898 7.98299L116.212 11.7798L116.179 11.9126C116.125 12.0775 116.048 12.1981 115.938 12.2705C115.799 12.363 115.619 12.4113 115.386 12.4113C115.19 12.4113 114.961 12.3872 114.699 12.3349C114.438 12.2866 114.103 12.2584 113.702 12.2584C112.305 12.2584 111.205 12.9784 110.405 14.4223V25.0125H105.08V7.74968H108.431C108.61 7.76175 108.77 7.78187 108.901 7.81809C109.076 7.86231 109.228 7.93068 109.346 8.02722C109.464 8.11973 109.559 8.24842 109.62 8.40126C109.681 8.55815 109.738 8.74717 109.783 8.96841L110.073 10.5853L110.294 10.2675C110.891 9.43898 111.549 8.77533 112.272 8.27257C113.085 7.70546 113.972 7.42389 114.936 7.42389L114.94 7.41585ZM73.9858 11.3615C73.5977 11.3615 73.2461 11.3977 72.9272 11.4701C72.6128 11.5425 72.3183 11.6431 72.0528 11.7798C71.7832 11.9126 71.5339 12.0815 71.3052 12.2866C71.0762 12.4918 70.8475 12.7291 70.6185 12.9945V20.3227L70.7941 20.4997C71.1457 20.8376 71.5214 21.0829 71.9261 21.2277C72.3962 21.4007 72.8866 21.4851 73.4055 21.4851C73.9245 21.4851 74.3495 21.3926 74.762 21.2036C75.1749 21.0145 75.5303 20.7129 75.8368 20.2946C76.1392 19.8803 76.3765 19.3373 76.548 18.6697C76.7195 18.002 76.8056 17.1935 76.8056 16.2403C76.8056 15.2871 76.736 14.5631 76.601 13.9437C76.4622 13.3203 76.2701 12.8216 76.0249 12.4354C75.7797 12.0533 75.4856 11.7758 75.1381 11.6109C74.7947 11.446 74.4108 11.3615 73.9858 11.3615ZM93.0901 11.3133C91.8314 11.3133 90.9078 11.7275 90.3233 12.5601C89.7393 13.3927 89.449 14.6637 89.449 16.373C89.449 18.0824 89.7393 19.3574 90.3233 20.194C90.9078 21.0306 91.8314 21.4529 93.0901 21.4529C94.3488 21.4529 95.219 21.0346 95.7951 20.194C96.3754 19.3574 96.6616 18.0824 96.6616 16.373C96.6616 14.6637 96.3717 13.3927 95.7951 12.5601C95.2149 11.7275 94.3161 11.3133 93.0901 11.3133ZM25.8511 11.0438C24.8336 11.0438 24.0367 11.3253 23.4646 11.8844C22.8925 12.4435 22.5124 13.2519 22.3326 14.3057H28.9813C28.9813 13.8954 28.9282 13.4972 28.8179 13.1071C28.7075 12.717 28.5318 12.3711 28.2866 12.0654C28.0414 11.7597 27.7186 11.5144 27.314 11.3253C26.9136 11.1363 26.4273 11.0438 25.8552 11.0438H25.8511ZM54.334 11.0438C53.3163 11.0438 52.5195 11.3253 51.9475 11.8844C51.3751 12.4435 50.9952 13.2519 50.8155 14.3057H57.464C57.464 13.8954 57.411 13.4972 57.3008 13.1071C57.1902 12.717 57.0146 12.3711 56.7694 12.0654C56.5242 11.7597 56.2015 11.5144 55.7969 11.3253C55.3964 11.1363 54.9101 11.0438 54.3381 11.0438H54.334Z" fill="#512FC9"/>
<path d="M112.089 37.054H110.807C110.664 37.054 110.545 37.0216 110.45 36.9562C110.358 36.8878 110.295 36.8013 110.259 36.6967L109.838 35.4538H107.127L106.706 36.6967C106.673 36.7881 106.61 36.8716 106.515 36.9464C106.421 37.0183 106.305 37.054 106.168 37.054H104.876L107.636 29.9237H109.329L112.089 37.054ZM107.509 34.3282H109.457L108.801 32.3755C108.758 32.2516 108.708 32.1063 108.649 31.9399C108.594 31.7703 108.538 31.5876 108.483 31.3918C108.43 31.5908 108.377 31.7752 108.321 31.9448C108.266 32.1145 108.213 32.2613 108.164 32.3853L107.509 34.3282ZM115.755 35.86C115.984 35.86 116.186 35.8405 116.362 35.8013C116.538 35.7621 116.705 35.7099 116.861 35.6447V34.5631H116.157C116.052 34.5631 115.97 34.5354 115.912 34.4799C115.853 34.4245 115.824 34.3543 115.824 34.2695V33.3592H118.359V36.369C118.176 36.5028 117.985 36.6185 117.786 36.7166C117.591 36.811 117.38 36.8893 117.155 36.9513C116.933 37.0134 116.695 37.0589 116.441 37.0886C116.189 37.1179 115.919 37.1326 115.628 37.1326C115.106 37.1326 114.623 37.0412 114.18 36.8584C113.736 36.6723 113.351 36.4179 113.024 36.0949C112.701 35.7687 112.447 35.3837 112.261 34.9399C112.078 34.493 111.987 34.0085 111.987 33.4864C111.987 32.9546 112.075 32.4669 112.251 32.0232C112.428 31.5762 112.679 31.1912 113.005 30.8682C113.335 30.5452 113.731 30.294 114.194 30.1145C114.661 29.935 115.181 29.8453 115.755 29.8453C116.052 29.8453 116.331 29.8698 116.592 29.9187C116.853 29.9677 117.093 30.0346 117.312 30.1194C117.533 30.2042 117.736 30.3054 117.918 30.4228C118.101 30.5403 118.264 30.6675 118.408 30.8046L117.928 31.5338C117.882 31.6023 117.827 31.6561 117.762 31.6953C117.7 31.7344 117.631 31.754 117.556 31.754C117.459 31.754 117.357 31.7214 117.253 31.6561C117.122 31.5778 116.998 31.5109 116.881 31.4555C116.767 31.3967 116.649 31.3494 116.529 31.3135C116.408 31.2776 116.281 31.2515 116.147 31.2352C116.013 31.2189 115.863 31.2107 115.697 31.2107C115.387 31.2107 115.108 31.2662 114.86 31.3772C114.612 31.4848 114.4 31.6381 114.224 31.8372C114.051 32.0362 113.917 32.276 113.822 32.5566C113.728 32.8339 113.68 33.1439 113.68 33.4864C113.68 33.8649 113.732 34.201 113.837 34.4946C113.941 34.7882 114.085 35.0362 114.268 35.2385C114.453 35.4408 114.672 35.5957 114.923 35.7034C115.178 35.8078 115.455 35.86 115.755 35.86ZM121.045 34.6708V37.054H119.391V29.9237H121.906C122.409 29.9237 122.839 29.984 123.198 30.1047C123.56 30.2222 123.857 30.3853 124.089 30.5941C124.324 30.8029 124.497 31.0493 124.608 31.3331C124.719 31.6169 124.774 31.9237 124.774 32.2532C124.774 32.6088 124.717 32.9351 124.603 33.232C124.488 33.5289 124.314 33.7834 124.079 33.9954C123.844 34.2075 123.546 34.3739 123.183 34.4946C122.825 34.6121 122.399 34.6708 121.906 34.6708H121.045ZM121.045 33.4228H121.906C122.337 33.4228 122.647 33.32 122.836 33.1145C123.025 32.909 123.12 32.6218 123.12 32.2532C123.12 32.09 123.095 31.9416 123.047 31.8078C122.998 31.6741 122.922 31.5599 122.821 31.4652C122.724 31.3673 122.598 31.2923 122.444 31.2401C122.294 31.1879 122.115 31.1618 121.906 31.1618H121.045V33.4228ZM127.311 35.7328H129.954V37.054H125.657V29.9237H127.311V35.7328Z" fill="#512FC9"/>
</svg>
