<svg fill="none" height="120" viewBox="0 0 413 120" width="413" xmlns="http://www.w3.org/2000/svg"><g fill="#000"><path d="m20.8651 92.7295v6.7383h-2.4262v-18.0149h5.3177c1.1398 0 2.1287.1341 2.9668.4023.8465.2598 1.5463.6328 2.0995 1.1189.5531.4861.9638 1.0727 1.232 1.76.2765.6872.4148 1.4541.4148 2.3006 0 .838-.1467 1.6049-.44 2.3005s-.7249 1.2949-1.2948 1.7977c-.5616.5029-1.2614.8968-2.0995 1.1818-.8381.2765-1.7977.4148-2.8788.4148zm0-1.936h2.8915c.6956 0 1.3074-.0922 1.8354-.2766.5364-.1843.9848-.44 1.3451-.7668.3604-.3353.6328-.7334.8172-1.1943.1844-.461.2766-.968.2766-1.5211 0-1.1482-.3562-2.045-1.0686-2.6903-.704-.6454-1.7726-.968-3.2057-.968h-2.8915zm32.4425-.3268c0 1.3493-.2137 2.5897-.6411 3.7211-.4275 1.123-1.0309 2.091-1.8103 2.904-.7795.8129-1.7181 1.4457-2.816 1.8983-1.0896.4442-2.2964.6663-3.6206.6663s-2.531-.2221-3.6206-.6663c-1.0895-.4526-2.024-1.0854-2.8034-1.8983-.7794-.813-1.3828-1.781-1.8102-2.904-.4274-1.1314-.6411-2.3718-.6411-3.7211 0-1.3494.2137-2.5856.6411-3.7086.4274-1.1314 1.0308-2.1036 1.8102-2.9166.7794-.8213 1.7139-1.4583 2.8034-1.9108 1.0896-.4526 2.2964-.6789 3.6206-.6789s2.531.2263 3.6206.6789c1.0979.4525 2.0365 1.0895 2.816 1.9108.7794.813 1.3828 1.7852 1.8103 2.9166.4274 1.123.6411 2.3592.6411 3.7086zm-2.5017 0c0-1.1063-.1509-2.0995-.4526-2.9795s-.7291-1.6217-1.2823-2.2251c-.5531-.6118-1.2236-1.0812-2.0114-1.408-.7878-.3269-1.6678-.4903-2.64-.4903-.9638 0-1.8396.1634-2.6274.4903-.7878.3268-1.4625.7962-2.024 1.408-.5532.6034-.9806 1.3451-1.2823 2.2251s-.4526 1.8732-.4526 2.9795c0 1.1062.1509 2.0994.4526 2.9794.3017.8716.7291 1.6133 1.2823 2.2251.5615.6034 1.2362 1.0686 2.024 1.3954.7878.3185 1.6636.4778 2.6274.4778.9722 0 1.8522-.1593 2.64-.4778.7878-.3268 1.4583-.792 2.0114-1.3954.5532-.6118.9806-1.3535 1.2823-2.2251.3017-.88.4526-1.8732.4526-2.9794zm6.8353-9.0138h2.024c.2179 0 .3981.0545.5406.1635.1424.1089.2388.2472.2891.4148l3.7211 12.5212c.0671.2262.1258.4693.176.7291.0587.2598.1132.5322.1635.8172.0586-.285.1173-.5574.176-.8172.0586-.2682.1257-.5112.2011-.7291l4.2366-12.5212c.0503-.1425.1467-.2724.2891-.3897.1509-.1257.3311-.1886.5406-.1886h.704c.2179 0 .3939.0545.528.1635.1425.1089.243.2472.3017.4148l4.2114 12.5212c.1509.4358.285.9344.4023 1.496.0503-.2766.0964-.5406.1383-.792.0419-.2515.0964-.4861.1634-.704l3.7338-12.5212c.0419-.1508.1341-.2849.2765-.4023.1509-.1173.3311-.176.5406-.176h1.8983l-5.6194 18.0149h-2.1875l-4.5634-13.7406c-.0922-.2598-.176-.5615-.2514-.9051-.0419.1676-.0838.331-.1257.4903-.0336.1508-.0713.2891-.1132.4148l-4.5886 13.7406h-2.1874zm41.7384 0v1.9863h-8.6492v5.984h7.0023v1.9109h-7.0023v6.1474h8.6492v1.9863h-11.1006v-18.0149zm9.2034 10.4972v7.5177h-2.426v-18.0149h5.091c1.14 0 2.125.1174 2.955.352.829.2263 1.513.5574 2.049.9932.545.4358.947.9638 1.207 1.584.26.6118.389 1.299.389 2.0617 0 .6369-.1 1.232-.301 1.7851-.201.5532-.495 1.0518-.88 1.496-.377.4358-.843.8088-1.396 1.1189-.544.3101-1.165.5448-1.86.704.301.176.57.4316.804.7669l5.255 7.1531h-2.162c-.444 0-.771-.1718-.981-.5154l-4.676-6.4366c-.143-.2011-.298-.3436-.465-.4274-.168-.0922-.419-.1383-.755-.1383zm0-1.7726h2.552c.713 0 1.337-.0838 1.873-.2514.545-.176.998-.4191 1.358-.7292.369-.3184.646-.6956.83-1.1314s.276-.9177.276-1.4457c0-1.0728-.356-1.8815-1.068-2.4263-.704-.5448-1.756-.8171-3.156-.8171h-2.665zm27.621-8.7246v1.9863h-8.649v5.984h7.002v1.9109h-7.002v6.1474h8.649v1.9863h-11.101v-18.0149zm22.14 9.0138c0 1.3493-.214 2.5771-.641 3.6834-.428 1.1063-1.031 2.0533-1.811 2.8411-.779.7878-1.714 1.3996-2.803 1.8354-1.09.4275-2.296.6412-3.621.6412h-6.738v-18.0149h6.738c1.325 0 2.531.2179 3.621.6537 1.089.4275 2.024 1.0393 2.803 1.8355.78.7878 1.383 1.7348 1.811 2.8411.427 1.1063.641 2.3341.641 3.6835zm-2.502 0c0-1.1063-.151-2.0953-.453-2.9669-.301-.8716-.729-1.6091-1.282-2.2126-.553-.6034-1.223-1.0644-2.011-1.3828-.788-.3185-1.664-.4777-2.628-.4777h-4.287v14.0674h4.287c.964 0 1.84-.1593 2.628-.4777.788-.3185 1.458-.7753 2.011-1.3703.553-.6034.981-1.341 1.282-2.2126.302-.8716.453-1.8606.453-2.9668zm16.715 9.0011v-18.0149h5.745c1.106 0 2.057.109 2.854.3269.804.2179 1.462.528 1.973.9303.52.4023.901.8967 1.144 1.4834.252.5783.378 1.232.378 1.9611 0 .4442-.072.8717-.214 1.2823-.134.4107-.344.792-.629 1.144-.276.352-.628.6663-1.056.9429-.419.2766-.913.5029-1.483.6789 1.316.2598 2.309.7333 2.979 1.4205.671.6873 1.006 1.5924 1.006 2.7155 0 .7626-.143 1.4582-.427 2.0868-.277.6286-.688 1.1692-1.232 1.6217-.537.4526-1.199.8046-1.987 1.056-.779.2431-1.672.3646-2.677.3646zm2.439-8.2092v6.2732h3.897c.695 0 1.29-.0796 1.785-.2389.503-.1592.913-.3813 1.232-.6663.327-.2933.566-.6369.717-1.0308.15-.4023.226-.8423.226-1.32 0-.9303-.331-1.6636-.993-2.2-.654-.5448-1.647-.8172-2.98-.8172zm0-1.7348h3.218c.687 0 1.282-.0754 1.785-.2263s.918-.3604 1.245-.6286c.335-.2682.582-.5908.741-.968.16-.3855.239-.8045.239-1.2571 0-1.056-.318-1.8312-.955-2.3257s-1.626-.7417-2.967-.7417h-3.306zm23.796 2.7783v7.1657h-2.426v-7.1657l-6.6-10.8492h2.137c.218 0 .39.0545.516.1635.125.1089.234.243.326.4023l4.124 7.0022c.168.2934.306.5699.415.8297.117.2599.222.5155.314.7669.092-.2598.193-.5196.302-.7794s.247-.5322.415-.8172l4.11-7.0022c.076-.1341.176-.2599.302-.3772.134-.1257.306-.1886.516-.1886h2.162zm33.233-11.0126v2.7783h-5.468v15.4h-3.382v-15.4h-5.494v-2.7783zm5.247 5.0789c.813 0 1.559.1299 2.238.3897.687.2598 1.278.6411 1.772 1.144.495.4945.88 1.1063 1.157 1.8354.276.7208.415 1.5463.415 2.4766 0 .2346-.013.4316-.038.5908-.017.1509-.055.2724-.113.3646-.051.0838-.122.1467-.214.1886-.092.0335-.21.0503-.352.0503h-7.97c.092 1.3242.448 2.2963 1.068 2.9165s1.442.9303 2.464.9303c.503 0 .935-.0586 1.295-.176.369-.1173.687-.2472.956-.3897.276-.1425.515-.2724.716-.3897.21-.1173.411-.176.604-.176.125 0 .234.0251.326.0754.093.0503.172.1215.239.2137l.905 1.1315c-.343.4022-.729.7417-1.156 1.0182-.428.2682-.876.4861-1.345.6538-.461.1592-.935.2723-1.421.3394-.478.067-.943.1006-1.395.1006-.897 0-1.731-.1467-2.502-.44-.771-.3018-1.442-.7418-2.011-1.32-.57-.5867-1.019-1.3075-1.346-2.1623-.326-.8633-.49-1.8606-.49-2.992 0-.88.143-1.7055.428-2.4766.284-.7794.691-1.4541 1.219-2.024.536-.5783 1.186-1.035 1.949-1.3703.771-.3352 1.638-.5028 2.602-.5028zm.063 2.2251c-.905 0-1.614.2556-2.125.7669-.511.5112-.838 1.2362-.98 2.1748h5.833c0-.4023-.055-.7794-.164-1.1314-.109-.3604-.276-.6747-.503-.9429-.226-.2682-.511-.4777-.854-.6285-.344-.1593-.746-.2389-1.207-.2389zm11.846-7.8068v18.6811h-3.105v-18.6811zm9.353 5.5817c.813 0 1.559.1299 2.238.3897.687.2598 1.278.6411 1.773 1.144.494.4945.88 1.1063 1.156 1.8354.277.7208.415 1.5463.415 2.4766 0 .2346-.013.4316-.038.5908-.016.1509-.054.2724-.113.3646-.05.0838-.121.1467-.214.1886-.092.0335-.209.0503-.352.0503h-7.97c.092 1.3242.449 2.2963 1.069 2.9165s1.441.9303 2.464.9303c.503 0 .934-.0586 1.295-.176.368-.1173.687-.2472.955-.3897.277-.1425.515-.2724.717-.3897.209-.1173.41-.176.603-.176.126 0 .235.0251.327.0754s.172.1215.239.2137l.905 1.1315c-.344.4022-.729.7417-1.157 1.0182-.427.2682-.876.4861-1.345.6538-.461.1592-.934.2723-1.42.3394-.478.067-.943.1006-1.396.1006-.897 0-1.731-.1467-2.502-.44-.771-.3018-1.441-.7418-2.011-1.32-.57-.5867-1.018-1.3075-1.345-2.1623-.327-.8633-.49-1.8606-.49-2.992 0-.88.142-1.7055.427-2.4766.285-.7794.691-1.4541 1.219-2.024.537-.5783 1.186-1.035 1.949-1.3703.771-.3352 1.638-.5028 2.602-.5028zm.063 2.2251c-.905 0-1.613.2556-2.124.7669-.512.5112-.839 1.2362-.981 2.1748h5.833c0-.4023-.054-.7794-.163-1.1314-.109-.3604-.277-.6747-.503-.9429s-.511-.4777-.855-.6285c-.344-.1593-.746-.2389-1.207-.2389zm8.54 15.0855v-17.1095h1.899c.201 0 .373.0461.515.1383.143.0922.235.2347.277.4274l.251 1.1943c.52-.595 1.115-1.0769 1.785-1.4457.679-.3688 1.471-.5532 2.376-.5532.704 0 1.345.1467 1.924.4401.586.2933 1.089.7207 1.508 1.2822.428.5532.754 1.2404.981 2.0617.234.813.352 1.7475.352 2.8035 0 .9638-.13 1.8564-.39 2.6777s-.633 1.5337-1.119 2.1371c-.478.6035-1.06 1.077-1.747 1.4206-.679.3352-1.442.5029-2.288.5029-.729 0-1.35-.109-1.861-.3269-.503-.2263-.955-.5364-1.358-.9303v5.2798zm6.035-14.8969c-.646 0-1.199.1383-1.66.4148-.452.2682-.876.6496-1.27 1.144v5.7829c.352.4358.734.7417 1.144.9177.42.1676.868.2514 1.346.2514.469 0 .892-.088 1.269-.264.386-.176.709-.4442.968-.8045.269-.3604.474-.813.616-1.3578.143-.5531.214-1.2026.214-1.9485 0-.7543-.063-1.3913-.189-1.9109-.117-.528-.289-.9554-.515-1.2823-.226-.3268-.503-.5657-.83-.7165-.318-.1509-.683-.2263-1.093-.2263zm14.191-2.4137c.964 0 1.835.155 2.615.4651.787.3101 1.458.7501 2.011 1.32s.981 1.2655 1.282 2.0869c.302.8213.453 1.739.453 2.7531 0 1.0225-.151 1.9444-.453 2.7657-.301.8214-.729 1.5212-1.282 2.0995-.553.5782-1.224 1.0224-2.011 1.3325-.78.3101-1.651.4652-2.615.4652s-1.84-.1551-2.628-.4652-1.462-.7543-2.024-1.3325c-.553-.5783-.985-1.2781-1.295-2.0995-.301-.8213-.452-1.7432-.452-2.7657 0-1.0141.151-1.9318.452-2.7531.31-.8214.742-1.517 1.295-2.0869.562-.5699 1.236-1.0099 2.024-1.32s1.664-.4651 2.628-.4651zm0 10.8994c1.072 0 1.864-.3604 2.376-1.0811.519-.7208.779-1.7768.779-3.1681 0-1.3912-.26-2.4514-.779-3.1805-.512-.7292-1.304-1.0937-2.376-1.0937-1.09 0-1.894.3687-2.414 1.1062-.52.7292-.779 1.7852-.779 3.168 0 1.3829.259 2.4389.779 3.1681.52.7207 1.324 1.0811 2.414 1.0811zm9.288 2.2v-12.8983h1.823c.318 0 .54.0587.666.176s.21.3185.251.6034l.189 1.5589c.461-.7962 1.002-1.4248 1.622-1.8857.62-.461 1.316-.6915 2.087-.6915.637 0 1.165.1467 1.584.4401l-.403 2.3257c-.025.1508-.079.2598-.163.3268-.084.0587-.197.088-.34.088-.125 0-.297-.0293-.515-.088-.218-.0586-.507-.088-.867-.088-.646 0-1.199.1802-1.66.5406-.461.352-.851.8716-1.169 1.5588v8.0332zm15.002.2011c-1.115 0-1.974-.3143-2.577-.9428-.604-.637-.905-1.5128-.905-2.6274v-7.2035h-1.308c-.168 0-.314-.0545-.44-.1634-.117-.109-.176-.2724-.176-.4903v-1.232l2.074-.3394.654-3.52c.034-.1676.109-.2975.226-.3897.126-.0922.281-.1383.465-.1383h1.61v4.0606h3.394v2.2125h-3.394v6.9897c0 .4023.1.7166.301.9429s.47.3394.805.3394c.193 0 .352-.0209.478-.0628.134-.0503.247-.1006.339-.1509.101-.0503.189-.0964.264-.1383.075-.0503.151-.0754.226-.0754.093 0 .168.0251.227.0754.058.0419.121.109.188.2012l.93 1.5085c-.452.3772-.972.6621-1.558.8549-.587.1928-1.195.2891-1.823.2891z"/><path d="m363.699 16c10.279 0 19.967 1.8417 26.856 4.2253 1.094.3784 1.672 1.5705 1.295 2.664-.379 1.0933-1.571 1.6732-2.665 1.2952-6.437-2.2272-15.662-3.994-25.486-3.994-6.703 0-11.294.48-14.458 1.2358-3.155.754-4.741 1.7462-5.615 2.6621l-.002.002c-.905.9486-1.439 2.3736-1.439 4.2212 0 1.7739.494 2.7903 1.202 3.5357l.262.2414c.706.5813 2.125 1.2614 5.289 1.8722 3.559.6869 8.969 1.2273 17.31 1.6615h-.002c9.288.4673 15.034 1.0793 18.79 1.9234 3.61.8114 5.557 1.876 7.063 3.3412l.298.2988c2.263 2.3743 2.782 5.4548 2.782 8.0495 0 2.5461-.764 5.7399-2.728 8.0885l-.408.4582c-2.871 3.0056-8.32 6.0667-25.784 6.0667-12.662-.0002-23.287-2.2813-30.415-5.2033-1.07-.4391-1.582-1.6632-1.144-2.7336.44-1.0699 1.662-1.5817 2.733-1.1438 6.551 2.6859 16.625 4.8901 28.826 4.8903 17.145 0 21.103-3.0436 22.75-4.7696l.239-.2659c1.144-1.3806 1.741-3.4984 1.741-5.3875 0-2.1357-.442-3.9147-1.624-5.1543l-.329-.3252c-.817-.7524-2.045-1.4763-4.919-2.1218-3.38-.7593-8.815-1.3611-18.082-1.8273h-.005c-8.372-.4358-14.025-.9858-17.887-1.7311-3.802-.7341-6.245-1.7212-7.785-3.3351l-.003-.002c-1.546-1.6233-2.361-3.7197-2.361-6.4269 0-2.6359.771-5.2008 2.602-7.1165 1.622-1.6996 4.053-2.9796 7.673-3.8447 3.617-.8635 8.572-1.3503 15.43-1.3504zm-312.2928 1.1274c5.1641 0 9.4675.1916 12.9705.8717 3.524.6843 6.4287 1.8986 8.6163 4.0861 2.3997 2.4003 3.0525 5.0168 3.0528 7.8449 0 1.502-.2603 3.045-.884 4.5137-.2957.6961-.6726 1.372-1.1356 2.0134-.6774.9373-1.9861 1.1476-2.924.4706-.9378-.6773-1.1496-1.9858-.4726-2.9239.2744-.3801.4982-.7821.6753-1.199.3733-.8795.5504-1.8533.5504-2.8748-.0002-2.0496-.4201-3.475-1.8273-4.8821-1.3826-1.3826-3.3867-2.3415-6.4493-2.9362-3.0838-.5988-7.0476-.7939-12.1725-.7939h-30.9661c-.1373.0004-.2453.1102-.2455.2476v15.0616c.0004.1371.1084.2451.2455.2455h42.2669c4.7355.0001 8.3563 1.4955 10.7872 4.0186 2.4078 2.4994 3.4416 5.7946 3.4416 9.0234-.0002 2.5034-1.0049 5.6781-3.2922 7.9656-2.3748 2.3746-5.7425 3.5971-9.447 4.2601-3.7264.6667-8.0778.8144-12.6737.8144h-31.0849c-2.4521 0-4.438-1.9861-4.438-4.4381v-11.9741c.0002-1.1568.9382-2.0952 2.0952-2.0952 1.1571.0002 2.0951.9384 2.0953 2.0952v11.9741c0 .1378.1097.2476.2475.2476h31.0849c4.5624 0 8.5999-.1517 11.9372-.749 3.3582-.6009 5.7307-1.6081 7.2208-3.0978 1.3994-1.3994 2.0642-3.4576 2.0644-5.0028 0-2.3616-.7519-4.5408-2.2691-6.1158-1.4947-1.5515-3.9424-2.7358-7.7692-2.7358h-42.2669c-2.4515-.0004-4.4356-1.9844-4.436-4.4359v-15.0616c.0002-2.4517 1.9844-4.4376 4.436-4.4381zm94.9388 19.7493c1.157 0 2.095.9383 2.095 2.0953 0 1.1572-.938 2.0952-2.095 2.0952h-49.3427c-.1376 0-.2474.11-.2476.2475v17.2019c0 .1378.1098.2474.2476.2476h50.1747c1.157 0 2.095.9383 2.096 2.0953 0 1.157-.938 2.0952-2.096 2.0952h-50.1747c-2.4522-.0002-4.4381-1.9861-4.4381-4.4381v-17.2019c.0002-2.4519 1.9861-4.438 4.4381-4.438zm72.15 10.29c1.383.0002 2.686.6474 3.524 1.7453l8.16 10.6767c.702.9194.526 2.2339-.393 2.9363-.92.7021-2.236.5265-2.938-.3929l-8.158-10.6788c-.045-.0591-.119-.0959-.195-.0962h-35.866c-1.157-.0002-2.095-.9382-2.096-2.0952 0-1.157.939-2.095 2.096-2.0952zm98.178-30.2603c2.009.2045 3.574 1.904 3.574 3.9613v39.9834c0 1.1572-.938 2.095-2.095 2.0952-1.156 0-2.095-.938-2.095-2.0952v-39.392l-31.242 39.0689h-.002c-1.509 1.8845-4.381 1.8928-5.892-.0021l-31.181-39.1323v39.4659c-.002 1.1567-.939 2.095-2.096 2.0952-1.158 0-2.095-.9385-2.095-2.0952v-39.9467c0-2.2209 1.8-4.0227 4.021-4.0227l.455.0245c1.051.1198 2.021.6538 2.688 1.4917l31.156 39.0914 31.284-39.116c.756-.9453 1.902-1.4957 3.114-1.4957zm-121.105-.0163c1.231.0003 2.395.5049 3.235 1.375l.34.3949.004.0041 16.523 21.7402c.7.9208.519 2.2358-.401 2.936-.921.7001-2.236.5218-2.937-.3989l-16.518-21.736-.051-.0553c-.056-.0458-.126-.0693-.195-.0696-.092 0-.184.0448-.245.1249l-.002-.0021-31.099 40.9246c-.7.9207-2.015 1.099-2.937.3992-.92-.7005-1.098-2.0133-.398-2.9342l31.103-40.9288.002-.0041c.849-1.1108 2.17-1.7699 3.576-1.7699zm-48.395.2414c1.158 0 2.096.9381 2.096 2.0953-.001 1.157-.939 2.0952-2.096 2.0952h-50.1749c-.1374.0004-.2476.11-.2476.2476v9.8664c-.0002 1.157-.9381 2.0953-2.0953 2.0953-1.1565-.0005-2.095-.9386-2.0952-2.0953v-9.8664c0-2.4519 1.9863-4.4377 4.4381-4.4381z"/></g></svg>