<svg width="131" height="40" viewBox="0 0 131 40" fill="none" xmlns="http://www.w3.org/2000/svg">
<path fill-rule="evenodd" clip-rule="evenodd" d="M75.841 8.29212C76.7687 8.29212 77.6269 8.49324 78.4197 8.89142C79.2083 9.2896 79.8908 9.86879 80.4628 10.6249C81.0348 11.3811 81.4846 12.3021 81.8114 13.3962C82.1382 14.4901 82.3018 15.7289 82.3018 17.1166C82.3018 18.4157 82.1138 19.6143 81.7418 20.7123C81.3699 21.8103 80.8468 22.7676 80.1766 23.576C79.5065 24.3845 78.7055 25.02 77.7698 25.4745C76.8383 25.929 75.8041 26.1582 74.6684 26.1582C73.7406 26.1582 72.9599 26.0295 72.3307 25.7761C71.7016 25.5227 71.1292 25.1768 70.6144 24.7424V31.3708H65.2896V8.62998H68.7509C69.0127 8.65412 69.2372 8.72652 69.4211 8.84716C69.646 8.99198 69.8013 9.20916 69.8953 9.49471L70.2917 10.7617L70.5531 10.4922C70.8186 10.2308 71.1006 9.9854 71.3988 9.76018C71.7956 9.45853 72.2164 9.20111 72.6699 8.98796C73.1235 8.77074 73.6097 8.60181 74.1287 8.48117C74.6518 8.36049 75.2197 8.29614 75.8368 8.29614L75.841 8.29212ZM25.7449 8.36049C26.9258 8.36049 28.0046 8.53747 28.9813 8.89142C29.9621 9.24534 30.8039 9.7642 31.5068 10.4399C32.2097 11.1156 32.7613 11.9482 33.1577 12.9296C33.5541 13.911 33.7503 15.0251 33.7503 16.2679C33.7503 16.6581 33.7339 16.9718 33.6971 17.2171C33.6644 17.4625 33.599 17.6555 33.5092 17.8003C33.4192 17.9451 33.2926 18.0457 33.1414 18.102C32.9902 18.1583 32.7899 18.1864 32.5488 18.1864H22.2754L22.3122 18.468C22.5083 19.7671 22.9456 20.7163 23.6321 21.3237C24.3636 21.9712 25.3117 22.297 26.4681 22.297C27.0852 22.297 27.6205 22.2246 28.0659 22.0798C28.5114 21.9351 28.9119 21.7741 29.2592 21.5972C29.6065 21.4202 29.9294 21.2593 30.2195 21.1145C30.5097 20.9697 30.8162 20.8973 31.139 20.8973C31.564 20.8973 31.8827 21.0461 32.0993 21.3478L33.644 23.198L33.407 23.4514C32.9248 23.9461 32.414 24.3604 31.8664 24.6861C31.2289 25.0682 30.5791 25.3699 29.9089 25.5871C29.2388 25.8043 28.5686 25.9531 27.8984 26.0375C27.2282 26.122 26.5907 26.1622 25.9818 26.1622C24.7355 26.1622 23.5626 25.9651 22.4675 25.571C21.3723 25.1768 20.4161 24.5896 19.5988 23.8134C18.7815 23.0371 18.1317 22.0718 17.6577 20.9174C17.1837 19.7631 16.9467 18.4197 16.9467 16.8873C16.9467 15.733 17.151 14.639 17.5555 13.6053C17.9601 12.5716 18.5445 11.6667 19.3086 10.8904C20.0687 10.1141 20.9923 9.49873 22.0752 9.04023C23.1581 8.58575 24.3799 8.35646 25.7449 8.35646V8.36049ZM54.2276 8.36049C55.4088 8.36049 56.4873 8.53747 57.464 8.89142C58.4448 9.24534 59.2868 9.7642 59.9897 10.4399C60.6925 11.1156 61.2442 11.9482 61.6406 12.9296C62.037 13.911 62.2329 15.0251 62.2329 16.2679C62.2329 16.6581 62.2167 16.9718 62.1799 17.2171C62.1472 17.4625 62.0817 17.6555 61.9919 17.8003C61.902 17.9451 61.7752 18.0457 61.6241 18.102C61.4688 18.1583 61.2728 18.1864 61.0318 18.1864H50.7583L50.7948 18.468C50.9911 19.7671 51.4285 20.7163 52.1148 21.3237C52.8463 21.9712 53.7943 22.297 54.9511 22.297C55.5679 22.297 56.1034 22.2246 56.5486 22.0798C56.9943 21.9351 57.3948 21.7741 57.7419 21.5972C58.0894 21.4202 58.4121 21.2593 58.7024 21.1145C58.9923 20.9697 59.2988 20.8973 59.6219 20.8973C60.0468 20.8973 60.3654 21.0461 60.582 21.3478L62.1269 23.198L61.8899 23.4514C61.4075 23.9461 60.8967 24.3604 60.3492 24.6861C59.7118 25.0682 59.0619 25.3699 58.3918 25.5871C57.7216 25.8043 57.0515 25.9531 56.3813 26.0375C55.7111 26.122 55.0737 26.1622 54.4645 26.1622C53.2182 26.1622 52.0456 25.9651 50.9501 25.571C49.855 25.1768 48.8987 24.5896 48.0815 23.8134C47.2643 23.0371 46.6144 22.0718 46.1406 20.9174C45.6664 19.7631 45.4294 18.4197 45.4294 16.8873C45.4294 15.733 45.6336 14.639 46.0383 13.6053C46.4429 12.5716 47.0273 11.6667 47.7915 10.8904C48.5516 10.1141 49.4752 9.49873 50.5579 9.04023C51.641 8.58575 52.8628 8.35646 54.2276 8.35646V8.36049ZM93.0859 8.36049C94.4387 8.36049 95.6688 8.56563 96.7801 8.97589C97.8917 9.38614 98.8439 9.97337 99.6408 10.7416C100.438 11.5058 101.054 12.4389 101.496 13.5289C101.937 14.6229 102.158 15.8496 102.158 17.2171C102.158 18.5846 101.937 19.8355 101.496 20.9376C101.054 22.0436 100.438 22.9808 99.6408 23.753C98.8439 24.5253 97.8917 25.1165 96.7801 25.5348C95.6688 25.9491 94.4387 26.1582 93.0859 26.1582C91.7332 26.1582 90.4828 25.9491 89.3674 25.5348C88.2516 25.1205 87.2873 24.5253 86.4822 23.753C85.6733 22.9808 85.052 22.0436 84.6105 20.9376C84.1694 19.8315 83.9486 18.5927 83.9486 17.2171C83.9486 15.8416 84.1694 14.6229 84.6105 13.5289C85.052 12.4349 85.677 11.5058 86.4822 10.7416C87.2873 9.97739 88.2516 9.38614 89.3674 8.97589C90.4828 8.56563 91.7253 8.36049 93.0859 8.36049ZM125.623 3.61443V8.65815H129.95V12.1895H125.623V20.7646L125.631 20.9335C125.655 21.2593 125.754 21.5328 125.925 21.7581C126.125 22.0195 126.415 22.1482 126.791 22.1482C126.987 22.1482 127.151 22.1281 127.282 22.0919C127.412 22.0557 127.527 22.0074 127.625 21.9592C127.723 21.9109 127.813 21.8666 127.899 21.8264C127.985 21.7862 128.087 21.7701 128.201 21.7701C128.36 21.7701 128.491 21.8063 128.589 21.8787C128.688 21.9511 128.785 22.0637 128.892 22.2206L130.506 24.67L130.245 24.851C129.623 25.2613 128.937 25.575 128.189 25.7922C127.331 26.0416 126.444 26.1663 125.524 26.1663C124.679 26.1663 123.931 26.0456 123.281 25.8083C122.636 25.571 122.092 25.2291 121.651 24.7907C121.209 24.3523 120.874 23.8214 120.645 23.202C120.416 22.5786 120.302 21.8868 120.302 21.1226V12.1976H118.79L118.655 12.1895C118.439 12.1654 118.246 12.0809 118.083 11.9402C117.887 11.7672 117.793 11.5138 117.793 11.184V9.16892L120.629 8.63803L121.675 4.42689L121.716 4.2982C121.879 3.85173 122.255 3.6265 122.844 3.6265H125.627L125.623 3.61443ZM19.8971 1.63557V6.09607H12.852V25.8928H7.04508V6.09607H0V1.63557H19.8971ZM42.3073 0.967905V25.8928H36.9827V0.967905H42.3073ZM114.94 8.29614C115.754 8.29614 116.407 8.48519 116.898 8.86325L116.212 12.6601L116.179 12.7928C116.125 12.9577 116.048 13.0784 115.938 13.1508C115.799 13.2433 115.619 13.2916 115.386 13.2916C115.19 13.2916 114.961 13.2674 114.699 13.2152C114.438 13.1669 114.103 13.1387 113.702 13.1387C112.305 13.1387 111.205 13.8587 110.405 15.3026V25.8928H105.08V8.62998H108.431C108.61 8.64205 108.77 8.66217 108.901 8.69835C109.076 8.74261 109.228 8.81098 109.346 8.90752C109.464 8.99999 109.558 9.12872 109.62 9.28156C109.681 9.43841 109.738 9.62746 109.783 9.84867L110.073 11.4655L110.294 11.1478C110.891 10.3192 111.549 9.65559 112.272 9.15286C113.085 8.58575 113.972 8.30419 114.936 8.30419L114.94 8.29614ZM73.9858 12.2418C73.5977 12.2418 73.2461 12.278 72.9276 12.3504C72.6128 12.4228 72.3183 12.5233 72.0528 12.6601C71.7832 12.7928 71.5338 12.9618 71.3052 13.1669C71.0762 13.372 70.8475 13.6093 70.6185 13.8748V21.203L70.7941 21.38C71.1457 21.7178 71.5214 21.9632 71.9261 22.108C72.3962 22.2809 72.8866 22.3654 73.4055 22.3654C73.9245 22.3654 74.3495 22.2729 74.762 22.0839C75.1749 21.8948 75.5303 21.5932 75.8368 21.1749C76.1392 20.7606 76.3765 20.2176 76.548 19.55C76.7195 18.8823 76.8056 18.0738 76.8056 17.1206C76.8056 16.1674 76.736 15.4434 76.601 14.824C76.4622 14.2006 76.27 13.7018 76.0248 13.3157C75.7797 12.9336 75.4856 12.6561 75.1381 12.4912C74.7947 12.3263 74.4108 12.2418 73.9858 12.2418ZM93.0901 12.1935C91.8314 12.1935 90.9078 12.6078 90.3233 13.4404C89.7393 14.273 89.449 15.544 89.449 17.2533C89.449 18.9627 89.7393 20.2377 90.3233 21.0743C90.9078 21.9109 91.8314 22.3332 93.0901 22.3332C94.3488 22.3332 95.219 21.9149 95.7951 21.0743C96.3754 20.2377 96.6616 18.9627 96.6616 17.2533C96.6616 15.544 96.3717 14.273 95.7951 13.4404C95.2149 12.6078 94.3161 12.1935 93.0901 12.1935ZM25.8511 11.9241C24.8336 11.9241 24.0367 12.2056 23.4646 12.7647C22.8925 13.3238 22.5124 14.1322 22.3326 15.186H28.9813C28.9813 14.7757 28.9282 14.3775 28.8179 13.9874C28.7075 13.5972 28.5318 13.2514 28.2866 12.9457C28.0414 12.64 27.7186 12.3946 27.314 12.2056C26.9136 12.0166 26.4273 11.9241 25.8552 11.9241H25.8511ZM54.334 11.9241C53.3163 11.9241 52.5194 12.2056 51.9474 12.7647C51.3751 13.3238 50.9952 14.1322 50.8155 15.186H57.464C57.464 14.7757 57.411 14.3775 57.3008 13.9874C57.1902 13.5972 57.0146 13.2514 56.7694 12.9457C56.5242 12.64 56.2015 12.3946 55.7969 12.2056C55.3964 12.0166 54.9101 11.9241 54.3381 11.9241H54.334Z" fill="#512FC9"/>
<path d="M82.8558 36.0894C82.8949 36.0894 82.934 36.0976 82.9731 36.1139C83.0122 36.1269 83.0498 36.1514 83.0859 36.1873L83.7414 36.8773C83.4545 37.2525 83.0938 37.5365 82.6598 37.729C82.2292 37.9182 81.7185 38.0126 81.1281 38.0126C80.5866 38.0126 80.1003 37.9216 79.6697 37.7388C79.2425 37.5526 78.8785 37.2982 78.5784 36.9752C78.2816 36.649 78.053 36.264 77.8932 35.8202C77.7333 35.3733 77.6536 34.8888 77.6536 34.3667C77.6536 33.8349 77.7446 33.3471 77.9274 32.9034C78.1102 32.4564 78.3648 32.0714 78.6908 31.7484C79.0206 31.4254 79.4136 31.1742 79.8705 30.9948C80.3271 30.8153 80.8314 30.7256 81.3827 30.7256C81.6501 30.7256 81.9013 30.7501 82.1363 30.799C82.3744 30.8447 82.5963 30.91 82.802 30.9948C83.0073 31.0763 83.1969 31.1758 83.3695 31.2933C83.5425 31.4075 83.6959 31.5348 83.8298 31.675L83.2717 32.4238C83.236 32.4695 83.1935 32.5119 83.1446 32.551C83.0957 32.587 83.0269 32.6049 82.9389 32.6049C82.8802 32.6049 82.8249 32.5918 82.7727 32.5658C82.7204 32.5397 82.6647 32.5087 82.606 32.4727C82.5474 32.4336 82.4823 32.3928 82.4105 32.3504C82.342 32.3047 82.2586 32.264 82.1608 32.2281C82.066 32.1889 81.9536 32.1563 81.8231 32.1302C81.696 32.1041 81.5459 32.091 81.3729 32.091C81.0728 32.091 80.7987 32.1449 80.5508 32.2525C80.3026 32.3569 80.089 32.5087 79.9096 32.7077C79.7333 32.9034 79.5949 33.1416 79.4937 33.4222C79.3956 33.7028 79.3467 34.0176 79.3467 34.3667C79.3467 34.7321 79.3956 35.0568 79.4937 35.3406C79.5949 35.6245 79.7303 35.8643 79.8999 36.06C80.0729 36.2525 80.2733 36.3994 80.5016 36.5005C80.7302 36.6016 80.9747 36.6522 81.2357 36.6522C81.3861 36.6522 81.523 36.6457 81.6471 36.6326C81.7708 36.6163 81.8851 36.5902 81.9897 36.5543C82.0972 36.5185 82.1984 36.4728 82.2928 36.4173C82.3909 36.3586 82.4887 36.2868 82.5865 36.202C82.6256 36.1694 82.6681 36.1433 82.714 36.1237C82.7595 36.1008 82.8069 36.0894 82.8558 36.0894ZM86.783 32.7811C87.1678 32.7811 87.5186 32.8414 87.8353 32.9622C88.1516 33.0829 88.4223 33.2558 88.6476 33.4809C88.8759 33.706 89.0522 33.9801 89.176 34.3031C89.3035 34.6228 89.367 34.9834 89.367 35.3847C89.367 35.7893 89.3035 36.1546 89.176 36.4809C89.0522 36.8039 88.8759 37.0796 88.6476 37.308C88.4223 37.5331 88.1516 37.7076 87.8353 37.8317C87.5186 37.9524 87.1678 38.0126 86.783 38.0126C86.3946 38.0126 86.0407 37.9524 85.721 37.8317C85.4044 37.7076 85.1302 37.5331 84.8986 37.308C84.6703 37.0796 84.4924 36.8039 84.3653 36.4809C84.2412 36.1546 84.1791 35.7893 84.1791 35.3847C84.1791 34.9834 84.2412 34.6228 84.3653 34.3031C84.4924 33.9801 84.6703 33.706 84.8986 33.4809C85.1302 33.2558 85.4044 33.0829 85.721 32.9622C86.0407 32.8414 86.3946 32.7811 86.783 32.7811ZM86.783 36.8871C87.132 36.8871 87.3881 36.7648 87.5514 36.5201C87.7176 36.2721 87.8007 35.8969 87.8007 35.3945C87.8007 34.892 87.7176 34.5184 87.5514 34.2737C87.3881 34.029 87.132 33.9067 86.783 33.9067C86.4239 33.9067 86.1614 34.029 85.9948 34.2737C85.8286 34.5184 85.7455 34.892 85.7455 35.3945C85.7455 35.8969 85.8286 36.2721 85.9948 36.5201C86.1614 36.7648 86.4239 36.8871 86.783 36.8871ZM90.2241 37.9344V32.8594H91.1639C91.2583 32.8594 91.3369 32.8806 91.3985 32.923C91.464 32.9654 91.5095 33.029 91.5358 33.1139L91.6189 33.3879C91.7039 33.2998 91.7919 33.2199 91.8833 33.1481C91.9747 33.0731 92.0724 33.0095 92.177 32.9573C92.2845 32.9018 92.3989 32.8594 92.5196 32.83C92.6433 32.7974 92.7787 32.7811 92.9257 32.7811C93.2322 32.7811 93.4853 32.861 93.6843 33.0209C93.8866 33.1775 94.0397 33.3879 94.1442 33.6522C94.2292 33.4956 94.3319 33.3618 94.4526 33.2509C94.5767 33.14 94.7087 33.0502 94.849 32.9817C94.9926 32.9132 95.1427 32.8627 95.2991 32.83C95.4589 32.7974 95.6173 32.7811 95.7741 32.7811C96.0644 32.7811 96.322 32.8251 96.5473 32.9132C96.7722 32.998 96.9598 33.1237 97.1099 33.2901C97.2633 33.4532 97.3792 33.6555 97.4574 33.8969C97.5356 34.1351 97.5751 34.4059 97.5751 34.7093V37.9344H96.0576V34.7093C96.0576 34.184 95.8328 33.9214 95.3822 33.9214C95.1769 33.9214 95.0054 33.9899 94.8685 34.1269C94.7346 34.2607 94.6677 34.4548 94.6677 34.7093V37.9344H93.1506V34.7093C93.1506 34.4189 93.0935 34.215 92.9795 34.0976C92.8652 33.9801 92.6971 33.9214 92.4752 33.9214C92.3383 33.9214 92.2078 33.9524 92.0837 34.0144C91.963 34.0763 91.8491 34.1596 91.7411 34.264V37.9344H90.2241ZM98.6792 37.9344V32.8594H99.619C99.7134 32.8594 99.7916 32.8806 99.8537 32.923C99.9191 32.9654 99.9646 33.029 99.9909 33.1139L100.074 33.3879C100.159 33.2998 100.247 33.2199 100.338 33.1481C100.43 33.0731 100.528 33.0095 100.632 32.9573C100.74 32.9018 100.854 32.8594 100.974 32.83C101.098 32.7974 101.234 32.7811 101.381 32.7811C101.687 32.7811 101.94 32.861 102.139 33.0209C102.342 33.1775 102.495 33.3879 102.599 33.6522C102.684 33.4956 102.787 33.3618 102.908 33.2509C103.031 33.14 103.164 33.0502 103.304 32.9817C103.448 32.9132 103.598 32.8627 103.754 32.83C103.914 32.7974 104.072 32.7811 104.229 32.7811C104.52 32.7811 104.777 32.8251 105.002 32.9132C105.227 32.998 105.415 33.1237 105.565 33.2901C105.718 33.4532 105.834 33.6555 105.913 33.8969C105.991 34.1351 106.03 34.4059 106.03 34.7093V37.9344H104.513V34.7093C104.513 34.184 104.288 33.9214 103.837 33.9214C103.632 33.9214 103.461 33.9899 103.324 34.1269C103.19 34.2607 103.123 34.4548 103.123 34.7093V37.9344H101.606V34.7093C101.606 34.4189 101.549 34.215 101.435 34.0976C101.32 33.9801 101.152 33.9214 100.93 33.9214C100.793 33.9214 100.663 33.9524 100.539 34.0144C100.418 34.0763 100.304 34.1596 100.196 34.264V37.9344H98.6792ZM108.554 32.8594V36.0796C108.554 36.3308 108.611 36.525 108.725 36.662C108.839 36.799 109.007 36.8676 109.229 36.8676C109.395 36.8676 109.55 36.8333 109.694 36.7648C109.841 36.6963 109.983 36.6 110.12 36.476V32.8594H111.637V37.9344H110.697C110.508 37.9344 110.384 37.8497 110.325 37.6801L110.232 37.3863C110.134 37.4809 110.033 37.5673 109.929 37.6455C109.824 37.7207 109.712 37.7858 109.591 37.8415C109.474 37.8937 109.346 37.9344 109.21 37.9637C109.072 37.9964 108.922 38.0126 108.759 38.0126C108.482 38.0126 108.235 37.9656 108.02 37.8708C107.808 37.773 107.629 37.6376 107.482 37.4646C107.335 37.2917 107.224 37.0878 107.149 36.8529C107.074 36.618 107.037 36.3602 107.037 36.0796V32.8594H108.554ZM112.837 37.9344V32.8594H113.776C113.871 32.8594 113.949 32.8806 114.011 32.923C114.076 32.9654 114.122 33.029 114.148 33.1139L114.236 33.4075C114.334 33.3162 114.435 33.2313 114.54 33.153C114.644 33.0747 114.755 33.0095 114.872 32.9573C114.993 32.9018 115.122 32.8594 115.259 32.83C115.399 32.7974 115.551 32.7811 115.714 32.7811C115.992 32.7811 116.236 32.83 116.448 32.9279C116.664 33.0225 116.845 33.1563 116.991 33.3292C117.139 33.4988 117.249 33.7028 117.324 33.941C117.4 34.1759 117.437 34.432 117.437 34.7093V37.9344H115.92V34.7093C115.92 34.4614 115.863 34.2689 115.749 34.1318C115.634 33.9915 115.466 33.9214 115.244 33.9214C115.078 33.9214 114.921 33.9573 114.775 34.029C114.628 34.1008 114.488 34.1971 114.354 34.3178V37.9344H112.837ZM120.105 32.8594V37.9344H118.588V32.8594H120.105ZM120.281 31.4695C120.281 31.5902 120.257 31.7044 120.208 31.8121C120.159 31.9165 120.092 32.0095 120.007 32.091C119.922 32.1693 119.823 32.233 119.709 32.2819C119.598 32.3276 119.478 32.3504 119.351 32.3504C119.227 32.3504 119.111 32.3276 119.004 32.2819C118.896 32.233 118.8 32.1693 118.715 32.091C118.633 32.0095 118.568 31.9165 118.519 31.8121C118.474 31.7044 118.451 31.5902 118.451 31.4695C118.451 31.3455 118.474 31.2297 118.519 31.122C118.568 31.0144 118.633 30.9197 118.715 30.8382C118.8 30.7566 118.896 30.693 119.004 30.6473C119.111 30.6016 119.227 30.5788 119.351 30.5788C119.478 30.5788 119.598 30.6016 119.709 30.6473C119.823 30.693 119.922 30.7566 120.007 30.8382C120.092 30.9197 120.159 31.0144 120.208 31.122C120.257 31.2297 120.281 31.3455 120.281 31.4695ZM123.136 38.0126C122.894 38.0126 122.681 37.9784 122.495 37.9099C122.312 37.8381 122.157 37.7388 122.03 37.6113C121.906 37.4809 121.811 37.3243 121.746 37.1416C121.681 36.9589 121.648 36.755 121.648 36.5299V33.9067H121.217C121.139 33.9067 121.072 33.8822 121.017 33.8333C120.961 33.7811 120.933 33.706 120.933 33.6082V33.016L121.741 32.8594L122.039 31.6212C122.079 31.4646 122.189 31.3863 122.372 31.3863H123.165V32.8692H124.399V33.9067H123.165V36.4271C123.165 36.5446 123.193 36.6424 123.249 36.7207C123.307 36.7958 123.39 36.8333 123.498 36.8333C123.553 36.8333 123.599 36.8284 123.635 36.8186C123.674 36.8055 123.707 36.7925 123.733 36.7794C123.762 36.7631 123.788 36.7501 123.811 36.7403C123.837 36.7272 123.867 36.7207 123.899 36.7207C123.945 36.7207 123.981 36.7321 124.007 36.755C124.036 36.7746 124.066 36.8072 124.095 36.8529L124.555 37.5722C124.359 37.7192 124.139 37.8302 123.894 37.905C123.65 37.9769 123.397 38.0126 123.136 38.0126ZM127.373 39.251C127.327 39.3521 127.272 39.4255 127.207 39.471C127.141 39.5202 127.037 39.5447 126.893 39.5447H125.758L126.737 37.4891L124.711 32.8594H126.051C126.169 32.8594 126.26 32.8855 126.326 32.9377C126.391 32.9899 126.436 33.0519 126.463 33.1236L127.295 35.3113C127.373 35.5136 127.436 35.7158 127.485 35.9181C127.518 35.8137 127.554 35.7109 127.593 35.6098C127.632 35.5086 127.67 35.4059 127.706 35.3015L128.459 33.1236C128.486 33.0486 128.536 32.9866 128.611 32.9377C128.689 32.8855 128.773 32.8594 128.861 32.8594H130.084L127.373 39.251Z" fill="#512FC9"/>
</svg>
