<svg width="141" height="30" viewBox="0 0 141 30" fill="none" xmlns="http://www.w3.org/2000/svg">
<path fill-rule="evenodd" clip-rule="evenodd" d="M17.5971 0.286145C17.8237 0.312012 18.0176 0.486609 18.0898 0.693539L18.1095 0.771138L18.8487 4.51851C19.8408 4.8968 20.777 5.4012 21.6213 6.02199L21.9333 6.26125L25.6651 5.00027C25.9082 4.8968 26.1645 4.97117 26.3452 5.1781C27.6296 6.59751 28.671 8.31115 29.2787 10.1121C29.374 10.319 29.3247 10.5615 29.1637 10.7167L29.098 10.7717L26.1349 13.2613C26.24 13.8174 26.2696 14.4188 26.2696 15.004C26.2696 15.4761 26.2499 15.9514 26.1875 16.4105L26.1316 16.75L29.0947 19.2396C29.305 19.3851 29.3805 19.6632 29.2754 19.8992C28.671 21.7002 27.6296 23.4138 26.3452 24.8332C26.1842 25.0143 25.9608 25.0951 25.744 25.0369L25.6619 25.0078L21.93 23.7468C21.1121 24.3967 20.1955 24.9334 19.2199 25.3408L18.8487 25.4863L18.1063 29.2369C18.0603 29.473 17.85 29.6896 17.5905 29.7219C16.6247 29.8965 15.6556 30 14.6602 30C13.6649 30 12.6958 29.8965 11.7267 29.7219C11.5 29.6961 11.3062 29.5182 11.2339 29.3145L11.2142 29.2369L10.4751 25.4863C9.46986 25.1048 8.49748 24.594 7.66308 23.9602L7.39042 23.7436L3.65861 25.0046C3.41551 25.108 3.15928 25.0337 2.9786 24.8267C1.69415 23.4073 0.652788 21.6937 0.0483391 19.8928C-0.0469273 19.6858 0.00234838 19.4401 0.163316 19.2881L0.229017 19.2364L3.18885 16.7468C3.08372 16.1907 3.05416 15.5925 3.05416 15.004C3.05416 14.5352 3.07387 14.0567 3.13628 13.6008L3.19213 13.2613L0.232302 10.7717C0.0220587 10.6229 -0.0567825 10.3481 0.0516241 10.1121C0.656073 8.31115 1.69743 6.59751 2.98189 5.1781C3.14285 4.99704 3.36624 4.91944 3.58305 4.9744L3.66518 5.00027L7.39699 6.26125C8.19854 5.60166 9.14792 5.0617 10.1466 4.65108L10.4817 4.51851L11.2208 0.771138C11.2668 0.535108 11.477 0.315245 11.7365 0.286145C13.6714 -0.0953818 15.6655 -0.0953818 17.6004 0.286145H17.5971ZM97.0558 10.332C97.8015 10.332 98.4914 10.4936 99.1287 10.8137C99.7627 11.1338 100.311 11.5994 100.771 12.2073C101.231 12.8151 101.592 13.5555 101.855 14.435C102.118 15.3144 102.249 16.3103 102.249 17.4258C102.249 18.4701 102.098 19.4336 101.799 20.3163C101.5 21.199 101.08 21.9685 100.541 22.6184C100.003 23.2683 99.3586 23.7792 98.6064 24.1445C97.8574 24.5099 97.0263 24.6942 96.113 24.6942C95.3673 24.6942 94.7399 24.5907 94.234 24.387C93.7281 24.1833 93.2682 23.9053 92.8542 23.5561V28.8845H88.5738V10.6035H91.3563C91.5665 10.6229 91.7472 10.6811 91.895 10.7781C92.0757 10.8945 92.2005 11.0691 92.2761 11.2987L92.5947 12.3172L92.805 12.1006C93.0185 11.8904 93.2452 11.6932 93.485 11.5121C93.8036 11.2696 94.142 11.0627 94.5066 10.8913C94.8713 10.7167 95.2622 10.5809 95.6794 10.4839C96.0999 10.3869 96.5565 10.3352 97.0525 10.3352L97.0558 10.332ZM56.7844 10.3869C57.7338 10.3869 58.601 10.5292 59.3862 10.8137C60.1746 11.0982 60.8513 11.5153 61.4163 12.0585C61.9814 12.6017 62.4248 13.271 62.7435 14.0599C63.0621 14.8488 63.2198 15.7445 63.2198 16.7435C63.2198 17.0572 63.2067 17.3094 63.1771 17.5066C63.1508 17.7038 63.0983 17.859 63.026 17.9754C62.9537 18.0918 62.8519 18.1727 62.7303 18.2179C62.6088 18.2632 62.4478 18.2858 62.254 18.2858H53.9954L54.025 18.5122C54.1827 19.5565 54.5342 20.3196 55.086 20.8078C55.6741 21.3283 56.4362 21.5902 57.3659 21.5902C57.8619 21.5902 58.2922 21.532 58.6503 21.4156C59.0084 21.2992 59.3303 21.1699 59.6096 21.0276C59.8888 20.8854 60.1483 20.7561 60.3815 20.6397C60.6148 20.5233 60.8612 20.4651 61.1207 20.4651C61.4623 20.4651 61.7186 20.5847 61.8927 20.8272L63.1344 22.3145L62.9439 22.5182C62.5562 22.9159 62.1456 23.2489 61.7054 23.5108C61.1929 23.818 60.6706 24.0605 60.1319 24.2351C59.5931 24.4097 59.0544 24.5293 58.5156 24.5972C57.9769 24.6651 57.4644 24.6974 56.9749 24.6974C55.973 24.6974 55.0302 24.539 54.1498 24.2221C53.2694 23.9053 52.5007 23.4332 51.8437 22.8092C51.1867 22.1852 50.6644 21.4092 50.2833 20.4812C49.9022 19.5533 49.7117 18.4734 49.7117 17.2415C49.7117 16.3135 49.876 15.4341 50.2012 14.6031C50.5264 13.7722 50.9962 13.0447 51.6105 12.4207C52.2215 11.7966 52.9639 11.3019 53.8344 10.9333C54.705 10.568 55.6872 10.3837 56.7844 10.3837V10.3869ZM79.6812 10.3869C80.6306 10.3869 81.4978 10.5292 82.283 10.8137C83.0714 11.0982 83.7481 11.5153 84.3131 12.0585C84.8781 12.6017 85.3216 13.271 85.6403 14.0599C85.9589 14.8488 86.1166 15.7445 86.1166 16.7435C86.1166 17.0572 86.1035 17.3094 86.0739 17.5066C86.0476 17.7038 85.9951 17.859 85.9228 17.9754C85.8505 18.0918 85.7487 18.1727 85.6271 18.2179C85.5023 18.2632 85.3446 18.2858 85.1508 18.2858H76.8922L76.9218 18.5122C77.0794 19.5565 77.4309 20.3196 77.9828 20.8078C78.5709 21.3283 79.333 21.5902 80.2627 21.5902C80.7587 21.5902 81.189 21.532 81.5471 21.4156C81.9052 21.2992 82.2271 21.1699 82.5063 21.0276C82.7856 20.8854 83.0451 20.7561 83.2783 20.6397C83.5116 20.5233 83.7579 20.4651 84.0175 20.4651C84.3591 20.4651 84.6153 20.5847 84.7895 20.8272L86.0312 22.3145L85.8407 22.5182C85.453 22.9159 85.0424 23.2489 84.6022 23.5108C84.0897 23.818 83.5674 24.0605 83.0287 24.2351C82.4899 24.4097 81.9512 24.5293 81.4124 24.5972C80.8737 24.6651 80.3612 24.6974 79.8717 24.6974C78.8698 24.6974 77.927 24.539 77.0466 24.2221C76.1662 23.9053 75.3975 23.4332 74.7405 22.8092C74.0835 22.1852 73.5612 21.4092 73.1801 20.4812C72.799 19.5533 72.6085 18.4734 72.6085 17.2415C72.6085 16.3135 72.7727 15.4341 73.098 14.6031C73.4232 13.7722 73.8929 13.0447 74.5072 12.4207C75.1183 11.7966 75.8607 11.3019 76.7312 10.9333C77.6018 10.568 78.584 10.3837 79.6812 10.3837V10.3869ZM110.919 10.3869C112.006 10.3869 112.995 10.5518 113.888 10.8816C114.782 11.2114 115.547 11.6835 116.188 12.301C116.829 12.9153 117.325 13.6655 117.679 14.5417C118.034 15.4211 118.212 16.4073 118.212 17.5066C118.212 18.6059 118.034 19.6115 117.679 20.4974C117.325 21.3865 116.829 22.1399 116.188 22.7607C115.547 23.3815 114.782 23.8568 113.888 24.193C112.995 24.5261 112.006 24.6942 110.919 24.6942C109.831 24.6942 108.826 24.5261 107.929 24.193C107.033 23.86 106.257 23.3815 105.61 22.7607C104.96 22.1399 104.46 21.3865 104.106 20.4974C103.751 19.6082 103.573 18.6124 103.573 17.5066C103.573 16.4008 103.751 15.4211 104.106 14.5417C104.46 13.6622 104.963 12.9153 105.61 12.301C106.257 11.6867 107.033 11.2114 107.929 10.8816C108.826 10.5518 109.825 10.3869 110.919 10.3869V10.3869ZM137.074 6.57164V10.6262H140.553V13.465H137.074V20.3584L137.081 20.4942C137.101 20.7561 137.179 20.9759 137.317 21.157C137.478 21.3671 137.712 21.4706 138.014 21.4706C138.171 21.4706 138.303 21.4544 138.408 21.4253C138.513 21.3962 138.605 21.3574 138.684 21.3186C138.763 21.2798 138.835 21.2443 138.904 21.2119C138.973 21.1796 139.055 21.1667 139.147 21.1667C139.275 21.1667 139.38 21.1958 139.459 21.254C139.538 21.3122 139.617 21.4027 139.702 21.5288L141 23.4979L140.79 23.6434C140.29 23.9732 139.738 24.2254 139.137 24.4C138.447 24.6004 137.735 24.7007 136.995 24.7007C136.315 24.7007 135.714 24.6037 135.192 24.4129C134.673 24.2221 134.236 23.9473 133.881 23.5949C133.526 23.2424 133.257 22.8156 133.073 22.3177C132.889 21.8166 132.797 21.2604 132.797 20.6461V13.4715H131.582L131.473 13.465C131.299 13.4456 131.145 13.3777 131.013 13.2645C130.856 13.1255 130.78 12.9218 130.78 12.6567V11.0368L133.06 10.61L133.901 7.22477L133.934 7.1213C134.065 6.76241 134.367 6.58134 134.84 6.58134H137.078L137.074 6.57164ZM52.0835 4.98087V8.56658H46.4201V24.4808H41.752V8.56658H36.0886V4.98087H52.0802H52.0835ZM70.0987 4.44415V24.4808H65.8183V4.44415H70.0987ZM128.487 10.3352C129.141 10.3352 129.667 10.4871 130.061 10.7911L129.509 13.8433L129.483 13.95C129.44 14.0826 129.377 14.1796 129.289 14.2378C129.177 14.3121 129.032 14.3509 128.845 14.3509C128.688 14.3509 128.504 14.3315 128.293 14.2895C128.083 14.2507 127.814 14.2281 127.492 14.2281C126.368 14.2281 125.485 14.8068 124.841 15.9676V24.4808H120.56V10.6035H123.254C123.399 10.6132 123.527 10.6294 123.632 10.6585C123.773 10.6941 123.895 10.749 123.99 10.8266C124.085 10.901 124.161 11.0045 124.21 11.1273C124.259 11.2534 124.305 11.4054 124.341 11.5832L124.575 12.883L124.752 12.6276C125.232 11.9615 125.761 11.428 126.342 11.0239C126.996 10.568 127.709 10.3417 128.484 10.3417L128.487 10.3352ZM14.6635 6.22245C9.74252 6.22245 5.75447 10.1509 5.75447 14.9976C5.75447 19.8443 9.74252 23.7727 14.6635 23.7727C19.5845 23.7727 23.5726 19.8443 23.5726 14.9976C23.5726 10.1509 19.5845 6.22245 14.6635 6.22245V6.22245ZM95.5644 13.507C95.2523 13.507 94.9698 13.5361 94.7136 13.5943C94.4606 13.6525 94.2241 13.7334 94.0106 13.8433C93.7938 13.95 93.5934 14.0858 93.4094 14.2507C93.2255 14.4156 93.0415 14.6063 92.8575 14.8197V20.7108L92.9988 20.853C93.2813 21.1246 93.5835 21.3219 93.9087 21.4383C94.2865 21.5773 94.6807 21.6452 95.0979 21.6452C95.5151 21.6452 95.8568 21.5708 96.1886 21.4189C96.5204 21.2669 96.8062 21.0244 97.0525 20.6882C97.2956 20.3551 97.4862 19.9186 97.6241 19.3819C97.7621 18.8452 97.8311 18.1953 97.8311 17.429C97.8311 16.6627 97.7752 16.0807 97.6668 15.5828C97.5551 15.0816 97.4008 14.6807 97.2037 14.3703C97.0066 14.0632 96.77 13.8401 96.4908 13.7075C96.2148 13.5749 95.9061 13.507 95.5644 13.507V13.507ZM110.922 13.4682C109.91 13.4682 109.168 13.8013 108.698 14.4706C108.228 15.1398 107.995 16.1616 107.995 17.5357C107.995 18.9098 108.228 19.9348 108.698 20.6073C109.168 21.2798 109.91 21.6193 110.922 21.6193C111.934 21.6193 112.634 21.2831 113.097 20.6073C113.563 19.9348 113.793 18.9098 113.793 17.5357C113.793 16.1616 113.56 15.1398 113.097 14.4706C112.63 13.8013 111.908 13.4682 110.922 13.4682ZM20.3039 11.1661V13.7786H16.0071V20.0512H13.3232V13.7786H9.02638V11.1661H20.3039ZM56.8698 13.2516C56.0518 13.2516 55.4113 13.4779 54.9514 13.9274C54.4914 14.3768 54.1859 15.0267 54.0414 15.8738H59.3862C59.3862 15.544 59.3435 15.2239 59.2548 14.9103C59.1661 14.5966 59.0248 14.3186 58.8277 14.0729C58.6306 13.8271 58.3711 13.6299 58.0459 13.4779C57.7239 13.326 57.333 13.2516 56.8731 13.2516H56.8698ZM79.7666 13.2516C78.9486 13.2516 78.308 13.4779 77.8481 13.9274C77.3882 14.3768 77.0827 15.0267 76.9382 15.8738H82.283C82.283 15.544 82.2403 15.2239 82.1516 14.9103C82.0629 14.5966 81.9216 14.3186 81.7245 14.0729C81.5274 13.8271 81.2679 13.6299 80.9427 13.4779C80.6207 13.326 80.2298 13.2516 79.7699 13.2516H79.7666Z" fill="#512FC9"/>
</svg>
