<?xml version="1.0" encoding="UTF-8"?>
<svg width="123px" height="127px" viewBox="0 0 123 127" version="1.1" xmlns="http://www.w3.org/2000/svg" xmlns:xlink="http://www.w3.org/1999/xlink">
    <!-- Generator: Sketch 55.2 (78181) - https://sketchapp.com -->
    <title>gravity-medallion</title>
    <desc>Created with Sketch.</desc>
    <defs>
        <linearGradient x1="50%" y1="0%" x2="50%" y2="100%" id="linearGradient-1">
            <stop stop-color="#1E2751" offset="0%"></stop>
            <stop stop-color="#0C143D" offset="100%"></stop>
        </linearGradient>
        <linearGradient x1="0%" y1="3.34960937%" x2="100%" y2="100%" id="linearGradient-2">
            <stop stop-color="#3849B5" offset="0%"></stop>
            <stop stop-color="#1A237E" offset="100%"></stop>
        </linearGradient>
        <circle id="path-3" cx="57.5" cy="57.5" r="57.5"></circle>
        <filter x="-7.0%" y="-7.0%" width="113.9%" height="117.4%" filterUnits="objectBoundingBox" id="filter-4">
            <feOffset dx="0" dy="4" in="SourceAlpha" result="shadowOffsetOuter1"></feOffset>
            <feGaussianBlur stdDeviation="2" in="shadowOffsetOuter1" result="shadowBlurOuter1"></feGaussianBlur>
            <feComposite in="shadowBlurOuter1" in2="SourceAlpha" operator="out" result="shadowBlurOuter1"></feComposite>
            <feColorMatrix values="0 0 0 0 0   0 0 0 0 0   0 0 0 0 0  0 0 0 0.24 0" type="matrix" in="shadowBlurOuter1" result="shadowMatrixOuter1"></feColorMatrix>
            <feOffset dx="0" dy="0" in="SourceAlpha" result="shadowOffsetOuter2"></feOffset>
            <feGaussianBlur stdDeviation="2" in="shadowOffsetOuter2" result="shadowBlurOuter2"></feGaussianBlur>
            <feComposite in="shadowBlurOuter2" in2="SourceAlpha" operator="out" result="shadowBlurOuter2"></feComposite>
            <feColorMatrix values="0 0 0 0 0   0 0 0 0 0   0 0 0 0 0  0 0 0 0.12 0" type="matrix" in="shadowBlurOuter2" result="shadowMatrixOuter2"></feColorMatrix>
            <feMerge>
                <feMergeNode in="shadowMatrixOuter1"></feMergeNode>
                <feMergeNode in="shadowMatrixOuter2"></feMergeNode>
            </feMerge>
        </filter>
        <linearGradient x1="50%" y1="-5.97116571%" x2="50%" y2="105.566406%" id="linearGradient-5">
            <stop stop-color="#4258B8" offset="0%"></stop>
            <stop stop-color="#1A2975" offset="100%"></stop>
        </linearGradient>
    </defs>
    <g id="Stickers" stroke="none" stroke-width="1" fill="none" fill-rule="evenodd">
        <g id="Custom-Preset" transform="translate(-839.000000, -147.000000)" fill-rule="nonzero">
            <g id="gravity-medallion" transform="translate(843.000000, 151.000000)">
                <g id="Oval">
                    <use fill="black" fill-opacity="1" filter="url(#filter-4)" xlink:href="#path-3"></use>
                    <circle stroke="url(#linearGradient-2)" stroke-width="2" stroke-linejoin="square" fill="url(#linearGradient-1)" fill-rule="evenodd" cx="57.5" cy="57.5" r="56.5"></circle>
                </g>
                <path d="M92.202989,67.7311731 L84.9540014,61.4243255 C85.2129706,60.0142227 85.2867315,58.4928673 85.2867315,57.008776 C85.2867315,55.5252248 85.2129706,54.003869 84.9540014,52.5937664 L92.202989,46.2863786 C92.7209275,45.9153558 92.9066746,45.2111146 92.6471669,44.617046 C91.1671115,40.0540595 88.6156445,35.7130386 85.4714018,32.1146033 C85.0283004,31.5950634 84.3994515,31.4092819 83.8072141,31.669592 L74.6716814,34.8597401 C72.4157944,33.004626 69.8632506,31.5210748 67.126575,30.4447307 L65.3148669,20.9477348 C65.2039566,20.3542063 64.6860181,19.797402 64.0566309,19.7234135 C59.3224994,18.7588622 54.4408472,18.7588622 49.7067157,19.7234135 C49.0778671,19.797402 48.5599285,20.3542063 48.4490185,20.9477348 L46.6367717,30.4452707 C43.9000959,31.5216149 41.2737917,33.0051661 39.0916655,34.8602801 L29.9561324,31.670132 C29.3644333,31.410362 28.7355848,31.5956034 28.2914066,32.1151434 C25.1477021,35.7135786 22.5956968,40.0545996 21.1161797,44.6175861 C20.8572104,45.2116546 21.0424192,45.9158959 21.5598195,46.2869187 L28.8088069,52.5943065 C28.5503759,54.003869 28.476077,55.5257646 28.476077,57.0093158 C28.476077,58.4934072 28.5498375,60.0142227 28.8088069,61.4248653 L21.5603579,67.7311731 C21.0429576,68.1021961 20.8577488,68.8069774 21.1167181,69.4005057 C22.5962352,73.9640324 25.1482405,78.3050535 28.291945,81.9034883 C28.7361231,82.4230287 29.3649717,82.6082696 29.9566709,82.3484999 L39.0922039,79.1578116 C41.2743301,81.0134658 43.9006343,82.497017 46.6373101,83.5728213 L48.4495569,93.0708974 C48.5604669,93.6644257 49.0778671,94.2212301 49.707254,94.2952187 C52.0740506,94.7402296 54.4408472,95 56.882481,95 C59.3230379,95 61.6909114,94.7407698 64.0571693,94.2952187 C64.6865562,94.2212301 65.204495,93.6644257 65.315405,93.0708974 L67.1276518,83.5728213 C69.8643275,82.497017 72.4163331,81.0134658 74.6727582,79.1578116 L83.808291,82.3484999 C84.4005284,82.6077301 85.0293772,82.4230287 85.4724786,81.9034883 C88.6167214,78.3050535 91.1681883,73.9640324 92.6482438,69.4005057 C92.9066746,68.8069774 92.7209275,68.1021961 92.202989,67.7311731 L92.202989,67.7311731 L92.202989,67.7311731 L92.202989,67.7311731 Z M56.9240772,81.509742 C43.411008,81.509742 32.4566518,70.5362734 32.4566518,57 C32.4566518,43.4637266 43.411008,32.490258 56.9240772,32.490258 C70.4371463,32.490258 81.3915025,43.4637266 81.3915025,57 C81.3915025,70.5362734 70.4371463,81.509742 56.9240772,81.509742 Z M69.9711616,56.6115914 C70.1922733,56.6115914 70.3711223,56.7854745 70.3714286,57.0001488 C70.3714286,64.1680657 64.3732424,70 57.0006125,70 C49.6270637,70 43.6285714,64.1683634 43.6285714,57.0001488 C43.6285714,49.8319343 49.6270637,44 57.0006125,44 C59.7222442,44 62.3428141,44.7920021 64.578429,46.289958 C64.7597285,46.4120335 64.8056658,46.6535048 64.6807163,46.8303654 L60.2992166,53.0228691 C60.1779422,53.1946681 59.9387621,53.242605 59.7568503,53.1315461 C58.9945975,52.6652772 58.1165825,52.4190419 57.218049,52.4190419 C54.5787982,52.4190419 52.4313826,54.5068309 52.4313826,57.0733941 C52.4313826,59.6396596 54.5784919,61.7274486 57.218049,61.7274486 C58.5367557,61.7274486 59.7963565,61.1900188 60.6951963,60.267902 C60.6991775,60.2640314 60.7031587,60.2601604 60.7071399,60.2556945 C60.7102023,60.2527169 60.7135712,60.2497393 60.7166336,60.2464643 L60.716021,60.2452734 C60.7720647,60.18364 60.806977,60.1038443 60.806977,60.0151162 C60.806977,59.9269838 60.7720647,59.8465924 60.716021,59.7849592 L60.71694,59.7837683 L58.6914113,57.2380473 C58.5980054,57.1207356 58.5811619,56.9617398 58.6482303,56.8289454 C58.7156051,56.6958534 58.854948,56.6115914 59.00746,56.6115914 L69.9711616,56.6115914 Z M56.9240772,78.4174103 C68.7316961,78.4174103 78.3038132,68.8285924 78.3038132,57 C78.3038132,45.1714076 68.7316961,35.5825897 56.9240772,35.5825897 C45.1164582,35.5825897 35.5443411,45.1714076 35.5443411,57 C35.5443411,68.8285924 45.1164582,78.4174103 56.9240772,78.4174103 Z" id="Combined-Shape" fill="url(#linearGradient-5)"></path>
            </g>
        </g>
    </g>
</svg>