<?xml version="1.0" encoding="UTF-8"?>
<svg width="151px" height="24px" viewBox="0 0 151 24" version="1.1" xmlns="http://www.w3.org/2000/svg" xmlns:xlink="http://www.w3.org/1999/xlink">
    <!-- Generator: Sketch 54.1 (76490) - https://sketchapp.com -->
    <title>gravity-hub</title>
    <desc>Created with Sketch.</desc>
    <defs>
        <path d="M42.728,9.536 L40.334,9.536 C40.3099999,8.83999652 40.0520025,8.25500237 39.56,7.781 C39.0679975,7.30699763 38.3900043,7.07 37.526,7.07 C36.529995,7.07 35.7770026,7.37599694 35.267,7.988 C34.7569975,8.60000306 34.502,9.4459946 34.502,10.526 L34.502,12.506 C34.502,13.6220056 34.7479975,14.4979968 35.24,15.134 C35.7320025,15.7700032 36.4999948,16.088 37.544,16.088 C38.4320044,16.088 39.1279975,15.8480024 39.632,15.368 C40.1360025,14.8879976 40.388,14.2880036 40.388,13.568 L40.388,13.388 L37.562,13.388 L37.562,11.336 L42.854,11.336 L42.854,12.974 C42.854,14.4980076 42.3650049,15.7339953 41.387,16.682 C40.4089951,17.6300047 39.116008,18.104 37.508,18.104 C35.7199911,18.104 34.3550047,17.5760053 33.413,16.52 C32.4709953,15.4639947 32,14.1080083 32,12.452 L32,10.616 C32,8.89999142 32.4829952,7.53500507 33.449,6.521 C34.4150048,5.50699493 35.7499915,5 37.454,5 C39.050008,5 40.3189953,5.42299577 41.261,6.269 C42.2030047,7.11500423 42.6919998,8.20399334 42.728,9.536 Z M52.718,17.852 L50.414,13.82 L47.768,13.82 L47.768,17.852 L45.248,17.852 L45.248,5.252 L50.936,5.252 C52.3760072,5.252 53.494996,5.64799604 54.293,6.44 C55.091004,7.23200396 55.49,8.26399364 55.49,9.536 C55.49,10.4240044 55.2710022,11.2099966 54.833,11.894 C54.3949978,12.5780034 53.7860039,13.0879983 53.006,13.424 L55.634,17.852 L52.718,17.852 Z M47.768,11.786 L50.63,11.786 C51.3860038,11.786 51.964998,11.5790021 52.367,11.165 C52.769002,10.7509979 52.97,10.2020034 52.97,9.518 C52.97,8.83399658 52.769002,8.29400198 52.367,7.898 C51.964998,7.50199802 51.3860038,7.304 50.63,7.304 L47.768,7.304 L47.768,11.786 Z M64.094,5.252 L68.612,17.852 L66.11,17.852 L65.264,15.206 L60.368,15.206 L59.522,17.852 L57.02,17.852 L61.538,5.252 L64.094,5.252 Z M62.816,7.52 L60.998,13.208 L64.616,13.208 L62.816,7.52 Z M78.998,5.252 L74.822,17.852 L71.978,17.852 L67.802,5.252 L70.376,5.252 L73.4,15.098 L76.424,5.252 L78.998,5.252 Z M80.87,17.852 L80.87,5.252 L83.39,5.252 L83.39,17.852 L80.87,17.852 Z M88.898,17.852 L88.898,7.34 L85.334,7.34 L85.334,5.252 L94.982,5.252 L94.982,7.34 L91.418,7.34 L91.418,17.852 L88.898,17.852 Z M102.686,13.316 L102.686,17.852 L100.166,17.852 L100.166,13.316 L95.846,5.252 L98.582,5.252 L101.426,10.868 L104.27,5.252 L107.006,5.252 L102.686,13.316 Z" id="path-1"></path>
    </defs>
    <g id="Symbols" stroke="none" stroke-width="1" fill="none" fill-rule="evenodd">
        <g id="gravity/navigation/primary" transform="translate(-32.000000, -24.000000)" fill="#FFFFFF">
            <g id="Group">
                <g transform="translate(32.000000, 24.000000)">
                    <g id="gravity/logo/gravity-hub">
                        <g id="gravity-logo" stroke-width="1" fill-rule="evenodd">
                            <g id="Product">
                                <use fill-opacity="0.56" xlink:href="#path-1"></use>
                                <use xlink:href="#path-1"></use>
                            </g>
                            <g id="logo/gravity/white" fill-rule="nonzero">
                                <path d="M23.8124031,15.3887915 L21.3881255,13.3971554 C21.4747325,12.9518598 21.4994003,12.4714318 21.4994003,12.0027714 C21.4994003,11.5342815 21.4747325,11.0538534 21.3881255,10.6085578 L23.8124031,8.61675114 C23.9856172,8.49958604 24.0477366,8.27719407 23.9609495,8.08959347 C23.4659748,6.64865036 22.6126881,5.27780165 21.5611596,4.14145369 C21.4129733,3.97738844 21.2026675,3.91872061 21.0046056,4.00092378 L17.949411,5.00833897 C17.1949751,4.42251347 16.3413283,3.95402362 15.4261024,3.61412547 L14.8202132,0.615074132 C14.7831214,0.427644083 14.6099074,0.251811162 14.3994215,0.228446361 C12.8161868,-0.0761487869 11.1836167,-0.0761487869 9.60038188,0.228446361 C9.39007616,0.251811162 9.21686205,0.427644083 9.17977045,0.615074132 L8.57370106,3.614296 C7.65847506,3.95419417 6.78016059,4.42268403 6.05039253,5.00850952 L2.9951978,4.00109432 C2.79731598,3.91906169 2.58701025,3.97755897 2.43846383,4.14162422 C1.38711529,5.27797219 0.533648587,6.64882091 0.0388539666,8.08976403 C-0.0477530976,8.27736461 0.0141862581,8.49975659 0.18722033,8.61692169 L2.61149791,10.6087284 C2.52507089,11.0538534 2.50022314,11.534452 2.50022314,12.0029418 C2.50022314,12.4716023 2.52489084,12.9518598 2.61149791,13.3973259 L0.187400387,15.3887915 C0.0143663145,15.5059567 -0.0475730412,15.7285192 0.0390340229,15.9159492 C0.533828643,17.3570629 1.38729534,18.7279116 2.43864389,19.8642595 C2.5871903,20.0283249 2.79749603,20.086822 2.99537787,20.0047895 L6.05057259,18.9972037 C6.78034064,19.5831997 7.65865511,20.0516896 8.57388111,20.3914172 L9.1799505,23.3908097 C9.2170421,23.5782397 9.39007616,23.7540727 9.60056193,23.7774375 C10.3920893,23.9179673 11.1836167,24 12.0001718,24 C12.8163668,24 13.6082544,23.9181378 14.3996016,23.7774375 C14.6100873,23.7540727 14.7833015,23.5782397 14.8203931,23.3908097 L15.4264625,20.3914172 C16.3416885,20.0516896 17.1951553,19.5831997 17.9497711,18.9972037 L21.0049657,20.0047895 C21.2030276,20.0866516 21.4133334,20.0283249 21.5615197,19.8642595 C22.6130483,18.7279116 23.4663349,17.3570629 23.9613096,15.9159492 C24.0477366,15.7285192 23.9856172,15.5059567 23.8124031,15.3887915 L23.8124031,15.3887915 L23.8124031,15.3887915 L23.8124031,15.3887915 Z M12.0140828,19.7399185 C7.49490949,19.7399185 3.83144606,16.2746127 3.83144606,12 C3.83144606,7.72538734 7.49490949,4.26008146 12.0140828,4.26008146 C16.5332562,4.26008146 20.1967196,7.72538734 20.1967196,12 C20.1967196,16.2746127 16.5332562,19.7399185 12.0140828,19.7399185 Z M16.377417,11.8773446 C16.4513633,11.8773446 16.5111758,11.9322551 16.5112782,12.000047 C16.5112782,14.2635997 14.5053059,16.1052632 12.0396785,16.1052632 C9.5737439,16.1052632 7.56766917,14.2636937 7.56766917,12.000047 C7.56766917,9.7364003 9.5737439,7.89473684 12.0396785,7.89473684 C12.9498733,7.89473684 13.8262701,8.14484276 14.5739264,8.61788146 C14.6345583,8.65643162 14.6499211,8.73268572 14.6081343,8.78853645 L13.1428301,10.7440639 C13.1022723,10.7983162 13.0222834,10.8134542 12.9614466,10.778383 C12.7065266,10.6311402 12.4128922,10.5533817 12.1123958,10.5533817 C11.2297516,10.5533817 10.5115918,11.2126835 10.5115918,12.0231771 C10.5115918,12.8335767 11.2296492,13.4928785 12.1123958,13.4928785 C12.5534106,13.4928785 12.9746587,13.3231638 13.2752575,13.0319691 C13.276589,13.0307468 13.2779204,13.0295243 13.2792518,13.028114 C13.280276,13.0271738 13.2814026,13.0262335 13.2824268,13.0251993 L13.282222,13.0248232 C13.3009646,13.00536 13.3126403,12.9801614 13.3126403,12.952142 C13.3126403,12.9243107 13.3009646,12.8989239 13.282222,12.8794608 L13.2825293,12.8790847 L12.6051321,12.0751728 C12.5738943,12.038127 12.5682614,11.9879178 12.5906911,11.9459828 C12.6132232,11.9039537 12.6598236,11.8773446 12.7108282,11.8773446 L16.377417,11.8773446 Z M12.0140828,18.7633927 C15.9629028,18.7633927 19.1641042,15.735345 19.1641042,12 C19.1641042,8.26465503 15.9629028,5.23660728 12.0140828,5.23660728 C8.06526289,5.23660728 4.86406144,8.26465503 4.86406144,12 C4.86406144,15.735345 8.06526289,18.7633927 12.0140828,18.7633927 Z"></path>
                            </g>
                        </g>
                        <path d="M115,17.6 L115,5 L117.52,5 L117.52,10.166 L122.686,10.166 L122.686,5 L125.206,5 L125.206,17.6 L122.686,17.6 L122.686,12.398 L117.52,12.398 L117.52,17.6 L115,17.6 Z M136.87,16.538 C135.945995,17.4140044 134.680008,17.852 133.072,17.852 C131.463992,17.852 130.198005,17.4140044 129.274,16.538 C128.349995,15.6619956 127.888,14.5040072 127.888,13.064 L127.888,5 L130.39,5 L130.39,13.172 C130.39,13.9880041 130.632998,14.6239977 131.119,15.08 C131.605002,15.5360023 132.255996,15.764 133.072,15.764 C133.888004,15.764 134.535998,15.5360023 135.016,15.08 C135.496002,14.6239977 135.736,13.9880041 135.736,13.172 L135.736,5 L138.256,5 L138.256,13.064 C138.256,14.5040072 137.794005,15.6619956 136.87,16.538 Z M140.938,17.6 L140.938,5 L146.59,5 C147.682005,5 148.554997,5.29399706 149.209,5.882 C149.863003,6.47000294 150.19,7.23799526 150.19,8.186 C150.19,9.51800666 149.662005,10.483997 148.606,11.084 C149.290003,11.2280007 149.850998,11.5549975 150.289,12.065 C150.727002,12.5750026 150.946,13.2379959 150.946,14.054 C150.946,15.1100053 150.550004,15.9649967 149.758,16.619 C148.965996,17.2730033 147.940006,17.6 146.68,17.6 L140.938,17.6 Z M143.386,15.62 L146.554,15.62 C147.154003,15.62 147.615998,15.4670015 147.94,15.161 C148.264002,14.8549985 148.426,14.4320027 148.426,13.892 C148.426,13.3639974 148.258002,12.9470015 147.922,12.641 C147.585998,12.3349985 147.124003,12.182 146.536,12.182 L143.386,12.182 L143.386,15.62 Z M143.386,10.22 L146.032,10.22 C146.548003,10.22 146.949999,10.0670015 147.238,9.761 C147.526001,9.45499847 147.67,9.05000252 147.67,8.546 C147.67,8.0659976 147.523001,7.68500141 147.229,7.403 C146.934999,7.12099859 146.530003,6.98 146.014,6.98 L143.386,6.98 L143.386,10.22 Z" id="HUB" fill-rule="nonzero"></path>
                    </g>
                </g>
            </g>
        </g>
    </g>
</svg>