<?xml version="1.0" encoding="UTF-8"?>
<svg width="30px" height="32px" viewBox="0 0 30 32" version="1.1" xmlns="http://www.w3.org/2000/svg" xmlns:xlink="http://www.w3.org/1999/xlink">
    <path fill="white" fill-rule="nonzero" d="M29.7655039,20.5183887 L26.7351568,17.8628739 C26.8434156,17.2691464 26.8742504,16.6285757 26.8742504,16.0036951 C26.8742504,15.379042 26.8434156,14.7384712 26.7351568,14.1447438 L29.7655039,11.4890015 C29.9820215,11.3327814 30.0596707,11.0362588 29.9511868,10.7861246 C29.3324685,8.86486715 28.2658602,7.03706887 26.9514495,5.52193825 C26.7662166,5.30318459 26.5033343,5.22496081 26.255757,5.33456504 L22.4367637,6.67778529 C21.4937189,5.89668463 20.4266604,5.27203149 19.282628,4.81883396 L18.5252665,0.820098843 C18.4789018,0.570192111 18.2623842,0.335748216 17.9992769,0.304595147 C16.0202335,-0.101531716 13.9795208,-0.101531716 12.0004774,0.304595147 C11.7375952,0.335748216 11.5210776,0.570192111 11.4747131,0.820098843 L10.7171263,4.81906133 C9.57309383,5.2722589 8.47520074,5.89691204 7.56299067,6.67801269 L3.74399725,5.33479243 C3.49664497,5.22541559 3.23376282,5.30341196 3.04807978,5.52216562 C1.73389411,7.03729626 0.667060734,8.86509455 0.0485674583,10.786352 C-0.059691372,11.0364862 0.0177328226,11.3330088 0.234025412,11.4892289 L3.26437238,14.1449712 C3.15633862,14.7384712 3.12527892,15.3792693 3.12527892,16.0039224 C3.12527892,16.628803 3.15611355,17.2691464 3.26437238,17.8631012 L0.234250484,20.5183887 C0.0179578931,20.6746089 -0.0594663016,20.9713589 0.0487925286,21.2212655 C0.667285804,23.1427505 1.73411917,24.9705488 3.04830486,26.4856793 C3.23398788,26.7044331 3.49687003,26.7824293 3.74422233,26.6730526 L7.56321573,25.3296049 C8.4754258,26.110933 9.57331889,26.7355861 10.7173514,27.1885563 L11.4749381,31.1877463 C11.5213026,31.4376529 11.7375952,31.6720969 12.0007024,31.70325 C12.9901116,31.890623 13.9795208,32 15.0002148,32 C16.0204585,32 17.0103179,31.8908505 17.999502,31.70325 C18.2626092,31.6720969 18.4791269,31.4376529 18.5254914,31.1877463 L19.2830781,27.1885563 C20.4271106,26.7355861 21.4939441,26.110933 22.4372139,25.3296049 L26.2562072,26.6730526 C26.5037845,26.7822022 26.7666667,26.7044331 26.9518996,26.4856793 C28.2663103,24.9705488 29.3329186,23.1427505 29.951637,21.2212655 C30.0596707,20.9713589 29.9820215,20.6746089 29.7655039,20.5183887 L29.7655039,20.5183887 L29.7655039,20.5183887 L29.7655039,20.5183887 Z M15.0176035,26.3198914 C9.36863686,26.3198914 4.78930757,21.6994835 4.78930757,16 C4.78930757,10.3005165 9.36863686,5.68010861 15.0176035,5.68010861 C20.6665702,5.68010861 25.2458995,10.3005165 25.2458995,16 C25.2458995,21.6994835 20.6665702,26.3198914 15.0176035,26.3198914 Z M20.4717712,15.8364595 C20.5642042,15.8364595 20.6389697,15.9096735 20.6390977,16.0000626 C20.6390977,19.0181329 18.1316323,21.4736842 15.0495982,21.4736842 C11.9671799,21.4736842 9.45958647,19.0182583 9.45958647,16.0000626 C9.45958647,12.9818671 11.9671799,10.5263158 15.0495982,10.5263158 C16.1873417,10.5263158 17.2828376,10.8597904 18.217408,11.4905086 C18.2931979,11.5419088 18.3124014,11.643581 18.2601678,11.7180486 L16.4285376,14.3254186 C16.3778404,14.397755 16.2778542,14.417939 16.2018083,14.3711773 C15.8831582,14.1748536 15.5161152,14.0711755 15.1404947,14.0711755 C14.0371895,14.0711755 13.1394897,14.9502446 13.1394897,16.0309028 C13.1394897,17.1114356 14.0370615,17.9905047 15.1404947,17.9905047 C15.6917633,17.9905047 16.2183234,17.7642184 16.5940719,17.3759587 C16.5957362,17.374329 16.5974005,17.3726991 16.5990648,17.3708187 C16.600345,17.369565 16.6017533,17.3683113 16.6030335,17.3669323 L16.6027774,17.3664309 C16.6262058,17.34048 16.6408004,17.3068818 16.6408004,17.2695226 C16.6408004,17.2324142 16.6262058,17.1985652 16.6027774,17.1726144 L16.6031616,17.172113 L15.7564151,16.1002304 C15.7173679,16.0508361 15.7103267,15.9838904 15.7383638,15.927977 C15.766529,15.8719383 15.8247795,15.8364595 15.8885352,15.8364595 L20.4717712,15.8364595 Z M15.0176035,25.017857 C19.9536284,25.017857 23.9551303,20.98046 23.9551303,16 C23.9551303,11.01954 19.9536284,6.98214304 15.0176035,6.98214304 C10.0815786,6.98214304 6.0800768,11.01954 6.0800768,16 C6.0800768,20.98046 10.0815786,25.017857 15.0176035,25.017857 Z"></path>
</svg>