<?xml version="1.0" encoding="UTF-8"?>
<svg width="112px" height="38px" viewBox="0 0 112 38" version="1.1" xmlns="http://www.w3.org/2000/svg" xmlns:xlink="http://www.w3.org/1999/xlink">
    <!-- Generator: Sketch 55.2 (78181) - https://sketchapp.com -->
    <title>gravity-community-logo</title>
    <desc>Created with Sketch.</desc>
    <defs>
        <path d="M44.7061481,9.93333333 L42.2013148,9.93333333 C42.1762036,9.20833333 41.9062618,8.5989608 41.3914815,8.10520833 C40.8767011,7.61145586 40.1673193,7.36458333 39.2633148,7.36458333 C38.2211985,7.36458333 37.4333453,7.68333015 36.8997315,8.32083333 C36.3661177,8.95833652 36.0993148,9.83957771 36.0993148,10.9645833 L36.0993148,13.0270833 C36.0993148,14.1895891 36.3567011,15.10208 36.8714815,15.7645833 C37.3862618,16.4270866 38.1898094,16.7583333 39.2821481,16.7583333 C40.2112639,16.7583333 40.9394788,16.5083358 41.4668148,16.0083333 C41.9941508,15.5083308 42.2578148,14.8833371 42.2578148,14.1333333 L42.2578148,13.9458333 L39.3009815,13.9458333 L39.3009815,11.8083333 L44.8379815,11.8083333 L44.8379815,13.5145833 C44.8379815,15.1020913 44.3263477,16.3895784 43.3030648,17.3770833 C42.2797819,18.3645883 40.9269343,18.8583333 39.2444815,18.8583333 C37.3736943,18.8583333 35.9455142,18.3083388 34.9598981,17.2083333 C33.9742821,16.1083278 33.4814815,14.695842 33.4814815,12.9708333 L33.4814815,11.0583333 C33.4814815,9.2708244 33.9868375,7.84896361 34.9975648,6.79270833 C36.0082921,5.73645305 37.4050837,5.20833333 39.1879815,5.20833333 C40.8578787,5.20833333 42.1856154,5.64895393 43.1712315,6.53020833 C44.1568475,7.41146274 44.6684813,8.5458264 44.7061481,9.93333333 Z M55.1586481,18.5958333 L52.7479815,14.3958333 L49.9794815,14.3958333 L49.9794815,18.5958333 L47.3428148,18.5958333 L47.3428148,5.47083333 L53.2941481,5.47083333 C54.8008223,5.47083333 55.9716162,5.88332921 56.8065648,6.70833333 C57.6415134,7.53333746 58.0589815,8.60832671 58.0589815,9.93333333 C58.0589815,10.858338 57.8298449,11.6770798 57.3715648,12.3895833 C56.9132847,13.1020869 56.2760967,13.6333316 55.4599815,13.9833333 L58.2096481,18.5958333 L55.1586481,18.5958333 Z M49.9794815,12.2770833 L52.9739815,12.2770833 C53.7649854,12.2770833 54.3707849,12.0614605 54.7913981,11.6302083 C55.2120114,11.1989562 55.4223148,10.6270869 55.4223148,9.91458333 C55.4223148,9.20207977 55.2120114,8.6395854 54.7913981,8.22708333 C54.3707849,7.81458127 53.7649854,7.60833333 52.9739815,7.60833333 L49.9794815,7.60833333 L49.9794815,12.2770833 Z M67.0613148,5.47083333 L71.7884815,18.5958333 L69.1706481,18.5958333 L68.2854815,15.8395833 L63.1628148,15.8395833 L62.2776481,18.5958333 L59.6598148,18.5958333 L64.3869815,5.47083333 L67.0613148,5.47083333 Z M65.7241481,7.83333333 L63.8219815,13.7583333 L67.6074815,13.7583333 L65.7241481,7.83333333 Z M82.6553148,5.47083333 L78.2859815,18.5958333 L75.3103148,18.5958333 L70.9409815,5.47083333 L73.6341481,5.47083333 L76.7981481,15.7270833 L79.9621481,5.47083333 L82.6553148,5.47083333 Z M84.6139815,18.5958333 L84.6139815,5.47083333 L87.2506481,5.47083333 L87.2506481,18.5958333 L84.6139815,18.5958333 Z M93.0136481,18.5958333 L93.0136481,7.64583333 L89.2846481,7.64583333 L89.2846481,5.47083333 L99.3793148,5.47083333 L99.3793148,7.64583333 L95.6503148,7.64583333 L95.6503148,18.5958333 L93.0136481,18.5958333 Z M107.439981,13.8708333 L107.439981,18.5958333 L104.803315,18.5958333 L104.803315,13.8708333 L100.283315,5.47083333 L103.145981,5.47083333 L106.121648,11.3208333 L109.097315,5.47083333 L111.959981,5.47083333 L107.439981,13.8708333 Z" id="path-1"></path>
    </defs>
    <g id="Gravity-Cluster---Dev-Experience" stroke="none" stroke-width="1" fill="none" fill-rule="evenodd">
        <g id="Cluster---Dashboard-Graphs-&amp;-Events" transform="translate(-32.000000, -16.000000)" fill="#FFFFFF">
            <g id="gravity/navigation/sidebar---dev">
                <g id="Gravity-Logo" transform="translate(32.000000, 16.000000)">
                    <g id="gravity-community-logo">
                        <path d="M4.07600512,37.4955862 C2.88901486,37.4955862 1.98473851,37.1608413 1.36314893,36.4913414 C0.741559357,35.8218416 0.430769231,34.8710236 0.430769231,33.638859 C0.430769231,33.0263378 0.525586557,32.4797065 0.715224055,31.9989486 C0.904861552,31.5181908 1.16473126,31.1122235 1.49484098,30.7810348 C1.8249507,30.449846 2.21826702,30.1987873 2.67480173,30.0278512 C3.13133645,29.8569151 3.6264936,29.7714483 4.16028804,29.7714483 C4.46932692,29.7714483 4.75026715,29.7945955 5.00311714,29.8408907 C5.25596714,29.8871859 5.47720757,29.9406027 5.66684507,30.0011426 C5.85648256,30.0616824 6.01451144,30.124002 6.14093644,30.188103 C6.26736144,30.2522041 6.35866701,30.3020597 6.4148559,30.3376714 L5.94076453,31.6837867 C5.71600897,31.562707 5.45438339,31.4594346 5.15587992,31.3739665 C4.85737645,31.2884985 4.5184923,31.2457651 4.13921731,31.2457651 C3.88636731,31.2457651 3.63878874,31.2884985 3.39647416,31.3739665 C3.15415958,31.4594346 2.93994265,31.5965376 2.75381696,31.7852795 C2.56769127,31.9740215 2.41844177,32.217958 2.306064,32.5170962 C2.19368622,32.8162344 2.13749818,33.1794683 2.13749818,33.6068086 C2.13749818,33.9486809 2.17437158,34.2674008 2.2481195,34.5629778 C2.32186741,34.8585549 2.44126701,35.1131758 2.60632187,35.3268449 C2.77137673,35.540515 2.98734953,35.709668 3.25424674,35.834309 C3.52114396,35.9589499 3.84422522,36.0212694 4.22350022,36.0212694 C4.46230299,36.0212694 4.67651992,36.007025 4.86615741,35.9785356 C5.05579491,35.9500462 5.22435905,35.9162156 5.37185488,35.8770428 C5.51935071,35.8378699 5.64928557,35.793356 5.76166334,35.7434996 C5.87404112,35.6936432 5.97588195,35.6473487 6.06718889,35.6046147 L6.52020954,36.9400465 C6.28843038,37.0824933 5.96183736,37.2106935 5.5404207,37.3246509 C5.11900404,37.4386084 4.6308704,37.4955862 4.07600512,37.4955862 Z M8.69049449,33.638859 C8.69049449,34.0020983 8.7343914,34.3297209 8.82218654,34.6217368 C8.90998168,34.9137527 9.03640478,35.1648114 9.20145964,35.3749204 C9.3665145,35.5850294 9.56844029,35.7470602 9.80724306,35.8610176 C10.0460458,35.974975 10.3199626,36.0319529 10.6290014,36.0319529 C10.9310167,36.0319529 11.2031776,35.974975 11.4454921,35.8610176 C11.6878067,35.7470602 11.8914884,35.5850294 12.0565432,35.3749204 C12.2215981,35.1648114 12.3480212,34.9137527 12.4358163,34.6217368 C12.5236115,34.3297209 12.5675084,34.0020983 12.5675084,33.638859 C12.5675084,33.2756197 12.5236115,32.9462165 12.4358163,32.6506394 C12.3480212,32.3550623 12.2215981,32.1022231 12.0565432,31.8921141 C11.8914884,31.6820051 11.6878067,31.5199743 11.4454921,31.4060169 C11.2031776,31.2920595 10.9310167,31.2350816 10.6290014,31.2350816 C10.3199626,31.2350816 10.0460458,31.29384 9.80724306,31.4113586 C9.56844029,31.5288772 9.3665145,31.6926885 9.20145964,31.9027975 C9.03640478,32.1129065 8.90998168,32.3657458 8.82218654,32.6613228 C8.7343914,32.9568999 8.69049449,33.282742 8.69049449,33.638859 Z M14.263702,33.638859 C14.263702,34.2727471 14.1706405,34.8300618 13.9845148,35.3108197 C13.7983891,35.7915775 13.5437871,36.1939837 13.220701,36.5180501 C12.8976148,36.8421165 12.5130779,37.0860529 12.0670786,37.2498667 C11.6210793,37.4136805 11.141725,37.4955862 10.6290014,37.4955862 C10.1303251,37.4955862 9.65975018,37.4136805 9.21726269,37.2498667 C8.77477519,37.0860529 8.38848238,36.8421165 8.05837266,36.5180501 C7.72826294,36.1939837 7.46839323,35.7915775 7.27875574,35.3108197 C7.08911824,34.8300618 6.99430091,34.2727471 6.99430091,33.638859 C6.99430091,33.0049708 7.09262999,32.4476561 7.2892911,31.9668983 C7.48595221,31.4861404 7.75108955,31.0819537 8.08471107,30.7543261 C8.4183326,30.4266985 8.80462541,30.1809815 9.2436011,30.0171677 C9.68257679,29.8533539 10.1443723,29.7714483 10.6290014,29.7714483 C11.1276778,29.7714483 11.5982527,29.8533539 12.0407402,30.0171677 C12.4832277,30.1809815 12.8695205,30.4266985 13.1996302,30.7543261 C13.5297399,31.0819537 13.7896097,31.4861404 13.9792471,31.9668983 C14.1688846,32.4476561 14.263702,33.0049708 14.263702,33.638859 Z M17.5718062,29.9423836 C17.6982312,30.1774207 17.843969,30.4676517 18.0090238,30.8130851 C18.1740787,31.1585186 18.3461546,31.5324358 18.5252567,31.9348479 C18.7043587,32.3372601 18.8817023,32.748569 19.0572925,33.168787 C19.2328828,33.5890049 19.3979352,33.9842888 19.5524546,34.3546505 C19.7069741,33.9842888 19.8720265,33.5890049 20.0476167,33.168787 C20.223207,32.748569 20.4005505,32.3372601 20.5796526,31.9348479 C20.7587547,31.5324358 20.9308306,31.1585186 21.0958854,30.8130851 C21.2609403,30.4676517 21.406678,30.1774207 21.533103,29.9423836 L23.0291247,29.9423836 C23.0993608,30.4338249 23.1643282,30.9840174 23.2240289,31.5929773 C23.2837296,32.2019373 23.3364059,32.835816 23.3820594,33.4946323 C23.4277129,34.1534487 23.4698539,34.8140357 23.5084838,35.4764132 C23.5471136,36.1387907 23.5804753,36.761986 23.6085697,37.3460178 L22.0071944,37.3460178 C21.9861236,36.6266616 21.9580296,35.8432161 21.9229115,34.9956577 C21.8877934,34.1480994 21.8351171,33.2934316 21.764881,32.4316286 C21.638456,32.7307668 21.4979859,33.0619506 21.3434665,33.4251899 C21.188947,33.7884292 21.0361858,34.151663 20.8851782,34.5149023 C20.7341705,34.8781416 20.5884328,35.2253504 20.4479606,35.5565391 C20.3074883,35.8877279 20.1880887,36.1708366 20.0897582,36.4058738 L18.9414035,36.4058738 C18.843073,36.1708366 18.7236734,35.8877279 18.5832012,35.5565391 C18.4427289,35.2253504 18.2969912,34.8781416 18.1459836,34.5149023 C17.9949759,34.151663 17.8422147,33.7884292 17.6876952,33.4251899 C17.5331758,33.0619506 17.3927057,32.7307668 17.2662807,32.4316286 C17.1960446,33.2934316 17.1433683,34.1480994 17.1082502,34.9956577 C17.0731322,35.8432161 17.0450381,36.6266616 17.0239673,37.3460178 L15.422592,37.3460178 C15.4506864,36.761986 15.4840481,36.1387907 15.522678,35.4764132 C15.5613078,34.8140357 15.6034488,34.1534487 15.6491023,33.4946323 C15.6947558,32.835816 15.7474321,32.2019373 15.8071328,31.5929773 C15.8668335,30.9840174 15.9318009,30.4338249 16.002037,29.9423836 L17.5718062,29.9423836 Z M27.0220276,29.9423836 C27.1484526,30.1774207 27.2941903,30.4676517 27.4592452,30.8130851 C27.6243001,31.1585186 27.796376,31.5324358 27.975478,31.9348479 C28.1545801,32.3372601 28.3319236,32.748569 28.5075139,33.168787 C28.6831042,33.5890049 28.8481566,33.9842888 29.002676,34.3546505 C29.1571955,33.9842888 29.3222478,33.5890049 29.4978381,33.168787 C29.6734284,32.748569 29.8507719,32.3372601 30.029874,31.9348479 C30.2089761,31.5324358 30.381052,31.1585186 30.5461068,30.8130851 C30.7111617,30.4676517 30.8568994,30.1774207 30.9833244,29.9423836 L32.4793461,29.9423836 C32.5495822,30.4338249 32.6145496,30.9840174 32.6742503,31.5929773 C32.733951,32.2019373 32.7866273,32.835816 32.8322808,33.4946323 C32.8779342,34.1534487 32.9200753,34.8140357 32.9587051,35.4764132 C32.997335,36.1387907 33.0306966,36.761986 33.0587911,37.3460178 L31.4574158,37.3460178 C31.436345,36.6266616 31.4082509,35.8432161 31.3731329,34.9956577 C31.3380148,34.1480994 31.2853385,33.2934316 31.2151024,32.4316286 C31.0886774,32.7307668 30.9482073,33.0619506 30.7936879,33.4251899 C30.6391684,33.7884292 30.4864072,34.151663 30.3353995,34.5149023 C30.1843919,34.8781416 30.0386542,35.2253504 29.8981819,35.5565391 C29.7577097,35.8877279 29.6383101,36.1708366 29.5399796,36.4058738 L28.3916249,36.4058738 C28.2932944,36.1708366 28.1738948,35.8877279 28.0334225,35.5565391 C27.8929503,35.2253504 27.7472126,34.8781416 27.5962049,34.5149023 C27.4451973,34.151663 27.292436,33.7884292 27.1379166,33.4251899 C26.9833972,33.0619506 26.8429271,32.7307668 26.7165021,32.4316286 C26.6462659,33.2934316 26.5935896,34.1480994 26.5584716,34.9956577 C26.5233535,35.8432161 26.4952595,36.6266616 26.4741887,37.3460178 L24.8728134,37.3460178 C24.9009078,36.761986 24.9342695,36.1387907 24.9728993,35.4764132 C25.0115292,34.8140357 25.0536702,34.1534487 25.0993237,33.4946323 C25.1449772,32.835816 25.1976535,32.2019373 25.2573542,31.5929773 C25.3170549,30.9840174 25.3820223,30.4338249 25.4522584,29.9423836 L27.0220276,29.9423836 Z M37.3888256,37.4955862 C36.876102,37.4955862 36.4336212,37.4225833 36.0613698,37.2765754 C35.6891184,37.1305674 35.38184,36.9275838 35.1395255,36.6676184 C34.8972109,36.4076531 34.7181115,36.097836 34.6022219,35.7381579 C34.4863323,35.3784798 34.4283884,34.9814153 34.4283884,34.5469526 L34.4283884,29.9423836 L36.0719052,29.9423836 L36.0719052,34.4080677 C36.0719052,34.707206 36.1052668,34.9618258 36.1719911,35.1719348 C36.2387154,35.3820438 36.330021,35.5529773 36.4459106,35.6847406 C36.5618002,35.8165039 36.7022703,35.9108734 36.8673251,35.9678521 C37.03238,36.0248309 37.2132353,36.0533198 37.4098964,36.0533198 C37.8102422,36.0533198 38.1350793,35.9286807 38.3844175,35.6793989 C38.6337557,35.430117 38.7584229,35.0063442 38.7584229,34.4080677 L38.7584229,29.9423836 L40.4019397,29.9423836 L40.4019397,34.5469526 C40.4019397,34.9814153 40.3422399,35.3802603 40.2228385,35.7434996 C40.1034371,36.1067389 39.920826,36.4183365 39.6749996,36.6783019 C39.4291732,36.9382673 39.1166272,37.1394703 38.7373522,37.2819171 C38.3580772,37.4243639 37.9085729,37.4955862 37.3888256,37.4955862 Z M46.8811885,37.3460178 C46.4106065,36.4984595 45.9014024,35.6615972 45.3535607,34.8354059 C44.8057191,34.0092146 44.2227681,33.2293302 43.6046903,32.4957293 L43.6046903,37.3460178 L41.9822443,37.3460178 L41.9822443,29.9423836 L43.3202355,29.9423836 C43.5520147,30.1774207 43.8083726,30.4658711 44.0893171,30.8077434 C44.3702615,31.1496157 44.6564693,31.5146301 44.9479492,31.9027975 C45.2394291,32.290965 45.5291487,32.6933711 45.8171167,33.1100279 C46.1050848,33.5266848 46.3754897,33.9273103 46.6283397,34.3119166 L46.6283397,29.9423836 L48.2613211,29.9423836 L48.2613211,37.3460178 L46.8811885,37.3460178 Z M49.9469794,29.9423836 L51.5904961,29.9423836 L51.5904961,37.3460178 L49.9469794,37.3460178 L49.9469794,29.9423836 Z M58.6913314,29.9423836 L58.6913314,31.3632831 L56.4894403,31.3632831 L56.4894403,37.3460178 L54.8459235,37.3460178 L54.8459235,31.3632831 L52.6440325,31.3632831 L52.6440325,29.9423836 L58.6913314,29.9423836 Z M62.7790525,32.9871682 C63.0740442,32.4814822 63.3549844,31.9758037 63.6218816,31.4701176 C63.8887789,30.9644316 64.1346016,30.455192 64.3593571,29.9423836 L66.1714397,29.9423836 C65.7710939,30.7400855 65.356707,31.5128477 64.9282668,32.2606933 C64.4998265,33.0085389 64.0468104,33.7599344 63.5692048,34.5149023 L63.5692048,37.3460178 L61.9256881,37.3460178 L61.9256881,34.5362692 C61.4480825,33.7813013 60.9933105,33.0263447 60.5613584,32.2713767 C60.1294064,31.5164088 59.7132637,30.7400855 59.3129178,29.9423836 L61.2198187,29.9423836 C61.4445742,30.455192 61.6868852,30.9644316 61.9467588,31.4701176 C62.2066324,31.9758037 62.4840609,32.4814822 62.7790525,32.9871682 Z M69.5954329,37.3460178 L69.5954329,29.9423836 L74.5259832,29.9423836 L74.5259832,31.3419162 L71.2389497,31.3419162 L71.2389497,32.794866 L74.1572455,32.794866 L74.1572455,34.1623483 L71.2389497,34.1623483 L71.2389497,35.9464852 L74.7682966,35.9464852 L74.7682966,37.3460178 L69.5954329,37.3460178 Z M77.6233802,35.9892191 C77.7006399,35.9963414 77.7901896,36.0016831 77.892032,36.0052442 C77.9938743,36.0088054 78.1150298,36.010586 78.255502,36.010586 C79.0772645,36.010586 79.6865536,35.8004801 80.0833877,35.3802621 C80.4802217,34.9600441 80.6786357,34.3795822 80.6786357,33.638859 C80.6786357,32.862524 80.4890011,32.2749399 80.1097261,31.8760889 C79.7304511,31.4772379 79.1299413,31.2778154 78.3081789,31.2778154 C78.1958011,31.2778154 78.0799132,31.279596 77.9605118,31.2831572 C77.8411105,31.2867183 77.7287344,31.2956211 77.6233802,31.3098658 L77.6233802,35.9892191 Z M82.3748293,33.638859 C82.3748293,34.2798695 82.2765002,34.8389647 82.0798391,35.3161614 C81.883178,35.7933581 81.6039937,36.188642 81.2422777,36.5020249 C80.8805617,36.8154078 80.4398367,37.0504415 79.9200895,37.2071329 C79.4003423,37.3638244 78.8173913,37.4421689 78.1712191,37.4421689 C77.8762275,37.4421689 77.5320757,37.429705 77.1387535,37.4047768 C76.7454312,37.3798487 76.3591384,37.3282125 75.9798634,37.2498667 L75.9798634,30.0385346 C76.3591384,29.9673113 76.7542106,29.9192362 77.1650919,29.894308 C77.5759731,29.8693798 77.9289043,29.8569159 78.2238959,29.8569159 C78.8489973,29.8569159 79.4161454,29.9281382 79.9253572,30.070585 C80.434569,30.2130318 80.8717822,30.4373821 81.23701,30.7436427 C81.6022378,31.0499032 81.883178,31.441626 82.0798391,31.9188227 C82.2765002,32.3960194 82.3748293,32.9693591 82.3748293,33.638859 Z M83.7444266,29.9423836 L85.3879434,29.9423836 L85.3879434,37.3460178 L83.7444266,37.3460178 L83.7444266,29.9423836 Z M92.4887786,29.9423836 L92.4887786,31.3632831 L90.2868876,31.3632831 L90.2868876,37.3460178 L88.6433708,37.3460178 L88.6433708,31.3632831 L86.4414798,31.3632831 L86.4414798,29.9423836 L92.4887786,29.9423836 Z M93.542315,29.9423836 L95.1858318,29.9423836 L95.1858318,37.3460178 L93.542315,37.3460178 L93.542315,29.9423836 Z M98.2516226,33.638859 C98.2516226,34.0020983 98.2955195,34.3297209 98.3833147,34.6217368 C98.4711098,34.9137527 98.5975329,35.1648114 98.7625878,35.3749204 C98.9276426,35.5850294 99.1295684,35.7470602 99.3683712,35.8610176 C99.607174,35.974975 99.8810907,36.0319529 100.19013,36.0319529 C100.492145,36.0319529 100.764306,35.974975 101.00662,35.8610176 C101.248935,35.7470602 101.452617,35.5850294 101.617671,35.3749204 C101.782726,35.1648114 101.909149,34.9137527 101.996944,34.6217368 C102.08474,34.3297209 102.128637,34.0020983 102.128637,33.638859 C102.128637,33.2756197 102.08474,32.9462165 101.996944,32.6506394 C101.909149,32.3550623 101.782726,32.1022231 101.617671,31.8921141 C101.452617,31.6820051 101.248935,31.5199743 101.00662,31.4060169 C100.764306,31.2920595 100.492145,31.2350816 100.19013,31.2350816 C99.8810907,31.2350816 99.607174,31.29384 99.3683712,31.4113586 C99.1295684,31.5288772 98.9276426,31.6926885 98.7625878,31.9027975 C98.5975329,32.1129065 98.4711098,32.3657458 98.3833147,32.6613228 C98.2955195,32.9568999 98.2516226,33.282742 98.2516226,33.638859 Z M103.82483,33.638859 C103.82483,34.2727471 103.731769,34.8300618 103.545643,35.3108197 C103.359517,35.7915775 103.104915,36.1939837 102.781829,36.5180501 C102.458743,36.8421165 102.074206,37.0860529 101.628207,37.2498667 C101.182207,37.4136805 100.702853,37.4955862 100.19013,37.4955862 C99.6914532,37.4955862 99.2208783,37.4136805 98.7783908,37.2498667 C98.3359033,37.0860529 97.9496105,36.8421165 97.6195008,36.5180501 C97.2893911,36.1939837 97.0295214,35.7915775 96.8398839,35.3108197 C96.6502464,34.8300618 96.5554291,34.2727471 96.5554291,33.638859 C96.5554291,33.0049708 96.6537581,32.4476561 96.8504192,31.9668983 C97.0470803,31.4861404 97.3122177,31.0819537 97.6458392,30.7543261 C97.9794607,30.4266985 98.3657535,30.1809815 98.8047292,30.0171677 C99.2437049,29.8533539 99.7055004,29.7714483 100.19013,29.7714483 C100.688806,29.7714483 101.159381,29.8533539 101.601868,30.0171677 C102.044356,30.1809815 102.430649,30.4266985 102.760758,30.7543261 C103.090868,31.0819537 103.350738,31.4861404 103.540375,31.9668983 C103.730013,32.4476561 103.82483,33.0049708 103.82483,33.638859 Z M110.093372,37.3460178 C109.62279,36.4984595 109.113586,35.6615972 108.565744,34.8354059 C108.017902,34.0092146 107.434951,33.2293302 106.816873,32.4957293 L106.816873,37.3460178 L105.194427,37.3460178 L105.194427,29.9423836 L106.532419,29.9423836 C106.764198,30.1774207 107.020556,30.4658711 107.3015,30.8077434 C107.582445,31.1496157 107.868652,31.5146301 108.160132,31.9027975 C108.451612,32.290965 108.741332,32.6933711 109.0293,33.1100279 C109.317268,33.5266848 109.587673,33.9273103 109.840523,34.3119166 L109.840523,29.9423836 L111.473504,29.9423836 L111.473504,37.3460178 L110.093372,37.3460178 Z" id="COMMUNITYEDITION" fill-rule="nonzero"></path>
                        <g id="Product">
                            <use fill-opacity="0.56" xlink:href="#path-1"></use>
                            <use xlink:href="#path-1"></use>
                        </g>
                        <path d="M24.8045866,16.0299911 L22.2792974,13.9553702 C22.369513,13.4915206 22.3952087,12.9910748 22.3952087,12.5028868 C22.3952087,12.0148766 22.369513,11.5144306 22.2792974,11.0505811 L24.8045866,8.97578243 C24.9850179,8.85373546 25.0497256,8.62207716 24.9593224,8.42665987 C24.4437237,6.92567746 23.5548835,5.49771005 22.4595412,4.31401426 C22.3051805,4.14311296 22.0861119,4.08200063 21.8797975,4.16762894 L18.6973031,5.21701976 C17.9114324,4.60678487 17.022217,4.1187746 16.0688567,3.76471403 L15.4377221,0.640702221 C15.3990848,0.445462586 15.2186535,0.262303294 14.9993974,0.237964959 C13.3501945,-0.079321653 11.6496007,-0.079321653 10.0003978,0.237964959 C9.78132933,0.262303294 9.60089797,0.445462586 9.56226088,0.640702221 L8.9309386,3.76489167 C7.97757819,4.11895226 7.06266728,4.60696253 6.30249222,5.21719742 L3.11999771,4.16780659 C2.91387081,4.08235593 2.69480235,4.1432906 2.54006649,4.31419189 C1.44491176,5.4978877 0.555883945,6.92585512 0.0404728819,8.42683753 C-0.04974281,8.6222548 0.0147773522,8.85391312 0.195021177,8.97596009 L2.72031032,11.0507587 C2.63028218,11.5144306 2.6043991,12.0150542 2.6043991,12.5030644 C2.6043991,12.9912524 2.63009463,13.4915206 2.72031032,13.9555478 L0.195208736,16.0299911 C0.0149649109,16.1520382 -0.0495552513,16.3838741 0.0406604405,16.5791137 C0.556071503,18.0802738 1.44509931,19.5082413 2.54025405,20.691937 C2.6949899,20.8628384 2.91405836,20.9237729 3.12018528,20.8383224 L6.30267978,19.7887538 C7.06285484,20.3991664 7.97776574,20.8871766 8.93112616,21.2410596 L9.56244844,24.3654268 C9.60108552,24.5606663 9.78132933,24.7438257 10.0005853,24.7681641 C10.825093,24.9145492 11.6496007,25 12.500179,25 C13.3503821,25 14.1752649,24.9147269 14.999585,24.7681641 C15.218841,24.7438257 15.3992724,24.5606663 15.4379095,24.3654268 L16.0692318,21.2410596 C17.0225921,20.8871766 17.9116201,20.3991664 18.6976782,19.7887538 L21.8801726,20.8383224 C22.0864871,20.9235954 22.3055556,20.8628384 22.4599164,20.691937 C23.5552586,19.5082413 24.4440989,18.0802738 24.9596975,16.5791137 C25.0497256,16.3838741 24.9850179,16.1520382 24.8045866,16.0299911 L24.8045866,16.0299911 L24.8045866,16.0299911 L24.8045866,16.0299911 Z M12.5146696,20.5624151 C7.80719739,20.5624151 3.99108964,16.9527215 3.99108964,12.5 C3.99108964,8.04727848 7.80719739,4.43758485 12.5146696,4.43758485 C17.2221418,4.43758485 21.0382496,8.04727848 21.0382496,12.5 C21.0382496,16.9527215 17.2221418,20.5624151 12.5146696,20.5624151 Z M17.0598093,12.372234 C17.1368368,12.372234 17.1991414,12.4294324 17.1992481,12.5000489 C17.1992481,14.8579164 15.1096936,16.7763158 12.5413318,16.7763158 C9.9726499,16.7763158 7.88298872,14.8580143 7.88298872,12.5000489 C7.88298872,10.1420836 9.9726499,8.22368421 12.5413318,8.22368421 C13.4894514,8.22368421 14.4023647,8.48421121 15.1811733,8.97695985 C15.2443316,9.01711627 15.2603345,9.09654763 15.2168065,9.15472547 L13.690448,11.1917333 C13.6482003,11.2482461 13.5648785,11.2640148 13.5015069,11.2274823 C13.2359652,11.0741043 12.930096,10.9931059 12.6170789,10.9931059 C11.6976579,10.9931059 10.9495748,11.6798786 10.9495748,12.5241428 C10.9495748,13.3683091 11.6975512,14.0550818 12.6170789,14.0550818 C13.0764694,14.0550818 13.5152695,13.8782957 13.8283933,13.5749678 C13.8297802,13.5736945 13.8311671,13.5724212 13.832554,13.5709521 C13.8336208,13.5699727 13.8347944,13.5689932 13.8358612,13.5679159 L13.8356479,13.5675242 C13.8551715,13.54725 13.8673337,13.5210014 13.8673337,13.4918145 C13.8673337,13.4628236 13.8551715,13.4363791 13.8356479,13.416105 L13.835968,13.4157133 L13.1303459,12.578305 C13.0978066,12.5397157 13.0919389,12.4874144 13.1153032,12.443732 C13.1387741,12.3999518 13.1873163,12.372234 13.240446,12.372234 L17.0598093,12.372234 Z M12.5146696,19.5452007 C16.6280237,19.5452007 19.9626085,16.3909843 19.9626085,12.5 C19.9626085,8.60901566 16.6280237,5.45479925 12.5146696,5.45479925 C8.40131551,5.45479925 5.06673067,8.60901566 5.06673067,12.5 C5.06673067,16.3909843 8.40131551,19.5452007 12.5146696,19.5452007 Z" id="logo/gravity/white" fill-rule="nonzero"></path>
                    </g>
                </g>
            </g>
        </g>
    </g>
</svg>