<?xml version="1.0" encoding="UTF-8"?>
<svg width="40px" height="39px" viewBox="0 0 40 39" version="1.1" xmlns="http://www.w3.org/2000/svg" xmlns:xlink="http://www.w3.org/1999/xlink">
    <!-- Generator: Sketch 54.1 (76490) - https://sketchapp.com -->
    <title>kube-logo</title>
    <desc>Created with Sketch.</desc>
    <g id="Symbols" stroke="none" stroke-width="1" fill="none" fill-rule="evenodd" opacity="0.56">
        <g id="gravity/card/cluster---teleport" transform="translate(-64.000000, -112.000000)" fill="#FFFFFF">
            <g id="app">
                <g transform="translate(48.000000, 96.000000)">
                    <g id="gravity/icon/kube" transform="translate(16.000000, 16.000000)">
                        <g id="Combined-Shape">
                            <path d="M19.8613322,0.00337889563 C20.3061241,-0.018833994 20.7494875,0.0687457855 21.1507321,0.258080485 L35.0584671,6.81708556 C35.7875565,7.16098585 36.3171182,7.81138512 36.4972596,8.58418762 L39.9332883,23.3252617 C40.1134571,24.098422 39.9242652,24.9098733 39.4193067,25.5297479 L29.7977152,37.3514147 C29.2926702,37.9703206 28.5275204,38.3304024 27.7186689,38.3298202 L12.2832173,38.3333333 C11.4740631,38.333489 10.7088594,37.9727353 10.2041709,37.3531713 L0.579022415,25.533261 C0.52521147,25.4666259 0.474760817,25.3974518 0.427851383,25.3259866 C0.0369983739,24.7353718 -0.0932304575,24.0149521 0.0668193891,23.3287748 L3.49751257,8.58770075 C3.67765401,7.81489825 4.20721573,7.16449897 4.9363051,6.82059868 L18.8422616,0.258080485 C19.1612541,0.107566464 19.5077195,0.0209725848 19.8613322,0.00337889563 Z M20.1990989,5 C19.7225641,5.00004684 19.3361779,5.41557886 19.3362345,5.92815284 C19.3362351,5.93601958 19.3378983,5.94353676 19.3380753,5.95135666 C19.3373732,6.02100297 19.3338981,6.10490798 19.3362345,6.16554578 C19.347599,6.46118388 19.4141667,6.68745269 19.4542331,6.95983042 C19.5268187,7.54280522 19.5876405,8.02605585 19.5501069,8.47521843 C19.5136046,8.64459347 19.384739,8.79949561 19.2698603,8.90716648 L19.2495793,9.26057853 C18.7317533,9.30211237 18.2104634,9.37816778 17.6897859,9.49261674 C15.4493114,9.98509064 13.5203023,11.1023519 12.0516675,12.6108533 C11.9563707,12.5479143 11.78965,12.4321259 11.7400746,12.3966642 C11.5860175,12.4168048 11.430316,12.4628223 11.2275184,12.3484716 C10.8413735,12.0968348 10.4896811,11.7494886 10.0641264,11.3310733 C9.86913499,11.1309242 9.72792966,10.9403347 9.49625838,10.747408 C9.44364754,10.7035952 9.36335779,10.6443373 9.30451073,10.5992605 C9.12339003,10.4594624 8.90976426,10.3865553 8.70345559,10.3797167 C8.43820133,10.3709241 8.18284951,10.4713239 8.01574527,10.6742267 C7.71867152,11.0349429 7.81378366,11.5862754 8.22777392,11.9058141 C8.23197467,11.9090527 8.23644799,11.9115704 8.24068001,11.9147387 C8.29756829,11.9593825 8.3672311,12.0165859 8.41952157,12.0539616 C8.66536389,12.2296852 8.88993461,12.3196389 9.13488781,12.459136 C9.65095448,12.7676717 10.0787801,13.0235021 10.4181221,13.3319567 C10.5506356,13.4687047 10.5737964,13.7096675 10.5914325,13.8138822 L10.8679916,14.05306 C9.38749793,16.2100118 8.70231337,18.8742834 9.10723484,21.5889471 L8.74586427,21.690687 C8.65062174,21.8097538 8.5160379,21.9971053 8.37527211,22.0530236 C7.93129488,22.1884031 7.43162351,22.2381167 6.82838482,22.299341 C6.54517,22.3221393 6.30080266,22.308534 6.00055121,22.3635978 C5.9344673,22.3757169 5.84239067,22.3989401 5.77008528,22.4153601 C5.76757191,22.4158742 5.76522374,22.4165939 5.76271037,22.4171422 C5.75876922,22.4180275 5.75359145,22.4198781 5.74980428,22.420712 C5.24122225,22.5396749 4.91450786,22.9922257 5.01968823,23.4381103 C5.12489338,23.8840995 5.62166611,24.1553166 6.13329958,24.0485493 C6.13699294,24.0477325 6.14235597,24.0475955 6.14620567,24.0467673 C6.1519817,24.0454878 6.15706685,24.0427748 6.16279922,24.0414154 C6.2341205,24.0262588 6.32349968,24.0093955 6.38589024,23.9932228 C6.68108368,23.9167071 6.89487346,23.8042818 7.16025575,23.7058524 C7.73118821,23.5076121 8.20405503,23.342004 8.66473732,23.2774742 C8.85714458,23.2628854 9.05986196,23.3924029 9.16069999,23.4470406 L9.53682038,23.3845688 C10.4023504,25.9824154 12.216223,28.0821656 14.5130407,29.3997131 L14.3563238,29.7638346 C14.4128109,29.9052234 14.4751136,30.0965246 14.4330359,30.2361542 C14.2655558,30.6566046 13.9786842,31.1003913 13.65202,31.5951516 C13.4938517,31.8237296 13.3319766,32.0011176 13.1892444,32.2627077 C13.1550897,32.3253017 13.1115907,32.4214544 13.0786207,32.4876062 C12.8568519,32.9469625 13.0195247,33.4760291 13.4455225,33.6745709 C13.8741965,33.8743597 14.4062944,33.6636422 14.6365704,33.2033549 C14.6369244,33.2027037 14.6380867,33.202224 14.6384112,33.2015728 C14.6386472,33.2010588 14.6381752,33.2002877 14.6384112,33.1997908 C14.6712106,33.1345316 14.7176785,33.048752 14.7453474,32.9873866 C14.8676015,32.7162506 14.9082804,32.4838959 14.9942506,32.2216605 C15.2225553,31.6664743 15.3479908,31.0839433 15.6622746,30.7209596 C15.7483357,30.6215627 15.8886436,30.5833359 16.0341128,30.5456306 L16.2295479,30.202928 C18.2318796,30.9469811 20.4731689,31.146643 22.7120935,30.6545101 C23.2228485,30.5422424 23.7159332,30.3969434 24.1926066,30.222562 C24.2475338,30.3168812 24.3496114,30.498192 24.3769793,30.5438457 C24.5248073,30.5904064 24.6861615,30.6144505 24.8176302,30.8026576 C25.0527653,31.1915667 25.2135684,31.6516553 25.4094667,32.2073812 C25.4954511,32.4696121 25.5379447,32.701977 25.6602136,32.9731073 C25.6880813,33.0349051 25.7343167,33.1218893 25.7671498,33.1872964 C25.9969414,33.649079 26.5307255,33.8605168 26.9600415,33.6602974 C27.3859867,33.4616498 27.5488389,32.9326313 27.3269432,32.4733327 C27.2939691,32.4071831 27.2486335,32.3110265 27.2144758,32.2484341 C27.0717294,31.9868515 26.9098803,31.8112324 26.7517003,31.5826629 C26.4250089,31.0879192 26.1540565,30.6769171 25.9865534,30.2564753 C25.9165147,30.0396263 25.9983698,29.9047631 26.0529276,29.7638404 C26.0202549,29.7275841 25.950339,29.5228011 25.9091168,29.4264925 C28.2960742,28.0620701 30.056681,25.8840164 30.8834934,23.3685103 C30.9951436,23.3854981 31.1892005,23.4187368 31.2522389,23.4309821 C31.3820101,23.3481223 31.5013303,23.24001 31.7352954,23.2578459 C32.1959807,23.3223522 32.6688339,23.4880124 33.239777,23.6862241 C33.5051646,23.7846403 33.7189455,23.8988785 34.0141425,23.9753795 C34.0765337,23.9915487 34.1659111,24.0066339 34.2372335,24.0217871 C34.2429683,24.0231465 34.2480481,24.0258653 34.2538271,24.027139 C34.2576797,24.0279729 34.2630398,24.0281042 34.2667332,24.028921 C34.7783961,24.1355558 35.2752574,23.8644975 35.3803445,23.418482 C35.4854069,22.9725711 35.1588435,22.5199153 34.6502285,22.4010837 C34.5762475,22.3847979 34.4713279,22.357139 34.3994815,22.3439666 C34.0992271,22.2889183 33.8548639,22.3024939 33.5716479,22.2797099 C32.9684063,22.2185158 32.468745,22.1687491 32.0247606,22.0333924 C31.8437355,21.9654071 31.7149537,21.7568748 31.6523248,21.6710558 L31.3038603,21.5728858 C31.4845314,20.3074896 31.4358151,18.9905453 31.123175,17.672859 C30.8076238,16.3429039 30.2499639,15.1265308 29.5062261,14.0548478 C29.5956129,13.976181 29.7644181,13.831468 29.8122848,13.7888963 C29.8262771,13.6390113 29.8142554,13.4818616 29.9745328,13.3158953 C30.3138577,13.0074236 30.7417175,12.7516367 31.2577671,12.4430747 C31.5027126,12.303565 31.7291442,12.2136364 31.9749771,12.0379003 C32.0305691,11.9981605 32.1064805,11.9352271 32.164881,11.8897528 C32.5787833,11.5701067 32.674079,11.0188073 32.3769096,10.6581654 C32.0797403,10.2975234 31.5038902,10.2635531 31.0899879,10.5831992 C31.0310736,10.6283702 30.9511313,10.6872962 30.8982402,10.7313467 C30.6665796,10.9242859 30.5235093,11.1148531 30.3285285,11.315012 C29.9029968,11.733449 29.5512679,12.0825384 29.1651365,12.3341952 C28.9978139,12.428499 28.7527339,12.3958691 28.6415149,12.3895274 L28.3133315,12.6162109 C26.4419452,10.7164637 23.8940107,9.50187485 21.1504623,9.26593325 C21.1427888,9.15462802 21.132736,8.9534359 21.1301813,8.89288721 C21.0178638,8.78883985 20.8821825,8.70001076 20.848091,8.47521843 C20.8105574,8.02605585 20.8732229,7.54280522 20.9458085,6.95983042 C20.9858749,6.68745269 21.0524427,6.46118388 21.0638071,6.16554578 C21.0663913,6.09834009 21.0622436,6.0008195 21.0619663,5.92815284 C21.0619097,5.41557886 20.6756367,4.99995316 20.1991019,5 Z M19.1186747,11.4792208 L18.8623966,15.8611732 L18.8439593,15.8700977 C18.8267704,16.2621123 18.4935059,16.5751369 18.0843436,16.5751369 C17.9167379,16.5751369 17.7620341,16.5230295 17.6363178,16.434129 L17.6289429,16.4376989 L13.9175197,13.8906333 C15.058191,12.8047716 16.5171995,12.0023197 18.1986547,11.632723 C18.5058043,11.5652089 18.8128171,11.5151132 19.1186747,11.4792208 Z M21.2813669,11.4792208 C23.2444776,11.7129622 25.0599762,12.573517 26.4511786,13.8924182 L22.7637238,16.4234196 L22.7508177,16.4180677 C22.4235221,16.6494885 21.962385,16.5920687 21.707268,16.2824146 C21.6027614,16.1555598 21.5479274,16.0064025 21.5413325,15.8558213 L21.537645,15.8540392 L21.2813669,11.4792208 Z M12.5715986,15.5273951 L15.9603696,18.461786 L15.9566822,18.4796351 C16.2625563,18.7370602 16.3076618,19.1837713 16.052556,19.4934636 C15.9480565,19.6203235 15.8081763,19.7054103 15.6579983,19.7451358 L15.6543109,19.7594151 L11.3104891,20.9731534 C11.0894023,19.0160264 11.5658704,17.1135432 12.5715986,15.5273951 Z M27.8026308,15.5291772 C28.3061365,16.3192529 28.6874164,17.201688 28.9143984,18.1583486 C29.1386582,19.1035383 29.1949394,20.047038 29.1024586,20.9588713 L24.7365121,19.7415631 L24.7328246,19.7237141 C24.3418659,19.6202727 24.1015955,19.2352703 24.1926125,18.8491085 C24.2299018,18.6909158 24.316642,18.5570893 24.4341408,18.4582134 L24.4323,18.4492888 L27.8026337,15.5291772 Z M19.5040137,18.6884667 L20.8923404,18.6884667 L21.7552049,19.7326386 L21.4454587,21.0356224 L20.1990989,21.6157179 L18.9490518,21.0338375 L18.6393056,19.7308537 L19.5040137,18.6884667 Z M23.9547717,22.2618551 C24.0137692,22.2589707 24.0725095,22.2641169 24.1299258,22.2743495 L24.1373007,22.2654249 L28.6304644,23.0008075 C27.9728879,24.7893209 26.7145921,26.338741 25.0333522,27.3756203 L23.2891861,23.2971025 L23.2947143,23.2899629 C23.1344953,22.9295545 23.2948323,22.5069126 23.6634598,22.3350364 C23.757838,22.2910328 23.8564399,22.2666666 23.9547687,22.2618551 Z M16.4083954,22.2797042 C16.7512838,22.2843592 17.05884,22.5147553 17.1385114,22.8526601 C17.1758102,23.0108504 17.1576567,23.1675895 17.0961057,23.306027 L17.1090118,23.3220912 L15.3832829,27.3595561 C13.7698203,26.357231 12.4846915,24.8564547 11.7972331,23.0150897 L16.2516786,22.2832769 L16.2590535,22.2922014 C16.3088789,22.2833248 16.3594112,22.2790416 16.4083954,22.279707 Z M20.171443,24.0485522 C20.2908841,24.0443027 20.4120804,24.068028 20.5272824,24.1217335 C20.6782917,24.192132 20.7949462,24.3029769 20.868372,24.4358775 L20.8849655,24.4358775 L23.0808449,28.2770023 C22.7958613,28.369488 22.5028827,28.4485295 22.2032306,28.5143953 C20.5238439,28.8835374 18.8497931,28.7716889 17.3339465,28.2716476 L19.5242947,24.4376624 L19.5279822,24.4376624 C19.6594131,24.1998034 19.9086732,24.0578982 20.171443,24.0485522 Z" fill-rule="nonzero"></path>
                        </g>
                    </g>
                </g>
            </g>
        </g>
    </g>
</svg>