<?xml version="1.0" encoding="utf-8"?>
<!-- Generator: Adobe Illustrator 18.1.1, SVG Export Plug-In . SVG Version: 6.00 Build 0)  -->
<svg version="1.1" id="Layer_1" xmlns="http://www.w3.org/2000/svg" xmlns:xlink="http://www.w3.org/1999/xlink" x="0px" y="0px"
	 viewBox="0 0 1123 333" enable-background="new 0 0 1123 333" xml:space="preserve">
<g>
	<g>
		<defs>
			<rect id="SVGID_1_" x="4.6" y="3.7" width="1095.6" height="323.3"/>
		</defs>
		<clipPath id="SVGID_2_">
			<use xlink:href="#SVGID_1_"  overflow="visible"/>
		</clipPath>
		<path clip-path="url(#SVGID_2_)" fill="#00A1DF" d="M166.9,314.5c-81.8,0-148.1-66.3-148.1-148.1C18.7,84.5,85,18.2,166.9,18.2
			c81.8,0,148.1,66.3,148.1,148.1C315,248.1,248.7,314.5,166.9,314.5L166.9,314.5z M166.8,3.7C77.3,3.7,4.5,76.2,4.5,165.3
			C4.5,254.5,77.3,327,166.8,327c89.5,0,162.4-72.5,162.4-161.6C329.2,76.2,256.4,3.7,166.8,3.7L166.8,3.7z"/>
	</g>
	<path fill="#00A1DF" d="M125.7,237.9c-24.5-11.5-41.5-37.5-41.5-67.6c0-15.9,4.7-30.6,12.8-42.6l53.4,79.6h32.3l53.4-79.6
		c8.1,12,12.8,26.8,12.8,42.6c0,28.1-14.8,52.5-36.6,65.1l10.3,39.4c39.2-20.2,65.9-61,65.9-108.1c0-44.5-23.9-83.3-59.5-104.5
		l-62,95.7l-61.4-96.1c-36,21.1-60.2,60.2-60.2,104.9c0,48.8,28.7,90.9,70.2,110.2L125.7,237.9L125.7,237.9z"/>
	<polygon fill="#00A1DF" points="451.7,182.2 411.8,97.2 391,97.2 391,233.8 411.8,233.8 411.8,142.5 444,209.1 459.4,209.1 
		490.8,142.5 490.8,233.8 511.5,233.8 511.5,97.2 490.8,97.2 451.7,182.2 	"/>
	<path fill="#00A1DF" d="M589.4,195.8c0,15-9.2,21.7-20.1,21.7c-10.9,0-19.6-6.5-19.6-21.7v-59.3h-19.6v62.2c0,11,2.3,20.2,9.8,27.5
		c5.8,5.5,14,8.8,24,8.8c9.8,0,19.2-3.6,25.9-10.9v9.8H609v-97.3h-19.6V195.8L589.4,195.8z"/>
	<path fill="#00A1DF" d="M647.3,205.8V97.2h-19.6v109.7c0,14.4,8.1,26.9,26.7,26.9h12.1v-16.7h-8.6
		C650,217.1,647.3,213.3,647.3,205.8L647.3,205.8z"/>
	<path fill="#00A1DF" d="M691.7,177.2c0.2-5.9,0.6-8.8,2.5-13.2c3.1-7.3,10.2-12.3,19.4-12.3c9.2,0,16.1,5,19.2,12.3
		c1.9,4.4,2.5,7.3,2.7,13.2H691.7L691.7,177.2z M713.6,135.4c-24.9,0-41.2,18.2-41.2,49.7c0,37,19.4,49.9,43.8,49.9
		c17.1,0,26.5-5.2,36.4-15.2L740,208.1c-6.9,6.9-12.7,10-23.6,10c-15.9,0-24.8-10.5-24.8-27.2h63.1v-8.6
		C754.8,154.6,739.7,135.4,713.6,135.4L713.6,135.4z"/>
	<path fill="#00A1DF" d="M851.4,166.8c-5.8-5.2-12.9-8.3-25.5-10.2l-15.5-2.3c-6.3-1-11.9-3.3-15.3-6.3c-3.6-3.3-5.2-7.7-5.2-12.7
		c0-12.1,8.8-21.3,24.9-21.3c11.5,0,21.3,2.5,29.7,10.5l13.2-13C846,100.7,833.4,96,815.3,96c-28.4,0-45.7,16.3-45.7,40.1
		c0,11.1,3.3,19.8,10,26.1c5.9,5.6,14.8,9.4,25.9,10.9l16.1,2.3c8.1,1.1,11.5,2.5,15,5.8c3.6,3.2,5.4,8.3,5.4,14.2
		c0,13.2-10.4,20.9-28.2,20.9c-14,0-24.9-3.1-34.9-13l-13.8,13.6c13,13.2,27.8,18,48.4,18c28.6,0,49.1-15,49.1-40.1
		C862.5,183.2,858.9,173.4,851.4,166.8L851.4,166.8z"/>
	<path fill="#00A1DF" d="M928.6,211.8c-3.6,3.6-8.6,5.7-14.4,5.7c-5.8,0-10.6-2.1-14.2-5.7c-6-5.9-6.7-16.1-6.7-26.7
		c0-10.6,0.8-20.7,6.7-26.7c3.6-3.6,8.4-5.6,14.2-5.6c5.7,0,10.7,1.9,14.4,5.6c5.9,5.9,6.7,16.1,6.7,26.7
		C935.3,195.6,934.5,205.8,928.6,211.8L928.6,211.8z M914.2,135.4c-13.2,0-22.6,5-29,11.5c-9.2,9.6-11.5,21.9-11.5,38.2
		c0,16.5,2.3,28.8,11.5,38.4c6.3,6.5,15.7,11.5,29,11.5c13.2,0,22.8-5,29.2-11.5c9.2-9.6,11.5-21.9,11.5-38.4
		c0-16.3-2.3-28.6-11.5-38.2C937,140.4,927.4,135.4,914.2,135.4L914.2,135.4z"/>
	<path fill="#00A1DF" d="M974.6,123.3v15h-11.1v15h11.1v80.6h19.6v-80.6h19.4v-15h-19.4v-14c0-7.1,3.4-11.3,10.7-11.3h8.6V96.2
		h-12.3C983.1,96.2,974.6,109.3,974.6,123.3L974.6,123.3z"/>
	<path fill="#00A1DF" d="M1056.4,108.7h-19.6v29.5h-11.1v15h11.1v53.5c0,14,8.4,27.1,26.7,27.1h11.7v-16.7h-8.1
		c-7.3,0-10.7-4.2-10.7-11.3v-52.6h18.8v-15h-18.8V108.7L1056.4,108.7z"/>
	<path fill="#00A1DF" d="M1097.7,131.5c-0.4,1.1-1,2-1.8,2.8c-0.8,0.8-1.7,1.4-2.7,1.9c-1,0.5-2.2,0.7-3.4,0.7
		c-1.2,0-2.4-0.2-3.4-0.7c-1.1-0.5-2-1.1-2.7-1.9c-0.8-0.8-1.4-1.8-1.8-2.8c-0.4-1.1-0.7-2.3-0.7-3.6c0-1.3,0.2-2.4,0.7-3.5
		c0.4-1.1,1-2,1.8-2.8c0.8-0.8,1.7-1.4,2.7-1.9c1.1-0.5,2.2-0.7,3.4-0.7c1.2,0,2.3,0.2,3.4,0.7c1,0.5,2,1.1,2.7,1.9
		c0.8,0.8,1.4,1.7,1.8,2.8c0.4,1.1,0.7,2.3,0.7,3.5C1098.3,129.2,1098.1,130.4,1097.7,131.5L1097.7,131.5z M1099.4,123.8
		c-0.6-1.3-1.3-2.4-2.3-3.3c-1-0.9-2.1-1.7-3.3-2.2c-1.3-0.5-2.6-0.8-4.1-0.8c-1.4,0-2.8,0.3-4.1,0.8c-1.3,0.5-2.4,1.3-3.4,2.2
		c-1,0.9-1.7,2-2.3,3.3c-0.6,1.3-0.8,2.6-0.8,4.1c0,1.5,0.3,2.9,0.8,4.2c0.6,1.3,1.3,2.4,2.3,3.3c1,0.9,2.1,1.7,3.4,2.2
		c1.3,0.5,2.6,0.8,4.1,0.8c1.4,0,2.8-0.3,4.1-0.8c1.3-0.5,2.4-1.3,3.3-2.2c1-0.9,1.7-2.1,2.3-3.3c0.6-1.3,0.8-2.7,0.8-4.2
		C1100.2,126.4,1100,125.1,1099.4,123.8L1099.4,123.8z"/>
	<path fill="#00A1DF" d="M1089.5,127.3h-2v-3.9h2.5c0.3,0,0.6,0,1,0.1c0.3,0,0.6,0.1,0.9,0.3c0.3,0.1,0.5,0.3,0.6,0.6
		c0.2,0.2,0.2,0.6,0.2,1c0,0.5-0.1,0.9-0.3,1.1c-0.2,0.3-0.4,0.5-0.7,0.6c-0.3,0.1-0.6,0.2-1,0.2
		C1090.4,127.3,1090,127.3,1089.5,127.3L1089.5,127.3z M1093.7,127.8c0.6-0.5,0.9-1.3,0.9-2.4c0-1.2-0.3-2.1-1.1-2.6
		c-0.7-0.6-1.8-0.9-3.2-0.9h-4.7v12.3h1.9v-5.3h2l3.3,5.3h2l-3.5-5.4C1092.4,128.6,1093.1,128.3,1093.7,127.8L1093.7,127.8z"/>
</g>
</svg>
