<?xml version="1.0" encoding="UTF-8"?>
<svg width="120px" height="24px" viewBox="0 0 120 24" version="1.1" xmlns="http://www.w3.org/2000/svg" xmlns:xlink="http://www.w3.org/1999/xlink">
    <!-- Generator: Sketch 64 (93537) - https://sketch.com -->
    <title>gravity/logo/teleport - with text</title>
    <desc>Created with Sketch.</desc>
    <defs>
        <path d="M3.55972833,12.75 L3.55972833,2.32142857 L0,2.32142857 L0,0.25 L9.63643628,0.25 L9.63643628,2.32142857 L6.07670795,2.32142857 L6.07670795,12.75 L3.55972833,12.75 Z M11.4882141,12.75 L11.4882141,0.25 L20.2976428,0.25 L20.2976428,2.32142857 L14.0051938,2.32142857 L14.0051938,5.375 L19.7582901,5.375 L19.7582901,7.46428571 L14.0051938,7.46428571 L14.0051938,10.6785714 L20.3156213,10.6785714 L20.3156213,12.75 L11.4882141,12.75 Z M22.5988813,12.75 L22.5988813,0.25 L25.115861,0.25 L25.115861,10.6785714 L30.9049141,10.6785714 L30.9049141,12.75 L22.5988813,12.75 Z M33.0263684,12.75 L33.0263684,0.25 L41.835797,0.25 L41.835797,2.32142857 L35.543348,2.32142857 L35.543348,5.375 L41.2964443,5.375 L41.2964443,7.46428571 L35.543348,7.46428571 L35.543348,10.6785714 L41.8537755,10.6785714 L41.8537755,12.75 L33.0263684,12.75 Z M44.1370356,12.75 L44.1370356,0.25 L49.3687575,0.25 C50.8070388,0.25 51.945661,0.633924732 52.7846584,1.40178571 C53.6236558,2.1696467 54.0431482,3.1845175 54.0431482,4.44642857 C54.0431482,5.70833964 53.6146667,6.73511509 52.7576908,7.52678571 C51.9007149,8.31845634 50.7710817,8.71428571 49.3687575,8.71428571 L46.6540152,8.71428571 L46.6540152,12.75 L44.1370356,12.75 Z M46.6540152,6.66071429 L49.2069517,6.66071429 C49.974035,6.66071429 50.5523352,6.4553592 50.9418698,6.04464286 C51.3314043,5.63392652 51.5261686,5.10119375 51.5261686,4.44642857 C51.5261686,3.80357143 51.3314043,3.28571625 50.9418698,2.89285714 C50.5523352,2.49999804 49.974035,2.30357143 49.2069517,2.30357143 L46.6540152,2.30357143 L46.6540152,6.66071429 Z M66.69996,5.58928571 L66.69996,7.41071429 C66.69996,9.06548446 66.2145474,10.4107091 65.2437076,11.4464286 C64.2728677,12.482148 62.8885427,13 61.0906912,13 C59.3048253,13 57.9234967,12.482148 56.946664,11.4464286 C55.9698313,10.4107091 55.4814223,9.06548446 55.4814223,7.41071429 L55.4814223,5.58928571 C55.4814223,3.93451554 55.9698313,2.58929089 56.946664,1.55357143 C57.9234967,0.517851964 59.3048253,0 61.0906912,0 C62.8885427,0 64.2728677,0.517851964 65.2437076,1.55357143 C66.2145474,2.58929089 66.69996,3.93451554 66.69996,5.58928571 Z M58.7714742,10.0178571 C59.298844,10.625003 60.0719086,10.9285714 61.0906912,10.9285714 C62.1094737,10.9285714 62.8795419,10.6220269 63.4009189,10.0089286 C63.9222959,9.39583027 64.1829804,8.57142857 64.1829804,7.53571429 L64.1829804,5.46428571 C64.1829804,4.42856625 63.9222959,3.60416973 63.4009189,2.99107143 C62.8795419,2.37797313 62.1094737,2.07142857 61.0906912,2.07142857 C60.0719086,2.07142857 59.3018404,2.37797313 58.7804634,2.99107143 C58.2590865,3.60416973 57.9984019,4.42856625 57.9984019,5.46428571 L57.9984019,7.53571429 C57.9984019,8.57142857 58.2560901,9.39880643 58.7714742,10.0178571 Z M76.5521374,12.75 L74.2508989,8.75 L71.6080703,8.75 L71.6080703,12.75 L69.0910907,12.75 L69.0910907,0.25 L74.7722733,0.25 C76.2105545,0.25 77.3282022,0.642853214 78.1252497,1.42857143 C78.9222972,2.21428964 79.320815,3.23808893 79.320815,4.5 C79.320815,5.38095679 79.1020797,6.16071089 78.6646025,6.83928571 C78.2271253,7.51786054 77.6188613,8.02380786 76.8397922,8.35714286 L79.4646424,12.75 L76.5521374,12.75 Z M71.6080703,6.73214286 L74.46664,6.73214286 C75.2217377,6.73214286 75.8000379,6.52678777 76.2015581,6.11607143 C76.6030783,5.70535509 76.8038354,5.16071768 76.8038354,4.48214286 C76.8038354,3.80356804 76.6030783,3.26785911 76.2015581,2.875 C75.8000379,2.48214089 75.2217377,2.28571429 74.46664,2.28571429 L71.6080703,2.28571429 L71.6080703,6.73214286 Z M83.923292,12.75 L83.923292,2.32142857 L80.3635637,2.32142857 L80.3635637,0.25 L90,0.25 L90,2.32142857 L86.4402717,2.32142857 L86.4402717,12.75 L83.923292,12.75 Z" id="path-1"></path>
    </defs>
    <g id="Teleport-5.0" stroke="none" stroke-width="1" fill="none" fill-rule="evenodd">
        <g id="Teleport---Audit-Log-Sessions" transform="translate(-32.000000, -16.000000)" fill="#FFFFFF">
            <g id="Top-Nav">
                <g id="gravity/navigation/primary">
                    <g id="Top-Nav">
                        <g id="gravity/navigation/primary">
                            <g id="gravity/logo/teleport---with-text" transform="translate(32.000000, 16.000000)">
                                <g>
                                    <g id="Product-2" transform="translate(30.000000, 6.000000)">
                                        <g id="Product">
                                            <use fill-opacity="0.56" xlink:href="#path-1"></use>
                                            <use xlink:href="#path-1"></use>
                                        </g>
                                    </g>
                                    <g id="logo/gravity/white-2">
                                        <g id="logo/teleport/white">
                                            <g id="logo-teleport-copy">
                                                <path d="M8.80035006,0.221307412 C10.2516486,-0.0737691373 11.7481712,-0.0737691373 13.1994697,0.221307412 C13.3924151,0.243942063 13.5511947,0.414280205 13.5851954,0.595853065 L13.5851954,0.595853065 L14.1405939,3.50118405 C14.979551,3.83046038 15.7620605,4.28430993 16.4536267,4.85182837 L16.4536267,4.85182837 L19.2542218,3.87589491 C19.4357785,3.79626059 19.6285588,3.85309505 19.7643963,4.01203326 C20.7282975,5.11287035 21.5104769,6.44088004 21.9642037,7.83679368 C22.0437585,8.01853176 21.9868158,8.23397398 21.8280362,8.34747766 L21.8280362,8.34747766 L19.6057817,10.2770404 C19.6851715,10.7084205 19.7077836,11.1738352 19.7077836,11.6276848 C19.7077836,12.0816995 19.6851715,12.5471142 19.6057817,12.9784943 L19.6057817,12.9784943 L21.8280362,14.9078918 C21.9868158,15.0213955 22.0437585,15.2370029 21.9645338,15.4185757 C21.510807,16.8146546 20.7286276,18.1426644 19.7647264,19.2435014 C19.6288889,19.4024397 19.4361086,19.4589438 19.2545519,19.3796398 L19.2545519,19.3796398 L16.4539568,18.403541 C15.7622257,18.9712247 14.9798811,19.4250743 14.140924,19.7541855 L14.140924,19.7541855 L13.5853604,22.6598469 C13.5513597,22.8414197 13.39258,23.0117579 13.1996348,23.0343926 C12.4742332,23.170696 11.7483363,23.25 11.0001575,23.25 C10.2516486,23.25 9.52608186,23.1705308 8.80051511,23.0343926 C8.60756981,23.0117579 8.44895526,22.8414197 8.41495462,22.6598469 L8.41495462,22.6598469 L7.85939102,19.7541855 C7.02043385,19.4250743 6.21531226,18.9712247 5.5463582,18.403541 L5.5463582,18.403541 L2.74576304,19.3796398 C2.56437136,19.4591088 2.37159111,19.4024397 2.23542357,19.2435014 C1.27168739,18.1426644 0.489342923,16.8146546 0.0357811876,15.4185757 C-0.0436086211,15.2370029 0.0131691216,15.0213955 0.171783688,14.9078918 L0.171783688,14.9078918 L2.39387308,12.9786595 C2.31448327,12.5471142 2.29187121,12.0818647 2.29187121,11.6278499 C2.29187121,11.1740004 2.31464832,10.7084205 2.39387308,10.2772056 L2.39387308,10.2772056 L0.171618635,8.34764289 C0.0130040699,8.2341392 -0.0437736728,8.01869697 0.0356161361,7.8369589 C0.489177871,6.44104526 1.27152235,5.11303556 2.23525851,4.01219846 C2.37142607,3.85326025 2.56420631,3.79659102 2.74559799,3.87606012 L2.74559799,3.87606012 L5.54619316,4.8519936 C6.21514721,4.28447515 7.02026881,3.83062561 7.85922597,3.50134925 L7.85922597,3.50134925 L8.41478958,0.595853065 C8.44879021,0.414280205 8.60756981,0.243942063 8.80035006,0.221307412 Z M11.0129093,4.12695391 C6.8703337,4.12695391 3.51215889,7.48396899 3.51215889,11.625 C3.51215889,15.766031 6.8703337,19.1230461 11.0129093,19.1230461 C15.1554848,19.1230461 18.5136596,15.766031 18.5136596,11.625 C18.5136596,7.48396899 15.1554848,4.12695391 11.0129093,4.12695391 Z M11.0129093,5.0729633 C14.6326609,5.0729633 17.5670955,8.00638456 17.5670955,11.625 C17.5670955,15.2436154 14.6326609,18.1770367 11.0129093,18.1770367 C7.39315765,18.1770367 4.45872299,15.2436154 4.45872299,11.625 C4.45872299,8.00638456 7.39315765,5.0729633 11.0129093,5.0729633 Z M14.9909881,8.56578947 L7.34375998,8.56578947 L7.34375998,10.401974 L10.0960771,10.401974 L10.0960771,14.992629 L12.2365658,14.992629 L12.2365658,10.401974 L14.9909881,10.401974 L14.9909881,8.56578947 Z" id="Combined-Shape" fill-rule="nonzero"></path>
                                            </g>
                                        </g>
                                    </g>
                                </g>
                            </g>
                        </g>
                    </g>
                </g>
            </g>
        </g>
    </g>
</svg>