<?xml version="1.0" encoding="UTF-8"?>
<svg width="123px" height="24px" viewBox="0 0 123 24" version="1.1" xmlns="http://www.w3.org/2000/svg" xmlns:xlink="http://www.w3.org/1999/xlink">
    <!-- Generator: Sketch 52.5 (67469) - http://www.bohemiancoding.com/sketch -->
    <title>teleport-logo</title>
    <desc>Created with Sketch.</desc>
    <defs>
        <linearGradient x1="75.3955078%" y1="131.16862%" x2="25.2392578%" y2="-83.0891927%" id="linearGradient-1">
            <stop stop-color="#FFFFFF" offset="0%"></stop>
            <stop stop-color="#E8EAF6" offset="38.3991015%"></stop>
            <stop stop-color="#E8EAF6" stop-opacity="0.24" offset="100%"></stop>
        </linearGradient>
        <path d="M36.032,17 L36.032,6.488 L32.468,6.488 L32.468,4.4 L42.116,4.4 L42.116,6.488 L38.552,6.488 L38.552,17 L36.032,17 Z M43.97,17 L43.97,4.4 L52.79,4.4 L52.79,6.488 L46.49,6.488 L46.49,9.566 L52.25,9.566 L52.25,11.672 L46.49,11.672 L46.49,14.912 L52.808,14.912 L52.808,17 L43.97,17 Z M55.094,17 L55.094,4.4 L57.614,4.4 L57.614,14.912 L63.41,14.912 L63.41,17 L55.094,17 Z M65.534,17 L65.534,4.4 L74.354,4.4 L74.354,6.488 L68.054,6.488 L68.054,9.566 L73.814,9.566 L73.814,11.672 L68.054,11.672 L68.054,14.912 L74.372,14.912 L74.372,17 L65.534,17 Z M76.658,17 L76.658,4.4 L81.896,4.4 C83.3360072,4.4 84.4759958,4.78699613 85.316,5.561 C86.1560042,6.33500387 86.576,7.35799364 86.576,8.63 C86.576,9.90200636 86.1470043,10.936996 85.289,11.735 C84.4309957,12.533004 83.300007,12.932 81.896,12.932 L79.178,12.932 L79.178,17 L76.658,17 Z M79.178,10.862 L81.734,10.862 C82.5020038,10.862 83.0809981,10.6550021 83.471,10.241 C83.861002,9.82699793 84.056,9.2900033 84.056,8.63 C84.056,7.98199676 83.861002,7.46000198 83.471,7.064 C83.0809981,6.66799802 82.5020038,6.47 81.734,6.47 L79.178,6.47 L79.178,10.862 Z M99.248,9.782 L99.248,11.618 C99.248,13.2860083 98.7620049,14.6419948 97.79,15.686 C96.8179951,16.7300052 95.432009,17.252 93.632,17.252 C91.8439911,17.252 90.4610049,16.7300052 89.483,15.686 C88.5049951,14.6419948 88.016,13.2860083 88.016,11.618 L88.016,9.782 C88.016,8.11399166 88.5049951,6.75800522 89.483,5.714 C90.4610049,4.66999478 91.8439911,4.148 93.632,4.148 C95.432009,4.148 96.8179951,4.66999478 97.79,5.714 C98.7620049,6.75800522 99.248,8.11399166 99.248,9.782 Z M91.31,14.246 C91.8380026,14.8580031 92.6119949,15.164 93.632,15.164 C94.6520051,15.164 95.4229974,14.8550031 95.945,14.237 C96.4670026,13.6189969 96.728,12.7880052 96.728,11.744 L96.728,9.656 C96.728,8.61199478 96.4670026,7.78100309 95.945,7.163 C95.4229974,6.54499691 94.6520051,6.236 93.632,6.236 C92.6119949,6.236 91.8410026,6.54499691 91.319,7.163 C90.7969974,7.78100309 90.536,8.61199478 90.536,9.656 L90.536,11.744 C90.536,12.7880052 90.7939974,13.6219969 91.31,14.246 Z M109.112,17 L106.808,12.968 L104.162,12.968 L104.162,17 L101.642,17 L101.642,4.4 L107.33,4.4 C108.770007,4.4 109.888996,4.79599604 110.687,5.588 C111.485004,6.38000396 111.884,7.41199364 111.884,8.684 C111.884,9.57200444 111.665002,10.3579966 111.227,11.042 C110.788998,11.7260034 110.180004,12.2359983 109.4,12.572 L112.028,17 L109.112,17 Z M104.162,10.934 L107.024,10.934 C107.780004,10.934 108.358998,10.7270021 108.761,10.313 C109.163002,9.89899793 109.364,9.35000342 109.364,8.666 C109.364,7.98199658 109.163002,7.44200198 108.761,7.046 C108.358998,6.64999802 107.780004,6.452 107.024,6.452 L104.162,6.452 L104.162,10.934 Z M116.492,17 L116.492,6.488 L112.928,6.488 L112.928,4.4 L122.576,4.4 L122.576,6.488 L119.012,6.488 L119.012,17 L116.492,17 Z" id="path-2"></path>
    </defs>
    <g id="Teleport" stroke="none" stroke-width="1" fill="none" fill-rule="evenodd">
        <g id="Clusters-Homepage" transform="translate(-32.000000, -24.000000)">
            <g id="gravity/navigation/primary">
                <g id="Group" transform="translate(32.000000, 24.000000)">
                    <g id="teleport-logo">
                        <g id="Product">
                            <use fill-opacity="0.56" fill="#FFFFFF" xlink:href="#path-2"></use>
                            <use fill="url(#linearGradient-1)" xlink:href="#path-2"></use>
                        </g>
                        <g id="logo/teleport/white" fill="#FFFFFF">
                            <g id="logo-teleport-copy">
                                <path d="M23.8124031,14.9078918 C23.9856172,15.0213955 24.0477366,15.2370029 23.9613096,15.4185757 C23.4663349,16.8146546 22.6130483,18.1426644 21.5615197,19.2435014 C21.4133334,19.4024397 21.2030276,19.4589438 21.0049657,19.3796398 L17.9497711,18.403541 C17.1951553,18.9712247 16.3416885,19.4250743 15.4264625,19.7541855 L14.8203931,22.6598469 C14.7833015,22.8414197 14.6100873,23.0117579 14.3996016,23.0343926 C13.6082544,23.170696 12.8163668,23.25 12.0001718,23.25 C11.1836167,23.25 10.3920893,23.1705308 9.60056193,23.0343926 C9.39007616,23.0117579 9.2170421,22.8414197 9.1799505,22.6598469 L8.57388111,19.7541855 C7.65865511,19.4250743 6.78034064,18.9712247 6.05057259,18.403541 L2.99537787,19.3796398 C2.79749603,19.4591088 2.5871903,19.4024397 2.43864389,19.2435014 C1.38729534,18.1426644 0.533828643,16.8146546 0.0390340229,15.4185757 C-0.0475730412,15.2370029 0.0143663145,15.0213955 0.187400387,14.9078918 L2.61149791,12.9786595 C2.52489084,12.5471142 2.50022314,12.0818647 2.50022314,11.6278499 C2.50022314,11.1740004 2.52507089,10.7084205 2.61149791,10.2772056 L0.18722033,8.34764289 C0.0141862581,8.2341392 -0.0477530976,8.01869697 0.0388539666,7.8369589 C0.533648587,6.44104526 1.38711529,5.11303556 2.43846383,4.01219846 C2.58701025,3.85326025 2.79731598,3.79659102 2.9951978,3.87606012 L6.05039253,4.8519936 C6.78016059,4.28447515 7.65847506,3.83062561 8.57370106,3.50134925 L9.17977045,0.595853065 C9.21686205,0.414280205 9.39007616,0.243942063 9.60038188,0.221307412 C11.1836167,-0.0737691373 12.8161868,-0.0737691373 14.3994215,0.221307412 C14.6099074,0.243942063 14.7831214,0.414280205 14.8202132,0.595853065 L15.4261024,3.50118405 C16.3413283,3.83046038 17.1949751,4.28430993 17.949411,4.85182837 L21.0046056,3.87589491 C21.2026675,3.79626059 21.4129733,3.85309505 21.5611596,4.01203326 C22.6126881,5.11287035 23.4659748,6.44088004 23.9609495,7.83679368 C24.0477366,8.01853176 23.9856172,8.23397398 23.8124031,8.34747766 L21.3881255,10.2770404 C21.4747325,10.7084205 21.4994003,11.1738352 21.4994003,11.6276848 C21.4994003,12.0816995 21.4747325,12.5471142 21.3881255,12.9784943 L23.8124031,14.9078918 Z M12.0140828,19.1230461 C16.5332562,19.1230461 20.1967196,15.766031 20.1967196,11.625 C20.1967196,7.48396899 16.5332562,4.12695391 12.0140828,4.12695391 C7.49490949,4.12695391 3.83144606,7.48396899 3.83144606,11.625 C3.83144606,15.766031 7.49490949,19.1230461 12.0140828,19.1230461 Z M12.0140828,18.1770367 C8.06526289,18.1770367 4.86406144,15.2436154 4.86406144,11.625 C4.86406144,8.00638456 8.06526289,5.0729633 12.0140828,5.0729633 C15.9629028,5.0729633 19.1641042,8.00638456 19.1641042,11.625 C19.1641042,15.2436154 15.9629028,18.1770367 12.0140828,18.1770367 Z M8.01137452,8.56578947 L8.01137452,10.401974 L11.0139022,10.401974 L11.0139022,14.992629 L13.3489809,14.992629 L13.3489809,10.401974 L16.3538052,10.401974 L16.3538052,8.56578947 L8.01137452,8.56578947 Z" id="Combined-Shape" fill-rule="nonzero"></path>
                            </g>
                        </g>
                    </g>
                </g>
            </g>
        </g>
    </g>
</svg>