<svg fill="none" height="478" viewBox="0 0 1051 478" width="1051" xmlns="http://www.w3.org/2000/svg" xmlns:xlink="http://www.w3.org/1999/xlink"><linearGradient id="a" gradientUnits="userSpaceOnUse" x1="66" x2="229" y1="166" y2="166"><stop offset="0" stop-color="#737373"/><stop offset="1"/></linearGradient><clipPath id="b"><path d="m0 0h1051v478h-1051z"/></clipPath><clipPath id="c"><path d="m903 100h110v110h-110z"/></clipPath><g clip-path="url(#b)"><path d="m175.124 322h-52.841c-.677 0-1.863.508-2.371 1.186l-24.7267 24.388c-.8468.338-1.1853 1.524-1.1853 2.371v73.503c0 5.589 4.742 10.331 10.839 10.331h70.624c5.928 0 10.67-4.742 10.67-10.331v-91.117c-.339-5.589-5.081-10.331-11.009-10.331z" fill="#512fc9"/><path clip-rule="evenodd" d="m127.422 378.281c0-7.058 5.867-12.8 13.078-12.801 7.211.001 13.079 5.743 13.079 12.801 0 7.057-5.867 12.798-13.079 12.798-7.211 0-13.078-5.741-13.078-12.798zm5.384 0c0 4.147 3.451 7.521 7.694 7.521s7.694-3.374 7.694-7.521c0-4.148-3.452-7.523-7.695-7.523-4.242 0-7.693 3.375-7.693 7.523z" fill="#fff" fill-rule="evenodd"/><path clip-rule="evenodd" d="m171.509 387.318-6.367-5.314.118-.721c.133-.974.177-1.992.177-2.997 0-1.249-.067-2.532-.295-3.718l6.367-5.306.141-.116c.169-.163.285-.377.328-.605.046-.231.015-.47-.082-.684-1.3-3.844-3.542-7.502-6.3-10.534-.39-.435-.941-.593-1.458-.372l-8.023 2.683-.666-.505c-1.826-1.331-3.83-2.411-5.955-3.21l-1.589-7.995-.046-.166c-.079-.226-.219-.424-.406-.577-.187-.154-.412-.254-.652-.289l-.003-.003c-4.158-.814-8.438-.814-12.596 0-.27.04-.52.161-.718.344-.197.186-.332.425-.386.689l-1.589 7.994-.721.281c-2.13.855-4.119 2.01-5.903 3.435l-8.02-2.686-.177-.055c-.234-.055-.48-.043-.708.033-.228.077-.428.216-.579.399-2.761 3.032-5 6.69-6.298 10.534-.111.241-.133.513-.062.769s.23.482.451.636l6.366 5.308-.12.721c-.133.975-.174 1.998-.174 2.995-.017 1.246.081 2.49.294 3.718l-6.363 5.314-.141.113c-.171.166-.286.377-.33.608s-.015.47.082.684c1.298 3.846 3.536 7.499 6.298 10.526.392.438.944.596 1.461.377l8.02-2.688.585.462c1.843 1.362 3.877 2.46 6.039 3.256l1.589 8 .043.165c.08.224.221.425.408.579.187.153.413.251.653.288 2.079.372 4.157.591 6.301.591 2.141 0 4.219-.219 6.298-.591.269-.042.519-.163.717-.346.197-.186.332-.425.387-.686l1.592-8 .794-.314c2.1-.869 4.067-2.015 5.827-3.404l8.02 2.688.174.058c.466.123.938-.045 1.287-.435 2.763-3.027 5-6.68 6.297-10.526.113-.242.133-.515.064-.772-.072-.256-.231-.48-.451-.633zm-31.009 9.688c-10.572 0-19.141-8.384-19.141-18.725 0-10.34 8.563-18.726 19.14-18.727 10.574.001 19.143 8.387 19.143 18.727 0 10.341-8.57 18.725-19.142 18.725z" fill="#fff" fill-rule="evenodd"/><path d="m105.641 450.627 5.364-.864v5.58h6.444v4.464h-6.444v6.66c0 1.128.192 2.028.576 2.7.408.672 1.212 1.008 2.412 1.008.576 0 1.164-.048 1.764-.144.624-.12 1.188-.276 1.692-.468l.756 4.176c-.648.264-1.368.492-2.16.684s-1.764.288-2.916.288c-1.464 0-2.676-.192-3.636-.576-.96-.408-1.728-.96-2.304-1.656-.576-.72-.984-1.584-1.224-2.592-.216-1.008-.324-2.124-.324-3.348zm27.912 14.04c0-3.456-1.272-5.184-3.816-5.184-.552 0-1.104.072-1.656.216-.528.144-.96.324-1.296.54v9.756c.264.048.6.096 1.008.144.408.024.852.036 1.332.036 1.464 0 2.568-.504 3.312-1.512s1.116-2.34 1.116-3.996zm5.472.144c0 1.512-.228 2.88-.684 4.104-.432 1.224-1.068 2.268-1.908 3.132s-1.872 1.536-3.096 2.016c-1.224.456-2.616.684-4.176.684-.648 0-1.332-.036-2.052-.108-.696-.048-1.392-.12-2.088-.216-.672-.096-1.32-.204-1.944-.324-.624-.144-1.176-.288-1.656-.432v-26.46l5.364-.864v9.432c.6-.264 1.224-.468 1.872-.612s1.344-.216 2.088-.216c1.344 0 2.532.24 3.564.72 1.032.456 1.896 1.116 2.592 1.98s1.224 1.908 1.584 3.132c.36 1.2.54 2.544.54 4.032zm21.439-.036c0 1.488-.216 2.856-.648 4.104-.432 1.224-1.056 2.28-1.872 3.168-.816.864-1.8 1.536-2.952 2.016-1.128.48-2.4.72-3.816.72-1.392 0-2.664-.24-3.816-.72-1.128-.48-2.1-1.152-2.916-2.016-.816-.888-1.452-1.944-1.908-3.168-.456-1.248-.684-2.616-.684-4.104s.228-2.844.684-4.068c.48-1.224 1.128-2.268 1.944-3.132.84-.864 1.824-1.536 2.952-2.016 1.152-.48 2.4-.72 3.744-.72 1.368 0 2.616.24 3.744.72 1.152.48 2.136 1.152 2.952 2.016s1.452 1.908 1.908 3.132.684 2.58.684 4.068zm-5.472 0c0-1.656-.336-2.952-1.008-3.888-.648-.96-1.584-1.44-2.808-1.44s-2.172.48-2.844 1.44c-.672.936-1.008 2.232-1.008 3.888s.336 2.976 1.008 3.96c.672.96 1.62 1.44 2.844 1.44s2.16-.48 2.808-1.44c.672-.984 1.008-2.304 1.008-3.96zm9.051-14.148 5.364-.864v5.58h6.444v4.464h-6.444v6.66c0 1.128.192 2.028.576 2.7.408.672 1.212 1.008 2.412 1.008.576 0 1.164-.048 1.764-.144.624-.12 1.188-.276 1.692-.468l.756 4.176c-.648.264-1.368.492-2.16.684s-1.764.288-2.916.288c-1.464 0-2.676-.192-3.636-.576-.96-.408-1.728-.96-2.304-1.656-.576-.72-.984-1.584-1.224-2.592-.216-1.008-.324-2.124-.324-3.348z" fill="#512fc9"/><g clip-path="url(#c)"><path clip-rule="evenodd" d="m957.739 101.736h.111c1.146 0 2.74.134 4.278.896l36.331 17.391.056.031c2.355 1.255 4.385 3.371 5.245 6.138l.04.107 9.1 39.179.02.163c.32 2.713-.32 5.485-1.96 7.789l-.05.071-25.124 31.075c-1.858 2.491-4.791 3.942-7.975 3.652h-39.92l-.087-.005c-2.788-.163-5.487-1.45-7.402-3.364l-.111-.111-25.259-31.247-.052-.071c-.82-1.138-1.403-2.428-1.716-3.795-.312-1.367-.347-2.783-.102-4.164l.014-.071 8.94-39.229.003-.009c.319-1.394.952-2.696 1.851-3.807.899-1.11 2.041-2.001 3.338-2.602l36.552-17.616.295-.074c1.313-.329 2.702-.327 3.585-.327" fill="#fff" fill-rule="evenodd"/><g fill="#326de6"><path d="m957.734 162.3 3.213-1.548.833-3.45-2.261-2.857h-3.569l-2.261 2.857.832 3.45zm23.083-1.785c.239-2.499.12-4.997-.475-7.496-.576-2.476-1.541-4.846-2.857-7.021l-8.922 8.092c-.24.238-.357.475-.477.832-.238 1.071.356 2.142 1.427 2.38zm-16.657-12.017 9.756-6.903c-3.57-3.569-8.21-5.83-13.444-6.424l.713 12.018c0 .356.12.595.356.832.596.833 1.786.952 2.619.477zm-9.4-13.446-2.381.475c-4.163.952-7.972 3.094-11.065 6.068l9.877 7.02.209.074c.252.091.458.165.742.165 1.07 0 2.023-.833 2.023-1.904zm-8.092 18.799-8.804-7.853c-2.598 4.377-3.802 9.44-3.451 14.517l11.542-3.332c.475-.119.713-.238.952-.596.713-.832.596-2.024-.239-2.736zm.952 10.233-11.779 2.023c1.665 4.759 4.996 8.924 9.162 11.662l4.522-10.949c.237-.355.237-.832.118-1.19-.119-.95-1.069-1.546-2.023-1.546zm10.114 17.373c1.785 0 3.451-.239 5.117-.596.744-.202 1.499-.361 2.261-.475l-5.713-10.353c-.356-.357-.594-.595-.951-.832-.833-.477-1.785-.239-2.379.475l-5.83 10.59c2.379.714 4.996 1.191 7.495 1.191zm12.494-3.808c2.885-1.815 5.324-4.255 7.14-7.139.951-1.309 1.665-2.857 2.261-4.522l-11.9-2.023c-.356 0-.714.119-1.07.238-.834.358-1.31 1.31-1.072 2.262z"/><path clip-rule="evenodd" d="m997.119 122.677c1.784.952 3.211 2.499 3.811 4.403l9.04 38.908c.24 2.023-.24 4.045-1.43 5.712l-25.106 31.055c-1.307 1.785-3.33 2.737-5.472 2.498h-39.979c-2.024-.119-4.045-1.069-5.474-2.498l-25.106-31.056c-.591-.816-1.012-1.742-1.237-2.723-.225-.982-.249-1.998-.072-2.99l8.924-39.143c.216-.959.65-1.856 1.269-2.619.62-.764 1.407-1.374 2.301-1.784l36.291-17.49c.952-.238 2.023-.238 2.974-.238.952 0 2.023.119 2.975.596zm-2.025 41.646c0 .119.12.119.239.119 1.069.238 2.023 1.19 2.142 2.498-.184.484-.509.902-.934 1.199-.424.297-.929.459-1.447.466-.238 0-.357 0-.595-.118-.068-.069-.097-.098-.132-.11-.026-.009-.055-.009-.107-.009-.137 0-.237-.041-.317-.075-.05-.024-.103-.039-.158-.044-.351-.089-.64-.241-.959-.413-.111-.061-.227-.122-.349-.183-.238 0-.476-.118-.715-.237h-.119c-1.23-.483-2.505-.841-3.807-1.071h-.119c-.352-.01-.693.118-.952.356 0 0 0 .119-.119.119l-.952-.119c-2.142 6.784-6.782 12.494-12.849 16.182l.356.954s-.119 0-.119.117c-.238.358-.238.835-.119 1.192.475 1.189 1.07 2.379 1.904 3.45v.237c.238.238.357.357.476.595.356.358.595.714.833 1.191.119.119.237.238.237.356 0 0 .119 0 .119.119.238.596.238 1.191.119 1.786-.119.594-.596 1.069-1.069 1.308l-.211.073c-.252.092-.458.165-.743.165-.951 0-1.784-.596-2.261-1.429-.117 0-.117-.119-.117-.119-.05-.051-.091-.111-.12-.177-.028-.066-.069-.127-.119-.179-.238-.357-.357-.832-.476-1.309l-.237-.714v-.119c-.358-1.309-.952-2.499-1.548-3.688-.229-.337-.564-.589-.952-.715 0-.119 0-.119-.119-.119l-.475-.833c-.304.092-.615.189-.93.291-.926.293-1.902.603-2.879.78-2.14.596-4.282.833-6.424.833-3.57 0-7.02-.594-10.352-1.904l-.475.952c0 .061 0 .09-.016.104-.015.014-.045.015-.104.015-.388.126-.722.378-.951.715-.596 1.189-1.192 2.379-1.548 3.688l-.238.714c-.063.224-.142.442-.237.654-.096.212-.176.431-.238.655-.12.119-.239.239-.239.356-.119 0-.119.119-.119.119-.475.835-1.309 1.429-2.261 1.429-.237 0-.594-.119-.833-.238-1.069-.596-1.546-2.023-.952-3.213.12 0 .12-.118.12-.118.05-.052.09-.113.119-.179s.069-.126.119-.179c.156-.209.29-.417.411-.606.154-.241.287-.449.422-.584.238-.238.357-.357.475-.596v-.117c.715-1.071 1.428-2.261 1.905-3.451.119-.356.119-.833-.119-1.191 0 0-.119 0-.119-.119l.595-.832c-1.191-.596-2.143-1.308-3.214-2.141-4.64-3.57-7.972-8.448-9.756-13.922l-1.07.119s0-.119-.121-.119c-.258-.239-.6-.367-.951-.356h-.12c-1.426.236-2.617.594-3.926 1.069h-.119c-.237 0-.475.119-.714.238-.132.046-.282.107-.443.172-.28.123-.57.225-.866.305-.052-.005-.104-.013-.156-.023-.145-.027-.321-.061-.321.023 0 .06 0 .089-.013.104-.016.015-.046.015-.104.015-.239.119-.358.119-.596.119-1.069.12-2.14-.595-2.379-1.665-.059-.305-.057-.619.007-.924.064-.304.188-.592.366-.848.177-.255.404-.472.667-.638s.557-.277.864-.328c.119-.119.119-.119.238-.119.111-.001.22-.027.319-.075.059-.023.107-.044.156-.044.239 0 .477-.031.715-.06.237-.03.475-.059.714-.059.238-.119.476-.119.713-.119 1.368-.112 2.722-.351 4.046-.714.357-.238.713-.475.832-.832 0 0 .12 0 .12-.12l.951-.238c-1.069-6.782.477-13.683 4.165-19.513.061-.119.119-.209.179-.298.065-.095.125-.195.179-.298l-.691-.69c.054-.342-.163-.758-.382-.975-.95-.952-2.14-1.665-3.33-2.38l-.714-.356c-.449-.215-.886-.453-1.309-.715-.119 0-.356-.237-.356-.237s0-.119-.119-.119c-.952-.834-1.192-2.261-.477-3.332.358-.596.952-.833 1.665-.833.596 0 1.192.239 1.666.596l.12.118c.052.05.113.09.179.119.06.03.119.059.177.119.179.179.329.356.477.535s.298.357.477.534c.036.036.081.074.132.114.12.09.26.198.343.363.832.952 1.903 1.904 2.974 2.738.239.119.477.237.714.237.111-.002.22-.027.321-.075.049-.024.101-.039.155-.044h.12l.713.476c3.926-4.164 9.045-7.139 14.636-8.329l.611-.103c1.193-.201 2.315-.389 3.433-.492l.119-.951v-.239c.358-.238.477-.595.596-.951 0-1.429 0-2.737-.238-4.046v-.119c0-.239 0-.475-.119-.714-.119-.476-.239-.951-.239-1.428v-.596c0-.594.239-1.189.715-1.665.596-.595 1.308-.952 2.023-.833 1.19.119 2.142 1.309 2.023 2.5v.713c-.061.238-.09.477-.119.714-.029.236-.061.476-.119.715 0 .119-.031.236-.06.355-.034.117-.054.237-.06.358v.119c-.238 1.427-.238 2.736-.238 4.046.119.357.238.713.596.952v-.12l.119.952c5.592.596 11.066 2.736 15.467 6.188.477.476.983.951 1.488 1.427.506.475 1.012.953 1.487 1.428l.952-.596h.119c.119.121.357.121.477.121.238 0 .475-.119.713-.238 1.099-.743 2.099-1.623 2.975-2.619.037-.035.082-.072.134-.112.118-.09.26-.198.342-.363.237-.358.595-.714.952-1.071.118 0 .237-.119.356-.238l.119-.12c.477-.356 1.071-.595 1.665-.595.595 0 1.31.359 1.666.834.834 1.071.596 2.499-.474 3.33 0 .046.015.075.031.1.024.038.042.065-.031.139-.052.05-.112.09-.179.119-.066.029-.126.069-.178.119-.239.119-.446.238-.656.357-.208.12-.415.239-.654.358l-.713.356c-1.192.715-2.261 1.428-3.332 2.38-.239.239-.358.714-.358 1.07v.12l-.713.714c1.917 3 3.325 6.296 4.165 9.756.713 3.451.951 7.02.475 10.472l.953.238c.072.19.184.362.327.505.144.144.316.255.506.328 1.307.356 2.736.595 4.045.713h.119c.237.119.476.119.714.119.475 0 .952 0 1.427.119.238 0 .476 0 .476.12zm-62.088-23.299-.022-.023v.119c.01-.031.018-.063.023-.096" fill-rule="evenodd"/></g></g><path d="m615.161 106h-104.43c-2.204 0-3.731 1.525-3.731 3.729v14.92c0 2.204 1.527 3.729 3.731 3.729h104.43c2.204 0 3.729-1.525 3.729-3.729v-14.92c0-2.204-1.525-3.729-3.729-3.729zm-22.379 14.918c-2.204 0-3.729-1.525-3.729-3.729s1.525-3.729 3.729-3.729 3.731 1.525 3.731 3.729-1.527 3.729-3.731 3.729zm18.649 0h-7.459c-2.204 0-3.73-1.525-3.73-3.729s1.526-3.729 3.73-3.729h7.459c2.204 0 3.73 1.525 3.73 3.729s-1.526 3.729-3.73 3.729z" fill="#512fc9"/><path d="m615.161 143.297h-104.43c-2.204 0-3.731 1.525-3.731 3.729v14.918c0 2.204 1.527 3.731 3.731 3.731h48.484v15.597c-3.39 1.186-5.594 3.729-6.611 6.781h-30.685c-2.203 0-3.73 1.525-3.73 3.729s1.527 3.73 3.73 3.73h30.685c1.356 4.408 5.595 7.459 10.342 7.459s8.984-3.051 10.34-7.459h30.686c2.204 0 3.73-1.526 3.73-3.73s-1.526-3.729-3.73-3.729h-30.686c-1.017-3.391-3.559-5.595-6.611-6.781v-15.597h48.486c2.204 0 3.729-1.527 3.729-3.731v-14.918c0-2.204-1.525-3.729-3.729-3.729zm-89.512 14.918c-2.204 0-3.73-1.525-3.73-3.729s1.526-3.731 3.73-3.731 3.729 1.527 3.729 3.731-1.525 3.729-3.729 3.729zm11.189 0c-2.204 0-3.73-1.525-3.73-3.729s1.526-3.731 3.73-3.731c2.203 0 3.729 1.527 3.729 3.731s-1.526 3.729-3.729 3.729zm11.188 0c-2.203 0-3.729-1.525-3.729-3.729s1.526-3.731 3.729-3.731c2.204 0 3.731 1.527 3.731 3.731s-1.527 3.729-3.731 3.729zm7.46-3.729c0-2.204 1.525-3.731 3.729-3.731s3.731 1.527 3.731 3.731-1.527 3.729-3.731 3.729-3.729-1.525-3.729-3.729zm37.296 3.729c-2.204 0-3.729-1.525-3.729-3.729s1.525-3.731 3.729-3.731 3.731 1.527 3.731 3.731-1.527 3.729-3.731 3.729zm18.649 0h-7.459c-2.204 0-3.73-1.525-3.73-3.729s1.526-3.731 3.73-3.731h7.459c2.204 0 3.73 1.527 3.73 3.731s-1.526 3.729-3.73 3.729z" fill="#512fc9"/><path d="m23.9999 3c-13.2577 0-23.9999 10.9892-23.9999 24.6047 0 10.8509 6.86683 20.1121 16.4532 23.3605 1.1558.2073 1.6318-.5528 1.6318-1.1749 0-.5529-.0681-2.5573-.0681-4.5616-6.6628 1.4514-8.09061-2.9718-8.09061-2.9718-1.01982-2.8337-2.6515-3.5249-2.6515-3.5249-2.17562-1.5206.13597-1.5205.13597-1.5205 2.44758.1382 3.73924 2.4882 3.73924 2.4882 2.1757 3.8012 5.6431 2.6953 7.0029 2.0733.2039-1.5896.8158-2.6955 1.4957-3.3175-5.3711-.5529-10.94604-2.6954-10.94604-12.095 0-2.7646.9518-4.9071 2.51554-6.635-.272-.622-1.1558-3.1101.204-6.5658 0 0 2.0396-.622 6.5948 2.5572 2.0397-.5529 3.8754-.8293 5.983-.8293s4.1473.2764 6.0509.8293c4.5552-3.1792 6.5948-2.5572 6.5948-2.5572 1.2918 3.4557.476 5.9438.204 6.5658 1.5638 1.7279 2.4477 3.8704 2.4477 6.635 0 9.3996-5.5071 11.473-10.9462 12.095.8839.7603 1.6318 2.2118 1.6318 4.5616v6.7732c0 .6221.4079 1.3822 1.6317 1.1749 9.5183-3.2484 16.3851-12.5096 16.3851-23.3605.068-13.6155-10.7421-24.6047-23.9998-24.6047z" fill="#24292f"/><path d="m78.324 27.724h3.492v11.664c-.288.096-.708.204-1.26.324-.528.12-1.152.24-1.872.36-.696.12-1.464.216-2.304.288-.84.096-1.692.144-2.556.144-1.752 0-3.348-.288-4.788-.864s-2.676-1.416-3.708-2.52-1.836-2.46-2.412-4.068c-.552-1.608-.828-3.456-.828-5.544s.312-3.936.936-5.544c.648-1.632 1.512-3 2.592-4.104s2.34-1.944 3.78-2.52c1.464-.576 3.024-.864 4.68-.864 1.128 0 2.124.072 2.988.216.888.144 1.644.312 2.268.504s1.128.384 1.512.576c.408.192.684.336.828.432l-1.116 2.916c-.696-.456-1.62-.828-2.772-1.116-1.152-.312-2.328-.468-3.528-.468-1.272 0-2.436.228-3.492.684-1.032.456-1.92 1.116-2.664 1.98-.72.864-1.284 1.92-1.692 3.168-.408 1.224-.612 2.604-.612 4.14 0 1.488.168 2.844.504 4.068.36 1.224.888 2.28 1.584 3.168.72.864 1.596 1.536 2.628 2.016 1.056.48 2.292.72 3.708.72 1.008 0 1.86-.048 2.556-.144.72-.12 1.236-.228 1.548-.324zm11.6955 12.276h-3.348v-18.72h3.348zm-1.692-22.104c-.6 0-1.116-.192-1.548-.576-.408-.408-.612-.948-.612-1.62s.204-1.2.612-1.584c.432-.408.948-.612 1.548-.612s1.104.204 1.512.612c.432.384.648.912.648 1.584s-.216 1.212-.648 1.62c-.408.384-.912.576-1.512.576zm10.1855 3.384h7.092v2.808h-7.092v8.64c0 .936.072 1.716.216 2.34.144.6.36 1.08.648 1.44.288.336.648.576 1.08.72s.936.216 1.512.216c1.008 0 1.812-.108 2.412-.324.624-.24 1.056-.408 1.296-.504l.648 2.772c-.336.168-.924.372-1.764.612-.84.264-1.8.396-2.88.396-1.272 0-2.328-.156-3.168-.468-.816-.336-1.476-.828-1.98-1.476s-.864-1.44-1.08-2.376c-.192-.96-.288-2.064-.288-3.312v-16.704l3.348-.576zm26.868-6.228h3.492v24.948h-3.492v-11.52h-12.204v11.52h-3.492v-24.948h3.492v10.404h12.204zm23.979 24.408c-.768.192-1.788.396-3.06.612-1.248.216-2.7.324-4.356.324-1.44 0-2.652-.204-3.636-.612-.984-.432-1.776-1.032-2.376-1.8s-1.032-1.668-1.296-2.7c-.264-1.056-.396-2.22-.396-3.492v-10.512h3.348v9.792c0 2.28.36 3.912 1.08 4.896s1.932 1.476 3.636 1.476c.36 0 .732-.012 1.116-.036s.744-.048 1.08-.072c.336-.048.636-.084.9-.108.288-.048.492-.096.612-.144v-15.804h3.348zm8.72-17.352c.408-.264 1.02-.54 1.836-.828.84-.288 1.8-.432 2.88-.432 1.344 0 2.532.24 3.564.72 1.056.48 1.944 1.152 2.664 2.016s1.26 1.896 1.62 3.096c.384 1.2.576 2.52.576 3.96 0 1.512-.228 2.88-.684 4.104-.432 1.2-1.056 2.22-1.872 3.06s-1.8 1.488-2.952 1.944-2.448.684-3.888.684c-1.56 0-2.94-.108-4.14-.324s-2.184-.432-2.952-.648v-26.82l3.348-.576zm0 14.976c.336.096.804.192 1.404.288.624.072 1.392.108 2.304.108 1.8 0 3.24-.588 4.32-1.764 1.08-1.2 1.62-2.892 1.62-5.076 0-.96-.096-1.86-.288-2.7s-.504-1.56-.936-2.16c-.432-.624-.996-1.104-1.692-1.44-.672-.36-1.488-.54-2.448-.54-.912 0-1.752.156-2.52.468s-1.356.636-1.764.972zm42.275 2.916c-.408-1.08-.792-2.136-1.152-3.168-.36-1.056-.732-2.124-1.116-3.204h-11.304l-2.268 6.372h-3.636c.96-2.64 1.86-5.076 2.7-7.308.84-2.256 1.656-4.392 2.448-6.408.816-2.016 1.62-3.936 2.412-5.76.792-1.848 1.62-3.672 2.484-5.472h3.204c.864 1.8 1.692 3.624 2.484 5.472.792 1.824 1.584 3.744 2.376 5.76.816 2.016 1.644 4.152 2.484 6.408.84 2.232 1.74 4.668 2.7 7.308zm-3.276-9.252c-.768-2.088-1.536-4.104-2.304-6.048-.744-1.968-1.524-3.852-2.34-5.652-.84 1.8-1.644 3.684-2.412 5.652-.744 1.944-1.488 3.96-2.232 6.048zm17.546 9.684c-1.512 0-2.844-.24-3.996-.72-1.128-.48-2.088-1.152-2.88-2.016-.768-.864-1.344-1.884-1.728-3.06-.384-1.2-.576-2.52-.576-3.96s.204-2.76.612-3.96c.432-1.2 1.032-2.232 1.8-3.096.768-.888 1.704-1.572 2.808-2.052 1.128-.504 2.376-.756 3.744-.756.84 0 1.68.072 2.52.216s1.644.372 2.412.684l-.756 2.844c-.504-.24-1.092-.432-1.764-.576-.648-.144-1.344-.216-2.088-.216-1.872 0-3.312.588-4.32 1.764-.984 1.176-1.476 2.892-1.476 5.148 0 1.008.108 1.932.324 2.772.24.84.6 1.56 1.08 2.16.504.6 1.14 1.068 1.908 1.404.768.312 1.704.468 2.808.468.888 0 1.692-.084 2.412-.252s1.284-.348 1.692-.54l.468 2.808c-.192.12-.468.24-.828.36-.36.096-.768.18-1.224.252-.456.096-.948.168-1.476.216-.504.072-.996.108-1.476.108zm11.335-19.152h7.092v2.808h-7.092v8.64c0 .936.072 1.716.216 2.34.144.6.36 1.08.648 1.44.288.336.648.576 1.08.72s.936.216 1.512.216c1.008 0 1.812-.108 2.412-.324.624-.24 1.056-.408 1.296-.504l.648 2.772c-.336.168-.924.372-1.764.612-.84.264-1.8.396-2.88.396-1.272 0-2.328-.156-3.168-.468-.816-.336-1.476-.828-1.98-1.476s-.864-1.44-1.08-2.376c-.192-.96-.288-2.064-.288-3.312v-16.704l3.348-.576zm14.304 18.72h-3.348v-18.72h3.348zm-1.692-22.104c-.6 0-1.116-.192-1.548-.576-.408-.408-.612-.948-.612-1.62s.204-1.2.612-1.584c.432-.408.948-.612 1.548-.612s1.104.204 1.512.612c.432.384.648.912.648 1.584s-.216 1.212-.648 1.62c-.408.384-.912.576-1.512.576zm23.578 12.744c0 1.488-.216 2.832-.648 4.032s-1.044 2.232-1.836 3.096c-.768.864-1.692 1.536-2.772 2.016-1.08.456-2.256.684-3.528.684s-2.448-.228-3.528-.684c-1.08-.48-2.016-1.152-2.808-2.016-.768-.864-1.368-1.896-1.8-3.096s-.648-2.544-.648-4.032c0-1.464.216-2.796.648-3.996.432-1.224 1.032-2.268 1.8-3.132.792-.864 1.728-1.524 2.808-1.98 1.08-.48 2.256-.72 3.528-.72s2.448.24 3.528.72c1.08.456 2.004 1.116 2.772 1.98.792.864 1.404 1.908 1.836 3.132.432 1.2.648 2.532.648 3.996zm-3.492 0c0-2.112-.48-3.78-1.44-5.004-.936-1.248-2.22-1.872-3.852-1.872s-2.928.624-3.888 1.872c-.936 1.224-1.404 2.892-1.404 5.004s.468 3.792 1.404 5.04c.96 1.224 2.256 1.836 3.888 1.836s2.916-.612 3.852-1.836c.96-1.248 1.44-2.928 1.44-5.04zm7.806-8.82c.768-.192 1.788-.396 3.06-.612s2.736-.324 4.392-.324c1.488 0 2.724.216 3.708.648.984.408 1.764.996 2.34 1.764.6.744 1.02 1.644 1.26 2.7s.36 2.22.36 3.492v10.512h-3.348v-9.792c0-1.152-.084-2.136-.252-2.952-.144-.816-.396-1.476-.756-1.98s-.84-.864-1.44-1.08c-.6-.24-1.344-.36-2.232-.36-.36 0-.732.012-1.116.036s-.756.06-1.116.108c-.336.024-.648.06-.936.108-.264.048-.456.084-.576.108v15.804h-3.348zm24.632 15.768c1.368 0 2.376-.18 3.024-.54.672-.36 1.008-.936 1.008-1.728 0-.816-.324-1.464-.972-1.944s-1.716-1.02-3.204-1.62c-.72-.288-1.416-.576-2.088-.864-.648-.312-1.212-.672-1.692-1.08s-.864-.9-1.152-1.476-.432-1.284-.432-2.124c0-1.656.612-2.964 1.836-3.924 1.224-.984 2.892-1.476 5.004-1.476.528 0 1.056.036 1.584.108.528.048 1.02.12 1.476.216.456.072.852.156 1.188.252.36.096.636.18.828.252l-.612 2.88c-.36-.192-.924-.384-1.692-.576-.768-.216-1.692-.324-2.772-.324-.936 0-1.752.192-2.448.576-.696.36-1.044.936-1.044 1.728 0 .408.072.768.216 1.08.168.312.408.6.72.864.336.24.744.468 1.224.684s1.056.444 1.728.684c.888.336 1.68.672 2.376 1.008.696.312 1.284.684 1.764 1.116.504.432.888.96 1.152 1.584.264.6.396 1.344.396 2.232 0 1.728-.648 3.036-1.944 3.924-1.272.888-3.096 1.332-5.472 1.332-1.656 0-2.952-.144-3.888-.432-.936-.264-1.572-.468-1.908-.612l.612-2.88c.384.144.996.36 1.836.648s1.956.432 3.348.432z" fill="#000"/><path d="m886.776 226.052c-.744.816-1.584 1.728-2.52 2.736-.936.984-1.92 2.004-2.952 3.06-1.008 1.032-2.016 2.052-3.024 3.06s-1.956 1.944-2.844 2.808c1.032.72 2.124 1.608 3.276 2.664s2.28 2.184 3.384 3.384 2.136 2.424 3.096 3.672c.984 1.248 1.8 2.436 2.448 3.564h-4.104c-.72-1.128-1.548-2.256-2.484-3.384-.936-1.152-1.932-2.244-2.988-3.276-1.032-1.056-2.088-2.028-3.168-2.916-1.056-.888-2.088-1.644-3.096-2.268v11.844h-3.492v-24.948h3.492v11.016c.84-.792 1.764-1.68 2.772-2.664 1.008-1.008 2.004-2.016 2.988-3.024s1.908-1.968 2.772-2.88c.888-.936 1.632-1.752 2.232-2.448zm18.007 24.408c-.768.192-1.788.396-3.06.612-1.248.216-2.7.324-4.356.324-1.44 0-2.652-.204-3.636-.612-.984-.432-1.776-1.032-2.376-1.8s-1.032-1.668-1.296-2.7c-.264-1.056-.396-2.22-.396-3.492v-10.512h3.348v9.792c0 2.28.36 3.912 1.08 4.896s1.932 1.476 3.636 1.476c.36 0 .732-.012 1.116-.036s.744-.048 1.08-.072c.336-.048.636-.084.9-.108.288-.048.492-.096.612-.144v-15.804h3.348zm8.72-17.352c.408-.264 1.02-.54 1.836-.828.84-.288 1.8-.432 2.88-.432 1.344 0 2.532.24 3.564.72 1.056.48 1.944 1.152 2.664 2.016s1.26 1.896 1.62 3.096c.384 1.2.576 2.52.576 3.96 0 1.512-.228 2.88-.684 4.104-.432 1.2-1.056 2.22-1.872 3.06s-1.8 1.488-2.952 1.944-2.448.684-3.888.684c-1.56 0-2.94-.108-4.14-.324s-2.184-.432-2.952-.648v-26.82l3.348-.576zm0 14.976c.336.096.804.192 1.404.288.624.072 1.392.108 2.304.108 1.8 0 3.24-.588 4.32-1.764 1.08-1.2 1.62-2.892 1.62-5.076 0-.96-.096-1.86-.288-2.7s-.504-1.56-.936-2.16c-.432-.624-.996-1.104-1.692-1.44-.672-.36-1.488-.54-2.448-.54-.912 0-1.752.156-2.52.468s-1.356.636-1.764.972zm16.411-6.408c0-1.656.24-3.096.72-4.32.48-1.248 1.116-2.28 1.908-3.096s1.704-1.428 2.736-1.836 2.088-.612 3.168-.612c2.52 0 4.452.792 5.796 2.376 1.344 1.56 2.016 3.948 2.016 7.164v.576c0 .216-.012.42-.036.612h-12.816c.144 1.944.708 3.42 1.692 4.428s2.52 1.512 4.608 1.512c1.176 0 2.16-.096 2.952-.288.816-.216 1.428-.42 1.836-.612l.468 2.808c-.408.216-1.128.444-2.16.684-1.008.24-2.16.36-3.456.36-1.632 0-3.048-.24-4.248-.72-1.176-.504-2.148-1.188-2.916-2.052s-1.344-1.884-1.728-3.06c-.36-1.2-.54-2.508-.54-3.924zm12.852-1.836c.024-1.512-.36-2.748-1.152-3.708-.768-.984-1.836-1.476-3.204-1.476-.768 0-1.452.156-2.052.468-.576.288-1.068.672-1.476 1.152s-.732 1.032-.972 1.656c-.216.624-.36 1.26-.432 1.908zm14.818-7.956c.288 0 .612.024.972.072.384.024.756.072 1.116.144.36.048.684.108.972.18.312.048.54.096.684.144l-.576 2.916c-.264-.096-.708-.204-1.332-.324-.6-.144-1.38-.216-2.34-.216-.624 0-1.248.072-1.872.216-.6.12-.996.204-1.188.252v15.732h-3.348v-17.928c.792-.288 1.776-.552 2.952-.792 1.176-.264 2.496-.396 3.96-.396zm6.578.936c.768-.192 1.788-.396 3.06-.612s2.736-.324 4.392-.324c1.488 0 2.724.216 3.708.648.984.408 1.764.996 2.34 1.764.6.744 1.02 1.644 1.26 2.7s.36 2.22.36 3.492v10.512h-3.348v-9.792c0-1.152-.084-2.136-.252-2.952-.144-.816-.396-1.476-.756-1.98s-.84-.864-1.44-1.08c-.6-.24-1.344-.36-2.232-.36-.36 0-.732.012-1.116.036s-.756.06-1.116.108c-.336.024-.648.06-.936.108-.264.048-.456.084-.576.108v15.804h-3.348zm19.232 8.856c0-1.656.24-3.096.72-4.32.48-1.248 1.116-2.28 1.908-3.096s1.704-1.428 2.736-1.836 2.088-.612 3.168-.612c2.52 0 4.452.792 5.796 2.376 1.344 1.56 2.016 3.948 2.016 7.164v.576c0 .216-.012.42-.036.612h-12.816c.144 1.944.708 3.42 1.692 4.428s2.52 1.512 4.608 1.512c1.176 0 2.16-.096 2.952-.288.816-.216 1.428-.42 1.836-.612l.468 2.808c-.408.216-1.128.444-2.16.684-1.008.24-2.16.36-3.456.36-1.632 0-3.048-.24-4.248-.72-1.176-.504-2.148-1.188-2.916-2.052s-1.344-1.884-1.728-3.06c-.36-1.2-.54-2.508-.54-3.924zm12.852-1.836c.024-1.512-.36-2.748-1.152-3.708-.768-.984-1.836-1.476-3.204-1.476-.768 0-1.452.156-2.052.468-.576.288-1.068.672-1.476 1.152s-.732 1.032-.972 1.656c-.216.624-.36 1.26-.432 1.908zm11.034-7.56h7.1v2.808h-7.1v8.64c0 .936.08 1.716.22 2.34.14.6.36 1.08.65 1.44.29.336.65.576 1.08.72s.93.216 1.51.216c1.01 0 1.81-.108 2.41-.324.63-.24 1.06-.408 1.3-.504l.65 2.772c-.34.168-.93.372-1.77.612-.84.264-1.8.396-2.88.396-1.27 0-2.33-.156-3.17-.468-.81-.336-1.47-.828-1.98-1.476-.5-.648-.86-1.44-1.08-2.376-.19-.96-.28-2.064-.28-3.312v-16.704l3.34-.576zm9.56 9.396c0-1.656.24-3.096.72-4.32.48-1.248 1.12-2.28 1.91-3.096s1.71-1.428 2.74-1.836 2.09-.612 3.17-.612c2.52 0 4.45.792 5.79 2.376 1.35 1.56 2.02 3.948 2.02 7.164v.576c0 .216-.01.42-.04.612h-12.81c.14 1.944.7 3.42 1.69 4.428.98 1.008 2.52 1.512 4.61 1.512 1.17 0 2.16-.096 2.95-.288.81-.216 1.43-.42 1.83-.612l.47 2.808c-.41.216-1.13.444-2.16.684-1.01.24-2.16.36-3.45.36-1.64 0-3.05-.24-4.25-.72-1.18-.504-2.15-1.188-2.92-2.052s-1.34-1.884-1.73-3.06c-.36-1.2-.54-2.508-.54-3.924zm12.86-1.836c.02-1.512-.36-2.748-1.16-3.708-.76-.984-1.83-1.476-3.2-1.476-.77 0-1.45.156-2.05.468-.58.288-1.07.672-1.48 1.152s-.73 1.032-.97 1.656c-.22.624-.36 1.26-.43 1.908zm12.26 8.748c1.37 0 2.37-.18 3.02-.54.67-.36 1.01-.936 1.01-1.728 0-.816-.32-1.464-.97-1.944s-1.72-1.02-3.21-1.62c-.72-.288-1.41-.576-2.08-.864-.65-.312-1.22-.672-1.7-1.08s-.86-.9-1.15-1.476-.43-1.284-.43-2.124c0-1.656.61-2.964 1.84-3.924 1.22-.984 2.89-1.476 5-1.476.53 0 1.06.036 1.58.108.53.048 1.02.12 1.48.216.46.072.85.156 1.19.252.36.096.63.18.83.252l-.62 2.88c-.36-.192-.92-.384-1.69-.576-.77-.216-1.69-.324-2.77-.324-.94 0-1.75.192-2.45.576-.69.36-1.04.936-1.04 1.728 0 .408.07.768.21 1.08.17.312.41.6.72.864.34.24.75.468 1.23.684s1.05.444 1.73.684c.88.336 1.68.672 2.37 1.008.7.312 1.29.684 1.77 1.116.5.432.88.96 1.15 1.584.26.6.39 1.344.39 2.232 0 1.728-.64 3.036-1.94 3.924-1.27.888-3.1 1.332-5.47 1.332-1.66 0-2.95-.144-3.89-.432-.94-.264-1.57-.468-1.91-.612l.61-2.88c.39.144 1 .36 1.84.648s1.96.432 3.35.432z" fill="#000"/><path d="m506.108 251c-.408-1.08-.792-2.136-1.152-3.168-.36-1.056-.732-2.124-1.116-3.204h-11.304l-2.268 6.372h-3.636c.96-2.64 1.86-5.076 2.7-7.308.84-2.256 1.656-4.392 2.448-6.408.816-2.016 1.62-3.936 2.412-5.76.792-1.848 1.62-3.672 2.484-5.472h3.204c.864 1.8 1.692 3.624 2.484 5.472.792 1.824 1.584 3.744 2.376 5.76.816 2.016 1.644 4.152 2.484 6.408.84 2.232 1.74 4.668 2.7 7.308zm-3.276-9.252c-.768-2.088-1.536-4.104-2.304-6.048-.744-1.968-1.524-3.852-2.34-5.652-.84 1.8-1.644 3.684-2.412 5.652-.744 1.944-1.488 3.96-2.232 6.048zm16.707-15.948c3.504 0 6.192.672 8.064 2.016 1.896 1.32 2.844 3.3 2.844 5.94 0 1.44-.264 2.676-.792 3.708-.504 1.008-1.248 1.836-2.232 2.484-.96.624-2.136 1.08-3.528 1.368s-2.964.432-4.716.432h-2.772v9.252h-3.492v-24.588c.984-.24 2.076-.396 3.276-.468 1.224-.096 2.34-.144 3.348-.144zm.288 3.06c-1.488 0-2.628.036-3.42.108v9.792h2.628c1.2 0 2.28-.072 3.24-.216.96-.168 1.764-.432 2.412-.792.672-.384 1.188-.9 1.548-1.548s.54-1.476.54-2.484c0-.96-.192-1.752-.576-2.376-.36-.624-.864-1.116-1.512-1.476-.624-.384-1.356-.648-2.196-.792s-1.728-.216-2.664-.216zm14.594-2.808h3.492v24.948h-3.492zm23.832-.252c3.504 0 6.192.672 8.064 2.016 1.896 1.32 2.844 3.3 2.844 5.94 0 1.44-.264 2.676-.792 3.708-.504 1.008-1.248 1.836-2.232 2.484-.96.624-2.136 1.08-3.528 1.368s-2.964.432-4.716.432h-2.772v9.252h-3.492v-24.588c.984-.24 2.076-.396 3.276-.468 1.224-.096 2.34-.144 3.348-.144zm.288 3.06c-1.488 0-2.628.036-3.42.108v9.792h2.628c1.2 0 2.28-.072 3.24-.216.96-.168 1.764-.432 2.412-.792.672-.384 1.188-.9 1.548-1.548s.54-1.476.54-2.484c0-.96-.192-1.752-.576-2.376-.36-.624-.864-1.116-1.512-1.476-.624-.384-1.356-.648-2.196-.792s-1.728-.216-2.664-.216zm21.291 3.024c.288 0 .612.024.972.072.384.024.756.072 1.116.144.36.048.684.108.972.18.312.048.54.096.684.144l-.576 2.916c-.264-.096-.708-.204-1.332-.324-.6-.144-1.38-.216-2.34-.216-.624 0-1.248.072-1.872.216-.6.12-.996.204-1.188.252v15.732h-3.348v-17.928c.792-.288 1.776-.552 2.952-.792 1.176-.264 2.496-.396 3.96-.396zm23.102 9.756c0 1.488-.216 2.832-.648 4.032s-1.044 2.232-1.836 3.096c-.768.864-1.692 1.536-2.772 2.016-1.08.456-2.256.684-3.528.684s-2.448-.228-3.528-.684c-1.08-.48-2.016-1.152-2.808-2.016-.768-.864-1.368-1.896-1.8-3.096s-.648-2.544-.648-4.032c0-1.464.216-2.796.648-3.996.432-1.224 1.032-2.268 1.8-3.132.792-.864 1.728-1.524 2.808-1.98 1.08-.48 2.256-.72 3.528-.72s2.448.24 3.528.72c1.08.456 2.004 1.116 2.772 1.98.792.864 1.404 1.908 1.836 3.132.432 1.2.648 2.532.648 3.996zm-3.492 0c0-2.112-.48-3.78-1.44-5.004-.936-1.248-2.22-1.872-3.852-1.872s-2.928.624-3.888 1.872c-.936 1.224-1.404 2.892-1.404 5.004s.468 3.792 1.404 5.04c.96 1.224 2.256 1.836 3.888 1.836s2.916-.612 3.852-1.836c.96-1.248 1.44-2.928 1.44-5.04zm18.405 9.36c-.264-.528-.588-1.116-.972-1.764s-.804-1.308-1.26-1.98c-.456-.696-.924-1.38-1.404-2.052s-.948-1.308-1.404-1.908c-.456.6-.924 1.248-1.404 1.944-.48.672-.948 1.356-1.404 2.052-.432.672-.84 1.332-1.224 1.98s-.708 1.224-.972 1.728h-3.456c.84-1.632 1.836-3.288 2.988-4.968 1.176-1.704 2.34-3.324 3.492-4.86l-6.192-8.892h3.78l4.464 6.552 4.5-6.552h3.564l-6.048 8.676c1.152 1.56 2.328 3.216 3.528 4.968 1.224 1.728 2.256 3.42 3.096 5.076zm4.599 3.492c.264.12.6.228 1.008.324.432.12.852.18 1.26.18 1.32 0 2.352-.3 3.096-.9.744-.576 1.416-1.524 2.016-2.844-1.512-2.88-2.928-5.928-4.248-9.144-1.296-3.24-2.376-6.516-3.24-9.828h3.6c.264 1.08.576 2.244.936 3.492.384 1.248.804 2.532 1.26 3.852s.948 2.64 1.476 3.96 1.08 2.592 1.656 3.816c.912-2.52 1.704-5.016 2.376-7.488s1.308-5.016 1.908-7.632h3.456c-.864 3.528-1.824 6.924-2.88 10.188-1.056 3.24-2.196 6.276-3.42 9.108-.48 1.08-.984 2.004-1.512 2.772-.504.792-1.068 1.44-1.692 1.944s-1.332.876-2.124 1.116c-.768.24-1.644.36-2.628.36-.264 0-.54-.024-.828-.072-.288-.024-.576-.072-.864-.144-.264-.048-.516-.108-.756-.18-.216-.072-.372-.132-.468-.18z" fill="#000"/><path d="m166.773 267.704c.72.552 1.476 1.236 2.268 2.052.816.816 1.608 1.704 2.376 2.664.792.936 1.536 1.896 2.232 2.88.696.96 1.284 1.86 1.764 2.7h-3.924c-.504-.84-1.092-1.692-1.764-2.556-.648-.888-1.332-1.728-2.052-2.52-.72-.816-1.452-1.56-2.196-2.232s-1.452-1.236-2.124-1.692v9h-3.348v-27.36l3.348-.576v17.064l1.908-1.908c.696-.696 1.38-1.404 2.052-2.124s1.308-1.404 1.908-2.052c.6-.672 1.116-1.26 1.548-1.764h3.924c-.552.6-1.152 1.26-1.8 1.98s-1.32 1.452-2.016 2.196c-.696.72-1.404 1.452-2.124 2.196-.696.72-1.356 1.404-1.98 2.052zm26.549 9.756c-.768.192-1.788.396-3.06.612-1.248.216-2.7.324-4.356.324-1.44 0-2.652-.204-3.636-.612-.984-.432-1.776-1.032-2.376-1.8s-1.032-1.668-1.296-2.7c-.264-1.056-.396-2.22-.396-3.492v-10.512h3.348v9.792c0 2.28.36 3.912 1.08 4.896s1.932 1.476 3.636 1.476c.36 0 .732-.012 1.116-.036s.744-.048 1.08-.072c.336-.048.636-.084.9-.108.288-.048.492-.096.612-.144v-15.804h3.348zm8.719-17.352c.408-.264 1.02-.54 1.836-.828.84-.288 1.8-.432 2.88-.432 1.344 0 2.532.24 3.564.72 1.056.48 1.944 1.152 2.664 2.016s1.26 1.896 1.62 3.096c.384 1.2.576 2.52.576 3.96 0 1.512-.228 2.88-.684 4.104-.432 1.2-1.056 2.22-1.872 3.06s-1.8 1.488-2.952 1.944-2.448.684-3.888.684c-1.56 0-2.94-.108-4.14-.324s-2.184-.432-2.952-.648v-26.82l3.348-.576zm0 14.976c.336.096.804.192 1.404.288.624.072 1.392.108 2.304.108 1.8 0 3.24-.588 4.32-1.764 1.08-1.2 1.62-2.892 1.62-5.076 0-.96-.096-1.86-.288-2.7s-.504-1.56-.936-2.16c-.432-.624-.996-1.104-1.692-1.44-.672-.36-1.488-.54-2.448-.54-.912 0-1.752.156-2.52.468s-1.356.636-1.764.972zm16.412-6.408c0-1.656.24-3.096.72-4.32.48-1.248 1.116-2.28 1.908-3.096s1.704-1.428 2.736-1.836 2.088-.612 3.168-.612c2.52 0 4.452.792 5.796 2.376 1.344 1.56 2.016 3.948 2.016 7.164v.576c0 .216-.012.42-.036.612h-12.816c.144 1.944.708 3.42 1.692 4.428s2.52 1.512 4.608 1.512c1.176 0 2.16-.096 2.952-.288.816-.216 1.428-.42 1.836-.612l.468 2.808c-.408.216-1.128.444-2.16.684-1.008.24-2.16.36-3.456.36-1.632 0-3.048-.24-4.248-.72-1.176-.504-2.148-1.188-2.916-2.052s-1.344-1.884-1.728-3.06c-.36-1.2-.54-2.508-.54-3.924zm12.852-1.836c.024-1.512-.36-2.748-1.152-3.708-.768-.984-1.836-1.476-3.204-1.476-.768 0-1.452.156-2.052.468-.576.288-1.068.672-1.476 1.152s-.732 1.032-.972 1.656c-.216.624-.36 1.26-.432 1.908zm16.041 11.592c-1.512 0-2.844-.24-3.996-.72-1.128-.48-2.088-1.152-2.88-2.016-.768-.864-1.344-1.884-1.728-3.06-.384-1.2-.576-2.52-.576-3.96s.204-2.76.612-3.96c.432-1.2 1.032-2.232 1.8-3.096.768-.888 1.704-1.572 2.808-2.052 1.128-.504 2.376-.756 3.744-.756.84 0 1.68.072 2.52.216s1.644.372 2.412.684l-.756 2.844c-.504-.24-1.092-.432-1.764-.576-.648-.144-1.344-.216-2.088-.216-1.872 0-3.312.588-4.32 1.764-.984 1.176-1.476 2.892-1.476 5.148 0 1.008.108 1.932.324 2.772.24.84.6 1.56 1.08 2.16.504.6 1.14 1.068 1.908 1.404.768.312 1.704.468 2.808.468.888 0 1.692-.084 2.412-.252s1.284-.348 1.692-.54l.468 2.808c-.192.12-.468.24-.828.36-.36.096-.768.18-1.224.252-.456.096-.948.168-1.476.216-.504.072-.996.108-1.476.108zm24.269-9.792c0 1.488-.216 2.832-.648 4.032s-1.044 2.232-1.836 3.096c-.768.864-1.692 1.536-2.772 2.016-1.08.456-2.256.684-3.528.684s-2.448-.228-3.528-.684c-1.08-.48-2.016-1.152-2.808-2.016-.768-.864-1.368-1.896-1.8-3.096s-.648-2.544-.648-4.032c0-1.464.216-2.796.648-3.996.432-1.224 1.032-2.268 1.8-3.132.792-.864 1.728-1.524 2.808-1.98 1.08-.48 2.256-.72 3.528-.72s2.448.24 3.528.72c1.08.456 2.004 1.116 2.772 1.98.792.864 1.404 1.908 1.836 3.132.432 1.2.648 2.532.648 3.996zm-3.492 0c0-2.112-.48-3.78-1.44-5.004-.936-1.248-2.22-1.872-3.852-1.872s-2.928.624-3.888 1.872c-.936 1.224-1.404 2.892-1.404 5.004s.468 3.792 1.404 5.04c.96 1.224 2.256 1.836 3.888 1.836s2.916-.612 3.852-1.836c.96-1.248 1.44-2.928 1.44-5.04zm7.807-8.82c.768-.192 1.788-.396 3.06-.612s2.736-.324 4.392-.324c1.488 0 2.724.216 3.708.648.984.408 1.764.996 2.34 1.764.6.744 1.02 1.644 1.26 2.7s.36 2.22.36 3.492v10.512h-3.348v-9.792c0-1.152-.084-2.136-.252-2.952-.144-.816-.396-1.476-.756-1.98s-.84-.864-1.44-1.08c-.6-.24-1.344-.36-2.232-.36-.36 0-.732.012-1.116.036s-.756.06-1.116.108c-.336.024-.648.06-.936.108-.264.048-.456.084-.576.108v15.804h-3.348zm27.584-9.756c.84 0 1.56.06 2.16.18.6.096 1.032.192 1.296.288l-.468 2.88c-.264-.096-.624-.192-1.08-.288-.456-.12-1.008-.18-1.656-.18-1.56 0-2.652.432-3.276 1.296-.624.84-.936 1.98-.936 3.42v1.62h7.2v2.808h-7.2v15.912h-3.348v-20.412c0-2.4.588-4.248 1.764-5.544 1.176-1.32 3.024-1.98 5.544-1.98zm10.08 27.936h-3.348v-18.72h3.348zm-1.692-22.104c-.6 0-1.116-.192-1.548-.576-.408-.408-.612-.948-.612-1.62s.204-1.2.612-1.584c.432-.408.948-.612 1.548-.612s1.104.204 1.512.612c.432.384.648.912.648 1.584s-.216 1.212-.648 1.62c-.408.384-.912.576-1.512.576zm18.776 20.232c-.288.192-.852.444-1.692.756-.816.288-1.776.432-2.88.432-1.128 0-2.196-.18-3.204-.54-.984-.36-1.848-.912-2.592-1.656-.744-.768-1.332-1.716-1.764-2.844s-.648-2.472-.648-4.032c0-1.368.204-2.616.612-3.744.408-1.152.996-2.136 1.764-2.952.792-.84 1.752-1.488 2.88-1.944 1.128-.48 2.4-.72 3.816-.72 1.56 0 2.916.12 4.068.36 1.176.216 2.16.42 2.952.612v16.704c0 2.88-.744 4.968-2.232 6.264s-3.744 1.944-6.768 1.944c-1.176 0-2.292-.096-3.348-.288-1.032-.192-1.932-.42-2.7-.684l.612-2.916c.672.264 1.488.492 2.448.684.984.216 2.004.324 3.06.324 1.992 0 3.42-.396 4.284-1.188.888-.792 1.332-2.052 1.332-3.78zm-.036-13.896c-.336-.096-.792-.18-1.368-.252-.552-.096-1.308-.144-2.268-.144-1.8 0-3.192.588-4.176 1.764-.96 1.176-1.44 2.736-1.44 4.68 0 1.08.132 2.004.396 2.772.288.768.66 1.404 1.116 1.908.48.504 1.02.876 1.62 1.116.624.24 1.26.36 1.908.36.888 0 1.704-.12 2.448-.36.744-.264 1.332-.564 1.764-.9z" fill="#000"/><path d="m548.825 473c-.408-1.08-.792-2.136-1.152-3.168-.36-1.056-.732-2.124-1.116-3.204h-11.304l-2.268 6.372h-3.636c.96-2.64 1.86-5.076 2.7-7.308.84-2.256 1.656-4.392 2.448-6.408.816-2.016 1.62-3.936 2.412-5.76.792-1.848 1.62-3.672 2.484-5.472h3.204c.864 1.8 1.692 3.624 2.484 5.472.792 1.824 1.584 3.744 2.376 5.76.816 2.016 1.644 4.152 2.484 6.408.84 2.232 1.74 4.668 2.7 7.308zm-3.276-9.252c-.768-2.088-1.536-4.104-2.304-6.048-.744-1.968-1.524-3.852-2.34-5.652-.84 1.8-1.644 3.684-2.412 5.652-.744 1.944-1.488 3.96-2.232 6.048zm24.244 8.712c-.768.192-1.788.396-3.06.612-1.248.216-2.7.324-4.356.324-1.44 0-2.652-.204-3.636-.612-.984-.432-1.776-1.032-2.376-1.8s-1.032-1.668-1.296-2.7c-.264-1.056-.396-2.22-.396-3.492v-10.512h3.348v9.792c0 2.28.36 3.912 1.08 4.896s1.932 1.476 3.636 1.476c.36 0 .732-.012 1.116-.036s.744-.048 1.08-.072c.336-.048.636-.084.9-.108.288-.048.492-.096.612-.144v-15.804h3.348zm8.503-18.18h7.092v2.808h-7.092v8.64c0 .936.072 1.716.216 2.34.144.6.36 1.08.648 1.44.288.336.648.576 1.08.72s.936.216 1.512.216c1.008 0 1.812-.108 2.412-.324.624-.24 1.056-.408 1.296-.504l.648 2.772c-.336.168-.924.372-1.764.612-.84.264-1.8.396-2.88.396-1.272 0-2.328-.156-3.168-.468-.816-.336-1.476-.828-1.98-1.476s-.864-1.44-1.08-2.376c-.192-.96-.288-2.064-.288-3.312v-16.704l3.348-.576zm10.957 18.72v-27.36l3.348-.576v9.576c.624-.24 1.284-.42 1.98-.54.72-.144 1.428-.216 2.124-.216 1.488 0 2.724.216 3.708.648.984.408 1.764.996 2.34 1.764.6.744 1.02 1.644 1.26 2.7s.36 2.22.36 3.492v10.512h-3.348v-9.792c0-1.152-.084-2.136-.252-2.952-.144-.816-.396-1.476-.756-1.98s-.84-.864-1.44-1.08c-.6-.24-1.344-.36-2.232-.36-.36 0-.732.024-1.116.072s-.756.108-1.116.18c-.336.048-.648.108-.936.18-.264.072-.456.132-.576.18v15.552z" fill="#000"/><rect fill="url(#a)" height="56" rx="4" width="163" x="66" y="138"/><path d="m90.8434 170.416-13.76 5.792-1.248-3.872 10.048-3.904-10.048-3.904 1.248-3.872 13.76 5.792zm15.6026-3.168c.47-.512.95-1.045 1.44-1.6.512-.555 1.003-1.099 1.472-1.632.47-.555.907-1.077 1.312-1.568.427-.491.79-.917 1.088-1.28h5.664c-1.13 1.301-2.24 2.549-3.328 3.744-1.066 1.173-2.24 2.389-3.52 3.648.64.576 1.302 1.269 1.984 2.08.683.789 1.344 1.611 1.984 2.464s1.227 1.707 1.76 2.56c.534.853.982 1.632 1.344 2.336h-5.472c-.341-.555-.736-1.163-1.184-1.824-.426-.683-.885-1.355-1.376-2.016-.49-.683-1.013-1.333-1.568-1.952-.533-.619-1.066-1.141-1.6-1.568v7.36h-4.768v-24.064l4.768-.768zm27.467 10.176c-.811.235-1.856.448-3.136.64-1.28.213-2.624.32-4.032.32-1.429 0-2.624-.192-3.584-.576-.939-.384-1.685-.917-2.24-1.6-.555-.704-.949-1.536-1.184-2.496s-.352-2.016-.352-3.168v-9.376h4.768v8.8c0 1.536.203 2.645.608 3.328s1.163 1.024 2.272 1.024c.341 0 .704-.011 1.088-.032.384-.043.725-.085 1.024-.128v-12.992h4.768zm14.908-7.968c0-3.072-1.131-4.608-3.392-4.608-.491 0-.981.064-1.472.192-.469.128-.853.288-1.152.48v8.672c.235.043.533.085.896.128.363.021.757.032 1.184.032 1.301 0 2.283-.448 2.944-1.344s.992-2.08.992-3.552zm4.864.128c0 1.344-.203 2.56-.608 3.648-.384 1.088-.949 2.016-1.696 2.784s-1.664 1.365-2.752 1.792c-1.088.405-2.325.608-3.712.608-.576 0-1.184-.032-1.824-.096-.619-.043-1.237-.107-1.856-.192-.597-.085-1.173-.181-1.728-.288-.555-.128-1.045-.256-1.472-.384v-23.52l4.768-.768v8.384c.533-.235 1.088-.416 1.664-.544s1.195-.192 1.856-.192c1.195 0 2.251.213 3.168.64.917.405 1.685.992 2.304 1.76s1.088 1.696 1.408 2.784c.32 1.067.48 2.261.48 3.584zm2.512.128c0-1.493.224-2.795.672-3.904.47-1.131 1.078-2.069 1.824-2.816.747-.747 1.6-1.312 2.56-1.696.982-.384 1.984-.576 3.008-.576 2.39 0 4.278.736 5.664 2.208 1.387 1.451 2.08 3.595 2.08 6.432 0 .277-.01.587-.032.928-.021.32-.042.608-.064.864h-10.816c.107.981.566 1.76 1.376 2.336.811.576 1.899.864 3.264.864.875 0 1.728-.075 2.56-.224.854-.171 1.547-.373 2.08-.608l.64 3.872c-.256.128-.597.256-1.024.384-.426.128-.906.235-1.44.32-.512.107-1.066.192-1.664.256-.597.064-1.194.096-1.792.096-1.514 0-2.837-.224-3.968-.672-1.109-.448-2.037-1.056-2.784-1.824-.725-.789-1.269-1.717-1.632-2.784-.341-1.067-.512-2.219-.512-3.456zm11.2-1.824c-.021-.405-.096-.8-.224-1.184-.106-.384-.288-.725-.544-1.024-.234-.299-.544-.544-.928-.736-.362-.192-.821-.288-1.376-.288-.533 0-.992.096-1.376.288-.384.171-.704.405-.96.704s-.458.651-.608 1.056c-.128.384-.224.779-.288 1.184zm7.136 1.696c0-1.216.192-2.357.576-3.424.405-1.088.981-2.027 1.728-2.816.747-.811 1.653-1.451 2.72-1.92s2.283-.704 3.648-.704c.896 0 1.717.085 2.464.256.747.149 1.472.373 2.176.672l-.992 3.808c-.448-.171-.939-.32-1.472-.448s-1.131-.192-1.792-.192c-1.408 0-2.464.437-3.168 1.312-.683.875-1.024 2.027-1.024 3.456 0 1.515.32 2.688.96 3.52.661.832 1.803 1.248 3.424 1.248.576 0 1.195-.053 1.856-.16s1.269-.277 1.824-.512l.672 3.904c-.555.235-1.248.437-2.08.608s-1.749.256-2.752.256c-1.536 0-2.859-.224-3.968-.672-1.109-.469-2.027-1.099-2.752-1.888-.704-.789-1.227-1.717-1.568-2.784-.32-1.088-.48-2.261-.48-3.52zm16.288-12.608 4.768-.768v4.96h5.728v3.968h-5.728v5.92c0 1.003.171 1.803.512 2.4.363.597 1.077.896 2.144.896.512 0 1.035-.043 1.568-.128.555-.107 1.056-.245 1.504-.416l.672 3.712c-.576.235-1.216.437-1.92.608s-1.568.256-2.592.256c-1.301 0-2.379-.171-3.232-.512-.853-.363-1.536-.853-2.048-1.472-.512-.64-.875-1.408-1.088-2.304-.192-.896-.288-1.888-.288-2.976zm20.747 21.344c-1.387-.021-2.518-.171-3.392-.448-.854-.277-1.536-.661-2.048-1.152-.491-.512-.832-1.12-1.024-1.824-.171-.725-.256-1.536-.256-2.432v-18.528l4.768-.768v18.336c0 .427.032.811.096 1.152s.181.629.352.864c.192.235.458.427.8.576.341.149.8.245 1.376.288z" fill="#fff"/><path d="m380 2v494" stroke="#b3b3b3" stroke-dasharray="20 20" stroke-linecap="round" stroke-width="4"/><path d="m750 2v494" stroke="#b3b3b3" stroke-dasharray="20 20" stroke-linecap="round" stroke-width="4"/><path d="m637 165c-1.105 0-2 .895-2 2s.895 2 2 2v-2zm253.414 3.414c.781-.781.781-2.047 0-2.828l-12.728-12.728c-.781-.781-2.047-.781-2.828 0s-.781 2.047 0 2.828l11.314 11.314-11.314 11.314c-.781.781-.781 2.047 0 2.828s2.047.781 2.828 0zm-253.414-1.414v2h252v-2-2h-252z" fill="#000"/><path d="m242 165c-1.105 0-2 .895-2 2s.895 2 2 2v-2zm253.414 3.414c.781-.781.781-2.047 0-2.828l-12.728-12.728c-.781-.781-2.047-.781-2.828 0s-.781 2.047 0 2.828l11.314 11.314-11.314 11.314c-.781.781-.781 2.047 0 2.828s2.047.781 2.828 0zm-253.414-1.414v2h252v-2-2h-252z" fill="#000"/><path d="m501 403c1.105 0 2-.895 2-2s-.895-2-2-2v2zm-299.914-3.414c-.781.781-.781 2.047 0 2.828l12.728 12.728c.781.781 2.047.781 2.828 0s.781-2.047 0-2.828l-11.314-11.314 11.314-11.314c.781-.781.781-2.047 0-2.828s-2.047-.781-2.828 0zm299.914 1.414v-2h-298.5v2 2h298.5z" fill="#000"/><path d="m138 305c0 1.105.895 2 2 2s2-.895 2-2h-2zm3.414-96.914c-.781-.781-2.047-.781-2.828 0l-12.728 12.728c-.781.781-.781 2.047 0 2.828s2.047.781 2.828 0l11.314-11.314 11.314 11.314c.781.781 2.047.781 2.828 0s.781-2.047 0-2.828zm-1.414 96.914h2v-95.5h-2-2v95.5z" fill="#000"/><g fill="#512fc9"><path d="m522.159 352.961h92.551c2.33 0 4.16-2.331 3.162-4.828l-10.82-24.136c-.333-1.331-1.664-1.997-2.663-1.997h-71.576c-.998 0-2.33.666-3.163 1.997l-10.652 24.136c-.999 2.497.831 4.828 3.161 4.828z"/><path d="m616.874 356.292h-96.544c-1.998 0-3.33 1.498-3.33 3.662v13.649c0 1.998 1.332 3.33 3.33 3.33h96.544c1.997 0 3.329-1.332 3.329-3.33v-13.649c0-2.164-1.332-3.662-3.329-3.662zm-20.641 13.982c-2.164 0-3.661-1.498-3.661-3.662 0-1.997 1.497-3.329 3.661-3.329 1.998 0 3.329 1.332 3.329 3.329 0 2.164-1.331 3.662-3.329 3.662zm16.979 0h-6.659c-2.164 0-3.662-1.498-3.662-3.662 0-1.997 1.498-3.329 3.662-3.329h6.659c2.164 0 3.662 1.332 3.662 3.329 0 2.164-1.498 3.662-3.662 3.662z"/><path d="m616.874 404.563h-96.544c-1.998 0-3.33 1.332-3.33 3.329v13.983c0 1.997 1.332 3.329 3.33 3.329h96.544c1.997 0 3.329-1.332 3.329-3.329v-13.983c0-1.997-1.332-3.329-3.329-3.329zm-20.641 13.65c-2.164 0-3.661-1.332-3.661-3.329 0-1.998 1.497-3.329 3.661-3.329 1.998 0 3.329 1.331 3.329 3.329 0 1.997-1.331 3.329-3.329 3.329zm16.979 0h-6.659c-2.164 0-3.662-1.332-3.662-3.329 0-1.998 1.498-3.329 3.662-3.329h6.659c2.164 0 3.662 1.331 3.662 3.329 0 1.997-1.498 3.329-3.662 3.329z"/><path d="m616.874 380.592h-96.544c-1.998 0-3.33 1.332-3.33 3.329v13.65c0 2.164 1.332 3.662 3.33 3.662h96.544c1.997 0 3.329-1.498 3.329-3.662v-13.65c0-1.997-1.332-3.329-3.329-3.329zm-82.562 13.65c-2.164 0-3.663-1.333-3.663-3.33 0-2.164 1.499-3.662 3.663-3.662 1.998 0 3.328 1.498 3.328 3.662 0 1.997-1.33 3.33-3.328 3.33zm10.32 0c-2.164 0-3.662-1.333-3.662-3.33 0-2.164 1.498-3.662 3.662-3.662 1.997 0 3.329 1.498 3.329 3.662 0 1.997-1.332 3.33-3.329 3.33zm10.32 0c-2.163 0-3.662-1.333-3.662-3.33 0-2.164 1.499-3.662 3.662-3.662 1.998 0 3.329 1.498 3.329 3.662 0 1.997-1.331 3.33-3.329 3.33zm10.32 0c-2.164 0-3.662-1.333-3.662-3.33 0-2.164 1.498-3.662 3.662-3.662 1.997 0 3.33 1.498 3.33 3.662 0 1.997-1.333 3.33-3.33 3.33zm30.961 0c-2.164 0-3.661-1.333-3.661-3.33 0-2.164 1.497-3.662 3.661-3.662 1.998 0 3.329 1.498 3.329 3.662 0 1.997-1.331 3.33-3.329 3.33zm16.979 0h-6.659c-2.164 0-3.662-1.333-3.662-3.33 0-2.164 1.498-3.662 3.662-3.662h6.659c2.164 0 3.662 1.498 3.662 3.662 0 1.997-1.498 3.33-3.662 3.33z"/><path clip-rule="evenodd" d="m475.142 26.5012c0-4.7417 3.867-8.5997 8.62-8.6 4.754.0003 8.621 3.8583 8.621 8.6s-3.867 8.5993-8.62 8.5993c-4.754 0-8.621-3.8575-8.621-8.5993zm3.549 0c0 2.7866 2.275 5.0534 5.072 5.0534 2.796 0 5.071-2.2668 5.071-5.0534 0-2.7869-2.275-5.054-5.072-5.054-2.796 0-5.071 2.2671-5.071 5.054z" fill-rule="evenodd"/><path clip-rule="evenodd" d="m504.202 32.5735-4.197-3.5702.078-.4845c.088-.655.116-1.3385.116-2.0137 0-.8391-.044-1.7016-.194-2.4983l4.197-3.565.092-.0777c.112-.1097.188-.2531.217-.4068.03-.1553.01-.3157-.054-.4592-.857-2.5826-2.335-5.0403-4.153-7.0778-.257-.2919-.62-.3983-.961-.2497l-5.288 1.8027-.439-.3393c-1.204-.8946-2.524-1.6203-3.925-2.1572l-1.047-5.37116-.031-.11142c-.052-.15193-.144-.28531-.267-.38825-.123-.10302-.272-.17047-.43-.1941l-.002-.00173c-2.741-.54685-5.562-.54685-8.302 0-.178.02702-.343.10809-.474.23132-.13.12484-.219.28524-.255.46245l-1.047 5.37129-.475.189c-1.404.5739-2.715 1.3504-3.891 2.3074l-5.286-1.8044-.117-.0371c-.154-.0372-.316-.0288-.466.0219-.15.0524-.283.1452-.382.2683-1.82 2.0375-3.296 4.4952-4.151 7.0778-.073.1621-.088.3444-.041.5166s.152.3241.297.4271l4.196 3.5667-.078.4844c-.088.655-.115 1.3421-.115 2.0122-.012.8372.053 1.6728.193 2.4982l-4.194 3.5702-.093.0759c-.112.1113-.188.2532-.217.4084-.029.1554-.01.3158.054.4591.855 2.5844 2.331 5.0388 4.151 7.0728.258.2937.622.4.963.2532l5.286-1.8062.386.3107c1.215.9149 2.556 1.6525 3.98 2.1876l1.047 5.3746.029.1113c.053.1503.146.2854.269.3884.123.1029.272.1687.431.1941 1.37.2498 2.74.3966 4.152.3966s2.782-.1468 4.152-.3966c.177-.0288.342-.1097.472-.233.13-.125.219-.2852.256-.4608l1.049-5.3746.523-.211c1.384-.5841 2.681-1.3538 3.841-2.2873l5.286 1.8063.115.0388c.307.0827.618-.0304.848-.2921 1.821-2.034 3.296-4.4884 4.151-7.0727.074-.162.088-.346.042-.5183-.047-.1721-.152-.3223-.297-.4252zm-20.439 6.5088c-6.969 0-12.617-5.6328-12.617-12.5806 0-6.9475 5.644-12.5818 12.616-12.5823 6.969.0005 12.618 5.6348 12.618 12.5823 0 6.9478-5.649 12.5806-12.617 12.5806z" fill-rule="evenodd"/><path d="m562.601 11.3723h-6.06v28.723h6.06z"/><path d="m536.752 12.1384h-22.645v5.1434h8.016v22.8133h6.611v-22.8133h8.018z"/><path clip-rule="evenodd" d="m603.708 20.5042c.919.4777 1.717 1.1613 2.328 1.9969.652.8694 1.162 1.9344 1.534 3.1937.372 1.2609.556 2.689.556 4.2893 0 1.4955-.21 2.8779-.635 4.1439-.387 1.1985-.989 2.3177-1.778 3.3001-.745.9182-1.679 1.6644-2.738 2.1859-1.1.5335-2.308.8035-3.529.7883-1.058 0-1.945-.1469-2.659-.4406-.712-.2903-1.372-.692-1.957-1.1899v7.6365h-6.061v-26.2113h3.753l.185.0084c.272.0135.533.0979.763.2414.264.1772.455.4439.539.7495l.448 1.4584.299-.3106c.306-.3021.628-.5824.963-.8423 1.446-1.117 3.227-1.7129 5.056-1.6878 1.059.0002 2.035.2296 2.933.6902zm-2.943 14.1521c.346-.4793.615-1.1039.813-1.8719.194-.7664.292-1.6998.292-2.8003 0-1.05-.079-1.9312-.235-2.6486-.155-.7157-.375-1.2946-.654-1.7369-.28-.4405-.618-.7562-1.008-.9503-.39-.1909-.826-.2871-1.311-.2871-.443 0-.843.0423-1.201.1266-.359.0811-.693.1993-.997.3546-.309.1552-.597.3511-.852.5841-.278.2548-.539.5266-.782.8152v8.4434l.198.2025c.365.368.804.6549 1.289.8424.534.1991 1.095.297 1.681.297.534.0051 1.061-.1047 1.544-.3257.47-.2178.877-.5672 1.223-1.045z" fill-rule="evenodd"/><path clip-rule="evenodd" d="m550.312 22.29c-.821-.7916-1.801-1.4009-2.875-1.7858-1.183-.4204-2.429-.628-3.685-.6128-1.552 0-2.944.2617-4.176.7867-1.182.4911-2.254 1.2136-3.149 2.1285-.868.898-1.546 1.9615-1.993 3.1278-.467 1.2053-.702 2.4881-.695 3.7812 0 1.764.269 3.3118.813 4.642.54 1.3301 1.277 2.4442 2.21 3.3388.932.8963 2.02 1.5698 3.265 2.0256 1.244.4524 2.578.6803 3.997.6803.693 0 1.418-.049 2.181-.1435.762-.0962 1.524-.2684 2.288-.5199.764-.2482 1.507-.5925 2.23-1.0348.62-.3763 1.204-.8525 1.754-1.4229l.27-.2938-1.759-2.1302c-.25-.3461-.613-.5199-1.096-.5199-.365 0-.713.0844-1.044.2515-.335.1654-.7.3511-1.097.5553-.437.2212-.892.4068-1.36.5571-.508.1671-1.115.2498-1.818.2498-1.317 0-2.393-.3747-3.226-1.1225-.779-.6988-1.279-1.7961-1.502-3.2916l-.042-.3258h11.692c.275 0 .498-.0321.674-.0945.176-.0641.326-.1857.422-.346.117-.2059.191-.4356.215-.6718.039-.2819.059-.6448.059-1.0939 0-1.433-.226-2.716-.676-3.8469-.415-1.0787-1.054-2.056-1.877-2.868zm-10.452 5.4675c.209-1.2153.64-2.1471 1.291-2.7919.652-.6466 1.557-.969 2.718-.969.65 0 1.205.1097 1.662.3275.429.1958.806.4878 1.105.8525.282.3545.488.763.607 1.2001.123.4508.186.9149.184 1.3808z" fill-rule="evenodd"/><path clip-rule="evenodd" d="m579.86 20.5042c1.075.3849 2.055.9925 2.876 1.7843.801.7815 1.427 1.7384 1.877 2.8695.447 1.1309.674 2.4139.674 3.8469 0 .4491-.017.812-.059 1.0939-.024.2362-.098.4659-.215.6718-.096.1603-.245.2819-.421.346-.216.0692-.444.1012-.674.0946h-11.694l.042.3257c.223 1.4956.724 2.5928 1.504 3.2916.833.7495 1.909 1.1209 3.227 1.1209.703 0 1.309-.0811 1.818-.2482.466-.1486.92-.3343 1.358-.5553.399-.206.764-.3917 1.096-.5554.331-.1688.681-.2516 1.044-.2516.485 0 .848.1722 1.097.5183l1.76 2.1303-.272.2937c-.52.5485-1.11 1.0263-1.752 1.4229-.724.4423-1.466.7884-2.228 1.0365-.745.2464-1.512.4186-2.289.5182-.764.0945-1.489.1435-2.18.1435-1.363.0101-2.716-.2212-3.998-.6803-1.22-.4389-2.334-1.1276-3.268-2.0256-.932-.8946-1.667-2.0053-2.21-3.3372-.54-1.3317-.812-2.8796-.812-4.6436 0-1.3318.233-2.5911.696-3.7812.448-1.1663 1.125-2.2298 1.993-3.1278.896-.9132 1.967-1.6373 3.148-2.1285 1.231-.525 2.623-.7884 4.174-.7884l.002.0018c1.255-.0153 2.504.1923 3.686.6127zm-6.286 4.4614c-.652.6465-1.083 1.5766-1.291 2.7919h7.567c0-.4744-.061-.9318-.184-1.3808-.125-.4473-.326-.849-.606-1.2001-.283-.3528-.649-.6364-1.107-.8542-.456-.2161-1.009-.3241-1.662-.3241-1.161 0-2.067.3224-2.717.9673z" fill-rule="evenodd"/><path clip-rule="evenodd" d="m627.868 22.6346c-.93-.8981-2.041-1.5901-3.255-2.034-1.265-.4727-2.666-.709-4.203-.709-1.553 0-2.965.2363-4.236.709-1.225.4439-2.343 1.1377-3.286 2.034-.932.9046-1.66 2.0019-2.13 3.2139-.502 1.2593-.752 2.6772-.752 4.2504 0 1.585.25 3.0148.752 4.2892.502 1.2711 1.213 2.3513 2.13 3.2426.943.9032 2.061 1.602 3.286 2.051 1.272.481 2.683.7207 4.236.7207 1.537 0 2.939-.2397 4.203-.7207 1.216-.449 2.326-1.1478 3.255-2.051.906-.8913 1.61-1.9715 2.112-3.2426.504-1.2728.754-2.7042.754-4.2892 0-1.5732-.25-2.9911-.754-4.2504-.468-1.2086-1.188-2.3041-2.112-3.2139zm-4.38 11.9054c-.657.9656-1.686 1.45-3.078 1.45-1.435 0-2.486-.4827-3.15-1.45-.665-.9655-.996-2.4324-.996-4.4022 0-1.97.331-3.4368.996-4.394.666-.9588 1.715-1.4398 3.15-1.4398 1.392 0 2.421.4793 3.078 1.4398.659.9572.986 2.424.986 4.394 0 1.9698-.327 3.4367-.986 4.4022z" fill-rule="evenodd"/><path d="m660.819 35.4633c.111.0827.225.2126.343.3916l1.838 2.8206-.297.2094c-.722.4793-1.511.8457-2.342 1.0853-.98.287-1.988.4322-3.032.4322-.965 0-1.815-.1385-2.553-.4119-.696-.2515-1.331-.6499-1.857-1.1716-.51-.5198-.902-1.1444-1.143-1.8314-.271-.7715-.403-1.5833-.392-2.3986v-10.285h-1.722l-.152-.0083c-.242-.0254-.468-.125-.649-.2888-.221-.1974-.331-.4895-.331-.8743v-2.3193l3.225-.6145 1.195-4.8563.044-.147c.187-.5148.614-.7731 1.283-.7731h3.17v5.8136h4.928v4.0664h-4.928v9.8831l.007.1943c.027.3729.14.6903.336.9485.226.2988.556.4508.985.4508.329.0066.657-.0693.949-.2212.112-.0574.215-.108.314-.1535.107-.0474.225-.0693.342-.0676.157-.0068.311.0371.439.1266z"/><path d="m603.364 19.8139.002.0001.002-.0001z"/><path d="m639.997 23.0936c.615-.8895 1.377-1.666 2.254-2.3006.924-.6517 1.936-.9791 3.03-.9791.926 0 1.668.2178 2.23.6533l-.78 4.3753-.037.1502c-.043.1654-.141.3122-.277.4153-.156.1097-.365.1637-.625.1637-.223 0-.484-.0304-.783-.0878-.299-.0573-.677-.0861-1.135-.0861-1.59 0-2.842.8304-3.754 2.4931v12.2043h-6.061v-19.8964h3.595l.216.005c.181.0051.361.0287.537.071.184.0438.358.1248.509.2396.14.1147.248.2633.312.4322.081.2126.144.4305.186.6532l.333 1.8585z"/></g></g></svg>