<svg xmlns="http://www.w3.org/2000/svg" width="24" height="24" fill="none" viewBox="0 0 24 24"><path fill="#000" fill-rule="evenodd" d="M3.75 9.375a6.375 6.375 0 1 1 9.755 5.406c2.003.656 3.723 1.885 5.07 3.486a.75.75 0 0 1-1.15.966c-1.798-2.141-4.315-3.483-7.3-3.483s-5.502 1.342-7.3 3.483a.75.75 0 0 1-1.15-.966c1.347-1.601 3.067-2.83 5.07-3.486A6.37 6.37 0 0 1 3.75 9.375M10.125 4.5a4.875 4.875 0 1 0 0 9.75 4.875 4.875 0 0 0 0-9.75" clip-rule="evenodd"/><path fill="#000" d="M21.75 10.5a.75.75 0 0 0-1.5 0V12h-1.5a.75.75 0 0 0 0 1.5h1.5V15a.75.75 0 0 0 1.5 0v-1.5h1.5a.75.75 0 0 0 0-1.5h-1.5z"/></svg>