<svg xmlns="http://www.w3.org/2000/svg" width="24" height="24" fill="none" viewBox="0 0 24 24"><path fill="#000" d="M5.78 2.78a.75.75 0 0 0-1.06-1.06l-3 3a.75.75 0 0 0 1.06 1.06zm6.97 3.97a.75.75 0 0 0-1.5 0V12c0 .414.336.75.75.75h5.25a.75.75 0 0 0 0-1.5h-4.5z"/><path fill="#000" fill-rule="evenodd" d="M12 3a9 9 0 1 0 0 18 9 9 0 0 0 0-18m-7.5 9a7.5 7.5 0 1 1 15 0 7.5 7.5 0 0 1-15 0" clip-rule="evenodd"/><path fill="#000" d="M18.22 1.72a.75.75 0 0 1 1.06 0l3 3a.75.75 0 0 1-1.06 1.06l-3-3a.75.75 0 0 1 0-1.06"/></svg>