<svg xmlns="http://www.w3.org/2000/svg" width="24" height="24" fill="none" viewBox="0 0 24 24"><path fill="#000" fill-rule="evenodd" d="M12.14 1.635 3.39 7.052a.86.86 0 0 0-.287.293.8.8 0 0 0-.103.384V19.5H1.5a.75.75 0 0 0 0 1.5h21a.75.75 0 0 0 0-1.5H21V9a1.5 1.5 0 0 0-1.5-1.5h-6V2.31a.82.82 0 0 0-.463-.716.95.95 0 0 0-.898.04M19.5 19.5V9h-6v10.5zm-7.5 0V3.485L4.5 8.128V19.5zM9.75 9.75a.75.75 0 0 1 .75.75V12A.75.75 0 0 1 9 12v-1.5a.75.75 0 0 1 .75-.75m-2.25.75a.75.75 0 0 0-1.5 0V12a.75.75 0 0 0 1.5 0zM6.75 15a.75.75 0 0 1 .75.75v1.5a.75.75 0 0 1-1.5 0v-1.5a.75.75 0 0 1 .75-.75m3.75.75a.75.75 0 0 0-1.5 0v1.5a.75.75 0 0 0 1.5 0z" clip-rule="evenodd"/></svg>