<svg xmlns="http://www.w3.org/2000/svg" width="24" height="24" fill="none" viewBox="0 0 24 24"><path fill="#000" d="M12.75 6.75a.75.75 0 0 0-1.5 0v5.69l-1.72-1.72a.75.75 0 0 0-1.06 1.06l3 3a.75.75 0 0 0 1.06 0l3-3a.75.75 0 1 0-1.06-1.06l-1.72 1.72z"/><path fill="#000" fill-rule="evenodd" d="M4.5 3A1.5 1.5 0 0 0 3 4.5v15A1.5 1.5 0 0 0 4.5 21h15a1.5 1.5 0 0 0 1.5-1.5v-15A1.5 1.5 0 0 0 19.5 3zm0 16.5v-3.75h2.69L9 17.561c.282.281.663.439 1.06.439h3.88a1.5 1.5 0 0 0 1.06-.439l1.81-1.811h2.69v3.75zm12.31-5.25h2.69V4.5h-15v9.75h2.69c.397 0 .778.158 1.06.439l1.81 1.811h3.88l1.81-1.811c.281-.28.663-.439 1.06-.439" clip-rule="evenodd"/></svg>