<svg xmlns="http://www.w3.org/2000/svg" width="24" height="24" fill="none" viewBox="0 0 24 24"><path fill="#000" fill-rule="evenodd" d="M11.47 1.72a.75.75 0 0 1 1.06 0l9 9A.75.75 0 0 1 21 12h-3.75v2.25a.75.75 0 0 1-.75.75h-9a.75.75 0 0 1-.75-.75V12H3a.75.75 0 0 1-.53-1.28zM4.81 10.5H7.5a.75.75 0 0 1 .75.75v2.25h7.5v-2.25a.75.75 0 0 1 .75-.75h2.69L12 3.31z" clip-rule="evenodd"/><path fill="#000" d="M6.75 20.25a.75.75 0 0 1 .75-.75h9a.75.75 0 0 1 0 1.5h-9a.75.75 0 0 1-.75-.75m.75-3.75a.75.75 0 0 0 0 1.5h9a.75.75 0 0 0 0-1.5z"/></svg>