<svg xmlns="http://www.w3.org/2000/svg" width="24" height="24" fill="none"><path d="M4.201 3.823a1 1 0 0 0-.214.129c-.212.191-.29.605-.163.86.035.07.975 1.041 2.09 2.158L7.94 9l-1.04.001c-.922.001-1.058.009-1.202.074-.33.15-.512.505-.425.83.067.25.15.362.363.487l.184.108h2.06c1.863 0 2.072-.007 2.184-.068.16-.088.366-.323.405-.463.017-.06.031-1.018.031-2.129V5.82l-.1-.174c-.246-.43-.858-.512-1.188-.159C9.016 5.696 9 5.806 9 6.909V7.94L6.97 5.911c-1.401-1.4-2.076-2.047-2.179-2.09a.78.78 0 0 0-.59.002m14.999 0c-.089.038-.883.803-2.17 2.088L15 7.94V6.909c0-1.103-.016-1.213-.212-1.422-.33-.353-.942-.271-1.188.159l-.1.174v2.06c0 1.863.007 2.072.068 2.184.088.16.323.366.463.405.06.017 1.018.031 2.129.031h2.02l.184-.108c.42-.247.513-.752.207-1.116-.216-.256-.313-.274-1.471-.275L16.06 9l2.029-2.03c1.4-1.401 2.047-2.076 2.09-2.179.113-.275.038-.66-.165-.839a.82.82 0 0 0-.814-.129M5.595 13.635a.73.73 0 0 0 .103 1.29c.144.065.28.073 1.202.074L7.94 15l-2.026 2.03c-1.115 1.116-2.055 2.088-2.09 2.158-.127.255-.049.669.163.86a.8.8 0 0 0 .804.131c.103-.043.778-.69 2.179-2.09L9 16.06l.001 1.04c.001.922.009 1.058.074 1.202.15.33.505.512.83.425.25-.067.362-.15.487-.363l.108-.184v-2.02c0-1.111-.014-2.069-.031-2.129-.042-.152-.262-.392-.417-.457-.103-.043-.552-.054-2.203-.054H5.776zm8.303-.04c-.156.095-.33.302-.368.438-.017.059-.03 1.016-.03 2.127v2.02l.108.184c.247.42.752.513 1.116.207.256-.216.274-.313.275-1.471L15 16.06l2.03 2.029c1.401 1.4 2.076 2.047 2.179 2.09.275.113.66.038.839-.165a.8.8 0 0 0 .131-.805c-.043-.103-.69-.778-2.09-2.179L16.06 15l1.04-.001c.922-.001 1.058-.009 1.202-.074a.73.73 0 0 0 .103-1.29l-.181-.115h-2.102c-1.977 0-2.109.005-2.224.075"/></svg>