<svg xmlns="http://www.w3.org/2000/svg" width="24" height="24" fill="none" viewBox="0 0 24 24"><path fill="#000" d="M17.654 1.618a.75.75 0 1 0-.807 1.264 8.9 8.9 0 0 1 3.137 3.458.75.75 0 1 0 1.337-.68 10.4 10.4 0 0 0-3.668-4.042"/><path fill="#000" fill-rule="evenodd" d="M8.326 18.75h-3.83a1.5 1.5 0 0 1-1.29-2.25c.548-.949 1.294-2.767 1.294-6a7.5 7.5 0 0 1 15 0c0 3.233.747 5.05 1.296 6a1.5 1.5 0 0 1-.545 2.047 1.5 1.5 0 0 1-.748.203h-3.829a3.749 3.749 0 0 1-7.348 0m.676-1.5H4.504C5.192 16.061 6 13.982 6 10.5a6 6 0 1 1 12 0c0 3.482.809 5.56 1.497 6.75zm5.12 1.5a2.25 2.25 0 0 1-4.243 0z" clip-rule="evenodd"/><path fill="#000" d="M7.382 1.847a.75.75 0 0 1-.229 1.035A8.9 8.9 0 0 0 4.016 6.34a.75.75 0 0 1-1.337-.68 10.4 10.4 0 0 1 3.668-4.042.75.75 0 0 1 1.035.229"/></svg>