<svg xmlns="http://www.w3.org/2000/svg" width="24" height="24" fill="none" viewBox="0 0 24 24"><path fill="#000" d="M15 7.25a.75.75 0 0 0 0 1.5h3.75a.75.75 0 0 0 0-1.5zM14.25 11a.75.75 0 0 1 .75-.75h3.75a.75.75 0 0 1 0 1.5H15a.75.75 0 0 1-.75-.75m.75 2.25a.75.75 0 0 0 0 1.5h3.75a.75.75 0 0 0 0-1.5z"/><path fill="#000" fill-rule="evenodd" d="M1.94 3.94A1.5 1.5 0 0 1 3 3.5h6A3.75 3.75 0 0 1 12 5a3.75 3.75 0 0 1 3-1.5h6A1.5 1.5 0 0 1 22.5 5v12a1.5 1.5 0 0 1-1.5 1.5h-6a2.25 2.25 0 0 0-2.25 2.25.75.75 0 0 1-1.5 0A2.25 2.25 0 0 0 9 18.5H3A1.5 1.5 0 0 1 1.5 17V5c0-.398.158-.78.44-1.06m10.81 13.81V7.25A2.25 2.25 0 0 1 15 5h6v12h-6a3.75 3.75 0 0 0-2.25.75M10.591 5.659c.422.422.659.994.659 1.591v10.5A3.75 3.75 0 0 0 9 17H3V5h6a2.25 2.25 0 0 1 1.591.659" clip-rule="evenodd"/></svg>