<svg xmlns="http://www.w3.org/2000/svg" width="24" height="24" fill="none" viewBox="0 0 24 24"><path fill="#000" fill-rule="evenodd" d="M8.625 18h6.75a2.625 2.625 0 0 0 0-5.25h-6.75a2.625 2.625 0 0 0 0 5.25m0-3.75a1.125 1.125 0 0 0 0 2.25H9.75v-2.25zm5.625 2.25h1.125a1.125 1.125 0 0 0 0-2.25H14.25zm-3-2.25v2.25h1.5v-2.25z" clip-rule="evenodd"/><path fill="#000" d="M7.875 11.063a.937.937 0 1 0 0-1.875.937.937 0 0 0 0 1.874m9.188-.937a.937.937 0 1 1-1.875 0 .937.937 0 0 1 1.874 0"/><path fill="#000" fill-rule="evenodd" d="M12.75 1.5a.75.75 0 0 0-1.5 0v3h-6a3 3 0 0 0-3 3V18a3 3 0 0 0 3 3h13.5a3 3 0 0 0 3-3V7.5a3 3 0 0 0-3-3h-6zM5.25 6a1.5 1.5 0 0 0-1.5 1.5V18a1.5 1.5 0 0 0 1.5 1.5h13.5a1.5 1.5 0 0 0 1.5-1.5V7.5a1.5 1.5 0 0 0-1.5-1.5z" clip-rule="evenodd"/></svg>