<svg xmlns="http://www.w3.org/2000/svg" width="24" height="24" fill="none" viewBox="0 0 24 24"><path fill="#000" fill-rule="evenodd" d="M3.06 1.94A.75.75 0 1 0 2 3l1.56 1.56a11.24 11.24 0 0 0 .405 15.314.75.75 0 1 0 1.07-1.05 9.74 9.74 0 0 1-.411-13.2L6.22 7.22A7.494 7.494 0 0 0 6.41 17a.75.75 0 0 0 1.117-1 5.995 5.995 0 0 1-.24-7.714l1.609 1.61a3.75 3.75 0 0 0 5.208 5.208L21 22a.75.75 0 0 0 1.06-1.06zm9.95 12.07-3.02-3.02a2.25 2.25 0 0 0 3.022 3.022" clip-rule="evenodd"/><path fill="#000" d="M20.035 4.127a.75.75 0 0 0-1.07 1.05 9.74 9.74 0 0 1 1.726 11.249.75.75 0 1 0 1.336.681 11.24 11.24 0 0 0-1.992-12.98"/><path fill="#000" d="M17.59 7a.75.75 0 1 0-1.117 1 6 6 0 0 1 1.26 5.778.75.75 0 0 0 1.432.444A7.49 7.49 0 0 0 17.59 7m-4.636 1.372a.75.75 0 1 0-.38 1.451 2.26 2.26 0 0 1 1.626 1.702.75.75 0 1 0 1.467-.314 3.76 3.76 0 0 0-2.713-2.839"/></svg>