<svg xmlns="http://www.w3.org/2000/svg" width="24" height="24" fill="none" viewBox="0 0 24 24"><path fill="#000" d="M5.035 5.178a.75.75 0 0 0-1.07-1.051 11.24 11.24 0 0 0 0 15.747.75.75 0 1 0 1.07-1.05 9.74 9.74 0 0 1 0-13.646m13.94-1.061a.75.75 0 0 1 1.06.01 11.24 11.24 0 0 1 0 15.747.75.75 0 1 1-1.07-1.05 9.74 9.74 0 0 0 0-13.646.75.75 0 0 1 .01-1.06"/><path fill="#000" d="M7.527 8A.75.75 0 1 0 6.41 7a7.494 7.494 0 0 0 0 10 .75.75 0 1 0 1.117-1 5.994 5.994 0 0 1 0-8m9.004-1.059a.75.75 0 0 1 1.06.059 7.494 7.494 0 0 1 0 10 .75.75 0 1 1-1.118-1 5.995 5.995 0 0 0 0-8 .75.75 0 0 1 .058-1.059"/><path fill="#000" fill-rule="evenodd" d="M8.25 12a3.75 3.75 0 1 1 7.5 0 3.75 3.75 0 0 1-7.5 0M12 9.75a2.25 2.25 0 1 0 0 4.5 2.25 2.25 0 0 0 0-4.5" clip-rule="evenodd"/></svg>