<svg xmlns="http://www.w3.org/2000/svg" width="24" height="24" fill="none" viewBox="0 0 24 24"><path fill="#000" d="M10.144 10.612a.75.75 0 0 1 .356.638v6a.75.75 0 0 1-1.5 0v-4.786l-.415.207a.75.75 0 1 1-.67-1.342l1.5-.75a.75.75 0 0 1 .73.033m3.932 1.411a.75.75 0 0 1 .77 1.18L12.15 16.8a.75.75 0 0 0 .6 1.2h3a.75.75 0 0 0 0-1.5h-1.5l1.798-2.398a2.25 2.25 0 1 0-3.746-2.48.75.75 0 1 0 1.297.754.75.75 0 0 1 .478-.353"/><path fill="#000" fill-rule="evenodd" d="M17.25 2.25a.75.75 0 0 0-1.5 0V3h-7.5v-.75a.75.75 0 0 0-1.5 0V3H4.5A1.5 1.5 0 0 0 3 4.5v15A1.5 1.5 0 0 0 4.5 21h15a1.5 1.5 0 0 0 1.5-1.5v-15A1.5 1.5 0 0 0 19.5 3h-2.25zM19.5 4.5h-2.25v.75a.75.75 0 0 1-1.5 0V4.5h-7.5v.75a.75.75 0 0 1-1.5 0V4.5H4.5v3h15zM4.5 9h15v10.5h-15z" clip-rule="evenodd"/></svg>