<svg xmlns="http://www.w3.org/2000/svg" width="24" height="24" fill="none" viewBox="0 0 24 24"><path fill="#000" fill-rule="evenodd" d="M5.25 5.25H1.5A.75.75 0 0 0 .75 6v12c0 .414.336.75.75.75h21a.75.75 0 0 0 .75-.75V6a.75.75 0 0 0-.75-.75zm-3 5.095v3.31a5.33 5.33 0 0 1 3.594 3.595h12.312a5.33 5.33 0 0 1 3.594-3.594v-3.311a5.33 5.33 0 0 1-3.594-3.595H5.844a5.33 5.33 0 0 1-3.594 3.595M4.252 6.75H2.25v2.002A3.83 3.83 0 0 0 4.252 6.75m-.81 9.307c.345.345.62.75.81 1.193H2.25v-2.002c.443.191.848.465 1.193.81m18.308-.809v2.002h-2.002a3.83 3.83 0 0 1 2.002-2.002m0-8.498h-2.002a3.83 3.83 0 0 0 2.002 2.002zM9.75 12a2.25 2.25 0 1 1 4.5 0 2.25 2.25 0 0 1-4.5 0M12 8.25a3.75 3.75 0 1 0 0 7.5 3.75 3.75 0 0 0 0-7.5" clip-rule="evenodd"/></svg>