<svg xmlns="http://www.w3.org/2000/svg" width="24" height="24" fill="none" viewBox="0 0 24 24"><path fill="#000" d="M3.989 10.867c0 .305-.124.601-.344.802-.191.172-.449.248-.85.248h-.162v-2.1h.162c.401 0 .65.066.85.257.22.191.344.487.344.793m16.958-.62c0 .324-.21.496-.611.496h-.181v-.965h.19c.392 0 .602.163.602.468m-16.319.62c0-.936-.697-1.595-1.709-1.595h-.907v3.18h.907c.478 0 .831-.105 1.137-.363.362-.305.572-.754.572-1.222m.287 1.585h.62v-3.18h-.62zm3.055-.964c0-.506-.21-.736-.916-.993-.373-.134-.478-.23-.478-.401 0-.201.191-.354.459-.354.19 0 .343.077.506.258l.324-.42a1.38 1.38 0 0 0-.935-.353c-.564 0-.993.391-.993.907 0 .439.2.668.783.878.238.086.362.134.43.182a.36.36 0 0 1 .18.324c0 .258-.2.45-.477.45a.73.73 0 0 1-.678-.421l-.4.382c.286.42.63.611 1.097.611.65 0 1.098-.43 1.098-1.05m2.655.859v-.735c-.248.248-.468.353-.745.353-.63 0-1.07-.458-1.07-1.098 0-.611.46-1.098 1.042-1.098.296 0 .515.105.773.363v-.736a1.6 1.6 0 0 0-.764-.19c-.936 0-1.69.735-1.69 1.661 0 .936.735 1.661 1.68 1.661.268 0 .497-.047.774-.181m11.764 5.767v-5.032c-1.528.955-6.904 4.01-15.593 5.643h14.982a.615.615 0 0 0 .61-.61m-8.126-7.228a1.728 1.728 0 1 0-3.456 0 1.728 1.728 0 0 0 3.456 0m1.451 1.652 1.375-3.266h-.677l-.86 2.14-.85-2.14h-.678l1.356 3.266zm1.652-.086h1.757v-.535h-1.136v-.86h1.098v-.534h-1.098v-.706h1.136v-.545h-1.757zm3.734 0h.764l-1.003-1.337c.468-.095.726-.41.726-.897 0-.602-.41-.946-1.127-.946h-.926v3.18h.62v-1.27h.087zM23 5.949v12.108a1.27 1.27 0 0 1-1.26 1.28H2.26A1.27 1.27 0 0 1 1 18.057V5.95c0-.706.563-1.28 1.26-1.28h19.48c.697 0 1.26.574 1.26 1.28"/></svg>