<svg xmlns="http://www.w3.org/2000/svg" width="24" height="24" fill="none" viewBox="0 0 24 24"><path fill="#000" d="M11.685 6.704a4.87 4.87 0 0 0-2.683-.812 4.86 4.86 0 0 0-4.86 4.85 4.86 4.86 0 0 0 4.86 4.861c.955 0 1.89-.286 2.683-.812-2.56-2.081-2.54-6.006 0-8.087m.315.229c-2.464 1.938-2.473 5.7 0 7.63 2.473-1.93 2.464-5.692 0-7.63m.315-.23c2.53 2.082 2.569 6.016 0 8.088a4.9 4.9 0 0 0 2.683.812 4.86 4.86 0 0 0 4.86-4.86 4.86 4.86 0 0 0-4.86-4.85c-.955 0-1.89.286-2.683.81m7.076 6.895h.067v-.029h-.163v.029h.067v.162h.029zm.277.162h.038v-.19h-.048l-.057.123-.058-.124h-.047v.191h.028v-.143l.058.124h.038l.047-.124zm-.077 4.202v.019h-.048v-.029h.048zm0 .085h.029L19.582 18c.019 0 .019-.01.028-.01.01-.01.01-.019.01-.028s0-.02-.01-.03c-.01 0-.019-.009-.038-.009h-.057v.125h.028V18h.01zm-12.05-.649c0-.229.143-.41.391-.41.23 0 .382.181.382.41 0 .239-.153.41-.382.41-.248 0-.391-.18-.391-.41m4.516-.42c.182 0 .306.105.335.306h-.669c.029-.182.143-.306.334-.306m3.4.42c0-.229.143-.41.381-.41.24 0 .392.181.392.41 0 .239-.153.41-.392.41-.238 0-.381-.18-.381-.41m2.597 0c0-.229.153-.41.391-.41.23 0 .392.181.392.41 0 .239-.163.41-.392.41-.238 0-.391-.18-.391-.41m1.509.688c-.01 0-.02 0-.039-.01-.01 0-.019-.01-.028-.019-.01-.01-.02-.019-.02-.029s-.009-.028-.009-.038 0-.028.01-.038c0-.02.01-.029.019-.038.01-.01.019-.01.028-.02.01-.009.029-.009.038-.009.01 0 .03 0 .039.01s.028.01.038.019c.01.01.01.019.019.038 0 .01.01.02.01.038 0 .01-.01.02-.01.038-.01.01-.01.02-.02.03-.009.009-.018.018-.037.018-.01.01-.02.01-.038.01M6.72 18.048h.286v-.812c0-.306-.2-.506-.516-.516-.162 0-.334.048-.448.23a.47.47 0 0 0-.43-.23.44.44 0 0 0-.372.191v-.152h-.287v1.288h.287v-.716c0-.229.124-.343.315-.343.19 0 .286.124.286.343v.716h.277v-.716c0-.229.134-.343.315-.343.191 0 .287.124.287.343zm1.585 0h.277v-1.29h-.277v.153a.51.51 0 0 0-.41-.19c-.364 0-.64.286-.64.677s.276.678.64.678a.49.49 0 0 0 .41-.19zm1.7-.392c0-.23-.173-.344-.45-.382l-.133-.019c-.124-.02-.22-.048-.22-.134s.086-.143.239-.143c.172 0 .325.057.41.105l.115-.23a.97.97 0 0 0-.525-.133c-.325 0-.535.163-.535.42 0 .21.153.335.449.373l.124.019c.162.029.23.067.23.134 0 .105-.106.162-.297.162a.74.74 0 0 1-.43-.134l-.123.22a.97.97 0 0 0 .553.162c.373 0 .592-.172.592-.42m1.24.325-.076-.239a.5.5 0 0 1-.248.067c-.143 0-.181-.086-.181-.21v-.583h.458v-.257h-.458v-.392h-.287v.392h-.267v.257h.267v.583c0 .296.115.477.449.477a.7.7 0 0 0 .344-.095m.822-1.26c-.373 0-.64.276-.64.677 0 .41.277.678.659.678a.77.77 0 0 0 .525-.181l-.134-.21a.63.63 0 0 1-.372.143c-.181 0-.344-.086-.392-.315h.965v-.115c0-.4-.248-.678-.611-.678m1.518 0a.36.36 0 0 0-.334.19v-.152h-.287v1.288h.287v-.725c0-.21.086-.334.277-.334q.085-.002.172.038l.086-.267a.5.5 0 0 0-.2-.039m.286.677c0 .392.268.678.688.678.191 0 .325-.038.458-.153l-.133-.229a.5.5 0 0 1-.335.115c-.229 0-.391-.163-.391-.41 0-.249.162-.411.392-.411.124 0 .229.038.334.114l.133-.229a.68.68 0 0 0-.458-.153c-.42 0-.687.287-.687.678m2.34.65h.286v-1.29h-.286v.153a.48.48 0 0 0-.401-.19c-.363 0-.65.286-.65.677s.287.678.65.678c.181 0 .315-.067.4-.19zm1.27-1.328a.36.36 0 0 0-.334.191v-.152h-.277v1.288h.277v-.725c0-.21.095-.334.277-.334q.085-.002.172.038l.085-.267a.5.5 0 0 0-.2-.039m1.337 1.328h.277v-1.815h-.277v.678a.49.49 0 0 0-.41-.19c-.354 0-.64.286-.64.677s.286.678.64.678c.19 0 .324-.067.41-.19zm.744-.191c-.009 0-.028.01-.047.01a.1.1 0 0 0-.038.028c-.02.01-.03.028-.03.038-.009.019-.009.038-.009.057a.1.1 0 0 0 .01.048c0 .01.01.029.029.038.01.01.019.02.038.029s.038.01.047.01c.02 0 .039 0 .058-.01.01-.01.028-.02.038-.029s.02-.029.029-.038c.01-.02.01-.038.01-.048 0-.019 0-.038-.01-.057-.01-.01-.02-.029-.029-.038-.01-.01-.029-.02-.038-.029-.02 0-.038-.01-.058-.01M23 5.892v12.222a1.23 1.23 0 0 1-1.222 1.223H2.222A1.23 1.23 0 0 1 1 18.114V5.892A1.23 1.23 0 0 1 2.222 4.67h19.556A1.23 1.23 0 0 1 23 5.892"/></svg>