<svg xmlns="http://www.w3.org/2000/svg" width="24" height="24" fill="none" viewBox="0 0 24 24"><path fill="#000" d="M19.859 12.9H18.54s.133-.353.63-1.708c-.01.01.134-.354.21-.583l.115.525c.296 1.461.363 1.767.363 1.767M6.07 12.28l-.554-2.817c-.076-.391-.372-.515-.716-.515H2.241l-.019.124c1.757.449 3.199 1.404 3.848 3.208m1.71-3.332L6.233 13.13l-.163-.85c-.334-.888-1.146-1.709-2.062-2.081l1.289 4.87h1.67L9.46 8.947zm1.327 6.13h1.585l.993-6.13H10.1zM16.44 9.1a3.9 3.9 0 0 0-1.423-.257c-1.566 0-2.664.83-2.673 2.024-.01.878.783 1.365 1.384 1.661.621.296.822.497.822.764 0 .41-.497.592-.946.592-.64 0-.983-.076-1.49-.315l-.21-.105-.22 1.375c.373.172 1.051.325 1.767.325 1.662.01 2.74-.821 2.76-2.091 0-.697-.43-1.223-1.337-1.662-.554-.277-.888-.477-.888-.764 0-.258.287-.525.907-.525.516-.01.898.096 1.184.23l.143.076zm4.058-.152h-1.222c-.382 0-.668.114-.83.515l-2.35 5.615h1.662c.267-.754.334-.917.334-.917h2.024s.048.21.191.917h1.47zM23 5.892v12.222a1.23 1.23 0 0 1-1.222 1.223H2.222A1.23 1.23 0 0 1 1 18.114V5.892A1.23 1.23 0 0 1 2.222 4.67h19.556A1.23 1.23 0 0 1 23 5.892"/></svg>