<svg xmlns="http://www.w3.org/2000/svg" width="24" height="24" fill="none" viewBox="0 0 24 24"><path fill="#000" d="M14.5 1.75a.75.75 0 0 0-1.5 0v1.5h-1.5a.75.75 0 0 0 0 1.5H13v1.5a.75.75 0 0 0 1.5 0v-1.5H16a.75.75 0 0 0 0-1.5h-1.5z"/><path fill="#000" fill-rule="evenodd" d="M6.33 3.21a1.173 1.173 0 0 1 1.77.555l.002.005 1.167 3.212 3.216 1.17a1.173 1.173 0 0 1 0 2.199l-.005.002-3.214 1.169-1.168 3.213a1.173 1.173 0 0 1-2.2 0l-.002-.005-1.165-3.212-3.216-1.17a1.174 1.174 0 0 1 0-2.199l.005-.002 3.21-1.165L5.9 3.765a1.2 1.2 0 0 1 .43-.555M7 5.13l.912 2.508v.002a1.17 1.17 0 0 0 .698.698h.002l2.509.913-2.505.91-.002.002a1.17 1.17 0 0 0-.701.69l-.915 2.516-.91-2.507v-.002a1.17 1.17 0 0 0-.698-.698l-2.51-.913 2.507-.91h.003a1.17 1.17 0 0 0 .698-.699v-.002z" clip-rule="evenodd"/><path fill="#000" d="M15.91 7.512a.75.75 0 1 0-.082 1.498 6 6 0 0 1 4.941 8.863.75.75 0 0 0-.062.565l.707 2.476-2.477-.707a.75.75 0 0 0-.564.063 6.004 6.004 0 0 1-8.535-3.28.75.75 0 0 0-1.415.5 7.505 7.505 0 0 0 10.389 4.241l2.513.718a1.314 1.314 0 0 0 1.624-1.623l-.718-2.514a7.5 7.5 0 0 0-6.32-10.8"/></svg>