<svg xmlns="http://www.w3.org/2000/svg" width="24" height="24" fill="none" viewBox="0 0 24 24"><path fill="#000" d="M15.53 8.47a.75.75 0 0 1 0 1.06L13.06 12l2.47 2.47a.75.75 0 1 1-1.06 1.06L12 13.06l-2.47 2.47a.75.75 0 0 1-1.06-1.06L10.94 12 8.47 9.53a.75.75 0 0 1 1.06-1.06L12 10.94l2.47-2.47a.75.75 0 0 1 1.06 0"/><path fill="#000" fill-rule="evenodd" d="M12 2.25c-5.385 0-9.75 4.365-9.75 9.75s4.365 9.75 9.75 9.75 9.75-4.365 9.75-9.75S17.385 2.25 12 2.25M3.75 12a8.25 8.25 0 1 1 16.5 0 8.25 8.25 0 0 1-16.5 0" clip-rule="evenodd"/></svg>