<svg xmlns="http://www.w3.org/2000/svg" width="24" height="24" fill="none" viewBox="0 0 24 24"><path fill="#000" d="M9 10.5A.75.75 0 0 0 9 12h6a.75.75 0 0 0 0-1.5zm0 3A.75.75 0 0 0 9 15h6a.75.75 0 0 0 0-1.5z"/><path fill="#000" fill-rule="evenodd" d="M8.646 3A4.5 4.5 0 0 1 12 1.5 4.5 4.5 0 0 1 15.354 3h3.396a1.5 1.5 0 0 1 1.5 1.5v15.75a1.5 1.5 0 0 1-1.5 1.5H5.25a1.5 1.5 0 0 1-1.5-1.5V4.5A1.5 1.5 0 0 1 5.25 3zm1.233.879A3 3 0 0 1 15 6H9a3 3 0 0 1 .879-2.121M7.757 4.5H5.25v15.75h13.5V4.5h-2.507c.168.477.257.984.257 1.5v.75a.75.75 0 0 1-.75.75h-7.5a.75.75 0 0 1-.75-.75V6c0-.516.089-1.023.257-1.5" clip-rule="evenodd"/></svg>