<svg xmlns="http://www.w3.org/2000/svg" width="24" height="24" fill="none" viewBox="0 0 24 24"><path fill="#000" fill-rule="evenodd" d="M9 8.25q.253 0 .495-.04l.64 1.44A3 3 0 0 0 9 12c0 .493.119.959.33 1.37l-2.407 2.14a3 3 0 1 0 .997 1.121l2.407-2.14A3 3 0 0 0 12 15c.69 0 1.326-.233 1.833-.625l2.163 1.683a3 3 0 1 0 .921-1.184l-2.163-1.682a3 3 0 0 0 .239-1.4l1.238-.412a3 3 0 1 0-.474-1.423l-1.238.412a3 3 0 0 0-3.014-1.328l-.64-1.441A3 3 0 1 0 9 8.25m0-4.5a1.5 1.5 0 1 0 0 3 1.5 1.5 0 0 0 0-3m8.25 13.5a1.5 1.5 0 0 1 .332-.941 1.5 1.5 0 1 1-.332.941m.083-7.006-.006-.02-.007-.02a1.5 1.5 0 0 1 1.43-1.954 1.5 1.5 0 1 1-1.417 1.994m-5.958.392a1.5 1.5 0 0 0-.508 2.347l.012.013.012.014A1.497 1.497 0 0 0 13.5 12q-.002-.246-.075-.466l-.003-.009-.003-.008a1.5 1.5 0 0 0-2.014-.895l-.016.007zM3.75 18a1.5 1.5 0 1 1 3 0 1.5 1.5 0 0 1-3 0" clip-rule="evenodd"/></svg>