<svg xmlns="http://www.w3.org/2000/svg" width="24" height="24" fill="none" viewBox="0 0 24 24"><path fill="#000" fill-rule="evenodd" d="M15.705 4.007a.75.75 0 1 0-1.41-.513l-6 16.5a.75.75 0 1 0 1.41.512zM6.576 7.77a.75.75 0 0 1-.096 1.056L2.672 12l3.808 3.174a.75.75 0 1 1-.96 1.152l-4.5-3.75a.75.75 0 0 1 0-1.152l4.5-3.75a.75.75 0 0 1 1.056.096m10.848 0a.75.75 0 0 1 1.056-.096l4.5 3.75a.75.75 0 0 1 0 1.152l-4.5 3.75a.75.75 0 1 1-.96-1.152L21.328 12 17.52 8.826a.75.75 0 0 1-.096-1.056" clip-rule="evenodd"/></svg>