<svg xmlns="http://www.w3.org/2000/svg" width="24" height="24" fill="none" viewBox="0 0 24 24"><path fill="#000" fill-rule="evenodd" d="M12 7.5a4.5 4.5 0 1 0 0 9 4.5 4.5 0 0 0 0-9M9 12a3 3 0 1 1 6 0 3 3 0 0 1-6 0" clip-rule="evenodd"/><path fill="#000" fill-rule="evenodd" d="M10.05 2.355a.75.75 0 0 0-.66-.14c-.86.227-1.687.568-2.458 1.012a.75.75 0 0 0-.37.566l-.25 2.225a8 8 0 0 0-.287.287l-2.226.25a.75.75 0 0 0-.565.369c-.447.772-.79 1.6-1.018 2.461a.75.75 0 0 0 .139.66l1.397 1.75q-.005.204 0 .406l-1.398 1.75a.75.75 0 0 0-.139.661c.23.862.573 1.69 1.02 2.46a.75.75 0 0 0 .562.37l2.228.26q.141.148.288.288l.25 2.226a.75.75 0 0 0 .371.566c.772.445 1.6.786 2.462 1.013a.75.75 0 0 0 .659-.14l1.75-1.396q.202.005.405 0l1.75 1.398a.75.75 0 0 0 .66.139c.863-.23 1.69-.573 2.462-1.02a.75.75 0 0 0 .369-.566l.25-2.224q.146-.14.286-.287l2.226-.25a.75.75 0 0 0 .566-.37c.445-.773.785-1.6 1.013-2.462a.75.75 0 0 0-.14-.66l-1.397-1.75q.006-.202 0-.405l1.398-1.75a.75.75 0 0 0 .14-.66c-.23-.862-.573-1.69-1.021-2.461a.75.75 0 0 0-.565-.369l-2.225-.25a8 8 0 0 0-.286-.287l-.25-2.225a.75.75 0 0 0-.37-.566 10 10 0 0 0-2.461-1.018.75.75 0 0 0-.66.14l-1.75 1.397a8 8 0 0 0-.406 0zM7.77 6.464l.239-2.117q.676-.352 1.407-.579L11.082 5.1a.75.75 0 0 0 .512.163 7 7 0 0 1 .815 0 .75.75 0 0 0 .513-.162l1.665-1.33q.732.229 1.412.583l.237 2.118a.75.75 0 0 0 .248.478q.305.27.575.575a.75.75 0 0 0 .477.247l2.118.238q.356.68.585 1.41l-1.33 1.666a.75.75 0 0 0-.163.513q.024.407 0 .815a.75.75 0 0 0 .162.512l1.33 1.666a8.6 8.6 0 0 1-.58 1.411l-2.117.238a.75.75 0 0 0-.477.247q-.27.305-.575.576a.75.75 0 0 0-.248.477l-.238 2.118a8.5 8.5 0 0 1-1.41.584l-1.665-1.33a.75.75 0 0 0-.513-.163 7 7 0 0 1-.815 0 .75.75 0 0 0-.512.163l-1.667 1.33a8.6 8.6 0 0 1-1.41-.58l-.238-2.117a.75.75 0 0 0-.248-.478 7 7 0 0 1-.575-.575.75.75 0 0 0-.474-.247l-2.122-.249a8.6 8.6 0 0 1-.586-1.412L5.1 12.919a.75.75 0 0 0 .163-.513 7 7 0 0 1 0-.815.75.75 0 0 0-.163-.512L3.77 9.413q.229-.732.584-1.411l2.118-.238a.75.75 0 0 0 .477-.248q.27-.305.575-.575a.75.75 0 0 0 .248-.477" clip-rule="evenodd"/></svg>