<svg xmlns="http://www.w3.org/2000/svg" width="24" height="24" fill="none" viewBox="0 0 24 24"><path fill="#000" fill-rule="evenodd" d="M6.526 4.976C5.134 5.736 4.5 6.66 4.5 7.5s.634 1.765 2.026 2.524c1.362.743 3.297 1.226 5.474 1.226s4.111-.483 5.474-1.226C18.867 9.264 19.5 8.34 19.5 7.5s-.634-1.765-2.026-2.524C16.112 4.233 14.177 3.75 12 3.75s-4.112.483-5.474 1.226M5.807 3.66C4.213 4.53 3 5.854 3 7.5v9c0 1.646 1.213 2.97 2.807 3.84 1.623.886 3.814 1.41 6.193 1.41s4.57-.524 6.193-1.41C19.787 19.47 21 18.146 21 16.5v-9c0-1.646-1.213-2.97-2.807-3.84C16.57 2.774 14.379 2.25 12 2.25s-4.57.524-6.193 1.41M19.5 14.94v1.56c0 .84-.634 1.765-2.026 2.524-1.363.743-3.297 1.226-5.474 1.226s-4.111-.483-5.474-1.226C5.134 18.264 4.5 17.34 4.5 16.5v-1.56c.387.339.83.64 1.307.9 1.623.886 3.814 1.41 6.193 1.41s4.57-.524 6.193-1.41a7.3 7.3 0 0 0 1.307-.9M4.5 12c0 .84.634 1.765 2.026 2.524 1.363.743 3.297 1.226 5.474 1.226s4.111-.483 5.474-1.226C18.867 13.764 19.5 12.84 19.5 12v-1.56a7.3 7.3 0 0 1-1.307.9c-1.623.886-3.814 1.41-6.193 1.41s-4.57-.524-6.193-1.41a7.3 7.3 0 0 1-1.307-.9z" clip-rule="evenodd"/></svg>