<svg xmlns="http://www.w3.org/2000/svg" width="24" height="24" fill="none" viewBox="0 0 24 24"><path fill="#000" d="M18 9.75a.75.75 0 0 0 0 1.5h1.5a.75.75 0 0 0 0-1.5z"/><path fill="#000" fill-rule="evenodd" d="M3.75 17.25h10.5V18a2.25 2.25 0 0 0 2.25 2.25H21A2.25 2.25 0 0 0 23.25 18V9A2.25 2.25 0 0 0 21 6.75h-1.5V6a2.25 2.25 0 0 0-2.25-2.25H3.75A2.25 2.25 0 0 0 1.5 6v9a2.25 2.25 0 0 0 2.25 2.25m0-12A.75.75 0 0 0 3 6v9a.75.75 0 0 0 .75.75h10.5V9a2.25 2.25 0 0 1 2.25-2.25H18V6a.75.75 0 0 0-.75-.75zm17.25 3h-4.5a.75.75 0 0 0-.75.75v9c0 .414.336.75.75.75H21a.75.75 0 0 0 .75-.75V9a.75.75 0 0 0-.75-.75" clip-rule="evenodd"/><path fill="#000" d="M8.25 18.75a.75.75 0 0 0 0 1.5H12a.75.75 0 0 0 0-1.5z"/></svg>