<svg xmlns="http://www.w3.org/2000/svg" width="24" height="24" fill="none" viewBox="0 0 24 24"><path fill="#000" fill-rule="evenodd" d="M17.47 2.47a.75.75 0 0 1 1.06 0l3 3a.75.75 0 0 1 0 1.06l-9 9a.75.75 0 0 1-.53.22H9a.75.75 0 0 1-.75-.75v-3a.75.75 0 0 1 .22-.53zM19.94 6l-1.19 1.19-1.94-1.94L18 4.06zM9.75 12.31l6-6 1.94 1.94-6 6H9.75z" clip-rule="evenodd"/><path fill="#000" d="M4.5 3A1.5 1.5 0 0 0 3 4.5v15A1.5 1.5 0 0 0 4.5 21h15a1.5 1.5 0 0 0 1.5-1.5v-8.25a.75.75 0 0 0-1.5 0v8.25h-15v-15h8.25a.75.75 0 0 0 0-1.5z"/></svg>