<svg xmlns="http://www.w3.org/2000/svg" width="24" height="24" fill="none" viewBox="0 0 24 24"><path fill="#000" d="M12 3a.75.75 0 0 1 .75.75V7.5h1.5a.75.75 0 0 1 0 1.5h-4.5a.75.75 0 0 1 0-1.5h1.5V3.75A.75.75 0 0 1 12 3m0 7.5a.75.75 0 0 1 .75.75v9a.75.75 0 0 1-1.5 0v-9a.75.75 0 0 1 .75-.75m7.5 8.25a.75.75 0 0 0-1.5 0v1.5a.75.75 0 0 0 1.5 0zM18.75 3a.75.75 0 0 1 .75.75V15H21a.75.75 0 0 1 0 1.5h-4.5a.75.75 0 0 1 0-1.5H18V3.75a.75.75 0 0 1 .75-.75M5.25 15a.75.75 0 0 1 .75.75v4.5a.75.75 0 0 1-1.5 0v-4.5a.75.75 0 0 1 .75-.75M6 3.75a.75.75 0 0 0-1.5 0V12H3a.75.75 0 0 0 0 1.5h4.5a.75.75 0 0 0 0-1.5H6z"/></svg>