<svg xmlns="http://www.w3.org/2000/svg" width="24" height="24" fill="none" viewBox="0 0 24 24"><path fill="#000" fill-rule="evenodd" d="M10.126 7.097A5.25 5.25 0 0 1 15.912 8.5a.75.75 0 0 1-1.118 1 3.75 3.75 0 0 0-5.86.342c-.5.938-.553 1.754-.624 2.85q-.021.323-.048.682c-.117 1.472-.404 3.206-1.806 5.548a.75.75 0 1 1-1.287-.77c1.254-2.096 1.494-3.591 1.598-4.896q.021-.296.04-.598c.069-1.121.141-2.301.827-3.567l.042-.068a5.25 5.25 0 0 1 2.45-1.926" clip-rule="evenodd"/><path fill="#000" d="M9.25 4.22a.75.75 0 1 1-.5-1.415 9.757 9.757 0 0 1 13 9.195 28 28 0 0 1-.688 6.166.75.75 0 1 1-1.463-.332c.434-1.914.652-3.87.65-5.833a8.32 8.32 0 0 0-3.488-6.735A8.32 8.32 0 0 0 9.25 4.219m-3.793.554a.75.75 0 0 1 1.06-.026.76.76 0 0 1 .023 1.064c-.293.31-.571.635-.84.966-.473.582-.976 1.278-1.237 1.853-.647 1.423-.366 3.058-.735 4.55-.211.852-.576 2.002-.744 2.524l-.092.282a.75.75 0 1 1-1.424-.472q.156-.474.305-.953c.17-.55.37-1.22.499-1.741.168-.678.197-1.248.228-1.867l.02-.379c.046-.77.138-1.598.577-2.564.345-.76.952-1.58 1.438-2.178a21 21 0 0 1 .922-1.059"/><path fill="#000" fill-rule="evenodd" d="M16.499 11.25a.75.75 0 0 1 .75.75 23.2 23.2 0 0 1-1.736 8.835.75.75 0 1 1-1.388-.57 21.7 21.7 0 0 0 1.625-8.264.75.75 0 0 1 .749-.75m-5.824 7.566a.75.75 0 0 1 .374.992q-.294.651-.643 1.276a.75.75 0 0 1-1.31-.732q.318-.57.587-1.162a.75.75 0 0 1 .992-.374m1.324-7.567a.75.75 0 0 1 .75.749 18.8 18.8 0 0 1-.585 4.687.75.75 0 1 1-1.453-.372c.36-1.409.541-2.858.539-4.313a.75.75 0 0 1 .749-.75" clip-rule="evenodd"/></svg>