<svg xmlns="http://www.w3.org/2000/svg" width="24" height="24" fill="none" viewBox="0 0 24 24"><path d="M18.97 3.97a.75.75 0 0 1 1.06 0l2.992 2.991a.75.75 0 0 1 .008 1.07l-3 3a.75.75 0 1 1-1.06-1.061l1.764-1.765-.306-.01c-.696-.021-1.38-.03-2.041.015-1.327.09-2.488.389-3.408 1.153-.794.661-1.104 1.558-1.437 2.695l-.056.193c-.303 1.044-.666 2.295-1.647 3.278-.922.925-2.018 1.35-2.858 1.547-.3.07-.572.112-.799.138a3.751 3.751 0 1 1-.017-1.51q.215-.029.474-.088c.667-.157 1.475-.481 2.138-1.146.702-.705.968-1.612 1.3-2.743l.026-.09c.327-1.116.732-2.441 1.918-3.427 1.266-1.053 2.793-1.397 4.265-1.497a23 23 0 0 1 2.354-.012l-1.67-1.67a.75.75 0 0 1 0-1.061M6.75 16.5a2.25 2.25 0 1 0-4.5 0 2.25 2.25 0 0 0 4.5 0"/></svg>