<svg xmlns="http://www.w3.org/2000/svg" width="24" height="24" fill="none" viewBox="0 0 24 24"><path fill="#000" d="M9 13.5a.75.75 0 0 1 .75-.75h1.5v-1.5a.75.75 0 0 1 1.5 0v1.5h1.5a.75.75 0 0 1 0 1.5h-1.5v1.5a.75.75 0 0 1-1.5 0v-1.5h-1.5A.75.75 0 0 1 9 13.5"/><path fill="#000" fill-rule="evenodd" d="M2.69 4.94a1.5 1.5 0 0 1 1.06-.44h5c.324 0 .64.105.9.3l2.6 1.95h8a1.5 1.5 0 0 1 1.5 1.5v10.583a1.417 1.417 0 0 1-1.417 1.417H3.75a1.5 1.5 0 0 1-1.5-1.5V6c0-.398.158-.78.44-1.06M8.75 6h-5v12.75h16.5V8.25h-8a1.5 1.5 0 0 1-.9-.3z" clip-rule="evenodd"/></svg>