<svg xmlns="http://www.w3.org/2000/svg" width="24" height="24" fill="none" viewBox="0 0 24 24"><path fill="#000" d="M3.75 4.5A1.5 1.5 0 0 0 2.25 6v12.75a1.5 1.5 0 0 0 1.5 1.5h7.5a.75.75 0 0 0 0-1.5h-7.5V6h5l2.6 1.95c.26.195.576.3.9.3h8v3a.75.75 0 0 0 1.5 0v-3a1.5 1.5 0 0 0-1.5-1.5h-8L9.65 4.8a1.5 1.5 0 0 0-.9-.3z"/><path fill="#000" fill-rule="evenodd" d="M15 16.5a3 3 0 1 1 5.122 2.121 3.76 3.76 0 0 1 1.603 2.186.75.75 0 1 1-1.45.386C20.02 20.233 19.11 19.5 18 19.5s-2.02.733-2.275 1.693a.75.75 0 1 1-1.45-.386 3.76 3.76 0 0 1 1.604-2.186A3 3 0 0 1 15 16.5m3-1.5a1.5 1.5 0 1 0 0 3 1.5 1.5 0 0 0 0-3" clip-rule="evenodd"/></svg>