<svg xmlns="http://www.w3.org/2000/svg" width="24" height="24" fill="none" viewBox="0 0 24 24"><path fill="#000" fill-rule="evenodd" d="M7.125 2.25a5.63 5.63 0 0 1 4.501 2.25h2.248a5.62 5.62 0 0 1 4.501-2.25.75.75 0 0 1 .65.374 5.62 5.62 0 0 1 .503 4.473 5.37 5.37 0 0 1 .722 2.647v.756a5.25 5.25 0 0 1-4.537 5.201A3.75 3.75 0 0 1 16.5 18v3.75a.75.75 0 0 1-1.5 0V18a2.25 2.25 0 0 0-4.5 0v3.75a.75.75 0 0 1-1.5 0v-1.5H6.75A3.75 3.75 0 0 1 3 16.5a2.25 2.25 0 0 0-2.25-2.25.75.75 0 0 1 0-1.5A3.75 3.75 0 0 1 4.5 16.5a2.25 2.25 0 0 0 2.25 2.25H9V18c0-.837.28-1.645.787-2.299A5.25 5.25 0 0 1 5.25 10.5v-.756a5.37 5.37 0 0 1 .722-2.647 5.62 5.62 0 0 1 .504-4.473.75.75 0 0 1 .649-.374m7.875 12h-4.5a3.75 3.75 0 0 1-3.75-3.75v-.747a3.87 3.87 0 0 1 .668-2.141.75.75 0 0 0 .08-.692 4.12 4.12 0 0 1 .074-3.146 4.13 4.13 0 0 1 3.03 1.88.75.75 0 0 0 .632.346h3.032a.75.75 0 0 0 .632-.346 4.13 4.13 0 0 1 3.03-1.88 4.12 4.12 0 0 1 .075 3.146.75.75 0 0 0 .079.692 3.87 3.87 0 0 1 .668 2.141v.747A3.75 3.75 0 0 1 15 14.25" clip-rule="evenodd"/></svg>