<svg xmlns="http://www.w3.org/2000/svg" width="24" height="24" fill="none" viewBox="0 0 24 24"><path fill="#000" fill-rule="evenodd" d="M17.238 3.884a.75.75 0 1 0-1.476-.268l-.843 4.634h-4.475l.794-4.366a.75.75 0 1 0-1.476-.268L8.919 8.25H4.5a.75.75 0 0 0 0 1.5h4.147l-.818 4.5H3a.75.75 0 0 0 0 1.5h4.556l-.794 4.366a.75.75 0 0 0 1.476.268l.842-4.634h4.476l-.794 4.366a.75.75 0 1 0 1.476.268l.842-4.634h4.42a.75.75 0 0 0 0-1.5h-4.147l.818-4.5H21a.75.75 0 0 0 0-1.5h-4.556zm-3.41 10.366.819-4.5H10.17l-.818 4.5z" clip-rule="evenodd"/></svg>