<svg xmlns="http://www.w3.org/2000/svg" width="24" height="24" fill="none" viewBox="0 0 24 24"><path fill="#000" fill-rule="evenodd" d="M12 2.25A9.75 9.75 0 0 0 2.25 12v5.25A2.25 2.25 0 0 0 4.5 19.5H6a2.25 2.25 0 0 0 2.25-2.25V13.5A2.25 2.25 0 0 0 6 11.25H3.784a8.25 8.25 0 0 1 16.432 0H18a2.25 2.25 0 0 0-2.25 2.25v3.75A2.25 2.25 0 0 0 18 19.5h2.25A2.25 2.25 0 0 1 18 21.75h-5.25a.75.75 0 0 0 0 1.5H18a3.75 3.75 0 0 0 3.75-3.75V12A9.75 9.75 0 0 0 12 2.25m-8.25 15v-4.5H6a.75.75 0 0 1 .75.75v3.75A.75.75 0 0 1 6 18H4.5a.75.75 0 0 1-.75-.75M18 12.75h2.25V18H18a.75.75 0 0 1-.75-.75V13.5a.75.75 0 0 1 .75-.75" clip-rule="evenodd"/></svg>