<svg xmlns="http://www.w3.org/2000/svg" width="24" height="24" fill="none" viewBox="0 0 24 24"><path fill="#000" fill-rule="evenodd" d="M23.749.251a.857.857 0 0 1 0 1.212l-3.04 3.04.576.576a3.43 3.43 0 0 1 0 4.849l-2.501 2.5.68.68a.857.857 0 0 1-1.213 1.212l-1.27-1.27-.016-.015-.014-.015-5.97-5.97-.03-.03L9.68 5.749a.857.857 0 0 1 1.212-1.212l.68.68 2.501-2.502a3.43 3.43 0 0 1 4.845 0l.578.577 3.04-3.04a.857.857 0 0 1 1.213 0m-4.913 4.806-1.13-1.129a1.715 1.715 0 0 0-2.421 0l-2.501 2.5 4.788 4.789 2.5-2.501a1.715 1.715 0 0 0 0-2.424l-1.128-1.128a1 1 0 0 1-.108-.107M4.537 9.68a.857.857 0 0 1 1.212 0l1.965 1.965L9.68 9.68a.857.857 0 1 1 1.212 1.212l-1.965 1.965 2.216 2.217 1.965-1.966a.857.857 0 0 1 1.212 1.212l-1.965 1.966 1.965 1.965a.857.857 0 1 1-1.212 1.212l-.68-.68-2.5 2.502a3.43 3.43 0 0 1-4.85 0l-.575-.576-3.04 3.04a.857.857 0 1 1-1.212-1.212l3.041-3.041-.577-.578a3.43 3.43 0 0 1 0-4.845l2.501-2.501-.68-.68a.857.857 0 0 1 0-1.212m6.68 7.892-2.502 2.5a1.714 1.714 0 0 1-2.424 0l-1.124-1.124a1 1 0 0 0-.114-.114l-1.125-1.128a1.714 1.714 0 0 1 0-2.422l2.5-2.5z" clip-rule="evenodd"/></svg>