<svg xmlns="http://www.w3.org/2000/svg" width="24" height="24" fill="none" viewBox="0 0 24 24"><path fill="#000" d="M6.75 9.75A.75.75 0 0 1 7.5 9h9a.75.75 0 0 1 0 1.5h-9a.75.75 0 0 1-.75-.75m0 3A.75.75 0 0 1 7.5 12h9a.75.75 0 0 1 0 1.5h-9a.75.75 0 0 1-.75-.75"/><path fill="#000" fill-rule="evenodd" d="M3.75 3.75a1.5 1.5 0 0 0-1.5 1.5V19.5a.75.75 0 0 0 1.085.67L6 18.839l2.665 1.333a.75.75 0 0 0 .67 0L12 18.839l2.665 1.332a.75.75 0 0 0 .67 0L18 18.839l2.665 1.332a.75.75 0 0 0 1.085-.671V5.25a1.5 1.5 0 0 0-1.5-1.5zm0 1.5h16.5v13.037l-1.915-.958a.75.75 0 0 0-.67 0L15 18.661l-2.665-1.332a.75.75 0 0 0-.67 0L9 18.661 6.335 17.33a.75.75 0 0 0-.67 0l-1.915.957z" clip-rule="evenodd"/></svg>