<svg xmlns="http://www.w3.org/2000/svg" width="24" height="24" fill="none" viewBox="0 0 24 24"><path fill="#000" d="M17.813 7.125a.937.937 0 1 1-1.875 0 .937.937 0 0 1 1.874 0"/><path fill="#000" fill-rule="evenodd" d="M15.755 1.54a7.5 7.5 0 0 0-7.888 9.782L2.47 16.72a.75.75 0 0 0-.22.53V21c0 .414.336.75.75.75h3.75A.75.75 0 0 0 7.5 21v-1.5H9a.75.75 0 0 0 .75-.75v-1.5h1.5a.75.75 0 0 0 .53-.22l.898-.897a7.5 7.5 0 1 0 3.077-14.594m-4.062 2.454a6 6 0 1 1 1.071 10.575.75.75 0 0 0-.81.166L10.94 15.75H9a.75.75 0 0 0-.75.75V18h-1.5a.75.75 0 0 0-.75.75v1.5H3.75v-2.69l5.515-5.514a.75.75 0 0 0 .166-.81 6 6 0 0 1 2.262-7.242" clip-rule="evenodd"/></svg>