<svg xmlns="http://www.w3.org/2000/svg" width="24" height="24" fill="none" viewBox="0 0 24 24"><path fill="#000" d="M5.25 11.25a.75.75 0 0 0 0 1.5h13.5a.75.75 0 0 0 0-1.5zM4.5 9a.75.75 0 0 1 .75-.75h13.5a.75.75 0 0 1 0 1.5H5.25A.75.75 0 0 1 4.5 9m.75 5.25a.75.75 0 0 0 0 1.5H6a.75.75 0 0 0 0-1.5zm3 .75a.75.75 0 0 1 .75-.75h6a.75.75 0 0 1 0 1.5H9a.75.75 0 0 1-.75-.75m9.75-.75a.75.75 0 0 0 0 1.5h.75a.75.75 0 0 0 0-1.5z"/><path fill="#000" fill-rule="evenodd" d="M3.046 4.5c-.854 0-1.546.692-1.546 1.546v11.908c0 .854.692 1.546 1.546 1.546h17.908c.854 0 1.546-.692 1.546-1.546V6.046c0-.854-.692-1.546-1.546-1.546zM3 6.046C3 6.02 3.02 6 3.046 6h17.908c.025 0 .046.02.046.046v11.908c0 .025-.02.046-.046.046H3.046A.046.046 0 0 1 3 17.954z" clip-rule="evenodd"/></svg>