<svg xmlns="http://www.w3.org/2000/svg" width="24" height="24" fill="none" viewBox="0 0 24 24"><path fill="#000" fill-rule="evenodd" d="M12.003 6.75a3.78 3.78 0 0 0-3.568 2.596 3.78 3.78 0 0 0 .916 3.804l-1.02 2.559a1.13 1.13 0 0 0 1.043 1.54h5.252a1.13 1.13 0 0 0 1.043-1.54l-1.015-2.558a3.78 3.78 0 0 0 .917-3.805 3.78 3.78 0 0 0-3.568-2.596M9.862 9.808a2.28 2.28 0 0 1 2.14-1.558c.962 0 1.846.643 2.141 1.558a2.28 2.28 0 0 1-.823 2.516.75.75 0 0 0-.258.885l1.01 2.54H9.929l1.013-2.54a.75.75 0 0 0-.257-.885 2.28 2.28 0 0 1-.823-2.516" clip-rule="evenodd"/><path fill="#000" fill-rule="evenodd" d="M12 2.25c-5.385 0-9.75 4.365-9.75 9.75s4.365 9.75 9.75 9.75 9.75-4.365 9.75-9.75S17.385 2.25 12 2.25M3.75 12a8.25 8.25 0 1 1 16.5 0 8.25 8.25 0 0 1-16.5 0" clip-rule="evenodd"/></svg>