<svg xmlns="http://www.w3.org/2000/svg" width="24" height="24" fill="none" viewBox="0 0 24 24"><path fill="#000" d="M16.5 6a1.5 1.5 0 1 0 0 3 1.5 1.5 0 0 0 0-3"/><path fill="#000" fill-rule="evenodd" d="M9.5 4v1.25h3.102a4.5 4.5 0 1 1 0 4.5H3.5A1.5 1.5 0 0 1 2 8.25v-1.5a1.5 1.5 0 0 1 1.5-1.5H5V4a1.5 1.5 0 0 1 1.5-1.5H8A1.5 1.5 0 0 1 9.5 4m4.4 4.999-.433-.749H3.5v-1.5h3V4H8v2.75h5.467l.433-.749A3 3 0 1 1 13.9 9" clip-rule="evenodd"/><path fill="#000" d="M8 16.5a1.5 1.5 0 1 1-3 0 1.5 1.5 0 0 1 3 0"/><path fill="#000" fill-rule="evenodd" d="M13.5 20v-1.25h-3.102a4.5 4.5 0 1 1 0-4.5H19.5a1.5 1.5 0 0 1 1.5 1.5v1.5a1.5 1.5 0 0 1-1.5 1.5H18V20a1.5 1.5 0 0 1-1.5 1.5H15a1.5 1.5 0 0 1-1.5-1.5m-4.4-4.999.433.749H19.5v1.5h-3V20H15v-2.75H9.533l-.433.749A3 3 0 1 1 9.1 15" clip-rule="evenodd"/></svg>