<svg xmlns="http://www.w3.org/2000/svg" width="24" height="24" fill="none" viewBox="0 0 24 24"><path fill="#000" fill-rule="evenodd" d="M12.75 2.75a.75.75 0 0 0-1.5 0v1.285A7.98 7.98 0 0 0 6.086 6.61l-1.053-.796a.75.75 0 1 0-.904 1.197l1.054.797A7.96 7.96 0 0 0 4 12q0 .756.135 1.473l-1.59.452a.75.75 0 0 0 .41 1.443l1.593-.453a8.03 8.03 0 0 0 3.529 4.059l-.879 1.97a.75.75 0 0 0 1.37.61l.879-1.97A8 8 0 0 0 12 20a8 8 0 0 0 2.552-.416l.879 1.97a.75.75 0 1 0 1.37-.61l-.878-1.97a8.03 8.03 0 0 0 3.53-4.058l1.59.452a.75.75 0 0 0 .41-1.443l-1.588-.452q.134-.717.135-1.473a7.96 7.96 0 0 0-1.185-4.192l1.054-.796a.75.75 0 1 0-.904-1.197l-1.053.796a7.98 7.98 0 0 0-5.162-2.576zM7.29 7.52a6.48 6.48 0 0 1 3.96-1.977V9.36l-.93.448zm2.159 3.51-3.06-2.312A6.47 6.47 0 0 0 5.5 12q.001.543.086 1.06l3.635-1.032zm.251 2.421L6 14.503a6.53 6.53 0 0 0 2.69 3.093l1.548-3.47zm1.923 1.252-1.562 3.503A6.5 6.5 0 0 0 12 18.5c.675 0 1.326-.103 1.938-.294l-1.562-3.503zm2.138-.576 1.547 3.47a6.53 6.53 0 0 0 2.693-3.094L14.3 13.451zm1.018-2.099 3.635 1.033q.085-.518.086-1.061a6.47 6.47 0 0 0-.888-3.282L14.55 11.03zm-1.1-2.22 3.03-2.288a6.48 6.48 0 0 0-3.96-1.977V9.36zm-2.723 1.36L12 10.665l1.044.503.258 1.13-.723.905h-1.158l-.723-.906z" clip-rule="evenodd"/></svg>