<svg xmlns="http://www.w3.org/2000/svg" width="24" height="24" fill="none" viewBox="0 0 24 24"><path fill="#000" fill-rule="evenodd" d="M8 3.5A1.5 1.5 0 0 1 9.5 2h5A1.5 1.5 0 0 1 16 3.5v4A1.5 1.5 0 0 1 14.5 9h-1.75v2.25h3.75a2.25 2.25 0 0 1 2.25 2.25V15h1.75a1.5 1.5 0 0 1 1.5 1.5v4a1.5 1.5 0 0 1-1.5 1.5h-5a1.5 1.5 0 0 1-1.5-1.5v-4a1.5 1.5 0 0 1 1.5-1.5h1.75v-1.5a.75.75 0 0 0-.75-.75h-9a.75.75 0 0 0-.75.75V15H8.5a1.5 1.5 0 0 1 1.5 1.5v4A1.5 1.5 0 0 1 8.5 22h-5A1.5 1.5 0 0 1 2 20.5v-4A1.5 1.5 0 0 1 3.5 15h1.75v-1.5a2.25 2.25 0 0 1 2.25-2.25h3.75V9H9.5A1.5 1.5 0 0 1 8 7.5zm1.5 0h5v4h-5zm-6 13h5v4h-5zm12 0h5v4h-5z" clip-rule="evenodd"/></svg>