<svg xmlns="http://www.w3.org/2000/svg" width="24" height="24" fill="none" viewBox="0 0 24 24"><path fill="#000" d="M10.5 7.5a.75.75 0 0 0 0 1.5h3a.75.75 0 0 0 0-1.5z"/><path fill="#000" fill-rule="evenodd" d="M3 6.75v9h-.75a.75.75 0 0 0-.75.75V18a2.25 2.25 0 0 0 2.25 2.25h16.5A2.25 2.25 0 0 0 22.5 18v-1.5a.75.75 0 0 0-.75-.75H21v-9a2.25 2.25 0 0 0-2.25-2.25H5.25A2.25 2.25 0 0 0 3 6.75M5.25 6a.75.75 0 0 0-.75.75v9h15v-9a.75.75 0 0 0-.75-.75zM21 17.25V18a.75.75 0 0 1-.75.75H3.75A.75.75 0 0 1 3 18v-.75z" clip-rule="evenodd"/></svg>