<svg xmlns="http://www.w3.org/2000/svg" width="24" height="24" fill="none" viewBox="0 0 24 24"><path fill="currentColor" d="M3.34 3.814a1.46 1.46 0 0 0-.666.413c-.226.235-.333.44-.39.752-.063.338-.062 13.774.001 14.069.113.535.516.979 1.029 1.135.279.084 17.093.084 17.372 0 .525-.16.929-.615 1.03-1.162.062-.331.062-13.711 0-14.042a1.37 1.37 0 0 0-.423-.784 1.5 1.5 0 0 0-.673-.393c-.239-.062-17.065-.05-17.28.012m16.9 3.306V9H3.76V5.24h16.48zM9 14.64v4.12H3.76v-8.24H9zm11.24 0v4.12h-9.72v-8.24h9.72z"/></svg>