<svg xmlns="http://www.w3.org/2000/svg" width="24" height="24" fill="none" viewBox="0 0 24 24"><path fill="#000" fill-rule="evenodd" d="M3.75 3.75a1.5 1.5 0 0 0-1.5 1.5v12a1.5 1.5 0 0 0 1.5 1.5H12a.75.75 0 0 0 0-1.5H3.75v-12h16.5a.75.75 0 0 0 1.5 0 1.5 1.5 0 0 0-1.5-1.5zM18 8.25a3.75 3.75 0 1 0 0 7.5 3.75 3.75 0 0 0 0-7.5M12.75 12a5.25 5.25 0 1 1 9 3.674V21a.75.75 0 0 1-1.085.671L18 20.339l-2.665 1.332a.75.75 0 0 1-1.085-.67v-5.327A5.23 5.23 0 0 1 12.75 12M18 17.25a5.2 5.2 0 0 0 2.25-.505v3.042l-1.915-.958a.75.75 0 0 0-.67 0l-1.915.958v-3.042a5.2 5.2 0 0 0 2.25.505m-12-4.5a.75.75 0 0 1 .75-.75h3.75a.75.75 0 0 1 0 1.5H6.75a.75.75 0 0 1-.75-.75M6.75 9a.75.75 0 0 0 0 1.5h3.75a.75.75 0 0 0 0-1.5z" clip-rule="evenodd"/></svg>