<svg xmlns="http://www.w3.org/2000/svg" width="24" height="24" fill="none"><path fill="#000" fill-rule="evenodd" d="M19.872 2.281c-1.199.142-2.18.993-2.52 2.187-.115.403-.123 1.141-.018 1.525q.205.745.709 1.283l.166.177-.163.303-1.24 2.304-1.079 2-.193-.02c-.702-.072-1.391.025-1.862.264l-.204.104-.938-.938-.938-.938.1-.197c.218-.429.287-.752.287-1.335 0-.453-.015-.588-.093-.84a3.07 3.07 0 0 0-2.025-2.035c-.273-.083-.403-.098-.861-.098s-.588.015-.861.098A3.07 3.07 0 0 0 6.114 8.16c-.135.434-.135 1.247 0 1.679.157.5.368.857.74 1.253l.106.112-1.247 2.316-1.247 2.315-.123-.027c-.068-.016-.366-.026-.663-.025-.478.003-.577.016-.86.113-.471.16-.836.391-1.2.761-.569.577-.813 1.135-.849 1.943-.027.592.048.971.288 1.46A3.1 3.1 0 0 0 3 21.665c.393.106 1.128.098 1.532-.017a3.03 3.03 0 0 0 2.116-2.116c.115-.403.123-1.141.018-1.525a3 3 0 0 0-.709-1.283l-.166-.177.163-.303 1.24-2.304 1.078-2 .174.02c.096.011.381.019.634.018.497-.003.859-.085 1.255-.286l.197-.1.938.938.938.938-.1.197c-.218.429-.287.752-.287 1.335 0 .453.015.588.093.84a3.09 3.09 0 0 0 2.046 2.046c.434.135 1.246.135 1.68 0a3.09 3.09 0 0 0 2.046-2.046c.135-.434.135-1.247 0-1.679a3 3 0 0 0-.74-1.253l-.106-.112 1.247-2.316 1.247-2.315.123.027c.068.016.366.026.663.024.469-.003.582-.017.86-.109.464-.152.795-.362 1.18-.747.587-.587.833-1.141.869-1.96.043-.938-.244-1.66-.915-2.311-.659-.638-1.506-.918-2.442-.808m.757 1.525c.269.068.494.207.719.445.269.285.379.58.38 1.019 0 .283-.017.365-.122.589-.297.635-.933.978-1.597.862a1.37 1.37 0 0 1-.813-.428c-.339-.357-.458-.675-.428-1.143a1.482 1.482 0 0 1 1.861-1.344M9.653 7.658c.272.138.573.445.709.722.085.174.098.255.098.62 0 .385-.01.439-.117.65A1.48 1.48 0 0 1 9 10.486c-.591-.002-1.073-.302-1.346-.84C7.55 9.44 7.54 9.383 7.54 9c0-.365.013-.446.098-.62.173-.352.515-.664.878-.803q.144-.055.526-.045c.329.009.413.026.611.126m6 6c.272.138.573.445.709.722.085.174.098.255.098.62 0 .384-.01.44-.116.648a1.5 1.5 0 0 1-1.562.829 1.51 1.51 0 0 1-1.126-.829c-.106-.208-.116-.264-.116-.648 0-.365.013-.446.098-.62.173-.352.515-.664.878-.803.095-.037.273-.052.526-.045.329.009.413.026.611.126M4.319 17.372c.254.093.591.392.736.65.532.953-.124 2.147-1.214 2.21q-.301.017-.506-.044c-1.083-.322-1.433-1.692-.636-2.489.424-.424 1.027-.546 1.62-.327"/></svg>