<svg xmlns="http://www.w3.org/2000/svg" width="24" height="24" fill="none" viewBox="0 0 24 24"><path fill="#000" d="m12.167 6.53.93-.929a3.75 3.75 0 0 1 5.302 5.303l-2.258 2.258a3.75 3.75 0 0 1-5.143.153.75.75 0 0 0-.996 1.121 5.25 5.25 0 0 0 7.2-.213l2.26-2.26.005-.005a5.25 5.25 0 0 0-7.425-7.424l-.936.936a.75.75 0 1 0 1.06 1.06"/><path fill="#000" d="M10.4 9.743a3.75 3.75 0 0 1 2.602.943.75.75 0 0 0 .996-1.122 5.25 5.25 0 0 0-7.2.219l-2.26 2.254-.005.005a5.25 5.25 0 0 0 7.425 7.425l.936-.937a.75.75 0 0 0-1.06-1.06l-.93.93A3.75 3.75 0 0 1 5.6 13.095l2.26-2.254a3.75 3.75 0 0 1 2.54-1.1"/></svg>