<svg xmlns="http://www.w3.org/2000/svg" width="24" height="24" fill="none" viewBox="0 0 24 24"><path fill="#000" d="M11.25 9.75a.75.75 0 0 1 .731.582 3.375 3.375 0 0 1 5.269 2.793V16.5a.75.75 0 0 1-1.5 0v-3.375a1.875 1.875 0 1 0-3.75 0V16.5a.75.75 0 0 1-1.5 0v-6a.75.75 0 0 1 .75-.75M9 10.5a.75.75 0 0 0-1.5 0v6a.75.75 0 0 0 1.5 0zm.188-2.625a.937.937 0 1 1-1.875 0 .937.937 0 0 1 1.875 0"/><path fill="#000" fill-rule="evenodd" d="M2.25 3.75a1.5 1.5 0 0 1 1.5-1.5h16.5a1.5 1.5 0 0 1 1.5 1.5v16.5a1.5 1.5 0 0 1-1.5 1.5H3.75a1.5 1.5 0 0 1-1.5-1.5zm18 0H3.75v16.5h16.5z" clip-rule="evenodd"/></svg>