<svg xmlns="http://www.w3.org/2000/svg" width="24" height="24" fill="none" viewBox="0 0 24 24"><path fill="#000" fill-rule="evenodd" d="M5.01 16.785c.174.49-.064 1.039-.541 1.193-.275.088-.58.119-.87.11-.533-.015-.703.176-.529.675.06.172.144.336.221.502.152.328.163.654-.004.981a8 8 0 0 0-.159.33c-.21.462-.126.654.368.78.396.1.804.156 1.2.256.87.219 1.736.451 2.602.68.432.115.863.213 1.312.082.58-.17.9-.591.778-1.177-.093-.454-.227-.927-.465-1.317-.578-.953-1.224-1.865-1.85-2.787a3.7 3.7 0 0 0-.429-.494c-.505-.515-.705-.565-1.375-.345-.163-.329-.112-.674-.055-1.011.03-.177.092-.361.187-.512.404-.64.64-1.351.891-2.057.291-.816.663-1.578 1.227-2.258.464-.56.83-1.203 1.231-1.815.144-.218.146-.462.134-.725-.064-1.367-.14-2.735-.14-4.103.002-1.687 1.414-3 3.362-2.74 2.147.286 3.429 1.88 3.365 4.055-.058 1.96.588 3.667 1.927 5.15 1.335 1.477 1.96 3.29 2.072 5.271a2 2 0 0 1-.115.743c-.049.145-.207.254-.318.377-.15.167-.311.325-.45.501-.26.329-.546.608-.976.7-.648.14-1.078-.062-1.371-.654-.039-.079-.072-.16-.12-.233-.108-.166-.216-.407-.439-.334-.144.047-.304.255-.33.412-.06.346-.123.728-.034 1.054.258.937.199 1.862.066 2.8-.075.536-.009 1.054.497 1.365.526.323 1.04.158 1.522-.15.08-.051.155-.113.226-.177.649-.593 1.403-.99 2.238-1.256a4.4 4.4 0 0 0 .924-.42c.42-.257.404-.556-.019-.818a2 2 0 0 0-.494-.235c-.502-.152-.748-.515-.854-.996-.078-.352-.1-.704.103-1.111.037.227.06.386.088.544.112.643.447 1.118 1.038 1.419.19.096.368.235.52.387.222.225.223.485.019.73-.105.125-.23.242-.366.33-.256.166-.515.334-.794.453-.976.416-1.808 1.039-2.594 1.74-.423.377-.95.34-1.465.287-.462-.047-.824-.261-1.049-.683-.13-.241-.338-.388-.61-.392-.923-.016-1.847-.017-2.77-.02-.192 0-.384.02-.576.024a2.6 2.6 0 0 0-1.471.468c-.129.09-.26.177-.386.27q-.627.461-1.362.226c-.555-.18-1.098-.404-1.66-.55-.834-.216-1.682-.376-2.522-.568-.936-.214-1.11-.534-.725-1.403.185-.417.19-.821.076-1.247a4 4 0 0 1-.132-.639c-.038-.37.09-.536.459-.597.265-.045.538-.046.804-.092.514-.088.861-.44.962-.979m10.962-2.474a6.6 6.6 0 0 0-.483-2.421c-.112-.277-.305-.522-.46-.783-.06-.101-.14-.2-.167-.31-.19-.759-.452-1.48-.938-2.109a1.18 1.18 0 0 1-.211-1.065c.036-.135.073-.27.1-.406.068-.33-.03-.486-.342-.601-.334-.124-.654-.286-.992-.39-.279-.086-.34-.271-.327-.515a1.6 1.6 0 0 1 .06-.411c.07-.23.204-.403.471-.424.28-.023.494.09.617.346.121.254.149.513.038.784-.1.243-.004.368.247.298.107-.03.251-.158.263-.256.057-.48.038-.958-.212-1.395a.96.96 0 0 0-1.138-.466c-.58.164-.857.614-.8 1.296l.033.39-.948-.07c-.016-.183-.016-.35-.048-.511a3 3 0 0 0-.163-.602c-.1-.244-.273-.433-.567-.431-.286.001-.431.198-.54.427-.246.51-.197 1.016.036 1.513.037.077.131.185.19.18.08-.008.15-.11.237-.182-.372-.212-.541-.664-.363-1.004.065-.124.234-.223.376-.269.173-.055.341.044.398.218.069.21.1.436.13.658.007.053-.041.132-.088.172-.273.238-.555.467-.83.702a.8.8 0 0 0-.161.17c-.117.183-.14.344.084.486.136.086.251.215.357.34.163.194.366.306.613.3.992-.023 1.957-.147 2.755-.829.042-.036.164-.04.199-.006.04.04.056.15.029.203-.03.06-.114.103-.184.132-.491.202-.985.395-1.476.598-.487.2-.986.283-1.509.18-.061-.011-.127-.001-.227-.001.223.314.47.529.834.506.274-.017.561-.048.813-.147.379-.15.73-.369 1.096-.55.123-.061.256-.11.39-.14.047-.01.128.046.16.094.017.027-.024.114-.062.148-.064.058-.146.093-.22.14l-1.37.859c-.177.111-.346.238-.532.331-.356.179-.605.144-.871-.15-.216-.239-.392-.512-.588-.767-.064-.083-.138-.159-.207-.238-.033.568-.322 1.003-.565 1.454-.263.489-.452.987-.185 1.503-.088.102-.166.174-.222.261-.63.978-1.133 2.001-1.123 3.206q.003.443-.038.886c-.07.773-1.018.037.924 1.676.434.365.89.703 1.32 1.073 1.025.886-.718.857.622 1.834.225.165.496.335.762.362 1.352.134 2.646.047 3.514-1.233.033-.05.364-.339.552-2.19.048-.476.274-.691.723-.798.806-.19.217-1.608.214-2.056m-5.8-8.557.118-.038c-.05-.166-.097-.334-.159-.496-.008-.021-.097-.012-.129-.015zm2.965-.181c.114-.26-.03-.464-.303-.447z" clip-rule="evenodd"/></svg>