<svg xmlns="http://www.w3.org/2000/svg" width="24" height="24" fill="none" viewBox="0 0 24 24"><path fill="#000" d="M8.78 5.03a.75.75 0 0 0-1.06-1.06L5.25 6.44l-.97-.97a.75.75 0 0 0-1.06 1.06l1.5 1.5a.75.75 0 0 0 1.06 0zm3.22.22a.75.75 0 0 0 0 1.5h8.25a.75.75 0 0 0 0-1.5zm0 6a.75.75 0 0 0 0 1.5h8.25a.75.75 0 0 0 0-1.5zM11.25 18a.75.75 0 0 1 .75-.75h8.25a.75.75 0 0 1 0 1.5H12a.75.75 0 0 1-.75-.75M8.78 9.97a.75.75 0 0 1 0 1.06l-3 3a.75.75 0 0 1-1.06 0l-1.5-1.5a.75.75 0 1 1 1.06-1.06l.97.97 2.47-2.47a.75.75 0 0 1 1.06 0m0 7.06a.75.75 0 1 0-1.06-1.06l-2.47 2.47-.97-.97a.75.75 0 0 0-1.06 1.06l1.5 1.5a.75.75 0 0 0 1.06 0z"/></svg>