<svg xmlns="http://www.w3.org/2000/svg" width="24" height="24" fill="none" viewBox="0 0 24 24"><path fill="#000" d="M3 6a.75.75 0 0 1 .75-.75h16.5a.75.75 0 0 1 0 1.5H3.75A.75.75 0 0 1 3 6m0 6a.75.75 0 0 1 .75-.75h6.75a.75.75 0 0 1 0 1.5H3.75A.75.75 0 0 1 3 12m.75 5.25a.75.75 0 0 0 0 1.5H12a.75.75 0 0 0 0-1.5z"/><path fill="#000" fill-rule="evenodd" d="M13.5 13.5a3.75 3.75 0 1 1 6.879 2.068l1.901 1.901a.75.75 0 0 1-1.06 1.06l-1.902-1.9A3.75 3.75 0 0 1 13.5 13.5m3.75-2.25a2.25 2.25 0 1 0 0 4.5 2.25 2.25 0 0 0 0-4.5" clip-rule="evenodd"/></svg>