<svg xmlns="http://www.w3.org/2000/svg" width="24" height="24" fill="none"><path fill="#000" fill-rule="evenodd" d="M9.857 2.28C7.688 2.433 5.6 3.51 4.174 5.211a8.23 8.23 0 0 0 .002 10.578c1.46 1.737 3.441 2.752 5.733 2.939 1.983.161 4.131-.497 5.691-1.742l.18-.144 2.44 2.435c2.681 2.676 2.584 2.594 2.945 2.486.218-.065.533-.38.598-.598.108-.361.19-.264-2.486-2.945l-2.435-2.44.144-.18c1.457-1.825 2.074-4.374 1.614-6.669a8.27 8.27 0 0 0-5.139-6.129c-1.076-.42-2.372-.608-3.604-.522m1.531 1.541a6.73 6.73 0 0 1 5.791 5.791 6.74 6.74 0 0 1-4.374 7.226 6.8 6.8 0 0 1-4.61 0c-2.374-.875-4.052-2.966-4.374-5.45a6.68 6.68 0 0 1 1.917-5.65 6.68 6.68 0 0 1 5.65-1.917m-1.296 3.022a.5.5 0 0 0-.25.253c-.077.16-.082.241-.082 1.417V9.76H8.513c-1.178 0-1.257.005-1.418.082-.457.222-.457 1.094 0 1.316.161.077.24.082 1.418.082H9.76v1.247c0 1.178.005 1.257.082 1.418.222.457 1.094.457 1.316 0 .077-.161.082-.24.082-1.418V11.24h1.247c1.178 0 1.257-.005 1.418-.082.222-.108.335-.33.335-.658s-.113-.55-.335-.658c-.161-.077-.24-.082-1.418-.082H11.24V8.513c0-1.178-.005-1.257-.082-1.418-.155-.318-.68-.443-1.066-.252"/></svg>