<svg xmlns="http://www.w3.org/2000/svg" width="24" height="24" fill="none" viewBox="0 0 24 24"><path fill="#000" fill-rule="evenodd" d="M14.25 1.5a.75.75 0 0 1 .75.75v1.5h3.75a1.5 1.5 0 0 1 1.5 1.5V9h1.5a.75.75 0 0 1 0 1.5h-1.5v3h1.5a.75.75 0 0 1 0 1.5h-1.5v3.75a1.5 1.5 0 0 1-1.5 1.5H15v1.5a.75.75 0 0 1-1.5 0v-1.5h-3v1.5a.75.75 0 0 1-1.5 0v-1.5H5.25a1.5 1.5 0 0 1-1.5-1.5V15h-1.5a.75.75 0 0 1 0-1.5h1.5v-3h-1.5a.75.75 0 0 1 0-1.5h1.5V5.25a1.5 1.5 0 0 1 1.5-1.5H9v-1.5a.75.75 0 0 1 1.5 0v1.5h3v-1.5a.75.75 0 0 1 .75-.75m-4.5 3.75h-4.5v13.5h13.5V5.25zm0 3.75a.75.75 0 0 0-.75.75v4.5c0 .414.336.75.75.75h4.5a.75.75 0 0 0 .75-.75v-4.5a.75.75 0 0 0-.75-.75zm.75 4.5v-3h3v3z" clip-rule="evenodd"/></svg>