<svg xmlns="http://www.w3.org/2000/svg" width="24" height="25" fill="none" viewBox="0 0 24 25"><g fill="#000" clip-path="url(#a)"><path d="M11.123 2.27a3.963 3.963 0 0 1 5.457.14l.14.148a3.96 3.96 0 0 1 .969 3.287 3.96 3.96 0 0 1 3.287.97l.148.14.047.047.14.148a3.963 3.963 0 0 1 0 5.309l-.14.148-8.22 8.22a.32.32 0 0 0 0 .454l1.689 1.688.05.057a.75.75 0 0 1-1.054 1.055l-.058-.05-1.687-1.69a1.82 1.82 0 0 1 0-2.575l8.22-8.22.168-.187a2.464 2.464 0 0 0 0-3.11l-.168-.187-.047-.047-.188-.169a2.464 2.464 0 0 0-3.11 0l-.18.163-.006.006-6.863 6.865-.058.051a.751.751 0 0 1-1.004-1.112l.087-.088 6.785-6.784.162-.179a2.465 2.465 0 0 0 0-3.11l-.17-.187a2.464 2.464 0 0 0-3.296-.168l-.187.168-9.089 9.09a.75.75 0 0 1-1.06-1.061l9.089-9.09z"/><path d="M13.248 4.683a.75.75 0 0 1 1.06 1.06l-6.72 6.723a2.464 2.464 0 0 0 0 3.484l.186.169a2.465 2.465 0 0 0 3.296-.169l6.722-6.723a.75.75 0 0 1 1.06 1.06l-6.72 6.724a3.964 3.964 0 0 1-5.458.14l-.147-.14a3.964 3.964 0 0 1 0-5.606z"/></g><defs><clipPath id="a"><path fill="#fff" d="M0 .75h24v24H0z"/></clipPath></defs></svg>