<svg xmlns="http://www.w3.org/2000/svg" width="24" height="24" fill="none" viewBox="0 0 24 24"><path fill="#000" fill-rule="evenodd" d="M14.58 2.326A.75.75 0 0 1 15 3v7.015a.75.75 0 0 1-1.5 0V4.533l-2.526 1.964a.75.75 0 0 1-.92-1.184l3.736-2.905a.75.75 0 0 1 .79-.082m-9.525.92a.75.75 0 0 0-1.11 1.009L6.895 7.5H3A1.5 1.5 0 0 0 1.5 9v6A1.5 1.5 0 0 0 3 16.5h4.243l6.547 5.092A.75.75 0 0 0 15 21v-4.585l3.945 4.34a.75.75 0 0 0 1.11-1.01l-5.241-5.765-.018-.02-6.089-6.697-.027-.03zM6.75 9H3v6h3.75zm1.5 6.383 5.25 4.083v-4.701L8.25 8.99zm9.254-5.926a.75.75 0 0 1 1.059.067 3.75 3.75 0 0 1 0 4.957.75.75 0 1 1-1.126-.992 2.25 2.25 0 0 0 0-2.974.75.75 0 0 1 .067-1.058M21.34 7a.75.75 0 1 0-1.117 1 6 6 0 0 1 0 8 .75.75 0 1 0 1.117 1 7.5 7.5 0 0 0 0-10" clip-rule="evenodd"/></svg>