<svg xmlns="http://www.w3.org/2000/svg" width="24" height="24" fill="none" viewBox="0 0 24 24"><path fill="#000" d="M9 14.25a.75.75 0 0 1 .75-.75h1.5V12a.75.75 0 0 1 1.5 0v1.5h1.5a.75.75 0 0 1 0 1.5h-1.5v1.5a.75.75 0 0 1-1.5 0V15h-1.5a.75.75 0 0 1-.75-.75"/><path fill="#000" fill-rule="evenodd" d="M5.25 2.25a1.5 1.5 0 0 0-1.5 1.5v16.5a1.5 1.5 0 0 0 1.5 1.5h13.5a1.5 1.5 0 0 0 1.5-1.5v-12a.75.75 0 0 0-.212-.522l-.008-.008-5.25-5.25a.75.75 0 0 0-.53-.22zm8.25 1.5H5.25v16.5h13.5V9h-4.5a.75.75 0 0 1-.75-.75zm4.19 3.75L15 4.81V7.5z" clip-rule="evenodd"/></svg>