<svg xmlns="http://www.w3.org/2000/svg" width="24" height="24" fill="none" viewBox="0 0 24 24"><path fill="#000" fill-rule="evenodd" d="M8.326 18.75h-3.83a1.5 1.5 0 0 1-1.29-2.25c.53-.918 1.294-3.475 1.294-6.75a7.5 7.5 0 0 1 15 0c0 3.276.764 5.831 1.296 6.75a1.5 1.5 0 0 1-.545 2.047 1.5 1.5 0 0 1-.748.203h-3.829a3.75 3.75 0 0 1-7.348 0M7.757 5.507A6 6 0 0 1 18 9.75c0 3.44.791 6.28 1.497 7.5H4.504C5.21 16.03 6 13.189 6 9.75a6 6 0 0 1 1.757-4.243M9.88 18.75a2.251 2.251 0 0 0 4.242 0z" clip-rule="evenodd"/></svg>