<svg xmlns="http://www.w3.org/2000/svg" width="24" height="24" fill="none" viewBox="0 0 24 24"><path fill="#000" d="M3.75 4.5a.75.75 0 0 1 .75.75v13.5a.75.75 0 0 1-1.5 0V5.25a.75.75 0 0 1 .75-.75m6 3.75a.75.75 0 0 1 .75.75v1.967l1.871-.608a.75.75 0 1 1 .464 1.427l-1.872.608 1.157 1.592a.75.75 0 0 1-1.213.882L9.75 13.276l-1.157 1.592a.75.75 0 1 1-1.213-.882l1.157-1.592-1.872-.608a.75.75 0 1 1 .464-1.427L9 10.967V9a.75.75 0 0 1 .75-.75M19.5 9A.75.75 0 0 0 18 9v1.967l-1.871-.608a.75.75 0 1 0-.464 1.427l1.872.608-1.157 1.592a.75.75 0 1 0 1.213.882l1.157-1.592 1.157 1.592a.75.75 0 0 0 1.213-.882l-1.157-1.592 1.872-.608a.75.75 0 1 0-.464-1.427l-1.871.608z"/></svg>