<svg xmlns="http://www.w3.org/2000/svg" width="24" height="24" fill="none" viewBox="0 0 24 24"><path fill="#000" fill-rule="evenodd" d="m22.28 2.78-4.912 4.913.504.504a3 3 0 0 1 0 4.242l-2.186 2.186.594.595a.75.75 0 1 1-1.06 1.06l-.595-.594-2.185 2.185a3 3 0 0 1-4.243 0l-.504-.504L2.78 22.28a.75.75 0 1 1-1.06-1.06l4.912-4.913-.503-.504a3 3 0 0 1 0-4.243l2.185-2.185-.594-.595a.75.75 0 0 1 1.06-1.06l.595.594 2.186-2.186a3 3 0 0 1 4.242 0l.504.504 4.912-4.912a.75.75 0 0 1 1.061 1.06M8.232 15.785l-.009-.009-.008-.008-1.026-1.026a1.5 1.5 0 0 1 0-2.121l2.186-2.186 4.19 4.19-2.186 2.186a1.5 1.5 0 0 1-2.121 0zm7.544-7.562-.01-.01-.007-.008-1.017-1.016a1.5 1.5 0 0 0-2.12 0l-2.187 2.186 4.19 4.19 2.186-2.186a1.5 1.5 0 0 0 0-2.122l-1.016-1.016z" clip-rule="evenodd"/><path fill="#000" d="M8.763 2.289a.75.75 0 0 1 .949.474l.75 2.25a.75.75 0 0 1-1.423.474l-.75-2.25a.75.75 0 0 1 .474-.948m-5.526 6a.75.75 0 0 0-.474 1.423l2.25.75a.75.75 0 0 0 .474-1.423zm14.802 5.724a.75.75 0 0 1 .948-.474l2.25.75a.75.75 0 0 1-.474 1.423l-2.25-.75a.75.75 0 0 1-.474-.949m-3.077 4.5a.75.75 0 0 0-1.423.474l.75 2.25a.75.75 0 0 0 1.423-.474z"/></svg>