<svg xmlns="http://www.w3.org/2000/svg" width="24" height="24" fill="none" viewBox="0 0 24 24"><path fill="#000" fill-rule="evenodd" d="M12 3.75a.75.75 0 0 1 .75.75V12a.75.75 0 0 1-1.5 0V4.5a.75.75 0 0 1 .75-.75" clip-rule="evenodd"/><path fill="#000" fill-rule="evenodd" d="M8.128 4.84a.75.75 0 0 1-.218 1.038C5.84 7.228 4.5 9.385 4.5 12a7.5 7.5 0 0 0 15 0c0-2.615-1.34-4.773-3.41-6.122a.75.75 0 1 1 .82-1.256C19.355 6.216 21 8.823 21 12a9 9 0 0 1-18 0c0-3.177 1.645-5.784 4.09-7.378a.75.75 0 0 1 1.038.218" clip-rule="evenodd"/></svg>