<svg xmlns="http://www.w3.org/2000/svg" width="24" height="24" fill="none" viewBox="0 0 24 24"><path fill="#000" d="M18.563 10.875a.937.937 0 1 1-1.875 0 .937.937 0 0 1 1.875 0"/><path fill="#000" fill-rule="evenodd" d="M6 3a.75.75 0 0 0-.75.75v3H3.875C2.62 6.75 1.5 7.702 1.5 9v7.5c0 .414.336.75.75.75h3v3c0 .414.336.75.75.75h12a.75.75 0 0 0 .75-.75v-3h3a.75.75 0 0 0 .75-.75V9c0-1.298-1.12-2.25-2.375-2.25H18.75v-3A.75.75 0 0 0 18 3zM3 9c0-.36.334-.75.875-.75h16.25c.54 0 .875.39.875.75v6.75h-2.25v-1.5a.75.75 0 0 0-.75-.75H6a.75.75 0 0 0-.75.75v1.5H3zm3.75-2.25h10.5V4.5H6.75zm0 8.25h10.5v4.5H6.75z" clip-rule="evenodd"/></svg>