<svg xmlns="http://www.w3.org/2000/svg" width="24" height="24" fill="none" viewBox="0 0 24 24"><path fill="#000" d="M13.5 10.5a.75.75 0 0 1 .75-.75H18a.75.75 0 0 1 0 1.5h-3.75a.75.75 0 0 1-.75-.75m0 3a.75.75 0 0 1 .75-.75H18a.75.75 0 0 1 0 1.5h-3.75a.75.75 0 0 1-.75-.75"/><path fill="#000" fill-rule="evenodd" d="M6 11.25a3 3 0 1 1 5.116 2.127c.78.5 1.375 1.27 1.61 2.187a.75.75 0 1 1-1.453.372c-.241-.943-1.197-1.686-2.273-1.686-1.075 0-2.031.743-2.274 1.687a.75.75 0 0 1-1.452-.374c.235-.916.831-1.685 1.61-2.186A3 3 0 0 1 6 11.25m3-1.5a1.5 1.5 0 1 0 0 3 1.5 1.5 0 0 0 0-3" clip-rule="evenodd"/><path fill="#000" fill-rule="evenodd" d="M3.75 3.75a1.5 1.5 0 0 0-1.5 1.5v13.5a1.5 1.5 0 0 0 1.5 1.5h16.5a1.5 1.5 0 0 0 1.5-1.5V5.25a1.5 1.5 0 0 0-1.5-1.5zm0 1.5h16.5v13.5H3.75z" clip-rule="evenodd"/></svg>