<svg xmlns="http://www.w3.org/2000/svg" width="24" height="24" fill="none" viewBox="0 0 24 24"><path fill="#000" fill-rule="evenodd" d="M15.314 1.5a1.5 1.5 0 0 0-1.06.439L9.222 6.984l-.044-.014a5.7 5.7 0 0 0-1.382-.233c-1.157-.052-2.687.228-4.236 1.477a1.5 1.5 0 0 0-.12 2.232l4.526 4.526L3.97 18.97a.75.75 0 0 0 1.06 1.06l3.998-3.997 4.528 4.527.002.002a1.5 1.5 0 0 0 2.25-.155l.002-.004c.748-.995 2.112-3.236 1.238-5.624l5.014-5.03a1.5 1.5 0 0 0 0-2.12l-5.688-5.69a1.5 1.5 0 0 0-1.06-.439M9.07 8.525l.01.004a.75.75 0 0 0 .862-.143L15.313 3 21 8.69l-5.372 5.389a.75.75 0 0 0-.14.865c.861 1.72-.102 3.525-.874 4.553L4.5 9.385l.002-.002c1.23-.992 2.39-1.184 3.228-1.146a4.2 4.2 0 0 1 1.015.17 3 3 0 0 1 .326.119" clip-rule="evenodd"/></svg>