<svg xmlns="http://www.w3.org/2000/svg" width="24" height="24" fill="none" viewBox="0 0 24 24"><path fill="#000" d="M8.25 10.125C8.25 8.17 10.026 6.75 12 6.75s3.75 1.42 3.75 3.375c0 1.703-1.348 3-3 3.306v.069a.75.75 0 0 1-1.5 0v-.75A.75.75 0 0 1 12 12c1.34 0 2.25-.93 2.25-1.875 0-.944-.91-1.875-2.25-1.875s-2.25.93-2.25 1.875v.375a.75.75 0 0 1-1.5 0zM12 17.813a.937.937 0 1 0 0-1.875.937.937 0 0 0 0 1.874"/><path fill="#000" fill-rule="evenodd" d="M12 2.25c-5.385 0-9.75 4.365-9.75 9.75s4.365 9.75 9.75 9.75 9.75-4.365 9.75-9.75S17.385 2.25 12 2.25M3.75 12a8.25 8.25 0 1 1 16.5 0 8.25 8.25 0 0 1-16.5 0" clip-rule="evenodd"/></svg>