<svg xmlns="http://www.w3.org/2000/svg" width="24" height="24" fill="none" viewBox="0 0 24 24"><path fill="#000" d="M15.383 3.66a9 9 0 0 0-9.747 1.976l-.004.003A41 41 0 0 0 3.75 7.683V6a.75.75 0 0 0-1.5 0v3.75a.75.75 0 0 0 .774.75H6.75a.75.75 0 0 0 0-1.5H4.597a40 40 0 0 1 2.1-2.305 7.5 7.5 0 1 1 .155 10.76.75.75 0 0 0-1.03 1.09A9 9 0 1 0 15.384 3.66"/><path fill="#000" d="M12 6.75a.75.75 0 0 1 .75.75v4.075l3.386 2.032a.75.75 0 1 1-.772 1.286l-3.75-2.25A.75.75 0 0 1 11.25 12V7.5a.75.75 0 0 1 .75-.75"/></svg>