<svg xmlns="http://www.w3.org/2000/svg" width="24" height="24" fill="none" viewBox="0 0 24 24"><path fill="#000" fill-rule="evenodd" d="M19.58 3.014c-1.298-.076-4.227.073-6.694 2.539L12.44 6H6.97a1.5 1.5 0 0 0-1.06.439l-3.22 3.22a1.5 1.5 0 0 0 .849 2.545h.002l3.607.504 4.144 4.145.503 3.606v.002a1.5 1.5 0 0 0 2.546.849l3.22-3.22a1.5 1.5 0 0 0 .44-1.06v-5.47l.446-.446c2.464-2.465 2.615-5.396 2.539-6.695v-.004a1.5 1.5 0 0 0-1.401-1.4zM16.5 13.06l-3.706 3.706.487 3.483 3.22-3.22zm-3.21-5.788-.017.017-4.711 4.71L12 15.44l5.386-5.386c2.033-2.033 2.166-4.451 2.102-5.542-1.09-.063-3.506.068-5.541 2.103zM6.97 7.5h3.968l-3.705 3.706-3.483-.487z" clip-rule="evenodd"/><path fill="#000" d="M6.94 15.726a.75.75 0 0 0-.372-1.453L6.75 15l-.183-.727h-.003l-.006.002-.015.004a2 2 0 0 0-.174.056 4 4 0 0 0-.423.182c-.34.17-.785.449-1.226.89-.9.9-1.72 2.408-1.72 4.843 0 .414.336.75.75.75 2.436 0 3.943-.82 4.843-1.72.441-.441.72-.885.89-1.226a4 4 0 0 0 .238-.597l.004-.015.001-.005.001-.003c0-.001 0-.002-.727-.184l.728.182a.75.75 0 0 0-1.454-.371l-.002.007-.02.059c-.02.056-.055.146-.11.257a3.2 3.2 0 0 1-.61.836c-.519.519-1.425 1.098-2.997 1.245.147-1.572.726-2.478 1.245-2.997a3.3 3.3 0 0 1 .837-.61 2 2 0 0 1 .315-.13z"/></svg>