<svg xmlns="http://www.w3.org/2000/svg" width="24" height="24" fill="none" viewBox="0 0 24 24"><path fill="#000" fill-rule="evenodd" d="M1.94 15a1.5 1.5 0 0 0 0 2.121l4.939 4.94a1.5 1.5 0 0 0 2.121 0L22.061 9a1.5 1.5 0 0 0 0-2.121l-4.94-4.94a1.5 1.5 0 0 0-2.12 0l-3.523 3.523-.008.008-.008.008-2.984 2.984-.008.008-.008.008-2.984 2.984-.008.008-.008.008zM6 13.06l-3 3L7.94 21 21 7.94 16.06 3l-3 3 2.47 2.47a.75.75 0 0 1-1.06 1.06L12 7.06 10.06 9l2.47 2.47a.75.75 0 0 1-1.06 1.06L9 10.06 7.06 12l2.47 2.47a.75.75 0 0 1-1.06 1.06z" clip-rule="evenodd"/></svg>