<svg xmlns="http://www.w3.org/2000/svg" width="24" height="24" fill="none" viewBox="0 0 24 24"><path fill="#000" d="M16.875 8.438a.937.937 0 1 0 0-1.875.937.937 0 0 0 0 1.875"/><path fill="#000" fill-rule="evenodd" d="M4.5 3.75A1.5 1.5 0 0 0 3 5.25v4.5a1.5 1.5 0 0 0 1.5 1.5h15a1.5 1.5 0 0 0 1.5-1.5v-4.5a1.5 1.5 0 0 0-1.5-1.5zm0 1.5h15v4.5h-15z" clip-rule="evenodd"/><path fill="#000" d="M17.813 16.5a.937.937 0 1 1-1.875 0 .937.937 0 0 1 1.874 0"/><path fill="#000" fill-rule="evenodd" d="M4.5 12.75a1.5 1.5 0 0 0-1.5 1.5v4.5a1.5 1.5 0 0 0 1.5 1.5h15a1.5 1.5 0 0 0 1.5-1.5v-4.5a1.5 1.5 0 0 0-1.5-1.5zm0 1.5h15v4.5h-15z" clip-rule="evenodd"/></svg>