<svg xmlns="http://www.w3.org/2000/svg" width="24" height="24" fill="none" viewBox="0 0 24 24"><path fill="#000" fill-rule="evenodd" d="M13.963 2.307a.75.75 0 0 1 .817.163l7.5 7.5a.75.75 0 0 1 0 1.06l-7.5 7.5A.75.75 0 0 1 13.5 18v-3.729c-5.052.283-8.632 3.36-10.05 4.87a1.125 1.125 0 0 1-1.945-.898c.38-3.283 2.268-6.152 4.668-8.187C8.346 8.212 11.01 6.99 13.5 6.782V3a.75.75 0 0 1 .463-.693M15 4.811V7.5a.75.75 0 0 1-.75.75c-2.257 0-4.915 1.09-7.107 2.95-1.888 1.601-3.366 3.719-3.944 6.081 2.004-1.842 5.857-4.531 11.05-4.531a.75.75 0 0 1 .75.75v2.69l5.69-5.69zM2.25 18.33" clip-rule="evenodd"/></svg>