<svg xmlns="http://www.w3.org/2000/svg" width="24" height="24" fill="none" viewBox="0 0 24 24"><path fill="#000" d="M12 8.25a.75.75 0 0 1 .75.75v3.75a.75.75 0 0 1-1.5 0V9a.75.75 0 0 1 .75-.75m.938 7.875a.937.937 0 1 1-1.875 0 .937.937 0 0 1 1.874 0"/><path fill="#000" fill-rule="evenodd" d="M3.44 4.19a1.5 1.5 0 0 1 1.06-.44h15a1.5 1.5 0 0 1 1.5 1.5v5.51c0 8.42-7.146 11.2-8.53 11.66a1.46 1.46 0 0 1-.94 0C10.144 21.961 3 19.183 3 10.762V5.25c0-.398.158-.78.44-1.06M19.5 5.25h-15v5.512c0 7.35 6.197 9.802 7.5 10.234 1.306-.435 7.5-2.89 7.5-10.236z" clip-rule="evenodd"/></svg>