<svg xmlns="http://www.w3.org/2000/svg" width="24" height="24" fill="none" viewBox="0 0 24 24"><path fill="#000" d="M16.28 10.28a.75.75 0 1 0-1.06-1.06l-4.72 4.72-1.72-1.72a.75.75 0 0 0-1.06 1.06l2.25 2.25a.75.75 0 0 0 1.06 0z"/><path fill="#000" fill-rule="evenodd" d="M4.5 3.75A1.5 1.5 0 0 0 3 5.25v5.512c0 8.42 7.144 11.2 8.53 11.658.305.104.636.104.94 0 1.384-.46 8.53-3.24 8.53-11.66V5.25a1.5 1.5 0 0 0-1.5-1.5zm0 1.5h15v5.51c0 7.346-6.194 9.8-7.5 10.236-1.303-.432-7.5-2.884-7.5-10.234z" clip-rule="evenodd"/></svg>