<svg xmlns="http://www.w3.org/2000/svg" width="24" height="24" fill="none" viewBox="0 0 24 24"><path fill="#000" fill-rule="evenodd" d="M5.25 3a.75.75 0 0 1 .75.75v6.095a3.001 3.001 0 0 1 0 5.81v4.595a.75.75 0 0 1-1.5 0v-4.594a3.001 3.001 0 0 1 0-5.811V3.75A.75.75 0 0 1 5.25 3m0 11.25a1.5 1.5 0 1 0 0-3 1.5 1.5 0 0 0 0 3m7.5-3.094a3.001 3.001 0 0 0 0-5.811V3.75a.75.75 0 0 0-1.5 0v1.595a3.001 3.001 0 0 0 0 5.81v9.095a.75.75 0 0 0 1.5 0zM12 6.75a1.5 1.5 0 1 0 0 3 1.5 1.5 0 0 0 0-3m9.75 9a3 3 0 0 1-2.25 2.906v1.594a.75.75 0 0 1-1.5 0v-1.594a3.001 3.001 0 0 1 0-5.811V3.75a.75.75 0 0 1 1.5 0v9.095a3 3 0 0 1 2.25 2.905m-4.5 0a1.5 1.5 0 1 1 3 0 1.5 1.5 0 0 1-3 0" clip-rule="evenodd"/></svg>