<svg xmlns="http://www.w3.org/2000/svg" width="24" height="24" fill="none" viewBox="0 0 24 24"><path fill="#000" fill-rule="evenodd" d="M22.5 15A10.5 10.5 0 0 0 12 4.5h-.037C6.15 4.52 1.5 9.315 1.5 15.106v2.144a1.5 1.5 0 0 0 1.5 1.5h18a1.5 1.5 0 0 0 1.5-1.5zm-7.078-8.324a9 9 0 0 0-2.672-.645V8.25a.75.75 0 0 1-1.5 0V6.031c-3.834.321-6.978 3.083-7.944 6.719H5.25a.75.75 0 0 1 0 1.5H3.04q-.04.424-.04.856v2.144h6.368l5.775-7.941a.75.75 0 1 1 1.214.882l-5.134 7.06H21V15q0-.378-.031-.751H18.75a.75.75 0 0 1 0-1.5h1.964a9 9 0 0 0-5.292-6.074" clip-rule="evenodd"/></svg>