<svg xmlns="http://www.w3.org/2000/svg" width="24" height="24" fill="none" viewBox="0 0 24 24"><path fill="#000" fill-rule="evenodd" d="M12 2a.77.77 0 0 1 .77.77v3.076a.77.77 0 1 1-1.54 0V2.77A.77.77 0 0 1 12 2m7.07 2.93c.301.3.301.787 0 1.087l-2.175 2.176a.77.77 0 0 1-1.088-1.087l2.176-2.176c.3-.3.787-.3 1.088 0M17.385 12a.77.77 0 0 1 .769-.77h3.077a.77.77 0 0 1 0 1.54h-3.077a.77.77 0 0 1-.77-.77m-1.577 3.807c.3-.3.787-.3 1.088 0l2.176 2.176a.77.77 0 0 1-1.088 1.088l-2.176-2.176a.77.77 0 0 1 0-1.088M12 17.385a.77.77 0 0 1 .77.769v3.077a.77.77 0 0 1-1.54 0v-3.077a.77.77 0 0 1 .77-.77m-3.807-1.577c.3.3.3.787 0 1.088L6.017 19.07a.77.77 0 1 1-1.088-1.088l2.176-2.176c.3-.3.788-.3 1.088 0M2 12a.77.77 0 0 1 .77-.77h3.076a.77.77 0 1 1 0 1.54H2.77A.77.77 0 0 1 2 12m2.93-7.07c.3-.3.787-.3 1.087 0l2.176 2.176a.77.77 0 0 1-1.088 1.087L4.93 6.017a.77.77 0 0 1 0-1.087" clip-rule="evenodd"/></svg>