<svg xmlns="http://www.w3.org/2000/svg" width="24" height="24" fill="none" viewBox="0 0 24 24"><g fill="#000" clip-path="url(#a)"><path d="M12 .75a.75.75 0 0 1 .75.75v2.25a.75.75 0 0 1-1.5 0V1.5A.75.75 0 0 1 12 .75"/><path fill-rule="evenodd" d="M6 12a6 6 0 1 1 12 0 6 6 0 0 1-12 0m6-4.5a4.5 4.5 0 1 0 0 9 4.5 4.5 0 0 0 0-9" clip-rule="evenodd"/><path d="M5.03 3.97a.75.75 0 0 0-1.06 1.06l1.5 1.5a.75.75 0 0 0 1.06-1.06zm1.5 14.56-1.5 1.5a.75.75 0 0 1-1.06-1.06l1.5-1.5a.75.75 0 0 1 1.06 1.06m12-12 1.5-1.5a.75.75 0 0 0-1.06-1.06l-1.5 1.5a.75.75 0 0 0 1.06 1.06m0 10.94 1.5 1.5a.75.75 0 1 1-1.06 1.06l-1.5-1.5a.75.75 0 1 1 1.06-1.06M1.5 11.25a.75.75 0 0 0 0 1.5h2.25a.75.75 0 0 0 0-1.5zM12 19.5a.75.75 0 0 1 .75.75v2.25a.75.75 0 0 1-1.5 0v-2.25a.75.75 0 0 1 .75-.75m8.25-8.25a.75.75 0 0 0 0 1.5h2.25a.75.75 0 0 0 0-1.5z"/></g><defs><clipPath id="a"><path fill="#fff" d="M0 0h24v24H0z"/></clipPath></defs></svg>