<svg xmlns="http://www.w3.org/2000/svg" width="24" height="24" fill="none" viewBox="0 0 24 24"><path fill="#000" d="M6.53 6.53a.75.75 0 0 1-1.06-1.06v-.001l.002-.001.003-.003.008-.009.027-.026.094-.086a7 7 0 0 1 .344-.286A9.93 9.93 0 0 1 12 3c2.887 0 5.124 1.444 6.605 2.827.334.311.633.622.895.918V4.5a.75.75 0 0 1 1.5 0v4.485a.74.74 0 0 1-.101.392.75.75 0 0 1-.662.373H15.75a.75.75 0 0 1 0-1.5h3.058c-.32-.4-.73-.863-1.226-1.327C16.251 5.681 14.362 4.5 12 4.5a8.43 8.43 0 0 0-5.128 1.74 5 5 0 0 0-.33.28zM3 15a.75.75 0 0 1 .75-.75h4.5a.75.75 0 0 1 0 1.5H5.193c.318.4.729.863 1.225 1.326C7.749 18.32 9.638 19.5 12 19.5a8.43 8.43 0 0 0 5.128-1.74 5 5 0 0 0 .33-.28l.012-.011a.75.75 0 0 1 1.06 1.06v.002l-.002.001-.003.003-.008.008-.027.026-.094.087c-.08.071-.195.17-.344.286A9.93 9.93 0 0 1 12 21c-2.887 0-5.124-1.445-6.606-2.827a14 14 0 0 1-.894-.918V19.5a.75.75 0 0 1-1.5 0z"/></svg>