<svg xmlns="http://www.w3.org/2000/svg" width="24" height="24" fill="none" viewBox="0 0 24 24"><path fill="currentColor" d="M2.613 4.621a.9.9 0 0 0-.26.25l-.093.149-.012 6.5c-.008 4.739.001 6.565.034 6.739a1.5 1.5 0 0 0 1.288 1.223c.33.048 16.53.048 16.86 0a1.5 1.5 0 0 0 1.288-1.223c.033-.174.042-2 .034-6.739l-.012-6.5-.093-.15a.9.9 0 0 0-.264-.25l-.17-.1h-9.217l-9.216.001zM20.24 7.5V9H3.76V6h16.48zM7.48 12.02v1.5H3.76v-3h3.72zm12.76 0v1.5H9v-3h11.24zM7.48 16.5V18H3.76v-3h3.72zm12.76 0V18H9v-3h11.24z"/></svg>