<svg xmlns="http://www.w3.org/2000/svg" width="24" height="24" fill="none" viewBox="0 0 24 24"><path fill="#000" fill-rule="evenodd" d="M3.75 3.75a1.5 1.5 0 0 0-1.5 1.5v13.5a1.5 1.5 0 0 0 1.5 1.5h16.5a1.5 1.5 0 0 0 1.5-1.5V5.25a1.5 1.5 0 0 0-1.5-1.5zm0 1.5h16.5v13.5H3.75zm3.164 3.282a.75.75 0 0 1 1.055-.118l3.75 3a.75.75 0 0 1 0 1.172l-3.75 3a.75.75 0 0 1-.937-1.172L10.049 12 7.032 9.586a.75.75 0 0 1-.118-1.054M12 15a.75.75 0 0 1 .75-.75h3.75a.75.75 0 0 1 0 1.5h-3.75A.75.75 0 0 1 12 15" clip-rule="evenodd"/></svg>