<svg xmlns="http://www.w3.org/2000/svg" width="24" height="24" fill="none" viewBox="0 0 24 24"><path fill="#000" fill-rule="evenodd" d="M17.725 5.999c-.545-.488-1.381-.933-2.619-.756-1.318.188-1.914 1.132-2.191 2.228a6.7 6.7 0 0 0-.188 1.5 7 7 0 0 0 .016.616l.002.03v.004a.75.75 0 0 1-.745.83c-.788 0-2.037-.361-3.503-1.077-1.187-.58-2.564-1.415-4.03-2.556-.015 2.917.895 5.08 1.861 6.56a10.6 10.6 0 0 0 1.587 1.91 8 8 0 0 0 .668.564l.032.023.004.004a.75.75 0 0 1 .317.48c.052.269-.058.49-.213.699q-.09.121-.257.326c-.223.27-.551.638-.978 1.039a11 11 0 0 1-2.178 1.596c1.112.334 2.44.391 3.845.158a12.15 12.15 0 0 0 5.854-2.744c1.773-1.535 2.711-3.404 3.206-4.904.248-.749.382-1.4.454-1.859a9 9 0 0 0 .08-.666l.001-.03V9.97a.75.75 0 0 1 .195-.474l1.86-2.046H19.2a.75.75 0 0 1-.682-.437l.001.002-.005-.01-.03-.058a3.8 3.8 0 0 0-.759-.948m1.91-.049-.045-.069a5.3 5.3 0 0 0-.865-1c-.805-.72-2.069-1.375-3.831-1.123-2.182.311-3.085 1.967-3.434 3.346a8 8 0 0 0-.23 1.723c-.52-.134-1.224-.385-2.075-.8-1.373-.67-3.061-1.734-4.864-3.294a.75.75 0 0 0-1.237.49c-.42 4.044.737 7.014 2.018 8.975a12 12 0 0 0 2.076 2.42 10 10 0 0 1-.686.71c-.75.703-1.834 1.506-3.2 1.96a.75.75 0 0 0-.178 1.337c1.709 1.139 4.023 1.412 6.317 1.032a13.65 13.65 0 0 0 6.59-3.09c2.034-1.761 3.096-3.892 3.649-5.568.277-.839.428-1.57.511-2.096a10 10 0 0 0 .076-.588l2.828-3.11A.75.75 0 0 0 22.5 5.95zM18.52 7.015q0 .002 0 0" clip-rule="evenodd"/></svg>