<svg xmlns="http://www.w3.org/2000/svg" width="24" height="24" fill="none" viewBox="0 0 24 24"><path fill="#000" d="M9.75 4.5a.75.75 0 0 0-1.5 0v2.25a.75.75 0 0 0 1.5 0zm5.993-.704a4.5 4.5 0 0 0-3.187 1.285l-1.099 1.151a.75.75 0 0 0 1.086 1.036l1.087-1.14a3 3 0 0 1 4.242 4.242l-1.14 1.087a.75.75 0 1 0 1.036 1.085l1.151-1.098.022-.022a4.5 4.5 0 0 0-3.198-7.626m-8.475 8.747a.75.75 0 0 0-1.036-1.086l-1.151 1.1-.022.02a4.5 4.5 0 0 0 6.385 6.342l1.098-1.151a.75.75 0 1 0-1.085-1.036l-1.087 1.14a3 3 0 0 1-4.242-4.242zM16.5 15a.75.75 0 0 1 .75-.75h2.25a.75.75 0 0 1 0 1.5h-2.25a.75.75 0 0 1-.75-.75m-12-6.75a.75.75 0 0 0 0 1.5h2.25a.75.75 0 0 0 0-1.5zM15 16.5a.75.75 0 0 1 .75.75v2.25a.75.75 0 0 1-1.5 0v-2.25a.75.75 0 0 1 .75-.75"/></svg>