<svg xmlns="http://www.w3.org/2000/svg" width="24" height="24" fill="none" viewBox="0 0 24 24"><path fill="#000" d="M17.03 5.97a.75.75 0 1 0-1.06 1.06l.758.759a.75.75 0 0 0 1.06-1.06zm-8.064 9.065a1.61 1.61 0 1 0 2.276-2.276 1.61 1.61 0 0 0-2.276 2.276"/><path fill="#000" fill-rule="evenodd" d="M15.478 2.59 11.63 6.44a3 3 0 0 0-2.51.853l-6.16 6.16a3 3 0 0 0 0 4.242l3.344 3.344a3 3 0 0 0 4.243 0l6.159-6.16c.62-.62.911-1.442.876-2.254l3.965-3.965a2 2 0 0 0 0-2.829l-3.24-3.24a2 2 0 0 0-2.829 0m5.009 4.302-3.241-3.24a.5.5 0 0 0-.707 0L13.12 7.068l.04.04q.104.087.201.184l3.344 3.343q.097.098.184.202l.179.179 3.418-3.418a.5.5 0 0 0 0-.707M10.18 8.354a1.5 1.5 0 0 1 1.977-.128l3.616 3.616a1.5 1.5 0 0 1-.128 1.976l-6.16 6.16a1.5 1.5 0 0 1-2.12 0L4.02 16.634a1.5 1.5 0 0 1 0-2.121z" clip-rule="evenodd"/></svg>