<svg xmlns="http://www.w3.org/2000/svg" width="24" height="24" fill="none" viewBox="0 0 24 24"><path fill="#000" d="M16.875 3a.75.75 0 0 0 0 1.5H19.5v2.625a.75.75 0 0 0 1.5 0V4.5A1.5 1.5 0 0 0 19.5 3zM21 16.875a.75.75 0 0 0-1.5 0V19.5h-2.625a.75.75 0 0 0 0 1.5H19.5a1.5 1.5 0 0 0 1.5-1.5zm-17.25-.75a.75.75 0 0 1 .75.75V19.5h2.625a.75.75 0 0 1 0 1.5H4.5A1.5 1.5 0 0 1 3 19.5v-2.625a.75.75 0 0 1 .75-.75M4.5 3A1.5 1.5 0 0 0 3 4.5v2.625a.75.75 0 0 0 1.5 0V4.5h2.625a.75.75 0 0 0 0-1.5z"/><path fill="#000" fill-rule="evenodd" d="M8.25 10.5a3.75 3.75 0 1 1 6.276 2.772q.165.071.325.151A6.4 6.4 0 0 1 17.1 15.3a.75.75 0 1 1-1.2.9 4.873 4.873 0 0 0-7.8 0 .75.75 0 1 1-1.2-.9 6.4 6.4 0 0 1 2.574-2.028A3.74 3.74 0 0 1 8.25 10.5M12 8.25a2.25 2.25 0 1 0 0 4.5 2.25 2.25 0 0 0 0-4.5" clip-rule="evenodd"/></svg>