<svg xmlns="http://www.w3.org/2000/svg" width="24" height="24" fill="none" viewBox="0 0 24 24"><path fill="#000" fill-rule="evenodd" d="M19.5 2.625a.75.75 0 0 0-1.5 0v.503a2.3 2.3 0 0 0-.712.412l-.436-.252a.75.75 0 1 0-.75 1.3l.436.25a2.3 2.3 0 0 0 0 .823l-.437.252a.75.75 0 1 0 .75 1.3l.437-.253c.208.178.449.319.712.412v.503a.75.75 0 0 0 1.5 0v-.503a2.3 2.3 0 0 0 .712-.412l.436.252a.75.75 0 0 0 .75-1.299l-.436-.252a2.3 2.3 0 0 0 0-.822l.437-.252a.75.75 0 0 0-.75-1.299l-.437.252a2.3 2.3 0 0 0-.712-.412zm0 2.625a.75.75 0 1 1-1.5 0 .75.75 0 0 1 1.5 0" clip-rule="evenodd"/><path fill="#000" fill-rule="evenodd" d="M16.5 11.25c0 1.433-.67 2.71-1.714 3.534a7.5 7.5 0 0 1 3.377 2.69 8.24 8.24 0 0 0 1.973-6.85.75.75 0 1 1 1.479-.248 9.74 9.74 0 0 1-3.014 8.79.7.7 0 0 1-.173.154 9.74 9.74 0 0 1-7.921 2.299 9.74 9.74 0 0 1-4.888-2.271.75.75 0 0 1-.253-.227 9.743 9.743 0 0 1 8.258-16.735.75.75 0 0 1-.249 1.478 8.243 8.243 0 0 0-7.532 13.6 7.5 7.5 0 0 1 3.37-2.68A4.5 4.5 0 1 1 16.5 11.25m-7.5 0a3 3 0 1 1 3.113 2.998h-.226A3 3 0 0 1 9 11.25m-2.047 7.253a8.24 8.24 0 0 0 10.1.008 6 6 0 0 0-4.93-2.763 5 5 0 0 1-.246 0 6 6 0 0 0-4.924 2.755" clip-rule="evenodd"/></svg>