<svg xmlns="http://www.w3.org/2000/svg" width="24" height="24" fill="none" viewBox="0 0 24 24"><path fill="#000" d="M18.779 6.14a2.25 2.25 0 0 0-2.96 1.548.75.75 0 0 1-1.452-.375 3.75 3.75 0 1 1 6.159 3.708 6.36 6.36 0 0 1 2.574 2.03.75.75 0 1 1-1.2.899A4.87 4.87 0 0 0 18 12a.75.75 0 0 1-.01-1.5H18a2.25 2.25 0 0 0 .779-4.36"/><path fill="#000" fill-rule="evenodd" d="M7.5 13.5a4.5 4.5 0 1 1 7.238 3.572 6.86 6.86 0 0 1 3.158 2.797.75.75 0 0 1-1.292.762 5.345 5.345 0 0 0-9.208 0 .75.75 0 0 1-1.292-.762 6.84 6.84 0 0 1 3.158-2.797A4.5 4.5 0 0 1 7.5 13.5m4.5-3a3 3 0 1 0 0 6 3 3 0 0 0 0-6" clip-rule="evenodd"/><path fill="#000" d="M3.82 12.514A4.9 4.9 0 0 1 6 12a.75.75 0 1 0 0-1.5 2.25 2.25 0 1 1 2.18-2.812.75.75 0 1 0 1.452-.375 3.75 3.75 0 1 0-6.158 3.708A6.37 6.37 0 0 0 .9 13.05a.75.75 0 1 0 1.201.899 4.9 4.9 0 0 1 1.72-1.436"/></svg>