<svg xmlns="http://www.w3.org/2000/svg" width="24" height="24" fill="none" viewBox="0 0 24 24"><path fill="#000" fill-rule="evenodd" d="M2.25 10.125a5.62 5.62 0 0 0 2.505 4.681A9 9 0 0 0 .33 18.341a.75.75 0 1 0 1.258.818 7.5 7.5 0 0 1 12.574 0 .75.75 0 1 0 1.258-.818 9 9 0 0 0-4.425-3.535 5.625 5.625 0 1 0-8.745-4.681M7.875 6a4.125 4.125 0 1 0 0 8.25 4.125 4.125 0 0 0 0-8.25" clip-rule="evenodd"/><path fill="#000" d="M16.125 15.75a7.5 7.5 0 0 1 6.287 3.409.75.75 0 1 0 1.258-.818 9 9 0 0 0-4.43-3.536 5.62 5.62 0 0 0 2.404-5.743A5.625 5.625 0 0 0 14.037 4.9a.75.75 0 0 0 .555 1.394 4.125 4.125 0 1 1 1.523 7.956.75.75 0 0 0 .01 1.5"/></svg>