<svg xmlns="http://www.w3.org/2000/svg" width="24" height="24" fill="none" viewBox="0 0 24 24"><path fill="#000" fill-rule="evenodd" d="M3 9.75a4.5 4.5 0 1 1 7.247 3.564c1.927.82 3.456 2.465 3.98 4.5a.75.75 0 0 1-1.453.373c-.576-2.238-2.801-3.937-5.274-3.937s-4.698 1.7-5.274 3.937a.75.75 0 0 1-1.452-.374c.523-2.034 2.052-3.68 3.979-4.499A4.5 4.5 0 0 1 3 9.75m4.5-3a3 3 0 1 0 0 6 3 3 0 0 0 0-6" clip-rule="evenodd"/><path fill="#000" d="M13.5 7.5a.75.75 0 0 1 .75-.75h9a.75.75 0 0 1 0 1.5h-9a.75.75 0 0 1-.75-.75m.75 3.75a.75.75 0 0 0 0 1.5h9a.75.75 0 0 0 0-1.5zm1.5 5.25a.75.75 0 0 1 .75-.75h6.75a.75.75 0 0 1 0 1.5H16.5a.75.75 0 0 1-.75-.75"/></svg>