<svg xmlns="http://www.w3.org/2000/svg" width="24" height="24" fill="none" viewBox="0 0 24 24"><path fill="#000" fill-rule="evenodd" d="M2.25 5.25a1.5 1.5 0 0 1 1.5-1.5h16.5a1.5 1.5 0 0 1 1.5 1.5V18a1.5 1.5 0 0 1-1.5 1.5h-1.5V21a.75.75 0 0 1-1.5 0v-1.5H6.75V21a.75.75 0 0 1-1.5 0v-1.5h-1.5a1.5 1.5 0 0 1-1.5-1.5zm18 0v6h-1.562A4.501 4.501 0 0 0 9.75 12a4.5 4.5 0 0 0 8.938.75h1.562V18H3.75V5.25zm-3.094 6h-1.829a1.312 1.312 0 1 0 0 1.5h1.829A3.001 3.001 0 0 1 11.25 12a3 3 0 0 1 5.906-.75" clip-rule="evenodd"/></svg>