<svg xmlns="http://www.w3.org/2000/svg" width="24" height="24" fill="none" viewBox="0 0 24 24"><path fill="#000" d="M9 8.25a.75.75 0 0 0-1.5 0V9h-.75a.75.75 0 0 0 0 1.5h.75v.75a.75.75 0 0 0 1.5 0v-.75h.75a.75.75 0 0 0 0-1.5H9zm4.5 1.5a.75.75 0 0 1 .75-.75h2.25a.75.75 0 0 1 0 1.5h-2.25a.75.75 0 0 1-.75-.75"/><path fill="#000" fill-rule="evenodd" d="M7.863 3.75h8.262a5.625 5.625 0 0 1 5.542 4.664L23.2 16.29a3.375 3.375 0 0 1-5.743 2.938L13.732 15h-3.464l-3.724 4.227-.033.035a3.375 3.375 0 0 1-5.71-2.973l.003-.013 1.533-7.881A5.625 5.625 0 0 1 7.863 3.75M15.731 15l2.834 3.216a1.875 1.875 0 0 0 3.157-1.66l-.819-4.213A5.62 5.62 0 0 1 16.125 15zm4.453-6.36.006.035.002.01a4.125 4.125 0 0 1-4.067 4.815H9.929a.75.75 0 0 0-.563.254l-3.93 4.462a1.875 1.875 0 0 1-3.158-1.66L3.81 8.673l.003-.013a4.125 4.125 0 0 1 4.053-3.41h8.259a4.125 4.125 0 0 1 4.059 3.39" clip-rule="evenodd"/></svg>