<svg xmlns="http://www.w3.org/2000/svg" width="24" height="24" fill="none" viewBox="0 0 24 24"><path fill="#000" fill-rule="evenodd" d="M15 3a.75.75 0 0 0-1.21-.592L7.243 7.5H3A1.5 1.5 0 0 0 1.5 9v6A1.5 1.5 0 0 0 3 16.5h4.243l6.547 5.092A.75.75 0 0 0 15 21zM8.25 8.617l5.25-4.084v14.933l-5.25-4.083zM6.75 9H3v6h3.75z" clip-rule="evenodd"/><path fill="#000" d="M17.504 9.455a.75.75 0 0 1 1.059.067 3.75 3.75 0 0 1 0 4.957.75.75 0 1 1-1.126-.991 2.25 2.25 0 0 0 0-2.975.75.75 0 0 1 .067-1.058M21.34 7a.75.75 0 1 0-1.117 1 6 6 0 0 1 0 8 .75.75 0 1 0 1.117 1 7.5 7.5 0 0 0 0-10"/></svg>