<svg xmlns="http://www.w3.org/2000/svg" width="24" height="24" fill="none" viewBox="0 0 24 24"><path fill="#000" fill-rule="evenodd" d="M3.44 16.5a1.5 1.5 0 0 0 0 2.121l1.938 1.94a1.5 1.5 0 0 0 2.121 0l9.507-9.508.047-.046L20.56 7.5a1.5 1.5 0 0 0 0-2.122L18.621 3.44a1.5 1.5 0 0 0-2.121 0zM16.5 9.439l3-3L17.56 4.5l-3 3zm-3-.878-9 9L6.439 19.5l9-9z" clip-rule="evenodd"/><path fill="#000" d="M7.5 3a.75.75 0 0 1 .75.75v1.5h1.5a.75.75 0 0 1 0 1.5h-1.5v1.5a.75.75 0 0 1-1.5 0v-1.5h-1.5a.75.75 0 1 1 0-1.5h1.5v-1.5A.75.75 0 0 1 7.5 3M21 12a.75.75 0 1 0-1.5 0v1.5H18a.75.75 0 1 0 0 1.5h1.5v1.5a.75.75 0 0 0 1.5 0V15h1.5a.75.75 0 0 0 0-1.5H21zm-5.25 4.5a.75.75 0 0 1 .75.75V18h.75a.75.75 0 1 1 0 1.5h-.75v.75a.75.75 0 0 1-1.5 0v-.75h-.75a.75.75 0 0 1 0-1.5H15v-.75a.75.75 0 0 1 .75-.75"/></svg>