<svg xmlns="http://www.w3.org/2000/svg" width="24" height="24" fill="none" viewBox="0 0 24 24"><path fill="#000" d="M12 9a.75.75 0 0 1 .75.75v3.75a.75.75 0 0 1-1.5 0V9.75A.75.75 0 0 1 12 9m0 8.813a.937.937 0 1 0 0-1.875.937.937 0 0 0 0 1.874"/><path fill="#000" fill-rule="evenodd" d="M10.09 3.343 1.881 17.709C1.043 19.175 2.101 21 3.791 21H20.21c1.69 0 2.748-1.825 1.91-3.291L13.91 3.343c-.844-1.478-2.975-1.478-3.82 0m-6.907 15.11 8.21-14.366a.7.7 0 0 1 1.215 0l8.209 14.366a.7.7 0 0 1-.608 1.047H3.791a.7.7 0 0 1-.608-1.047" clip-rule="evenodd"/></svg>