<svg xmlns="http://www.w3.org/2000/svg" width="24" height="24" fill="none" viewBox="0 0 24 24"><path fill="#000" d="M12 4.5A16.13 16.13 0 0 0 1.774 8.157a.75.75 0 0 0 .952 1.16 14.625 14.625 0 0 1 18.548 0 .75.75 0 1 0 .952-1.16A16.13 16.13 0 0 0 12 4.5m.938 14.625a.937.937 0 1 1-1.875 0 .937.937 0 0 1 1.874 0"/><path fill="#000" d="M4.785 11.506a11.625 11.625 0 0 1 14.43 0 .75.75 0 1 1-.93 1.175 10.125 10.125 0 0 0-12.57 0 .75.75 0 1 1-.93-1.175M12 13.499a7.13 7.13 0 0 0-4.191 1.363.75.75 0 1 0 .882 1.213 5.63 5.63 0 0 1 6.618 0 .75.75 0 1 0 .882-1.213 7.13 7.13 0 0 0-4.19-1.363"/></svg>