<svg xmlns="http://www.w3.org/2000/svg" width="24" height="24" fill="none" viewBox="0 0 24 24"><path fill="#000" fill-rule="evenodd" d="M20.73 3.174a.75.75 0 0 1 .27.576v6.75a.75.75 0 0 1-.75.75h-7.5a.75.75 0 0 1-.75-.75V5.114a.75.75 0 0 1 .616-.738l7.5-1.364a.75.75 0 0 1 .614.162M13.5 5.74v4.01h6V4.649zm-9.75 7.01a.75.75 0 0 0-.75.75v3.75c0 .362.26.673.616.738l6 1.091a.75.75 0 0 0 .884-.738V13.5a.75.75 0 0 0-.75-.75zm.75 3.874V14.25H9v3.192zm8.25-3.874a.75.75 0 0 0-.75.75v5.387c0 .362.26.673.616.738l7.5 1.363A.75.75 0 0 0 21 20.25V13.5a.75.75 0 0 0-.75-.75zm.75 5.51v-4.01h6v5.101zm-3-12.6a.75.75 0 0 0-.884-.739l-6 1.092A.75.75 0 0 0 3 6.75v3.75c0 .415.336.75.75.75h6a.75.75 0 0 0 .75-.75zm-6 4.09V7.376L9 6.558V9.75z" clip-rule="evenodd"/></svg>