<svg xmlns="http://www.w3.org/2000/svg" width="24" height="24" fill="none" viewBox="0 0 24 24"><path fill="#000" fill-rule="evenodd" d="M15.874 3.822a5.25 5.25 0 0 0-5.468 7.716.75.75 0 0 1-.166.93l-6.07 5.237a1.504 1.504 0 0 0 2.126 2.126l5.235-6.07a.75.75 0 0 1 .931-.167 5.25 5.25 0 0 0 7.716-5.467l-3.17 2.925a.75.75 0 0 1-.666.182l-2.469-.531a.75.75 0 0 1-.576-.576l-.53-2.47a.75.75 0 0 1 .182-.665zm-2.417-1.394a6.75 6.75 0 0 1 4.074.313.75.75 0 0 1 .27 1.204l-3.486 3.778.347 1.615 1.615.347L20.055 6.2a.75.75 0 0 1 1.204.27 6.75 6.75 0 0 1-8.97 8.71l-4.877 5.655-.038.04a3.004 3.004 0 1 1-4.208-4.285l5.655-4.877a6.75 6.75 0 0 1 4.636-9.284" clip-rule="evenodd"/></svg>