<svg xmlns="http://www.w3.org/2000/svg" width="24" height="24" fill="none" viewBox="0 0 24 24"><path fill="#000" fill-rule="evenodd" d="M10.916 8.376A.75.75 0 0 0 9.75 9v6a.75.75 0 0 0 1.166.624l4.5-3a.75.75 0 0 0 0-1.248zm.334 5.223V10.4l2.398 1.6z" clip-rule="evenodd"/><path fill="#000" fill-rule="evenodd" d="M20.613 4.975c-1.675-.644-3.85-.944-5.557-1.088a40 40 0 0 0-2.996-.137h-.12l-.177.001a40 40 0 0 0-2.82.137c-1.707.144-3.881.445-5.557 1.092l-.006.002a2.25 2.25 0 0 0-1.354 1.544C1.792 7.44 1.5 9.148 1.5 12s.292 4.56.53 5.48a2.25 2.25 0 0 0 1.349 1.537l.007.003c1.676.647 3.85.948 5.557 1.092a40 40 0 0 0 2.997.138h.297a40 40 0 0 0 2.82-.137c1.707-.145 3.881-.446 5.557-1.093l.005-.002a2.25 2.25 0 0 0 1.354-1.537c.238-.918.53-2.63.53-5.48 0-2.852-.291-4.56-.53-5.48a2.25 2.25 0 0 0-1.353-1.544zm-8.62.275h.065l.164.001a39 39 0 0 1 2.708.131c1.678.141 3.673.428 5.14.991a.75.75 0 0 1 .449.515l.002.006c.2.773.483 2.352.483 5.106s-.283 4.335-.483 5.105l-.002.005a.75.75 0 0 1-.448.512c-1.468.565-3.463.854-5.14.996a39 39 0 0 1-2.873.132h-.28a39 39 0 0 1-2.708-.132c-1.677-.142-3.672-.43-5.14-.995a.75.75 0 0 1-.446-.512v-.005C3.282 16.334 3 14.754 3 12s.283-4.335.48-5.103l.001-.005a.75.75 0 0 1 .449-.514c1.467-.565 3.462-.853 5.14-.995a39 39 0 0 1 2.872-.133z" clip-rule="evenodd"/></svg>