<svg xmlns="http://www.w3.org/2000/svg" xmlns:xlink="http://www.w3.org/1999/xlink" xmlns:lucid="lucid" width="1162.5" height="432.22"><g transform="translate(6101 -678.5)" lucid:page-tab-id="0_0"><path d="M-6500 500h2000v1000h-2000z" fill="#fff"/><path d="M-5603.9 706a6 6 0 0 1 6-6h631.9a6 6 0 0 1 6 6v377.22a6 6 0 0 1-6 6h-631.9a6 6 0 0 1-6-6z" stroke="#232f3e" stroke-width="3" fill-opacity="0"/><path d="M-5603.9 700h56v56h-56v-56z" stroke="#fff" stroke-opacity="0" fill="#232f3e"/><path d="M-5563.02 741.22h-25c-4.13.05-7.57-3.1-7.9-7.2v-.64c-.15-3.4 1.97-6.38 5.25-7.36v-.66c.12-4.22 2.44-7.75 6.24-9.57 4.12-1.86 8.72-.96 11.8 2.3 1.08 1.1 1.85 2.2 2.44 3.6 1.22-1 2.74-1.32 4.26-.9 2.24.8 3.68 2.74 3.76 5.1 3.68.65 6.32 3.8 6.28 7.56 0 7.07-7.04 7.73-7.12 7.76zm-26.7-13.88c-2.83.6-4.75 3.14-4.6 6.04v.53c.3 3.33 3.1 5.84 6.4 5.76h24.98c3.04-.3 5.4-2.64 5.68-5.7.28-3.43-2.24-6.5-5.68-6.78-.44-.05-.72-.44-.64-.87.08-1.83-1-3.44-2.72-4.13-1.32-.37-2.64.13-3.44 1.24-.2.25-.45.38-.77.33-.28-.05-.48-.24-.6-.5-.6-1.6-1.4-2.85-2.6-4.04-2.7-2.8-6.6-3.6-10.13-2-3.24 1.6-5.2 4.63-5.32 8.24-.04.4-.04.74 0 1.14.04.4-.2.76-.6.84z" stroke="#fff" stroke-opacity="0" fill="#fff"/><use xlink:href="#a" transform="matrix(1,0,0,1,-5532.902197518476,720) translate(0 22.15266666666666)"/><use xlink:href="#b" transform="matrix(1,0,0,1,-5532.902197518476,720) translate(54.65222222222222 22.15266666666666)"/><path d="M-5551.95 775.22a6 6 0 0 1 6-6h528a6 6 0 0 1 6 6v268a6 6 0 0 1-6 6h-528a6 6 0 0 1-6-6z" stroke="#248814" stroke-width="2" fill="#fff" fill-opacity="0"/><path d="M-5551.95 769.22h56v56h-56v-56z" stroke="#fff" stroke-opacity="0" fill="#248814"/><path d="M-5520.2 797.52h-1.17v-1.1c-.12-1.73-1.48-3.07-3.2-3.2-1.9-.13-3.54 1.3-3.67 3.2v1.07h-1.18c-.45 0-.8.35-.8.8v6.12c0 .44.35.8.8.8h9.23c.45 0 .8-.36.8-.8v-6.1c0-.44-.35-.8-.8-.8zm-6.4-1.06c.1-1.03 1-1.77 2-1.67.9.07 1.6.75 1.68 1.66v1.06h-3.72zm5.66 7.08h-7.68v-4.42h7.63z" stroke="#fff" stroke-opacity="0" fill="#fff"/><path d="M-5509.68 794.96c-.1-2.44-1.58-4.47-3.87-5.3-1.58-.46-3.16-.13-4.4.9-.68-1.44-1.47-2.6-2.6-3.75-3.24-3.34-7.94-4.27-12.18-2.38-4.04 1.9-6.4 5.63-6.54 10.05v.7c-3.4.98-5.66 4.08-5.5 7.65v.63c.38 4.28 3.92 7.52 8.2 7.47h26s7.42-.63 7.42-8.1c.04-3.9-2.66-7.2-6.53-7.86zm-.96 14.4h-25.92c-3.46.05-6.3-2.53-6.58-5.97v-.53c-.16-3.05 1.92-5.7 4.9-6.3.4-.12.64-.48.6-.9-.05-.4-.05-.73 0-1.14.08-3.8 2.12-6.95 5.53-8.6 1.24-.58 2.4-.82 3.82-.85 2.62.08 4.87 1.04 6.7 2.94 1.24 1.3 2.03 2.6 2.62 4.3.04.15.12.28.25.36.36.28.86.2 1.1-.16.84-1.18 2.26-1.67 3.63-1.3 1.8.72 2.87 2.4 2.83 4.32-.08.4.2.82.63.9h-.02c3.58.36 6.2 3.55 5.83 7.12-.28 3.13-2.7 5.52-5.82 5.85z" stroke="#fff" stroke-opacity="0" fill="#fff"/><use xlink:href="#c" transform="matrix(1,0,0,1,-5480.951098759238,789.2194705872253) translate(0 14.4)"/><use xlink:href="#d" transform="matrix(1,0,0,1,-5480.951098759238,789.2194705872253) translate(55.5 14.4)"/><use xlink:href="#e" transform="matrix(1,0,0,1,-5480.951098759238,789.2194705872253) translate(116.4 14.4)"/><path d="M-6080 830.97a6 6 0 0 1 6-6h116a6 6 0 0 1 6 6v116a6 6 0 0 1-6 6h-116a6 6 0 0 1-6-6z" stroke="#becacf" stroke-width="2" fill="#fff" filter="url(#f)"/><path d="M-6080 970.97a6 6 0 0 1 6-6h116a6 6 0 0 1 6 6v12a6 6 0 0 1-6 6h-116a6 6 0 0 1-6-6z" fill="none"/><use xlink:href="#g" transform="matrix(1,0,0,1,-6080,964.9677536428114) translate(37.08000000000001 18.879999999999995)"/><path d="M-5988.98 871.3c0 8.22-6.7 14.9-14.87 14.9-8.26 0-14.87-6.68-14.87-14.9 0-8.2 6.6-14.86 14.87-14.86 8.18 0 14.87 6.66 14.87 14.87zM-6023.7 881.23c0 5.47-4.46 9.92-9.9 9.92-5.5 0-9.95-4.45-9.95-9.92s4.46-9.92 9.96-9.92c5.44 0 9.9 4.46 9.9 9.93zM-6053.44 909.96c0-7.64 6.24-13.85 13.9-13.85h11.9c7.65 0 13.82 6.22 13.82 13.86 0 1.94-1.56 3.47-3.42 3.47h-32.7c-1.94 0-3.5-1.53-3.5-3.47z" stroke="#000" stroke-opacity="0" fill="#697986"/><path d="M-6023.26 894.17c6.92 1.88 11.97 8.15 11.97 15.67 0 1.3-.43 2.57-1.18 3.6h28.92c2.46 0 4.46-2 4.46-4.45 0-9.87-7.95-17.85-17.84-17.85h-16.36c-3.7 0-7.13 1.08-9.96 3.02z" stroke="#000" stroke-opacity="0" fill="#697986"/><path d="M-5211.95 829h120v120h-120V829z" stroke="#fff" stroke-opacity="0" stroke-width="2" fill="#3b48cc"/><path d="M-5147.85 911h-2.1c-.87 0-1.6-.7-1.6-1.6l.02-35.6c0-.9.7-1.6 1.58-1.6h18.9c.5 0 .88.2 1.2.54l4.8 5.78-2.26 2.06-4.45-5.2h-16.66v32.55h.55z" stroke="#fff" stroke-opacity="0" stroke-width="2" fill="#fff"/><path d="M-5118.64 916.8h-25.86c-.87 0-1.6-.7-1.6-1.6v-35.62c0-.9.73-1.6 1.6-1.6h19.95c.43 0 .78.17 1.1.48l5.9 5.97c.3.3.45.66.45 1.1v29.7c-.03.86-.7 1.52-1.54 1.56zm-24.32-3h22.78v-27.66l-5-5h-17.78z" stroke="#fff" stroke-opacity="0" stroke-width="2" fill="#fff"/><path d="M-5118.64 888.65h-7.5c-.88 0-1.6-.72-1.6-1.6v-7.52h3.06v5.96h5.98zM-5132.94 908.44h-1c-.83.02-1.53-.3-2.06-.92-.66-.98-.87-2.05-.66-3.22-.1-2.84-1.7-3.3-1.7-3.3-.82-.3-1.23-1.24-.92-2.06.17-.45.48-.76.93-.94.14 0 1.6-.6 1.6-3.4 0-1.68.78-3.55 2.65-3.62h1.06v3.1h-.5c-.03.17-.03.34 0 .52.1 1.87-.43 3.5-1.6 4.92 1.18 1.45 1.7 3.06 1.6 4.92v.28c-.03.25-.03.46 0 .7h.68zM-5128.64 908.44v-3.07h.6v-.52c-.12-1.86.4-3.5 1.6-4.92-1.2-1.43-1.72-3.06-1.6-4.92-.02-.08-.02-.16 0-.27.02-.24.02-.44 0-.68h-.7v-3.08h1c.83-.02 1.53.3 2.06.92.66.98.87 2.04.66 3.2 0 2.7 1.6 3.2 1.6 3.3.7.22 1.14.87 1.1 1.6 0 .7-.45 1.28-1.13 1.45-.13 0-1.6.6-1.6 3.42 0 1.68-.8 3.55-2.66 3.6zM-5160.38 872.52c-12.8 0-26.42-3.94-26.42-11.2s13.58-11.2 26.42-11.2c12.84 0 26.4 3.94 26.4 11.2s-13.62 11.2-26.4 11.2zm0-19.4c-13.74 0-23.35 4.3-23.35 8.18 0 3.85 9.6 8.13 23.35 8.13 13.73 0 23.35-4.28 23.35-8.13 0-3.88-9.62-8.18-23.35-8.18z" stroke="#fff" stroke-opacity="0" stroke-width="2" fill="#fff"/><path d="M-5137.06 861.3h3.08v9.68h-3.08v-9.7zM-5160.38 927.94c-12.8 0-26.42-3.93-26.42-11.2V861.3h3.07v55.38c0 3.87 9.6 8.2 23.35 8.2 13.73 0 23.35-4.34 23.35-8.2h3.06c0 7.33-13.63 11.26-26.4 11.26z" stroke="#fff" stroke-opacity="0" stroke-width="2" fill="#fff"/><path d="M-5160.35 891.9c-15 0-26.34-4.8-26.34-11.2h3.1c0 3.85 9.6 8.16 23.26 8.16 2.45 0 4.5-.12 6.92-.4l.33 3.06c-2.54.28-4.7.4-7.24.38zM-5160.32 910.94c-15.05 0-26.37-4.8-26.37-11.2h3.1c0 3.85 9.6 8.15 23.28 8.15 2.4 0 4.46-.12 6.88-.4l.34 3.1c-2.52.26-4.7.35-7.22.34z" stroke="#fff" stroke-opacity="0" stroke-width="2" fill="#fff"/><use xlink:href="#h" transform="matrix(1,0,0,1,-5241.951098759238,958) translate(13.5288888888889 17.546666666666663)"/><use xlink:href="#i" transform="matrix(1,0,0,1,-5241.951098759238,958) translate(125.2711111111111 17.546666666666663)"/><use xlink:href="#j" transform="matrix(1,0,0,1,-5241.951098759238,958) translate(49.53777777777779 38.879999999999995)"/><use xlink:href="#k" transform="matrix(1,0,0,1,-5241.951098759238,958) translate(32.83111111111112 60.213333333333324)"/><path d="M-5471.95 828.97h120v120h-120v-120z" stroke="#fff" stroke-opacity="0" stroke-width="2" fill="#d86613"/><path d="M-5375.15 893.77h-8.02v-3.18h8.02v-38.45h-38.44v8.02h-3.17v-8.02c0-1.75 1.44-3.18 3.18-3.18h38.45c1.75 0 3.18 1.43 3.18 3.18v38.44c0 1.73-1.43 3.17-3.18 3.17zM-5410.35 928.97h-38.44c-1.73 0-3.17-1.44-3.17-3.18v-38.45c0-1.75 1.44-3.18 3.18-3.18h8.03v3.18h-8.02v38.44h38.45v-8.03h3.18v8.02c0 1.73-1.43 3.17-3.18 3.17z" stroke="#fff" stroke-opacity="0" stroke-width="2" fill="#fff"/><path d="M-5386.35 874.58v-3.23h-4.8c-.12-1.7-1.5-3.07-3.2-3.17v-4.8h-3.2v4.8h-4.77v-4.8h-3.23v4.8h-4.8v-4.8h-3.2v4.8h-4.8v-4.8h-3.17v4.8h-4.82v-4.8h-3.22v4.8c-1.7.1-3.08 1.5-3.18 3.18h-4.8v3.22h4.8v4.8h-4.8v3.2h4.8v4.8h-4.8v3.17h4.8v4.82h-4.8v3.22h4.8v4.75h-4.8v3.23h4.8c.1 1.7 1.5 3.07 3.18 3.17v4.82h3.22v-4.82h4.82v4.82h3.17v-4.82h4.8v4.82h3.2v-4.82h4.8v4.82h3.23v-4.82h4.76v4.82h3.22v-4.82c1.7-.1 3.07-1.48 3.18-3.17h4.8v-3.23h-4.8v-4.76h4.8v-3.23h-4.8v-4.82h4.8v-3.17h-4.8v-4.8h4.8v-3.2h-4.8v-4.8zm-8 31.7c0 .15-.14.3-.3.3h-34.6c-.16 0-.3-.15-.3-.3v-34.62c0-.15.14-.3.3-.3h34.6c.16 0 .3.15.3.3z" stroke="#fff" stroke-opacity="0" stroke-width="2" fill="#fff"/><use xlink:href="#l" transform="matrix(1,0,0,1,-5501.951098759238,957.9677536428114) translate(55.70370370370371 14.222222222222221)"/><use xlink:href="#m" transform="matrix(1,0,0,1,-5501.951098759238,957.9677536428114) translate(50.567901234567906 35.55555555555556)"/><use xlink:href="#n" transform="matrix(1,0,0,1,-5501.951098759238,957.9677536428114) translate(58.39506172839506 56.888888888888886)"/><path d="M-5818.46 834.97a6 6 0 0 1 6-6h116a6 6 0 0 1 6 6v116a6 6 0 0 1-6 6h-116a6 6 0 0 1-6-6z" stroke="#000" stroke-opacity="0" stroke-width="2" fill="#5130c9" filter="url(#o)"/><path d="M-5818.46 974.97a6 6 0 0 1 6-6h116a6 6 0 0 1 6 6v12a6 6 0 0 1-6 6h-116a6 6 0 0 1-6-6z" fill="none"/><use xlink:href="#p" transform="matrix(1,0,0,1,-5818.46399731256,968.9677536428114) translate(30.555555555555564 17.54666666666666)"/><use xlink:href="#q" transform="matrix(1,0,0,1,-5818.46399731256,968.9677536428114) translate(17.18666666666669 38.87999999999998)"/><use xlink:href="#r" transform="matrix(1,0,0,1,-5818.46399731256,968.9677536428114) translate(34.70666666666668 60.21333333333331)"/><path d="M-5747.36 860.84c.5 0 .88.4 1.07.85l.07.2 1.6 8.2c2.14.77 4.17 1.9 5.94 3.26l.7.53 8.05-2.77c.5-.26 1.07-.06 1.45.4 2.8 3.08 5.07 6.82 6.34 10.75.25.46.12.98-.26 1.3l-.12.14-6.4 5.44c.25 1.25.32 2.56.32 3.8 0 1.06-.07 2.1-.2 3.1l-.12.7 6.4 5.45c.44.34.63.93.38 1.45-1.27 3.94-3.55 7.68-6.34 10.82-.3.4-.82.53-1.26.4h-.2l-8.03-2.76c-1.77 1.4-3.73 2.57-5.88 3.5l-.76.32-1.65 8.2c-.05.45-.5.98-1.06 1.04-2.1.4-4.18.6-6.34.6-2.15 0-4.24-.2-6.33-.6-.5-.06-.88-.46-1.07-.92l-.07-.13-1.58-8.18c-2.15-.86-4.24-1.97-6.08-3.35l-.57-.46-8.04 2.77c-.5.2-1.08.06-1.46-.4-2.78-3.14-5.06-6.88-6.33-10.82-.25-.45-.12-.98.26-1.3l.12-.14 6.4-5.43c-.26-1.18-.32-2.5-.32-3.8 0-1.05.06-2.04.2-3.08l.12-.74-6.4-5.44c-.44-.33-.63-.92-.38-1.44 1.27-3.93 3.55-7.67 6.33-10.75.32-.46.83-.6 1.27-.46l.2.06 8.03 2.76c1.7-1.45 3.8-2.63 5.95-3.55l.7-.26 1.58-8.2c.13-.54.57-1.06 1.14-1.06 4.18-.85 8.5-.85 12.67 0zm-6.34 12.92c-10.63 0-19.24 8.6-19.24 19.2 0 10.63 8.6 19.22 19.24 19.22 10.64 0 19.25-8.6 19.25-19.2 0-10.63-8.6-19.22-19.25-19.22zm12.16 10.82v5.7h-9.24v13.77h-5.83v-13.77h-9.25v-5.7h24.3z" stroke="#000" stroke-opacity="0" fill="#fff"/><path d="M-5472.95 888.97h-108.24a.02.02 0 0 1 0-.02.02.02 0 0 0-.02 0h-90.74" stroke="#697986" stroke-width="2" fill="none"/><path d="M-5471.95 889.94h-1.03V888h1.03z" stroke="#697986" stroke-width=".05" fill="#697986"/><path d="M-5687.23 888.94l14.27-4.64v9.27z" stroke="#697986" stroke-width="2" fill="#697986"/><path d="M-5350.95 888.97h120.5" stroke="#697986" stroke-width="2" fill="none"/><path d="M-5350.93 889.94h-1.02V888h1.02z" stroke="#697986" stroke-width=".05" fill="#697986"/><path d="M-5215.2 888.97l-14.25 4.63v-9.27z" stroke="#697986" stroke-width="2" fill="#697986"/><path d="M-5950 888.97h113.03" stroke="#697986" stroke-width="2" fill="none"/><path d="M-5949.97 889.94h-1.03V888h1.03z" stroke="#697986" stroke-width=".05" fill="#697986"/><path d="M-5821.7 888.97l-14.27 4.63v-9.27z" stroke="#697986" stroke-width="2" fill="#697986"/><defs><path fill="#324148" d="M1417 0h-208c-47 1-77-28-90-61l-108-295H412L304-61c-11 30-46 61-89 61H6l568-1446h275zM481-546h461c-77-218-163-424-231-651-66 230-154 432-230 651" id="s"/><path fill="#324148" d="M12-1446h226c47 0 80 25 90 61 87 312 181 618 262 935 6 25 10 51 15 79 10-53 22-104 38-149l284-865c11-30 46-61 89-61 78 0 148-4 169 61l282 865c15 43 27 90 38 142 9-49 18-98 30-142l246-865c9-33 45-61 89-61h211L1632 0h-243c-113-359-232-713-341-1076C938-712 818-360 704 0H461" id="t"/><path fill="#324148" d="M519-204c146 0 246-70 241-211-6-175-195-185-333-232-183-63-339-153-333-400 5-199 120-319 272-380 126-51 311-44 437 5 72 27 133 64 184 112l-66 127c-15 40-64 51-105 25-64-41-136-87-246-85-132 3-224 54-224 182 0 167 202 176 334 227 173 67 333 144 333 381 0 227-120 364-289 433-138 56-353 39-478-16-80-35-154-80-210-138l78-129c23-34 74-43 115-13 73 54 157 112 290 112" id="u"/><g id="a"><use transform="matrix(0.01122222222222222,0,0,0.01122222222222222,0,0)" xlink:href="#s"/><use transform="matrix(0.01122222222222222,0,0,0.01122222222222222,14.790888888888887,0)" xlink:href="#t"/><use transform="matrix(0.01122222222222222,0,0,0.01122222222222222,38.278999999999996,0)" xlink:href="#u"/></g><path fill="#324148" d="M1284-209C1170-69 1008 19 759 16c-347-4-553-182-649-442-66-178-66-423 6-596 108-261 330-435 688-440 220-3 375 79 488 188l-90 125c-16 32-68 39-102 12-71-55-162-101-298-96-304 11-465 201-465 510 0 241 101 401 267 477 125 58 330 39 424-24 42-17 97-111 150-54" id="v"/><path fill="#324148" d="M395-1486V0H148v-1486h247" id="w"/><path fill="#324148" d="M361-1005c121-49 297-49 417 0 184 74 298 236 298 490 0 330-178 530-506 530C241 15 61-185 61-515c0-254 115-416 300-490zm-45 492c0 201 65 338 254 338 188 0 251-137 251-338s-63-340-251-340c-189 0-254 139-254 340" id="x"/><path fill="#324148" d="M457 16c-234 0-346-155-346-390v-652h247v652c0 121 55 198 174 197 102-1 168-51 226-107v-742h247V0c-80-9-199 29-214-45l-17-82C697-50 608 16 457 16" id="y"/><path fill="#324148" d="M502-1045c120-1 193 43 256 101v-542h247V0c-80-9-199 29-214-45l-20-99C693-58 601 15 441 15 163 15 61-217 61-510c0-241 98-411 259-494 54-27 115-41 182-41zM316-510c0 181 36 329 209 329 118 0 173-54 233-123v-460c-48-59-104-93-198-93-188 0-244 151-244 347" id="z"/><g id="b"><use transform="matrix(0.01122222222222222,0,0,0.01122222222222222,0,0)" xlink:href="#v"/><use transform="matrix(0.01122222222222222,0,0,0.01122222222222222,15.048999999999998,0)" xlink:href="#w"/><use transform="matrix(0.01122222222222222,0,0,0.01122222222222222,21.13144444444444,0)" xlink:href="#x"/><use transform="matrix(0.01122222222222222,0,0,0.01122222222222222,33.8911111111111,0)" xlink:href="#y"/><use transform="matrix(0.01122222222222222,0,0,0.01122222222222222,46.65077777777776,0)" xlink:href="#z"/></g><path fill="#248814" d="M137 0h-34L2-248h35l83 218 83-218h36" id="A"/><path fill="#248814" d="M24-231v-30h32v30H24zM24 0v-190h32V0H24" id="B"/><path fill="#248814" d="M114-163C36-179 61-72 57 0H25l-1-190h30c1 12-1 29 2 39 6-27 23-49 58-41v29" id="C"/><path fill="#248814" d="M59-47c-2 24 18 29 38 22v24C64 9 27 4 27-40v-127H5v-23h24l9-43h21v43h35v23H59v120" id="D"/><path fill="#248814" d="M84 4C-5 8 30-112 23-190h32v120c0 31 7 50 39 49 72-2 45-101 50-169h31l1 190h-30c-1-10 1-25-2-33-11 22-28 36-60 37" id="E"/><path fill="#248814" d="M141-36C126-15 110 5 73 4 37 3 15-17 15-53c-1-64 63-63 125-63 3-35-9-54-41-54-24 1-41 7-42 31l-33-3c5-37 33-52 76-52 45 0 72 20 72 64v82c-1 20 7 32 28 27v20c-31 9-61-2-59-35zM48-53c0 20 12 33 32 33 41-3 63-29 60-74-43 2-92-5-92 41" id="F"/><path fill="#248814" d="M24 0v-261h32V0H24" id="G"/><g id="c"><use transform="matrix(0.05,0,0,0.05,0,0)" xlink:href="#A"/><use transform="matrix(0.05,0,0,0.05,11.65,0)" xlink:href="#B"/><use transform="matrix(0.05,0,0,0.05,15.600000000000001,0)" xlink:href="#C"/><use transform="matrix(0.05,0,0,0.05,21.55,0)" xlink:href="#D"/><use transform="matrix(0.05,0,0,0.05,26.55,0)" xlink:href="#E"/><use transform="matrix(0.05,0,0,0.05,36.55,0)" xlink:href="#F"/><use transform="matrix(0.05,0,0,0.05,46.55,0)" xlink:href="#G"/></g><path fill="#248814" d="M30-248c87 1 191-15 191 75 0 78-77 80-158 76V0H30v-248zm33 125c57 0 124 11 124-50 0-59-68-47-124-48v98" id="H"/><path fill="#248814" d="M108 0H70L1-190h34L89-25l56-165h34" id="I"/><path fill="#248814" d="M100-194c63 0 86 42 84 106H49c0 40 14 67 53 68 26 1 43-12 49-29l28 8c-11 28-37 45-77 45C44 4 14-33 15-96c1-61 26-98 85-98zm52 81c6-60-76-77-97-28-3 7-6 17-6 28h103" id="J"/><g id="d"><use transform="matrix(0.05,0,0,0.05,0,0)" xlink:href="#H"/><use transform="matrix(0.05,0,0,0.05,12,0)" xlink:href="#C"/><use transform="matrix(0.05,0,0,0.05,17.95,0)" xlink:href="#B"/><use transform="matrix(0.05,0,0,0.05,21.9,0)" xlink:href="#I"/><use transform="matrix(0.05,0,0,0.05,30.899999999999995,0)" xlink:href="#F"/><use transform="matrix(0.05,0,0,0.05,40.9,0)" xlink:href="#D"/><use transform="matrix(0.05,0,0,0.05,45.9,0)" xlink:href="#J"/></g><path fill="#248814" d="M212-179c-10-28-35-45-73-45-59 0-87 40-87 99 0 60 29 101 89 101 43 0 62-24 78-52l27 14C228-24 195 4 139 4 59 4 22-46 18-125c-6-104 99-153 187-111 19 9 31 26 39 46" id="K"/><path fill="#248814" d="M100-194c62-1 85 37 85 99 1 63-27 99-86 99S16-35 15-95c0-66 28-99 85-99zM99-20c44 1 53-31 53-75 0-43-8-75-51-75s-53 32-53 75 10 74 51 75" id="L"/><path fill="#248814" d="M85-194c31 0 48 13 60 33l-1-100h32l1 261h-30c-2-10 0-23-3-31C134-8 116 4 85 4 32 4 16-35 15-94c0-66 23-100 70-100zm9 24c-40 0-46 34-46 75 0 40 6 74 45 74 42 0 51-32 51-76 0-42-9-74-50-73" id="M"/><g id="e"><use transform="matrix(0.05,0,0,0.05,0,0)" xlink:href="#K"/><use transform="matrix(0.05,0,0,0.05,12.950000000000001,0)" xlink:href="#G"/><use transform="matrix(0.05,0,0,0.05,16.900000000000002,0)" xlink:href="#L"/><use transform="matrix(0.05,0,0,0.05,26.900000000000002,0)" xlink:href="#E"/><use transform="matrix(0.05,0,0,0.05,36.900000000000006,0)" xlink:href="#M"/></g><filter id="f" filterUnits="objectBoundingBox" x="-.08" y="-.05" width="1.16" height="1.16"><feOffset result="offOut" in="SourceAlpha" dy="4"/><feGaussianBlur result="blurOut" in="offOut" stdDeviation="5"/><feColorMatrix result="colorOut" in="blurOut" values="0 0 0 0 0 0 0 0 0 0 0 0 0 0 0 0 0 0 0.09803921568627451 0"/><feBlend in="SourceGraphic" in2="colorOut"/></filter><path fill="#697986" d="M398-581c6 222 109 364 330 364 220 0 331-140 331-363v-866h269v866c-5 286-141 466-350 552-142 59-358 59-500 0-210-86-349-266-349-552v-866h269v865" id="N"/><path fill="#697986" d="M519-204c146 0 246-70 241-211-6-175-195-185-333-232-183-63-339-153-333-400 5-199 120-319 272-380 126-51 311-44 437 5 72 27 133 64 184 112l-66 127c-15 40-64 51-105 25-64-41-136-87-246-85-132 3-224 54-224 182 0 167 202 176 334 227 173 67 333 144 333 381 0 227-120 364-289 433-138 56-353 39-478-16-80-35-154-80-210-138l78-129c23-34 74-43 115-13 73 54 157 112 290 112" id="O"/><path fill="#697986" d="M1058-1446v214H417v401h505v207H417v409h641V0H146v-1446h912" id="P"/><path fill="#697986" d="M1153-1030c0 232-137 352-319 413 34 19 63 47 88 83L1284 0h-242c-51 0-80-22-101-54L637-517c-24-34-42-48-98-48H424V0H155v-1446h441c324 4 557 105 557 416zm-263 20c0-163-114-229-294-228H424v480h168c180-3 298-77 298-252" id="Q"/><g id="g"><use transform="matrix(0.008888888888888885,0,0,0.008888888888888885,0,0)" xlink:href="#N"/><use transform="matrix(0.008888888888888885,0,0,0.008888888888888885,12.942222222222217,0)" xlink:href="#O"/><use transform="matrix(0.008888888888888885,0,0,0.008888888888888885,22.47999999999999,0)" xlink:href="#P"/><use transform="matrix(0.008888888888888885,0,0,0.008888888888888885,32.65777777777777,0)" xlink:href="#Q"/><use transform="matrix(0.008888888888888885,0,0,0.008888888888888885,44.302222222222206,0)" xlink:href="#O"/></g><path fill="#697986" d="M1377-1015c71 172 71 412 0 584C1271-174 1052 0 698 0H146v-1446h552c353 6 574 175 679 431zM698-214c307-9 457-198 457-509s-150-500-457-509H417v1018h281" id="R"/><path fill="#697986" d="M361-1005c121-49 297-49 417 0 184 74 298 236 298 490 0 330-178 530-506 530C241 15 61-185 61-515c0-254 115-416 300-490zm-45 492c0 201 65 338 254 338 188 0 251-137 251-338s-63-340-251-340c-189 0-254 139-254 340" id="S"/><path fill="#697986" d="M928-153C839-49 712 15 524 15c-227 0-358-131-424-305-47-123-49-306-4-434 67-190 213-318 465-318 165 0 270 58 357 143-29 37-52 81-86 112-71 26-104-41-170-55-24-5-52-12-86-12-192 5-260 143-260 339 0 194 67 336 254 342 98 3 148-38 200-79 26-20 67-17 87 9" id="T"/><path fill="#697986" d="M457 16c-234 0-346-155-346-390v-652h247v652c0 121 55 198 174 197 102-1 168-51 226-107v-742h247V0c-80-9-199 29-214-45l-17-82C697-50 608 16 457 16" id="U"/><path fill="#697986" d="M565-850c-86 0-140 48-186 99V0H132v-1026c80 9 198-29 214 45l16 76c67-72 141-136 276-137 139-1 214 86 253 192 57-117 162-192 328-192 240 0 354 147 354 389V0h-247v-653c1-123-52-197-169-197s-180 76-180 197V0H729v-653c0-127-46-197-164-197" id="V"/><path fill="#697986" d="M991-153C899-47 760 15 568 15 237 15 63-197 63-535c0-237 116-392 287-467 61-27 129-40 206-40 287 0 444 174 444 465 0 54-3 95-57 95H309c4 226 158 349 385 292 52-13 93-39 132-62 32-19 73-16 93 9zM778-631c-4-143-73-234-217-234-154 0-226 95-247 234h464" id="W"/><path fill="#697986" d="M605-850c-102 1-168 52-226 108V0H132v-1026c80 9 198-29 214 45l17 81c77-76 165-142 317-142 235 0 346 154 346 389V0H779v-653c0-121-55-198-174-197" id="X"/><path fill="#697986" d="M738-75c-64 55-158 90-269 91-176 2-277-109-277-284v-573c-65-4-153 21-153-52v-98l165-27 52-280c10-66 115-35 183-42v323h270v176H439v556c-1 59 32 101 88 102 48 1 68-25 104-34 19 1 25 9 33 22" id="Y"/><path fill="#697986" d="M1177-1061c0 181-116 262-257 314 199 45 298 152 298 322C1218-130 997 0 692 0H146v-1446h499c307 3 532 89 532 385zM952-431c0-152-108-202-265-203H415v424h273c163-1 264-65 264-221zm-43-598c0-163-94-209-264-209H415v418h215c168-1 279-50 279-209" id="Z"/><g id="h"><use transform="matrix(0.008888888888888887,0,0,0.008888888888888887,0,0)" xlink:href="#R"/><use transform="matrix(0.008888888888888887,0,0,0.008888888888888887,13.288888888888886,0)" xlink:href="#S"/><use transform="matrix(0.008888888888888887,0,0,0.008888888888888887,23.39555555555555,0)" xlink:href="#T"/><use transform="matrix(0.008888888888888887,0,0,0.008888888888888887,31.87555555555555,0)" xlink:href="#U"/><use transform="matrix(0.008888888888888887,0,0,0.008888888888888887,41.98222222222221,0)" xlink:href="#V"/><use transform="matrix(0.008888888888888887,0,0,0.008888888888888887,56.9511111111111,0)" xlink:href="#W"/><use transform="matrix(0.008888888888888887,0,0,0.008888888888888887,66.45333333333332,0)" xlink:href="#X"/><use transform="matrix(0.008888888888888887,0,0,0.008888888888888887,76.55999999999999,0)" xlink:href="#Y"/><use transform="matrix(0.008888888888888887,0,0,0.008888888888888887,83.43999999999998,0)" xlink:href="#R"/><use transform="matrix(0.008888888888888887,0,0,0.008888888888888887,96.72888888888887,0)" xlink:href="#Z"/></g><path fill="#697986" d="M381 316C185 26 60-383 122-872c35-279 131-501 259-698 44 30 96 50 134 86 16 24 12 49-3 77-164 298-252 770-142 1185 35 132 78 259 143 374 20 35 10 87-22 97" id="aa"/><path fill="#697986" d="M7-1026h196c35-1 64 19 71 46 60 241 137 465 181 722 68-246 151-481 220-724 17-60 103-44 175-46 35-1 61 20 69 46 70 242 148 477 212 725 47-256 125-482 189-723 21-78 165-35 255-46L1250 0h-199c-21 0-37-15-46-44-67-218-136-432-201-652-5-20-10-39-13-58-8 41-17 80-29 119L575-44c-9 29-27 44-54 44H332" id="ab"/><path fill="#697986" d="M395-1026V0H148v-1026h247zm-123-457c96 0 160 62 160 158 0 94-65 155-160 155-93 0-156-62-156-155 0-95 61-158 156-158" id="ac"/><path fill="#697986" d="M605-850c-102 1-168 52-226 108V0H132v-1486h247v571c76-69 161-129 301-127 234 4 346 154 346 389V0H779v-653c0-121-55-198-174-197" id="ad"/><g id="i"><use transform="matrix(0.008888888888888887,0,0,0.008888888888888887,0,0)" xlink:href="#aa"/><use transform="matrix(0.008888888888888887,0,0,0.008888888888888887,5.333333333333332,0)" xlink:href="#ab"/><use transform="matrix(0.008888888888888887,0,0,0.008888888888888887,19.395555555555553,0)" xlink:href="#ac"/><use transform="matrix(0.008888888888888887,0,0,0.008888888888888887,24.21333333333333,0)" xlink:href="#Y"/><use transform="matrix(0.008888888888888887,0,0,0.008888888888888887,31.09333333333333,0)" xlink:href="#ad"/></g><path fill="#697986" d="M376-1057c5 39 7 82 7 123V0H146v-1446c85 3 182-6 258 6 17 7 27 20 36 37l432 803c23 42 41 90 60 136 19-47 38-95 61-138l428-801c15-33 41-43 90-43h203V0h-237c1-330-2-664 1-991 1-21 3-42 5-63l-437 820c-22 44-63 63-132 59-48-3-77-26-95-59" id="ae"/><path fill="#697986" d="M247-436C153-487 80-575 80-712c0-228 174-332 407-332 92 0 169 20 230 53h295c-4 63 19 133-53 146l-92 17c30 74 25 184-9 254-72 146-265 223-484 183-51 27-68 81-20 111 145 54 395 5 528 91 60 38 108 95 104 193-8 182-136 275-286 326-172 59-444 28-556-52C83 234 32 179 32 90c0-112 77-164 166-199-49-28-87-70-84-147 4-94 65-143 133-180zm247 621c132 0 252-20 264-139-10-98-129-93-228-102-63-6-132-5-191-13-47 27-93 62-93 127 0 112 123 127 248 127zM305-706c0 111 68 168 182 168s182-56 182-168c0-107-68-165-182-165s-182 58-182 165" id="af"/><g id="j"><use transform="matrix(0.008888888888888887,0,0,0.008888888888888887,0,0)" xlink:href="#ae"/><use transform="matrix(0.008888888888888887,0,0,0.008888888888888887,16.53333333333333,0)" xlink:href="#S"/><use transform="matrix(0.008888888888888887,0,0,0.008888888888888887,26.639999999999993,0)" xlink:href="#X"/><use transform="matrix(0.008888888888888887,0,0,0.008888888888888887,36.74666666666666,0)" xlink:href="#af"/><use transform="matrix(0.008888888888888887,0,0,0.008888888888888887,45.94666666666665,0)" xlink:href="#S"/><use transform="matrix(0.008888888888888887,0,0,0.008888888888888887,56.05333333333331,0)" xlink:href="#R"/><use transform="matrix(0.008888888888888887,0,0,0.008888888888888887,69.3422222222222,0)" xlink:href="#Z"/></g><path fill="#697986" d="M1284-209C1170-69 1008 19 759 16c-347-4-553-182-649-442-66-178-66-423 6-596 108-261 330-435 688-440 220-3 375 79 488 188l-90 125c-16 32-68 39-102 12-71-55-162-101-298-96-304 11-465 201-465 510 0 241 101 401 267 477 125 58 330 39 424-24 42-17 97-111 150-54" id="ag"/><path fill="#697986" d="M635 15C514 15 442-25 379-85v420H132v-1361c64 5 145-11 192 11 33 24 28 86 42 129 78-86 174-159 331-159 277 0 379 232 379 524 0 241-96 412-258 495-54 27-116 41-183 41zm186-536c0-181-37-329-209-329-117 0-175 55-233 124v460c48 60 104 93 198 93 188 0 244-152 244-348" id="ah"/><path fill="#697986" d="M556-1045c246 0 380 151 380 397V0c-79-6-181 23-196-53l-22-73C630-49 541 18 379 16 194 13 81-77 81-262c0-184 152-247 321-292 78-21 176-31 293-34 10-155-29-262-170-262-104 0-161 40-224 77-47 28-107 5-127-31l-45-79c118-108 260-162 427-162zM317-275c-3 86 56 121 139 121 117 0 179-51 239-111v-173c-122 6-219 17-297 53-49 22-79 51-81 110" id="ai"/><path fill="#697986" d="M638 15c-134 0-208-58-269-132-10 52-5 117-71 117H135v-1486h247v586c77-79 169-142 318-142 277 0 379 230 379 521 0 241-97 412-259 495-54 27-115 41-182 41zm186-536c0-181-37-329-209-329-117 0-175 55-233 124v460c48 61 104 93 199 93 187 0 243-152 243-348" id="aj"/><path fill="#697986" d="M395-1486V0H148v-1486h247" id="ak"/><path fill="#697986" d="M496 282c-21 85-170 43-266 53L422-76 7-1026h216c39-1 60 21 70 46 80 195 164 386 238 586 7 18 10 37 14 56 74-221 164-427 244-642 9-24 36-46 68-46h198" id="al"/><path fill="#697986" d="M219-1570c196 289 321 700 259 1188-35 279-131 501-259 698-44-30-97-51-134-88-18-18-10-55 2-76 168-296 252-768 143-1184-35-133-78-260-142-375-22-41-9-79 21-97" id="am"/><g id="k"><use transform="matrix(0.008888888888888887,0,0,0.008888888888888887,0,0)" xlink:href="#ag"/><use transform="matrix(0.008888888888888887,0,0,0.008888888888888887,11.919999999999998,0)" xlink:href="#S"/><use transform="matrix(0.008888888888888887,0,0,0.008888888888888887,22.026666666666664,0)" xlink:href="#V"/><use transform="matrix(0.008888888888888887,0,0,0.008888888888888887,36.99555555555555,0)" xlink:href="#ah"/><use transform="matrix(0.008888888888888887,0,0,0.008888888888888887,47.04888888888888,0)" xlink:href="#ai"/><use transform="matrix(0.008888888888888887,0,0,0.008888888888888887,56.35555555555555,0)" xlink:href="#Y"/><use transform="matrix(0.008888888888888887,0,0,0.008888888888888887,63.23555555555555,0)" xlink:href="#ac"/><use transform="matrix(0.008888888888888887,0,0,0.008888888888888887,68.05333333333333,0)" xlink:href="#aj"/><use transform="matrix(0.008888888888888887,0,0,0.008888888888888887,78.18666666666665,0)" xlink:href="#ac"/><use transform="matrix(0.008888888888888887,0,0,0.008888888888888887,83.00444444444443,0)" xlink:href="#ak"/><use transform="matrix(0.008888888888888887,0,0,0.008888888888888887,87.82222222222221,0)" xlink:href="#ac"/><use transform="matrix(0.008888888888888887,0,0,0.008888888888888887,92.63999999999999,0)" xlink:href="#Y"/><use transform="matrix(0.008888888888888887,0,0,0.008888888888888887,99.51999999999998,0)" xlink:href="#al"/><use transform="matrix(0.008888888888888887,0,0,0.008888888888888887,109.00444444444442,0)" xlink:href="#am"/></g><path fill="#697986" d="M136-208V0H84v-208H4v-40h212v40h-80" id="an"/><path fill="#697986" d="M185-48c-13 30-37 53-82 52C43 2 14-33 14-96s30-98 90-98c62 0 83 45 84 108H66c0 31 8 55 39 56 18 0 30-7 34-22zm-45-69c5-46-57-63-70-21-2 6-4 13-4 21h74" id="ao"/><path fill="#697986" d="M25 0v-261h50V0H25" id="ap"/><path fill="#697986" d="M135-194c53 0 70 44 70 98 0 56-19 98-73 100-31 1-45-17-59-34 3 33 2 69 2 105H25l-1-265h48c2 10 0 23 3 31 11-24 29-35 60-35zM114-30c33 0 39-31 40-66 0-38-9-64-40-64-56 0-55 130 0 130" id="aq"/><path fill="#697986" d="M110-194c64 0 96 36 96 99 0 64-35 99-97 99-61 0-95-36-95-99 0-62 34-99 96-99zm-1 164c35 0 45-28 45-65 0-40-10-65-43-65-34 0-45 26-45 65 0 36 10 65 43 65" id="ar"/><path fill="#697986" d="M135-150c-39-12-60 13-60 57V0H25l-1-190h47c2 13-1 29 3 40 6-28 27-53 61-41v41" id="as"/><path fill="#697986" d="M115-3C79 11 28 4 28-45v-112H4v-33h27l15-45h31v45h36v33H77v99c-1 23 16 31 38 25v30" id="at"/><g id="l"><use transform="matrix(0.049382716049382706,0,0,0.049382716049382706,0,0)" xlink:href="#an"/><use transform="matrix(0.049382716049382706,0,0,0.049382716049382706,9.481481481481481,0)" xlink:href="#ao"/><use transform="matrix(0.049382716049382706,0,0,0.049382716049382706,19.358024691358022,0)" xlink:href="#ap"/><use transform="matrix(0.049382716049382706,0,0,0.049382716049382706,24.29629629629629,0)" xlink:href="#ao"/><use transform="matrix(0.049382716049382706,0,0,0.049382716049382706,34.172839506172835,0)" xlink:href="#aq"/><use transform="matrix(0.049382716049382706,0,0,0.049382716049382706,44.987654320987644,0)" xlink:href="#ar"/><use transform="matrix(0.049382716049382706,0,0,0.049382716049382706,55.80246913580246,0)" xlink:href="#as"/><use transform="matrix(0.049382716049382706,0,0,0.049382716049382706,62.71604938271604,0)" xlink:href="#at"/></g><path fill="#697986" d="M24-248c120-7 223 5 221 122C244-46 201 0 124 0H24v-248zM76-40c74 7 117-18 117-86 0-67-45-88-117-82v168" id="au"/><path fill="#697986" d="M133-34C117-15 103 5 69 4 32 3 11-16 11-54c-1-60 55-63 116-61 1-26-3-47-28-47-18 1-26 9-28 27l-52-2c7-38 36-58 82-57s74 22 75 68l1 82c-1 14 12 18 25 15v27c-30 8-71 5-69-32zm-48 3c29 0 43-24 42-57-32 0-66-3-65 30 0 17 8 27 23 27" id="av"/><path fill="#697986" d="M135-194c52 0 70 43 70 98 0 56-19 99-73 100-30 1-46-15-58-35L72 0H24l1-261h50v104c11-23 29-37 60-37zM114-30c31 0 40-27 40-66 0-37-7-63-39-63s-41 28-41 65c0 36 8 64 40 64" id="aw"/><path fill="#697986" d="M137-138c1-29-70-34-71-4 15 46 118 7 119 86 1 83-164 76-172 9l43-7c4 19 20 25 44 25 33 8 57-30 24-41C81-84 22-81 20-136c-2-80 154-74 161-7" id="ax"/><g id="m"><use transform="matrix(0.049382716049382706,0,0,0.049382716049382706,0,0)" xlink:href="#au"/><use transform="matrix(0.049382716049382706,0,0,0.049382716049382706,12.790123456790122,0)" xlink:href="#av"/><use transform="matrix(0.049382716049382706,0,0,0.049382716049382706,22.666666666666664,0)" xlink:href="#at"/><use transform="matrix(0.049382716049382706,0,0,0.049382716049382706,28.543209876543205,0)" xlink:href="#av"/><use transform="matrix(0.049382716049382706,0,0,0.049382716049382706,38.419753086419746,0)" xlink:href="#aw"/><use transform="matrix(0.049382716049382706,0,0,0.049382716049382706,49.234567901234556,0)" xlink:href="#av"/><use transform="matrix(0.049382716049382706,0,0,0.049382716049382706,59.1111111111111,0)" xlink:href="#ax"/><use transform="matrix(0.049382716049382706,0,0,0.049382716049382706,68.98765432098764,0)" xlink:href="#ao"/></g><path fill="#697986" d="M169-182c-1-43-94-46-97-3 18 66 151 10 154 114 3 95-165 93-204 36-6-8-10-19-12-30l50-8c3 46 112 56 116 5-17-69-150-10-154-114-4-87 153-88 188-35 5 8 8 18 10 28" id="ay"/><path fill="#697986" d="M128 0H69L1-190h53L99-40l48-150h52" id="az"/><path fill="#697986" d="M25-224v-37h50v37H25zM25 0v-190h50V0H25" id="aA"/><path fill="#697986" d="M190-63c-7 42-38 67-86 67-59 0-84-38-90-98-12-110 154-137 174-36l-49 2c-2-19-15-32-35-32-30 0-35 28-38 64-6 74 65 87 74 30" id="aB"/><g id="n"><use transform="matrix(0.049382716049382706,0,0,0.049382716049382706,0,0)" xlink:href="#ay"/><use transform="matrix(0.049382716049382706,0,0,0.049382716049382706,11.85185185185185,0)" xlink:href="#ao"/><use transform="matrix(0.049382716049382706,0,0,0.049382716049382706,21.728395061728392,0)" xlink:href="#as"/><use transform="matrix(0.049382716049382706,0,0,0.049382716049382706,28.64197530864197,0)" xlink:href="#az"/><use transform="matrix(0.049382716049382706,0,0,0.049382716049382706,38.51851851851851,0)" xlink:href="#aA"/><use transform="matrix(0.049382716049382706,0,0,0.049382716049382706,43.456790123456784,0)" xlink:href="#aB"/><use transform="matrix(0.049382716049382706,0,0,0.049382716049382706,53.333333333333336,0)" xlink:href="#ao"/></g><filter id="o" filterUnits="objectBoundingBox" x="-.08" y="-.05" width="1.16" height="1.16"><feOffset result="offOut" in="SourceAlpha" dy="4"/><feGaussianBlur result="blurOut" in="offOut" stdDeviation="5"/><feColorMatrix result="colorOut" in="blurOut" values="0 0 0 0 0.047335640138408304 0 0 0 0 0.028050749711649364 0 0 0 0 0.11746251441753172 0 0 0 0.14901960784313725 0"/><feBlend in="SourceGraphic" in2="colorOut"/></filter><path fill="#697986" d="M1165-1446v221H730V0H461v-1225H24v-221h1141" id="aC"/><path fill="#697986" d="M604-806c-122 5-180 74-225 167V0H132v-1026c83 11 206-35 218 62l15 124c63-106 147-205 295-205 51 0 93 12 126 35l-32 185c-4 23-15 33-40 33-33 0-65-16-110-14" id="aD"/><g id="p"><use transform="matrix(0.008888888888888885,0,0,0.008888888888888885,0,0)" xlink:href="#aC"/><use transform="matrix(0.008888888888888885,0,0,0.008888888888888885,8.764444444444441,0)" xlink:href="#W"/><use transform="matrix(0.008888888888888885,0,0,0.008888888888888885,18.26666666666666,0)" xlink:href="#ak"/><use transform="matrix(0.008888888888888885,0,0,0.008888888888888885,23.084444444444436,0)" xlink:href="#W"/><use transform="matrix(0.008888888888888885,0,0,0.008888888888888885,32.58666666666666,0)" xlink:href="#ah"/><use transform="matrix(0.008888888888888885,0,0,0.008888888888888885,42.639999999999986,0)" xlink:href="#S"/><use transform="matrix(0.008888888888888885,0,0,0.008888888888888885,52.74666666666665,0)" xlink:href="#aD"/><use transform="matrix(0.008888888888888885,0,0,0.008888888888888885,60.00888888888887,0)" xlink:href="#Y"/></g><path fill="#697986" d="M1417 0h-208c-47 1-77-28-90-61l-108-295H412L304-61c-11 30-46 61-89 61H6l568-1446h275zM481-546h461c-77-218-163-424-231-651-66 230-154 432-230 651" id="aE"/><path fill="#697986" d="M218 3c-22 53-63 92-132 92H-18l584-1494c20-51 60-86 126-87h105" id="aF"/><path fill="#697986" d="M1187-985c0 329-222 471-561 476H424V0H155v-1446h471c337 4 561 134 561 461zm-269 0c0-176-112-253-292-253H424v519h202c184-1 292-85 292-266" id="aG"/><path fill="#697986" d="M375-529L38-1026h238c37 0 48 9 63 32l215 343c8-25 17-47 31-68l173-270c15-21 26-37 57-37h227L704-540 1056 0H818c-37 1-57-23-71-46L529-403c-6 24-14 44-25 60L312-46c-14 20-33 47-67 46H24" id="aH"/><g id="q"><use transform="matrix(0.008888888888888885,0,0,0.008888888888888885,0,0)" xlink:href="#aE"/><use transform="matrix(0.008888888888888885,0,0,0.008888888888888885,12.622222222222216,0)" xlink:href="#U"/><use transform="matrix(0.008888888888888885,0,0,0.008888888888888885,22.72888888888888,0)" xlink:href="#Y"/><use transform="matrix(0.008888888888888885,0,0,0.008888888888888885,29.608888888888877,0)" xlink:href="#ad"/><use transform="matrix(0.008888888888888885,0,0,0.008888888888888885,39.71555555555554,0)" xlink:href="#aF"/><use transform="matrix(0.008888888888888885,0,0,0.008888888888888885,46.595555555555535,0)" xlink:href="#aG"/><use transform="matrix(0.008888888888888885,0,0,0.008888888888888885,57.70666666666664,0)" xlink:href="#aD"/><use transform="matrix(0.008888888888888885,0,0,0.008888888888888885,64.96888888888886,0)" xlink:href="#S"/><use transform="matrix(0.008888888888888885,0,0,0.008888888888888885,74.5422222222222,0)" xlink:href="#aH"/><use transform="matrix(0.008888888888888885,0,0,0.008888888888888885,84.14222222222219,0)" xlink:href="#al"/></g><path fill="#697986" d="M646 0H422L14-1026h205c36-1 62 20 71 46 75 215 159 421 226 642 9 30 15 61 21 92 13-66 27-126 50-186l203-548c9-25 34-46 68-46h195" id="aI"/><g id="r"><use transform="matrix(0.008888888888888885,0,0,0.008888888888888885,0,0)" xlink:href="#O"/><use transform="matrix(0.008888888888888885,0,0,0.008888888888888885,9.537777777777775,0)" xlink:href="#W"/><use transform="matrix(0.008888888888888885,0,0,0.008888888888888885,19.039999999999992,0)" xlink:href="#aD"/><use transform="matrix(0.008888888888888885,0,0,0.008888888888888885,26.302222222222213,0)" xlink:href="#aI"/><use transform="matrix(0.008888888888888885,0,0,0.008888888888888885,35.786666666666655,0)" xlink:href="#ac"/><use transform="matrix(0.008888888888888885,0,0,0.008888888888888885,40.604444444444425,0)" xlink:href="#T"/><use transform="matrix(0.008888888888888885,0,0,0.008888888888888885,49.08444444444442,0)" xlink:href="#W"/></g></defs></g></svg>