<svg id="Layer_1" xmlns="http://www.w3.org/2000/svg" version="1.1" viewBox="0 0 1217 436.1"><defs><linearGradient id="linear-gradient" x1="699.9" y1="1079" x2="699.9" y2="982" gradientTransform="translate(-160 -691.9)" gradientUnits="userSpaceOnUse"><stop offset="0" stop-color="#32bedd"/><stop offset=".2" stop-color="#32caea"/><stop offset=".4" stop-color="#32d2f2"/><stop offset=".8" stop-color="#32d4f5"/></linearGradient><style>.st0,.st1{fill:none}.st4{fill:#512fc9}.st7{fill:#74ff80}.st1,.st8{stroke:#3a414a}.st8,.st9{fill:#3a414a}.st13{fill:#0078d7}.st14{fill:#333}</style></defs><path d="M-160-49.9h1500v500H-160v-500Z" style="fill:#fff"/><path d="M744.5 31c0-5.5 4.5-10 10-10h132c5.5 0 10 4.5 10 10v136c0 5.5-4.5 10-10 10h-132c-5.5 0-10-4.5-10-10V31Z" style="fill:#fff;stroke:#ced4db;stroke-width:2px"/><path class="st0" d="M744.5 183c0-3.3 2.7-6 6-6h140c3.3 0 6 2.7 6 6v81.8c0 3.3-2.7 6-6 6h-140c-3.3 0-6-2.7-6-6V183Z"/><path class="st4" d="M786 189.6v12.8h-3.2v-12.8h-4.9v-2.5H791v2.5h-5Z"/><path id="b" class="st4" d="M800.9 199.4c-.8 1.9-2.3 3.3-5.1 3.2-3.7-.1-5.5-2.3-5.5-6.2s1.9-6 5.6-6 5.1 2.8 5.2 6.7h-7.5c0 1.9.5 3.4 2.4 3.5 1.1 0 1.9-.4 2.1-1.4l2.8.2Zm-2.8-4.2c.3-2.8-3.5-3.9-4.3-1.3 0 .4-.2.8-.2 1.3h4.6Z"/><path class="st4" d="M803.4 202.4v-16.1h3.1v16.1h-3.1Z"/><path id="b1" class="st4" d="M819.4 199.4c-.8 1.9-2.3 3.3-5.1 3.2-3.7-.1-5.5-2.3-5.5-6.2s1.9-6 5.6-6 5.1 2.8 5.2 6.7h-7.5c0 1.9.5 3.4 2.4 3.5 1.1 0 1.9-.4 2.1-1.4l2.8.2Zm-2.8-4.2c.3-2.8-3.5-3.9-4.3-1.3 0 .4-.2.8-.2 1.3h4.6Z"/><path class="st4" d="M828.7 190.4c3.3 0 4.3 2.7 4.3 6s-1.2 6-4.5 6.2c-1.9 0-2.8-1-3.6-2.1.2 2 0 4.3 0 6.5h-3.1v-16.4h2.9c0 .6 0 1.4.2 1.9.7-1.5 1.8-2.2 3.7-2.2Zm-1.3 10.2c2 0 2.4-1.9 2.5-4.1 0-2.3-.6-4-2.5-4-3.5 0-3.4 8 0 8"/><path id="c" class="st4" d="M840.7 190.4c4 0 5.9 2.2 5.9 6.1s-2.2 6.1-6 6.1-5.9-2.2-5.9-6.1 2.1-6.1 5.9-6.1Zm-.1 10.2c2.2 0 2.8-1.7 2.8-4s-.6-4-2.7-4-2.8 1.6-2.8 4 .6 4 2.7 4"/><path id="d" class="st4" d="M855.7 193.1c-2.4-.7-3.7.8-3.7 3.5v5.7h-3.1v-11.7h2.8c0 .8 0 1.8.2 2.5.4-1.7 1.7-3.3 3.8-2.5v2.5Z"/><path id="e" class="st4" d="M863.1 202.2c-2.2.9-5.4.4-5.4-2.6v-6.9h-1.5v-2h1.7l.9-2.8h1.9v2.8h2.2v2h-2.2v6.1c0 1.4 1 1.9 2.3 1.5v1.9Z"/><path class="st4" d="M762.9 213.8c5.7 0 12.7-1 12.6 4.9 0 4.6-4.3 5.4-9.4 5.1v5.4h-3.2v-15.3Zm3.2 7.4c2.9 0 6.2.4 6.2-2.5s-3.3-2.4-6.2-2.4v4.9Z"/><path id="d1" class="st4" d="M784.5 219.8c-2.4-.7-3.7.8-3.7 3.5v5.7h-3.1v-11.7h2.8c0 .8 0 1.8.2 2.5.4-1.7 1.7-3.3 3.8-2.5v2.5Z"/><path id="c1" class="st4" d="M791.6 217.1c4 0 5.9 2.2 5.9 6.1s-2.2 6.1-6 6.1-5.9-2.2-5.9-6.1 2.1-6.1 5.9-6.1Zm0 10.1c2.2 0 2.8-1.7 2.8-4s-.6-4-2.7-4-2.8 1.6-2.8 4 .6 4 2.7 4"/><path class="st4" d="m807.3 229.1-2.7-4.3-2.8 4.3h-3.3l4.3-6-4.1-5.7h3.3l2.5 3.8 2.5-3.8h3.3l-4.1 5.6 4.4 6.1h-3.3ZM818.3 229.7c-.9 2.7-2.7 4.7-6.4 3.8v-2.2c2.2.5 3.3-.7 3.6-2.4l-4.6-11.6h3.2l3 9.1c.7-3.2 1.7-6.2 2.7-9.1h3.1M823.3 229.5l3.1-16.5h2.6l-3.1 16.5h-2.6ZM841.5 229.1l-1.4-3.9h-5.8l-1.4 3.9h-3.2l5.6-15.3h3.8l5.6 15.3h-3.2Zm-2-6.3-2.2-6.7c-.6 2.3-1.5 4.4-2.2 6.7h4.4ZM850.5 229.3c-5.4 0-3.6-7-3.9-12h3.1c.4 3.5-1.4 9.3 2 9.7 3.7-.3 2.2-6 2.5-9.7h3.1V229h-2.8c0-.7 0-1.7-.2-2.3-.7 1.5-1.7 2.6-3.8 2.6"/><path id="e1" class="st4" d="M865.8 228.9c-2.2.9-5.4.4-5.4-2.6v-6.9h-1.5v-2h1.7l.9-2.8h1.9v2.8h2.2v2h-2.2v6.1c0 1.4 1 1.9 2.3 1.5v1.9Z"/><path class="st4" d="M873.1 219.4c-3.6 0-2.1 6-2.4 9.7h-3.1V213h3.1v6.7c.7-1.6 1.7-2.5 3.7-2.6 5.3 0 3.6 7 3.9 12h-3.1c-.4-3.5 1.4-9.7-2.1-9.7M791.4 244.5c0-2.7-5.8-2.8-6-.2 1.1 4.1 9.3.6 9.5 7 .2 5.9-10.2 5.7-12.6 2.2-.4-.5-.6-1.2-.7-1.9l3.1-.5c.2 2.8 6.9 3.5 7.2.3-1-4.3-9.3-.6-9.5-7-.2-5.4 9.4-5.4 11.6-2.2.3.5.5 1.1.6 1.7"/><path id="b2" class="st4" d="M807.2 252.8c-.8 1.9-2.3 3.3-5.1 3.2-3.7-.1-5.5-2.3-5.5-6.2s1.9-6 5.6-6 5.1 2.8 5.2 6.7h-7.5c0 1.9.5 3.4 2.4 3.5 1.1 0 1.9-.4 2.1-1.4l2.8.2Zm-2.7-4.3c.3-2.8-3.5-3.9-4.3-1.3 0 .4-.2.8-.2 1.3h4.6Z"/><path id="d2" class="st4" d="M816.5 246.5c-2.4-.7-3.7.8-3.7 3.5v5.7h-3.1V244h2.8c0 .8 0 1.8.2 2.5.4-1.7 1.7-3.3 3.8-2.5v2.5Z"/><path class="st4" d="M824.7 255.7h-3.6l-4.2-11.7h3.3l2.8 9.3 3-9.3h3.2M830.7 241.9v-2.3h3.1v2.3h-3.1Zm0 13.8V244h3.1v11.7h-3.1ZM847 251.8c-.4 2.6-2.3 4.1-5.3 4.1s-5.2-2.3-5.6-6c-.7-6.8 9.5-8.5 10.7-2.2h-3c0-1-.9-1.9-2.2-1.9-1.9 0-2.2 1.7-2.3 4-.4 4.6 4 5.4 4.6 1.9"/><path id="b3" class="st4" d="M859.1 252.8c-.8 1.9-2.3 3.3-5.1 3.2-3.7-.1-5.5-2.3-5.5-6.2s1.9-6 5.6-6 5.1 2.8 5.2 6.7h-7.5c0 1.9.5 3.4 2.4 3.5 1.1 0 1.9-.4 2.1-1.4l2.8.2Zm-2.8-4.3c.3-2.8-3.5-3.9-4.3-1.3 0 .4-.2.8-.2 1.3h4.6Z"/><path class="st13" d="M1120.5 21c-41.9 0-76 34.9-76 78s34.1 78 76 78 76-34.9 76-78-33.9-78-76-78Zm20.1 145.7v-13.1c0-5.3-2.9-9.8-6.8-12.8h.8c7.3-.8 13.5-3.1 13.5-3.1s9.3-3 14.4-9.1c5.3-6.7 6.8-16.1 6.8-16.1s1.5-10.3 0-18.6c-1.5-7.6-7.6-13.4-7.6-13.4s2-5.5 1.7-10.8c0-5.3-2.4-10.6-2.4-10.6s-4.4-.5-9.3 1.6c-5.6 2.5-12 7-12 7s-4.4-1.6-9.6-2c-4.7-.9-10.3-.9-10.3-.9s-5.6 0-10.5.9c-5.2.8-9.6 2-9.6 2s-6.4-4.5-12-7c-4.7-2-9.1-1.6-9.1-1.6s-2.4 5.3-2.4 10.6 1.5 10.8 1.5 10.8-5.5 5.3-7.4 13.4c-2.1 8.3 0 18.6 0 18.6s1.1 9.4 6.7 16.1c5.3 6.1 14.4 9.1 14.4 9.1s6.4 2.3 13.5 3.1h1.2c-2.7 3-5.6 7.5-5.6 12.8v13.1c-28.3-8.6-48.8-35.7-48.8-67.7s30.9-70.5 68.9-70.5 69.3 31.5 69.3 70.5-20.8 59.1-49.2 67.7Z"/><path d="M1087.7 196.1c0 3.3 1.4 5.4 4.6 5.4s3.3-.4 4.2-1.3v-2.1h-3.7v-2.4h6.7v5.6c-1.6 1.6-4.1 2.7-7.3 2.7-5.1 0-7.4-2.8-7.7-8-.4-6.9 6.9-9.6 12.3-6.7 1.2.6 1.8 1.6 2.3 2.9l-2.9.9c-.7-1.4-1.8-2.4-3.9-2.4-3.3 0-4.6 2-4.6 5.3M1102.4 190v-2.3h3.1v2.3h-3.1Zm0 13.8v-11.7h3.1v11.7h-3.1ZM1114.1 203.6c-2.2.9-5.4.4-5.4-2.6v-6.9h-1.5v-2h1.7l.9-2.8h1.9v2.8h2.2v2h-2.2v6.1c0 1.4 1 1.9 2.3 1.5v1.9ZM1125.9 203.8v-6.5h-6.8v6.5h-3.2v-15.3h3.2v6.1h6.8v-6.1h3.1v15.3h-3.1ZM1135.6 204c-5.4 0-3.6-7-3.9-12h3.1c.4 3.5-1.4 9.3 2 9.7 3.7-.3 2.2-6 2.5-9.7h3.1v11.7h-2.8c0-.7 0-1.7-.2-2.3-.7 1.5-1.7 2.6-3.8 2.6M1152.2 191.8c3.2 0 4.3 2.7 4.3 6s-1.2 6.1-4.5 6.2c-1.9 0-2.8-.9-3.6-2.2v1.9h-3.1v-16.1h3.1v6.4c.7-1.4 1.8-2.3 3.7-2.3Zm-1.3 10.1c1.9 0 2.5-1.7 2.5-4.1s-.4-3.9-2.4-3.9-2.5 1.7-2.5 4 .5 4 2.5 4"/><path class="st8" d="M480 64.6c0-4.4 3.6-8 8-8h111.5c4.4 0 8 3.6 8 8v68.8c0 4.4-3.6 8-8 8H488c-4.4 0-8-3.6-8-8V64.6Z"/><g id="g"><path id="f" class="st7" d="M501.9 94v-2.5l9-3.5-9-3.5V82l11.2 4.3v3.5"/></g><path class="st7" d="M527.2 95.2c-2.2.9-5.4.4-5.4-2.6v-6.9h-1.5v-2h1.7l.9-2.8h1.9v2.8h2.2v2h-2.2v6.1c0 1.4 1 1.9 2.3 1.5v1.9ZM535.9 86.9c0-1.8-4.3-2.1-4.4-.2.9 2.8 7.3.4 7.3 5.3s-10.1 4.7-10.6.6l2.7-.4c.2 1.2 1.2 1.5 2.7 1.5 2 .5 3.5-1.9 1.5-2.5-2.7-.9-6.3-.7-6.4-4.1 0-4.9 9.5-4.6 9.9-.4M546.9 85.7c-3.6 0-2.1 6-2.4 9.7h-3.1V79.3h3.1V86c.7-1.6 1.7-2.5 3.7-2.6 5.3 0 3.6 7 3.9 12H549c-.4-3.5 1.4-9.7-2.1-9.7"/><path d="M480 315.8h120V383c0 2.3-1.8 4.1-4 4.1H483.9c-2.2 0-4-1.8-4-4.1v-67.2h.1Z" style="fill:url(#linear-gradient)"/><path d="M484.1 290.1h112c2.2 0 4 1.8 4 4v21.7h-120v-21.7c0-2.2 1.8-4 4-4h.1Z" style="fill:#0078d4"/><path d="M498.2 297.8h83.7c1.3 0 2 .7 2 2v6.3c0 1.4-.7 2-2 2h-83.7c-1.3 0-2-.7-2-2v-6.3c0-1.3.7-2 2-2Z" style="fill:#f2f2f2"/><path d="M509.2 405.8c2.2.3 3.8 1.4 3.8 3.8 0 5.4-6.5 4.2-11.8 4.3v-15.3c4.7.2 10.9-1 10.9 3.7s-1.2 3.1-2.9 3.5Zm-6-.7c3.1 0 6.8.6 6.8-2.6s-3.9-2.2-6.8-2.3v4.9Zm0 7.1c3.4-.1 7.7.9 7.7-2.8s-4.3-2.6-7.7-2.7v5.5Z"/><path id="i" d="M521.2 403.8c-4.8-1-3.3 5.6-3.5 10.1h-2v-11.7h1.8v2.4c.4-1.7 1.4-3 3.6-2.5v1.8Z"/><path id="j" d="M527.7 401.9c3.8 0 5.2 2.3 5.2 6.1s-1.7 6.1-5.3 6.1-5.1-2.4-5.2-6.1c0-4.1 1.7-6.1 5.2-6.1Zm-.1 10.8c2.7 0 3.3-1.9 3.3-4.6s-.5-4.6-3.1-4.6-3.3 2-3.3 4.6.6 4.6 3.1 4.6"/><path d="M546.6 413.9h-2.2l-2.5-10.1-2.5 10.1h-2.2l-3.3-11.7h2l2.4 10.1 2.7-10.1h2.1l2.5 10.1 2.6-10.1h1.9"/><path id="k" d="M558.2 405.1c-.2-2.1-5.3-2.3-5.4 0 .9 3.3 7.1.7 7.3 5.6s-9.3 4.6-9.7.5l1.7-.3c.2 2.2 6 2.8 6 0-.6-3.5-7-.9-7.3-5.6-.2-3.5 5.1-3.9 7.5-2.6.7.4 1.3 1.2 1.5 2.2"/><path id="l" d="M567.1 401.9c3.9 0 5.3 2.6 5.2 6.5H564c0 2.5.9 4.1 3.3 4.2 1.6 0 2.7-.7 3-1.8l1.7.5c-.7 1.7-2.3 2.8-4.8 2.8-3.6 0-5.4-2.3-5.4-6.2s1.6-6 5.2-6Zm3.2 5c.4-3.7-4.7-4.8-6-1.7s-.4 1-.4 1.7h6.4Z"/><path id="i1" d="M580.3 403.8c-4.8-1-3.3 5.6-3.5 10.1h-2v-11.7h1.8v2.4c.4-1.7 1.4-3 3.6-2.5v1.8Z"/><path class="st1" d="M898 99h132"/><path class="st9" d="M898 99.5h-.5v-.9h.5v.9Z"/><path class="st8" d="m1043.5 99-13 7.5v-15l13 7.5Z"/><path class="st1" d="M608.5 99h118.6"/><path class="st9" d="M608.5 99.5h-.5v-.9h.5v.9Z"/><path class="st8" d="m741.9 99-14.3 4.6v-9.3l14.3 4.6Z"/><path class="st1" d="M600.5 338.6H1114c3.3 0 6-2.7 6-6V226.5"/><path class="st9" d="M600.5 339.1h-.5v-1h.5v1Z"/><path class="st8" d="m1120 211.7 4.6 14.3h-9.3l4.6-14.3h.1Z"/><path class="st13" d="m361.3 92-52.4-52.8c-3-2.9-7.7-2.9-10.4 0L287 50.5l13.7 13.7c.8-.4 2-.6 3.2-.6 5 0 9.1 4.1 9.1 9.1s-.2 2.4-.6 3.4l13.3 13.3c.8-.3 2.2-.6 3.2-.6 5 0 9.2 4.1 9.2 9.1s-4.2 9.3-9.2 9.3-9.1-4.2-9.1-9.2.2-2.4.6-3.2l-12.5-12.5v32.6c3 1.4 5 4.7 5 8.1 0 5-4.1 9.1-9.1 9.1s-9.2-4.1-9.2-9.1 2.4-7.2 6-8.6V81.2c-3.6-1.1-6-4.7-6-8.5s.4-2.4.6-3.2l-13.6-13.7-35.9 36.5c-3 2.9-3 7.7 0 10.3l52.4 52.5c3 3 7.7 3 10.3 0l52.4-52.4c3.4-2.9 3.4-7.7.4-10.3V92Z"/><path id="m" d="M242.1 184c-5.1 0-7.5-3-7.7-8-.3-6.6 6.2-9.5 11.9-6.9 1 .5 1.8 1.5 2.3 2.7l-2 .6c-.8-1.5-2.3-2.5-4.7-2.5-3.8 0-5.4 2.4-5.4 6.1s1.8 6.2 5.6 6.2 3.8-.7 4.9-1.7v-2.8h-4.6V176h6.5v5.3c-1.5 1.5-3.8 2.6-6.8 2.6"/><path id="n" d="M252 169.5v-1.9h2v1.9h-2Zm0 14.3v-11.7h2v11.7h-2Z"/><path id="o" d="M259.1 180.9c-.1 1.5 1.1 1.8 2.3 1.4v1.5c-2 .6-4.3.3-4.3-2.4v-7.8h-1.4v-1.4h1.5l.6-2.7h1.3v2.7h2.2v1.4h-2.2v7.4Z"/><path d="M282.1 172.9c0 2.5-1.4 4-3.7 4.3l4.3 6.6h-2.3l-4-6.4h-4.8v6.4h-2v-15.3c5.4.2 12.7-1.3 12.5 4.4Zm-10.5 2.9c3.7-.1 8.5.8 8.5-2.9s-4.9-2.6-8.5-2.8v5.7Z"/><path id="l1" d="M289.9 171.8c3.9 0 5.3 2.6 5.2 6.5h-8.3c0 2.5.9 4.1 3.3 4.2 1.6 0 2.7-.7 3-1.8l1.7.5c-.7 1.7-2.3 2.8-4.8 2.8-3.6 0-5.4-2.3-5.4-6.2s1.6-6 5.2-6Zm3.2 5c.4-3.7-4.7-4.8-6-1.7s-.4 1-.4 1.7h6.4Z"/><path id="p" d="M303.2 171.8c3.4 0 4.3 2.5 4.3 6s-1 6-4.3 6.2c-1.9 0-3-.8-3.7-2.1v6.5h-1.9V172h1.9v1.9c.7-1.3 1.9-2.1 3.8-2.1Zm-.5 10.7c2.5 0 2.8-2.1 2.8-4.6s-.4-4.5-2.8-4.6c-2.6 0-3.1 2-3.1 4.7s.6 4.5 3.1 4.5"/><path id="j1" d="M314.6 171.8c3.8 0 5.2 2.3 5.2 6.1s-1.7 6.1-5.3 6.1-5.1-2.4-5.2-6.1c0-4.1 1.7-6.1 5.2-6.1Zm-.1 10.7c2.7 0 3.3-1.9 3.3-4.6s-.5-4.6-3.1-4.6-3.3 2-3.3 4.6.6 4.6 3.1 4.6"/><path id="k1" d="M329.1 175c-.2-2.1-5.3-2.3-5.4 0 .9 3.3 7.1.7 7.3 5.6s-9.3 4.6-9.7.5l1.7-.3c.2 2.2 6 2.8 6 0-.6-3.5-7-.9-7.3-5.6-.2-3.5 5.1-3.9 7.5-2.6.7.4 1.3 1.2 1.5 2.2"/><path id="n1" d="M333.4 169.5v-1.9h2v1.9h-2Zm0 14.3v-11.7h2v11.7h-2Z"/><path id="o1" d="M340.4 180.9c-.1 1.5 1.1 1.8 2.3 1.4v1.5c-2 .6-4.3.3-4.3-2.4v-7.8H337v-1.4h1.5l.6-2.7h1.3v2.7h2.2v1.4h-2.2v7.4Z"/><path id="j2" d="M349.1 171.8c3.8 0 5.2 2.3 5.2 6.1s-1.7 6.1-5.3 6.1-5.1-2.4-5.2-6.1c0-4.1 1.7-6.1 5.2-6.1Zm0 10.7c2.7 0 3.3-1.9 3.3-4.6s-.5-4.6-3.1-4.6-3.3 2-3.3 4.6.6 4.6 3.1 4.6"/><path id="i2" d="M362.3 173.7c-4.8-1-3.3 5.6-3.5 10.1h-2v-11.7h1.8c0 .7 0 1.8.1 2.4.4-1.7 1.4-3 3.6-2.5v1.8Z"/><path d="m373.7 172-5.3 13.6c-.9 1.7-2.3 3.1-5 2.6v-1.5c2.4.4 3.3-1.2 4-3.1l-4.6-11.7h2.1l3.5 9.6 3.3-9.6h2Z"/><path class="st1" d="M364 96.9h99.1"/><path class="st9" d="M364 97.4h-.5v-.9h.5v.9Z"/><path class="st8" d="m477.9 96.9-14.3 4.6v-9.3l14.3 4.6Z"/><path class="st1" d="M543.8 142.4v131.4"/><path class="st9" d="M544.2 142.4h-1v-.5h1v.5Z"/><path class="st8" d="m543.8 288.5-4.6-14.3h9.3l-4.6 14.3h-.1Z"/><path d="m60 38.5 23.4 17.4v4.7c0 12.3-10.5 22.3-23.4 22.3s-23.4-10-23.4-22.3v-4.7L60 38.5Zm13.3 50.6c14.8 0 26.7 8.6 26.7 22.5v28.1H84.6V120H82v19.7H38.5V120h-2.6v19.7H20.1v-28.1c0-13.9 11.9-22.5 26.7-22.5h26.6Z" style="fill:#7d7c7c"/><path d="M60 33.8c12.8 0 23.1 10.1 23 22.3s-10.6 22.1-23.4 22c-12.7 0-22.9-9.9-23-22.1 0-12.2 10.5-22.2 23.3-22.2h.1Zm13.3 50.6c14.8 0 26.7 8.6 26.7 22.5V135H84.6v-19.8H82V135H38.5v-19.8h-2.6V135H20.1v-28.1C20.1 93 32 84.4 46.8 84.4h26.6Z" style="fill:#d2d3d3"/><path class="st14" d="M50.9 151.8c0 4-2.5 6-6.4 6s-6.2-2-6.2-5.8v-9.8h2c.5 5.5-2 13.8 4.1 13.8s4-8.2 4.4-13.8h2v9.6h.1ZM60.9 148.7c-.2-2.1-5.3-2.3-5.4 0 .9 3.3 7.1.7 7.3 5.6s-9.3 4.6-9.7.5l1.7-.3c.2 2.2 6 2.8 6 0-.6-3.5-7-.9-7.3-5.6-.2-3.5 5.1-3.9 7.5-2.6.7.4 1.3 1.2 1.5 2.2M69.9 145.6c3.9 0 5.3 2.6 5.2 6.5h-8.3c0 2.5.9 4.1 3.3 4.2 1.6 0 2.7-.7 3-1.8l1.7.5c-.7 1.7-2.3 2.8-4.8 2.8-3.6 0-5.4-2.3-5.4-6.2s1.6-6 5.2-6h.1Zm3.2 5c.4-3.7-4.7-4.8-6-1.7s-.4 1-.4 1.7h6.4ZM83.1 147.5c-4.8-1-3.3 5.6-3.5 10.1h-2v-11.7h1.8v2.4c.4-1.7 1.4-3 3.6-2.5v1.8Z"/><path class="st0" d="M840 103c0-3.3 2.7-6 6-6h228c3.3 0 6 2.7 6 6v48c0 3.3-2.7 6-6 6H846c-3.3 0-6-2.7-6-6v-48Z"/><path id="q" d="M926.8 110.6c-.2-2.4-6.1-2.7-6.1 0 .7 3.7 7.8.7 8 5.9 0 3.9-6 4.3-8.6 2.7-.8-.5-1.4-1.3-1.6-2.3l1.6-.3c.2 2.8 7 3.1 7 0s-7.7-.7-8-5.8c-.2-4 7.2-4.1 8.8-1.7.2.3.4.8.5 1.2"/><path id="r" d="M934.7 111.5c-3.6 0-2.2 5-2.4 8.3h-1.6v-12.9h1.6v5.1c.5-1 1.3-1.8 3-1.8 4.4 0 2.6 5.7 3 9.6h-1.6v-6c0-1.6-.4-2.4-1.9-2.4"/><path id="j3" d="M944.3 110.3c3.1 0 4.2 1.8 4.2 4.9s-1.3 4.9-4.2 4.9-4.1-1.9-4.1-4.9 1.4-4.9 4.2-4.9h-.1Zm-.1 8.6c2.2 0 2.6-1.5 2.6-3.7s-.4-3.7-2.5-3.7-2.6 1.6-2.6 3.7.5 3.7 2.5 3.7"/><path id="i3" d="M954.9 111.8c-3.9-.8-2.6 4.5-2.8 8h-1.6v-9.4h1.4v1.9c.3-1.3 1.1-2.4 2.9-2v1.4Z"/><path id="o2" d="M958 117.6c0 1.2.9 1.4 1.9 1.1v1.2c-1.6.5-3.5.2-3.5-1.9v-6.3h-1.1v-1.1h1.2l.4-2.1h1v2.1h1.7v1.1h-1.7v5.9Z"/><path d="M960.8 115.8v-1.4h4.3v1.4h-4.3ZM967.1 119.9V107h1.6v12.9h-1.6Z"/><path id="n2" d="M971 108.5V107h1.6v1.5H971Zm0 11.4v-9.4h1.6v9.4H971Z"/><path id="s" d="M979.1 119.9h-1.9l-3.4-9.4h1.7l2.7 8.1 2.8-8.1h1.7"/><path id="l2" d="M987.6 110.3c3.1 0 4.2 2.1 4.1 5.2H985c0 2 .7 3.3 2.6 3.4 1.3 0 2.1-.6 2.4-1.4l1.4.4c-.5 1.4-1.8 2.2-3.8 2.2-2.9 0-4.3-1.8-4.3-4.9s1.3-4.8 4.2-4.8Zm2.5 4c.3-3-3.8-3.8-4.8-1.4s-.3.8-.3 1.4h5.1Z"/><path id="t" d="M996.7 110.3c1.5 0 2.4.6 3 1.6V107h1.5v12.9h-1.4v-1.5c-.5 1.1-1.4 1.7-2.9 1.7-2.6 0-3.4-1.9-3.5-4.8 0-3.3 1.1-4.9 3.5-4.9Zm.4 1.2c-2 0-2.3 1.7-2.3 3.7s.3 3.7 2.2 3.7 2.5-1.6 2.5-3.8-.4-3.7-2.5-3.6"/><path id="q1" d="M933.6 131.9c-.2-2.4-6.1-2.7-6.1 0 .7 3.7 7.8.7 8 5.9 0 3.9-6 4.3-8.6 2.7-.8-.5-1.4-1.3-1.6-2.3l1.6-.3c.2 2.8 7 3.1 7 0s-7.7-.7-8-5.8c-.2-4 7.2-4.1 8.8-1.7.2.3.4.8.5 1.2"/><path id="q2" d="M945.5 131.9c-.2-2.4-6.1-2.7-6.1 0 .7 3.7 7.8.7 8 5.9 0 3.9-6 4.3-8.6 2.7-.8-.5-1.4-1.3-1.6-2.3l1.6-.3c.2 2.8 7 3.1 7 0s-7.7-.7-8-5.8c-.2-4 7.2-4.1 8.8-1.7.2.3.4.8.5 1.2"/><path id="u" d="M957.9 141.2v-5.7h-6.6v5.7h-1.6V129h1.6v5.2h6.6V129h1.7v12.2h-1.7Z"/><path id="v" d="M970.7 132.9c-2 0-2.4 1.6-2.4 3.6s.4 3.7 2.4 3.7 2-.7 2.1-1.9h1.6c-.3 1.9-1.5 3.1-3.7 3.1s-3.8-2-4-4.9c-.5-4.6 5-6.5 7.3-3.2.2.3.2.7.3 1.1h-1.6c-.2-.9-.8-1.6-2-1.6"/><path id="l3" d="M979.8 131.6c3.1 0 4.2 2.1 4.1 5.2h-6.7c0 2 .7 3.3 2.6 3.4 1.3 0 2.1-.6 2.4-1.4l1.4.4c-.5 1.4-1.8 2.2-3.8 2.2-2.9 0-4.3-1.8-4.3-4.9s1.3-4.8 4.2-4.8Zm2.5 4c.3-3-3.8-3.8-4.8-1.4s-.3.8-.3 1.4h5.1Z"/><path id="i4" d="M990.3 133.2c-3.9-.8-2.6 4.5-2.8 8h-1.6v-9.4h1.4v1.9c.3-1.3 1.1-2.4 2.9-2v1.4Z"/><path id="o3" d="M993.5 138.9c0 1.2.9 1.4 1.9 1.1v1.2c-1.6.5-3.5.2-3.5-1.9V133h-1.1v-1.1h1.2l.4-2.1h1v2.1h1.7v1.1h-1.7v5.9Z"/><path class="st0" d="M700.5 333.1c0-3.3 2.7-6 6-6h228c3.3 0 6 2.7 6 6v48c0 3.3-2.7 6-6 6h-228c-3.3 0-6-2.7-6-6v-48Z"/><path id="m1" d="M754 360.9c-4 0-6-2.4-6.2-6.4-.2-5.3 4.9-7.6 9.5-5.5.8.4 1.4 1.2 1.8 2.1l-1.6.4c-.6-1.2-1.8-2-3.8-2-3 0-4.3 1.9-4.3 4.9s1.4 4.9 4.5 5c1.7 0 3.1-.5 3.9-1.3v-2.2h-3.7v-1.4h5.2v4.2c-1.2 1.2-3 2.1-5.4 2.1"/><path id="n3" d="M762 349.3v-1.5h1.6v1.5H762Zm0 11.4v-9.4h1.6v9.4H762Z"/><path id="o4" d="M767.6 358.4c0 1.2.9 1.4 1.9 1.1v1.2c-1.6.5-3.5.2-3.5-1.9v-6.3h-1.1v-1.1h1.2l.4-2.1h1v2.1h1.7v1.1h-1.7v5.9Z"/><path id="u1" d="M779.4 360.7V355h-6.6v5.7h-1.6v-12.2h1.6v5.2h6.6v-5.2h1.7v12.2h-1.7Z"/><path id="w" d="M786.6 360.9c-4.4.2-2.7-5.7-3-9.6h1.6v5.9c0 1.5.3 2.5 1.9 2.4 3.6 0 2.2-5 2.5-8.3h1.5v9.4h-1.4v-1.6c-.5 1.1-1.4 1.8-3 1.8"/><path d="M798 351.1c2.6 0 3.4 1.9 3.5 4.8 0 3.3-1.1 4.9-3.5 4.9s-2.4-.5-2.9-1.7v1.5h-1.6v-12.9h1.6v5c.5-1.1 1.4-1.7 2.9-1.7Zm-.4 8.6c2 0 2.2-1.7 2.2-3.7s-.2-3.7-2.2-3.7-2.5 1.6-2.5 3.8.5 3.6 2.5 3.6M814 348.3c4 0 6.1 2.3 6.1 6.2s-2.2 6.4-6.1 6.4-6.1-2.4-6.1-6.4 2.1-6.2 6.1-6.2Zm0 11.2c3.1 0 4.4-2 4.4-5s-1.4-4.9-4.4-4.9-4.4 1.9-4.4 4.9 1.4 4.9 4.4 5"/><path id="x" d="m831.1 360.7-1.4-3.6h-5.6l-1.4 3.6H821l5-12.2h1.9l4.9 12.2h-1.7Zm-1.9-4.9-2.3-6.1c-.6 2.2-1.5 4-2.3 6.1h4.6Z"/><path id="w1" d="M836.9 360.9c-4.4.2-2.7-5.7-3-9.6h1.6v5.9c0 1.5.3 2.5 1.9 2.4 3.6 0 2.2-5 2.5-8.3h1.5v9.4H840v-1.6c-.5 1.1-1.4 1.8-3 1.8"/><path id="o5" d="M845.6 358.4c0 1.2.9 1.4 1.9 1.1v1.2c-1.6.5-3.5.2-3.5-1.9v-6.3h-1.1v-1.1h1.2l.4-2.1h1v2.1h1.7v1.1h-1.7v5.9Z"/><path id="r1" d="M852.8 352.3c-3.6 0-2.2 5-2.4 8.3h-1.6v-12.9h1.6v5.1c.5-1 1.3-1.8 3-1.8 4.4 0 2.6 5.7 3 9.6h-1.6v-6c0-1.6-.4-2.4-1.9-2.4"/><path id="x1" d="m872.5 360.7-1.4-3.6h-5.6l-1.4 3.6h-1.7l5-12.2h1.9l4.9 12.2h-1.7Zm-1.8-4.9-2.3-6.1c-.6 2.2-1.5 4-2.3 6.1h4.6Z"/><path id="p1" d="M880 351.1c2.7 0 3.5 2 3.5 4.8s-.8 4.8-3.5 4.9c-1.5 0-2.4-.6-3-1.7v5.2h-1.5v-13.1h1.5v1.5c.6-1 1.5-1.7 3-1.7Zm-.4 8.6c2 0 2.2-1.7 2.2-3.7s-.3-3.6-2.2-3.7c-2.1 0-2.5 1.6-2.5 3.8s.5 3.6 2.5 3.6"/><path id="p2" d="M889.8 351.1c2.7 0 3.5 2 3.5 4.8s-.8 4.8-3.5 4.9c-1.5 0-2.4-.6-3-1.7v5.2h-1.5v-13.1h1.5v1.5c.6-1 1.5-1.7 3-1.7Zm-.4 8.6c2 0 2.2-1.7 2.2-3.7s-.3-3.6-2.2-3.7c-2.1 0-2.5 1.6-2.5 3.8s.5 3.6 2.5 3.6"/><path class="st0" d="M540 87.4c0-3.3 2.7-6 6-6h228c3.3 0 6 2.7 6 6v48c0 3.3-2.7 6-6 6H546c-3.3 0-6-2.7-6-6v-48Z"/><g id="y"><path id="m2" d="M621.2 115.1c-4 0-6-2.4-6.2-6.4-.2-5.3 4.9-7.6 9.5-5.5.8.4 1.4 1.2 1.8 2.1l-1.6.4c-.6-1.2-1.8-2-3.8-2-3 0-4.3 1.9-4.3 4.9s1.4 4.9 4.5 5c1.7 0 3.1-.5 3.9-1.3v-2.2h-3.7v-1.4h5.2v4.2c-1.2 1.2-3 2.1-5.4 2.1"/><path id="n4" d="M629.2 103.5V102h1.6v1.5h-1.6Zm0 11.4v-9.4h1.6v9.4h-1.6Z"/><path id="o6" d="M634.8 112.6c0 1.2.9 1.4 1.9 1.1v1.2c-1.6.5-3.5.2-3.5-1.9v-6.3h-1.1v-1.1h1.2l.4-2.1h1v2.1h1.7v1.1h-1.7v5.9Z"/></g><g id="A"><path id="s1" d="M647.1 114.9h-1.9l-3.4-9.4h1.7l2.7 8.1 2.8-8.1h1.7"/><path id="n5" d="M651.8 103.5V102h1.6v1.5h-1.6Zm0 11.4v-9.4h1.6v9.4h-1.6Z"/><path id="z" d="M661.5 113.2c-.7 1-1.5 2-3.4 2s-2.9-1-2.9-2.8c0-3.2 3.1-3.1 6.2-3.1 0-1.7-.4-2.7-2-2.7s-2 .3-2.1 1.5h-1.6c.2-2 1.6-2.7 3.8-2.7s3.6 1 3.6 3.2v4c0 1 .3 1.6 1.4 1.3v1c-1.5.4-3 0-2.9-1.7Zm-4.6-.9c0 1 .6 1.6 1.6 1.6 2 0 3.1-1.4 3-3.7-2.1 0-4.5-.2-4.5 2"/></g><g id="B"><path id="q3" d="M678.5 105.6c-.2-2.4-6.1-2.7-6.1 0 .7 3.7 7.8.7 8 5.9 0 3.9-6 4.3-8.6 2.7-.8-.5-1.4-1.3-1.6-2.3l1.6-.3c.2 2.8 7 3.1 7 0s-7.7-.7-8-5.8c-.2-4 7.2-4.1 8.8-1.7.2.3.4.8.5 1.2"/><path id="q4" d="M690.3 105.6c-.2-2.4-6.1-2.7-6.1 0 .7 3.7 7.8.7 8 5.9 0 3.9-6 4.3-8.6 2.7-.8-.5-1.4-1.3-1.6-2.3l1.6-.3c.2 2.8 7 3.1 7 0s-7.7-.7-8-5.8c-.2-4 7.2-4.1 8.8-1.7.2.3.4.8.5 1.2"/><path id="u2" d="M702.8 114.9v-5.7h-6.6v5.7h-1.6v-12.2h1.6v5.2h6.6v-5.2h1.7v12.2h-1.7Z"/></g><path class="st0" d="M290 87.4c0-3.3 2.7-6 6-6h228c3.3 0 6 2.7 6 6v48c0 3.3-2.7 6-6 6H296c-3.3 0-6-2.7-6-6v-48Z"/><g id="y1"><path id="m3" d="M371.2 115.1c-4 0-6-2.4-6.2-6.4-.2-5.3 4.9-7.6 9.5-5.5.8.4 1.4 1.2 1.8 2.1l-1.6.4c-.6-1.2-1.8-2-3.8-2-3 0-4.3 1.9-4.3 4.9s1.4 4.9 4.5 5c1.7 0 3.1-.5 3.9-1.3v-2.2h-3.7v-1.4h5.2v4.2c-1.2 1.2-3 2.1-5.4 2.1"/><path id="n6" d="M379.2 103.5V102h1.6v1.5h-1.6Zm0 11.4v-9.4h1.6v9.4h-1.6Z"/><path id="o7" d="M384.8 112.6c0 1.2.9 1.4 1.9 1.1v1.2c-1.6.5-3.5.2-3.5-1.9v-6.3h-1.1v-1.1h1.2l.4-2.1h1v2.1h1.7v1.1h-1.7v5.9h.1Z"/></g><g id="A1"><path id="s2" d="M397.1 114.9h-1.9l-3.4-9.4h1.7l2.7 8.1 2.8-8.1h1.7"/><path id="n7" d="M401.8 103.5V102h1.6v1.5h-1.6Zm0 11.4v-9.4h1.6v9.4h-1.6Z"/><path id="z1" d="M411.5 113.2c-.7 1-1.5 2-3.4 2s-2.9-1-2.9-2.8c0-3.2 3.1-3.1 6.2-3.1.1-1.7-.4-2.7-2-2.7s-2 .3-2.1 1.5h-1.6c.2-2 1.6-2.7 3.8-2.7s3.6 1 3.6 3.2v4c0 1 .3 1.6 1.4 1.3v1c-1.5.4-3 0-2.9-1.7h-.1Zm-4.6-.9c0 1 .6 1.6 1.6 1.6 2 0 3.1-1.4 3-3.7-2.1 0-4.5-.2-4.5 2"/></g><g id="B1"><path id="q5" d="M428.5 105.6c-.2-2.4-6.1-2.7-6.1 0 .7 3.7 7.8.7 8 5.9.1 3.9-6 4.3-8.6 2.7-.8-.5-1.4-1.3-1.6-2.3l1.6-.3c.2 2.8 7 3.1 7 0s-7.7-.7-8-5.8c-.2-4 7.2-4.1 8.8-1.7.2.3.4.8.5 1.2"/><path id="q6" d="M440.3 105.6c-.2-2.4-6.1-2.7-6.1 0 .7 3.7 7.8.7 8 5.9.1 3.9-6 4.3-8.6 2.7-.8-.5-1.4-1.3-1.6-2.3l1.6-.3c.2 2.8 7 3.1 7 0s-7.7-.7-8-5.8c-.2-4 7.2-4.1 8.8-1.7.2.3.4.8.5 1.2"/><path id="u3" d="M452.8 114.9v-5.7h-6.6v5.7h-1.6v-12.2h1.6v5.2h6.6v-5.2h1.7v12.2h-1.7Z"/></g><path class="st1" d="M97.9 96.8h129.3"/><path class="st9" d="M98 97.2h-.2l-.6-.9h.8v.9Z"/><path class="st8" d="m242 96.8-14.3 4.6v-9.3l14.3 4.6Z"/><path class="st0" d="M100 87.4c0-3.3 2.7-6 6-6h108c3.3 0 6 2.7 6 6v48c0 3.3-2.7 6-6 6H106c-3.3 0-6-2.7-6-6v-48Z"/><g id="y2"><path id="m4" d="M114.3 115.1c-4 0-6-2.4-6.2-6.4-.2-5.3 4.9-7.6 9.5-5.5.8.4 1.4 1.2 1.8 2.1l-1.6.4c-.6-1.2-1.8-2-3.8-2-3 0-4.3 1.9-4.3 4.9s1.4 4.9 4.5 5c1.7 0 3.1-.5 3.9-1.3v-2.2h-3.7v-1.4h5.2v4.2c-1.2 1.2-3 2.1-5.4 2.1"/><path id="n8" d="M122.2 103.5V102h1.6v1.5h-1.6Zm0 11.4v-9.4h1.6v9.4h-1.6Z"/><path id="o8" d="M127.9 112.6c0 1.2.9 1.4 1.9 1.1v1.2c-1.6.5-3.5.2-3.5-1.9v-6.3h-1.1v-1.1h1.2l.4-2.1h1v2.1h1.7v1.1h-1.7v5.9Z"/></g><path id="v1" d="M139.6 106.6c-2 0-2.4 1.6-2.4 3.6s.4 3.7 2.4 3.7 2-.7 2.1-1.9h1.6c-.3 1.9-1.5 3.1-3.7 3.1s-3.8-2-4-4.9c-.5-4.6 5-6.5 7.3-3.2.2.3.2.7.3 1.1h-1.6c-.2-.9-.8-1.6-2-1.6"/><path id="j4" d="M148.7 105.4c3.1 0 4.2 1.8 4.2 4.9s-1.3 4.9-4.2 4.9-4.1-1.9-4.1-4.9 1.4-4.9 4.2-4.9Zm-.1 8.5c2.2 0 2.6-1.5 2.6-3.7s-.4-3.7-2.5-3.7-2.6 1.6-2.6 3.7.5 3.7 2.5 3.7"/><path id="C" d="M164 106.6c-3.3 0-1.9 5.2-2.2 8.3h-1.5v-6c0-1.4-.2-2.5-1.7-2.4-3.3.2-1.9 5.1-2.2 8.3h-1.5v-9.4h1.4v1.6c.5-2.2 4.9-2.5 5.3 0 .5-1 1.3-1.7 2.9-1.8 4.2 0 2.3 5.9 2.7 9.6h-1.5v-6c0-1.4-.2-2.4-1.7-2.4"/><path id="C1" d="M178.7 106.6c-3.3 0-1.9 5.2-2.2 8.3H175v-6c0-1.4-.2-2.5-1.7-2.4-3.3.2-1.9 5.1-2.2 8.3h-1.5v-9.4h1.4v1.6c.5-2.2 4.9-2.5 5.3 0 .5-1 1.3-1.7 2.9-1.8 4.2 0 2.3 5.9 2.7 9.6h-1.5v-6c0-1.4-.2-2.4-1.7-2.4"/><path id="z2" d="M190.1 113.2c-.7 1-1.5 2-3.4 2s-2.9-1-2.9-2.8c0-3.2 3.1-3.1 6.2-3.1.1-1.7-.4-2.7-2-2.7s-2 .3-2.1 1.5h-1.6c.2-2 1.6-2.7 3.8-2.7s3.6 1 3.6 3.2v4c0 1 .3 1.6 1.4 1.3v1c-1.5.4-3 0-2.9-1.7h-.1Zm-4.6-.9c0 1 .6 1.6 1.6 1.6 2 0 3.1-1.4 3-3.7-2.1 0-4.5-.2-4.5 2"/><path d="M198.8 105.4c4.4-.2 2.6 5.7 3 9.6h-1.6v-6c0-1.5-.4-2.4-1.9-2.4-3.6 0-2.2 5-2.4 8.3h-1.6v-9.4h1.4v1.6c.5-1.1 1.4-1.7 3-1.8"/><path id="t1" d="M207.1 105.4c1.5 0 2.4.6 3 1.6v-4.9h1.5V115h-1.4c0-.5 0-1.1-.1-1.5-.5 1.1-1.4 1.7-2.9 1.7-2.6 0-3.4-1.9-3.5-4.8 0-3.3 1.1-4.9 3.5-4.9h-.1Zm.4 1.1c-2 0-2.3 1.7-2.3 3.7s.3 3.7 2.2 3.7 2.5-1.6 2.5-3.8-.4-3.7-2.5-3.6"/><path class="st4" d="m877.8 112.1-11.5-9.8.2-1.3c.2-1.8.3-3.7.3-5.5s-.1-4.7-.5-6.9l11.5-9.7.2-.2c.3-.3.5-.7.6-1.1s0-.9-.1-1.2c-2.3-7.1-6.4-13.8-11.3-19.4-.7-.8-1.7-1.1-2.6-.7l-14.5 5-1.2-1c-3.3-2.5-6.9-4.5-10.8-5.9l-2.9-14.7v-.3c-.2-.4-.5-.8-.8-1-.4-.3-.7-.4-1.2-.5-7.5-1.5-15.2-1.5-22.7 0-.5 0-1 .3-1.3.7-.4.4-.6.8-.7 1.2l-2.9 14.7-1.3.5c-3.8 1.5-7.5 3.7-10.7 6.3l-14.5-5h-.3c-.4-.2-.9-.1-1.2 0-.4.1-.8.4-1 .7-5 5.6-9 12.3-11.3 19.4-.2.4-.2 1-.1 1.4.1.4.4.9.8 1.2l11.5 9.7-.2 1.3c-.2 1.8-.3 3.7-.3 5.5s.1 4.6.5 6.8l-11.5 9.8-.3.2c-.3.3-.5.7-.6 1.1 0 .4 0 .9.1 1.2 2.3 7.1 6.4 13.8 11.3 19.4.7.8 1.7 1.1 2.6.7l14.5-5 1 .9c3.3 2.5 7 4.5 10.9 6l2.9 14.7v.3c.2.4.4.8.8 1.1s.7.4 1.2.5c3.7.7 7.5 1.1 11.3 1.1s7.6-.4 11.3-1.1c.5 0 1-.3 1.3-.7s.6-.8.7-1.2l2.9-14.7 1.5-.6c3.8-1.6 7.3-3.7 10.5-6.3l14.5 5h.3c.9.4 1.7 0 2.3-.7 5-5.6 9-12.3 11.3-19.4.2-.4.2-1 .1-1.4-.1-.4-.4-.9-.8-1.2ZM821.9 130c-19.1 0-34.5-15.4-34.5-34.4s15.4-34.4 34.5-34.4 34.5 15.4 34.5 34.4S841 130 821.9 130Z"/><path class="st4" d="M822 72c-13 0-23.5 10.6-23.5 23.5S809.1 119 822 119s23.5-10.5 23.5-23.5S834.9 72 822 72Zm-.1 37.4c-7.7 0-13.9-6.2-13.9-13.8s6.2-13.8 13.9-13.8 13.9 6.2 13.9 13.8-6.2 13.8-13.9 13.8Z"/></svg>